<?xml version="1.0" standalone="no"?>
<svg width="567.429" height="311.778" viewBox="0 0 567.429 311.778" xmlns="http://www.w3.org/2000/svg" shape-rendering="crispEdges">
<title>
Yields/P1/run_0104/det1_Fit.svg
</title>
<desc>
Creator: ROOT Version 6.12/06
CreationDate: Mon Apr 15 10:29:02 2019</desc>
<defs>
</defs>
<rect x="0.5" y="0" width="566.929" height="311.278" fill="white"/>
<rect x="57.1929" y="31.1278" width="453.543" height="249.023" fill="white"/>
<rect x="57.1929" y="31.1278" width="453.543" height="249.023" fill="none" stroke="black"/>
<path d="M57.1929,40.7932h 0.181345v 239.357h 3.80824v -10.483h 0.181345v 10.483h 9.97396v -10.483h 0.181345v 10.483h 7.79783v -10.483h 0.181345v 10.483h 0.725379v -10.483h 0.36269v 10.483h 0.725379v -10.483h 0.181345v 10.483h 0.36269v -10.483h
 0.181345v 10.483h 0.181345v -10.483h 0.181345v 10.483h 1.26941v -10.483h 0.36269v 10.483h 0.36269v -10.483h 0.181345v 10.483h 1.99479v -10.483h 0.181345v 10.483h 0.181345v -27.0983h 0.181345v 27.0983h 0.181345v -37.5813h 0.181345v 2.7574h 0.181345v
 3.37479h 0.181345v -28.3088h 0.181345v -9.27249h 0.181345v -16.4037h 0.181345v -6.27353h 0.181345v -7.58429h 0.181345v -4.11471h 0.181345v -3.41368h 0.181345v -2.05507h 0.181345v -1.60701h 0.181345v -1.04073h 0.181345v -0.207308h 0.181345v
 -0.908066h 0.181345v -0.655411h 0.181345v -1.16895h 0.181345v 0.638231h 0.181345v 0.279622h 0.181345v -0.964652h 0.181345v -0.595563h 0.181345v -0.759271h 0.181345v 0.684585h 0.181345v -0.251208h 0.181345v -0.561005h 0.181345v 0.546357h 0.181345v
 -1.01902h 0.181345v 0.0548462h 0.181345v -0.789481h 0.181345v 1.50678h 0.181345v -0.454033h 0.181345v -0.0279295h 0.181345v 0.597633h 0.181345v -1.88099h 0.181345v 1.69347h 0.181345v -1.57768h 0.181345v 0.754693h 0.181345v 0.122682h 0.181345v
 -0.734635h 0.181345v 1.13685h 0.181345v -1.31829h 0.181345v 0.103411h 0.181345v 0.676408h 0.181345v 0.342959h 0.181345v -0.491431h 0.181345v -0.501972h 0.181345v 0.636887h 0.181345v -0.348306h 0.181345v -0.249552h 0.181345v 0.236315h 0.181345v
 0.402253h 0.181345v 0.581757h 0.181345v -0.500007h 0.181345v 0.178657h 0.181345v 1.32852h 0.181345v 0.136457h 0.181345v -0.844133h 0.181345v 0.497828h 0.181345v -0.811435h 0.181345v 0.170251h 0.181345v 0.0285625h 0.181345v -0.901733h 0.181345v
 -2.50161h 0.181345v -1.37386h 0.181345v -2.04424h 0.181345v -4.25036h 0.181345v -2.50321h 0.181345v -3.80213h 0.181345v -3.02461h 0.181345v -2.66935h 0.181345v -2.64087h 0.181345v -1.64611h 0.181345v -1.65749h 0.181345v -0.665162h 0.181345v
 -0.542484h 0.181345v 0.566605h 0.181345v 1.5805h 0.181345v 1.25435h 0.181345v 2.60723h 0.181345v 3.07083h 0.181345v 2.79701h 0.181345v 4.00497h 0.181345v 4.05292h 0.181345v 4.29064h 0.181345v 3.72002h 0.181345v 4.60713h 0.181345v 2.59487h 0.181345v
 2.96469h 0.181345v 0.765614h 0.181345v 0.806449h 0.181345v 1.99662h 0.181345v -0.916876h 0.181345v 1.1628h 0.36269v -0.0309597h 0.181345v -0.214962h 0.181345v 0.527449h 0.181345v 0.579281h 0.181345v -0.922665h 0.181345v 0.502082h 0.181345v 1.09137h
 0.181345v 0.207179h 0.181345v -0.71304h 0.36269v 0.200319h 0.181345v 0.477994h 0.181345v -0.941342h 0.181345v -0.1621h 0.181345v 2.2189h 0.181345v -1.85996h 0.181345v 0.300152h 0.181345v -0.978175h 0.181345v 2.13269h 0.181345v -0.216574h 0.181345v
 0.547364h 0.181345v -0.831388h 0.181345v -0.34769h 0.181345v -0.373447h 0.181345v 0.476917h 0.181345v 1.1875h 0.181345v -0.587407h 0.181345v 1.1208h 0.181345v 0.878147h 0.181345v -0.485298h 0.181345v -0.813513h 0.181345v 0.973555h 0.181345v
 -0.239432h 0.181345v -0.771791h 0.181345v 1.96586h 0.181345v -0.338924h 0.181345v 1.13047h 0.181345v 0.365548h 0.181345v 0.139391h 0.181345v -1.63541h 0.181345v 2.06146h 0.181345v -0.657661h 0.181345v 0.23161h 0.181345v -0.993564h 0.181345v 1.32389h
 0.181345v -0.236684h 0.181345v -0.598586h 0.181345v -0.575794h 0.181345v 0.711841h 0.181345v 1.0858h 0.181345v -1.13128h 0.181345v 1.52799h 0.181345v -1.16022h 0.181345v 0.234483h 0.181345v 0.142455h 0.181345v 1.55639h 0.181345v 0.926795h 0.181345v
 -1.13685h 0.181345v 0.369536h 0.181345v 0.269594h 0.181345v -1.10135h 0.181345v -0.300483h 0.181345v 0.0994992h 0.181345v 0.353495h 0.181345v -0.892813h 0.181345v 1.46556h 0.181345v 0.430601h 0.181345v -1.05435h 0.181345v 0.783794h 0.181345v
 0.770107h 0.181345v -0.823642h 0.181345v 2.18069h 0.181345v -1.85659h 0.181345v 1.19236h 0.181345v -2.49921h 0.181345v 1.14393h 0.181345v -0.267685h 0.181345v 2.47352h 0.181345v -1.71173h 0.181345v -0.972581h 0.181345v 2.62195h 0.181345v -2.25112h
 0.181345v 0.490546h 0.181345v -0.597428h 0.181345v -0.211526h 0.181345v -0.363197h 0.181345v -1.23026h 0.181345v 0.925741h 0.181345v -2.3672h 0.181345v 0.569126h 0.181345v 0.134435h 0.181345v -1.21055h 0.181345v -1.15933h 0.181345v -0.380016h
 0.181345v -1.43122h 0.181345v 0.206237h 0.181345v -0.775751h 0.181345v 0.165289h 0.181345v 0.167116h 0.181345v 0.101163h 0.181345v 0.692287h 0.181345v 1.68424h 0.181345v 1.8061h 0.181345v -0.824746h 0.181345v 1.69708h 0.181345v 1.17908h 0.181345v
 -0.15251h 0.181345v 1.71194h 0.181345v 0.170893h 0.181345v -0.114143h 0.181345v 0.0569636h 0.36269v 2.40764h 0.181345v -0.971887h 0.181345v 0.575606h 0.181345v -1.31051h 0.181345v 1.57354h 0.181345v 1.6082h 0.181345v -2.25739h 0.181345v 0.71567h
 0.181345v -0.588042h 0.181345v 0.323863h 0.181345v 0.876012h 0.181345v -0.274986h 0.181345v -1.85684h 0.181345v 1.25581h 0.181345v 0.33095h 0.181345v -1.15899h 0.181345v 0.376546h 0.181345v -1.22033h 0.181345v 1.22033h 0.181345v -0.984011h 0.181345v
 2.31151h 0.181345v -2.07145h 0.181345v 1.26105h 0.181345v 0.810399h 0.181345v 0.350917h 0.181345v -0.420133h 0.181345v -0.609096h 0.181345v -1.27166h 0.181345v 0.122461h 0.181345v 2.39295h 0.181345v -1.30994h 0.181345v -1.02141h 0.181345v 1.83544h
 0.181345v -0.681369h 0.181345v -2.05278h 0.181345v 2.05278h 0.181345v -0.71567h 0.181345v -2.01951h 0.181345v 1.0355h 0.181345v -1.091h 0.181345v 0.279561h 0.181345v -1.75623h 0.181345v -0.199657h 0.181345v 2.01242h 0.181345v 1.36236h 0.181345v
 -2.50741h 0.181345v 0.372134h 0.181345v 1.35023h 0.181345v 0.785046h 0.181345v 0.0621103h 0.181345v -1.48101h 0.181345v 1.606h 0.181345v 1.17399h 0.181345v -0.46744h 0.181345v 0.399772h 0.181345v 0.97607h 0.181345v -1.1105h 0.181345v 0.754633h
 0.181345v 1.71115h 0.181345v -2.12743h 0.181345v 1.51004h 0.181345v -0.373447h 0.181345v -0.999107h 0.181345v 1.6781h 0.181345v -1.6781h 0.181345v -0.13749h 0.181345v 1.43461h 0.181345v -0.371612h 0.181345v -0.146125h 0.181345v -1.84582h 0.181345v
 2.06555h 0.181345v -0.649811h 0.181345v -1.22142h 0.181345v 0.463348h 0.181345v 1.26105h 0.181345v 0.22079h 0.181345v -0.22079h 0.181345v -0.502977h 0.181345v 0.798085h 0.181345v -0.584569h 0.181345v -1.36961h 0.181345v 1.95418h 0.181345v -0.727247h
 0.181345v 0.359253h 0.181345v -0.640634h 0.181345v 0.495908h 0.181345v -0.840429h 0.181345v 0.625903h 0.181345v 1.02823h 0.181345v -1.58585h 0.181345v -0.799684h 0.181345v 2.30973h 0.181345v -0.881249h 0.181345v -1.42848h 0.181345v 0.195992h
 0.181345v 3.96138h 0.181345v -3.01159h 0.181345v 0.938773h 0.181345v -0.938773h 0.181345v -0.751225h 0.181345v 1.61568h 0.181345v -0.794274h 0.181345v 0.943278h 0.181345v -2.41667h 0.181345v 0.988838h 0.181345v 1.13128h 0.181345v 0.829944h 0.181345v
 -3.39029h 0.181345v 1.49734h 0.181345v -1.6208h 0.181345v 1.08301h 0.181345v 0.606382h 0.181345v 0.489035h 0.181345v -1.22693h 0.181345v 0.465385h 0.181345v -0.465385h 0.181345v -1.01285h 0.181345v 3.49774h 0.181345v -2.99979h 0.181345v -0.126033h
 0.181345v 1.58648h 0.181345v 0.495908h 0.181345v -1.7011h 0.181345v -0.691855h 0.181345v 2.61057h 0.181345v -2.54896h 0.181345v 0.0618562h 0.181345v 0.568395h 0.181345v -0.0642202h 0.181345v 0.258533h 0.181345v 0.39628h 0.181345v 1.8484h 0.181345v
 -3.37479h 0.181345v 3.07529h 0.181345v -2.26767h 0.181345v 1.5439h 0.181345v -0.280079h 0.181345v 0.92989h 0.181345v 0.602023h 0.181345v -1.73862h 0.181345v 0.486786h 0.181345v 0.649811h 0.181345v 1.06981h 0.181345v -4.01053h 0.181345v 2.721h
 0.181345v 0.97607h 0.181345v -1.6167h 0.181345v 0.281382h 0.181345v 1.96887h 0.181345v -0.940645h 0.181345v 0.463011h 0.181345v 0.804649h 0.181345v -2.43723h 0.181345v 1.55443h 0.181345v 1.38698h 0.181345v -1.30882h 0.181345v -0.538819h 0.181345v
 2.01951h 0.181345v 0.0866698h 0.181345v -1.25062h 0.181345v 1.42546h 0.181345v 0.176889h 0.181345v -1.19686h 0.181345v 2.69179h 0.181345v -2.10519h 0.181345v -0.337977h 0.181345v 2.24802h 0.181345v -0.288082h 0.181345v -2.69385h 0.181345v 0.160042h
 0.181345v 1.08371h 0.36269v 1.26105h 0.181345v -0.822647h 0.181345v 0.54343h 0.181345v 0.659711h 0.181345v -0.286264h 0.181345v -0.465385h 0.181345v 1.34096h 0.181345v -0.297528h 0.181345v -0.387812h 0.181345v -0.837842h 0.181345v -0.357977h
 0.181345v 2.81056h 0.181345v -0.316189h 0.181345v -3.27012h 0.181345v 4.12844h 0.181345v -3.61572h 0.181345v 0.895162h 0.181345v -0.981832h 0.181345v 2.23086h 0.181345v 1.91968h 0.181345v -2.70044h 0.181345v 1.81704h 0.181345v -1.03628h 0.181345v
 0.717876h 0.181345v -2.4211h 0.181345v 3.06477h 0.181345v -1.95085h 0.181345v -1.29184h 0.181345v 0.0887031h 0.181345v 2.51033h 0.181345v -1.78133h 0.181345v 3.09728h 0.181345v -2.5265h 0.181345v -0.756349h 0.181345v 0.563686h 0.181345v 0.585512h
 0.181345v -0.099173h 0.181345v 0.708269h 0.181345v -0.904685h 0.181345v 0.597071h 0.181345v -0.201654h 0.181345v 0.929401h 0.181345v -0.727747h 0.181345v 0.204379h 0.181345v 1.7428h 0.181345v -0.454886h 0.181345v -3.21713h 0.181345v 3.21713h
 0.181345v -1.08073h 0.181345v 2.24468h 0.181345v -0.938213h 0.181345v 1.05969h 0.181345v -2.26149h 0.181345v 0.318408h 0.181345v -1.33381h 0.181345v 0.297528h 0.181345v -1.06345h 0.181345v 1.67667h 0.181345v 0.104664h 0.181345v -1.68768h 0.181345v
 0.869981h 0.181345v 2.48134h 0.181345v -2.07801h 0.181345v 0.51977h 0.181345v -0.51977h 0.181345v -0.988838h 0.181345v 4.54352h 0.181345v -4.25359h 0.36269v 3.62071h 0.181345v -1.86375h 0.181345v 0.672281h 0.181345v -3.09728h 0.181345v 3.80084h
 0.181345v -0.58855h 0.181345v -1.32556h 0.181345v -0.417236h 0.181345v 0.417236h 0.181345v 1.21055h 0.181345v -1.31595h 0.181345v 0.105393h 0.181345v -0.51977h 0.181345v -1.17908h 0.181345v 1.48879h 0.181345v -0.812213h 0.181345v 2.58051h 0.181345v
 -1.34523h 0.181345v -0.527016h 0.181345v -0.307614h 0.181345v 0.101844h 0.181345v -0.101844h 0.181345v -0.886993h 0.181345v -0.837842h 0.181345v 3.44286h 0.181345v -2.01951h 0.181345v -0.963627h 0.181345v -1.92586h 0.181345v -0.244596h 0.181345v
 1.00305h 0.181345v -0.593167h 0.181345v 2.7242h 0.181345v -1.6034h 0.181345v -1.77138h 0.181345v -0.699942h 0.181345v 1.18524h 0.181345v -2.83937h 0.181345v -0.469514h 0.181345v -0.519324h 0.181345v 1.12571h 0.181345v -1.75075h 0.181345v 1.9584h
 0.181345v 0.0698562h 0.181345v -0.684453h 0.181345v 0.545062h 0.181345v -1.39092h 0.181345v 2.61882h 0.181345v -1.43461h 0.181345v 1.66204h 0.181345v -1.45534h 0.36269v 0.422088h 0.181345v -0.560206h 0.181345v 2.539h 0.181345v -2.26149h 0.181345v
 3.18345h 0.181345v -1.86751h 0.181345v 1.52571h 0.181345v -0.0842555h 0.181345v 0.168983h 0.181345v -1.37954h 0.181345v 0.472658h 0.181345v -0.550018h 0.181345v -1.04344h 0.181345v 0.813703h 0.181345v -3.32912h 0.181345v 1.33814h 0.181345v -1.9945h
 0.181345v -2.27284h 0.181345v -0.542838h 0.181345v -1.52057h 0.181345v -2.27488h 0.181345v -1.97702h 0.181345v 0.03313h 0.181345v -1.9863h 0.181345v -1.65151h 0.181345v -2.20416h 0.181345v -0.334365h 0.181345v -1.747h 0.181345v -0.233878h 0.181345v
 -0.419604h 0.181345v 0.208347h 0.181345v -1.86375h 0.181345v 0.22079h 0.181345v -0.085301h 0.181345v -0.891838h 0.181345v 1.1492h 0.181345v 0.672281h 0.181345v 1.22413h 0.181345v 1.81078h 0.181345v -0.0661875h 0.181345v 1.52756h 0.181345v 0.877353h
 0.181345v 2.43061h 0.181345v 0.430382h 0.181345v 1.3699h 0.181345v 3.607h 0.181345v 1.07752h 0.181345v 2.14635h 0.181345v 0.601751h 0.181345v 4.90018h 0.181345v 0.792005h 0.181345v 0.495908h 0.181345v 0.254188h 0.181345v 0.433377h 0.181345v
 -0.34769h 0.181345v 2.31703h 0.181345v 2.14883h 0.181345v -0.115011h 0.181345v 0.703561h 0.181345v -1.7011h 0.181345v 2.43899h 0.181345v -1.09377h 0.181345v -1.34523h 0.181345v 1.94308h 0.181345v 0.750096h 0.181345v -2.25793h 0.181345v 2.7795h
 0.36269v -1.75182h 0.181345v 2.43013h 0.181345v -3.00966h 0.181345v 2.59903h 0.181345v -2.93638h 0.181345v 3.91245h 0.181345v 0.587407h 0.181345v -0.44268h 0.181345v -2.90213h 0.181345v 1.25062h 0.181345v 0.666356h 0.181345v -2.03653h 0.181345v
 0.119557h 0.181345v -0.472658h 0.181345v 1.33711h 0.181345v -0.622468h 0.181345v -0.945547h 0.181345v 0.584004h 0.181345v 3.02168h 0.181345v -4.05718h 0.181345v 2.6687h 0.181345v 0.817703h 0.181345v -2.33135h 0.181345v 0.487908h 0.181345v -0.123461h
 0.181345v 0.886168h 0.181345v 0.941342h 0.181345v -0.810399h 0.181345v -2.42499h 0.181345v 2.55708h 0.181345v -0.132087h 0.181345v -2.42499h 0.181345v 1.78133h 0.181345v 0.643664h 0.181345v 0.535413h 0.181345v 1.42784h 0.181345v -2.35273h 0.181345v
 -2.25793h 0.181345v 5.06669h 0.181345v -1.3288h 0.181345v -0.958391h 0.181345v -0.775751h 0.181345v 5.21531h 0.181345v -1.36036h 0.181345v -1.9788h 0.181345v 1.49863h 0.36269v -1.06443h 0.181345v 1.22279h 0.181345v -0.470209h 0.181345v 3.25948h
 0.181345v -4.86836h 0.181345v 5.65419h 0.181345v -5.2321h 0.181345v -0.422088h 0.181345v 1.15285h 0.181345v -0.296555h 0.181345v 0.599042h 0.181345v -1.45534h 0.181345v 3.06577h 0.181345v -0.664891h 0.181345v -0.321796h 0.181345v -0.158366h
 0.181345v -0.311843h 0.181345v 1.80063h 0.181345v 0.174844h 0.181345v -2.72806h 0.181345v 4.01207h 0.181345v -2.46748h 0.181345v -1.24803h 0.181345v -1.56348h 0.181345v 2.33135h 0.181345v 0.808954h 0.181345v -1.87338h 0.181345v 2.38037h 0.181345v
 0.524578h 0.181345v -1.19686h 0.181345v -0.955507h 0.181345v 0.955507h 0.181345v -0.800389h 0.181345v 1.64552h 0.181345v 0.711841h 0.181345v -0.884687h 0.181345v -3.37479h 0.181345v 0.418197h 0.181345v -2.23005h 0.181345v -1.61783h 0.181345v
 0.109992h 0.181345v -1.57136h 0.181345v -1.69263h 0.181345v -0.264564h 0.181345v -1.81044h 0.181345v -2.62758h 0.181345v -1.60649h 0.181345v -2.38151h 0.181345v -1.11006h 0.181345v -2.87329h 0.181345v 0.0771626h 0.181345v -2.62141h 0.181345v
 -1.21806h 0.181345v -1.9669h 0.181345v -1.40788h 0.181345v -0.332405h 0.181345v -1.26105h 0.181345v -1.16395h 0.181345v 0.160893h 0.181345v -1.16694h 0.181345v 0.728538h 0.181345v -0.464195h 0.181345v -0.339029h 0.181345v 0.112167h 0.181345v
 0.0375748h 0.181345v 0.284826h 0.181345v 0.447426h 0.181345v 2.69435h 0.181345v 0.333978h 0.181345v 1.62834h 0.181345v 1.52496h 0.181345v 1.9983h 0.181345v 0.102073h 0.181345v 4.09136h 0.181345v 0.874986h 0.181345v 0.979231h 0.181345v 1.21055h
 0.181345v 3.42968h 0.181345v 0.703561h 0.181345v 2.67122h 0.181345v 3.35332h 0.181345v 1.46292h 0.181345v 1.88507h 0.181345v 0.96715h 0.181345v 1.34191h 0.181345v 2.91413h 0.181345v 0.97607h 0.181345v 0.82891h 0.181345v 2.04997h 0.181345v -0.480162h
 0.181345v -1.78133h 0.181345v 1.31595h 0.181345v 0.465385h 0.181345v 2.01951h 0.181345v -1.04344h 0.181345v 2.16423h 0.181345v -1.91004h 0.181345v 0.789248h 0.181345v 3.99498h 0.181345v 0.720318h 0.181345v -2.06555h 0.181345v 1.7011h 0.181345v
 -4.07835h 0.181345v 3.37479h 0.181345v 0.34769h 0.181345v -1.97548h 0.181345v -2.55022h 0.181345v 1.08073h 0.181345v 0.570778h 0.181345v -0.288082h 0.181345v -0.282697h 0.181345v -0.817703h 0.181345v 4.26267h 0.181345v 1.47667h 0.181345v -3.45215h
 0.181345v 0.630251h 0.181345v 4.03245h 0.181345v -4.6627h 0.181345v 0.955507h 0.181345v -0.955507h 0.181345v 0.311843h 0.181345v 3.1403h 0.181345v -1.82436h 0.181345v -1.31595h 0.181345v 3.93648h 0.181345v -4.85335h 0.181345v -3.66846h 0.181345v
 3.37479h 0.181345v 1.52896h 0.181345v 7.83328h 0.181345v -8.46353h 0.181345v 3.06924h 0.181345v -0.737894h 0.181345v -1.37584h 0.181345v -0.325256h 0.181345v -2.91744h 0.181345v -0.26303h 0.181345v 0.803224h 0.181345v 3.03491h 0.181345v -1.28791h
 0.181345v 0.630251h 0.181345v -1.23528h 0.181345v -1.68216h 0.181345v 3.2427h 0.181345v -4.75634h 0.181345v 3.1958h 0.181345v 0.605034h 0.36269v -0.605034h 0.181345v -2.7079h 0.181345v 1.56593h 0.181345v -1.06176h 0.181345v -0.504174h 0.181345v
 -0.960566h 0.181345v 8.52181h 0.181345v -5.71781h 0.181345v -5.75407h 0.181345v 4.93637h 0.181345v -1.02574h 0.181345v 1.84344h 0.181345v 0.282697h 0.181345v 2.4747h 0.181345v -2.18662h 0.181345v 1.85422h 0.181345v -0.643664h 0.181345v -1.21055h
 0.181345v -1.65151h 0.181345v 2.86206h 0.181345v -2.05884h 0.181345v 5.19914h 0.181345v 1.6366h 0.181345v -5.69378h 0.181345v -0.581757h 0.181345v 1.18679h 0.181345v 1.97548h 0.181345v -2.58051h 0.181345v -3.1958h 0.181345v 0.992082h 0.181345v
 -1.46474h 0.181345v 3.66846h 0.181345v 2.23282h 0.181345v -2.23282h 0.181345v 4.45003h 0.181345v -2.88949h 0.181345v -0.955507h 0.181345v -1.46949h 0.181345v 3.09728h 0.181345v -3.37479h 0.181345v 1.747h 0.181345v -0.305542h 0.181345v 4.96824h
 0.181345v -4.6627h 0.181345v 0.630251h 0.181345v -0.630251h 0.181345v -2.28719h 0.181345v -1.02574h 0.181345v 2.7079h 0.181345v -3.43398h 0.181345v 1.23026h 0.181345v -0.254188h 0.181345v 2.16423h 0.181345v 1.21055h 0.181345v 0.318408h 0.181345v
 -1.52896h 0.181345v -1.65151h 0.181345v -1.72327h 0.181345v 3.37479h 0.181345v 4.35085h 0.181345v -5.19914h 0.181345v 3.03491h 0.181345v -1.28791h 0.181345v 2.33135h 0.181345v -2.93638h 0.181345v 1.23528h 0.181345v -1.23528h 0.181345v 4.85335h
 0.181345v -8.28733h 0.181345v 7.10825h 0.181345v -0.373447h 0.181345v -2.38395h 0.181345v 0.643664h 0.36269v 2.11374h 0.181345v -3.06924h 0.181345v -0.605034h 0.181345v 4.45003h 0.181345v -1.1492h 0.181345v 0.756349h 0.181345v -0.382902h 0.181345v
 -2.7574h 0.181345v 3.1403h 0.181345v -3.1403h 0.181345v 0.643664h 0.181345v -1.56054h 0.181345v 5.26773h 0.181345v -1.9669h 0.181345v 1.9669h 0.181345v -2.33135h 0.181345v 1.51365h 0.181345v -3.53315h 0.181345v 5.6668h 0.181345v -3.64729h 0.181345v
 -0.355871h 0.181345v -1.01997h 0.181345v 6.46459h 0.181345v -4.35085h 0.36269v 2.45791h 0.181345v -2.45791h 0.181345v -1.44145h 0.181345v 2.62053h 0.181345v 0.414377h 0.181345v 2.26149h 0.181345v 5.18664h 0.181345v -7.86251h 0.181345v 3.6845h
 0.181345v -1.95418h 0.181345v 1.95418h 0.181345v -2.84407h 0.181345v 0.438403h 0.181345v 4.65035h 0.181345v -1.16395h 0.181345v -0.550018h 0.181345v -2.93638h 0.181345v 0.916876h 0.181345v -4.11268h 0.181345v 2.33135h 0.181345v 2.7574h 0.181345v
 4.69073h 0.181345v -4.17801h 0.181345v 2.24468h 0.36269v -1.16395h 0.181345v -3.9248h 0.181345v 1.83544h 0.36269v 4.51436h 0.181345v 2.88949h 0.181345v 0.817703h 0.181345v -2.33135h 0.181345v -2.63689h 0.181345v -2.7574h 0.181345v 2.16423h 0.181345v
 4.7437h 0.181345v -2.21721h 0.181345v -2.5265h 0.181345v 6.42586h 0.181345v -5.21531h 0.181345v -1.21055h 0.181345v 1.85422h 0.181345v 5.48852h 0.181345v -5.48852h 0.181345v -0.643664h 0.181345v 8.15169h 0.181345v -6.13219h 0.181345v 4.11268h
 0.181345v -6.13219h 0.181345v 4.35085h 0.181345v -0.817703h 0.181345v 1.68216h 0.181345v 8.02513h 0.181345v -8.88959h 0.181345v 7.44813h 0.181345v -1.31595h 0.181345v -4.35085h 0.181345v -1.78133h 0.181345v -1.59345h 0.181345v 3.37479h 0.181345v
 0.97607h 0.36269v -6.46459h 0.181345v 5.48852h 0.181345v 5.6668h 0.181345v -9.04158h 0.181345v 0.775751h 0.181345v 9.70729h 0.181345v -6.13219h 0.181345v 11.5265h 0.181345v -9.36224h 0.181345v 1.21055h 0.181345v -5.26773h 0.181345v 0.916876h
 0.181345v 10.483h 0.181345v -7.34274h 0.181345v 1.21055h 0.181345v -1.21055h 0.181345v -6.51509h 0.181345v 1.59345h 0.181345v 3.80084h 0.181345v 6.6822h 0.181345v -8.70171h 0.181345v 10.483h 0.181345v -15.9716h 0.181345v 2.11374h 0.181345v 4.35085h
 0.181345v 2.16423h 0.181345v -2.16423h 0.181345v 1.04344h 0.181345v -2.93638h 0.181345v -0.864454h 0.181345v 7.44813h 0.181345v -4.69073h 0.181345v -6.46459h 0.181345v 1.37584h 0.181345v -3.23006h 0.181345v -3.1403h 0.36269v -1.35528h 0.181345v
 5.70613h 0.181345v -0.617385h 0.181345v -4.65035h 0.181345v -1.68216h 0.181345v -4.15054h 0.181345v 5.83269h 0.181345v -3.55167h 0.181345v 1.47667h 0.181345v 1.21055h 0.181345v -4.6627h 0.181345v 1.28791h 0.181345v 0.339876h 0.181345v -4.43654h
 0.181345v 3.43901h 0.181345v 0.325256h 0.181345v 2.49664h 0.181345v -2.16423h 0.36269v 5.15612h 0.181345v -2.19571h 0.36269v -0.403326h 0.181345v 11.3007h 0.181345v -3.03491h 0.181345v -3.64729h 0.181345v 6.6822h 0.181345v 0.864454h 0.181345v
 -5.21531h 0.181345v 2.01951h 0.181345v 3.1958h 0.181345v 0.916876h 0.36269v -5.48852h 0.181345v 2.11374h 0.181345v 6.51509h 0.36269v -3.1403h 0.181345v -4.11268h 0.181345v 5.08875h 0.36269v -4.35085h 0.181345v -0.737894h 0.181345v -5.39429h
 0.181345v 4.69073h 0.181345v -2.5265h 0.181345v -3.1403h 0.181345v -2.59903h 0.181345v -1.86952h 0.181345v 4.46855h 0.181345v -7.34274h 0.181345v 0.293676h 0.181345v -0.864454h 0.181345v -5.16856h 0.181345v -1.33252h 0.181345v 1.13482h 0.181345v
 -3.33545h 0.181345v -3.24823h 0.181345v 2.03767h 0.181345v -2.28974h 0.181345v -0.370398h 0.181345v -0.121477h 0.181345v -1.82161h 0.181345v -1.13611h 0.181345v 0.403326h 0.181345v -2.87615h 0.181345v 2.57265h 0.181345v -2.57265h 0.181345v 1.41613h
 0.181345v -1.58417h 0.181345v -1.28109h 0.181345v 3.24103h 0.181345v -3.54504h 0.181345v -0.805818h 0.181345v 0.215545h 0.181345v 1.44145h 0.181345v 0.240703h 0.181345v -0.787878h 0.181345v -0.748857h 0.181345v -0.360968h 0.181345v -0.491304h
 0.181345v -0.20577h 0.181345v 1.57832h 0.181345v -0.373447h 0.181345v -2.38395h 0.181345v 0.578051h 0.181345v -1.01285h 0.181345v 1.21055h 0.181345v -2.33135h 0.181345v 0.579528h 0.181345v 1.35897h 0.181345v -2.44174h 0.181345v -1.46643h 0.181345v
 3.46239h 0.181345v -2.32238h 0.181345v -2.24653h 0.181345v 3.42125h 0.181345v 0.116787h 0.181345v -0.687565h 0.181345v 1.46949h 0.181345v 0.759515h 0.181345v 0.461329h 0.181345v -0.13325h 0.181345v -0.0661875h 0.181345v 1.97241h 0.181345v 0.22743h
 0.181345v 0.544361h 0.181345v 2.96469h 0.181345v -1.20314h 0.181345v 5.9114h 0.181345v -1.85422h 0.181345v 5.90128h 0.181345v -1.15758h 0.181345v 4.19249h 0.181345v -1.9669h 0.181345v 2.61057h 0.181345v 1.13767h 0.181345v 5.6668h 0.181345v 2.21721h
 0.181345v 2.59903h 0.181345v 3.1403h 0.181345v -0.570778h 0.181345v 1.78133h 0.181345v -2.86206h 0.181345v 4.17801h 0.181345v 0.703561h 0.181345v 1.51365h 0.181345v 4.61854h 0.181345v 3.64729h 0.36269v -4.69073h 0.181345v -1.89295h 0.181345v
 5.26773h 0.181345v -7.72564h 0.181345v 18.2087h 0.181345v -6.13219h 0.181345v 6.13219h 0.36269v -6.13219h 0.181345v -5.56141h 0.181345v 7.34274h 0.181345v 2.01951h 0.181345v -3.80084h 0.181345v 12.2644h 0.181345v -8.46353h 0.36269v 18.9466h
 0.181345v -18.9466h 0.181345v 5.08875h 0.181345v 3.37479h 0.181345v 10.483h 0.181345v -22.7474h 0.181345v 22.7474h 0.181345v -13.8578h 0.181345v -5.08875h 0.181345v 2.33135h 0.181345v 2.7574h 0.181345v 7.72564h 0.36269v -4.35085h 0.181345v -10.483h
 0.181345v 20.9661h 0.181345v -10.483h 0.181345v -13.8578h 0.181345v 45.3069h 0.181345v -31.4491h 0.181345v 4.35085h 0.181345v -12.8144h 0.181345v 29.4296h 0.181345v -10.483h 0.181345v -13.8578h 0.181345v 13.8578h 0.181345v -10.483h 0.544034v
 4.35085h 0.181345v -7.72564h 0.181345v 7.72564h 0.181345v -10.483h 0.181345v 10.483h 0.181345v -7.72564h 0.36269v 3.37479h 0.36269v -6.13219h 0.181345v 6.13219h 0.36269v 4.35085h 0.181345v -4.35085h 0.181345v -3.37479h 0.181345v 7.72564h 0.181345v
 -7.72564h 0.181345v 24.3409h 0.181345v -27.0983h 0.181345v 6.13219h 0.181345v 10.483h 0.181345v -16.6152h 0.181345v 10.483h 0.181345v -7.72564h 0.181345v 3.37479h 0.36269v -8.46353h 0.181345v 29.4296h 0.181345v -24.3409h 0.181345v 13.8578h 0.181345v
 -18.9466h 0.181345v -3.80084h 0.181345v 16.6152h 0.544034v -19.6501h 0.181345v 3.03491h 0.181345v -3.03491h 0.181345v 3.03491h 0.181345v 1.78133h 0.181345v -1.78133h 0.181345v 12.2644h 0.181345v -20.9661h 0.181345v 8.70171h 0.181345v -6.6822h
 0.181345v -1.04344h 0.181345v -1.89295h 0.181345v 11.3999h 0.181345v -11.3999h 0.181345v 2.93638h 0.181345v 2.33135h 0.181345v -1.21055h 0.181345v -2.16423h 0.181345v 1.04344h 0.181345v -4.61854h 0.181345v 8.26583h 0.181345v -7.44813h 0.181345v
 1.78133h 0.181345v 3.1403h 0.181345v -7.25298h 0.36269v 14.5957h 0.181345v -13.0821h 0.181345v -1.51365h 0.181345v 11.2209h 0.181345v -8.88959h 0.181345v 8.88959h 0.181345v -5.08875h 0.181345v 5.08875h 0.181345v 7.72564h 0.181345v -7.72564h
 0.181345v 5.39429h 0.181345v 12.8144h 0.181345v -12.8144h 0.181345v -5.39429h 0.181345v -1.44145h 0.181345v 6.83575h 0.181345v 5.08875h 0.181345v 7.72564h 0.36269v -7.72564h 0.181345v -7.10825h 0.181345v 14.8339h 0.544034v -10.483h 0.181345v 10.483h
 0.181345v 6.13219h 0.544034v -13.8578h 0.181345v -2.7574h 0.181345v 27.0983h 0.181345v -20.9661h 0.181345v -3.37479h 0.36269v -5.08875h 0.181345v 12.8144h 0.181345v 6.13219h 0.181345v -6.13219h 0.181345v -7.72564h 0.181345v 3.37479h 0.181345v
 -6.13219h 0.181345v 37.5813h 0.181345v -20.9661h 0.181345v -10.483h 0.181345v -3.37479h 0.181345v 13.8578h 0.181345v -6.13219h 0.181345v 6.13219h 0.181345v -6.13219h 0.544034v 6.13219h 0.181345v -6.13219h 0.181345v -12.8144h 0.181345v 12.8144h
 0.181345v -4.35085h 0.181345v 10.483h 0.181345v -6.13219h 0.181345v 27.0983h 0.181345v -10.483h 0.181345v -16.6152h 0.36269v -4.35085h 0.36269v 10.483h 0.181345v -10.483h 0.36269v 4.35085h 0.181345v -10.483h 0.181345v -2.33135h 0.181345v 5.08875h
 0.181345v 3.37479h 0.36269v -3.37479h 0.181345v 7.72564h 0.181345v -4.35085h 0.181345v -6.13219h 0.181345v 2.7574h 0.181345v 24.3409h 0.181345v -29.4296h 0.181345v 5.08875h 0.36269v -10.483h 0.181345v 10.483h 0.36269v -8.88959h 0.181345v 3.80084h
 0.36269v 8.46353h 0.36269v -3.37479h 0.181345v -2.7574h 0.544034v -7.72564h 0.181345v 7.72564h 0.181345v -12.8144h 0.181345v 1.1208h 0.181345v 11.6936h 0.181345v -2.33135h 0.181345v 8.46353h 0.181345v -13.8578h 0.181345v 5.39429h 0.181345v 8.46353h
 0.181345v -12.2644h 0.181345v 1.78133h 0.181345v -1.78133h 0.181345v -7.72564h 0.181345v 24.3409h 0.181345v -24.3409h 0.181345v 11.5265h 0.181345v -6.83575h 0.181345v -1.31595h 0.181345v 4.35085h 0.181345v -5.56141h 0.181345v 9.36224h 0.181345v
 -5.39429h 0.181345v 5.39429h 0.181345v 5.08875h 0.181345v -2.7574h 0.181345v -6.13219h 0.181345v 1.78133h 0.181345v 7.10825h 0.181345v -8.88959h 0.181345v 22.7474h 0.181345v -24.3409h 0.181345v 13.8578h 0.181345v -12.2644h 0.36269v 6.13219h
 0.181345v -2.33135h 0.181345v -2.01951h 0.181345v 4.35085h 0.544034v -6.13219h 0.181345v 12.2644h 0.181345v -8.46353h 0.181345v 2.33135h 0.181345v 16.6152h 0.544034v -10.483h 0.36269v -3.37479h 0.181345v -10.483h 0.181345v 13.8578h 0.181345v
 4.35085h 0.181345v -12.8144h 0.181345v 12.8144h 0.181345v -16.6152h 0.181345v 16.6152h 0.181345v -18.2087h 0.181345v 5.39429h 0.181345v 5.08875h 0.181345v 7.72564h 0.181345v -16.6152h 0.181345v 22.7474h 0.181345v -16.6152h 0.181345v -4.35085h
 0.36269v 4.35085h 0.181345v 2.7574h 0.181345v -13.2404h 0.181345v 10.483h 0.181345v -7.72564h 0.181345v 7.72564h 0.181345v -2.33135h 0.181345v -3.80084h 0.181345v 1.78133h 0.181345v 10.483h 0.181345v 4.35085h 0.181345v -16.6152h 0.181345v 8.88959h
 0.181345v -8.88959h 0.36269v -8.70171h 0.181345v 7.10825h 0.181345v -2.7574h 0.181345v 16.6152h 0.181345v -10.483h 0.181345v -1.78133h 0.181345v -3.03491h 0.181345v 11.9245h 0.181345v -14.451h 0.181345v 3.96795h 0.36269v -1.44145h 0.181345v -2.5265h
 0.181345v -3.1403h 0.181345v 4.35085h 0.181345v 1.31595h 0.181345v 6.83575h 0.181345v -2.01951h 0.181345v -4.81624h 0.181345v 11.9245h 0.181345v -15.5718h 0.181345v 12.8144h 0.181345v 2.7574h 0.181345v -7.10825h 0.181345v -10.483h 0.181345v 5.6668h
 0.181345v -3.64729h 0.181345v 5.08875h 0.181345v -3.96795h 0.181345v -3.1403h 0.181345v 3.1403h 0.181345v -4.05718h 0.181345v 1.89295h 0.181345v -1.89295h 0.181345v 6.58368h 0.181345v -2.5265h 0.181345v 7.34274h 0.181345v -11.3999h 0.181345v
 6.58368h 0.181345v 1.44145h 0.181345v -8.88959h 0.181345v 2.7574h 0.181345v 4.69073h 0.181345v -3.64729h 0.181345v -2.01951h 0.181345v 4.35085h 0.181345v 4.35085h 0.181345v -8.70171h 0.181345v 5.6668h 0.181345v -7.44813h 0.181345v 3.80084h 0.181345v
 5.08875h 0.181345v -8.88959h 0.181345v 12.2644h 0.181345v -7.34274h 0.181345v 2.5265h 0.181345v -3.64729h 0.181345v -2.93638h 0.36269v 6.58368h 0.181345v 1.44145h 0.181345v -1.44145h 0.181345v -5.6668h 0.181345v 2.01951h 0.181345v 3.64729h 0.181345v
 1.44145h 0.181345v -1.44145h 0.181345v -6.58368h 0.181345v 0.916876h 0.181345v -2.59903h 0.181345v 8.26583h 0.181345v -6.58368h 0.181345v 1.89295h 0.181345v 1.04344h 0.181345v 2.33135h 0.181345v -3.37479h 0.181345v 2.16423h 0.181345v -4.05718h
 0.181345v 2.93638h 0.181345v -5.39429h 0.181345v 6.51509h 0.181345v -3.1403h 0.181345v -1.78133h 0.181345v 10.483h 0.181345v -9.61859h 0.181345v -0.864454h 0.181345v 7.44813h 0.181345v -2.5265h 0.181345v -7.95654h 0.181345v 3.03491h 0.181345v
 -0.817703h 0.544034v 6.94989h 0.181345v -4.35085h 0.181345v -4.81624h 0.181345v -2.5265h 0.181345v 4.7437h 0.181345v -2.88949h 0.181345v 2.88949h 0.181345v 1.68216h 0.181345v 8.02513h 0.181345v -10.483h 0.181345v -0.737894h 0.181345v -1.37584h
 0.181345v 2.11374h 0.181345v -0.737894h 0.181345v 3.1958h 0.181345v -7.54666h 0.181345v 2.97501h 0.181345v 2.88949h 0.181345v -2.21721h 0.181345v 2.21721h 0.181345v -5.31448h 0.181345v 3.09728h 0.181345v 0.703561h 0.181345v -1.37584h 0.181345v
 -3.50573h 0.181345v 3.50573h 0.181345v 1.37584h 0.181345v -2.01951h 0.181345v -3.87069h 0.181345v -1.83544h 0.181345v 2.33135h 0.181345v 6.90794h 0.181345v -8.34939h 0.181345v 1.95418h 0.181345v 4.88157h 0.181345v -8.15169h 0.181345v 3.80084h
 0.181345v 1.71396h 0.181345v -2.24468h 0.181345v -2.84407h 0.181345v 2.84407h 0.181345v 1.65151h 0.181345v -3.60569h 0.181345v -0.889894h 0.181345v 5.08875h 0.181345v -4.65035h 0.181345v 5.9114h 0.181345v -5.4599h 0.181345v 0.945547h 0.181345v
 -0.480162h 0.181345v 0.97607h 0.181345v 2.7574h 0.181345v 4.15054h 0.181345v -4.7437h 0.181345v -3.60569h 0.181345v 1.95418h 0.181345v 1.08073h 0.181345v 3.80084h 0.181345v 0.737894h 0.181345v -2.11374h 0.181345v 2.88949h 0.36269v -3.53315h
 0.181345v 11.799h 0.181345v -8.26583h 0.181345v -1.51365h 0.181345v 1.51365h 0.181345v -2.88949h 0.181345v 4.57164h 0.181345v 0.916876h 0.181345v -0.916876h 0.181345v -5.83269h 0.181345v 4.15054h 0.181345v 4.61854h 0.181345v -2.93638h 0.181345v
 0.916876h 0.181345v 0.97607h 0.181345v -5.79231h 0.181345v 0.703561h 0.181345v 3.1958h 0.181345v 9.61859h 0.181345v -4.35085h 0.181345v -1.21055h 0.181345v -7.95654h 0.181345v 5.79231h 0.181345v 7.72564h 0.181345v -8.70171h 0.181345v -4.11268h
 0.181345v 5.08875h 0.181345v 6.13219h 0.181345v -8.02513h 0.181345v 6.58368h 0.181345v -7.44813h 0.181345v 6.13219h 0.181345v -1.21055h 0.181345v -2.16423h 0.36269v 1.04344h 0.181345v -1.04344h 0.181345v 1.04344h 0.36269v -2.01951h 0.181345v 3.1403h
 0.181345v -5.73934h 0.181345v 1.68216h 0.181345v 2.93638h 0.181345v 1.1208h 0.181345v 1.21055h 0.181345v -2.33135h 0.181345v -3.80084h 0.181345v 6.13219h 0.181345v -6.13219h 0.181345v 3.80084h 0.181345v -8.76908h 0.181345v 2.63689h 0.181345v
 6.13219h 0.181345v 3.64729h 0.181345v -7.44813h 0.181345v 3.80084h 0.181345v 2.33135h 0.181345v -2.33135h 0.181345v -3.80084h 0.181345v 0.864454h 0.181345v 5.26773h 0.181345v -5.26773h 0.181345v 5.26773h 0.36269v -3.37479h 0.181345v -0.97607h
 0.181345v -1.78133h 0.181345v 6.13219h 0.181345v -4.35085h 0.181345v 10.483h 0.181345v -16.6152h 0.181345v 5.21531h 0.181345v 0.916876h 0.181345v -4.81624h 0.181345v 10.483h 0.181345v -6.58368h 0.181345v 5.26773h 0.181345v 1.31595h 0.181345v
 -7.44813h 0.181345v 4.92163h 0.181345v -1.1208h 0.181345v -3.80084h 0.181345v -1.59345h 0.181345v 12.0765h 0.181345v -5.56141h 0.181345v -9.88987h 0.181345v 2.63689h 0.36269v 4.11268h 0.181345v -2.59903h 0.181345v -2.88949h 0.181345v 4.57164h
 0.181345v -3.1958h 0.181345v -1.37584h 0.181345v 2.88949h 0.181345v -2.21721h 0.181345v 6.83575h 0.181345v -6.13219h 0.36269v -3.23006h 0.181345v 7.34274h 0.181345v 0.97607h 0.181345v -4.35085h 0.181345v -0.737894h 0.181345v 9.77948h 0.181345v
 -9.04158h 0.181345v -5.08875h 0.181345v 6.6822h 0.181345v 7.44813h 0.181345v -5.6668h 0.181345v -0.916876h 0.181345v -3.1958h 0.181345v 7.25298h 0.181345v -7.95654h 0.181345v -2.5265h 0.181345v 8.31881h 0.36269v -3.5751h 0.181345v -0.775751h
 0.181345v 7.72564h 0.181345v -8.46353h 0.181345v 2.33135h 0.181345v 3.80084h 0.181345v -2.01951h 0.181345v -0.916876h 0.181345v 4.05718h 0.181345v -11.6038h 0.181345v 5.08875h 0.181345v 5.39429h 0.181345v -2.93638h 0.181345v 6.58368h 0.181345v
 -7.44813h 0.181345v -2.33135h 0.181345v -6.37036h 0.181345v 12.5025h 0.181345v -6.83575h 0.181345v 0.703561h 0.181345v 5.08875h 0.181345v -5.79231h 0.181345v 2.21721h 0.181345v -0.775751h 0.181345v 3.37479h 0.181345v -0.916876h 0.181345v -0.864454h
 0.36269v -5.56141h 0.181345v 3.96795h 0.181345v -0.737894h 0.181345v 3.1958h 0.181345v 1.89295h 0.181345v -2.7574h 0.181345v -0.817703h 0.181345v 3.5751h 0.181345v -4.35085h 0.181345v 3.37479h 0.181345v -8.99425h 0.181345v 4.88157h 0.181345v
 2.33135h 0.181345v -6.6822h 0.181345v 5.8645h 0.181345v -0.775751h 0.181345v -1.44145h 0.181345v 1.44145h 0.181345v -5.08875h 0.181345v 12.8144h 0.181345v -11.1004h 0.181345v -2.24468h 0.181345v 8.99425h 0.181345v -3.37479h 0.181345v -2.7574h
 0.181345v -1.21055h 0.181345v 5.56141h 0.181345v -5.56141h 0.181345v 3.23006h 0.181345v -6.37036h 0.181345v 4.35085h 0.181345v -0.617385h 0.181345v -3.25331h 0.36269v -0.945547h 0.181345v 6.13219h 0.181345v 1.44145h 0.181345v 0.775751h 0.181345v
 -4.15054h 0.181345v 1.93333h 0.181345v -2.5265h 0.36269v -2.66014h 0.181345v 5.18664h 0.181345v 2.21721h 0.181345v -3.53315h 0.181345v -1.21055h 0.181345v 3.96795h 0.181345v -0.737894h 0.181345v -4.35085h 0.181345v 11.6038h 0.181345v 1.21055h
 0.181345v -11.6936h 0.181345v 3.96795h 0.181345v -2.11374h 0.181345v 0.672281h 0.181345v 3.89936h 0.181345v 2.93638h 0.181345v -5.39429h 0.181345v 7.72564h 0.181345v -7.72564h 0.181345v 6.51509h 0.181345v -1.1208h 0.181345v -4.61854h 0.181345v
 3.5751h 0.181345v -3.5751h 0.181345v 6.94989h 0.181345v -7.72564h 0.181345v 1.59345h 0.181345v -0.817703h 0.181345v 11.3007h 0.181345v -4.35085h 0.181345v -4.35085h 0.181345v -4.11268h 0.181345v 3.1958h 0.181345v -1.68216h 0.181345v 1.68216h
 0.36269v -2.45791h 0.181345v 1.59345h 0.181345v -5.56141h 0.181345v 6.42586h 0.181345v 6.58368h 0.181345v -4.69073h 0.36269v 9.50697h 0.181345v -14.5957h 0.181345v 3.1958h 0.181345v 8.02513h 0.181345v -6.13219h 0.181345v 6.13219h 0.181345v -10.483h
 0.181345v -3.37479h 0.181345v 13.8578h 0.181345v -12.5968h 0.36269v 2.88949h 0.181345v -1.51365h 0.36269v -0.703561h 0.181345v 9.1671h 0.181345v -6.94989h 0.181345v -1.51365h 0.181345v 8.46353h 0.181345v -3.37479h 0.181345v -6.46459h 0.181345v
 8.62882h 0.181345v -3.1403h 0.36269v -2.59903h 0.181345v 2.59903h 0.181345v -1.78133h 0.181345v -0.817703h 0.181345v 0.817703h 0.181345v 1.78133h 0.181345v -3.37479h 0.181345v -0.737894h 0.181345v 1.51365h 0.181345v 4.61854h 0.36269v 2.33135h
 0.181345v 2.7574h 0.181345v -5.08875h 0.181345v 1.1208h 0.181345v -7.95654h 0.181345v 10.483h 0.181345v 1.44145h 0.181345v -6.13219h 0.181345v 11.5265h 0.181345v -9.36224h 0.181345v 2.5265h 0.36269v -1.31595h 0.181345v 4.35085h 0.181345v 12.2644h
 0.181345v -3.37479h 0.181345v -7.10825h 0.181345v -8.46353h 0.181345v 12.8144h 0.181345v -2.33135h 0.181345v -2.01951h 0.181345v -3.37479h 0.181345v -5.08875h 0.181345v 8.46353h 0.181345v -1.78133h 0.181345v -4.35085h 0.181345v 16.6152h 0.181345v
 -12.2644h 0.36269v 6.13219h 0.181345v -4.35085h 0.181345v -1.78133h 0.181345v 1.78133h 0.181345v 10.483h 0.181345v -10.483h 0.181345v 2.01951h 0.181345v -2.01951h 0.181345v 2.01951h 0.181345v 5.08875h 0.181345v -10.483h 0.181345v 10.483h 0.36269v
 -2.7574h 0.36269v -6.13219h 0.181345v 6.13219h 0.181345v 6.13219h 0.181345v -10.483h 0.181345v -1.78133h 0.181345v -5.56141h 0.181345v 3.96795h 0.181345v 5.39429h 0.181345v -5.39429h 0.181345v 3.37479h 0.181345v 2.01951h 0.181345v -2.01951h
 0.181345v 2.01951h 0.181345v -8.15169h 0.181345v 16.6152h 0.181345v -15.2993h 0.181345v 9.1671h 0.181345v -6.13219h 0.181345v -3.03491h 0.181345v -1.31595h 0.181345v 4.35085h 0.181345v -1.59345h 0.181345v -5.08875h 0.181345v 8.46353h 0.181345v
 -6.13219h 0.181345v 4.35085h 0.36269v -7.72564h 0.181345v 13.8578h 0.181345v -9.1671h 0.181345v 9.1671h 0.181345v -6.13219h 0.181345v 3.80084h 0.181345v 2.33135h 0.181345v -6.13219h 0.181345v 22.7474h 0.181345v -30.4731h 0.181345v 9.50697h 0.181345v
 -1.78133h 0.181345v -5.56141h 0.181345v 1.21055h 0.36269v 6.13219h 0.181345v 2.01951h 0.181345v -6.83575h 0.181345v -3.64729h 0.181345v 8.46353h 0.181345v 10.483h 0.181345v -10.483h 0.181345v -4.81624h 0.181345v -1.31595h 0.36269v 4.35085h 0.181345v
 6.13219h 0.181345v -9.1671h 0.181345v -3.64729h 0.181345v 3.64729h 0.181345v 9.1671h 0.181345v -11.6936h 0.181345v -1.1208h 0.36269v 5.08875h 0.181345v 5.39429h 0.36269v -2.01951h 0.181345v 10.483h 0.181345v -16.6152h 0.181345v 2.7574h 0.181345v
 3.37479h 0.181345v -9.50697h 0.181345v 9.50697h 0.181345v -1.78133h 0.181345v -5.56141h 0.36269v 9.36224h 0.181345v -11.5265h 0.181345v 11.5265h 0.181345v -3.80084h 0.181345v 3.80084h 0.181345v -9.36224h 0.181345v 28.3088h 0.181345v -20.9661h
 0.181345v -3.37479h 0.181345v -2.7574h 0.181345v 6.13219h 0.181345v -4.81624h 0.181345v 3.03491h 0.181345v 3.80084h 0.181345v 5.08875h 0.181345v -8.88959h 0.181345v 8.88959h 0.181345v -13.2404h 0.181345v 6.13219h 0.181345v -6.13219h 0.181345v
 1.31595h 0.181345v 15.2993h 0.181345v -6.13219h 0.181345v -9.1671h 0.181345v 11.9245h 0.181345v -16.6152h 0.181345v 13.8578h 0.181345v 2.7574h 0.181345v -5.08875h 0.181345v 5.08875h 0.181345v -11.9245h 0.181345v -2.5265h 0.181345v -2.16423h
 0.181345v 2.16423h 0.181345v 5.56141h 0.181345v -6.6822h 0.181345v 5.08875h 0.181345v -8.88959h 0.181345v 7.44813h 0.181345v -2.5265h 0.181345v 5.56141h 0.36269v -10.483h 0.181345v 1.78133h 0.181345v 2.01951h 0.181345v -1.04344h 0.181345v 2.16423h
 0.181345v 1.21055h 0.181345v 6.13219h 0.181345v -8.46353h 0.181345v 2.33135h 0.181345v -5.26773h 0.181345v 4.05718h 0.181345v 1.21055h 0.181345v -3.37479h 0.181345v -1.89295h 0.181345v -1.68216h 0.181345v 3.5751h 0.181345v 3.37479h 0.181345v
 -7.72564h 0.181345v -1.44145h 0.181345v 3.89936h 0.36269v -1.68216h 0.181345v -4.15054h 0.181345v 8.76908h 0.181345v -6.13219h 0.181345v -2.63689h 0.181345v 2.63689h 0.181345v 1.51365h 0.181345v 0.817703h 0.181345v 1.78133h 0.181345v -8.99425h
 0.36269v 2.86206h 0.181345v 3.53315h 0.181345v -7.40384h 0.181345v 4.51436h 0.181345v 9.83938h 0.181345v -11.1004h 0.181345v -0.593167h 0.181345v 6.42586h 0.181345v -4.57164h 0.181345v 3.70719h 0.181345v -0.817703h 0.181345v -2.88949h 0.181345v
 6.46459h 0.181345v -3.5751h 0.181345v -1.51365h 0.181345v 1.51365h 0.181345v 1.68216h 0.181345v -0.864454h 0.181345v 6.13219h 0.181345v -4.35085h 0.181345v 2.01951h 0.181345v 1.1208h 0.181345v 2.5265h 0.181345v -8.26583h 0.181345v 3.5751h 0.181345v
 1.04344h 0.181345v -4.61854h 0.181345v -2.88949h 0.181345v 14.1902h 0.181345v 6.13219h 0.181345v -12.8144h 0.181345v 6.6822h 0.36269v -4.35085h 0.181345v 8.15169h 0.181345v 2.33135h 0.181345v -2.33135h 0.181345v -5.39429h 0.181345v 1.59345h
 0.181345v 8.88959h 0.181345v 3.37479h 0.181345v -13.8578h 0.181345v 10.483h 0.181345v -13.2404h 0.181345v 10.483h 0.181345v -2.33135h 0.181345v -6.83575h 0.181345v 25.7823h 0.181345v -10.483h 0.36269v -8.46353h 0.181345v 29.4296h 0.181345v -20.9661h
 0.181345v 4.35085h 0.181345v -10.483h 0.36269v 16.6152h 0.181345v 10.483h 0.181345v -10.483h 0.181345v -13.8578h 0.181345v 13.8578h 0.181345v -10.483h 0.36269v 31.4491h 0.181345v -20.9661h 0.181345v 20.9661h 0.36269v -10.483h 0.181345v -16.6152h
 0.181345v 16.6152h 0.36269v -20.9661h 0.181345v 10.483h 0.181345v 10.483h 0.181345v -10.483h 0.36269v 20.9661h 0.181345v -20.9661h 0.36269v 10.483h 0.181345v -10.483h 0.181345v 10.483h 0.544034v 10.483h 0.36269v -20.9661h 0.36269v 20.9661h 0.181345v
 -20.9661h 0.181345v 10.483h 0.181345v 10.483h 0.181345v -10.483h 0.181345v -16.6152h 0.181345v 6.13219h 0.181345v 20.9661h 0.181345v -10.483h 0.181345v 10.483h 0.181345v -10.483h 0.36269v -10.483h 0.181345v 10.483h 0.36269v -10.483h 0.181345v
 20.9661h 0.181345v -10.483h 0.181345v -16.6152h 0.181345v 27.0983h 0.36269v -10.483h 0.181345v -10.483h 0.181345v 10.483h 0.181345v -10.483h 0.36269v -6.13219h 0.181345v 6.13219h 0.181345v 20.9661h 0.181345v -10.483h 0.36269v 10.483h 0.181345v
 -10.483h 0.36269v 10.483h 0.181345v -10.483h 0.181345v -16.6152h 0.181345v 27.0983h 0.181345v -27.0983h 0.181345v 27.0983h 0.181345v -10.483h 0.36269v 10.483h 0.181345v -20.9661h 0.181345v 20.9661h 0.36269v -20.9661h 0.181345v 20.9661h 0.544034v
 -20.9661h 0.181345v 20.9661h 0.181345v -10.483h 0.36269v 10.483h 0.544034v -10.483h 0.181345v 10.483h 0.36269v -20.9661h 0.181345v 20.9661h 0.725379v -10.483h 0.181345v -10.483h 0.181345v 20.9661h 0.36269v -10.483h 0.181345v -10.483h 0.181345v
 20.9661h 0.181345v -10.483h 0.36269v 10.483h 0.181345v -10.483h 0.181345v -10.483h 0.181345v 20.9661h 0.181345v -10.483h 0.181345v 10.483h 0.181345v -10.483h 0.181345v 10.483h 0.36269v -10.483h 0.181345v 10.483h 0.181345v -10.483h 0.544034v 10.483h
 0.181345v -20.9661h 0.725379v 20.9661h 0.36269v -31.4491h 0.181345v 20.9661h 0.36269v -10.483h 0.181345v 10.483h 0.181345v -10.483h 0.181345v 20.9661h 0.181345v -10.483h 0.181345v 10.483h 0.181345v -10.483h 0.181345v -16.6152h 0.181345v 16.6152h
 0.181345v 10.483h 0.181345v -31.4491h 0.181345v 20.9661h 0.544034v -10.483h 0.181345v -10.483h 0.181345v 31.4491h 0.181345v -10.483h 0.36269v 10.483h 0.181345v -27.0983h 0.181345v 27.0983h 0.181345v -10.483h 0.181345v 10.483h 0.181345v -10.483h
 0.181345v 10.483h 0.181345v -20.9661h 0.181345v 10.483h 0.36269v 10.483h 0.544034v -20.9661h 0.181345v 10.483h 0.181345v 10.483h 0.36269v -20.9661h 0.181345v 20.9661h 0.544034v -20.9661h 0.181345v 20.9661h 0.36269v -10.483h 0.36269v 10.483h 0.36269v
 -10.483h 0.36269v 10.483h 0.181345v -27.0983h 0.181345v 27.0983h 0.36269v -20.9661h 0.181345v 20.9661h 0.36269v -10.483h 0.36269v 10.483h 0.36269v -10.483h 0.181345v 10.483h 0.181345v -10.483h 0.181345v 10.483h 0.36269v -10.483h 0.181345v -16.6152h
 0.36269v 27.0983h 0.36269v -27.0983h 0.181345v 27.0983h 0.181345v -10.483h 0.181345v -16.6152h 0.181345v 27.0983h 0.36269v -20.9661h 0.181345v 10.483h 0.181345v -10.483h 0.181345v 10.483h 0.181345v 10.483h 0.181345v -20.9661h 0.181345v 20.9661h
 0.725379v -20.9661h 0.36269v 20.9661h 0.544034v -27.0983h 0.181345v 16.6152h 0.181345v -16.6152h 0.181345v 27.0983h 0.181345v -10.483h 0.181345v -10.483h 0.181345v 20.9661h 0.906724v -27.0983h 0.181345v 6.13219h 0.181345v 10.483h 0.36269v 10.483h
 0.36269v -20.9661h 0.181345v 10.483h 0.181345v -16.6152h 0.181345v 27.0983h 0.181345v -10.483h 0.181345v 10.483h 0.544034v -10.483h 0.36269v -20.9661h 0.181345v 20.9661h 0.181345v 10.483h 0.181345v -20.9661h 0.181345v 20.9661h 0.36269v -20.9661h
 0.181345v 20.9661h 0.181345v -10.483h 0.181345v 10.483h 0.906724v -10.483h 0.181345v 10.483h 0.181345v -27.0983h 0.181345v 27.0983h 0.181345v -27.0983h 0.181345v 6.13219h 0.181345v 20.9661h 0.181345v -20.9661h 0.181345v 20.9661h 0.36269v -20.9661h
 0.181345v 20.9661h 0.181345v -20.9661h 0.181345v 20.9661h 0.36269v -10.483h 0.181345v -16.6152h 0.181345v 27.0983h 0.544034v -10.483h 0.181345v -10.483h 0.36269v 10.483h 0.544034v -10.483h 0.181345v 20.9661h 0.181345v -10.483h 0.181345v 10.483h
 0.181345v -10.483h 0.181345" fill="none" stroke="black"/>
<path d="M57.1929,280.151h 453.543" fill="none" stroke="black"/>
<path d="M57.1929,272.68v 7.47068" fill="none" stroke="black"/>
<path d="M75.3318,276.415v 3.73534" fill="none" stroke="black"/>
<path d="M93.4707,276.415v 3.73534" fill="none" stroke="black"/>
<path d="M111.61,276.415v 3.73534" fill="none" stroke="black"/>
<path d="M129.749,276.415v 3.73534" fill="none" stroke="black"/>
<path d="M147.887,272.68v 7.47068" fill="none" stroke="black"/>
<path d="M166.026,276.415v 3.73534" fill="none" stroke="black"/>
<path d="M184.165,276.415v 3.73534" fill="none" stroke="black"/>
<path d="M202.304,276.415v 3.73534" fill="none" stroke="black"/>
<path d="M220.443,276.415v 3.73534" fill="none" stroke="black"/>
<path d="M238.582,272.68v 7.47068" fill="none" stroke="black"/>
<path d="M256.721,276.415v 3.73534" fill="none" stroke="black"/>
<path d="M274.86,276.415v 3.73534" fill="none" stroke="black"/>
<path d="M292.999,276.415v 3.73534" fill="none" stroke="black"/>
<path d="M311.138,276.415v 3.73534" fill="none" stroke="black"/>
<path d="M329.277,272.68v 7.47068" fill="none" stroke="black"/>
<path d="M347.415,276.415v 3.73534" fill="none" stroke="black"/>
<path d="M365.554,276.415v 3.73534" fill="none" stroke="black"/>
<path d="M383.693,276.415v 3.73534" fill="none" stroke="black"/>
<path d="M401.832,276.415v 3.73534" fill="none" stroke="black"/>
<path d="M419.971,272.68v 7.47068" fill="none" stroke="black"/>
<path d="M438.11,276.415v 3.73534" fill="none" stroke="black"/>
<path d="M456.249,276.415v 3.73534" fill="none" stroke="black"/>
<path d="M474.388,276.415v 3.73534" fill="none" stroke="black"/>
<path d="M492.527,276.415v 3.73534" fill="none" stroke="black"/>
<path d="M510.666,272.68v 7.47068" fill="none" stroke="black"/>
<path d="M510.666,272.68v 7.47068" fill="none" stroke="black"/>
<text xml:space="preserve" x="54.3523" y="290.27" fill="black" font-size="10.4952" font-family="Helvetica">0</text>
<text xml:space="preserve" x="139.569" y="290.27" fill="black" font-size="10.4952" font-family="Helvetica">500</text>
<text xml:space="preserve" x="227.449" y="290.27" fill="black" font-size="10.4952" font-family="Helvetica">1000</text>
<text xml:space="preserve" x="318.288" y="290.27" fill="black" font-size="10.4952" font-family="Helvetica">1500</text>
<text xml:space="preserve" x="408.831" y="290.27" fill="black" font-size="10.4952" font-family="Helvetica">2000</text>
<text xml:space="preserve" x="499.67" y="290.27" fill="black" font-size="10.4952" font-family="Helvetica">2500</text>
<text xml:space="preserve" x="265.323" y="301.218" fill="black" font-size="10.4952" font-family="Helvetica">Channel</text>
<path d="M57.1929,280.151v -249.023" fill="none" stroke="black"/>
<path d="M63.9961,280.151h -6.80315" fill="none" stroke="black"/>
<path d="M63.9961,277.393h -6.80315" fill="none" stroke="black"/>
<path d="M63.9961,275.062h -6.80315" fill="none" stroke="black"/>
<path d="M63.9961,273.042h -6.80315" fill="none" stroke="black"/>
<path d="M63.9961,271.261h -6.80315" fill="none" stroke="black"/>
<path d="M70.7992,269.668h -13.6063" fill="none" stroke="black"/>
<text xml:space="preserve" x="49.0263" y="273.404" fill="black" font-size="10.4952" font-family="Helvetica">1</text>
<path d="M63.9961,259.184h -6.80315" fill="none" stroke="black"/>
<path d="M63.9961,253.052h -6.80315" fill="none" stroke="black"/>
<path d="M63.9961,248.701h -6.80315" fill="none" stroke="black"/>
<path d="M63.9961,245.327h -6.80315" fill="none" stroke="black"/>
<path d="M63.9961,242.569h -6.80315" fill="none" stroke="black"/>
<path d="M63.9961,240.238h -6.80315" fill="none" stroke="black"/>
<path d="M63.9961,238.218h -6.80315" fill="none" stroke="black"/>
<path d="M63.9961,236.437h -6.80315" fill="none" stroke="black"/>
<path d="M70.7992,234.844h -13.6063" fill="none" stroke="black"/>
<text xml:space="preserve" x="41.629" y="238.489" fill="black" font-size="10.4952" font-family="Helvetica">10</text>
<path d="M63.9961,224.361h -6.80315" fill="none" stroke="black"/>
<path d="M63.9961,218.228h -6.80315" fill="none" stroke="black"/>
<path d="M63.9961,213.878h -6.80315" fill="none" stroke="black"/>
<path d="M63.9961,210.503h -6.80315" fill="none" stroke="black"/>
<path d="M63.9961,207.745h -6.80315" fill="none" stroke="black"/>
<path d="M63.9961,205.414h -6.80315" fill="none" stroke="black"/>
<path d="M63.9961,203.394h -6.80315" fill="none" stroke="black"/>
<path d="M63.9961,201.613h -6.80315" fill="none" stroke="black"/>
<path d="M70.7992,200.02h -13.6063" fill="none" stroke="black"/>
<text xml:space="preserve" x="49.0263" y="200.023" fill="black" font-size="7.16345" font-family="Helvetica">2</text>
<text xml:space="preserve" x="38.0783" y="204.461" fill="black" font-size="10.4952" font-family="Helvetica">10</text>
<path d="M63.9961,189.537h -6.80315" fill="none" stroke="black"/>
<path d="M63.9961,183.404h -6.80315" fill="none" stroke="black"/>
<path d="M63.9961,179.054h -6.80315" fill="none" stroke="black"/>
<path d="M63.9961,175.679h -6.80315" fill="none" stroke="black"/>
<path d="M63.9961,172.921h -6.80315" fill="none" stroke="black"/>
<path d="M63.9961,170.59h -6.80315" fill="none" stroke="black"/>
<path d="M63.9961,168.571h -6.80315" fill="none" stroke="black"/>
<path d="M63.9961,166.789h -6.80315" fill="none" stroke="black"/>
<path d="M70.7992,165.196h -13.6063" fill="none" stroke="black"/>
<text xml:space="preserve" x="49.0263" y="165.108" fill="black" font-size="7.16345" font-family="Helvetica">3</text>
<text xml:space="preserve" x="38.0783" y="169.842" fill="black" font-size="10.4952" font-family="Helvetica">10</text>
<path d="M63.9961,154.713h -6.80315" fill="none" stroke="black"/>
<path d="M63.9961,148.581h -6.80315" fill="none" stroke="black"/>
<path d="M63.9961,144.23h -6.80315" fill="none" stroke="black"/>
<path d="M63.9961,140.855h -6.80315" fill="none" stroke="black"/>
<path d="M63.9961,138.098h -6.80315" fill="none" stroke="black"/>
<path d="M63.9961,135.766h -6.80315" fill="none" stroke="black"/>
<path d="M63.9961,133.747h -6.80315" fill="none" stroke="black"/>
<path d="M63.9961,131.965h -6.80315" fill="none" stroke="black"/>
<path d="M70.7992,130.372h -13.6063" fill="none" stroke="black"/>
<text xml:space="preserve" x="49.0263" y="130.488" fill="black" font-size="7.16345" font-family="Helvetica">4</text>
<text xml:space="preserve" x="38.0783" y="134.927" fill="black" font-size="10.4952" font-family="Helvetica">10</text>
<path d="M63.9961,119.889h -6.80315" fill="none" stroke="black"/>
<path d="M63.9961,113.757h -6.80315" fill="none" stroke="black"/>
<path d="M63.9961,109.406h -6.80315" fill="none" stroke="black"/>
<path d="M63.9961,106.031h -6.80315" fill="none" stroke="black"/>
<path d="M63.9961,103.274h -6.80315" fill="none" stroke="black"/>
<path d="M63.9961,100.942h -6.80315" fill="none" stroke="black"/>
<path d="M63.9961,98.9228h -6.80315" fill="none" stroke="black"/>
<path d="M63.9961,97.1414h -6.80315" fill="none" stroke="black"/>
<path d="M70.7992,95.548h -13.6063" fill="none" stroke="black"/>
<text xml:space="preserve" x="49.0263" y="95.2772" fill="black" font-size="7.16345" font-family="Helvetica">5</text>
<text xml:space="preserve" x="38.0783" y="100.012" fill="black" font-size="10.4952" font-family="Helvetica">10</text>
<path d="M63.9961,85.065h -6.80315" fill="none" stroke="black"/>
<path d="M63.9961,78.9328h -6.80315" fill="none" stroke="black"/>
<path d="M63.9961,74.5819h -6.80315" fill="none" stroke="black"/>
<path d="M63.9961,71.2071h -6.80315" fill="none" stroke="black"/>
<path d="M63.9961,68.4497h -6.80315" fill="none" stroke="black"/>
<path d="M63.9961,66.1184h -6.80315" fill="none" stroke="black"/>
<path d="M63.9961,64.0989h -6.80315" fill="none" stroke="black"/>
<path d="M63.9961,62.3176h -6.80315" fill="none" stroke="black"/>
<path d="M70.7992,60.7241h -13.6063" fill="none" stroke="black"/>
<text xml:space="preserve" x="49.0263" y="60.6579" fill="black" font-size="7.16345" font-family="Helvetica">6</text>
<text xml:space="preserve" x="38.0783" y="65.3921" fill="black" font-size="10.4952" font-family="Helvetica">10</text>
<path d="M63.9961,50.2411h -6.80315" fill="none" stroke="black"/>
<path d="M63.9961,44.1089h -6.80315" fill="none" stroke="black"/>
<path d="M63.9961,39.758h -6.80315" fill="none" stroke="black"/>
<path d="M63.9961,36.3832h -6.80315" fill="none" stroke="black"/>
<path d="M63.9961,33.6258h -6.80315" fill="none" stroke="black"/>
<path d="M63.9961,31.2945h -6.80315" fill="none" stroke="black"/>
<g transform="rotate(-90,26.5385,191.442)">
<text xml:space="preserve" x="26.5385" y="191.442" fill="black" font-size="10.4952" font-family="Helvetica">Counts/Channel</text>
</g>
<text xml:space="preserve" x="404.097" y="60.6579" fill="black" font-size="14.7788" font-family="Helvetica" font-weight="bold"> = 2.4879 MeV</text>
<text xml:space="preserve" x="398.179" y="63.9127" fill="black" font-size="10.0192" font-family="Helvetica" font-weight="bold">p</text>
<text xml:space="preserve" x="389.006" y="60.6579" fill="black" font-size="14.7788" font-family="Helvetica" font-weight="bold">E</text>
<path d="M262.163,163.754v 26.1647" fill="none" stroke="black"/>
<path d="M264.454,189.919l -2.29122, 3.9685l -2.29122, -3.9685z" fill="black"/>
<path d="M264.454,189.919l -2.29122, 3.9685l -2.29122, -3.9685h 4.58243z" fill="none" stroke="black"/>
<text xml:space="preserve" x="266.803" y="161.557" fill="black" font-size="10.4952" font-family="Helvetica" font-weight="bold">_1 	1.369 MeV</text>
<text xml:space="preserve" x="260.293" y="161.557" fill="black" font-size="10.4952" font-family="Times">&#0945;</text>
<path d="M184.528,130.372v 30.8554" fill="none" stroke="black"/>
<path d="M186.819,161.227l -2.29122, 3.9685l -2.29122, -3.9685z" fill="black"/>
<path d="M186.819,161.227l -2.29122, 3.9685l -2.29122, -3.9685h 4.58243z" fill="none" stroke="black"/>
<text xml:space="preserve" x="172.117" y="127.529" fill="black" font-size="10.4952" font-family="Helvetica" font-weight="bold"># p_1 	0.844 MeV</text>
<path d="M210.104,148.581v 12.6467" fill="none" stroke="black"/>
<path d="M212.395,161.227l -2.29122, 3.9685l -2.29122, -3.9685z" fill="black"/>
<path d="M212.395,161.227l -2.29122, 3.9685l -2.29122, -3.9685h 4.58243z" fill="none" stroke="black"/>
<text xml:space="preserve" x="197.564" y="144.099" fill="black" font-size="10.4952" font-family="Helvetica" font-weight="bold"># p_2 	1.015 MeV</text>
<path d="M497.607,269.668h 13.0591" fill="none" stroke="black"/>
<path d="M504.136,259.184h 6.52955" fill="none" stroke="black"/>
<path d="M504.136,253.052h 6.52955" fill="none" stroke="black"/>
<path d="M504.136,248.701h 6.52955" fill="none" stroke="black"/>
<path d="M504.136,245.327h 6.52955" fill="none" stroke="black"/>
<path d="M504.136,242.569h 6.52955" fill="none" stroke="black"/>
<path d="M504.136,240.238h 6.52955" fill="none" stroke="black"/>
<path d="M504.136,238.218h 6.52955" fill="none" stroke="black"/>
<path d="M504.136,236.437h 6.52955" fill="none" stroke="black"/>
<path d="M497.607,234.844h 13.0591" fill="none" stroke="black"/>
<path d="M504.136,224.361h 6.52955" fill="none" stroke="black"/>
<path d="M504.136,218.228h 6.52955" fill="none" stroke="black"/>
<path d="M504.136,213.878h 6.52955" fill="none" stroke="black"/>
<path d="M504.136,210.503h 6.52955" fill="none" stroke="black"/>
<path d="M504.136,207.745h 6.52955" fill="none" stroke="black"/>
<path d="M504.136,205.414h 6.52955" fill="none" stroke="black"/>
<path d="M504.136,203.394h 6.52955" fill="none" stroke="black"/>
<path d="M504.136,201.613h 6.52955" fill="none" stroke="black"/>
<path d="M497.607,200.02h 13.0591" fill="none" stroke="black"/>
<path d="M504.136,189.537h 6.52955" fill="none" stroke="black"/>
<path d="M504.136,183.404h 6.52955" fill="none" stroke="black"/>
<path d="M504.136,179.054h 6.52955" fill="none" stroke="black"/>
<path d="M504.136,175.679h 6.52955" fill="none" stroke="black"/>
<path d="M504.136,172.921h 6.52955" fill="none" stroke="black"/>
<path d="M504.136,170.59h 6.52955" fill="none" stroke="black"/>
<path d="M504.136,168.571h 6.52955" fill="none" stroke="black"/>
<path d="M504.136,166.789h 6.52955" fill="none" stroke="black"/>
<path d="M497.607,165.196h 13.0591" fill="none" stroke="black"/>
<path d="M504.136,154.713h 6.52955" fill="none" stroke="black"/>
<path d="M504.136,148.581h 6.52955" fill="none" stroke="black"/>
<path d="M504.136,144.23h 6.52955" fill="none" stroke="black"/>
<path d="M504.136,140.855h 6.52955" fill="none" stroke="black"/>
<path d="M504.136,138.098h 6.52955" fill="none" stroke="black"/>
<path d="M504.136,135.766h 6.52955" fill="none" stroke="black"/>
<path d="M504.136,133.747h 6.52955" fill="none" stroke="black"/>
<path d="M504.136,131.965h 6.52955" fill="none" stroke="black"/>
<path d="M497.607,130.372h 13.0591" fill="none" stroke="black"/>
<path d="M504.136,119.889h 6.52955" fill="none" stroke="black"/>
<path d="M504.136,113.757h 6.52955" fill="none" stroke="black"/>
<path d="M504.136,109.406h 6.52955" fill="none" stroke="black"/>
<path d="M504.136,106.031h 6.52955" fill="none" stroke="black"/>
<path d="M504.136,103.274h 6.52955" fill="none" stroke="black"/>
<path d="M504.136,100.942h 6.52955" fill="none" stroke="black"/>
<path d="M504.136,98.9228h 6.52955" fill="none" stroke="black"/>
<path d="M504.136,97.1414h 6.52955" fill="none" stroke="black"/>
<path d="M497.607,95.548h 13.0591" fill="none" stroke="black"/>
<path d="M504.136,85.065h 6.52955" fill="none" stroke="black"/>
<path d="M504.136,78.9328h 6.52955" fill="none" stroke="black"/>
<path d="M504.136,74.5819h 6.52955" fill="none" stroke="black"/>
<path d="M504.136,71.2071h 6.52955" fill="none" stroke="black"/>
<path d="M504.136,68.4497h 6.52955" fill="none" stroke="black"/>
<path d="M504.136,66.1184h 6.52955" fill="none" stroke="black"/>
<path d="M504.136,64.0989h 6.52955" fill="none" stroke="black"/>
<path d="M504.136,62.3176h 6.52955" fill="none" stroke="black"/>
<path d="M497.607,60.7241h 13.0591" fill="none" stroke="black"/>
<path d="M504.136,50.2411h 6.52955" fill="none" stroke="black"/>
<path d="M504.136,44.1089h 6.52955" fill="none" stroke="black"/>
<path d="M504.136,39.758h 6.52955" fill="none" stroke="black"/>
<path d="M504.136,36.3832h 6.52955" fill="none" stroke="black"/>
<path d="M504.136,33.6258h 6.52955" fill="none" stroke="black"/>
<path d="M504.136,31.2945h 6.52955" fill="none" stroke="black"/>
<path d="M57.1929,38.1293v -7.46952" fill="none" stroke="black"/>
<path d="M75.3318,38.1293v -7.46952" fill="none" stroke="black"/>
<path d="M93.4707,38.1293v -7.46952" fill="none" stroke="black"/>
<path d="M111.61,38.1293v -7.46952" fill="none" stroke="black"/>
<path d="M129.749,38.1293v -7.46952" fill="none" stroke="black"/>
<path d="M147.887,38.1293v -7.46952" fill="none" stroke="black"/>
<path d="M166.026,38.1293v -7.46952" fill="none" stroke="black"/>
<path d="M184.165,38.1293v -7.46952" fill="none" stroke="black"/>
<path d="M202.304,38.1293v -7.46952" fill="none" stroke="black"/>
<path d="M220.443,38.1293v -7.46952" fill="none" stroke="black"/>
<path d="M238.582,38.1293v -7.46952" fill="none" stroke="black"/>
<path d="M256.721,38.1293v -7.46952" fill="none" stroke="black"/>
<path d="M274.86,38.1293v -7.46952" fill="none" stroke="black"/>
<path d="M292.999,38.1293v -7.46952" fill="none" stroke="black"/>
<path d="M311.138,38.1293v -7.46952" fill="none" stroke="black"/>
<path d="M329.277,38.1293v -7.46952" fill="none" stroke="black"/>
<path d="M347.415,38.1293v -7.46952" fill="none" stroke="black"/>
<path d="M365.554,38.1293v -7.46952" fill="none" stroke="black"/>
<path d="M383.693,38.1293v -7.46952" fill="none" stroke="black"/>
<path d="M401.832,38.1293v -7.46952" fill="none" stroke="black"/>
<path d="M419.971,38.1293v -7.46952" fill="none" stroke="black"/>
<path d="M438.11,38.1293v -7.46952" fill="none" stroke="black"/>
<path d="M456.249,38.1293v -7.46952" fill="none" stroke="black"/>
<path d="M474.388,38.1293v -7.46952" fill="none" stroke="black"/>
<path d="M492.527,38.1293v -7.46952" fill="none" stroke="black"/>
<path d="M510.666,38.1293v -7.46952" fill="none" stroke="black"/></svg>
