<?xml version="1.0" standalone="no"?>
<svg width="567.429" height="311.778" viewBox="0 0 567.429 311.778" xmlns="http://www.w3.org/2000/svg" shape-rendering="crispEdges">
<title>
Yields/P1/run_0104/det3_Fit.svg
</title>
<desc>
Creator: ROOT Version 6.12/06
CreationDate: Mon Apr 15 10:29:02 2019</desc>
<defs>
</defs>
<rect x="0.5" y="0" width="566.929" height="311.278" fill="white"/>
<rect x="57.1929" y="31.1278" width="453.543" height="249.023" fill="white"/>
<rect x="57.1929" y="31.1278" width="453.543" height="249.023" fill="none" stroke="black"/>
<path d="M57.1929,40.7894h 0.181345v 239.361h 4.89631v -10.4789h 0.181345v 10.4789h 5.98438v -10.4789h 0.181345v 10.4789h 9.24858v -10.4789h 0.181345v 10.4789h 0.181345v -10.4789h 0.181345v 10.4789h 0.544034v -10.4789h 0.181345v 10.4789h 1.81345v
 -10.4789h 0.181345v 10.4789h 1.26941v -10.4789h 0.181345v 10.4789h 0.544034v -10.4789h 0.36269v 10.4789h 1.99479v -10.4789h 0.181345v 10.4789h 0.181345v -10.4789h 0.36269v 10.4789h 0.906724v -10.4789h 0.181345v 10.4789h 1.45076v -10.4789h 0.181345v
 -16.6087h 0.181345v -23.2883h 0.181345v -16.2444h 0.181345v -11.8863h 0.181345v -9.70347h 0.181345v -6.21793h 0.181345v -6.28523h 0.181345v -2.58783h 0.181345v -3.37346h 0.181345v -0.284034h 0.181345v -1.20417h 0.181345v -1.80161h 0.181345v
 -0.228906h 0.181345v -0.347084h 0.181345v -2.00104h 0.181345v 0.558318h 0.181345v -0.734109h 0.181345v 0.140469h 0.181345v -1.0724h 0.181345v 0.215146h 0.181345v -0.182245h 0.181345v -1.26319h 0.181345v 0.275156h 0.181345v -0.290297h 0.181345v
 0.0910719h 0.181345v -0.0607755h 0.181345v 0.152399h 0.181345v -0.644688h 0.181345v 0.0588245h 0.181345v 0.014742h 0.181345v -0.705966h 0.181345v 0.0988562h 0.181345v 0.666222h 0.181345v -0.835296h 0.181345v -0.167204h 0.181345v 1.13635h 0.181345v
 -0.729065h 0.181345v -0.80389h 0.181345v 0.507866h 0.181345v -0.317701h 0.181345v 0.799926h 0.181345v -0.758864h 0.181345v 1.13829h 0.181345v -1.12458h 0.181345v 0.346915h 0.181345v 0.0140436h 0.181345v -0.360958h 0.181345v 0.0412119h 0.181345v
 0.207762h 0.181345v 0.979406h 0.181345v -0.323862h 0.181345v 1.00873h 0.181345v -1.08138h 0.181345v 0.972787h 0.181345v -0.0617058h 0.181345v -0.274601h 0.181345v 0.460479h 0.181345v 0.251447h 0.181345v 0.2557h 0.181345v 0.227341h 0.181345v
 -0.734487h 0.181345v -0.247333h 0.181345v -0.0459278h 0.181345v -0.136952h 0.181345v -2.05087h 0.181345v -1.43728h 0.181345v -2.08621h 0.181345v -2.66349h 0.181345v -3.01614h 0.181345v -3.22741h 0.181345v -2.46188h 0.181345v -2.66467h 0.181345v
 -3.16415h 0.181345v -2.0598h 0.181345v -1.37199h 0.181345v -0.792567h 0.181345v -0.835018h 0.181345v 0.215437h 0.181345v 0.465431h 0.181345v 1.66479h 0.181345v 1.9507h 0.181345v 2.36293h 0.181345v 3.18423h 0.181345v 3.39652h 0.181345v 3.70157h
 0.181345v 3.51974h 0.181345v 4.96629h 0.181345v 2.86525h 0.181345v 3.43998h 0.181345v 3.1738h 0.181345v 1.33964h 0.181345v 1.41184h 0.181345v 0.71296h 0.181345v 0.973658h 0.181345v 0.731117h 0.181345v -0.303379h 0.181345v 2.03302h 0.181345v
 -0.781172h 0.181345v 0.516271h 0.181345v -1.46474h 0.181345v -0.169295h 0.181345v 1.3737h 0.181345v 0.222872h 0.181345v 0.76757h 0.181345v -0.156663h 0.181345v -0.980556h 0.181345v -0.325128h 0.181345v 0.582931h 0.181345v -0.0741074h 0.181345v
 -1.10451h 0.181345v 0.994022h 0.181345v 0.637031h 0.181345v -0.963721h 0.181345v -0.0358669h 0.181345v -0.562591h 0.181345v 0.491111h 0.181345v -0.662713h 0.181345v 2.31906h 0.181345v -0.661635h 0.181345v 0.230226h 0.181345v -1.15346h 0.181345v
 2.06998h 0.181345v 0.672017h 0.181345v -2.15766h 0.181345v 2.68203h 0.181345v -1.80038h 0.181345v 0.686377h 0.181345v 1.114h 0.181345v -0.989575h 0.181345v 0.5946h 0.181345v 0.439504h 0.181345v 0.134382h 0.181345v 0.690435h 0.181345v -0.869347h
 0.181345v 0.543216h 0.181345v 0.468083h 0.181345v 1.28952h 0.181345v -2.30082h 0.181345v 0.728714h 0.181345v -1.16694h 0.181345v 1.54491h 0.181345v -0.655367h 0.181345v -1.14651h 0.181345v 2.5874h 0.181345v -0.0503092h 0.181345v -1.66298h 0.181345v
 2.5952h 0.181345v -1.42631h 0.181345v 1.21413h 0.181345v -1.55063h 0.181345v 1.44564h 0.181345v 0.478286h 0.181345v -0.26758h 0.181345v -0.0529524h 0.181345v -0.157753h 0.181345v -0.0522207h 0.181345v 0.913258h 0.181345v -1.52623h 0.181345v
 0.717594h 0.181345v -0.516019h 0.181345v -0.596836h 0.181345v 3.0717h 0.181345v 0.119984h 0.181345v -1.15903h 0.181345v 1.5248h 0.181345v -1.69124h 0.181345v 0.278422h 0.181345v -0.767014h 0.181345v 1.05066h 0.181345v -0.781172h 0.181345v -0.428905h
 0.181345v 2.46316h 0.181345v -1.64872h 0.181345v 1.21938h 0.181345v -0.823746h 0.181345v 0.945176h 0.181345v -1.116h 0.181345v -0.446317h 0.181345v -0.698286h 0.181345v 2.4446h 0.36269v -0.485757h 0.181345v -0.927058h 0.181345v 0.341019h 0.181345v
 -2.0904h 0.181345v -0.0997884h 0.181345v -1.05628h 0.181345v 0.471h 0.181345v 0.338655h 0.181345v -2.76447h 0.181345v -0.947645h 0.181345v 0.270314h 0.181345v -0.231993h 0.181345v 0.193079h 0.181345v -1.15917h 0.181345v -0.285252h 0.181345v
 0.575989h 0.181345v 0.829618h 0.181345v 1.67922h 0.181345v -0.300223h 0.181345v 0.56239h 0.181345v 0.447307h 0.181345v 1.229h 0.181345v 1.5001h 0.181345v 0.385541h 0.181345v -1.63739h 0.181345v 2.73631h 0.181345v 1.5795h 0.181345v -1.27653h
 0.181345v 0.688719h 0.181345v -1.1706h 0.181345v 1.2348h 0.181345v -0.935425h 0.181345v 0.999894h 0.181345v -0.0644687h 0.181345v -1.35291h 0.181345v 0.722905h 0.181345v 0.759217h 0.181345v 0.59553h 0.181345v -0.201128h 0.181345v 1.03352h 0.181345v
 -0.764746h 0.181345v 1.27235h 0.181345v -0.146777h 0.181345v -1.3276h 0.181345v 0.0670417h 0.181345v 0.899728h 0.181345v -0.764746h 0.181345v -1.36056h 0.181345v -0.184742h 0.181345v 1.21008h 0.181345v 0.20024h 0.181345v -1.4714h 0.181345v
 -0.121429h 0.181345v 0.42934h 0.181345v 1.36642h 0.181345v -0.135587h 0.181345v -0.660275h 0.181345v 0.459147h 0.181345v -0.587811h 0.181345v 0.721598h 0.181345v -0.20024h 0.181345v -1.86878h 0.181345v 2.13636h 0.181345v -1.35475h 0.36269v
 -0.305422h 0.181345v 0.87123h 0.181345v -0.810638h 0.181345v 0.493689h 0.181345v -3.46103h 0.181345v 2.19796h 0.181345v -2.19796h 0.181345v 1.13956h 0.181345v 1.00081h 0.181345v -1.16136h 0.181345v 1.16136h 0.181345v -1.2145h 0.181345v 1.44619h
 0.181345v -0.0582578h 0.181345v 2.80291h 0.181345v -1.21008h 0.181345v 0.195072h 0.181345v -1.43494h 0.181345v 1.5664h 0.181345v -1.6258h 0.181345v 2.43952h 0.181345v -0.479973h 0.181345v 1.94178h 0.181345v -2.07616h 0.181345v -0.133198h 0.181345v
 0.47142h 0.181345v 1.58523h 0.181345v -0.885202h 0.181345v 1.98804h 0.181345v -2.3421h 0.181345v 0.354065h 0.181345v 1.42657h 0.181345v -0.388656h 0.181345v -1.73794h 0.181345v 0.068562h 0.181345v 3.89783h 0.181345v -4.03465h 0.181345v 1.05763h
 0.181345v 0.902829h 0.181345v 0.714364h 0.181345v -2.19045h 0.181345v 1.16911h 0.181345v -0.449079h 0.181345v -2.25651h 0.181345v 1.46632h 0.181345v 0.498046h 0.181345v -0.21546h 0.181345v 1.73613h 0.181345v 0.737604h 0.181345v -3.4405h 0.181345v
 1.92345h 0.181345v -2.05665h 0.181345v -0.262926h 0.181345v 1.01048h 0.181345v -1.7108h 0.181345v 1.5721h 0.181345v 0.349158h 0.181345v 2.53193h 0.181345v -3.15472h 0.181345v 3.40739h 0.181345v -1.98683h 0.181345v 1.65086h 0.181345v -1.87265h
 0.181345v 1.06401h 0.181345v -2.86094h 0.181345v 1.65086h 0.181345v -2.28884h 0.181345v 3.57786h 0.181345v -3.26224h 0.181345v 0.453247h 0.181345v -0.26066h 0.181345v 1.42152h 0.181345v -0.0708099h 0.181345v 0.357414h 0.181345v -0.286604h 0.181345v
 -0.419968h 0.181345v 1.98916h 0.181345v -1.91997h 0.181345v -1.64129h 0.181345v 1.78063h 0.181345v -0.139336h 0.181345v 0.637382h 0.181345v -0.357414h 0.181345v -1.41518h 0.181345v 1.8451h 0.181345v -0.847954h 0.181345v -1.18892h 0.181345v 0.256242h
 0.181345v 1.78063h 0.181345v -2.22624h 0.36269v 1.24147h 0.181345v -0.269969h 0.181345v 1.40081h 0.181345v -1.86195h 0.181345v 0.867932h 0.181345v -1.06134h 0.181345v 1.55018h 0.181345v 1.18053h 0.36269v -1.6005h 0.181345v 2.14746h 0.181345v
 -1.65635h 0.181345v 0.956682h 0.181345v -1.9902h 0.181345v 1.68933h 0.181345v 0.685563h 0.181345v -0.3847h 0.181345v 1.10283h 0.181345v -2.05952h 0.181345v 2.64265h 0.181345v -2.06112h 0.181345v 0.604796h 0.181345v -0.229643h 0.181345v -0.15118h
 0.181345v 1.33595h 0.181345v -0.244499h 0.181345v -0.633303h 0.181345v 0.552674h 0.181345v 0.997145h 0.181345v 0.975686h 0.181345v -1.56532h 0.181345v 0.675772h 0.181345v -2.82814h 0.181345v 1.50551h 0.181345v 0.564467h 0.181345v 1.10772h 0.181345v
 3.0239h 0.181345v -4.53695h 0.181345v -0.238082h 0.181345v 1.8398h 0.181345v 0.822324h 0.181345v -0.822324h 0.181345v -0.524372h 0.181345v 0.884339h 0.181345v 0.939301h 0.181345v -1.82364h 0.181345v 2.41657h 0.181345v 1.48126h 0.181345v -3.10429h
 0.181345v 1.62303h 0.181345v 0.202928h 0.181345v 0.205689h 0.181345v -2.03165h 0.181345v -1.38317h 0.181345v 1.47397h 0.181345v 1.94085h 0.181345v -1.7576h 0.181345v 2.39201h 0.181345v -4.29506h 0.181345v 3.55745h 0.181345v -0.898357h 0.181345v
 -0.570554h 0.181345v 0.963249h 0.181345v 0.20024h 0.181345v 1.3705h 0.181345v 0.44797h 0.181345v -0.883047h 0.181345v -0.526809h 0.181345v -0.307493h 0.181345v 1.49171h 0.181345v -0.332275h 0.181345v -1.26055h 0.181345v -1.34899h 0.181345v 2.50039h
 0.181345v 2.0966h 0.181345v -3.74371h 0.181345v 0.801135h 0.181345v -0.994957h 0.181345v 2.28236h 0.181345v 1.04303h 0.181345v -3.42138h 0.181345v -1.2835h 0.181345v 3.00445h 0.181345v 0.325128h 0.181345v -1.55993h 0.181345v 1.45077h 0.181345v
 -1.25185h 0.181345v 0.303379h 0.181345v 2.0772h 0.181345v -2.179h 0.181345v 1.83145h 0.181345v -0.114098h 0.181345v -0.775446h 0.181345v 2.45694h 0.181345v -0.251971h 0.181345v -0.370253h 0.181345v -2.9782h 0.181345v 2.26383h 0.181345v 2.11872h
 0.181345v -2.57687h 0.181345v 0.692543h 0.36269v -3.08731h 0.181345v 3.44585h 0.181345v -0.823746h 0.181345v 0.823746h 0.181345v -1.38581h 0.181345v 0.222326h 0.181345v -3.03372h 0.181345v 3.60427h 0.181345v 0.960189h 0.181345v -1.07604h 0.181345v
 -2.92844h 0.181345v 4.76688h 0.181345v -3.58056h 0.181345v 0.845977h 0.181345v -0.845977h 0.181345v 2.69474h 0.181345v -2.06473h 0.181345v -0.834302h 0.181345v 1.26938h 0.181345v 0.334727h 0.181345v -1.39981h 0.181345v 1.28741h 0.181345v 0.923517h
 0.181345v -2.51635h 0.181345v 2.39777h 0.181345v -0.692543h 0.181345v -2.10309h 0.181345v 1.22645h 0.181345v -0.211442h 0.181345v 0.864115h 0.181345v -0.43823h 0.181345v 2.71318h 0.181345v -1.82364h 0.181345v -1.93257h 0.181345v 2.87775h 0.181345v
 -3.75865h 0.181345v 2.36216h 0.181345v -1.48126h 0.181345v -1.16349h 0.181345v -0.459546h 0.181345v 2.34553h 0.181345v -0.417072h 0.181345v -0.604796h 0.181345v 1.55993h 0.181345v -4.67427h 0.36269v 1.88148h 0.36269v -3.48235h 0.181345v 0.893929h
 0.181345v 0.868629h 0.181345v -1.24754h 0.181345v -0.148946h 0.181345v -0.29356h 0.181345v -1.25474h 0.181345v 0.96677h 0.181345v -0.899728h 0.181345v 0.828585h 0.181345v -0.0708099h 0.181345v 0.947455h 0.181345v -0.590041h 0.181345v -2.46417h
 0.181345v 4.63869h 0.181345v 1.03706h 0.181345v -2.62154h 0.181345v 1.58447h 0.181345v -1.88237h 0.181345v 1.30873h 0.181345v 0.82632h 0.181345v -1.45632h 0.181345v 1.03752h 0.181345v -0.0823865h 0.181345v -2.14146h 0.181345v 1.89696h 0.181345v
 -0.555575h 0.181345v -1.7633h 0.181345v 0.855958h 0.181345v -2.55934h 0.181345v 0.313011h 0.181345v -3.02797h 0.181345v 1.01716h 0.181345v -1.47609h 0.181345v -0.542625h 0.181345v -2.5776h 0.181345v -1.58874h 0.181345v -2.1241h 0.181345v -0.316285h
 0.181345v -1.11588h 0.181345v -1.96045h 0.181345v -0.747329h 0.181345v -0.781521h 0.181345v -2.96642h 0.181345v -0.0945462h 0.181345v 1.11456h 0.181345v -1.48694h 0.181345v 0.2597h 0.181345v -0.093263h 0.181345v -0.457875h 0.181345v 0.0904724h
 0.181345v 0.858778h 0.181345v 1.03342h 0.181345v 0.0411932h 0.181345v 1.56307h 0.181345v 1.59029h 0.181345v 1.43835h 0.181345v 0.482678h 0.181345v 0.952623h 0.181345v 3.39652h 0.181345v 2.32402h 0.181345v 1.50833h 0.181345v 2.18246h 0.181345v
 0.347553h 0.181345v 2.06902h 0.181345v 2.31924h 0.181345v -0.538608h 0.181345v 2.54613h 0.181345v 0.270775h 0.181345v 1.13437h 0.181345v 0.197622h 0.181345v 2.71659h 0.181345v -2.00383h 0.36269v 1.65086h 0.181345v 1.21008h 0.181345v -1.44089h
 0.181345v 0.823746h 0.181345v 2.3506h 0.181345v -2.8268h 0.36269v 0.597623h 0.181345v 4.67781h 0.181345v -2.01871h 0.181345v -2.03687h 0.181345v -0.622223h 0.181345v 3.55745h 0.181345v -3.31163h 0.181345v -0.245825h 0.181345v 1.00823h 0.181345v
 -0.51252h 0.181345v 3.85343h 0.181345v -1.83472h 0.181345v -1.76462h 0.181345v 1.06134h 0.181345v -0.672017h 0.181345v 0.399615h 0.181345v 1.71329h 0.36269v -4.42455h 0.181345v 2.71126h 0.181345v -0.660275h 0.181345v 2.83404h 0.181345v -4.88503h
 0.181345v 3.12172h 0.181345v 0.855958h 0.181345v 0.752289h 0.181345v 0.31172h 0.181345v 0.158304h 0.181345v -0.623506h 0.181345v -1.45476h 0.181345v -1.07074h 0.181345v -0.256242h 0.181345v 2.78175h 0.181345v -0.889544h 0.181345v 0.587176h 0.181345v
 -0.730475h 0.181345v -0.559986h 0.181345v 2.05803h 0.181345v -1.06401h 0.181345v -1.26642h 0.181345v -1.16849h 0.181345v 4.14233h 0.181345v -0.643412h 0.181345v 1.1446h 0.181345v -4.39155h 0.181345v 2.33043h 0.181345v -0.864115h 0.181345v 0.716622h
 0.181345v 1.06401h 0.181345v 1.48821h 0.181345v -0.67957h 0.181345v -2.01871h 0.181345v 0.744874h 0.181345v 0.783486h 0.181345v 1.3447h 0.181345v -3.99341h 0.181345v 2.17377h 0.181345v -3.46668h 0.181345v 3.62335h 0.181345v -1.35475h 0.181345v
 1.51305h 0.181345v -1.65635h 0.181345v 2.30668h 0.181345v -0.165224h 0.181345v -1.10861h 0.181345v -0.15194h 0.181345v -1.98087h 0.181345v 2.59801h 0.181345v 0.643412h 0.181345v -2.70144h 0.181345v 3.89783h 0.181345v -2.15152h 0.181345v 2.51149h
 0.181345v -1.55636h 0.181345v -0.643412h 0.181345v 1.48821h 0.181345v 0.351595h 0.181345v -2.90381h 0.181345v 1.38229h 0.181345v -0.318283h 0.181345v 0.643412h 0.181345v -1.26055h 0.181345v 2.81691h 0.181345v -2.66497h 0.181345v -3.03372h 0.181345v
 2.5824h 0.181345v -2.07419h 0.181345v -1.93774h 0.36269v -0.225644h 0.181345v -1.18421h 0.181345v -4.37501h 0.181345v -0.306973h 0.181345v -0.449079h 0.181345v -2.12893h 0.181345v -1.97862h 0.181345v -2.24186h 0.181345v -1.86653h 0.181345v -1.15397h
 0.181345v -2.41522h 0.181345v 0.44619h 0.181345v -0.173174h 0.181345v -2.81932h 0.181345v -0.887911h 0.181345v -1.41392h 0.181345v -0.554184h 0.181345v 0.0949321h 0.181345v -1.66645h 0.181345v -0.503277h 0.181345v 0.567381h 0.181345v -0.587992h
 0.181345v 0.396489h 0.181345v -0.0422288h 0.36269v 0.890183h 0.181345v 0.969724h 0.181345v 2.17623h 0.181345v -0.245825h 0.181345v 1.24172h 0.181345v 1.09775h 0.181345v 2.06396h 0.181345v 1.44451h 0.181345v 1.82057h 0.181345v 2.38302h 0.181345v
 2.95782h 0.181345v -0.0639235h 0.181345v 2.04608h 0.181345v 2.71256h 0.181345v 3.52716h 0.181345v 0.562068h 0.181345v 1.95341h 0.181345v 1.50619h 0.181345v 2.33043h 0.181345v 3.16493h 0.181345v -1.94085h 0.181345v 6.49852h 0.181345v -4.34915h
 0.181345v 1.31543h 0.181345v 2.48392h 0.181345v 1.12036h 0.181345v 4.34915h 0.181345v -2.49566h 0.181345v -2.70144h 0.181345v 2.05803h 0.181345v 2.38302h 0.181345v -1.73961h 0.181345v -3.50435h 0.181345v -0.51252h 0.181345v 8.58672h 0.181345v
 -6.12978h 0.181345v 0.299374h 0.181345v 5.39217h 0.181345v -5.98511h 0.181345v 4.74184h 0.181345v -2.88835h 0.181345v -2.70144h 0.36269v 4.44105h 0.181345v -2.38302h 0.181345v -2.59801h 0.181345v 3.5737h 0.181345v 1.04303h 0.181345v -1.3753h
 0.181345v 0.332275h 0.181345v 0.687295h 0.181345v -4.26099h 0.181345v 2.9163h 0.181345v -2.09891h 0.181345v 1.46891h 0.181345v 1.28741h 0.181345v -0.657403h 0.181345v 2.43803h 0.181345v -2.75632h 0.181345v -2.05803h 0.181345v 1.74631h 0.181345v
 1.28741h 0.181345v -3.83663h 0.181345v 2.54922h 0.181345v -0.604796h 0.181345v -1.14151h 0.181345v 4.81435h 0.181345v -3.67283h 0.181345v -1.6815h 0.181345v 3.91344h 0.181345v 1.44089h 0.181345v -2.75632h 0.181345v -1.49805h 0.181345v -0.832388h
 0.181345v -0.530507h 0.181345v 1.36289h 0.181345v -1.62133h 0.544034v -0.254088h 0.181345v 1.31543h 0.181345v -1.81114h 0.181345v 1.27116h 0.181345v 0.26758h 0.181345v -1.53874h 0.181345v 2.95266h 0.181345v 1.2348h 0.181345v -4.66743h 0.181345v
 0.238082h 0.181345v 6.12978h 0.181345v -3.51676h 0.181345v -0.559986h 0.181345v 5.99296h 0.181345v -8.28408h 0.36269v 2.29111h 0.181345v 5.1971h 0.181345v -5.1971h 0.181345v -1.81114h 0.181345v 0.495713h 0.181345v 1.59283h 0.181345v -0.549802h
 0.181345v 2.01871h 0.181345v 0.31172h 0.181345v -2.33043h 0.181345v 4.34915h 0.181345v -2.93523h 0.181345v 4.44828h 0.181345v -3.21348h 0.181345v -1.81633h 0.181345v 3.16103h 0.181345v -2.87306h 0.181345v 1.52836h 0.181345v 0.325128h 0.36269v
 -1.26055h 0.181345v -0.592934h 0.181345v -0.570554h 0.181345v -0.549802h 0.181345v 0.832388h 0.181345v 2.81347h 0.181345v -0.672017h 0.181345v -0.643412h 0.181345v -1.21008h 0.181345v 0.898357h 0.181345v -0.604796h 0.36269v -0.581529h 0.36269v
 1.18633h 0.36269v 1.28741h 0.181345v -0.332275h 0.181345v -0.643412h 0.181345v -0.31172h 0.36269v 1.9747h 0.181345v 4.94677h 0.181345v -6.60975h 0.181345v 4.34915h 0.181345v -4.96629h 0.181345v 1.93257h 0.181345v -3.09606h 0.181345v 2.75632h
 0.181345v 1.04303h 0.181345v -1.04303h 0.181345v -0.332275h 0.181345v 2.49566h 0.181345v -1.47609h 0.181345v 1.86878h 0.181345v -2.55608h 0.181345v -1.59283h 0.181345v 3.00016h 0.36269v -3.29953h 0.181345v -1.94442h 0.181345v 3.83663h 0.181345v
 -2.47373h 0.181345v -1.36289h 0.181345v 3.50435h 0.181345v 6.46205h 0.181345v -5.79003h 0.181345v -1.62715h 0.181345v 3.84348h 0.36269v -0.775446h 0.181345v 0.775446h 0.36269v -2.55608h 0.36269v -0.332275h 0.181345v 5.96634h 0.181345v -0.945176h
 0.181345v -5.66457h 0.181345v 0.975686h 0.181345v -0.657403h 0.181345v 7.2997h 0.181345v -3.68305h 0.181345v -1.91622h 0.181345v 1.51305h 0.181345v -1.86878h 0.181345v 6.48551h 0.181345v 2.97384h 0.181345v -4.51258h 0.181345v -0.945176h 0.181345v
 -0.889544h 0.181345v 0.889544h 0.181345v -0.889544h 0.181345v -2.01871h 0.181345v 2.90826h 0.181345v 3.60427h 0.181345v -1.65086h 0.181345v -4.47891h 0.181345v 9.35857h 0.181345v -2.63585h 0.181345v -1.71329h 0.181345v -2.01871h 0.181345v 0.975686h
 0.181345v 1.59283h 0.181345v 1.16349h 0.181345v -1.16349h 0.181345v 1.78063h 0.181345v -3.86917h 0.181345v -2.2606h 0.181345v 4.34915h 0.181345v -1.59283h 0.181345v 6.90522h 0.181345v -1.51305h 0.544034v -5.88789h 0.181345v 3.25203h 0.181345v
 -1.71329h 0.181345v 7.54369h 0.181345v -2.45694h 0.181345v 0.775446h 0.181345v -0.775446h 0.181345v 2.45694h 0.181345v -5.21326h 0.181345v 0.643412h 0.181345v 2.11291h 0.181345v -3.37346h 0.181345v -1.71329h 0.181345v 2.33043h 0.181345v 1.31543h
 0.181345v -3.09606h 0.181345v 6.12978h 0.181345v 3.79934h 0.181345v -8.76563h 0.181345v 3.37346h 0.181345v 1.59283h 0.181345v 0.864115h 0.181345v -3.19455h 0.181345v 0.737604h 0.181345v 10.4789h 0.181345v -10.4789h 0.181345v 3.37346h 0.181345v
 -0.916516h 0.181345v -4.56985h 0.181345v 11.1509h 0.181345v 1.44089h 0.181345v -3.96639h 0.181345v 2.52551h 0.181345v 1.44089h 0.181345v -11.9198h 0.181345v 5.79003h 0.181345v 9.50324h 0.181345v -12.2596h 0.181345v -3.70573h 0.181345v 7.50508h
 0.181345v -2.01871h 0.181345v 2.01871h 0.181345v 5.08675h 0.181345v -1.44089h 0.181345v 9.16349h 0.181345v -10.4789h 0.181345v 6.12978h 0.181345v -9.50324h 0.181345v 4.68889h 0.181345v 11.9198h 0.181345v -16.6087h 0.181345v 1.04303h 0.181345v
 2.33043h 0.181345v -4.34915h 0.181345v 0.975686h 0.181345v -4.34915h 0.36269v 6.51253h 0.181345v -7.25013h 0.181345v 7.25013h 0.181345v -4.9197h 0.181345v -3.70573h 0.181345v 6.46205h 0.181345v -5.79003h 0.181345v 4.81435h 0.181345v -3.37346h
 0.181345v -2.11291h 0.181345v -4.99256h 0.181345v -1.78063h 0.181345v -0.817382h 0.181345v 1.24327h 0.181345v 0.43823h 0.181345v -1.6815h 0.181345v -1.51305h 0.181345v -4.34915h 0.181345v 6.26536h 0.181345v 1.27833h 0.181345v -1.27833h 0.181345v
 -0.795862h 0.181345v -6.76242h 0.181345v 7.97249h 0.181345v -5.84719h 0.181345v 2.47373h 0.181345v 0.687295h 0.181345v -1.3447h 0.181345v 2.82079h 0.181345v 6.12978h 0.181345v -4.05558h 0.181345v 1.39649h 0.181345v -2.2606h 0.181345v 2.75632h
 0.181345v 3.37346h 0.181345v -2.86094h 0.181345v 8.99072h 0.181345v -6.12978h 0.181345v 7.10546h 0.181345v -8.88609h 0.181345v 5.31239h 0.181345v 1.6815h 0.181345v -8.58672h 0.181345v 16.6087h 0.181345v -10.4789h 0.181345v 10.4789h 0.181345v
 -9.70347h 0.181345v 2.59801h 0.181345v -7.33985h 0.181345v 4.74184h 0.181345v -5.31239h 0.181345v 1.78063h 0.181345v 2.75632h 0.181345v -4.53695h 0.181345v -1.08031h 0.181345v -4.86167h 0.181345v -0.3733h 0.181345v 1.14875h 0.181345v 2.59801h
 0.181345v -3.74676h 0.181345v -2.06473h 0.181345v -0.935425h 0.181345v -0.299374h 0.181345v -2.95266h 0.181345v -0.479973h 0.181345v -0.465203h 0.181345v -6.58109h 0.181345v 2.5795h 0.181345v -2.5795h 0.36269v -3.66702h 0.181345v 0.960189h 0.181345v
 -4.00447h 0.181345v 3.04429h 0.181345v -2.16338h 0.36269v -2.15666h 0.181345v 1.18098h 0.181345v -0.465203h 0.181345v 1.04303h 0.181345v -1.04303h 0.181345v -1.06134h 0.181345v 0.610026h 0.181345v 1.99333h 0.181345v -5.68359h 0.181345v 0.281271h
 0.181345v -0.419968h 0.181345v 2.63257h 0.181345v -1.18477h 0.181345v -1.02782h 0.181345v 0.952046h 0.181345v 1.26055h 0.181345v -5.28498h 0.181345v 2.65241h 0.181345v -2.18178h 0.181345v -0.237148h 0.181345v -0.406263h 0.181345v 0.763395h 0.181345v
 0.427605h 0.181345v -0.784737h 0.181345v -2.33883h 0.181345v 3.75621h 0.181345v -0.508212h 0.181345v -0.731654h 0.181345v -1.84662h 0.181345v 1.32022h 0.181345v 1.25805h 0.181345v 0.900907h 0.181345v -0.648936h 0.181345v -1.04303h 0.181345v 1.04303h
 0.181345v 0.715388h 0.181345v 1.61504h 0.181345v 0.148946h 0.181345v 2.5187h 0.181345v 0.631884h 0.181345v -0.364304h 0.181345v 1.91622h 0.181345v -1.45945h 0.181345v 3.89238h 0.181345v -0.11951h 0.181345v 5.03921h 0.181345v -1.27384h 0.181345v
 3.79934h 0.181345v -3.64586h 0.181345v 8.46021h 0.181345v 0.272402h 0.181345v 1.14151h 0.181345v -1.41392h 0.181345v 3.64586h 0.181345v 12.6953h 0.181345v -2.21634h 0.181345v 0.703284h 0.181345v 5.08675h 0.181345v 4.68889h 0.181345v -1.31543h
 0.181345v 1.31543h 0.181345v 6.83306h 0.36269v -3.79934h 0.181345v -3.03372h 0.181345v 9.16349h 0.544034v 6.12978h 0.181345v -6.12978h 0.36269v 10.4789h 0.36269v -7.7226h 0.181345v -2.75632h 0.181345v 16.6087h 0.181345v -10.4789h 0.181345v -3.37346h
 0.725379v -5.08675h 0.36269v 2.33043h 0.544034v 2.75632h 0.181345v 7.7226h 0.181345v -4.34915h 0.181345v 10.4789h 0.181345v -18.9391h 0.36269v 18.9391h 0.181345v -6.12978h 0.181345v -10.4789h 0.181345v -2.33043h 0.36269v 8.46021h 0.181345v -8.46021h
 0.181345v 8.46021h 0.181345v 4.34915h 0.181345v -4.34915h 0.181345v -3.37346h 0.181345v 3.37346h 0.36269v 10.4789h 0.181345v 20.9578h 0.181345v -20.9578h 0.181345v -10.4789h 0.544034v 4.34915h 0.181345v -12.8094h 0.181345v 18.9391h 0.181345v
 -18.9391h 0.181345v 8.46021h 0.181345v -6.12978h 0.181345v 27.0876h 0.181345v -31.4368h 0.181345v 2.01871h 0.181345v 8.46021h 0.181345v 10.4789h 0.181345v -10.4789h 0.181345v 10.4789h 0.36269v -16.6087h 0.181345v 6.12978h 0.181345v 10.4789h
 0.181345v -16.6087h 0.181345v 6.12978h 0.181345v -8.46021h 0.181345v 2.33043h 0.181345v 10.4789h 0.181345v -16.6087h 0.181345v 12.2596h 0.181345v 4.34915h 0.181345v -4.34915h 0.181345v -10.4789h 0.181345v 2.01871h 0.181345v 5.08675h 0.181345v
 3.37346h 0.181345v -8.46021h 0.181345v -5.39217h 0.181345v 1.59283h 0.181345v -9.61481h 0.181345v 4.05558h 0.181345v 14.4453h 0.181345v -2.75632h 0.181345v -2.33043h 0.181345v -5.39217h 0.181345v 5.39217h 0.181345v -9.35857h 0.181345v 1.21008h
 0.181345v -6.12978h 0.181345v 4.9197h 0.181345v -11.5993h 0.181345v 6.67958h 0.36269v -0.817382h 0.181345v -2.21634h 0.181345v 4.81435h 0.181345v -4.11106h 0.181345v 0.737604h 0.181345v 0.775446h 0.181345v 3.5737h 0.181345v 3.37346h 0.181345v
 -7.7226h 0.181345v 4.34915h 0.544034v -0.975686h 0.181345v -0.916516h 0.544034v 2.93523h 0.181345v 6.67958h 0.181345v -1.59283h 0.181345v 3.37346h 0.181345v -3.37346h 0.181345v -5.08675h 0.36269v 5.08675h 0.36269v 13.8524h 0.181345v -12.2596h
 0.181345v 1.78063h 0.181345v 7.10546h 0.181345v -8.88609h 0.181345v 8.88609h 0.181345v -5.08675h 0.181345v 5.08675h 0.36269v -5.08675h 0.181345v 18.9391h 0.181345v -6.12978h 0.181345v 27.0876h 0.181345v -43.6963h 0.181345v 22.7385h 0.181345v
 -10.4789h 0.181345v 10.4789h 0.36269v -6.12978h 0.181345v -7.7226h 0.181345v 3.37346h 0.181345v 20.9578h 0.181345v -10.4789h 0.181345v -6.12978h 0.181345v -4.34915h 0.181345v 4.34915h 0.36269v -10.4789h 0.181345v 37.5665h 0.181345v -10.4789h
 0.181345v -27.0876h 0.181345v 16.6087h 0.181345v -16.6087h 0.181345v 16.6087h 0.181345v -13.8524h 0.181345v 34.8102h 0.181345v -31.4368h 0.181345v 31.4368h 0.181345v -20.9578h 0.181345v -10.4789h 0.181345v 10.4789h 0.181345v -13.8524h 0.181345v
 13.8524h 0.181345v -10.4789h 0.181345v -10.4789h 0.181345v 31.4368h 0.181345v -20.9578h 0.181345v 20.9578h 0.181345v -16.6087h 0.36269v -7.7226h 0.181345v 7.7226h 0.181345v -10.4789h 0.181345v -2.33043h 0.181345v 12.8094h 0.181345v -7.7226h
 0.181345v 3.37346h 0.181345v 4.34915h 0.181345v -10.4789h 0.181345v 10.4789h 0.181345v -4.34915h 0.181345v 4.34915h 0.36269v -4.34915h 0.181345v -3.37346h 0.181345v 7.7226h 0.36269v 6.12978h 0.181345v -13.8524h 0.181345v -8.88609h 0.181345v 16.6087h
 0.181345v -4.34915h 0.181345v -3.37346h 0.181345v 3.37346h 0.181345v -3.37346h 0.181345v 24.3313h 0.181345v -29.4181h 0.181345v 8.46021h 0.181345v -6.12978h 0.181345v -9.16349h 0.181345v -1.31543h 0.181345v 8.14849h 0.181345v -9.35857h 0.181345v
 9.35857h 0.181345v 8.46021h 0.181345v -8.46021h 0.181345v 5.08675h 0.36269v -2.75632h 0.181345v -9.16349h 0.36269v 1.44089h 0.181345v 3.37346h 0.181345v -1.78063h 0.181345v 12.2596h 0.181345v -8.46021h 0.181345v 5.08675h 0.181345v -7.10546h 0.36269v
 -4.81435h 0.181345v 9.16349h 0.36269v -6.12978h 0.181345v 16.6087h 0.181345v -4.34915h 0.181345v -6.12978h 0.181345v -4.34915h 0.181345v 4.34915h 0.181345v -2.33043h 0.36269v 2.33043h 0.181345v 2.75632h 0.181345v 13.8524h 0.181345v -18.9391h
 0.181345v 2.33043h 0.181345v -10.4789h 0.181345v 20.9578h 0.181345v -12.8094h 0.181345v 8.46021h 0.181345v -8.46021h 0.181345v 8.46021h 0.544034v 4.34915h 0.181345v -7.7226h 0.181345v -2.75632h 0.181345v 27.0876h 0.181345v -27.0876h 0.36269v
 -2.33043h 0.181345v 5.08675h 0.544034v 3.37346h 0.181345v -8.46021h 0.181345v 8.46021h 0.181345v -6.12978h 0.181345v -6.12978h 0.181345v 16.6087h 0.181345v -14.8281h 0.36269v 7.10546h 0.181345v -5.08675h 0.181345v 5.08675h 0.181345v -2.75632h
 0.181345v -2.33043h 0.181345v 2.33043h 0.181345v 6.12978h 0.181345v 10.4789h 0.181345v 10.4789h 0.181345v -33.2174h 0.181345v -3.03372h 0.181345v 15.2933h 0.181345v -6.12978h 0.181345v 10.4789h 0.181345v -4.34915h 0.181345v -10.4789h 0.181345v
 7.10546h 0.36269v -2.75632h 0.181345v -2.33043h 0.181345v 12.8094h 0.181345v -12.8094h 0.181345v 18.9391h 0.181345v -18.9391h 0.181345v 18.9391h 0.181345v -6.12978h 0.181345v -19.6424h 0.181345v 1.44089h 0.181345v 10.4789h 0.181345v -11.9198h
 0.181345v 3.03372h 0.181345v 12.2596h 0.181345v -8.46021h 0.181345v -9.35857h 0.181345v 5.55922h 0.181345v 1.78063h 0.181345v -9.50324h 0.181345v 4.68889h 0.181345v -4.68889h 0.181345v 16.6087h 0.181345v -5.08675h 0.36269v 12.8094h 0.181345v
 -20.9578h 0.181345v 4.34915h 0.181345v 8.88609h 0.181345v -8.88609h 0.181345v -4.34915h 0.181345v -3.37346h 0.181345v 6.12978h 0.181345v -2.75632h 0.181345v 8.14849h 0.181345v -10.4789h 0.181345v 6.67958h 0.181345v 1.78063h 0.181345v -1.78063h
 0.181345v 1.78063h 0.181345v 2.01871h 0.181345v -6.83306h 0.181345v 4.81435h 0.181345v -7.33985h 0.181345v 2.52551h 0.181345v 3.03372h 0.544034v -6.67958h 0.181345v -1.04303h 0.181345v 6.12978h 0.181345v 1.59283h 0.181345v -12.8094h 0.181345v
 8.46021h 0.181345v -7.7226h 0.181345v 9.03803h 0.181345v -2.52551h 0.725379v -2.16338h 0.181345v 6.12978h 0.181345v 1.59283h 0.181345v -9.61481h 0.181345v 9.61481h 0.181345v -3.03372h 0.181345v -5.66457h 0.181345v -1.78063h 0.181345v -0.817382h
 0.181345v -0.775446h 0.181345v -0.737604h 0.181345v 16.6087h 0.181345v -8.14849h 0.181345v -2.33043h 0.181345v 1.12036h 0.181345v 2.52551h 0.181345v -6.58109h 0.181345v 2.93523h 0.181345v 2.33043h 0.181345v -4.34915h 0.181345v 5.66457h 0.181345v
 -4.68889h 0.181345v -0.975686h 0.36269v -0.916516h 0.181345v -2.45694h 0.181345v 12.0718h 0.181345v -5.55922h 0.181345v 1.21008h 0.181345v -3.37346h 0.181345v 1.04303h 0.181345v 6.67958h 0.181345v -4.34915h 0.181345v -5.26566h 0.181345v 4.05558h
 0.181345v -1.12036h 0.181345v -8.14849h 0.181345v 5.21326h 0.181345v 2.93523h 0.181345v -1.04303h 0.181345v 3.37346h 0.181345v -7.7226h 0.181345v 9.03803h 0.181345v -1.31543h 0.181345v -2.33043h 0.181345v 1.12036h 0.181345v -1.12036h 0.36269v
 2.33043h 0.181345v -4.34915h 0.181345v -3.37346h 0.181345v -3.37346h 0.181345v -0.592934h 0.181345v 3.96639h 0.181345v -1.44089h 0.181345v -0.672017h 0.181345v 2.11291h 0.36269v -6.62549h 0.181345v 0.495713h 0.181345v 4.68889h 0.181345v 10.4789h
 0.181345v -5.66457h 0.181345v -1.78063h 0.181345v 1.78063h 0.36269v -4.11106h 0.181345v 4.11106h 0.36269v -4.81435h 0.181345v -2.52551h 0.181345v 5.55922h 0.181345v -6.12978h 0.36269v 2.42404h 0.181345v -3.50435h 0.181345v 0.530507h 0.181345v
 1.12036h 0.181345v -1.65086h 0.181345v 1.65086h 0.181345v -2.16338h 0.181345v 4.68889h 0.181345v -0.672017h 0.181345v 2.11291h 0.181345v -5.61726h 0.181345v 3.50435h 0.181345v -2.42404h 0.181345v 3.09606h 0.181345v 0.703284h 0.181345v -3.79934h
 0.181345v 3.09606h 0.181345v -5.1846h 0.181345v 7.40094h 0.181345v -9.66154h 0.181345v 2.2606h 0.181345v 7.40094h 0.181345v -5.8622h 0.181345v 5.8622h 0.181345v 2.59801h 0.181345v -5.48636h 0.181345v 2.11291h 0.181345v -3.37346h 0.181345v -0.592934h
 0.181345v 1.85349h 0.181345v -3.50435h 0.181345v 5.61726h 0.36269v 4.34915h 0.181345v -9.43589h 0.181345v 5.8622h 0.181345v 3.5737h 0.181345v -8.31554h 0.181345v 5.55922h 0.36269v 4.9197h 0.181345v -7.25013h 0.181345v 1.51305h 0.181345v 9.70347h
 0.181345v -12.5918h 0.181345v 2.11291h 0.181345v 9.03803h 0.181345v -13.575h 0.181345v 13.575h 0.181345v -8.26259h 0.181345v 11.2963h 0.181345v -1.59283h 0.181345v -10.4789h 0.181345v 6.51253h 0.181345v -3.13907h 0.181345v -2.59801h 0.181345v
 5.73708h 0.181345v -6.51253h 0.181345v 2.45694h 0.181345v 2.93523h 0.36269v 6.67958h 0.181345v -12.0718h 0.36269v 2.45694h 0.181345v -2.45694h 0.181345v 12.0718h 0.181345v -1.59283h 0.181345v -7.10546h 0.36269v 7.10546h 0.181345v -1.44089h 0.181345v
 -4.68889h 0.181345v 1.04303h 0.36269v 5.08675h 0.181345v -7.10546h 0.181345v 3.13907h 0.181345v 1.21008h 0.181345v -5.26566h 0.181345v -3.19455h 0.181345v 5.08675h 0.181345v 3.37346h 0.181345v 4.34915h 0.181345v -3.03372h 0.181345v -5.66457h
 0.181345v -0.916516h 0.181345v 0.916516h 0.181345v 0.975686h 0.181345v -0.975686h 0.181345v -3.37346h 0.181345v 2.45694h 0.181345v 9.61481h 0.181345v -10.4789h 0.181345v 1.78063h 0.181345v -2.59801h 0.181345v 13.0769h 0.181345v -10.4789h 0.181345v
 -4.11106h 0.181345v 8.46021h 0.181345v -6.94716h 0.181345v 1.6815h 0.181345v 2.93523h 0.181345v -1.04303h 0.181345v -4.34915h 0.181345v 4.34915h 0.181345v 3.37346h 0.181345v -2.33043h 0.181345v 1.12036h 0.181345v -1.12036h 0.36269v -2.93523h
 0.181345v 0.916516h 0.181345v 5.66457h 0.181345v -2.52551h 0.181345v -2.16338h 0.181345v 4.68889h 0.181345v -5.66457h 0.36269v -1.78063h 0.181345v 7.4452h 0.181345v -6.58109h 0.181345v 5.26566h 0.181345v -9.16349h 0.181345v 3.03372h 0.181345v
 0.864115h 0.181345v 2.93523h 0.181345v -2.01871h 0.181345v 3.13907h 0.181345v 2.52551h 0.181345v -1.31543h 0.181345v -3.37346h 0.181345v -0.975686h 0.181345v -4.81435h 0.181345v 0.703284h 0.181345v 7.25013h 0.181345v 1.21008h 0.181345v -6.94716h
 0.181345v 4.61673h 0.181345v 1.12036h 0.181345v -7.25013h 0.181345v 3.19455h 0.181345v -1.6815h 0.181345v 1.6815h 0.181345v -6.42334h 0.181345v 10.4789h 0.181345v -6.51253h 0.181345v 5.39217h 0.181345v -3.79934h 0.181345v -2.33043h 0.181345v
 -2.63585h 0.181345v 13.8524h 0.181345v -8.88609h 0.181345v -4.34915h 0.181345v 7.10546h 0.181345v -1.8922h 0.181345v 0.916516h 0.181345v 3.13907h 0.181345v -3.13907h 0.181345v -0.916516h 0.181345v -5.21326h 0.181345v 2.01871h 0.181345v 0.737604h
 0.181345v 6.51253h 0.181345v -2.16338h 0.181345v -5.08675h 0.181345v 3.19455h 0.181345v 9.61481h 0.181345v -12.8094h 0.181345v 8.46021h 0.181345v -5.26566h 0.181345v 1.8922h 0.181345v -2.75632h 0.181345v 4.9197h 0.181345v -2.16338h 0.181345v
 -2.75632h 0.181345v -1.59283h 0.181345v -5.08675h 0.181345v 2.97384h 0.181345v 2.88835h 0.181345v -1.51305h 0.181345v 6.12978h 0.181345v -2.01871h 0.181345v -3.37346h 0.181345v 3.37346h 0.181345v -4.81435h 0.181345v -1.31543h 0.181345v 8.14849h
 0.181345v -2.01871h 0.36269v -8.99072h 0.181345v 5.61726h 0.181345v -0.737604h 0.181345v -1.3753h 0.181345v 5.48636h 0.181345v -3.37346h 0.181345v -1.44089h 0.181345v -6.58109h 0.181345v 5.90907h 0.181345v -1.85349h 0.181345v -1.65086h 0.181345v
 2.2438h 0.181345v 2.63585h 0.181345v 6.12978h 0.181345v -9.35857h 0.181345v 0.592934h 0.181345v -2.75632h 0.181345v 2.75632h 0.181345v 1.26055h 0.181345v -0.643412h 0.181345v 5.21326h 0.181345v -2.45694h 0.181345v 1.59283h 0.181345v -5.55922h
 0.181345v 2.52551h 0.181345v 2.21634h 0.181345v 0.817382h 0.181345v -3.03372h 0.544034v -1.31543h 0.181345v 1.31543h 0.181345v -1.31543h 0.181345v -2.86094h 0.181345v 8.0742h 0.181345v -0.864115h 0.181345v 1.78063h 0.181345v -4.11106h 0.181345v
 4.11106h 0.181345v -4.81435h 0.181345v 6.83306h 0.181345v -8.14849h 0.181345v 6.12978h 0.181345v 4.34915h 0.181345v -9.16349h 0.181345v -2.52551h 0.181345v 9.35857h 0.181345v -3.79934h 0.36269v -0.817382h 0.36269v 5.73708h 0.181345v -4.05558h
 0.181345v 4.05558h 0.181345v -7.25013h 0.181345v -0.703284h 0.181345v 13.5126h 0.181345v -1.59283h 0.181345v -2.75632h 0.181345v -8.46021h 0.181345v 8.46021h 0.181345v 1.31543h 0.181345v 1.44089h 0.181345v -2.75632h 0.181345v -3.37346h 0.36269v
 2.16338h 0.181345v -5.73708h 0.181345v 2.59801h 0.181345v 4.34915h 0.181345v -6.94716h 0.181345v 13.0769h 0.181345v -16.6087h 0.181345v 6.12978h 0.36269v -4.81435h 0.181345v 3.03372h 0.181345v 3.79934h 0.181345v 2.33043h 0.181345v -3.37346h
 0.181345v 1.04303h 0.181345v 1.12036h 0.181345v 1.21008h 0.181345v -4.34915h 0.181345v 4.34915h 0.181345v 4.34915h 0.181345v -11.2963h 0.181345v 8.26259h 0.181345v -7.4452h 0.181345v 4.9197h 0.181345v 7.33985h 0.181345v -13.8524h 0.181345v -1.44089h
 0.181345v 6.83306h 0.181345v -4.61673h 0.181345v 5.73708h 0.181345v -7.25013h 0.181345v 4.11106h 0.181345v -0.916516h 0.181345v 2.93523h 0.181345v -1.04303h 0.181345v -3.5737h 0.181345v 0.817382h 0.181345v 0.864115h 0.181345v 2.93523h 0.181345v
 -2.93523h 0.181345v 8.02198h 0.181345v -2.75632h 0.36269v -1.21008h 0.181345v -6.51253h 0.181345v 7.7226h 0.181345v -6.12978h 0.181345v 7.4452h 0.181345v -1.31543h 0.181345v -2.33043h 0.181345v -2.01871h 0.181345v 5.66457h 0.36269v 4.81435h
 0.181345v -3.37346h 0.181345v 24.3313h 0.181345v -25.7722h 0.181345v -4.68889h 0.181345v 6.12978h 0.181345v 1.59283h 0.181345v -4.34915h 0.181345v 4.34915h 0.36269v 6.12978h 0.181345v -4.34915h 0.181345v -6.12978h 0.181345v 8.14849h 0.36269v
 -2.01871h 0.181345v -1.78063h 0.181345v 12.2596h 0.181345v -10.4789h 0.181345v 4.34915h 0.181345v -2.33043h 0.181345v -2.01871h 0.181345v 2.01871h 0.181345v -2.01871h 0.181345v 7.10546h 0.181345v -15.5657h 0.181345v 10.4789h 0.181345v 8.46021h
 0.181345v -3.37346h 0.181345v -10.4789h 0.181345v 1.59283h 0.36269v 3.79934h 0.181345v -2.01871h 0.36269v -13.0769h 0.181345v 20.1824h 0.181345v -5.08675h 0.181345v -5.39217h 0.181345v 5.39217h 0.181345v 2.33043h 0.181345v -9.16349h 0.36269v
 4.81435h 0.36269v -1.78063h 0.181345v 6.12978h 0.181345v -7.7226h 0.181345v 5.39217h 0.181345v -9.35857h 0.181345v 5.55922h 0.181345v 8.88609h 0.181345v -13.2352h 0.181345v 8.14849h 0.181345v -5.39217h 0.181345v 13.8524h 0.181345v -13.8524h
 0.181345v 7.7226h 0.181345v -9.16349h 0.181345v 11.9198h 0.181345v -7.10546h 0.181345v 7.10546h 0.181345v -8.88609h 0.181345v 1.78063h 0.181345v 2.01871h 0.181345v -8.14849h 0.181345v 16.6087h 0.181345v -3.37346h 0.181345v -14.4453h 0.181345v
 5.55922h 0.181345v -3.03372h 0.36269v 6.83306h 0.36269v -3.79934h 0.181345v 6.12978h 0.181345v -6.12978h 0.181345v 3.79934h 0.181345v -5.39217h 0.36269v -1.44089h 0.36269v 1.44089h 0.181345v -6.12978h 0.181345v 6.12978h 0.181345v 1.59283h 0.181345v
 1.78063h 0.181345v 4.34915h 0.181345v -4.34915h 0.181345v -3.37346h 0.181345v -1.44089h 0.181345v 1.44089h 0.181345v 3.37346h 0.36269v -1.78063h 0.181345v -4.34915h 0.181345v -2.33043h 0.36269v 6.67958h 0.181345v 6.12978h 0.181345v -11.689h
 0.181345v 17.8188h 0.181345v -18.9391h 0.181345v 12.8094h 0.181345v -9.16349h 0.181345v 11.9198h 0.181345v -8.88609h 0.36269v -4.34915h 0.181345v 8.14849h 0.181345v 2.33043h 0.181345v -6.12978h 0.36269v -3.03372h 0.181345v 1.44089h 0.181345v
 5.39217h 0.181345v 2.33043h 0.36269v 2.75632h 0.181345v -8.88609h 0.181345v -4.34915h 0.181345v -2.33043h 0.181345v 15.5657h 0.181345v -10.4789h 0.181345v 1.59283h 0.36269v -6.67958h 0.181345v 8.46021h 0.181345v -7.33985h 0.181345v -1.12036h
 0.181345v 3.64586h 0.36269v 1.44089h 0.36269v -7.10546h 0.181345v 7.10546h 0.181345v -7.10546h 0.181345v 2.01871h 0.181345v 2.33043h 0.181345v -3.37346h 0.181345v 1.04303h 0.181345v 3.64586h 0.181345v -1.31543h 0.181345v -3.37346h 0.36269v -3.5737h
 0.181345v 15.0956h 0.181345v -10.4789h 0.36269v 3.64586h 0.181345v -3.64586h 0.181345v -1.04303h 0.181345v 2.16338h 0.181345v 2.52551h 0.181345v -2.52551h 0.181345v 1.21008h 0.181345v -4.34915h 0.36269v 7.10546h 0.181345v -7.10546h 0.181345v
 -2.59801h 0.181345v 9.70347h 0.181345v -8.88609h 0.181345v -3.70573h 0.181345v 2.11291h 0.181345v 10.4789h 0.181345v -6.12978h 0.181345v -8.88609h 0.181345v 4.53695h 0.181345v 7.7226h 0.181345v -10.4789h 0.181345v 8.14849h 0.181345v -6.83306h
 0.181345v 17.312h 0.181345v -14.2783h 0.181345v 2.75632h 0.181345v -0.975686h 0.36269v 2.01871h 0.181345v -8.14849h 0.181345v 5.21326h 0.181345v -0.864115h 0.181345v 7.4452h 0.181345v -2.52551h 0.181345v 2.52551h 0.181345v -1.31543h 0.181345v
 -7.7226h 0.181345v 7.7226h 0.181345v -6.94716h 0.181345v 4.61673h 0.181345v 3.64586h 0.181345v -4.68889h 0.181345v -1.8922h 0.181345v -1.6815h 0.181345v -2.88835h 0.181345v 1.3753h 0.181345v 1.51305h 0.181345v 3.5737h 0.181345v 1.04303h 0.181345v
 5.08675h 0.181345v -10.4789h 0.181345v 13.8524h 0.181345v -7.33985h 0.181345v 2.52551h 0.181345v -2.52551h 0.181345v -4.9197h 0.181345v 12.2596h 0.181345v -3.37346h 0.181345v -6.12978h 0.181345v 1.04303h 0.181345v 2.33043h 0.181345v 10.4789h
 0.181345v -10.4789h 0.181345v -1.21008h 0.181345v -2.16338h 0.36269v 9.50324h 0.181345v 7.10546h 0.181345v -10.4789h 0.181345v 13.8524h 0.181345v -3.37346h 0.181345v -14.4453h 0.181345v 14.4453h 0.181345v -2.75632h 0.181345v 6.12978h 0.181345v
 4.34915h 0.181345v 6.12978h 0.181345v -24.3313h 0.181345v 10.4789h 0.36269v 3.37346h 0.181345v 10.4789h 0.181345v -18.9391h 0.181345v 8.46021h 0.181345v 20.9578h 0.181345v -16.6087h 0.36269v 6.12978h 0.181345v -13.8524h 0.181345v 7.7226h 0.181345v
 -12.8094h 0.181345v 18.9391h 0.36269v 10.4789h 0.181345v 10.4789h 0.181345v -34.8102h 0.181345v 34.8102h 0.181345v -20.9578h 0.544034v 20.9578h 0.36269v -10.4789h 0.181345v 10.4789h 0.181345v -20.9578h 0.181345v -13.8524h 0.181345v 13.8524h 0.36269v
 10.4789h 0.181345v 10.4789h 0.181345v -20.9578h 0.36269v 10.4789h 0.181345v -10.4789h 0.181345v 20.9578h 0.36269v -10.4789h 0.181345v 10.4789h 0.181345v -10.4789h 0.181345v -10.4789h 0.181345v 20.9578h 0.544034v -20.9578h 0.181345v 10.4789h 0.36269v
 -10.4789h 0.181345v 10.4789h 0.181345v 10.4789h 0.181345v -10.4789h 0.36269v 10.4789h 0.181345v -10.4789h 0.181345v -16.6087h 0.181345v 27.0876h 0.544034v -20.9578h 0.181345v -10.4789h 0.181345v 20.9578h 0.181345v 10.4789h 0.181345v -10.4789h
 0.544034v -16.6087h 0.181345v 16.6087h 0.36269v -16.6087h 0.181345v 16.6087h 0.181345v 10.4789h 0.181345v -10.4789h 0.725379v 10.4789h 0.181345v -10.4789h 0.181345v -16.6087h 0.181345v -4.34915h 0.181345v 31.4368h 0.36269v -31.4368h 0.181345v
 20.9578h 0.181345v 10.4789h 0.181345v -20.9578h 0.36269v 20.9578h 0.181345v -20.9578h 0.181345v 20.9578h 0.181345v -10.4789h 0.36269v -16.6087h 0.181345v 16.6087h 0.36269v 10.4789h 0.36269v -10.4789h 0.36269v -10.4789h 0.181345v 10.4789h 0.36269v
 -10.4789h 0.181345v 20.9578h 0.181345v -20.9578h 0.725379v -6.12978h 0.181345v 27.0876h 0.544034v -10.4789h 0.181345v 10.4789h 0.181345v -20.9578h 0.36269v 10.4789h 0.725379v 10.4789h 0.181345v -10.4789h 0.181345v -24.3313h 0.181345v 34.8102h
 0.544034v -20.9578h 0.181345v 10.4789h 0.181345v -16.6087h 0.181345v 27.0876h 0.181345v -10.4789h 0.181345v 10.4789h 0.181345v -10.4789h 0.181345v 10.4789h 0.181345v -20.9578h 0.181345v 10.4789h 0.181345v 10.4789h 0.544034v -10.4789h 0.36269v
 10.4789h 0.725379v -10.4789h 0.181345v 10.4789h 0.181345v -10.4789h 0.181345v 10.4789h 0.181345v -27.0876h 0.181345v 6.12978h 0.181345v 20.9578h 0.544034v -10.4789h 0.181345v 10.4789h 0.181345v -31.4368h 0.181345v 4.34915h 0.181345v 27.0876h
 0.181345v -10.4789h 0.36269v -10.4789h 0.181345v 20.9578h 0.181345v -10.4789h 0.181345v -10.4789h 0.906724v 10.4789h 0.36269v 10.4789h 0.725379v -10.4789h 0.36269v 10.4789h 0.181345v -10.4789h 0.181345v 10.4789h 0.181345v -20.9578h 0.181345v
 20.9578h 0.181345v -20.9578h 0.181345v 20.9578h 0.181345v -10.4789h 0.36269v 10.4789h 0.181345v -20.9578h 0.181345v 10.4789h 0.181345v -10.4789h 0.181345v 10.4789h 0.181345v 10.4789h 0.181345v -10.4789h 0.36269v 10.4789h 0.181345v -10.4789h
 0.181345v 10.4789h 0.181345v -10.4789h 0.181345v 10.4789h 0.181345v -10.4789h 0.181345v 10.4789h 0.544034v -10.4789h 0.181345v -10.4789h 0.181345v 20.9578h 0.181345v -20.9578h 0.181345v 10.4789h 0.181345v 10.4789h 0.36269v -20.9578h 0.181345v
 20.9578h 0.181345v -10.4789h 0.181345v 10.4789h 0.544034v -10.4789h 0.181345v 10.4789h 0.181345v -20.9578h 0.181345v 20.9578h 0.181345v -10.4789h 0.181345v -10.4789h 0.181345v 10.4789h 0.36269v -16.6087h 0.181345v 27.0876h 0.181345v -27.0876h
 0.181345v 27.0876h 0.181345v -10.4789h 0.181345v 10.4789h 0.725379v -20.9578h 0.181345v 20.9578h 0.181345v -10.4789h 0.36269v -10.4789h 0.181345v 10.4789h 0.544034v 10.4789h 0.181345v -10.4789h 0.725379v -10.4789h 0.36269v 20.9578h 0.181345v
 -10.4789h 0.181345v 10.4789h 0.181345v -10.4789h 0.181345v 10.4789h 0.544034v -20.9578h 0.181345v 10.4789h 0.544034v -10.4789h 0.181345v 10.4789h 0.181345v -10.4789h 0.181345v 20.9578h 0.181345v -10.4789h 0.36269v 10.4789h 0.725379v -10.4789h
 0.181345v 10.4789h 0.906724v -10.4789h 0.181345v -10.4789h 0.181345v 10.4789h 0.181345v -10.4789h 0.181345v 10.4789h 0.181345v 10.4789h 0.725379v -10.4789h 0.36269v 10.4789h 0.544034" fill="none" stroke="black"/>
<path d="M57.1929,280.151h 453.543" fill="none" stroke="black"/>
<path d="M57.1929,272.68v 7.47068" fill="none" stroke="black"/>
<path d="M75.3318,276.415v 3.73534" fill="none" stroke="black"/>
<path d="M93.4707,276.415v 3.73534" fill="none" stroke="black"/>
<path d="M111.61,276.415v 3.73534" fill="none" stroke="black"/>
<path d="M129.749,276.415v 3.73534" fill="none" stroke="black"/>
<path d="M147.887,272.68v 7.47068" fill="none" stroke="black"/>
<path d="M166.026,276.415v 3.73534" fill="none" stroke="black"/>
<path d="M184.165,276.415v 3.73534" fill="none" stroke="black"/>
<path d="M202.304,276.415v 3.73534" fill="none" stroke="black"/>
<path d="M220.443,276.415v 3.73534" fill="none" stroke="black"/>
<path d="M238.582,272.68v 7.47068" fill="none" stroke="black"/>
<path d="M256.721,276.415v 3.73534" fill="none" stroke="black"/>
<path d="M274.86,276.415v 3.73534" fill="none" stroke="black"/>
<path d="M292.999,276.415v 3.73534" fill="none" stroke="black"/>
<path d="M311.138,276.415v 3.73534" fill="none" stroke="black"/>
<path d="M329.277,272.68v 7.47068" fill="none" stroke="black"/>
<path d="M347.415,276.415v 3.73534" fill="none" stroke="black"/>
<path d="M365.554,276.415v 3.73534" fill="none" stroke="black"/>
<path d="M383.693,276.415v 3.73534" fill="none" stroke="black"/>
<path d="M401.832,276.415v 3.73534" fill="none" stroke="black"/>
<path d="M419.971,272.68v 7.47068" fill="none" stroke="black"/>
<path d="M438.11,276.415v 3.73534" fill="none" stroke="black"/>
<path d="M456.249,276.415v 3.73534" fill="none" stroke="black"/>
<path d="M474.388,276.415v 3.73534" fill="none" stroke="black"/>
<path d="M492.527,276.415v 3.73534" fill="none" stroke="black"/>
<path d="M510.666,272.68v 7.47068" fill="none" stroke="black"/>
<path d="M510.666,272.68v 7.47068" fill="none" stroke="black"/>
<text xml:space="preserve" x="54.3523" y="290.27" fill="black" font-size="10.4952" font-family="Helvetica">0</text>
<text xml:space="preserve" x="139.569" y="290.27" fill="black" font-size="10.4952" font-family="Helvetica">500</text>
<text xml:space="preserve" x="227.449" y="290.27" fill="black" font-size="10.4952" font-family="Helvetica">1000</text>
<text xml:space="preserve" x="318.288" y="290.27" fill="black" font-size="10.4952" font-family="Helvetica">1500</text>
<text xml:space="preserve" x="408.831" y="290.27" fill="black" font-size="10.4952" font-family="Helvetica">2000</text>
<text xml:space="preserve" x="499.67" y="290.27" fill="black" font-size="10.4952" font-family="Helvetica">2500</text>
<text xml:space="preserve" x="265.323" y="301.218" fill="black" font-size="10.4952" font-family="Helvetica">Channel</text>
<path d="M57.1929,280.151v -249.023" fill="none" stroke="black"/>
<path d="M63.9961,280.151h -6.80315" fill="none" stroke="black"/>
<path d="M63.9961,277.394h -6.80315" fill="none" stroke="black"/>
<path d="M63.9961,275.064h -6.80315" fill="none" stroke="black"/>
<path d="M63.9961,273.045h -6.80315" fill="none" stroke="black"/>
<path d="M63.9961,271.264h -6.80315" fill="none" stroke="black"/>
<path d="M70.7992,269.672h -13.6063" fill="none" stroke="black"/>
<text xml:space="preserve" x="49.0263" y="273.404" fill="black" font-size="10.4952" font-family="Helvetica">1</text>
<path d="M63.9961,259.193h -6.80315" fill="none" stroke="black"/>
<path d="M63.9961,253.063h -6.80315" fill="none" stroke="black"/>
<path d="M63.9961,248.714h -6.80315" fill="none" stroke="black"/>
<path d="M63.9961,245.34h -6.80315" fill="none" stroke="black"/>
<path d="M63.9961,242.584h -6.80315" fill="none" stroke="black"/>
<path d="M63.9961,240.254h -6.80315" fill="none" stroke="black"/>
<path d="M63.9961,238.235h -6.80315" fill="none" stroke="black"/>
<path d="M63.9961,236.454h -6.80315" fill="none" stroke="black"/>
<path d="M70.7992,234.861h -13.6063" fill="none" stroke="black"/>
<text xml:space="preserve" x="41.629" y="238.489" fill="black" font-size="10.4952" font-family="Helvetica">10</text>
<path d="M63.9961,224.382h -6.80315" fill="none" stroke="black"/>
<path d="M63.9961,218.253h -6.80315" fill="none" stroke="black"/>
<path d="M63.9961,213.904h -6.80315" fill="none" stroke="black"/>
<path d="M63.9961,210.53h -6.80315" fill="none" stroke="black"/>
<path d="M63.9961,207.774h -6.80315" fill="none" stroke="black"/>
<path d="M63.9961,205.443h -6.80315" fill="none" stroke="black"/>
<path d="M63.9961,203.425h -6.80315" fill="none" stroke="black"/>
<path d="M63.9961,201.644h -6.80315" fill="none" stroke="black"/>
<path d="M70.7992,200.051h -13.6063" fill="none" stroke="black"/>
<text xml:space="preserve" x="49.0263" y="200.319" fill="black" font-size="7.16345" font-family="Helvetica">2</text>
<text xml:space="preserve" x="38.0783" y="204.757" fill="black" font-size="10.4952" font-family="Helvetica">10</text>
<path d="M63.9961,189.572h -6.80315" fill="none" stroke="black"/>
<path d="M63.9961,183.442h -6.80315" fill="none" stroke="black"/>
<path d="M63.9961,179.093h -6.80315" fill="none" stroke="black"/>
<path d="M63.9961,175.72h -6.80315" fill="none" stroke="black"/>
<path d="M63.9961,172.964h -6.80315" fill="none" stroke="black"/>
<path d="M63.9961,170.633h -6.80315" fill="none" stroke="black"/>
<path d="M63.9961,168.614h -6.80315" fill="none" stroke="black"/>
<path d="M63.9961,166.834h -6.80315" fill="none" stroke="black"/>
<path d="M70.7992,165.241h -13.6063" fill="none" stroke="black"/>
<text xml:space="preserve" x="49.0263" y="165.108" fill="black" font-size="7.16345" font-family="Helvetica">3</text>
<text xml:space="preserve" x="38.0783" y="169.842" fill="black" font-size="10.4952" font-family="Helvetica">10</text>
<path d="M63.9961,154.762h -6.80315" fill="none" stroke="black"/>
<path d="M63.9961,148.632h -6.80315" fill="none" stroke="black"/>
<path d="M63.9961,144.283h -6.80315" fill="none" stroke="black"/>
<path d="M63.9961,140.91h -6.80315" fill="none" stroke="black"/>
<path d="M63.9961,138.153h -6.80315" fill="none" stroke="black"/>
<path d="M63.9961,135.823h -6.80315" fill="none" stroke="black"/>
<path d="M63.9961,133.804h -6.80315" fill="none" stroke="black"/>
<path d="M63.9961,132.024h -6.80315" fill="none" stroke="black"/>
<path d="M70.7992,130.431h -13.6063" fill="none" stroke="black"/>
<text xml:space="preserve" x="49.0263" y="130.488" fill="black" font-size="7.16345" font-family="Helvetica">4</text>
<text xml:space="preserve" x="38.0783" y="134.927" fill="black" font-size="10.4952" font-family="Helvetica">10</text>
<path d="M63.9961,119.952h -6.80315" fill="none" stroke="black"/>
<path d="M63.9961,113.822h -6.80315" fill="none" stroke="black"/>
<path d="M63.9961,109.473h -6.80315" fill="none" stroke="black"/>
<path d="M63.9961,106.099h -6.80315" fill="none" stroke="black"/>
<path d="M63.9961,103.343h -6.80315" fill="none" stroke="black"/>
<path d="M63.9961,101.013h -6.80315" fill="none" stroke="black"/>
<path d="M63.9961,98.994h -6.80315" fill="none" stroke="black"/>
<path d="M63.9961,97.2133h -6.80315" fill="none" stroke="black"/>
<path d="M70.7992,95.6205h -13.6063" fill="none" stroke="black"/>
<text xml:space="preserve" x="49.0263" y="95.5731" fill="black" font-size="7.16345" font-family="Helvetica">5</text>
<text xml:space="preserve" x="38.0783" y="100.307" fill="black" font-size="10.4952" font-family="Helvetica">10</text>
<path d="M63.9961,85.1416h -6.80315" fill="none" stroke="black"/>
<path d="M63.9961,79.0118h -6.80315" fill="none" stroke="black"/>
<path d="M63.9961,74.6627h -6.80315" fill="none" stroke="black"/>
<path d="M63.9961,71.2892h -6.80315" fill="none" stroke="black"/>
<path d="M63.9961,68.5329h -6.80315" fill="none" stroke="black"/>
<path d="M63.9961,66.2025h -6.80315" fill="none" stroke="black"/>
<path d="M63.9961,64.1838h -6.80315" fill="none" stroke="black"/>
<path d="M63.9961,62.4031h -6.80315" fill="none" stroke="black"/>
<path d="M70.7992,60.8103h -13.6063" fill="none" stroke="black"/>
<text xml:space="preserve" x="49.0263" y="60.6579" fill="black" font-size="7.16345" font-family="Helvetica">6</text>
<text xml:space="preserve" x="38.0783" y="65.3921" fill="black" font-size="10.4952" font-family="Helvetica">10</text>
<path d="M63.9961,50.3314h -6.80315" fill="none" stroke="black"/>
<path d="M63.9961,44.2016h -6.80315" fill="none" stroke="black"/>
<path d="M63.9961,39.8525h -6.80315" fill="none" stroke="black"/>
<path d="M63.9961,36.479h -6.80315" fill="none" stroke="black"/>
<path d="M63.9961,33.7227h -6.80315" fill="none" stroke="black"/>
<path d="M63.9961,31.3922h -6.80315" fill="none" stroke="black"/>
<g transform="rotate(-90,26.5385,191.442)">
<text xml:space="preserve" x="26.5385" y="191.442" fill="black" font-size="10.4952" font-family="Helvetica">Counts/Channel</text>
</g>
<text xml:space="preserve" x="404.097" y="60.6579" fill="black" font-size="14.7788" font-family="Helvetica" font-weight="bold"> = 2.4879 MeV</text>
<text xml:space="preserve" x="398.179" y="63.9127" fill="black" font-size="10.0192" font-family="Helvetica" font-weight="bold">p</text>
<text xml:space="preserve" x="389.006" y="60.6579" fill="black" font-size="14.7788" font-family="Helvetica" font-weight="bold">E</text>
<path d="M262.163,163.8v 26.1528" fill="none" stroke="black"/>
<path d="M264.454,189.953l -2.29122, 3.9685l -2.29122, -3.9685z" fill="black"/>
<path d="M264.454,189.953l -2.29122, 3.9685l -2.29122, -3.9685h 4.58243z" fill="none" stroke="black"/>
<text xml:space="preserve" x="266.803" y="161.853" fill="black" font-size="10.4952" font-family="Helvetica" font-weight="bold">_1 	1.369 MeV</text>
<text xml:space="preserve" x="260.293" y="161.853" fill="black" font-size="10.4952" font-family="Times">&#0945;</text>
<path d="M184.528,130.431v 30.8417" fill="none" stroke="black"/>
<path d="M186.819,161.272l -2.29122, 3.9685l -2.29122, -3.9685z" fill="black"/>
<path d="M186.819,161.272l -2.29122, 3.9685l -2.29122, -3.9685h 4.58243z" fill="none" stroke="black"/>
<text xml:space="preserve" x="172.117" y="127.529" fill="black" font-size="10.4952" font-family="Helvetica" font-weight="bold"># p_1 	0.844 MeV</text>
<path d="M210.104,148.632v 12.6402" fill="none" stroke="black"/>
<path d="M212.395,161.272l -2.29122, 3.9685l -2.29122, -3.9685z" fill="black"/>
<path d="M212.395,161.272l -2.29122, 3.9685l -2.29122, -3.9685h 4.58243z" fill="none" stroke="black"/>
<text xml:space="preserve" x="197.564" y="144.099" fill="black" font-size="10.4952" font-family="Helvetica" font-weight="bold"># p_2 	1.015 MeV</text>
<path d="M497.612,269.672h 13.054" fill="none" stroke="black"/>
<path d="M504.139,259.193h 6.52698" fill="none" stroke="black"/>
<path d="M504.139,253.063h 6.52698" fill="none" stroke="black"/>
<path d="M504.139,248.714h 6.52698" fill="none" stroke="black"/>
<path d="M504.139,245.34h 6.52698" fill="none" stroke="black"/>
<path d="M504.139,242.584h 6.52698" fill="none" stroke="black"/>
<path d="M504.139,240.254h 6.52698" fill="none" stroke="black"/>
<path d="M504.139,238.235h 6.52698" fill="none" stroke="black"/>
<path d="M504.139,236.454h 6.52698" fill="none" stroke="black"/>
<path d="M497.612,234.861h 13.054" fill="none" stroke="black"/>
<path d="M504.139,224.382h 6.52698" fill="none" stroke="black"/>
<path d="M504.139,218.253h 6.52698" fill="none" stroke="black"/>
<path d="M504.139,213.904h 6.52698" fill="none" stroke="black"/>
<path d="M504.139,210.53h 6.52698" fill="none" stroke="black"/>
<path d="M504.139,207.774h 6.52698" fill="none" stroke="black"/>
<path d="M504.139,205.443h 6.52698" fill="none" stroke="black"/>
<path d="M504.139,203.425h 6.52698" fill="none" stroke="black"/>
<path d="M504.139,201.644h 6.52698" fill="none" stroke="black"/>
<path d="M497.612,200.051h 13.054" fill="none" stroke="black"/>
<path d="M504.139,189.572h 6.52698" fill="none" stroke="black"/>
<path d="M504.139,183.442h 6.52698" fill="none" stroke="black"/>
<path d="M504.139,179.093h 6.52698" fill="none" stroke="black"/>
<path d="M504.139,175.72h 6.52698" fill="none" stroke="black"/>
<path d="M504.139,172.964h 6.52698" fill="none" stroke="black"/>
<path d="M504.139,170.633h 6.52698" fill="none" stroke="black"/>
<path d="M504.139,168.614h 6.52698" fill="none" stroke="black"/>
<path d="M504.139,166.834h 6.52698" fill="none" stroke="black"/>
<path d="M497.612,165.241h 13.054" fill="none" stroke="black"/>
<path d="M504.139,154.762h 6.52698" fill="none" stroke="black"/>
<path d="M504.139,148.632h 6.52698" fill="none" stroke="black"/>
<path d="M504.139,144.283h 6.52698" fill="none" stroke="black"/>
<path d="M504.139,140.91h 6.52698" fill="none" stroke="black"/>
<path d="M504.139,138.153h 6.52698" fill="none" stroke="black"/>
<path d="M504.139,135.823h 6.52698" fill="none" stroke="black"/>
<path d="M504.139,133.804h 6.52698" fill="none" stroke="black"/>
<path d="M504.139,132.024h 6.52698" fill="none" stroke="black"/>
<path d="M497.612,130.431h 13.054" fill="none" stroke="black"/>
<path d="M504.139,119.952h 6.52698" fill="none" stroke="black"/>
<path d="M504.139,113.822h 6.52698" fill="none" stroke="black"/>
<path d="M504.139,109.473h 6.52698" fill="none" stroke="black"/>
<path d="M504.139,106.099h 6.52698" fill="none" stroke="black"/>
<path d="M504.139,103.343h 6.52698" fill="none" stroke="black"/>
<path d="M504.139,101.013h 6.52698" fill="none" stroke="black"/>
<path d="M504.139,98.994h 6.52698" fill="none" stroke="black"/>
<path d="M504.139,97.2133h 6.52698" fill="none" stroke="black"/>
<path d="M497.612,95.6205h 13.054" fill="none" stroke="black"/>
<path d="M504.139,85.1416h 6.52698" fill="none" stroke="black"/>
<path d="M504.139,79.0118h 6.52698" fill="none" stroke="black"/>
<path d="M504.139,74.6627h 6.52698" fill="none" stroke="black"/>
<path d="M504.139,71.2892h 6.52698" fill="none" stroke="black"/>
<path d="M504.139,68.5329h 6.52698" fill="none" stroke="black"/>
<path d="M504.139,66.2025h 6.52698" fill="none" stroke="black"/>
<path d="M504.139,64.1838h 6.52698" fill="none" stroke="black"/>
<path d="M504.139,62.4031h 6.52698" fill="none" stroke="black"/>
<path d="M497.612,60.8103h 13.054" fill="none" stroke="black"/>
<path d="M504.139,50.3314h 6.52698" fill="none" stroke="black"/>
<path d="M504.139,44.2016h 6.52698" fill="none" stroke="black"/>
<path d="M504.139,39.8525h 6.52698" fill="none" stroke="black"/>
<path d="M504.139,36.479h 6.52698" fill="none" stroke="black"/>
<path d="M504.139,33.7227h 6.52698" fill="none" stroke="black"/>
<path d="M504.139,31.3922h 6.52698" fill="none" stroke="black"/>
<path d="M57.1929,38.2274v -7.46952" fill="none" stroke="black"/>
<path d="M75.3318,38.2274v -7.46952" fill="none" stroke="black"/>
<path d="M93.4707,38.2274v -7.46952" fill="none" stroke="black"/>
<path d="M111.61,38.2274v -7.46952" fill="none" stroke="black"/>
<path d="M129.749,38.2274v -7.46952" fill="none" stroke="black"/>
<path d="M147.887,38.2274v -7.46952" fill="none" stroke="black"/>
<path d="M166.026,38.2274v -7.46952" fill="none" stroke="black"/>
<path d="M184.165,38.2274v -7.46952" fill="none" stroke="black"/>
<path d="M202.304,38.2274v -7.46952" fill="none" stroke="black"/>
<path d="M220.443,38.2274v -7.46952" fill="none" stroke="black"/>
<path d="M238.582,38.2274v -7.46952" fill="none" stroke="black"/>
<path d="M256.721,38.2274v -7.46952" fill="none" stroke="black"/>
<path d="M274.86,38.2274v -7.46952" fill="none" stroke="black"/>
<path d="M292.999,38.2274v -7.46952" fill="none" stroke="black"/>
<path d="M311.138,38.2274v -7.46952" fill="none" stroke="black"/>
<path d="M329.277,38.2274v -7.46952" fill="none" stroke="black"/>
<path d="M347.415,38.2274v -7.46952" fill="none" stroke="black"/>
<path d="M365.554,38.2274v -7.46952" fill="none" stroke="black"/>
<path d="M383.693,38.2274v -7.46952" fill="none" stroke="black"/>
<path d="M401.832,38.2274v -7.46952" fill="none" stroke="black"/>
<path d="M419.971,38.2274v -7.46952" fill="none" stroke="black"/>
<path d="M438.11,38.2274v -7.46952" fill="none" stroke="black"/>
<path d="M456.249,38.2274v -7.46952" fill="none" stroke="black"/>
<path d="M474.388,38.2274v -7.46952" fill="none" stroke="black"/>
<path d="M492.527,38.2274v -7.46952" fill="none" stroke="black"/>
<path d="M510.666,38.2274v -7.46952" fill="none" stroke="black"/></svg>
