<?xml version="1.0" standalone="no"?>
<svg width="567.429" height="311.778" viewBox="0 0 567.429 311.778" xmlns="http://www.w3.org/2000/svg" shape-rendering="crispEdges">
<title>
Yields/P1/run_0104/det4_Fit.svg
</title>
<desc>
Creator: ROOT Version 6.12/06
CreationDate: Mon Apr 15 10:29:02 2019</desc>
<defs>
</defs>
<rect x="0.5" y="0" width="566.929" height="311.278" fill="white"/>
<rect x="57.1929" y="31.1278" width="453.543" height="249.023" fill="white"/>
<rect x="57.1929" y="31.1278" width="453.543" height="249.023" fill="none" stroke="black"/>
<path d="M57.1929,40.7897h 0.181345v 239.361h 9.79262v -10.4793h 0.181345v 10.4793h 2.17614v -10.4793h 0.36269v 10.4793h 13.6009v -10.4793h 0.181345v 10.4793h 0.725379v -10.4793h 0.181345v 10.4793h 1.08807v -10.4793h 0.181345v 10.4793h 0.36269v
 -10.4793h 0.181345v 10.4793h 1.08807v -20.9586h 0.181345v 10.4793h 0.181345v -10.4793h 0.181345v 20.9586h 1.08807v -20.9586h 0.181345v 20.9586h 0.181345v -20.9586h 0.181345v -16.6093h 0.181345v -20.3151h 0.181345v -14.992h 0.181345v -11.6518h
 0.181345v -8.42823h 0.181345v -3.75634h 0.181345v -4.68569h 0.181345v -2.73175h 0.181345v -1.07183h 0.181345v -2.09047h 0.181345v -0.41964h 0.181345v -1.39439h 0.181345v -1.53951h 0.36269v 0.718594h 0.181345v -1.13391h 0.181345v -1.09111h 0.181345v
 -0.216238h 0.181345v 0.620892h 0.181345v -0.869322h 0.181345v -0.704909h 0.181345v -0.463182h 0.181345v 0.0163002h 0.181345v 0.246635h 0.181345v -1.00987h 0.181345v 0.12456h 0.181345v 0.412058h 0.181345v -0.380757h 0.181345v -0.417193h 0.181345v
 0.417193h 0.181345v -0.0625375h 0.181345v 0.653613h 0.181345v -1.50301h 0.181345v -0.335492h 0.181345v 0.498616h 0.181345v -0.044663h 0.181345v -0.824451h 0.181345v 0.661806h 0.181345v -0.102597h 0.181345v -1.01675h 0.181345v 1.08996h 0.181345v
 -0.0878129h 0.181345v 0.414229h 0.181345v 0.0150059h 0.181345v -0.531043h 0.181345v 0.351948h 0.181345v -0.0592299h 0.181345v 0.711052h 0.181345v -0.200043h 0.181345v -0.466608h 0.181345v -0.235311h 0.181345v 0.701919h 0.181345v 0.962478h 0.181345v
 -1.99637h 0.181345v 0.201199h 0.181345v -0.215468h 0.181345v -3.10884h 0.181345v -1.76262h 0.181345v -3.23447h 0.181345v -2.82993h 0.181345v -3.25549h 0.181345v -3.07839h 0.181345v -3.00318h 0.181345v -2.65847h 0.181345v -2.46094h 0.181345v
 -1.80284h 0.181345v -1.29106h 0.181345v -0.471522h 0.181345v -0.332423h 0.181345v 1.08392h 0.181345v 0.933391h 0.181345v 2.36421h 0.181345v 2.48969h 0.181345v 2.6699h 0.181345v 3.87027h 0.181345v 3.95855h 0.181345v 4.08368h 0.181345v 3.3842h
 0.181345v 4.45235h 0.181345v 3.33796h 0.181345v 2.91375h 0.181345v 1.18857h 0.181345v 3.15354h 0.181345v 0.979553h 0.181345v 0.40401h 0.181345v 0.318294h 0.181345v 0.129218h 0.181345v -1.30466h 0.181345v 1.8665h 0.181345v -0.529364h 0.181345v
 0.596857h 0.181345v -0.433413h 0.181345v 0.0989213h 0.181345v 0.504555h 0.181345v -0.136203h 0.181345v -1.42244h 0.181345v 2.22291h 0.181345v -1.0025h 0.181345v 0.684208h 0.181345v 0.21145h 0.181345v -0.962406h 0.181345v 2.1814h 0.181345v -0.640228h
 0.181345v 0.335564h 0.36269v -0.335564h 0.181345v -0.825172h 0.181345v 1.3123h 0.181345v -0.63391h 0.181345v 0.90286h 0.181345v -0.344922h 0.181345v -1.64961h 0.181345v 2.22893h 0.181345v -0.503348h 0.181345v 0.0381297h 0.181345v -0.114102h
 0.181345v 1.47128h 0.181345v 0.509658h 0.181345v -0.171802h 0.181345v -0.951678h 0.181345v 1.69572h 0.181345v 0.31734h 0.181345v -0.802936h 0.181345v 0.218794h 0.181345v 1.82483h 0.181345v -0.822645h 0.181345v -1.98342h 0.181345v 1.56537h 0.181345v
 -0.540001h 0.181345v 1.00522h 0.181345v -0.187809h 0.181345v -0.0930367h 0.181345v -0.635703h 0.181345v 0.822352h 0.181345v 0.2366h 0.181345v 0.288896h 0.181345v -0.241128h 0.181345v 2.21138h 0.181345v -2.86677h 0.181345v 0.138069h 0.181345v 1.5058h
 0.181345v 0.840128h 0.181345v -2.01878h 0.181345v 1.38435h 0.181345v -0.458942h 0.36269v 0.878925h 0.181345v -0.574517h 0.36269v 0.363067h 0.181345v -1.78069h 0.181345v 1.06307h 0.181345v 0.56095h 0.181345v 1.41498h 0.181345v -2.07573h 0.181345v
 1.35169h 0.181345v 0.329869h 0.181345v -1.12436h 0.181345v 1.06888h 0.181345v -2.63595h 0.181345v 2.74711h 0.181345v 0.338486h 0.181345v -2.75641h 0.181345v 3.21985h 0.181345v -1.87842h 0.181345v 1.18849h 0.181345v -1.64898h 0.181345v 0.460495h
 0.181345v 1.24479h 0.181345v -0.444691h 0.181345v -0.32514h 0.181345v -0.935458h 0.181345v 0.202935h 0.181345v 0.361825h 0.181345v 0.157759h 0.181345v 0.106095h 0.181345v -1.17732h 0.181345v -1.67637h 0.181345v 1.38375h 0.181345v -3.05138h 0.181345v
 -0.157076h 0.181345v -0.347565h 0.181345v -1.17484h 0.181345v -0.452368h 0.181345v -0.439225h 0.181345v 0.997937h 0.181345v -0.0709786h 0.181345v 1.02537h 0.181345v 0.26759h 0.181345v -0.604817h 0.181345v 3.76775h 0.181345v -0.742157h 0.181345v
 0.32022h 0.181345v 0.855988h 0.181345v 0.803826h 0.181345v 0.0516869h 0.181345v 2.90208h 0.181345v -1.60543h 0.181345v 2.84694h 0.181345v -4.09174h 0.181345v 0.910055h 0.181345v 0.222334h 0.181345v 3.65617h 0.181345v -1.74896h 0.181345v -0.804032h
 0.181345v 1.06028h 0.181345v 0.195079h 0.181345v 0.0655898h 0.181345v -0.580309h 0.181345v 1.45993h 0.181345v -1.01052h 0.181345v 0.130896h 0.181345v -2.19847h 0.181345v 1.68156h 0.181345v -0.251979h 0.181345v 1.30412h 0.181345v -0.269979h 0.181345v
 -0.133203h 0.181345v -0.900938h 0.181345v -0.491699h 0.181345v 0.999929h 0.181345v 0.864145h 0.181345v 0.486612h 0.181345v -1.35076h 0.181345v 0.195079h 0.181345v -0.765653h 0.181345v 1.57216h 0.181345v 1.37206h 0.181345v -1.37206h 0.181345v
 -1.00159h 0.181345v 1.85355h 0.181345v -2.1098h 0.181345v -0.438246h 0.181345v 0.186266h 0.181345v -1.14269h 0.181345v -0.343615h 0.181345v 0.934253h 0.181345v -1.59891h 0.181345v -1.69011h 0.181345v 3.34937h 0.181345v 0.182518h 0.181345v -2.8378h
 0.181345v 2.89914h 0.181345v -2.22479h 0.181345v 0.76152h 0.181345v -0.814474h 0.181345v 0.870365h 0.181345v 0.397129h 0.181345v 1.70186h 0.181345v -2.64881h 0.181345v 1.9572h 0.181345v 0.123416h 0.181345v -0.960222h 0.181345v 2.25318h 0.181345v
 -0.724769h 0.181345v 1.13525h 0.181345v 0.279979h 0.181345v 1.25139h 0.181345v -1.94184h 0.181345v 1.48826h 0.181345v -0.367863h 0.181345v -1.32153h 0.181345v 1.83908h 0.181345v -0.876675h 0.181345v 1.10402h 0.181345v -1.38531h 0.181345v 0.352427h
 0.181345v -0.62857h 0.181345v 2.7701h 0.181345v -2.97395h 0.181345v 0.47999h 0.181345v 0.49573h 0.181345v -0.49573h 0.181345v 0.0698311h 0.181345v 0.864145h 0.181345v 2.75641h 0.181345v -2.68212h 0.181345v -0.938437h 0.181345v 1.46896h 0.181345v
 -3.91899h 0.181345v 2.80411h 0.181345v 1.66471h 0.181345v -2.01878h 0.181345v -1.52976h 0.181345v 2.61788h 0.181345v -0.371478h 0.181345v 0.829647h 0.181345v -1.89227h 0.181345v 1.35907h 0.181345v -2.85588h 0.181345v 1.56537h 0.181345v 1.66943h
 0.181345v -1.39202h 0.181345v 0.21145h 0.181345v 0.578766h 0.181345v -0.578766h 0.181345v -0.281281h 0.181345v -0.47999h 0.181345v 2.09612h 0.181345v -1.33484h 0.181345v -0.761271h 0.181345v 1.04788h 0.181345v -2.02782h 0.181345v 2.84523h 0.181345v
 0.386681h 0.181345v -0.386681h 0.181345v -0.67204h 0.181345v -0.643434h 0.181345v -0.549821h 0.181345v 0.97572h 0.181345v -0.143304h 0.181345v -0.352427h 0.181345v 1.46185h 0.181345v -0.89396h 0.36269v -0.0721644h 0.181345v 0.217535h 0.181345v
 -0.14537h 0.181345v 1.52072h 0.181345v -2.90236h 0.181345v 1.23765h 0.181345v 0.584359h 0.181345v -0.367863h 0.181345v -2.16346h 0.181345v 1.45354h 0.181345v -2.07071h 0.181345v -0.120466h 0.181345v 1.44694h 0.181345v -0.196772h 0.181345v 0.666117h
 0.181345v 0.0682548h 0.181345v 1.13619h 0.181345v -1.06763h 0.181345v 1.74637h 0.181345v -0.898388h 0.181345v 0.7449h 0.181345v -1.93264h 0.181345v 0.617164h 0.181345v 0.0701552h 0.181345v 0.355744h 0.181345v 1.83478h 0.181345v -0.558527h 0.181345v
 -1.27626h 0.181345v 2.16346h 0.181345v -0.808664h 0.181345v 0.23809h 0.181345v -0.62676h 0.181345v -1.80625h 0.181345v 2.83836h 0.181345v -1.63391h 0.181345v 0.449095h 0.181345v -0.449095h 0.181345v 0.297909h 0.181345v 0.535899h 0.181345v 0.0781315h
 0.181345v -0.985509h 0.181345v 2.72709h 0.181345v -0.518396h 0.181345v 0.0851744h 0.181345v -0.169872h 0.181345v -1.82754h 0.181345v 1.91224h 0.181345v 0.256976h 0.181345v 1.54497h 0.181345v -2.54766h 0.181345v -0.0806317h 0.181345v 0.161696h
 0.181345v 3.0519h 0.181345v -1.33204h 0.181345v 0.462373h 0.181345v 1.68708h 0.181345v -0.717619h 0.181345v -1.79181h 0.181345v 0.916548h 0.181345v 0.775473h 0.181345v -0.295483h 0.181345v -1.66101h 0.181345v 1.2758h 0.181345v 0.581549h 0.181345v
 -1.04965h 0.181345v 1.14879h 0.181345v 1.35169h 0.181345v -2.50047h 0.181345v 1.34903h 0.36269v -0.49573h 0.181345v 2.20102h 0.181345v -2.49084h 0.181345v 0.289819h 0.181345v 0.801163h 0.181345v -1.09098h 0.181345v 1.61416h 0.181345v -1.51817h
 0.181345v 0.291683h 0.181345v 2.67808h 0.181345v -2.17908h 0.181345v -1.45016h 0.181345v 1.65447h 0.181345v 1.17588h 0.181345v -2.55122h 0.181345v 2.44047h 0.181345v -1.96351h 0.181345v 2.41149h 0.36269v 0.344922h 0.181345v -1.01202h 0.181345v
 1.84882h 0.181345v -2.48773h 0.181345v 0.858013h 0.181345v -0.327487h 0.181345v 0.662226h 0.181345v -1.60416h 0.181345v -0.400511h 0.181345v 1.55998h 0.181345v 1.49582h 0.181345v -2.65529h 0.181345v 1.38018h 0.181345v 0.682149h 0.181345v 1.59288h
 0.181345v -3.2438h 0.181345v 1.306h 0.181345v -1.40991h 0.36269v 0.742808h 0.181345v 3.2652h 0.181345v -6.39758h 0.181345v 4.02855h 0.181345v -1.21899h 0.181345v 1.33484h 0.181345v -1.33484h 0.181345v 2.17165h 0.181345v -3.10072h 0.181345v 1.91899h
 0.181345v 3.00858h 0.181345v -1.82686h 0.181345v -0.243851h 0.181345v -0.937877h 0.181345v 2.19847h 0.181345v -1.01675h 0.36269v 0.499828h 0.181345v -0.376411h 0.181345v -0.607247h 0.36269v -0.583795h 0.181345v -2.03309h 0.181345v 0.405888h
 0.181345v 0.523181h 0.181345v -0.316076h 0.181345v -0.103907h 0.181345v 4.1436h 0.181345v -4.03969h 0.181345v 1.08035h 0.181345v 0.687319h 0.181345v -0.347565h 0.181345v 0.945209h 0.181345v -1.05931h 0.181345v -0.775473h 0.181345v 2.33051h 0.181345v
 -3.77145h 0.181345v -0.85869h 0.181345v 6.08368h 0.181345v -2.66366h 0.181345v -1.96052h 0.181345v 1.16762h 0.181345v -2.34627h 0.181345v 2.23632h 0.181345v -3.41733h 0.181345v 2.7739h 0.181345v -1.68708h 0.181345v -2.66222h 0.181345v 2.29119h
 0.181345v -2.0531h 0.181345v -0.394759h 0.181345v -0.685587h 0.181345v -0.440373h 0.181345v -0.706597h 0.181345v 1.29666h 0.181345v 0.535899h 0.181345v -0.833808h 0.181345v -1.73967h 0.181345v 0.740917h 0.181345v 0.851967h 0.181345v 1.37535h
 0.181345v -2.90236h 0.181345v 1.16617h 0.181345v -1.03355h 0.181345v 1.68939h 0.181345v 0.763719h 0.181345v 1.30835h 0.181345v -1.15087h 0.181345v -1.99898h 0.181345v 1.76337h 0.36269v -0.535899h 0.181345v 0.303898h 0.181345v -0.966124h 0.181345v
 4.11121h 0.181345v -1.86445h 0.181345v -1.88244h 0.181345v -0.0735691h 0.181345v -0.994057h 0.181345v 3.03382h 0.181345v -2.61578h 0.181345v -2.16817h 0.181345v -0.541075h 0.181345v -0.522377h 0.181345v 0.700592h 0.181345v -3.40939h 0.181345v
 -0.189575h 0.181345v -0.187227h 0.181345v -3.80464h 0.181345v 0.0362118h 0.181345v -2.12716h 0.181345v -1.64006h 0.181345v 1.05316h 0.181345v -2.68555h 0.181345v -1.9934h 0.181345v 0.31451h 0.181345v -2.27203h 0.181345v -0.687319h 0.181345v
 -0.20393h 0.181345v 0.58191h 0.181345v -0.152328h 0.181345v -0.484726h 0.181345v 0.637053h 0.181345v -0.0763558h 0.181345v 0.56252h 0.181345v 1.128h 0.181345v -0.295209h 0.181345v 1.10434h 0.181345v 1.26451h 0.181345v 1.67725h 0.181345v 1.58076h
 0.181345v 1.36237h 0.181345v 2.24785h 0.181345v 0.389671h 0.181345v 1.53597h 0.181345v 2.30868h 0.181345v 3.6044h 0.181345v -0.128668h 0.181345v 1.76469h 0.181345v 2.84305h 0.181345v -0.844824h 0.181345v -0.0819428h 0.181345v 1.54755h 0.181345v
 0.274057h 0.181345v 3.05432h 0.181345v -1.08813h 0.181345v 3.39985h 0.181345v -0.130896h 0.181345v -1.1297h 0.181345v -2.03389h 0.181345v 0.648031h 0.181345v 1.5073h 0.181345v -2.15533h 0.181345v 3.82971h 0.181345v -1.30412h 0.181345v -1.08465h
 0.181345v 3.0856h 0.181345v -1.23205h 0.181345v -0.516919h 0.181345v 1.89227h 0.181345v -2.14425h 0.181345v 3.18731h 0.181345v -3.31174h 0.181345v 0.376411h 0.181345v 2.03694h 0.181345v -1.78069h 0.181345v 2.22321h 0.181345v -0.7305h 0.181345v
 0.143304h 0.181345v -2.3921h 0.181345v 2.97929h 0.181345v -1.29051h 0.181345v 1.44094h 0.181345v -2.37365h 0.181345v 0.660298h 0.181345v 4.71361h 0.181345v -5.63016h 0.181345v -0.251979h 0.181345v -0.491699h 0.181345v 1.52584h 0.181345v -2.46372h
 0.181345v -0.557938h 0.181345v 2.62552h 0.181345v 2.54931h 0.181345v -1.32832h 0.181345v 0.429936h 0.181345v 2.87316h 0.181345v -2.87316h 0.181345v -1.1204h 0.181345v 2.48882h 0.181345v -1.22236h 0.181345v -0.994057h 0.181345v 3.72114h 0.181345v
 -2.43064h 0.181345v 2.78638h 0.181345v -2.01878h 0.181345v -1.06405h 0.181345v -0.434051h 0.181345v 0.143304h 0.181345v 2.49944h 0.181345v -2.49944h 0.36269v 4.30138h 0.181345v -1.97086h 0.181345v -1.44094h 0.181345v 1.27388h 0.181345v -0.328674h
 0.181345v -2.26068h 0.181345v 4.3493h 0.181345v -3.48515h 0.181345v 1.23484h 0.181345v -0.159985h 0.181345v -0.314978h 0.181345v 0.474963h 0.181345v -0.318294h 0.181345v 1.66304h 0.181345v -0.854375h 0.181345v 0.854375h 0.181345v -1.34475h 0.181345v
 -4.1876h 0.181345v 3.55758h 0.181345v 1.1204h 0.181345v -0.16523h 0.181345v -1.85355h 0.181345v 1.36843h 0.181345v -3.01935h 0.181345v 2.39582h 0.181345v 0.623528h 0.181345v 1.32995h 0.181345v -1.16996h 0.181345v 0.826349h 0.181345v 1.0552h
 0.181345v -0.88437h 0.181345v -1.62721h 0.181345v -0.752315h 0.36269v 0.907377h 0.181345v -2.17385h 0.181345v 0.690459h 0.181345v -2.70924h 0.181345v 0.23809h 0.181345v -1.15464h 0.181345v -1.58176h 0.181345v 0.100455h 0.181345v -1.53229h 0.181345v
 -1.88155h 0.181345v -1.52841h 0.181345v -0.287979h 0.181345v -2.37121h 0.181345v -1.67193h 0.181345v -0.745425h 0.181345v -1.67061h 0.181345v -3.13918h 0.181345v -1.37206h 0.181345v -0.969247h 0.181345v -0.602913h 0.181345v -1.42396h 0.181345v
 -1.17087h 0.181345v 0.184534h 0.181345v -2.66774h 0.181345v 0.178918h 0.181345v 0.295335h 0.181345v -0.49647h 0.181345v -0.459163h 0.181345v -1.1204h 0.181345v 0.343845h 0.181345v 1.01532h 0.181345v 0.220389h 0.181345v 1.41875h 0.181345v -0.784005h
 0.181345v 1.30495h 0.181345v 2.25498h 0.181345v -0.490058h 0.181345v 2.03094h 0.181345v 1.53532h 0.181345v 2.241h 0.181345v -0.370265h 0.181345v 2.85427h 0.181345v 2.44548h 0.181345v 0.830239h 0.181345v 3.32792h 0.181345v 1.5171h 0.181345v 0.599676h
 0.181345v 3.1998h 0.181345v 1.9572h 0.181345v 0.373313h 0.181345v 6.12999h 0.181345v 0.382765h 0.181345v 0.592955h 0.181345v -1.34903h 0.181345v 6.03808h 0.181345v -0.540001h 0.181345v 0.817411h 0.181345v 0.282595h 0.181345v -2.37121h 0.181345v
 4.1876h 0.181345v -2.64881h 0.181345v -1.78069h 0.181345v 2.90109h 0.181345v 3.96653h 0.181345v -3.96653h 0.181345v -2.16346h 0.181345v 5.75668h 0.181345v -4.9812h 0.181345v 3.24154h 0.181345v 7.50534h 0.181345v -6.8333h 0.181345v 1.44094h 0.181345v
 -4.25451h 0.181345v 2.81357h 0.181345v 1.44094h 0.181345v 2.45703h 0.181345v -5.21344h 0.181345v 3.93507h 0.181345v -7.30864h 0.181345v 5.03662h 0.181345v -0.687319h 0.181345v 1.78069h 0.181345v -3.96653h 0.181345v -1.90936h 0.181345v -2.36708h
 0.181345v 1.61725h 0.181345v 5.53235h 0.181345v -6.92888h 0.181345v 5.26584h 0.181345v -1.21012h 0.181345v -3.13918h 0.181345v 4.03757h 0.181345v -1.46896h 0.181345v 4.53711h 0.181345v -2.43812h 0.181345v -1.81639h 0.181345v 3.16114h 0.181345v
 -1.66304h 0.181345v 5.66477h 0.181345v -9.77598h 0.181345v 5.08693h 0.181345v -2.75641h 0.36269v 1.16353h 0.181345v -0.880934h 0.181345v -1.87548h 0.181345v 2.75641h 0.181345v -5.08693h 0.181345v 4.20599h 0.181345v -1.62138h 0.181345v -0.254097h
 0.181345v 3.37358h 0.181345v -3.11948h 0.181345v 1.33879h 0.181345v -1.33879h 0.181345v 1.62138h 0.36269v -1.87548h 0.181345v 2.16346h 0.181345v -2.16346h 0.181345v 2.16346h 0.181345v 1.21012h 0.181345v -3.62347h 0.181345v 3.94177h 0.181345v
 -2.09899h 0.181345v 0.864145h 0.181345v 0.916548h 0.181345v -2.0581h 0.181345v 1.44094h 0.181345v 4.55223h 0.181345v -6.26558h 0.181345v 0.549821h 0.181345v 1.78069h 0.181345v 0.643434h 0.181345v -0.643434h 0.181345v 2.01878h 0.181345v -5.13826h
 0.181345v 3.43777h 0.181345v 1.34475h 0.181345v -3.72114h 0.181345v -0.802936h 0.181345v 1.65092h 0.181345v 2.52559h 0.181345v -2.23202h 0.181345v -1.94449h 0.181345v 6.39293h 0.181345v -4.742h 0.181345v 0.898388h 0.36269v 0.955165h 0.181345v
 0.67204h 0.181345v -3.09617h 0.181345v 0.282595h 0.181345v -1.10001h 0.181345v 7.3733h 0.181345v -3.45972h 0.181345v -2.23202h 0.181345v -1.68156h 0.181345v 3.57382h 0.181345v -0.332286h 0.181345v -1.85355h 0.36269v 2.87316h 0.181345v -2.57959h
 0.181345v 4.44843h 0.181345v -6.12999h 0.181345v 4.61689h 0.181345v -0.355744h 0.181345v -5.03662h 0.181345v 2.16346h 0.181345v 2.18584h 0.181345v 0.339754h 0.181345v -3.64599h 0.181345v 5.08693h 0.181345v -3.67296h 0.181345v 2.93533h 0.181345v
 0.364317h 0.181345v -3.29965h 0.181345v 2.57959h 0.181345v 1.47614h 0.181345v -6.00022h 0.181345v 3.17933h 0.181345v -1.52841h 0.181345v 1.85355h 0.181345v 2.11298h 0.181345v -1.09337h 0.181345v 2.68626h 0.181345v -0.817411h 0.181345v -0.392708h
 0.181345v -4.91987h 0.181345v 2.09899h 0.181345v 2.43812h 0.181345v 2.01878h 0.181345v -4.4569h 0.181345v 3.61677h 0.181345v 5.3341h 0.181345v -8.95087h 0.181345v 6.29169h 0.181345v -5.63426h 0.181345v -0.332286h 0.181345v 1.01961h 0.181345v
 -1.01961h 0.181345v 1.01961h 0.181345v 0.720061h 0.181345v 4.72261h 0.181345v -4.3493h 0.181345v 5.94218h 0.181345v -4.3493h 0.36269v 0.425899h 0.181345v 1.35479h 0.181345v -3.74689h 0.181345v 1.14879h 0.181345v 5.73728h 0.181345v -4.05573h
 0.181345v 1.89227h 0.181345v -3.17064h 0.181345v 3.17064h 0.181345v -0.49573h 0.181345v 1.00827h 0.181345v -2.40481h 0.181345v 0.916548h 0.181345v 1.48826h 0.181345v -1.00827h 0.181345v -3.07809h 0.181345v 11.2967h 0.181345v -9.61514h 0.181345v
 2.93533h 0.181345v -7.83048h 0.181345v 4.031h 0.181345v 7.44546h 0.181345v -7.01956h 0.181345v 0.438246h 0.36269v -1.27837h 0.181345v 0.840128h 0.181345v 3.9234h 0.181345v 7.91068h 0.181345v -6.74715h 0.181345v -2.24388h 0.181345v 4.87982h 0.181345v
 -2.01878h 0.181345v -3.86931h 0.181345v 9.9993h 0.181345v -4.11121h 0.181345v -6.8333h 0.181345v 0.465219h 0.181345v 4.99273h 0.181345v -4.51274h 0.181345v 8.2186h 0.181345v -1.59288h 0.181345v 0.775473h 0.181345v 1.68156h 0.181345v -3.89797h
 0.36269v 4.81452h 0.181345v -0.916548h 0.181345v -3.89797h 0.181345v 3.03382h 0.181345v 2.75641h 0.181345v -7.10571h 0.181345v 7.10571h 0.181345v 3.37358h 0.181345v -7.72287h 0.181345v 3.37358h 0.181345v -2.5981h 0.181345v 6.9474h 0.181345v
 -3.37358h 0.181345v 3.37358h 0.181345v 1.31547h 0.181345v -8.26287h 0.181345v -2.21641h 0.181345v 0.703309h 0.181345v 3.19466h 0.181345v -0.864145h 0.181345v 7.44546h 0.181345v -10.4793h 0.181345v 6.8333h 0.181345v -3.79948h 0.181345v 10.4793h
 0.181345v -4.3493h 0.181345v -2.33051h 0.181345v -2.01878h 0.181345v 0.97572h 0.181345v -0.97572h 0.181345v 7.10571h 0.181345v -7.10571h 0.181345v -0.916548h 0.181345v 0.916548h 0.181345v -2.5981h 0.181345v -0.775473h 0.181345v 5.39236h 0.181345v
 3.64599h 0.181345v -1.31547h 0.181345v -1.21012h 0.181345v -7.95369h 0.181345v 3.89797h 0.181345v 0.916548h 0.181345v 5.66477h 0.181345v -7.44546h 0.181345v 0.864145h 0.181345v -3.89797h 0.181345v 13.5131h 0.181345v -6.67981h 0.181345v -6.12999h
 0.36269v 1.5131h 0.181345v -4.14905h 0.36269v -4.64868h 0.181345v 3.48515h 0.181345v 1.78069h 0.181345v -8.4605h 0.181345v 3.19466h 0.181345v 2.40481h 0.36269v 2.24388h 0.181345v -4.19735h 0.181345v 0.465219h 0.181345v -2.19492h 0.181345v -3.61677h
 0.181345v 4.89515h 0.181345v -2.07426h 0.181345v -1.8237h 0.181345v 0.347565h 0.36269v 3.5504h 0.36269v -0.864145h 0.181345v 0.425899h 0.181345v -4.4569h 0.181345v 4.89515h 0.181345v 4.64868h 0.181345v -2.75641h 0.181345v -2.33051h 0.181345v
 4.49397h 0.181345v -4.05573h 0.181345v 2.40481h 0.181345v 4.87982h 0.181345v 3.19466h 0.181345v -3.89797h 0.181345v -3.09617h 0.181345v 3.79948h 0.181345v -2.63595h 0.181345v 4.96646h 0.181345v -4.3493h 0.181345v 2.01878h 0.181345v -0.703309h
 0.181345v 1.44094h 0.181345v -3.96653h 0.181345v 2.52559h 0.36269v -3.64599h 0.181345v 2.33051h 0.181345v -2.33051h 0.181345v -3.79948h 0.181345v -1.9662h 0.181345v 2.3921h 0.181345v -2.75641h 0.181345v 1.5131h 0.181345v -5.58999h 0.181345v
 -0.802936h 0.181345v 1.94449h 0.181345v -5.42197h 0.181345v 0.419983h 0.181345v -3.24527h 0.181345v -1.47214h 0.181345v 1.13239h 0.181345v 0.168923h 0.181345v -1.91224h 0.181345v -2.47947h 0.181345v -0.251979h 0.181345v 0.251979h 0.181345v -2.45703h
 0.181345v -1.14352h 0.181345v 0.405888h 0.181345v -0.703309h 0.181345v -1.846h 0.36269v 0.802936h 0.181345v -2.90836h 0.181345v 2.36836h 0.181345v -1.5131h 0.181345v -0.159143h 0.181345v -2.27387h 0.181345v 1.50235h 0.181345v -0.0750295h 0.181345v
 -0.659018h 0.181345v -1.17149h 0.181345v 1.17149h 0.181345v -2.13477h 0.181345v -0.123922h 0.181345v 1.76527h 0.181345v -1.13525h 0.181345v 1.13525h 0.36269v -1.39042h 0.181345v 0.190972h 0.181345v -0.871261h 0.181345v -1.82095h 0.181345v 2.43812h
 0.181345v -1.15186h 0.181345v 0.534695h 0.181345v 1.45909h 0.181345v -2.90003h 0.181345v 0.847984h 0.181345v 0.714389h 0.181345v -1.56237h 0.181345v 2.57064h 0.181345v -0.5754h 0.181345v 0.838336h 0.181345v 0.678069h 0.181345v -1.00603h 0.181345v
 1.49945h 0.181345v 1.98811h 0.181345v 0.164332h 0.181345v -0.960222h 0.181345v 2.52559h 0.181345v 1.34048h 0.181345v 1.03591h 0.181345v 2.43812h 0.181345v 1.45354h 0.181345v 1.76337h 0.181345v 0.314978h 0.181345v 1.68156h 0.181345v 0.543235h
 0.181345v 4.97671h 0.181345v -1.22982h 0.181345v 0.97572h 0.181345v 5.39236h 0.181345v 2.75641h 0.181345v 2.33051h 0.36269v 1.59288h 0.181345v -3.9234h 0.181345v 9.23598h 0.181345v -5.8624h 0.181345v 9.43622h 0.181345v 4.68905h 0.181345v -3.64599h
 0.181345v -2.01878h 0.181345v 7.10571h 0.36269v -6.12999h 0.181345v 6.12999h 0.181345v 3.37358h 0.181345v 20.9586h 0.181345v -18.9398h 0.181345v -5.39236h 0.181345v 5.39236h 0.181345v 2.33051h 0.181345v 10.4793h 0.181345v 16.6093h 0.181345v
 -29.4191h 0.181345v 8.4605h 0.36269v -3.37358h 0.181345v 7.72287h 0.181345v -14.8286h 0.181345v 20.9586h 0.181345v -13.8529h 0.36269v -5.08693h 0.181345v 5.08693h 0.181345v 13.8529h 0.181345v -6.12999h 0.544034v 6.12999h 0.181345v -16.6093h
 0.181345v 10.4793h 0.181345v 16.6093h 0.181345v -16.6093h 0.181345v -7.72287h 0.181345v 7.72287h 0.181345v -7.72287h 0.181345v 3.37358h 0.181345v 10.4793h 0.181345v 10.4793h 0.181345v -24.3321h 0.36269v 13.8529h 0.181345v -10.4793h 0.181345v
 10.4793h 0.181345v -18.9398h 0.181345v 12.8098h 0.36269v -4.3493h 0.36269v -3.37358h 0.181345v 7.72287h 0.181345v -16.6093h 0.181345v 22.7393h 0.181345v -13.8529h 0.181345v 24.3321h 0.181345v -10.4793h 0.181345v -10.4793h 0.544034v -3.37358h
 0.181345v 3.37358h 0.181345v 20.9586h 0.181345v -16.6093h 0.181345v -4.3493h 0.181345v -6.12999h 0.181345v 6.12999h 0.36269v 10.4793h 0.181345v -16.6093h 0.181345v -4.3493h 0.181345v 20.9586h 0.181345v -18.9398h 0.181345v 12.8098h 0.181345v
 -10.4793h 0.181345v 6.12999h 0.181345v -3.37358h 0.181345v -5.08693h 0.181345v 2.33051h 0.181345v -2.33051h 0.181345v 5.08693h 0.181345v -2.75641h 0.36269v -4.3493h 0.36269v -3.37358h 0.181345v -8.8864h 0.181345v 10.4793h 0.181345v -3.03382h
 0.36269v 4.81452h 0.181345v -12.26h 0.181345v 7.44546h 0.181345v -2.52559h 0.181345v -7.25038h 0.36269v 9.77598h 0.181345v -2.52559h 0.181345v -9.88633h 0.181345v 5.83061h 0.181345v 1.89227h 0.181345v -5.79024h 0.181345v 10.4793h 0.181345v -3.64599h
 0.181345v -6.12999h 0.181345v 2.33051h 0.181345v 3.79948h 0.36269v -8.76594h 0.181345v 3.37358h 0.181345v -1.44094h 0.181345v 3.03382h 0.181345v 1.78069h 0.181345v 0.97572h 0.181345v -0.97572h 0.181345v 3.13918h 0.181345v 1.21012h 0.181345v -4.3493h
 0.181345v 0.97572h 0.181345v 2.16346h 0.181345v 17.8194h 0.181345v -12.26h 0.181345v 3.79948h 0.181345v 5.08693h 0.181345v -8.8864h 0.181345v -3.03382h 0.181345v 6.8333h 0.181345v -5.39236h 0.181345v 5.39236h 0.181345v 2.33051h 0.36269v 2.75641h
 0.36269v 24.3321h 0.181345v -24.3321h 0.181345v 24.3321h 0.181345v -24.3321h 0.181345v 3.37358h 0.181345v 4.3493h 0.181345v -4.3493h 0.36269v 4.3493h 0.181345v 27.0886h 0.181345v -31.4379h 0.181345v -10.4793h 0.181345v 20.9586h 0.181345v -6.12999h
 0.181345v 6.12999h 0.181345v -6.12999h 0.181345v -12.8098h 0.181345v 8.4605h 0.181345v 10.4793h 0.181345v 20.9586h 0.181345v -10.4793h 0.181345v 10.4793h 0.181345v -27.0886h 0.36269v -7.72287h 0.181345v 7.72287h 0.181345v -7.72287h 0.181345v
 13.8529h 0.181345v -10.4793h 0.181345v 4.3493h 0.181345v -10.4793h 0.181345v 6.12999h 0.181345v 10.4793h 0.181345v -13.8529h 0.181345v 3.37358h 0.181345v 31.4379h 0.181345v -27.0886h 0.181345v -7.72287h 0.181345v 24.3321h 0.181345v -16.6093h
 0.181345v 6.12999h 0.181345v -6.12999h 0.181345v 6.12999h 0.181345v -13.8529h 0.181345v 13.8529h 0.36269v 10.4793h 0.181345v -16.6093h 0.181345v -4.3493h 0.181345v -6.12999h 0.544034v 2.75641h 0.181345v 3.37358h 0.181345v -3.37358h 0.181345v
 -5.08693h 0.181345v 29.4191h 0.181345v -31.4379h 0.181345v 14.8286h 0.181345v -10.4793h 0.181345v 2.75641h 0.181345v 7.72287h 0.181345v -4.3493h 0.725379v -3.37358h 0.181345v -7.10571h 0.181345v -1.78069h 0.181345v 16.6093h 0.181345v -10.4793h
 0.181345v 2.75641h 0.181345v -11.9202h 0.181345v 6.8333h 0.181345v 12.8098h 0.181345v -16.6093h 0.181345v 8.8864h 0.181345v -8.8864h 0.181345v 3.79948h 0.181345v -2.01878h 0.544034v -1.78069h 0.181345v 3.79948h 0.36269v -12.4981h 0.181345v 7.10571h
 0.36269v 10.4793h 0.181345v -7.10571h 0.36269v 7.10571h 0.36269v -2.75641h 0.181345v 6.12999h 0.181345v -6.12999h 0.181345v 2.75641h 0.181345v -2.75641h 0.181345v 16.6093h 0.181345v -25.7731h 0.181345v 9.16381h 0.181345v 2.75641h 0.181345v -7.10571h
 0.181345v 2.01878h 0.181345v 12.8098h 0.181345v -16.6093h 0.181345v 33.2186h 0.181345v -24.3321h 0.181345v 24.3321h 0.181345v -10.4793h 0.181345v -16.6093h 0.181345v 2.75641h 0.544034v 24.3321h 0.181345v -10.4793h 0.181345v -10.4793h 0.181345v
 4.3493h 0.181345v 16.6093h 0.181345v -27.0886h 0.181345v -2.33051h 0.181345v 2.33051h 0.181345v 2.75641h 0.181345v -2.75641h 0.181345v 6.12999h 0.36269v -3.37358h 0.181345v -8.8864h 0.181345v 3.79948h 0.181345v -2.01878h 0.181345v 4.3493h 0.181345v
 -2.33051h 0.544034v 8.4605h 0.181345v -6.12999h 0.181345v 6.12999h 0.181345v -3.37358h 0.181345v 7.72287h 0.181345v -4.3493h 0.181345v -3.37358h 0.181345v -10.4793h 0.181345v 1.59288h 0.181345v 8.8864h 0.181345v -8.8864h 0.181345v 8.8864h 0.181345v
 7.72287h 0.181345v -4.3493h 0.181345v -10.4793h 0.181345v 20.9586h 0.181345v -13.8529h 0.181345v -5.08693h 0.181345v -2.01878h 0.181345v 2.01878h 0.181345v -2.01878h 0.181345v 7.10571h 0.36269v -2.75641h 0.181345v -4.3493h 0.181345v 2.01878h
 0.181345v 12.8098h 0.181345v -12.8098h 0.181345v -3.79948h 0.181345v 16.6093h 0.181345v -16.6093h 0.181345v 1.78069h 0.181345v 4.3493h 0.181345v 2.75641h 0.181345v -7.10571h 0.181345v 2.01878h 0.181345v -2.01878h 0.181345v 7.10571h 0.181345v
 -5.08693h 0.181345v -2.01878h 0.181345v 7.10571h 0.181345v -5.08693h 0.181345v -2.01878h 0.36269v 14.8286h 0.181345v -14.8286h 0.181345v 4.3493h 0.181345v 2.75641h 0.181345v -2.75641h 0.181345v -18.2022h 0.181345v 13.8529h 0.181345v 4.3493h
 0.181345v -9.16381h 0.181345v -3.64599h 0.181345v 10.4793h 0.36269v 2.33051h 0.181345v -2.33051h 0.181345v -6.8333h 0.36269v -3.64599h 0.181345v 12.8098h 0.181345v -6.12999h 0.36269v -3.03382h 0.181345v 4.81452h 0.181345v -4.81452h 0.36269v
 -1.31547h 0.181345v 2.75641h 0.181345v 10.4793h 0.181345v -11.9202h 0.181345v -4.68905h 0.181345v 9.50357h 0.181345v -1.78069h 0.181345v -5.55942h 0.181345v -1.1204h 0.181345v 3.64599h 0.181345v -8.26287h 0.181345v 20.1831h 0.181345v -11.9202h
 0.181345v 1.44094h 0.36269v -7.10571h 0.181345v 0.97572h 0.181345v -5.08693h 0.181345v 7.25038h 0.181345v 3.96653h 0.181345v -10.4793h 0.181345v 1.59288h 0.181345v 6.12999h 0.181345v 6.12999h 0.181345v -3.37358h 0.181345v -2.75641h 0.181345v
 2.75641h 0.181345v 10.4793h 0.181345v -16.6093h 0.181345v 3.37358h 0.36269v 8.14877h 0.181345v -6.8333h 0.181345v 3.03382h 0.181345v -7.72287h 0.36269v -3.57382h 0.181345v 2.5981h 0.181345v 5.66477h 0.181345v -3.64599h 0.181345v -4.61689h 0.181345v
 0.817411h 0.181345v 1.78069h 0.181345v 12.4981h 0.181345v -10.4793h 0.181345v -2.93533h 0.181345v 1.89227h 0.181345v 11.5223h 0.181345v -6.8333h 0.181345v -3.64599h 0.181345v -1.04306h 0.181345v 1.04306h 0.181345v -3.79948h 0.181345v 2.75641h
 0.181345v -1.89227h 0.181345v -2.45703h 0.181345v 3.37358h 0.181345v -0.916548h 0.181345v 1.89227h 0.181345v 3.37358h 0.181345v -10.4793h 0.181345v 6.12999h 0.181345v 0.97572h 0.181345v 1.04306h 0.181345v 2.33051h 0.181345v -1.21012h 0.36269v
 -6.51275h 0.181345v -3.37358h 0.181345v 8.76594h 0.181345v -6.12999h 0.36269v 5.08693h 0.181345v 3.37358h 0.181345v -9.16381h 0.181345v 0.703309h 0.36269v 6.12999h 0.181345v -6.12999h 0.181345v -2.63595h 0.181345v 1.93264h 0.181345v -1.31547h
 0.181345v 2.75641h 0.36269v -6.12999h 0.181345v 6.90546h 0.181345v -2.88845h 0.181345v -0.643434h 0.181345v -2.33051h 0.181345v 6.67981h 0.181345v -4.96646h 0.181345v 4.14905h 0.181345v -3.53189h 0.181345v -1.78069h 0.36269v 1.16353h 0.181345v
 4.14905h 0.181345v -1.5131h 0.181345v -5.88809h 0.181345v 8.2186h 0.181345v -4.3493h 0.181345v -0.617164h 0.181345v -5.51283h 0.181345v 7.44546h 0.181345v 0.703309h 0.181345v 3.19466h 0.181345v -8.07448h 0.181345v 1.08035h 0.181345v 0.570574h
 0.181345v 4.742h 0.181345v -3.53189h 0.181345v 1.31547h 0.181345v 0.703309h 0.181345v -2.63595h 0.181345v 1.2606h 0.181345v 7.50534h 0.181345v -6.12999h 0.181345v 4.11121h 0.181345v 0.97572h 0.181345v -3.57382h 0.181345v -2.88845h 0.181345v 2.88845h
 0.181345v 5.73728h 0.181345v -4.91987h 0.181345v 0.864145h 0.181345v 13.4146h 0.181345v -19.8382h 0.181345v 9.35889h 0.181345v -7.50534h 0.181345v 15.9658h 0.181345v -7.34011h 0.181345v 17.8194h 0.181345v -16.6093h 0.36269v -2.33051h 0.181345v
 8.4605h 0.181345v -6.12999h 0.181345v -1.21012h 0.36269v -4.91987h 0.181345v 2.75641h 0.181345v -3.57382h 0.181345v 2.5981h 0.181345v -2.5981h 0.181345v 4.61689h 0.181345v -3.79948h 0.181345v -0.817411h 0.181345v -3.53189h 0.181345v 8.14877h
 0.181345v 2.33051h 0.181345v -1.21012h 0.181345v 2.52559h 0.36269v -1.31547h 0.181345v 1.31547h 0.181345v 6.8333h 0.181345v -11.5223h 0.181345v -3.57382h 0.181345v 2.5981h 0.181345v 2.01878h 0.36269v -1.04306h 0.181345v -0.97572h 0.181345v -4.81452h
 0.181345v 7.95369h 0.181345v 1.21012h 0.181345v 4.3493h 0.181345v -7.72287h 0.181345v 3.37358h 0.181345v -3.37358h 0.181345v -4.3493h 0.181345v 4.3493h 0.181345v 6.12999h 0.181345v -6.12999h 0.181345v 4.68905h 0.36269v -9.03835h 0.181345v 6.51275h
 0.181345v -2.16346h 0.181345v 1.04306h 0.181345v 2.33051h 0.181345v 4.3493h 0.181345v 1.78069h 0.181345v -10.4793h 0.181345v 0.97572h 0.181345v 6.12999h 0.181345v -1.44094h 0.181345v -5.66477h 0.181345v 7.10571h 0.181345v -8.02226h 0.181345v
 1.89227h 0.181345v 9.50357h 0.181345v -7.34011h 0.181345v 5.55942h 0.181345v -3.03382h 0.181345v 4.81452h 0.181345v -9.50357h 0.181345v 7.72287h 0.181345v 3.79948h 0.181345v -2.01878h 0.181345v -13.8529h 0.181345v 6.51275h 0.181345v 2.52559h
 0.181345v 6.8333h 0.181345v -11.5223h 0.181345v 2.16346h 0.181345v -4.05573h 0.181345v 6.58132h 0.181345v -1.31547h 0.181345v -7.72287h 0.181345v 6.51275h 0.181345v -4.91987h 0.181345v 1.78069h 0.181345v -5.48656h 0.181345v 12.5923h 0.181345v
 -11.9202h 0.181345v 6.8333h 0.181345v -2.01878h 0.181345v 0.97572h 0.181345v -2.75641h 0.181345v -5.55942h 0.181345v 5.55942h 0.181345v 10.4793h 0.181345v -8.69859h 0.181345v -3.37358h 0.181345v 5.39236h 0.181345v -2.01878h 0.181345v -2.5981h
 0.181345v 2.5981h 0.181345v -0.916548h 0.181345v 0.916548h 0.181345v 3.13918h 0.181345v -5.73728h 0.181345v -2.21641h 0.181345v 3.89797h 0.181345v 5.26584h 0.181345v -7.72287h 0.181345v -0.73763h 0.181345v 7.25038h 0.181345v -3.13918h 0.181345v
 0.97572h 0.181345v 3.37358h 0.181345v -1.21012h 0.181345v -3.13918h 0.181345v 0.97572h 0.181345v -5.79024h 0.181345v 4.81452h 0.181345v -2.5981h 0.181345v 2.5981h 0.36269v -0.916548h 0.181345v 0.916548h 0.181345v 5.66477h 0.181345v -4.68905h
 0.36269v 1.04306h 0.181345v 1.1204h 0.181345v -4.05573h 0.36269v -1.68156h 0.181345v 5.73728h 0.181345v -7.25038h 0.181345v 0.73763h 0.181345v 4.3493h 0.181345v 4.68905h 0.36269v -12.4119h 0.181345v 2.63595h 0.181345v 4.11121h 0.181345v 0.97572h
 0.181345v -4.3493h 0.181345v 10.4793h 0.181345v -5.08693h 0.181345v -5.39236h 0.181345v 1.59288h 0.181345v -6.12999h 0.181345v 5.31258h 0.181345v -1.5131h 0.181345v -0.703309h 0.181345v 4.81452h 0.181345v -4.11121h 0.181345v 3.19466h 0.181345v
 2.93533h 0.181345v -8.76594h 0.181345v 7.72287h 0.181345v -3.57382h 0.181345v -4.14905h 0.181345v 5.83061h 0.181345v -3.89797h 0.181345v 2.21641h 0.181345v 2.5981h 0.181345v -9.9993h 0.181345v 3.86931h 0.181345v 2.75641h 0.181345v 2.45703h 0.181345v
 -3.19466h 0.181345v 4.11121h 0.181345v -6.12999h 0.181345v -2.86104h 0.181345v 5.61745h 0.181345v -1.44094h 0.181345v 0.703309h 0.181345v 1.5131h 0.181345v -6.90546h 0.181345v 4.01701h 0.181345v 3.70586h 0.181345v 0.864145h 0.181345v -3.89797h
 0.181345v -3.09617h 0.181345v 3.79948h 0.181345v 5.08693h 0.36269v -8.31583h 0.181345v 5.55942h 0.181345v 0.864145h 0.181345v -1.68156h 0.181345v 5.73728h 0.181345v 7.34011h 0.181345v -13.8529h 0.181345v -2.75641h 0.181345v 1.31547h 0.181345v
 4.81452h 0.181345v -3.37358h 0.181345v 6.51275h 0.181345v -2.16346h 0.181345v 1.04306h 0.181345v -2.93533h 0.181345v -5.21344h 0.181345v 9.26917h 0.181345v 1.21012h 0.181345v -2.33051h 0.181345v -2.93533h 0.181345v 0.916548h 0.181345v 3.13918h
 0.181345v 5.55942h 0.181345v -8.69859h 0.181345v 0.97572h 0.36269v -1.89227h 0.181345v 4.05573h 0.181345v -4.91987h 0.181345v 2.75641h 0.181345v -0.97572h 0.181345v 4.3493h 0.181345v -5.26584h 0.181345v 4.05573h 0.181345v 9.35889h 0.181345v
 -10.4793h 0.181345v 5.08693h 0.181345v -10.4793h 0.181345v 4.3493h 0.181345v 16.6093h 0.181345v -13.2357h 0.181345v 13.2357h 0.181345v -21.6962h 0.181345v 5.08693h 0.181345v 1.04306h 0.181345v 8.4605h 0.181345v -7.34011h 0.181345v 2.52559h 0.181345v
 1.44094h 0.181345v -1.44094h 0.181345v -11.7948h 0.181345v 2.01878h 0.181345v 3.19466h 0.181345v 9.61514h 0.181345v -10.4793h 0.181345v 4.91987h 0.181345v -4.05573h 0.181345v 0.916548h 0.181345v 4.3493h 0.181345v 1.31547h 0.181345v -7.44546h
 0.181345v 7.44546h 0.181345v 1.44094h 0.181345v -8.02226h 0.181345v -1.68156h 0.181345v 2.5981h 0.181345v 3.13918h 0.181345v 1.21012h 0.181345v -8.4605h 0.181345v 4.11121h 0.181345v -0.916548h 0.181345v 2.93533h 0.181345v -2.01878h 0.181345v
 5.66477h 0.181345v 1.44094h 0.181345v -1.44094h 0.36269v 1.44094h 0.181345v -3.96653h 0.181345v 5.55942h 0.181345v 1.78069h 0.181345v -13.0774h 0.181345v 13.0774h 0.36269v -3.37358h 0.181345v -5.08693h 0.181345v 2.33051h 0.181345v 2.75641h 0.181345v
 7.72287h 0.181345v -11.6894h 0.181345v 11.6894h 0.181345v -4.3493h 0.544034v 2.01878h 0.181345v -9.35889h 0.181345v -1.1204h 0.181345v 8.4605h 0.181345v -1.78069h 0.181345v 3.79948h 0.181345v -2.01878h 0.181345v 4.3493h 0.181345v 10.4793h 0.181345v
 -7.72287h 0.181345v 7.72287h 0.181345v -14.8286h 0.181345v 7.10571h 0.181345v 3.37358h 0.181345v -3.37358h 0.181345v 3.37358h 0.181345v -17.8194h 0.181345v 14.4458h 0.181345v -11.9202h 0.181345v 4.81452h 0.181345v -1.78069h 0.181345v 8.8864h
 0.181345v -5.08693h 0.181345v -2.01878h 0.181345v 4.3493h 0.181345v 16.6093h 0.181345v -10.4793h 0.181345v -17.8194h 0.181345v 17.8194h 0.181345v -3.37358h 0.181345v 7.72287h 0.181345v -16.6093h 0.181345v 1.78069h 0.181345v -3.37358h 0.181345v
 5.39236h 0.181345v 5.08693h 0.181345v 3.37358h 0.181345v -13.8529h 0.181345v 5.39236h 0.181345v -6.8333h 0.181345v 6.8333h 0.181345v 2.33051h 0.181345v 2.75641h 0.181345v -10.4793h 0.181345v 5.39236h 0.181345v -5.39236h 0.181345v -1.44094h 0.181345v
 4.81452h 0.181345v 10.4793h 0.181345v -12.26h 0.181345v -4.3493h 0.181345v 2.75641h 0.181345v 13.8529h 0.181345v -12.26h 0.181345v 1.78069h 0.181345v 2.01878h 0.181345v -2.01878h 0.725379v 2.01878h 0.181345v -3.79948h 0.36269v -6.67981h 0.181345v
 8.4605h 0.181345v 2.01878h 0.181345v 5.08693h 0.181345v -8.8864h 0.36269v -1.59288h 0.181345v -3.96653h 0.181345v 14.4458h 0.181345v -2.75641h 0.36269v -11.6894h 0.181345v 7.34011h 0.181345v -10.4793h 0.181345v 10.4793h 0.181345v -6.12999h 0.181345v
 13.2357h 0.181345v -5.08693h 0.181345v 2.33051h 0.181345v 6.12999h 0.181345v -8.4605h 0.181345v 8.4605h 0.181345v -15.2938h 0.181345v -4.68905h 0.181345v 4.68905h 0.181345v 6.8333h 0.181345v 2.33051h 0.181345v 6.12999h 0.36269v -12.26h 0.36269v
 -6.67981h 0.36269v 3.64599h 0.181345v 4.81452h 0.181345v 4.3493h 0.181345v -7.72287h 0.181345v -1.44094h 0.181345v -1.31547h 0.181345v -1.21012h 0.181345v 5.55942h 0.181345v 1.78069h 0.181345v 10.4793h 0.181345v -12.26h 0.181345v 12.26h 0.181345v
 -10.4793h 0.181345v -3.37358h 0.181345v 5.39236h 0.181345v -5.39236h 0.181345v -2.75641h 0.181345v 1.31547h 0.181345v 3.03382h 0.181345v 3.79948h 0.181345v -5.39236h 0.181345v -1.44094h 0.181345v -1.31547h 0.181345v -1.21012h 0.181345v 9.35889h
 0.181345v -11.5223h 0.181345v 4.68905h 0.36269v 3.03382h 0.181345v -1.59288h 0.181345v 7.72287h 0.181345v -4.3493h 0.181345v -6.12999h 0.181345v 6.12999h 0.181345v -8.4605h 0.181345v 5.08693h 0.181345v -6.12999h 0.181345v 6.12999h 0.181345v
 -6.12999h 0.181345v 2.16346h 0.181345v -1.1204h 0.181345v 1.1204h 0.181345v 5.55942h 0.181345v 3.79948h 0.181345v -8.14877h 0.181345v -6.12999h 0.181345v -1.59288h 0.181345v 15.8716h 0.181345v -9.35889h 0.181345v 11.6894h 0.181345v -12.8098h
 0.181345v 6.67981h 0.181345v -4.3493h 0.181345v 1.31547h 0.181345v -2.52559h 0.181345v -2.16346h 0.181345v -8.8864h 0.181345v 12.26h 0.181345v -6.12999h 0.181345v 6.12999h 0.181345v -9.16381h 0.181345v 10.4793h 0.181345v -9.03835h 0.181345v 6.51275h
 0.181345v -1.1204h 0.181345v 2.33051h 0.181345v -7.72287h 0.181345v 10.4793h 0.181345v -7.10571h 0.181345v 0.97572h 0.181345v 1.04306h 0.181345v -1.04306h 0.181345v -6.46228h 0.181345v 7.50534h 0.181345v -3.79948h 0.181345v -3.03382h 0.181345v
 1.44094h 0.181345v 0.775473h 0.181345v 2.5981h 0.181345v -7.34011h 0.181345v 4.742h 0.181345v 3.57382h 0.181345v -3.57382h 0.181345v 2.5981h 0.181345v 3.13918h 0.181345v -7.95369h 0.181345v 3.89797h 0.181345v 5.26584h 0.181345v -5.26584h 0.181345v
 -0.864145h 0.181345v 0.864145h 0.181345v 1.89227h 0.36269v -0.97572h 0.181345v 4.3493h 0.181345v 4.3493h 0.181345v -5.55942h 0.181345v 5.55942h 0.181345v -11.2967h 0.181345v 2.5981h 0.181345v -0.916548h 0.181345v 5.26584h 0.181345v -1.21012h
 0.181345v 5.55942h 0.181345v 3.79948h 0.181345v -11.5223h 0.181345v 9.50357h 0.181345v -6.12999h 0.181345v 4.3493h 0.181345v 8.8864h 0.181345v -8.8864h 0.181345v -1.59288h 0.181345v 7.72287h 0.181345v -4.3493h 0.181345v 4.3493h 0.181345v -2.33051h
 0.181345v 2.33051h 0.181345v 16.6093h 0.181345v -10.4793h 0.36269v 4.3493h 0.181345v -10.4793h 0.181345v 10.4793h 0.181345v -4.3493h 0.36269v 10.4793h 0.725379v -13.8529h 0.181345v 24.3321h 0.181345v -10.4793h 0.181345v -10.4793h 0.181345v 20.9586h
 0.181345v -20.9586h 0.181345v -3.37358h 0.181345v 24.3321h 0.181345v -16.6093h 0.181345v 6.12999h 0.181345v -6.12999h 0.181345v 6.12999h 0.181345v -13.8529h 0.181345v 24.3321h 0.181345v -20.9586h 0.181345v 20.9586h 0.181345v -16.6093h 0.181345v
 -4.3493h 0.181345v 20.9586h 0.36269v -10.4793h 0.181345v 10.4793h 0.181345v 10.4793h 0.181345v -10.4793h 0.36269v 10.4793h 0.181345v -20.9586h 0.181345v 10.4793h 0.36269v -20.9586h 0.181345v 10.4793h 0.181345v 10.4793h 0.181345v 10.4793h 0.181345v
 -10.4793h 0.181345v -10.4793h 0.36269v 10.4793h 0.36269v -10.4793h 0.181345v 10.4793h 0.181345v -10.4793h 0.36269v 20.9586h 0.181345v -10.4793h 0.181345v -16.6093h 0.181345v 27.0886h 0.181345v -20.9586h 0.181345v 20.9586h 0.181345v -27.0886h
 0.181345v 27.0886h 0.181345v -20.9586h 0.181345v 10.4793h 0.181345v 10.4793h 0.181345v -10.4793h 0.181345v 10.4793h 0.181345v -10.4793h 0.181345v 10.4793h 0.181345v -20.9586h 0.181345v 10.4793h 0.181345v -10.4793h 0.181345v 10.4793h 0.544034v
 -10.4793h 0.181345v -6.12999h 0.181345v 27.0886h 0.36269v -10.4793h 0.181345v 10.4793h 0.181345v -31.4379h 0.181345v 20.9586h 0.36269v -16.6093h 0.181345v 6.12999h 0.181345v 10.4793h 0.181345v 10.4793h 0.181345v -20.9586h 0.36269v 10.4793h 0.181345v
 10.4793h 0.181345v -10.4793h 0.181345v 10.4793h 0.544034v -10.4793h 0.181345v 10.4793h 0.181345v -20.9586h 0.181345v 20.9586h 0.181345v -10.4793h 0.181345v -10.4793h 0.181345v 10.4793h 0.181345v -16.6093h 0.181345v 6.12999h 0.181345v 20.9586h
 0.181345v -10.4793h 0.181345v 10.4793h 0.181345v -10.4793h 0.36269v 10.4793h 0.36269v -10.4793h 0.36269v 10.4793h 0.181345v -10.4793h 0.36269v 10.4793h 0.181345v -10.4793h 0.36269v 10.4793h 0.181345v -10.4793h 0.906724v -10.4793h 0.181345v 10.4793h
 0.36269v 10.4793h 0.181345v -10.4793h 0.36269v 10.4793h 0.181345v -31.4379h 0.181345v 20.9586h 0.544034v 10.4793h 0.181345v -10.4793h 0.181345v -16.6093h 0.181345v 16.6093h 0.36269v -10.4793h 0.181345v 20.9586h 0.181345v -10.4793h 0.36269v -16.6093h
 0.181345v 27.0886h 0.36269v -10.4793h 0.181345v -10.4793h 0.181345v 20.9586h 0.181345v -20.9586h 0.36269v 20.9586h 0.181345v -10.4793h 0.181345v 10.4793h 0.181345v -10.4793h 0.181345v 10.4793h 0.181345v -20.9586h 0.181345v 10.4793h 0.181345v
 10.4793h 0.181345v -27.0886h 0.181345v 27.0886h 0.181345v -10.4793h 0.181345v 10.4793h 0.181345v -27.0886h 0.181345v 27.0886h 0.36269v -20.9586h 0.36269v -6.12999h 0.181345v 16.6093h 0.544034v -10.4793h 0.181345v 20.9586h 0.36269v -20.9586h
 0.181345v 20.9586h 0.544034v -10.4793h 0.725379v -10.4793h 0.36269v -6.12999h 0.181345v 16.6093h 0.181345v 10.4793h 0.725379v -10.4793h 0.181345v 10.4793h 0.544034v -10.4793h 0.181345v 10.4793h 0.181345v -10.4793h 0.181345v 10.4793h 0.36269v
 -20.9586h 0.36269v 10.4793h 0.181345v 10.4793h 0.725379v -10.4793h 0.36269v 10.4793h 0.36269v -10.4793h 0.906724v 10.4793h 0.36269v -20.9586h 0.181345v 10.4793h 0.181345v -20.9586h 0.181345v 31.4379h 0.181345v -20.9586h 0.181345v 10.4793h 0.181345v
 10.4793h 0.181345v -20.9586h 0.181345v -10.4793h 0.181345v 20.9586h 0.181345v -10.4793h 0.544034v 20.9586h 0.181345v -10.4793h 0.36269v 10.4793h 0.36269v -10.4793h 0.181345v 10.4793h 0.181345v -20.9586h 0.181345v 20.9586h 0.181345v -10.4793h
 0.181345v -10.4793h 0.181345v 20.9586h 0.181345v -27.0886h 0.181345v 27.0886h 0.181345v -10.4793h 0.181345v 10.4793h 0.36269v -10.4793h 0.181345v -16.6093h 0.181345v 27.0886h 0.181345v -20.9586h 0.181345v 10.4793h 0.36269v 10.4793h 0.36269v
 -10.4793h 0.181345v 10.4793h 0.36269v -10.4793h 0.181345v 10.4793h 0.181345v -10.4793h 0.181345v 10.4793h 0.725379v -10.4793h 0.181345v -10.4793h 0.181345v 10.4793h 0.36269v 10.4793h 0.36269v -20.9586h 0.36269v 20.9586h 0.36269v -10.4793h 0.181345v
 10.4793h 0.181345v -10.4793h 0.36269v 10.4793h 0.36269v -10.4793h 0.181345v 10.4793h 0.36269v -27.0886h 0.181345v 16.6093h 0.181345" fill="none" stroke="black"/>
<path d="M57.1929,280.151h 453.543" fill="none" stroke="black"/>
<path d="M57.1929,272.68v 7.47068" fill="none" stroke="black"/>
<path d="M75.3318,276.415v 3.73534" fill="none" stroke="black"/>
<path d="M93.4707,276.415v 3.73534" fill="none" stroke="black"/>
<path d="M111.61,276.415v 3.73534" fill="none" stroke="black"/>
<path d="M129.749,276.415v 3.73534" fill="none" stroke="black"/>
<path d="M147.887,272.68v 7.47068" fill="none" stroke="black"/>
<path d="M166.026,276.415v 3.73534" fill="none" stroke="black"/>
<path d="M184.165,276.415v 3.73534" fill="none" stroke="black"/>
<path d="M202.304,276.415v 3.73534" fill="none" stroke="black"/>
<path d="M220.443,276.415v 3.73534" fill="none" stroke="black"/>
<path d="M238.582,272.68v 7.47068" fill="none" stroke="black"/>
<path d="M256.721,276.415v 3.73534" fill="none" stroke="black"/>
<path d="M274.86,276.415v 3.73534" fill="none" stroke="black"/>
<path d="M292.999,276.415v 3.73534" fill="none" stroke="black"/>
<path d="M311.138,276.415v 3.73534" fill="none" stroke="black"/>
<path d="M329.277,272.68v 7.47068" fill="none" stroke="black"/>
<path d="M347.415,276.415v 3.73534" fill="none" stroke="black"/>
<path d="M365.554,276.415v 3.73534" fill="none" stroke="black"/>
<path d="M383.693,276.415v 3.73534" fill="none" stroke="black"/>
<path d="M401.832,276.415v 3.73534" fill="none" stroke="black"/>
<path d="M419.971,272.68v 7.47068" fill="none" stroke="black"/>
<path d="M438.11,276.415v 3.73534" fill="none" stroke="black"/>
<path d="M456.249,276.415v 3.73534" fill="none" stroke="black"/>
<path d="M474.388,276.415v 3.73534" fill="none" stroke="black"/>
<path d="M492.527,276.415v 3.73534" fill="none" stroke="black"/>
<path d="M510.666,272.68v 7.47068" fill="none" stroke="black"/>
<path d="M510.666,272.68v 7.47068" fill="none" stroke="black"/>
<text xml:space="preserve" x="54.3523" y="290.27" fill="black" font-size="10.4952" font-family="Helvetica">0</text>
<text xml:space="preserve" x="139.569" y="290.27" fill="black" font-size="10.4952" font-family="Helvetica">500</text>
<text xml:space="preserve" x="227.449" y="290.27" fill="black" font-size="10.4952" font-family="Helvetica">1000</text>
<text xml:space="preserve" x="318.288" y="290.27" fill="black" font-size="10.4952" font-family="Helvetica">1500</text>
<text xml:space="preserve" x="408.831" y="290.27" fill="black" font-size="10.4952" font-family="Helvetica">2000</text>
<text xml:space="preserve" x="499.67" y="290.27" fill="black" font-size="10.4952" font-family="Helvetica">2500</text>
<text xml:space="preserve" x="265.323" y="301.218" fill="black" font-size="10.4952" font-family="Helvetica">Channel</text>
<path d="M57.1929,280.151v -249.023" fill="none" stroke="black"/>
<path d="M63.9961,280.151h -6.80315" fill="none" stroke="black"/>
<path d="M63.9961,277.394h -6.80315" fill="none" stroke="black"/>
<path d="M63.9961,275.064h -6.80315" fill="none" stroke="black"/>
<path d="M63.9961,273.045h -6.80315" fill="none" stroke="black"/>
<path d="M63.9961,271.264h -6.80315" fill="none" stroke="black"/>
<path d="M70.7992,269.671h -13.6063" fill="none" stroke="black"/>
<text xml:space="preserve" x="49.0263" y="273.404" fill="black" font-size="10.4952" font-family="Helvetica">1</text>
<path d="M63.9961,259.192h -6.80315" fill="none" stroke="black"/>
<path d="M63.9961,253.062h -6.80315" fill="none" stroke="black"/>
<path d="M63.9961,248.713h -6.80315" fill="none" stroke="black"/>
<path d="M63.9961,245.339h -6.80315" fill="none" stroke="black"/>
<path d="M63.9961,242.583h -6.80315" fill="none" stroke="black"/>
<path d="M63.9961,240.252h -6.80315" fill="none" stroke="black"/>
<path d="M63.9961,238.233h -6.80315" fill="none" stroke="black"/>
<path d="M63.9961,236.453h -6.80315" fill="none" stroke="black"/>
<path d="M70.7992,234.86h -13.6063" fill="none" stroke="black"/>
<text xml:space="preserve" x="41.629" y="238.489" fill="black" font-size="10.4952" font-family="Helvetica">10</text>
<path d="M63.9961,224.381h -6.80315" fill="none" stroke="black"/>
<path d="M63.9961,218.251h -6.80315" fill="none" stroke="black"/>
<path d="M63.9961,213.901h -6.80315" fill="none" stroke="black"/>
<path d="M63.9961,210.528h -6.80315" fill="none" stroke="black"/>
<path d="M63.9961,207.771h -6.80315" fill="none" stroke="black"/>
<path d="M63.9961,205.441h -6.80315" fill="none" stroke="black"/>
<path d="M63.9961,203.422h -6.80315" fill="none" stroke="black"/>
<path d="M63.9961,201.641h -6.80315" fill="none" stroke="black"/>
<path d="M70.7992,200.048h -13.6063" fill="none" stroke="black"/>
<text xml:space="preserve" x="49.0263" y="200.319" fill="black" font-size="7.16345" font-family="Helvetica">2</text>
<text xml:space="preserve" x="38.0783" y="204.757" fill="black" font-size="10.4952" font-family="Helvetica">10</text>
<path d="M63.9961,189.569h -6.80315" fill="none" stroke="black"/>
<path d="M63.9961,183.439h -6.80315" fill="none" stroke="black"/>
<path d="M63.9961,179.09h -6.80315" fill="none" stroke="black"/>
<path d="M63.9961,175.716h -6.80315" fill="none" stroke="black"/>
<path d="M63.9961,172.96h -6.80315" fill="none" stroke="black"/>
<path d="M63.9961,170.629h -6.80315" fill="none" stroke="black"/>
<path d="M63.9961,168.611h -6.80315" fill="none" stroke="black"/>
<path d="M63.9961,166.83h -6.80315" fill="none" stroke="black"/>
<path d="M70.7992,165.237h -13.6063" fill="none" stroke="black"/>
<text xml:space="preserve" x="49.0263" y="165.108" fill="black" font-size="7.16345" font-family="Helvetica">3</text>
<text xml:space="preserve" x="38.0783" y="169.842" fill="black" font-size="10.4952" font-family="Helvetica">10</text>
<path d="M63.9961,154.758h -6.80315" fill="none" stroke="black"/>
<path d="M63.9961,148.628h -6.80315" fill="none" stroke="black"/>
<path d="M63.9961,144.278h -6.80315" fill="none" stroke="black"/>
<path d="M63.9961,140.905h -6.80315" fill="none" stroke="black"/>
<path d="M63.9961,138.148h -6.80315" fill="none" stroke="black"/>
<path d="M63.9961,135.818h -6.80315" fill="none" stroke="black"/>
<path d="M63.9961,133.799h -6.80315" fill="none" stroke="black"/>
<path d="M63.9961,132.018h -6.80315" fill="none" stroke="black"/>
<path d="M70.7992,130.426h -13.6063" fill="none" stroke="black"/>
<text xml:space="preserve" x="49.0263" y="130.488" fill="black" font-size="7.16345" font-family="Helvetica">4</text>
<text xml:space="preserve" x="38.0783" y="134.927" fill="black" font-size="10.4952" font-family="Helvetica">10</text>
<path d="M63.9961,119.946h -6.80315" fill="none" stroke="black"/>
<path d="M63.9961,113.816h -6.80315" fill="none" stroke="black"/>
<path d="M63.9961,109.467h -6.80315" fill="none" stroke="black"/>
<path d="M63.9961,106.093h -6.80315" fill="none" stroke="black"/>
<path d="M63.9961,103.337h -6.80315" fill="none" stroke="black"/>
<path d="M63.9961,101.006h -6.80315" fill="none" stroke="black"/>
<path d="M63.9961,98.9877h -6.80315" fill="none" stroke="black"/>
<path d="M63.9961,97.207h -6.80315" fill="none" stroke="black"/>
<path d="M70.7992,95.6141h -13.6063" fill="none" stroke="black"/>
<text xml:space="preserve" x="49.0263" y="95.5731" fill="black" font-size="7.16345" font-family="Helvetica">5</text>
<text xml:space="preserve" x="38.0783" y="100.307" fill="black" font-size="10.4952" font-family="Helvetica">10</text>
<path d="M63.9961,85.1348h -6.80315" fill="none" stroke="black"/>
<path d="M63.9961,79.0048h -6.80315" fill="none" stroke="black"/>
<path d="M63.9961,74.6555h -6.80315" fill="none" stroke="black"/>
<path d="M63.9961,71.2819h -6.80315" fill="none" stroke="black"/>
<path d="M63.9961,68.5255h -6.80315" fill="none" stroke="black"/>
<path d="M63.9961,66.195h -6.80315" fill="none" stroke="black"/>
<path d="M63.9961,64.1762h -6.80315" fill="none" stroke="black"/>
<path d="M63.9961,62.3955h -6.80315" fill="none" stroke="black"/>
<path d="M70.7992,60.8027h -13.6063" fill="none" stroke="black"/>
<text xml:space="preserve" x="49.0263" y="60.6579" fill="black" font-size="7.16345" font-family="Helvetica">6</text>
<text xml:space="preserve" x="38.0783" y="65.3921" fill="black" font-size="10.4952" font-family="Helvetica">10</text>
<path d="M63.9961,50.3234h -6.80315" fill="none" stroke="black"/>
<path d="M63.9961,44.1934h -6.80315" fill="none" stroke="black"/>
<path d="M63.9961,39.8441h -6.80315" fill="none" stroke="black"/>
<path d="M63.9961,36.4705h -6.80315" fill="none" stroke="black"/>
<path d="M63.9961,33.7141h -6.80315" fill="none" stroke="black"/>
<path d="M63.9961,31.3836h -6.80315" fill="none" stroke="black"/>
<g transform="rotate(-90,26.5385,191.442)">
<text xml:space="preserve" x="26.5385" y="191.442" fill="black" font-size="10.4952" font-family="Helvetica">Counts/Channel</text>
</g>
<text xml:space="preserve" x="404.097" y="60.6579" fill="black" font-size="14.7788" font-family="Helvetica" font-weight="bold"> = 2.4879 MeV</text>
<text xml:space="preserve" x="398.179" y="63.9127" fill="black" font-size="10.0192" font-family="Helvetica" font-weight="bold">p</text>
<text xml:space="preserve" x="389.006" y="60.6579" fill="black" font-size="14.7788" font-family="Helvetica" font-weight="bold">E</text>
<path d="M262.163,163.796v 26.1539" fill="none" stroke="black"/>
<path d="M264.454,189.95l -2.29122, 3.9685l -2.29122, -3.9685z" fill="black"/>
<path d="M264.454,189.95l -2.29122, 3.9685l -2.29122, -3.9685h 4.58243z" fill="none" stroke="black"/>
<text xml:space="preserve" x="266.803" y="161.853" fill="black" font-size="10.4952" font-family="Helvetica" font-weight="bold">_1 	1.369 MeV</text>
<text xml:space="preserve" x="260.293" y="161.853" fill="black" font-size="10.4952" font-family="Times">&#0945;</text>
<path d="M184.528,130.426v 30.8429" fill="none" stroke="black"/>
<path d="M186.819,161.268l -2.29122, 3.9685l -2.29122, -3.9685z" fill="black"/>
<path d="M186.819,161.268l -2.29122, 3.9685l -2.29122, -3.9685h 4.58243z" fill="none" stroke="black"/>
<text xml:space="preserve" x="172.117" y="127.529" fill="black" font-size="10.4952" font-family="Helvetica" font-weight="bold"># p_1 	0.844 MeV</text>
<path d="M210.104,148.628v 12.6408" fill="none" stroke="black"/>
<path d="M212.395,161.268l -2.29122, 3.9685l -2.29122, -3.9685z" fill="black"/>
<path d="M212.395,161.268l -2.29122, 3.9685l -2.29122, -3.9685h 4.58243z" fill="none" stroke="black"/>
<text xml:space="preserve" x="197.564" y="144.099" fill="black" font-size="10.4952" font-family="Helvetica" font-weight="bold"># p_2 	1.015 MeV</text>
<path d="M497.611,269.671h 13.0544" fill="none" stroke="black"/>
<path d="M504.138,259.192h 6.52721" fill="none" stroke="black"/>
<path d="M504.138,253.062h 6.52721" fill="none" stroke="black"/>
<path d="M504.138,248.713h 6.52721" fill="none" stroke="black"/>
<path d="M504.138,245.339h 6.52721" fill="none" stroke="black"/>
<path d="M504.138,242.583h 6.52721" fill="none" stroke="black"/>
<path d="M504.138,240.252h 6.52721" fill="none" stroke="black"/>
<path d="M504.138,238.233h 6.52721" fill="none" stroke="black"/>
<path d="M504.138,236.453h 6.52721" fill="none" stroke="black"/>
<path d="M497.611,234.86h 13.0544" fill="none" stroke="black"/>
<path d="M504.138,224.381h 6.52721" fill="none" stroke="black"/>
<path d="M504.138,218.251h 6.52721" fill="none" stroke="black"/>
<path d="M504.138,213.901h 6.52721" fill="none" stroke="black"/>
<path d="M504.138,210.528h 6.52721" fill="none" stroke="black"/>
<path d="M504.138,207.771h 6.52721" fill="none" stroke="black"/>
<path d="M504.138,205.441h 6.52721" fill="none" stroke="black"/>
<path d="M504.138,203.422h 6.52721" fill="none" stroke="black"/>
<path d="M504.138,201.641h 6.52721" fill="none" stroke="black"/>
<path d="M497.611,200.048h 13.0544" fill="none" stroke="black"/>
<path d="M504.138,189.569h 6.52721" fill="none" stroke="black"/>
<path d="M504.138,183.439h 6.52721" fill="none" stroke="black"/>
<path d="M504.138,179.09h 6.52721" fill="none" stroke="black"/>
<path d="M504.138,175.716h 6.52721" fill="none" stroke="black"/>
<path d="M504.138,172.96h 6.52721" fill="none" stroke="black"/>
<path d="M504.138,170.629h 6.52721" fill="none" stroke="black"/>
<path d="M504.138,168.611h 6.52721" fill="none" stroke="black"/>
<path d="M504.138,166.83h 6.52721" fill="none" stroke="black"/>
<path d="M497.611,165.237h 13.0544" fill="none" stroke="black"/>
<path d="M504.138,154.758h 6.52721" fill="none" stroke="black"/>
<path d="M504.138,148.628h 6.52721" fill="none" stroke="black"/>
<path d="M504.138,144.278h 6.52721" fill="none" stroke="black"/>
<path d="M504.138,140.905h 6.52721" fill="none" stroke="black"/>
<path d="M504.138,138.148h 6.52721" fill="none" stroke="black"/>
<path d="M504.138,135.818h 6.52721" fill="none" stroke="black"/>
<path d="M504.138,133.799h 6.52721" fill="none" stroke="black"/>
<path d="M504.138,132.018h 6.52721" fill="none" stroke="black"/>
<path d="M497.611,130.426h 13.0544" fill="none" stroke="black"/>
<path d="M504.138,119.946h 6.52721" fill="none" stroke="black"/>
<path d="M504.138,113.816h 6.52721" fill="none" stroke="black"/>
<path d="M504.138,109.467h 6.52721" fill="none" stroke="black"/>
<path d="M504.138,106.093h 6.52721" fill="none" stroke="black"/>
<path d="M504.138,103.337h 6.52721" fill="none" stroke="black"/>
<path d="M504.138,101.006h 6.52721" fill="none" stroke="black"/>
<path d="M504.138,98.9877h 6.52721" fill="none" stroke="black"/>
<path d="M504.138,97.207h 6.52721" fill="none" stroke="black"/>
<path d="M497.611,95.6141h 13.0544" fill="none" stroke="black"/>
<path d="M504.138,85.1348h 6.52721" fill="none" stroke="black"/>
<path d="M504.138,79.0048h 6.52721" fill="none" stroke="black"/>
<path d="M504.138,74.6555h 6.52721" fill="none" stroke="black"/>
<path d="M504.138,71.2819h 6.52721" fill="none" stroke="black"/>
<path d="M504.138,68.5255h 6.52721" fill="none" stroke="black"/>
<path d="M504.138,66.195h 6.52721" fill="none" stroke="black"/>
<path d="M504.138,64.1762h 6.52721" fill="none" stroke="black"/>
<path d="M504.138,62.3955h 6.52721" fill="none" stroke="black"/>
<path d="M497.611,60.8027h 13.0544" fill="none" stroke="black"/>
<path d="M504.138,50.3234h 6.52721" fill="none" stroke="black"/>
<path d="M504.138,44.1934h 6.52721" fill="none" stroke="black"/>
<path d="M504.138,39.8441h 6.52721" fill="none" stroke="black"/>
<path d="M504.138,36.4705h 6.52721" fill="none" stroke="black"/>
<path d="M504.138,33.7141h 6.52721" fill="none" stroke="black"/>
<path d="M504.138,31.3836h 6.52721" fill="none" stroke="black"/>
<path d="M57.1929,38.2187v -7.46952" fill="none" stroke="black"/>
<path d="M75.3318,38.2187v -7.46952" fill="none" stroke="black"/>
<path d="M93.4707,38.2187v -7.46952" fill="none" stroke="black"/>
<path d="M111.61,38.2187v -7.46952" fill="none" stroke="black"/>
<path d="M129.749,38.2187v -7.46952" fill="none" stroke="black"/>
<path d="M147.887,38.2187v -7.46952" fill="none" stroke="black"/>
<path d="M166.026,38.2187v -7.46952" fill="none" stroke="black"/>
<path d="M184.165,38.2187v -7.46952" fill="none" stroke="black"/>
<path d="M202.304,38.2187v -7.46952" fill="none" stroke="black"/>
<path d="M220.443,38.2187v -7.46952" fill="none" stroke="black"/>
<path d="M238.582,38.2187v -7.46952" fill="none" stroke="black"/>
<path d="M256.721,38.2187v -7.46952" fill="none" stroke="black"/>
<path d="M274.86,38.2187v -7.46952" fill="none" stroke="black"/>
<path d="M292.999,38.2187v -7.46952" fill="none" stroke="black"/>
<path d="M311.138,38.2187v -7.46952" fill="none" stroke="black"/>
<path d="M329.277,38.2187v -7.46952" fill="none" stroke="black"/>
<path d="M347.415,38.2187v -7.46952" fill="none" stroke="black"/>
<path d="M365.554,38.2187v -7.46952" fill="none" stroke="black"/>
<path d="M383.693,38.2187v -7.46952" fill="none" stroke="black"/>
<path d="M401.832,38.2187v -7.46952" fill="none" stroke="black"/>
<path d="M419.971,38.2187v -7.46952" fill="none" stroke="black"/>
<path d="M438.11,38.2187v -7.46952" fill="none" stroke="black"/>
<path d="M456.249,38.2187v -7.46952" fill="none" stroke="black"/>
<path d="M474.388,38.2187v -7.46952" fill="none" stroke="black"/>
<path d="M492.527,38.2187v -7.46952" fill="none" stroke="black"/>
<path d="M510.666,38.2187v -7.46952" fill="none" stroke="black"/></svg>
