<?xml version="1.0" standalone="no"?>
<svg width="567.429" height="311.778" viewBox="0 0 567.429 311.778" xmlns="http://www.w3.org/2000/svg" shape-rendering="crispEdges">
<title>
Yields/P1/run_0104/det7_Fit.svg
</title>
<desc>
Creator: ROOT Version 6.12/06
CreationDate: Mon Apr 15 10:29:02 2019</desc>
<defs>
</defs>
<rect x="0.5" y="0" width="566.929" height="311.278" fill="white"/>
<rect x="57.1929" y="31.1278" width="453.543" height="249.023" fill="white"/>
<rect x="57.1929" y="31.1278" width="453.543" height="249.023" fill="none" stroke="black"/>
<path d="M57.1929,40.7917h 0.181345v 239.359h 22.3054v -10.4815h 0.181345v 10.4815h 0.906724v -10.4815h 0.181345v 10.4815h 0.544034v -10.4815h 0.181345v 10.4815h 0.36269v -10.4815h 0.36269v 10.4815h 0.36269v -10.4815h 0.181345v 10.4815h 2.17614v
 -10.4815h 0.181345v 10.4815h 1.45076v -10.4815h 0.181345v 10.4815h 0.906724v -10.4815h 0.181345v 10.4815h 0.544034v -10.4815h 0.181345v -24.3372h 0.181345v -8.88825h 0.181345v -18.7018h 0.181345v -14.7092h 0.181345v -8.6195h 0.181345v -8.35761h
 0.181345v -4.39514h 0.181345v -4.60603h 0.181345v -1.51027h 0.181345v -2.2495h 0.181345v -0.803993h 0.181345v -1.04002h 0.181345v -1.29098h 0.181345v -0.676738h 0.181345v -0.060046h 0.181345v -0.721604h 0.181345v -1.72594h 0.181345v 0.784579h
 0.181345v -1.1704h 0.181345v 0.0663955h 0.181345v -0.555281h 0.181345v -0.364392h 0.181345v 0.639484h 0.181345v -1.19277h 0.181345v 1.24184h 0.181345v -1.80471h 0.181345v 1.56094h 0.181345v -0.271604h 0.181345v -0.173179h 0.181345v -0.3711h
 0.181345v -0.227396h 0.181345v -0.473976h 0.181345v 0.264781h 0.181345v -0.0740166h 0.181345v 0.268173h 0.181345v 0.211917h 0.181345v 0.168615h 0.181345v -1.11402h 0.181345v 0.406362h 0.181345v -0.619645h 0.36269v -0.0422981h 0.181345v 0.617879h
 0.181345v -0.276134h 0.181345v 0.159252h 0.181345v -0.599234h 0.181345v 0.745479h 0.181345v -0.291088h 0.181345v 0.528061h 0.181345v 0.240746h 0.181345v -0.389289h 0.181345v 0.163478h 0.181345v 0.470453h 0.181345v 0.374547h 0.181345v -1.05276h
 0.181345v -0.634968h 0.181345v 1.05338h 0.181345v -0.91139h 0.181345v -0.3525h 0.181345v -2.53469h 0.181345v -1.36282h 0.181345v -2.16391h 0.181345v -3.24679h 0.181345v -2.099h 0.181345v -3.69722h 0.181345v -3.79342h 0.181345v -2.51475h 0.181345v
 -2.23162h 0.181345v -2.24655h 0.181345v -2.19239h 0.181345v -1.24013h 0.181345v -0.477459h 0.181345v 0.347728h 0.181345v 0.858597h 0.181345v 1.13536h 0.181345v 1.50805h 0.181345v 3.07906h 0.181345v 2.50603h 0.181345v 3.63752h 0.181345v 4.59185h
 0.181345v 3.18651h 0.181345v 4.07259h 0.181345v 5.28714h 0.181345v 2.80862h 0.181345v 1.98721h 0.181345v 3.62709h 0.181345v 0.901125h 0.181345v 0.294672h 0.181345v -0.609716h 0.181345v 2.94522h 0.181345v -1.67193h 0.181345v 1.05338h 0.181345v
 0.969863h 0.181345v -0.570692h 0.181345v 2.09942h 0.181345v -0.388206h 0.181345v -1.10818h 0.181345v 0.628089h 0.181345v -1.01174h 0.181345v 1.49183h 0.181345v -0.104167h 0.181345v -1.06863h 0.181345v -0.28743h 0.181345v 0.745694h 0.181345v
 0.506915h 0.181345v 1.40348h 0.181345v -1.60829h 0.181345v 1.23582h 0.181345v -1.30348h 0.181345v 0.375922h 0.181345v -0.775634h 0.181345v 0.603601h 0.181345v 0.700197h 0.181345v 0.252935h 0.181345v -0.711734h 0.181345v 0.566682h 0.181345v 1.00723h
 0.181345v -0.862181h 0.181345v 1.25294h 0.181345v -0.0789639h 0.181345v -0.350322h 0.181345v 1.62317h 0.36269v -0.380703h 0.181345v -0.813183h 0.181345v 1.06592h 0.181345v -1.57196h 0.181345v 0.947875h 0.181345v 0.967773h 0.181345v -0.30115h
 0.181345v -0.169431h 0.181345v 2.71492h 0.181345v -3.25282h 0.181345v 0.707327h 0.181345v 1.01288h 0.181345v -0.136027h 0.181345v -0.834201h 0.181345v 2.20339h 0.181345v -0.864324h 0.181345v 1.83366h 0.181345v -1.16572h 0.181345v 1.2185h 0.181345v
 -0.67218h 0.181345v 0.831635h 0.181345v -1.42666h 0.181345v 0.69651h 0.181345v -1.4088h 0.181345v 0.280904h 0.181345v 0.825458h 0.181345v -1.29077h 0.181345v 0.655526h 0.181345v 1.50838h 0.181345v 0.593078h 0.181345v -3.07439h 0.181345v 1.91062h
 0.181345v 0.676809h 0.181345v 0.486961h 0.181345v -1.41622h 0.181345v 1.14376h 0.181345v -0.32061h 0.181345v -1.46045h 0.181345v 1.40767h 0.181345v 0.158897h 0.181345v -1.80471h 0.181345v 2.79484h 0.181345v -0.281601h 0.181345v -1.33434h 0.181345v
 0.679148h 0.181345v -0.0533389h 0.181345v 0.486961h 0.181345v 0.0550877h 0.181345v -1.42116h 0.181345v 1.98336h 0.181345v -0.88976h 0.181345v -0.891303h 0.181345v 0.308614h 0.181345v -0.359443h 0.181345v 0.101829h 0.181345v 0.466912h 0.181345v
 -0.619399h 0.181345v -1.5831h 0.181345v -0.181099h 0.181345v -0.703455h 0.181345v -2.77845h 0.181345v 1.62104h 0.181345v 0.281153h 0.181345v -2.15039h 0.181345v 0.355818h 0.181345v -0.0718365h 0.181345v -0.665947h 0.181345v 0.737783h 0.181345v
 1.00475h 0.181345v 0.271768h 0.181345v 0.8459h 0.181345v 1.11744h 0.181345v -0.13323h 0.181345v 0.312717h 0.181345v 1.71912h 0.181345v 1.54273h 0.181345v -0.870546h 0.181345v 2.77815h 0.181345v -2.07469h 0.181345v 1.88528h 0.181345v 0.0628756h
 0.181345v 0.126541h 0.181345v 1.05236h 0.181345v 0.985007h 0.181345v -1.9737h 0.181345v -0.253086h 0.181345v 0.904978h 0.181345v -2.73476h 0.181345v 1.215h 0.181345v 1.45329h 0.181345v -1.14902h 0.181345v 1.75803h 0.181345v -1.51013h 0.181345v
 0.573096h 0.181345v 2.00993h 0.181345v -2.26733h 0.181345v 1.54367h 0.181345v -0.554982h 0.181345v -1.30439h 0.181345v 0.125491h 0.181345v 1.45384h 0.181345v -1.19969h 0.181345v 1.19969h 0.181345v 0.493521h 0.181345v -1.62901h 0.181345v 0.0644843h
 0.181345v -0.192634h 0.181345v 0.988689h 0.181345v -0.731295h 0.181345v -0.193455h 0.181345v -0.191012h 0.181345v 0.449506h 0.181345v 1.50656h 0.181345v -3.22957h 0.181345v 1.40058h 0.181345v -0.378059h 0.181345v -0.669474h 0.181345v -1.84707h
 0.181345v 1.03575h 0.181345v 0.633758h 0.181345v -0.913277h 0.181345v -2.16391h 0.181345v 3.19532h 0.181345v 0.360054h 0.181345v -2.30495h 0.181345v -0.663109h 0.181345v 1.35663h 0.181345v 0.499473h 0.181345v -0.499473h 0.181345v 1.79472h 0.181345v
 -3.30033h 0.181345v 2.93594h 0.181345v 0.991933h 0.181345v -0.565945h 0.181345v -1.01445h 0.181345v 1.90421h 0.181345v 0.264139h 0.181345v 1.24928h 0.181345v 0.590184h 0.181345v -2.68157h 0.181345v 2.90896h 0.181345v -0.81758h 0.181345v -0.844213h
 0.36269v -0.669204h 0.181345v 1.3694h 0.181345v -0.0714968h 0.181345v -0.6287h 0.181345v 0.346046h 0.181345v 0.79038h 0.181345v 0.912129h 0.181345v -1.63234h 0.181345v -1.01982h 0.181345v -0.260723h 0.181345v 1.071h 0.181345v 0.565358h 0.181345v
 0.512644h 0.181345v -0.295064h 0.181345v 1.5365h 0.181345v -1.38969h 0.181345v 0.297971h 0.181345v 0.303961h 0.181345v -1.39231h 0.181345v 0.716795h 0.181345v 0.0735843h 0.181345v 0.0739442h 0.181345v -0.0739442h 0.181345v -1.34032h 0.181345v
 -0.134415h 0.181345v 0.895844h 0.181345v 1.64853h 0.181345v -1.78986h 0.181345v -0.347637h 0.181345v -0.136848h 0.181345v 0.625809h 0.181345v 0.65283h 0.181345v -0.147529h 0.181345v -1.26673h 0.181345v 0.341359h 0.181345v -0.068891h 0.181345v
 -1.93304h 0.181345v 2.07114h 0.181345v -0.9412h 0.181345v -0.700492h 0.181345v 1.43502h 0.181345v 0.206676h 0.181345v -0.87588h 0.181345v 1.2979h 0.181345v 0.288038h 0.181345v 0.146103h 0.181345v 0.296511h 0.181345v -2.35237h 0.181345v 3.19909h
 0.181345v -1.86003h 0.181345v -1.14561h 0.181345v 0.46126h 0.181345v 1.54867h 0.181345v -0.58167h 0.181345v -1.49302h 0.181345v 0.39279h 0.181345v -0.901125h 0.181345v 0.508335h 0.181345v 0.52602h 0.181345v 1.47473h 0.181345v -0.92975h 0.36269v
 -0.744388h 0.181345v 1.67414h 0.181345v -1.60796h 0.181345v 1.17173h 0.181345v -0.700197h 0.181345v 0.916738h 0.181345v 1.21037h 0.181345v -2.331h 0.181345v 1.86568h 0.181345v -2.39632h 0.181345v 1.43472h 0.181345v 1.74527h 0.181345v -1.38263h
 0.181345v 0.371556h 0.181345v 0.771675h 0.181345v -0.235665h 0.181345v 0.636791h 0.181345v 0.245884h 0.181345v -1.79024h 0.181345v 1.79024h 0.181345v -2.7845h 0.181345v 2.7021h 0.181345v -1.18506h 0.181345v 0.0761793h 0.181345v 0.623658h 0.181345v
 0.485225h 0.181345v -1.10888h 0.181345v 1.6102h 0.181345v 1.51789h 0.181345v -3.80026h 0.181345v 0.825699h 0.181345v 0.791885h 0.181345v 0.835658h 0.181345v 1.82408h 0.181345v -3.29653h 0.181345v 1.90826h 0.181345v -2.14031h 0.181345v 2.40795h
 0.181345v 0.643567h 0.181345v -1.77062h 0.181345v -1.73458h 0.181345v 4.77832h 0.181345v -0.303453h 0.181345v -0.297483h 0.181345v -2.10488h 0.181345v 0.610174h 0.181345v 3.04434h 0.181345v -2.4085h 0.181345v -1.24601h 0.181345v 0.970228h 0.181345v
 1.23316h 0.181345v 0.916738h 0.181345v -0.916738h 0.181345v -1.6819h 0.181345v 1.98135h 0.181345v -0.495833h 0.181345v -1.12759h 0.181345v 2.66671h 0.181345v -0.942131h 0.181345v 1.6045h 0.181345v 0.227396h 0.181345v -3.46565h 0.181345v 2.57589h
 0.181345v -2.48452h 0.181345v 1.44124h 0.181345v -0.689702h 0.181345v 1.30699h 0.181345v -2.05853h 0.181345v 1.74673h 0.181345v -0.703455h 0.181345v -0.0978745h 0.181345v 1.53911h 0.181345v -2.0192h 0.181345v 2.45754h 0.181345v -2.45754h 0.181345v
 2.0192h 0.181345v -0.425987h 0.181345v 1.20162h 0.181345v -0.558054h 0.181345v -1.95056h 0.181345v 1.62535h 0.36269v 2.69277h 0.181345v -2.47675h 0.181345v 1.129h 0.181345v -2.0777h 0.181345v 0.309667h 0.181345v -1.10572h 0.181345v 1.31575h
 0.181345v 0.648166h 0.181345v 0.448079h 0.181345v -1.61594h 0.181345v 0.732675h 0.181345v 0.107627h 0.181345v -0.530635h 0.181345v -1.00848h 0.181345v 0.295545h 0.181345v 0.403265h 0.181345v 0.625809h 0.181345v -0.211494h 0.181345v 0.211494h
 0.181345v 0.764429h 0.181345v 0.570692h 0.181345v 1.85394h 0.181345v -3.29518h 0.181345v 0.212983h 0.181345v 3.4819h 0.181345v -4.41756h 0.181345v 3.24879h 0.181345v -1.42987h 0.181345v 1.05953h 0.181345v -1.39683h 0.181345v 2.80153h 0.181345v
 -2.3501h 0.181345v -0.339824h 0.181345v -2.28292h 0.181345v 3.44669h 0.181345v -2.24434h 0.181345v -0.103929h 0.181345v 0.313954h 0.181345v 2.77815h 0.181345v -1.79517h 0.181345v -1.29693h 0.181345v 1.87196h 0.181345v -1.97518h 0.181345v -1.92892h
 0.181345v 5.51035h 0.181345v -1.25043h 0.181345v -0.588462h 0.181345v -2.04803h 0.181345v 1.81891h 0.181345v -0.883261h 0.181345v 0.657562h 0.181345v -0.332355h 0.181345v 0.444784h 0.181345v -2.20148h 0.181345v 0.495833h 0.181345v 1.04328h 0.181345v
 -3.46044h 0.181345v 2.0192h 0.181345v -0.858868h 0.181345v 1.15635h 0.181345v -1.06329h 0.181345v 0.570692h 0.181345v -1.65126h 0.36269v -0.428401h 0.181345v -0.741805h 0.181345v 1.25736h 0.181345v -1.96447h 0.181345v 1.53363h 0.181345v -2.35525h
 0.181345v 0.219687h 0.181345v -0.649713h 0.181345v 0.430026h 0.181345v -2.72059h 0.181345v 4.0893h 0.181345v -2.21687h 0.181345v 0.631618h 0.181345v 0.961596h 0.181345v -0.961596h 0.181345v 0.7342h 0.36269v -2.36321h 0.181345v 1.27485h 0.181345v
 3.26963h 0.181345v -2.62606h 0.181345v 0.073228h 0.181345v 2.90451h 0.181345v -1.9188h 0.181345v -0.763877h 0.181345v 1.32252h 0.181345v -0.636791h 0.181345v 1.21687h 0.181345v -1.82792h 0.181345v 0.226262h 0.181345v -2.32014h 0.181345v 2.16892h
 0.181345v -1.70564h 0.181345v -2.06952h 0.181345v 1.03073h 0.181345v -3.15942h 0.181345v 1.32964h 0.181345v -2.02615h 0.181345v -2.17039h 0.181345v -0.978555h 0.181345v -0.580925h 0.181345v -2.28751h 0.181345v -1.0411h 0.181345v -3.17789h 0.181345v
 -0.723657h 0.181345v 0.0235722h 0.181345v -1.09195h 0.181345v -1.05937h 0.181345v -0.66061h 0.181345v 0.0982561h 0.181345v -1.42869h 0.181345v 0.547942h 0.181345v -0.619524h 0.181345v 0.656769h 0.181345v 0.0186571h 0.181345v 0.785463h 0.181345v
 1.31396h 0.181345v -0.630156h 0.181345v 0.802729h 0.181345v 1.50429h 0.181345v 1.35283h 0.181345v 1.19945h 0.181345v 1.45827h 0.181345v 1.82408h 0.181345v 2.07469h 0.181345v 1.66526h 0.181345v 0.930851h 0.181345v 2.67082h 0.181345v 1.0065h 0.181345v
 3.19172h 0.36269v 0.0757974h 0.181345v 3.48869h 0.181345v 0.685236h 0.181345v -0.297483h 0.181345v 0.703455h 0.181345v 2.57295h 0.181345v 1.4047h 0.181345v -1.88479h 0.181345v 2.42977h 0.181345v -4.41941h 0.181345v 2.34827h 0.181345v 2.21051h
 0.181345v -1.33906h 0.181345v -0.62754h 0.181345v 1.96661h 0.181345v 1.31575h 0.181345v -3.28235h 0.181345v 6.13126h 0.181345v -5.63133h 0.181345v -0.983863h 0.181345v 2.45054h 0.181345v 0.140667h 0.181345v -3.28924h 0.181345v 1.80951h 0.181345v
 -1.69539h 0.181345v 1.95388h 0.181345v 0.396221h 0.181345v -0.782324h 0.181345v 0.517027h 0.181345v 0.67218h 0.181345v 0.84816h 0.181345v -1.65126h 0.181345v -0.258494h 0.181345v 0.78913h 0.181345v 0.272468h 0.181345v 0.138097h 0.181345v -1.071h
 0.181345v -0.128695h 0.181345v -0.379641h 0.181345v 2.2894h 0.36269v -1.25504h 0.181345v 1.69766h 0.181345v 1.74368h 0.181345v -2.89636h 0.36269v 1.15268h 0.181345v -2.09388h 0.181345v 2.86163h 0.181345v -1.78106h 0.181345v 1.62436h 0.181345v
 -1.62436h 0.181345v -0.414315h 0.181345v 3.34026h 0.181345v -1.45668h 0.181345v -0.752471h 0.181345v 3.44786h 0.181345v -3.882h 0.181345v 3.33865h 0.181345v -1.19668h 0.181345v -0.485225h 0.181345v -1.51342h 0.181345v 1.51342h 0.181345v -2.21687h
 0.181345v -1.44124h 0.181345v 3.65811h 0.181345v -1.22261h 0.181345v 2.04019h 0.181345v -1.13262h 0.181345v 0.315044h 0.181345v -2.48934h 0.181345v 3.81956h 0.181345v 1.08057h 0.181345v -6.19336h 0.181345v 2.85647h 0.181345v 2.96806h 0.181345v
 -2.81759h 0.181345v -0.150464h 0.181345v 1.41132h 0.181345v -2.14198h 0.181345v 0.881116h 0.181345v -2.24434h 0.181345v 3.01998h 0.181345v 0.321747h 0.181345v 0.664791h 0.181345v -2.78528h 0.181345v -0.280037h 0.181345v 2.564h 0.181345v -1.41132h
 0.181345v 0.150464h 0.181345v -1.30314h 0.181345v 1.00369h 0.181345v 1.07508h 0.181345v -1.9394h 0.181345v 1.31575h 0.181345v -0.151977h 0.181345v 0.305496h 0.181345v -2.93594h 0.181345v 0.649093h 0.181345v -0.132067h 0.181345v -2.53623h 0.181345v
 -0.545964h 0.181345v 1.22825h 0.181345v -1.85841h 0.181345v -0.995198h 0.181345v -1.024h 0.181345v -3.08347h 0.36269v -2.37289h 0.181345v -2.85081h 0.181345v -0.611055h 0.181345v -2.22368h 0.181345v -1.24017h 0.181345v -1.89966h 0.181345v -0.883758h
 0.181345v -0.423236h 0.181345v -0.349096h 0.181345v -2.61515h 0.181345v -2.13749h 0.181345v 0.184411h 0.181345v -0.0463141h 0.181345v -0.365493h 0.181345v -0.834201h 0.181345v -0.148773h 0.181345v 0.516291h 0.181345v -1.25911h 0.181345v 1.28101h
 0.181345v 0.741071h 0.181345v 0.302209h 0.181345v 0.260519h 0.181345v 1.58525h 0.181345v 0.705982h 0.181345v 1.03534h 0.181345v 1.14354h 0.181345v 2.35778h 0.181345v 0.96842h 0.181345v 1.25043h 0.181345v 2.09388h 0.181345v 1.5213h 0.181345v 3.87931h
 0.181345v 1.10966h 0.181345v 0.86884h 0.181345v 1.72021h 0.181345v 4.65694h 0.181345v -1.30541h 0.181345v 4.46432h 0.181345v -1.73006h 0.181345v 1.88358h 0.181345v 1.97518h 0.181345v 5.4438h 0.181345v 2.16391h 0.181345v -4.27732h 0.181345v 3.1567h
 0.181345v 5.08798h 0.181345v -5.61862h 0.181345v 1.65126h 0.36269v 2.18629h 0.181345v -2.18629h 0.181345v 1.85394h 0.181345v -0.643567h 0.181345v 0.975923h 0.181345v -3.30692h 0.181345v 1.71371h 0.181345v 0.935652h 0.181345v -2.917h 0.181345v
 0.81758h 0.181345v 2.09942h 0.181345v -3.43849h 0.181345v 0.78913h 0.181345v 2.0192h 0.181345v 0.955363h 0.181345v -0.643567h 0.181345v -4.11206h 0.181345v 3.80026h 0.181345v 1.28772h 0.181345v -0.657562h 0.181345v -2.37689h 0.181345v 1.44124h
 0.181345v 0.617292h 0.181345v -3.37428h 0.181345v -0.975923h 0.181345v 1.23007h 0.181345v 0.78913h 0.36269v 1.41426h 0.181345v 2.58012h 0.181345v 2.2725h 0.181345v -3.29232h 0.181345v -1.56031h 0.181345v -3.89878h 0.181345v 5.79144h 0.181345v
 -1.28772h 0.181345v -1.46927h 0.181345v 1.46927h 0.181345v -1.74673h 0.181345v -2.05353h 0.181345v 4.43042h 0.181345v -0.935652h 0.181345v 1.93304h 0.181345v -3.09681h 0.181345v 2.42463h 0.181345v -1.56031h 0.181345v 2.58012h 0.181345v -1.66338h
 0.181345v -2.86163h 0.181345v 0.803103h 0.181345v 1.14179h 0.36269v 1.56031h 0.181345v -1.56031h 0.181345v -0.864324h 0.181345v -2.80358h 0.181345v 3.37428h 0.181345v -0.288038h 0.181345v -2.12582h 0.181345v 0.762593h 0.181345v -0.762593h 0.181345v
 -0.487834h 0.181345v 2.05353h 0.181345v -0.540113h 0.181345v 1.10023h 0.181345v -1.87587h 0.181345v 2.75698h 0.181345v 1.59321h 0.181345v 2.95996h 0.181345v -5.43429h 0.181345v 5.03103h 0.181345v -4.44936h 0.181345v 0.916738h 0.181345v -2.59864h
 0.181345v -1.02558h 0.181345v 1.84316h 0.181345v 1.16377h 0.181345v 0.935652h 0.181345v 0.997387h 0.181345v 2.21687h 0.181345v -3.84441h 0.181345v -3.55831h 0.181345v 0.749983h 0.181345v 3.43849h 0.181345v 4.03184h 0.181345v -7.47033h 0.181345v
 3.12013h 0.181345v -0.617292h 0.181345v -0.299446h 0.181345v 0.916738h 0.181345v -2.86163h 0.181345v 4.17738h 0.181345v -2.52612h 0.181345v 3.59396h 0.181345v 1.14902h 0.181345v -3.84441h 0.181345v 2.69539h 0.181345v -5.50372h 0.181345v 2.50284h
 0.36269v 3.37428h 0.181345v -1.0936h 0.181345v 0.355818h 0.181345v -1.04328h 0.181345v -1.28772h 0.181345v 4.662h 0.181345v -4.662h 0.181345v 3.06878h 0.181345v -5.08798h 0.181345v 2.0192h 0.181345v -3.06248h 0.181345v 3.06248h 0.181345v -0.604943h
 0.36269v -2.70749h 0.181345v 5.64343h 0.181345v -0.703455h 0.181345v -1.31575h 0.181345v 4.3502h 0.181345v -6.13126h 0.181345v 2.09942h 0.181345v 3.61752h 0.181345v 1.73006h 0.181345v -4.3502h 0.181345v 5.79144h 0.181345v -3.1713h 0.181345v
 -3.29232h 0.181345v 0.332355h 0.181345v 2.5567h 0.181345v 0.81758h 0.181345v -4.3502h 0.181345v 2.75698h 0.181345v -2.11342h 0.181345v -0.325207h 0.181345v 1.70084h 0.36269v -1.70084h 0.181345v 0.997387h 0.181345v 1.82408h 0.181345v -3.45163h
 0.181345v 4.24768h 0.181345v -1.91668h 0.181345v 1.12063h 0.181345v 1.63636h 0.181345v -0.840302h 0.181345v -2.62014h 0.181345v -0.67218h 0.181345v 3.29232h 0.181345v -1.1789h 0.181345v 4.3502h 0.181345v -2.75698h 0.181345v -0.81758h 0.181345v
 -1.51342h 0.181345v 1.91668h 0.181345v -1.55229h 0.181345v -2.38359h 0.181345v 1.66338h 0.181345v 2.68682h 0.181345v 4.92089h 0.181345v -4.4949h 0.181345v -0.425987h 0.181345v 4.3502h 0.36269v -0.549935h 0.181345v -2.48452h 0.181345v 0.465315h
 0.181345v -0.465315h 0.181345v -4.3502h 0.181345v 6.30408h 0.181345v 0.530635h 0.181345v -2.93594h 0.181345v 4.05657h 0.181345v 3.22957h 0.181345v -4.3502h 0.181345v 2.331h 0.181345v -0.617292h 0.181345v -1.71371h 0.181345v 6.6812h 0.181345v -2.331h
 0.181345v -1.37563h 0.181345v 0.67218h 0.181345v -1.93304h 0.181345v 0.617292h 0.36269v -1.21037h 0.181345v 1.21037h 0.181345v 0.643567h 0.36269v 2.88905h 0.181345v 2.59864h 0.181345v -4.11206h 0.181345v -3.22957h 0.181345v 5.56057h 0.181345v
 -0.81758h 0.181345v -6.39425h 0.181345v 4.88084h 0.181345v 0.737783h 0.181345v 1.59321h 0.181345v 1.78106h 0.181345v 3.13983h 0.181345v -4.92089h 0.181345v -0.81758h 0.181345v 1.6819h 0.181345v -3.89878h 0.181345v 6.83472h 0.181345v -4.61784h
 0.181345v 3.57457h 0.181345v -5.08798h 0.36269v 1.51342h 0.181345v 4.61784h 0.181345v -11.0121h 0.181345v 6.39425h 0.181345v 0.81758h 0.181345v 4.92089h 0.181345v 1.21037h 0.181345v -6.13126h 0.181345v 10.4815h 0.181345v -12.0747h 0.181345v 9.04022h
 0.181345v -8.26459h 0.181345v 2.59864h 0.181345v -1.78106h 0.181345v 0.864324h 0.181345v 2.93594h 0.181345v 3.64674h 0.181345v -8.26459h 0.36269v 4.61784h 0.544034v 2.331h 0.181345v -3.37428h 0.181345v 1.04328h 0.181345v -3.80026h 0.181345v 1.78106h
 0.181345v -6.13126h 0.181345v 11.7972h 0.181345v -12.4145h 0.181345v -3.25282h 0.181345v 3.87011h 0.181345v 6.13126h 0.181345v -4.11206h 0.181345v 4.11206h 0.181345v -1.78106h 0.181345v -6.13126h 0.181345v -1.59321h 0.181345v 6.13126h 0.181345v
 -3.37428h 0.181345v -5.08798h 0.181345v 2.84364h 0.181345v -4.48h 0.181345v 3.96736h 0.181345v -5.4438h 0.181345v 3.55114h 0.181345v -3.55114h 0.181345v 2.68682h 0.181345v 0.864324h 0.181345v -4.2386h 0.181345v 0.687462h 0.36269v 1.86923h 0.181345v
 5.16778h 0.181345v -5.16778h 0.181345v 3.57457h 0.181345v -1.89266h 0.181345v 3.48588h 0.181345v -4.76451h 0.181345v -0.403265h 0.181345v 2.59864h 0.181345v 2.56914h 0.36269v -2.08905h 0.181345v 0.495833h 0.36269v 1.04328h 0.181345v 1.12063h
 0.181345v -4.4949h 0.181345v 0.438337h 0.181345v 8.02392h 0.181345v -2.11342h 0.181345v 7.5069h 0.181345v -9.36083h 0.181345v -1.12063h 0.181345v 2.97457h 0.181345v -2.97457h 0.181345v 0.549935h 0.181345v -3.03445h 0.181345v 3.03445h 0.181345v
 -5.56057h 0.181345v 6.13126h 0.181345v 1.21037h 0.181345v -4.81552h 0.181345v -1.73006h 0.181345v -0.796055h 0.181345v -2.49626h 0.181345v -2.42463h 0.181345v 2.42463h 0.181345v -0.955363h 0.181345v -5.81947h 0.181345v 1.31575h 0.181345v -1.31575h
 0.181345v -0.81758h 0.181345v -0.39279h 0.181345v -0.939529h 0.181345v -3.98136h 0.181345v -1.33906h 0.181345v -0.62754h 0.181345v 0.499932h 0.181345v -2.12998h 0.181345v 2.91231h 0.181345v -2.46423h 0.181345v 0.114125h 0.181345v -2.331h 0.181345v
 1.12063h 0.181345v -4.37661h 0.181345v 3.06087h 0.181345v -4.13051h 0.181345v 3.65345h 0.181345v -2.50443h 0.181345v -1.00077h 0.181345v 0.763877h 0.181345v 0.0785537h 0.181345v -2.19538h 0.181345v 0.985007h 0.181345v -0.570692h 0.181345v 0.716795h
 0.181345v -1.19907h 0.181345v 1.95154h 0.181345v -1.46927h 0.181345v 0.354151h 0.181345v 0.362645h 0.181345v -2.62181h 0.181345v 0.82444h 0.181345v -1.60624h 0.181345v 2.20454h 0.181345v -1.29879h 0.181345v 0.897304h 0.181345v -0.772332h 0.181345v
 -2.21402h 0.181345v 2.08905h 0.181345v -2.08905h 0.181345v 1.18329h 0.181345v 0.658865h 0.181345v -0.182556h 0.181345v -1.16377h 0.181345v 0.923741h 0.181345v 1.04753h 0.181345v -0.502006h 0.181345v 2.25916h 0.181345v -1.17173h 0.181345v 2.13333h
 0.181345v 2.39477h 0.181345v -2.08616h 0.181345v 3.19991h 0.181345v 1.95056h 0.181345v -1.36134h 0.181345v 0.61312h 0.181345v 2.48824h 0.181345v 2.83093h 0.181345v 0.916738h 0.181345v 2.0192h 0.181345v 0.549935h 0.181345v -2.56914h 0.181345v 8.7004h
 0.181345v -0.81758h 0.181345v 2.917h 0.181345v 3.21426h 0.181345v 2.13333h 0.181345v 3.03445h 0.181345v -2.08905h 0.36269v 10.9773h 0.181345v -5.08798h 0.36269v 14.5935h 0.181345v -8.46226h 0.181345v -2.0192h 0.181345v 4.3502h 0.181345v 37.5756h
 0.181345v -33.2254h 0.36269v 8.88825h 0.181345v -7.10718h 0.181345v 7.10718h 0.181345v 7.72448h 0.181345v -10.4815h 0.181345v -4.3502h 0.181345v 4.3502h 0.181345v 27.0942h 0.181345v -20.9629h 0.181345v -6.13126h 0.181345v 6.13126h 0.181345v 4.3502h
 0.181345v -7.72448h 0.181345v 7.72448h 0.36269v -4.3502h 0.181345v 10.4815h 0.36269v -20.9629h 0.36269v 14.8317h 0.181345v -4.3502h 0.36269v -3.37428h 0.181345v 7.72448h 0.544034v 16.6127h 0.181345v -24.3372h 0.181345v 3.37428h 0.181345v -3.37428h
 0.181345v -5.08798h 0.36269v 5.08798h 0.181345v 13.8557h 0.181345v -10.4815h 0.36269v -3.37428h 0.36269v 24.3372h 0.181345v -20.9629h 0.181345v -6.13126h 0.544034v 10.4815h 0.181345v -4.3502h 0.181345v -3.37428h 0.181345v 3.37428h 0.181345v 31.4444h
 0.181345v -34.8187h 0.181345v -2.75698h 0.181345v 6.13126h 0.181345v 4.3502h 0.36269v -4.3502h 0.181345v -3.37428h 0.181345v 3.37428h 0.181345v -6.13126h 0.181345v -2.331h 0.181345v 8.46226h 0.181345v -3.37428h 0.181345v 13.8557h 0.181345v -16.6127h
 0.181345v 2.75698h 0.36269v 3.37428h 0.181345v 4.3502h 0.181345v -4.3502h 0.36269v -3.37428h 0.181345v -2.75698h 0.181345v -4.3502h 0.181345v 7.10718h 0.181345v -8.88825h 0.181345v 8.88825h 0.181345v -5.08798h 0.181345v -8.15046h 0.181345v 4.3502h
 0.181345v 1.78106h 0.181345v -7.34163h 0.36269v 1.21037h 0.181345v -2.331h 0.36269v 5.08798h 0.181345v -5.08798h 0.181345v 6.6812h 0.181345v -4.3502h 0.181345v -1.21037h 0.181345v -7.25189h 0.181345v 6.13126h 0.181345v -8.15046h 0.181345v 11.7972h
 0.181345v -7.44701h 0.181345v 1.78106h 0.181345v -3.37428h 0.181345v 0.775634h 0.181345v -4.14991h 0.181345v 4.14991h 0.181345v 1.6819h 0.181345v -6.42489h 0.181345v 3.96736h 0.181345v -3.37428h 0.181345v 0.617292h 0.181345v 3.53262h 0.181345v
 3.57457h 0.181345v 3.37428h 0.181345v -6.13126h 0.181345v 10.4815h 0.181345v -9.61714h 0.181345v 4.05657h 0.181345v -4.05657h 0.181345v 0.916738h 0.36269v 8.7004h 0.181345v 6.13126h 0.181345v -2.331h 0.181345v 8.46226h 0.181345v -8.46226h 0.181345v
 2.331h 0.181345v -4.3502h 0.36269v 20.9629h 0.181345v -10.4815h 0.181345v 4.3502h 0.181345v -7.72448h 0.181345v 3.37428h 0.181345v 4.3502h 0.181345v -4.3502h 0.181345v 10.4815h 0.181345v -10.4815h 0.181345v 20.9629h 0.181345v -31.4444h 0.181345v
 14.8317h 0.36269v 6.13126h 0.181345v -6.13126h 0.36269v -7.72448h 0.181345v -5.08798h 0.181345v 8.46226h 0.181345v 20.9629h 0.181345v -10.4815h 0.181345v -10.4815h 0.181345v 10.4815h 0.36269v -18.9437h 0.181345v 18.9437h 0.36269v 20.9629h 0.181345v
 -34.8187h 0.181345v 13.8557h 0.36269v -6.13126h 0.181345v -4.3502h 0.36269v 20.9629h 0.181345v -20.9629h 0.181345v 4.3502h 0.181345v 6.13126h 0.181345v -10.4815h 0.181345v 10.4815h 0.181345v -13.8557h 0.181345v 3.37428h 0.181345v 4.3502h 0.36269v
 6.13126h 0.181345v -10.4815h 0.36269v 4.3502h 0.181345v -4.3502h 0.181345v 20.9629h 0.181345v -27.0942h 0.181345v 27.0942h 0.181345v -16.6127h 0.181345v 16.6127h 0.181345v -27.0942h 0.181345v -2.331h 0.181345v 39.9066h 0.181345v -34.8187h 0.181345v
 -8.88825h 0.181345v 16.6127h 0.181345v -4.3502h 0.181345v -8.46226h 0.181345v 18.9437h 0.181345v -13.8557h 0.181345v -2.75698h 0.181345v -2.331h 0.181345v 8.46226h 0.181345v -13.8557h 0.181345v 7.72448h 0.181345v 2.75698h 0.181345v -10.4815h
 0.181345v 1.59321h 0.181345v 16.6127h 0.181345v -7.72448h 0.181345v -7.10718h 0.181345v 4.3502h 0.181345v 6.13126h 0.181345v -12.2625h 0.181345v 3.80026h 0.181345v 2.331h 0.181345v -10.4815h 0.181345v 4.3502h 0.181345v -10.4815h 0.181345v 8.88825h
 0.181345v 1.59321h 0.36269v 1.78106h 0.181345v 2.0192h 0.181345v 8.46226h 0.181345v -3.37428h 0.181345v -2.75698h 0.181345v -2.331h 0.181345v -3.80026h 0.181345v 8.88825h 0.181345v -8.88825h 0.181345v 3.80026h 0.36269v -2.0192h 0.181345v -6.13126h
 0.181345v 2.75698h 0.181345v 1.59321h 0.36269v 12.2625h 0.181345v -3.37428h 0.181345v -8.88825h 0.181345v 12.2625h 0.181345v -3.37428h 0.181345v -7.10718h 0.181345v 2.0192h 0.181345v 2.331h 0.181345v -4.3502h 0.181345v 10.4815h 0.181345v -3.37428h
 0.181345v -7.10718h 0.181345v 14.8317h 0.181345v -10.4815h 0.181345v 2.75698h 0.36269v -7.10718h 0.181345v 7.10718h 0.181345v -8.88825h 0.181345v 22.744h 0.181345v -6.13126h 0.181345v 6.13126h 0.181345v -6.13126h 0.181345v -12.8125h 0.36269v 2.331h
 0.181345v 6.13126h 0.181345v -3.37428h 0.181345v 13.8557h 0.36269v -13.8557h 0.36269v 3.37428h 0.181345v -6.13126h 0.36269v 2.75698h 0.181345v 13.8557h 0.181345v -10.4815h 0.181345v -10.4815h 0.181345v 2.0192h 0.181345v 8.46226h 0.181345v -8.46226h
 0.181345v -2.0192h 0.181345v 7.10718h 0.36269v -2.75698h 0.181345v -4.3502h 0.181345v 2.0192h 0.181345v -3.80026h 0.181345v 12.2625h 0.181345v -17.8231h 0.181345v 11.6918h 0.181345v -9.16571h 0.181345v 6.83472h 0.181345v -10.4815h 0.181345v 12.8125h
 0.181345v -14.8317h 0.181345v 5.66595h 0.181345v 1.44124h 0.181345v 1.59321h 0.181345v 12.2625h 0.181345v -3.37428h 0.181345v -7.10718h 0.181345v 4.3502h 0.181345v -7.72448h 0.36269v 1.59321h 0.181345v 3.80026h 0.181345v -3.80026h 0.36269v 3.80026h
 0.181345v -5.39348h 0.181345v 13.8557h 0.181345v -17.8231h 0.181345v 5.56057h 0.181345v -3.03445h 0.181345v 3.03445h 0.181345v 3.80026h 0.181345v -5.39348h 0.181345v 18.2059h 0.181345v -12.8125h 0.181345v -6.83472h 0.181345v -4.69002h 0.181345v
 9.50554h 0.181345v -8.46226h 0.181345v 5.08798h 0.181345v 5.39348h 0.36269v -10.4815h 0.181345v 3.64674h 0.181345v -1.31575h 0.181345v 10.4815h 0.181345v -14.8317h 0.181345v 7.10718h 0.181345v -5.08798h 0.181345v 10.4815h 0.181345v 2.331h 0.181345v
 -6.13126h 0.181345v 1.78106h 0.181345v -6.13126h 0.181345v 8.15046h 0.181345v -8.15046h 0.181345v 1.31575h 0.36269v 1.44124h 0.181345v -6.13126h 0.181345v 6.13126h 0.181345v 10.4815h 0.181345v -8.88825h 0.181345v -6.6812h 0.181345v -2.0192h
 0.181345v 7.10718h 0.181345v -8.88825h 0.181345v 12.2625h 0.181345v -6.13126h 0.181345v 2.75698h 0.181345v -6.13126h 0.181345v 2.16391h 0.181345v -4.05657h 0.181345v -2.45754h 0.181345v 10.4815h 0.181345v -5.08798h 0.181345v -3.80026h 0.181345v
 0.864324h 0.181345v 1.89266h 0.181345v -1.89266h 0.181345v 8.02392h 0.181345v -6.13126h 0.36269v 3.37428h 0.181345v -6.13126h 0.181345v -0.81758h 0.181345v 17.4303h 0.181345v -19.6472h 0.181345v 7.95534h 0.181345v -1.12063h 0.181345v 8.46226h
 0.181345v -9.50554h 0.181345v 16.6127h 0.181345v -15.5694h 0.181345v -4.61784h 0.181345v 3.57457h 0.181345v -0.975923h 0.36269v -4.81552h 0.181345v 10.4815h 0.181345v -7.44701h 0.181345v 1.78106h 0.181345v -3.37428h 0.181345v -2.11342h 0.181345v
 9.83789h 0.181345v -6.94884h 0.36269v 1.6819h 0.181345v -3.89878h 0.36269v 1.44124h 0.36269v 6.51411h 0.181345v 1.21037h 0.181345v -12.2625h 0.181345v 6.13126h 0.181345v 2.75698h 0.181345v -5.79144h 0.181345v 4.81552h 0.181345v -5.48769h 0.36269v
 -1.26086h 0.181345v -4.64965h 0.181345v 8.79956h 0.36269v 2.59864h 0.181345v -4.11206h 0.181345v -2.0192h 0.181345v -4.3502h 0.181345v -0.465315h 0.181345v 4.81552h 0.181345v -1.21037h 0.181345v 3.22957h 0.181345v 0.737783h 0.181345v -3.96736h
 0.181345v -2.65974h 0.181345v 5.18586h 0.181345v -0.67218h 0.181345v 0.67218h 0.181345v -4.17738h 0.181345v 3.5052h 0.36269v -1.26086h 0.36269v 1.26086h 0.544034v -5.91051h 0.181345v 3.48588h 0.181345v 6.13126h 0.181345v 0.864324h 0.181345v 2.93594h
 0.181345v -7.5069h 0.181345v -0.643567h 0.181345v 2.0192h 0.181345v 4.11206h 0.181345v 0.975923h 0.181345v -7.72448h 0.181345v 4.14991h 0.181345v -3.53262h 0.36269v -1.21037h 0.181345v 7.34163h 0.181345v -7.91232h 0.181345v 5.31368h 0.181345v
 4.61784h 0.181345v -5.39348h 0.181345v 0.775634h 0.181345v -2.21687h 0.181345v -5.66595h 0.181345v 7.10718h 0.181345v 5.39348h 0.181345v -5.39348h 0.181345v 5.39348h 0.181345v 3.64674h 0.181345v -11.1536h 0.181345v 7.5069h 0.181345v -6.13126h
 0.181345v 4.11206h 0.181345v 2.0192h 0.181345v 8.46226h 0.181345v -14.5935h 0.36269v -0.703455h 0.181345v -0.67218h 0.181345v 3.70663h 0.181345v -2.331h 0.181345v 5.08798h 0.181345v -0.975923h 0.181345v 3.13983h 0.181345v -3.13983h 0.181345v
 -0.916738h 0.181345v 5.26694h 0.181345v 4.3502h 0.181345v -7.72448h 0.181345v -1.89266h 0.181345v 6.58268h 0.181345v -3.64674h 0.181345v 1.12063h 0.181345v -1.12063h 0.181345v -2.93594h 0.181345v -3.19532h 0.544034v 9.77801h 0.36269v -5.66595h
 0.181345v -2.59864h 0.181345v 4.61784h 0.181345v 6.6812h 0.181345v -10.4815h 0.181345v -1.59321h 0.181345v 9.04022h 0.181345v 6.83472h 0.181345v -10.4815h 0.181345v 8.46226h 0.181345v 2.0192h 0.181345v -10.4815h 0.181345v 1.12063h 0.181345v 2.52612h
 0.181345v -9.77801h 0.181345v 7.25189h 0.181345v -5.73847h 0.181345v 11.299h 0.181345v -4.3502h 0.181345v -1.21037h 0.181345v -2.16391h 0.36269v 4.69002h 0.181345v -7.44701h 0.181345v 4.92089h 0.181345v 1.21037h 0.36269v -5.26694h 0.181345v
 -2.45754h 0.181345v 5.39348h 0.181345v 8.46226h 0.181345v -10.4815h 0.36269v 4.3502h 0.181345v -2.331h 0.181345v 1.12063h 0.181345v -4.92089h 0.181345v 4.92089h 0.181345v -3.13983h 0.181345v 4.3502h 0.181345v -5.26694h 0.181345v 8.02392h 0.181345v
 -3.96736h 0.181345v -2.16391h 0.181345v -0.975923h 0.181345v 5.66595h 0.181345v -4.69002h 0.181345v 1.04328h 0.36269v -8.15046h 0.181345v 5.21452h 0.181345v -1.6819h 0.181345v 1.6819h 0.181345v 5.26694h 0.181345v -1.21037h 0.181345v -3.13983h
 0.181345v -3.37428h 0.181345v -0.737783h 0.181345v 7.25189h 0.181345v -7.95534h 0.181345v 5.79144h 0.181345v -0.975923h 0.181345v 2.0192h 0.181345v -1.04328h 0.181345v 2.16391h 0.181345v 1.21037h 0.181345v 4.3502h 0.181345v -9.61714h 0.181345v
 -4.57096h 0.181345v 5.48769h 0.181345v 12.5007h 0.181345v -16.6127h 0.181345v 2.331h 0.181345v -0.81758h 0.181345v -1.51342h 0.181345v 3.19532h 0.181345v 2.93594h 0.181345v 3.64674h 0.181345v -9.04022h 0.181345v 1.59321h 0.181345v 2.75698h 0.181345v
 -5.08798h 0.181345v 6.13126h 0.181345v -3.80026h 0.36269v 12.2625h 0.181345v -15.297h 0.181345v -2.52612h 0.181345v 6.42489h 0.181345v 1.89266h 0.181345v 3.37428h 0.181345v -6.94884h 0.181345v 1.6819h 0.181345v -0.864324h 0.181345v 4.92089h
 0.181345v -1.12063h 0.181345v 2.331h 0.181345v -4.3502h 0.181345v -5.48769h 0.181345v 3.70663h 0.181345v 0.864324h 0.36269v 1.89266h 0.181345v -6.46362h 0.181345v 6.46362h 0.181345v 1.04328h 0.181345v -2.0192h 0.181345v -2.59864h 0.181345v
 -0.775634h 0.181345v -5.08798h 0.181345v 1.71371h 0.181345v -2.75698h 0.181345v 7.72448h 0.181345v -0.81758h 0.181345v 2.59864h 0.181345v -6.13126h 0.181345v 1.31575h 0.181345v 2.21687h 0.181345v -0.775634h 0.181345v 3.37428h 0.181345v -4.11206h
 0.181345v 1.51342h 0.181345v -1.51342h 0.181345v 1.51342h 0.181345v 0.81758h 0.181345v -5.56057h 0.36269v 1.85394h 0.181345v -1.26086h 0.181345v 1.93304h 0.181345v 6.83472h 0.181345v -10.4815h 0.181345v 1.71371h 0.181345v 1.93304h 0.181345v
 -0.67218h 0.181345v 2.88905h 0.36269v -5.31368h 0.181345v 3.09681h 0.181345v 3.89878h 0.181345v -2.45754h 0.181345v 0.775634h 0.181345v -4.74299h 0.181345v -1.65126h 0.181345v 5.61862h 0.181345v 2.45754h 0.181345v -0.864324h 0.181345v 4.92089h
 0.181345v -8.62752h 0.36269v 7.5069h 0.181345v -8.76776h 0.181345v -0.593078h 0.181345v 7.34163h 0.181345v -3.37428h 0.181345v -2.11342h 0.181345v -1.85394h 0.181345v 7.34163h 0.181345v 3.13983h 0.181345v -3.13983h 0.181345v -4.81552h 0.181345v
 9.16571h 0.181345v -6.94884h 0.181345v -0.775634h 0.181345v 7.72448h 0.181345v 2.75698h 0.181345v -3.96736h 0.36269v 3.96736h 0.181345v -11.2192h 0.181345v 4.11206h 0.181345v 2.0192h 0.181345v 1.12063h 0.181345v -7.25189h 0.181345v 2.331h 0.181345v
 1.78106h 0.181345v 0.975923h 0.181345v -0.975923h 0.181345v 7.10718h 0.181345v 3.37428h 0.181345v -7.34163h 0.181345v -2.16391h 0.181345v 11.5247h 0.181345v -17.3162h 0.181345v 15.297h 0.181345v -8.46226h 0.181345v 3.64674h 0.181345v -6.58268h
 0.181345v 6.58268h 0.36269v -9.04022h 0.181345v 7.72448h 0.36269v -6.94884h 0.181345v 11.299h 0.181345v -1.59321h 0.181345v -12.5949h 0.181345v 1.37563h 0.181345v -1.37563h 0.181345v 5.48769h 0.181345v 4.3502h 0.181345v 2.75698h 0.181345v -8.02392h
 0.181345v -1.6819h 0.181345v -0.775634h 0.181345v 4.3502h 0.181345v -7.10718h 0.181345v 7.10718h 0.181345v 3.37428h 0.181345v 2.75698h 0.181345v -6.13126h 0.181345v -0.975923h 0.181345v 8.7004h 0.181345v -8.7004h 0.181345v 0.975923h 0.181345v
 4.69002h 0.181345v -5.66595h 0.181345v 2.0192h 0.181345v 6.6812h 0.181345v -6.6812h 0.36269v 6.6812h 0.181345v -6.6812h 0.181345v 1.12063h 0.36269v -1.12063h 0.181345v 2.331h 0.181345v 8.15046h 0.181345v -6.83472h 0.181345v -1.31575h 0.181345v
 2.75698h 0.181345v 7.72448h 0.181345v -10.4815h 0.181345v 4.3502h 0.181345v 1.78106h 0.181345v 2.0192h 0.181345v -10.4815h 0.181345v 3.64674h 0.181345v 6.83472h 0.181345v -8.15046h 0.181345v 2.75698h 0.181345v -3.96736h 0.181345v 7.34163h 0.181345v
 2.0192h 0.181345v -9.36083h 0.181345v 5.56057h 0.181345v 6.13126h 0.181345v -2.331h 0.181345v -6.83472h 0.181345v 11.9227h 0.181345v -11.9227h 0.181345v 6.83472h 0.181345v -3.80026h 0.181345v 3.80026h 0.181345v 5.08798h 0.181345v -5.08798h 0.181345v
 -3.80026h 0.181345v 3.80026h 0.181345v 2.331h 0.181345v -2.331h 0.181345v -2.0192h 0.181345v -1.78106h 0.906724v -3.03445h 0.181345v -1.31575h 0.181345v 13.2384h 0.181345v -5.08798h 0.36269v -3.80026h 0.181345v 3.80026h 0.181345v -3.80026h 0.181345v
 8.88825h 0.181345v -2.75698h 0.181345v -9.16571h 0.181345v 11.9227h 0.181345v -7.10718h 0.181345v 2.0192h 0.181345v 8.46226h 0.181345v -10.4815h 0.181345v 10.4815h 0.181345v -10.4815h 0.181345v -4.81552h 0.36269v 9.16571h 0.181345v -4.3502h
 0.181345v -9.50554h 0.181345v 7.72448h 0.181345v 3.80026h 0.181345v 8.46226h 0.181345v -19.987h 0.181345v 7.72448h 0.181345v 43.7069h 0.181345v -43.7069h 0.181345v -7.72448h 0.181345v 4.69002h 0.181345v 11.9227h 0.181345v -10.4815h 0.181345v
 -2.75698h 0.181345v 16.6127h 0.181345v -19.987h 0.181345v 24.3372h 0.181345v -19.6472h 0.181345v 6.83472h 0.181345v -2.0192h 0.181345v 7.10718h 0.181345v -2.75698h 0.181345v -7.72448h 0.181345v 5.39348h 0.544034v -9.36083h 0.181345v 7.34163h
 0.181345v -1.78106h 0.181345v -8.7004h 0.181345v 8.7004h 0.181345v 3.80026h 0.181345v 5.08798h 0.181345v -15.5694h 0.181345v 8.46226h 0.181345v -8.46226h 0.181345v 6.6812h 0.181345v 6.13126h 0.181345v -4.3502h 0.181345v 4.3502h 0.181345v -7.72448h
 0.36269v -1.44124h 0.181345v 4.81552h 0.181345v -4.81552h 0.181345v 19.6472h 0.181345v -10.4815h 0.181345v -6.13126h 0.181345v 1.78106h 0.181345v -8.46226h 0.181345v 6.6812h 0.181345v -4.3502h 0.181345v 6.13126h 0.181345v -4.81552h 0.36269v 11.9227h
 0.181345v -14.4488h 0.181345v 5.56057h 0.181345v 1.78106h 0.181345v 10.4815h 0.181345v -13.8557h 0.181345v -2.75698h 0.181345v 4.3502h 0.181345v -4.3502h 0.181345v 2.75698h 0.181345v 13.8557h 0.181345v -17.8231h 0.181345v 14.4488h 0.181345v 3.37428h
 0.181345v -13.8557h 0.181345v -3.96736h 0.181345v 14.4488h 0.181345v -11.9227h 0.181345v -3.64674h 0.181345v 3.64674h 0.181345v 6.83472h 0.181345v -6.83472h 0.181345v -5.66595h 0.181345v 10.4815h 0.181345v -1.78106h 0.181345v -5.56057h 0.181345v
 1.21037h 0.181345v -2.331h 0.181345v 5.08798h 0.181345v -1.44124h 0.181345v 4.81552h 0.181345v -3.37428h 0.181345v -3.96736h 0.181345v 7.34163h 0.181345v -3.37428h 0.181345v -6.13126h 0.181345v 3.37428h 0.36269v -1.21037h 0.36269v -2.16391h
 0.181345v 2.16391h 0.181345v -4.05657h 0.181345v 11.3982h 0.181345v -4.81552h 0.181345v -8.26459h 0.181345v -0.775634h 0.36269v -0.737783h 0.181345v 4.11206h 0.181345v -6.74855h 0.181345v 8.76776h 0.181345v 5.08798h 0.181345v -9.70583h 0.181345v
 4.61784h 0.181345v -2.93594h 0.181345v 2.93594h 0.181345v -2.93594h 0.181345v -3.89878h 0.181345v 1.44124h 0.181345v 3.37428h 0.181345v 5.66595h 0.181345v -9.04022h 0.181345v 4.3502h 0.181345v -7.10718h 0.181345v 2.75698h 0.181345v 6.51411h
 0.181345v -3.13983h 0.181345v -3.37428h 0.181345v 5.39348h 0.181345v -3.80026h 0.181345v -3.03445h 0.181345v 13.5159h 0.181345v -10.4815h 0.181345v 2.75698h 0.181345v -1.89266h 0.181345v 0.916738h 0.181345v 0.975923h 0.181345v -1.89266h 0.36269v
 1.89266h 0.181345v -4.3502h 0.181345v 1.59321h 0.181345v 6.13126h 0.181345v -6.13126h 0.544034v 0.864324h 0.181345v 0.916738h 0.181345v 0.975923h 0.181345v -3.57457h 0.181345v -0.775634h 0.181345v 7.72448h 0.181345v -1.21037h 0.36269v 3.96736h
 0.181345v -6.13126h 0.181345v 1.04328h 0.181345v -3.80026h 0.181345v 12.2625h 0.181345v -6.13126h 0.36269v 1.31575h 0.181345v 4.81552h 0.181345v 7.10718h 0.181345v 3.37428h 0.181345v -15.297h 0.181345v 11.9227h 0.181345v -10.4815h 0.181345v 5.39348h
 0.181345v -6.83472h 0.181345v 1.44124h 0.181345v 18.2059h 0.36269v -12.8125h 0.181345v 18.9437h 0.181345v -16.6127h 0.181345v 27.0942h 0.181345v -16.6127h 0.181345v -4.3502h 0.181345v 4.3502h 0.181345v 16.6127h 0.181345v -24.3372h 0.181345v 13.8557h
 0.181345v -6.13126h 0.181345v -4.3502h 0.181345v -3.37428h 0.181345v 24.3372h 0.181345v -16.6127h 0.181345v 16.6127h 0.544034v -10.4815h 0.181345v 10.4815h 0.181345v -10.4815h 0.181345v -6.13126h 0.181345v 6.13126h 0.181345v -6.13126h 0.181345v
 27.0942h 0.181345v -10.4815h 0.181345v -24.3372h 0.181345v 24.3372h 0.36269v 10.4815h 0.181345v -10.4815h 0.181345v 10.4815h 0.181345v -20.9629h 0.181345v 10.4815h 0.36269v 10.4815h 0.181345v -20.9629h 0.181345v 10.4815h 0.181345v -10.4815h
 0.181345v 10.4815h 0.181345v -10.4815h 0.181345v -10.4815h 0.181345v 20.9629h 0.181345v -10.4815h 0.181345v 10.4815h 0.725379v -10.4815h 0.181345v 20.9629h 0.181345v -20.9629h 0.181345v 10.4815h 0.36269v 10.4815h 0.36269v -10.4815h 0.181345v
 10.4815h 0.181345v -10.4815h 0.36269v -10.4815h 0.181345v 10.4815h 0.181345v -16.6127h 0.181345v 16.6127h 0.181345v 10.4815h 0.544034v -20.9629h 0.181345v 10.4815h 0.36269v 10.4815h 0.181345v -10.4815h 0.181345v 10.4815h 0.906724v -10.4815h
 0.181345v 10.4815h 0.181345v -10.4815h 0.36269v 10.4815h 0.36269v -10.4815h 0.544034v -16.6127h 0.181345v 16.6127h 0.544034v 10.4815h 0.181345v -10.4815h 0.544034v -16.6127h 0.36269v 6.13126h 0.181345v 20.9629h 0.181345v -10.4815h 0.36269v 10.4815h
 0.36269v -20.9629h 0.181345v -6.13126h 0.181345v 16.6127h 0.181345v 10.4815h 0.181345v -27.0942h 0.181345v 16.6127h 0.181345v -10.4815h 0.36269v 10.4815h 0.181345v 10.4815h 0.181345v -27.0942h 0.181345v 16.6127h 0.36269v -10.4815h 0.181345v 20.9629h
 0.181345v -10.4815h 0.544034v 10.4815h 0.36269v -10.4815h 0.181345v 10.4815h 0.181345v -34.8187h 0.181345v 24.3372h 0.36269v 10.4815h 0.36269v -20.9629h 0.181345v 10.4815h 0.181345v 10.4815h 0.181345v -20.9629h 0.181345v 10.4815h 0.181345v -20.9629h
 0.181345v 31.4444h 0.181345v -27.0942h 0.181345v 6.13126h 0.181345v 10.4815h 0.181345v -10.4815h 0.181345v 20.9629h 0.725379v -10.4815h 0.36269v 10.4815h 0.36269v -10.4815h 0.544034v -10.4815h 0.181345v 10.4815h 0.181345v 10.4815h 0.36269v -27.0942h
 0.181345v 27.0942h 0.544034v -10.4815h 0.181345v 10.4815h 0.181345v -10.4815h 0.181345v 10.4815h 0.181345v -20.9629h 0.181345v 20.9629h 0.181345v -10.4815h 0.181345v -10.4815h 0.181345v 20.9629h 0.725379v -20.9629h 0.181345v 10.4815h 0.181345v
 10.4815h 0.181345v -10.4815h 0.181345v 10.4815h 0.36269v -10.4815h 0.181345v 10.4815h 0.544034v -10.4815h 0.181345v 10.4815h 0.181345v -10.4815h 0.181345v -10.4815h 0.36269v 10.4815h 0.181345v 10.4815h 0.181345v -10.4815h 0.181345v -16.6127h
 0.181345v 16.6127h 0.181345v 10.4815h 0.36269v -10.4815h 0.181345v 10.4815h 0.181345v -20.9629h 0.181345v 20.9629h 0.725379v -10.4815h 0.181345v 10.4815h 0.181345v -10.4815h 0.544034v -10.4815h 0.181345v 20.9629h 0.36269v -10.4815h 0.181345v
 10.4815h 0.181345v -20.9629h 0.36269v 10.4815h 0.36269v 10.4815h 0.181345v -20.9629h 0.181345v 20.9629h 0.181345v -10.4815h 0.181345v -10.4815h 0.181345v 10.4815h 0.544034v -16.6127h 0.181345v 6.13126h 0.181345v 20.9629h 0.36269v -20.9629h 0.36269v
 20.9629h 0.181345v -10.4815h 0.181345v -16.6127h 0.181345v 16.6127h 0.36269v 10.4815h 0.36269v -10.4815h 0.181345v 10.4815h 0.181345v -10.4815h 0.36269v -16.6127h 0.181345v 16.6127h 0.36269v 10.4815h 0.725379v -10.4815h 0.36269v 10.4815h 0.181345v
 -20.9629h 0.181345v 20.9629h 0.181345v -10.4815h 0.725379v 10.4815h 0.36269v -31.4444h 0.181345v 31.4444h 0.544034v -27.0942h 0.181345v 16.6127h 0.181345v 10.4815h 0.181345v -10.4815h 0.181345v -10.4815h 0.181345v 10.4815h 0.181345v 10.4815h
 0.725379v -10.4815h 0.181345v 10.4815h 0.544034v -10.4815h 0.181345v -10.4815h 0.181345v 20.9629h 0.544034v -20.9629h 0.181345v 20.9629h 0.181345v -20.9629h 0.181345v 10.4815h 0.544034v 10.4815h 0.181345v -10.4815h 0.181345v 10.4815h 0.36269v
 -20.9629h 0.181345v 20.9629h 0.181345v -10.4815h 0.181345v 10.4815h 0.181345v -37.5756h 0.181345v 27.0942h 0.181345v 10.4815h 0.725379v -20.9629h 0.181345v 10.4815h 0.181345v 10.4815h 0.725379v -10.4815h 0.181345v 10.4815h 0.544034v -10.4815h
 0.181345" fill="none" stroke="black"/>
<path d="M57.1929,280.151h 453.543" fill="none" stroke="black"/>
<path d="M57.1929,272.68v 7.47068" fill="none" stroke="black"/>
<path d="M75.3318,276.415v 3.73534" fill="none" stroke="black"/>
<path d="M93.4707,276.415v 3.73534" fill="none" stroke="black"/>
<path d="M111.61,276.415v 3.73534" fill="none" stroke="black"/>
<path d="M129.749,276.415v 3.73534" fill="none" stroke="black"/>
<path d="M147.887,272.68v 7.47068" fill="none" stroke="black"/>
<path d="M166.026,276.415v 3.73534" fill="none" stroke="black"/>
<path d="M184.165,276.415v 3.73534" fill="none" stroke="black"/>
<path d="M202.304,276.415v 3.73534" fill="none" stroke="black"/>
<path d="M220.443,276.415v 3.73534" fill="none" stroke="black"/>
<path d="M238.582,272.68v 7.47068" fill="none" stroke="black"/>
<path d="M256.721,276.415v 3.73534" fill="none" stroke="black"/>
<path d="M274.86,276.415v 3.73534" fill="none" stroke="black"/>
<path d="M292.999,276.415v 3.73534" fill="none" stroke="black"/>
<path d="M311.138,276.415v 3.73534" fill="none" stroke="black"/>
<path d="M329.277,272.68v 7.47068" fill="none" stroke="black"/>
<path d="M347.415,276.415v 3.73534" fill="none" stroke="black"/>
<path d="M365.554,276.415v 3.73534" fill="none" stroke="black"/>
<path d="M383.693,276.415v 3.73534" fill="none" stroke="black"/>
<path d="M401.832,276.415v 3.73534" fill="none" stroke="black"/>
<path d="M419.971,272.68v 7.47068" fill="none" stroke="black"/>
<path d="M438.11,276.415v 3.73534" fill="none" stroke="black"/>
<path d="M456.249,276.415v 3.73534" fill="none" stroke="black"/>
<path d="M474.388,276.415v 3.73534" fill="none" stroke="black"/>
<path d="M492.527,276.415v 3.73534" fill="none" stroke="black"/>
<path d="M510.666,272.68v 7.47068" fill="none" stroke="black"/>
<path d="M510.666,272.68v 7.47068" fill="none" stroke="black"/>
<text xml:space="preserve" x="54.3523" y="290.27" fill="black" font-size="10.4952" font-family="Helvetica">0</text>
<text xml:space="preserve" x="139.569" y="290.27" fill="black" font-size="10.4952" font-family="Helvetica">500</text>
<text xml:space="preserve" x="227.449" y="290.27" fill="black" font-size="10.4952" font-family="Helvetica">1000</text>
<text xml:space="preserve" x="318.288" y="290.27" fill="black" font-size="10.4952" font-family="Helvetica">1500</text>
<text xml:space="preserve" x="408.831" y="290.27" fill="black" font-size="10.4952" font-family="Helvetica">2000</text>
<text xml:space="preserve" x="499.67" y="290.27" fill="black" font-size="10.4952" font-family="Helvetica">2500</text>
<text xml:space="preserve" x="265.323" y="301.218" fill="black" font-size="10.4952" font-family="Helvetica">Channel</text>
<path d="M57.1929,280.151v -249.023" fill="none" stroke="black"/>
<path d="M63.9961,280.151h -6.80315" fill="none" stroke="black"/>
<path d="M63.9961,277.394h -6.80315" fill="none" stroke="black"/>
<path d="M63.9961,275.063h -6.80315" fill="none" stroke="black"/>
<path d="M63.9961,273.043h -6.80315" fill="none" stroke="black"/>
<path d="M63.9961,271.262h -6.80315" fill="none" stroke="black"/>
<path d="M70.7992,269.669h -13.6063" fill="none" stroke="black"/>
<text xml:space="preserve" x="49.0263" y="273.404" fill="black" font-size="10.4952" font-family="Helvetica">1</text>
<path d="M63.9961,259.188h -6.80315" fill="none" stroke="black"/>
<path d="M63.9961,253.056h -6.80315" fill="none" stroke="black"/>
<path d="M63.9961,248.706h -6.80315" fill="none" stroke="black"/>
<path d="M63.9961,245.332h -6.80315" fill="none" stroke="black"/>
<path d="M63.9961,242.575h -6.80315" fill="none" stroke="black"/>
<path d="M63.9961,240.244h -6.80315" fill="none" stroke="black"/>
<path d="M63.9961,238.225h -6.80315" fill="none" stroke="black"/>
<path d="M63.9961,236.444h -6.80315" fill="none" stroke="black"/>
<path d="M70.7992,234.85h -13.6063" fill="none" stroke="black"/>
<text xml:space="preserve" x="41.629" y="238.489" fill="black" font-size="10.4952" font-family="Helvetica">10</text>
<path d="M63.9961,224.369h -6.80315" fill="none" stroke="black"/>
<path d="M63.9961,218.238h -6.80315" fill="none" stroke="black"/>
<path d="M63.9961,213.887h -6.80315" fill="none" stroke="black"/>
<path d="M63.9961,210.513h -6.80315" fill="none" stroke="black"/>
<path d="M63.9961,207.756h -6.80315" fill="none" stroke="black"/>
<path d="M63.9961,205.425h -6.80315" fill="none" stroke="black"/>
<path d="M63.9961,203.406h -6.80315" fill="none" stroke="black"/>
<path d="M63.9961,201.625h -6.80315" fill="none" stroke="black"/>
<path d="M70.7992,200.032h -13.6063" fill="none" stroke="black"/>
<text xml:space="preserve" x="49.0263" y="200.319" fill="black" font-size="7.16345" font-family="Helvetica">2</text>
<text xml:space="preserve" x="38.0783" y="204.757" fill="black" font-size="10.4952" font-family="Helvetica">10</text>
<path d="M63.9961,189.55h -6.80315" fill="none" stroke="black"/>
<path d="M63.9961,183.419h -6.80315" fill="none" stroke="black"/>
<path d="M63.9961,179.069h -6.80315" fill="none" stroke="black"/>
<path d="M63.9961,175.695h -6.80315" fill="none" stroke="black"/>
<path d="M63.9961,172.938h -6.80315" fill="none" stroke="black"/>
<path d="M63.9961,170.607h -6.80315" fill="none" stroke="black"/>
<path d="M63.9961,168.587h -6.80315" fill="none" stroke="black"/>
<path d="M63.9961,166.806h -6.80315" fill="none" stroke="black"/>
<path d="M70.7992,165.213h -13.6063" fill="none" stroke="black"/>
<text xml:space="preserve" x="49.0263" y="165.108" fill="black" font-size="7.16345" font-family="Helvetica">3</text>
<text xml:space="preserve" x="38.0783" y="169.842" fill="black" font-size="10.4952" font-family="Helvetica">10</text>
<path d="M63.9961,154.732h -6.80315" fill="none" stroke="black"/>
<path d="M63.9961,148.6h -6.80315" fill="none" stroke="black"/>
<path d="M63.9961,144.25h -6.80315" fill="none" stroke="black"/>
<path d="M63.9961,140.876h -6.80315" fill="none" stroke="black"/>
<path d="M63.9961,138.119h -6.80315" fill="none" stroke="black"/>
<path d="M63.9961,135.788h -6.80315" fill="none" stroke="black"/>
<path d="M63.9961,133.769h -6.80315" fill="none" stroke="black"/>
<path d="M63.9961,131.988h -6.80315" fill="none" stroke="black"/>
<path d="M70.7992,130.394h -13.6063" fill="none" stroke="black"/>
<text xml:space="preserve" x="49.0263" y="130.488" fill="black" font-size="7.16345" font-family="Helvetica">4</text>
<text xml:space="preserve" x="38.0783" y="134.927" fill="black" font-size="10.4952" font-family="Helvetica">10</text>
<path d="M63.9961,119.913h -6.80315" fill="none" stroke="black"/>
<path d="M63.9961,113.782h -6.80315" fill="none" stroke="black"/>
<path d="M63.9961,109.432h -6.80315" fill="none" stroke="black"/>
<path d="M63.9961,106.057h -6.80315" fill="none" stroke="black"/>
<path d="M63.9961,103.3h -6.80315" fill="none" stroke="black"/>
<path d="M63.9961,100.969h -6.80315" fill="none" stroke="black"/>
<path d="M63.9961,98.9501h -6.80315" fill="none" stroke="black"/>
<path d="M63.9961,97.169h -6.80315" fill="none" stroke="black"/>
<path d="M70.7992,95.5758h -13.6063" fill="none" stroke="black"/>
<text xml:space="preserve" x="49.0263" y="95.5731" fill="black" font-size="7.16345" font-family="Helvetica">5</text>
<text xml:space="preserve" x="38.0783" y="100.307" fill="black" font-size="10.4952" font-family="Helvetica">10</text>
<path d="M63.9961,85.0943h -6.80315" fill="none" stroke="black"/>
<path d="M63.9961,78.9631h -6.80315" fill="none" stroke="black"/>
<path d="M63.9961,74.6129h -6.80315" fill="none" stroke="black"/>
<path d="M63.9961,71.2386h -6.80315" fill="none" stroke="black"/>
<path d="M63.9961,68.4816h -6.80315" fill="none" stroke="black"/>
<path d="M63.9961,66.1506h -6.80315" fill="none" stroke="black"/>
<path d="M63.9961,64.1314h -6.80315" fill="none" stroke="black"/>
<path d="M63.9961,62.3503h -6.80315" fill="none" stroke="black"/>
<path d="M70.7992,60.7571h -13.6063" fill="none" stroke="black"/>
<text xml:space="preserve" x="49.0263" y="60.6579" fill="black" font-size="7.16345" font-family="Helvetica">6</text>
<text xml:space="preserve" x="38.0783" y="65.3921" fill="black" font-size="10.4952" font-family="Helvetica">10</text>
<path d="M63.9961,50.2757h -6.80315" fill="none" stroke="black"/>
<path d="M63.9961,44.1444h -6.80315" fill="none" stroke="black"/>
<path d="M63.9961,39.7942h -6.80315" fill="none" stroke="black"/>
<path d="M63.9961,36.4199h -6.80315" fill="none" stroke="black"/>
<path d="M63.9961,33.663h -6.80315" fill="none" stroke="black"/>
<path d="M63.9961,31.332h -6.80315" fill="none" stroke="black"/>
<g transform="rotate(-90,26.5385,191.442)">
<text xml:space="preserve" x="26.5385" y="191.442" fill="black" font-size="10.4952" font-family="Helvetica">Counts/Channel</text>
</g>
<text xml:space="preserve" x="404.097" y="60.6579" fill="black" font-size="14.7788" font-family="Helvetica" font-weight="bold"> = 2.4879 MeV</text>
<text xml:space="preserve" x="398.179" y="63.9127" fill="black" font-size="10.0192" font-family="Helvetica" font-weight="bold">p</text>
<text xml:space="preserve" x="389.006" y="60.6579" fill="black" font-size="14.7788" font-family="Helvetica" font-weight="bold">E</text>
<path d="M262.163,163.772v 26.1601" fill="none" stroke="black"/>
<path d="M264.454,189.932l -2.29122, 3.9685l -2.29122, -3.9685z" fill="black"/>
<path d="M264.454,189.932l -2.29122, 3.9685l -2.29122, -3.9685h 4.58243z" fill="none" stroke="black"/>
<text xml:space="preserve" x="266.803" y="161.557" fill="black" font-size="10.4952" font-family="Helvetica" font-weight="bold">_1 	1.369 MeV</text>
<text xml:space="preserve" x="260.293" y="161.557" fill="black" font-size="10.4952" font-family="Times">&#0945;</text>
<path d="M184.528,130.394v 30.8502" fill="none" stroke="black"/>
<path d="M186.819,161.245l -2.29122, 3.9685l -2.29122, -3.9685z" fill="black"/>
<path d="M186.819,161.245l -2.29122, 3.9685l -2.29122, -3.9685h 4.58243z" fill="none" stroke="black"/>
<text xml:space="preserve" x="172.117" y="127.529" fill="black" font-size="10.4952" font-family="Helvetica" font-weight="bold"># p_1 	0.844 MeV</text>
<path d="M210.104,148.6v 12.6442" fill="none" stroke="black"/>
<path d="M212.395,161.245l -2.29122, 3.9685l -2.29122, -3.9685z" fill="black"/>
<path d="M212.395,161.245l -2.29122, 3.9685l -2.29122, -3.9685h 4.58243z" fill="none" stroke="black"/>
<text xml:space="preserve" x="197.564" y="144.099" fill="black" font-size="10.4952" font-family="Helvetica" font-weight="bold"># p_2 	1.015 MeV</text>
<path d="M497.608,269.669h 13.0571" fill="none" stroke="black"/>
<path d="M504.137,259.188h 6.52856" fill="none" stroke="black"/>
<path d="M504.137,253.056h 6.52856" fill="none" stroke="black"/>
<path d="M504.137,248.706h 6.52856" fill="none" stroke="black"/>
<path d="M504.137,245.332h 6.52856" fill="none" stroke="black"/>
<path d="M504.137,242.575h 6.52856" fill="none" stroke="black"/>
<path d="M504.137,240.244h 6.52856" fill="none" stroke="black"/>
<path d="M504.137,238.225h 6.52856" fill="none" stroke="black"/>
<path d="M504.137,236.444h 6.52856" fill="none" stroke="black"/>
<path d="M497.608,234.85h 13.0571" fill="none" stroke="black"/>
<path d="M504.137,224.369h 6.52856" fill="none" stroke="black"/>
<path d="M504.137,218.238h 6.52856" fill="none" stroke="black"/>
<path d="M504.137,213.887h 6.52856" fill="none" stroke="black"/>
<path d="M504.137,210.513h 6.52856" fill="none" stroke="black"/>
<path d="M504.137,207.756h 6.52856" fill="none" stroke="black"/>
<path d="M504.137,205.425h 6.52856" fill="none" stroke="black"/>
<path d="M504.137,203.406h 6.52856" fill="none" stroke="black"/>
<path d="M504.137,201.625h 6.52856" fill="none" stroke="black"/>
<path d="M497.608,200.032h 13.0571" fill="none" stroke="black"/>
<path d="M504.137,189.55h 6.52856" fill="none" stroke="black"/>
<path d="M504.137,183.419h 6.52856" fill="none" stroke="black"/>
<path d="M504.137,179.069h 6.52856" fill="none" stroke="black"/>
<path d="M504.137,175.695h 6.52856" fill="none" stroke="black"/>
<path d="M504.137,172.938h 6.52856" fill="none" stroke="black"/>
<path d="M504.137,170.607h 6.52856" fill="none" stroke="black"/>
<path d="M504.137,168.587h 6.52856" fill="none" stroke="black"/>
<path d="M504.137,166.806h 6.52856" fill="none" stroke="black"/>
<path d="M497.608,165.213h 13.0571" fill="none" stroke="black"/>
<path d="M504.137,154.732h 6.52856" fill="none" stroke="black"/>
<path d="M504.137,148.6h 6.52856" fill="none" stroke="black"/>
<path d="M504.137,144.25h 6.52856" fill="none" stroke="black"/>
<path d="M504.137,140.876h 6.52856" fill="none" stroke="black"/>
<path d="M504.137,138.119h 6.52856" fill="none" stroke="black"/>
<path d="M504.137,135.788h 6.52856" fill="none" stroke="black"/>
<path d="M504.137,133.769h 6.52856" fill="none" stroke="black"/>
<path d="M504.137,131.988h 6.52856" fill="none" stroke="black"/>
<path d="M497.608,130.394h 13.0571" fill="none" stroke="black"/>
<path d="M504.137,119.913h 6.52856" fill="none" stroke="black"/>
<path d="M504.137,113.782h 6.52856" fill="none" stroke="black"/>
<path d="M504.137,109.432h 6.52856" fill="none" stroke="black"/>
<path d="M504.137,106.057h 6.52856" fill="none" stroke="black"/>
<path d="M504.137,103.3h 6.52856" fill="none" stroke="black"/>
<path d="M504.137,100.969h 6.52856" fill="none" stroke="black"/>
<path d="M504.137,98.9501h 6.52856" fill="none" stroke="black"/>
<path d="M504.137,97.169h 6.52856" fill="none" stroke="black"/>
<path d="M497.608,95.5758h 13.0571" fill="none" stroke="black"/>
<path d="M504.137,85.0943h 6.52856" fill="none" stroke="black"/>
<path d="M504.137,78.9631h 6.52856" fill="none" stroke="black"/>
<path d="M504.137,74.6129h 6.52856" fill="none" stroke="black"/>
<path d="M504.137,71.2386h 6.52856" fill="none" stroke="black"/>
<path d="M504.137,68.4816h 6.52856" fill="none" stroke="black"/>
<path d="M504.137,66.1506h 6.52856" fill="none" stroke="black"/>
<path d="M504.137,64.1314h 6.52856" fill="none" stroke="black"/>
<path d="M504.137,62.3503h 6.52856" fill="none" stroke="black"/>
<path d="M497.608,60.7571h 13.0571" fill="none" stroke="black"/>
<path d="M504.137,50.2757h 6.52856" fill="none" stroke="black"/>
<path d="M504.137,44.1444h 6.52856" fill="none" stroke="black"/>
<path d="M504.137,39.7942h 6.52856" fill="none" stroke="black"/>
<path d="M504.137,36.4199h 6.52856" fill="none" stroke="black"/>
<path d="M504.137,33.663h 6.52856" fill="none" stroke="black"/>
<path d="M504.137,31.332h 6.52856" fill="none" stroke="black"/>
<path d="M57.1929,38.1669v -7.46952" fill="none" stroke="black"/>
<path d="M75.3318,38.1669v -7.46952" fill="none" stroke="black"/>
<path d="M93.4707,38.1669v -7.46952" fill="none" stroke="black"/>
<path d="M111.61,38.1669v -7.46952" fill="none" stroke="black"/>
<path d="M129.749,38.1669v -7.46952" fill="none" stroke="black"/>
<path d="M147.887,38.1669v -7.46952" fill="none" stroke="black"/>
<path d="M166.026,38.1669v -7.46952" fill="none" stroke="black"/>
<path d="M184.165,38.1669v -7.46952" fill="none" stroke="black"/>
<path d="M202.304,38.1669v -7.46952" fill="none" stroke="black"/>
<path d="M220.443,38.1669v -7.46952" fill="none" stroke="black"/>
<path d="M238.582,38.1669v -7.46952" fill="none" stroke="black"/>
<path d="M256.721,38.1669v -7.46952" fill="none" stroke="black"/>
<path d="M274.86,38.1669v -7.46952" fill="none" stroke="black"/>
<path d="M292.999,38.1669v -7.46952" fill="none" stroke="black"/>
<path d="M311.138,38.1669v -7.46952" fill="none" stroke="black"/>
<path d="M329.277,38.1669v -7.46952" fill="none" stroke="black"/>
<path d="M347.415,38.1669v -7.46952" fill="none" stroke="black"/>
<path d="M365.554,38.1669v -7.46952" fill="none" stroke="black"/>
<path d="M383.693,38.1669v -7.46952" fill="none" stroke="black"/>
<path d="M401.832,38.1669v -7.46952" fill="none" stroke="black"/>
<path d="M419.971,38.1669v -7.46952" fill="none" stroke="black"/>
<path d="M438.11,38.1669v -7.46952" fill="none" stroke="black"/>
<path d="M456.249,38.1669v -7.46952" fill="none" stroke="black"/>
<path d="M474.388,38.1669v -7.46952" fill="none" stroke="black"/>
<path d="M492.527,38.1669v -7.46952" fill="none" stroke="black"/>
<path d="M510.666,38.1669v -7.46952" fill="none" stroke="black"/></svg>
