<?xml version="1.0" standalone="no"?>
<svg width="567.429" height="311.778" viewBox="0 0 567.429 311.778" xmlns="http://www.w3.org/2000/svg" shape-rendering="crispEdges">
<title>
Yields/P1/run_0104/det9_Fit.svg
</title>
<desc>
Creator: ROOT Version 6.12/06
CreationDate: Mon Apr 15 10:29:02 2019</desc>
<defs>
</defs>
<rect x="0.5" y="0" width="566.929" height="311.278" fill="white"/>
<rect x="57.1929" y="31.1278" width="453.543" height="249.023" fill="white"/>
<rect x="57.1929" y="31.1278" width="453.543" height="249.023" fill="none" stroke="black"/>
<path d="M57.1929,40.7893h 0.181345v 239.361h 10.8807v -10.4789h 0.181345v 10.4789h 8.70455v -10.4789h 0.181345v 10.4789h 1.26941v -10.4789h 0.181345v 10.4789h 3.44555v -10.4789h 0.181345v 10.4789h 2.17614v -10.4789h 0.181345v 10.4789h 0.544034v
 -20.9578h 0.181345v 20.9578h 0.36269v -10.4789h 0.181345v 10.4789h 0.36269v -10.4789h 0.181345v 10.4789h 2.35748v -10.4789h 0.181345v -27.0875h 0.181345v -9.16346h 0.181345v -18.7414h 0.181345v -10.6765h 0.181345v -11.884h 0.181345v -7.19463h
 0.181345v -3.72504h 0.181345v -4.01975h 0.181345v -1.66922h 0.181345v -1.6107h 0.181345v -1.23479h 0.181345v -1.43639h 0.181345v -0.894033h 0.181345v -1.2003h 0.181345v 0.177049h 0.181345v -0.921168h 0.181345v -0.16664h 0.181345v -0.435598h
 0.181345v -1.38385h 0.181345v 1.27688h 0.181345v -0.963464h 0.181345v -0.0996784h 0.181345v -0.884336h 0.181345v 0.12546h 0.181345v -0.556548h 0.181345v -0.448633h 0.181345v 0.601186h 0.181345v -0.907491h 0.181345v 0.64906h 0.181345v 0.788935h
 0.181345v -1.23448h 0.181345v -0.0146278h 0.181345v -0.0583701h 0.181345v 0.563831h 0.181345v -1.23331h 0.181345v 1.02313h 0.181345v -0.118805h 0.181345v -0.29299h 0.181345v -0.330065h 0.181345v 0.623056h 0.181345v 0.089016h 0.181345v -0.396508h
 0.181345v -0.804405h 0.181345v 0.833422h 0.181345v 0.175281h 0.181345v -1.1046h 0.181345v 1.29681h 0.181345v -0.881461h 0.181345v 0.70395h 0.181345v 0.676694h 0.181345v -1.01121h 0.181345v 1.18133h 0.181345v -0.216193h 0.181345v 0.85149h 0.181345v
 0.327949h 0.181345v 0.14993h 0.181345v -1.23709h 0.181345v -1.29999h 0.181345v 0.314668h 0.181345v -0.979295h 0.181345v -3.02262h 0.181345v -2.87966h 0.181345v -1.92559h 0.181345v -4.51569h 0.181345v -2.65117h 0.181345v -3.57607h 0.181345v -2.85382h
 0.181345v -2.19945h 0.181345v -1.88217h 0.181345v -1.24339h 0.181345v -0.292671h 0.181345v -0.17113h 0.181345v 0.913714h 0.181345v 1.23348h 0.181345v 1.72299h 0.181345v 2.99006h 0.181345v 3.67247h 0.181345v 3.14044h 0.181345v 3.98298h 0.181345v
 4.33953h 0.181345v 4.12064h 0.181345v 3.40498h 0.181345v 3.34192h 0.181345v 2.56851h 0.181345v 2.47891h 0.181345v 1.29046h 0.181345v -1.26294h 0.181345v 2.12529h 0.181345v -1.09996h 0.181345v 1.38793h 0.181345v 0.293559h 0.181345v -0.261222h
 0.181345v 0.09743h 0.181345v -0.162036h 0.181345v 0.52475h 0.181345v -0.330097h 0.181345v 1.98609h 0.181345v -1.88781h 0.181345v 1.55635h 0.181345v -0.952898h 0.181345v 0.664243h 0.181345v 0.25227h 0.181345v -2.22623h 0.181345v 2.29909h 0.181345v
 0.183694h 0.181345v -0.862058h 0.181345v 1.65892h 0.181345v -1.16204h 0.181345v 2.12734h 0.181345v -2.19933h 0.181345v -0.0716486h 0.181345v -0.526807h 0.181345v 1.63891h 0.181345v -0.968468h 0.181345v 0.0723343h 0.181345v 1.01198h 0.181345v
 -0.0387141h 0.181345v 0.591386h 0.181345v -0.783483h 0.181345v 1.39895h 0.181345v 0.906047h 0.181345v -0.737602h 0.181345v 0.429513h 0.181345v 0.442073h 0.181345v -0.744009h 0.181345v 0.171795h 0.181345v -1.20343h 0.181345v 1.91082h 0.181345v
 0.506276h 0.181345v -0.730914h 0.181345v 1.89814h 0.181345v -0.050477h 0.181345v -1.8922h 0.181345v -0.0886679h 0.181345v 0.864111h 0.181345v -0.819842h 0.181345v -0.22006h 0.181345v 1.0399h 0.181345v 0.768055h 0.181345v 1.12414h 0.181345v -1.31984h
 0.181345v -0.431283h 0.181345v 1.12762h 0.181345v 1.21856h 0.181345v -1.42081h 0.181345v -0.782975h 0.181345v -0.189568h 0.181345v 1.27694h 0.181345v 1.06134h 0.181345v -1.2143h 0.181345v 0.727459h 0.181345v 0.214441h 0.181345v 0.832385h 0.181345v
 -0.939985h 0.181345v 1.28621h 0.181345v -1.23251h 0.181345v 2.25886h 0.181345v -2.41941h 0.181345v -0.316064h 0.181345v 0.36939h 0.181345v -0.881908h 0.181345v 1.93256h 0.181345v -1.67848h 0.181345v 0.521356h 0.181345v 0.595054h 0.181345v 0.334726h
 0.181345v 1.17251h 0.181345v -0.830207h 0.181345v -0.621756h 0.181345v -0.965296h 0.181345v -0.103547h 0.181345v 0.26021h 0.181345v 1.43039h 0.181345v 0.350236h 0.181345v -2.39776h 0.181345v 2.45693h 0.181345v -0.409405h 0.181345v -0.510594h
 0.181345v -1.83631h 0.181345v -0.864111h 0.181345v -0.5498h 0.181345v -0.530505h 0.181345v -1.99153h 0.181345v -0.264239h 0.181345v 0.649918h 0.181345v -1.7676h 0.181345v 0.638877h 0.181345v -1.18495h 0.181345v -0.298716h 0.181345v 0.365906h
 0.181345v 1.48472h 0.181345v 0.300116h 0.181345v 0.422635h 0.181345v 2.53967h 0.181345v 1.00028h 0.181345v 0.705627h 0.181345v -0.407239h 0.181345v 0.202248h 0.181345v 1.55328h 0.181345v 0.0565153h 0.181345v 0.401636h 0.181345v 0.0582576h 0.181345v
 0.176132h 0.181345v 0.912822h 0.181345v 2.22623h 0.181345v -1.05271h 0.181345v -0.984154h 0.181345v 0.256241h 0.181345v 1.07074h 0.181345v -1.76521h 0.181345v -0.12291h 0.181345v 0.309169h 0.181345v -1.08461h 0.181345v 1.59282h 0.181345v -0.192586h
 0.181345v 1.26332h 0.181345v -1.64129h 0.181345v 0.0623417h 0.181345v 1.0341h 0.36269v -0.971501h 0.181345v 2.15373h 0.181345v -1.57835h 0.181345v -0.885817h 0.181345v 1.82679h 0.181345v -2.95153h 0.181345v 2.6087h 0.181345v 0.204759h 0.181345v
 0.418031h 0.181345v -1.41517h 0.181345v -0.255159h 0.181345v -1.50401h 0.181345v 3.38777h 0.181345v -1.2376h 0.181345v -0.13146h 0.181345v 0.0655872h 0.181345v 0.603453h 0.181345v -1.49675h 0.181345v 0.376397h 0.181345v -1.90713h 0.181345v 0.397114h
 0.181345v -0.11453h 0.181345v 0.11453h 0.181345v -0.784063h 0.181345v -0.377292h 0.181345v -0.979009h 0.181345v 1.79935h 0.181345v -0.767011h 0.181345v 0.767011h 0.181345v 0.226489h 0.181345v -1.15292h 0.36269v 1.91335h 0.181345v 0.487714h 0.181345v
 -1.191h 0.181345v 1.9534h 0.181345v -1.12966h 0.181345v 2.14013h 0.181345v -2.96388h 0.181345v 1.56739h 0.181345v 0.648934h 0.181345v 0.403166h 0.181345v 1.72964h 0.181345v -1.45476h 0.181345v 0.855955h 0.181345v 1.38229h 0.181345v -4.24828h
 0.181345v 2.79278h 0.181345v -1.12557h 0.36269v 0.622791h 0.181345v 0.285251h 0.181345v -0.495711h 0.181345v 1.23331h 0.181345v -1.84767h 0.181345v 1.32759h 0.181345v 0.902825h 0.181345v -1.8922h 0.181345v 0.557403h 0.181345v -0.6936h 0.181345v
 -1.54529h 0.181345v 2.5255h 0.181345v -1.38158h 0.181345v 1.45409h 0.181345v -1.90929h 0.181345v 2.20285h 0.181345v -1.41391h 0.181345v 2.17376h 0.181345v -1.69379h 0.181345v 0.786448h 0.181345v 1.22231h 0.181345v -2.42109h 0.181345v -0.335221h
 0.181345v 0.887532h 0.181345v -0.416113h 0.181345v 1.58522h 0.181345v -1.44779h 0.181345v -0.408615h 0.181345v 2.47671h 0.181345v -1.64813h 0.181345v 2.13065h 0.181345v -1.84405h 0.181345v -1.11518h 0.181345v 0.0673401h 0.181345v 0.0676414h
 0.181345v -0.335221h 0.181345v 1.38793h 0.181345v -0.35911h 0.181345v 0.505177h 0.181345v -0.218575h 0.181345v 0.741219h 0.181345v -2.1228h 0.181345v 0.333741h 0.181345v -0.465201h 0.181345v -0.195072h 0.181345v 1.28022h 0.181345v 0.942904h
 0.181345v 0.0750266h 0.181345v -1.43404h 0.181345v -0.136198h 0.181345v -0.268769h 0.181345v 0.750927h 0.181345v -2.08853h 0.181345v 1.27115h 0.181345v 1.46079h 0.181345v -2.36169h 0.181345v 0.0625998h 0.181345v -0.794251h 0.181345v 0.920233h
 0.181345v -0.250924h 0.181345v -0.185497h 0.181345v -0.243841h 0.181345v -0.180334h 0.181345v 0.362845h 0.181345v 0.497751h 0.181345v -1.33123h 0.181345v 1.52219h 0.181345v -0.0639233h 0.181345v 1.12526h 0.181345v 0.559984h 0.181345v -0.141953h
 0.181345v 1.32827h 0.181345v -0.825496h 0.181345v -0.851934h 0.181345v -0.137436h 0.181345v 1.43404h 0.181345v 0.458151h 0.181345v 0.552672h 0.181345v 0.741623h 0.181345v -1.52511h 0.181345v 0.864111h 0.181345v -0.864111h 0.181345v -0.377023h
 0.181345v -0.938401h 0.181345v 1.46891h 0.181345v 0.390663h 0.181345v -0.921168h 0.181345v -0.148215h 0.181345v 0.073926h 0.181345v 1.39648h 0.181345v -1.17251h 0.181345v 1.50117h 0.181345v -1.42577h 0.181345v 3.18565h 0.181345v -1.0803h 0.36269v
 -0.926731h 0.181345v 0.164326h 0.181345v 0.762405h 0.181345v 0.802905h 0.181345v -0.362121h 0.181345v 1.30729h 0.181345v 1.00823h 0.181345v -2.2258h 0.36269v 2.01871h 0.181345v 1.3998h 0.181345v -2.0046h 0.181345v 1.23479h 0.181345v -0.630001h
 0.181345v -0.305421h 0.181345v -1.62303h 0.181345v 0.553153h 0.181345v 0.284356h 0.181345v 0.886642h 0.181345v -0.498984h 0.181345v 1.33328h 0.181345v -2.91629h 0.181345v 2.18379h 0.181345v -1.45944h 0.181345v 2.73777h 0.181345v -2.55113h 0.181345v
 2.0053h 0.181345v -2.09891h 0.181345v 3.09605h 0.181345v -3.28154h 0.181345v 1.8615h 0.181345v -1.20205h 0.181345v 0.589081h 0.181345v 0.929033h 0.181345v -0.316064h 0.181345v 0.85798h 0.181345v -0.85798h 0.181345v 1.42005h 0.181345v -0.889541h
 0.181345v 1.35474h 0.36269v -1.13722h 0.181345v 0.109948h 0.181345v -1.86621h 0.181345v -0.0972211h 0.181345v 1.63595h 0.181345v -2.57525h 0.181345v 1.94085h 0.181345v 0.419967h 0.181345v 0.214441h 0.181345v 4.06388h 0.181345v -3.28844h 0.181345v
 0.579298h 0.181345v 0.725795h 0.181345v -1.86301h 0.181345v 1.49576h 0.181345v -4.10529h 0.181345v 4.72243h 0.181345v -2.43802h 0.181345v -1.03587h 0.181345v 0.929033h 0.181345v 0.431967h 0.181345v -0.643409h 0.181345v 0.211442h 0.181345v -0.828582h
 0.181345v 2.63585h 0.181345v -2.83608h 0.181345v 0.200239h 0.181345v 1.15139h 0.181345v 0.219103h 0.181345v -0.327475h 0.181345v -1.04302h 0.181345v 3.62753h 0.181345v -1.69497h 0.181345v 1.06758h 0.181345v -0.720033h 0.181345v -3.6291h 0.181345v
 2.2844h 0.181345v -0.834299h 0.181345v 0.516017h 0.181345v 4.20979h 0.181345v -4.72581h 0.36269v 2.77661h 0.181345v 0.370251h 0.181345v -1.98744h 0.181345v 1.7396h 0.181345v -1.29492h 0.181345v -1.08808h 0.181345v 0.425883h 0.181345v 1.12035h
 0.181345v -0.792877h 0.181345v -1.76836h 0.181345v 3.15417h 0.181345v -0.476192h 0.181345v -2.96965h 0.181345v -0.191368h 0.181345v 5.43296h 0.181345v -1.91621h 0.181345v 1.38101h 0.181345v -3.39972h 0.181345v 0.864111h 0.181345v -0.968733h
 0.181345v -0.411395h 0.181345v 1.94641h 0.181345v -2.14798h 0.181345v 2.03301h 0.181345v -4.26299h 0.181345v 2.13019h 0.181345v -2.63982h 0.181345v 2.05454h 0.181345v -1.88657h 0.181345v 2.07915h 0.181345v -1.73749h 0.181345v -0.171795h 0.181345v
 -0.6683h 0.181345v -0.561469h 0.181345v -0.916513h 0.181345v -0.293559h 0.181345v -0.0725077h 0.181345v 1.44088h 0.181345v -1.36838h 0.181345v -0.0725077h 0.181345v 0.218575h 0.181345v -0.434035h 0.181345v 1.26365h 0.181345v -1.26365h 0.181345v
 2.05951h 0.181345v -2.13065h 0.181345v 4.2313h 0.181345v -3.35466h 0.181345v 1.83714h 0.181345v -1.76174h 0.181345v 0.855221h 0.181345v 2.9982h 0.181345v -1.30729h 0.181345v 0.546487h 0.181345v -0.184366h 0.181345v -2.36964h 0.181345v 0.970461h
 0.181345v -0.330458h 0.181345v 1.27832h 0.181345v -1.27832h 0.181345v -1.62547h 0.181345v -0.994018h 0.36269v -0.997142h 0.181345v -0.568169h 0.181345v -2.45384h 0.181345v -0.568601h 0.181345v -2.56058h 0.181345v -0.994408h 0.181345v -2.90925h
 0.181345v -1.5398h 0.181345v -1.55992h 0.181345v -0.889541h 0.181345v -1.63595h 0.181345v -1.35148h 0.181345v -0.632979h 0.181345v -0.798423h 0.181345v -0.649731h 0.181345v -0.447571h 0.181345v -0.840572h 0.181345v -0.0832024h 0.181345v 1.37135h
 0.181345v -0.447571h 0.181345v 0.447571h 0.181345v 0.725795h 0.181345v 0.583022h 0.181345v 2.03286h 0.181345v 2.4556h 0.181345v -0.90553h 0.181345v 2.71618h 0.181345v 1.95444h 0.181345v 1.62326h 0.181345v 1.81875h 0.181345v 1.67896h 0.181345v
 2.44283h 0.181345v 0.811113h 0.181345v 3.24012h 0.181345v -0.507601h 0.181345v 1.97801h 0.181345v 0.411956h 0.181345v 1.39918h 0.181345v 1.9534h 0.181345v -1.676h 0.181345v 4.04122h 0.181345v -2.77661h 0.181345v 1.4917h 0.181345v 1.04302h 0.181345v
 -0.35573h 0.36269v 0.117649h 0.181345v 0.850223h 0.181345v 0.637978h 0.181345v -1.36963h 0.181345v 3.46299h 0.181345v -2.60588h 0.181345v -0.61714h 0.181345v 0.367253h 0.181345v 1.15853h 0.181345v 0.269968h 0.36269v -1.79575h 0.181345v 2.20996h
 0.181345v 0.864111h 0.181345v -2.45693h 0.181345v 1.31542h 0.181345v -1.68872h 0.181345v 0.885817h 0.181345v 0.262925h 0.181345v -0.392693h 0.181345v 1.78062h 0.181345v 0.744871h 0.181345v -1.99961h 0.181345v 0.544846h 0.181345v -1.82679h 0.181345v
 4.89134h 0.181345v -3.33944h 0.181345v 0.554845h 0.181345v 1.17479h 0.181345v -1.99961h 0.181345v -0.265232h 0.181345v 0.399614h 0.181345v -0.660272h 0.181345v -0.999891h 0.181345v 0.367253h 0.181345v 0.249887h 0.181345v 1.04302h 0.181345v 0.410464h
 0.181345v 2.72859h 0.181345v -2.30667h 0.181345v -0.966766h 0.181345v 0.824814h 0.181345v -0.554845h 0.181345v 2.83825h 0.181345v -2.70143h 0.181345v 1.7463h 0.181345v 0.311719h 0.181345v 0.158303h 0.36269v -2.35314h 0.181345v 3.00347h 0.181345v
 -4.67779h 0.181345v 2.80515h 0.181345v -0.434035h 0.181345v 1.65634h 0.181345v 4.19083h 0.181345v -3.37345h 0.181345v 0.687293h 0.181345v -3.16101h 0.181345v 0.143298h 0.181345v 0.737602h 0.181345v -0.592932h 0.181345v 0.442505h 0.181345v 0.610905h
 0.181345v 1.47209h 0.181345v -4.04546h 0.181345v 2.73004h 0.181345v -1.06401h 0.181345v 3.44701h 0.181345v -1.06758h 0.181345v -2.23194h 0.181345v 2.57949h 0.181345v -3.4436h 0.181345v 1.16348h 0.181345v -0.592932h 0.181345v 0.146067h 0.181345v
 3.82031h 0.181345v -2.1129h 0.181345v 1.55635h 0.181345v -2.35642h 0.181345v 0.800072h 0.181345v 1.3753h 0.181345v 1.12035h 0.181345v -2.65909h 0.181345v -0.79169h 0.181345v 0.155056h 0.181345v 2.72517h 0.181345v -0.368746h 0.181345v -1.05516h
 0.181345v -1.45632h 0.181345v -0.898353h 0.181345v -1.38793h 0.181345v 3.40664h 0.181345v -2.30667h 0.181345v -2.37112h 0.181345v -3.56727h 0.181345v 1.20205h 0.181345v -2.66917h 0.181345v -1.88705h 0.181345v -2.35245h 0.181345v 0.199359h 0.181345v
 -3.61236h 0.181345v -1.8798h 0.181345v -1.24938h 0.181345v -3.9367h 0.181345v 0.2664h 0.181345v -2.78428h 0.181345v -1.15624h 0.181345v -1.2419h 0.181345v -1.12546h 0.181345v -0.797562h 0.181345v -0.59697h 0.181345v -0.160616h 0.181345v -0.237769h
 0.181345v -1.83078h 0.181345v 0.459759h 0.181345v 0.887365h 0.181345v -1.13666h 0.181345v 1.8182h 0.181345v 0.526948h 0.181345v 1.42645h 0.181345v 1.98313h 0.181345v 0.0517735h 0.181345v 1.64188h 0.181345v 2.23916h 0.181345v 0.134681h 0.181345v
 2.21811h 0.181345v 2.5077h 0.181345v 3.29276h 0.181345v -0.0573732h 0.181345v 3.82389h 0.181345v 3.84153h 0.181345v 0.385189h 0.181345v 1.43113h 0.181345v 3.61663h 0.181345v 3.85781h 0.181345v -2.43054h 0.181345v 2.43054h 0.181345v -0.174775h
 0.181345v 1.26811h 0.181345v 4.86165h 0.181345v -1.25012h 0.181345v 0.487714h 0.181345v -2.71494h 0.181345v 0.208525h 0.181345v 5.51261h 0.181345v 0.61714h 0.181345v -4.58352h 0.181345v 3.08548h 0.36269v 1.49804h 0.181345v -0.311719h 0.36269v
 -3.31162h 0.181345v 2.70682h 0.181345v 0.299373h 0.181345v -2.24379h 0.181345v 3.83661h 0.181345v -3.03371h 0.36269v 8.18778h 0.181345v -7.62779h 0.181345v 4.25435h 0.181345v 0.38275h 0.181345v -4.6371h 0.181345v 3.88105h 0.181345v 1.96612h
 0.181345v -3.70572h 0.181345v -2.42403h 0.181345v 1.78062h 0.181345v -1.49804h 0.181345v -0.282585h 0.181345v 0.570552h 0.181345v -0.847951h 0.181345v 4.07673h 0.181345v -1.3753h 0.181345v 4.56983h 0.181345v -4.23756h 0.181345v -1.2874h 0.181345v
 -1.7463h 0.181345v 4.44103h 0.181345v 2.392h 0.181345v -5.39215h 0.181345v -1.44088h 0.181345v 0.559984h 0.181345v 3.51675h 0.181345v -2.93522h 0.181345v -2.20285h 0.181345v -0.991689h 0.181345v 3.19454h 0.181345v 1.23479h 0.181345v -0.935422h
 0.36269v -2.24379h 0.181345v 1.65086h 0.181345v -0.570552h 0.181345v 2.09891h 0.181345v -0.630001h 0.181345v -2.28628h 0.181345v 1.38793h 0.181345v -3.13906h 0.181345v 5.66455h 0.181345v -0.339741h 0.181345v -0.657401h 0.181345v -0.630001h 0.181345v
 -1.7463h 0.181345v 2.37631h 0.181345v -0.318282h 0.181345v 0.318282h 0.181345v -1.81632h 0.181345v -3.9883h 0.181345v 4.8692h 0.181345v 0.61714h 0.181345v -2.05802h 0.181345v 0.559984h 0.36269v 0.287967h 0.181345v 2.5255h 0.181345v -2.81346h
 0.181345v 1.81632h 0.181345v -1.81632h 0.181345v -1.87541h 0.36269v 0.775443h 0.181345v 4.98101h 0.181345v -1.06758h 0.181345v -4.43478h 0.181345v 2.50222h 0.181345v -0.8809h 0.181345v 0.287967h 0.181345v -2.41326h 0.181345v 3.62333h 0.181345v
 1.31542h 0.181345v 1.44088h 0.181345v -3.96638h 0.181345v 2.18575h 0.181345v -0.657401h 0.181345v 1.34469h 0.181345v -2.87305h 0.181345v 5.5592h 0.181345v -6.94713h 0.181345v 1.38793h 0.181345v -0.847951h 0.181345v 4.44103h 0.181345v -2.06473h
 0.181345v -0.318282h 0.36269v 4.34913h 0.181345v -4.34913h 0.181345v 3.93492h 0.181345v -2.27194h 0.181345v -2.28012h 0.181345v 3.37345h 0.181345v -2.43802h 0.181345v -0.630001h 0.181345v 3.06803h 0.181345v -2.1129h 0.36269v -1.26055h 0.181345v
 3.00015h 0.36269v -2.06473h 0.181345v 2.43802h 0.181345v -1.44088h 0.181345v 6.30253h 0.181345v -6.97455h 0.181345v 2.88834h 0.181345v -3.84347h 0.181345v 1.2874h 0.181345v -1.59282h 0.181345v 3.7562h 0.181345v -2.82078h 0.181345v 0.657401h
 0.181345v -1.8922h 0.181345v 1.55992h 0.181345v 4.1316h 0.181345v -1.24326h 0.181345v 1.68149h 0.181345v -3.89782h 0.36269v 1.44088h 0.36269v 0.775443h 0.181345v -1.14874h 0.181345v -2.06473h 0.181345v 1.34469h 0.181345v 3.55027h 0.181345v -2.45693h
 0.36269v -6.37964h 0.181345v 8.39835h 0.181345v 2.33042h 0.181345v -4.72243h 0.181345v -1.06758h 0.181345v -0.339741h 0.181345v 4.23756h 0.181345v -6.71128h 0.181345v 7.62779h 0.181345v 0.975683h 0.181345v -4.34913h 0.181345v 3.85342h 0.181345v
 -1.83471h 0.181345v 1.35474h 0.181345v -4.11105h 0.181345v 1.91621h 0.181345v 2.19484h 0.181345v -2.9907h 0.181345v 2.07418h 0.181345v -3.19454h 0.181345v 1.51305h 0.181345v -2.21633h 0.181345v 7.95339h 0.181345v -2.65909h 0.181345v -4.94675h
 0.181345v 4.94675h 0.181345v -0.479972h 0.181345v 4.99254h 0.181345v -4.01686h 0.181345v 4.01686h 0.181345v -2.42403h 0.181345v -2.08853h 0.36269v 0.495711h 0.181345v 1.04302h 0.181345v -1.04302h 0.181345v -2.75631h 0.181345v 6.77316h 0.36269v
 2.88834h 0.181345v -5.31237h 0.181345v -1.0803h 0.181345v 8.07417h 0.181345v -8.07417h 0.181345v 2.24379h 0.36269v 6.74689h 0.181345v -4.81433h 0.36269v 2.21633h 0.181345v -1.51305h 0.181345v -3.22878h 0.181345v 4.74182h 0.181345v -4.74182h
 0.181345v -0.570552h 0.181345v -0.5498h 0.181345v 5.86217h 0.181345v -2.88834h 0.181345v 5.48634h 0.181345v -3.37345h 0.181345v -2.75631h 0.181345v 3.53175h 0.181345v -1.51305h 0.181345v -0.703282h 0.181345v 6.83304h 0.181345v -6.12975h 0.181345v
 5.08673h 0.181345v 2.16337h 0.181345v -11.5992h 0.181345v 8.46018h 0.181345v -4.11105h 0.181345v 2.33042h 0.181345v 4.91968h 0.181345v -3.13906h 0.181345v 2.01871h 0.36269v -6.83304h 0.181345v 9.16346h 0.36269v -1.21007h 0.181345v -1.12035h
 0.181345v -5.39215h 0.181345v 6.5125h 0.181345v -1.12035h 0.181345v -3.79933h 0.181345v 6.12975h 0.36269v -7.72258h 0.181345v 10.4789h 0.181345v -9.70344h 0.36269v 11.2963h 0.181345v -6.67955h 0.181345v -1.04302h 0.181345v -2.75631h 0.181345v
 7.44518h 0.181345v 9.16346h 0.181345v -17.426h 0.181345v 5.73706h 0.181345v -2.16337h 0.181345v 1.04302h 0.181345v -5.39215h 0.181345v 3.37345h 0.181345v 3.13906h 0.181345v -4.05557h 0.181345v -3.89782h 0.181345v -0.672014h 0.181345v -0.643409h
 0.181345v -1.78062h 0.181345v 5.31237h 0.181345v -6.9052h 0.181345v -0.495711h 0.181345v 3.86916h 0.181345v -1.78062h 0.181345v 1.16348h 0.181345v -7.47873h 0.181345v 5.23495h 0.181345v -3.68304h 0.181345v 0.840096h 0.181345v -3.79933h 0.181345v
 2.95923h 0.181345v -5.43296h 0.181345v 4.25435h 0.181345v -3.67282h 0.181345v 4.44826h 0.181345v 0.403166h 0.181345v -3.29151h 0.181345v 1.01957h 0.181345v 1.86878h 0.181345v -1.86878h 0.181345v 8.19877h 0.181345v -6.72269h 0.181345v -0.38275h
 0.181345v 4.34913h 0.181345v -1.44088h 0.181345v 1.9534h 0.181345v 0.530505h 0.181345v 4.34913h 0.181345v -1.3753h 0.181345v 0.672014h 0.181345v 3.03371h 0.181345v 0.864111h 0.181345v 6.58107h 0.181345v 6.83304h 0.181345v -15.871h 0.181345v 7.72258h
 0.181345v 1.31542h 0.181345v 4.81433h 0.181345v -8.46018h 0.36269v -2.01871h 0.181345v -4.11105h 0.181345v 3.19454h 0.181345v 2.93522h 0.181345v 1.12035h 0.181345v -3.13906h 0.36269v -3.37345h 0.181345v -5.61724h 0.181345v 2.24379h 0.181345v
 1.93256h 0.181345v -6.58107h 0.181345v -3.55027h 0.181345v 4.94675h 0.181345v -4.94675h 0.181345v 4.00158h 0.181345v -10.9302h 0.181345v 2.66764h 0.181345v -2.21633h 0.181345v -3.64585h 0.181345v -0.35573h 0.181345v -1.97469h 0.181345v 1.12035h
 0.181345v -3.27344h 0.181345v -3.34667h 0.181345v 2.56453h 0.181345v -2.12946h 0.181345v -2.53398h 0.36269v -0.728711h 0.181345v 2.72078h 0.181345v -3.58489h 0.181345v -0.975683h 0.181345v 1.66298h 0.181345v 1.18811h 0.181345v -1.09996h 0.181345v
 -1.51305h 0.181345v 1.96168h 0.181345v -1.88148h 0.181345v 0.325127h 0.181345v 0.672014h 0.181345v -1.07734h 0.181345v -0.316615h 0.181345v 0.640004h 0.181345v -1.91621h 0.181345v -0.495711h 0.181345v 1.00823h 0.181345v -0.655816h 0.181345v
 -2.00087h 0.181345v 0.25197h 0.181345v 0.0636541h 0.181345v -1.40024h 0.181345v -0.626441h 0.181345v 0.338473h 0.181345v -0.939985h 0.181345v -1.52835h 0.181345v 1.69004h 0.181345v -0.894185h 0.181345v 1.1125h 0.181345v -2.5255h 0.181345v -0.322158h
 0.181345v 3.46479h 0.181345v -0.339741h 0.181345v 0.282585h 0.36269v -0.0569411h 0.181345v 2.39688h 0.181345v 1.46755h 0.181345v 2.37943h 0.181345v 3.03371h 0.181345v -0.311719h 0.181345v 0.311719h 0.181345v 1.66298h 0.181345v 1.09333h 0.181345v
 3.53175h 0.181345v 0.321668h 0.181345v 1.35982h 0.181345v 1.69196h 0.181345v 2.1328h 0.181345v 5.13261h 0.181345v 4.89496h 0.181345v 2.93522h 0.181345v -2.48391h 0.181345v -4.34913h 0.181345v 11.1822h 0.181345v 0.737602h 0.181345v 1.59282h 0.181345v
 -3.70572h 0.181345v 4.56983h 0.181345v 5.26564h 0.181345v -7.72258h 0.181345v 6.5125h 0.181345v -2.16337h 0.181345v -1.8922h 0.181345v 11.3954h 0.181345v -9.5032h 0.181345v 6.12975h 0.181345v 13.8523h 0.181345v -16.6086h 0.181345v 2.75631h 0.181345v
 -1.44088h 0.181345v 9.16346h 0.181345v -2.33042h 0.181345v -3.79933h 0.181345v -3.03371h 0.181345v 3.03371h 0.181345v 6.12975h 0.181345v -4.34913h 0.181345v -3.37345h 0.181345v 18.2015h 0.36269v -16.6086h 0.181345v 12.2595h 0.181345v -6.12975h
 0.181345v 6.12975h 0.36269v -6.12975h 0.36269v 6.12975h 0.181345v 10.4789h 0.181345v -18.9391h 0.181345v 12.8093h 0.181345v -16.6086h 0.181345v 22.7384h 0.181345v -6.12975h 0.181345v -12.8093h 0.181345v -2.01871h 0.181345v 7.10544h 0.181345v
 3.37345h 0.181345v -10.4789h 0.181345v 14.828h 0.181345v -12.8093h 0.181345v 29.4179h 0.181345v -31.4366h 0.181345v 31.4366h 0.181345v -29.4179h 0.181345v 2.33042h 0.181345v 16.6086h 0.181345v -6.12975h 0.181345v -10.4789h 0.181345v 27.0875h
 0.181345v -10.4789h 0.181345v -16.6086h 0.181345v 6.12975h 0.36269v -3.37345h 0.181345v -2.75631h 0.181345v 2.75631h 0.181345v -5.08673h 0.181345v -2.01871h 0.181345v 4.34913h 0.181345v 10.4789h 0.181345v -4.34913h 0.181345v 4.34913h 0.181345v
 16.6086h 0.181345v -24.3312h 0.36269v 3.37345h 0.181345v 4.34913h 0.181345v -10.4789h 0.181345v 10.4789h 0.181345v 27.0875h 0.181345v -34.8101h 0.36269v 3.37345h 0.544034v -6.12975h 0.181345v 27.0875h 0.181345v -24.3312h 0.181345v -2.75631h
 0.181345v -4.34913h 0.181345v 4.34913h 0.181345v -4.34913h 0.181345v 4.34913h 0.181345v 6.12975h 0.181345v -15.2932h 0.181345v 6.83304h 0.181345v -8.14846h 0.181345v 13.2352h 0.181345v -17.5843h 0.181345v -3.37345h 0.181345v 9.038h 0.181345v
 1.44088h 0.181345v -8.88606h 0.181345v 3.79933h 0.181345v -8.7656h 0.36269v 7.72258h 0.181345v -1.8922h 0.181345v 0.916513h 0.36269v -1.78062h 0.181345v -4.96627h 0.181345v -0.592932h 0.181345v 13.0044h 0.181345v -8.26256h 0.181345v 1.68149h
 0.181345v -2.45693h 0.181345v 2.45693h 0.36269v -0.864111h 0.181345v -1.59282h 0.181345v 6.5125h 0.181345v 5.5592h 0.36269v 1.78062h 0.181345v -4.81433h 0.36269v 3.03371h 0.181345v 3.79933h 0.181345v -2.01871h 0.181345v -7.33983h 0.181345v 17.8187h
 0.181345v -3.37345h 0.181345v -5.08673h 0.181345v 8.46018h 0.181345v -8.46018h 0.181345v 5.08673h 0.181345v 7.72258h 0.181345v -10.4789h 0.181345v 6.12975h 0.181345v 10.4789h 0.36269v -13.8523h 0.181345v 3.37345h 0.181345v 20.9578h 0.181345v
 -10.4789h 0.181345v -10.4789h 0.181345v -3.37345h 0.181345v 7.72258h 0.181345v -4.34913h 0.181345v 10.4789h 0.181345v 10.4789h 0.181345v -10.4789h 0.181345v -10.4789h 0.181345v 10.4789h 0.181345v -6.12975h 0.181345v 6.12975h 0.181345v -6.12975h
 0.181345v -4.34913h 0.181345v 20.9578h 0.36269v -10.4789h 0.181345v -10.4789h 0.36269v 10.4789h 0.181345v -13.8523h 0.181345v -2.75631h 0.181345v 37.5664h 0.181345v -27.0875h 0.181345v -16.6086h 0.181345v 8.88606h 0.181345v 13.8523h 0.181345v
 -6.12975h 0.181345v 16.6086h 0.181345v -27.0875h 0.181345v 27.0875h 0.181345v -27.0875h 0.181345v 10.4789h 0.36269v -10.4789h 0.181345v 37.5664h 0.181345v -37.5664h 0.181345v 6.12975h 0.181345v 10.4789h 0.181345v -6.12975h 0.36269v -4.34913h
 0.36269v -3.37345h 0.181345v 3.37345h 0.36269v 4.34913h 0.181345v -10.4789h 0.181345v 2.75631h 0.181345v 3.37345h 0.181345v 4.34913h 0.181345v -16.6086h 0.181345v 22.7384h 0.181345v -16.6086h 0.181345v 6.12975h 0.181345v -8.46018h 0.181345v 5.08673h
 0.181345v 3.37345h 0.181345v -8.46018h 0.181345v 5.08673h 0.36269v -5.08673h 0.181345v -3.79933h 0.181345v 8.88606h 0.181345v -15.5656h 0.181345v 8.46018h 0.181345v 10.4789h 0.181345v 4.34913h 0.36269v -12.8093h 0.181345v -10.4789h 0.181345v
 23.2882h 0.181345v -12.8093h 0.181345v -8.14846h 0.181345v 8.14846h 0.181345v 2.33042h 0.181345v -10.4789h 0.181345v -2.33042h 0.181345v -3.79933h 0.181345v 8.88606h 0.181345v 7.72258h 0.36269v -11.689h 0.181345v 3.96638h 0.181345v 3.37345h
 0.181345v -6.12975h 0.181345v 6.12975h 0.181345v -7.33983h 0.181345v 5.5592h 0.181345v 8.88606h 0.181345v -14.4453h 0.181345v 7.33983h 0.181345v 14.828h 0.181345v -12.8093h 0.181345v 12.8093h 0.181345v 6.12975h 0.181345v -24.3312h 0.181345v 13.8523h
 0.181345v -8.46018h 0.181345v 2.33042h 0.181345v -4.34913h 0.181345v 14.828h 0.181345v -4.34913h 0.181345v -6.12975h 0.181345v -4.34913h 0.181345v 10.4789h 0.181345v 4.34913h 0.181345v -7.72258h 0.181345v -5.08673h 0.181345v 5.08673h 0.181345v
 -5.08673h 0.181345v 18.9391h 0.181345v -6.12975h 0.181345v -10.4789h 0.181345v -4.34913h 0.181345v 10.4789h 0.181345v 4.34913h 0.181345v -14.828h 0.181345v 10.4789h 0.181345v 4.34913h 0.181345v -10.4789h 0.181345v 2.75631h 0.36269v 7.72258h
 0.181345v -7.72258h 0.36269v -5.08673h 0.181345v 2.33042h 0.181345v -9.16346h 0.181345v 11.9198h 0.181345v 13.8523h 0.181345v -25.7721h 0.181345v 1.44088h 0.181345v 1.59282h 0.181345v -5.5592h 0.181345v 11.689h 0.181345v 10.4789h 0.181345v -7.72258h
 0.181345v 3.37345h 0.181345v -8.46018h 0.181345v 2.33042h 0.181345v 2.75631h 0.181345v -15.5656h 0.181345v 10.4789h 0.181345v 2.33042h 0.181345v -2.33042h 0.181345v -2.01871h 0.181345v 10.4789h 0.181345v -16.6086h 0.181345v 8.14846h 0.181345v
 5.08673h 0.181345v -5.08673h 0.181345v -2.01871h 0.181345v 2.01871h 0.181345v -5.39215h 0.181345v -3.96638h 0.181345v 11.689h 0.181345v -2.33042h 0.181345v -5.39215h 0.36269v 18.2015h 0.181345v -22.1678h 0.181345v 14.4453h 0.181345v -14.4453h
 0.181345v 3.96638h 0.181345v 1.59282h 0.181345v -4.34913h 0.181345v -3.37345h 0.181345v 11.5219h 0.181345v -12.4976h 0.181345v 3.13906h 0.181345v 5.5592h 0.181345v 3.79933h 0.181345v -6.83304h 0.181345v 6.83304h 0.181345v -10.4789h 0.181345v
 10.4789h 0.36269v -2.01871h 0.181345v -4.81433h 0.181345v 3.03371h 0.181345v -1.59282h 0.181345v 1.59282h 0.181345v 8.88606h 0.181345v -15.5656h 0.181345v 5.08673h 0.181345v -1.44088h 0.36269v 1.44088h 0.181345v -2.75631h 0.181345v 2.75631h
 0.181345v -5.08673h 0.181345v 3.64585h 0.181345v -1.31542h 0.181345v 6.12975h 0.181345v -6.12975h 0.36269v 4.34913h 0.181345v -11.2963h 0.181345v 2.598h 0.181345v -1.78062h 0.181345v 7.44518h 0.181345v 6.83304h 0.181345v -6.83304h 0.181345v 4.81433h
 0.181345v -6.12975h 0.181345v -6.12975h 0.181345v 6.12975h 0.181345v -3.37345h 0.181345v 2.16337h 0.181345v 1.21007h 0.181345v -1.21007h 0.181345v -6.5125h 0.181345v 6.5125h 0.181345v 1.21007h 0.181345v 8.14846h 0.181345v -9.35853h 0.181345v
 -6.5125h 0.181345v 13.8523h 0.181345v -7.33983h 0.181345v 1.21007h 0.181345v -2.33042h 0.181345v -2.01871h 0.181345v 7.10544h 0.181345v -7.10544h 0.181345v -2.598h 0.181345v 4.61671h 0.181345v -4.61671h 0.181345v 5.73706h 0.181345v -1.12035h
 0.181345v 3.64585h 0.181345v -10.4789h 0.181345v 7.95339h 0.181345v -3.13906h 0.181345v -1.78062h 0.181345v -2.33042h 0.181345v -0.703282h 0.181345v 5.79001h 0.181345v 3.37345h 0.181345v 2.75631h 0.181345v -10.4789h 0.181345v -0.737602h 0.181345v
 3.19454h 0.181345v -0.864111h 0.181345v 8.88606h 0.181345v -8.02195h 0.36269v -3.89782h 0.181345v 7.95339h 0.181345v -4.05557h 0.181345v 2.93522h 0.181345v 1.12035h 0.181345v -6.5125h 0.181345v -3.37345h 0.181345v 7.72258h 0.181345v -3.57369h
 0.181345v 9.70344h 0.36269v -8.02195h 0.181345v 0.916513h 0.181345v 14.828h 0.181345v -18.2015h 0.181345v 1.59282h 0.181345v -7.21006h 0.181345v 2.24379h 0.36269v -3.25202h 0.181345v 3.86916h 0.36269v 0.643409h 0.181345v -4.01686h 0.181345v 5.39215h
 0.181345v 0.737602h 0.181345v -7.57064h 0.36269v 4.19719h 0.181345v -2.24379h 0.181345v -1.00823h 0.181345v 1.53873h 0.181345v -2.48391h 0.181345v 4.81433h 0.181345v -3.86916h 0.181345v 0.495711h 0.181345v 2.16337h 0.181345v -0.570552h 0.181345v
 3.09605h 0.181345v -6.58107h 0.181345v 1.8922h 0.36269v 2.75631h 0.181345v 1.26055h 0.181345v -1.85348h 0.181345v 0.592932h 0.181345v -1.71328h 0.181345v -1.04302h 0.181345v -0.495711h 0.181345v 5.18458h 0.181345v -4.68887h 0.181345v 6.12975h
 0.181345v -2.75631h 0.181345v 0.643409h 0.181345v -1.26055h 0.181345v -0.592932h 0.181345v -1.65086h 0.181345v 4.17635h 0.181345v 3.89782h 0.36269v -9.0824h 0.181345v 3.86916h 0.181345v 5.21324h 0.181345v -1.68149h 0.181345v -2.88834h 0.181345v
 6.46203h 0.181345v -4.34913h 0.181345v -3.37345h 0.181345v 4.96627h 0.181345v -0.817379h 0.181345v -0.775443h 0.181345v 10.4789h 0.181345v 3.37345h 0.181345v -13.8523h 0.181345v 1.59282h 0.181345v -3.70572h 0.181345v 2.88834h 0.181345v 6.94713h
 0.181345v -8.46018h 0.181345v 7.25011h 0.181345v 9.35853h 0.181345v -14.2782h 0.181345v 0.864111h 0.181345v 8.02195h 0.181345v -13.8523h 0.181345v 7.72258h 0.181345v 1.04302h 0.181345v -2.01871h 0.181345v -4.11105h 0.181345v -0.703282h 0.181345v
 4.81433h 0.181345v -0.916513h 0.181345v 2.93522h 0.181345v 5.08673h 0.181345v -6.12975h 0.36269v -0.975683h 0.36269v -2.598h 0.181345v 3.57369h 0.181345v -3.57369h 0.181345v -0.775443h 0.181345v 2.45693h 0.181345v -5.83038h 0.181345v 11.096h
 0.181345v -2.33042h 0.181345v -2.01871h 0.181345v -2.598h 0.181345v 3.57369h 0.181345v -2.75631h 0.181345v 8.88606h 0.181345v -11.2165h 0.181345v 4.11105h 0.181345v 3.13906h 0.181345v -4.05557h 0.181345v 9.61477h 0.181345v -15.4452h 0.181345v
 15.4452h 0.181345v -9.61477h 0.544034v -3.19454h 0.181345v 0.737602h 0.181345v -1.44088h 0.181345v 6.83304h 0.181345v 6.67955h 0.181345v -7.72258h 0.181345v 6.12975h 0.181345v -2.75631h 0.181345v -4.34913h 0.181345v 4.34913h 0.181345v -3.37345h
 0.181345v 4.68887h 0.36269v -10.4789h 0.181345v 5.79001h 0.181345v -1.8922h 0.36269v 2.93522h 0.181345v 2.33042h 0.181345v -3.37345h 0.181345v 9.5032h 0.181345v -12.2595h 0.181345v 2.75631h 0.36269v 2.16337h 0.181345v -2.16337h 0.181345v 1.04302h
 0.181345v -8.7656h 0.181345v 4.96627h 0.181345v -3.70572h 0.181345v 5.48634h 0.181345v 2.01871h 0.181345v -2.93522h 0.36269v 1.8922h 0.181345v 1.04302h 0.181345v -4.61671h 0.181345v -0.775443h 0.181345v 2.45693h 0.181345v 4.05557h 0.181345v
 -2.16337h 0.181345v 4.68887h 0.181345v -5.66455h 0.181345v 0.975683h 0.181345v 1.04302h 0.181345v -5.39215h 0.181345v 1.59282h 0.181345v 1.78062h 0.181345v -4.81433h 0.181345v 3.89782h 0.36269v -0.864111h 0.36269v 0.864111h 0.181345v -0.864111h
 0.36269v 0.864111h 0.181345v -0.864111h 0.181345v -0.817379h 0.181345v -0.775443h 0.181345v 1.59282h 0.181345v 2.75631h 0.181345v -1.8922h 0.181345v 8.02195h 0.181345v 3.37345h 0.181345v -12.2595h 0.181345v 3.79933h 0.181345v -2.01871h 0.181345v
 -4.81433h 0.181345v 4.81433h 0.181345v -9.5032h 0.181345v 15.1678h 0.181345v -7.44518h 0.36269v 6.12975h 0.181345v -9.16346h 0.181345v 6.83304h 0.181345v -8.7656h 0.181345v 7.72258h 0.181345v 3.37345h 0.181345v -4.34913h 0.181345v -0.916513h
 0.181345v -3.19454h 0.181345v 11.2165h 0.181345v -5.08673h 0.181345v -4.61671h 0.181345v 0.817379h 0.181345v -2.33042h 0.181345v 5.08673h 0.181345v -5.08673h 0.181345v 2.33042h 0.181345v 1.78062h 0.181345v -0.916513h 0.181345v -2.45693h 0.36269v
 -0.737602h 0.181345v 3.19454h 0.181345v -8.07417h 0.181345v 13.3398h 0.181345v -12.2595h 0.181345v 3.79933h 0.181345v 2.33042h 0.181345v -4.96627h 0.181345v 7.72258h 0.181345v -5.79001h 0.181345v 4.81433h 0.181345v -3.37345h 0.181345v 1.59282h
 0.181345v -5.5592h 0.181345v 5.5592h 0.181345v -4.96627h 0.36269v -1.71328h 0.181345v 7.54366h 0.181345v -2.45693h 0.181345v -4.53693h 0.181345v 2.42403h 0.181345v 1.3753h 0.181345v -1.3753h 0.36269v -5.45774h 0.181345v 4.19719h 0.181345v -3.25202h
 0.181345v 7.40091h 0.181345v -5.86217h 0.544034v 9.43586h 0.181345v -9.43586h 0.181345v 1.12035h 0.181345v -4.4938h 0.181345v 9.23562h 0.181345v -2.21633h 0.181345v -0.672014h 0.181345v 2.88834h 0.181345v -5.31237h 0.181345v 5.31237h 0.181345v
 -2.21633h 0.181345v 3.89782h 0.181345v 5.26564h 0.181345v -10.4789h 0.36269v 8.14846h 0.181345v -6.83304h 0.181345v 2.21633h 0.181345v 6.94713h 0.181345v -1.21007h 0.181345v -7.25011h 0.181345v 4.11105h 0.181345v -7.91038h 0.181345v 1.78062h
 0.181345v 2.75631h 0.181345v 3.37345h 0.181345v 4.34913h 0.181345v -5.26564h 0.181345v 4.05557h 0.181345v -4.05557h 0.181345v 6.58107h 0.181345v -1.31542h 0.36269v 4.34913h 0.181345v -9.61477h 0.181345v -2.45693h 0.181345v 12.0717h 0.181345v
 -7.72258h 0.181345v 2.16337h 0.181345v 3.96638h 0.181345v -7.10544h 0.181345v 4.34913h 0.181345v -4.34913h 0.181345v 7.10544h 0.181345v -8.88606h 0.181345v 0.864111h 0.36269v 8.02195h 0.181345v 3.37345h 0.181345v -12.2595h 0.181345v -5.5592h
 0.181345v 9.35853h 0.181345v -1.04302h 0.181345v -2.75631h 0.181345v 0.864111h 0.181345v 2.93522h 0.181345v -5.39215h 0.181345v 3.37345h 0.181345v -4.11105h 0.181345v 0.737602h 0.181345v 4.34913h 0.36269v -5.08673h 0.181345v 5.08673h 0.181345v
 -5.79001h 0.181345v 10.4789h 0.181345v -8.26256h 0.181345v -4.14889h 0.181345v 3.37345h 0.181345v -1.44088h 0.181345v 3.03371h 0.181345v -4.96627h 0.181345v 6.74689h 0.181345v -6.12975h 0.181345v 6.12975h 0.181345v 0.975683h 0.181345v -1.8922h
 0.181345v -3.89782h 0.181345v 0.703282h 0.181345v 5.08673h 0.181345v 1.04302h 0.181345v -6.12975h 0.181345v 8.46018h 0.181345v -6.12975h 0.544034v 6.12975h 0.181345v -9.16346h 0.181345v 6.83304h 0.181345v 3.64585h 0.181345v -1.31542h 0.181345v
 2.75631h 0.181345v -2.75631h 0.181345v -2.33042h 0.181345v 10.4789h 0.181345v 2.33042h 0.181345v -2.33042h 0.181345v -3.79933h 0.181345v -4.34913h 0.181345v 2.75631h 0.181345v 5.39215h 0.181345v 5.08673h 0.181345v -11.9198h 0.181345v 11.9198h
 0.181345v 3.37345h 0.181345v -15.2932h 0.181345v 4.81433h 0.181345v -1.78062h 0.181345v 8.88606h 0.181345v -7.10544h 0.36269v -1.78062h 0.181345v 3.79933h 0.181345v 2.33042h 0.181345v 16.6086h 0.181345v -18.9391h 0.181345v 2.33042h 0.36269v 2.75631h
 0.181345v -8.88606h 0.181345v 12.2595h 0.181345v -8.46018h 0.36269v -2.01871h 0.36269v -6.12975h 0.181345v 13.2352h 0.181345v 3.37345h 0.181345v -12.2595h 0.181345v 1.78062h 0.181345v 7.10544h 0.181345v -10.4789h 0.181345v 1.59282h 0.181345v
 8.88606h 0.181345v -8.88606h 0.181345v -1.59282h 0.181345v 3.37345h 0.181345v 4.34913h 0.181345v -4.34913h 0.181345v 2.01871h 0.181345v 2.33042h 0.181345v -4.34913h 0.181345v -3.37345h 0.181345v -8.02195h 0.181345v 6.58107h 0.181345v -1.31542h
 0.181345v 1.31542h 0.181345v 4.81433h 0.181345v -3.37345h 0.181345v 7.72258h 0.181345v -7.72258h 0.181345v 1.59282h 0.181345v -1.59282h 0.181345v 24.3312h 0.181345v -20.9578h 0.181345v 4.34913h 0.181345v -12.8093h 0.181345v 1.12035h 0.181345v
 -1.12035h 0.181345v 1.12035h 0.181345v 17.8187h 0.181345v -8.46018h 0.181345v -5.39215h 0.181345v 3.37345h 0.181345v 4.34913h 0.181345v -10.4789h 0.181345v 6.12975h 0.181345v 4.34913h 0.181345v -10.4789h 0.36269v 1.31542h 0.181345v 6.83304h
 0.181345v -3.79933h 0.181345v 3.79933h 0.181345v -8.14846h 0.181345v 6.12975h 0.181345v -6.12975h 0.181345v 2.75631h 0.181345v 5.39215h 0.181345v -15.871h 0.181345v 18.2015h 0.181345v -12.8093h 0.181345v 12.8093h 0.181345v -4.34913h 0.36269v
 2.01871h 0.36269v -8.14846h 0.181345v 10.4789h 0.181345v -6.12975h 0.181345v -1.59282h 0.181345v -1.44088h 0.181345v -1.31542h 0.181345v 6.12975h 0.181345v -4.81433h 0.181345v 9.16346h 0.181345v -14.828h 0.181345v 5.66455h 0.181345v 3.03371h
 0.544034v 6.12975h 0.181345v -9.16346h 0.181345v 3.03371h 0.181345v -3.03371h 0.181345v 9.16346h 0.181345v -7.72258h 0.36269v 3.37345h 0.181345v -1.78062h 0.181345v 6.12975h 0.181345v -4.34913h 0.181345v 2.01871h 0.181345v -5.39215h 0.181345v
 -2.75631h 0.181345v -1.21007h 0.181345v 5.5592h 0.36269v 6.12975h 0.181345v -2.33042h 0.181345v -10.4789h 0.181345v 2.33042h 0.181345v 16.6086h 0.181345v -12.2595h 0.181345v 3.79933h 0.181345v -5.39215h 0.181345v -2.75631h 0.181345v 13.2352h
 0.181345v -14.4453h 0.181345v 14.4453h 0.181345v -8.88606h 0.181345v 3.79933h 0.181345v -2.01871h 0.181345v -1.78062h 0.36269v -5.5592h 0.181345v 3.96638h 0.36269v -3.96638h 0.181345v 3.96638h 0.181345v -2.75631h 0.181345v -2.33042h 0.181345v
 2.33042h 0.181345v -5.26564h 0.181345v 4.05557h 0.181345v 1.21007h 0.181345v 1.31542h 0.181345v -2.5255h 0.181345v -1.12035h 0.181345v -4.61671h 0.181345v -0.775443h 0.544034v 3.37345h 0.181345v 2.01871h 0.181345v -5.39215h 0.181345v 5.39215h
 0.181345v -2.01871h 0.181345v -4.81433h 0.181345v -0.672014h 0.181345v 2.1129h 0.181345v 2.45693h 0.36269v -7.54366h 0.181345v 2.97383h 0.181345v 3.70572h 0.181345v -0.817379h 0.181345v 5.73706h 0.181345v -6.5125h 0.181345v -1.44088h 0.181345v
 4.81433h 0.181345v -6.12975h 0.181345v 10.4789h 0.181345v -9.83547h 0.181345v 6.46203h 0.181345v -1.8922h 0.181345v -6.42331h 0.181345v 1.85348h 0.36269v 2.88834h 0.181345v -3.53175h 0.181345v 4.34913h 0.36269v -1.59282h 0.181345v -5.08673h
 0.181345v 2.97383h 0.181345v 1.3753h 0.181345v -0.703282h 0.181345v 1.44088h 0.181345v -3.37345h 0.181345v 9.88595h 0.181345v -4.91968h 0.181345v -2.33042h 0.181345v -3.79933h 0.181345v 2.42403h 0.181345v 2.1129h 0.181345v 3.37345h 0.181345v
 -4.11105h 0.181345v 6.12975h 0.181345v 2.33042h 0.181345v 4.34913h 0.181345v -4.34913h 0.181345v -2.33042h 0.181345v 2.33042h 0.181345v 1.31542h 0.181345v -1.31542h 0.181345v -1.21007h 0.181345v 11.689h 0.181345v -4.34913h 0.181345v -3.37345h
 0.181345v 5.39215h 0.181345v -5.39215h 0.181345v -2.75631h 0.36269v 2.75631h 0.181345v 10.4789h 0.181345v 13.8523h 0.181345v -13.8523h 0.181345v 13.8523h 0.181345v -18.9391h 0.181345v 2.33042h 0.181345v -6.12975h 0.181345v 6.12975h 0.181345v
 16.6086h 0.181345v -6.12975h 0.544034v 6.12975h 0.181345v -13.8523h 0.181345v 3.37345h 0.181345v -8.46018h 0.181345v 39.8968h 0.181345v -27.0875h 0.181345v 16.6086h 0.181345v -10.4789h 0.36269v -6.12975h 0.181345v -4.34913h 0.181345v 20.9578h
 0.181345v 10.4789h 0.181345v -37.5664h 0.181345v 27.0875h 0.181345v -10.4789h 0.36269v -6.12975h 0.181345v 16.6086h 0.181345v 10.4789h 0.181345v -20.9578h 0.181345v -6.12975h 0.181345v 16.6086h 0.36269v -24.3312h 0.181345v 24.3312h 0.181345v
 10.4789h 0.181345v -27.0875h 0.181345v 27.0875h 0.181345v -20.9578h 0.181345v 20.9578h 0.544034v -10.4789h 0.181345v -10.4789h 0.181345v 20.9578h 0.36269v -31.4366h 0.181345v 31.4366h 0.181345v -10.4789h 1.26941v 10.4789h 0.181345v -10.4789h
 0.181345v 10.4789h 0.181345v -27.0875h 0.181345v 16.6086h 0.181345v 10.4789h 0.181345v -20.9578h 0.181345v 10.4789h 0.181345v -10.4789h 0.181345v 20.9578h 0.181345v -10.4789h 0.544034v -10.4789h 0.725379v 10.4789h 0.181345v 10.4789h 0.181345v
 -20.9578h 0.181345v 20.9578h 0.181345v -10.4789h 0.36269v 10.4789h 0.181345v -20.9578h 0.36269v 10.4789h 0.181345v 10.4789h 0.181345v -20.9578h 0.181345v 10.4789h 0.181345v 10.4789h 0.181345v -27.0875h 0.181345v 27.0875h 0.544034v -20.9578h 0.36269v
 10.4789h 0.181345v -10.4789h 0.181345v 20.9578h 0.181345v -10.4789h 0.181345v -10.4789h 0.181345v 20.9578h 0.544034v -10.4789h 0.544034v 10.4789h 0.181345v -20.9578h 0.181345v 20.9578h 0.544034v -20.9578h 0.181345v 10.4789h 0.36269v 10.4789h
 0.36269v -27.0875h 0.181345v 6.12975h 0.36269v 20.9578h 0.544034v -20.9578h 0.181345v -6.12975h 0.181345v 16.6086h 0.725379v -10.4789h 0.181345v 20.9578h 0.36269v -34.8101h 0.181345v 13.8523h 0.181345v 10.4789h 0.181345v 10.4789h 0.181345v -10.4789h
 0.181345v 10.4789h 0.181345v -10.4789h 0.544034v -10.4789h 0.181345v 10.4789h 0.181345v -10.4789h 0.181345v 10.4789h 0.36269v -20.9578h 0.181345v 31.4366h 0.36269v -20.9578h 0.181345v 10.4789h 0.181345v -10.4789h 0.181345v 20.9578h 0.181345v
 -10.4789h 0.181345v 10.4789h 0.181345v -10.4789h 0.544034v -16.6086h 0.181345v 16.6086h 0.181345v -10.4789h 0.181345v 10.4789h 0.181345v -10.4789h 0.181345v 20.9578h 0.181345v -10.4789h 0.36269v -10.4789h 0.181345v 10.4789h 0.181345v 10.4789h
 0.725379v -10.4789h 0.181345v -20.9578h 0.181345v 20.9578h 0.181345v 10.4789h 0.181345v -20.9578h 0.36269v 10.4789h 0.36269v 10.4789h 0.181345v -20.9578h 0.181345v 10.4789h 0.544034v 10.4789h 0.36269v -20.9578h 0.181345v 20.9578h 0.36269v -10.4789h
 0.36269v 10.4789h 0.181345v -20.9578h 0.181345v 10.4789h 0.181345v -10.4789h 0.181345v 20.9578h 0.36269v -10.4789h 0.181345v -10.4789h 0.181345v 20.9578h 0.36269v -10.4789h 0.181345v 10.4789h 0.906724v -10.4789h 0.36269v 10.4789h 0.181345v -20.9578h
 0.181345v 20.9578h 0.36269v -10.4789h 0.36269v 10.4789h 0.906724v -10.4789h 0.181345v -10.4789h 0.181345v 20.9578h 0.181345v -10.4789h 0.181345v 10.4789h 0.181345v -10.4789h 0.906724v 10.4789h 0.181345v -10.4789h 0.36269v 10.4789h 0.181345v
 -20.9578h 0.181345v 20.9578h 0.36269v -10.4789h 0.181345v -16.6086h 0.181345v 27.0875h 0.181345v -10.4789h 0.544034v 10.4789h 0.36269v -10.4789h 0.181345v 10.4789h 0.36269v -10.4789h 0.181345v 10.4789h 0.36269v -10.4789h 0.181345v 10.4789h 0.181345v
 -10.4789h 0.181345v 10.4789h 0.181345v -20.9578h 0.181345v 20.9578h 0.181345v -20.9578h 0.181345v 20.9578h 0.181345v -20.9578h 0.181345v 10.4789h 0.544034v 10.4789h 0.36269v -10.4789h 0.36269v -10.4789h 0.181345v 20.9578h 0.544034v -10.4789h
 0.36269v -10.4789h 0.181345v 20.9578h 0.36269v -20.9578h 0.181345v -6.12975h 0.181345v 16.6086h 0.181345v -16.6086h 0.181345v 16.6086h 0.181345v 10.4789h 1.26941v -20.9578h 0.181345v 10.4789h 0.181345v 10.4789h 0.181345" fill="none" stroke="black"/>
<path d="M57.1929,280.151h 453.543" fill="none" stroke="black"/>
<path d="M57.1929,272.68v 7.47068" fill="none" stroke="black"/>
<path d="M75.3318,276.415v 3.73534" fill="none" stroke="black"/>
<path d="M93.4707,276.415v 3.73534" fill="none" stroke="black"/>
<path d="M111.61,276.415v 3.73534" fill="none" stroke="black"/>
<path d="M129.749,276.415v 3.73534" fill="none" stroke="black"/>
<path d="M147.887,272.68v 7.47068" fill="none" stroke="black"/>
<path d="M166.026,276.415v 3.73534" fill="none" stroke="black"/>
<path d="M184.165,276.415v 3.73534" fill="none" stroke="black"/>
<path d="M202.304,276.415v 3.73534" fill="none" stroke="black"/>
<path d="M220.443,276.415v 3.73534" fill="none" stroke="black"/>
<path d="M238.582,272.68v 7.47068" fill="none" stroke="black"/>
<path d="M256.721,276.415v 3.73534" fill="none" stroke="black"/>
<path d="M274.86,276.415v 3.73534" fill="none" stroke="black"/>
<path d="M292.999,276.415v 3.73534" fill="none" stroke="black"/>
<path d="M311.138,276.415v 3.73534" fill="none" stroke="black"/>
<path d="M329.277,272.68v 7.47068" fill="none" stroke="black"/>
<path d="M347.415,276.415v 3.73534" fill="none" stroke="black"/>
<path d="M365.554,276.415v 3.73534" fill="none" stroke="black"/>
<path d="M383.693,276.415v 3.73534" fill="none" stroke="black"/>
<path d="M401.832,276.415v 3.73534" fill="none" stroke="black"/>
<path d="M419.971,272.68v 7.47068" fill="none" stroke="black"/>
<path d="M438.11,276.415v 3.73534" fill="none" stroke="black"/>
<path d="M456.249,276.415v 3.73534" fill="none" stroke="black"/>
<path d="M474.388,276.415v 3.73534" fill="none" stroke="black"/>
<path d="M492.527,276.415v 3.73534" fill="none" stroke="black"/>
<path d="M510.666,272.68v 7.47068" fill="none" stroke="black"/>
<path d="M510.666,272.68v 7.47068" fill="none" stroke="black"/>
<text xml:space="preserve" x="54.3523" y="290.27" fill="black" font-size="10.4952" font-family="Helvetica">0</text>
<text xml:space="preserve" x="139.569" y="290.27" fill="black" font-size="10.4952" font-family="Helvetica">500</text>
<text xml:space="preserve" x="227.449" y="290.27" fill="black" font-size="10.4952" font-family="Helvetica">1000</text>
<text xml:space="preserve" x="318.288" y="290.27" fill="black" font-size="10.4952" font-family="Helvetica">1500</text>
<text xml:space="preserve" x="408.831" y="290.27" fill="black" font-size="10.4952" font-family="Helvetica">2000</text>
<text xml:space="preserve" x="499.67" y="290.27" fill="black" font-size="10.4952" font-family="Helvetica">2500</text>
<text xml:space="preserve" x="265.323" y="301.218" fill="black" font-size="10.4952" font-family="Helvetica">Channel</text>
<path d="M57.1929,280.151v -249.023" fill="none" stroke="black"/>
<path d="M63.9961,280.151h -6.80315" fill="none" stroke="black"/>
<path d="M63.9961,277.394h -6.80315" fill="none" stroke="black"/>
<path d="M63.9961,275.064h -6.80315" fill="none" stroke="black"/>
<path d="M63.9961,273.045h -6.80315" fill="none" stroke="black"/>
<path d="M63.9961,271.264h -6.80315" fill="none" stroke="black"/>
<path d="M70.7992,269.672h -13.6063" fill="none" stroke="black"/>
<text xml:space="preserve" x="49.0263" y="273.404" fill="black" font-size="10.4952" font-family="Helvetica">1</text>
<path d="M63.9961,259.193h -6.80315" fill="none" stroke="black"/>
<path d="M63.9961,253.063h -6.80315" fill="none" stroke="black"/>
<path d="M63.9961,248.714h -6.80315" fill="none" stroke="black"/>
<path d="M63.9961,245.34h -6.80315" fill="none" stroke="black"/>
<path d="M63.9961,242.584h -6.80315" fill="none" stroke="black"/>
<path d="M63.9961,240.254h -6.80315" fill="none" stroke="black"/>
<path d="M63.9961,238.235h -6.80315" fill="none" stroke="black"/>
<path d="M63.9961,236.454h -6.80315" fill="none" stroke="black"/>
<path d="M70.7992,234.862h -13.6063" fill="none" stroke="black"/>
<text xml:space="preserve" x="41.629" y="238.489" fill="black" font-size="10.4952" font-family="Helvetica">10</text>
<path d="M63.9961,224.383h -6.80315" fill="none" stroke="black"/>
<path d="M63.9961,218.253h -6.80315" fill="none" stroke="black"/>
<path d="M63.9961,213.904h -6.80315" fill="none" stroke="black"/>
<path d="M63.9961,210.53h -6.80315" fill="none" stroke="black"/>
<path d="M63.9961,207.774h -6.80315" fill="none" stroke="black"/>
<path d="M63.9961,205.444h -6.80315" fill="none" stroke="black"/>
<path d="M63.9961,203.425h -6.80315" fill="none" stroke="black"/>
<path d="M63.9961,201.644h -6.80315" fill="none" stroke="black"/>
<path d="M70.7992,200.051h -13.6063" fill="none" stroke="black"/>
<text xml:space="preserve" x="49.0263" y="200.319" fill="black" font-size="7.16345" font-family="Helvetica">2</text>
<text xml:space="preserve" x="38.0783" y="204.757" fill="black" font-size="10.4952" font-family="Helvetica">10</text>
<path d="M63.9961,189.573h -6.80315" fill="none" stroke="black"/>
<path d="M63.9961,183.443h -6.80315" fill="none" stroke="black"/>
<path d="M63.9961,179.094h -6.80315" fill="none" stroke="black"/>
<path d="M63.9961,175.72h -6.80315" fill="none" stroke="black"/>
<path d="M63.9961,172.964h -6.80315" fill="none" stroke="black"/>
<path d="M63.9961,170.634h -6.80315" fill="none" stroke="black"/>
<path d="M63.9961,168.615h -6.80315" fill="none" stroke="black"/>
<path d="M63.9961,166.834h -6.80315" fill="none" stroke="black"/>
<path d="M70.7992,165.241h -13.6063" fill="none" stroke="black"/>
<text xml:space="preserve" x="49.0263" y="165.108" fill="black" font-size="7.16345" font-family="Helvetica">3</text>
<text xml:space="preserve" x="38.0783" y="169.842" fill="black" font-size="10.4952" font-family="Helvetica">10</text>
<path d="M63.9961,154.762h -6.80315" fill="none" stroke="black"/>
<path d="M63.9961,148.633h -6.80315" fill="none" stroke="black"/>
<path d="M63.9961,144.284h -6.80315" fill="none" stroke="black"/>
<path d="M63.9961,140.91h -6.80315" fill="none" stroke="black"/>
<path d="M63.9961,138.154h -6.80315" fill="none" stroke="black"/>
<path d="M63.9961,135.823h -6.80315" fill="none" stroke="black"/>
<path d="M63.9961,133.805h -6.80315" fill="none" stroke="black"/>
<path d="M63.9961,132.024h -6.80315" fill="none" stroke="black"/>
<path d="M70.7992,130.431h -13.6063" fill="none" stroke="black"/>
<text xml:space="preserve" x="49.0263" y="130.488" fill="black" font-size="7.16345" font-family="Helvetica">4</text>
<text xml:space="preserve" x="38.0783" y="134.927" fill="black" font-size="10.4952" font-family="Helvetica">10</text>
<path d="M63.9961,119.952h -6.80315" fill="none" stroke="black"/>
<path d="M63.9961,113.823h -6.80315" fill="none" stroke="black"/>
<path d="M63.9961,109.474h -6.80315" fill="none" stroke="black"/>
<path d="M63.9961,106.1h -6.80315" fill="none" stroke="black"/>
<path d="M63.9961,103.344h -6.80315" fill="none" stroke="black"/>
<path d="M63.9961,101.013h -6.80315" fill="none" stroke="black"/>
<path d="M63.9961,98.9946h -6.80315" fill="none" stroke="black"/>
<path d="M63.9961,97.214h -6.80315" fill="none" stroke="black"/>
<path d="M70.7992,95.6212h -13.6063" fill="none" stroke="black"/>
<text xml:space="preserve" x="49.0263" y="95.5731" fill="black" font-size="7.16345" font-family="Helvetica">5</text>
<text xml:space="preserve" x="38.0783" y="100.307" fill="black" font-size="10.4952" font-family="Helvetica">10</text>
<path d="M63.9961,85.1423h -6.80315" fill="none" stroke="black"/>
<path d="M63.9961,79.0126h -6.80315" fill="none" stroke="black"/>
<path d="M63.9961,74.6634h -6.80315" fill="none" stroke="black"/>
<path d="M63.9961,71.29h -6.80315" fill="none" stroke="black"/>
<path d="M63.9961,68.5337h -6.80315" fill="none" stroke="black"/>
<path d="M63.9961,66.2033h -6.80315" fill="none" stroke="black"/>
<path d="M63.9961,64.1845h -6.80315" fill="none" stroke="black"/>
<path d="M63.9961,62.4039h -6.80315" fill="none" stroke="black"/>
<path d="M70.7992,60.8111h -13.6063" fill="none" stroke="black"/>
<text xml:space="preserve" x="49.0263" y="60.6579" fill="black" font-size="7.16345" font-family="Helvetica">6</text>
<text xml:space="preserve" x="38.0783" y="65.3921" fill="black" font-size="10.4952" font-family="Helvetica">10</text>
<path d="M63.9961,50.3322h -6.80315" fill="none" stroke="black"/>
<path d="M63.9961,44.2025h -6.80315" fill="none" stroke="black"/>
<path d="M63.9961,39.8533h -6.80315" fill="none" stroke="black"/>
<path d="M63.9961,36.4799h -6.80315" fill="none" stroke="black"/>
<path d="M63.9961,33.7236h -6.80315" fill="none" stroke="black"/>
<path d="M63.9961,31.3932h -6.80315" fill="none" stroke="black"/>
<g transform="rotate(-90,26.5385,191.442)">
<text xml:space="preserve" x="26.5385" y="191.442" fill="black" font-size="10.4952" font-family="Helvetica">Counts/Channel</text>
</g>
<text xml:space="preserve" x="404.097" y="60.6579" fill="black" font-size="14.7788" font-family="Helvetica" font-weight="bold"> = 2.4879 MeV</text>
<text xml:space="preserve" x="398.179" y="63.9127" fill="black" font-size="10.0192" font-family="Helvetica" font-weight="bold">p</text>
<text xml:space="preserve" x="389.006" y="60.6579" fill="black" font-size="14.7788" font-family="Helvetica" font-weight="bold">E</text>
<path d="M262.163,163.801v 26.1527" fill="none" stroke="black"/>
<path d="M264.454,189.953l -2.29122, 3.9685l -2.29122, -3.9685z" fill="black"/>
<path d="M264.454,189.953l -2.29122, 3.9685l -2.29122, -3.9685h 4.58243z" fill="none" stroke="black"/>
<text xml:space="preserve" x="266.803" y="161.853" fill="black" font-size="10.4952" font-family="Helvetica" font-weight="bold">_1 	1.369 MeV</text>
<text xml:space="preserve" x="260.293" y="161.853" fill="black" font-size="10.4952" font-family="Times">&#0945;</text>
<path d="M184.528,130.431v 30.8416" fill="none" stroke="black"/>
<path d="M186.819,161.273l -2.29122, 3.9685l -2.29122, -3.9685z" fill="black"/>
<path d="M186.819,161.273l -2.29122, 3.9685l -2.29122, -3.9685h 4.58243z" fill="none" stroke="black"/>
<text xml:space="preserve" x="172.117" y="127.529" fill="black" font-size="10.4952" font-family="Helvetica" font-weight="bold"># p_1 	0.844 MeV</text>
<path d="M210.104,148.633v 12.6401" fill="none" stroke="black"/>
<path d="M212.395,161.273l -2.29122, 3.9685l -2.29122, -3.9685z" fill="black"/>
<path d="M212.395,161.273l -2.29122, 3.9685l -2.29122, -3.9685h 4.58243z" fill="none" stroke="black"/>
<text xml:space="preserve" x="197.564" y="144.099" fill="black" font-size="10.4952" font-family="Helvetica" font-weight="bold"># p_2 	1.015 MeV</text>
<path d="M497.612,269.672h 13.0539" fill="none" stroke="black"/>
<path d="M504.139,259.193h 6.52696" fill="none" stroke="black"/>
<path d="M504.139,253.063h 6.52696" fill="none" stroke="black"/>
<path d="M504.139,248.714h 6.52696" fill="none" stroke="black"/>
<path d="M504.139,245.34h 6.52696" fill="none" stroke="black"/>
<path d="M504.139,242.584h 6.52696" fill="none" stroke="black"/>
<path d="M504.139,240.254h 6.52696" fill="none" stroke="black"/>
<path d="M504.139,238.235h 6.52696" fill="none" stroke="black"/>
<path d="M504.139,236.454h 6.52696" fill="none" stroke="black"/>
<path d="M497.612,234.862h 13.0539" fill="none" stroke="black"/>
<path d="M504.139,224.383h 6.52696" fill="none" stroke="black"/>
<path d="M504.139,218.253h 6.52696" fill="none" stroke="black"/>
<path d="M504.139,213.904h 6.52696" fill="none" stroke="black"/>
<path d="M504.139,210.53h 6.52696" fill="none" stroke="black"/>
<path d="M504.139,207.774h 6.52696" fill="none" stroke="black"/>
<path d="M504.139,205.444h 6.52696" fill="none" stroke="black"/>
<path d="M504.139,203.425h 6.52696" fill="none" stroke="black"/>
<path d="M504.139,201.644h 6.52696" fill="none" stroke="black"/>
<path d="M497.612,200.051h 13.0539" fill="none" stroke="black"/>
<path d="M504.139,189.573h 6.52696" fill="none" stroke="black"/>
<path d="M504.139,183.443h 6.52696" fill="none" stroke="black"/>
<path d="M504.139,179.094h 6.52696" fill="none" stroke="black"/>
<path d="M504.139,175.72h 6.52696" fill="none" stroke="black"/>
<path d="M504.139,172.964h 6.52696" fill="none" stroke="black"/>
<path d="M504.139,170.634h 6.52696" fill="none" stroke="black"/>
<path d="M504.139,168.615h 6.52696" fill="none" stroke="black"/>
<path d="M504.139,166.834h 6.52696" fill="none" stroke="black"/>
<path d="M497.612,165.241h 13.0539" fill="none" stroke="black"/>
<path d="M504.139,154.762h 6.52696" fill="none" stroke="black"/>
<path d="M504.139,148.633h 6.52696" fill="none" stroke="black"/>
<path d="M504.139,144.284h 6.52696" fill="none" stroke="black"/>
<path d="M504.139,140.91h 6.52696" fill="none" stroke="black"/>
<path d="M504.139,138.154h 6.52696" fill="none" stroke="black"/>
<path d="M504.139,135.823h 6.52696" fill="none" stroke="black"/>
<path d="M504.139,133.805h 6.52696" fill="none" stroke="black"/>
<path d="M504.139,132.024h 6.52696" fill="none" stroke="black"/>
<path d="M497.612,130.431h 13.0539" fill="none" stroke="black"/>
<path d="M504.139,119.952h 6.52696" fill="none" stroke="black"/>
<path d="M504.139,113.823h 6.52696" fill="none" stroke="black"/>
<path d="M504.139,109.474h 6.52696" fill="none" stroke="black"/>
<path d="M504.139,106.1h 6.52696" fill="none" stroke="black"/>
<path d="M504.139,103.344h 6.52696" fill="none" stroke="black"/>
<path d="M504.139,101.013h 6.52696" fill="none" stroke="black"/>
<path d="M504.139,98.9946h 6.52696" fill="none" stroke="black"/>
<path d="M504.139,97.214h 6.52696" fill="none" stroke="black"/>
<path d="M497.612,95.6212h 13.0539" fill="none" stroke="black"/>
<path d="M504.139,85.1423h 6.52696" fill="none" stroke="black"/>
<path d="M504.139,79.0126h 6.52696" fill="none" stroke="black"/>
<path d="M504.139,74.6634h 6.52696" fill="none" stroke="black"/>
<path d="M504.139,71.29h 6.52696" fill="none" stroke="black"/>
<path d="M504.139,68.5337h 6.52696" fill="none" stroke="black"/>
<path d="M504.139,66.2033h 6.52696" fill="none" stroke="black"/>
<path d="M504.139,64.1845h 6.52696" fill="none" stroke="black"/>
<path d="M504.139,62.4039h 6.52696" fill="none" stroke="black"/>
<path d="M497.612,60.8111h 13.0539" fill="none" stroke="black"/>
<path d="M504.139,50.3322h 6.52696" fill="none" stroke="black"/>
<path d="M504.139,44.2025h 6.52696" fill="none" stroke="black"/>
<path d="M504.139,39.8533h 6.52696" fill="none" stroke="black"/>
<path d="M504.139,36.4799h 6.52696" fill="none" stroke="black"/>
<path d="M504.139,33.7236h 6.52696" fill="none" stroke="black"/>
<path d="M504.139,31.3932h 6.52696" fill="none" stroke="black"/>
<path d="M57.1929,38.2283v -7.46952" fill="none" stroke="black"/>
<path d="M75.3318,38.2283v -7.46952" fill="none" stroke="black"/>
<path d="M93.4707,38.2283v -7.46952" fill="none" stroke="black"/>
<path d="M111.61,38.2283v -7.46952" fill="none" stroke="black"/>
<path d="M129.749,38.2283v -7.46952" fill="none" stroke="black"/>
<path d="M147.887,38.2283v -7.46952" fill="none" stroke="black"/>
<path d="M166.026,38.2283v -7.46952" fill="none" stroke="black"/>
<path d="M184.165,38.2283v -7.46952" fill="none" stroke="black"/>
<path d="M202.304,38.2283v -7.46952" fill="none" stroke="black"/>
<path d="M220.443,38.2283v -7.46952" fill="none" stroke="black"/>
<path d="M238.582,38.2283v -7.46952" fill="none" stroke="black"/>
<path d="M256.721,38.2283v -7.46952" fill="none" stroke="black"/>
<path d="M274.86,38.2283v -7.46952" fill="none" stroke="black"/>
<path d="M292.999,38.2283v -7.46952" fill="none" stroke="black"/>
<path d="M311.138,38.2283v -7.46952" fill="none" stroke="black"/>
<path d="M329.277,38.2283v -7.46952" fill="none" stroke="black"/>
<path d="M347.415,38.2283v -7.46952" fill="none" stroke="black"/>
<path d="M365.554,38.2283v -7.46952" fill="none" stroke="black"/>
<path d="M383.693,38.2283v -7.46952" fill="none" stroke="black"/>
<path d="M401.832,38.2283v -7.46952" fill="none" stroke="black"/>
<path d="M419.971,38.2283v -7.46952" fill="none" stroke="black"/>
<path d="M438.11,38.2283v -7.46952" fill="none" stroke="black"/>
<path d="M456.249,38.2283v -7.46952" fill="none" stroke="black"/>
<path d="M474.388,38.2283v -7.46952" fill="none" stroke="black"/>
<path d="M492.527,38.2283v -7.46952" fill="none" stroke="black"/>
<path d="M510.666,38.2283v -7.46952" fill="none" stroke="black"/></svg>
