<?xml version="1.0" standalone="no"?>
<svg width="567.429" height="311.778" viewBox="0 0 567.429 311.778" xmlns="http://www.w3.org/2000/svg" shape-rendering="crispEdges">
<title>
Yields/P1/det-10/run_0100_Fit.svg
</title>
<desc>
Creator: ROOT Version 6.12/06
CreationDate: Mon Apr 15 10:29:01 2019</desc>
<defs>
</defs>
<rect x="0.5" y="0" width="566.929" height="311.278" fill="white"/>
<rect x="57.1929" y="31.1278" width="453.543" height="249.023" fill="white"/>
<rect x="57.1929" y="31.1278" width="453.543" height="249.023" fill="none" stroke="black"/>
<rect x="57.1929" y="31.1278" width="453.543" height="249.023" fill="white"/>
<rect x="57.1929" y="31.1278" width="453.543" height="249.023" fill="none" stroke="black"/>
<path d="M57.1929,40.8216h 0.181345v 239.329h 21.2173v -10.5139h 0.181345v 10.5139h 2.90152v -10.5139h 0.181345v 10.5139h 2.72017v -10.5139h 0.181345v 10.5139h 4.53362v -10.5139h 0.181345v -16.6641h 0.181345v -22.2419h 0.181345v -14.583h 0.181345v
 -9.35545h 0.181345v -8.9958h 0.181345v -6.75879h 0.181345v -3.0748h 0.181345v -3.68782h 0.181345v -1.55443h 0.181345v -0.954299h 0.181345v -1.53791h 0.181345v -1.51014h 0.181345v -0.702193h 0.181345v -1.4457h 0.181345v -0.548119h 0.181345v 0.1912h
 0.181345v 1.65884h 0.181345v -2.0701h 0.181345v 0.507775h 0.181345v -0.816713h 0.181345v -0.121835h 0.181345v -0.653142h 0.181345v -0.457947h 0.181345v -0.389667h 0.181345v 1.6532h 0.181345v -2.45595h 0.181345v 0.183543h 0.181345v 1.06536h 0.181345v
 -0.745456h 0.181345v -0.451235h 0.181345v -0.488929h 0.181345v 1.68562h 0.181345v -0.932887h 0.181345v -0.651102h 0.181345v 0.784745h 0.181345v -0.239716h 0.181345v -0.183861h 0.181345v -0.361168h 0.181345v -0.402501h 0.181345v 0.556235h 0.181345v
 0.129313h 0.181345v -0.610889h 0.181345v 0.0750291h 0.181345v -0.273311h 0.181345v 0.173355h 0.181345v 0.687852h 0.181345v -1.27414h 0.181345v 0.636186h 0.181345v 0.430876h 0.181345v -0.505659h 0.181345v -0.609253h 0.181345v 0.936007h 0.181345v
 -0.475222h 0.181345v 1.23054h 0.181345v -1.61949h 0.181345v -0.355803h 0.181345v -0.865697h 0.181345v -1.83325h 0.181345v -0.596423h 0.181345v -2.40276h 0.181345v -1.9042h 0.181345v -2.21598h 0.181345v -1.55021h 0.181345v -1.77549h 0.181345v
 -1.39274h 0.181345v -0.608049h 0.181345v -0.576297h 0.181345v 0.108495h 0.181345v 0.905971h 0.181345v 1.01099h 0.181345v 0.630691h 0.181345v 2.68055h 0.181345v 2.197h 0.181345v 2.15484h 0.181345v 2.88888h 0.181345v 3.07352h 0.181345v 3.09579h
 0.181345v 1.91952h 0.181345v 2.19811h 0.181345v 1.29254h 0.181345v 0.498731h 0.181345v 1.60284h 0.181345v 1.22194h 0.181345v -0.202248h 0.181345v 0.825692h 0.181345v -1.89228h 0.181345v 0.141102h 0.181345v 0.925484h 0.181345v 2.80575h 0.181345v
 -1.27443h 0.181345v -1.43054h 0.181345v 0.938548h 0.181345v -0.424317h 0.181345v -0.715139h 0.181345v 2.08258h 0.181345v -0.780897h 0.181345v -0.215923h 0.181345v 0.99682h 0.181345v -0.114048h 0.181345v -0.721118h 0.181345v 0.495562h 0.181345v
 1.52989h 0.181345v -0.959583h 0.181345v -0.457947h 0.181345v 0.399942h 0.181345v -0.844468h 0.36269v 2.55885h 0.181345v -2.55885h 0.181345v 1.61641h 0.181345v -0.771942h 0.181345v 0.351406h 0.181345v -1.68087h 0.181345v 1.38747h 0.181345v 1.20927h
 0.181345v 2.08852h 0.181345v -1.04651h 0.181345v -1.89852h 0.181345v 0.606815h 0.181345v 1.98129h 0.181345v -1.34919h 0.181345v -1.41633h 0.181345v 0.23701h 0.181345v 2.31832h 0.181345v -0.680309h 0.181345v 2.68589h 0.181345v -1.7954h 0.36269v
 -0.417504h 0.181345v -0.0684803h 0.181345v -0.991749h 0.181345v 1.61949h 0.181345v 1.73326h 0.181345v 0.904614h 0.181345v -3.33379h 0.181345v -0.202698h 0.181345v 2.16028h 0.181345v 0.632106h 0.36269v -1.16438h 0.181345v -0.729388h 0.181345v
 -0.28221h 0.181345v -0.750049h 0.181345v 2.60669h 0.181345v -1.35927h 0.181345v -0.356919h 0.181345v 0.648627h 0.181345v 0.222523h 0.181345v -0.514231h 0.181345v 2.67909h 0.181345v -1.47701h 0.181345v 0.720532h 0.181345v -0.876106h 0.181345v
 0.551637h 0.181345v -1.95506h 0.181345v 2.03553h 0.181345v 1.17383h 0.181345v -2.33821h 0.181345v 2.69098h 0.181345v -2.83969h 0.181345v 1.88866h 0.181345v -0.0835724h 0.181345v 0.422544h 0.181345v 2.40979h 0.181345v -4.11043h 0.181345v 1.11231h
 0.181345v 0.333384h 0.181345v -1.13613h 0.181345v 2.54816h 0.181345v -2.85773h 0.181345v 2.49221h 0.181345v -2.10425h 0.181345v -0.387959h 0.181345v 1.36166h 0.181345v 0.338972h 0.181345v -0.170433h 0.181345v -1.37621h 0.181345v -1.61362h 0.181345v
 1.53642h 0.181345v -1.94826h 0.181345v 0.622024h 0.181345v 0.141761h 0.181345v -0.965585h 0.181345v 0.544215h 0.181345v 1.83861h 0.181345v 0.720532h 0.181345v -2.90156h 0.181345v 0.906884h 0.181345v 2.66521h 0.181345v -1.92873h 0.181345v 0.853688h
 0.181345v 0.404513h 0.181345v -0.798519h 0.181345v 2.71892h 0.181345v -0.726767h 0.181345v -2.45183h 0.181345v 3.74748h 0.181345v 2.17804h 0.181345v -3.99678h 0.181345v 0.791572h 0.181345v 0.181659h 0.181345v 0.653507h 0.181345v 0.783057h 0.36269v
 0.202248h 0.181345v -0.401834h 0.181345v 0.300373h 0.181345v -2.84955h 0.181345v 1.49606h 0.181345v 1.05312h 0.181345v 1.13172h 0.181345v -0.212148h 0.181345v -2.0649h 0.181345v 1.6493h 0.181345v 1.85077h 0.181345v -5.23549h 0.181345v 4.33636h
 0.181345v -2.69259h 0.181345v 0.091652h 0.181345v 0.372248h 0.181345v 1.17491h 0.181345v 0.30852h 0.181345v -1.48343h 0.181345v 1.69265h 0.181345v -0.209222h 0.181345v -0.710354h 0.36269v 0.300373h 0.181345v -1.07345h 0.181345v 0.67426h 0.181345v
 -0.768182h 0.181345v 2.32261h 0.181345v -1.65261h 0.181345v 0.0981774h 0.181345v -2.02545h 0.181345v 1.16393h 0.181345v 0.187266h 0.181345v 0.478537h 0.181345v -2.33821h 0.181345v -0.32976h 0.181345v -0.871529h 0.181345v 0.709299h 0.181345v
 0.659598h 0.181345v -0.0840354h 0.181345v -0.166687h 0.181345v -1.34742h 0.181345v 2.55463h 0.181345v 0.548313h 0.181345v -2.56254h 0.181345v 2.19481h 0.181345v -0.359031h 0.181345v -0.778035h 0.181345v 2.86698h 0.181345v -0.302369h 0.181345v
 -0.198282h 0.181345v 0.500651h 0.181345v -1.26883h 0.181345v 0.866999h 0.181345v 0.814604h 0.181345v -0.913421h 0.181345v 1.99734h 0.181345v -2.09551h 0.181345v 3.26289h 0.181345v 0.874139h 0.181345v -4.4278h 0.181345v 0.19323h 0.181345v 2.88265h
 0.181345v -0.463192h 0.181345v -1.82454h 0.181345v 1.26476h 0.181345v 0.333384h 0.181345v -1.59815h 0.181345v 1.04651h 0.181345v -0.842903h 0.181345v -0.304392h 0.181345v 0.615018h 0.181345v 1.89155h 0.181345v -0.118042h 0.181345v -3.64122h
 0.181345v 3.40786h 0.181345v -2.93821h 0.181345v 1.19029h 0.181345v 1.74793h 0.181345v 0.711147h 0.181345v -3.16471h 0.181345v 1.01839h 0.181345v -1.11657h 0.181345v 3.63137h 0.181345v -3.33491h 0.181345v 2.37151h 0.181345v 0.47405h 0.181345v
 -1.48941h 0.181345v -0.53604h 0.181345v -0.619202h 0.181345v 1.37508h 0.181345v -0.650172h 0.181345v -1.1241h 0.181345v 2.92394h 0.181345v -0.9266h 0.181345v -3.2266h 0.181345v 1.03354h 0.181345v 2.76552h 0.181345v -2.56979h 0.181345v 1.4457h
 0.181345v -1.64142h 0.181345v 1.00489h 0.181345v 3.35877h 0.181345v -2.1706h 0.181345v -2.09551h 0.181345v 0.700973h 0.181345v -0.503978h 0.181345v 1.67545h 0.181345v -1.47586h 0.36269v 1.92533h 0.181345v -2.02545h 0.181345v 2.25528h 0.181345v
 -1.64439h 0.181345v 1.07622h 0.181345v -2.55965h 0.181345v -0.093922h 0.181345v 3.81203h 0.181345v -2.84556h 0.544034v 0.610889h 0.181345v -0.710354h 0.181345v -0.773077h 0.181345v 0.285307h 0.181345v 0.19323h 0.181345v -0.384029h 0.181345v 1.28539h
 0.181345v 0.848801h 0.181345v 0.783779h 0.181345v -1.73542h 0.181345v 0.415597h 0.181345v 1.20534h 0.181345v -1.31031h 0.181345v 2.74461h 0.181345v -1.20447h 0.181345v -1.74793h 0.181345v 1.17976h 0.181345v 0.919576h 0.181345v -0.466755h 0.181345v
 2.22373h 0.181345v -0.394005h 0.181345v -2.61351h 0.181345v 2.35641h 0.181345v -2.46514h 0.181345v 1.71901h 0.181345v -0.826496h 0.181345v 2.76552h 0.181345v -2.4168h 0.181345v -0.463192h 0.181345v -1.09964h 0.181345v 1.68087h 0.181345v 1.89062h
 0.181345v -3.24989h 0.181345v 3.38472h 0.181345v 1.71901h 0.181345v 0.152447h 0.181345v -1.03629h 0.181345v -2.74165h 0.181345v 1.11491h 0.181345v 0.259294h 0.181345v -0.888777h 0.181345v -2.28527h 0.181345v 2.78675h 0.181345v 0.919576h 0.181345v
 -0.532278h 0.181345v 3.35207h 0.181345v -5.08041h 0.181345v 3.67926h 0.181345v -2.83969h 0.181345v 1.02011h 0.181345v 2.89799h 0.181345v -3.28862h 0.181345v 2.9726h 0.181345v -0.612946h 0.181345v 0.457372h 0.181345v 0.312761h 0.181345v -0.312761h
 0.181345v -0.606815h 0.181345v -1.55347h 0.181345v 3.28438h 0.181345v -1.1241h 0.181345v 1.2917h 0.181345v 0.169481h 0.181345v 2.00112h 0.181345v -4.21711h 0.181345v 0.448358h 0.181345v 0.152447h 0.181345v 1.11231h 0.181345v -1.41569h 0.181345v
 2.61607h 0.181345v -2.9135h 0.181345v 2.56073h 0.181345v -2.41275h 0.181345v -1.68711h 0.181345v -0.394005h 0.181345v 5.2078h 0.181345v -2.04828h 0.181345v -1.07841h 0.181345v 1.89852h 0.181345v -1.13613h 0.181345v -2.18103h 0.36269v 4.72918h
 0.181345v -2.39097h 0.181345v -0.619202h 0.181345v 0.938548h 0.181345v -3.44913h 0.181345v 3.94112h 0.181345v -0.811335h 0.181345v -0.466755h 0.181345v 0.948331h 0.181345v -0.948331h 0.181345v 1.11231h 0.181345v -0.326214h 0.181345v -0.632106h
 0.181345v -1.19029h 0.181345v 2.14861h 0.181345v -4.52765h 0.181345v 5.90754h 0.181345v -2.94503h 0.181345v -0.725897h 0.181345v 2.29103h 0.181345v 1.02297h 0.181345v -1.18696h 0.181345v 2.66797h 0.181345v -3.14955h 0.36269v 3.14955h 0.181345v
 -3.6163h 0.181345v -0.892514h 0.181345v 1.20208h 0.36269v 2.9227h 0.181345v -0.558407h 0.181345v -1.88777h 0.181345v -1.08948h 0.181345v 0.15093h 0.181345v 1.26476h 0.181345v -1.11231h 0.181345v -0.45282h 0.181345v 1.73091h 0.181345v -3.01351h
 0.181345v 3.8707h 0.181345v -2.43867h 0.181345v 1.58147h 0.181345v -2.1706h 0.181345v 1.20208h 0.181345v -0.910374h 0.181345v 0.910374h 0.181345v 0.802746h 0.181345v -1.41569h 0.181345v 0.303377h 0.181345v 0.786101h 0.181345v -0.632106h 0.181345v
 -1.75214h 0.181345v 2.54648h 0.181345v -4.96328h 0.181345v 1.09699h 0.181345v 1.59815h 0.181345v -3.7181h 0.181345v 0.559781h 0.181345v 1.56018h 0.181345v -0.740066h 0.181345v 1.2543h 0.181345v -2.30081h 0.181345v -0.659598h 0.181345v 2.44617h
 0.181345v 1.45834h 0.181345v -1.07431h 0.181345v -3.04384h 0.181345v -0.105703h 0.181345v -2.42823h 0.181345v 1.02089h 0.181345v 1.61949h 0.181345v -0.72989h 0.181345v -1.91049h 0.181345v 0.925186h 0.181345v 1.60875h 0.181345v -1.31982h 0.181345v
 -1.7433h 0.181345v 0.70976h 0.181345v 2.03843h 0.181345v -0.40998h 0.181345v 0.101461h 0.181345v 0.517742h 0.181345v 0.866999h 0.181345v -4.83042h 0.181345v 3.54782h 0.181345v -2.27953h 0.181345v 1.48101h 0.181345v 0.901356h 0.181345v -2.38237h
 0.181345v -0.773625h 0.181345v 1.96571h 0.181345v -0.189607h 0.36269v -1.52259h 0.181345v -0.666848h 0.181345v 0.581871h 0.181345v 0.782495h 0.181345v -0.526123h 0.181345v -1.70977h 0.181345v -2.67542h 0.181345v 0.931683h 0.181345v -1.3141h
 0.181345v -1.26728h 0.181345v -1.11582h 0.181345v 0.326214h 0.181345v -0.645559h 0.181345v -0.517742h 0.181345v -0.151938h 0.181345v -2.33101h 0.181345v 0.438422h 0.181345v -0.906487h 0.181345v -1.24631h 0.181345v 0.670752h 0.181345v -0.0402878h
 0.181345v -0.475288h 0.181345v 0.315198h 0.181345v -0.547371h 0.181345v 1.23974h 0.181345v -1.35451h 0.181345v 0.425128h 0.181345v 1.01295h 0.181345v 1.96571h 0.181345v 0.0956997h 0.181345v 2.95875h 0.181345v -1.5514h 0.181345v 0.645559h 0.181345v
 1.99408h 0.181345v 0.64011h 0.181345v 2.87049h 0.181345v 0.811335h 0.181345v 0.857197h 0.181345v 0.17741h 0.181345v 0.731147h 0.181345v 2.10592h 0.181345v 0.43653h 0.181345v 3.05615h 0.181345v -1.78657h 0.181345v 2.62174h 0.181345v -1.49765h
 0.181345v 1.07431h 0.181345v 1.92638h 0.181345v -1.35927h 0.181345v -1.11377h 0.36269v -0.133643h 0.181345v -0.651102h 0.181345v 3.57713h 0.181345v -3.70407h 0.181345v 0.514231h 0.181345v 1.51122h 0.181345v -3.12244h 0.181345v 4.16895h 0.181345v
 -0.901356h 0.181345v -1.25893h 0.181345v 0.969997h 0.181345v 1.03629h 0.181345v -0.600805h 0.181345v 0.7548h 0.181345v 1.2917h 0.181345v -2.19306h 0.181345v 1.53346h 0.181345v 0.16223h 0.181345v 1.0116h 0.181345v -3.55807h 0.181345v -0.67426h
 0.181345v 1.52505h 0.181345v 1.53346h 0.181345v -0.938548h 0.181345v 1.26476h 0.181345v -0.163984h 0.181345v 1.0116h 0.181345v 0.897798h 0.181345v -2.70373h 0.181345v -2.16028h 0.181345v 2.63188h 0.181345v 3.18644h 0.181345v -5.27165h 0.181345v
 2.40795h 0.181345v 2.66797h 0.181345v -4.65259h 0.181345v 0.28893h 0.181345v -0.28893h 0.181345v 0.732913h 0.181345v 1.08948h 0.181345v -0.319346h 0.181345v -0.312761h 0.181345v 1.63258h 0.181345v -1.31982h 0.181345v 0.158832h 0.181345v -1.07841h
 0.181345v -2.21021h 0.181345v 5.15524h 0.181345v -0.532278h 0.181345v -3.13865h 0.181345v 4.03644h 0.181345v -2.39097h 0.181345v -0.312761h 0.181345v 2.88985h 0.181345v -2.09551h 0.181345v -1.40115h 0.181345v 1.89852h 0.181345v 1.97737h 0.181345v
 -2.63697h 0.181345v -0.938548h 0.181345v 6.53427h 0.181345v -6.83464h 0.181345v 4.86764h 0.181345v 0.627746h 0.181345v -4.41698h 0.181345v 1.86662h 0.181345v 2.12899h 0.181345v -4.15444h 0.181345v 2.39097h 0.181345v -1.07115h 0.181345v 0.348713h
 0.36269v 1.87502h 0.181345v -4.31369h 0.181345v 1.58147h 0.181345v 0.681839h 0.181345v 2.45489h 0.181345v -2.62825h 0.181345v 3.25599h 0.181345v -1.42626h 0.181345v -2.66797h 0.181345v 1.72554h 0.181345v -3.27467h 0.181345v 0.7548h 0.181345v
 0.95832h 0.181345v -0.486727h 0.181345v -2.49704h 0.181345v 4.54532h 0.181345v -1.39578h 0.181345v -2.73771h 0.181345v 0.71226h 0.36269v -0.850785h 0.181345v -0.805589h 0.181345v -1.95993h 0.181345v 0.705632h 0.181345v -1.59815h 0.181345v 1.24123h
 0.181345v -2.97957h 0.181345v -1.11719h 0.181345v -1.69655h 0.181345v 0.161367h 0.181345v -2.39604h 0.181345v -1.00489h 0.181345v -2.28255h 0.181345v 1.58576h 0.181345v -0.245647h 0.181345v -1.67107h 0.181345v -1.30617h 0.181345v -0.443984h
 0.181345v -0.89668h 0.181345v 0.70345h 0.181345v -1.80789h 0.181345v 0.742197h 0.181345v 0.31649h 0.181345v 0.797284h 0.181345v -1.203h 0.181345v 0.0892259h 0.181345v 0.78039h 0.181345v 0.576083h 0.181345v 1.43592h 0.181345v 0.49199h 0.181345v
 0.97524h 0.181345v 0.604397h 0.181345v 1.42105h 0.181345v 1.05135h 0.181345v 0.293117h 0.181345v 4.43784h 0.181345v -0.960343h 0.181345v 2.19926h 0.181345v 1.23206h 0.181345v 0.83957h 0.181345v 2.83969h 0.181345v 1.56514h 0.181345v 6.73856h
 0.181345v -4.23457h 0.181345v 2.76552h 0.181345v -1.1241h 0.181345v 1.35927h 0.181345v 5.68348h 0.181345v -4.4496h 0.181345v 10.7732h 0.181345v -5.25244h 0.181345v -0.36552h 0.181345v 2.33821h 0.181345v -2.33821h 0.181345v 0.36552h 0.181345v 2.4h
 0.181345v -8.42641h 0.181345v 6.02641h 0.181345v 0.374546h 0.181345v 1.59815h 0.181345v -3.38472h 0.181345v 1.78657h 0.181345v -2.44617h 0.181345v 1.00047h 0.181345v -1.00047h 0.181345v 0.326214h 0.181345v 5.03792h 0.181345v -3.65803h 0.181345v
 0.36552h 0.181345v 2.4h 0.181345v -3.47115h 0.181345v 1.07115h 0.181345v 2.83969h 0.181345v -4.91132h 0.181345v 3.62872h 0.181345v -1.92261h 0.181345v 4.12479h 0.181345v -7.06981h 0.181345v 5.28324h 0.181345v -0.820111h 0.181345v 1.24742h 0.181345v
 -1.64142h 0.181345v 2.53394h 0.181345v -1.73542h 0.181345v -1.18255h 0.181345v -1.09699h 0.181345v -3.17158h 0.181345v 9.14646h 0.181345v -2.85244h 0.181345v -4.14541h 0.181345v 4.5851h 0.36269v -4.25172h 0.181345v 1.04651h 0.181345v 2.76552h
 0.181345v -0.842903h 0.181345v -5.16218h 0.181345v 3.60509h 0.181345v -2.70373h 0.181345v 0.95832h 0.181345v 2.11996h 0.181345v -3.07828h 0.181345v 2.70373h 0.181345v -1.74541h 0.181345v 2.50399h 0.181345v -4.06912h 0.181345v 0.919576h 0.36269v
 1.66853h 0.181345v 1.09699h 0.181345v -3.68509h 0.181345v 3.31055h 0.181345v -2.39097h 0.181345v -1.50305h 0.181345v 7.18653h 0.181345v 0.948331h 0.181345v -6.94457h 0.181345v 4.67642h 0.181345v -4.67642h 0.181345v 1.63258h 0.181345v 0.348713h
 0.181345v -3.45511h 0.181345v 2.76552h 0.181345v -1.59815h 0.181345v 4.98287h 0.181345v -1.97269h 0.181345v 1.97269h 0.181345v -3.38472h 0.181345v 0.340876h 0.181345v -1.31982h 0.181345v -0.312761h 0.181345v 5.54342h 0.181345v -5.84986h 0.181345v
 2.28773h 0.181345v -0.348713h 0.181345v 6.32359h 0.181345v -9.14646h 0.181345v 3.89402h 0.181345v 2.4h 0.36269v -0.427306h 0.36269v -1.59815h 0.181345v -3.38472h 0.181345v 0.306442h 0.181345v -0.901356h 0.181345v 1.21412h 0.181345v -3.12978h
 0.181345v 7.07785h 0.181345v -2.96912h 0.181345v -2.19306h 0.181345v 4.36366h 0.181345v 2.53394h 0.181345v -1.73542h 0.36269v 1.73542h 0.181345v -1.73542h 0.181345v -1.92261h 0.181345v 1.92261h 0.181345v 0.842903h 0.181345v -2.02545h 0.181345v
 -1.09699h 0.181345v -0.689589h 0.181345v -1.59815h 0.181345v 4.98287h 0.181345v 5.53104h 0.181345v -3.74446h 0.181345v -4.83042h 0.181345v 2.22373h 0.181345v -0.394005h 0.181345v 0.798519h 0.181345v -3.62872h 0.181345v -0.938548h 0.181345v -1.4457h
 0.181345v 6.85587h 0.181345v -2.02545h 0.181345v -1.09699h 0.181345v 0.722439h 0.181345v -0.722439h 0.181345v 2.27953h 0.181345v -1.92261h 0.181345v 1.92261h 0.181345v -0.404513h 0.181345v 3.08826h 0.181345v -2.68375h 0.181345v -2.62825h 0.181345v
 4.36366h 0.181345v -2.13993h 0.181345v -0.394005h 0.181345v -1.48101h 0.181345v 3.56213h 0.181345v 0.919576h 0.181345v 1.49317h 0.181345v -5.61796h 0.181345v 1.92261h 0.181345v 0.842903h 0.36269v -0.427306h 0.181345v -1.97269h 0.181345v 1.97269h
 0.181345v 2.76552h 0.181345v -1.89852h 0.181345v 0.45282h 0.36269v 3.6163h 0.181345v -3.6163h 0.181345v 1.95993h 0.181345v 0.532278h 0.181345v -1.04651h 0.181345v -3.18112h 0.181345v 2.68375h 0.181345v 3.88209h 0.181345v -1.78657h 0.181345v 1.16737h
 0.181345v -0.594914h 0.181345v -2.1706h 0.36269v -1.4457h 0.181345v 3.04384h 0.181345v 1.16737h 0.181345v -5.10373h 0.181345v 3.38472h 0.181345v 6.70188h 0.181345v -6.15024h 0.36269v -2.09551h 0.36269v 3.26289h 0.181345v 2.64465h 0.181345v -2.64465h
 0.181345v -1.16737h 0.181345v 3.81203h 0.181345v -5.41017h 0.181345v 2.1706h 0.181345v 3.97963h 0.181345v -3.97963h 0.181345v 5.57778h 0.181345v -4.98287h 0.181345v 1.93902h 0.36269v 4.83042h 0.181345v -5.50468h 0.181345v 5.50468h 0.181345v 5.68348h
 0.181345v -9.80827h 0.36269v 6.15024h 0.181345v -8.79489h 0.181345v 8.79489h 0.181345v 5.10373h 0.181345v -8.04876h 0.181345v -0.866999h 0.36269v 2.76552h 0.181345v 4.70454h 0.181345v -9.0682h 0.181345v 0.778035h 0.181345v 3.58563h 0.181345v
 1.04651h 0.181345v -1.04651h 0.725379v -1.89852h 0.181345v 8.04876h 0.181345v -8.91576h 0.181345v 6.15024h 0.181345v 1.31982h 0.181345v -2.53394h 0.181345v 3.97963h 0.181345v -9.73587h 0.181345v 11.334h 0.181345v -7.74838h 0.181345v 3.38472h
 0.181345v -5.28324h 0.181345v 0.919576h 0.181345v -1.78657h 0.181345v 4.93612h 0.181345v -2.1706h 0.181345v 4.70454h 0.181345v 3.04384h 0.181345v -9.6469h 0.181345v 6.60306h 0.181345v -1.31982h 0.181345v 1.31982h 0.181345v -4.70454h 0.181345v
 -0.978943h 0.181345v 7.12918h 0.181345v 7.74838h 0.181345v -6.15024h 0.544034v 1.78657h 0.36269v -9.53496h 0.181345v 7.74838h 0.181345v -6.70188h 0.181345v -3.81203h 0.181345v 8.91576h 0.181345v 7.74838h 0.181345v -10.5139h 0.181345v 16.6641h
 0.181345v -13.8986h 0.181345v -8.91576h 0.181345v 3.81203h 0.181345v -3.81203h 0.181345v -2.33821h 0.181345v 6.15024h 0.181345v -3.81203h 0.181345v 4.93612h 0.181345v -1.1241h 0.181345v -5.41017h 0.36269v 9.0682h 0.181345v -2.53394h 0.181345v
 -9.91899h 0.181345v 4.98287h 0.181345v -1.59815h 0.181345v 2.46514h 0.181345v -4.5851h 0.181345v 4.5851h 0.181345v 2.94503h 0.181345v -6.85587h 0.181345v 1.4457h 0.181345v -2.76552h 0.181345v 4.36366h 0.181345v 0.866999h 0.181345v -2.46514h
 0.181345v 2.46514h 0.181345v 1.89852h 0.181345v -2.76552h 0.181345v 7.47006h 0.181345v -6.60306h 0.181345v -1.68711h 0.181345v 6.97035h 0.181345v -13.3844h 0.181345v 9.99967h 0.181345v -2.76552h 0.181345v 8.91576h 0.181345v -3.97963h 0.181345v
 -6.53427h 0.36269v -1.4457h 0.181345v -1.93902h 0.181345v 4.98287h 0.181345v 3.81203h 0.181345v -9.96227h 0.181345v -3.49666h 0.181345v 2.41275h 0.181345v -1.0116h 0.181345v 1.0116h 0.181345v -1.95993h 0.181345v -6.8976h 0.181345v 3.97963h 0.181345v
 -2.76552h 0.181345v 0.319346h 0.181345v -2.65756h 0.181345v -1.78657h 0.181345v 2.91067h 0.181345v -5.35172h 0.181345v 0.627746h 0.181345v -2.72987h 0.181345v 2.3085h 0.181345v -1.38892h 0.181345v -1.27234h 0.181345v 1.08391h 0.181345v -4.64199h
 0.181345v 2.0649h 0.181345v -3.75927h 0.181345v 1.15258h 0.181345v -3.11625h 0.181345v 3.11625h 0.181345v -3.64852h 0.181345v 2.01051h 0.181345v -1.25998h 0.181345v -0.218253h 0.181345v -1.54388h 0.181345v 0.396581h 0.181345v -0.199586h 0.181345v
 -1.14533h 0.181345v -2.13993h 0.181345v 2.41826h 0.181345v -0.186117h 0.181345v -0.810372h 0.181345v -2.1998h 0.181345v 0.540406h 0.181345v -1.35253h 0.181345v 1.9129h 0.181345v -0.0813319h 0.181345v 0.245316h 0.181345v -0.880732h 0.181345v
 -1.62146h 0.181345v 0.28221h 0.181345v -1.49095h 0.181345v 1.49095h 0.181345v 2.80831h 0.181345v -1.23388h 0.181345v -1.92638h 0.181345v -0.207316h 0.181345v -0.472994h 0.181345v 0.268473h 0.181345v 2.73846h 0.181345v -2.04572h 0.181345v 2.62442h
 0.181345v -0.899735h 0.181345v 0.649013h 0.181345v 0.505659h 0.181345v -1.46905h 0.181345v 1.21412h 0.181345v 1.13707h 0.181345v -0.447477h 0.181345v 0.63023h 0.181345v 0.561855h 0.181345v 2.25892h 0.181345v 0.563944h 0.181345v 2.62825h 0.181345v
 -0.668318h 0.181345v 5.82681h 0.181345v 0.19323h 0.181345v -3.6163h 0.181345v 0.786101h 0.181345v 3.8351h 0.181345v 5.14534h 0.181345v -4.06912h 0.181345v 0.919576h 0.181345v 6.38911h 0.181345v 0.740066h 0.181345v -0.740066h 0.181345v 1.5181h
 0.181345v 0.404513h 0.181345v 5.94663h 0.181345v -0.594914h 0.181345v 9.38981h 0.181345v -5.41017h 0.181345v 7.74838h 0.181345v 4.36366h 0.181345v -4.36366h 0.181345v 6.15024h 0.181345v -8.48845h 0.181345v 5.10373h 0.36269v 10.5139h 0.181345v
 3.38472h 0.181345v -6.15024h 0.181345v 6.15024h 0.181345v -6.15024h 0.181345v 2.76552h 0.181345v 24.4125h 0.181345v -24.4125h 0.181345v -2.76552h 0.181345v 6.15024h 0.181345v 4.36366h 0.181345v -10.5139h 0.181345v 16.6641h 0.181345v -16.6641h
 0.181345v 16.6641h 0.181345v 10.5139h 0.181345v -16.6641h 0.181345v -4.36366h 0.181345v 4.36366h 0.181345v -4.36366h 0.181345v -6.15024h 0.181345v 6.15024h 0.36269v 10.5139h 0.181345v -16.6641h 0.181345v 10.5139h 0.181345v 27.178h 0.181345v
 -10.5139h 0.181345v -21.0278h 0.181345v 10.5139h 0.181345v 10.5139h 0.181345v -16.6641h 0.181345v 16.6641h 0.544034v -10.5139h 0.181345v 21.0278h 0.181345v -31.5417h 0.181345v 10.5139h 0.181345v -16.6641h 0.181345v 27.178h 0.36269v -21.0278h
 0.36269v 10.5139h 0.181345v 10.5139h 0.181345v -29.5163h 0.181345v 5.10373h 0.181345v -2.76552h 0.181345v -2.33821h 0.181345v 29.5163h 0.36269v -10.5139h 0.36269v -19.0024h 0.181345v 8.48845h 0.36269v -6.15024h 0.181345v 16.6641h 0.36269v -6.15024h
 0.181345v -7.74838h 0.181345v 3.38472h 0.181345v 10.5139h 0.36269v -13.8986h 0.36269v 3.38472h 0.181345v 4.36366h 0.181345v 6.15024h 0.181345v -13.8986h 0.181345v 13.8986h 0.36269v -6.15024h 0.181345v -10.5139h 0.181345v 2.76552h 0.181345v -2.76552h
 0.181345v 10.5139h 0.181345v -10.5139h 0.181345v -4.36366h 0.906724v 7.12918h 0.181345v -10.5139h 0.181345v 5.41017h 0.181345v -2.02545h 0.181345v 7.12918h 0.181345v -2.76552h 0.181345v -10.5139h 0.181345v 13.2794h 0.181345v 7.74838h 0.181345v
 -23.366h 0.181345v 8.48845h 0.181345v 4.36366h 0.181345v -6.15024h 0.36269v -1.59815h 0.181345v 5.41017h 0.181345v 2.33821h 0.181345v -2.33821h 0.181345v -6.85587h 0.181345v -1.31982h 0.181345v 8.17569h 0.36269v -10.5139h 0.181345v 10.5139h
 0.181345v -2.02545h 0.181345v -1.78657h 0.181345v 22.8144h 0.181345v -10.5139h 0.181345v -3.38472h 0.181345v -5.10373h 0.36269v 2.33821h 0.181345v -2.33821h 0.181345v 19.0024h 0.181345v -13.8986h 0.181345v -5.10373h 0.181345v 5.10373h 0.181345v
 13.8986h 0.181345v -10.5139h 0.181345v -8.48845h 0.181345v 29.5163h 0.181345v -31.5417h 0.181345v 10.5139h 0.36269v 21.0278h 0.181345v 10.5139h 0.181345v -27.178h 0.181345v -4.36366h 0.181345v 31.5417h 0.181345v -21.0278h 0.181345v -6.15024h
 0.181345v -4.36366h 0.181345v 10.5139h 0.181345v 10.5139h 0.181345v 10.5139h 0.181345v -21.0278h 0.181345v -6.15024h 0.181345v 16.6641h 0.181345v -21.0278h 0.181345v 21.0278h 0.181345v -21.0278h 0.181345v 10.5139h 0.181345v -13.8986h 0.181345v
 13.8986h 0.181345v -6.15024h 0.181345v 16.6641h 0.181345v -29.5163h 0.181345v 19.0024h 0.181345v 21.0278h 0.181345v -34.9264h 0.181345v 7.74838h 0.181345v -4.36366h 0.181345v 10.5139h 0.544034v -10.5139h 0.181345v 21.0278h 0.181345v -16.6641h
 0.181345v 6.15024h 0.181345v -6.15024h 0.181345v 16.6641h 0.181345v -21.0278h 0.181345v 4.36366h 0.181345v -12.8521h 0.181345v 12.8521h 0.36269v 6.15024h 0.181345v -16.6641h 0.181345v 2.76552h 0.181345v -2.76552h 0.181345v 6.15024h 0.181345v
 10.5139h 0.181345v -6.15024h 0.181345v 6.15024h 0.181345v -13.8986h 0.181345v 7.74838h 0.181345v -4.36366h 0.181345v -13.8986h 0.181345v 13.8986h 0.36269v -6.15024h 0.181345v 6.15024h 0.181345v 21.0278h 0.181345v -29.5163h 0.181345v 12.8521h
 0.181345v -4.36366h 0.181345v -12.3005h 0.181345v 1.78657h 0.181345v 14.8776h 0.181345v -12.8521h 0.181345v 8.48845h 0.181345v -12.3005h 0.181345v 16.6641h 0.181345v -16.6641h 0.181345v 12.3005h 0.181345v 10.5139h 0.181345v -13.8986h 0.544034v
 3.38472h 0.181345v 4.36366h 0.181345v -10.5139h 0.181345v 2.76552h 0.181345v -2.76552h 0.181345v -4.36366h 0.181345v -1.78657h 0.181345v 8.91576h 0.36269v 3.38472h 0.181345v 4.36366h 0.181345v -7.74838h 0.181345v -8.91576h 0.181345v 16.6641h
 0.181345v -4.36366h 0.181345v 10.5139h 0.181345v -10.5139h 0.181345v -6.15024h 0.181345v 6.15024h 0.181345v -6.15024h 0.181345v 2.76552h 0.181345v -2.76552h 0.181345v 6.15024h 0.181345v -10.5139h 0.181345v 2.02545h 0.181345v 5.10373h 0.181345v
 3.38472h 0.181345v 10.5139h 0.181345v -6.15024h 0.181345v -7.74838h 0.36269v -5.10373h 0.181345v 19.0024h 0.181345v -16.6641h 0.544034v -6.15024h 0.181345v 8.91576h 0.181345v 7.74838h 0.36269v -10.5139h 0.181345v -6.15024h 0.181345v 8.91576h
 0.181345v 3.38472h 0.181345v 4.36366h 0.181345v 6.15024h 0.181345v -13.8986h 0.36269v 7.74838h 0.181345v 6.15024h 0.181345v -13.8986h 0.181345v 3.38472h 0.181345v 4.36366h 0.181345v -4.36366h 0.181345v 4.36366h 0.181345v -10.5139h 0.181345v 6.15024h
 0.181345v 4.36366h 0.181345v -4.36366h 0.181345v -6.15024h 0.181345v 10.5139h 0.181345v 6.15024h 0.181345v -13.8986h 0.181345v 7.74838h 0.181345v -10.5139h 0.181345v -4.36366h 0.36269v 7.12918h 0.181345v 24.4125h 0.181345v -27.178h 0.181345v
 10.5139h 0.181345v -12.8521h 0.181345v 5.10373h 0.181345v -8.91576h 0.181345v 12.3005h 0.36269v -3.38472h 0.544034v -5.10373h 0.181345v 12.8521h 0.181345v -10.5139h 0.36269v 2.76552h 0.181345v -5.10373h 0.181345v -2.02545h 0.181345v -1.78657h
 0.181345v 6.15024h 0.181345v 2.76552h 0.181345v -7.12918h 0.181345v 4.36366h 0.181345v -7.74838h 0.181345v 5.41017h 0.181345v 12.8521h 0.181345v -19.708h 0.181345v 6.85587h 0.181345v -9.38981h 0.181345v 14.4935h 0.181345v -11.9596h 0.181345v
 4.83042h 0.181345v -8.48845h 0.181345v 3.65803h 0.36269v 1.4457h 0.181345v 1.59815h 0.181345v -3.04384h 0.181345v 4.83042h 0.181345v 2.02545h 0.181345v -10.5139h 0.181345v 15.6176h 0.181345v -10.5139h 0.181345v 34.9264h 0.181345v -36.3721h 0.181345v
 -2.53394h 0.181345v 2.53394h 0.181345v 1.4457h 0.181345v 3.38472h 0.181345v -12.3005h 0.181345v 6.15024h 0.181345v 2.76552h 0.181345v -3.97963h 0.181345v 1.21412h 0.181345v 10.5139h 0.181345v -11.728h 0.181345v -2.1706h 0.181345v 7.74838h 0.181345v
 1.78657h 0.181345v -8.48845h 0.181345v -2.94503h 0.181345v 9.6469h 0.181345v -4.36366h 0.181345v 16.6641h 0.181345v -21.9474h 0.181345v 9.6469h 0.181345v -3.04384h 0.181345v 4.83042h 0.181345v 7.12918h 0.181345v -13.2794h 0.544034v -5.28324h
 0.181345v 8.04876h 0.181345v -3.97963h 0.181345v 5.57778h 0.181345v 6.15024h 0.181345v -14.8776h 0.181345v 5.68348h 0.181345v 36.3721h 0.181345v -37.6919h 0.181345v -1.21412h 0.181345v -1.1241h 0.181345v 1.1241h 0.181345v -7.97997h 0.181345v
 10.5139h 0.181345v -1.31982h 0.181345v -5.28324h 0.36269v 2.94503h 0.36269v -1.04651h 0.181345v 11.5604h 0.181345v -11.5604h 0.181345v 3.38472h 0.181345v 6.15024h 0.181345v -7.36435h 0.36269v -2.1706h 0.181345v 4.70454h 0.181345v -4.70454h 0.36269v
 1.04651h 0.181345v -2.94503h 0.181345v 9.6469h 0.181345v -1.59815h 0.181345v -16.6641h 0.181345v 7.74838h 0.181345v 27.178h 0.181345v -29.5163h 0.181345v 8.48845h 0.36269v -2.33821h 0.181345v -6.15024h 0.181345v 8.48845h 0.181345v -1.21412h
 0.181345v -1.1241h 0.36269v 1.1241h 0.181345v -1.1241h 0.181345v -3.81203h 0.181345v 4.93612h 0.181345v -4.06912h 0.181345v 1.89852h 0.181345v -5.80936h 0.181345v 2.22373h 0.181345v 0.820111h 0.181345v -3.04384h 0.36269v 3.91084h 0.181345v 5.28324h
 0.181345v -1.21412h 0.181345v -3.14955h 0.181345v -4.83042h 0.181345v -3.10639h 0.181345v 7.93681h 0.181345v -4.12479h 0.181345v 8.48845h 0.181345v -6.97035h 0.36269v 1.68711h 0.181345v -9.59433h 0.181345v 2.02545h 0.181345v 8.48845h 0.181345v
 -2.60669h 0.181345v -4.16276h 0.181345v -2.76552h 0.181345v 2.76552h 0.181345v 4.16276h 0.181345v 0.820111h 0.36269v -3.04384h 0.181345v 1.4457h 0.181345v -6.15024h 0.181345v 5.41017h 0.181345v 3.20521h 0.181345v -5.84986h 0.36269v 3.38472h
 0.181345v -1.4457h 0.181345v 0.705632h 0.36269v 2.33821h 0.181345v -2.33821h 0.181345v -3.23957h 0.181345v 0.594914h 0.181345v 1.93902h 0.181345v 9.19408h 0.181345v -12.3005h 0.181345v 5.33013h 0.181345v 6.97035h 0.181345v -13.8986h 0.181345v
 6.15024h 0.181345v 4.36366h 0.181345v -1.89852h 0.181345v 2.94503h 0.181345v -5.41017h 0.181345v 5.41017h 0.181345v -8.79489h 0.36269v 1.93902h 0.181345v 5.80936h 0.181345v 4.70454h 0.181345v -8.29017h 0.181345v -0.778035h 0.181345v 3.38472h
 0.181345v 2.02545h 0.181345v -2.02545h 0.181345v 0.978943h 0.181345v 3.38472h 0.181345v -2.33821h 0.181345v -3.81203h 0.181345v 0.866999h 0.181345v 6.60306h 0.181345v -12.4529h 0.181345v 5.84986h 0.181345v 8.04876h 0.181345v -7.12918h 0.36269v
 -7.93681h 0.181345v 16.6641h 0.181345v -8.72733h 0.181345v -0.919576h 0.181345v 6.60306h 0.181345v 4.83042h 0.181345v -3.38472h 0.181345v 1.59815h 0.181345v -10.5139h 0.181345v -3.7181h 0.181345v 9.86834h 0.36269v 4.36366h 0.181345v -4.36366h
 0.36269v -1.21412h 0.36269v -4.93612h 0.181345v 19.4297h 0.181345v -15.6176h 0.181345v 2.33821h 0.181345v -4.36366h 0.181345v 7.12918h 0.181345v -5.10373h 0.181345v 2.33821h 0.181345v -1.21412h 0.181345v -7.97997h 0.181345v 11.9596h 0.181345v
 -8.91576h 0.181345v 3.81203h 0.181345v 2.33821h 0.36269v -6.97035h 0.181345v 4.63214h 0.544034v -4.63214h 0.181345v 2.60669h 0.181345v 2.02545h 0.544034v -1.04651h 0.181345v 7.74838h 0.181345v -4.36366h 0.181345v 8.17569h 0.181345v -5.41017h
 0.181345v 5.41017h 0.181345v -12.5394h 0.181345v 7.12918h 0.36269v 1.59815h 0.181345v -9.6469h 0.181345v 8.04876h 0.181345v -2.76552h 0.181345v 2.76552h 0.181345v -9.73587h 0.36269v 11.334h 0.181345v -4.36366h 0.181345v -3.38472h 0.181345v 1.04651h
 0.181345v -1.04651h 0.181345v -3.58563h 0.181345v 5.75623h 0.181345v 2.53394h 0.181345v -4.70454h 0.181345v -1.89852h 0.181345v 2.94503h 0.36269v 6.70188h 0.181345v -7.74838h 0.36269v -5.10373h 0.181345v 5.10373h 0.181345v 1.04651h 0.36269v
 -3.81203h 0.181345v 2.76552h 0.36269v 4.70454h 0.181345v -9.0682h 0.181345v 6.53427h 0.181345v -3.14955h 0.181345v 8.72733h 0.181345v -7.74838h 0.181345v -2.76552h 0.181345v 1.78657h 0.181345v -3.38472h 0.181345v 15.9241h 0.181345v -13.4589h
 0.181345v -1.68711h 0.181345v 4.63214h 0.181345v -8.79489h 0.181345v 2.64465h 0.181345v 11.254h 0.181345v -2.76552h 0.181345v -4.36366h 0.181345v 3.14955h 0.181345v -7.27433h 0.181345v 3.20521h 0.181345v 9.6469h 0.181345v -16.0917h 0.181345v
 3.23957h 0.181345v 8.48845h 0.181345v -2.33821h 0.181345v -4.63214h 0.181345v 4.63214h 0.181345v 2.33821h 0.181345v -8.48845h 0.181345v 3.20521h 0.181345v 0.919576h 0.181345v -7.36435h 0.181345v 14.4935h 0.181345v -8.04876h 0.36269v 1.89852h
 0.181345v -1.89852h 0.181345v -2.46514h 0.181345v 18.2623h 0.181345v -13.8986h 0.181345v -4.36366h 0.181345v 4.36366h 0.181345v -0.978943h 0.181345v 2.02545h 0.181345v -7.53013h 0.181345v 8.65423h 0.181345v -1.1241h 0.36269v -3.81203h 0.181345v
 7.47006h 0.36269v -9.0682h 0.181345v 3.38472h 0.181345v -2.60669h 0.181345v 0.820111h 0.181345v -3.7181h 0.181345v 5.50468h 0.181345v 7.12918h 0.181345v -3.97963h 0.181345v -9.29979h 0.181345v 5.23066h 0.181345v 2.94503h 0.181345v -8.17569h
 0.181345v 8.17569h 0.181345v 2.33821h 0.181345v -1.21412h 0.181345v -1.1241h 0.181345v 1.1241h 0.181345v -7.27433h 0.181345v -0.705632h 0.181345v 5.80936h 0.181345v -1.89852h 0.181345v 2.94503h 0.181345v -1.04651h 0.181345v -7.74838h 0.181345v
 1.93902h 0.181345v 3.04384h 0.181345v 4.93612h 0.181345v -4.06912h 0.181345v -6.44478h 0.181345v 1.85968h 0.181345v 3.7181h 0.181345v -4.36366h 0.181345v 2.76552h 0.181345v -1.4457h 0.181345v 3.04384h 0.181345v -0.820111h 0.181345v 11.334h 0.181345v
 -1.59815h 0.181345v -2.76552h 0.181345v -6.15024h 0.181345v -1.59815h 0.181345v 0.778035h 0.181345v -4.75767h 0.181345v 3.97963h 0.181345v -0.740066h 0.181345v 3.20521h 0.181345v -3.20521h 0.181345v -0.705632h 0.181345v 7.97997h 0.181345v -3.14955h
 0.181345v 5.68348h 0.181345v -1.31982h 0.181345v -8.48845h 0.181345v -2.02545h 0.181345v 13.2794h 0.181345v -2.76552h 0.181345v 8.17569h 0.181345v -17.3698h 0.181345v 5.80936h 0.181345v -0.978943h 0.181345v -0.919576h 0.181345v -2.46514h 0.181345v
 6.53427h 0.181345v 3.97963h 0.181345v -5.10373h 0.181345v -5.41017h 0.181345v 1.59815h 0.181345v 4.93612h 0.181345v -3.14955h 0.181345v -1.78657h 0.181345v -3.04384h 0.181345v -1.31982h 0.181345v 9.29979h 0.181345v -2.1706h 0.181345v 9.53496h
 0.181345v -1.78657h 0.181345v -1.59815h 0.181345v -3.97963h 0.181345v 1.21412h 0.181345v -4.36366h 0.181345v -0.919576h 0.181345v -2.46514h 0.181345v 1.59815h 0.181345v 8.91576h 0.181345v 3.38472h 0.36269v -6.15024h 0.181345v -5.28324h 0.181345v
 4.06912h 0.181345v 1.21412h 0.181345v -2.33821h 0.181345v -3.81203h 0.181345v 1.78657h 0.181345v 2.02545h 0.181345v -1.04651h 0.181345v 1.04651h 0.181345v -5.41017h 0.181345v 10.5139h 0.181345v -8.04876h 0.181345v 0.919576h 0.181345v 5.68348h
 0.181345v -8.29017h 0.181345v -0.778035h 0.181345v 1.59815h 0.181345v -2.33821h 0.181345v 2.33821h 0.181345v 6.15024h 0.181345v -4.36366h 0.181345v 5.68348h 0.181345v -2.53394h 0.181345v 2.53394h 0.181345v -5.68348h 0.181345v 3.14955h 0.181345v
 -1.1241h 0.181345v 1.1241h 0.181345v 5.57778h 0.181345v -3.04384h 0.181345v -1.31982h 0.181345v -5.28324h 0.36269v 0.919576h 0.181345v 3.14955h 0.544034v 3.97963h 0.181345v -6.15024h 0.181345v 3.38472h 0.181345v 2.76552h 0.181345v -6.15024h
 0.181345v 4.70454h 0.181345v -6.60306h 0.181345v 6.60306h 0.181345v 11.9596h 0.181345v 3.38472h 0.181345v -8.48845h 0.181345v -6.85587h 0.181345v -2.53394h 0.181345v 7.36435h 0.181345v -6.15024h 0.181345v 1.31982h 0.181345v 4.83042h 0.36269v
 -3.38472h 0.36269v -1.4457h 0.181345v 1.4457h 0.181345v -3.97963h 0.181345v 3.97963h 0.181345v 7.74838h 0.181345v -7.74838h 0.725379v 3.38472h 0.181345v 7.12918h 0.181345v -8.91576h 0.181345v -3.04384h 0.181345v 11.9596h 0.181345v -5.10373h
 0.181345v 2.33821h 0.181345v -6.15024h 0.181345v 1.78657h 0.36269v 4.36366h 0.181345v -9.19408h 0.181345v 4.83042h 0.181345v 4.36366h 0.181345v -4.36366h 0.181345v -1.78657h 0.181345v 8.91576h 0.181345v -2.76552h 0.181345v 2.76552h 0.181345v
 -2.76552h 0.181345v -7.74838h 0.181345v 5.41017h 0.181345v -2.02545h 0.181345v -1.78657h 0.36269v 1.78657h 0.181345v 2.02545h 0.181345v 12.8521h 0.181345v -12.8521h 0.181345v 2.33821h 0.181345v 16.6641h 0.181345v -10.5139h 0.181345v 4.36366h
 0.181345v -10.5139h 0.181345v -7.74838h 0.181345v 10.5139h 0.36269v -13.2794h 0.181345v 4.36366h 0.181345v 16.6641h 0.36269v -12.8521h 0.181345v -2.02545h 0.36269v 2.02545h 0.181345v 2.33821h 0.181345v 2.76552h 0.181345v -7.12918h 0.181345v 14.8776h
 0.181345v -16.6641h 0.181345v 1.78657h 0.181345v -1.78657h 0.36269v 3.81203h 0.181345v -3.81203h 0.181345v 3.81203h 0.181345v -5.41017h 0.181345v 5.41017h 0.181345v -3.81203h 0.181345v -3.04384h 0.181345v 3.04384h 0.181345v 3.81203h 0.181345v
 -2.02545h 0.181345v 7.12918h 0.181345v -10.5139h 0.181345v 13.8986h 0.181345v -17.8783h 0.181345v 5.57778h 0.181345v 3.81203h 0.181345v -3.81203h 0.181345v 6.15024h 0.181345v 2.76552h 0.181345v -8.91576h 0.36269v 3.81203h 0.181345v -3.81203h
 0.36269v 6.15024h 0.181345v -6.15024h 0.181345v 1.78657h 0.181345v -6.15024h 0.181345v 6.15024h 0.181345v -1.78657h 0.181345v 3.81203h 0.181345v -14.3259h 0.181345v 7.47006h 0.181345v 1.4457h 0.181345v 5.41017h 0.36269v -9.38981h 0.181345v 7.36435h
 0.36269v 2.02545h 0.36269v -8.17569h 0.181345v 6.15024h 0.181345v -1.78657h 0.181345v -4.36366h 0.181345v 2.76552h 0.181345v 3.38472h 0.544034v -6.15024h 0.181345v 8.17569h 0.36269v -6.85587h 0.544034v -1.31982h 0.181345v 6.15024h 0.181345v 7.12918h
 0.181345v -10.5139h 0.36269v 3.38472h 0.181345v -1.78657h 0.181345v -3.04384h 0.181345v 4.83042h 0.181345v -3.38472h 0.181345v 7.74838h 0.181345v -7.74838h 0.181345v -2.76552h 0.181345v -1.21412h 0.36269v 1.21412h 0.181345v 13.2794h 0.181345v
 -8.91576h 0.181345v 1.78657h 0.181345v -8.48845h 0.181345v 10.5139h 0.181345v -2.02545h 0.181345v 2.02545h 0.181345v 2.33821h 0.181345v -9.19408h 0.181345v -5.68348h 0.181345v 8.72733h 0.181345v 1.78657h 0.181345v 4.36366h 0.181345v -11.728h
 0.36269v 1.21412h 0.181345v -8.48845h 0.181345v 11.254h 0.181345v -7.12918h 0.181345v 3.14955h 0.181345v -5.75623h 0.181345v 4.63214h 0.181345v 10.5139h 0.181345v -3.81203h 0.181345v -4.36366h 0.181345v -6.15024h 0.181345v 4.93612h 0.181345v
 2.53394h 0.181345v -1.31982h 0.181345v -6.97035h 0.181345v 9.73587h 0.181345v 3.38472h 0.181345v -10.5139h 0.181345v -1.78657h 0.181345v 1.78657h 0.181345v -6.76944h 0.181345v 13.8986h 0.181345v -2.76552h 0.36269v -2.33821h 0.181345v 8.48845h
 0.181345v -6.15024h 0.181345v -1.21412h 0.181345v 5.57778h 0.36269v -6.70188h 0.181345v -6.85587h 0.181345v 5.80936h 0.181345v -0.978943h 0.181345v -6.76944h 0.181345v 4.98287h 0.181345v 4.93612h 0.181345v -2.1706h 0.181345v 3.38472h 0.181345v
 -6.15024h 0.181345v 8.91576h 0.181345v -3.97963h 0.181345v 2.53394h 0.181345v 6.85587h 0.181345v -14.3259h 0.181345v 3.81203h 0.181345v 1.1241h 0.181345v 7.36435h 0.181345v -3.38472h 0.181345v -5.10373h 0.181345v 1.1241h 0.181345v -3.14955h
 0.181345v 4.36366h 0.181345v 1.31982h 0.181345v 1.4457h 0.181345v -6.15024h 0.181345v 7.74838h 0.181345v -5.57778h 0.36269v 9.38981h 0.181345v 8.48845h 0.181345v -12.3005h 0.181345v 6.15024h 0.181345v 2.76552h 0.181345v -5.10373h 0.181345v 5.10373h
 0.181345v -2.76552h 0.181345v 2.76552h 0.181345v 7.74838h 0.181345v -12.8521h 0.181345v -10.5139h 0.181345v 12.8521h 0.181345v -6.15024h 0.181345v 8.91576h 0.181345v -2.76552h 0.181345v 6.15024h 0.181345v -6.15024h 0.181345v 2.76552h 0.181345v
 -5.10373h 0.181345v 12.8521h 0.181345v 6.15024h 0.181345v -6.15024h 0.181345v 16.6641h 0.181345v -10.5139h 0.181345v -10.5139h 0.181345v 4.36366h 0.544034v 16.6641h 0.36269v -10.5139h 0.544034v -10.5139h 0.36269v 10.5139h 0.181345v 21.0278h 0.36269v
 -27.178h 0.36269v 6.15024h 0.181345v 10.5139h 0.181345v -16.6641h 0.181345v 27.178h 0.181345v -21.0278h 0.181345v 10.5139h 0.36269v -10.5139h 0.181345v 21.0278h 0.181345v -31.5417h 0.181345v 21.0278h 0.181345v 10.5139h 0.181345v -10.5139h 0.181345v
 10.5139h 0.36269v -21.0278h 0.181345v 21.0278h 0.36269v -21.0278h 0.36269v 21.0278h 0.36269v -10.5139h 0.544034v 10.5139h 0.544034v -10.5139h 0.36269v -10.5139h 0.181345v 10.5139h 0.181345v 10.5139h 0.36269v -10.5139h 0.181345v 10.5139h 0.181345v
 -21.0278h 0.36269v 21.0278h 0.181345v -10.5139h 0.36269v 10.5139h 0.181345v -10.5139h 0.181345v -16.6641h 0.181345v 27.178h 0.36269v -10.5139h 0.181345v 10.5139h 0.544034v -21.0278h 0.181345v 21.0278h 0.36269v -21.0278h 0.181345v 10.5139h 0.181345v
 10.5139h 0.181345v -10.5139h 0.36269v 10.5139h 0.36269v -21.0278h 0.181345v 10.5139h 0.181345v 10.5139h 0.906724v -10.5139h 0.181345v 10.5139h 1.08807v -10.5139h 0.181345v -10.5139h 0.181345v -6.15024h 0.181345v 27.178h 0.725379v -10.5139h 0.36269v
 10.5139h 0.181345v -10.5139h 0.181345v 10.5139h 0.36269v -10.5139h 0.181345v -16.6641h 0.181345v 27.178h 0.181345v -21.0278h 0.181345v 21.0278h 0.725379v -10.5139h 0.36269v 10.5139h 0.181345v -21.0278h 0.181345v 21.0278h 0.181345v -10.5139h
 0.181345v 10.5139h 0.181345v -10.5139h 0.544034v 10.5139h 0.181345v -21.0278h 0.181345v 21.0278h 0.181345v -10.5139h 0.181345v 10.5139h 0.36269v -10.5139h 0.181345v 10.5139h 0.181345v -10.5139h 0.181345v 10.5139h 0.181345v -21.0278h 0.36269v
 21.0278h 0.181345v -10.5139h 0.181345v 10.5139h 1.26941v -10.5139h 0.725379v 10.5139h 0.181345v -10.5139h 0.544034v 10.5139h 0.36269v -21.0278h 0.181345v 10.5139h 0.36269v 10.5139h 0.36269v -10.5139h 0.181345v 10.5139h 0.36269v -10.5139h 0.36269v
 10.5139h 0.725379v -10.5139h 0.36269v 10.5139h 0.181345v -21.0278h 0.181345v 21.0278h 0.181345v -10.5139h 0.36269v -10.5139h 0.181345v 10.5139h 0.181345v -10.5139h 0.181345v 21.0278h 0.181345v -10.5139h 0.181345v 10.5139h 0.181345v -10.5139h
 0.36269v 10.5139h 0.181345v -10.5139h 0.181345v 10.5139h 0.906724v -21.0278h 0.181345v 21.0278h 0.725379v -21.0278h 0.181345v 10.5139h 0.181345v 10.5139h 0.181345v -27.178h 0.181345v 27.178h 0.181345v -10.5139h 0.544034v 10.5139h 0.181345v -21.0278h
 0.181345v 21.0278h 0.544034v -10.5139h 0.181345v 10.5139h 0.181345v -10.5139h 0.181345v 10.5139h 0.725379v -10.5139h 0.181345v 10.5139h 0.181345v -10.5139h 0.36269v 10.5139h 0.36269v -10.5139h 0.181345v -10.5139h 0.181345v 10.5139h 0.36269v 10.5139h
 0.36269v -10.5139h 0.181345v 10.5139h 0.181345v -10.5139h 0.181345v 10.5139h 0.36269v -10.5139h 0.181345v 10.5139h 0.36269v -21.0278h 0.181345v 21.0278h 1.26941v -10.5139h 0.181345v 10.5139h 0.181345v -10.5139h 0.36269v 10.5139h 1.6321v -27.178h
 0.181345v 27.178h 0.181345v -10.5139h 0.181345v 10.5139h 0.725379" fill="none" stroke="black"/>
<path d="M57.1929,280.151h 453.543" fill="none" stroke="black"/>
<path d="M57.1929,272.68v 7.47068" fill="none" stroke="black"/>
<path d="M75.3318,276.415v 3.73534" fill="none" stroke="black"/>
<path d="M93.4707,276.415v 3.73534" fill="none" stroke="black"/>
<path d="M111.61,276.415v 3.73534" fill="none" stroke="black"/>
<path d="M129.749,276.415v 3.73534" fill="none" stroke="black"/>
<path d="M147.887,272.68v 7.47068" fill="none" stroke="black"/>
<path d="M166.026,276.415v 3.73534" fill="none" stroke="black"/>
<path d="M184.165,276.415v 3.73534" fill="none" stroke="black"/>
<path d="M202.304,276.415v 3.73534" fill="none" stroke="black"/>
<path d="M220.443,276.415v 3.73534" fill="none" stroke="black"/>
<path d="M238.582,272.68v 7.47068" fill="none" stroke="black"/>
<path d="M256.721,276.415v 3.73534" fill="none" stroke="black"/>
<path d="M274.86,276.415v 3.73534" fill="none" stroke="black"/>
<path d="M292.999,276.415v 3.73534" fill="none" stroke="black"/>
<path d="M311.138,276.415v 3.73534" fill="none" stroke="black"/>
<path d="M329.277,272.68v 7.47068" fill="none" stroke="black"/>
<path d="M347.415,276.415v 3.73534" fill="none" stroke="black"/>
<path d="M365.554,276.415v 3.73534" fill="none" stroke="black"/>
<path d="M383.693,276.415v 3.73534" fill="none" stroke="black"/>
<path d="M401.832,276.415v 3.73534" fill="none" stroke="black"/>
<path d="M419.971,272.68v 7.47068" fill="none" stroke="black"/>
<path d="M438.11,276.415v 3.73534" fill="none" stroke="black"/>
<path d="M456.249,276.415v 3.73534" fill="none" stroke="black"/>
<path d="M474.388,276.415v 3.73534" fill="none" stroke="black"/>
<path d="M492.527,276.415v 3.73534" fill="none" stroke="black"/>
<path d="M510.666,272.68v 7.47068" fill="none" stroke="black"/>
<path d="M510.666,272.68v 7.47068" fill="none" stroke="black"/>
<text xml:space="preserve" x="54.3523" y="290.27" fill="black" font-size="10.4952" font-family="Helvetica">0</text>
<text xml:space="preserve" x="139.569" y="290.27" fill="black" font-size="10.4952" font-family="Helvetica">500</text>
<text xml:space="preserve" x="227.449" y="290.27" fill="black" font-size="10.4952" font-family="Helvetica">1000</text>
<text xml:space="preserve" x="318.288" y="290.27" fill="black" font-size="10.4952" font-family="Helvetica">1500</text>
<text xml:space="preserve" x="408.831" y="290.27" fill="black" font-size="10.4952" font-family="Helvetica">2000</text>
<text xml:space="preserve" x="499.67" y="290.27" fill="black" font-size="10.4952" font-family="Helvetica">2500</text>
<text xml:space="preserve" x="265.323" y="301.218" fill="black" font-size="10.4952" font-family="Helvetica">Channel</text>
<path d="M57.1929,280.151v -249.023" fill="none" stroke="black"/>
<path d="M63.9961,280.151h -6.80315" fill="none" stroke="black"/>
<path d="M63.9961,277.385h -6.80315" fill="none" stroke="black"/>
<path d="M63.9961,275.047h -6.80315" fill="none" stroke="black"/>
<path d="M63.9961,273.021h -6.80315" fill="none" stroke="black"/>
<path d="M63.9961,271.235h -6.80315" fill="none" stroke="black"/>
<path d="M70.7992,269.637h -13.6063" fill="none" stroke="black"/>
<text xml:space="preserve" x="49.0263" y="273.404" fill="black" font-size="10.4952" font-family="Helvetica">1</text>
<path d="M63.9961,259.123h -6.80315" fill="none" stroke="black"/>
<path d="M63.9961,252.973h -6.80315" fill="none" stroke="black"/>
<path d="M63.9961,248.609h -6.80315" fill="none" stroke="black"/>
<path d="M63.9961,245.224h -6.80315" fill="none" stroke="black"/>
<path d="M63.9961,242.459h -6.80315" fill="none" stroke="black"/>
<path d="M63.9961,240.12h -6.80315" fill="none" stroke="black"/>
<path d="M63.9961,238.095h -6.80315" fill="none" stroke="black"/>
<path d="M63.9961,236.308h -6.80315" fill="none" stroke="black"/>
<path d="M70.7992,234.71h -13.6063" fill="none" stroke="black"/>
<text xml:space="preserve" x="41.629" y="238.489" fill="black" font-size="10.4952" font-family="Helvetica">10</text>
<path d="M63.9961,224.196h -6.80315" fill="none" stroke="black"/>
<path d="M63.9961,218.046h -6.80315" fill="none" stroke="black"/>
<path d="M63.9961,213.682h -6.80315" fill="none" stroke="black"/>
<path d="M63.9961,210.298h -6.80315" fill="none" stroke="black"/>
<path d="M63.9961,207.532h -6.80315" fill="none" stroke="black"/>
<path d="M63.9961,205.194h -6.80315" fill="none" stroke="black"/>
<path d="M63.9961,203.169h -6.80315" fill="none" stroke="black"/>
<path d="M63.9961,201.382h -6.80315" fill="none" stroke="black"/>
<path d="M70.7992,199.784h -13.6063" fill="none" stroke="black"/>
<text xml:space="preserve" x="49.0263" y="200.023" fill="black" font-size="7.16345" font-family="Helvetica">2</text>
<text xml:space="preserve" x="38.0783" y="204.461" fill="black" font-size="10.4952" font-family="Helvetica">10</text>
<path d="M63.9961,189.27h -6.80315" fill="none" stroke="black"/>
<path d="M63.9961,183.12h -6.80315" fill="none" stroke="black"/>
<path d="M63.9961,178.756h -6.80315" fill="none" stroke="black"/>
<path d="M63.9961,175.371h -6.80315" fill="none" stroke="black"/>
<path d="M63.9961,172.606h -6.80315" fill="none" stroke="black"/>
<path d="M63.9961,170.268h -6.80315" fill="none" stroke="black"/>
<path d="M63.9961,168.242h -6.80315" fill="none" stroke="black"/>
<path d="M63.9961,166.456h -6.80315" fill="none" stroke="black"/>
<path d="M70.7992,164.857h -13.6063" fill="none" stroke="black"/>
<text xml:space="preserve" x="49.0263" y="164.812" fill="black" font-size="7.16345" font-family="Helvetica">3</text>
<text xml:space="preserve" x="38.0783" y="169.546" fill="black" font-size="10.4952" font-family="Helvetica">10</text>
<path d="M63.9961,154.343h -6.80315" fill="none" stroke="black"/>
<path d="M63.9961,148.193h -6.80315" fill="none" stroke="black"/>
<path d="M63.9961,143.83h -6.80315" fill="none" stroke="black"/>
<path d="M63.9961,140.445h -6.80315" fill="none" stroke="black"/>
<path d="M63.9961,137.679h -6.80315" fill="none" stroke="black"/>
<path d="M63.9961,135.341h -6.80315" fill="none" stroke="black"/>
<path d="M63.9961,133.316h -6.80315" fill="none" stroke="black"/>
<path d="M63.9961,131.529h -6.80315" fill="none" stroke="black"/>
<path d="M70.7992,129.931h -13.6063" fill="none" stroke="black"/>
<text xml:space="preserve" x="49.0263" y="130.192" fill="black" font-size="7.16345" font-family="Helvetica">4</text>
<text xml:space="preserve" x="38.0783" y="134.631" fill="black" font-size="10.4952" font-family="Helvetica">10</text>
<path d="M63.9961,119.417h -6.80315" fill="none" stroke="black"/>
<path d="M63.9961,113.267h -6.80315" fill="none" stroke="black"/>
<path d="M63.9961,108.903h -6.80315" fill="none" stroke="black"/>
<path d="M63.9961,105.518h -6.80315" fill="none" stroke="black"/>
<path d="M63.9961,102.753h -6.80315" fill="none" stroke="black"/>
<path d="M63.9961,100.415h -6.80315" fill="none" stroke="black"/>
<path d="M63.9961,98.3892h -6.80315" fill="none" stroke="black"/>
<path d="M63.9961,96.6027h -6.80315" fill="none" stroke="black"/>
<path d="M70.7992,95.0045h -13.6063" fill="none" stroke="black"/>
<text xml:space="preserve" x="49.0263" y="94.9813" fill="black" font-size="7.16345" font-family="Helvetica">5</text>
<text xml:space="preserve" x="38.0783" y="99.7156" fill="black" font-size="10.4952" font-family="Helvetica">10</text>
<path d="M63.9961,84.4906h -6.80315" fill="none" stroke="black"/>
<path d="M63.9961,78.3404h -6.80315" fill="none" stroke="black"/>
<path d="M63.9961,73.9767h -6.80315" fill="none" stroke="black"/>
<path d="M63.9961,70.592h -6.80315" fill="none" stroke="black"/>
<path d="M63.9961,67.8265h -6.80315" fill="none" stroke="black"/>
<path d="M63.9961,65.4883h -6.80315" fill="none" stroke="black"/>
<path d="M63.9961,63.4628h -6.80315" fill="none" stroke="black"/>
<path d="M63.9961,61.6763h -6.80315" fill="none" stroke="black"/>
<path d="M70.7992,60.0781h -13.6063" fill="none" stroke="black"/>
<text xml:space="preserve" x="49.0263" y="60.0661" fill="black" font-size="7.16345" font-family="Helvetica">6</text>
<text xml:space="preserve" x="38.0783" y="64.8004" fill="black" font-size="10.4952" font-family="Helvetica">10</text>
<path d="M63.9961,49.5642h -6.80315" fill="none" stroke="black"/>
<path d="M63.9961,43.414h -6.80315" fill="none" stroke="black"/>
<path d="M63.9961,39.0503h -6.80315" fill="none" stroke="black"/>
<path d="M63.9961,35.6656h -6.80315" fill="none" stroke="black"/>
<path d="M63.9961,32.9001h -6.80315" fill="none" stroke="black"/>
<g transform="rotate(-90,26.5385,191.442)">
<text xml:space="preserve" x="26.5385" y="191.442" fill="black" font-size="10.4952" font-family="Helvetica">Counts/Channel</text>
</g>
<text xml:space="preserve" x="404.097" y="60.0661" fill="black" font-size="14.7788" font-family="Helvetica" font-weight="bold"> = 2.4879 MeV</text>
<text xml:space="preserve" x="398.179" y="63.3209" fill="black" font-size="10.0192" font-family="Helvetica" font-weight="bold">p</text>
<text xml:space="preserve" x="389.006" y="60.0661" fill="black" font-size="14.7788" font-family="Helvetica" font-weight="bold">E</text>
<path d="M262.163,163.412v 26.2534" fill="none" stroke="black"/>
<path d="M264.454,189.665l -2.29122, 3.9685l -2.29122, -3.9685z" fill="black"/>
<path d="M264.454,189.665l -2.29122, 3.9685l -2.29122, -3.9685h 4.58243z" fill="none" stroke="black"/>
<text xml:space="preserve" x="266.803" y="161.261" fill="black" font-size="10.4952" font-family="Helvetica" font-weight="bold">_1 	1.369 MeV</text>
<text xml:space="preserve" x="260.293" y="161.261" fill="black" font-size="10.4952" font-family="Times">&#0945;</text>
<path d="M184.528,129.931v 30.9579" fill="none" stroke="black"/>
<path d="M186.819,160.889l -2.29122, 3.9685l -2.29122, -3.9685z" fill="black"/>
<path d="M186.819,160.889l -2.29122, 3.9685l -2.29122, -3.9685h 4.58243z" fill="none" stroke="black"/>
<text xml:space="preserve" x="172.117" y="126.938" fill="black" font-size="10.4952" font-family="Helvetica" font-weight="bold"># p_1 	0.844 MeV</text>
<path d="M210.104,148.193v 12.6956" fill="none" stroke="black"/>
<path d="M212.395,160.889l -2.29122, 3.9685l -2.29122, -3.9685z" fill="black"/>
<path d="M212.395,160.889l -2.29122, 3.9685l -2.29122, -3.9685h 4.58243z" fill="none" stroke="black"/>
<text xml:space="preserve" x="197.564" y="143.804" fill="black" font-size="10.4952" font-family="Helvetica" font-weight="bold"># p_2 	1.015 MeV</text>
<path d="M497.568,269.637h 13.0975" fill="none" stroke="black"/>
<path d="M504.117,259.123h 6.54877" fill="none" stroke="black"/>
<path d="M504.117,252.972h 6.54877" fill="none" stroke="black"/>
<path d="M504.117,248.609h 6.54877" fill="none" stroke="black"/>
<path d="M504.117,245.224h 6.54877" fill="none" stroke="black"/>
<path d="M504.117,242.459h 6.54877" fill="none" stroke="black"/>
<path d="M504.117,240.12h 6.54877" fill="none" stroke="black"/>
<path d="M504.117,238.095h 6.54877" fill="none" stroke="black"/>
<path d="M504.117,236.308h 6.54877" fill="none" stroke="black"/>
<path d="M497.568,234.71h 13.0975" fill="none" stroke="black"/>
<path d="M504.117,224.196h 6.54877" fill="none" stroke="black"/>
<path d="M504.117,218.046h 6.54877" fill="none" stroke="black"/>
<path d="M504.117,213.682h 6.54877" fill="none" stroke="black"/>
<path d="M504.117,210.298h 6.54877" fill="none" stroke="black"/>
<path d="M504.117,207.532h 6.54877" fill="none" stroke="black"/>
<path d="M504.117,205.194h 6.54877" fill="none" stroke="black"/>
<path d="M504.117,203.169h 6.54877" fill="none" stroke="black"/>
<path d="M504.117,201.382h 6.54877" fill="none" stroke="black"/>
<path d="M497.568,199.784h 13.0975" fill="none" stroke="black"/>
<path d="M504.117,189.27h 6.54877" fill="none" stroke="black"/>
<path d="M504.117,183.12h 6.54877" fill="none" stroke="black"/>
<path d="M504.117,178.756h 6.54877" fill="none" stroke="black"/>
<path d="M504.117,175.371h 6.54877" fill="none" stroke="black"/>
<path d="M504.117,172.606h 6.54877" fill="none" stroke="black"/>
<path d="M504.117,170.268h 6.54877" fill="none" stroke="black"/>
<path d="M504.117,168.242h 6.54877" fill="none" stroke="black"/>
<path d="M504.117,166.456h 6.54877" fill="none" stroke="black"/>
<path d="M497.568,164.857h 13.0975" fill="none" stroke="black"/>
<path d="M504.117,154.343h 6.54877" fill="none" stroke="black"/>
<path d="M504.117,148.193h 6.54877" fill="none" stroke="black"/>
<path d="M504.117,143.83h 6.54877" fill="none" stroke="black"/>
<path d="M504.117,140.445h 6.54877" fill="none" stroke="black"/>
<path d="M504.117,137.679h 6.54877" fill="none" stroke="black"/>
<path d="M504.117,135.341h 6.54877" fill="none" stroke="black"/>
<path d="M504.117,133.316h 6.54877" fill="none" stroke="black"/>
<path d="M504.117,131.529h 6.54877" fill="none" stroke="black"/>
<path d="M497.568,129.931h 13.0975" fill="none" stroke="black"/>
<path d="M504.117,119.417h 6.54877" fill="none" stroke="black"/>
<path d="M504.117,113.267h 6.54877" fill="none" stroke="black"/>
<path d="M504.117,108.903h 6.54877" fill="none" stroke="black"/>
<path d="M504.117,105.518h 6.54877" fill="none" stroke="black"/>
<path d="M504.117,102.753h 6.54877" fill="none" stroke="black"/>
<path d="M504.117,100.415h 6.54877" fill="none" stroke="black"/>
<path d="M504.117,98.3892h 6.54877" fill="none" stroke="black"/>
<path d="M504.117,96.6027h 6.54877" fill="none" stroke="black"/>
<path d="M497.568,95.0045h 13.0975" fill="none" stroke="black"/>
<path d="M504.117,84.4906h 6.54877" fill="none" stroke="black"/>
<path d="M504.117,78.3404h 6.54877" fill="none" stroke="black"/>
<path d="M504.117,73.9767h 6.54877" fill="none" stroke="black"/>
<path d="M504.117,70.592h 6.54877" fill="none" stroke="black"/>
<path d="M504.117,67.8265h 6.54877" fill="none" stroke="black"/>
<path d="M504.117,65.4883h 6.54877" fill="none" stroke="black"/>
<path d="M504.117,63.4628h 6.54877" fill="none" stroke="black"/>
<path d="M504.117,61.6763h 6.54877" fill="none" stroke="black"/>
<path d="M497.568,60.0781h 13.0975" fill="none" stroke="black"/>
<path d="M504.117,49.5642h 6.54877" fill="none" stroke="black"/>
<path d="M504.117,43.414h 6.54877" fill="none" stroke="black"/>
<path d="M504.117,39.0503h 6.54877" fill="none" stroke="black"/>
<path d="M504.117,35.6656h 6.54877" fill="none" stroke="black"/>
<path d="M504.117,32.9001h 6.54877" fill="none" stroke="black"/>
<path d="M504.117,30.5619h 6.54877" fill="none" stroke="black"/>
<path d="M57.1929,37.3948v -7.46952" fill="none" stroke="black"/>
<path d="M75.3318,37.3948v -7.46952" fill="none" stroke="black"/>
<path d="M93.4707,37.3948v -7.46952" fill="none" stroke="black"/>
<path d="M111.61,37.3948v -7.46952" fill="none" stroke="black"/>
<path d="M129.749,37.3948v -7.46952" fill="none" stroke="black"/>
<path d="M147.887,37.3948v -7.46952" fill="none" stroke="black"/>
<path d="M166.026,37.3948v -7.46952" fill="none" stroke="black"/>
<path d="M184.165,37.3948v -7.46952" fill="none" stroke="black"/>
<path d="M202.304,37.3948v -7.46952" fill="none" stroke="black"/>
<path d="M220.443,37.3948v -7.46952" fill="none" stroke="black"/>
<path d="M238.582,37.3948v -7.46952" fill="none" stroke="black"/>
<path d="M256.721,37.3948v -7.46952" fill="none" stroke="black"/>
<path d="M274.86,37.3948v -7.46952" fill="none" stroke="black"/>
<path d="M292.999,37.3948v -7.46952" fill="none" stroke="black"/>
<path d="M311.138,37.3948v -7.46952" fill="none" stroke="black"/>
<path d="M329.277,37.3948v -7.46952" fill="none" stroke="black"/>
<path d="M347.415,37.3948v -7.46952" fill="none" stroke="black"/>
<path d="M365.554,37.3948v -7.46952" fill="none" stroke="black"/>
<path d="M383.693,37.3948v -7.46952" fill="none" stroke="black"/>
<path d="M401.832,37.3948v -7.46952" fill="none" stroke="black"/>
<path d="M419.971,37.3948v -7.46952" fill="none" stroke="black"/>
<path d="M438.11,37.3948v -7.46952" fill="none" stroke="black"/>
<path d="M456.249,37.3948v -7.46952" fill="none" stroke="black"/>
<path d="M474.388,37.3948v -7.46952" fill="none" stroke="black"/>
<path d="M492.527,37.3948v -7.46952" fill="none" stroke="black"/>
<path d="M510.666,37.3948v -7.46952" fill="none" stroke="black"/></svg>
