<?xml version="1.0" standalone="no"?>
<svg width="567.429" height="311.778" viewBox="0 0 567.429 311.778" xmlns="http://www.w3.org/2000/svg" shape-rendering="crispEdges">
<title>
Yields/P1/det-10/run_0107_Fit.svg
</title>
<desc>
Creator: ROOT Version 6.12/06
CreationDate: Mon Apr 15 10:29:03 2019</desc>
<defs>
</defs>
<rect x="0.5" y="0" width="566.929" height="311.278" fill="white"/>
<rect x="57.1929" y="31.1278" width="453.543" height="249.023" fill="white"/>
<rect x="57.1929" y="31.1278" width="453.543" height="249.023" fill="none" stroke="black"/>
<rect x="57.1929" y="31.1278" width="453.543" height="249.023" fill="white"/>
<rect x="57.1929" y="31.1278" width="453.543" height="249.023" fill="none" stroke="black"/>
<path d="M57.1929,40.7517h 0.181345v 239.399h 24.6629v -10.4381h 0.181345v 10.4381h 3.80824v -10.4381h 0.181345v 10.4381h 0.36269v -10.4381h 0.181345v 10.4381h 2.17614v -10.4381h 0.544034v -16.5439h 0.181345v -28.5686h 0.181345v -14.6758h 0.181345v
 -5.2284h 0.181345v -10.4381h 0.181345v -3.63881h 0.181345v -2.73242h 0.181345v -4.51194h 0.181345v -0.806497h 0.181345v -2.54405h 0.181345v -1.44945h 0.181345v 1.17881h 0.181345v -1.97247h 0.181345v -0.817732h 0.181345v -1.68499h 0.181345v
 -0.668158h 0.181345v 1.33755h 0.181345v 0.209779h 0.181345v -1.70984h 0.181345v 0.973677h 0.181345v -0.0573674h 0.181345v -1.67795h 0.181345v -0.700541h 0.181345v 0.88089h 0.181345v 0.287842h 0.181345v -1.24189h 0.181345v 0.3445h 0.181345v 0.635492h
 0.181345v -0.384504h 0.181345v -1.12141h 0.181345v 0.477343h 0.181345v -0.0725733h 0.181345v 0.615741h 0.181345v -0.855156h 0.181345v -0.0710887h 0.181345v 0.876049h 0.181345v -1.36449h 0.181345v -0.227137h 0.181345v -1.84366h 0.181345v 0.904218h
 0.181345v 0.560999h 0.181345v -0.645481h 0.181345v 1.22819h 0.181345v -0.405804h 0.181345v -0.220809h 0.181345v 0.0219358h 0.181345v -0.602437h 0.181345v 0.191025h 0.181345v 0.12871h 0.181345v -0.878686h 0.181345v 0.601193h 0.181345v 0.0423599h
 0.181345v 1.82414h 0.181345v -1.10743h 0.181345v -0.610286h 0.181345v -1.77131h 0.181345v 0.839535h 0.181345v -2.61111h 0.181345v -0.530766h 0.181345v -2.03933h 0.181345v -2.32947h 0.181345v -1.76962h 0.181345v -2.05414h 0.181345v -1.39049h
 0.181345v -1.08947h 0.181345v -0.419319h 0.181345v -0.945035h 0.181345v -0.174852h 0.181345v 1.28464h 0.181345v 1.01981h 0.181345v 1.49871h 0.181345v 2.07625h 0.181345v 2.27148h 0.181345v 2.13581h 0.181345v 3.18209h 0.181345v 3.14046h 0.181345v
 2.64117h 0.181345v 1.88135h 0.181345v 1.48545h 0.181345v 1.46783h 0.181345v -0.389324h 0.181345v 2.54427h 0.181345v 0.633709h 0.181345v 1.0729h 0.181345v -0.590622h 0.181345v 0.871231h 0.181345v -1.3103h 0.181345v 0.754213h 0.181345v -0.270527h
 0.181345v -0.133463h 0.181345v 1.19798h 0.181345v 1.14553h 0.181345v -1.93952h 0.181345v 0.183089h 0.181345v 1.70477h 0.181345v -1.93328h 0.181345v 0.791532h 0.181345v 0.192449h 0.181345v 0.592559h 0.181345v -1.25564h 0.181345v 1.30609h 0.181345v
 0.884543h 0.181345v -1.57589h 0.181345v -0.0962235h 0.181345v 0.437932h 0.181345v 0.0990722h 0.181345v -1.46686h 0.181345v 1.51664h 0.181345v -0.634668h 0.181345v 0.289604h 0.181345v -0.526757h 0.181345v 2.17306h 0.181345v 0.441319h 0.181345v
 0.454644h 0.181345v -1.0043h 0.181345v 0.718544h 0.181345v 0.0567192h 0.181345v -0.447882h 0.181345v 0.447882h 0.181345v 0.520322h 0.181345v 0.971881h 0.181345v -0.734727h 0.181345v 1.05177h 0.181345v -1.40611h 0.181345v 1.02646h 0.181345v
 -0.731752h 0.181345v 0.98379h 0.181345v 0.451479h 0.181345v -0.32386h 0.181345v 1.26957h 0.181345v -1.95846h 0.181345v 0.497861h 0.181345v 1.048h 0.181345v 0.136281h 0.181345v -1.3103h 0.181345v 0.9051h 0.181345v 0.133858h 0.181345v 0.758275h
 0.181345v 0.430284h 0.181345v 0.0729247h 0.181345v -1.78992h 0.181345v 1.50032h 0.181345v -1.50032h 0.181345v 0.663496h 0.181345v -0.984594h 0.181345v 0.0636742h 0.181345v 1.33352h 0.181345v -2.0804h 0.181345v 3.31483h 0.181345v -1.16455h 0.181345v
 0.93923h 0.181345v -0.0743652h 0.181345v -2.26826h 0.181345v 1.4034h 0.181345v 2.10116h 0.181345v -1.60271h 0.181345v -2.15494h 0.181345v 2.15494h 0.181345v 0.292415h 0.181345v 0.834713h 0.181345v -0.834713h 0.181345v 0.991578h 0.181345v -0.768479h
 0.181345v -1.83184h 0.181345v 0.888085h 0.181345v 1.3231h 0.181345v -0.304231h 0.181345v -1.77369h 0.181345v 1.84917h 0.181345v -1.30399h 0.181345v 1.68719h 0.181345v -0.458683h 0.181345v -1.84047h 0.181345v 1.54226h 0.181345v -0.436521h 0.181345v
 -0.14274h 0.181345v -0.896219h 0.181345v -0.971881h 0.181345v 0.640902h 0.181345v 0.0656163h 0.181345v -1.2609h 0.181345v -1.27498h 0.181345v 0.740285h 0.181345v 0.117191h 0.181345v -1.616h 0.181345v 3.49298h 0.181345v -0.652003h 0.181345v 0.387805h
 0.181345v -2.18982h 0.181345v 1.67494h 0.181345v 2.39534h 0.181345v -1.0043h 0.181345v 0.42224h 0.181345v 1.03386h 0.181345v -0.152112h 0.181345v -0.447328h 0.181345v 1.62748h 0.181345v 0.330979h 0.181345v -1.35902h 0.181345v -0.599439h 0.181345v
 3.08732h 0.181345v -0.790446h 0.181345v -0.170159h 0.181345v 0.255965h 0.181345v -0.255965h 0.36269v -0.168258h 0.181345v 1.40184h 0.181345v -1.48527h 0.181345v -0.809815h 0.181345v 0.726845h 0.181345v 1.02714h 0.181345v -0.17613h 0.181345v
 -1.25914h 0.181345v 2.92378h 0.181345v -1.12995h 0.181345v -1.05105h 0.181345v 1.69984h 0.181345v -1.8681h 0.181345v 2.25179h 0.181345v -2.74557h 0.181345v 0.577673h 0.181345v 2.66167h 0.181345v -2.57731h 0.181345v 1.05105h 0.181345v -2.11255h
 0.181345v 1.84283h 0.181345v 0.0893707h 0.181345v -0.178214h 0.181345v -0.860744h 0.36269v -0.893244h 0.181345v 1.66567h 0.181345v 0.266537h 0.181345v -1.45156h 0.181345v -0.792758h 0.181345v -1.81653h 0.181345v -0.271339h 0.181345v 1.11599h
 0.181345v 0.145498h 0.36269v -1.65954h 0.181345v 2.7194h 0.181345v -3.48527h 0.181345v 1.64203h 0.181345v -1.51706h 0.181345v 1.79723h 0.181345v 0.142066h 0.181345v 1.73804h 0.181345v -2.22952h 0.181345v 0.707122h 0.181345v 0.894853h 0.181345v
 1.45064h 0.181345v -0.580857h 0.181345v 0.496493h 0.181345v 1.13541h 0.181345v -2.65458h 0.181345v 4.38297h 0.181345v -0.984594h 0.181345v -0.834246h 0.181345v 1.51664h 0.181345v -0.586786h 0.181345v -1.10913h 0.181345v -0.352272h 0.181345v 2.24898h
 0.181345v -1.89671h 0.181345v 2.72776h 0.181345v -3.42425h 0.181345v 1.90185h 0.181345v -1.38252h 0.181345v 1.38252h 0.181345v -0.475084h 0.181345v -0.550998h 0.181345v 0.272979h 0.181345v 1.04552h 0.181345v 1.77369h 0.181345v -3.18209h 0.181345v
 1.11599h 0.181345v -0.844647h 0.181345v 0.369563h 0.181345v 0.475084h 0.181345v -2.72947h 0.181345v 2.82631h 0.181345v -1.82756h 0.181345v 2.52348h 0.181345v -1.26784h 0.181345v 0.669396h 0.181345v 0.598447h 0.181345v -1.54586h 0.181345v -0.977618h
 0.181345v 0.977618h 0.181345v 2.0634h 0.181345v -1.11599h 0.181345v -1.22039h 0.181345v 0.181435h 0.181345v 1.7395h 0.181345v -2.9659h 0.181345v 0.688528h 0.181345v 1.67494h 0.181345v -0.388639h 0.181345v 0.193066h 0.181345v 0.79801h 0.181345v
 -2.62557h 0.181345v -0.424223h 0.181345v 1.67986h 0.181345v 0.669396h 0.181345v -0.76264h 0.181345v 0.18707h 0.181345v -1.85711h 0.181345v 2.04654h 0.181345v -0.283248h 0.181345v 1.57623h 0.181345v -1.94579h 0.181345v 0.463388h 0.181345v -2.26747h
 0.181345v 1.62264h 0.181345v 0.739237h 0.181345v -0.918512h 0.181345v 0.36071h 0.181345v -0.36071h 0.181345v -1.11599h 0.181345v 0.67692h 0.181345v -1.08505h 0.181345v -0.860744h 0.181345v 1.68837h 0.181345v -0.746877h 0.181345v 1.2662h 0.36269v
 0.907439h 0.181345v 0.7675h 0.181345v -1.13706h 0.36269v 1.33521h 0.181345v -1.87308h 0.181345v 1.38252h 0.181345v -1.38252h 0.181345v 1.00126h 0.181345v -1.26316h 0.181345v 3.16682h 0.181345v 0.766802h 0.181345v -1.79864h 0.181345v 0.302196h
 0.181345v 0.102095h 0.181345v 3.18209h 0.181345v -2.33941h 0.181345v 1.59866h 0.181345v -3.99719h 0.181345v 3.29117h 0.181345v -0.674393h 0.181345v -1.16302h 0.36269v 0.204886h 0.181345v 1.63253h 0.181345v -0.783913h 0.181345v 2.10466h 0.181345v
 -3.15817h 0.181345v 2.78632h 0.181345v -1.51298h 0.181345v 0.223099h 0.181345v -1.08384h 0.181345v 0.971881h 0.181345v 1.52477h 0.181345v -1.18636h 0.181345v -0.669396h 0.181345v 0.899307h 0.181345v -0.115395h 0.181345v 1.19578h 0.181345v -1.19578h
 0.181345v -0.564071h 0.181345v 2.52572h 0.181345v -1.01275h 0.181345v 0.371844h 0.181345v -0.371844h 0.181345v -1.84155h 0.181345v 4.22423h 0.181345v -1.36994h 0.181345v -1.49467h 0.181345v 2.30159h 0.181345v -1.57279h 0.181345v 1.03007h 0.181345v
 -1.03007h 0.181345v -1.75985h 0.181345v 2.39534h 0.181345v 0.261901h 0.181345v -0.519325h 0.181345v 0.92092h 0.181345v -0.663496h 0.181345v 2.38639h 0.181345v -0.886075h 0.181345v -0.563016h 0.181345v -1.19473h 0.181345v -0.987824h 0.181345v
 -0.814194h 0.181345v 2.18982h 0.181345v -0.514885h 0.181345v 1.74208h 0.181345v -1.74208h 0.36269v 0.12708h 0.181345v 0.92092h 0.181345v -1.29899h 0.181345v 2.13581h 0.181345v 0.289604h 0.181345v -2.67229h 0.181345v 3.57609h 0.181345v -3.20425h
 0.181345v 1.3103h 0.181345v 0.844647h 0.181345v -0.286845h 0.181345v -2.23994h 0.181345v -0.833513h 0.181345v 4.40961h 0.181345v -1.89395h 0.181345v -0.136281h 0.181345v 0.836822h 0.181345v -1.23842h 0.181345v -0.646405h 0.181345v 2.32134h 0.181345v
 -0.72066h 0.181345v 0.428245h 0.181345v -1.90185h 0.181345v 1.33352h 0.181345v -1.0761h 0.181345v -0.257424h 0.181345v 2.34263h 0.181345v -1.00911h 0.181345v -2.32134h 0.181345v 2.74557h 0.181345v -0.284139h 0.181345v 1.17021h 0.181345v -0.741969h
 0.181345v -0.428245h 0.181345v 0.869025h 0.181345v 2.24698h 0.181345v -1.4824h 0.181345v -3.48527h 0.181345v 2.27992h 0.181345v -0.568329h 0.181345v 2.74557h 0.181345v -0.166399h 0.181345v -0.16458h 0.181345v -2.96225h 0.181345v 0.408865h 0.181345v
 -2.30159h 0.181345v 2.86461h 0.36269v -1.36994h 0.181345v 4.2018h 0.181345v -5.45744h 0.181345v -2.44134h 0.181345v 6.73341h 0.181345v -0.473094h 0.181345v -3.20425h 0.181345v -0.371844h 0.181345v 1.81967h 0.181345v -0.542723h 0.36269v 1.24984h
 0.181345v -1.24984h 0.181345v -0.132679h 0.181345v -1.97778h 0.181345v 0.711578h 0.181345v -0.478101h 0.181345v 1.7443h 0.181345v -2.20769h 0.181345v -0.559876h 0.181345v 0.110322h 0.181345v -0.543702h 0.181345v 0.32386h 0.181345v -0.535961h
 0.181345v -0.618947h 0.181345v -0.787574h 0.181345v -0.285035h 0.544034v -1.26316h 0.181345v -0.172104h 0.181345v -0.0853199h 0.181345v -0.169203h 0.181345v 2.16789h 0.181345v -4.13661h 0.181345v 2.22324h 0.181345v -1.69744h 0.181345v -0.302702h
 0.181345v 1.24912h 0.181345v -1.17402h 0.181345v 0.304231h 0.181345v 1.03347h 0.181345v -0.244866h 0.181345v 0.918003h 0.181345v -0.255965h 0.181345v 0.78133h 0.181345v -0.177166h 0.181345v -1.34695h 0.181345v 1.25914h 0.181345v 0.995246h 0.181345v
 -2.41459h 0.181345v 1.24525h 0.181345v 1.16934h 0.181345v -3.19099h 0.181345v 0.776405h 0.181345v -0.851889h 0.181345v 2.27123h 0.181345v -1.967h 0.181345v -2.27738h 0.181345v -0.13152h 0.181345v 0.945714h 0.181345v -0.814194h 0.181345v 0.0661932h
 0.181345v -3.37356h 0.181345v 1.68118h 0.181345v -1.25089h 0.181345v -1.40548h 0.181345v -0.0496176h 0.181345v -1.90521h 0.181345v -0.848615h 0.181345v -0.724901h 0.181345v 0.520015h 0.181345v -0.598447h 0.181345v -0.0780257h 0.181345v -1.41049h
 0.181345v 1.06429h 0.181345v -0.559876h 0.181345v -0.539804h 0.181345v -0.210618h 0.181345v 0.17531h 0.181345v 1.99573h 0.181345v -0.199989h 0.181345v 0.5256h 0.181345v 0.759434h 0.181345v 1.12265h 0.181345v 2.25931h 0.181345v -0.321555h 0.181345v
 -0.262815h 0.181345v 2.54885h 0.181345v 0.37493h 0.181345v 0.514885h 0.181345v 2.79804h 0.181345v 1.0615h 0.181345v 0.516357h 0.181345v 1.66464h 0.181345v 1.43527h 0.181345v -0.107181h 0.181345v 0.654839h 0.181345v 0.801805h 0.181345v 0.237153h
 0.181345v -1.26042h 0.181345v 0.221459h 0.181345v 0.684614h 0.181345v 0.354344h 0.181345v 0.860744h 0.181345v 0.255242h 0.181345v -1.70201h 0.181345v 2.76857h 0.181345v -0.675401h 0.181345v -1.97778h 0.181345v 0.233476h 0.181345v 2.28218h 0.181345v
 -0.929039h 0.181345v 0.523841h 0.181345v 0.405197h 0.181345v 1.7395h 0.181345v 0.627546h 0.181345v -3.29608h 0.181345v -0.50623h 0.181345v -0.7288h 0.181345v 1.23503h 0.181345v 2.0661h 0.181345v -0.579261h 0.181345v -0.557802h 0.181345v -1.43527h
 0.181345v 1.99307h 0.181345v -4.18944h 0.181345v 2.44736h 0.181345v 0.384504h 0.181345v 1.78992h 0.181345v -0.432343h 0.181345v -0.420276h 0.181345v -2.30159h 0.181345v 4.37176h 0.181345v -5.40281h 0.181345v 3.75292h 0.181345v -1.09568h 0.181345v
 1.23842h 0.181345v 0.734727h 0.181345v -3.83464h 0.36269v 3.98599h 0.181345v -0.151347h 0.181345v 0.458683h 0.181345v -1.0493h 0.181345v 0.741969h 0.181345v -4.21767h 0.181345v 3.91648h 0.181345v -1.00911h 0.181345v -1.20536h 0.181345v 2.0661h
 0.181345v -0.860744h 0.181345v 0.860744h 0.181345v 1.71842h 0.181345v -2.43908h 0.181345v 1.95064h 0.181345v -2.36705h 0.181345v 1.89395h 0.181345v 0.313739h 0.181345v 0.814194h 0.181345v -4.07909h 0.181345v 1.0572h 0.181345v -0.537876h 0.181345v
 2.74557h 0.181345v 0.814194h 0.181345v -3.42708h 0.36269v 2.77224h 0.181345v -3.03644h 0.181345v 0.806921h 0.181345v 2.22952h 0.181345v -3.80231h 0.181345v 4.12617h 0.181345v 0.330979h 0.181345v -1.58662h 0.181345v -0.445124h 0.181345v -1.52802h
 0.181345v 2.12449h 0.181345v 2.47423h 0.181345v -3.64444h 0.181345v 2.60548h 0.181345v -1.58662h 0.181345v 0.931777h 0.181345v -2.77224h 0.181345v 0.962999h 0.181345v -0.557802h 0.181345v 3.3603h 0.181345v -2.07487h 0.181345v -0.44078h 0.181345v
 2.86185h 0.181345v -2.11988h 0.181345v 0.463388h 0.181345v -1.4922h 0.181345v -0.694082h 0.181345v 0.273806h 0.181345v -2.88309h 0.181345v -0.559876h 0.181345v 2.63605h 0.181345v -3.17585h 0.181345v 0.873226h 0.181345v 0.689842h 0.181345v -4.36157h
 0.181345v 0.356441h 0.181345v -0.179275h 0.181345v -1.11599h 0.181345v -1.26887h 0.181345v -1.85796h 0.181345v 0.203045h 0.181345v -1.11599h 0.181345v -2.28514h 0.181345v -0.108338h 0.181345v 1.0043h 0.181345v -2.87959h 0.181345v -1.4958h 0.181345v
 -0.341293h 0.181345v 1.048h 0.181345v -1.00576h 0.181345v -1.79247h 0.181345v 1.4165h 0.181345v 1.29156h 0.181345v 0.36398h 0.181345v -2.69174h 0.181345v 2.37278h 0.181345v -1.66307h 0.181345v -0.240307h 0.181345v 3.77318h 0.181345v -0.502011h
 0.181345v -0.533544h 0.181345v 2.70749h 0.181345v -0.226454h 0.181345v 1.85115h 0.181345v 1.82142h 0.181345v 0.0718804h 0.181345v 1.67494h 0.181345v 0.161925h 0.181345v 4.08994h 0.181345v -0.421256h 0.181345v 3.6222h 0.181345v -0.897393h 0.181345v
 3.32922h 0.181345v 2.71455h 0.181345v 2.63443h 0.181345v -3.3603h 0.181345v 4.5104h 0.181345v -3.9693h 0.181345v 2.38268h 0.181345v -0.213605h 0.181345v 3.30737h 0.181345v 0.266537h 0.181345v -0.266537h 0.181345v 1.97314h 0.181345v -0.298206h
 0.181345v 0.298206h 0.181345v -2.49247h 0.181345v 5.48093h 0.181345v -4.9616h 0.181345v 4.24437h 0.181345v -3.1487h 0.181345v 1.4922h 0.181345v -3.3603h 0.181345v 3.0498h 0.181345v 1.967h 0.181345v 1.08907h 0.181345v -0.734727h 0.181345v -2.01084h
 0.181345v -0.310504h 0.36269v 2.68423h 0.181345v -2.68423h 0.181345v 2.32134h 0.181345v -2.92378h 0.181345v -3.41924h 0.181345v 1.7443h 0.181345v 3.89818h 0.181345v -0.669396h 0.36269v -2.1331h 0.181345v -2.60283h 0.181345v 1.50715h 0.181345v
 1.67494h 0.181345v 0.602437h 0.181345v 0.627546h 0.181345v -2.63839h 0.181345v -0.528437h 0.181345v 1.64442h 0.181345v 3.57908h 0.36269v -4.42373h 0.181345v 1.7395h 0.181345v -1.7395h 0.181345v 4.06084h 0.181345v -4.33218h 0.181345v -1.53274h
 0.181345v 2.64872h 0.181345v 1.5224h 0.181345v -2.09073h 0.181345v 2.09073h 0.181345v 0.993256h 0.181345v -5.16438h 0.181345v 1.0043h 0.181345v 3.49068h 0.181345v 1.01559h 0.181345v -2.86185h 0.36269v 3.57908h 0.181345v -5.98294h 0.181345v 1.83553h
 0.181345v -0.547658h 0.181345v 2.96225h 0.181345v -0.32386h 0.181345v -2.09073h 0.181345v 0.568329h 0.181345v 0.292415h 0.181345v 0.912942h 0.36269v -0.912942h 0.181345v -3.41924h 0.181345v 2.5585h 0.181345v -0.814194h 0.181345v 0.814194h 0.181345v
 -1.83553h 0.181345v 3.60922h 0.181345v -1.20536h 0.181345v 0.292415h 0.36269v -0.860744h 0.181345v 0.281483h 0.181345v -0.557802h 0.181345v 1.43527h 0.181345v -1.70661h 0.181345v 2.96225h 0.181345v -3.22878h 0.181345v 2.90492h 0.181345v -0.627546h
 0.181345v -1.7395h 0.181345v 1.43527h 0.181345v -2.23505h 0.181345v 0.799777h 0.181345v 1.7395h 0.181345v 1.967h 0.181345v -5.26571h 0.181345v 2.99448h 0.181345v 2.27123h 0.181345v -0.684614h 0.181345v -1.28238h 0.181345v 0.951406h 0.181345v
 0.330979h 0.181345v -0.654839h 0.181345v 0.654839h 0.181345v -0.330979h 0.181345v -1.55384h 0.181345v 1.22998h 0.181345v 3.20095h 0.181345v -6.87829h 0.181345v 4.0012h 0.181345v 1.36994h 0.181345v -0.354344h 0.181345v 2.26309h 0.181345v -3.60254h
 0.181345v -1.80924h 0.181345v 4.61903h 0.181345v 2.51565h 0.181345v -6.84784h 0.181345v 1.84626h 0.181345v -2.41459h 0.181345v -0.276318h 0.181345v -0.271339h 0.181345v 7.07775h 0.181345v -4.43936h 0.181345v 2.42852h 0.181345v -3.65851h 0.181345v
 -0.292415h 0.181345v 0.292415h 0.181345v 3.65851h 0.36269v -1.43527h 0.181345v 0.346197h 0.181345v -1.01559h 0.181345v 0.330979h 0.181345v 1.77369h 0.181345v 1.58662h 0.181345v -0.412599h 0.36269v 0.412599h 0.181345v 2.74557h 0.181345v -3.55976h
 0.181345v -2.54611h 0.181345v 1.03896h 0.181345v -1.36994h 0.181345v 4.1155h 0.181345v -1.23842h 0.181345v -2.20769h 0.181345v 6.80641h 0.181345v -6.10587h 0.181345v -0.354344h 0.181345v 7.5762h 0.181345v -7.9224h 0.181345v 1.81653h 0.181345v
 2.97904h 0.181345v -1.34946h 0.181345v 0.886075h 0.181345v 0.463388h 0.36269v -2.58788h 0.181345v 0.401595h 0.181345v 0.412599h 0.181345v -3.3603h 0.181345v 1.40184h 0.181345v 6.29064h 0.181345v -3.90796h 0.181345v -3.44611h 0.181345v 5.27367h
 0.181345v 1.0043h 0.181345v 2.23505h 0.181345v -4.18084h 0.181345v 1.43527h 0.181345v -0.493779h 0.181345v 2.64872h 0.181345v 0.590622h 0.181345v -4.18084h 0.181345v 5.43647h 0.181345v -7.95213h 0.181345v 2.0661h 0.181345v 6.55542h 0.181345v
 -0.669396h 0.181345v -1.25564h 0.181345v 1.92503h 0.181345v -0.669396h 0.181345v 2.10466h 0.181345v -1.43527h 0.181345v -5.16438h 0.181345v 1.53274h 0.181345v 4.33218h 0.181345v 7.22185h 0.181345v -7.9224h 0.181345v -4.6706h 0.181345v 2.74557h
 0.181345v -0.590622h 0.181345v 1.84626h 0.181345v -2.41459h 0.181345v 9.89039h 0.181345v -3.78452h 0.181345v -3.02188h 0.181345v -0.669396h 0.181345v 5.46497h 0.181345v -2.58788h 0.181345v -4.13272h 0.181345v 9.84743h 0.181345v -14.0283h 0.181345v
 6.80641h 0.181345v 7.22185h 0.181345v -10.4381h 0.181345v 6.39828h 0.181345v -5.19293h 0.181345v 3.51799h 0.181345v 6.92006h 0.181345v -2.32134h 0.181345v -6.10587h 0.181345v -3.2162h 0.181345v 4.72335h 0.181345v -2.20769h 0.181345v 3.88263h
 0.181345v 5.24512h 0.181345v -7.69248h 0.181345v 15.8092h 0.181345v -12.4489h 0.181345v 0.971881h 0.181345v 4.6706h 0.181345v -10.4381h 0.181345v 3.88263h 0.181345v -1.67494h 0.181345v 6.92006h 0.181345v -3.3603h 0.181345v -2.74557h 0.181345v
 10.4381h 0.181345v -6.65353h 0.181345v -8.11671h 0.181345v 14.7702h 0.181345v -4.33218h 0.181345v 2.74557h 0.181345v -7.07775h 0.181345v -3.3603h 0.181345v 3.3603h 0.36269v -7.31122h 0.181345v 2.51565h 0.181345v -3.08398h 0.181345v 4.51925h
 0.181345v 4.33218h 0.181345v 2.15494h 0.181345v -6.48713h 0.181345v 3.3603h 0.181345v -1.77369h 0.36269v 3.78452h 0.181345v -10.4381h 0.181345v 2.96225h 0.181345v 1.36994h 0.181345v -5.37114h 0.181345v 2.15494h 0.181345v 3.2162h 0.181345v -8.52931h
 0.181345v 1.27334h 0.181345v -0.436521h 0.181345v 2.32134h 0.36269v -7.99069h 0.181345v 3.28666h 0.181345v 1.14427h 0.181345v -0.391163h 0.181345v -2.80978h 0.181345v 0.32386h 0.181345v -3.49068h 0.181345v 6.36777h 0.181345v -3.20095h 0.181345v
 -3.42425h 0.181345v 2.19426h 0.181345v 0.298206h 0.181345v 4.13272h 0.181345v -5.01019h 0.181345v -0.829141h 0.181345v 2.01084h 0.181345v 4.23009h 0.181345v -6.24093h 0.181345v 4.33218h 0.181345v 3.18209h 0.181345v -5.80766h 0.181345v 5.80766h
 0.181345v -4.87589h 0.181345v -0.317042h 0.181345v 5.19293h 0.181345v -2.0661h 0.181345v 2.0661h 0.181345v 5.88603h 0.181345v -4.0012h 0.181345v -0.971881h 0.181345v 0.971881h 0.181345v 1.58662h 0.181345v -4.33218h 0.36269v 0.424223h 0.181345v
 3.90796h 0.181345v 0.568329h 0.181345v -4.47629h 0.181345v 6.32255h 0.181345v -4.0012h 0.181345v -1.88482h 0.181345v -1.27334h 0.181345v -0.792758h 0.181345v -2.15494h 0.181345v -1.28238h 0.181345v -0.894853h 0.181345v -2.15494h 0.181345v -2.32134h
 0.181345v 0.216679h 0.181345v -0.640902h 0.181345v 0.424223h 0.181345v 0.216679h 0.181345v -3.14046h 0.181345v -1.98868h 0.36269v -1.89395h 0.181345v -0.537876h 0.181345v -1.50715h 0.181345v 3.33045h 0.181345v -5.13067h 0.181345v 2.66097h 0.181345v
 -3.78452h 0.181345v 0.0987474h 0.181345v 0.919135h 0.181345v -2.6045h 0.181345v 0.449553h 0.181345v 1.6374h 0.181345v -3.3603h 0.181345v 0.836822h 0.181345v -0.590622h 0.181345v -1.26887h 0.181345v -0.375554h 0.181345v -0.864865h 0.181345v 2.02085h
 0.181345v -0.856293h 0.181345v -2.75817h 0.181345v 2.60758h 0.181345v -1.01396h 0.181345v -0.617537h 0.181345v 1.11599h 0.181345v -1.18306h 0.181345v -0.782458h 0.181345v -0.126546h 0.181345v 0.0631402h 0.181345v 1.60068h 0.181345v 0.2126h 0.181345v
 -0.142066h 0.181345v -0.892133h 0.181345v -1.09217h 0.181345v 0.893588h 0.181345v 0.672385h 0.181345v 0.0689197h 0.181345v -1.63489h 0.181345v -1.01829h 0.181345v 1.84626h 0.181345v 0.669396h 0.181345v 0.629002h 0.181345v 0.58206h 0.181345v
 0.996628h 0.181345v 0.647795h 0.181345v -1.03896h 0.181345v 0.956444h 0.181345v 1.65076h 0.181345v -1.56824h 0.181345v -0.16458h 0.181345v 3.38078h 0.181345v 0.521122h 0.181345v 0.873226h 0.181345v 1.53675h 0.181345v 0.378068h 0.181345v 1.75774h
 0.181345v -0.836822h 0.181345v 2.82719h 0.181345v 1.55029h 0.181345v -0.358563h 0.181345v 6.28408h 0.181345v 2.63839h 0.181345v 3.20095h 0.181345v -3.20095h 0.181345v 8.34732h 0.181345v -8.97487h 0.181345v 8.97487h 0.181345v 4.51925h 0.181345v
 -6.10587h 0.181345v 8.55323h 0.181345v 5.24512h 0.181345v -8.42721h 0.181345v 5.06691h 0.181345v 9.46617h 0.181345v -7.31122h 0.181345v 11.6434h 0.181345v -10.4381h 0.181345v 4.33218h 0.181345v 16.5439h 0.181345v -7.69248h 0.181345v -2.74557h
 0.181345v 16.5439h 0.181345v -13.7984h 0.181345v 7.69248h 0.181345v 26.982h 0.181345v -37.42h 0.181345v 6.10587h 0.181345v -8.42721h 0.181345v 8.42721h 0.181345v 10.4381h 0.181345v -10.4381h 0.544034v 20.8761h 0.181345v -24.2364h 0.36269v 24.2364h
 0.181345v 10.4381h 0.181345v -34.6745h 0.181345v -10.4381h 0.181345v 24.2364h 0.181345v -16.5439h 0.181345v 6.10587h 0.181345v -3.3603h 0.36269v 3.3603h 0.181345v -10.4381h 0.181345v 10.4381h 0.181345v 20.8761h 0.181345v -20.8761h 0.181345v 20.8761h
 0.181345v 10.4381h 0.181345v -39.7414h 0.181345v 12.7594h 0.181345v -7.69248h 0.181345v 3.3603h 0.181345v 10.4381h 0.181345v -16.5439h 0.181345v 10.4381h 0.181345v -12.7594h 0.181345v 12.7594h 0.181345v -14.7702h 0.181345v 14.7702h 0.181345v
 16.5439h 0.181345v -24.2364h 0.181345v -2.74557h 0.181345v 10.4381h 0.181345v -14.7702h 0.181345v 14.7702h 0.181345v -4.33218h 0.181345v 4.33218h 0.181345v -12.7594h 0.181345v 18.8653h 0.181345v -13.7984h 0.181345v 24.2364h 0.181345v -26.982h
 0.181345v 10.4381h 0.181345v 16.5439h 0.181345v -16.5439h 0.181345v -12.7594h 0.181345v 12.7594h 0.181345v -12.7594h 0.181345v 8.42721h 0.36269v -6.10587h 0.181345v -7.69248h 0.181345v 10.4381h 0.36269v -7.07775h 0.181345v 31.3142h 0.181345v
 -16.5439h 0.181345v -12.7594h 0.36269v -2.01084h 0.181345v 7.07775h 0.181345v -8.85143h 0.181345v 8.85143h 0.181345v -7.07775h 0.181345v 10.4381h 0.181345v -8.42721h 0.36269v 5.06691h 0.181345v -7.07775h 0.181345v 20.8761h 0.181345v -20.8761h
 0.181345v 4.33218h 0.36269v -4.33218h 0.181345v 10.4381h 0.181345v -8.42721h 0.181345v -6.80641h 0.181345v 1.43527h 0.181345v -1.43527h 0.181345v 9.12775h 0.181345v -11.6434h 0.181345v 7.31122h 0.181345v 4.33218h 0.181345v 2.74557h 0.181345v
 -5.06691h 0.181345v -8.11671h 0.181345v 4.33218h 0.181345v -4.33218h 0.181345v 16.5439h 0.181345v -10.4381h 0.181345v -3.3603h 0.181345v -1.43527h 0.181345v 4.79557h 0.181345v 2.01084h 0.181345v 8.42721h 0.181345v -17.7493h 0.181345v 11.6434h
 0.181345v -2.32134h 0.181345v 5.06691h 0.181345v -2.74557h 0.181345v -2.32134h 0.181345v 8.42721h 0.181345v -8.42721h 0.181345v 2.32134h 0.36269v 2.74557h 0.181345v 13.7984h 0.181345v 10.4381h 0.181345v -29.3033h 0.181345v 12.7594h 0.36269v 6.10587h
 0.181345v -6.10587h 0.181345v -23.1974h 0.181345v 29.3033h 0.181345v -6.10587h 0.181345v -4.33218h 0.181345v 10.4381h 0.181345v -20.8761h 0.181345v 10.4381h 0.36269v 10.4381h 0.544034v -13.7984h 0.181345v 7.69248h 0.181345v -10.4381h 0.181345v
 16.5439h 0.181345v -10.4381h 0.181345v 4.33218h 0.181345v -4.33218h 0.181345v -3.3603h 0.36269v 7.69248h 0.181345v 16.5439h 0.181345v -16.5439h 0.181345v -4.33218h 0.181345v 4.33218h 0.181345v 6.10587h 0.36269v -6.10587h 0.181345v -10.4381h
 0.181345v 10.4381h 0.181345v -7.69248h 0.181345v 3.3603h 0.36269v 20.8761h 0.181345v -10.4381h 0.36269v -10.4381h 0.181345v 4.33218h 0.36269v -10.4381h 0.181345v 6.10587h 0.36269v -8.42721h 0.181345v 12.7594h 0.181345v -4.33218h 0.181345v 10.4381h
 0.36269v -13.7984h 0.181345v -2.74557h 0.181345v 2.74557h 0.181345v 3.3603h 0.181345v -8.42721h 0.181345v 5.06691h 0.181345v 24.2364h 0.181345v -10.4381h 0.181345v -16.5439h 0.181345v 10.4381h 0.181345v -7.69248h 0.181345v 13.7984h 0.181345v
 -6.10587h 0.181345v -12.7594h 0.36269v 5.06691h 0.181345v -8.85143h 0.181345v 16.5439h 0.181345v -12.7594h 0.36269v -5.37114h 0.181345v 7.69248h 0.36269v -4.33218h 0.36269v 10.4381h 0.181345v -15.2336h 0.181345v 11.8733h 0.181345v 3.3603h 0.181345v
 -3.3603h 0.181345v -8.85143h 0.181345v 6.10587h 0.181345v 2.74557h 0.181345v 3.3603h 0.181345v -6.10587h 0.181345v 2.74557h 0.181345v -8.85143h 0.181345v 8.85143h 0.36269v -7.07775h 0.181345v 14.7702h 0.181345v -7.69248h 0.181345v -13.1836h
 0.181345v 13.1836h 0.181345v 3.3603h 0.181345v -3.3603h 0.181345v -5.06691h 0.181345v 12.7594h 0.181345v -4.33218h 0.181345v 4.33218h 0.181345v -4.33218h 0.544034v -8.42721h 0.181345v 2.32134h 0.181345v -4.33218h 0.544034v 10.4381h 0.181345v
 -6.10587h 0.181345v -2.32134h 0.181345v 2.32134h 0.181345v 2.74557h 0.181345v 13.7984h 0.181345v -6.10587h 0.181345v -4.33218h 0.181345v -10.4381h 0.181345v 20.8761h 0.181345v -22.6498h 0.181345v 1.77369h 0.181345v 14.7702h 0.181345v -4.33218h
 0.36269v -10.4381h 0.181345v 10.4381h 0.181345v -10.4381h 0.181345v 4.33218h 0.181345v 10.4381h 0.181345v -7.69248h 0.36269v 7.69248h 0.181345v -12.7594h 0.181345v 8.42721h 0.181345v 4.33218h 0.181345v -14.7702h 0.181345v 7.07775h 0.181345v
 -8.85143h 0.181345v 6.10587h 0.181345v -4.33218h 0.181345v 2.01084h 0.181345v -8.11671h 0.181345v 10.4381h 0.181345v 2.74557h 0.181345v 7.69248h 0.36269v 6.10587h 0.181345v -18.8653h 0.181345v -2.01084h 0.181345v -1.77369h 0.36269v 8.85143h
 0.181345v -5.06691h 0.181345v 2.32134h 0.181345v -2.32134h 0.181345v -5.37114h 0.181345v -2.74557h 0.181345v 2.74557h 0.181345v 1.58662h 0.36269v 8.85143h 0.36269v -2.74557h 0.181345v -9.12775h 0.181345v 11.8733h 0.181345v -8.85143h 0.181345v
 6.10587h 0.181345v 2.74557h 0.181345v -5.06691h 0.181345v 12.7594h 0.181345v -14.7702h 0.181345v -1.77369h 0.181345v 1.77369h 0.181345v 4.33218h 0.181345v -4.33218h 0.181345v -1.77369h 0.181345v -3.02188h 0.181345v -7.41617h 0.181345v 10.4381h
 0.181345v 6.10587h 0.181345v -2.32134h 0.181345v -2.01084h 0.181345v -3.3603h 0.36269v -5.06691h 0.181345v 8.42721h 0.181345v -6.10587h 0.181345v -1.20536h 0.181345v 1.20536h 0.181345v 1.3103h 0.181345v 3.02188h 0.36269v 3.78452h 0.36269v -6.80641h
 0.181345v -1.3103h 0.181345v 2.74557h 0.181345v 1.58662h 0.181345v -3.02188h 0.181345v -1.3103h 0.181345v -8.42721h 0.181345v 5.06691h 0.181345v 4.6706h 0.181345v 9.12775h 0.36269v -9.12775h 0.181345v -2.51565h 0.181345v 7.31122h 0.36269v -7.31122h
 0.181345v 2.51565h 0.181345v 1.43527h 0.181345v -3.95092h 0.36269v -3.12683h 0.181345v -0.912942h 0.181345v 9.57731h 0.181345v -6.65353h 0.181345v 2.32134h 0.36269v -6.92006h 0.181345v 8.23036h 0.36269v 1.43527h 0.36269v -5.06691h 0.181345v 1.11599h
 0.181345v -2.15494h 0.181345v -0.971881h 0.36269v 8.66436h 0.181345v -5.53754h 0.181345v 1.20536h 0.181345v -4.33218h 0.181345v -4.09503h 0.181345v 11.1728h 0.181345v 3.3603h 0.181345v -11.351h 0.181345v 1.88482h 0.181345v 7.69248h 0.181345v
 -14.7702h 0.181345v 11.7483h 0.181345v -9.73751h 0.181345v 8.42721h 0.181345v -6.10587h 0.181345v 3.78452h 0.181345v 2.32134h 0.181345v -1.20536h 0.181345v -2.15494h 0.181345v -4.33218h 0.181345v 15.8092h 0.181345v -14.2226h 0.181345v 7.41617h
 0.181345v -2.51565h 0.181345v -5.7147h 0.181345v -1.50715h 0.181345v -1.36994h 0.181345v 4.55202h 0.181345v -5.19293h 0.181345v 4.33218h 0.181345v 1.77369h 0.181345v -0.912942h 0.181345v 0.912942h 0.181345v 2.01084h 0.181345v -6.10587h 0.181345v
 4.09503h 0.181345v 4.33218h 0.181345v -9.79715h 0.181345v -1.84626h 0.181345v 5.53754h 0.181345v 1.77369h 0.181345v -1.77369h 0.181345v -3.02188h 0.181345v 10.4381h 0.181345v -8.23036h 0.181345v -5.83933h 0.181345v 1.70661h 0.181345v -0.590622h
 0.181345v 9.32206h 0.181345v -2.92378h 0.181345v -0.860744h 0.181345v -3.02188h 0.181345v -3.08398h 0.181345v 3.08398h 0.181345v -3.63164h 0.181345v 9.39909h 0.181345v 2.15494h 0.181345v -12.593h 0.181345v 4.6706h 0.181345v -3.63164h 0.181345v
 2.96225h 0.181345v 5.46497h 0.181345v -9.46617h 0.181345v 2.74557h 0.181345v -4.18084h 0.36269v 8.31356h 0.181345v -7.37207h 0.181345v 8.18626h 0.181345v -6.65353h 0.181345v 0.547658h 0.181345v -2.0804h 0.181345v 2.64872h 0.181345v -1.64442h
 0.181345v 5.59535h 0.181345v 1.58662h 0.181345v -4.94692h 0.181345v -1.70661h 0.181345v 0.547658h 0.181345v -0.547658h 0.181345v 0.547658h 0.181345v 4.51925h 0.181345v -0.734727h 0.181345v -4.33218h 0.181345v 2.32134h 0.181345v 2.01084h 0.181345v
 -7.25596h 0.181345v 7.25596h 0.181345v -1.36994h 0.181345v 0.669396h 0.181345v -1.3103h 0.36269v 3.51799h 0.181345v -2.20769h 0.181345v 7.9224h 0.181345v -5.7147h 0.181345v 1.67494h 0.181345v 2.92378h 0.181345v -5.37114h 0.181345v 0.772422h
 0.181345v -7.85017h 0.181345v 9.52511h 0.181345v -0.860744h 0.181345v -5.53754h 0.181345v 2.51565h 0.181345v 5.76745h 0.181345v -5.76745h 0.181345v 5.76745h 0.181345v 9.46617h 0.181345v -13.7984h 0.181345v -0.734727h 0.36269v 12.7594h 0.181345v
 -11.2522h 0.181345v 2.58788h 0.181345v -2.58788h 0.181345v 3.55976h 0.181345v -5.76745h 0.181345v 7.9224h 0.181345v -2.15494h 0.181345v -0.971881h 0.181345v 3.12683h 0.181345v -2.15494h 0.181345v 7.69248h 0.181345v -5.53754h 0.181345v -3.12683h
 0.181345v -1.77369h 0.181345v -0.814194h 0.181345v 2.58788h 0.181345v -4.09503h 0.181345v 0.734727h 0.181345v 0.772422h 0.36269v -1.50715h 0.181345v 9.73751h 0.181345v -4.6706h 0.36269v 4.6706h 0.181345v -2.51565h 0.181345v -3.12683h 0.181345v
 3.12683h 0.181345v -1.11599h 0.181345v -2.01084h 0.181345v -2.58788h 0.181345v 11.2522h 0.181345v -9.57731h 0.181345v 1.88482h 0.181345v -0.971881h 0.181345v -1.77369h 0.181345v 3.78452h 0.181345v -2.01084h 0.181345v 5.64248h 0.181345v -4.6706h
 0.181345v -4.33218h 0.181345v 7.69248h 0.181345v 1.3103h 0.181345v -1.3103h 0.181345v -2.32134h 0.181345v 2.32134h 0.181345v -6.10587h 0.181345v 6.10587h 0.36269v -2.32134h 0.181345v 1.11599h 0.36269v -3.12683h 0.181345v 12.4489h 0.181345v -9.32206h
 0.181345v -4.90051h 0.181345v 6.10587h 0.181345v -3.3603h 0.36269v -0.971881h 0.181345v -6.10587h 0.181345v 2.74557h 0.181345v 7.69248h 0.181345v -4.33218h 0.181345v -5.46497h 0.181345v 12.5427h 0.181345v -5.06691h 0.181345v -2.92378h 0.181345v
 5.24512h 0.36269v -1.20536h 0.181345v 3.95092h 0.181345v 1.58662h 0.181345v -8.66436h 0.36269v 2.01084h 0.181345v -6.10587h 0.181345v -2.62557h 0.181345v 11.0528h 0.181345v -1.20536h 0.181345v -5.7147h 0.181345v 8.23036h 0.181345v -8.23036h
 0.181345v 0.814194h 0.181345v -3.69128h 0.181345v 5.46497h 0.181345v -3.3603h 0.181345v 10.4381h 0.181345v -11.1728h 0.181345v 6.10587h 0.181345v 1.11599h 0.181345v -3.12683h 0.181345v -0.912942h 0.181345v -1.67494h 0.181345v 1.67494h 0.181345v
 -1.67494h 0.181345v 6.92006h 0.181345v -7.69248h 0.181345v 7.69248h 0.181345v -2.32134h 0.181345v -4.59872h 0.181345v 2.58788h 0.181345v 7.07775h 0.181345v -13.7984h 0.181345v 1.25564h 0.181345v 6.43685h 0.181345v -7.07775h 0.181345v 2.74557h
 0.181345v 3.3603h 0.181345v -6.7206h 0.181345v 9.84743h 0.181345v -3.12683h 0.181345v -1.77369h 0.181345v 3.78452h 0.36269v -3.78452h 0.181345v -5.53754h 0.181345v 6.39828h 0.181345v 7.99069h 0.181345v -7.07775h 0.181345v -3.3603h 0.181345v 4.33218h
 0.181345v -5.06691h 0.181345v 1.50715h 0.181345v -0.772422h 0.181345v 4.33218h 0.181345v -0.971881h 0.36269v -0.912942h 0.181345v -1.67494h 0.181345v -1.50715h 0.181345v 3.18209h 0.36269v -1.67494h 0.181345v 2.58788h 0.36269v -0.912942h 0.181345v
 1.88482h 0.181345v -0.971881h 0.181345v -5.46497h 0.181345v 2.10466h 0.181345v 2.44736h 0.181345v -3.18209h 0.181345v 8.42721h 0.181345v -4.33218h 0.181345v -7.31122h 0.181345v 3.95092h 0.181345v -1.43527h 0.181345v 1.43527h 0.181345v 4.33218h
 0.181345v -1.88482h 0.181345v -3.88263h 0.181345v -0.669396h 0.181345v 7.47581h 0.181345v -6.10587h 0.181345v -0.700541h 0.36269v -1.3103h 0.181345v 2.74557h 0.181345v -1.43527h 0.181345v -0.669396h 0.181345v 1.36994h 0.181345v -4.33218h 0.181345v
 9.39909h 0.181345v -9.39909h 0.181345v 5.83933h 0.181345v -3.51799h 0.181345v -2.84978h 0.181345v -1.0043h 0.181345v 4.49498h 0.181345v -1.84626h 0.181345v 1.20536h 0.36269v 3.51799h 0.36269v -0.772422h 0.181345v -2.10466h 0.181345v 2.10466h
 0.181345v -2.74557h 0.181345v 4.33218h 0.181345v -5.53754h 0.181345v 4.72335h 0.181345v -1.50715h 0.181345v -0.700541h 0.181345v 0.700541h 0.181345v -0.700541h 0.181345v 0.700541h 0.181345v 6.10587h 0.181345v -8.11671h 0.181345v 3.51799h 0.181345v
 4.59872h 0.181345v -2.92378h 0.181345v 1.88482h 0.181345v -3.55976h 0.181345v 5.7147h 0.181345v -4.03977h 0.181345v 0.912942h 0.181345v -0.912942h 0.181345v 1.88482h 0.181345v -0.971881h 0.181345v -1.77369h 0.181345v -0.814194h 0.181345v 3.55976h
 0.181345v -0.971881h 0.181345v 12.4489h 0.181345v -9.32206h 0.181345v -5.7147h 0.181345v 5.7147h 0.181345v -1.11599h 0.181345v 3.63164h 0.36269v -11.1074h 0.181345v 6.43685h 0.181345v 3.3603h 0.181345v 1.3103h 0.181345v -1.3103h 0.181345v -1.20536h
 0.181345v -2.15494h 0.181345v -1.88482h 0.181345v 9.57731h 0.181345v -6.65353h 0.181345v 8.42721h 0.181345v -12.2117h 0.36269v 3.78452h 0.181345v -4.59872h 0.181345v 4.59872h 0.181345v 8.42721h 0.181345v -15.2336h 0.181345v 7.9224h 0.181345v
 -5.7147h 0.181345v -3.51799h 0.181345v 11.7483h 0.36269v -2.51565h 0.181345v -5.7147h 0.181345v -4.13272h 0.181345v 7.69248h 0.181345v -5.06691h 0.181345v 12.7594h 0.181345v -6.65353h 0.36269v -2.01084h 0.181345v -1.77369h 0.181345v 1.77369h
 0.181345v -4.09503h 0.181345v 4.09503h 0.181345v 0.971881h 0.181345v 3.3603h 0.181345v -4.33218h 0.181345v 10.4381h 0.181345v -8.42721h 0.181345v -6.10587h 0.181345v 5.06691h 0.181345v 3.3603h 0.181345v 1.3103h 0.36269v -5.64248h 0.181345v
 -0.912942h 0.181345v 9.57731h 0.181345v -12.7594h 0.181345v 9.73751h 0.181345v 1.43527h 0.181345v -2.74557h 0.181345v 2.74557h 0.181345v 1.58662h 0.181345v 6.10587h 0.181345v -11.6434h 0.181345v 11.6434h 0.181345v -2.32134h 0.181345v -6.80641h
 0.181345v -2.51565h 0.181345v 11.6434h 0.181345v -2.32134h 0.181345v -3.78452h 0.181345v -3.02188h 0.181345v 9.12775h 0.181345v -4.33218h 0.181345v -6.10587h 0.181345v 4.33218h 0.181345v -3.02188h 0.181345v 3.02188h 0.181345v -8.66436h 0.181345v
 5.64248h 0.181345v 9.12775h 0.181345v 6.10587h 0.181345v -17.7493h 0.36269v 9.32206h 0.181345v 12.7594h 0.181345v -16.5439h 0.181345v -5.53754h 0.181345v 17.7493h 0.181345v -10.4381h 0.181345v 10.4381h 0.181345v -13.7984h 0.181345v 1.58662h
 0.181345v 12.2117h 0.181345v -3.3603h 0.181345v -10.4381h 0.181345v 7.69248h 0.36269v 2.74557h 0.181345v -8.85143h 0.181345v 1.77369h 0.181345v -7.31122h 0.181345v 14.389h 0.181345v -10.4381h 0.181345v 10.4381h 0.181345v -7.07775h 0.181345v -3.3603h
 0.36269v 18.1305h 0.181345v -14.7702h 0.181345v 14.7702h 0.181345v -12.7594h 0.36269v -3.78452h 0.181345v 3.78452h 0.181345v 2.32134h 0.181345v -9.12775h 0.181345v 9.12775h 0.181345v -2.32134h 0.181345v -3.78452h 0.181345v -3.02188h 0.181345v
 4.79557h 0.181345v 4.33218h 0.181345v -10.4381h 0.181345v 1.3103h 0.181345v 3.02188h 0.181345v -1.58662h 0.181345v 1.58662h 0.181345v 3.78452h 0.181345v -2.01084h 0.181345v -7.31122h 0.181345v 7.31122h 0.181345v 4.33218h 0.181345v -2.32134h
 0.181345v -2.01084h 0.36269v -1.77369h 0.181345v -4.33218h 0.181345v 10.4381h 0.181345v -2.32134h 0.181345v 8.42721h 0.181345v -6.10587h 0.181345v -4.33218h 0.181345v -3.3603h 0.181345v -3.95092h 0.181345v 9.32206h 0.181345v -2.01084h 0.181345v
 -7.31122h 0.181345v 7.31122h 0.181345v -3.3603h 0.181345v 3.3603h 0.181345v -1.77369h 0.181345v 1.77369h 0.181345v -7.31122h 0.181345v 14.389h 0.181345v -10.4381h 0.181345v 7.69248h 0.181345v -10.4381h 0.181345v 16.5439h 0.181345v -10.4381h
 0.181345v 4.33218h 0.36269v 2.74557h 0.181345v -10.4381h 0.181345v 5.37114h 0.36269v 5.06691h 0.181345v -14.389h 0.181345v 2.51565h 0.181345v 4.79557h 0.181345v -6.10587h 0.181345v -3.3603h 0.181345v 7.69248h 0.181345v 6.10587h 0.181345v -4.33218h
 0.181345v -3.3603h 0.181345v -3.95092h 0.181345v 14.389h 0.181345v -10.4381h 0.36269v -2.74557h 0.181345v 1.3103h 0.181345v -5.64248h 0.181345v 5.64248h 0.181345v -3.63164h 0.181345v 15.505h 0.181345v -15.505h 0.181345v 8.42721h 0.181345v -1.77369h
 0.181345v 1.77369h 0.181345v -8.42721h 0.181345v 2.32134h 0.181345v 2.74557h 0.181345v 3.3603h 0.181345v 2.01084h 0.181345v -11.477h 0.181345v 3.3603h 0.181345v -1.20536h 0.181345v 22.0815h 0.181345v -24.2364h 0.181345v 9.46617h 0.181345v -8.42721h
 0.181345v 3.63164h 0.181345v -1.3103h 0.36269v -4.33218h 0.181345v 4.33218h 0.181345v 2.74557h 0.181345v -2.74557h 0.181345v -1.20536h 0.181345v -7.22185h 0.181345v 14.5331h 0.181345v 2.01084h 0.181345v -9.32206h 0.181345v -2.15494h 0.181345v
 -2.74557h 0.181345v 12.2117h 0.181345v -7.31122h 0.181345v 5.53754h 0.36269v -12.0247h 0.181345v 0.772422h 0.181345v 3.55976h 0.181345v 6.10587h 0.181345v -7.99069h 0.181345v 7.99069h 0.181345v -6.10587h 0.181345v -0.971881h 0.181345v 3.12683h
 0.181345v -5.7147h 0.181345v 0.814194h 0.181345v 3.78452h 0.181345v -6.10587h 0.181345v 4.09503h 0.181345v -3.3603h 0.181345v 5.37114h 0.181345v -2.01084h 0.181345v -7.87955h 0.181345v 20.3284h 0.181345v -14.2226h 0.181345v 3.78452h 0.181345v
 -2.92378h 0.181345v -1.67494h 0.181345v 2.58788h 0.181345v -4.79557h 0.181345v 4.79557h 0.181345v -2.58788h 0.181345v -2.20769h 0.181345v 4.79557h 0.181345v 3.12683h 0.36269v -5.7147h 0.181345v 6.92006h 0.181345v -10.4381h 0.181345v 6.10587h
 0.181345v -1.77369h 0.181345v 3.78452h 0.181345v -1.03896h 0.181345v -8.28311h 0.181345v 8.28311h 0.181345v 9.46617h 0.181345v -7.31122h 0.181345v -2.15494h 0.181345v 4.6706h 0.181345v -3.63164h 0.181345v -2.01084h 0.181345v 3.12683h 0.181345v
 5.53754h 0.181345v -3.02188h 0.181345v -4.6706h 0.181345v 7.69248h 0.181345v -6.65353h 0.36269v -5.37114h 0.181345v 9.00278h 0.181345v -2.51565h 0.181345v 1.20536h 0.181345v 2.74557h 0.181345v 1.58662h 0.181345v -5.53754h 0.181345v 3.95092h
 0.181345v 3.3603h 0.181345v 2.01084h 0.181345v -6.80641h 0.181345v 3.02188h 0.181345v 1.77369h 0.181345v -1.77369h 0.181345v 8.85143h 0.181345v -5.06691h 0.181345v 5.06691h 0.36269v 7.69248h 0.181345v -10.4381h 0.181345v -6.10587h 0.181345v 16.5439h
 0.181345v -20.8761h 0.181345v 13.1836h 0.181345v 7.69248h 0.181345v -7.69248h 0.181345v 3.3603h 0.181345v -8.42721h 0.181345v 18.8653h 0.36269v -6.10587h 0.181345v 6.10587h 0.181345v -13.7984h 0.181345v 7.69248h 0.36269v -7.69248h 0.181345v 34.6745h
 0.181345v -10.4381h 0.181345v -10.4381h 0.36269v -18.8653h 0.181345v 12.7594h 0.181345v 16.5439h 0.36269v 10.4381h 0.36269v -20.8761h 0.181345v -6.10587h 0.181345v -4.33218h 0.181345v 4.33218h 0.181345v 16.5439h 0.181345v -10.4381h 0.181345v
 20.8761h 0.36269v -10.4381h 0.181345v -16.5439h 0.36269v 16.5439h 0.181345v 10.4381h 0.36269v -10.4381h 0.181345v 10.4381h 0.36269v -20.8761h 0.36269v 10.4381h 0.181345v -10.4381h 0.181345v 20.8761h 0.36269v -10.4381h 0.181345v -10.4381h 0.181345v
 10.4381h 0.181345v -10.4381h 0.544034v 20.8761h 0.36269v -10.4381h 0.181345v -16.5439h 0.181345v 16.5439h 0.181345v -16.5439h 0.181345v 26.982h 0.181345v -10.4381h 0.181345v 10.4381h 0.181345v -10.4381h 0.181345v 10.4381h 0.181345v -20.8761h
 0.544034v 20.8761h 0.36269v -10.4381h 0.181345v 10.4381h 0.181345v -20.8761h 0.181345v 10.4381h 0.181345v 10.4381h 0.544034v -10.4381h 0.181345v 10.4381h 0.181345v -10.4381h 0.36269v -10.4381h 0.181345v 20.8761h 0.906724v -10.4381h 0.181345v
 10.4381h 1.08807v -10.4381h 0.181345v -10.4381h 0.36269v 20.8761h 0.181345v -20.8761h 0.181345v 20.8761h 0.36269v -10.4381h 0.36269v 10.4381h 0.181345v -20.8761h 0.181345v 10.4381h 0.181345v 10.4381h 0.36269v -20.8761h 0.181345v 20.8761h 0.181345v
 -26.982h 0.181345v 26.982h 0.181345v -10.4381h 0.181345v 10.4381h 0.36269v -10.4381h 0.181345v 10.4381h 0.181345v -10.4381h 0.181345v 10.4381h 0.181345v -10.4381h 0.181345v 10.4381h 0.544034v -34.6745h 0.181345v 34.6745h 0.725379v -10.4381h
 0.181345v -10.4381h 0.181345v 10.4381h 0.36269v -10.4381h 0.181345v 20.8761h 0.725379v -20.8761h 0.181345v -6.10587h 0.181345v 26.982h 0.181345v -20.8761h 0.181345v 20.8761h 0.181345v -26.982h 0.181345v 16.5439h 0.181345v 10.4381h 0.544034v -26.982h
 0.181345v 26.982h 0.181345v -10.4381h 0.36269v 10.4381h 1.6321v -20.8761h 0.181345v 10.4381h 0.181345v 10.4381h 0.36269v -20.8761h 0.36269v -6.10587h 0.181345v 26.982h 0.181345v -10.4381h 0.181345v 10.4381h 0.544034v -10.4381h 0.181345v 10.4381h
 0.181345v -10.4381h 0.181345v 10.4381h 0.181345v -26.982h 0.181345v 6.10587h 0.181345v 10.4381h 0.36269v -16.5439h 0.181345v 6.10587h 0.181345v 10.4381h 0.544034v 10.4381h 0.181345v -26.982h 0.181345v 16.5439h 0.544034v -10.4381h 0.181345v 10.4381h
 0.181345v -10.4381h 0.181345v 20.8761h 0.544034v -20.8761h 0.181345v 10.4381h 0.181345v 10.4381h 0.544034v -10.4381h 0.36269v -10.4381h 0.181345v 20.8761h 0.36269v -20.8761h 0.181345v 20.8761h 0.36269v -10.4381h 0.181345v 10.4381h 0.544034v
 -20.8761h 0.181345v 20.8761h 0.36269v -10.4381h 0.181345v 10.4381h 0.725379v -10.4381h 0.181345v 10.4381h 0.181345v -26.982h 0.181345v 16.5439h 0.181345v 10.4381h 0.181345v -31.3142h 0.181345v 10.4381h 0.181345v 20.8761h 0.181345v -10.4381h
 0.181345v 10.4381h 0.181345v -10.4381h 0.36269v 10.4381h 0.725379v -10.4381h 0.36269v 10.4381h 0.181345v -10.4381h 0.36269v 10.4381h 0.181345v -20.8761h 0.181345v 20.8761h 0.36269v -10.4381h 0.906724v -10.4381h 0.181345v 10.4381h 0.181345v 10.4381h
 1.08807v -26.982h 0.181345v 26.982h 0.725379v -10.4381h 0.181345v 10.4381h 0.544034v -20.8761h 0.181345v 10.4381h 0.544034" fill="none" stroke="black"/>
<path d="M57.1929,280.151h 453.543" fill="none" stroke="black"/>
<path d="M57.1929,272.68v 7.47068" fill="none" stroke="black"/>
<path d="M75.3318,276.415v 3.73534" fill="none" stroke="black"/>
<path d="M93.4707,276.415v 3.73534" fill="none" stroke="black"/>
<path d="M111.61,276.415v 3.73534" fill="none" stroke="black"/>
<path d="M129.749,276.415v 3.73534" fill="none" stroke="black"/>
<path d="M147.887,272.68v 7.47068" fill="none" stroke="black"/>
<path d="M166.026,276.415v 3.73534" fill="none" stroke="black"/>
<path d="M184.165,276.415v 3.73534" fill="none" stroke="black"/>
<path d="M202.304,276.415v 3.73534" fill="none" stroke="black"/>
<path d="M220.443,276.415v 3.73534" fill="none" stroke="black"/>
<path d="M238.582,272.68v 7.47068" fill="none" stroke="black"/>
<path d="M256.721,276.415v 3.73534" fill="none" stroke="black"/>
<path d="M274.86,276.415v 3.73534" fill="none" stroke="black"/>
<path d="M292.999,276.415v 3.73534" fill="none" stroke="black"/>
<path d="M311.138,276.415v 3.73534" fill="none" stroke="black"/>
<path d="M329.277,272.68v 7.47068" fill="none" stroke="black"/>
<path d="M347.415,276.415v 3.73534" fill="none" stroke="black"/>
<path d="M365.554,276.415v 3.73534" fill="none" stroke="black"/>
<path d="M383.693,276.415v 3.73534" fill="none" stroke="black"/>
<path d="M401.832,276.415v 3.73534" fill="none" stroke="black"/>
<path d="M419.971,272.68v 7.47068" fill="none" stroke="black"/>
<path d="M438.11,276.415v 3.73534" fill="none" stroke="black"/>
<path d="M456.249,276.415v 3.73534" fill="none" stroke="black"/>
<path d="M474.388,276.415v 3.73534" fill="none" stroke="black"/>
<path d="M492.527,276.415v 3.73534" fill="none" stroke="black"/>
<path d="M510.666,272.68v 7.47068" fill="none" stroke="black"/>
<path d="M510.666,272.68v 7.47068" fill="none" stroke="black"/>
<text xml:space="preserve" x="54.3523" y="290.27" fill="black" font-size="10.4952" font-family="Helvetica">0</text>
<text xml:space="preserve" x="139.569" y="290.27" fill="black" font-size="10.4952" font-family="Helvetica">500</text>
<text xml:space="preserve" x="227.449" y="290.27" fill="black" font-size="10.4952" font-family="Helvetica">1000</text>
<text xml:space="preserve" x="318.288" y="290.27" fill="black" font-size="10.4952" font-family="Helvetica">1500</text>
<text xml:space="preserve" x="408.831" y="290.27" fill="black" font-size="10.4952" font-family="Helvetica">2000</text>
<text xml:space="preserve" x="499.67" y="290.27" fill="black" font-size="10.4952" font-family="Helvetica">2500</text>
<text xml:space="preserve" x="265.323" y="301.218" fill="black" font-size="10.4952" font-family="Helvetica">Channel</text>
<path d="M57.1929,280.151v -249.023" fill="none" stroke="black"/>
<path d="M63.9961,280.151h -6.80315" fill="none" stroke="black"/>
<path d="M63.9961,277.405h -6.80315" fill="none" stroke="black"/>
<path d="M63.9961,275.084h -6.80315" fill="none" stroke="black"/>
<path d="M63.9961,273.073h -6.80315" fill="none" stroke="black"/>
<path d="M63.9961,271.299h -6.80315" fill="none" stroke="black"/>
<path d="M70.7992,269.712h -13.6063" fill="none" stroke="black"/>
<text xml:space="preserve" x="49.0263" y="273.404" fill="black" font-size="10.4952" font-family="Helvetica">1</text>
<path d="M63.9961,259.274h -6.80315" fill="none" stroke="black"/>
<path d="M63.9961,253.169h -6.80315" fill="none" stroke="black"/>
<path d="M63.9961,248.836h -6.80315" fill="none" stroke="black"/>
<path d="M63.9961,245.476h -6.80315" fill="none" stroke="black"/>
<path d="M63.9961,242.731h -6.80315" fill="none" stroke="black"/>
<path d="M63.9961,240.409h -6.80315" fill="none" stroke="black"/>
<path d="M63.9961,238.398h -6.80315" fill="none" stroke="black"/>
<path d="M63.9961,236.625h -6.80315" fill="none" stroke="black"/>
<path d="M70.7992,235.038h -13.6063" fill="none" stroke="black"/>
<text xml:space="preserve" x="41.629" y="238.785" fill="black" font-size="10.4952" font-family="Helvetica">10</text>
<path d="M63.9961,224.6h -6.80315" fill="none" stroke="black"/>
<path d="M63.9961,218.494h -6.80315" fill="none" stroke="black"/>
<path d="M63.9961,214.162h -6.80315" fill="none" stroke="black"/>
<path d="M63.9961,210.802h -6.80315" fill="none" stroke="black"/>
<path d="M63.9961,208.056h -6.80315" fill="none" stroke="black"/>
<path d="M63.9961,205.735h -6.80315" fill="none" stroke="black"/>
<path d="M63.9961,203.724h -6.80315" fill="none" stroke="black"/>
<path d="M63.9961,201.95h -6.80315" fill="none" stroke="black"/>
<path d="M70.7992,200.364h -13.6063" fill="none" stroke="black"/>
<text xml:space="preserve" x="49.0263" y="200.615" fill="black" font-size="7.16345" font-family="Helvetica">2</text>
<text xml:space="preserve" x="38.0783" y="205.053" fill="black" font-size="10.4952" font-family="Helvetica">10</text>
<path d="M63.9961,189.926h -6.80315" fill="none" stroke="black"/>
<path d="M63.9961,183.82h -6.80315" fill="none" stroke="black"/>
<path d="M63.9961,179.487h -6.80315" fill="none" stroke="black"/>
<path d="M63.9961,176.127h -6.80315" fill="none" stroke="black"/>
<path d="M63.9961,173.382h -6.80315" fill="none" stroke="black"/>
<path d="M63.9961,171.06h -6.80315" fill="none" stroke="black"/>
<path d="M63.9961,169.049h -6.80315" fill="none" stroke="black"/>
<path d="M63.9961,167.276h -6.80315" fill="none" stroke="black"/>
<path d="M70.7992,165.689h -13.6063" fill="none" stroke="black"/>
<text xml:space="preserve" x="49.0263" y="165.404" fill="black" font-size="7.16345" font-family="Helvetica">3</text>
<text xml:space="preserve" x="38.0783" y="170.138" fill="black" font-size="10.4952" font-family="Helvetica">10</text>
<path d="M63.9961,155.251h -6.80315" fill="none" stroke="black"/>
<path d="M63.9961,149.145h -6.80315" fill="none" stroke="black"/>
<path d="M63.9961,144.813h -6.80315" fill="none" stroke="black"/>
<path d="M63.9961,141.453h -6.80315" fill="none" stroke="black"/>
<path d="M63.9961,138.707h -6.80315" fill="none" stroke="black"/>
<path d="M63.9961,136.386h -6.80315" fill="none" stroke="black"/>
<path d="M63.9961,134.375h -6.80315" fill="none" stroke="black"/>
<path d="M63.9961,132.601h -6.80315" fill="none" stroke="black"/>
<path d="M70.7992,131.015h -13.6063" fill="none" stroke="black"/>
<text xml:space="preserve" x="49.0263" y="131.08" fill="black" font-size="7.16345" font-family="Helvetica">4</text>
<text xml:space="preserve" x="38.0783" y="135.519" fill="black" font-size="10.4952" font-family="Helvetica">10</text>
<path d="M63.9961,120.577h -6.80315" fill="none" stroke="black"/>
<path d="M63.9961,114.471h -6.80315" fill="none" stroke="black"/>
<path d="M63.9961,110.139h -6.80315" fill="none" stroke="black"/>
<path d="M63.9961,106.778h -6.80315" fill="none" stroke="black"/>
<path d="M63.9961,104.033h -6.80315" fill="none" stroke="black"/>
<path d="M63.9961,101.711h -6.80315" fill="none" stroke="black"/>
<path d="M63.9961,99.7005h -6.80315" fill="none" stroke="black"/>
<path d="M63.9961,97.9269h -6.80315" fill="none" stroke="black"/>
<path d="M70.7992,96.3402h -13.6063" fill="none" stroke="black"/>
<text xml:space="preserve" x="49.0263" y="96.1649" fill="black" font-size="7.16345" font-family="Helvetica">5</text>
<text xml:space="preserve" x="38.0783" y="100.899" fill="black" font-size="10.4952" font-family="Helvetica">10</text>
<path d="M63.9961,85.9022h -6.80315" fill="none" stroke="black"/>
<path d="M63.9961,79.7963h -6.80315" fill="none" stroke="black"/>
<path d="M63.9961,75.4641h -6.80315" fill="none" stroke="black"/>
<path d="M63.9961,72.1038h -6.80315" fill="none" stroke="black"/>
<path d="M63.9961,69.3583h -6.80315" fill="none" stroke="black"/>
<path d="M63.9961,67.0369h -6.80315" fill="none" stroke="black"/>
<path d="M63.9961,65.0261h -6.80315" fill="none" stroke="black"/>
<path d="M63.9961,63.2524h -6.80315" fill="none" stroke="black"/>
<path d="M70.7992,61.6658h -13.6063" fill="none" stroke="black"/>
<text xml:space="preserve" x="49.0263" y="61.5455" fill="black" font-size="7.16345" font-family="Helvetica">6</text>
<text xml:space="preserve" x="38.0783" y="66.2798" fill="black" font-size="10.4952" font-family="Helvetica">10</text>
<path d="M63.9961,51.2277h -6.80315" fill="none" stroke="black"/>
<path d="M63.9961,45.1219h -6.80315" fill="none" stroke="black"/>
<path d="M63.9961,40.7897h -6.80315" fill="none" stroke="black"/>
<path d="M63.9961,37.4294h -6.80315" fill="none" stroke="black"/>
<path d="M63.9961,34.6838h -6.80315" fill="none" stroke="black"/>
<path d="M63.9961,32.3625h -6.80315" fill="none" stroke="black"/>
<g transform="rotate(-90,26.5385,191.442)">
<text xml:space="preserve" x="26.5385" y="191.442" fill="black" font-size="10.4952" font-family="Helvetica">Counts/Channel</text>
</g>
<text xml:space="preserve" x="404.097" y="61.5455" fill="black" font-size="14.7788" font-family="Helvetica" font-weight="bold"> = 2.4879 MeV</text>
<text xml:space="preserve" x="398.179" y="64.8004" fill="black" font-size="10.0192" font-family="Helvetica" font-weight="bold">p</text>
<text xml:space="preserve" x="389.006" y="61.5455" fill="black" font-size="14.7788" font-family="Helvetica" font-weight="bold">E</text>
<path d="M262.163,164.254v 26.0353" fill="none" stroke="black"/>
<path d="M264.454,190.289l -2.29122, 3.9685l -2.29122, -3.9685z" fill="black"/>
<path d="M264.454,190.289l -2.29122, 3.9685l -2.29122, -3.9685h 4.58243z" fill="none" stroke="black"/>
<text xml:space="preserve" x="266.803" y="162.149" fill="black" font-size="10.4952" font-family="Helvetica" font-weight="bold">_1 	1.369 MeV</text>
<text xml:space="preserve" x="260.293" y="162.149" fill="black" font-size="10.4952" font-family="Times">&#0945;</text>
<path d="M184.528,131.015v 30.7059" fill="none" stroke="black"/>
<path d="M186.819,161.721l -2.29122, 3.9685l -2.29122, -3.9685z" fill="black"/>
<path d="M186.819,161.721l -2.29122, 3.9685l -2.29122, -3.9685h 4.58243z" fill="none" stroke="black"/>
<text xml:space="preserve" x="172.117" y="128.121" fill="black" font-size="10.4952" font-family="Helvetica" font-weight="bold"># p_1 	0.844 MeV</text>
<path d="M210.104,149.145v 12.5754" fill="none" stroke="black"/>
<path d="M212.395,161.721l -2.29122, 3.9685l -2.29122, -3.9685z" fill="black"/>
<path d="M212.395,161.721l -2.29122, 3.9685l -2.29122, -3.9685h 4.58243z" fill="none" stroke="black"/>
<text xml:space="preserve" x="197.564" y="144.691" fill="black" font-size="10.4952" font-family="Helvetica" font-weight="bold"># p_2 	1.015 MeV</text>
<path d="M497.663,269.712h 13.003" fill="none" stroke="black"/>
<path d="M504.164,259.274h 6.50152" fill="none" stroke="black"/>
<path d="M504.164,253.169h 6.50152" fill="none" stroke="black"/>
<path d="M504.164,248.836h 6.50152" fill="none" stroke="black"/>
<path d="M504.164,245.476h 6.50152" fill="none" stroke="black"/>
<path d="M504.164,242.731h 6.50152" fill="none" stroke="black"/>
<path d="M504.164,240.409h 6.50152" fill="none" stroke="black"/>
<path d="M504.164,238.398h 6.50152" fill="none" stroke="black"/>
<path d="M504.164,236.625h 6.50152" fill="none" stroke="black"/>
<path d="M497.663,235.038h 13.003" fill="none" stroke="black"/>
<path d="M504.164,224.6h 6.50152" fill="none" stroke="black"/>
<path d="M504.164,218.494h 6.50152" fill="none" stroke="black"/>
<path d="M504.164,214.162h 6.50152" fill="none" stroke="black"/>
<path d="M504.164,210.802h 6.50152" fill="none" stroke="black"/>
<path d="M504.164,208.056h 6.50152" fill="none" stroke="black"/>
<path d="M504.164,205.735h 6.50152" fill="none" stroke="black"/>
<path d="M504.164,203.724h 6.50152" fill="none" stroke="black"/>
<path d="M504.164,201.95h 6.50152" fill="none" stroke="black"/>
<path d="M497.663,200.364h 13.003" fill="none" stroke="black"/>
<path d="M504.164,189.926h 6.50152" fill="none" stroke="black"/>
<path d="M504.164,183.82h 6.50152" fill="none" stroke="black"/>
<path d="M504.164,179.487h 6.50152" fill="none" stroke="black"/>
<path d="M504.164,176.127h 6.50152" fill="none" stroke="black"/>
<path d="M504.164,173.382h 6.50152" fill="none" stroke="black"/>
<path d="M504.164,171.06h 6.50152" fill="none" stroke="black"/>
<path d="M504.164,169.049h 6.50152" fill="none" stroke="black"/>
<path d="M504.164,167.276h 6.50152" fill="none" stroke="black"/>
<path d="M497.663,165.689h 13.003" fill="none" stroke="black"/>
<path d="M504.164,155.251h 6.50152" fill="none" stroke="black"/>
<path d="M504.164,149.145h 6.50152" fill="none" stroke="black"/>
<path d="M504.164,144.813h 6.50152" fill="none" stroke="black"/>
<path d="M504.164,141.453h 6.50152" fill="none" stroke="black"/>
<path d="M504.164,138.707h 6.50152" fill="none" stroke="black"/>
<path d="M504.164,136.386h 6.50152" fill="none" stroke="black"/>
<path d="M504.164,134.375h 6.50152" fill="none" stroke="black"/>
<path d="M504.164,132.601h 6.50152" fill="none" stroke="black"/>
<path d="M497.663,131.015h 13.003" fill="none" stroke="black"/>
<path d="M504.164,120.577h 6.50152" fill="none" stroke="black"/>
<path d="M504.164,114.471h 6.50152" fill="none" stroke="black"/>
<path d="M504.164,110.139h 6.50152" fill="none" stroke="black"/>
<path d="M504.164,106.778h 6.50152" fill="none" stroke="black"/>
<path d="M504.164,104.033h 6.50152" fill="none" stroke="black"/>
<path d="M504.164,101.711h 6.50152" fill="none" stroke="black"/>
<path d="M504.164,99.7005h 6.50152" fill="none" stroke="black"/>
<path d="M504.164,97.9269h 6.50152" fill="none" stroke="black"/>
<path d="M497.663,96.3402h 13.003" fill="none" stroke="black"/>
<path d="M504.164,85.9022h 6.50152" fill="none" stroke="black"/>
<path d="M504.164,79.7963h 6.50152" fill="none" stroke="black"/>
<path d="M504.164,75.4641h 6.50152" fill="none" stroke="black"/>
<path d="M504.164,72.1038h 6.50152" fill="none" stroke="black"/>
<path d="M504.164,69.3583h 6.50152" fill="none" stroke="black"/>
<path d="M504.164,67.0369h 6.50152" fill="none" stroke="black"/>
<path d="M504.164,65.0261h 6.50152" fill="none" stroke="black"/>
<path d="M504.164,63.2524h 6.50152" fill="none" stroke="black"/>
<path d="M497.663,61.6658h 13.003" fill="none" stroke="black"/>
<path d="M504.164,51.2277h 6.50152" fill="none" stroke="black"/>
<path d="M504.164,45.1219h 6.50152" fill="none" stroke="black"/>
<path d="M504.164,40.7897h 6.50152" fill="none" stroke="black"/>
<path d="M504.164,37.4294h 6.50152" fill="none" stroke="black"/>
<path d="M504.164,34.6838h 6.50152" fill="none" stroke="black"/>
<path d="M504.164,32.3625h 6.50152" fill="none" stroke="black"/>
<path d="M57.1929,39.2001v -7.46952" fill="none" stroke="black"/>
<path d="M75.3318,39.2001v -7.46952" fill="none" stroke="black"/>
<path d="M93.4707,39.2001v -7.46952" fill="none" stroke="black"/>
<path d="M111.61,39.2001v -7.46952" fill="none" stroke="black"/>
<path d="M129.749,39.2001v -7.46952" fill="none" stroke="black"/>
<path d="M147.887,39.2001v -7.46952" fill="none" stroke="black"/>
<path d="M166.026,39.2001v -7.46952" fill="none" stroke="black"/>
<path d="M184.165,39.2001v -7.46952" fill="none" stroke="black"/>
<path d="M202.304,39.2001v -7.46952" fill="none" stroke="black"/>
<path d="M220.443,39.2001v -7.46952" fill="none" stroke="black"/>
<path d="M238.582,39.2001v -7.46952" fill="none" stroke="black"/>
<path d="M256.721,39.2001v -7.46952" fill="none" stroke="black"/>
<path d="M274.86,39.2001v -7.46952" fill="none" stroke="black"/>
<path d="M292.999,39.2001v -7.46952" fill="none" stroke="black"/>
<path d="M311.138,39.2001v -7.46952" fill="none" stroke="black"/>
<path d="M329.277,39.2001v -7.46952" fill="none" stroke="black"/>
<path d="M347.415,39.2001v -7.46952" fill="none" stroke="black"/>
<path d="M365.554,39.2001v -7.46952" fill="none" stroke="black"/>
<path d="M383.693,39.2001v -7.46952" fill="none" stroke="black"/>
<path d="M401.832,39.2001v -7.46952" fill="none" stroke="black"/>
<path d="M419.971,39.2001v -7.46952" fill="none" stroke="black"/>
<path d="M438.11,39.2001v -7.46952" fill="none" stroke="black"/>
<path d="M456.249,39.2001v -7.46952" fill="none" stroke="black"/>
<path d="M474.388,39.2001v -7.46952" fill="none" stroke="black"/>
<path d="M492.527,39.2001v -7.46952" fill="none" stroke="black"/>
<path d="M510.666,39.2001v -7.46952" fill="none" stroke="black"/></svg>
