<?xml version="1.0" standalone="no"?>
<svg width="567.429" height="311.778" viewBox="0 0 567.429 311.778" xmlns="http://www.w3.org/2000/svg" shape-rendering="crispEdges">
<title>
Yields/P1/det-10/run_0104_Fit.svg
</title>
<desc>
Creator: ROOT Version 6.12/06
CreationDate: Mon Apr 15 10:29:02 2019</desc>
<defs>
</defs>
<rect x="0.5" y="0" width="566.929" height="311.278" fill="white"/>
<rect x="57.1929" y="31.1278" width="453.543" height="249.023" fill="white"/>
<rect x="57.1929" y="31.1278" width="453.543" height="249.023" fill="none" stroke="black"/>
<rect x="57.1929" y="31.1278" width="453.543" height="249.023" fill="white"/>
<rect x="57.1929" y="31.1278" width="453.543" height="249.023" fill="none" stroke="black"/>
<path d="M57.1929,40.7703h 0.181345v 239.38h 23.0308v -10.4582h 0.181345v 10.4582h 1.99479v -10.4582h 0.181345v 10.4582h 3.80824v -10.4582h 0.181345v 10.4582h 2.35748v -10.4582h 0.181345v 10.4582h 0.181345v -31.3746h 0.181345v -25.0193h 0.181345v
 -5.87624h 0.181345v -16.0811h 0.181345v -7.5048h 0.181345v -1.54884h 0.181345v -7.297h 0.181345v -0.665754h 0.181345v -2.16995h 0.181345v -0.689069h 0.181345v -1.81697h 0.181345v -1.97486h 0.181345v -1.49508h 0.181345v 0.15899h 0.181345v 0.193026h
 0.181345v -0.256823h 0.181345v -1.10449h 0.181345v -0.637207h 0.181345v -0.336549h 0.181345v 0.139318h 0.181345v -1.18398h 0.181345v 0.182256h 0.181345v 0.696904h 0.181345v -0.853258h 0.181345v 0.0779742h 0.181345v -1.1293h 0.181345v 0.367122h
 0.181345v 0.555139h 0.181345v -1.20966h 0.181345v 0.457611h 0.181345v 0.221705h 0.181345v 0.0248362h 0.181345v 0.225385h 0.181345v -1.89439h 0.181345v 0.893855h 0.181345v -0.849282h 0.181345v 0.522285h 0.181345v 0.44552h 0.181345v -0.0237793h
 0.181345v 0.409436h 0.181345v -1.42027h 0.181345v 1.49369h 0.181345v -0.482857h 0.181345v -0.0947443h 0.181345v -1.67444h 0.181345v 0.691834h 0.181345v 0.818223h 0.36269v 0.0702312h 0.181345v 0.117783h 0.181345v -1.59204h 0.181345v 1.8304h 0.181345v
 -0.0240063h 0.181345v -0.611123h 0.181345v -1.63568h 0.181345v 0.376696h 0.181345v -2.83188h 0.181345v 0.609336h 0.181345v -1.77508h 0.181345v -2.34439h 0.181345v -0.79964h 0.181345v -2.19514h 0.181345v -1.8151h 0.181345v -1.60182h 0.181345v
 -1.03732h 0.181345v -0.550535h 0.181345v -1.45144h 0.181345v 0.646021h 0.181345v -0.185226h 0.181345v 1.54118h 0.181345v 1.56515h 0.181345v 1.51551h 0.181345v 2.53567h 0.181345v 2.9444h 0.181345v 2.77185h 0.181345v 3.24128h 0.181345v 2.31095h
 0.181345v 3.17293h 0.181345v 1.73303h 0.181345v -1.07693h 0.181345v 2.04349h 0.181345v 1.49188h 0.181345v -0.335302h 0.181345v 1.7564h 0.181345v -0.0464961h 0.181345v -0.41214h 0.181345v -0.0451061h 0.181345v 0.364682h 0.181345v -0.409654h 0.181345v
 1.21517h 0.181345v -0.384428h 0.36269v -0.785769h 0.181345v 1.31692h 0.181345v -0.859674h 0.181345v -0.0463533h 0.181345v 1.76554h 0.181345v 0.637615h 0.181345v -1.29925h 0.181345v -0.441631h 0.181345v 1.79525h 0.181345v -0.949907h 0.181345v
 1.50467h 0.181345v -1.55573h 0.181345v -0.938671h 0.181345v -0.0478225h 0.181345v 0.534574h 0.181345v -0.486751h 0.181345v 0.388137h 0.181345v -0.0490666h 0.181345v 1.7099h 0.181345v 1.19854h 0.181345v -1.41642h 0.181345v 0.438954h 0.181345v
 -0.812835h 0.181345v 1.49618h 0.181345v 0.776979h 0.181345v -1.57127h 0.181345v 2.91758h 0.181345v -2.18144h 0.181345v 1.39747h 0.181345v -1.62783h 0.181345v 1.69162h 0.181345v 0.064068h 0.181345v -0.127865h 0.181345v -0.12679h 0.181345v 0.254655h
 0.181345v 0.456259h 0.181345v 0.0663209h 0.181345v -1.33497h 0.181345v -0.59644h 0.181345v -0.289605h 0.181345v 2.76234h 0.181345v -0.0687381h 0.181345v 0.137791h 0.181345v -1.06862h 0.181345v 1.13799h 0.181345v -1.45699h 0.181345v 0.383613h
 0.181345v 1.85827h 0.181345v -0.290162h 0.181345v -0.214017h 0.181345v -1.61091h 0.181345v 1.61091h 0.181345v 0.874911h 0.181345v -1.76877h 0.181345v -0.264708h 0.181345v 2.03347h 0.181345v -1.29405h 0.181345v -0.137164h 0.181345v 1.50646h 0.181345v
 -0.298782h 0.181345v 0.374411h 0.181345v 0.777903h 0.181345v -1.66135h 0.181345v 2.56608h 0.181345v -2.20424h 0.181345v -1.26392h 0.181345v 2.64348h 0.181345v -0.238865h 0.181345v -2.26929h 0.181345v 2.66953h 0.181345v -1.1702h 0.181345v 0.226891h
 0.181345v -0.524201h 0.181345v -1.26983h 0.181345v -0.268238h 0.181345v 1.53807h 0.181345v 0.372562h 0.181345v 1.58968h 0.181345v -0.331617h 0.181345v -2.13722h 0.181345v 0.287399h 0.181345v -1.05063h 0.181345v 0.906248h 0.181345v -0.633155h
 0.181345v 0.208113h 0.181345v -1.71489h 0.181345v -0.730206h 0.181345v 1.82917h 0.181345v -1.22315h 0.181345v -1.24569h 0.181345v 1.81273h 0.181345v -0.873102h 0.181345v -0.594092h 0.181345v 0.962109h 0.181345v 0.505084h 0.181345v -0.933575h
 0.181345v 0.80571h 0.181345v 0.584124h 0.181345v 0.746075h 0.181345v 2.57116h 0.181345v -2.07643h 0.181345v 3.82265h 0.181345v -0.722916h 0.181345v -1.58968h 0.36269v 2.03742h 0.181345v -0.359255h 0.181345v -1.99251h 0.181345v 1.99251h 0.181345v
 2.82203h 0.181345v -3.2594h 0.181345v 1.54185h 0.181345v -0.925933h 0.181345v -2.0931h 0.181345v 2.54896h 0.181345v -0.455865h 0.181345v -0.529457h 0.181345v 0.619535h 0.181345v -0.619535h 0.181345v 1.1716h 0.181345v 1.27029h 0.181345v -1.45656h
 0.181345v -0.634423h 0.181345v 0.268636h 0.181345v 0.181785h 0.36269v -0.361406h 0.181345v 1.11127h 0.181345v -1.63765h 0.181345v -1.16119h 0.181345v 0.98973h 0.181345v 0.344883h 0.181345v 1.46422h 0.181345v -2.06269h 0.181345v 0.33907h 0.181345v
 3.34537h 0.181345v -2.73302h 0.181345v 1.50066h 0.181345v -0.955254h 0.181345v -2.3918h 0.181345v 2.29951h 0.181345v -0.542141h 0.181345v -2.07009h 0.181345v 1.04096h 0.181345v -1.19492h 0.181345v -1.10719h 0.181345v 1.10719h 0.181345v -0.674017h
 0.181345v 0.905551h 0.181345v -2.95685h 0.181345v 1.68946h 0.181345v -0.353365h 0.181345v 1.38922h 0.181345v -2.27102h 0.181345v 1.09282h 0.181345v 2.29045h 0.181345v 0.588464h 0.181345v -2.07888h 0.181345v 1.08371h 0.181345v 0.572512h 0.181345v
 1.39642h 0.181345v 1.84585h 0.181345v -2.29627h 0.181345v 0.450421h 0.181345v 1.04096h 0.181345v -0.482085h 0.36269v 1.28697h 0.181345v -1.38156h 0.181345v 2.78863h 0.181345v -0.8813h 0.181345v -1.42831h 0.181345v -1.12509h 0.181345v 0.273506h
 0.181345v 1.44724h 0.181345v -0.300767h 0.181345v -1.23819h 0.181345v 2.05396h 0.181345v -1.30409h 0.181345v -1.97864h 0.181345v 2.17208h 0.181345v -0.193438h 0.181345v 0.789094h 0.181345v -0.497998h 0.181345v -0.856961h 0.181345v 1.9751h 0.181345v
 -0.920908h 0.181345v -0.197231h 0.181345v 5.21448h 0.181345v -6.79435h 0.181345v 2.28177h 0.181345v 0.416247h 0.181345v 1.20768h 0.181345v -2.42348h 0.181345v 1.11065h 0.181345v -4.26175h 0.181345v 3.95065h 0.36269v -0.6036h 0.181345v 2.34227h
 0.181345v -0.341629h 0.181345v -1.9017h 0.181345v -1.05419h 0.181345v 0.374876h 0.181345v 1.39067h 0.181345v -3.09379h 0.181345v 4.17196h 0.181345v -4.17196h 0.181345v 2.58228h 0.181345v -1.61982h 0.181345v 0.646067h 0.181345v 1.27857h 0.181345v
 -2.8021h 0.181345v 3.32422h 0.181345v -1.51512h 0.181345v -1.02173h 0.181345v 3.41176h 0.181345v -3.5013h 0.181345v -1.44615h 0.181345v 3.86152h 0.181345v -2.14513h 0.181345v 1.83402h 0.36269v -2.97163h 0.181345v 2.66681h 0.181345v -0.973756h
 0.181345v 0.381995h 0.181345v 0.391918h 0.181345v -1.51006h 0.36269v -1.20768h 0.181345v 1.7564h 0.181345v -0.815765h 0.181345v -1.66888h 0.181345v 1.40647h 0.181345v 1.2656h 0.181345v -0.28028h 0.181345v -1.07179h 0.181345v 1.92875h 0.181345v
 0.599601h 0.181345v -1.08169h 0.181345v 0.778907h 0.181345v 1.03383h 0.181345v -2.9985h 0.181345v 2.47274h 0.181345v 0.741313h 0.181345v 0.552735h 0.181345v 0.226891h 0.181345v -0.560956h 0.181345v 2.12525h 0.181345v -2.01472h 0.181345v -3.09815h
 0.181345v 2.02763h 0.181345v -0.90254h 0.181345v 0.90254h 0.181345v 1.52094h 0.181345v -0.450421h 0.181345v 3.61849h 0.181345v -1.60377h 0.181345v -3.98778h 0.181345v 3.12537h 0.181345v -2.63064h 0.181345v 0.407808h 0.181345v 3.60112h 0.181345v
 -0.767351h 0.181345v -0.965961h 0.181345v 0.475251h 0.181345v 1.92875h 0.181345v -2.75086h 0.181345v -0.670687h 0.181345v -0.746554h 0.36269v 1.19035h 0.181345v 0.573757h 0.181345v 2.54179h 0.181345v -0.939111h 0.181345v -1.48526h 0.181345v
 -0.233927h 0.181345v 0.835121h 0.181345v -0.601194h 0.181345v -0.233927h 0.181345v 1.71919h 0.181345v 1.94058h 0.181345v -3.42584h 0.181345v 2.98847h 0.181345v -3.45276h 0.181345v 2.61432h 0.181345v 2.03415h 0.181345v -2.43652h 0.181345v 1.82682h
 0.181345v -1.28791h 0.181345v -0.136544h 0.181345v -0.664776h 0.181345v -1.00624h 0.181345v 2.94681h 0.181345v -1.80994h 0.181345v 0.808478h 0.181345v -0.409654h 0.181345v 1.26392h 0.181345v 2.37473h 0.181345v -1.46918h 0.36269v -0.905551h 0.181345v
 -0.145779h 0.181345v -0.144384h 0.181345v 0.437363h 0.181345v 0.450421h 0.181345v 0.153179h 0.36269v -2.28177h 0.181345v 1.38519h 0.181345v -0.287399h 0.181345v 2.80791h 0.181345v -1.77711h 0.181345v -0.151639h 0.181345v 0.459568h 0.181345v
 -3.94658h 0.181345v 3.79183h 0.181345v -1.18398h 0.181345v 2.98034h 0.181345v -2.69294h 0.181345v 1.20768h 0.181345v -0.311103h 0.181345v -1.04096h 0.181345v 1.04096h 0.181345v -0.896579h 0.181345v 0.441631h 0.181345v -0.870702h 0.181345v 0.141672h
 0.181345v -0.282027h 0.181345v 0.569425h 0.181345v -1.77711h 0.181345v 0.658968h 0.181345v 1.26392h 0.181345v -0.854265h 0.181345v 1.00147h 0.181345v -0.437363h 0.181345v -2.01472h 0.36269v 1.8717h 0.181345v 2.98034h 0.181345v -2.98034h 0.181345v
 -0.421087h 0.181345v 1.15012h 0.181345v -2.08923h 0.181345v 1.50321h 0.181345v 0.144384h 0.181345v 1.68671h 0.181345v -0.479024h 0.181345v -1.63675h 0.181345v 0.284687h 0.181345v 2.32582h 0.181345v -0.494732h 0.181345v -3.3343h 0.181345v 1.07817h
 0.181345v 0.425042h 0.181345v -0.143015h 0.181345v 2.63742h 0.181345v 1.23596h 0.181345v -5.36309h 0.181345v 3.30244h 0.181345v -1.08371h 0.181345v 2.25131h 0.181345v -4.85205h 0.181345v 0.381995h 0.181345v 1.34804h 0.181345v -0.279415h 0.181345v
 -1.94535h 0.181345v 2.08441h 0.181345v -3.6984h 0.181345v 1.85933h 0.181345v -0.606024h 0.36269v -1.25331h 0.181345v -0.536995h 0.181345v 3.28786h 0.181345v -1.49756h 0.181345v -2.20655h 0.181345v 1.85428h 0.181345v -0.344227h 0.181345v -2.30961h
 0.181345v 0.595656h 0.181345v -0.884891h 0.181345v 1.08879h 0.181345v -2.54418h 0.181345v 0.985322h 0.181345v 0.0928494h 0.181345v -0.185131h 0.181345v -0.273506h 0.181345v 0.273506h 0.181345v -1.06548h 0.181345v -1.54675h 0.181345v 1.54675h
 0.181345v -0.170487h 0.181345v 2.2835h 0.181345v -1.32104h 0.181345v 0.365787h 0.181345v -0.0922815h 0.181345v -0.363583h 0.181345v -1.37258h 0.181345v 1.19402h 0.181345v -1.75737h 0.181345v -1.14069h 0.181345v 2.7216h 0.181345v -2.12397h 0.181345v
 0.781936h 0.181345v 4.23391h 0.181345v -1.22402h 0.181345v -2.35379h 0.181345v -0.656102h 0.181345v -1.5977h 0.181345v 2.00441h 0.181345v -2.36112h 0.181345v 0.21301h 0.181345v -0.76676h 0.181345v -1.7922h 0.181345v 0.678919h 0.181345v -0.125734h
 0.181345v -1.54579h 0.181345v -0.931314h 0.181345v -0.522128h 0.36269v -1.69707h 0.181345v -0.803692h 0.181345v -0.301339h 0.181345v 0.60882h 0.181345v -1.1118h 0.181345v -1.45302h 0.181345v 0.533469h 0.181345v -0.230943h 0.181345v 0.386892h
 0.181345v -1.59751h 0.181345v 1.4804h 0.181345v 0.235142h 0.36269v 0.19879h 0.181345v 2.66307h 0.181345v -0.745237h 0.181345v -0.796618h 0.181345v 1.39929h 0.181345v 0.826279h 0.181345v 2.029h 0.181345v 1.88465h 0.181345v 2.07961h 0.181345v
 -0.367122h 0.181345v -0.144384h 0.181345v 2.92429h 0.181345v 0.532572h 0.181345v 1.12509h 0.181345v -2.25613h 0.181345v 1.6831h 0.181345v 1.78883h 0.181345v 1.43804h 0.181345v -1.11814h 0.181345v 3.09973h 0.181345v 0.956119h 0.181345v -2.58545h
 0.181345v 3.75792h 0.181345v -1.86154h 0.181345v -1.5357h 0.181345v 0.245338h 0.181345v -1.63907h 0.181345v 3.61849h 0.181345v -1.73003h 0.181345v 0.906847h 0.181345v 0.823185h 0.181345v -1.21853h 0.181345v -0.884068h 0.181345v 0.884068h 0.181345v
 0.80132h 0.181345v 2.37161h 0.181345v -0.317653h 0.181345v -1.91617h 0.181345v 1.00147h 0.181345v -3.18823h 0.181345v 0.363583h 0.181345v 2.67744h 0.181345v 0.147201h 0.181345v -2.94681h 0.181345v 3.2456h 0.181345v -1.02083h 0.181345v -1.60377h
 0.181345v 2.03284h 0.181345v 2.18144h 0.181345v -5.19596h 0.181345v 2.30603h 0.181345v 2.55831h 0.181345v -1.40819h 0.181345v -1.69389h 0.181345v 1.84402h 0.181345v -2.10873h 0.181345v 0.947539h 0.36269v 0.862405h 0.181345v -0.722051h 0.181345v
 5.16153h 0.181345v -7.01677h 0.181345v 2.87608h 0.181345v 1.42296h 0.181345v -5.49712h 0.181345v 2.49958h 0.181345v 3.67577h 0.181345v -4.07814h 0.181345v 0.956119h 0.181345v 1.32565h 0.181345v -1.74286h 0.181345v 0.417206h 0.181345v -0.55375h
 0.181345v 1.57458h 0.181345v -1.7099h 0.181345v 0.135319h 0.181345v 2.34849h 0.181345v -1.65307h 0.181345v 1.97411h 0.181345v 0.833802h 0.181345v -0.995173h 0.181345v 0.995173h 0.181345v -0.833802h 0.181345v -0.790127h 0.181345v -0.153179h 0.181345v
 1.10642h 0.181345v -0.798492h 0.181345v -2.43652h 0.181345v 1.24081h 0.181345v -1.76113h 0.181345v 0.25792h 0.181345v 2.08923h 0.181345v 1.90839h 0.181345v -1.29869h 0.181345v -1.75982h 0.181345v 4.66703h 0.181345v -4.38762h 0.181345v 0.870702h
 0.36269v 2.78077h 0.181345v -1.04096h 0.181345v -2.75086h 0.181345v 2.91945h 0.181345v -1.60662h 0.181345v -0.887784h 0.181345v 2.1591h 0.181345v 0.16672h 0.181345v 0.168583h 0.181345v 0.517353h 0.181345v -1.65969h 0.181345v -2.05396h 0.181345v
 0.701893h 0.181345v 2.1591h 0.181345v -2.30212h 0.181345v 0.580378h 0.181345v -1.00147h 0.181345v -0.54377h 0.181345v -0.395341h 0.181345v -2.06342h 0.181345v -1.30337h 0.181345v -0.71135h 0.181345v -0.391918h 0.181345v -0.846277h 0.181345v
 -1.56222h 0.181345v -0.880716h 0.181345v -1.19571h 0.181345v -3.0473h 0.181345v 0.721475h 0.181345v -0.780069h 0.181345v 0.355028h 0.181345v -2.479h 0.181345v 1.16119h 0.181345v -2.001h 0.181345v 0.438777h 0.181345v -1.59462h 0.181345v -0.567777h
 0.181345v -0.170487h 0.181345v 0.649511h 0.181345v -1.19066h 0.181345v -0.363583h 0.181345v 1.64299h 0.36269v -1.56295h 0.181345v 1.83238h 0.181345v 1.77711h 0.181345v -1.36371h 0.181345v 2.36468h 0.181345v -0.639869h 0.181345v 1.25125h 0.181345v
 1.61491h 0.181345v 1.7377h 0.181345v -0.556302h 0.181345v 4.3178h 0.181345v 0.937443h 0.181345v -0.846277h 0.181345v 0.943306h 0.181345v 1.64385h 0.181345v 2.59966h 0.181345v 1.77711h 0.181345v -0.287399h 0.181345v 4.82263h 0.36269v -2.84852h
 0.181345v 6.86597h 0.181345v -2.79343h 0.181345v 3.5808h 0.181345v -1.29036h 0.181345v 1.02331h 0.181345v 0.538914h 0.181345v 1.13926h 0.181345v 2.22753h 0.181345v 0.701893h 0.181345v -2.92942h 0.181345v 4.43948h 0.181345v -5.01986h 0.181345v
 7.14845h 0.181345v -3.27506h 0.181345v -2.99422h 0.181345v 3.74878h 0.181345v 0.794288h 0.181345v -2.61432h 0.36269v -2.52051h 0.181345v -1.38519h 0.181345v 3.23501h 0.181345v -1.25806h 0.181345v 1.92875h 0.181345v -1.62393h 0.181345v 2.32582h
 0.181345v 2.32582h 0.181345v -1.96224h 0.181345v -1.73616h 0.36269v -0.953242h 0.181345v 0.628757h 0.36269v 0.324485h 0.181345v 4.12344h 0.181345v -8.13237h 0.181345v 3.05568h 0.36269v 1.62393h 0.181345v -3.9057h 0.181345v 7.35846h 0.181345v
 -5.07669h 0.181345v -1.466h 0.181345v -0.548714h 0.181345v 2.96796h 0.181345v -0.953242h 0.181345v 1.62393h 0.181345v -0.33907h 0.181345v -0.973756h 0.181345v 2.3783h 0.181345v -0.718611h 0.181345v -4.77289h 0.181345v 2.1985h 0.181345v 1.55684h
 0.181345v -1.55684h 0.181345v 0.298782h 0.181345v 1.25806h 0.181345v 0.331617h 0.181345v 1.77711h 0.181345v -1.09117h 0.181345v -4.51497h 0.181345v 3.82904h 0.181345v -2.46884h 0.181345v 2.80791h 0.181345v -2.80791h 0.181345v -0.830741h 0.181345v
 3.98551h 0.181345v 0.718611h 0.181345v -3.87338h 0.181345v -2.1211h 0.181345v 1.29036h 0.181345v 0.548714h 0.181345v 0.862405h 0.181345v 0.914703h 0.181345v -2.05396h 0.181345v 0.846277h 0.181345v 3.2224h 0.181345v 1.11814h 0.181345v -1.82003h
 0.36269v -0.33907h 0.181345v -3.29958h 0.181345v 0.548714h 0.181345v 1.16119h 0.181345v 0.615921h 0.181345v 1.65969h 0.181345v -0.346865h 0.181345v 0.346865h 0.181345v -1.01755h 0.181345v 3.6984h 0.181345v -4.34054h 0.181345v 1.65969h 0.36269v
 2.26745h 0.181345v -1.91243h 0.181345v 4.10293h 0.181345v -5.14389h 0.181345v 4.67961h 0.181345v -3.27506h 0.181345v -1.73616h 0.181345v -2.96796h 0.181345v 2.64348h 0.181345v 0.324485h 0.181345v 3.28501h 0.181345v -3.28501h 0.181345v 1.01755h
 0.181345v -2.57439h 0.181345v 2.22753h 0.181345v 4.34054h 0.181345v -4.34054h 0.181345v 1.06548h 0.181345v -5.23358h 0.181345v 8.97293h 0.181345v -5.47551h 0.181345v 4.12344h 0.181345v -2.75086h 0.181345v 0.363583h 0.181345v -2.99422h 0.181345v
 1.58968h 0.36269v 2.1591h 0.181345v -1.11814h 0.181345v -2.63064h 0.181345v 1.58968h 0.181345v 1.04096h 0.181345v -1.04096h 0.181345v 7.15861h 0.181345v -8.44347h 0.181345v 3.83588h 0.36269v -2.88264h 0.181345v 1.73616h 0.181345v 4.21837h 0.181345v
 -3.46381h 0.181345v 6.70941h 0.181345v -11.8962h 0.181345v 2.6961h 0.181345v 2.49072h 0.181345v 4.47005h 0.181345v -4.47005h 0.181345v 1.20768h 0.181345v -2.32582h 0.181345v -2.32582h 0.181345v 6.90778h 0.181345v -4.93698h 0.181345v 3.99368h
 0.181345v -0.450421h 0.181345v -1.2758h 0.181345v -1.91243h 0.181345v 1.91243h 0.181345v 0.413395h 0.36269v -5.25524h 0.181345v 4.43948h 0.181345v -1.86508h 0.36269v 1.86508h 0.181345v 4.07814h 0.181345v -7.91401h 0.181345v 8.44347h 0.181345v
 -2.01472h 0.181345v 2.01472h 0.181345v -4.20522h 0.181345v -1.91243h 0.181345v 4.58195h 0.36269v -4.58195h 0.181345v 1.51006h 0.181345v 4.07814h 0.181345v -2.83733h 0.181345v 5.69261h 0.181345v -6.93341h 0.181345v 2.59287h 0.181345v -0.914703h
 0.181345v 1.39373h 0.181345v -1.83109h 0.181345v 3.9155h 0.181345v 1.77711h 0.181345v -5.69261h 0.181345v 6.33475h 0.181345v -1.84982h 0.181345v -3.13286h 0.181345v 2.56343h 0.181345v 1.77711h 0.181345v 1.31283h 0.181345v 6.81954h 0.181345v
 -10.4582h 0.181345v 3.63865h 0.181345v 2.21195h 0.181345v -2.88264h 0.181345v 2.88264h 0.181345v -0.773912h 0.181345v -0.736145h 0.181345v 3.18823h 0.181345v -0.862405h 0.36269v 2.75086h 0.36269v -6.44927h 0.181345v -2.41925h 0.181345v 4.52797h
 0.181345v -3.95855h 0.36269v 12.9787h 0.181345v -9.02015h 0.181345v 0.773912h 0.181345v -4.1407h 0.181345v 3.36679h 0.181345v 6.49964h 0.181345v -11.0276h 0.181345v 5.30188h 0.181345v 6.93341h 0.181345v -6.11765h 0.181345v 3.79183h 0.181345v
 -1.04096h 0.181345v 7.70733h 0.181345v -3.02772h 0.181345v -8.24624h 0.181345v 9.68428h 0.181345v -6.11765h 0.181345v 2.1591h 0.181345v -8.60837h 0.181345v 6.44927h 0.181345v 1.04096h 0.181345v 2.32582h 0.181345v 2.75086h 0.181345v -6.11765h
 0.181345v -1.88846h 0.181345v 11.3729h 0.181345v -7.32533h 0.181345v 2.52051h 0.181345v 15.263h 0.181345v -21.8311h 0.181345v 4.04756h 0.181345v 3.95855h 0.181345v -3.95855h 0.181345v 2.52051h 0.181345v -9.02015h 0.181345v 1.58968h 0.181345v
 10.4582h 0.181345v -5.54822h 0.181345v 3.95855h 0.181345v 5.3815h 0.181345v -9.34005h 0.181345v -2.1591h 0.181345v -4.34054h 0.181345v 5.3815h 0.181345v 3.63865h 0.181345v -2.52051h 0.181345v -5.72573h 0.181345v 0.815765h 0.181345v 3.79183h
 0.181345v 2.32582h 0.181345v -6.93341h 0.181345v 2.59287h 0.36269v -0.914703h 0.181345v 0.914703h 0.181345v -4.10293h 0.36269v -0.701893h 0.181345v -1.92875h 0.181345v 12.3869h 0.181345v -11.771h 0.181345v 2.01472h 0.181345v -0.701893h 0.181345v
 -5.65337h 0.181345v 4.98268h 0.181345v 1.37258h 0.181345v -3.79183h 0.181345v -1.58968h 0.181345v 6.11765h 0.181345v -0.736145h 0.181345v 3.18823h 0.181345v -6.98005h 0.181345v -0.548714h 0.181345v -2.479h 0.181345v 6.81954h 0.181345v -1.37258h
 0.181345v -0.642139h 0.181345v -4.34054h 0.181345v 6.35526h 0.181345v -2.01472h 0.181345v 3.52478h 0.181345v 0.815765h 0.181345v -4.34054h 0.181345v -0.615921h 0.181345v 2.63064h 0.181345v -2.63064h 0.181345v 3.36679h 0.181345v 4.34054h 0.181345v
 -1.88846h 0.181345v -2.45208h 0.181345v -6.11765h 0.181345v -1.43804h 0.181345v 14.0553h 0.181345v -11.0276h 0.181345v -1.58968h 0.181345v 1.04096h 0.181345v 1.7099h 0.181345v -1.7099h 0.181345v 3.63865h 0.181345v -5.65337h 0.181345v -3.36679h
 0.181345v 2.01472h 0.181345v -0.425042h 0.181345v -4.95646h 0.181345v 2.63064h 0.181345v -2.63064h 0.181345v -3.95855h 0.181345v 0.712951h 0.181345v -3.65602h 0.181345v -0.56235h 0.181345v 2.38728h 0.181345v -2.20215h 0.181345v -4.34054h 0.181345v
 3.79183h 0.181345v 2.32582h 0.181345v -5.10659h 0.36269v -1.82682h 0.181345v -2.32582h 0.181345v 1.9339h 0.181345v -0.631388h 0.181345v -2.29045h 0.181345v -1.02679h 0.181345v 0.71135h 0.181345v -0.206688h 0.181345v -2.8021h 0.181345v 3.00878h
 0.181345v -2.22141h 0.181345v 0.0900778h 0.181345v -1.21463h 0.181345v -0.572512h 0.181345v -0.474007h 0.181345v 0.554476h 0.181345v -2.10522h 0.181345v 1.01592h 0.181345v 0.53482h 0.181345v -1.05133h 0.181345v -0.777539h 0.181345v -0.607652h
 0.181345v 0.334559h 0.181345v -0.134715h 0.181345v -0.46225h 0.36269v 1.72031h 0.181345v -1.91416h 0.181345v 0.858629h 0.181345v -0.664776h 0.181345v 2.01472h 0.181345v -2.58896h 0.181345v 2.51482h 0.181345v -2.38908h 0.181345v 0.513683h 0.181345v
 -2.46514h 0.181345v 3.54815h 0.181345v -0.752845h 0.181345v -0.524852h 0.181345v 2.52051h 0.181345v -0.887784h 0.181345v 2.40988h 0.181345v -0.497451h 0.181345v -1.40092h 0.181345v 1.9829h 0.181345v 1.05308h 0.181345v 0.841034h 0.181345v 2.39003h
 0.181345v -0.874911h 0.181345v 0.874911h 0.181345v 1.79119h 0.181345v -1.33394h 0.181345v 1.58968h 0.181345v 2.67369h 0.181345v 1.97079h 0.181345v 0.535724h 0.181345v 0.555448h 0.181345v 4.09115h 0.181345v -1.85933h 0.181345v 2.36231h 0.181345v
 7.45374h 0.181345v -2.68085h 0.181345v -1.97079h 0.181345v 5.96447h 0.181345v 0.464282h 0.181345v 9.54349h 0.181345v -6.41063h 0.181345v 2.52051h 0.181345v 6.81954h 0.181345v -6.81954h 0.181345v 3.89012h 0.181345v 0.914703h 0.181345v 17.5496h
 0.181345v -7.09141h 0.181345v 7.09141h 0.181345v -10.4582h 0.181345v 13.825h 0.181345v -6.11765h 0.181345v 6.11765h 0.181345v -12.2353h 0.181345v 8.86851h 0.181345v -7.09141h 0.181345v 31.3746h 0.181345v -10.4582h 0.181345v -13.825h 0.181345v
 13.825h 0.181345v -22.6935h 0.181345v 16.5758h 0.36269v -10.4582h 0.181345v 10.4582h 0.181345v -4.34054h 0.36269v -10.4582h 0.181345v 10.4582h 0.181345v 4.34054h 0.181345v 6.11765h 0.181345v -13.825h 0.181345v 7.70733h 0.181345v -4.34054h 0.181345v
 20.9164h 0.181345v -10.4582h 0.181345v -13.825h 0.181345v -5.07669h 0.181345v 18.9017h 0.181345v -13.825h 0.181345v 7.70733h 0.36269v -7.70733h 0.181345v 7.70733h 0.181345v 6.11765h 0.181345v -10.4582h 0.181345v 4.34054h 0.36269v 6.11765h 0.181345v
 -10.4582h 0.181345v 4.34054h 0.36269v -4.34054h 0.181345v -3.36679h 0.181345v 7.70733h 0.181345v -10.4582h 0.181345v 6.11765h 0.181345v -6.11765h 0.181345v 16.5758h 0.181345v -6.11765h 0.544034v -4.34054h 0.181345v 4.34054h 0.36269v -10.4582h
 0.181345v -6.11765h 0.181345v 8.86851h 0.181345v 3.36679h 0.181345v -6.11765h 0.181345v 10.4582h 0.181345v -14.7987h 0.181345v 10.4582h 0.181345v 4.34054h 0.181345v -4.34054h 0.181345v 4.34054h 0.181345v -10.4582h 0.181345v 10.4582h 0.181345v
 -12.784h 0.181345v 12.784h 0.36269v -10.4582h 0.181345v 2.75086h 0.181345v 3.36679h 0.181345v -6.11765h 0.181345v 6.11765h 0.181345v -10.4582h 0.181345v 14.7987h 0.181345v -7.70733h 0.181345v -13.2091h 0.181345v 8.13237h 0.36269v 2.32582h 0.181345v
 -4.34054h 0.181345v -1.77711h 0.181345v 8.86851h 0.181345v -11.8962h 0.181345v 1.43804h 0.181345v 10.4582h 0.181345v -5.07669h 0.181345v 5.07669h 0.181345v -7.09141h 0.181345v -7.32533h 0.181345v 7.32533h 0.181345v -9.48444h 0.181345v 6.11765h
 0.181345v 7.70733h 0.181345v -7.70733h 0.725379v -3.95855h 0.181345v 17.7835h 0.544034v -16.5758h 0.181345v 13.2091h 0.181345v -5.07669h 0.36269v -3.79183h 0.181345v 16.5758h 0.181345v -4.34054h 0.181345v -6.11765h 0.181345v -2.32582h 0.181345v
 -2.01472h 0.181345v 31.3746h 0.181345v -10.4582h 0.181345v -25.7212h 0.181345v 11.8962h 0.181345v 3.36679h 0.181345v 10.4582h 0.181345v -6.11765h 0.181345v -4.34054h 0.36269v -3.36679h 0.181345v 13.825h 0.181345v -13.825h 0.36269v 24.2832h 0.181345v
 -16.5758h 0.36269v 16.5758h 0.544034v -10.4582h 0.36269v -10.4582h 0.544034v -3.36679h 0.181345v 24.2832h 0.181345v -10.4582h 0.36269v -6.11765h 0.36269v -7.70733h 0.181345v 13.825h 0.181345v -6.11765h 0.36269v 6.11765h 0.181345v -10.4582h 0.181345v
 10.4582h 0.181345v 10.4582h 0.181345v -10.4582h 0.181345v -6.11765h 0.181345v 6.11765h 0.181345v -10.4582h 0.181345v 20.9164h 0.181345v -24.2832h 0.36269v 24.2832h 0.181345v -24.2832h 0.181345v 13.825h 0.181345v 10.4582h 0.181345v -16.5758h
 0.181345v 16.5758h 0.181345v -20.9164h 0.181345v 10.4582h 0.181345v -10.4582h 0.181345v 10.4582h 0.544034v -16.5758h 0.181345v 10.4582h 0.181345v -4.34054h 0.181345v -6.11765h 0.181345v 6.11765h 0.181345v -12.2353h 0.181345v 33.1517h 0.181345v
 -31.3746h 0.181345v 14.7987h 0.181345v 16.5758h 0.181345v -20.9164h 0.181345v 4.34054h 0.181345v -10.4582h 0.181345v 6.11765h 0.181345v -8.44347h 0.181345v 8.44347h 0.181345v -8.44347h 0.181345v 8.44347h 0.181345v -10.4582h 0.181345v 2.01472h
 0.36269v 2.32582h 0.36269v -4.34054h 0.181345v 7.09141h 0.181345v 3.36679h 0.181345v -6.11765h 0.36269v 27.034h 0.181345v -24.2832h 0.181345v -10.4582h 0.181345v 5.3815h 0.181345v 18.9017h 0.181345v -6.11765h 0.181345v -18.1655h 0.181345v 10.4582h
 0.181345v -2.75086h 0.725379v 6.11765h 0.181345v -15.263h 0.181345v 6.81954h 0.181345v 12.784h 0.181345v -18.1655h 0.181345v 3.36679h 0.181345v 7.09141h 0.181345v 7.70733h 0.181345v -12.784h 0.181345v -2.01472h 0.181345v 10.4582h 0.181345v 4.34054h
 0.181345v -14.7987h 0.181345v -1.77711h 0.181345v 6.11765h 0.181345v 6.11765h 0.181345v 10.4582h 0.181345v -13.825h 0.181345v -10.4582h 0.181345v 24.2832h 0.181345v -10.4582h 0.181345v -10.4582h 0.181345v 2.01472h 0.181345v 18.9017h 0.181345v
 -16.5758h 0.181345v 2.75086h 0.181345v 3.36679h 0.181345v -6.11765h 0.181345v 6.11765h 0.181345v -8.44347h 0.181345v 29.3599h 0.181345v -16.5758h 0.181345v -10.4582h 0.181345v 2.75086h 0.181345v 7.70733h 0.181345v -4.34054h 0.36269v 4.34054h
 0.181345v -16.5758h 0.181345v 3.79183h 0.181345v 5.07669h 0.181345v -2.75086h 0.181345v 2.75086h 0.181345v -2.75086h 0.181345v 16.5758h 0.181345v -6.11765h 0.181345v -14.7987h 0.181345v 7.09141h 0.181345v 7.70733h 0.181345v -22.1241h 0.181345v
 3.95855h 0.181345v 1.58968h 0.181345v 16.5758h 0.181345v -10.4582h 0.181345v -6.11765h 0.181345v 12.2353h 0.181345v 4.34054h 0.181345v -14.7987h 0.181345v 7.09141h 0.181345v 3.36679h 0.181345v -10.4582h 0.181345v 2.01472h 0.181345v 12.784h 0.181345v
 -12.784h 0.181345v 5.07669h 0.36269v -10.4582h 0.181345v 13.825h 0.181345v -3.36679h 0.181345v -10.4582h 0.181345v 5.3815h 0.181345v 12.784h 0.181345v -16.5758h 0.181345v -1.58968h 0.181345v 5.3815h 0.181345v -12.4729h 0.181345v 2.01472h 0.181345v
 15.5349h 0.181345v -5.07669h 0.181345v -2.01472h 0.181345v 4.34054h 0.36269v 6.11765h 0.181345v -12.2353h 0.181345v 1.77711h 0.181345v -6.11765h 0.181345v 6.11765h 0.181345v 2.01472h 0.181345v -5.3815h 0.544034v -2.75086h 0.181345v -1.20768h
 0.181345v 28.2417h 0.181345v -18.9017h 0.181345v -3.79183h 0.181345v -1.58968h 0.36269v 1.58968h 0.181345v 1.77711h 0.181345v -4.80482h 0.181345v 11.8962h 0.181345v -16.5758h 0.181345v 6.11765h 0.181345v -2.75086h 0.181345v 4.34054h 0.725379v
 1.77711h 0.181345v -1.77711h 0.181345v -1.58968h 0.181345v 1.58968h 0.181345v 1.77711h 0.181345v -3.36679h 0.181345v 1.58968h 0.181345v -4.34054h 0.181345v 4.34054h 0.181345v -4.34054h 0.181345v -3.36679h 0.181345v 2.1591h 0.181345v -3.13286h
 0.181345v 0.973756h 0.181345v 4.67961h 0.181345v 11.8962h 0.181345v -8.86851h 0.181345v -6.66636h 0.181345v 6.66636h 0.181345v -5.54822h 0.181345v 1.20768h 0.181345v 1.31283h 0.36269v 3.02772h 0.181345v -11.274h 0.181345v 17.3916h 0.181345v
 -7.70733h 0.181345v -11.1943h 0.181345v 6.11765h 0.181345v 3.63865h 0.36269v -6.56807h 0.181345v 8.00611h 0.181345v -6.11765h 0.36269v 3.36679h 0.181345v -1.20768h 0.181345v 2.52051h 0.181345v -2.52051h 0.181345v 3.95855h 0.181345v -10.4582h
 0.181345v 6.49964h 0.181345v 2.52051h 0.181345v -3.63865h 0.181345v -2.01472h 0.181345v -0.914703h 0.181345v 5.25524h 0.181345v -11.6659h 0.181345v 7.32533h 0.181345v 10.4582h 0.181345v -12.2353h 0.181345v 2.75086h 0.181345v 3.36679h 0.181345v
 -4.34054h 0.181345v 4.34054h 0.181345v -1.20768h 0.181345v -1.11814h 0.181345v -2.92942h 0.181345v 2.92942h 0.181345v -4.60759h 0.181345v 5.72573h 0.181345v -4.90997h 0.181345v -1.58968h 0.36269v 6.49964h 0.181345v 9.34005h 0.181345v -8.13237h
 0.181345v -10.4582h 0.181345v -1.20768h 0.181345v 5.54822h 0.181345v -0.815765h 0.181345v 6.93341h 0.181345v -4.34054h 0.181345v -7.32533h 0.181345v 10.4582h 0.181345v -8.60837h 0.181345v 1.37258h 0.181345v -2.01472h 0.181345v 4.34054h 0.181345v
 -0.815765h 0.181345v -0.773912h 0.181345v -1.43804h 0.181345v -1.31283h 0.181345v -5.69261h 0.181345v 7.00543h 0.181345v -3.63865h 0.181345v 0.548714h 0.181345v 6.11765h 0.181345v -0.815765h 0.181345v -4.73246h 0.181345v -1.11814h 0.181345v 2.96796h
 0.181345v 1.37258h 0.181345v -1.37258h 0.181345v -1.25806h 0.181345v 3.36679h 0.181345v 2.45208h 0.181345v -3.89012h 0.181345v -5.65337h 0.181345v 0.973756h 0.181345v 2.1591h 0.181345v 4.73246h 0.181345v -8.3296h 0.181345v 4.1889h 0.181345v 1.92875h
 0.181345v -2.52051h 0.181345v 5.54822h 0.181345v -7.19582h 0.181345v 1.6476h 0.181345v -0.569425h 0.181345v 3.79183h 0.181345v -0.701893h 0.36269v -6.56807h 0.181345v 8.00611h 0.181345v -7.09141h 0.181345v -1.77711h 0.181345v 6.75979h 0.181345v
 4.56081h 0.181345v -5.20295h 0.181345v -2.32582h 0.181345v 17.1246h 0.181345v -20.054h 0.181345v 4.63932h 0.181345v 2.63064h 0.181345v 0.736145h 0.181345v -1.43804h 0.181345v 3.89012h 0.181345v -2.45208h 0.181345v 1.58968h 0.181345v -3.02772h
 0.181345v -1.92875h 0.181345v 4.1407h 0.181345v -0.773912h 0.181345v -2.10873h 0.181345v 14.1566h 0.181345v -6.66636h 0.36269v -6.11765h 0.181345v 1.51006h 0.181345v -3.52478h 0.181345v 5.20295h 0.181345v 1.88846h 0.181345v -5.07669h 0.181345v
 1.51006h 0.181345v 5.72573h 0.181345v 2.52051h 0.181345v -5.65337h 0.181345v -1.77711h 0.181345v 6.11765h 0.181345v -4.34054h 0.181345v 2.01472h 0.181345v 5.07669h 0.181345v -7.09141h 0.181345v 0.973756h 0.181345v -0.973756h 0.181345v -1.77711h
 0.181345v -0.815765h 0.181345v 9.68428h 0.181345v -8.00611h 0.181345v -5.20295h 0.181345v 7.09141h 0.181345v 3.36679h 0.181345v -6.11765h 0.181345v 6.11765h 0.181345v -8.44347h 0.181345v 7.23579h 0.181345v -9.25051h 0.181345v 11.771h 0.181345v
 -9.7563h 0.181345v 3.18823h 0.181345v 8.00611h 0.181345v -6.11765h 0.181345v 2.1591h 0.181345v 5.54822h 0.181345v -5.54822h 0.181345v -1.11814h 0.181345v -1.04096h 0.181345v 4.67961h 0.181345v -4.67961h 0.181345v -0.973756h 0.181345v -4.80482h
 0.181345v 1.43804h 0.181345v -0.736145h 0.181345v 2.32582h 0.181345v -1.58968h 0.181345v 1.58968h 0.181345v 6.11765h 0.181345v -2.32582h 0.181345v 5.07669h 0.181345v -3.95855h 0.181345v -2.1591h 0.181345v 2.1591h 0.181345v 1.20768h 0.181345v
 -7.70733h 0.181345v 15.8397h 0.181345v -2.01472h 0.181345v -13.0511h 0.36269v 5.72573h 0.181345v 1.20768h 0.181345v 1.31283h 0.181345v 3.02772h 0.181345v -10.4582h 0.181345v 12.2353h 0.181345v -1.77711h 0.181345v -9.59579h 0.181345v -4.56081h
 0.181345v 6.44927h 0.181345v 1.04096h 0.181345v 2.32582h 0.181345v -8.44347h 0.181345v -2.01472h 0.181345v 9.25051h 0.36269v -7.93768h 0.181345v 6.81954h 0.181345v 2.32582h 0.181345v 4.34054h 0.181345v -10.4582h 0.181345v 2.75086h 0.181345v
 -2.75086h 0.181345v -3.02772h 0.181345v 9.14536h 0.181345v 2.75086h 0.181345v -5.07669h 0.181345v -2.92942h 0.36269v -3.89012h 0.181345v 11.8962h 0.181345v -9.68428h 0.181345v 0.815765h 0.181345v -3.02772h 0.181345v 2.21195h 0.181345v -1.51006h
 0.544034v 6.11765h 0.181345v -1.04096h 0.181345v 1.04096h 0.181345v -2.01472h 0.181345v 0.973756h 0.36269v -2.75086h 0.181345v 8.86851h 0.181345v -8.00611h 0.181345v -0.862405h 0.181345v -4.34054h 0.181345v 7.09141h 0.181345v -0.973756h 0.181345v
 4.34054h 0.181345v -2.32582h 0.181345v -6.11765h 0.181345v 4.10293h 0.181345v -5.47551h 0.181345v 7.49023h 0.181345v -4.60759h 0.181345v 0.815765h 0.181345v 0.862405h 0.36269v 4.04756h 0.181345v -1.11814h 0.181345v 1.11814h 0.181345v -4.04756h
 0.181345v 2.92942h 0.181345v -1.04096h 0.181345v -2.75086h 0.181345v 8.86851h 0.181345v 3.36679h 0.181345v -15.263h 0.36269v 10.4582h 0.181345v -5.65337h 0.36269v -2.59287h 0.181345v -2.88264h 0.181345v 5.47551h 0.181345v -6.73357h 0.36269v 4.1407h
 0.181345v 3.56663h 0.36269v 2.1591h 0.181345v -4.90997h 0.181345v -6.11765h 0.181345v 8.86851h 0.181345v 1.04096h 0.181345v -3.79183h 0.181345v 3.79183h 0.181345v -4.60759h 0.36269v 1.67817h 0.181345v 1.88846h 0.181345v -9.41723h 0.181345v 10.4582h
 0.181345v -8.13237h 0.181345v 13.2091h 0.181345v -2.75086h 0.181345v -12.2353h 0.181345v -2.08441h 0.181345v 9.97917h 0.181345v -3.36679h 0.181345v 1.58968h 0.181345v 0.862405h 0.181345v -3.18823h 0.181345v 1.51006h 0.181345v -4.73246h 0.181345v
 -1.11814h 0.181345v 4.34054h 0.181345v -3.2224h 0.181345v 4.73246h 0.36269v -2.21195h 0.181345v 2.21195h 0.36269v -4.1407h 0.181345v 5.81887h 0.181345v -5.81887h 0.181345v 2.63064h 0.181345v 1.51006h 0.181345v 0.815765h 0.181345v -1.58968h 0.36269v
 4.34054h 0.181345v -4.34054h 0.181345v -3.36679h 0.181345v 1.92875h 0.181345v 0.701893h 0.36269v 0.736145h 0.181345v 4.34054h 0.181345v -9.94668h 0.181345v 9.94668h 0.181345v 1.04096h 0.181345v -2.92942h 0.181345v -5.20295h 0.181345v 6.11765h
 0.181345v -5.47551h 0.36269v 6.44927h 0.181345v -4.34054h 0.181345v 10.4582h 0.181345v -12.5669h 0.181345v -0.642139h 0.181345v 4.34054h 0.181345v -2.32582h 0.181345v -0.701893h 0.181345v 6.81954h 0.181345v -3.79183h 0.36269v 1.77711h 0.181345v
 3.13286h 0.181345v -5.72573h 0.181345v 9.68428h 0.181345v -11.1943h 0.181345v 3.18823h 0.181345v -0.862405h 0.181345v 22.6935h 0.181345v -23.5093h 0.181345v 0.815765h 0.181345v 0.862405h 0.181345v 6.56807h 0.181345v 1.43804h 0.181345v -5.07669h
 0.181345v -5.3815h 0.181345v 6.49964h 0.181345v -2.1591h 0.181345v 1.04096h 0.181345v 5.07669h 0.181345v -13.2091h 0.181345v 4.34054h 0.181345v 2.75086h 0.181345v -1.88846h 0.181345v 8.00611h 0.181345v -8.86851h 0.181345v 0.862405h 0.181345v
 0.914703h 0.181345v 8.68108h 0.181345v -11.274h 0.181345v -2.21195h 0.181345v 3.02772h 0.181345v 4.90997h 0.181345v -1.11814h 0.181345v -6.11765h 0.181345v 8.44347h 0.181345v -11.0741h 0.181345v 2.63064h 0.181345v 0.736145h 0.181345v 5.3815h
 0.725379v -1.04096h 0.181345v -0.973756h 0.181345v 7.09141h 0.181345v -3.95855h 0.181345v -4.90997h 0.181345v 1.77711h 0.181345v 0.973756h 0.181345v 2.1591h 0.181345v -1.11814h 0.181345v -3.79183h 0.36269v 2.75086h 0.181345v 1.04096h 0.181345v
 2.32582h 0.181345v -1.20768h 0.36269v 2.52051h 0.36269v -4.67961h 0.181345v 1.04096h 0.181345v 1.11814h 0.181345v 2.52051h 0.181345v 3.02772h 0.181345v -5.54822h 0.36269v 9.34005h 0.181345v -10.4582h 0.181345v 6.66636h 0.36269v -7.70733h 0.181345v
 7.70733h 0.181345v -5.54822h 0.181345v 2.52051h 0.181345v 1.43804h 0.181345v 3.36679h 0.181345v -3.36679h 0.181345v 7.70733h 0.181345v -13.825h 0.181345v 7.70733h 0.181345v -3.02772h 0.181345v 6.81954h 0.181345v 2.32582h 0.181345v -2.32582h
 0.181345v 5.07669h 0.181345v -5.07669h 0.181345v 2.32582h 0.181345v -4.34054h 0.36269v -7.32533h 0.181345v 7.32533h 0.36269v 14.7987h 0.181345v -14.7987h 0.181345v 10.4582h 0.181345v -10.4582h 0.181345v 2.01472h 0.181345v 5.07669h 0.544034v
 -2.75086h 0.181345v 2.75086h 0.181345v -5.07669h 0.36269v -9.34005h 0.181345v 9.34005h 0.181345v -2.01472h 0.181345v 10.4582h 0.181345v -8.44347h 0.181345v 2.32582h 0.181345v 2.75086h 0.181345v -11.8962h 0.36269v 4.80482h 0.181345v 10.4582h
 0.181345v -8.44347h 0.181345v 2.32582h 0.181345v -13.825h 0.181345v 13.825h 0.181345v -7.70733h 0.181345v 1.58968h 0.181345v 1.77711h 0.181345v -1.77711h 0.181345v -5.54822h 0.181345v 11.6659h 0.181345v 2.75086h 0.181345v -8.86851h 0.181345v
 1.77711h 0.181345v -1.77711h 0.181345v 1.77711h 0.36269v -6.11765h 0.181345v 13.2091h 0.181345v -8.86851h 0.181345v -5.54822h 0.181345v 17.7835h 0.181345v -8.44347h 0.181345v -9.34005h 0.181345v 3.95855h 0.181345v 7.70733h 0.181345v -4.34054h
 0.181345v 4.34054h 0.181345v 2.75086h 0.181345v -5.07669h 0.181345v -5.3815h 0.181345v 5.3815h 0.544034v -3.79183h 0.181345v 3.79183h 0.181345v -5.3815h 0.181345v -2.75086h 0.181345v -3.36679h 0.181345v 7.70733h 0.181345v 3.79183h 0.181345v 2.32582h
 0.181345v -6.11765h 0.181345v -6.66636h 0.181345v 6.66636h 0.181345v -4.34054h 0.181345v 8.13237h 0.36269v -5.3815h 0.181345v 5.3815h 0.181345v -9.34005h 0.36269v 3.95855h 0.181345v 13.825h 0.181345v -19.9426h 0.181345v -1.88846h 0.181345v 6.56807h
 0.181345v -3.63865h 0.181345v 15.5349h 0.181345v -5.07669h 0.36269v 2.32582h 0.181345v -13.825h 0.181345v 9.48444h 0.181345v -1.77711h 0.181345v 1.77711h 0.181345v -6.11765h 0.181345v 8.13237h 0.181345v -2.01472h 0.181345v 2.01472h 0.181345v
 -3.79183h 0.181345v -1.58968h 0.181345v 13.825h 0.181345v -16.5758h 0.181345v -3.36679h 0.181345v 3.36679h 0.181345v 16.5758h 0.181345v -10.4582h 0.181345v -10.4582h 0.181345v 7.09141h 0.181345v 3.36679h 0.181345v -4.80482h 0.181345v 3.02772h
 0.181345v 1.77711h 0.181345v -1.77711h 0.36269v -4.34054h 0.181345v 1.31283h 0.181345v -2.52051h 0.181345v 7.32533h 0.181345v -6.11765h 0.181345v -5.25524h 0.181345v 4.04756h 0.181345v -2.1591h 0.181345v 9.48444h 0.181345v -8.44347h 0.181345v
 2.32582h 0.181345v 1.31283h 0.181345v -7.43048h 0.181345v 4.90997h 0.36269v 2.52051h 0.181345v -5.65337h 0.181345v 4.34054h 0.181345v -8.44347h 0.181345v 16.5758h 0.181345v -12.4729h 0.181345v 4.34054h 0.181345v -3.36679h 0.36269v -6.44927h
 0.181345v 8.60837h 0.181345v -3.13286h 0.181345v 0.973756h 0.181345v 6.11765h 0.181345v -5.07669h 0.181345v -2.92942h 0.181345v 0.914703h 0.36269v 2.01472h 0.181345v -5.3815h 0.181345v 3.36679h 0.181345v 0.973756h 0.36269v -0.973756h 0.181345v
 2.01472h 0.181345v 2.32582h 0.181345v -6.93341h 0.181345v 0.815765h 0.181345v -4.34054h 0.181345v 11.771h 0.181345v -5.65337h 0.181345v -1.77711h 0.181345v 2.75086h 0.181345v 6.11765h 0.181345v -11.1943h 0.181345v 3.18823h 0.181345v 4.04756h
 0.181345v -2.1591h 0.181345v -5.07669h 0.181345v 11.1943h 0.181345v -8.00611h 0.181345v -0.862405h 0.181345v -1.58968h 0.181345v 7.70733h 0.181345v -6.11765h 0.181345v 10.4582h 0.181345v -1.58968h 0.181345v -11.8962h 0.181345v 5.77858h 0.181345v
 1.04096h 0.181345v 2.32582h 0.181345v 2.75086h 0.181345v 1.58968h 0.36269v -3.02772h 0.181345v -4.67961h 0.181345v 6.11765h 0.181345v -1.43804h 0.181345v -2.52051h 0.181345v 5.54822h 0.181345v 6.11765h 0.181345v -9.14536h 0.181345v -1.31283h
 0.181345v 2.75086h 0.36269v 1.58968h 0.181345v -6.66636h 0.181345v 8.44347h 0.181345v -6.11765h 0.36269v 2.75086h 0.36269v 7.70733h 0.181345v -6.11765h 0.181345v 12.2353h 0.181345v -12.2353h 0.181345v 16.5758h 0.181345v -12.784h 0.36269v -3.79183h
 0.181345v 22.6935h 0.181345v -13.825h 0.181345v 7.70733h 0.181345v -10.4582h 0.181345v -2.32582h 0.181345v 18.9017h 0.181345v -6.11765h 0.181345v 16.5758h 0.181345v -20.9164h 0.36269v 4.34054h 0.181345v 16.5758h 0.181345v -10.4582h 0.181345v
 20.9164h 0.181345v -27.034h 0.181345v -4.34054h 0.181345v -3.36679h 0.181345v 7.70733h 0.181345v 6.11765h 0.181345v -6.11765h 0.181345v -7.70733h 0.36269v 24.2832h 0.181345v -16.5758h 0.181345v -4.34054h 0.181345v 10.4582h 0.36269v 20.9164h
 0.181345v -31.3746h 0.181345v 20.9164h 0.36269v -10.4582h 1.08807v 10.4582h 0.181345v -10.4582h 0.181345v 20.9164h 0.181345v -10.4582h 0.181345v 10.4582h 0.181345v -20.9164h 0.181345v -6.11765h 0.181345v 16.5758h 0.181345v -10.4582h 0.181345v
 10.4582h 0.36269v 10.4582h 0.36269v -10.4582h 0.181345v 10.4582h 0.181345v -10.4582h 0.36269v 10.4582h 0.181345v -20.9164h 0.181345v 20.9164h 0.36269v -10.4582h 0.181345v 10.4582h 0.181345v -10.4582h 0.36269v 10.4582h 0.36269v -10.4582h 0.725379v
 10.4582h 0.181345v -10.4582h 0.36269v 10.4582h 0.36269v -10.4582h 0.36269v -10.4582h 0.181345v 20.9164h 0.36269v -20.9164h 0.181345v 10.4582h 0.725379v 10.4582h 0.181345v -10.4582h 0.181345v -10.4582h 0.181345v 20.9164h 0.181345v -20.9164h 0.181345v
 10.4582h 0.36269v -10.4582h 0.181345v 20.9164h 0.36269v -20.9164h 0.181345v 20.9164h 0.36269v -27.034h 0.181345v 27.034h 0.181345v -10.4582h 0.181345v 10.4582h 0.181345v -20.9164h 0.181345v 10.4582h 1.08807v 10.4582h 0.181345v -10.4582h 0.36269v
 -10.4582h 0.181345v 10.4582h 0.181345v -10.4582h 0.181345v 20.9164h 0.36269v -10.4582h 0.36269v -16.5758h 0.181345v 27.034h 0.181345v -10.4582h 0.181345v 10.4582h 0.181345v -27.034h 0.181345v 16.5758h 0.181345v -10.4582h 0.181345v 20.9164h 0.181345v
 -10.4582h 0.181345v 10.4582h 0.181345v -10.4582h 0.181345v 10.4582h 0.181345v -20.9164h 0.181345v 10.4582h 0.181345v 10.4582h 0.181345v -10.4582h 0.36269v 10.4582h 0.181345v -10.4582h 0.181345v -10.4582h 0.181345v 10.4582h 0.181345v 10.4582h
 0.181345v -10.4582h 0.181345v 10.4582h 0.181345v -10.4582h 0.181345v 10.4582h 0.544034v -10.4582h 0.181345v 10.4582h 0.181345v -10.4582h 0.181345v 10.4582h 0.181345v -10.4582h 0.181345v 10.4582h 0.181345v -10.4582h 0.181345v 10.4582h 0.36269v
 -10.4582h 0.181345v 10.4582h 0.544034v -20.9164h 0.181345v 20.9164h 0.181345v -27.034h 0.181345v 27.034h 0.181345v -10.4582h 0.181345v 10.4582h 0.36269v -10.4582h 0.181345v 10.4582h 0.725379v -10.4582h 0.181345v 10.4582h 0.181345v -10.4582h
 0.181345v 10.4582h 0.36269v -10.4582h 0.544034v 10.4582h 0.181345v -20.9164h 0.36269v 10.4582h 0.36269v 10.4582h 0.181345v -20.9164h 0.181345v 10.4582h 0.181345v 10.4582h 0.181345v -10.4582h 0.181345v 10.4582h 0.181345v -10.4582h 0.725379v -10.4582h
 0.181345v 10.4582h 0.544034v 10.4582h 0.181345v -10.4582h 0.181345v 10.4582h 0.544034v -27.034h 0.181345v 27.034h 0.36269v -10.4582h 0.36269v 10.4582h 0.544034v -10.4582h 0.181345v 10.4582h 0.36269v -10.4582h 0.36269v 10.4582h 0.181345v -10.4582h
 0.544034v 10.4582h 0.544034v -20.9164h 0.181345v 20.9164h 1.08807v -10.4582h 0.181345v 10.4582h 0.181345v -10.4582h 0.181345v -10.4582h 0.181345v 20.9164h 0.36269v -20.9164h 0.181345v 20.9164h 0.181345v -10.4582h 0.36269v 10.4582h 0.36269v -10.4582h
 0.36269v 10.4582h 0.181345v -10.4582h 0.181345v 10.4582h 0.36269v -10.4582h 0.181345v 10.4582h 0.906724v -10.4582h 0.181345v 10.4582h 0.36269v -10.4582h 0.181345v -10.4582h 0.181345v 20.9164h 0.36269v -20.9164h 0.181345v 10.4582h 0.181345v 10.4582h
 0.544034v -10.4582h 0.181345v 10.4582h 0.544034v -10.4582h 0.181345" fill="none" stroke="black"/>
<path d="M57.1929,280.151h 453.543" fill="none" stroke="black"/>
<path d="M57.1929,272.68v 7.47068" fill="none" stroke="black"/>
<path d="M75.3318,276.415v 3.73534" fill="none" stroke="black"/>
<path d="M93.4707,276.415v 3.73534" fill="none" stroke="black"/>
<path d="M111.61,276.415v 3.73534" fill="none" stroke="black"/>
<path d="M129.749,276.415v 3.73534" fill="none" stroke="black"/>
<path d="M147.887,272.68v 7.47068" fill="none" stroke="black"/>
<path d="M166.026,276.415v 3.73534" fill="none" stroke="black"/>
<path d="M184.165,276.415v 3.73534" fill="none" stroke="black"/>
<path d="M202.304,276.415v 3.73534" fill="none" stroke="black"/>
<path d="M220.443,276.415v 3.73534" fill="none" stroke="black"/>
<path d="M238.582,272.68v 7.47068" fill="none" stroke="black"/>
<path d="M256.721,276.415v 3.73534" fill="none" stroke="black"/>
<path d="M274.86,276.415v 3.73534" fill="none" stroke="black"/>
<path d="M292.999,276.415v 3.73534" fill="none" stroke="black"/>
<path d="M311.138,276.415v 3.73534" fill="none" stroke="black"/>
<path d="M329.277,272.68v 7.47068" fill="none" stroke="black"/>
<path d="M347.415,276.415v 3.73534" fill="none" stroke="black"/>
<path d="M365.554,276.415v 3.73534" fill="none" stroke="black"/>
<path d="M383.693,276.415v 3.73534" fill="none" stroke="black"/>
<path d="M401.832,276.415v 3.73534" fill="none" stroke="black"/>
<path d="M419.971,272.68v 7.47068" fill="none" stroke="black"/>
<path d="M438.11,276.415v 3.73534" fill="none" stroke="black"/>
<path d="M456.249,276.415v 3.73534" fill="none" stroke="black"/>
<path d="M474.388,276.415v 3.73534" fill="none" stroke="black"/>
<path d="M492.527,276.415v 3.73534" fill="none" stroke="black"/>
<path d="M510.666,272.68v 7.47068" fill="none" stroke="black"/>
<path d="M510.666,272.68v 7.47068" fill="none" stroke="black"/>
<text xml:space="preserve" x="54.3523" y="290.27" fill="black" font-size="10.4952" font-family="Helvetica">0</text>
<text xml:space="preserve" x="139.569" y="290.27" fill="black" font-size="10.4952" font-family="Helvetica">500</text>
<text xml:space="preserve" x="227.449" y="290.27" fill="black" font-size="10.4952" font-family="Helvetica">1000</text>
<text xml:space="preserve" x="318.288" y="290.27" fill="black" font-size="10.4952" font-family="Helvetica">1500</text>
<text xml:space="preserve" x="408.831" y="290.27" fill="black" font-size="10.4952" font-family="Helvetica">2000</text>
<text xml:space="preserve" x="499.67" y="290.27" fill="black" font-size="10.4952" font-family="Helvetica">2500</text>
<text xml:space="preserve" x="265.323" y="301.218" fill="black" font-size="10.4952" font-family="Helvetica">Channel</text>
<path d="M57.1929,280.151v -249.023" fill="none" stroke="black"/>
<path d="M63.9961,280.151h -6.80315" fill="none" stroke="black"/>
<path d="M63.9961,277.4h -6.80315" fill="none" stroke="black"/>
<path d="M63.9961,275.074h -6.80315" fill="none" stroke="black"/>
<path d="M63.9961,273.059h -6.80315" fill="none" stroke="black"/>
<path d="M63.9961,271.282h -6.80315" fill="none" stroke="black"/>
<path d="M70.7992,269.692h -13.6063" fill="none" stroke="black"/>
<text xml:space="preserve" x="49.0263" y="273.404" fill="black" font-size="10.4952" font-family="Helvetica">1</text>
<path d="M63.9961,259.234h -6.80315" fill="none" stroke="black"/>
<path d="M63.9961,253.117h -6.80315" fill="none" stroke="black"/>
<path d="M63.9961,248.776h -6.80315" fill="none" stroke="black"/>
<path d="M63.9961,245.409h -6.80315" fill="none" stroke="black"/>
<path d="M63.9961,242.658h -6.80315" fill="none" stroke="black"/>
<path d="M63.9961,240.333h -6.80315" fill="none" stroke="black"/>
<path d="M63.9961,238.318h -6.80315" fill="none" stroke="black"/>
<path d="M63.9961,236.541h -6.80315" fill="none" stroke="black"/>
<path d="M70.7992,234.951h -13.6063" fill="none" stroke="black"/>
<text xml:space="preserve" x="41.629" y="238.785" fill="black" font-size="10.4952" font-family="Helvetica">10</text>
<path d="M63.9961,224.493h -6.80315" fill="none" stroke="black"/>
<path d="M63.9961,218.375h -6.80315" fill="none" stroke="black"/>
<path d="M63.9961,214.035h -6.80315" fill="none" stroke="black"/>
<path d="M63.9961,210.668h -6.80315" fill="none" stroke="black"/>
<path d="M63.9961,207.917h -6.80315" fill="none" stroke="black"/>
<path d="M63.9961,205.591h -6.80315" fill="none" stroke="black"/>
<path d="M63.9961,203.576h -6.80315" fill="none" stroke="black"/>
<path d="M63.9961,201.799h -6.80315" fill="none" stroke="black"/>
<path d="M70.7992,200.21h -13.6063" fill="none" stroke="black"/>
<text xml:space="preserve" x="49.0263" y="200.319" fill="black" font-size="7.16345" font-family="Helvetica">2</text>
<text xml:space="preserve" x="38.0783" y="204.757" fill="black" font-size="10.4952" font-family="Helvetica">10</text>
<path d="M63.9961,189.751h -6.80315" fill="none" stroke="black"/>
<path d="M63.9961,183.634h -6.80315" fill="none" stroke="black"/>
<path d="M63.9961,179.293h -6.80315" fill="none" stroke="black"/>
<path d="M63.9961,175.926h -6.80315" fill="none" stroke="black"/>
<path d="M63.9961,173.176h -6.80315" fill="none" stroke="black"/>
<path d="M63.9961,170.85h -6.80315" fill="none" stroke="black"/>
<path d="M63.9961,168.835h -6.80315" fill="none" stroke="black"/>
<path d="M63.9961,167.058h -6.80315" fill="none" stroke="black"/>
<path d="M70.7992,165.468h -13.6063" fill="none" stroke="black"/>
<text xml:space="preserve" x="49.0263" y="165.404" fill="black" font-size="7.16345" font-family="Helvetica">3</text>
<text xml:space="preserve" x="38.0783" y="170.138" fill="black" font-size="10.4952" font-family="Helvetica">10</text>
<path d="M63.9961,155.01h -6.80315" fill="none" stroke="black"/>
<path d="M63.9961,148.892h -6.80315" fill="none" stroke="black"/>
<path d="M63.9961,144.552h -6.80315" fill="none" stroke="black"/>
<path d="M63.9961,141.185h -6.80315" fill="none" stroke="black"/>
<path d="M63.9961,138.434h -6.80315" fill="none" stroke="black"/>
<path d="M63.9961,136.108h -6.80315" fill="none" stroke="black"/>
<path d="M63.9961,134.094h -6.80315" fill="none" stroke="black"/>
<path d="M63.9961,132.317h -6.80315" fill="none" stroke="black"/>
<path d="M70.7992,130.727h -13.6063" fill="none" stroke="black"/>
<text xml:space="preserve" x="49.0263" y="130.784" fill="black" font-size="7.16345" font-family="Helvetica">4</text>
<text xml:space="preserve" x="38.0783" y="135.223" fill="black" font-size="10.4952" font-family="Helvetica">10</text>
<path d="M63.9961,120.269h -6.80315" fill="none" stroke="black"/>
<path d="M63.9961,114.151h -6.80315" fill="none" stroke="black"/>
<path d="M63.9961,109.811h -6.80315" fill="none" stroke="black"/>
<path d="M63.9961,106.444h -6.80315" fill="none" stroke="black"/>
<path d="M63.9961,103.693h -6.80315" fill="none" stroke="black"/>
<path d="M63.9961,101.367h -6.80315" fill="none" stroke="black"/>
<path d="M63.9961,99.3524h -6.80315" fill="none" stroke="black"/>
<path d="M63.9961,97.5753h -6.80315" fill="none" stroke="black"/>
<path d="M70.7992,95.9856h -13.6063" fill="none" stroke="black"/>
<text xml:space="preserve" x="49.0263" y="95.869" fill="black" font-size="7.16345" font-family="Helvetica">5</text>
<text xml:space="preserve" x="38.0783" y="100.603" fill="black" font-size="10.4952" font-family="Helvetica">10</text>
<path d="M63.9961,85.5274h -6.80315" fill="none" stroke="black"/>
<path d="M63.9961,79.4097h -6.80315" fill="none" stroke="black"/>
<path d="M63.9961,75.0692h -6.80315" fill="none" stroke="black"/>
<path d="M63.9961,71.7024h -6.80315" fill="none" stroke="black"/>
<path d="M63.9961,68.9516h -6.80315" fill="none" stroke="black"/>
<path d="M63.9961,66.6257h -6.80315" fill="none" stroke="black"/>
<path d="M63.9961,64.611h -6.80315" fill="none" stroke="black"/>
<path d="M63.9961,62.8339h -6.80315" fill="none" stroke="black"/>
<path d="M70.7992,61.2442h -13.6063" fill="none" stroke="black"/>
<text xml:space="preserve" x="49.0263" y="60.9538" fill="black" font-size="7.16345" font-family="Helvetica">6</text>
<text xml:space="preserve" x="38.0783" y="65.688" fill="black" font-size="10.4952" font-family="Helvetica">10</text>
<path d="M63.9961,50.786h -6.80315" fill="none" stroke="black"/>
<path d="M63.9961,44.6684h -6.80315" fill="none" stroke="black"/>
<path d="M63.9961,40.3279h -6.80315" fill="none" stroke="black"/>
<path d="M63.9961,36.9611h -6.80315" fill="none" stroke="black"/>
<path d="M63.9961,34.2102h -6.80315" fill="none" stroke="black"/>
<path d="M63.9961,31.8844h -6.80315" fill="none" stroke="black"/>
<g transform="rotate(-90,26.5385,191.442)">
<text xml:space="preserve" x="26.5385" y="191.442" fill="black" font-size="10.4952" font-family="Helvetica">Counts/Channel</text>
</g>
<text xml:space="preserve" x="404.097" y="60.9538" fill="black" font-size="14.7788" font-family="Helvetica" font-weight="bold"> = 2.4879 MeV</text>
<text xml:space="preserve" x="398.179" y="64.2086" fill="black" font-size="10.0192" font-family="Helvetica" font-weight="bold">p</text>
<text xml:space="preserve" x="389.006" y="60.9538" fill="black" font-size="14.7788" font-family="Helvetica" font-weight="bold">E</text>
<path d="M262.163,164.03v 26.0932" fill="none" stroke="black"/>
<path d="M264.454,190.124l -2.29122, 3.9685l -2.29122, -3.9685z" fill="black"/>
<path d="M264.454,190.124l -2.29122, 3.9685l -2.29122, -3.9685h 4.58243z" fill="none" stroke="black"/>
<text xml:space="preserve" x="266.803" y="161.853" fill="black" font-size="10.4952" font-family="Helvetica" font-weight="bold">_1 	1.369 MeV</text>
<text xml:space="preserve" x="260.293" y="161.853" fill="black" font-size="10.4952" font-family="Times">&#0945;</text>
<path d="M184.528,130.727v 30.7729" fill="none" stroke="black"/>
<path d="M186.819,161.5l -2.29122, 3.9685l -2.29122, -3.9685z" fill="black"/>
<path d="M186.819,161.5l -2.29122, 3.9685l -2.29122, -3.9685h 4.58243z" fill="none" stroke="black"/>
<text xml:space="preserve" x="172.117" y="127.825" fill="black" font-size="10.4952" font-family="Helvetica" font-weight="bold"># p_1 	0.844 MeV</text>
<path d="M210.104,148.892v 12.6073" fill="none" stroke="black"/>
<path d="M212.395,161.5l -2.29122, 3.9685l -2.29122, -3.9685z" fill="black"/>
<path d="M212.395,161.5l -2.29122, 3.9685l -2.29122, -3.9685h 4.58243z" fill="none" stroke="black"/>
<text xml:space="preserve" x="197.564" y="144.395" fill="black" font-size="10.4952" font-family="Helvetica" font-weight="bold"># p_2 	1.015 MeV</text>
<path d="M497.637,269.692h 13.0281" fill="none" stroke="black"/>
<path d="M504.152,259.234h 6.51407" fill="none" stroke="black"/>
<path d="M504.152,253.117h 6.51407" fill="none" stroke="black"/>
<path d="M504.152,248.776h 6.51407" fill="none" stroke="black"/>
<path d="M504.152,245.409h 6.51407" fill="none" stroke="black"/>
<path d="M504.152,242.658h 6.51407" fill="none" stroke="black"/>
<path d="M504.152,240.332h 6.51407" fill="none" stroke="black"/>
<path d="M504.152,238.318h 6.51407" fill="none" stroke="black"/>
<path d="M504.152,236.541h 6.51407" fill="none" stroke="black"/>
<path d="M497.637,234.951h 13.0281" fill="none" stroke="black"/>
<path d="M504.152,224.493h 6.51407" fill="none" stroke="black"/>
<path d="M504.152,218.375h 6.51407" fill="none" stroke="black"/>
<path d="M504.152,214.035h 6.51407" fill="none" stroke="black"/>
<path d="M504.152,210.668h 6.51407" fill="none" stroke="black"/>
<path d="M504.152,207.917h 6.51407" fill="none" stroke="black"/>
<path d="M504.152,205.591h 6.51407" fill="none" stroke="black"/>
<path d="M504.152,203.576h 6.51407" fill="none" stroke="black"/>
<path d="M504.152,201.799h 6.51407" fill="none" stroke="black"/>
<path d="M497.637,200.21h 13.0281" fill="none" stroke="black"/>
<path d="M504.152,189.751h 6.51407" fill="none" stroke="black"/>
<path d="M504.152,183.634h 6.51407" fill="none" stroke="black"/>
<path d="M504.152,179.293h 6.51407" fill="none" stroke="black"/>
<path d="M504.152,175.926h 6.51407" fill="none" stroke="black"/>
<path d="M504.152,173.176h 6.51407" fill="none" stroke="black"/>
<path d="M504.152,170.85h 6.51407" fill="none" stroke="black"/>
<path d="M504.152,168.835h 6.51407" fill="none" stroke="black"/>
<path d="M504.152,167.058h 6.51407" fill="none" stroke="black"/>
<path d="M497.637,165.468h 13.0281" fill="none" stroke="black"/>
<path d="M504.152,155.01h 6.51407" fill="none" stroke="black"/>
<path d="M504.152,148.892h 6.51407" fill="none" stroke="black"/>
<path d="M504.152,144.552h 6.51407" fill="none" stroke="black"/>
<path d="M504.152,141.185h 6.51407" fill="none" stroke="black"/>
<path d="M504.152,138.434h 6.51407" fill="none" stroke="black"/>
<path d="M504.152,136.108h 6.51407" fill="none" stroke="black"/>
<path d="M504.152,134.094h 6.51407" fill="none" stroke="black"/>
<path d="M504.152,132.317h 6.51407" fill="none" stroke="black"/>
<path d="M497.637,130.727h 13.0281" fill="none" stroke="black"/>
<path d="M504.152,120.269h 6.51407" fill="none" stroke="black"/>
<path d="M504.152,114.151h 6.51407" fill="none" stroke="black"/>
<path d="M504.152,109.811h 6.51407" fill="none" stroke="black"/>
<path d="M504.152,106.444h 6.51407" fill="none" stroke="black"/>
<path d="M504.152,103.693h 6.51407" fill="none" stroke="black"/>
<path d="M504.152,101.367h 6.51407" fill="none" stroke="black"/>
<path d="M504.152,99.3524h 6.51407" fill="none" stroke="black"/>
<path d="M504.152,97.5753h 6.51407" fill="none" stroke="black"/>
<path d="M497.637,95.9856h 13.0281" fill="none" stroke="black"/>
<path d="M504.152,85.5274h 6.51407" fill="none" stroke="black"/>
<path d="M504.152,79.4097h 6.51407" fill="none" stroke="black"/>
<path d="M504.152,75.0692h 6.51407" fill="none" stroke="black"/>
<path d="M504.152,71.7024h 6.51407" fill="none" stroke="black"/>
<path d="M504.152,68.9516h 6.51407" fill="none" stroke="black"/>
<path d="M504.152,66.6257h 6.51407" fill="none" stroke="black"/>
<path d="M504.152,64.611h 6.51407" fill="none" stroke="black"/>
<path d="M504.152,62.8339h 6.51407" fill="none" stroke="black"/>
<path d="M497.637,61.2442h 13.0281" fill="none" stroke="black"/>
<path d="M504.152,50.786h 6.51407" fill="none" stroke="black"/>
<path d="M504.152,44.6684h 6.51407" fill="none" stroke="black"/>
<path d="M504.152,40.3279h 6.51407" fill="none" stroke="black"/>
<path d="M504.152,36.9611h 6.51407" fill="none" stroke="black"/>
<path d="M504.152,34.2102h 6.51407" fill="none" stroke="black"/>
<path d="M504.152,31.8844h 6.51407" fill="none" stroke="black"/>
<path d="M57.1929,38.7207v -7.46952" fill="none" stroke="black"/>
<path d="M75.3318,38.7207v -7.46952" fill="none" stroke="black"/>
<path d="M93.4707,38.7207v -7.46952" fill="none" stroke="black"/>
<path d="M111.61,38.7207v -7.46952" fill="none" stroke="black"/>
<path d="M129.749,38.7207v -7.46952" fill="none" stroke="black"/>
<path d="M147.887,38.7207v -7.46952" fill="none" stroke="black"/>
<path d="M166.026,38.7207v -7.46952" fill="none" stroke="black"/>
<path d="M184.165,38.7207v -7.46952" fill="none" stroke="black"/>
<path d="M202.304,38.7207v -7.46952" fill="none" stroke="black"/>
<path d="M220.443,38.7207v -7.46952" fill="none" stroke="black"/>
<path d="M238.582,38.7207v -7.46952" fill="none" stroke="black"/>
<path d="M256.721,38.7207v -7.46952" fill="none" stroke="black"/>
<path d="M274.86,38.7207v -7.46952" fill="none" stroke="black"/>
<path d="M292.999,38.7207v -7.46952" fill="none" stroke="black"/>
<path d="M311.138,38.7207v -7.46952" fill="none" stroke="black"/>
<path d="M329.277,38.7207v -7.46952" fill="none" stroke="black"/>
<path d="M347.415,38.7207v -7.46952" fill="none" stroke="black"/>
<path d="M365.554,38.7207v -7.46952" fill="none" stroke="black"/>
<path d="M383.693,38.7207v -7.46952" fill="none" stroke="black"/>
<path d="M401.832,38.7207v -7.46952" fill="none" stroke="black"/>
<path d="M419.971,38.7207v -7.46952" fill="none" stroke="black"/>
<path d="M438.11,38.7207v -7.46952" fill="none" stroke="black"/>
<path d="M456.249,38.7207v -7.46952" fill="none" stroke="black"/>
<path d="M474.388,38.7207v -7.46952" fill="none" stroke="black"/>
<path d="M492.527,38.7207v -7.46952" fill="none" stroke="black"/>
<path d="M510.666,38.7207v -7.46952" fill="none" stroke="black"/></svg>
