<?xml version="1.0" standalone="no"?>
<svg width="567.429" height="311.778" viewBox="0 0 567.429 311.778" xmlns="http://www.w3.org/2000/svg" shape-rendering="crispEdges">
<title>
Yields/P1/det-10/run_0106_Fit.svg
</title>
<desc>
Creator: ROOT Version 6.12/06
CreationDate: Mon Apr 15 10:29:02 2019</desc>
<defs>
</defs>
<rect x="0.5" y="0" width="566.929" height="311.278" fill="white"/>
<rect x="57.1929" y="31.1278" width="453.543" height="249.023" fill="white"/>
<rect x="57.1929" y="31.1278" width="453.543" height="249.023" fill="none" stroke="black"/>
<rect x="57.1929" y="31.1278" width="453.543" height="249.023" fill="white"/>
<rect x="57.1929" y="31.1278" width="453.543" height="249.023" fill="none" stroke="black"/>
<path d="M57.1929,40.8694h 0.181345v 239.281h 24.8442v -10.5657h 0.181345v 10.5657h 0.36269v -10.5657h 0.181345v 10.5657h 2.53883v -10.5657h 0.181345v 10.5657h 1.45076v -10.5657h 0.181345v 10.5657h 1.08807v -27.312h 0.181345v 27.312h 0.725379v
 -10.5657h 0.181345v -24.5329h 0.181345v -15.6946h 0.181345v -8.83824h 0.181345v -15.0269h 0.181345v -6.99273h 0.181345v -5.29235h 0.181345v -6.04445h 0.181345v -2.04398h 0.181345v -1.64185h 0.181345v -2.42622h 0.181345v 0.323842h 0.181345v -1.80577h
 0.181345v -0.0414779h 0.181345v -0.963044h 0.181345v -1.48108h 0.181345v 0.871273h 0.181345v -0.586346h 0.181345v -1.57003h 0.181345v 1.10969h 0.181345v 0.714094h 0.181345v -2.20809h 0.181345v 1.25176h 0.181345v -2.2612h 0.181345v 0.450568h
 0.181345v 0.975641h 0.181345v 0.328528h 0.181345v -1.486h 0.181345v -0.298309h 0.181345v -1.2201h 0.181345v 0.956524h 0.181345v -0.201899h 0.181345v -0.114181h 0.181345v -0.558419h 0.181345v 1.04971h 0.181345v -0.604622h 0.181345v 0.634021h
 0.181345v -2.11249h 0.181345v 0.896913h 0.181345v -0.135255h 0.181345v 0.464849h 0.181345v -0.247861h 0.181345v -0.351053h 0.181345v -0.729725h 0.181345v 1.10812h 0.181345v 0.444275h 0.181345v -0.607596h 0.181345v -0.0270508h 0.181345v 0.355461h
 0.181345v -1.11975h 0.181345v 0.845589h 0.181345v -0.242601h 0.181345v 0.572195h 0.181345v 0.974516h 0.181345v -0.974516h 0.181345v -1.80463h 0.181345v 1.2592h 0.181345v -2.26146h 0.181345v -0.983768h 0.181345v -1.24673h 0.181345v -2.41231h
 0.181345v -2.83582h 0.181345v -0.280212h 0.181345v -2.49187h 0.181345v -1.73632h 0.181345v -1.08599h 0.181345v -1.01374h 0.181345v -0.716191h 0.181345v 1.5643h 0.181345v -0.884726h 0.181345v 1.14864h 0.181345v 2.86616h 0.181345v 1.21316h 0.181345v
 3.24756h 0.181345v 2.56383h 0.181345v 1.71541h 0.181345v 3.44369h 0.181345v 2.37181h 0.181345v 1.22268h 0.181345v 2.00197h 0.181345v 2.89419h 0.181345v 1.4021h 0.181345v -0.54712h 0.181345v 2.4888h 0.181345v -0.893626h 0.181345v -0.792715h 0.181345v
 2.94484h 0.181345v -2.63268h 0.181345v 0.589438h 0.181345v 0.109663h 0.181345v 1.20177h 0.181345v -2.05775h 0.181345v 0.209531h 0.181345v 0.591518h 0.181345v 1.61821h 0.181345v -1.00281h 0.181345v 1.68871h 0.181345v 1.26268h 0.181345v -3.00837h
 0.181345v 1.12089h 0.181345v -0.482036h 0.181345v 0.299482h 0.181345v 0.367322h 0.181345v -1.53148h 0.181345v 0.864681h 0.181345v 1.23494h 0.181345v -0.629971h 0.181345v -0.425983h 0.181345v 1.71309h 0.181345v -0.266262h 0.181345v -1.02084h
 0.181345v -1.07222h 0.181345v 1.2585h 0.181345v 0.315604h 0.181345v 0.988021h 0.181345v 1.65146h 0.181345v -2.3172h 0.181345v 2.39323h 0.181345v -2.45823h 0.181345v 1.2851h 0.181345v -2.10584h 0.181345v 2.75458h 0.181345v 2.3866h 0.181345v -1.08035h
 0.181345v -2.50935h 0.181345v 0.205528h 0.181345v 2.95954h 0.181345v -1.43759h 0.181345v 1.271h 0.181345v -0.806703h 0.181345v -2.25967h 0.181345v 1.87179h 0.181345v 0.625447h 0.181345v 0.569143h 0.181345v -1.64739h 0.181345v 0.452799h 0.181345v
 1.95903h 0.181345v 0.263576h 0.181345v -2.6754h 0.181345v 0.840686h 0.181345v 0.973296h 0.181345v 0.253354h 0.181345v -1.06869h 0.181345v 1.32632h 0.181345v -1.64063h 0.181345v 0.156341h 0.181345v 1.48429h 0.181345v -1.94858h 0.181345v 5.9912h
 0.181345v -2.49422h 0.181345v -1.28633h 0.181345v -1.90269h 0.181345v 0.473918h 0.181345v 1.69543h 0.181345v 1.70598h 0.181345v -3.9529h 0.181345v 0.957998h 0.181345v -0.486524h 0.181345v 4.09532h 0.181345v -3.02083h 0.181345v -1.15408h 0.181345v
 1.41318h 0.181345v 1.94858h 0.181345v -1.77337h 0.181345v 1.97263h 0.181345v -0.493348h 0.181345v -1.56714h 0.181345v 1.66454h 0.181345v -3.24426h 0.181345v 1.84482h 0.181345v 0.269797h 0.181345v -0.70911h 0.181345v 0.528716h 0.181345v 1.70598h
 0.181345v -1.88426h 0.181345v -1.27454h 0.181345v -1.02447h 0.181345v -0.0760257h 0.181345v -1.0971h 0.181345v 0.57528h 0.181345v -1.12964h 0.181345v 2.83369h 0.181345v -2.27933h 0.181345v -1.02341h 0.181345v 2.19654h 0.181345v -0.959933h 0.181345v
 -0.283601h 0.181345v 1.55149h 0.181345v -1.33928h 0.181345v 1.33928h 0.181345v 0.393901h 0.181345v -0.625447h 0.181345v 2.31149h 0.181345v 1.69543h 0.181345v -0.965077h 0.181345v -0.185894h 0.181345v -0.455052h 0.181345v 1.50672h 0.181345v -1.86123h
 0.36269v -1.17961h 0.181345v 2.45823h 0.181345v -0.283162h 0.181345v 1.67893h 0.181345v -0.713855h 0.181345v 1.1373h 0.181345v 0.770575h 0.181345v 0.458474h 0.181345v -1.96254h 0.181345v -2.71079h 0.181345v 3.6605h 0.181345v -0.323188h 0.181345v
 2.80048h 0.181345v -2.58579h 0.181345v -2.85105h 0.181345v 3.17887h 0.181345v 1.26619h 0.181345v -2.33258h 0.181345v -1.18838h 0.181345v 0.882485h 0.181345v -0.496563h 0.181345v -0.290354h 0.181345v -0.0955685h 0.181345v 1.08573h 0.181345v
 -0.990161h 0.181345v 1.93987h 0.181345v -0.949706h 0.181345v 0.102648h 0.181345v -0.102648h 0.181345v 1.61739h 0.181345v -0.883907h 0.181345v -0.10697h 0.181345v -1.12964h 0.181345v 0.605767h 0.181345v -1.37774h 0.36269v -1.0014h 0.181345v 0.814366h
 0.181345v -0.367322h 0.181345v -0.358678h 0.181345v -1.19281h 0.181345v 2.10584h 0.181345v -0.187035h 0.181345v -1.24867h 0.181345v 0.972355h 0.181345v -2.36277h 0.181345v 2.00197h 0.181345v -0.177248h 0.181345v 1.77337h 0.181345v -2.37799h
 0.181345v 2.98376h 0.181345v -2.6412h 0.181345v 2.95336h 0.181345v -2.60293h 0.181345v 2.81464h 0.181345v 0.214695h 0.181345v 0.438681h 0.181345v -0.220919h 0.181345v -0.217763h 0.181345v 1.35584h 0.181345v -0.350432h 0.181345v 0.115918h 0.181345v
 -2.16578h 0.181345v 3.25073h 0.181345v -1.65592h 0.36269v -1.28892h 0.181345v 1.74397h 0.181345v 0.83057h 0.181345v -2.15689h 0.181345v 3.03534h 0.181345v -3.03534h 0.181345v 1.32632h 0.181345v 0.115918h 0.181345v 0.234514h 0.181345v -1.78225h
 0.181345v 0.318683h 0.181345v 1.34585h 0.181345v -0.57528h 0.181345v -0.112496h 0.181345v 1.28562h 0.181345v 0.495755h 0.181345v -5.18278h 0.181345v 4.68703h 0.181345v -0.945613h 0.181345v -0.451681h 0.181345v 3.34587h 0.181345v -5.02958h 0.181345v
 3.4513h 0.181345v -1.54342h 0.181345v -1.50406h 0.181345v 1.39157h 0.181345v 1.28562h 0.181345v 0.370296h 0.181345v -0.850434h 0.181345v 0.975893h 0.181345v -1.44137h 0.181345v -0.227513h 0.181345v -1.60602h 0.181345v 0.728479h 0.181345v 1.92921h
 0.181345v -1.05167h 0.181345v -2.10584h 0.181345v 2.79883h 0.181345v -1.46356h 0.181345v 2.69351h 0.181345v -1.11133h 0.181345v -1.36597h 0.181345v 2.60593h 0.181345v -0.756012h 0.181345v -2.06614h 0.181345v 0.216218h 0.181345v 1.72748h 0.181345v
 -2.67719h 0.181345v 0.205991h 0.181345v 4.69947h 0.181345v -4.69947h 0.181345v 0.852985h 0.181345v -1.66076h 0.181345v 1.88167h 0.181345v -1.58375h 0.181345v -1.43458h 0.181345v 3.81778h 0.181345v -1.55905h 0.181345v -0.723538h 0.181345v 0.829762h
 0.181345v 1.92921h 0.181345v -0.476386h 0.181345v -1.87335h 0.36269v 3.74219h 0.181345v -0.521183h 0.181345v -1.11133h 0.181345v 0.240054h 0.181345v 0.617215h 0.181345v -2.00391h 0.181345v 1.38669h 0.181345v -1.82224h 0.181345v 1.70174h 0.181345v
 2.19054h 0.181345v -0.410154h 0.181345v -1.89994h 0.181345v 0.119555h 0.181345v 0.241959h 0.181345v -0.83057h 0.181345v 1.96959h 0.181345v 0.399406h 0.181345v 0.831649h 0.181345v -1.09908h 0.36269v -0.775241h 0.181345v 1.87432h 0.181345v -0.559443h
 0.181345v 0.417646h 0.181345v -3.73643h 0.181345v -0.327822h 0.181345v 4.06425h 0.181345v -2.70842h 0.181345v 1.75113h 0.181345v 2.5947h 0.181345v -1.63742h 0.181345v 1.48108h 0.181345v -1.48108h 0.181345v -2.82612h 0.181345v 3.84758h 0.181345v
 -1.16194h 0.181345v -1.20934h 0.181345v 1.20934h 0.181345v -0.683663h 0.181345v -0.133129h 0.181345v 1.67984h 0.181345v -0.437632h 0.181345v -0.284926h 0.181345v 0.57528h 0.181345v 1.86884h 0.181345v 0.505343h 0.181345v 1.62507h 0.181345v -3.55308h
 0.181345v -1.7113h 0.181345v 2.64485h 0.181345v -2.50935h 0.36269v 2.34974h 0.181345v -1.07282h 0.181345v 0.148715h 0.181345v 3.70326h 0.181345v -5.92436h 0.181345v 0.525677h 0.181345v 4.12007h 0.181345v -2.57336h 0.181345v 2.22691h 0.181345v
 -3.36711h 0.181345v 4.61578h 0.181345v -1.91881h 0.181345v 0.164792h 0.181345v -1.271h 0.181345v 1.43759h 0.181345v 3.56984h 0.181345v -2.88464h 0.181345v 1.47036h 0.181345v -2.81127h 0.181345v -1.08372h 0.181345v 2.95954h 0.181345v 3.90879h
 0.181345v 0.476386h 0.181345v -8.21599h 0.181345v 4.01337h 0.181345v -0.541233h 0.181345v 0.913035h 0.181345v 1.17313h 0.181345v -1.90788h 0.181345v -2.16934h 0.181345v -0.307952h 0.181345v -0.301854h 0.181345v 3.32687h 0.181345v -1.24867h 0.181345v
 1.43571h 0.181345v -2.26887h 0.181345v -1.54102h 0.181345v 2.37419h 0.181345v -0.170316h 0.181345v 1.79538h 0.181345v -2.61953h 0.181345v 0.655719h 0.181345v 0.33875h 0.181345v -0.170316h 0.181345v 0.170316h 0.181345v 0.17224h 0.181345v 0.350432h
 0.181345v -1.67676h 0.36269v 1.50053h 0.181345v 0.902223h 0.181345v -0.367322h 0.181345v -2.50449h 0.181345v 2.87181h 0.36269v -0.547716h 0.181345v 0.547716h 0.181345v -3.02501h 0.181345v 0.153198h 0.181345v 4.85423h 0.181345v -1.79538h 0.36269v
 0.57528h 0.181345v 0.597846h 0.181345v -2.26238h 0.181345v -1.17961h 0.181345v 2.84415h 0.181345v -1.48831h 0.181345v 0.358678h 0.181345v -2.34974h 0.181345v 4.48922h 0.181345v -4.17492h 0.181345v 3.76292h 0.181345v -3.442h 0.181345v -1.24503h
 0.181345v 4.48513h 0.181345v -1.15826h 0.181345v -2.56072h 0.181345v 1.6585h 0.181345v -1.34092h 0.181345v 0.994469h 0.181345v -2.52005h 0.181345v -2.03544h 0.181345v -0.376392h 0.181345v 1.29256h 0.181345v -0.659978h 0.181345v 2.07239h 0.181345v
 -1.54671h 0.181345v 0.134301h 0.181345v -1.53843h 0.181345v -1.61821h 0.181345v -0.956328h 0.181345v 0.63084h 0.181345v 1.11313h 0.181345v 0.953005h 0.181345v -0.720281h 0.181345v 0.597846h 0.181345v -1.72748h 0.181345v 0.10927h 0.181345v -0.748936h
 0.181345v 1.53658h 0.181345v -2.64383h 0.181345v 1.0032h 0.181345v -0.409236h 0.181345v -1.71666h 0.181345v 2.76112h 0.181345v -0.107726h 0.181345v -1.43329h 0.181345v 0.597846h 0.181345v 0.835449h 0.181345v -2.47193h 0.181345v 3.93549h 0.181345v
 -4.11696h 0.181345v 1.91991h 0.181345v 0.520294h 0.181345v -0.520294h 0.36269v 0.841213h 0.181345v -2.396h 0.181345v 0.279698h 0.181345v 0.381098h 0.181345v -0.7529h 0.181345v 1.64689h 0.181345v -3.38093h 0.181345v 1.55149h 0.181345v -2.34974h
 0.181345v -0.684345h 0.181345v -0.58354h 0.181345v 1.11313h 0.181345v -0.969327h 0.181345v 0.439736h 0.181345v -1.41899h 0.181345v -0.0675971h 0.181345v -3.42836h 0.181345v -0.787255h 0.181345v -0.30386h 0.181345v -2.01662h 0.181345v 2.06684h
 0.181345v -1.66627h 0.181345v -0.35658h 0.181345v 0.044119h 0.181345v -0.733191h 0.181345v 0.733191h 0.181345v 0.631462h 0.181345v 0.0923828h 0.181345v 0.375234h 0.181345v 0.384705h 0.181345v 1.11092h 0.36269v 2.37595h 0.181345v -0.6002h 0.181345v
 1.54728h 0.181345v 0.262819h 0.181345v 1.90346h 0.181345v 0.534901h 0.181345v 2.53229h 0.181345v 0.371802h 0.181345v -0.279698h 0.181345v 2.83468h 0.181345v -0.969854h 0.181345v 1.6525h 0.181345v -0.345142h 0.181345v 4.01063h 0.181345v -0.863049h
 0.181345v -0.413866h 0.181345v 0.554356h 0.181345v 2.94947h 0.181345v -2.80767h 0.181345v 4.24338h 0.181345v -4.52566h 0.181345v 0.425417h 0.181345v 0.437632h 0.181345v 0.450568h 0.181345v -0.597846h 0.181345v 0.295992h 0.181345v -0.295992h
 0.181345v 3.80989h 0.181345v -2.10584h 0.181345v 0.499819h 0.181345v -1.14173h 0.181345v 0.973296h 0.181345v -2.32579h 0.181345v 1.51045h 0.181345v -2.07508h 0.181345v 0.854979h 0.181345v 1.70405h 0.181345v -2.27933h 0.181345v 2.94947h 0.181345v
 -3.36711h 0.181345v 1.4391h 0.181345v 0.304873h 0.181345v 1.62314h 0.181345v -0.33875h 0.181345v -0.655719h 0.181345v 2.05837h 0.181345v -3.43809h 0.181345v 0.597846h 0.181345v -2.13041h 0.181345v 4.7881h 0.181345v -2.50449h 0.181345v 4.43658h
 0.181345v -3.15219h 0.181345v -0.494415h 0.36269v 0.16303h 0.181345v -0.324334h 0.181345v 0.489126h 0.181345v -0.489126h 0.181345v -2.50935h 0.181345v 4.20478h 0.181345v -0.871273h 0.181345v 1.23422h 0.181345v -1.06391h 0.181345v 3.6605h 0.181345v
 -0.429412h 0.181345v -0.210253h 0.181345v -4.94885h 0.181345v 2.62897h 0.181345v -2.77915h 0.181345v 2.95954h 0.181345v 1.72748h 0.181345v -2.08616h 0.36269v -0.176223h 0.181345v 0.354507h 0.181345v -2.16934h 0.181345v 0.473918h 0.181345v 2.24314h
 0.181345v 3.30874h 0.181345v -5.06276h 0.181345v 1.38669h 0.181345v 0.182555h 0.181345v -0.541233h 0.181345v 1.685h 0.181345v 1.67215h 0.181345v -2.99848h 0.181345v 0.367322h 0.181345v -0.902223h 0.181345v 1.27862h 0.181345v -1.79538h 0.181345v
 1.41899h 0.181345v 0.959003h 0.181345v -0.582611h 0.181345v 2.93235h 0.181345v -1.32632h 0.181345v -1.98242h 0.181345v 1.36016h 0.181345v 0.412001h 0.181345v -3.35958h 0.181345v -0.494415h 0.181345v 4.93553h 0.181345v -4.10236h 0.181345v 5.26652h
 0.181345v -4.74385h 0.181345v 1.88426h 0.181345v 2.15048h 0.181345v -5.22755h 0.181345v 0.670135h 0.181345v 3.6605h 0.181345v -4.81458h 0.36269v -0.314302h 0.181345v -0.307952h 0.181345v -1.31362h 0.181345v 1.46682h 0.181345v -4.72773h 0.181345v
 -0.335027h 0.181345v 1.02802h 0.181345v 0.118624h 0.181345v -1.79538h 0.181345v -2.88464h 0.181345v 1.27862h 0.181345v -3.17103h 0.181345v 1.12369h 0.181345v -1.73046h 0.181345v -1.00699h 0.181345v -1.39577h 0.181345v -0.499819h 0.181345v 0.951023h
 0.181345v -4.64464h 0.181345v 0.945227h 0.181345v -1.0414h 0.181345v 0.8882h 0.181345v -0.201899h 0.181345v 0.458092h 0.181345v -1.56981h 0.181345v 1.98889h 0.36269v -0.573313h 0.181345v 2.02083h 0.181345v -0.796464h 0.181345v -0.110458h 0.181345v
 2.3131h 0.181345v 0.0641817h 0.181345v 1.8437h 0.181345v 0.219329h 0.181345v -0.219329h 0.181345v 4.33686h 0.181345v 1.20403h 0.181345v 0.104764h 0.181345v 0.86509h 0.181345v 2.66829h 0.181345v 3.73643h 0.181345v -1.29807h 0.181345v 2.53229h
 0.36269v 3.49351h 0.181345v -1.32632h 0.181345v -0.417646h 0.181345v 5.3781h 0.181345v 1.2201h 0.181345v -0.314302h 0.181345v 0.963044h 0.36269v -1.57285h 0.181345v 2.25043h 0.181345v 0.350432h 0.181345v 6.00433h 0.181345v -6.35476h 0.181345v
 -0.677584h 0.181345v 0.335027h 0.181345v 3.4014h 0.181345v -0.417646h 0.181345v -1.18838h 0.181345v -2.13041h 0.181345v -0.327822h 0.181345v 5.85963h 0.181345v -4.5038h 0.181345v 3.57969h 0.181345v -4.6077h 0.181345v 3.73643h 0.181345v -0.824153h
 0.181345v -2.57725h 0.181345v 4.27268h 0.181345v -0.441861h 0.181345v 3.4014h 0.181345v -2.50449h 0.181345v -4.72773h 0.181345v 1.79538h 0.181345v 1.60602h 0.181345v -0.417646h 0.181345v 1.74397h 0.181345v -0.455052h 0.181345v -4.27268h 0.544034v
 0.692988h 0.181345v 4.03474h 0.181345v -4.72773h 0.181345v 2.1813h 0.181345v -1.83875h 0.181345v -0.677584h 0.181345v 1.75402h 0.181345v -3.32687h 0.181345v 2.60087h 0.181345v -1.67676h 0.181345v 2.40276h 0.181345v 7.54071h 0.181345v -10.5657h
 0.181345v 3.02501h 0.181345v -2.08184h 0.181345v 4.06425h 0.181345v -6.18055h 0.181345v 8.45988h 0.181345v -4.98775h 0.181345v 0.726h 0.181345v -1.41899h 0.181345v 1.05167h 0.181345v -2.03544h 0.181345v 2.40276h 0.181345v -0.726h 0.181345v -1.99106h
 0.181345v -0.609806h 0.181345v 1.90788h 0.181345v 0.342556h 0.181345v -1.00541h 0.36269v 2.08184h 0.181345v -1.75402h 0.181345v -2.1592h 0.181345v 5.47798h 0.181345v -3.31879h 0.181345v 1.75402h 0.181345v -1.41899h 0.181345v 1.05167h 0.181345v
 0.743714h 0.181345v -1.10239h 0.181345v -2.60087h 0.181345v 6.18055h 0.181345v -4.93553h 0.181345v 3.64661h 0.181345v 6.5982h 0.181345v -9.91698h 0.181345v 1.38669h 0.181345v 1.52558h 0.181345v -2.91228h 0.181345v 4.16584h 0.181345v -4.81458h
 0.181345v 1.32632h 0.181345v -1.64063h 0.181345v 4.69947h 0.181345v -2.34974h 0.181345v 1.93209h 0.181345v -3.96753h 0.181345v 3.16507h 0.181345v -3.47937h 0.181345v 5.12889h 0.181345v -1.25357h 0.181345v 1.69543h 0.181345v -2.09137h 0.181345v
 -2.84415h 0.181345v 7.36017h 0.181345v -5.64565h 0.181345v 1.12964h 0.181345v -2.84415h 0.181345v 6.34358h 0.181345v -2.27933h 0.36269v -1.98242h 0.181345v -0.367322h 0.181345v 3.22101h 0.181345v -6.18055h 0.181345v 5.73869h 0.36269v -4.49367h
 0.181345v -1.54102h 0.181345v 1.54102h 0.181345v 6.34358h 0.181345v -6.34358h 0.181345v 0.327822h 0.181345v 2.13041h 0.181345v -2.45823h 0.181345v 1.00541h 0.181345v 3.48826h 0.181345v 1.84992h 0.181345v -4.26175h 0.181345v 2.41183h 0.181345v
 -1.64951h 0.181345v 1.64951h 0.181345v -0.429412h 0.181345v -2.34974h 0.181345v 2.77915h 0.181345v 2.34974h 0.181345v -5.12889h 0.181345v 3.22101h 0.181345v -1.28892h 0.181345v 2.21303h 0.181345v -1.36597h 0.181345v -2.03544h 0.181345v 2.03544h
 0.181345v 2.8665h 0.181345v -1.50053h 0.181345v -1.79538h 0.181345v -2.70842h 0.181345v 4.98775h 0.181345v -5.33818h 0.181345v 8.61715h 0.181345v -3.76292h 0.181345v -3.7778h 0.181345v -2.40276h 0.181345v 6.18055h 0.181345v -0.924108h 0.181345v
 1.90788h 0.181345v 3.4014h 0.181345v -4.85423h 0.181345v 0.953005h 0.181345v 2.10584h 0.181345v -2.10584h 0.181345v 2.68112h 0.181345v -1.66454h 0.181345v -3.29592h 0.181345v 2.27933h 0.181345v 1.55149h 0.181345v -1.05167h 0.181345v -1.90788h
 0.181345v 4.08918h 0.36269v -0.57528h 0.181345v -2.10584h 0.181345v 3.27897h 0.181345v -3.27897h 0.181345v 2.68112h 0.181345v -2.1813h 0.181345v 5.43684h 0.181345v -1.38669h 0.181345v -2.99848h 0.181345v 4.38517h 0.181345v -5.43684h 0.181345v
 1.05167h 0.181345v 5.12889h 0.181345v -4.57453h 0.181345v 2.44412h 0.181345v 0.677584h 0.181345v -2.54643h 0.181345v 1.86884h 0.181345v -2.44412h 0.181345v 2.44412h 0.181345v -1.271h 0.181345v 7.78658h 0.181345v -6.51558h 0.181345v 0.677584h
 0.181345v 8.0193h 0.181345v -3.16507h 0.181345v -2.61953h 0.181345v -2.91228h 0.181345v 2.91228h 0.181345v -1.52558h 0.181345v 0.743714h 0.181345v 9.1129h 0.181345v -10.5657h 0.181345v -0.677584h 0.181345v 9.91698h 0.181345v -1.2201h 0.181345v
 2.54643h 0.181345v -3.67606h 0.181345v 2.34974h 0.36269v -3.4014h 0.181345v -1.90788h 0.181345v 4.08918h 0.181345v 1.2201h 0.36269v -9.91698h 0.181345v 5.53181h 0.181345v 0.983768h 0.181345v 4.72773h 0.181345v -9.85662h 0.181345v 12.9155h 0.181345v
 -6.73491h 0.36269v -2.03544h 0.181345v -3.4014h 0.181345v 4.38517h 0.181345v -4.38517h 0.181345v -2.13041h 0.181345v 11.2433h 0.181345v -3.67606h 0.181345v 6.73491h 0.181345v -4.38517h 0.181345v 8.21599h 0.181345v -3.83082h 0.181345v -5.60527h
 0.36269v 9.43609h 0.181345v -8.21599h 0.181345v 6.18055h 0.36269v -1.79538h 0.181345v -8.77035h 0.181345v 4.38517h 0.181345v -3.4014h 0.181345v 6.18055h 0.181345v -2.77915h 0.181345v 8.21599h 0.181345v -12.6012h 0.181345v 0.983768h 0.181345v
 9.58196h 0.181345v -11.4898h 0.181345v 4.08918h 0.181345v 1.2201h 0.181345v -5.30928h 0.181345v -2.4773h 0.181345v 2.4773h 0.181345v 1.90788h 0.181345v -4.38517h 0.36269v -5.66379h 0.181345v 2.88464h 0.181345v -0.622255h 0.181345v -1.72748h
 0.181345v 2.99848h 0.181345v -2.44412h 0.181345v 3.83082h 0.181345v -0.70911h 0.181345v 0.70911h 0.181345v -4.92007h 0.181345v 0.534901h 0.181345v -4.65497h 0.181345v 7.65345h 0.181345v -3.53338h 0.181345v -1.01658h 0.181345v 2.68112h 0.181345v
 -3.16507h 0.36269v 0.983768h 0.181345v 3.4014h 0.181345v -2.34974h 0.181345v -3.83082h 0.181345v 5.5583h 0.181345v -3.76292h 0.181345v 0.483949h 0.181345v 3.27897h 0.181345v 8.83824h 0.181345v -5.43684h 0.181345v 1.60602h 0.181345v -5.60527h
 0.181345v -1.12964h 0.181345v 1.72748h 0.181345v 6.80281h 0.181345v -7.40065h 0.181345v 4.78112h 0.181345v 0.824153h 0.181345v -5.00743h 0.181345v 2.65769h 0.181345v 5.12889h 0.181345v -11.5495h 0.181345v 3.16507h 0.36269v -1.66454h 0.181345v
 2.26238h 0.181345v -0.597846h 0.181345v -1.66454h 0.181345v -4.90194h 0.181345v 1.60602h 0.181345v 2.27933h 0.181345v -6.01576h 0.181345v -0.963044h 0.181345v 0.963044h 0.181345v -3.53338h 0.181345v 0.534901h 0.181345v -1.05167h 0.181345v -3.1968h
 0.181345v 1.28892h 0.181345v -2.28556h 0.181345v 1.41428h 0.181345v 0.429412h 0.181345v 1.12964h 0.181345v -3.35443h 0.181345v -2.58979h 0.181345v -0.622255h 0.181345v -2.77915h 0.181345v 2.03544h 0.181345v -1.51867h 0.181345v 0.265104h 0.181345v
 -0.90837h 0.181345v -1.78138h 0.181345v -0.222531h 0.36269v 2.3866h 0.181345v -2.71442h 0.181345v -1.54102h 0.36269v 1.11461h 0.181345v -2.33471h 0.181345v 0.273018h 0.181345v -0.804809h 0.181345v 0.622255h 0.181345v -0.447044h 0.181345v -1.90269h
 0.181345v 3.67606h 0.181345v -1.77337h 0.181345v 1.3825h 0.181345v -4.55308h 0.181345v 0.58354h 0.181345v 1.4826h 0.181345v -2.27933h 0.181345v 2.1976h 0.181345v 0.581552h 0.181345v 0.516765h 0.181345v -3.36632h 0.181345v 1.86579h 0.181345v
 0.0795987h 0.181345v 1.68604h 0.181345v -1.36342h 0.181345v -1.02447h 0.181345v -1.65928h 0.181345v 3.18085h 0.181345v -1.74852h 0.181345v 2.88464h 0.181345v -1.63322h 0.181345v 2.66546h 0.181345v 0.195427h 0.181345v 0.499819h 0.181345v 1.16094h
 0.181345v 0.6726h 0.181345v -0.451681h 0.36269v 2.66829h 0.181345v -0.131976h 0.181345v 0.80956h 0.181345v 1.00226h 0.36269v 1.72156h 0.181345v 3.94963h 0.181345v 2.314h 0.181345v -1.87845h 0.181345v 4.31171h 0.181345v 1.2201h 0.181345v 1.67676h
 0.181345v 1.88426h 0.181345v -0.78187h 0.181345v 4.38517h 0.181345v 2.77915h 0.181345v -1.72748h 0.181345v 9.51406h 0.181345v -5.12889h 0.181345v 9.85662h 0.181345v -8.33103h 0.181345v 7.00471h 0.181345v 10.5657h 0.181345v -2.34974h 0.181345v
 -6.88966h 0.181345v 9.2394h 0.181345v -7.78658h 0.181345v 10.5657h 0.181345v -5.12889h 0.181345v 8.53029h 0.181345v 31.6972h 0.181345v -31.6972h 0.181345v -3.4014h 0.181345v -2.77915h 0.181345v 16.7463h 0.181345v -16.7463h 0.181345v 6.18055h
 0.36269v 4.38517h 0.36269v 6.18055h 0.181345v -10.5657h 0.36269v 31.6972h 0.181345v -35.0986h 0.181345v 7.78658h 0.181345v -4.38517h 0.181345v 31.6972h 0.181345v -21.1315h 0.181345v -6.18055h 0.36269v 6.18055h 0.181345v 10.5657h 0.181345v -29.6617h
 0.181345v 2.34974h 0.181345v 2.77915h 0.181345v 35.0986h 0.181345v -35.0986h 0.181345v 24.5329h 0.181345v -16.7463h 0.181345v 16.7463h 0.181345v -10.5657h 0.544034v -13.9671h 0.181345v 35.0986h 0.181345v -31.6972h 0.36269v 10.5657h 0.181345v
 -6.18055h 0.181345v -7.78658h 0.181345v 7.78658h 0.36269v 16.7463h 0.181345v -27.312h 0.181345v 16.7463h 0.181345v -13.9671h 0.181345v 35.0986h 0.181345v -21.1315h 0.181345v -6.18055h 0.181345v -4.38517h 0.181345v 31.6972h 0.181345v -37.8777h
 0.181345v 6.18055h 0.181345v 10.5657h 0.181345v -13.9671h 0.181345v 3.4014h 0.181345v -6.18055h 0.36269v 16.7463h 0.36269v -6.18055h 0.181345v -7.78658h 0.36269v 3.4014h 0.181345v -6.18055h 0.36269v 16.7463h 0.181345v -21.1315h 0.181345v 4.38517h
 0.181345v 10.5657h 0.36269v -4.38517h 0.181345v -3.4014h 0.181345v -5.12889h 0.181345v -5.43684h 0.181345v 18.3523h 0.181345v -7.78658h 0.181345v 3.4014h 0.36269v -16.7463h 0.181345v -4.38517h 0.181345v 25.5166h 0.181345v -4.38517h 0.181345v -15.42h
 0.181345v 12.0186h 0.181345v -7.16432h 0.181345v 10.5657h 0.181345v 10.5657h 0.36269v -27.312h 0.181345v 16.7463h 0.181345v -12.3611h 0.181345v 8.9597h 0.181345v -2.77915h 0.181345v 6.18055h 0.181345v -13.9671h 0.181345v 10.5657h 0.181345v 3.4014h
 0.181345v 10.5657h 0.181345v -21.1315h 0.181345v -4.85423h 0.181345v 12.0186h 0.181345v -7.16432h 0.181345v 2.03544h 0.181345v 5.12889h 0.36269v 24.5329h 0.181345v -29.6617h 0.36269v 8.53029h 0.181345v 4.38517h 0.36269v 27.312h 0.181345v -37.8777h
 0.181345v 6.18055h 0.181345v -8.53029h 0.181345v 5.12889h 0.36269v 24.5329h 0.181345v -10.5657h 0.181345v -6.18055h 0.725379v 6.18055h 0.181345v -6.18055h 0.181345v -4.38517h 0.36269v 4.38517h 0.181345v 16.7463h 0.181345v -10.5657h 0.181345v
 -6.18055h 0.181345v -10.5657h 0.181345v 16.7463h 0.181345v -6.18055h 0.181345v 27.312h 0.181345v -10.5657h 0.181345v -16.7463h 0.181345v 6.18055h 0.181345v -10.5657h 0.181345v 4.38517h 0.181345v -7.78658h 0.36269v 13.9671h 0.181345v 10.5657h
 0.36269v 10.5657h 0.181345v -27.312h 0.181345v 16.7463h 0.181345v -10.5657h 0.181345v -6.18055h 0.181345v -12.9155h 0.181345v 12.9155h 0.181345v 6.18055h 0.36269v -6.18055h 0.36269v 16.7463h 0.181345v -21.1315h 0.181345v 10.5657h 0.181345v -10.5657h
 0.181345v 4.38517h 0.181345v -4.38517h 0.181345v 10.5657h 0.181345v -10.5657h 0.181345v 4.38517h 0.181345v -4.38517h 0.36269v 31.6972h 0.181345v -10.5657h 0.181345v -16.7463h 0.181345v -4.38517h 0.181345v -10.5657h 0.36269v 21.1315h 0.181345v
 -6.18055h 0.181345v -10.5657h 0.181345v 16.7463h 0.36269v -6.18055h 0.181345v -7.78658h 0.181345v 13.9671h 0.181345v -10.5657h 0.181345v -8.53029h 0.36269v 5.12889h 0.181345v 3.4014h 0.36269v -6.18055h 0.181345v 16.7463h 0.181345v -21.1315h
 0.181345v -4.85423h 0.181345v 9.2394h 0.181345v 27.312h 0.181345v -21.1315h 0.181345v -13.9671h 0.181345v 13.9671h 0.181345v -8.53029h 0.181345v 19.096h 0.181345v -6.18055h 0.181345v -22.3516h 0.181345v 14.565h 0.181345v 3.4014h 0.181345v -10.5657h
 0.181345v -1.79538h 0.181345v 3.83082h 0.181345v 2.34974h 0.181345v 2.77915h 0.181345v -2.77915h 0.181345v 10.5657h 0.181345v -10.5657h 0.181345v -6.18055h 0.181345v 6.18055h 0.36269v 16.7463h 0.181345v -16.7463h 0.181345v -6.18055h 0.181345v
 6.18055h 0.36269v 2.77915h 0.181345v 3.4014h 0.181345v -8.53029h 0.181345v -5.43684h 0.181345v 18.3523h 0.181345v -7.78658h 0.181345v -5.12889h 0.181345v 12.9155h 0.36269v -4.38517h 0.181345v -3.4014h 0.36269v 3.4014h 0.181345v -10.5657h 0.181345v
 4.38517h 0.181345v 10.5657h 0.36269v -7.78658h 0.181345v 3.4014h 0.181345v 10.5657h 0.181345v -16.7463h 0.181345v 37.8777h 0.181345v -40.2275h 0.181345v 2.34974h 0.725379v 10.5657h 0.181345v -4.38517h 0.181345v 10.5657h 0.36269v -16.7463h 0.181345v
 2.77915h 0.181345v 3.4014h 0.181345v 4.38517h 0.181345v -4.38517h 0.181345v -13.9671h 0.181345v 18.3523h 0.181345v -10.5657h 0.181345v 6.18055h 0.544034v -3.4014h 0.181345v 13.9671h 0.181345v -19.096h 0.181345v 12.9155h 0.181345v 6.18055h 0.181345v
 -22.9268h 0.181345v 22.9268h 0.181345v -10.5657h 0.181345v 10.5657h 0.181345v 10.5657h 0.181345v -16.7463h 0.181345v -4.38517h 0.181345v -3.4014h 0.544034v 3.4014h 0.181345v -15.42h 0.181345v 6.88966h 0.181345v 5.12889h 0.181345v -2.77915h 0.181345v
 -2.34974h 0.36269v 2.34974h 0.181345v 6.18055h 0.36269v -8.53029h 0.181345v -8.21599h 0.181345v 10.5657h 0.181345v 6.18055h 0.181345v -3.4014h 0.181345v -7.16432h 0.36269v -3.4014h 0.181345v -1.45282h 0.181345v 12.0186h 0.181345v -12.0186h 0.181345v
 1.45282h 0.181345v 7.78658h 0.36269v -6.18055h 0.181345v -4.38517h 0.36269v 8.21599h 0.181345v -2.03544h 0.181345v 2.03544h 0.181345v 2.34974h 0.181345v -7.78658h 0.181345v 3.4014h 0.181345v -1.79538h 0.181345v 6.18055h 0.181345v -2.34974h 0.181345v
 -3.83082h 0.181345v -1.60602h 0.181345v -1.45282h 0.181345v -6.63561h 0.181345v 22.0556h 0.181345v -12.3611h 0.181345v 6.18055h 0.181345v -6.18055h 0.181345v 1.79538h 0.181345v 2.03544h 0.181345v -3.83082h 0.181345v 3.83082h 0.181345v -6.88966h
 0.181345v -1.32632h 0.181345v 2.77915h 0.181345v 3.4014h 0.181345v -14.7108h 0.181345v 12.9155h 0.181345v 8.9597h 0.181345v -10.5657h 0.181345v -1.45282h 0.181345v -6.63561h 0.181345v 13.5253h 0.181345v -6.88966h 0.36269v 1.45282h 0.181345v
 -6.18055h 0.181345v 1.05167h 0.181345v 15.6946h 0.181345v -12.0186h 0.181345v -3.67606h 0.181345v 8.53029h 0.181345v -7.40065h 0.181345v 7.40065h 0.181345v -3.4014h 0.181345v 3.4014h 0.181345v 2.03544h 0.181345v -12.6012h 0.181345v 2.03544h
 0.181345v 3.67606h 0.181345v -2.54643h 0.181345v -1.12964h 0.36269v 15.6946h 0.181345v 3.4014h 0.181345v -10.5657h 0.181345v -8.53029h 0.181345v 3.67606h 0.181345v -8.33103h 0.181345v 3.6033h 0.181345v 4.72773h 0.181345v -4.72773h 0.181345v 6.18055h
 0.181345v -5.12889h 0.181345v 5.12889h 0.181345v -8.9597h 0.36269v 1.79538h 0.181345v 12.6012h 0.181345v -11.6174h 0.181345v 6.18055h 0.181345v -2.77915h 0.181345v -2.34974h 0.181345v 2.34974h 0.181345v -2.34974h 0.36269v 1.12964h 0.181345v
 -4.08918h 0.181345v 5.30928h 0.181345v -7.78658h 0.181345v 5.43684h 0.181345v -7.56725h 0.181345v 6.51558h 0.181345v 3.4014h 0.181345v -4.38517h 0.181345v -0.924108h 0.181345v -4.6077h 0.181345v 6.51558h 0.181345v -8.9597h 0.36269v 5.3564h 0.181345v
 1.69543h 0.181345v -2.4773h 0.181345v 3.4014h 0.181345v -4.85423h 0.36269v -0.677584h 0.181345v 1.38669h 0.181345v 3.22101h 0.181345v 2.95954h 0.181345v 3.67606h 0.181345v -4.72773h 0.181345v -4.38517h 0.181345v 4.38517h 0.181345v 1.05167h 0.181345v
 -2.95954h 0.36269v -2.4773h 0.181345v 1.60602h 0.36269v 1.79538h 0.181345v -4.85423h 0.181345v 0.70911h 0.181345v 4.14512h 0.181345v -4.85423h 0.181345v 2.23469h 0.181345v -2.91228h 0.181345v 4.6077h 0.181345v -7.60618h 0.181345v 0.554356h 0.181345v
 0.57528h 0.181345v 3.25554h 0.181345v 6.18055h 0.181345v -8.83824h 0.181345v 4.18327h 0.181345v -0.78187h 0.181345v -0.743714h 0.181345v -0.70911h 0.181345v 6.88966h 0.36269v -2.95954h 0.181345v -1.69543h 0.181345v -1.52558h 0.181345v -1.38669h
 0.181345v -1.271h 0.181345v 5.8787h 0.181345v -0.871273h 0.181345v 6.18055h 0.181345v -7.00471h 0.544034v 0.824153h 0.181345v 1.79538h 0.181345v 5.7115h 0.181345v -7.50688h 0.181345v 2.77915h 0.181345v 11.6174h 0.181345v -15.2207h 0.181345v 4.65497h
 0.181345v 3.67606h 0.181345v -1.32632h 0.181345v -1.2201h 0.181345v 7.40065h 0.181345v -10.5657h 0.181345v -4.85423h 0.181345v -3.12171h 0.181345v 6.18055h 0.181345v 1.79538h 0.181345v -2.61953h 0.181345v 11.3899h 0.181345v -5.60527h 0.181345v
 1.2201h 0.181345v 1.32632h 0.181345v 1.45282h 0.181345v -8.08843h 0.181345v 18.6542h 0.181345v -20.3496h 0.181345v 11.3899h 0.36269v -1.60602h 0.181345v -3.99925h 0.181345v -2.1813h 0.181345v 7.78658h 0.181345v -1.60602h 0.181345v 1.60602h 0.181345v
 -3.05885h 0.181345v 9.2394h 0.181345v -11.7858h 0.181345v -1.12964h 0.181345v -4.65497h 0.181345v 20.3496h 0.181345v -12.0186h 0.181345v -4.72773h 0.181345v 3.4014h 0.181345v 4.38517h 0.181345v 8.9597h 0.181345v -13.3449h 0.181345v -4.38517h
 0.181345v -0.924108h 0.181345v 2.95954h 0.181345v -1.05167h 0.181345v 1.05167h 0.181345v -3.83082h 0.181345v 4.96045h 0.36269v 2.54643h 0.181345v -3.67606h 0.181345v -2.95954h 0.181345v 5.30928h 0.36269v 2.77915h 0.181345v -12.6961h 0.181345v
 14.3022h 0.181345v -7.78658h 0.181345v 4.72773h 0.181345v -1.32632h 0.181345v 8.21599h 0.181345v -11.6174h 0.181345v 9.58196h 0.181345v -8.53029h 0.181345v -2.95954h 0.181345v 2.95954h 0.181345v -2.03544h 0.181345v 17.73h 0.181345v -2.77915h
 0.181345v -4.38517h 0.181345v -8.53029h 0.181345v 1.12964h 0.181345v -1.12964h 0.181345v 10.5657h 0.181345v -6.88966h 0.181345v -2.54643h 0.36269v 11.7858h 0.181345v -9.2394h 0.181345v -1.32632h 0.181345v 2.77915h 0.181345v 10.5657h 0.181345v
 -12.0186h 0.181345v -1.32632h 0.181345v 4.38517h 0.181345v -3.05885h 0.181345v -3.67606h 0.181345v -1.05167h 0.36269v 6.18055h 0.181345v -3.99925h 0.181345v 3.99925h 0.181345v -8.08843h 0.181345v 5.30928h 0.181345v -4.38517h 0.181345v 10.5657h
 0.181345v -9.58196h 0.181345v 6.18055h 0.181345v -6.18055h 0.181345v -5.12889h 0.181345v 11.3094h 0.181345v -7.16432h 0.181345v 0.983768h 0.181345v -4.38517h 0.181345v 5.43684h 0.181345v 1.12964h 0.181345v -1.12964h 0.181345v -3.83082h 0.181345v
 7.50688h 0.36269v -3.67606h 0.181345v -6.18055h 0.181345v 9.85662h 0.181345v -5.7115h 0.181345v 5.7115h 0.181345v -1.32632h 0.181345v -4.38517h 0.181345v 2.03544h 0.181345v -2.95954h 0.181345v 6.63561h 0.181345v -7.50688h 0.181345v 8.9597h 0.181345v
 3.4014h 0.36269v -13.9671h 0.181345v -0.743714h 0.181345v 14.7108h 0.181345v -7.40065h 0.181345v -4.96045h 0.181345v 1.79538h 0.181345v 2.03544h 0.181345v 1.12964h 0.181345v -6.56648h 0.36269v 12.1717h 0.181345v -10.5657h 0.181345v 8.9597h 0.181345v
 1.60602h 0.181345v -3.05885h 0.181345v -7.50688h 0.181345v 6.18055h 0.181345v -2.34974h 0.181345v -8.21599h 0.181345v 6.18055h 0.181345v -0.924108h 0.36269v 0.924108h 0.181345v 4.38517h 0.181345v -3.4014h 0.181345v 3.4014h 0.36269v -8.53029h
 0.181345v 5.12889h 0.181345v -1.90788h 0.181345v 0.924108h 0.181345v 3.16507h 0.181345v -1.12964h 0.181345v -5.43684h 0.181345v 2.4773h 0.181345v -1.69543h 0.181345v -4.18327h 0.181345v 6.80281h 0.181345v 3.16507h 0.181345v -1.12964h 0.181345v
 -4.65497h 0.181345v 5.78461h 0.36269v -8.0193h 0.181345v 12.0186h 0.181345v -6.18055h 0.181345v -5.12889h 0.181345v 11.3094h 0.181345v -8.9597h 0.36269v 2.77915h 0.181345v 1.05167h 0.181345v -7.56725h 0.181345v 7.56725h 0.181345v -7.56725h 0.181345v
 8.69688h 0.181345v -4.96045h 0.181345v -0.824153h 0.181345v 4.65497h 0.181345v -11.6174h 0.181345v 15.2935h 0.181345v -5.7115h 0.181345v -0.924108h 0.544034v 1.90788h 0.181345v -0.983768h 0.181345v -0.924108h 0.181345v -2.4773h 0.181345v 5.43684h
 0.181345v -6.18055h 0.181345v 9.85662h 0.181345v -11.2433h 0.181345v 6.51558h 0.181345v 3.4014h 0.181345v -2.34974h 0.181345v 1.12964h 0.181345v -4.08918h 0.181345v -2.4773h 0.181345v -2.77915h 0.181345v 3.56102h 0.181345v 1.69543h 0.181345v
 6.63561h 0.36269v -4.72773h 0.181345v 2.1813h 0.181345v 2.54643h 0.181345v -4.72773h 0.181345v 1.05167h 0.181345v -4.65497h 0.181345v 0.824153h 0.181345v 6.18055h 0.181345v -4.38517h 0.181345v -3.4014h 0.181345v 10.5657h 0.181345v -2.77915h
 0.181345v -2.34974h 0.181345v 6.73491h 0.181345v 1.79538h 0.181345v -9.58196h 0.181345v -1.90788h 0.181345v 13.5253h 0.181345v -6.88966h 0.181345v -7.50688h 0.181345v 7.50688h 0.181345v -2.54643h 0.181345v 2.54643h 0.36269v -1.32632h 0.181345v
 1.32632h 0.181345v -3.67606h 0.181345v 1.12964h 0.181345v 11.7858h 0.181345v -15.875h 0.181345v 2.95954h 0.181345v 3.67606h 0.181345v 3.05885h 0.181345v -4.38517h 0.181345v -2.34974h 0.36269v -2.03544h 0.181345v 4.38517h 0.181345v -3.4014h 0.181345v
 -0.983768h 0.181345v 5.7115h 0.181345v -6.63561h 0.181345v 15.875h 0.181345v -7.78658h 0.181345v -8.08843h 0.181345v -3.22101h 0.181345v 6.18055h 0.181345v 6.73491h 0.181345v -1.60602h 0.181345v -3.99925h 0.36269v 14.565h 0.181345v -15.6946h
 0.181345v 8.53029h 0.181345v -4.85423h 0.181345v -1.32632h 0.181345v -5.30928h 0.181345v 2.95954h 0.181345v 3.67606h 0.181345v -3.67606h 0.181345v -1.05167h 0.181345v 2.1813h 0.181345v 5.60527h 0.181345v -1.60602h 0.181345v -5.12889h 0.181345v
 3.67606h 0.181345v -1.32632h 0.181345v 2.77915h 0.181345v 3.4014h 0.181345v -4.85423h 0.181345v -2.54643h 0.181345v 7.40065h 0.181345v -3.4014h 0.36269v -5.12889h 0.181345v -1.05167h 0.181345v 9.58196h 0.181345v -6.18055h 0.181345v -5.30928h
 0.181345v 9.69445h 0.181345v 12.3611h 0.181345v 4.38517h 0.181345v -10.5657h 0.544034v 2.77915h 0.181345v -7.16432h 0.181345v 2.03544h 0.181345v 5.12889h 0.181345v -16.7463h 0.181345v 4.72773h 0.181345v 12.0186h 0.181345v -5.12889h 0.181345v
 -5.43684h 0.181345v 7.78658h 0.181345v -10.5657h 0.181345v 6.18055h 0.36269v -1.79538h 0.181345v 8.9597h 0.181345v 13.9671h 0.181345v -10.5657h 0.181345v -3.4014h 0.181345v -2.77915h 0.181345v -10.5657h 0.181345v 27.312h 0.181345v -16.7463h
 0.181345v 10.5657h 0.181345v -7.78658h 0.181345v 13.9671h 0.181345v -22.9268h 0.181345v 6.18055h 0.36269v -2.34974h 0.181345v 5.12889h 0.181345v -7.16432h 0.181345v 2.03544h 0.181345v -2.03544h 0.181345v 10.5657h 0.181345v -6.18055h 0.181345v
 2.77915h 0.36269v -7.16432h 0.544034v -1.79538h 0.181345v 12.3611h 0.181345v -3.4014h 0.181345v -13.3449h 0.181345v 2.77915h 0.181345v 13.9671h 0.181345v -3.4014h 0.181345v -14.565h 0.181345v 5.60527h 0.181345v 22.9268h 0.181345v -21.1315h 0.181345v
 4.38517h 0.181345v 2.77915h 0.181345v -8.9597h 0.181345v 12.3611h 0.181345v -10.5657h 0.181345v 10.5657h 0.181345v -15.42h 0.181345v 4.85423h 0.181345v -10.5657h 0.181345v 12.6012h 0.36269v -6.88966h 0.181345v 9.2394h 0.181345v 6.18055h 0.181345v
 -16.7463h 0.181345v -1.2201h 0.181345v 11.7858h 0.181345v -4.38517h 0.181345v 7.16432h 0.181345v 13.9671h 0.181345v -6.18055h 0.181345v -19.8051h 0.181345v 15.42h 0.36269v -13.9671h 0.181345v -1.45282h 0.181345v 4.85423h 0.181345v 4.38517h 0.36269v
 -2.34974h 0.181345v -3.83082h 0.181345v 1.79538h 0.544034v -6.18055h 0.181345v 6.18055h 0.181345v -1.79538h 0.181345v 6.18055h 0.181345v -6.18055h 0.181345v 3.83082h 0.36269v -2.03544h 0.181345v -1.79538h 0.181345v 3.83082h 0.181345v -6.88966h
 0.181345v 6.88966h 0.181345v 8.53029h 0.36269v -10.5657h 0.181345v 2.03544h 0.181345v 5.12889h 0.544034v -12.0186h 0.181345v 4.85423h 0.181345v 7.16432h 0.181345v -12.0186h 0.181345v 6.88966h 0.181345v 2.34974h 0.181345v -9.2394h 0.181345v 19.8051h
 0.181345v -7.78658h 0.181345v -7.16432h 0.181345v 2.03544h 0.181345v 8.53029h 0.181345v -8.53029h 0.544034v -6.88966h 0.181345v 19.8051h 0.181345v -21.1315h 0.181345v 8.21599h 0.181345v 2.34974h 0.181345v -4.38517h 0.36269v -4.85423h 0.181345v
 6.88966h 0.181345v -5.43684h 0.181345v 1.60602h 0.181345v -10.5657h 0.181345v 8.9597h 0.181345v -6.18055h 0.181345v 2.1813h 0.36269v 7.40065h 0.181345v 2.03544h 0.181345v -5.43684h 0.181345v 7.78658h 0.181345v -6.18055h 0.36269v -1.60602h 0.181345v
 -10.5657h 0.181345v 12.1717h 0.181345v -4.38517h 0.181345v -1.2201h 0.181345v -3.16507h 0.181345v 5.7115h 0.181345v 4.85423h 0.181345v -6.18055h 0.181345v -1.2201h 0.36269v -1.12964h 0.181345v 12.9155h 0.181345v -9.2394h 0.181345v -5.7115h 0.181345v
 5.7115h 0.544034v 6.88966h 0.181345v -11.6174h 0.181345v 2.1813h 0.544034v 1.2201h 0.181345v 6.18055h 0.181345v -9.58196h 0.181345v 6.18055h 0.181345v -2.77915h 0.181345v 1.32632h 0.181345v 1.45282h 0.36269v -5.12889h 0.181345v -2.03544h 0.181345v
 5.7115h 0.181345v -1.32632h 0.181345v -5.30928h 0.181345v 6.63561h 0.181345v -2.54643h 0.181345v 3.99925h 0.181345v -1.45282h 0.181345v -4.72773h 0.181345v 1.05167h 0.36269v 2.34974h 0.181345v -5.30928h 0.181345v -3.93012h 0.181345v 6.88966h
 0.181345v 5.12889h 0.181345v -3.99925h 0.181345v 3.99925h 0.181345v -7.16432h 0.181345v 4.38517h 0.36269v -5.30928h 0.181345v 2.95954h 0.181345v 3.67606h 0.181345v 1.45282h 0.181345v -2.77915h 0.181345v 4.38517h 0.181345v 1.79538h 0.181345v -3.4014h
 0.181345v 3.4014h 0.181345v -1.79538h 0.181345v -5.60527h 0.181345v 3.99925h 0.181345v 7.78658h 0.181345v -6.18055h 0.181345v -1.60602h 0.181345v 1.60602h 0.181345v 12.3611h 0.181345v -3.4014h 0.181345v -5.12889h 0.181345v -2.03544h 0.181345v
 10.5657h 0.181345v -8.53029h 0.181345v 29.6617h 0.181345v -16.7463h 0.181345v -7.78658h 0.36269v 7.78658h 0.181345v 16.7463h 0.181345v -21.1315h 0.181345v -12.3611h 0.181345v 44.0583h 0.181345v -37.8777h 0.181345v 6.18055h 0.181345v 4.38517h
 0.906724v 6.18055h 0.181345v 21.1315h 0.181345v -21.1315h 0.181345v -6.18055h 0.36269v -4.38517h 0.181345v 10.5657h 0.181345v 21.1315h 0.181345v -27.312h 0.181345v 16.7463h 0.181345v 10.5657h 0.181345v -21.1315h 0.181345v 21.1315h 0.181345v
 -10.5657h 0.181345v 10.5657h 0.181345v -31.6972h 0.181345v 31.6972h 0.181345v -21.1315h 0.181345v 21.1315h 0.181345v -10.5657h 0.36269v 10.5657h 0.181345v -10.5657h 0.36269v 10.5657h 0.36269v -10.5657h 0.181345v -21.1315h 0.181345v 31.6972h
 0.181345v -27.312h 0.181345v 27.312h 0.181345v -10.5657h 0.181345v 10.5657h 0.181345v -10.5657h 0.181345v -10.5657h 0.36269v -6.18055h 0.181345v 16.7463h 0.181345v 10.5657h 0.36269v -10.5657h 0.181345v 10.5657h 0.544034v -21.1315h 0.181345v 21.1315h
 0.181345v -10.5657h 0.36269v 10.5657h 0.181345v -10.5657h 0.181345v -10.5657h 0.36269v 21.1315h 0.181345v -10.5657h 0.181345v 10.5657h 0.181345v -10.5657h 0.181345v 10.5657h 0.36269v -10.5657h 0.181345v 10.5657h 0.181345v -10.5657h 0.181345v
 10.5657h 0.544034v -10.5657h 0.181345v -10.5657h 0.181345v 10.5657h 0.36269v 10.5657h 0.544034v -10.5657h 0.544034v 10.5657h 0.725379v -27.312h 0.181345v 27.312h 0.36269v -10.5657h 0.544034v -10.5657h 0.181345v 10.5657h 0.36269v 10.5657h 0.36269v
 -21.1315h 0.181345v 10.5657h 0.181345v -10.5657h 0.181345v 10.5657h 0.181345v 10.5657h 0.181345v -10.5657h 0.181345v -10.5657h 0.181345v 21.1315h 0.36269v -10.5657h 0.36269v 10.5657h 0.181345v -21.1315h 0.181345v 10.5657h 0.36269v 10.5657h 0.36269v
 -10.5657h 0.181345v 10.5657h 0.36269v -10.5657h 0.181345v 10.5657h 0.181345v -10.5657h 0.181345v 10.5657h 0.181345v -10.5657h 0.181345v 10.5657h 0.725379v -10.5657h 0.181345v 10.5657h 0.181345v -10.5657h 0.181345v 10.5657h 0.181345v -10.5657h
 0.181345v 10.5657h 0.181345v -10.5657h 0.181345v 10.5657h 0.36269v -21.1315h 0.181345v 21.1315h 0.181345v -10.5657h 0.36269v 10.5657h 0.181345v -21.1315h 0.181345v 21.1315h 0.36269v -27.312h 0.181345v 27.312h 0.36269v -10.5657h 0.36269v -10.5657h
 0.181345v 21.1315h 0.906724v -21.1315h 0.181345v 21.1315h 0.544034v -10.5657h 0.36269v -10.5657h 0.36269v 10.5657h 0.181345v -10.5657h 0.181345v 21.1315h 1.26941v -10.5657h 0.181345v -10.5657h 0.181345v 21.1315h 0.181345v -21.1315h 0.181345v
 21.1315h 0.36269v -21.1315h 0.181345v 21.1315h 0.181345v -10.5657h 0.36269v 10.5657h 0.36269v -21.1315h 0.181345v 21.1315h 0.181345v -10.5657h 0.36269v -10.5657h 0.181345v 10.5657h 0.36269v 10.5657h 0.181345v -10.5657h 0.181345v 10.5657h 0.181345v
 -10.5657h 0.181345v 10.5657h 0.36269v -10.5657h 0.181345v 10.5657h 0.36269v -10.5657h 0.181345v 10.5657h 0.36269v -10.5657h 0.544034v 10.5657h 0.36269v -10.5657h 0.181345v 10.5657h 0.544034v -10.5657h 0.36269v 10.5657h 0.544034v -10.5657h 0.544034v
 -10.5657h 0.36269v 10.5657h 0.181345v 10.5657h 0.36269v -27.312h 0.181345v 27.312h 0.544034v -10.5657h 0.544034v 10.5657h 0.544034v -10.5657h 0.725379v -10.5657h 0.181345v -10.5657h 0.181345v 21.1315h 0.181345v 10.5657h 0.725379v -10.5657h 0.181345v
 10.5657h 0.36269v -21.1315h 0.181345v 21.1315h 0.181345v -10.5657h 0.181345v 10.5657h 0.181345v -21.1315h 0.181345v 10.5657h 0.181345v 10.5657h 0.36269v -10.5657h 0.181345v 10.5657h 0.36269v -10.5657h 0.181345v 10.5657h 0.181345v -10.5657h 0.181345v
 10.5657h 0.36269v -10.5657h 0.181345v 10.5657h 0.181345v -10.5657h 0.36269v 10.5657h 0.181345" fill="none" stroke="black"/>
<path d="M57.1929,280.151h 453.543" fill="none" stroke="black"/>
<path d="M57.1929,272.68v 7.47068" fill="none" stroke="black"/>
<path d="M75.3318,276.415v 3.73534" fill="none" stroke="black"/>
<path d="M93.4707,276.415v 3.73534" fill="none" stroke="black"/>
<path d="M111.61,276.415v 3.73534" fill="none" stroke="black"/>
<path d="M129.749,276.415v 3.73534" fill="none" stroke="black"/>
<path d="M147.887,272.68v 7.47068" fill="none" stroke="black"/>
<path d="M166.026,276.415v 3.73534" fill="none" stroke="black"/>
<path d="M184.165,276.415v 3.73534" fill="none" stroke="black"/>
<path d="M202.304,276.415v 3.73534" fill="none" stroke="black"/>
<path d="M220.443,276.415v 3.73534" fill="none" stroke="black"/>
<path d="M238.582,272.68v 7.47068" fill="none" stroke="black"/>
<path d="M256.721,276.415v 3.73534" fill="none" stroke="black"/>
<path d="M274.86,276.415v 3.73534" fill="none" stroke="black"/>
<path d="M292.999,276.415v 3.73534" fill="none" stroke="black"/>
<path d="M311.138,276.415v 3.73534" fill="none" stroke="black"/>
<path d="M329.277,272.68v 7.47068" fill="none" stroke="black"/>
<path d="M347.415,276.415v 3.73534" fill="none" stroke="black"/>
<path d="M365.554,276.415v 3.73534" fill="none" stroke="black"/>
<path d="M383.693,276.415v 3.73534" fill="none" stroke="black"/>
<path d="M401.832,276.415v 3.73534" fill="none" stroke="black"/>
<path d="M419.971,272.68v 7.47068" fill="none" stroke="black"/>
<path d="M438.11,276.415v 3.73534" fill="none" stroke="black"/>
<path d="M456.249,276.415v 3.73534" fill="none" stroke="black"/>
<path d="M474.388,276.415v 3.73534" fill="none" stroke="black"/>
<path d="M492.527,276.415v 3.73534" fill="none" stroke="black"/>
<path d="M510.666,272.68v 7.47068" fill="none" stroke="black"/>
<path d="M510.666,272.68v 7.47068" fill="none" stroke="black"/>
<text xml:space="preserve" x="54.3523" y="290.27" fill="black" font-size="10.4952" font-family="Helvetica">0</text>
<text xml:space="preserve" x="139.569" y="290.27" fill="black" font-size="10.4952" font-family="Helvetica">500</text>
<text xml:space="preserve" x="227.449" y="290.27" fill="black" font-size="10.4952" font-family="Helvetica">1000</text>
<text xml:space="preserve" x="318.288" y="290.27" fill="black" font-size="10.4952" font-family="Helvetica">1500</text>
<text xml:space="preserve" x="408.831" y="290.27" fill="black" font-size="10.4952" font-family="Helvetica">2000</text>
<text xml:space="preserve" x="499.67" y="290.27" fill="black" font-size="10.4952" font-family="Helvetica">2500</text>
<text xml:space="preserve" x="265.323" y="301.218" fill="black" font-size="10.4952" font-family="Helvetica">Channel</text>
<path d="M57.1929,280.151v -249.023" fill="none" stroke="black"/>
<path d="M63.9961,280.151h -6.80315" fill="none" stroke="black"/>
<path d="M63.9961,277.371h -6.80315" fill="none" stroke="black"/>
<path d="M63.9961,275.022h -6.80315" fill="none" stroke="black"/>
<path d="M63.9961,272.986h -6.80315" fill="none" stroke="black"/>
<path d="M63.9961,271.191h -6.80315" fill="none" stroke="black"/>
<path d="M70.7992,269.585h -13.6063" fill="none" stroke="black"/>
<text xml:space="preserve" x="49.0263" y="273.404" fill="black" font-size="10.4952" font-family="Helvetica">1</text>
<path d="M63.9961,259.019h -6.80315" fill="none" stroke="black"/>
<path d="M63.9961,252.839h -6.80315" fill="none" stroke="black"/>
<path d="M63.9961,248.453h -6.80315" fill="none" stroke="black"/>
<path d="M63.9961,245.052h -6.80315" fill="none" stroke="black"/>
<path d="M63.9961,242.273h -6.80315" fill="none" stroke="black"/>
<path d="M63.9961,239.923h -6.80315" fill="none" stroke="black"/>
<path d="M63.9961,237.888h -6.80315" fill="none" stroke="black"/>
<path d="M63.9961,236.092h -6.80315" fill="none" stroke="black"/>
<path d="M70.7992,234.486h -13.6063" fill="none" stroke="black"/>
<text xml:space="preserve" x="41.629" y="238.193" fill="black" font-size="10.4952" font-family="Helvetica">10</text>
<path d="M63.9961,223.921h -6.80315" fill="none" stroke="black"/>
<path d="M63.9961,217.74h -6.80315" fill="none" stroke="black"/>
<path d="M63.9961,213.355h -6.80315" fill="none" stroke="black"/>
<path d="M63.9961,209.953h -6.80315" fill="none" stroke="black"/>
<path d="M63.9961,207.174h -6.80315" fill="none" stroke="black"/>
<path d="M63.9961,204.824h -6.80315" fill="none" stroke="black"/>
<path d="M63.9961,202.789h -6.80315" fill="none" stroke="black"/>
<path d="M63.9961,200.994h -6.80315" fill="none" stroke="black"/>
<path d="M70.7992,199.388h -13.6063" fill="none" stroke="black"/>
<text xml:space="preserve" x="49.0263" y="199.431" fill="black" font-size="7.16345" font-family="Helvetica">2</text>
<text xml:space="preserve" x="38.0783" y="203.87" fill="black" font-size="10.4952" font-family="Helvetica">10</text>
<path d="M63.9961,188.822h -6.80315" fill="none" stroke="black"/>
<path d="M63.9961,182.641h -6.80315" fill="none" stroke="black"/>
<path d="M63.9961,178.256h -6.80315" fill="none" stroke="black"/>
<path d="M63.9961,174.855h -6.80315" fill="none" stroke="black"/>
<path d="M63.9961,172.076h -6.80315" fill="none" stroke="black"/>
<path d="M63.9961,169.726h -6.80315" fill="none" stroke="black"/>
<path d="M63.9961,167.69h -6.80315" fill="none" stroke="black"/>
<path d="M63.9961,165.895h -6.80315" fill="none" stroke="black"/>
<path d="M70.7992,164.289h -13.6063" fill="none" stroke="black"/>
<text xml:space="preserve" x="49.0263" y="164.22" fill="black" font-size="7.16345" font-family="Helvetica">3</text>
<text xml:space="preserve" x="38.0783" y="168.954" fill="black" font-size="10.4952" font-family="Helvetica">10</text>
<path d="M63.9961,153.723h -6.80315" fill="none" stroke="black"/>
<path d="M63.9961,147.543h -6.80315" fill="none" stroke="black"/>
<path d="M63.9961,143.158h -6.80315" fill="none" stroke="black"/>
<path d="M63.9961,139.756h -6.80315" fill="none" stroke="black"/>
<path d="M63.9961,136.977h -6.80315" fill="none" stroke="black"/>
<path d="M63.9961,134.627h -6.80315" fill="none" stroke="black"/>
<path d="M63.9961,132.592h -6.80315" fill="none" stroke="black"/>
<path d="M63.9961,130.797h -6.80315" fill="none" stroke="black"/>
<path d="M70.7992,129.19h -13.6063" fill="none" stroke="black"/>
<text xml:space="preserve" x="49.0263" y="129.305" fill="black" font-size="7.16345" font-family="Helvetica">4</text>
<text xml:space="preserve" x="38.0783" y="133.743" fill="black" font-size="10.4952" font-family="Helvetica">10</text>
<path d="M63.9961,118.625h -6.80315" fill="none" stroke="black"/>
<path d="M63.9961,112.444h -6.80315" fill="none" stroke="black"/>
<path d="M63.9961,108.059h -6.80315" fill="none" stroke="black"/>
<path d="M63.9961,104.658h -6.80315" fill="none" stroke="black"/>
<path d="M63.9961,101.878h -6.80315" fill="none" stroke="black"/>
<path d="M63.9961,99.5288h -6.80315" fill="none" stroke="black"/>
<path d="M63.9961,97.4933h -6.80315" fill="none" stroke="black"/>
<path d="M63.9961,95.6979h -6.80315" fill="none" stroke="black"/>
<path d="M70.7992,94.0919h -13.6063" fill="none" stroke="black"/>
<text xml:space="preserve" x="49.0263" y="93.7978" fill="black" font-size="7.16345" font-family="Helvetica">5</text>
<text xml:space="preserve" x="38.0783" y="98.532" fill="black" font-size="10.4952" font-family="Helvetica">10</text>
<path d="M63.9961,83.5262h -6.80315" fill="none" stroke="black"/>
<path d="M63.9961,77.3456h -6.80315" fill="none" stroke="black"/>
<path d="M63.9961,72.9605h -6.80315" fill="none" stroke="black"/>
<path d="M63.9961,69.5591h -6.80315" fill="none" stroke="black"/>
<path d="M63.9961,66.7799h -6.80315" fill="none" stroke="black"/>
<path d="M63.9961,64.4302h -6.80315" fill="none" stroke="black"/>
<path d="M63.9961,62.3947h -6.80315" fill="none" stroke="black"/>
<path d="M63.9961,60.5994h -6.80315" fill="none" stroke="black"/>
<path d="M70.7992,58.9933h -13.6063" fill="none" stroke="black"/>
<text xml:space="preserve" x="49.0263" y="58.8825" fill="black" font-size="7.16345" font-family="Helvetica">6</text>
<text xml:space="preserve" x="38.0783" y="63.6168" fill="black" font-size="10.4952" font-family="Helvetica">10</text>
<path d="M63.9961,48.4276h -6.80315" fill="none" stroke="black"/>
<path d="M63.9961,42.2471h -6.80315" fill="none" stroke="black"/>
<path d="M63.9961,37.8619h -6.80315" fill="none" stroke="black"/>
<path d="M63.9961,34.4605h -6.80315" fill="none" stroke="black"/>
<path d="M63.9961,31.6813h -6.80315" fill="none" stroke="black"/>
<g transform="rotate(-90,26.5385,191.442)">
<text xml:space="preserve" x="26.5385" y="191.442" fill="black" font-size="10.4952" font-family="Helvetica">Counts/Channel</text>
</g>
<text xml:space="preserve" x="404.097" y="58.8825" fill="black" font-size="14.7788" font-family="Helvetica" font-weight="bold"> = 2.4879 MeV</text>
<text xml:space="preserve" x="398.179" y="62.1373" fill="black" font-size="10.0192" font-family="Helvetica" font-weight="bold">p</text>
<text xml:space="preserve" x="389.006" y="58.8825" fill="black" font-size="14.7788" font-family="Helvetica" font-weight="bold">E</text>
<path d="M262.163,162.836v 26.4023" fill="none" stroke="black"/>
<path d="M264.454,189.239l -2.29122, 3.9685l -2.29122, -3.9685z" fill="black"/>
<path d="M264.454,189.239l -2.29122, 3.9685l -2.29122, -3.9685h 4.58243z" fill="none" stroke="black"/>
<text xml:space="preserve" x="266.803" y="160.669" fill="black" font-size="10.4952" font-family="Helvetica" font-weight="bold">_1 	1.369 MeV</text>
<text xml:space="preserve" x="260.293" y="160.669" fill="black" font-size="10.4952" font-family="Times">&#0945;</text>
<path d="M184.528,129.191v 31.1301" fill="none" stroke="black"/>
<path d="M186.819,160.321l -2.29122, 3.9685l -2.29122, -3.9685z" fill="black"/>
<path d="M186.819,160.321l -2.29122, 3.9685l -2.29122, -3.9685h 4.58243z" fill="none" stroke="black"/>
<text xml:space="preserve" x="172.117" y="126.346" fill="black" font-size="10.4952" font-family="Helvetica" font-weight="bold"># p_1 	0.844 MeV</text>
<path d="M210.104,147.543v 12.7778" fill="none" stroke="black"/>
<path d="M212.395,160.321l -2.29122, 3.9685l -2.29122, -3.9685z" fill="black"/>
<path d="M212.395,160.321l -2.29122, 3.9685l -2.29122, -3.9685h 4.58243z" fill="none" stroke="black"/>
<text xml:space="preserve" x="197.564" y="142.916" fill="black" font-size="10.4952" font-family="Helvetica" font-weight="bold"># p_2 	1.015 MeV</text>
<path d="M497.503,269.585h 13.1621" fill="none" stroke="black"/>
<path d="M504.085,259.019h 6.58105" fill="none" stroke="black"/>
<path d="M504.085,252.839h 6.58105" fill="none" stroke="black"/>
<path d="M504.085,248.453h 6.58105" fill="none" stroke="black"/>
<path d="M504.085,245.052h 6.58105" fill="none" stroke="black"/>
<path d="M504.085,242.273h 6.58105" fill="none" stroke="black"/>
<path d="M504.085,239.923h 6.58105" fill="none" stroke="black"/>
<path d="M504.085,237.888h 6.58105" fill="none" stroke="black"/>
<path d="M504.085,236.092h 6.58105" fill="none" stroke="black"/>
<path d="M497.503,234.486h 13.1621" fill="none" stroke="black"/>
<path d="M504.085,223.921h 6.58105" fill="none" stroke="black"/>
<path d="M504.085,217.74h 6.58105" fill="none" stroke="black"/>
<path d="M504.085,213.355h 6.58105" fill="none" stroke="black"/>
<path d="M504.085,209.953h 6.58105" fill="none" stroke="black"/>
<path d="M504.085,207.174h 6.58105" fill="none" stroke="black"/>
<path d="M504.085,204.824h 6.58105" fill="none" stroke="black"/>
<path d="M504.085,202.789h 6.58105" fill="none" stroke="black"/>
<path d="M504.085,200.994h 6.58105" fill="none" stroke="black"/>
<path d="M497.503,199.388h 13.1621" fill="none" stroke="black"/>
<path d="M504.085,188.822h 6.58105" fill="none" stroke="black"/>
<path d="M504.085,182.641h 6.58105" fill="none" stroke="black"/>
<path d="M504.085,178.256h 6.58105" fill="none" stroke="black"/>
<path d="M504.085,174.855h 6.58105" fill="none" stroke="black"/>
<path d="M504.085,172.076h 6.58105" fill="none" stroke="black"/>
<path d="M504.085,169.726h 6.58105" fill="none" stroke="black"/>
<path d="M504.085,167.69h 6.58105" fill="none" stroke="black"/>
<path d="M504.085,165.895h 6.58105" fill="none" stroke="black"/>
<path d="M497.503,164.289h 13.1621" fill="none" stroke="black"/>
<path d="M504.085,153.723h 6.58105" fill="none" stroke="black"/>
<path d="M504.085,147.543h 6.58105" fill="none" stroke="black"/>
<path d="M504.085,143.158h 6.58105" fill="none" stroke="black"/>
<path d="M504.085,139.756h 6.58105" fill="none" stroke="black"/>
<path d="M504.085,136.977h 6.58105" fill="none" stroke="black"/>
<path d="M504.085,134.627h 6.58105" fill="none" stroke="black"/>
<path d="M504.085,132.592h 6.58105" fill="none" stroke="black"/>
<path d="M504.085,130.797h 6.58105" fill="none" stroke="black"/>
<path d="M497.503,129.19h 13.1621" fill="none" stroke="black"/>
<path d="M504.085,118.625h 6.58105" fill="none" stroke="black"/>
<path d="M504.085,112.444h 6.58105" fill="none" stroke="black"/>
<path d="M504.085,108.059h 6.58105" fill="none" stroke="black"/>
<path d="M504.085,104.658h 6.58105" fill="none" stroke="black"/>
<path d="M504.085,101.878h 6.58105" fill="none" stroke="black"/>
<path d="M504.085,99.5288h 6.58105" fill="none" stroke="black"/>
<path d="M504.085,97.4933h 6.58105" fill="none" stroke="black"/>
<path d="M504.085,95.6979h 6.58105" fill="none" stroke="black"/>
<path d="M497.503,94.0919h 13.1621" fill="none" stroke="black"/>
<path d="M504.085,83.5262h 6.58105" fill="none" stroke="black"/>
<path d="M504.085,77.3456h 6.58105" fill="none" stroke="black"/>
<path d="M504.085,72.9605h 6.58105" fill="none" stroke="black"/>
<path d="M504.085,69.5591h 6.58105" fill="none" stroke="black"/>
<path d="M504.085,66.7799h 6.58105" fill="none" stroke="black"/>
<path d="M504.085,64.4302h 6.58105" fill="none" stroke="black"/>
<path d="M504.085,62.3947h 6.58105" fill="none" stroke="black"/>
<path d="M504.085,60.5994h 6.58105" fill="none" stroke="black"/>
<path d="M497.503,58.9933h 13.1621" fill="none" stroke="black"/>
<path d="M504.085,48.4276h 6.58105" fill="none" stroke="black"/>
<path d="M504.085,42.2471h 6.58105" fill="none" stroke="black"/>
<path d="M504.085,37.8619h 6.58105" fill="none" stroke="black"/>
<path d="M504.085,34.4605h 6.58105" fill="none" stroke="black"/>
<path d="M504.085,31.6813h 6.58105" fill="none" stroke="black"/>
<path d="M504.085,29.3316h 6.58105" fill="none" stroke="black"/>
<path d="M57.1929,36.1615v -7.46952" fill="none" stroke="black"/>
<path d="M75.3318,36.1615v -7.46952" fill="none" stroke="black"/>
<path d="M93.4707,36.1615v -7.46952" fill="none" stroke="black"/>
<path d="M111.61,36.1615v -7.46952" fill="none" stroke="black"/>
<path d="M129.749,36.1615v -7.46952" fill="none" stroke="black"/>
<path d="M147.887,36.1615v -7.46952" fill="none" stroke="black"/>
<path d="M166.026,36.1615v -7.46952" fill="none" stroke="black"/>
<path d="M184.165,36.1615v -7.46952" fill="none" stroke="black"/>
<path d="M202.304,36.1615v -7.46952" fill="none" stroke="black"/>
<path d="M220.443,36.1615v -7.46952" fill="none" stroke="black"/>
<path d="M238.582,36.1615v -7.46952" fill="none" stroke="black"/>
<path d="M256.721,36.1615v -7.46952" fill="none" stroke="black"/>
<path d="M274.86,36.1615v -7.46952" fill="none" stroke="black"/>
<path d="M292.999,36.1615v -7.46952" fill="none" stroke="black"/>
<path d="M311.138,36.1615v -7.46952" fill="none" stroke="black"/>
<path d="M329.277,36.1615v -7.46952" fill="none" stroke="black"/>
<path d="M347.415,36.1615v -7.46952" fill="none" stroke="black"/>
<path d="M365.554,36.1615v -7.46952" fill="none" stroke="black"/>
<path d="M383.693,36.1615v -7.46952" fill="none" stroke="black"/>
<path d="M401.832,36.1615v -7.46952" fill="none" stroke="black"/>
<path d="M419.971,36.1615v -7.46952" fill="none" stroke="black"/>
<path d="M438.11,36.1615v -7.46952" fill="none" stroke="black"/>
<path d="M456.249,36.1615v -7.46952" fill="none" stroke="black"/>
<path d="M474.388,36.1615v -7.46952" fill="none" stroke="black"/>
<path d="M492.527,36.1615v -7.46952" fill="none" stroke="black"/>
<path d="M510.666,36.1615v -7.46952" fill="none" stroke="black"/></svg>
