<?xml version="1.0" standalone="no"?>
<svg width="567.429" height="311.778" viewBox="0 0 567.429 311.778" xmlns="http://www.w3.org/2000/svg" shape-rendering="crispEdges">
<title>
Yields/P1/det-11/run_0106_Fit.svg
</title>
<desc>
Creator: ROOT Version 6.12/06
CreationDate: Mon Apr 15 10:29:02 2019</desc>
<defs>
</defs>
<rect x="0.5" y="0" width="566.929" height="311.278" fill="white"/>
<rect x="57.1929" y="31.1278" width="453.543" height="249.023" fill="white"/>
<rect x="57.1929" y="31.1278" width="453.543" height="249.023" fill="none" stroke="black"/>
<rect x="57.1929" y="31.1278" width="453.543" height="249.023" fill="white"/>
<rect x="57.1929" y="31.1278" width="453.543" height="249.023" fill="none" stroke="black"/>
<path d="M57.1929,40.8851h 0.181345v 239.266h 5.98438v -10.5827h 0.181345v 10.5827h 23.3935v -10.5827h 0.181345v 10.5827h 0.181345v -10.5827h 0.36269v 10.5827h 0.181345v -10.5827h 0.181345v -16.7732h 0.181345v 27.3559h 0.36269v -10.5827h 0.181345v
 -24.5723h 0.181345v -21.9103h 0.181345v -10.5827h 0.181345v -10.7634h 0.181345v -6.83527h 0.181345v -9.13901h 0.181345v -4.64251h 0.181345v -2.24674h 0.181345v -2.02866h 0.181345v -2.13077h 0.181345v -0.272914h 0.181345v -2.23282h 0.181345v
 -1.00481h 0.181345v 0.394024h 0.181345v -0.990025h 0.181345v -0.841466h 0.181345v -1.33399h 0.181345v 0.726671h 0.181345v -0.148128h 0.181345v -0.497225h 0.181345v -0.658274h 0.181345v -0.423592h 0.181345v 0.152677h 0.181345v -0.527821h 0.181345v
 0.995233h 0.181345v -0.313192h 0.181345v -1.40576h 0.181345v 0.357571h 0.181345v -0.144035h 0.181345v -0.301636h 0.181345v 1.14903h 0.181345v -0.35573h 0.181345v -0.0369676h 0.181345v -0.292562h 0.181345v 0.0181218h 0.181345v 0.072703h 0.181345v
 0.312909h 0.181345v 0.0372381h 0.181345v -0.313666h 0.181345v 0.276428h 0.181345v 0.300479h 0.181345v -1.09755h 0.181345v 0.797066h 0.181345v -0.832326h 0.181345v 0.159316h 0.181345v 0.935605h 0.181345v -0.539022h 0.181345v -0.921295h 0.181345v
 1.17914h 0.181345v 0.471551h 0.181345v 0.0191684h 0.181345v -0.63859h 0.181345v 0.147871h 0.181345v 2.15055h 0.181345v -1.90717h 0.181345v -0.168912h 0.181345v 1.12284h 0.181345v -0.396583h 0.181345v -1.97987h 0.181345v 1.32845h 0.181345v -0.696602h
 0.181345v -0.562925h 0.181345v -0.609431h 0.181345v -2.13383h 0.181345v -2.23763h 0.181345v -1.0359h 0.181345v -2.65497h 0.181345v -1.91094h 0.181345v -3.25412h 0.181345v -1.50076h 0.181345v -3.43972h 0.181345v -1.05807h 0.181345v -1.53588h
 0.181345v -1.26656h 0.181345v -0.663663h 0.181345v -0.654006h 0.181345v 0.159077h 0.181345v 1.01032h 0.181345v 1.76384h 0.181345v 1.53951h 0.181345v 1.51941h 0.181345v 2.93883h 0.181345v 2.65888h 0.181345v 3.60602h 0.181345v 3.82863h 0.181345v
 3.67174h 0.181345v 2.51874h 0.181345v 2.435h 0.181345v 3.91574h 0.181345v 1.33621h 0.181345v 0.763539h 0.181345v 1.4356h 0.181345v 1.46591h 0.181345v 0.359254h 0.36269v 0.958445h 0.181345v 0.173006h 0.181345v -0.722107h 0.181345v 1.48007h 0.181345v
 -0.494722h 0.181345v 0.540502h 0.181345v -0.540502h 0.181345v 0.678672h 0.181345v -0.985348h 0.181345v 0.61964h 0.181345v 0.273457h 0.181345v 1.39549h 0.181345v -1.30324h 0.181345v -0.365708h 0.181345v 0.0906092h 0.181345v 1.22964h 0.36269v
 0.198283h 0.181345v -0.198283h 0.181345v -0.532363h 0.181345v 0.0954228h 0.181345v 0.988539h 0.181345v 1.16684h 0.181345v -2.20317h 0.181345v 0.934541h 0.181345v -1.21816h 0.181345v 0.768343h 0.181345v -0.0981843h 0.181345v 0.147514h 0.181345v
 2.23048h 0.181345v -0.725836h 0.181345v -1.00238h 0.181345v 2.13383h 0.181345v 0.416685h 0.181345v -2.44805h 0.181345v 1.00936h 0.181345v 1.1399h 0.181345v -0.694101h 0.181345v 0.0566516h 0.181345v 0.876011h 0.181345v 0.488605h 0.181345v -0.608351h
 0.181345v -0.411868h 0.36269v -1.3864h 0.181345v 1.85802h 0.181345v -1.53658h 0.181345v 2.91411h 0.181345v -1.13613h 0.181345v 1.40051h 0.181345v -0.905971h 0.181345v -0.914501h 0.181345v 1.88729h 0.181345v -1.16012h 0.181345v 0.124634h 0.181345v
 2.65898h 0.181345v -1.0086h 0.181345v -1.20596h 0.181345v 2.06634h 0.181345v -2.06634h 0.181345v 0.725595h 0.181345v 1.19394h 0.181345v -0.852366h 0.181345v -1.63621h 0.181345v 2.27098h 0.181345v -1.63738h 0.181345v -0.508967h 0.181345v 1.93181h
 0.181345v -0.211564h 0.181345v 1.70227h 0.181345v -1.4907h 0.181345v 1.18069h 0.181345v -1.18069h 0.181345v -0.420236h 0.181345v 0.562925h 0.181345v -1.5007h 0.181345v 1.93695h 0.181345v -0.649783h 0.181345v 0.357571h 0.181345v 1.28248h 0.181345v
 -2.1953h 0.181345v 2.35351h 0.181345v -1.86878h 0.181345v -0.552734h 0.181345v -0.53342h 0.181345v 0.331197h 0.181345v 1.11086h 0.181345v -1.89399h 0.181345v -1.79826h 0.181345v 1.79826h 0.181345v -2.24407h 0.181345v 0.846849h 0.181345v -1.28h
 0.181345v -0.316986h 0.181345v 0.805157h 0.181345v -2.05936h 0.181345v 0.0482389h 0.36269v 0.591078h 0.181345v -0.49414h 0.181345v 1.10903h 0.181345v 0.915792h 0.181345v 0.856351h 0.181345v -0.0586089h 0.181345v -0.289716h 0.181345v 0.765011h
 0.181345v 0.553012h 0.181345v 0.380126h 0.181345v 0.0642847h 0.181345v 0.725595h 0.181345v -0.465714h 0.181345v 0.807286h 0.181345v 1.5244h 0.181345v 0.863693h 0.181345v -0.477151h 0.181345v 1.73966h 0.181345v 0.718608h 0.181345v 1.64953h 0.181345v
 -3.38636h 0.181345v -1.18413h 0.181345v 3.10602h 0.181345v -2.72142h 0.181345v 2.17283h 0.181345v -2.17283h 0.181345v 0.799533h 0.181345v 1.64513h 0.181345v -0.450404h 0.181345v -0.778687h 0.181345v 3.49145h 0.181345v -3.23628h 0.181345v 0.0860149h
 0.181345v 0.706142h 0.181345v 0.273457h 0.181345v 0.185064h 0.181345v -1.75683h 0.181345v 0.85316h 0.181345v -0.6863h 0.181345v -1.05336h 0.181345v 2.18481h 0.181345v -0.706142h 0.181345v -0.171548h 0.181345v -0.74897h 0.181345v 1.26951h 0.181345v
 -2.36611h 0.181345v 3.08897h 0.181345v -0.545329h 0.181345v -0.26553h 0.181345v -2.50319h 0.181345v 0.376997h 0.181345v -1.03299h 0.181345v 4.43985h 0.181345v -6.06272h 0.181345v 4.95855h 0.181345v -3.54823h 0.181345v 0.428092h 0.181345v 0.218633h
 0.181345v -1.79826h 0.181345v 2.09473h 0.181345v -2.02935h 0.181345v 1.44206h 0.181345v 1.12038h 0.181345v -0.382667h 0.181345v -1.23368h 0.181345v 1.0086h 0.181345v 1.48498h 0.181345v -1.03145h 0.181345v 0.626451h 0.181345v 2.14182h 0.181345v
 -0.453078h 0.181345v -2.08328h 0.181345v 3.48496h 0.181345v -2.76729h 0.181345v -0.639574h 0.181345v 2.27542h 0.181345v 1.03389h 0.181345v -0.572602h 0.181345v 2.32232h 0.181345v -1.74972h 0.181345v -3.23081h 0.181345v 3.23081h 0.181345v 0.394024h
 0.181345v -0.966626h 0.181345v 1.16752h 0.181345v -1.62881h 0.181345v -1.22206h 0.181345v 0.862806h 0.181345v -0.523512h 0.181345v 1.81972h 0.181345v -0.287173h 0.181345v -0.0945365h 0.181345v -0.555247h 0.181345v -0.180684h 0.181345v 1.6086h
 0.181345v -0.68301h 0.181345v -1.36816h 0.181345v 4.42132h 0.181345v -5.35205h 0.181345v 3.18279h 0.181345v -0.979028h 0.181345v 1.1826h 0.181345v -4.1078h 0.181345v 2.55051h 0.181345v -1.07185h 0.181345v -0.83909h 0.181345v 1.54523h 0.181345v
 -0.445151h 0.181345v -0.0874936h 0.181345v -0.430102h 0.181345v -0.252363h 0.181345v 0.946464h 0.181345v -2.3027h 0.181345v 4.90981h 0.181345v -1.78656h 0.181345v -2.01527h 0.181345v 1.10622h 0.181345v 1.19267h 0.181345v -1.10416h 0.181345v
 0.450404h 0.181345v -0.887901h 0.36269v 0.979599h 0.181345v -0.453078h 0.181345v -0.26553h 0.181345v -1.2625h 0.181345v 0.744909h 0.181345v 1.6086h 0.181345v 1.58767h 0.181345v -1.86782h 0.181345v -1.15787h 0.181345v 0.702082h 0.181345v -1.04138h
 0.181345v 1.22206h 0.181345v 1.22964h 0.181345v -1.32024h 0.181345v -0.445151h 0.181345v -0.0874936h 0.181345v -1.17501h 0.181345v 0.829965h 0.181345v 1.52355h 0.181345v 0.972787h 0.181345v -0.972787h 0.181345v 0.285384h 0.181345v -3.57874h
 0.181345v 3.10602h 0.181345v 0.665982h 0.181345v -0.572602h 0.181345v -1.85021h 0.181345v 3.11918h 0.181345v -1.17501h 0.181345v 0.972787h 0.181345v -2.23828h 0.181345v 0.0869951h 0.181345v 1.95171h 0.181345v 1.34649h 0.181345v -0.739752h 0.181345v
 -2.55845h 0.181345v 1.27304h 0.36269v -1.00904h 0.181345v 1.00904h 0.181345v 1.38892h 0.181345v -1.94755h 0.181345v 1.13848h 0.181345v -0.389004h 0.181345v 1.94298h 0.181345v 1.24935h 0.181345v -1.35801h 0.181345v 0.218112h 0.181345v -0.750138h
 0.181345v 1.77214h 0.181345v -1.87636h 0.181345v 1.75937h 0.181345v -1.75937h 0.181345v 0.421202h 0.181345v -0.421202h 0.181345v 0.854354h 0.181345v 2.76166h 0.181345v -2.42854h 0.181345v 2.82858h 0.181345v -4.11957h 0.181345v -0.507276h 0.181345v
 3.08595h 0.181345v -0.121655h 0.181345v 3.83697h 0.181345v -4.54722h 0.181345v -0.343107h 0.181345v -1.6086h 0.181345v 1.49593h 0.181345v 0.340555h 0.181345v 2.89884h 0.181345v -1.58082h 0.181345v 0.252363h 0.181345v 1.46789h 0.181345v -1.34012h
 0.181345v 3.2791h 0.181345v -5.76038h 0.181345v 2.35351h 0.181345v 0.783125h 0.181345v -1.40638h 0.181345v 0.246257h 0.181345v 0.250294h 0.181345v -0.496551h 0.36269v -1.0615h 0.181345v 2.07129h 0.181345v -0.129938h 0.181345v -1.00151h 0.181345v
 2.92971h 0.181345v -2.18481h 0.181345v 2.93706h 0.181345v -3.43768h 0.181345v 1.41826h 0.181345v 0.832985h 0.181345v 0.730646h 0.181345v -2.09473h 0.181345v 0.5311h 0.181345v -0.917643h 0.181345v 1.19029h 0.181345v -1.19029h 0.181345v -2.57008h
 0.181345v 4.03796h 0.181345v -3.49068h 0.181345v 5.11485h 0.181345v -1.90177h 0.181345v -0.933681h 0.181345v 3.4717h 0.181345v -2.39985h 0.181345v 0.280147h 0.181345v -0.555247h 0.181345v -0.796751h 0.181345v 0.260991h 0.181345v -1.01822h 0.181345v
 1.55398h 0.181345v -0.925592h 0.181345v -1.58292h 0.181345v -0.678672h 0.181345v 4.6151h 0.181345v -1.01339h 0.181345v 1.46917h 0.181345v -2.68045h 0.181345v 1.49402h 0.181345v 1.49802h 0.181345v -2.73106h 0.181345v 0.400047h 0.181345v 0.832985h
 0.181345v 0.881067h 0.181345v -1.16381h 0.181345v -0.950291h 0.181345v -0.769958h 0.181345v 4.98768h 0.181345v -2.403h 0.181345v -0.723718h 0.181345v -1.22206h 0.181345v 1.50744h 0.181345v -0.565531h 0.181345v -2.19406h 0.181345v 0.738899h 0.181345v
 2.91032h 0.181345v 2.84481h 0.181345v -5.37181h 0.181345v -0.633601h 0.181345v -0.727166h 0.36269v 3.43648h 0.181345v -3.90271h 0.181345v 4.50744h 0.181345v 0.629681h 0.181345v -2.6491h 0.181345v 2.01941h 0.181345v -2.80929h 0.181345v 0.52202h
 0.181345v -1.1504h 0.181345v 3.43768h 0.181345v -1.04307h 0.181345v -2.27098h 0.181345v -1.97651h 0.181345v 1.6086h 0.181345v -0.120693h 0.181345v 0.488605h 0.181345v -1.64579h 0.181345v -0.439386h 0.181345v 1.96156h 0.181345v -2.80412h 0.181345v
 2.20058h 0.181345v 0.8518h 0.181345v -3.35673h 0.181345v 0.614886h 0.181345v -1.10903h 0.181345v 1.00481h 0.181345v -0.710249h 0.181345v -0.197004h 0.181345v 0.803743h 0.181345v -2.29445h 0.181345v 2.81916h 0.181345v -3.17015h 0.181345v -1.16858h
 0.181345v 0.910533h 0.181345v 0.787615h 0.181345v 0.73593h 0.181345v -0.555247h 0.181345v -1.22206h 0.181345v -0.166861h 0.181345v 1.29831h 0.181345v -0.792157h 0.181345v 1.43801h 0.181345v -2.27252h 0.181345v 0.663913h 0.181345v 0.694101h 0.181345v
 1.29621h 0.181345v -0.569045h 0.181345v -1.33621h 0.181345v 2.19793h 0.181345v -1.93988h 0.181345v -0.343107h 0.181345v -0.335565h 0.181345v -0.570057h 0.181345v -0.0797265h 0.181345v 0.649783h 0.181345v -1.34918h 0.181345v -0.668761h 0.181345v
 -0.0725303h 0.181345v -0.912818h 0.181345v -0.53576h 0.181345v -1.91481h 0.181345v -0.625576h 0.181345v 0.281179h 0.181345v -1.56313h 0.181345v -2.14719h 0.181345v -0.0444472h 0.181345v 0.133732h 0.181345v -2.04989h 0.181345v -0.194494h 0.181345v
 -1.47272h 0.181345v 0.105659h 0.181345v -2.2928h 0.181345v 0.779924h 0.181345v -0.565531h 0.181345v -1.49716h 0.181345v 1.74592h 0.181345v -0.853501h 0.181345v 0.512485h 0.181345v -1.00832h 0.181345v 1.5069h 0.181345v 0.320087h 0.181345v 0.195324h
 0.181345v 0.669739h 0.181345v -0.405358h 0.181345v 0.681702h 0.181345v 2.53468h 0.181345v -0.325721h 0.181345v 2.9212h 0.181345v -0.899747h 0.181345v 1.80401h 0.181345v 1.63738h 0.181345v 2.09643h 0.181345v 0.954536h 0.181345v 0.284057h 0.181345v
 -0.493684h 0.181345v 3.75786h 0.181345v 2.9263h 0.181345v 0.216565h 0.181345v 0.44257h 0.181345v 0.226191h 0.181345v 3.43538h 0.181345v -0.142025h 0.181345v -5.31781h 0.181345v 1.79826h 0.181345v 2.82858h 0.181345v 2.33101h 0.181345v -2.99205h
 0.181345v 1.21128h 0.181345v 1.31573h 0.181345v -0.302339h 0.181345v 2.78361h 0.181345v -3.797h 0.181345v -1.21128h 0.181345v 2.07572h 0.181345v 0.604736h 0.181345v -0.604736h 0.181345v 1.39598h 0.181345v -2.26042h 0.181345v 2.26042h 0.181345v
 -0.47965h 0.181345v -0.311594h 0.36269v 0.629681h 0.181345v -1.67275h 0.181345v 2.66882h 0.181345v -1.93111h 0.181345v -3.00869h 0.181345v 3.46906h 0.181345v -0.759739h 0.181345v 2.23048h 0.181345v 0.347006h 0.181345v -1.01822h 0.181345v -0.163291h
 0.181345v -0.161563h 0.181345v -1.38193h 0.181345v 2.90151h 0.181345v -2.90151h 0.181345v 1.70679h 0.181345v -0.163291h 0.181345v 3.86019h 0.181345v -5.97989h 0.181345v 2.44805h 0.181345v -0.489911h 0.181345v 1.34307h 0.181345v 1.47272h 0.181345v
 -3.13387h 0.181345v -1.78077h 0.181345v 3.97768h 0.181345v -1.22206h 0.181345v 0.168704h 0.181345v -0.335565h 0.181345v 2.91695h 0.181345v -2.23828h 0.181345v -0.172517h 0.36269v 2.01422h 0.181345v -4.53832h 0.181345v 1.6896h 0.181345v -1.24703h
 0.181345v -1.83149h 0.181345v 6.73098h 0.181345v -4.13211h 0.181345v 2.01623h 0.181345v -1.85802h 0.181345v 2.78361h 0.181345v -3.25342h 0.181345v 1.79826h 0.181345v -2.10363h 0.181345v 3.36912h 0.181345v -1.77731h 0.181345v -0.331917h 0.181345v
 -0.642941h 0.181345v 1.14356h 0.181345v -0.335565h 0.181345v 0.85316h 0.181345v -1.18151h 0.181345v -1.24703h 0.181345v 0.455783h 0.181345v 0.469809h 0.181345v 1.85802h 0.181345v -0.529565h 0.181345v 1.2655h 0.181345v -5.74421h 0.181345v 6.91922h
 0.181345v -4.23877h 0.181345v 0.954536h 0.181345v -0.324855h 0.181345v -1.23442h 0.181345v 2.754h 0.181345v -2.60504h 0.181345v -0.44257h 0.181345v -2.16541h 0.181345v 3.06376h 0.181345v -1.6086h 0.181345v 0.856351h 0.181345v -2.68543h 0.181345v
 -1.52217h 0.181345v 2.94043h 0.181345v -2.02181h 0.181345v -0.806778h 0.181345v -0.551237h 0.181345v -2.1197h 0.181345v -1.69319h 0.181345v -0.980075h 0.181345v 2.67326h 0.181345v -4.94746h 0.181345v -1.30572h 0.181345v -1.82605h 0.181345v
 -0.0554178h 0.181345v -1.87184h 0.181345v 1.1164h 0.181345v -3.46991h 0.181345v 1.22206h 0.181345v -2.9643h 0.181345v -0.185966h 0.181345v -0.110502h 0.181345v -1.16549h 0.181345v -0.169078h 0.181345v -2.24745h 0.181345v 1.91481h 0.181345v
 -0.389832h 0.36269v -0.222889h 0.181345v -0.157237h 0.181345v 1.47707h 0.181345v -1.16096h 0.181345v 1.36916h 0.181345v 2.7906h 0.181345v -0.895956h 0.181345v 1.49476h 0.181345v 0.353024h 0.181345v 3.44038h 0.181345v 0.511811h 0.181345v 0.770955h
 0.181345v 0.245268h 0.181345v 1.90682h 0.181345v 2.17942h 0.181345v 1.2625h 0.181345v 1.56965h 0.181345v 2.76418h 0.181345v 1.7256h 0.181345v 2.39707h 0.181345v -0.598806h 0.181345v 1.70679h 0.181345v 1.73682h 0.181345v 0.372399h 0.181345v 3.59653h
 0.181345v -0.699402h 0.181345v 1.43239h 0.181345v 0.769958h 0.181345v 2.26602h 0.181345v -2.26602h 0.181345v 0.26553h 0.181345v 6.59764h 0.181345v -2.98855h 0.181345v 1.42127h 0.181345v -3.02987h 0.181345v 1.95171h 0.181345v 2.64544h 0.181345v
 -1.93519h 0.181345v -2.35351h 0.181345v 3.09842h 0.181345v -0.744909h 0.181345v -1.05336h 0.181345v -1.91094h 0.181345v -1.42792h 0.181345v 6.32741h 0.181345v 1.74677h 0.181345v -1.74677h 0.181345v -2.98855h 0.181345v 1.79826h 0.181345v 1.19029h
 0.181345v 1.74677h 0.181345v -8.34441h 0.181345v 9.29895h 0.181345v -4.6365h 0.181345v -2.0387h 0.181345v 1.67945h 0.181345v 4.51103h 0.181345v -6.50529h 0.181345v 0.96459h 0.181345v -0.328348h 0.181345v -0.944689h 0.181345v -3.03597h 0.181345v
 2.43717h 0.181345v 3.26076h 0.181345v 3.68197h 0.181345v -2.55051h 0.181345v 1.22206h 0.181345v -4.07078h 0.181345v 3.65246h 0.181345v -5.77216h 0.181345v 2.44805h 0.36269v 1.38892h 0.181345v 1.93519h 0.181345v -3.32411h 0.181345v -0.649783h
 0.36269v 1.67945h 0.181345v -2.3027h 0.181345v 3.79341h 0.181345v -4.96842h 0.181345v 4.58188h 0.181345v -4.86202h 0.181345v 8.26889h 0.181345v -6.50529h 0.181345v -1.48346h 0.181345v 6.62058h 0.181345v -4.50088h 0.181345v -0.321435h 0.181345v
 -0.314807h 0.181345v 1.64326h 0.181345v -1.32845h 0.36269v -2.35351h 0.181345v 0.555247h 0.36269v 1.48346h 0.181345v 3.48496h 0.181345v -1.4907h 0.181345v -3.19233h 0.181345v 2.49823h 0.181345v -0.663913h 0.36269v -3.21071h 0.181345v 6.86317h
 0.181345v -5.19596h 0.181345v 0.598806h 0.181345v 5.01547h 0.181345v -1.22206h 0.181345v -5.52366h 0.181345v 0.840631h 0.181345v 2.16266h 0.36269v 0.678672h 0.181345v 4.86202h 0.181345v -7.41254h 0.181345v 9.45124h 0.181345v -7.5794h 0.181345v
 1.38892h 0.36269v -1.38892h 0.36269v 1.38892h 0.36269v 0.744909h 0.181345v -3.09842h 0.181345v -0.610785h 0.181345v 6.64626h 0.181345v -4.04122h 0.181345v -1.67945h 0.181345v 5.72067h 0.181345v -5.39923h 0.181345v 1.35801h 0.181345v -1.02967h
 0.181345v -3.80004h 0.181345v 5.18897h 0.181345v 1.52803h 0.181345v 1.25558h 0.181345v -4.50088h 0.181345v 3.2453h 0.181345v 0.825477h 0.181345v -2.71276h 0.181345v 1.4907h 0.181345v -1.8417h 0.181345v 3.49386h 0.181345v -1.25558h 0.181345v 4.66244h
 0.181345v -4.66244h 0.181345v -1.52803h 0.181345v 0.744909h 0.36269v -0.744909h 0.181345v -0.710249h 0.181345v -2.84133h 0.181345v 1.51288h 0.181345v 11.9111h 0.181345v -10.5827h 0.181345v 2.23828h 0.181345v 0.825477h 0.181345v 7.51893h 0.181345v
 -6.19048h 0.181345v -4.39221h 0.181345v 1.45516h 0.181345v 6.57702h 0.181345v -6.57702h 0.181345v 2.48127h 0.181345v -0.44257h 0.181345v -3.14287h 0.181345v 5.49638h 0.181345v -3.20193h 0.181345v 2.70131h 0.181345v -4.6365h 0.544034v 2.78361h
 0.181345v -0.848418h 0.181345v -0.803743h 0.181345v 1.22206h 0.181345v -4.39221h 0.181345v 4.39221h 0.181345v -2.35351h 0.181345v 0.744909h 0.181345v 1.6086h 0.181345v -0.418317h 0.181345v 4.25528h 0.181345v -3.40687h 0.181345v 1.85289h 0.36269v
 -3.89159h 0.181345v 4.39221h 0.181345v 0.517595h 0.181345v -1.01822h 0.181345v -0.484726h 0.181345v 1.50294h 0.181345v 1.66721h 0.181345v -2.68543h 0.181345v 3.90749h 0.181345v -3.40687h 0.181345v -1.91094h 0.181345v 9.71002h 0.181345v -7.79908h
 0.181345v 6.19048h 0.181345v 2.48127h 0.181345v -4.6151h 0.36269v -4.55727h 0.181345v 6.6911h 0.36269v 4.39221h 0.181345v -6.52604h 0.181345v 4.6151h 0.181345v -8.67175h 0.181345v 5.44557h 0.181345v -2.0387h 0.181345v -3.40687h 0.181345v 5.44557h
 0.181345v 3.22618h 0.181345v 0.925592h 0.181345v -1.79826h 0.181345v -3.74243h 0.181345v 6.52604h 0.181345v -6.52604h 0.181345v 4.6151h 0.181345v -3.93643h 0.181345v 3.93643h 0.181345v 5.31781h 0.181345v -5.31781h 0.181345v 1.91094h 0.36269v
 -7.17583h 0.181345v 11.9111h 0.181345v -6.64626h 0.181345v 1.91094h 0.181345v -2.78361h 0.181345v 4.96842h 0.36269v -1.13145h 0.36269v -5.44557h 0.181345v 4.39221h 0.181345v 6.19048h 0.181345v -8.97409h 0.181345v 7.51893h 0.181345v -5.72067h
 0.36269v 0.985348h 0.181345v 3.40687h 0.181345v -2.35351h 0.181345v -2.0387h 0.181345v 3.17015h 0.181345v 7.41254h 0.181345v -4.86202h 0.181345v -2.55051h 0.181345v -4.96842h 0.181345v 1.79826h 0.36269v 3.17015h 0.181345v 5.61427h 0.181345v
 -8.78443h 0.181345v -1.79826h 0.181345v 10.5827h 0.181345v -8.78443h 0.36269v 8.78443h 0.181345v -1.6086h 0.181345v -5.13712h 0.181345v -2.0387h 0.181345v 3.17015h 0.181345v -6.57702h 0.181345v 9.12753h 0.36269v -8.34441h 0.181345v 0.825477h
 0.181345v -7.79908h 0.181345v 5.44557h 0.181345v 3.22618h 0.181345v -7.06315h 0.181345v 3.12672h 0.181345v -0.678672h 0.181345v -1.27304h 0.181345v 0.623254h 0.181345v -2.88927h 0.181345v -0.517595h 0.181345v 0.517595h 0.181345v -2.42854h 0.181345v
 1.91094h 0.181345v -0.500622h 0.181345v -4.6365h 0.181345v 4.15177h 0.36269v -3.78386h 0.181345v -3.9195h 0.181345v 1.51288h 0.181345v -0.314807h 0.181345v 3.09842h 0.36269v -0.376997h 0.181345v -5.29589h 0.181345v 2.57446h 0.181345v -0.308447h
 0.181345v 6.34392h 0.181345v -5.39923h 0.181345v -1.54349h 0.181345v 0.907253h 0.181345v -0.308447h 0.181345v 3.79341h 0.181345v -0.763539h 0.181345v 1.16012h 0.181345v 0.40716h 0.181345v 1.29099h 0.181345v 0.925592h 0.181345v -0.469809h 0.181345v
 0.954536h 0.181345v 1.01822h 0.181345v 4.92797h 0.181345v -9.45124h 0.181345v 0.803743h 0.181345v 1.74677h 0.181345v -1.32845h 0.181345v 4.96842h 0.181345v -1.13145h 0.181345v 1.73026h 0.181345v -2.26602h 0.181345v -1.97275h 0.181345v 3.63996h
 0.181345v 0.598806h 0.181345v -2.78361h 0.181345v 1.05336h 0.181345v -5.44557h 0.181345v 1.19029h 0.181345v -1.19029h 0.181345v -0.376997h 0.181345v -3.02987h 0.181345v -1.45516h 0.181345v -2.3138h 0.181345v 1.76847h 0.181345v -1.28375h 0.181345v
 -2.70131h 0.181345v 1.97987h 0.181345v -1.13145h 0.181345v -2.78361h 0.181345v 2.14292h 0.181345v -3.36498h 0.181345v -1.4399h 0.181345v 5.01547h 0.181345v -4.23234h 0.181345v -2.23828h 0.181345v 1.45516h 0.181345v 0.465039h 0.181345v -5.04692h
 0.181345v 0.343107h 0.181345v 0.831904h 0.181345v -1.51058h 0.181345v -0.543388h 0.181345v 1.45516h 0.181345v -2.28625h 0.181345v 2.16926h 0.181345v -5.35205h 0.181345v 5.23594h 0.181345v -3.12672h 0.181345v 2.0118h 0.181345v -2.74773h 0.181345v
 1.11764h 0.181345v 0.194494h 0.181345v -1.57921h 0.181345v -0.941158h 0.181345v 0.85316h 0.181345v -0.85316h 0.181345v 1.57177h 0.181345v -1.65452h 0.181345v 0.503373h 0.181345v -0.585678h 0.181345v -0.244287h 0.181345v -1.24069h 0.181345v 0.530441h
 0.181345v 0.954536h 0.181345v -0.877231h 0.181345v 0.472231h 0.181345v -0.70298h 0.181345v -0.227313h 0.181345v -0.149684h 0.181345v 1.07998h 0.181345v 0.487305h 0.181345v 0.503373h 0.181345v 1.52355h 0.181345v -1.00301h 0.181345v 0.357153h
 0.181345v -0.179621h 0.181345v 2.83728h 0.181345v 0.659135h 0.181345v 1.65858h 0.181345v -0.732985h 0.181345v -0.236712h 0.181345v 1.34982h 0.181345v -0.380126h 0.181345v 1.03549h 0.181345v 2.62374h 0.181345v 0.985348h 0.181345v 0.872672h 0.181345v
 2.3236h 0.181345v 2.00885h 0.181345v 0.24044h 0.181345v 2.92971h 0.181345v 0.598806h 0.181345v 1.95171h 0.181345v 3.93643h 0.181345v 0.455783h 0.181345v 1.45516h 0.181345v -0.985348h 0.181345v 0.985348h 0.181345v 0.517595h 0.181345v 4.92797h
 0.181345v 3.22618h 0.181345v -0.872672h 0.181345v 0.872672h 0.181345v -0.872672h 0.181345v 7.51893h 0.181345v -3.68197h 0.181345v 5.13712h 0.36269v 10.5827h 0.181345v -2.78361h 0.36269v -9.25424h 0.181345v -2.55051h 0.181345v 1.22206h 0.181345v
 4.39221h 0.181345v 22.9636h 0.181345v -16.7732h 0.181345v -2.35351h 0.181345v 19.1267h 0.181345v -13.9896h 0.181345v -2.78361h 0.36269v 27.3559h 0.181345v -33.5463h 0.181345v 1.79826h 0.181345v 2.0387h 0.181345v 19.1267h 0.36269v -19.1267h 0.181345v
 12.9362h 0.181345v -4.39221h 0.181345v 10.5827h 0.544034v -10.5827h 0.181345v 21.1654h 0.181345v -16.7732h 0.36269v -4.39221h 0.181345v 21.1654h 0.181345v -10.5827h 0.36269v -13.9896h 0.181345v 24.5723h 0.181345v -21.1654h 0.181345v 21.1654h
 0.181345v -10.5827h 0.181345v 10.5827h 0.181345v -27.3559h 0.181345v 27.3559h 0.36269v -21.1654h 0.181345v 4.39221h 0.181345v -4.39221h 0.181345v -3.40687h 0.181345v 3.40687h 0.181345v 4.39221h 0.181345v 16.7732h 0.181345v 10.5827h 0.181345v
 -37.9386h 0.36269v 6.19048h 0.181345v 10.5827h 0.181345v -10.5827h 0.181345v -6.19048h 0.181345v 6.19048h 0.36269v 4.39221h 0.181345v 6.19048h 0.181345v -6.19048h 0.181345v 6.19048h 0.181345v -19.1267h 0.181345v 19.1267h 0.181345v -13.9896h
 0.181345v -5.13712h 0.181345v 8.54399h 0.181345v -3.40687h 0.36269v -2.78361h 0.181345v 6.19048h 0.181345v -10.5827h 0.181345v 7.17583h 0.181345v -5.13712h 0.181345v -3.83697h 0.181345v 6.19048h 0.181345v 16.7732h 0.181345v -16.7732h 0.181345v
 -9.25424h 0.36269v 15.4447h 0.181345v -17.9952h 0.181345v 11.8048h 0.36269v -6.19048h 0.181345v -1.6086h 0.181345v 5.44557h 0.181345v -2.0387h 0.181345v -4.86202h 0.181345v 26.0274h 0.181345v -24.5723h 0.181345v 1.6086h 0.36269v -8.78443h 0.181345v
 12.6214h 0.181345v -10.5827h 0.181345v 8.54399h 0.181345v -13.2064h 0.181345v -1.52803h 0.181345v 14.7345h 0.181345v -1.79826h 0.181345v -5.61427h 0.181345v 1.22206h 0.181345v 21.1654h 0.181345v -24.5723h 0.181345v 9.59734h 0.181345v 7.17583h
 0.181345v -5.13712h 0.181345v -2.0387h 0.181345v -6.19048h 0.181345v 6.19048h 0.181345v -1.79826h 0.181345v -1.6086h 0.181345v 5.44557h 0.36269v 5.13712h 0.181345v -8.97409h 0.181345v 6.19048h 0.181345v -4.39221h 0.181345v 21.1654h 0.181345v
 -27.3559h 0.181345v 16.7732h 0.36269v -3.40687h 0.181345v 13.9896h 0.181345v -6.19048h 0.181345v 6.19048h 0.181345v -6.19048h 0.36269v 6.19048h 0.36269v -6.19048h 0.544034v 6.19048h 0.181345v -13.9896h 0.181345v 3.40687h 0.181345v 4.39221h 0.181345v
 -4.39221h 0.181345v 4.39221h 0.181345v 6.19048h 0.36269v -6.19048h 0.181345v 6.19048h 0.181345v -6.19048h 0.181345v 16.7732h 0.181345v -16.7732h 0.181345v -4.39221h 0.181345v -3.40687h 0.181345v 13.9896h 0.181345v -10.5827h 0.181345v 21.1654h
 0.181345v -24.5723h 0.181345v 24.5723h 0.181345v -10.5827h 0.181345v 10.5827h 0.181345v -21.1654h 0.36269v 21.1654h 0.181345v 10.5827h 0.181345v -21.1654h 0.181345v -6.19048h 0.36269v 6.19048h 0.181345v 10.5827h 0.181345v -10.5827h 0.181345v
 -16.7732h 0.181345v 10.5827h 0.181345v -10.5827h 0.181345v 27.3559h 0.181345v -21.1654h 0.36269v -3.40687h 0.181345v 7.79908h 0.181345v -10.5827h 0.181345v 2.78361h 0.181345v 3.40687h 0.181345v 4.39221h 0.181345v -14.9749h 0.181345v 21.1654h
 0.181345v -13.9896h 0.181345v -2.78361h 0.181345v 10.5827h 0.181345v 6.19048h 0.181345v -13.9896h 0.181345v -2.78361h 0.181345v 27.3559h 0.36269v -16.7732h 0.181345v -4.39221h 0.36269v 4.39221h 0.181345v -12.9362h 0.181345v -3.83697h 0.181345v
 12.381h 0.181345v -6.19048h 0.181345v -2.35351h 0.181345v -2.0387h 0.181345v 2.0387h 0.181345v 2.35351h 0.181345v -9.25424h 0.181345v 12.0379h 0.181345v -2.78361h 0.181345v 16.7732h 0.181345v -6.19048h 0.181345v -14.9749h 0.181345v 10.5827h
 0.181345v -8.54399h 0.181345v 8.54399h 0.181345v 4.39221h 0.181345v -18.3818h 0.181345v 3.40687h 0.181345v 42.3308h 0.181345v -42.3308h 0.36269v 10.5827h 0.181345v -8.54399h 0.181345v 12.9362h 0.181345v -12.9362h 0.181345v 8.54399h 0.181345v
 10.5827h 0.181345v -13.9896h 0.181345v 7.79908h 0.181345v -4.39221h 0.36269v -6.19048h 0.181345v 16.7732h 0.181345v -13.9896h 0.181345v 7.79908h 0.181345v -16.7732h 0.181345v 16.7732h 0.181345v -14.9749h 0.181345v 21.1654h 0.181345v -10.5827h
 0.181345v -8.54399h 0.181345v -3.83697h 0.181345v 16.7732h 0.181345v -10.5827h 0.36269v -4.39221h 0.181345v 14.9749h 0.181345v -10.5827h 0.36269v 10.5827h 0.181345v 27.3559h 0.181345v -35.1549h 0.181345v -2.78361h 0.181345v 6.19048h 0.181345v
 4.39221h 0.181345v -4.39221h 0.181345v -8.54399h 0.181345v 2.35351h 0.181345v 2.78361h 0.181345v 3.40687h 0.181345v -3.40687h 0.181345v 7.79908h 0.181345v -10.5827h 0.181345v -2.35351h 0.181345v -2.0387h 0.181345v 14.9749h 0.181345v -12.9362h
 0.181345v -5.44557h 0.181345v 35.1549h 0.181345v -31.7481h 0.181345v -1.79826h 0.181345v 8.97409h 0.181345v 7.79908h 0.181345v -14.9749h 0.181345v 21.1654h 0.181345v -13.9896h 0.181345v -5.13712h 0.181345v -2.0387h 0.181345v 4.39221h 0.181345v
 -2.35351h 0.181345v 8.54399h 0.181345v -6.19048h 0.181345v 2.78361h 0.181345v 7.79908h 0.181345v -18.3818h 0.181345v -1.45516h 0.181345v 12.0379h 0.181345v -8.97409h 0.181345v 33.5463h 0.181345v -27.3559h 0.181345v 6.19048h 0.181345v -8.54399h
 0.181345v 8.54399h 0.181345v -16.7732h 0.181345v 13.3663h 0.181345v -2.78361h 0.181345v 6.19048h 0.181345v -17.9952h 0.181345v 9.45124h 0.181345v 2.35351h 0.181345v 6.19048h 0.181345v 10.5827h 0.181345v -16.7732h 0.36269v 6.19048h 0.181345v
 -13.9896h 0.181345v 10.5827h 0.181345v -13.3663h 0.181345v 16.7732h 0.181345v -13.9896h 0.181345v 7.79908h 0.181345v -4.39221h 0.181345v -3.40687h 0.181345v 3.40687h 0.181345v -1.79826h 0.181345v 6.19048h 0.181345v -2.35351h 0.181345v -2.0387h
 0.181345v 10.5827h 0.181345v -8.54399h 0.181345v -2.0387h 0.181345v 2.0387h 0.181345v -10.5827h 0.181345v 6.74572h 0.181345v 16.7732h 0.181345v -19.8369h 0.181345v -1.32845h 0.36269v -2.35351h 0.181345v 10.5827h 0.36269v -3.83697h 0.181345v
 -7.79908h 0.36269v 7.79908h 0.181345v -5.61427h 0.181345v -3.17015h 0.181345v 10.5827h 0.181345v 2.0387h 0.181345v -5.44557h 0.181345v -1.45516h 0.181345v -2.55051h 0.181345v -4.96842h 0.181345v 22.9636h 0.181345v -16.7732h 0.181345v 4.39221h
 0.181345v -3.06376h 0.181345v 4.86202h 0.36269v -9.59734h 0.181345v 3.40687h 0.36269v 6.19048h 0.181345v -3.40687h 0.181345v -8.10142h 0.181345v 11.5083h 0.181345v -4.86202h 0.36269v -3.68197h 0.181345v 8.54399h 0.181345v -4.86202h 0.181345v
 3.06376h 0.181345v -3.06376h 0.181345v 3.06376h 0.181345v -3.06376h 0.181345v -6.64626h 0.181345v 8.10142h 0.181345v 1.6086h 0.181345v -1.6086h 0.181345v -9.79957h 0.181345v 3.60909h 0.181345v -1.91094h 0.181345v 8.10142h 0.36269v -6.19048h
 0.181345v -2.78361h 0.181345v 6.19048h 0.181345v 6.19048h 0.181345v -7.41254h 0.181345v -2.18481h 0.181345v 9.59734h 0.181345v -7.41254h 0.181345v 4.00567h 0.181345v -10.5827h 0.181345v 5.44557h 0.181345v 3.68197h 0.181345v -1.32845h 0.181345v
 -6.19048h 0.181345v 0.872672h 0.36269v 1.91094h 0.181345v 1.05336h 0.181345v 1.13145h 0.36269v -1.13145h 0.181345v -5.44557h 0.181345v 9.12753h 0.181345v -2.55051h 0.181345v -9.36063h 0.181345v 11.9111h 0.181345v -1.32845h 0.181345v -1.22206h
 0.181345v 1.22206h 0.181345v -8.54399h 0.36269v 0.744909h 0.181345v -1.45516h 0.181345v 3.93643h 0.181345v 0.925592h 0.181345v 4.39221h 0.181345v -7.79908h 0.181345v 5.44557h 0.181345v 1.13145h 0.181345v -4.96842h 0.181345v 1.79826h 0.181345v
 0.985348h 0.181345v -4.39221h 0.181345v -0.744909h 0.181345v 1.52803h 0.181345v 2.62374h 0.181345v -4.15177h 0.181345v -3.83697h 0.181345v 7.98874h 0.181345v -4.15177h 0.181345v 0.744909h 0.181345v 2.48127h 0.181345v -8.15416h 0.181345v 4.92797h
 0.181345v -7.79908h 0.181345v 10.1526h 0.181345v -0.825477h 0.181345v 7.01595h 0.181345v -12.381h 0.181345v 4.58188h 0.181345v 4.39221h 0.181345v -1.91094h 0.181345v -1.69815h 0.181345v -0.783125h 0.181345v -2.13383h 0.181345v 7.5794h 0.181345v
 -4.66244h 0.36269v 3.60909h 0.181345v -1.91094h 0.181345v -3.22618h 0.181345v 6.19048h 0.181345v -2.0387h 0.181345v -5.5407h 0.181345v 7.5794h 0.181345v -9.45124h 0.181345v 4.00567h 0.181345v 7.79908h 0.181345v -11.2059h 0.181345v 6.81373h 0.181345v
 -5.5407h 0.181345v 1.38892h 0.181345v 4.15177h 0.181345v -2.62374h 0.181345v -0.783125h 0.181345v 0.783125h 0.181345v 4.66244h 0.181345v -1.05336h 0.181345v 1.05336h 0.181345v -10.5827h 0.181345v 15.7198h 0.181345v -2.78361h 0.36269v 4.39221h
 0.181345v -9.71002h 0.181345v -4.6151h 0.181345v 4.6151h 0.36269v 1.91094h 0.181345v -1.91094h 0.181345v 6.64626h 0.181345v 4.86202h 0.181345v -10.5827h 0.181345v 5.72067h 0.181345v 6.90073h 0.181345v -16.0283h 0.181345v 12.1913h 0.181345v -1.6086h
 0.181345v 1.6086h 0.181345v -3.06376h 0.181345v -4.73532h 0.181345v -3.60909h 0.181345v 2.62374h 0.181345v -3.40687h 0.181345v 4.39221h 0.181345v 2.18481h 0.181345v 4.00567h 0.181345v -10.5827h 0.181345v 4.39221h 0.181345v 1.05336h 0.181345v
 8.54399h 0.181345v -7.41254h 0.181345v 2.55051h 0.181345v -4.73532h 0.181345v 9.59734h 0.181345v -1.79826h 0.181345v -7.79908h 0.181345v -0.985348h 0.181345v 0.985348h 0.181345v -2.78361h 0.181345v 0.872672h 0.181345v 0.925592h 0.181345v 3.17015h
 0.181345v 1.22206h 0.181345v 1.32845h 0.181345v 3.06376h 0.181345v -6.74572h 0.181345v 8.54399h 0.181345v -7.41254h 0.181345v 4.00567h 0.181345v -5.13712h 0.181345v 2.35351h 0.181345v -1.22206h 0.181345v -2.18481h 0.181345v 2.18481h 0.181345v
 5.61427h 0.181345v -8.78443h 0.181345v 5.72067h 0.181345v -3.68197h 0.181345v 8.54399h 0.181345v -9.59734h 0.181345v 11.636h 0.181345v -2.0387h 0.181345v -3.40687h 0.181345v -1.45516h 0.181345v -3.68197h 0.181345v -2.0387h 0.181345v 0.985348h
 0.181345v 2.18481h 0.181345v 1.22206h 0.181345v 6.19048h 0.181345v -6.19048h 0.181345v 8.22918h 0.181345v -5.44557h 0.181345v -10.5827h 0.181345v 7.79908h 0.181345v 1.32845h 0.544034v -1.32845h 0.36269v -2.35351h 0.181345v 2.35351h 0.181345v
 2.78361h 0.181345v -8.10142h 0.181345v -0.872672h 0.181345v 12.381h 0.181345v -4.86202h 0.181345v -9.12753h 0.181345v 9.12753h 0.181345v -9.12753h 0.181345v 2.48127h 0.181345v -1.69815h 0.181345v 2.62374h 0.181345v -1.79826h 0.181345v 6.19048h
 0.181345v -1.22206h 0.36269v 1.22206h 0.181345v -5.31781h 0.181345v 4.09575h 0.181345v 2.55051h 0.181345v -1.32845h 0.181345v -4.39221h 0.181345v 4.39221h 0.181345v -4.39221h 0.181345v 10.5827h 0.181345v -1.79826h 0.181345v -9.71002h 0.181345v
 6.64626h 0.181345v -5.72067h 0.181345v 3.17015h 0.181345v -7.32193h 0.181345v -0.710249h 0.181345v 9.25424h 0.181345v -2.35351h 0.36269v -1.05336h 0.181345v -4.39221h 0.181345v -2.13383h 0.181345v 4.6151h 0.181345v 8.10142h 0.181345v -8.97409h
 0.181345v 0.872672h 0.181345v 4.09575h 0.181345v -3.17015h 0.181345v 5.72067h 0.36269v -2.55051h 0.181345v -9.36063h 0.181345v 2.78361h 0.181345v 3.40687h 0.36269v 3.17015h 0.181345v 5.61427h 0.181345v -8.78443h 0.36269v -1.79826h 0.181345v
 -2.35351h 0.181345v 4.15177h 0.181345v 8.78443h 0.181345v -3.06376h 0.181345v -3.68197h 0.181345v -2.9643h 0.181345v 6.64626h 0.181345v -8.34441h 0.36269v 4.66244h 0.181345v -6.90073h 0.181345v 4.86202h 0.181345v -1.79826h 0.181345v 2.78361h
 0.181345v 7.79908h 0.181345v -15.5982h 0.181345v 4.18999h 0.181345v 2.62374h 0.181345v -5.5407h 0.181345v 7.5794h 0.181345v -4.66244h 0.181345v 1.69815h 0.181345v 1.91094h 0.181345v -4.39221h 0.181345v -1.45516h 0.181345v 3.06376h 0.181345v 2.78361h
 0.181345v -1.91094h 0.36269v 1.91094h 0.36269v 2.18481h 0.181345v -9.36063h 0.181345v 3.56674h 0.181345v 4.66244h 0.181345v -1.05336h 0.181345v 9.59734h 0.181345v -11.5083h 0.181345v -1.69815h 0.181345v -0.783125h 0.181345v -7.64564h 0.181345v
 7.64564h 0.181345v -0.744909h 0.181345v 2.35351h 0.181345v -5.01547h 0.181345v 7.79908h 0.181345v -3.60909h 0.181345v -1.52803h 0.181345v -0.710249h 0.181345v -3.12672h 0.181345v 12.381h 0.181345v -11.2059h 0.181345v 5.88814h 0.181345v -3.93643h
 0.181345v 5.84737h 0.181345v 1.05336h 0.181345v 2.35351h 0.181345v -7.79908h 0.181345v -1.45516h 0.181345v 3.93643h 0.181345v 6.64626h 0.181345v -7.51893h 0.181345v 1.79826h 0.181345v -2.62374h 0.181345v 7.01595h 0.181345v -2.35351h 0.181345v
 12.9362h 0.181345v -10.5827h 0.181345v -1.22206h 0.181345v 2.55051h 0.181345v -3.68197h 0.181345v -2.9643h 0.181345v 6.64626h 0.181345v 3.06376h 0.181345v -8.78443h 0.181345v 2.0387h 0.181345v 5.13712h 0.181345v -1.45516h 0.181345v -6.64626h
 0.181345v -0.872672h 0.181345v 1.79826h 0.36269v -0.925592h 0.181345v -1.69815h 0.181345v 5.7939h 0.181345v 4.00567h 0.181345v -7.17583h 0.181345v 7.17583h 0.36269v -6.19048h 0.181345v 13.9896h 0.181345v -11.8048h 0.181345v -1.13145h 0.36269v
 3.68197h 0.181345v 1.45516h 0.181345v -8.10142h 0.181345v 2.9643h 0.181345v 6.74572h 0.181345v -8.78443h 0.181345v 0.985348h 0.181345v 4.73532h 0.181345v -2.55051h 0.181345v 2.55051h 0.36269v -1.32845h 0.181345v -5.31781h 0.181345v 6.64626h
 0.181345v -3.68197h 0.181345v -2.0387h 0.181345v 3.17015h 0.181345v -1.13145h 0.181345v 3.68197h 0.181345v -11.2614h 0.181345v 8.71085h 0.181345v -4.96842h 0.181345v 1.79826h 0.181345v 3.17015h 0.181345v 2.55051h 0.181345v -2.55051h 0.181345v
 1.22206h 0.181345v -8.54399h 0.181345v 11.3276h 0.181345v -5.13712h 0.181345v 5.13712h 0.36269v -2.78361h 0.181345v 2.78361h 0.36269v -5.13712h 0.181345v 6.74572h 0.36269v -4.39221h 0.36269v 1.32845h 0.181345v -1.32845h 0.181345v 2.78361h 0.181345v
 -8.97409h 0.181345v 8.97409h 0.181345v 24.5723h 0.181345v -13.9896h 0.181345v -17.7585h 0.181345v 10.5827h 0.36269v -6.19048h 0.181345v 1.32845h 0.181345v 6.90073h 0.181345v -3.83697h 0.181345v -4.39221h 0.181345v 8.22918h 0.181345v 5.13712h
 0.36269v -7.17583h 0.181345v -3.40687h 0.181345v 7.79908h 0.181345v -9.25424h 0.181345v 9.25424h 0.181345v -7.79908h 0.544034v 5.44557h 0.36269v -5.44557h 0.181345v 1.6086h 0.36269v 3.83697h 0.181345v 5.13712h 0.181345v -5.13712h 0.36269v -2.0387h
 0.181345v 10.5827h 0.181345v -3.40687h 0.181345v 3.40687h 0.181345v -15.4447h 0.181345v 6.90073h 0.36269v 29.7094h 0.181345v -35.1549h 0.36269v 10.5827h 0.181345v 7.79908h 0.36269v -10.5827h 0.36269v -10.5827h 0.181345v 6.19048h 0.181345v -3.40687h
 0.181345v 18.3818h 0.181345v -14.9749h 0.181345v 4.39221h 0.181345v -9.25424h 0.181345v 12.0379h 0.181345v -2.78361h 0.181345v 2.78361h 0.181345v 3.40687h 0.181345v -10.5827h 0.36269v 2.0387h 0.181345v -6.90073h 0.36269v -1.32845h 0.181345v 13.3663h
 0.181345v -10.5827h 0.181345v 5.44557h 0.181345v -2.0387h 0.181345v -3.40687h 0.181345v 10.5827h 0.181345v -7.17583h 0.181345v 7.17583h 0.181345v -10.5827h 0.181345v -1.45516h 0.181345v -3.68197h 0.181345v 6.74572h 0.181345v 1.79826h 0.181345v
 4.39221h 0.181345v 6.19048h 0.181345v -3.40687h 0.181345v -2.78361h 0.181345v -7.79908h 0.181345v 5.44557h 0.181345v -2.0387h 0.181345v 4.39221h 0.181345v -7.79908h 0.181345v 10.5827h 0.181345v -12.0379h 0.181345v 9.25424h 0.181345v -2.35351h
 0.544034v -6.90073h 0.181345v 3.06376h 0.181345v 22.9636h 0.181345v -21.1654h 0.181345v 2.0387h 0.181345v -6.90073h 0.181345v 4.86202h 0.181345v 7.17583h 0.181345v -13.3663h 0.181345v 4.39221h 0.36269v 6.19048h 0.181345v -7.79908h 0.36269v 5.44557h
 0.544034v -3.83697h 0.36269v 1.79826h 0.181345v 4.39221h 0.181345v 6.19048h 0.181345v -8.54399h 0.181345v -2.0387h 0.181345v -6.19048h 0.181345v 10.5827h 0.181345v 6.19048h 0.181345v 10.5827h 0.181345v -26.0274h 0.181345v 3.06376h 0.181345v 8.97409h
 0.181345v 3.40687h 0.36269v -13.9896h 0.725379v 7.79908h 0.181345v 2.78361h 0.181345v -8.97409h 0.181345v 16.7732h 0.181345v -7.79908h 0.181345v 3.40687h 0.181345v -10.5827h 0.181345v -9.59734h 0.181345v 2.18481h 0.181345v 9.45124h 0.181345v
 -3.83697h 0.181345v 6.19048h 0.181345v -7.79908h 0.181345v 10.5827h 0.181345v 3.40687h 0.181345v -13.9896h 0.181345v 3.40687h 0.181345v -8.54399h 0.181345v 2.35351h 0.181345v 6.19048h 0.181345v -1.79826h 0.181345v 8.97409h 0.181345v -8.97409h
 0.181345v 3.83697h 0.181345v -6.90073h 0.181345v -8.34441h 0.181345v 9.79957h 0.181345v 1.6086h 0.181345v 1.79826h 0.181345v -6.19048h 0.181345v 2.78361h 0.181345v -2.78361h 0.181345v 13.3663h 0.181345v -12.0379h 0.181345v -2.55051h 0.181345v
 -4.09575h 0.181345v 6.64626h 0.181345v -1.32845h 0.181345v 1.32845h 0.181345v -2.55051h 0.181345v -2.18481h 0.181345v 9.59734h 0.181345v -9.59734h 0.36269v 2.18481h 0.181345v 7.41254h 0.181345v -4.86202h 0.181345v 6.90073h 0.181345v -5.44557h
 0.181345v 1.6086h 0.36269v -7.79908h 0.181345v 3.40687h 0.181345v -6.19048h 0.181345v 16.7732h 0.181345v -15.9005h 0.36269v 8.10142h 0.181345v -1.45516h 0.181345v -8.34441h 0.181345v 8.34441h 0.181345v -3.68197h 0.181345v 2.35351h 0.544034v
 -4.39221h 0.181345v 0.985348h 0.181345v -3.60909h 0.181345v 9.79957h 0.181345v 3.40687h 0.181345v -1.79826h 0.181345v -7.79908h 0.181345v 7.79908h 0.181345v -6.74572h 0.181345v 1.13145h 0.181345v 4.00567h 0.181345v -7.17583h 0.181345v 4.39221h
 0.181345v 8.22918h 0.181345v -2.0387h 0.181345v -1.79826h 0.181345v 1.79826h 0.181345v 2.0387h 0.36269v -12.6214h 0.181345v 10.5827h 0.181345v -6.19048h 0.181345v 2.78361h 0.181345v 3.40687h 0.181345v -4.86202h 0.181345v 3.06376h 0.181345v 12.381h
 0.181345v -8.54399h 0.36269v -3.83697h 0.181345v 1.79826h 0.544034v -9.59734h 0.181345v 24.5723h 0.181345v -7.79908h 0.181345v -7.17583h 0.181345v -3.40687h 0.181345v 13.9896h 0.36269v -3.40687h 0.181345v -2.78361h 0.181345v 16.7732h 0.181345v
 -6.19048h 0.181345v -7.79908h 0.181345v -5.13712h 0.181345v 8.54399h 0.181345v -3.40687h 0.181345v -7.17583h 0.181345v 10.5827h 0.181345v -8.54399h 0.36269v 8.54399h 0.181345v 4.39221h 0.181345v -7.79908h 0.36269v 7.79908h 0.36269v 6.19048h
 0.181345v -13.9896h 0.181345v 13.9896h 0.181345v -13.9896h 0.181345v 7.79908h 0.181345v 16.7732h 0.181345v -16.7732h 0.181345v 6.19048h 0.181345v 10.5827h 0.181345v 10.5827h 0.181345v -10.5827h 0.181345v -21.1654h 0.36269v 4.39221h 0.181345v
 16.7732h 0.181345v 10.5827h 0.181345v -27.3559h 0.181345v 27.3559h 0.181345v -21.1654h 0.181345v 21.1654h 0.544034v -21.1654h 0.181345v 10.5827h 0.36269v 10.5827h 0.181345v -10.5827h 0.181345v 10.5827h 0.181345v -27.3559h 0.181345v 27.3559h 0.36269v
 -21.1654h 0.36269v 21.1654h 0.181345v -21.1654h 0.181345v 21.1654h 0.181345v -10.5827h 0.36269v 10.5827h 0.36269v -10.5827h 0.36269v -10.5827h 0.181345v 21.1654h 0.181345v -21.1654h 0.36269v 21.1654h 0.725379v -10.5827h 0.36269v 10.5827h 0.181345v
 -10.5827h 0.36269v -10.5827h 0.36269v 10.5827h 0.181345v -10.5827h 0.181345v 10.5827h 0.181345v 10.5827h 0.181345v -10.5827h 0.181345v 10.5827h 0.36269v -27.3559h 0.181345v 16.7732h 0.181345v 10.5827h 0.36269v -27.3559h 0.181345v 6.19048h 0.181345v
 10.5827h 0.181345v -16.7732h 0.181345v 16.7732h 0.906724v -10.5827h 0.36269v 21.1654h 0.36269v -21.1654h 0.181345v 10.5827h 0.36269v 10.5827h 0.725379v -21.1654h 0.181345v 10.5827h 0.181345v 10.5827h 0.544034v -21.1654h 0.181345v 21.1654h 0.181345v
 -21.1654h 0.181345v 21.1654h 0.181345v -21.1654h 0.36269v 21.1654h 0.181345v -10.5827h 0.181345v 10.5827h 0.181345v -10.5827h 0.181345v -10.5827h 0.181345v 10.5827h 0.725379v 10.5827h 0.181345v -10.5827h 0.181345v 10.5827h 0.181345v -10.5827h
 0.181345v -10.5827h 0.181345v 10.5827h 0.181345v -10.5827h 0.181345v 21.1654h 0.181345v -21.1654h 0.181345v 21.1654h 0.181345v -27.3559h 0.181345v 27.3559h 0.181345v -10.5827h 0.36269v 10.5827h 0.36269v -10.5827h 0.36269v 10.5827h 0.181345v
 -10.5827h 0.181345v 10.5827h 0.36269v -10.5827h 0.181345v -10.5827h 0.181345v 21.1654h 0.544034v -10.5827h 0.725379v 10.5827h 0.181345v -10.5827h 0.181345v 10.5827h 0.36269v -21.1654h 0.181345v 21.1654h 0.181345v -21.1654h 0.181345v 10.5827h
 0.181345v 10.5827h 0.181345v -10.5827h 0.181345v 10.5827h 0.725379v -21.1654h 0.181345v 21.1654h 0.181345v -10.5827h 0.36269v 10.5827h 0.36269v -10.5827h 0.544034v 10.5827h 0.181345v -10.5827h 0.181345v -10.5827h 0.181345v 10.5827h 0.181345v
 10.5827h 0.36269v -10.5827h 0.181345v 10.5827h 0.725379v -10.5827h 0.36269v 10.5827h 1.45076v -10.5827h 0.725379v 10.5827h 0.906724v -10.5827h 0.181345v 10.5827h 0.181345v -21.1654h 0.36269v 10.5827h 0.181345v 10.5827h 0.544034v -10.5827h 0.181345v
 10.5827h 0.544034v -27.3559h 0.181345v 27.3559h 0.725379v -10.5827h 0.36269v 10.5827h 0.181345v -21.1654h 0.181345v 21.1654h 0.181345v -10.5827h 0.181345v 10.5827h 0.181345v -21.1654h 0.181345v 21.1654h 0.181345v -10.5827h 0.181345v 10.5827h
 0.36269v -10.5827h 0.181345v 10.5827h 0.181345v -10.5827h 0.181345v 10.5827h 0.725379v -10.5827h 0.36269v 10.5827h 0.181345v -10.5827h 0.36269v 10.5827h 0.544034v -10.5827h 0.725379v 10.5827h 0.181345" fill="none" stroke="black"/>
<path d="M57.1929,280.151h 453.543" fill="none" stroke="black"/>
<path d="M57.1929,272.68v 7.47068" fill="none" stroke="black"/>
<path d="M75.3318,276.415v 3.73534" fill="none" stroke="black"/>
<path d="M93.4707,276.415v 3.73534" fill="none" stroke="black"/>
<path d="M111.61,276.415v 3.73534" fill="none" stroke="black"/>
<path d="M129.749,276.415v 3.73534" fill="none" stroke="black"/>
<path d="M147.887,272.68v 7.47068" fill="none" stroke="black"/>
<path d="M166.026,276.415v 3.73534" fill="none" stroke="black"/>
<path d="M184.165,276.415v 3.73534" fill="none" stroke="black"/>
<path d="M202.304,276.415v 3.73534" fill="none" stroke="black"/>
<path d="M220.443,276.415v 3.73534" fill="none" stroke="black"/>
<path d="M238.582,272.68v 7.47068" fill="none" stroke="black"/>
<path d="M256.721,276.415v 3.73534" fill="none" stroke="black"/>
<path d="M274.86,276.415v 3.73534" fill="none" stroke="black"/>
<path d="M292.999,276.415v 3.73534" fill="none" stroke="black"/>
<path d="M311.138,276.415v 3.73534" fill="none" stroke="black"/>
<path d="M329.277,272.68v 7.47068" fill="none" stroke="black"/>
<path d="M347.415,276.415v 3.73534" fill="none" stroke="black"/>
<path d="M365.554,276.415v 3.73534" fill="none" stroke="black"/>
<path d="M383.693,276.415v 3.73534" fill="none" stroke="black"/>
<path d="M401.832,276.415v 3.73534" fill="none" stroke="black"/>
<path d="M419.971,272.68v 7.47068" fill="none" stroke="black"/>
<path d="M438.11,276.415v 3.73534" fill="none" stroke="black"/>
<path d="M456.249,276.415v 3.73534" fill="none" stroke="black"/>
<path d="M474.388,276.415v 3.73534" fill="none" stroke="black"/>
<path d="M492.527,276.415v 3.73534" fill="none" stroke="black"/>
<path d="M510.666,272.68v 7.47068" fill="none" stroke="black"/>
<path d="M510.666,272.68v 7.47068" fill="none" stroke="black"/>
<text xml:space="preserve" x="54.3523" y="290.27" fill="black" font-size="10.4952" font-family="Helvetica">0</text>
<text xml:space="preserve" x="139.569" y="290.27" fill="black" font-size="10.4952" font-family="Helvetica">500</text>
<text xml:space="preserve" x="227.449" y="290.27" fill="black" font-size="10.4952" font-family="Helvetica">1000</text>
<text xml:space="preserve" x="318.288" y="290.27" fill="black" font-size="10.4952" font-family="Helvetica">1500</text>
<text xml:space="preserve" x="408.831" y="290.27" fill="black" font-size="10.4952" font-family="Helvetica">2000</text>
<text xml:space="preserve" x="499.67" y="290.27" fill="black" font-size="10.4952" font-family="Helvetica">2500</text>
<text xml:space="preserve" x="265.323" y="301.218" fill="black" font-size="10.4952" font-family="Helvetica">Channel</text>
<path d="M57.1929,280.151v -249.023" fill="none" stroke="black"/>
<path d="M63.9961,280.151h -6.80315" fill="none" stroke="black"/>
<path d="M63.9961,277.367h -6.80315" fill="none" stroke="black"/>
<path d="M63.9961,275.013h -6.80315" fill="none" stroke="black"/>
<path d="M63.9961,272.975h -6.80315" fill="none" stroke="black"/>
<path d="M63.9961,271.176h -6.80315" fill="none" stroke="black"/>
<path d="M70.7992,269.568h -13.6063" fill="none" stroke="black"/>
<text xml:space="preserve" x="49.0263" y="273.404" fill="black" font-size="10.4952" font-family="Helvetica">1</text>
<path d="M63.9961,258.985h -6.80315" fill="none" stroke="black"/>
<path d="M63.9961,252.795h -6.80315" fill="none" stroke="black"/>
<path d="M63.9961,248.402h -6.80315" fill="none" stroke="black"/>
<path d="M63.9961,244.996h -6.80315" fill="none" stroke="black"/>
<path d="M63.9961,242.212h -6.80315" fill="none" stroke="black"/>
<path d="M63.9961,239.858h -6.80315" fill="none" stroke="black"/>
<path d="M63.9961,237.82h -6.80315" fill="none" stroke="black"/>
<path d="M63.9961,236.021h -6.80315" fill="none" stroke="black"/>
<path d="M70.7992,234.413h -13.6063" fill="none" stroke="black"/>
<text xml:space="preserve" x="41.629" y="238.193" fill="black" font-size="10.4952" font-family="Helvetica">10</text>
<path d="M63.9961,223.83h -6.80315" fill="none" stroke="black"/>
<path d="M63.9961,217.64h -6.80315" fill="none" stroke="black"/>
<path d="M63.9961,213.248h -6.80315" fill="none" stroke="black"/>
<path d="M63.9961,209.841h -6.80315" fill="none" stroke="black"/>
<path d="M63.9961,207.057h -6.80315" fill="none" stroke="black"/>
<path d="M63.9961,204.704h -6.80315" fill="none" stroke="black"/>
<path d="M63.9961,202.665h -6.80315" fill="none" stroke="black"/>
<path d="M63.9961,200.867h -6.80315" fill="none" stroke="black"/>
<path d="M70.7992,199.258h -13.6063" fill="none" stroke="black"/>
<text xml:space="preserve" x="49.0263" y="199.431" fill="black" font-size="7.16345" font-family="Helvetica">2</text>
<text xml:space="preserve" x="38.0783" y="203.87" fill="black" font-size="10.4952" font-family="Helvetica">10</text>
<path d="M63.9961,188.675h -6.80315" fill="none" stroke="black"/>
<path d="M63.9961,182.485h -6.80315" fill="none" stroke="black"/>
<path d="M63.9961,178.093h -6.80315" fill="none" stroke="black"/>
<path d="M63.9961,174.686h -6.80315" fill="none" stroke="black"/>
<path d="M63.9961,171.902h -6.80315" fill="none" stroke="black"/>
<path d="M63.9961,169.549h -6.80315" fill="none" stroke="black"/>
<path d="M63.9961,167.51h -6.80315" fill="none" stroke="black"/>
<path d="M63.9961,165.712h -6.80315" fill="none" stroke="black"/>
<path d="M70.7992,164.103h -13.6063" fill="none" stroke="black"/>
<text xml:space="preserve" x="49.0263" y="163.924" fill="black" font-size="7.16345" font-family="Helvetica">3</text>
<text xml:space="preserve" x="38.0783" y="168.658" fill="black" font-size="10.4952" font-family="Helvetica">10</text>
<path d="M63.9961,153.52h -6.80315" fill="none" stroke="black"/>
<path d="M63.9961,147.33h -6.80315" fill="none" stroke="black"/>
<path d="M63.9961,142.938h -6.80315" fill="none" stroke="black"/>
<path d="M63.9961,139.531h -6.80315" fill="none" stroke="black"/>
<path d="M63.9961,136.747h -6.80315" fill="none" stroke="black"/>
<path d="M63.9961,134.394h -6.80315" fill="none" stroke="black"/>
<path d="M63.9961,132.355h -6.80315" fill="none" stroke="black"/>
<path d="M63.9961,130.557h -6.80315" fill="none" stroke="black"/>
<path d="M70.7992,128.948h -13.6063" fill="none" stroke="black"/>
<text xml:space="preserve" x="49.0263" y="129.009" fill="black" font-size="7.16345" font-family="Helvetica">4</text>
<text xml:space="preserve" x="38.0783" y="133.447" fill="black" font-size="10.4952" font-family="Helvetica">10</text>
<path d="M63.9961,118.365h -6.80315" fill="none" stroke="black"/>
<path d="M63.9961,112.175h -6.80315" fill="none" stroke="black"/>
<path d="M63.9961,107.783h -6.80315" fill="none" stroke="black"/>
<path d="M63.9961,104.376h -6.80315" fill="none" stroke="black"/>
<path d="M63.9961,101.592h -6.80315" fill="none" stroke="black"/>
<path d="M63.9961,99.2387h -6.80315" fill="none" stroke="black"/>
<path d="M63.9961,97.2h -6.80315" fill="none" stroke="black"/>
<path d="M63.9961,95.4017h -6.80315" fill="none" stroke="black"/>
<path d="M70.7992,93.7932h -13.6063" fill="none" stroke="black"/>
<text xml:space="preserve" x="49.0263" y="93.5019" fill="black" font-size="7.16345" font-family="Helvetica">5</text>
<text xml:space="preserve" x="38.0783" y="98.2362" fill="black" font-size="10.4952" font-family="Helvetica">10</text>
<path d="M63.9961,83.2105h -6.80315" fill="none" stroke="black"/>
<path d="M63.9961,77.02h -6.80315" fill="none" stroke="black"/>
<path d="M63.9961,72.6278h -6.80315" fill="none" stroke="black"/>
<path d="M63.9961,69.2209h -6.80315" fill="none" stroke="black"/>
<path d="M63.9961,66.4373h -6.80315" fill="none" stroke="black"/>
<path d="M63.9961,64.0838h -6.80315" fill="none" stroke="black"/>
<path d="M63.9961,62.0451h -6.80315" fill="none" stroke="black"/>
<path d="M63.9961,60.2468h -6.80315" fill="none" stroke="black"/>
<path d="M70.7992,58.6382h -13.6063" fill="none" stroke="black"/>
<text xml:space="preserve" x="49.0263" y="58.5866" fill="black" font-size="7.16345" font-family="Helvetica">6</text>
<text xml:space="preserve" x="38.0783" y="63.3209" fill="black" font-size="10.4952" font-family="Helvetica">10</text>
<path d="M63.9961,48.0555h -6.80315" fill="none" stroke="black"/>
<path d="M63.9961,41.865h -6.80315" fill="none" stroke="black"/>
<path d="M63.9961,37.4728h -6.80315" fill="none" stroke="black"/>
<path d="M63.9961,34.066h -6.80315" fill="none" stroke="black"/>
<path d="M63.9961,31.2824h -6.80315" fill="none" stroke="black"/>
<g transform="rotate(-90,26.5385,191.442)">
<text xml:space="preserve" x="26.5385" y="191.442" fill="black" font-size="10.4952" font-family="Helvetica">Counts/Channel</text>
</g>
<text xml:space="preserve" x="404.097" y="58.5866" fill="black" font-size="14.7788" font-family="Helvetica" font-weight="bold"> = 2.4879 MeV</text>
<text xml:space="preserve" x="398.179" y="61.8414" fill="black" font-size="10.0192" font-family="Helvetica" font-weight="bold">p</text>
<text xml:space="preserve" x="389.006" y="58.5866" fill="black" font-size="14.7788" font-family="Helvetica" font-weight="bold">E</text>
<path d="M262.163,162.648v 26.4511" fill="none" stroke="black"/>
<path d="M264.454,189.099l -2.29122, 3.9685l -2.29122, -3.9685z" fill="black"/>
<path d="M264.454,189.099l -2.29122, 3.9685l -2.29122, -3.9685h 4.58243z" fill="none" stroke="black"/>
<text xml:space="preserve" x="266.803" y="160.669" fill="black" font-size="10.4952" font-family="Helvetica" font-weight="bold">_1 	1.369 MeV</text>
<text xml:space="preserve" x="260.293" y="160.669" fill="black" font-size="10.4952" font-family="Times">&#0945;</text>
<path d="M184.528,128.948v 31.1864" fill="none" stroke="black"/>
<path d="M186.819,160.135l -2.29122, 3.9685l -2.29122, -3.9685z" fill="black"/>
<path d="M186.819,160.135l -2.29122, 3.9685l -2.29122, -3.9685h 4.58243z" fill="none" stroke="black"/>
<text xml:space="preserve" x="172.117" y="126.05" fill="black" font-size="10.4952" font-family="Helvetica" font-weight="bold"># p_1 	0.844 MeV</text>
<path d="M210.104,147.33v 12.8047" fill="none" stroke="black"/>
<path d="M212.395,160.135l -2.29122, 3.9685l -2.29122, -3.9685z" fill="black"/>
<path d="M212.395,160.135l -2.29122, 3.9685l -2.29122, -3.9685h 4.58243z" fill="none" stroke="black"/>
<text xml:space="preserve" x="197.564" y="142.916" fill="black" font-size="10.4952" font-family="Helvetica" font-weight="bold"># p_2 	1.015 MeV</text>
<path d="M497.482,269.568h 13.1832" fill="none" stroke="black"/>
<path d="M504.074,258.985h 6.59162" fill="none" stroke="black"/>
<path d="M504.074,252.795h 6.59162" fill="none" stroke="black"/>
<path d="M504.074,248.402h 6.59162" fill="none" stroke="black"/>
<path d="M504.074,244.996h 6.59162" fill="none" stroke="black"/>
<path d="M504.074,242.212h 6.59162" fill="none" stroke="black"/>
<path d="M504.074,239.858h 6.59162" fill="none" stroke="black"/>
<path d="M504.074,237.82h 6.59162" fill="none" stroke="black"/>
<path d="M504.074,236.021h 6.59162" fill="none" stroke="black"/>
<path d="M497.482,234.413h 13.1832" fill="none" stroke="black"/>
<path d="M504.074,223.83h 6.59162" fill="none" stroke="black"/>
<path d="M504.074,217.64h 6.59162" fill="none" stroke="black"/>
<path d="M504.074,213.248h 6.59162" fill="none" stroke="black"/>
<path d="M504.074,209.841h 6.59162" fill="none" stroke="black"/>
<path d="M504.074,207.057h 6.59162" fill="none" stroke="black"/>
<path d="M504.074,204.704h 6.59162" fill="none" stroke="black"/>
<path d="M504.074,202.665h 6.59162" fill="none" stroke="black"/>
<path d="M504.074,200.867h 6.59162" fill="none" stroke="black"/>
<path d="M497.482,199.258h 13.1832" fill="none" stroke="black"/>
<path d="M504.074,188.675h 6.59162" fill="none" stroke="black"/>
<path d="M504.074,182.485h 6.59162" fill="none" stroke="black"/>
<path d="M504.074,178.093h 6.59162" fill="none" stroke="black"/>
<path d="M504.074,174.686h 6.59162" fill="none" stroke="black"/>
<path d="M504.074,171.902h 6.59162" fill="none" stroke="black"/>
<path d="M504.074,169.549h 6.59162" fill="none" stroke="black"/>
<path d="M504.074,167.51h 6.59162" fill="none" stroke="black"/>
<path d="M504.074,165.712h 6.59162" fill="none" stroke="black"/>
<path d="M497.482,164.103h 13.1832" fill="none" stroke="black"/>
<path d="M504.074,153.52h 6.59162" fill="none" stroke="black"/>
<path d="M504.074,147.33h 6.59162" fill="none" stroke="black"/>
<path d="M504.074,142.938h 6.59162" fill="none" stroke="black"/>
<path d="M504.074,139.531h 6.59162" fill="none" stroke="black"/>
<path d="M504.074,136.747h 6.59162" fill="none" stroke="black"/>
<path d="M504.074,134.394h 6.59162" fill="none" stroke="black"/>
<path d="M504.074,132.355h 6.59162" fill="none" stroke="black"/>
<path d="M504.074,130.557h 6.59162" fill="none" stroke="black"/>
<path d="M497.482,128.948h 13.1832" fill="none" stroke="black"/>
<path d="M504.074,118.365h 6.59162" fill="none" stroke="black"/>
<path d="M504.074,112.175h 6.59162" fill="none" stroke="black"/>
<path d="M504.074,107.783h 6.59162" fill="none" stroke="black"/>
<path d="M504.074,104.376h 6.59162" fill="none" stroke="black"/>
<path d="M504.074,101.592h 6.59162" fill="none" stroke="black"/>
<path d="M504.074,99.2387h 6.59162" fill="none" stroke="black"/>
<path d="M504.074,97.2h 6.59162" fill="none" stroke="black"/>
<path d="M504.074,95.4017h 6.59162" fill="none" stroke="black"/>
<path d="M497.482,93.7932h 13.1832" fill="none" stroke="black"/>
<path d="M504.074,83.2105h 6.59162" fill="none" stroke="black"/>
<path d="M504.074,77.02h 6.59162" fill="none" stroke="black"/>
<path d="M504.074,72.6278h 6.59162" fill="none" stroke="black"/>
<path d="M504.074,69.2209h 6.59162" fill="none" stroke="black"/>
<path d="M504.074,66.4373h 6.59162" fill="none" stroke="black"/>
<path d="M504.074,64.0838h 6.59162" fill="none" stroke="black"/>
<path d="M504.074,62.0451h 6.59162" fill="none" stroke="black"/>
<path d="M504.074,60.2468h 6.59162" fill="none" stroke="black"/>
<path d="M497.482,58.6382h 13.1832" fill="none" stroke="black"/>
<path d="M504.074,48.0555h 6.59162" fill="none" stroke="black"/>
<path d="M504.074,41.865h 6.59162" fill="none" stroke="black"/>
<path d="M504.074,37.4728h 6.59162" fill="none" stroke="black"/>
<path d="M504.074,34.066h 6.59162" fill="none" stroke="black"/>
<path d="M504.074,31.2824h 6.59162" fill="none" stroke="black"/>
<path d="M504.074,28.9288h 6.59162" fill="none" stroke="black"/>
<path d="M57.1929,35.7577v -7.46952" fill="none" stroke="black"/>
<path d="M75.3318,35.7577v -7.46952" fill="none" stroke="black"/>
<path d="M93.4707,35.7577v -7.46952" fill="none" stroke="black"/>
<path d="M111.61,35.7577v -7.46952" fill="none" stroke="black"/>
<path d="M129.749,35.7577v -7.46952" fill="none" stroke="black"/>
<path d="M147.887,35.7577v -7.46952" fill="none" stroke="black"/>
<path d="M166.026,35.7577v -7.46952" fill="none" stroke="black"/>
<path d="M184.165,35.7577v -7.46952" fill="none" stroke="black"/>
<path d="M202.304,35.7577v -7.46952" fill="none" stroke="black"/>
<path d="M220.443,35.7577v -7.46952" fill="none" stroke="black"/>
<path d="M238.582,35.7577v -7.46952" fill="none" stroke="black"/>
<path d="M256.721,35.7577v -7.46952" fill="none" stroke="black"/>
<path d="M274.86,35.7577v -7.46952" fill="none" stroke="black"/>
<path d="M292.999,35.7577v -7.46952" fill="none" stroke="black"/>
<path d="M311.138,35.7577v -7.46952" fill="none" stroke="black"/>
<path d="M329.277,35.7577v -7.46952" fill="none" stroke="black"/>
<path d="M347.415,35.7577v -7.46952" fill="none" stroke="black"/>
<path d="M365.554,35.7577v -7.46952" fill="none" stroke="black"/>
<path d="M383.693,35.7577v -7.46952" fill="none" stroke="black"/>
<path d="M401.832,35.7577v -7.46952" fill="none" stroke="black"/>
<path d="M419.971,35.7577v -7.46952" fill="none" stroke="black"/>
<path d="M438.11,35.7577v -7.46952" fill="none" stroke="black"/>
<path d="M456.249,35.7577v -7.46952" fill="none" stroke="black"/>
<path d="M474.388,35.7577v -7.46952" fill="none" stroke="black"/>
<path d="M492.527,35.7577v -7.46952" fill="none" stroke="black"/>
<path d="M510.666,35.7577v -7.46952" fill="none" stroke="black"/></svg>
