<?xml version="1.0" standalone="no"?>
<svg width="567.429" height="311.778" viewBox="0 0 567.429 311.778" xmlns="http://www.w3.org/2000/svg" shape-rendering="crispEdges">
<title>
Yields/P1/det-11/run_0097_Fit.svg
</title>
<desc>
Creator: ROOT Version 6.12/06
CreationDate: Mon Apr 15 10:29:01 2019</desc>
<defs>
</defs>
<rect x="0.5" y="0" width="566.929" height="311.278" fill="white"/>
<rect x="57.1929" y="31.1278" width="453.543" height="249.023" fill="white"/>
<rect x="57.1929" y="31.1278" width="453.543" height="249.023" fill="none" stroke="black"/>
<rect x="57.1929" y="31.1278" width="453.543" height="249.023" fill="white"/>
<rect x="57.1929" y="31.1278" width="453.543" height="249.023" fill="none" stroke="black"/>
<path d="M57.1929,40.501h 0.181345v 239.65h 5.259v -10.1661h 0.181345v 10.1661h 9.79262v -10.1661h 0.181345v 10.1661h 2.17614v -10.1661h 0.181345v 10.1661h 4.17093v -10.1661h 0.181345v 10.1661h 1.99479v -10.1661h 0.36269v 10.1661h 1.99479v -10.1661h
 0.181345v 10.1661h 0.181345v -10.1661h 0.181345v 10.1661h 0.181345v -10.1661h 0.181345v 10.1661h 1.08807v -10.1661h 0.181345v 10.1661h 0.544034v -20.3322h 0.181345v 10.1661h 0.181345v 10.1661h 0.544034v -10.1661h 0.36269v 10.1661h 0.36269v -26.279h
 0.36269v -14.3854h 0.181345v -5.94679h 0.181345v -11.8936h 0.181345v -15.1784h 0.181345v -11.4583h 0.181345v -6.00558h 0.181345v -8.81509h 0.181345v -4.74064h 0.181345v -2.9812h 0.181345v -2.60421h 0.181345v -0.622879h 0.181345v -1.26981h 0.181345v
 -0.629447h 0.181345v -1.74086h 0.181345v 0.385668h 0.181345v -0.934344h 0.181345v -0.867573h 0.181345v -0.425766h 0.181345v 0.0841701h 0.181345v -0.890398h 0.181345v 0.341566h 0.181345v -0.916037h 0.181345v -0.10466h 0.181345v 0.306563h 0.181345v
 0.432269h 0.181345v -0.451618h 0.181345v -0.707757h 0.181345v -0.174005h 0.181345v 0.340778h 0.181345v -0.664915h 0.181345v 0.161173h 0.181345v 0.272621h 0.181345v -0.619618h 0.181345v 0.869386h 0.181345v -0.166984h 0.181345v -1.10995h 0.181345v
 0.98138h 0.181345v -0.565032h 0.181345v 0.482968h 0.181345v 0.537095h 0.181345v -1.21236h 0.181345v 0.593655h 0.181345v -0.894475h 0.181345v -0.319766h 0.181345v 0.918841h 0.181345v -0.427934h 0.181345v -0.0429728h 0.181345v 0.875218h 0.181345v
 -0.377702h 0.181345v 0.377702h 0.181345v 0.805134h 0.181345v -0.398728h 0.181345v -0.721828h 0.181345v 0.415973h 0.181345v -0.308591h 0.181345v 0.483909h 0.181345v 0.15866h 0.181345v 0.360984h 0.181345v -0.593718h 0.36269v -0.799786h 0.181345v
 -0.113256h 0.181345v -0.0433282h 0.181345v -0.791616h 0.181345v -1.52477h 0.181345v -1.64102h 0.181345v -2.27785h 0.181345v -1.82706h 0.181345v -2.50494h 0.181345v -2.01832h 0.181345v -2.52162h 0.181345v -2.14034h 0.181345v -1.88385h 0.181345v
 -1.59567h 0.181345v -1.32399h 0.181345v -0.942592h 0.181345v -0.113228h 0.181345v -0.0464756h 0.181345v 0.926348h 0.181345v 1.35744h 0.181345v 1.39475h 0.181345v 1.63602h 0.181345v 2.40171h 0.181345v 2.85149h 0.181345v 3.00647h 0.181345v 3.08595h
 0.181345v 3.26026h 0.181345v 3.38948h 0.181345v 2.97623h 0.181345v 3.02313h 0.181345v 2.04523h 0.181345v 1.23082h 0.181345v 0.553522h 0.181345v 0.486614h 0.181345v 2.58244h 0.181345v -1.19339h 0.181345v 0.921975h 0.181345v -0.123596h 0.181345v
 -0.26427h 0.181345v -0.120383h 0.181345v 1.42588h 0.181345v 0.447187h 0.36269v -1.05119h 0.181345v 0.736735h 0.181345v 0.682291h 0.181345v -0.880938h 0.181345v -0.0874316h 0.181345v 0.737395h 0.181345v 0.41841h 0.181345v -0.891931h 0.181345v
 -0.307395h 0.181345v 0.374112h 0.181345v -0.0888888h 0.181345v 0.313497h 0.181345v 0.136434h 0.181345v 0.0686961h 0.181345v 0.609244h 0.181345v 0.735937h 0.181345v -1.32221h 0.181345v 1.57596h 0.181345v -1.55296h 0.181345v 2.39579h 0.181345v
 -1.24676h 0.181345v -0.799534h 0.181345v 1.38374h 0.181345v 0.881062h 0.181345v 0.362157h 0.181345v -1.42349h 0.181345v 1.22738h 0.181345v 0.918757h 0.181345v -2.37471h 0.181345v 0.963371h 0.181345v -0.213725h 0.181345v 0.512776h 0.181345v 0.617042h
 0.181345v -0.67187h 0.181345v 0.67187h 0.181345v 0.946561h 0.181345v -0.182196h 0.181345v -1.07613h 0.181345v 1.69246h 0.181345v -0.311404h 0.181345v -1.32487h 0.181345v 1.20213h 0.181345v 0.184488h 0.181345v -0.366684h 0.181345v 0.0302093h
 0.181345v 1.93687h 0.181345v -1.53838h 0.181345v 0.473667h 0.181345v 0.0965971h 0.181345v -0.445441h 0.181345v 0.413171h 0.181345v 1.06957h 0.181345v -0.274792h 0.181345v -0.336405h 0.181345v -1.27339h 0.181345v 2.02394h 0.181345v -1.17665h
 0.181345v 0.227899h 0.181345v 2.38167h 0.181345v -2.41444h 0.181345v -0.130371h 0.181345v 0.130371h 0.181345v -0.130371h 0.181345v 0.596016h 0.181345v -0.201375h 0.181345v -0.93614h 0.181345v 2.33402h 0.181345v 0.221666h 0.181345v -0.655193h
 0.181345v 0.618015h 0.181345v -1.87934h 0.181345v 0.164241h 0.181345v 0.40185h 0.181345v 0.448133h 0.181345v -1.59072h 0.181345v 1.62576h 0.181345v 0.176496h 0.181345v -1.86493h 0.181345v 1.58355h 0.181345v -0.20755h 0.181345v -2.46068h 0.181345v
 1.98752h 0.181345v -1.27339h 0.181345v -2.25651h 0.181345v -0.0521944h 0.181345v 0.530495h 0.181345v -0.42592h 0.181345v -0.666779h 0.181345v -0.14966h 0.181345v -1.68606h 0.181345v 1.58713h 0.181345v -1.16068h 0.181345v 0.723559h 0.181345v
 -0.213768h 0.181345v -0.094017h 0.181345v 2.14031h 0.181345v -0.714295h 0.181345v 1.87019h 0.181345v 0.0293626h 0.181345v 0.940684h 0.181345v 0.706187h 0.181345v 1.163h 0.181345v -1.03086h 0.181345v 1.57481h 0.181345v -0.36486h 0.181345v 0.476111h
 0.181345v -0.258286h 0.181345v 0.905168h 0.181345v -0.193239h 0.181345v 0.667671h 0.36269v 1.43409h 0.181345v -0.902184h 0.181345v -0.247892h 0.181345v -1.06641h 0.181345v 1.43984h 0.181345v -1.05386h 0.181345v 0.477005h 0.181345v 0.409708h
 0.181345v -0.287993h 0.181345v -0.0406841h 0.181345v -0.829289h 0.181345v 1.03385h 0.181345v 0.375552h 0.181345v -0.292923h 0.181345v -0.0413727h 0.181345v -0.998113h 0.181345v 0.752298h 0.181345v 1.27247h 0.181345v -0.607579h 0.181345v -1.18376h
 0.181345v 0.478301h 0.181345v 1.40193h 0.181345v -1.99741h 0.181345v 1.13187h 0.181345v -0.291261h 0.181345v -1.92752h 0.181345v 2.3454h 0.181345v -0.084534h 0.181345v -1.09594h 0.181345v 0.0391632h 0.181345v -1.27616h 0.181345v 0.73717h 0.181345v
 -1.02197h 0.181345v 0.946561h 0.181345v -0.661763h 0.181345v -0.249499h 0.181345v -0.17565h 0.181345v 1.31431h 0.181345v -1.34918h 0.181345v 1.12179h 0.181345v 0.811798h 0.181345v -1.32906h 0.181345v -1.38467h 0.181345v 1.67801h 0.181345v 0.682291h
 0.181345v 0.433139h 0.181345v -1.40877h 0.181345v 1.01448h 0.181345v -1.05074h 0.181345v 0.218909h 0.181345v 1.3465h 0.181345v 0.0403483h 0.181345v -0.398573h 0.181345v 1.53218h 0.181345v -0.0870424h 0.181345v 1.08024h 0.181345v -0.459806h 0.181345v
 -0.706961h 0.181345v 1.12013h 0.181345v -0.503427h 0.181345v 0.880724h 0.181345v -2.08925h 0.181345v 0.377702h 0.181345v -0.377702h 0.181345v 0.208632h 0.181345v 1.22658h 0.181345v -0.226691h 0.181345v -0.788246h 0.181345v 1.19885h 0.181345v
 -0.984105h 0.181345v -0.342094h 0.181345v 2.13461h 0.181345v -2.00726h 0.181345v 1.52634h 0.181345v -1.18123h 0.181345v 0.353429h 0.181345v -2.38807h 0.181345v 2.79613h 0.181345v 0.803203h 0.181345v -1.0313h 0.181345v 0.27415h 0.36269v -0.587647h
 0.181345v 0.495693h 0.181345v -0.932231h 0.181345v -0.795246h 0.181345v 1.18754h 0.181345v -0.349221h 0.181345v 0.527h 0.181345v -0.613022h 0.181345v 1.11333h 0.181345v -0.722194h 0.181345v -0.218582h 0.181345v 1.55493h 0.181345v -2.27464h 0.181345v
 0.633189h 0.181345v 1.49743h 0.181345v -1.10396h 0.181345v -0.565006h 0.181345v -1.02894h 0.181345v 0.526031h 0.181345v 0.804431h 0.181345v 0.805077h 0.181345v -1.14918h 0.181345v -0.664889h 0.181345v 0.245815h 0.181345v -0.407432h 0.181345v
 -0.0801456h 0.181345v 0.364155h 0.181345v 0.123422h 0.181345v 0.419074h 0.181345v 0.128093h 0.181345v -1.15415h 0.181345v 1.28337h 0.181345v 0.217933h 0.181345v 0.22122h 0.181345v -0.949347h 0.181345v -0.371326h 0.181345v 1.6361h 0.181345v
 0.0456193h 0.181345v -1.01494h 0.181345v -0.253607h 0.181345v -0.0418448h 0.181345v -0.891615h 0.181345v 1.79645h 0.181345v -1.91394h 0.181345v -0.0778071h 0.181345v 1.29734h 0.181345v -0.90411h 0.181345v -0.624205h 0.181345v 1.23455h 0.181345v
 0.81146h 0.181345v -0.261133h 0.181345v 0.173571h 0.181345v 1.134h 0.181345v 0.974884h 0.181345v -0.592671h 0.181345v -1.38467h 0.181345v 0.722194h 0.181345v 1.25515h 0.181345v -1.88899h 0.181345v 1.63912h 0.181345v -0.677785h 0.181345v -0.373692h
 0.181345v -0.319348h 0.181345v -0.312542h 0.181345v 2.394h 0.181345v -1.34103h 0.181345v 1.08326h 0.181345v 1.33668h 0.181345v -0.656823h 0.181345v -1.32959h 0.181345v -0.622168h 0.181345v 0.671138h 0.181345v -1.49122h 0.181345v 0.914103h 0.181345v
 0.675555h 0.181345v 0.198872h 0.181345v -0.198872h 0.181345v 1.34366h 0.181345v -1.09464h 0.181345v -0.0501423h 0.181345v 1.5286h 0.181345v 2.47539h 0.181345v -2.02407h 0.181345v 0.644146h 0.181345v -0.0597418h 0.181345v -2.26087h 0.181345v
 0.733483h 0.181345v 1.17395h 0.181345v -1.17395h 0.181345v 1.64711h 0.181345v -1.9133h 0.181345v 0.869386h 0.181345v 0.339782h 0.181345v 0.704132h 0.181345v 0.365162h 0.181345v -1.68634h 0.181345v -0.0548285h 0.181345v 1.98976h 0.181345v -0.970046h
 0.181345v 0.783208h 0.181345v -2.07403h 0.181345v -0.0536257h 0.181345v 2.69546h 0.181345v -0.191723h 0.181345v -2.55717h 0.181345v 1.63444h 0.181345v -0.811798h 0.181345v 2.31739h 0.181345v -0.709293h 0.181345v -0.855794h 0.181345v 1.17395h
 0.181345v -0.752298h 0.181345v 1.07751h 0.181345v -2.13821h 0.181345v 3.08916h 0.181345v -1.27616h 0.181345v -0.752298h 0.181345v 2.0988h 0.181345v -0.955372h 0.181345v -0.958943h 0.181345v -0.665403h 0.181345v 0.852241h 0.181345v 0.575235h
 0.181345v 0.530976h 0.181345v -0.0674328h 0.181345v 0.618356h 0.181345v -1.59432h 0.181345v 0.382629h 0.181345v 0.526213h 0.181345v -1.88292h 0.181345v 1.22805h 0.181345v -0.0639069h 0.181345v 1.19523h 0.181345v -0.409327h 0.181345v 0.0674328h
 0.181345v -0.530976h 0.181345v 0.666779h 0.181345v 0.206091h 0.181345v -1.19523h 0.181345v 0.128093h 0.181345v 0.861041h 0.181345v -1.5521h 0.181345v 2.32236h 0.181345v -1.30609h 0.181345v 0.467767h 0.181345v -1.04806h 0.181345v -0.250717h 0.181345v
 1.36684h 0.181345v -0.535826h 0.181345v 2.11905h 0.181345v -2.82524h 0.181345v -0.371326h 0.181345v 1.81943h 0.181345v 0.42108h 0.181345v -0.141707h 0.181345v -2.34123h 0.181345v 1.92414h 0.181345v -1.05751h 0.181345v 1.4746h 0.181345v 0.575235h
 0.181345v 1.95845h 0.181345v -2.39198h 0.181345v -1.93173h 0.181345v 1.2365h 0.181345v -0.921076h 0.181345v -0.806401h 0.181345v -0.821544h 0.181345v 2.2799h 0.181345v 0.26912h 0.181345v 0.27415h 0.181345v -2.76599h 0.181345v 1.25534h 0.181345v
 0.0625442h 0.181345v 0.0628121h 0.181345v 0.0630823h 0.181345v -0.739649h 0.181345v 0.803004h 0.181345v -1.10051h 0.181345v 0.539936h 0.181345v 0.434138h 0.181345v -2.43073h 0.181345v 1.39788h 0.181345v -1.66215h 0.181345v 0.317701h 0.181345v
 0.656823h 0.181345v -0.549375h 0.181345v -0.684741h 0.181345v -0.555428h 0.181345v -0.19687h 0.181345v -0.528151h 0.181345v -0.555269h 0.181345v 1.03461h 0.181345v -1.12515h 0.181345v -0.618563h 0.181345v 1.74371h 0.181345v -1.17021h 0.181345v
 0.4106h 0.181345v -2.02769h 0.181345v 2.35519h 0.181345v -0.465645h 0.181345v -0.272452h 0.181345v -0.311594h 0.181345v -0.979557h 0.181345v 0.249297h 0.181345v -0.125178h 0.181345v -0.729429h 0.181345v 0.771036h 0.181345v 0.252154h 0.181345v
 0.0424504h 0.181345v 0.300644h 0.181345v 0.440472h 0.181345v 0.68655h 0.181345v -1.12702h 0.181345v 0.802628h 0.181345v -2.20839h 0.181345v 0.278614h 0.36269v -0.357256h 0.181345v -0.310416h 0.181345v -1.46057h 0.181345v -0.478673h 0.181345v
 -0.463543h 0.181345v -1.12876h 0.181345v 0.335775h 0.181345v -0.810848h 0.181345v -1.17845h 0.181345v -1.31431h 0.181345v -1.56499h 0.181345v -0.818613h 0.181345v -0.972728h 0.181345v -0.194778h 0.181345v -1.0634h 0.181345v -1.9517h 0.181345v
 -0.20338h 0.181345v 0.0311063h 0.181345v -1.50787h 0.181345v -0.2369h 0.181345v -0.988834h 0.181345v 0.406158h 0.181345v -1.25955h 0.181345v 1.40641h 0.181345v -0.960811h 0.181345v 0.100888h 0.181345v 1.42067h 0.181345v -0.667708h 0.181345v 1.55861h
 0.181345v 0.0891589h 0.181345v 1.05027h 0.181345v 0.97648h 0.181345v 0.991125h 0.181345v 1.26119h 0.181345v 1.20558h 0.181345v 1.03202h 0.181345v 1.49115h 0.181345v 1.06713h 0.181345v 1.88747h 0.181345v 1.91356h 0.181345v 1.07864h 0.181345v 1.58823h
 0.181345v 0.978136h 0.181345v 0.803203h 0.181345v 0.393758h 0.181345v 0.820723h 0.181345v 2.15573h 0.181345v -0.362157h 0.181345v 0.986362h 0.181345v 1.4746h 0.181345v -2.98796h 0.181345v 2.29926h 0.181345v 2.56679h 0.181345v -2.89938h 0.181345v
 1.45059h 0.181345v 2.27297h 0.181345v -1.60451h 0.181345v -1.16811h 0.181345v 0.283421h 0.181345v -0.423104h 0.36269v 2.24929h 0.181345v -1.75446h 0.181345v 1.3548h 0.181345v 0.39966h 0.181345v -0.478301h 0.181345v 0.317128h 0.181345v -0.780322h
 0.181345v 1.51997h 0.181345v -0.739649h 0.181345v -0.780322h 0.181345v -0.59568h 0.181345v 2.0316h 0.181345v 0.686282h 0.181345v -2.27341h 0.181345v 1.58713h 0.181345v -1.43592h 0.181345v 0.229769h 0.181345v 1.45976h 0.181345v -0.748034h 0.181345v
 -1.75446h 0.181345v 2.41747h 0.181345v 1.05434h 0.181345v -2.42908h 0.181345v -1.39788h 0.181345v 3.29031h 0.181345v 2.58648h 0.181345v -2.67404h 0.181345v -1.33425h 0.181345v 0.989134h 0.181345v 1.33831h 0.181345v -0.185656h 0.181345v -0.981111h
 0.181345v -0.591816h 0.181345v 1.29878h 0.181345v 0.27415h 0.181345v 0.56417h 0.181345v -2.62603h 0.181345v 1.96991h 0.181345v 0.560575h 0.181345v -1.62127h 0.181345v 3.88214h 0.181345v -3.36138h 0.181345v 0.63189h 0.181345v -1.23768h 0.36269v
 -0.743818h 0.181345v 1.61709h 0.181345v -0.530176h 0.181345v 0.620432h 0.181345v -0.35774h 0.181345v -2.28609h 0.181345v 1.93687h 0.181345v 0.437842h 0.181345v -0.26427h 0.181345v 0.353429h 0.181345v 0.270776h 0.181345v -0.270776h 0.181345v -0.8681h
 0.181345v 0.778941h 0.181345v 0.0891589h 0.181345v -0.265867h 0.181345v 1.1886h 0.181345v -1.95845h 0.181345v 1.3065h 0.181345v 0.183335h 0.181345v -2.53502h 0.181345v 3.00364h 0.181345v -0.651956h 0.181345v -3.03397h 0.181345v 4.77284h 0.181345v
 -3.37496h 0.181345v -0.946561h 0.181345v 1.02827h 0.181345v -1.40532h 0.181345v 2.68894h 0.181345v -2.23529h 0.181345v 0.232194h 0.36269v 0.235929h 0.181345v -2.40736h 0.181345v -0.33259h 0.181345v -0.83101h 0.181345v -1.07803h 0.181345v -0.950169h
 0.181345v 1.36004h 0.181345v -3.04536h 0.181345v 0.590681h 0.181345v -1.57037h 0.181345v -1.90193h 0.181345v 0.856985h 0.181345v -2.32676h 0.181345v -1.07154h 0.181345v 0.0668183h 0.181345v -1.49497h 0.181345v -2.29108h 0.181345v -1.14408h 0.181345v
 -1.82023h 0.181345v 1.23396h 0.181345v -2.29367h 0.181345v -1.42288h 0.181345v -0.611561h 0.181345v -0.992482h 0.181345v 0.771672h 0.181345v -2.20295h 0.181345v 0.805077h 0.181345v 0.325421h 0.181345v -1.60158h 0.181345v 0.89794h 0.181345v 0.15012h
 0.181345v -0.135177h 0.181345v 0.862084h 0.181345v -0.0474904h 0.181345v 0.481969h 0.181345v 0.857547h 0.181345v 1.37884h 0.181345v 0.463805h 0.181345v 1.24941h 0.181345v 1.36584h 0.181345v 0.895025h 0.181345v 1.66215h 0.181345v 1.01189h 0.181345v
 2.05283h 0.181345v 2.38765h 0.181345v 1.22469h 0.181345v 1.14462h 0.181345v 1.82303h 0.181345v 3.04536h 0.181345v -1.33136h 0.181345v 1.73505h 0.181345v 4.24207h 0.181345v -0.359935h 0.181345v 3.83911h 0.181345v 0.350613h 0.181345v -0.234671h
 0.181345v 1.72748h 0.181345v -1.95845h 0.181345v 4.3729h 0.181345v -1.18583h 0.181345v 1.18583h 0.181345v 2.33826h 0.181345v -1.38141h 0.181345v 0.165726h 0.181345v 2.94316h 0.181345v -0.40185h 0.181345v 0.199549h 0.181345v 1.04062h 0.181345v
 -2.74576h 0.181345v -0.177779h 0.181345v 5.00576h 0.181345v -1.64438h 0.181345v -3.7106h 0.181345v -1.6313h 0.181345v 1.6313h 0.181345v 2.63957h 0.181345v -0.60698h 0.181345v 2.83346h 0.181345v -3.97689h 0.181345v 0.560575h 0.181345v 2.71218h
 0.181345v -1.92978h 0.181345v 0.202301h 0.181345v -0.59872h 0.181345v 0.19687h 0.181345v -1.14343h 0.181345v -2.52046h 0.181345v 3.27276h 0.181345v -0.752298h 0.181345v 2.3836h 0.181345v -2.3836h 0.181345v 6.03875h 0.181345v -5.47817h 0.181345v
 1.39788h 0.181345v 0.642436h 0.181345v -2.4164h 0.36269v 2.19911h 0.181345v -2.5658h 0.181345v 2.14065h 0.181345v -0.815021h 0.181345v -2.20413h 0.181345v 0.345112h 0.181345v 0.17565h 0.181345v -1.82532h 0.181345v 0.801653h 0.181345v -2.42474h
 0.181345v 1.77995h 0.181345v 0.64479h 0.181345v 3.10888h 0.181345v -2.77554h 0.181345v -1.44378h 0.181345v 0.946561h 0.181345v 0.497221h 0.181345v 1.04806h 0.181345v 1.93261h 0.36269v -3.80024h 0.181345v 2.61041h 0.181345v -0.189249h 0.181345v
 -1.7692h 0.181345v 4.44324h 0.181345v -3.40752h 0.181345v 1.70514h 0.181345v -0.782404h 0.181345v 3.17783h 0.181345v -4.96866h 0.181345v 0.169558h 0.181345v 1.62127h 0.181345v -1.62127h 0.36269v 0.878502h 0.181345v 4.40151h 0.181345v -5.61719h
 0.181345v 1.21568h 0.181345v 0.934494h 0.181345v -0.191723h 0.181345v -1.95845h 0.181345v 1.95845h 0.181345v 0.782404h 0.181345v -0.199549h 0.181345v 1.24017h 0.181345v -3.4443h 0.181345v 4.10606h 0.181345v -2.29307h 0.181345v 0.391133h 0.181345v
 4.08778h 0.181345v -1.49281h 0.181345v -3.36708h 0.181345v 1.37909h 0.181345v -0.803851h 0.181345v -2.67404h 0.181345v 1.54528h 0.181345v 0.742771h 0.181345v -2.12418h 0.181345v 2.90658h 0.181345v -0.782404h 0.181345v 1.39788h 0.181345v -2.49839h
 0.181345v -1.02367h 0.181345v 2.12418h 0.181345v -1.79083h 0.181345v 2.98067h 0.181345v 1.52235h 0.181345v -3.63491h 0.181345v 2.11257h 0.181345v -1.37909h 0.181345v 3.13241h 0.181345v 0.473157h 0.181345v -2.63391h 0.181345v 2.16075h 0.181345v
 -1.75332h 0.181345v 2.46891h 0.181345v -2.87634h 0.181345v 3.62864h 0.181345v -5.15381h 0.181345v 6.78511h 0.181345v -0.56417h 0.181345v -1.32221h 0.181345v 0.255078h 0.181345v -2.58802h 0.181345v -3.4443h 0.181345v 7.09945h 0.181345v -2.76599h
 0.181345v 1.95845h 0.181345v -4.08778h 0.181345v 2.12933h 0.181345v -0.889157h 0.181345v 0.889157h 0.181345v 2.22272h 0.181345v -4.1525h 0.181345v -0.971653h 0.181345v 4.0945h 0.181345v 1.8523h 0.181345v -2.0988h 0.181345v -1.61843h 0.181345v
 -1.25791h 0.181345v 0.407432h 0.181345v 3.4808h 0.181345v -1.95845h 0.181345v -0.227394h 0.181345v 1.92625h 0.181345v -2.15017h 0.181345v 3.78148h 0.181345v -4.00203h 0.181345v 0.220555h 0.181345v 0.451316h 0.181345v 1.44378h 0.181345v -1.21281h
 0.181345v 1.21281h 0.181345v 1.60158h 0.181345v -0.822642h 0.181345v 1.39788h 0.181345v 1.54528h 0.181345v -4.9349h 0.181345v 0.715586h 0.181345v -0.242429h 0.181345v 5.12853h 0.181345v -3.87421h 0.181345v 1.08691h 0.181345v 1.17395h 0.181345v
 0.624205h 0.181345v 1.33425h 0.181345v -3.41178h 0.181345v 2.72949h 0.181345v -3.27276h 0.181345v 0.26912h 0.181345v 2.03626h 0.181345v -2.30538h 0.181345v 3.27276h 0.181345v -1.57858h 0.181345v 2.97645h 0.36269v -0.715586h 0.181345v -1.01189h
 0.181345v 3.68593h 0.181345v -2.32061h 0.181345v 3.1836h 0.181345v -3.88214h 0.181345v 3.4443h 0.181345v -3.09919h 0.181345v 3.53703h 0.181345v -2.06914h 0.181345v 11.7974h 0.181345v -12.1784h 0.181345v -1.08691h 0.181345v 7.03371h 0.181345v
 -6.31812h 0.181345v 1.95845h 0.181345v -2.67404h 0.181345v 6.48019h 0.181345v -5.0123h 0.36269v 2.52046h 0.181345v 1.95845h 0.181345v -0.51467h 0.181345v -1.44378h 0.181345v 3.04536h 0.181345v 1.79816h 0.181345v -4.84352h 0.181345v -1.72748h
 0.181345v 2.19312h 0.181345v -2.59497h 0.181345v 6.34864h 0.181345v -1.17395h 0.181345v 5.39327h 0.181345v -10.568h 0.181345v 5.17469h 0.181345v 4.60029h 0.181345v -4.60029h 0.181345v 7.12075h 0.181345v -10.1661h 0.181345v 6.17777h 0.181345v
 0.715586h 0.181345v 1.54528h 0.181345v 1.72748h 0.181345v -5.32259h 0.181345v -4.84352h 0.181345v 4.21932h 0.181345v 0.624205h 0.181345v 2.04983h 0.181345v 0.752298h 0.181345v -2.80213h 0.181345v -3.39974h 0.181345v -1.44378h 0.181345v 4.21932h
 0.181345v 4.21932h 0.181345v -2.94316h 0.181345v -1.27616h 0.181345v -1.17395h 0.181345v -1.08691h 0.181345v 2.26087h 0.181345v 2.67404h 0.181345v -4.40151h 0.181345v 5.15381h 0.181345v 2.52046h 0.181345v -3.98834h 0.181345v -4.73399h 0.181345v
 1.60158h 0.181345v 3.13241h 0.181345v -4.21932h 0.181345v 2.88507h 0.181345v -0.624205h 0.181345v -1.17395h 0.181345v 4.60029h 0.181345v 2.52046h 0.181345v -7.67427h 0.181345v -5.7646h 0.181345v 9.45053h 0.181345v -0.682291h 0.181345v -5.02983h
 0.181345v -0.465645h 0.181345v 1.44378h 0.181345v -3.57311h 0.181345v 3.57311h 0.181345v -3.57311h 0.181345v -1.50559h 0.181345v 4.58147h 0.181345v -2.26087h 0.181345v -3.35633h 0.181345v 6.62909h 0.181345v -2.40977h 0.181345v 0.451316h 0.181345v
 1.95845h 0.181345v -7.59647h 0.181345v -1.76211h 0.181345v 4.12736h 0.181345v -2.97645h 0.181345v 1.57858h 0.181345v -0.967379h 0.181345v 3.50869h 0.181345v -4.70663h 0.181345v 2.84761h 0.181345v 1.08691h 0.181345v -2.42116h 0.181345v 0.322356h
 0.181345v 0.666779h 0.181345v -1.61334h 0.181345v 1.95845h 0.181345v -4.98471h 0.181345v 3.33504h 0.181345v 0.637779h 0.181345v -0.946561h 0.181345v 2.67404h 0.181345v -2.67404h 0.181345v -0.59872h 0.181345v 1.22292h 0.181345v -0.315423h 0.181345v
 4.32371h 0.181345v -6.35997h 0.181345v 1.42506h 0.181345v -0.586742h 0.181345v 0.889157h 0.181345v -1.45333h 0.181345v 1.76211h 0.181345v -2.56965h 0.181345v -0.259593h 0.181345v -0.994727h 0.181345v 0.994727h 0.181345v -1.69886h 0.181345v -3.98834h
 0.181345v 1.46788h 0.181345v -1.46788h 0.181345v 1.27616h 0.181345v -0.922732h 0.181345v -2.31188h 0.181345v -1.03225h 0.181345v -2.11778h 0.36269v 0.758786h 0.181345v -3.14239h 0.181345v -0.715586h 0.181345v -1.33425h 0.181345v -0.797776h 0.181345v
 -1.55391h 0.181345v -0.458369h 0.181345v 1.58713h 0.181345v -2.74371h 0.181345v 0.210027h 0.181345v -1.4746h 0.181345v -1.10512h 0.36269v 1.82389h 0.181345v -3.70824h 0.181345v 1.30456h 0.181345v 0.698542h 0.181345v -1.41954h 0.181345v -1.24456h
 0.181345v 0.923378h 0.181345v -0.36603h 0.181345v 0.905304h 0.181345v -2.19007h 0.181345v 0.238487h 0.181345v -0.379739h 0.181345v -0.278488h 0.181345v 0.467129h 0.181345v 0.28759h 0.181345v -1.51621h 0.181345v 0.17565h 0.181345v 0.0886202h
 0.181345v -0.351313h 0.181345v -0.17255h 0.181345v 0.657805h 0.181345v -1.45079h 0.181345v 1.54077h 0.181345v -2.02037h 0.181345v 2.202h 0.181345v -1.39372h 0.181345v -0.287993h 0.181345v -0.754335h 0.181345v -0.56928h 0.181345v 2.37922h 0.181345v
 -0.388828h 0.181345v -0.666779h 0.181345v 1.36532h 0.181345v -0.613022h 0.181345v 2.11861h 0.181345v -2.07566h 0.181345v 1.78134h 0.181345v -0.430698h 0.181345v 2.57065h 0.181345v -0.111959h 0.181345v 1.58872h 0.181345v -0.428699h 0.181345v 1.86391h
 0.181345v 0.346744h 0.181345v 1.09231h 0.181345v 2.0234h 0.181345v 0.620432h 0.181345v 1.52518h 0.181345v 1.47846h 0.181345v 0.223922h 0.181345v 0.342426h 0.181345v 2.78998h 0.181345v 1.46788h 0.181345v 1.80487h 0.181345v 2.05857h 0.181345v 4.97514h
 0.181345v -2.34123h 0.181345v 1.78771h 0.181345v -2.94316h 0.181345v 7.716h 0.181345v 1.58713h 0.181345v -2.67404h 0.181345v 1.08691h 0.181345v 5.94679h 0.36269v 10.1661h 0.36269v -4.77284h 0.181345v -4.81804h 0.181345v 5.65636h 0.181345v 3.93452h
 0.181345v 3.84799h 0.181345v -2.67404h 0.181345v 2.67404h 0.181345v -3.84799h 0.181345v 7.12075h 0.181345v -5.94679h 0.181345v -2.26087h 0.181345v 1.08691h 0.181345v 5.39327h 0.36269v -9.32779h 0.181345v 5.10848h 0.181345v 12.8402h 0.181345v
 -11.564h 0.181345v 8.88995h 0.181345v -4.21932h 0.181345v 1.95845h 0.181345v 4.9349h 0.181345v -11.564h 0.181345v 4.67063h 0.36269v 4.21932h 0.181345v -4.21932h 0.181345v 4.21932h 0.181345v 2.67404h 0.181345v 3.27276h 0.181345v -8.20766h 0.181345v
 2.26087h 0.181345v -4.21932h 0.181345v 4.21932h 0.181345v -7.49208h 0.181345v 7.49208h 0.181345v -8.88995h 0.181345v 8.88995h 0.181345v -4.21932h 0.181345v -5.94679h 0.181345v 7.90525h 0.181345v 2.26087h 0.181345v -2.26087h 0.181345v 12.427h
 0.181345v -10.1661h 0.181345v 10.1661h 0.181345v 5.94679h 0.181345v -13.4389h 0.36269v -4.9349h 0.181345v 8.20766h 0.181345v -13.4389h 0.181345v 7.49208h 0.181345v 2.67404h 0.181345v -6.89336h 0.181345v 6.89336h 0.181345v -8.62083h 0.544034v
 -4.21932h 0.181345v 4.21932h 0.181345v 3.68593h 0.181345v -5.23121h 0.181345v 7.49208h 0.181345v -10.1661h 0.36269v 10.1661h 0.181345v -2.26087h 0.181345v -1.95845h 0.181345v 10.1661h 0.181345v -21.2214h 0.181345v 15.2746h 0.181345v -8.88995h
 0.181345v 11.564h 0.181345v -16.1129h 0.181345v 1.01189h 0.181345v -1.01189h 0.181345v 9.21955h 0.181345v 6.89336h 0.181345v -16.1129h 0.181345v 4.54892h 0.181345v -7.22296h 0.181345v 5.94679h 0.181345v -8.20766h 0.181345v -1.95845h 0.181345v
 7.90525h 0.181345v -7.90525h 0.181345v 12.8402h 0.181345v -10.8817h 0.181345v -3.68593h 0.181345v 1.12876h 0.181345v 7.49208h 0.181345v -3.46702h 0.181345v -0.752298h 0.181345v -2.04983h 0.181345v 2.80213h 0.181345v 2.52046h 0.181345v -5.94679h
 0.181345v 3.42634h 0.181345v 4.47891h 0.181345v -1.01189h 0.181345v -6.26915h 0.181345v -0.624205h 0.181345v 3.42634h 0.181345v -5.15381h 0.181345v 5.15381h 0.181345v 0.792982h 0.36269v -5.39327h 0.181345v 2.45012h 0.181345v 2.94316h 0.181345v
 -3.59511h 0.181345v 2.80213h 0.181345v 4.47891h 0.181345v -1.01189h 0.181345v -0.946561h 0.181345v 3.04536h 0.181345v 3.84799h 0.181345v -5.94679h 0.181345v 1.01189h 0.181345v 6.48019h 0.181345v -2.94316h 0.181345v -1.27616h 0.181345v 7.90525h
 0.181345v -7.90525h 0.181345v 26.279h 0.181345v -10.1661h 0.36269v -11.8936h 0.181345v 1.72748h 0.181345v 6.89336h 0.181345v 3.27276h 0.181345v -5.94679h 0.181345v -4.21932h 0.181345v 6.89336h 0.181345v 3.27276h 0.181345v 4.21932h 0.181345v 5.94679h
 0.36269v -10.1661h 0.544034v -3.27276h 0.181345v 13.4389h 0.181345v -10.1661h 0.181345v -3.27276h 0.181345v -4.9349h 0.181345v 2.26087h 0.181345v 16.1129h 0.181345v -13.4389h 0.181345v 13.4389h 0.181345v -10.1661h 0.181345v -5.94679h 0.36269v
 2.67404h 0.181345v 3.27276h 0.544034v -8.20766h 0.181345v 2.26087h 0.181345v 5.94679h 0.181345v -18.3738h 0.181345v 15.101h 0.36269v -8.62083h 0.181345v 3.68593h 0.181345v 8.20766h 0.181345v -3.27276h 0.181345v -2.67404h 0.181345v 10.1661h 0.181345v
 -7.49208h 0.181345v -11.564h 0.181345v 4.67063h 0.181345v 4.21932h 0.181345v -4.21932h 0.36269v -5.94679h 0.181345v 10.1661h 0.181345v -4.21932h 0.181345v 6.89336h 0.181345v -2.67404h 0.181345v -5.94679h 0.181345v 1.72748h 0.181345v 4.21932h
 0.181345v 5.94679h 0.181345v -8.20766h 0.36269v -9.0792h 0.181345v 14.0141h 0.36269v -2.67404h 0.181345v 2.67404h 0.181345v -4.9349h 0.181345v -6.62909h 0.181345v 2.94316h 0.181345v -5.39327h 0.181345v 14.0141h 0.181345v -8.62083h 0.181345v 3.68593h
 0.181345v -3.68593h 0.181345v -1.54528h 0.36269v -5.94679h 0.181345v 13.4389h 0.36269v -2.26087h 0.181345v -10.1661h 0.181345v 2.26087h 0.181345v 16.1129h 0.181345v -16.1129h 0.181345v -2.26087h 0.181345v -1.95845h 0.36269v 3.04536h 0.181345v
 -2.0988h 0.181345v 4.54892h 0.181345v -3.53703h 0.181345v 3.53703h 0.181345v -2.45012h 0.181345v 2.45012h 0.36269v -1.27616h 0.181345v 1.27616h 0.181345v 4.67063h 0.181345v -8.20766h 0.181345v 3.53703h 0.181345v -4.54892h 0.181345v 13.4389h 0.36269v
 -7.49208h 0.181345v -1.39788h 0.181345v 2.94316h 0.181345v 5.94679h 0.544034v -4.21932h 0.181345v -1.72748h 0.181345v 3.68593h 0.181345v -5.23121h 0.181345v -2.67404h 0.181345v 16.1129h 0.181345v -8.20766h 0.181345v -5.23121h 0.181345v 5.23121h
 0.36269v -6.62909h 0.181345v 11.564h 0.181345v -2.67404h 0.181345v -4.21932h 0.181345v 1.95845h 0.181345v -7.90525h 0.181345v 5.94679h 0.181345v 10.1661h 0.181345v -13.4389h 0.181345v -1.39788h 0.36269v -3.53703h 0.181345v 4.9349h 0.181345v
 -2.67404h 0.181345v 7.90525h 0.181345v -1.95845h 0.181345v 1.95845h 0.181345v -5.23121h 0.181345v 5.23121h 0.181345v -3.68593h 0.181345v -8.43864h 0.181345v 1.95845h 0.181345v 1.08691h 0.181345v 9.0792h 0.181345v -3.68593h 0.181345v 5.94679h
 0.181345v -15.2746h 0.181345v 5.10848h 0.181345v -5.94679h 0.181345v 18.7869h 0.181345v -8.62083h 0.181345v -2.94316h 0.181345v -4.54892h 0.181345v 2.0988h 0.181345v 5.39327h 0.544034v -2.94316h 0.181345v 2.94316h 0.36269v 5.94679h 0.181345v
 -4.21932h 0.181345v -7.12075h 0.181345v 5.39327h 0.181345v -5.39327h 0.181345v 2.45012h 0.36269v 4.67063h 0.181345v -3.27276h 0.181345v -4.9349h 0.181345v -1.01189h 0.181345v -0.946561h 0.181345v 8.43864h 0.181345v -9.32779h 0.181345v 1.83572h
 0.181345v -1.83572h 0.181345v 5.10848h 0.36269v -1.17395h 0.181345v 3.84799h 0.181345v -1.39788h 0.181345v -6.38464h 0.181345v 5.10848h 0.181345v -3.27276h 0.181345v 4.54892h 0.181345v -1.27616h 0.181345v -1.17395h 0.181345v 1.17395h 0.181345v
 -2.26087h 0.181345v -7.90525h 0.181345v 16.1129h 0.181345v -9.21955h 0.181345v -3.46702h 0.181345v 1.6313h 0.181345v -3.09919h 0.181345v 5.94679h 0.181345v -1.01189h 0.181345v 2.0988h 0.181345v 2.45012h 0.181345v -8.76824h 0.181345v -1.39788h
 0.181345v 3.78148h 0.181345v -1.6313h 0.181345v -4.02506h 0.181345v 1.22292h 0.181345v 9.54191h 0.181345v -10.1661h 0.181345v 6.89336h 0.181345v -4.9349h 0.181345v 7.03371h 0.181345v -7.716h 0.181345v 5.61719h 0.181345v 2.0988h 0.181345v -7.716h
 0.181345v -1.87488h 0.181345v 9.59088h 0.181345v -2.0988h 0.181345v -3.46702h 0.181345v -2.80213h 0.36269v -2.35168h 0.181345v 3.00364h 0.181345v 0.682291h 0.181345v 3.98834h 0.36269v 1.95845h 0.181345v -7.90525h 0.181345v 0.624205h 0.181345v
 7.28104h 0.181345v -10.6808h 0.181345v 3.39974h 0.181345v 1.33425h 0.181345v -0.682291h 0.181345v 2.15017h 0.181345v -2.80213h 0.181345v 5.32259h 0.181345v -9.70047h 0.181345v 3.75367h 0.181345v -0.59872h 0.181345v 5.65636h 0.181345v -1.6313h
 0.181345v 1.6313h 0.181345v -3.78148h 0.181345v 2.15017h 0.181345v -0.752298h 0.181345v -4.40151h 0.181345v 4.40151h 0.181345v -1.39788h 0.181345v 0.682291h 0.181345v -4.73399h 0.181345v 9.66889h 0.181345v -3.46702h 0.181345v 1.6313h 0.181345v
 0.889157h 0.181345v -3.27276h 0.181345v -4.9349h 0.181345v 3.53703h 0.181345v -0.651956h 0.181345v -4.84352h 0.181345v 4.21932h 0.181345v -2.77554h 0.181345v -0.497221h 0.181345v -3.84799h 0.181345v 2.01227h 0.181345v 1.3548h 0.181345v -1.3548h
 0.181345v 3.381h 0.181345v 9.63272h 0.181345v -9.63272h 0.181345v -2.49184h 0.181345v 5.49548h 0.181345v -2.45012h 0.181345v -2.0988h 0.181345v -2.26087h 0.181345v 7.49208h 0.181345v -1.33425h 0.181345v -8.11628h 0.181345v 2.3836h 0.181345v 2.84761h
 0.181345v 1.08691h 0.181345v -6.68028h 0.181345v 1.11445h 0.181345v 6.73978h 0.181345v -3.27276h 0.181345v -2.67404h 0.181345v 2.67404h 0.181345v -1.83572h 0.36269v -0.425149h 0.181345v 1.31431h 0.181345v -3.27276h 0.181345v 6.31812h 0.181345v
 -4.35967h 0.181345v -3.35633h 0.181345v 1.39788h 0.181345v 1.54528h 0.36269v 3.68593h 0.181345v 1.08691h 0.181345v -1.60158h 0.181345v 0.51467h 0.181345v -4.85988h 0.181345v 0.772105h 0.181345v -1.14343h 0.181345v -1.72748h 0.181345v -2.94316h
 0.181345v 5.04196h 0.181345v 1.58713h 0.181345v 1.77995h 0.181345v -4.7991h 0.181345v 3.01915h 0.181345v -5.52165h 0.181345v 5.52165h 0.181345v 0.425149h 0.181345v 0.437842h 0.181345v -0.86299h 0.181345v 3.80615h 0.181345v -8.74105h 0.181345v
 9.29457h 0.181345v -2.0988h 0.181345v -2.67404h 0.181345v -5.10848h 0.181345v 4.70663h 0.36269v 4.62117h 0.181345v -3.80615h 0.181345v -2.67404h 0.181345v 3.53703h 0.181345v -4.21932h 0.181345v 8.88995h 0.181345v -1.72748h 0.181345v -4.62117h
 0.181345v 4.08778h 0.181345v 2.88507h 0.181345v -1.79816h 0.181345v -4.77284h 0.181345v -2.26087h 0.181345v 9.48382h 0.181345v -3.00364h 0.181345v -1.04806h 0.181345v 1.04806h 0.181345v -2.0262h 0.181345v 5.71212h 0.181345v -5.23121h 0.181345v
 1.01189h 0.181345v -0.51467h 0.181345v 2.17682h 0.181345v -2.67404h 0.181345v 1.54528h 0.36269v -1.54528h 0.181345v 1.01189h 0.181345v 6.48019h 0.181345v -5.94679h 0.181345v 2.35168h 0.36269v -0.624205h 0.181345v -1.17395h 0.181345v -3.93452h
 0.181345v 9.32779h 0.181345v -2.26087h 0.181345v 4.9349h 0.181345v -9.15422h 0.36269v 4.21932h 0.181345v -1.33425h 0.36269v -4.37788h 0.181345v 5.02983h 0.181345v -4.0517h 0.181345v 5.44957h 0.181345v -2.04983h 0.181345v -1.22292h 0.181345v 2.55717h
 0.181345v -1.33425h 0.181345v -3.39974h 0.181345v 4.0517h 0.181345v 0.682291h 0.181345v -3.13241h 0.181345v -0.553522h 0.181345v 7.67427h 0.181345v -5.94679h 0.181345v -0.59872h 0.181345v 5.65636h 0.181345v -3.78148h 0.181345v -0.651956h 0.181345v
 -1.79816h 0.181345v 7.12075h 0.181345v 0.946561h 0.181345v -2.67404h 0.36269v -2.26087h 0.181345v 3.09919h 0.181345v -6.23159h 0.181345v -3.49668h 0.181345v 6.62909h 0.181345v -3.13241h 0.181345v -0.553522h 0.181345v 3.68593h 0.36269v -3.68593h
 0.181345v 5.15381h 0.181345v 3.46702h 0.181345v -9.66889h 0.181345v 1.04806h 0.181345v 0.553522h 0.181345v 1.79816h 0.181345v -3.89696h 0.181345v 1.01189h 0.181345v 1.08691h 0.181345v 3.13241h 0.181345v -3.13241h 0.181345v 5.39327h 0.181345v
 -1.54528h 0.181345v 0.752298h 0.181345v 2.52046h 0.181345v -9.21955h 0.181345v 3.27276h 0.181345v -2.77554h 0.181345v 6.99486h 0.181345v -5.94679h 0.181345v 10.7196h 0.181345v -9.59088h 0.544034v 3.27276h 0.181345v -4.40151h 0.181345v 1.12876h
 0.181345v -2.17682h 0.181345v 3.39974h 0.181345v -6.571h 0.181345v 9.37313h 0.181345v -8.95996h 0.181345v 2.75809h 0.544034v -2.33294h 0.181345v 3.381h 0.181345v 1.12876h 0.181345v -2.67404h 0.181345v 12.2649h 0.181345v -14.1006h 0.181345v -1.24017h
 0.181345v 6.34864h 0.181345v 2.67404h 0.181345v -3.84799h 0.181345v 1.17395h 0.181345v -1.17395h 0.181345v -1.60158h 0.181345v 2.77554h 0.181345v 0.624205h 0.36269v -3.89696h 0.181345v 1.01189h 0.181345v -1.49281h 0.181345v -1.3548h 0.181345v
 3.93452h 0.181345v -2.57972h 0.36269v -0.916961h 0.181345v 4.67063h 0.181345v -2.26087h 0.181345v 1.08691h 0.181345v -3.49668h 0.181345v 3.49668h 0.181345v 1.17395h 0.181345v -1.72748h 0.181345v 2.35168h 0.181345v -0.624205h 0.181345v -1.17395h
 0.181345v -1.08691h 0.181345v 0.53339h 0.181345v 3.68593h 0.181345v -6.17777h 0.181345v 7.64565h 0.181345v -4.02506h 0.181345v -2.67404h 0.181345v 0.497221h 0.181345v 5.44957h 0.181345v 0.752298h 0.181345v -7.64565h 0.181345v -0.889157h 0.181345v
 3.93452h 0.181345v -1.60158h 0.181345v 2.17682h 0.181345v -4.50976h 0.181345v 1.83572h 0.181345v 1.01189h 0.181345v 3.53703h 0.181345v -1.27616h 0.181345v -9.21955h 0.181345v 9.21955h 0.36269v -6.73978h 0.181345v 3.46702h 0.181345v -0.946561h
 0.181345v 0.946561h 0.181345v -1.83572h 0.181345v 2.84761h 0.36269v 1.66215h 0.181345v -1.66215h 0.181345v -0.51467h 0.181345v 0.51467h 0.181345v -4.85988h 0.181345v 2.90143h 0.181345v -4.67063h 0.181345v 4.67063h 0.181345v -1.31431h 0.181345v
 -0.413171h 0.181345v 3.17126h 0.181345v -1.44378h 0.36269v 1.44378h 0.181345v -0.497221h 0.181345v 2.0988h 0.181345v -4.77284h 0.181345v 0.413171h 0.181345v -3.68593h 0.181345v 6.44402h 0.181345v -1.44378h 0.181345v -2.90143h 0.181345v -0.733483h
 0.181345v 3.1836h 0.181345v 0.451316h 0.181345v -0.451316h 0.181345v -1.27616h 0.181345v 3.17126h 0.181345v -1.8951h 0.181345v -1.67801h 0.181345v 6.97285h 0.181345v -4.37788h 0.181345v -2.9861h 0.181345v 5.56582h 0.181345v -3.93452h 0.181345v
 1.3548h 0.181345v -3.36708h 0.181345v 9.0792h 0.181345v 3.09919h 0.181345v -3.09919h 0.181345v -3.68593h 0.181345v 3.00364h 0.181345v 2.15017h 0.181345v -4.60029h 0.181345v 1.17395h 0.181345v 0.624205h 0.181345v 6.26915h 0.181345v -7.49208h 0.36269v
 0.59872h 0.181345v 0.624205h 0.36269v -5.29484h 0.181345v 10.6174h 0.181345v -3.98834h 0.181345v -0.682291h 0.181345v -5.94679h 0.181345v 3.49668h 0.181345v -2.57972h 0.181345v 5.71212h 0.181345v -7.06693h 0.181345v 5.10848h 0.181345v -2.77554h
 0.181345v 4.73399h 0.181345v 0.715586h 0.181345v -6.42771h 0.181345v 5.02983h 0.181345v 2.94316h 0.36269v 7.22296h 0.181345v -15.1959h 0.181345v 10.647h 0.181345v -5.61719h 0.181345v 2.15017h 0.181345v -2.80213h 0.36269v 4.43343h 0.181345v -5.65636h
 0.181345v 2.55717h 0.181345v -1.33425h 0.181345v -2.35168h 0.181345v 1.72748h 0.181345v 4.21932h 0.181345v -4.21932h 0.181345v -3.27276h 0.181345v -3.46702h 0.181345v 8.01594h 0.181345v -4.54892h 0.181345v 5.23121h 0.181345v -0.682291h 0.181345v
 -1.87488h 0.181345v -0.575235h 0.181345v 2.45012h 0.181345v 1.39788h 0.181345v -4.40151h 0.181345v 1.12876h 0.181345v -0.575235h 0.181345v 1.17395h 0.181345v -2.26087h 0.181345v 11.253h 0.181345v -12.2649h 0.181345v 2.67404h 0.181345v -1.12876h
 0.181345v 5.15381h 0.181345v -1.46788h 0.181345v 5.94679h 0.181345v -6.62909h 0.181345v 5.61719h 0.181345v -6.26915h 0.181345v 4.43343h 0.181345v -3.09919h 0.181345v 1.46788h 0.181345v -2.80213h 0.181345v 2.04983h 0.181345v -1.39788h 0.181345v
 1.39788h 0.181345v 4.21932h 0.36269v -0.946561h 0.181345v -3.98834h 0.181345v 4.9349h 0.181345v -1.83572h 0.181345v 5.10848h 0.181345v -5.10848h 0.181345v 2.84761h 0.181345v -5.23121h 0.181345v 5.23121h 0.181345v 6.48019h 0.181345v -10.1661h
 0.181345v 3.68593h 0.181345v -5.23121h 0.181345v 7.49208h 0.181345v 2.67404h 0.36269v -4.9349h 0.181345v 1.08691h 0.181345v 11.3401h 0.181345v -12.427h 0.181345v 2.26087h 0.181345v -3.27276h 0.36269v 9.21955h 0.181345v -4.67063h 0.181345v -4.54892h
 0.181345v 4.54892h 0.181345v 1.39788h 0.181345v 1.54528h 0.181345v -6.48019h 0.181345v 2.26087h 0.181345v -1.17395h 0.181345v -5.56582h 0.181345v 8.01594h 0.181345v 1.39788h 0.181345v 1.54528h 0.181345v -5.39327h 0.181345v 14.0141h 0.181345v
 -16.1129h 0.181345v 2.0988h 0.181345v -4.77284h 0.181345v 7.22296h 0.181345v -5.49548h 0.181345v -3.27276h 0.181345v 5.23121h 0.181345v -1.95845h 0.181345v 0.946561h 0.181345v 19.3857h 0.181345v -20.3322h 0.181345v 4.21932h 0.181345v -1.17395h
 0.181345v 5.39327h 0.181345v -2.94316h 0.181345v -2.45012h 0.181345v -1.08691h 0.181345v 1.08691h 0.181345v -2.0988h 0.181345v 2.0988h 0.181345v 1.17395h 0.181345v -5.94679h 0.181345v 4.77284h 0.181345v -5.56582h 0.181345v 2.52046h 0.181345v
 10.1661h 0.181345v -8.20766h 0.181345v -2.84761h 0.181345v 0.889157h 0.36269v 4.21932h 0.181345v 1.27616h 0.181345v 1.39788h 0.181345v -6.89336h 0.181345v -0.889157h 0.181345v 2.84761h 0.181345v 3.53703h 0.181345v -3.53703h 0.181345v 2.26087h
 0.181345v -3.27276h 0.181345v -2.67404h 0.181345v 11.8936h 0.181345v -9.21955h 0.181345v -0.946561h 0.181345v 8.43864h 0.181345v -8.43864h 0.181345v -6.54552h 0.181345v 2.55717h 0.181345v 5.94679h 0.181345v -6.62909h 0.181345v 10.1661h 0.181345v
 -5.49548h 0.181345v 5.49548h 0.181345v -5.49548h 0.181345v 5.49548h 0.181345v 2.94316h 0.181345v -7.49208h 0.36269v -2.67404h 0.181345v 11.8936h 0.181345v -10.1661h 0.181345v 3.04536h 0.181345v -5.56582h 0.181345v 5.56582h 0.181345v -3.04536h
 0.181345v 3.04536h 0.181345v -2.0988h 0.181345v 1.01189h 0.36269v -3.68593h 0.181345v 3.68593h 0.181345v 3.53703h 0.36269v -6.38464h 0.181345v 3.93452h 0.181345v -2.0988h 0.181345v 4.54892h 0.181345v -9.48382h 0.181345v 8.20766h 0.181345v 2.67404h
 0.181345v -8.62083h 0.181345v 5.94679h 0.181345v -4.21932h 0.36269v 4.21932h 0.181345v 5.94679h 0.181345v -8.20766h 0.181345v -4.47891h 0.181345v -1.46788h 0.181345v 3.09919h 0.181345v 2.84761h 0.181345v -2.84761h 0.181345v -1.6313h 0.36269v
 5.56582h 0.181345v -6.31812h 0.181345v 1.54528h 0.181345v -2.26087h 0.181345v -0.682291h 0.181345v -3.00364h 0.181345v 3.68593h 0.181345v 1.46788h 0.181345v 4.47891h 0.181345v 1.08691h 0.181345v 3.84799h 0.181345v -3.84799h 0.181345v -3.04536h
 0.181345v -6.54552h 0.181345v 13.4389h 0.181345v -4.9349h 0.181345v -2.84761h 0.181345v -0.83832h 0.181345v 0.83832h 0.181345v -5.05764h 0.36269v 1.27616h 0.181345v 2.94316h 0.181345v -2.94316h 0.181345v 11.564h 0.181345v -11.564h 0.181345v 3.78148h
 0.181345v -0.83832h 0.181345v -0.792982h 0.36269v -3.42634h 0.181345v 1.95845h 0.181345v 0.715586h 0.181345v -3.27276h 0.181345v -2.17682h 0.181345v 1.60158h 0.36269v -2.0988h 0.181345v 2.67404h 0.181345v 0.59872h 0.181345v -0.59872h 0.36269v
 -2.67404h 0.181345v -0.946561h 0.181345v 1.44378h 0.181345v 7.83318h 0.181345v -3.09919h 0.181345v 3.98834h 0.181345v -10.1661h 0.181345v 7.64565h 0.181345v -0.752298h 0.181345v -4.40151h 0.181345v 1.72748h 0.181345v 1.95845h 0.181345v -1.95845h
 0.181345v -2.26087h 0.181345v 2.88507h 0.181345v 3.59511h 0.181345v -4.21932h 0.181345v -2.26087h 0.181345v 2.26087h 0.181345v -1.72748h 0.181345v 2.35168h 0.181345v -0.624205h 0.181345v -1.72748h 0.181345v -0.53339h 0.181345v 1.66215h 0.181345v
 0.59872h 0.181345v 1.95845h 0.181345v -1.95845h 0.181345v -0.59872h 0.181345v 2.55717h 0.181345v -3.13241h 0.181345v 5.39327h 0.181345v -2.94316h 0.181345v 2.94316h 0.181345v 2.67404h 0.181345v -7.49208h 0.181345v 8.50397h 0.181345v 1.08691h
 0.36269v -8.99216h 0.181345v 4.21932h 0.181345v 11.8936h 0.181345v -5.94679h 0.181345v -2.26087h 0.181345v -1.95845h 0.181345v 4.21932h 0.181345v -3.27276h 0.181345v 7.49208h 0.181345v -14.9842h 0.181345v 18.6701h 0.181345v -5.23121h 0.181345v
 -1.39788h 0.181345v -3.53703h 0.181345v 18.3738h 0.181345v -18.3738h 0.36269v 2.26087h 0.36269v 4.21932h 0.181345v -2.94316h 0.181345v 1.39788h 0.181345v 7.49208h 0.36269v -2.26087h 0.36269v -1.95845h 0.181345v 1.95845h 0.181345v 2.26087h 0.181345v
 -5.94679h 0.181345v 5.94679h 0.181345v 2.67404h 0.181345v -6.89336h 0.181345v 4.21932h 0.181345v 5.94679h 0.181345v 10.1661h 0.181345v -20.3322h 0.181345v 4.21932h 0.181345v 16.1129h 0.181345v -22.0597h 0.181345v 11.8936h 0.181345v 10.1661h
 0.181345v -16.1129h 0.181345v 10.1661h 0.544034v 16.1129h 0.181345v -10.1661h 0.181345v -16.1129h 0.181345v 10.1661h 0.181345v -10.1661h 0.181345v 16.1129h 0.181345v -16.1129h 0.181345v 16.1129h 0.181345v -5.94679h 0.36269v 16.1129h 0.181345v
 -10.1661h 0.181345v 10.1661h 0.36269v -23.605h 0.181345v 33.7711h 0.181345v -26.279h 0.181345v 16.1129h 0.181345v -20.3322h 0.181345v 4.21932h 0.181345v 5.94679h 0.181345v 10.1661h 0.181345v 10.1661h 0.181345v -20.3322h 0.36269v -16.1129h 0.181345v
 26.279h 0.544034v -20.3322h 0.181345v 20.3322h 0.36269v -10.1661h 0.181345v 20.3322h 0.181345v -10.1661h 0.36269v -10.1661h 0.36269v -5.94679h 0.181345v 16.1129h 0.544034v 10.1661h 0.36269v -26.279h 0.181345v -4.21932h 0.181345v 10.1661h 0.181345v
 10.1661h 0.181345v 10.1661h 0.36269v -20.3322h 0.181345v 20.3322h 0.36269v -30.4983h 0.181345v -5.94679h 0.181345v 16.1129h 0.181345v 20.3322h 0.36269v -26.279h 0.181345v 5.94679h 0.36269v -10.1661h 0.181345v 20.3322h 0.181345v -16.1129h 0.181345v
 -7.49208h 0.181345v 7.49208h 0.181345v -4.21932h 0.181345v 30.4983h 0.181345v -10.1661h 0.181345v 10.1661h 0.181345v -26.279h 0.181345v -4.21932h 0.181345v 4.21932h 0.181345v 5.94679h 0.544034v 20.3322h 0.36269v -26.279h 0.181345v 16.1129h 0.36269v
 -10.1661h 0.181345v 20.3322h 0.36269v -20.3322h 0.36269v 10.1661h 0.181345v -16.1129h 0.181345v 5.94679h 0.36269v 20.3322h 0.181345v -26.279h 0.181345v 26.279h 0.181345v -20.3322h 0.181345v 20.3322h 0.181345v -20.3322h 0.181345v 20.3322h 0.181345v
 -10.1661h 0.181345v -10.1661h 0.181345v 20.3322h 0.181345v -20.3322h 0.181345v 10.1661h 0.181345v -10.1661h 0.181345v 10.1661h 0.36269v 10.1661h 0.181345v -30.4983h 0.181345v 4.21932h 0.181345v 16.1129h 0.181345v -16.1129h 0.181345v -7.49208h
 0.181345v 33.7711h 0.181345v -10.1661h 0.181345v 10.1661h 0.36269v -10.1661h 0.36269v 10.1661h 0.181345v -10.1661h 0.181345v -10.1661h 0.36269v 10.1661h 0.181345v -10.1661h 0.36269v 10.1661h 0.181345v 10.1661h 0.181345v -10.1661h 0.725379v 10.1661h
 0.181345v -10.1661h 0.181345v -20.3322h 0.181345v 20.3322h 0.181345v -10.1661h 0.181345v -5.94679h 0.181345v 5.94679h 0.544034v 20.3322h 0.544034v -26.279h 0.181345v 16.1129h 0.181345v 10.1661h 0.181345v -20.3322h 0.181345v 20.3322h 0.181345v
 -20.3322h 0.181345v 10.1661h 0.181345v 10.1661h 0.36269v -10.1661h 0.181345v -20.3322h 0.181345v 4.21932h 0.181345v 5.94679h 0.181345v 10.1661h 0.181345v 10.1661h 0.36269v -33.7711h 0.181345v 33.7711h 0.181345v -26.279h 0.181345v 5.94679h 0.181345v
 20.3322h 0.544034v -10.1661h 0.181345v 10.1661h 0.181345v -20.3322h 0.181345v 10.1661h 0.181345v -10.1661h 0.181345v 20.3322h 0.181345v -30.4983h 0.181345v 20.3322h 0.181345v -10.1661h 0.181345v 20.3322h 0.181345v -20.3322h 0.181345v 20.3322h
 0.181345v -10.1661h 0.181345v 10.1661h 0.181345v -10.1661h 0.36269v -10.1661h 0.181345v 20.3322h 0.36269v -10.1661h 0.36269v -10.1661h 0.36269v 20.3322h 0.181345v -30.4983h 0.181345v 20.3322h 0.725379v -10.1661h 0.181345v 10.1661h 0.181345v
 -16.1129h 0.36269v 5.94679h 0.181345v 10.1661h 0.181345v 10.1661h 0.181345v -10.1661h 0.181345v 10.1661h 0.181345v -10.1661h 0.181345v 10.1661h 0.181345v -20.3322h 0.36269v 20.3322h 0.725379v -10.1661h 0.181345v -16.1129h 0.181345v 16.1129h
 0.181345v -10.1661h 0.36269v 20.3322h 0.181345v -20.3322h 0.181345v 20.3322h 0.181345v -10.1661h 0.181345v -16.1129h 0.181345v 26.279h 0.181345v -33.7711h 0.181345v 33.7711h 0.36269" fill="none" stroke="black"/>
<path d="M57.1929,280.151h 453.543" fill="none" stroke="black"/>
<path d="M57.1929,272.68v 7.47068" fill="none" stroke="black"/>
<path d="M75.3318,276.415v 3.73534" fill="none" stroke="black"/>
<path d="M93.4707,276.415v 3.73534" fill="none" stroke="black"/>
<path d="M111.61,276.415v 3.73534" fill="none" stroke="black"/>
<path d="M129.749,276.415v 3.73534" fill="none" stroke="black"/>
<path d="M147.887,272.68v 7.47068" fill="none" stroke="black"/>
<path d="M166.026,276.415v 3.73534" fill="none" stroke="black"/>
<path d="M184.165,276.415v 3.73534" fill="none" stroke="black"/>
<path d="M202.304,276.415v 3.73534" fill="none" stroke="black"/>
<path d="M220.443,276.415v 3.73534" fill="none" stroke="black"/>
<path d="M238.582,272.68v 7.47068" fill="none" stroke="black"/>
<path d="M256.721,276.415v 3.73534" fill="none" stroke="black"/>
<path d="M274.86,276.415v 3.73534" fill="none" stroke="black"/>
<path d="M292.999,276.415v 3.73534" fill="none" stroke="black"/>
<path d="M311.138,276.415v 3.73534" fill="none" stroke="black"/>
<path d="M329.277,272.68v 7.47068" fill="none" stroke="black"/>
<path d="M347.415,276.415v 3.73534" fill="none" stroke="black"/>
<path d="M365.554,276.415v 3.73534" fill="none" stroke="black"/>
<path d="M383.693,276.415v 3.73534" fill="none" stroke="black"/>
<path d="M401.832,276.415v 3.73534" fill="none" stroke="black"/>
<path d="M419.971,272.68v 7.47068" fill="none" stroke="black"/>
<path d="M438.11,276.415v 3.73534" fill="none" stroke="black"/>
<path d="M456.249,276.415v 3.73534" fill="none" stroke="black"/>
<path d="M474.388,276.415v 3.73534" fill="none" stroke="black"/>
<path d="M492.527,276.415v 3.73534" fill="none" stroke="black"/>
<path d="M510.666,272.68v 7.47068" fill="none" stroke="black"/>
<path d="M510.666,272.68v 7.47068" fill="none" stroke="black"/>
<text xml:space="preserve" x="54.3523" y="290.27" fill="black" font-size="10.4952" font-family="Helvetica">0</text>
<text xml:space="preserve" x="139.569" y="290.27" fill="black" font-size="10.4952" font-family="Helvetica">500</text>
<text xml:space="preserve" x="227.449" y="290.27" fill="black" font-size="10.4952" font-family="Helvetica">1000</text>
<text xml:space="preserve" x="318.288" y="290.27" fill="black" font-size="10.4952" font-family="Helvetica">1500</text>
<text xml:space="preserve" x="408.831" y="290.27" fill="black" font-size="10.4952" font-family="Helvetica">2000</text>
<text xml:space="preserve" x="499.67" y="290.27" fill="black" font-size="10.4952" font-family="Helvetica">2500</text>
<text xml:space="preserve" x="265.323" y="301.218" fill="black" font-size="10.4952" font-family="Helvetica">Channel</text>
<path d="M57.1929,280.151v -249.023" fill="none" stroke="black"/>
<path d="M63.9961,280.151h -6.80315" fill="none" stroke="black"/>
<path d="M63.9961,277.477h -6.80315" fill="none" stroke="black"/>
<path d="M63.9961,275.216h -6.80315" fill="none" stroke="black"/>
<path d="M63.9961,273.257h -6.80315" fill="none" stroke="black"/>
<path d="M63.9961,271.53h -6.80315" fill="none" stroke="black"/>
<path d="M70.7992,269.984h -13.6063" fill="none" stroke="black"/>
<text xml:space="preserve" x="49.0263" y="273.7" fill="black" font-size="10.4952" font-family="Helvetica">1</text>
<path d="M63.9961,259.818h -6.80315" fill="none" stroke="black"/>
<path d="M63.9961,253.872h -6.80315" fill="none" stroke="black"/>
<path d="M63.9961,249.652h -6.80315" fill="none" stroke="black"/>
<path d="M63.9961,246.379h -6.80315" fill="none" stroke="black"/>
<path d="M63.9961,243.705h -6.80315" fill="none" stroke="black"/>
<path d="M63.9961,241.445h -6.80315" fill="none" stroke="black"/>
<path d="M63.9961,239.486h -6.80315" fill="none" stroke="black"/>
<path d="M63.9961,237.759h -6.80315" fill="none" stroke="black"/>
<path d="M70.7992,236.213h -13.6063" fill="none" stroke="black"/>
<text xml:space="preserve" x="41.629" y="239.968" fill="black" font-size="10.4952" font-family="Helvetica">10</text>
<path d="M63.9961,226.047h -6.80315" fill="none" stroke="black"/>
<path d="M63.9961,220.1h -6.80315" fill="none" stroke="black"/>
<path d="M63.9961,215.881h -6.80315" fill="none" stroke="black"/>
<path d="M63.9961,212.608h -6.80315" fill="none" stroke="black"/>
<path d="M63.9961,209.934h -6.80315" fill="none" stroke="black"/>
<path d="M63.9961,207.673h -6.80315" fill="none" stroke="black"/>
<path d="M63.9961,205.715h -6.80315" fill="none" stroke="black"/>
<path d="M63.9961,203.988h -6.80315" fill="none" stroke="black"/>
<path d="M70.7992,202.442h -13.6063" fill="none" stroke="black"/>
<text xml:space="preserve" x="49.0263" y="202.686" fill="black" font-size="7.16345" font-family="Helvetica">2</text>
<text xml:space="preserve" x="38.0783" y="207.124" fill="black" font-size="10.4952" font-family="Helvetica">10</text>
<path d="M63.9961,192.276h -6.80315" fill="none" stroke="black"/>
<path d="M63.9961,186.329h -6.80315" fill="none" stroke="black"/>
<path d="M63.9961,182.11h -6.80315" fill="none" stroke="black"/>
<path d="M63.9961,178.837h -6.80315" fill="none" stroke="black"/>
<path d="M63.9961,176.163h -6.80315" fill="none" stroke="black"/>
<path d="M63.9961,173.902h -6.80315" fill="none" stroke="black"/>
<path d="M63.9961,171.944h -6.80315" fill="none" stroke="black"/>
<path d="M63.9961,170.216h -6.80315" fill="none" stroke="black"/>
<path d="M70.7992,168.671h -13.6063" fill="none" stroke="black"/>
<text xml:space="preserve" x="49.0263" y="168.658" fill="black" font-size="7.16345" font-family="Helvetica">3</text>
<text xml:space="preserve" x="38.0783" y="173.393" fill="black" font-size="10.4952" font-family="Helvetica">10</text>
<path d="M63.9961,158.505h -6.80315" fill="none" stroke="black"/>
<path d="M63.9961,152.558h -6.80315" fill="none" stroke="black"/>
<path d="M63.9961,148.339h -6.80315" fill="none" stroke="black"/>
<path d="M63.9961,145.066h -6.80315" fill="none" stroke="black"/>
<path d="M63.9961,142.392h -6.80315" fill="none" stroke="black"/>
<path d="M63.9961,140.131h -6.80315" fill="none" stroke="black"/>
<path d="M63.9961,138.173h -6.80315" fill="none" stroke="black"/>
<path d="M63.9961,136.445h -6.80315" fill="none" stroke="black"/>
<path d="M70.7992,134.9h -13.6063" fill="none" stroke="black"/>
<text xml:space="preserve" x="49.0263" y="134.927" fill="black" font-size="7.16345" font-family="Helvetica">4</text>
<text xml:space="preserve" x="38.0783" y="139.365" fill="black" font-size="10.4952" font-family="Helvetica">10</text>
<path d="M63.9961,124.734h -6.80315" fill="none" stroke="black"/>
<path d="M63.9961,118.787h -6.80315" fill="none" stroke="black"/>
<path d="M63.9961,114.568h -6.80315" fill="none" stroke="black"/>
<path d="M63.9961,111.295h -6.80315" fill="none" stroke="black"/>
<path d="M63.9961,108.621h -6.80315" fill="none" stroke="black"/>
<path d="M63.9961,106.36h -6.80315" fill="none" stroke="black"/>
<path d="M63.9961,104.402h -6.80315" fill="none" stroke="black"/>
<path d="M63.9961,102.674h -6.80315" fill="none" stroke="black"/>
<path d="M70.7992,101.129h -13.6063" fill="none" stroke="black"/>
<text xml:space="preserve" x="49.0263" y="100.899" fill="black" font-size="7.16345" font-family="Helvetica">5</text>
<text xml:space="preserve" x="38.0783" y="105.633" fill="black" font-size="10.4952" font-family="Helvetica">10</text>
<path d="M63.9961,90.9628h -6.80315" fill="none" stroke="black"/>
<path d="M63.9961,85.0161h -6.80315" fill="none" stroke="black"/>
<path d="M63.9961,80.7967h -6.80315" fill="none" stroke="black"/>
<path d="M63.9961,77.524h -6.80315" fill="none" stroke="black"/>
<path d="M63.9961,74.8499h -6.80315" fill="none" stroke="black"/>
<path d="M63.9961,72.5891h -6.80315" fill="none" stroke="black"/>
<path d="M63.9961,70.6306h -6.80315" fill="none" stroke="black"/>
<path d="M63.9961,68.9031h -6.80315" fill="none" stroke="black"/>
<path d="M70.7992,67.3579h -13.6063" fill="none" stroke="black"/>
<text xml:space="preserve" x="49.0263" y="67.1675" fill="black" font-size="7.16345" font-family="Helvetica">6</text>
<text xml:space="preserve" x="38.0783" y="71.9018" fill="black" font-size="10.4952" font-family="Helvetica">10</text>
<path d="M63.9961,57.1918h -6.80315" fill="none" stroke="black"/>
<path d="M63.9961,51.245h -6.80315" fill="none" stroke="black"/>
<path d="M63.9961,47.0256h -6.80315" fill="none" stroke="black"/>
<path d="M63.9961,43.7529h -6.80315" fill="none" stroke="black"/>
<path d="M63.9961,41.0788h -6.80315" fill="none" stroke="black"/>
<path d="M63.9961,38.818h -6.80315" fill="none" stroke="black"/>
<path d="M63.9961,36.8595h -6.80315" fill="none" stroke="black"/>
<path d="M63.9961,35.1321h -6.80315" fill="none" stroke="black"/>
<path d="M70.7992,33.5868h -13.6063" fill="none" stroke="black"/>
<text xml:space="preserve" x="49.0263" y="33.7317" fill="black" font-size="7.16345" font-family="Helvetica">7</text>
<text xml:space="preserve" x="38.0783" y="38.1701" fill="black" font-size="10.4952" font-family="Helvetica">10</text>
<g transform="rotate(-90,26.5385,191.442)">
<text xml:space="preserve" x="26.5385" y="191.442" fill="black" font-size="10.4952" font-family="Helvetica">Counts/Channel</text>
</g>
<text xml:space="preserve" x="404.097" y="67.1675" fill="black" font-size="14.7788" font-family="Helvetica" font-weight="bold"> = 2.4879 MeV</text>
<text xml:space="preserve" x="398.179" y="70.4223" fill="black" font-size="10.0192" font-family="Helvetica" font-weight="bold">p</text>
<text xml:space="preserve" x="389.006" y="67.1675" fill="black" font-size="14.7788" font-family="Helvetica" font-weight="bold">E</text>
<path d="M262.163,167.273v 25.2537" fill="none" stroke="black"/>
<path d="M264.454,192.527l -2.29122, 3.9685l -2.29122, -3.9685z" fill="black"/>
<path d="M264.454,192.527l -2.29122, 3.9685l -2.29122, -3.9685h 4.58243z" fill="none" stroke="black"/>
<text xml:space="preserve" x="266.803" y="165.108" fill="black" font-size="10.4952" font-family="Helvetica" font-weight="bold">_1 	1.369 MeV</text>
<text xml:space="preserve" x="260.293" y="165.108" fill="black" font-size="10.4952" font-family="Times">&#0945;</text>
<path d="M184.528,134.9v 29.8026" fill="none" stroke="black"/>
<path d="M186.819,164.703l -2.29122, 3.9685l -2.29122, -3.9685z" fill="black"/>
<path d="M186.819,164.703l -2.29122, 3.9685l -2.29122, -3.9685h 4.58243z" fill="none" stroke="black"/>
<text xml:space="preserve" x="172.117" y="131.968" fill="black" font-size="10.4952" font-family="Helvetica" font-weight="bold"># p_1 	0.844 MeV</text>
<path d="M210.104,152.558v 12.1444" fill="none" stroke="black"/>
<path d="M212.395,164.703l -2.29122, 3.9685l -2.29122, -3.9685z" fill="black"/>
<path d="M212.395,164.703l -2.29122, 3.9685l -2.29122, -3.9685h 4.58243z" fill="none" stroke="black"/>
<text xml:space="preserve" x="197.564" y="148.242" fill="black" font-size="10.4952" font-family="Helvetica" font-weight="bold"># p_2 	1.015 MeV</text>
<path d="M498.001,269.984h 12.6643" fill="none" stroke="black"/>
<path d="M504.333,259.818h 6.33214" fill="none" stroke="black"/>
<path d="M504.333,253.872h 6.33214" fill="none" stroke="black"/>
<path d="M504.333,249.652h 6.33214" fill="none" stroke="black"/>
<path d="M504.333,246.379h 6.33214" fill="none" stroke="black"/>
<path d="M504.333,243.705h 6.33214" fill="none" stroke="black"/>
<path d="M504.333,241.445h 6.33214" fill="none" stroke="black"/>
<path d="M504.333,239.486h 6.33214" fill="none" stroke="black"/>
<path d="M504.333,237.759h 6.33214" fill="none" stroke="black"/>
<path d="M498.001,236.213h 12.6643" fill="none" stroke="black"/>
<path d="M504.333,226.047h 6.33214" fill="none" stroke="black"/>
<path d="M504.333,220.1h 6.33214" fill="none" stroke="black"/>
<path d="M504.333,215.881h 6.33214" fill="none" stroke="black"/>
<path d="M504.333,212.608h 6.33214" fill="none" stroke="black"/>
<path d="M504.333,209.934h 6.33214" fill="none" stroke="black"/>
<path d="M504.333,207.673h 6.33214" fill="none" stroke="black"/>
<path d="M504.333,205.715h 6.33214" fill="none" stroke="black"/>
<path d="M504.333,203.988h 6.33214" fill="none" stroke="black"/>
<path d="M498.001,202.442h 12.6643" fill="none" stroke="black"/>
<path d="M504.333,192.276h 6.33214" fill="none" stroke="black"/>
<path d="M504.333,186.329h 6.33214" fill="none" stroke="black"/>
<path d="M504.333,182.11h 6.33214" fill="none" stroke="black"/>
<path d="M504.333,178.837h 6.33214" fill="none" stroke="black"/>
<path d="M504.333,176.163h 6.33214" fill="none" stroke="black"/>
<path d="M504.333,173.902h 6.33214" fill="none" stroke="black"/>
<path d="M504.333,171.944h 6.33214" fill="none" stroke="black"/>
<path d="M504.333,170.216h 6.33214" fill="none" stroke="black"/>
<path d="M498.001,168.671h 12.6643" fill="none" stroke="black"/>
<path d="M504.333,158.505h 6.33214" fill="none" stroke="black"/>
<path d="M504.333,152.558h 6.33214" fill="none" stroke="black"/>
<path d="M504.333,148.339h 6.33214" fill="none" stroke="black"/>
<path d="M504.333,145.066h 6.33214" fill="none" stroke="black"/>
<path d="M504.333,142.392h 6.33214" fill="none" stroke="black"/>
<path d="M504.333,140.131h 6.33214" fill="none" stroke="black"/>
<path d="M504.333,138.173h 6.33214" fill="none" stroke="black"/>
<path d="M504.333,136.445h 6.33214" fill="none" stroke="black"/>
<path d="M498.001,134.9h 12.6643" fill="none" stroke="black"/>
<path d="M504.333,124.734h 6.33214" fill="none" stroke="black"/>
<path d="M504.333,118.787h 6.33214" fill="none" stroke="black"/>
<path d="M504.333,114.568h 6.33214" fill="none" stroke="black"/>
<path d="M504.333,111.295h 6.33214" fill="none" stroke="black"/>
<path d="M504.333,108.621h 6.33214" fill="none" stroke="black"/>
<path d="M504.333,106.36h 6.33214" fill="none" stroke="black"/>
<path d="M504.333,104.402h 6.33214" fill="none" stroke="black"/>
<path d="M504.333,102.674h 6.33214" fill="none" stroke="black"/>
<path d="M498.001,101.129h 12.6643" fill="none" stroke="black"/>
<path d="M504.333,90.9628h 6.33214" fill="none" stroke="black"/>
<path d="M504.333,85.0161h 6.33214" fill="none" stroke="black"/>
<path d="M504.333,80.7967h 6.33214" fill="none" stroke="black"/>
<path d="M504.333,77.524h 6.33214" fill="none" stroke="black"/>
<path d="M504.333,74.8499h 6.33214" fill="none" stroke="black"/>
<path d="M504.333,72.5891h 6.33214" fill="none" stroke="black"/>
<path d="M504.333,70.6306h 6.33214" fill="none" stroke="black"/>
<path d="M504.333,68.9031h 6.33214" fill="none" stroke="black"/>
<path d="M498.001,67.3579h 12.6643" fill="none" stroke="black"/>
<path d="M504.333,57.1918h 6.33214" fill="none" stroke="black"/>
<path d="M504.333,51.245h 6.33214" fill="none" stroke="black"/>
<path d="M504.333,47.0256h 6.33214" fill="none" stroke="black"/>
<path d="M504.333,43.7529h 6.33214" fill="none" stroke="black"/>
<path d="M504.333,41.0788h 6.33214" fill="none" stroke="black"/>
<path d="M504.333,38.818h 6.33214" fill="none" stroke="black"/>
<path d="M57.1929,45.672v -7.46952" fill="none" stroke="black"/>
<path d="M75.3318,45.672v -7.46952" fill="none" stroke="black"/>
<path d="M93.4707,45.672v -7.46952" fill="none" stroke="black"/>
<path d="M111.61,45.672v -7.46952" fill="none" stroke="black"/>
<path d="M129.749,45.672v -7.46952" fill="none" stroke="black"/>
<path d="M147.887,45.672v -7.46952" fill="none" stroke="black"/>
<path d="M166.026,45.672v -7.46952" fill="none" stroke="black"/>
<path d="M184.165,45.672v -7.46952" fill="none" stroke="black"/>
<path d="M202.304,45.672v -7.46952" fill="none" stroke="black"/>
<path d="M220.443,45.672v -7.46952" fill="none" stroke="black"/>
<path d="M238.582,45.672v -7.46952" fill="none" stroke="black"/>
<path d="M256.721,45.672v -7.46952" fill="none" stroke="black"/>
<path d="M274.86,45.672v -7.46952" fill="none" stroke="black"/>
<path d="M292.999,45.672v -7.46952" fill="none" stroke="black"/>
<path d="M311.138,45.672v -7.46952" fill="none" stroke="black"/>
<path d="M329.277,45.672v -7.46952" fill="none" stroke="black"/>
<path d="M347.415,45.672v -7.46952" fill="none" stroke="black"/>
<path d="M365.554,45.672v -7.46952" fill="none" stroke="black"/>
<path d="M383.693,45.672v -7.46952" fill="none" stroke="black"/>
<path d="M401.832,45.672v -7.46952" fill="none" stroke="black"/>
<path d="M419.971,45.672v -7.46952" fill="none" stroke="black"/>
<path d="M438.11,45.672v -7.46952" fill="none" stroke="black"/>
<path d="M456.249,45.672v -7.46952" fill="none" stroke="black"/>
<path d="M474.388,45.672v -7.46952" fill="none" stroke="black"/>
<path d="M492.527,45.672v -7.46952" fill="none" stroke="black"/>
<path d="M510.666,45.672v -7.46952" fill="none" stroke="black"/></svg>
