<?xml version="1.0" standalone="no"?>
<svg width="567.429" height="311.778" viewBox="0 0 567.429 311.778" xmlns="http://www.w3.org/2000/svg" shape-rendering="crispEdges">
<title>
Yields/P1/det-11/run_0107_Fit.svg
</title>
<desc>
Creator: ROOT Version 6.12/06
CreationDate: Mon Apr 15 10:29:03 2019</desc>
<defs>
</defs>
<rect x="0.5" y="0" width="566.929" height="311.278" fill="white"/>
<rect x="57.1929" y="31.1278" width="453.543" height="249.023" fill="white"/>
<rect x="57.1929" y="31.1278" width="453.543" height="249.023" fill="none" stroke="black"/>
<rect x="57.1929" y="31.1278" width="453.543" height="249.023" fill="white"/>
<rect x="57.1929" y="31.1278" width="453.543" height="249.023" fill="none" stroke="black"/>
<path d="M57.1929,40.7673h 0.181345v 239.383h 4.53362v -10.455h 0.181345v 10.455h 4.17093v -10.455h 0.181345v 10.455h 3.6269v -10.455h 0.181345v 10.455h 5.80303v -10.455h 0.181345v 10.455h 6.70976v -10.455h 0.36269v 10.455h 1.26941v -10.455h
 0.181345v 10.455h 1.08807v -10.455h 0.181345v 10.455h 0.725379v -10.455h 0.181345v 10.455h 0.725379v -10.455h 0.181345v 10.455h 0.181345v -10.455h 0.36269v -10.455h 0.181345v -10.455h 0.36269v -17.7781h 0.181345v -18.3903h 0.181345v -12.9748h
 0.181345v -7.93527h 0.181345v -9.57269h 0.181345v -1.67527h 0.181345v -4.88813h 0.181345v -1.40281h 0.181345v -0.934899h 0.181345v -2.00151h 0.181345v 0.0441681h 0.181345v -1.88919h 0.181345v -0.1553h 0.181345v 0.0193253h 0.181345v -0.80941h
 0.181345v -0.362164h 0.181345v -0.613587h 0.181345v 0.312441h 0.181345v -0.260815h 0.181345v -1.0326h 0.181345v 0.457603h 0.181345v -0.94855h 0.181345v 0.70168h 0.181345v -1.43166h 0.181345v 0.498046h 0.181345v 0.294395h 0.181345v -0.186601h
 0.181345v -0.396553h 0.181345v 0.381107h 0.181345v -0.826077h 0.181345v 1.10656h 0.181345v -0.495089h 0.181345v -0.271509h 0.181345v -0.643812h 0.181345v 0.569252h 0.181345v 0.300476h 0.181345v -1.01229h 0.181345v 0.504991h 0.181345v -0.160541h
 0.181345v 0.322809h 0.181345v 0.329869h 0.181345v -0.594497h 0.181345v 0.594497h 0.181345v -0.623615h 0.181345v 0.131478h 0.181345v 0.0146797h 0.181345v 0.660473h 0.181345v -0.850204h 0.181345v 0.337319h 0.181345v 0.345036h 0.181345v -0.150986h
 0.181345v 1.17105h 0.181345v -0.928745h 0.181345v 0.449359h 0.181345v 0.857518h 0.181345v -0.21489h 0.181345v -0.953958h 0.181345v 0.742086h 0.181345v -0.986604h 0.181345v -0.403843h 0.181345v -0.804639h 0.181345v -0.683861h 0.181345v -1.70508h
 0.181345v -1.46689h 0.181345v -2.67399h 0.181345v -1.65711h 0.181345v -2.91849h 0.181345v -2.06344h 0.181345v -2.62189h 0.181345v -2.40978h 0.181345v -1.68559h 0.181345v -1.48212h 0.181345v -1.48842h 0.181345v -0.204596h 0.181345v -0.877806h
 0.181345v 0.793118h 0.181345v 0.45001h 0.181345v 1.35486h 0.181345v 1.67366h 0.181345v 2.22228h 0.181345v 2.53415h 0.181345v 3.08592h 0.181345v 2.73853h 0.181345v 4.03337h 0.181345v 2.71204h 0.181345v 3.57993h 0.181345v 3.56453h 0.181345v 2.30269h
 0.181345v 2.37375h 0.181345v 0.89149h 0.181345v 0.480674h 0.181345v 0.918017h 0.181345v 0.433639h 0.181345v 1.62415h 0.181345v -1.56117h 0.181345v 1.07901h 0.181345v 1.08915h 0.36269v -1.32457h 0.181345v 0.0668888h 0.181345v 1.51489h 0.181345v
 -0.899158h 0.181345v 1.23644h 0.181345v -1.13133h 0.181345v -1.7257h 0.181345v 2.66872h 0.181345v 0.611057h 0.181345v 0.117381h 0.181345v -0.117381h 0.181345v 0.515383h 0.181345v 0.575458h 0.181345v -1.01269h 0.181345v 0.518107h 0.181345v 0.536539h
 0.181345v -1.74385h 0.181345v 0.226255h 0.181345v 0.152745h 0.181345v 1.92119h 0.181345v -1.53242h 0.181345v -0.916742h 0.181345v 1.0751h 0.181345v -0.276044h 0.181345v 1.30532h 0.181345v 1.15061h 0.181345v -1.23559h 0.181345v 1.32784h 0.181345v
 -0.678528h 0.181345v 0.403443h 0.181345v -0.796376h 0.181345v 0.129844h 0.181345v 1.41154h 0.181345v -0.925652h 0.181345v 1.86098h 0.181345v -1.17212h 0.181345v 0.52594h 0.181345v -0.52594h 0.181345v 2.0074h 0.181345v -3.13862h 0.181345v 1.51189h
 0.181345v 0.539626h 0.181345v -0.345625h 0.181345v 0.853532h 0.181345v -0.950844h 0.181345v 0.899277h 0.181345v 0.207335h 0.181345v 0.369839h 0.181345v -0.730827h 0.181345v 1.22006h 0.181345v -0.70168h 0.181345v -0.209495h 0.181345v 0.421941h
 0.181345v -0.106597h 0.181345v 1.33175h 0.181345v -1.85372h 0.181345v 1.453h 0.181345v -0.770852h 0.181345v -0.371139h 0.181345v 0.424913h 0.181345v -0.0537733h 0.181345v 1.28805h 0.181345v -1.23427h 0.181345v 1.23427h 0.181345v -0.629759h 0.181345v
 -0.765264h 0.181345v 1.16297h 0.181345v -0.675489h 0.181345v 0.0551496h 0.181345v 2.00622h 0.181345v -1.7274h 0.181345v -0.223462h 0.181345v 0.68057h 0.181345v 1.33354h 0.181345v -0.251396h 0.181345v -2.57239h 0.181345v 1.25996h 0.36269v 0.0572426h
 0.181345v -0.17108h 0.181345v -1.14613h 0.181345v 0.809679h 0.181345v -1.5781h 0.181345v -0.731164h 0.181345v 0.831387h 0.181345v -0.78373h 0.181345v 0.733535h 0.181345v -2.5313h 0.181345v -0.459005h 0.181345v -1.41142h 0.181345v 1.28863h 0.181345v
 -0.94796h 0.181345v -1.14239h 0.181345v 0.801722h 0.181345v 0.417429h 0.181345v 0.8712h 0.181345v 0.0817531h 0.181345v -0.681172h 0.181345v 0.681172h 0.181345v -0.404405h 0.181345v 0.862143h 0.181345v 2.97992h 0.181345v -0.153652h 0.181345v 1.00066h
 0.181345v -0.949619h 0.181345v 2.92488h 0.181345v 0.313596h 0.181345v 1.0497h 0.181345v -0.533981h 0.181345v -2.36254h 0.181345v 1.91033h 0.181345v 1.05429h 0.181345v -0.667516h 0.181345v 0.396955h 0.181345v 0.338967h 0.181345v -0.670484h 0.181345v
 0.198034h 0.181345v 1.4642h 0.181345v -0.504027h 0.181345v 0.142297h 0.36269v -1.4311h 0.181345v 1.6471h 0.181345v -2.8344h 0.181345v 4.19965h 0.181345v -1.5096h 0.181345v -1.50276h 0.181345v 1.21816h 0.181345v -0.822935h 0.181345v 2.22534h
 0.181345v -2.35823h 0.181345v 0.53875h 0.181345v 0.276767h 0.181345v 0.281941h 0.36269v -1.87114h 0.181345v 1.94245h 0.181345v 1.34496h 0.181345v -1.83723h 0.181345v 0.349979h 0.181345v -1.98753h 0.181345v 0.504931h 0.181345v 1.76855h 0.181345v
 -2.58069h 0.181345v 1.13653h 0.181345v -1.31789h 0.181345v 0.993505h 0.181345v -0.812139h 0.181345v 0.748091h 0.181345v -2.52466h 0.181345v 1.23889h 0.181345v 0.598626h 0.181345v -1.1744h 0.181345v -0.279848h 0.181345v -0.437231h 0.36269v 1.89148h
 0.181345v -1.00396h 0.181345v -1.15448h 0.181345v 1.67766h 0.181345v 1.821h 0.181345v 1.03588h 0.181345v -0.901805h 0.181345v -0.398703h 0.181345v 1.22919h 0.181345v -0.964564h 0.181345v 3.10114h 0.181345v -2.34852h 0.181345v 0.866271h 0.181345v
 -0.221276h 0.181345v 0.983226h 0.181345v 0.476358h 0.181345v -0.080445h 0.181345v -1.15786h 0.181345v 0.998248h 0.181345v -2.55025h 0.181345v 2.00453h 0.181345v -1.45847h 0.181345v -0.275504h 0.181345v 0.987117h 0.181345v -0.217031h 0.181345v
 0.735922h 0.181345v -1.36888h 0.181345v 1.2188h 0.181345v 0.37805h 0.181345v 1.11191h 0.181345v -3.24993h 0.181345v 1.39116h 0.181345v 2.19212h 0.181345v -1.97192h 0.181345v -0.365233h 0.181345v -1.11264h 0.181345v 2.31395h 0.181345v -1.5579h
 0.181345v 3.208h 0.181345v -2.63333h 0.181345v -1.85771h 0.181345v 1.9311h 0.181345v 1.46706h 0.181345v -1.2447h 0.181345v 0.150085h 0.181345v -0.150085h 0.181345v 2.07825h 0.181345v -3.22801h 0.181345v -0.476716h 0.181345v 0.476716h 0.181345v
 1.14977h 0.181345v -2.34644h 0.181345v 1.61763h 0.181345v -0.830489h 0.181345v 0.901805h 0.181345v -1.30051h 0.181345v 3.95079h 0.181345v -1.7671h 0.181345v -1.58161h 0.181345v 0.987117h 0.181345v 1.29257h 0.181345v -1.07237h 0.181345v -0.721832h
 0.181345v 0.501632h 0.181345v 0.368806h 0.181345v 0.0748557h 0.181345v 0.848906h 0.181345v 0.484001h 0.181345v -1.55637h 0.181345v 0.450284h 0.36269v 2.21128h 0.181345v -2.66156h 0.181345v 1.47462h 0.181345v -0.8712h 0.181345v 0.789887h 0.181345v
 -0.94302h 0.181345v -0.670484h 0.181345v -3.0863h 0.181345v 3.4551h 0.181345v -0.657492h 0.181345v -0.492276h 0.181345v 0.349979h 0.36269v 1.33175h 0.181345v -0.900769h 0.181345v -0.360003h 0.181345v 0.878893h 0.181345v 1.75773h 0.181345v -1.68212h
 0.181345v -0.374297h 0.181345v 0.83607h 0.181345v -0.612608h 0.181345v -1.22462h 0.181345v 1.07528h 0.181345v 2.49949h 0.181345v -2.42501h 0.181345v 1.2447h 0.181345v 1.26826h 0.181345v -1.90344h 0.181345v 1.0462h 0.181345v -1.7302h 0.181345v
 1.9823h 0.181345v -1.14199h 0.181345v 2.93976h 0.181345v -2.78182h 0.181345v 0.566199h 0.181345v -0.645378h 0.181345v 0.158774h 0.181345v -0.237539h 0.181345v 1.14199h 0.181345v 0.170436h 0.181345v 1.15741h 0.181345v -0.275085h 0.181345v -0.623002h
 0.181345v 2.05152h 0.181345v -2.05152h 0.36269v -0.429756h 0.181345v 3.09285h 0.181345v -3.26138h 0.181345v 1.1307h 0.36269v 2.34018h 0.181345v 1.67146h 0.181345v -4.10169h 0.181345v 0.830489h 0.181345v -2.20265h 0.181345v 3.18244h 0.181345v
 -3.50683h 0.181345v 3.30571h 0.181345v 0.715957h 0.181345v -0.815518h 0.181345v -1.59911h 0.181345v 3.61322h 0.181345v -1.81432h 0.181345v 1.14877h 0.181345v 0.552567h 0.181345v -2.19592h 0.181345v 1.75226h 0.181345v -3.66874h 0.181345v 0.523176h
 0.181345v 2.92853h 0.181345v 1.95267h 0.181345v -1.62594h 0.181345v -2.24627h 0.181345v 2.80706h 0.181345v -1.62344h 0.181345v 1.17315h 0.181345v -1.77657h 0.181345v 0.298691h 0.181345v -1.4376h 0.181345v 4.06744h 0.181345v -0.119237h 0.181345v
 -1.89487h 0.181345v 0.97346h 0.181345v 1.28199h 0.181345v -2.35983h 0.181345v -0.511351h 0.181345v 2.87118h 0.181345v -3.07096h 0.181345v 0.815518h 0.181345v -1.11032h 0.181345v 1.97246h 0.181345v 1.63857h 0.181345v -1.63857h 0.181345v -0.544586h
 0.181345v 0.434085h 0.181345v -1.4676h 0.181345v 2.37514h 0.181345v -2.67188h 0.181345v 2.90756h 0.181345v -1.68391h 0.181345v -0.105849h 0.181345v 1.4376h 0.181345v -1.22516h 0.181345v 1.10957h 0.181345v -2.04287h 0.181345v 1.70134h 0.181345v
 1.53925h 0.181345v -1.42627h 0.181345v 0.577979h 0.181345v -1.77657h 0.181345v -0.104384h 0.181345v -0.103666h 0.181345v -0.607467h 0.181345v 1.45746h 0.181345v -0.108906h 0.181345v 1.00968h 0.181345v 3.80726h 0.181345v -2.47372h 0.181345v -2.23431h
 0.181345v -0.746328h 0.181345v -0.410458h 0.181345v -1.35455h 0.181345v 1.45612h 0.181345v 3.41681h 0.181345v -0.748091h 0.181345v 0.369408h 0.181345v -4.49425h 0.181345v 4.49425h 0.181345v -0.247274h 0.181345v -0.601012h 0.181345v -1.98462h
 0.181345v 0.849994h 0.181345v -0.430984h 0.181345v 0.106597h 0.181345v 2.43247h 0.181345v -3.86035h 0.181345v 1.75226h 0.181345v -0.849994h 0.181345v 2.22216h 0.181345v -1.04065h 0.181345v -3.0268h 0.181345v 0.558708h 0.181345v 3.62892h 0.181345v
 -4.54893h 0.181345v 0.452989h 0.181345v 2.49468h 0.181345v -1.24899h 0.181345v -1.96408h 0.181345v -1.099h 0.181345v 2.66872h 0.181345v -0.478878h 0.181345v -1.86013h 0.181345v -0.247952h 0.181345v 1.28265h 0.181345v -0.867101h 0.181345v -1.52163h
 0.181345v 0.622084h 0.181345v -0.773677h 0.181345v -0.150085h 0.36269v -1.958h 0.181345v 2.64546h 0.181345v -1.62822h 0.181345v -2.15377h 0.181345v 0.876461h 0.181345v 1.77657h 0.181345v -1.1178h 0.181345v 1.04546h 0.181345v -0.842083h 0.181345v
 -1.1178h 0.181345v 1.53297h 0.181345v -0.88551h 0.181345v 1.24043h 0.181345v -0.632963h 0.181345v -0.20522h 0.181345v 0.3436h 0.181345v 0.784656h 0.181345v 0.370618h 0.181345v 0.690964h 0.181345v -2.72382h 0.181345v -0.578965h 0.181345v 1.52622h
 0.181345v 0.353257h 0.181345v -0.968992h 0.181345v -0.847239h 0.181345v 1.0497h 0.181345v -3.06381h 0.181345v 0.450284h 0.181345v -0.505636h 0.181345v -0.219399h 0.181345v 0.839738h 0.181345v -2.19295h 0.181345v -1.91422h 0.181345v -1.30146h
 0.181345v -0.318395h 0.181345v -0.273187h 0.181345v -1.92197h 0.181345v -1.08371h 0.181345v 0.450284h 0.181345v -1.8128h 0.181345v -1.69593h 0.181345v 1.12775h 0.181345v -2.17702h 0.181345v 1.12709h 0.181345v -1.57879h 0.181345v -0.370163h 0.181345v
 0.535011h 0.181345v 1.10506h 0.181345v -1.22299h 0.181345v -0.576212h 0.181345v 1.47156h 0.181345v 1.11205h 0.181345v 0.686351h 0.181345v 0.226397h 0.181345v 0.760177h 0.181345v 0.643248h 0.181345v 2.4403h 0.181345v 0.754327h 0.181345v 1.08214h
 0.181345v 1.3011h 0.181345v 2.03353h 0.181345v 0.963097h 0.181345v 0.110908h 0.181345v 2.60601h 0.181345v 0.88551h 0.181345v 1.55027h 0.181345v 0.963097h 0.181345v 1.84926h 0.181345v -2.33849h 0.181345v 2.06002h 0.181345v 3.85651h 0.181345v
 -2.20588h 0.181345v 0.628566h 0.181345v 2.55869h 0.181345v -0.98138h 0.181345v -2.61083h 0.181345v 1.4676h 0.181345v 1.14323h 0.181345v 1.10867h 0.181345v 0.12837h 0.181345v 0.794047h 0.181345v -0.533981h 0.181345v -3.18101h 0.181345v -1.32128h
 0.181345v 3.00519h 0.181345v -0.235683h 0.181345v 0.965667h 0.181345v 1.57535h 0.181345v -2.30534h 0.181345v 1.4971h 0.181345v -1.73279h 0.181345v 0.965667h 0.181345v -0.610747h 0.181345v 3.18726h 0.181345v -3.18726h 0.181345v -0.119237h 0.181345v
 -0.809265h 0.181345v 1.53925h 0.181345v -1.65139h 0.181345v 2.28792h 0.181345v -0.385129h 0.181345v 1.18621h 0.181345v -0.405856h 0.181345v 1.69337h 0.181345v -2.72512h 0.181345v 0.125174h 0.181345v -0.615735h 0.181345v 0.243286h 0.181345v -0.48271h
 0.181345v 1.10867h 0.181345v -1.34435h 0.181345v 0.965667h 0.181345v -0.49056h 0.181345v 1.12709h 0.181345v 1.07784h 0.181345v 0.714987h 0.36269v -1.26353h 0.181345v -0.529296h 0.181345v -0.760669h 0.181345v 1.023h 0.181345v 0.676499h 0.181345v
 -0.137749h 0.181345v -1.56175h 0.181345v 2.99935h 0.181345v -0.591582h 0.181345v -1.1178h 0.181345v 2.16881h 0.181345v -4.18292h 0.181345v 6.17483h 0.181345v -4.69002h 0.181345v 3.01236h 0.181345v -0.314249h 0.181345v -1.19535h 0.181345v -1.10754h
 0.181345v 1.69337h 0.181345v -0.728808h 0.181345v 0.433046h 0.181345v 1.21952h 0.181345v -4.25963h 0.181345v 2.32512h 0.181345v -1.20732h 0.181345v 2.06946h 0.181345v -2.32512h 0.181345v 3.5571h 0.181345v -0.317557h 0.181345v -1.49463h 0.181345v
 -0.281941h 0.181345v -0.41327h 0.181345v -1.0497h 0.181345v -1.67766h 0.181345v 1.55144h 0.181345v 2.01411h 0.181345v -1.50276h 0.181345v -0.883799h 0.181345v 0.12313h 0.181345v 1.28997h 0.181345v -1.77657h 0.181345v 0.98943h 0.181345v 2.05067h
 0.181345v -0.854005h 0.181345v -0.409529h 0.181345v -0.787139h 0.181345v -1.57641h 0.181345v -1.10957h 0.181345v -0.317557h 0.181345v -0.715957h 0.181345v -0.39436h 0.181345v -3.46276h 0.181345v 2.06946h 0.181345v -0.608635h 0.181345v -3.07321h
 0.181345v -0.0693491h 0.181345v -2.00546h 0.181345v 1.86771h 0.181345v -3.03303h 0.181345v -1.18573h 0.181345v -2.39161h 0.181345v 0.133286h 0.181345v -1.20045h 0.181345v -1.78572h 0.181345v 0.445847h 0.181345v -1.12588h 0.181345v -0.516016h
 0.181345v -2.34443h 0.181345v 0.741713h 0.181345v -2.51506h 0.181345v 1.51502h 0.181345v -1.61763h 0.181345v 1.08637h 0.181345v -0.750306h 0.181345v 0.104928h 0.181345v -0.15712h 0.181345v -0.360371h 0.181345v 1.75115h 0.181345v -0.113838h 0.181345v
 0.0568114h 0.181345v -0.337702h 0.181345v 2.02206h 0.181345v 2.44759h 0.181345v -0.907819h 0.181345v 1.44113h 0.181345v 2.43538h 0.181345v 0.891658h 0.181345v 1.84926h 0.181345v -0.430984h 0.181345v 2.7288h 0.181345v 2.78826h 0.181345v 1.7002h
 0.181345v -1.23366h 0.181345v 2.67126h 0.181345v 4.85057h 0.181345v -0.760669h 0.181345v 2.84926h 0.181345v -2.47372h 0.181345v 2.62381h 0.181345v 2.81048h 0.181345v 0.367906h 0.181345v 0.569252h 0.181345v 2.75003h 0.181345v -1.75076h 0.36269v
 1.07019h 0.181345v -1.47788h 0.181345v 5.2369h 0.181345v -1.09746h 0.181345v -1.98099h 0.181345v 3.36576h 0.181345v -2.89437h 0.181345v 1.5096h 0.181345v 1.38477h 0.181345v -1.6471h 0.36269v 2.5434h 0.181345v -4.02821h 0.181345v 0.97346h 0.181345v
 0.773677h 0.181345v 1.38477h 0.181345v 2.18078h 0.181345v -4.08572h 0.181345v -0.98943h 0.181345v 3.48595h 0.36269v 1.92816h 0.181345v -3.63754h 0.181345v -3.57972h 0.181345v 5.2891h 0.181345v -1.70938h 0.181345v 0.548548h 0.181345v 1.77657h
 0.181345v 0.317557h 0.181345v -3.68332h 0.181345v -1.4376h 0.181345v 1.69111h 0.181345v -0.502827h 0.181345v 3.30407h 0.181345v -1.74233h 0.181345v 2.37089h 0.181345v -3.17197h 0.181345v -2.83647h 0.181345v 3.09879h 0.181345v -1.023h 0.181345v
 2.40777h 0.181345v -1.6471h 0.181345v 3.17197h 0.181345v -3.17197h 0.181345v 2.23868h 0.181345v -6.31558h 0.181345v 2.12794h 0.181345v -0.887515h 0.181345v 1.83053h 0.181345v 1.53523h 0.181345v 0.27178h 0.181345v -3.20031h 0.181345v 2.39924h
 0.181345v -1.94895h 0.181345v 2.75003h 0.181345v -2.04835h 0.181345v 0.98943h 0.181345v 1.61763h 0.181345v -4.62116h 0.181345v 2.50071h 0.181345v 0.502827h 0.181345v -0.253509h 0.181345v -0.494582h 0.181345v -2.04449h 0.181345v 4.69752h 0.181345v
 -3.13191h 0.181345v 0.237539h 0.181345v 2.60706h 0.181345v -4.19625h 0.181345v 2.57862h 0.181345v 0.520169h 0.181345v -3.93698h 0.181345v 3.67465h 0.181345v -1.00593h 0.181345v 2.65303h 0.181345v -2.15845h 0.181345v 0.253509h 0.181345v 0.787139h
 0.181345v 0.548548h 0.181345v -3.25362h 0.181345v 2.97685h 0.181345v -1.80701h 0.181345v 7.38405h 0.181345v -6.37812h 0.181345v 2.85441h 0.181345v -2.05334h 0.181345v -0.801077h 0.181345v 1.35979h 0.181345v -0.558708h 0.181345v -1.05892h 0.181345v
 1.05892h 0.181345v -0.27178h 0.181345v 4.7027h 0.181345v -5.99266h 0.36269v 2.70066h 0.181345v -2.19783h 0.181345v 4.08572h 0.181345v -2.18078h 0.181345v -3.59605h 0.181345v 3.0268h 0.181345v 1.16083h 0.181345v 0.615735h 0.181345v 0.97346h 0.181345v
 -0.331517h 0.181345v -2.13657h 0.181345v 0.580202h 0.181345v -3.65865h 0.181345v 6.58719h 0.181345v -1.37216h 0.181345v -4.00771h 0.181345v 1.31243h 0.181345v 1.4376h 0.181345v 2.27492h 0.181345v 3.54218h 0.181345v -5.20137h 0.181345v 2.75003h
 0.181345v -1.4376h 0.181345v -2.22685h 0.181345v 3.66445h 0.181345v -3.95735h 0.181345v 1.84926h 0.181345v 2.88176h 0.181345v -6.88947h 0.181345v 1.31243h 0.181345v 2.69528h 0.181345v 3.28401h 0.181345v -4.84038h 0.181345v 2.57361h 0.181345v
 -0.34676h 0.181345v -2.51974h 0.181345v 1.52487h 0.181345v -0.933291h 0.181345v 2.27492h 0.181345v 1.86452h 0.181345v -0.391799h 0.181345v -2.81435h 0.181345v 1.34163h 0.181345v 0.35492h 0.181345v 0.363473h 0.181345v -2.68859h 0.181345v 1.28447h
 0.181345v 4.67819h 0.181345v -5.96266h 0.181345v 3.06104h 0.181345v 0.773677h 0.181345v 2.59209h 0.181345v -4.80337h 0.181345v 0.70168h 0.181345v -2.01411h 0.181345v 3.52371h 0.181345v -4.73102h 0.181345v 4.73102h 0.181345v -0.391799h 0.181345v
 -0.381879h 0.181345v -0.735922h 0.181345v -1.69655h 0.181345v 9.52173h 0.181345v -2.75003h 0.181345v -3.1633h 0.181345v 3.1633h 0.181345v -3.1633h 0.181345v 1.27541h 0.181345v -1.27541h 0.181345v 2.66872h 0.181345v -0.94302h 0.181345v 5.44531h
 0.181345v -9.78453h 0.181345v 9.14259h 0.181345v -5.69088h 0.181345v 8.44091h 0.181345v -6.61037h 0.181345v 5.17277h 0.181345v 1.4376h 0.181345v -1.4376h 0.181345v -6.11579h 0.181345v 5.44531h 0.181345v -2.96706h 0.181345v 3.63754h 0.36269v 0.70168h
 0.181345v -3.79068h 0.181345v -1.07784h 0.181345v 1.07784h 0.181345v 4.5266h 0.181345v 2.45134h 0.181345v -8.05578h 0.181345v 2.85441h 0.181345v 7.08925h 0.181345v -7.08925h 0.181345v -0.615735h 0.181345v 7.70499h 0.181345v -9.94367h 0.36269v
 -2.39924h 0.181345v 9.59287h 0.181345v -3.0268h 0.181345v 1.4376h 0.181345v -3.95735h 0.181345v -0.569252h 0.181345v 2.41851h 0.181345v 4.55942h 0.544034v -12.9064h 0.181345v 5.92842h 0.181345v 6.11579h 0.181345v 1.77657h 0.181345v -5.47385h
 0.181345v 4.55942h 0.181345v -0.862143h 0.181345v -1.58919h 0.181345v -0.735922h 0.181345v 1.5096h 0.181345v 1.67766h 0.181345v 11.3694h 0.181345v -13.8208h 0.36269v 2.45134h 0.181345v 2.92853h 0.181345v -3.79068h 0.181345v -1.58919h 0.181345v
 1.58919h 0.181345v -1.58919h 0.181345v 7.70499h 0.181345v -11.6623h 0.181345v 7.32311h 0.181345v -2.59209h 0.181345v 1.67766h 0.181345v -2.45134h 0.181345v -3.36576h 0.181345v 6.73153h 0.181345v -6.11579h 0.181345v 3.52371h 0.181345v -2.21128h
 0.181345v -5.17277h 0.181345v 13.108h 0.181345v -7.23359h 0.181345v 0.735922h 0.181345v 0.773677h 0.181345v -4.13944h 0.36269v -0.591582h 0.181345v -1.6471h 0.181345v 2.85441h 0.181345v -1.77657h 0.181345v -3.0268h 0.181345v 6.11579h 0.181345v
 -4.67819h 0.181345v -3.95735h 0.181345v -3.44292h 0.181345v 3.83472h 0.181345v -4.43813h 0.181345v -1.13891h 0.181345v 0.84602h 0.181345v -0.569252h 0.36269v -1.83851h 0.181345v -1.41511h 0.181345v 2.17577h 0.181345v -1.00593h 0.181345v 1.00593h
 0.181345v -3.67465h 0.181345v -3.44708h 0.181345v 2.46088h 0.181345v 0.583947h 0.181345v -0.583947h 0.181345v -1.9663h 0.181345v 5.14233h 0.181345v -2.98389h 0.181345v -0.192148h 0.181345v 2.71189h 0.181345v -2.12794h 0.181345v -0.961051h 0.181345v
 -0.185075h 0.181345v -1.23559h 0.181345v 4.28284h 0.181345v -0.223462h 0.181345v 4.94264h 0.181345v -0.304726h 0.181345v -4.41445h 0.181345v 2.97685h 0.181345v -1.05892h 0.181345v 6.24416h 0.181345v -2.48996h 0.181345v -2.13657h 0.181345v 3.15382h
 0.181345v -0.685727h 0.181345v 0.338967h 0.181345v 4.33922h 0.181345v -0.887515h 0.181345v -1.24043h 0.181345v -3.20615h 0.181345v 2.06002h 0.181345v -0.363473h 0.181345v 0.735922h 0.181345v 0.381879h 0.181345v -2.48996h 0.181345v 0.331517h
 0.181345v -0.331517h 0.181345v -1.55637h 0.181345v -2.70066h 0.181345v -1.85877h 0.181345v 1.85877h 0.181345v 0.760669h 0.181345v -2.61944h 0.36269v -3.32198h 0.181345v -0.34676h 0.181345v -0.170436h 0.181345v 0.517196h 0.181345v -0.517196h
 0.181345v -5.24368h 0.181345v 3.48595h 0.181345v -1.4376h 0.181345v -2.86387h 0.181345v 1.05686h 0.181345v -0.24134h 0.181345v -3.12442h 0.181345v -0.666252h 0.181345v 2.63871h 0.181345v -3.27678h 0.181345v 1.89979h 0.181345v -0.884622h 0.181345v
 0.485039h 0.181345v -2.5349h 0.181345v -0.572339h 0.181345v -0.551413h 0.181345v -1.61238h 0.181345v 2.1638h 0.181345v -0.395913h 0.181345v 1.30532h 0.181345v -0.748091h 0.181345v -0.635184h 0.181345v 1.38327h 0.181345v 0.257842h 0.181345v -4.7876h
 0.181345v 1.18104h 0.181345v 1.43078h 0.181345v -0.588695h 0.181345v -0.91018h 0.181345v 0.553581h 0.181345v 0.0706484h 0.181345v -1.67393h 0.181345v 1.81623h 0.181345v -3.26535h 0.181345v 2.49882h 0.181345v 1.20166h 0.181345v -3.6428h 0.181345v
 1.97288h 0.181345v -1.01868h 0.181345v 0.564517h 0.181345v 0.990513h 0.181345v -1.97994h 0.181345v 3.26138h 0.181345v 0.840305h 0.181345v -0.840305h 0.181345v 0.452536h 0.181345v -0.227965h 0.181345v 0.459428h 0.181345v 3.28821h 0.181345v 2.40591h
 0.181345v -2.11302h 0.181345v -0.485039h 0.181345v 2.82659h 0.181345v -0.675489h 0.181345v 0.221819h 0.181345v 2.41851h 0.181345v 3.2027h 0.181345v 5.87445h 0.181345v -2.42738h 0.181345v -3.6084h 0.181345v 2.2451h 0.181345v 1.16083h 0.181345v
 3.36576h 0.181345v 2.15845h 0.181345v 4.73102h 0.181345v -3.52371h 0.181345v 2.37758h 0.181345v 3.27407h 0.181345v -2.12794h 0.181345v 4.0769h 0.36269v 4.86852h 0.181345v 2.32512h 0.181345v -0.815518h 0.181345v -4.13944h 0.181345v 6.73153h 0.181345v
 5.65165h 0.181345v -3.63754h 0.181345v 8.44091h 0.181345v 10.455h 0.181345v -18.8959h 0.181345v 6.66434h 0.36269v -3.0268h 0.181345v 9.14259h 0.181345v -4.33922h 0.181345v 14.7942h 0.181345v -4.33922h 0.181345v -8.44091h 0.181345v 5.07515h 0.181345v
 -8.86582h 0.181345v 3.79068h 0.181345v -2.01411h 0.181345v 7.08925h 0.36269v -5.07515h 0.181345v 18.8959h 0.181345v -24.2758h 0.181345v 18.16h 0.181345v -7.70499h 0.181345v -5.07515h 0.181345v 12.7801h 0.36269v -7.70499h 0.36269v -2.75003h 0.544034v
 10.455h 0.181345v -4.33922h 0.181345v 31.3651h 0.181345v -37.4808h 0.181345v 10.455h 0.181345v 6.11579h 0.181345v -6.11579h 0.36269v -4.33922h 0.181345v -8.44091h 0.181345v 39.806h 0.181345v -27.0258h 0.181345v -10.455h 0.544034v -4.33922h 0.181345v
 -6.11579h 0.181345v 27.0258h 0.36269v -13.8208h 0.181345v -5.07515h 0.181345v 29.3509h 0.181345v -33.1416h 0.181345v 8.86582h 0.181345v 3.36576h 0.181345v -8.44091h 0.181345v 2.32512h 0.36269v 10.455h 0.181345v -16.5708h 0.181345v 16.5708h 0.181345v
 -10.455h 0.181345v 10.455h 0.181345v -4.33922h 0.181345v -3.36576h 0.181345v -2.75003h 0.36269v -2.32512h 0.181345v 8.44091h 0.181345v -15.2584h 0.181345v 15.2584h 0.181345v -6.11579h 0.181345v 10.455h 0.181345v -14.7942h 0.181345v 20.91h 0.181345v
 -24.2758h 0.181345v 3.36576h 0.181345v -4.80337h 0.181345v 3.0268h 0.181345v 1.77657h 0.36269v -6.11579h 0.181345v 13.205h 0.181345v -17.5443h 0.181345v 20.91h 0.181345v -16.5708h 0.181345v 10.455h 0.181345v -13.8208h 0.181345v 3.36576h 0.36269v
 6.11579h 0.181345v -6.11579h 0.36269v -2.32512h 0.181345v -2.01411h 0.181345v 7.08925h 0.181345v -1.4376h 0.181345v -8.24374h 0.181345v 3.56555h 0.181345v 2.15845h 0.181345v -1.1178h 0.181345v -2.01411h 0.181345v 3.13191h 0.181345v -1.1178h
 0.181345v 5.07515h 0.181345v -6.11579h 0.181345v 4.67819h 0.181345v 4.80337h 0.36269v 2.01411h 0.181345v 2.32512h 0.36269v -9.14259h 0.181345v 6.81747h 0.181345v -2.01411h 0.181345v -7.32311h 0.181345v 3.95735h 0.36269v 1.58919h 0.181345v 3.79068h
 0.181345v 8.44091h 0.181345v -3.36576h 0.36269v 3.36576h 0.181345v 4.33922h 0.181345v -10.455h 0.181345v 6.11579h 0.181345v 20.91h 0.181345v -31.3651h 0.181345v 14.7942h 0.181345v -10.455h 0.36269v 27.0258h 0.181345v -10.455h 0.181345v -6.11579h
 0.181345v -4.33922h 0.181345v 10.455h 0.181345v -10.455h 0.181345v -8.44091h 0.181345v 12.7801h 0.36269v -12.7801h 0.181345v 18.8959h 0.181345v 10.455h 0.181345v -20.91h 0.181345v -3.36576h 0.181345v 3.36576h 0.181345v -10.455h 0.181345v 2.01411h
 0.181345v 29.3509h 0.181345v -16.5708h 0.181345v 16.5708h 0.181345v -20.91h 0.181345v 4.33922h 0.36269v -7.70499h 0.181345v -2.75003h 0.181345v 27.0258h 0.181345v -20.91h 0.181345v 4.33922h 0.181345v -7.70499h 0.181345v 24.2758h 0.181345v -20.91h
 0.181345v 10.455h 0.181345v 20.91h 0.181345v -39.806h 0.181345v 18.8959h 0.181345v -10.455h 0.544034v -3.36576h 0.181345v -7.08925h 0.181345v 14.7942h 0.181345v -4.33922h 0.181345v 20.91h 0.181345v -29.3509h 0.181345v 5.07515h 0.181345v -5.07515h
 0.181345v 5.07515h 0.36269v 7.70499h 0.36269v -7.70499h 0.181345v 3.36576h 0.181345v -3.36576h 0.181345v 13.8208h 0.181345v -6.11579h 0.181345v -14.7942h 0.181345v 20.91h 0.181345v -10.455h 0.181345v -10.455h 0.181345v 4.33922h 0.181345v 16.5708h
 0.181345v -13.8208h 0.181345v 13.8208h 0.181345v -13.8208h 0.181345v -2.75003h 0.181345v -7.70499h 0.181345v 7.70499h 0.181345v -7.70499h 0.181345v 10.455h 0.181345v -2.75003h 0.181345v -2.32512h 0.544034v -6.81747h 0.181345v 9.14259h 0.181345v
 6.11579h 0.181345v -12.2316h 0.181345v -4.33922h 0.181345v 8.1299h 0.181345v 5.07515h 0.181345v -5.07515h 0.181345v 2.32512h 0.36269v -9.14259h 0.181345v 3.0268h 0.181345v 1.77657h 0.181345v -1.77657h 0.181345v -5.54654h 0.181345v 3.95735h 0.36269v
 5.37987h 0.181345v 5.07515h 0.181345v 3.36576h 0.181345v -12.2316h 0.181345v 3.79068h 0.181345v -5.37987h 0.181345v 3.36576h 0.181345v -1.77657h 0.181345v 12.2316h 0.181345v -10.455h 0.181345v 10.455h 0.181345v -3.36576h 0.181345v 3.36576h 0.181345v
 10.455h 0.181345v -22.6866h 0.181345v 1.77657h 0.181345v 7.08925h 0.181345v -10.455h 0.181345v 18.16h 0.181345v -10.455h 0.181345v -6.11579h 0.36269v -4.33922h 0.181345v 20.91h 0.181345v -4.33922h 0.181345v -6.11579h 0.36269v 10.455h 0.181345v
 -10.455h 0.544034v 10.455h 0.181345v -4.33922h 0.181345v -3.36576h 0.181345v -7.08925h 0.181345v 2.01411h 0.181345v -3.79068h 0.181345v 8.86582h 0.181345v 13.8208h 0.181345v -10.455h 0.181345v -12.2316h 0.181345v -4.33922h 0.181345v 27.0258h
 0.181345v -10.455h 0.181345v 10.455h 0.181345v -10.455h 0.181345v -10.455h 0.181345v -4.80337h 0.181345v -1.31243h 0.181345v 1.31243h 0.181345v 11.8926h 0.181345v 13.8208h 0.181345v -16.5708h 0.36269v -2.32512h 0.181345v 2.32512h 0.181345v 6.11579h
 0.181345v -3.36576h 0.181345v -11.8926h 0.181345v -1.31243h 0.36269v 10.455h 0.181345v 10.455h 0.181345v -20.91h 0.181345v 6.11579h 0.181345v 14.7942h 0.181345v -16.5708h 0.181345v -5.54654h 0.181345v 5.54654h 0.36269v 22.6866h 0.181345v -6.11579h
 0.181345v -10.455h 0.181345v -6.11579h 0.181345v 6.11579h 0.181345v -9.14259h 0.181345v 3.0268h 0.36269v -5.54654h 0.181345v 5.54654h 0.181345v 1.77657h 0.181345v -1.77657h 0.36269v 3.79068h 0.181345v 2.32512h 0.181345v -6.11579h 0.181345v -3.0268h
 0.36269v 1.4376h 0.181345v 5.37987h 0.36269v 5.07515h 0.181345v -7.08925h 0.181345v -6.11579h 0.181345v 10.455h 0.181345v 2.75003h 0.181345v -15.5302h 0.36269v 5.07515h 0.36269v -3.95735h 0.181345v 11.6623h 0.181345v -9.14259h 0.181345v -2.51974h
 0.181345v -1.1178h 0.181345v 2.32512h 0.181345v 8.1299h 0.36269v -9.33722h 0.181345v -4.04633h 0.181345v 9.59287h 0.181345v -3.0268h 0.181345v -8.24374h 0.181345v 9.68134h 0.181345v -2.75003h 0.36269v -5.25365h 0.181345v 6.56608h 0.181345v -4.67819h
 0.181345v 3.36576h 0.181345v -2.32512h 0.181345v 5.07515h 0.181345v -9.68134h 0.181345v 1.67766h 0.181345v 1.88789h 0.181345v 2.15845h 0.181345v 3.95735h 0.181345v -8.00368h 0.181345v 1.88789h 0.181345v -4.33922h 0.181345v 5.37987h 0.181345v 1.1178h
 0.181345v -4.04633h 0.181345v 8.00368h 0.181345v -6.11579h 0.181345v 2.15845h 0.181345v 3.95735h 0.181345v -3.95735h 0.181345v 7.32311h 0.181345v -8.44091h 0.181345v 5.07515h 0.181345v -5.07515h 0.181345v 2.32512h 0.181345v -6.11579h 0.181345v
 6.11579h 0.181345v -7.70499h 0.181345v 1.58919h 0.181345v 6.11579h 0.181345v 8.1299h 0.181345v -12.4691h 0.181345v -3.36576h 0.181345v 3.36576h 0.181345v -0.914425h 0.181345v 6.56608h 0.181345v -1.31243h 0.181345v -6.93131h 0.181345v 2.59209h
 0.181345v -4.80337h 0.36269v -0.670484h 0.181345v 6.44731h 0.181345v -0.97346h 0.36269v -0.914425h 0.181345v 2.92853h 0.181345v -3.79068h 0.181345v -2.32512h 0.181345v 0.735922h 0.181345v 1.58919h 0.181345v 4.90848h 0.181345v -6.49767h 0.181345v
 6.49767h 0.181345v -11.0243h 0.181345v 9.90647h 0.181345v 5.07515h 0.181345v -10.455h 0.36269v 6.49767h 0.181345v -11.0243h 0.181345v 2.41851h 0.181345v -0.641944h 0.36269v 0.641944h 0.181345v 4.55942h 0.181345v -0.862143h 0.181345v 4.90848h
 0.181345v -2.15845h 0.181345v -7.08925h 0.181345v 1.31243h 0.181345v 0.70168h 0.181345v -2.01411h 0.181345v -1.77657h 0.181345v 4.5266h 0.181345v -0.735922h 0.181345v -3.22142h 0.181345v 10.455h 0.181345v -9.2477h 0.181345v -3.86035h 0.181345v
 5.17277h 0.181345v -1.31243h 0.181345v 4.33922h 0.181345v -2.32512h 0.181345v -5.87445h 0.181345v 5.87445h 0.544034v -3.79068h 0.181345v -0.548548h 0.181345v 5.07515h 0.181345v -1.4376h 0.36269v 4.80337h 0.181345v -4.80337h 0.181345v -5.17277h
 0.181345v 2.65303h 0.181345v 3.22142h 0.181345v -0.70168h 0.181345v -2.51974h 0.181345v -1.1178h 0.181345v 2.96706h 0.181345v 1.37216h 0.181345v -4.33922h 0.181345v -0.529296h 0.181345v 5.60444h 0.181345v -2.75003h 0.181345v -1.20732h 0.181345v
 1.20732h 0.181345v -1.20732h 0.181345v -2.15845h 0.181345v 7.70499h 0.181345v 0.862143h 0.181345v -3.88894h 0.181345v -2.51974h 0.181345v 3.95735h 0.181345v 4.33922h 0.181345v 7.70499h 0.181345v -12.0442h 0.181345v -2.10809h 0.181345v 2.88176h
 0.181345v 8.24374h 0.181345v -10.455h 0.181345v 5.77683h 0.181345v 7.70499h 0.181345v -7.70499h 0.181345v 2.15845h 0.181345v -1.1178h 0.181345v -4.60619h 0.181345v 5.72399h 0.181345v -4.04633h 0.181345v -0.862143h 0.181345v -0.815518h 0.181345v
 4.60619h 0.181345v -7.48796h 0.181345v 2.88176h 0.181345v 0.815518h 0.181345v 3.79068h 0.181345v 6.66434h 0.181345v -8.67845h 0.36269v 8.67845h 0.181345v -6.66434h 0.181345v -1.04065h 0.181345v 3.36576h 0.181345v -3.36576h 0.181345v -7.70499h
 0.181345v 12.3832h 0.181345v -10.455h 0.181345v 6.81747h 0.36269v -6.81747h 0.181345v 1.4376h 0.181345v 2.45134h 0.181345v 6.56608h 0.181345v -2.51974h 0.181345v -1.1178h 0.181345v -5.37987h 0.181345v 4.33922h 0.181345v -3.56555h 0.36269v -1.5096h
 0.181345v 5.07515h 0.36269v 2.15845h 0.181345v 7.32311h 0.181345v 2.01411h 0.181345v -13.3835h 0.181345v 0.914425h 0.181345v -0.914425h 0.181345v 0.914425h 0.181345v 0.97346h 0.181345v -1.88789h 0.181345v 6.56608h 0.181345v -7.42822h 0.181345v
 0.862143h 0.181345v 5.25365h 0.181345v -5.25365h 0.181345v -3.88894h 0.181345v 9.14259h 0.181345v 6.11579h 0.181345v -6.11579h 0.181345v -12.2316h 0.181345v 3.089h 0.181345v 9.14259h 0.181345v -6.93131h 0.181345v 2.59209h 0.36269v 0.97346h 0.181345v
 4.67819h 0.181345v -4.67819h 0.36269v 3.36576h 0.36269v -6.11579h 0.181345v 4.90848h 0.181345v 1.20732h 0.181345v 6.11579h 0.181345v -11.3694h 0.181345v -0.862143h 0.36269v 4.90848h 0.181345v 2.51974h 0.181345v -4.67819h 0.36269v -5.07515h 0.181345v
 8.44091h 0.181345v -2.32512h 0.181345v -2.01411h 0.36269v 2.01411h 0.181345v -10.9843h 0.181345v 7.19364h 0.181345v 1.77657h 0.181345v 3.13191h 0.181345v -4.04633h 0.181345v -3.88894h 0.181345v 4.80337h 0.181345v -4.80337h 0.181345v 6.81747h
 0.181345v -8.1299h 0.181345v 9.2477h 0.181345v -6.49767h 0.181345v 9.01742h 0.181345v -8.24374h 0.181345v -1.5096h 0.181345v 2.32512h 0.181345v 8.86582h 0.181345v -10.455h 0.181345v 18.16h 0.181345v -13.8208h 0.181345v -8.29657h 0.181345v 10.455h
 0.181345v -5.72399h 0.181345v -0.773677h 0.181345v -0.735922h 0.181345v 12.7801h 0.181345v -7.70499h 0.181345v -1.88789h 0.181345v 1.88789h 0.181345v 2.15845h 0.181345v -7.23359h 0.181345v 3.18726h 0.181345v -2.45134h 0.181345v -0.735922h 0.36269v
 4.10169h 0.181345v -5.47385h 0.181345v 3.69728h 0.181345v 2.75003h 0.181345v -7.70499h 0.181345v 5.8171h 0.36269v -2.45134h 0.181345v 5.37987h 0.181345v 3.63754h 0.181345v -1.31243h 0.181345v -3.36576h 0.181345v -6.44731h 0.181345v 4.55942h
 0.181345v 5.25365h 0.181345v -10.455h 0.181345v 9.2477h 0.181345v -4.04633h 0.181345v -8.05578h 0.181345v 6.37812h 0.181345v -4.13944h 0.181345v 6.73153h 0.181345v -1.77657h 0.181345v 0.862143h 0.181345v -6.40868h 0.181345v 3.22142h 0.36269v
 4.10169h 0.36269v -7.32311h 0.181345v -3.59605h 0.181345v 14.0511h 0.181345v -7.23359h 0.181345v -2.01411h 0.181345v -0.615735h 0.181345v 3.36576h 0.181345v 2.45134h 0.181345v -1.67766h 0.181345v -0.773677h 0.181345v 1.58919h 0.181345v -7.19364h
 0.181345v 6.37812h 0.181345v 0.815518h 0.181345v -3.69728h 0.181345v -2.41851h 0.36269v 2.41851h 0.181345v 2.88176h 0.181345v 3.56555h 0.181345v -5.77683h 0.181345v -3.089h 0.181345v -0.548548h 0.181345v 9.41437h 0.181345v -7.70499h 0.181345v
 -2.75003h 0.181345v 4.00771h 0.181345v 2.88176h 0.36269v -1.5096h 0.181345v 3.18726h 0.181345v 8.00368h 0.181345v -15.5302h 0.181345v 3.63754h 0.181345v -1.92816h 0.181345v -1.16083h 0.181345v 1.16083h 0.181345v 3.36576h 0.181345v 3.36576h 0.181345v
 0.97346h 0.36269v -0.97346h 0.181345v -0.914425h 0.181345v -3.88894h 0.181345v 6.81747h 0.181345v -8.74564h 0.181345v 5.8171h 0.181345v 0.914425h 0.181345v -5.47385h 0.181345v 14.1523h 0.181345v -12.0442h 0.181345v 4.33922h 0.36269v -4.33922h
 0.181345v 2.45134h 0.181345v 2.92853h 0.181345v -4.60619h 0.181345v 9.68134h 0.181345v -6.11579h 0.181345v -7.70499h 0.36269v 12.3832h 0.181345v -2.51974h 0.181345v -4.04633h 0.181345v 6.56608h 0.181345v -6.56608h 0.181345v 8.00368h 0.181345v
 -8.00368h 0.181345v 5.25365h 0.181345v -1.20732h 0.181345v -7.23359h 0.181345v 8.44091h 0.181345v 1.31243h 0.181345v -5.65165h 0.181345v 3.13191h 0.181345v -4.90848h 0.181345v 0.862143h 0.181345v 0.914425h 0.181345v 5.65165h 0.181345v -7.42822h
 0.181345v 1.77657h 0.181345v 2.01411h 0.181345v -7.48796h 0.181345v 11.1255h 0.181345v -7.42822h 0.181345v -5.54654h 0.181345v 8.29657h 0.181345v 1.04065h 0.181345v 3.63754h 0.36269v -5.65165h 0.181345v 0.97346h 0.181345v 4.67819h 0.181345v
 -3.63754h 0.181345v -6.11579h 0.181345v 4.10169h 0.181345v 2.01411h 0.181345v -4.60619h 0.181345v 4.60619h 0.181345v 3.63754h 0.181345v -6.56608h 0.181345v 5.25365h 0.181345v -1.20732h 0.181345v 1.20732h 0.181345v -9.81307h 0.181345v 4.55942h
 0.181345v -1.67766h 0.181345v 2.59209h 0.181345v 2.01411h 0.181345v 2.32512h 0.36269v -6.11579h 0.181345v 7.42822h 0.181345v 4.80337h 0.181345v -6.11579h 0.181345v -9.81307h 0.181345v 8.60576h 0.181345v 2.51974h 0.181345v -1.31243h 0.181345v
 1.31243h 0.181345v -8.24374h 0.181345v 9.68134h 0.36269v -9.68134h 0.181345v 15.0612h 0.181345v -2.01411h 0.181345v -6.11579h 0.181345v -5.25365h 0.181345v 8.00368h 0.181345v -2.75003h 0.181345v 8.1299h 0.181345v -5.37987h 0.181345v 1.58919h
 0.181345v -5.54654h 0.181345v 1.20732h 0.181345v 8.1299h 0.181345v -2.01411h 0.181345v 7.08925h 0.181345v -11.8926h 0.181345v 9.14259h 0.181345v -7.70499h 0.36269v -2.75003h 0.181345v 4.33922h 0.181345v 8.86582h 0.181345v -10.455h 0.181345v -1.4376h
 0.181345v 9.14259h 0.181345v 6.11579h 0.181345v -12.2316h 0.181345v -1.58919h 0.181345v 7.70499h 0.181345v -11.6623h 0.181345v -1.1178h 0.181345v 12.7801h 0.36269v -10.455h 0.181345v 8.1299h 0.181345v -8.1299h 0.181345v 2.75003h 0.181345v 3.36576h
 0.36269v 2.01411h 0.181345v 8.44091h 0.181345v -8.44091h 0.181345v 2.32512h 0.181345v -7.70499h 0.181345v 10.455h 0.181345v -7.08925h 0.181345v 4.33922h 0.181345v -11.6623h 0.181345v 11.6623h 0.181345v -6.11579h 0.181345v 3.79068h 0.181345v 8.44091h
 0.181345v -3.36576h 0.36269v -18.4587h 0.181345v 15.7087h 0.181345v -2.32512h 0.181345v -6.81747h 0.181345v 19.5976h 0.181345v -16.5708h 0.181345v -3.0268h 0.181345v 36.1684h 0.181345v -33.1416h 0.181345v 3.79068h 0.181345v -2.01411h 0.181345v
 7.08925h 0.181345v -8.86582h 0.181345v 6.11579h 0.181345v -7.70499h 0.181345v -2.75003h 0.181345v 8.1299h 0.181345v -3.79068h 0.181345v -1.58919h 0.181345v -1.4376h 0.181345v 3.0268h 0.181345v 3.79068h 0.181345v -2.01411h 0.181345v 4.33922h
 0.181345v 2.75003h 0.181345v -10.455h 0.181345v 10.455h 0.181345v -2.75003h 0.181345v -16.5708h 0.181345v 10.455h 0.181345v 1.77657h 0.181345v 2.01411h 0.181345v -6.81747h 0.181345v 4.80337h 0.181345v -8.44091h 0.181345v -2.01411h 0.181345v 14.7942h
 0.181345v -9.14259h 0.181345v -4.67819h 0.181345v 7.70499h 0.36269v -5.54654h 0.181345v -2.15845h 0.181345v 6.11579h 0.181345v 5.37987h 0.181345v -5.37987h 0.181345v -5.07515h 0.181345v 3.63754h 0.36269v 1.4376h 0.181345v 1.58919h 0.181345v
 -6.66434h 0.181345v 8.44091h 0.544034v -9.48156h 0.181345v 13.8208h 0.181345v -10.455h 0.181345v 16.5708h 0.181345v -15.2584h 0.181345v 1.4376h 0.181345v -5.07515h 0.181345v 3.63754h 0.181345v -1.31243h 0.181345v 2.75003h 0.181345v -8.00368h
 0.181345v 9.59287h 0.181345v -4.33922h 0.181345v -2.32512h 0.181345v 5.07515h 0.181345v 7.70499h 0.181345v -12.7801h 0.181345v 2.32512h 0.181345v 4.33922h 0.181345v -1.58919h 0.544034v 18.16h 0.181345v -23.2351h 0.181345v 10.455h 0.181345v -11.4957h
 0.36269v 19.9366h 0.181345v -20.91h 0.181345v 14.7942h 0.181345v -10.455h 0.181345v 4.33922h 0.181345v 1.77657h 0.181345v -4.80337h 0.181345v 1.4376h 0.181345v -2.75003h 0.181345v 6.11579h 0.181345v -4.80337h 0.181345v 25.7134h 0.181345v -30.3916h
 0.181345v 4.67819h 0.181345v 1.4376h 0.36269v -1.4376h 0.181345v -8.24374h 0.181345v 6.93131h 0.181345v 1.31243h 0.181345v 11.8926h 0.181345v -14.4124h 0.36269v 1.20732h 0.181345v 1.31243h 0.181345v -1.31243h 0.181345v -5.25365h 0.181345v 4.04633h
 0.181345v -4.04633h 0.181345v -3.18726h 0.181345v 1.5096h 0.181345v -4.13944h 0.181345v 5.8171h 0.181345v 6.56608h 0.181345v -6.56608h 0.36269v 9.59287h 0.181345v -6.66434h 0.181345v 1.1178h 0.181345v -6.49767h 0.181345v 1.58919h 0.181345v
 -0.815518h 0.181345v -4.73102h 0.181345v 4.73102h 0.181345v 6.93131h 0.181345v -6.11579h 0.181345v 0.862143h 0.181345v 1.88789h 0.181345v -0.97346h 0.181345v 7.08925h 0.181345v -3.95735h 0.181345v -2.15845h 0.36269v 4.67819h 0.181345v -3.63754h
 0.181345v -1.04065h 0.181345v 2.15845h 0.181345v -7.23359h 0.181345v 6.11579h 0.181345v 6.66434h 0.181345v -8.67845h 0.181345v 4.33922h 0.181345v -6.11579h 0.181345v 6.11579h 0.181345v -3.36576h 0.181345v -0.97346h 0.181345v -1.77657h 0.181345v
 6.11579h 0.181345v -8.44091h 0.181345v 8.44091h 0.36269v -2.32512h 0.36269v 3.63754h 0.181345v -2.51974h 0.181345v -4.04633h 0.36269v 4.04633h 0.181345v -1.1178h 0.181345v 1.1178h 0.181345v 2.51974h 0.181345v 9.14259h 0.181345v -10.455h 0.181345v
 -4.33922h 0.181345v 8.67845h 0.181345v -3.0268h 0.181345v 6.81747h 0.181345v -3.79068h 0.181345v 6.11579h 0.181345v -7.70499h 0.181345v 7.70499h 0.181345v 6.11579h 0.181345v -12.2316h 0.181345v 12.2316h 0.181345v -6.11579h 0.181345v 2.75003h
 0.181345v 13.8208h 0.181345v -18.8959h 0.181345v 5.07515h 0.181345v -5.07515h 0.181345v 5.07515h 0.181345v -7.08925h 0.181345v 7.08925h 0.36269v 7.70499h 0.181345v -14.7942h 0.181345v 7.08925h 0.36269v -2.75003h 0.181345v 10.455h 0.181345v -7.70499h
 0.181345v -2.75003h 0.181345v 2.75003h 0.181345v 3.36576h 0.544034v 10.455h 0.181345v -10.455h 0.181345v 4.33922h 0.181345v 6.11579h 0.181345v 10.455h 0.181345v -10.455h 0.181345v -10.455h 0.181345v 10.455h 0.36269v 20.91h 0.181345v -10.455h
 0.181345v -10.455h 0.36269v -6.11579h 0.181345v -4.33922h 0.181345v 4.33922h 0.181345v 16.5708h 0.36269v -10.455h 0.181345v -10.455h 0.181345v 31.3651h 0.181345v -10.455h 0.181345v 10.455h 0.181345v -20.91h 0.181345v 10.455h 0.181345v 10.455h
 0.181345v -10.455h 0.181345v -10.455h 0.181345v -6.11579h 0.181345v 27.0258h 0.544034v -20.91h 0.181345v 10.455h 0.181345v -10.455h 0.36269v 20.91h 0.181345v -20.91h 0.181345v 10.455h 0.181345v -24.2758h 0.181345v 34.7308h 0.181345v -20.91h
 0.181345v -6.11579h 0.181345v 6.11579h 0.544034v 10.455h 0.544034v -10.455h 0.181345v -6.11579h 0.181345v 16.5708h 0.181345v 10.455h 0.181345v -10.455h 0.181345v 10.455h 0.36269v -10.455h 0.181345v -10.455h 0.181345v 20.91h 0.181345v -10.455h
 0.181345v 10.455h 0.36269v -27.0258h 0.181345v 16.5708h 0.725379v 10.455h 0.36269v -20.91h 0.181345v 20.91h 0.36269v -10.455h 0.181345v 10.455h 0.181345v -20.91h 0.181345v 10.455h 0.544034v -10.455h 0.181345v -10.455h 0.181345v 31.3651h 0.36269v
 -10.455h 0.181345v 10.455h 0.181345v -10.455h 0.181345v -10.455h 0.181345v 10.455h 0.36269v 10.455h 0.181345v -10.455h 0.36269v -20.91h 0.181345v 20.91h 0.36269v 10.455h 0.181345v -10.455h 0.36269v -16.5708h 0.181345v 16.5708h 0.181345v 10.455h
 0.181345v -20.91h 0.36269v 20.91h 0.181345v -10.455h 0.36269v -10.455h 0.36269v 10.455h 0.906724v -10.455h 0.181345v 20.91h 0.36269v -10.455h 0.181345v 10.455h 0.181345v -20.91h 0.181345v 20.91h 0.36269v -20.91h 0.181345v 20.91h 0.36269v -20.91h
 0.181345v 20.91h 0.36269v -10.455h 0.36269v -16.5708h 0.181345v 16.5708h 0.181345v 10.455h 0.181345v -10.455h 0.181345v -10.455h 0.181345v 20.91h 0.181345v -20.91h 0.181345v 20.91h 0.181345v -10.455h 0.181345v -20.91h 0.181345v 20.91h 0.36269v
 10.455h 0.36269v -20.91h 0.36269v 20.91h 0.544034v -20.91h 0.181345v 20.91h 0.36269v -20.91h 0.544034v 10.455h 0.544034v 10.455h 0.181345v -10.455h 0.181345v 10.455h 0.181345v -20.91h 0.181345v 20.91h 0.36269v -10.455h 0.181345v 10.455h 0.36269v
 -10.455h 0.181345v -10.455h 0.181345v 20.91h 0.181345v -20.91h 0.181345v 10.455h 0.181345v 10.455h 0.181345v -10.455h 0.181345v 10.455h 0.36269v -20.91h 0.181345v 20.91h 0.181345v -10.455h 0.36269v 10.455h 0.181345v -10.455h 0.36269v -10.455h
 0.181345v 10.455h 0.725379v 10.455h 0.181345v -10.455h 0.181345v 10.455h 0.36269v -20.91h 0.181345v 10.455h 0.544034v -10.455h 0.181345v 10.455h 0.181345v 10.455h 0.181345v -10.455h 0.36269v 10.455h 0.181345v -10.455h 0.181345v 10.455h 0.544034v
 -10.455h 0.181345v 10.455h 0.181345v -10.455h 0.725379v 10.455h 0.906724v -10.455h 0.181345v 10.455h 0.181345v -10.455h 0.544034v -10.455h 0.181345v 20.91h 0.544034v -20.91h 0.181345v 20.91h 0.181345v -10.455h 0.181345v 10.455h 0.181345v -10.455h
 0.181345v 10.455h 0.181345v -31.3651h 0.181345v 31.3651h 0.181345v -10.455h 0.181345v 10.455h 0.544034v -10.455h 0.181345" fill="none" stroke="black"/>
<path d="M57.1929,280.151h 453.543" fill="none" stroke="black"/>
<path d="M57.1929,272.68v 7.47068" fill="none" stroke="black"/>
<path d="M75.3318,276.415v 3.73534" fill="none" stroke="black"/>
<path d="M93.4707,276.415v 3.73534" fill="none" stroke="black"/>
<path d="M111.61,276.415v 3.73534" fill="none" stroke="black"/>
<path d="M129.749,276.415v 3.73534" fill="none" stroke="black"/>
<path d="M147.887,272.68v 7.47068" fill="none" stroke="black"/>
<path d="M166.026,276.415v 3.73534" fill="none" stroke="black"/>
<path d="M184.165,276.415v 3.73534" fill="none" stroke="black"/>
<path d="M202.304,276.415v 3.73534" fill="none" stroke="black"/>
<path d="M220.443,276.415v 3.73534" fill="none" stroke="black"/>
<path d="M238.582,272.68v 7.47068" fill="none" stroke="black"/>
<path d="M256.721,276.415v 3.73534" fill="none" stroke="black"/>
<path d="M274.86,276.415v 3.73534" fill="none" stroke="black"/>
<path d="M292.999,276.415v 3.73534" fill="none" stroke="black"/>
<path d="M311.138,276.415v 3.73534" fill="none" stroke="black"/>
<path d="M329.277,272.68v 7.47068" fill="none" stroke="black"/>
<path d="M347.415,276.415v 3.73534" fill="none" stroke="black"/>
<path d="M365.554,276.415v 3.73534" fill="none" stroke="black"/>
<path d="M383.693,276.415v 3.73534" fill="none" stroke="black"/>
<path d="M401.832,276.415v 3.73534" fill="none" stroke="black"/>
<path d="M419.971,272.68v 7.47068" fill="none" stroke="black"/>
<path d="M438.11,276.415v 3.73534" fill="none" stroke="black"/>
<path d="M456.249,276.415v 3.73534" fill="none" stroke="black"/>
<path d="M474.388,276.415v 3.73534" fill="none" stroke="black"/>
<path d="M492.527,276.415v 3.73534" fill="none" stroke="black"/>
<path d="M510.666,272.68v 7.47068" fill="none" stroke="black"/>
<path d="M510.666,272.68v 7.47068" fill="none" stroke="black"/>
<text xml:space="preserve" x="54.3523" y="290.27" fill="black" font-size="10.4952" font-family="Helvetica">0</text>
<text xml:space="preserve" x="139.569" y="290.27" fill="black" font-size="10.4952" font-family="Helvetica">500</text>
<text xml:space="preserve" x="227.449" y="290.27" fill="black" font-size="10.4952" font-family="Helvetica">1000</text>
<text xml:space="preserve" x="318.288" y="290.27" fill="black" font-size="10.4952" font-family="Helvetica">1500</text>
<text xml:space="preserve" x="408.831" y="290.27" fill="black" font-size="10.4952" font-family="Helvetica">2000</text>
<text xml:space="preserve" x="499.67" y="290.27" fill="black" font-size="10.4952" font-family="Helvetica">2500</text>
<text xml:space="preserve" x="265.323" y="301.218" fill="black" font-size="10.4952" font-family="Helvetica">Channel</text>
<path d="M57.1929,280.151v -249.023" fill="none" stroke="black"/>
<path d="M63.9961,280.151h -6.80315" fill="none" stroke="black"/>
<path d="M63.9961,277.401h -6.80315" fill="none" stroke="black"/>
<path d="M63.9961,275.075h -6.80315" fill="none" stroke="black"/>
<path d="M63.9961,273.061h -6.80315" fill="none" stroke="black"/>
<path d="M63.9961,271.285h -6.80315" fill="none" stroke="black"/>
<path d="M70.7992,269.696h -13.6063" fill="none" stroke="black"/>
<text xml:space="preserve" x="49.0263" y="273.404" fill="black" font-size="10.4952" font-family="Helvetica">1</text>
<path d="M63.9961,259.241h -6.80315" fill="none" stroke="black"/>
<path d="M63.9961,253.125h -6.80315" fill="none" stroke="black"/>
<path d="M63.9961,248.785h -6.80315" fill="none" stroke="black"/>
<path d="M63.9961,245.42h -6.80315" fill="none" stroke="black"/>
<path d="M63.9961,242.67h -6.80315" fill="none" stroke="black"/>
<path d="M63.9961,240.345h -6.80315" fill="none" stroke="black"/>
<path d="M63.9961,238.33h -6.80315" fill="none" stroke="black"/>
<path d="M63.9961,236.554h -6.80315" fill="none" stroke="black"/>
<path d="M70.7992,234.965h -13.6063" fill="none" stroke="black"/>
<text xml:space="preserve" x="41.629" y="238.785" fill="black" font-size="10.4952" font-family="Helvetica">10</text>
<path d="M63.9961,224.51h -6.80315" fill="none" stroke="black"/>
<path d="M63.9961,218.394h -6.80315" fill="none" stroke="black"/>
<path d="M63.9961,214.055h -6.80315" fill="none" stroke="black"/>
<path d="M63.9961,210.689h -6.80315" fill="none" stroke="black"/>
<path d="M63.9961,207.939h -6.80315" fill="none" stroke="black"/>
<path d="M63.9961,205.614h -6.80315" fill="none" stroke="black"/>
<path d="M63.9961,203.6h -6.80315" fill="none" stroke="black"/>
<path d="M63.9961,201.823h -6.80315" fill="none" stroke="black"/>
<path d="M70.7992,200.234h -13.6063" fill="none" stroke="black"/>
<text xml:space="preserve" x="49.0263" y="200.319" fill="black" font-size="7.16345" font-family="Helvetica">2</text>
<text xml:space="preserve" x="38.0783" y="204.757" fill="black" font-size="10.4952" font-family="Helvetica">10</text>
<path d="M63.9961,189.779h -6.80315" fill="none" stroke="black"/>
<path d="M63.9961,183.663h -6.80315" fill="none" stroke="black"/>
<path d="M63.9961,179.324h -6.80315" fill="none" stroke="black"/>
<path d="M63.9961,175.958h -6.80315" fill="none" stroke="black"/>
<path d="M63.9961,173.208h -6.80315" fill="none" stroke="black"/>
<path d="M63.9961,170.883h -6.80315" fill="none" stroke="black"/>
<path d="M63.9961,168.869h -6.80315" fill="none" stroke="black"/>
<path d="M63.9961,167.092h -6.80315" fill="none" stroke="black"/>
<path d="M70.7992,165.503h -13.6063" fill="none" stroke="black"/>
<text xml:space="preserve" x="49.0263" y="165.404" fill="black" font-size="7.16345" font-family="Helvetica">3</text>
<text xml:space="preserve" x="38.0783" y="170.138" fill="black" font-size="10.4952" font-family="Helvetica">10</text>
<path d="M63.9961,155.048h -6.80315" fill="none" stroke="black"/>
<path d="M63.9961,148.932h -6.80315" fill="none" stroke="black"/>
<path d="M63.9961,144.593h -6.80315" fill="none" stroke="black"/>
<path d="M63.9961,141.227h -6.80315" fill="none" stroke="black"/>
<path d="M63.9961,138.477h -6.80315" fill="none" stroke="black"/>
<path d="M63.9961,136.152h -6.80315" fill="none" stroke="black"/>
<path d="M63.9961,134.138h -6.80315" fill="none" stroke="black"/>
<path d="M63.9961,132.361h -6.80315" fill="none" stroke="black"/>
<path d="M70.7992,130.772h -13.6063" fill="none" stroke="black"/>
<text xml:space="preserve" x="49.0263" y="130.784" fill="black" font-size="7.16345" font-family="Helvetica">4</text>
<text xml:space="preserve" x="38.0783" y="135.223" fill="black" font-size="10.4952" font-family="Helvetica">10</text>
<path d="M63.9961,120.317h -6.80315" fill="none" stroke="black"/>
<path d="M63.9961,114.201h -6.80315" fill="none" stroke="black"/>
<path d="M63.9961,109.862h -6.80315" fill="none" stroke="black"/>
<path d="M63.9961,106.496h -6.80315" fill="none" stroke="black"/>
<path d="M63.9961,103.746h -6.80315" fill="none" stroke="black"/>
<path d="M63.9961,101.421h -6.80315" fill="none" stroke="black"/>
<path d="M63.9961,99.4072h -6.80315" fill="none" stroke="black"/>
<path d="M63.9961,97.6307h -6.80315" fill="none" stroke="black"/>
<path d="M70.7992,96.0415h -13.6063" fill="none" stroke="black"/>
<text xml:space="preserve" x="49.0263" y="95.869" fill="black" font-size="7.16345" font-family="Helvetica">5</text>
<text xml:space="preserve" x="38.0783" y="100.603" fill="black" font-size="10.4952" font-family="Helvetica">10</text>
<path d="M63.9961,85.5865h -6.80315" fill="none" stroke="black"/>
<path d="M63.9961,79.4707h -6.80315" fill="none" stroke="black"/>
<path d="M63.9961,75.1314h -6.80315" fill="none" stroke="black"/>
<path d="M63.9961,71.7657h -6.80315" fill="none" stroke="black"/>
<path d="M63.9961,69.0157h -6.80315" fill="none" stroke="black"/>
<path d="M63.9961,66.6905h -6.80315" fill="none" stroke="black"/>
<path d="M63.9961,64.6764h -6.80315" fill="none" stroke="black"/>
<path d="M63.9961,62.8999h -6.80315" fill="none" stroke="black"/>
<path d="M70.7992,61.3107h -13.6063" fill="none" stroke="black"/>
<text xml:space="preserve" x="49.0263" y="61.2496" fill="black" font-size="7.16345" font-family="Helvetica">6</text>
<text xml:space="preserve" x="38.0783" y="65.9839" fill="black" font-size="10.4952" font-family="Helvetica">10</text>
<path d="M63.9961,50.8557h -6.80315" fill="none" stroke="black"/>
<path d="M63.9961,44.7399h -6.80315" fill="none" stroke="black"/>
<path d="M63.9961,40.4006h -6.80315" fill="none" stroke="black"/>
<path d="M63.9961,37.0349h -6.80315" fill="none" stroke="black"/>
<path d="M63.9961,34.2848h -6.80315" fill="none" stroke="black"/>
<path d="M63.9961,31.9597h -6.80315" fill="none" stroke="black"/>
<g transform="rotate(-90,26.5385,191.442)">
<text xml:space="preserve" x="26.5385" y="191.442" fill="black" font-size="10.4952" font-family="Helvetica">Counts/Channel</text>
</g>
<text xml:space="preserve" x="404.097" y="61.2496" fill="black" font-size="14.7788" font-family="Helvetica" font-weight="bold"> = 2.4879 MeV</text>
<text xml:space="preserve" x="398.179" y="64.5045" fill="black" font-size="10.0192" font-family="Helvetica" font-weight="bold">p</text>
<text xml:space="preserve" x="389.006" y="61.2496" fill="black" font-size="14.7788" font-family="Helvetica" font-weight="bold">E</text>
<path d="M262.163,164.066v 26.0841" fill="none" stroke="black"/>
<path d="M264.454,190.15l -2.29122, 3.9685l -2.29122, -3.9685z" fill="black"/>
<path d="M264.454,190.15l -2.29122, 3.9685l -2.29122, -3.9685h 4.58243z" fill="none" stroke="black"/>
<text xml:space="preserve" x="266.803" y="161.853" fill="black" font-size="10.4952" font-family="Helvetica" font-weight="bold">_1 	1.369 MeV</text>
<text xml:space="preserve" x="260.293" y="161.853" fill="black" font-size="10.4952" font-family="Times">&#0945;</text>
<path d="M184.528,130.772v 30.7623" fill="none" stroke="black"/>
<path d="M186.819,161.535l -2.29122, 3.9685l -2.29122, -3.9685z" fill="black"/>
<path d="M186.819,161.535l -2.29122, 3.9685l -2.29122, -3.9685h 4.58243z" fill="none" stroke="black"/>
<text xml:space="preserve" x="172.117" y="127.825" fill="black" font-size="10.4952" font-family="Helvetica" font-weight="bold"># p_1 	0.844 MeV</text>
<path d="M210.104,148.932v 12.6023" fill="none" stroke="black"/>
<path d="M212.395,161.535l -2.29122, 3.9685l -2.29122, -3.9685z" fill="black"/>
<path d="M212.395,161.535l -2.29122, 3.9685l -2.29122, -3.9685h 4.58243z" fill="none" stroke="black"/>
<text xml:space="preserve" x="197.564" y="144.395" fill="black" font-size="10.4952" font-family="Helvetica" font-weight="bold"># p_2 	1.015 MeV</text>
<path d="M497.641,269.696h 13.0242" fill="none" stroke="black"/>
<path d="M504.154,259.241h 6.51209" fill="none" stroke="black"/>
<path d="M504.154,253.125h 6.51209" fill="none" stroke="black"/>
<path d="M504.154,248.785h 6.51209" fill="none" stroke="black"/>
<path d="M504.154,245.42h 6.51209" fill="none" stroke="black"/>
<path d="M504.154,242.67h 6.51209" fill="none" stroke="black"/>
<path d="M504.154,240.345h 6.51209" fill="none" stroke="black"/>
<path d="M504.154,238.33h 6.51209" fill="none" stroke="black"/>
<path d="M504.154,236.554h 6.51209" fill="none" stroke="black"/>
<path d="M497.641,234.965h 13.0242" fill="none" stroke="black"/>
<path d="M504.154,224.51h 6.51209" fill="none" stroke="black"/>
<path d="M504.154,218.394h 6.51209" fill="none" stroke="black"/>
<path d="M504.154,214.055h 6.51209" fill="none" stroke="black"/>
<path d="M504.154,210.689h 6.51209" fill="none" stroke="black"/>
<path d="M504.154,207.939h 6.51209" fill="none" stroke="black"/>
<path d="M504.154,205.614h 6.51209" fill="none" stroke="black"/>
<path d="M504.154,203.6h 6.51209" fill="none" stroke="black"/>
<path d="M504.154,201.823h 6.51209" fill="none" stroke="black"/>
<path d="M497.641,200.234h 13.0242" fill="none" stroke="black"/>
<path d="M504.154,189.779h 6.51209" fill="none" stroke="black"/>
<path d="M504.154,183.663h 6.51209" fill="none" stroke="black"/>
<path d="M504.154,179.324h 6.51209" fill="none" stroke="black"/>
<path d="M504.154,175.958h 6.51209" fill="none" stroke="black"/>
<path d="M504.154,173.208h 6.51209" fill="none" stroke="black"/>
<path d="M504.154,170.883h 6.51209" fill="none" stroke="black"/>
<path d="M504.154,168.869h 6.51209" fill="none" stroke="black"/>
<path d="M504.154,167.092h 6.51209" fill="none" stroke="black"/>
<path d="M497.641,165.503h 13.0242" fill="none" stroke="black"/>
<path d="M504.154,155.048h 6.51209" fill="none" stroke="black"/>
<path d="M504.154,148.932h 6.51209" fill="none" stroke="black"/>
<path d="M504.154,144.593h 6.51209" fill="none" stroke="black"/>
<path d="M504.154,141.227h 6.51209" fill="none" stroke="black"/>
<path d="M504.154,138.477h 6.51209" fill="none" stroke="black"/>
<path d="M504.154,136.152h 6.51209" fill="none" stroke="black"/>
<path d="M504.154,134.138h 6.51209" fill="none" stroke="black"/>
<path d="M504.154,132.361h 6.51209" fill="none" stroke="black"/>
<path d="M497.641,130.772h 13.0242" fill="none" stroke="black"/>
<path d="M504.154,120.317h 6.51209" fill="none" stroke="black"/>
<path d="M504.154,114.201h 6.51209" fill="none" stroke="black"/>
<path d="M504.154,109.862h 6.51209" fill="none" stroke="black"/>
<path d="M504.154,106.496h 6.51209" fill="none" stroke="black"/>
<path d="M504.154,103.746h 6.51209" fill="none" stroke="black"/>
<path d="M504.154,101.421h 6.51209" fill="none" stroke="black"/>
<path d="M504.154,99.4072h 6.51209" fill="none" stroke="black"/>
<path d="M504.154,97.6307h 6.51209" fill="none" stroke="black"/>
<path d="M497.641,96.0415h 13.0242" fill="none" stroke="black"/>
<path d="M504.154,85.5865h 6.51209" fill="none" stroke="black"/>
<path d="M504.154,79.4707h 6.51209" fill="none" stroke="black"/>
<path d="M504.154,75.1314h 6.51209" fill="none" stroke="black"/>
<path d="M504.154,71.7657h 6.51209" fill="none" stroke="black"/>
<path d="M504.154,69.0157h 6.51209" fill="none" stroke="black"/>
<path d="M504.154,66.6905h 6.51209" fill="none" stroke="black"/>
<path d="M504.154,64.6764h 6.51209" fill="none" stroke="black"/>
<path d="M504.154,62.8999h 6.51209" fill="none" stroke="black"/>
<path d="M497.641,61.3107h 13.0242" fill="none" stroke="black"/>
<path d="M504.154,50.8557h 6.51209" fill="none" stroke="black"/>
<path d="M504.154,44.7399h 6.51209" fill="none" stroke="black"/>
<path d="M504.154,40.4006h 6.51209" fill="none" stroke="black"/>
<path d="M504.154,37.0349h 6.51209" fill="none" stroke="black"/>
<path d="M504.154,34.2848h 6.51209" fill="none" stroke="black"/>
<path d="M504.154,31.9597h 6.51209" fill="none" stroke="black"/>
<path d="M57.1929,38.7963v -7.46952" fill="none" stroke="black"/>
<path d="M75.3318,38.7963v -7.46952" fill="none" stroke="black"/>
<path d="M93.4707,38.7963v -7.46952" fill="none" stroke="black"/>
<path d="M111.61,38.7963v -7.46952" fill="none" stroke="black"/>
<path d="M129.749,38.7963v -7.46952" fill="none" stroke="black"/>
<path d="M147.887,38.7963v -7.46952" fill="none" stroke="black"/>
<path d="M166.026,38.7963v -7.46952" fill="none" stroke="black"/>
<path d="M184.165,38.7963v -7.46952" fill="none" stroke="black"/>
<path d="M202.304,38.7963v -7.46952" fill="none" stroke="black"/>
<path d="M220.443,38.7963v -7.46952" fill="none" stroke="black"/>
<path d="M238.582,38.7963v -7.46952" fill="none" stroke="black"/>
<path d="M256.721,38.7963v -7.46952" fill="none" stroke="black"/>
<path d="M274.86,38.7963v -7.46952" fill="none" stroke="black"/>
<path d="M292.999,38.7963v -7.46952" fill="none" stroke="black"/>
<path d="M311.138,38.7963v -7.46952" fill="none" stroke="black"/>
<path d="M329.277,38.7963v -7.46952" fill="none" stroke="black"/>
<path d="M347.415,38.7963v -7.46952" fill="none" stroke="black"/>
<path d="M365.554,38.7963v -7.46952" fill="none" stroke="black"/>
<path d="M383.693,38.7963v -7.46952" fill="none" stroke="black"/>
<path d="M401.832,38.7963v -7.46952" fill="none" stroke="black"/>
<path d="M419.971,38.7963v -7.46952" fill="none" stroke="black"/>
<path d="M438.11,38.7963v -7.46952" fill="none" stroke="black"/>
<path d="M456.249,38.7963v -7.46952" fill="none" stroke="black"/>
<path d="M474.388,38.7963v -7.46952" fill="none" stroke="black"/>
<path d="M492.527,38.7963v -7.46952" fill="none" stroke="black"/>
<path d="M510.666,38.7963v -7.46952" fill="none" stroke="black"/></svg>
