<?xml version="1.0" standalone="no"?>
<svg width="567.429" height="311.778" viewBox="0 0 567.429 311.778" xmlns="http://www.w3.org/2000/svg" shape-rendering="crispEdges">
<title>
Yields/P1/det-2/run_0103_Fit.svg
</title>
<desc>
Creator: ROOT Version 6.12/06
CreationDate: Mon Apr 15 10:29:02 2019</desc>
<defs>
</defs>
<rect x="0.5" y="0" width="566.929" height="311.278" fill="white"/>
<rect x="57.1929" y="31.1278" width="453.543" height="249.023" fill="white"/>
<rect x="57.1929" y="31.1278" width="453.543" height="249.023" fill="none" stroke="black"/>
<rect x="57.1929" y="31.1278" width="453.543" height="249.023" fill="white"/>
<rect x="57.1929" y="31.1278" width="453.543" height="249.023" fill="none" stroke="black"/>
<path d="M57.1929,40.7707h 0.181345v 239.38h 30.1032v -10.4586h 0.181345v 10.4586h 0.906724v -20.9173h 0.36269v -10.4586h 0.181345v -15.2637h 0.181345v -9.02054h 0.181345v -19.7409h 0.181345v -7.91019h 0.181345v -4.46096h 0.181345v -5.06407h
 0.181345v -5.03097h 0.181345v 0.372578h 0.181345v -2.31244h 0.181345v -0.320195h 0.181345v -2.47791h 0.36269v -0.753769h 0.181345v -1.54813h 0.181345v -0.0288226h 0.181345v -0.341644h 0.181345v -0.579872h 0.181345v -0.970411h 0.181345v 0.464302h
 0.181345v 0.157998h 0.181345v -1.36573h 0.181345v 0.0970333h 0.181345v -0.45545h 0.181345v -0.442104h 0.181345v 1.09351h 0.181345v -1.29849h 0.181345v 0.909088h 0.181345v -1.44247h 0.181345v 1.34667h 0.181345v -0.767975h 0.181345v 0.344242h
 0.181345v -0.138641h 0.181345v 1.19624h 0.181345v -1.26508h 0.181345v -0.204672h 0.181345v -0.201933h 0.181345v 0.111851h 0.181345v 0.0675107h 0.181345v -0.334573h 0.181345v 1.00324h 0.181345v -2.00596h 0.181345v -0.34688h 0.181345v 2.02634h
 0.181345v -0.228967h 0.181345v 0.461462h 0.181345v -0.0467865h 0.181345v -0.66259h 0.181345v 1.11303h 0.181345v -0.238749h 0.181345v -0.535196h 0.181345v 0.701923h 0.181345v 0.339084h 0.181345v 0.246955h 0.181345v -1.78272h 0.181345v 1.60942h
 0.181345v 0.173292h 0.181345v -0.465811h 0.181345v -0.14416h 0.181345v 1.34988h 0.181345v 0.695698h 0.181345v -1.33568h 0.181345v 0.903781h 0.181345v -1.12769h 0.181345v -0.462057h 0.181345v -0.190395h 0.181345v -2.05319h 0.181345v -0.306482h
 0.181345v -1.89805h 0.181345v -2.41737h 0.181345v -0.842168h 0.181345v -2.16494h 0.181345v -1.7273h 0.181345v -1.05063h 0.181345v -1.59078h 0.181345v -1.0962h 0.181345v 0.493309h 0.181345v -0.354002h 0.181345v 0.488923h 0.181345v 1.31124h 0.181345v
 1.61057h 0.181345v 1.7539h 0.181345v 2.45581h 0.181345v 2.50086h 0.181345v 3.94675h 0.181345v 2.66677h 0.181345v 1.27196h 0.181345v 1.64434h 0.181345v 1.45097h 0.181345v 2.04519h 0.181345v 2.27194h 0.181345v -0.781016h 0.181345v 1.80519h 0.181345v
 -1.98323h 0.181345v 1.63406h 0.181345v 0.0989421h 0.181345v -0.726719h 0.36269v 0.238372h 0.181345v -0.658175h 0.181345v 0.658175h 0.181345v -0.473036h 0.181345v 1.56906h 0.181345v 0.633182h 0.181345v 0.548738h 0.181345v -1.07822h 0.181345v
 0.368676h 0.181345v 0.214788h 0.181345v -2.4873h 0.181345v 1.1429h 0.181345v 1.39857h 0.181345v -0.48074h 0.181345v 1.37514h 0.181345v -2.04357h 0.181345v -0.494753h 0.181345v 0.74835h 0.181345v 1.84768h 0.181345v -2.10127h 0.181345v 0.563647h
 0.181345v -0.46272h 0.181345v -0.30078h 0.181345v 2.18594h 0.181345v -0.945085h 0.181345v 0.773945h 0.181345v 0.756043h 0.181345v -0.236689h 0.181345v 1.41463h 0.181345v -1.47323h 0.181345v 1.40889h 0.181345v 0.390245h 0.181345v 0.0660335h 0.181345v
 0.470507h 0.181345v -0.404184h 0.181345v -0.840269h 0.181345v 0.642166h 0.181345v 0.602287h 0.181345v -0.667747h 0.181345v 0.397092h 0.181345v -0.527167h 0.181345v 1.56817h 0.181345v 0.437382h 0.181345v 0.758382h 0.181345v -3.82652h 0.181345v
 2.70277h 0.181345v -0.842374h 0.181345v -0.602287h 0.181345v 0.947579h 0.181345v 2.33757h 0.181345v -3.35061h 0.181345v -0.323109h 0.181345v 2.57302h 0.181345v 0.0760134h 0.181345v -2.12868h 0.181345v 2.5146h 0.181345v -1.20172h 0.181345v 0.218153h
 0.181345v 2.37483h 0.181345v -2.07897h 0.181345v -0.941082h 0.181345v 0.0703434h 0.181345v 0.648298h 0.181345v -0.996781h 0.181345v 1.21922h 0.181345v 0.301783h 0.181345v -0.8158h 0.181345v 0.439506h 0.181345v -0.866571h 0.181345v 1.78596h 0.181345v
 -0.235152h 0.181345v 1.9041h 0.181345v -1.82613h 0.181345v -0.61282h 0.181345v -0.370746h 0.181345v 0.905589h 0.181345v -1.69052h 0.181345v 0.639143h 0.181345v 2.52062h 0.181345v -0.170495h 0.181345v -1.90847h 0.181345v 1.49048h 0.181345v 0.935369h
 0.181345v -2.50036h 0.181345v -1.61945h 0.181345v 2.85818h 0.181345v -0.319348h 0.181345v -1.28653h 0.181345v 0.292992h 0.181345v -1.74428h 0.36269v 4.40676h 0.181345v -1.43008h 0.181345v -2.44014h 0.181345v -1.18145h 0.181345v 1.11333h 0.181345v
 -0.269447h 0.181345v 0.201633h 0.181345v -2.14114h 0.181345v 2.97575h 0.181345v -1.23521h 0.181345v -1.20267h 0.181345v 2.72666h 0.181345v -0.145084h 0.181345v 2.08717h 0.181345v -1.64767h 0.181345v 1.81439h 0.181345v -3.02784h 0.181345v 2.94425h
 0.181345v 0.682088h 0.181345v -0.0869664h 0.181345v 1.94066h 0.181345v -2.61891h 0.181345v 0.678255h 0.181345v -1.64169h 0.181345v 2.35187h 0.181345v -0.270251h 0.181345v -0.0890187h 0.181345v -0.862442h 0.181345v 3.6846h 0.181345v -3.17307h
 0.181345v -0.678255h 0.181345v 4.3961h 0.181345v -4.22937h 0.181345v 1.58975h 0.181345v 1.16124h 0.181345v -1.06781h 0.181345v 1.7889h 0.181345v -2.87358h 0.181345v -0.765221h 0.181345v 2.22951h 0.181345v -2.39441h 0.181345v 3.08261h 0.181345v
 -1.70997h 0.181345v 2.2215h 0.181345v -1.29553h 0.181345v -0.0951967h 0.181345v -0.740695h 0.181345v -0.0900816h 0.181345v -0.355043h 0.181345v -0.685965h 0.181345v 1.22171h 0.181345v 0.27518h 0.181345v 0.662303h 0.181345v -0.937483h 0.181345v
 0.745269h 0.181345v -1.54192h 0.181345v 0.526401h 0.181345v -0.352966h 0.181345v -1.65067h 0.181345v -0.687702h 0.181345v 0.301783h 0.181345v 0.701923h 0.181345v -1.00371h 0.181345v -1.15017h 0.181345v -1.82326h 0.181345v 3.50557h 0.181345v
 -2.02447h 0.181345v 0.978309h 0.181345v 0.968985h 0.181345v -0.153185h 0.181345v 0.622299h 0.181345v 0.0796235h 0.181345v 2.04906h 0.181345v -0.714388h 0.181345v -2.56082h 0.181345v 3.45921h 0.181345v 0.955295h 0.36269v -1.58975h 0.181345v 2.29637h
 0.181345v -0.804917h 0.181345v 1.54626h 0.181345v -2.94869h 0.181345v 3.27791h 0.181345v 0.336563h 0.181345v -1.81495h 0.181345v 2.51147h 0.181345v -4.04074h 0.181345v 0.0911702h 0.181345v 1.4381h 0.181345v 0.826981h 0.181345v 0.214027h 0.181345v
 -1.4381h 0.181345v 0.599627h 0.181345v -0.202535h 0.181345v 0.100928h 0.181345v 2.77125h 0.181345v -3.17097h 0.36269v -0.195959h 0.181345v 0.697288h 0.181345v -1.08173h 0.181345v 1.60029h 0.36269v 1.67204h 0.181345v -2.69193h 0.181345v 0.810322h
 0.181345v 1.07822h 0.181345v -0.86865h 0.181345v -0.721095h 0.181345v 1.81495h 0.181345v -2.30971h 0.181345v -0.193447h 0.181345v 2.05605h 0.181345v -0.856322h 0.181345v -0.206697h 0.181345v -0.799584h 0.181345v 0.595681h 0.181345v -0.30078h
 0.181345v 0.920948h 0.181345v -1.01989h 0.181345v -0.195959h 0.181345v -0.759336h 0.181345v 1.87004h 0.181345v -1.68376h 0.181345v 0.769013h 0.181345v -0.0982976h 0.181345v -0.0976613h 0.181345v 0.799584h 0.181345v 0.102994h 0.181345v 0.208122h
 0.181345v 0.317667h 0.181345v -1.13347h 0.181345v 0.402387h 0.181345v 2.54845h 0.181345v -2.34316h 0.181345v -0.407825h 0.181345v -2.49739h 0.181345v 1.2433h 0.181345v 0.280292h 0.181345v 1.48533h 0.181345v -2.2215h 0.181345v 0.642166h 0.181345v
 -0.731713h 0.181345v 1.59967h 0.181345v -0.961384h 0.181345v -0.903781h 0.181345v 1.37682h 0.181345v -1.20034h 0.181345v -1.02917h 0.181345v 1.75647h 0.181345v 0.377235h 0.181345v 0.784001h 0.181345v -0.973797h 0.181345v -0.914742h 0.181345v
 1.78828h 0.181345v 2.25945h 0.181345v -2.35905h 0.181345v 1.24086h 0.181345v -0.633182h 0.181345v -0.999612h 0.181345v 3.58614h 0.181345v -2.48282h 0.181345v -0.511528h 0.181345v 0.615948h 0.181345v -0.51502h 0.181345v -0.399722h 0.181345v 3.66572h
 0.181345v -2.9591h 0.181345v 1.521h 0.181345v -0.670716h 0.181345v 1.49287h 0.181345v -0.707409h 0.181345v 1.44962h 0.181345v -0.742213h 0.181345v -1.38313h 0.181345v 1.6265h 0.181345v -0.835157h 0.181345v 1.334h 0.181345v -0.98172h 0.181345v
 -0.582645h 0.181345v 1.6917h 0.181345v 1.19708h 0.181345v -0.676733h 0.181345v -1.86516h 0.181345v 1.86516h 0.181345v 1.38525h 0.181345v 0.591787h 0.181345v 0.615948h 0.181345v -5.80024h 0.181345v 0.768314h 0.181345v 1.29242h 0.181345v 2.10268h
 0.181345v -0.553773h 0.181345v -2.38407h 0.181345v 2.79748h 0.181345v -1.07822h 0.181345v -2.0635h 0.181345v 4.4546h 0.181345v -4.67981h 0.181345v 4.37803h 0.181345v -1.95868h 0.181345v 2.10882h 0.181345v -2.62472h 0.181345v -0.37567h 0.181345v
 1.29041h 0.181345v 1.70997h 0.181345v 0.615948h 0.181345v -3.61633h 0.181345v 1.83915h 0.181345v -1.83915h 0.181345v 2.12119h 0.181345v 1.97419h 0.181345v -2.39529h 0.181345v -1.06867h 0.181345v 1.77718h 0.181345v -1.51703h 0.181345v 2.5684h
 0.181345v -2.95697h 0.181345v 2.64903h 0.181345v -1.03084h 0.181345v 0.287411h 0.181345v -0.287411h 0.181345v -1.997h 0.181345v 3.65014h 0.181345v -0.924082h 0.181345v 0.454968h 0.181345v 0.953283h 0.181345v -1.99429h 0.181345v 0.58604h 0.181345v
 -2.60084h 0.181345v 4.34073h 0.181345v -3.43384h 0.181345v 1.8441h 0.181345v 0.615948h 0.181345v -3.36693h 0.181345v 3.05581h 0.181345v 2.32592h 0.181345v -4.06885h 0.181345v 0.701923h 0.181345v 0.437382h 0.181345v -1.1393h 0.181345v 0.701923h
 0.181345v -0.838473h 0.181345v 1.12865h 0.181345v 2.20434h 0.181345v 0.342938h 0.181345v -4.47024h 0.181345v 2.98492h 0.181345v -4.22238h 0.181345v 2.72724h 0.181345v 0.580403h 0.181345v 1.55691h 0.181345v -1.8499h 0.181345v -1.51703h 0.181345v
 1.81002h 0.181345v -0.580403h 0.181345v 1.81281h 0.181345v -1.08375h 0.181345v 2.42585h 0.181345v -1.0176h 0.181345v -1.70412h 0.181345v -1.26397h 0.181345v 0.830776h 0.181345v -0.421105h 0.181345v 1.45195h 0.181345v 0.943346h 0.181345v -0.943346h
 0.181345v 0.943346h 0.181345v -1.83117h 0.181345v 2.15919h 0.181345v -0.164905h 0.181345v -1.70412h 0.181345v 1.86902h 0.181345v -0.807071h 0.181345v -1.49515h 0.181345v -0.141678h 0.181345v 0.574874h 0.181345v 0.147207h 0.181345v -0.437382h
 0.181345v 0.736176h 0.181345v 1.42302h 0.181345v -3.9204h 0.181345v 2.34725h 0.181345v -3.21679h 0.181345v 1.65696h 0.181345v 3.81125h 0.181345v -4.21009h 0.181345v -0.89157h 0.181345v 0.124187h 0.181345v 0.636745h 0.181345v -2.72929h 0.181345v
 0.21868h 0.181345v -0.109736h 0.181345v -0.217106h 0.181345v -2.57028h 0.181345v 1.6302h 0.181345v -0.692714h 0.181345v -1.82011h 0.181345v 2.31164h 0.181345v 0.201185h 0.181345v -1.26216h 0.36269v -2.32592h 0.181345v 3.99869h 0.181345v -2.40007h
 0.181345v -0.176477h 0.181345v -1.0176h 0.181345v -0.324499h 0.181345v 1.08119h 0.181345v 0.979547h 0.181345v -1.23602h 0.181345v -0.82472h 0.181345v -1.08375h 0.181345v 2.87097h 0.181345v 1.72082h 0.181345v -1.90045h 0.181345v -0.439933h 0.181345v
 -0.086468h 0.181345v 1.25811h 0.181345v -1.25811h 0.181345v 0.796652h 0.181345v -1.13765h 0.181345v 1.04703h 0.181345v -0.962499h 0.181345v 0.517375h 0.181345v 0.0879806h 0.181345v 0.267062h 0.181345v -0.089547h 0.181345v -2.23637h 0.181345v
 -0.896618h 0.181345v -0.14439h 0.181345v -1.76121h 0.181345v -1.40319h 0.181345v -0.959226h 0.181345v -0.850288h 0.181345v -1.7542h 0.181345v 0.706305h 0.36269v -1.77183h 0.181345v -0.170495h 0.181345v -2.35012h 0.181345v 1.05137h 0.181345v
 -0.684236h 0.181345v -0.47556h 0.181345v -0.285373h 0.181345v 0.613003h 0.181345v 1.02787h 0.36269v 1.57662h 0.181345v 0.220276h 0.181345v 0.45044h 0.181345v 0.798029h 0.181345v -0.380806h 0.181345v 1.95449h 0.181345v 2.24588h 0.181345v 2.71377h
 0.181345v -0.936588h 0.181345v 1.54325h 0.181345v 1.54682h 0.181345v 1.82011h 0.181345v -0.846313h 0.181345v 0.558902h 0.181345v 0.778941h 0.181345v 1.03387h 0.181345v -0.106634h 0.36269v 0.987972h 0.181345v -0.556839h 0.181345v 2.36241h 0.181345v
 0.128415h 0.181345v -1.93399h 0.181345v 3.00265h 0.181345v -1.70008h 0.181345v -1.4156h 0.181345v 3.11568h 0.181345v -0.409671h 0.181345v 0.689098h 0.181345v -2.10268h 0.181345v 2.24436h 0.181345v -2.72724h 0.181345v 2.87026h 0.181345v -1.88854h
 0.181345v -0.98172h 0.181345v 1.76234h 0.181345v 1.25231h 0.181345v -1.64767h 0.181345v 1.50328h 0.181345v -2.14002h 0.181345v 1.0321h 0.181345v 0.543793h 0.181345v -2.18685h 0.181345v 3.48716h 0.181345v 0.459588h 0.181345v -2.5684h 0.181345v
 1.51703h 0.181345v -1.77718h 0.181345v -0.997959h 0.181345v 1.92883h 0.181345v -3.09007h 0.36269v 2.03078h 0.181345v -1.34482h 0.181345v 2.4041h 0.181345v 0.276863h 0.181345v -0.276863h 0.181345v -0.405996h 0.181345v -1.40164h 0.181345v 1.67109h
 0.181345v -0.269447h 0.181345v -1.88068h 0.181345v 1.10006h 0.181345v 2.17871h 0.181345v -1.12865h 0.181345v 0.982862h 0.181345v 0.896618h 0.181345v 0.311117h 0.181345v -0.311117h 0.181345v 0.154756h 0.181345v -2.30368h 0.181345v 1.25231h 0.181345v
 -0.708516h 0.181345v 0.279427h 0.181345v 1.79482h 0.181345v -0.924082h 0.181345v 0.609724h 0.181345v 0.15636h 0.181345v 0.479044h 0.181345v -1.83117h 0.181345v 0.887822h 0.181345v 1.94963h 0.181345v -0.843159h 0.181345v 0.843159h 0.181345v -2.10127h
 0.181345v -1.3003h 0.181345v 0.139067h 0.181345v -0.139067h 0.181345v -1.32441h 0.181345v 4.55355h 0.36269v -3.90587h 0.181345v 1.09784h 0.181345v 2.98047h 0.181345v -1.00628h 0.181345v 1.53576h 0.181345v -2.32592h 0.181345v -1.32571h 0.181345v
 1.32571h 0.181345v 0.469114h 0.181345v -0.469114h 0.181345v 0.469114h 0.181345v 0.159669h 0.181345v 1.51857h 0.181345v -3.33138h 0.181345v 3.87355h 0.181345v -0.182895h 0.181345v -0.710184h 0.181345v 0.350914h 0.181345v -0.862442h 0.181345v
 -1.13016h 0.181345v 0.314358h 0.181345v 1.85681h 0.181345v -2.17117h 0.181345v 3.88114h 0.181345v 2.39313h 0.181345v -7.61306h 0.181345v 1.33879h 0.181345v 1.64169h 0.181345v -6.62944h 0.181345v 2.81819h 0.181345v 0.409671h 0.181345v -3.11568h
 0.181345v -1.90178h 0.181345v -0.679345h 0.181345v -2.92396h 0.181345v 0.720549h 0.181345v -3.43239h 0.181345v -0.45044h 0.181345v -2.0148h 0.181345v -2.21457h 0.181345v 0.0961062h 0.181345v 0.740998h 0.181345v -0.837104h 0.181345v -2.8306h
 0.181345v 0.0397592h 0.181345v 0.403463h 0.181345v 0.754588h 0.181345v -0.997959h 0.36269v 0.121194h 0.181345v -0.712981h 0.181345v 2.42945h 0.181345v 0.650072h 0.181345v 2.30222h 0.181345v 0.911288h 0.181345v 0.537869h 0.181345v -1.33821h 0.181345v
 2.15063h 0.181345v 2.06074h 0.181345v 1.14652h 0.181345v 3.66771h 0.36269v 4.99611h 0.181345v -0.82322h 0.181345v 2.46004h 0.181345v -1.06195h 0.181345v 2.20434h 0.181345v 5.94932h 0.181345v -4.15093h 0.181345v 0.784001h 0.181345v 3.87846h 0.181345v
 1.07822h 0.181345v -3.02784h 0.181345v 3.02784h 0.181345v -1.33615h 0.181345v 4.08713h 0.181345v 1.77718h 0.181345v -3.36693h 0.181345v 0.615948h 0.181345v -0.914742h 0.36269v -1.1393h 0.181345v 6.81983h 0.181345v -2.38738h 0.181345v 1.14652h
 0.181345v 1.24086h 0.181345v -3.79199h 0.181345v 0.339084h 0.181345v -2.52062h 0.181345v 1.8499h 0.181345v 2.49083h 0.181345v -3.44411h 0.181345v 0.953283h 0.181345v 4.561h 0.181345v -3.89029h 0.181345v -1.92883h 0.181345v 1.58975h 0.181345v
 1.77718h 0.181345v -1.4381h 0.181345v 3.4529h 0.181345v -5.0769h 0.181345v 5.51429h 0.181345v -4.561h 0.181345v -4.50385h 0.181345v 0.494753h 0.181345v 4.0091h 0.181345v 4.561h 0.181345v -5.81912h 0.181345v 5.38173h 0.181345v -2.38738h 0.181345v
 -6.24009h 0.181345v 0.74835h 0.36269v 1.61819h 0.181345v 5.83587h 0.181345v -5.25547h 0.181345v 1.88854h 0.181345v -2.18153h 0.181345v 7.32564h 0.181345v -5.47574h 0.181345v 0.331631h 0.181345v -0.973797h 0.181345v 1.31288h 0.181345v -4.67981h
 0.181345v 2.45219h 0.181345v 2.92955h 0.181345v -5.38173h 0.181345v 0.253596h 0.181345v 6.24633h 0.181345v -6.74933h 0.181345v 0.760932h 0.181345v 1.64767h 0.181345v -2.15919h 0.181345v -1.665h 0.181345v 3.8242h 0.181345v -0.56945h 0.181345v
 1.16124h 0.181345v -0.591787h 0.181345v -2.89537h 0.181345v -0.471558h 0.181345v 5.21683h 0.181345v -3.49757h 0.181345v 4.51516h 0.181345v -3.15491h 0.36269v 1.18403h 0.181345v -1.18403h 0.181345v -1.36026h 0.181345v 2.23945h 0.181345v -1.70997h
 0.181345v 3.6388h 0.181345v -1.31288h 0.181345v -1.20773h 0.181345v 3.95872h 0.181345v -0.736176h 0.181345v 4.58215h 0.181345v -7.2129h 0.181345v 2.63075h 0.181345v -2.63075h 0.181345v 1.25811h 0.181345v -2.69621h 0.181345v 2.69621h 0.181345v
 -1.55691h 0.181345v 3.29315h 0.36269v -3.29315h 0.181345v 0.298794h 0.36269v 6.26956h 0.181345v -4.67981h 0.181345v 0.339084h 0.36269v -1.92883h 0.181345v -1.70997h 0.181345v -0.787411h 0.181345v 3.11333h 0.181345v 0.317667h 0.181345v -3.17307h
 0.181345v -0.511528h 0.181345v 8.13272h 0.181345v -4.12362h 0.181345v -0.324499h 0.181345v 0.995215h 0.181345v 0.701923h 0.181345v -2.32592h 0.181345v 2.32592h 0.181345v -2.0148h 0.181345v -0.311117h 0.181345v -2.0148h 0.181345v 3.98568h 0.181345v
 1.47323h 0.181345v -1.47323h 0.181345v -1.3421h 0.181345v 0.324499h 0.181345v -0.324499h 0.181345v -3.431h 0.181345v 1.05929h 0.181345v 4.80503h 0.181345v 0.382011h 0.181345v -2.15919h 0.181345v 0.685965h 0.181345v -1.0176h 0.181345v 1.73624h
 0.181345v -0.363599h 0.181345v -1.69714h 0.181345v -1.23241h 0.181345v 0.298794h 0.181345v 5.81912h 0.181345v -5.51429h 0.181345v 0.953283h 0.181345v 0.670716h 0.181345v 3.02784h 0.181345v -4.65184h 0.181345v 3.0621h 0.181345v -2.10882h 0.181345v
 0.331631h 0.181345v -2.46894h 0.181345v 3.15491h 0.181345v -2.27571h 0.181345v 0.933615h 0.181345v -2.64359h 0.181345v 2.32592h 0.181345v 3.52493h 0.181345v -0.391934h 0.181345v 4.47024h 0.181345v -6.96107h 0.36269v 6.44954h 0.181345v -1.88854h
 0.181345v -3.89029h 0.181345v -0.995215h 0.181345v 4.44812h 0.181345v 0.437382h 0.181345v 1.88854h 0.181345v -4.34073h 0.181345v 2.45219h 0.181345v -0.862442h 0.181345v 0.42506h 0.36269v -5.0769h 0.181345v 8.44383h 0.181345v 0.548738h 0.181345v
 -1.07822h 0.181345v -5.58843h 0.181345v -0.701923h 0.181345v 6.81983h 0.181345v -2.0148h 0.181345v 1.48533h 0.181345v 0.52948h 0.181345v -1.04101h 0.181345v 6.11791h 0.181345v -2.75098h 0.181345v -1.20773h 0.181345v -3.59729h 0.181345v 6.11791h
 0.181345v 1.4381h 0.181345v -3.36693h 0.181345v -0.591787h 0.181345v 3.22254h 0.181345v 3.18836h 0.181345v -5.20317h 0.181345v 3.52493h 0.181345v 8.24659h 0.181345v -14.0974h 0.181345v 8.44383h 0.181345v -4.10311h 0.544034v -0.701923h 0.181345v
 2.21204h 0.181345v -1.51012h 0.181345v 2.32592h 0.181345v -1.58975h 0.181345v 3.36693h 0.181345v -5.47574h 0.181345v 4.561h 0.181345v 5.25547h 0.181345v -6.11791h 0.181345v 2.75098h 0.181345v -1.88854h 0.181345v 6.56835h 0.181345v -5.65361h
 0.181345v 3.13299h 0.181345v -1.11819h 0.181345v 1.11819h 0.181345v -2.15919h 0.181345v 9.48484h 0.181345v -9.48484h 0.181345v -1.88854h 0.181345v 1.88854h 0.36269v -6.44954h 0.181345v 17.9492h 0.181345v -15.8404h 0.181345v 1.58975h 0.181345v
 8.86889h 0.181345v -5.0769h 0.181345v 5.0769h 0.181345v -7.09171h 0.36269v 8.68145h 0.181345v -4.34073h 0.181345v -2.32592h 0.181345v -3.79199h 0.181345v 1.77718h 0.181345v 0.973797h 0.181345v 13.8256h 0.181345v -12.7846h 0.181345v 1.11819h
 0.181345v 1.20773h 0.181345v -3.36693h 0.181345v 6.11791h 0.181345v -3.95872h 0.181345v 3.95872h 0.181345v -3.95872h 0.181345v 2.52062h 0.181345v 9.14575h 0.181345v -4.34073h 0.181345v -6.11791h 0.181345v -1.20773h 0.181345v -4.91018h 0.181345v
 4.91018h 0.181345v -7.93802h 0.181345v 4.80503h 0.181345v 5.65361h 0.181345v -4.67981h 0.181345v -6.44954h 0.181345v 4.561h 0.36269v 0.914742h 0.181345v -1.77718h 0.181345v 0.862442h 0.181345v 0.914742h 0.181345v -6.73386h 0.181345v 6.73386h
 0.181345v -4.80503h 0.181345v -2.52062h 0.181345v 1.20773h 0.181345v 0.642166h 0.181345v 3.69856h 0.181345v 1.77718h 0.181345v -1.77718h 0.181345v -1.58975h 0.36269v -6.11791h 0.181345v 5.38173h 0.181345v -3.22254h 0.181345v 4.73266h 0.181345v
 -2.88276h 0.181345v -0.642166h 0.181345v 5.20317h 0.181345v -5.81912h 0.181345v 4.95667h 0.181345v 4.91018h 0.181345v -6.49992h 0.181345v 10.4586h 0.181345v -1.4381h 0.181345v 1.4381h 0.181345v 3.36693h 0.181345v -18.3537h 0.181345v 7.89509h
 0.181345v 10.4586h 0.181345v -9.48484h 0.181345v -0.973797h 0.181345v 2.0148h 0.181345v -2.92955h 0.181345v 4.04773h 0.181345v -7.2361h 0.181345v 6.11791h 0.181345v 3.6388h 0.181345v -4.67981h 0.181345v -8.29944h 0.181345v -1.11819h 0.181345v
 -4.99972h 0.181345v 3.95872h 0.181345v -3.16439h 0.181345v -3.28515h 0.181345v -2.96809h 0.181345v 1.41118h 0.181345v -1.41118h 0.181345v -1.04101h 0.181345v -3.36693h 0.181345v -1.16124h 0.181345v -3.02784h 0.181345v -1.72629h 0.181345v 0.553773h
 0.181345v 0.141678h 0.181345v -1.48977h 0.181345v -0.255746h 0.181345v -0.37567h 0.181345v 0.124187h 0.181345v -3.54051h 0.181345v -2.61891h 0.181345v 0.765221h 0.181345v -0.25941h 0.181345v 0.973797h 0.181345v -4.06386h 0.181345v 3.09007h 0.181345v
 -0.255025h 0.181345v -2.04638h 0.181345v -0.648298h 0.181345v 1.24892h 0.181345v -1.17825h 0.181345v 1.33221h 0.181345v -2.02447h 0.181345v 1.34367h 0.181345v -0.36536h 0.181345v 0.439506h 0.181345v -1.41781h 0.181345v 0.34216h 0.181345v -1.38768h
 0.181345v 0.448527h 0.181345v -0.945317h 0.181345v -1.62026h 0.181345v 1.19859h 0.181345v -1.68449h 0.181345v -1.07639h 0.181345v 0.554235h 0.181345v 0.898713h 0.181345v -1.98754h 0.181345v 1.0376h 0.181345v -0.453449h 0.181345v 1.62287h 0.181345v
 -1.22048h 0.181345v 3.48206h 0.181345v -1.23241h 0.181345v 0.118809h 0.181345v 0.795933h 0.181345v 2.23191h 0.181345v -0.781233h 0.181345v 0.854301h 0.181345v 1.62233h 0.181345v -1.32647h 0.181345v 4.39061h 0.181345v 2.61173h 0.181345v -0.582645h
 0.181345v 6.11791h 0.181345v -6.11791h 0.181345v 5.6121h 0.181345v 3.74469h 0.181345v 0.431133h 0.181345v 0.220276h 0.181345v 0.223539h 0.181345v 4.41598h 0.181345v 3.74894h 0.181345v -4.62814h 0.181345v 4.24613h 0.181345v 7.09171h 0.181345v
 4.14087h 0.181345v -6.89186h 0.181345v 6.11791h 0.181345v -0.736176h 0.181345v 6.11791h 0.181345v 6.66665h 0.181345v 1.77718h 0.181345v -12.2358h 0.181345v 0.862442h 0.181345v 9.5962h 0.181345v 3.79199h 0.36269v -2.0148h 0.181345v -8.44383h
 0.181345v 12.7846h 0.181345v 2.75098h 0.181345v -7.09171h 0.181345v 31.3759h 0.181345v -27.0352h 0.181345v -2.32592h 0.181345v 5.0769h 0.181345v -8.86889h 0.181345v 16.5765h 0.181345v -4.34073h 0.181345v -8.44383h 0.181345v 5.0769h 0.181345v
 3.36693h 0.181345v -3.36693h 0.36269v 3.36693h 0.181345v 10.4586h 0.181345v -10.4586h 0.181345v 10.4586h 0.181345v -16.5765h 0.181345v 10.4586h 0.181345v -4.34073h 0.181345v 10.4586h 0.181345v -13.8256h 0.36269v -5.0769h 0.181345v 8.44383h 0.36269v
 4.34073h 0.36269v 6.11791h 0.181345v -10.4586h 0.36269v -3.36693h 0.181345v 24.2842h 0.181345v -10.4586h 0.181345v -10.4586h 0.181345v -6.11791h 0.181345v 27.0352h 0.181345v -16.5765h 0.36269v 6.11791h 0.181345v 10.4586h 0.181345v -20.9173h
 0.181345v 4.34073h 0.181345v 16.5765h 0.181345v -20.9173h 0.181345v 20.9173h 0.181345v -27.0352h 0.181345v 2.75098h 0.181345v 7.70766h 0.181345v -7.70766h 0.181345v 3.36693h 0.181345v 10.4586h 0.181345v -6.11791h 0.36269v -4.34073h 0.181345v
 31.3759h 0.181345v -37.4938h 0.181345v 16.5765h 0.181345v -18.9025h 0.181345v 2.32592h 0.181345v 10.4586h 0.36269v 16.5765h 0.181345v -16.5765h 0.181345v -7.70766h 0.181345v -2.75098h 0.36269v -2.32592h 0.181345v 8.44383h 0.181345v 10.4586h
 0.181345v -6.11791h 0.36269v -4.34073h 0.181345v 10.4586h 0.181345v -13.8256h 0.181345v -5.0769h 0.181345v 12.7846h 0.181345v -10.4586h 0.181345v 2.75098h 0.181345v -8.86889h 0.181345v 1.77718h 0.181345v -3.36693h 0.181345v -2.75098h 0.181345v
 2.75098h 0.36269v 3.36693h 0.181345v 10.4586h 0.181345v -10.4586h 0.181345v -3.36693h 0.181345v 3.36693h 0.181345v -3.36693h 0.181345v 1.58975h 0.181345v 6.11791h 0.181345v -4.34073h 0.181345v -3.36693h 0.181345v 3.36693h 0.181345v 7.09171h
 0.181345v -8.86889h 0.181345v 6.11791h 0.181345v -2.32592h 0.181345v -3.79199h 0.181345v -1.58975h 0.181345v 10.4586h 0.181345v -5.0769h 0.181345v -9.34045h 0.181345v 3.95872h 0.181345v 7.70766h 0.181345v 6.11791h 0.181345v -6.11791h 0.181345v
 -4.34073h 0.36269v 10.4586h 0.181345v 4.34073h 0.181345v -10.4586h 0.181345v 10.4586h 0.181345v 6.11791h 0.181345v -16.5765h 0.181345v 10.4586h 0.181345v -7.70766h 0.181345v 3.36693h 0.181345v 4.34073h 0.181345v 6.11791h 0.181345v -6.11791h
 0.181345v -4.34073h 0.36269v 4.34073h 0.181345v -4.34073h 0.181345v 10.4586h 0.181345v -13.8256h 0.181345v 13.8256h 0.181345v 20.9173h 0.181345v -31.3759h 0.181345v 20.9173h 0.181345v -16.5765h 0.181345v -4.34073h 0.181345v 4.34073h 0.36269v
 27.0352h 0.181345v -27.0352h 0.181345v 6.11791h 0.544034v -10.4586h 0.181345v -6.11791h 0.181345v 2.75098h 0.181345v 7.70766h 0.181345v -7.70766h 0.181345v 7.70766h 0.181345v 6.11791h 0.181345v -20.9173h 0.181345v 41.8345h 0.181345v -31.3759h
 0.181345v 4.34073h 0.181345v -10.4586h 0.181345v 2.75098h 0.181345v 13.8256h 0.181345v 20.9173h 0.181345v -20.9173h 0.181345v -6.11791h 0.36269v 6.11791h 0.906724v 10.4586h 0.181345v -10.4586h 0.181345v -13.8256h 0.36269v 13.8256h 0.181345v
 -16.5765h 0.181345v 16.5765h 0.181345v -10.4586h 0.181345v -12.2358h 0.181345v -4.34073h 0.181345v 6.11791h 0.36269v 10.4586h 0.181345v 4.34073h 0.36269v -18.1663h 0.181345v 34.7428h 0.181345v -20.9173h 0.181345v 4.34073h 0.181345v -10.4586h
 0.181345v -4.34073h 0.181345v 10.4586h 0.36269v -8.44383h 0.36269v -2.0148h 0.181345v 4.34073h 0.181345v -7.70766h 0.181345v -1.4381h 0.181345v 4.80503h 0.181345v 4.34073h 0.181345v 2.75098h 0.181345v -5.0769h 0.181345v 12.7846h 0.181345v -20.9173h
 0.181345v 16.5765h 0.181345v -8.44383h 0.181345v -6.81983h 0.181345v 3.02784h 0.181345v 6.11791h 0.181345v -4.34073h 0.181345v 10.4586h 0.181345v -10.4586h 0.181345v 2.0148h 0.181345v 2.32592h 0.36269v 6.11791h 0.181345v 4.34073h 0.181345v -10.4586h
 0.181345v -2.32592h 0.181345v 2.32592h 0.181345v 10.4586h 0.181345v -12.7846h 0.181345v 2.32592h 0.181345v 16.5765h 0.36269v -22.6945h 0.181345v 22.6945h 0.181345v -6.11791h 0.181345v -10.4586h 0.36269v -2.32592h 0.181345v 12.7846h 0.181345v
 -14.7994h 0.181345v 4.34073h 0.181345v 10.4586h 0.181345v -16.5765h 0.181345v 6.11791h 0.181345v -6.11791h 0.181345v 22.6945h 0.181345v -10.4586h 0.181345v -8.44383h 0.181345v 2.32592h 0.181345v -2.32592h 0.181345v 5.0769h 0.181345v 3.36693h
 0.181345v -8.44383h 0.36269v 2.32592h 0.181345v -2.32592h 0.181345v 18.9025h 0.181345v -6.11791h 0.181345v -18.1663h 0.181345v 5.38173h 0.181345v 8.44383h 0.181345v -10.4586h 0.36269v -1.77718h 0.181345v 3.79199h 0.181345v -2.0148h 0.181345v
 7.09171h 0.181345v -2.75098h 0.181345v -9.14575h 0.181345v 11.8967h 0.181345v -2.75098h 0.181345v -4.34073h 0.181345v -6.11791h 0.181345v 20.9173h 0.36269v -14.7994h 0.181345v 7.09171h 0.181345v 7.70766h 0.181345v -7.70766h 0.36269v 24.2842h
 0.181345v -33.1531h 0.181345v 12.2358h 0.181345v -3.36693h 0.181345v -7.09171h 0.181345v 2.0148h 0.181345v -2.0148h 0.181345v 2.0148h 0.181345v -3.79199h 0.181345v -3.02784h 0.181345v -2.52062h 0.181345v 11.6664h 0.181345v -4.34073h 0.181345v
 7.09171h 0.181345v -8.86889h 0.181345v -4.34073h 0.181345v 10.4586h 0.36269v -10.4586h 0.181345v 2.75098h 0.181345v -8.00645h 0.181345v 8.00645h 0.36269v -9.68469h 0.181345v 5.72598h 0.181345v -1.11819h 0.544034v 2.32592h 0.181345v 8.13272h
 0.181345v -5.38173h 0.181345v 3.36693h 0.36269v -7.32564h 0.181345v -7.2361h 0.181345v 9.75671h 0.181345v -2.52062h 0.181345v 1.20773h 0.36269v -6.11791h 0.181345v 1.77718h 0.181345v 7.09171h 0.181345v -2.75098h 0.36269v -4.34073h 0.181345v 5.65361h
 0.181345v 3.02784h 0.181345v -4.34073h 0.181345v -1.20773h 0.181345v -4.91018h 0.181345v 7.43079h 0.181345v -5.65361h 0.181345v -0.914742h 0.181345v 11.3734h 0.181345v -9.48484h 0.181345v 9.48484h 0.181345v -4.80503h 0.36269v -3.6388h 0.36269v
 -1.04101h 0.181345v -1.88854h 0.181345v 4.04773h 0.181345v -10.4586h 0.181345v 7.32564h 0.181345v 0.973797h 0.36269v 3.36693h 0.181345v -1.20773h 0.181345v 3.95872h 0.181345v -8.00645h 0.181345v -3.18836h 0.181345v 4.10311h 0.181345v 3.13299h
 0.36269v -4.91018h 0.181345v 14.2506h 0.181345v -17.2785h 0.36269v 10.4586h 0.181345v -1.31288h 0.181345v -1.20773h 0.181345v -6.49992h 0.181345v 3.36693h 0.181345v -0.914742h 0.181345v -2.45219h 0.181345v 7.70766h 0.181345v -4.34073h 0.181345v
 5.65361h 0.181345v -4.67981h 0.36269v -5.0769h 0.181345v 6.11791h 0.181345v -9.9099h 0.181345v 1.77718h 0.181345v 4.34073h 0.181345v 2.75098h 0.181345v -8.86889h 0.181345v 9.9099h 0.181345v -13.8256h 0.181345v 7.00573h 0.181345v -1.31288h 0.181345v
 2.0148h 0.36269v -2.63075h 0.181345v 11.0746h 0.181345v -8.44383h 0.181345v -3.22254h 0.36269v 3.22254h 0.181345v -4.34073h 0.181345v -0.52948h 0.181345v 4.16828h 0.181345v 0.701923h 0.181345v -4.34073h 0.181345v 2.32592h 0.181345v 4.34073h
 0.181345v -10.4586h 0.181345v 2.75098h 0.181345v 1.58975h 0.181345v 4.52817h 0.181345v -2.10882h 0.181345v -4.0091h 0.181345v 1.04101h 0.181345v -2.92955h 0.36269v 0.914742h 0.181345v 4.34073h 0.181345v -2.32592h 0.181345v 3.6388h 0.36269v -2.52062h
 0.181345v 1.20773h 0.181345v -5.69285h 0.181345v 0.437382h 0.181345v 0.914742h 0.36269v 1.48533h 0.181345v 1.07822h 0.181345v 1.16124h 0.181345v -0.591787h 0.181345v 5.54846h 0.181345v -9.5962h 0.181345v 0.914742h 0.181345v 9.54389h 0.181345v
 -11.7345h 0.181345v 3.16439h 0.181345v 0.511528h 0.181345v -0.511528h 0.181345v -0.494753h 0.181345v 2.0845h 0.181345v 3.79199h 0.181345v -2.0148h 0.181345v -0.615948h 0.181345v 5.81912h 0.181345v -6.98035h 0.181345v 1.16124h 0.36269v -0.591787h
 0.36269v 4.73266h 0.36269v -0.773945h 0.181345v 9.02054h 0.181345v -5.65361h 0.181345v -1.77718h 0.181345v -2.32592h 0.181345v 8.44383h 0.181345v -5.25547h 0.181345v 5.25547h 0.181345v -2.32592h 0.181345v -5.38173h 0.181345v 5.38173h 0.181345v
 5.0769h 0.181345v -5.0769h 0.181345v -2.92955h 0.181345v -5.81912h 0.181345v 13.8256h 0.181345v -14.4174h 0.181345v 3.95872h 0.181345v 5.38173h 0.181345v -4.60779h 0.181345v 4.60779h 0.181345v 3.6388h 0.36269v -2.52062h 0.181345v -2.15919h 0.181345v
 -1.88854h 0.181345v 2.92955h 0.181345v -6.11791h 0.181345v 8.44383h 0.36269v -9.81647h 0.181345v 4.561h 0.181345v 5.25547h 0.181345v 10.4586h 0.181345v -13.8256h 0.181345v -3.56678h 0.181345v 3.56678h 0.181345v -3.56678h 0.181345v -2.88276h
 0.181345v 5.47574h 0.181345v 2.0148h 0.36269v -8.13272h 0.181345v 6.11791h 0.181345v -2.59298h 0.181345v 1.67824h 0.181345v 4.04773h 0.181345v -1.11819h 0.181345v -4.60779h 0.181345v 2.59298h 0.181345v -0.914742h 0.181345v 9.5962h 0.181345v
 -3.02784h 0.181345v -1.31288h 0.181345v -2.32592h 0.181345v 6.66665h 0.181345v -7.70766h 0.181345v 2.15919h 0.181345v -5.72598h 0.181345v -0.773945h 0.181345v 3.36693h 0.181345v -2.59298h 0.181345v 1.67824h 0.181345v 4.04773h 0.181345v -7.2361h
 0.181345v 5.0769h 0.181345v 2.15919h 0.181345v -5.72598h 0.181345v 5.72598h 0.181345v -4.04773h 0.181345v -5.20317h 0.181345v 3.52493h 0.181345v 6.93371h 0.181345v 8.13272h 0.181345v -15.0664h 0.181345v 2.59298h 0.544034v -0.914742h 0.36269v
 6.56835h 0.181345v -9.02054h 0.181345v -3.36693h 0.181345v 4.14087h 0.181345v -0.773945h 0.181345v -1.4381h 0.181345v 5.77883h 0.181345v -0.973797h 0.181345v 4.34073h 0.181345v -10.4586h 0.181345v 7.09171h 0.181345v -5.77883h 0.181345v 3.02784h
 0.181345v -3.02784h 0.181345v 1.4381h 0.181345v 2.45219h 0.181345v -3.89029h 0.181345v -2.52062h 0.181345v 2.52062h 0.181345v 0.701923h 0.181345v 7.2361h 0.181345v -4.04773h 0.181345v -3.18836h 0.181345v -0.701923h 0.181345v -1.31288h 0.181345v
 0.642166h 0.181345v -2.96809h 0.181345v 10.4586h 0.181345v -4.60779h 0.181345v 1.67824h 0.181345v 2.92955h 0.181345v -6.81983h 0.181345v 5.77883h 0.36269v -4.34073h 0.181345v 1.58975h 0.181345v -1.58975h 0.181345v -0.736176h 0.181345v 2.32592h
 0.181345v 1.77718h 0.181345v -4.10311h 0.181345v 0.736176h 0.181345v 1.58975h 0.181345v 2.75098h 0.181345v -5.0769h 0.181345v 2.32592h 0.181345v 1.77718h 0.181345v 5.65361h 0.36269v -6.56835h 0.181345v -1.67824h 0.181345v -1.51012h 0.181345v
 -3.22254h 0.181345v 0.591787h 0.181345v 4.14087h 0.181345v 4.60779h 0.181345v -4.60779h 0.181345v -2.21204h 0.181345v 7.93802h 0.181345v -8.60874h 0.181345v 6.44954h 0.181345v -8.86889h 0.181345v 1.77718h 0.181345v 2.75098h 0.181345v 1.58975h
 0.181345v -1.58975h 0.181345v -0.736176h 0.181345v 5.0769h 0.36269v -8.86889h 0.181345v 13.5487h 0.181345v -10.4586h 0.181345v 1.4381h 0.181345v 5.38173h 0.181345v -8.74866h 0.544034v 0.615948h 0.181345v -1.77718h 0.181345v 1.16124h 0.181345v
 -1.16124h 0.36269v 1.16124h 0.181345v 1.25811h 0.181345v -0.642166h 0.181345v 3.52493h 0.181345v -2.88276h 0.181345v -2.41935h 0.181345v -2.0845h 0.181345v 3.24573h 0.181345v 0.615948h 0.181345v -1.77718h 0.181345v -2.0845h 0.181345v 4.50385h
 0.181345v -2.41935h 0.181345v 1.77718h 0.181345v -3.36693h 0.181345v 4.0091h 0.181345v -4.0091h 0.181345v -2.32592h 0.181345v 4.48512h 0.181345v -1.11819h 0.181345v 0.548738h 0.181345v -0.548738h 0.181345v 2.32592h 0.181345v 1.31288h 0.181345v
 4.80503h 0.181345v -4.10311h 0.181345v 3.18836h 0.181345v -2.45219h 0.181345v -1.4381h 0.181345v 0.701923h 0.181345v 6.11791h 0.181345v -2.0148h 0.181345v 5.65361h 0.181345v -6.56835h 0.181345v -3.89029h 0.181345v 3.89029h 0.181345v -3.18836h
 0.181345v 0.736176h 0.181345v 1.58975h 0.181345v 7.43079h 0.181345v -7.43079h 0.181345v 4.91018h 0.181345v -7.2361h 0.544034v 2.32592h 0.181345v 8.86889h 0.181345v -6.11791h 0.36269v 3.36693h 0.181345v 1.31288h 0.181345v -3.6388h 0.181345v 3.6388h
 0.181345v -5.65361h 0.181345v 2.0148h 0.181345v -1.04101h 0.181345v -1.88854h 0.181345v -8.05857h 0.181345v 6.38033h 0.181345v 1.67824h 0.181345v -3.18836h 0.181345v 8.44383h 0.181345v -4.34073h 0.181345v -1.77718h 0.181345v 4.91018h 0.181345v
 -4.04773h 0.181345v -3.18836h 0.181345v 5.0769h 0.181345v -7.70766h 0.181345v 3.36693h 0.181345v -5.0769h 0.181345v 9.41763h 0.181345v -9.94711h 0.181345v 5.60638h 0.181345v -1.4381h 0.181345v 1.4381h 0.36269v -1.4381h 0.181345v -1.92883h 0.181345v
 2.63075h 0.181345v 1.51012h 0.36269v 1.67824h 0.181345v 2.92955h 0.181345v -6.81983h 0.181345v 5.77883h 0.181345v 6.11791h 0.181345v -9.68469h 0.181345v 3.56678h 0.181345v -5.77883h 0.181345v 3.02784h 0.181345v 6.11791h 0.181345v -6.93371h 0.181345v
 2.59298h 0.181345v 7.09171h 0.181345v -5.0769h 0.181345v 3.6388h 0.181345v -2.52062h 0.181345v -3.13299h 0.36269v 5.65361h 0.181345v -9.75671h 0.181345v 7.2361h 0.181345v 1.20773h 0.181345v 4.34073h 0.181345v -5.54846h 0.181345v 5.54846h 0.181345v
 -3.02784h 0.181345v 1.4381h 0.181345v 3.36693h 0.181345v -6.11791h 0.36269v -2.32592h 0.181345v -5.38173h 0.181345v 20.9173h 0.181345v -10.4586h 0.181345v -7.09171h 0.181345v 10.4586h 0.36269v -1.77718h 0.181345v 1.77718h 0.181345v 7.09171h
 0.181345v -8.86889h 0.181345v 3.79199h 0.181345v -3.79199h 0.181345v 1.77718h 0.36269v 4.34073h 0.181345v 10.4586h 0.181345v -7.70766h 0.181345v -5.0769h 0.181345v -2.0148h 0.181345v 4.34073h 0.181345v 10.4586h 0.181345v -12.7846h 0.181345v
 -3.79199h 0.181345v 6.11791h 0.181345v -9.14575h 0.181345v 3.02784h 0.181345v 6.11791h 0.181345v -4.34073h 0.181345v 7.09171h 0.36269v -5.0769h 0.181345v 2.32592h 0.36269v 6.11791h 0.181345v 4.34073h 0.181345v -18.1663h 0.181345v -3.95872h 0.181345v
 2.52062h 0.181345v -1.31288h 0.181345v 2.75098h 0.181345v -6.11791h 0.181345v 6.11791h 0.181345v -2.75098h 0.181345v 8.13272h 0.181345v -6.81983h 0.181345v -4.67981h 0.181345v 1.04101h 0.181345v 15.5355h 0.181345v -13.2096h 0.181345v 4.34073h
 0.181345v -3.02784h 0.181345v 1.4381h 0.181345v 5.38173h 0.181345v -11.4996h 0.181345v 6.11791h 0.181345v 1.58975h 0.181345v 1.77718h 0.181345v -4.80503h 0.181345v 15.2637h 0.181345v -15.2637h 0.181345v -5.65361h 0.181345v 12.4734h 0.181345v
 -6.81983h 0.725379v 1.4381h 0.181345v 7.70766h 0.181345v -10.4586h 0.181345v 2.75098h 0.181345v 3.36693h 0.36269v -7.32564h 0.181345v 1.20773h 0.181345v 4.34073h 0.181345v -4.34073h 0.181345v 2.75098h 0.181345v -8.00645h 0.181345v 11.3734h 0.181345v
 2.0148h 0.181345v -5.38173h 0.36269v -7.09171h 0.181345v -0.914742h 0.181345v 11.3734h 0.181345v -6.11791h 0.181345v 13.2096h 0.181345v -13.2096h 0.181345v 6.11791h 0.181345v -3.36693h 0.181345v 3.36693h 0.181345v 2.0148h 0.181345v -6.81983h
 0.181345v -1.31288h 0.181345v 2.75098h 0.181345v 5.38173h 0.36269v -2.0148h 0.181345v 4.34073h 0.181345v -6.11791h 0.181345v 3.79199h 0.36269v -3.79199h 0.181345v -1.58975h 0.181345v 3.36693h 0.181345v 2.0148h 0.181345v -3.79199h 0.181345v -8.68145h
 0.181345v 7.09171h 0.181345v -1.4381h 0.181345v -3.6388h 0.181345v 3.6388h 0.181345v -1.31288h 0.181345v -2.32592h 0.181345v -1.04101h 0.181345v 6.11791h 0.36269v 5.38173h 0.181345v -3.79199h 0.36269v -8.68145h 0.181345v 3.13299h 0.181345v 1.20773h
 0.181345v 4.34073h 0.181345v 3.79199h 0.181345v -12.4734h 0.36269v 4.34073h 0.181345v 2.75098h 0.181345v 3.36693h 0.181345v -8.44383h 0.181345v -2.0148h 0.181345v -1.77718h 0.181345v 7.43079h 0.36269v -2.52062h 0.181345v -1.11819h 0.181345v
 -1.04101h 0.181345v 3.36693h 0.181345v -3.36693h 0.181345v -0.973797h 0.181345v -2.59298h 0.181345v 1.67824h 0.181345v -2.45219h 0.181345v 9.02054h 0.181345v -5.65361h 0.181345v 2.0148h 0.181345v -4.60779h 0.181345v 1.67824h 0.181345v -0.862442h
 0.181345v -3.69856h 0.181345v 6.44954h 0.181345v -5.77883h 0.181345v 3.89029h 0.181345v 0.914742h 0.181345v -8.97331h 0.181345v 2.8554h 0.181345v 3.52493h 0.181345v 0.8158h 0.181345v 3.79199h 0.181345v -6.81983h 0.181345v -3.6388h 0.181345v 3.6388h
 0.181345v 0.701923h 0.181345v 5.0769h 0.181345v -4.34073h 0.181345v -3.95872h 0.181345v 1.8499h 0.36269v -2.41935h 0.181345v 1.16124h 0.181345v 1.25811h 0.181345v 2.10882h 0.181345v -2.75098h 0.181345v -1.77718h 0.181345v 1.77718h 0.181345v 4.34073h
 0.181345v -1.58975h 0.181345v 1.58975h 0.36269v 3.79199h 0.181345v -1.04101h 0.181345v 2.15919h 0.181345v -4.91018h 0.181345v 6.11791h 0.181345v -6.93371h 0.181345v 1.67824h 0.36269v 0.914742h 0.181345v 3.13299h 0.181345v 2.52062h 0.181345v
 -1.31288h 0.181345v -4.34073h 0.181345v 4.34073h 0.181345v 1.31288h 0.181345v 4.80503h 0.181345v -4.80503h 0.181345v 3.02784h 0.181345v -5.54846h 0.181345v 1.20773h 0.181345v 4.34073h 0.36269v -1.58975h 0.181345v 5.38173h 0.181345v 18.9025h
 0.181345v -20.9173h 0.181345v 2.0148h 0.181345v -6.81983h 0.181345v 11.8967h 0.181345v 34.7428h 0.181345v -43.6117h 0.181345v -5.54846h 0.181345v 22.125h 0.181345v -10.4586h 0.181345v 2.75098h 0.181345v 7.70766h 0.181345v -4.34073h 0.181345v
 4.34073h 0.181345v -7.70766h 0.181345v 7.70766h 0.181345v 6.11791h 0.544034v 10.4586h 0.36269v 10.4586h 0.181345v -34.7428h 0.181345v 13.8256h 0.36269v 10.4586h 0.36269v -16.5765h 0.181345v 16.5765h 0.181345v -10.4586h 0.36269v -6.11791h 0.36269v
 6.11791h 0.181345v 10.4586h 0.544034v -10.4586h 0.181345v 10.4586h 0.181345v 10.4586h 0.36269v -20.9173h 0.181345v -6.11791h 0.181345v 27.0352h 0.181345v -10.4586h 0.181345v 10.4586h 0.544034v -27.0352h 0.181345v -4.34073h 0.181345v 31.3759h
 0.181345v -10.4586h 0.544034v 10.4586h 0.544034v -20.9173h 0.181345v 20.9173h 0.544034v -10.4586h 0.544034v 10.4586h 0.181345v -34.7428h 0.181345v 13.8256h 0.181345v 20.9173h 0.181345v -10.4586h 0.181345v -10.4586h 0.36269v -6.11791h 0.181345v
 16.5765h 0.36269v 10.4586h 0.181345v -10.4586h 0.544034v -20.9173h 0.181345v 31.3759h 0.181345v -10.4586h 0.181345v -10.4586h 0.181345v 20.9173h 0.544034v -20.9173h 0.181345v 20.9173h 0.544034v -10.4586h 0.181345v 10.4586h 0.36269v -10.4586h
 0.181345v 10.4586h 0.181345v -20.9173h 0.181345v -6.11791h 0.181345v 27.0352h 0.181345v -10.4586h 0.181345v 10.4586h 0.181345v -10.4586h 0.181345v 10.4586h 0.36269v -20.9173h 0.181345v 20.9173h 0.181345v -10.4586h 0.36269v -10.4586h 0.181345v
 10.4586h 0.181345v 10.4586h 0.181345v -10.4586h 0.181345v 10.4586h 0.36269v -27.0352h 0.181345v 27.0352h 0.906724v -20.9173h 0.181345v 20.9173h 0.544034v -20.9173h 0.181345v 20.9173h 0.181345v -20.9173h 0.181345v 20.9173h 0.36269v -10.4586h
 0.181345v 10.4586h 0.36269v -10.4586h 0.544034v 10.4586h 0.906724v -10.4586h 0.181345v 10.4586h 0.725379v -31.3759h 0.181345v 20.9173h 0.544034v 10.4586h 0.36269v -10.4586h 0.181345v 10.4586h 0.36269v -10.4586h 0.181345v 10.4586h 0.181345v -27.0352h
 0.181345v 16.5765h 0.36269v 10.4586h 0.181345v -20.9173h 0.181345v 20.9173h 0.181345v -10.4586h 0.36269v -10.4586h 0.36269v 10.4586h 0.36269v 10.4586h 0.181345v -10.4586h 0.181345v 10.4586h 0.181345v -10.4586h 0.36269v 10.4586h 0.36269v -10.4586h
 0.181345v 10.4586h 0.544034v -10.4586h 0.181345v 10.4586h 0.544034v -10.4586h 0.181345v 10.4586h 0.181345v -10.4586h 0.181345v 10.4586h 0.36269v -10.4586h 0.36269v 10.4586h 0.181345v -10.4586h 0.181345v -10.4586h 0.181345v 20.9173h 0.181345v
 -20.9173h 0.181345v 10.4586h 0.181345v 10.4586h 0.544034v -20.9173h 0.181345v 10.4586h 0.181345v 10.4586h 0.181345v -10.4586h 0.36269v 10.4586h 0.544034v -20.9173h 0.181345v 10.4586h 0.181345v 10.4586h 0.181345v -10.4586h 0.181345v 10.4586h
 0.181345v -10.4586h 0.181345v 10.4586h 0.544034v -20.9173h 0.181345v 10.4586h 0.181345v 10.4586h 0.181345v -20.9173h 0.181345v 20.9173h 0.181345v -10.4586h 0.181345v 10.4586h 0.36269v -10.4586h 0.181345v 10.4586h 0.181345v -20.9173h 0.36269v
 10.4586h 0.544034v 10.4586h 0.36269v -10.4586h 0.36269v 10.4586h 0.181345v -10.4586h 0.181345v -10.4586h 0.181345v 20.9173h 1.26941v -20.9173h 0.181345v 10.4586h 0.36269v 10.4586h 0.725379v -10.4586h 0.544034v -10.4586h 0.181345v 10.4586h 0.181345v
 10.4586h 0.725379v -20.9173h 0.181345v 20.9173h 0.544034v -10.4586h 0.36269v 10.4586h 0.544034v -10.4586h 0.181345v 10.4586h 0.36269v -10.4586h 0.181345v -10.4586h 0.181345v 10.4586h 0.181345v -16.5765h 0.181345v 6.11791h 0.181345v 20.9173h 0.36269v
 -20.9173h 0.181345v 20.9173h 0.544034v -20.9173h 0.181345v 10.4586h 0.36269v 10.4586h 0.544034v -10.4586h 0.181345v 10.4586h 0.36269v -10.4586h 0.36269v 10.4586h 0.181345v -10.4586h 0.36269v 10.4586h 0.36269v -10.4586h 0.36269v 10.4586h 0.181345v
 -31.3759h 0.181345v 20.9173h 0.181345v 10.4586h 0.181345v -10.4586h 0.181345v 10.4586h 0.181345v -20.9173h 0.181345v 20.9173h 0.181345v -10.4586h 0.181345v 10.4586h 0.36269v -10.4586h 0.181345v 10.4586h 0.544034v -10.4586h 0.181345v 10.4586h
 0.544034v -10.4586h 0.181345v 10.4586h 0.544034" fill="none" stroke="black"/>
<path d="M57.1929,280.151h 453.543" fill="none" stroke="black"/>
<path d="M57.1929,272.68v 7.47068" fill="none" stroke="black"/>
<path d="M75.3318,276.415v 3.73534" fill="none" stroke="black"/>
<path d="M93.4707,276.415v 3.73534" fill="none" stroke="black"/>
<path d="M111.61,276.415v 3.73534" fill="none" stroke="black"/>
<path d="M129.749,276.415v 3.73534" fill="none" stroke="black"/>
<path d="M147.887,272.68v 7.47068" fill="none" stroke="black"/>
<path d="M166.026,276.415v 3.73534" fill="none" stroke="black"/>
<path d="M184.165,276.415v 3.73534" fill="none" stroke="black"/>
<path d="M202.304,276.415v 3.73534" fill="none" stroke="black"/>
<path d="M220.443,276.415v 3.73534" fill="none" stroke="black"/>
<path d="M238.582,272.68v 7.47068" fill="none" stroke="black"/>
<path d="M256.721,276.415v 3.73534" fill="none" stroke="black"/>
<path d="M274.86,276.415v 3.73534" fill="none" stroke="black"/>
<path d="M292.999,276.415v 3.73534" fill="none" stroke="black"/>
<path d="M311.138,276.415v 3.73534" fill="none" stroke="black"/>
<path d="M329.277,272.68v 7.47068" fill="none" stroke="black"/>
<path d="M347.415,276.415v 3.73534" fill="none" stroke="black"/>
<path d="M365.554,276.415v 3.73534" fill="none" stroke="black"/>
<path d="M383.693,276.415v 3.73534" fill="none" stroke="black"/>
<path d="M401.832,276.415v 3.73534" fill="none" stroke="black"/>
<path d="M419.971,272.68v 7.47068" fill="none" stroke="black"/>
<path d="M438.11,276.415v 3.73534" fill="none" stroke="black"/>
<path d="M456.249,276.415v 3.73534" fill="none" stroke="black"/>
<path d="M474.388,276.415v 3.73534" fill="none" stroke="black"/>
<path d="M492.527,276.415v 3.73534" fill="none" stroke="black"/>
<path d="M510.666,272.68v 7.47068" fill="none" stroke="black"/>
<path d="M510.666,272.68v 7.47068" fill="none" stroke="black"/>
<text xml:space="preserve" x="54.3523" y="290.27" fill="black" font-size="10.4952" font-family="Helvetica">0</text>
<text xml:space="preserve" x="139.569" y="290.27" fill="black" font-size="10.4952" font-family="Helvetica">500</text>
<text xml:space="preserve" x="227.449" y="290.27" fill="black" font-size="10.4952" font-family="Helvetica">1000</text>
<text xml:space="preserve" x="318.288" y="290.27" fill="black" font-size="10.4952" font-family="Helvetica">1500</text>
<text xml:space="preserve" x="408.831" y="290.27" fill="black" font-size="10.4952" font-family="Helvetica">2000</text>
<text xml:space="preserve" x="499.67" y="290.27" fill="black" font-size="10.4952" font-family="Helvetica">2500</text>
<text xml:space="preserve" x="265.323" y="301.218" fill="black" font-size="10.4952" font-family="Helvetica">Channel</text>
<path d="M57.1929,280.151v -249.023" fill="none" stroke="black"/>
<path d="M63.9961,280.151h -6.80315" fill="none" stroke="black"/>
<path d="M63.9961,277.4h -6.80315" fill="none" stroke="black"/>
<path d="M63.9961,275.074h -6.80315" fill="none" stroke="black"/>
<path d="M63.9961,273.059h -6.80315" fill="none" stroke="black"/>
<path d="M63.9961,271.282h -6.80315" fill="none" stroke="black"/>
<path d="M70.7992,269.692h -13.6063" fill="none" stroke="black"/>
<text xml:space="preserve" x="49.0263" y="273.404" fill="black" font-size="10.4952" font-family="Helvetica">1</text>
<path d="M63.9961,259.233h -6.80315" fill="none" stroke="black"/>
<path d="M63.9961,253.115h -6.80315" fill="none" stroke="black"/>
<path d="M63.9961,248.775h -6.80315" fill="none" stroke="black"/>
<path d="M63.9961,245.408h -6.80315" fill="none" stroke="black"/>
<path d="M63.9961,242.657h -6.80315" fill="none" stroke="black"/>
<path d="M63.9961,240.331h -6.80315" fill="none" stroke="black"/>
<path d="M63.9961,238.316h -6.80315" fill="none" stroke="black"/>
<path d="M63.9961,236.539h -6.80315" fill="none" stroke="black"/>
<path d="M70.7992,234.949h -13.6063" fill="none" stroke="black"/>
<text xml:space="preserve" x="41.629" y="238.785" fill="black" font-size="10.4952" font-family="Helvetica">10</text>
<path d="M63.9961,224.49h -6.80315" fill="none" stroke="black"/>
<path d="M63.9961,218.373h -6.80315" fill="none" stroke="black"/>
<path d="M63.9961,214.032h -6.80315" fill="none" stroke="black"/>
<path d="M63.9961,210.665h -6.80315" fill="none" stroke="black"/>
<path d="M63.9961,207.914h -6.80315" fill="none" stroke="black"/>
<path d="M63.9961,205.588h -6.80315" fill="none" stroke="black"/>
<path d="M63.9961,203.573h -6.80315" fill="none" stroke="black"/>
<path d="M63.9961,201.796h -6.80315" fill="none" stroke="black"/>
<path d="M70.7992,200.206h -13.6063" fill="none" stroke="black"/>
<text xml:space="preserve" x="49.0263" y="200.319" fill="black" font-size="7.16345" font-family="Helvetica">2</text>
<text xml:space="preserve" x="38.0783" y="204.757" fill="black" font-size="10.4952" font-family="Helvetica">10</text>
<path d="M63.9961,189.748h -6.80315" fill="none" stroke="black"/>
<path d="M63.9961,183.63h -6.80315" fill="none" stroke="black"/>
<path d="M63.9961,179.289h -6.80315" fill="none" stroke="black"/>
<path d="M63.9961,175.922h -6.80315" fill="none" stroke="black"/>
<path d="M63.9961,173.171h -6.80315" fill="none" stroke="black"/>
<path d="M63.9961,170.845h -6.80315" fill="none" stroke="black"/>
<path d="M63.9961,168.83h -6.80315" fill="none" stroke="black"/>
<path d="M63.9961,167.053h -6.80315" fill="none" stroke="black"/>
<path d="M70.7992,165.463h -13.6063" fill="none" stroke="black"/>
<text xml:space="preserve" x="49.0263" y="165.404" fill="black" font-size="7.16345" font-family="Helvetica">3</text>
<text xml:space="preserve" x="38.0783" y="170.138" fill="black" font-size="10.4952" font-family="Helvetica">10</text>
<path d="M63.9961,155.005h -6.80315" fill="none" stroke="black"/>
<path d="M63.9961,148.887h -6.80315" fill="none" stroke="black"/>
<path d="M63.9961,144.546h -6.80315" fill="none" stroke="black"/>
<path d="M63.9961,141.179h -6.80315" fill="none" stroke="black"/>
<path d="M63.9961,138.428h -6.80315" fill="none" stroke="black"/>
<path d="M63.9961,136.102h -6.80315" fill="none" stroke="black"/>
<path d="M63.9961,134.087h -6.80315" fill="none" stroke="black"/>
<path d="M63.9961,132.31h -6.80315" fill="none" stroke="black"/>
<path d="M70.7992,130.721h -13.6063" fill="none" stroke="black"/>
<text xml:space="preserve" x="49.0263" y="130.784" fill="black" font-size="7.16345" font-family="Helvetica">4</text>
<text xml:space="preserve" x="38.0783" y="135.223" fill="black" font-size="10.4952" font-family="Helvetica">10</text>
<path d="M63.9961,120.262h -6.80315" fill="none" stroke="black"/>
<path d="M63.9961,114.144h -6.80315" fill="none" stroke="black"/>
<path d="M63.9961,109.803h -6.80315" fill="none" stroke="black"/>
<path d="M63.9961,106.436h -6.80315" fill="none" stroke="black"/>
<path d="M63.9961,103.685h -6.80315" fill="none" stroke="black"/>
<path d="M63.9961,101.359h -6.80315" fill="none" stroke="black"/>
<path d="M63.9961,99.3447h -6.80315" fill="none" stroke="black"/>
<path d="M63.9961,97.5675h -6.80315" fill="none" stroke="black"/>
<path d="M70.7992,95.9777h -13.6063" fill="none" stroke="black"/>
<text xml:space="preserve" x="49.0263" y="95.869" fill="black" font-size="7.16345" font-family="Helvetica">5</text>
<text xml:space="preserve" x="38.0783" y="100.603" fill="black" font-size="10.4952" font-family="Helvetica">10</text>
<path d="M63.9961,85.5191h -6.80315" fill="none" stroke="black"/>
<path d="M63.9961,79.4012h -6.80315" fill="none" stroke="black"/>
<path d="M63.9961,75.0605h -6.80315" fill="none" stroke="black"/>
<path d="M63.9961,71.6935h -6.80315" fill="none" stroke="black"/>
<path d="M63.9961,68.9425h -6.80315" fill="none" stroke="black"/>
<path d="M63.9961,66.6166h -6.80315" fill="none" stroke="black"/>
<path d="M63.9961,64.6018h -6.80315" fill="none" stroke="black"/>
<path d="M63.9961,62.8246h -6.80315" fill="none" stroke="black"/>
<path d="M70.7992,61.2349h -13.6063" fill="none" stroke="black"/>
<text xml:space="preserve" x="49.0263" y="60.9538" fill="black" font-size="7.16345" font-family="Helvetica">6</text>
<text xml:space="preserve" x="38.0783" y="65.688" fill="black" font-size="10.4952" font-family="Helvetica">10</text>
<path d="M63.9961,50.7763h -6.80315" fill="none" stroke="black"/>
<path d="M63.9961,44.6583h -6.80315" fill="none" stroke="black"/>
<path d="M63.9961,40.3176h -6.80315" fill="none" stroke="black"/>
<path d="M63.9961,36.9507h -6.80315" fill="none" stroke="black"/>
<path d="M63.9961,34.1997h -6.80315" fill="none" stroke="black"/>
<path d="M63.9961,31.8738h -6.80315" fill="none" stroke="black"/>
<g transform="rotate(-90,26.5385,191.442)">
<text xml:space="preserve" x="26.5385" y="191.442" fill="black" font-size="10.4952" font-family="Helvetica">Counts/Channel</text>
</g>
<text xml:space="preserve" x="404.097" y="60.9538" fill="black" font-size="14.7788" font-family="Helvetica" font-weight="bold"> = 2.4879 MeV</text>
<text xml:space="preserve" x="398.179" y="64.2086" fill="black" font-size="10.0192" font-family="Helvetica" font-weight="bold">p</text>
<text xml:space="preserve" x="389.006" y="60.9538" fill="black" font-size="14.7788" font-family="Helvetica" font-weight="bold">E</text>
<path d="M262.163,164.025v 26.0945" fill="none" stroke="black"/>
<path d="M264.454,190.12l -2.29122, 3.9685l -2.29122, -3.9685z" fill="black"/>
<path d="M264.454,190.12l -2.29122, 3.9685l -2.29122, -3.9685h 4.58243z" fill="none" stroke="black"/>
<text xml:space="preserve" x="266.803" y="161.853" fill="black" font-size="10.4952" font-family="Helvetica" font-weight="bold">_1 	1.369 MeV</text>
<text xml:space="preserve" x="260.293" y="161.853" fill="black" font-size="10.4952" font-family="Times">&#0945;</text>
<path d="M184.528,130.721v 30.7743" fill="none" stroke="black"/>
<path d="M186.819,161.495l -2.29122, 3.9685l -2.29122, -3.9685z" fill="black"/>
<path d="M186.819,161.495l -2.29122, 3.9685l -2.29122, -3.9685h 4.58243z" fill="none" stroke="black"/>
<text xml:space="preserve" x="172.117" y="127.825" fill="black" font-size="10.4952" font-family="Helvetica" font-weight="bold"># p_1 	0.844 MeV</text>
<path d="M210.104,148.887v 12.608" fill="none" stroke="black"/>
<path d="M212.395,161.495l -2.29122, 3.9685l -2.29122, -3.9685z" fill="black"/>
<path d="M212.395,161.495l -2.29122, 3.9685l -2.29122, -3.9685h 4.58243z" fill="none" stroke="black"/>
<text xml:space="preserve" x="197.564" y="144.395" fill="black" font-size="10.4952" font-family="Helvetica" font-weight="bold"># p_2 	1.015 MeV</text>
<path d="M497.637,269.692h 13.0287" fill="none" stroke="black"/>
<path d="M504.151,259.233h 6.51435" fill="none" stroke="black"/>
<path d="M504.151,253.115h 6.51435" fill="none" stroke="black"/>
<path d="M504.151,248.775h 6.51435" fill="none" stroke="black"/>
<path d="M504.151,245.408h 6.51435" fill="none" stroke="black"/>
<path d="M504.151,242.657h 6.51435" fill="none" stroke="black"/>
<path d="M504.151,240.331h 6.51435" fill="none" stroke="black"/>
<path d="M504.151,238.316h 6.51435" fill="none" stroke="black"/>
<path d="M504.151,236.539h 6.51435" fill="none" stroke="black"/>
<path d="M497.637,234.949h 13.0287" fill="none" stroke="black"/>
<path d="M504.151,224.49h 6.51435" fill="none" stroke="black"/>
<path d="M504.151,218.373h 6.51435" fill="none" stroke="black"/>
<path d="M504.151,214.032h 6.51435" fill="none" stroke="black"/>
<path d="M504.151,210.665h 6.51435" fill="none" stroke="black"/>
<path d="M504.151,207.914h 6.51435" fill="none" stroke="black"/>
<path d="M504.151,205.588h 6.51435" fill="none" stroke="black"/>
<path d="M504.151,203.573h 6.51435" fill="none" stroke="black"/>
<path d="M504.151,201.796h 6.51435" fill="none" stroke="black"/>
<path d="M497.637,200.206h 13.0287" fill="none" stroke="black"/>
<path d="M504.151,189.748h 6.51435" fill="none" stroke="black"/>
<path d="M504.151,183.63h 6.51435" fill="none" stroke="black"/>
<path d="M504.151,179.289h 6.51435" fill="none" stroke="black"/>
<path d="M504.151,175.922h 6.51435" fill="none" stroke="black"/>
<path d="M504.151,173.171h 6.51435" fill="none" stroke="black"/>
<path d="M504.151,170.845h 6.51435" fill="none" stroke="black"/>
<path d="M504.151,168.83h 6.51435" fill="none" stroke="black"/>
<path d="M504.151,167.053h 6.51435" fill="none" stroke="black"/>
<path d="M497.637,165.463h 13.0287" fill="none" stroke="black"/>
<path d="M504.151,155.005h 6.51435" fill="none" stroke="black"/>
<path d="M504.151,148.887h 6.51435" fill="none" stroke="black"/>
<path d="M504.151,144.546h 6.51435" fill="none" stroke="black"/>
<path d="M504.151,141.179h 6.51435" fill="none" stroke="black"/>
<path d="M504.151,138.428h 6.51435" fill="none" stroke="black"/>
<path d="M504.151,136.102h 6.51435" fill="none" stroke="black"/>
<path d="M504.151,134.087h 6.51435" fill="none" stroke="black"/>
<path d="M504.151,132.31h 6.51435" fill="none" stroke="black"/>
<path d="M497.637,130.721h 13.0287" fill="none" stroke="black"/>
<path d="M504.151,120.262h 6.51435" fill="none" stroke="black"/>
<path d="M504.151,114.144h 6.51435" fill="none" stroke="black"/>
<path d="M504.151,109.803h 6.51435" fill="none" stroke="black"/>
<path d="M504.151,106.436h 6.51435" fill="none" stroke="black"/>
<path d="M504.151,103.685h 6.51435" fill="none" stroke="black"/>
<path d="M504.151,101.359h 6.51435" fill="none" stroke="black"/>
<path d="M504.151,99.3447h 6.51435" fill="none" stroke="black"/>
<path d="M504.151,97.5675h 6.51435" fill="none" stroke="black"/>
<path d="M497.637,95.9777h 13.0287" fill="none" stroke="black"/>
<path d="M504.151,85.5191h 6.51435" fill="none" stroke="black"/>
<path d="M504.151,79.4012h 6.51435" fill="none" stroke="black"/>
<path d="M504.151,75.0605h 6.51435" fill="none" stroke="black"/>
<path d="M504.151,71.6935h 6.51435" fill="none" stroke="black"/>
<path d="M504.151,68.9425h 6.51435" fill="none" stroke="black"/>
<path d="M504.151,66.6166h 6.51435" fill="none" stroke="black"/>
<path d="M504.151,64.6018h 6.51435" fill="none" stroke="black"/>
<path d="M504.151,62.8246h 6.51435" fill="none" stroke="black"/>
<path d="M497.637,61.2349h 13.0287" fill="none" stroke="black"/>
<path d="M504.151,50.7763h 6.51435" fill="none" stroke="black"/>
<path d="M504.151,44.6583h 6.51435" fill="none" stroke="black"/>
<path d="M504.151,40.3176h 6.51435" fill="none" stroke="black"/>
<path d="M504.151,36.9507h 6.51435" fill="none" stroke="black"/>
<path d="M504.151,34.1997h 6.51435" fill="none" stroke="black"/>
<path d="M504.151,31.8738h 6.51435" fill="none" stroke="black"/>
<path d="M57.1929,38.7101v -7.46952" fill="none" stroke="black"/>
<path d="M75.3318,38.7101v -7.46952" fill="none" stroke="black"/>
<path d="M93.4707,38.7101v -7.46952" fill="none" stroke="black"/>
<path d="M111.61,38.7101v -7.46952" fill="none" stroke="black"/>
<path d="M129.749,38.7101v -7.46952" fill="none" stroke="black"/>
<path d="M147.887,38.7101v -7.46952" fill="none" stroke="black"/>
<path d="M166.026,38.7101v -7.46952" fill="none" stroke="black"/>
<path d="M184.165,38.7101v -7.46952" fill="none" stroke="black"/>
<path d="M202.304,38.7101v -7.46952" fill="none" stroke="black"/>
<path d="M220.443,38.7101v -7.46952" fill="none" stroke="black"/>
<path d="M238.582,38.7101v -7.46952" fill="none" stroke="black"/>
<path d="M256.721,38.7101v -7.46952" fill="none" stroke="black"/>
<path d="M274.86,38.7101v -7.46952" fill="none" stroke="black"/>
<path d="M292.999,38.7101v -7.46952" fill="none" stroke="black"/>
<path d="M311.138,38.7101v -7.46952" fill="none" stroke="black"/>
<path d="M329.277,38.7101v -7.46952" fill="none" stroke="black"/>
<path d="M347.415,38.7101v -7.46952" fill="none" stroke="black"/>
<path d="M365.554,38.7101v -7.46952" fill="none" stroke="black"/>
<path d="M383.693,38.7101v -7.46952" fill="none" stroke="black"/>
<path d="M401.832,38.7101v -7.46952" fill="none" stroke="black"/>
<path d="M419.971,38.7101v -7.46952" fill="none" stroke="black"/>
<path d="M438.11,38.7101v -7.46952" fill="none" stroke="black"/>
<path d="M456.249,38.7101v -7.46952" fill="none" stroke="black"/>
<path d="M474.388,38.7101v -7.46952" fill="none" stroke="black"/>
<path d="M492.527,38.7101v -7.46952" fill="none" stroke="black"/>
<path d="M510.666,38.7101v -7.46952" fill="none" stroke="black"/></svg>
