<?xml version="1.0" standalone="no"?>
<svg width="567.429" height="311.778" viewBox="0 0 567.429 311.778" xmlns="http://www.w3.org/2000/svg" shape-rendering="crispEdges">
<title>
Yields/P1/det-2/run_0097_Fit.svg
</title>
<desc>
Creator: ROOT Version 6.12/06
CreationDate: Mon Apr 15 10:29:01 2019</desc>
<defs>
</defs>
<rect x="0.5" y="0" width="566.929" height="311.278" fill="white"/>
<rect x="57.1929" y="31.1278" width="453.543" height="249.023" fill="white"/>
<rect x="57.1929" y="31.1278" width="453.543" height="249.023" fill="none" stroke="black"/>
<rect x="57.1929" y="31.1278" width="453.543" height="249.023" fill="white"/>
<rect x="57.1929" y="31.1278" width="453.543" height="249.023" fill="none" stroke="black"/>
<path d="M57.1929,40.4859h 0.181345v 229.515h 0.181345v 10.1497h 4.71496v -10.1497h 0.181345v 10.1497h 3.44555v -10.1497h 0.181345v 10.1497h 2.17614v -10.1497h 0.181345v 10.1497h 13.9635v -10.1497h 0.181345v 10.1497h 0.725379v -10.1497h 0.181345v
 10.1497h 4.35227v -10.1497h 0.181345v 10.1497h 0.725379v -20.2994h 0.36269v -28.4939h 0.181345v -20.5586h 0.181345v -12.7336h 0.181345v -4.18557h 0.181345v -8.06674h 0.181345v -3.5812h 0.181345v -3.52089h 0.181345v -2.7175h 0.181345v -0.584393h
 0.181345v -1.39771h 0.181345v -0.0830808h 0.181345v -0.825457h 0.181345v -0.873898h 0.181345v -1.55569h 0.181345v 0.284663h 0.181345v 0.763549h 0.181345v -2.22665h 0.181345v -0.302864h 0.181345v 0.394958h 0.181345v -0.183613h 0.181345v -0.522751h
 0.181345v -0.261748h 0.181345v -0.523777h 0.181345v 0.0139125h 0.181345v -0.138534h 0.181345v 0.278391h 0.181345v -0.470163h 0.181345v -0.135458h 0.181345v 0.32723h 0.181345v 0.180351h 0.181345v 0.225064h 0.181345v -0.350159h 0.181345v -1.38555h
 0.181345v 0.922389h 0.181345v 0.270672h 0.181345v -0.284075h 0.181345v -0.526308h 0.181345v 1.01672h 0.181345v -0.110409h 0.181345v -0.553139h 0.181345v -0.571251h 0.181345v 0.637599h 0.181345v -0.119211h 0.181345v -0.0131859h 0.181345v 0.15902h
 0.181345v -0.237887h 0.181345v 0.251217h 0.181345v -0.26432h 0.181345v -0.0783746h 0.181345v 0.557641h 0.181345v 0.806748h 0.181345v -0.113953h 0.181345v 0.564094h 0.181345v -0.969897h 0.181345v 0.634604h 0.181345v 0.0288531h 0.36269v 0.350746h
 0.181345v -0.6084h 0.181345v 0.907246h 0.181345v -0.16512h 0.181345v -0.178032h 0.181345v -0.205005h 0.181345v -1.24013h 0.181345v 0.337877h 0.181345v -1.04213h 0.181345v -0.202324h 0.181345v -2.38227h 0.181345v -1.38397h 0.181345v -1.82362h
 0.181345v -1.93277h 0.181345v -1.77386h 0.181345v -1.17616h 0.181345v -1.37103h 0.181345v -0.725614h 0.181345v -0.315933h 0.181345v -0.299057h 0.181345v 0.840271h 0.181345v 0.708757h 0.181345v 2.16673h 0.181345v 0.986315h 0.181345v 2.62897h
 0.181345v 2.82378h 0.181345v 1.89415h 0.181345v 2.53093h 0.181345v 2.59257h 0.181345v 3.50437h 0.181345v 0.511596h 0.181345v 1.53074h 0.181345v 0.639962h 0.181345v 0.486011h 0.181345v 1.592h 0.181345v -1.14304h 0.181345v 2.31993h 0.181345v
 -0.824743h 0.181345v 0.239563h 0.181345v -0.090296h 0.181345v -0.645685h 0.181345v -1.67996h 0.181345v 2.38578h 0.181345v -0.503447h 0.181345v 0.443312h 0.181345v -0.149267h 0.181345v -0.667683h 0.181345v 2.00402h 0.181345v -2.08891h 0.181345v
 0.19884h 0.181345v 0.55373h 0.181345v 1.56591h 0.181345v -1.56591h 0.181345v 0.824743h 0.181345v 0.675206h 0.181345v -0.293195h 0.181345v -0.692914h 0.181345v 0.405475h 0.181345v -1.41573h 0.181345v 0.407584h 0.181345v 0.541279h 0.181345v 0.216022h
 0.181345v 0.50607h 0.181345v -0.629901h 0.181345v -0.780342h 0.181345v 2.20373h 0.181345v -0.033935h 0.181345v 0.377682h 0.181345v 0.0697285h 0.181345v 1.31546h 0.181345v -1.45459h 0.181345v 0.855306h 0.181345v 1.22414h 0.181345v -0.73911h 0.181345v
 0.540962h 0.181345v -0.540962h 0.181345v 1.39183h 0.181345v -1.58029h 0.181345v 1.20956h 0.181345v -1.13447h 0.181345v 0.575813h 0.181345v -0.309915h 0.181345v 0.747051h 0.181345v -0.6316h 0.181345v 0.79385h 0.181345v 1.14489h 0.181345v -1.5472h
 0.181345v -0.0791513h 0.181345v 1.40747h 0.181345v -0.720638h 0.181345v -1.03781h 0.181345v 0.311564h 0.181345v 1.4904h 0.181345v 0.219539h 0.181345v 0.494893h 0.181345v 0.464895h 0.181345v -2.14885h 0.181345v 1.32239h 0.181345v 0.0447113h 0.181345v
 -0.953428h 0.181345v 1.08839h 0.181345v -0.488884h 0.181345v -0.972328h 0.181345v 1.46121h 0.181345v -0.961972h 0.181345v 0.737727h 0.181345v -0.0887454h 0.181345v -0.733379h 0.181345v 0.557486h 0.181345v -0.259941h 0.181345v 1.87576h 0.181345v
 -2.21532h 0.181345v 0.864141h 0.181345v 1.79719h 0.181345v -1.02032h 0.181345v -0.997738h 0.181345v -0.431977h 0.181345v 1.28959h 0.181345v 1.06015h 0.181345v -1.47265h 0.181345v 0.412505h 0.181345v 1.16044h 0.181345v -1.66306h 0.181345v -0.956259h
 0.181345v 1.50543h 0.181345v -0.0465595h 0.181345v -1.66776h 0.181345v 0.810151h 0.181345v 2.32313h 0.181345v -3.74265h 0.181345v 0.987539h 0.181345v -0.907741h 0.181345v -0.588149h 0.181345v 0.271533h 0.181345v -1.2741h 0.181345v 0.660696h
 0.181345v 1.58457h 0.181345v -1.35754h 0.181345v -0.413564h 0.181345v 0.149039h 0.181345v 0.417856h 0.181345v -0.229398h 0.181345v 2.65456h 0.181345v -0.0906687h 0.181345v 0.789193h 0.181345v 0.143794h 0.181345v -1.15723h 0.181345v 1.44913h
 0.181345v -0.530775h 0.181345v 2.52825h 0.181345v -1.08516h 0.181345v -1.15596h 0.181345v 2.46815h 0.181345v -0.779657h 0.181345v -2.07009h 0.181345v 1.12505h 0.181345v 1.0539h 0.181345v -1.70039h 0.181345v 1.11138h 0.181345v -0.464895h 0.181345v
 0.308284h 0.181345v 0.209189h 0.181345v -1.50059h 0.181345v 0.631469h 0.181345v 0.250313h 0.181345v 0.992237h 0.181345v -0.737571h 0.181345v 0.469868h 0.181345v 0.930893h 0.181345v -1.40076h 0.181345v 1.86019h 0.181345v 0.778745h 0.181345v -1.4068h
 0.181345v 0.686514h 0.181345v -2.32401h 0.181345v 0.928385h 0.181345v 0.877743h 0.181345v -1.19379h 0.181345v 0.316047h 0.181345v -0.106109h 0.181345v 0.0529583h 0.181345v 0.818255h 0.181345v 0.056211h 0.181345v 0.399637h 0.181345v 0.410851h
 0.181345v -1.03405h 0.181345v -2.06581h 0.181345v 1.30918h 0.181345v 0.105726h 0.181345v -2.02806h 0.181345v -0.0920943h 0.181345v -2.75364h 0.181345v 2.0808h 0.181345v -0.217581h 0.181345v 0.394004h 0.181345v 0.72775h 0.181345v -0.185356h 0.181345v
 -0.453378h 0.181345v -0.221531h 0.181345v -0.21823h 0.181345v 1.0785h 0.181345v 0.425835h 0.181345v 0.290929h 0.181345v 0.753663h 0.181345v -0.406775h 0.181345v -0.685748h 0.181345v 3.25552h 0.181345v -0.585796h 0.181345v -0.171265h 0.181345v
 1.18152h 0.181345v -1.18152h 0.181345v -0.336634h 0.181345v -0.383202h 0.181345v 1.35785h 0.181345v -0.974646h 0.181345v -0.965819h 0.181345v 2.98464h 0.181345v -0.063527h 0.181345v -1.44739h 0.181345v -0.057311h 0.181345v 1.25332h 0.181345v
 1.37072h 0.181345v -2.04058h 0.181345v -0.583462h 0.181345v -0.170599h 0.181345v 0.22791h 0.181345v 2.63531h 0.181345v -1.25117h 0.181345v -0.617938h 0.36269v -0.766204h 0.181345v 1.32116h 0.181345v -1.03119h 0.181345v -0.232433h 0.181345v 1.20091h
 0.181345v -1.54279h 0.181345v 1.05054h 0.181345v 1.73226h 0.181345v -1.5496h 0.181345v -0.717349h 0.181345v 1.53631h 0.181345v -1.12214h 0.181345v -1.09801h 0.181345v -0.22103h 0.181345v 0.904872h 0.181345v -0.459424h 0.181345v 0.34321h 0.181345v
 0.233359h 0.181345v 0.972503h 0.181345v 0.446661h 0.181345v -1.59453h 0.181345v 1.85602h 0.181345v -2.64772h 0.181345v -0.855306h 0.181345v 1.99987h 0.181345v 0.240054h 0.181345v 1.00162h 0.181345v -3.49889h 0.181345v 1.78861h 0.36269v 0.52826h
 0.181345v -0.813706h 0.181345v 0.933731h 0.181345v -1.37918h 0.181345v 1.02202h 0.181345v -0.856557h 0.181345v 1.09369h 0.181345v -0.52826h 0.181345v 0.952723h 0.181345v -0.89496h 0.181345v -0.17261h 0.181345v -1.41641h 0.36269v 1.13317h 0.181345v
 0.056211h 0.181345v 0.457629h 0.181345v -1.2256h 0.181345v -0.21222h 0.181345v -2.01443h 0.181345v 2.0672h 0.181345v -0.36544h 0.181345v 0.524893h 0.181345v 1.28382h 0.181345v 0.17607h 0.181345v 0.419254h 0.181345v -0.595324h 0.181345v 1.34321h
 0.181345v -1.57473h 0.181345v 2.22854h 0.181345v -0.589729h 0.181345v 0.259174h 0.181345v 1.01493h 0.181345v -1.33819h 0.181345v 0.193097h 0.181345v 0.460715h 0.181345v 0.825173h 0.181345v -1.22095h 0.181345v 0.262661h 0.181345v 2.13625h 0.181345v
 -2.84753h 0.181345v -0.557304h 0.181345v 1.87738h 0.181345v -2.23747h 0.181345v 2.09998h 0.181345v -0.798904h 0.181345v 1.71659h 0.181345v -1.32259h 0.181345v 0.611627h 0.181345v 0.0695628h 0.181345v -1.01026h 0.181345v 1.72469h 0.181345v -0.853229h
 0.181345v 0.780196h 0.181345v -0.359796h 0.181345v 1.33887h 0.36269v -3.14233h 0.181345v 1.1773h 0.181345v 1.96503h 0.181345v -0.535311h 0.181345v -1.96468h 0.181345v 2.11564h 0.181345v -0.15096h 0.181345v 2.62474h 0.181345v -1.85388h 0.181345v
 -0.99442h 0.181345v 0.148661h 0.181345v 0.0749002h 0.181345v 1.66848h 0.181345v -1.66848h 0.181345v 0.457629h 0.181345v 1.38014h 0.181345v -1.6868h 0.181345v -0.954515h 0.181345v 1.41696h 0.181345v 0.722264h 0.181345v -0.564812h 0.181345v 1.23817h
 0.181345v -0.340549h 0.181345v -0.658221h 0.181345v 0.0806776h 0.181345v -0.320077h 0.181345v -0.920279h 0.181345v -0.795615h 0.181345v 3.56977h 0.181345v -0.267052h 0.181345v 0.0884773h 0.181345v 0.268685h 0.181345v -1.13028h 0.181345v -0.971159h
 0.181345v 0.640231h 0.181345v -0.640231h 0.181345v 0.316617h 0.181345v 0.571107h 0.181345v -1.12077h 0.181345v 0.549666h 0.181345v -0.238102h 0.181345v 2.29664h 0.181345v -0.273708h 0.181345v -1.46121h 0.181345v 1.73492h 0.181345v -2.37515h
 0.181345v 0.316617h 0.181345v 1.33972h 0.181345v 0.0879459h 0.181345v -0.175367h 0.181345v -0.764153h 0.181345v 0.166399h 0.181345v -0.493629h 0.181345v -0.0806776h 0.181345v 0.99877h 0.181345v -0.99877h 0.181345v 2.83153h 0.181345v -2.25722h
 0.181345v 2.25722h 0.181345v -2.58815h 0.181345v 0.928683h 0.181345v 0.898622h 0.181345v -1.66278h 0.181345v 0.93952h 0.181345v -1.26675h 0.181345v -0.240711h 0.181345v 2.32369h 0.181345v -0.368396h 0.181345v 0.650905h 0.181345v -0.650905h 0.181345v
 -0.967754h 0.36269v 0.877085h 0.181345v -0.705821h 0.181345v -0.424463h 0.181345v 0.33858h 0.181345v -1.23122h 0.181345v 2.1136h 0.181345v 0.368396h 0.181345v -0.368396h 0.181345v -0.79649h 0.181345v -0.171265h 0.181345v -0.584127h 0.181345v
 0.247492h 0.181345v 0.16735h 0.181345v -0.577543h 0.181345v 0.661941h 0.181345v -0.251747h 0.181345v 2.34066h 0.181345v -1.57205h 0.181345v 0.354998h 0.181345v 0.736908h 0.181345v -1.35262h 0.181345v 1.16489h 0.181345v -0.368396h 0.181345v 0.746299h
 0.181345v -1.88334h 0.181345v 3.60803h 0.181345v -2.91882h 0.181345v -0.262269h 0.181345v -1.94446h 0.181345v 0.384351h 0.181345v 2.17954h 0.181345v -4.00771h 0.181345v 1.29286h 0.181345v -0.297329h 0.181345v -1.06412h 0.181345v 0.206727h 0.181345v
 -0.678035h 0.181345v -0.262661h 0.181345v -1.54279h 0.181345v 1.80545h 0.181345v -2.15273h 0.181345v 0.945034h 0.181345v -1.99338h 0.181345v -0.211454h 0.181345v 1.37464h 0.181345v -1.05631h 0.181345v 0.0537357h 0.181345v 0.77377h 0.181345v
 -0.881045h 0.181345v -0.21222h 0.181345v 0.536432h 0.181345v -0.951862h 0.181345v -0.253784h 0.181345v -0.150185h 0.181345v 0.978276h 0.181345v -1.32283h 0.181345v 0.245281h 0.181345v 1.89887h 0.181345v -1.13736h 0.181345v 0.858441h 0.181345v
 0.278922h 0.181345v 1.48035h 0.181345v -1.48035h 0.181345v 0.870134h 0.181345v -1.31389h 0.181345v -1.65166h 0.181345v 2.03921h 0.181345v 1.41246h 0.181345v -1.63517h 0.181345v 0.110932h 0.181345v 0.978478h 0.181345v -3.43321h 0.181345v -0.0938654h
 0.181345v -0.185945h 0.181345v -1.98414h 0.181345v -0.080456h 0.181345v -1.11951h 0.181345v -0.25787h 0.181345v -2.63316h 0.181345v -1.64311h 0.181345v 0.555776h 0.181345v -1.80941h 0.181345v -1.58777h 0.181345v -1.08195h 0.181345v -0.103925h
 0.181345v 0.527161h 0.181345v -1.31341h 0.181345v 1.14265h 0.181345v 0.430706h 0.181345v -1.47488h 0.181345v 0.0395756h 0.181345v 1.13249h 0.181345v -0.27569h 0.181345v 1.52646h 0.181345v 1.31656h 0.181345v 0.335448h 0.181345v 2.07134h 0.181345v
 0.0300986h 0.181345v -0.415852h 0.181345v 1.97204h 0.181345v 1.55396h 0.181345v 2.64739h 0.181345v 0.270339h 0.181345v 1.48228h 0.181345v -0.0502331h 0.181345v 2.75018h 0.181345v 0.182659h 0.181345v 1.41401h 0.181345v 0.48014h 0.181345v 0.496419h
 0.181345v 0.072311h 0.181345v 1.12984h 0.181345v -0.155778h 0.181345v -0.230602h 0.181345v 1.95529h 0.181345v -0.764153h 0.181345v -1.49307h 0.181345v 1.41057h 0.181345v 1.65289h 0.181345v -2.37515h 0.181345v 1.30974h 0.181345v -2.14671h 0.181345v
 1.72469h 0.181345v -2.99879h 0.181345v 5.24215h 0.181345v -2.49085h 0.181345v 0.247492h 0.36269v 0.251747h 0.181345v 1.05264h 0.181345v -1.22095h 0.181345v -0.330928h 0.181345v -0.162701h 0.181345v -0.0806776h 0.181345v 0.407908h 0.181345v
 -0.960538h 0.181345v -1.75049h 0.181345v 4.37381h 0.181345v -0.634778h 0.181345v -2.06581h 0.181345v 2.42516h 0.181345v -1.13704h 0.181345v -0.496419h 0.181345v -0.63675h 0.181345v 1.13317h 0.181345v -0.332809h 0.181345v 1.19951h 0.181345v -1.60516h
 0.181345v 0.0802355h 0.181345v 1.79526h 0.181345v -0.359354h 0.36269v 1.29833h 0.181345v -1.02964h 0.181345v -0.877085h 0.181345v 0.431977h 0.181345v -1.73443h 0.181345v 3.20918h 0.181345v 0.195242h 0.36269v -1.49357h 0.181345v 0.450588h 0.181345v
 -1.05899h 0.181345v -1.06691h 0.181345v 0.982018h 0.181345v 1.5146h 0.181345v 0.0941672h 0.181345v 0.578086h 0.181345v 0.912313h 0.181345v -2.5823h 0.181345v 2.3746h 0.181345v 0.632168h 0.181345v -2.83034h 0.181345v 1.49357h 0.181345v 2.57178h
 0.181345v -2.47317h 0.36269v 1.13089h 0.181345v -0.729693h 0.181345v 0.517473h 0.181345v 0.319495h 0.181345v -3.09419h 0.181345v 1.85602h 0.181345v 1.13089h 0.181345v -1.32745h 0.181345v -1.03627h 0.181345v 1.73606h 0.181345v -1.73606h 0.181345v
 2.68793h 0.181345v -1.0539h 0.181345v 0.623198h 0.181345v -2.61657h 0.181345v 1.99338h 0.181345v -0.983117h 0.181345v -1.09874h 0.181345v 2.59933h 0.181345v -1.21252h 0.181345v 1.42474h 0.181345v 0.881045h 0.181345v -0.336634h 0.181345v -1.2741h
 0.181345v -1.3586h 0.181345v 1.05667h 0.181345v -0.197881h 0.181345v 1.44484h 0.181345v 2.34789h 0.181345v -2.34789h 0.181345v -3.11483h 0.181345v -0.601261h 0.181345v 2.66973h 0.181345v -1.44145h 0.181345v -0.539065h 0.181345v -1.34743h 0.181345v
 -1.52669h 0.181345v -1.44825h 0.181345v -3.01581h 0.181345v -1.27856h 0.181345v -0.434254h 0.181345v -1.09874h 0.181345v -0.131722h 0.181345v -3.24123h 0.181345v -1.2741h 0.181345v -0.0960197h 0.181345v -0.284338h 0.181345v -1.87686h 0.181345v
 -0.932987h 0.181345v -0.705821h 0.181345v -0.836968h 0.181345v -0.138797h 0.181345v -0.475683h 0.181345v -0.155188h 0.181345v 0.289528h 0.181345v 1.04887h 0.181345v -0.56873h 0.181345v 0.16361h 0.181345v -0.140349h 0.181345v 1.31437h 0.181345v
 1.41601h 0.181345v 1.25881h 0.181345v 1.04524h 0.181345v 2.15362h 0.181345v 0.781142h 0.181345v 0.656376h 0.181345v 1.54745h 0.181345v 0.864425h 0.181345v 2.47317h 0.181345v 4.40907h 0.181345v 0.482778h 0.181345v 0.669509h 0.181345v 1.06541h
 0.181345v 3.06172h 0.181345v 1.18152h 0.36269v 1.42025h 0.36269v 2.83334h 0.181345v 5.05916h 0.181345v -4.72635h 0.181345v 0.51384h 0.181345v 0.53253h 0.181345v 0.741574h 0.181345v 0.191414h 0.181345v 1.62867h 0.181345v 1.11833h 0.181345v 0.472394h
 0.181345v 0.993123h 0.181345v -4.59287h 0.181345v -3.49104h 0.181345v 6.85269h 0.181345v 1.23122h 0.181345v -3.62279h 0.181345v 2.15727h 0.181345v -0.901389h 0.181345v 1.37378h 0.181345v -0.472394h 0.181345v -2.55305h 0.181345v 0.802554h 0.181345v
 -1.18792h 0.36269v 1.82009h 0.181345v 1.11833h 0.181345v -3.12735h 0.181345v 3.36165h 0.181345v -3.36165h 0.181345v -0.909792h 0.181345v 0.723256h 0.181345v 3.31389h 0.181345v -2.3565h 0.181345v 2.82889h 0.181345v 0.993123h 0.181345v -3.82201h
 0.181345v -0.196553h 0.181345v 3.51359h 0.181345v -2.29263h 0.181345v -1.0244h 0.181345v 3.56735h 0.181345v 0.51384h 0.181345v -0.51384h 0.181345v -2.32918h 0.181345v -1.03894h 0.181345v 0.406775h 0.181345v -0.802554h 0.181345v -1.4841h 0.181345v
 0.539065h 0.181345v -0.181902h 0.36269v 2.34789h 0.181345v -1.79526h 0.181345v -2.25722h 0.181345v 3.42928h 0.181345v -2.25722h 0.181345v 2.88042h 0.181345v -1.9818h 0.181345v 1.9818h 0.181345v -1.79526h 0.181345v 3.12735h 0.181345v -4.8937h
 0.181345v 1.57981h 0.181345v -1.90888h 0.181345v 3.0655h 0.36269v -2.22854h 0.181345v -0.507899h 0.36269v 1.21372h 0.181345v 0.366093h 0.36269v 1.5634h 0.181345v -3.63408h 0.181345v 1.52492h 0.181345v 0.545763h 0.181345v -1.57981h 0.181345v 2.73644h
 0.181345v 0.825173h 0.181345v 0.430706h 0.181345v -0.216937h 0.181345v -4.42628h 0.181345v 4.64322h 0.181345v 0.220199h 0.36269v 0.223561h 0.181345v -0.223561h 0.181345v -2.99879h 0.181345v 0.55263h 0.181345v -0.909792h 0.181345v 3.13576h 0.181345v
 -1.0539h 0.181345v 2.18959h 0.181345v -1.77708h 0.36269v -2.66973h 0.181345v -0.344556h 0.181345v 2.3998h 0.36269v -0.970086h 0.181345v 1.37686h 0.181345v -2.28665h 0.181345v 2.08185h 0.181345v -0.201975h 0.181345v -3.38734h 0.181345v 1.68495h
 0.181345v 2.74133h 0.181345v 0.887723h 0.181345v -3.62905h 0.181345v 1.30661h 0.181345v -0.945034h 0.181345v 3.04045h 0.181345v -0.660696h 0.181345v -1.43472h 0.181345v -1.4841h 0.181345v 4.27144h 0.181345v 0.238102h 0.181345v -0.702997h 0.181345v
 -1.51989h 0.181345v 2.46493h 0.181345v -3.46143h 0.181345v 0.996503h 0.181345v -1.5634h 0.181345v 4.02832h 0.181345v -0.242038h 0.181345v -1.15358h 0.181345v 0.223561h 0.181345v -3.57952h 0.181345v 0.723256h 0.181345v 0.957396h 0.181345v -0.196553h
 0.181345v 1.87186h 0.181345v -1.87186h 0.181345v 4.01856h 0.181345v -4.77941h 0.181345v 6.69805h 0.181345v -2.17331h 0.181345v 1.04637h 0.181345v -5.00422h 0.181345v 2.28937h 0.181345v -2.66973h 0.181345v 4.85205h 0.181345v -3.47518h 0.181345v
 1.75049h 0.181345v 1.21085h 0.36269v -3.16614h 0.181345v 7.21131h 0.181345v -4.54158h 0.181345v -1.61582h 0.181345v 1.13568h 0.181345v -1.98479h 0.181345v 3.21601h 0.181345v -3.82201h 0.181345v 4.08119h 0.181345v -2.84302h 0.181345v -0.632168h
 0.181345v 6.3556h 0.181345v -6.9616h 0.181345v 4.08119h 0.181345v -1.4904h 0.181345v 0.976558h 0.181345v -1.66848h 0.181345v 7.10927h 0.181345v -7.33283h 0.181345v 2.40588h 0.181345v 2.88042h 0.181345v 0.321836h 0.181345v -2.66973h 0.181345v 5.536h
 0.181345v -2.86628h 0.181345v -0.63675h 0.181345v 1.30245h 0.181345v -0.665703h 0.181345v -0.945034h 0.181345v 1.61074h 0.181345v 2.20057h 0.181345v -1.14159h 0.181345v 0.370727h 0.181345v -0.370727h 0.181345v 2.37976h 0.181345v -4.7412h 0.181345v
 7.58421h 0.181345v -6.61839h 0.181345v 2.14671h 0.181345v 3.46143h 0.181345v -3.07093h 0.181345v 4.08119h 0.181345v -4.08119h 0.181345v 0.813706h 0.181345v -1.58457h 0.181345v 1.17206h 0.181345v -3.26748h 0.181345v 7.47999h 0.181345v -2.93841h
 0.181345v -1.2741h 0.181345v 2.66973h 0.181345v -1.39562h 0.181345v 0.915482h 0.181345v 4.37082h 0.181345v -5.2863h 0.181345v -2.44616h 0.181345v 0.380358h 0.181345v 2.98129h 0.181345v 5.02172h 0.181345v -4.04516h 0.181345v 1.04637h 0.181345v
 2.99879h 0.181345v -3.53132h 0.181345v 3.53132h 0.181345v 0.68119h 0.181345v 0.714432h 0.725379v -2.04653h 0.181345v 8.35446h 0.181345v -10.1497h 0.181345v 0.574307h 0.181345v -3.14986h 0.181345v 4.37082h 0.181345v 2.79761h 0.181345v 4.47169h
 0.181345v -1.01026h 0.181345v -6.25904h 0.181345v -2.34789h 0.181345v 4.39442h 0.181345v 1.54279h 0.181345v -2.93841h 0.181345v 0.68119h 0.181345v -1.3321h 0.181345v 4.42628h 0.181345v 3.92818h 0.181345v 7.10927h 0.181345v -10.1497h 0.36269v
 1.95529h 0.181345v -2.84302h 0.181345v 1.83276h 0.181345v 3.26748h 0.181345v -8.19443h 0.181345v 8.19443h 0.181345v -1.17206h 0.181345v -2.09542h 0.181345v -2.66973h 0.181345v 5.9372h 0.181345v -3.26748h 0.181345v -9.6533h 0.181345v 4.04516h
 0.181345v 5.60814h 0.181345v -0.945034h 0.181345v -4.6631h 0.181345v -0.650905h 0.181345v 2.04653h 0.36269v -2.66973h 0.181345v 2.66973h 0.181345v 2.37976h 0.181345v -6.22154h 0.181345v 8.0543h 0.181345v -4.92695h 0.181345v -3.12735h 0.181345v
 6.22154h 0.181345v -10.5742h 0.36269v 8.94551h 0.181345v -6.68829h 0.181345v -1.83276h 0.181345v 4.50248h 0.181345v -2.66973h 0.181345v 4.54158h 0.181345v -3.53132h 0.181345v -4.08119h 0.181345v 3.07093h 0.181345v -1.83276h 0.181345v 6.37434h
 0.181345v 1.39562h 0.181345v -0.714432h 0.181345v -6.16781h 0.181345v 3.61476h 0.181345v 0.597754h 0.181345v 2.66973h 0.181345v -4.92695h 0.181345v 2.25722h 0.181345v 5.9372h 0.36269v -7.6619h 0.181345v 2.99879h 0.181345v 0.68119h 0.36269v -0.68119h
 0.181345v -1.87186h 0.181345v 1.22095h 0.181345v -1.22095h 0.181345v 1.22095h 0.181345v -2.34789h 0.181345v -0.53253h 0.181345v 1.65947h 0.181345v -5.74065h 0.181345v 9.00813h 0.181345v -9.00813h 0.181345v -2.53721h 0.181345v 0.68119h 0.181345v
 -3.94867h 0.181345v -4.34503h 0.181345v 0.401202h 0.181345v -2.60178h 0.181345v 3.01428h 0.181345v -4.00182h 0.181345v -1.07379h 0.181345v -2.57079h 0.181345v 0.124622h 0.181345v -2.20348h 0.181345v -3.60803h 0.181345v 1.13704h 0.181345v -1.71458h
 0.181345v -1.3145h 0.181345v -0.579995h 0.181345v 0.506226h 0.181345v -1.20034h 0.181345v -1.60367h 0.181345v 0.183421h 0.181345v -2.06257h 0.181345v 2.62703h 0.181345v -2.73353h 0.181345v 0.874466h 0.181345v -1.03277h 0.181345v -0.51565h 0.181345v
 0.941657h 0.181345v 0.550552h 0.181345v -3.52331h 0.181345v -0.131722h 0.181345v -0.259941h 0.181345v 0.976558h 0.181345v 0.371904h 0.181345v 0.285261h 0.181345v -1.19789h 0.181345v -0.521466h 0.181345v -0.127516h 0.181345v 0.693287h 0.181345v
 -1.63568h 0.181345v -1.50703h 0.181345v 0.847501h 0.181345v -1.8506h 0.181345v 0.719447h 0.181345v -0.551329h 0.181345v 0.307564h 0.181345v -0.806238h 0.36269v -0.887723h 0.181345v 1.31892h 0.181345v 0.795444h 0.181345v -1.70889h 0.181345v 1.11682h
 0.181345v -0.33741h 0.181345v 0.965061h 0.181345v -0.0355843h 0.181345v 3.65462h 0.181345v 0.0915187h 0.181345v -0.317844h 0.181345v 1.56277h 0.181345v 2.14934h 0.181345v 0.956614h 0.181345v 1.7711h 0.181345v 1.69857h 0.181345v -0.38638h 0.181345v
 0.543832h 0.181345v 5.39337h 0.181345v -1.10149h 0.181345v 2.29263h 0.181345v 0.895481h 0.181345v 2.74909h 0.181345v 0.650905h 0.181345v 4.8937h 0.181345v 1.46552h 0.181345v 2.21447h 0.181345v -1.14906h 0.181345v 5.2623h 0.181345v 2.12589h 0.181345v
 -2.12589h 0.181345v 2.12589h 0.181345v 1.95529h 0.181345v 5.67803h 0.181345v -2.14671h 0.181345v 0.68119h 0.181345v 4.92695h 0.36269v -4.92695h 0.181345v 5.9372h 0.181345v 1.08516h 0.181345v 2.44616h 0.36269v 6.61839h 0.181345v -6.61839h 0.181345v
 1.39562h 0.181345v -2.66973h 0.181345v 5.9372h 0.181345v -7.10927h 0.181345v 11.3218h 0.181345v 5.9372h 0.181345v -10.1497h 0.181345v 10.1497h 0.181345v -5.9372h 0.181345v -5.9372h 0.181345v 5.9372h 0.181345v -2.25722h 0.181345v 4.92695h 0.181345v
 -2.66973h 0.181345v -5.9372h 0.181345v 1.72469h 0.181345v 4.21251h 0.181345v 5.9372h 0.181345v 4.21251h 0.544034v -10.1497h 0.181345v -7.47999h 0.181345v 1.54279h 0.181345v 3.67998h 0.181345v 2.25722h 0.36269v 2.66973h 0.181345v 3.26748h 0.181345v
 4.21251h 0.181345v -10.1497h 0.36269v 2.66973h 0.181345v 7.47999h 0.181345v -10.1497h 0.181345v 5.9372h 0.181345v -5.9372h 0.181345v 10.1497h 0.36269v -7.47999h 0.181345v 3.26748h 0.181345v -10.1497h 0.181345v 4.21251h 0.181345v -2.25722h 0.181345v
 18.3441h 0.181345v -5.9372h 0.181345v -21.4715h 0.181345v 3.84179h 0.181345v 23.5669h 0.181345v -18.3441h 0.36269v 12.4069h 0.181345v -10.1497h 0.181345v -2.25722h 0.181345v 4.92695h 0.181345v -13.9915h 0.181345v 13.9915h 0.181345v -4.92695h
 0.181345v 4.92695h 0.181345v -8.60693h 0.181345v 8.60693h 0.181345v -4.92695h 0.181345v 4.92695h 0.181345v 3.26748h 0.181345v -17.259h 0.181345v 5.38457h 0.181345v 5.9372h 0.181345v -4.21251h 0.181345v -1.72469h 0.181345v 3.67998h 0.181345v
 -6.61839h 0.181345v 2.93841h 0.181345v 8.60693h 0.181345v -11.5453h 0.181345v 6.61839h 0.181345v -5.22277h 0.181345v 1.54279h 0.181345v -4.21251h 0.181345v 5.9372h 0.181345v -11.0374h 0.181345v 6.37434h 0.181345v -3.53132h 0.181345v 4.92695h
 0.181345v -4.92695h 0.181345v -4.47169h 0.181345v 5.55685h 0.181345v 1.17206h 0.181345v -3.26748h 0.181345v 5.9372h 0.181345v -6.88224h 0.181345v -2.51639h 0.181345v 4.47169h 0.181345v 6.46973h 0.181345v 1.72469h 0.181345v -17.8116h 0.181345v
 13.1485h 0.181345v 1.39562h 0.181345v -6.88224h 0.181345v 0.945034h 0.181345v 3.26748h 0.181345v 4.21251h 0.181345v 11.8744h 0.181345v -3.26748h 0.181345v -12.8194h 0.181345v -6.72891h 0.181345v 8.00301h 0.181345v 1.39562h 0.181345v 7.47999h
 0.181345v 10.1497h 0.181345v -10.1497h 0.181345v -7.47999h 0.181345v 17.6297h 0.181345v -20.2994h 0.181345v 4.21251h 0.181345v 5.9372h 0.36269v 10.1497h 0.181345v -4.21251h 0.181345v -10.1497h 0.181345v 10.1497h 0.181345v -10.1497h 0.181345v
 -1.72469h 0.181345v 11.8744h 0.181345v -8.19443h 0.181345v 8.19443h 0.36269v -5.9372h 0.181345v 10.1497h 0.181345v -7.47999h 0.181345v -8.60693h 0.181345v 22.0241h 0.181345v -5.9372h 0.181345v 5.9372h 0.181345v -18.3441h 0.181345v 4.92695h 0.181345v
 -4.92695h 0.181345v 12.4069h 0.36269v -4.21251h 0.181345v -3.26748h 0.36269v 13.4172h 0.181345v -16.0869h 0.181345v 16.0869h 0.181345v -16.0869h 0.36269v -2.25722h 0.181345v 4.92695h 0.544034v -2.66973h 0.36269v 2.66973h 0.36269v -2.66973h 0.181345v
 5.9372h 0.181345v -3.26748h 0.181345v 7.47999h 0.181345v -4.21251h 0.181345v -10.1497h 0.181345v 4.21251h 0.181345v 5.9372h 0.181345v 4.21251h 0.181345v -4.21251h 0.181345v -5.9372h 0.181345v 2.66973h 0.181345v -6.88224h 0.181345v 4.21251h 0.181345v
 -10.1497h 0.181345v 5.9372h 0.181345v 4.21251h 0.181345v 2.66973h 0.181345v -6.88224h 0.181345v 20.2994h 0.181345v -13.4172h 0.181345v -13.9915h 0.181345v 11.3218h 0.181345v 5.9372h 0.181345v -10.1497h 0.181345v 6.88224h 0.181345v -4.92695h
 0.181345v -5.22277h 0.181345v 5.22277h 0.181345v -6.61839h 0.181345v 2.93841h 0.181345v -1.54279h 0.181345v 7.47999h 0.181345v -11.3218h 0.181345v -1.08516h 0.36269v 2.25722h 0.36269v -4.21251h 0.181345v 8.42503h 0.181345v 1.72469h 0.181345v
 -5.9372h 0.181345v 4.21251h 0.181345v -1.54279h 0.181345v -5.9372h 0.181345v 5.9372h 0.181345v -6.88224h 0.181345v 0.945034h 0.181345v 9.20468h 0.181345v -7.10927h 0.181345v 3.84179h 0.36269v -3.84179h 0.181345v -3.04045h 0.181345v 0.945034h
 0.181345v 4.54158h 0.181345v 11.5453h 0.181345v -12.8194h 0.181345v 10.1497h 0.181345v -2.25722h 0.181345v -9.06456h 0.181345v 1.17206h 0.36269v 1.2741h 0.181345v 11.5453h 0.181345v -4.92695h 0.181345v -10.1497h 0.181345v 8.19443h 0.181345v -4.6631h
 0.181345v 4.6631h 0.36269v 4.21251h 0.181345v -7.47999h 0.36269v 5.22277h 0.181345v -5.22277h 0.36269v 1.54279h 0.181345v -1.54279h 0.181345v 7.47999h 0.181345v -7.47999h 0.181345v 10.1497h 0.181345v -12.8194h 0.181345v 4.21251h 0.181345v 5.9372h
 0.181345v -10.1497h 0.181345v 7.8925h 0.181345v 12.4069h 0.181345v -16.0869h 0.36269v -1.54279h 0.181345v 1.54279h 0.181345v 1.72469h 0.181345v -3.26748h 0.181345v 7.47999h 0.181345v -4.21251h 0.181345v 14.3622h 0.181345v -16.0869h 0.181345v
 -4.21251h 0.181345v 2.66973h 0.181345v 7.47999h 0.181345v -7.47999h 0.36269v -4.92695h 0.181345v 8.19443h 0.181345v -4.6631h 0.181345v -1.2741h 0.181345v 1.2741h 0.181345v -1.2741h 0.36269v 2.66973h 0.181345v -3.84179h 0.181345v 5.38457h 0.181345v
 -1.54279h 0.181345v 1.54279h 0.181345v -9.31275h 0.181345v 3.92818h 0.181345v -1.08516h 0.181345v 2.25722h 0.181345v -7.47999h 0.181345v 17.6297h 0.181345v -12.4069h 0.181345v -3.67998h 0.181345v 4.76514h 0.181345v -4.76514h 0.181345v 7.21131h
 0.181345v -4.54158h 0.181345v 1.01026h 0.181345v -1.01026h 0.181345v -0.945034h 0.36269v 5.48662h 0.181345v -4.54158h 0.36269v -5.60814h 0.181345v 6.61839h 0.181345v 4.92695h 0.181345v -8.60693h 0.36269v -0.791704h 0.181345v 8.00301h 0.181345v
 -8.7541h 0.181345v 5.22277h 0.181345v 1.08516h 0.181345v -5.55685h 0.181345v -0.751085h 0.181345v 1.54279h 0.181345v -2.93841h 0.181345v 1.39562h 0.181345v 5.22277h 0.181345v -6.61839h 0.181345v 4.6631h 0.181345v -1.72469h 0.181345v -4.81027h
 0.181345v 1.87186h 0.181345v -1.87186h 0.181345v 1.87186h 0.181345v 5.60814h 0.36269v -6.25904h 0.181345v 0.650905h 0.181345v -2.99879h 0.181345v 4.39442h 0.181345v 0.751085h 0.181345v -2.79761h 0.181345v 4.42628h 0.181345v -1.62867h 0.181345v
 6.72891h 0.181345v -5.9372h 0.181345v -3.58932h 0.181345v 2.04653h 0.181345v 3.26748h 0.181345v -7.6619h 0.181345v 5.1455h 0.181345v 2.51639h 0.181345v -3.98191h 0.181345v -3.67998h 0.181345v 2.99879h 0.181345v 0.68119h 0.181345v -1.3321h 0.181345v
 0.650905h 0.181345v -2.44616h 0.36269v 3.12735h 0.181345v -3.12735h 0.181345v 8.0543h 0.181345v -5.60814h 0.181345v -1.2741h 0.181345v 2.66973h 0.181345v -3.84179h 0.181345v 3.84179h 0.181345v 0.751085h 0.181345v -2.79761h 0.181345v 5.31401h
 0.181345v -9.20468h 0.181345v 1.54279h 0.181345v 3.67998h 0.181345v 1.46552h 0.181345v -5.67803h 0.181345v 1.08516h 0.181345v -2.09542h 0.181345v 2.09542h 0.181345v 2.44616h 0.181345v -1.87186h 0.181345v -2.66973h 0.181345v 1.54279h 0.181345v
 3.67998h 0.181345v -8.6842h 0.181345v 2.51639h 0.181345v 3.61476h 0.181345v -2.17331h 0.181345v 9.6533h 0.181345v -9.13946h 0.181345v -3.26748h 0.181345v 1.77708h 0.181345v -0.915482h 0.181345v 1.39562h 0.181345v 0.496419h 0.181345v 1.04637h
 0.181345v -4.61372h 0.181345v 0.401202h 0.181345v 1.72469h 0.181345v -3.26748h 0.181345v -1.05899h 0.181345v 1.05899h 0.181345v -1.39562h 0.181345v 3.35092h 0.181345v -1.58457h 0.36269v -3.04045h 0.181345v -1.99338h 0.181345v 4.30153h 0.181345v
 0.7323h 0.181345v -3.04045h 0.181345v -1.17206h 0.181345v 2.7828h 0.181345v -2.20849h 0.181345v 1.54279h 0.181345v 8.03262h 0.181345v -8.66937h 0.181345v 0.63675h 0.181345v -0.321836h 0.181345v -1.79526h 0.181345v 3.48021h 0.181345v -1.99987h
 0.181345v 3.90423h 0.181345v -3.26748h 0.181345v -0.321836h 0.181345v -2.88042h 0.181345v 3.20225h 0.181345v 3.67998h 0.181345v -4.92695h 0.181345v 3.34238h 0.181345v -0.370727h 0.181345v 1.14159h 0.181345v -4.40907h 0.36269v 1.22095h 0.181345v
 -2.07418h 0.181345v 1.14906h 0.181345v 2.61008h 0.181345v -2.61008h 0.181345v 2.97165h 0.181345v 0.751085h 0.181345v -1.81007h 0.181345v 0.344556h 0.181345v 2.66973h 0.181345v -0.813706h 0.36269v -1.50316h 0.181345v 5.58435h 0.181345v -1.95529h
 0.181345v -3.98191h 0.181345v 1.85602h 0.181345v 0.813706h 0.181345v 1.77708h 0.181345v 0.976558h 0.36269v 1.04637h 0.181345v 2.34789h 0.36269v -3.39426h 0.181345v 1.599h 0.181345v -1.599h 0.181345v 6.19187h 0.181345v -3.42081h 0.181345v 1.2741h
 0.181345v -2.44616h 0.181345v 4.59287h 0.181345v -7.16843h 0.181345v 1.4904h 0.181345v 0.53253h 0.181345v 3.67998h 0.181345v -2.55305h 0.181345v -2.66973h 0.181345v 3.89068h 0.181345v -0.623198h 0.181345v -2.25722h 0.181345v -0.51384h 0.181345v
 3.39426h 0.36269v -1.79526h 0.181345v -1.599h 0.181345v -0.976558h 0.181345v 5.02172h 0.181345v -4.04516h 0.181345v 2.77106h 0.181345v -1.72469h 0.181345v 7.6619h 0.181345v -0.887723h 0.181345v -8.7971h 0.181345v 2.57556h 0.181345v 1.17206h
 0.181345v 1.95529h 0.181345v 1.46552h 0.181345v 2.51639h 0.181345v -4.6631h 0.181345v -2.44616h 0.181345v 5.38457h 0.181345v -0.791704h 0.181345v -2.79761h 0.181345v -3.89068h 0.181345v 2.66973h 0.181345v 1.87186h 0.181345v -2.44616h 0.181345v
 2.44616h 0.181345v -1.2741h 0.181345v -0.597754h 0.181345v 1.87186h 0.36269v -3.53132h 0.181345v -1.01026h 0.181345v 3.26748h 0.181345v 3.42081h 0.181345v 2.51639h 0.181345v -6.53496h 0.181345v -2.66973h 0.181345v 7.47999h 0.181345v -4.81027h
 0.181345v -5.74065h 0.181345v 2.12589h 0.181345v 6.16781h 0.181345v -0.68119h 0.181345v 1.39562h 0.181345v -2.04653h 0.181345v 8.35446h 0.181345v -2.09542h 0.181345v -5.60814h 0.181345v -5.48662h 0.181345v 3.61476h 0.181345v 1.87186h 0.181345v
 -7.21131h 0.181345v 5.9372h 0.181345v -2.25722h 0.181345v 3.53132h 0.181345v 5.60814h 0.181345v -9.6533h 0.181345v -3.16614h 0.181345v 6.5604h 0.181345v -2.34789h 0.181345v -0.53253h 0.36269v 2.25722h 0.181345v -4.6631h 0.181345v 0.450588h 0.181345v
 3.61476h 0.181345v -4.06535h 0.181345v 1.89204h 0.181345v 2.17331h 0.181345v -4.92695h 0.181345v 2.25722h 0.181345v 0.496419h 0.181345v 1.04637h 0.181345v -2.02293h 0.181345v -4.79136h 0.181345v 6.28176h 0.181345v 0.53253h 0.181345v -4.21251h
 0.181345v 5.9372h 0.181345v -1.72469h 0.181345v -1.54279h 0.181345v 0.496419h 0.181345v 1.04637h 0.181345v -2.02293h 0.181345v 3.74762h 0.181345v -0.597754h 0.181345v -4.50248h 0.36269v -1.23817h 0.181345v 5.74065h 0.181345v -0.574307h 0.181345v
 -4.35264h 0.181345v -2.31687h 0.181345v 7.84157h 0.36269v -0.597754h 0.181345v -0.574307h 0.181345v -8.35446h 0.181345v 11.4818h 0.181345v -3.12735h 0.181345v -2.09542h 0.181345v -0.48014h 0.181345v -0.915482h 0.181345v 7.33283h 0.181345v -5.9372h
 0.181345v 1.54279h 0.181345v -2.93841h 0.181345v 3.49104h 0.181345v -5.16635h 0.181345v 3.56735h 0.181345v 6.98357h 0.181345v -8.87562h 0.181345v 0.450588h 0.181345v 1.44145h 0.181345v 2.77106h 0.181345v -4.6631h 0.181345v 0.915482h 0.181345v
 -1.35262h 0.181345v 2.84302h 0.181345v -1.01026h 0.181345v -3.84179h 0.181345v 2.89675h 0.181345v -0.887723h 0.181345v 3.37555h 0.181345v -2.02293h 0.181345v 0.976558h 0.181345v -2.75364h 0.181345v -1.20421h 0.181345v 0.791704h 0.181345v -0.791704h
 0.181345v 1.20421h 0.36269v -2.66973h 0.36269v 4.44681h 0.181345v -2.18959h 0.181345v -4.51444h 0.181345v 4.51444h 0.181345v -3.90423h 0.181345v 3.90423h 0.181345v 0.836968h 0.181345v -5.35141h 0.181345v 0.301927h 0.181345v 3.04045h 0.181345v
 -4.21251h 0.181345v 1.79526h 0.181345v 4.86342h 0.181345v -3.53132h 0.36269v 1.85602h 0.181345v -4.11324h 0.181345v 2.61008h 0.181345v -1.99987h 0.181345v 4.31673h 0.181345v -4.00182h 0.181345v -0.623198h 0.181345v -0.301927h 0.181345v 2.61008h
 0.181345v -2.30815h 0.181345v 1.2741h 0.181345v 2.93841h 0.181345v 1.72469h 0.181345v -2.12589h 0.181345v -1.85602h 0.181345v 3.53132h 0.181345v 1.39562h 0.181345v -1.39562h 0.181345v -0.437135h 0.181345v 1.83276h 0.181345v -3.84179h 0.181345v
 1.17206h 0.181345v 1.2741h 0.181345v 3.49104h 0.181345v -3.04045h 0.181345v 0.464895h 0.181345v 0.976558h 0.181345v -3.16614h 0.181345v 7.21131h 0.181345v -1.87186h 0.181345v 3.26748h 0.181345v -4.92695h 0.181345v -1.01026h 0.181345v 5.9372h
 0.181345v -3.26748h 0.36269v 7.47999h 0.181345v -1.83276h 0.181345v -6.22154h 0.181345v 0.574307h 0.181345v 2.55305h 0.181345v -1.3321h 0.181345v 2.04653h 0.181345v 2.37976h 0.181345v -3.77538h 0.181345v -4.04516h 0.181345v 0.51384h 0.181345v
 -1.01026h 0.181345v -1.39562h 0.181345v -1.2741h 0.181345v 3.16614h 0.181345v -2.32918h 0.181345v 5.10024h 0.36269v -2.25722h 0.181345v -1.01026h 0.181345v -1.83276h 0.181345v 6.37434h 0.181345v -2.44616h 0.181345v -4.35264h 0.181345v 3.26748h
 0.181345v -1.95529h 0.181345v 4.21251h 0.181345v 4.21251h 0.181345v -10.1497h 0.181345v 4.21251h 0.36269v -4.21251h 0.181345v 2.18959h 0.181345v -1.35262h 0.181345v 7.76996h 0.181345v -6.88224h 0.181345v -2.12589h 0.181345v 7.61251h 0.181345v
 -5.9372h 0.181345v -3.87588h 0.181345v 3.01428h 0.181345v 3.80001h 0.181345v -1.04637h 0.181345v 4.72635h 0.181345v -5.22277h 0.181345v 1.54279h 0.181345v 4.39442h 0.181345v -8.19443h 0.181345v 8.19443h 0.181345v -3.26748h 0.181345v 1.22095h
 0.181345v -0.623198h 0.181345v -1.17206h 0.181345v 9.06456h 0.181345v -7.2693h 0.181345v 2.79761h 0.181345v 0.791704h 0.181345v 1.72469h 0.181345v 3.04045h 0.181345v -8.35446h 0.181345v 2.79761h 0.36269v 1.62867h 0.181345v 7.76996h 0.181345v
 -15.0767h 0.181345v 10.1497h 0.181345v -4.47169h 0.181345v -3.42081h 0.181345v 1.95529h 0.181345v 8.19443h 0.181345v 2.66973h 0.181345v -9.39863h 0.181345v 6.72891h 0.181345v -1.17206h 0.36269v 5.38457h 0.181345v -1.54279h 0.181345v -3.84179h
 0.181345v -6.30793h 0.181345v 13.4172h 0.181345v -1.72469h 0.181345v -9.31275h 0.181345v 2.84302h 0.181345v 4.92695h 0.181345v -1.39562h 0.181345v 8.87562h 0.181345v -5.9372h 0.181345v -10.1497h 0.181345v 3.67998h 0.181345v -3.67998h 0.181345v
 8.60693h 0.181345v -11.5453h 0.181345v 6.61839h 0.181345v -1.01026h 0.181345v 7.47999h 0.181345v -2.93841h 0.181345v -7.21131h 0.181345v 4.76514h 0.181345v -1.08516h 0.181345v -1.01026h 0.181345v 1.01026h 0.181345v -1.01026h 0.181345v 13.4172h
 0.181345v -11.3218h 0.36269v -1.08516h 0.36269v -6.61839h 0.36269v 2.14671h 0.181345v 0.791704h 0.181345v 7.21131h 0.181345v -10.1497h 0.181345v 13.0881h 0.181345v -5.38457h 0.181345v -3.04045h 0.181345v 0.945034h 0.181345v -3.46143h 0.36269v
 3.46143h 0.36269v -2.66973h 0.181345v -2.93841h 0.181345v 5.60814h 0.181345v 3.26748h 0.181345v -1.17206h 0.181345v -1.08516h 0.181345v -1.95529h 0.181345v 6.88224h 0.181345v -10.1497h 0.181345v -0.714432h 0.181345v 8.19443h 0.181345v -5.10024h
 0.181345v -1.62867h 0.181345v 3.46143h 0.181345v -1.83276h 0.181345v 0.887723h 0.181345v 8.42503h 0.181345v -7.47999h 0.181345v -2.66973h 0.181345v -3.58932h 0.181345v 3.58932h 0.181345v 1.72469h 0.36269v -2.51639h 0.36269v -2.79761h 0.181345v
 8.35446h 0.181345v 1.17206h 0.181345v -3.26748h 0.181345v -6.25904h 0.181345v 6.25904h 0.181345v 1.01026h 0.181345v 2.25722h 0.36269v -5.9372h 0.181345v 4.76514h 0.181345v -7.02236h 0.181345v 5.9372h 0.181345v -3.67998h 0.181345v 3.67998h 0.181345v
 -7.2693h 0.181345v 7.2693h 0.181345v -2.84302h 0.181345v 2.84302h 0.181345v -4.47169h 0.181345v 8.00301h 0.181345v -5.48662h 0.181345v -2.51639h 0.181345v 14.6214h 0.181345v -12.105h 0.181345v 6.88224h 0.181345v -8.60693h 0.181345v -2.25722h
 0.181345v 3.98191h 0.181345v 3.04045h 0.181345v -3.04045h 0.36269v 0.945034h 0.36269v -1.83276h 0.181345v -0.836968h 0.181345v 8.60693h 0.181345v -6.88224h 0.181345v 1.95529h 0.181345v -7.8925h 0.181345v 5.04948h 0.181345v -0.836968h 0.181345v
 1.72469h 0.181345v 3.04045h 0.181345v -4.76514h 0.181345v 2.66973h 0.181345v 1.01026h 0.181345v -3.67998h 0.181345v -0.791704h 0.181345v 0.791704h 0.181345v 1.72469h 0.181345v -3.98191h 0.181345v -4.21251h 0.181345v 8.19443h 0.181345v -3.98191h
 0.181345v 0.714432h 0.181345v -2.04653h 0.181345v 0.650905h 0.36269v -1.2741h 0.181345v 7.8925h 0.181345v -4.47169h 0.181345v -3.42081h 0.181345v -1.17206h 0.181345v -0.55263h 0.181345v -1.54279h 0.181345v 2.66973h 0.181345v -1.65947h 0.181345v
 1.65947h 0.181345v -1.65947h 0.181345v 4.21251h 0.181345v -10.1497h 0.181345v 1.46552h 0.181345v 1.62867h 0.181345v 7.05553h 0.181345v -3.12735h 0.181345v 0.574307h 0.181345v -2.17331h 0.181345v 1.599h 0.181345v -3.49104h 0.181345v 0.915482h
 0.544034v -2.98129h 0.181345v 6.13115h 0.181345v -1.12694h 0.181345v -7.47999h 0.181345v 4.10445h 0.36269v -1.62867h 0.181345v 1.20421h 0.181345v 5.5247h 0.181345v -6.33841h 0.181345v 1.6753h 0.181345v 1.39562h 0.181345v -3.46143h 0.181345v 5.00422h
 0.181345v -1.04637h 0.181345v -0.976558h 0.181345v -1.35262h 0.36269v 3.37555h 0.181345v -2.93841h 0.181345v 2.40588h 0.181345v 1.65947h 0.181345v -6.51151h 0.181345v 5.38457h 0.181345v -2.02293h 0.181345v -0.464895h 0.181345v 6.16781h 0.181345v
 -5.70291h 0.181345v 6.41734h 0.181345v -5.9372h 0.181345v -0.945034h 0.181345v 4.83571h 0.181345v 2.79761h 0.181345v 8.00301h 0.181345v -1.2741h 0.181345v -3.26748h 0.181345v 1.01026h 0.181345v -1.01026h 0.36269v 2.09542h 0.181345v 7.10927h
 0.181345v -9.20468h 0.181345v 2.09542h 0.36269v 9.06456h 0.181345v -6.61839h 0.181345v 4.6631h 0.181345v -4.6631h 0.181345v 1.39562h 0.181345v -2.66973h 0.181345v 4.21251h 0.181345v 8.60693h 0.181345v -8.60693h 0.181345v 1.72469h 0.36269v 4.21251h
 0.181345v -8.87562h 0.181345v 4.6631h 0.181345v 30.4492h 0.181345v -20.2994h 0.181345v 4.21251h 0.36269v -7.47999h 0.181345v -6.88224h 0.36269v 6.88224h 0.181345v 7.47999h 0.181345v -4.21251h 0.181345v 10.1497h 0.181345v -5.9372h 0.36269v 16.0869h
 0.36269v -26.2366h 0.181345v 36.3864h 0.181345v -30.4492h 0.36269v 4.21251h 0.181345v 16.0869h 0.181345v 10.1497h 0.181345v -26.2366h 0.181345v -4.21251h 0.181345v 20.2994h 0.181345v -10.1497h 0.181345v 20.2994h 0.181345v -20.2994h 0.181345v
 10.1497h 0.181345v -16.0869h 0.181345v 16.0869h 0.181345v -10.1497h 0.544034v 20.2994h 0.181345v -20.2994h 0.181345v -5.9372h 0.181345v 26.2366h 0.181345v -10.1497h 0.181345v -10.1497h 0.181345v 10.1497h 0.181345v -16.0869h 0.181345v -4.21251h
 0.181345v 10.1497h 0.181345v 20.2994h 0.181345v -20.2994h 0.181345v -10.1497h 0.181345v 30.4492h 0.181345v -10.1497h 0.181345v 10.1497h 0.181345v -10.1497h 0.181345v 10.1497h 0.181345v -10.1497h 0.544034v -10.1497h 0.181345v -5.9372h 0.181345v
 5.9372h 0.181345v 20.2994h 0.181345v -10.1497h 0.181345v -23.5669h 0.181345v 7.47999h 0.181345v 16.0869h 0.36269v 10.1497h 0.181345v -10.1497h 0.181345v -10.1497h 0.181345v 10.1497h 0.181345v 10.1497h 0.544034v -10.1497h 0.181345v -16.0869h
 0.181345v -7.47999h 0.181345v 23.5669h 0.36269v 10.1497h 0.36269v -10.1497h 0.181345v 10.1497h 0.36269v -10.1497h 0.181345v -10.1497h 0.181345v -5.9372h 0.181345v 26.2366h 0.181345v -10.1497h 0.181345v -16.0869h 0.181345v 5.9372h 0.181345v 10.1497h
 0.36269v 10.1497h 0.36269v -10.1497h 0.181345v 10.1497h 0.544034v -26.2366h 0.181345v 16.0869h 0.181345v 10.1497h 0.181345v -20.2994h 0.181345v 20.2994h 0.36269v -10.1497h 0.725379v 10.1497h 0.36269v -10.1497h 0.181345v -10.1497h 0.181345v 20.2994h
 0.181345v -10.1497h 0.181345v -16.0869h 0.181345v 16.0869h 0.181345v 10.1497h 0.36269v -20.2994h 0.181345v 10.1497h 0.181345v 10.1497h 0.181345v -20.2994h 0.36269v 20.2994h 0.36269v -30.4492h 0.181345v 30.4492h 0.181345v -10.1497h 0.181345v 10.1497h
 0.181345v -10.1497h 0.181345v -10.1497h 0.181345v 10.1497h 0.181345v 10.1497h 0.181345v -20.2994h 0.181345v 10.1497h 0.181345v 10.1497h 0.181345v -20.2994h 0.181345v 20.2994h 0.181345v -20.2994h 0.181345v 20.2994h 0.181345v -20.2994h 0.181345v
 20.2994h 0.181345v -20.2994h 0.181345v -5.9372h 0.181345v 16.0869h 0.36269v 10.1497h 0.181345v -10.1497h 0.181345v 10.1497h 0.181345v -10.1497h 0.181345v 10.1497h 0.181345v -10.1497h 0.181345v -10.1497h 0.181345v 20.2994h 0.181345v -10.1497h
 0.181345v -10.1497h 0.181345v -5.9372h 0.181345v 16.0869h 0.906724v 10.1497h 0.36269v -26.2366h 0.36269v 26.2366h 0.36269v -10.1497h 0.181345v 10.1497h 0.181345v -30.4492h 0.181345v 20.2994h 0.181345v 10.1497h 0.181345v -26.2366h 0.181345v 16.0869h
 0.181345v -10.1497h 0.181345v 10.1497h 0.181345v 10.1497h 0.725379v -20.2994h 0.181345v 10.1497h 0.544034v 10.1497h 0.181345v -10.1497h 0.181345v 10.1497h 0.181345v -10.1497h 0.36269v 10.1497h 0.181345v -10.1497h 0.725379v 10.1497h 0.544034v
 -26.2366h 0.181345v 26.2366h 0.725379v -20.2994h 0.181345v 10.1497h 0.181345v -10.1497h 0.181345v 10.1497h 0.181345v 10.1497h 0.725379v -26.2366h 0.181345v 26.2366h 0.181345v -20.2994h 0.36269v 20.2994h 0.181345v -20.2994h 0.181345v 20.2994h
 0.544034v -10.1497h 0.181345v 10.1497h 0.36269v -20.2994h 0.181345v 10.1497h 0.544034v -10.1497h 0.36269v -5.9372h 0.181345v 26.2366h 0.181345v -20.2994h 0.181345v 20.2994h 0.36269v -20.2994h 0.36269v 20.2994h 0.181345v -10.1497h 0.181345v -20.2994h
 0.181345v 10.1497h 0.181345v 20.2994h 0.544034v -10.1497h 0.725379v 10.1497h 0.181345v -20.2994h 0.36269v -5.9372h 0.181345v 16.0869h 0.181345v -10.1497h 0.181345v 20.2994h 0.544034v -10.1497h 0.36269v -10.1497h 0.181345v 10.1497h 0.36269v 10.1497h
 0.36269v -10.1497h 1.08807v -10.1497h 0.181345v 20.2994h 0.544034v -10.1497h 0.181345v 10.1497h 0.181345v -26.2366h 0.181345v 26.2366h 0.36269v -20.2994h 0.181345v 10.1497h 0.36269v 10.1497h 0.181345v -10.1497h 0.36269v 10.1497h 0.36269v -10.1497h
 0.181345v 10.1497h 0.181345v -10.1497h 0.181345v -10.1497h 0.36269v 20.2994h 0.181345v -10.1497h 0.36269v -28.4939h 0.181345v 28.4939h 0.36269v -16.0869h 0.181345v 26.2366h 0.181345v -10.1497h 0.181345v -10.1497h 0.181345v 10.1497h 0.181345v
 10.1497h 0.36269v -20.2994h 0.36269v 10.1497h 0.181345" fill="none" stroke="black"/>
<path d="M57.1929,280.151h 453.543" fill="none" stroke="black"/>
<path d="M57.1929,272.68v 7.47068" fill="none" stroke="black"/>
<path d="M75.3318,276.415v 3.73534" fill="none" stroke="black"/>
<path d="M93.4707,276.415v 3.73534" fill="none" stroke="black"/>
<path d="M111.61,276.415v 3.73534" fill="none" stroke="black"/>
<path d="M129.749,276.415v 3.73534" fill="none" stroke="black"/>
<path d="M147.887,272.68v 7.47068" fill="none" stroke="black"/>
<path d="M166.026,276.415v 3.73534" fill="none" stroke="black"/>
<path d="M184.165,276.415v 3.73534" fill="none" stroke="black"/>
<path d="M202.304,276.415v 3.73534" fill="none" stroke="black"/>
<path d="M220.443,276.415v 3.73534" fill="none" stroke="black"/>
<path d="M238.582,272.68v 7.47068" fill="none" stroke="black"/>
<path d="M256.721,276.415v 3.73534" fill="none" stroke="black"/>
<path d="M274.86,276.415v 3.73534" fill="none" stroke="black"/>
<path d="M292.999,276.415v 3.73534" fill="none" stroke="black"/>
<path d="M311.138,276.415v 3.73534" fill="none" stroke="black"/>
<path d="M329.277,272.68v 7.47068" fill="none" stroke="black"/>
<path d="M347.415,276.415v 3.73534" fill="none" stroke="black"/>
<path d="M365.554,276.415v 3.73534" fill="none" stroke="black"/>
<path d="M383.693,276.415v 3.73534" fill="none" stroke="black"/>
<path d="M401.832,276.415v 3.73534" fill="none" stroke="black"/>
<path d="M419.971,272.68v 7.47068" fill="none" stroke="black"/>
<path d="M438.11,276.415v 3.73534" fill="none" stroke="black"/>
<path d="M456.249,276.415v 3.73534" fill="none" stroke="black"/>
<path d="M474.388,276.415v 3.73534" fill="none" stroke="black"/>
<path d="M492.527,276.415v 3.73534" fill="none" stroke="black"/>
<path d="M510.666,272.68v 7.47068" fill="none" stroke="black"/>
<path d="M510.666,272.68v 7.47068" fill="none" stroke="black"/>
<text xml:space="preserve" x="54.3523" y="290.27" fill="black" font-size="10.4952" font-family="Helvetica">0</text>
<text xml:space="preserve" x="139.569" y="290.27" fill="black" font-size="10.4952" font-family="Helvetica">500</text>
<text xml:space="preserve" x="227.449" y="290.27" fill="black" font-size="10.4952" font-family="Helvetica">1000</text>
<text xml:space="preserve" x="318.288" y="290.27" fill="black" font-size="10.4952" font-family="Helvetica">1500</text>
<text xml:space="preserve" x="408.831" y="290.27" fill="black" font-size="10.4952" font-family="Helvetica">2000</text>
<text xml:space="preserve" x="499.67" y="290.27" fill="black" font-size="10.4952" font-family="Helvetica">2500</text>
<text xml:space="preserve" x="265.323" y="301.218" fill="black" font-size="10.4952" font-family="Helvetica">Channel</text>
<path d="M57.1929,280.151v -249.023" fill="none" stroke="black"/>
<path d="M63.9961,280.151h -6.80315" fill="none" stroke="black"/>
<path d="M63.9961,277.481h -6.80315" fill="none" stroke="black"/>
<path d="M63.9961,275.224h -6.80315" fill="none" stroke="black"/>
<path d="M63.9961,273.268h -6.80315" fill="none" stroke="black"/>
<path d="M63.9961,271.544h -6.80315" fill="none" stroke="black"/>
<path d="M70.7992,270.001h -13.6063" fill="none" stroke="black"/>
<text xml:space="preserve" x="49.0263" y="273.7" fill="black" font-size="10.4952" font-family="Helvetica">1</text>
<path d="M63.9961,259.851h -6.80315" fill="none" stroke="black"/>
<path d="M63.9961,253.914h -6.80315" fill="none" stroke="black"/>
<path d="M63.9961,249.701h -6.80315" fill="none" stroke="black"/>
<path d="M63.9961,246.434h -6.80315" fill="none" stroke="black"/>
<path d="M63.9961,243.764h -6.80315" fill="none" stroke="black"/>
<path d="M63.9961,241.507h -6.80315" fill="none" stroke="black"/>
<path d="M63.9961,239.552h -6.80315" fill="none" stroke="black"/>
<path d="M63.9961,237.827h -6.80315" fill="none" stroke="black"/>
<path d="M70.7992,236.284h -13.6063" fill="none" stroke="black"/>
<text xml:space="preserve" x="41.629" y="239.968" fill="black" font-size="10.4952" font-family="Helvetica">10</text>
<path d="M63.9961,226.134h -6.80315" fill="none" stroke="black"/>
<path d="M63.9961,220.197h -6.80315" fill="none" stroke="black"/>
<path d="M63.9961,215.985h -6.80315" fill="none" stroke="black"/>
<path d="M63.9961,212.717h -6.80315" fill="none" stroke="black"/>
<path d="M63.9961,210.048h -6.80315" fill="none" stroke="black"/>
<path d="M63.9961,207.79h -6.80315" fill="none" stroke="black"/>
<path d="M63.9961,205.835h -6.80315" fill="none" stroke="black"/>
<path d="M63.9961,204.11h -6.80315" fill="none" stroke="black"/>
<path d="M70.7992,202.568h -13.6063" fill="none" stroke="black"/>
<text xml:space="preserve" x="49.0263" y="202.686" fill="black" font-size="7.16345" font-family="Helvetica">2</text>
<text xml:space="preserve" x="38.0783" y="207.124" fill="black" font-size="10.4952" font-family="Helvetica">10</text>
<path d="M63.9961,192.418h -6.80315" fill="none" stroke="black"/>
<path d="M63.9961,186.481h -6.80315" fill="none" stroke="black"/>
<path d="M63.9961,182.268h -6.80315" fill="none" stroke="black"/>
<path d="M63.9961,179.001h -6.80315" fill="none" stroke="black"/>
<path d="M63.9961,176.331h -6.80315" fill="none" stroke="black"/>
<path d="M63.9961,174.074h -6.80315" fill="none" stroke="black"/>
<path d="M63.9961,172.118h -6.80315" fill="none" stroke="black"/>
<path d="M63.9961,170.394h -6.80315" fill="none" stroke="black"/>
<path d="M70.7992,168.851h -13.6063" fill="none" stroke="black"/>
<text xml:space="preserve" x="49.0263" y="168.658" fill="black" font-size="7.16345" font-family="Helvetica">3</text>
<text xml:space="preserve" x="38.0783" y="173.393" fill="black" font-size="10.4952" font-family="Helvetica">10</text>
<path d="M63.9961,158.701h -6.80315" fill="none" stroke="black"/>
<path d="M63.9961,152.764h -6.80315" fill="none" stroke="black"/>
<path d="M63.9961,148.551h -6.80315" fill="none" stroke="black"/>
<path d="M63.9961,145.284h -6.80315" fill="none" stroke="black"/>
<path d="M63.9961,142.614h -6.80315" fill="none" stroke="black"/>
<path d="M63.9961,140.357h -6.80315" fill="none" stroke="black"/>
<path d="M63.9961,138.402h -6.80315" fill="none" stroke="black"/>
<path d="M63.9961,136.677h -6.80315" fill="none" stroke="black"/>
<path d="M70.7992,135.134h -13.6063" fill="none" stroke="black"/>
<text xml:space="preserve" x="49.0263" y="135.223" fill="black" font-size="7.16345" font-family="Helvetica">4</text>
<text xml:space="preserve" x="38.0783" y="139.661" fill="black" font-size="10.4952" font-family="Helvetica">10</text>
<path d="M63.9961,124.985h -6.80315" fill="none" stroke="black"/>
<path d="M63.9961,119.047h -6.80315" fill="none" stroke="black"/>
<path d="M63.9961,114.835h -6.80315" fill="none" stroke="black"/>
<path d="M63.9961,111.567h -6.80315" fill="none" stroke="black"/>
<path d="M63.9961,108.898h -6.80315" fill="none" stroke="black"/>
<path d="M63.9961,106.64h -6.80315" fill="none" stroke="black"/>
<path d="M63.9961,104.685h -6.80315" fill="none" stroke="black"/>
<path d="M63.9961,102.96h -6.80315" fill="none" stroke="black"/>
<path d="M70.7992,101.418h -13.6063" fill="none" stroke="black"/>
<text xml:space="preserve" x="49.0263" y="101.195" fill="black" font-size="7.16345" font-family="Helvetica">5</text>
<text xml:space="preserve" x="38.0783" y="105.929" fill="black" font-size="10.4952" font-family="Helvetica">10</text>
<path d="M63.9961,91.268h -6.80315" fill="none" stroke="black"/>
<path d="M63.9961,85.3307h -6.80315" fill="none" stroke="black"/>
<path d="M63.9961,81.1182h -6.80315" fill="none" stroke="black"/>
<path d="M63.9961,77.8508h -6.80315" fill="none" stroke="black"/>
<path d="M63.9961,75.181h -6.80315" fill="none" stroke="black"/>
<path d="M63.9961,72.9238h -6.80315" fill="none" stroke="black"/>
<path d="M63.9961,70.9685h -6.80315" fill="none" stroke="black"/>
<path d="M63.9961,69.2438h -6.80315" fill="none" stroke="black"/>
<path d="M70.7992,67.701h -13.6063" fill="none" stroke="black"/>
<text xml:space="preserve" x="49.0263" y="67.4634" fill="black" font-size="7.16345" font-family="Helvetica">6</text>
<text xml:space="preserve" x="38.0783" y="72.1977" fill="black" font-size="10.4952" font-family="Helvetica">10</text>
<path d="M63.9961,57.5513h -6.80315" fill="none" stroke="black"/>
<path d="M63.9961,51.6141h -6.80315" fill="none" stroke="black"/>
<path d="M63.9961,47.4016h -6.80315" fill="none" stroke="black"/>
<path d="M63.9961,44.1341h -6.80315" fill="none" stroke="black"/>
<path d="M63.9961,41.4644h -6.80315" fill="none" stroke="black"/>
<path d="M63.9961,39.2072h -6.80315" fill="none" stroke="black"/>
<path d="M63.9961,37.2519h -6.80315" fill="none" stroke="black"/>
<path d="M63.9961,35.5272h -6.80315" fill="none" stroke="black"/>
<path d="M70.7992,33.9844h -13.6063" fill="none" stroke="black"/>
<text xml:space="preserve" x="49.0263" y="34.0276" fill="black" font-size="7.16345" font-family="Helvetica">7</text>
<text xml:space="preserve" x="38.0783" y="38.466" fill="black" font-size="10.4952" font-family="Helvetica">10</text>
<g transform="rotate(-90,26.5385,191.442)">
<text xml:space="preserve" x="26.5385" y="191.442" fill="black" font-size="10.4952" font-family="Helvetica">Counts/Channel</text>
</g>
<text xml:space="preserve" x="404.097" y="67.4634" fill="black" font-size="14.7788" font-family="Helvetica" font-weight="bold"> = 2.4879 MeV</text>
<text xml:space="preserve" x="398.179" y="70.7182" fill="black" font-size="10.0192" font-family="Helvetica" font-weight="bold">p</text>
<text xml:space="preserve" x="389.006" y="67.4634" fill="black" font-size="14.7788" font-family="Helvetica" font-weight="bold">E</text>
<path d="M262.163,167.455v 25.2065" fill="none" stroke="black"/>
<path d="M264.454,192.662l -2.29122, 3.9685l -2.29122, -3.9685z" fill="black"/>
<path d="M264.454,192.662l -2.29122, 3.9685l -2.29122, -3.9685h 4.58243z" fill="none" stroke="black"/>
<text xml:space="preserve" x="266.803" y="165.404" fill="black" font-size="10.4952" font-family="Helvetica" font-weight="bold">_1 	1.369 MeV</text>
<text xml:space="preserve" x="260.293" y="165.404" fill="black" font-size="10.4952" font-family="Times">&#0945;</text>
<path d="M184.528,135.134v 29.7481" fill="none" stroke="black"/>
<path d="M186.819,164.882l -2.29122, 3.9685l -2.29122, -3.9685z" fill="black"/>
<path d="M186.819,164.882l -2.29122, 3.9685l -2.29122, -3.9685h 4.58243z" fill="none" stroke="black"/>
<text xml:space="preserve" x="172.117" y="132.264" fill="black" font-size="10.4952" font-family="Helvetica" font-weight="bold"># p_1 	0.844 MeV</text>
<path d="M210.104,152.764v 12.1184" fill="none" stroke="black"/>
<path d="M212.395,164.882l -2.29122, 3.9685l -2.29122, -3.9685z" fill="black"/>
<path d="M212.395,164.882l -2.29122, 3.9685l -2.29122, -3.9685h 4.58243z" fill="none" stroke="black"/>
<text xml:space="preserve" x="197.564" y="148.538" fill="black" font-size="10.4952" font-family="Helvetica" font-weight="bold"># p_2 	1.015 MeV</text>
<path d="M498.022,270.001h 12.6439" fill="none" stroke="black"/>
<path d="M504.344,259.851h 6.32193" fill="none" stroke="black"/>
<path d="M504.344,253.914h 6.32193" fill="none" stroke="black"/>
<path d="M504.344,249.701h 6.32193" fill="none" stroke="black"/>
<path d="M504.344,246.434h 6.32193" fill="none" stroke="black"/>
<path d="M504.344,243.764h 6.32193" fill="none" stroke="black"/>
<path d="M504.344,241.507h 6.32193" fill="none" stroke="black"/>
<path d="M504.344,239.552h 6.32193" fill="none" stroke="black"/>
<path d="M504.344,237.827h 6.32193" fill="none" stroke="black"/>
<path d="M498.022,236.284h 12.6439" fill="none" stroke="black"/>
<path d="M504.344,226.134h 6.32193" fill="none" stroke="black"/>
<path d="M504.344,220.197h 6.32193" fill="none" stroke="black"/>
<path d="M504.344,215.985h 6.32193" fill="none" stroke="black"/>
<path d="M504.344,212.717h 6.32193" fill="none" stroke="black"/>
<path d="M504.344,210.048h 6.32193" fill="none" stroke="black"/>
<path d="M504.344,207.79h 6.32193" fill="none" stroke="black"/>
<path d="M504.344,205.835h 6.32193" fill="none" stroke="black"/>
<path d="M504.344,204.11h 6.32193" fill="none" stroke="black"/>
<path d="M498.022,202.568h 12.6439" fill="none" stroke="black"/>
<path d="M504.344,192.418h 6.32193" fill="none" stroke="black"/>
<path d="M504.344,186.481h 6.32193" fill="none" stroke="black"/>
<path d="M504.344,182.268h 6.32193" fill="none" stroke="black"/>
<path d="M504.344,179.001h 6.32193" fill="none" stroke="black"/>
<path d="M504.344,176.331h 6.32193" fill="none" stroke="black"/>
<path d="M504.344,174.074h 6.32193" fill="none" stroke="black"/>
<path d="M504.344,172.118h 6.32193" fill="none" stroke="black"/>
<path d="M504.344,170.394h 6.32193" fill="none" stroke="black"/>
<path d="M498.022,168.851h 12.6439" fill="none" stroke="black"/>
<path d="M504.344,158.701h 6.32193" fill="none" stroke="black"/>
<path d="M504.344,152.764h 6.32193" fill="none" stroke="black"/>
<path d="M504.344,148.551h 6.32193" fill="none" stroke="black"/>
<path d="M504.344,145.284h 6.32193" fill="none" stroke="black"/>
<path d="M504.344,142.614h 6.32193" fill="none" stroke="black"/>
<path d="M504.344,140.357h 6.32193" fill="none" stroke="black"/>
<path d="M504.344,138.402h 6.32193" fill="none" stroke="black"/>
<path d="M504.344,136.677h 6.32193" fill="none" stroke="black"/>
<path d="M498.022,135.134h 12.6439" fill="none" stroke="black"/>
<path d="M504.344,124.985h 6.32193" fill="none" stroke="black"/>
<path d="M504.344,119.047h 6.32193" fill="none" stroke="black"/>
<path d="M504.344,114.835h 6.32193" fill="none" stroke="black"/>
<path d="M504.344,111.567h 6.32193" fill="none" stroke="black"/>
<path d="M504.344,108.898h 6.32193" fill="none" stroke="black"/>
<path d="M504.344,106.64h 6.32193" fill="none" stroke="black"/>
<path d="M504.344,104.685h 6.32193" fill="none" stroke="black"/>
<path d="M504.344,102.96h 6.32193" fill="none" stroke="black"/>
<path d="M498.022,101.418h 12.6439" fill="none" stroke="black"/>
<path d="M504.344,91.268h 6.32193" fill="none" stroke="black"/>
<path d="M504.344,85.3307h 6.32193" fill="none" stroke="black"/>
<path d="M504.344,81.1182h 6.32193" fill="none" stroke="black"/>
<path d="M504.344,77.8508h 6.32193" fill="none" stroke="black"/>
<path d="M504.344,75.181h 6.32193" fill="none" stroke="black"/>
<path d="M504.344,72.9238h 6.32193" fill="none" stroke="black"/>
<path d="M504.344,70.9685h 6.32193" fill="none" stroke="black"/>
<path d="M504.344,69.2438h 6.32193" fill="none" stroke="black"/>
<path d="M498.022,67.701h 12.6439" fill="none" stroke="black"/>
<path d="M504.344,57.5513h 6.32193" fill="none" stroke="black"/>
<path d="M504.344,51.6141h 6.32193" fill="none" stroke="black"/>
<path d="M504.344,47.4016h 6.32193" fill="none" stroke="black"/>
<path d="M504.344,44.1341h 6.32193" fill="none" stroke="black"/>
<path d="M504.344,41.4644h 6.32193" fill="none" stroke="black"/>
<path d="M504.344,39.2072h 6.32193" fill="none" stroke="black"/>
<path d="M57.1929,46.0622v -7.46952" fill="none" stroke="black"/>
<path d="M75.3318,46.0622v -7.46952" fill="none" stroke="black"/>
<path d="M93.4707,46.0622v -7.46952" fill="none" stroke="black"/>
<path d="M111.61,46.0622v -7.46952" fill="none" stroke="black"/>
<path d="M129.749,46.0622v -7.46952" fill="none" stroke="black"/>
<path d="M147.887,46.0622v -7.46952" fill="none" stroke="black"/>
<path d="M166.026,46.0622v -7.46952" fill="none" stroke="black"/>
<path d="M184.165,46.0622v -7.46952" fill="none" stroke="black"/>
<path d="M202.304,46.0622v -7.46952" fill="none" stroke="black"/>
<path d="M220.443,46.0622v -7.46952" fill="none" stroke="black"/>
<path d="M238.582,46.0622v -7.46952" fill="none" stroke="black"/>
<path d="M256.721,46.0622v -7.46952" fill="none" stroke="black"/>
<path d="M274.86,46.0622v -7.46952" fill="none" stroke="black"/>
<path d="M292.999,46.0622v -7.46952" fill="none" stroke="black"/>
<path d="M311.138,46.0622v -7.46952" fill="none" stroke="black"/>
<path d="M329.277,46.0622v -7.46952" fill="none" stroke="black"/>
<path d="M347.415,46.0622v -7.46952" fill="none" stroke="black"/>
<path d="M365.554,46.0622v -7.46952" fill="none" stroke="black"/>
<path d="M383.693,46.0622v -7.46952" fill="none" stroke="black"/>
<path d="M401.832,46.0622v -7.46952" fill="none" stroke="black"/>
<path d="M419.971,46.0622v -7.46952" fill="none" stroke="black"/>
<path d="M438.11,46.0622v -7.46952" fill="none" stroke="black"/>
<path d="M456.249,46.0622v -7.46952" fill="none" stroke="black"/>
<path d="M474.388,46.0622v -7.46952" fill="none" stroke="black"/>
<path d="M492.527,46.0622v -7.46952" fill="none" stroke="black"/>
<path d="M510.666,46.0622v -7.46952" fill="none" stroke="black"/></svg>
