<?xml version="1.0" standalone="no"?>
<svg width="567.429" height="311.778" viewBox="0 0 567.429 311.778" xmlns="http://www.w3.org/2000/svg" shape-rendering="crispEdges">
<title>
Yields/P1/run_0107/det0_Fit.svg
</title>
<desc>
Creator: ROOT Version 6.12/06
CreationDate: Mon Apr 15 10:29:02 2019</desc>
<defs>
</defs>
<rect x="0.5" y="0" width="566.929" height="311.278" fill="white"/>
<rect x="57.1929" y="31.1278" width="453.543" height="249.023" fill="white"/>
<rect x="57.1929" y="31.1278" width="453.543" height="249.023" fill="none" stroke="black"/>
<path d="M57.1929,40.776h 0.181345v 239.375h 0.725379v -10.4644h 0.36269v 10.4644h 18.3158v -10.4644h 0.181345v 10.4644h 0.725379v -10.4644h 0.181345v 10.4644h 3.80824v -10.4644h 0.181345v 10.4644h 1.08807v -10.4644h 0.181345v 10.4644h 2.17614v
 -10.4644h 0.181345v 10.4644h 0.544034v -10.4644h 0.181345v 10.4644h 0.36269v -10.4644h 0.181345v 10.4644h 0.725379v -10.4644h 0.181345v 10.4644h 0.181345v -20.9288h 0.181345v 10.4644h 0.181345v -10.4644h 0.181345v -6.12129h 0.181345v -4.34313h
 0.181345v 10.4644h 0.181345v -20.9288h 0.181345v -13.0588h 0.181345v -15.7695h 0.181345v -13.721h 0.181345v -7.34702h 0.181345v -6.93025h 0.181345v -5.1421h 0.181345v -3.683h 0.181345v -2.17664h 0.181345v -0.354748h 0.181345v -1.3222h 0.181345v
 -0.719479h 0.181345v -1.17788h 0.181345v -0.280652h 0.181345v -0.435287h 0.181345v -0.345627h 0.181345v -1.32267h 0.181345v 0.330866h 0.181345v -0.765644h 0.181345v 0.0276755h 0.181345v 0.237313h 0.181345v -0.525405h 0.181345v -0.296029h 0.181345v
 0.282446h 0.181345v 0.0544036h 0.181345v -0.310176h 0.181345v 0.120616h 0.181345v -0.671087h 0.181345v -0.267887h 0.181345v 0.0760554h 0.181345v -0.264534h 0.181345v 0.264534h 0.181345v -0.252042h 0.181345v 0.15072h 0.181345v 0.15224h 0.181345v
 -0.190061h 0.181345v 0.0378212h 0.181345v -0.125704h 0.181345v 0.0250572h 0.181345v 0.484164h 0.181345v -0.658697h 0.181345v 0.249956h 0.181345v -0.821556h 0.181345v 0.313527h 0.181345v -0.301588h 0.181345v 0.42393h 0.181345v 0.704066h 0.181345v
 -0.305772h 0.181345v 0.487041h 0.181345v 0.395922h 0.181345v -0.590057h 0.181345v 1.17629h 0.181345v -0.330002h 0.181345v 0.233004h 0.181345v 0.420165h 0.181345v -0.0141956h 0.181345v -0.74739h 0.181345v 0.536043h 0.181345v -0.975211h 0.181345v
 0.479732h 0.181345v -0.70108h 0.181345v -0.128705h 0.181345v -1.31254h 0.181345v -3.39462h 0.181345v -1.80213h 0.181345v -4.13983h 0.181345v -3.42313h 0.181345v -3.77501h 0.181345v -3.02059h 0.181345v -3.13995h 0.181345v -2.1583h 0.181345v -1.82992h
 0.181345v -1.45985h 0.181345v -0.0454646h 0.181345v -0.371278h 0.181345v 1.2056h 0.181345v 0.950431h 0.181345v 2.64457h 0.181345v 2.24021h 0.181345v 3.82398h 0.181345v 3.43809h 0.181345v 3.95816h 0.181345v 4.04906h 0.181345v 5.05333h 0.181345v
 3.65365h 0.181345v 4.10538h 0.181345v 2.37264h 0.181345v 1.56469h 0.181345v 2.33899h 0.181345v 0.138125h 0.181345v 0.393612h 0.181345v 0.699599h 0.181345v -1.20381h 0.181345v 2.28594h 0.181345v -0.962312h 0.181345v 0.676556h 0.181345v 0.741302h
 0.181345v 0.77959h 0.181345v -1.23514h 0.181345v -0.254271h 0.181345v 0.512898h 0.181345v -0.762957h 0.181345v 0.697883h 0.36269v 0.528613h 0.181345v 0.478225h 0.181345v -1.29625h 0.181345v 1.29625h 0.181345v 0.0347456h 0.181345v -0.309869h
 0.181345v -0.43665h 0.181345v 0.26721h 0.181345v 1.375h 0.181345v -0.400667h 0.181345v -0.736584h 0.181345v 0.311289h 0.181345v 0.461283h 0.181345v -1.01032h 0.181345v 0.619097h 0.181345v 0.105697h 0.181345v 0.21364h 0.181345v -0.49387h 0.181345v
 1.26636h 0.181345v 0.934131h 0.181345v 0.040205h 0.181345v -0.860682h 0.181345v 0.58147h 0.181345v 1.10665h 0.181345v -0.746706h 0.181345v 1.39847h 0.181345v -0.566475h 0.181345v 0.0428283h 0.181345v -1.96759h 0.181345v 3.17242h 0.181345v -1.03229h
 0.181345v -1.08779h 0.181345v 1.1748h 0.181345v 1.70743h 0.181345v -1.39887h 0.181345v 0.590333h 0.181345v -1.41361h 0.181345v -0.250925h 0.181345v 1.85092h 0.181345v 0.331815h 0.181345v 0.192935h 0.181345v 0.900086h 0.181345v -2.72672h 0.181345v
 1.53815h 0.181345v 1.60651h 0.181345v -1.88958h 0.181345v 0.571562h 0.181345v 0.594056h 0.181345v 0.101322h 0.181345v 0.204708h 0.181345v -0.506657h 0.181345v -0.197996h 0.181345v -0.483919h 0.181345v 0.632172h 0.181345v 0.300946h 0.181345v 0.9406h
 0.181345v 0.108222h 0.181345v -2.07689h 0.181345v 1.54337h 0.181345v -0.156447h 0.181345v 0.963964h 0.181345v -1.01575h 0.181345v 0.10376h 0.181345v 1.023h 0.181345v 0.11183h 0.181345v -0.387833h 0.181345v -0.59001h 0.181345v 1.03407h 0.181345v
 0.574098h 0.181345v -1.12716h 0.181345v 0.0544036h 0.181345v -0.482715h 0.181345v -0.921457h 0.181345v 0.608014h 0.181345v 0.52608h 0.181345v -0.52608h 0.181345v 0.313443h 0.181345v -3.88764h 0.181345v 0.752914h 0.181345v -0.422912h 0.181345v
 -2.20758h 0.181345v -0.531015h 0.181345v -1.00908h 0.181345v -0.730385h 0.181345v -1.22032h 0.181345v 0.523647h 0.181345v -0.147289h 0.181345v 0.506757h 0.181345v -0.389042h 0.181345v 0.178313h 0.181345v 1.6739h 0.181345v 1.28934h 0.181345v 1.01562h
 0.181345v 1.0889h 0.181345v 0.993865h 0.181345v 0.453397h 0.181345v 1.75517h 0.181345v -0.256321h 0.181345v 3.85958h 0.181345v -3.55147h 0.181345v 1.9937h 0.181345v 0.29896h 0.181345v 1.32459h 0.181345v -1.08109h 0.181345v 0.562685h 0.181345v
 -1.2231h 0.181345v -0.175209h 0.181345v 2.52201h 0.181345v -1.37638h 0.181345v -2.10181h 0.181345v 2.93896h 0.181345v -2.15597h 0.181345v 1.3816h 0.181345v -0.676556h 0.181345v 0.427013h 0.181345v 0.186769h 0.181345v 1.44516h 0.181345v -0.870577h
 0.181345v 1.79444h 0.181345v -3.51466h 0.181345v 1.72021h 0.181345v -2.00778h 0.181345v 2.67296h 0.181345v -1.48827h 0.181345v -0.12274h 0.181345v 1.2084h 0.181345v -0.89966h 0.181345v 0.379023h 0.181345v 1.05987h 0.181345v -0.136625h 0.181345v
 -0.665172h 0.181345v 0.665172h 0.181345v -2.44334h 0.181345v 2.17374h 0.181345v -1.64397h 0.181345v -0.29661h 0.181345v -0.0586291h 0.181345v -0.686344h 0.181345v -0.0558114h 0.181345v -0.970854h 0.181345v -1.01021h 0.181345v -0.0974002h 0.181345v
 0.343686h 0.181345v -1.73396h 0.181345v 1.58571h 0.181345v -0.243898h 0.181345v -0.476285h 0.181345v 1.84277h 0.181345v -0.469374h 0.181345v -0.305h 0.181345v 2.27697h 0.181345v -1.39628h 0.181345v 2.99991h 0.181345v -0.321909h 0.181345v -0.126866h
 0.181345v -1.61587h 0.181345v 2.72982h 0.181345v -2.03291h 0.181345v 2.03291h 0.181345v -1.30227h 0.181345v 1.23442h 0.181345v -0.46661h 0.181345v 0.948103h 0.181345v -0.549041h 0.181345v 1.0464h 0.181345v -2.02495h 0.181345v -0.918963h 0.181345v
 2.16954h 0.181345v 0.417454h 0.36269v -0.689479h 0.181345v -0.399062h 0.181345v -0.767808h 0.181345v 0.702311h 0.181345v 1.36718h 0.181345v -2.19374h 0.181345v 0.631765h 0.181345v 0.392151h 0.181345v 0.334758h 0.181345v 0.481493h 0.181345v
 -0.139144h 0.181345v 0.928239h 0.181345v -0.0734647h 0.181345v -1.79444h 0.181345v -0.574584h 0.181345v 1.23976h 0.181345v -1.23976h 0.181345v 2.36903h 0.181345v -1.12927h 0.181345v 0.205404h 0.181345v -1.31935h 0.181345v -1.15486h 0.181345v
 3.99606h 0.181345v -1.86265h 0.181345v 3.13473h 0.181345v -2.79392h 0.181345v -0.273256h 0.181345v -0.982796h 0.181345v 0.0635663h 0.181345v 0.518402h 0.181345v 1.02276h 0.181345v -2.28684h 0.181345v 0.430493h 0.181345v 0.0625134h 0.181345v 1.79384h
 0.181345v -1.08854h 0.181345v -0.516186h 0.181345v -1.27656h 0.181345v 0.716196h 0.181345v 0.371256h 0.181345v 1.03711h 0.181345v -1.03711h 0.181345v 1.51425h 0.181345v -1.38845h 0.181345v 0.126866h 0.181345v 0.192321h 0.181345v 0.659361h 0.181345v
 -1.10436h 0.181345v 0.0627734h 0.181345v 1.04158h 0.181345v -1.53661h 0.181345v 1.07205h 0.181345v 0.0654967h 0.181345v 1.2303h 0.181345v -2.84716h 0.181345v 2.08347h 0.181345v -1.96506h 0.181345v 1.30281h 0.181345v -0.572164h 0.181345v 0.83359h
 0.181345v -2.31779h 0.181345v 1.35994h 0.181345v 0.503279h 0.181345v 0.855395h 0.181345v -0.46661h 0.181345v -0.705295h 0.181345v 0.639798h 0.181345v 2.63532h 0.181345v -2.23801h 0.181345v 0.0672472h 0.181345v 0.619097h 0.181345v 0.427301h 0.36269v
 -0.215162h 0.181345v -1.2303h 0.181345v 0.534462h 0.181345v 1.4253h 0.181345v -1.28868h 0.181345v 0.702311h 0.181345v 0.736584h 0.181345v -2.81528h 0.181345v 1.44516h 0.181345v -0.068779h 0.181345v 2.37303h 0.181345v -1.88486h 0.181345v -0.827438h
 0.181345v 2.08317h 0.181345v -1.39682h 0.181345v 2.18742h 0.181345v 0.495027h 0.181345v 0.511811h 0.181345v -1.48615h 0.181345v 1.39963h 0.181345v -2.24069h 0.181345v 2.41422h 0.181345v -2.33967h 0.181345v 1.57403h 0.181345v 0.250925h 0.181345v
 -1.05844h 0.181345v 1.22807h 0.181345v -2.29061h 0.181345v 2.37615h 0.181345v 1.6288h 0.181345v -0.836354h 0.181345v -0.619904h 0.181345v -0.0865158h 0.181345v 1.35287h 0.181345v -2.27319h 0.181345v 3.04757h 0.181345v -0.584472h 0.181345v -0.836354h
 0.181345v 0.0906728h 0.181345v 1.93817h 0.181345v -2.90682h 0.181345v 1.71433h 0.181345v 2.60039h 0.181345v -1.09446h 0.181345v -0.921457h 0.181345v 0.711774h 0.181345v 0.856796h 0.181345v -2.98939h 0.181345v 1.42083h 0.181345v -2.63618h 0.181345v
 2.43883h 0.181345v 0.197349h 0.181345v -0.961916h 0.181345v -0.90428h 0.181345v 0.90428h 0.181345v 0.09348h 0.181345v 2.00253h 0.181345v -1.33144h 0.181345v -0.0977154h 0.181345v -1.39456h 0.181345v 3.81948h 0.181345v -0.995766h 0.181345v 1.57873h
 0.181345v -1.36306h 0.181345v 0.329402h 0.181345v -2.64109h 0.181345v -0.0929047h 0.181345v 0.662669h 0.181345v -0.476285h 0.181345v 0.379818h 0.181345v 0.891227h 0.181345v -1.08233h 0.181345v 0.191103h 0.181345v 1.62271h 0.181345v -1.52625h
 0.181345v 0.794761h 0.181345v -1.17698h 0.181345v 2.45354h 0.181345v -1.47921h 0.181345v -1.34712h 0.181345v -0.0917752h 0.181345v 2.8075h 0.181345v -1.56857h 0.181345v -0.488618h 0.181345v 0.0964666h 0.181345v 1.85092h 0.181345v -1.55777h 0.181345v
 -1.13994h 0.181345v -1.05987h 0.181345v 1.43037h 0.181345v 1.47645h 0.181345v 1.9864h 0.181345v -1.9864h 0.181345v -1.75517h 0.181345v 2.28125h 0.181345v -2.00253h 0.181345v 2.77127h 0.181345v -2.1979h 0.181345v 2.65542h 0.181345v -1.33295h
 0.181345v 0.541168h 0.181345v -2.62339h 0.181345v 2.62339h 0.181345v -0.109797h 0.181345v -0.537315h 0.181345v -1.21652h 0.181345v 2.1979h 0.181345v -1.70287h 0.181345v 0.100983h 0.181345v 0.620511h 0.181345v -1.21652h 0.181345v 0.697674h 0.181345v
 1.95774h 0.181345v -2.5577h 0.181345v 1.0136h 0.181345v -0.915248h 0.181345v 0.915248h 0.181345v -1.49597h 0.181345v -0.650432h 0.181345v 0.461717h 0.181345v 0.283964h 0.181345v 2.82914h 0.181345v -5.61346h 0.181345v 0.159758h 0.181345v 2.24712h
 0.181345v 0.09348h 0.181345v -2.01592h 0.181345v 1.3734h 0.181345v -0.8729h 0.36269v -1.60758h 0.181345v 1.60758h 0.181345v -1.06418h 0.181345v -1.99615h 0.181345v 2.72483h 0.181345v -2.58568h 0.181345v -0.0697321h 0.181345v -0.613505h 0.181345v
 -0.589544h 0.181345v 0.656493h 0.181345v 0.477145h 0.181345v -0.274498h 0.181345v -1.36453h 0.181345v 1.43268h 0.181345v 0.627678h 0.181345v -0.559211h 0.181345v 0.559211h 0.181345v -0.141757h 0.181345v 1.79581h 0.181345v -3.83817h 0.181345v 1.6249h
 0.181345v 1.21412h 0.181345v -0.796668h 0.181345v 1.48128h 0.181345v 0.0780207h 0.181345v -0.537862h 0.181345v 0.382222h 0.181345v 2.79903h 0.181345v -3.33147h 0.181345v 0.15022h 0.181345v -0.879684h 0.181345v -2.78807h 0.181345v -0.40884h 0.181345v
 2.09846h 0.181345v -3.20903h 0.181345v 0.0536305h 0.181345v -1.48279h 0.181345v -2.87376h 0.181345v -1.23625h 0.181345v -1.81521h 0.181345v -1.04816h 0.181345v -2.35349h 0.181345v -0.490792h 0.181345v -1.90751h 0.181345v -1.51202h 0.181345v -1.6311h
 0.181345v -1.30603h 0.181345v 0.303298h 0.181345v -0.876151h 0.181345v -0.0800902h 0.181345v -0.717553h 0.181345v 1.07317h 0.181345v 0.14793h 0.181345v 0.350914h 0.181345v 1.05004h 0.181345v 0.666969h 0.181345v 1.9592h 0.181345v 1.40012h 0.181345v
 0.480836h 0.181345v 2.57763h 0.181345v 0.864623h 0.181345v 1.96341h 0.181345v 3.13473h 0.181345v 0.216603h 0.181345v 1.56156h 0.181345v 2.12693h 0.181345v 3.14759h 0.181345v 1.13994h 0.181345v 1.39456h 0.181345v -0.321224h 0.181345v 1.32806h
 0.181345v 0.801797h 0.181345v 0.559211h 0.181345v 2.02949h 0.181345v 0.553064h 0.181345v -0.981376h 0.181345v -0.313443h 0.181345v 0.633532h 0.181345v 0.217226h 0.181345v -0.217226h 0.181345v -1.24155h 0.181345v 3.69509h 0.181345v -1.10067h
 0.181345v -0.464559h 0.181345v -0.11394h 0.181345v -0.666151h 0.181345v 1.72396h 0.181345v -2.25748h 0.181345v -1.2084h 0.181345v 2.07132h 0.181345v 1.7643h 0.181345v 0.125287h 0.181345v -0.855928h 0.181345v -0.118408h 0.181345v -2.59442h 0.181345v
 4.34313h 0.181345v -2.32721h 0.181345v 1.05781h 0.181345v -1.28314h 0.181345v 0.922239h 0.181345v 0.239639h 0.181345v 0.491002h 0.181345v -1.42755h 0.181345v 0.578499h 0.181345v -0.803831h 0.181345v -0.111417h 0.181345v 1.2733h 0.181345v 0.243505h
 0.181345v 3.58513h 0.181345v -2.43797h 0.181345v -1.98278h 0.181345v 2.65988h 0.181345v 0.139144h 0.181345v -0.549041h 0.181345v -1.29113h 0.181345v 1.84017h 0.181345v -0.948103h 0.181345v 0.80896h 0.181345v -2.42582h 0.181345v 2.56496h 0.181345v
 -2.91471h 0.181345v 1.70631h 0.181345v 0.931386h 0.181345v -0.272025h 0.181345v 0.409898h 0.181345v -0.409898h 0.181345v 1.5607h 0.181345v -1.95976h 0.181345v 3.53379h 0.181345v -2.72483h 0.181345v 0.854774h 0.181345v -0.290335h 0.181345v -1.6337h
 0.181345v 1.06926h 0.181345v -1.45148h 0.181345v 2.60228h 0.181345v -3.09731h 0.181345v 3.70737h 0.181345v -2.83012h 0.181345v -0.755006h 0.181345v 3.43029h 0.181345v -1.60602h 0.181345v -0.80896h 0.181345v 4.74219h 0.181345v -1.85783h 0.181345v
 -1.07333h 0.181345v 0.603959h 0.181345v -4.03184h 0.181345v 4.66097h 0.181345v 2.06188h 0.181345v -1.40538h 0.181345v -0.495027h 0.181345v -3.07373h 0.181345v 1.53188h 0.181345v 0.147289h 0.181345v -0.722481h 0.181345v -0.689479h 0.181345v 0.974336h
 0.181345v 1.83218h 0.181345v -1.24582h 0.181345v 4.69599h 0.181345v -5.56722h 0.181345v 2.78075h 0.181345v -3.73744h 0.181345v 0.816251h 0.181345v 2.58568h 0.36269v -4.04997h 0.181345v 1.32515h 0.181345v -4.30846h 0.181345v 2.36195h 0.181345v
 -3.6582h 0.181345v 1.50593h 0.181345v -3.64082h 0.181345v -2.16039h 0.181345v -0.770778h 0.181345v -2.33696h 0.181345v -3.48537h 0.181345v -1.87592h 0.181345v -0.915248h 0.181345v -0.605473h 0.181345v -3.58241h 0.181345v -0.658361h 0.181345v
 -2.64005h 0.181345v -0.599348h 0.181345v -2.1257h 0.181345v -0.156244h 0.181345v -1.3734h 0.181345v -0.557276h 0.181345v 0.223918h 0.181345v 0.0870145h 0.181345v -1.07761h 0.181345v 0.818057h 0.181345v 0.738299h 0.181345v 0.254347h 0.181345v
 1.32027h 0.181345v 0.779636h 0.181345v 0.844352h 0.181345v 1.79488h 0.181345v 1.25445h 0.181345v 0.640152h 0.181345v 2.13417h 0.181345v 2.18056h 0.181345v 2.10809h 0.181345v 3.40146h 0.181345v 0.386415h 0.181345v 2.42069h 0.181345v 2.80511h
 0.181345v 2.48613h 0.181345v 2.20346h 0.181345v -0.838936h 0.181345v 3.29248h 0.181345v 0.127401h 0.181345v 2.05252h 0.181345v 2.37615h 0.181345v 2.61588h 0.181345v 5.32653h 0.181345v -5.32653h 0.181345v 2.9166h 0.181345v -0.245485h 0.181345v
 -0.713375h 0.181345v 0.95886h 0.181345v -3.11925h 0.181345v -0.199963h 0.181345v -0.392151h 0.181345v 1.41955h 0.181345v 0.214145h 0.181345v 1.35287h 0.181345v 0.974336h 0.181345v -0.249542h 0.181345v 0.503279h 0.181345v -4.40696h 0.181345v 4.40696h
 0.181345v -0.253737h 0.181345v -0.495027h 0.181345v 0.748764h 0.181345v -0.748764h 0.181345v 1.80864h 0.36269v 1.43889h 0.181345v -3.00205h 0.36269v 2.40993h 0.181345v -0.846781h 0.181345v 3.02952h 0.181345v -4.34313h 0.181345v -1.43889h 0.181345v
 -1.10246h 0.181345v 2.29181h 0.181345v 0.249542h 0.181345v 1.31361h 0.181345v -3.64082h 0.181345v 1.83218h 0.181345v -0.479309h 0.181345v -1.13565h 0.181345v -0.850759h 0.181345v 4.55137h 0.181345v -1.07881h 0.181345v -0.258074h 0.181345v -1.22807h
 0.181345v -1.56702h 0.181345v 1.80477h 0.181345v 5.41898h 0.181345v -4.93194h 0.181345v -2.07767h 0.181345v 2.58094h 0.181345v 1.61908h 0.181345v 0.28757h 0.181345v -5.32653h 0.181345v 2.9166h 0.181345v 0.249542h 0.36269v 3.0575h 0.181345v
 -0.897114h 0.181345v -5.92649h 0.181345v 1.65612h 0.181345v 1.13565h 0.181345v 0.237752h 0.181345v -1.153h 0.181345v 1.39456h 0.181345v -1.39456h 0.181345v 0.915248h 0.181345v 0.974336h 0.181345v -0.736584h 0.181345v -0.471819h 0.181345v 2.52201h
 0.181345v -4.06611h 0.181345v 1.5441h 0.181345v -0.230493h 0.181345v 3.02952h 0.181345v -2.32721h 0.181345v -2.01592h 0.181345v 6.43914h 0.181345v -6.01384h 0.181345v -0.214145h 0.181345v 2.04633h 0.181345v 0.748764h 0.181345v 0.520637h 0.181345v
 1.38602h 0.181345v -0.569765h 0.181345v -1.59062h 0.181345v -0.495027h 0.181345v 2.65542h 0.181345v -1.38602h 0.181345v -0.262563h 0.181345v 0.801797h 0.181345v -1.56315h 0.36269v 0.249542h 0.181345v 3.36879h 0.181345v -0.915248h 0.181345v -2.19981h
 0.181345v 4.08939h 0.181345v -0.331815h 0.181345v -1.85092h 0.181345v -0.846781h 0.181345v -1.80864h 0.181345v 4.18166h 0.181345v -2.64505h 0.181345v 2.32721h 0.181345v -2.85698h 0.181345v 3.4995h 0.181345v -3.4995h 0.181345v 1.36101h 0.181345v
 4.24848h 0.181345v -4.24848h 0.544034v -2.36785h 0.181345v 4.50634h 0.36269v -1.85092h 0.181345v 0.897114h 0.181345v 2.32721h 0.181345v -2.01592h 0.181345v -0.311289h 0.181345v -4.03184h 0.181345v 6.72285h 0.181345v -2.06188h 0.36269v 0.324679h
 0.181345v -2.42069h 0.181345v 4.91289h 0.181345v -1.47405h 0.181345v -3.15665h 0.181345v 2.47031h 0.181345v -0.656493h 0.181345v 4.8882h 0.181345v -2.45354h 0.36269v -1.43889h 0.181345v -4.42866h 0.181345v 4.08939h 0.181345v -4.83815h 0.181345v
 7.7933h 0.181345v -1.54977h 0.181345v -4.70693h 0.181345v 2.96973h 0.36269v 1.7372h 0.181345v -1.40538h 0.181345v -2.47031h 0.181345v 6.2644h 0.181345v -5.97683h 0.181345v -1.11881h 0.181345v 3.64082h 0.181345v 8.53453h 0.181345v -10.7634h 0.181345v
 1.88958h 0.181345v 2.16039h 0.181345v -1.11881h 0.181345v 5.07971h 0.181345v -6.12129h 0.181345v 3.36879h 0.181345v -1.59062h 0.181345v -0.372784h 0.181345v 0.755006h 0.181345v 0.794761h 0.36269v -0.794761h 0.181345v 2.98657h 0.181345v 0.974336h
 0.181345v -3.16614h 0.181345v -1.17698h 0.181345v -1.09182h 0.181345v 2.26881h 0.181345v -3.61164h 0.181345v 5.33889h 0.181345v -2.12986h 0.181345v 0.40261h 0.181345v 5.91865h 0.181345v -3.72684h 0.181345v 3.72684h 0.181345v -5.91865h 0.181345v
 3.16614h 0.181345v 1.59062h 0.181345v -0.549041h 0.181345v -1.53661h 0.181345v -2.67112h 0.181345v 8.55086h 0.181345v 0.736584h 0.181345v -7.56019h 0.181345v -0.888313h 0.181345v 8.4485h 0.181345v -5.60948h 0.181345v 3.4995h 0.181345v -1.25881h
 0.181345v -0.592114h 0.181345v 6.41445h 0.181345v -5.20605h 0.181345v 1.31361h 0.181345v 4.80769h 0.181345v -4.80769h 0.181345v 1.43889h 0.181345v -5.07971h 0.181345v 2.32721h 0.181345v 0.642521h 0.181345v -1.85092h 0.181345v 8.30403h 0.181345v
 -6.45311h 0.181345v 4.56353h 0.181345v 0.915248h 0.181345v 2.01592h 0.181345v -9.91538h 0.181345v 6.12129h 0.181345v -1.59062h 0.181345v 4.34313h 0.181345v -7.09563h 0.181345v 2.01592h 0.181345v 5.07971h 0.181345v 1.04158h 0.181345v -4.61034h
 0.181345v 2.59442h 0.181345v 4.34313h 0.181345v -5.25838h 0.36269v 4.04997h 0.181345v -4.91289h 0.181345v 1.77817h 0.181345v 7.09563h 0.181345v -8.01088h 0.181345v 1.88958h 0.181345v -4.34313h 0.181345v 2.45354h 0.36269v -0.862919h 0.181345v
 3.79409h 0.181345v -3.79409h 0.181345v -0.816251h 0.181345v 13.0588h 0.181345v -13.0588h 0.181345v 2.59442h 0.181345v -2.59442h 0.181345v 1.67917h 0.181345v -6.98421h 0.181345v 6.98421h 0.181345v -2.45354h 0.181345v -3.96091h 0.181345v -2.16039h
 0.181345v -0.495027h 0.181345v 2.65542h 0.181345v -1.64858h 0.181345v -4.08056h 0.181345v -4.44212h 0.181345v 2.22886h 0.181345v -3.90803h 0.181345v -2.44029h 0.181345v 0.929338h 0.181345v 2.05019h 0.181345v -4.06611h 0.181345v -4.34313h 0.181345v
 0.642521h 0.181345v -0.798968h 0.181345v -1.48128h 0.181345v -1.98061h 0.181345v 1.02392h 0.181345v -0.648038h 0.181345v 2.17992h 0.181345v -0.992647h 0.181345v 1.59062h 0.181345v -0.597978h 0.181345v -2.92254h 0.181345v 3.52052h 0.181345v 1.10708h
 0.181345v -1.70506h 0.181345v 0.296029h 0.181345v 3.33147h 0.181345v 0.377444h 0.181345v -0.189902h 0.181345v 4.59686h 0.181345v 3.4329h 0.181345v -0.629131h 0.36269v -0.603959h 0.181345v -1.13994h 0.181345v 8.65579h 0.181345v 2.08565h 0.36269v
 -2.56496h 0.181345v 7.87h 0.181345v 3.56875h 0.181345v -5.07971h 0.181345v 2.32721h 0.181345v 0.862919h 0.181345v 0.915248h 0.181345v 5.65674h 0.181345v -1.31361h 0.181345v -9.8219h 0.181345v 2.88436h 0.181345v -2.88436h 0.181345v -0.642521h
 0.181345v -0.616288h 0.181345v -1.71092h 0.181345v -1.04158h 0.181345v -0.495027h 0.181345v -3.8481h 0.181345v -2.7525h 0.181345v 0.974336h 0.181345v -4.08939h 0.181345v 1.33689h 0.181345v -3.25655h 0.181345v -4.9504h 0.181345v -1.0956h 0.181345v
 -1.02144h 0.181345v -0.823675h 0.181345v -0.525165h 0.181345v -0.631765h 0.181345v -1.30329h 0.181345v -2.01592h 0.181345v -0.0989969h 0.181345v -1.7672h 0.181345v 0.536043h 0.181345v -1.87888h 0.181345v 1.51941h 0.181345v -1.75842h 0.181345v
 -0.0788355h 0.181345v -1.28081h 0.181345v 3.29673h 0.181345v -2.55653h 0.181345v -0.955358h 0.181345v 0.955358h 0.181345v 0.61945h 0.181345v -0.845344h 0.181345v -1.08139h 0.181345v 0.0697321h 0.181345v -2.08565h 0.36269v 0.81287h 0.181345v 2.1357h
 0.181345v -2.76483h 0.181345v -1.6889h 0.181345v 0.84996h 0.181345v -0.683753h 0.181345v -1.53481h 0.181345v 0.0504073h 0.181345v -0.29995h 0.181345v -1.14353h 0.181345v 0.752653h 0.181345v 0.292209h 0.181345v -0.388368h 0.181345v -0.237752h
 0.181345v 0.774373h 0.181345v 0.504963h 0.36269v 1.22981h 0.181345v 0.0558114h 0.181345v 1.65288h 0.181345v 1.43889h 0.181345v 0.992647h 0.181345v 0.90609h 0.181345v 2.6285h 0.181345v 0.375099h 0.181345v 0.0952493h 0.181345v 3.0614h 0.181345v
 2.40543h 0.181345v 3.89244h 0.181345v 3.59245h 0.181345v 1.91966h 0.181345v -0.99032h 0.181345v 2.89697h 0.181345v 1.2084h 0.181345v 5.20605h 0.181345v -4.56353h 0.181345v 7.49469h 0.181345v -1.53661h 0.181345v 1.00684h 0.181345v 10.9942h 0.181345v
 -4.61034h 0.181345v 1.67917h 0.181345v -0.862919h 0.181345v 7.4349h 0.181345v -9.76211h 0.181345v 14.5698h 0.181345v -7.3297h 0.181345v -7.94241h 0.181345v 13.4939h 0.181345v 8.8738h 0.181345v -10.4644h 0.181345v 5.38471h 0.181345v -2.01592h
 0.181345v -7.3297h 0.181345v 7.3297h 0.181345v -1.77817h 0.181345v -5.55153h 0.181345v 3.96091h 0.181345v 1.59062h 0.181345v 3.79409h 0.181345v 12.7916h 0.181345v -12.7916h 0.181345v -5.38471h 0.181345v 18.1763h 0.181345v -19.6152h 0.181345v
 4.80769h 0.181345v 20.9288h 0.181345v -13.8332h 0.181345v -7.09563h 0.181345v 4.34313h 0.181345v -2.32721h 0.36269v 5.07971h 0.544034v 7.71192h 0.181345v -10.4644h 0.181345v 27.0501h 0.181345v -16.5857h 0.181345v -10.4644h 0.181345v 10.4644h
 0.181345v -4.34313h 0.181345v -3.36879h 0.181345v 34.7621h 0.181345v -20.9288h 0.181345v -10.4644h 0.36269v 10.4644h 0.181345v -13.8332h 0.181345v 7.71192h 0.181345v 27.0501h 0.181345v -34.7621h 0.36269v 13.8332h 0.36269v 10.4644h 0.181345v 10.4644h
 0.181345v -20.9288h 0.181345v -20.9288h 0.181345v 20.9288h 0.181345v -10.4644h 0.36269v -3.36879h 0.181345v 3.36879h 0.181345v 4.34313h 0.36269v -10.4644h 0.181345v 10.4644h 0.181345v -7.71192h 0.181345v 3.36879h 0.181345v 4.34313h 0.181345v
 -4.34313h 0.181345v -3.36879h 0.181345v -5.07971h 0.544034v 18.9129h 0.181345v -18.9129h 0.181345v 8.4485h 0.181345v -3.36879h 0.181345v -8.8738h 0.36269v -1.59062h 0.181345v 3.36879h 0.181345v -8.4485h 0.181345v 8.4485h 0.181345v -8.4485h 0.181345v
 6.67034h 0.181345v -3.02952h 0.181345v 4.80769h 0.181345v -16.5857h 0.181345v 8.13721h 0.181345v -6.12129h 0.181345v 8.4485h 0.181345v -6.12129h 0.181345v 1.77817h 0.181345v -1.77817h 0.181345v -1.59062h 0.181345v -1.43889h 0.181345v -0.671087h
 0.181345v 3.70061h 0.181345v -0.816251h 0.181345v 1.67917h 0.181345v -6.41445h 0.181345v 8.30403h 0.181345v 1.04158h 0.181345v -2.01592h 0.181345v -1.77817h 0.181345v 0.862919h 0.181345v -3.19013h 0.181345v -1.3734h 0.181345v 11.1355h 0.181345v
 1.43889h 0.181345v 3.36879h 0.181345v -8.4485h 0.181345v 10.4644h 0.181345v 2.32721h 0.181345v -11.6728h 0.181345v 11.6728h 0.36269v -2.32721h 0.181345v -2.01592h 0.181345v 4.34313h 0.181345v 2.7525h 0.181345v -5.07971h 0.181345v -2.01592h 0.181345v
 -4.80769h 0.181345v 19.6152h 0.181345v -10.4644h 0.181345v 27.0501h 0.181345v -16.5857h 0.181345v -10.4644h 0.181345v 10.4644h 0.181345v -4.34313h 0.181345v -3.36879h 0.36269v 7.71192h 0.181345v -16.5857h 0.181345v 12.2426h 0.181345v 20.9288h
 0.181345v -10.4644h 0.181345v 10.4644h 0.181345v -20.9288h 0.181345v 20.9288h 0.181345v -16.5857h 0.181345v 6.12129h 0.181345v -6.12129h 0.544034v -4.34313h 0.181345v 4.34313h 0.181345v -7.71192h 0.181345v 13.8332h 0.181345v -6.12129h 0.36269v
 -4.34313h 0.36269v 10.4644h 0.181345v -16.5857h 0.181345v 6.12129h 0.181345v 4.34313h 0.544034v -7.71192h 0.181345v 13.8332h 0.181345v -13.8332h 0.36269v -2.7525h 0.181345v 6.12129h 0.181345v 4.34313h 0.36269v -19.6152h 0.181345v 25.7365h 0.181345v
 -22.707h 0.181345v 33.1714h 0.181345v -24.2976h 0.181345v 3.36879h 0.181345v -3.36879h 0.181345v 24.2976h 0.181345v -24.2976h 0.181345v 13.8332h 0.181345v -18.9129h 0.181345v -2.01592h 0.181345v 2.01592h 0.36269v -3.79409h 0.181345v 3.79409h
 0.181345v -9.34562h 0.181345v 38.723h 0.181345v -29.3773h 0.181345v -3.79409h 0.181345v -3.02952h 0.181345v 15.2721h 0.181345v -6.12129h 0.181345v 2.7525h 0.181345v -2.7525h 0.181345v -4.34313h 0.181345v 4.34313h 0.181345v 2.7525h 0.181345v -2.7525h
 0.36269v -7.71192h 0.181345v -5.07971h 0.181345v 10.4644h 0.181345v -8.13721h 0.181345v 1.31361h 0.181345v 1.43889h 0.181345v -5.07971h 0.181345v 2.32721h 0.181345v 8.13721h 0.181345v -6.82361h 0.181345v 1.43889h 0.36269v -1.43889h 0.181345v
 19.6152h 0.181345v -25.272h 0.181345v 3.13473h 0.181345v 7.3297h 0.181345v -1.77817h 0.181345v 8.8738h 0.181345v -8.8738h 0.181345v -3.02952h 0.181345v 9.15081h 0.181345v -4.34313h 0.181345v 4.34313h 0.181345v -4.34313h 0.36269v 4.34313h 0.181345v
 10.4644h 0.181345v -16.5857h 0.181345v 6.12129h 0.181345v 2.7525h 0.36269v -16.5857h 0.181345v 13.8332h 0.181345v -2.32721h 0.181345v -5.38471h 0.181345v 5.38471h 0.181345v 5.07971h 0.181345v -7.09563h 0.181345v -4.80769h 0.181345v 4.80769h 0.36269v
 4.34313h 0.36269v -4.34313h 0.181345v 10.4644h 0.181345v 10.4644h 0.181345v -22.707h 0.181345v 8.8738h 0.181345v -5.07971h 0.181345v 5.07971h 0.181345v 13.8332h 0.181345v -20.9288h 0.181345v 7.09563h 0.181345v -5.07971h 0.181345v -3.79409h 0.181345v
 -3.02952h 0.181345v 9.15081h 0.181345v -11.6728h 0.181345v 2.52201h 0.181345v -1.31361h 0.181345v 10.4644h 0.181345v -9.15081h 0.181345v 9.15081h 0.181345v -12.7916h 0.181345v 8.4485h 0.36269v -13.0588h 0.181345v 4.61034h 0.181345v 2.32721h
 0.181345v 1.31361h 0.181345v 1.43889h 0.181345v 18.1763h 0.181345v -16.5857h 0.181345v 6.12129h 0.181345v -2.32721h 0.181345v -2.01592h 0.181345v -3.36879h 0.181345v 5.38471h 0.181345v -10.4644h 0.181345v 1.11881h 0.181345v 1.2084h 0.36269v 2.7525h
 0.36269v 10.4644h 0.181345v -16.5857h 0.181345v 1.04158h 0.181345v -1.04158h 0.181345v 11.506h 0.181345v -11.506h 0.181345v 2.16039h 0.181345v -6.50352h 0.181345v 4.34313h 0.181345v 6.12129h 0.181345v 1.59062h 0.181345v -6.67034h 0.181345v -1.04158h
 0.181345v 4.6824h 0.181345v 9.15081h 0.181345v -2.32721h 0.181345v -8.13721h 0.181345v 6.12129h 0.181345v -9.49009h 0.181345v -5.07971h 0.181345v 14.5698h 0.181345v -13.8332h 0.181345v 15.8491h 0.181345v -8.13721h 0.181345v -4.34313h 0.181345v
 5.65674h 0.181345v -6.57198h 0.181345v 2.93117h 0.181345v 10.4644h 0.181345v -5.38471h 0.181345v -9.69005h 0.181345v 11.2807h 0.181345v 6.12129h 0.181345v -6.12129h 0.181345v -9.6015h 0.181345v -0.862919h 0.181345v 4.91289h 0.181345v -2.16039h
 0.181345v 3.36879h 0.181345v -1.2084h 0.181345v -4.91289h 0.181345v -2.32721h 0.181345v 0.736584h 0.181345v -0.736584h 0.181345v 2.32721h 0.181345v 4.91289h 0.181345v -7.2401h 0.181345v -1.3734h 0.181345v 3.70061h 0.181345v 2.7525h 0.181345v
 -4.34313h 0.181345v 12.055h 0.181345v -12.055h 0.181345v 4.34313h 0.181345v -0.974336h 0.181345v -2.59442h 0.181345v -5.85408h 0.181345v 14.1052h 0.181345v -4.6824h 0.181345v -8.30403h 0.181345v 2.52201h 0.181345v 1.43889h 0.181345v -3.36879h
 0.181345v 6.73758h 0.181345v -7.3297h 0.181345v 10.4644h 0.181345v 1.2084h 0.181345v 1.31361h 0.181345v -4.6824h 0.181345v -10.4644h 0.181345v 5.38471h 0.181345v 4.10538h 0.181345v -3.36879h 0.181345v -3.96091h 0.181345v 3.96091h 0.181345v -1.43889h
 0.181345v -7.84854h 0.181345v 5.91865h 0.181345v 2.63221h 0.181345v -0.702311h 0.181345v -3.09178h 0.181345v 1.77817h 0.181345v 2.01592h 0.181345v -2.01592h 0.181345v 6.12129h 0.181345v -8.4485h 0.181345v -0.529773h 0.36269v -1.00684h 0.181345v
 2.65542h 0.181345v 12.9864h 0.181345v -11.778h 0.181345v -0.616288h 0.181345v -0.592114h 0.181345v -2.16039h 0.181345v -2.7525h 0.181345v 4.91289h 0.181345v -2.65542h 0.181345v 3.24753h 0.181345v -6.32126h 0.181345v 4.08056h 0.181345v -1.48615h
 0.181345v 2.56496h 0.181345v -2.56496h 0.181345v -4.10538h 0.181345v 3.64082h 0.181345v 3.02952h 0.181345v -1.59062h 0.181345v -2.7525h 0.181345v 6.12129h 0.181345v -1.77817h 0.181345v -5.15938h 0.181345v 1.24155h 0.181345v -0.838936h 0.181345v
 4.75677h 0.181345v -1.59062h 0.181345v -0.495027h 0.181345v 2.08565h 0.181345v 1.16188h 0.181345v -4.1914h 0.36269v 0.464559h 0.181345v 1.48615h 0.181345v 2.24069h 0.181345v -2.7525h 0.181345v 2.16039h 0.181345v 0.592114h 0.181345v 1.9299h 0.181345v
 1.43889h 0.181345v -5.60948h 0.181345v 6.38386h 0.181345v -4.73528h 0.181345v 3.22432h 0.181345v 2.32721h 0.181345v -4.34313h 0.181345v 4.34313h 0.181345v -2.32721h 0.181345v -0.702311h 0.181345v 1.43889h 0.181345v 2.45354h 0.181345v 6.57198h
 0.181345v -6.57198h 0.181345v -1.67917h 0.181345v -1.51096h 0.181345v 2.32721h 0.181345v -1.59062h 0.181345v 5.38471h 0.181345v 3.64082h 0.181345v -7.4349h 0.181345v 0.862919h 0.181345v 9.6015h 0.181345v -14.165h 0.181345v 12.5744h 0.181345v
 -8.8738h 0.181345v 4.91289h 0.181345v -4.04997h 0.36269v 0.915248h 0.36269v 2.01592h 0.181345v -5.38471h 0.181345v 5.38471h 0.36269v -2.93117h 0.181345v -3.19013h 0.181345v 4.10538h 0.181345v -4.10538h 0.181345v -0.702311h 0.181345v 3.02952h
 0.181345v -2.32721h 0.181345v 2.32721h 0.181345v 1.77817h 0.181345v 3.13473h 0.181345v -12.113h 0.181345v 1.07881h 0.181345v 6.98421h 0.181345v -0.862919h 0.181345v -3.02952h 0.181345v -1.9299h 0.181345v 5.82234h 0.181345v 0.915248h 0.181345v
 -4.10538h 0.181345v 5.07971h 0.181345v 2.16039h 0.181345v -4.91289h 0.181345v 2.7525h 0.181345v -5.78202h 0.36269v 11.9033h 0.181345v -8.8738h 0.36269v -0.816251h 0.181345v 0.816251h 0.181345v -2.32721h 0.181345v -1.3734h 0.181345v 2.88436h
 0.181345v 0.816251h 0.181345v -4.95942h 0.181345v 3.36879h 0.181345v 4.34313h 0.181345v -7.09563h 0.181345v 7.09563h 0.544034v -8.30403h 0.181345v 19.81h 0.181345v -14.2585h 0.181345v -2.32721h 0.181345v 2.32721h 0.181345v -1.59062h 0.36269v
 3.36879h 0.181345v 0.974336h 0.181345v -1.88958h 0.181345v -3.19013h 0.181345v 2.32721h 0.181345v -1.59062h 0.181345v 3.36879h 0.181345v -4.80769h 0.181345v 1.43889h 0.544034v -0.736584h 0.181345v -2.01592h 0.181345v 2.01592h 0.181345v -2.01592h
 0.181345v 1.31361h 0.181345v 0.702311h 0.181345v -2.63221h 0.181345v 6.73758h 0.181345v -7.3297h 0.181345v 6.41445h 0.181345v 0.915248h 0.181345v -4.80769h 0.181345v -1.31361h 0.181345v 0.642521h 0.181345v -0.642521h 0.181345v -0.616288h 0.181345v
 -1.16188h 0.181345v 4.53067h 0.181345v -2.10998h 0.181345v 8.6135h 0.181345v -12.6248h 0.181345v 8.57484h 0.181345v -3.89244h 0.181345v -2.52201h 0.181345v 3.96091h 0.181345v -3.36879h 0.181345v -0.592114h 0.181345v 5.55153h 0.181345v -1.59062h
 0.36269v -2.10998h 0.181345v 1.3734h 0.181345v -4.8729h 0.181345v 12.113h 0.181345v -10.4644h 0.181345v -1.11881h 0.181345v 8.4485h 0.181345v -7.89946h 0.181345v 11.0342h 0.181345v 1.2084h 0.181345v -6.93755h 0.181345v -0.774373h 0.181345v 7.71192h
 0.181345v -6.12129h 0.181345v -5.55153h 0.36269v 5.55153h 0.181345v -4.34313h 0.181345v 4.34313h 0.181345v -3.02952h 0.181345v 4.80769h 0.181345v -3.36879h 0.181345v -3.36879h 0.181345v 3.36879h 0.181345v 0.774373h 0.181345v -3.52688h 0.181345v
 3.52688h 0.181345v -2.21327h 0.181345v -4.17059h 0.181345v -1.48615h 0.181345v 3.13473h 0.181345v -0.569765h 0.181345v 2.42069h 0.36269v -1.85092h 0.181345v -1.11881h 0.181345v 3.64082h 0.181345v -4.6824h 0.181345v 2.7525h 0.181345v -2.24069h
 0.181345v 1.64858h 0.181345v -2.16039h 0.181345v 3.36879h 0.181345v -2.32721h 0.181345v 1.71092h 0.181345v -1.71092h 0.181345v 1.71092h 0.181345v -1.71092h 0.181345v 5.07971h 0.181345v -2.10998h 0.181345v -9.44626h 0.181345v 4.93992h 0.181345v
 1.53661h 0.181345v -2.93117h 0.181345v 5.9009h 0.181345v -2.42069h 0.181345v 2.42069h 0.181345v -3.4995h 0.181345v 0.529773h 0.181345v 0.549041h 0.181345v -2.56496h 0.181345v 4.98565h 0.181345v -4.50634h 0.36269v 3.24753h 0.181345v 0.616288h
 0.181345v 0.642521h 0.181345v -2.96973h 0.181345v 5.07971h 0.181345v -2.10998h 0.181345v -1.25881h 0.181345v 1.9299h 0.181345v 3.89244h 0.36269v -3.89244h 0.181345v 4.80769h 0.181345v -4.10538h 0.181345v -0.702311h 0.181345v 1.43889h 0.36269v
 1.59062h 0.181345v 3.79409h 0.181345v 2.32721h 0.181345v -2.32721h 0.181345v -2.93117h 0.181345v 6.57198h 0.181345v -1.31361h 0.36269v -9.15081h 0.181345v 3.02952h 0.181345v 4.91289h 0.181345v -6.50352h 0.36269v 4.34313h 0.181345v -8.8738h 0.181345v
 4.53067h 0.181345v 3.36879h 0.181345v -6.12129h 0.36269v -2.32721h 0.181345v 4.34313h 0.181345v -0.702311h 0.181345v -3.64082h 0.181345v 3.64082h 0.181345v 6.82361h 0.181345v 3.64082h 0.181345v -10.4644h 0.181345v -1.31361h 0.181345v 0.642521h
 0.181345v 4.56353h 0.181345v -1.67917h 0.181345v -6.89567h 0.181345v 8.57484h 0.181345v 0.915248h 0.181345v -1.77817h 0.181345v -5.55153h 0.181345v 4.73528h 0.181345v -2.21327h 0.36269v 1.43889h 0.181345v 3.36879h 0.181345v -6.73758h 0.181345v
 1.25881h 0.181345v 2.88436h 0.36269v -0.774373h 0.181345v -6.61632h 0.181345v 6.61632h 0.181345v 0.774373h 0.36269v 4.61034h 0.181345v -2.93117h 0.181345v 1.88958h 0.181345v -5.07971h 0.181345v 6.12129h 0.181345v 1.11881h 0.181345v -1.11881h
 0.181345v 6.67034h 0.181345v -12.7916h 0.181345v 7.2401h 0.181345v -2.16039h 0.181345v 7.71192h 0.181345v -7.71192h 0.181345v -0.974336h 0.181345v 8.68626h 0.181345v 3.79409h 0.181345v -2.01592h 0.181345v 4.34313h 0.181345v -11.6728h 0.181345v
 3.96091h 0.181345v -1.43889h 0.181345v 4.80769h 0.181345v -1.77817h 0.181345v 3.79409h 0.544034v -8.13721h 0.181345v -1.2084h 0.181345v 9.34562h 0.181345v -2.01592h 0.181345v -1.77817h 0.181345v -3.02952h 0.181345v 3.02952h 0.181345v 8.8738h
 0.181345v -7.09563h 0.544034v -9.49009h 0.181345v -2.7525h 0.181345v 16.5857h 0.36269v -2.32721h 0.36269v -9.34562h 0.181345v 11.6728h 0.181345v -6.12129h 0.181345v 1.77817h 0.181345v -4.80769h 0.181345v 4.80769h 0.181345v 7.09563h 0.181345v
 -7.09563h 0.181345v -1.77817h 0.181345v 3.79409h 0.181345v -5.38471h 0.181345v -3.96091h 0.181345v 2.52201h 0.181345v 3.02952h 0.181345v 6.12129h 0.181345v -11.6728h 0.181345v 7.3297h 0.181345v -9.49009h 0.181345v 9.49009h 0.181345v 2.01592h
 0.181345v -5.38471h 0.181345v 10.4644h 0.181345v -13.2169h 0.181345v -1.2084h 0.181345v 11.6728h 0.181345v -4.34313h 0.181345v -7.3297h 0.181345v 7.3297h 0.36269v -6.12129h 0.36269v 2.7525h 0.36269v 10.4644h 0.181345v -8.8738h 0.181345v -8.68626h
 0.181345v 8.68626h 0.181345v -4.34313h 0.181345v 6.12129h 0.181345v -1.77817h 0.181345v -3.02952h 0.181345v -3.64082h 0.181345v 1.11881h 0.181345v 11.6728h 0.181345v -10.4644h 0.181345v 6.12129h 0.36269v -8.4485h 0.181345v 5.07971h 0.181345v
 -6.12129h 0.181345v 7.71192h 0.181345v -1.59062h 0.181345v -2.7525h 0.181345v 1.31361h 0.181345v -11.1355h 0.181345v 12.5744h 0.181345v 5.38471h 0.181345v -3.79409h 0.181345v -12.055h 0.181345v 3.36879h 0.181345v 12.4803h 0.181345v -9.34562h
 0.181345v -4.91289h 0.181345v 6.12129h 0.36269v 8.13721h 0.181345v -8.13721h 0.181345v 6.12129h 0.181345v -9.49009h 0.181345v 6.12129h 0.36269v 7.71192h 0.181345v -10.4644h 0.181345v 2.7525h 0.181345v -3.96091h 0.181345v 3.96091h 0.36269v 1.59062h
 0.181345v -3.02952h 0.181345v 9.15081h 0.181345v -11.6728h 0.181345v -1.11881h 0.36269v 10.4644h 0.181345v -3.79409h 0.181345v -11.2807h 0.181345v 11.2807h 0.181345v 3.79409h 0.181345v -6.82361h 0.181345v -3.64082h 0.36269v 1.11881h 0.181345v
 1.2084h 0.181345v 2.7525h 0.181345v -3.96091h 0.181345v 3.96091h 0.181345v 1.59062h 0.181345v -3.02952h 0.181345v -1.31361h 0.181345v -3.36879h 0.181345v 9.49009h 0.181345v -7.3297h 0.181345v 28.2585h 0.181345v -29.3773h 0.181345v 8.4485h 0.181345v
 -6.12129h 0.181345v -6.93755h 0.181345v 8.25115h 0.181345v -7.4349h 0.181345v -3.70061h 0.181345v 12.5744h 0.36269v -7.09563h 0.181345v -0.915248h 0.181345v -0.862919h 0.181345v 3.79409h 0.181345v -3.79409h 0.36269v -6.12129h 0.181345v 11.0342h
 0.181345v -4.91289h 0.181345v -1.59062h 0.181345v 1.59062h 0.181345v 0.862919h 0.181345v -2.45354h 0.36269v -1.43889h 0.181345v 3.02952h 0.36269v -4.34313h 0.181345v -1.77817h 0.181345v 0.569765h 0.181345v -2.16039h 0.181345v 5.38471h 0.181345v
 1.51096h 0.181345v 0.816251h 0.181345v -10.0391h 0.181345v 2.32721h 0.181345v 2.7525h 0.36269v -4.1914h 0.181345v 10.0137h 0.181345v -5.82234h 0.181345v 1.9299h 0.36269v 3.02952h 0.181345v -4.95942h 0.181345v 2.63221h 0.36269v -2.01592h 0.181345v
 -2.32721h 0.181345v 3.64082h 0.181345v -3.64082h 0.36269v 5.85408h 0.181345v -4.73528h 0.181345v 1.2084h 0.181345v 2.01592h 0.181345v 1.51096h 0.181345v 1.67917h 0.181345v 1.88958h 0.181345v 1.04158h 0.181345v 1.11881h 0.181345v 1.2084h 0.181345v
 -1.2084h 0.181345v -4.91289h 0.181345v 3.79409h 0.36269v -3.79409h 0.181345v 0.862919h 0.181345v 4.04997h 0.181345v 3.96091h 0.181345v -1.43889h 0.181345v 15.2721h 0.181345v -8.4485h 0.181345v -2.01592h 0.181345v -3.36879h 0.181345v 3.36879h
 0.181345v 4.34313h 0.181345v 16.5857h 0.181345v -18.9129h 0.181345v 12.7916h 0.181345v -7.71192h 0.36269v -5.07971h 0.181345v 12.7916h 0.181345v -4.34313h 0.181345v 4.34313h 0.181345v 16.5857h 0.181345v 10.4644h 0.181345v -27.0501h 0.36269v
 -4.34313h 0.181345v 10.4644h 0.181345v 20.9288h 0.181345v -27.0501h 0.181345v -4.34313h 0.181345v 20.9288h 0.36269v -16.5857h 0.181345v 16.5857h 0.181345v -20.9288h 0.181345v 4.34313h 0.181345v 16.5857h 0.181345v -20.9288h 0.181345v 10.4644h
 0.181345v 10.4644h 0.181345v -20.9288h 0.181345v 4.34313h 0.36269v 6.12129h 0.181345v -13.8332h 0.181345v 24.2976h 0.544034v -10.4644h 0.544034v 10.4644h 0.181345v -10.4644h 0.181345v -10.4644h 0.181345v 4.34313h 0.181345v 6.12129h 0.181345v
 10.4644h 0.36269v -10.4644h 0.181345v 10.4644h 0.181345v -10.4644h 0.181345v 10.4644h 0.181345v 10.4644h 0.181345v -10.4644h 0.36269v 10.4644h 0.181345v -10.4644h 0.181345v -10.4644h 0.181345v 10.4644h 0.181345v 10.4644h 0.181345v -20.9288h 0.36269v
 20.9288h 0.181345v -10.4644h 0.181345v -10.4644h 0.181345v 10.4644h 0.181345v 10.4644h 0.181345v -20.9288h 0.181345v 20.9288h 0.181345v -27.0501h 0.181345v 27.0501h 0.181345v -10.4644h 0.181345v -10.4644h 0.181345v 20.9288h 0.181345v -10.4644h
 0.36269v -10.4644h 0.36269v 20.9288h 0.544034v -10.4644h 0.181345v -16.5857h 0.181345v 6.12129h 0.181345v 10.4644h 0.36269v -24.2976h 0.181345v 24.2976h 0.181345v 10.4644h 0.181345v -10.4644h 0.181345v -10.4644h 0.181345v 10.4644h 0.36269v -10.4644h
 0.181345v 10.4644h 0.181345v -16.5857h 0.181345v 6.12129h 0.181345v 10.4644h 0.725379v -10.4644h 0.181345v 20.9288h 0.725379v -20.9288h 0.181345v 10.4644h 0.181345v -10.4644h 0.181345v -10.4644h 0.181345v 20.9288h 0.181345v 10.4644h 0.181345v
 -34.7621h 0.181345v 13.8332h 0.36269v 10.4644h 0.181345v -24.2976h 0.181345v 13.8332h 0.36269v -6.12129h 0.181345v 27.0501h 0.36269v -20.9288h 0.181345v -6.12129h 0.181345v 6.12129h 0.181345v 20.9288h 0.181345v -10.4644h 0.181345v 10.4644h 0.544034v
 -10.4644h 0.181345v -10.4644h 0.181345v 20.9288h 0.36269v -10.4644h 0.36269v 10.4644h 0.181345v -10.4644h 0.181345v 10.4644h 0.181345v -27.0501h 0.181345v 16.5857h 0.181345v -10.4644h 0.181345v 10.4644h 0.181345v -29.3773h 0.181345v 29.3773h
 0.36269v -10.4644h 0.181345v -10.4644h 0.181345v 31.3933h 0.36269v -10.4644h 0.181345v -16.5857h 0.36269v 6.12129h 0.181345v 10.4644h 0.36269v 10.4644h 0.181345v -10.4644h 0.36269v 10.4644h 0.906724v -20.9288h 0.181345v -6.12129h 0.181345v 16.5857h
 0.181345v -10.4644h 0.181345v 10.4644h 0.181345v 10.4644h 0.181345v -10.4644h 0.181345v 10.4644h 0.181345v -20.9288h 0.181345v 20.9288h 0.544034v -10.4644h 0.36269v 10.4644h 0.36269v -10.4644h 0.36269v 10.4644h 0.181345v -10.4644h 0.181345v
 -10.4644h 0.181345v 10.4644h 0.181345v -16.5857h 0.181345v 27.0501h 0.36269v -10.4644h 0.36269v -20.9288h 0.181345v 31.3933h 0.725379v -10.4644h 0.181345v 10.4644h 0.181345v -20.9288h 0.181345v 20.9288h 0.36269v -10.4644h 0.181345v -10.4644h
 0.181345v 10.4644h 0.544034v 10.4644h 0.181345v -20.9288h 0.181345v 20.9288h 0.725379v -20.9288h 0.181345v -10.4644h 0.181345v 20.9288h 0.181345v 10.4644h 0.36269v -20.9288h 0.181345v 20.9288h 0.181345v -20.9288h 0.544034v 20.9288h 0.36269v
 -20.9288h 0.181345v -13.8332h 0.181345v 34.7621h 0.181345v -10.4644h 0.181345v -16.5857h 0.181345v 16.5857h 0.181345v -10.4644h 0.544034v 10.4644h 0.725379v 10.4644h 0.181345v -10.4644h 0.36269v 10.4644h 0.36269v -10.4644h 0.181345v 10.4644h
 0.36269v -10.4644h 0.181345v -10.4644h 0.181345v 20.9288h 0.181345v -20.9288h 0.181345v 20.9288h 0.544034v -10.4644h 0.181345v 10.4644h 0.181345v -10.4644h 0.181345v -10.4644h 0.181345v 20.9288h 0.544034v -20.9288h 0.36269v 20.9288h 0.181345v
 -10.4644h 0.181345v 10.4644h 0.181345v -10.4644h 0.181345v 10.4644h 0.181345v -10.4644h 0.544034v 10.4644h 0.181345v -10.4644h 0.36269v -10.4644h 0.36269v 20.9288h 0.725379v -10.4644h 0.544034v 10.4644h 0.181345v -10.4644h 0.544034v 10.4644h
 0.181345v -31.3933h 0.181345v 31.3933h 0.544034v -10.4644h 0.725379v -16.5857h 0.181345v 16.5857h 0.544034v -10.4644h 0.181345v -6.12129h 0.181345v 6.12129h 0.181345v 20.9288h 0.181345v -10.4644h 0.181345v 10.4644h 0.181345v -10.4644h 0.544034v
 10.4644h 0.725379v -20.9288h 0.181345v -6.12129h 0.181345v 16.5857h 0.544034v -10.4644h 0.181345v 20.9288h 0.181345v -10.4644h 0.544034v -16.5857h 0.181345v 16.5857h 0.181345v 10.4644h 0.181345v -10.4644h 0.181345v 10.4644h 0.181345v -10.4644h
 0.181345v -16.5857h 0.181345v 27.0501h 0.181345v -10.4644h 0.36269v -10.4644h 0.181345v 20.9288h 0.181345v -27.0501h 0.181345v -4.34313h 0.181345v 10.4644h 0.181345v 10.4644h 0.181345v -10.4644h 0.181345v 10.4644h 0.544034v 10.4644h 0.36269v
 -20.9288h 0.725379v 10.4644h 0.181345v -10.4644h 0.181345v 20.9288h 0.181345v -10.4644h 0.181345v -16.5857h 0.181345v 6.12129h 0.181345v 20.9288h 0.181345v -10.4644h 0.181345v 10.4644h 0.181345v -20.9288h 0.181345v 10.4644h 0.36269v 10.4644h
 0.181345v -20.9288h 0.181345v 20.9288h 0.36269v -10.4644h 0.181345v -10.4644h 0.36269v 10.4644h 0.181345v -10.4644h 0.36269v 20.9288h 0.36269v -20.9288h 0.181345v 20.9288h 0.36269" fill="none" stroke="black"/>
<path d="M57.1929,280.151h 453.543" fill="none" stroke="black"/>
<path d="M57.1929,272.68v 7.47068" fill="none" stroke="black"/>
<path d="M75.3318,276.415v 3.73534" fill="none" stroke="black"/>
<path d="M93.4707,276.415v 3.73534" fill="none" stroke="black"/>
<path d="M111.61,276.415v 3.73534" fill="none" stroke="black"/>
<path d="M129.749,276.415v 3.73534" fill="none" stroke="black"/>
<path d="M147.887,272.68v 7.47068" fill="none" stroke="black"/>
<path d="M166.026,276.415v 3.73534" fill="none" stroke="black"/>
<path d="M184.165,276.415v 3.73534" fill="none" stroke="black"/>
<path d="M202.304,276.415v 3.73534" fill="none" stroke="black"/>
<path d="M220.443,276.415v 3.73534" fill="none" stroke="black"/>
<path d="M238.582,272.68v 7.47068" fill="none" stroke="black"/>
<path d="M256.721,276.415v 3.73534" fill="none" stroke="black"/>
<path d="M274.86,276.415v 3.73534" fill="none" stroke="black"/>
<path d="M292.999,276.415v 3.73534" fill="none" stroke="black"/>
<path d="M311.138,276.415v 3.73534" fill="none" stroke="black"/>
<path d="M329.277,272.68v 7.47068" fill="none" stroke="black"/>
<path d="M347.415,276.415v 3.73534" fill="none" stroke="black"/>
<path d="M365.554,276.415v 3.73534" fill="none" stroke="black"/>
<path d="M383.693,276.415v 3.73534" fill="none" stroke="black"/>
<path d="M401.832,276.415v 3.73534" fill="none" stroke="black"/>
<path d="M419.971,272.68v 7.47068" fill="none" stroke="black"/>
<path d="M438.11,276.415v 3.73534" fill="none" stroke="black"/>
<path d="M456.249,276.415v 3.73534" fill="none" stroke="black"/>
<path d="M474.388,276.415v 3.73534" fill="none" stroke="black"/>
<path d="M492.527,276.415v 3.73534" fill="none" stroke="black"/>
<path d="M510.666,272.68v 7.47068" fill="none" stroke="black"/>
<path d="M510.666,272.68v 7.47068" fill="none" stroke="black"/>
<text xml:space="preserve" x="54.3523" y="290.27" fill="black" font-size="10.4952" font-family="Helvetica">0</text>
<text xml:space="preserve" x="139.569" y="290.27" fill="black" font-size="10.4952" font-family="Helvetica">500</text>
<text xml:space="preserve" x="227.449" y="290.27" fill="black" font-size="10.4952" font-family="Helvetica">1000</text>
<text xml:space="preserve" x="318.288" y="290.27" fill="black" font-size="10.4952" font-family="Helvetica">1500</text>
<text xml:space="preserve" x="408.831" y="290.27" fill="black" font-size="10.4952" font-family="Helvetica">2000</text>
<text xml:space="preserve" x="499.67" y="290.27" fill="black" font-size="10.4952" font-family="Helvetica">2500</text>
<text xml:space="preserve" x="265.323" y="301.218" fill="black" font-size="10.4952" font-family="Helvetica">Channel</text>
<path d="M57.1929,280.151v -249.023" fill="none" stroke="black"/>
<path d="M63.9961,280.151h -6.80315" fill="none" stroke="black"/>
<path d="M63.9961,277.398h -6.80315" fill="none" stroke="black"/>
<path d="M63.9961,275.071h -6.80315" fill="none" stroke="black"/>
<path d="M63.9961,273.055h -6.80315" fill="none" stroke="black"/>
<path d="M63.9961,271.277h -6.80315" fill="none" stroke="black"/>
<path d="M70.7992,269.686h -13.6063" fill="none" stroke="black"/>
<text xml:space="preserve" x="49.0263" y="273.404" fill="black" font-size="10.4952" font-family="Helvetica">1</text>
<path d="M63.9961,259.222h -6.80315" fill="none" stroke="black"/>
<path d="M63.9961,253.1h -6.80315" fill="none" stroke="black"/>
<path d="M63.9961,248.757h -6.80315" fill="none" stroke="black"/>
<path d="M63.9961,245.388h -6.80315" fill="none" stroke="black"/>
<path d="M63.9961,242.636h -6.80315" fill="none" stroke="black"/>
<path d="M63.9961,240.309h -6.80315" fill="none" stroke="black"/>
<path d="M63.9961,238.293h -6.80315" fill="none" stroke="black"/>
<path d="M63.9961,236.515h -6.80315" fill="none" stroke="black"/>
<path d="M70.7992,234.924h -13.6063" fill="none" stroke="black"/>
<text xml:space="preserve" x="41.629" y="238.489" fill="black" font-size="10.4952" font-family="Helvetica">10</text>
<path d="M63.9961,224.46h -6.80315" fill="none" stroke="black"/>
<path d="M63.9961,218.338h -6.80315" fill="none" stroke="black"/>
<path d="M63.9961,213.995h -6.80315" fill="none" stroke="black"/>
<path d="M63.9961,210.626h -6.80315" fill="none" stroke="black"/>
<path d="M63.9961,207.874h -6.80315" fill="none" stroke="black"/>
<path d="M63.9961,205.547h -6.80315" fill="none" stroke="black"/>
<path d="M63.9961,203.531h -6.80315" fill="none" stroke="black"/>
<path d="M63.9961,201.753h -6.80315" fill="none" stroke="black"/>
<path d="M70.7992,200.162h -13.6063" fill="none" stroke="black"/>
<text xml:space="preserve" x="49.0263" y="200.319" fill="black" font-size="7.16345" font-family="Helvetica">2</text>
<text xml:space="preserve" x="38.0783" y="204.757" fill="black" font-size="10.4952" font-family="Helvetica">10</text>
<path d="M63.9961,189.698h -6.80315" fill="none" stroke="black"/>
<path d="M63.9961,183.576h -6.80315" fill="none" stroke="black"/>
<path d="M63.9961,179.233h -6.80315" fill="none" stroke="black"/>
<path d="M63.9961,175.864h -6.80315" fill="none" stroke="black"/>
<path d="M63.9961,173.112h -6.80315" fill="none" stroke="black"/>
<path d="M63.9961,170.785h -6.80315" fill="none" stroke="black"/>
<path d="M63.9961,168.769h -6.80315" fill="none" stroke="black"/>
<path d="M63.9961,166.991h -6.80315" fill="none" stroke="black"/>
<path d="M70.7992,165.4h -13.6063" fill="none" stroke="black"/>
<text xml:space="preserve" x="49.0263" y="165.108" fill="black" font-size="7.16345" font-family="Helvetica">3</text>
<text xml:space="preserve" x="38.0783" y="169.842" fill="black" font-size="10.4952" font-family="Helvetica">10</text>
<path d="M63.9961,154.936h -6.80315" fill="none" stroke="black"/>
<path d="M63.9961,148.814h -6.80315" fill="none" stroke="black"/>
<path d="M63.9961,144.471h -6.80315" fill="none" stroke="black"/>
<path d="M63.9961,141.102h -6.80315" fill="none" stroke="black"/>
<path d="M63.9961,138.35h -6.80315" fill="none" stroke="black"/>
<path d="M63.9961,136.023h -6.80315" fill="none" stroke="black"/>
<path d="M63.9961,134.007h -6.80315" fill="none" stroke="black"/>
<path d="M63.9961,132.229h -6.80315" fill="none" stroke="black"/>
<path d="M70.7992,130.638h -13.6063" fill="none" stroke="black"/>
<text xml:space="preserve" x="49.0263" y="130.784" fill="black" font-size="7.16345" font-family="Helvetica">4</text>
<text xml:space="preserve" x="38.0783" y="135.223" fill="black" font-size="10.4952" font-family="Helvetica">10</text>
<path d="M63.9961,120.173h -6.80315" fill="none" stroke="black"/>
<path d="M63.9961,114.052h -6.80315" fill="none" stroke="black"/>
<path d="M63.9961,109.709h -6.80315" fill="none" stroke="black"/>
<path d="M63.9961,106.34h -6.80315" fill="none" stroke="black"/>
<path d="M63.9961,103.588h -6.80315" fill="none" stroke="black"/>
<path d="M63.9961,101.261h -6.80315" fill="none" stroke="black"/>
<path d="M63.9961,99.2446h -6.80315" fill="none" stroke="black"/>
<path d="M63.9961,97.4665h -6.80315" fill="none" stroke="black"/>
<path d="M70.7992,95.8758h -13.6063" fill="none" stroke="black"/>
<text xml:space="preserve" x="49.0263" y="95.869" fill="black" font-size="7.16345" font-family="Helvetica">5</text>
<text xml:space="preserve" x="38.0783" y="100.603" fill="black" font-size="10.4952" font-family="Helvetica">10</text>
<path d="M63.9961,85.4114h -6.80315" fill="none" stroke="black"/>
<path d="M63.9961,79.2901h -6.80315" fill="none" stroke="black"/>
<path d="M63.9961,74.947h -6.80315" fill="none" stroke="black"/>
<path d="M63.9961,71.5782h -6.80315" fill="none" stroke="black"/>
<path d="M63.9961,68.8257h -6.80315" fill="none" stroke="black"/>
<path d="M63.9961,66.4985h -6.80315" fill="none" stroke="black"/>
<path d="M63.9961,64.4826h -6.80315" fill="none" stroke="black"/>
<path d="M63.9961,62.7044h -6.80315" fill="none" stroke="black"/>
<path d="M70.7992,61.1138h -13.6063" fill="none" stroke="black"/>
<text xml:space="preserve" x="49.0263" y="60.9538" fill="black" font-size="7.16345" font-family="Helvetica">6</text>
<text xml:space="preserve" x="38.0783" y="65.688" fill="black" font-size="10.4952" font-family="Helvetica">10</text>
<path d="M63.9961,50.6494h -6.80315" fill="none" stroke="black"/>
<path d="M63.9961,44.5281h -6.80315" fill="none" stroke="black"/>
<path d="M63.9961,40.1849h -6.80315" fill="none" stroke="black"/>
<path d="M63.9961,36.8162h -6.80315" fill="none" stroke="black"/>
<path d="M63.9961,34.0636h -6.80315" fill="none" stroke="black"/>
<path d="M63.9961,31.7364h -6.80315" fill="none" stroke="black"/>
<g transform="rotate(-90,26.5385,191.442)">
<text xml:space="preserve" x="26.5385" y="191.442" fill="black" font-size="10.4952" font-family="Helvetica">Counts/Channel</text>
</g>
<text xml:space="preserve" x="404.097" y="60.9538" fill="black" font-size="14.7788" font-family="Helvetica" font-weight="bold"> = 2.4879 MeV</text>
<text xml:space="preserve" x="398.179" y="64.2086" fill="black" font-size="10.0192" font-family="Helvetica" font-weight="bold">p</text>
<text xml:space="preserve" x="389.006" y="60.9538" fill="black" font-size="14.7788" font-family="Helvetica" font-weight="bold">E</text>
<path d="M262.163,163.961v 26.1112" fill="none" stroke="black"/>
<path d="M264.454,190.072l -2.29122, 3.9685l -2.29122, -3.9685z" fill="black"/>
<path d="M264.454,190.072l -2.29122, 3.9685l -2.29122, -3.9685h 4.58243z" fill="none" stroke="black"/>
<text xml:space="preserve" x="266.803" y="161.853" fill="black" font-size="10.4952" font-family="Helvetica" font-weight="bold">_1 	1.369 MeV</text>
<text xml:space="preserve" x="260.293" y="161.853" fill="black" font-size="10.4952" font-family="Times">&#0945;</text>
<path d="M184.528,130.638v 30.7936" fill="none" stroke="black"/>
<path d="M186.819,161.431l -2.29122, 3.9685l -2.29122, -3.9685z" fill="black"/>
<path d="M186.819,161.431l -2.29122, 3.9685l -2.29122, -3.9685h 4.58243z" fill="none" stroke="black"/>
<text xml:space="preserve" x="172.117" y="127.825" fill="black" font-size="10.4952" font-family="Helvetica" font-weight="bold"># p_1 	0.844 MeV</text>
<path d="M210.104,148.814v 12.6172" fill="none" stroke="black"/>
<path d="M212.395,161.431l -2.29122, 3.9685l -2.29122, -3.9685z" fill="black"/>
<path d="M212.395,161.431l -2.29122, 3.9685l -2.29122, -3.9685h 4.58243z" fill="none" stroke="black"/>
<text xml:space="preserve" x="197.564" y="144.395" fill="black" font-size="10.4952" font-family="Helvetica" font-weight="bold"># p_2 	1.015 MeV</text>
<path d="M497.63,269.686h 13.0359" fill="none" stroke="black"/>
<path d="M504.148,259.222h 6.51795" fill="none" stroke="black"/>
<path d="M504.148,253.1h 6.51795" fill="none" stroke="black"/>
<path d="M504.148,248.757h 6.51795" fill="none" stroke="black"/>
<path d="M504.148,245.388h 6.51795" fill="none" stroke="black"/>
<path d="M504.148,242.636h 6.51795" fill="none" stroke="black"/>
<path d="M504.148,240.309h 6.51795" fill="none" stroke="black"/>
<path d="M504.148,238.293h 6.51795" fill="none" stroke="black"/>
<path d="M504.148,236.515h 6.51795" fill="none" stroke="black"/>
<path d="M497.63,234.924h 13.0359" fill="none" stroke="black"/>
<path d="M504.148,224.46h 6.51795" fill="none" stroke="black"/>
<path d="M504.148,218.338h 6.51795" fill="none" stroke="black"/>
<path d="M504.148,213.995h 6.51795" fill="none" stroke="black"/>
<path d="M504.148,210.626h 6.51795" fill="none" stroke="black"/>
<path d="M504.148,207.874h 6.51795" fill="none" stroke="black"/>
<path d="M504.148,205.547h 6.51795" fill="none" stroke="black"/>
<path d="M504.148,203.531h 6.51795" fill="none" stroke="black"/>
<path d="M504.148,201.753h 6.51795" fill="none" stroke="black"/>
<path d="M497.63,200.162h 13.0359" fill="none" stroke="black"/>
<path d="M504.148,189.698h 6.51795" fill="none" stroke="black"/>
<path d="M504.148,183.576h 6.51795" fill="none" stroke="black"/>
<path d="M504.148,179.233h 6.51795" fill="none" stroke="black"/>
<path d="M504.148,175.864h 6.51795" fill="none" stroke="black"/>
<path d="M504.148,173.112h 6.51795" fill="none" stroke="black"/>
<path d="M504.148,170.785h 6.51795" fill="none" stroke="black"/>
<path d="M504.148,168.769h 6.51795" fill="none" stroke="black"/>
<path d="M504.148,166.991h 6.51795" fill="none" stroke="black"/>
<path d="M497.63,165.4h 13.0359" fill="none" stroke="black"/>
<path d="M504.148,154.936h 6.51795" fill="none" stroke="black"/>
<path d="M504.148,148.814h 6.51795" fill="none" stroke="black"/>
<path d="M504.148,144.471h 6.51795" fill="none" stroke="black"/>
<path d="M504.148,141.102h 6.51795" fill="none" stroke="black"/>
<path d="M504.148,138.35h 6.51795" fill="none" stroke="black"/>
<path d="M504.148,136.023h 6.51795" fill="none" stroke="black"/>
<path d="M504.148,134.007h 6.51795" fill="none" stroke="black"/>
<path d="M504.148,132.229h 6.51795" fill="none" stroke="black"/>
<path d="M497.63,130.638h 13.0359" fill="none" stroke="black"/>
<path d="M504.148,120.173h 6.51795" fill="none" stroke="black"/>
<path d="M504.148,114.052h 6.51795" fill="none" stroke="black"/>
<path d="M504.148,109.709h 6.51795" fill="none" stroke="black"/>
<path d="M504.148,106.34h 6.51795" fill="none" stroke="black"/>
<path d="M504.148,103.588h 6.51795" fill="none" stroke="black"/>
<path d="M504.148,101.261h 6.51795" fill="none" stroke="black"/>
<path d="M504.148,99.2446h 6.51795" fill="none" stroke="black"/>
<path d="M504.148,97.4665h 6.51795" fill="none" stroke="black"/>
<path d="M497.63,95.8758h 13.0359" fill="none" stroke="black"/>
<path d="M504.148,85.4114h 6.51795" fill="none" stroke="black"/>
<path d="M504.148,79.2901h 6.51795" fill="none" stroke="black"/>
<path d="M504.148,74.947h 6.51795" fill="none" stroke="black"/>
<path d="M504.148,71.5782h 6.51795" fill="none" stroke="black"/>
<path d="M504.148,68.8257h 6.51795" fill="none" stroke="black"/>
<path d="M504.148,66.4985h 6.51795" fill="none" stroke="black"/>
<path d="M504.148,64.4826h 6.51795" fill="none" stroke="black"/>
<path d="M504.148,62.7044h 6.51795" fill="none" stroke="black"/>
<path d="M497.63,61.1138h 13.0359" fill="none" stroke="black"/>
<path d="M504.148,50.6494h 6.51795" fill="none" stroke="black"/>
<path d="M504.148,44.5281h 6.51795" fill="none" stroke="black"/>
<path d="M504.148,40.1849h 6.51795" fill="none" stroke="black"/>
<path d="M504.148,36.8162h 6.51795" fill="none" stroke="black"/>
<path d="M504.148,34.0636h 6.51795" fill="none" stroke="black"/>
<path d="M504.148,31.7364h 6.51795" fill="none" stroke="black"/>
<path d="M57.1929,38.5724v -7.46952" fill="none" stroke="black"/>
<path d="M75.3318,38.5724v -7.46952" fill="none" stroke="black"/>
<path d="M93.4707,38.5724v -7.46952" fill="none" stroke="black"/>
<path d="M111.61,38.5724v -7.46952" fill="none" stroke="black"/>
<path d="M129.749,38.5724v -7.46952" fill="none" stroke="black"/>
<path d="M147.887,38.5724v -7.46952" fill="none" stroke="black"/>
<path d="M166.026,38.5724v -7.46952" fill="none" stroke="black"/>
<path d="M184.165,38.5724v -7.46952" fill="none" stroke="black"/>
<path d="M202.304,38.5724v -7.46952" fill="none" stroke="black"/>
<path d="M220.443,38.5724v -7.46952" fill="none" stroke="black"/>
<path d="M238.582,38.5724v -7.46952" fill="none" stroke="black"/>
<path d="M256.721,38.5724v -7.46952" fill="none" stroke="black"/>
<path d="M274.86,38.5724v -7.46952" fill="none" stroke="black"/>
<path d="M292.999,38.5724v -7.46952" fill="none" stroke="black"/>
<path d="M311.138,38.5724v -7.46952" fill="none" stroke="black"/>
<path d="M329.277,38.5724v -7.46952" fill="none" stroke="black"/>
<path d="M347.415,38.5724v -7.46952" fill="none" stroke="black"/>
<path d="M365.554,38.5724v -7.46952" fill="none" stroke="black"/>
<path d="M383.693,38.5724v -7.46952" fill="none" stroke="black"/>
<path d="M401.832,38.5724v -7.46952" fill="none" stroke="black"/>
<path d="M419.971,38.5724v -7.46952" fill="none" stroke="black"/>
<path d="M438.11,38.5724v -7.46952" fill="none" stroke="black"/>
<path d="M456.249,38.5724v -7.46952" fill="none" stroke="black"/>
<path d="M474.388,38.5724v -7.46952" fill="none" stroke="black"/>
<path d="M492.527,38.5724v -7.46952" fill="none" stroke="black"/>
<path d="M510.666,38.5724v -7.46952" fill="none" stroke="black"/></svg>
