<?xml version="1.0" standalone="no"?>
<svg width="567.429" height="311.778" viewBox="0 0 567.429 311.778" xmlns="http://www.w3.org/2000/svg" shape-rendering="crispEdges">
<title>
Yields/P1/run_0107/det12_Fit.svg
</title>
<desc>
Creator: ROOT Version 6.12/06
CreationDate: Mon Apr 15 10:29:03 2019</desc>
<defs>
</defs>
<rect x="0.5" y="0" width="566.929" height="311.278" fill="white"/>
<rect x="57.1929" y="31.1278" width="453.543" height="249.023" fill="white"/>
<rect x="57.1929" y="31.1278" width="453.543" height="249.023" fill="none" stroke="black"/>
<path d="M57.1929,40.7768h 0.181345v 239.374h 6.52841v -10.4653h 0.181345v 10.4653h 5.62169v -10.4653h 0.181345v 10.4653h 0.181345v -10.4653h 0.181345v 10.4653h 1.81345v -10.4653h 0.181345v 10.4653h 2.53883v -10.4653h 0.181345v 10.4653h 5.62169v
 -10.4653h 0.181345v 10.4653h 1.81345v -10.4653h 0.181345v 10.4653h 1.6321v -10.4653h 0.181345v 10.4653h 0.725379v -20.9306h 0.181345v 20.9306h 0.906724v -10.4653h 0.36269v 10.4653h 0.181345v -10.4653h 0.181345v 10.4653h 0.906724v -10.4653h 0.181345v
 -20.9306h 0.181345v -6.1218h 0.181345v -7.71255h 0.181345v -20.5483h 0.181345v -13.2824h 0.181345v -7.35499h 0.181345v -8.68697h 0.181345v -6.19563h 0.181345v -3.2656h 0.181345v -1.27907h 0.181345v -4.79321h 0.181345v -0.92349h 0.181345v -0.746417h
 0.181345v 0.0177731h 0.181345v -1.8709h 0.181345v 0.60914h 0.181345v -0.935516h 0.181345v -1.23922h 0.181345v 0.430996h 0.181345v -0.836248h 0.181345v -0.013782h 0.181345v -0.340524h 0.181345v 0.506745h 0.181345v -0.627477h 0.181345v -0.473502h
 0.181345v 0.314012h 0.181345v -0.0922635h 0.181345v -0.195829h 0.181345v -0.746523h 0.181345v 0.111518h 0.181345v 0.149983h 0.181345v 0.79958h 0.181345v -0.533469h 0.181345v -0.341288h 0.181345v 0.0250177h 0.181345v 0.214341h 0.181345v -0.151615h
 0.181345v -0.579586h 0.181345v 0.655203h 0.181345v -0.100739h 0.181345v -0.124986h 0.181345v 0.442054h 0.181345v -0.342148h 0.181345v -0.529384h 0.181345v 0.680493h 0.181345v -0.668391h 0.181345v -0.0724715h 0.181345v -0.179671h 0.181345v 1.02212h
 0.181345v 0.478937h 0.181345v -1.09069h 0.181345v 0.881714h 0.181345v 0.812716h 0.181345v -0.734689h 0.181345v -0.18144h 0.181345v 1.30435h 0.181345v -1.43263h 0.181345v 1.03072h 0.181345v -0.786057h 0.181345v -0.34651h 0.181345v -0.51143h 0.181345v
 -1.76877h 0.181345v -1.25542h 0.181345v -1.96455h 0.181345v -3.35319h 0.181345v -2.71268h 0.181345v -3.74188h 0.181345v -3.23591h 0.181345v -3.03247h 0.181345v -2.81692h 0.181345v -2.17351h 0.181345v -2.05861h 0.181345v -1.01853h 0.181345v 0.202615h
 0.181345v -0.277236h 0.181345v 0.49176h 0.181345v 1.8584h 0.181345v 1.89499h 0.181345v 2.73912h 0.181345v 3.52183h 0.181345v 3.12842h 0.181345v 4.48847h 0.181345v 4.53899h 0.181345v 4.51674h 0.181345v 4.30065h 0.181345v 3.67875h 0.181345v 1.85582h
 0.181345v 1.51325h 0.181345v 1.40494h 0.181345v -0.222947h 0.181345v 1.44393h 0.181345v -0.0809557h 0.181345v 1.11683h 0.181345v 1.17473h 0.181345v -1.57508h 0.181345v 0.400355h 0.181345v 0.803444h 0.181345v -0.242547h 0.181345v 0.120786h 0.181345v
 1.53024h 0.181345v 0.305025h 0.181345v -0.0341975h 0.181345v -1.58734h 0.181345v 1.48521h 0.181345v -1.36171h 0.181345v 1.294h 0.181345v 0.341603h 0.181345v -1.29067h 0.181345v -1.21826h 0.181345v 3.108h 0.181345v -1.2085h 0.181345v 1.06539h
 0.181345v -0.864968h 0.181345v 0.203118h 0.181345v -0.731775h 0.181345v 0.495068h 0.181345v -1.22398h 0.181345v 0.218141h 0.181345v 1.27667h 0.181345v 0.345512h 0.181345v 0.246651h 0.181345v 0.690532h 0.181345v -0.619314h 0.181345v 1.81852h
 0.181345v -0.630826h 0.181345v 0.997602h 0.181345v -0.920176h 0.181345v -1.22939h 0.181345v 1.78279h 0.181345v 0.870096h 0.181345v -0.829781h 0.181345v -0.279975h 0.181345v 1.98781h 0.181345v -0.792508h 0.181345v -0.422947h 0.181345v -0.165916h
 0.181345v 1.24636h 0.181345v -0.528271h 0.181345v 1.40444h 0.181345v -1.31767h 0.181345v -0.0867716h 0.181345v -0.257362h 0.181345v 0.344134h 0.181345v 2.14718h 0.181345v -2.70249h 0.181345v 1.59076h 0.181345v -0.458947h 0.181345v -1.42257h
 0.181345v 1.83499h 0.181345v -0.32174h 0.181345v 0.889764h 0.181345v -1.51338h 0.181345v 2.10361h 0.181345v -0.734255h 0.181345v 1.19258h 0.181345v -1.47657h 0.181345v 1.01824h 0.181345v 0.771797h 0.181345v -1.88353h 0.181345v 2.04274h 0.181345v
 -1.17975h 0.181345v 0.248741h 0.181345v 0.100655h 0.181345v -0.100655h 0.181345v 0.771797h 0.181345v 0.981457h 0.181345v -0.822247h 0.181345v -0.575738h 0.181345v -0.254613h 0.181345v 0.565928h 0.36269v 0.587969h 0.181345v -1.79647h 0.181345v
 -0.24004h 0.181345v 0.28851h 0.181345v 1.42446h 0.181345v -0.931006h 0.181345v -0.638393h 0.181345v -0.704554h 0.181345v 0.277889h 0.181345v -0.185826h 0.181345v -1.36749h 0.181345v -0.700452h 0.181345v -1.2734h 0.181345v -0.329429h 0.181345v
 -2.18709h 0.181345v -0.583727h 0.181345v -0.532933h 0.181345v -0.144759h 0.181345v -0.813285h 0.181345v 1.49098h 0.181345v -0.735209h 0.181345v 1.16312h 0.181345v 0.0932951h 0.181345v 1.33642h 0.181345v 0.414622h 0.181345v 2.42698h 0.181345v
 0.846059h 0.181345v 1.22301h 0.181345v 0.430723h 0.181345v 0.746357h 0.181345v 1.27667h 0.181345v -1.37834h 0.181345v 2.17616h 0.181345v 0.780598h 0.181345v -1.2983h 0.181345v 1.2368h 0.181345v -1.2368h 0.181345v 0.0566538h 0.181345v 1.74288h
 0.181345v 0.0638403h 0.181345v -1.0502h 0.181345v -0.585275h 0.181345v 1.38171h 0.181345v 0.0630406h 0.181345v -1.15495h 0.181345v 0.117496h 0.181345v 0.601602h 0.181345v -1.29324h 0.181345v 0.169963h 0.181345v 0.229635h 0.181345v 2.30813h 0.181345v
 -1.04167h 0.181345v -0.187558h 0.181345v 2.06053h 0.181345v -2.90625h 0.36269v 0.538211h 0.181345v -0.0607575h 0.181345v -0.594494h 0.181345v 2.74107h 0.181345v 1.31372h 0.181345v -2.84143h 0.181345v 0.126876h 0.181345v 0.784499h 0.181345v -1.59076h
 0.181345v 0.491042h 0.181345v -3.04111h 0.181345v 2.31041h 0.181345v -0.753618h 0.181345v 0.401115h 0.181345v -1.59656h 0.181345v -0.91225h 0.181345v 1.44393h 0.181345v -1.88019h 0.181345v 0.192336h 0.181345v 0.392183h 0.181345v -1.00852h 0.181345v
 0.471857h 0.181345v -0.0478549h 0.181345v -1.88412h 0.181345v 2.17355h 0.181345v 1.16392h 0.181345v -1.64327h 0.181345v 0.479348h 0.181345v 0.903152h 0.181345v -0.154327h 0.181345v 1.6763h 0.181345v -0.227045h 0.181345v 1.11023h 0.181345v 0.0607575h
 0.181345v -0.121271h 0.181345v 2.13736h 0.181345v -0.411795h 0.181345v -1.96522h 0.181345v -0.0593251h 0.181345v 0.0593251h 0.181345v 1.63043h 0.181345v 1.67931h 0.181345v -2.76506h 0.181345v 1.69381h 0.181345v -0.608064h 0.181345v 0.956768h
 0.181345v -1.02284h 0.181345v -0.0657875h 0.181345v 0.671142h 0.181345v -0.671142h 0.181345v -0.579533h 0.181345v 1.59778h 0.181345v -0.753355h 0.181345v -0.0666589h 0.181345v -0.263731h 0.181345v 0.600008h 0.181345v -0.336277h 0.181345v 0.610797h
 0.181345v -0.743239h 0.181345v 0.674139h 0.181345v 0.348704h 0.181345v -1.08863h 0.181345v -1.13764h 0.181345v 1.67215h 0.181345v -0.135411h 0.181345v -1.59749h 0.181345v 0.682171h 0.181345v 0.255908h 0.181345v 0.794826h 0.181345v 0.911073h
 0.181345v -1.77028h 0.181345v -0.127952h 0.181345v -0.562731h 0.181345v 0.626572h 0.181345v -0.190717h 0.181345v 0.844421h 0.181345v -0.33039h 0.181345v 0.0655021h 0.181345v 2.2619h 0.181345v -2.2619h 0.181345v -2.42089h 0.181345v 1.90466h 0.181345v
 0.0635715h 0.181345v -0.315214h 0.181345v 0.833659h 0.181345v -1.68278h 0.181345v 1.22817h 0.181345v -1.0502h 0.181345v 3.39894h 0.181345v -2.15558h 0.181345v -0.193157h 0.181345v -0.190717h 0.181345v 0.911375h 0.181345v 0.827506h 0.181345v
 -0.827506h 0.181345v -0.911375h 0.181345v 1.59778h 0.181345v -2.09488h 0.181345v -1.06203h 0.181345v 0.819484h 0.181345v 0.303797h 0.181345v -0.719098h 0.181345v 0.415301h 0.181345v 0.866528h 0.181345v -1.62893h 0.181345v -0.834367h 0.181345v
 1.29896h 0.181345v 1.29228h 0.181345v -1.69958h 0.181345v 0.825889h 0.181345v -1.16646h 0.181345v 4.17603h 0.181345v -2.94881h 0.181345v 1.20343h 0.181345v -0.13129h 0.181345v 1.65626h 0.181345v -1.59076h 0.181345v -0.642574h 0.181345v 3.29064h
 0.181345v -2.18141h 0.181345v -0.334786h 0.181345v -0.392183h 0.181345v 1.27856h 0.181345v -0.0700614h 0.181345v 0.497398h 0.181345v -1.51108h 0.181345v 1.87667h 0.36269v -0.932727h 0.181345v 0.423342h 0.181345v 2.56782h 0.181345v -0.985015h
 0.181345v -2.21345h 0.181345v -0.204494h 0.181345v 1.49327h 0.181345v 0.766571h 0.181345v -0.15646h 0.36269v 0.235302h 0.181345v 0.400506h 0.181345v -1.32048h 0.181345v 2.58998h 0.181345v 0.631062h 0.181345v -2.53637h 0.181345v 1.04723h 0.181345v
 -2.31548h 0.181345v 5.05153h 0.181345v -3.06608h 0.181345v 0.667433h 0.181345v 1.337h 0.181345v -1.6744h 0.181345v 2.05188h 0.181345v -1.19379h 0.181345v 0.909806h 0.181345v -2.17931h 0.181345v 1.90057h 0.181345v 0.372814h 0.181345v -2.27338h
 0.181345v 0.163225h 0.181345v 0.165009h 0.181345v 0.853233h 0.181345v -0.347101h 0.181345v 0.347101h 0.181345v -0.174548h 0.181345v 0.801863h 0.36269v 1.14003h 0.181345v 1.12649h 0.181345v -2.44843h 0.181345v -0.357371h 0.181345v -0.858084h
 0.181345v 0.946636h 0.181345v 2.0924h 0.181345v -2.53006h 0.181345v 3.91815h 0.181345v 0.569811h 0.181345v -3.32254h 0.181345v 1.467h 0.181345v -0.305025h 0.181345v -3.80558h 0.181345v 2.09452h 0.181345v -0.442794h 0.181345v -0.848437h 0.181345v
 4.48162h 0.181345v -2.82656h 0.181345v -0.980169h 0.181345v 0.616339h 0.181345v 1.61074h 0.181345v -0.198664h 0.181345v 0.198664h 0.181345v -1.24691h 0.181345v 0.372814h 0.181345v -0.28047h 0.181345v 1.05491h 0.181345v -1.23903h 0.181345v -0.450726h
 0.181345v 0.0890752h 0.181345v 3.39142h 0.181345v -2.47051h 0.181345v 0.779435h 0.181345v -0.198664h 0.181345v -0.09836h 0.181345v 0.498336h 0.181345v -0.100992h 0.181345v -1.06849h 0.181345v 1.89599h 0.181345v 0.106702h 0.181345v -2.00269h
 0.181345v 0.968166h 0.181345v -0.779435h 0.181345v -0.0946599h 0.181345v -1.43901h 0.181345v 4.69058h 0.181345v -1.66082h 0.181345v 0.86299h 0.181345v -1.87667h 0.181345v -0.857542h 0.181345v 1.15457h 0.181345v -0.297024h 0.181345v 1.76606h
 0.181345v -2.34313h 0.181345v 0.675432h 0.181345v 1.12649h 0.181345v -1.98948h 0.181345v -0.458947h 0.181345v 1.42094h 0.181345v 0.300971h 0.181345v 0.101672h 0.181345v 1.38809h 0.181345v -1.38809h 0.181345v -0.987163h 0.181345v 1.29635h 0.181345v
 -1.39161h 0.181345v 1.4961h 0.181345v -3.28496h 0.181345v 2.36963h 0.181345v 0.099005h 0.181345v -1.51108h 0.181345v 1.71106h 0.181345v -1.71106h 0.181345v -0.872972h 0.181345v 2.68502h 0.181345v -2.93737h 0.181345v 1.48915h 0.181345v -0.980169h
 0.181345v -0.171572h 0.181345v -0.50332h 0.181345v 0.935963h 0.181345v -1.66082h 0.36269v 1.22817h 0.181345v -2.0693h 0.181345v 0.224791h 0.181345v -1.64351h 0.181345v 1.64351h 0.181345v -1.84527h 0.181345v 1.54628h 0.181345v -2.57904h 0.181345v
 2.21345h 0.181345v -0.636553h 0.181345v 0.854844h 0.181345v -0.575239h 0.181345v 0.871292h 0.181345v -1.08148h 0.181345v -2.43634h 0.181345v 3.44326h 0.181345v -1.21422h 0.181345v -0.866802h 0.181345v -1.00274h 0.181345v 1.1329h 0.181345v 1.87667h
 0.181345v -0.293178h 0.181345v -1.2531h 0.181345v 0.544138h 0.181345v 1.22583h 0.181345v 0.691642h 0.181345v -0.766571h 0.181345v 0.688139h 0.181345v -0.309718h 0.181345v -0.45298h 0.181345v 0.300472h 0.181345v -0.0756804h 0.181345v -1.43901h
 0.181345v 0.277039h 0.181345v -2.97247h 0.181345v -0.284344h 0.181345v -2.53521h 0.181345v 0.28851h 0.181345v -1.03196h 0.181345v -2.76783h 0.181345v -1.16197h 0.181345v -0.849392h 0.181345v -3.12259h 0.181345v -1.06315h 0.181345v -0.993183h
 0.181345v -1.57903h 0.181345v -1.90216h 0.181345v 0.0186283h 0.181345v -1.5235h 0.181345v 0.186505h 0.181345v -0.0340817h 0.181345v -0.452729h 0.181345v -0.804142h 0.181345v 0.525901h 0.181345v -0.0485734h 0.181345v 0.745538h 0.181345v 1.12805h
 0.181345v 1.99257h 0.181345v 1.21721h 0.181345v 0.483h 0.181345v -0.185826h 0.181345v 3.66632h 0.181345v 0.723406h 0.181345v 3.37679h 0.181345v 0.155253h 0.181345v 2.72934h 0.181345v 2.42902h 0.181345v 0.96344h 0.181345v 2.06633h 0.181345v
 -0.397344h 0.181345v 3.68277h 0.181345v 0.508977h 0.181345v 0.980169h 0.181345v 1.75531h 0.181345v -2.38638h 0.181345v 1.38613h 0.181345v -0.755068h 0.181345v 1.44822h 0.181345v 3.39442h 0.181345v -3.69539h 0.181345v 1.34988h 0.181345v 1.36317h
 0.181345v -0.468199h 0.181345v -0.565542h 0.181345v 1.1531h 0.181345v -1.80492h 0.181345v 0.988599h 0.181345v 1.42767h 0.181345v -0.247517h 0.181345v -1.18015h 0.181345v -0.988599h 0.181345v 4.99531h 0.181345v -5.51779h 0.181345v 2.4477h 0.181345v
 -0.358077h 0.181345v -0.803897h 0.181345v 0.803897h 0.36269v 0.974416h 0.181345v -1.77831h 0.181345v 1.65302h 0.181345v -0.611347h 0.181345v 0.611347h 0.181345v 1.5769h 0.181345v 1.30113h 0.181345v -1.16197h 0.181345v -4.02562h 0.181345v 0.656547h
 0.181345v 0.6864h 0.181345v 3.39836h 0.181345v -3.16244h 0.181345v 2.16971h 0.181345v 0.559257h 0.181345v -1.87297h 0.181345v 0.511853h 0.181345v -1.60377h 0.181345v 2.40563h 0.181345v -0.801863h 0.181345v -1.2485h 0.181345v 2.89721h 0.181345v
 -1.64871h 0.36269v -0.129599h 0.181345v 1.06935h 0.181345v 0.564485h 0.181345v -1.63383h 0.181345v 3.7944h 0.181345v -3.6648h 0.181345v 0.939747h 0.181345v -1.06935h 0.181345v 0.129599h 0.181345v 2.09064h 0.181345v -1.01174h 0.181345v -0.683293h
 0.181345v 2.30515h 0.181345v 1.99387h 0.181345v -4.1648h 0.181345v 0.549086h 0.181345v 2.42089h 0.181345v 0.331842h 0.181345v 0.511853h 0.181345v -2.54889h 0.181345v -2.05269h 0.181345v 2.95885h 0.181345v 1.81728h 0.181345v -1.81728h 0.181345v
 0.964043h 0.181345v -2.30368h 0.181345v -0.831304h 0.181345v -0.787911h 0.181345v 2.34874h 0.181345v -0.871292h 0.181345v -0.689536h 0.181345v 2.4855h 0.181345v -0.314557h 0.181345v -0.459879h 0.181345v -1.16197h 0.181345v 3.7944h 0.181345v
 -4.61072h 0.181345v 0.133025h 0.181345v 1.69504h 0.181345v -0.296053h 0.181345v 0.296053h 0.181345v 1.24592h 0.181345v -1.09569h 0.181345v 0.305025h 0.181345v 1.97213h 0.181345v -2.72344h 0.181345v -0.992728h 0.181345v -2.86668h 0.181345v 1.18015h
 0.181345v -0.36383h 0.181345v -0.119354h 0.181345v -1.25416h 0.181345v -1.75398h 0.181345v -0.479348h 0.181345v -2.98681h 0.181345v -1.19062h 0.181345v -1.30179h 0.181345v -2.42089h 0.181345v -2.23123h 0.181345v -0.844219h 0.181345v -2.89649h
 0.181345v -1.67336h 0.181345v -1.95699h 0.181345v -1.02982h 0.181345v -1.84576h 0.181345v -0.809877h 0.181345v -0.900309h 0.181345v -0.828963h 0.181345v -1.11594h 0.181345v -0.247673h 0.181345v -1.1108h 0.181345v -0.157183h 0.181345v -0.138358h
 0.181345v 0.0172256h 0.181345v 0.26077h 0.181345v 1.07176h 0.181345v 1.11311h 0.181345v -0.866367h 0.181345v 2.00242h 0.181345v 0.693008h 0.181345v 1.69277h 0.181345v 1.30906h 0.181345v 1.55668h 0.181345v 2.44647h 0.181345v 1.89702h 0.181345v
 1.79379h 0.181345v -0.276194h 0.181345v 3.01963h 0.181345v 2.4767h 0.181345v 2.18584h 0.181345v 1.51507h 0.181345v 3.68694h 0.181345v 2.30956h 0.181345v -0.247517h 0.36269v 2.67926h 0.181345v 2.72344h 0.181345v 1.47417h 0.181345v -0.755068h
 0.181345v -0.183011h 0.181345v 0.183011h 0.36269v 1.14725h 0.181345v -0.58452h 0.181345v 4.928h 0.181345v -1.51108h 0.181345v 0.487081h 0.181345v -0.487081h 0.181345v 2.60962h 0.181345v -1.09854h 0.181345v -0.774437h 0.181345v 0.511853h 0.181345v
 3.17508h 0.181345v -3.17508h 0.181345v 1.94189h 0.181345v 2.57614h 0.181345v -5.52495h 0.181345v 1.80878h 0.181345v 0.559257h 0.181345v -2.36804h 0.181345v -0.713434h 0.181345v 3.08147h 0.181345v 2.47051h 0.181345v -0.331842h 0.181345v -2.69793h
 0.181345v -1.56328h 0.181345v -1.4165h 0.181345v 6.00954h 0.181345v -4.83855h 0.181345v 1.2695h 0.181345v 0.539279h 0.36269v -1.05996h 0.181345v 1.61922h 0.181345v -1.36112h 0.181345v 1.64871h 0.181345v -1.1189h 0.181345v 1.1189h 0.181345v 0.293178h
 0.181345v -4.34348h 0.181345v 2.1435h 0.181345v 1.05996h 0.181345v -2.05036h 0.181345v 2.05036h 0.181345v 1.14003h 0.181345v -1.14003h 0.181345v 1.43901h 0.181345v -1.16197h 0.181345v -3.02977h 0.181345v -1.52197h 0.181345v 2.96098h 0.181345v
 -2.3274h 0.181345v 4.20037h 0.181345v -2.84739h 0.181345v -2.98681h 0.181345v 2.98681h 0.181345v -1.35298h 0.181345v 3.64112h 0.181345v -2.97977h 0.181345v 0.227045h 0.181345v 3.89276h 0.181345v -0.580772h 0.181345v -7.13178h 0.181345v 7.13178h
 0.181345v -5.24204h 0.181345v 4.95982h 0.181345v -1.84032h 0.181345v -1.86059h 0.181345v 4.5639h 0.181345v -4.78114h 0.181345v 1.1189h 0.181345v 3.96123h 0.181345v -3.00229h 0.181345v 1.024h 0.181345v -2.4405h 0.181345v -1.50035h 0.181345v 2.67134h
 0.181345v 2.36804h 0.181345v -2.12254h 0.181345v 3.00229h 0.181345v -3.2478h 0.36269v 1.80878h 0.181345v 3.36907h 0.181345v -5.41943h 0.181345v 0.736644h 0.181345v 0.253757h 0.181345v -3.21474h 0.181345v 3.73542h 0.181345v 0.267232h 0.181345v
 -2.25017h 0.181345v 4.89544h 0.181345v -3.17508h 0.181345v 2.24088h 0.181345v -5.08013h 0.181345v 3.64112h 0.181345v -4.2747h 0.181345v 4.2747h 0.181345v 1.74404h 0.181345v 1.62503h 0.181345v -0.995847h 0.181345v -4.182h 0.181345v 0.245505h
 0.181345v 4.2612h 0.181345v -6.33904h 0.181345v 3.36907h 0.181345v 0.272047h 0.181345v 5.19033h 0.181345v -3.13498h 0.181345v -0.311314h 0.181345v -0.604009h 0.181345v 4.84513h 0.181345v -4.54615h 0.181345v -1.43901h 0.181345v 3.02977h 0.181345v
 -1.88974h 0.181345v 1.88974h 0.181345v -1.88974h 0.36269v -1.14003h 0.181345v -1.05996h 0.181345v 1.90681h 0.181345v 3.96123h 0.181345v -2.75273h 0.181345v -0.616339h 0.181345v -0.298984h 0.181345v 1.5579h 0.181345v -2.42089h 0.181345v 1.16197h
 0.181345v 0.616339h 0.181345v -3.11531h 0.181345v 5.49523h 0.181345v -0.719098h 0.181345v -5.27945h 0.181345v 3.9365h 0.181345v 1.34295h 0.181345v -2.27716h 0.181345v -1.71106h 0.181345v 3.30182h 0.181345v -3.30182h 0.181345v 6.25721h 0.181345v
 -4.54615h 0.181345v 1.93005h 0.181345v 2.61609h 0.181345v -5.70812h 0.181345v 3.43913h 0.181345v -1.34295h 0.181345v -1.23319h 0.181345v 6.57252h 0.181345v -8.25183h 0.181345v 6.52444h 0.181345v -1.54989h 0.181345v -2.06205h 0.181345v 4.02562h
 0.181345v -2.68267h 0.181345v 0.355268h 0.181345v 0.736644h 0.181345v 0.382254h 0.181345v 2.07149h 0.36269v -3.19039h 0.181345v 3.64112h 0.181345v -3.64112h 0.181345v 2.3274h 0.181345v -0.413675h 0.181345v -3.61194h 0.181345v 5.33933h 0.181345v
 -2.13003h 0.181345v -0.392183h 0.181345v 5.0029h 0.181345v -6.1218h 0.181345v 3.19039h 0.181345v 1.39467h 0.181345v -1.39467h 0.181345v 2.40159h 0.181345v 5.60994h 0.181345v -6.61686h 0.181345v 0.495068h 0.181345v -2.3274h 0.181345v 0.43766h
 0.181345v -2.07149h 0.181345v 8.64401h 0.181345v 1.43901h 0.181345v -8.4492h 0.181345v 9.22363h 0.181345v -4.1435h 0.181345v -2.24088h 0.181345v -2.83925h 0.181345v 7.71255h 0.181345v -6.82417h 0.181345v 1.95087h 0.181345v 4.8733h 0.181345v
 -3.22459h 0.181345v 1.85108h 0.181345v -1.25891h 0.181345v -0.592163h 0.181345v -1.64871h 0.181345v 4.8733h 0.181345v 0.736644h 0.36269v 9.02627h 0.181345v -9.76291h 0.181345v -4.8733h 0.181345v 2.85722h 0.181345v -2.3274h 0.181345v 8.4492h
 0.181345v 0.974416h 0.181345v -5.08013h 0.181345v 4.10571h 0.181345v -4.80808h 0.36269v 3.89276h 0.181345v 0.915323h 0.181345v -0.915323h 0.181345v 4.05031h 0.181345v -4.05031h 0.181345v -2.45374h 0.181345v 1.59076h 0.36269v -1.59076h 0.181345v
 6.50405h 0.181345v 1.2085h 0.181345v 2.75273h 0.181345v -11.2019h 0.181345v 5.08013h 0.181345v -4.34348h 0.181345v 6.50405h 0.181345v -1.1189h 0.181345v -1.04167h 0.181345v 1.04167h 0.181345v -3.7944h 0.181345v 4.9133h 0.181345v 2.52222h 0.181345v
 1.43901h 0.36269v -6.1218h 0.36269v 4.68278h 0.181345v -5.6572h 0.181345v -1.77831h 0.181345v -2.3274h 0.544034v 8.4492h 0.181345v -8.4492h 0.36269v -2.63242h 0.181345v -3.2478h 0.181345v -1.83233h 0.181345v -1.24165h 0.181345v -4.73567h 0.181345v
 3.96123h 0.181345v -2.43486h 0.181345v 0.324705h 0.181345v -4.01164h 0.181345v -1.2085h 0.181345v 0.234085h 0.181345v -2.98681h 0.181345v -3.4463h 0.181345v 2.3274h 0.181345v -1.69822h 0.181345v -1.95573h 0.181345v -0.823743h 0.181345v 2.46161h
 0.181345v -3.36907h 0.181345v 1.87297h 0.181345v 2.13867h 0.181345v -4.13694h 0.181345v 2.14138h 0.181345v 0.144482h 0.181345v -0.287594h 0.181345v 2.98236h 0.181345v -1.00692h 0.181345v -1.97544h 0.181345v 0.580772h 0.181345v 3.66805h 0.181345v
 -0.187558h 0.181345v 0.569811h 0.181345v 5.55199h 0.181345v -2.79926h 0.181345v 3.66225h 0.181345v -0.580772h 0.181345v 3.51218h 0.181345v -0.702369h 0.181345v 5.28743h 0.181345v -2.67134h 0.181345v 2.67134h 0.181345v 2.65563h 0.181345v -1.64871h
 0.544034v 2.24088h 0.181345v 1.93005h 0.181345v 2.21345h 0.181345v -4.73567h 0.181345v 8.30471h 0.181345v -1.88974h 0.181345v -3.89276h 0.181345v 2.21345h 0.181345v -6.89623h 0.181345v 3.36907h 0.181345v -5.25881h 0.181345v -2.45374h 0.181345v
 -0.372814h 0.181345v -2.69123h 0.181345v -0.305025h 0.181345v 2.63242h 0.181345v -4.8733h 0.181345v -2.40159h 0.181345v 1.88974h 0.181345v -4.53104h 0.181345v -4.06127h 0.181345v 2.63921h 0.181345v -1.45443h 0.181345v -0.897187h 0.181345v -3.01656h
 0.181345v 3.16244h 0.181345v -5.05917h 0.181345v 0.533561h 0.181345v 1.84635h 0.181345v -2.2747h 0.181345v -1.31372h 0.181345v -0.382254h 0.181345v 0.189917h 0.181345v -3.02108h 0.181345v 1.47818h 0.181345v -0.592163h 0.181345v 0.94127h 0.181345v
 0.909806h 0.181345v -2.01608h 0.181345v -0.953888h 0.181345v 0.0772289h 0.181345v -1.47417h 0.181345v 0.572513h 0.181345v 0.824425h 0.181345v -3.05775h 0.181345v 3.92981h 0.181345v -3.35274h 0.181345v -2.18669h 0.181345v 0.6352h 0.181345v 0.540351h
 0.181345v -1.28823h 0.181345v 0.0562318h 0.181345v -0.661341h 0.181345v -0.529816h 0.181345v 0.209701h 0.181345v 1.5556h 0.181345v -1.5556h 0.181345v -0.921533h 0.181345v 1.08074h 0.181345v 2.48831h 0.181345v -1.88974h 0.181345v -0.220416h 0.181345v
 -0.850828h 0.181345v 0.960634h 0.181345v 2.3826h 0.181345v 0.129599h 0.181345v 0.870648h 0.181345v 0.278316h 0.181345v 1.09191h 0.181345v 2.10261h 0.181345v 1.94189h 0.181345v 2.45955h 0.181345v 0.352503h 0.181345v 0.982344h 0.181345v 1.88974h
 0.181345v 3.0138h 0.181345v -1.50272h 0.181345v 9.69084h 0.181345v -3.96123h 0.181345v 1.72035h 0.181345v 1.64871h 0.181345v -0.846851h 0.181345v 8.6565h 0.181345v -2.25766h 0.181345v -3.36907h 0.181345v 7.16347h 0.181345v 6.67088h 0.36269v 2.75273h
 0.181345v -3.56905h 0.181345v 9.69084h 0.181345v -1.43901h 0.181345v -5.6572h 0.36269v 7.09621h 0.181345v -2.75273h 0.181345v 4.34348h 0.181345v -4.34348h 0.181345v 1.31372h 0.181345v 4.80808h 0.181345v -3.36907h 0.181345v 10.4653h 0.181345v
 -2.75273h 0.181345v -4.34348h 0.181345v 2.01608h 0.181345v -2.01608h 0.36269v 7.09621h 0.181345v -5.08013h 0.181345v -3.7944h 0.181345v 1.77831h 0.181345v 2.01608h 0.181345v 5.08013h 0.181345v -10.4653h 0.181345v 18.1778h 0.181345v -12.7927h
 0.181345v 18.9145h 0.181345v -18.9145h 0.181345v 8.4492h 0.181345v 20.9306h 0.36269v -27.0524h 0.181345v 16.5871h 0.181345v -10.4653h 0.181345v 4.34348h 0.181345v 16.5871h 0.181345v -27.0524h 0.181345v 10.4653h 0.181345v -4.34348h 0.181345v 10.4653h
 0.181345v -6.1218h 0.181345v -7.71255h 0.181345v 7.71255h 0.181345v 6.1218h 0.181345v -18.9145h 0.181345v 2.3274h 0.36269v 10.4653h 0.181345v -10.4653h 0.36269v 6.1218h 0.181345v -3.36907h 0.181345v 3.36907h 0.181345v -8.4492h 0.181345v 18.9145h
 0.181345v -18.9145h 0.181345v 8.4492h 0.36269v -3.36907h 0.181345v 3.36907h 0.181345v -6.1218h 0.181345v -6.1218h 0.181345v 16.5871h 0.181345v -10.4653h 0.181345v -9.15156h 0.181345v 15.2734h 0.181345v 4.34348h 0.181345v -20.9306h 0.181345v 6.1218h
 0.181345v 7.09621h 0.181345v -5.08013h 0.181345v 18.9145h 0.181345v -18.9145h 0.181345v 5.08013h 0.544034v 13.8343h 0.181345v -16.5871h 0.181345v -2.3274h 0.181345v -8.13788h 0.181345v 8.13788h 0.181345v -5.38515h 0.181345v 5.38515h 0.181345v
 -3.7944h 0.181345v -5.55199h 0.181345v -4.05031h 0.181345v 6.57252h 0.181345v -3.64112h 0.181345v 1.1189h 0.181345v -1.1189h 0.181345v -1.04167h 0.181345v 9.49086h 0.181345v -9.49086h 0.181345v -4.34348h 0.181345v -4.53104h 0.181345v 1.16197h
 0.181345v 2.63242h 0.181345v 8.4492h 0.181345v -7.71255h 0.181345v -1.43901h 0.181345v 2.21345h 0.181345v 1.67931h 0.181345v -5.82281h 0.181345v 4.95982h 0.181345v -3.70091h 0.181345v -1.85108h 0.181345v 1.2085h 0.181345v 2.75273h 0.36269v 0.774437h
 0.181345v 9.69084h 0.181345v -3.96123h 0.181345v -6.50405h 0.181345v 5.38515h 0.181345v 5.08013h 0.181345v 1.59076h 0.181345v -3.02977h 0.181345v -8.25183h 0.181345v 15.076h 0.181345v -9.34638h 0.36269v 1.2085h 0.181345v 1.31372h 0.181345v 9.15156h
 0.181345v -6.1218h 0.181345v 1.77831h 0.181345v 10.4653h 0.181345v -3.36907h 0.181345v 7.71255h 0.181345v -12.7927h 0.181345v 2.3274h 0.181345v 10.4653h 0.36269v -4.34348h 0.181345v 10.4653h 0.181345v -6.1218h 0.181345v -4.34348h 0.181345v -3.36907h
 0.36269v -2.75273h 0.181345v 2.75273h 0.36269v 13.8343h 0.181345v -10.4653h 0.36269v 10.4653h 0.181345v -6.1218h 0.181345v -7.71255h 0.181345v 3.36907h 0.181345v 4.34348h 0.181345v -7.71255h 0.181345v 7.71255h 0.181345v -12.7927h 0.181345v 5.08013h
 0.36269v 13.8343h 0.181345v 20.9306h 0.181345v -34.7649h 0.181345v 3.36907h 0.181345v 4.34348h 0.181345v -7.71255h 0.181345v -7.09621h 0.181345v 31.3958h 0.181345v -24.2996h 0.181345v 13.8343h 0.181345v -10.4653h 0.181345v 10.4653h 0.544034v
 -13.8343h 0.181345v 3.36907h 0.181345v 4.34348h 0.181345v -7.71255h 0.181345v 13.8343h 0.181345v -18.9145h 0.181345v 12.7927h 0.36269v -7.71255h 0.181345v -2.75273h 0.181345v -2.3274h 0.181345v 18.9145h 0.181345v -18.9145h 0.181345v 18.9145h
 0.181345v -13.8343h 0.36269v 3.36907h 0.36269v -16.5871h 0.181345v 13.218h 0.181345v 24.2996h 0.181345v -20.9306h 0.181345v -8.4492h 0.181345v 5.08013h 0.181345v 3.36907h 0.181345v 4.34348h 0.181345v -7.71255h 0.725379v -2.75273h 0.181345v -2.3274h
 0.181345v -8.13788h 0.181345v 6.1218h 0.181345v -3.36907h 0.181345v 5.38515h 0.36269v -2.01608h 0.36269v -1.77831h 0.181345v 8.87453h 0.181345v -5.08013h 0.181345v -5.38515h 0.181345v -5.08013h 0.181345v 5.08013h 0.181345v 1.59076h 0.181345v
 8.87453h 0.181345v -15.5454h 0.181345v 15.5454h 0.181345v -13.218h 0.181345v 10.4653h 0.181345v 6.1218h 0.181345v -17.7956h 0.181345v 9.34638h 0.181345v -6.82417h 0.181345v 1.43901h 0.181345v 3.36907h 0.181345v 14.8088h 0.181345v -12.7927h 0.36269v
 8.4492h 0.181345v -6.1218h 0.181345v 27.0524h 0.181345v -37.5176h 0.181345v 20.9306h 0.181345v -4.34348h 0.36269v -10.4653h 0.181345v 7.09621h 0.181345v 13.8343h 0.181345v -16.5871h 0.36269v 6.1218h 0.181345v -8.4492h 0.181345v -5.38515h 0.181345v
 -2.75273h 0.181345v 6.1218h 0.181345v 14.8088h 0.181345v -10.4653h 0.181345v 6.1218h 0.36269v 10.4653h 0.36269v -24.2996h 0.181345v 10.4653h 0.181345v -2.75273h 0.181345v 2.75273h 0.181345v -10.4653h 0.181345v 5.38515h 0.181345v 2.3274h 0.181345v
 6.1218h 0.181345v -6.1218h 0.181345v 10.4653h 0.181345v -7.71255h 0.544034v -2.75273h 0.181345v 37.5176h 0.181345v -46.6692h 0.181345v 15.2734h 0.181345v -3.36907h 0.544034v -2.75273h 0.181345v -7.71255h 0.181345v 18.1778h 0.181345v -16.5871h
 0.181345v 1.77831h 0.181345v 4.34348h 0.181345v 2.75273h 0.181345v -2.75273h 0.36269v -6.1218h 0.181345v 8.87453h 0.181345v -8.87453h 0.181345v 8.87453h 0.181345v -10.4653h 0.181345v 3.36907h 0.181345v 2.01608h 0.181345v -5.38515h 0.181345v 13.8343h
 0.181345v -6.1218h 0.36269v -4.34348h 0.181345v 10.4653h 0.181345v -3.36907h 0.181345v -5.08013h 0.181345v -9.34638h 0.181345v 11.6738h 0.181345v -6.1218h 0.181345v 8.87453h 0.181345v -7.09621h 0.36269v -4.80808h 0.181345v 4.80808h 0.36269v
 -1.77831h 0.181345v 12.2436h 0.181345v -12.2436h 0.181345v 6.1218h 0.181345v 2.75273h 0.181345v -8.87453h 0.181345v -1.59076h 0.181345v -5.08013h 0.181345v 6.67088h 0.181345v 1.77831h 0.181345v -3.36907h 0.181345v -5.08013h 0.181345v 12.7927h
 0.181345v 2.75273h 0.36269v -14.4265h 0.181345v 3.96123h 0.181345v -8.87453h 0.181345v 8.87453h 0.181345v 3.36907h 0.181345v -4.80808h 0.181345v -2.52222h 0.181345v -2.16057h 0.181345v 3.36907h 0.181345v 4.34348h 0.181345v -1.59076h 0.181345v
 7.71255h 0.181345v -9.15156h 0.181345v 1.43901h 0.181345v 1.59076h 0.181345v -15.4251h 0.181345v 21.5469h 0.181345v -6.1218h 0.36269v 1.77831h 0.181345v -1.77831h 0.181345v -3.02977h 0.181345v -2.52222h 0.36269v -2.16057h 0.181345v 11.5069h
 0.181345v -12.4814h 0.181345v 5.6572h 0.36269v -3.64112h 0.36269v 6.67088h 0.181345v -9.60229h 0.181345v 0.915323h 0.181345v 2.01608h 0.36269v 15.5454h 0.181345v -13.218h 0.181345v 6.1218h 0.181345v -3.36907h 0.181345v -1.43901h 0.181345v -4.68278h
 0.181345v -3.56905h 0.181345v 0.816318h 0.181345v 2.75273h 0.181345v 9.49086h 0.181345v -12.2436h 0.181345v 10.4653h 0.181345v -9.60229h 0.181345v 1.88974h 0.181345v 9.49086h 0.181345v -7.3303h 0.181345v -7.24069h 0.181345v 8.4492h 0.181345v
 -3.36907h 0.181345v -6.45364h 0.181345v 2.11016h 0.181345v 1.59076h 0.181345v 2.75273h 0.181345v -0.974416h 0.181345v -3.36907h 0.181345v 4.34348h 0.181345v -10.9603h 0.181345v 8.20762h 0.181345v 6.1218h 0.181345v -1.2085h 0.181345v -8.61421h
 0.181345v 2.11016h 0.181345v -2.11016h 0.181345v 4.5639h 0.181345v 0.915323h 0.181345v -7.3303h 0.181345v 1.85108h 0.181345v 3.70091h 0.181345v -2.3274h 0.181345v 2.3274h 0.544034v -5.55199h 0.181345v 6.41498h 0.181345v 1.88974h 0.181345v -10.9603h
 0.181345v 2.65563h 0.181345v 1.85108h 0.181345v -1.25891h 0.181345v 0.616339h 0.181345v -2.3274h 0.181345v 1.71106h 0.181345v -2.75273h 0.181345v 5.38515h 0.181345v 5.08013h 0.181345v -1.88974h 0.181345v -8.57554h 0.181345v 2.16057h 0.181345v
 2.52222h 0.181345v 3.02977h 0.181345v -7.71255h 0.181345v 1.59076h 0.181345v -1.59076h 0.181345v 1.59076h 0.181345v 0.569811h 0.181345v -2.16057h 0.181345v 5.38515h 0.181345v -2.63242h 0.181345v -3.72714h 0.181345v 10.4653h 0.181345v -8.4492h
 0.181345v -2.48068h 0.181345v 4.19174h 0.181345v -1.71106h 0.36269v 3.64112h 0.181345v -1.93005h 0.181345v -0.592163h 0.181345v -2.16057h 0.181345v 4.01164h 0.181345v 2.11016h 0.181345v -4.53104h 0.181345v -2.56517h 0.181345v 2.56517h 0.181345v
 4.53104h 0.181345v -0.736644h 0.181345v 1.51108h 0.181345v 2.59463h 0.181345v -2.59463h 0.181345v -4.1435h 0.181345v 5.82281h 0.36269v -1.67931h 0.181345v 5.72961h 0.181345v -5.72961h 0.36269v -3.52717h 0.181345v 5.20647h 0.181345v 0.915323h
 0.181345v 0.974416h 0.181345v 2.16057h 0.181345v -6.50405h 0.181345v 1.59076h 0.181345v 7.43551h 0.36269v -2.52222h 0.181345v -4.9133h 0.181345v -2.3274h 0.181345v 9.76291h 0.181345v 1.43901h 0.181345v -1.43901h 0.181345v -5.6572h 0.544034v 5.6572h
 0.181345v -4.68278h 0.181345v 3.36907h 0.181345v -7.71255h 0.181345v -0.736644h 0.181345v 5.08013h 0.181345v 3.36907h 0.181345v -5.25881h 0.181345v -1.67931h 0.181345v -2.21345h 0.181345v 10.4653h 0.181345v -6.57252h 0.181345v 2.93141h 0.181345v
 2.3274h 0.181345v -6.93812h 0.36269v 4.61072h 0.181345v 2.3274h 0.181345v -2.3274h 0.181345v -5.38515h 0.181345v -2.11016h 0.181345v 9.82271h 0.181345v -3.36907h 0.181345v 6.1218h 0.181345v -10.4653h 0.181345v 9.02627h 0.181345v -9.02627h 0.181345v
 2.45374h 0.181345v 6.57252h 0.181345v 4.80808h 0.181345v -10.4653h 0.181345v 3.13498h 0.36269v -4.05031h 0.181345v 8.01154h 0.181345v -9.69084h 0.181345v 5.72961h 0.181345v -3.13498h 0.181345v 2.01608h 0.181345v -2.01608h 0.181345v -0.915323h
 0.181345v 11.3806h 0.181345v -6.1218h 0.181345v -3.36907h 0.181345v 6.1218h 0.181345v -7.09621h 0.181345v 7.09621h 0.181345v -9.69084h 0.181345v 3.56905h 0.181345v 11.5069h 0.181345v -5.38515h 0.181345v -10.4653h 0.181345v 10.4653h 0.181345v
 -5.08013h 0.181345v -2.01608h 0.181345v 2.01608h 0.181345v -3.7944h 0.181345v 2.75273h 0.181345v 1.04167h 0.181345v -2.01608h 0.181345v 0.974416h 0.181345v -7.09621h 0.181345v 7.09621h 0.181345v 3.36907h 0.181345v -1.2085h 0.181345v 2.52222h
 0.181345v -3.64112h 0.181345v -1.04167h 0.181345v -4.34348h 0.181345v 1.59076h 0.181345v 2.75273h 0.181345v 4.68278h 0.181345v -5.6572h 0.181345v 3.13498h 0.181345v 2.52222h 0.181345v 9.15156h 0.181345v -18.1778h 0.181345v 5.38515h 0.181345v
 -4.61072h 0.181345v 5.72961h 0.181345v -4.9133h 0.181345v 2.75273h 0.181345v -6.45364h 0.181345v 3.70091h 0.181345v 8.87453h 0.181345v -6.1218h 0.181345v 2.16057h 0.36269v -5.72961h 0.181345v -0.774437h 0.181345v 6.50405h 0.181345v 2.52222h
 0.181345v -6.57252h 0.181345v 0.915323h 0.181345v 0.974416h 0.181345v 1.04167h 0.181345v -3.7944h 0.181345v 3.7944h 0.181345v -5.38515h 0.181345v 9.02627h 0.181345v -11.1364h 0.181345v -1.85108h 0.181345v 8.30471h 0.181345v -7.71255h 0.181345v
 7.71255h 0.181345v -7.71255h 0.181345v 5.82281h 0.181345v -2.45374h 0.181345v 4.34348h 0.181345v -5.7825h 0.181345v -2.52222h 0.181345v 8.30471h 0.181345v -1.88974h 0.181345v 1.88974h 0.181345v -0.974416h 0.181345v 0.974416h 0.181345v 1.04167h
 0.181345v 1.1189h 0.181345v -6.50405h 0.181345v 5.38515h 0.181345v -5.38515h 0.181345v -2.11016h 0.181345v 0.671142h 0.181345v 3.02977h 0.181345v -3.02977h 0.181345v 11.9043h 0.181345v -8.87453h 0.181345v 0.86299h 0.181345v -3.19039h 0.181345v
 -2.01608h 0.181345v 2.01608h 0.36269v -1.37351h 0.181345v 2.88459h 0.181345v 3.56905h 0.181345v -5.08013h 0.181345v 0.736644h 0.181345v 1.59076h 0.181345v -4.34348h 0.181345v 3.52717h 0.36269v -2.21345h 0.181345v 0.702369h 0.181345v -5.38515h
 0.181345v 2.75273h 0.181345v 5.82281h 0.181345v -5.82281h 0.181345v 1.25891h 0.36269v -6.76437h 0.181345v 7.43551h 0.181345v -0.671142h 0.181345v 2.11016h 0.36269v 0.774437h 0.181345v -5.30548h 0.181345v 4.53104h 0.36269v -0.736644h 0.181345v
 -1.37351h 0.181345v -1.85108h 0.181345v 1.2085h 0.181345v 2.01608h 0.181345v -3.7944h 0.181345v 1.77831h 0.181345v 3.52717h 0.181345v 1.67931h 0.181345v 0.915323h 0.181345v -5.47922h 0.181345v -1.85108h 0.181345v 4.73567h 0.181345v 1.67931h 0.36269v
 -0.86299h 0.36269v 10.4653h 0.181345v -12.7927h 0.181345v 2.3274h 0.181345v -5.55199h 0.181345v 7.3303h 0.181345v -1.77831h 0.181345v 2.75273h 0.181345v 2.16057h 0.181345v -1.1189h 0.36269v -1.04167h 0.181345v 1.04167h 0.181345v -2.93141h 0.181345v
 2.93141h 0.181345v 2.3274h 0.181345v -1.2085h 0.181345v -4.05031h 0.181345v -2.45374h 0.181345v 6.50405h 0.181345v -4.9133h 0.36269v 8.87453h 0.181345v 7.71255h 0.181345v -14.8088h 0.181345v 3.13498h 0.181345v -6.50405h 0.181345v 7.71255h 0.181345v
 -7.71255h 0.181345v -0.736644h 0.181345v -0.702369h 0.181345v 3.02977h 0.181345v 6.1218h 0.181345v -2.3274h 0.181345v 8.4492h 0.181345v -8.4492h 0.181345v -2.93141h 0.181345v 6.57252h 0.181345v 1.43901h 0.181345v -7.09621h 0.181345v -1.77831h
 0.36269v 3.7944h 0.181345v -3.7944h 0.36269v -3.02977h 0.181345v 7.94306h 0.181345v -7.94306h 0.181345v 5.7825h 0.181345v -8.87453h 0.181345v 16.5871h 0.181345v -8.68697h 0.181345v -2.59463h 0.181345v 0.816318h 0.181345v -3.02977h 0.36269v 3.89276h
 0.181345v 5.25881h 0.181345v -2.3274h 0.181345v -8.13788h 0.181345v 6.1218h 0.36269v -2.59463h 0.181345v 1.67931h 0.181345v 4.05031h 0.181345v -4.05031h 0.181345v 4.05031h 0.181345v -2.16057h 0.181345v 1.04167h 0.181345v -3.7944h 0.181345v 7.43551h
 0.181345v -2.52222h 0.181345v 3.96123h 0.36269v -2.75273h 0.36269v 10.4653h 0.181345v -7.71255h 0.181345v 5.38515h 0.181345v -6.82417h 0.181345v 3.02977h 0.181345v -6.67088h 0.181345v 3.64112h 0.181345v 4.80808h 0.181345v -1.77831h 0.181345v
 1.77831h 0.181345v -3.36907h 0.181345v 7.71255h 0.181345v -7.71255h 0.181345v -5.08013h 0.181345v 15.5454h 0.36269v -7.09621h 0.181345v 10.4653h 0.181345v -10.4653h 0.181345v -3.36907h 0.181345v 5.38515h 0.36269v -5.38515h 0.181345v 13.8343h
 0.181345v -15.2734h 0.181345v 6.82417h 0.181345v 2.3274h 0.181345v -9.15156h 0.181345v 6.82417h 0.181345v -8.13788h 0.181345v 2.75273h 0.181345v 7.71255h 0.36269v 2.75273h 0.181345v -8.87453h 0.181345v 8.87453h 0.181345v 13.8343h 0.181345v -20.9306h
 0.181345v -3.36907h 0.181345v 1.59076h 0.181345v 8.87453h 0.181345v -7.09621h 0.181345v -3.36907h 0.36269v -1.43901h 0.181345v 9.15156h 0.181345v -10.4653h 0.181345v 2.75273h 0.181345v -5.08013h 0.181345v 8.4492h 0.181345v -3.36907h 0.181345v
 -3.96123h 0.181345v 11.6738h 0.181345v -4.34348h 0.36269v 10.4653h 0.181345v -6.1218h 0.181345v -11.6738h 0.181345v 1.2085h 0.36269v 8.13788h 0.36269v -6.82417h 0.181345v 3.02977h 0.181345v 6.1218h 0.181345v 2.75273h 0.181345v -16.5871h 0.181345v
 13.8343h 0.181345v -6.1218h 0.181345v 1.77831h 0.181345v -1.77831h 0.181345v 6.1218h 0.181345v -6.1218h 0.181345v 1.77831h 0.181345v 7.09621h 0.181345v -7.09621h 0.181345v 10.4653h 0.181345v -8.4492h 0.181345v -2.01608h 0.181345v 2.01608h 0.181345v
 -2.01608h 0.181345v -7.3303h 0.181345v 17.7956h 0.181345v -18.9145h 0.181345v 3.64112h 0.181345v 3.02977h 0.181345v -5.55199h 0.181345v 2.52222h 0.181345v 6.82417h 0.181345v -8.13788h 0.36269v 20.9306h 0.181345v -10.4653h 0.181345v -11.6738h
 0.181345v 3.96123h 0.181345v -1.43901h 0.181345v 4.80808h 0.181345v 2.01608h 0.181345v 2.3274h 0.36269v -4.34348h 0.181345v 2.01608h 0.181345v -8.13788h 0.181345v 16.5871h 0.181345v -19.9561h 0.181345v 11.5069h 0.181345v 5.08013h 0.181345v -8.87453h
 0.181345v -3.02977h 0.181345v 3.02977h 0.36269v -6.67088h 0.181345v 8.4492h 0.181345v -7.3303h 0.181345v 3.96123h 0.725379v 3.36907h 0.181345v -10.4653h 0.181345v 12.4814h 0.36269v -3.7944h 0.181345v 1.77831h 0.36269v -7.3303h 0.181345v 11.6738h
 0.181345v -10.4653h 0.181345v 6.1218h 0.181345v -1.77831h 0.181345v -1.59076h 0.181345v -2.75273h 0.181345v 4.34348h 0.36269v 3.7944h 0.181345v -2.01608h 0.181345v -3.36907h 0.181345v 1.59076h 0.181345v -6.67088h 0.36269v 1.1189h 0.181345v 14.4265h
 0.181345v -17.5615h 0.181345v 8.68697h 0.181345v 1.77831h 0.181345v 2.01608h 0.181345v -10.4653h 0.36269v 18.9145h 0.181345v -16.5871h 0.181345v -2.3274h 0.181345v -2.01608h 0.181345v 3.13498h 0.181345v -8.61421h 0.181345v 2.11016h 0.181345v
 4.34348h 0.181345v -1.88974h 0.36269v -3.89276h 0.181345v 3.02977h 0.181345v 3.7944h 0.181345v -2.93141h 0.181345v -6.41498h 0.181345v 9.34638h 0.181345v -1.04167h 0.181345v -5.7825h 0.36269v 3.89276h 0.181345v -4.5639h 0.36269v -1.85108h 0.181345v
 3.96123h 0.181345v -0.736644h 0.181345v -1.37351h 0.181345v 11.1364h 0.181345v -2.52222h 0.181345v -2.16057h 0.181345v -0.974416h 0.181345v 3.13498h 0.181345v -4.9133h 0.544034v 1.77831h 0.181345v 2.01608h 0.181345v -7.49531h 0.181345v 3.70091h
 0.181345v -1.59076h 0.181345v 2.45374h 0.181345v -0.86299h 0.181345v -1.59076h 0.181345v -2.11016h 0.36269v 2.88459h 0.181345v 5.72961h 0.181345v -11.0351h 0.181345v 12.2436h 0.181345v -5.25881h 0.181345v 6.57252h 0.181345v -9.76291h 0.181345v
 7.24069h 0.181345v 1.2085h 0.181345v 4.34348h 0.181345v -8.68697h 0.181345v 4.34348h 0.181345v -1.2085h 0.181345v -1.1189h 0.181345v 1.1189h 0.181345v 1.2085h 0.181345v 10.4653h 0.181345v -7.71255h 0.181345v 7.71255h 0.181345v -14.8088h 0.181345v
 7.09621h 0.181345v 5.38515h 0.181345v -10.4653h 0.181345v 1.1189h 0.181345v 17.7956h 0.544034v 10.4653h 0.181345v -20.9306h 0.181345v 4.34348h 0.36269v 10.4653h 0.181345v -4.34348h 0.181345v -3.36907h 0.181345v -5.08013h 0.181345v 8.4492h 0.181345v
 -10.4653h 0.181345v 20.9306h 0.36269v -10.4653h 0.181345v 20.9306h 0.181345v 10.4653h 0.181345v -20.9306h 0.181345v -16.5871h 0.181345v 10.4653h 0.36269v 16.5871h 0.181345v -16.5871h 0.181345v 6.1218h 0.181345v -6.1218h 0.181345v 16.5871h 0.36269v
 -20.9306h 0.181345v 31.3958h 0.181345v -27.0524h 0.181345v 6.1218h 0.181345v -10.4653h 0.181345v 20.9306h 0.181345v -16.5871h 0.181345v 6.1218h 0.181345v -13.8343h 0.181345v 34.7649h 0.544034v -20.9306h 0.181345v 20.9306h 0.181345v -27.0524h
 0.544034v 6.1218h 0.181345v -10.4653h 0.36269v 31.3958h 0.181345v -27.0524h 0.181345v 6.1218h 0.181345v 20.9306h 0.181345v -10.4653h 0.36269v -24.2996h 0.181345v 24.2996h 0.36269v -10.4653h 0.181345v 20.9306h 0.181345v -20.9306h 0.181345v -10.4653h
 0.181345v 31.3958h 0.181345v -20.9306h 0.181345v -6.1218h 0.181345v 6.1218h 0.181345v -6.1218h 0.181345v 16.5871h 0.181345v 10.4653h 0.181345v -20.9306h 0.36269v -6.1218h 0.181345v 27.0524h 0.181345v -27.0524h 0.181345v 6.1218h 0.181345v -6.1218h
 0.181345v 27.0524h 0.181345v -10.4653h 1.08807v 10.4653h 0.181345v -10.4653h 0.181345v 10.4653h 0.36269v -10.4653h 0.36269v -10.4653h 0.36269v 20.9306h 0.36269v -27.0524h 0.181345v -4.34348h 0.181345v 31.3958h 0.181345v -34.7649h 0.181345v 13.8343h
 0.181345v 20.9306h 0.181345v -27.0524h 0.181345v 27.0524h 0.181345v -27.0524h 0.181345v 16.5871h 0.181345v 10.4653h 0.181345v -31.3958h 0.181345v 10.4653h 0.181345v 10.4653h 0.181345v -10.4653h 0.181345v 10.4653h 0.544034v 10.4653h 0.544034v
 -31.3958h 0.181345v 20.9306h 0.36269v -20.9306h 0.181345v 4.34348h 0.181345v 16.5871h 0.181345v -16.5871h 0.181345v -4.34348h 0.181345v -6.1218h 0.181345v 6.1218h 0.181345v 4.34348h 0.544034v 16.5871h 0.181345v 10.4653h 0.181345v -20.9306h 0.181345v
 20.9306h 0.181345v -10.4653h 0.181345v 10.4653h 0.181345v -10.4653h 0.725379v -16.5871h 0.181345v 16.5871h 0.181345v -10.4653h 0.181345v 10.4653h 0.36269v -16.5871h 0.181345v 16.5871h 0.181345v -10.4653h 0.181345v 20.9306h 0.181345v -10.4653h
 0.181345v 10.4653h 0.36269v -20.9306h 0.181345v 10.4653h 0.181345v -20.9306h 0.181345v 31.3958h 0.725379v -20.9306h 0.181345v -6.1218h 0.181345v -4.34348h 0.181345v 31.3958h 0.181345v -27.0524h 0.181345v 27.0524h 0.181345v -10.4653h 0.544034v
 10.4653h 0.725379v -10.4653h 0.181345v -16.5871h 0.181345v 27.0524h 0.36269v -20.9306h 0.181345v 10.4653h 0.181345v 10.4653h 0.181345v -10.4653h 0.36269v -10.4653h 0.181345v 10.4653h 0.181345v -16.5871h 0.181345v 16.5871h 0.181345v -16.5871h
 0.181345v 16.5871h 0.36269v -16.5871h 0.181345v 6.1218h 0.181345v 10.4653h 0.181345v 10.4653h 0.544034v -20.9306h 0.36269v -6.1218h 0.181345v 27.0524h 0.181345v -10.4653h 0.725379v 10.4653h 0.36269v -20.9306h 0.181345v 20.9306h 0.36269v -10.4653h
 0.36269v 10.4653h 0.36269v -10.4653h 0.181345v 10.4653h 0.181345v -10.4653h 0.36269v -16.5871h 0.181345v 6.1218h 0.36269v 10.4653h 0.181345v -16.5871h 0.181345v 27.0524h 0.906724v -10.4653h 0.36269v 10.4653h 0.725379v -10.4653h 0.544034v -10.4653h
 0.181345v 10.4653h 0.181345v 10.4653h 0.36269v -10.4653h 0.36269v -10.4653h 0.36269v 20.9306h 0.181345v -27.0524h 0.181345v 6.1218h 0.181345v 10.4653h 0.181345v -16.5871h 0.181345v 16.5871h 0.181345v 10.4653h 0.181345v -10.4653h 0.181345v 10.4653h
 0.181345v -20.9306h 0.181345v 20.9306h 0.544034v -10.4653h 0.725379v 10.4653h 0.544034v -20.9306h 0.181345v -10.4653h 0.181345v 10.4653h 0.36269v 20.9306h 0.544034v -27.0524h 0.181345v 27.0524h 0.181345v -10.4653h 0.181345v 10.4653h 0.181345v
 -10.4653h 0.181345v 10.4653h 0.36269v -10.4653h 0.181345v 10.4653h 0.36269v -20.9306h 0.36269v 20.9306h 0.36269v -10.4653h 0.181345v -16.5871h 0.181345v 27.0524h 0.36269v -10.4653h 0.544034v -10.4653h 0.181345v -6.1218h 0.181345v 27.0524h 0.906724v
 -20.9306h 0.181345v 10.4653h 0.181345v 10.4653h 0.181345v -10.4653h 0.181345v -10.4653h 0.181345v 20.9306h 0.181345v -20.9306h 0.181345v 10.4653h 0.181345v -10.4653h 0.181345v -6.1218h 0.36269v 16.5871h 0.181345v 10.4653h 0.181345v -10.4653h
 0.181345v 10.4653h 0.181345v -20.9306h 0.181345v 10.4653h 0.181345v 10.4653h 0.181345v -10.4653h 0.544034" fill="none" stroke="black"/>
<path d="M57.1929,280.151h 453.543" fill="none" stroke="black"/>
<path d="M57.1929,272.68v 7.47068" fill="none" stroke="black"/>
<path d="M75.3318,276.415v 3.73534" fill="none" stroke="black"/>
<path d="M93.4707,276.415v 3.73534" fill="none" stroke="black"/>
<path d="M111.61,276.415v 3.73534" fill="none" stroke="black"/>
<path d="M129.749,276.415v 3.73534" fill="none" stroke="black"/>
<path d="M147.887,272.68v 7.47068" fill="none" stroke="black"/>
<path d="M166.026,276.415v 3.73534" fill="none" stroke="black"/>
<path d="M184.165,276.415v 3.73534" fill="none" stroke="black"/>
<path d="M202.304,276.415v 3.73534" fill="none" stroke="black"/>
<path d="M220.443,276.415v 3.73534" fill="none" stroke="black"/>
<path d="M238.582,272.68v 7.47068" fill="none" stroke="black"/>
<path d="M256.721,276.415v 3.73534" fill="none" stroke="black"/>
<path d="M274.86,276.415v 3.73534" fill="none" stroke="black"/>
<path d="M292.999,276.415v 3.73534" fill="none" stroke="black"/>
<path d="M311.138,276.415v 3.73534" fill="none" stroke="black"/>
<path d="M329.277,272.68v 7.47068" fill="none" stroke="black"/>
<path d="M347.415,276.415v 3.73534" fill="none" stroke="black"/>
<path d="M365.554,276.415v 3.73534" fill="none" stroke="black"/>
<path d="M383.693,276.415v 3.73534" fill="none" stroke="black"/>
<path d="M401.832,276.415v 3.73534" fill="none" stroke="black"/>
<path d="M419.971,272.68v 7.47068" fill="none" stroke="black"/>
<path d="M438.11,276.415v 3.73534" fill="none" stroke="black"/>
<path d="M456.249,276.415v 3.73534" fill="none" stroke="black"/>
<path d="M474.388,276.415v 3.73534" fill="none" stroke="black"/>
<path d="M492.527,276.415v 3.73534" fill="none" stroke="black"/>
<path d="M510.666,272.68v 7.47068" fill="none" stroke="black"/>
<path d="M510.666,272.68v 7.47068" fill="none" stroke="black"/>
<text xml:space="preserve" x="54.3523" y="290.27" fill="black" font-size="10.4952" font-family="Helvetica">0</text>
<text xml:space="preserve" x="139.569" y="290.27" fill="black" font-size="10.4952" font-family="Helvetica">500</text>
<text xml:space="preserve" x="227.449" y="290.27" fill="black" font-size="10.4952" font-family="Helvetica">1000</text>
<text xml:space="preserve" x="318.288" y="290.27" fill="black" font-size="10.4952" font-family="Helvetica">1500</text>
<text xml:space="preserve" x="408.831" y="290.27" fill="black" font-size="10.4952" font-family="Helvetica">2000</text>
<text xml:space="preserve" x="499.67" y="290.27" fill="black" font-size="10.4952" font-family="Helvetica">2500</text>
<text xml:space="preserve" x="265.323" y="301.218" fill="black" font-size="10.4952" font-family="Helvetica">Channel</text>
<path d="M57.1929,280.151v -249.023" fill="none" stroke="black"/>
<path d="M63.9961,280.151h -6.80315" fill="none" stroke="black"/>
<path d="M63.9961,277.398h -6.80315" fill="none" stroke="black"/>
<path d="M63.9961,275.07h -6.80315" fill="none" stroke="black"/>
<path d="M63.9961,273.054h -6.80315" fill="none" stroke="black"/>
<path d="M63.9961,271.276h -6.80315" fill="none" stroke="black"/>
<path d="M70.7992,269.685h -13.6063" fill="none" stroke="black"/>
<text xml:space="preserve" x="49.0263" y="273.404" fill="black" font-size="10.4952" font-family="Helvetica">1</text>
<path d="M63.9961,259.22h -6.80315" fill="none" stroke="black"/>
<path d="M63.9961,253.098h -6.80315" fill="none" stroke="black"/>
<path d="M63.9961,248.755h -6.80315" fill="none" stroke="black"/>
<path d="M63.9961,245.386h -6.80315" fill="none" stroke="black"/>
<path d="M63.9961,242.633h -6.80315" fill="none" stroke="black"/>
<path d="M63.9961,240.305h -6.80315" fill="none" stroke="black"/>
<path d="M63.9961,238.289h -6.80315" fill="none" stroke="black"/>
<path d="M63.9961,236.511h -6.80315" fill="none" stroke="black"/>
<path d="M70.7992,234.92h -13.6063" fill="none" stroke="black"/>
<text xml:space="preserve" x="41.629" y="238.489" fill="black" font-size="10.4952" font-family="Helvetica">10</text>
<path d="M63.9961,224.455h -6.80315" fill="none" stroke="black"/>
<path d="M63.9961,218.333h -6.80315" fill="none" stroke="black"/>
<path d="M63.9961,213.99h -6.80315" fill="none" stroke="black"/>
<path d="M63.9961,210.621h -6.80315" fill="none" stroke="black"/>
<path d="M63.9961,207.868h -6.80315" fill="none" stroke="black"/>
<path d="M63.9961,205.541h -6.80315" fill="none" stroke="black"/>
<path d="M63.9961,203.525h -6.80315" fill="none" stroke="black"/>
<path d="M63.9961,201.746h -6.80315" fill="none" stroke="black"/>
<path d="M70.7992,200.155h -13.6063" fill="none" stroke="black"/>
<text xml:space="preserve" x="49.0263" y="200.319" fill="black" font-size="7.16345" font-family="Helvetica">2</text>
<text xml:space="preserve" x="38.0783" y="204.757" fill="black" font-size="10.4952" font-family="Helvetica">10</text>
<path d="M63.9961,189.69h -6.80315" fill="none" stroke="black"/>
<path d="M63.9961,183.568h -6.80315" fill="none" stroke="black"/>
<path d="M63.9961,179.225h -6.80315" fill="none" stroke="black"/>
<path d="M63.9961,175.856h -6.80315" fill="none" stroke="black"/>
<path d="M63.9961,173.103h -6.80315" fill="none" stroke="black"/>
<path d="M63.9961,170.776h -6.80315" fill="none" stroke="black"/>
<path d="M63.9961,168.76h -6.80315" fill="none" stroke="black"/>
<path d="M63.9961,166.981h -6.80315" fill="none" stroke="black"/>
<path d="M70.7992,165.391h -13.6063" fill="none" stroke="black"/>
<text xml:space="preserve" x="49.0263" y="165.108" fill="black" font-size="7.16345" font-family="Helvetica">3</text>
<text xml:space="preserve" x="38.0783" y="169.842" fill="black" font-size="10.4952" font-family="Helvetica">10</text>
<path d="M63.9961,154.925h -6.80315" fill="none" stroke="black"/>
<path d="M63.9961,148.803h -6.80315" fill="none" stroke="black"/>
<path d="M63.9961,144.46h -6.80315" fill="none" stroke="black"/>
<path d="M63.9961,141.091h -6.80315" fill="none" stroke="black"/>
<path d="M63.9961,138.338h -6.80315" fill="none" stroke="black"/>
<path d="M63.9961,136.011h -6.80315" fill="none" stroke="black"/>
<path d="M63.9961,133.995h -6.80315" fill="none" stroke="black"/>
<path d="M63.9961,132.216h -6.80315" fill="none" stroke="black"/>
<path d="M70.7992,130.626h -13.6063" fill="none" stroke="black"/>
<text xml:space="preserve" x="49.0263" y="130.784" fill="black" font-size="7.16345" font-family="Helvetica">4</text>
<text xml:space="preserve" x="38.0783" y="135.223" fill="black" font-size="10.4952" font-family="Helvetica">10</text>
<path d="M63.9961,120.16h -6.80315" fill="none" stroke="black"/>
<path d="M63.9961,114.039h -6.80315" fill="none" stroke="black"/>
<path d="M63.9961,109.695h -6.80315" fill="none" stroke="black"/>
<path d="M63.9961,106.326h -6.80315" fill="none" stroke="black"/>
<path d="M63.9961,103.573h -6.80315" fill="none" stroke="black"/>
<path d="M63.9961,101.246h -6.80315" fill="none" stroke="black"/>
<path d="M63.9961,99.2298h -6.80315" fill="none" stroke="black"/>
<path d="M63.9961,97.4515h -6.80315" fill="none" stroke="black"/>
<path d="M70.7992,95.8607h -13.6063" fill="none" stroke="black"/>
<text xml:space="preserve" x="49.0263" y="95.5731" fill="black" font-size="7.16345" font-family="Helvetica">5</text>
<text xml:space="preserve" x="38.0783" y="100.307" fill="black" font-size="10.4952" font-family="Helvetica">10</text>
<path d="M63.9961,85.3954h -6.80315" fill="none" stroke="black"/>
<path d="M63.9961,79.2737h -6.80315" fill="none" stroke="black"/>
<path d="M63.9961,74.9302h -6.80315" fill="none" stroke="black"/>
<path d="M63.9961,71.5611h -6.80315" fill="none" stroke="black"/>
<path d="M63.9961,68.8084h -6.80315" fill="none" stroke="black"/>
<path d="M63.9961,66.481h -6.80315" fill="none" stroke="black"/>
<path d="M63.9961,64.4649h -6.80315" fill="none" stroke="black"/>
<path d="M63.9961,62.6866h -6.80315" fill="none" stroke="black"/>
<path d="M70.7992,61.0958h -13.6063" fill="none" stroke="black"/>
<text xml:space="preserve" x="49.0263" y="60.9538" fill="black" font-size="7.16345" font-family="Helvetica">6</text>
<text xml:space="preserve" x="38.0783" y="65.688" fill="black" font-size="10.4952" font-family="Helvetica">10</text>
<path d="M63.9961,50.6305h -6.80315" fill="none" stroke="black"/>
<path d="M63.9961,44.5087h -6.80315" fill="none" stroke="black"/>
<path d="M63.9961,40.1653h -6.80315" fill="none" stroke="black"/>
<path d="M63.9961,36.7962h -6.80315" fill="none" stroke="black"/>
<path d="M63.9961,34.0435h -6.80315" fill="none" stroke="black"/>
<path d="M63.9961,31.7161h -6.80315" fill="none" stroke="black"/>
<g transform="rotate(-90,26.5385,191.442)">
<text xml:space="preserve" x="26.5385" y="191.442" fill="black" font-size="10.4952" font-family="Helvetica">Counts/Channel</text>
</g>
<text xml:space="preserve" x="404.097" y="60.9538" fill="black" font-size="14.7788" font-family="Helvetica" font-weight="bold"> = 2.4879 MeV</text>
<text xml:space="preserve" x="398.179" y="64.2086" fill="black" font-size="10.0192" font-family="Helvetica" font-weight="bold">p</text>
<text xml:space="preserve" x="389.006" y="60.9538" fill="black" font-size="14.7788" font-family="Helvetica" font-weight="bold">E</text>
<path d="M262.163,163.952v 26.1136" fill="none" stroke="black"/>
<path d="M264.454,190.065l -2.29122, 3.9685l -2.29122, -3.9685z" fill="black"/>
<path d="M264.454,190.065l -2.29122, 3.9685l -2.29122, -3.9685h 4.58243z" fill="none" stroke="black"/>
<text xml:space="preserve" x="266.803" y="161.853" fill="black" font-size="10.4952" font-family="Helvetica" font-weight="bold">_1 	1.369 MeV</text>
<text xml:space="preserve" x="260.293" y="161.853" fill="black" font-size="10.4952" font-family="Times">&#0945;</text>
<path d="M184.528,130.626v 30.7964" fill="none" stroke="black"/>
<path d="M186.819,161.422l -2.29122, 3.9685l -2.29122, -3.9685z" fill="black"/>
<path d="M186.819,161.422l -2.29122, 3.9685l -2.29122, -3.9685h 4.58243z" fill="none" stroke="black"/>
<text xml:space="preserve" x="172.117" y="127.825" fill="black" font-size="10.4952" font-family="Helvetica" font-weight="bold"># p_1 	0.844 MeV</text>
<path d="M210.104,148.803v 12.6186" fill="none" stroke="black"/>
<path d="M212.395,161.422l -2.29122, 3.9685l -2.29122, -3.9685z" fill="black"/>
<path d="M212.395,161.422l -2.29122, 3.9685l -2.29122, -3.9685h 4.58243z" fill="none" stroke="black"/>
<text xml:space="preserve" x="197.564" y="144.395" fill="black" font-size="10.4952" font-family="Helvetica" font-weight="bold"># p_2 	1.015 MeV</text>
<path d="M497.629,269.685h 13.037" fill="none" stroke="black"/>
<path d="M504.147,259.22h 6.51848" fill="none" stroke="black"/>
<path d="M504.147,253.098h 6.51848" fill="none" stroke="black"/>
<path d="M504.147,248.755h 6.51848" fill="none" stroke="black"/>
<path d="M504.147,245.386h 6.51848" fill="none" stroke="black"/>
<path d="M504.147,242.633h 6.51848" fill="none" stroke="black"/>
<path d="M504.147,240.305h 6.51848" fill="none" stroke="black"/>
<path d="M504.147,238.289h 6.51848" fill="none" stroke="black"/>
<path d="M504.147,236.511h 6.51848" fill="none" stroke="black"/>
<path d="M497.629,234.92h 13.037" fill="none" stroke="black"/>
<path d="M504.147,224.455h 6.51848" fill="none" stroke="black"/>
<path d="M504.147,218.333h 6.51848" fill="none" stroke="black"/>
<path d="M504.147,213.99h 6.51848" fill="none" stroke="black"/>
<path d="M504.147,210.621h 6.51848" fill="none" stroke="black"/>
<path d="M504.147,207.868h 6.51848" fill="none" stroke="black"/>
<path d="M504.147,205.541h 6.51848" fill="none" stroke="black"/>
<path d="M504.147,203.525h 6.51848" fill="none" stroke="black"/>
<path d="M504.147,201.746h 6.51848" fill="none" stroke="black"/>
<path d="M497.629,200.155h 13.037" fill="none" stroke="black"/>
<path d="M504.147,189.69h 6.51848" fill="none" stroke="black"/>
<path d="M504.147,183.568h 6.51848" fill="none" stroke="black"/>
<path d="M504.147,179.225h 6.51848" fill="none" stroke="black"/>
<path d="M504.147,175.856h 6.51848" fill="none" stroke="black"/>
<path d="M504.147,173.103h 6.51848" fill="none" stroke="black"/>
<path d="M504.147,170.776h 6.51848" fill="none" stroke="black"/>
<path d="M504.147,168.76h 6.51848" fill="none" stroke="black"/>
<path d="M504.147,166.981h 6.51848" fill="none" stroke="black"/>
<path d="M497.629,165.391h 13.037" fill="none" stroke="black"/>
<path d="M504.147,154.925h 6.51848" fill="none" stroke="black"/>
<path d="M504.147,148.803h 6.51848" fill="none" stroke="black"/>
<path d="M504.147,144.46h 6.51848" fill="none" stroke="black"/>
<path d="M504.147,141.091h 6.51848" fill="none" stroke="black"/>
<path d="M504.147,138.338h 6.51848" fill="none" stroke="black"/>
<path d="M504.147,136.011h 6.51848" fill="none" stroke="black"/>
<path d="M504.147,133.995h 6.51848" fill="none" stroke="black"/>
<path d="M504.147,132.216h 6.51848" fill="none" stroke="black"/>
<path d="M497.629,130.626h 13.037" fill="none" stroke="black"/>
<path d="M504.147,120.16h 6.51848" fill="none" stroke="black"/>
<path d="M504.147,114.039h 6.51848" fill="none" stroke="black"/>
<path d="M504.147,109.695h 6.51848" fill="none" stroke="black"/>
<path d="M504.147,106.326h 6.51848" fill="none" stroke="black"/>
<path d="M504.147,103.573h 6.51848" fill="none" stroke="black"/>
<path d="M504.147,101.246h 6.51848" fill="none" stroke="black"/>
<path d="M504.147,99.2298h 6.51848" fill="none" stroke="black"/>
<path d="M504.147,97.4515h 6.51848" fill="none" stroke="black"/>
<path d="M497.629,95.8607h 13.037" fill="none" stroke="black"/>
<path d="M504.147,85.3954h 6.51848" fill="none" stroke="black"/>
<path d="M504.147,79.2737h 6.51848" fill="none" stroke="black"/>
<path d="M504.147,74.9302h 6.51848" fill="none" stroke="black"/>
<path d="M504.147,71.5611h 6.51848" fill="none" stroke="black"/>
<path d="M504.147,68.8084h 6.51848" fill="none" stroke="black"/>
<path d="M504.147,66.481h 6.51848" fill="none" stroke="black"/>
<path d="M504.147,64.4649h 6.51848" fill="none" stroke="black"/>
<path d="M504.147,62.6866h 6.51848" fill="none" stroke="black"/>
<path d="M497.629,61.0958h 13.037" fill="none" stroke="black"/>
<path d="M504.147,50.6305h 6.51848" fill="none" stroke="black"/>
<path d="M504.147,44.5087h 6.51848" fill="none" stroke="black"/>
<path d="M504.147,40.1653h 6.51848" fill="none" stroke="black"/>
<path d="M504.147,36.7962h 6.51848" fill="none" stroke="black"/>
<path d="M504.147,34.0435h 6.51848" fill="none" stroke="black"/>
<path d="M504.147,31.7161h 6.51848" fill="none" stroke="black"/>
<path d="M57.1929,38.552v -7.46952" fill="none" stroke="black"/>
<path d="M75.3318,38.552v -7.46952" fill="none" stroke="black"/>
<path d="M93.4707,38.552v -7.46952" fill="none" stroke="black"/>
<path d="M111.61,38.552v -7.46952" fill="none" stroke="black"/>
<path d="M129.749,38.552v -7.46952" fill="none" stroke="black"/>
<path d="M147.887,38.552v -7.46952" fill="none" stroke="black"/>
<path d="M166.026,38.552v -7.46952" fill="none" stroke="black"/>
<path d="M184.165,38.552v -7.46952" fill="none" stroke="black"/>
<path d="M202.304,38.552v -7.46952" fill="none" stroke="black"/>
<path d="M220.443,38.552v -7.46952" fill="none" stroke="black"/>
<path d="M238.582,38.552v -7.46952" fill="none" stroke="black"/>
<path d="M256.721,38.552v -7.46952" fill="none" stroke="black"/>
<path d="M274.86,38.552v -7.46952" fill="none" stroke="black"/>
<path d="M292.999,38.552v -7.46952" fill="none" stroke="black"/>
<path d="M311.138,38.552v -7.46952" fill="none" stroke="black"/>
<path d="M329.277,38.552v -7.46952" fill="none" stroke="black"/>
<path d="M347.415,38.552v -7.46952" fill="none" stroke="black"/>
<path d="M365.554,38.552v -7.46952" fill="none" stroke="black"/>
<path d="M383.693,38.552v -7.46952" fill="none" stroke="black"/>
<path d="M401.832,38.552v -7.46952" fill="none" stroke="black"/>
<path d="M419.971,38.552v -7.46952" fill="none" stroke="black"/>
<path d="M438.11,38.552v -7.46952" fill="none" stroke="black"/>
<path d="M456.249,38.552v -7.46952" fill="none" stroke="black"/>
<path d="M474.388,38.552v -7.46952" fill="none" stroke="black"/>
<path d="M492.527,38.552v -7.46952" fill="none" stroke="black"/>
<path d="M510.666,38.552v -7.46952" fill="none" stroke="black"/></svg>
