<?xml version="1.0" standalone="no"?>
<svg width="567.429" height="311.778" viewBox="0 0 567.429 311.778" xmlns="http://www.w3.org/2000/svg" shape-rendering="crispEdges">
<title>
Yields/P1/run_0107/det7_Fit.svg
</title>
<desc>
Creator: ROOT Version 6.12/06
CreationDate: Mon Apr 15 10:29:03 2019</desc>
<defs>
</defs>
<rect x="0.5" y="0" width="566.929" height="311.278" fill="white"/>
<rect x="57.1929" y="31.1278" width="453.543" height="249.023" fill="white"/>
<rect x="57.1929" y="31.1278" width="453.543" height="249.023" fill="none" stroke="black"/>
<path d="M57.1929,40.7731h 0.181345v 239.378h 13.2382v -10.4612h 0.181345v 10.4612h 11.062v -10.4612h 0.181345v 10.4612h 0.725379v -10.4612h 0.181345v 10.4612h 0.181345v -10.4612h 0.181345v 10.4612h 1.08807v -10.4612h 0.36269v 10.4612h 0.906724v
 -10.4612h 0.181345v 10.4612h 0.36269v -20.9224h 0.181345v 20.9224h 1.08807v -10.4612h 0.36269v -10.4612h 0.544034v 10.4612h 0.181345v 10.4612h 0.181345v -27.0419h 0.181345v -14.803h 0.181345v -17.1967h 0.181345v -15.5394h 0.181345v -11.0946h
 0.181345v -6.92454h 0.181345v -7.23166h 0.181345v -2.56165h 0.181345v -2.30697h 0.181345v -1.61064h 0.181345v -0.669736h 0.181345v -1.64547h 0.181345v -1.29814h 0.181345v -1.23353h 0.181345v -0.377328h 0.181345v -1.19943h 0.181345v 0.489713h
 0.181345v -0.66083h 0.181345v -0.152364h 0.181345v -1.04126h 0.181345v 1.41646h 0.181345v -1.35344h 0.181345v -0.031541h 0.181345v -0.480639h 0.181345v 0.815153h 0.181345v -1.01224h 0.181345v 0.350469h 0.181345v 0.217383h 0.181345v -1.10058h
 0.181345v -0.48643h 0.181345v 0.573923h 0.181345v 0.117451h 0.181345v 0.163002h 0.181345v -0.555789h 0.181345v 0.585615h 0.181345v -1.36908h 0.181345v -0.0951344h 0.181345v 0.921743h 0.181345v -0.620707h 0.181345v -0.110164h 0.181345v -0.177318h
 0.181345v 0.937019h 0.181345v -1.12568h 0.181345v -0.808246h 0.181345v 1.01047h 0.181345v -0.0677092h 0.181345v -0.699639h 0.181345v 1.26403h 0.181345v -0.415031h 0.181345v 0.289319h 0.181345v 0.380322h 0.181345v 0.128934h 0.181345v 0.706893h
 0.181345v -0.135089h 0.181345v -0.325215h 0.181345v 0.043937h 0.181345v -0.362292h 0.181345v -0.754076h 0.181345v -1.03945h 0.181345v -0.972448h 0.181345v -1.64725h 0.181345v -2.7748h 0.181345v -2.85212h 0.181345v -3.04331h 0.181345v -3.16908h
 0.181345v -3.20888h 0.181345v -2.98191h 0.181345v -2.54636h 0.181345v -2.25603h 0.181345v -1.5939h 0.181345v -1.00591h 0.181345v -0.525851h 0.181345v 0.442839h 0.181345v 0.52954h 0.181345v 1.33977h 0.181345v 1.87414h 0.181345v 2.48775h 0.181345v
 3.33652h 0.181345v 3.64713h 0.181345v 4.30085h 0.181345v 3.13522h 0.181345v 5.22131h 0.181345v 3.54943h 0.181345v 3.29869h 0.181345v 3.02285h 0.181345v 1.57377h 0.181345v 1.39413h 0.181345v 1.56454h 0.181345v 0.286935h 0.181345v -0.286935h 0.181345v
 2.66663h 0.181345v -2.40864h 0.181345v 0.985607h 0.181345v 0.248952h 0.181345v -0.794517h 0.181345v -0.612527h 0.181345v 1.72412h 0.181345v 0.323882h 0.181345v -0.514927h 0.181345v 0.223122h 0.181345v 0.589364h 0.181345v -0.875634h 0.181345v
 2.20099h 0.181345v -1.72081h 0.181345v 0.462384h 0.181345v -0.265951h 0.181345v -0.163871h 0.181345v 1.57928h 0.181345v -1.4154h 0.181345v 0.502566h 0.181345v -0.0340301h 0.181345v 0.205341h 0.181345v 0.348568h 0.181345v -0.105418h 0.181345v
 0.717111h 0.36269v -0.073264h 0.181345v 1.25684h 0.181345v -1.72457h 0.181345v 0.0710229h 0.181345v 1.81326h 0.181345v -1.48945h 0.181345v 2.48491h 0.181345v 1.48569h 0.181345v -2.75954h 0.181345v 0.480434h 0.181345v 1.09657h 0.181345v -0.558244h
 0.181345v 0.298025h 0.181345v -1.7824h 0.181345v 1.23353h 0.181345v 1.8973h 0.181345v -1.81415h 0.181345v 1.58088h 0.181345v -1.2436h 0.181345v 0.432475h 0.181345v 0.718819h 0.181345v -1.8592h 0.181345v 0.45425h 0.181345v 1.49726h 0.181345v
 -0.0462247h 0.181345v 1.65695h 0.181345v -1.97662h 0.181345v 0.646254h 0.181345v 0.974038h 0.181345v 0.0503918h 0.181345v -1.44304h 0.181345v 1.24248h 0.181345v -1.33395h 0.181345v 1.03801h 0.181345v -0.900595h 0.181345v -0.0459432h 0.181345v
 1.9043h 0.181345v -0.051953h 0.181345v -2.9577h 0.181345v 3.32519h 0.181345v 0.160274h 0.181345v -1.67583h 0.181345v 0.588088h 0.181345v 0.0500576h 0.181345v 0.614011h 0.181345v -0.207458h 0.181345v -0.153743h 0.181345v 0.153743h 0.181345v 0.155326h
 0.181345v 0.475805h 0.181345v 0.77131h 0.181345v -0.878348h 0.181345v -0.42072h 0.181345v 0.156399h 0.181345v -0.816001h 0.181345v -0.440327h 0.181345v 2.17457h 0.181345v -0.493079h 0.181345v 0.21716h 0.181345v -2.41995h 0.181345v 1.41518h 0.181345v
 0.257995h 0.181345v -1.34353h 0.181345v -1.32114h 0.181345v 0.131429h 0.181345v -0.813685h 0.181345v -1.3929h 0.181345v 0.424078h 0.181345v -0.0779968h 0.181345v -1.65612h 0.181345v -0.44645h 0.181345v -1.23404h 0.181345v 2.54109h 0.181345v
 -1.87163h 0.181345v 1.04592h 0.181345v -0.582524h 0.181345v -0.528451h 0.181345v 4.54877h 0.181345v -0.17448h 0.181345v 1.40813h 0.181345v 0.385768h 0.181345v -1.88038h 0.181345v 3.20692h 0.181345v -0.524092h 0.181345v 1.01186h 0.181345v 0.277952h
 0.181345v 1.10552h 0.181345v 0.366634h 0.181345v -0.245409h 0.181345v -0.596613h 0.181345v 0.535879h 0.181345v 1.52965h 0.181345v -2.29772h 0.181345v -0.285308h 0.181345v 2.12064h 0.181345v -1.77762h 0.181345v 0.351001h 0.36269v 0.118838h 0.181345v
 -0.411902h 0.181345v 0.958566h 0.181345v 0.124218h 0.181345v -0.907629h 0.181345v -0.405577h 0.181345v 2.27893h 0.181345v -0.71418h 0.181345v -0.126297h 0.181345v 0.317745h 0.181345v 0.456391h 0.181345v -0.392031h 0.181345v -1.59014h 0.181345v
 1.14528h 0.181345v 1.44472h 0.181345v -2.59h 0.181345v -0.173145h 0.181345v 0.46621h 0.181345v 3.51645h 0.181345v -1.15045h 0.181345v -1.57628h 0.181345v -1.08278h 0.181345v 1.46169h 0.181345v -0.809268h 0.181345v 0.681906h 0.181345v -0.862655h
 0.181345v -0.759156h 0.181345v -0.504058h 0.181345v -0.594051h 0.181345v 0.429704h 0.181345v -1.40374h 0.181345v 0.45356h 0.181345v 0.414936h 0.181345v 0.535246h 0.181345v -1.05216h 0.181345v -0.301857h 0.181345v 2.19425h 0.181345v -0.730871h
 0.181345v 0.904681h 0.181345v -0.402486h 0.181345v -0.720138h 0.181345v 0.607087h 0.181345v 1.79171h 0.181345v -0.802645h 0.181345v 1.65039h 0.181345v 0.407926h 0.181345v 1.21952h 0.181345v -1.35673h 0.181345v 1.13423h 0.181345v -1.40495h 0.181345v
 0.898208h 0.181345v -0.282108h 0.181345v -0.6161h 0.181345v 0.270722h 0.181345v -0.135968h 0.181345v 1.05094h 0.181345v -0.777764h 0.181345v -0.474855h 0.181345v 2.30425h 0.181345v -2.56904h 0.181345v 0.670881h 0.181345v 1.74336h 0.181345v -1.32603h
 0.181345v -0.210106h 0.181345v 2.00537h 0.181345v -3.07906h 0.181345v 0.0649134h 0.181345v 1.86734h 0.181345v -1.2702h 0.181345v -0.982495h 0.181345v -0.251545h 0.181345v 2.57804h 0.181345v 1.15265h 0.181345v -2.08501h 0.181345v -1.33058h 0.181345v
 1.47033h 0.181345v -1.08332h 0.181345v 0.330261h 0.181345v 0.753062h 0.181345v 1.01621h 0.181345v -1.70235h 0.181345v -0.331713h 0.181345v 0.808712h 0.181345v -0.874189h 0.181345v 2.02464h 0.181345v -0.0745303h 0.36269v -0.367228h 0.181345v
 0.667584h 0.181345v -2.76429h 0.181345v 0.71112h 0.181345v -0.584293h 0.181345v 0.986779h 0.181345v 1.65069h 0.181345v -1.78605h 0.36269v 1.41153h 0.181345v -1.67866h 0.181345v -0.262482h 0.181345v 1.36059h 0.181345v 2.22009h 0.181345v -3.11829h
 0.181345v -0.265951h 0.181345v 0.605119h 0.181345v 0.55904h 0.181345v -1.4255h 0.181345v 1.49686h 0.181345v -2.00636h 0.181345v 1.86398h 0.181345v -1.48348h 0.181345v 1.62586h 0.181345v -3.66523h 0.181345v 2.42971h 0.181345v -0.895571h 0.181345v
 -0.488864h 0.181345v 1.58346h 0.181345v 0.0669285h 0.181345v -1.46891h 0.181345v 2.08501h 0.181345v -0.208174h 0.181345v 0.633338h 0.181345v -1.04126h 0.181345v -0.974038h 0.181345v 0.253659h 0.181345v 2.2733h 0.181345v -1.48569h 0.181345v 1.86208h
 0.181345v -1.17281h 0.181345v -0.485773h 0.181345v 0.556463h 0.181345v -0.280796h 0.181345v 0.423178h 0.181345v 1.82239h 0.181345v -2.38403h 0.181345v 0.56164h 0.181345v 0.435386h 0.181345v 1.38701h 0.181345v 1.52749h 0.181345v -4.45302h 0.181345v
 3.41771h 0.181345v -0.165852h 0.181345v -2.07703h 0.181345v 2.58015h 0.181345v -0.253659h 0.181345v -1.13044h 0.181345v 0.394078h 0.181345v 0.652744h 0.181345v -0.411261h 0.181345v 1.09352h 0.181345v -2.26405h 0.181345v 1.83404h 0.181345v 0.343023h
 0.181345v 1.84282h 0.181345v -0.29118h 0.181345v -1.63813h 0.181345v -1.00096h 0.181345v 2.16594h 0.181345v -0.458769h 0.181345v -0.445234h 0.181345v 0.627072h 0.181345v 1.74336h 0.181345v -2.7174h 0.181345v 0.523486h 0.181345v 0.0890406h 0.181345v
 -0.526531h 0.181345v 0.43749h 0.36269v 1.00959h 0.181345v 0.384539h 0.181345v -1.57065h 0.181345v 2.37043h 0.181345v -2.10487h 0.181345v -0.0890406h 0.181345v 0.542298h 0.181345v -0.0917471h 0.181345v 1.64104h 0.181345v -0.402486h 0.181345v 2.35963h
 0.181345v -1.11846h 0.36269v -1.6332h 0.181345v 2.63601h 0.181345v -3.84404h 0.181345v 1.60006h 0.181345v -0.488468h 0.181345v 1.20002h 0.181345v 1.30375h 0.181345v -0.336646h 0.181345v -1.27617h 0.181345v 1.72672h 0.181345v -0.99546h 0.181345v
 -1.23271h 0.181345v 0.0989666h 0.181345v 0.0996198h 0.181345v 1.35871h 0.181345v 3.1506h 0.181345v -3.79292h 0.181345v 2.75166h 0.181345v -2.95983h 0.181345v 1.07083h 0.181345v -1.87594h 0.181345v 1.11846h 0.181345v -2.43167h 0.181345v 4.3418h
 0.181345v -1.69756h 0.181345v 2.18445h 0.181345v -2.18445h 0.36269v -1.33103h 0.181345v 1.43845h 0.181345v -0.838679h 0.181345v 0.518688h 0.181345v 0.757481h 0.181345v -1.67866h 0.181345v -0.294974h 0.181345v 2.19722h 0.181345v -1.19069h 0.181345v
 -0.810522h 0.181345v 1.12605h 0.36269v -1.51555h 0.181345v 1.51555h 0.181345v 0.10666h 0.181345v 0.99546h 0.181345v 0.943579h 0.181345v -1.39413h 0.181345v -1.77762h 0.181345v 1.34013h 0.181345v -0.633338h 0.181345v 0.525919h 0.36269v 0.881555h
 0.181345v -0.556976h 0.181345v -0.850498h 0.181345v 1.07083h 0.181345v 0.914968h 0.181345v -3.27314h 0.181345v 1.49551h 0.181345v 1.89599h 0.181345v -1.25367h 0.181345v -0.537151h 0.181345v -1.21615h 0.181345v 1.86306h 0.181345v 0.110567h 0.181345v
 -0.110567h 0.181345v -1.1656h 0.181345v -0.402486h 0.181345v -1.51049h 0.181345v 1.81135h 0.181345v 0.203954h 0.181345v 1.17385h 0.181345v -3.63177h 0.181345v 2.05274h 0.181345v -1.69968h 0.181345v -1.36521h 0.181345v 2.76798h 0.181345v -1.04126h
 0.181345v -1.56267h 0.181345v 2.70226h 0.181345v -0.862655h 0.181345v -1.67375h 0.181345v -0.890423h 0.181345v -0.311193h 0.181345v -0.45508h 0.181345v 0.609875h 0.181345v -1.9666h 0.181345v 0.485773h 0.181345v 0.501929h 0.181345v -1.25842h
 0.181345v -0.911021h 0.181345v 1.25019h 0.181345v -0.406097h 0.181345v 1.10819h 0.181345v -0.633338h 0.181345v -0.137204h 0.181345v 0.698845h 0.181345v -1.16947h 0.181345v 2.35963h 0.181345v -1.7518h 0.181345v 0.419259h 0.181345v 2.20886h 0.181345v
 0.670881h 0.181345v -3.09083h 0.181345v -0.276932h 0.181345v 0.207221h 0.181345v 1.00653h 0.181345v -0.796424h 0.181345v 0.28477h 0.181345v 0.586184h 0.181345v -0.148694h 0.181345v -0.293064h 0.181345v -0.358505h 0.181345v -1.67493h 0.181345v
 -1.73529h 0.181345v 0.113477h 0.181345v -1.41254h 0.181345v 0.42072h 0.181345v -1.61678h 0.181345v -0.331713h 0.181345v -2.57881h 0.181345v -1.32308h 0.181345v -0.707031h 0.181345v -2.47867h 0.181345v -1.12893h 0.181345v 0.525726h 0.181345v
 -3.07204h 0.181345v -0.87031h 0.181345v -0.279297h 0.181345v -1.10782h 0.181345v -0.118217h 0.181345v -0.913813h 0.181345v -0.84417h 0.181345v -0.242592h 0.181345v 0.613951h 0.181345v 0.071783h 0.181345v 0.364127h 0.181345v 1.08872h 0.181345v
 0.813801h 0.181345v -0.31034h 0.181345v 2.31967h 0.181345v 0.0478363h 0.181345v 2.10455h 0.181345v 2.25323h 0.181345v -0.127362h 0.181345v 2.66314h 0.181345v 0.578322h 0.181345v 3.03733h 0.181345v 1.56879h 0.181345v 1.22137h 0.181345v 3.20957h
 0.181345v -0.56164h 0.181345v 4.0011h 0.181345v -1.45478h 0.181345v 3.47008h 0.181345v -0.603774h 0.181345v -0.293064h 0.181345v 0.896839h 0.181345v 0.628939h 0.181345v 0.99546h 0.181345v 1.18899h 0.181345v 0.375762h 0.181345v -0.498966h 0.181345v
 -0.951013h 0.181345v 1.07422h 0.181345v -1.30289h 0.181345v 2.72898h 0.181345v -2.26811h 0.181345v -1.44909h 0.181345v 3.05223h 0.181345v -2.94557h 0.181345v 1.34243h 0.181345v 0.718819h 0.181345v 1.82371h 0.181345v -2.3067h 0.181345v 1.89693h
 0.181345v -2.81889h 0.181345v 1.90392h 0.181345v 0.780813h 0.181345v -1.15658h 0.181345v -1.41595h 0.181345v 5.19121h 0.181345v -3.01414h 0.181345v -0.76112h 0.181345v 0.249466h 0.181345v -2.85611h 0.181345v 2.9824h 0.181345v -1.90392h 0.181345v
 4.98898h 0.181345v -6.06747h 0.181345v 3.23821h 0.36269v -0.754775h 0.181345v 0.247421h 0.181345v 1.43845h 0.181345v -2.40469h 0.181345v 1.21778h 0.181345v 1.46384h 0.181345v -1.20803h 0.181345v -0.255809h 0.181345v -0.251545h 0.181345v 0.251545h
 0.181345v -1.21778h 0.181345v -1.23501h 0.181345v 2.3265h 0.181345v 2.90334h 0.181345v -3.02859h 0.181345v 2.4308h 0.181345v 0.905813h 0.181345v -1.62122h 0.181345v -0.548873h 0.181345v 0.409772h 0.181345v -0.939382h 0.181345v 1.64807h 0.181345v
 -1.25262h 0.181345v -2.23079h 0.181345v 4.84948h 0.181345v -3.27214h 0.181345v 1.19738h 0.181345v -0.274414h 0.181345v 1.27617h 0.181345v -0.293064h 0.181345v -0.846522h 0.181345v 1.74336h 0.181345v 1.97136h 0.181345v -3.01263h 0.181345v 1.51049h
 0.181345v -1.51049h 0.181345v -1.37298h 0.181345v 2.10934h 0.181345v 0.304906h 0.181345v -0.45508h 0.181345v -0.295938h 0.181345v 0.597795h 0.181345v 1.60709h 0.181345v -2.63818h 0.181345v -1.49014h 0.181345v 2.98565h 0.181345v -2.59362h 0.181345v
 1.09811h 0.181345v 0.580546h 0.181345v -1.67866h 0.181345v 3.07279h 0.181345v -1.97468h 0.181345v -0.55904h 0.181345v -0.931101h 0.181345v 1.77762h 0.181345v 2.18207h 0.181345v -4.59126h 0.181345v 2.40919h 0.181345v -2.6546h 0.181345v -2.36123h
 0.181345v 1.07848h 0.181345v -0.656292h 0.181345v 1.22588h 0.181345v -1.95714h 0.181345v -1.17662h 0.181345v -3.21608h 0.181345v -0.959739h 0.181345v 0.657882h 0.181345v -2.97416h 0.181345v -3.19499h 0.181345v 1.08032h 0.181345v -4.00475h 0.181345v
 0.711838h 0.181345v -2.15401h 0.181345v -1.68648h 0.181345v -1.33535h 0.181345v -2.77193h 0.181345v 0.967286h 0.181345v -1.41635h 0.181345v -0.292119h 0.181345v -0.980064h 0.181345v -1.23581h 0.181345v -0.1862h 0.181345v -0.917387h 0.181345v
 1.22901h 0.181345v -0.876642h 0.181345v 0.585596h 0.181345v -0.245077h 0.181345v 1.35562h 0.181345v 0.77297h 0.181345v 1.78054h 0.181345v 0.480009h 0.181345v 0.136091h 0.181345v 0.699492h 0.181345v 3.17568h 0.181345v 0.576389h 0.181345v 0.561118h
 0.181345v 3.26331h 0.181345v 0.776626h 0.181345v 0.766273h 0.181345v 3.32851h 0.181345v 2.47972h 0.181345v 0.154795h 0.181345v 5.6975h 0.181345v 2.06401h 0.181345v -1.95011h 0.181345v 3.3107h 0.181345v 5.83731h 0.181345v -3.53453h 0.181345v 1.38878h
 0.181345v 1.52965h 0.181345v 3.36776h 0.181345v -3.95969h 0.181345v 5.83194h 0.181345v -5.63719h 0.181345v 4.01861h 0.181345v 0.520477h 0.181345v -1.98217h 0.181345v -1.95714h 0.181345v 3.41883h 0.181345v 1.33648h 0.181345v -0.816001h 0.181345v
 -2.66314h 0.181345v 1.15265h 0.181345v 0.736358h 0.181345v 4.3418h 0.181345v -3.02859h 0.181345v -0.53907h 0.181345v 3.23595h 0.181345v -1.25842h 0.181345v 1.92931h 0.181345v -1.31321h 0.181345v -1.77762h 0.181345v -1.8396h 0.181345v 3.61723h
 0.181345v 1.31321h 0.181345v -3.90683h 0.181345v -3.31471h 0.181345v 1.80422h 0.181345v 5.07816h 0.181345v -1.28523h 0.181345v 0.311193h 0.181345v -2.59362h 0.181345v 3.56766h 0.181345v -4.3418h 0.181345v -0.736358h 0.181345v -2.0153h 0.181345v
 1.54363h 0.181345v 0.958566h 0.181345v 0.249466h 0.181345v 4.3418h 0.181345v -5.31583h 0.181345v 1.74817h 0.36269v 4.25379h 0.181345v -5.52281h 0.181345v 3.24654h 0.181345v -2.498h 0.181345v 2.498h 0.181345v -5.29223h 0.181345v -1.41912h 0.181345v
 2.52124h 0.181345v -0.450551h 0.181345v 3.76125h 0.181345v -3.08028h 0.181345v -1.7518h 0.181345v 0.850498h 0.181345v 2.36299h 0.181345v 0.787605h 0.181345v -1.04126h 0.181345v 0.774136h 0.181345v -2.43955h 0.181345v 2.17706h 0.181345v -4.07932h
 0.181345v 2.8313h 0.181345v 1.77762h 0.181345v -2.2493h 0.181345v 3.66082h 0.181345v -2.45279h 0.181345v -0.974038h 0.181345v -0.691373h 0.181345v 6.69334h 0.181345v -2.27627h 0.181345v -3.7257h 0.181345v 3.7257h 0.181345v -3.00113h 0.181345v
 -1.85987h 0.181345v 5.79484h 0.181345v -4.65954h 0.181345v 5.655h 0.181345v -5.17584h 0.181345v 2.6546h 0.181345v -0.56959h 0.181345v -2.3265h 0.181345v 1.77762h 0.181345v -0.267128h 0.181345v 1.38559h 0.181345v -0.287482h 0.181345v 2.46955h
 0.181345v -2.46955h 0.181345v -1.61859h 0.181345v -0.253659h 0.181345v 6.11942h 0.181345v -5.86576h 0.181345v 2.80291h 0.181345v -2.28243h 0.181345v -0.262482h 0.181345v -2.62099h 0.181345v 3.98158h 0.544034v -1.36059h 0.181345v 2.85611h 0.181345v
 -0.311193h 0.181345v -3.05657h 0.181345v 4.01008h 0.181345v -4.25955h 0.181345v 1.29073h 0.181345v 2.3265h 0.181345v 3.5258h 0.181345v -6.6399h 0.181345v 1.05955h 0.181345v -2.52124h 0.181345v 2.52124h 0.181345v 5.58035h 0.181345v -4.1419h 0.181345v
 0.6161h 0.181345v 3.5258h 0.181345v -2.55176h 0.181345v -3.30053h 0.181345v 2.0153h 0.181345v 1.28523h 0.181345v 2.55176h 0.181345v -2.55176h 0.36269v -2.18207h 0.181345v 0.896839h 0.181345v -2.0153h 0.181345v 6.66829h 0.181345v -2.68163h 0.181345v
 -0.346966h 0.181345v 0.346966h 0.181345v 2.68163h 0.181345v -4.02405h 0.181345v -0.628939h 0.181345v 1.6244h 0.181345v -2.52124h 0.181345v 3.95969h 0.36269v -5.07816h 0.181345v 3.30053h 0.181345v 3.79292h 0.181345v -2.75166h 0.181345v -1.04126h
 0.181345v 0.686134h 0.181345v -2.8682h 0.181345v 5.97499h 0.181345v -3.10679h 0.181345v -1.97136h 0.181345v 3.83699h 0.181345v 0.402486h 0.181345v -1.54929h 0.181345v 1.14681h 0.181345v -4.73383h 0.181345v 1.85036h 0.181345v 5.4771h 0.181345v
 -5.4771h 0.181345v 5.95626h 0.181345v -3.84692h 0.181345v 4.85345h 0.181345v -5.58981h 0.181345v 3.18915h 0.181345v -1.67866h 0.36269v -3.20805h 0.181345v 4.88671h 0.181345v 4.04873h 0.181345v -1.64807h 0.181345v -5.22612h 0.181345v 4.21959h
 0.181345v 1.00653h 0.181345v -3.67683h 0.181345v 2.6703h 0.181345v -0.943579h 0.181345v 4.19011h 0.36269v 1.92931h 0.181345v -7.84614h 0.181345v 7.17526h 0.181345v -2.41995h 0.544034v -0.548873h 0.36269v -2.0153h 0.181345v 2.56417h 0.181345v
 -2.08501h 0.181345v 3.86263h 0.181345v 5.20445h 0.181345v -7.53095h 0.181345v 4.3418h 0.181345v -3.22333h 0.181345v 10.4612h 0.181345v -4.04873h 0.181345v -7.53095h 0.36269v 2.3265h 0.181345v 3.5258h 0.36269v -3.5258h 0.181345v -1.77762h 0.181345v
 6.11942h 0.36269v -6.11942h 0.181345v 3.79292h 0.181345v -2.0153h 0.181345v 8.13472h 0.181345v -4.60893h 0.181345v 3.56766h 0.181345v -8.87108h 0.181345v 6.98207h 0.181345v -3.89125h 0.181345v 10.4612h 0.181345v -13.552h 0.181345v 7.89704h 0.181345v
 -4.10412h 0.181345v 1.51049h 0.181345v -5.30342h 0.181345v 8.87108h 0.181345v -8.87108h 0.181345v 2.41995h 0.181345v 6.45113h 0.181345v -2.75166h 0.181345v 7.43263h 0.181345v -5.655h 0.181345v 0.974038h 0.181345v -2.75166h 0.181345v 3.79292h
 0.181345v -3.79292h 0.181345v -4.3418h 0.181345v 7.09346h 0.181345v -1.88901h 0.181345v 1.88901h 0.181345v -6.45113h 0.181345v -2.41995h 0.181345v 6.98207h 0.181345v 5.25676h 0.181345v -4.3418h 0.181345v -4.80621h 0.181345v 5.78025h 0.181345v
 -0.974038h 0.181345v 2.0153h 0.181345v 1.11846h 0.181345v -13.595h 0.181345v 4.3418h 0.181345v -0.6161h 0.181345v 0.6161h 0.181345v -6.11942h 0.181345v 2.75166h 0.181345v 3.36776h 0.181345v -3.86263h 0.181345v -4.93841h 0.181345v -2.27627h 0.181345v
 0.304906h 0.181345v 3.06285h 0.181345v -3.06285h 0.181345v -1.18432h 0.181345v -1.36059h 0.181345v 1.64807h 0.181345v -6.87419h 0.181345v 1.75463h 0.181345v -0.407926h 0.181345v -1.16152h 0.181345v -0.904003h 0.181345v -1.18101h 0.181345v -0.321126h
 0.181345v -1.22025h 0.181345v 4.39072h 0.181345v -2.35447h 0.181345v 1.59014h 0.181345v 1.16152h 0.181345v -3.7257h 0.181345v 1.31321h 0.181345v 1.06578h 0.181345v -0.18294h 0.181345v 2.78807h 0.181345v 0.670881h 0.181345v -0.226957h 0.181345v
 -0.661084h 0.181345v 1.59014h 0.181345v -0.23768h 0.181345v 2.84628h 0.181345v -0.830981h 0.181345v 3.6397h 0.181345v -0.339168h 0.181345v 1.04126h 0.181345v 4.58328h 0.181345v -2.25678h 0.181345v 0.425165h 0.36269v 4.48622h 0.181345v 0.591933h
 0.36269v -3.7257h 0.181345v 2.0153h 0.181345v -2.93027h 0.181345v 1.39413h 0.181345v -1.83162h 0.181345v 3.36776h 0.181345v -4.20644h 0.181345v 0.838679h 0.181345v -2.38797h 0.181345v 1.96281h 0.181345v -7.1979h 0.181345v 2.54491h 0.181345v
 0.953518h 0.181345v -1.85036h 0.181345v -6.68901h 0.181345v 0.56959h 0.181345v -1.47359h 0.181345v -0.17448h 0.181345v -2.10179h 0.181345v 0.933845h 0.181345v 1.69756h 0.181345v -3.93202h 0.181345v -3.11645h 0.181345v -0.223594h 0.181345v -1.3778h
 0.181345v 0.726232h 0.181345v -0.827185h 0.181345v -2.3265h 0.181345v 1.73456h 0.181345v -3.36776h 0.181345v 3.46482h 0.181345v -2.08815h 0.181345v 0.605505h 0.181345v -1.90457h 0.181345v 0.156399h 0.181345v 1.48569h 0.181345v -2.25197h 0.181345v
 0.687872h 0.181345v -2.31532h 0.181345v 2.15973h 0.181345v -0.154005h 0.181345v -1.735h 0.181345v 0.345378h 0.181345v 0.788853h 0.181345v -2.69018h 0.181345v -0.896839h 0.181345v 0.233995h 0.181345v 0.540142h 0.181345v 1.61052h 0.181345v -3.12101h
 0.181345v -0.382105h 0.181345v 2.38951h 0.36269v -1.55853h 0.181345v -0.55904h 0.181345v 1.49894h 0.181345v -0.418428h 0.181345v -0.914968h 0.181345v -0.651569h 0.181345v 4.27111h 0.181345v -1.15368h 0.181345v -0.194743h 0.181345v -0.319089h
 0.181345v 0.383724h 0.181345v 1.0043h 0.181345v 0.927954h 0.181345v 1.63109h 0.36269v 2.395h 0.181345v -0.931922h 0.181345v 0.273585h 0.181345v 2.82546h 0.181345v 2.53133h 0.181345v 1.22992h 0.181345v 0.729241h 0.181345v -0.148694h 0.181345v
 2.05764h 0.181345v 1.05338h 0.181345v 7.05713h 0.181345v -0.287482h 0.181345v 1.81326h 0.181345v 2.81602h 0.181345v 3.46482h 0.181345v -3.84692h 0.181345v 5.38306h 0.181345v -1.53614h 0.181345v 1.53614h 0.181345v 6.66829h 0.181345v -3.69947h
 0.181345v 2.10934h 0.181345v 12.0514h 0.36269v 1.77762h 0.181345v -3.36776h 0.181345v -8.00842h 0.181345v 5.25676h 0.181345v 8.13472h 0.181345v 8.44591h 0.181345v -6.11942h 0.181345v -6.11942h 0.181345v 8.87108h 0.181345v 3.36776h 0.181345v 10.4612h
 0.181345v -10.4612h 0.181345v -10.4612h 0.181345v 4.3418h 0.181345v 6.11942h 0.181345v -10.4612h 0.181345v 14.803h 0.181345v -10.4612h 0.181345v -2.3265h 0.181345v 2.3265h 0.181345v -2.3265h 0.181345v 2.3265h 0.181345v 6.11942h 0.181345v 10.4612h
 0.181345v -10.4612h 0.181345v 4.3418h 0.181345v -10.4612h 0.181345v 16.5806h 0.36269v -6.11942h 0.181345v -4.3418h 0.181345v 10.4612h 0.181345v -6.11942h 0.181345v -4.3418h 0.181345v -8.44591h 0.181345v 29.3683h 0.181345v -10.4612h 0.36269v
 -6.11942h 0.181345v 16.5806h 0.181345v -10.4612h 0.181345v -13.829h 0.181345v -8.87108h 0.181345v 6.11942h 0.181345v 27.0419h 0.181345v -31.3836h 0.181345v 31.3836h 0.181345v -27.0419h 0.181345v 6.11942h 0.181345v -10.4612h 0.181345v 14.803h
 0.181345v -10.4612h 0.181345v -7.70956h 0.181345v 13.829h 0.181345v 4.3418h 0.181345v -4.3418h 0.36269v 4.3418h 0.181345v -4.3418h 0.181345v 4.3418h 0.181345v -19.6092h 0.181345v 4.80621h 0.181345v 4.3418h 0.36269v -2.3265h 0.181345v 8.44591h
 0.181345v -6.11942h 0.181345v 10.4612h 0.36269v -10.4612h 0.181345v 2.75166h 0.181345v -2.75166h 0.181345v -4.3418h 0.181345v 2.0153h 0.181345v -2.0153h 0.181345v 10.4612h 0.181345v -12.2388h 0.181345v 8.87108h 0.181345v -11.8997h 0.181345v 9.14801h
 0.181345v -7.70956h 0.181345v -7.09346h 0.181345v 14.803h 0.181345v -12.7877h 0.181345v -2.0153h 0.181345v 0.974038h 0.181345v 3.36776h 0.181345v -3.36776h 0.181345v 4.68097h 0.181345v -5.655h 0.181345v -1.77762h 0.181345v -2.3265h 0.181345v
 1.51049h 0.181345v -0.774136h 0.181345v 3.36776h 0.181345v -1.77762h 0.181345v -3.69947h 0.181345v 3.69947h 0.181345v -4.9579h 0.181345v -1.16152h 0.181345v 5.30342h 0.181345v -5.30342h 0.181345v 4.52928h 0.181345v -2.75166h 0.181345v 4.3418h
 0.181345v -2.3265h 0.181345v -5.38306h 0.181345v 6.11942h 0.181345v 1.59014h 0.36269v 1.77762h 0.181345v 7.09346h 0.181345v -7.09346h 0.181345v 8.68359h 0.181345v -9.59856h 0.181345v 4.04873h 0.181345v -4.04873h 0.181345v 9.59856h 0.181345v
 -6.66829h 0.181345v 8.44591h 0.181345v 7.09346h 0.181345v -11.8997h 0.181345v 9.14801h 0.181345v -2.3265h 0.181345v 18.9071h 0.181345v -10.4612h 0.181345v -10.4612h 0.181345v 31.3836h 0.181345v -31.3836h 0.181345v 14.803h 0.181345v 16.5806h
 0.181345v -24.2902h 0.181345v 13.829h 0.181345v -6.11942h 0.181345v -7.70956h 0.181345v 3.36776h 0.181345v 10.4612h 0.181345v 10.4612h 0.181345v -10.4612h 0.181345v -6.11942h 0.181345v 6.11942h 0.181345v -10.4612h 0.181345v 4.3418h 0.181345v
 -10.4612h 0.181345v 6.11942h 0.181345v 10.4612h 0.181345v -13.829h 0.181345v 3.36776h 0.181345v 4.3418h 0.181345v 6.11942h 0.181345v -6.11942h 0.36269v -4.3418h 0.181345v 10.4612h 0.36269v -10.4612h 0.36269v 10.4612h 0.181345v -10.4612h 0.181345v
 4.3418h 0.181345v -7.70956h 0.36269v 3.36776h 0.181345v -8.44591h 0.181345v 8.44591h 0.36269v 20.9224h 0.181345v -24.2902h 0.181345v -5.07816h 0.181345v 29.3683h 0.181345v -27.0419h 0.181345v 10.4612h 0.181345v -10.4612h 0.181345v 6.11942h 0.181345v
 10.4612h 0.181345v -6.11942h 0.181345v -4.3418h 0.181345v -10.4612h 0.181345v 4.3418h 0.181345v 2.75166h 0.544034v 3.36776h 0.181345v -8.44591h 0.181345v 2.3265h 0.36269v 2.75166h 0.181345v -2.75166h 0.181345v 10.4612h 0.181345v -14.803h 0.181345v
 31.3836h 0.181345v -31.3836h 0.181345v 4.3418h 0.181345v 10.4612h 0.181345v -7.70956h 0.181345v 3.36776h 0.36269v -8.44591h 0.181345v -5.38306h 0.181345v -8.00842h 0.181345v 11.3762h 0.181345v -1.77762h 0.181345v 12.2388h 0.181345v -10.4612h
 0.36269v -3.36776h 0.181345v 5.38306h 0.181345v 2.3265h 0.181345v -7.70956h 0.181345v -1.43845h 0.181345v 9.14801h 0.181345v -4.3418h 0.181345v -7.32745h 0.181345v 11.6692h 0.36269v -4.3418h 0.36269v 7.09346h 0.181345v -11.8997h 0.181345v 3.02859h
 0.181345v -3.02859h 0.181345v 4.80621h 0.181345v 4.3418h 0.36269v 16.5806h 0.181345v -18.9071h 0.181345v -3.79292h 0.181345v -5.54983h 0.181345v 17.7887h 0.181345v -8.44591h 0.181345v 18.9071h 0.181345v -10.4612h 0.181345v -6.11942h 0.181345v
 -4.3418h 0.36269v 14.803h 0.181345v -12.7877h 0.181345v 5.07816h 0.181345v -11.8997h 0.181345v 6.82152h 0.181345v 12.7877h 0.181345v -4.3418h 0.181345v -17.7887h 0.181345v 22.1305h 0.181345v -4.3418h 0.181345v 4.3418h 0.181345v -12.7877h 0.181345v
 2.3265h 0.181345v 6.11942h 0.181345v -3.36776h 0.181345v -2.75166h 0.36269v 10.4612h 0.181345v -10.4612h 0.181345v 6.11942h 0.36269v -6.11942h 0.181345v 2.75166h 0.181345v -10.4612h 0.181345v 7.70956h 0.181345v 6.11942h 0.181345v -6.11942h 0.181345v
 6.11942h 0.181345v -12.2388h 0.181345v 16.5806h 0.181345v -4.3418h 0.36269v -15.2674h 0.181345v 6.82152h 0.181345v 2.3265h 0.181345v -4.3418h 0.181345v 10.4612h 0.36269v -10.4612h 0.181345v 4.3418h 0.181345v -6.11942h 0.181345v 6.11942h 0.181345v
 10.4612h 0.181345v -23.2489h 0.181345v 3.6397h 0.181345v 19.6092h 0.181345v -16.5806h 0.181345v 1.77762h 0.181345v -1.77762h 0.181345v 6.11942h 0.181345v -6.11942h 0.181345v 6.11942h 0.36269v -7.70956h 0.181345v 10.4612h 0.181345v 3.36776h 0.181345v
 -16.5806h 0.181345v 1.31321h 0.181345v -1.31321h 0.181345v 2.75166h 0.181345v 10.4612h 0.181345v -2.75166h 0.181345v -9.14801h 0.181345v 4.80621h 0.181345v -3.36776h 0.181345v -3.95969h 0.181345v 14.4209h 0.181345v -15.5394h 0.181345v -3.79292h
 0.181345v 8.87108h 0.181345v -2.75166h 0.181345v 6.11942h 0.181345v -3.36776h 0.36269v 1.59014h 0.181345v -6.66829h 0.181345v 15.5394h 0.181345v -7.09346h 0.181345v 2.0153h 0.181345v -3.79292h 0.181345v -8.68359h 0.181345v 3.13376h 0.181345v
 11.6692h 0.181345v -2.3265h 0.181345v -9.34275h 0.181345v 1.20803h 0.181345v -2.3265h 0.181345v 8.44591h 0.181345v -6.11942h 0.36269v 6.11942h 0.181345v -7.32745h 0.181345v -2.15973h 0.181345v -1.88901h 0.544034v 8.00842h 0.181345v -1.43845h
 0.181345v -2.52124h 0.181345v 2.52124h 0.181345v -2.52124h 0.181345v -1.11846h 0.181345v -2.0153h 0.181345v 7.09346h 0.181345v 1.59014h 0.181345v -3.02859h 0.36269v 1.43845h 0.181345v -7.09346h 0.544034v -4.10412h 0.181345v 7.23788h 0.181345v
 7.32745h 0.181345v -15.2674h 0.181345v 3.89125h 0.181345v 0.914968h 0.181345v -4.10412h 0.181345v 6.11942h 0.181345v 1.11846h 0.181345v -1.11846h 0.181345v 6.66829h 0.181345v -7.70956h 0.181345v 3.36776h 0.36269v -6.11942h 0.181345v 6.11942h
 0.181345v -2.3265h 0.181345v 3.6397h 0.181345v -7.43263h 0.181345v 2.75166h 0.181345v 2.15973h 0.181345v -1.11846h 0.181345v -3.79292h 0.181345v 2.75166h 0.181345v -1.88901h 0.181345v 6.56997h 0.181345v -3.6397h 0.181345v 1.11846h 0.181345v
 -4.91139h 0.181345v 1.77762h 0.181345v -3.36776h 0.181345v 4.3418h 0.181345v -8.87108h 0.181345v 7.89704h 0.181345v -6.11942h 0.181345v 6.11942h 0.181345v -4.10412h 0.181345v 6.11942h 0.181345v -6.82152h 0.181345v 3.02859h 0.181345v -4.3418h
 0.181345v -1.20803h 0.181345v -0.56959h 0.181345v 6.11942h 0.36269v 4.91139h 0.181345v 5.54983h 0.181345v -8.68359h 0.181345v -6.11942h 0.181345v 2.75166h 0.181345v -4.52928h 0.181345v -1.07848h 0.181345v -1.00653h 0.181345v 2.08501h 0.181345v
 5.30342h 0.36269v -0.774136h 0.181345v -2.75166h 0.181345v 4.3418h 0.181345v -3.69947h 0.181345v -0.642324h 0.181345v 2.0153h 0.181345v -5.38306h 0.181345v 4.68097h 0.181345v -5.655h 0.181345v 3.7257h 0.181345v 1.92931h 0.181345v -4.16931h 0.181345v
 2.24001h 0.181345v -3.24654h 0.181345v 3.24654h 0.181345v -2.24001h 0.181345v 6.3819h 0.181345v -5.30342h 0.181345v 6.98207h 0.181345v -2.45279h 0.181345v -8.00842h 0.181345v 5.25676h 0.181345v -1.20803h 0.181345v 3.95969h 0.181345v -1.43845h
 0.181345v -4.16931h 0.181345v 8.97552h 0.181345v -5.4771h 0.36269v 0.670881h 0.181345v -1.92931h 0.36269v -0.591933h 0.181345v -2.6546h 0.181345v 4.50496h 0.181345v 2.10934h 0.181345v 0.774136h 0.181345v -4.73383h 0.181345v 6.41248h 0.181345v
 -5.20445h 0.181345v 3.5258h 0.181345v -0.774136h 0.181345v -1.43845h 0.181345v 13.4898h 0.181345v -4.3418h 0.544034v -3.36776h 0.181345v -0.974038h 0.181345v -4.10412h 0.36269v 8.44591h 0.181345v -5.25676h 0.181345v 5.25676h 0.181345v -3.36776h
 0.36269v -2.75166h 0.181345v -0.816001h 0.181345v 1.67866h 0.181345v 6.56997h 0.181345v -7.43263h 0.181345v 0.862655h 0.181345v 2.93027h 0.181345v -2.93027h 0.181345v 5.25676h 0.181345v -5.25676h 0.181345v 2.93027h 0.181345v 3.6397h 0.181345v
 -5.655h 0.181345v -2.59362h 0.181345v -0.774136h 0.181345v 13.829h 0.181345v -1.77762h 0.181345v -8.68359h 0.181345v 3.13376h 0.181345v -2.15973h 0.181345v 1.04126h 0.181345v -1.04126h 0.181345v -0.974038h 0.181345v -3.36776h 0.36269v 1.59014h
 0.181345v 3.79292h 0.181345v 2.3265h 0.181345v 4.3418h 0.181345v -6.66829h 0.181345v -1.04126h 0.181345v -3.56766h 0.181345v 4.60893h 0.181345v -2.0153h 0.181345v -0.914968h 0.36269v 5.25676h 0.181345v -1.20803h 0.181345v -4.91139h 0.181345v
 6.11942h 0.181345v -7.70956h 0.181345v 10.4612h 0.181345v -8.87108h 0.181345v 3.79292h 0.181345v 6.66829h 0.181345v -4.3418h 0.181345v 1.31321h 0.181345v -2.52124h 0.181345v -6.50152h 0.181345v 3.36776h 0.181345v -4.10412h 0.36269v 1.51049h 0.36269v
 -0.774136h 0.181345v 15.8443h 0.36269v -3.79292h 0.181345v -12.7877h 0.181345v 0.736358h 0.181345v 10.4612h 0.181345v -11.1976h 0.181345v 1.51049h 0.36269v 13.0548h 0.181345v -15.2674h 0.181345v 2.21259h 0.181345v 9.68708h 0.181345v -8.87108h
 0.181345v -3.02859h 0.181345v 2.21259h 0.181345v 2.59362h 0.181345v 4.3418h 0.181345v -3.36776h 0.181345v -0.974038h 0.181345v 3.13376h 0.181345v -4.04873h 0.181345v 5.25676h 0.181345v -2.3265h 0.181345v -2.0153h 0.36269v -3.36776h 0.181345v 4.3418h
 0.181345v 3.36776h 0.181345v -3.36776h 0.181345v 3.36776h 0.181345v -1.20803h 0.181345v -6.50152h 0.181345v -2.10934h 0.181345v 3.69947h 0.181345v 0.862655h 0.181345v -0.862655h 0.181345v 2.75166h 0.181345v -2.75166h 0.181345v 1.77762h 0.181345v
 -4.10412h 0.181345v 2.3265h 0.181345v -3.69947h 0.181345v 1.37298h 0.181345v 6.11942h 0.181345v -5.38306h 0.181345v 9.02276h 0.181345v -8.24863h 0.181345v 3.56766h 0.181345v -7.09346h 0.181345v 6.11942h 0.181345v -4.10412h 0.181345v 4.10412h
 0.181345v -3.36776h 0.181345v 4.3418h 0.181345v -1.88901h 0.181345v 2.93027h 0.181345v -2.93027h 0.181345v -9.06709h 0.181345v 10.9561h 0.36269v 2.15973h 0.181345v -8.61086h 0.181345v 9.81889h 0.181345v -7.70956h 0.181345v -4.52928h 0.181345v
 -1.07848h 0.181345v 9.94956h 0.181345v 1.04126h 0.181345v -5.38306h 0.181345v -1.43845h 0.181345v 1.43845h 0.181345v 3.36776h 0.181345v 2.0153h 0.181345v -4.60893h 0.181345v 2.59362h 0.181345v 2.0153h 0.36269v -3.79292h 0.181345v 1.77762h 0.181345v
 -4.10412h 0.181345v -3.79292h 0.181345v 6.98207h 0.36269v -0.862655h 0.181345v -3.02859h 0.181345v -1.92931h 0.181345v 8.75082h 0.181345v -6.11942h 0.181345v -3.22333h 0.181345v 6.41248h 0.181345v 4.04873h 0.181345v -7.93998h 0.181345v 2.21259h
 0.181345v -7.86759h 0.181345v 3.13376h 0.181345v 3.22333h 0.181345v 2.3265h 0.181345v 4.91139h 0.181345v -10.4612h 0.181345v -0.56959h 0.181345v 6.11942h 0.181345v 0.862655h 0.181345v -5.20445h 0.181345v 1.31321h 0.181345v 4.80621h 0.181345v
 -2.59362h 0.181345v -3.5258h 0.181345v -1.20803h 0.181345v 1.20803h 0.181345v 2.75166h 0.181345v 3.36776h 0.181345v -9.48718h 0.181345v 10.4612h 0.181345v -8.87108h 0.181345v -1.07848h 0.181345v 1.64807h 0.36269v 5.54983h 0.181345v 1.77762h
 0.181345v -4.80621h 0.181345v 3.02859h 0.181345v -0.816001h 0.181345v 3.56766h 0.181345v -7.09346h 0.181345v 10.4612h 0.181345v -2.3265h 0.181345v 3.6397h 0.181345v -8.24863h 0.181345v 2.59362h 0.181345v -2.59362h 0.181345v 3.56766h 0.181345v
 -0.974038h 0.181345v -2.59362h 0.181345v 0.816001h 0.181345v -2.3265h 0.181345v 0.736358h 0.181345v 3.36776h 0.181345v -4.80621h 0.181345v -0.670881h 0.181345v 5.4771h 0.181345v 0.974038h 0.181345v 7.70956h 0.181345v -4.3418h 0.181345v -5.25676h
 0.181345v 4.04873h 0.181345v -4.91139h 0.181345v -1.59014h 0.181345v 9.02276h 0.181345v -10.4612h 0.181345v 9.14801h 0.181345v -4.3418h 0.181345v 2.0153h 0.181345v -4.60893h 0.181345v 2.59362h 0.181345v -2.59362h 0.181345v 1.67866h 0.181345v
 -4.56213h 0.181345v 15.9383h 0.181345v -11.3762h 0.181345v 8.00842h 0.181345v -3.95969h 0.181345v -7.93998h 0.181345v 2.21259h 0.181345v 15.0701h 0.181345v -15.8443h 0.181345v 6.50152h 0.181345v -4.91139h 0.181345v 4.91139h 0.181345v -8.61086h
 0.181345v 9.81889h 0.181345v -2.3265h 0.181345v 1.11846h 0.181345v -7.23788h 0.181345v 1.51049h 0.181345v 4.60893h 0.181345v -6.11942h 0.181345v 9.75912h 0.181345v -5.655h 0.181345v -1.77762h 0.36269v 1.77762h 0.181345v -3.36776h 0.181345v -2.75166h
 0.181345v 10.4612h 0.181345v -5.25676h 0.181345v -0.862655h 0.181345v -0.816001h 0.181345v 5.72739h 0.181345v 2.52124h 0.181345v -1.31321h 0.181345v 6.11942h 0.181345v -4.80621h 0.181345v 6.82152h 0.181345v -13.3915h 0.181345v 6.56997h 0.181345v
 -2.52124h 0.181345v 1.20803h 0.181345v 6.11942h 0.181345v -7.32745h 0.181345v 3.95969h 0.181345v -6.11942h 0.181345v 7.70956h 0.181345v -1.59014h 0.181345v -2.75166h 0.181345v 4.3418h 0.181345v -5.54983h 0.181345v 7.32745h 0.181345v -3.36776h
 0.181345v -1.43845h 0.181345v 9.14801h 0.181345v -6.11942h 0.181345v -4.3418h 0.181345v 13.2129h 0.181345v -11.8997h 0.181345v -2.52124h 0.181345v 11.6692h 0.181345v 10.4612h 0.181345v -16.5806h 0.181345v 1.77762h 0.181345v -6.11942h 0.181345v
 4.3418h 0.181345v -1.59014h 0.181345v 3.36776h 0.181345v -10.4612h 0.181345v 7.09346h 0.181345v 13.829h 0.544034v -6.11942h 0.181345v 10.4612h 0.181345v -4.3418h 0.181345v -3.36776h 0.181345v -10.4612h 0.181345v -3.95969h 0.181345v 2.52124h
 0.181345v 1.43845h 0.181345v 7.70956h 0.181345v -2.3265h 0.181345v 2.3265h 0.36269v -11.6692h 0.181345v 5.54983h 0.181345v -1.59014h 0.181345v 1.59014h 0.181345v 3.79292h 0.181345v 2.3265h 0.181345v 16.5806h 0.181345v -24.2902h 0.181345v 5.38306h
 0.181345v -10.4612h 0.181345v 6.66829h 0.181345v 1.77762h 0.181345v 14.803h 0.181345v -18.1708h 0.181345v -5.07816h 0.181345v 5.07816h 0.181345v 7.70956h 0.181345v 6.11942h 0.181345v -8.44591h 0.181345v -2.0153h 0.181345v -4.80621h 0.181345v
 4.80621h 0.181345v 10.4612h 0.181345v -8.44591h 0.181345v 5.07816h 0.181345v 3.36776h 0.181345v -12.2388h 0.181345v 6.11942h 0.181345v -9.14801h 0.181345v 3.02859h 0.181345v -3.02859h 0.181345v 1.43845h 0.181345v -2.75166h 0.36269v 13.2129h
 0.181345v -10.4612h 0.36269v 5.38306h 0.181345v -3.79292h 0.36269v 3.79292h 0.36269v -2.0153h 0.36269v -8.44591h 0.181345v 3.6397h 0.181345v 3.02859h 0.181345v 1.77762h 0.181345v 2.0153h 0.181345v -5.38306h 0.181345v -3.95969h 0.36269v 1.20803h
 0.181345v 16.5806h 0.181345v -8.44591h 0.181345v -10.4612h 0.181345v 2.3265h 0.181345v -3.36776h 0.181345v 1.04126h 0.181345v 3.6397h 0.181345v -3.6397h 0.181345v 3.6397h 0.181345v 4.80621h 0.181345v 2.0153h 0.181345v -6.82152h 0.181345v 4.80621h
 0.181345v -1.77762h 0.181345v -1.59014h 0.36269v 1.59014h 0.36269v -3.02859h 0.181345v -2.52124h 0.181345v 14.4209h 0.181345v -14.4209h 0.181345v 3.95969h 0.181345v 3.36776h 0.181345v -8.44591h 0.181345v 5.07816h 0.181345v -3.95969h 0.181345v
 2.52124h 0.181345v -7.43263h 0.181345v 8.87108h 0.181345v 5.38306h 0.181345v -9.34275h 0.181345v 7.32745h 0.181345v -3.36776h 0.36269v -1.43845h 0.181345v -1.31321h 0.36269v -3.36776h 0.181345v -3.56766h 0.181345v 9.68708h 0.181345v 1.59014h
 0.181345v -6.66829h 0.181345v -2.93027h 0.181345v 8.00842h 0.181345v -6.11942h 0.181345v 7.70956h 0.181345v -3.02859h 0.181345v 6.82152h 0.181345v -3.79292h 0.181345v -11.2772h 0.181345v 13.0548h 0.181345v -1.77762h 0.181345v -4.3418h 0.181345v
 10.4612h 0.181345v -12.7877h 0.181345v -2.0153h 0.181345v 7.09346h 0.181345v -6.11942h 0.36269v 6.11942h 0.181345v -11.1976h 0.181345v 6.11942h 0.181345v 3.6397h 0.181345v -9.02276h 0.181345v 1.59014h 0.181345v 7.43263h 0.181345v -12.3905h 0.181345v
 11.0773h 0.181345v -2.3265h 0.181345v -4.60893h 0.181345v 0.816001h 0.181345v 6.11942h 0.181345v -7.70956h 0.181345v 15.8443h 0.181345v -15.8443h 0.181345v 2.45279h 0.181345v -5.82055h 0.181345v 4.1419h 0.181345v -0.774136h 0.181345v 0.774136h
 0.181345v 4.60893h 0.181345v -1.04126h 0.181345v -1.88901h 0.181345v 0.914968h 0.181345v -5.4771h 0.181345v 1.37298h 0.181345v -5.38306h 0.181345v 9.48718h 0.181345v 3.13376h 0.181345v -9.86928h 0.181345v 6.73552h 0.181345v 3.13376h 0.181345v
 -1.11846h 0.181345v -2.93027h 0.181345v 11.3762h 0.181345v -16.5806h 0.181345v 13.2129h 0.181345v -8.00842h 0.181345v 2.93027h 0.181345v 1.11846h 0.181345v 1.20803h 0.36269v -3.36776h 0.181345v -2.75166h 0.181345v 7.43263h 0.181345v 3.02859h
 0.181345v -3.02859h 0.36269v 6.82152h 0.181345v -9.34275h 0.181345v -6.50152h 0.181345v 13.829h 0.181345v -6.11942h 0.181345v -3.36776h 0.181345v 7.70956h 0.181345v -5.54983h 0.181345v 7.32745h 0.181345v -1.77762h 0.181345v -1.59014h 0.181345v
 -2.75166h 0.181345v 13.2129h 0.181345v -2.75166h 0.181345v 2.75166h 0.181345v -13.2129h 0.181345v 6.11942h 0.544034v 14.803h 0.181345v -4.3418h 0.181345v -10.4612h 0.181345v 2.0153h 0.181345v 12.7877h 0.181345v -4.3418h 0.181345v -8.44591h 0.181345v
 29.3683h 0.181345v -24.2902h 0.181345v 7.70956h 0.36269v 16.5806h 0.181345v -10.4612h 0.181345v -13.829h 0.181345v 7.70956h 0.181345v 6.11942h 0.181345v -6.11942h 0.181345v 6.11942h 0.181345v -6.11942h 0.181345v 6.11942h 0.181345v 20.9224h 0.181345v
 -10.4612h 0.181345v -16.5806h 0.181345v 16.5806h 0.181345v -10.4612h 0.36269v 10.4612h 0.181345v -24.2902h 0.181345v 13.829h 0.181345v 20.9224h 0.181345v -10.4612h 0.181345v -16.5806h 0.181345v 16.5806h 0.181345v -10.4612h 0.181345v 10.4612h
 0.36269v -10.4612h 0.181345v -10.4612h 0.181345v 31.3836h 0.181345v -10.4612h 0.36269v -16.5806h 0.181345v 6.11942h 0.181345v 20.9224h 0.181345v -20.9224h 0.544034v 10.4612h 0.36269v -16.5806h 0.181345v 16.5806h 0.181345v -10.4612h 0.181345v
 20.9224h 0.181345v -10.4612h 0.181345v -10.4612h 0.181345v 10.4612h 0.181345v 10.4612h 0.181345v -10.4612h 0.181345v -10.4612h 0.181345v 20.9224h 0.181345v -20.9224h 0.181345v 10.4612h 0.181345v 10.4612h 0.181345v -20.9224h 0.181345v 20.9224h
 0.181345v -10.4612h 0.181345v -16.5806h 0.181345v 27.0419h 0.181345v -10.4612h 0.36269v 10.4612h 0.181345v -20.9224h 0.36269v -6.11942h 0.181345v 16.5806h 0.181345v -10.4612h 0.181345v 20.9224h 0.181345v -10.4612h 0.181345v 10.4612h 0.36269v
 -10.4612h 0.36269v -10.4612h 0.181345v 10.4612h 0.544034v 10.4612h 0.181345v -20.9224h 0.181345v 10.4612h 0.181345v -10.4612h 0.181345v 20.9224h 0.36269v -10.4612h 0.181345v 10.4612h 0.181345v -10.4612h 0.181345v -10.4612h 0.181345v 10.4612h
 0.36269v -10.4612h 0.36269v 20.9224h 0.181345v -20.9224h 0.181345v -6.11942h 0.181345v 27.0419h 0.181345v -10.4612h 0.181345v -10.4612h 0.181345v -6.11942h 0.181345v 16.5806h 0.36269v 10.4612h 0.181345v -20.9224h 0.181345v -10.4612h 0.181345v
 31.3836h 0.181345v -20.9224h 0.36269v 10.4612h 0.544034v -10.4612h 0.36269v 10.4612h 0.36269v -16.5806h 0.181345v 27.0419h 0.181345v -10.4612h 0.181345v -16.5806h 0.181345v 16.5806h 0.181345v 10.4612h 0.181345v -10.4612h 0.181345v 10.4612h 0.181345v
 -27.0419h 0.36269v 27.0419h 0.906724v -31.3836h 0.181345v 20.9224h 0.36269v 10.4612h 0.36269v -10.4612h 0.725379v -10.4612h 0.181345v 10.4612h 0.36269v -10.4612h 0.36269v 20.9224h 0.181345v -20.9224h 0.36269v 20.9224h 0.36269v -10.4612h 0.181345v
 10.4612h 0.36269v -10.4612h 0.181345v -10.4612h 0.181345v 10.4612h 0.181345v -10.4612h 0.181345v -10.4612h 0.181345v 20.9224h 0.36269v 10.4612h 0.725379v -10.4612h 0.36269v 10.4612h 0.36269v -10.4612h 0.36269v 10.4612h 0.181345v -10.4612h 0.181345v
 -16.5806h 0.181345v 16.5806h 0.181345v -10.4612h 0.181345v 20.9224h 0.906724v -20.9224h 0.181345v 20.9224h 0.725379v -27.0419h 0.181345v 6.11942h 0.181345v 10.4612h 0.181345v 10.4612h 0.181345v -10.4612h 0.36269v 10.4612h 0.181345v -20.9224h
 0.181345v 10.4612h 0.725379v -10.4612h 0.181345v 20.9224h 0.181345v -20.9224h 0.181345v 20.9224h 0.181345v -10.4612h 0.36269v -16.5806h 0.181345v 27.0419h 0.181345v -10.4612h 0.181345v -10.4612h 0.181345v 20.9224h 0.181345v -20.9224h 0.181345v
 10.4612h 0.36269v 10.4612h 0.181345v -10.4612h 0.36269v 10.4612h 0.544034v -20.9224h 0.181345v 20.9224h 0.725379v -10.4612h 0.181345v -10.4612h 0.181345v 10.4612h 0.181345v 10.4612h 0.36269v -10.4612h 0.181345v 10.4612h 0.181345v -10.4612h 0.181345v
 10.4612h 0.181345v -10.4612h 0.181345v 10.4612h 0.181345v -27.0419h 0.181345v 6.11942h 0.36269v 20.9224h 0.181345v -27.0419h 0.181345v 27.0419h 0.181345v -10.4612h 0.544034v 10.4612h 0.36269v -10.4612h 0.181345v 10.4612h 0.181345v -10.4612h
 0.181345v -10.4612h 0.181345v 20.9224h 0.181345v -27.0419h 0.181345v 27.0419h 0.181345v -10.4612h 0.725379v 10.4612h 0.181345v -20.9224h 0.181345v 20.9224h 0.36269v -10.4612h 0.181345v 10.4612h 0.181345v -10.4612h 0.181345v -16.5806h 0.181345v
 16.5806h 0.181345v -10.4612h 0.36269v 20.9224h 0.36269v -10.4612h 0.544034v 10.4612h 1.45076v -10.4612h 0.181345v -10.4612h 0.181345v 10.4612h 0.36269v 10.4612h 0.181345v -10.4612h 0.36269v -10.4612h 0.181345v 20.9224h 0.36269v -27.0419h 0.181345v
 16.5806h 0.181345v 10.4612h 0.181345v -10.4612h 0.181345v 10.4612h 0.181345v -10.4612h 0.181345v 10.4612h 0.181345v -10.4612h 0.544034v -10.4612h 0.181345v 10.4612h 0.181345v -10.4612h 0.181345v 10.4612h 0.181345v 10.4612h 0.544034" fill="none"
 stroke="black"/>
<path d="M57.1929,280.151h 453.543" fill="none" stroke="black"/>
<path d="M57.1929,272.68v 7.47068" fill="none" stroke="black"/>
<path d="M75.3318,276.415v 3.73534" fill="none" stroke="black"/>
<path d="M93.4707,276.415v 3.73534" fill="none" stroke="black"/>
<path d="M111.61,276.415v 3.73534" fill="none" stroke="black"/>
<path d="M129.749,276.415v 3.73534" fill="none" stroke="black"/>
<path d="M147.887,272.68v 7.47068" fill="none" stroke="black"/>
<path d="M166.026,276.415v 3.73534" fill="none" stroke="black"/>
<path d="M184.165,276.415v 3.73534" fill="none" stroke="black"/>
<path d="M202.304,276.415v 3.73534" fill="none" stroke="black"/>
<path d="M220.443,276.415v 3.73534" fill="none" stroke="black"/>
<path d="M238.582,272.68v 7.47068" fill="none" stroke="black"/>
<path d="M256.721,276.415v 3.73534" fill="none" stroke="black"/>
<path d="M274.86,276.415v 3.73534" fill="none" stroke="black"/>
<path d="M292.999,276.415v 3.73534" fill="none" stroke="black"/>
<path d="M311.138,276.415v 3.73534" fill="none" stroke="black"/>
<path d="M329.277,272.68v 7.47068" fill="none" stroke="black"/>
<path d="M347.415,276.415v 3.73534" fill="none" stroke="black"/>
<path d="M365.554,276.415v 3.73534" fill="none" stroke="black"/>
<path d="M383.693,276.415v 3.73534" fill="none" stroke="black"/>
<path d="M401.832,276.415v 3.73534" fill="none" stroke="black"/>
<path d="M419.971,272.68v 7.47068" fill="none" stroke="black"/>
<path d="M438.11,276.415v 3.73534" fill="none" stroke="black"/>
<path d="M456.249,276.415v 3.73534" fill="none" stroke="black"/>
<path d="M474.388,276.415v 3.73534" fill="none" stroke="black"/>
<path d="M492.527,276.415v 3.73534" fill="none" stroke="black"/>
<path d="M510.666,272.68v 7.47068" fill="none" stroke="black"/>
<path d="M510.666,272.68v 7.47068" fill="none" stroke="black"/>
<text xml:space="preserve" x="54.3523" y="290.27" fill="black" font-size="10.4952" font-family="Helvetica">0</text>
<text xml:space="preserve" x="139.569" y="290.27" fill="black" font-size="10.4952" font-family="Helvetica">500</text>
<text xml:space="preserve" x="227.449" y="290.27" fill="black" font-size="10.4952" font-family="Helvetica">1000</text>
<text xml:space="preserve" x="318.288" y="290.27" fill="black" font-size="10.4952" font-family="Helvetica">1500</text>
<text xml:space="preserve" x="408.831" y="290.27" fill="black" font-size="10.4952" font-family="Helvetica">2000</text>
<text xml:space="preserve" x="499.67" y="290.27" fill="black" font-size="10.4952" font-family="Helvetica">2500</text>
<text xml:space="preserve" x="265.323" y="301.218" fill="black" font-size="10.4952" font-family="Helvetica">Channel</text>
<path d="M57.1929,280.151v -249.023" fill="none" stroke="black"/>
<path d="M63.9961,280.151h -6.80315" fill="none" stroke="black"/>
<path d="M63.9961,277.399h -6.80315" fill="none" stroke="black"/>
<path d="M63.9961,275.072h -6.80315" fill="none" stroke="black"/>
<path d="M63.9961,273.057h -6.80315" fill="none" stroke="black"/>
<path d="M63.9961,271.279h -6.80315" fill="none" stroke="black"/>
<path d="M70.7992,269.689h -13.6063" fill="none" stroke="black"/>
<text xml:space="preserve" x="49.0263" y="273.404" fill="black" font-size="10.4952" font-family="Helvetica">1</text>
<path d="M63.9961,259.228h -6.80315" fill="none" stroke="black"/>
<path d="M63.9961,253.109h -6.80315" fill="none" stroke="black"/>
<path d="M63.9961,248.767h -6.80315" fill="none" stroke="black"/>
<path d="M63.9961,245.399h -6.80315" fill="none" stroke="black"/>
<path d="M63.9961,242.647h -6.80315" fill="none" stroke="black"/>
<path d="M63.9961,240.321h -6.80315" fill="none" stroke="black"/>
<path d="M63.9961,238.306h -6.80315" fill="none" stroke="black"/>
<path d="M63.9961,236.528h -6.80315" fill="none" stroke="black"/>
<path d="M70.7992,234.938h -13.6063" fill="none" stroke="black"/>
<text xml:space="preserve" x="41.629" y="238.489" fill="black" font-size="10.4952" font-family="Helvetica">10</text>
<path d="M63.9961,224.477h -6.80315" fill="none" stroke="black"/>
<path d="M63.9961,218.357h -6.80315" fill="none" stroke="black"/>
<path d="M63.9961,214.015h -6.80315" fill="none" stroke="black"/>
<path d="M63.9961,210.648h -6.80315" fill="none" stroke="black"/>
<path d="M63.9961,207.896h -6.80315" fill="none" stroke="black"/>
<path d="M63.9961,205.57h -6.80315" fill="none" stroke="black"/>
<path d="M63.9961,203.554h -6.80315" fill="none" stroke="black"/>
<path d="M63.9961,201.777h -6.80315" fill="none" stroke="black"/>
<path d="M70.7992,200.187h -13.6063" fill="none" stroke="black"/>
<text xml:space="preserve" x="49.0263" y="200.319" fill="black" font-size="7.16345" font-family="Helvetica">2</text>
<text xml:space="preserve" x="38.0783" y="204.757" fill="black" font-size="10.4952" font-family="Helvetica">10</text>
<path d="M63.9961,189.725h -6.80315" fill="none" stroke="black"/>
<path d="M63.9961,183.606h -6.80315" fill="none" stroke="black"/>
<path d="M63.9961,179.264h -6.80315" fill="none" stroke="black"/>
<path d="M63.9961,175.896h -6.80315" fill="none" stroke="black"/>
<path d="M63.9961,173.145h -6.80315" fill="none" stroke="black"/>
<path d="M63.9961,170.818h -6.80315" fill="none" stroke="black"/>
<path d="M63.9961,168.803h -6.80315" fill="none" stroke="black"/>
<path d="M63.9961,167.025h -6.80315" fill="none" stroke="black"/>
<path d="M70.7992,165.435h -13.6063" fill="none" stroke="black"/>
<text xml:space="preserve" x="49.0263" y="165.404" fill="black" font-size="7.16345" font-family="Helvetica">3</text>
<text xml:space="preserve" x="38.0783" y="170.138" fill="black" font-size="10.4952" font-family="Helvetica">10</text>
<path d="M63.9961,154.974h -6.80315" fill="none" stroke="black"/>
<path d="M63.9961,148.854h -6.80315" fill="none" stroke="black"/>
<path d="M63.9961,144.513h -6.80315" fill="none" stroke="black"/>
<path d="M63.9961,141.145h -6.80315" fill="none" stroke="black"/>
<path d="M63.9961,138.393h -6.80315" fill="none" stroke="black"/>
<path d="M63.9961,136.067h -6.80315" fill="none" stroke="black"/>
<path d="M63.9961,134.051h -6.80315" fill="none" stroke="black"/>
<path d="M63.9961,132.274h -6.80315" fill="none" stroke="black"/>
<path d="M70.7992,130.684h -13.6063" fill="none" stroke="black"/>
<text xml:space="preserve" x="49.0263" y="130.784" fill="black" font-size="7.16345" font-family="Helvetica">4</text>
<text xml:space="preserve" x="38.0783" y="135.223" fill="black" font-size="10.4952" font-family="Helvetica">10</text>
<path d="M63.9961,120.222h -6.80315" fill="none" stroke="black"/>
<path d="M63.9961,114.103h -6.80315" fill="none" stroke="black"/>
<path d="M63.9961,109.761h -6.80315" fill="none" stroke="black"/>
<path d="M63.9961,106.394h -6.80315" fill="none" stroke="black"/>
<path d="M63.9961,103.642h -6.80315" fill="none" stroke="black"/>
<path d="M63.9961,101.315h -6.80315" fill="none" stroke="black"/>
<path d="M63.9961,99.3001h -6.80315" fill="none" stroke="black"/>
<path d="M63.9961,97.5224h -6.80315" fill="none" stroke="black"/>
<path d="M70.7992,95.9323h -13.6063" fill="none" stroke="black"/>
<text xml:space="preserve" x="49.0263" y="95.869" fill="black" font-size="7.16345" font-family="Helvetica">5</text>
<text xml:space="preserve" x="38.0783" y="100.603" fill="black" font-size="10.4952" font-family="Helvetica">10</text>
<path d="M63.9961,85.4711h -6.80315" fill="none" stroke="black"/>
<path d="M63.9961,79.3517h -6.80315" fill="none" stroke="black"/>
<path d="M63.9961,75.0099h -6.80315" fill="none" stroke="black"/>
<path d="M63.9961,71.6421h -6.80315" fill="none" stroke="black"/>
<path d="M63.9961,68.8904h -6.80315" fill="none" stroke="black"/>
<path d="M63.9961,66.564h -6.80315" fill="none" stroke="black"/>
<path d="M63.9961,64.5487h -6.80315" fill="none" stroke="black"/>
<path d="M63.9961,62.771h -6.80315" fill="none" stroke="black"/>
<path d="M70.7992,61.1809h -13.6063" fill="none" stroke="black"/>
<text xml:space="preserve" x="49.0263" y="60.9538" fill="black" font-size="7.16345" font-family="Helvetica">6</text>
<text xml:space="preserve" x="38.0783" y="65.688" fill="black" font-size="10.4952" font-family="Helvetica">10</text>
<path d="M63.9961,50.7197h -6.80315" fill="none" stroke="black"/>
<path d="M63.9961,44.6003h -6.80315" fill="none" stroke="black"/>
<path d="M63.9961,40.2585h -6.80315" fill="none" stroke="black"/>
<path d="M63.9961,36.8907h -6.80315" fill="none" stroke="black"/>
<path d="M63.9961,34.139h -6.80315" fill="none" stroke="black"/>
<path d="M63.9961,31.8126h -6.80315" fill="none" stroke="black"/>
<g transform="rotate(-90,26.5385,191.442)">
<text xml:space="preserve" x="26.5385" y="191.442" fill="black" font-size="10.4952" font-family="Helvetica">Counts/Channel</text>
</g>
<text xml:space="preserve" x="404.097" y="60.9538" fill="black" font-size="14.7788" font-family="Helvetica" font-weight="bold"> = 2.4879 MeV</text>
<text xml:space="preserve" x="398.179" y="64.2086" fill="black" font-size="10.0192" font-family="Helvetica" font-weight="bold">p</text>
<text xml:space="preserve" x="389.006" y="60.9538" fill="black" font-size="14.7788" font-family="Helvetica" font-weight="bold">E</text>
<path d="M262.163,163.997v 26.1019" fill="none" stroke="black"/>
<path d="M264.454,190.099l -2.29122, 3.9685l -2.29122, -3.9685z" fill="black"/>
<path d="M264.454,190.099l -2.29122, 3.9685l -2.29122, -3.9685h 4.58243z" fill="none" stroke="black"/>
<text xml:space="preserve" x="266.803" y="161.853" fill="black" font-size="10.4952" font-family="Helvetica" font-weight="bold">_1 	1.369 MeV</text>
<text xml:space="preserve" x="260.293" y="161.853" fill="black" font-size="10.4952" font-family="Times">&#0945;</text>
<path d="M184.528,130.684v 30.7829" fill="none" stroke="black"/>
<path d="M186.819,161.467l -2.29122, 3.9685l -2.29122, -3.9685z" fill="black"/>
<path d="M186.819,161.467l -2.29122, 3.9685l -2.29122, -3.9685h 4.58243z" fill="none" stroke="black"/>
<text xml:space="preserve" x="172.117" y="127.825" fill="black" font-size="10.4952" font-family="Helvetica" font-weight="bold"># p_1 	0.844 MeV</text>
<path d="M210.104,148.854v 12.6121" fill="none" stroke="black"/>
<path d="M212.395,161.467l -2.29122, 3.9685l -2.29122, -3.9685z" fill="black"/>
<path d="M212.395,161.467l -2.29122, 3.9685l -2.29122, -3.9685h 4.58243z" fill="none" stroke="black"/>
<text xml:space="preserve" x="197.564" y="144.395" fill="black" font-size="10.4952" font-family="Helvetica" font-weight="bold"># p_2 	1.015 MeV</text>
<path d="M497.634,269.689h 13.0319" fill="none" stroke="black"/>
<path d="M504.15,259.228h 6.51595" fill="none" stroke="black"/>
<path d="M504.15,253.109h 6.51595" fill="none" stroke="black"/>
<path d="M504.15,248.767h 6.51595" fill="none" stroke="black"/>
<path d="M504.15,245.399h 6.51595" fill="none" stroke="black"/>
<path d="M504.15,242.647h 6.51595" fill="none" stroke="black"/>
<path d="M504.15,240.321h 6.51595" fill="none" stroke="black"/>
<path d="M504.15,238.306h 6.51595" fill="none" stroke="black"/>
<path d="M504.15,236.528h 6.51595" fill="none" stroke="black"/>
<path d="M497.634,234.938h 13.0319" fill="none" stroke="black"/>
<path d="M504.15,224.477h 6.51595" fill="none" stroke="black"/>
<path d="M504.15,218.357h 6.51595" fill="none" stroke="black"/>
<path d="M504.15,214.015h 6.51595" fill="none" stroke="black"/>
<path d="M504.15,210.648h 6.51595" fill="none" stroke="black"/>
<path d="M504.15,207.896h 6.51595" fill="none" stroke="black"/>
<path d="M504.15,205.57h 6.51595" fill="none" stroke="black"/>
<path d="M504.15,203.554h 6.51595" fill="none" stroke="black"/>
<path d="M504.15,201.777h 6.51595" fill="none" stroke="black"/>
<path d="M497.634,200.187h 13.0319" fill="none" stroke="black"/>
<path d="M504.15,189.725h 6.51595" fill="none" stroke="black"/>
<path d="M504.15,183.606h 6.51595" fill="none" stroke="black"/>
<path d="M504.15,179.264h 6.51595" fill="none" stroke="black"/>
<path d="M504.15,175.896h 6.51595" fill="none" stroke="black"/>
<path d="M504.15,173.145h 6.51595" fill="none" stroke="black"/>
<path d="M504.15,170.818h 6.51595" fill="none" stroke="black"/>
<path d="M504.15,168.803h 6.51595" fill="none" stroke="black"/>
<path d="M504.15,167.025h 6.51595" fill="none" stroke="black"/>
<path d="M497.634,165.435h 13.0319" fill="none" stroke="black"/>
<path d="M504.15,154.974h 6.51595" fill="none" stroke="black"/>
<path d="M504.15,148.854h 6.51595" fill="none" stroke="black"/>
<path d="M504.15,144.513h 6.51595" fill="none" stroke="black"/>
<path d="M504.15,141.145h 6.51595" fill="none" stroke="black"/>
<path d="M504.15,138.393h 6.51595" fill="none" stroke="black"/>
<path d="M504.15,136.067h 6.51595" fill="none" stroke="black"/>
<path d="M504.15,134.051h 6.51595" fill="none" stroke="black"/>
<path d="M504.15,132.274h 6.51595" fill="none" stroke="black"/>
<path d="M497.634,130.684h 13.0319" fill="none" stroke="black"/>
<path d="M504.15,120.222h 6.51595" fill="none" stroke="black"/>
<path d="M504.15,114.103h 6.51595" fill="none" stroke="black"/>
<path d="M504.15,109.761h 6.51595" fill="none" stroke="black"/>
<path d="M504.15,106.394h 6.51595" fill="none" stroke="black"/>
<path d="M504.15,103.642h 6.51595" fill="none" stroke="black"/>
<path d="M504.15,101.315h 6.51595" fill="none" stroke="black"/>
<path d="M504.15,99.3001h 6.51595" fill="none" stroke="black"/>
<path d="M504.15,97.5224h 6.51595" fill="none" stroke="black"/>
<path d="M497.634,95.9323h 13.0319" fill="none" stroke="black"/>
<path d="M504.15,85.4711h 6.51595" fill="none" stroke="black"/>
<path d="M504.15,79.3517h 6.51595" fill="none" stroke="black"/>
<path d="M504.15,75.0099h 6.51595" fill="none" stroke="black"/>
<path d="M504.15,71.6421h 6.51595" fill="none" stroke="black"/>
<path d="M504.15,68.8904h 6.51595" fill="none" stroke="black"/>
<path d="M504.15,66.564h 6.51595" fill="none" stroke="black"/>
<path d="M504.15,64.5487h 6.51595" fill="none" stroke="black"/>
<path d="M504.15,62.771h 6.51595" fill="none" stroke="black"/>
<path d="M497.634,61.1809h 13.0319" fill="none" stroke="black"/>
<path d="M504.15,50.7197h 6.51595" fill="none" stroke="black"/>
<path d="M504.15,44.6003h 6.51595" fill="none" stroke="black"/>
<path d="M504.15,40.2585h 6.51595" fill="none" stroke="black"/>
<path d="M504.15,36.8907h 6.51595" fill="none" stroke="black"/>
<path d="M504.15,34.139h 6.51595" fill="none" stroke="black"/>
<path d="M504.15,31.8126h 6.51595" fill="none" stroke="black"/>
<path d="M57.1929,38.6487v -7.46952" fill="none" stroke="black"/>
<path d="M75.3318,38.6487v -7.46952" fill="none" stroke="black"/>
<path d="M93.4707,38.6487v -7.46952" fill="none" stroke="black"/>
<path d="M111.61,38.6487v -7.46952" fill="none" stroke="black"/>
<path d="M129.749,38.6487v -7.46952" fill="none" stroke="black"/>
<path d="M147.887,38.6487v -7.46952" fill="none" stroke="black"/>
<path d="M166.026,38.6487v -7.46952" fill="none" stroke="black"/>
<path d="M184.165,38.6487v -7.46952" fill="none" stroke="black"/>
<path d="M202.304,38.6487v -7.46952" fill="none" stroke="black"/>
<path d="M220.443,38.6487v -7.46952" fill="none" stroke="black"/>
<path d="M238.582,38.6487v -7.46952" fill="none" stroke="black"/>
<path d="M256.721,38.6487v -7.46952" fill="none" stroke="black"/>
<path d="M274.86,38.6487v -7.46952" fill="none" stroke="black"/>
<path d="M292.999,38.6487v -7.46952" fill="none" stroke="black"/>
<path d="M311.138,38.6487v -7.46952" fill="none" stroke="black"/>
<path d="M329.277,38.6487v -7.46952" fill="none" stroke="black"/>
<path d="M347.415,38.6487v -7.46952" fill="none" stroke="black"/>
<path d="M365.554,38.6487v -7.46952" fill="none" stroke="black"/>
<path d="M383.693,38.6487v -7.46952" fill="none" stroke="black"/>
<path d="M401.832,38.6487v -7.46952" fill="none" stroke="black"/>
<path d="M419.971,38.6487v -7.46952" fill="none" stroke="black"/>
<path d="M438.11,38.6487v -7.46952" fill="none" stroke="black"/>
<path d="M456.249,38.6487v -7.46952" fill="none" stroke="black"/>
<path d="M474.388,38.6487v -7.46952" fill="none" stroke="black"/>
<path d="M492.527,38.6487v -7.46952" fill="none" stroke="black"/>
<path d="M510.666,38.6487v -7.46952" fill="none" stroke="black"/></svg>
