<?xml version="1.0" standalone="no"?>
<svg width="567.429" height="311.778" viewBox="0 0 567.429 311.778" xmlns="http://www.w3.org/2000/svg" shape-rendering="crispEdges">
<title>
Yields/P1/det-5/run_0103_Fit.svg
</title>
<desc>
Creator: ROOT Version 6.12/06
CreationDate: Mon Apr 15 10:29:02 2019</desc>
<defs>
</defs>
<rect x="0.5" y="0" width="566.929" height="311.278" fill="white"/>
<rect x="57.1929" y="31.1278" width="453.543" height="249.023" fill="white"/>
<rect x="57.1929" y="31.1278" width="453.543" height="249.023" fill="none" stroke="black"/>
<rect x="57.1929" y="31.1278" width="453.543" height="249.023" fill="white"/>
<rect x="57.1929" y="31.1278" width="453.543" height="249.023" fill="none" stroke="black"/>
<path d="M57.1929,40.7935h 0.181345v 239.357h 19.7666v -10.4834h 0.181345v 10.4834h 0.181345v -10.4834h 0.181345v 10.4834h 0.181345v -10.4834h 0.181345v 10.4834h 4.89631v -10.4834h 0.181345v 10.4834h 1.45076v -10.4834h 0.181345v 10.4834h 1.45076v
 -10.4834h 0.181345v 10.4834h 0.544034v -20.9668h 0.181345v 20.9668h 0.725379v -10.4834h 0.181345v -24.3417h 0.181345v -8.88988h 0.181345v -9.6189h 0.181345v -16.6158h 0.181345v -14.7228h 0.181345v -6.39156h 0.181345v -7.08093h 0.181345v -5.03629h
 0.181345v -2.56961h 0.181345v -2.05082h 0.181345v -0.641662h 0.181345v -1.46264h 0.181345v 0.212723h 0.181345v -1.35165h 0.181345v -1.04086h 0.181345v 0.596845h 0.181345v -2.59812h 0.181345v 0.455391h 0.181345v 0.486571h 0.181345v -0.89382h
 0.181345v -1.01022h 0.181345v -0.0749844h 0.181345v -0.701544h 0.181345v 0.79157h 0.181345v -0.705636h 0.181345v 0.216996h 0.181345v -1.31113h 0.181345v 0.725231h 0.181345v 0.397658h 0.181345v -0.114687h 0.181345v -0.491777h 0.181345v 0.124938h
 0.181345v 0.125978h 0.181345v -0.686963h 0.181345v -0.213398h 0.181345v 1.19846h 0.181345v -0.213524h 0.181345v -0.663697h 0.181345v -0.570797h 0.181345v 0.570797h 0.181345v -0.439963h 0.181345v 0.039472h 0.181345v 0.714881h 0.181345v -0.569262h
 0.181345v 0.0934015h 0.181345v 0.134439h 0.181345v -0.0269836h 0.181345v -0.0403854h 0.181345v 0.46414h 0.181345v -0.261126h 0.181345v 0.302772h 0.181345v 0.422889h 0.181345v -1.06252h 0.181345v 0.133845h 0.181345v 0.88585h 0.181345v 0.89554h
 0.181345v 0.0910193h 0.181345v -0.785664h 0.181345v 0.454571h 0.181345v 0.622989h 0.181345v -0.917819h 0.181345v -0.0582827h 0.181345v 0.57807h 0.181345v -0.534379h 0.181345v -0.544306h 0.181345v -1.34527h 0.181345v -1.91949h 0.181345v -1.95424h
 0.181345v -2.1164h 0.181345v -4.27937h 0.181345v -2.36403h 0.181345v -3.2662h 0.181345v -3.49141h 0.181345v -2.40522h 0.181345v -1.94399h 0.181345v -2.05335h 0.181345v -1.11114h 0.181345v -1.02289h 0.181345v -0.197733h 0.181345v 0.714183h 0.181345v
 0.87821h 0.181345v 1.61555h 0.181345v 2.01143h 0.181345v 2.69816h 0.181345v 3.73008h 0.181345v 3.31224h 0.181345v 4.45557h 0.181345v 3.46563h 0.181345v 5.37368h 0.181345v 1.73117h 0.181345v 4.06739h 0.181345v 2.91065h 0.181345v 1.65778h 0.181345v
 2.18612h 0.181345v -0.69817h 0.181345v 0.315999h 0.181345v 0.441833h 0.181345v 0.485964h 0.181345v 1.22088h 0.181345v -0.330961h 0.181345v 0.431679h 0.181345v -0.46438h 0.181345v -0.0651912h 0.181345v 2.66023h 0.181345v -2.33143h 0.181345v 0.819577h
 0.181345v -0.885912h 0.36269v -0.930528h 0.181345v 0.219424h 0.181345v 1.31886h 0.181345v -0.30693h 0.181345v 0.761569h 0.181345v -0.591821h 0.181345v 0.520981h 0.181345v -0.140692h 0.181345v 1.27784h 0.181345v -1.03077h 0.181345v 0.543448h
 0.181345v -0.256041h 0.181345v -0.743099h 0.181345v 1.79434h 0.181345v -0.795204h 0.181345v 0.795204h 0.181345v 0.963147h 0.181345v -0.648864h 0.181345v -0.118623h 0.181345v 0.726107h 0.181345v -0.487924h 0.181345v -0.550036h 0.181345v 1.33003h
 0.181345v 0.340844h 0.181345v -0.63291h 0.181345v 1.11448h 0.181345v -0.132865h 0.181345v -0.434637h 0.181345v 1.39018h 0.181345v -0.643686h 0.181345v -0.530733h 0.181345v 0.21888h 0.181345v -0.131708h 0.181345v -0.345714h 0.181345v 2.15445h
 0.181345v -1.13842h 0.181345v -0.361195h 0.181345v 1.64813h 0.181345v -1.5137h 0.181345v 0.04508h 0.181345v 0.181676h 0.181345v 1.13842h 0.181345v -1.32009h 0.181345v -0.090026h 0.181345v 0.641735h 0.181345v 1.62997h 0.181345v -1.34638h 0.181345v
 0.534141h 0.181345v -0.147556h 0.181345v 1.22283h 0.181345v -1.32041h 0.181345v 1.16204h 0.181345v 0.480178h 0.181345v -0.161759h 0.181345v -1.8171h 0.181345v -0.0948237h 0.181345v 1.28165h 0.181345v 0.792031h 0.181345v -0.945579h 0.181345v 1.27438h
 0.181345v -0.219994h 0.181345v -1.65345h 0.181345v 0.855848h 0.181345v -0.0517072h 0.181345v 0.7405h 0.181345v -0.215297h 0.181345v -0.679272h 0.181345v 0.519788h 0.181345v 0.159485h 0.181345v 0.544099h 0.181345v -0.913648h 0.181345v 0.157273h
 0.181345v -0.209337h 0.181345v 0.745717h 0.181345v 0.331203h 0.181345v -1.98465h 0.181345v 0.650071h 0.181345v -0.403339h 0.181345v -1.14924h 0.181345v -0.764245h 0.181345v 0.996574h 0.181345v -2.29794h 0.181345v -0.783819h 0.181345v -0.189768h
 0.181345v -1.19608h 0.181345v 0.459957h 0.181345v 0.363583h 0.181345v -0.57761h 0.181345v 0.286048h 0.181345v -0.462119h 0.181345v 1.74205h 0.181345v -1.13486h 0.181345v 1.37242h 0.181345v 2.18581h 0.181345v 0.468283h 0.181345v -0.514324h 0.181345v
 0.609746h 0.181345v 1.29859h 0.181345v 2.79927h 0.181345v -0.972179h 0.181345v -0.291422h 0.181345v 2.7806h 0.181345v -1.32755h 0.181345v -0.126564h 0.36269v -0.677782h 0.181345v 2.34147h 0.181345v -1.28078h 0.181345v 0.195155h 0.181345v -0.640957h
 0.181345v 1.65639h 0.181345v -1.59351h 0.181345v 0.842257h 0.181345v 0.201214h 0.181345v -2.01957h 0.181345v 2.49975h 0.181345v -0.276251h 0.181345v -2.3412h 0.181345v 0.355883h 0.181345v 0.487924h 0.181345v 1.36114h 0.181345v 0.273751h 0.181345v
 0.562831h 0.181345v -1.75748h 0.181345v 0.785856h 0.181345v -0.785856h 0.181345v 0.0639508h 0.181345v 0.856945h 0.181345v -0.20211h 0.181345v 0.134439h 0.181345v 0.203927h 0.181345v 0.628816h 0.181345v -2.12621h 0.181345v -0.245929h 0.181345v
 2.58769h 0.181345v -2.27965h 0.181345v 0.506301h 0.181345v 1.34527h 0.181345v -1.97554h 0.181345v 0.630272h 0.181345v -0.753234h 0.181345v -1.23412h 0.181345v -0.056329h 0.181345v -0.497738h 0.181345v 1.3061h 0.181345v -0.118159h 0.181345v -1.13344h
 0.181345v 1.61172h 0.181345v -2.56391h 0.181345v 0.735355h 0.181345v 1.40924h 0.181345v -1.72878h 0.181345v 2.83145h 0.181345v -0.314446h 0.181345v 1.43528h 0.181345v -1.49739h 0.181345v 0.249995h 0.181345v 0.909032h 0.181345v -0.0667742h 0.181345v
 1.17732h 0.181345v 0.512738h 0.181345v -1.00866h 0.181345v -0.879963h 0.181345v 0.132091h 0.181345v 3.4081h 0.181345v -3.20778h 0.181345v 1.8572h 0.181345v -1.0991h 0.181345v -0.958423h 0.181345v 2.52055h 0.181345v -1.63264h 0.181345v -0.416292h
 0.181345v 0.916907h 0.181345v 0.219728h 0.181345v 0.912296h 0.181345v -0.689329h 0.181345v -1.01349h 0.181345v -0.949822h 0.181345v 1.44808h 0.181345v -0.0721926h 0.181345v 1.04347h 0.181345v -0.380986h 0.181345v -2.29914h 0.181345v 1.4933h
 0.181345v 1.73687h 0.181345v -0.550036h 0.181345v 0.155123h 0.181345v -0.685855h 0.181345v -1.48884h 0.181345v 1.9426h 0.181345v -1.80696h 0.181345v 1.73038h 0.181345v -1.24581h 0.181345v 0.355883h 0.181345v 0.144732h 0.181345v -3.54841h 0.181345v
 3.1183h 0.181345v 1.02329h 0.181345v -0.373459h 0.181345v 0.679012h 0.181345v 1.37221h 0.181345v -2.27095h 0.181345v -0.144732h 0.181345v -2.08246h 0.181345v 3.12593h 0.181345v 0.470224h 0.181345v -0.775777h 0.181345v -1.3726h 0.181345v 1.29717h
 0.181345v -2.80757h 0.181345v 3.98059h 0.181345v -3.34234h 0.181345v 1.50683h 0.181345v -1.70115h 0.181345v 0.99757h 0.181345v -1.25284h 0.181345v 3.31175h 0.181345v -1.1377h 0.181345v 0.672303h 0.181345v -0.889923h 0.181345v -0.285373h 0.181345v
 -1.79709h 0.181345v 1.517h 0.181345v -2.25193h 0.181345v 1.05201h 0.181345v -1.11168h 0.181345v 0.857479h 0.181345v 1.45411h 0.181345v -1.517h 0.181345v 0.772474h 0.181345v -1.20551h 0.181345v 1.5394h 0.181345v 1.34056h 0.181345v -0.860383h
 0.181345v 1.08335h 0.181345v -1.89741h 0.181345v 0.675305h 0.181345v 1.44841h 0.181345v -1.30965h 0.181345v 1.08335h 0.181345v -1.29101h 0.181345v 1.29101h 0.181345v -1.15289h 0.181345v 0.565461h 0.181345v 2.08143h 0.181345v -2.22479h 0.181345v
 1.65706h 0.181345v 1.41764h 0.181345v -2.71372h 0.181345v 1.21668h 0.181345v -0.4678h 0.181345v 0.868999h 0.181345v -1.47104h 0.181345v 1.14924h 0.181345v 0.817731h 0.181345v 0.864483h 0.181345v -2.15244h 0.181345v 1.71402h 0.181345v -0.509857h
 0.181345v 2.34536h 0.181345v -4.59299h 0.181345v 3.55603h 0.181345v -1.55702h 0.181345v 0.416675h 0.181345v 1.23173h 0.181345v -2.05391h 0.181345v 1.6024h 0.181345v -0.695494h 0.181345v 0.695494h 0.181345v -1.4415h 0.181345v 1.80162h 0.181345v
 2.15029h 0.181345v -1.49868h 0.181345v 1.71022h 0.181345v -2.81065h 0.181345v 0.177935h 0.181345v -0.953712h 0.181345v 2.96051h 0.181345v -1.17912h 0.181345v -0.737919h 0.181345v 0.456963h 0.181345v 1.87446h 0.181345v -1.78139h 0.181345v 1.06349h
 0.181345v 0.7179h 0.181345v -1.01544h 0.181345v -0.672303h 0.181345v 2.66384h 0.181345v -3.75109h 0.181345v 2.15758h 0.181345v 0.935824h 0.181345v 0.325267h 0.181345v 0.109996h 0.181345v -0.109996h 0.181345v -2.33143h 0.181345v 2.55222h 0.181345v
 -0.546064h 0.181345v -0.318419h 0.36269v -1.21059h 0.181345v 0.593187h 0.36269v 3.24938h 0.181345v 1.16898h 0.181345v -4.61869h 0.181345v 2.01957h 0.181345v -1.71808h 0.181345v -0.597091h 0.181345v 1.11333h 0.181345v 2.5075h 0.181345v -3.91076h
 0.181345v 1.09141h 0.181345v 0.207186h 0.181345v 0.96915h 0.181345v -0.96915h 0.181345v -0.103948h 0.181345v -1.19465h 0.181345v 0.289932h 0.181345v 1.43175h 0.181345v -0.106886h 0.181345v 1.92855h 0.181345v -1.82167h 0.181345v -0.630272h 0.181345v
 2.33143h 0.181345v 0.487924h 0.181345v -1.86381h 0.181345v 1.86381h 0.181345v -0.367411h 0.181345v -3.73359h 0.181345v 1.59351h 0.181345v 1.431h 0.181345v 1.97017h 0.181345v -2.31263h 0.36269v 3.97937h 0.181345v -4.74951h 0.181345v -0.318419h
 0.181345v -0.208615h 0.181345v 0.8523h 0.181345v 1.25633h 0.181345v -1.58159h 0.181345v 2.18908h 0.181345v -2.5075h 0.181345v 0.426066h 0.181345v 1.95797h 0.181345v -2.27864h 0.181345v 0.538289h 0.181345v 0.332416h 0.181345v -1.08077h 0.181345v
 1.76836h 0.181345v -0.116791h 0.181345v 1.98637h 0.181345v -4.45018h 0.181345v 2.46381h 0.181345v -0.458348h 0.181345v 0.113291h 0.181345v 0.579547h 0.181345v -1.56986h 0.181345v 1.56986h 0.181345v -0.579547h 0.181345v -1.09645h 0.181345v 0.320669h
 0.181345v 0.889923h 0.181345v -3.09738h 0.181345v 1.16398h 0.181345v -0.689828h 0.181345v 1.51877h 0.181345v -1.89927h 0.181345v 0.284479h 0.181345v 0.585531h 0.181345v -0.963659h 0.181345v -0.185577h 0.181345v -0.454218h 0.181345v -1.92981h
 0.181345v 0.808981h 0.181345v 0.67986h 0.181345v -0.927129h 0.181345v -1.25455h 0.181345v 0.931022h 0.181345v -0.931022h 0.181345v 0.458348h 0.181345v -1.40621h 0.181345v 0.142014h 0.181345v -0.0711735h 0.181345v -1.48662h 0.181345v 2.28858h
 0.181345v -1.15289h 0.181345v -0.34297h 0.181345v -0.728227h 0.181345v 2.1494h 0.181345v 0.300992h 0.36269v -1.0991h 0.181345v 1.95912h 0.181345v -0.935824h 0.181345v 2.01957h 0.181345v -0.341807h 0.181345v -1.90295h 0.181345v -0.440546h 0.181345v
 0.741537h 0.181345v -1.65419h 0.181345v 2.03905h 0.181345v -0.907732h 0.181345v -0.218669h 0.181345v 0.0725389h 0.181345v -1.05316h 0.181345v 0.693898h 0.181345v -1.74189h 0.181345v -0.0631497h 0.181345v -0.617405h 0.181345v -1.92855h 0.181345v
 -2.27044h 0.181345v -0.584371h 0.181345v -0.773572h 0.181345v -2.50401h 0.181345v 0.395665h 0.181345v -2.26359h 0.181345v -1.08942h 0.181345v -1.09788h 0.181345v -1.64501h 0.181345v -0.759938h 0.181345v -0.523543h 0.181345v -0.419228h 0.181345v
 -1.05072h 0.181345v -0.616593h 0.181345v 0.196168h 0.181345v -1.15886h 0.181345v 0.407789h 0.181345v -0.733445h 0.181345v 0.808784h 0.181345v 0.266683h 0.181345v 0.627819h 0.181345v 0.993473h 0.181345v -0.338461h 0.181345v 1.9629h 0.181345v 0.48402h
 0.181345v 1.88318h 0.181345v 1.1874h 0.181345v 2.16662h 0.181345v 0.784929h 0.181345v 0.483722h 0.181345v 3.23377h 0.181345v 1.16773h 0.181345v 1.8829h 0.181345v 0.763721h 0.181345v 2.34147h 0.181345v 1.16961h 0.181345v 0.463026h 0.181345v 1.05467h
 0.181345v 1.13377h 0.181345v -0.0902948h 0.181345v 3.08511h 0.181345v -2.25236h 0.181345v 3.3987h 0.181345v 1.24039h 0.181345v -2.05186h 0.181345v 3.26245h 0.181345v -3.81651h 0.181345v 1.36553h 0.181345v -0.584024h 0.181345v 2.08519h 0.181345v
 -0.7692h 0.181345v -1.08508h 0.181345v 0.714668h 0.181345v -1.28547h 0.181345v 3.09738h 0.544034v -0.406957h 0.181345v 0.684476h 0.181345v -0.949822h 0.181345v -0.517121h 0.181345v 1.18942h 0.181345v -1.31599h 0.181345v 2.9095h 0.181345v -2.39676h
 0.181345v -0.512738h 0.181345v -0.125514h 0.181345v 4.8164h 0.181345v -4.56432h 0.181345v 1.32755h 0.181345v 1.00388h 0.181345v -2.70798h 0.181345v 0.504191h 0.181345v 1.06179h 0.181345v -1.31599h 0.181345v 1.17912h 0.181345v 1.13132h 0.181345v
 -0.290861h 0.181345v -1.89301h 0.181345v 1.89301h 0.181345v 0.438417h 0.181345v 1.56059h 0.181345v 0.845155h 0.181345v -4.73717h 0.181345v 1.74965h 0.181345v -0.560224h 0.181345v -1.31599h 0.181345v 4.18388h 0.181345v -0.490562h 0.181345v -1.8171h
 0.181345v -1.74965h 0.181345v 3.4067h 0.181345v -1.36896h 0.181345v -0.288091h 0.181345v 1.8171h 0.181345v -0.935824h 0.181345v 0.305552h 0.181345v 0.470224h 0.181345v -1.5137h 0.181345v -2.39303h 0.181345v 4.55734h 0.181345v 3.12763h 0.181345v
 -9.53451h 0.181345v 6.91389h 0.181345v 0.524596h 0.181345v -1.1969h 0.181345v 0.165295h 0.181345v -0.490562h 0.181345v -2.5142h 0.181345v -1.05255h 0.181345v 2.93648h 0.181345v -0.456045h 0.181345v 1.41158h 0.181345v 0.332416h 0.181345v 0.168989h
 0.181345v -0.33611h 0.181345v 1.0316h 0.181345v -1.36041h 0.181345v -0.945579h 0.181345v -0.302497h 0.181345v 1.08632h 0.181345v -1.23533h 0.181345v -0.581777h 0.181345v 2.64377h 0.181345v -1.91299h 0.181345v 1.91299h 0.181345v -1.61049h 0.36269v
 -0.889923h 0.181345v 2.33143h 0.181345v -0.976102h 0.181345v -1.06446h 0.181345v -3.16791h 0.181345v 5.54837h 0.181345v -6.01737h 0.181345v 0.350386h 0.181345v -1.46297h 0.181345v -0.527034h 0.181345v -1.29007h 0.181345v -1.62202h 0.181345v -1.2303h
 0.181345v -0.842586h 0.181345v -2.27811h 0.181345v -1.05201h 0.181345v -2.77741h 0.181345v -0.295599h 0.181345v -1.57398h 0.181345v -0.854709h 0.181345v -2.37884h 0.181345v -1.09545h 0.181345v -3.04101h 0.181345v 0.889923h 0.181345v -1.42066h
 0.181345v -0.207186h 0.181345v -1.16303h 0.181345v 0.533285h 0.181345v -0.746141h 0.181345v -0.822674h 0.181345v 0.566521h 0.181345v -0.961663h 0.181345v -0.107954h 0.181345v -0.340365h 0.181345v 1.61924h 0.181345v -0.0467522h 0.181345v -0.594982h
 0.181345v 1.50897h 0.181345v 1.95595h 0.181345v 0.25611h 0.181345v 1.10098h 0.181345v 0.824591h 0.181345v 1.76103h 0.181345v 1.78597h 0.181345v 2.16747h 0.181345v 1.39402h 0.181345v 3.44023h 0.181345v 0.264187h 0.181345v 1.69005h 0.181345v 1.32276h
 0.181345v 3.05309h 0.181345v 0.505878h 0.181345v 3.06934h 0.181345v 0.382915h 0.181345v 3.63567h 0.181345v 1.37589h 0.181345v 2.97511h 0.36269v -2.42508h 0.36269v 6.41509h 0.181345v -1.36347h 0.181345v 1.08077h 0.181345v -1.08077h 0.181345v 2.24475h
 0.181345v 0.305552h 0.181345v 0.630272h 0.181345v -0.935824h 0.181345v -2.75749h 0.181345v 5.75893h 0.181345v -1.74035h 0.181345v 1.02h 0.181345v -1.02h 0.181345v 2.49672h 0.181345v -3.14041h 0.181345v -1.21059h 0.181345v 3.96808h 0.181345v 2.01957h
 0.181345v -5.69397h 0.181345v -0.864483h 0.181345v 3.44508h 0.181345v -0.347701h 0.181345v -2.52658h 0.181345v -0.570797h 0.181345v 0.282706h 0.181345v 2.14237h 0.181345v -2.14237h 0.181345v -0.282706h 0.181345v 2.75749h 0.181345v -3.57522h
 0.181345v -0.263038h 0.181345v 3.83826h 0.181345v -3.03501h 0.181345v 0.848316h 0.181345v -2.4143h 0.181345v 3.94331h 0.181345v 0.325267h 0.181345v -1.85428h 0.181345v -0.570797h 0.181345v 0.864483h 0.181345v -1.94525h 0.181345v -0.762733h 0.181345v
 1.29347h 0.181345v -0.530733h 0.181345v 0.803251h 0.181345v -0.272518h 0.181345v 0.272518h 0.181345v -0.272518h 0.181345v 1.41452h 0.181345v -1.94525h 0.181345v 1.08077h 0.181345v 1.16398h 0.181345v -3.00749h 0.181345v -4.101h 0.181345v 5.66699h
 0.181345v -0.272518h 0.181345v -1.78139h 0.181345v 6.49685h 0.181345v -3.88272h 0.181345v -3.31772h 0.181345v 2.48497h 0.181345v 1.12083h 0.181345v -1.91011h 0.181345v 1.91011h 0.181345v -2.4143h 0.181345v 2.4143h 0.181345v -2.1643h 0.181345v
 -1.4415h 0.181345v 0.465401h 0.181345v 2.01957h 0.181345v 0.832742h 0.181345v -1.10044h 0.181345v 1.10044h 0.181345v 0.881278h 0.181345v 0.305552h 0.181345v -1.18683h 0.181345v 0.581777h 0.181345v -0.293686h 0.36269v 0.293686h 0.181345v -0.864483h
 0.181345v 0.282706h 0.181345v 1.18683h 0.181345v -1.18683h 0.181345v 1.49868h 0.181345v 1.66369h 0.181345v -2.87428h 0.181345v -1.12083h 0.181345v 0.272518h 0.181345v -0.803251h 0.181345v 2.86216h 0.181345v -0.617405h 0.181345v -3.00749h 0.181345v
 4.60099h 0.181345v 2.1643h 0.181345v -5.19931h 0.181345v -3.86195h 0.181345v 7.58455h 0.181345v -5.28858h 0.181345v -0.245929h 0.181345v 2.37214h 0.181345v 0.581777h 0.181345v -0.581777h 0.181345v 2.47479h 0.181345v -4.0968h 0.181345v 4.0968h
 0.181345v -0.332416h 0.181345v 1.74035h 0.181345v -4.16542h 0.181345v -1.59351h 0.181345v 0.512738h 0.181345v 1.36347h 0.181345v -0.282706h 0.181345v 2.75749h 0.181345v -6.24401h 0.181345v 5.26791h 0.181345v 2.01957h 0.181345v -4.88173h 0.181345v
 2.55031h 0.181345v -0.898739h 0.181345v 2.18669h 0.181345v 3.3749h 0.181345v -4.9684h 0.181345v 0.617405h 0.36269v -1.49868h 0.181345v 0.881278h 0.181345v 2.2811h 0.181345v -0.347701h 0.181345v -3.3749h 0.181345v 3.03501h 0.181345v 5.15629h
 0.181345v -9.75728h 0.181345v 0.762733h 0.181345v 2.86216h 0.181345v 1.66369h 0.181345v 0.355883h 0.181345v 3.64741h 0.181345v -4.69089h 0.181345v 2.96051h 0.181345v -5.99552h 0.181345v 2.70259h 0.181345v -1.26109h 0.36269v 3.75781h 0.181345v
 0.392862h 0.181345v -0.775777h 0.181345v 0.382915h 0.181345v 2.99198h 0.181345v -7.63107h 0.181345v 2.14237h 0.181345v 5.0233h 0.181345v -5.34857h 0.181345v 0.325267h 0.36269v 11.8593h 0.181345v -6.83597h 0.181345v -2.52658h 0.181345v -0.756374h
 0.181345v 2.83145h 0.181345v -0.438417h 0.181345v -2.39303h 0.181345v 1.55258h 0.181345v 0.840457h 0.181345v -1.63666h 0.181345v 2.99198h 0.181345v -1.35532h 0.181345v 0.438417h 0.181345v 2.40575h 0.181345v -1.95424h 0.181345v 1.4415h 0.181345v
 0.512738h 0.181345v 0.530733h 0.181345v -3.3749h 0.181345v 4.49573h 0.181345v -4.05731h 0.181345v 7.28748h 0.181345v -8.56635h 0.181345v 3.17188h 0.181345v 7.7259h 0.181345v -7.7259h 0.181345v 6.13239h 0.181345v -4.53888h 0.181345v 2.42508h
 0.181345v -4.51451h 0.181345v 1.5394h 0.181345v 1.71402h 0.544034v -1.16398h 0.181345v 1.78139h 0.181345v 6.13239h 0.181345v -6.74979h 0.181345v 1.93339h 0.181345v 6.83597h 0.181345v -5.39447h 0.181345v -1.4415h 0.181345v -2.52658h 0.181345v
 3.23017h 0.181345v 9.7798h 0.181345v -10.4834h 0.181345v -1.31599h 0.181345v 3.53327h 0.181345v -2.21728h 0.181345v 2.21728h 0.181345v 1.68221h 0.36269v -4.5718h 0.181345v 9.8397h 0.181345v -6.13239h 0.181345v 2.75749h 0.181345v -5.7925h 0.181345v
 3.03501h 0.181345v 3.80096h 0.181345v -4.61869h 0.181345v 2.59912h 0.181345v -4.11282h 0.181345v -2.63698h 0.181345v 9.8902h 0.181345v 3.96808h 0.181345v -9.70761h 0.181345v -3.53327h 0.181345v 7.10849h 0.181345v -3.57522h 0.181345v 4.61869h
 0.181345v 2.33143h 0.181345v 10.4834h 0.181345v -11.694h 0.36269v 1.21059h 0.181345v -1.21059h 0.181345v 5.56159h 0.181345v -5.56159h 0.181345v -5.73953h 0.181345v 3.57522h 0.181345v 4.69089h 0.181345v 1.4415h 0.181345v -2.75749h 0.181345v -8.46381h
 0.181345v 4.11282h 0.181345v 10.4834h 0.181345v -10.4834h 0.181345v 3.14041h 0.181345v -2.1643h 0.181345v 1.04347h 0.181345v -4.61869h 0.181345v 6.95012h 0.181345v -5.26791h 0.36269v 5.26791h 0.181345v -18.2093h 0.181345v 10.4834h 0.181345v
 -6.13239h 0.181345v 2.75749h 0.36269v -3.25342h 0.181345v 1.5394h 0.181345v -3.80096h 0.181345v 6.77607h 0.181345v -4.01858h 0.181345v -3.17188h 0.181345v 4.76539h 0.181345v -2.56961h 0.181345v 3.14041h 0.181345v -4.49573h 0.181345v 0.438417h
 0.181345v 4.05731h 0.181345v -2.66023h 0.181345v -6.92442h 0.181345v 5.97884h 0.181345v -5.0233h 0.181345v 8.62911h 0.181345v -7.25322h 0.181345v 3.64741h 0.181345v 4.8164h 0.181345v -5.70632h 0.181345v 11.8387h 0.181345v -8.46381h 0.181345v
 -1.5394h 0.181345v 2.66023h 0.181345v 1.85428h 0.181345v 6.4648h 0.181345v -6.4648h 0.36269v 1.37589h 0.36269v 1.5137h 0.181345v 1.68221h 0.181345v -4.5718h 0.181345v -3.50584h 0.181345v 2.24475h 0.181345v 2.63698h 0.181345v -2.01957h 0.181345v
 -1.21059h 0.36269v -7.95681h 0.181345v 7.95681h 0.181345v -1.65157h 0.181345v -6.64513h 0.181345v -2.75749h 0.181345v -3.48652h 0.181345v 2.14721h 0.36269v -1.6957h 0.181345v 2.48497h 0.181345v -2.71241h 0.181345v -1.50294h 0.181345v -1.367h
 0.181345v -2.88146h 0.181345v 2.15244h 0.181345v -3.89949h 0.181345v 0.994446h 0.181345v -1.26696h 0.181345v -4.11282h 0.181345v -0.102538h 0.181345v -0.988871h 0.181345v 3.18465h 0.181345v -4.20257h 0.181345v 0.639795h 0.181345v -0.185577h
 0.181345v -0.543448h 0.181345v -0.610286h 0.181345v -0.169938h 0.181345v -0.741942h 0.181345v 1.6114h 0.181345v -2.08654h 0.181345v -0.460675h 0.181345v -2.11381h 0.181345v 0.741207h 0.181345v 0.491321h 0.181345v 1.42012h 0.181345v -1.42012h
 0.181345v -0.832742h 0.181345v 0.0676705h 0.181345v -0.792723h 0.181345v 0.860697h 0.181345v -0.988871h 0.181345v -0.44024h 0.181345v -0.547822h 0.181345v -0.11909h 0.36269v -1.46844h 0.181345v 0.548043h 0.181345v 0.684992h 0.181345v 0.656386h
 0.181345v -1.61788h 0.181345v 0.845155h 0.181345v -0.286998h 0.181345v 1.12083h 0.181345v 0.882503h 0.181345v -1.71634h 0.181345v 0.895192h 0.181345v 0.0616063h 0.181345v 0.694768h 0.181345v 0.660556h 0.181345v -0.0673691h 0.181345v 3.3749h
 0.181345v 0.254196h 0.181345v 0.345714h 0.181345v 1.56439h 0.181345v 1.63666h 0.181345v 0.327616h 0.181345v 0.793218h 0.181345v 2.6647h 0.181345v -2.07152h 0.181345v 3.83557h 0.181345v 3.69h 0.181345v -3.99867h 0.181345v 3.99867h 0.181345v 0.817731h
 0.181345v 1.78139h 0.181345v 2.29209h 0.181345v 5.19931h 0.181345v -1.82442h 0.181345v 3.46108h 0.181345v -0.840457h 0.181345v 2.67596h 0.181345v 10.9793h 0.181345v -9.97065h 0.181345v 11.0141h 0.181345v -6.83597h 0.181345v 3.89949h 0.181345v
 0.916907h 0.181345v 8.702h 0.181345v -5.56159h 0.181345v 9.36255h 0.181345v -2.01957h 0.181345v 4.351h 0.181345v 2.75749h 0.181345v -2.75749h 0.181345v -9.1674h 0.181345v 15.2998h 0.181345v 4.351h 0.181345v -16.6158h 0.181345v 22.7482h 0.181345v
 -13.8583h 0.181345v 7.7259h 0.181345v -10.4834h 0.181345v 10.4834h 0.36269v -4.351h 0.544034v -8.46381h 0.181345v 2.33143h 0.181345v 10.4834h 0.181345v -7.7259h 0.181345v -5.08892h 0.181345v 12.8148h 0.181345v -10.4834h 0.181345v 2.75749h 0.181345v
 13.8583h 0.544034v -6.13239h 0.181345v -4.351h 0.181345v 20.9668h 0.181345v -33.2316h 0.181345v 22.7482h 0.181345v -16.6158h 0.181345v 27.0992h 0.36269v -27.0992h 0.36269v 16.6158h 0.181345v -18.9472h 0.181345v 29.4306h 0.181345v -20.9668h 0.36269v
 20.9668h 0.181345v -20.9668h 0.36269v -3.3749h 0.544034v 3.3749h 0.181345v 4.351h 0.181345v 6.13239h 0.181345v -18.9472h 0.181345v 5.08892h 0.181345v 7.7259h 0.181345v 6.13239h 0.181345v -6.13239h 0.181345v -10.4834h 0.181345v 6.13239h 0.181345v
 -3.3749h 0.181345v -8.88988h 0.181345v 3.80096h 0.36269v 2.33143h 0.181345v 6.13239h 0.181345v -6.13239h 0.181345v 6.13239h 0.181345v -12.2648h 0.181345v 3.80096h 0.181345v 2.33143h 0.181345v 6.13239h 0.181345v -12.2648h 0.181345v -3.03501h
 0.181345v 9.1674h 0.181345v -7.7259h 0.181345v 10.4834h 0.181345v -8.88988h 0.181345v -7.7259h 0.181345v 7.7259h 0.181345v -5.56159h 0.181345v -3.14041h 0.181345v 3.14041h 0.181345v 2.52658h 0.181345v -4.69089h 0.181345v -2.75749h 0.181345v 10.4834h
 0.181345v -3.03501h 0.181345v -9.7798h 0.181345v 5.08892h 0.181345v -4.351h 0.181345v 1.59351h 0.36269v 1.78139h 0.181345v -4.8164h 0.36269v 2.21728h 0.181345v 0.817731h 0.181345v -8.702h 0.181345v 6.37057h 0.181345v 1.5137h 0.181345v -6.39543h
 0.181345v 8.07764h 0.181345v 4.05731h 0.181345v -11.0542h 0.181345v 7.91378h 0.181345v -2.59912h 0.36269v 5.73953h 0.181345v -6.5153h 0.181345v 7.7259h 0.181345v -3.3749h 0.181345v 11.5269h 0.181345v -13.4199h 0.181345v 2.93648h 0.181345v 23.2982h
 0.181345v -14.8344h 0.181345v -4.8164h 0.181345v 6.83597h 0.181345v -6.83597h 0.181345v 9.1674h 0.181345v -7.7259h 0.181345v 7.7259h 0.181345v -7.7259h 0.181345v 10.4834h 0.181345v 7.7259h 0.181345v -14.8344h 0.181345v 7.10849h 0.181345v -2.75749h
 0.181345v 10.4834h 0.36269v -7.7259h 0.181345v 13.8583h 0.181345v 10.4834h 0.181345v -16.6158h 0.181345v -4.351h 0.181345v 20.9668h 0.181345v -16.6158h 0.181345v -7.7259h 0.181345v 7.7259h 0.181345v 16.6158h 0.181345v -10.4834h 0.181345v -13.8583h
 0.181345v 13.8583h 0.181345v 20.9668h 0.181345v -27.0992h 0.181345v -12.8148h 0.181345v 12.8148h 0.181345v -12.8148h 0.181345v 18.9472h 0.181345v -6.13239h 0.181345v 16.6158h 0.181345v -20.9668h 0.181345v 10.4834h 0.181345v -13.8583h 0.181345v
 7.7259h 0.181345v 16.6158h 0.181345v -20.9668h 0.181345v 4.351h 0.181345v -4.351h 0.181345v 20.9668h 0.181345v -20.9668h 0.181345v 4.351h 0.36269v 16.6158h 0.181345v -16.6158h 0.36269v -7.7259h 0.181345v 7.7259h 0.181345v -4.351h 0.181345v 10.4834h
 0.36269v -6.13239h 0.181345v -16.6158h 0.181345v 16.6158h 0.36269v -4.351h 0.181345v -10.4834h 0.181345v 14.8344h 0.181345v -7.7259h 0.181345v 3.3749h 0.181345v 10.4834h 0.181345v -13.8583h 0.181345v -5.08892h 0.181345v 5.08892h 0.181345v -7.10849h
 0.181345v 14.8344h 0.181345v -14.8344h 0.181345v 14.8344h 0.181345v -4.351h 0.181345v -6.13239h 0.181345v 10.4834h 0.181345v -18.2093h 0.181345v 13.8583h 0.181345v -3.3749h 0.181345v -7.10849h 0.181345v 7.10849h 0.181345v -2.75749h 0.181345v
 -10.4834h 0.36269v 27.0992h 0.181345v -20.9668h 0.181345v 4.351h 0.36269v 16.6158h 0.181345v -30.4741h 0.181345v 9.50729h 0.181345v -3.3749h 0.181345v 7.7259h 0.181345v 2.75749h 0.36269v -8.88988h 0.181345v 6.13239h 0.181345v 2.75749h 0.36269v
 -7.10849h 0.181345v -3.3749h 0.181345v 5.39447h 0.36269v 2.33143h 0.181345v -6.13239h 0.181345v 6.13239h 0.181345v 10.4834h 0.181345v 6.13239h 0.181345v -20.9668h 0.181345v 10.4834h 0.181345v -12.2648h 0.36269v 43.7149h 0.181345v -46.75h 0.181345v
 25.7832h 0.181345v -13.8583h 0.181345v 3.3749h 0.181345v 4.351h 0.181345v -12.8148h 0.181345v 5.08892h 0.181345v -5.08892h 0.181345v 2.33143h 0.181345v 10.4834h 0.544034v -4.351h 0.181345v -8.46381h 0.181345v 2.33143h 0.36269v -2.33143h 0.36269v
 39.914h 0.181345v -27.0992h 0.181345v -7.7259h 0.181345v -2.75749h 0.36269v 16.6158h 0.181345v -10.4834h 0.36269v 20.9668h 0.181345v -31.4502h 0.181345v 14.8344h 0.36269v -10.4834h 0.181345v -2.33143h 0.36269v -2.01957h 0.181345v 4.351h 0.36269v
 -6.13239h 0.181345v 6.13239h 0.181345v 6.13239h 0.181345v -6.13239h 0.181345v 2.75749h 0.181345v -8.88988h 0.181345v 8.88988h 0.181345v -11.9249h 0.181345v 15.2998h 0.181345v 10.4834h 0.181345v -13.8583h 0.181345v -5.08892h 0.181345v -2.01957h
 0.181345v 2.01957h 0.181345v 2.33143h 0.181345v -6.13239h 0.181345v 6.13239h 0.181345v 10.4834h 0.181345v -16.6158h 0.181345v 1.78139h 0.181345v 10.4834h 0.181345v -12.2648h 0.181345v 3.80096h 0.181345v 5.08892h 0.181345v -7.10849h 0.181345v
 -1.78139h 0.181345v -1.59351h 0.181345v 5.39447h 0.181345v 8.46381h 0.181345v -13.8583h 0.181345v 1.59351h 0.36269v 12.2648h 0.544034v -8.46381h 0.181345v -2.01957h 0.181345v -1.78139h 0.181345v 6.13239h 0.181345v -6.13239h 0.181345v 1.78139h
 0.181345v -4.8164h 0.36269v 11.9249h 0.181345v 3.3749h 0.181345v -3.3749h 0.181345v -10.4834h 0.181345v 10.4834h 0.181345v -5.08892h 0.181345v -2.01957h 0.181345v -4.8164h 0.181345v 3.03501h 0.181345v -4.351h 0.181345v -2.33143h 0.36269v 6.68242h
 0.181345v 3.80096h 0.181345v -3.80096h 0.36269v -6.68242h 0.181345v 1.12083h 0.181345v -1.12083h 0.181345v 1.12083h 0.181345v 5.56159h 0.181345v -3.03501h 0.181345v 11.9249h 0.181345v -13.2409h 0.36269v 16.6158h 0.181345v -17.8264h 0.181345v
 3.96808h 0.181345v -9.70761h 0.181345v 3.57522h 0.181345v -3.57522h 0.181345v 5.73953h 0.181345v 3.96808h 0.181345v 1.59351h 0.181345v 1.78139h 0.181345v -4.8164h 0.181345v 1.4415h 0.181345v 1.59351h 0.181345v -10.4834h 0.181345v 1.78139h 0.181345v
 2.01957h 0.181345v 5.08892h 0.181345v -3.96808h 0.181345v 7.34298h 0.181345v 4.351h 0.181345v -13.8583h 0.181345v 3.3749h 0.181345v -3.3749h 0.181345v 1.04347h 0.181345v 2.33143h 0.181345v 6.13239h 0.181345v -8.46381h 0.181345v 2.33143h 0.36269v
 -1.21059h 0.181345v -1.12083h 0.181345v -2.93648h 0.181345v 2.93648h 0.181345v 2.33143h 0.181345v 13.2409h 0.181345v -20.9668h 0.36269v 5.39447h 0.181345v -4.61869h 0.181345v 8.26611h 0.181345v -4.69089h 0.181345v 1.04347h 0.181345v -1.04347h
 0.36269v -0.976102h 0.181345v 0.976102h 0.181345v -1.89301h 0.181345v 0.916907h 0.181345v -4.11282h 0.181345v 11.2213h 0.181345v -7.10849h 0.181345v 0.976102h 0.181345v 1.04347h 0.181345v -4.61869h 0.36269v 0.817731h 0.181345v 0.864483h 0.181345v
 1.89301h 0.181345v -0.976102h 0.181345v 2.01957h 0.181345v -7.50828h 0.36269v 4.5718h 0.181345v -3.19591h 0.181345v 0.737919h 0.181345v 4.351h 0.181345v -3.57522h 0.181345v -1.5137h 0.181345v 3.19591h 0.181345v -3.19591h 0.181345v -0.703584h
 0.181345v 3.89949h 0.181345v -3.89949h 0.181345v 6.83597h 0.181345v -6.13239h 0.181345v -0.703584h 0.181345v 4.8164h 0.181345v -4.8164h 0.181345v 6.83597h 0.181345v -2.93648h 0.181345v -4.5718h 0.181345v -4.01858h 0.181345v 2.75749h 0.181345v
 0.617405h 0.181345v 5.21548h 0.181345v -5.21548h 0.181345v 3.53327h 0.181345v -4.15067h 0.181345v -1.16398h 0.181345v -2.08943h 0.181345v 1.5394h 0.181345v 2.33143h 0.181345v -3.87082h 0.181345v 4.51451h 0.181345v 0.672303h 0.181345v -4.69089h
 0.181345v 3.3749h 0.181345v -2.33143h 0.181345v -1.04347h 0.181345v 4.69089h 0.181345v -0.672303h 0.181345v -0.643686h 0.181345v -3.3749h 0.181345v 4.69089h 0.181345v -1.93339h 0.181345v 4.15067h 0.181345v 2.59912h 0.181345v -9.50729h 0.181345v
 4.69089h 0.181345v 0.703584h 0.181345v 4.11282h 0.181345v -3.3749h 0.181345v -3.3749h 0.181345v 7.7259h 0.181345v -7.10849h 0.181345v 11.7994h 0.181345v -7.44838h 0.181345v -3.03501h 0.181345v 2.21728h 0.181345v 0.817731h 0.181345v -0.817731h
 0.181345v -3.53327h 0.181345v 0.643686h 0.181345v 14.1907h 0.181345v -5.56159h 0.181345v -7.25322h 0.181345v 11.2213h 0.181345v -13.2409h 0.181345v 11.7994h 0.181345v -5.66699h 0.181345v -2.59912h 0.181345v -1.5137h 0.181345v -0.703584h 0.181345v
 5.7925h 0.181345v 4.69089h 0.36269v -7.44838h 0.181345v 2.75749h 0.181345v 6.13239h 0.181345v -8.0254h 0.181345v 0.916907h 0.181345v -3.3749h 0.181345v 3.3749h 0.181345v 4.351h 0.181345v -3.3749h 0.181345v 2.1643h 0.36269v -4.05731h 0.36269v
 -1.68221h 0.181345v -0.775777h 0.181345v 6.5153h 0.181345v -4.05731h 0.181345v 1.89301h 0.181345v 3.3749h 0.181345v -6.13239h 0.181345v -0.817731h 0.181345v 8.26611h 0.181345v -1.31599h 0.181345v 4.351h 0.181345v -1.59351h 0.181345v -11.2213h
 0.181345v 2.33143h 0.181345v -0.817731h 0.181345v 6.95012h 0.181345v -1.21059h 0.181345v -5.73953h 0.181345v -2.21728h 0.181345v 6.83597h 0.181345v 12.8148h 0.181345v -14.8344h 0.181345v 0.976102h 0.181345v 2.1643h 0.544034v 7.34298h 0.181345v
 -9.50729h 0.181345v 9.50729h 0.36269v -1.78139h 0.36269v -6.68242h 0.181345v -3.80096h 0.181345v 0.864483h 0.181345v 2.93648h 0.181345v -2.01957h 0.181345v -4.11282h 0.181345v 11.2213h 0.181345v -1.4415h 0.181345v 3.03501h 0.181345v 1.78139h
 0.181345v -10.4834h 0.181345v 3.14041h 0.181345v 1.21059h 0.181345v -2.33143h 0.181345v -3.80096h 0.181345v 14.2843h 0.181345v -11.5269h 0.181345v 1.04347h 0.181345v 8.46381h 0.181345v -14.5962h 0.181345v 6.13239h 0.181345v 6.68242h 0.181345v
 -3.03501h 0.181345v -3.64741h 0.181345v -2.01957h 0.181345v 5.66699h 0.181345v 9.1674h 0.181345v -12.8148h 0.181345v -2.01957h 0.181345v -0.916907h 0.181345v 0.916907h 0.181345v -4.8164h 0.181345v 3.03501h 0.181345v 3.80096h 0.181345v -1.04347h
 0.36269v -6.4648h 0.181345v 1.37589h 0.181345v 4.11282h 0.36269v -2.59912h 0.181345v 6.95012h 0.181345v -11.694h 0.181345v 4.74386h 0.181345v 2.59912h 0.181345v -4.8164h 0.181345v 2.21728h 0.181345v 5.73953h 0.181345v -4.05731h 0.181345v 6.58389h
 0.181345v -3.64741h 0.181345v -2.93648h 0.181345v 0.916907h 0.36269v 0.976102h 0.181345v -2.75749h 0.181345v -1.59351h 0.181345v 5.39447h 0.181345v -6.13239h 0.36269v 3.19591h 0.181345v 1.89301h 0.181345v -2.75749h 0.181345v 6.13239h 0.181345v
 -1.21059h 0.181345v -1.12083h 0.181345v -4.61869h 0.181345v 9.70761h 0.181345v -8.0254h 0.181345v -5.83289h 0.181345v 9.8902h 0.181345v 2.52658h 0.181345v -7.44838h 0.181345v 1.78139h 0.181345v -1.78139h 0.181345v -5.56159h 0.181345v 10.4834h
 0.181345v -6.5153h 0.181345v 3.3749h 0.181345v -1.78139h 0.181345v 2.75749h 0.181345v 3.3749h 0.181345v -5.26791h 0.181345v 4.05731h 0.181345v -7.25322h 0.181345v 3.19591h 0.544034v 4.05731h 0.181345v -4.9218h 0.181345v -1.59351h 0.181345v
 -0.737919h 0.36269v 2.33143h 0.181345v -3.70731h 0.181345v 1.37589h 0.181345v 3.19591h 0.181345v -3.89949h 0.181345v 6.83597h 0.181345v -6.13239h 0.181345v -2.63698h 0.181345v 3.3749h 0.181345v 5.39447h 0.181345v -1.04347h 0.181345v -0.976102h
 0.181345v -3.3749h 0.181345v -6.62831h 0.181345v 10.0032h 0.181345v -6.13239h 0.181345v 1.31599h 0.181345v 5.7925h 0.181345v -5.08892h 0.181345v -4.351h 0.181345v 4.351h 0.181345v -0.703584h 0.181345v 3.03501h 0.181345v -2.33143h 0.181345v -3.23017h
 0.181345v 3.96808h 0.181345v 5.39447h 0.181345v -7.50828h 0.181345v 2.88958h 0.181345v -2.88958h 0.181345v 2.11381h 0.181345v -0.737919h 0.36269v 2.33143h 0.181345v -2.33143h 0.181345v 1.5137h 0.181345v 0.817731h 0.181345v -3.70731h 0.181345v
 -1.85428h 0.181345v 1.85428h 0.181345v 2.11381h 0.181345v -2.11381h 0.181345v -0.643686h 0.181345v 2.01957h 0.181345v 9.7798h 0.181345v -4.69089h 0.181345v -2.75749h 0.181345v -5.56159h 0.181345v 1.21059h 0.181345v 7.10849h 0.181345v 3.3749h
 0.181345v -6.13239h 0.181345v 4.9218h 0.181345v -4.05731h 0.181345v 2.93648h 0.181345v -3.80096h 0.181345v 10.4834h 0.181345v -6.68242h 0.181345v 2.33143h 0.181345v -1.21059h 0.181345v -5.73953h 0.36269v 3.57522h 0.181345v 3.3749h 0.181345v
 -5.26791h 0.181345v 6.58389h 0.36269v -1.31599h 0.181345v -9.1674h 0.181345v 10.4834h 0.36269v -5.66699h 0.181345v -4.11282h 0.181345v 3.19591h 0.181345v 11.4003h 0.181345v -12.2648h 0.181345v 1.78139h 0.181345v 3.14041h 0.181345v -4.9218h 0.181345v
 2.75749h 0.181345v 4.69089h 0.181345v 4.8164h 0.181345v -8.46381h 0.181345v -6.13239h 0.181345v 9.7798h 0.181345v -6.58389h 0.181345v 8.0254h 0.181345v -8.88988h 0.181345v -3.03501h 0.181345v 10.4834h 0.181345v -6.58389h 0.181345v 4.05731h 0.181345v
 -2.1643h 0.181345v -0.976102h 0.181345v 3.14041h 0.181345v 1.21059h 0.36269v -2.33143h 0.181345v -5.39447h 0.181345v 1.59351h 0.181345v 0.864483h 0.181345v -2.45799h 0.181345v 9.04188h 0.181345v -3.64741h 0.181345v 6.68242h 0.181345v -8.702h
 0.181345v 3.14041h 0.181345v -2.1643h 0.181345v -0.976102h 0.181345v -0.916907h 0.181345v 4.05731h 0.181345v 3.96808h 0.181345v -8.0254h 0.181345v 1.89301h 0.181345v -0.976102h 0.36269v 8.702h 0.181345v -9.6189h 0.181345v 11.4003h 0.181345v -3.3749h
 0.181345v 1.59351h 0.181345v -1.59351h 0.181345v 5.39447h 0.181345v -6.83597h 0.181345v -4.69089h 0.181345v 2.1643h 0.181345v 5.56159h 0.181345v -5.56159h 0.181345v 3.96808h 0.181345v -6.13239h 0.181345v 4.69089h 0.181345v 9.1674h 0.181345v -4.351h
 0.181345v -1.78139h 0.181345v -1.59351h 0.36269v -2.75749h 0.181345v 16.6158h 0.181345v -16.6158h 0.181345v 10.4834h 0.181345v -7.7259h 0.181345v 1.59351h 0.181345v -1.59351h 0.181345v 7.7259h 0.181345v -4.351h 0.181345v 10.4834h 0.181345v -3.3749h
 0.181345v -13.2409h 0.181345v 10.4834h 0.181345v -2.33143h 0.181345v -3.80096h 0.181345v 6.13239h 0.181345v 6.13239h 0.181345v -6.13239h 0.36269v -7.7259h 0.36269v 3.3749h 0.36269v -6.13239h 0.181345v 20.9668h 0.181345v -10.4834h 0.181345v -2.33143h
 0.181345v -3.80096h 0.181345v -1.59351h 0.181345v -2.75749h 0.181345v 2.75749h 0.181345v 5.39447h 0.36269v 5.08892h 0.181345v -15.5723h 0.181345v 8.46381h 0.181345v -6.13239h 0.181345v 8.15196h 0.181345v 2.33143h 0.181345v -7.7259h 0.181345v
 10.4834h 0.181345v -8.88988h 0.544034v 3.80096h 0.181345v 8.46381h 0.181345v -10.4834h 0.181345v 7.10849h 0.181345v -13.2409h 0.181345v 8.15196h 0.181345v -5.39447h 0.181345v -1.4415h 0.181345v 1.4415h 0.181345v 3.3749h 0.181345v 4.351h 0.36269v
 -2.33143h 0.181345v -5.39447h 0.181345v 7.7259h 0.181345v -13.8583h 0.181345v 24.3417h 0.181345v -18.2093h 0.36269v 1.59351h 0.181345v 3.80096h 0.181345v -2.01957h 0.181345v 4.351h 0.181345v -4.351h 0.181345v 7.10849h 0.181345v -5.08892h 0.36269v
 -2.01957h 0.181345v -6.13239h 0.181345v 1.31599h 0.181345v 6.83597h 0.181345v -2.01957h 0.181345v -3.3749h 0.181345v 3.3749h 0.181345v 4.351h 0.181345v -2.33143h 0.181345v -5.39447h 0.181345v 13.8583h 0.181345v -12.2648h 0.181345v -5.56159h
 0.181345v -1.12083h 0.181345v 2.33143h 0.181345v 10.4834h 0.181345v -4.351h 0.181345v -7.34298h 0.181345v 9.36255h 0.181345v -11.5269h 0.181345v 11.5269h 0.181345v -6.83597h 0.36269v -1.31599h 0.181345v -1.21059h 0.181345v -1.12083h 0.181345v
 8.46381h 0.181345v 4.351h 0.181345v -12.8148h 0.181345v 10.4834h 0.36269v -5.39447h 0.181345v 3.3749h 0.36269v 2.01957h 0.181345v -10.4834h 0.181345v 6.68242h 0.181345v -7.7259h 0.181345v 4.69089h 0.181345v 1.4415h 0.181345v -10.4834h 0.181345v
 10.4834h 0.36269v 5.39447h 0.36269v -2.01957h 0.181345v -1.78139h 0.181345v -3.03501h 0.181345v 9.1674h 0.181345v -10.4834h 0.181345v -1.21059h 0.181345v 7.34298h 0.181345v 2.01957h 0.181345v -12.503h 0.181345v 3.14041h 0.36269v 7.34298h 0.181345v
 -7.34298h 0.181345v 3.96808h 0.181345v -2.75749h 0.181345v -4.351h 0.181345v -0.916907h 0.181345v 4.05731h 0.36269v 2.52658h 0.181345v -2.52658h 0.181345v -6.5153h 0.181345v 3.3749h 0.181345v 2.01957h 0.181345v -1.04347h 0.181345v 2.1643h 0.181345v
 9.36255h 0.181345v -3.80096h 0.181345v -5.56159h 0.36269v -1.12083h 0.181345v -2.93648h 0.181345v 4.05731h 0.181345v -4.05731h 0.181345v 6.58389h 0.181345v -3.64741h 0.181345v -2.93648h 0.181345v 6.58389h 0.181345v -2.52658h 0.181345v -1.12083h
 0.36269v -6.13239h 0.181345v 2.33143h 0.181345v 0.864483h 0.181345v 11.4003h 0.181345v -9.50729h 0.181345v -0.976102h 0.181345v 4.351h 0.181345v -4.351h 0.181345v 14.8344h 0.181345v -22.7482h 0.181345v 3.80096h 0.181345v 2.33143h 0.36269v 6.13239h
 0.181345v 4.351h 0.181345v -7.7259h 0.181345v 3.3749h 0.181345v -9.1674h 0.181345v 5.7925h 0.181345v -2.75749h 0.181345v 0.864483h 0.181345v -4.5718h 0.181345v 4.5718h 0.181345v 5.26791h 0.181345v -3.3749h 0.36269v -3.57522h 0.181345v 1.68221h
 0.181345v 11.4003h 0.181345v -6.13239h 0.181345v -3.3749h 0.181345v 1.04347h 0.181345v -2.01957h 0.181345v 3.14041h 0.181345v 3.96808h 0.725379v 1.59351h 0.181345v -1.59351h 0.181345v -5.08892h 0.181345v -1.04347h 0.181345v 6.13239h 0.181345v
 1.59351h 0.181345v -1.59351h 0.181345v -3.96808h 0.181345v 7.34298h 0.181345v -10.4834h 0.181345v 7.10849h 0.181345v 1.59351h 0.181345v -1.59351h 0.181345v 5.39447h 0.181345v 5.08892h 0.36269v -2.75749h 0.181345v -6.13239h 0.181345v 3.80096h
 0.544034v 12.8148h 0.181345v -4.351h 0.181345v -6.13239h 0.36269v 2.75749h 0.181345v 3.3749h 0.544034v -3.3749h 0.181345v 3.3749h 0.36269v 10.4834h 0.181345v -10.4834h 0.181345v 4.351h 0.181345v -7.7259h 0.181345v 24.3417h 0.181345v 10.4834h
 0.181345v -20.9668h 0.181345v 20.9668h 0.181345v -31.4502h 0.181345v 10.4834h 0.544034v 20.9668h 0.36269v -10.4834h 0.36269v -10.4834h 0.181345v 20.9668h 0.36269v -20.9668h 0.181345v 10.4834h 0.181345v 10.4834h 0.181345v -27.0992h 0.181345v 27.0992h
 0.181345v -20.9668h 0.181345v 10.4834h 0.725379v 10.4834h 0.181345v -20.9668h 0.181345v 20.9668h 0.544034v -10.4834h 0.36269v -10.4834h 0.544034v 10.4834h 0.181345v 10.4834h 0.181345v -27.0992h 0.36269v 27.0992h 0.181345v -10.4834h 0.181345v
 10.4834h 0.181345v -27.0992h 0.181345v 16.6158h 0.181345v 10.4834h 0.181345v -10.4834h 0.181345v 10.4834h 0.544034v -10.4834h 0.181345v -10.4834h 0.36269v 20.9668h 0.725379v -20.9668h 0.181345v 10.4834h 0.544034v 10.4834h 0.181345v -20.9668h
 0.181345v 20.9668h 0.181345v -27.0992h 0.181345v 27.0992h 0.181345v -20.9668h 0.181345v 10.4834h 0.36269v 10.4834h 0.181345v -10.4834h 0.181345v 10.4834h 0.181345v -10.4834h 0.181345v -16.6158h 0.181345v 6.13239h 0.181345v 10.4834h 0.36269v 10.4834h
 0.36269v -31.4502h 0.181345v 4.351h 0.181345v 16.6158h 0.36269v -10.4834h 0.181345v 20.9668h 0.544034v -10.4834h 0.181345v -10.4834h 0.181345v 20.9668h 0.181345v -20.9668h 0.36269v 10.4834h 0.36269v -10.4834h 0.544034v -6.13239h 0.181345v 16.6158h
 0.181345v -10.4834h 0.544034v 20.9668h 0.181345v -20.9668h 0.181345v -6.13239h 0.181345v 27.0992h 0.181345v -10.4834h 0.181345v 10.4834h 0.181345v -20.9668h 0.181345v 20.9668h 0.544034v -10.4834h 0.181345v -10.4834h 0.181345v 20.9668h 0.181345v
 -27.0992h 0.181345v 27.0992h 0.181345v -10.4834h 0.36269v 10.4834h 0.181345v -10.4834h 0.181345v 10.4834h 0.36269v -10.4834h 0.181345v 10.4834h 0.36269v -10.4834h 0.181345v -10.4834h 0.36269v -10.4834h 0.181345v 10.4834h 0.181345v 20.9668h 0.906724v
 -10.4834h 0.725379v 10.4834h 0.181345v -10.4834h 0.181345v 10.4834h 0.725379v -20.9668h 0.181345v 10.4834h 0.181345v 10.4834h 1.08807v -20.9668h 0.181345v 10.4834h 0.181345v 10.4834h 0.181345v -10.4834h 0.181345v 10.4834h 0.36269v -10.4834h
 0.181345v 10.4834h 0.181345v -10.4834h 0.36269v -16.6158h 0.181345v 16.6158h 0.181345v 10.4834h 0.181345v -10.4834h 0.181345v 10.4834h 0.181345v -27.0992h 0.181345v 27.0992h 0.36269v -10.4834h 0.725379v 10.4834h 0.725379v -10.4834h 0.181345v
 10.4834h 0.181345v -20.9668h 0.181345v 20.9668h 0.181345v -10.4834h 0.36269v 10.4834h 0.181345v -27.0992h 0.181345v 6.13239h 0.181345v -6.13239h 0.181345v 27.0992h 0.181345v -20.9668h 0.181345v 10.4834h 0.181345v 10.4834h 0.181345v -10.4834h
 0.181345v 10.4834h 0.36269v -27.0992h 0.181345v 27.0992h 0.544034v -27.0992h 0.181345v 6.13239h 0.181345v 10.4834h 0.544034v 10.4834h 0.181345v -10.4834h 0.725379v 10.4834h 0.181345v -10.4834h 0.181345v -10.4834h 0.181345v 10.4834h 0.181345v
 10.4834h 0.181345v -10.4834h 0.36269v 10.4834h 0.36269v -10.4834h 0.36269v 10.4834h 0.181345v -20.9668h 0.36269v 10.4834h 0.181345v 10.4834h 0.181345v -20.9668h 0.181345v 20.9668h 0.36269v -10.4834h 0.544034v -10.4834h 0.181345v 20.9668h 0.181345v
 -10.4834h 0.36269v 10.4834h 0.36269v -10.4834h 0.181345v -10.4834h 0.181345v 20.9668h 0.181345v -10.4834h 0.181345v 10.4834h 0.36269v -20.9668h 0.181345v 20.9668h 0.181345v -20.9668h 0.36269v 10.4834h 0.36269v 10.4834h 0.181345v -20.9668h 0.181345v
 20.9668h 0.181345v -10.4834h 0.36269v -16.6158h 0.36269v 27.0992h 0.36269v -10.4834h 0.181345v 10.4834h 0.181345v -20.9668h 0.181345v 10.4834h 0.36269v 10.4834h 0.181345" fill="none" stroke="black"/>
<path d="M57.1929,280.151h 453.543" fill="none" stroke="black"/>
<path d="M57.1929,272.68v 7.47068" fill="none" stroke="black"/>
<path d="M75.3318,276.415v 3.73534" fill="none" stroke="black"/>
<path d="M93.4707,276.415v 3.73534" fill="none" stroke="black"/>
<path d="M111.61,276.415v 3.73534" fill="none" stroke="black"/>
<path d="M129.749,276.415v 3.73534" fill="none" stroke="black"/>
<path d="M147.887,272.68v 7.47068" fill="none" stroke="black"/>
<path d="M166.026,276.415v 3.73534" fill="none" stroke="black"/>
<path d="M184.165,276.415v 3.73534" fill="none" stroke="black"/>
<path d="M202.304,276.415v 3.73534" fill="none" stroke="black"/>
<path d="M220.443,276.415v 3.73534" fill="none" stroke="black"/>
<path d="M238.582,272.68v 7.47068" fill="none" stroke="black"/>
<path d="M256.721,276.415v 3.73534" fill="none" stroke="black"/>
<path d="M274.86,276.415v 3.73534" fill="none" stroke="black"/>
<path d="M292.999,276.415v 3.73534" fill="none" stroke="black"/>
<path d="M311.138,276.415v 3.73534" fill="none" stroke="black"/>
<path d="M329.277,272.68v 7.47068" fill="none" stroke="black"/>
<path d="M347.415,276.415v 3.73534" fill="none" stroke="black"/>
<path d="M365.554,276.415v 3.73534" fill="none" stroke="black"/>
<path d="M383.693,276.415v 3.73534" fill="none" stroke="black"/>
<path d="M401.832,276.415v 3.73534" fill="none" stroke="black"/>
<path d="M419.971,272.68v 7.47068" fill="none" stroke="black"/>
<path d="M438.11,276.415v 3.73534" fill="none" stroke="black"/>
<path d="M456.249,276.415v 3.73534" fill="none" stroke="black"/>
<path d="M474.388,276.415v 3.73534" fill="none" stroke="black"/>
<path d="M492.527,276.415v 3.73534" fill="none" stroke="black"/>
<path d="M510.666,272.68v 7.47068" fill="none" stroke="black"/>
<path d="M510.666,272.68v 7.47068" fill="none" stroke="black"/>
<text xml:space="preserve" x="54.3523" y="290.27" fill="black" font-size="10.4952" font-family="Helvetica">0</text>
<text xml:space="preserve" x="139.569" y="290.27" fill="black" font-size="10.4952" font-family="Helvetica">500</text>
<text xml:space="preserve" x="227.449" y="290.27" fill="black" font-size="10.4952" font-family="Helvetica">1000</text>
<text xml:space="preserve" x="318.288" y="290.27" fill="black" font-size="10.4952" font-family="Helvetica">1500</text>
<text xml:space="preserve" x="408.831" y="290.27" fill="black" font-size="10.4952" font-family="Helvetica">2000</text>
<text xml:space="preserve" x="499.67" y="290.27" fill="black" font-size="10.4952" font-family="Helvetica">2500</text>
<text xml:space="preserve" x="265.323" y="301.218" fill="black" font-size="10.4952" font-family="Helvetica">Channel</text>
<path d="M57.1929,280.151v -249.023" fill="none" stroke="black"/>
<path d="M63.9961,280.151h -6.80315" fill="none" stroke="black"/>
<path d="M63.9961,277.393h -6.80315" fill="none" stroke="black"/>
<path d="M63.9961,275.062h -6.80315" fill="none" stroke="black"/>
<path d="M63.9961,273.042h -6.80315" fill="none" stroke="black"/>
<path d="M63.9961,271.261h -6.80315" fill="none" stroke="black"/>
<path d="M70.7992,269.667h -13.6063" fill="none" stroke="black"/>
<text xml:space="preserve" x="49.0263" y="273.404" fill="black" font-size="10.4952" font-family="Helvetica">1</text>
<path d="M63.9961,259.184h -6.80315" fill="none" stroke="black"/>
<path d="M63.9961,253.051h -6.80315" fill="none" stroke="black"/>
<path d="M63.9961,248.7h -6.80315" fill="none" stroke="black"/>
<path d="M63.9961,245.325h -6.80315" fill="none" stroke="black"/>
<path d="M63.9961,242.568h -6.80315" fill="none" stroke="black"/>
<path d="M63.9961,240.237h -6.80315" fill="none" stroke="black"/>
<path d="M63.9961,238.217h -6.80315" fill="none" stroke="black"/>
<path d="M63.9961,236.436h -6.80315" fill="none" stroke="black"/>
<path d="M70.7992,234.842h -13.6063" fill="none" stroke="black"/>
<text xml:space="preserve" x="41.629" y="238.489" fill="black" font-size="10.4952" font-family="Helvetica">10</text>
<path d="M63.9961,224.359h -6.80315" fill="none" stroke="black"/>
<path d="M63.9961,218.226h -6.80315" fill="none" stroke="black"/>
<path d="M63.9961,213.875h -6.80315" fill="none" stroke="black"/>
<path d="M63.9961,210.5h -6.80315" fill="none" stroke="black"/>
<path d="M63.9961,207.743h -6.80315" fill="none" stroke="black"/>
<path d="M63.9961,205.412h -6.80315" fill="none" stroke="black"/>
<path d="M63.9961,203.392h -6.80315" fill="none" stroke="black"/>
<path d="M63.9961,201.611h -6.80315" fill="none" stroke="black"/>
<path d="M70.7992,200.017h -13.6063" fill="none" stroke="black"/>
<text xml:space="preserve" x="49.0263" y="200.023" fill="black" font-size="7.16345" font-family="Helvetica">2</text>
<text xml:space="preserve" x="38.0783" y="204.461" fill="black" font-size="10.4952" font-family="Helvetica">10</text>
<path d="M63.9961,189.534h -6.80315" fill="none" stroke="black"/>
<path d="M63.9961,183.401h -6.80315" fill="none" stroke="black"/>
<path d="M63.9961,179.05h -6.80315" fill="none" stroke="black"/>
<path d="M63.9961,175.675h -6.80315" fill="none" stroke="black"/>
<path d="M63.9961,172.918h -6.80315" fill="none" stroke="black"/>
<path d="M63.9961,170.586h -6.80315" fill="none" stroke="black"/>
<path d="M63.9961,168.567h -6.80315" fill="none" stroke="black"/>
<path d="M63.9961,166.785h -6.80315" fill="none" stroke="black"/>
<path d="M70.7992,165.192h -13.6063" fill="none" stroke="black"/>
<text xml:space="preserve" x="49.0263" y="165.108" fill="black" font-size="7.16345" font-family="Helvetica">3</text>
<text xml:space="preserve" x="38.0783" y="169.842" fill="black" font-size="10.4952" font-family="Helvetica">10</text>
<path d="M63.9961,154.709h -6.80315" fill="none" stroke="black"/>
<path d="M63.9961,148.576h -6.80315" fill="none" stroke="black"/>
<path d="M63.9961,144.225h -6.80315" fill="none" stroke="black"/>
<path d="M63.9961,140.85h -6.80315" fill="none" stroke="black"/>
<path d="M63.9961,138.093h -6.80315" fill="none" stroke="black"/>
<path d="M63.9961,135.761h -6.80315" fill="none" stroke="black"/>
<path d="M63.9961,133.742h -6.80315" fill="none" stroke="black"/>
<path d="M63.9961,131.96h -6.80315" fill="none" stroke="black"/>
<path d="M70.7992,130.367h -13.6063" fill="none" stroke="black"/>
<text xml:space="preserve" x="49.0263" y="130.488" fill="black" font-size="7.16345" font-family="Helvetica">4</text>
<text xml:space="preserve" x="38.0783" y="134.927" fill="black" font-size="10.4952" font-family="Helvetica">10</text>
<path d="M63.9961,119.884h -6.80315" fill="none" stroke="black"/>
<path d="M63.9961,113.751h -6.80315" fill="none" stroke="black"/>
<path d="M63.9961,109.4h -6.80315" fill="none" stroke="black"/>
<path d="M63.9961,106.025h -6.80315" fill="none" stroke="black"/>
<path d="M63.9961,103.268h -6.80315" fill="none" stroke="black"/>
<path d="M63.9961,100.936h -6.80315" fill="none" stroke="black"/>
<path d="M63.9961,98.9168h -6.80315" fill="none" stroke="black"/>
<path d="M63.9961,97.1354h -6.80315" fill="none" stroke="black"/>
<path d="M70.7992,95.5419h -13.6063" fill="none" stroke="black"/>
<text xml:space="preserve" x="49.0263" y="95.2772" fill="black" font-size="7.16345" font-family="Helvetica">5</text>
<text xml:space="preserve" x="38.0783" y="100.012" fill="black" font-size="10.4952" font-family="Helvetica">10</text>
<path d="M63.9961,85.0585h -6.80315" fill="none" stroke="black"/>
<path d="M63.9961,78.9261h -6.80315" fill="none" stroke="black"/>
<path d="M63.9961,74.5751h -6.80315" fill="none" stroke="black"/>
<path d="M63.9961,71.2002h -6.80315" fill="none" stroke="black"/>
<path d="M63.9961,68.4427h -6.80315" fill="none" stroke="black"/>
<path d="M63.9961,66.1113h -6.80315" fill="none" stroke="black"/>
<path d="M63.9961,64.0917h -6.80315" fill="none" stroke="black"/>
<path d="M63.9961,62.3103h -6.80315" fill="none" stroke="black"/>
<path d="M70.7992,60.7168h -13.6063" fill="none" stroke="black"/>
<text xml:space="preserve" x="49.0263" y="60.6579" fill="black" font-size="7.16345" font-family="Helvetica">6</text>
<text xml:space="preserve" x="38.0783" y="65.3921" fill="black" font-size="10.4952" font-family="Helvetica">10</text>
<path d="M63.9961,50.2334h -6.80315" fill="none" stroke="black"/>
<path d="M63.9961,44.1011h -6.80315" fill="none" stroke="black"/>
<path d="M63.9961,39.7501h -6.80315" fill="none" stroke="black"/>
<path d="M63.9961,36.3752h -6.80315" fill="none" stroke="black"/>
<path d="M63.9961,33.6177h -6.80315" fill="none" stroke="black"/>
<path d="M63.9961,31.2862h -6.80315" fill="none" stroke="black"/>
<g transform="rotate(-90,26.5385,191.442)">
<text xml:space="preserve" x="26.5385" y="191.442" fill="black" font-size="10.4952" font-family="Helvetica">Counts/Channel</text>
</g>
<text xml:space="preserve" x="404.097" y="60.6579" fill="black" font-size="14.7788" font-family="Helvetica" font-weight="bold"> = 2.4879 MeV</text>
<text xml:space="preserve" x="398.179" y="63.9127" fill="black" font-size="10.0192" font-family="Helvetica" font-weight="bold">p</text>
<text xml:space="preserve" x="389.006" y="60.6579" fill="black" font-size="14.7788" font-family="Helvetica" font-weight="bold">E</text>
<path d="M262.163,163.751v 26.1657" fill="none" stroke="black"/>
<path d="M264.454,189.916l -2.29122, 3.9685l -2.29122, -3.9685z" fill="black"/>
<path d="M264.454,189.916l -2.29122, 3.9685l -2.29122, -3.9685h 4.58243z" fill="none" stroke="black"/>
<text xml:space="preserve" x="266.803" y="161.557" fill="black" font-size="10.4952" font-family="Helvetica" font-weight="bold">_1 	1.369 MeV</text>
<text xml:space="preserve" x="260.293" y="161.557" fill="black" font-size="10.4952" font-family="Times">&#0945;</text>
<path d="M184.528,130.367v 30.8566" fill="none" stroke="black"/>
<path d="M186.819,161.224l -2.29122, 3.9685l -2.29122, -3.9685z" fill="black"/>
<path d="M186.819,161.224l -2.29122, 3.9685l -2.29122, -3.9685h 4.58243z" fill="none" stroke="black"/>
<text xml:space="preserve" x="172.117" y="127.529" fill="black" font-size="10.4952" font-family="Helvetica" font-weight="bold"># p_1 	0.844 MeV</text>
<path d="M210.104,148.576v 12.6473" fill="none" stroke="black"/>
<path d="M212.395,161.224l -2.29122, 3.9685l -2.29122, -3.9685z" fill="black"/>
<path d="M212.395,161.224l -2.29122, 3.9685l -2.29122, -3.9685h 4.58243z" fill="none" stroke="black"/>
<text xml:space="preserve" x="197.564" y="144.099" fill="black" font-size="10.4952" font-family="Helvetica" font-weight="bold"># p_2 	1.015 MeV</text>
<path d="M497.606,269.667h 13.0595" fill="none" stroke="black"/>
<path d="M504.136,259.184h 6.52976" fill="none" stroke="black"/>
<path d="M504.136,253.051h 6.52976" fill="none" stroke="black"/>
<path d="M504.136,248.7h 6.52976" fill="none" stroke="black"/>
<path d="M504.136,245.325h 6.52976" fill="none" stroke="black"/>
<path d="M504.136,242.568h 6.52976" fill="none" stroke="black"/>
<path d="M504.136,240.237h 6.52976" fill="none" stroke="black"/>
<path d="M504.136,238.217h 6.52976" fill="none" stroke="black"/>
<path d="M504.136,236.436h 6.52976" fill="none" stroke="black"/>
<path d="M497.606,234.842h 13.0595" fill="none" stroke="black"/>
<path d="M504.136,224.359h 6.52976" fill="none" stroke="black"/>
<path d="M504.136,218.226h 6.52976" fill="none" stroke="black"/>
<path d="M504.136,213.875h 6.52976" fill="none" stroke="black"/>
<path d="M504.136,210.5h 6.52976" fill="none" stroke="black"/>
<path d="M504.136,207.743h 6.52976" fill="none" stroke="black"/>
<path d="M504.136,205.412h 6.52976" fill="none" stroke="black"/>
<path d="M504.136,203.392h 6.52976" fill="none" stroke="black"/>
<path d="M504.136,201.611h 6.52976" fill="none" stroke="black"/>
<path d="M497.606,200.017h 13.0595" fill="none" stroke="black"/>
<path d="M504.136,189.534h 6.52976" fill="none" stroke="black"/>
<path d="M504.136,183.401h 6.52976" fill="none" stroke="black"/>
<path d="M504.136,179.05h 6.52976" fill="none" stroke="black"/>
<path d="M504.136,175.675h 6.52976" fill="none" stroke="black"/>
<path d="M504.136,172.918h 6.52976" fill="none" stroke="black"/>
<path d="M504.136,170.586h 6.52976" fill="none" stroke="black"/>
<path d="M504.136,168.567h 6.52976" fill="none" stroke="black"/>
<path d="M504.136,166.785h 6.52976" fill="none" stroke="black"/>
<path d="M497.606,165.192h 13.0595" fill="none" stroke="black"/>
<path d="M504.136,154.709h 6.52976" fill="none" stroke="black"/>
<path d="M504.136,148.576h 6.52976" fill="none" stroke="black"/>
<path d="M504.136,144.225h 6.52976" fill="none" stroke="black"/>
<path d="M504.136,140.85h 6.52976" fill="none" stroke="black"/>
<path d="M504.136,138.093h 6.52976" fill="none" stroke="black"/>
<path d="M504.136,135.761h 6.52976" fill="none" stroke="black"/>
<path d="M504.136,133.742h 6.52976" fill="none" stroke="black"/>
<path d="M504.136,131.96h 6.52976" fill="none" stroke="black"/>
<path d="M497.606,130.367h 13.0595" fill="none" stroke="black"/>
<path d="M504.136,119.884h 6.52976" fill="none" stroke="black"/>
<path d="M504.136,113.751h 6.52976" fill="none" stroke="black"/>
<path d="M504.136,109.4h 6.52976" fill="none" stroke="black"/>
<path d="M504.136,106.025h 6.52976" fill="none" stroke="black"/>
<path d="M504.136,103.268h 6.52976" fill="none" stroke="black"/>
<path d="M504.136,100.936h 6.52976" fill="none" stroke="black"/>
<path d="M504.136,98.9168h 6.52976" fill="none" stroke="black"/>
<path d="M504.136,97.1354h 6.52976" fill="none" stroke="black"/>
<path d="M497.606,95.5419h 13.0595" fill="none" stroke="black"/>
<path d="M504.136,85.0585h 6.52976" fill="none" stroke="black"/>
<path d="M504.136,78.9261h 6.52976" fill="none" stroke="black"/>
<path d="M504.136,74.5751h 6.52976" fill="none" stroke="black"/>
<path d="M504.136,71.2002h 6.52976" fill="none" stroke="black"/>
<path d="M504.136,68.4427h 6.52976" fill="none" stroke="black"/>
<path d="M504.136,66.1113h 6.52976" fill="none" stroke="black"/>
<path d="M504.136,64.0917h 6.52976" fill="none" stroke="black"/>
<path d="M504.136,62.3103h 6.52976" fill="none" stroke="black"/>
<path d="M497.606,60.7168h 13.0595" fill="none" stroke="black"/>
<path d="M504.136,50.2334h 6.52976" fill="none" stroke="black"/>
<path d="M504.136,44.1011h 6.52976" fill="none" stroke="black"/>
<path d="M504.136,39.7501h 6.52976" fill="none" stroke="black"/>
<path d="M504.136,36.3752h 6.52976" fill="none" stroke="black"/>
<path d="M504.136,33.6177h 6.52976" fill="none" stroke="black"/>
<path d="M504.136,31.2862h 6.52976" fill="none" stroke="black"/>
<path d="M57.1929,38.1211v -7.46952" fill="none" stroke="black"/>
<path d="M75.3318,38.1211v -7.46952" fill="none" stroke="black"/>
<path d="M93.4707,38.1211v -7.46952" fill="none" stroke="black"/>
<path d="M111.61,38.1211v -7.46952" fill="none" stroke="black"/>
<path d="M129.749,38.1211v -7.46952" fill="none" stroke="black"/>
<path d="M147.887,38.1211v -7.46952" fill="none" stroke="black"/>
<path d="M166.026,38.1211v -7.46952" fill="none" stroke="black"/>
<path d="M184.165,38.1211v -7.46952" fill="none" stroke="black"/>
<path d="M202.304,38.1211v -7.46952" fill="none" stroke="black"/>
<path d="M220.443,38.1211v -7.46952" fill="none" stroke="black"/>
<path d="M238.582,38.1211v -7.46952" fill="none" stroke="black"/>
<path d="M256.721,38.1211v -7.46952" fill="none" stroke="black"/>
<path d="M274.86,38.1211v -7.46952" fill="none" stroke="black"/>
<path d="M292.999,38.1211v -7.46952" fill="none" stroke="black"/>
<path d="M311.138,38.1211v -7.46952" fill="none" stroke="black"/>
<path d="M329.277,38.1211v -7.46952" fill="none" stroke="black"/>
<path d="M347.415,38.1211v -7.46952" fill="none" stroke="black"/>
<path d="M365.554,38.1211v -7.46952" fill="none" stroke="black"/>
<path d="M383.693,38.1211v -7.46952" fill="none" stroke="black"/>
<path d="M401.832,38.1211v -7.46952" fill="none" stroke="black"/>
<path d="M419.971,38.1211v -7.46952" fill="none" stroke="black"/>
<path d="M438.11,38.1211v -7.46952" fill="none" stroke="black"/>
<path d="M456.249,38.1211v -7.46952" fill="none" stroke="black"/>
<path d="M474.388,38.1211v -7.46952" fill="none" stroke="black"/>
<path d="M492.527,38.1211v -7.46952" fill="none" stroke="black"/>
<path d="M510.666,38.1211v -7.46952" fill="none" stroke="black"/></svg>
