<?xml version="1.0" standalone="no"?>
<svg width="567.429" height="311.778" viewBox="0 0 567.429 311.778" xmlns="http://www.w3.org/2000/svg" shape-rendering="crispEdges">
<title>
Yields/P1/det-5/run_0104_Fit.svg
</title>
<desc>
Creator: ROOT Version 6.12/06
CreationDate: Mon Apr 15 10:29:02 2019</desc>
<defs>
</defs>
<rect x="0.5" y="0" width="566.929" height="311.278" fill="white"/>
<rect x="57.1929" y="31.1278" width="453.543" height="249.023" fill="white"/>
<rect x="57.1929" y="31.1278" width="453.543" height="249.023" fill="none" stroke="black"/>
<rect x="57.1929" y="31.1278" width="453.543" height="249.023" fill="white"/>
<rect x="57.1929" y="31.1278" width="453.543" height="249.023" fill="none" stroke="black"/>
<path d="M57.1929,40.7932h 0.181345v 239.357h 9.06724v -10.483h 0.181345v 10.483h 8.70455v -10.483h 0.181345v 10.483h 1.08807v -10.483h 0.181345v 10.483h 0.36269v -10.483h 0.181345v 10.483h 0.181345v -10.483h 0.181345v 10.483h 0.906724v -10.483h
 0.181345v 10.483h 1.26941v -10.483h 0.181345v 10.483h 4.35227v -10.483h 0.181345v 10.483h 2.90152v -10.483h 0.181345v -10.483h 0.36269v -6.13218h 0.181345v -26.2338h 0.181345v -19.3231h 0.181345v -10.6065h 0.181345v -9.91935h 0.181345v -5.14335h
 0.181345v -4.38488h 0.181345v -3.69093h 0.181345v -1.61474h 0.181345v -0.655625h 0.181345v -0.911483h 0.181345v -1.32134h 0.181345v -0.619757h 0.181345v -0.169826h 0.181345v -0.998335h 0.181345v -0.415801h 0.181345v -0.186821h 0.181345v 0.272509h
 0.181345v -1.7201h 0.181345v 0.404155h 0.181345v -0.187876h 0.181345v -0.891227h 0.181345v -0.744179h 0.181345v 0.641843h 0.181345v -0.245686h 0.181345v 0.0718473h 0.181345v -0.242901h 0.181345v 0.519076h 0.181345v -1.44012h 0.181345v 0.906877h
 0.181345v -0.252772h 0.181345v 0.337977h 0.181345v -0.654934h 0.181345v 0.841208h 0.181345v -1.23161h 0.181345v 0.749195h 0.181345v -0.358794h 0.181345v -0.135762h 0.181345v -0.107739h 0.181345v 0.067247h 0.181345v -0.477634h 0.181345v -0.130042h
 0.181345v -0.0646042h 0.181345v 0.794084h 0.181345v -0.175625h 0.181345v 0.491431h 0.181345v -0.941342h 0.181345v 0.720954h 0.181345v 0.0960246h 0.181345v 0.305823h 0.181345v 0.240627h 0.181345v -0.113714h 0.181345v -0.126914h 0.181345v -0.209185h
 0.181345v 0.708838h 0.181345v 0.337567h 0.181345v -0.25023h 0.181345v -1.17908h 0.181345v 2.26846h 0.181345v -1.01622h 0.181345v 1.20566h 0.181345v -1.39517h 0.181345v 0.160196h 0.181345v -0.261263h 0.181345v -1.46629h 0.181345v -2.11714h 0.181345v
 -1.59345h 0.181345v -3.48069h 0.181345v -2.90148h 0.181345v -3.1248h 0.181345v -2.97384h 0.181345v -3.20731h 0.181345v -2.9666h 0.181345v -1.97031h 0.181345v -2.02669h 0.181345v -1.09302h 0.181345v -0.675608h 0.181345v -0.171829h 0.181345v 0.370331h
 0.181345v 0.760364h 0.181345v 1.80138h 0.181345v 2.31021h 0.181345v 2.86123h 0.181345v 3.18873h 0.181345v 3.99597h 0.181345v 3.50237h 0.181345v 4.24907h 0.181345v 4.26503h 0.181345v 4.36308h 0.181345v 2.55322h 0.181345v 2.49317h 0.181345v 1.73584h
 0.181345v 1.55943h 0.181345v 0.0852049h 0.181345v 0.374871h 0.181345v 0.933308h 0.181345v 0.537371h 0.181345v -0.0642202h 0.181345v 0.161065h 0.181345v 0.162798h 0.181345v -0.514903h 0.181345v 1.42564h 0.181345v 0.821567h 0.181345v -1.79764h
 0.181345v 0.0653298h 0.181345v 1.33381h 0.181345v -0.698684h 0.181345v -0.0681255h 0.181345v 0.378546h 0.181345v -0.31042h 0.181345v -0.470557h 0.181345v 1.53107h 0.181345v -1.63003h 0.181345v 0.535413h 0.181345v 0.449427h 0.181345v 0.247647h
 0.181345v -0.491304h 0.181345v -0.708268h 0.181345v 0.673778h 0.181345v -0.0344114h 0.181345v 0.0689014h 0.181345v 0.779386h 0.181345v -0.180693h 0.36269v -0.355036h 0.181345v 1.16675h 0.181345v 1.22319h 0.181345v -0.325256h 0.181345v -0.436104h
 0.181345v 1.65001h 0.181345v -0.259272h 0.181345v 0.259272h 0.181345v 0.219508h 0.181345v 0.403326h 0.181345v -1.26287h 0.181345v 0.553113h 0.181345v 0.574112h 0.181345v -1.45781h 0.181345v 2.00783h 0.181345v -2.25112h 0.181345v 2.58145h 0.181345v
 -0.56194h 0.181345v -0.49739h 0.181345v 0.360108h 0.181345v 2.46863h 0.181345v -2.42301h 0.181345v 1.48722h 0.181345v -0.495908h 0.181345v -0.337707h 0.181345v 0.733124h 0.36269v -0.346551h 0.181345v 0.246724h 0.181345v 0.55739h 0.181345v -0.4074h
 0.181345v -0.249163h 0.181345v 0.553679h 0.181345v 2.14453h 0.181345v -3.65573h 0.181345v 2.68335h 0.181345v -0.382902h 0.181345v 0.327605h 0.181345v -1.71988h 0.181345v -0.532414h 0.181345v 0.631263h 0.181345v 0.658763h 0.181345v -0.609095h
 0.181345v 1.62666h 0.181345v -0.808954h 0.181345v -0.0524223h 0.181345v 2.43637h 0.181345v -2.01182h 0.181345v 0.716381h 0.181345v -0.770107h 0.181345v 0.826644h 0.181345v -1.24972h 0.181345v 1.08073h 0.181345v -0.923465h 0.181345v 0.158921h
 0.181345v -1.02923h 0.181345v 1.13611h 0.181345v 0.657661h 0.181345v -1.74394h 0.181345v -1.15285h 0.181345v 0.469722h 0.181345v 1.03662h 0.181345v -0.698915h 0.181345v -0.574392h 0.181345v 0.18905h 0.181345v -3.20259h 0.181345v -0.454886h 0.181345v
 1.49008h 0.181345v -2.32546h 0.181345v 0.393779h 0.181345v 0.256032h 0.181345v -1.06801h 0.181345v 2.45791h 0.181345v -1.4635h 0.181345v 1.34267h 0.181345v 0.0804461h 0.181345v 1.26105h 0.181345v 0.490064h 0.181345v 0.0908341h 0.181345v 0.183321h
 0.181345v 2.83135h 0.181345v 0.167734h 0.181345v 0.0563272h 0.181345v 1.48101h 0.181345v 0.187876h 0.181345v -1.26861h 0.181345v 1.5228h 0.181345v -0.871573h 0.181345v 0.367398h 0.181345v 1.15899h 0.181345v -0.845854h 0.36269v -0.0631476h 0.181345v
 1.5236h 0.181345v -1.46045h 0.181345v -0.559055h 0.181345v 1.53934h 0.181345v 1.48879h 0.181345v -3.14961h 0.181345v 2.21084h 0.181345v -1.9053h 0.181345v 1.62779h 0.181345v -1.50382h 0.181345v 0.314436h 0.181345v 1.89295h 0.181345v -2.39295h
 0.181345v 0.185571h 0.181345v 0.251024h 0.181345v 0.912922h 0.181345v -0.593167h 0.181345v 2.14932h 0.181345v -2.96703h 0.181345v 1.88886h 0.181345v 0.350917h 0.181345v -2.36175h 0.181345v 1.80412h 0.181345v 0.628795h 0.181345v -2.18799h 0.181345v
 -0.122959h 0.181345v 0.817703h 0.181345v -1.47667h 0.181345v 0.176889h 0.181345v -0.524578h 0.181345v 1.82436h 0.181345v -1.24035h 0.181345v -0.584004h 0.181345v -0.22743h 0.181345v 0.22743h 0.181345v 0.465385h 0.181345v -2.5492h 0.181345v 1.80006h
 0.181345v -1.39538h 0.181345v 3.1206h 0.181345v -1.26861h 0.181345v -1.27726h 0.181345v 0.820662h 0.181345v 1.5997h 0.181345v 1.44145h 0.181345v -1.68939h 0.181345v -1.06801h 0.181345v 0.703561h 0.181345v 0.487908h 0.181345v 0.632888h 0.181345v
 0.260762h 0.181345v -0.260762h 0.181345v 1.56476h 0.544034v -2.19764h 0.181345v 1.91362h 0.181345v 1.71115h 0.181345v -2.46578h 0.181345v 2.0004h 0.181345v 1.95418h 0.181345v -3.19994h 0.181345v -0.954071h 0.181345v -0.261891h 0.181345v -0.447672h
 0.181345v 2.31036h 0.181345v -0.362699h 0.181345v -0.142679h 0.181345v 0.801933h 0.181345v 0.456029h 0.181345v -1.11528h 0.181345v -0.768581h 0.181345v 0.136868h 0.181345v 1.21628h 0.181345v 0.225173h 0.181345v 0.382902h 0.181345v 0.633551h
 0.181345v -2.66275h 0.181345v 1.79829h 0.181345v -1.59345h 0.181345v 2.29701h 0.181345v -2.50186h 0.181345v 0.623037h 0.181345v 1.3288h 0.181345v -0.530715h 0.181345v -1.14738h 0.181345v 0.0692167h 0.181345v -0.138118h 0.181345v 0.994412h 0.181345v
 -1.60079h 0.181345v 1.23809h 0.181345v -1.03866h 0.181345v 0.545062h 0.36269v -0.138118h 0.181345v 1.36602h 0.181345v -1.97241h 0.181345v 0.7445h 0.181345v 0.0695349h 0.181345v -0.138752h 0.181345v -1.06644h 0.181345v 0.129264h 0.181345v 4.76763h
 0.181345v -1.99725h 0.181345v -0.834107h 0.181345v 0.834107h 0.181345v -0.685833h 0.181345v -1.88856h 0.181345v 2.11374h 0.181345v -0.299491h 0.181345v -3.1958h 0.181345v 2.40153h 0.181345v -0.416278h 0.181345v 1.81559h 0.181345v -0.898709h
 0.181345v -1.05313h 0.181345v -0.268875h 0.181345v 0.681369h 0.181345v -0.138752h 0.181345v -0.609095h 0.181345v -0.392849h 0.181345v 1.78133h 0.181345v -2.22712h 0.181345v 4.83979h 0.181345v -2.82925h 0.181345v 1.2704h 0.181345v -0.0777576h
 0.181345v -1.33532h 0.181345v -0.489035h 0.181345v 1.14196h 0.181345v -0.794274h 0.181345v 0.500598h 0.36269v -0.916876h 0.181345v 1.1366h 0.181345v 0.678989h 0.181345v -0.971246h 0.181345v 2.42814h 0.181345v -1.61044h 0.181345v 3.03491h 0.181345v
 -1.59345h 0.181345v -3.1035h 0.181345v 1.58585h 0.181345v -0.668976h 0.181345v 0.072886h 0.181345v 1.61783h 0.181345v 1.18347h 0.181345v -0.347689h 0.181345v -0.672281h 0.181345v 0.845126h 0.181345v -1.33042h 0.181345v 1.77138h 0.181345v -0.699492h
 0.181345v 0.171863h 0.181345v 0.438402h 0.181345v -0.438402h 0.181345v -0.171863h 0.181345v 1.81341h 0.181345v -1.98334h 0.181345v 0.428466h 0.181345v 2.24468h 0.181345v -2.41752h 0.181345v 0.435875h 0.181345v 0.911349h 0.181345v 0.770808h 0.181345v
 1.56054h 0.181345v -1.56054h 0.181345v 0.099173h 0.181345v -2.3881h 0.181345v 3.31119h 0.181345v -1.02227h 0.181345v 0.299491h 0.181345v 1.04344h 0.181345v 1.71396h 0.181345v -3.54323h 0.181345v 1.93768h 0.181345v -2.12792h 0.181345v 1.17908h
 0.181345v -1.46002h 0.181345v 1.8744h 0.181345v 3.6664h 0.181345v -3.45488h 0.181345v -0.727747h 0.181345v 1.94718h 0.181345v -0.342441h 0.181345v -2.29907h 0.181345v 0.69433h 0.181345v 0.204379h 0.181345v 0.846309h 0.181345v 0.329987h 0.181345v
 1.64296h 0.181345v -0.726083h 0.181345v -2.69821h 0.181345v 2.81683h 0.181345v -2.31433h 0.181345v 1.73032h 0.181345v -2.5265h 0.181345v 3.35057h 0.181345v -2.65624h 0.181345v 1.83217h 0.181345v -3.557h 0.181345v 0.553372h 0.181345v 2.33135h
 0.181345v 0.109992h 0.181345v -0.753656h 0.181345v 1.89995h 0.181345v 3.31536h 0.181345v -5.31997h 0.181345v 0.423072h 0.181345v -1.6256h 0.181345v 2.17164h 0.36269v 1.64296h 0.181345v -2.50741h 0.36269v 2.38395h 0.181345v -0.720318h 0.181345v
 1.22032h 0.181345v 1.05252h 0.181345v -4.35085h 0.181345v 1.16803h 0.181345v 0.334859h 0.181345v 1.17298h 0.36269v -0.945547h 0.181345v -0.889893h 0.181345v 1.71396h 0.181345v -1.38636h 0.181345v 1.50784h 0.181345v -1.28542h 0.181345v 0.805261h
 0.181345v 2.85222h 0.181345v -6.32123h 0.181345v 3.00363h 0.181345v 0.230903h 0.181345v -0.345045h 0.181345v -1.81919h 0.181345v 1.26105h 0.181345v 2.88949h 0.181345v -1.6332h 0.181345v -0.236315h 0.181345v -4.35085h 0.181345v 4.94871h 0.181345v
 -1.94308h 0.181345v -0.106883h 0.181345v 2.29589h 0.181345v -2.29589h 0.181345v -1.32482h 0.181345v 2.54425h 0.181345v 1.58063h 0.181345v 0.654813h 0.181345v -5.72524h 0.181345v 2.92329h 0.181345v -0.22079h 0.181345v -1.46137h 0.181345v 0.505861h
 0.181345v 0.737894h 0.181345v -2.66711h 0.181345v 1.32418h 0.181345v -1.14196h 0.181345v -0.716054h 0.181345v 1.18144h 0.181345v -0.647602h 0.36269v -1.71073h 0.181345v -0.864454h 0.181345v -0.0761907h 0.181345v 1.77183h 0.181345v -0.169932h
 0.181345v -0.334242h 0.181345v -0.882808h 0.181345v 0.315091h 0.181345v 0.567717h 0.181345v -2.43723h 0.181345v 0.284024h 0.181345v 0.362699h 0.181345v 0.447042h 0.181345v -1.98165h 0.181345v 2.52047h 0.181345v -0.233277h 0.181345v -0.678989h
 0.181345v 0.602023h 0.181345v 0.232084h 0.181345v -2.37583h 0.181345v 3.17622h 0.181345v -0.485298h 0.181345v -0.315091h 0.181345v -0.0777576h 0.181345v 0.960566h 0.181345v -2.29589h 0.181345v 3.14576h 0.181345v -0.0871693h 0.181345v -2.98742h
 0.181345v 1.657h 0.181345v -2.21721h 0.181345v 1.29097h 0.181345v -0.587407h 0.181345v -0.908401h 0.181345v -1.849h 0.181345v -0.817703h 0.181345v 1.36772h 0.181345v -4.06816h 0.181345v -0.605966h 0.181345v -1.27018h 0.181345v -0.332405h 0.181345v
 -2.10659h 0.181345v -2.40777h 0.181345v -1.45254h 0.181345v -0.782674h 0.181345v -0.693993h 0.181345v -0.494287h 0.181345v -2.76955h 0.181345v 1.46577h 0.181345v -1.96364h 0.181345v -0.875334h 0.181345v 0.129978h 0.181345v 0.647719h 0.181345v
 -0.777697h 0.181345v -1.22477h 0.181345v 1.67514h 0.181345v 0.249669h 0.181345v 0.815552h 0.181345v 0.20577h 0.181345v 1.00649h 0.181345v 0.842327h 0.181345v 1.193h 0.181345v 1.97253h 0.181345v 0.174173h 0.181345v 1.08939h 0.181345v 2.08239h
 0.181345v 1.87615h 0.181345v 1.67976h 0.181345v 0.93967h 0.181345v 2.24274h 0.181345v 1.29041h 0.181345v 2.5265h 0.181345v 1.76325h 0.181345v -0.558727h 0.181345v 0.804649h 0.181345v 2.22156h 0.181345v 2.60502h 0.181345v -0.113288h 0.181345v 1.0515h
 0.181345v -1.82161h 0.36269v 3.75494h 0.181345v -3.64729h 0.181345v 2.84407h 0.181345v -1.13011h 0.181345v 3.07529h 0.181345v -2.33135h 0.181345v 1.18938h 0.181345v -0.672281h 0.181345v 0.132087h 0.181345v 0.817703h 0.181345v -1.84344h 0.181345v
 1.84344h 0.181345v -0.139391h 0.181345v -1.94997h 0.181345v 0.495908h 0.181345v 1.59345h 0.181345v -0.550018h 0.181345v -1.29342h 0.181345v 0.504174h 0.181345v -0.627635h 0.181345v 1.28245h 0.181345v -1.28245h 0.181345v 0.247937h 0.181345v 0.379698h
 0.181345v 0.389476h 0.181345v 1.37584h 0.181345v -0.703561h 0.181345v 0.703561h 0.181345v 1.35528h 0.181345v -2.86206h 0.181345v 0.530715h 0.181345v 3.30742h 0.181345v -2.7574h 0.181345v -1.08073h 0.181345v 1.65151h 0.181345v -1.38848h 0.181345v
 3.5751h 0.181345v -3.44185h 0.181345v 0.270076h 0.181345v -1.55252h 0.181345v 4.7243h 0.181345v -1.74394h 0.181345v -0.296555h 0.181345v -0.856294h 0.181345v -0.138118h 0.181345v 0.560206h 0.181345v -0.282697h 0.181345v 0.716903h 0.181345v 1.38283h
 0.181345v -1.23528h 0.181345v -0.293676h 0.181345v 3.96795h 0.181345v -3.06924h 0.181345v 2.33135h 0.181345v -4.35085h 0.181345v 2.81151h 0.181345v -0.161754h 0.181345v 0.657661h 0.181345v -1.74394h 0.181345v -0.44268h 0.181345v -0.144727h 0.181345v
 2.50033h 0.181345v 1.80259h 0.181345v -3.71551h 0.181345v -1.42784h 0.181345v -0.666356h 0.181345v 2.09419h 0.181345v 1.57683h 0.181345v -2.86779h 0.181345v 3.54763h 0.181345v -0.512721h 0.181345v 0.339876h 0.181345v -2.95659h 0.181345v 4.02459h
 0.181345v -2.6958h 0.181345v 1.45689h 0.181345v 0.343738h 0.181345v -3.12943h 0.181345v 1.3288h 0.181345v 2.51247h 0.181345v -0.711841h 0.181345v -1.95418h 0.181345v -2.13365h 0.181345v 4.98299h 0.181345v -3.44838h 0.181345v 1.06443h 0.181345v
 0.480162h 0.181345v -1.24803h 0.36269v -1.29097h 0.181345v -0.672281h 0.181345v -2.8666h 0.181345v -0.108415h 0.181345v -1.14393h 0.181345v -2.65691h 0.181345v 1.59345h 0.181345v -1.5092h 0.181345v -3.25603h 0.181345v -0.0679724h 0.181345v -2.60974h
 0.181345v -0.724299h 0.181345v -2.22215h 0.181345v -2.74174h 0.181345v 0.929125h 0.181345v -2.63189h 0.181345v -0.751225h 0.181345v -1.27703h 0.181345v -0.422649h 0.181345v -0.951861h 0.181345v -1.3369h 0.181345v -0.797487h 0.181345v -1.43483h
 0.181345v 0.585221h 0.181345v 0.584908h 0.181345v -1.32389h 0.181345v 0.579186h 0.181345v -1.73584h 0.181345v 1.11301h 0.181345v 0.197413h 0.181345v 1.05132h 0.181345v -0.489035h 0.181345v 2.59331h 0.36269v 1.88026h 0.181345v 0.06173h 0.181345v
 2.05047h 0.181345v 0.874875h 0.181345v 1.70646h 0.181345v 0.95368h 0.181345v 1.70323h 0.181345v 2.73738h 0.181345v -0.530715h 0.181345v 3.14476h 0.181345v 2.98742h 0.181345v 3.72652h 0.181345v -2.17164h 0.181345v 2.17164h 0.181345v 3.34701h
 0.181345v 3.76124h 0.181345v -2.45791h 0.181345v 2.63689h 0.181345v 0.181126h 0.181345v 2.57627h 0.181345v 4.2075h 0.181345v -3.54504h 0.181345v 3.54504h 0.181345v 3.16227h 0.181345v -3.44496h 0.181345v 1.46949h 0.181345v -0.605034h 0.181345v
 1.56054h 0.181345v 0.332405h 0.181345v -1.59345h 0.181345v 4.55386h 0.181345v -3.93648h 0.181345v 1.31594h 0.181345v 0.347689h 0.181345v -1.34523h 0.181345v 0.997537h 0.181345v -0.339876h 0.181345v -5.08875h 0.181345v 2.90213h 0.544034v 2.18662h
 0.36269v -1.89295h 0.181345v -1.68216h 0.181345v -0.521563h 0.181345v 1.06176h 0.181345v 1.14196h 0.181345v -1.68216h 0.181345v 5.35643h 0.181345v -3.06924h 0.181345v 1.62779h 0.181345v -2.5265h 0.181345v 2.5265h 0.181345v -0.997537h 0.181345v
 -0.630251h 0.181345v -2.01951h 0.181345v 2.97501h 0.181345v -3.2427h 0.181345v 2.59903h 0.181345v 0.318408h 0.181345v 1.7011h 0.181345v -0.703561h 0.181345v -2.81458h 0.181345v -0.832714h 0.181345v -3.15717h 0.181345v 4.57164h 0.181345v -1.14196h
 0.181345v 0.560206h 0.181345v -0.832714h 0.181345v 3.30742h 0.181345v -0.657661h 0.181345v -0.935793h 0.181345v 1.59345h 0.181345v -4.84676h 0.181345v 1.53934h 0.181345v -2.01951h 0.181345v 5.6668h 0.181345v -0.672281h 0.181345v -2.97501h 0.181345v
 -1.04344h 0.181345v 5.39429h 0.181345v -5.39429h 0.181345v -0.249986h 0.181345v -0.487908h 0.181345v 2.33135h 0.36269v -2.80401h 0.181345v 2.25399h 0.181345v 0.550018h 0.181345v 1.78133h 0.181345v -2.86206h 0.181345v 1.08073h 0.181345v -1.08073h
 0.181345v -0.258533h 0.181345v 0.521563h 0.181345v 2.59903h 0.181345v -1.49863h 0.181345v 0.881249h 0.181345v -0.881249h 0.181345v -3.0867h 0.181345v 4.90374h 0.181345v -1.81704h 0.36269v 1.81704h 0.181345v -0.935793h 0.181345v -3.49529h 0.181345v
 6.49663h 0.181345v -6.00872h 0.181345v 3.31293h 0.181345v 2.6958h 0.181345v -5.24602h 0.181345v 3.83813h 0.181345v -4.09667h 0.181345v 2.20372h 0.36269v 6.13218h 0.181345v -6.99664h 0.181345v 2.09974h 0.181345v 4.8969h 0.181345v -7.27415h 0.36269v
 0.848287h 0.181345v 0.593167h 0.181345v -0.299491h 0.181345v 0.299491h 0.181345v 0.617385h 0.181345v 2.7574h 0.181345v -1.44145h 0.181345v -0.339876h 0.181345v 0.687565h 0.181345v 2.68722h 0.181345v -3.70719h 0.181345v -2.1423h 0.181345v -4.42202h
 0.181345v 5.30327h 0.181345v 1.26105h 0.181345v 1.01997h 0.181345v -5.77631h 0.181345v 5.08875h 0.181345v -3.03491h 0.181345v -1.31594h 0.181345v 4.69073h 0.181345v -3.64729h 0.181345v 6.26782h 0.181345v -2.62053h 0.181345v 5.2964h 0.36269v
 -9.47441h 0.181345v 4.88157h 0.181345v -4.35085h 0.181345v 2.97501h 0.181345v 6.46459h 0.181345v -5.79231h 0.181345v -3.09728h 0.181345v 6.99664h 0.181345v -3.1958h 0.181345v 0.364447h 0.181345v -2.6958h 0.181345v 1.97548h 0.181345v 0.720318h
 0.181345v -3.30083h 0.181345v -1.41447h 0.181345v 0.832714h 0.181345v 1.49863h 0.181345v 2.01951h 0.181345v 1.51364h 0.181345v -1.51364h 0.181345v -1.37584h 0.181345v 2.11374h 0.181345v 2.9094h 0.181345v -2.5265h 0.181345v 2.07501h 0.181345v
 1.39704h 0.181345v -3.0792h 0.181345v -2.88949h 0.181345v 2.49664h 0.181345v 0.796175h 0.181345v 1.27883h 0.181345v 0.451491h 0.181345v 3.60569h 0.181345v -7.95654h 0.181345v 7.38576h 0.181345v -5.94431h 0.181345v 5.94431h 0.181345v -4.35085h
 0.181345v -2.33135h 0.181345v 3.1958h 0.181345v -2.07501h 0.181345v 1.6366h 0.181345v 0.438402h 0.181345v 0.451491h 0.181345v 0.945547h 0.181345v 5.18664h 0.181345v -4.69073h 0.181345v -4.35085h 0.181345v 1.59345h 0.181345v 4.92163h 0.181345v
 3.23006h 0.36269v -3.80084h 0.181345v -1.59345h 0.181345v 2.16423h 0.36269v 1.21055h 0.181345v -1.78133h 0.181345v 1.78133h 0.181345v -2.86206h 0.181345v 0.530715h 0.181345v 2.33135h 0.181345v -5.70613h 0.181345v 12.8144h 0.181345v -9.4396h
 0.181345v 12.8144h 0.181345v -13.3451h 0.181345v 4.88157h 0.181345v 3.1958h 0.181345v -5.21531h 0.181345v -5.70613h 0.181345v 10.9214h 0.181345v -5.21531h 0.181345v 0.643664h 0.181345v 2.11374h 0.181345v -0.737894h 0.181345v 3.1958h 0.181345v
 -6.42586h 0.181345v 10.483h 0.36269v -9.27248h 0.181345v 9.27248h 0.181345v -4.05718h 0.181345v -3.89936h 0.181345v 4.81624h 0.181345v 2.01951h 0.181345v 5.08875h 0.181345v -1.44145h 0.181345v -9.04158h 0.181345v 0.775751h 0.181345v 6.94989h
 0.181345v -5.26773h 0.181345v -3.1958h 0.181345v -3.80084h 0.181345v 6.13218h 0.181345v 4.92163h 0.36269v -3.1403h 0.36269v 4.35085h 0.181345v -3.37478h 0.181345v -3.5751h 0.181345v 5.73933h 0.181345v -4.05718h 0.36269v -1.68216h 0.181345v 13.0821h
 0.181345v -12.2644h 0.181345v 3.80084h 0.181345v -1.04344h 0.181345v -2.7574h 0.181345v 4.92163h 0.36269v -3.1403h 0.36269v 3.1403h 0.181345v -1.1208h 0.181345v -4.61854h 0.181345v -3.53315h 0.181345v 2.01951h 0.181345v -1.37584h 0.181345v -4.51436h
 0.181345v 6.62809h 0.181345v -4.53873h 0.181345v 1.78133h 0.181345v -0.617385h 0.181345v 0.617385h 0.181345v -2.86206h 0.36269v 2.86206h 0.181345v -3.87069h 0.181345v -4.22839h 0.181345v 5.76774h 0.181345v -6.48805h 0.181345v -0.347689h 0.181345v
 1.44145h 0.181345v 0.775751h 0.36269v 0.817703h 0.181345v 2.7574h 0.181345v -0.495908h 0.181345v -7.8229h 0.181345v 0.293676h 0.181345v 3.67428h 0.181345v -1.44145h 0.181345v 3.03491h 0.181345v 2.26149h 0.36269v -0.480162h 0.36269v 2.01951h 0.36269v
 6.6822h 0.181345v -7.21292h 0.181345v 8.99425h 0.181345v -7.34274h 0.181345v 0.593167h 0.181345v 1.26105h 0.181345v -2.42499h 0.181345v 3.09728h 0.36269v -2.5265h 0.181345v -4.05718h 0.181345v 10.483h 0.181345v -0.864454h 0.181345v -6.6822h
 0.181345v 2.33135h 0.181345v -2.33135h 0.181345v 1.71396h 0.181345v -6.3325h 0.181345v -0.775751h 0.181345v 2.9094h 0.181345v -5.97864h 0.181345v 2.6958h 0.181345v -5.50455h 0.181345v 3.1206h 0.181345v -2.33135h 0.181345v 3.30742h 0.181345v
 -8.12366h 0.181345v -0.195149h 0.181345v 1.85422h 0.181345v -2.97501h 0.181345v -4.88157h 0.181345v 0.26303h 0.181345v -0.775751h 0.181345v -0.617385h 0.181345v -0.358685h 0.181345v 0.480162h 0.181345v -1.61783h 0.181345v -1.56054h 0.181345v
 -0.864454h 0.181345v 3.92134h 0.181345v -5.59859h 0.181345v 2.84119h 0.181345v 1.7059h 0.181345v -6.4302h 0.181345v 0.756349h 0.181345v 1.46474h 0.181345v -1.15128h 0.181345v -2.06891h 0.181345v 0.208608h 0.181345v 3.01159h 0.181345v -2.36792h
 0.181345v 1.13767h 0.181345v -1.5698h 0.181345v -0.625903h 0.181345v 0.20577h 0.181345v -0.609095h 0.181345v 0.609095h 0.181345v -0.741182h 0.181345v -1.97011h 0.181345v 2.36988h 0.181345v -0.789248h 0.181345v 0.258533h 0.181345v -2.57156h 0.181345v
 0.79023h 0.181345v -0.624337h 0.181345v 1.33618h 0.181345v -1.11212h 0.181345v 1.0515h 0.181345v 1.06506h 0.181345v -0.321112h 0.181345v -0.0634124h 0.181345v -0.188657h 0.181345v 0.638231h 0.181345v 1.79764h 0.181345v -3.40412h 0.181345v 3.04142h
 0.181345v 0.88555h 0.181345v -1.65413h 0.181345v 3.17178h 0.181345v 1.13373h 0.181345v 1.92921h 0.181345v 1.28791h 0.181345v 0.339876h 0.181345v 0.945547h 0.181345v 1.27166h 0.181345v 1.83116h 0.181345v 1.57683h 0.181345v 3.12752h 0.181345v
 -1.73584h 0.181345v 0.368892h 0.181345v 4.53873h 0.181345v 3.69319h 0.181345v -0.318408h 0.181345v 0.318408h 0.181345v 4.4585h 0.181345v 0.438402h 0.181345v 0.451491h 0.181345v 4.19885h 0.181345v 3.37478h 0.181345v -3.96795h 0.181345v 2.5265h
 0.181345v 9.16709h 0.181345v 6.13218h 0.181345v -7.34274h 0.181345v 9.36224h 0.36269v -10.483h 0.36269v 6.6822h 0.181345v -1.59345h 0.181345v 13.8578h 0.181345v -12.2644h 0.181345v 1.78133h 0.181345v 2.01951h 0.181345v 5.08875h 0.181345v -8.88958h
 0.181345v 12.2644h 0.181345v 4.35085h 0.181345v -4.35085h 0.181345v -8.46353h 0.181345v 8.46353h 0.181345v 4.35085h 0.181345v -4.35085h 0.181345v -6.13218h 0.181345v 6.13218h 0.181345v -6.13218h 0.181345v 2.7574h 0.181345v 3.37478h 0.181345v
 20.9661h 0.181345v -16.6152h 0.181345v -4.35085h 0.181345v 20.9661h 0.181345v -27.0983h 0.36269v 27.0983h 0.181345v -20.9661h 0.36269v 20.9661h 0.36269v -20.9661h 0.181345v 10.483h 0.181345v -10.483h 0.181345v -8.46353h 0.181345v 12.8144h 0.36269v
 6.13218h 0.36269v -6.13218h 0.181345v -10.483h 0.181345v 2.7574h 0.181345v -2.7574h 0.181345v 16.6152h 0.181345v -10.483h 0.36269v 20.9661h 0.181345v -24.3409h 0.181345v -5.08875h 0.181345v 5.08875h 0.181345v -7.10825h 0.181345v 7.10825h 0.181345v
 -7.10825h 0.181345v 4.35085h 0.181345v -2.33135h 0.181345v 8.46353h 0.181345v -8.46353h 0.181345v 12.8144h 0.36269v -10.483h 0.181345v -2.33135h 0.181345v 5.08875h 0.181345v -8.88958h 0.181345v 8.88958h 0.36269v 3.37478h 0.181345v 4.35085h 0.181345v
 -14.8339h 0.181345v 20.9661h 0.181345v -16.6152h 0.181345v -4.35085h 0.181345v -3.37478h 0.181345v 1.59345h 0.181345v 3.80084h 0.181345v 2.33135h 0.181345v -9.16709h 0.181345v 4.81624h 0.181345v -4.81624h 0.181345v 1.44145h 0.181345v -2.7574h
 0.36269v -1.21055h 0.181345v -3.1403h 0.181345v -4.81624h 0.181345v 3.03491h 0.181345v -2.33135h 0.181345v 8.46353h 0.181345v -2.33135h 0.181345v -2.01951h 0.181345v -3.37478h 0.181345v 5.39429h 0.181345v -3.80084h 0.181345v 3.80084h 0.181345v
 -9.36224h 0.181345v 7.34274h 0.181345v -7.91351h 0.181345v 9.93302h 0.181345v -4.61854h 0.181345v -6.39521h 0.181345v 1.65151h 0.181345v 9.36224h 0.181345v -5.39429h 0.181345v 4.35085h 0.181345v -0.976069h 0.181345v -0.916876h 0.181345v 1.89295h
 0.181345v -1.89295h 0.181345v 0.916876h 0.181345v 0.976069h 0.181345v -3.5751h 0.181345v 6.94989h 0.181345v -2.33135h 0.181345v 6.6822h 0.181345v -1.59345h 0.181345v 10.483h 0.181345v -17.5913h 0.181345v 10.483h 0.181345v 31.4491h 0.181345v
 -20.9661h 0.181345v -12.2644h 0.181345v -4.35085h 0.181345v 27.0983h 0.181345v -10.483h 0.181345v -13.8578h 0.36269v 10.483h 0.181345v -7.10825h 0.181345v 7.10825h 0.181345v 7.72564h 0.181345v -10.483h 0.181345v 6.13218h 0.181345v -6.13218h
 0.181345v 27.0983h 0.181345v -27.0983h 0.181345v 6.13218h 0.181345v 4.35085h 0.181345v -7.72564h 0.181345v 7.72564h 0.181345v -7.72564h 0.181345v 7.72564h 0.181345v -4.35085h 0.181345v 10.483h 0.181345v -6.13218h 0.181345v -7.72564h 0.181345v
 3.37478h 0.36269v 10.483h 0.181345v -10.483h 0.181345v 4.35085h 0.181345v -12.8144h 0.181345v 12.8144h 0.181345v 6.13218h 0.181345v -16.6152h 0.181345v 16.6152h 0.181345v -10.483h 0.36269v 4.35085h 0.181345v -7.72564h 0.181345v 7.72564h 0.181345v
 6.13218h 0.181345v 10.483h 0.181345v -27.0983h 0.181345v 16.6152h 0.181345v -10.483h 0.181345v 10.483h 0.544034v -13.8578h 0.181345v 7.72564h 0.181345v -7.72564h 0.181345v 24.3409h 0.181345v -33.2304h 0.181345v 1.78133h 0.181345v 4.35085h 0.36269v
 2.7574h 0.181345v 7.72564h 0.181345v -12.8144h 0.181345v 8.46353h 0.181345v 4.35085h 0.36269v -12.8144h 0.181345v 8.46353h 0.181345v 4.35085h 0.181345v -14.8339h 0.181345v 14.8339h 0.181345v 6.13218h 0.181345v -18.9466h 0.181345v 5.08875h 0.181345v
 -10.483h 0.181345v 18.2087h 0.181345v -20.9661h 0.181345v 6.13218h 0.181345v 4.35085h 0.181345v -4.35085h 0.181345v -1.78133h 0.181345v 22.7474h 0.181345v -10.483h 0.181345v -3.37478h 0.181345v -13.2404h 0.181345v 6.13218h 0.181345v 2.01951h
 0.181345v 12.8144h 0.181345v -22.1766h 0.181345v 11.6936h 0.181345v 2.7574h 0.36269v -13.2404h 0.181345v 8.15169h 0.36269v -2.01951h 0.181345v 7.10825h 0.181345v -2.7574h 0.181345v -2.33135h 0.181345v -2.01951h 0.181345v 4.35085h 0.181345v -13.8578h
 0.181345v 4.69073h 0.181345v 4.81624h 0.181345v -3.37478h 0.181345v 10.483h 0.36269v 3.37478h 0.181345v -3.37478h 0.36269v -5.08875h 0.181345v 8.46353h 0.181345v -3.37478h 0.181345v -8.88958h 0.181345v 12.2644h 0.181345v -6.13218h 0.36269v 2.7574h
 0.181345v 7.72564h 0.544034v -4.35085h 0.181345v 10.483h 0.36269v 10.483h 0.181345v -20.9661h 0.181345v -8.46353h 0.181345v 2.33135h 0.181345v 6.13218h 0.36269v 10.483h 0.544034v -13.8578h 0.181345v -2.7574h 0.181345v 16.6152h 0.181345v -18.9466h
 0.181345v 8.46353h 0.36269v -8.46353h 0.181345v 2.33135h 0.181345v 2.7574h 0.36269v -2.7574h 0.36269v -2.33135h 0.36269v 5.08875h 0.181345v 3.37478h 0.181345v -6.13218h 0.181345v -4.35085h 0.181345v 7.10825h 0.181345v -5.08875h 0.181345v 12.8144h
 0.181345v -14.8339h 0.181345v -6.13218h 0.181345v 8.15169h 0.36269v 2.33135h 0.181345v -4.35085h 0.36269v -3.37478h 0.181345v 34.8239h 0.181345v -31.4491h 0.36269v 2.01951h 0.181345v -9.36224h 0.181345v 9.36224h 0.181345v 5.08875h 0.181345v
 -5.08875h 0.181345v 2.33135h 0.181345v -7.72564h 0.181345v 13.8578h 0.181345v -10.483h 0.36269v -1.78133h 0.181345v -1.59345h 0.181345v 7.72564h 0.181345v -4.35085h 0.181345v -1.78133h 0.181345v -1.59345h 0.181345v 10.483h 0.181345v -5.08875h
 0.181345v 5.08875h 0.181345v -10.483h 0.181345v 7.72564h 0.181345v -2.33135h 0.181345v 8.46353h 0.181345v -8.46353h 0.181345v -2.01951h 0.181345v -6.13218h 0.36269v 20.9661h 0.181345v -7.72564h 0.181345v -8.88958h 0.181345v -7.72564h 0.181345v
 4.69073h 0.36269v -6.58367h 0.181345v 18.5082h 0.181345v -14.451h 0.181345v 11.6936h 0.181345v -13.8578h 0.181345v -1.89295h 0.181345v 2.93638h 0.181345v 5.08875h 0.181345v -3.96795h 0.181345v -2.16423h 0.181345v 13.8578h 0.181345v -4.35085h
 0.181345v -3.37478h 0.181345v 7.72564h 0.181345v -9.16709h 0.181345v 3.03491h 0.181345v 3.80084h 0.181345v -9.36224h 0.181345v 5.56141h 0.181345v -4.35085h 0.181345v -2.33135h 0.181345v 1.1208h 0.181345v 7.34274h 0.181345v -3.37478h 0.181345v
 -2.7574h 0.181345v 8.15169h 0.181345v -5.39429h 0.36269v 3.37478h 0.181345v -4.81624h 0.181345v -3.64729h 0.181345v 10.483h 0.181345v -5.39429h 0.181345v -2.7574h 0.36269v -5.26773h 0.181345v 11.3999h 0.181345v 2.01951h 0.181345v -11.5265h 0.181345v
 6.13218h 0.181345v -2.7574h 0.181345v 1.31594h 0.181345v -2.5265h 0.181345v 2.5265h 0.181345v -6.58367h 0.181345v 11.3999h 0.181345v -4.81624h 0.181345v -3.64729h 0.181345v -2.01951h 0.181345v 4.35085h 0.36269v -7.72564h 0.181345v 5.39429h 0.181345v
 -5.39429h 0.181345v 6.51509h 0.181345v 1.21055h 0.181345v 6.13218h 0.181345v -8.46353h 0.181345v -2.01951h 0.181345v 2.01951h 0.181345v -6.13218h 0.181345v 7.25298h 0.181345v -3.1403h 0.181345v 5.6668h 0.181345v -1.31594h 0.181345v -8.46353h
 0.181345v 8.46353h 0.181345v -1.21055h 0.36269v 3.96795h 0.181345v -8.02513h 0.36269v -1.68216h 0.36269v 2.59903h 0.181345v 0.976069h 0.181345v -6.46459h 0.181345v 3.70719h 0.181345v 0.864454h 0.181345v 1.89295h 0.181345v -3.5751h 0.181345v 3.5751h
 0.181345v -2.7574h 0.181345v -1.59345h 0.181345v -3.96795h 0.181345v 7.34274h 0.181345v -2.59903h 0.181345v 5.73933h 0.181345v -10.483h 0.181345v 0.593167h 0.181345v 12.4164h 0.181345v -12.4164h 0.181345v 1.93333h 0.181345v 3.03491h 0.181345v
 -4.35085h 0.181345v 8.15169h 0.181345v -4.61854h 0.181345v -6.39521h 0.181345v 8.07737h 0.181345v -6.99664h 0.36269v -2.56952h 0.181345v 4.99452h 0.181345v -2.97501h 0.181345v 1.1208h 0.181345v 6.42586h 0.181345v -3.89936h 0.181345v -6.13218h
 0.181345v 8.34939h 0.181345v -2.21721h 0.544034v 1.44145h 0.36269v -4.53873h 0.181345v 3.09728h 0.181345v 4.81624h 0.181345v -10.483h 0.181345v 0.976069h 0.181345v 8.59009h 0.181345v -4.57164h 0.181345v -0.643664h 0.181345v 1.31594h 0.181345v
 7.95654h 0.181345v -4.05718h 0.181345v -5.21531h 0.181345v -0.617385h 0.181345v 6.74957h 0.181345v -0.916876h 0.181345v -8.07737h 0.181345v 6.39521h 0.181345v -3.53315h 0.181345v 1.31594h 0.181345v -2.5265h 0.181345v 5.56141h 0.181345v -1.59345h
 0.181345v 1.59345h 0.181345v -3.03491h 0.181345v -1.31594h 0.181345v 2.7574h 0.181345v 4.35085h 0.181345v -6.46459h 0.181345v 2.11374h 0.181345v 10.483h 0.181345v 7.72564h 0.181345v -20.9661h 0.181345v 5.21531h 0.36269v -1.68216h 0.181345v 2.59903h
 0.181345v 3.1403h 0.36269v -4.92163h 0.181345v 1.78133h 0.181345v 3.1403h 0.181345v -2.16423h 0.181345v 3.37478h 0.181345v 6.13218h 0.181345v -7.34274h 0.181345v -4.92163h 0.181345v 3.80084h 0.181345v -6.83574h 0.181345v 3.89936h 0.181345v 1.89295h
 0.181345v 1.04344h 0.181345v 5.08875h 0.181345v -1.44145h 0.181345v -7.44813h 0.181345v 0.864454h 0.181345v 0.916876h 0.181345v 4.35085h 0.181345v 2.7574h 0.181345v -8.02513h 0.181345v 0.916876h 0.181345v -1.78133h 0.36269v 6.13218h 0.181345v
 1.31594h 0.181345v -6.58367h 0.181345v 11.3999h 0.181345v -1.78133h 0.181345v -7.72564h 0.181345v 11.5265h 0.181345v -8.15169h 0.181345v 2.7574h 0.36269v -5.08875h 0.181345v 1.1208h 0.181345v 1.21055h 0.181345v -1.21055h 0.181345v 1.21055h 0.181345v
 -9.16709h 0.181345v 3.03491h 0.181345v 3.80084h 0.181345v 6.6822h 0.181345v 1.78133h 0.181345v -13.0821h 0.181345v 6.94989h 0.181345v 13.2404h 0.181345v -19.3726h 0.181345v 3.80084h 0.181345v -2.01951h 0.181345v 7.10825h 0.181345v -6.13218h
 0.181345v 4.69073h 0.181345v 6.83574h 0.181345v -3.80084h 0.36269v 1.78133h 0.181345v -1.78133h 0.181345v -3.03491h 0.181345v -2.5265h 0.181345v -1.1208h 0.181345v 3.64729h 0.181345v -7.44813h 0.181345v 14.2839h 0.181345v -8.15169h 0.181345v
 -3.37478h 0.181345v 7.72564h 0.181345v -7.72564h 0.181345v 3.37478h 0.36269v -10.483h 0.181345v 8.15169h 0.181345v 1.1208h 0.181345v -7.25298h 0.181345v 6.13218h 0.181345v 3.64729h 0.181345v -4.69073h 0.181345v -1.89295h 0.36269v 4.05718h 0.181345v
 -2.16423h 0.181345v 1.04344h 0.181345v -2.93638h 0.181345v 5.26773h 0.181345v -4.35085h 0.181345v 0.976069h 0.181345v 6.13218h 0.36269v -3.96795h 0.181345v -7.95654h 0.181345v 9.16709h 0.181345v -6.94989h 0.181345v 2.59903h 0.181345v -6.74957h
 0.181345v 9.88987h 0.181345v -2.16423h 0.181345v -1.89295h 0.181345v -1.68216h 0.181345v 11.3007h 0.181345v -8.70171h 0.181345v -1.78133h 0.181345v 8.88958h 0.181345v -5.08875h 0.181345v -7.50802h 0.181345v 6.46459h 0.181345v 3.37478h 0.181345v
 -4.35085h 0.181345v -0.916876h 0.181345v 1.89295h 0.181345v 1.04344h 0.181345v 3.64729h 0.181345v -11.1553h 0.181345v 12.5968h 0.181345v -2.7574h 0.181345v -6.13218h 0.181345v 8.88958h 0.181345v -7.10825h 0.181345v -2.59903h 0.181345v 13.0821h
 0.181345v -6.13218h 0.181345v -6.13218h 0.181345v 2.7574h 0.181345v -5.08875h 0.544034v 3.1958h 0.36269v 6.58367h 0.181345v -4.69073h 0.181345v -7.72564h 0.181345v -2.24468h 0.181345v 19.4773h 0.181345v -15.9716h 0.181345v 5.48852h 0.181345v
 -3.37478h 0.181345v 5.39429h 0.181345v 3.64729h 0.181345v -9.77948h 0.181345v -1.37584h 0.181345v 3.70719h 0.36269v 1.78133h 0.181345v 3.1403h 0.181345v -6.51509h 0.181345v 7.72564h 0.181345v -8.46353h 0.181345v -1.37584h 0.181345v 4.57164h
 0.181345v -3.89936h 0.544034v 7.95654h 0.181345v -6.51509h 0.181345v -3.96795h 0.181345v 2.5265h 0.181345v -4.17801h 0.181345v 4.88157h 0.181345v -2.63689h 0.36269v 3.37478h 0.181345v 0.775751h 0.181345v 4.61854h 0.181345v -5.39429h 0.181345v
 -2.11374h 0.181345v -3.50573h 0.181345v 8.99425h 0.181345v -0.916876h 0.36269v -5.83269h 0.36269v 9.88987h 0.181345v -4.05718h 0.181345v 1.89295h 0.181345v -4.35085h 0.181345v -1.44145h 0.181345v 5.79231h 0.181345v -2.7574h 0.181345v -0.817703h
 0.181345v -3.53315h 0.181345v 5.21531h 0.181345v 1.89295h 0.181345v -10.9789h 0.181345v 8.22155h 0.181345v -6.13218h 0.181345v 3.09728h 0.181345v 5.79231h 0.181345v 4.69073h 0.181345v -8.26583h 0.181345v 4.61854h 0.181345v 2.33135h 0.181345v
 -8.46353h 0.181345v 8.46353h 0.36269v -5.26773h 0.181345v 2.93638h 0.181345v 3.64729h 0.181345v -3.64729h 0.181345v -1.04344h 0.181345v -4.35085h 0.181345v 3.37478h 0.181345v 3.1403h 0.181345v -1.1208h 0.181345v 1.1208h 0.181345v -7.95654h 0.181345v
 7.95654h 0.181345v -3.1403h 0.181345v 4.35085h 0.181345v 2.7574h 0.181345v -10.483h 0.181345v 13.8578h 0.181345v -7.34274h 0.36269v -1.1208h 0.36269v 6.6822h 0.181345v -7.72564h 0.181345v 6.13218h 0.181345v -3.96795h 0.181345v -2.16423h 0.181345v
 -6.46459h 0.181345v 5.48852h 0.181345v 0.976069h 0.181345v 1.04344h 0.181345v 1.1208h 0.181345v -2.16423h 0.181345v 2.16423h 0.36269v -3.1403h 0.181345v 2.01951h 0.181345v -8.76907h 0.181345v 4.15054h 0.181345v 5.73933h 0.181345v -4.05718h 0.181345v
 -0.864454h 0.181345v 7.44813h 0.181345v -4.69073h 0.36269v 6.13218h 0.181345v -9.70729h 0.181345v -0.775751h 0.181345v 12.0765h 0.181345v -6.6822h 0.181345v 1.1208h 0.36269v -8.62882h 0.181345v 2.88949h 0.181345v 0.817703h 0.181345v 0.864454h
 0.181345v 1.89295h 0.181345v 3.37478h 0.181345v -4.35085h 0.36269v 0.976069h 0.181345v 6.13218h 0.181345v -2.7574h 0.181345v -3.37478h 0.181345v 4.69073h 0.181345v -6.58367h 0.181345v 5.26773h 0.181345v 8.15169h 0.181345v -9.36224h 0.181345v
 -2.16423h 0.181345v 1.04344h 0.181345v 3.64729h 0.181345v 1.44145h 0.181345v -5.08875h 0.181345v 5.08875h 0.181345v 7.72564h 0.181345v 6.13218h 0.181345v -10.483h 0.181345v -3.37478h 0.181345v -7.10825h 0.181345v 12.5025h 0.181345v 5.08875h
 0.181345v -10.483h 0.181345v 7.72564h 0.181345v -6.13218h 0.181345v -1.59345h 0.181345v 5.39429h 0.181345v 12.8144h 0.181345v -22.1766h 0.181345v 11.6936h 0.181345v -7.72564h 0.181345v 1.59345h 0.181345v 6.13218h 0.181345v -4.35085h 0.181345v
 2.01951h 0.181345v 5.08875h 0.181345v 3.37478h 0.181345v -12.2644h 0.181345v 6.13218h 0.181345v -2.33135h 0.181345v -5.39429h 0.181345v 7.72564h 0.181345v 2.7574h 0.181345v 3.37478h 0.181345v -6.13218h 0.181345v -7.72564h 0.181345v 7.72564h
 0.544034v 2.7574h 0.36269v -11.9245h 0.181345v 6.83574h 0.181345v 5.08875h 0.181345v -8.88958h 0.181345v 1.78133h 0.181345v -1.78133h 0.181345v 12.2644h 0.181345v 4.35085h 0.181345v -12.8144h 0.36269v -16.6152h 0.181345v 16.6152h 0.181345v -3.80084h
 0.36269v 1.78133h 0.181345v -10.483h 0.181345v 7.10825h 0.181345v 10.483h 0.181345v -7.10825h 0.181345v -1.78133h 0.36269v 6.13218h 0.181345v -4.35085h 0.181345v 2.01951h 0.36269v 18.9466h 0.181345v -13.8578h 0.181345v -7.10825h 0.181345v 2.01951h
 0.181345v -3.80084h 0.181345v -5.56141h 0.181345v 9.36224h 0.181345v -2.01951h 0.36269v -3.37478h 0.181345v 3.37478h 0.181345v -3.37478h 0.544034v 5.39429h 0.181345v 5.08875h 0.181345v -8.88958h 0.181345v -4.35085h 0.181345v 10.483h 0.181345v
 -6.13218h 0.181345v 8.88958h 0.181345v -10.483h 0.36269v 1.59345h 0.181345v -6.6822h 0.181345v 15.5718h 0.181345v -8.88958h 0.181345v -5.56141h 0.181345v 5.56141h 0.181345v 8.88958h 0.36269v -8.88958h 0.36269v -3.03491h 0.181345v 11.9245h 0.181345v
 -2.7574h 0.181345v -6.13218h 0.181345v 3.80084h 0.181345v -5.39429h 0.181345v 3.37478h 0.181345v 2.01951h 0.181345v -3.80084h 0.181345v 8.88958h 0.181345v -7.10825h 0.544034v -6.13218h 0.181345v 2.7574h 0.36269v 5.39429h 0.181345v -2.01951h
 0.181345v -1.78133h 0.181345v -1.59345h 0.181345v -1.44145h 0.36269v 15.2993h 0.181345v -16.6152h 0.181345v 6.13218h 0.181345v -9.50697h 0.181345v 2.16423h 0.181345v 7.34274h 0.181345v -7.34274h 0.181345v 1.21055h 0.181345v -6.13218h 0.181345v
 7.44813h 0.181345v 6.83574h 0.36269v -6.83574h 0.181345v 9.16709h 0.181345v -2.33135h 0.181345v -9.36224h 0.181345v 5.56141h 0.181345v -1.59345h 0.181345v 5.39429h 0.181345v -11.5265h 0.181345v -1.89295h 0.181345v 13.4194h 0.36269v -2.01951h
 0.181345v -9.50697h 0.181345v 4.69073h 0.181345v -3.64729h 0.36269v 1.1208h 0.181345v -4.05718h 0.181345v 9.61858h 0.181345v 3.80084h 0.181345v -3.80084h 0.181345v -11.3007h 0.181345v 2.59903h 0.181345v 3.1403h 0.181345v 1.21055h 0.181345v -6.13218h
 0.181345v 7.44813h 0.181345v -1.31594h 0.181345v -6.13218h 0.181345v 7.44813h 0.181345v -2.5265h 0.181345v -4.92163h 0.181345v 6.13218h 0.181345v -2.33135h 0.181345v -3.80084h 0.181345v 6.13218h 0.181345v 1.31594h 0.181345v -8.26583h 0.181345v
 2.59903h 0.181345v 2.01951h 0.181345v -5.39429h 0.181345v 18.2087h 0.181345v -17.4329h 0.181345v 3.5751h 0.181345v 2.16423h 0.181345v -7.95654h 0.181345v 13.5179h 0.181345v -5.56141h 0.181345v -6.51509h 0.181345v 3.37478h 0.181345v 0.976069h
 0.181345v -2.7574h 0.181345v -0.817703h 0.36269v 5.73933h 0.181345v -5.73933h 0.181345v 6.94989h 0.181345v -5.26773h 0.36269v 0.916876h 0.181345v -0.916876h 0.181345v -1.68216h 0.36269v 13.0821h 0.181345v -7.34274h 0.181345v -2.16423h 0.181345v
 -3.5751h 0.181345v 9.70729h 0.181345v -1.44145h 0.181345v 4.81624h 0.181345v 2.01951h 0.181345v -6.83574h 0.181345v 4.81624h 0.181345v -8.46353h 0.181345v 2.33135h 0.181345v 1.31594h 0.181345v -2.5265h 0.181345v 3.96795h 0.181345v 5.39429h 0.181345v
 -3.80084h 0.181345v -4.35085h 0.36269v -1.21055h 0.181345v 17.8258h 0.181345v -8.46353h 0.181345v -3.80084h 0.181345v 12.2644h 0.181345v -3.37478h 0.181345v -7.10825h 0.181345v 2.01951h 0.181345v -6.83574h 0.181345v 11.9245h 0.181345v -10.483h
 0.181345v 3.37478h 0.181345v 2.01951h 0.36269v 5.08875h 0.181345v 7.72564h 0.181345v -7.72564h 0.181345v -2.7574h 0.181345v 6.13218h 0.181345v -10.483h 0.181345v 10.483h 0.181345v -6.13218h 0.181345v -7.72564h 0.181345v 18.2087h 0.181345v -4.35085h
 0.181345v 4.35085h 0.36269v -10.483h 0.181345v 10.483h 0.725379v -4.35085h 0.181345v 31.4491h 0.181345v -31.4491h 0.181345v 20.9661h 0.181345v 10.483h 0.181345v -20.9661h 0.181345v 10.483h 0.36269v 10.483h 0.181345v -10.483h 0.181345v 10.483h
 0.181345v -20.9661h 0.181345v 10.483h 0.36269v -10.483h 0.544034v 20.9661h 0.181345v -27.0983h 0.181345v 6.13218h 0.544034v 10.483h 0.181345v -16.6152h 0.181345v 6.13218h 0.544034v 20.9661h 0.181345v -27.0983h 0.181345v 6.13218h 0.181345v 20.9661h
 0.181345v -10.483h 0.181345v 10.483h 0.181345v -10.483h 0.181345v -16.6152h 0.181345v 27.0983h 0.181345v -10.483h 0.181345v 10.483h 0.181345v -10.483h 0.181345v -10.483h 0.181345v 20.9661h 0.181345v -20.9661h 0.36269v 20.9661h 0.544034v -20.9661h
 0.181345v 10.483h 0.181345v 10.483h 0.181345v -31.4491h 0.181345v 4.35085h 0.181345v 16.6152h 0.181345v -10.483h 0.181345v 10.483h 0.181345v -16.6152h 0.181345v 27.0983h 0.36269v -20.9661h 0.181345v 10.483h 0.725379v 10.483h 0.181345v -27.0983h
 0.181345v 6.13218h 0.181345v -6.13218h 0.181345v 27.0983h 0.181345v -20.9661h 0.181345v 20.9661h 0.181345v -10.483h 0.181345v 10.483h 0.181345v -10.483h 0.181345v 10.483h 0.181345v -10.483h 0.181345v -10.483h 0.544034v 20.9661h 0.36269v -10.483h
 0.36269v 10.483h 0.36269v -27.0983h 0.36269v 6.13218h 0.181345v 20.9661h 0.181345v -27.0983h 0.181345v 27.0983h 0.181345v -10.483h 0.36269v -10.483h 0.181345v 10.483h 0.181345v 10.483h 0.181345v -10.483h 0.181345v 10.483h 0.181345v -20.9661h
 0.181345v 20.9661h 0.181345v -10.483h 0.36269v 10.483h 0.181345v -10.483h 0.181345v 10.483h 0.36269v -31.4491h 0.181345v 10.483h 0.181345v 10.483h 0.181345v 10.483h 0.181345v -20.9661h 0.181345v 10.483h 0.36269v 10.483h 0.181345v -10.483h 0.36269v
 10.483h 0.725379v -10.483h 0.181345v 10.483h 0.36269v -10.483h 0.36269v 10.483h 0.181345v -27.0983h 0.181345v 6.13218h 0.181345v 10.483h 0.181345v 10.483h 0.181345v -10.483h 0.36269v 10.483h 0.181345v -10.483h 0.544034v 10.483h 0.906724v -20.9661h
 0.181345v 10.483h 0.725379v 10.483h 0.181345v -10.483h 0.36269v 10.483h 0.181345v -27.0983h 0.181345v 16.6152h 0.181345v -10.483h 0.181345v 20.9661h 0.181345v -10.483h 0.725379v 10.483h 0.181345v -10.483h 0.36269v 10.483h 0.181345v -20.9661h
 0.181345v 10.483h 0.181345v 10.483h 0.181345v -10.483h 0.36269v -10.483h 0.181345v 20.9661h 0.36269v -31.4491h 0.181345v 20.9661h 0.181345v -16.6152h 0.181345v 27.0983h 0.181345v -10.483h 0.181345v 10.483h 0.544034v -10.483h 0.181345v -10.483h
 0.181345v 10.483h 0.36269v -10.483h 0.36269v 20.9661h 0.36269v -20.9661h 0.181345v 20.9661h 0.181345v -10.483h 0.36269v 10.483h 0.725379v -10.483h 0.36269v -10.483h 0.181345v -6.13218h 0.181345v 27.0983h 0.181345v -10.483h 0.36269v -10.483h
 0.181345v 10.483h 0.181345v 10.483h 0.181345v -10.483h 0.181345v 10.483h 0.544034v -10.483h 0.181345v 10.483h 0.36269v -10.483h 0.36269v 10.483h 1.08807v -27.0983h 0.36269v 16.6152h 0.181345v 10.483h 0.36269v -20.9661h 0.181345v 20.9661h 0.36269v
 -10.483h 0.36269v 10.483h 0.36269v -20.9661h 0.181345v 10.483h 0.544034v 10.483h 0.36269v -20.9661h 0.181345v 20.9661h 0.544034v -10.483h 0.181345v -20.9661h 0.181345v 20.9661h 0.181345v -10.483h 0.181345v 20.9661h 1.08807v -10.483h 0.36269v
 -10.483h 0.181345v 20.9661h 0.181345v -20.9661h 0.181345v 10.483h 0.181345v 10.483h 0.181345v -20.9661h 0.181345v 20.9661h 0.181345v -10.483h 0.36269v 10.483h 0.36269v -10.483h 0.181345" fill="none" stroke="black"/>
<path d="M57.1929,280.151h 453.543" fill="none" stroke="black"/>
<path d="M57.1929,272.68v 7.47068" fill="none" stroke="black"/>
<path d="M75.3318,276.415v 3.73534" fill="none" stroke="black"/>
<path d="M93.4707,276.415v 3.73534" fill="none" stroke="black"/>
<path d="M111.61,276.415v 3.73534" fill="none" stroke="black"/>
<path d="M129.749,276.415v 3.73534" fill="none" stroke="black"/>
<path d="M147.887,272.68v 7.47068" fill="none" stroke="black"/>
<path d="M166.026,276.415v 3.73534" fill="none" stroke="black"/>
<path d="M184.165,276.415v 3.73534" fill="none" stroke="black"/>
<path d="M202.304,276.415v 3.73534" fill="none" stroke="black"/>
<path d="M220.443,276.415v 3.73534" fill="none" stroke="black"/>
<path d="M238.582,272.68v 7.47068" fill="none" stroke="black"/>
<path d="M256.721,276.415v 3.73534" fill="none" stroke="black"/>
<path d="M274.86,276.415v 3.73534" fill="none" stroke="black"/>
<path d="M292.999,276.415v 3.73534" fill="none" stroke="black"/>
<path d="M311.138,276.415v 3.73534" fill="none" stroke="black"/>
<path d="M329.277,272.68v 7.47068" fill="none" stroke="black"/>
<path d="M347.415,276.415v 3.73534" fill="none" stroke="black"/>
<path d="M365.554,276.415v 3.73534" fill="none" stroke="black"/>
<path d="M383.693,276.415v 3.73534" fill="none" stroke="black"/>
<path d="M401.832,276.415v 3.73534" fill="none" stroke="black"/>
<path d="M419.971,272.68v 7.47068" fill="none" stroke="black"/>
<path d="M438.11,276.415v 3.73534" fill="none" stroke="black"/>
<path d="M456.249,276.415v 3.73534" fill="none" stroke="black"/>
<path d="M474.388,276.415v 3.73534" fill="none" stroke="black"/>
<path d="M492.527,276.415v 3.73534" fill="none" stroke="black"/>
<path d="M510.666,272.68v 7.47068" fill="none" stroke="black"/>
<path d="M510.666,272.68v 7.47068" fill="none" stroke="black"/>
<text xml:space="preserve" x="54.3523" y="290.27" fill="black" font-size="10.4952" font-family="Helvetica">0</text>
<text xml:space="preserve" x="139.569" y="290.27" fill="black" font-size="10.4952" font-family="Helvetica">500</text>
<text xml:space="preserve" x="227.449" y="290.27" fill="black" font-size="10.4952" font-family="Helvetica">1000</text>
<text xml:space="preserve" x="318.288" y="290.27" fill="black" font-size="10.4952" font-family="Helvetica">1500</text>
<text xml:space="preserve" x="408.831" y="290.27" fill="black" font-size="10.4952" font-family="Helvetica">2000</text>
<text xml:space="preserve" x="499.67" y="290.27" fill="black" font-size="10.4952" font-family="Helvetica">2500</text>
<text xml:space="preserve" x="265.323" y="301.218" fill="black" font-size="10.4952" font-family="Helvetica">Channel</text>
<path d="M57.1929,280.151v -249.023" fill="none" stroke="black"/>
<path d="M63.9961,280.151h -6.80315" fill="none" stroke="black"/>
<path d="M63.9961,277.393h -6.80315" fill="none" stroke="black"/>
<path d="M63.9961,275.062h -6.80315" fill="none" stroke="black"/>
<path d="M63.9961,273.042h -6.80315" fill="none" stroke="black"/>
<path d="M63.9961,271.261h -6.80315" fill="none" stroke="black"/>
<path d="M70.7992,269.668h -13.6063" fill="none" stroke="black"/>
<text xml:space="preserve" x="49.0263" y="273.404" fill="black" font-size="10.4952" font-family="Helvetica">1</text>
<path d="M63.9961,259.184h -6.80315" fill="none" stroke="black"/>
<path d="M63.9961,253.052h -6.80315" fill="none" stroke="black"/>
<path d="M63.9961,248.701h -6.80315" fill="none" stroke="black"/>
<path d="M63.9961,245.327h -6.80315" fill="none" stroke="black"/>
<path d="M63.9961,242.569h -6.80315" fill="none" stroke="black"/>
<path d="M63.9961,240.238h -6.80315" fill="none" stroke="black"/>
<path d="M63.9961,238.218h -6.80315" fill="none" stroke="black"/>
<path d="M63.9961,236.437h -6.80315" fill="none" stroke="black"/>
<path d="M70.7992,234.844h -13.6063" fill="none" stroke="black"/>
<text xml:space="preserve" x="41.629" y="238.489" fill="black" font-size="10.4952" font-family="Helvetica">10</text>
<path d="M63.9961,224.361h -6.80315" fill="none" stroke="black"/>
<path d="M63.9961,218.228h -6.80315" fill="none" stroke="black"/>
<path d="M63.9961,213.878h -6.80315" fill="none" stroke="black"/>
<path d="M63.9961,210.503h -6.80315" fill="none" stroke="black"/>
<path d="M63.9961,207.745h -6.80315" fill="none" stroke="black"/>
<path d="M63.9961,205.414h -6.80315" fill="none" stroke="black"/>
<path d="M63.9961,203.395h -6.80315" fill="none" stroke="black"/>
<path d="M63.9961,201.613h -6.80315" fill="none" stroke="black"/>
<path d="M70.7992,200.02h -13.6063" fill="none" stroke="black"/>
<text xml:space="preserve" x="49.0263" y="200.023" fill="black" font-size="7.16345" font-family="Helvetica">2</text>
<text xml:space="preserve" x="38.0783" y="204.461" fill="black" font-size="10.4952" font-family="Helvetica">10</text>
<path d="M63.9961,189.537h -6.80315" fill="none" stroke="black"/>
<path d="M63.9961,183.404h -6.80315" fill="none" stroke="black"/>
<path d="M63.9961,179.054h -6.80315" fill="none" stroke="black"/>
<path d="M63.9961,175.679h -6.80315" fill="none" stroke="black"/>
<path d="M63.9961,172.921h -6.80315" fill="none" stroke="black"/>
<path d="M63.9961,170.59h -6.80315" fill="none" stroke="black"/>
<path d="M63.9961,168.571h -6.80315" fill="none" stroke="black"/>
<path d="M63.9961,166.789h -6.80315" fill="none" stroke="black"/>
<path d="M70.7992,165.196h -13.6063" fill="none" stroke="black"/>
<text xml:space="preserve" x="49.0263" y="165.108" fill="black" font-size="7.16345" font-family="Helvetica">3</text>
<text xml:space="preserve" x="38.0783" y="169.842" fill="black" font-size="10.4952" font-family="Helvetica">10</text>
<path d="M63.9961,154.713h -6.80315" fill="none" stroke="black"/>
<path d="M63.9961,148.581h -6.80315" fill="none" stroke="black"/>
<path d="M63.9961,144.23h -6.80315" fill="none" stroke="black"/>
<path d="M63.9961,140.855h -6.80315" fill="none" stroke="black"/>
<path d="M63.9961,138.098h -6.80315" fill="none" stroke="black"/>
<path d="M63.9961,135.766h -6.80315" fill="none" stroke="black"/>
<path d="M63.9961,133.747h -6.80315" fill="none" stroke="black"/>
<path d="M63.9961,131.965h -6.80315" fill="none" stroke="black"/>
<path d="M70.7992,130.372h -13.6063" fill="none" stroke="black"/>
<text xml:space="preserve" x="49.0263" y="130.488" fill="black" font-size="7.16345" font-family="Helvetica">4</text>
<text xml:space="preserve" x="38.0783" y="134.927" fill="black" font-size="10.4952" font-family="Helvetica">10</text>
<path d="M63.9961,119.889h -6.80315" fill="none" stroke="black"/>
<path d="M63.9961,113.757h -6.80315" fill="none" stroke="black"/>
<path d="M63.9961,109.406h -6.80315" fill="none" stroke="black"/>
<path d="M63.9961,106.031h -6.80315" fill="none" stroke="black"/>
<path d="M63.9961,103.274h -6.80315" fill="none" stroke="black"/>
<path d="M63.9961,100.942h -6.80315" fill="none" stroke="black"/>
<path d="M63.9961,98.9228h -6.80315" fill="none" stroke="black"/>
<path d="M63.9961,97.1415h -6.80315" fill="none" stroke="black"/>
<path d="M70.7992,95.548h -13.6063" fill="none" stroke="black"/>
<text xml:space="preserve" x="49.0263" y="95.2772" fill="black" font-size="7.16345" font-family="Helvetica">5</text>
<text xml:space="preserve" x="38.0783" y="100.012" fill="black" font-size="10.4952" font-family="Helvetica">10</text>
<path d="M63.9961,85.065h -6.80315" fill="none" stroke="black"/>
<path d="M63.9961,78.9328h -6.80315" fill="none" stroke="black"/>
<path d="M63.9961,74.582h -6.80315" fill="none" stroke="black"/>
<path d="M63.9961,71.2072h -6.80315" fill="none" stroke="black"/>
<path d="M63.9961,68.4498h -6.80315" fill="none" stroke="black"/>
<path d="M63.9961,66.1184h -6.80315" fill="none" stroke="black"/>
<path d="M63.9961,64.0989h -6.80315" fill="none" stroke="black"/>
<path d="M63.9961,62.3176h -6.80315" fill="none" stroke="black"/>
<path d="M70.7992,60.7242h -13.6063" fill="none" stroke="black"/>
<text xml:space="preserve" x="49.0263" y="60.6579" fill="black" font-size="7.16345" font-family="Helvetica">6</text>
<text xml:space="preserve" x="38.0783" y="65.3921" fill="black" font-size="10.4952" font-family="Helvetica">10</text>
<path d="M63.9961,50.2411h -6.80315" fill="none" stroke="black"/>
<path d="M63.9961,44.1089h -6.80315" fill="none" stroke="black"/>
<path d="M63.9961,39.7581h -6.80315" fill="none" stroke="black"/>
<path d="M63.9961,36.3833h -6.80315" fill="none" stroke="black"/>
<path d="M63.9961,33.6259h -6.80315" fill="none" stroke="black"/>
<path d="M63.9961,31.2946h -6.80315" fill="none" stroke="black"/>
<g transform="rotate(-90,26.5385,191.442)">
<text xml:space="preserve" x="26.5385" y="191.442" fill="black" font-size="10.4952" font-family="Helvetica">Counts/Channel</text>
</g>
<text xml:space="preserve" x="404.097" y="60.6579" fill="black" font-size="14.7788" font-family="Helvetica" font-weight="bold"> = 2.4879 MeV</text>
<text xml:space="preserve" x="398.179" y="63.9127" fill="black" font-size="10.0192" font-family="Helvetica" font-weight="bold">p</text>
<text xml:space="preserve" x="389.006" y="60.6579" fill="black" font-size="14.7788" font-family="Helvetica" font-weight="bold">E</text>
<path d="M262.163,163.754v 26.1647" fill="none" stroke="black"/>
<path d="M264.454,189.919l -2.29122, 3.9685l -2.29122, -3.9685z" fill="black"/>
<path d="M264.454,189.919l -2.29122, 3.9685l -2.29122, -3.9685h 4.58243z" fill="none" stroke="black"/>
<text xml:space="preserve" x="266.803" y="161.557" fill="black" font-size="10.4952" font-family="Helvetica" font-weight="bold">_1 	1.369 MeV</text>
<text xml:space="preserve" x="260.293" y="161.557" fill="black" font-size="10.4952" font-family="Times">&#0945;</text>
<path d="M184.528,130.372v 30.8554" fill="none" stroke="black"/>
<path d="M186.819,161.227l -2.29122, 3.9685l -2.29122, -3.9685z" fill="black"/>
<path d="M186.819,161.227l -2.29122, 3.9685l -2.29122, -3.9685h 4.58243z" fill="none" stroke="black"/>
<text xml:space="preserve" x="172.117" y="127.529" fill="black" font-size="10.4952" font-family="Helvetica" font-weight="bold"># p_1 	0.844 MeV</text>
<path d="M210.104,148.581v 12.6467" fill="none" stroke="black"/>
<path d="M212.395,161.227l -2.29122, 3.9685l -2.29122, -3.9685z" fill="black"/>
<path d="M212.395,161.227l -2.29122, 3.9685l -2.29122, -3.9685h 4.58243z" fill="none" stroke="black"/>
<text xml:space="preserve" x="197.564" y="144.099" fill="black" font-size="10.4952" font-family="Helvetica" font-weight="bold"># p_2 	1.015 MeV</text>
<path d="M497.607,269.668h 13.0591" fill="none" stroke="black"/>
<path d="M504.136,259.184h 6.52954" fill="none" stroke="black"/>
<path d="M504.136,253.052h 6.52954" fill="none" stroke="black"/>
<path d="M504.136,248.701h 6.52954" fill="none" stroke="black"/>
<path d="M504.136,245.327h 6.52954" fill="none" stroke="black"/>
<path d="M504.136,242.569h 6.52954" fill="none" stroke="black"/>
<path d="M504.136,240.238h 6.52954" fill="none" stroke="black"/>
<path d="M504.136,238.218h 6.52954" fill="none" stroke="black"/>
<path d="M504.136,236.437h 6.52954" fill="none" stroke="black"/>
<path d="M497.607,234.844h 13.0591" fill="none" stroke="black"/>
<path d="M504.136,224.361h 6.52954" fill="none" stroke="black"/>
<path d="M504.136,218.228h 6.52954" fill="none" stroke="black"/>
<path d="M504.136,213.878h 6.52954" fill="none" stroke="black"/>
<path d="M504.136,210.503h 6.52954" fill="none" stroke="black"/>
<path d="M504.136,207.745h 6.52954" fill="none" stroke="black"/>
<path d="M504.136,205.414h 6.52954" fill="none" stroke="black"/>
<path d="M504.136,203.395h 6.52954" fill="none" stroke="black"/>
<path d="M504.136,201.613h 6.52954" fill="none" stroke="black"/>
<path d="M497.607,200.02h 13.0591" fill="none" stroke="black"/>
<path d="M504.136,189.537h 6.52954" fill="none" stroke="black"/>
<path d="M504.136,183.404h 6.52954" fill="none" stroke="black"/>
<path d="M504.136,179.054h 6.52954" fill="none" stroke="black"/>
<path d="M504.136,175.679h 6.52954" fill="none" stroke="black"/>
<path d="M504.136,172.921h 6.52954" fill="none" stroke="black"/>
<path d="M504.136,170.59h 6.52954" fill="none" stroke="black"/>
<path d="M504.136,168.571h 6.52954" fill="none" stroke="black"/>
<path d="M504.136,166.789h 6.52954" fill="none" stroke="black"/>
<path d="M497.607,165.196h 13.0591" fill="none" stroke="black"/>
<path d="M504.136,154.713h 6.52954" fill="none" stroke="black"/>
<path d="M504.136,148.581h 6.52954" fill="none" stroke="black"/>
<path d="M504.136,144.23h 6.52954" fill="none" stroke="black"/>
<path d="M504.136,140.855h 6.52954" fill="none" stroke="black"/>
<path d="M504.136,138.098h 6.52954" fill="none" stroke="black"/>
<path d="M504.136,135.766h 6.52954" fill="none" stroke="black"/>
<path d="M504.136,133.747h 6.52954" fill="none" stroke="black"/>
<path d="M504.136,131.965h 6.52954" fill="none" stroke="black"/>
<path d="M497.607,130.372h 13.0591" fill="none" stroke="black"/>
<path d="M504.136,119.889h 6.52954" fill="none" stroke="black"/>
<path d="M504.136,113.757h 6.52954" fill="none" stroke="black"/>
<path d="M504.136,109.406h 6.52954" fill="none" stroke="black"/>
<path d="M504.136,106.031h 6.52954" fill="none" stroke="black"/>
<path d="M504.136,103.274h 6.52954" fill="none" stroke="black"/>
<path d="M504.136,100.942h 6.52954" fill="none" stroke="black"/>
<path d="M504.136,98.9228h 6.52954" fill="none" stroke="black"/>
<path d="M504.136,97.1415h 6.52954" fill="none" stroke="black"/>
<path d="M497.607,95.548h 13.0591" fill="none" stroke="black"/>
<path d="M504.136,85.065h 6.52954" fill="none" stroke="black"/>
<path d="M504.136,78.9328h 6.52954" fill="none" stroke="black"/>
<path d="M504.136,74.582h 6.52954" fill="none" stroke="black"/>
<path d="M504.136,71.2072h 6.52954" fill="none" stroke="black"/>
<path d="M504.136,68.4498h 6.52954" fill="none" stroke="black"/>
<path d="M504.136,66.1184h 6.52954" fill="none" stroke="black"/>
<path d="M504.136,64.0989h 6.52954" fill="none" stroke="black"/>
<path d="M504.136,62.3176h 6.52954" fill="none" stroke="black"/>
<path d="M497.607,60.7242h 13.0591" fill="none" stroke="black"/>
<path d="M504.136,50.2411h 6.52954" fill="none" stroke="black"/>
<path d="M504.136,44.1089h 6.52954" fill="none" stroke="black"/>
<path d="M504.136,39.7581h 6.52954" fill="none" stroke="black"/>
<path d="M504.136,36.3833h 6.52954" fill="none" stroke="black"/>
<path d="M504.136,33.6259h 6.52954" fill="none" stroke="black"/>
<path d="M504.136,31.2946h 6.52954" fill="none" stroke="black"/>
<path d="M57.1929,38.1294v -7.46952" fill="none" stroke="black"/>
<path d="M75.3318,38.1294v -7.46952" fill="none" stroke="black"/>
<path d="M93.4707,38.1294v -7.46952" fill="none" stroke="black"/>
<path d="M111.61,38.1294v -7.46952" fill="none" stroke="black"/>
<path d="M129.749,38.1294v -7.46952" fill="none" stroke="black"/>
<path d="M147.887,38.1294v -7.46952" fill="none" stroke="black"/>
<path d="M166.026,38.1294v -7.46952" fill="none" stroke="black"/>
<path d="M184.165,38.1294v -7.46952" fill="none" stroke="black"/>
<path d="M202.304,38.1294v -7.46952" fill="none" stroke="black"/>
<path d="M220.443,38.1294v -7.46952" fill="none" stroke="black"/>
<path d="M238.582,38.1294v -7.46952" fill="none" stroke="black"/>
<path d="M256.721,38.1294v -7.46952" fill="none" stroke="black"/>
<path d="M274.86,38.1294v -7.46952" fill="none" stroke="black"/>
<path d="M292.999,38.1294v -7.46952" fill="none" stroke="black"/>
<path d="M311.138,38.1294v -7.46952" fill="none" stroke="black"/>
<path d="M329.277,38.1294v -7.46952" fill="none" stroke="black"/>
<path d="M347.415,38.1294v -7.46952" fill="none" stroke="black"/>
<path d="M365.554,38.1294v -7.46952" fill="none" stroke="black"/>
<path d="M383.693,38.1294v -7.46952" fill="none" stroke="black"/>
<path d="M401.832,38.1294v -7.46952" fill="none" stroke="black"/>
<path d="M419.971,38.1294v -7.46952" fill="none" stroke="black"/>
<path d="M438.11,38.1294v -7.46952" fill="none" stroke="black"/>
<path d="M456.249,38.1294v -7.46952" fill="none" stroke="black"/>
<path d="M474.388,38.1294v -7.46952" fill="none" stroke="black"/>
<path d="M492.527,38.1294v -7.46952" fill="none" stroke="black"/>
<path d="M510.666,38.1294v -7.46952" fill="none" stroke="black"/></svg>
