<?xml version="1.0" standalone="no"?>
<svg width="567.429" height="311.778" viewBox="0 0 567.429 311.778" xmlns="http://www.w3.org/2000/svg" shape-rendering="crispEdges">
<title>
Yields/P1/det-6/run_0106_Fit.svg
</title>
<desc>
Creator: ROOT Version 6.12/06
CreationDate: Mon Apr 15 10:29:02 2019</desc>
<defs>
</defs>
<rect x="0.5" y="0" width="566.929" height="311.278" fill="white"/>
<rect x="57.1929" y="31.1278" width="453.543" height="249.023" fill="white"/>
<rect x="57.1929" y="31.1278" width="453.543" height="249.023" fill="none" stroke="black"/>
<rect x="57.1929" y="31.1278" width="453.543" height="249.023" fill="white"/>
<rect x="57.1929" y="31.1278" width="453.543" height="249.023" fill="none" stroke="black"/>
<path d="M57.1929,40.8928h 0.181345v 239.258h 10.8807v -10.5911h 0.181345v 10.5911h 7.97917v -10.5911h 0.181345v 10.5911h 6.70976v -10.5911h 0.181345v 10.5911h 1.08807v -10.5911h 0.181345v 10.5911h 1.81345v -21.1821h 0.181345v 21.1821h 0.36269v
 -21.1821h 0.181345v 21.1821h 0.36269v -21.1821h 0.181345v 21.1821h 0.181345v -10.5911h 0.181345v -10.5911h 0.181345v -16.7864h 0.181345v -9.26156h 0.181345v -16.3163h 0.181345v -13.8084h 0.181345v -9.69493h 0.181345v -7.34724h 0.181345v -4.89466h
 0.181345v -3.29871h 0.181345v -2.64922h 0.181345v -1.765h 0.181345v -0.864099h 0.181345v -1.59411h 0.181345v -1.02894h 0.181345v 0.540133h 0.181345v -1.23184h 0.181345v 0.148657h 0.181345v -0.586142h 0.181345v -0.839095h 0.181345v 0.493892h
 0.181345v -2.04534h 0.181345v 1.70776h 0.181345v -0.859172h 0.181345v -0.239469h 0.181345v -0.127407h 0.181345v -0.393643h 0.181345v 0.594335h 0.181345v -0.769965h 0.181345v 0.751611h 0.181345v -1.21597h 0.181345v 0.781962h 0.181345v -0.594479h
 0.181345v -0.0342594h 0.181345v 0.311135h 0.181345v -0.259718h 0.181345v 0.0688275h 0.181345v -0.205559h 0.181345v -0.319917h 0.181345v 0.167542h 0.181345v 0.118382h 0.181345v -0.118382h 0.181345v -0.610938h 0.181345v 0.277672h 0.181345v -1.06627h
 0.181345v 0.294894h 0.181345v 0.0313751h 0.181345v 1.27678h 0.181345v -0.700719h 0.181345v 0.180438h 0.181345v 0.149233h 0.181345v 0.733839h 0.181345v 0.175833h 0.181345v -0.33237h 0.181345v 0.244201h 0.181345v -0.670797h 0.181345v 1.15307h
 0.181345v -0.464681h 0.181345v 0.392265h 0.181345v -0.339364h 0.181345v 0.667972h 0.181345v -1.77506h 0.181345v 0.914007h 0.181345v -0.396003h 0.181345v 0.713239h 0.181345v -2.14016h 0.181345v -0.887117h 0.181345v -3.0967h 0.181345v -3.00098h
 0.181345v -3.45849h 0.181345v -3.10805h 0.181345v -3.51126h 0.181345v -3.06204h 0.181345v -2.92413h 0.181345v -2.05144h 0.181345v -1.85615h 0.181345v -1.43435h 0.181345v -0.850003h 0.181345v 0.372214h 0.181345v 0.31925h 0.181345v 1.51881h 0.181345v
 1.31967h 0.181345v 2.86891h 0.181345v 2.85471h 0.181345v 3.10809h 0.181345v 3.91934h 0.181345v 5.17304h 0.181345v 3.56613h 0.181345v 3.11585h 0.181345v 4.10564h 0.181345v 3.54677h 0.181345v 2.52663h 0.181345v 2.32736h 0.181345v 1.15245h 0.181345v
 -0.313619h 0.181345v 0.742049h 0.181345v 0.971652h 0.181345v -1.2941h 0.181345v -0.281014h 0.181345v 1.53657h 0.181345v -0.529547h 0.36269v 1.15811h 0.181345v -0.23875h 0.181345v -0.428248h 0.181345v 1.66115h 0.181345v -2.59199h 0.181345v 0.702213h
 0.181345v 0.656876h 0.181345v -0.428248h 0.181345v 0.271129h 0.181345v 1.21977h 0.181345v -1.71953h 0.181345v 1.01641h 0.181345v 0.703113h 0.181345v -0.499653h 0.181345v 1.14811h 0.181345v 0.357436h 0.181345v -1.94964h 0.181345v 1.15685h 0.181345v
 -0.297528h 0.181345v -0.456144h 0.181345v 0.796652h 0.181345v 1.1158h 0.181345v -1.54026h 0.181345v 1.03925h 0.181345v -0.528457h 0.181345v 0.0868166h 0.181345v 1.46066h 0.181345v -0.425119h 0.181345v 0.377295h 0.181345v 0.0478238h 0.181345v
 1.66853h 0.181345v -0.62802h 0.181345v -0.652434h 0.181345v 0.652434h 0.181345v 0.735247h 0.181345v -2.15422h 0.181345v 1.52187h 0.181345v 0.578646h 0.181345v -1.03631h 0.181345v 2.14805h 0.181345v -0.731764h 0.181345v 0.559758h 0.181345v -1.87552h
 0.181345v 1.26089h 0.181345v 0.902384h 0.181345v -0.570203h 0.181345v 0.804379h 0.181345v -1.0817h 0.181345v 0.964159h 0.181345v -0.798374h 0.181345v 0.857029h 0.181345v 0.0588813h 0.181345v 0.479402h 0.181345v 0.122238h 0.181345v -0.660521h
 0.181345v 0.236899h 0.181345v -0.470181h 0.181345v 0.174627h 0.181345v -0.798374h 0.181345v 1.33456h 0.181345v 1.2635h 0.181345v -1.08051h 0.181345v -0.60164h 0.181345v 2.35537h 0.181345v -1.31803h 0.181345v -0.496944h 0.181345v 1.0106h 0.181345v
 -1.66853h 0.181345v 1.99856h 0.181345v -1.40162h 0.181345v 2.36552h 0.181345v 0.505757h 0.181345v -3.17266h 0.181345v -0.236899h 0.181345v 2.00677h 0.181345v 0.134624h 0.181345v -0.790505h 0.181345v -1.17356h 0.181345v -0.410611h 0.181345v 1.64851h
 0.181345v -2.32772h 0.181345v 1.94571h 0.181345v -1.09187h 0.181345v -1.29043h 0.181345v 1.52641h 0.181345v -3.15779h 0.181345v 0.145753h 0.181345v 0.904982h 0.181345v -0.20579h 0.181345v -4.17695h 0.181345v 1.29773h 0.181345v -0.703113h 0.181345v
 0.788001h 0.181345v -1.53735h 0.181345v 1.11755h 0.181345v 1.38608h 0.36269v 1.57465h 0.181345v -0.878946h 0.181345v 1.81155h 0.181345v 1.45631h 0.181345v 1.54472h 0.181345v -1.48584h 0.181345v -0.292163h 0.181345v 1.71312h 0.181345v 1.0727h
 0.181345v 0.930666h 0.181345v -1.47643h 0.181345v 1.11174h 0.181345v -0.0719045h 0.181345v 1.03882h 0.36269v -0.07659h 0.181345v -0.89033h 0.181345v 0.513035h 0.181345v -0.58494h 0.36269v 0.58494h 0.181345v -2.21632h 0.181345v 1.84812h 0.181345v
 1.21091h 0.181345v 1.31519h 0.181345v 1.15878h 0.181345v -3.46502h 0.181345v -0.50816h 0.181345v 1.49921h 0.181345v 1.66247h 0.181345v -1.66247h 0.181345v -0.388817h 0.181345v -0.379168h 0.181345v -1.56487h 0.181345v 1.79124h 0.181345v -0.0758298h
 0.181345v -0.15054h 0.181345v -0.369986h 0.181345v 1.45631h 0.181345v -1.38303h 0.181345v 0.221985h 0.181345v 2.77092h 0.181345v -0.952583h 0.181345v -1.89269h 0.181345v -0.147631h 0.181345v -0.362955h 0.181345v 1.66577h 0.181345v -1.80857h
 0.181345v 1.18163h 0.181345v -3.42491h 0.181345v 2.38609h 0.181345v -1.50189h 0.181345v -1.89332h 0.181345v 1.63543h 0.181345v 1.19641h 0.181345v 0.279089h 0.181345v 1.17031h 0.181345v -3.0869h 0.181345v 1.98717h 0.181345v -0.210758h 0.181345v
 -0.276563h 0.36269v -0.538547h 0.181345v 1.60253h 0.181345v 0.147631h 0.181345v 1.89269h 0.181345v -0.495601h 0.181345v -1.32273h 0.181345v 0.685986h 0.181345v 0.882537h 0.181345v 1.02472h 0.181345v 1.58046h 0.181345v -1.13235h 0.181345v -1.96053h
 0.181345v 1.16315h 0.181345v 1.73508h 0.181345v -0.0964021h 0.181345v -4.32345h 0.181345v 2.59869h 0.181345v 0.435348h 0.181345v -0.262694h 0.181345v -0.343378h 0.181345v -0.82613h 0.181345v 2.06331h 0.181345v -1.65583h 0.181345v 1.65583h 0.181345v
 -2.69349h 0.181345v 1.62703h 0.181345v -0.835163h 0.181345v 0.579786h 0.181345v 2.36945h 0.181345v -2.2848h 0.181345v -0.418648h 0.181345v 1.02472h 0.181345v 1.58046h 0.181345v -3.09287h 0.36269v -0.159165h 0.181345v 2.11969h 0.181345v -2.19866h
 0.181345v 3.7279h 0.181345v -3.56956h 0.181345v 2.69061h 0.181345v -1.87332h 0.181345v -1.13235h 0.181345v 1.21653h 0.181345v 0.868397h 0.181345v -2.54566h 0.181345v 3.27776h 0.181345v 0.670689h 0.181345v -1.49188h 0.181345v -2.53202h 0.181345v
 2.44344h 0.181345v 2.28195h 0.181345v -3.95352h 0.181345v 0.646856h 0.181345v 1.02472h 0.181345v -0.435348h 0.181345v -0.996854h 0.181345v -0.783745h 0.181345v 2.57338h 0.181345v -1.78964h 0.181345v 2.53062h 0.181345v -1.61936h 0.181345v 0.698621h
 0.181345v -0.698621h 0.181345v 0.878384h 0.181345v 1.02838h 0.181345v -1.90676h 0.181345v -1.46407h 0.181345v -1.04902h 0.181345v 0.440791h 0.181345v 0.842702h 0.181345v -0.311841h 0.181345v -0.82613h 0.181345v 2.19779h 0.181345v -2.1245h 0.181345v
 1.46366h 0.181345v -1.09187h 0.181345v 3.16687h 0.181345v -2.31563h 0.181345v -0.470181h 0.181345v 0.710811h 0.181345v 0.830622h 0.181345v -1.84704h 0.181345v 2.99909h 0.181345v -0.363819h 0.181345v -1.0422h 0.181345v 0.339562h 0.181345v -0.835163h
 0.181345v 2.85097h 0.181345v -0.386848h 0.181345v -0.283841h 0.181345v -0.821195h 0.181345v -0.437843h 0.181345v -0.256807h 0.181345v 2.0889h 0.181345v 0.494531h 0.181345v -0.298635h 0.181345v 0.914007h 0.181345v -1.77641h 0.181345v -0.368203h
 0.181345v 0.368203h 0.181345v 0.764143h 0.181345v -1.13235h 0.181345v 1.42905h 0.181345v 1.0328h 0.181345v 3.32963h 0.181345v -4.36244h 0.181345v -0.68355h 0.181345v 0.0957977h 0.181345v 5.76894h 0.181345v -3.60457h 0.181345v -2.06797h 0.181345v
 -0.754705h 0.181345v 0.658303h 0.181345v 1.72778h 0.181345v 1.82661h 0.181345v -0.477529h 0.181345v -1.13235h 0.181345v -1.94452h 0.181345v 4.29989h 0.181345v -3.51109h 0.181345v 1.82501h 0.181345v -0.113604h 0.181345v -0.224705h 0.181345v 1.6471h
 0.181345v -1.30879h 0.181345v -0.113604h 0.181345v 1.42239h 0.181345v -1.53516h 0.181345v -0.333388h 0.181345v 3.99785h 0.181345v -3.4381h 0.181345v 0.819796h 0.181345v -1.15811h 0.181345v 3.3539h 0.181345v -0.138279h 0.181345v -0.804379h 0.181345v
 0.942658h 0.181345v -1.20164h 0.181345v -1.2329h 0.181345v 0.23875h 0.181345v -0.119841h 0.181345v 0.733566h 0.181345v 0.770567h 0.181345v -0.770567h 0.181345v 0.63941h 0.181345v -1.0106h 0.181345v 1.54212h 0.181345v -0.790505h 0.181345v -0.127864h
 0.181345v -1.34011h 0.181345v 0.962818h 0.181345v 0.634103h 0.181345v -0.880554h 0.181345v 0.371185h 0.181345v -1.54712h 0.181345v 6.02654h 0.181345v -5.91294h 0.181345v 0.819796h 0.181345v -1.81305h 0.181345v 3.19734h 0.181345v 1.37748h 0.181345v
 -1.50864h 0.181345v -1.49188h 0.181345v 0.727741h 0.181345v -0.962818h 0.181345v 0.353985h 0.181345v 1.24294h 0.181345v -0.38361h 0.181345v 1.45631h 0.181345v -2.19579h 0.181345v 2.9066h 0.181345v -2.04032h 0.181345v 2.63378h 0.181345v -2.63378h
 0.181345v -0.501018h 0.181345v 1.69225h 0.181345v 2.70344h 0.181345v -1.41143h 0.181345v -1.96523h 0.181345v 0.673223h 0.181345v -2.53134h 0.181345v 3.52665h 0.181345v -2.4391h 0.181345v 0.252562h 0.181345v 0.518005h 0.181345v 2.11577h 0.181345v
 -0.447242h 0.181345v -1.26817h 0.181345v -0.400364h 0.181345v -2.31769h 0.181345v 3.98622h 0.181345v 0.296702h 0.181345v -3.82335h 0.181345v 0.962818h 0.181345v -0.368203h 0.181345v 2.49751h 0.181345v -2.25303h 0.181345v -0.24448h 0.181345v 1.3958h
 0.181345v -2.89614h 0.181345v 1.1408h 0.181345v 2.71491h 0.181345v -1.73668h 0.181345v 1.45631h 0.181345v 0.710811h 0.181345v -0.288304h 0.181345v -0.560785h 0.181345v 1.74815h 0.181345v -1.0439h 0.181345v -0.977116h 0.181345v -0.661561h 0.181345v
 1.78351h 0.181345v -5.75246h 0.181345v 4.63051h 0.181345v -0.790505h 0.181345v -3.73981h 0.181345v 1.47643h 0.181345v -2.63747h 0.181345v 2.74859h 0.181345v -2.1791h 0.181345v 0.692402h 0.181345v 2.05478h 0.181345v -2.55253h 0.181345v 1.11728h
 0.181345v -1.88143h 0.181345v 1.67211h 0.181345v -3.92064h 0.181345v 1.25657h 0.181345v 0.899064h 0.181345v -1.74815h 0.181345v -1.03766h 0.181345v 2.69349h 0.181345v -1.57301h 0.181345v 1.03048h 0.181345v -1.91768h 0.181345v 1.47983h 0.181345v
 2.12689h 0.181345v -0.679209h 0.181345v -2.53062h 0.181345v 0.82613h 0.181345v 1.51585h 0.36269v -1.0854h 0.181345v 0.623747h 0.181345v -0.270444h 0.181345v -2.39362h 0.181345v 2.75529h 0.181345v 0.846476h 0.181345v -1.20814h 0.181345v -1.84925h
 0.181345v 1.40888h 0.181345v 1.94142h 0.181345v -2.36945h 0.181345v -0.660846h 0.181345v -2.45896h 0.181345v -0.738942h 0.181345v -0.953304h 0.181345v -3.11093h 0.181345v -0.639822h 0.181345v -1.64358h 0.36269v -1.0859h 0.181345v -3.73663h 0.181345v
 -1.00782h 0.181345v -0.379458h 0.181345v -1.08491h 0.181345v -1.6045h 0.181345v 0.2437h 0.181345v -1.47416h 0.181345v -0.330981h 0.36269v 0.264209h 0.181345v 0.133837h 0.181345v -1.0183h 0.181345v 1.42699h 0.181345v -0.341332h 0.181345v 1.48785h
 0.181345v 1.40184h 0.181345v 1.87805h 0.181345v 0.436592h 0.181345v 0.0316677h 0.181345v 2.84935h 0.181345v 2.8011h 0.181345v -0.362739h 0.181345v 2.84868h 0.181345v 2.26565h 0.181345v 3.11497h 0.181345v -0.304083h 0.181345v 2.44344h 0.181345v
 0.448117h 0.181345v 2.78582h 0.181345v -0.6412h 0.36269v 2.01044h 0.181345v -2.62582h 0.181345v 4.12995h 0.181345v -0.131157h 0.181345v -1.60987h 0.181345v 1.60987h 0.181345v -0.386848h 0.181345v 4.39569h 0.181345v -5.852h 0.181345v 1.20375h
 0.181345v 3.19194h 0.181345v -1.88519h 0.181345v 1.57959h 0.181345v -0.299611h 0.181345v -0.582153h 0.181345v 0.434523h 0.181345v 0.907971h 0.181345v -2.8377h 0.181345v 0.261197h 0.181345v 2.89156h 0.181345v 0.321689h 0.181345v 0.835163h 0.181345v
 -1.15685h 0.181345v -1.22303h 0.181345v -0.29105h 0.181345v 1.35574h 0.36269v -0.465407h 0.36269v -0.302578h 0.181345v 0.611269h 0.181345v 0.800166h 0.181345v -1.26089h 0.181345v 0.460729h 0.181345v 2.72358h 0.181345v -1.25167h 0.181345v 0.702638h
 0.181345v -1.0422h 0.181345v -1.59307h 0.181345v 1.09747h 0.181345v -2.94751h 0.181345v 2.46748h 0.181345v -1.06469h 0.181345v 5.61872h 0.181345v -0.82613h 0.181345v -5.36925h 0.181345v 0.142138h 0.181345v 4.25355h 0.181345v -2.436h 0.181345v
 -1.38303h 0.181345v 3.08252h 0.181345v -1.0422h 0.181345v -0.495601h 0.181345v 1.5378h 0.181345v 0.736513h 0.181345v -5.35527h 0.181345v 6.9442h 0.181345v -3.36764h 0.181345v -2.33137h 0.181345v 4.49209h 0.181345v -1.82116h 0.181345v 3.02808h
 0.181345v -2.50415h 0.181345v -1.52078h 0.181345v 1.69949h 0.181345v -2.32967h 0.181345v 2.15096h 0.181345v -0.863488h 0.181345v 1.40602h 0.181345v -0.182992h 0.181345v 2.56908h 0.181345v -2.56908h 0.181345v -3.55439h 0.181345v 3.55439h 0.181345v
 -0.359538h 0.181345v -0.863488h 0.181345v -0.657292h 0.181345v 0.996854h 0.181345v -2.08318h 0.181345v 3.52233h 0.181345v -2.91106h 0.181345v 1.47191h 0.181345v 3.45254h 0.181345v -1.23957h 0.36269v 1.89923h 0.181345v -0.873362h 0.181345v -5.17147h
 0.181345v 2.45656h 0.181345v 3.14535h 0.181345v -2.41761h 0.181345v -2.40852h 0.181345v 2.596h 0.181345v -1.60987h 0.181345v -0.986128h 0.181345v 2.04032h 0.181345v -0.536184h 0.181345v -2.43046h 0.181345v -2.86053h 0.181345v 1.02759h 0.181345v
 -1.27404h 0.181345v -1.94836h 0.36269v -1.72778h 0.181345v -2.88161h 0.181345v -1.29631h 0.181345v -0.0729342h 0.181345v -4.00884h 0.181345v -0.923032h 0.181345v -2.52007h 0.181345v -1.078h 0.181345v 0.0834957h 0.181345v -2.95925h 0.181345v
 -0.674709h 0.181345v -2.20852h 0.181345v -0.0570138h 0.181345v -1.41227h 0.181345v -1.14901h 0.181345v 0.193723h 0.181345v -0.0729342h 0.181345v -0.0242342h 0.181345v 0.467155h 0.181345v -1.31494h 0.181345v 0.58371h 0.181345v 1.08482h 0.181345v
 0.466988h 0.181345v 2.05538h 0.181345v -0.0601563h 0.181345v 1.57989h 0.181345v 2.21729h 0.181345v 1.0762h 0.181345v 1.47284h 0.181345v 1.78264h 0.181345v 2.31285h 0.181345v 1.30251h 0.181345v 2.91586h 0.181345v 0.722009h 0.181345v 3.08445h
 0.181345v 1.92586h 0.181345v 5.09564h 0.181345v -2.89156h 0.181345v 6.06422h 0.181345v -3.48772h 0.181345v 3.48772h 0.181345v 2.09639h 0.181345v 1.41143h 0.181345v 1.01902h 0.181345v -1.74103h 0.181345v 4.63259h 0.181345v -1.22303h 0.181345v
 0.907971h 0.181345v -1.48463h 0.181345v -0.280369h 0.181345v 1.15373h 0.181345v -2.48324h 0.181345v 4.05986h 0.181345v 3.74539h 0.181345v -2.71491h 0.181345v -2.30453h 0.181345v -0.59928h 0.181345v -0.57666h 0.181345v -0.280369h 0.181345v 4.12037h
 0.181345v -1.39002h 0.181345v 1.03048h 0.181345v -2.90381h 0.36269v 3.26334h 0.181345v -2.35537h 0.181345v -0.308691h 0.181345v 3.79641h 0.181345v -4.39569h 0.181345v 0.907971h 0.181345v 8.55075h 0.181345v -8.23569h 0.181345v -1.79969h 0.181345v
 1.48463h 0.181345v -0.308691h 0.181345v 5.01944h 0.181345v -4.39569h 0.181345v -1.22303h 0.181345v -0.57666h 0.181345v 0.28561h 0.181345v 6.78313h 0.181345v -4.28292h 0.181345v -0.335831h 0.181345v 3.74539h 0.181345v -4.074h 0.181345v -2.40175h
 0.181345v -1.83052h 0.181345v 6.6964h 0.181345v 1.19123h 0.181345v -1.93673h 0.181345v -3.55439h 0.181345v 2.16437h 0.181345v -1.57662h 0.181345v 2.96664h 0.181345v 3.68488h 0.181345v -8.08057h 0.181345v 0.275317h 0.181345v 2.08006h 0.181345v
 -3.40956h 0.181345v 1.32951h 0.181345v 3.76083h 0.181345v -5.3429h 0.181345v 6.07064h 0.181345v -5.03434h 0.181345v 1.69949h 0.181345v -2.7358h 0.181345v 4.99163h 0.181345v -2.55253h 0.181345v -0.29105h 0.181345v -2.14805h 0.181345v 4.64825h
 0.181345v 2.18654h 0.181345v -5.25272h 0.181345v -0.275317h 0.181345v 3.68488h 0.181345v -3.95532h 0.181345v 5.41163h 0.181345v -3.71214h 0.181345v 2.96664h 0.181345v -4.66613h 0.181345v 0.82613h 0.181345v 1.79969h 0.181345v -2.35537h 0.181345v
 3.3415h 0.181345v 0.694651h 0.36269v -0.351272h 0.181345v -1.95325h 0.181345v 3.03227h 0.181345v -0.727741h 0.181345v -1.03048h 0.181345v -4.56088h 0.181345v 3.28683h 0.181345v 2.30453h 0.181345v -0.351272h 0.181345v 1.45631h 0.181345v -0.377295h
 0.181345v -2.08683h 0.181345v 0.664439h 0.181345v 0.694651h 0.181345v -1.03048h 0.181345v -4.80536h 0.181345v 4.47675h 0.181345v -2.67706h 0.181345v 2.04032h 0.181345v 4.2921h 0.181345v -4.90337h 0.181345v -0.296702h 0.181345v 4.79259h 0.181345v
 -1.52924h 0.181345v 4.15506h 0.181345v -9.08693h 0.181345v 6.46112h 0.181345v -2.58343h 0.181345v 2.58343h 0.181345v -1.16104h 0.181345v -2.08683h 0.181345v 1.00782h 0.181345v 0.710811h 0.181345v 1.93673h 0.181345v -3.32675h 0.181345v 1.75822h
 0.181345v -1.07901h 0.181345v -1.64456h 0.181345v 2.35537h 0.181345v -3.84h 0.181345v 4.5855h 0.181345v -3.10087h 0.181345v 6.51043h 0.181345v -4.15506h 0.181345v -2.66406h 0.181345v 7.30423h 0.181345v -3.11093h 0.181345v 1.25657h 0.181345v
 -1.25657h 0.181345v -1.16104h 0.181345v -0.368203h 0.181345v 2.78582h 0.181345v 1.85436h 0.181345v -1.85436h 0.181345v 0.44292h 0.181345v -0.873362h 0.181345v 3.84h 0.181345v -1.55521h 0.181345v -3.50782h 0.181345v -0.386848h 0.181345v -2.78582h
 0.181345v 2.04032h 0.181345v -0.359538h 0.181345v 3.14535h 0.181345v -2.41761h 0.181345v 3.31668h 0.181345v 1.97431h 0.181345v -1.50413h 0.36269v -3.40956h 0.181345v 4.91369h 0.181345v -2.43046h 0.181345v 0.926325h 0.181345v 0.986128h 0.181345v
 -2.35537h 0.181345v -2.04032h 0.181345v 1.60987h 0.181345v -0.418648h 0.181345v 5.99028h 0.181345v -5.57163h 0.181345v 3.30382h 0.181345v -5.29099h 0.181345v 6.38286h 0.181345v 7.99506h 0.181345v -7.99506h 0.181345v -1.09187h 0.181345v 2.26781h
 0.181345v -4.24212h 0.181345v -2.15564h 0.181345v 4.66613h 0.181345v -2.96664h 0.181345v 2.43046h 0.181345v 4.93187h 0.181345v 1.52924h 0.181345v -5.36925h 0.181345v 3.12919h 0.181345v -3.68488h 0.181345v 2.35537h 0.181345v -1.22303h 0.181345v
 6.49208h 0.181345v -7.06874h 0.181345v 5.36925h 0.181345v -6.46112h 0.181345v 4.22106h 0.181345v 5.852h 0.181345v -6.53121h 0.36269v -4.05986h 0.181345v 3.40956h 0.36269v 6.19538h 0.181345v -5.54508h 0.181345v 3.74539h 0.181345v -3.06618h 0.181345v
 10.5911h 0.181345v -9.13476h 0.181345v 2.48324h 0.181345v -8.16061h 0.181345v 4.93187h 0.181345v 5.14119h 0.181345v -3.61194h 0.181345v 2.62582h 0.181345v 2.04032h 0.181345v -4.66613h 0.181345v 1.69949h 0.181345v -1.69949h 0.181345v 1.69949h
 0.181345v 0.926325h 0.181345v -4.15506h 0.181345v 9.88026h 0.36269v -7.52488h 0.544034v 2.78582h 0.181345v -3.61194h 0.181345v 2.62582h 0.181345v 3.17266h 0.181345v -7.32772h 0.181345v 8.55075h 0.181345v -4.39569h 0.181345v -4.15506h 0.181345v
 3.22874h 0.181345v 5.32201h 0.181345v -5.32201h 0.181345v 8.10783h 0.181345v -5.14119h 0.181345v -1.05419h 0.181345v -2.78582h 0.181345v 4.97235h 0.181345v -1.13235h 0.181345v 2.35537h 0.181345v -1.22303h 0.181345v -4.09899h 0.181345v 9.7177h
 0.181345v -8.79138h 0.181345v 3.17266h 0.181345v -1.13235h 0.181345v -1.05419h 0.181345v -0.986128h 0.36269v -6.19538h 0.181345v 7.18151h 0.181345v -3.61194h 0.181345v -3.56956h 0.181345v -0.623747h 0.544034v 0.623747h 0.181345v -3.40956h 0.181345v
 -3.20446h 0.181345v 0.84909h 0.181345v -2.78582h 0.181345v 3.68488h 0.181345v -3.68488h 0.181345v -1.05419h 0.181345v -2.20915h 0.181345v 4.39569h 0.36269v -3.48772h 0.181345v 4.71075h 0.181345v -9.02828h 0.181345v 3.11851h 0.181345v -1.89548h
 0.181345v -1.91245h 0.181345v 4.39569h 0.181345v -3.46937h 0.36269v 5.7252h 0.181345v -3.95532h 0.181345v 2.94751h 0.181345v -1.83577h 0.181345v 3.9226h 0.181345v -3.63155h 0.181345v 3.63155h 0.181345v 5.29099h 0.36269v -1.97431h 0.181345v 0.955291h
 0.181345v 1.01902h 0.181345v 5.67737h 0.181345v -2.78582h 0.36269v 4.39569h 0.181345v -0.82613h 0.181345v 1.69949h 0.181345v -3.22874h 0.36269v 2.35537h 0.181345v -0.82613h 0.181345v 1.69949h 0.181345v -4.61875h 0.181345v 2.13552h 0.181345v 1.60987h
 0.181345v 3.84h 0.181345v -2.96664h 0.181345v -7.62443h 0.181345v 3.00567h 0.181345v -3.54185h 0.181345v -1.50413h 0.181345v 2.596h 0.181345v -5.22182h 0.181345v -3.88462h 0.181345v -0.907971h 0.181345v 5.61872h 0.181345v -6.19538h 0.181345v
 -1.60987h 0.181345v 0.518005h 0.181345v -5.65919h 0.181345v -0.883465h 0.181345v -2.95654h 0.181345v 0.28561h 0.181345v 0.89033h 0.181345v -1.73163h 0.181345v -3.73353h 0.181345v 1.5743h 0.181345v -0.351272h 0.181345v -2.55253h 0.181345v 2.09639h
 0.181345v -1.18842h 0.181345v 2.47712h 0.181345v -4.78789h 0.181345v 0.82613h 0.181345v 0.189812h 0.181345v -0.654276h 0.181345v 0.750074h 0.181345v -1.63868h 0.181345v 2.52901h 0.181345v -1.45631h 0.181345v -1.24438h 0.181345v -0.0851238h 0.181345v
 -0.168838h 0.181345v 0.0841858h 0.181345v 0.515094h 0.181345v -1.88675h 0.181345v 1.71312h 0.181345v 0.0865707h 0.181345v -0.762026h 0.181345v -1.41872h 0.181345v -1.57219h 0.181345v 1.27404h 0.181345v -1.13762h 0.181345v 0.276563h 0.181345v
 -0.682242h 0.181345v 0.822423h 0.181345v -1.28249h 0.181345v -0.193009h 0.181345v 2.04945h 0.181345v -0.853041h 0.181345v -1.94495h 0.181345v 3.54715h 0.181345v -2.2784h 0.181345v 2.58866h 0.181345v 2.18654h 0.181345v -0.357436h 0.181345v -0.435348h
 0.181345v 1.91818h 0.181345v -2.17355h 0.181345v 3.38847h 0.181345v 0.427432h 0.181345v 3.24787h 0.181345v 3.11093h 0.181345v -1.56051h 0.181345v 6.12138h 0.181345v -1.67616h 0.181345v 1.02587h 0.181345v 5.88032h 0.181345v 2.72358h 0.181345v
 0.764143h 0.181345v 3.02271h 0.181345v -3.02271h 0.181345v 10.988h 0.181345v -4.79259h 0.36269v 6.49208h 0.181345v 0.926325h 0.181345v 0.986128h 0.181345v 9.60494h 0.181345v -9.60494h 0.181345v 7.80525h 0.181345v 1.79969h 0.181345v -10.5911h
 0.181345v 3.17266h 0.181345v 5.61872h 0.181345v -6.75106h 0.181345v 6.75106h 0.181345v -1.60987h 0.36269v 10.5911h 0.181345v 35.1828h 0.181345v -44.164h 0.181345v 16.7864h 0.181345v -16.7864h 0.181345v -3.06618h 0.181345v -1.32951h 0.181345v
 16.7864h 0.181345v -15.4569h 0.181345v 6.90619h 0.181345v 2.35537h 0.181345v 2.78582h 0.181345v 3.40956h 0.36269v -6.19538h 0.181345v 2.78582h 0.36269v 3.40956h 0.181345v 10.5911h 0.181345v -16.7864h 0.181345v 6.19538h 0.181345v 4.39569h 0.181345v
 -12.9464h 0.181345v 8.55075h 0.181345v 4.39569h 0.181345v -4.39569h 0.181345v -6.19538h 0.181345v 27.3775h 0.181345v -24.5917h 0.181345v 14.0006h 0.181345v -10.5911h 0.181345v -3.40956h 0.181345v 7.80525h 0.181345v 6.19538h 0.181345v -14.0006h
 0.544034v 24.5917h 0.181345v -16.7864h 0.181345v 16.7864h 0.181345v -10.5911h 0.181345v 10.5911h 0.181345v -10.5911h 0.181345v -6.19538h 0.181345v 6.19538h 0.181345v -6.19538h 0.181345v 27.3775h 0.36269v -31.7732h 0.181345v 10.5911h 0.181345v
 -10.5911h 0.181345v 10.5911h 0.181345v -6.19538h 0.181345v -7.80525h 0.181345v 7.80525h 0.36269v 27.3775h 0.181345v -27.3775h 0.181345v -4.39569h 0.181345v -6.19538h 0.181345v 16.7864h 0.181345v -16.7864h 0.181345v 2.78582h 0.181345v -12.0474h
 0.181345v 15.4569h 0.181345v -6.19538h 0.181345v 6.19538h 0.181345v -10.5911h 0.181345v 10.5911h 0.181345v -6.19538h 0.36269v -6.19538h 0.181345v -3.06618h 0.181345v 6.90619h 0.181345v 5.14119h 0.181345v -10.5911h 0.36269v 1.60987h 0.181345v
 -5.61872h 0.36269v 4.00884h 0.181345v -8.98119h 0.181345v -2.35537h 0.181345v 5.14119h 0.181345v 3.40956h 0.181345v 4.39569h 0.181345v -9.7177h 0.181345v 4.09899h 0.181345v -3.17266h 0.181345v -5.54508h 0.181345v 2.91926h 0.181345v -4.79259h
 0.181345v -2.18654h 0.181345v 4.73907h 0.181345v 0.710811h 0.181345v -1.39002h 0.181345v -0.650297h 0.181345v 5.26905h 0.181345v -2.48324h 0.181345v -2.13552h 0.181345v 9.94077h 0.181345v 8.23569h 0.181345v -15.2572h 0.181345v 5.79848h 0.181345v
 2.55253h 0.181345v -2.55253h 0.181345v 5.61872h 0.181345v 8.98119h 0.181345v -8.98119h 0.36269v 3.84h 0.181345v 2.35537h 0.181345v 2.78582h 0.181345v 7.80525h 0.181345v -10.5911h 0.181345v -6.19538h 0.181345v 6.19538h 0.181345v -4.39569h 0.181345v
 -1.79969h 0.181345v 3.84h 0.181345v 8.55075h 0.181345v 4.39569h 0.181345v -7.80525h 0.181345v 7.80525h 0.181345v -7.80525h 0.181345v -2.78582h 0.181345v 6.19538h 0.181345v -3.40956h 0.181345v 3.40956h 0.181345v 10.5911h 0.181345v 10.5911h 0.181345v
 -21.1821h 0.36269v 21.1821h 0.181345v -16.7864h 0.181345v -4.39569h 0.181345v 10.5911h 0.181345v -14.0006h 0.181345v 7.80525h 0.181345v 16.7864h 0.181345v -21.1821h 0.181345v 21.1821h 0.181345v -16.7864h 0.181345v -7.80525h 0.181345v -5.14119h
 0.181345v 8.55075h 0.181345v 4.39569h 0.181345v -4.39569h 0.36269v 21.1821h 0.181345v -16.7864h 0.181345v -4.39569h 0.181345v 21.1821h 0.181345v -16.7864h 0.181345v -4.39569h 0.36269v 31.7732h 0.181345v -21.1821h 0.36269v -10.5911h 0.181345v
 21.1821h 0.181345v -24.5917h 0.181345v 7.80525h 0.36269v -7.80525h 0.181345v -2.78582h 0.181345v 6.19538h 0.181345v 10.5911h 0.181345v -6.19538h 0.181345v 6.19538h 0.36269v -14.0006h 0.181345v -5.14119h 0.181345v 40.324h 0.181345v -27.3775h
 0.181345v -4.39569h 0.181345v 21.1821h 0.181345v -10.5911h 0.181345v -10.5911h 0.181345v -3.40956h 0.181345v -2.78582h 0.181345v 2.78582h 0.181345v 7.80525h 0.181345v -7.80525h 0.181345v 3.40956h 0.181345v 10.5911h 0.181345v -16.7864h 0.36269v
 -4.39569h 0.181345v 2.04032h 0.181345v -5.44988h 0.181345v 7.80525h 0.544034v -4.39569h 0.181345v 7.18151h 0.181345v -5.14119h 0.181345v -2.04032h 0.181345v 21.1821h 0.181345v -19.1418h 0.181345v -3.84h 0.36269v 6.19538h 0.181345v -4.39569h
 0.181345v -4.86587h 0.181345v 6.90619h 0.181345v 5.14119h 0.181345v -13.3769h 0.181345v 16.7864h 0.181345v -3.40956h 0.181345v -2.78582h 0.181345v 2.78582h 0.181345v -8.98119h 0.181345v 3.84h 0.181345v 5.14119h 0.181345v -8.98119h 0.181345v 1.79969h
 0.181345v 10.5911h 0.181345v 4.39569h 0.181345v -7.80525h 0.544034v 7.80525h 0.181345v -4.39569h 0.181345v -3.40956h 0.181345v 24.5917h 0.181345v -21.1821h 0.36269v 4.39569h 0.181345v -14.9868h 0.181345v 2.04032h 0.181345v 5.14119h 0.36269v
 -2.78582h 0.181345v 10.5911h 0.181345v -18.3963h 0.181345v 3.40956h 0.181345v 21.1821h 0.181345v -19.1418h 0.181345v 5.14119h 0.181345v 3.40956h 0.181345v 4.39569h 0.181345v -4.39569h 0.181345v -6.19538h 0.181345v -4.39569h 0.181345v -1.79969h
 0.181345v 12.3908h 0.181345v -12.3908h 0.181345v 12.3908h 0.181345v -10.5911h 0.181345v 7.18151h 0.36269v -8.98119h 0.181345v 8.98119h 0.181345v -10.5911h 0.181345v 3.40956h 0.181345v 7.18151h 0.181345v 3.40956h 0.36269v -6.19538h 0.181345v 10.5911h
 0.181345v -4.39569h 0.181345v -19.1418h 0.181345v 23.5375h 0.181345v 6.19538h 0.181345v -19.1418h 0.181345v -2.04032h 0.181345v -3.40956h 0.181345v 7.80525h 0.181345v 2.78582h 0.181345v -2.78582h 0.181345v 2.78582h 0.181345v -2.78582h 0.181345v
 6.19538h 0.181345v -6.19538h 0.181345v -9.26156h 0.181345v 1.45631h 0.181345v 5.44988h 0.181345v -3.84h 0.36269v 8.98119h 0.181345v -13.3769h 0.181345v 16.7864h 0.181345v -10.5911h 0.181345v 4.39569h 0.181345v -10.5911h 0.181345v 8.23569h 0.181345v
 -3.84h 0.181345v 3.84h 0.181345v -9.45872h 0.181345v 14.5999h 0.181345v -2.78582h 0.181345v -7.80525h 0.181345v 10.5911h 0.181345v -2.78582h 0.181345v -6.19538h 0.181345v 12.3908h 0.181345v -14.0006h 0.181345v -5.14119h 0.181345v 6.75106h 0.181345v
 -3.06618h 0.544034v 3.06618h 0.181345v 6.19538h 0.181345v -15.9131h 0.181345v 13.5577h 0.181345v -8.23569h 0.181345v 1.32951h 0.181345v 3.06618h 0.181345v -7.80525h 0.181345v 9.60494h 0.181345v 7.18151h 0.181345v -10.5911h 0.36269v 1.60987h
 0.181345v -4.39569h 0.181345v 6.19538h 0.181345v 2.04032h 0.181345v -5.44988h 0.36269v -5.14119h 0.181345v 6.75106h 0.181345v -3.06618h 0.181345v 3.06618h 0.181345v -7.80525h 0.181345v 6.19538h 0.181345v -1.45631h 0.181345v -2.55253h 0.181345v
 -1.13235h 0.181345v 5.14119h 0.544034v -6.19538h 0.181345v 6.19538h 0.181345v -1.45631h 0.36269v -1.32951h 0.181345v -4.39569h 0.181345v 5.7252h 0.181345v -3.68488h 0.36269v 5.14119h 0.181345v 1.60987h 0.181345v -1.60987h 0.36269v -4.00884h
 0.181345v 4.00884h 0.181345v -2.78582h 0.181345v -1.22303h 0.181345v 4.00884h 0.181345v -2.78582h 0.181345v 2.78582h 0.181345v -2.78582h 0.181345v 6.19538h 0.181345v -7.4184h 0.36269v -4.97235h 0.181345v 7.52488h 0.181345v -7.52488h 0.36269v
 10.5911h 0.181345v -9.7177h 0.181345v 9.7177h 0.181345v -10.5911h 0.181345v 0.873362h 0.181345v 11.5174h 0.181345v -8.55075h 0.181345v -1.05419h 0.181345v -3.61194h 0.181345v 1.69949h 0.181345v 5.32201h 0.181345v -7.02151h 0.181345v 9.80732h
 0.181345v 1.60987h 0.181345v -13.6573h 0.181345v 8.03853h 0.181345v -5.79848h 0.36269v 8.35101h 0.181345v -6.65152h 0.181345v -0.873362h 0.181345v -3.06618h 0.181345v 3.06618h 0.181345v 2.78582h 0.181345v 2.18654h 0.181345v -3.17266h 0.36269v
 -2.62582h 0.181345v 5.79848h 0.181345v 1.22303h 0.181345v -11.2148h 0.181345v 9.99179h 0.181345v -11.7234h 0.181345v 4.39569h 0.181345v 2.35537h 0.181345v -5.01944h 0.181345v 1.27404h 0.36269v -2.44998h 0.181345v 4.5855h 0.181345v -5.14119h
 0.181345v 0.555686h 0.36269v 3.12919h 0.181345v 4.86587h 0.181345v -6.81912h 0.181345v 6.81912h 0.181345v -4.86587h 0.181345v 2.24005h 0.181345v -8.43543h 0.181345v 6.19538h 0.181345v 0.710811h 0.181345v -2.66406h 0.181345v 0.623747h 0.181345v
 2.04032h 0.181345v 6.19538h 0.181345v -8.23569h 0.181345v 2.78582h 0.181345v 0.783745h 0.181345v -0.783745h 0.181345v 4.39569h 0.36269v -0.986128h 0.181345v -4.15506h 0.181345v 4.15506h 0.181345v 0.986128h 0.181345v 3.40956h 0.181345v -6.19538h
 0.181345v -2.35537h 0.181345v 6.19538h 0.181345v -6.19538h 0.181345v 5.14119h 0.181345v -4.39569h 0.181345v -1.45631h 0.181345v 5.852h 0.181345v -3.61194h 0.181345v 5.79848h 0.181345v -4.09899h 0.181345v 6.65152h 0.36269v -1.32951h 0.181345v
 -4.39569h 0.181345v 4.39569h 0.181345v 1.32951h 0.181345v 4.86587h 0.181345v -1.79969h 0.181345v -5.61872h 0.181345v -2.18654h 0.181345v -1.91245h 0.181345v 1.91245h 0.181345v 2.18654h 0.181345v 1.22303h 0.181345v -2.35537h 0.36269v 1.13235h
 0.181345v 7.4184h 0.181345v -11.5174h 0.181345v 9.7177h 0.181345v -8.79138h 0.181345v 5.7252h 0.181345v -5.7252h 0.181345v 0.986128h 0.181345v 3.40956h 0.181345v -5.32201h 0.181345v 6.65152h 0.181345v -10.5911h 0.181345v 8.03853h 0.181345v -3.17266h
 0.181345v 7.18151h 0.181345v 1.60987h 0.181345v -9.7177h 0.181345v 1.91245h 0.181345v -0.986128h 0.181345v -1.79969h 0.181345v 4.97235h 0.181345v -4.09899h 0.181345v 0.926325h 0.181345v 5.7252h 0.181345v 4.86587h 0.181345v -1.79969h 0.181345v
 1.79969h 0.181345v -8.55075h 0.181345v 5.14119h 0.181345v -8.98119h 0.181345v 12.3908h 0.181345v -7.4184h 0.181345v -1.13235h 0.181345v -2.96664h 0.181345v 5.32201h 0.181345v 1.32951h 0.181345v 1.45631h 0.181345v -7.18151h 0.181345v 14.9868h
 0.181345v -9.26156h 0.181345v -2.55253h 0.181345v -5.79848h 0.181345v 2.62582h 0.181345v 10.5911h 0.181345v -10.5911h 0.181345v 8.79138h 0.181345v -6.75106h 0.181345v 10.5911h 0.181345v 2.35537h 0.36269v -16.7864h 0.181345v 16.7864h 0.181345v
 -11.8141h 0.181345v -1.13235h 0.181345v 6.75106h 0.181345v -3.06618h 0.181345v -2.55253h 0.181345v 9.45872h 0.181345v -3.84h 0.181345v -3.06618h 0.181345v 1.45631h 0.181345v -8.98119h 0.36269v 3.84h 0.181345v -3.84h 0.181345v 4.97235h 0.181345v
 -2.18654h 0.181345v 1.05419h 0.181345v -1.05419h 0.181345v -4.39569h 0.181345v 14.0006h 0.181345v -12.3908h 0.181345v 0.873362h 0.181345v -0.873362h 0.181345v 1.79969h 0.181345v 4.39569h 0.181345v -5.32201h 0.181345v 2.96664h 0.36269v -2.04032h
 0.181345v 3.17266h 0.181345v -8.03853h 0.181345v 5.852h 0.181345v -3.61194h 0.181345v -2.91926h 0.181345v 4.61875h 0.181345v 0.926325h 0.181345v -4.15506h 0.181345v 1.52924h 0.181345v 2.62582h 0.544034v -6.81912h 0.181345v 5.8928h 0.181345v 4.09899h
 0.181345v -1.13235h 0.181345v 2.35537h 0.181345v -4.39569h 0.181345v -1.79969h 0.181345v 1.79969h 0.181345v 4.39569h 0.181345v 1.32951h 0.181345v 6.90619h 0.181345v -5.44988h 0.181345v -8.98119h 0.181345v 19.5723h 0.181345v -7.18151h 0.181345v
 -14.7461h 0.181345v 9.88026h 0.181345v -4.73907h 0.181345v -1.91245h 0.181345v 0.926325h 0.181345v 5.7252h 0.181345v -4.73907h 0.181345v -5.852h 0.181345v 5.852h 0.181345v 1.05419h 0.36269v 1.13235h 0.36269v 18.0095h 0.181345v -18.0095h 0.181345v
 -2.18654h 0.181345v -1.91245h 0.181345v -3.93955h 0.181345v 3.06618h 0.181345v 2.78582h 0.181345v -2.78582h 0.181345v 7.52488h 0.181345v -11.2703h 0.181345v 7.5854h 0.36269v -9.45872h 0.181345v 4.79259h 0.181345v 3.61194h 0.181345v -7.80525h
 0.181345v 8.85944h 0.181345v -2.04032h 0.181345v 0.986128h 0.181345v -7.18151h 0.181345v 4.39569h 0.36269v -1.60987h 0.181345v -0.745498h 0.181345v -3.26334h 0.181345v 3.26334h 0.181345v -3.84h 0.181345v 3.12919h 0.181345v -1.32951h 0.181345v
 2.78582h 0.181345v -7.18151h 0.181345v 10.5911h 0.181345v -4.15506h 0.181345v -0.710811h 0.181345v -1.95325h 0.181345v -1.17594h 0.181345v 1.79969h 0.181345v 2.78582h 0.544034v -1.45631h 0.181345v 4.86587h 0.181345v -2.62582h 0.181345v -2.91926h
 0.181345v 1.39002h 0.181345v 4.15506h 0.181345v -6.81912h 0.181345v 3.40956h 0.181345v 7.80525h 0.181345v -2.35537h 0.181345v -6.19538h 0.181345v -2.66406h 0.181345v 1.27404h 0.181345v 5.54508h 0.36269v 2.04032h 0.181345v 1.13235h 0.181345v
 -4.09899h 0.181345v 6.65152h 0.181345v -3.68488h 0.181345v 1.13235h 0.181345v -11.1677h 0.181345v 13.7203h 0.181345v -5.7252h 0.181345v 8.79138h 0.181345v -12.2009h 0.181345v -0.745498h 0.181345v 14.7461h 0.181345v 7.18151h 0.181345v -14.5999h
 0.181345v 2.55253h 0.181345v 3.06618h 0.181345v -7.80525h 0.181345v -3.61194h 0.181345v 4.66613h 0.181345v 10.5911h 0.181345v -11.6453h 0.36269v -2.78582h 0.181345v 6.19538h 0.181345v -1.22303h 0.181345v 1.22303h 0.181345v 6.19538h 0.181345v
 -8.55075h 0.181345v 2.35537h 0.181345v 1.32951h 0.181345v -7.52488h 0.181345v 6.19538h 0.181345v -6.19538h 0.181345v 4.97235h 0.181345v -4.09899h 0.181345v -1.69949h 0.181345v 7.02151h 0.181345v -6.19538h 0.181345v 14.4311h 0.181345v -8.23569h
 0.181345v -5.32201h 0.181345v 5.32201h 0.181345v -7.02151h 0.181345v 3.61194h 0.181345v 6.19538h 0.181345v -7.18151h 0.181345v 0.986128h 0.36269v -0.986128h 0.36269v 2.04032h 0.181345v -1.05419h 0.181345v -2.78582h 0.181345v 2.78582h 0.181345v
 6.19538h 0.181345v -7.18151h 0.36269v 7.18151h 0.181345v -1.45631h 0.181345v 4.86587h 0.181345v -13.2169h 0.181345v 5.79848h 0.181345v -2.18654h 0.181345v 7.80525h 0.181345v -9.7177h 0.181345v 4.09899h 0.181345v 4.00884h 0.181345v -2.78582h
 0.181345v 4.39569h 0.181345v -4.39569h 0.181345v 6.19538h 0.181345v -4.86587h 0.181345v 12.0474h 0.181345v -10.5911h 0.181345v 3.40956h 0.181345v -4.86587h 0.181345v 26.048h 0.181345v -29.7329h 0.181345v 6.75106h 0.181345v 6.19538h 0.181345v
 -9.26156h 0.181345v 3.06618h 0.181345v 1.79969h 0.181345v -12.3908h 0.181345v 12.3908h 0.181345v -1.79969h 0.181345v 3.84h 0.181345v 8.55075h 0.181345v -3.40956h 0.181345v -5.14119h 0.181345v -6.90619h 0.181345v 12.0474h 0.181345v 14.0006h 0.181345v
 -16.7864h 0.36269v 2.78582h 0.181345v -5.14119h 0.181345v 2.35537h 0.181345v -2.35537h 0.181345v 5.14119h 0.181345v -8.98119h 0.181345v 1.79969h 0.181345v 2.04032h 0.181345v 2.35537h 0.181345v -7.80525h 0.181345v 7.80525h 0.181345v -9.26156h
 0.181345v 3.06618h 0.36269v 3.84h 0.181345v -2.04032h 0.181345v 2.04032h 0.181345v 2.35537h 0.181345v -10.5911h 0.181345v 4.39569h 0.181345v -4.39569h 0.181345v 21.1821h 0.181345v -10.5911h 0.181345v -6.19538h 0.181345v 1.79969h 0.181345v 2.04032h
 0.181345v 19.1418h 0.181345v 10.5911h 0.181345v -29.7329h 0.181345v -3.84h 0.181345v -1.60987h 0.181345v 10.5911h 0.181345v -13.3769h 0.181345v -1.22303h 0.181345v 4.00884h 0.36269v -2.78582h 0.181345v 10.5911h 0.181345v 2.78582h 0.181345v -13.3769h
 0.181345v 2.78582h 0.181345v -4.00884h 0.181345v 5.61872h 0.181345v -4.39569h 0.181345v 4.39569h 0.181345v 1.79969h 0.36269v 7.18151h 0.181345v -7.18151h 0.181345v -1.79969h 0.181345v 1.79969h 0.181345v 7.18151h 0.181345v 3.40956h 0.181345v
 -19.1418h 0.181345v 8.55075h 0.181345v 4.39569h 0.544034v -11.8141h 0.181345v 9.45872h 0.181345v 2.35537h 0.181345v -2.35537h 0.181345v -5.44988h 0.181345v 5.44988h 0.181345v -2.04032h 0.181345v 2.04032h 0.181345v -2.04032h 0.36269v 7.18151h
 0.181345v -13.3769h 0.181345v 16.7864h 0.181345v -15.4569h 0.181345v 4.86587h 0.181345v -7.4184h 0.181345v 22.4052h 0.181345v -14.9868h 0.181345v -4.86587h 0.181345v 12.0474h 0.181345v -2.78582h 0.181345v -6.19538h 0.181345v -5.61872h 0.36269v
 1.22303h 0.181345v 4.39569h 0.181345v 22.9818h 0.181345v -22.9818h 0.181345v 8.98119h 0.181345v -7.18151h 0.181345v -3.40956h 0.181345v 14.0006h 0.181345v -10.5911h 0.181345v -3.40956h 0.181345v 14.0006h 0.181345v -12.3908h 0.181345v 6.19538h
 0.181345v -6.19538h 0.181345v 16.7864h 0.181345v -4.39569h 0.181345v -18.0095h 0.181345v 9.45872h 0.181345v 5.14119h 0.36269v -12.0474h 0.36269v 15.4569h 0.181345v -8.55075h 0.181345v -12.6314h 0.181345v 3.17266h 0.181345v 7.4184h 0.181345v -7.4184h
 0.181345v 5.61872h 0.181345v -1.60987h 0.181345v 14.0006h 0.181345v -12.3908h 0.181345v -1.60987h 0.181345v -1.45631h 0.181345v 6.90619h 0.36269v 2.35537h 0.181345v -11.8141h 0.181345v 1.22303h 0.181345v 2.78582h 0.181345v -2.78582h 0.181345v
 -2.35537h 0.181345v 10.5911h 0.181345v -15.2572h 0.181345v 9.80732h 0.181345v -6.19538h 0.181345v 9.60494h 0.181345v -6.19538h 0.181345v 8.23569h 0.181345v -12.6314h 0.181345v 2.04032h 0.181345v 3.68488h 0.181345v -1.32951h 0.181345v -9.26156h
 0.181345v 22.6384h 0.181345v -12.0474h 0.181345v -2.55253h 0.181345v -4.97235h 0.181345v 6.19538h 0.181345v 1.32951h 0.181345v -8.35101h 0.181345v 2.62582h 0.181345v 4.39569h 0.181345v -5.32201h 0.36269v 11.5174h 0.181345v -15.4569h 0.181345v
 -2.55253h 0.181345v 1.22303h 0.181345v 6.19538h 0.181345v 0.986128h 0.181345v 1.05419h 0.181345v -4.66613h 0.181345v 5.79848h 0.181345v -2.18654h 0.181345v -1.91245h 0.181345v 2.96664h 0.181345v 3.68488h 0.181345v -15.8312h 0.181345v 2.68755h
 0.181345v 5.61872h 0.181345v 0.873362h 0.181345v 0.926325h 0.181345v -0.926325h 0.181345v -3.93955h 0.181345v 3.93955h 0.181345v -3.22874h 0.181345v 7.32772h 0.181345v 4.00884h 0.181345v -4.00884h 0.181345v -4.09899h 0.181345v 8.10783h 0.181345v
 -8.10783h 0.181345v 6.65152h 0.181345v -2.55253h 0.181345v 5.61872h 0.181345v 1.79969h 0.181345v 2.04032h 0.181345v -9.45872h 0.181345v 1.22303h 0.181345v 8.23569h 0.181345v -2.04032h 0.181345v -3.40956h 0.36269v -4.00884h 0.181345v 7.4184h
 0.181345v -1.79969h 0.181345v 6.19538h 0.181345v -6.19538h 0.36269v 12.3908h 0.181345v -3.40956h 0.36269v 7.80525h 0.181345v -10.5911h 0.181345v 2.78582h 0.181345v -2.78582h 0.181345v -2.35537h 0.181345v 5.14119h 0.181345v -7.18151h 0.181345v
 31.7732h 0.181345v -10.5911h 0.181345v -16.7864h 0.181345v 10.5911h 0.181345v 27.3775h 0.181345v -31.7732h 0.181345v 10.5911h 0.181345v -10.5911h 0.181345v 10.5911h 0.181345v -10.5911h 0.181345v 10.5911h 0.36269v 10.5911h 0.181345v -21.1821h
 0.181345v 21.1821h 0.181345v -16.7864h 0.181345v 27.3775h 0.181345v -21.1821h 0.181345v 10.5911h 0.181345v 10.5911h 0.181345v -10.5911h 0.181345v -21.1821h 0.181345v 21.1821h 0.181345v 10.5911h 0.181345v -21.1821h 0.181345v 21.1821h 0.181345v
 -10.5911h 0.181345v 10.5911h 0.181345v -21.1821h 0.181345v 10.5911h 0.181345v -10.5911h 0.181345v 21.1821h 0.36269v -27.3775h 0.181345v 6.19538h 0.181345v 21.1821h 0.181345v -10.5911h 0.181345v -16.7864h 0.181345v 16.7864h 0.36269v -10.5911h
 0.181345v 10.5911h 0.181345v -10.5911h 0.181345v -6.19538h 0.181345v 6.19538h 0.181345v 10.5911h 0.181345v -21.1821h 0.181345v 4.39569h 0.36269v 6.19538h 0.181345v 10.5911h 0.181345v 10.5911h 0.544034v -10.5911h 0.181345v 10.5911h 0.36269v -21.1821h
 0.181345v 21.1821h 0.36269v -21.1821h 0.181345v 21.1821h 0.181345v -27.3775h 0.181345v 27.3775h 0.36269v -10.5911h 0.181345v -10.5911h 0.181345v 10.5911h 0.181345v -10.5911h 0.181345v 10.5911h 0.181345v 10.5911h 0.544034v -21.1821h 0.181345v
 10.5911h 0.181345v 10.5911h 0.181345v -10.5911h 0.181345v 10.5911h 0.181345v -10.5911h 0.181345v -10.5911h 0.181345v 21.1821h 0.181345v -10.5911h 0.181345v -10.5911h 0.181345v 10.5911h 0.36269v -10.5911h 0.181345v 21.1821h 0.36269v -21.1821h
 0.181345v 10.5911h 0.36269v -10.5911h 0.181345v 10.5911h 0.181345v -10.5911h 0.181345v 10.5911h 0.36269v -10.5911h 0.181345v 10.5911h 0.181345v -16.7864h 0.181345v 16.7864h 0.181345v 10.5911h 0.181345v -21.1821h 0.36269v 21.1821h 0.36269v -10.5911h
 0.181345v -16.7864h 0.181345v 6.19538h 0.181345v 10.5911h 0.36269v -10.5911h 0.181345v 10.5911h 0.181345v -10.5911h 0.181345v 10.5911h 0.181345v -21.1821h 0.181345v 21.1821h 0.181345v -24.5917h 0.181345v 14.0006h 0.181345v 10.5911h 0.181345v
 -10.5911h 0.181345v -6.19538h 0.181345v 16.7864h 0.181345v 10.5911h 0.181345v -10.5911h 0.181345v 10.5911h 0.181345v -21.1821h 0.181345v 21.1821h 0.181345v -10.5911h 0.36269v -24.5917h 0.181345v 24.5917h 0.181345v -10.5911h 0.181345v 21.1821h
 0.181345v -21.1821h 0.181345v 21.1821h 0.36269v -21.1821h 0.181345v 21.1821h 0.181345v -10.5911h 0.181345v 10.5911h 0.36269v -10.5911h 0.181345v -10.5911h 0.181345v 21.1821h 0.181345v -21.1821h 0.181345v -10.5911h 0.181345v 31.7732h 0.544034v
 -10.5911h 0.544034v 10.5911h 0.544034v -21.1821h 0.544034v 10.5911h 0.544034v 10.5911h 0.181345v -21.1821h 0.181345v 10.5911h 0.725379v -10.5911h 0.181345v 10.5911h 0.181345v -10.5911h 0.181345v 21.1821h 0.181345v -10.5911h 0.36269v 10.5911h
 0.36269v -21.1821h 0.181345v 10.5911h 0.36269v 10.5911h 0.544034v -10.5911h 0.181345v 10.5911h 0.544034v -21.1821h 0.181345v 21.1821h 0.181345v -10.5911h 0.181345v 10.5911h 0.36269v -27.3775h 0.181345v 6.19538h 0.181345v 21.1821h 0.181345v -10.5911h
 0.36269v 10.5911h 0.181345v -10.5911h 0.36269v 10.5911h 0.36269v -10.5911h 0.181345v -10.5911h 0.181345v 10.5911h 0.181345v 10.5911h 0.544034v -21.1821h 0.544034v 21.1821h 0.181345v -27.3775h 0.181345v 16.7864h 0.544034v 10.5911h 0.36269v -21.1821h
 0.181345v 10.5911h 0.36269v 10.5911h 0.906724v -10.5911h 0.544034v -10.5911h 0.181345v 21.1821h 0.181345v -10.5911h 0.181345v -10.5911h 0.36269v 21.1821h 0.725379v -21.1821h 0.181345v -10.5911h 0.181345v 21.1821h 0.181345v 10.5911h 0.181345v
 -10.5911h 0.181345v 10.5911h 0.181345v -10.5911h 0.181345v -16.7864h 0.181345v 27.3775h 0.181345v -21.1821h 0.181345v 21.1821h 0.36269v -10.5911h 0.181345v 10.5911h 0.181345v -10.5911h 0.181345v 10.5911h 0.36269v -21.1821h 0.36269v 21.1821h 0.36269v
 -10.5911h 0.181345v 10.5911h 0.36269v -21.1821h 0.181345v 10.5911h 0.181345v 10.5911h 0.36269v -21.1821h 0.181345v -10.5911h 0.181345v 21.1821h 0.181345v 10.5911h 0.181345v -10.5911h 0.36269v 10.5911h 0.181345v -10.5911h 0.181345v 10.5911h 0.36269v
 -21.1821h 0.181345v -6.19538h 0.181345v 6.19538h 0.181345v 21.1821h 0.36269v -10.5911h 0.181345v -16.7864h 0.181345v 6.19538h 0.181345v 10.5911h 0.181345v -10.5911h 0.181345v 21.1821h 0.181345v -10.5911h 0.181345v -10.5911h 0.181345v -10.5911h
 0.181345v 21.1821h 0.181345v -10.5911h 0.181345v 10.5911h 0.36269v 10.5911h 0.36269v -21.1821h 0.181345v 21.1821h 0.36269v -10.5911h 0.181345v 10.5911h 1.08807v -10.5911h 0.544034v 10.5911h 0.181345v -10.5911h 0.181345v 10.5911h 0.36269" fill="none"
 stroke="black"/>
<path d="M57.1929,280.151h 453.543" fill="none" stroke="black"/>
<path d="M57.1929,272.68v 7.47068" fill="none" stroke="black"/>
<path d="M75.3318,276.415v 3.73534" fill="none" stroke="black"/>
<path d="M93.4707,276.415v 3.73534" fill="none" stroke="black"/>
<path d="M111.61,276.415v 3.73534" fill="none" stroke="black"/>
<path d="M129.749,276.415v 3.73534" fill="none" stroke="black"/>
<path d="M147.887,272.68v 7.47068" fill="none" stroke="black"/>
<path d="M166.026,276.415v 3.73534" fill="none" stroke="black"/>
<path d="M184.165,276.415v 3.73534" fill="none" stroke="black"/>
<path d="M202.304,276.415v 3.73534" fill="none" stroke="black"/>
<path d="M220.443,276.415v 3.73534" fill="none" stroke="black"/>
<path d="M238.582,272.68v 7.47068" fill="none" stroke="black"/>
<path d="M256.721,276.415v 3.73534" fill="none" stroke="black"/>
<path d="M274.86,276.415v 3.73534" fill="none" stroke="black"/>
<path d="M292.999,276.415v 3.73534" fill="none" stroke="black"/>
<path d="M311.138,276.415v 3.73534" fill="none" stroke="black"/>
<path d="M329.277,272.68v 7.47068" fill="none" stroke="black"/>
<path d="M347.415,276.415v 3.73534" fill="none" stroke="black"/>
<path d="M365.554,276.415v 3.73534" fill="none" stroke="black"/>
<path d="M383.693,276.415v 3.73534" fill="none" stroke="black"/>
<path d="M401.832,276.415v 3.73534" fill="none" stroke="black"/>
<path d="M419.971,272.68v 7.47068" fill="none" stroke="black"/>
<path d="M438.11,276.415v 3.73534" fill="none" stroke="black"/>
<path d="M456.249,276.415v 3.73534" fill="none" stroke="black"/>
<path d="M474.388,276.415v 3.73534" fill="none" stroke="black"/>
<path d="M492.527,276.415v 3.73534" fill="none" stroke="black"/>
<path d="M510.666,272.68v 7.47068" fill="none" stroke="black"/>
<path d="M510.666,272.68v 7.47068" fill="none" stroke="black"/>
<text xml:space="preserve" x="54.3523" y="290.27" fill="black" font-size="10.4952" font-family="Helvetica">0</text>
<text xml:space="preserve" x="139.569" y="290.27" fill="black" font-size="10.4952" font-family="Helvetica">500</text>
<text xml:space="preserve" x="227.449" y="290.27" fill="black" font-size="10.4952" font-family="Helvetica">1000</text>
<text xml:space="preserve" x="318.288" y="290.27" fill="black" font-size="10.4952" font-family="Helvetica">1500</text>
<text xml:space="preserve" x="408.831" y="290.27" fill="black" font-size="10.4952" font-family="Helvetica">2000</text>
<text xml:space="preserve" x="499.67" y="290.27" fill="black" font-size="10.4952" font-family="Helvetica">2500</text>
<text xml:space="preserve" x="265.323" y="301.218" fill="black" font-size="10.4952" font-family="Helvetica">Channel</text>
<path d="M57.1929,280.151v -249.023" fill="none" stroke="black"/>
<path d="M63.9961,280.151h -6.80315" fill="none" stroke="black"/>
<path d="M63.9961,277.365h -6.80315" fill="none" stroke="black"/>
<path d="M63.9961,275.009h -6.80315" fill="none" stroke="black"/>
<path d="M63.9961,272.969h -6.80315" fill="none" stroke="black"/>
<path d="M63.9961,271.169h -6.80315" fill="none" stroke="black"/>
<path d="M70.7992,269.559h -13.6063" fill="none" stroke="black"/>
<text xml:space="preserve" x="49.0263" y="273.404" fill="black" font-size="10.4952" font-family="Helvetica">1</text>
<path d="M63.9961,258.968h -6.80315" fill="none" stroke="black"/>
<path d="M63.9961,252.773h -6.80315" fill="none" stroke="black"/>
<path d="M63.9961,248.377h -6.80315" fill="none" stroke="black"/>
<path d="M63.9961,244.968h -6.80315" fill="none" stroke="black"/>
<path d="M63.9961,242.182h -6.80315" fill="none" stroke="black"/>
<path d="M63.9961,239.827h -6.80315" fill="none" stroke="black"/>
<path d="M63.9961,237.786h -6.80315" fill="none" stroke="black"/>
<path d="M63.9961,235.987h -6.80315" fill="none" stroke="black"/>
<path d="M70.7992,234.377h -13.6063" fill="none" stroke="black"/>
<text xml:space="preserve" x="41.629" y="238.193" fill="black" font-size="10.4952" font-family="Helvetica">10</text>
<path d="M63.9961,223.786h -6.80315" fill="none" stroke="black"/>
<path d="M63.9961,217.59h -6.80315" fill="none" stroke="black"/>
<path d="M63.9961,213.195h -6.80315" fill="none" stroke="black"/>
<path d="M63.9961,209.785h -6.80315" fill="none" stroke="black"/>
<path d="M63.9961,206.999h -6.80315" fill="none" stroke="black"/>
<path d="M63.9961,204.644h -6.80315" fill="none" stroke="black"/>
<path d="M63.9961,202.604h -6.80315" fill="none" stroke="black"/>
<path d="M63.9961,200.804h -6.80315" fill="none" stroke="black"/>
<path d="M70.7992,199.194h -13.6063" fill="none" stroke="black"/>
<text xml:space="preserve" x="49.0263" y="199.431" fill="black" font-size="7.16345" font-family="Helvetica">2</text>
<text xml:space="preserve" x="38.0783" y="203.87" fill="black" font-size="10.4952" font-family="Helvetica">10</text>
<path d="M63.9961,188.603h -6.80315" fill="none" stroke="black"/>
<path d="M63.9961,182.408h -6.80315" fill="none" stroke="black"/>
<path d="M63.9961,178.012h -6.80315" fill="none" stroke="black"/>
<path d="M63.9961,174.602h -6.80315" fill="none" stroke="black"/>
<path d="M63.9961,171.816h -6.80315" fill="none" stroke="black"/>
<path d="M63.9961,169.461h -6.80315" fill="none" stroke="black"/>
<path d="M63.9961,167.421h -6.80315" fill="none" stroke="black"/>
<path d="M63.9961,165.621h -6.80315" fill="none" stroke="black"/>
<path d="M70.7992,164.011h -13.6063" fill="none" stroke="black"/>
<text xml:space="preserve" x="49.0263" y="163.924" fill="black" font-size="7.16345" font-family="Helvetica">3</text>
<text xml:space="preserve" x="38.0783" y="168.658" fill="black" font-size="10.4952" font-family="Helvetica">10</text>
<path d="M63.9961,153.42h -6.80315" fill="none" stroke="black"/>
<path d="M63.9961,147.225h -6.80315" fill="none" stroke="black"/>
<path d="M63.9961,142.829h -6.80315" fill="none" stroke="black"/>
<path d="M63.9961,139.419h -6.80315" fill="none" stroke="black"/>
<path d="M63.9961,136.634h -6.80315" fill="none" stroke="black"/>
<path d="M63.9961,134.278h -6.80315" fill="none" stroke="black"/>
<path d="M63.9961,132.238h -6.80315" fill="none" stroke="black"/>
<path d="M63.9961,130.438h -6.80315" fill="none" stroke="black"/>
<path d="M70.7992,128.828h -13.6063" fill="none" stroke="black"/>
<text xml:space="preserve" x="49.0263" y="129.009" fill="black" font-size="7.16345" font-family="Helvetica">4</text>
<text xml:space="preserve" x="38.0783" y="133.447" fill="black" font-size="10.4952" font-family="Helvetica">10</text>
<path d="M63.9961,118.237h -6.80315" fill="none" stroke="black"/>
<path d="M63.9961,112.042h -6.80315" fill="none" stroke="black"/>
<path d="M63.9961,107.646h -6.80315" fill="none" stroke="black"/>
<path d="M63.9961,104.237h -6.80315" fill="none" stroke="black"/>
<path d="M63.9961,101.451h -6.80315" fill="none" stroke="black"/>
<path d="M63.9961,99.0956h -6.80315" fill="none" stroke="black"/>
<path d="M63.9961,97.0552h -6.80315" fill="none" stroke="black"/>
<path d="M63.9961,95.2555h -6.80315" fill="none" stroke="black"/>
<path d="M70.7992,93.6457h -13.6063" fill="none" stroke="black"/>
<text xml:space="preserve" x="49.0263" y="93.5019" fill="black" font-size="7.16345" font-family="Helvetica">5</text>
<text xml:space="preserve" x="38.0783" y="98.2362" fill="black" font-size="10.4952" font-family="Helvetica">10</text>
<path d="M63.9961,83.0546h -6.80315" fill="none" stroke="black"/>
<path d="M63.9961,76.8592h -6.80315" fill="none" stroke="black"/>
<path d="M63.9961,72.4635h -6.80315" fill="none" stroke="black"/>
<path d="M63.9961,69.054h -6.80315" fill="none" stroke="black"/>
<path d="M63.9961,66.2682h -6.80315" fill="none" stroke="black"/>
<path d="M63.9961,63.9128h -6.80315" fill="none" stroke="black"/>
<path d="M63.9961,61.8725h -6.80315" fill="none" stroke="black"/>
<path d="M63.9961,60.0728h -6.80315" fill="none" stroke="black"/>
<path d="M70.7992,58.4629h -13.6063" fill="none" stroke="black"/>
<text xml:space="preserve" x="49.0263" y="58.2907" fill="black" font-size="7.16345" font-family="Helvetica">6</text>
<text xml:space="preserve" x="38.0783" y="63.025" fill="black" font-size="10.4952" font-family="Helvetica">10</text>
<path d="M63.9961,47.8718h -6.80315" fill="none" stroke="black"/>
<path d="M63.9961,41.6765h -6.80315" fill="none" stroke="black"/>
<path d="M63.9961,37.2808h -6.80315" fill="none" stroke="black"/>
<path d="M63.9961,33.8712h -6.80315" fill="none" stroke="black"/>
<g transform="rotate(-90,26.5385,191.442)">
<text xml:space="preserve" x="26.5385" y="191.442" fill="black" font-size="10.4952" font-family="Helvetica">Counts/Channel</text>
</g>
<text xml:space="preserve" x="404.097" y="58.2907" fill="black" font-size="14.7788" font-family="Helvetica" font-weight="bold"> = 2.4879 MeV</text>
<text xml:space="preserve" x="398.179" y="61.5455" fill="black" font-size="10.0192" font-family="Helvetica" font-weight="bold">p</text>
<text xml:space="preserve" x="389.006" y="58.2907" fill="black" font-size="14.7788" font-family="Helvetica" font-weight="bold">E</text>
<path d="M262.163,162.555v 26.4752" fill="none" stroke="black"/>
<path d="M264.454,189.03l -2.29122, 3.9685l -2.29122, -3.9685z" fill="black"/>
<path d="M264.454,189.03l -2.29122, 3.9685l -2.29122, -3.9685h 4.58243z" fill="none" stroke="black"/>
<text xml:space="preserve" x="266.803" y="160.373" fill="black" font-size="10.4952" font-family="Helvetica" font-weight="bold">_1 	1.369 MeV</text>
<text xml:space="preserve" x="260.293" y="160.373" fill="black" font-size="10.4952" font-family="Times">&#0945;</text>
<path d="M184.528,128.828v 31.2143" fill="none" stroke="black"/>
<path d="M186.819,160.043l -2.29122, 3.9685l -2.29122, -3.9685z" fill="black"/>
<path d="M186.819,160.043l -2.29122, 3.9685l -2.29122, -3.9685h 4.58243z" fill="none" stroke="black"/>
<text xml:space="preserve" x="172.117" y="125.754" fill="black" font-size="10.4952" font-family="Helvetica" font-weight="bold"># p_1 	0.844 MeV</text>
<path d="M210.104,147.225v 12.8179" fill="none" stroke="black"/>
<path d="M212.395,160.043l -2.29122, 3.9685l -2.29122, -3.9685z" fill="black"/>
<path d="M212.395,160.043l -2.29122, 3.9685l -2.29122, -3.9685h 4.58243z" fill="none" stroke="black"/>
<text xml:space="preserve" x="197.564" y="142.62" fill="black" font-size="10.4952" font-family="Helvetica" font-weight="bold"># p_2 	1.015 MeV</text>
<path d="M497.472,269.559h 13.1937" fill="none" stroke="black"/>
<path d="M504.069,258.968h 6.59683" fill="none" stroke="black"/>
<path d="M504.069,252.773h 6.59683" fill="none" stroke="black"/>
<path d="M504.069,248.377h 6.59683" fill="none" stroke="black"/>
<path d="M504.069,244.968h 6.59683" fill="none" stroke="black"/>
<path d="M504.069,242.182h 6.59683" fill="none" stroke="black"/>
<path d="M504.069,239.827h 6.59683" fill="none" stroke="black"/>
<path d="M504.069,237.786h 6.59683" fill="none" stroke="black"/>
<path d="M504.069,235.987h 6.59683" fill="none" stroke="black"/>
<path d="M497.472,234.377h 13.1937" fill="none" stroke="black"/>
<path d="M504.069,223.786h 6.59683" fill="none" stroke="black"/>
<path d="M504.069,217.59h 6.59683" fill="none" stroke="black"/>
<path d="M504.069,213.195h 6.59683" fill="none" stroke="black"/>
<path d="M504.069,209.785h 6.59683" fill="none" stroke="black"/>
<path d="M504.069,206.999h 6.59683" fill="none" stroke="black"/>
<path d="M504.069,204.644h 6.59683" fill="none" stroke="black"/>
<path d="M504.069,202.604h 6.59683" fill="none" stroke="black"/>
<path d="M504.069,200.804h 6.59683" fill="none" stroke="black"/>
<path d="M497.472,199.194h 13.1937" fill="none" stroke="black"/>
<path d="M504.069,188.603h 6.59683" fill="none" stroke="black"/>
<path d="M504.069,182.408h 6.59683" fill="none" stroke="black"/>
<path d="M504.069,178.012h 6.59683" fill="none" stroke="black"/>
<path d="M504.069,174.602h 6.59683" fill="none" stroke="black"/>
<path d="M504.069,171.816h 6.59683" fill="none" stroke="black"/>
<path d="M504.069,169.461h 6.59683" fill="none" stroke="black"/>
<path d="M504.069,167.421h 6.59683" fill="none" stroke="black"/>
<path d="M504.069,165.621h 6.59683" fill="none" stroke="black"/>
<path d="M497.472,164.011h 13.1937" fill="none" stroke="black"/>
<path d="M504.069,153.42h 6.59683" fill="none" stroke="black"/>
<path d="M504.069,147.225h 6.59683" fill="none" stroke="black"/>
<path d="M504.069,142.829h 6.59683" fill="none" stroke="black"/>
<path d="M504.069,139.419h 6.59683" fill="none" stroke="black"/>
<path d="M504.069,136.634h 6.59683" fill="none" stroke="black"/>
<path d="M504.069,134.278h 6.59683" fill="none" stroke="black"/>
<path d="M504.069,132.238h 6.59683" fill="none" stroke="black"/>
<path d="M504.069,130.438h 6.59683" fill="none" stroke="black"/>
<path d="M497.472,128.828h 13.1937" fill="none" stroke="black"/>
<path d="M504.069,118.237h 6.59683" fill="none" stroke="black"/>
<path d="M504.069,112.042h 6.59683" fill="none" stroke="black"/>
<path d="M504.069,107.646h 6.59683" fill="none" stroke="black"/>
<path d="M504.069,104.237h 6.59683" fill="none" stroke="black"/>
<path d="M504.069,101.451h 6.59683" fill="none" stroke="black"/>
<path d="M504.069,99.0956h 6.59683" fill="none" stroke="black"/>
<path d="M504.069,97.0552h 6.59683" fill="none" stroke="black"/>
<path d="M504.069,95.2555h 6.59683" fill="none" stroke="black"/>
<path d="M497.472,93.6457h 13.1937" fill="none" stroke="black"/>
<path d="M504.069,83.0546h 6.59683" fill="none" stroke="black"/>
<path d="M504.069,76.8592h 6.59683" fill="none" stroke="black"/>
<path d="M504.069,72.4635h 6.59683" fill="none" stroke="black"/>
<path d="M504.069,69.054h 6.59683" fill="none" stroke="black"/>
<path d="M504.069,66.2682h 6.59683" fill="none" stroke="black"/>
<path d="M504.069,63.9128h 6.59683" fill="none" stroke="black"/>
<path d="M504.069,61.8725h 6.59683" fill="none" stroke="black"/>
<path d="M504.069,60.0728h 6.59683" fill="none" stroke="black"/>
<path d="M497.472,58.4629h 13.1937" fill="none" stroke="black"/>
<path d="M504.069,47.8718h 6.59683" fill="none" stroke="black"/>
<path d="M504.069,41.6765h 6.59683" fill="none" stroke="black"/>
<path d="M504.069,37.2808h 6.59683" fill="none" stroke="black"/>
<path d="M504.069,33.8712h 6.59683" fill="none" stroke="black"/>
<path d="M504.069,31.0854h 6.59683" fill="none" stroke="black"/>
<path d="M504.069,28.73h 6.59683" fill="none" stroke="black"/>
<path d="M57.1929,35.5584v -7.46952" fill="none" stroke="black"/>
<path d="M75.3318,35.5584v -7.46952" fill="none" stroke="black"/>
<path d="M93.4707,35.5584v -7.46952" fill="none" stroke="black"/>
<path d="M111.61,35.5584v -7.46952" fill="none" stroke="black"/>
<path d="M129.749,35.5584v -7.46952" fill="none" stroke="black"/>
<path d="M147.887,35.5584v -7.46952" fill="none" stroke="black"/>
<path d="M166.026,35.5584v -7.46952" fill="none" stroke="black"/>
<path d="M184.165,35.5584v -7.46952" fill="none" stroke="black"/>
<path d="M202.304,35.5584v -7.46952" fill="none" stroke="black"/>
<path d="M220.443,35.5584v -7.46952" fill="none" stroke="black"/>
<path d="M238.582,35.5584v -7.46952" fill="none" stroke="black"/>
<path d="M256.721,35.5584v -7.46952" fill="none" stroke="black"/>
<path d="M274.86,35.5584v -7.46952" fill="none" stroke="black"/>
<path d="M292.999,35.5584v -7.46952" fill="none" stroke="black"/>
<path d="M311.138,35.5584v -7.46952" fill="none" stroke="black"/>
<path d="M329.277,35.5584v -7.46952" fill="none" stroke="black"/>
<path d="M347.415,35.5584v -7.46952" fill="none" stroke="black"/>
<path d="M365.554,35.5584v -7.46952" fill="none" stroke="black"/>
<path d="M383.693,35.5584v -7.46952" fill="none" stroke="black"/>
<path d="M401.832,35.5584v -7.46952" fill="none" stroke="black"/>
<path d="M419.971,35.5584v -7.46952" fill="none" stroke="black"/>
<path d="M438.11,35.5584v -7.46952" fill="none" stroke="black"/>
<path d="M456.249,35.5584v -7.46952" fill="none" stroke="black"/>
<path d="M474.388,35.5584v -7.46952" fill="none" stroke="black"/>
<path d="M492.527,35.5584v -7.46952" fill="none" stroke="black"/>
<path d="M510.666,35.5584v -7.46952" fill="none" stroke="black"/></svg>
