<?xml version="1.0" standalone="no"?>
<svg width="567.429" height="311.778" viewBox="0 0 567.429 311.778" xmlns="http://www.w3.org/2000/svg" shape-rendering="crispEdges">
<title>
Yields/P1/det-6/run_0104_Fit.svg
</title>
<desc>
Creator: ROOT Version 6.12/06
CreationDate: Mon Apr 15 10:29:02 2019</desc>
<defs>
</defs>
<rect x="0.5" y="0" width="566.929" height="311.278" fill="white"/>
<rect x="57.1929" y="31.1278" width="453.543" height="249.023" fill="white"/>
<rect x="57.1929" y="31.1278" width="453.543" height="249.023" fill="none" stroke="black"/>
<rect x="57.1929" y="31.1278" width="453.543" height="249.023" fill="white"/>
<rect x="57.1929" y="31.1278" width="453.543" height="249.023" fill="none" stroke="black"/>
<path d="M57.1929,40.7933h 0.181345v 239.357h 15.9583v -10.4831h 0.181345v 10.4831h 2.72017v -10.4831h 0.181345v 10.4831h 3.80824v -10.4831h 0.181345v 10.4831h 3.80824v -10.4831h 0.181345v 10.4831h 0.181345v -10.4831h 0.181345v 10.4831h 0.181345v
 -10.4831h 0.181345v 10.4831h 0.906724v -10.4831h 0.544034v 10.4831h 0.725379v -27.0985h 0.181345v 27.0985h 0.36269v -10.4831h 0.36269v -16.6154h 0.181345v -7.72571h 0.181345v -20.9663h 0.181345v -9.30405h 0.181345v -13.6107h 0.181345v -9.62845h
 0.181345v -8.15909h 0.181345v -4.56723h 0.181345v -3.26067h 0.181345v -3.03494h 0.181345v -0.297043h 0.181345v -1.0875h 0.181345v -0.734642h 0.181345v -0.988297h 0.181345v -1.23091h 0.181345v -0.297287h 0.181345v -0.577597h 0.181345v -0.539267h
 0.181345v -2.13232h 0.181345v 1.20438h 0.181345v 0.456854h 0.181345v -0.311507h 0.181345v -0.759522h 0.181345v -1.04345h 0.181345v 0.617391h 0.181345v -0.341213h 0.181345v 0.162228h 0.181345v -0.147552h 0.181345v -0.419936h 0.181345v -0.0996407h
 0.181345v 0.156874h 0.181345v 0.377393h 0.181345v -0.787512h 0.181345v 0.83167h 0.181345v -0.277512h 0.181345v -0.315094h 0.181345v 0.171055h 0.36269v 0.0286983h 0.181345v -0.770012h 0.36269v 0.31725h 0.181345v -0.398927h 0.181345v 0.357168h
 0.181345v -0.890696h 0.181345v 1.07249h 0.181345v -0.347693h 0.181345v 0.646062h 0.181345v -0.35454h 0.181345v -0.125627h 0.181345v -0.207086h 0.181345v -0.244818h 0.181345v 1.28043h 0.181345v -0.842421h 0.181345v 0.551566h 0.181345v 0.173841h
 0.181345v -0.0871701h 0.181345v 0.38142h 0.181345v -0.0888777h 0.181345v 0.343572h 0.181345v -0.808961h 0.181345v 0.347693h 0.181345v -0.232681h 0.181345v -1.05883h 0.181345v -0.850253h 0.181345v -1.64933h 0.181345v -2.01525h 0.181345v -2.61534h
 0.181345v -3.57337h 0.181345v -3.34694h 0.181345v -2.84045h 0.181345v -3.49239h 0.181345v -3.08254h 0.181345v -1.83195h 0.181345v -2.12463h 0.181345v -1.43548h 0.181345v -0.39797h 0.181345v -0.349814h 0.181345v 0.995344h 0.181345v 0.634057h
 0.181345v 2.17907h 0.181345v 1.8156h 0.181345v 3.01199h 0.181345v 3.52522h 0.181345v 4.00114h 0.181345v 4.6526h 0.181345v 3.45025h 0.181345v 3.91609h 0.181345v 3.62174h 0.181345v 2.75743h 0.181345v 3.8972h 0.181345v 0.541078h 0.181345v 0.227053h
 0.181345v 2.21321h 0.181345v 0.940811h 0.181345v 0.412642h 0.181345v -0.5684h 0.181345v -0.337124h 0.181345v -0.79696h 0.181345v 1.25856h 0.181345v 0.670867h 0.181345v -0.226945h 0.181345v 1.2052h 0.181345v -1.14071h 0.181345v 1.81775h 0.181345v
 -2.10583h 0.181345v 0.483235h 0.181345v 0.772313h 0.181345v -0.0344118h 0.181345v 0.103471h 0.181345v -0.103471h 0.181345v -0.70513h 0.181345v 0.808601h 0.181345v -0.375983h 0.181345v -1.81133h 0.181345v 3.04159h 0.181345v 0.295833h 0.181345v
 -1.45843h 0.181345v 1.1626h 0.181345v -1.56415h 0.181345v 1.93485h 0.181345v -0.839423h 0.181345v 0.615912h 0.181345v -0.54474h 0.181345v 1.34192h 0.181345v -0.232086h 0.181345v -0.930427h 0.181345v 2.50685h 0.181345v -0.25348h 0.181345v -0.208036h
 0.181345v 1.02575h 0.181345v -0.942876h 0.181345v 0.854689h 0.181345v -1.30496h 0.181345v 0.408781h 0.181345v 0.377595h 0.181345v 1.10121h 0.181345v -0.800868h 0.181345v 1.03107h 0.181345v -1.20342h 0.181345v 1.5792h 0.181345v -0.235948h 0.181345v
 0.093938h 0.181345v -1.81795h 0.181345v 2.2966h 0.181345v -1.25912h 0.181345v 0.874994h 0.181345v -0.0945251h 0.181345v 0.674429h 0.181345v -0.908189h 0.181345v 1.00704h 0.181345v -1.09954h 0.181345v -1.11092h 0.181345v 3.55801h 0.181345v
 -0.0541109h 0.181345v -0.942282h 0.181345v -0.887002h 0.181345v 0.486343h 0.181345v 2.00541h 0.181345v -3.95062h 0.181345v 2.70536h 0.181345v -0.561156h 0.181345v 0.354682h 0.181345v 1.62198h 0.181345v -0.113715h 0.181345v -0.826652h 0.181345v
 -0.0535362h 0.181345v 1.28199h 0.181345v -2.26475h 0.181345v 1.9197h 0.181345v -0.990286h 0.181345v -0.471843h 0.181345v 0.794787h 0.181345v -0.162334h 0.181345v 0.053918h 0.181345v -0.214528h 0.181345v -0.625909h 0.181345v 1.33455h 0.181345v
 0.338611h 0.181345v 1.00274h 0.181345v -1.28544h 0.181345v -1.74396h 0.181345v -0.345424h 0.181345v 2.48666h 0.181345v -3.01401h 0.181345v -0.418201h 0.181345v -0.495912h 0.181345v 0.404529h 0.181345v -2.96853h 0.181345v 1.24805h 0.181345v -1.58127h
 0.181345v 0.0734175h 0.181345v -0.291556h 0.181345v 0.89209h 0.181345v -1.28402h 0.181345v -0.10515h 0.181345v 0.936545h 0.181345v -0.330793h 0.181345v 1.60964h 0.181345v 0.451495h 0.181345v 1.90686h 0.181345v 0.529032h 0.181345v -0.146126h
 0.181345v 1.5827h 0.181345v 0.54803h 0.181345v 0.802217h 0.181345v 0.661591h 0.181345v -0.304316h 0.181345v 0.61488h 0.181345v 0.126034h 0.181345v -2.39452h 0.181345v 2.08138h 0.181345v 0.893659h 0.181345v -1.56056h 0.181345v 2.30174h 0.181345v
 -1.32171h 0.181345v 1.18422h 0.181345v -1.43525h 0.181345v 1.16396h 0.181345v -1.34953h 0.181345v 0.310565h 0.181345v -0.0626252h 0.181345v 1.85967h 0.181345v -1.6076h 0.181345v 0.517109h 0.181345v -1.32144h 0.181345v 2.06263h 0.181345v -0.806803h
 0.181345v -1.6131h 0.181345v 0.417651h 0.181345v 0.49188h 0.36269v 0.835081h 0.181345v -0.835081h 0.181345v 0.188659h 0.181345v 2.99982h 0.181345v -2.48492h 0.181345v -0.323866h 0.181345v 0.128715h 0.181345v 0.195151h 0.181345v 2.33137h 0.181345v
 -2.00042h 0.181345v 0.895987h 0.181345v -4.13637h 0.181345v 1.95792h 0.181345v -0.837113h 0.181345v 1.02269h 0.181345v -1.36773h 0.181345v -0.558144h 0.181345v -0.163504h 0.181345v -0.161755h 0.181345v 0.997547h 0.181345v -0.114144h 0.181345v
 -0.667342h 0.181345v -0.108416h 0.181345v 1.35529h 0.181345v -1.67595h 0.181345v 1.21056h 0.181345v 0.46539h 0.181345v -1.30118h 0.181345v 1.4198h 0.181345v 1.76647h 0.181345v -0.845862h 0.181345v -1.90041h 0.181345v 3.08463h 0.181345v 1.73864h
 0.181345v -2.85944h 0.181345v 1.1894h 0.181345v 2.21723h 0.181345v -0.0793911h 0.181345v -1.71963h 0.181345v 1.32881h 0.181345v -1.1868h 0.181345v -0.967159h 0.181345v 0.895987h 0.36269v 1.41309h 0.181345v -1.27041h 0.181345v 0.436299h 0.181345v
 -0.146836h 0.181345v -0.921182h 0.181345v 2.45793h 0.181345v -1.16695h 0.181345v -1.29098h 0.181345v 0.207655h 0.181345v 0.424064h 0.181345v -0.700309h 0.181345v 0.700309h 0.181345v 1.11529h 0.181345v -0.229736h 0.181345v 0.152769h 0.181345v
 -1.03833h 0.181345v 0.144039h 0.181345v -0.980601h 0.181345v 0.552535h 0.181345v 2.35484h 0.181345v -0.878155h 0.181345v 0.878155h 0.181345v -0.878155h 0.181345v -1.33534h 0.181345v 0.432143h 0.36269v -0.921182h 0.181345v 1.21629h 0.181345v
 -2.21384h 0.181345v 1.70111h 0.181345v -0.426056h 0.181345v 0.498247h 0.181345v -0.0721909h 0.181345v -1.30996h 0.181345v 1.45468h 0.181345v -0.216576h 0.181345v 1.58551h 0.181345v -0.158368h 0.181345v -1.06444h 0.181345v -1.19926h 0.181345v
 0.552535h 0.181345v 0.943287h 0.181345v -2.48038h 0.181345v 1.12081h 0.181345v -1.18422h 0.181345v 1.95638h 0.181345v 0.0721909h 0.181345v -0.0721909h 0.181345v -0.285366h 0.181345v -0.825149h 0.181345v -0.26534h 0.181345v 1.96327h 0.181345v
 -1.35957h 0.181345v 0.206709h 0.181345v -0.941351h 0.36269v -0.322485h 0.181345v 0.853205h 0.181345v 0.135642h 0.181345v -0.469518h 0.181345v 0.537798h 0.181345v -0.734642h 0.181345v 0.463353h 0.181345v -0.785838h 0.181345v 0.519329h 0.181345v
 0.333876h 0.181345v -0.134436h 0.181345v 2.00042h 0.181345v -1.45535h 0.181345v 1.37916h 0.181345v -2.64299h 0.181345v 0.12817h 0.181345v 1.06645h 0.181345v 3.22023h 0.181345v -1.0719h 0.181345v -0.926247h 0.181345v -0.149006h 0.181345v 1.47858h
 0.181345v -1.8448h 0.181345v -0.775758h 0.181345v 3.03494h 0.181345v -0.976079h 0.181345v 0.976079h 0.181345v -0.414381h 0.181345v -0.32352h 0.181345v 0.906886h 0.181345v -2.35563h 0.181345v 0.593173h 0.181345v 1.50968h 0.181345v -0.813313h
 0.181345v 0.981359h 0.181345v -0.901968h 0.181345v 2.04229h 0.181345v -0.798518h 0.181345v 1.54553h 0.181345v 0.486343h 0.181345v -1.68217h 0.181345v 0.72464h 0.181345v -1.16052h 0.181345v 1.72774h 0.181345v -1.20315h 0.181345v 2.72188h 0.181345v
 -3.16029h 0.181345v 3.16029h 0.181345v -0.625909h 0.181345v 0.102536h 0.181345v -1.1868h 0.181345v -0.0948215h 0.181345v 0.676584h 0.181345v 0.099174h 0.181345v -0.585517h 0.181345v 2.0469h 0.181345v -3.24273h 0.181345v 3.46352h 0.181345v -4.57169h
 0.181345v 3.29284h 0.181345v -0.698922h 0.181345v -0.385345h 0.181345v 1.9247h 0.181345v -0.942282h 0.181345v 0.621621h 0.181345v 1.32558h 0.181345v -0.677306h 0.181345v -1.57137h 0.181345v 1.57137h 0.181345v 0.793199h 0.181345v -1.75547h 0.181345v
 2.10858h 0.181345v -3.01327h 0.181345v -0.761115h 0.181345v 0.567216h 0.181345v 1.51873h 0.181345v 0.432143h 0.181345v -0.109199h 0.181345v -0.948853h 0.181345v 2.6759h 0.181345v -3.76016h 0.181345v 2.58717h 0.181345v -0.983131h 0.181345v 0.64827h
 0.181345v -1.37105h 0.181345v 1.59347h 0.181345v -1.08074h 0.181345v 2.73658h 0.181345v -2.94376h 0.181345v 1.51366h 0.181345v 0.229155h 0.181345v -0.787299h 0.181345v -0.325259h 0.181345v -0.318411h 0.181345v -1.01541h 0.181345v 0.703568h 0.181345v
 1.85871h 0.181345v -0.458337h 0.181345v 0.342444h 0.181345v -0.566507h 0.181345v 1.64298h 0.181345v 0.249989h 0.181345v -2.96604h 0.181345v 0.420137h 0.181345v 1.45212h 0.181345v -1.66365h 0.181345v 3.01162h 0.181345v -3.01162h 0.181345v 1.08853h
 0.181345v 0.575125h 0.181345v -0.799188h 0.181345v 1.89296h 0.181345v -3.27365h 0.181345v 2.29757h 0.181345v -1.35529h 0.181345v 0.217615h 0.181345v 1.86377h 0.181345v -0.843787h 0.181345v -0.347693h 0.181345v -1.31596h 0.181345v 0.534472h 0.181345v
 3.2664h 0.181345v -3.04721h 0.181345v 1.1463h 0.181345v -0.468998h 0.181345v 0.115893h 0.181345v 1.08505h 0.181345v -1.54339h 0.181345v -0.334862h 0.181345v -0.753663h 0.181345v 1.08853h 0.181345v 1.17299h 0.181345v -2.04999h 0.181345v 0.214528h
 0.181345v 0.66247h 0.181345v 0.113289h 0.181345v 0.229155h 0.181345v -2.24868h 0.181345v 0.713047h 0.181345v 1.42062h 0.181345v -1.93335h 0.181345v 0.203009h 0.181345v -0.601032h 0.181345v 1.44147h 0.181345v -3.20098h 0.181345v 0.993573h 0.181345v
 0.378119h 0.181345v -0.378119h 0.181345v 1.78135h 0.181345v -3.20583h 0.181345v -2.06195h 0.181345v 1.39705h 0.181345v -0.558733h 0.181345v -2.78352h 0.181345v 1.65153h 0.181345v -0.144728h 0.181345v -0.565448h 0.181345v 2.40091h 0.181345v -2.94597h
 0.181345v -0.461333h 0.181345v 1.07594h 0.181345v 0.495912h 0.181345v -0.565448h 0.181345v 0.929899h 0.181345v 0.678996h 0.181345v 0.311846h 0.181345v -1.35529h 0.181345v 0.438407h 0.181345v 1.64298h 0.181345v -1.49397h 0.181345v -0.659261h
 0.181345v 2.48748h 0.36269v 0.691502h 0.181345v -0.859548h 0.181345v 0.252774h 0.181345v -1.83789h 0.181345v 2.2688h 0.181345v -1.88782h 0.181345v -0.153544h 0.181345v -0.0761915h 0.181345v -1.02824h 0.181345v -2.42239h 0.181345v 0.617391h 0.181345v
 -1.94846h 0.181345v -1.97097h 0.181345v 2.47797h 0.181345v -3.19038h 0.181345v -4.18764h 0.181345v -0.382027h 0.181345v 0.276877h 0.181345v -2.91379h 0.181345v -1.58482h 0.181345v -0.610125h 0.181345v -2.04753h 0.181345v -0.597357h 0.181345v
 -0.61488h 0.181345v -1.14088h 0.181345v -0.903732h 0.181345v -0.686012h 0.181345v 0.0335715h 0.181345v 0.237111h 0.181345v 0.752418h 0.181345v 0.126109h 0.181345v 0.798627h 0.181345v 0.56345h 0.181345v 1.34478h 0.181345v 0.305987h 0.181345v 1.95343h
 0.181345v 1.84113h 0.181345v 2.09674h 0.181345v 1.15092h 0.181345v 0.683483h 0.181345v 1.26586h 0.181345v 2.37812h 0.181345v 3.63456h 0.181345v 0.0596607h 0.181345v 4.01589h 0.181345v -0.760159h 0.181345v 0.995862h 0.181345v 2.03084h 0.181345v
 -0.269277h 0.181345v 1.49494h 0.181345v 1.99149h 0.181345v -1.28792h 0.181345v 2.33137h 0.181345v -0.931h 0.181345v 1.29545h 0.36269v -2.17245h 0.181345v 1.21944h 0.181345v 0.709066h 0.181345v -0.358688h 0.181345v 1.10264h 0.181345v -2.56558h
 0.181345v 1.11256h 0.181345v 1.07647h 0.181345v 0.504179h 0.181345v 0.924898h 0.181345v -0.666362h 0.181345v -1.83918h 0.181345v 2.10222h 0.181345v -1.14921h 0.181345v -0.720325h 0.181345v -0.116788h 0.181345v 4.27354h 0.181345v -4.73187h 0.181345v
 2.84799h 0.181345v -0.796182h 0.181345v 0.796182h 0.181345v -0.40333h 0.181345v 1.38849h 0.181345v -3.02171h 0.181345v 0.484008h 0.181345v 3.13088h 0.181345v -1.02327h 0.181345v -0.9584h 0.181345v -0.263032h 0.181345v 5.43164h 0.181345v -4.90092h
 0.181345v -2.13722h 0.181345v 3.25803h 0.181345v 1.36893h 0.181345v -3.6587h 0.181345v 3.81874h 0.181345v -2.78422h 0.181345v 0.967159h 0.181345v -1.10041h 0.181345v 0.540199h 0.181345v 1.90213h 0.181345v 1.99727h 0.181345v -3.62189h 0.181345v
 0.71691h 0.181345v 2.72809h 0.181345v -0.347693h 0.181345v -1.47268h 0.181345v -2.039h 0.181345v 4.39638h 0.181345v -2.81804h 0.181345v -1.30335h 0.181345v 2.07911h 0.181345v -4.27109h 0.181345v 3.49533h 0.181345v 1.09756h 0.181345v -0.945556h
 0.181345v 0.783801h 0.181345v -0.160044h 0.181345v -1.65702h 0.181345v 3.88262h 0.181345v -2.38398h 0.181345v 0.976079h 0.181345v -2.04052h 0.181345v -0.576221h 0.181345v 0.723773h 0.181345v 3.67431h 0.181345v -1.09378h 0.181345v 1.28402h 0.181345v
 -4.44632h 0.181345v 0.881257h 0.181345v -1.30335h 0.181345v -0.678319h 0.181345v 3.07923h 0.181345v 0.163504h 0.181345v 0.845135h 0.181345v -0.679844h 0.181345v -1.57684h 0.181345v 1.08629h 0.181345v 0.325259h 0.181345v -1.56056h 0.181345v -1.27884h
 0.181345v 1.57834h 0.181345v 0.460664h 0.181345v 1.13281h 0.181345v -3.17181h 0.36269v 0.840437h 0.36269v 1.51366h 0.181345v -1.79903h 0.181345v -0.690712h 0.181345v -3.2664h 0.181345v 3.95711h 0.181345v -3.40306h 0.181345v -1.29714h 0.181345v
 -3.25h 0.181345v -0.166199h 0.181345v -1.79053h 0.181345v 0.0735961h 0.181345v -3.53626h 0.181345v -2.37302h 0.181345v -2.05069h 0.181345v -1.17364h 0.181345v -2.72378h 0.181345v -1.38318h 0.181345v -0.543435h 0.181345v -0.118157h 0.181345v
 -1.66978h 0.181345v -1.76377h 0.181345v -0.597682h 0.181345v -0.487912h 0.181345v -1.39577h 0.181345v 0.220499h 0.181345v -0.140689h 0.181345v -0.355875h 0.181345v 0.395938h 0.181345v 0.50996h 0.181345v 0.0207604h 0.181345v 0.767014h 0.181345v
 0.900502h 0.181345v 0.639637h 0.181345v 1.79648h 0.181345v 1.24922h 0.181345v 0.978052h 0.181345v 2.65045h 0.181345v 1.92309h 0.181345v 2.40274h 0.181345v -0.444129h 0.181345v 3.06198h 0.181345v 1.24036h 0.181345v 2.52652h 0.181345v 3.31764h
 0.181345v 1.49865h 0.181345v 3.27015h 0.181345v 1.79765h 0.181345v 3.44841h 0.181345v -1.74031h 0.181345v 0.501393h 0.181345v 1.99527h 0.181345v -0.756356h 0.181345v 6.60052h 0.181345v -3.31764h 0.181345v 0.703568h 0.181345v 0.487912h 0.181345v
 -2.08138h 0.181345v 5.39434h 0.181345v -3.06297h 0.181345v 3.37482h 0.181345v -3.37482h 0.181345v 0.512726h 0.181345v 2.86209h 0.181345v -2.59906h 0.181345v 2.28721h 0.181345v -2.55025h 0.181345v 1.08074h 0.181345v -2.56955h 0.181345v 1.23027h
 0.181345v -2.36795h 0.181345v 6.46465h 0.181345v 0.687572h 0.181345v -2.28104h 0.36269v 0.617391h 0.181345v -1.49865h 0.181345v 1.81706h 0.181345v 0.325259h 0.181345v -4.99457h 0.181345v 1.75184h 0.181345v 0.540199h 0.181345v 2.37727h 0.181345v
 -2.91747h 0.181345v 1.38849h 0.181345v -2.16425h 0.181345v 1.04345h 0.181345v 2.97504h 0.181345v -1.56056h 0.181345v 0.299494h 0.181345v 0.617391h 0.181345v -2.05886h 0.181345v 2.05886h 0.181345v -3.12063h 0.181345v 4.43658h 0.181345v -4.94076h
 0.181345v 4.26848h 0.181345v -2.70253h 0.181345v 0.560211h 0.181345v 3.51817h 0.181345v -2.01953h 0.181345v 2.38398h 0.181345v -3.30086h 0.181345v -2.70792h 0.181345v 5.64433h 0.181345v -6.83581h 0.181345v 3.31764h 0.181345v 2.81461h 0.181345v
 -3.91502h 0.181345v 2.91747h 0.181345v -2.91747h 0.181345v 2.59906h 0.181345v -4.3509h 0.181345v 1.48881h 0.181345v 2.2447h 0.181345v -1.44147h 0.181345v 2.37727h 0.181345v -1.52898h 0.181345v -3.83315h 0.181345v 2.18163h 0.181345v 0.803232h
 0.181345v 3.37482h 0.181345v -2.81461h 0.181345v -0.832723h 0.181345v -3.1572h 0.181345v 3.70723h 0.181345v -1.08074h 0.181345v 3.83817h 0.181345v 0.687572h 0.181345v -5.53438h 0.181345v 3.25334h 0.181345v -1.16396h 0.181345v 2.42502h 0.181345v
 -2.14232h 0.181345v -0.282699h 0.181345v 3.80087h 0.181345v -4.07838h 0.181345v 7.72571h 0.181345v -7.1655h 0.181345v 0.881257h 0.181345v 0.617391h 0.181345v 0.976079h 0.36269v -1.28792h 0.181345v -0.898718h 0.181345v -1.12081h 0.181345v 0.832723h
 0.181345v -1.10041h 0.181345v 2.59906h 0.181345v -3.37482h 0.181345v 1.59347h 0.181345v 0.864462h 0.181345v -0.581763h 0.181345v -1.62198h 0.181345v 2.80878h 0.181345v -1.1868h 0.181345v 2.47473h 0.181345v -3.30745h 0.181345v 1.12081h 0.181345v
 -1.65153h 0.181345v 4.17805h 0.181345v -2.81461h 0.181345v 2.47473h 0.181345v 0.339879h 0.181345v -4.69077h 0.181345v 5.75879h 0.181345v -2.38398h 0.181345v -2.59906h 0.181345v 2.91747h 0.181345v -3.1805h 0.36269v 0.53072h 0.181345v 4.71535h
 0.181345v -2.38398h 0.181345v -2.05886h 0.181345v -0.540199h 0.181345v 4.26271h 0.181345v -2.87421h 0.181345v 0.293679h 0.181345v 1.89296h 0.544034v 0.687572h 0.36269v 1.86953h 0.181345v -4.45007h 0.181345v -0.581763h 0.181345v 1.49865h 0.181345v
 0.976079h 0.181345v 0.339879h 0.181345v 0.347693h 0.181345v 4.46859h 0.181345v -4.11272h 0.181345v -4.3509h 0.181345v 1.41449h 0.181345v 7.04913h 0.181345v -5.48857h 0.181345v 1.37585h 0.181345v -2.01953h 0.181345v 2.01953h 0.181345v 2.75743h
 0.181345v -3.46099h 0.181345v -1.93335h 0.181345v 6.74963h 0.181345v -5.48857h 0.181345v 4.13328h 0.181345v -2.75743h 0.181345v 3.64733h 0.181345v 0.945556h 0.36269v -3.47208h 0.181345v -1.82437h 0.181345v 2.21723h 0.181345v -0.392853h 0.181345v
 -1.12081h 0.181345v 0.364451h 0.181345v -0.364451h 0.181345v 4.11272h 0.181345v 2.56955h 0.181345v -4.3509h 0.181345v -3.70723h 0.181345v 5.02318h 0.181345v -1.73034h 0.36269v 4.76528h 0.181345v -6.31782h 0.181345v 4.22843h 0.181345v 0.495912h
 0.181345v -6.46465h 0.181345v 0.672287h 0.181345v 4.3509h 0.181345v 1.95419h 0.181345v -1.48881h 0.181345v 3.73351h 0.181345v -2.2447h 0.181345v -2.40569h 0.181345v 2.93641h 0.181345v -1.53936h 0.181345v 7.40391h 0.181345v -0.775758h 0.181345v
 -3.37482h 0.181345v -3.25334h 0.181345v 3.25334h 0.181345v -5.0888h 0.181345v 2.33137h 0.181345v 1.04345h 0.181345v 0.550023h 0.181345v 6.13224h 0.181345v -4.3509h 0.181345v 4.3509h 0.181345v -2.33137h 0.181345v -2.01953h 0.181345v 4.3509h 0.181345v
 -6.68227h 0.181345v 6.68227h 0.181345v -3.70723h 0.181345v -1.85423h 0.36269v 3.96799h 0.36269v 1.59347h 0.181345v 8.88967h 0.181345v -8.88967h 0.181345v 0.864462h 0.181345v -0.864462h 0.181345v -0.817711h 0.181345v 6.94995h 0.181345v -7.72571h
 0.181345v 5.39434h 0.181345v -6.13224h 0.181345v 1.51366h 0.181345v -0.775758h 0.181345v 3.37482h 0.36269v -1.78135h 0.181345v -1.59347h 0.181345v 1.59347h 0.181345v 3.80087h 0.181345v 1.12081h 0.544034v 2.52652h 0.181345v 3.03494h 0.181345v
 -7.72571h 0.36269v -3.57514h 0.181345v 1.68217h 0.181345v 6.58374h 0.36269v -5.66685h 0.181345v 2.01953h 0.181345v 2.33137h 0.181345v -2.33137h 0.36269v 1.12081h 0.181345v -4.05722h 0.181345v -3.19583h 0.181345v 6.13224h 0.181345v -2.01953h 0.36269v
 -2.59906h 0.181345v -4.15058h 0.181345v 3.37482h 0.181345v -6.62816h 0.181345v 3.25334h 0.181345v 2.63692h 0.181345v -2.01953h 0.181345v 2.01953h 0.181345v -7.28731h 0.181345v -1.68217h 0.181345v 6.33256h 0.181345v -5.0888h 0.181345v -0.426056h
 0.181345v 2.75743h 0.181345v -6.13224h 0.181345v 3.80087h 0.181345v -2.39298h 0.181345v 2.83138h 0.181345v -4.23928h 0.181345v -0.657668h 0.181345v 3.6181h 0.181345v -4.24836h 0.181345v 0.955516h 0.181345v 0.672287h 0.181345v -1.31596h 0.181345v
 3.14033h 0.181345v 2.99191h 0.181345v 3.73351h 0.181345v -5.51485h 0.181345v -3.37482h 0.181345v 6.13224h 0.181345v -3.96799h 0.181345v 3.96799h 0.181345v 1.59347h 0.181345v -0.550023h 0.181345v 2.97504h 0.544034v -1.85423h 0.181345v 6.42592h
 0.181345v -3.19583h 0.181345v 1.51366h 0.181345v -4.15058h 0.181345v 8.76916h 0.181345v -4.61858h 0.181345v -0.775758h 0.181345v -0.737901h 0.181345v -2.63692h 0.181345v 1.26106h 0.181345v -2.42502h 0.181345v -2.08938h 0.181345v 5.18669h 0.36269v
 -10.823h 0.181345v 1.78135h 0.181345v 0.775758h 0.181345v -0.775758h 0.181345v -2.11376h 0.181345v -4.99457h 0.181345v 3.14033h 0.181345v -2.16425h 0.181345v -1.44147h 0.181345v -2.52652h 0.181345v -1.47668h 0.181345v 1.09378h 0.181345v 0.775758h
 0.181345v -5.17384h 0.181345v -1.47997h 0.181345v -0.871581h 0.181345v 0.24394h 0.181345v -3.10186h 0.181345v 2.73741h 0.181345v -1.70111h 0.181345v -1.52898h 0.181345v 0.195151h 0.181345v -0.859005h 0.181345v -1.91478h 0.181345v 1.10195h 0.181345v
 -2.87421h 0.181345v 1.132h 0.181345v 0.316744h 0.181345v 0.654112h 0.181345v -2.31943h 0.181345v 1.66532h 0.181345v -1.22902h 0.181345v 1.14921h 0.181345v 0.40333h 0.181345v -2.06035h 0.181345v 0.215547h 0.181345v 0.74152h 0.181345v -2.70667h
 0.181345v 1.12081h 0.181345v -1.49736h 0.181345v 0.124478h 0.181345v -0.431263h 0.181345v -0.419305h 0.181345v -0.805269h 0.181345v 1.78135h 0.181345v -3.12063h 0.181345v 1.50826h 0.181345v -1.24973h 0.181345v 0.104665h 0.181345v 0.588973h 0.181345v
 1.98058h 0.181345v -0.185573h 0.181345v 0.691862h 0.181345v -0.318411h 0.181345v -0.0628856h 0.181345v -1.0894h 0.181345v 1.34252h 0.181345v 1.97401h 0.181345v -0.570784h 0.181345v 4.3509h 0.181345v -1.92588h 0.181345v 2.01953h 0.181345v 1.47909h
 0.181345v 4.55951h 0.181345v -1.33928h 0.181345v 3.43904h 0.36269v 0.997547h 0.181345v 3.67861h 0.181345v 2.36795h 0.181345v 1.62198h 0.181345v -0.832723h 0.181345v 3.64733h 0.181345v 5.29645h 0.181345v 7.40391h 0.181345v -1.51366h 0.181345v
 -2.63692h 0.181345v 1.26106h 0.181345v 6.46465h 0.181345v -5.79236h 0.181345v 11.9246h 0.181345v -11.221h 0.181345v 5.0888h 0.181345v 1.04345h 0.181345v 3.64733h 0.181345v 1.44147h 0.181345v 1.59347h 0.181345v -1.59347h 0.181345v -3.96799h 0.181345v
 1.21056h 0.544034v 8.15177h 0.181345v -8.15177h 0.181345v 1.31596h 0.181345v 11.9246h 0.181345v -2.75743h 0.36269v 27.0985h 0.181345v -27.0985h 0.36269v -2.33137h 0.725379v 12.8145h 0.181345v -12.8145h 0.181345v 18.9468h 0.181345v -20.9663h
 0.181345v 2.01953h 0.181345v 18.9468h 0.181345v -18.9468h 0.181345v 8.46361h 0.181345v -8.46361h 0.36269v 8.46361h 0.181345v -8.46361h 0.181345v 5.0888h 0.181345v -5.0888h 0.181345v 12.8145h 0.181345v -12.8145h 0.181345v 5.0888h 0.36269v 7.72571h
 0.181345v 6.13224h 0.181345v -13.858h 0.181345v 3.37482h 0.181345v 4.3509h 0.181345v -4.3509h 0.181345v -8.46361h 0.181345v 2.33137h 0.181345v 2.75743h 0.181345v 7.72571h 0.181345v -4.3509h 0.36269v 4.3509h 0.181345v 6.13224h 0.181345v -10.4831h
 0.181345v -8.46361h 0.181345v 18.9468h 0.181345v -16.6154h 0.181345v 27.0985h 0.181345v -10.4831h 0.181345v -20.9663h 0.181345v 7.10832h 0.181345v -2.75743h 0.181345v 6.13224h 0.725379v 4.3509h 0.181345v -4.3509h 0.181345v -3.37482h 0.36269v
 -5.0888h 0.181345v -6.83581h 0.181345v 1.44147h 0.181345v 1.59347h 0.181345v 3.80087h 0.181345v 2.33137h 0.181345v -10.4831h 0.181345v -1.21056h 0.181345v 3.96799h 0.181345v 5.39434h 0.181345v -9.36233h 0.181345v 7.34281h 0.181345v -7.34281h
 0.181345v 11.6937h 0.181345v -12.8145h 0.181345v -4.61858h 0.181345v 5.73939h 0.181345v -1.12081h 0.181345v -8.15177h 0.36269v 2.01953h 0.181345v -3.80087h 0.181345v 6.13224h 0.181345v -2.33137h 0.181345v -5.39434h 0.181345v 1.59347h 0.181345v
 -2.08938h 0.181345v -1.83546h 0.181345v 1.35529h 0.181345v 5.66685h 0.181345v -1.93335h 0.181345v -3.73351h 0.181345v 0.976079h 0.181345v 1.59347h 0.181345v 3.80087h 0.181345v 0.737901h 0.181345v 1.59347h 0.36269v 0.864462h 0.181345v 9.61868h
 0.181345v -7.72571h 0.36269v -1.89296h 0.181345v 4.05722h 0.181345v 5.56146h 0.36269v -3.03494h 0.181345v 4.81629h 0.181345v 2.01953h 0.181345v -5.39434h 0.181345v 10.4831h 0.181345v -8.88967h 0.181345v 8.88967h 0.181345v 7.72571h 0.181345v
 -12.8145h 0.181345v 2.33137h 0.181345v 2.75743h 0.544034v 3.37482h 0.181345v -3.37482h 0.181345v 13.858h 0.181345v -10.4831h 0.181345v 10.4831h 0.181345v -10.4831h 0.181345v -3.37482h 0.181345v 13.858h 0.181345v -6.13224h 0.181345v 6.13224h
 0.181345v -6.13224h 0.181345v -7.72571h 0.181345v 24.3411h 0.181345v -27.0985h 0.181345v 6.13224h 0.181345v 10.4831h 0.725379v -6.13224h 0.181345v -10.4831h 0.181345v 2.75743h 0.181345v 7.72571h 0.36269v 16.6154h 0.181345v -16.6154h 0.181345v
 27.0985h 0.181345v -20.9663h 0.181345v -13.858h 0.181345v 7.72571h 0.181345v -4.3509h 0.36269v -6.13224h 0.181345v 27.0985h 0.181345v -20.9663h 0.181345v -6.13224h 0.181345v 10.4831h 0.181345v -4.3509h 0.181345v 4.3509h 0.36269v -4.3509h 0.181345v
 10.4831h 0.181345v -10.4831h 0.181345v -6.13224h 0.36269v 10.4831h 0.181345v -4.3509h 0.181345v 4.3509h 0.181345v -7.72571h 0.181345v -7.10832h 0.181345v -3.37482h 0.181345v 24.3411h 0.36269v -20.9663h 0.181345v 2.01953h 0.181345v 12.8145h 0.181345v
 -7.72571h 0.181345v -2.75743h 0.544034v -4.3509h 0.36269v 4.3509h 0.181345v -4.3509h 0.181345v 2.01953h 0.181345v -3.80087h 0.181345v 8.88967h 0.181345v -5.0888h 0.181345v 5.0888h 0.181345v 7.72571h 0.181345v 6.13224h 0.181345v -16.6154h 0.181345v
 -7.72571h 0.181345v 13.858h 0.181345v 10.4831h 0.181345v -22.7476h 0.181345v -3.03494h 0.181345v -1.31596h 0.181345v 2.75743h 0.181345v -6.13224h 0.181345v 6.13224h 0.181345v 1.59347h 0.181345v 1.78135h 0.36269v 4.3509h 0.181345v 2.75743h 0.181345v
 -5.0888h 0.181345v -5.39434h 0.181345v 5.39434h 0.36269v -6.83581h 0.181345v 1.44147h 0.181345v 5.39434h 0.181345v -2.01953h 0.36269v -1.78135h 0.181345v 3.80087h 0.181345v 8.46361h 0.181345v -13.858h 0.181345v 7.72571h 0.181345v 37.5817h 0.181345v
 -37.5817h 0.181345v -4.3509h 0.36269v 14.834h 0.181345v 6.13224h 0.181345v -20.9663h 0.181345v 7.10832h 0.181345v -10.4831h 0.36269v 13.858h 0.181345v 4.3509h 0.181345v -10.4831h 0.181345v 2.75743h 0.181345v -2.75743h 0.181345v 10.4831h 0.181345v
 -10.4831h 0.181345v 6.13224h 0.181345v -6.13224h 0.181345v 16.6154h 0.181345v -25.7826h 0.181345v 4.81629h 0.36269v 2.01953h 0.181345v 2.33137h 0.181345v -6.13224h 0.181345v 16.6154h 0.181345v -12.8145h 0.544034v 2.33137h 0.181345v 6.13224h
 0.181345v -6.13224h 0.181345v 16.6154h 0.181345v -10.4831h 0.181345v -8.46361h 0.181345v -5.39434h 0.181345v 3.37482h 0.181345v 4.3509h 0.36269v 16.6154h 0.181345v -18.9468h 0.181345v -2.01953h 0.181345v 2.01953h 0.36269v -5.39434h 0.181345v 13.858h
 0.181345v 4.3509h 0.181345v -14.834h 0.181345v -7.34281h 0.181345v 14.4511h 0.181345v 7.72571h 0.181345v -18.2089h 0.181345v 7.72571h 0.181345v 10.4831h 0.181345v -14.834h 0.181345v -3.37482h 0.181345v -1.44147h 0.181345v 19.6503h 0.181345v -4.3509h
 0.181345v -16.6154h 0.181345v 8.15177h 0.181345v 8.46361h 0.181345v -13.858h 0.36269v 5.39434h 0.181345v -8.15177h 0.181345v 4.3509h 0.181345v 3.80087h 0.181345v -8.15177h 0.181345v -3.37482h 0.181345v 19.9902h 0.181345v -15.2994h 0.181345v 1.44147h
 0.181345v -5.0888h 0.36269v -2.01953h 0.181345v 4.3509h 0.181345v 2.75743h 0.36269v -7.10832h 0.181345v 7.10832h 0.181345v -2.75743h 0.181345v -3.37482h 0.181345v 9.50706h 0.181345v -3.37482h 0.181345v 5.39434h 0.181345v -5.39434h 0.36269v 7.72571h
 0.181345v -12.8145h 0.181345v 1.12081h 0.181345v -4.05722h 0.181345v 5.26778h 0.181345v 2.75743h 0.181345v -2.75743h 0.181345v 2.75743h 0.181345v -1.44147h 0.36269v -2.52652h 0.181345v 11.6937h 0.181345v -9.16718h 0.181345v 4.81629h 0.181345v
 -9.50706h 0.181345v 3.37482h 0.181345v -9.16718h 0.181345v 13.5181h 0.181345v -3.03494h 0.544034v -9.04167h 0.181345v 6.51515h 0.181345v 5.56146h 0.181345v -5.56146h 0.181345v -4.92168h 0.181345v 3.80087h 0.181345v -2.93641h 0.181345v 1.89296h
 0.181345v 1.04345h 0.181345v 3.64733h 0.181345v 1.44147h 0.181345v 1.59347h 0.181345v -4.3509h 0.181345v 6.13224h 0.181345v -4.81629h 0.181345v -6.58374h 0.181345v 4.05722h 0.181345v -4.92168h 0.36269v -2.33137h 0.181345v 7.25305h 0.181345v
 -3.14033h 0.181345v 4.3509h 0.181345v -1.21056h 0.181345v -3.14033h 0.181345v -0.916885h 0.181345v -1.68217h 0.181345v 8.26591h 0.181345v -1.31596h 0.181345v -2.33137h 0.181345v -1.04345h 0.181345v 1.04345h 0.181345v -4.61858h 0.181345v 0.817711h
 0.181345v -0.817711h 0.181345v 3.57514h 0.181345v 6.13224h 0.181345v -12.5969h 0.181345v 11.1554h 0.181345v -11.1554h 0.181345v 8.62891h 0.181345v -11.0539h 0.181345v 9.93312h 0.36269v -10.4831h 0.181345v 4.3509h 0.181345v 9.77957h 0.181345v
 -13.0097h 0.181345v 7.34281h 0.181345v -6.13224h 0.181345v 5.21536h 0.36269v -6.42592h 0.181345v 3.96799h 0.181345v -3.96799h 0.36269v 6.42592h 0.181345v -5.21536h 0.181345v 1.31596h 0.181345v -1.31596h 0.181345v 7.10832h 0.181345v -4.3509h
 0.181345v -4.53877h 0.181345v 1.16396h 0.181345v 4.96829h 0.181345v -0.817711h 0.181345v -8.34947h 0.181345v 3.03494h 0.181345v -2.56955h 0.181345v 0.976079h 0.181345v 0.512726h 0.181345v -2.40569h 0.181345v 5.26778h 0.181345v -0.617391h 0.181345v
 -1.16396h 0.181345v -3.92484h 0.181345v 3.92484h 0.36269v -3.48643h 0.181345v 5.26778h 0.181345v 1.31596h 0.181345v 3.03494h 0.181345v -11.3009h 0.181345v 7.59363h 0.181345v -4.99457h 0.181345v -0.916885h 0.181345v 4.05722h 0.181345v -0.570784h
 0.181345v 2.42502h 0.181345v 4.57169h 0.181345v 2.93641h 0.181345v -6.83581h 0.181345v 3.03494h 0.181345v -2.33137h 0.181345v 1.51366h 0.181345v 4.61858h 0.181345v -6.83581h 0.181345v 4.81629h 0.36269v -4.11272h 0.181345v -2.01953h 0.181345v
 9.27258h 0.181345v -8.62891h 0.181345v 5.48857h 0.181345v -4.81629h 0.181345v -1.93335h 0.181345v 6.74963h 0.181345v 2.01953h 0.181345v -5.39434h 0.181345v 6.51515h 0.181345v -6.51515h 0.181345v 6.51515h 0.181345v 1.21056h 0.181345v -5.26778h
 0.181345v 4.05722h 0.181345v 2.52652h 0.181345v -1.31596h 0.181345v -4.3509h 0.181345v -3.37482h 0.181345v 3.37482h 0.181345v 4.3509h 0.181345v -3.37482h 0.181345v 2.16425h 0.181345v -4.92168h 0.181345v 4.92168h 0.181345v -3.14033h 0.181345v
 -0.916885h 0.181345v 4.05722h 0.181345v 2.52652h 0.181345v -6.58374h 0.181345v 0.916885h 0.181345v 0.976079h 0.181345v -3.57514h 0.36269v 0.817711h 0.181345v 7.4482h 0.181345v -6.58374h 0.181345v 1.89296h 0.181345v -1.89296h 0.181345v 4.05722h
 0.181345v -8.62891h 0.181345v 8.62891h 0.181345v 1.21056h 0.181345v -10.4831h 0.181345v 7.10832h 0.181345v 3.37482h 0.181345v 2.75743h 0.181345v -2.75743h 0.181345v -4.3509h 0.36269v 0.976079h 0.181345v -5.79236h 0.181345v 7.95662h 0.181345v
 -2.16425h 0.181345v -0.976079h 0.181345v -1.78135h 0.181345v 6.13224h 0.181345v -1.21056h 0.181345v 1.21056h 0.181345v -7.72571h 0.181345v 10.4831h 0.181345v -9.70738h 0.181345v -2.88951h 0.181345v 12.5969h 0.181345v -8.02521h 0.181345v 1.89296h
 0.181345v 1.04345h 0.181345v 1.12081h 0.181345v 3.96799h 0.181345v -7.10832h 0.181345v 3.14033h 0.181345v -2.16425h 0.181345v 4.69077h 0.181345v 1.44147h 0.181345v -6.13224h 0.181345v 4.69077h 0.181345v -4.69077h 0.181345v -3.57514h 0.181345v
 4.61858h 0.181345v -1.04345h 0.181345v 13.858h 0.181345v -14.834h 0.181345v -3.37482h 0.181345v 2.45793h 0.181345v -0.864462h 0.181345v -1.59347h 0.181345v 6.51515h 0.181345v -4.05722h 0.181345v 1.89296h 0.181345v -8.88967h 0.181345v 9.93312h
 0.181345v -6.13224h 0.181345v 9.77957h 0.181345v -3.64733h 0.181345v -2.93641h 0.181345v -4.57169h 0.181345v 5.48857h 0.181345v -0.916885h 0.181345v 2.93641h 0.181345v -5.39434h 0.181345v 10.4831h 0.181345v -13.2406h 0.181345v 6.13224h 0.181345v
 -1.78135h 0.181345v -1.59347h 0.181345v 4.3509h 0.36269v -2.75743h 0.181345v -1.59347h 0.181345v 12.0766h 0.36269v -8.70179h 0.181345v 2.01953h 0.181345v -5.39434h 0.181345v -2.75743h 0.181345v 9.27258h 0.181345v -7.25305h 0.181345v -3.23009h
 0.36269v 1.85423h 0.181345v 5.48857h 0.181345v -3.37482h 0.181345v 6.51515h 0.181345v -9.88997h 0.181345v 6.74963h 0.181345v -1.78135h 0.181345v 2.75743h 0.181345v -0.976079h 0.181345v -5.48857h 0.181345v 3.70723h 0.181345v -0.817711h 0.36269v
 9.70738h 0.181345v -2.75743h 0.181345v -1.21056h 0.36269v -1.12081h 0.181345v -2.01953h 0.181345v -2.59906h 0.181345v 3.57514h 0.181345v -0.976079h 0.36269v -0.916885h 0.181345v 11.4h 0.181345v -13.858h 0.181345v 4.3509h 0.181345v -5.79236h
 0.181345v 2.21723h 0.181345v -0.775758h 0.181345v 0.775758h 0.181345v 0.817711h 0.181345v 3.80087h 0.181345v -8.15177h 0.181345v 9.27258h 0.181345v -12.1347h 0.181345v 8.07745h 0.181345v -0.864462h 0.181345v -3.03494h 0.181345v -2.52652h 0.181345v
 3.23009h 0.181345v 0.737901h 0.181345v -2.11376h 0.36269v 2.88951h 0.181345v 0.817711h 0.181345v -8.22163h 0.181345v 2.66017h 0.181345v 4.74375h 0.181345v -6.908h 0.181345v 6.13224h 0.181345v -5.0888h 0.181345v 5.0888h 0.181345v 4.3509h 0.181345v
 6.13224h 0.181345v -12.5969h 0.181345v 2.88951h 0.181345v 0.817711h 0.181345v -7.72571h 0.181345v 8.59018h 0.36269v -5.21536h 0.181345v -2.86209h 0.181345v 2.86209h 0.181345v 2.01953h 0.181345v 3.19583h 0.181345v -5.21536h 0.181345v -0.617391h
 0.181345v -0.593173h 0.181345v 3.96799h 0.181345v -3.96799h 0.181345v 1.21056h 0.181345v 3.53318h 0.181345v -0.775758h 0.181345v 0.775758h 0.181345v -1.51366h 0.36269v 1.51366h 0.181345v -5.31453h 0.181345v 5.31453h 0.181345v 2.59906h 0.181345v
 -1.78135h 0.181345v 2.75743h 0.181345v -5.0888h 0.181345v 16.6154h 0.181345v -15.1017h 0.181345v 4.61858h 0.181345v 8.46361h 0.181345v -6.13224h 0.181345v -3.37482h 0.181345v -7.72571h 0.181345v 4.96829h 0.181345v -1.59347h 0.181345v -1.44147h
 0.181345v 4.81629h 0.181345v 2.01953h 0.181345v 10.4831h 0.181345v -11.5266h 0.181345v 1.04345h 0.181345v 6.68227h 0.181345v -8.70179h 0.36269v 3.14033h 0.181345v -1.12081h 0.181345v 3.64733h 0.181345v -1.31596h 0.181345v 6.13224h 0.181345v
 -9.50706h 0.181345v -0.976079h 0.181345v -0.916885h 0.181345v 6.58374h 0.181345v -6.58374h 0.181345v 5.26778h 0.181345v -2.33137h 0.181345v -8.76916h 0.181345v 4.96829h 0.181345v 4.92168h 0.181345v -4.05722h 0.181345v -1.68217h 0.181345v 1.68217h
 0.181345v -3.19583h 0.181345v 5.0888h 0.181345v -2.75743h 0.181345v -3.03494h 0.181345v 0.703568h 0.181345v -0.703568h 0.181345v 4.81629h 0.181345v -1.78135h 0.181345v 1.78135h 0.181345v -4.11272h 0.181345v 2.33137h 0.181345v -2.33137h 0.181345v
 4.11272h 0.181345v -2.59906h 0.181345v -0.775758h 0.181345v 1.59347h 0.181345v 0.864462h 0.181345v 4.05722h 0.181345v 3.96799h 0.181345v -5.0888h 0.181345v -7.5081h 0.181345v 7.5081h 0.181345v 6.68227h 0.181345v -5.56146h 0.181345v -5.73939h
 0.181345v 15.1017h 0.181345v 2.33137h 0.181345v -6.13224h 0.181345v -3.03494h 0.181345v -1.31596h 0.181345v -5.26778h 0.181345v 13.4195h 0.181345v -10.4831h 0.181345v 8.46361h 0.181345v -4.81629h 0.181345v 9.16718h 0.181345v 6.13224h 0.181345v
 -8.46361h 0.181345v -2.01953h 0.36269v -1.78135h 0.181345v -4.3509h 0.181345v -4.3509h 0.181345v 5.66685h 0.181345v 9.16718h 0.181345v -6.13224h 0.181345v 16.6154h 0.181345v -10.4831h 0.181345v -9.16718h 0.181345v 6.83581h 0.181345v -6.83581h
 0.181345v -1.31596h 0.181345v 4.3509h 0.181345v -5.56146h 0.181345v 5.56146h 0.181345v 8.88967h 0.181345v -5.0888h 0.181345v 8.46361h 0.181345v -6.13224h 0.181345v -6.13224h 0.36269v -3.03494h 0.181345v 11.9246h 0.181345v -2.75743h 0.181345v
 -4.3509h 0.725379v -1.78135h 0.181345v -6.68227h 0.181345v -3.80087h 0.181345v 16.6154h 0.36269v -2.33137h 0.181345v 2.33137h 0.181345v -2.33137h 0.36269v -5.39434h 0.181345v 10.4831h 0.181345v -11.9246h 0.36269v 3.03494h 0.181345v 3.80087h
 0.181345v 8.46361h 0.181345v -12.2645h 0.181345v 3.80087h 0.181345v 2.33137h 0.181345v 6.13224h 0.181345v -8.46361h 0.181345v -2.01953h 0.181345v 10.4831h 0.181345v -8.46361h 0.181345v -5.39434h 0.181345v -5.0888h 0.181345v 6.68227h 0.181345v
 22.7476h 0.181345v -22.7476h 0.181345v 6.13224h 0.181345v -13.858h 0.181345v 6.13224h 0.181345v 13.858h 0.181345v -18.9468h 0.181345v 8.46361h 0.181345v -3.37482h 0.181345v -5.0888h 0.181345v 12.8145h 0.181345v -2.33137h 0.181345v 2.33137h 0.544034v
 -9.16718h 0.181345v -1.31596h 0.544034v 2.75743h 0.181345v 3.37482h 0.181345v -3.37482h 0.544034v -2.75743h 0.36269v 2.75743h 0.181345v 5.39434h 0.181345v -5.39434h 0.181345v 3.37482h 0.181345v -4.81629h 0.181345v 11.9246h 0.181345v -15.5719h
 0.181345v 10.4831h 0.181345v -5.39434h 0.181345v -5.0888h 0.181345v 8.46361h 0.181345v -3.37482h 0.181345v 7.72571h 0.181345v -4.3509h 0.181345v -6.13224h 0.181345v 6.13224h 0.181345v -1.78135h 0.181345v -1.59347h 0.181345v 1.59347h 0.181345v
 -5.56146h 0.181345v 1.21056h 0.181345v 6.13224h 0.181345v -10.4831h 0.181345v 17.5915h 0.181345v -14.4511h 0.181345v -4.92168h 0.181345v 6.13224h 0.181345v 4.3509h 0.725379v 1.78135h 0.181345v 4.3509h 0.36269v -2.33137h 0.181345v -10.4831h 0.181345v
 10.4831h 0.181345v -2.01953h 0.181345v -7.34281h 0.181345v 7.34281h 0.36269v -3.37482h 0.181345v -2.75743h 0.181345v 2.75743h 0.181345v -1.44147h 0.181345v 4.81629h 0.181345v -4.81629h 0.181345v -3.64733h 0.181345v 3.64733h 0.36269v -1.31596h
 0.181345v -3.37482h 0.181345v 2.16425h 0.181345v 7.34281h 0.181345v -9.50706h 0.181345v 9.50706h 0.181345v -1.78135h 0.181345v -7.72571h 0.181345v 3.37482h 0.181345v -7.72571h 0.181345v 9.04167h 0.181345v -3.64733h 0.36269v -2.01953h 0.181345v
 10.4831h 0.36269v -13.0822h 0.181345v 4.61858h 0.181345v -3.80087h 0.181345v 0.864462h 0.181345v -2.45793h 0.181345v 2.45793h 0.181345v -1.68217h 0.181345v 5.73939h 0.36269v -3.14033h 0.181345v 0.976079h 0.181345v -6.46465h 0.181345v 11.1554h
 0.181345v -2.52652h 0.181345v -7.25305h 0.181345v 4.11272h 0.181345v -8.46361h 0.181345v 7.54673h 0.181345v -0.864462h 0.36269v -7.21299h 0.181345v 2.2447h 0.181345v 4.15058h 0.181345v 3.57514h 0.544034v -4.3509h 0.181345v 3.37482h 0.181345v
 -6.13224h 0.181345v -3.37482h 0.181345v 6.908h 0.181345v -0.775758h 0.181345v 4.3509h 0.181345v -3.57514h 0.181345v -1.51366h 0.181345v 1.51366h 0.181345v 6.94995h 0.181345v -1.21056h 0.181345v 1.21056h 0.181345v 6.13224h 0.181345v -6.13224h
 0.181345v 4.3509h 0.181345v -11.3009h 0.181345v 1.68217h 0.181345v -3.19583h 0.181345v 3.19583h 0.181345v 0.916885h 0.181345v 4.3509h 0.181345v -2.33137h 0.36269v -6.13224h 0.181345v 25.079h 0.181345v -25.079h 0.181345v 12.8145h 0.181345v -6.68227h
 0.181345v 3.64733h 0.181345v -6.58374h 0.181345v 15.7509h 0.181345v 6.13224h 0.181345v -10.4831h 0.181345v 4.3509h 0.181345v -6.13224h 0.181345v 3.80087h 0.181345v 8.46361h 0.181345v -8.46361h 0.36269v 8.46361h 0.36269v -3.37482h 0.36269v -7.10832h
 0.181345v 7.10832h 0.181345v 34.8242h 0.181345v -34.8242h 0.181345v 7.72571h 0.181345v -7.72571h 0.181345v 7.72571h 0.181345v 6.13224h 0.181345v 20.9663h 0.181345v -27.0985h 0.181345v -7.72571h 0.181345v 13.858h 0.181345v -16.6154h 0.181345v
 16.6154h 0.181345v -6.13224h 0.544034v 16.6154h 0.36269v -10.4831h 0.181345v 10.4831h 0.36269v -16.6154h 0.181345v 16.6154h 0.181345v -10.4831h 0.181345v -6.13224h 0.181345v 16.6154h 0.181345v -10.4831h 0.181345v -6.13224h 0.181345v 6.13224h
 0.725379v 20.9663h 0.181345v -20.9663h 0.181345v 20.9663h 0.181345v -10.4831h 0.181345v 10.4831h 0.181345v -20.9663h 0.36269v 10.4831h 0.181345v -16.6154h 0.181345v 6.13224h 0.181345v 10.4831h 0.181345v -16.6154h 0.181345v 27.0985h 0.181345v
 -10.4831h 0.36269v -10.4831h 0.181345v -6.13224h 0.181345v 16.6154h 0.181345v -10.4831h 0.181345v 10.4831h 0.181345v -16.6154h 0.181345v 27.0985h 0.36269v -31.4494h 0.181345v 31.4494h 0.181345v -10.4831h 0.36269v -20.9663h 0.181345v 4.3509h
 0.181345v 27.0985h 0.36269v -10.4831h 0.36269v 10.4831h 0.181345v -10.4831h 0.36269v -16.6154h 0.181345v 27.0985h 0.181345v -20.9663h 0.36269v 20.9663h 0.36269v -10.4831h 0.181345v -10.4831h 0.181345v 20.9663h 0.36269v -10.4831h 0.181345v -10.4831h
 0.181345v 10.4831h 0.544034v 10.4831h 0.181345v -20.9663h 0.36269v -6.13224h 0.181345v 6.13224h 0.36269v 10.4831h 0.181345v 10.4831h 0.181345v -10.4831h 0.36269v -10.4831h 0.181345v 10.4831h 0.36269v 10.4831h 0.181345v -10.4831h 0.36269v 10.4831h
 0.181345v -10.4831h 0.181345v 10.4831h 0.181345v -10.4831h 0.181345v 10.4831h 0.181345v -20.9663h 0.181345v 10.4831h 0.36269v -10.4831h 0.181345v 10.4831h 0.181345v -16.6154h 0.181345v 16.6154h 0.36269v 10.4831h 0.36269v -20.9663h 0.181345v 10.4831h
 0.544034v 10.4831h 0.181345v -27.0985h 0.181345v 6.13224h 0.544034v 20.9663h 0.36269v -10.4831h 0.181345v 10.4831h 0.181345v -10.4831h 0.544034v 10.4831h 0.36269v -20.9663h 0.181345v 20.9663h 0.36269v -10.4831h 0.181345v 10.4831h 0.181345v -10.4831h
 0.36269v 10.4831h 0.36269v -20.9663h 0.181345v 10.4831h 0.181345v 10.4831h 0.36269v -34.8242h 0.181345v 34.8242h 0.181345v -20.9663h 0.181345v 10.4831h 0.181345v -10.4831h 0.181345v 20.9663h 0.181345v -10.4831h 0.181345v 10.4831h 0.181345v -10.4831h
 0.181345v -10.4831h 0.181345v 10.4831h 0.181345v 10.4831h 0.181345v -10.4831h 0.181345v 10.4831h 0.36269v -10.4831h 0.181345v -10.4831h 0.181345v 10.4831h 0.544034v 10.4831h 0.181345v -10.4831h 0.181345v -10.4831h 0.181345v 10.4831h 0.181345v
 10.4831h 0.181345v -10.4831h 0.181345v 10.4831h 0.181345v -20.9663h 0.36269v 20.9663h 0.181345v -10.4831h 0.181345v 10.4831h 0.181345v -10.4831h 0.181345v 10.4831h 0.36269v -10.4831h 0.181345v 10.4831h 0.544034v -10.4831h 0.36269v 10.4831h 0.544034v
 -27.0985h 0.181345v 27.0985h 0.181345v -10.4831h 0.36269v 10.4831h 0.181345v -10.4831h 0.181345v 10.4831h 0.181345v -20.9663h 0.906724v 10.4831h 0.181345v -10.4831h 0.181345v 20.9663h 0.181345v -10.4831h 0.181345v -10.4831h 0.181345v -6.13224h
 0.181345v 6.13224h 0.181345v 10.4831h 0.181345v -10.4831h 0.181345v 10.4831h 0.36269v 10.4831h 0.181345v -27.0985h 0.181345v 6.13224h 0.181345v 10.4831h 0.36269v -16.6154h 0.181345v 27.0985h 0.181345v -20.9663h 0.181345v 10.4831h 0.544034v 10.4831h
 0.36269v -10.4831h 0.36269v 10.4831h 0.544034v -10.4831h 0.181345v 10.4831h 0.36269v -10.4831h 0.36269v 10.4831h 0.181345v -10.4831h 0.181345v 10.4831h 0.544034v -10.4831h 0.181345v 10.4831h 0.181345v -31.4494h 0.181345v 20.9663h 0.181345v 10.4831h
 0.36269v -10.4831h 0.181345v -10.4831h 0.181345v 10.4831h 0.181345v 10.4831h 0.181345v -20.9663h 0.181345v 10.4831h 0.181345v -16.6154h 0.181345v 16.6154h 0.725379v -16.6154h 0.181345v 16.6154h 0.181345v 10.4831h 0.181345v -10.4831h 0.181345v
 -10.4831h 0.181345v 10.4831h 0.181345v 10.4831h 0.181345v -10.4831h 0.181345v 10.4831h 0.725379v -10.4831h 0.36269v -10.4831h 0.181345v 10.4831h 0.181345v -20.9663h 0.181345v 31.4494h 0.36269v -20.9663h 0.181345v -10.4831h 0.181345v 10.4831h
 0.181345v 20.9663h 0.181345v -10.4831h 0.181345v -10.4831h 0.181345v 10.4831h 0.181345v -16.6154h 0.181345v 27.0985h 0.181345v -10.4831h 0.181345v 10.4831h 0.181345v -10.4831h 0.181345v 10.4831h 0.544034v -10.4831h 0.181345v 10.4831h 0.36269v
 -31.4494h 0.181345v 10.4831h 0.181345v 10.4831h 0.181345v -16.6154h 0.181345v 16.6154h 0.181345v 10.4831h 0.544034v -20.9663h 0.181345v 20.9663h 0.36269v -10.4831h 0.544034v 10.4831h 0.181345" fill="none" stroke="black"/>
<path d="M57.1929,280.151h 453.543" fill="none" stroke="black"/>
<path d="M57.1929,272.68v 7.47068" fill="none" stroke="black"/>
<path d="M75.3318,276.415v 3.73534" fill="none" stroke="black"/>
<path d="M93.4707,276.415v 3.73534" fill="none" stroke="black"/>
<path d="M111.61,276.415v 3.73534" fill="none" stroke="black"/>
<path d="M129.749,276.415v 3.73534" fill="none" stroke="black"/>
<path d="M147.887,272.68v 7.47068" fill="none" stroke="black"/>
<path d="M166.026,276.415v 3.73534" fill="none" stroke="black"/>
<path d="M184.165,276.415v 3.73534" fill="none" stroke="black"/>
<path d="M202.304,276.415v 3.73534" fill="none" stroke="black"/>
<path d="M220.443,276.415v 3.73534" fill="none" stroke="black"/>
<path d="M238.582,272.68v 7.47068" fill="none" stroke="black"/>
<path d="M256.721,276.415v 3.73534" fill="none" stroke="black"/>
<path d="M274.86,276.415v 3.73534" fill="none" stroke="black"/>
<path d="M292.999,276.415v 3.73534" fill="none" stroke="black"/>
<path d="M311.138,276.415v 3.73534" fill="none" stroke="black"/>
<path d="M329.277,272.68v 7.47068" fill="none" stroke="black"/>
<path d="M347.415,276.415v 3.73534" fill="none" stroke="black"/>
<path d="M365.554,276.415v 3.73534" fill="none" stroke="black"/>
<path d="M383.693,276.415v 3.73534" fill="none" stroke="black"/>
<path d="M401.832,276.415v 3.73534" fill="none" stroke="black"/>
<path d="M419.971,272.68v 7.47068" fill="none" stroke="black"/>
<path d="M438.11,276.415v 3.73534" fill="none" stroke="black"/>
<path d="M456.249,276.415v 3.73534" fill="none" stroke="black"/>
<path d="M474.388,276.415v 3.73534" fill="none" stroke="black"/>
<path d="M492.527,276.415v 3.73534" fill="none" stroke="black"/>
<path d="M510.666,272.68v 7.47068" fill="none" stroke="black"/>
<path d="M510.666,272.68v 7.47068" fill="none" stroke="black"/>
<text xml:space="preserve" x="54.3523" y="290.27" fill="black" font-size="10.4952" font-family="Helvetica">0</text>
<text xml:space="preserve" x="139.569" y="290.27" fill="black" font-size="10.4952" font-family="Helvetica">500</text>
<text xml:space="preserve" x="227.449" y="290.27" fill="black" font-size="10.4952" font-family="Helvetica">1000</text>
<text xml:space="preserve" x="318.288" y="290.27" fill="black" font-size="10.4952" font-family="Helvetica">1500</text>
<text xml:space="preserve" x="408.831" y="290.27" fill="black" font-size="10.4952" font-family="Helvetica">2000</text>
<text xml:space="preserve" x="499.67" y="290.27" fill="black" font-size="10.4952" font-family="Helvetica">2500</text>
<text xml:space="preserve" x="265.323" y="301.218" fill="black" font-size="10.4952" font-family="Helvetica">Channel</text>
<path d="M57.1929,280.151v -249.023" fill="none" stroke="black"/>
<path d="M63.9961,280.151h -6.80315" fill="none" stroke="black"/>
<path d="M63.9961,277.393h -6.80315" fill="none" stroke="black"/>
<path d="M63.9961,275.062h -6.80315" fill="none" stroke="black"/>
<path d="M63.9961,273.042h -6.80315" fill="none" stroke="black"/>
<path d="M63.9961,271.261h -6.80315" fill="none" stroke="black"/>
<path d="M70.7992,269.667h -13.6063" fill="none" stroke="black"/>
<text xml:space="preserve" x="49.0263" y="273.404" fill="black" font-size="10.4952" font-family="Helvetica">1</text>
<path d="M63.9961,259.184h -6.80315" fill="none" stroke="black"/>
<path d="M63.9961,253.052h -6.80315" fill="none" stroke="black"/>
<path d="M63.9961,248.701h -6.80315" fill="none" stroke="black"/>
<path d="M63.9961,245.326h -6.80315" fill="none" stroke="black"/>
<path d="M63.9961,242.569h -6.80315" fill="none" stroke="black"/>
<path d="M63.9961,240.238h -6.80315" fill="none" stroke="black"/>
<path d="M63.9961,238.218h -6.80315" fill="none" stroke="black"/>
<path d="M63.9961,236.437h -6.80315" fill="none" stroke="black"/>
<path d="M70.7992,234.843h -13.6063" fill="none" stroke="black"/>
<text xml:space="preserve" x="41.629" y="238.489" fill="black" font-size="10.4952" font-family="Helvetica">10</text>
<path d="M63.9961,224.36h -6.80315" fill="none" stroke="black"/>
<path d="M63.9961,218.228h -6.80315" fill="none" stroke="black"/>
<path d="M63.9961,213.877h -6.80315" fill="none" stroke="black"/>
<path d="M63.9961,210.502h -6.80315" fill="none" stroke="black"/>
<path d="M63.9961,207.745h -6.80315" fill="none" stroke="black"/>
<path d="M63.9961,205.413h -6.80315" fill="none" stroke="black"/>
<path d="M63.9961,203.394h -6.80315" fill="none" stroke="black"/>
<path d="M63.9961,201.612h -6.80315" fill="none" stroke="black"/>
<path d="M70.7992,200.019h -13.6063" fill="none" stroke="black"/>
<text xml:space="preserve" x="49.0263" y="200.023" fill="black" font-size="7.16345" font-family="Helvetica">2</text>
<text xml:space="preserve" x="38.0783" y="204.461" fill="black" font-size="10.4952" font-family="Helvetica">10</text>
<path d="M63.9961,189.536h -6.80315" fill="none" stroke="black"/>
<path d="M63.9961,183.404h -6.80315" fill="none" stroke="black"/>
<path d="M63.9961,179.053h -6.80315" fill="none" stroke="black"/>
<path d="M63.9961,175.678h -6.80315" fill="none" stroke="black"/>
<path d="M63.9961,172.92h -6.80315" fill="none" stroke="black"/>
<path d="M63.9961,170.589h -6.80315" fill="none" stroke="black"/>
<path d="M63.9961,168.57h -6.80315" fill="none" stroke="black"/>
<path d="M63.9961,166.788h -6.80315" fill="none" stroke="black"/>
<path d="M70.7992,165.195h -13.6063" fill="none" stroke="black"/>
<text xml:space="preserve" x="49.0263" y="165.108" fill="black" font-size="7.16345" font-family="Helvetica">3</text>
<text xml:space="preserve" x="38.0783" y="169.842" fill="black" font-size="10.4952" font-family="Helvetica">10</text>
<path d="M63.9961,154.712h -6.80315" fill="none" stroke="black"/>
<path d="M63.9961,148.579h -6.80315" fill="none" stroke="black"/>
<path d="M63.9961,144.228h -6.80315" fill="none" stroke="black"/>
<path d="M63.9961,140.854h -6.80315" fill="none" stroke="black"/>
<path d="M63.9961,138.096h -6.80315" fill="none" stroke="black"/>
<path d="M63.9961,135.765h -6.80315" fill="none" stroke="black"/>
<path d="M63.9961,133.745h -6.80315" fill="none" stroke="black"/>
<path d="M63.9961,131.964h -6.80315" fill="none" stroke="black"/>
<path d="M70.7992,130.37h -13.6063" fill="none" stroke="black"/>
<text xml:space="preserve" x="49.0263" y="130.488" fill="black" font-size="7.16345" font-family="Helvetica">4</text>
<text xml:space="preserve" x="38.0783" y="134.927" fill="black" font-size="10.4952" font-family="Helvetica">10</text>
<path d="M63.9961,119.887h -6.80315" fill="none" stroke="black"/>
<path d="M63.9961,113.755h -6.80315" fill="none" stroke="black"/>
<path d="M63.9961,109.404h -6.80315" fill="none" stroke="black"/>
<path d="M63.9961,106.029h -6.80315" fill="none" stroke="black"/>
<path d="M63.9961,103.272h -6.80315" fill="none" stroke="black"/>
<path d="M63.9961,100.941h -6.80315" fill="none" stroke="black"/>
<path d="M63.9961,98.9211h -6.80315" fill="none" stroke="black"/>
<path d="M63.9961,97.1397h -6.80315" fill="none" stroke="black"/>
<path d="M70.7992,95.5462h -13.6063" fill="none" stroke="black"/>
<text xml:space="preserve" x="49.0263" y="95.2772" fill="black" font-size="7.16345" font-family="Helvetica">5</text>
<text xml:space="preserve" x="38.0783" y="100.012" fill="black" font-size="10.4952" font-family="Helvetica">10</text>
<path d="M63.9961,85.0631h -6.80315" fill="none" stroke="black"/>
<path d="M63.9961,78.9309h -6.80315" fill="none" stroke="black"/>
<path d="M63.9961,74.58h -6.80315" fill="none" stroke="black"/>
<path d="M63.9961,71.2051h -6.80315" fill="none" stroke="black"/>
<path d="M63.9961,68.4477h -6.80315" fill="none" stroke="black"/>
<path d="M63.9961,66.1163h -6.80315" fill="none" stroke="black"/>
<path d="M63.9961,64.0968h -6.80315" fill="none" stroke="black"/>
<path d="M63.9961,62.3155h -6.80315" fill="none" stroke="black"/>
<path d="M70.7992,60.722h -13.6063" fill="none" stroke="black"/>
<text xml:space="preserve" x="49.0263" y="60.6579" fill="black" font-size="7.16345" font-family="Helvetica">6</text>
<text xml:space="preserve" x="38.0783" y="65.3921" fill="black" font-size="10.4952" font-family="Helvetica">10</text>
<path d="M63.9961,50.2389h -6.80315" fill="none" stroke="black"/>
<path d="M63.9961,44.1066h -6.80315" fill="none" stroke="black"/>
<path d="M63.9961,39.7557h -6.80315" fill="none" stroke="black"/>
<path d="M63.9961,36.3809h -6.80315" fill="none" stroke="black"/>
<path d="M63.9961,33.6235h -6.80315" fill="none" stroke="black"/>
<path d="M63.9961,31.2921h -6.80315" fill="none" stroke="black"/>
<g transform="rotate(-90,26.5385,191.442)">
<text xml:space="preserve" x="26.5385" y="191.442" fill="black" font-size="10.4952" font-family="Helvetica">Counts/Channel</text>
</g>
<text xml:space="preserve" x="404.097" y="60.6579" fill="black" font-size="14.7788" font-family="Helvetica" font-weight="bold"> = 2.4879 MeV</text>
<text xml:space="preserve" x="398.179" y="63.9127" fill="black" font-size="10.0192" font-family="Helvetica" font-weight="bold">p</text>
<text xml:space="preserve" x="389.006" y="60.6579" fill="black" font-size="14.7788" font-family="Helvetica" font-weight="bold">E</text>
<path d="M262.163,163.753v 26.165" fill="none" stroke="black"/>
<path d="M264.454,189.918l -2.29122, 3.9685l -2.29122, -3.9685z" fill="black"/>
<path d="M264.454,189.918l -2.29122, 3.9685l -2.29122, -3.9685h 4.58243z" fill="none" stroke="black"/>
<text xml:space="preserve" x="266.803" y="161.557" fill="black" font-size="10.4952" font-family="Helvetica" font-weight="bold">_1 	1.369 MeV</text>
<text xml:space="preserve" x="260.293" y="161.557" fill="black" font-size="10.4952" font-family="Times">&#0945;</text>
<path d="M184.528,130.37v 30.8557" fill="none" stroke="black"/>
<path d="M186.819,161.226l -2.29122, 3.9685l -2.29122, -3.9685z" fill="black"/>
<path d="M186.819,161.226l -2.29122, 3.9685l -2.29122, -3.9685h 4.58243z" fill="none" stroke="black"/>
<text xml:space="preserve" x="172.117" y="127.529" fill="black" font-size="10.4952" font-family="Helvetica" font-weight="bold"># p_1 	0.844 MeV</text>
<path d="M210.104,148.579v 12.6469" fill="none" stroke="black"/>
<path d="M212.395,161.226l -2.29122, 3.9685l -2.29122, -3.9685z" fill="black"/>
<path d="M212.395,161.226l -2.29122, 3.9685l -2.29122, -3.9685h 4.58243z" fill="none" stroke="black"/>
<text xml:space="preserve" x="197.564" y="144.099" fill="black" font-size="10.4952" font-family="Helvetica" font-weight="bold"># p_2 	1.015 MeV</text>
<path d="M497.606,269.667h 13.0592" fill="none" stroke="black"/>
<path d="M504.136,259.184h 6.52961" fill="none" stroke="black"/>
<path d="M504.136,253.052h 6.52961" fill="none" stroke="black"/>
<path d="M504.136,248.701h 6.52961" fill="none" stroke="black"/>
<path d="M504.136,245.326h 6.52961" fill="none" stroke="black"/>
<path d="M504.136,242.569h 6.52961" fill="none" stroke="black"/>
<path d="M504.136,240.238h 6.52961" fill="none" stroke="black"/>
<path d="M504.136,238.218h 6.52961" fill="none" stroke="black"/>
<path d="M504.136,236.437h 6.52961" fill="none" stroke="black"/>
<path d="M497.606,234.843h 13.0592" fill="none" stroke="black"/>
<path d="M504.136,224.36h 6.52961" fill="none" stroke="black"/>
<path d="M504.136,218.228h 6.52961" fill="none" stroke="black"/>
<path d="M504.136,213.877h 6.52961" fill="none" stroke="black"/>
<path d="M504.136,210.502h 6.52961" fill="none" stroke="black"/>
<path d="M504.136,207.745h 6.52961" fill="none" stroke="black"/>
<path d="M504.136,205.413h 6.52961" fill="none" stroke="black"/>
<path d="M504.136,203.394h 6.52961" fill="none" stroke="black"/>
<path d="M504.136,201.612h 6.52961" fill="none" stroke="black"/>
<path d="M497.606,200.019h 13.0592" fill="none" stroke="black"/>
<path d="M504.136,189.536h 6.52961" fill="none" stroke="black"/>
<path d="M504.136,183.404h 6.52961" fill="none" stroke="black"/>
<path d="M504.136,179.053h 6.52961" fill="none" stroke="black"/>
<path d="M504.136,175.678h 6.52961" fill="none" stroke="black"/>
<path d="M504.136,172.92h 6.52961" fill="none" stroke="black"/>
<path d="M504.136,170.589h 6.52961" fill="none" stroke="black"/>
<path d="M504.136,168.57h 6.52961" fill="none" stroke="black"/>
<path d="M504.136,166.788h 6.52961" fill="none" stroke="black"/>
<path d="M497.606,165.195h 13.0592" fill="none" stroke="black"/>
<path d="M504.136,154.712h 6.52961" fill="none" stroke="black"/>
<path d="M504.136,148.579h 6.52961" fill="none" stroke="black"/>
<path d="M504.136,144.228h 6.52961" fill="none" stroke="black"/>
<path d="M504.136,140.854h 6.52961" fill="none" stroke="black"/>
<path d="M504.136,138.096h 6.52961" fill="none" stroke="black"/>
<path d="M504.136,135.765h 6.52961" fill="none" stroke="black"/>
<path d="M504.136,133.745h 6.52961" fill="none" stroke="black"/>
<path d="M504.136,131.964h 6.52961" fill="none" stroke="black"/>
<path d="M497.606,130.37h 13.0592" fill="none" stroke="black"/>
<path d="M504.136,119.887h 6.52961" fill="none" stroke="black"/>
<path d="M504.136,113.755h 6.52961" fill="none" stroke="black"/>
<path d="M504.136,109.404h 6.52961" fill="none" stroke="black"/>
<path d="M504.136,106.029h 6.52961" fill="none" stroke="black"/>
<path d="M504.136,103.272h 6.52961" fill="none" stroke="black"/>
<path d="M504.136,100.941h 6.52961" fill="none" stroke="black"/>
<path d="M504.136,98.9211h 6.52961" fill="none" stroke="black"/>
<path d="M504.136,97.1397h 6.52961" fill="none" stroke="black"/>
<path d="M497.606,95.5462h 13.0592" fill="none" stroke="black"/>
<path d="M504.136,85.0631h 6.52961" fill="none" stroke="black"/>
<path d="M504.136,78.9309h 6.52961" fill="none" stroke="black"/>
<path d="M504.136,74.58h 6.52961" fill="none" stroke="black"/>
<path d="M504.136,71.2051h 6.52961" fill="none" stroke="black"/>
<path d="M504.136,68.4477h 6.52961" fill="none" stroke="black"/>
<path d="M504.136,66.1163h 6.52961" fill="none" stroke="black"/>
<path d="M504.136,64.0968h 6.52961" fill="none" stroke="black"/>
<path d="M504.136,62.3155h 6.52961" fill="none" stroke="black"/>
<path d="M497.606,60.722h 13.0592" fill="none" stroke="black"/>
<path d="M504.136,50.2389h 6.52961" fill="none" stroke="black"/>
<path d="M504.136,44.1066h 6.52961" fill="none" stroke="black"/>
<path d="M504.136,39.7557h 6.52961" fill="none" stroke="black"/>
<path d="M504.136,36.3809h 6.52961" fill="none" stroke="black"/>
<path d="M504.136,33.6235h 6.52961" fill="none" stroke="black"/>
<path d="M504.136,31.2921h 6.52961" fill="none" stroke="black"/>
<path d="M57.1929,38.127v -7.46952" fill="none" stroke="black"/>
<path d="M75.3318,38.127v -7.46952" fill="none" stroke="black"/>
<path d="M93.4707,38.127v -7.46952" fill="none" stroke="black"/>
<path d="M111.61,38.127v -7.46952" fill="none" stroke="black"/>
<path d="M129.749,38.127v -7.46952" fill="none" stroke="black"/>
<path d="M147.887,38.127v -7.46952" fill="none" stroke="black"/>
<path d="M166.026,38.127v -7.46952" fill="none" stroke="black"/>
<path d="M184.165,38.127v -7.46952" fill="none" stroke="black"/>
<path d="M202.304,38.127v -7.46952" fill="none" stroke="black"/>
<path d="M220.443,38.127v -7.46952" fill="none" stroke="black"/>
<path d="M238.582,38.127v -7.46952" fill="none" stroke="black"/>
<path d="M256.721,38.127v -7.46952" fill="none" stroke="black"/>
<path d="M274.86,38.127v -7.46952" fill="none" stroke="black"/>
<path d="M292.999,38.127v -7.46952" fill="none" stroke="black"/>
<path d="M311.138,38.127v -7.46952" fill="none" stroke="black"/>
<path d="M329.277,38.127v -7.46952" fill="none" stroke="black"/>
<path d="M347.415,38.127v -7.46952" fill="none" stroke="black"/>
<path d="M365.554,38.127v -7.46952" fill="none" stroke="black"/>
<path d="M383.693,38.127v -7.46952" fill="none" stroke="black"/>
<path d="M401.832,38.127v -7.46952" fill="none" stroke="black"/>
<path d="M419.971,38.127v -7.46952" fill="none" stroke="black"/>
<path d="M438.11,38.127v -7.46952" fill="none" stroke="black"/>
<path d="M456.249,38.127v -7.46952" fill="none" stroke="black"/>
<path d="M474.388,38.127v -7.46952" fill="none" stroke="black"/>
<path d="M492.527,38.127v -7.46952" fill="none" stroke="black"/>
<path d="M510.666,38.127v -7.46952" fill="none" stroke="black"/></svg>
