<?xml version="1.0" standalone="no"?>
<svg width="567.429" height="311.778" viewBox="0 0 567.429 311.778" xmlns="http://www.w3.org/2000/svg" shape-rendering="crispEdges">
<title>
Yields/P1/det-6/run_0103_Fit.svg
</title>
<desc>
Creator: ROOT Version 6.12/06
CreationDate: Mon Apr 15 10:29:02 2019</desc>
<defs>
</defs>
<rect x="0.5" y="0" width="566.929" height="311.278" fill="white"/>
<rect x="57.1929" y="31.1278" width="453.543" height="249.023" fill="white"/>
<rect x="57.1929" y="31.1278" width="453.543" height="249.023" fill="none" stroke="black"/>
<rect x="57.1929" y="31.1278" width="453.543" height="249.023" fill="white"/>
<rect x="57.1929" y="31.1278" width="453.543" height="249.023" fill="none" stroke="black"/>
<path d="M57.1929,40.7936h 0.181345v 239.357h 1.99479v -10.4835h 0.181345v 10.4835h 14.5076v -10.4835h 0.181345v 10.4835h 0.181345v -10.4835h 0.181345v 10.4835h 8.34186v -10.4835h 0.181345v 10.4835h 0.725379v -10.4835h 0.181345v 10.4835h 0.544034v
 -10.4835h 0.181345v 10.4835h 0.181345v -10.4835h 0.36269v 10.4835h 0.544034v -10.4835h 0.181345v 10.4835h 0.544034v -10.4835h 0.181345v 10.4835h 0.181345v -10.4835h 0.36269v 10.4835h 0.544034v -10.4835h 0.181345v -10.4835h 0.181345v 20.967h
 0.181345v -10.4835h 0.181345v -39.9145h 0.181345v -15.1023h 0.181345v -13.5367h 0.181345v -8.20618h 0.181345v -7.34308h 0.181345v -6.32514h 0.181345v -3.16675h 0.181345v -2.05837h 0.181345v -2.16795h 0.181345v -0.867103h 0.181345v -2.29974h
 0.181345v 2.4782h 0.181345v -1.6361h 0.181345v -1.45799h 0.181345v -0.0182774h 0.181345v -1.07511h 0.181345v -0.219567h 0.181345v -0.462358h 0.181345v 0.73305h 0.181345v -1.2918h 0.181345v 0.110111h 0.181345v -0.466364h 0.181345v -1.23414h 0.181345v
 0.886087h 0.181345v -1.05445h 0.181345v 0.641268h 0.181345v 0.563528h 0.181345v -0.794662h 0.181345v -0.213526h 0.181345v 0.0282966h 0.181345v -0.651363h 0.181345v 1.49588h 0.181345v -0.544159h 0.181345v -0.072056h 0.181345v -0.341169h 0.181345v
 -0.579132h 0.181345v 0.734546h 0.181345v -0.53025h 0.181345v -0.788123h 0.181345v 1.06488h 0.181345v -0.249311h 0.181345v 0.221406h 0.181345v -1.01092h 0.181345v 1.03883h 0.181345v -0.575459h 0.181345v 1.02909h 0.181345v -0.564941h 0.181345v
 0.22345h 0.181345v 0.0705107h 0.181345v 0.184881h 0.181345v -0.506543h 0.181345v 0.94202h 0.181345v -0.704932h 0.181345v 0.514684h 0.181345v -0.288095h 0.181345v 0.626334h 0.181345v 0.903912h 0.181345v -1.03717h 0.181345v 0.974149h 0.181345v
 -0.826014h 0.181345v 0.179699h 0.181345v -1.22914h 0.181345v -1.09801h 0.181345v -0.987412h 0.181345v -3.00752h 0.181345v -2.27041h 0.181345v -3.14098h 0.181345v -3.59387h 0.181345v -3.32894h 0.181345v -3.02068h 0.181345v -2.70413h 0.181345v
 -2.59994h 0.181345v -2.06192h 0.181345v -0.810302h 0.181345v -0.899797h 0.181345v -0.0393868h 0.181345v 0.495799h 0.181345v 0.967175h 0.181345v 1.70928h 0.181345v 2.183h 0.181345v 3.17865h 0.181345v 2.75338h 0.181345v 3.47274h 0.181345v 4.92186h
 0.181345v 3.35147h 0.181345v 4.43244h 0.181345v 4.94699h 0.181345v 1.42309h 0.181345v 3.39337h 0.181345v 1.45075h 0.181345v 1.57662h 0.181345v 0.227014h 0.181345v 0.259531h 0.181345v 0.264062h 0.181345v 0.946546h 0.181345v 0.38292h 0.181345v
 -0.0966427h 0.181345v -0.159711h 0.181345v 0.386179h 0.181345v -0.669477h 0.181345v 0.0312168h 0.181345v -0.431278h 0.181345v 1.2334h 0.181345v 0.536625h 0.181345v -0.700489h 0.181345v 0.564537h 0.181345v 0.834668h 0.181345v -0.52704h 0.181345v
 0.420153h 0.181345v -1.38979h 0.181345v -0.288706h 0.181345v 1.05257h 0.181345v -0.0340259h 0.181345v 0.802643h 0.181345v -0.354221h 0.181345v 0.426071h 0.181345v 0.144733h 0.181345v -0.710202h 0.181345v 0.601522h 0.181345v -0.215044h 0.181345v
 -0.31694h 0.181345v 0.495931h 0.181345v 0.2542h 0.181345v -0.468736h 0.181345v 0.0711744h 0.181345v 1.381h 0.181345v 0.196681h 0.181345v -0.62058h 0.181345v 1.18529h 0.181345v -0.122798h 0.181345v -0.638597h 0.181345v 1.60656h 0.181345v -0.63826h
 0.181345v 1.21408h 0.181345v -0.312778h 0.181345v 0.0887071h 0.181345v 0.63596h 0.181345v -1.45838h 0.181345v 0.778004h 0.181345v 0.867103h 0.181345v -1.26111h 0.181345v 0.707709h 0.181345v 1.67425h 0.181345v -0.788427h 0.181345v 1.46074h 0.181345v
 -1.41265h 0.181345v 0.0966427h 0.181345v 0.442701h 0.181345v -0.0995038h 0.181345v -0.773307h 0.181345v 0.922809h 0.181345v -2.10076h 0.181345v 0.397456h 0.181345v 1.5043h 0.181345v 1.67061h 0.181345v -1.5216h 0.181345v 0.767907h 0.181345v
 -0.516246h 0.181345v 0.204389h 0.181345v -1.46956h 0.181345v 1.52109h 0.181345v 0.740509h 0.181345v -1.78743h 0.181345v 2.28337h 0.181345v -0.817741h 0.181345v 0.0531618h 0.181345v -0.106137h 0.181345v -0.365723h 0.181345v 2.22003h 0.181345v
 -1.42521h 0.181345v 1.18796h 0.181345v -0.690212h 0.181345v -0.223244h 0.181345v -0.913659h 0.181345v 1.42067h 0.181345v -1.36843h 0.181345v -0.463821h 0.181345v 0.942317h 0.181345v -0.0539199h 0.181345v -0.939065h 0.181345v 0.725287h 0.181345v
 -1.12464h 0.181345v 0.654408h 0.181345v -1.37591h 0.181345v -2.22371h 0.181345v -0.557282h 0.181345v -0.271126h 0.181345v 0.747528h 0.181345v -1.2385h 0.181345v -0.0371154h 0.181345v -0.0739587h 0.181345v -0.18333h 0.181345v 0.257289h 0.181345v
 -0.688421h 0.181345v 1.40968h 0.181345v 0.554364h 0.181345v 0.08088h 0.181345v 0.748069h 0.181345v 1.19641h 0.181345v 0.563712h 0.181345v 0.241226h 0.181345v 1.69655h 0.181345v 1.30612h 0.181345v 0.299505h 0.181345v -0.995008h 0.181345v 1.80267h
 0.181345v -0.440246h 0.181345v 0.893692h 0.181345v -0.831579h 0.181345v 1.23137h 0.181345v 0.410646h 0.181345v -2.13192h 0.181345v 1.52006h 0.181345v 1.39495h 0.181345v -1.72448h 0.181345v -0.886209h 0.181345v -1.06806h 0.181345v 2.68894h 0.181345v
 -1.3103h 0.181345v -0.493906h 0.181345v -0.0606194h 0.181345v 1.26111h 0.181345v 1.66677h 0.181345v -1.99204h 0.181345v 0.997583h 0.181345v -0.803261h 0.181345v 1.29232h 0.181345v -1.22699h 0.181345v -0.514927h 0.181345v 1.53038h 0.181345v
 -0.414396h 0.181345v 0.48458h 0.181345v -0.821443h 0.181345v 0.336863h 0.181345v -1.79654h 0.181345v 1.13016h 0.181345v 0.46337h 0.181345v 1.11568h 0.181345v -1.4481h 0.181345v -1.8543h 0.181345v 1.14772h 0.181345v 0.253136h 0.181345v -0.440246h
 0.181345v -1.58733h 0.181345v 1.21991h 0.181345v -0.766709h 0.181345v 1.70255h 0.181345v -3.43916h 0.181345v 1.85207h 0.181345v -1.27732h 0.181345v 1.62907h 0.181345v -1.94528h 0.181345v 0.0522437h 0.181345v 1.02854h 0.181345v -0.764579h 0.181345v
 0.597456h 0.181345v 0.336114h 0.181345v 0.934631h 0.181345v -0.239128h 0.181345v 1.495h 0.181345v -1.67189h 0.181345v 1.67189h 0.181345v -0.0653328h 0.181345v 2.24478h 0.181345v -1.23386h 0.181345v -1.26947h 0.181345v 2.80888h 0.181345v -0.305556h
 0.181345v -1.3034h 0.181345v -0.545087h 0.181345v 2.38733h 0.181345v -3.42189h 0.181345v 1.78923h 0.181345v 0.284037h 0.181345v -2.13563h 0.181345v 1.4353h 0.181345v -0.928991h 0.181345v 1.2751h 0.181345v 0.790535h 0.181345v -1.80599h 0.181345v
 0.876053h 0.181345v 0.0695382h 0.181345v 0.210554h 0.181345v 1.0233h 0.181345v -0.373464h 0.181345v -0.146841h 0.181345v 2.5399h 0.181345v -3.66597h 0.181345v 1.79838h 0.181345v -1.17531h 0.181345v 2.20244h 0.181345v -1.69944h 0.181345v -0.145429h
 0.181345v -0.637662h 0.181345v 0.929933h 0.181345v 1.06986h 0.181345v -1.06986h 0.181345v -0.929933h 0.181345v 0.350933h 0.181345v 2.05006h 0.181345v -2.87901h 0.181345v -0.0670712h 0.181345v 1.32818h 0.181345v -0.643694h 0.181345v -2.02835h
 0.181345v 2.52661h 0.181345v 0.440551h 0.181345v -1.88865h 0.181345v 1.52064h 0.181345v -2.16433h 0.181345v 1.52367h 0.181345v 0.568124h 0.181345v 0.440551h 0.181345v -2.08465h 0.181345v 1.42854h 0.181345v 0.143362h 0.181345v 0.0721936h 0.181345v
 -0.498265h 0.181345v -1.2751h 0.181345v 0.657692h 0.181345v 2.08697h 0.181345v -0.825862h 0.181345v -1.8543h 0.181345v -0.87885h 0.181345v 0.433043h 0.181345v 2.44695h 0.181345v -2.2575h 0.181345v 0.916919h 0.181345v -1.47831h 0.181345v 0.246937h
 0.181345v 0.831579h 0.181345v 0.467462h 0.181345v 0.20485h 0.181345v -0.272521h 0.181345v -0.267698h 0.36269v -0.585539h 0.181345v 0.988883h 0.181345v -1.17913h 0.181345v 0.126566h 0.181345v 1.74967h 0.181345v -0.28271h 0.181345v -2.08946h 0.181345v
 1.81194h 0.181345v -0.997583h 0.181345v 3.05652h 0.181345v -1.28315h 0.181345v 0.29227h 0.181345v 0.912308h 0.181345v -0.689338h 0.181345v 0.379081h 0.181345v 0.0769698h 0.181345v -0.605062h 0.181345v 0.149011h 0.181345v -0.442701h 0.181345v
 3.78025h 0.181345v -3.33755h 0.181345v 2.25677h 0.181345v 0.0871733h 0.181345v -3.56606h 0.181345v 4.19076h 0.181345v -2.58956h 0.181345v 0.5472h 0.181345v 1.07194h 0.181345v -1.30888h 0.181345v 1.91918h 0.181345v -1.19691h 0.181345v -0.081976h
 0.181345v -0.796211h 0.181345v 2.43523h 0.181345v -0.0908383h 0.181345v -1.04952h 0.181345v -0.41668h 0.181345v 1.28614h 0.181345v -1.03752h 0.181345v 1.3998h 0.36269v 0.0919427h 0.181345v -1.06806h 0.181345v 2.5188h 0.181345v -0.301496h 0.181345v
 0.301496h 0.181345v -1.9942h 0.181345v 0.543455h 0.181345v -0.895204h 0.181345v 0.44098h 0.181345v -0.177938h 0.181345v 1.78141h 0.181345v 1.13616h 0.181345v -0.106888h 0.181345v -2.98656h 0.181345v 1.56441h 0.181345v 3.35072h 0.181345v -4.10711h
 0.181345v -0.274168h 0.181345v 2.03254h 0.181345v 0.962308h 0.181345v -3.35284h 0.181345v 2.2873h 0.181345v 1.97557h 0.181345v -0.347706h 0.181345v -2.03391h 0.181345v -2.65703h 0.181345v 1.59353h 0.181345v 3.44512h 0.181345v -2.07811h 0.181345v
 3.42612h 0.181345v -5.78675h 0.181345v 3.97688h 0.181345v -2.11878h 0.181345v 1.12845h 0.181345v -0.523392h 0.181345v -0.505884h 0.181345v -1.05675h 0.181345v -0.092505h 0.181345v 2.72068h 0.181345v -0.435268h 0.181345v -0.213025h 0.181345v 1.9142h
 0.181345v -1.37591h 0.181345v -0.852311h 0.181345v 2.59268h 0.181345v -2.27867h 0.181345v -0.105398h 0.181345v 0.643694h 0.181345v -0.217623h 0.181345v 0.438423h 0.181345v -0.759096h 0.181345v 2.40213h 0.181345v -1.30567h 0.181345v -2.70056h
 0.181345v 3.39874h 0.181345v 0.484026h 0.181345v -1.95799h 0.181345v -0.426071h 0.181345v 0.976115h 0.181345v 2.03561h 0.181345v -2.36803h 0.181345v 0.2208h 0.36269v 0.916919h 0.181345v -0.692847h 0.181345v -0.224071h 0.181345v -1.17635h 0.181345v
 1.06555h 0.181345v 0.110803h 0.181345v -2.17174h 0.181345v 1.30725h 0.181345v 0.864494h 0.181345v -0.438423h 0.181345v 2.33146h 0.181345v -1.09382h 0.181345v -1.34529h 0.181345v -1.7217h 0.181345v 6.18041h 0.181345v -3.68856h 0.181345v -0.224071h
 0.181345v -1.5824h 0.181345v 0.303512h 0.181345v 2.07811h 0.181345v -1.23764h 0.181345v -1.34299h 0.181345v 2.58063h 0.181345v -1.02002h 0.181345v -0.643694h 0.181345v -0.817741h 0.181345v 1.02928h 0.181345v -1.61481h 0.181345v 2.60514h 0.181345v
 -1.30653h 0.181345v 0.423091h 0.181345v -2.73964h 0.181345v 0.827688h 0.181345v 1.38491h 0.181345v -0.509291h 0.181345v -1.88124h 0.181345v 0.632162h 0.181345v 1.14925h 0.181345v -0.775787h 0.181345v -2.59915h 0.181345v 1.33049h 0.181345v -0.596537h
 0.181345v -2.39102h 0.181345v -0.212526h 0.181345v -0.278801h 0.181345v 0.779422h 0.181345v -1.25529h 0.181345v 1.32818h 0.181345v -0.432159h 0.181345v 1.10447h 0.181345v -0.961785h 0.181345v -1.10548h 0.181345v -1.09227h 0.181345v 2.93209h
 0.181345v 0.931034h 0.181345v -2.0196h 0.181345v 0.498265h 0.181345v -0.428081h 0.181345v 3.20009h 0.181345v -1.33049h 0.181345v -0.775787h 0.181345v -1.64637h 0.181345v 2.34276h 0.181345v -0.62058h 0.181345v 0.940688h 0.181345v 0.493235h 0.181345v
 -1.8832h 0.181345v -2.38406h 0.181345v 2.60703h 0.181345v 0.302501h 0.181345v -0.745201h 0.181345v -2.16433h 0.181345v 2.31046h 0.181345v -0.786796h 0.181345v -2.08046h 0.181345v -2.35747h 0.181345v -1.81026h 0.181345v -0.498905h 0.181345v -2.15838h
 0.181345v -0.827917h 0.181345v -1.43153h 0.181345v -2.31241h 0.181345v -2.229h 0.181345v -0.580853h 0.181345v -0.876361h 0.181345v -0.67913h 0.181345v -1.37125h 0.181345v -0.290679h 0.181345v -1.65291h 0.181345v 0.454119h 0.181345v -0.385136h
 0.181345v -0.0345309h 0.181345v 0.455171h 0.181345v 0.450973h 0.181345v 0.427117h 0.181345v 0.654344h 0.181345v 0.953841h 0.181345v 1.58887h 0.36269v 2.22711h 0.181345v 0.661287h 0.181345v 3.50222h 0.181345v 1.29665h 0.181345v -0.115602h 0.181345v
 2.22944h 0.181345v 2.99063h 0.181345v 1.30123h 0.181345v 2.36102h 0.181345v 2.38912h 0.181345v -0.0806643h 0.181345v -0.475155h 0.181345v 3.29718h 0.181345v -1.03055h 0.181345v 2.24116h 0.181345v -2.05893h 0.181345v 4.19905h 0.181345v -0.476402h
 0.181345v 0.236326h 0.181345v 0.607492h 0.181345v 1.15904h 0.181345v -2.91288h 0.181345v 0.448167h 0.181345v 3.57527h 0.181345v -2.14511h 0.181345v -1.08509h 0.181345v 1.72335h 0.181345v -0.512745h 0.36269v -0.85749h 0.181345v -0.118624h 0.181345v
 -0.692847h 0.181345v -0.224071h 0.181345v 1.51957h 0.181345v 0.247949h 0.181345v -0.247949h 0.181345v 0.373464h 0.181345v 1.73422h 0.181345v -1.73422h 0.181345v 1.87624h 0.181345v -0.967194h 0.181345v 0.270088h 0.181345v -1.5526h 0.181345v 1.68947h
 0.181345v -2.64251h 0.181345v 0.469015h 0.181345v 1.11169h 0.181345v 2.50333h 0.181345v 0.305556h 0.181345v -0.752619h 0.181345v -1.53468h 0.181345v -1.02578h 0.181345v 1.15904h 0.181345v 0.134441h 0.181345v -1.04348h 0.181345v 3.37494h 0.181345v
 -0.617413h 0.181345v -2.88304h 0.181345v 0.769209h 0.181345v 1.81433h 0.181345v -1.68224h 0.181345v 1.68224h 0.181345v -1.94528h 0.181345v 1.65159h 0.181345v 0.146132h 0.181345v -1.92754h 0.181345v -0.256354h 0.181345v 1.74967h 0.181345v 0.434227h
 0.181345v 2.04059h 0.181345v -0.817741h 0.181345v -0.775787h 0.181345v -0.299505h 0.181345v -0.581784h 0.181345v -2.97005h 0.181345v 2.27295h 0.181345v -0.135647h 0.181345v 3.30757h 0.181345v -2.75753h 0.181345v 1.93979h 0.181345v -0.62378h 0.36269v
 -0.599069h 0.181345v 1.22285h 0.181345v -2.07918h 0.181345v 0.422107h 0.181345v 1.0333h 0.181345v 4.19905h 0.181345v -4.0455h 0.181345v 0.311857h 0.181345v -0.311857h 0.181345v 0.63028h 0.181345v 1.88231h 0.181345v -4.39654h 0.181345v 1.13133h
 0.181345v 3.26521h 0.181345v -2.81815h 0.181345v -0.88129h 0.181345v 3.88277h 0.181345v -1.90388h 0.181345v 0.835822h 0.181345v -0.339891h 0.181345v 0.339891h 0.181345v -4.1782h 0.181345v 3.67119h 0.181345v -2.86793h 0.181345v 1.59353h 0.181345v
 -1.17531h 0.181345v 1.79909h 0.181345v -0.158373h 0.181345v 0.643694h 0.181345v -4.51456h 0.181345v -1.05974h 0.181345v -0.113293h 0.181345v -2.29917h 0.181345v -3.21902h 0.36269v -0.912308h 0.181345v -0.929933h 0.181345v -2.19206h 0.181345v
 -2.0196h 0.181345v -2.55487h 0.181345v -0.735816h 0.181345v -3.01583h 0.181345v -0.742872h 0.181345v -0.358186h 0.181345v -2.04371h 0.181345v -1.82508h 0.181345v -0.586485h 0.181345v -1.56954h 0.181345v -1.0031h 0.181345v -0.100763h 0.181345v
 -0.100097h 0.181345v -0.471452h 0.181345v 0.372014h 0.181345v 0.0396969h 0.181345v -0.314696h 0.181345v 0.943707h 0.181345v 1.77882h 0.181345v 0.116973h 0.181345v 0.721497h 0.181345v 0.500858h 0.181345v 1.75279h 0.181345v 3.16906h 0.181345v 1.79464h
 0.181345v 1.15447h 0.181345v 0.973258h 0.181345v 2.31623h 0.181345v 1.9892h 0.181345v 3.39013h 0.181345v 0.463032h 0.181345v 2.64821h 0.181345v 1.88681h 0.181345v -0.417255h 0.181345v 4.94562h 0.181345v 0.581784h 0.181345v 2.06202h 0.181345v
 2.38821h 0.181345v -1.33258h 0.181345v 1.73593h 0.181345v -0.203017h 0.181345v 4.41843h 0.181345v -5.01162h 0.181345v 7.03122h 0.181345v -2.2873h 0.181345v 3.91516h 0.181345v -3.91516h 0.181345v -0.521587h 0.181345v 1.33933h 0.181345v 0.864494h
 0.181345v -0.581784h 0.181345v 2.81471h 0.181345v -1.93342h 0.181345v 4.55407h 0.181345v -1.5526h 0.181345v -3.30098h 0.181345v 0.299505h 0.181345v -0.593195h 0.181345v -4.92186h 0.181345v 2.0196h 0.181345v 4.43129h 0.181345v 1.70118h 0.181345v
 -2.33146h 0.181345v -0.305556h 0.181345v -3.73364h 0.181345v 4.99475h 0.181345v 2.88962h 0.181345v -5.31473h 0.181345v -0.817741h 0.181345v 1.98174h 0.181345v 7.726h 0.181345v -10.2293h 0.181345v 1.06181h 0.181345v -1.06181h 0.181345v 0.789285h
 0.181345v -0.53074h 0.181345v 1.65159h 0.181345v 3.59467h 0.181345v -1.74037h 0.181345v -2.97515h 0.181345v -0.53074h 0.181345v 0.803261h 0.181345v 3.03505h 0.181345v -4.35106h 0.181345v 1.04348h 0.181345v 1.41454h 0.181345v -4.78948h 0.181345v
 5.08898h 0.181345v -1.164h 0.181345v -0.277522h 0.181345v -1.06181h 0.181345v 5.14034h 0.181345v -4.61875h 0.181345v 2.2873h 0.181345v -0.898751h 0.181345v -2.66026h 0.181345v 0.75013h 0.181345v 0.521587h 0.181345v -1.7519h 0.181345v 0.726117h
 0.181345v -1.86384h 0.181345v 7.15248h 0.181345v -4.26287h 0.181345v 0.540219h 0.36269v -0.540219h 0.181345v -3.53331h 0.181345v 4.35106h 0.181345v -1.33933h 0.181345v 0.521587h 0.181345v -1.02578h 0.181345v 5.64454h 0.181345v -7.28757h 0.181345v
 5.26797h 0.181345v -2.8622h 0.181345v -1.00868h 0.181345v 1.53942h 0.181345v 2.0196h 0.181345v -2.0196h 0.181345v 1.71404h 0.36269v -1.44152h 0.181345v 2.70263h 0.181345v -1.8543h 0.181345v 2.52661h 0.181345v -4.69095h 0.181345v 4.69095h 0.181345v
 -4.43675h 0.181345v -0.992128h 0.181345v 4.43129h 0.181345v -2.09984h 0.181345v 0.570805h 0.181345v 0.898751h 0.181345v 1.97557h 0.181345v 0.720352h 0.181345v -1.06806h 0.181345v -3.64746h 0.181345v 1.41454h 0.181345v -0.864494h 0.181345v -1.59353h
 0.181345v 5.39454h 0.181345v -2.93652h 0.181345v -1.14202h 0.181345v 1.74708h 0.181345v -3.06308h 0.181345v 5.39454h 0.181345v 0.737928h 0.181345v -2.11383h 0.181345v 0.672312h 0.181345v 0.703593h 0.181345v -3.23021h 0.181345v 1.52903h 0.181345v
 -1.52903h 0.181345v 1.21061h 0.181345v -2.59915h 0.181345v 3.91516h 0.181345v -3.91516h 0.181345v 4.61875h 0.181345v -0.703593h 0.36269v -0.339891h 0.181345v -0.332421h 0.181345v -2.42511h 0.181345v 0.28271h 0.36269v -0.560232h 0.181345v 2.37736h
 0.181345v 4.03263h 0.181345v 0.864494h 0.181345v -2.0751h 0.181345v -4.05737h 0.181345v 3.30098h 0.181345v -3.30098h 0.181345v 2.23292h 0.181345v -1.62786h 0.181345v 0.63028h 0.181345v 1.34529h 0.181345v -0.687597h 0.181345v -4.60105h 0.181345v
 2.41433h 0.181345v 3.59467h 0.181345v -1.40795h 0.181345v 0.687597h 0.181345v 0.720352h 0.181345v -1.40795h 0.181345v -0.657692h 0.181345v 4.03263h 0.181345v -5.26797h 0.181345v 6.58398h 0.181345v -3.64746h 0.181345v -3.5183h 0.181345v 8.60728h
 0.181345v -4.72452h 0.181345v -2.06564h 0.181345v -4.90397h 0.181345v 10.2526h 0.181345v -3.283h 0.181345v 0.373464h 0.181345v 5.39454h 0.181345v -2.48501h 0.181345v -5.34864h 0.181345v 6.29423h 0.181345v 0.495931h 0.181345v 2.75753h 0.181345v
 0.617413h 0.181345v -7.726h 0.181345v 0.775787h 0.181345v -1.51371h 0.181345v 2.33146h 0.181345v -1.59353h 0.181345v 9.042h 0.181345v -5.66706h 0.181345v -0.465407h 0.181345v 0.465407h 0.181345v 3.14045h 0.181345v -4.05737h 0.181345v 6.58398h
 0.181345v -4.69095h 0.181345v 3.37494h 0.181345v -2.33146h 0.181345v 0.550043h 0.181345v 3.80101h 0.181345v -4.88179h 0.181345v -2.8442h 0.181345v 3.37494h 0.181345v 0.550043h 0.181345v 6.99696h 0.181345v -9.08642h 0.181345v 1.53942h 0.181345v
 -0.53074h 0.181345v -3.27027h 0.181345v 8.15207h 0.181345v 0.737928h 0.181345v -3.37494h 0.181345v 1.93342h 0.181345v 5.79258h 0.181345v -2.75753h 0.181345v -3.70736h 0.181345v -1.26111h 0.181345v -0.593195h 0.181345v -1.12085h 0.36269v 1.71404h
 0.181345v 13.8585h 0.181345v -9.70774h 0.181345v -4.74392h 0.181345v 1.8543h 0.181345v -2.42511h 0.181345v 1.78141h 0.181345v 2.75753h 0.181345v 9.042h 0.181345v -5.66706h 0.181345v -1.78141h 0.181345v -2.33146h 0.181345v 11.2215h 0.181345v
 -7.10858h 0.181345v -5.48877h 0.181345v 7.50837h 0.181345v -8.76948h 0.181345v 6.74988h 0.181345v 0.976115h 0.181345v -5.08898h 0.181345v 5.08898h 0.181345v -1.89303h 0.181345v 0.916919h 0.181345v -1.78141h 0.181345v -4.35106h 0.181345v 13.241h
 0.181345v -5.08898h 0.181345v -2.0196h 0.181345v 3.14045h 0.181345v -1.12085h 0.181345v -2.0196h 0.181345v 3.14045h 0.181345v 2.52661h 0.181345v -9.77993h 0.181345v 7.25332h 0.36269v -2.16433h 0.181345v -2.75753h 0.181345v -3.03505h 0.181345v
 6.83606h 0.181345v -9.93348h 0.181345v 9.93348h 0.181345v -2.93652h 0.181345v 0.916919h 0.181345v -4.81646h 0.181345v 11.925h 0.181345v -14.4517h 0.36269v 5.56166h 0.181345v -6.68251h 0.181345v 2.33146h 0.181345v -5.26797h 0.181345v 2.93652h
 0.181345v -1.04348h 0.181345v -0.495931h 0.181345v 1.53942h 0.181345v -2.0196h 0.36269v -3.37494h 0.181345v 2.45802h 0.181345v -0.864494h 0.181345v -1.21061h 0.181345v 2.0751h 0.181345v -3.89954h 0.181345v -1.62786h 0.181345v 3.84517h 0.181345v
 -1.51371h 0.181345v 2.33146h 0.181345v -1.59353h 0.181345v 2.45802h 0.181345v 0.916919h 0.181345v 0.976115h 0.181345v -0.495931h 0.181345v 2.08946h 0.181345v -1.59353h 0.181345v -3.17192h 0.181345v 9.30439h 0.181345v -2.75753h 0.181345v -4.81646h
 0.181345v 4.81646h 0.181345v -0.617413h 0.181345v -0.593195h 0.181345v 3.96814h 0.181345v 4.35106h 0.181345v -3.57527h 0.181345v 4.61875h 0.181345v -2.0196h 0.181345v -4.11287h 0.181345v 5.08898h 0.181345v -3.57527h 0.181345v 1.68224h 0.36269v
 1.89303h 0.181345v -0.976115h 0.181345v -7.91388h 0.36269v -1.08078h 0.181345v 5.61972h 0.181345v -10.1006h 0.181345v -1.47674h 0.181345v 2.68734h 0.181345v -3.03505h 0.181345v -1.31601h 0.36269v -2.8622h 0.181345v -0.762743h 0.181345v -3.32527h
 0.181345v -0.963671h 0.181345v -3.03505h 0.181345v -0.302501h 0.181345v 0.767907h 0.181345v -2.33146h 0.181345v 1.41454h 0.181345v -3.66863h 0.181345v -0.115897h 0.181345v -1.94727h 0.181345v -0.694362h 0.181345v -2.16433h 0.36269v 0.599918h
 0.181345v -0.0871733h 0.181345v -0.596537h 0.181345v -1.12682h 0.181345v -1.26421h 0.181345v 1.26421h 0.181345v -1.54692h 0.181345v 1.93979h 0.181345v 0.733948h 0.181345v -2.10293h 0.181345v -0.359269h 0.181345v 1.72825h 0.181345v -1.44152h
 0.181345v 2.17547h 0.181345v -4.01306h 0.181345v 0.993214h 0.181345v 0.916919h 0.181345v 0.898751h 0.181345v -3.25097h 0.181345v -0.847195h 0.181345v 0.972192h 0.181345v -3.46255h 0.181345v 2.72761h 0.181345v -0.757842h 0.181345v -0.612864h
 0.181345v 0.0547h 0.181345v 0.558164h 0.181345v -0.936973h 0.181345v -0.159487h 0.181345v -1.84006h 0.181345v 2.87977h 0.181345v -0.664921h 0.181345v 0.77864h 0.181345v -1.72423h 0.181345v 2.78811h 0.181345v 1.27709h 0.181345v -0.459348h 0.181345v
 2.83529h 0.181345v 0.882849h 0.181345v 3.21054h 0.36269v 0.414396h 0.181345v 0.426071h 0.181345v 2.8442h 0.181345v 1.50685h 0.181345v -1.11056h 0.181345v 3.95476h 0.181345v 0.53074h 0.181345v 4.11287h 0.181345v 2.29212h 0.181345v 0.560232h 0.181345v
 5.03202h 0.181345v 1.24381h 0.36269v 6.35009h 0.181345v -7.19056h 0.181345v 6.54686h 0.181345v 3.53331h 0.36269v 2.59915h 0.181345v -1.78141h 0.181345v -4.96847h 0.181345v 11.1009h 0.181345v 2.75753h 0.181345v -2.75753h 0.181345v 6.13247h 0.181345v
 -10.4835h 0.181345v 5.66706h 0.181345v -1.31601h 0.36269v 6.13247h 0.181345v 4.35106h 0.181345v -4.35106h 0.36269v -1.78141h 0.181345v 3.80101h 0.181345v -2.0196h 0.181345v -3.37494h 0.36269v 5.39454h 0.181345v -2.0196h 0.181345v 14.8346h 0.181345v
 6.13247h 0.181345v -18.9474h 0.181345v -3.80101h 0.181345v 3.80101h 0.181345v 5.08898h 0.181345v -5.08898h 0.181345v -3.80101h 0.181345v 8.88999h 0.181345v -7.10858h 0.181345v 4.35106h 0.181345v 6.13247h 0.181345v -3.37494h 0.181345v 3.37494h
 0.181345v 10.4835h 0.181345v -18.9474h 0.181345v 8.46392h 0.181345v 4.35106h 0.181345v -12.815h 0.181345v 2.33146h 0.181345v 10.4835h 0.36269v 16.616h 0.181345v -20.967h 0.181345v 4.35106h 0.544034v -4.35106h 0.181345v 4.35106h 0.181345v 16.616h
 0.181345v -10.4835h 0.181345v -24.342h 0.181345v 24.342h 0.36269v -10.4835h 0.181345v -3.37494h 0.181345v 3.37494h 0.36269v 10.4835h 0.181345v -18.9474h 0.181345v 18.9474h 0.181345v -13.8585h 0.181345v 7.726h 0.181345v -18.2095h 0.181345v 13.8585h
 0.181345v -3.37494h 0.181345v 7.726h 0.181345v -4.35106h 0.181345v -3.37494h 0.181345v -5.08898h 0.181345v 5.08898h 0.36269v -5.08898h 0.181345v 5.08898h 0.181345v -5.08898h 0.181345v 8.46392h 0.181345v -12.2649h 0.181345v 3.80101h 0.181345v
 -10.4835h 0.181345v 10.4835h 0.36269v -3.80101h 0.181345v 1.78141h 0.36269v -4.81646h 0.36269v -3.64746h 0.181345v -1.04348h 0.181345v 6.13247h 0.181345v -16.616h 0.181345v 5.39454h 0.36269v -2.63701h 0.181345v 6.74988h 0.181345v -4.81646h 0.181345v
 1.44152h 0.181345v -2.11383h 0.181345v -1.8543h 0.181345v 5.56166h 0.181345v -7.21325h 0.181345v -1.48886h 0.181345v 1.48886h 0.181345v 3.50589h 0.181345v -6.77616h 0.181345v 8.88999h 0.36269v 2.45802h 0.181345v -3.89954h 0.181345v -1.93342h
 0.181345v 3.37494h 0.181345v 3.37494h 0.181345v 5.66706h 0.181345v -7.44847h 0.181345v 2.75753h 0.181345v 1.04348h 0.181345v -2.93652h 0.181345v -2.45802h 0.181345v 10.4835h 0.181345v -1.44152h 0.181345v 9.16752h 0.181345v -9.16752h 0.181345v 15.3h
 0.181345v -10.4835h 0.181345v -4.81646h 0.181345v 4.81646h 0.181345v 10.4835h 0.181345v 20.967h 0.181345v -24.342h 0.181345v -5.08898h 0.181345v 29.431h 0.181345v -24.342h 0.36269v -2.75753h 0.181345v 10.4835h 0.181345v -10.4835h 0.181345v 2.75753h
 0.181345v 24.342h 0.36269v -20.967h 0.36269v -8.46392h 0.181345v 5.08898h 0.36269v -2.75753h 0.181345v 27.0995h 0.36269v -16.616h 0.181345v 16.616h 0.181345v -20.967h 0.181345v 4.35106h 0.181345v -14.8346h 0.181345v 10.4835h 0.181345v -3.37494h
 0.181345v 24.342h 0.544034v -10.4835h 0.181345v -13.8585h 0.181345v 13.8585h 0.181345v -16.616h 0.36269v 2.75753h 0.544034v 13.8585h 0.181345v -10.4835h 0.544034v -3.37494h 0.181345v 7.726h 0.181345v -4.35106h 0.181345v 4.35106h 0.181345v -4.35106h
 0.181345v -6.13247h 0.181345v 2.75753h 0.181345v 24.342h 0.181345v -20.967h 0.181345v -3.37494h 0.181345v 3.37494h 0.181345v 20.967h 0.181345v -24.342h 0.181345v 13.8585h 0.181345v -16.616h 0.181345v 2.75753h 0.36269v 24.342h 0.36269v -20.967h
 0.181345v -12.2649h 0.181345v 3.80101h 0.181345v 5.08898h 0.544034v -5.08898h 0.181345v 8.46392h 0.181345v -8.46392h 0.181345v -6.83606h 0.181345v 6.83606h 0.181345v 5.08898h 0.36269v -7.10858h 0.181345v -6.13247h 0.181345v 4.35106h 0.181345v
 22.7485h 0.181345v -16.616h 0.181345v -2.33146h 0.181345v 8.46392h 0.181345v -12.2649h 0.181345v 6.13247h 0.181345v -9.16752h 0.181345v -2.52661h 0.181345v 3.96814h 0.36269v -2.75753h 0.181345v 1.31601h 0.181345v 9.16752h 0.181345v -9.16752h
 0.181345v 25.7835h 0.181345v -6.13247h 0.181345v -14.8346h 0.181345v 7.10858h 0.181345v -17.5921h 0.181345v 10.4835h 0.36269v 7.10858h 0.181345v -10.4835h 0.181345v 7.726h 0.181345v -9.16752h 0.181345v 3.03505h 0.181345v 1.78141h 0.181345v 14.8346h
 0.181345v -20.967h 0.181345v 10.4835h 0.181345v -6.13247h 0.181345v 16.616h 0.181345v -7.726h 0.181345v -13.241h 0.181345v 16.616h 0.36269v -3.37494h 0.181345v 3.37494h 0.181345v -10.4835h 0.181345v 7.10858h 0.181345v 3.37494h 0.181345v -12.2649h
 0.181345v 6.13247h 0.181345v 6.13247h 0.181345v 4.35106h 0.181345v -16.616h 0.181345v -3.03505h 0.181345v 4.81646h 0.181345v 4.35106h 0.181345v 2.75753h 0.181345v -11.925h 0.181345v 4.81646h 0.36269v 10.4835h 0.181345v -6.13247h 0.181345v 2.75753h
 0.181345v -13.241h 0.181345v 27.0995h 0.181345v -20.967h 0.181345v 4.35106h 0.181345v 2.75753h 0.181345v -5.08898h 0.181345v -9.36267h 0.181345v 7.34308h 0.181345v -3.37494h 0.181345v 5.39454h 0.544034v -3.80101h 0.181345v 16.616h 0.181345v
 -14.8346h 0.181345v -3.37494h 0.181345v 7.726h 0.181345v 2.75753h 0.181345v -8.88999h 0.36269v -8.70211h 0.181345v 20.967h 0.181345v -8.46392h 0.181345v -10.4835h 0.181345v 6.68251h 0.181345v 3.80101h 0.181345v -10.4835h 0.181345v 10.4835h 0.181345v
 -2.0196h 0.181345v -4.81646h 0.181345v 6.83606h 0.36269v -2.0196h 0.36269v -13.0827h 0.181345v 13.0827h 0.181345v -7.34308h 0.181345v 2.52661h 0.181345v 4.81646h 0.181345v -6.13247h 0.181345v -3.37494h 0.181345v 2.16433h 0.181345v -1.12085h
 0.181345v 2.33146h 0.36269v 2.75753h 0.181345v -8.88999h 0.181345v 3.80101h 0.181345v -3.80101h 0.181345v 14.2845h 0.181345v -12.5031h 0.181345v 20.967h 0.181345v -18.9474h 0.181345v 1.12085h 0.181345v 5.56166h 0.181345v -5.56166h 0.181345v 9.36267h
 0.181345v -5.39454h 0.181345v 1.59353h 0.36269v -7.726h 0.181345v 3.37494h 0.181345v -1.21061h 0.181345v 7.34308h 0.181345v -7.34308h 0.181345v -1.12085h 0.181345v -1.04348h 0.181345v 4.69095h 0.181345v -3.64746h 0.181345v 2.33146h 0.181345v
 -1.21061h 0.181345v -4.92186h 0.181345v 7.44847h 0.181345v -3.64746h 0.181345v 1.12085h 0.181345v -1.12085h 0.181345v -2.0196h 0.181345v 8.70211h 0.181345v -1.59353h 0.181345v -5.08898h 0.181345v 3.64746h 0.181345v 6.83606h 0.181345v -9.36267h
 0.181345v -3.14045h 0.36269v 3.14045h 0.181345v 11.6941h 0.181345v -16.616h 0.181345v 12.2649h 0.181345v -9.50741h 0.181345v -0.976115h 0.181345v 14.8346h 0.181345v -19.651h 0.181345v 13.5186h 0.181345v -3.03505h 0.181345v 1.44152h 0.181345v
 -5.08898h 0.36269v 2.33146h 0.181345v -4.35106h 0.181345v 4.35106h 0.181345v -7.726h 0.181345v 6.51539h 0.544034v 1.21061h 0.181345v -1.21061h 0.181345v -4.92186h 0.181345v -3.03505h 0.181345v -3.64746h 0.181345v 12.815h 0.181345v -11.1009h
 0.181345v 6.74988h 0.181345v 0.976115h 0.181345v -3.57527h 0.181345v 1.68224h 0.181345v -0.864494h 0.181345v 4.92186h 0.181345v -2.16433h 0.181345v -3.57527h 0.181345v 2.59915h 0.181345v -1.78141h 0.181345v -3.70736h 0.181345v 6.46489h 0.181345v
 7.726h 0.181345v -11.3013h 0.181345v -2.88962h 0.181345v 4.57186h 0.181345v -2.45802h 0.181345v 0.775787h 0.181345v -0.775787h 0.181345v -3.37494h 0.181345v -2.75753h 0.181345v 6.90825h 0.181345v -7.88437h 0.181345v 4.35106h 0.181345v 1.31601h
 0.181345v 2.21731h 0.181345v -2.88962h 0.181345v -2.97515h 0.181345v 7.547h 0.181345v -10.032h 0.181345v 2.48501h 0.181345v 3.64746h 0.181345v -5.18688h 0.181345v 4.51456h 0.181345v -6.77616h 0.181345v 4.92186h 0.181345v 0.593195h 0.181345v 1.26111h
 0.181345v 1.37591h 0.181345v -2.0196h 0.544034v -1.21061h 0.181345v -2.16433h 0.36269v -5.08898h 0.181345v 9.77993h 0.181345v -4.1782h 0.181345v -3.27027h 0.181345v 5.51505h 0.181345v -5.51505h 0.181345v 6.13247h 0.181345v -3.87087h 0.181345v
 -2.67599h 0.181345v 8.56646h 0.181345v -0.703593h 0.181345v -1.31601h 0.181345v -1.21061h 0.181345v 0.593195h 0.181345v -5.51505h 0.181345v 12.2649h 0.181345v -4.11287h 0.181345v 3.19595h 0.181345v -5.21555h 0.181345v 2.0196h 0.181345v -4.35106h
 0.181345v 6.68251h 0.181345v -3.03505h 0.181345v -3.09742h 0.181345v 6.13247h 0.181345v 1.78141h 0.36269v -4.81646h 0.181345v -3.09742h 0.181345v 5.31473h 0.181345v -3.53331h 0.181345v 8.15207h 0.181345v -10.4835h 0.181345v 10.4835h 0.36269v
 -4.61875h 0.181345v 4.61875h 0.181345v -2.93652h 0.181345v 0.916919h 0.181345v 4.35106h 0.181345v -5.26797h 0.181345v 4.05737h 0.181345v -3.14045h 0.181345v -1.78141h 0.181345v 14.2845h 0.181345v -10.4835h 0.181345v 3.64746h 0.181345v -4.69095h
 0.181345v 6.13247h 0.181345v -8.0255h 0.181345v 8.0255h 0.181345v -7.10858h 0.36269v 3.14045h 0.181345v -1.12085h 0.181345v -3.80101h 0.181345v 2.75753h 0.181345v -0.976115h 0.181345v -2.59915h 0.181345v 2.59915h 0.181345v 4.35106h 0.181345v
 -5.26797h 0.181345v 11.4004h 0.181345v -1.78141h 0.181345v -6.68251h 0.181345v -2.0196h 0.181345v 3.14045h 0.181345v -6.51539h 0.181345v 4.35106h 0.906724v -0.976115h 0.181345v 0.976115h 0.181345v 1.04348h 0.181345v 2.33146h 0.181345v 1.31601h
 0.181345v -3.64746h 0.181345v -2.93652h 0.181345v 5.26797h 0.181345v 2.75753h 0.181345v -2.75753h 0.181345v -1.21061h 0.181345v 5.56166h 0.181345v -6.68251h 0.181345v -2.93652h 0.181345v 6.58398h 0.181345v -4.69095h 0.181345v -1.89303h 0.181345v
 2.93652h 0.181345v 2.33146h 0.181345v 2.75753h 0.181345v -8.88999h 0.181345v 3.80101h 0.36269v -2.0196h 0.181345v 0.976115h 0.181345v -0.976115h 0.181345v -4.11287h 0.181345v 5.08898h 0.181345v 1.04348h 0.181345v 1.12085h 0.181345v 1.21061h
 0.181345v -8.46392h 0.181345v 8.46392h 0.181345v -3.37494h 0.181345v -3.57527h 0.181345v 5.7396h 0.181345v 1.21061h 0.181345v -4.35106h 0.181345v 3.14045h 0.181345v -4.92186h 0.181345v 7.44847h 0.181345v -6.58398h 0.181345v 18.509h 0.181345v
 -11.925h 0.181345v -11.1558h 0.181345v 2.11383h 0.181345v -2.11383h 0.181345v 4.57186h 0.181345v -3.89954h 0.181345v 3.03505h 0.181345v 3.80101h 0.181345v -7.50837h 0.181345v 1.37591h 0.181345v 5.08898h 0.181345v -9.44004h 0.181345v 2.33146h
 0.181345v 7.10858h 0.181345v 4.69095h 0.181345v -11.1558h 0.181345v 9.83983h 0.181345v -6.13247h 0.181345v -3.70736h 0.181345v 8.62922h 0.181345v -6.51539h 0.181345v 0.775787h 0.181345v 3.57527h 0.181345v -4.35106h 0.181345v 0.775787h 0.181345v
 -0.775787h 0.181345v 1.59353h 0.181345v -0.817741h 0.36269v 0.817741h 0.181345v -3.03505h 0.181345v 6.83606h 0.181345v -3.80101h 0.181345v -0.817741h 0.181345v 0.817741h 0.181345v -2.33146h 0.181345v 6.13247h 0.181345v -5.39454h 0.181345v -3.37494h
 0.181345v 2.63701h 0.181345v 2.33146h 0.181345v 0.864494h 0.181345v -5.83296h 0.181345v 4.96847h 0.181345v -1.59353h 0.36269v 2.45802h 0.36269v -3.19595h 0.181345v 3.19595h 0.181345v -1.68224h 0.181345v -0.775787h 0.181345v 5.39454h 0.181345v
 -5.39454h 0.181345v -2.11383h 0.181345v 4.57186h 0.181345v -9.08642h 0.181345v 8.22193h 0.181345v -0.817741h 0.181345v 5.7396h 0.181345v 1.21061h 0.181345v -5.26797h 0.181345v -5.83296h 0.36269v 2.63701h 0.181345v -3.23021h 0.181345v 3.23021h
 0.181345v -2.63701h 0.36269v 4.15073h 0.181345v -0.775787h 0.181345v 2.45802h 0.181345v -2.45802h 0.181345v -2.11383h 0.181345v 0.672312h 0.181345v 4.81646h 0.181345v -6.13247h 0.181345v -0.617413h 0.181345v 2.63701h 0.181345v -3.80101h 0.181345v
 3.80101h 0.181345v -2.0196h 0.181345v -1.21061h 0.181345v 3.23021h 0.181345v -6.37065h 0.181345v 9.5666h 0.181345v -3.19595h 0.181345v -5.39454h 0.181345v 11.527h 0.181345v -9.93348h 0.181345v 2.42511h 0.181345v -0.643694h 0.181345v -1.21061h
 0.181345v -1.12085h 0.181345v 2.33146h 0.181345v 2.75753h 0.181345v -2.75753h 0.181345v 4.35106h 0.181345v -0.817741h 0.181345v -4.74392h 0.181345v -2.66026h 0.181345v 5.89047h 0.181345v 4.11287h 0.181345v -2.59915h 0.181345v -4.15073h 0.181345v
 4.96847h 0.181345v 6.13247h 0.181345v -10.4835h 0.181345v 1.31601h 0.181345v 3.89954h 0.181345v -0.864494h 0.181345v 8.88999h 0.181345v -11.2215h 0.181345v 2.33146h 0.181345v 0.864494h 0.181345v -3.19595h 0.181345v 5.08898h 0.181345v 6.13247h
 0.181345v -8.88999h 0.181345v 10.4835h 0.181345v -8.70211h 0.181345v -2.59915h 0.181345v 15.1023h 0.181345v -6.83606h 0.181345v -6.58398h 0.181345v -0.864494h 0.181345v 4.92186h 0.181345v 5.56166h 0.181345v -9.61903h 0.181345v 8.0255h 0.181345v
 -8.88999h 0.181345v 1.78141h 0.181345v 2.0196h 0.181345v -2.93652h 0.181345v 6.58398h 0.181345v 4.81646h 0.181345v -3.37494h 0.181345v -3.96814h 0.544034v -3.14045h 0.181345v -2.59915h 0.181345v 3.57527h 0.181345v -3.57527h 0.181345v -3.53331h
 0.181345v 4.35106h 0.181345v 10.4835h 0.181345v -11.3013h 0.181345v 1.68224h 0.181345v -0.864494h 0.181345v 2.75753h 0.181345v -8.31919h 0.181345v 4.74392h 0.181345v 2.59915h 0.181345v 2.0196h 0.181345v -9.36267h 0.181345v 10.4835h 0.181345v
 -7.25332h 0.181345v 3.19595h 0.181345v -1.68224h 0.181345v -4.15073h 0.181345v 1.93342h 0.181345v 4.81646h 0.181345v -2.59915h 0.181345v 4.61875h 0.181345v 8.46392h 0.181345v -15.9723h 0.181345v 7.50837h 0.181345v -2.0196h 0.181345v 0.976115h
 0.181345v 1.04348h 0.181345v -2.93652h 0.181345v 5.26797h 0.181345v -6.13247h 0.181345v 3.80101h 0.181345v 1.12085h 0.181345v 9.36267h 0.36269v -3.80101h 0.181345v 1.78141h 0.181345v 2.0196h 0.181345v -12.5031h 0.181345v 3.14045h 0.181345v 2.52661h
 0.181345v 3.03505h 0.181345v -6.68251h 0.181345v -2.0196h 0.181345v 10.4835h 0.181345v 2.0196h 0.181345v -6.83606h 0.181345v -6.58398h 0.181345v 8.0255h 0.181345v 1.59353h 0.181345v 3.80101h 0.181345v -5.39454h 0.181345v -2.75753h 0.181345v 2.75753h
 0.181345v 5.39454h 0.181345v -9.36267h 0.181345v 7.34308h 0.36269v 7.10858h 0.181345v -5.08898h 0.36269v -5.39454h 0.181345v 1.59353h 0.544034v -1.59353h 0.181345v 3.37494h 0.181345v 4.35106h 0.181345v -11.6941h 0.36269v 5.56166h 0.181345v -3.03505h
 0.36269v 11.925h 0.181345v -13.241h 0.181345v 1.31601h 0.181345v 9.16752h 0.181345v -6.13247h 0.181345v -1.59353h 0.181345v -2.75753h 0.181345v -4.35106h 0.181345v 4.35106h 0.181345v 8.15207h 0.181345v -8.15207h 0.181345v 8.15207h 0.36269v 2.33146h
 0.36269v -4.35106h 0.181345v -4.81646h 0.181345v 4.81646h 0.181345v 10.4835h 0.181345v -16.616h 0.181345v 2.75753h 0.181345v 3.37494h 0.181345v -1.78141h 0.181345v -4.35106h 0.36269v 6.13247h 0.181345v -6.13247h 0.181345v 6.13247h 0.181345v
 -3.37494h 0.181345v 3.37494h 0.181345v -3.37494h 0.181345v -2.75753h 0.181345v 16.616h 0.181345v -13.8585h 0.181345v 5.39454h 0.181345v -6.83606h 0.181345v 3.03505h 0.181345v -8.70211h 0.181345v 17.5921h 0.181345v -5.08898h 0.181345v -9.36267h
 0.181345v 14.4517h 0.181345v -2.75753h 0.181345v -7.726h 0.181345v -1.44152h 0.181345v 15.3h 0.181345v -15.3h 0.181345v -4.69095h 0.181345v 9.50741h 0.181345v 4.35106h 0.36269v -4.35106h 0.181345v -6.13247h 0.36269v 2.75753h 0.36269v 3.37494h
 0.181345v -6.13247h 0.181345v 4.35106h 0.181345v 12.2649h 0.181345v -15.3h 0.181345v 3.03505h 0.181345v -3.03505h 0.181345v -1.31601h 0.181345v 6.13247h 0.181345v -4.81646h 0.181345v -3.64746h 0.181345v 10.4835h 0.181345v -5.39454h 0.181345v
 10.4835h 0.181345v -11.925h 0.181345v 4.81646h 0.181345v 2.0196h 0.36269v -3.80101h 0.181345v 6.13247h 0.181345v -4.35106h 0.181345v -7.34308h 0.181345v 1.21061h 0.181345v 16.616h 0.181345v -16.616h 0.181345v 2.75753h 0.181345v 7.726h 0.181345v
 2.75753h 0.181345v -13.241h 0.181345v 2.75753h 0.181345v 1.59353h 0.181345v 6.13247h 0.181345v -4.35106h 0.181345v -1.78141h 0.181345v 6.13247h 0.181345v -14.8346h 0.181345v 4.35106h 0.181345v 10.4835h 0.181345v -4.35106h 0.181345v -7.34308h
 0.181345v 7.34308h 0.181345v -7.34308h 0.181345v 9.36267h 0.181345v -8.15207h 0.181345v 4.35106h 0.181345v -1.59353h 0.181345v -5.08898h 0.181345v 2.33146h 0.181345v 1.31601h 0.181345v -4.69095h 0.181345v -1.89303h 0.181345v -1.68224h 0.181345v
 13.0827h 0.181345v -8.46392h 0.181345v 8.46392h 0.181345v -9.50741h 0.181345v 1.04348h 0.36269v -2.93652h 0.181345v 0.916919h 0.181345v 4.35106h 0.181345v -9.83983h 0.181345v 9.83983h 0.181345v -4.35106h 0.181345v 3.14045h 0.181345v -6.51539h
 0.181345v 4.35106h 0.181345v -2.75753h 0.181345v -0.817741h 0.181345v 3.57527h 0.181345v 4.69095h 0.181345v -1.31601h 0.181345v -5.26797h 0.36269v -2.45802h 0.181345v 7.726h 0.181345v -8.46392h 0.181345v 4.11287h 0.181345v -3.37494h 0.181345v
 -3.37494h 0.181345v 8.76948h 0.181345v -6.13247h 0.181345v 1.51371h 0.181345v 0.817741h 0.181345v -1.59353h 0.181345v 5.39454h 0.181345v -5.39454h 0.181345v 0.775787h 0.181345v 0.817741h 0.181345v 3.80101h 0.181345v 2.33146h 0.181345v 1.31601h
 0.181345v -6.58398h 0.181345v -0.864494h 0.181345v -1.59353h 0.181345v 1.59353h 0.181345v -0.817741h 0.181345v 0.817741h 0.36269v 0.864494h 0.36269v -0.864494h 0.181345v -3.70736h 0.181345v -0.643694h 0.181345v 2.0196h 0.181345v 7.25332h 0.181345v
 -3.14045h 0.181345v -3.37494h 0.181345v 5.39454h 0.181345v -3.80101h 0.181345v 7.44847h 0.181345v 1.44152h 0.181345v -2.75753h 0.181345v -7.726h 0.181345v 4.35106h 0.181345v 7.726h 0.181345v -1.59353h 0.36269v 1.59353h 0.181345v -3.03505h 0.181345v
 6.83606h 0.181345v -6.83606h 0.181345v 6.83606h 0.181345v 2.33146h 0.36269v -2.33146h 0.36269v 5.08898h 0.181345v -2.75753h 0.36269v 16.616h 0.181345v -10.4835h 0.181345v -6.13247h 0.181345v 2.75753h 0.181345v 3.37494h 0.181345v -6.13247h 0.181345v
 16.616h 0.181345v -13.8585h 0.181345v 7.726h 0.36269v -4.35106h 0.181345v -3.37494h 0.181345v 13.8585h 0.181345v -10.4835h 0.181345v 10.4835h 0.181345v 20.967h 0.181345v -10.4835h 0.181345v -20.967h 0.36269v 4.35106h 0.181345v -4.35106h 0.181345v
 20.967h 0.181345v -16.616h 0.36269v 6.13247h 0.181345v 20.967h 0.181345v -20.967h 0.181345v 10.4835h 0.181345v -10.4835h 0.181345v -6.13247h 0.181345v 6.13247h 0.181345v 20.967h 0.181345v -10.4835h 0.181345v -20.967h 0.181345v 20.967h 0.181345v
 -10.4835h 0.181345v -10.4835h 0.181345v 20.967h 0.36269v -16.616h 0.181345v 6.13247h 0.181345v 20.967h 0.181345v -20.967h 0.181345v -6.13247h 0.181345v 6.13247h 0.36269v -13.8585h 0.181345v 24.342h 0.181345v -16.616h 0.181345v 27.0995h 0.725379v
 -10.4835h 0.181345v -16.616h 0.36269v -4.35106h 0.181345v 20.967h 0.181345v -10.4835h 0.181345v 10.4835h 0.181345v -20.967h 0.181345v 31.4506h 0.36269v -31.4506h 0.181345v 20.967h 0.181345v -20.967h 0.181345v 10.4835h 0.181345v 20.967h 0.36269v
 -20.967h 0.181345v -6.13247h 0.181345v 6.13247h 0.181345v 20.967h 0.181345v -27.0995h 0.181345v 16.616h 0.181345v 10.4835h 0.181345v -10.4835h 0.36269v -10.4835h 0.181345v -6.13247h 0.36269v 16.616h 0.36269v 10.4835h 0.36269v -20.967h 0.181345v
 -6.13247h 0.181345v 16.616h 0.181345v 10.4835h 0.181345v -20.967h 0.181345v -10.4835h 0.181345v 10.4835h 0.181345v -10.4835h 0.181345v 10.4835h 0.36269v 10.4835h 0.181345v -10.4835h 0.181345v -6.13247h 0.181345v 6.13247h 0.181345v 10.4835h 0.181345v
 -10.4835h 0.36269v 10.4835h 0.181345v -10.4835h 0.181345v 20.967h 0.181345v -10.4835h 0.181345v 10.4835h 0.181345v -10.4835h 0.181345v 10.4835h 0.181345v -31.4506h 0.181345v 20.967h 0.181345v 10.4835h 0.36269v -20.967h 0.181345v 10.4835h 0.36269v
 -10.4835h 0.181345v 10.4835h 0.181345v -10.4835h 0.181345v 10.4835h 0.36269v -20.967h 0.181345v 31.4506h 0.181345v -27.0995h 0.181345v 16.616h 0.181345v 10.4835h 0.181345v -31.4506h 0.181345v 10.4835h 0.36269v 20.967h 0.181345v -10.4835h 0.181345v
 -24.342h 0.181345v 34.8255h 0.181345v -20.967h 0.181345v 20.967h 0.181345v -10.4835h 0.544034v -10.4835h 0.181345v 10.4835h 0.544034v 10.4835h 0.181345v -10.4835h 0.181345v -10.4835h 0.181345v -10.4835h 0.36269v 10.4835h 0.181345v 10.4835h 0.181345v
 10.4835h 0.181345v -31.4506h 0.181345v 31.4506h 0.181345v -27.0995h 0.181345v 6.13247h 0.36269v 10.4835h 0.181345v 10.4835h 0.181345v -10.4835h 0.181345v -10.4835h 0.181345v 20.967h 0.906724v -20.967h 0.181345v 10.4835h 0.181345v 10.4835h 0.725379v
 -27.0995h 0.181345v 16.616h 0.181345v 10.4835h 0.36269v -20.967h 0.181345v 20.967h 0.36269v -10.4835h 0.181345v -20.967h 0.181345v 20.967h 0.181345v 10.4835h 0.181345v -20.967h 0.181345v 20.967h 0.181345v -10.4835h 0.36269v -10.4835h 0.181345v
 10.4835h 0.181345v -10.4835h 0.181345v 20.967h 0.181345v -10.4835h 0.181345v 10.4835h 0.36269v -20.967h 0.181345v 20.967h 0.181345v -10.4835h 0.181345v 10.4835h 0.544034v -10.4835h 0.181345v -20.967h 0.181345v 31.4506h 0.181345v -10.4835h 0.181345v
 10.4835h 0.181345v -10.4835h 0.181345v 10.4835h 0.181345v -34.8255h 0.181345v 34.8255h 0.181345v -10.4835h 0.725379v 10.4835h 0.181345v -27.0995h 0.181345v 16.616h 0.181345v -10.4835h 0.181345v 10.4835h 0.181345v -10.4835h 0.181345v 20.967h 0.36269v
 -10.4835h 0.36269v -10.4835h 0.181345v 10.4835h 0.36269v 10.4835h 0.36269v -20.967h 0.36269v 10.4835h 0.544034v 10.4835h 0.181345v -20.967h 0.181345v 10.4835h 0.36269v 10.4835h 0.36269v -20.967h 0.181345v 20.967h 0.725379v -20.967h 0.181345v
 10.4835h 0.36269v 10.4835h 0.181345v -10.4835h 0.36269v 10.4835h 0.36269v -20.967h 0.36269v 10.4835h 0.36269v 10.4835h 0.725379v -10.4835h 0.181345v -10.4835h 0.181345v 20.967h 0.36269v -10.4835h 0.36269v 10.4835h 0.181345v -10.4835h 0.181345v
 -16.616h 0.181345v 16.616h 0.181345v 10.4835h 0.36269v -10.4835h 0.181345v -10.4835h 0.181345v 20.967h 0.725379v -10.4835h 0.544034v 10.4835h 0.544034v -27.0995h 0.181345v 16.616h 0.181345v 10.4835h 1.08807v -10.4835h 0.725379v 10.4835h 0.181345v
 -10.4835h 0.181345v -10.4835h 0.181345v 10.4835h 0.36269v 10.4835h 0.181345v -10.4835h 0.181345v 10.4835h 0.36269v -10.4835h 0.36269v 10.4835h 0.36269v -10.4835h 0.181345v 10.4835h 0.181345v -10.4835h 0.36269v -10.4835h 0.181345v 20.967h 0.181345"
 fill="none" stroke="black"/>
<path d="M57.1929,280.151h 453.543" fill="none" stroke="black"/>
<path d="M57.1929,272.68v 7.47068" fill="none" stroke="black"/>
<path d="M75.3318,276.415v 3.73534" fill="none" stroke="black"/>
<path d="M93.4707,276.415v 3.73534" fill="none" stroke="black"/>
<path d="M111.61,276.415v 3.73534" fill="none" stroke="black"/>
<path d="M129.749,276.415v 3.73534" fill="none" stroke="black"/>
<path d="M147.887,272.68v 7.47068" fill="none" stroke="black"/>
<path d="M166.026,276.415v 3.73534" fill="none" stroke="black"/>
<path d="M184.165,276.415v 3.73534" fill="none" stroke="black"/>
<path d="M202.304,276.415v 3.73534" fill="none" stroke="black"/>
<path d="M220.443,276.415v 3.73534" fill="none" stroke="black"/>
<path d="M238.582,272.68v 7.47068" fill="none" stroke="black"/>
<path d="M256.721,276.415v 3.73534" fill="none" stroke="black"/>
<path d="M274.86,276.415v 3.73534" fill="none" stroke="black"/>
<path d="M292.999,276.415v 3.73534" fill="none" stroke="black"/>
<path d="M311.138,276.415v 3.73534" fill="none" stroke="black"/>
<path d="M329.277,272.68v 7.47068" fill="none" stroke="black"/>
<path d="M347.415,276.415v 3.73534" fill="none" stroke="black"/>
<path d="M365.554,276.415v 3.73534" fill="none" stroke="black"/>
<path d="M383.693,276.415v 3.73534" fill="none" stroke="black"/>
<path d="M401.832,276.415v 3.73534" fill="none" stroke="black"/>
<path d="M419.971,272.68v 7.47068" fill="none" stroke="black"/>
<path d="M438.11,276.415v 3.73534" fill="none" stroke="black"/>
<path d="M456.249,276.415v 3.73534" fill="none" stroke="black"/>
<path d="M474.388,276.415v 3.73534" fill="none" stroke="black"/>
<path d="M492.527,276.415v 3.73534" fill="none" stroke="black"/>
<path d="M510.666,272.68v 7.47068" fill="none" stroke="black"/>
<path d="M510.666,272.68v 7.47068" fill="none" stroke="black"/>
<text xml:space="preserve" x="54.3523" y="290.27" fill="black" font-size="10.4952" font-family="Helvetica">0</text>
<text xml:space="preserve" x="139.569" y="290.27" fill="black" font-size="10.4952" font-family="Helvetica">500</text>
<text xml:space="preserve" x="227.449" y="290.27" fill="black" font-size="10.4952" font-family="Helvetica">1000</text>
<text xml:space="preserve" x="318.288" y="290.27" fill="black" font-size="10.4952" font-family="Helvetica">1500</text>
<text xml:space="preserve" x="408.831" y="290.27" fill="black" font-size="10.4952" font-family="Helvetica">2000</text>
<text xml:space="preserve" x="499.67" y="290.27" fill="black" font-size="10.4952" font-family="Helvetica">2500</text>
<text xml:space="preserve" x="265.323" y="301.218" fill="black" font-size="10.4952" font-family="Helvetica">Channel</text>
<path d="M57.1929,280.151v -249.023" fill="none" stroke="black"/>
<path d="M63.9961,280.151h -6.80315" fill="none" stroke="black"/>
<path d="M63.9961,277.393h -6.80315" fill="none" stroke="black"/>
<path d="M63.9961,275.062h -6.80315" fill="none" stroke="black"/>
<path d="M63.9961,273.042h -6.80315" fill="none" stroke="black"/>
<path d="M63.9961,271.261h -6.80315" fill="none" stroke="black"/>
<path d="M70.7992,269.667h -13.6063" fill="none" stroke="black"/>
<text xml:space="preserve" x="49.0263" y="273.404" fill="black" font-size="10.4952" font-family="Helvetica">1</text>
<path d="M63.9961,259.184h -6.80315" fill="none" stroke="black"/>
<path d="M63.9961,253.051h -6.80315" fill="none" stroke="black"/>
<path d="M63.9961,248.7h -6.80315" fill="none" stroke="black"/>
<path d="M63.9961,245.325h -6.80315" fill="none" stroke="black"/>
<path d="M63.9961,242.568h -6.80315" fill="none" stroke="black"/>
<path d="M63.9961,240.236h -6.80315" fill="none" stroke="black"/>
<path d="M63.9961,238.216h -6.80315" fill="none" stroke="black"/>
<path d="M63.9961,236.435h -6.80315" fill="none" stroke="black"/>
<path d="M70.7992,234.842h -13.6063" fill="none" stroke="black"/>
<text xml:space="preserve" x="41.629" y="238.489" fill="black" font-size="10.4952" font-family="Helvetica">10</text>
<path d="M63.9961,224.358h -6.80315" fill="none" stroke="black"/>
<path d="M63.9961,218.226h -6.80315" fill="none" stroke="black"/>
<path d="M63.9961,213.874h -6.80315" fill="none" stroke="black"/>
<path d="M63.9961,210.5h -6.80315" fill="none" stroke="black"/>
<path d="M63.9961,207.742h -6.80315" fill="none" stroke="black"/>
<path d="M63.9961,205.411h -6.80315" fill="none" stroke="black"/>
<path d="M63.9961,203.391h -6.80315" fill="none" stroke="black"/>
<path d="M63.9961,201.61h -6.80315" fill="none" stroke="black"/>
<path d="M70.7992,200.016h -13.6063" fill="none" stroke="black"/>
<text xml:space="preserve" x="49.0263" y="200.023" fill="black" font-size="7.16345" font-family="Helvetica">2</text>
<text xml:space="preserve" x="38.0783" y="204.461" fill="black" font-size="10.4952" font-family="Helvetica">10</text>
<path d="M63.9961,189.532h -6.80315" fill="none" stroke="black"/>
<path d="M63.9961,183.4h -6.80315" fill="none" stroke="black"/>
<path d="M63.9961,179.049h -6.80315" fill="none" stroke="black"/>
<path d="M63.9961,175.674h -6.80315" fill="none" stroke="black"/>
<path d="M63.9961,172.917h -6.80315" fill="none" stroke="black"/>
<path d="M63.9961,170.585h -6.80315" fill="none" stroke="black"/>
<path d="M63.9961,168.565h -6.80315" fill="none" stroke="black"/>
<path d="M63.9961,166.784h -6.80315" fill="none" stroke="black"/>
<path d="M70.7992,165.191h -13.6063" fill="none" stroke="black"/>
<text xml:space="preserve" x="49.0263" y="165.108" fill="black" font-size="7.16345" font-family="Helvetica">3</text>
<text xml:space="preserve" x="38.0783" y="169.842" fill="black" font-size="10.4952" font-family="Helvetica">10</text>
<path d="M63.9961,154.707h -6.80315" fill="none" stroke="black"/>
<path d="M63.9961,148.575h -6.80315" fill="none" stroke="black"/>
<path d="M63.9961,144.223h -6.80315" fill="none" stroke="black"/>
<path d="M63.9961,140.849h -6.80315" fill="none" stroke="black"/>
<path d="M63.9961,138.091h -6.80315" fill="none" stroke="black"/>
<path d="M63.9961,135.76h -6.80315" fill="none" stroke="black"/>
<path d="M63.9961,133.74h -6.80315" fill="none" stroke="black"/>
<path d="M63.9961,131.959h -6.80315" fill="none" stroke="black"/>
<path d="M70.7992,130.365h -13.6063" fill="none" stroke="black"/>
<text xml:space="preserve" x="49.0263" y="130.488" fill="black" font-size="7.16345" font-family="Helvetica">4</text>
<text xml:space="preserve" x="38.0783" y="134.927" fill="black" font-size="10.4952" font-family="Helvetica">10</text>
<path d="M63.9961,119.881h -6.80315" fill="none" stroke="black"/>
<path d="M63.9961,113.749h -6.80315" fill="none" stroke="black"/>
<path d="M63.9961,109.398h -6.80315" fill="none" stroke="black"/>
<path d="M63.9961,106.023h -6.80315" fill="none" stroke="black"/>
<path d="M63.9961,103.265h -6.80315" fill="none" stroke="black"/>
<path d="M63.9961,100.934h -6.80315" fill="none" stroke="black"/>
<path d="M63.9961,98.9144h -6.80315" fill="none" stroke="black"/>
<path d="M63.9961,97.133h -6.80315" fill="none" stroke="black"/>
<path d="M70.7992,95.5395h -13.6063" fill="none" stroke="black"/>
<text xml:space="preserve" x="49.0263" y="95.2772" fill="black" font-size="7.16345" font-family="Helvetica">5</text>
<text xml:space="preserve" x="38.0783" y="100.012" fill="black" font-size="10.4952" font-family="Helvetica">10</text>
<path d="M63.9961,85.056h -6.80315" fill="none" stroke="black"/>
<path d="M63.9961,78.9235h -6.80315" fill="none" stroke="black"/>
<path d="M63.9961,74.5725h -6.80315" fill="none" stroke="black"/>
<path d="M63.9961,71.1975h -6.80315" fill="none" stroke="black"/>
<path d="M63.9961,68.44h -6.80315" fill="none" stroke="black"/>
<path d="M63.9961,66.1085h -6.80315" fill="none" stroke="black"/>
<path d="M63.9961,64.0889h -6.80315" fill="none" stroke="black"/>
<path d="M63.9961,62.3075h -6.80315" fill="none" stroke="black"/>
<path d="M70.7992,60.714h -13.6063" fill="none" stroke="black"/>
<text xml:space="preserve" x="49.0263" y="60.6579" fill="black" font-size="7.16345" font-family="Helvetica">6</text>
<text xml:space="preserve" x="38.0783" y="65.3921" fill="black" font-size="10.4952" font-family="Helvetica">10</text>
<path d="M63.9961,50.2305h -6.80315" fill="none" stroke="black"/>
<path d="M63.9961,44.098h -6.80315" fill="none" stroke="black"/>
<path d="M63.9961,39.747h -6.80315" fill="none" stroke="black"/>
<path d="M63.9961,36.372h -6.80315" fill="none" stroke="black"/>
<path d="M63.9961,33.6145h -6.80315" fill="none" stroke="black"/>
<path d="M63.9961,31.283h -6.80315" fill="none" stroke="black"/>
<g transform="rotate(-90,26.5385,191.442)">
<text xml:space="preserve" x="26.5385" y="191.442" fill="black" font-size="10.4952" font-family="Helvetica">Counts/Channel</text>
</g>
<text xml:space="preserve" x="404.097" y="60.6579" fill="black" font-size="14.7788" font-family="Helvetica" font-weight="bold"> = 2.4879 MeV</text>
<text xml:space="preserve" x="398.179" y="63.9127" fill="black" font-size="10.0192" font-family="Helvetica" font-weight="bold">p</text>
<text xml:space="preserve" x="389.006" y="60.6579" fill="black" font-size="14.7788" font-family="Helvetica" font-weight="bold">E</text>
<path d="M262.163,163.749v 26.1661" fill="none" stroke="black"/>
<path d="M264.454,189.915l -2.29122, 3.9685l -2.29122, -3.9685z" fill="black"/>
<path d="M264.454,189.915l -2.29122, 3.9685l -2.29122, -3.9685h 4.58243z" fill="none" stroke="black"/>
<text xml:space="preserve" x="266.803" y="161.557" fill="black" font-size="10.4952" font-family="Helvetica" font-weight="bold">_1 	1.369 MeV</text>
<text xml:space="preserve" x="260.293" y="161.557" fill="black" font-size="10.4952" font-family="Times">&#0945;</text>
<path d="M184.528,130.365v 30.857" fill="none" stroke="black"/>
<path d="M186.819,161.222l -2.29122, 3.9685l -2.29122, -3.9685z" fill="black"/>
<path d="M186.819,161.222l -2.29122, 3.9685l -2.29122, -3.9685h 4.58243z" fill="none" stroke="black"/>
<text xml:space="preserve" x="172.117" y="127.529" fill="black" font-size="10.4952" font-family="Helvetica" font-weight="bold"># p_1 	0.844 MeV</text>
<path d="M210.104,148.575v 12.6475" fill="none" stroke="black"/>
<path d="M212.395,161.222l -2.29122, 3.9685l -2.29122, -3.9685z" fill="black"/>
<path d="M212.395,161.222l -2.29122, 3.9685l -2.29122, -3.9685h 4.58243z" fill="none" stroke="black"/>
<text xml:space="preserve" x="197.564" y="144.099" fill="black" font-size="10.4952" font-family="Helvetica" font-weight="bold"># p_2 	1.015 MeV</text>
<path d="M497.606,269.667h 13.0597" fill="none" stroke="black"/>
<path d="M504.136,259.184h 6.52985" fill="none" stroke="black"/>
<path d="M504.136,253.051h 6.52985" fill="none" stroke="black"/>
<path d="M504.136,248.7h 6.52985" fill="none" stroke="black"/>
<path d="M504.136,245.325h 6.52985" fill="none" stroke="black"/>
<path d="M504.136,242.568h 6.52985" fill="none" stroke="black"/>
<path d="M504.136,240.236h 6.52985" fill="none" stroke="black"/>
<path d="M504.136,238.216h 6.52985" fill="none" stroke="black"/>
<path d="M504.136,236.435h 6.52985" fill="none" stroke="black"/>
<path d="M497.606,234.842h 13.0597" fill="none" stroke="black"/>
<path d="M504.136,224.358h 6.52985" fill="none" stroke="black"/>
<path d="M504.136,218.226h 6.52985" fill="none" stroke="black"/>
<path d="M504.136,213.874h 6.52985" fill="none" stroke="black"/>
<path d="M504.136,210.5h 6.52985" fill="none" stroke="black"/>
<path d="M504.136,207.742h 6.52985" fill="none" stroke="black"/>
<path d="M504.136,205.411h 6.52985" fill="none" stroke="black"/>
<path d="M504.136,203.391h 6.52985" fill="none" stroke="black"/>
<path d="M504.136,201.61h 6.52985" fill="none" stroke="black"/>
<path d="M497.606,200.016h 13.0597" fill="none" stroke="black"/>
<path d="M504.136,189.532h 6.52985" fill="none" stroke="black"/>
<path d="M504.136,183.4h 6.52985" fill="none" stroke="black"/>
<path d="M504.136,179.049h 6.52985" fill="none" stroke="black"/>
<path d="M504.136,175.674h 6.52985" fill="none" stroke="black"/>
<path d="M504.136,172.917h 6.52985" fill="none" stroke="black"/>
<path d="M504.136,170.585h 6.52985" fill="none" stroke="black"/>
<path d="M504.136,168.565h 6.52985" fill="none" stroke="black"/>
<path d="M504.136,166.784h 6.52985" fill="none" stroke="black"/>
<path d="M497.606,165.191h 13.0597" fill="none" stroke="black"/>
<path d="M504.136,154.707h 6.52985" fill="none" stroke="black"/>
<path d="M504.136,148.575h 6.52985" fill="none" stroke="black"/>
<path d="M504.136,144.223h 6.52985" fill="none" stroke="black"/>
<path d="M504.136,140.849h 6.52985" fill="none" stroke="black"/>
<path d="M504.136,138.091h 6.52985" fill="none" stroke="black"/>
<path d="M504.136,135.76h 6.52985" fill="none" stroke="black"/>
<path d="M504.136,133.74h 6.52985" fill="none" stroke="black"/>
<path d="M504.136,131.959h 6.52985" fill="none" stroke="black"/>
<path d="M497.606,130.365h 13.0597" fill="none" stroke="black"/>
<path d="M504.136,119.881h 6.52985" fill="none" stroke="black"/>
<path d="M504.136,113.749h 6.52985" fill="none" stroke="black"/>
<path d="M504.136,109.398h 6.52985" fill="none" stroke="black"/>
<path d="M504.136,106.023h 6.52985" fill="none" stroke="black"/>
<path d="M504.136,103.265h 6.52985" fill="none" stroke="black"/>
<path d="M504.136,100.934h 6.52985" fill="none" stroke="black"/>
<path d="M504.136,98.9144h 6.52985" fill="none" stroke="black"/>
<path d="M504.136,97.133h 6.52985" fill="none" stroke="black"/>
<path d="M497.606,95.5395h 13.0597" fill="none" stroke="black"/>
<path d="M504.136,85.056h 6.52985" fill="none" stroke="black"/>
<path d="M504.136,78.9235h 6.52985" fill="none" stroke="black"/>
<path d="M504.136,74.5725h 6.52985" fill="none" stroke="black"/>
<path d="M504.136,71.1975h 6.52985" fill="none" stroke="black"/>
<path d="M504.136,68.44h 6.52985" fill="none" stroke="black"/>
<path d="M504.136,66.1085h 6.52985" fill="none" stroke="black"/>
<path d="M504.136,64.0889h 6.52985" fill="none" stroke="black"/>
<path d="M504.136,62.3075h 6.52985" fill="none" stroke="black"/>
<path d="M497.606,60.714h 13.0597" fill="none" stroke="black"/>
<path d="M504.136,50.2305h 6.52985" fill="none" stroke="black"/>
<path d="M504.136,44.098h 6.52985" fill="none" stroke="black"/>
<path d="M504.136,39.747h 6.52985" fill="none" stroke="black"/>
<path d="M504.136,36.372h 6.52985" fill="none" stroke="black"/>
<path d="M504.136,33.6145h 6.52985" fill="none" stroke="black"/>
<path d="M504.136,31.283h 6.52985" fill="none" stroke="black"/>
<path d="M57.1929,38.1179v -7.46952" fill="none" stroke="black"/>
<path d="M75.3318,38.1179v -7.46952" fill="none" stroke="black"/>
<path d="M93.4707,38.1179v -7.46952" fill="none" stroke="black"/>
<path d="M111.61,38.1179v -7.46952" fill="none" stroke="black"/>
<path d="M129.749,38.1179v -7.46952" fill="none" stroke="black"/>
<path d="M147.887,38.1179v -7.46952" fill="none" stroke="black"/>
<path d="M166.026,38.1179v -7.46952" fill="none" stroke="black"/>
<path d="M184.165,38.1179v -7.46952" fill="none" stroke="black"/>
<path d="M202.304,38.1179v -7.46952" fill="none" stroke="black"/>
<path d="M220.443,38.1179v -7.46952" fill="none" stroke="black"/>
<path d="M238.582,38.1179v -7.46952" fill="none" stroke="black"/>
<path d="M256.721,38.1179v -7.46952" fill="none" stroke="black"/>
<path d="M274.86,38.1179v -7.46952" fill="none" stroke="black"/>
<path d="M292.999,38.1179v -7.46952" fill="none" stroke="black"/>
<path d="M311.138,38.1179v -7.46952" fill="none" stroke="black"/>
<path d="M329.277,38.1179v -7.46952" fill="none" stroke="black"/>
<path d="M347.415,38.1179v -7.46952" fill="none" stroke="black"/>
<path d="M365.554,38.1179v -7.46952" fill="none" stroke="black"/>
<path d="M383.693,38.1179v -7.46952" fill="none" stroke="black"/>
<path d="M401.832,38.1179v -7.46952" fill="none" stroke="black"/>
<path d="M419.971,38.1179v -7.46952" fill="none" stroke="black"/>
<path d="M438.11,38.1179v -7.46952" fill="none" stroke="black"/>
<path d="M456.249,38.1179v -7.46952" fill="none" stroke="black"/>
<path d="M474.388,38.1179v -7.46952" fill="none" stroke="black"/>
<path d="M492.527,38.1179v -7.46952" fill="none" stroke="black"/>
<path d="M510.666,38.1179v -7.46952" fill="none" stroke="black"/></svg>
