<?xml version="1.0" standalone="no"?>
<svg width="567.429" height="311.778" viewBox="0 0 567.429 311.778" xmlns="http://www.w3.org/2000/svg" shape-rendering="crispEdges">
<title>
Yields/P1/run_0105/det0_Fit.svg
</title>
<desc>
Creator: ROOT Version 6.12/06
CreationDate: Mon Apr 15 10:29:02 2019</desc>
<defs>
</defs>
<rect x="0.5" y="0" width="566.929" height="311.278" fill="white"/>
<rect x="57.1929" y="31.1278" width="453.543" height="249.023" fill="white"/>
<rect x="57.1929" y="31.1278" width="453.543" height="249.023" fill="none" stroke="black"/>
<path d="M57.1929,40.6628h 0.181345v 239.488h 20.3106v -10.3417h 0.181345v 10.3417h 1.6321v -10.3417h 0.181345v 10.3417h 1.45076v -10.3417h 0.181345v 10.3417h 1.6321v -10.3417h 0.181345v 10.3417h 3.6269v -10.3417h 0.181345v 10.3417h 0.725379v
 -20.6834h 0.36269v 10.3417h 0.181345v 10.3417h 0.181345v -26.7329h 0.181345v -4.29219h 0.36269v -3.32928h 0.181345v -19.9181h 0.181345v -20.0825h 0.181345v -11.8932h 0.181345v -8.42814h 0.181345v -6.30898h 0.181345v -4.26644h 0.181345v -2.97992h
 0.181345v -2.62495h 0.181345v -1.48143h 0.181345v 0.209802h 0.181345v -1.05102h 0.181345v -1.34609h 0.181345v -0.530239h 0.181345v -0.678887h 0.181345v -0.240547h 0.181345v -0.100134h 0.181345v -0.539037h 0.181345v -0.0839883h 0.181345v -0.482658h
 0.181345v -0.767607h 0.181345v 0.165963h 0.181345v -0.481682h 0.181345v 0.593358h 0.181345v -0.870846h 0.181345v 0.681491h 0.181345v -1.29267h 0.181345v 0.910223h 0.181345v -1.01138h 0.181345v 0.0808668h 0.181345v 0.379818h 0.181345v 1.06655h
 0.181345v -1.2114h 0.181345v 0.165663h 0.181345v -0.114091h 0.181345v -0.686557h 0.181345v 0.999792h 0.181345v -0.538832h 0.181345v 0.246276h 0.181345v -0.825181h 0.181345v 0.783851h 0.181345v -0.366901h 0.181345v 0.377223h 0.181345v -0.154079h
 0.181345v 0.247297h 0.181345v -0.897177h 0.181345v 0.467061h 0.181345v 0.787622h 0.181345v -0.471359h 0.181345v -0.235286h 0.181345v 0.64293h 0.181345v 0.627615h 0.181345v -0.284614h 0.181345v 0.82476h 0.181345v -0.506953h 0.181345v 1.01988h
 0.181345v -0.409431h 0.181345v 0.409431h 0.181345v -1.05307h 0.181345v 0.20027h 0.181345v -1.36897h 0.181345v 0.309767h 0.181345v -1.38403h 0.181345v -2.49023h 0.181345v -2.70814h 0.181345v -3.76449h 0.181345v -3.69095h 0.181345v -2.91642h 0.181345v
 -3.34334h 0.181345v -2.86936h 0.181345v -2.42245h 0.181345v -1.76002h 0.181345v -1.83313h 0.181345v 0.060623h 0.181345v -0.119531h 0.181345v 0.656536h 0.181345v 1.31916h 0.181345v 2.11261h 0.181345v 2.4209h 0.181345v 3.53129h 0.181345v 3.93261h
 0.181345v 3.76781h 0.181345v 4.42958h 0.181345v 4.67598h 0.181345v 3.42064h 0.181345v 4.16237h 0.181345v 2.43346h 0.181345v 1.4029h 0.181345v 2.15416h 0.181345v 0.863187h 0.181345v 0.164603h 0.181345v -0.396643h 0.181345v 2.20428h 0.181345v
 -1.10568h 0.181345v -0.0247633h 0.181345v 0.657593h 0.181345v -0.483381h 0.181345v 0.509261h 0.181345v -0.60906h 0.181345v 0.225494h 0.181345v 0.777253h 0.181345v 0.65234h 0.181345v -0.465002h 0.181345v 0.271772h 0.181345v -0.190759h 0.181345v
 0.664446h 0.181345v -1.71005h 0.181345v 0.67125h 0.181345v 1.0388h 0.181345v -0.224786h 0.181345v 0.196502h 0.181345v -0.851227h 0.181345v 0.323772h 0.181345v -0.216627h 0.181345v 0.326131h 0.181345v 0.617076h 0.181345v -0.0856647h 0.181345v
 0.229541h 0.181345v 0.863006h 0.181345v -0.0611472h 0.181345v 0.215121h 0.181345v -0.988037h 0.181345v -0.115435h 0.181345v 0.496889h 0.181345v 1.43391h 0.181345v 0.465246h 0.181345v 0.306934h 0.181345v -1.19158h 0.181345v -0.46971h 0.181345v
 3.14546h 0.181345v -2.22359h 0.181345v 0.568127h 0.181345v 0.205795h 0.181345v 0.634985h 0.181345v -1.04377h 0.181345v -0.20027h 0.181345v 1.17214h 0.181345v -0.971871h 0.181345v 1.07986h 0.181345v 0.145207h 0.181345v -0.431449h 0.181345v 1.33368h
 0.181345v -0.115808h 0.181345v -0.56593h 0.181345v -0.293275h 0.181345v 0.820801h 0.181345v 0.586703h 0.181345v -0.393688h 0.181345v 0.195545h 0.181345v -0.841858h 0.181345v 0.149574h 0.181345v 0.810853h 0.181345v -0.7355h 0.181345v 0.855019h
 0.181345v 0.120484h 0.181345v -0.592921h 0.181345v -0.0387027h 0.181345v 0.351993h 0.181345v 0.32001h 0.181345v 0.960212h 0.181345v -0.383128h 0.181345v 0.169066h 0.181345v -1.37945h 0.181345v 1.50752h 0.181345v -0.212841h 0.181345v 0.692061h
 0.181345v -1.43409h 0.181345v 0.407673h 0.181345v 0.676372h 0.181345v 0.799471h 0.181345v 0.229895h 0.181345v -0.811554h 0.181345v 1.3782h 0.181345v -1.46571h 0.181345v 0.442759h 0.181345v -2.51661h 0.181345v 1.43341h 0.36269v -0.041734h 0.36269v
 -0.329735h 0.181345v -2.91596h 0.181345v 0.168588h 0.181345v -0.3021h 0.181345v -1.51537h 0.181345v -0.646238h 0.181345v -0.425097h 0.181345v -0.166704h 0.181345v -1.42202h 0.181345v 0.906083h 0.181345v -1.73654h 0.181345v 1.31549h 0.181345v
 -0.0259251h 0.181345v -0.60906h 0.181345v 1.87903h 0.181345v 0.458228h 0.181345v 2.42648h 0.181345v -0.537712h 0.181345v 1.45506h 0.181345v -0.395014h 0.181345v 2.92719h 0.181345v -0.591801h 0.181345v 0.124853h 0.181345v 2.34875h 0.181345v
 -0.338553h 0.181345v -0.700593h 0.181345v -0.226406h 0.181345v 0.926999h 0.181345v -0.60906h 0.181345v 1.80329h 0.181345v -1.14633h 0.36269v 0.487622h 0.181345v -0.86656h 0.181345v 1.11648h 0.181345v -0.150454h 0.181345v 0.251606h 0.181345v
 0.0508344h 0.181345v -1.50051h 0.181345v 2.77558h 0.181345v -3.84174h 0.181345v 2.61768h 0.181345v -0.551723h 0.181345v 1.83135h 0.181345v 1.39977h 0.181345v -3.28028h 0.181345v 2.04847h 0.181345v -1.34504h 0.36269v -0.654265h 0.181345v -0.0981575h
 0.181345v 1.01191h 0.36269v -0.814941h 0.181345v 0.710605h 0.181345v -0.710605h 0.181345v 0.401907h 0.181345v -1.0802h 0.181345v 1.91803h 0.181345v -0.78682h 0.181345v 0.0511832h 0.181345v -1.74021h 0.181345v 0.183632h 0.181345v -0.410038h 0.181345v
 -2.13205h 0.181345v 2.13205h 0.181345v -1.89647h 0.181345v 1.10873h 0.181345v -2.32425h 0.181345v 2.28168h 0.181345v -0.336237h 0.181345v -0.88739h 0.181345v 0.929008h 0.181345v -0.968116h 0.181345v 1.00985h 0.181345v 1.40114h 0.181345v -1.1907h
 0.181345v 0.517505h 0.181345v 1.42641h 0.181345v 0.49083h 0.181345v 0.767917h 0.181345v -0.916869h 0.181345v 0.969496h 0.181345v 0.756968h 0.181345v -0.966374h 0.181345v 0.209405h 0.181345v 1.09352h 0.181345v -1.19859h 0.181345v 0.264076h 0.181345v
 1.57197h 0.181345v -1.13948h 0.181345v 0.615918h 0.181345v -1.1016h 0.181345v 0.485681h 0.181345v -0.904513h 0.181345v 2.64812h 0.181345v -0.425443h 0.181345v -0.985361h 0.181345v -0.0559846h 0.181345v -1.73867h 0.181345v 1.73867h 0.181345v 1.84137h
 0.181345v -1.32978h 0.181345v 1.14131h 0.181345v -2.25525h 0.181345v 1.52434h 0.181345v 1.11026h 0.181345v -2.19895h 0.181345v -1.3717h 0.181345v 1.5384h 0.181345v -0.494627h 0.181345v 1.2982h 0.181345v -1.02543h 0.181345v 1.20341h 0.181345v
 -1.79704h 0.181345v 0.927678h 0.181345v -0.874676h 0.181345v -0.470368h 0.181345v 0.417367h 0.181345v -0.262219h 0.181345v 1.64725h 0.181345v -0.0579414h 0.181345v 0.469957h 0.181345v -2.31695h 0.181345v 0.362025h 0.181345v -0.715474h 0.181345v
 -0.198274h 0.181345v 1.66527h 0.181345v -1.41701h 0.181345v 0.509261h 0.181345v 0.962908h 0.181345v -1.01462h 0.181345v 1.23731h 0.181345v -1.4424h 0.181345v -0.451392h 0.181345v 1.78203h 0.181345v 1.33874h 0.181345v -1.99227h 0.181345v -0.574918h
 0.181345v -0.203688h 0.181345v -0.643412h 0.181345v 3.23271h 0.181345v -3.32928h 0.181345v 0.943669h 0.181345v -1.22968h 0.181345v 1.59297h 0.181345v 0.699078h 0.181345v -2.57268h 0.181345v 0.280633h 0.181345v 0.382582h 0.181345v 0.592921h 0.181345v
 0.254178h 0.181345v -0.354649h 0.181345v 0.201623h 0.181345v 0.411609h 0.181345v 0.104701h 0.181345v -1.01535h 0.181345v 0.549874h 0.181345v 0.256803h 0.181345v 0.367116h 0.181345v -0.315221h 0.181345v -0.308698h 0.181345v 1.72552h 0.181345v
 -0.941456h 0.181345v 0.658337h 0.181345v -1.02937h 0.181345v -0.56502h 0.181345v 1.26159h 0.181345v 1.02153h 0.181345v 1.09665h 0.181345v -2.44372h 0.181345v 0.546577h 0.181345v 1.27797h 0.181345v -1.98469h 0.181345v 1.21637h 0.181345v 0.707796h
 0.181345v 0.060527h 0.181345v -0.883092h 0.181345v 1.06616h 0.36269v 0.755599h 0.181345v 0.326488h 0.181345v -0.196749h 0.181345v 0.666177h 0.181345v -2.32908h 0.181345v 0.900871h 0.181345v -0.123306h 0.181345v 1.41588h 0.181345v -1.89916h 0.181345v
 2.37938h 0.181345v 0.0698825h 0.181345v 0.140755h 0.181345v -0.690859h 0.181345v -1.29257h 0.181345v 2.05431h 0.181345v 0.877894h 0.181345v -1.22897h 0.181345v 2.16176h 0.181345v 0.0804309h 0.181345v -0.476207h 0.181345v -1.55634h 0.181345v
 0.944152h 0.181345v 0.769237h 0.181345v -1.57197h 0.181345v -0.0708785h 0.181345v 1.40788h 0.181345v -1.68808h 0.181345v 2.16176h 0.181345v -2.16176h 0.181345v 0.139439h 0.181345v 3.10335h 0.181345v -1.78603h 0.181345v 0.0767091h 0.181345v 0.70873h
 0.181345v -0.785439h 0.181345v -1.10568h 0.181345v 0.802731h 0.181345v 0.379661h 0.181345v -1.80849h 0.181345v 2.6794h 0.181345v -1.76637h 0.181345v 4.0527h 0.181345v -3.68609h 0.181345v -2.01082h 0.181345v 2.69429h 0.181345v -0.683473h 0.181345v
 3.49723h 0.181345v -3.79123h 0.181345v 0.443198h 0.181345v -0.515801h 0.181345v 2.60478h 0.181345v -2.01382h 0.181345v 3.17933h 0.181345v -0.99202h 0.181345v -0.847949h 0.181345v 1.2011h 0.181345v 1.01661h 0.181345v -3.17546h 0.181345v 0.233737h
 0.181345v 0.973381h 0.181345v -0.894648h 0.181345v 2.29991h 0.181345v -4.29219h 0.181345v 4.01842h 0.181345v 0.273767h 0.181345v -2.68949h 0.181345v -1.25327h 0.181345v 0.430411h 0.181345v -0.571166h 0.181345v 2.84684h 0.181345v 0.343001h 0.181345v
 -1.16751h 0.181345v -1.00796h 0.181345v -0.296923h 0.181345v 0.44763h 0.181345v 0.539797h 0.181345v -0.913748h 0.181345v 2.74979h 0.181345v -1.83604h 0.181345v -0.156231h 0.181345v -0.231321h 0.181345v 3.42523h 0.181345v -2.47761h 0.181345v
 -0.560062h 0.181345v 0.641815h 0.181345v 0.415623h 0.181345v 0.0845322h 0.181345v 0.605528h 0.181345v -1.26874h 0.181345v -1.97199h 0.181345v 0.877894h 0.181345v 0.61534h 0.181345v 0.317456h 0.181345v 0.324358h 0.181345v -0.243927h 0.181345v
 -0.70873h 0.181345v 1.79581h 0.181345v -2.39872h 0.181345v 1.2312h 0.181345v -1.45116h 0.181345v 2.44619h 0.181345v -0.67067h 0.181345v -0.720134h 0.181345v 2.09305h 0.181345v -2.24846h 0.181345v -1.61057h 0.181345v 4.40829h 0.181345v -2.72022h
 0.181345v 0.393688h 0.181345v 0.404358h 0.181345v -0.798045h 0.181345v 0.473687h 0.181345v -1.08275h 0.36269v -1.55704h 0.181345v 0.829096h 0.181345v -0.351072h 0.181345v -1.39044h 0.181345v -0.0630863h 0.181345v 0.447311h 0.181345v -0.32087h
 0.181345v -0.982735h 0.181345v 0.544803h 0.181345v -1.7436h 0.181345v -0.485681h 0.181345v -1.27163h 0.181345v 1.5395h 0.181345v 1.12233h 0.181345v -0.45911h 0.181345v -0.554707h 0.181345v 1.07221h 0.181345v 0.295453h 0.181345v -0.925561h 0.181345v
 -0.871482h 0.181345v 0.375026h 0.181345v 0.665682h 0.181345v -1.25085h 0.181345v 1.30769h 0.181345v 0.759297h 0.181345v 2.19046h 0.181345v -2.00961h 0.181345v -1.60831h 0.181345v 2.22748h 0.181345v -0.188464h 0.181345v 1.8591h 0.181345v -0.486939h
 0.181345v -2.68596h 0.181345v 0.230428h 0.181345v -0.569531h 0.181345v -0.762496h 0.181345v -1.98564h 0.181345v -0.901778h 0.181345v -0.684126h 0.181345v -1.91896h 0.181345v -1.40196h 0.181345v -1.52506h 0.181345v -1.81759h 0.181345v -1.32936h
 0.181345v -1.19799h 0.181345v -2.04297h 0.181345v -0.86045h 0.181345v -2.63326h 0.181345v 0.378538h 0.181345v -1.28488h 0.181345v -1.22351h 0.181345v -0.465246h 0.181345v -0.065295h 0.181345v -0.512321h 0.181345v -0.28681h 0.181345v 0.299406h
 0.181345v 1.1659h 0.181345v 0.0272759h 0.181345v 0.972921h 0.181345v 1.6792h 0.181345v 1.47265h 0.181345v 1.35558h 0.181345v 0.851638h 0.181345v 2.7411h 0.181345v 0.151216h 0.181345v 2.17798h 0.181345v 3.26347h 0.181345v 1.82129h 0.181345v 1.2011h
 0.181345v 1.20913h 0.181345v 1.4754h 0.181345v 0.995028h 0.181345v 1.18947h 0.181345v 0.632293h 0.181345v 2.0015h 0.181345v -0.146995h 0.181345v 1.06074h 0.181345v 0.641815h 0.181345v 2.68746h 0.181345v -1.1337h 0.181345v -1.47156h 0.36269v 2.02764h
 0.181345v 0.479781h 0.181345v -0.760414h 0.181345v 0.760414h 0.181345v -2.50742h 0.181345v 1.2011h 0.181345v -1.84638h 0.181345v 1.40624h 0.181345v 1.45676h 0.181345v 0.192517h 0.181345v -0.0965692h 0.181345v 0.193768h 0.181345v -0.760414h 0.181345v
 1.45913h 0.181345v -1.1785h 0.181345v -0.826544h 0.181345v 1.11256h 0.181345v -0.566646h 0.181345v 2.19219h 0.181345v -0.936049h 0.181345v -1.80205h 0.181345v 0.0896092h 0.181345v 1.81359h 0.181345v 1.49323h 0.181345v -2.09011h 0.181345v -0.479781h
 0.181345v 1.8046h 0.181345v -0.727944h 0.181345v -1.81359h 0.181345v 3.41943h 0.181345v -1.70699h 0.36269v -1.16318h 0.181345v 1.06271h 0.181345v -0.198935h 0.181345v -1.32288h 0.181345v 2.55834h 0.181345v -0.936049h 0.181345v 1.04377h 0.181345v
 -0.214678h 0.181345v -1.02937h 0.181345v -0.775234h 0.181345v 1.69841h 0.181345v -1.21863h 0.181345v 3.74958h 0.181345v -1.20387h 0.181345v -1.74445h 0.181345v 0.103252h 0.181345v 0.208673h 0.181345v 2.51154h 0.181345v -0.845888h 0.36269v 1.48087h
 0.181345v -2.39229h 0.36269v 3.46807h 0.181345v -0.54758h 0.181345v -1.53159h 0.181345v 1.1337h 0.181345v -1.84431h 0.181345v 1.32978h 0.181345v -2.00807h 0.181345v 3.05551h 0.181345v 1.57197h 0.181345v -5.59039h 0.181345v 3.22603h 0.181345v
 -0.128069h 0.181345v -2.35446h 0.181345v 0.897708h 0.181345v 1.714h 0.181345v -1.94354h 0.181345v 0.819337h 0.181345v 1.51859h 0.181345v -1.15318h 0.181345v -0.955199h 0.181345v 1.45676h 0.181345v -0.377739h 0.181345v 0.124853h 0.181345v 0.252886h
 0.181345v 1.90146h 0.181345v -4.99942h 0.181345v 5.74186h 0.181345v -3.74958h 0.181345v 2.29991h 0.181345v 0.563082h 0.181345v -3.55707h 0.181345v 1.2982h 0.181345v 1.97467h 0.181345v -2.21926h 0.181345v 0.368411h 0.181345v -2.4061h 0.181345v
 -1.41239h 0.181345v -3.80296h 0.181345v -0.656727h 0.181345v -0.491523h 0.181345v 0.208673h 0.181345v -5.10992h 0.181345v -0.0991359h 0.181345v -0.910324h 0.181345v -3.68748h 0.181345v -1.96957h 0.181345v -1.36697h 0.181345v -1.43784h 0.181345v
 -2.15612h 0.181345v -2.22149h 0.181345v -1.2982h 0.181345v -1.50696h 0.181345v -0.512321h 0.181345v -0.172124h 0.181345v -1.75904h 0.181345v 0.722414h 0.181345v -0.818894h 0.181345v 0.179677h 0.181345v 0.125671h 0.181345v -0.360201h 0.181345v
 1.60242h 0.181345v -0.757668h 0.181345v 1.62033h 0.181345v 1.83624h 0.181345v -0.145384h 0.181345v 2.57982h 0.181345v 2.32143h 0.181345v 0.202307h 0.181345v 2.97702h 0.181345v 0.0935419h 0.181345v 2.77663h 0.181345v 3.08637h 0.181345v 3.83588h
 0.181345v 0.425443h 0.181345v 3.84678h 0.181345v 0.735925h 0.181345v 3.37125h 0.181345v 0.865164h 0.181345v 0.337823h 0.181345v 1.81437h 0.181345v 2.82347h 0.181345v 0.634985h 0.181345v -0.32087h 0.181345v 1.50159h 0.181345v -1.18072h 0.181345v
 4.73104h 0.181345v -1.48263h 0.181345v 1.48263h 0.36269v -2.26807h 0.181345v 3.66783h 0.181345v -4.04557h 0.181345v 2.6458h 0.181345v 2.67575h 0.36269v -1.99227h 0.181345v 1.99227h 0.181345v -3.95538h 0.181345v 5.35078h 0.181345v -5.14498h 0.181345v
 1.75731h 0.181345v -2.95154h 0.181345v 0.988434h 0.181345v -0.795916h 0.181345v 0.592921h 0.181345v 1.04377h 0.181345v 2.08523h 0.181345v -1.42202h 0.181345v 2.18731h 0.181345v -1.7282h 0.181345v -0.231321h 0.181345v 0.947613h 0.181345v -3.47531h
 0.181345v -1.11952h 0.181345v 3.64722h 0.181345v -0.891004h 0.181345v 1.35729h 0.181345v 1.49323h 0.181345v -3.0652h 0.181345v -1.42202h 0.181345v 1.42202h 0.181345v 5.02013h 0.181345v -2.72022h 0.181345v -2.08523h 0.181345v -0.84078h 0.181345v
 -3.28834h 0.181345v 4.34694h 0.181345v 0.904513h 0.181345v 0.473687h 0.181345v -0.238723h 0.181345v -2.40106h 0.181345v 4.15837h 0.181345v -2.45138h 0.181345v -3.05551h 0.181345v 3.51462h 0.181345v -4.40829h 0.181345v 2.65098h 0.181345v -1.57197h
 0.181345v -1.07902h 0.181345v 2.04192h 0.181345v -2.04192h 0.181345v 3.72482h 0.181345v -4.23641h 0.181345v 0.686093h 0.181345v 2.68515h 0.36269v 1.31732h 0.181345v -1.93478h 0.181345v 2.88239h 0.181345v -3.08266h 0.181345v -0.585169h 0.181345v
 -1.45676h 0.181345v -0.343001h 0.181345v 2.5852h 0.181345v 1.26159h 0.181345v -3.67627h 0.181345v 0.702242h 0.181345v 4.1135h 0.181345v -1.13948h 0.181345v -0.644124h 0.181345v -1.01535h 0.181345v 1.65947h 0.181345v -1.85451h 0.181345v 0.592921h
 0.181345v 2.88239h 0.181345v -1.39977h 0.181345v -0.65353h 0.181345v 2.29991h 0.181345v -1.86742h 0.181345v -0.852797h 0.181345v -0.205795h 0.181345v 2.43679h 0.181345v 0.242605h 0.181345v 2.09747h 0.181345v -4.77686h 0.181345v 5.06106h 0.181345v
 -2.13505h 0.181345v -2.92601h 0.181345v 1.73178h 0.36269v 1.19423h 0.181345v 0.505807h 0.181345v 0.259483h 0.181345v -0.76529h 0.181345v -0.489221h 0.181345v 0.995028h 0.181345v -1.92782h 0.181345v 2.18731h 0.181345v -1.95952h 0.181345v 3.61899h
 0.181345v 0.596875h 0.181345v -3.02164h 0.181345v 2.42476h 0.181345v -2.91399h 0.181345v 0.995028h 0.181345v 0.523559h 0.181345v -1.75731h 0.36269v 2.29991h 0.181345v -3.43939h 0.181345v 2.11818h 0.36269v -0.739981h 0.181345v -0.473687h 0.181345v
 -0.45911h 0.181345v 0.45911h 0.181345v 0.473687h 0.181345v 0.242605h 0.181345v -0.242605h 0.181345v 1.25451h 0.181345v -0.76529h 0.181345v -0.489221h 0.36269v -0.473687h 0.181345v 0.234964h 0.181345v 3.15271h 0.181345v -1.91896h 0.181345v -3.43182h
 0.181345v 2.43679h 0.181345v 6.1703h 0.181345v -3.83023h 0.181345v -0.278885h 0.181345v 0.278885h 0.181345v 2.44133h 0.181345v -5.7142h 0.181345v 1.67278h 0.181345v 5.07079h 0.181345v -6.28446h 0.181345v 0.234964h 0.181345v 1.75731h 0.181345v
 2.29991h 0.181345v -4.29219h 0.181345v 3.68313h 0.181345v 2.60133h 0.181345v -6.51578h 0.181345v -1.31732h 0.181345v 8.93878h 0.181345v -4.85527h 0.181345v 1.44967h 0.181345v -0.301422h 0.181345v 1.90726h 0.181345v -0.663215h 0.181345v -0.634985h
 0.181345v 3.8834h 0.181345v -5.36182h 0.181345v 4.96393h 0.181345v 1.22698h 0.181345v -1.99227h 0.181345v 5.32155h 0.181345v -11.6177h 0.181345v 5.21709h 0.181345v 6.40057h 0.181345v -7.40678h 0.181345v 1.00622h 0.181345v 1.07902h 0.181345v 3.32928h
 0.181345v -6.95401h 0.181345v 2.89679h 0.181345v 2.29991h 0.36269v 0.852797h 0.181345v -3.15271h 0.181345v 2.29991h 0.181345v 7.3477h 0.181345v -8.54192h 0.181345v 6.63466h 0.181345v 1.24404h 0.181345v -7.49116h 0.181345v 6.24711h 0.181345v 2.60133h
 0.181345v -4.29219h 0.181345v -5.32155h 0.181345v 7.0124h 0.181345v -1.69085h 0.181345v -1.99227h 0.544034v -0.45911h 0.181345v -2.87017h 0.181345v 4.79799h 0.544034v 4.12167h 0.181345v 4.7513h 0.181345v 3.09796h 0.181345v -11.9709h 0.181345v
 4.12167h 0.181345v -6.92739h 0.181345v 5.62919h 0.181345v -1.19423h 0.36269v 8.20663h 0.181345v -0.962908h 0.181345v -2.56399h 0.181345v 1.65947h 0.181345v -5.75404h 0.181345v 0.60906h 0.181345v 6.0495h 0.181345v 0.962908h 0.181345v -5.02013h
 0.36269v 8.34941h 0.181345v -10.3417h 0.181345v 2.72022h 0.181345v -1.42202h 0.181345v 2.18731h 0.181345v -0.76529h 0.181345v 2.42476h 0.181345v -3.15271h 0.36269v 4.05722h 0.181345v -3.32928h 0.181345v 5.32155h 0.181345v -8.65083h 0.181345v
 3.32928h 0.181345v 5.32155h 0.181345v -4.55626h 0.181345v 9.57639h 0.181345v -7.91692h 0.36269v -2.42476h 0.181345v -1.42202h 0.181345v 7.84925h 0.181345v -10.3417h 0.181345v 2.49243h 0.36269v -0.663215h 0.181345v -6.26417h 0.181345v 2.29991h
 0.181345v -0.962908h 0.181345v 1.46872h 0.181345v -2.37323h 0.181345v -8.72087h 0.181345v 3.26826h 0.181345v -4.66802h 0.181345v 3.21835h 0.181345v -1.57197h 0.181345v -1.19423h 0.181345v 0.466285h 0.181345v -0.694074h 0.181345v 0.932797h 0.181345v
 -5.22498h 0.181345v 2.5852h 0.181345v 0.202995h 0.181345v -1.1785h 0.181345v 4.35527h 0.181345v -2.33599h 0.181345v -1.44166h 0.181345v -0.577616h 0.181345v 5.95536h 0.181345v -3.27287h 0.181345v -0.877894h 0.181345v 0.65353h 0.181345v 2.94458h
 0.181345v -2.02614h 0.181345v 1.75731h 0.181345v 2.29991h 0.36269v 1.99227h 0.181345v 6.0495h 0.181345v -6.0495h 0.181345v 5.02013h 0.181345v 3.96426h 0.181345v -3.45845h 0.181345v 7.11565h 0.181345v -0.806677h 0.181345v -2.85052h 0.181345v 8.51247h
 0.181345v -4.85527h 0.181345v 0.852797h 0.181345v -5.14498h 0.181345v 4.29219h 0.181345v 12.099h 0.181345v -15.093h 0.181345v 2.18731h 0.181345v -5.78542h 0.181345v -2.45138h 0.181345v 2.45138h 0.181345v -1.51859h 0.181345v -4.17138h 0.181345v
 -1.71682h 0.181345v -0.32087h 0.181345v -1.50834h 0.181345v -4.22028h 0.181345v 3.1146h 0.181345v -5.50689h 0.181345v 2.83115h 0.181345v -4.23641h 0.181345v -3.16069h 0.181345v -1.78742h 0.181345v -2.43679h 0.181345v -0.988434h 0.181345v 1.19423h
 0.181345v 0.743494h 0.181345v -3.56696h 0.181345v -3.08723h 0.181345v -0.0695567h 0.181345v 0.422289h 0.181345v -0.142095h 0.181345v -0.0705433h 0.181345v -2.34007h 0.181345v 1.18922h 0.181345v -1.06841h 0.181345v 0.493264h 0.181345v -0.371469h
 0.181345v -0.242605h 0.181345v 0.614074h 0.181345v -1.20387h 0.181345v -0.286379h 0.181345v 3.86348h 0.181345v -3.74958h 0.181345v -1.67451h 0.181345v 0.733054h 0.181345v 0.884401h 0.181345v -2.02072h 0.181345v -1.00946h 0.181345v 0.520239h
 0.181345v -1.59601h 0.181345v 0.483456h 0.181345v 0.0447373h 0.181345v -2.12609h 0.181345v -0.34565h 0.181345v 0.34565h 0.181345v -0.794402h 0.181345v -0.363918h 0.181345v 0.54926h 0.181345v -0.295453h 0.181345v 0.673192h 0.181345v 0.825817h
 0.181345v -0.594497h 0.181345v -0.0775061h 0.181345v 2.33861h 0.181345v 1.52182h 0.181345v -1.06271h 0.181345v 0.140534h 0.181345v 3.24714h 0.181345v 2.20271h 0.181345v -0.663215h 0.181345v 2.01082h 0.181345v 1.7295h 0.181345v 3.14291h 0.181345v
 3.85284h 0.181345v -1.51859h 0.181345v 2.76842h 0.181345v -0.28693h 0.181345v 2.13505h 0.181345v 2.68746h 0.181345v 2.56399h 0.181345v 1.21367h 0.181345v 2.46946h 0.181345v 5.75404h 0.181345v 2.37323h 0.181345v 0.523559h 0.181345v -0.523559h
 0.36269v 1.62924h 0.181345v 3.1865h 0.181345v 0.727944h 0.181345v -3.32928h 0.181345v 9.75651h 0.181345v -1.10568h 0.181345v -1.99227h 0.181345v 8.58437h 0.36269v -7.62146h 0.181345v 6.0495h 0.181345v -5.02013h 0.181345v 1.10568h 0.181345v 3.91445h
 0.181345v 5.32155h 0.181345v -3.74958h 0.181345v 12.099h 0.181345v -6.0495h 0.36269v -7.62146h 0.36269v 3.32928h 0.36269v 7.0124h 0.181345v -7.0124h 0.181345v 4.29219h 0.181345v -4.29219h 0.181345v 14.6339h 0.181345v -7.62146h 0.181345v -2.72022h
 0.181345v -9.04348h 0.181345v 9.04348h 0.181345v 16.3912h 0.181345v -13.671h 0.181345v -2.72022h 0.181345v 2.72022h 0.544034v -10.3417h 0.181345v 10.3417h 0.181345v 7.62146h 0.181345v -10.3417h 0.36269v -2.29991h 0.181345v 18.6911h 0.181345v
 -10.3417h 0.181345v 10.3417h 0.181345v -6.0495h 0.181345v -7.62146h 0.181345v -5.02013h 0.181345v 8.34941h 0.36269v -6.0495h 0.181345v 6.0495h 0.181345v 4.29219h 0.181345v -4.29219h 0.181345v -3.32928h 0.181345v 24.0126h 0.181345v -20.6834h 0.36269v
 -3.32928h 0.36269v 3.32928h 0.181345v -8.34941h 0.181345v 18.6911h 0.181345v -24.0126h 0.181345v 3.32928h 0.181345v 10.3417h 0.181345v -8.34941h 0.181345v 2.29991h 0.181345v -6.0495h 0.181345v 16.3912h 0.181345v -12.6416h 0.181345v -1.99227h
 0.544034v 10.3417h 0.181345v -18.6911h 0.181345v 10.3417h 0.181345v -1.99227h 0.181345v -9.37877h 0.181345v 7.62146h 0.181345v 3.74958h 0.181345v -6.74357h 0.181345v -2.49243h 0.181345v -6.42723h 0.181345v -1.42202h 0.181345v 4.7513h 0.181345v
 -2.56399h 0.181345v 4.55626h 0.181345v -1.02937h 0.181345v -8.20663h 0.181345v 9.236h 0.181345v -8.04177h 0.36269v -1.75731h 0.181345v -1.06616h 0.181345v 5.54369h 0.181345v -5.02013h 0.181345v 1.10568h 0.181345v 3.1865h 0.181345v -6.74357h
 0.181345v 2.45138h 0.181345v -2.45138h 0.181345v 2.99398h 0.181345v 13.3972h 0.181345v -8.15437h 0.181345v 1.65947h 0.181345v 2.89679h 0.181345v -7.40678h 0.181345v 2.85052h 0.181345v 1.65947h 0.181345v -2.42476h 0.181345v 7.62146h 0.181345v
 -3.32928h 0.181345v 6.0495h 0.181345v 3.32928h 0.181345v -10.3417h 0.181345v 14.6339h 0.181345v 2.72022h 0.181345v -7.0124h 0.181345v -3.32928h 0.181345v 13.671h 0.181345v -6.0495h 0.181345v 2.72022h 0.181345v -5.02013h 0.181345v -1.99227h 0.181345v
 4.29219h 0.181345v 2.72022h 0.181345v -2.72022h 0.181345v 16.3912h 0.181345v -6.0495h 0.181345v -7.62146h 0.181345v 7.62146h 0.181345v -7.62146h 0.181345v 13.671h 0.181345v 10.3417h 0.181345v -16.3912h 0.181345v -10.3417h 0.36269v -2.29991h
 0.181345v 12.6416h 0.181345v 6.0495h 0.181345v -10.3417h 0.181345v -6.0495h 0.181345v 6.0495h 0.36269v -10.3417h 0.181345v 7.0124h 0.181345v 7.62146h 0.181345v -7.62146h 0.181345v 3.32928h 0.181345v -6.0495h 0.181345v 2.72022h 0.181345v -7.0124h
 0.181345v 14.6339h 0.36269v 6.0495h 0.36269v -16.3912h 0.181345v 2.72022h 0.36269v 7.62146h 0.181345v -4.29219h 0.181345v -10.3417h 0.181345v 7.0124h 0.181345v 13.671h 0.181345v -10.3417h 0.181345v -8.34941h 0.181345v 12.6416h 0.181345v -10.3417h
 0.181345v -4.29219h 0.181345v 7.0124h 0.181345v 3.32928h 0.544034v -10.3417h 0.181345v 4.29219h 0.181345v 10.3417h 0.181345v 16.3912h 0.181345v -16.3912h 0.181345v -16.3912h 0.181345v 8.76971h 0.544034v -2.72022h 0.181345v -10.3417h 0.181345v
 6.0495h 0.181345v -3.32928h 0.181345v -6.0495h 0.181345v 7.62146h 0.181345v 6.0495h 0.181345v -6.0495h 0.181345v -1.57197h 0.181345v 1.57197h 0.181345v -4.29219h 0.181345v 8.04177h 0.181345v -5.32155h 0.181345v -3.91445h 0.181345v 3.91445h 0.181345v
 -6.0495h 0.181345v 3.32928h 0.181345v -3.32928h 0.181345v 2.13505h 0.181345v 7.24372h 0.181345v -3.32928h 0.36269v -5.02013h 0.181345v 3.59811h 0.181345v -4.62748h 0.181345v 2.13505h 0.181345v 5.48641h 0.181345v -6.5921h 0.181345v 6.5921h 0.181345v
 -2.99398h 0.181345v -3.59811h 0.181345v 1.10568h 0.181345v 3.91445h 0.181345v -1.42202h 0.181345v 1.42202h 0.36269v -3.91445h 0.181345v 3.91445h 0.181345v -5.02013h 0.181345v 10.3417h 0.181345v -5.32155h 0.181345v 5.32155h 0.181345v 2.29991h
 0.181345v -7.62146h 0.181345v -3.91445h 0.181345v 21.8776h 0.181345v -4.29219h 0.181345v -12.099h 0.181345v 3.74958h 0.181345v -11.371h 0.181345v 13.671h 0.36269v -6.0495h 0.36269v -1.57197h 0.181345v 3.32928h 0.181345v -1.75731h 0.181345v 1.75731h
 0.181345v -10.3417h 0.181345v 8.58437h 0.181345v 3.74958h 0.181345v -6.74357h 0.181345v 4.7513h 0.181345v -1.75731h 0.181345v 6.0495h 0.181345v -2.29991h 0.36269v -9.236h 0.181345v 3.91445h 0.36269v 5.32155h 0.181345v -9.236h 0.181345v 21.8776h
 0.181345v -17.9631h 0.181345v 1.57197h 0.181345v 3.74958h 0.181345v -5.32155h 0.181345v -2.72022h 0.181345v 2.72022h 0.181345v -2.72022h 0.181345v -1.19423h 0.181345v 3.91445h 0.181345v -1.42202h 0.181345v -1.2982h 0.181345v -5.1967h 0.181345v
 5.1967h 0.181345v -5.1967h 0.181345v 5.1967h 0.181345v -6.85617h 0.181345v 5.66194h 0.36269v 3.91445h 0.181345v -5.02013h 0.181345v 1.10568h 0.181345v 9.236h 0.181345v -8.04177h 0.181345v -12.099h 0.181345v 13.3972h 0.181345v -7.3477h 0.181345v
 4.85527h 0.181345v -1.10568h 0.181345v 1.10568h 0.544034v -1.10568h 0.181345v -2.89679h 0.181345v 5.1967h 0.181345v -4.29219h 0.181345v 1.99227h 0.181345v -3.74958h 0.36269v 3.74958h 0.181345v 5.02013h 0.181345v -1.42202h 0.181345v -1.2982h
 0.181345v -2.29991h 0.181345v -1.99227h 0.36269v -2.56399h 0.181345v -0.76529h 0.181345v 3.32928h 0.181345v -4.05722h 0.181345v 9.64761h 0.181345v -4.62748h 0.181345v -7.0124h 0.181345v 1.99227h 0.181345v 3.15271h 0.181345v -8.96348h 0.181345v
 24.5019h 0.181345v -20.0484h 0.181345v 2.08523h 0.36269v -5.54369h 0.181345v 5.54369h 0.181345v 8.91966h 0.181345v -2.49243h 0.181345v -5.66194h 0.181345v -2.85052h 0.181345v 1.35729h 0.181345v -3.1865h 0.181345v 10.3417h 0.181345v -6.42723h
 0.181345v 1.57197h 0.181345v 0.852797h 0.181345v -6.90229h 0.181345v 3.74958h 0.181345v -1.35729h 0.181345v -3.96426h 0.181345v 1.02937h 0.36269v 10.3417h 0.181345v -3.74958h 0.181345v -4.90124h 0.181345v 8.65083h 0.181345v -9.236h 0.181345v
 4.67974h 0.181345v 1.65947h 0.181345v 4.00247h 0.181345v -4.00247h 0.181345v -2.42476h 0.181345v 0.76529h 0.36269v 4.55626h 0.181345v -4.55626h 0.181345v -2.85052h 0.181345v 1.35729h 0.181345v -3.74958h 0.181345v 0.563082h 0.181345v 2.49243h
 0.181345v -3.59811h 0.181345v -1.99227h 0.181345v 0.473687h 0.181345v 1.51859h 0.181345v 0.542601h 0.181345v -0.542601h 0.181345v -2.45138h 0.181345v 2.45138h 0.181345v 2.9349h 0.181345v -0.634985h 0.181345v -1.75731h 0.181345v -2.06119h 0.181345v
 -1.3782h 0.181345v 0.904513h 0.181345v -0.45911h 0.181345v 2.99398h 0.181345v -4.29219h 0.181345v 2.72022h 0.181345v -4.29219h 0.181345v 0.377739h 0.181345v -1.10568h 0.181345v 1.49323h 0.181345v 3.52689h 0.181345v 1.02937h 0.181345v -1.51859h
 0.181345v -0.932797h 0.181345v -0.877894h 0.181345v -1.22698h 0.181345v 0.806677h 0.181345v -3.6572h 0.181345v 5.8882h 0.181345v -5.8882h 0.181345v -0.634985h 0.181345v -0.60906h 0.181345v 1.57197h 0.181345v 1.75731h 0.181345v -3.62473h 0.181345v
 0.904513h 0.181345v 6.0495h 0.181345v -4.7513h 0.181345v 3.41429h 0.181345v -5.90672h 0.181345v 7.24372h 0.181345v -3.69769h 0.181345v 0.74615h 0.181345v -3.40559h 0.181345v 2.65944h 0.181345v -2.96087h 0.181345v 0.923174h 0.181345v 6.20907h
 0.181345v -3.03767h 0.181345v -2.18731h 0.181345v -0.663215h 0.181345v 2.85052h 0.181345v 2.56399h 0.181345v -1.337h 0.181345v -3.41429h 0.181345v 4.29219h 0.181345v 4.14224h 0.181345v -6.63466h 0.181345v 10.7292h 0.181345v -7.77769h 0.181345v
 2.53488h 0.181345v 1.14825h 0.181345v 0.60906h 0.181345v -4.29219h 0.181345v -0.45911h 0.181345v 1.42202h 0.181345v 0.505807h 0.181345v 7.11565h 0.181345v -2.99398h 0.36269v 5.7142h 0.181345v -8.76971h 0.181345v -1.06616h 0.181345v 2.82347h
 0.181345v 0.634985h 0.181345v 4.51h 0.36269v -5.14498h 0.181345v 5.14498h 0.181345v -6.33921h 0.181345v 9.236h 0.181345v -7.40678h 0.181345v 3.6572h 0.181345v -4.29219h 0.181345v 8.04177h 0.181345v -1.99227h 0.181345v -5.41451h 0.181345v -1.24404h
 0.181345v -1.69085h 0.181345v 1.10568h 0.181345v 12.8341h 0.181345v -8.91966h 0.181345v -0.727944h 0.181345v 3.15271h 0.181345v -8.47426h 0.181345v 3.96426h 0.181345v 1.35729h 0.181345v -1.99227h 0.181345v -1.75731h 0.181345v 3.74958h 0.181345v
 2.29991h 0.181345v -8.11068h 0.181345v 4.45348h 0.181345v 3.6572h 0.181345v 1.75731h 0.181345v -6.0495h 0.544034v -2.29991h 0.181345v 8.34941h 0.181345v -4.7513h 0.181345v -1.2982h 0.181345v -2.82347h 0.181345v 4.12167h 0.181345v 10.3417h 0.181345v
 -14.9692h 0.181345v 11.371h 0.181345v -5.32155h 0.181345v -2.08523h 0.181345v 4.51h 0.181345v -6.33921h 0.181345v 4.67974h 0.181345v -1.49323h 0.181345v -1.99227h 0.181345v 1.2982h 0.181345v -4.62748h 0.181345v 12.4767h 0.181345v -8.51247h 0.181345v
 -2.39229h 0.181345v 1.75731h 0.181345v 4.29219h 0.181345v -2.29991h 0.181345v 5.02013h 0.181345v -8.76971h 0.181345v 1.14825h 0.181345v 5.75404h 0.181345v -3.84678h 0.181345v -0.663215h 0.181345v -3.45845h 0.181345v 2.21441h 0.181345v 1.90726h
 0.181345v -2.49243h 0.181345v 1.82921h 0.36269v -3.45845h 0.181345v 1.06616h 0.181345v 1.14825h 0.181345v 6.65856h 0.181345v -5.41451h 0.181345v 2.08523h 0.181345v -2.72022h 0.181345v -5.62919h 0.181345v 6.92739h 0.36269v 1.42202h 0.181345v
 -0.727944h 0.181345v -2.60133h 0.36269v -0.585169h 0.181345v 8.20663h 0.181345v -8.20663h 0.181345v 7.24372h 0.181345v -6.0495h 0.181345v 1.99227h 0.181345v 1.49323h 0.181345v -3.48551h 0.181345v -4.29219h 0.181345v 6.28446h 0.181345v -3.74958h
 0.181345v 0.563082h 0.181345v -2.62427h 0.181345v 4.45348h 0.181345v -4.45348h 0.181345v -0.473687h 0.181345v 0.962908h 0.181345v 4.62748h 0.181345v -0.663215h 0.181345v -1.24404h 0.181345v -0.585169h 0.181345v -1.10568h 0.181345v 3.59811h 0.181345v
 -4.62748h 0.181345v 3.96426h 0.181345v -3.96426h 0.181345v 1.57197h 0.181345v -1.57197h 0.181345v 0.505807h 0.181345v -0.505807h 0.181345v -0.489221h 0.181345v 5.1167h 0.181345v 1.42202h 0.181345v -4.47753h 0.181345v 3.05551h 0.181345v -6.0495h
 0.181345v 0.45911h 0.181345v 6.28446h 0.181345v -5.32155h 0.36269v 3.32928h 0.181345v -2.82347h 0.181345v 1.62924h 0.181345v 0.585169h 0.181345v -5.84923h 0.181345v 2.1661h 0.181345v 3.68313h 0.181345v -6.63466h 0.181345v 10.7292h 0.181345v
 -4.67974h 0.181345v -4.00247h 0.181345v 1.3782h 0.36269v 3.8185h 0.181345v -4.29219h 0.181345v -1.337h 0.181345v 1.337h 0.181345v -2.1661h 0.181345v 2.1661h 0.181345v -3.32928h 0.181345v 3.80296h 0.181345v -5.22498h 0.181345v 4.29219h 0.36269v
 -0.445403h 0.181345v -5.14498h 0.181345v 1.99227h 0.181345v 3.59811h 0.181345v -2.49243h 0.181345v 0.387551h 0.181345v 1.65947h 0.181345v -4.51h 0.181345v 9.09764h 0.181345v -4.14224h 0.181345v -4.29219h 0.181345v 4.7513h 0.181345v -2.95154h
 0.181345v 3.91445h 0.181345v -3.52689h 0.181345v -1.49323h 0.181345v 1.10568h 0.36269v 0.785439h 0.181345v 0.829096h 0.181345v 0.432491h 0.36269v -0.432491h 0.181345v 5.02013h 0.181345v -4.58764h 0.181345v 2.37323h 0.181345v 1.06616h 0.181345v
 1.14825h 0.181345v -4.58764h 0.181345v 8.68221h 0.181345v 2.56399h 0.181345v -9.37877h 0.181345v -0.962908h 0.181345v 0.962908h 0.36269v 6.81479h 0.181345v -1.49323h 0.36269v -1.99227h 0.181345v 0.634985h 0.181345v 2.08523h 0.181345v -1.42202h
 0.181345v 2.99398h 0.181345v -2.99398h 0.181345v 2.99398h 0.181345v -6.0495h 0.181345v 5.24282h 0.181345v -1.49323h 0.181345v -5.81077h 0.181345v 8.11068h 0.181345v -1.57197h 0.181345v -1.42202h 0.181345v 1.42202h 0.181345v 6.42723h 0.181345v
 -6.42723h 0.181345v -4.47753h 0.181345v 3.05551h 0.36269v -3.59811h 0.181345v 2.29991h 0.181345v -2.29991h 0.181345v 4.29219h 0.181345v -3.74958h 0.181345v 4.47753h 0.181345v -6.53872h 0.181345v -4.17138h 0.181345v 1.94038h 0.181345v -0.40879h
 0.181345v 3.63481h 0.181345v 4.12167h 0.181345v -5.59039h 0.181345v 3.68313h 0.181345v -4.14224h 0.181345v 3.55707h 0.181345v -1.62924h 0.181345v 4.12167h 0.181345v -5.1167h 0.181345v 0.995028h 0.181345v 1.06616h 0.181345v -2.06119h 0.36269v
 1.51859h 0.181345v -0.523559h 0.36269v 4.12167h 0.181345v -6.0495h 0.181345v 5.38628h 0.181345v -0.634985h 0.181345v 0.634985h 0.181345v 3.6572h 0.181345v 1.75731h 0.181345v -7.80681h 0.181345v -1.06616h 0.181345v 9.83587h 0.181345v -3.52689h
 0.181345v -2.85052h 0.181345v 2.08523h 0.181345v 6.42723h 0.181345v -2.13505h 0.181345v -0.962908h 0.181345v 7.0124h 0.181345v -6.0495h 0.181345v -1.86742h 0.181345v 6.4949h 0.181345v 6.74357h 0.181345v -1.99227h 0.181345v -4.7513h 0.181345v
 -6.4949h 0.36269v 2.89679h 0.181345v 3.59811h 0.181345v -3.59811h 0.181345v 6.5921h 0.181345v -8.58437h 0.181345v 5.59039h 0.181345v 9.04348h 0.181345v -2.29991h 0.181345v -8.04177h 0.181345v 2.72022h 0.181345v 7.62146h 0.181345v -9.04348h 0.181345v
 -4.62748h 0.181345v 11.371h 0.36269v -14.0913h 0.181345v 2.72022h 0.181345v 3.32928h 0.181345v -6.0495h 0.181345v 10.3417h 0.181345v 6.0495h 0.181345v -10.3417h 0.181345v 2.72022h 0.181345v 7.62146h 0.181345v -11.5359h 0.181345v 5.48641h 0.181345v
 -6.5921h 0.181345v 2.29991h 0.181345v 1.2982h 0.181345v 1.42202h 0.181345v 1.57197h 0.181345v -11.9136h 0.181345v 5.32155h 0.181345v 5.02013h 0.181345v -10.3417h 0.181345v 5.32155h 0.181345v -6.74357h 0.181345v 4.7513h 0.181345v -1.75731h 0.181345v
 12.099h 0.181345v -9.37877h 0.181345v 7.62146h 0.181345v -1.57197h 0.181345v -5.02013h 0.181345v 10.3417h 0.181345v -11.371h 0.181345v 11.371h 0.181345v -5.32155h 0.181345v -9.57639h 0.181345v 5.66194h 0.181345v -1.10568h 0.181345v 1.10568h 0.36269v
 -4.85527h 0.181345v -0.806677h 0.36269v 4.55626h 0.181345v -1.02937h 0.181345v -2.72022h 0.181345v 8.76971h 0.181345v 7.62146h 0.181345v -14.6339h 0.181345v 8.58437h 0.181345v -1.57197h 0.181345v -7.0124h 0.181345v 0.962908h 0.181345v -6.37742h
 0.181345v 17.7485h 0.181345v -6.74357h 0.181345v -8.91966h 0.181345v 1.57197h 0.181345v 7.3477h 0.181345v -1.2982h 0.181345v -6.0495h 0.181345v 0.852797h 0.181345v 7.91692h 0.181345v 1.57197h 0.181345v 6.0495h 0.181345v -16.3912h 0.181345v -4.90124h
 0.181345v 3.32928h 0.181345v 10.3417h 0.181345v -2.72022h 0.181345v -9.7067h 0.181345v 7.40678h 0.181345v 8.34941h 0.181345v -8.34941h 0.181345v 8.34941h 0.181345v -4.7513h 0.181345v 1.42202h 0.181345v -1.42202h 0.181345v -6.4949h 0.181345v
 -0.852797h 0.181345v 0.852797h 0.181345v 6.4949h 0.181345v 2.99398h 0.181345v -7.62146h 0.544034v 7.62146h 0.181345v -7.62146h 0.181345v 4.62748h 0.181345v -5.59039h 0.181345v 3.09796h 0.181345v -4.85527h 0.181345v 1.75731h 0.181345v 3.09796h
 0.181345v 1.19423h 0.181345v -1.19423h 0.181345v -3.09796h 0.181345v -3.32928h 0.181345v 4.29219h 0.181345v -1.86742h 0.181345v -1.65947h 0.181345v -1.49323h 0.181345v 6.0495h 0.181345v -2.89679h 0.181345v 2.89679h 0.181345v -6.74357h 0.181345v
 5.7142h 0.181345v -1.86742h 0.181345v 2.89679h 0.181345v -1.99227h 0.181345v -2.56399h 0.181345v -0.76529h 0.181345v 6.42723h 0.181345v -6.42723h 0.181345v -3.91445h 0.181345v 11.5359h 0.181345v -10.3417h 0.181345v 2.72022h 0.36269v 3.32928h
 0.181345v -4.7513h 0.181345v -1.90726h 0.181345v 9.75651h 0.181345v -2.13505h 0.181345v -5.02013h 0.181345v -1.35729h 0.181345v 9.7067h 0.181345v -9.04348h 0.181345v -0.663215h 0.181345v -0.634985h 0.181345v -0.60906h 0.181345v 3.32928h 0.181345v
 -3.32928h 0.36269v -4.14224h 0.181345v 7.47151h 0.181345v -5.54369h 0.181345v 1.62924h 0.181345v 0.585169h 0.181345v 2.60133h 0.181345v -3.1865h 0.181345v 2.49243h 0.181345v -4.62748h 0.181345v -5.3712h 0.181345v 1.07902h 0.181345v 3.32928h
 0.181345v -3.32928h 0.181345v 3.80296h 0.181345v -2.63979h 0.181345v -1.16318h 0.181345v 4.79799h 0.181345v 1.06616h 0.181345v -8.58437h 0.181345v 7.0124h 0.181345v -1.86742h 0.36269v 2.37323h 0.181345v -3.63481h 0.181345v -0.397887h 0.181345v
 2.56399h 0.181345v 0.962908h 0.181345v -0.962908h 0.181345v 2.53488h 0.181345v -5.86415h 0.181345v 3.80296h 0.181345v 3.20944h 0.181345v 4.90124h 0.181345v -3.6572h 0.36269v 0.663215h 0.181345v 1.42202h 0.181345v -1.42202h 0.181345v 3.84678h
 0.181345v -1.65947h 0.181345v -0.76529h 0.181345v 7.62146h 0.181345v 6.0495h 0.181345v -9.37877h 0.181345v 6.0495h 0.181345v -7.0124h 0.181345v -3.32928h 0.181345v 10.3417h 0.181345v -5.02013h 0.181345v 8.34941h 0.181345v -6.0495h 0.181345v
 -1.19423h 0.181345v 14.2561h 0.36269v -13.0619h 0.181345v 2.72022h 0.181345v 3.32928h 0.181345v 14.6339h 0.181345v -7.62146h 0.181345v -5.02013h 0.36269v 8.34941h 0.36269v -8.34941h 0.181345v 5.02013h 0.181345v 3.32928h 0.181345v -6.0495h 0.181345v
 10.3417h 0.181345v -12.6416h 0.181345v 2.29991h 0.181345v 10.3417h 0.181345v 6.0495h 0.181345v -6.0495h 0.181345v -4.29219h 0.181345v -3.32928h 0.181345v 34.3543h 0.181345v -10.3417h 0.181345v -10.3417h 0.181345v 20.6834h 0.181345v -10.3417h
 0.181345v -16.3912h 0.181345v 6.0495h 0.544034v -6.0495h 0.181345v -4.29219h 0.181345v 20.6834h 0.36269v -10.3417h 0.181345v -10.3417h 0.181345v 31.025h 0.181345v -20.6834h 0.181345v -13.671h 0.181345v 7.62146h 0.181345v 6.0495h 0.181345v 10.3417h
 0.181345v -10.3417h 0.36269v -6.0495h 0.181345v 26.7329h 0.181345v -10.3417h 0.181345v -10.3417h 0.544034v -6.0495h 0.181345v 6.0495h 0.181345v 20.6834h 0.181345v -20.6834h 0.181345v 10.3417h 0.544034v -16.3912h 0.181345v 26.7329h 0.181345v
 -20.6834h 0.181345v 20.6834h 0.36269v -10.3417h 0.181345v -16.3912h 0.181345v -4.29219h 0.181345v 20.6834h 0.181345v -10.3417h 0.181345v -13.671h 0.181345v 24.0126h 0.181345v 10.3417h 0.181345v -26.7329h 0.181345v 26.7329h 0.36269v -10.3417h
 0.181345v 10.3417h 0.544034v -10.3417h 0.906724v -20.6834h 0.181345v 20.6834h 0.181345v -10.3417h 0.36269v 20.6834h 0.544034v -20.6834h 0.181345v 20.6834h 0.544034v -10.3417h 0.181345v 10.3417h 0.36269v -26.7329h 0.181345v 16.3912h 0.36269v
 -10.3417h 0.36269v 20.6834h 0.36269v -20.6834h 0.544034v 10.3417h 0.181345v -10.3417h 0.181345v -6.0495h 0.181345v 16.3912h 0.181345v 10.3417h 0.544034v -20.6834h 0.181345v 20.6834h 0.181345v -26.7329h 0.181345v 6.0495h 0.181345v -10.3417h 0.181345v
 10.3417h 0.181345v 10.3417h 0.544034v 10.3417h 0.181345v -26.7329h 0.36269v 6.0495h 0.36269v 10.3417h 0.181345v -10.3417h 0.181345v -6.0495h 0.181345v 16.3912h 0.36269v 10.3417h 0.181345v -10.3417h 0.181345v 10.3417h 0.181345v -20.6834h 0.181345v
 10.3417h 0.906724v 10.3417h 0.181345v -10.3417h 0.181345v -10.3417h 0.36269v 10.3417h 0.181345v 10.3417h 0.181345v -31.025h 0.181345v 31.025h 0.181345v -10.3417h 0.36269v 10.3417h 0.181345v -10.3417h 0.36269v -10.3417h 0.181345v 10.3417h 0.36269v
 10.3417h 0.181345v -20.6834h 0.181345v 20.6834h 0.181345v -26.7329h 0.181345v 26.7329h 0.181345v -31.025h 0.181345v 31.025h 0.181345v -20.6834h 0.181345v 20.6834h 0.36269v -26.7329h 0.36269v 6.0495h 0.36269v 10.3417h 1.08807v -16.3912h 0.181345v
 16.3912h 0.36269v 10.3417h 0.181345v -20.6834h 0.181345v -6.0495h 0.181345v 26.7329h 0.181345v -10.3417h 0.181345v 10.3417h 0.181345v -20.6834h 0.181345v 20.6834h 0.36269v -10.3417h 0.544034v 10.3417h 0.181345v -26.7329h 0.181345v 26.7329h 0.181345v
 -31.025h 0.181345v 31.025h 0.181345v -20.6834h 0.181345v 10.3417h 0.36269v -10.3417h 0.181345v 20.6834h 0.181345v -10.3417h 0.181345v 10.3417h 0.181345v -34.3543h 0.181345v 13.671h 0.181345v 10.3417h 0.181345v -10.3417h 0.36269v -6.0495h 0.181345v
 16.3912h 0.36269v -20.6834h 0.181345v 10.3417h 0.36269v 20.6834h 0.36269v -10.3417h 0.181345v 10.3417h 0.181345v -10.3417h 0.36269v -10.3417h 0.181345v 20.6834h 0.181345v -10.3417h 0.36269v 10.3417h 0.181345v -10.3417h 0.181345v -10.3417h 0.181345v
 20.6834h 0.181345v -20.6834h 0.181345v 20.6834h 0.181345v -10.3417h 0.36269v 10.3417h 0.36269v -10.3417h 0.181345v 10.3417h 0.181345v -20.6834h 0.181345v 20.6834h 0.181345v -10.3417h 0.181345v 10.3417h 0.725379v -10.3417h 0.544034v 10.3417h
 0.181345v -10.3417h 0.181345v -10.3417h 0.36269v 10.3417h 0.181345v 10.3417h 0.181345v -26.7329h 0.181345v 26.7329h 0.181345v -20.6834h 0.181345v 10.3417h 0.181345v -10.3417h 0.181345v 10.3417h 0.36269v -20.6834h 0.181345v 20.6834h 0.181345v
 10.3417h 0.181345v -20.6834h 0.181345v 20.6834h 0.181345v -20.6834h 0.544034v 10.3417h 0.181345v -10.3417h 0.181345v 20.6834h 0.725379v -10.3417h 0.181345v 10.3417h 0.181345v -26.7329h 0.544034v 16.3912h 0.36269v 10.3417h 0.181345v -10.3417h
 0.181345v -10.3417h 0.181345v 10.3417h 0.181345v 10.3417h 0.181345v -10.3417h 0.906724v -16.3912h 0.181345v 16.3912h 0.181345v -10.3417h 0.181345v 20.6834h 0.181345v -10.3417h 0.181345v 10.3417h 0.544034v -10.3417h 0.181345v 10.3417h 0.36269v
 -10.3417h 0.181345v -16.3912h 0.36269v 6.0495h 0.181345v 10.3417h 0.181345v -10.3417h 0.181345v 20.6834h 0.725379v -10.3417h 0.181345v 10.3417h 0.181345v -10.3417h 0.181345v 10.3417h 0.181345v -10.3417h 0.181345v 10.3417h 0.36269v -10.3417h
 0.181345v 10.3417h 0.181345v -10.3417h 0.181345v 10.3417h 0.36269v -10.3417h 0.181345v 10.3417h 0.181345v -10.3417h 0.181345v -10.3417h 0.181345v 10.3417h 0.181345v 10.3417h 0.36269v -10.3417h 0.181345v 10.3417h 0.181345v -20.6834h 0.181345v
 20.6834h 0.181345v -10.3417h 0.181345v -20.6834h 0.181345v 10.3417h 0.181345v 20.6834h 0.181345v -10.3417h 0.36269v 10.3417h 0.181345v -10.3417h 0.181345v -10.3417h 0.181345v -10.3417h 0.181345v 4.29219h 0.181345v 16.3912h 0.544034v 10.3417h
 0.36269v -10.3417h 0.36269v 10.3417h 0.181345v -10.3417h 0.181345v -16.3912h 0.181345v 26.7329h 0.544034v -26.7329h 0.181345v 16.3912h 0.544034v -10.3417h 0.181345v 10.3417h 0.181345v 10.3417h 0.181345v -26.7329h 0.181345v 16.3912h 0.181345v
 -10.3417h 0.181345v 10.3417h 0.181345v -10.3417h 0.181345v 20.6834h 0.181345" fill="none" stroke="black"/>
<path d="M57.1929,280.151h 453.543" fill="none" stroke="black"/>
<path d="M57.1929,272.68v 7.47068" fill="none" stroke="black"/>
<path d="M75.3318,276.415v 3.73534" fill="none" stroke="black"/>
<path d="M93.4707,276.415v 3.73534" fill="none" stroke="black"/>
<path d="M111.61,276.415v 3.73534" fill="none" stroke="black"/>
<path d="M129.749,276.415v 3.73534" fill="none" stroke="black"/>
<path d="M147.887,272.68v 7.47068" fill="none" stroke="black"/>
<path d="M166.026,276.415v 3.73534" fill="none" stroke="black"/>
<path d="M184.165,276.415v 3.73534" fill="none" stroke="black"/>
<path d="M202.304,276.415v 3.73534" fill="none" stroke="black"/>
<path d="M220.443,276.415v 3.73534" fill="none" stroke="black"/>
<path d="M238.582,272.68v 7.47068" fill="none" stroke="black"/>
<path d="M256.721,276.415v 3.73534" fill="none" stroke="black"/>
<path d="M274.86,276.415v 3.73534" fill="none" stroke="black"/>
<path d="M292.999,276.415v 3.73534" fill="none" stroke="black"/>
<path d="M311.138,276.415v 3.73534" fill="none" stroke="black"/>
<path d="M329.277,272.68v 7.47068" fill="none" stroke="black"/>
<path d="M347.415,276.415v 3.73534" fill="none" stroke="black"/>
<path d="M365.554,276.415v 3.73534" fill="none" stroke="black"/>
<path d="M383.693,276.415v 3.73534" fill="none" stroke="black"/>
<path d="M401.832,276.415v 3.73534" fill="none" stroke="black"/>
<path d="M419.971,272.68v 7.47068" fill="none" stroke="black"/>
<path d="M438.11,276.415v 3.73534" fill="none" stroke="black"/>
<path d="M456.249,276.415v 3.73534" fill="none" stroke="black"/>
<path d="M474.388,276.415v 3.73534" fill="none" stroke="black"/>
<path d="M492.527,276.415v 3.73534" fill="none" stroke="black"/>
<path d="M510.666,272.68v 7.47068" fill="none" stroke="black"/>
<path d="M510.666,272.68v 7.47068" fill="none" stroke="black"/>
<text xml:space="preserve" x="54.3523" y="290.27" fill="black" font-size="10.4952" font-family="Helvetica">0</text>
<text xml:space="preserve" x="139.569" y="290.27" fill="black" font-size="10.4952" font-family="Helvetica">500</text>
<text xml:space="preserve" x="227.449" y="290.27" fill="black" font-size="10.4952" font-family="Helvetica">1000</text>
<text xml:space="preserve" x="318.288" y="290.27" fill="black" font-size="10.4952" font-family="Helvetica">1500</text>
<text xml:space="preserve" x="408.831" y="290.27" fill="black" font-size="10.4952" font-family="Helvetica">2000</text>
<text xml:space="preserve" x="499.67" y="290.27" fill="black" font-size="10.4952" font-family="Helvetica">2500</text>
<text xml:space="preserve" x="265.323" y="301.218" fill="black" font-size="10.4952" font-family="Helvetica">Channel</text>
<path d="M57.1929,280.151v -249.023" fill="none" stroke="black"/>
<path d="M63.9961,280.151h -6.80315" fill="none" stroke="black"/>
<path d="M63.9961,277.43h -6.80315" fill="none" stroke="black"/>
<path d="M63.9961,275.13h -6.80315" fill="none" stroke="black"/>
<path d="M63.9961,273.138h -6.80315" fill="none" stroke="black"/>
<path d="M63.9961,271.381h -6.80315" fill="none" stroke="black"/>
<path d="M70.7992,269.809h -13.6063" fill="none" stroke="black"/>
<text xml:space="preserve" x="49.0263" y="273.404" fill="black" font-size="10.4952" font-family="Helvetica">1</text>
<path d="M63.9961,259.467h -6.80315" fill="none" stroke="black"/>
<path d="M63.9961,253.418h -6.80315" fill="none" stroke="black"/>
<path d="M63.9961,249.126h -6.80315" fill="none" stroke="black"/>
<path d="M63.9961,245.796h -6.80315" fill="none" stroke="black"/>
<path d="M63.9961,243.076h -6.80315" fill="none" stroke="black"/>
<path d="M63.9961,240.776h -6.80315" fill="none" stroke="black"/>
<path d="M63.9961,238.784h -6.80315" fill="none" stroke="black"/>
<path d="M63.9961,237.027h -6.80315" fill="none" stroke="black"/>
<path d="M70.7992,235.455h -13.6063" fill="none" stroke="black"/>
<text xml:space="preserve" x="41.629" y="239.081" fill="black" font-size="10.4952" font-family="Helvetica">10</text>
<path d="M63.9961,225.113h -6.80315" fill="none" stroke="black"/>
<path d="M63.9961,219.063h -6.80315" fill="none" stroke="black"/>
<path d="M63.9961,214.771h -6.80315" fill="none" stroke="black"/>
<path d="M63.9961,211.442h -6.80315" fill="none" stroke="black"/>
<path d="M63.9961,208.722h -6.80315" fill="none" stroke="black"/>
<path d="M63.9961,206.422h -6.80315" fill="none" stroke="black"/>
<path d="M63.9961,204.43h -6.80315" fill="none" stroke="black"/>
<path d="M63.9961,202.672h -6.80315" fill="none" stroke="black"/>
<path d="M70.7992,201.1h -13.6063" fill="none" stroke="black"/>
<text xml:space="preserve" x="49.0263" y="201.207" fill="black" font-size="7.16345" font-family="Helvetica">2</text>
<text xml:space="preserve" x="38.0783" y="205.645" fill="black" font-size="10.4952" font-family="Helvetica">10</text>
<path d="M63.9961,190.759h -6.80315" fill="none" stroke="black"/>
<path d="M63.9961,184.709h -6.80315" fill="none" stroke="black"/>
<path d="M63.9961,180.417h -6.80315" fill="none" stroke="black"/>
<path d="M63.9961,177.088h -6.80315" fill="none" stroke="black"/>
<path d="M63.9961,174.367h -6.80315" fill="none" stroke="black"/>
<path d="M63.9961,172.067h -6.80315" fill="none" stroke="black"/>
<path d="M63.9961,170.075h -6.80315" fill="none" stroke="black"/>
<path d="M63.9961,168.318h -6.80315" fill="none" stroke="black"/>
<path d="M70.7992,166.746h -13.6063" fill="none" stroke="black"/>
<text xml:space="preserve" x="49.0263" y="166.587" fill="black" font-size="7.16345" font-family="Helvetica">3</text>
<text xml:space="preserve" x="38.0783" y="171.321" fill="black" font-size="10.4952" font-family="Helvetica">10</text>
<path d="M63.9961,156.404h -6.80315" fill="none" stroke="black"/>
<path d="M63.9961,150.355h -6.80315" fill="none" stroke="black"/>
<path d="M63.9961,146.063h -6.80315" fill="none" stroke="black"/>
<path d="M63.9961,142.733h -6.80315" fill="none" stroke="black"/>
<path d="M63.9961,140.013h -6.80315" fill="none" stroke="black"/>
<path d="M63.9961,137.713h -6.80315" fill="none" stroke="black"/>
<path d="M63.9961,135.721h -6.80315" fill="none" stroke="black"/>
<path d="M63.9961,133.964h -6.80315" fill="none" stroke="black"/>
<path d="M70.7992,132.392h -13.6063" fill="none" stroke="black"/>
<text xml:space="preserve" x="49.0263" y="132.56" fill="black" font-size="7.16345" font-family="Helvetica">4</text>
<text xml:space="preserve" x="38.0783" y="136.998" fill="black" font-size="10.4952" font-family="Helvetica">10</text>
<path d="M63.9961,122.05h -6.80315" fill="none" stroke="black"/>
<path d="M63.9961,116h -6.80315" fill="none" stroke="black"/>
<path d="M63.9961,111.708h -6.80315" fill="none" stroke="black"/>
<path d="M63.9961,108.379h -6.80315" fill="none" stroke="black"/>
<path d="M63.9961,105.659h -6.80315" fill="none" stroke="black"/>
<path d="M63.9961,103.359h -6.80315" fill="none" stroke="black"/>
<path d="M63.9961,101.367h -6.80315" fill="none" stroke="black"/>
<path d="M63.9961,99.6093h -6.80315" fill="none" stroke="black"/>
<path d="M70.7992,98.0373h -13.6063" fill="none" stroke="black"/>
<text xml:space="preserve" x="49.0263" y="97.9403" fill="black" font-size="7.16345" font-family="Helvetica">5</text>
<text xml:space="preserve" x="38.0783" y="102.675" fill="black" font-size="10.4952" font-family="Helvetica">10</text>
<path d="M63.9961,87.6956h -6.80315" fill="none" stroke="black"/>
<path d="M63.9961,81.6461h -6.80315" fill="none" stroke="black"/>
<path d="M63.9961,77.3539h -6.80315" fill="none" stroke="black"/>
<path d="M63.9961,74.0247h -6.80315" fill="none" stroke="black"/>
<path d="M63.9961,71.3044h -6.80315" fill="none" stroke="black"/>
<path d="M63.9961,69.0045h -6.80315" fill="none" stroke="black"/>
<path d="M63.9961,67.0123h -6.80315" fill="none" stroke="black"/>
<path d="M63.9961,65.2549h -6.80315" fill="none" stroke="black"/>
<path d="M70.7992,63.683h -13.6063" fill="none" stroke="black"/>
<text xml:space="preserve" x="49.0263" y="63.6168" fill="black" font-size="7.16345" font-family="Helvetica">6</text>
<text xml:space="preserve" x="38.0783" y="68.3511" fill="black" font-size="10.4952" font-family="Helvetica">10</text>
<path d="M63.9961,53.3413h -6.80315" fill="none" stroke="black"/>
<path d="M63.9961,47.2918h -6.80315" fill="none" stroke="black"/>
<path d="M63.9961,42.9996h -6.80315" fill="none" stroke="black"/>
<path d="M63.9961,39.6703h -6.80315" fill="none" stroke="black"/>
<path d="M63.9961,36.9501h -6.80315" fill="none" stroke="black"/>
<path d="M63.9961,34.6502h -6.80315" fill="none" stroke="black"/>
<path d="M63.9961,32.6579h -6.80315" fill="none" stroke="black"/>
<g transform="rotate(-90,26.5385,191.442)">
<text xml:space="preserve" x="26.5385" y="191.442" fill="black" font-size="10.4952" font-family="Helvetica">Counts/Channel</text>
</g>
<text xml:space="preserve" x="404.097" y="63.6168" fill="black" font-size="14.7788" font-family="Helvetica" font-weight="bold"> = 2.4879 MeV</text>
<text xml:space="preserve" x="398.179" y="66.8716" fill="black" font-size="10.0192" font-family="Helvetica" font-weight="bold">p</text>
<text xml:space="preserve" x="389.006" y="63.6168" fill="black" font-size="14.7788" font-family="Helvetica" font-weight="bold">E</text>
<path d="M262.163,165.324v 25.7583" fill="none" stroke="black"/>
<path d="M264.454,191.082l -2.29122, 3.9685l -2.29122, -3.9685z" fill="black"/>
<path d="M264.454,191.082l -2.29122, 3.9685l -2.29122, -3.9685h 4.58243z" fill="none" stroke="black"/>
<text xml:space="preserve" x="266.803" y="163.332" fill="black" font-size="10.4952" font-family="Helvetica" font-weight="bold">_1 	1.369 MeV</text>
<text xml:space="preserve" x="260.293" y="163.332" fill="black" font-size="10.4952" font-family="Times">&#0945;</text>
<path d="M184.528,132.392v 30.3858" fill="none" stroke="black"/>
<path d="M186.819,162.777l -2.29122, 3.9685l -2.29122, -3.9685z" fill="black"/>
<path d="M186.819,162.777l -2.29122, 3.9685l -2.29122, -3.9685h 4.58243z" fill="none" stroke="black"/>
<text xml:space="preserve" x="172.117" y="129.601" fill="black" font-size="10.4952" font-family="Helvetica" font-weight="bold"># p_1 	0.844 MeV</text>
<path d="M210.104,150.355v 12.4227" fill="none" stroke="black"/>
<path d="M212.395,162.777l -2.29122, 3.9685l -2.29122, -3.9685z" fill="black"/>
<path d="M212.395,162.777l -2.29122, 3.9685l -2.29122, -3.9685h 4.58243z" fill="none" stroke="black"/>
<text xml:space="preserve" x="197.564" y="145.875" fill="black" font-size="10.4952" font-family="Helvetica" font-weight="bold"># p_2 	1.015 MeV</text>
<path d="M497.783,269.809h 12.883" fill="none" stroke="black"/>
<path d="M504.224,259.467h 6.4415" fill="none" stroke="black"/>
<path d="M504.224,253.418h 6.4415" fill="none" stroke="black"/>
<path d="M504.224,249.126h 6.4415" fill="none" stroke="black"/>
<path d="M504.224,245.796h 6.4415" fill="none" stroke="black"/>
<path d="M504.224,243.076h 6.4415" fill="none" stroke="black"/>
<path d="M504.224,240.776h 6.4415" fill="none" stroke="black"/>
<path d="M504.224,238.784h 6.4415" fill="none" stroke="black"/>
<path d="M504.224,237.027h 6.4415" fill="none" stroke="black"/>
<path d="M497.783,235.455h 12.883" fill="none" stroke="black"/>
<path d="M504.224,225.113h 6.4415" fill="none" stroke="black"/>
<path d="M504.224,219.063h 6.4415" fill="none" stroke="black"/>
<path d="M504.224,214.771h 6.4415" fill="none" stroke="black"/>
<path d="M504.224,211.442h 6.4415" fill="none" stroke="black"/>
<path d="M504.224,208.722h 6.4415" fill="none" stroke="black"/>
<path d="M504.224,206.422h 6.4415" fill="none" stroke="black"/>
<path d="M504.224,204.43h 6.4415" fill="none" stroke="black"/>
<path d="M504.224,202.672h 6.4415" fill="none" stroke="black"/>
<path d="M497.783,201.1h 12.883" fill="none" stroke="black"/>
<path d="M504.224,190.759h 6.4415" fill="none" stroke="black"/>
<path d="M504.224,184.709h 6.4415" fill="none" stroke="black"/>
<path d="M504.224,180.417h 6.4415" fill="none" stroke="black"/>
<path d="M504.224,177.088h 6.4415" fill="none" stroke="black"/>
<path d="M504.224,174.367h 6.4415" fill="none" stroke="black"/>
<path d="M504.224,172.067h 6.4415" fill="none" stroke="black"/>
<path d="M504.224,170.075h 6.4415" fill="none" stroke="black"/>
<path d="M504.224,168.318h 6.4415" fill="none" stroke="black"/>
<path d="M497.783,166.746h 12.883" fill="none" stroke="black"/>
<path d="M504.224,156.404h 6.4415" fill="none" stroke="black"/>
<path d="M504.224,150.355h 6.4415" fill="none" stroke="black"/>
<path d="M504.224,146.063h 6.4415" fill="none" stroke="black"/>
<path d="M504.224,142.733h 6.4415" fill="none" stroke="black"/>
<path d="M504.224,140.013h 6.4415" fill="none" stroke="black"/>
<path d="M504.224,137.713h 6.4415" fill="none" stroke="black"/>
<path d="M504.224,135.721h 6.4415" fill="none" stroke="black"/>
<path d="M504.224,133.964h 6.4415" fill="none" stroke="black"/>
<path d="M497.783,132.392h 12.883" fill="none" stroke="black"/>
<path d="M504.224,122.05h 6.4415" fill="none" stroke="black"/>
<path d="M504.224,116h 6.4415" fill="none" stroke="black"/>
<path d="M504.224,111.708h 6.4415" fill="none" stroke="black"/>
<path d="M504.224,108.379h 6.4415" fill="none" stroke="black"/>
<path d="M504.224,105.659h 6.4415" fill="none" stroke="black"/>
<path d="M504.224,103.359h 6.4415" fill="none" stroke="black"/>
<path d="M504.224,101.367h 6.4415" fill="none" stroke="black"/>
<path d="M504.224,99.6093h 6.4415" fill="none" stroke="black"/>
<path d="M497.783,98.0373h 12.883" fill="none" stroke="black"/>
<path d="M504.224,87.6956h 6.4415" fill="none" stroke="black"/>
<path d="M504.224,81.6461h 6.4415" fill="none" stroke="black"/>
<path d="M504.224,77.3539h 6.4415" fill="none" stroke="black"/>
<path d="M504.224,74.0247h 6.4415" fill="none" stroke="black"/>
<path d="M504.224,71.3044h 6.4415" fill="none" stroke="black"/>
<path d="M504.224,69.0045h 6.4415" fill="none" stroke="black"/>
<path d="M504.224,67.0123h 6.4415" fill="none" stroke="black"/>
<path d="M504.224,65.2549h 6.4415" fill="none" stroke="black"/>
<path d="M497.783,63.683h 12.883" fill="none" stroke="black"/>
<path d="M504.224,53.3413h 6.4415" fill="none" stroke="black"/>
<path d="M504.224,47.2918h 6.4415" fill="none" stroke="black"/>
<path d="M504.224,42.9996h 6.4415" fill="none" stroke="black"/>
<path d="M504.224,39.6703h 6.4415" fill="none" stroke="black"/>
<path d="M504.224,36.9501h 6.4415" fill="none" stroke="black"/>
<path d="M504.224,34.6502h 6.4415" fill="none" stroke="black"/>
<path d="M57.1929,41.4936v -7.46952" fill="none" stroke="black"/>
<path d="M75.3318,41.4936v -7.46952" fill="none" stroke="black"/>
<path d="M93.4707,41.4936v -7.46952" fill="none" stroke="black"/>
<path d="M111.61,41.4936v -7.46952" fill="none" stroke="black"/>
<path d="M129.749,41.4936v -7.46952" fill="none" stroke="black"/>
<path d="M147.887,41.4936v -7.46952" fill="none" stroke="black"/>
<path d="M166.026,41.4936v -7.46952" fill="none" stroke="black"/>
<path d="M184.165,41.4936v -7.46952" fill="none" stroke="black"/>
<path d="M202.304,41.4936v -7.46952" fill="none" stroke="black"/>
<path d="M220.443,41.4936v -7.46952" fill="none" stroke="black"/>
<path d="M238.582,41.4936v -7.46952" fill="none" stroke="black"/>
<path d="M256.721,41.4936v -7.46952" fill="none" stroke="black"/>
<path d="M274.86,41.4936v -7.46952" fill="none" stroke="black"/>
<path d="M292.999,41.4936v -7.46952" fill="none" stroke="black"/>
<path d="M311.138,41.4936v -7.46952" fill="none" stroke="black"/>
<path d="M329.277,41.4936v -7.46952" fill="none" stroke="black"/>
<path d="M347.415,41.4936v -7.46952" fill="none" stroke="black"/>
<path d="M365.554,41.4936v -7.46952" fill="none" stroke="black"/>
<path d="M383.693,41.4936v -7.46952" fill="none" stroke="black"/>
<path d="M401.832,41.4936v -7.46952" fill="none" stroke="black"/>
<path d="M419.971,41.4936v -7.46952" fill="none" stroke="black"/>
<path d="M438.11,41.4936v -7.46952" fill="none" stroke="black"/>
<path d="M456.249,41.4936v -7.46952" fill="none" stroke="black"/>
<path d="M474.388,41.4936v -7.46952" fill="none" stroke="black"/>
<path d="M492.527,41.4936v -7.46952" fill="none" stroke="black"/>
<path d="M510.666,41.4936v -7.46952" fill="none" stroke="black"/></svg>
