<?xml version="1.0" standalone="no"?>
<svg width="567.429" height="311.778" viewBox="0 0 567.429 311.778" xmlns="http://www.w3.org/2000/svg" shape-rendering="crispEdges">
<title>
Yields/P1/run_0105/det3_Fit.svg
</title>
<desc>
Creator: ROOT Version 6.12/06
CreationDate: Mon Apr 15 10:29:02 2019</desc>
<defs>
</defs>
<rect x="0.5" y="0" width="566.929" height="311.278" fill="white"/>
<rect x="57.1929" y="31.1278" width="453.543" height="249.023" fill="white"/>
<rect x="57.1929" y="31.1278" width="453.543" height="249.023" fill="none" stroke="black"/>
<path d="M57.1929,40.6577h 0.181345v 239.493h 9.42993v -10.3361h 0.181345v 10.3361h 0.181345v -10.3361h 0.181345v 10.3361h 11.4247v -10.3361h 0.36269v 10.3361h 0.906724v -10.3361h 0.36269v 10.3361h 1.6321v -10.3361h 0.181345v 10.3361h 1.08807v
 -10.3361h 0.181345v 10.3361h 1.45076v -10.3361h 0.181345v 10.3361h 0.906724v -20.6722h 0.181345v 20.6722h 0.906724v -10.3361h 0.181345v 10.3361h 0.181345v -10.3361h 0.181345v 10.3361h 0.725379v -20.6722h 0.181345v 20.6722h 0.181345v -26.7184h
 0.36269v -17.9534h 0.181345v -23.077h 0.181345v -10.9575h 0.181345v -11.9906h 0.181345v -6.90612h 0.181345v -5.46365h 0.181345v -3.6216h 0.181345v -1.01327h 0.181345v -0.216117h 0.181345v -1.75874h 0.181345v -1.40043h 0.181345v -1.50152h 0.181345v
 0.690708h 0.181345v -2.22568h 0.181345v 0.271521h 0.181345v -1.11126h 0.181345v -0.0800994h 0.181345v -0.0664224h 0.181345v -0.210585h 0.181345v -0.677055h 0.181345v -0.491373h 0.36269v 0.255951h 0.181345v -0.602336h 0.181345v -0.176056h 0.181345v
 -0.368781h 0.181345v 0.252554h 0.181345v -0.365952h 0.181345v 0.170423h 0.181345v 0.0687181h 0.181345v -0.760857h 0.181345v 0.521717h 0.181345v 0.0226108h 0.181345v 0.849673h 0.181345v -0.366751h 0.181345v -0.939727h 0.181345v 0.132256h 0.181345v
 0.924794h 0.181345v -1.44692h 0.181345v 0.677926h 0.181345v -0.677926h 0.181345v 0.139615h 0.181345v 0.382515h 0.181345v 0.575556h 0.181345v -0.0803254h 0.181345v 0.0918359h 0.181345v -1.03418h 0.181345v 0.703933h 0.181345v 0.226973h 0.181345v
 -0.0684552h 0.181345v 0.229417h 0.181345v 0.386429h 0.181345v -0.455625h 0.181345v 0.82799h 0.181345v 0.786657h 0.181345v -0.847348h 0.181345v 0.442592h 0.181345v -1.07118h 0.181345v 1.19649h 0.181345v 0.0630521h 0.181345v 1.07401h 0.181345v
 -1.24989h 0.181345v -0.873136h 0.181345v -1.99267h 0.181345v -0.655237h 0.181345v -3.359h 0.181345v -1.99415h 0.181345v -3.01989h 0.181345v -3.02403h 0.181345v -2.97524h 0.181345v -2.81312h 0.181345v -2.27239h 0.181345v -2.21552h 0.181345v -1.75123h
 0.181345v -0.730088h 0.181345v -0.195866h 0.181345v -0.0269479h 0.181345v 1.25943h 0.181345v 1.1141h 0.181345v 1.64068h 0.181345v 2.42464h 0.181345v 3.35341h 0.181345v 3.52251h 0.181345v 4.09235h 0.181345v 4.05078h 0.181345v 3.5131h 0.181345v
 3.86826h 0.181345v 3.4075h 0.181345v 1.66054h 0.181345v 2.10374h 0.181345v 0.570227h 0.181345v 1.93064h 0.36269v 0.972568h 0.181345v -0.997993h 0.181345v -0.351473h 0.181345v 1.54082h 0.181345v -1.98087h 0.181345v 1.68127h 0.181345v 0.5493h
 0.181345v -0.974621h 0.181345v -0.259794h 0.181345v 1.12292h 0.181345v -0.165688h 0.181345v -0.539365h 0.181345v 0.539365h 0.181345v 0.588148h 0.181345v 1.25082h 0.181345v -1.27936h 0.181345v 0.522257h 0.181345v -0.522257h 0.181345v 1.06347h
 0.181345v -1.37385h 0.181345v 0.482441h 0.181345v 0.409369h 0.181345v 0.178944h 0.181345v -1.07075h 0.181345v 0.225088h 0.181345v 0.8757h 0.181345v -0.847324h 0.181345v 1.18175h 0.181345v 0.692234h 0.181345v -0.350133h 0.181345v 0.317961h 0.181345v
 0.0321722h 0.181345v 1.63208h 0.181345v 0.290263h 0.181345v -1.09461h 0.181345v 0.37928h 0.181345v 0.678738h 0.181345v -0.109245h 0.181345v -0.144425h 0.181345v 1.55117h 0.181345v -0.889944h 0.181345v 0.341942h 0.181345v -0.0766676h 0.181345v
 -0.672827h 0.181345v 0.672827h 0.181345v -1.24643h 0.181345v 0.0352109h 0.181345v 0.87101h 0.181345v 1.74235h 0.181345v -0.737547h 0.181345v 0.949066h 0.181345v -0.625762h 0.181345v 1.01422h 0.181345v -1.17675h 0.181345v -1.78776h 0.181345v 1.90949h
 0.181345v -0.520465h 0.181345v 1.01757h 0.181345v -0.497106h 0.181345v 1.36432h 0.181345v -1.48605h 0.181345v 0.285597h 0.181345v -1.56288h 0.181345v 2.76332h 0.181345v 0.361516h 0.181345v -2.74921h 0.181345v 1.43647h 0.181345v -0.249228h 0.181345v
 1.20045h 0.181345v -1.20045h 0.181345v 0.460148h 0.181345v 0.474801h 0.181345v 0.581344h 0.181345v -0.315844h 0.181345v -0.825027h 0.181345v 0.127271h 0.181345v 0.388463h 0.181345v 1.32535h 0.181345v -1.41255h 0.181345v -0.470713h 0.181345v 1.69331h
 0.181345v 0.0472641h 0.181345v -2.39976h 0.181345v 2.07202h 0.181345v -0.456054h 0.181345v -1.49456h 0.181345v 1.00851h 0.181345v 0.307471h 0.181345v -0.0884976h 0.181345v -0.218973h 0.181345v -0.172892h 0.181345v -1.51083h 0.181345v -0.60873h
 0.181345v -1.38732h 0.181345v -0.761479h 0.181345v -0.256003h 0.181345v -0.832934h 0.181345v 0.150778h 0.181345v -0.82537h 0.181345v -0.114267h 0.181345v 1.24585h 0.181345v -1.33097h 0.181345v 2.65662h 0.181345v -1.63186h 0.181345v 0.745746h
 0.181345v 2.15597h 0.36269v 1.38815h 0.181345v 0.534826h 0.181345v -0.695601h 0.181345v 1.87174h 0.181345v -0.180205h 0.181345v -0.266289h 0.181345v 1.77286h 0.181345v -0.391152h 0.181345v 0.640937h 0.181345v -1.43956h 0.181345v -0.136598h 0.181345v
 1.32637h 0.181345v 0.814499h 0.181345v 0.696189h 0.181345v -1.80501h 0.181345v -0.33619h 0.181345v 0.981394h 0.181345v 1.26986h 0.181345v -0.327745h 0.181345v -0.373482h 0.181345v 0.812096h 0.181345v -0.653176h 0.181345v -0.0531616h 0.181345v
 -1.89136h 0.181345v 0.330862h 0.181345v 3.0083h 0.181345v -0.629767h 0.181345v -0.604244h 0.181345v 0.604244h 0.181345v -0.277695h 0.181345v -0.6461h 0.181345v -0.052599h 0.181345v 0.26487h 0.181345v -0.26487h 0.181345v -0.965667h 0.181345v 1.12402h
 0.181345v -0.825778h 0.181345v 1.3112h 0.181345v -0.800468h 0.181345v 0.745746h 0.181345v -0.216903h 0.181345v -0.10728h 0.181345v -0.881999h 0.181345v -0.832731h 0.181345v 0.0477178h 0.181345v 0.886111h 0.181345v -0.981394h 0.181345v -0.421398h
 0.181345v -0.183532h 0.181345v 0.416171h 0.181345v -0.140018h 0.181345v -1.66835h 0.181345v 0.378599h 0.181345v 0.171402h 0.181345v -0.424867h 0.181345v 0.511312h 0.181345v 1.40825h 0.181345v -1.70864h 0.181345v 1.4255h 0.181345v -0.685196h
 0.181345v 1.25696h 0.181345v 1.37275h 0.181345v -0.523275h 0.181345v 1.17645h 0.181345v -2.36212h 0.181345v 1.18567h 0.181345v 0.155064h 0.181345v 1.02139h 0.181345v 0.167865h 0.181345v -0.167865h 0.181345v 1.03676h 0.181345v -0.812517h 0.181345v
 -0.716787h 0.181345v -1.53338h 0.181345v 3.12246h 0.181345v -1.64281h 0.181345v 0.107667h 0.181345v 1.6554h 0.181345v -0.649726h 0.181345v 0.71022h 0.181345v -0.939637h 0.181345v -1.66756h 0.181345v 1.38566h 0.181345v 1.04078h 0.181345v -1.26252h
 0.181345v 1.20276h 0.181345v 0.119774h 0.181345v 0.994489h 0.181345v -3.01572h 0.181345v -0.260248h 0.181345v 0.155603h 0.181345v 1.364h 0.181345v -0.2268h 0.181345v 0.0563774h 0.181345v -1.55416h 0.181345v 2.66794h 0.181345v -0.713051h 0.181345v
 0.411792h 0.181345v -1.03676h 0.181345v -0.330164h 0.181345v 0.109245h 0.181345v 2.89522h 0.181345v -2.94994h 0.181345v -0.589053h 0.181345v 0.698699h 0.181345v -0.164168h 0.181345v -1.1012h 0.181345v 3.07685h 0.181345v -1.47762h 0.181345v 0.399193h
 0.181345v -1.0596h 0.181345v 0.944452h 0.181345v 0.644619h 0.181345v -1.96122h 0.181345v -1.11258h 0.181345v 1.53866h 0.181345v -1.19358h 0.181345v 0.558941h 0.181345v 1.69822h 0.181345v -0.344134h 0.181345v 0.40227h 0.181345v -0.288439h 0.181345v
 -0.338919h 0.181345v -0.331387h 0.181345v -1.0033h 0.181345v 0.679114h 0.181345v -0.106513h 0.181345v -0.572601h 0.181345v 1.16807h 0.181345v 1.2074h 0.181345v -2.62864h 0.181345v -0.686849h 0.181345v 1.61914h 0.181345v -0.106513h 0.181345v
 -0.470113h 0.181345v -0.800826h 0.181345v -0.944101h 0.181345v 1.38926h 0.181345v -0.149869h 0.181345v 1.2975h 0.181345v -1.59279h 0.181345v 1.3241h 0.181345v 0.542307h 0.181345v -1.71949h 0.181345v 2.45533h 0.181345v -1.33131h 0.181345v 0.106513h
 0.181345v 0.711524h 0.181345v 2.62932h 0.181345v -3.50033h 0.181345v 0.648442h 0.181345v 0.505533h 0.181345v 0.701862h 0.181345v 0.180751h 0.181345v -0.477219h 0.181345v -0.800059h 0.181345v 0.451908h 0.181345v 0.82537h 0.181345v -0.767906h
 0.181345v -0.114707h 0.181345v 1.06558h 0.181345v -0.423488h 0.181345v 1.17868h 0.181345v 0.458861h 0.181345v -1.57777h 0.181345v 0.926497h 0.181345v -2.78233h 0.181345v 3.23522h 0.181345v -0.324889h 0.181345v -1.0545h 0.181345v 4.03258h 0.181345v
 -3.35883h 0.181345v 0.904023h 0.181345v 0.40487h 0.181345v -0.271131h 0.181345v 0.757807h 0.181345v 1.09965h 0.181345v -0.886111h 0.181345v -0.562777h 0.181345v 0.852335h 0.181345v -0.289559h 0.181345v 0.0718643h 0.181345v -0.0718643h 0.181345v
 3.36336h 0.181345v 0.271955h 0.181345v -2.9006h 0.181345v 1.01268h 0.181345v 0.575182h 0.181345v -1.28353h 0.181345v -0.152943h 0.181345v 0.307471h 0.181345v 0.797613h 0.181345v -0.641467h 0.181345v 1.48417h 0.181345v -2.39742h 0.181345v 1.71949h
 0.181345v 1.11783h 0.181345v -2.83733h 0.181345v 0.298246h 0.181345v 1.0935h 0.181345v 1.44558h 0.181345v -1.28261h 0.181345v -0.162972h 0.181345v 1.44558h 0.181345v -0.782724h 0.181345v -1.68086h 0.181345v 3.28967h 0.181345v -1.35245h 0.181345v
 -1.00005h 0.181345v -1.16255h 0.181345v 1.99119h 0.181345v -0.253465h 0.181345v 1.49684h 0.181345v -0.811114h 0.181345v -1.81472h 0.181345v -0.307471h 0.181345v 1.43647h 0.181345v 0.338919h 0.181345v -0.170423h 0.181345v -0.252037h 0.181345v
 -0.165688h 0.181345v 1.11142h 0.181345v 0.915122h 0.181345v -3.28967h 0.181345v 2.46358h 0.181345v -1.68675h 0.181345v -0.237328h 0.181345v 1.65858h 0.181345v 0.627015h 0.181345v 3.83932h 0.181345v -6.66441h 0.181345v 2.73389h 0.181345v -1.63463h
 0.36269v 2.66993h 0.181345v -0.479521h 0.181345v 0.675732h 0.181345v -0.196211h 0.181345v -3.151h 0.181345v 2.02505h 0.181345v 0.646433h 0.181345v -0.372815h 0.181345v -1.32049h 0.181345v -0.978174h 0.181345v 0.978174h 0.181345v 2.66828h 0.181345v
 -0.880297h 0.181345v -0.650462h 0.181345v -0.968068h 0.181345v -1.68994h 0.181345v 2.21017h 0.181345v 0.723138h 0.181345v -1.74606h 0.181345v 1.29001h 0.181345v 0.271955h 0.181345v 1.33914h 0.181345v 2.3823h 0.181345v -5.03417h 0.181345v 1.68324h
 0.36269v -0.997514h 0.181345v 0.535811h 0.181345v -3.10764h 0.181345v 1.47301h 0.181345v 1.27529h 0.181345v 1.20098h 0.181345v -3.57553h 0.181345v -0.075503h 0.181345v 3.45986h 0.181345v -1.36068h 0.181345v -1.24684h 0.181345v 1.68675h 0.181345v
 -0.439908h 0.181345v 1.07843h 0.181345v -2.79621h 0.181345v 0.793368h 0.181345v 0.924408h 0.181345v -2.39742h 0.181345v -0.292398h 0.181345v 1.0495h 0.181345v -2.02998h 0.181345v 1.05304h 0.181345v -0.71022h 0.181345v -0.544784h 0.181345v -1.82308h
 0.181345v 1.10508h 0.181345v -0.501284h 0.181345v -0.425213h 0.181345v -0.587155h 0.181345v -1.1092h 0.181345v 2.62285h 0.181345v -0.12691h 0.181345v -0.67933h 0.181345v -0.707412h 0.181345v -0.730291h 0.181345v 1.86641h 0.181345v -0.12375h
 0.181345v -1.63261h 0.181345v 0.735836h 0.181345v 1.08278h 0.181345v 0.315272h 0.181345v 0.387341h 0.181345v -1.37361h 0.181345v 0.986264h 0.181345v -1.10508h 0.181345v -0.0590567h 0.181345v 0.601364h 0.181345v 1.48274h 0.181345v -2.83129h 0.181345v
 1.41004h 0.36269v -1.1841h 0.181345v 2.00746h 0.181345v -2.00746h 0.181345v -1.4109h 0.181345v 0.743091h 0.181345v -2.40712h 0.181345v -0.545615h 0.181345v -1.28261h 0.181345v -1.21877h 0.181345v 0.189962h 0.181345v -2.78233h 0.181345v -1.79157h
 0.181345v -0.874202h 0.181345v -2.23789h 0.181345v -0.449862h 0.181345v -1.27347h 0.181345v -0.637184h 0.181345v -1.18008h 0.181345v -1.34245h 0.181345v -0.48577h 0.181345v 0.0798706h 0.181345v -1.00637h 0.181345v 0.0901018h 0.181345v 0.136182h
 0.181345v 0.0152084h 0.181345v -0.241492h 0.181345v 0.974368h 0.181345v 1.61914h 0.181345v 0.0535434h 0.181345v 0.639306h 0.181345v 1.71908h 0.181345v 1.08576h 0.181345v 1.49124h 0.181345v 0.609767h 0.181345v 2.29434h 0.181345v 1.76392h 0.181345v
 1.80751h 0.181345v 0.748702h 0.181345v 2.35941h 0.181345v 0.335111h 0.181345v 4.16131h 0.181345v 0.323479h 0.181345v 2.48513h 0.181345v -2.15448h 0.181345v 1.11023h 0.181345v 1.59515h 0.36269v -0.704626h 0.181345v 3.04343h 0.181345v -1.25837h
 0.181345v 0.34883h 0.181345v -1.18679h 0.181345v 3.36827h 0.181345v -0.795485h 0.181345v 0.897972h 0.181345v 0.311756h 0.181345v -1.96492h 0.181345v -0.979635h 0.181345v 1.73482h 0.181345v 0.693698h 0.181345v -1.07607h 0.181345v 0.974975h 0.181345v
 3.63285h 0.181345v -4.1283h 0.181345v -1.39464h 0.181345v 5.26803h 0.181345v -2.65542h 0.181345v 2.15832h 0.181345v -2.36835h 0.181345v -0.910156h 0.181345v 1.8795h 0.181345v -3.10323h 0.181345v 2.55695h 0.181345v -1.1357h 0.181345v -0.962386h
 0.181345v 2.42345h 0.181345v -0.852335h 0.181345v 0.20856h 0.181345v -1.0148h 0.181345v 0.80624h 0.181345v -0.904023h 0.181345v -0.289559h 0.181345v 1.82822h 0.181345v 0.550314h 0.181345v -1.39064h 0.181345v -0.403046h 0.181345v 2.24904h 0.36269v
 2.24098h 0.181345v -3.1382h 0.181345v 0.554406h 0.181345v -0.335111h 0.181345v 0.448509h 0.181345v -0.55856h 0.181345v -1.56015h 0.181345v 1.89277h 0.181345v -1.08104h 0.181345v 0.96934h 0.36269v 0.451908h 0.181345v -0.340208h 0.181345v 1.78441h
 0.181345v -0.618836h 0.181345v 1.39702h 0.181345v -4.05502h 0.181345v 2.658h 0.181345v -0.477219h 0.181345v -0.462419h 0.181345v 3.44174h 0.181345v -2.25764h 0.181345v -3.10398h 0.181345v 4.52523h 0.181345v 0.836395h 0.181345v -2.38037h 0.181345v
 -0.83195h 0.181345v 1.20322h 0.181345v 1.30889h 0.181345v -1.68016h 0.181345v -1.06137h 0.181345v 1.30785h 0.181345v -2.0841h 0.181345v 0.438614h 0.181345v 5.44639h 0.181345v -2.36723h 0.181345v -2.27911h 0.181345v 1.74169h 0.181345v 1.38171h
 0.181345v -1.38171h 0.181345v -1.02001h 0.181345v -2.38643h 0.181345v 1.5478h 0.181345v 0.838636h 0.181345v 1.15256h 0.181345v -1.99119h 0.181345v 2.12493h 0.181345v -0.527907h 0.181345v 0.394168h 0.181345v -2.22239h 0.181345v 0.11515h 0.181345v
 0.83195h 0.181345v -2.15832h 0.181345v -0.105384h 0.181345v 1.43175h 0.181345v -2.44655h 0.181345v -2.0157h 0.181345v -0.670307h 0.181345v -4.31033h 0.181345v 1.68748h 0.181345v -1.74872h 0.181345v -1.17477h 0.181345v -1.19358h 0.181345v -2.79675h
 0.181345v -2.53755h 0.181345v -0.746635h 0.181345v -1.67135h 0.181345v -0.517929h 0.181345v -1.80286h 0.181345v -2.10025h 0.181345v -0.653835h 0.181345v -1.10508h 0.181345v -0.324183h 0.181345v -0.818893h 0.181345v -1.73526h 0.181345v 0.959009h
 0.181345v -2.11227h 0.181345v 0.786281h 0.181345v -0.518161h 0.181345v 0.567674h 0.181345v 1.07967h 0.181345v -0.643525h 0.181345v 1.52202h 0.181345v 0.45945h 0.181345v 1.10957h 0.181345v 1.08576h 0.181345v 1.26886h 0.181345v 0.962386h 0.181345v
 2.01364h 0.181345v 1.88039h 0.181345v 0.413287h 0.181345v 2.13658h 0.181345v 2.2116h 0.181345v 3.45658h 0.181345v 1.81541h 0.181345v 1.32172h 0.181345v 2.35941h 0.181345v 0.257847h 0.181345v 2.44386h 0.181345v 1.96204h 0.181345v 2.5335h 0.181345v
 2.55397h 0.181345v -0.641467h 0.181345v 3.72515h 0.181345v 0.617128h 0.181345v 1.3166h 0.181345v -1.73085h 0.181345v -0.600557h 0.181345v 3.2785h 0.181345v -1.17477h 0.181345v 2.18612h 0.181345v -2.18612h 0.181345v 2.18612h 0.181345v -1.49243h
 0.181345v 1.49243h 0.181345v -3.06354h 0.181345v 2.8042h 0.36269v 0.523275h 0.181345v -2.22239h 0.181345v -0.672827h 0.181345v 0.672827h 0.181345v -0.890522h 0.181345v 0.662856h 0.181345v 1.67187h 0.181345v 0.514251h 0.181345v -1.95846h 0.181345v
 0.466032h 0.36269v -2.79743h 0.181345v 0.600557h 0.181345v 3.17505h 0.181345v -2.33473h 0.181345v 0.662856h 0.181345v 0.458861h 0.181345v 1.72726h 0.181345v -1.49243h 0.181345v -0.91794h 0.181345v 1.39901h 0.181345v -1.39901h 0.181345v -0.864695h
 0.181345v 3.01572h 0.181345v 1.06558h 0.181345v -1.57112h 0.181345v -2.29867h 0.181345v -1.61366h 0.181345v 3.66584h 0.36269v 2.09633h 0.181345v -6.13971h 0.181345v 0.764876h 0.181345v 1.44088h 0.181345v 0.217695h 0.181345v -0.643775h 0.181345v
 3.80768h 0.181345v -2.94299h 0.181345v 0.451908h 0.181345v -1.93373h 0.181345v 4.15612h 0.181345v -4.15612h 0.181345v 0.617128h 0.181345v 1.78263h 0.181345v 2.29867h 0.181345v -3.2166h 0.181345v 2.94299h 0.181345v -4.22192h 0.181345v -1.55067h
 0.181345v 4.98064h 0.181345v -1.92678h 0.181345v -0.877418h 0.181345v 0.877418h 0.181345v -2.10374h 0.181345v 0.80624h 0.181345v 1.75636h 0.181345v 0.962386h 0.181345v -1.42125h 0.181345v -3.94704h 0.181345v 6.13317h 0.181345v -1.01136h 0.181345v
 -2.88083h 0.181345v 1.2609h 0.181345v 1.86641h 0.181345v -1.19358h 0.181345v -0.890522h 0.181345v 0.662856h 0.181345v -0.445162h 0.181345v -1.65858h 0.181345v 0.19751h 0.181345v 0.81729h 0.181345v 1.3166h 0.181345v -0.227666h 0.181345v -1.90623h
 0.181345v -0.19751h 0.181345v 5.0961h 0.181345v -2.5335h 0.181345v -3.51272h 0.181345v 4.98064h 0.181345v -4.03052h 0.36269v 1.22632h 0.181345v 1.80971h 0.181345v -3.42337h 0.181345v 3.18478h 0.181345v 2.02505h 0.181345v -4.82248h 0.181345v 4.28986h
 0.181345v -0.764876h 0.181345v -0.246482h 0.181345v -4.04338h 0.181345v 7.93128h 0.181345v -2.0703h 0.181345v -2.99236h 0.181345v -2.29867h 0.181345v 3.23096h 0.181345v 0.242474h 0.181345v -1.61993h 0.181345v 4.0003h 0.181345v -4.218h 0.181345v
 5.72552h 0.181345v -3.8879h 0.181345v -2.05218h 0.181345v 1.57112h 0.181345v 1.49243h 0.181345v 1.65858h 0.181345v -4.06894h 0.181345v 2.94299h 0.181345v -0.791964h 0.181345v -3.01572h 0.181345v 5.22893h 0.181345v -2.21321h 0.181345v -0.505533h
 0.181345v 0.505533h 0.181345v -2.15102h 0.181345v 6.61328h 0.181345v -5.69534h 0.181345v 0.978174h 0.181345v -0.73958h 0.181345v 3.81643h 0.181345v -5.19388h 0.181345v 4.28986h 0.181345v -3.61703h 0.181345v 0.231195h 0.181345v 1.46792h 0.181345v
 0.523275h 0.36269v -1.99119h 0.181345v -1.75636h 0.181345v 2.47226h 0.181345v 1.54398h 0.181345v 0.836395h 0.181345v 0.584852h 0.181345v 0.60873h 0.181345v -2.82194h 0.181345v 2.21321h 0.181345v -3.2077h 0.181345v 3.81643h 0.181345v -0.60873h
 0.181345v 3.32747h 0.181345v -3.32747h 0.181345v 0.301259h 0.181345v -1.72251h 0.181345v 1.72251h 0.181345v 1.26986h 0.181345v -0.327745h 0.181345v 0.327745h 0.181345v 3.74755h 0.181345v -3.06963h 0.181345v -1.32637h 0.181345v 1.67725h 0.181345v
 1.8901h 0.181345v 4.15612h 0.181345v -4.55379h 0.181345v -0.387341h 0.181345v -3.09628h 0.181345v 7.0086h 0.181345v -7.61733h 0.181345v 2.24904h 0.181345v 3.06963h 0.181345v -3.74755h 0.181345v 5.08383h 0.181345v -1.75636h 0.36269v -1.93933h
 0.181345v 1.13309h 0.181345v 7.4871h 0.181345v -4.45107h 0.181345v -0.473431h 0.181345v -1.33628h 0.181345v 0.877418h 0.181345v 1.42125h 0.181345v -1.86641h 0.181345v 2.37194h 0.181345v 3.45658h 0.181345v -5.82852h 0.181345v 7.91263h 0.181345v
 -7.91263h 0.181345v 0.445162h 0.181345v 3.55514h 0.181345v 5.48344h 0.181345v -4.89859h 0.181345v 0.60873h 0.181345v -2.82194h 0.181345v -6.55175h 0.181345v 12.8573h 0.181345v -1.49243h 0.181345v -1.35655h 0.36269v 0.662856h 0.181345v 7.845h
 0.181345v -9.75123h 0.181345v 5.75093h 0.181345v -6.33578h 0.181345v 3.91233h 0.181345v -3.91233h 0.181345v 3.91233h 0.181345v -2.71874h 0.181345v -1.75636h 0.181345v -2.06007h 0.181345v 5.80762h 0.181345v 9.64238h 0.181345v -12.8272h 0.181345v
 7.2398h 0.181345v -4.05502h 0.181345v 4.05502h 0.181345v -7.2398h 0.181345v 11.5297h 0.181345v -4.28986h 0.181345v -3.32747h 0.181345v 3.32747h 0.181345v -0.904023h 0.181345v -4.50755h 0.181345v 0.662856h 0.181345v 6.73992h 0.181345v -1.99119h
 0.181345v 4.28986h 0.181345v -10.9448h 0.181345v 9.75123h 0.181345v -4.85264h 0.181345v -2.29867h 0.181345v 4.05502h 0.36269v -5.41158h 0.181345v -4.45107h 0.181345v 5.80762h 0.181345v 11.0636h 0.181345v -1.42125h 0.181345v -8.14995h 0.181345v
 -3.48362h 0.36269v 1.2975h 0.181345v -2.49108h 0.181345v -4.43256h 0.181345v 9.10976h 0.181345v -5.78229h 0.181345v -6.04622h 0.181345v 6.58853h 0.181345v -7.61733h 0.36269v 1.38815h 0.181345v -0.71022h 0.181345v -1.00567h 0.181345v -0.634641h
 0.181345v 3.88129h 0.181345v -8.17115h 0.181345v 3.68113h 0.181345v 1.57112h 0.181345v -4.28986h 0.181345v -0.246482h 0.181345v -0.715904h 0.181345v -1.12172h 0.181345v 1.83762h 0.181345v 3.26648h 0.181345v -4.66549h 0.181345v -0.864695h 0.181345v
 1.5478h 0.181345v 0.962386h 0.181345v 1.57112h 0.181345v 0.852335h 0.181345v 2.20152h 0.181345v -4.62497h 0.181345v 2.42345h 0.181345v -1.39464h 0.181345v 3.59616h 0.181345v -0.983553h 0.181345v -0.922674h 0.181345v 1.57112h 0.181345v 7.07503h
 0.181345v -1.51776h 0.181345v 1.51776h 0.36269v 0.542307h 0.181345v 1.75636h 0.181345v 1.2975h 0.181345v -4.62497h 0.181345v 5.31867h 0.181345v -2.59992h 0.181345v 3.32747h 0.181345v -7.46747h 0.181345v 10.7949h 0.181345v -4.05502h 0.181345v
 -8.84365h 0.181345v 1.65858h 0.181345v 3.43752h 0.181345v -0.542307h 0.181345v -7.72347h 0.181345v -3.13589h 0.181345v 8.4093h 0.181345v -9.40379h 0.181345v 2.3388h 0.181345v -5.37483h 0.181345v 1.44088h 0.181345v -3.45658h 0.181345v 0.523275h
 0.181345v -1.83505h 0.181345v -3.10609h 0.181345v -2.78233h 0.181345v 3.7023h 0.181345v -0.662856h 0.181345v -2.28013h 0.181345v -2.07442h 0.181345v 0.293357h 0.181345v -2.36904h 0.181345v 0.427302h 0.181345v -2.76203h 0.181345v 0.217695h 0.181345v
 -0.852335h 0.181345v 0.491257h 0.181345v 1.2651h 0.181345v -2.29867h 0.181345v 0.201061h 0.181345v -0.979245h 0.181345v 0.0633199h 0.181345v -0.8029h 0.181345v -0.589476h 0.181345v -0.787977h 0.36269v 0.845887h 0.181345v -1.11751h 0.181345v 1.11751h
 0.181345v -1.38428h 0.181345v -0.0527852h 0.181345v -0.157244h 0.181345v -0.811727h 0.181345v 0.148871h 0.181345v -0.296271h 0.181345v -0.145957h 0.181345v -0.523275h 0.181345v -1.84439h 0.181345v -0.646684h 0.181345v 1.54038h 0.181345v -0.934949h
 0.181345v 2.07381h 0.181345v -1.65608h 0.544034v 0.429765h 0.181345v 0.944956h 0.181345v 0.0931991h 0.181345v 0.474939h 0.181345v 1.52294h 0.181345v -0.627958h 0.181345v 0.363088h 0.181345v 0.809157h 0.181345v 2.4659h 0.181345v 1.2975h 0.181345v
 1.03391h 0.181345v 0.62467h 0.181345v 1.24684h 0.181345v -0.677926h 0.181345v 4.73837h 0.181345v 0.699119h 0.181345v 2.45858h 0.181345v 3.46882h 0.181345v -1.19358h 0.181345v 2.1087h 0.181345v 4.60782h 0.181345v -1.92678h 0.181345v 4.74872h
 0.181345v -0.60873h 0.181345v 5.31867h 0.181345v 1.80971h 0.181345v -0.932292h 0.181345v 2.45006h 0.181345v -0.523275h 0.181345v 4.11944h 0.181345v 2.99236h 0.181345v 6.04622h 0.181345v 1.2975h 0.181345v 11.7573h 0.181345v -5.01741h 0.181345v
 -10.3361h 0.181345v 1.10508h 0.181345v 5.48344h 0.36269v -1.57112h 0.181345v 7.61733h 0.181345v 6.04622h 0.181345v -10.3361h 0.181345v 7.0086h 0.181345v -8.76496h 0.181345v 8.76496h 0.181345v 3.32747h 0.181345v -10.3361h 0.181345v -1.75636h
 0.181345v 1.75636h 0.181345v 1.99119h 0.181345v 2.29867h 0.181345v 16.3823h 0.181345v -18.681h 0.181345v 5.01741h 0.181345v -8.76496h 0.181345v 6.04622h 0.181345v -4.28986h 0.181345v 7.0086h 0.36269v 13.6636h 0.36269v -6.04622h 0.181345v -12.6347h
 0.181345v 12.6347h 0.181345v -4.28986h 0.181345v -6.04622h 0.181345v 16.3823h 0.181345v -18.681h 0.36269v 8.34488h 0.36269v 4.28986h 0.181345v -4.28986h 0.181345v 10.3361h 0.181345v -13.6636h 0.181345v -8.76496h 0.181345v 12.0924h 0.181345v 20.6722h
 0.181345v -16.3823h 0.181345v -19.3747h 0.181345v 11.7573h 0.181345v 3.32747h 0.181345v -17.5759h 0.181345v 9.23099h 0.181345v -3.74755h 0.181345v 22.4285h 0.181345v -22.4285h 0.181345v 1.75636h 0.181345v 14.6259h 0.181345v -12.6347h 0.181345v
 2.29867h 0.181345v -2.29867h 0.181345v 8.34488h 0.181345v -15.0848h 0.181345v 19.3747h 0.181345v -17.9534h 0.181345v 1.57112h 0.181345v 6.04622h 0.181345v -2.29867h 0.181345v 12.6347h 0.181345v -14.6259h 0.181345v 10.3361h 0.181345v -3.32747h
 0.544034v -7.0086h 0.181345v 1.99119h 0.181345v -5.31867h 0.181345v 10.3361h 0.36269v -2.71874h 0.181345v -7.61733h 0.181345v 5.31867h 0.181345v -5.31867h 0.181345v -5.01741h 0.181345v 3.59616h 0.181345v 2.99236h 0.36269v -10.3361h 0.181345v
 3.74755h 0.181345v -4.55379h 0.181345v 9.5712h 0.181345v -6.04622h 0.181345v -4.28986h 0.181345v 1.57112h 0.181345v 2.71874h 0.181345v -3.52498h 0.181345v 1.65858h 0.181345v 4.0003h 0.181345v -6.42375h 0.181345v 6.42375h 0.181345v -10.3361h
 0.181345v -3.09628h 0.181345v 4.9245h 0.36269v -1.24337h 0.181345v 0.60873h 0.36269v 5.1422h 0.181345v -1.65858h 0.181345v -2.84898h 0.181345v 12.4202h 0.181345v -7.0086h 0.181345v -1.75636h 0.181345v 1.75636h 0.181345v -0.904023h 0.181345v 2.89522h
 0.181345v 1.10508h 0.181345v 5.48344h 0.181345v 6.04622h 0.181345v 2.71874h 0.181345v -8.76496h 0.181345v 1.75636h 0.181345v 31.0082h 0.181345v -34.3357h 0.181345v 13.6636h 0.181345v -12.0924h 0.181345v 6.04622h 0.181345v -6.04622h 0.181345v
 8.76496h 0.181345v -5.01741h 0.181345v 5.01741h 0.36269v -5.01741h 0.181345v 8.34488h 0.181345v -3.32747h 0.181345v 3.32747h 0.181345v -10.3361h 0.181345v 10.3361h 0.181345v -3.32747h 0.181345v 7.61733h 0.181345v -4.28986h 0.181345v -6.04622h
 0.181345v 6.04622h 0.181345v 10.3361h 0.181345v -6.04622h 0.181345v 6.04622h 0.181345v 20.6722h 0.181345v -34.3357h 0.181345v 7.61733h 0.181345v -4.28986h 0.36269v 4.28986h 0.181345v -12.6347h 0.181345v 2.29867h 0.181345v 2.71874h 0.181345v 3.32747h
 0.181345v 31.0082h 0.181345v -34.3357h 0.181345v 7.61733h 0.181345v -4.28986h 0.36269v -8.34488h 0.181345v 29.017h 0.181345v -16.3823h 0.181345v -14.6259h 0.181345v 4.28986h 0.181345v 10.3361h 0.181345v -7.61733h 0.181345v 7.61733h 0.181345v
 -4.28986h 0.181345v -6.04622h 0.181345v 2.71874h 0.36269v 23.9996h 0.181345v -34.3357h 0.181345v 13.6636h 0.36269v 10.3361h 0.181345v -16.3823h 0.181345v 6.04622h 0.181345v -3.32747h 0.181345v -2.71874h 0.181345v 10.3361h 0.181345v -4.28986h
 0.181345v -10.3361h 0.181345v 10.3361h 0.181345v -6.04622h 0.181345v -2.29867h 0.181345v 5.01741h 0.181345v 7.61733h 0.181345v -14.6259h 0.36269v 10.3361h 0.181345v -10.3361h 0.181345v 1.99119h 0.181345v -5.31867h 0.181345v 17.9534h 0.181345v
 -14.6259h 0.181345v 1.99119h 0.181345v -3.74755h 0.181345v -2.99236h 0.181345v 11.7573h 0.181345v -17.3447h 0.181345v 14.6259h 0.36269v -6.04622h 0.181345v -7.61733h 0.181345v 7.61733h 0.181345v -4.28986h 0.181345v -1.19358h 0.36269v 3.91233h
 0.181345v -2.71874h 0.181345v 10.3361h 0.36269v -11.5297h 0.181345v 5.48344h 0.181345v 12.0924h 0.181345v -18.681h 0.181345v 15.3535h 0.181345v -13.0548h 0.181345v 4.28986h 0.181345v -1.57112h 0.36269v 5.31867h 0.181345v -1.99119h 0.181345v
 -1.75636h 0.181345v 3.74755h 0.181345v -5.31867h 0.181345v 5.31867h 0.36269v -6.73992h 0.181345v 4.74872h 0.36269v 7.0086h 0.181345v 3.32747h 0.181345v -12.0924h 0.181345v 3.74755h 0.181345v 2.29867h 0.181345v -6.04622h 0.181345v 6.04622h 0.181345v
 -9.03858h 0.181345v 1.42125h 0.181345v 5.31867h 0.36269v 2.29867h 0.181345v -10.3361h 0.181345v 26.7184h 0.181345v -13.6636h 0.181345v -5.01741h 0.181345v 8.34488h 0.181345v -3.32747h 0.36269v 3.32747h 0.181345v -8.34488h 0.181345v -1.99119h
 0.181345v 10.3361h 0.181345v -8.34488h 0.181345v 2.29867h 0.181345v 2.71874h 0.181345v -7.0086h 0.181345v 4.28986h 0.181345v -6.04622h 0.181345v 3.74755h 0.181345v 2.29867h 0.36269v -4.28986h 0.36269v -3.32747h 0.36269v -1.42125h 0.181345v 9.03858h
 0.181345v -12.6347h 0.181345v 18.681h 0.181345v -22.4285h 0.181345v 14.0836h 0.181345v -3.74755h 0.36269v 1.75636h 0.181345v 4.28986h 0.181345v -12.6347h 0.181345v 22.9708h 0.181345v -10.3361h 0.181345v -4.28986h 0.181345v -1.75636h 0.181345v
 12.0924h 0.181345v -15.0848h 0.181345v 4.74872h 0.181345v 10.3361h 0.181345v -13.6636h 0.181345v 1.57112h 0.181345v 1.75636h 0.181345v 10.3361h 0.181345v -15.0848h 0.181345v 1.42125h 0.181345v 1.57112h 0.181345v -2.99236h 0.181345v 4.74872h 0.36269v
 -4.74872h 0.181345v -3.59616h 0.181345v 6.58853h 0.181345v 1.75636h 0.181345v -3.32747h 0.181345v -2.71874h 0.181345v 1.2975h 0.181345v -2.49108h 0.181345v 1.19358h 0.181345v -3.32747h 0.181345v 7.61733h 0.181345v -4.28986h 0.36269v -2.29867h
 0.181345v 1.10508h 0.181345v 5.48344h 0.181345v -5.48344h 0.181345v 14.2484h 0.181345v -8.76496h 0.181345v 3.74755h 0.181345v -17.076h 0.181345v 6.73992h 0.181345v 1.10508h 0.181345v -4.85264h 0.181345v 3.74755h 0.181345v -1.02881h 0.181345v
 7.61733h 0.181345v -10.3361h 0.181345v -0.80624h 0.181345v 14.8899h 0.181345v -5.31867h 0.181345v -11.0636h 0.181345v 8.34488h 0.181345v -6.04622h 0.181345v 2.71874h 0.181345v -2.71874h 0.181345v -2.29867h 0.181345v 2.29867h 0.181345v -0.80624h
 0.181345v 1.65858h 0.181345v 0.904023h 0.181345v 7.0086h 0.181345v -8.76496h 0.181345v -0.80624h 0.181345v 11.1423h 0.181345v 3.74755h 0.181345v -6.73992h 0.181345v -2.49108h 0.181345v -5.65888h 0.181345v 3.52498h 0.181345v 2.13389h 0.181345v
 -2.13389h 0.36269v 1.02881h 0.181345v -1.99119h 0.36269v -4.05502h 0.181345v 9.64238h 0.181345v -8.91483h 0.181345v 4.28986h 0.181345v 7.61733h 0.181345v -10.3361h 0.181345v -1.57112h 0.181345v 13.6636h 0.181345v -16.3823h 0.181345v 5.1422h
 0.181345v -1.65858h 0.181345v -0.764876h 0.181345v -5.01741h 0.181345v 8.34488h 0.181345v -5.41158h 0.181345v 9.70144h 0.181345v -4.28986h 0.181345v 1.99119h 0.181345v -8.03741h 0.181345v 1.99119h 0.181345v 6.04622h 0.181345v -11.8538h 0.181345v
 5.80762h 0.181345v -2.59992h 0.181345v 2.59992h 0.181345v 3.151h 0.181345v -5.1422h 0.181345v 7.0086h 0.181345v -8.76496h 0.181345v 8.76496h 0.181345v -0.962386h 0.181345v -4.74872h 0.181345v -1.90623h 0.181345v 9.75123h 0.181345v -1.10508h
 0.181345v -7.40277h 0.181345v -2.391h 0.181345v -3.86978h 0.181345v 9.10976h 0.181345v -1.49243h 0.181345v -4.81314h 0.181345v 1.62836h 0.181345v 3.18478h 0.181345v -6.28105h 0.181345v 7.77348h 0.181345v -6.81109h 0.181345v 1.02881h 0.181345v
 1.10508h 0.36269v -4.85264h 0.181345v 1.75636h 0.181345v 4.28986h 0.181345v -4.28986h 0.181345v -2.5626h 0.181345v 3.03603h 0.181345v -0.473431h 0.181345v -1.33628h 0.181345v 0.432257h 0.181345v -1.65858h 0.181345v 1.22632h 0.181345v 0.432257h
 0.181345v 4.0003h 0.181345v -6.79196h 0.181345v 3.23682h 0.181345v 8.23234h 0.181345v -3.48362h 0.181345v -0.60873h 0.181345v -4.13999h 0.181345v 2.99236h 0.181345v -5.86098h 0.181345v -0.368212h 0.181345v 6.22919h 0.181345v -5.0961h 0.181345v
 2.10374h 0.181345v 5.38336h 0.181345v -6.26078h 0.181345v 6.92364h 0.181345v -3.05386h 0.181345v -1.06558h 0.181345v -0.994489h 0.181345v -5.88501h 0.181345v 9.09271h 0.181345v -4.13999h 0.181345v -1.2975h 0.181345v 2.22979h 0.181345v 5.11393h
 0.181345v -4.11944h 0.181345v 2.82194h 0.181345v -3.81643h 0.36269v -0.473431h 0.181345v 4.28986h 0.181345v -2.82194h 0.181345v 6.30556h 0.181345v -5.23998h 0.181345v -1.57112h 0.181345v 5.31867h 0.181345v 6.04622h 0.181345v -1.02881h 0.181345v
 -6.37396h 0.181345v -0.634641h 0.181345v 4.28986h 0.181345v -3.65522h 0.36269v -1.24337h 0.181345v 8.64614h 0.181345v -2.89522h 0.181345v -5.75093h 0.36269v 3.32747h 0.181345v 2.42345h 0.181345v -3.151h 0.181345v 11.0636h 0.181345v -6.04622h
 0.181345v -7.0086h 0.181345v 10.3361h 0.181345v -3.32747h 0.36269v -8.20219h 0.181345v -0.562777h 0.181345v 1.75636h 0.181345v 6.04622h 0.181345v -0.904023h 0.181345v -2.42345h 0.181345v 0.764876h 0.181345v -0.764876h 0.181345v -2.71874h 0.181345v
 3.48362h 0.181345v -1.49243h 0.181345v -3.18478h 0.181345v 2.49108h 0.181345v -1.2975h 0.181345v 2.71874h 0.181345v 0.764876h 0.181345v 0.80624h 0.181345v -0.80624h 0.181345v 4.55379h 0.181345v -3.74755h 0.36269v -1.57112h 0.181345v 3.32747h
 0.181345v 7.0086h 0.181345v -8.76496h 0.181345v -2.29867h 0.181345v -0.693698h 0.181345v 0.693698h 0.181345v 3.151h 0.181345v -1.65858h 0.181345v -4.09235h 0.181345v 4.09235h 0.181345v 1.65858h 0.36269v 2.89522h 0.181345v -6.73992h 0.181345v
 10.3361h 0.181345v -7.34372h 0.181345v -1.57112h 0.181345v -5.01741h 0.181345v 10.3361h 0.181345v -4.55379h 0.181345v 3.52498h 0.181345v -4.28986h 0.181345v 0.764876h 0.181345v 0.80624h 0.181345v -0.80624h 0.181345v -5.23998h 0.181345v 9.79377h
 0.181345v -8.03741h 0.181345v 1.99119h 0.181345v 2.29867h 0.36269v -3.65522h 0.181345v 5.41158h 0.181345v -7.2398h 0.181345v 3.91233h 0.181345v 7.61733h 0.181345v -2.29867h 0.181345v -1.99119h 0.181345v -5.41158h 0.181345v -1.24337h 0.181345v
 6.65495h 0.181345v -6.04622h 0.181345v -1.19358h 0.36269v -3.09628h 0.181345v 1.46792h 0.181345v 7.1118h 0.36269v -4.28986h 0.544034v -3.81643h 0.181345v 2.62285h 0.181345v 8.20219h 0.181345v -7.0086h 0.181345v -5.19388h 0.181345v 4.58515h 0.181345v
 1.24337h 0.181345v 0.662856h 0.181345v -1.2975h 0.181345v -2.82194h 0.181345v 6.30556h 0.181345v 6.85246h 0.181345v -13.6636h 0.181345v 6.04622h 0.181345v -7.0086h 0.181345v 4.9245h 0.181345v 2.0841h 0.181345v -3.32747h 0.181345v 7.61733h 0.181345v
 -4.28986h 0.181345v -3.32747h 0.181345v 4.09235h 0.181345v 1.65858h 0.181345v -9.89092h 0.181345v 1.92678h 0.181345v 2.82194h 0.181345v -2.82194h 0.181345v 7.96414h 0.36269v 4.0003h 0.181345v -5.65888h 0.181345v -2.84898h 0.181345v -1.24337h
 0.181345v 5.75093h 0.181345v -7.44086h 0.181345v 1.68994h 0.181345v 4.89859h 0.181345v -1.57112h 0.181345v 0.764876h 0.181345v 1.65858h 0.36269v -0.852335h 0.181345v 0.852335h 0.181345v -3.151h 0.181345v -4.28986h 0.181345v 5.78229h 0.181345v
 -4.09235h 0.181345v 0.60873h 0.181345v -4.28986h 0.181345v 3.68113h 0.181345v 4.09235h 0.181345v 0.80624h 0.181345v -6.58853h 0.181345v -3.32747h 0.181345v 10.7683h 0.181345v -3.8447h 0.36269v 0.693698h 0.181345v -1.99119h 0.181345v -3.81643h
 0.181345v 3.2077h 0.181345v 1.24337h 0.181345v -2.93331h 0.181345v 1.10508h 0.181345v 5.48344h 0.181345v -7.61733h 0.181345v 0.505533h 0.181345v -1.46792h 0.181345v -0.458861h 0.181345v 2.45006h 0.181345v 1.68994h 0.181345v -1.14763h 0.181345v
 -2.5335h 0.181345v 0.962386h 0.181345v -1.86641h 0.181345v 5.82852h 0.181345v -2.93331h 0.181345v 1.68994h 0.181345v -2.21321h 0.181345v 6.30556h 0.181345v -7.77348h 0.181345v 0.473431h 0.181345v 2.06007h 0.181345v 3.05386h 0.181345v 5.71111h
 0.181345v -10.3361h 0.181345v 12.47h 0.181345v -11.4412h 0.181345v 5.01741h 0.181345v -5.01741h 0.181345v -4.94113h 0.181345v 3.91233h 0.181345v 2.71874h 0.181345v 1.90623h 0.181345v -3.59616h 0.181345v 0.542307h 0.181345v 1.14763h 0.181345v
 4.09235h 0.181345v -6.81109h 0.181345v -0.488956h 0.181345v 8.10629h 0.181345v -6.04622h 0.181345v -3.43752h 0.181345v 0.904023h 0.181345v 1.46792h 0.181345v 3.45658h 0.181345v -1.24337h 0.181345v 4.09235h 0.181345v -5.23998h 0.181345v 5.23998h
 0.181345v -1.49243h 0.181345v 7.1513h 0.181345v -5.65888h 0.181345v -4.6772h 0.181345v 6.33578h 0.181345v 1.86641h 0.181345v 2.13389h 0.181345v -3.09628h 0.181345v -3.32747h 0.181345v -1.42125h 0.181345v 4.74872h 0.36269v 0.962386h 0.181345v
 -3.52498h 0.181345v -0.764876h 0.181345v 1.57112h 0.181345v 6.04622h 0.181345v -6.04622h 0.181345v -2.99236h 0.181345v 5.71111h 0.181345v -3.52498h 0.181345v -2.84898h 0.181345v -1.24337h 0.36269v 3.32747h 0.181345v -1.42125h 0.181345v 0.693698h
 0.181345v -2.59992h 0.181345v -0.584852h 0.181345v 2.49108h 0.181345v 2.99236h 0.181345v 0.852335h 0.181345v 0.904023h 0.181345v -8.86816h 0.181345v 4.11944h 0.36269v -0.662856h 0.181345v 8.50786h 0.181345v -8.50786h 0.181345v -1.24337h 0.181345v
 1.90623h 0.181345v -2.49108h 0.181345v 6.33578h 0.181345v 0.904023h 0.181345v -3.32747h 0.181345v -2.71874h 0.181345v 7.0086h 0.181345v -5.01741h 0.181345v 0.72755h 0.181345v -2.71874h 0.181345v 0.634641h 0.181345v 0.662856h 0.544034v -2.49108h
 0.181345v 2.49108h 0.181345v 4.74872h 0.181345v 0.962386h 0.181345v -4.28986h 0.181345v 4.28986h 0.181345v 3.32747h 0.181345v -6.85246h 0.181345v 0.80624h 0.181345v 8.76496h 0.181345v -6.04622h 0.544034v 3.32747h 0.181345v 8.03741h 0.181345v
 2.29867h 0.181345v -16.3823h 0.181345v 0.852335h 0.181345v 6.49138h 0.181345v -3.59616h 0.181345v 3.59616h 0.181345v -9.64238h 0.181345v 12.6347h 0.181345v -1.57112h 0.181345v -8.76496h 0.181345v 4.85264h 0.181345v 3.91233h 0.181345v -9.5712h
 0.181345v 12.8987h 0.544034v -6.04622h 0.181345v 13.0548h 0.181345v -11.7573h 0.181345v -1.2975h 0.181345v 10.3361h 0.181345v -13.6636h 0.181345v 11.3649h 0.181345v -5.31867h 0.36269v 1.57112h 0.181345v 3.74755h 0.181345v 2.29867h 0.181345v
 -6.04622h 0.36269v -1.57112h 0.181345v 3.32747h 0.181345v -8.34488h 0.181345v 8.34488h 0.181345v 1.99119h 0.181345v -10.3361h 0.181345v 8.34488h 0.181345v 7.0086h 0.181345v -8.76496h 0.181345v -2.99236h 0.181345v 2.99236h 0.181345v -2.99236h
 0.181345v 4.74872h 0.181345v -11.2401h 0.181345v 7.91263h 0.181345v -2.71874h 0.181345v 10.3361h 0.181345v -11.5297h 0.181345v 2.49108h 0.181345v 9.03858h 0.181345v -6.04622h 0.181345v 6.04622h 0.181345v -2.29867h 0.181345v 2.29867h 0.181345v
 -2.29867h 0.181345v -12.3273h 0.181345v 5.58736h 0.181345v -1.2975h 0.181345v 4.28986h 0.181345v -2.99236h 0.181345v -4.62497h 0.181345v 4.62497h 0.181345v -1.2975h 0.181345v 10.3361h 0.181345v -10.3361h 0.181345v 1.2975h 0.36269v -3.59616h
 0.181345v -1.99119h 0.181345v 5.58736h 0.181345v -4.62497h 0.181345v 4.62497h 0.181345v 2.99236h 0.181345v -2.99236h 0.36269v -2.49108h 0.181345v 9.23099h 0.181345v 2.29867h 0.181345v -11.5297h 0.181345v -3.09628h 0.181345v 1.99119h 0.181345v
 15.3535h 0.181345v -7.0086h 0.181345v -8.34488h 0.181345v -1.02881h 0.181345v 3.32747h 0.181345v 2.71874h 0.181345v -6.04622h 0.181345v 7.61733h 0.181345v -4.28986h 0.36269v 8.03741h 0.181345v -9.23099h 0.181345v 9.23099h 0.181345v -14.0836h
 0.181345v 6.04622h 0.181345v 4.28986h 0.181345v -10.3361h 0.181345v 1.75636h 0.181345v 17.3447h 0.181345v -14.2484h 0.181345v -1.10508h 0.181345v 1.10508h 0.181345v 2.49108h 0.181345v -2.49108h 0.181345v 1.19358h 0.181345v 4.28986h 0.181345v
 1.75636h 0.181345v -3.32747h 0.181345v -5.01741h 0.181345v 3.59616h 0.36269v -1.2975h 0.181345v -1.19358h 0.36269v 1.19358h 0.181345v -3.32747h 0.181345v 1.02881h 0.36269v -7.40277h 0.181345v 7.40277h 0.181345v 8.34488h 0.181345v -7.2398h 0.36269v
 1.19358h 0.181345v -4.28986h 0.181345v 1.99119h 0.181345v -1.99119h 0.181345v 0.962386h 0.181345v 4.62497h 0.181345v -6.49138h 0.181345v 4.0003h 0.181345v 3.91233h 0.181345v -3.91233h 0.181345v -2.13389h 0.181345v 7.61733h 0.181345v -9.48374h
 0.36269v 6.49138h 0.181345v 1.42125h 0.181345v -10.3361h 0.181345v 2.42345h 0.36269v -0.852335h 0.181345v -2.29867h 0.181345v 2.29867h 0.181345v 0.852335h 0.181345v -4.50755h 0.36269v 0.662856h 0.181345v -3.59616h 0.181345v 10.3361h 0.181345v
 -9.23099h 0.181345v 9.23099h 0.36269v -8.03741h 0.181345v 0.634641h 0.181345v 2.84898h 0.36269v 6.85246h 0.181345v -2.29867h 0.181345v -7.40277h 0.181345v 2.0841h 0.36269v -1.42125h 0.181345v 2.99236h 0.181345v -0.80624h 0.181345v -2.84898h
 0.181345v 5.41158h 0.181345v -2.5626h 0.181345v -2.84898h 0.181345v 4.50755h 0.181345v -1.65858h 0.181345v -4.6772h 0.181345v -0.562777h 0.181345v 5.23998h 0.181345v -3.48362h 0.181345v -4.28986h 0.181345v 4.28986h 0.181345v 1.2975h 0.181345v
 -5.11393h 0.181345v 6.53517h 0.36269v -2.0841h 0.181345v 4.50755h 0.181345v 0.904023h 0.181345v -1.75636h 0.181345v -4.89859h 0.181345v 4.89859h 0.181345v -2.29867h 0.181345v -1.99119h 0.181345v 2.71874h 0.181345v 3.32747h 0.181345v -3.32747h
 0.181345v -3.32747h 0.181345v 4.89859h 0.181345v 1.75636h 0.36269v -4.05502h 0.181345v 1.49243h 0.181345v -0.764876h 0.181345v -0.72755h 0.181345v 5.01741h 0.181345v -2.71874h 0.181345v 2.71874h 0.181345v 9.37369h 0.181345v -11.2401h 0.181345v
 2.89522h 0.181345v 1.10508h 0.181345v 9.23099h 0.181345v -11.3649h 0.181345v 6.04622h 0.181345v 3.32747h 0.36269v -1.75636h 0.181345v -7.61733h 0.181345v 7.61733h 0.36269v 8.76496h 0.36269v -5.01741h 0.36269v -5.31867h 0.181345v 5.31867h 0.181345v
 2.29867h 0.181345v 10.3361h 0.181345v 6.04622h 0.181345v -23.9996h 0.181345v 23.9996h 0.181345v -10.3361h 0.181345v -6.04622h 0.181345v 16.3823h 0.181345v -6.04622h 0.36269v -10.3361h 0.181345v 16.3823h 0.36269v 20.6722h 0.181345v -20.6722h
 0.181345v -16.3823h 0.181345v 10.3361h 0.181345v -4.28986h 0.181345v 4.28986h 0.36269v -4.28986h 0.181345v 20.6722h 0.181345v -16.3823h 0.181345v 26.7184h 0.181345v -20.6722h 0.181345v 10.3361h 0.181345v -10.3361h 0.181345v 10.3361h 0.181345v
 10.3361h 0.181345v -10.3361h 0.181345v -10.3361h 0.181345v 10.3361h 0.181345v -10.3361h 0.36269v 10.3361h 0.181345v 10.3361h 0.36269v -10.3361h 0.725379v -10.3361h 0.36269v 20.6722h 0.36269v -20.6722h 0.181345v 20.6722h 0.36269v -10.3361h 0.181345v
 10.3361h 0.181345v -10.3361h 0.181345v 10.3361h 0.181345v -20.6722h 0.181345v 10.3361h 0.181345v -10.3361h 0.181345v -18.681h 0.181345v 39.3531h 0.181345v -20.6722h 0.181345v 10.3361h 0.36269v -16.3823h 0.181345v 16.3823h 0.181345v -10.3361h
 0.36269v 10.3361h 0.181345v 10.3361h 0.36269v -20.6722h 0.181345v 10.3361h 0.181345v -20.6722h 0.181345v 20.6722h 0.906724v -16.3823h 0.181345v 6.04622h 0.181345v 20.6722h 0.181345v -10.3361h 0.181345v -10.3361h 0.181345v 10.3361h 0.36269v -10.3361h
 0.181345v 10.3361h 0.544034v 10.3361h 0.36269v -10.3361h 0.181345v 10.3361h 0.181345v -10.3361h 0.36269v 10.3361h 0.36269v -10.3361h 0.181345v 10.3361h 0.36269v -20.6722h 0.36269v -13.6636h 0.181345v 23.9996h 0.181345v -16.3823h 0.181345v 26.7184h
 0.36269v -20.6722h 0.181345v -6.04622h 0.181345v 26.7184h 0.181345v -10.3361h 0.181345v 10.3361h 0.181345v -20.6722h 0.544034v 10.3361h 0.181345v -10.3361h 0.181345v 20.6722h 0.181345v -20.6722h 0.181345v 20.6722h 0.181345v -10.3361h 0.181345v
 -10.3361h 0.181345v 10.3361h 0.36269v -10.3361h 0.181345v 20.6722h 0.181345v -20.6722h 0.181345v 10.3361h 0.181345v -16.3823h 0.181345v 26.7184h 0.181345v -20.6722h 0.36269v 20.6722h 0.36269v -10.3361h 0.36269v 10.3361h 0.181345v -20.6722h 0.181345v
 20.6722h 0.181345v -20.6722h 0.181345v 10.3361h 0.36269v 10.3361h 0.181345v -20.6722h 0.181345v 10.3361h 0.181345v 10.3361h 0.36269v -31.0082h 0.36269v 20.6722h 0.181345v 10.3361h 0.181345v -10.3361h 0.181345v 10.3361h 0.181345v -10.3361h 0.36269v
 -10.3361h 0.181345v -10.3361h 0.181345v 20.6722h 0.181345v -10.3361h 0.181345v 10.3361h 0.181345v 10.3361h 0.181345v -10.3361h 0.36269v -10.3361h 0.181345v 10.3361h 0.181345v 10.3361h 0.36269v -10.3361h 0.181345v 10.3361h 0.181345v -10.3361h
 0.181345v 10.3361h 0.181345v -20.6722h 0.181345v 20.6722h 0.181345v -10.3361h 0.181345v 10.3361h 0.181345v -10.3361h 0.181345v 10.3361h 0.181345v -10.3361h 0.544034v 10.3361h 0.725379v -10.3361h 0.181345v 10.3361h 0.181345v -20.6722h 0.181345v
 10.3361h 0.181345v 10.3361h 0.181345v -10.3361h 0.181345v 10.3361h 0.181345v -20.6722h 0.181345v 20.6722h 0.544034v -20.6722h 0.181345v 10.3361h 0.544034v 10.3361h 0.725379v -20.6722h 0.181345v 10.3361h 0.181345v -10.3361h 0.181345v 20.6722h
 0.36269v -26.7184h 0.181345v 26.7184h 0.181345v -10.3361h 0.36269v 10.3361h 0.36269v -20.6722h 0.181345v 20.6722h 0.181345v -10.3361h 0.181345v -10.3361h 0.181345v 10.3361h 0.181345v -16.3823h 0.181345v 26.7184h 0.36269v -10.3361h 0.181345v 10.3361h
 0.181345v -10.3361h 0.181345v -16.3823h 0.181345v 16.3823h 0.544034v 10.3361h 0.181345v -10.3361h 0.181345v -10.3361h 0.181345v 20.6722h 0.181345v -10.3361h 0.36269v -10.3361h 0.36269v -6.04622h 0.181345v 6.04622h 0.181345v 20.6722h 0.36269v
 -10.3361h 0.181345v -10.3361h 0.181345v 20.6722h 0.181345v -20.6722h 0.181345v 20.6722h 0.544034v -10.3361h 0.181345v 10.3361h 0.181345v -10.3361h 0.544034v -16.3823h 0.181345v 6.04622h 0.181345v 10.3361h 0.36269v 10.3361h 0.181345v -10.3361h
 0.181345v 10.3361h 0.181345v -20.6722h 0.181345v 20.6722h 0.181345v -10.3361h 0.36269v 10.3361h 0.181345v -10.3361h 0.544034v -10.3361h 0.181345v 10.3361h 0.36269v 10.3361h 0.181345v -10.3361h 0.181345v -10.3361h 0.181345v 10.3361h 0.36269v
 -10.3361h 0.181345v 10.3361h 0.181345v -10.3361h 0.181345v 20.6722h 0.181345v -10.3361h 0.181345v 10.3361h 0.725379v -10.3361h 0.544034v -10.3361h 0.181345v 20.6722h 0.181345v -20.6722h 0.181345v 10.3361h 0.181345v 10.3361h 0.181345" fill="none"
 stroke="black"/>
<path d="M57.1929,280.151h 453.543" fill="none" stroke="black"/>
<path d="M57.1929,272.68v 7.47068" fill="none" stroke="black"/>
<path d="M75.3318,276.415v 3.73534" fill="none" stroke="black"/>
<path d="M93.4707,276.415v 3.73534" fill="none" stroke="black"/>
<path d="M111.61,276.415v 3.73534" fill="none" stroke="black"/>
<path d="M129.749,276.415v 3.73534" fill="none" stroke="black"/>
<path d="M147.887,272.68v 7.47068" fill="none" stroke="black"/>
<path d="M166.026,276.415v 3.73534" fill="none" stroke="black"/>
<path d="M184.165,276.415v 3.73534" fill="none" stroke="black"/>
<path d="M202.304,276.415v 3.73534" fill="none" stroke="black"/>
<path d="M220.443,276.415v 3.73534" fill="none" stroke="black"/>
<path d="M238.582,272.68v 7.47068" fill="none" stroke="black"/>
<path d="M256.721,276.415v 3.73534" fill="none" stroke="black"/>
<path d="M274.86,276.415v 3.73534" fill="none" stroke="black"/>
<path d="M292.999,276.415v 3.73534" fill="none" stroke="black"/>
<path d="M311.138,276.415v 3.73534" fill="none" stroke="black"/>
<path d="M329.277,272.68v 7.47068" fill="none" stroke="black"/>
<path d="M347.415,276.415v 3.73534" fill="none" stroke="black"/>
<path d="M365.554,276.415v 3.73534" fill="none" stroke="black"/>
<path d="M383.693,276.415v 3.73534" fill="none" stroke="black"/>
<path d="M401.832,276.415v 3.73534" fill="none" stroke="black"/>
<path d="M419.971,272.68v 7.47068" fill="none" stroke="black"/>
<path d="M438.11,276.415v 3.73534" fill="none" stroke="black"/>
<path d="M456.249,276.415v 3.73534" fill="none" stroke="black"/>
<path d="M474.388,276.415v 3.73534" fill="none" stroke="black"/>
<path d="M492.527,276.415v 3.73534" fill="none" stroke="black"/>
<path d="M510.666,272.68v 7.47068" fill="none" stroke="black"/>
<path d="M510.666,272.68v 7.47068" fill="none" stroke="black"/>
<text xml:space="preserve" x="54.3523" y="290.27" fill="black" font-size="10.4952" font-family="Helvetica">0</text>
<text xml:space="preserve" x="139.569" y="290.27" fill="black" font-size="10.4952" font-family="Helvetica">500</text>
<text xml:space="preserve" x="227.449" y="290.27" fill="black" font-size="10.4952" font-family="Helvetica">1000</text>
<text xml:space="preserve" x="318.288" y="290.27" fill="black" font-size="10.4952" font-family="Helvetica">1500</text>
<text xml:space="preserve" x="408.831" y="290.27" fill="black" font-size="10.4952" font-family="Helvetica">2000</text>
<text xml:space="preserve" x="499.67" y="290.27" fill="black" font-size="10.4952" font-family="Helvetica">2500</text>
<text xml:space="preserve" x="265.323" y="301.218" fill="black" font-size="10.4952" font-family="Helvetica">Channel</text>
<path d="M57.1929,280.151v -249.023" fill="none" stroke="black"/>
<path d="M63.9961,280.151h -6.80315" fill="none" stroke="black"/>
<path d="M63.9961,277.432h -6.80315" fill="none" stroke="black"/>
<path d="M63.9961,275.133h -6.80315" fill="none" stroke="black"/>
<path d="M63.9961,273.142h -6.80315" fill="none" stroke="black"/>
<path d="M63.9961,271.386h -6.80315" fill="none" stroke="black"/>
<path d="M70.7992,269.814h -13.6063" fill="none" stroke="black"/>
<text xml:space="preserve" x="49.0263" y="273.404" fill="black" font-size="10.4952" font-family="Helvetica">1</text>
<path d="M63.9961,259.478h -6.80315" fill="none" stroke="black"/>
<path d="M63.9961,253.432h -6.80315" fill="none" stroke="black"/>
<path d="M63.9961,249.142h -6.80315" fill="none" stroke="black"/>
<path d="M63.9961,245.815h -6.80315" fill="none" stroke="black"/>
<path d="M63.9961,243.096h -6.80315" fill="none" stroke="black"/>
<path d="M63.9961,240.797h -6.80315" fill="none" stroke="black"/>
<path d="M63.9961,238.806h -6.80315" fill="none" stroke="black"/>
<path d="M63.9961,237.05h -6.80315" fill="none" stroke="black"/>
<path d="M70.7992,235.479h -13.6063" fill="none" stroke="black"/>
<text xml:space="preserve" x="41.629" y="239.081" fill="black" font-size="10.4952" font-family="Helvetica">10</text>
<path d="M63.9961,225.143h -6.80315" fill="none" stroke="black"/>
<path d="M63.9961,219.096h -6.80315" fill="none" stroke="black"/>
<path d="M63.9961,214.807h -6.80315" fill="none" stroke="black"/>
<path d="M63.9961,211.479h -6.80315" fill="none" stroke="black"/>
<path d="M63.9961,208.76h -6.80315" fill="none" stroke="black"/>
<path d="M63.9961,206.462h -6.80315" fill="none" stroke="black"/>
<path d="M63.9961,204.471h -6.80315" fill="none" stroke="black"/>
<path d="M63.9961,202.714h -6.80315" fill="none" stroke="black"/>
<path d="M70.7992,201.143h -13.6063" fill="none" stroke="black"/>
<text xml:space="preserve" x="49.0263" y="201.207" fill="black" font-size="7.16345" font-family="Helvetica">2</text>
<text xml:space="preserve" x="38.0783" y="205.645" fill="black" font-size="10.4952" font-family="Helvetica">10</text>
<path d="M63.9961,190.807h -6.80315" fill="none" stroke="black"/>
<path d="M63.9961,184.761h -6.80315" fill="none" stroke="black"/>
<path d="M63.9961,180.471h -6.80315" fill="none" stroke="black"/>
<path d="M63.9961,177.143h -6.80315" fill="none" stroke="black"/>
<path d="M63.9961,174.425h -6.80315" fill="none" stroke="black"/>
<path d="M63.9961,172.126h -6.80315" fill="none" stroke="black"/>
<path d="M63.9961,170.135h -6.80315" fill="none" stroke="black"/>
<path d="M63.9961,168.378h -6.80315" fill="none" stroke="black"/>
<path d="M70.7992,166.807h -13.6063" fill="none" stroke="black"/>
<text xml:space="preserve" x="49.0263" y="166.587" fill="black" font-size="7.16345" font-family="Helvetica">3</text>
<text xml:space="preserve" x="38.0783" y="171.321" fill="black" font-size="10.4952" font-family="Helvetica">10</text>
<path d="M63.9961,156.471h -6.80315" fill="none" stroke="black"/>
<path d="M63.9961,150.425h -6.80315" fill="none" stroke="black"/>
<path d="M63.9961,146.135h -6.80315" fill="none" stroke="black"/>
<path d="M63.9961,142.808h -6.80315" fill="none" stroke="black"/>
<path d="M63.9961,140.089h -6.80315" fill="none" stroke="black"/>
<path d="M63.9961,137.79h -6.80315" fill="none" stroke="black"/>
<path d="M63.9961,135.799h -6.80315" fill="none" stroke="black"/>
<path d="M63.9961,134.043h -6.80315" fill="none" stroke="black"/>
<path d="M70.7992,132.472h -13.6063" fill="none" stroke="black"/>
<text xml:space="preserve" x="49.0263" y="132.56" fill="black" font-size="7.16345" font-family="Helvetica">4</text>
<text xml:space="preserve" x="38.0783" y="136.998" fill="black" font-size="10.4952" font-family="Helvetica">10</text>
<path d="M63.9961,122.136h -6.80315" fill="none" stroke="black"/>
<path d="M63.9961,116.089h -6.80315" fill="none" stroke="black"/>
<path d="M63.9961,111.799h -6.80315" fill="none" stroke="black"/>
<path d="M63.9961,108.472h -6.80315" fill="none" stroke="black"/>
<path d="M63.9961,105.753h -6.80315" fill="none" stroke="black"/>
<path d="M63.9961,103.455h -6.80315" fill="none" stroke="black"/>
<path d="M63.9961,101.463h -6.80315" fill="none" stroke="black"/>
<path d="M63.9961,99.7071h -6.80315" fill="none" stroke="black"/>
<path d="M70.7992,98.1359h -13.6063" fill="none" stroke="black"/>
<text xml:space="preserve" x="49.0263" y="97.9403" fill="black" font-size="7.16345" font-family="Helvetica">5</text>
<text xml:space="preserve" x="38.0783" y="102.675" fill="black" font-size="10.4952" font-family="Helvetica">10</text>
<path d="M63.9961,87.7999h -6.80315" fill="none" stroke="black"/>
<path d="M63.9961,81.7536h -6.80315" fill="none" stroke="black"/>
<path d="M63.9961,77.4638h -6.80315" fill="none" stroke="black"/>
<path d="M63.9961,74.1363h -6.80315" fill="none" stroke="black"/>
<path d="M63.9961,71.4176h -6.80315" fill="none" stroke="black"/>
<path d="M63.9961,69.1189h -6.80315" fill="none" stroke="black"/>
<path d="M63.9961,67.1277h -6.80315" fill="none" stroke="black"/>
<path d="M63.9961,65.3714h -6.80315" fill="none" stroke="black"/>
<path d="M70.7992,63.8002h -13.6063" fill="none" stroke="black"/>
<text xml:space="preserve" x="49.0263" y="63.6168" fill="black" font-size="7.16345" font-family="Helvetica">6</text>
<text xml:space="preserve" x="38.0783" y="68.3511" fill="black" font-size="10.4952" font-family="Helvetica">10</text>
<path d="M63.9961,53.4642h -6.80315" fill="none" stroke="black"/>
<path d="M63.9961,47.4179h -6.80315" fill="none" stroke="black"/>
<path d="M63.9961,43.1281h -6.80315" fill="none" stroke="black"/>
<path d="M63.9961,39.8006h -6.80315" fill="none" stroke="black"/>
<path d="M63.9961,37.0819h -6.80315" fill="none" stroke="black"/>
<path d="M63.9961,34.7832h -6.80315" fill="none" stroke="black"/>
<path d="M63.9961,32.792h -6.80315" fill="none" stroke="black"/>
<g transform="rotate(-90,26.5385,191.442)">
<text xml:space="preserve" x="26.5385" y="191.442" fill="black" font-size="10.4952" font-family="Helvetica">Counts/Channel</text>
</g>
<text xml:space="preserve" x="404.097" y="63.6168" fill="black" font-size="14.7788" font-family="Helvetica" font-weight="bold"> = 2.4879 MeV</text>
<text xml:space="preserve" x="398.179" y="66.8716" fill="black" font-size="10.0192" font-family="Helvetica" font-weight="bold">p</text>
<text xml:space="preserve" x="389.006" y="63.6168" fill="black" font-size="14.7788" font-family="Helvetica" font-weight="bold">E</text>
<path d="M262.163,165.386v 25.7422" fill="none" stroke="black"/>
<path d="M264.454,191.128l -2.29122, 3.9685l -2.29122, -3.9685z" fill="black"/>
<path d="M264.454,191.128l -2.29122, 3.9685l -2.29122, -3.9685h 4.58243z" fill="none" stroke="black"/>
<text xml:space="preserve" x="266.803" y="163.332" fill="black" font-size="10.4952" font-family="Helvetica" font-weight="bold">_1 	1.369 MeV</text>
<text xml:space="preserve" x="260.293" y="163.332" fill="black" font-size="10.4952" font-family="Times">&#0945;</text>
<path d="M184.528,132.472v 30.3672" fill="none" stroke="black"/>
<path d="M186.819,162.839l -2.29122, 3.9685l -2.29122, -3.9685z" fill="black"/>
<path d="M186.819,162.839l -2.29122, 3.9685l -2.29122, -3.9685h 4.58243z" fill="none" stroke="black"/>
<text xml:space="preserve" x="172.117" y="129.601" fill="black" font-size="10.4952" font-family="Helvetica" font-weight="bold"># p_1 	0.844 MeV</text>
<path d="M210.104,150.425v 12.4138" fill="none" stroke="black"/>
<path d="M212.395,162.839l -2.29122, 3.9685l -2.29122, -3.9685z" fill="black"/>
<path d="M212.395,162.839l -2.29122, 3.9685l -2.29122, -3.9685h 4.58243z" fill="none" stroke="black"/>
<text xml:space="preserve" x="197.564" y="145.875" fill="black" font-size="10.4952" font-family="Helvetica" font-weight="bold"># p_2 	1.015 MeV</text>
<path d="M497.79,269.814h 12.876" fill="none" stroke="black"/>
<path d="M504.228,259.478h 6.43801" fill="none" stroke="black"/>
<path d="M504.228,253.432h 6.43801" fill="none" stroke="black"/>
<path d="M504.228,249.142h 6.43801" fill="none" stroke="black"/>
<path d="M504.228,245.815h 6.43801" fill="none" stroke="black"/>
<path d="M504.228,243.096h 6.43801" fill="none" stroke="black"/>
<path d="M504.228,240.797h 6.43801" fill="none" stroke="black"/>
<path d="M504.228,238.806h 6.43801" fill="none" stroke="black"/>
<path d="M504.228,237.05h 6.43801" fill="none" stroke="black"/>
<path d="M497.79,235.479h 12.876" fill="none" stroke="black"/>
<path d="M504.228,225.143h 6.43801" fill="none" stroke="black"/>
<path d="M504.228,219.096h 6.43801" fill="none" stroke="black"/>
<path d="M504.228,214.807h 6.43801" fill="none" stroke="black"/>
<path d="M504.228,211.479h 6.43801" fill="none" stroke="black"/>
<path d="M504.228,208.76h 6.43801" fill="none" stroke="black"/>
<path d="M504.228,206.462h 6.43801" fill="none" stroke="black"/>
<path d="M504.228,204.471h 6.43801" fill="none" stroke="black"/>
<path d="M504.228,202.714h 6.43801" fill="none" stroke="black"/>
<path d="M497.79,201.143h 12.876" fill="none" stroke="black"/>
<path d="M504.228,190.807h 6.43801" fill="none" stroke="black"/>
<path d="M504.228,184.761h 6.43801" fill="none" stroke="black"/>
<path d="M504.228,180.471h 6.43801" fill="none" stroke="black"/>
<path d="M504.228,177.143h 6.43801" fill="none" stroke="black"/>
<path d="M504.228,174.425h 6.43801" fill="none" stroke="black"/>
<path d="M504.228,172.126h 6.43801" fill="none" stroke="black"/>
<path d="M504.228,170.135h 6.43801" fill="none" stroke="black"/>
<path d="M504.228,168.378h 6.43801" fill="none" stroke="black"/>
<path d="M497.79,166.807h 12.876" fill="none" stroke="black"/>
<path d="M504.228,156.471h 6.43801" fill="none" stroke="black"/>
<path d="M504.228,150.425h 6.43801" fill="none" stroke="black"/>
<path d="M504.228,146.135h 6.43801" fill="none" stroke="black"/>
<path d="M504.228,142.808h 6.43801" fill="none" stroke="black"/>
<path d="M504.228,140.089h 6.43801" fill="none" stroke="black"/>
<path d="M504.228,137.79h 6.43801" fill="none" stroke="black"/>
<path d="M504.228,135.799h 6.43801" fill="none" stroke="black"/>
<path d="M504.228,134.043h 6.43801" fill="none" stroke="black"/>
<path d="M497.79,132.472h 12.876" fill="none" stroke="black"/>
<path d="M504.228,122.136h 6.43801" fill="none" stroke="black"/>
<path d="M504.228,116.089h 6.43801" fill="none" stroke="black"/>
<path d="M504.228,111.799h 6.43801" fill="none" stroke="black"/>
<path d="M504.228,108.472h 6.43801" fill="none" stroke="black"/>
<path d="M504.228,105.753h 6.43801" fill="none" stroke="black"/>
<path d="M504.228,103.455h 6.43801" fill="none" stroke="black"/>
<path d="M504.228,101.463h 6.43801" fill="none" stroke="black"/>
<path d="M504.228,99.7071h 6.43801" fill="none" stroke="black"/>
<path d="M497.79,98.1359h 12.876" fill="none" stroke="black"/>
<path d="M504.228,87.7999h 6.43801" fill="none" stroke="black"/>
<path d="M504.228,81.7536h 6.43801" fill="none" stroke="black"/>
<path d="M504.228,77.4638h 6.43801" fill="none" stroke="black"/>
<path d="M504.228,74.1363h 6.43801" fill="none" stroke="black"/>
<path d="M504.228,71.4176h 6.43801" fill="none" stroke="black"/>
<path d="M504.228,69.1189h 6.43801" fill="none" stroke="black"/>
<path d="M504.228,67.1277h 6.43801" fill="none" stroke="black"/>
<path d="M504.228,65.3714h 6.43801" fill="none" stroke="black"/>
<path d="M497.79,63.8002h 12.876" fill="none" stroke="black"/>
<path d="M504.228,53.4642h 6.43801" fill="none" stroke="black"/>
<path d="M504.228,47.4179h 6.43801" fill="none" stroke="black"/>
<path d="M504.228,43.1281h 6.43801" fill="none" stroke="black"/>
<path d="M504.228,39.8006h 6.43801" fill="none" stroke="black"/>
<path d="M504.228,37.0819h 6.43801" fill="none" stroke="black"/>
<path d="M504.228,34.7832h 6.43801" fill="none" stroke="black"/>
<path d="M57.1929,41.627v -7.46952" fill="none" stroke="black"/>
<path d="M75.3318,41.627v -7.46952" fill="none" stroke="black"/>
<path d="M93.4707,41.627v -7.46952" fill="none" stroke="black"/>
<path d="M111.61,41.627v -7.46952" fill="none" stroke="black"/>
<path d="M129.749,41.627v -7.46952" fill="none" stroke="black"/>
<path d="M147.887,41.627v -7.46952" fill="none" stroke="black"/>
<path d="M166.026,41.627v -7.46952" fill="none" stroke="black"/>
<path d="M184.165,41.627v -7.46952" fill="none" stroke="black"/>
<path d="M202.304,41.627v -7.46952" fill="none" stroke="black"/>
<path d="M220.443,41.627v -7.46952" fill="none" stroke="black"/>
<path d="M238.582,41.627v -7.46952" fill="none" stroke="black"/>
<path d="M256.721,41.627v -7.46952" fill="none" stroke="black"/>
<path d="M274.86,41.627v -7.46952" fill="none" stroke="black"/>
<path d="M292.999,41.627v -7.46952" fill="none" stroke="black"/>
<path d="M311.138,41.627v -7.46952" fill="none" stroke="black"/>
<path d="M329.277,41.627v -7.46952" fill="none" stroke="black"/>
<path d="M347.415,41.627v -7.46952" fill="none" stroke="black"/>
<path d="M365.554,41.627v -7.46952" fill="none" stroke="black"/>
<path d="M383.693,41.627v -7.46952" fill="none" stroke="black"/>
<path d="M401.832,41.627v -7.46952" fill="none" stroke="black"/>
<path d="M419.971,41.627v -7.46952" fill="none" stroke="black"/>
<path d="M438.11,41.627v -7.46952" fill="none" stroke="black"/>
<path d="M456.249,41.627v -7.46952" fill="none" stroke="black"/>
<path d="M474.388,41.627v -7.46952" fill="none" stroke="black"/>
<path d="M492.527,41.627v -7.46952" fill="none" stroke="black"/>
<path d="M510.666,41.627v -7.46952" fill="none" stroke="black"/></svg>
