<?xml version="1.0" standalone="no"?>
<svg width="567.429" height="311.778" viewBox="0 0 567.429 311.778" xmlns="http://www.w3.org/2000/svg" shape-rendering="crispEdges">
<title>
Yields/P1/run_0106/det0_Fit.svg
</title>
<desc>
Creator: ROOT Version 6.12/06
CreationDate: Mon Apr 15 10:29:02 2019</desc>
<defs>
</defs>
<rect x="0.5" y="0" width="566.929" height="311.278" fill="white"/>
<rect x="57.1929" y="31.1278" width="453.543" height="249.023" fill="white"/>
<rect x="57.1929" y="31.1278" width="453.543" height="249.023" fill="none" stroke="black"/>
<path d="M57.1929,40.8939h 0.181345v 239.257h 7.61648v -10.5923h 0.181345v 10.5923h 13.6009v -10.5923h 0.181345v 10.5923h 4.17093v -10.5923h 0.181345v 10.5923h 0.906724v -10.5923h 0.181345v 10.5923h 1.08807v -10.5923h 0.181345v 10.5923h 0.906724v
 -10.5923h 0.181345v 10.5923h 0.544034v -10.5923h 0.181345v 10.5923h 0.544034v -10.5923h 0.181345v 10.5923h 0.181345v -21.1845h 0.181345v 21.1845h 0.181345v -21.1845h 0.181345v -14.0022h 0.181345v -19.5745h 0.181345v -16.2116h 0.181345v -10.2955h
 0.181345v -8.93219h 0.181345v -6.716h 0.181345v -4.60992h 0.181345v -3.69382h 0.181345v -1.6288h 0.181345v -1.05805h 0.181345v -1.52068h 0.181345v 0.457634h 0.181345v -3.1883h 0.181345v 0.463414h 0.181345v -0.443555h 0.181345v -0.603933h 0.181345v
 0.406496h 0.181345v -1.33293h 0.181345v -0.143152h 0.181345v -0.679286h 0.181345v -0.715537h 0.181345v 0.766731h 0.181345v -0.203755h 0.181345v -0.0505171h 0.181345v -0.913569h 0.181345v -0.157542h 0.181345v 0.771465h 0.181345v 0.115832h 0.181345v
 -0.230792h 0.181345v -0.403653h 0.181345v 0.751161h 0.181345v -0.830628h 0.181345v 0.191419h 0.181345v -0.628954h 0.181345v 0.311241h 0.181345v -0.0470922h 0.181345v 0.173386h 0.181345v -0.0790556h 0.181345v 0.334817h 0.181345v -0.538468h 0.181345v
 -0.414489h 0.181345v 0.321404h 0.181345v -0.813193h 0.181345v 0.67462h 0.181345v -0.182831h 0.181345v 0.888614h 0.181345v -0.238901h 0.181345v -0.110222h 0.181345v 0.0471406h 0.181345v -0.677233h 0.181345v 0.273432h 0.181345v 0.721844h 0.181345v
 0.639895h 0.181345v 0.407529h 0.181345v 0.614499h 0.181345v -0.768599h 0.181345v 0.608209h 0.181345v -0.539912h 0.181345v -0.767569h 0.181345v 1.73898h 0.181345v -1.55891h 0.181345v -0.597448h 0.181345v -2.31713h 0.181345v -1.11497h 0.181345v
 -4.16035h 0.181345v -3.3675h 0.181345v -3.43929h 0.181345v -3.52799h 0.181345v -3.27313h 0.181345v -2.18863h 0.181345v -2.75812h 0.181345v -2.02301h 0.181345v -1.29683h 0.181345v -0.18082h 0.181345v -0.507973h 0.181345v 0.542142h 0.181345v 2.18819h
 0.181345v 1.75784h 0.181345v 2.84411h 0.181345v 3.22262h 0.181345v 3.50907h 0.181345v 4.51822h 0.181345v 4.20434h 0.181345v 4.51725h 0.181345v 3.88367h 0.181345v 2.90177h 0.181345v 4.74147h 0.181345v 0.598231h 0.181345v 1.81806h 0.181345v 0.0984842h
 0.181345v 1.55891h 0.181345v -1.19227h 0.181345v 0.86751h 0.181345v 1.97946h 0.181345v -1.32288h 0.181345v -0.763321h 0.181345v 0.504621h 0.181345v 0.983797h 0.181345v 0.157137h 0.181345v 0.440648h 0.181345v -0.636818h 0.181345v -0.270475h 0.181345v
 -0.526998h 0.181345v 1.76294h 0.181345v -1.31234h 0.181345v -0.0380608h 0.181345v 1.77141h 0.181345v -0.127523h 0.181345v 2.27823h 0.181345v -2.3205h 0.181345v 1.13897h 0.181345v -0.840579h 0.181345v -0.508016h 0.181345v 0.681179h 0.181345v
 0.804471h 0.181345v -1.06348h 0.181345v 0.92643h 0.181345v 0.137054h 0.181345v -0.407529h 0.181345v 0.638719h 0.181345v -0.683337h 0.181345v 1.49662h 0.181345v -1.89242h 0.181345v 1.21955h 0.181345v 0.09433h 0.181345v 0.776366h 0.181345v -0.441548h
 0.181345v 1.52433h 0.181345v -2.14041h 0.181345v 1.4101h 0.181345v 2.12812h 0.181345v -0.742794h 0.181345v -0.439783h 0.181345v 1.18258h 0.181345v -1.97454h 0.181345v 0.683964h 0.181345v -0.939085h 0.181345v 1.04708h 0.181345v 0.108765h 0.181345v
 0.386892h 0.181345v -0.657366h 0.181345v 0.713445h 0.181345v -0.551736h 0.181345v 0.835258h 0.181345v 1.00533h 0.181345v -1.00533h 0.181345v 1.31406h 0.181345v -1.37118h 0.181345v 0.2298h 0.181345v 0.0579941h 0.181345v 1.08339h 0.181345v -0.185983h
 0.181345v -0.36531h 0.181345v 0.242567h 0.181345v 0.687623h 0.181345v -1.34563h 0.181345v -1.45115h 0.181345v 2.48039h 0.181345v -0.186741h 0.181345v 0.312514h 0.181345v -0.435752h 0.181345v -0.893905h 0.181345v 0.292197h 0.181345v 1.81465h
 0.181345v 0.403938h 0.181345v -2.74058h 0.181345v 0.819889h 0.181345v 1.45046h 0.181345v 0.132883h 0.181345v -0.524735h 0.181345v 0.45815h 0.181345v -0.0662969h 0.181345v -0.710892h 0.181345v 1.80779h 0.181345v 0.432522h 0.181345v -3.33666h
 0.181345v 0.845828h 0.181345v 0.829675h 0.181345v -0.260115h 0.181345v -0.128416h 0.181345v -2.47393h 0.181345v -0.215995h 0.181345v 2.24878h 0.181345v -3.48431h 0.181345v -1.05101h 0.181345v -0.721381h 0.181345v -2.13385h 0.181345v -1.49473h
 0.181345v 2.32095h 0.181345v -0.516716h 0.181345v -0.537593h 0.181345v -0.628345h 0.181345v 1.68265h 0.181345v 0.121765h 0.181345v 0.923883h 0.36269v 0.528517h 0.181345v 2.58137h 0.181345v 2.40879h 0.181345v -1.70295h 0.181345v 1.09405h 0.181345v
 0.98624h 0.181345v 0.650371h 0.181345v 0.889103h 0.181345v 0.428479h 0.181345v -0.77659h 0.181345v 2.06023h 0.181345v -0.692979h 0.181345v 0.151302h 0.181345v 1.10326h 0.181345v -1.10326h 0.181345v 2.83182h 0.181345v -4.14245h 0.181345v 0.0699379h
 0.181345v 0.571334h 0.181345v 1.77263h 0.181345v -0.403227h 0.181345v -1.58616h 0.181345v 0.886127h 0.181345v 0.152815h 0.181345v 1.7042h 0.181345v -3.84998h 0.181345v 3.59457h 0.181345v -0.901578h 0.181345v -0.236926h 0.181345v -0.310293h 0.181345v
 -0.602301h 0.181345v 0.602301h 0.181345v 0.310293h 0.181345v 0.236926h 0.181345v -1.29646h 0.181345v 2.97743h 0.181345v -4.44055h 0.181345v 2.36672h 0.36269v 0.234502h 0.181345v 0.561585h 0.181345v 0.498351h 0.181345v -1.82801h 0.181345v -1.36084h
 0.181345v 0.346532h 0.181345v -1.14749h 0.181345v -0.193847h 0.181345v 1.69591h 0.181345v -2.01362h 0.181345v 0.642171h 0.181345v -1.6755h 0.181345v -0.745583h 0.181345v 0.628483h 0.181345v 1.72716h 0.181345v -1.43271h 0.181345v 2.23718h 0.181345v
 -2.64784h 0.181345v 2.24031h 0.181345v -2.18231h 0.181345v 1.85082h 0.181345v 0.601972h 0.181345v 1.13247h 0.181345v 1.54489h 0.181345v -1.0976h 0.181345v -1.0946h 0.181345v 0.720955h 0.181345v 1.22932h 0.181345v 0.0802176h 0.181345v -0.2394h
 0.181345v 0.564549h 0.181345v 0.586208h 0.181345v 0.0856104h 0.181345v -0.170744h 0.181345v -2.06176h 0.181345v 0.760426h 0.181345v 0.555749h 0.181345v 0.409714h 0.181345v 1.29949h 0.181345v -1.78984h 0.181345v 2.62611h 0.181345v -1.71476h 0.181345v
 -0.337725h 0.181345v 2.05248h 0.181345v -2.94449h 0.181345v 1.05994h 0.181345v 1.88455h 0.181345v -2.21859h 0.181345v -1.11476h 0.181345v 0.950446h 0.181345v -0.323428h 0.181345v 0.906441h 0.181345v 1.51602h 0.181345v -1.60068h 0.181345v 1.78934h
 0.181345v -2.36919h 0.181345v 0.0815011h 0.181345v -0.0815011h 0.181345v 1.00793h 0.181345v -0.92643h 0.181345v 3.26761h 0.181345v -4.29465h 0.181345v 1.5254h 0.181345v -0.416413h 0.181345v -0.643523h 0.181345v -0.234502h 0.181345v 2.70876h
 0.181345v -1.41432h 0.181345v 0.779391h 0.181345v -3.19522h 0.181345v 0.587819h 0.181345v 0.226395h 0.181345v 0.62065h 0.181345v -0.996134h 0.181345v 1.80917h 0.181345v -0.166104h 0.181345v -0.567545h 0.181345v -0.158358h 0.181345v -0.91716h
 0.181345v 0.528299h 0.181345v 0.950446h 0.181345v 1.45647h 0.181345v -3.44586h 0.181345v 2.23653h 0.181345v -0.490355h 0.181345v -1.95991h 0.181345v 2.61727h 0.181345v 0.599348h 0.181345v -2.34316h 0.181345v 4.09945h 0.181345v -3.48812h 0.181345v
 -0.384943h 0.181345v -0.151302h 0.181345v 1.41888h 0.181345v -1.79071h 0.181345v 1.14378h 0.181345v -0.544434h 0.181345v 0.623818h 0.181345v -0.92643h 0.181345v 2.6074h 0.181345v -2.75649h 0.181345v 0.91716h 0.181345v 1.1446h 0.181345v -1.1446h
 0.181345v -1.85231h 0.181345v 2.3324h 0.181345v 2.65663h 0.181345v -1.20828h 0.181345v -1.44835h 0.181345v 1.53798h 0.181345v -1.12605h 0.181345v 1.76861h 0.181345v 0.57312h 0.181345v -3.39047h 0.181345v 3.78485h 0.181345v -1.33798h 0.181345v
 2.15865h 0.181345v -0.820676h 0.181345v -1.33798h 0.181345v -2.90765h 0.181345v 0.617515h 0.181345v 2.75466h 0.181345v 0.674999h 0.181345v -1.85457h 0.181345v 0.992062h 0.181345v 0.76423h 0.181345v -0.0976451h 0.181345v 1.97118h 0.181345v -3.62983h
 0.181345v 1.17957h 0.181345v 0.576726h 0.181345v 1.4369h 0.181345v -1.72798h 0.181345v 1.83597h 0.181345v 0.551736h 0.181345v -1.99835h 0.181345v 0.914111h 0.181345v -2.14486h 0.181345v 1.73182h 0.181345v -0.101538h 0.181345v 0.410264h 0.181345v
 0.965463h 0.181345v 1.26938h 0.181345v -1.48926h 0.181345v 0.21988h 0.181345v -0.21988h 0.181345v -0.324h 0.181345v 2.80752h 0.181345v -4.0389h 0.181345v 4.0389h 0.181345v -0.994264h 0.181345v -3.24056h 0.181345v 2.88378h 0.181345v 2.007h 0.181345v
 -2.80846h 0.36269v 1.15824h 0.181345v -2.0255h 0.181345v 2.76507h 0.181345v -1.78585h 0.181345v 0.456196h 0.181345v -1.32966h 0.181345v 2.91401h 0.181345v -1.58435h 0.36269v 1.45647h 0.181345v -2.35564h 0.181345v 1.61006h 0.181345v 0.873461h
 0.181345v -1.23304h 0.181345v -0.466644h 0.181345v -0.228085h 0.181345v 1.67307h 0.181345v -1.09635h 0.181345v 0.356781h 0.181345v 1.12322h 0.181345v -2.16951h 0.181345v 3.24233h 0.181345v -3.46542h 0.181345v 0.679286h 0.181345v 0.955399h 0.181345v
 -0.244508h 0.181345v -1.05431h 0.181345v 5.05148h 0.181345v -4.8234h 0.181345v 2.62611h 0.181345v -2.51078h 0.181345v 0.590089h 0.181345v -0.819889h 0.181345v 1.94311h 0.181345v -4.16786h 0.181345v 3.91102h 0.181345v -0.252591h 0.181345v 0.902962h
 0.181345v -1.99064h 0.181345v 2.39457h 0.181345v -2.15947h 0.181345v -0.466644h 0.181345v 2.76317h 0.181345v -2.41453h 0.36269v 2.14164h 0.181345v -2.94309h 0.181345v 2.54269h 0.181345v -2.76416h 0.181345v 1.62228h 0.181345v -1.17607h 0.181345v
 1.5473h 0.36269v -1.5473h 0.181345v 3.84044h 0.181345v -2.04055h 0.181345v -0.126817h 0.181345v -0.250521h 0.181345v 0.76423h 0.181345v -1.9587h 0.181345v 1.07073h 0.181345v -1.29882h 0.181345v 4.58602h 0.181345v -0.745583h 0.181345v -2.78613h
 0.181345v 2.2148h 0.181345v -1.84655h 0.181345v -1.07914h 0.181345v 1.45647h 0.181345v -0.501075h 0.181345v -0.122743h 0.181345v 0.880654h 0.181345v -1.94311h 0.181345v 0.2298h 0.181345v 1.07914h 0.181345v 2.41789h 0.181345v -4.17631h 0.181345v
 2.3926h 0.181345v -1.94311h 0.181345v 0.2298h 0.181345v 0.351312h 0.181345v 0.238777h 0.181345v -2.84618h 0.181345v 3.45997h 0.181345v -2.84863h 0.181345v -0.511132h 0.181345v 1.14795h 0.181345v -2.76806h 0.181345v -0.706781h 0.181345v 0.888705h
 0.181345v -0.181924h 0.181345v 0.64644h 0.181345v 0.0946221h 0.181345v -1.53394h 0.181345v 1.43931h 0.181345v -1.61006h 0.181345v 2.18678h 0.181345v -1.84337h 0.181345v -1.95347h 0.181345v 1.02704h 0.181345v -0.243211h 0.181345v 0.243211h 0.181345v
 0.92643h 0.181345v 1.74572h 0.181345v -1.39441h 0.181345v -1.0306h 0.181345v 2.62093h 0.181345v -1.32144h 0.181345v 3.20784h 0.181345v -3.02592h 0.181345v 0.559138h 0.181345v -0.920846h 0.181345v -1.92843h 0.181345v 1.48801h 0.181345v 0.530044h
 0.181345v -0.530044h 0.181345v 0.710892h 0.181345v -1.39018h 0.181345v 1.29949h 0.181345v 0.836274h 0.181345v -4.58602h 0.181345v -0.487376h 0.181345v -2.22784h 0.181345v -0.176666h 0.181345v -2.43073h 0.181345v -2.73611h 0.181345v 0.466321h
 0.181345v -4.19034h 0.181345v -1.0128h 0.181345v -1.5978h 0.181345v -1.24437h 0.181345v -0.792731h 0.181345v -1.51562h 0.181345v -1.47832h 0.181345v 0.260201h 0.181345v 0.244182h 0.181345v -0.122579h 0.181345v -0.773657h 0.181345v 0.916761h
 0.181345v -0.761224h 0.181345v 1.91267h 0.181345v 0.983287h 0.181345v 0.775135h 0.181345v 2.86086h 0.181345v 1.11865h 0.181345v 0.760097h 0.181345v 0.979465h 0.181345v 2.04571h 0.181345v 2.02875h 0.181345v 2.06752h 0.181345v 0.718608h 0.181345v
 3.06024h 0.181345v 0.563434h 0.181345v 3.26713h 0.181345v 1.00995h 0.181345v 1.919h 0.181345v -1.72798h 0.181345v 1.94474h 0.181345v 1.73182h 0.36269v -1.4008h 0.181345v 2.41151h 0.181345v 2.09663h 0.181345v -2.73611h 0.181345v -0.970575h 0.181345v
 2.27747h 0.36269v -1.3069h 0.181345v 2.43937h 0.36269v -1.40295h 0.181345v 1.69968h 0.181345v -0.296736h 0.181345v -0.291083h 0.181345v -0.426486h 0.181345v 1.4705h 0.181345v 0.155143h 0.181345v 1.99606h 0.181345v -0.694729h 0.181345v 1.99211h
 0.181345v -1.6487h 0.181345v -2.69906h 0.181345v -0.571334h 0.181345v 1.94073h 0.181345v -0.158358h 0.181345v -0.91716h 0.181345v -1.81637h 0.181345v 0.132307h 0.181345v 2.60122h 0.181345v -2.33312h 0.181345v 0.833738h 0.181345v -0.968377h 0.181345v
 -0.526998h 0.181345v 0.934526h 0.181345v 3.72289h 0.181345v -3.99578h 0.181345v 2.49148h 0.181345v 1.15698h 0.181345v -0.835258h 0.181345v -0.16171h 0.181345v -1.38318h 0.181345v 0.599348h 0.181345v -1.31692h 0.181345v 2.75812h 0.181345v -0.167012h
 0.181345v 3.74582h 0.181345v -7.0223h 0.181345v 2.62611h 0.36269v 2.78613h 0.181345v -2.30097h 0.181345v -1.56068h 0.181345v 5.47171h 0.181345v -6.75183h 0.181345v 5.52866h 0.181345v -3.48812h 0.181345v 0.315092h 0.181345v 1.5043h 0.181345v 4.22154h
 0.181345v -2.15588h 0.181345v 0.407529h 0.181345v -0.999141h 0.181345v -4.4926h 0.181345v 3.5548h 0.181345v -2.19891h 0.181345v -1.06481h 0.181345v 2.55282h 0.181345v 3.7169h 0.181345v -4.88654h 0.181345v 0.16171h 0.181345v 2.8513h 0.181345v
 -2.18678h 0.181345v -0.826224h 0.181345v 4.66666h 0.181345v -3.84044h 0.181345v 1.05431h 0.181345v -0.710892h 0.181345v -0.679286h 0.181345v 1.94593h 0.181345v -2.27457h 0.181345v 1.18258h 0.181345v -0.174647h 0.181345v 3.7169h 0.181345v -3.18686h
 0.181345v 1.71026h 0.181345v 0.407529h 0.181345v 0.632425h 0.181345v -1.23971h 0.181345v -0.584074h 0.181345v 1.19136h 0.36269v 0.849186h 0.181345v -3.49702h 0.181345v 1.26664h 0.181345v -6.13306h 0.181345v 3.22167h 0.181345v 0.156734h 0.181345v
 -2.99475h 0.181345v -1.24308h 0.181345v -2.92478h 0.181345v -1.41159h 0.181345v -1.7799h 0.181345v 0.160858h 0.181345v -5.4505h 0.181345v -1.09199h 0.181345v 0.811593h 0.181345v -5.10203h 0.181345v -1.6934h 0.181345v -1.81176h 0.181345v -0.21988h
 0.181345v -2.8121h 0.181345v -0.485165h 0.181345v -0.831514h 0.181345v 0.434572h 0.181345v -1.64675h 0.181345v -0.497528h 0.181345v -0.828464h 0.181345v 0.243858h 0.181345v -0.183257h 0.181345v 0.493655h 0.181345v 0.948657h 0.181345v 1.49434h
 0.181345v 1.22521h 0.181345v 0.679286h 0.181345v 0.280401h 0.181345v 2.08914h 0.181345v 1.17997h 0.181345v 4.1643h 0.181345v 2.17263h 0.181345v -0.92643h 0.181345v 3.90478h 0.181345v 1.55999h 0.181345v 1.34265h 0.181345v 3.58639h 0.181345v 0.706198h
 0.181345v 3.07801h 0.181345v 0.644881h 0.181345v 5.11545h 0.181345v 1.3464h 0.181345v 1.92608h 0.181345v 1.1852h 0.181345v -0.244508h 0.181345v 1.52942h 0.181345v -1.28491h 0.181345v 2.11113h 0.181345v 1.4848h 0.36269v 1.30133h 0.181345v -1.61006h
 0.181345v -2.0023h 0.181345v -2.47011h 0.181345v 4.16979h 0.181345v 0.302612h 0.181345v 1.95347h 0.181345v -0.343417h 0.181345v 2.58373h 0.181345v -1.889h 0.181345v -2.6074h 0.181345v 0.611338h 0.181345v 1.99606h 0.181345v -2.30479h 0.181345v
 0.623818h 0.181345v 4.82668h 0.181345v -5.14177h 0.181345v 0.965463h 0.181345v -2.73066h 0.181345v 3.06653h 0.181345v -2.20941h 0.181345v 3.26371h 0.181345v -5.70309h 0.181345v 0.509428h 0.181345v 4.83408h 0.36269v -1.0306h 0.181345v -1.5768h
 0.181345v 2.96698h 0.181345v 1.13247h 0.181345v -3.48812h 0.181345v 0.315092h 0.181345v -1.51425h 0.181345v -0.841391h 0.181345v 5.92561h 0.181345v -3.56997h 0.181345v -0.92643h 0.181345v 1.5768h 0.181345v 2.13576h 0.181345v -4.58602h 0.181345v
 3.84044h 0.181345v -2.96698h 0.181345v 6.65228h 0.181345v -9.13579h 0.181345v 0.518064h 0.181345v 3.54226h 0.181345v 2.91959h 0.181345v -6.46185h 0.181345v 2.89189h 0.181345v -0.623818h 0.181345v 0.623818h 0.181345v 2.40879h 0.181345v -3.63196h
 0.181345v 0.908074h 0.181345v 0.636818h 0.181345v 1.71882h 0.181345v -4.66666h 0.181345v 2.0023h 0.181345v 2.66437h 0.181345v -1.71882h 0.181345v -1.83597h 0.181345v -1.63886h 0.181345v -1.71331h 0.181345v 4.24261h 0.181345v 5.02001h 0.181345v
 -6.19608h 0.181345v 0.576726h 0.181345v -1.66872h 0.181345v 3.54226h 0.181345v -0.650371h 0.181345v -1.22317h 0.181345v -0.291083h 0.181345v 5.91044h 0.181345v -4.07446h 0.181345v 0.328645h 0.181345v -0.650371h 0.181345v 2.40879h 0.181345v -1.42255h
 0.181345v -2.50049h 0.181345v 1.51425h 0.181345v -1.79989h 0.181345v 1.4848h 0.181345v 5.14177h 0.181345v -3.49702h 0.181345v 0.710892h 0.181345v -2.96698h 0.181345v 0.302612h 0.181345v 2.66437h 0.181345v -2.04055h 0.36269v -2.89189h 0.181345v
 2.57679h 0.181345v 4.71128h 0.181345v -3.40995h 0.181345v -0.664514h 0.181345v -1.54489h 0.181345v 0.908074h 0.181345v -0.908074h 0.181345v 5.20066h 0.181345v -6.60361h 0.181345v 0.270475h 0.181345v 3.6853h 0.181345v 3.93999h 0.181345v -3.58868h
 0.181345v 1.10516h 0.181345v 1.19136h 0.181345v -4.60131h 0.181345v 3.40995h 0.181345v -4.58602h 0.181345v 4.58602h 0.181345v -3.10122h 0.181345v 5.58474h 0.181345v -2.48352h 0.181345v -2.13576h 0.181345v -3.27649h 0.181345v 7.89577h 0.181345v
 -5.26965h 0.181345v -0.623818h 0.181345v 3.40995h 0.181345v -0.745583h 0.181345v -1.05431h 0.181345v 4.28341h 0.181345v 0.92643h 0.181345v 3.17302h 0.181345v -4.97291h 0.181345v -0.418695h 0.181345v -2.29652h 0.181345v 3.58868h 0.181345v -5.58474h
 0.181345v 1.64475h 0.181345v 1.84337h 0.181345v -4.97291h 0.181345v 2.78613h 0.181345v 6.19608h 0.181345v -4.0093h 0.181345v 2.09663h 0.181345v -3.93999h 0.181345v 5.85266h 0.181345v -1.45647h 0.181345v -1.74835h 0.181345v 1.74835h 0.181345v
 -2.55282h 0.181345v -1.49205h 0.181345v 2.29652h 0.181345v 0.849186h 0.181345v 3.9657h 0.181345v -3.52273h 0.181345v -1.69968h 0.181345v 4.13042h 0.181345v -3.30419h 0.181345v -0.826224h 0.181345v 4.13042h 0.181345v 1.66872h 0.181345v -4.54242h
 0.181345v 1.85457h 0.181345v -2.28506h 0.181345v 6.84645h 0.181345v -7.67268h 0.181345v 3.11128h 0.181345v 4.5614h 0.181345v -3.54226h 0.181345v -2.8737h 0.181345v 6.41596h 0.181345v -3.54226h 0.181345v 0.536245h 0.181345v -3.40995h 0.181345v
 3.9657h 0.181345v 1.17607h 0.181345v 2.66437h 0.181345v -2.66437h 0.181345v -2.78613h 0.181345v 0.518064h 0.181345v 2.89189h 0.181345v 4.39619h 0.181345v -1.61006h 0.181345v -1.45647h 0.181345v -0.679286h 0.181345v -1.87354h 0.181345v 3.26371h
 0.181345v -3.84044h 0.544034v 2.45026h 0.181345v -3.00601h 0.181345v 5.14177h 0.36269v -2.13576h 0.36269v 2.91959h 0.181345v 3.61235h 0.36269v -2.78613h 0.36269v -3.06653h 0.181345v 5.85266h 0.181345v 3.40995h 0.181345v -7.0223h 0.181345v 5.79914h
 0.181345v -4.09945h 0.181345v -4.61928h 0.181345v 3.74582h 0.36269v -0.826224h 0.181345v 9.80844h 0.181345v -6.19608h 0.181345v -2.78613h 0.181345v 4.97291h 0.181345v -4.09945h 0.181345v 13.5592h 0.181345v -13.5592h 0.181345v 2.96698h 0.181345v
 -3.84044h 0.181345v 4.97291h 0.181345v -9.3691h 0.181345v 11.9219h 0.181345v -1.32966h 0.36269v -10.5923h 0.181345v 13.3784h 0.181345v -9.80844h 0.181345v 17.6146h 0.181345v -10.5923h 0.181345v -3.40995h 0.181345v 9.60603h 0.181345v -3.40995h
 0.181345v 1.61006h 0.181345v -4.39619h 0.181345v 10.5923h 0.181345v -6.19608h 0.36269v -1.61006h 0.181345v -6.19608h 0.181345v -3.61235h 0.181345v -0.783834h 0.181345v -0.745583h 0.181345v 9.88138h 0.181345v -10.5923h 0.181345v 3.93999h 0.181345v
 -5.26965h 0.36269v -3.40995h 0.181345v -0.501075h 0.181345v -0.955399h 0.181345v -0.899166h 0.181345v 1.85457h 0.181345v 1.01914h 0.181345v -3.30419h 0.181345v -7.0223h 0.181345v 3.27649h 0.181345v -4.06032h 0.181345v 3.40995h 0.181345v -2.08029h
 0.181345v -0.275348h 0.181345v 1.13247h 0.181345v 0.908074h 0.181345v -3.84044h 0.181345v 0.492992h 0.181345v -4.1436h 0.181345v 7.80614h 0.181345v -3.15311h 0.181345v -2.61248h 0.181345v 1.85457h 0.181345v 1.83073h 0.181345v 1.15386h 0.181345v
 2.6074h 0.181345v 1.889h 0.181345v -3.56997h 0.181345v 0.650371h 0.181345v -1.27419h 0.181345v 6.8199h 0.181345v -4.86642h 0.181345v 1.84337h 0.181345v 6.19608h 0.181345v -0.576726h 0.181345v 1.79989h 0.181345v 0.650371h 0.36269v 3.74582h 0.181345v
 2.78613h 0.181345v 1.05431h 0.181345v 2.35564h 0.181345v -1.22317h 0.181345v -4.97291h 0.181345v 4.97291h 0.36269v 4.0093h 0.181345v -7.18232h 0.36269v 5.72585h 0.181345v -6.65228h 0.181345v -2.48352h 0.181345v 2.48352h 0.181345v -1.69968h 0.181345v
 -5.36986h 0.181345v -3.52273h 0.181345v 2.96698h 0.181345v -5.4505h 0.181345v 2.04055h 0.181345v -1.65366h 0.181345v -4.09945h 0.181345v -4.83916h 0.181345v -1.45647h 0.181345v 5.42217h 0.181345v -9.8679h 0.181345v 2.06176h 0.181345v -3.61235h
 0.181345v -0.783834h 0.181345v -2.35564h 0.181345v 3.27411h 0.181345v -0.661636h 0.181345v -3.35806h 0.181345v 0.421583h 0.181345v -0.106491h 0.181345v 1.21432h 0.181345v -2.72857h 0.181345v -2.06456h 0.181345v 2.16097h 0.181345v -0.937804h
 0.181345v 1.52942h 0.181345v -2.49859h 0.181345v 1.33742h 0.36269v 1.36358h 0.181345v -1.36358h 0.181345v -2.48818h 0.181345v 2.67568h 0.181345v -1.52492h 0.181345v -1.07137h 0.181345v -2.1496h 0.181345v 0.707599h 0.181345v -0.638296h 0.181345v
 -2.78613h 0.181345v 2.04055h 0.181345v -1.92434h 0.181345v 0.235103h 0.181345v 0.66583h 0.181345v -0.606485h 0.181345v -0.866853h 0.181345v 1.16709h 0.181345v -1.50051h 0.181345v 0.389711h 0.181345v 1.1108h 0.181345v 1.59659h 0.181345v -1.1661h
 0.181345v 0.188274h 0.181345v 2.38725h 0.181345v 1.88317h 0.181345v 1.03643h 0.181345v 2.83984h 0.181345v -1.53454h 0.181345v 3.85435h 0.181345v 0.902962h 0.181345v -1.15145h 0.181345v 5.24068h 0.181345v -0.343417h 0.181345v 2.78613h 0.181345v
 -0.794018h 0.181345v 4.20397h 0.181345v 6.97991h 0.181345v 0.407529h 0.181345v 0.418695h 0.181345v 6.84645h 0.181345v -7.67268h 0.181345v 1.69968h 0.181345v 13.5592h 0.181345v -6.90697h 0.181345v 9.26261h 0.181345v 1.32966h 0.181345v 3.06653h
 0.181345v -12.2023h 0.181345v 24.5945h 0.181345v -16.7883h 0.181345v 6.19608h 0.181345v -4.86642h 0.181345v -5.72585h 0.181345v 14.9885h 0.181345v -6.19608h 0.181345v -1.61006h 0.181345v 7.80614h 0.181345v 2.78613h 0.181345v -8.98221h 0.181345v
 3.84044h 0.181345v -2.04055h 0.181345v 14.9885h 0.181345v -10.5923h 0.181345v 6.19608h 0.181345v -6.19608h 0.36269v 2.78613h 0.181345v 7.80614h 0.181345v -4.39619h 0.36269v 10.5923h 0.181345v -16.7883h 0.181345v 10.5923h 0.181345v 6.19608h 0.181345v
 -6.19608h 0.181345v -7.80614h 0.181345v 7.80614h 0.181345v -4.39619h 0.181345v 10.5923h 0.181345v -16.7883h 0.181345v 37.9729h 0.181345v -40.3285h 0.181345v 12.9479h 0.36269v -10.5923h 0.36269v 6.19608h 0.181345v -3.40995h 0.36269v 7.80614h
 0.181345v 6.19608h 0.181345v -10.5923h 0.181345v -3.40995h 0.181345v 7.80614h 0.36269v 6.19608h 0.36269v -6.19608h 0.181345v -7.80614h 0.181345v 7.80614h 0.181345v -10.5923h 0.181345v 10.5923h 0.181345v -4.39619h 0.181345v 21.1845h 0.181345v
 -10.5923h 0.181345v -10.5923h 0.181345v -10.5923h 0.181345v 31.7768h 0.181345v -16.7883h 0.181345v -4.39619h 0.181345v -6.19608h 0.181345v 10.5923h 0.181345v 6.19608h 0.181345v -6.19608h 0.36269v 6.19608h 0.181345v -6.19608h 0.181345v -7.80614h
 0.181345v -7.18232h 0.181345v 7.18232h 0.181345v -7.18232h 0.181345v 14.9885h 0.181345v -10.5923h 0.181345v 10.5923h 0.36269v -12.9479h 0.181345v -3.84044h 0.181345v 6.19608h 0.181345v 2.78613h 0.36269v -2.78613h 0.181345v -14.0022h 0.181345v
 6.19608h 0.181345v -1.45647h 0.181345v 6.90697h 0.181345v -9.45979h 0.181345v -2.18678h 0.181345v 6.19608h 0.181345v -2.78613h 0.181345v -7.0223h 0.181345v 8.35196h 0.181345v -9.13579h 0.181345v 3.40995h 0.181345v -3.40995h 0.181345v 2.48352h
 0.181345v 5.32262h 0.181345v -5.32262h 0.181345v -2.48352h 0.181345v 0.783834h 0.181345v -1.52942h 0.181345v -2.66437h 0.181345v 11.2161h 0.181345v -4.39619h 0.181345v -6.8199h 0.181345v 11.2161h 0.181345v -2.35564h 0.181345v 1.13247h 0.181345v
 1.22317h 0.181345v 4.39619h 0.181345v -4.39619h 0.181345v 27.3806h 0.181345v -10.5923h 0.181345v -10.5923h 0.36269v -1.79989h 0.181345v 1.79989h 0.181345v 4.39619h 0.181345v -2.35564h 0.181345v 5.14177h 0.181345v 7.80614h 0.181345v 16.7883h
 0.181345v -21.1845h 0.181345v -3.40995h 0.181345v 14.0022h 0.181345v -6.19608h 0.181345v -7.80614h 0.181345v 14.0022h 0.181345v -10.5923h 0.181345v 4.39619h 0.181345v 6.19608h 0.36269v -6.19608h 0.181345v 6.19608h 0.181345v -10.5923h 0.181345v
 4.39619h 0.181345v 16.7883h 0.544034v -10.5923h 0.181345v -14.0022h 0.181345v 3.40995h 0.181345v 4.39619h 0.181345v 16.7883h 0.181345v -10.5923h 0.181345v 10.5923h 0.181345v -21.1845h 0.36269v 10.5923h 0.181345v 21.1845h 0.181345v -27.3806h
 0.181345v -10.5923h 0.181345v 16.7883h 0.181345v -6.19608h 0.181345v 6.19608h 0.181345v 10.5923h 0.181345v -16.7883h 0.181345v 6.19608h 0.181345v -6.19608h 0.181345v 6.19608h 0.181345v -6.19608h 0.36269v 6.19608h 0.181345v -10.5923h 0.181345v
 -3.40995h 0.181345v 35.1868h 0.181345v -31.7768h 0.181345v -3.40995h 0.36269v 3.40995h 0.181345v 10.5923h 0.36269v 21.1845h 0.181345v -40.3285h 0.181345v 8.55172h 0.36269v -3.40995h 0.181345v 7.80614h 0.544034v -12.9479h 0.181345v 8.55172h 0.181345v
 -6.19608h 0.181345v 2.78613h 0.181345v 7.80614h 0.181345v -10.5923h 0.181345v -2.35564h 0.181345v 8.55172h 0.181345v -6.19608h 0.181345v -2.35564h 0.36269v -3.84044h 0.181345v 3.84044h 0.36269v -2.04055h 0.181345v 10.5923h 0.181345v -6.19608h
 0.181345v -2.35564h 0.181345v -6.90697h 0.181345v 12.0487h 0.181345v -7.18232h 0.181345v 4.39619h 0.181345v -7.80614h 0.181345v 1.61006h 0.181345v 3.84044h 0.181345v -5.4505h 0.181345v 3.40995h 0.181345v -10.5923h 0.181345v 3.17302h 0.181345v
 9.45979h 0.181345v -5.4505h 0.181345v 5.4505h 0.181345v -5.4505h 0.181345v 14.0022h 0.181345v -14.0022h 0.181345v 10.5923h 0.181345v -5.14177h 0.36269v -3.84044h 0.36269v 6.19608h 0.181345v 6.19608h 0.181345v -8.55172h 0.181345v -3.84044h 0.181345v
 16.7883h 0.181345v -18.3984h 0.181345v 5.4505h 0.181345v 2.35564h 0.36269v 6.19608h 0.181345v -16.7883h 0.181345v 27.3806h 0.181345v -10.5923h 0.181345v -6.19608h 0.181345v -2.35564h 0.181345v -5.4505h 0.181345v 5.4505h 0.181345v 5.14177h 0.36269v
 14.0022h 0.181345v -14.0022h 0.181345v -5.14177h 0.181345v -6.90697h 0.181345v 26.051h 0.181345v -21.1845h 0.181345v 4.39619h 0.181345v 6.19608h 0.181345v -3.40995h 0.181345v -2.78613h 0.181345v 10.5923h 0.181345v -4.39619h 0.181345v -6.19608h
 0.181345v 2.78613h 0.181345v -7.18232h 0.181345v 10.5923h 0.181345v -15.4587h 0.181345v 12.0487h 0.181345v -2.78613h 0.181345v 6.19608h 0.36269v -3.40995h 0.181345v -5.14177h 0.181345v -3.84044h 0.181345v -4.39619h 0.181345v 16.7883h 0.36269v
 -12.3922h 0.181345v 6.19608h 0.181345v 10.5923h 0.181345v -18.3984h 0.181345v 1.61006h 0.181345v 3.84044h 0.181345v -3.84044h 0.181345v 1.79989h 0.181345v 7.18232h 0.181345v -8.98221h 0.181345v -1.61006h 0.181345v -2.78613h 0.181345v 16.7883h
 0.181345v -8.55172h 0.181345v -3.84044h 0.181345v -3.06653h 0.181345v 3.06653h 0.181345v 8.98221h 0.181345v -7.18232h 0.181345v -8.55172h 0.181345v 2.35564h 0.181345v 6.19608h 0.181345v -7.41925h 0.181345v -2.18678h 0.181345v 9.60603h 0.181345v
 -6.19608h 0.181345v 1.32966h 0.36269v -1.32966h 0.181345v -7.0223h 0.181345v 13.2184h 0.181345v -10.5923h 0.181345v -1.79989h 0.181345v 12.3922h 0.181345v -4.86642h 0.544034v -7.52574h 0.544034v 7.52574h 0.36269v 4.86642h 0.181345v -7.41925h
 0.181345v -1.13247h 0.181345v 1.13247h 0.36269v 4.0093h 0.181345v -1.45647h 0.36269v -1.32966h 0.181345v -7.0223h 0.181345v 20.4007h 0.181345v -12.0487h 0.181345v 4.86642h 0.181345v -3.40995h 0.181345v -2.78613h 0.181345v -8.55172h 0.181345v
 6.19608h 0.181345v 8.55172h 0.181345v -7.41925h 0.181345v 4.0093h 0.181345v 5.4505h 0.181345v -8.23663h 0.181345v -6.19608h 0.181345v 3.84044h 0.36269v 2.35564h 0.181345v -9.26261h 0.181345v 1.45647h 0.181345v 3.40995h 0.181345v -1.79989h 0.181345v
 12.3922h 0.181345v -6.19608h 0.181345v -2.35564h 0.181345v -2.04055h 0.181345v -3.40995h 0.181345v 1.61006h 0.181345v -0.826224h 0.181345v 1.69968h 0.181345v -1.69968h 0.181345v 2.62611h 0.181345v 10.5923h 0.181345v -12.3922h 0.181345v -1.61006h
 0.181345v 3.40995h 0.181345v -0.92643h 0.181345v -4.61928h 0.181345v 2.13576h 0.181345v 3.40995h 0.36269v 4.39619h 0.181345v -7.0223h 0.181345v -4.19378h 0.181345v 14.0022h 0.181345v -12.728h 0.181345v -0.650371h 0.181345v 8.23663h 0.36269v 2.35564h
 0.181345v -3.40995h 0.181345v -2.78613h 0.181345v -2.35564h 0.181345v 5.14177h 0.181345v -4.39619h 0.181345v -2.78613h 0.181345v 2.78613h 0.181345v -3.40995h 0.181345v 1.27419h 0.181345v -1.27419h 0.181345v 2.66437h 0.181345v -3.26371h 0.181345v
 1.87354h 0.36269v -5.97299h 0.181345v 3.52273h 0.181345v 1.79989h 0.181345v -0.623818h 0.181345v 5.02001h 0.181345v -3.74582h 0.181345v -6.41596h 0.181345v 7.80614h 0.181345v -5.4505h 0.181345v 2.18678h 0.181345v -4.97291h 0.181345v 1.32966h
 0.181345v 8.43639h 0.181345v -7.48099h 0.181345v 3.28721h 0.181345v -1.17607h 0.181345v -1.09199h 0.181345v -1.01914h 0.181345v 1.55538h 0.181345v -2.51078h 0.181345v 3.06653h 0.181345v -3.52273h 0.181345v 1.91267h 0.181345v 1.05431h 0.181345v
 -5.4505h 0.181345v 7.18232h 0.181345v 5.89347h 0.181345v -3.93999h 0.181345v -1.32966h 0.181345v -1.22317h 0.181345v 1.22317h 0.181345v 7.18232h 0.181345v 1.05431h 0.181345v -4.66666h 0.181345v -2.24031h 0.181345v 3.93999h 0.181345v -2.48352h
 0.181345v 2.48352h 0.181345v -3.2291h 0.181345v -2.04055h 0.181345v 2.04055h 0.181345v 1.52942h 0.181345v 2.62611h 0.181345v 2.04055h 0.181345v -1.05431h 0.181345v -7.80614h 0.181345v 15.6123h 0.181345v -6.75183h 0.181345v -2.96698h 0.181345v
 1.91267h 0.181345v 7.80614h 0.181345v 1.79989h 0.181345v -14.0022h 0.181345v 10.5923h 0.36269v -1.45647h 0.181345v -2.55282h 0.181345v -6.58297h 0.181345v 1.61006h 0.181345v 2.78613h 0.181345v -0.98624h 0.181345v 4.39619h 0.181345v -6.19608h
 0.181345v 4.97291h 0.181345v -6.58297h 0.181345v 9.13579h 0.181345v -6.65228h 0.36269v 4.09945h 0.181345v 2.55282h 0.181345v -1.32966h 0.181345v 2.78613h 0.181345v -8.10875h 0.181345v 2.96698h 0.181345v 3.6853h 0.181345v -7.52574h 0.181345v 2.78613h
 0.181345v 1.05431h 0.181345v -1.05431h 0.181345v -0.98624h 0.181345v -2.62611h 0.181345v 4.66666h 0.181345v 5.14177h 0.181345v -10.5923h 0.181345v 14.0022h 0.181345v -9.60603h 0.181345v 2.18678h 0.181345v -4.97291h 0.181345v 4.97291h 0.181345v
 -8.71873h 0.181345v 8.71873h 0.181345v -4.09945h 0.181345v -5.26965h 0.181345v 6.19608h 0.181345v -0.92643h 0.181345v -1.69968h 0.181345v -0.783834h 0.181345v 1.61006h 0.181345v 4.97291h 0.181345v 7.41925h 0.181345v -7.41925h 0.181345v -5.79914h
 0.36269v 7.0223h 0.181345v 4.39619h 0.181345v -12.2023h 0.181345v 3.40995h 0.181345v 7.18232h 0.181345v -7.18232h 0.181345v 5.72585h 0.544034v -3.6853h 0.181345v -1.05431h 0.181345v -2.78613h 0.181345v 3.84044h 0.181345v 5.14177h 0.181345v -2.78613h
 0.181345v -4.39619h 0.181345v -3.40995h 0.181345v 10.5923h 0.181345v -7.18232h 0.181345v 3.17302h 0.181345v -4.97291h 0.181345v -2.35564h 0.181345v 6.19608h 0.181345v -2.04055h 0.181345v -1.79989h 0.181345v 6.19608h 0.181345v -9.26261h 0.181345v
 -2.55282h 0.181345v 6.49282h 0.181345v 8.10875h 0.181345v -11.3379h 0.181345v 4.15553h 0.181345v 2.04055h 0.181345v -6.90697h 0.181345v 3.06653h 0.181345v 3.84044h 0.181345v -2.04055h 0.181345v 3.17302h 0.181345v 4.0093h 0.181345v -8.98221h
 0.181345v -1.61006h 0.181345v 9.13579h 0.181345v -5.72585h 0.181345v 3.17302h 0.181345v -8.71873h 0.181345v 1.39018h 0.181345v 6.19608h 0.181345v 3.6853h 0.181345v -11.9219h 0.36269v 10.5923h 0.181345v -9.9419h 0.181345v 0.679286h 0.181345v 5.85266h
 0.181345v -5.14177h 0.181345v 2.35564h 0.181345v 2.78613h 0.181345v -5.85266h 0.181345v -0.679286h 0.181345v 0.679286h 0.181345v 3.06653h 0.181345v -5.02001h 0.181345v 12.5457h 0.181345v -6.65228h 0.181345v -5.26965h 0.181345v 4.39619h 0.181345v
 4.97291h 0.181345v -8.03945h 0.181345v -3.6853h 0.181345v 9.53796h 0.181345v -7.80614h 0.181345v 1.27419h 0.181345v 5.54571h 0.181345v -6.19608h 0.181345v 2.78613h 0.181345v 4.39619h 0.181345v -2.78613h 0.181345v -0.826224h 0.181345v -7.48099h
 0.181345v 8.30721h 0.181345v -3.74582h 0.181345v -0.650371h 0.181345v -1.22317h 0.181345v 6.49282h 0.181345v -7.62529h 0.181345v 3.6853h 0.181345v 4.86642h 0.181345v -7.41925h 0.181345v 4.0093h 0.181345v -2.78613h 0.181345v -1.79989h 0.36269v
 0.576726h 0.181345v -1.66872h 0.181345v 1.66872h 0.181345v -1.66872h 0.181345v 3.54226h 0.181345v 2.91959h 0.181345v -2.24031h 0.181345v -5.72585h 0.181345v 4.39619h 0.181345v 0.650371h 0.181345v 1.39018h 0.181345v -3.26371h 0.181345v 3.26371h
 0.181345v -0.710892h 0.181345v 9.26261h 0.181345v -9.26261h 0.181345v 1.45647h 0.181345v -2.78613h 0.181345v -0.623818h 0.181345v 3.40995h 0.181345v -2.78613h 0.181345v -3.40995h 0.181345v 4.06032h 0.181345v 1.39018h 0.181345v 4.15553h 0.181345v
 -0.92643h 0.36269v 2.96698h 0.181345v -3.84044h 0.181345v 1.79989h 0.181345v -1.79989h 0.181345v -2.35564h 0.181345v 6.19608h 0.181345v 19.144h 0.181345v -19.144h 0.181345v -1.05431h 0.181345v 1.05431h 0.181345v -2.04055h 0.181345v 8.79238h
 0.181345v -11.4185h 0.181345v 9.80844h 0.181345v -4.0093h 0.181345v 7.41925h 0.181345v 4.39619h 0.181345v -12.9479h 0.181345v 5.14177h 0.36269v -6.19608h 0.181345v 2.18678h 0.181345v -4.97291h 0.181345v -4.39619h 0.181345v 10.5923h 0.181345v
 -1.22317h 0.181345v -1.13247h 0.181345v 3.6853h 0.181345v -7.52574h 0.181345v 1.79989h 0.181345v 10.5923h 0.181345v -11.5187h 0.181345v 11.5187h 0.181345v -14.7478h 0.181345v 3.2291h 0.181345v -2.48352h 0.181345v -0.745583h 0.181345v 4.15553h
 0.181345v 2.04055h 0.181345v -2.96698h 0.181345v -4.61928h 0.181345v 4.61928h 0.181345v -1.69968h 0.181345v -1.52942h 0.181345v -0.710892h 0.36269v 6.90697h 0.181345v -8.86045h 0.181345v 1.95347h 0.36269v -0.679286h 0.181345v -3.00601h 0.181345v
 6.75183h 0.181345v 0.873461h 0.181345v 1.91267h 0.181345v -0.98624h 0.181345v 2.04055h 0.181345v -8.23663h 0.181345v 6.19608h 0.36269v -5.54571h 0.181345v 4.61928h 0.181345v 2.96698h 0.181345v -1.05431h 0.181345v 3.40995h 0.181345v -6.19608h
 0.181345v 12.3922h 0.181345v -9.60603h 0.181345v -1.91267h 0.181345v 1.91267h 0.181345v -1.91267h 0.181345v 11.5187h 0.181345v -4.86642h 0.181345v 3.06653h 0.181345v 6.19608h 0.181345v -2.35564h 0.181345v -5.4505h 0.181345v -4.0093h 0.181345v
 22.4077h 0.181345v -7.80614h 0.181345v -12.0487h 0.181345v 3.06653h 0.181345v -1.61006h 0.181345v -1.45647h 0.181345v 1.45647h 0.181345v 1.61006h 0.181345v -3.06653h 0.181345v 15.4587h 0.181345v -8.55172h 0.181345v -5.4505h 0.181345v 14.0022h
 0.181345v 21.1845h 0.181345v -33.5767h 0.181345v 8.98221h 0.181345v 7.80614h 0.181345v -10.5923h 0.181345v -9.26261h 0.181345v 9.26261h 0.181345v -2.35564h 0.181345v -2.04055h 0.181345v -1.79989h 0.181345v 33.5767h 0.181345v -37.9729h 0.181345v
 6.19608h 0.36269v 4.39619h 0.181345v -6.19608h 0.181345v 8.98221h 0.181345v -8.98221h 0.181345v -6.75183h 0.181345v 23.5402h 0.181345v -14.9885h 0.181345v 7.18232h 0.181345v -12.0487h 0.181345v -3.6853h 0.181345v 12.9479h 0.181345v 16.7883h
 0.181345v -24.5945h 0.181345v -1.45647h 0.181345v 4.86642h 0.181345v -1.79989h 0.181345v -8.79238h 0.181345v 8.79238h 0.544034v -5.61935h 0.181345v 14.6016h 0.181345v -10.5923h 0.181345v -1.45647h 0.181345v 6.90697h 0.181345v -5.4505h 0.181345v
 1.61006h 0.36269v 12.3922h 0.36269v -10.5923h 0.544034v -4.86642h 0.181345v -3.6853h 0.181345v -1.05431h 0.181345v 11.6466h 0.181345v -12.6328h 0.181345v 10.5923h 0.181345v -6.19608h 0.181345v 4.39619h 0.181345v -4.39619h 0.181345v 2.78613h
 0.181345v -1.45647h 0.181345v 19.8549h 0.181345v -22.4077h 0.181345v -1.13247h 0.181345v 12.9479h 0.181345v -10.5923h 0.181345v 6.19608h 0.181345v -1.79989h 0.181345v 1.79989h 0.181345v -1.79989h 0.181345v 1.79989h 0.181345v -11.5187h 0.181345v
 5.32262h 0.181345v 2.78613h 0.181345v -2.78613h 0.181345v 6.19608h 0.181345v -7.41925h 0.181345v 9.45979h 0.181345v -6.90697h 0.181345v -2.55282h 0.181345v 5.61935h 0.181345v -3.06653h 0.181345v -5.72585h 0.181345v 10.5923h 0.181345v -1.79989h
 0.181345v -1.61006h 0.181345v 7.80614h 0.181345v 6.19608h 0.181345v -12.3922h 0.36269v -1.61006h 0.181345v 7.80614h 0.181345v -2.35564h 0.181345v -9.45979h 0.181345v 2.55282h 0.181345v 4.86642h 0.181345v -3.40995h 0.181345v 1.61006h 0.181345v
 -1.61006h 0.181345v 5.4505h 0.181345v 2.35564h 0.181345v -12.9479h 0.181345v 3.6853h 0.181345v -7.52574h 0.181345v 8.98221h 0.36269v -1.45647h 0.181345v 4.86642h 0.181345v -9.60603h 0.181345v 9.60603h 0.181345v -1.79989h 0.181345v -1.61006h
 0.181345v -1.45647h 0.181345v 3.06653h 0.181345v -1.61006h 0.181345v -2.78613h 0.181345v 6.19608h 0.181345v 2.04055h 0.181345v -2.04055h 0.181345v -6.19608h 0.181345v 16.7883h 0.181345v -19.144h 0.181345v 2.35564h 0.544034v 1.32966h 0.181345v
 -1.32966h 0.181345v -2.35564h 0.36269v -2.04055h 0.181345v 0.98624h 0.181345v 2.18678h 0.181345v 1.22317h 0.544034v -2.35564h 0.181345v -6.19608h 0.181345v 4.15553h 0.181345v -3.40995h 0.181345v 0.783834h 0.181345v 1.69968h 0.181345v 5.32262h
 0.181345v -5.32262h 0.181345v -3.2291h 0.36269v 5.14177h 0.181345v -1.91267h 0.181345v -4.61928h 0.181345v -3.54226h 0.181345v 1.66872h 0.181345v 4.79313h 0.181345v -2.24031h 0.181345v 2.24031h 0.181345v 3.61235h 0.181345v -4.39619h 0.181345v
 2.48352h 0.181345v -9.18067h 0.181345v 10.1071h 0.181345v -3.40995h 0.181345v -3.40995h 0.181345v 4.19378h 0.36269v -4.79313h 0.181345v 8.40549h 0.181345v -7.80614h 0.181345v 3.40995h 0.181345v -0.745583h 0.181345v -4.39619h 0.181345v 3.6853h
 0.181345v 0.710892h 0.181345v 1.52942h 0.181345v 0.826224h 0.181345v 1.79989h 0.181345v -3.40995h 0.181345v 2.48352h 0.181345v 9.71881h 0.181345v -7.80614h 0.181345v -3.61235h 0.181345v 2.62611h 0.181345v 5.72585h 0.181345v -2.55282h 0.181345v
 11.8154h 0.181345v -10.5923h 0.181345v -1.22317h 0.181345v 1.22317h 0.181345v 8.23663h 0.181345v 2.35564h 0.181345v -2.35564h 0.181345v -5.4505h 0.181345v 10.5923h 0.181345v -12.0487h 0.181345v 1.45647h 0.181345v 14.0022h 0.36269v -3.40995h
 0.181345v 3.40995h 0.181345v -6.19608h 0.36269v 6.19608h 0.181345v 10.5923h 0.181345v -6.19608h 0.181345v -7.80614h 0.181345v 3.40995h 0.181345v 31.7768h 0.181345v -27.3806h 0.181345v 6.19608h 0.181345v -6.19608h 0.181345v 16.7883h 0.181345v
 -10.5923h 0.181345v -14.0022h 0.36269v 14.0022h 0.36269v -6.19608h 0.181345v 6.19608h 0.181345v 21.1845h 0.181345v -37.9729h 0.181345v 16.7883h 0.181345v 21.1845h 0.181345v -10.5923h 0.181345v -16.7883h 0.181345v 16.7883h 0.181345v -10.5923h
 0.181345v 21.1845h 0.181345v -21.1845h 0.181345v 10.5923h 0.181345v 10.5923h 0.181345v -21.1845h 0.181345v -14.0022h 0.181345v 35.1868h 0.181345v -21.1845h 0.181345v 21.1845h 0.181345v -21.1845h 0.181345v 10.5923h 0.36269v -27.3806h 0.181345v
 37.9729h 0.181345v -21.1845h 0.181345v 21.1845h 0.36269v -31.7768h 0.36269v 10.5923h 0.181345v 10.5923h 0.181345v 10.5923h 0.181345v -10.5923h 0.544034v -16.7883h 0.181345v 27.3806h 0.181345v -21.1845h 0.181345v 21.1845h 0.181345v -21.1845h
 0.181345v -10.5923h 0.181345v 21.1845h 0.181345v 10.5923h 0.36269v -21.1845h 0.36269v 21.1845h 0.181345v -10.5923h 0.36269v 10.5923h 0.36269v -21.1845h 0.36269v 10.5923h 0.36269v 10.5923h 0.544034v -31.7768h 0.181345v -3.40995h 0.181345v 35.1868h
 0.36269v -10.5923h 0.181345v -16.7883h 0.36269v 6.19608h 0.181345v 10.5923h 0.181345v 10.5923h 0.181345v -21.1845h 0.181345v 21.1845h 0.36269v -10.5923h 0.181345v 10.5923h 0.725379v -10.5923h 0.181345v 10.5923h 0.544034v -10.5923h 0.36269v 10.5923h
 0.181345v -10.5923h 0.181345v -10.5923h 0.181345v 10.5923h 0.181345v 10.5923h 0.181345v -21.1845h 0.181345v 21.1845h 0.181345v -10.5923h 0.36269v 10.5923h 0.36269v -10.5923h 0.181345v -16.7883h 0.181345v 27.3806h 0.181345v -10.5923h 0.181345v
 10.5923h 0.181345v -27.3806h 0.181345v 27.3806h 0.181345v -10.5923h 0.36269v -16.7883h 0.181345v 16.7883h 0.181345v -16.7883h 0.181345v 16.7883h 0.36269v 10.5923h 0.36269v -21.1845h 0.181345v 10.5923h 0.181345v -10.5923h 0.36269v 21.1845h 0.181345v
 -27.3806h 0.181345v 27.3806h 0.181345v -10.5923h 0.181345v 10.5923h 0.181345v -21.1845h 0.181345v 10.5923h 0.181345v -10.5923h 0.36269v 10.5923h 0.36269v -16.7883h 0.181345v 27.3806h 0.181345v -10.5923h 0.544034v 10.5923h 0.181345v -10.5923h
 0.181345v 10.5923h 0.181345v -10.5923h 0.181345v 10.5923h 0.181345v -21.1845h 0.181345v 10.5923h 0.181345v 10.5923h 0.36269v -10.5923h 0.181345v 10.5923h 0.181345v -21.1845h 0.181345v 21.1845h 0.725379v -27.3806h 0.181345v 27.3806h 0.181345v
 -10.5923h 0.181345v 10.5923h 0.181345v -10.5923h 0.181345v 10.5923h 0.181345v -10.5923h 0.544034v -10.5923h 0.181345v 21.1845h 0.181345v -10.5923h 0.181345v -16.7883h 0.181345v 27.3806h 0.181345v -10.5923h 0.181345v 10.5923h 0.181345v -21.1845h
 0.181345v 10.5923h 0.544034v 10.5923h 0.544034v -10.5923h 0.181345v -10.5923h 0.181345v 10.5923h 0.181345v 10.5923h 0.36269v -10.5923h 0.181345v 10.5923h 0.36269v -10.5923h 0.181345v 10.5923h 0.181345v -10.5923h 0.36269v -10.5923h 0.181345v 10.5923h
 0.544034v 10.5923h 0.725379v -10.5923h 0.181345v 10.5923h 0.36269v -10.5923h 0.36269v 10.5923h 0.181345v -10.5923h 0.181345v 10.5923h 0.906724v -21.1845h 0.181345v 21.1845h 0.906724v -10.5923h 0.181345v 10.5923h 0.181345v -10.5923h 0.181345v
 -10.5923h 0.181345v 21.1845h 0.181345v -10.5923h 0.181345v 10.5923h 0.181345v -27.3806h 0.181345v 27.3806h 0.36269v -10.5923h 0.544034v 10.5923h 0.725379v -10.5923h 0.544034v 10.5923h 0.544034v -10.5923h 0.181345v 10.5923h 0.181345v -10.5923h
 0.181345v 10.5923h 0.544034v -21.1845h 0.181345v 10.5923h 0.181345v 10.5923h 0.725379v -10.5923h 0.181345v 10.5923h 0.544034v -21.1845h 0.181345v 10.5923h 0.181345v 10.5923h 0.181345v -10.5923h 0.36269v 10.5923h 0.36269v -10.5923h 0.36269v 10.5923h
 0.181345v -27.3806h 0.181345v 27.3806h 0.181345v -21.1845h 0.181345v 21.1845h 0.181345v -10.5923h 0.181345v 10.5923h 0.181345v -10.5923h 0.181345v 10.5923h 0.725379v -21.1845h 0.181345v -6.19608h 0.181345v 27.3806h 0.544034v -10.5923h 0.181345v
 10.5923h 0.36269v -10.5923h 0.544034v 10.5923h 0.544034v -10.5923h 0.181345v -10.5923h 0.181345v 21.1845h 0.181345v -27.3806h 0.181345v 6.19608h 0.544034v 10.5923h 0.181345v -10.5923h 0.36269v 10.5923h 0.36269v -10.5923h 0.181345v 21.1845h 0.181345v
 -10.5923h 0.181345v -10.5923h 0.181345v 10.5923h 0.181345v 10.5923h 0.36269v -21.1845h 0.181345v 10.5923h 0.181345v 10.5923h 0.181345v -10.5923h 0.181345v 10.5923h 0.181345v -10.5923h 0.181345v -10.5923h 0.181345v 21.1845h 0.181345v -10.5923h
 0.36269v 10.5923h 0.544034v -27.3806h 0.181345v 27.3806h 0.544034v -27.3806h 0.181345v 6.19608h 0.181345v 10.5923h 0.181345v 10.5923h 0.181345v -10.5923h 0.36269v -10.5923h 0.181345v 10.5923h 0.181345v -10.5923h 0.36269v 21.1845h 0.544034v -10.5923h
 0.544034v 10.5923h 0.181345v -21.1845h 0.181345v 10.5923h 0.181345v 10.5923h 0.181345v -27.3806h 0.181345v 27.3806h 1.08807v -21.1845h 0.181345v 21.1845h 0.181345v -10.5923h 0.181345v 10.5923h 0.181345v -10.5923h 0.181345v 10.5923h 0.181345v
 -10.5923h 0.181345v 10.5923h 0.181345v -10.5923h 0.36269v -10.5923h 0.181345" fill="none" stroke="black"/>
<path d="M57.1929,280.151h 453.543" fill="none" stroke="black"/>
<path d="M57.1929,272.68v 7.47068" fill="none" stroke="black"/>
<path d="M75.3318,276.415v 3.73534" fill="none" stroke="black"/>
<path d="M93.4707,276.415v 3.73534" fill="none" stroke="black"/>
<path d="M111.61,276.415v 3.73534" fill="none" stroke="black"/>
<path d="M129.749,276.415v 3.73534" fill="none" stroke="black"/>
<path d="M147.887,272.68v 7.47068" fill="none" stroke="black"/>
<path d="M166.026,276.415v 3.73534" fill="none" stroke="black"/>
<path d="M184.165,276.415v 3.73534" fill="none" stroke="black"/>
<path d="M202.304,276.415v 3.73534" fill="none" stroke="black"/>
<path d="M220.443,276.415v 3.73534" fill="none" stroke="black"/>
<path d="M238.582,272.68v 7.47068" fill="none" stroke="black"/>
<path d="M256.721,276.415v 3.73534" fill="none" stroke="black"/>
<path d="M274.86,276.415v 3.73534" fill="none" stroke="black"/>
<path d="M292.999,276.415v 3.73534" fill="none" stroke="black"/>
<path d="M311.138,276.415v 3.73534" fill="none" stroke="black"/>
<path d="M329.277,272.68v 7.47068" fill="none" stroke="black"/>
<path d="M347.415,276.415v 3.73534" fill="none" stroke="black"/>
<path d="M365.554,276.415v 3.73534" fill="none" stroke="black"/>
<path d="M383.693,276.415v 3.73534" fill="none" stroke="black"/>
<path d="M401.832,276.415v 3.73534" fill="none" stroke="black"/>
<path d="M419.971,272.68v 7.47068" fill="none" stroke="black"/>
<path d="M438.11,276.415v 3.73534" fill="none" stroke="black"/>
<path d="M456.249,276.415v 3.73534" fill="none" stroke="black"/>
<path d="M474.388,276.415v 3.73534" fill="none" stroke="black"/>
<path d="M492.527,276.415v 3.73534" fill="none" stroke="black"/>
<path d="M510.666,272.68v 7.47068" fill="none" stroke="black"/>
<path d="M510.666,272.68v 7.47068" fill="none" stroke="black"/>
<text xml:space="preserve" x="54.3523" y="290.27" fill="black" font-size="10.4952" font-family="Helvetica">0</text>
<text xml:space="preserve" x="139.569" y="290.27" fill="black" font-size="10.4952" font-family="Helvetica">500</text>
<text xml:space="preserve" x="227.449" y="290.27" fill="black" font-size="10.4952" font-family="Helvetica">1000</text>
<text xml:space="preserve" x="318.288" y="290.27" fill="black" font-size="10.4952" font-family="Helvetica">1500</text>
<text xml:space="preserve" x="408.831" y="290.27" fill="black" font-size="10.4952" font-family="Helvetica">2000</text>
<text xml:space="preserve" x="499.67" y="290.27" fill="black" font-size="10.4952" font-family="Helvetica">2500</text>
<text xml:space="preserve" x="265.323" y="301.218" fill="black" font-size="10.4952" font-family="Helvetica">Channel</text>
<path d="M57.1929,280.151v -249.023" fill="none" stroke="black"/>
<path d="M63.9961,280.151h -6.80315" fill="none" stroke="black"/>
<path d="M63.9961,277.364h -6.80315" fill="none" stroke="black"/>
<path d="M63.9961,275.009h -6.80315" fill="none" stroke="black"/>
<path d="M63.9961,272.968h -6.80315" fill="none" stroke="black"/>
<path d="M63.9961,271.168h -6.80315" fill="none" stroke="black"/>
<path d="M70.7992,269.558h -13.6063" fill="none" stroke="black"/>
<text xml:space="preserve" x="49.0263" y="273.404" fill="black" font-size="10.4952" font-family="Helvetica">1</text>
<path d="M63.9961,258.966h -6.80315" fill="none" stroke="black"/>
<path d="M63.9961,252.77h -6.80315" fill="none" stroke="black"/>
<path d="M63.9961,248.374h -6.80315" fill="none" stroke="black"/>
<path d="M63.9961,244.964h -6.80315" fill="none" stroke="black"/>
<path d="M63.9961,242.178h -6.80315" fill="none" stroke="black"/>
<path d="M63.9961,239.822h -6.80315" fill="none" stroke="black"/>
<path d="M63.9961,237.781h -6.80315" fill="none" stroke="black"/>
<path d="M63.9961,235.982h -6.80315" fill="none" stroke="black"/>
<path d="M70.7992,234.372h -13.6063" fill="none" stroke="black"/>
<text xml:space="preserve" x="41.629" y="238.193" fill="black" font-size="10.4952" font-family="Helvetica">10</text>
<path d="M63.9961,223.779h -6.80315" fill="none" stroke="black"/>
<path d="M63.9961,217.583h -6.80315" fill="none" stroke="black"/>
<path d="M63.9961,213.187h -6.80315" fill="none" stroke="black"/>
<path d="M63.9961,209.777h -6.80315" fill="none" stroke="black"/>
<path d="M63.9961,206.991h -6.80315" fill="none" stroke="black"/>
<path d="M63.9961,204.635h -6.80315" fill="none" stroke="black"/>
<path d="M63.9961,202.595h -6.80315" fill="none" stroke="black"/>
<path d="M63.9961,200.795h -6.80315" fill="none" stroke="black"/>
<path d="M70.7992,199.185h -13.6063" fill="none" stroke="black"/>
<text xml:space="preserve" x="49.0263" y="199.431" fill="black" font-size="7.16345" font-family="Helvetica">2</text>
<text xml:space="preserve" x="38.0783" y="203.87" fill="black" font-size="10.4952" font-family="Helvetica">10</text>
<path d="M63.9961,188.592h -6.80315" fill="none" stroke="black"/>
<path d="M63.9961,182.396h -6.80315" fill="none" stroke="black"/>
<path d="M63.9961,178h -6.80315" fill="none" stroke="black"/>
<path d="M63.9961,174.59h -6.80315" fill="none" stroke="black"/>
<path d="M63.9961,171.804h -6.80315" fill="none" stroke="black"/>
<path d="M63.9961,169.449h -6.80315" fill="none" stroke="black"/>
<path d="M63.9961,167.408h -6.80315" fill="none" stroke="black"/>
<path d="M63.9961,165.608h -6.80315" fill="none" stroke="black"/>
<path d="M70.7992,163.998h -13.6063" fill="none" stroke="black"/>
<text xml:space="preserve" x="49.0263" y="163.924" fill="black" font-size="7.16345" font-family="Helvetica">3</text>
<text xml:space="preserve" x="38.0783" y="168.658" fill="black" font-size="10.4952" font-family="Helvetica">10</text>
<path d="M63.9961,153.406h -6.80315" fill="none" stroke="black"/>
<path d="M63.9961,147.21h -6.80315" fill="none" stroke="black"/>
<path d="M63.9961,142.813h -6.80315" fill="none" stroke="black"/>
<path d="M63.9961,139.404h -6.80315" fill="none" stroke="black"/>
<path d="M63.9961,136.617h -6.80315" fill="none" stroke="black"/>
<path d="M63.9961,134.262h -6.80315" fill="none" stroke="black"/>
<path d="M63.9961,132.221h -6.80315" fill="none" stroke="black"/>
<path d="M63.9961,130.421h -6.80315" fill="none" stroke="black"/>
<path d="M70.7992,128.811h -13.6063" fill="none" stroke="black"/>
<text xml:space="preserve" x="49.0263" y="129.009" fill="black" font-size="7.16345" font-family="Helvetica">4</text>
<text xml:space="preserve" x="38.0783" y="133.447" fill="black" font-size="10.4952" font-family="Helvetica">10</text>
<path d="M63.9961,118.219h -6.80315" fill="none" stroke="black"/>
<path d="M63.9961,112.023h -6.80315" fill="none" stroke="black"/>
<path d="M63.9961,107.627h -6.80315" fill="none" stroke="black"/>
<path d="M63.9961,104.217h -6.80315" fill="none" stroke="black"/>
<path d="M63.9961,101.431h -6.80315" fill="none" stroke="black"/>
<path d="M63.9961,99.075h -6.80315" fill="none" stroke="black"/>
<path d="M63.9961,97.0345h -6.80315" fill="none" stroke="black"/>
<path d="M63.9961,95.2346h -6.80315" fill="none" stroke="black"/>
<path d="M70.7992,93.6245h -13.6063" fill="none" stroke="black"/>
<text xml:space="preserve" x="49.0263" y="93.5019" fill="black" font-size="7.16345" font-family="Helvetica">5</text>
<text xml:space="preserve" x="38.0783" y="98.2362" fill="black" font-size="10.4952" font-family="Helvetica">10</text>
<path d="M63.9961,83.0322h -6.80315" fill="none" stroke="black"/>
<path d="M63.9961,76.8362h -6.80315" fill="none" stroke="black"/>
<path d="M63.9961,72.44h -6.80315" fill="none" stroke="black"/>
<path d="M63.9961,69.03h -6.80315" fill="none" stroke="black"/>
<path d="M63.9961,66.2439h -6.80315" fill="none" stroke="black"/>
<path d="M63.9961,63.8883h -6.80315" fill="none" stroke="black"/>
<path d="M63.9961,61.8477h -6.80315" fill="none" stroke="black"/>
<path d="M63.9961,60.0478h -6.80315" fill="none" stroke="black"/>
<path d="M70.7992,58.4378h -13.6063" fill="none" stroke="black"/>
<text xml:space="preserve" x="49.0263" y="58.2907" fill="black" font-size="7.16345" font-family="Helvetica">6</text>
<text xml:space="preserve" x="38.0783" y="63.025" fill="black" font-size="10.4952" font-family="Helvetica">10</text>
<path d="M63.9961,47.8455h -6.80315" fill="none" stroke="black"/>
<path d="M63.9961,41.6494h -6.80315" fill="none" stroke="black"/>
<path d="M63.9961,37.2532h -6.80315" fill="none" stroke="black"/>
<path d="M63.9961,33.8433h -6.80315" fill="none" stroke="black"/>
<g transform="rotate(-90,26.5385,191.442)">
<text xml:space="preserve" x="26.5385" y="191.442" fill="black" font-size="10.4952" font-family="Helvetica">Counts/Channel</text>
</g>
<text xml:space="preserve" x="404.097" y="58.2907" fill="black" font-size="14.7788" font-family="Helvetica" font-weight="bold"> = 2.4879 MeV</text>
<text xml:space="preserve" x="398.179" y="61.5455" fill="black" font-size="10.0192" font-family="Helvetica" font-weight="bold">p</text>
<text xml:space="preserve" x="389.006" y="58.2907" fill="black" font-size="14.7788" font-family="Helvetica" font-weight="bold">E</text>
<path d="M262.163,162.542v 26.4786" fill="none" stroke="black"/>
<path d="M264.454,189.02l -2.29122, 3.9685l -2.29122, -3.9685z" fill="black"/>
<path d="M264.454,189.02l -2.29122, 3.9685l -2.29122, -3.9685h 4.58243z" fill="none" stroke="black"/>
<text xml:space="preserve" x="266.803" y="160.373" fill="black" font-size="10.4952" font-family="Helvetica" font-weight="bold">_1 	1.369 MeV</text>
<text xml:space="preserve" x="260.293" y="160.373" fill="black" font-size="10.4952" font-family="Times">&#0945;</text>
<path d="M184.528,128.811v 31.2183" fill="none" stroke="black"/>
<path d="M186.819,160.03l -2.29122, 3.9685l -2.29122, -3.9685z" fill="black"/>
<path d="M186.819,160.03l -2.29122, 3.9685l -2.29122, -3.9685h 4.58243z" fill="none" stroke="black"/>
<text xml:space="preserve" x="172.117" y="125.754" fill="black" font-size="10.4952" font-family="Helvetica" font-weight="bold"># p_1 	0.844 MeV</text>
<path d="M210.104,147.21v 12.8198" fill="none" stroke="black"/>
<path d="M212.395,160.03l -2.29122, 3.9685l -2.29122, -3.9685z" fill="black"/>
<path d="M212.395,160.03l -2.29122, 3.9685l -2.29122, -3.9685h 4.58243z" fill="none" stroke="black"/>
<text xml:space="preserve" x="197.564" y="142.62" fill="black" font-size="10.4952" font-family="Helvetica" font-weight="bold"># p_2 	1.015 MeV</text>
<path d="M497.47,269.558h 13.1952" fill="none" stroke="black"/>
<path d="M504.068,258.966h 6.59758" fill="none" stroke="black"/>
<path d="M504.068,252.77h 6.59758" fill="none" stroke="black"/>
<path d="M504.068,248.374h 6.59758" fill="none" stroke="black"/>
<path d="M504.068,244.964h 6.59758" fill="none" stroke="black"/>
<path d="M504.068,242.178h 6.59758" fill="none" stroke="black"/>
<path d="M504.068,239.822h 6.59758" fill="none" stroke="black"/>
<path d="M504.068,237.781h 6.59758" fill="none" stroke="black"/>
<path d="M504.068,235.982h 6.59758" fill="none" stroke="black"/>
<path d="M497.47,234.372h 13.1952" fill="none" stroke="black"/>
<path d="M504.068,223.779h 6.59758" fill="none" stroke="black"/>
<path d="M504.068,217.583h 6.59758" fill="none" stroke="black"/>
<path d="M504.068,213.187h 6.59758" fill="none" stroke="black"/>
<path d="M504.068,209.777h 6.59758" fill="none" stroke="black"/>
<path d="M504.068,206.991h 6.59758" fill="none" stroke="black"/>
<path d="M504.068,204.635h 6.59758" fill="none" stroke="black"/>
<path d="M504.068,202.595h 6.59758" fill="none" stroke="black"/>
<path d="M504.068,200.795h 6.59758" fill="none" stroke="black"/>
<path d="M497.47,199.185h 13.1952" fill="none" stroke="black"/>
<path d="M504.068,188.592h 6.59758" fill="none" stroke="black"/>
<path d="M504.068,182.396h 6.59758" fill="none" stroke="black"/>
<path d="M504.068,178h 6.59758" fill="none" stroke="black"/>
<path d="M504.068,174.59h 6.59758" fill="none" stroke="black"/>
<path d="M504.068,171.804h 6.59758" fill="none" stroke="black"/>
<path d="M504.068,169.449h 6.59758" fill="none" stroke="black"/>
<path d="M504.068,167.408h 6.59758" fill="none" stroke="black"/>
<path d="M504.068,165.608h 6.59758" fill="none" stroke="black"/>
<path d="M497.47,163.998h 13.1952" fill="none" stroke="black"/>
<path d="M504.068,153.406h 6.59758" fill="none" stroke="black"/>
<path d="M504.068,147.21h 6.59758" fill="none" stroke="black"/>
<path d="M504.068,142.813h 6.59758" fill="none" stroke="black"/>
<path d="M504.068,139.404h 6.59758" fill="none" stroke="black"/>
<path d="M504.068,136.617h 6.59758" fill="none" stroke="black"/>
<path d="M504.068,134.262h 6.59758" fill="none" stroke="black"/>
<path d="M504.068,132.221h 6.59758" fill="none" stroke="black"/>
<path d="M504.068,130.421h 6.59758" fill="none" stroke="black"/>
<path d="M497.47,128.811h 13.1952" fill="none" stroke="black"/>
<path d="M504.068,118.219h 6.59758" fill="none" stroke="black"/>
<path d="M504.068,112.023h 6.59758" fill="none" stroke="black"/>
<path d="M504.068,107.627h 6.59758" fill="none" stroke="black"/>
<path d="M504.068,104.217h 6.59758" fill="none" stroke="black"/>
<path d="M504.068,101.431h 6.59758" fill="none" stroke="black"/>
<path d="M504.068,99.075h 6.59758" fill="none" stroke="black"/>
<path d="M504.068,97.0345h 6.59758" fill="none" stroke="black"/>
<path d="M504.068,95.2346h 6.59758" fill="none" stroke="black"/>
<path d="M497.47,93.6245h 13.1952" fill="none" stroke="black"/>
<path d="M504.068,83.0322h 6.59758" fill="none" stroke="black"/>
<path d="M504.068,76.8362h 6.59758" fill="none" stroke="black"/>
<path d="M504.068,72.44h 6.59758" fill="none" stroke="black"/>
<path d="M504.068,69.03h 6.59758" fill="none" stroke="black"/>
<path d="M504.068,66.2439h 6.59758" fill="none" stroke="black"/>
<path d="M504.068,63.8883h 6.59758" fill="none" stroke="black"/>
<path d="M504.068,61.8477h 6.59758" fill="none" stroke="black"/>
<path d="M504.068,60.0478h 6.59758" fill="none" stroke="black"/>
<path d="M497.47,58.4378h 13.1952" fill="none" stroke="black"/>
<path d="M504.068,47.8455h 6.59758" fill="none" stroke="black"/>
<path d="M504.068,41.6494h 6.59758" fill="none" stroke="black"/>
<path d="M504.068,37.2532h 6.59758" fill="none" stroke="black"/>
<path d="M504.068,33.8433h 6.59758" fill="none" stroke="black"/>
<path d="M504.068,31.0571h 6.59758" fill="none" stroke="black"/>
<path d="M504.068,28.7015h 6.59758" fill="none" stroke="black"/>
<path d="M57.1929,35.5298v -7.46952" fill="none" stroke="black"/>
<path d="M75.3318,35.5298v -7.46952" fill="none" stroke="black"/>
<path d="M93.4707,35.5298v -7.46952" fill="none" stroke="black"/>
<path d="M111.61,35.5298v -7.46952" fill="none" stroke="black"/>
<path d="M129.749,35.5298v -7.46952" fill="none" stroke="black"/>
<path d="M147.887,35.5298v -7.46952" fill="none" stroke="black"/>
<path d="M166.026,35.5298v -7.46952" fill="none" stroke="black"/>
<path d="M184.165,35.5298v -7.46952" fill="none" stroke="black"/>
<path d="M202.304,35.5298v -7.46952" fill="none" stroke="black"/>
<path d="M220.443,35.5298v -7.46952" fill="none" stroke="black"/>
<path d="M238.582,35.5298v -7.46952" fill="none" stroke="black"/>
<path d="M256.721,35.5298v -7.46952" fill="none" stroke="black"/>
<path d="M274.86,35.5298v -7.46952" fill="none" stroke="black"/>
<path d="M292.999,35.5298v -7.46952" fill="none" stroke="black"/>
<path d="M311.138,35.5298v -7.46952" fill="none" stroke="black"/>
<path d="M329.277,35.5298v -7.46952" fill="none" stroke="black"/>
<path d="M347.415,35.5298v -7.46952" fill="none" stroke="black"/>
<path d="M365.554,35.5298v -7.46952" fill="none" stroke="black"/>
<path d="M383.693,35.5298v -7.46952" fill="none" stroke="black"/>
<path d="M401.832,35.5298v -7.46952" fill="none" stroke="black"/>
<path d="M419.971,35.5298v -7.46952" fill="none" stroke="black"/>
<path d="M438.11,35.5298v -7.46952" fill="none" stroke="black"/>
<path d="M456.249,35.5298v -7.46952" fill="none" stroke="black"/>
<path d="M474.388,35.5298v -7.46952" fill="none" stroke="black"/>
<path d="M492.527,35.5298v -7.46952" fill="none" stroke="black"/>
<path d="M510.666,35.5298v -7.46952" fill="none" stroke="black"/></svg>
