<?xml version="1.0" standalone="no"?>
<svg width="567.429" height="311.778" viewBox="0 0 567.429 311.778" xmlns="http://www.w3.org/2000/svg" shape-rendering="crispEdges">
<title>
Yields/P1/run_0106/det2_Fit.svg
</title>
<desc>
Creator: ROOT Version 6.12/06
CreationDate: Mon Apr 15 10:29:02 2019</desc>
<defs>
</defs>
<rect x="0.5" y="0" width="566.929" height="311.278" fill="white"/>
<rect x="57.1929" y="31.1278" width="453.543" height="249.023" fill="white"/>
<rect x="57.1929" y="31.1278" width="453.543" height="249.023" fill="none" stroke="black"/>
<path d="M57.1929,40.8692h 0.181345v 239.281h 4.53362v -10.5655h 0.181345v 10.5655h 6.16572v -10.5655h 0.181345v 10.5655h 16.8651v -10.5655h 0.181345v 10.5655h 3.08286v -21.1311h 0.181345v 21.1311h 0.181345v -31.6966h 0.181345v -3.40134h 0.181345v
 -21.8748h 0.181345v -11.9522h 0.181345v -10.0602h 0.181345v -9.5932h 0.181345v -2.28436h 0.181345v -4.58027h 0.181345v -2.06446h 0.181345v -1.72745h 0.181345v -0.402918h 0.181345v -1.94678h 0.181345v -0.0775719h 0.181345v -0.717887h 0.181345v
 0.912562h 0.181345v -0.838568h 0.181345v -2.49208h 0.181345v 1.34922h 0.181345v -1.69177h 0.181345v -0.365115h 0.181345v 0.120736h 0.181345v -1.3893h 0.181345v 0.794965h 0.181345v -0.288699h 0.181345v 0.612713h 0.181345v -0.324015h 0.181345v
 0.264588h 0.181345v 0.72888h 0.181345v -1.8712h 0.181345v 0.446709h 0.181345v 0.401906h 0.181345v 0.502719h 0.181345v -2.12906h 0.181345v 0.184126h 0.181345v 0.648729h 0.181345v -1.37225h 0.181345v 1.12573h 0.181345v 0.638101h 0.181345v -1.19827h
 0.181345v 1.05726h 0.181345v 0.197778h 0.181345v -0.830124h 0.181345v 0.0810073h 0.181345v -0.970207h 0.181345v 0.204605h 0.181345v 2.09436h 0.181345v 0.0888798h 0.181345v -0.352451h 0.181345v -0.086854h 0.181345v -1.48426h 0.181345v 1.19827h
 0.181345v -0.80026h 0.181345v 1.67485h 0.181345v -0.530752h 0.181345v -0.456749h 0.181345v 0.198146h 0.181345v 0.258603h 0.181345v 0.530752h 0.181345v 0.959765h 0.181345v -1.63473h 0.181345v 1.16277h 0.181345v -0.397529h 0.181345v -0.908103h
 0.181345v 0.432655h 0.181345v -0.574186h 0.181345v 0.141532h 0.181345v -2.2437h 0.181345v -0.291738h 0.181345v -2.48327h 0.181345v -1.12377h 0.181345v -2.88328h 0.181345v -0.280551h 0.181345v -2.99125h 0.181345v -1.14864h 0.181345v -0.913702h
 0.181345v -0.862016h 0.181345v -1.06212h 0.181345v 0.936921h 0.181345v 1.83046h 0.181345v -0.313101h 0.181345v 2.39376h 0.181345v 2.06805h 0.181345v 2.30362h 0.181345v 2.39748h 0.181345v 3.94484h 0.181345v 3.62676h 0.181345v 1.70957h 0.181345v
 1.24255h 0.181345v 1.86336h 0.181345v -0.372932h 0.181345v 1.8588h 0.181345v 0.475552h 0.181345v -1.08739h 0.181345v 1.35814h 0.181345v 0.443459h 0.181345v 0.169681h 0.181345v -0.225824h 0.181345v 1.40803h 0.181345v 1.01657h 0.181345v -1.139h
 0.181345v -0.420934h 0.181345v -0.409621h 0.181345v 1.20084h 0.181345v 0.188574h 0.181345v -0.558863h 0.181345v 0.622243h 0.181345v -0.804069h 0.181345v 0.740689h 0.181345v 0.514575h 0.181345v 0.263952h 0.181345v -1.45885h 0.181345v -1.60599h
 0.181345v 1.54563h 0.181345v 0.740689h 0.181345v -0.558863h 0.181345v -1.34154h 0.181345v 0.626897h 0.181345v 1.46444h 0.181345v -0.503941h 0.181345v 1.22524h 0.181345v 0.20279h 0.181345v -0.924092h 0.181345v -3.3757h 0.181345v 3.96329h 0.181345v
 -1.63924h 0.181345v 1.63924h 0.181345v 1.24784h 0.181345v 0.740089h 0.181345v -0.883891h 0.181345v 0.0717312h 0.181345v -0.0717312h 0.181345v -0.353678h 0.181345v 1.85665h 0.181345v 1.57969h 0.181345v -2.34969h 0.181345v 0.226945h 0.181345v
 -1.59074h 0.181345v 3.11229h 0.181345v 1.50341h 0.181345v -3.3268h 0.181345v 2.95949h 0.181345v -1.38667h 0.181345v 0.335021h 0.181345v 0.170313h 0.181345v -1.54593h 0.181345v 2.60982h 0.181345v -3.8715h 0.181345v 1.73315h 0.181345v 1.07447h
 0.181345v 1.43568h 0.181345v -3.95569h 0.181345v 3.13155h 0.181345v -0.2651h 0.181345v -1.01657h 0.181345v 0.929214h 0.181345v -1.01095h 0.181345v 1.3634h 0.181345v -1.68601h 0.181345v 3.68325h 0.181345v -1.07872h 0.181345v 0.776873h 0.181345v
 -1.4256h 0.181345v 0.648729h 0.181345v 0.190538h 0.181345v -0.92973h 0.181345v 0.644808h 0.181345v -1.34981h 0.181345v 2.52291h 0.181345v -2.52291h 0.181345v 0.97801h 0.181345v 1.14375h 0.181345v -1.68497h 0.181345v 0.725987h 0.181345v 0.860326h
 0.181345v -2.86083h 0.181345v 2.95949h 0.181345v -3.04078h 0.181345v 1.35581h 0.181345v 0.358672h 0.181345v 0.648729h 0.181345v 0.383488h 0.181345v -0.941215h 0.181345v 1.2353h 0.181345v -4.21089h 0.181345v 2.61479h 0.181345v 1.89596h 0.181345v
 -2.07321h 0.181345v 3.00992h 0.181345v -4.19607h 0.181345v 1.01095h 0.181345v -2.70634h 0.181345v -0.43143h 0.181345v 1.80421h 0.181345v -1.00369h 0.181345v -1.3574h 0.181345v 1.06142h 0.181345v 1.14089h 0.181345v 2.85828h 0.181345v -0.834163h
 0.181345v -1.12962h 0.181345v 1.68062h 0.181345v 0.188186h 0.181345v -1.0074h 0.181345v 1.29411h 0.181345v 0.194179h 0.181345v 0.597835h 0.181345v -1.07872h 0.181345v 3.37769h 0.181345v -0.350426h 0.181345v -2.54638h 0.181345v 0.699794h 0.181345v
 1.27987h 0.181345v -0.759587h 0.181345v 2.15686h 0.181345v -2.57449h 0.181345v 2.09436h 0.181345v -2.19701h 0.181345v 2.31563h 0.181345v -0.811598h 0.181345v 0.11333h 0.181345v 1.80957h 0.181345v -1.58035h 0.181345v 0.952988h 0.181345v -1.18221h
 0.181345v 0.698268h 0.181345v 0.24005h 0.181345v -1.71448h 0.36269v 0.438673h 0.181345v 0.682629h 0.181345v 0.353132h 0.181345v -1.58216h 0.181345v 2.43941h 0.181345v -0.125456h 0.181345v -1.87842h 0.181345v -2.06299h 0.181345v 2.51134h 0.181345v
 0.345136h 0.181345v 2.11874h 0.181345v -3.97859h 0.181345v 1.40139h 0.181345v -1.50403h 0.181345v 1.27987h 0.181345v -0.546397h 0.181345v -0.733474h 0.181345v -1.18068h 0.181345v -1.44419h 0.181345v 1.53916h 0.181345v -1.01349h 0.181345v -1.11688h
 0.181345v -0.0826172h 0.181345v 2.40472h 0.181345v -1.38247h 0.181345v -1.18615h 0.181345v 1.01095h 0.181345v -1.8822h 0.181345v 2.96499h 0.181345v -1.42727h 0.181345v 2.19437h 0.181345v -0.195424h 0.181345v -1.65446h 0.181345v 0.352451h 0.181345v
 3.04889h 0.181345v -0.847042h 0.181345v 2.21299h 0.181345v -0.236328h 0.181345v 0.35588h 0.181345v -1.80868h 0.181345v 1.80868h 0.181345v -2.43518h 0.181345v 3.29938h 0.181345v -0.126497h 0.181345v 0.512413h 0.181345v -1.36967h 0.181345v -0.924092h
 0.181345v -0.441852h 0.181345v 0.330183h 0.181345v 1.39727h 0.181345v -0.361507h 0.181345v 1.36967h 0.181345v -1.48829h 0.181345v 0.358672h 0.181345v -0.824138h 0.181345v 1.95375h 0.181345v 1.94262h 0.181345v -2.32854h 0.181345v -0.126497h 0.181345v
 -1.89301h 0.181345v -0.330183h 0.181345v 2.60588h 0.181345v -0.999889h 0.181345v -0.476378h 0.181345v 2.27173h 0.181345v -2.0354h 0.181345v 0.119552h 0.181345v 2.61199h 0.181345v -2.49149h 0.181345v 0.491747h 0.181345v -1.87842h 0.181345v 0.56253h
 0.181345v 1.69539h 0.181345v -1.22993h 0.181345v 1.88423h 0.181345v -1.28167h 0.181345v -0.364388h 0.181345v -0.81782h 0.181345v 0.938317h 0.181345v -2.45304h 0.181345v 0.417638h 0.181345v 0.648729h 0.181345v 1.63056h 0.181345v 1.68817h 0.181345v
 -3.42878h 0.181345v -0.538672h 0.181345v 2.40271h 0.181345v -1.53146h 0.181345v -0.11167h 0.181345v 0.799433h 0.181345v 2.27173h 0.181345v -4.041h 0.181345v 2.0056h 0.181345v -0.118622h 0.181345v 0.238174h 0.181345v 2.05255h 0.181345v -2.9837h
 0.181345v 0.11333h 0.181345v -1.51472h 0.181345v 5.97584h 0.181345v -4.46112h 0.181345v -0.667676h 0.181345v -0.216214h 0.181345v 1.94367h 0.181345v -1.05977h 0.181345v -0.667676h 0.181345v 0.781856h 0.181345v -1.6289h 0.181345v 1.51472h 0.181345v
 0.81782h 0.181345v -2.12515h 0.181345v 1.53655h 0.181345v 1.3263h 0.181345v -4.35357h 0.181345v 4.10368h 0.181345v -3.22685h 0.181345v 2.50086h 0.181345v 0.358672h 0.181345v -0.938317h 0.181345v -0.225824h 0.181345v 4.99489h 0.181345v -4.18942h
 0.181345v 0.480129h 0.181345v -0.361507h 0.181345v 0.24005h 0.181345v 0.121458h 0.181345v -0.597835h 0.181345v 2.82607h 0.181345v -1.22008h 0.181345v -0.885725h 0.181345v 1.55146h 0.181345v 0.696141h 0.181345v 1.03131h 0.181345v -3.15548h 0.181345v
 1.84189h 0.181345v -3.70593h 0.181345v 4.13134h 0.181345v -0.143126h 0.181345v -2.61199h 0.181345v 3.04546h 0.181345v -0.433475h 0.181345v 0.143126h 0.36269v -0.839267h 0.181345v -0.269792h 0.181345v -1.28167h 0.181345v 2.53521h 0.181345v 2.69224h
 0.181345v 1.26344h 0.181345v -2.1058h 0.181345v -0.641899h 0.36269v 1.31202h 0.181345v 0.172237h 0.181345v -3.40134h 0.181345v 4.85414h 0.181345v -2.93706h 0.181345v -0.311089h 0.181345v 1.11778h 0.181345v 0.505334h 0.181345v -0.170313h 0.181345v
 0.516756h 0.181345v -1.01657h 0.181345v 3.27891h 0.181345v -2.08612h 0.181345v -2.29897h 0.181345v 2.29897h 0.181345v -3.04267h 0.181345v -0.98375h 0.181345v 4.38509h 0.181345v -0.709097h 0.181345v -0.677571h 0.181345v -0.648729h 0.181345v 1.3263h
 0.181345v -0.510981h 0.181345v -1.43756h 0.181345v 1.60599h 0.181345v -0.662837h 0.181345v -2.25675h 0.181345v 0.569892h 0.181345v 3.40134h 0.181345v -0.881335h 0.181345v 2.81339h 0.181345v -1.7495h 0.181345v -0.891648h 0.181345v -2.10022h 0.181345v
 1.09483h 0.181345v 0.662837h 0.181345v -1.29805h 0.181345v 3.676h 0.181345v -1.3263h 0.181345v 2.13945h 0.181345v -4.01523h 0.181345v -0.473909h 0.181345v 2.34969h 0.181345v 0.182551h 0.36269v -0.717443h 0.181345v 0.902207h 0.181345v 1.15824h
 0.181345v -1.88423h 0.181345v 3.3571h 0.181345v -3.3571h 0.181345v 2.92156h 0.181345v -1.62745h 0.181345v -2.15552h 0.181345v 2.54638h 0.181345v -1.50669h 0.181345v -3.93005h 0.181345v 6.67332h 0.181345v -7.08347h 0.181345v 3.81149h 0.181345v
 0.528706h 0.181345v 0.734737h 0.181345v 1.5851h 0.181345v -2.67434h 0.181345v 2.88459h 0.181345v -0.210249h 0.181345v -2.67434h 0.181345v 0.902207h 0.181345v 1.77213h 0.181345v -1.5851h 0.181345v 1.5851h 0.181345v -1.20401h 0.181345v -0.752886h
 0.36269v 0.184764h 0.181345v -1.75398h 0.181345v -0.164789h 0.181345v 0.331379h 0.181345v 1.77442h 0.181345v -0.187031h 0.181345v -3.02496h 0.181345v 1.10618h 0.181345v -0.641899h 0.181345v 4.12541h 0.181345v -3.15213h 0.181345v -0.81532h 0.181345v
 2.58974h 0.181345v 0.97121h 0.181345v -0.39594h 0.181345v -3.32297h 0.181345v 2.93706h 0.181345v 1.60599h 0.181345v -1.02339h 0.181345v -1.50669h 0.181345v -3.07509h 0.181345v 1.70402h 0.181345v -3.75773h 0.181345v 3.5947h 0.181345v -0.161301h
 0.181345v -0.62866h 0.181345v -2.80474h 0.181345v 3.11583h 0.181345v -3.86563h 0.181345v -0.361507h 0.181345v -0.698268h 0.181345v 0.114179h 0.36269v -0.340003h 0.181345v 1.16414h 0.181345v -3.15745h 0.181345v 2.56427h 0.181345v -1.5477h 0.181345v
 -0.618038h 0.181345v 0.101282h 0.181345v -0.49981h 0.181345v 1.12205h 0.181345v -1.12205h 0.181345v -0.48394h 0.181345v 1.18836h 0.181345v 0.103342h 0.181345v -0.307947h 0.181345v 1.60599h 0.181345v -1.60599h 0.181345v 2.90153h 0.181345v -2.90153h
 0.181345v 1.05165h 0.181345v 0.554346h 0.181345v 1.54339h 0.181345v 0.508142h 0.181345v -4.05868h 0.181345v 2.58241h 0.181345v -2.58241h 0.181345v 1.23658h 0.181345v 0.99807h 0.181345v -1.93478h 0.181345v -1.71663h 0.181345v 0.834163h 0.181345v
 1.18836h 0.181345v -2.5543h 0.181345v 0.989558h 0.181345v -3.02496h 0.181345v 0.781856h 0.181345v -2.5772h 0.181345v 3.57165h 0.181345v -4.93179h 0.181345v -0.306707h 0.181345v -0.941942h 0.181345v 0.172237h 0.181345v -1.6406h 0.181345v -0.358672h
 0.181345v -1.94652h 0.181345v 0.315225h 0.181345v -1.8004h 0.181345v 1.89168h 0.181345v 0.323836h 0.36269v -0.640935h 0.181345v 0.734737h 0.181345v 1.3263h 0.181345v 1.06265h 0.181345v 1.68569h 0.181345v -0.602562h 0.181345v -0.292578h 0.181345v
 3.64967h 0.181345v -1.06637h 0.181345v 2.94478h 0.181345v 1.21314h 0.181345v 1.12268h 0.181345v 2.18873h 0.181345v 0.112494h 0.181345v -0.554346h 0.181345v 0.554346h 0.181345v -0.224163h 0.181345v 3.07116h 0.181345v 1.57578h 0.181345v 2.27442h
 0.181345v -4.64566h 0.181345v 1.4916h 0.181345v 1.97447h 0.181345v 1.35581h 0.181345v -4.02642h 0.181345v 2.0354h 0.181345v 0.798237h 0.181345v 0.84236h 0.181345v -1.00539h 0.181345v -2.25675h 0.181345v 1.77788h 0.181345v -2.19174h 0.181345v
 1.57578h 0.181345v 2.27442h 0.181345v -3.01093h 0.181345v 0.290349h 0.181345v 3.43803h 0.181345v -1.40263h 0.181345v -1.43756h 0.181345v 4.1832h 0.181345v -3.87525h 0.181345v 0.63521h 0.181345v -1.09483h 0.181345v 1.25785h 0.181345v -1.84988h
 0.181345v 3.40134h 0.181345v -3.25548h 0.181345v 2.0354h 0.181345v -1.73941h 0.181345v -0.295987h 0.181345v 1.22008h 0.181345v 0.48394h 0.181345v -0.641899h 0.181345v 1.14171h 0.181345v -1.4528h 0.181345v 2.50445h 0.181345v -3.68895h 0.181345v
 1.97447h 0.181345v -0.478872h 0.181345v 0.973278h 0.181345v 1.22008h 0.181345v -1.71448h 0.181345v -0.478872h 0.181345v 1.65846h 0.181345v 0.17622h 0.181345v 0.725987h 0.181345v -1.58739h 0.181345v 0.168431h 0.181345v -1.29805h 0.36269v 0.798237h
 0.181345v 3.48351h 0.181345v -3.48351h 0.181345v 2.48689h 0.181345v -2.97083h 0.181345v 3.76285h 0.181345v -1.36014h 0.181345v 1.36014h 0.181345v -2.43655h 0.181345v -1.16669h 0.181345v 2.05834h 0.181345v -0.891648h 0.181345v 0.174206h 0.181345v
 1.27859h 0.181345v 0.385915h 0.181345v -1.48829h 0.181345v -1.67673h 0.181345v 4.38509h 0.181345v -1.98238h 0.181345v 0.762301h 0.181345v -0.947065h 0.181345v -1.56922h 0.36269v 1.20628h 0.181345v 0.362942h 0.181345v 1.5449h 0.181345v -4.07715h
 0.181345v 5.57065h 0.181345v -3.93005h 0.181345v 1.07641h 0.181345v 1.77213h 0.181345v -1.39574h 0.181345v 2.25472h 0.181345v -1.47287h 0.181345v 1.47287h 0.181345v -3.17881h 0.181345v 1.31001h 0.181345v -3.78726h 0.181345v 1.10618h 0.181345v
 4.77241h 0.181345v 0.924092h 0.181345v 3.76285h 0.181345v -8.44278h 0.181345v 2.88459h 0.181345v -0.210249h 0.181345v -0.813144h 0.181345v -0.196685h 0.36269v 1.22008h 0.181345v -1.98238h 0.36269v -1.75398h 0.181345v -2.72377h 0.181345v -0.940385h
 0.181345v -1.83871h 0.181345v -3.12165h 0.181345v 4.44795h 0.181345v -3.17289h 0.181345v -4.10114h 0.181345v 0.638537h 0.181345v -2.7519h 0.181345v 0.839267h 0.181345v -0.214189h 0.181345v -1.15997h 0.181345v -2.48054h 0.181345v -0.973278h 0.181345v
 -0.615956h 0.181345v 0.668427h 0.181345v -0.768709h 0.181345v -0.63623h 0.181345v -1.06442h 0.181345v 0.592472h 0.181345v 1.66808h 0.181345v -0.609795h 0.181345v 1.13728h 0.181345v 1.64182h 0.181345v -0.586335h 0.181345v 3.04601h 0.181345v -1.21467h
 0.181345v 3.89575h 0.181345v 0.338744h 0.181345v 0.434298h 0.181345v 3.89381h 0.181345v 0.46194h 0.181345v 2.13623h 0.181345v 1.71127h 0.181345v 1.42264h 0.181345v 1.028h 0.181345v 2.29073h 0.181345v 5.97584h 0.181345v -5.12879h 0.181345v 5.12879h
 0.181345v -1.99724h 0.181345v 2.9404h 0.181345v 1.35581h 0.181345v -4.29621h 0.181345v 1.99724h 0.181345v 5.00734h 0.181345v -2.34969h 0.36269v -1.05165h 0.181345v 1.79535h 0.181345v 0.781856h 0.181345v 1.25354h 0.181345v -2.7791h 0.181345v 1.12962h
 0.181345v -3.16501h 0.181345v 4.38509h 0.181345v -5.30918h 0.181345v 2.60082h 0.36269v -1.028h 0.181345v 8.69672h 0.181345v -6.94274h 0.181345v 1.98238h 0.181345v 3.29585h 0.181345v -2.86645h 0.181345v -1.64948h 0.181345v -1.83871h 0.181345v 3.4882h
 0.181345v 3.95569h 0.181345v -7.78643h 0.181345v 2.9837h 0.181345v -1.93206h 0.181345v 4.62898h 0.181345v -1.84988h 0.181345v -2.41178h 0.181345v -2.71701h 0.181345v 3.47931h 0.181345v -4.67544h 0.181345v 2.83673h 0.181345v 0.709097h 0.181345v
 1.12962h 0.181345v 1.22008h 0.181345v -0.824138h 0.181345v 3.10343h 0.181345v -6.66438h 0.181345v 0.98375h 0.181345v 5.68063h 0.181345v -4.26167h 0.181345v -0.725987h 0.181345v 1.88423h 0.181345v -2.23465h 0.181345v -1.3263h 0.181345v 0.98375h
 0.181345v 1.79535h 0.181345v -1.10237h 0.181345v 1.88423h 0.181345v 2.15044h 0.181345v -6.63548h 0.181345v 0.609795h 0.181345v -1.76074h 0.181345v 1.76074h 0.36269v -0.609795h 0.181345v 2.95949h 0.181345v -5.18055h 0.181345v 4.1289h 0.181345v
 -0.335021h 0.181345v -2.72377h 0.181345v 4.47775h 0.181345v 6.94274h 0.181345v -9.65975h 0.36269v -1.76074h 0.181345v 4.47775h 0.181345v -2.40271h 0.181345v 0.320914h 0.181345v 6.34347h 0.181345v -3.10343h 0.181345v -2.5772h 0.181345v 2.18126h
 0.181345v -1.48829h 0.181345v -1.028h 0.36269v 2.51628h 0.36269v -3.47931h 0.181345v 1.99102h 0.181345v 1.10237h 0.181345v 0.385915h 0.181345v -2.18126h 0.181345v 0.34255h 0.181345v -1.94854h 0.181345v -3.03105h 0.181345v 10.3177h 0.181345v
 -2.27929h 0.181345v 5.5582h 0.181345v -8.26656h 0.181345v 1.48829h 0.181345v -4.38509h 0.181345v 2.54638h 0.181345v -3.676h 0.181345v 12.9152h 0.181345v -4.85414h 0.181345v -2.15044h 0.181345v -1.88423h 0.181345v 1.48829h 0.181345v -2.18126h
 0.181345v 2.5772h 0.36269v 1.69539h 0.181345v -0.871257h 0.181345v -2.34969h 0.181345v 3.22095h 0.181345v -2.09134h 0.181345v 1.22008h 0.181345v -5.30918h 0.181345v 2.60082h 0.181345v -2.60082h 0.181345v 5.73859h 0.181345v -0.429404h 0.181345v
 2.7791h 0.181345v -6.84328h 0.181345v 2.45818h 0.181345v 2.47725h 0.181345v -4.2726h 0.181345v 5.68063h 0.181345v -4.62898h 0.181345v 1.93206h 0.181345v -3.64654h 0.181345v 3.64654h 0.181345v -1.18836h 0.36269v 2.0354h 0.181345v 3.95569h 0.181345v
 -3.95569h 0.181345v 2.86645h 0.181345v -4.51593h 0.181345v 0.39594h 0.181345v 2.61949h 0.181345v -1.36594h 0.36269v -0.847042h 0.181345v 0.847042h 0.181345v 4.53096h 0.181345v -6.18044h 0.181345v -1.12962h 0.181345v 2.34969h 0.36269v 3.83075h
 0.181345v -3.83075h 0.181345v 0.871257h 0.181345v -3.57962h 0.181345v 4.98765h 0.181345v -4.62898h 0.181345v -0.358672h 0.181345v 3.57962h 0.36269v 2.4246h 0.181345v -3.71349h 0.181345v 7.92438h 0.181345v -5.22745h 0.181345v -0.952988h 0.181345v
 -0.896896h 0.181345v 3.40134h 0.181345v -0.534891h 0.181345v 1.08924h 0.181345v -1.60599h 0.181345v 4.72764h 0.181345v -1.3263h 0.181345v -2.34969h 0.181345v 3.676h 0.181345v -4.21089h 0.181345v -2.4246h 0.181345v 4.08911h 0.181345v -0.57527h
 0.181345v -3.95569h 0.181345v 3.40134h 0.181345v 3.676h 0.181345v 2.23465h 0.181345v 4.65488h 0.181345v -8.21584h 0.181345v 9.34545h 0.181345v -6.56636h 0.181345v -2.7791h 0.181345v -1.79535h 0.181345v 3.12165h 0.181345v 6.88954h 0.181345v -6.88954h
 0.181345v 2.23465h 0.181345v 2.61949h 0.181345v -7.97579h 0.181345v 13.6872h 0.181345v -12.5141h 0.181345v 6.80268h 0.181345v -1.79535h 0.181345v -2.34969h 0.36269v 2.34969h 0.181345v 0.871257h 0.181345v -5.87859h 0.181345v -2.26234h 0.181345v
 9.06503h 0.181345v 7.16419h 0.181345v -8.08828h 0.181345v 2.95949h 0.181345v -1.05165h 0.181345v -4.38509h 0.181345v 2.47725h 0.181345v 6.63548h 0.181345v -1.3263h 0.181345v 1.3263h 0.181345v -1.3263h 0.181345v 1.3263h 0.181345v -1.3263h 0.181345v
 -3.40134h 0.181345v -1.90784h 0.36269v 6.63548h 0.181345v 1.4528h 0.181345v 5.43674h 0.181345v -14.3963h 0.181345v -3.05879h 0.181345v 9.23923h 0.181345v -1.22008h 0.181345v 3.99918h 0.181345v 1.60599h 0.181345v -5.60517h 0.181345v 5.60517h
 0.181345v -5.60517h 0.181345v 11.7856h 0.181345v -10.5655h 0.181345v 6.18044h 0.181345v -1.79535h 0.36269v 12.3609h 0.181345v -15.4197h 0.181345v -1.3263h 0.36269v 6.18044h 0.181345v -4.85414h 0.181345v 1.4528h 0.181345v -8.08828h 0.181345v 11.4896h
 0.181345v -9.58178h 0.181345v 1.05165h 0.181345v 2.34969h 0.181345v 6.18044h 0.181345v -13.185h 0.181345v 5.7845h 0.181345v 3.99918h 0.181345v -8.95954h 0.181345v -2.34969h 0.181345v 14.7106h 0.36269v -10.5655h 0.544034v 0.98375h 0.181345v -5.83789h
 0.181345v -0.677571h 0.181345v -2.99842h 0.181345v 2.34969h 0.181345v 4.38509h 0.181345v -5.60517h 0.181345v 1.22008h 0.181345v -7.00458h 0.181345v 3.10343h 0.181345v 1.01657h 0.181345v -4.11999h 0.181345v 3.10343h 0.181345v 0.49981h 0.181345v
 1.05165h 0.181345v -0.534891h 0.181345v 1.66451h 0.181345v -4.08911h 0.181345v 0.924092h 0.181345v 1.50051h 0.181345v 1.66451h 0.181345v -1.12962h 0.181345v 1.72745h 0.181345v 8.83808h 0.181345v -3.83075h 0.181345v -7.26968h 0.181345v 1.66451h
 0.181345v -1.12962h 0.181345v 8.53014h 0.181345v 0.98375h 0.36269v 1.05165h 0.181345v 12.9152h 0.181345v -13.9669h 0.181345v -0.98375h 0.181345v -1.79535h 0.181345v 4.96036h 0.181345v -10.5655h 0.181345v 14.5647h 0.181345v -9.78368h 0.181345v
 -0.781856h 0.181345v 2.47725h 0.36269v 0.924092h 0.181345v -9.58178h 0.181345v 4.05007h 0.181345v 5.53171h 0.181345v -13.9669h 0.181345v 3.88528h 0.181345v -3.88528h 0.181345v 1.60599h 0.181345v -2.70837h 0.181345v -1.35581h 0.181345v -5.85262h
 0.181345v 0.910291h 0.181345v -1.12962h 0.181345v -0.847042h 0.181345v 1.74394h 0.181345v -2.74056h 0.181345v -2.64992h 0.181345v -0.943157h 0.181345v -1.99724h 0.181345v -1.03381h 0.181345v -0.850419h 0.181345v -1.46354h 0.181345v 0.435539h
 0.181345v 1.75398h 0.181345v -1.07641h 0.181345v -1.3263h 0.181345v 0.98375h 0.181345v -2.20383h 0.181345v 0.39594h 0.181345v -1.61602h 0.181345v 1.61602h 0.181345v -1.52556h 0.181345v 1.72745h 0.181345v -2.08612h 0.181345v 1.19794h 0.181345v
 -2.39072h 0.181345v 0.49981h 0.181345v -0.168431h 0.181345v 0.685187h 0.181345v -2.19877h 0.181345v 0.85788h 0.181345v -2.30378h 0.181345v -1.38367h 0.181345v 2.1619h 0.181345v -1.71448h 0.181345v 1.64207h 0.181345v -0.567241h 0.181345v 0.858979h
 0.181345v -1.67212h 0.181345v 0.401151h 0.181345v 0.411994h 0.181345v -1.5851h 0.181345v 0.97121h 0.181345v -0.781856h 0.181345v 2.10816h 0.181345v -0.988308h 0.181345v 0.699336h 0.181345v 0.73297h 0.181345v 1.66451h 0.181345v -0.494406h 0.181345v
 0.163027h 0.181345v 4.11434h 0.181345v -0.21319h 0.181345v 0.320914h 0.181345v -1.04444h 0.181345v 3.75881h 0.181345v 0.932167h 0.181345v 3.36705h 0.181345v 2.01095h 0.181345v 1.64948h 0.181345v 7.07734h 0.181345v -5.47134h 0.181345v 4.79377h
 0.181345v -1.86881h 0.181345v 3.25548h 0.181345v 3.676h 0.181345v 1.96955h 0.181345v 8.14093h 0.36269v -2.47725h 0.181345v 5.43674h 0.181345v -2.0354h 0.181345v -4.14504h 0.181345v 11.3092h 0.181345v -8.08828h 0.181345v 5.30918h 0.181345v 4.38509h
 0.181345v -5.60517h 0.181345v 3.99918h 0.181345v 3.40134h 0.36269v 10.5655h 0.181345v -8.53014h 0.544034v 5.12879h 0.181345v 13.9669h 0.181345v -16.746h 0.181345v -6.18044h 0.181345v 16.746h 0.36269v -4.38509h 0.36269v 4.38509h 0.181345v -12.9152h
 0.181345v 8.53014h 0.181345v -6.18044h 0.181345v 27.3115h 0.36269v -21.1311h 0.181345v 10.5655h 0.36269v 10.5655h 0.36269v -31.6966h 0.181345v 21.1311h 0.181345v 10.5655h 0.181345v -31.6966h 0.181345v 21.1311h 0.36269v -6.18044h 0.181345v -10.5655h
 0.181345v 10.5655h 0.181345v 6.18044h 0.181345v 10.5655h 0.181345v -21.1311h 0.181345v 10.5655h 0.544034v -10.5655h 0.181345v 10.5655h 0.181345v -13.9669h 0.181345v 35.0979h 0.181345v -21.1311h 0.36269v 10.5655h 0.36269v -24.5324h 0.181345v 13.9669h
 0.181345v -10.5655h 0.181345v 4.38509h 0.181345v -4.38509h 0.181345v 21.1311h 0.181345v -16.746h 0.181345v -4.38509h 0.181345v -3.40134h 0.181345v 13.9669h 0.36269v -13.9669h 0.181345v 7.78643h 0.36269v -7.78643h 0.181345v 3.40134h 0.181345v
 21.1311h 0.181345v -21.1311h 0.181345v -3.40134h 0.181345v 24.5324h 0.36269v -21.1311h 0.181345v 4.38509h 0.36269v 6.18044h 0.181345v -10.5655h 0.181345v -10.5655h 0.181345v 21.1311h 0.181345v -19.0957h 0.181345v 12.9152h 0.181345v -7.78643h
 0.36269v 3.40134h 0.181345v 4.38509h 0.181345v -14.9506h 0.181345v 4.38509h 0.181345v -4.38509h 0.181345v 14.9506h 0.181345v 6.18044h 0.181345v -13.9669h 0.181345v -5.12879h 0.181345v 12.9152h 0.181345v -14.9506h 0.181345v -1.79535h 0.36269v
 1.79535h 0.181345v 2.0354h 0.181345v 5.12879h 0.181345v -12.0183h 0.181345v 4.85414h 0.36269v 4.38509h 0.181345v -4.38509h 0.181345v 4.38509h 0.181345v -7.78643h 0.181345v 7.78643h 0.181345v -6.18044h 0.181345v -5.60517h 0.181345v 7.40052h 0.181345v
 -4.85414h 0.181345v 19.8048h 0.181345v -7.78643h 0.181345v 13.9669h 0.181345v -6.18044h 0.181345v -12.9152h 0.181345v 19.0957h 0.181345v -10.5655h 0.181345v 4.38509h 0.181345v -12.9152h 0.181345v 12.9152h 0.181345v -12.9152h 0.36269v 40.2267h
 0.181345v -31.6966h 0.181345v -3.40134h 0.544034v 3.40134h 0.36269v 31.6966h 0.181345v -27.3115h 0.181345v 6.18044h 0.36269v -6.18044h 0.181345v 6.18044h 0.181345v 10.5655h 0.181345v -21.1311h 0.181345v 4.38509h 0.181345v -7.78643h 0.181345v
 7.78643h 0.181345v -4.38509h 0.181345v 4.38509h 0.181345v 16.746h 0.181345v -24.5324h 0.181345v 35.0979h 0.181345v -27.3115h 0.181345v 6.18044h 0.181345v -6.18044h 0.181345v 6.18044h 0.181345v 10.5655h 0.181345v -10.5655h 0.181345v -6.18044h
 0.181345v 27.3115h 0.181345v -10.5655h 0.181345v -16.746h 0.181345v 16.746h 0.36269v -27.3115h 0.181345v 2.7791h 0.36269v 24.5324h 0.181345v -10.5655h 0.181345v -13.9669h 0.181345v 7.78643h 0.181345v 16.746h 0.181345v 10.5655h 0.181345v -27.3115h
 0.36269v -7.78643h 0.181345v 13.9669h 0.36269v -6.18044h 0.725379v -4.38509h 0.181345v -3.40134h 0.181345v 7.78643h 0.181345v -7.78643h 0.181345v 7.78643h 0.36269v 27.3115h 0.181345v -21.1311h 0.181345v -25.9852h 0.181345v 25.9852h 0.181345v
 -13.9669h 0.181345v -7.16419h 0.181345v -1.79535h 0.181345v 22.9264h 0.181345v -24.5324h 0.181345v 18.352h 0.181345v -12.9152h 0.181345v 40.2267h 0.181345v -42.2621h 0.181345v 4.38509h 0.181345v -4.38509h 0.181345v 2.0354h 0.181345v -3.83075h
 0.181345v 1.79535h 0.181345v 7.16419h 0.181345v 3.40134h 0.181345v -10.5655h 0.544034v -1.79535h 0.181345v 1.79535h 0.181345v -1.79535h 0.181345v 16.746h 0.181345v -12.9152h 0.36269v -3.83075h 0.181345v 6.18044h 0.181345v -9.23923h 0.181345v
 9.23923h 0.181345v 2.7791h 0.181345v -2.7791h 0.181345v -2.34969h 0.181345v 5.12879h 0.181345v -5.12879h 0.181345v -6.88954h 0.181345v 12.0183h 0.181345v 7.78643h 0.181345v -7.78643h 0.181345v -2.7791h 0.181345v 6.18044h 0.181345v -3.40134h
 0.181345v 3.40134h 0.36269v -3.40134h 0.181345v -2.7791h 0.181345v 6.18044h 0.181345v -3.40134h 0.181345v -2.7791h 0.181345v 10.5655h 0.181345v -14.9506h 0.181345v 7.16419h 0.544034v 7.78643h 0.181345v -16.746h 0.181345v 6.18044h 0.181345v 10.5655h
 0.181345v -4.38509h 0.36269v 10.5655h 0.181345v -13.9669h 0.181345v 13.9669h 0.181345v -10.5655h 0.181345v -17.9661h 0.181345v 22.3511h 0.181345v -4.38509h 0.544034v -10.5655h 0.181345v 10.5655h 0.181345v -10.5655h 0.181345v 10.5655h 0.36269v
 -10.5655h 0.181345v 10.5655h 0.181345v -10.5655h 0.181345v 21.1311h 0.181345v -6.18044h 0.181345v -12.9152h 0.181345v 5.12879h 0.36269v 7.78643h 0.181345v -10.5655h 0.181345v -6.18044h 0.181345v 6.18044h 0.181345v 6.18044h 0.181345v -3.40134h
 0.181345v -5.12879h 0.181345v 19.0957h 0.181345v -19.0957h 0.181345v 12.9152h 0.181345v -10.5655h 0.181345v -2.34969h 0.181345v -5.43674h 0.181345v 7.78643h 0.181345v -4.38509h 0.181345v 21.1311h 0.181345v -16.746h 0.181345v 2.7791h 0.181345v
 -13.3446h 0.181345v 13.3446h 0.181345v -13.3446h 0.181345v 13.3446h 0.181345v -2.7791h 0.181345v -2.34969h 0.181345v 2.34969h 0.181345v -11.7856h 0.181345v 9.43592h 0.181345v 2.34969h 0.181345v 10.5655h 0.181345v -10.5655h 0.181345v -14.9506h
 0.181345v 10.5655h 0.181345v -4.85414h 0.181345v 1.4528h 0.36269v -1.4528h 0.36269v -2.54638h 0.181345v 1.22008h 0.181345v 10.5655h 0.181345v -2.34969h 0.36269v -2.0354h 0.181345v -3.40134h 0.181345v -3.99918h 0.36269v 3.99918h 0.36269v -1.4528h
 0.181345v -4.72764h 0.181345v 9.58178h 0.181345v 2.0354h 0.181345v -2.0354h 0.181345v -1.79535h 0.181345v -5.60517h 0.181345v 7.40052h 0.181345v -7.40052h 0.181345v 3.99918h 0.181345v -3.99918h 0.181345v 7.40052h 0.181345v -6.18044h 0.181345v
 -1.22008h 0.181345v 5.60517h 0.181345v -4.38509h 0.181345v 1.3263h 0.181345v -1.3263h 0.181345v 1.3263h 0.181345v -6.63548h 0.181345v -1.69539h 0.181345v 7.00458h 0.181345v -9.23923h 0.181345v 8.01915h 0.181345v -2.18126h 0.181345v 4.72764h
 0.181345v -1.3263h 0.181345v 2.7791h 0.181345v -3.99918h 0.544034v 2.54638h 0.36269v -2.54638h 0.181345v 5.60517h 0.181345v -12.1715h 0.181345v 7.78643h 0.181345v -9.9168h 0.181345v 2.91222h 0.181345v 3.60324h 0.181345v 3.40134h 0.181345v 1.3263h
 0.181345v 9.23923h 0.181345v -7.78643h 0.181345v 3.40134h 0.181345v -7.40052h 0.181345v -5.7845h 0.181345v 0.824138h 0.181345v 6.18044h 0.181345v -2.34969h 0.181345v 10.5655h 0.181345v -9.43592h 0.181345v 2.54638h 0.36269v -5.71139h 0.181345v
 -1.79535h 0.181345v -1.60599h 0.181345v 4.38509h 0.544034v 9.58178h 0.181345v -17.9661h 0.181345v 10.5655h 0.181345v -6.56636h 0.36269v 9.11273h 0.181345v -11.8918h 0.181345v 2.7791h 0.181345v 3.40134h 0.181345v 3.16501h 0.36269v -10.5655h 0.181345v
 3.99918h 0.181345v 2.47725h 0.181345v -4.60762h 0.181345v 2.91222h 0.181345v -0.781856h 0.181345v -3.40134h 0.181345v 2.65764h 0.36269v -5.43674h 0.181345v 7.78643h 0.181345v -6.73479h 0.181345v 1.12962h 0.181345v 2.54638h 0.181345v 2.23465h
 0.181345v -3.56095h 0.181345v -4.85414h 0.181345v 3.05879h 0.181345v 3.83075h 0.181345v -0.709097h 0.181345v -0.677571h 0.181345v -2.99842h 0.181345v -1.05165h 0.181345v 2.7791h 0.181345v -2.7791h 0.181345v 4.05007h 0.181345v -1.86881h 0.36269v
 2.54638h 0.181345v 1.4528h 0.181345v -6.18044h 0.181345v 4.72764h 0.181345v 0.709097h 0.181345v -3.25548h 0.181345v -2.68107h 0.181345v 2.1058h 0.181345v -1.60599h 0.181345v -0.49981h 0.181345v 2.1058h 0.181345v -0.554346h 0.181345v 3.676h 0.181345v
 3.93005h 0.181345v -4.60762h 0.181345v 1.38667h 0.181345v -3.83075h 0.181345v 2.44408h 0.181345v -1.27097h 0.181345v 3.40134h 0.181345v 3.40134h 0.181345v -8.53014h 0.181345v 8.53014h 0.36269v 2.0354h 0.181345v 2.34969h 0.181345v -3.40134h 0.181345v
 4.72764h 0.181345v -2.54638h 0.544034v 1.22008h 0.181345v -1.22008h 0.181345v -1.12962h 0.181345v -2.0354h 0.181345v 2.0354h 0.181345v 2.34969h 0.181345v 6.18044h 0.181345v -8.53014h 0.181345v 5.12879h 0.181345v -5.12879h 0.181345v -5.43674h
 0.181345v 9.11273h 0.181345v -6.63548h 0.181345v 15.8747h 0.181345v -12.9152h 0.36269v -3.83075h 0.181345v 2.7791h 0.181345v 2.18126h 0.181345v 2.54638h 0.544034v 3.05879h 0.181345v -12.1715h 0.181345v 7.78643h 0.181345v 6.18044h 0.181345v -15.4197h
 0.181345v 8.01915h 0.181345v -6.56636h 0.181345v 12.1715h 0.181345v -7.78643h 0.181345v -0.98375h 0.181345v 12.6009h 0.181345v -11.6172h 0.181345v 4.72764h 0.181345v -9.85644h 0.181345v 1.52556h 0.181345v 9.78368h 0.181345v -7.16419h 0.181345v
 -1.79535h 0.181345v 6.18044h 0.181345v -1.22008h 0.181345v 2.54638h 0.36269v -1.3263h 0.181345v 10.5655h 0.181345v -13.9669h 0.181345v 1.05165h 0.181345v 12.9152h 0.181345v -12.9152h 0.181345v 5.12879h 0.181345v -6.18044h 0.181345v 7.78643h
 0.181345v -5.60517h 0.181345v -1.12962h 0.36269v -5.43674h 0.181345v 7.78643h 0.544034v -3.40134h 0.181345v 6.18044h 0.181345v -13.3446h 0.181345v 7.16419h 0.181345v -3.60324h 0.181345v 13.185h 0.181345v -3.40134h 0.181345v 3.40134h 0.36269v
 -9.58178h 0.181345v 4.72764h 0.181345v -6.63548h 0.181345v 6.63548h 0.181345v -11.8918h 0.181345v 9.34545h 0.181345v 3.99918h 0.181345v -1.4528h 0.36269v -4.72764h 0.181345v 1.05165h 0.181345v 5.12879h 0.181345v -6.18044h 0.181345v 6.18044h 0.36269v
 -5.12879h 0.181345v 3.676h 0.181345v -2.54638h 0.181345v -7.31006h 0.181345v 8.53014h 0.181345v -3.40134h 0.36269v -0.98375h 0.181345v 7.16419h 0.181345v -8.08828h 0.181345v -0.871257h 0.181345v 4.96036h 0.181345v -8.01915h 0.181345v 1.4528h
 0.181345v 0.781856h 0.181345v 5.7845h 0.181345v -2.18126h 0.36269v -2.7791h 0.181345v -0.824138h 0.181345v 3.60324h 0.181345v -4.38509h 0.181345v -1.4528h 0.181345v -2.54638h 0.181345v 7.40052h 0.181345v -4.85414h 0.181345v 9.23923h 0.181345v
 -2.34969h 0.181345v -6.88954h 0.181345v -3.12165h 0.181345v 8.95954h 0.181345v -0.98375h 0.181345v 2.0354h 0.181345v -4.65488h 0.181345v 5.7845h 0.181345v -4.08911h 0.181345v -1.69539h 0.181345v 13.185h 0.181345v -9.58178h 0.181345v 1.05165h
 0.181345v -6.88954h 0.181345v -1.3263h 0.181345v 3.56095h 0.181345v 0.824138h 0.181345v 2.7791h 0.36269v -5.83789h 0.181345v 2.23465h 0.544034v 4.65488h 0.181345v -3.83075h 0.181345v 6.18044h 0.181345v -7.00458h 0.181345v 8.33088h 0.181345v
 -8.33088h 0.181345v -1.52556h 0.181345v 12.9152h 0.181345v -13.6243h 0.181345v 1.4528h 0.181345v 7.78643h 0.181345v -10.5655h 0.36269v 4.38509h 0.181345v -3.05879h 0.181345v 3.93005h 0.181345v 0.924092h 0.181345v -9.58178h 0.181345v 2.18126h
 0.181345v -1.12962h 0.181345v 3.676h 0.181345v 2.23465h 0.181345v 4.65488h 0.181345v -7.56711h 0.181345v -1.27097h 0.181345v -3.76285h 0.181345v -0.469048h 0.181345v 7.63324h 0.181345v 2.47725h 0.181345v -5.87859h 0.181345v 3.40134h 0.181345v
 2.47725h 0.181345v -5.25635h 0.36269v 3.56095h 0.181345v -4.78103h 0.181345v 4.78103h 0.181345v -3.56095h 0.181345v 0.648729h 0.181345v 2.13037h 0.181345v -0.743701h 0.181345v 5.12879h 0.181345v -0.98375h 0.181345v -6.80268h 0.181345v 5.87859h
 0.181345v -4.60762h 0.181345v 0.677571h 0.181345v 2.23465h 0.181345v 4.65488h 0.181345v -8.83808h 0.181345v 7.78643h 0.181345v 2.18126h 0.181345v -2.18126h 0.181345v 2.18126h 0.181345v -4.96036h 0.181345v 1.79535h 0.181345v 5.71139h 0.181345v
 -6.63548h 0.181345v 8.08828h 0.181345v -3.99918h 0.181345v -7.31006h 0.181345v 0.743701h 0.181345v 9.11273h 0.544034v 9.23923h 0.181345v -12.9152h 0.36269v -2.95949h 0.181345v 15.8747h 0.181345v -7.78643h 0.181345v -8.95954h 0.181345v 7.50674h
 0.181345v -5.71139h 0.181345v 5.71139h 0.181345v -5.71139h 0.181345v 0.98375h 0.181345v 6.18044h 0.181345v -6.18044h 0.181345v 2.18126h 0.181345v -4.08911h 0.181345v 0.924092h 0.181345v 10.5655h 0.181345v -13.185h 0.181345v 7.00458h 0.181345v
 -6.18044h 0.544034v 8.95954h 0.181345v -12.6959h 0.181345v 9.9168h 0.181345v -4.38509h 0.181345v -3.40134h 0.181345v -0.743701h 0.181345v 4.14504h 0.181345v -1.79535h 0.181345v 16.746h 0.181345v -13.9669h 0.181345v 2.18126h 0.181345v -4.96036h
 0.181345v -2.34969h 0.181345v 4.14504h 0.36269v 0.98375h 0.36269v 3.40134h 0.181345v -3.40134h 0.181345v -6.51546h 0.181345v 5.53171h 0.181345v -7.97579h 0.181345v 10.0112h 0.181345v -2.0354h 0.181345v 0.98375h 0.181345v -5.12879h 0.181345v
 0.743701h 0.181345v 5.43674h 0.36269v -5.43674h 0.181345v 7.78643h 0.181345v 2.7791h 0.181345v -2.7791h 0.181345v -1.22008h 0.181345v 7.40052h 0.181345v -7.40052h 0.181345v 5.60517h 0.181345v 3.83075h 0.36269v -13.525h 0.181345v 11.4896h 0.181345v
 7.16419h 0.181345v -14.5647h 0.181345v 1.22008h 0.181345v 4.38509h 0.36269v -6.73479h 0.181345v 12.9152h 0.181345v -12.9152h 0.181345v 10.5655h 0.181345v -2.0354h 0.181345v -4.85414h 0.181345v 12.0183h 0.181345v -5.12879h 0.181345v 5.12879h 0.36269v
 -5.12879h 0.36269v -3.83075h 0.181345v 6.18044h 0.36269v 2.7791h 0.181345v -14.5647h 0.36269v 2.54638h 0.181345v 9.23923h 0.181345v 2.7791h 0.181345v -10.5655h 0.181345v 10.5655h 0.181345v -2.7791h 0.36269v -2.34969h 0.544034v 5.12879h 0.181345v
 -2.7791h 0.181345v 10.5655h 0.181345v -12.9152h 0.181345v -5.43674h 0.181345v 7.78643h 0.181345v 6.18044h 0.181345v -3.40134h 0.181345v 3.40134h 0.181345v -13.9669h 0.181345v 5.43674h 0.181345v -5.43674h 0.181345v 18.352h 0.181345v -14.9506h
 0.181345v -4.85414h 0.181345v 3.05879h 0.181345v -1.60599h 0.181345v 10.5655h 0.181345v -14.5647h 0.181345v 3.99918h 0.181345v 7.78643h 0.181345v -2.34969h 0.181345v 2.34969h 0.181345v 2.7791h 0.181345v -12.0183h 0.36269v 9.23923h 0.181345v 2.7791h
 0.181345v -7.16419h 0.181345v 7.16419h 0.181345v -8.95954h 0.36269v 3.83075h 0.181345v 2.34969h 0.181345v -4.38509h 0.36269v -8.53014h 0.181345v 5.12879h 0.181345v 3.40134h 0.181345v -4.85414h 0.181345v 9.23923h 0.181345v -4.38509h 0.36269v
 -6.18044h 0.181345v 4.38509h 0.181345v -3.05879h 0.181345v 1.4528h 0.181345v 3.40134h 0.181345v -10.5655h 0.181345v 21.1311h 0.181345v -6.18044h 0.181345v -4.38509h 0.36269v 2.0354h 0.181345v -2.0354h 0.181345v -3.40134h 0.181345v -2.7791h 0.181345v
 8.21584h 0.36269v -6.88954h 0.181345v -3.676h 0.181345v 2.34969h 0.181345v 10.5655h 0.181345v -4.38509h 0.181345v -8.53014h 0.181345v 1.12962h 0.181345v 28.5316h 0.181345v -13.9669h 0.36269v -13.3446h 0.181345v 13.3446h 0.181345v -5.12879h 0.181345v
 -2.0354h 0.181345v -3.40134h 0.181345v 5.43674h 0.181345v 2.34969h 0.181345v -9.23923h 0.181345v 4.85414h 0.36269v -8.53014h 0.181345v 10.5655h 0.544034v 2.34969h 0.181345v -4.38509h 0.181345v 2.0354h 0.181345v -9.43592h 0.181345v 14.5647h 0.181345v
 -7.16419h 0.36269v 21.1311h 0.181345v -16.746h 0.181345v -11.7856h 0.181345v 14.5647h 0.181345v -8.95954h 0.181345v -7.78643h 0.181345v 2.18126h 0.36269v 3.99918h 0.181345v -1.4528h 0.181345v 12.0183h 0.181345v -15.6943h 0.181345v 5.12879h 0.181345v
 -3.99918h 0.181345v -4.96036h 0.181345v 10.5655h 0.181345v -9.69428h 0.181345v 8.08828h 0.181345v 1.60599h 0.544034v -3.05879h 0.181345v -4.72764h 0.181345v 4.72764h 0.181345v 1.4528h 0.181345v -1.4528h 0.181345v -4.72764h 0.181345v -7.78643h
 0.181345v 9.9677h 0.181345v -4.08911h 0.181345v 1.90784h 0.36269v 3.40134h 0.181345v -5.30918h 0.181345v 8.08828h 0.181345v -2.7791h 0.181345v -3.40134h 0.181345v -2.7791h 0.181345v 2.7791h 0.181345v 1.05165h 0.181345v -2.0354h 0.181345v 4.38509h
 0.181345v -9.23923h 0.181345v 5.83789h 0.181345v -8.95954h 0.181345v 3.83075h 0.181345v 3.22095h 0.181345v -1.69539h 0.181345v 2.61949h 0.181345v -0.924092h 0.181345v -3.93005h 0.181345v -2.54638h 0.181345v 3.99918h 0.181345v 13.9669h 0.181345v
 -15.4197h 0.181345v 10.5655h 0.181345v -4.72764h 0.36269v 1.05165h 0.181345v -2.95949h 0.36269v -4.60762h 0.181345v 1.38667h 0.181345v 7.31006h 0.36269v -4.08911h 0.36269v -0.871257h 0.181345v 0.871257h 0.181345v 6.63548h 0.181345v 3.05879h
 0.181345v -5.60517h 0.181345v 11.7856h 0.181345v -10.5655h 0.181345v -2.34969h 0.181345v 1.12962h 0.181345v 5.60517h 0.181345v -4.38509h 0.181345v 4.38509h 0.181345v 1.79535h 0.181345v 2.0354h 0.181345v -3.83075h 0.181345v -1.60599h 0.181345v
 10.5655h 0.181345v -12.0183h 0.181345v 1.4528h 0.181345v -1.4528h 0.181345v 1.4528h 0.181345v 5.43674h 0.181345v -6.88954h 0.181345v 15.4197h 0.36269v -6.18044h 0.181345v 10.5655h 0.181345v -7.78643h 0.181345v 3.40134h 0.544034v -3.40134h 0.181345v
 -8.95954h 0.181345v 8.95954h 0.181345v 35.0979h 0.181345v -10.5655h 0.906724v -10.5655h 0.181345v -6.18044h 0.36269v -7.78643h 0.181345v 35.0979h 0.36269v -31.6966h 0.181345v 21.1311h 0.181345v -16.746h 0.181345v 16.746h 0.181345v -10.5655h
 0.181345v 10.5655h 0.181345v -16.746h 0.181345v 6.18044h 0.36269v 10.5655h 0.544034v -10.5655h 0.181345v -6.18044h 0.181345v 16.746h 0.181345v 10.5655h 0.181345v -10.5655h 0.725379v 10.5655h 0.181345v -31.6966h 0.181345v 31.6966h 0.181345v -21.1311h
 0.181345v 21.1311h 0.181345v -21.1311h 0.181345v 10.5655h 0.181345v -10.5655h 0.181345v 21.1311h 0.725379v -10.5655h 0.181345v 10.5655h 0.181345v -10.5655h 0.181345v -16.746h 0.181345v 6.18044h 0.181345v 21.1311h 0.181345v -10.5655h 0.544034v
 10.5655h 0.725379v -10.5655h 0.181345v 10.5655h 0.544034v -21.1311h 0.181345v 10.5655h 0.181345v 10.5655h 0.181345v -21.1311h 0.181345v 21.1311h 0.36269v -10.5655h 0.181345v 10.5655h 0.36269v -21.1311h 0.36269v 21.1311h 0.181345v -10.5655h 0.181345v
 -10.5655h 0.181345v 21.1311h 0.181345v -10.5655h 0.181345v -10.5655h 0.181345v 21.1311h 0.36269v -21.1311h 0.181345v 10.5655h 0.181345v 10.5655h 0.181345v -10.5655h 0.181345v 10.5655h 0.181345v -10.5655h 0.181345v 10.5655h 0.36269v -10.5655h
 0.181345v 10.5655h 0.181345v -10.5655h 0.181345v 10.5655h 0.544034v -21.1311h 0.181345v 10.5655h 0.36269v 10.5655h 0.36269v -10.5655h 0.544034v 10.5655h 0.36269v -10.5655h 0.181345v 10.5655h 0.36269v -10.5655h 0.36269v -10.5655h 0.36269v 10.5655h
 0.181345v 10.5655h 1.26941v -10.5655h 0.181345v 10.5655h 0.544034v -10.5655h 0.36269v 10.5655h 0.181345v -10.5655h 0.181345v 10.5655h 0.181345v -21.1311h 0.544034v 10.5655h 0.181345v 10.5655h 0.36269v -21.1311h 0.181345v 21.1311h 0.181345v -21.1311h
 0.181345v 10.5655h 0.181345v 10.5655h 0.544034v -10.5655h 0.181345v -10.5655h 0.181345v 21.1311h 0.36269v -10.5655h 0.181345v 10.5655h 0.181345v -10.5655h 0.36269v 10.5655h 0.36269v -10.5655h 0.544034v 10.5655h 0.181345v -10.5655h 0.181345v 10.5655h
 0.181345v -10.5655h 0.181345v -10.5655h 0.36269v 10.5655h 0.36269v 10.5655h 0.36269v -21.1311h 0.181345v 21.1311h 0.906724v -10.5655h 0.181345v 10.5655h 0.181345v -21.1311h 0.181345v 10.5655h 0.181345v 10.5655h 0.36269v -10.5655h 0.181345v 10.5655h
 0.544034v -21.1311h 0.181345v 21.1311h 0.725379v -21.1311h 0.181345v 10.5655h 0.181345v -10.5655h 0.181345v 21.1311h 1.08807v -21.1311h 0.181345v -6.18044h 0.181345v 27.3115h 0.544034v -10.5655h 0.181345v 10.5655h 0.36269v -10.5655h 0.181345v
 10.5655h 0.36269v -10.5655h 0.181345v 10.5655h 1.26941v -10.5655h 0.36269v 10.5655h 0.906724v -10.5655h 0.544034v 10.5655h 0.181345v -21.1311h 0.181345v 21.1311h 0.181345v -10.5655h 0.181345v 10.5655h 0.36269v -10.5655h 0.181345v 10.5655h 0.725379v
 -10.5655h 0.181345v 10.5655h 0.181345v -10.5655h 0.181345v -10.5655h 0.36269v 10.5655h 0.181345v 10.5655h 0.544034v -10.5655h 0.181345v 10.5655h 0.544034v -10.5655h 0.181345v 10.5655h 0.181345v -10.5655h 0.181345v -21.1311h 0.181345v 31.6966h
 0.181345v -10.5655h 0.181345v 10.5655h 0.36269v -21.1311h 0.181345v 10.5655h 0.181345v 10.5655h 0.181345v -21.1311h 0.181345v 10.5655h 0.181345v 10.5655h 0.544034v -10.5655h 0.181345v -10.5655h 0.181345v 10.5655h 0.36269v 10.5655h 0.36269v -10.5655h
 0.181345v 10.5655h 0.544034v -10.5655h 0.906724v 10.5655h 0.181345v -10.5655h 0.36269v 10.5655h 0.36269v -21.1311h 0.181345v 21.1311h 0.181345v -21.1311h 0.36269v 10.5655h 0.181345v 10.5655h 0.544034v -10.5655h 0.181345v 10.5655h 0.181345v -10.5655h
 0.544034v 10.5655h 0.181345v -10.5655h 0.181345v 10.5655h 0.181345v -10.5655h 0.181345v 10.5655h 0.725379v -21.1311h 0.181345v 21.1311h 0.181345v -21.1311h 0.181345v 21.1311h 0.36269v -10.5655h 0.181345" fill="none" stroke="black"/>
<path d="M57.1929,280.151h 453.543" fill="none" stroke="black"/>
<path d="M57.1929,272.68v 7.47068" fill="none" stroke="black"/>
<path d="M75.3318,276.415v 3.73534" fill="none" stroke="black"/>
<path d="M93.4707,276.415v 3.73534" fill="none" stroke="black"/>
<path d="M111.61,276.415v 3.73534" fill="none" stroke="black"/>
<path d="M129.749,276.415v 3.73534" fill="none" stroke="black"/>
<path d="M147.887,272.68v 7.47068" fill="none" stroke="black"/>
<path d="M166.026,276.415v 3.73534" fill="none" stroke="black"/>
<path d="M184.165,276.415v 3.73534" fill="none" stroke="black"/>
<path d="M202.304,276.415v 3.73534" fill="none" stroke="black"/>
<path d="M220.443,276.415v 3.73534" fill="none" stroke="black"/>
<path d="M238.582,272.68v 7.47068" fill="none" stroke="black"/>
<path d="M256.721,276.415v 3.73534" fill="none" stroke="black"/>
<path d="M274.86,276.415v 3.73534" fill="none" stroke="black"/>
<path d="M292.999,276.415v 3.73534" fill="none" stroke="black"/>
<path d="M311.138,276.415v 3.73534" fill="none" stroke="black"/>
<path d="M329.277,272.68v 7.47068" fill="none" stroke="black"/>
<path d="M347.415,276.415v 3.73534" fill="none" stroke="black"/>
<path d="M365.554,276.415v 3.73534" fill="none" stroke="black"/>
<path d="M383.693,276.415v 3.73534" fill="none" stroke="black"/>
<path d="M401.832,276.415v 3.73534" fill="none" stroke="black"/>
<path d="M419.971,272.68v 7.47068" fill="none" stroke="black"/>
<path d="M438.11,276.415v 3.73534" fill="none" stroke="black"/>
<path d="M456.249,276.415v 3.73534" fill="none" stroke="black"/>
<path d="M474.388,276.415v 3.73534" fill="none" stroke="black"/>
<path d="M492.527,276.415v 3.73534" fill="none" stroke="black"/>
<path d="M510.666,272.68v 7.47068" fill="none" stroke="black"/>
<path d="M510.666,272.68v 7.47068" fill="none" stroke="black"/>
<text xml:space="preserve" x="54.3523" y="290.27" fill="black" font-size="10.4952" font-family="Helvetica">0</text>
<text xml:space="preserve" x="139.569" y="290.27" fill="black" font-size="10.4952" font-family="Helvetica">500</text>
<text xml:space="preserve" x="227.449" y="290.27" fill="black" font-size="10.4952" font-family="Helvetica">1000</text>
<text xml:space="preserve" x="318.288" y="290.27" fill="black" font-size="10.4952" font-family="Helvetica">1500</text>
<text xml:space="preserve" x="408.831" y="290.27" fill="black" font-size="10.4952" font-family="Helvetica">2000</text>
<text xml:space="preserve" x="499.67" y="290.27" fill="black" font-size="10.4952" font-family="Helvetica">2500</text>
<text xml:space="preserve" x="265.323" y="301.218" fill="black" font-size="10.4952" font-family="Helvetica">Channel</text>
<path d="M57.1929,280.151v -249.023" fill="none" stroke="black"/>
<path d="M63.9961,280.151h -6.80315" fill="none" stroke="black"/>
<path d="M63.9961,277.371h -6.80315" fill="none" stroke="black"/>
<path d="M63.9961,275.022h -6.80315" fill="none" stroke="black"/>
<path d="M63.9961,272.986h -6.80315" fill="none" stroke="black"/>
<path d="M63.9961,271.191h -6.80315" fill="none" stroke="black"/>
<path d="M70.7992,269.585h -13.6063" fill="none" stroke="black"/>
<text xml:space="preserve" x="49.0263" y="273.404" fill="black" font-size="10.4952" font-family="Helvetica">1</text>
<path d="M63.9961,259.019h -6.80315" fill="none" stroke="black"/>
<path d="M63.9961,252.839h -6.80315" fill="none" stroke="black"/>
<path d="M63.9961,248.454h -6.80315" fill="none" stroke="black"/>
<path d="M63.9961,245.053h -6.80315" fill="none" stroke="black"/>
<path d="M63.9961,242.273h -6.80315" fill="none" stroke="black"/>
<path d="M63.9961,239.924h -6.80315" fill="none" stroke="black"/>
<path d="M63.9961,237.888h -6.80315" fill="none" stroke="black"/>
<path d="M63.9961,236.093h -6.80315" fill="none" stroke="black"/>
<path d="M70.7992,234.487h -13.6063" fill="none" stroke="black"/>
<text xml:space="preserve" x="41.629" y="238.193" fill="black" font-size="10.4952" font-family="Helvetica">10</text>
<path d="M63.9961,223.922h -6.80315" fill="none" stroke="black"/>
<path d="M63.9961,217.741h -6.80315" fill="none" stroke="black"/>
<path d="M63.9961,213.356h -6.80315" fill="none" stroke="black"/>
<path d="M63.9961,209.955h -6.80315" fill="none" stroke="black"/>
<path d="M63.9961,207.176h -6.80315" fill="none" stroke="black"/>
<path d="M63.9961,204.826h -6.80315" fill="none" stroke="black"/>
<path d="M63.9961,202.79h -6.80315" fill="none" stroke="black"/>
<path d="M63.9961,200.995h -6.80315" fill="none" stroke="black"/>
<path d="M70.7992,199.389h -13.6063" fill="none" stroke="black"/>
<text xml:space="preserve" x="49.0263" y="199.431" fill="black" font-size="7.16345" font-family="Helvetica">2</text>
<text xml:space="preserve" x="38.0783" y="203.87" fill="black" font-size="10.4952" font-family="Helvetica">10</text>
<path d="M63.9961,188.824h -6.80315" fill="none" stroke="black"/>
<path d="M63.9961,182.643h -6.80315" fill="none" stroke="black"/>
<path d="M63.9961,178.258h -6.80315" fill="none" stroke="black"/>
<path d="M63.9961,174.857h -6.80315" fill="none" stroke="black"/>
<path d="M63.9961,172.078h -6.80315" fill="none" stroke="black"/>
<path d="M63.9961,169.728h -6.80315" fill="none" stroke="black"/>
<path d="M63.9961,167.693h -6.80315" fill="none" stroke="black"/>
<path d="M63.9961,165.897h -6.80315" fill="none" stroke="black"/>
<path d="M70.7992,164.291h -13.6063" fill="none" stroke="black"/>
<text xml:space="preserve" x="49.0263" y="164.22" fill="black" font-size="7.16345" font-family="Helvetica">3</text>
<text xml:space="preserve" x="38.0783" y="168.954" fill="black" font-size="10.4952" font-family="Helvetica">10</text>
<path d="M63.9961,153.726h -6.80315" fill="none" stroke="black"/>
<path d="M63.9961,147.545h -6.80315" fill="none" stroke="black"/>
<path d="M63.9961,143.16h -6.80315" fill="none" stroke="black"/>
<path d="M63.9961,139.759h -6.80315" fill="none" stroke="black"/>
<path d="M63.9961,136.98h -6.80315" fill="none" stroke="black"/>
<path d="M63.9961,134.63h -6.80315" fill="none" stroke="black"/>
<path d="M63.9961,132.595h -6.80315" fill="none" stroke="black"/>
<path d="M63.9961,130.799h -6.80315" fill="none" stroke="black"/>
<path d="M70.7992,129.193h -13.6063" fill="none" stroke="black"/>
<text xml:space="preserve" x="49.0263" y="129.305" fill="black" font-size="7.16345" font-family="Helvetica">4</text>
<text xml:space="preserve" x="38.0783" y="133.743" fill="black" font-size="10.4952" font-family="Helvetica">10</text>
<path d="M63.9961,118.628h -6.80315" fill="none" stroke="black"/>
<path d="M63.9961,112.447h -6.80315" fill="none" stroke="black"/>
<path d="M63.9961,108.062h -6.80315" fill="none" stroke="black"/>
<path d="M63.9961,104.661h -6.80315" fill="none" stroke="black"/>
<path d="M63.9961,101.882h -6.80315" fill="none" stroke="black"/>
<path d="M63.9961,99.5321h -6.80315" fill="none" stroke="black"/>
<path d="M63.9961,97.4967h -6.80315" fill="none" stroke="black"/>
<path d="M63.9961,95.7013h -6.80315" fill="none" stroke="black"/>
<path d="M70.7992,94.0953h -13.6063" fill="none" stroke="black"/>
<text xml:space="preserve" x="49.0263" y="94.0937" fill="black" font-size="7.16345" font-family="Helvetica">5</text>
<text xml:space="preserve" x="38.0783" y="98.8279" fill="black" font-size="10.4952" font-family="Helvetica">10</text>
<path d="M63.9961,83.5298h -6.80315" fill="none" stroke="black"/>
<path d="M63.9961,77.3494h -6.80315" fill="none" stroke="black"/>
<path d="M63.9961,72.9643h -6.80315" fill="none" stroke="black"/>
<path d="M63.9961,69.5629h -6.80315" fill="none" stroke="black"/>
<path d="M63.9961,66.7838h -6.80315" fill="none" stroke="black"/>
<path d="M63.9961,64.4341h -6.80315" fill="none" stroke="black"/>
<path d="M63.9961,62.3987h -6.80315" fill="none" stroke="black"/>
<path d="M63.9961,60.6034h -6.80315" fill="none" stroke="black"/>
<path d="M70.7992,58.9974h -13.6063" fill="none" stroke="black"/>
<text xml:space="preserve" x="49.0263" y="58.8825" fill="black" font-size="7.16345" font-family="Helvetica">6</text>
<text xml:space="preserve" x="38.0783" y="63.6168" fill="black" font-size="10.4952" font-family="Helvetica">10</text>
<path d="M63.9961,48.4319h -6.80315" fill="none" stroke="black"/>
<path d="M63.9961,42.2514h -6.80315" fill="none" stroke="black"/>
<path d="M63.9961,37.8663h -6.80315" fill="none" stroke="black"/>
<path d="M63.9961,34.465h -6.80315" fill="none" stroke="black"/>
<path d="M63.9961,31.6859h -6.80315" fill="none" stroke="black"/>
<g transform="rotate(-90,26.5385,191.442)">
<text xml:space="preserve" x="26.5385" y="191.442" fill="black" font-size="10.4952" font-family="Helvetica">Counts/Channel</text>
</g>
<text xml:space="preserve" x="404.097" y="58.8825" fill="black" font-size="14.7788" font-family="Helvetica" font-weight="bold"> = 2.4879 MeV</text>
<text xml:space="preserve" x="398.179" y="62.1373" fill="black" font-size="10.0192" font-family="Helvetica" font-weight="bold">p</text>
<text xml:space="preserve" x="389.006" y="58.8825" fill="black" font-size="14.7788" font-family="Helvetica" font-weight="bold">E</text>
<path d="M262.163,162.838v 26.4018" fill="none" stroke="black"/>
<path d="M264.454,189.24l -2.29122, 3.9685l -2.29122, -3.9685z" fill="black"/>
<path d="M264.454,189.24l -2.29122, 3.9685l -2.29122, -3.9685h 4.58243z" fill="none" stroke="black"/>
<text xml:space="preserve" x="266.803" y="160.669" fill="black" font-size="10.4952" font-family="Helvetica" font-weight="bold">_1 	1.369 MeV</text>
<text xml:space="preserve" x="260.293" y="160.669" fill="black" font-size="10.4952" font-family="Times">&#0945;</text>
<path d="M184.528,129.193v 31.1294" fill="none" stroke="black"/>
<path d="M186.819,160.323l -2.29122, 3.9685l -2.29122, -3.9685z" fill="black"/>
<path d="M186.819,160.323l -2.29122, 3.9685l -2.29122, -3.9685h 4.58243z" fill="none" stroke="black"/>
<text xml:space="preserve" x="172.117" y="126.346" fill="black" font-size="10.4952" font-family="Helvetica" font-weight="bold"># p_1 	0.844 MeV</text>
<path d="M210.104,147.545v 12.7775" fill="none" stroke="black"/>
<path d="M212.395,160.323l -2.29122, 3.9685l -2.29122, -3.9685z" fill="black"/>
<path d="M212.395,160.323l -2.29122, 3.9685l -2.29122, -3.9685h 4.58243z" fill="none" stroke="black"/>
<text xml:space="preserve" x="197.564" y="142.916" fill="black" font-size="10.4952" font-family="Helvetica" font-weight="bold"># p_2 	1.015 MeV</text>
<path d="M497.504,269.585h 13.1619" fill="none" stroke="black"/>
<path d="M504.085,259.019h 6.58093" fill="none" stroke="black"/>
<path d="M504.085,252.839h 6.58093" fill="none" stroke="black"/>
<path d="M504.085,248.454h 6.58093" fill="none" stroke="black"/>
<path d="M504.085,245.053h 6.58093" fill="none" stroke="black"/>
<path d="M504.085,242.273h 6.58093" fill="none" stroke="black"/>
<path d="M504.085,239.924h 6.58093" fill="none" stroke="black"/>
<path d="M504.085,237.888h 6.58093" fill="none" stroke="black"/>
<path d="M504.085,236.093h 6.58093" fill="none" stroke="black"/>
<path d="M497.504,234.487h 13.1619" fill="none" stroke="black"/>
<path d="M504.085,223.922h 6.58093" fill="none" stroke="black"/>
<path d="M504.085,217.741h 6.58093" fill="none" stroke="black"/>
<path d="M504.085,213.356h 6.58093" fill="none" stroke="black"/>
<path d="M504.085,209.955h 6.58093" fill="none" stroke="black"/>
<path d="M504.085,207.176h 6.58093" fill="none" stroke="black"/>
<path d="M504.085,204.826h 6.58093" fill="none" stroke="black"/>
<path d="M504.085,202.79h 6.58093" fill="none" stroke="black"/>
<path d="M504.085,200.995h 6.58093" fill="none" stroke="black"/>
<path d="M497.504,199.389h 13.1619" fill="none" stroke="black"/>
<path d="M504.085,188.824h 6.58093" fill="none" stroke="black"/>
<path d="M504.085,182.643h 6.58093" fill="none" stroke="black"/>
<path d="M504.085,178.258h 6.58093" fill="none" stroke="black"/>
<path d="M504.085,174.857h 6.58093" fill="none" stroke="black"/>
<path d="M504.085,172.078h 6.58093" fill="none" stroke="black"/>
<path d="M504.085,169.728h 6.58093" fill="none" stroke="black"/>
<path d="M504.085,167.693h 6.58093" fill="none" stroke="black"/>
<path d="M504.085,165.897h 6.58093" fill="none" stroke="black"/>
<path d="M497.504,164.291h 13.1619" fill="none" stroke="black"/>
<path d="M504.085,153.726h 6.58093" fill="none" stroke="black"/>
<path d="M504.085,147.545h 6.58093" fill="none" stroke="black"/>
<path d="M504.085,143.16h 6.58093" fill="none" stroke="black"/>
<path d="M504.085,139.759h 6.58093" fill="none" stroke="black"/>
<path d="M504.085,136.98h 6.58093" fill="none" stroke="black"/>
<path d="M504.085,134.63h 6.58093" fill="none" stroke="black"/>
<path d="M504.085,132.595h 6.58093" fill="none" stroke="black"/>
<path d="M504.085,130.799h 6.58093" fill="none" stroke="black"/>
<path d="M497.504,129.193h 13.1619" fill="none" stroke="black"/>
<path d="M504.085,118.628h 6.58093" fill="none" stroke="black"/>
<path d="M504.085,112.447h 6.58093" fill="none" stroke="black"/>
<path d="M504.085,108.062h 6.58093" fill="none" stroke="black"/>
<path d="M504.085,104.661h 6.58093" fill="none" stroke="black"/>
<path d="M504.085,101.882h 6.58093" fill="none" stroke="black"/>
<path d="M504.085,99.5321h 6.58093" fill="none" stroke="black"/>
<path d="M504.085,97.4967h 6.58093" fill="none" stroke="black"/>
<path d="M504.085,95.7013h 6.58093" fill="none" stroke="black"/>
<path d="M497.504,94.0953h 13.1619" fill="none" stroke="black"/>
<path d="M504.085,83.5298h 6.58093" fill="none" stroke="black"/>
<path d="M504.085,77.3494h 6.58093" fill="none" stroke="black"/>
<path d="M504.085,72.9643h 6.58093" fill="none" stroke="black"/>
<path d="M504.085,69.5629h 6.58093" fill="none" stroke="black"/>
<path d="M504.085,66.7838h 6.58093" fill="none" stroke="black"/>
<path d="M504.085,64.4341h 6.58093" fill="none" stroke="black"/>
<path d="M504.085,62.3987h 6.58093" fill="none" stroke="black"/>
<path d="M504.085,60.6034h 6.58093" fill="none" stroke="black"/>
<path d="M497.504,58.9974h 13.1619" fill="none" stroke="black"/>
<path d="M504.085,48.4319h 6.58093" fill="none" stroke="black"/>
<path d="M504.085,42.2514h 6.58093" fill="none" stroke="black"/>
<path d="M504.085,37.8663h 6.58093" fill="none" stroke="black"/>
<path d="M504.085,34.465h 6.58093" fill="none" stroke="black"/>
<path d="M504.085,31.6859h 6.58093" fill="none" stroke="black"/>
<path d="M504.085,29.3362h 6.58093" fill="none" stroke="black"/>
<path d="M57.1929,36.1661v -7.46952" fill="none" stroke="black"/>
<path d="M75.3318,36.1661v -7.46952" fill="none" stroke="black"/>
<path d="M93.4707,36.1661v -7.46952" fill="none" stroke="black"/>
<path d="M111.61,36.1661v -7.46952" fill="none" stroke="black"/>
<path d="M129.749,36.1661v -7.46952" fill="none" stroke="black"/>
<path d="M147.887,36.1661v -7.46952" fill="none" stroke="black"/>
<path d="M166.026,36.1661v -7.46952" fill="none" stroke="black"/>
<path d="M184.165,36.1661v -7.46952" fill="none" stroke="black"/>
<path d="M202.304,36.1661v -7.46952" fill="none" stroke="black"/>
<path d="M220.443,36.1661v -7.46952" fill="none" stroke="black"/>
<path d="M238.582,36.1661v -7.46952" fill="none" stroke="black"/>
<path d="M256.721,36.1661v -7.46952" fill="none" stroke="black"/>
<path d="M274.86,36.1661v -7.46952" fill="none" stroke="black"/>
<path d="M292.999,36.1661v -7.46952" fill="none" stroke="black"/>
<path d="M311.138,36.1661v -7.46952" fill="none" stroke="black"/>
<path d="M329.277,36.1661v -7.46952" fill="none" stroke="black"/>
<path d="M347.415,36.1661v -7.46952" fill="none" stroke="black"/>
<path d="M365.554,36.1661v -7.46952" fill="none" stroke="black"/>
<path d="M383.693,36.1661v -7.46952" fill="none" stroke="black"/>
<path d="M401.832,36.1661v -7.46952" fill="none" stroke="black"/>
<path d="M419.971,36.1661v -7.46952" fill="none" stroke="black"/>
<path d="M438.11,36.1661v -7.46952" fill="none" stroke="black"/>
<path d="M456.249,36.1661v -7.46952" fill="none" stroke="black"/>
<path d="M474.388,36.1661v -7.46952" fill="none" stroke="black"/>
<path d="M492.527,36.1661v -7.46952" fill="none" stroke="black"/>
<path d="M510.666,36.1661v -7.46952" fill="none" stroke="black"/></svg>
