<?xml version="1.0" standalone="no"?>
<svg width="567.429" height="311.778" viewBox="0 0 567.429 311.778" xmlns="http://www.w3.org/2000/svg" shape-rendering="crispEdges">
<title>
Yields/P1/run_0106/det3_Fit.svg
</title>
<desc>
Creator: ROOT Version 6.12/06
CreationDate: Mon Apr 15 10:29:02 2019</desc>
<defs>
</defs>
<rect x="0.5" y="0" width="566.929" height="311.278" fill="white"/>
<rect x="57.1929" y="31.1278" width="453.543" height="249.023" fill="white"/>
<rect x="57.1929" y="31.1278" width="453.543" height="249.023" fill="none" stroke="black"/>
<path d="M57.1929,40.8885h 0.181345v 239.262h 15.233v -10.5864h 0.181345v 10.5864h 5.98438v -10.5864h 0.181345v 10.5864h 0.544034v -10.5864h 0.181345v 10.5864h 4.35227v -10.5864h 0.36269v 10.5864h 0.181345v -10.5864h 0.181345v 10.5864h 0.725379v
 -10.5864h 0.181345v 10.5864h 1.6321v -10.5864h 0.181345v 10.5864h 0.544034v -10.5864h 0.36269v 10.5864h 0.544034v -10.5864h 0.181345v -36.623h 0.181345v -16.3091h 0.181345v -13.2111h 0.181345v -9.11065h 0.181345v -6.98345h 0.181345v -7.49042h
 0.181345v -0.506333h 0.181345v -2.44891h 0.181345v -1.44924h 0.181345v -0.995741h 0.181345v -1.73517h 0.181345v -0.963834h 0.181345v -0.954108h 0.181345v -0.258671h 0.181345v -1.73919h 0.181345v -0.0415592h 0.181345v 0.229988h 0.181345v -0.740155h
 0.181345v -0.258702h 0.181345v 0.298894h 0.181345v -0.239581h 0.181345v -1.03391h 0.181345v 0.662091h 0.181345v -1.17184h 0.181345v -0.562475h 0.181345v 1.12787h 0.181345v -0.725694h 0.181345v -0.0177078h 0.181345v 0.249798h 0.181345v -1.1934h
 0.181345v 1.06799h 0.181345v -1.28276h 0.181345v 1.3543h 0.181345v -0.597639h 0.181345v 0.579723h 0.181345v -0.178009h 0.181345v -0.470512h 0.181345v -1.09258h 0.181345v 0.803596h 0.181345v 0.0675051h 0.181345v -0.597066h 0.181345v 0.147093h
 0.181345v 0.705809h 0.181345v 0.225244h 0.181345v 0.0875246h 0.181345v 0.229939h 0.181345v -0.730738h 0.181345v 0.18803h 0.181345v 0.225244h 0.181345v -0.615792h 0.181345v 0.25357h 0.181345v 0.590838h 0.181345v 0.214111h 0.181345v -0.267173h
 0.181345v 0.594075h 0.181345v 0.259184h 0.181345v 0.551294h 0.181345v 1.08279h 0.181345v -2.46968h 0.181345v 0.966853h 0.181345v 0.246803h 0.181345v -1.14278h 0.181345v -0.472128h 0.181345v -2.19361h 0.181345v -0.585244h 0.181345v -2.38712h
 0.181345v -2.35083h 0.181345v -3.41018h 0.181345v -2.68746h 0.181345v -3.53324h 0.181345v -2.50091h 0.181345v -2.43499h 0.181345v -1.69854h 0.181345v -2.08291h 0.181345v -0.969066h 0.181345v -0.153736h 0.181345v -0.169669h 0.181345v 1.04438h
 0.181345v 1.42238h 0.181345v 1.64835h 0.181345v 2.86556h 0.181345v 3.34617h 0.181345v 2.95717h 0.181345v 4.4587h 0.181345v 3.07931h 0.181345v 4.21663h 0.181345v 4.14107h 0.181345v 1.96938h 0.181345v 4.52101h 0.181345v 0.395932h 0.181345v 2.72916h
 0.181345v -0.25608h 0.181345v 0.109223h 0.181345v 1.65797h 0.181345v 0.081674h 0.181345v -0.797727h 0.181345v 0.19556h 0.181345v 1.05935h 0.181345v -0.498077h 0.181345v 0.0408916h 0.181345v 0.247676h 0.181345v 0.209509h 0.181345v 0.514869h 0.181345v
 0.175554h 0.181345v 0.447921h 0.181345v -0.579774h 0.181345v 0.994451h 0.181345v -1.1685h 0.181345v 0.217878h 0.181345v -0.560144h 0.181345v 0.516319h 0.181345v 1.32495h 0.181345v -2.38159h 0.181345v 1.01295h 0.181345v 0.487713h 0.181345v -1.54144h
 0.181345v 2.6629h 0.181345v -0.664148h 0.181345v -1.29019h 0.181345v 0.743039h 0.181345v 1.65403h 0.181345v -1.06038h 0.181345v 0.714935h 0.181345v 0.345446h 0.181345v 0.404606h 0.181345v 0.468374h 0.181345v -1.21843h 0.181345v 1.32449h 0.181345v
 -0.523099h 0.181345v -0.703486h 0.181345v 2.97236h 0.181345v -2.42237h 0.181345v 0.360593h 0.181345v 1.36213h 0.181345v -0.0568827h 0.181345v 0.87632h 0.181345v 0.613456h 0.181345v -3.60707h 0.181345v 3.92329h 0.181345v -0.98969h 0.181345v 1.4437h
 0.181345v -1.26295h 0.181345v -0.883078h 0.181345v 0.883078h 0.181345v 1.46173h 0.181345v -0.780067h 0.181345v -0.981735h 0.181345v 0.730322h 0.181345v -0.308556h 0.181345v 0.687245h 0.181345v 1.26515h 0.181345v -0.0692654h 0.181345v -1.38641h
 0.181345v -1.03689h 0.181345v 1.16364h 0.181345v -2.83754h 0.181345v 2.58508h 0.181345v -0.97004h 0.181345v 3.93091h 0.181345v -2.83517h 0.181345v 0.644526h 0.181345v -1.32344h 0.181345v 0.182185h 0.181345v 1.27349h 0.181345v 1.17277h 0.181345v
 -1.94953h 0.181345v 2.23907h 0.181345v -2.11233h 0.181345v 1.05373h 0.181345v -0.469975h 0.181345v 1.09629h 0.181345v -1.74355h 0.181345v -0.251413h 0.181345v 0.507034h 0.181345v 1.06754h 0.181345v 0.491587h 0.181345v -2.25204h 0.181345v 2.10997h
 0.181345v 1.02345h 0.181345v -1.91606h 0.181345v -1.27882h 0.181345v 1.68432h 0.181345v -1.18557h 0.181345v 1.95816h 0.181345v -2.76056h 0.181345v -1.81226h 0.181345v 1.16475h 0.181345v -1.79249h 0.181345v 0.206395h 0.181345v -0.460527h 0.181345v
 -0.100481h 0.181345v -1.43289h 0.181345v 0.276026h 0.181345v -0.945023h 0.181345v 0.131476h 0.181345v -0.218502h 0.181345v 0.7105h 0.181345v 0.602655h 0.181345v 1.69875h 0.181345v 0.702952h 0.181345v 1.69549h 0.181345v -1.13185h 0.181345v 2.08872h
 0.181345v -0.894908h 0.181345v 0.37713h 0.181345v 1.68004h 0.181345v -0.626315h 0.181345v 2.51427h 0.181345v -1.30882h 0.181345v 0.912092h 0.181345v 0.0785246h 0.181345v -0.990616h 0.181345v 0.601969h 0.181345v -0.748826h 0.181345v 1.13747h
 0.181345v 0.238026h 0.181345v 0.570258h 0.181345v -0.490085h 0.181345v -0.396723h 0.181345v 0.236795h 0.181345v 0.321549h 0.181345v -0.714192h 0.181345v -1.19264h 0.181345v 2.2353h 0.181345v -0.964931h 0.181345v 0.88215h 0.181345v -0.88215h
 0.181345v 0.717923h 0.181345v -2.75735h 0.181345v 3.00436h 0.181345v 0.765937h 0.181345v -0.514869h 0.181345v -1.13788h 0.181345v 0.31655h 0.181345v 0.821327h 0.181345v -0.821327h 0.181345v 2.23487h 0.181345v -2.23487h 0.181345v 0.241794h 0.181345v
 1.18193h 0.181345v -1.01858h 0.181345v -1.41082h 0.181345v 1.32892h 0.181345v -2.41257h 0.181345v 0.424277h 0.181345v -0.0715364h 0.181345v -0.629183h 0.181345v -0.136367h 0.181345v -1.97139h 0.181345v 3.17127h 0.181345v -1.46902h 0.181345v
 0.133974h 0.181345v -0.786766h 0.181345v -0.2535h 0.181345v 0.576408h 0.181345v -1.6678h 0.181345v 2.67963h 0.181345v -0.276442h 0.181345v 0.844805h 0.181345v -2.46767h 0.181345v 4.0688h 0.181345v -1.23485h 0.181345v 0.149006h 0.181345v 0.302445h
 0.181345v -0.961814h 0.181345v 0.659368h 0.181345v 3.33339h 0.181345v -2.80011h 0.181345v 0.959876h 0.181345v 1.20187h 0.181345v -1.52857h 0.181345v 0.081024h 0.181345v 1.80906h 0.181345v -0.0911823h 0.181345v -1.8795h 0.181345v -0.474846h 0.181345v
 1.13185h 0.181345v 0.686542h 0.181345v 2.26682h 0.181345v -2.5279h 0.181345v 0.797033h 0.181345v 0.745172h 0.181345v -1.28112h 0.181345v 0.176568h 0.181345v 0.359381h 0.181345v -0.359381h 0.181345v -1.19515h 0.181345v 2.39545h 0.181345v -1.89466h
 0.181345v 2.88676h 0.181345v -2.63006h 0.36269v 0.616285h 0.181345v -2.48215h 0.181345v 1.44041h 0.181345v -1.44041h 0.181345v 3.50383h 0.181345v -0.840928h 0.181345v -0.359381h 0.181345v 1.58945h 0.181345v -1.41082h 0.181345v 1.11804h 0.181345v
 -2.3267h 0.181345v 3.12028h 0.181345v -1.63969h 0.181345v -0.181824h 0.181345v -1.46389h 0.181345v 1.10661h 0.181345v -0.520721h 0.181345v 1.15155h 0.181345v -1.90079h 0.181345v 0.328464h 0.181345v -1.19693h 0.181345v 1.28016h 0.181345v 1.48909h
 0.181345v -2.76925h 0.181345v 2.40559h 0.181345v -1.37378h 0.181345v -1.03182h 0.181345v 2.4957h 0.181345v 0.365838h 0.181345v -2.39396h 0.181345v 0.896273h 0.181345v 0.511992h 0.181345v -0.0865328h 0.181345v -0.171608h 0.181345v -2.86968h 0.181345v
 1.95883h 0.181345v 2.62467h 0.181345v -2.54407h 0.181345v 0.745172h 0.181345v -0.500799h 0.181345v -0.877541h 0.181345v 0.392644h 0.181345v -1.65682h 0.181345v 0.215622h 0.181345v 1.84421h 0.181345v 0.92592h 0.181345v -0.0865328h 0.181345v -2.53814h
 0.181345v 1.2164h 0.181345v -1.06955h 0.181345v 0.601969h 0.181345v 1.448h 0.181345v -1.13788h 0.181345v 2.55142h 0.181345v -0.545522h 0.181345v 0.179684h 0.181345v -0.445308h 0.181345v 1.86487h 0.181345v -1.23774h 0.181345v 0.55883h 0.181345v
 -1.18596h 0.181345v 2.26682h 0.181345v -1.82151h 0.181345v -0.0901064h 0.181345v 0.92592h 0.181345v 0.484898h 0.181345v -2.61948h 0.181345v 0.941491h 0.181345v -1.10661h 0.181345v 2.88345h 0.181345v -1.32892h 0.181345v 2.67589h 0.181345v -3.47292h
 0.181345v 2.22546h 0.181345v 1.35617h 0.36269v -0.848718h 0.181345v 1.74739h 0.181345v -1.43462h 0.181345v -0.820224h 0.181345v 1.03235h 0.181345v 2.80597h 0.181345v -2.59086h 0.181345v -1.14732h 0.181345v 0.825768h 0.181345v -2.07915h 0.181345v
 -0.545522h 0.181345v 4.66409h 0.181345v -2.14512h 0.181345v 1.9046h 0.181345v -0.813203h 0.181345v 1.42177h 0.181345v -1.30822h 0.181345v 1.5586h 0.181345v -0.374051h 0.181345v 0.500799h 0.181345v -1.68535h 0.181345v 1.5586h 0.181345v -1.5586h
 0.181345v -0.449238h 0.181345v 3.05255h 0.181345v -3.27231h 0.181345v 3.00436h 0.181345v -2.10568h 0.181345v 2.10568h 0.181345v -0.650013h 0.181345v -1.33953h 0.181345v 2.12293h 0.181345v -2.46875h 0.181345v -2.51631h 0.181345v 3.82452h 0.181345v
 -0.123669h 0.181345v -2.2838h 0.181345v 4.39377h 0.181345v -3.52079h 0.181345v 2.56163h 0.181345v 0.540693h 0.181345v -3.76169h 0.181345v 1.70508h 0.181345v -1.81226h 0.181345v 2.17737h 0.181345v -0.122675h 0.181345v 0.246344h 0.181345v -1.42177h
 0.181345v 3.12782h 0.181345v 0.856654h 0.181345v -1.6678h 0.36269v -0.38997h 0.181345v 0.128887h 0.181345v 0.393318h 0.181345v -0.393318h 0.181345v -0.383443h 0.181345v 1.04471h 0.181345v -2.25749h 0.181345v 1.46734h 0.181345v -0.87298h 0.181345v
 -1.60917h 0.181345v 1.97721h 0.181345v -1.97721h 0.181345v 1.85354h 0.36269v 1.9692h 0.181345v 0.282841h 0.181345v -2.25204h 0.181345v 1.01858h 0.181345v 1.23347h 0.181345v 2.81317h 0.181345v -4.43661h 0.181345v 1.62344h 0.181345v -2.8558h 0.181345v
 0.977805h 0.181345v 2.31233h 0.181345v 1.22249h 0.181345v -2.89029h 0.181345v -0.77023h 0.181345v 0.509147h 0.181345v 1.07223h 0.181345v 0.856654h 0.181345v -3.64125h 0.181345v 1.71237h 0.181345v -0.128887h 0.181345v 2.81029h 0.181345v -0.455944h
 0.181345v -4.39377h 0.181345v 2.56163h 0.181345v 0.267954h 0.181345v -0.134565h 0.181345v 0.545522h 0.181345v -1.58138h 0.181345v 0.639131h 0.181345v -1.37238h 0.181345v 2.4541h 0.181345v -1.4684h 0.181345v 0.127808h 0.181345v 0.128887h 0.181345v
 3.3113h 0.181345v -4.19147h 0.181345v 2.09188h 0.181345v -2.80793h 0.181345v 2.25749h 0.181345v -2.48891h 0.181345v 2.89986h 0.181345v -2.0741h 0.181345v 0.87298h 0.181345v -1.3503h 0.181345v -0.576408h 0.181345v 1.2981h 0.181345v -1.18455h
 0.181345v -2.32174h 0.181345v 0.804027h 0.181345v 1.17955h 0.181345v -2.74739h 0.181345v -0.276859h 0.181345v 0.55883h 0.181345v -2.92623h 0.181345v 2.83166h 0.181345v -1.77793h 0.181345v -0.737178h 0.181345v 2.05085h 0.181345v 0.846105h 0.181345v
 -1.02793h 0.181345v 1.61922h 0.181345v -2.41165h 0.181345v 1.53309h 0.181345v -2.20454h 0.181345v 0.165115h 0.181345v 1.38941h 0.181345v -0.623474h 0.181345v 0.806386h 0.36269v 1.96076h 0.181345v -1.20639h 0.181345v -1.82037h 0.181345v 3.23742h
 0.181345v -3.23742h 0.181345v 2.11315h 0.181345v 0.198353h 0.181345v -2.13892h 0.181345v 1.55143h 0.181345v -0.190915h 0.181345v -0.920338h 0.181345v -1.36609h 0.36269v -0.243077h 0.181345v -0.783402h 0.181345v -1.86663h 0.181345v -1.41877h
 0.181345v -2.75377h 0.181345v -1.32892h 0.181345v -0.464261h 0.181345v -2.24946h 0.181345v -1.57361h 0.181345v -1.29625h 0.181345v -1.61244h 0.181345v 0.357279h 0.181345v -0.677602h 0.181345v -1.94548h 0.181345v -1.242h 0.181345v -0.730686h
 0.181345v 0.134367h 0.181345v 0.226606h 0.181345v -0.0910464h 0.181345v 0.815686h 0.181345v -0.401633h 0.181345v 1.51876h 0.181345v -0.153756h 0.181345v 2.13076h 0.181345v -0.0876921h 0.181345v -0.0871915h 0.181345v 3.17796h 0.181345v 0.288178h
 0.181345v 2.69757h 0.181345v 3.06484h 0.181345v -1.60917h 0.181345v 4.20404h 0.181345v 1.7989h 0.181345v 0.357698h 0.181345v 1.36186h 0.181345v 1.23569h 0.181345v 2.41165h 0.181345v -0.100151h 0.181345v 1.46566h 0.181345v 1.49969h 0.181345v 1.52857h
 0.181345v -0.526707h 0.181345v -0.880169h 0.181345v 1.40688h 0.36269v 3.78101h 0.181345v -3.09601h 0.181345v 0.717174h 0.181345v -0.434332h 0.181345v 0.288178h 0.36269v -0.144769h 0.181345v -0.703949h 0.181345v 0.703949h 0.181345v -0.426251h
 0.181345v 2.42456h 0.181345v -0.643169h 0.181345v -3.2498h 0.181345v 3.72962h 0.181345v 0.163349h 0.181345v -0.484898h 0.181345v -3.02139h 0.181345v 3.6714h 0.181345v 0.16692h 0.181345v -0.816932h 0.181345v -2.75806h 0.181345v 3.24296h 0.181345v
 -3.50629h 0.181345v 3.34294h 0.181345v -2.40069h 0.181345v 3.75919h 0.181345v -4.03439h 0.181345v 4.57668h 0.181345v -3.59098h 0.181345v 0.593201h 0.181345v 0.151971h 0.181345v 0.153499h 0.181345v 0.469975h 0.181345v 2.03942h 0.181345v -3.83832h
 0.181345v 3.65758h 0.181345v -3.5155h 0.181345v 1.34191h 0.181345v 1.13185h 0.181345v 0.863111h 0.181345v -2.60596h 0.181345v 0.767649h 0.181345v 2.1977h 0.181345v -0.180748h 0.181345v -0.529752h 0.181345v -0.343228h 0.181345v -1.60917h 0.181345v
 1.77982h 0.181345v -0.506333h 0.36269v 2.13458h 0.181345v -1.62825h 0.181345v 1.06599h 0.181345v -1.57232h 0.181345v 2.91799h 0.181345v -4.49392h 0.181345v 4.49392h 0.181345v -0.591287h 0.181345v -1.64779h 0.181345v -1.4872h 0.181345v -0.465203h
 0.181345v 1.44041h 0.181345v 0.863111h 0.181345v 0.914824h 0.36269v -3.37031h 0.181345v 1.93179h 0.181345v -0.834798h 0.181345v 0.664148h 0.181345v -0.500799h 0.181345v -0.163349h 0.181345v 0.328464h 0.181345v 2.52126h 0.181345v 0.804027h 0.181345v
 -2.64638h 0.181345v 1.84235h 0.181345v 2.32174h 0.36269v -3.81297h 0.181345v 1.49123h 0.181345v -0.948938h 0.181345v 0.185129h 0.181345v 0.960883h 0.181345v 0.606954h 0.181345v -2.81896h 0.181345v -1.62632h 0.181345v 1.7989h 0.181345v 0.17455h
 0.181345v 0.53595h 0.181345v -2.81487h 0.181345v 0.30547h 0.181345v 0.791524h 0.181345v -0.636467h 0.181345v -2.57537h 0.181345v -1.38369h 0.181345v 0.120736h 0.181345v -0.825768h 0.181345v -2.43615h 0.181345v -1.13185h 0.181345v -0.968641h
 0.181345v -3.62832h 0.181345v -0.977284h 0.181345v 0.383443h 0.181345v -4.31266h 0.181345v 0.345446h 0.181345v -3.26767h 0.181345v 0.44984h 0.181345v -1.83575h 0.181345v -0.0367581h 0.181345v -2.37531h 0.181345v -2.24621h 0.181345v 1.15482h
 0.181345v -2.15238h 0.181345v 0.05091h 0.181345v 1.24801h 0.181345v -2.2353h 0.181345v -0.0477281h 0.181345v 1.34409h 0.181345v 0.262429h 0.181345v 0.132925h 0.181345v 1.63292h 0.181345v 0.482981h 0.181345v -0.689575h 0.181345v 3.03881h 0.36269v
 0.997624h 0.181345v 2.93809h 0.181345v 1.00422h 0.181345v 2.99361h 0.181345v 0.993716h 0.181345v 4.01351h 0.181345v -1.12589h 0.181345v 3.56392h 0.181345v 2.66756h 0.181345v 1.72621h 0.181345v 2.39792h 0.181345v 1.44041h 0.181345v 0.168764h
 0.181345v 1.42177h 0.181345v 7.55549h 0.181345v -4.46994h 0.181345v 2.73907h 0.181345v 2.35434h 0.181345v -4.39377h 0.181345v 4.39377h 0.181345v -2.62467h 0.181345v 4.30471h 0.181345v -1.99496h 0.181345v 6.99248h 0.181345v -6.02755h 0.181345v
 2.13458h 0.181345v -0.745172h 0.181345v 2.35434h 0.181345v -1.60917h 0.181345v -5.40926h 0.181345v 6.59997h 0.181345v -4.90122h 0.181345v 2.60596h 0.181345v -2.90253h 0.181345v -2.18558h 0.181345v 3.72962h 0.181345v 5.87112h 0.181345v -3.40807h
 0.181345v -4.5835h 0.181345v 4.97017h 0.181345v -3.48619h 0.181345v -0.611001h 0.181345v 2.25484h 0.181345v 1.84235h 0.181345v -0.386679h 0.181345v 2.03942h 0.36269v -0.848718h 0.181345v -2.29526h 0.181345v -1.99496h 0.181345v 3.88292h 0.181345v
 -2.23907h 0.181345v 1.84235h 0.181345v -4.97017h 0.181345v 1.48398h 0.181345v 0.964931h 0.181345v -2.44891h 0.181345v 6.19267h 0.181345v -4.07222h 0.181345v -2.12045h 0.181345v 2.7846h 0.181345v 0.694347h 0.181345v -1.68004h 0.181345v -1.22249h
 0.181345v 1.54404h 0.181345v -1.54404h 0.181345v -1.13185h 0.181345v 3.34004h 0.181345v -2.7846h 0.181345v 2.44891h 0.181345v -1.8725h 0.181345v 3.62996h 0.181345v -1.07854h 0.181345v -4.21922h 0.181345v 1.09139h 0.181345v 1.17543h 0.181345v
 4.59878h 0.181345v -6.59997h 0.181345v 4.66409h 0.181345v -1.71788h 0.36269v -1.83496h 0.181345v -1.63796h 0.181345v 2.22546h 0.181345v 1.57593h 0.181345v -2.16343h 0.181345v 2.49911h 0.181345v -3.61036h 0.181345v 2.00119h 0.181345v 6.34617h
 0.181345v -7.80184h 0.181345v 1.76423h 0.181345v -0.907574h 0.181345v 2.20819h 0.181345v 2.5823h 0.181345v 2.62467h 0.181345v -4.15324h 0.181345v 0.368042h 0.181345v -3.33339h 0.181345v 2.96534h 0.181345v 1.13185h 0.181345v -4.09719h 0.181345v
 -0.296572h 0.181345v 2.20819h 0.181345v -2.20819h 0.181345v 5.61626h 0.181345v -2.71372h 0.181345v 0.727423h 0.181345v 1.9863h 0.181345v -1.9863h 0.181345v -2.40747h 0.181345v 0.650013h 0.181345v 1.03003h 0.181345v -2.30352h 0.181345v -0.302445h
 0.181345v 4.49392h 0.181345v -0.396723h 0.181345v -5.25042h 0.181345v 2.40069h 0.181345v 1.71788h 0.181345v 3.22732h 0.181345v -4.61673h 0.181345v 1.75745h 0.181345v -3.03094h 0.181345v 6.81614h 0.181345v -3.02139h 0.181345v 1.22249h 0.181345v
 -3.06484h 0.36269v 9.90752h 0.181345v -6.84268h 0.181345v -1.9863h 0.181345v 2.85928h 0.181345v -5.89022h 0.181345v 1.27349h 0.181345v 5.54265h 0.181345v -3.02139h 0.181345v -1.13185h 0.181345v -2.03942h 0.181345v 5.72269h 0.181345v -2.15469h
 0.181345v -0.396723h 0.181345v -0.763809h 0.181345v -1.07854h 0.181345v -2.84234h 0.181345v 3.92088h 0.181345v -1.07854h 0.181345v -0.678912h 0.181345v 0.678912h 0.181345v 8.63404h 0.181345v -5.56919h 0.181345v -0.825768h 0.181345v -1.88796h
 0.181345v 1.49123h 0.181345v 0.396723h 0.181345v -1.16053h 0.181345v -3.33339h 0.181345v 4.09719h 0.181345v -1.49123h 0.181345v 7.6839h 0.181345v -3.64125h 0.181345v -1.32892h 0.181345v -1.22249h 0.181345v 6.79168h 0.181345v -8.97726h 0.181345v
 4.28105h 0.36269v 1.41082h 0.181345v -4.2701h 0.181345v 1.16053h 0.181345v 2.62467h 0.181345v -1.7989h 0.181345v 6.19267h 0.181345v -6.61113h 0.181345v -0.804027h 0.181345v 3.50629h 0.181345v -1.85354h 0.181345v 3.96351h 0.181345v -1.09139h
 0.181345v 3.5403h 0.181345v -5.9697h 0.181345v 7.35911h 0.181345v 3.22732h 0.181345v -10.1305h 0.181345v 3.64125h 0.181345v -4.97017h 0.181345v 2.2838h 0.181345v 1.55453h 0.181345v 1.73087h 0.181345v -1.17543h 0.181345v 0.576408h 0.181345v 1.22249h
 0.181345v -3.40807h 0.181345v 8.67482h 0.181345v -8.15704h 0.181345v 4.21922h 0.181345v -1.32892h 0.181345v 2.7846h 0.181345v -6.69347h 0.181345v 8.30264h 0.181345v -5.61626h 0.181345v 4.79049h 0.181345v 11.4122h 0.181345v -15.6037h 0.181345v
 -1.17543h 0.36269v 8.97726h 0.181345v -1.91162h 0.181345v -1.69875h 0.181345v -1.52857h 0.181345v 0.745172h 0.181345v 3.40807h 0.181345v -1.7989h 0.181345v -7.28406h 0.181345v 4.21922h 0.181345v 3.93782h 0.181345v -5.89022h 0.181345v 12.5388h
 0.181345v -6.64861h 0.181345v -5.26675h 0.181345v 3.568h 0.181345v 7.01844h 0.181345v -3.40807h 0.181345v 1.05373h 0.181345v -4.66409h 0.181345v 0.825768h 0.181345v 0.87298h 0.36269v 5.31969h 0.181345v -5.31969h 0.181345v 2.96534h 0.181345v 5.13894h
 0.181345v -9.80303h 0.181345v 3.61036h 0.181345v -1.91162h 0.181345v 4.09719h 0.181345v -4.09719h 0.181345v 5.31969h 0.181345v -1.22249h 0.36269v 4.00709h 0.181345v -1.45567h 0.181345v -5.72269h 0.181345v -0.92592h 0.36269v -1.69875h 0.181345v
 8.34736h 0.181345v -8.34736h 0.181345v 7.01844h 0.36269v 6.19267h 0.181345v -8.54701h 0.181345v -3.83832h 0.181345v 4.97017h 0.181345v 1.22249h 0.181345v -7.01844h 0.181345v -2.23907h 0.181345v 5.84944h 0.181345v 11.6402h 0.181345v -11.6402h
 0.181345v -1.91162h 0.181345v 8.10428h 0.181345v -2.7846h 0.181345v -9.25751h 0.181345v -0.678912h 0.181345v -1.27349h 0.36269v 5.89022h 0.181345v -8.67482h 0.181345v -4.7709h 0.181345v 5.28868h 0.181345v 2.89029h 0.181345v -3.90887h 0.181345v
 -6.67756h 0.181345v 1.68004h 0.181345v 2.71372h 0.181345v -4.07222h 0.181345v -0.945023h 0.181345v -4.24027h 0.181345v 4.86374h 0.181345v -2.07915h 0.181345v 3.40807h 0.181345v -2.55142h 0.181345v 0.296572h 0.181345v -0.587495h 0.181345v 1.1985h
 0.181345v -0.611001h 0.181345v 0.92592h 0.181345v -4.63056h 0.181345v 4.95211h 0.181345v -0.321549h 0.181345v 4.82402h 0.181345v -2.41655h 0.181345v -3.33339h 0.181345v 2.96534h 0.181345v 2.7846h 0.181345v 7.09134h 0.181345v -9.13076h 0.181345v
 3.89297h 0.181345v 0.500799h 0.181345v 1.05373h 0.181345v 2.35434h 0.36269v -1.22249h 0.181345v -0.576408h 0.181345v -1.60917h 0.181345v 4.73699h 0.181345v 2.23907h 0.181345v -6.45829h 0.181345v 10.0687h 0.181345v -4.39377h 0.181345v 0.783402h
 0.181345v 2.62467h 0.181345v -9.08296h 0.181345v 5.67489h 0.181345v -7.64834h 0.181345v 6.90317h 0.181345v -1.38941h 0.181345v -5.51375h 0.181345v -3.68327h 0.181345v 4.15324h 0.181345v -1.7989h 0.181345v -0.825768h 0.181345v -8.19856h 0.181345v
 4.95211h 0.181345v -3.98207h 0.181345v -0.733245h 0.181345v 0.484898h 0.181345v 0.248347h 0.181345v -5.24587h 0.181345v -0.351119h 0.181345v -2.98575h 0.181345v -0.142075h 0.181345v -0.140766h 0.181345v 0.426251h 0.181345v 0.290923h 0.181345v
 -0.290923h 0.181345v -4.249h 0.181345v -1.55453h 0.181345v 5.09958h 0.181345v -4.49662h 0.181345v 1.17133h 0.181345v -2.82144h 0.181345v -1.48909h 0.181345v 1.95619h 0.181345v 2.69003h 0.181345v -1.40416h 0.181345v -0.507455h 0.181345v -2.7346h
 0.181345v 1.67422h 0.181345v -0.548789h 0.181345v -2.01695h 0.181345v -0.311705h 0.181345v -1.53959h 0.181345v 1.61692h 0.181345v 0.313303h 0.181345v -0.696105h 0.181345v 0.775445h 0.181345v 0.321549h 0.181345v -1.83496h 0.181345v 0.217671h
 0.181345v 0.444876h 0.181345v -0.662547h 0.181345v 0.144769h 0.181345v -0.985696h 0.181345v -0.53595h 0.181345v 0.53595h 0.181345v 0.414677h 0.181345v 0.0702208h 0.181345v -1.15195h 0.181345v 1.22249h 0.181345v 2.95525h 0.181345v -0.17065h 0.181345v
 0.605807h 0.181345v -0.690422h 0.181345v -0.660557h 0.181345v 4.04755h 0.181345v -1.40772h 0.181345v 3.92088h 0.181345v -0.246344h 0.181345v 2.23264h 0.181345v -0.418464h 0.181345v 2.37729h 0.181345v 2.43494h 0.181345v 1.17543h 0.181345v 3.15562h
 0.181345v -0.733245h 0.181345v 1.7691h 0.181345v 0.825768h 0.181345v 5.7742h 0.544034v 4.81223h 0.181345v 1.17543h 0.181345v 1.9524h 0.181345v 4.86374h 0.181345v 2.03942h 0.181345v 10.5864h 0.181345v -9.45458h 0.181345v 1.22249h 0.181345v -7.01844h
 0.181345v 9.80303h 0.181345v 3.40807h 0.181345v 7.17836h 0.181345v -5.13894h 0.181345v -9.45458h 0.181345v 22.3954h 0.181345v -7.80184h 0.36269v -5.13894h 0.181345v -5.44749h 0.181345v 18.3883h 0.181345v 6.19267h 0.36269v -10.5864h 0.181345v
 21.1729h 0.181345v -10.5864h 0.181345v -10.5864h 0.36269v -8.54701h 0.181345v -5.44749h 0.181345v 24.5809h 0.36269v -6.19267h 0.181345v -7.80184h 0.181345v -5.13894h 0.181345v 29.7199h 0.181345v -21.1729h 0.181345v 31.7593h 0.181345v -21.1729h
 0.181345v -10.5864h 0.181345v 4.39377h 0.36269v 16.7791h 0.181345v -21.1729h 0.181345v -12.3853h 0.181345v 8.97726h 0.181345v 7.80184h 0.181345v -7.80184h 0.181345v 13.9945h 0.181345v -13.9945h 0.181345v 13.9945h 0.36269v -6.19267h 0.181345v
 6.19267h 0.181345v -10.5864h 0.181345v 31.7593h 0.181345v -27.3655h 0.181345v -10.5864h 0.181345v 16.7791h 0.181345v 10.5864h 0.181345v -16.7791h 0.544034v 6.19267h 0.36269v -6.19267h 0.181345v -7.80184h 0.181345v 3.40807h 0.181345v 4.39377h
 0.181345v -4.39377h 0.181345v 4.39377h 0.181345v 16.7791h 0.181345v -21.1729h 0.181345v -3.40807h 0.181345v 7.80184h 0.181345v -4.39377h 0.36269v -3.40807h 0.181345v 7.80184h 0.181345v 16.7791h 0.181345v -33.5582h 0.181345v 8.97726h 0.181345v
 -2.7846h 0.181345v -4.39377h 0.181345v 7.17836h 0.36269v -2.7846h 0.36269v -7.80184h 0.181345v 3.40807h 0.36269v -1.7989h 0.181345v -4.39377h 0.181345v 8.23209h 0.181345v -9.45458h 0.181345v 2.55142h 0.181345v 4.86374h 0.181345v -3.40807h 0.181345v
 -4.00709h 0.36269v -3.17127h 0.36269v 5.72269h 0.181345v -6.64861h 0.181345v 0.92592h 0.181345v 5.72269h 0.181345v -6.64861h 0.181345v 0.92592h 0.181345v -7.41516h 0.181345v 9.45458h 0.181345v 3.68327h 0.181345v 3.06484h 0.181345v -5.61626h
 0.181345v -4.09719h 0.181345v 0.92592h 0.36269v 4.39377h 0.36269v 1.32892h 0.181345v 1.45567h 0.181345v -6.19267h 0.181345v 16.7791h 0.181345v -12.0421h 0.181345v 6.90317h 0.181345v -6.90317h 0.181345v 6.90317h 0.36269v 5.13894h 0.181345v -5.13894h
 0.181345v 5.13894h 0.181345v -2.7846h 0.181345v -7.80184h 0.181345v 45.7538h 0.181345v -27.3655h 0.181345v -7.80184h 0.181345v 3.40807h 0.181345v 21.1729h 0.181345v -27.3655h 0.181345v 27.3655h 0.181345v -16.7791h 0.181345v -7.80184h 0.181345v
 13.9945h 0.181345v 10.5864h 0.36269v -21.1729h 0.181345v 21.1729h 0.181345v -10.5864h 0.36269v 10.5864h 0.181345v -24.5809h 0.181345v 13.9945h 0.181345v -13.9945h 0.181345v 13.9945h 0.181345v 10.5864h 0.181345v -16.7791h 0.36269v -4.39377h 0.36269v
 21.1729h 0.36269v -24.5809h 0.181345v 3.40807h 0.181345v -8.54701h 0.181345v 29.7199h 0.181345v -10.5864h 0.181345v 10.5864h 0.181345v -10.5864h 0.181345v -10.5864h 0.181345v 10.5864h 0.181345v -6.19267h 0.181345v -4.39377h 0.181345v 21.1729h
 0.181345v -16.7791h 0.36269v -4.39377h 0.36269v 4.39377h 0.181345v 27.3655h 0.181345v -27.3655h 0.181345v -12.9408h 0.181345v 12.9408h 0.181345v 6.19267h 0.181345v -10.5864h 0.181345v -3.40807h 0.181345v 7.80184h 0.181345v -18.3883h 0.181345v
 5.44749h 0.181345v -2.03942h 0.181345v 10.5864h 0.181345v 10.5864h 0.181345v -10.5864h 0.544034v -8.54701h 0.181345v 12.9408h 0.181345v -4.39377h 0.181345v -10.5864h 0.181345v 14.9802h 0.181345v 6.19267h 0.181345v -6.19267h 0.181345v -12.9408h
 0.181345v 2.35434h 0.36269v 6.19267h 0.36269v -3.40807h 0.181345v -8.97726h 0.181345v 16.7791h 0.181345v -7.80184h 0.181345v -5.13894h 0.181345v 8.54701h 0.181345v -10.5864h 0.181345v 21.1729h 0.181345v -21.1729h 0.181345v 7.17836h 0.181345v
 3.40807h 0.36269v -6.19267h 0.181345v 2.7846h 0.181345v -5.13894h 0.181345v -10.5864h 0.181345v 23.5272h 0.181345v -21.1729h 0.181345v 10.5864h 0.181345v 2.7846h 0.181345v -12.0421h 0.181345v 6.90317h 0.181345v 5.13894h 0.181345v -12.0421h 0.181345v
 9.25751h 0.181345v -2.35434h 0.181345v 12.9408h 0.181345v -14.9802h 0.181345v -1.7989h 0.181345v 3.83832h 0.181345v 12.9408h 0.181345v -10.5864h 0.181345v 2.7846h 0.181345v -2.7846h 0.181345v 2.7846h 0.181345v 7.80184h 0.181345v -10.5864h 0.181345v
 6.19267h 0.181345v 4.39377h 0.181345v -4.39377h 0.181345v -3.40807h 0.181345v 3.40807h 0.181345v 4.39377h 0.181345v -7.80184h 0.181345v 3.40807h 0.181345v -3.40807h 0.181345v -2.7846h 0.181345v 6.19267h 0.36269v 31.7593h 0.181345v -35.1674h
 0.181345v 3.40807h 0.544034v -6.19267h 0.181345v 2.7846h 0.181345v -10.5864h 0.181345v 13.9945h 0.181345v -8.54701h 0.181345v 8.54701h 0.181345v -8.54701h 0.181345v -2.03942h 0.181345v 10.5864h 0.36269v 4.39377h 0.36269v -4.39377h 0.181345v
 -8.54701h 0.181345v 2.35434h 0.181345v 10.5864h 0.181345v -10.5864h 0.181345v -6.19267h 0.181345v 12.3853h 0.181345v 4.39377h 0.36269v -7.80184h 0.181345v 24.5809h 0.181345v -29.7199h 0.181345v 5.13894h 0.181345v -5.13894h 0.36269v 5.13894h
 0.181345v -2.7846h 0.181345v 16.7791h 0.181345v -10.5864h 0.181345v -8.54701h 0.181345v -3.83832h 0.181345v 6.19267h 0.181345v -7.80184h 0.181345v 7.80184h 0.181345v 2.7846h 0.181345v -5.13894h 0.181345v 2.35434h 0.181345v -6.19267h 0.181345v
 -1.60917h 0.181345v 5.44749h 0.181345v -3.83832h 0.181345v 1.7989h 0.181345v 4.39377h 0.181345v -7.80184h 0.181345v 7.80184h 0.181345v 10.5864h 0.181345v -19.8439h 0.181345v 9.25751h 0.181345v 2.7846h 0.181345v -13.371h 0.181345v 13.371h 0.181345v
 -7.17836h 0.181345v 4.39377h 0.36269v -2.35434h 0.36269v 5.13894h 0.181345v -10.5864h 0.181345v 5.44749h 0.36269v -2.03942h 0.181345v -3.40807h 0.181345v 3.40807h 0.181345v -1.7989h 0.181345v -1.60917h 0.544034v -2.7846h 0.181345v 8.23209h 0.36269v
 -5.44749h 0.181345v 3.40807h 0.181345v -1.7989h 0.181345v -4.39377h 0.181345v 6.19267h 0.181345v 2.03942h 0.181345v -3.83832h 0.181345v -1.60917h 0.181345v 3.40807h 0.181345v -7.41516h 0.181345v 5.61626h 0.181345v -3.06484h 0.181345v 9.25751h
 0.181345v -7.80184h 0.181345v -1.45567h 0.181345v 3.06484h 0.181345v -10.5864h 0.181345v 8.97726h 0.181345v -2.7846h 0.181345v -2.35434h 0.181345v -2.96534h 0.181345v 5.31969h 0.181345v 1.32892h 0.181345v -5.72269h 0.181345v 7.17836h 0.181345v
 -2.7846h 0.181345v -5.31969h 0.181345v 5.31969h 0.181345v 2.7846h 0.181345v -7.17836h 0.181345v -0.92592h 0.181345v 5.31969h 0.181345v -4.39377h 0.181345v 2.03942h 0.181345v 5.13894h 0.181345v -6.19267h 0.181345v 1.05373h 0.181345v 3.68327h
 0.181345v -2.55142h 0.181345v 4.00709h 0.36269v -6.19267h 0.181345v 6.19267h 0.181345v -1.45567h 0.181345v 1.45567h 0.181345v -1.45567h 0.181345v 1.45567h 0.181345v -6.19267h 0.181345v 6.19267h 0.181345v -1.45567h 0.181345v -2.55142h 0.181345v
 -1.13185h 0.181345v 1.13185h 0.181345v 5.61626h 0.181345v -1.60917h 0.181345v -9.80303h 0.181345v 8.34736h 0.181345v -7.52159h 0.181345v -0.825768h 0.181345v 7.01844h 0.181345v -1.22249h 0.181345v 2.55142h 0.181345v 12.0421h 0.181345v -10.5864h
 0.181345v -6.19267h 0.181345v -4.39377h 0.181345v 2.48215h 0.181345v 5.31969h 0.36269v -3.40807h 0.181345v -2.7846h 0.181345v -0.825768h 0.181345v -1.52857h 0.181345v 7.32452h 0.181345v -4.09719h 0.181345v -0.87298h 0.181345v 8.97726h 0.181345v
 -2.7846h 0.181345v 1.32892h 0.181345v -7.52159h 0.181345v 2.7846h 0.181345v -3.61036h 0.181345v 8.34736h 0.181345v -13.7143h 0.36269v 3.12782h 0.181345v 9.25751h 0.181345v -2.35434h 0.181345v -1.05373h 0.181345v -8.40086h 0.181345v 0.599018h
 0.181345v 2.6629h 0.181345v -6.43319h 0.181345v 4.39377h 0.181345v 3.568h 0.181345v -2.23907h 0.181345v -3.12782h 0.181345v 1.17543h 0.181345v 3.40807h 0.181345v 3.40807h 0.181345v -8.54701h 0.181345v 9.53271h 0.181345v -5.13894h 0.181345v -2.03942h
 0.181345v 1.32892h 0.181345v 1.45567h 0.181345v 3.40807h 0.181345v -9.60074h 0.181345v 11.6402h 0.181345v -5.44749h 0.181345v -2.7846h 0.181345v 3.568h 0.181345v 1.69875h 0.181345v 1.91162h 0.181345v -2.7846h 0.36269v 6.19267h 0.181345v -7.01844h
 0.36269v 0.825768h 0.181345v -2.35434h 0.181345v 5.13894h 0.181345v -5.84944h 0.181345v 8.03502h 0.181345v -1.13185h 0.181345v 10.5864h 0.181345v -9.45458h 0.181345v -3.17127h 0.181345v 5.72269h 0.181345v -5.72269h 0.181345v 10.5864h 0.181345v
 -7.41516h 0.181345v -4.09719h 0.181345v -0.87298h 0.181345v 2.7846h 0.181345v -0.985696h 0.181345v 4.39377h 0.181345v 6.19267h 0.181345v -8.54701h 0.181345v 3.68327h 0.181345v -1.32892h 0.181345v 27.3655h 0.181345v -27.3655h 0.181345v -1.22249h
 0.36269v 5.61626h 0.181345v -3.06484h 0.36269v -10.5864h 0.181345v 10.5864h 0.181345v 1.45567h 0.181345v -4.00709h 0.181345v -1.13185h 0.181345v -2.96534h 0.181345v 0.92592h 0.181345v 7.17836h 0.36269v -11.3316h 0.181345v 7.32452h 0.181345v 1.22249h
 0.181345v -4.39377h 0.181345v 12.6259h 0.181345v -10.5864h 0.181345v -2.03942h 0.181345v 2.03942h 0.181345v -2.03942h 0.181345v -1.7989h 0.181345v 3.83832h 0.181345v 5.13894h 0.181345v -4.00709h 0.181345v 5.61626h 0.181345v -6.74811h 0.181345v
 1.13185h 0.181345v 1.22249h 0.181345v -5.31969h 0.181345v -0.87298h 0.181345v 8.97726h 0.181345v -6.19267h 0.181345v -5.13894h 0.181345v 19.1334h 0.181345v -13.9945h 0.544034v -1.91162h 0.181345v 15.9061h 0.181345v -10.5864h 0.36269v 6.19267h
 0.544034v 2.03942h 0.181345v -6.90317h 0.181345v 1.45567h 0.181345v 5.44749h 0.181345v -6.90317h 0.181345v -1.32892h 0.181345v 13.371h 0.181345v -7.17836h 0.181345v -3.40807h 0.181345v -8.97726h 0.181345v 12.3853h 0.181345v 2.03942h 0.181345v
 -9.45458h 0.181345v 4.00709h 0.181345v -12.721h 0.181345v 12.721h 0.181345v -5.13894h 0.181345v 5.13894h 0.181345v -8.97726h 0.181345v 10.5864h 0.181345v -7.80184h 0.181345v -1.91162h 0.181345v 6.64861h 0.181345v 1.45567h 0.181345v -4.00709h
 0.36269v 1.22249h 0.181345v -2.35434h 0.181345v 2.35434h 0.181345v -4.39377h 0.181345v -2.62467h 0.181345v 7.01844h 0.181345v -7.80184h 0.181345v -1.45567h 0.181345v 4.86374h 0.181345v 8.78753h 0.181345v -3.06484h 0.181345v 1.45567h 0.181345v
 -4.00709h 0.181345v 2.55142h 0.181345v 4.86374h 0.181345v -8.54701h 0.36269v -1.05373h 0.181345v -1.91162h 0.181345v 0.92592h 0.181345v 3.17127h 0.181345v -3.17127h 0.181345v 0.985696h 0.181345v 1.05373h 0.181345v -2.03942h 0.36269v -4.86374h
 0.181345v 12.0421h 0.181345v -7.17836h 0.181345v 7.17836h 0.181345v -1.45567h 0.181345v -6.64861h 0.181345v 0.92592h 0.36269v -1.7989h 0.181345v 6.19267h 0.181345v -1.22249h 0.181345v -4.09719h 0.181345v 13.5518h 0.181345v -5.44749h 0.181345v
 -8.10428h 0.181345v -0.87298h 0.181345v 7.52159h 0.181345v 3.06484h 0.181345v -3.06484h 0.181345v -5.72269h 0.181345v -4.15324h 0.181345v 6.19267h 0.181345v 1.13185h 0.181345v 5.61626h 0.181345v -1.60917h 0.181345v -2.7846h 0.181345v -5.31969h
 0.181345v 0.92592h 0.181345v -4.86374h 0.181345v 8.03502h 0.181345v -4.09719h 0.181345v 8.10428h 0.181345v -9.80303h 0.181345v 2.62467h 0.181345v 3.17127h 0.181345v -1.13185h 0.181345v -1.05373h 0.181345v -4.39377h 0.181345v 3.40807h 0.181345v
 2.03942h 0.181345v -5.44749h 0.181345v 2.48215h 0.181345v -0.87298h 0.181345v -1.60917h 0.181345v 5.44749h 0.181345v -2.96534h 0.181345v -1.69875h 0.181345v -3.568h 0.181345v 4.39377h 0.36269v -2.35434h 0.181345v 0.745172h 0.181345v 3.40807h
 0.181345v -4.15324h 0.181345v -0.7105h 0.36269v -1.32892h 0.181345v 4.39377h 0.181345v -1.60917h 0.181345v 6.57935h 0.181345v -6.57935h 0.181345v -1.45567h 0.181345v 5.84944h 0.181345v -4.39377h 0.181345v -1.45567h 0.181345v 5.84944h 0.181345v
 -6.52835h 0.181345v 1.38941h 0.181345v 3.22732h 0.181345v -3.93782h 0.181345v 3.06484h 0.181345v -3.06484h 0.181345v 2.23907h 0.181345v 4.66409h 0.181345v -2.96534h 0.181345v 4.09719h 0.181345v -8.03502h 0.181345v 9.25751h 0.181345v -5.31969h
 0.181345v 1.91162h 0.181345v 4.73699h 0.181345v -5.72269h 0.181345v -3.40807h 0.181345v 6.57935h 0.181345v 5.61626h 0.181345v -11.4122h 0.181345v 5.79594h 0.181345v 7.41516h 0.181345v -11.5124h 0.181345v 9.71345h 0.181345v -9.71345h 0.181345v
 8.10428h 0.181345v -5.13894h 0.36269v 2.35434h 0.181345v 2.7846h 0.181345v -14.5935h 0.181345v 3.26192h 0.181345v 12.9408h 0.181345v -6.74811h 0.181345v 1.13185h 0.181345v -1.13185h 0.181345v 2.35434h 0.181345v -1.22249h 0.181345v 1.22249h 0.181345v
 1.32892h 0.181345v 1.45567h 0.36269v 3.40807h 0.181345v -4.86374h 0.181345v -1.32892h 0.181345v 6.19267h 0.181345v -3.40807h 0.181345v -5.13894h 0.181345v 5.13894h 0.181345v -1.45567h 0.181345v 1.45567h 0.181345v -7.17836h 0.181345v 12.6259h
 0.181345v -14.4248h 0.181345v 4.97017h 0.181345v 7.41516h 0.181345v -6.19267h 0.181345v -5.31969h 0.181345v 4.09719h 0.36269v -2.18558h 0.181345v 4.73699h 0.181345v -3.68327h 0.181345v 1.13185h 0.181345v -1.13185h 0.181345v 8.54701h 0.181345v
 -10.5864h 0.181345v 5.72269h 0.36269v -3.68327h 0.181345v -2.03942h 0.181345v 0.985696h 0.181345v 13.9945h 0.181345v -10.5864h 0.181345v -5.31969h 0.181345v 5.31969h 0.181345v -5.31969h 0.181345v 8.10428h 0.181345v -5.13894h 0.181345v -1.05373h
 0.181345v 4.73699h 0.181345v -3.68327h 0.181345v 5.13894h 0.181345v -2.7846h 0.181345v 1.32892h 0.181345v -1.32892h 0.181345v 2.7846h 0.181345v 7.80184h 0.181345v -6.19267h 0.181345v 1.7989h 0.181345v -9.60074h 0.181345v 11.6402h 0.544034v -5.44749h
 0.181345v 13.9945h 0.181345v -13.9945h 0.181345v 3.40807h 0.181345v -1.7989h 0.181345v 1.7989h 0.181345v 2.03942h 0.181345v 12.9408h 0.181345v -10.5864h 0.36269v -6.19267h 0.181345v 12.3853h 0.181345v -12.3853h 0.181345v 6.19267h 0.181345v 2.7846h
 0.36269v 24.5809h 0.181345v -31.7593h 0.181345v 4.39377h 0.181345v 16.7791h 0.36269v -22.9718h 0.181345v 8.97726h 0.181345v -8.97726h 0.181345v 3.83832h 0.181345v 2.35434h 0.181345v -6.19267h 0.181345v -1.60917h 0.181345v 13.9945h 0.181345v
 -6.19267h 0.181345v -2.35434h 0.181345v 8.54701h 0.181345v -10.5864h 0.181345v 2.03942h 0.36269v 5.13894h 0.181345v -2.7846h 0.181345v 16.7791h 0.181345v -19.1334h 0.36269v -3.83832h 0.181345v 3.83832h 0.181345v 8.54701h 0.181345v 4.39377h 0.181345v
 -7.80184h 0.544034v -2.7846h 0.181345v 2.7846h 0.181345v -2.7846h 0.181345v 6.19267h 0.181345v -12.3853h 0.181345v 6.19267h 0.181345v 6.19267h 0.181345v -12.3853h 0.181345v -3.06484h 0.181345v 6.90317h 0.181345v -2.03942h 0.181345v 4.39377h
 0.181345v 2.7846h 0.36269v -7.17836h 0.181345v 31.7593h 0.181345v -29.7199h 0.181345v 5.13894h 0.181345v -5.13894h 0.181345v -2.03942h 0.36269v -3.40807h 0.181345v 1.60917h 0.181345v 6.19267h 0.181345v -4.39377h 0.181345v -6.19267h 0.181345v 13.371h
 0.181345v 7.80184h 0.181345v -10.5864h 0.181345v -6.19267h 0.181345v 1.7989h 0.181345v 2.03942h 0.181345v 2.35434h 0.181345v -2.35434h 0.36269v 2.35434h 0.36269v 10.5864h 0.181345v -14.9802h 0.181345v 4.39377h 0.181345v -9.25751h 0.181345v 12.0421h
 0.181345v 3.40807h 0.181345v -6.19267h 0.181345v 6.19267h 0.181345v -3.40807h 0.181345v -7.17836h 0.181345v -3.40807h 0.181345v 7.80184h 0.181345v -2.35434h 0.181345v 2.35434h 0.181345v 2.7846h 0.181345v -2.7846h 0.181345v -9.25751h 0.181345v
 6.90317h 0.181345v 5.13894h 0.181345v 3.40807h 0.181345v -12.3853h 0.181345v -1.60917h 0.181345v 10.5864h 0.181345v -7.17836h 0.181345v 4.39377h 0.36269v 10.5864h 0.181345v -10.5864h 0.181345v 10.5864h 0.181345v -16.7791h 0.181345v 1.7989h 0.181345v
 -3.40807h 0.181345v 13.9945h 0.181345v -3.40807h 0.181345v -7.17836h 0.181345v -1.7989h 0.181345v 3.83832h 0.36269v 2.35434h 0.181345v -4.39377h 0.181345v 4.39377h 0.181345v -2.35434h 0.181345v -6.90317h 0.544034v 1.45567h 0.181345v -1.45567h
 0.181345v 6.90317h 0.181345v -14.4248h 0.181345v 6.19267h 0.181345v 8.23209h 0.181345v -6.90317h 0.181345v -2.55142h 0.181345v 5.61626h 0.181345v 6.19267h 0.181345v -9.25751h 0.181345v 12.0421h 0.181345v -8.97726h 0.181345v -8.78753h 0.181345v
 3.17127h 0.181345v 14.5935h 0.181345v -12.0421h 0.181345v -1.32892h 0.181345v 2.7846h 0.36269v -5.13894h 0.181345v -2.96534h 0.181345v 4.09719h 0.181345v 1.22249h 0.181345v 6.19267h 0.181345v -1.7989h 0.181345v -8.78753h 0.181345v 12.6259h 0.181345v
 -10.5864h 0.181345v -1.05373h 0.181345v 3.40807h 0.181345v -7.01844h 0.181345v 3.61036h 0.181345v 3.40807h 0.181345v 4.39377h 0.181345v -5.61626h 0.181345v 2.55142h 0.181345v -2.55142h 0.181345v 5.61626h 0.181345v -5.61626h 0.36269v -6.57935h
 0.181345v 6.57935h 0.181345v 1.22249h 0.181345v -1.22249h 0.181345v 2.55142h 0.181345v -7.52159h 0.181345v 3.83832h 0.181345v -2.96534h 0.181345v 5.31969h 0.36269v -4.39377h 0.181345v 8.78753h 0.181345v -4.39377h 0.181345v -6.19267h 0.181345v
 7.52159h 0.181345v -3.68327h 0.181345v 1.13185h 0.181345v -1.13185h 0.181345v -1.05373h 0.181345v 1.05373h 0.181345v 3.68327h 0.181345v -2.55142h 0.181345v -4.09719h 0.181345v 0.92592h 0.181345v 7.17836h 0.181345v -7.17836h 0.181345v 12.6259h
 0.181345v -12.6259h 0.181345v -0.92592h 0.181345v 22.0988h 0.181345v -10.5864h 0.181345v -9.60074h 0.181345v 3.40807h 0.36269v 10.5864h 0.181345v -9.25751h 0.181345v 6.90317h 0.181345v -3.83832h 0.181345v 6.19267h 0.181345v -2.35434h 0.36269v
 -5.44749h 0.181345v 3.40807h 0.181345v 2.03942h 0.181345v 29.7199h 0.181345v -35.1674h 0.181345v 13.9945h 0.181345v 4.39377h 0.181345v -10.5864h 0.181345v 10.5864h 0.181345v -10.5864h 0.181345v -4.39377h 0.181345v 14.9802h 0.181345v -14.9802h
 0.181345v 10.5864h 0.181345v -3.40807h 0.181345v 24.5809h 0.181345v -16.7791h 0.181345v -4.39377h 0.181345v 4.39377h 0.36269v 6.19267h 0.181345v -16.7791h 0.181345v 27.3655h 0.36269v -10.5864h 0.181345v -6.19267h 0.181345v 27.3655h 0.36269v
 -35.1674h 0.181345v 3.40807h 0.181345v 10.5864h 0.181345v 10.5864h 0.181345v 10.5864h 0.181345v -27.3655h 0.181345v 27.3655h 0.181345v -21.1729h 0.181345v -6.19267h 0.36269v 16.7791h 0.181345v 10.5864h 0.181345v -31.7593h 0.181345v 10.5864h
 0.181345v 21.1729h 0.181345v -10.5864h 0.181345v -10.5864h 0.181345v 21.1729h 0.181345v -21.1729h 0.181345v 10.5864h 0.181345v 10.5864h 0.181345v -10.5864h 0.181345v -10.5864h 0.181345v 10.5864h 0.36269v -10.5864h 0.181345v 21.1729h 0.181345v
 -10.5864h 0.181345v 10.5864h 0.181345v -10.5864h 0.36269v 10.5864h 0.181345v -10.5864h 0.181345v -10.5864h 0.36269v 21.1729h 0.725379v -10.5864h 0.181345v -10.5864h 0.181345v 21.1729h 0.36269v -10.5864h 0.181345v 10.5864h 0.181345v -21.1729h
 0.181345v 21.1729h 0.181345v -21.1729h 0.181345v 21.1729h 0.181345v -10.5864h 0.36269v -10.5864h 0.36269v 21.1729h 0.181345v -10.5864h 0.181345v 10.5864h 0.181345v -10.5864h 0.181345v -10.5864h 0.181345v 21.1729h 0.181345v -10.5864h 0.181345v
 10.5864h 0.181345v -21.1729h 0.181345v 10.5864h 0.36269v 10.5864h 0.181345v -21.1729h 0.36269v 10.5864h 0.36269v -21.1729h 0.181345v 4.39377h 0.181345v 16.7791h 0.181345v -10.5864h 0.181345v -6.19267h 0.181345v 27.3655h 0.36269v -21.1729h 0.181345v
 21.1729h 0.181345v -10.5864h 0.181345v -16.7791h 0.181345v 6.19267h 0.181345v 21.1729h 0.181345v -21.1729h 0.181345v 21.1729h 0.181345v -10.5864h 0.36269v 10.5864h 0.181345v -10.5864h 0.181345v -16.7791h 0.181345v 16.7791h 0.36269v 10.5864h 0.36269v
 -10.5864h 0.181345v -21.1729h 0.36269v 10.5864h 0.181345v 10.5864h 0.181345v 10.5864h 0.36269v -10.5864h 0.36269v 10.5864h 0.181345v -10.5864h 0.36269v 10.5864h 0.181345v -10.5864h 0.181345v -10.5864h 0.181345v 21.1729h 0.181345v -10.5864h 0.181345v
 10.5864h 0.36269v -10.5864h 0.181345v 10.5864h 0.181345v -10.5864h 0.181345v 10.5864h 0.544034v -10.5864h 0.181345v 10.5864h 0.181345v -27.3655h 0.36269v 16.7791h 0.181345v 10.5864h 0.36269v -21.1729h 0.181345v 10.5864h 0.181345v 10.5864h 0.181345v
 -27.3655h 0.181345v 27.3655h 0.36269v -10.5864h 0.181345v 10.5864h 0.181345v -27.3655h 0.181345v 16.7791h 0.181345v 10.5864h 0.181345v -10.5864h 0.181345v -10.5864h 0.181345v 10.5864h 0.181345v 10.5864h 0.544034v -21.1729h 0.181345v 10.5864h
 0.181345v 10.5864h 0.181345v -21.1729h 0.36269v 21.1729h 0.181345v -10.5864h 0.181345v 10.5864h 0.181345v -10.5864h 0.36269v 10.5864h 0.544034v -10.5864h 0.544034v -10.5864h 0.181345v 10.5864h 0.36269v 10.5864h 1.08807v -10.5864h 0.181345v 10.5864h
 0.181345v -21.1729h 0.544034v 21.1729h 0.36269v -10.5864h 0.181345v 10.5864h 0.36269v -10.5864h 0.36269v 10.5864h 0.36269v -10.5864h 0.181345v 10.5864h 0.181345v -10.5864h 0.181345v 10.5864h 0.181345v -10.5864h 0.181345v 10.5864h 0.181345v -10.5864h
 0.181345v -10.5864h 0.181345v 10.5864h 0.36269v -21.1729h 0.181345v 21.1729h 0.181345v 10.5864h 0.181345v -10.5864h 0.544034v 10.5864h 0.725379v -27.3655h 0.181345v 6.19267h 0.181345v 21.1729h 0.181345v -10.5864h 0.36269v -10.5864h 0.181345v
 21.1729h 0.181345v -21.1729h 0.181345v 10.5864h 0.544034v 10.5864h 1.26941v -27.3655h 0.181345v 16.7791h 0.181345v -10.5864h 0.36269v 21.1729h 0.181345v -21.1729h 0.181345v 10.5864h 0.181345v 10.5864h 0.544034v -10.5864h 0.181345v 10.5864h 0.181345v
 -10.5864h 0.36269v 10.5864h 0.181345v -21.1729h 0.36269v 21.1729h 0.181345v -10.5864h 0.544034v 10.5864h 0.725379v -10.5864h 0.181345v 10.5864h 0.181345v -10.5864h 0.181345v 10.5864h 0.36269v -10.5864h 0.181345v 10.5864h 0.36269v -10.5864h 0.181345v
 10.5864h 0.181345v -10.5864h 0.36269v 10.5864h 0.36269v -10.5864h 0.36269v 10.5864h 0.181345v -10.5864h 0.36269v -10.5864h 0.181345v 21.1729h 0.181345v -21.1729h 0.36269v 21.1729h 0.181345v -21.1729h 0.181345v -6.19267h 0.181345v 6.19267h 0.181345v
 10.5864h 0.181345v 10.5864h 0.181345v -10.5864h 0.36269v 10.5864h 0.181345" fill="none" stroke="black"/>
<path d="M57.1929,280.151h 453.543" fill="none" stroke="black"/>
<path d="M57.1929,272.68v 7.47068" fill="none" stroke="black"/>
<path d="M75.3318,276.415v 3.73534" fill="none" stroke="black"/>
<path d="M93.4707,276.415v 3.73534" fill="none" stroke="black"/>
<path d="M111.61,276.415v 3.73534" fill="none" stroke="black"/>
<path d="M129.749,276.415v 3.73534" fill="none" stroke="black"/>
<path d="M147.887,272.68v 7.47068" fill="none" stroke="black"/>
<path d="M166.026,276.415v 3.73534" fill="none" stroke="black"/>
<path d="M184.165,276.415v 3.73534" fill="none" stroke="black"/>
<path d="M202.304,276.415v 3.73534" fill="none" stroke="black"/>
<path d="M220.443,276.415v 3.73534" fill="none" stroke="black"/>
<path d="M238.582,272.68v 7.47068" fill="none" stroke="black"/>
<path d="M256.721,276.415v 3.73534" fill="none" stroke="black"/>
<path d="M274.86,276.415v 3.73534" fill="none" stroke="black"/>
<path d="M292.999,276.415v 3.73534" fill="none" stroke="black"/>
<path d="M311.138,276.415v 3.73534" fill="none" stroke="black"/>
<path d="M329.277,272.68v 7.47068" fill="none" stroke="black"/>
<path d="M347.415,276.415v 3.73534" fill="none" stroke="black"/>
<path d="M365.554,276.415v 3.73534" fill="none" stroke="black"/>
<path d="M383.693,276.415v 3.73534" fill="none" stroke="black"/>
<path d="M401.832,276.415v 3.73534" fill="none" stroke="black"/>
<path d="M419.971,272.68v 7.47068" fill="none" stroke="black"/>
<path d="M438.11,276.415v 3.73534" fill="none" stroke="black"/>
<path d="M456.249,276.415v 3.73534" fill="none" stroke="black"/>
<path d="M474.388,276.415v 3.73534" fill="none" stroke="black"/>
<path d="M492.527,276.415v 3.73534" fill="none" stroke="black"/>
<path d="M510.666,272.68v 7.47068" fill="none" stroke="black"/>
<path d="M510.666,272.68v 7.47068" fill="none" stroke="black"/>
<text xml:space="preserve" x="54.3523" y="290.27" fill="black" font-size="10.4952" font-family="Helvetica">0</text>
<text xml:space="preserve" x="139.569" y="290.27" fill="black" font-size="10.4952" font-family="Helvetica">500</text>
<text xml:space="preserve" x="227.449" y="290.27" fill="black" font-size="10.4952" font-family="Helvetica">1000</text>
<text xml:space="preserve" x="318.288" y="290.27" fill="black" font-size="10.4952" font-family="Helvetica">1500</text>
<text xml:space="preserve" x="408.831" y="290.27" fill="black" font-size="10.4952" font-family="Helvetica">2000</text>
<text xml:space="preserve" x="499.67" y="290.27" fill="black" font-size="10.4952" font-family="Helvetica">2500</text>
<text xml:space="preserve" x="265.323" y="301.218" fill="black" font-size="10.4952" font-family="Helvetica">Channel</text>
<path d="M57.1929,280.151v -249.023" fill="none" stroke="black"/>
<path d="M63.9961,280.151h -6.80315" fill="none" stroke="black"/>
<path d="M63.9961,277.366h -6.80315" fill="none" stroke="black"/>
<path d="M63.9961,275.012h -6.80315" fill="none" stroke="black"/>
<path d="M63.9961,272.972h -6.80315" fill="none" stroke="black"/>
<path d="M63.9961,271.173h -6.80315" fill="none" stroke="black"/>
<path d="M70.7992,269.564h -13.6063" fill="none" stroke="black"/>
<text xml:space="preserve" x="49.0263" y="273.404" fill="black" font-size="10.4952" font-family="Helvetica">1</text>
<path d="M63.9961,258.978h -6.80315" fill="none" stroke="black"/>
<path d="M63.9961,252.785h -6.80315" fill="none" stroke="black"/>
<path d="M63.9961,248.391h -6.80315" fill="none" stroke="black"/>
<path d="M63.9961,244.983h -6.80315" fill="none" stroke="black"/>
<path d="M63.9961,242.199h -6.80315" fill="none" stroke="black"/>
<path d="M63.9961,239.844h -6.80315" fill="none" stroke="black"/>
<path d="M63.9961,237.805h -6.80315" fill="none" stroke="black"/>
<path d="M63.9961,236.006h -6.80315" fill="none" stroke="black"/>
<path d="M70.7992,234.397h -13.6063" fill="none" stroke="black"/>
<text xml:space="preserve" x="41.629" y="238.193" fill="black" font-size="10.4952" font-family="Helvetica">10</text>
<path d="M63.9961,223.81h -6.80315" fill="none" stroke="black"/>
<path d="M63.9961,217.618h -6.80315" fill="none" stroke="black"/>
<path d="M63.9961,213.224h -6.80315" fill="none" stroke="black"/>
<path d="M63.9961,209.816h -6.80315" fill="none" stroke="black"/>
<path d="M63.9961,207.031h -6.80315" fill="none" stroke="black"/>
<path d="M63.9961,204.677h -6.80315" fill="none" stroke="black"/>
<path d="M63.9961,202.637h -6.80315" fill="none" stroke="black"/>
<path d="M63.9961,200.839h -6.80315" fill="none" stroke="black"/>
<path d="M70.7992,199.229h -13.6063" fill="none" stroke="black"/>
<text xml:space="preserve" x="49.0263" y="199.431" fill="black" font-size="7.16345" font-family="Helvetica">2</text>
<text xml:space="preserve" x="38.0783" y="203.87" fill="black" font-size="10.4952" font-family="Helvetica">10</text>
<path d="M63.9961,188.643h -6.80315" fill="none" stroke="black"/>
<path d="M63.9961,182.45h -6.80315" fill="none" stroke="black"/>
<path d="M63.9961,178.057h -6.80315" fill="none" stroke="black"/>
<path d="M63.9961,174.648h -6.80315" fill="none" stroke="black"/>
<path d="M63.9961,171.864h -6.80315" fill="none" stroke="black"/>
<path d="M63.9961,169.51h -6.80315" fill="none" stroke="black"/>
<path d="M63.9961,167.47h -6.80315" fill="none" stroke="black"/>
<path d="M63.9961,165.671h -6.80315" fill="none" stroke="black"/>
<path d="M70.7992,164.062h -13.6063" fill="none" stroke="black"/>
<text xml:space="preserve" x="49.0263" y="163.924" fill="black" font-size="7.16345" font-family="Helvetica">3</text>
<text xml:space="preserve" x="38.0783" y="168.658" fill="black" font-size="10.4952" font-family="Helvetica">10</text>
<path d="M63.9961,153.476h -6.80315" fill="none" stroke="black"/>
<path d="M63.9961,147.283h -6.80315" fill="none" stroke="black"/>
<path d="M63.9961,142.889h -6.80315" fill="none" stroke="black"/>
<path d="M63.9961,139.481h -6.80315" fill="none" stroke="black"/>
<path d="M63.9961,136.696h -6.80315" fill="none" stroke="black"/>
<path d="M63.9961,134.342h -6.80315" fill="none" stroke="black"/>
<path d="M63.9961,132.303h -6.80315" fill="none" stroke="black"/>
<path d="M63.9961,130.504h -6.80315" fill="none" stroke="black"/>
<path d="M70.7992,128.895h -13.6063" fill="none" stroke="black"/>
<text xml:space="preserve" x="49.0263" y="129.009" fill="black" font-size="7.16345" font-family="Helvetica">4</text>
<text xml:space="preserve" x="38.0783" y="133.447" fill="black" font-size="10.4952" font-family="Helvetica">10</text>
<path d="M63.9961,118.308h -6.80315" fill="none" stroke="black"/>
<path d="M63.9961,112.116h -6.80315" fill="none" stroke="black"/>
<path d="M63.9961,107.722h -6.80315" fill="none" stroke="black"/>
<path d="M63.9961,104.314h -6.80315" fill="none" stroke="black"/>
<path d="M63.9961,101.529h -6.80315" fill="none" stroke="black"/>
<path d="M63.9961,99.1748h -6.80315" fill="none" stroke="black"/>
<path d="M63.9961,97.1353h -6.80315" fill="none" stroke="black"/>
<path d="M63.9961,95.3364h -6.80315" fill="none" stroke="black"/>
<path d="M70.7992,93.7273h -13.6063" fill="none" stroke="black"/>
<text xml:space="preserve" x="49.0263" y="93.5019" fill="black" font-size="7.16345" font-family="Helvetica">5</text>
<text xml:space="preserve" x="38.0783" y="98.2362" fill="black" font-size="10.4952" font-family="Helvetica">10</text>
<path d="M63.9961,83.1408h -6.80315" fill="none" stroke="black"/>
<path d="M63.9961,76.9482h -6.80315" fill="none" stroke="black"/>
<path d="M63.9961,72.5544h -6.80315" fill="none" stroke="black"/>
<path d="M63.9961,69.1463h -6.80315" fill="none" stroke="black"/>
<path d="M63.9961,66.3617h -6.80315" fill="none" stroke="black"/>
<path d="M63.9961,64.0074h -6.80315" fill="none" stroke="black"/>
<path d="M63.9961,61.968h -6.80315" fill="none" stroke="black"/>
<path d="M63.9961,60.1691h -6.80315" fill="none" stroke="black"/>
<path d="M70.7992,58.5599h -13.6063" fill="none" stroke="black"/>
<text xml:space="preserve" x="49.0263" y="58.2907" fill="black" font-size="7.16345" font-family="Helvetica">6</text>
<text xml:space="preserve" x="38.0783" y="63.025" fill="black" font-size="10.4952" font-family="Helvetica">10</text>
<path d="M63.9961,47.9735h -6.80315" fill="none" stroke="black"/>
<path d="M63.9961,41.7808h -6.80315" fill="none" stroke="black"/>
<path d="M63.9961,37.3871h -6.80315" fill="none" stroke="black"/>
<path d="M63.9961,33.979h -6.80315" fill="none" stroke="black"/>
<path d="M63.9961,31.1944h -6.80315" fill="none" stroke="black"/>
<g transform="rotate(-90,26.5385,191.442)">
<text xml:space="preserve" x="26.5385" y="191.442" fill="black" font-size="10.4952" font-family="Helvetica">Counts/Channel</text>
</g>
<text xml:space="preserve" x="404.097" y="58.2907" fill="black" font-size="14.7788" font-family="Helvetica" font-weight="bold"> = 2.4879 MeV</text>
<text xml:space="preserve" x="398.179" y="61.5455" fill="black" font-size="10.0192" font-family="Helvetica" font-weight="bold">p</text>
<text xml:space="preserve" x="389.006" y="58.2907" fill="black" font-size="14.7788" font-family="Helvetica" font-weight="bold">E</text>
<path d="M262.163,162.606v 26.4619" fill="none" stroke="black"/>
<path d="M264.454,189.068l -2.29122, 3.9685l -2.29122, -3.9685z" fill="black"/>
<path d="M264.454,189.068l -2.29122, 3.9685l -2.29122, -3.9685h 4.58243z" fill="none" stroke="black"/>
<text xml:space="preserve" x="266.803" y="160.373" fill="black" font-size="10.4952" font-family="Helvetica" font-weight="bold">_1 	1.369 MeV</text>
<text xml:space="preserve" x="260.293" y="160.373" fill="black" font-size="10.4952" font-family="Times">&#0945;</text>
<path d="M184.528,128.895v 31.1989" fill="none" stroke="black"/>
<path d="M186.819,160.094l -2.29122, 3.9685l -2.29122, -3.9685z" fill="black"/>
<path d="M186.819,160.094l -2.29122, 3.9685l -2.29122, -3.9685h 4.58243z" fill="none" stroke="black"/>
<text xml:space="preserve" x="172.117" y="126.05" fill="black" font-size="10.4952" font-family="Helvetica" font-weight="bold"># p_1 	0.844 MeV</text>
<path d="M210.104,147.283v 12.8106" fill="none" stroke="black"/>
<path d="M212.395,160.094l -2.29122, 3.9685l -2.29122, -3.9685z" fill="black"/>
<path d="M212.395,160.094l -2.29122, 3.9685l -2.29122, -3.9685h 4.58243z" fill="none" stroke="black"/>
<text xml:space="preserve" x="197.564" y="142.62" fill="black" font-size="10.4952" font-family="Helvetica" font-weight="bold"># p_2 	1.015 MeV</text>
<path d="M497.478,269.564h 13.1879" fill="none" stroke="black"/>
<path d="M504.072,258.978h 6.59395" fill="none" stroke="black"/>
<path d="M504.072,252.785h 6.59395" fill="none" stroke="black"/>
<path d="M504.072,248.391h 6.59395" fill="none" stroke="black"/>
<path d="M504.072,244.983h 6.59395" fill="none" stroke="black"/>
<path d="M504.072,242.199h 6.59395" fill="none" stroke="black"/>
<path d="M504.072,239.844h 6.59395" fill="none" stroke="black"/>
<path d="M504.072,237.805h 6.59395" fill="none" stroke="black"/>
<path d="M504.072,236.006h 6.59395" fill="none" stroke="black"/>
<path d="M497.478,234.397h 13.1879" fill="none" stroke="black"/>
<path d="M504.072,223.81h 6.59395" fill="none" stroke="black"/>
<path d="M504.072,217.618h 6.59395" fill="none" stroke="black"/>
<path d="M504.072,213.224h 6.59395" fill="none" stroke="black"/>
<path d="M504.072,209.816h 6.59395" fill="none" stroke="black"/>
<path d="M504.072,207.031h 6.59395" fill="none" stroke="black"/>
<path d="M504.072,204.677h 6.59395" fill="none" stroke="black"/>
<path d="M504.072,202.637h 6.59395" fill="none" stroke="black"/>
<path d="M504.072,200.839h 6.59395" fill="none" stroke="black"/>
<path d="M497.478,199.229h 13.1879" fill="none" stroke="black"/>
<path d="M504.072,188.643h 6.59395" fill="none" stroke="black"/>
<path d="M504.072,182.45h 6.59395" fill="none" stroke="black"/>
<path d="M504.072,178.057h 6.59395" fill="none" stroke="black"/>
<path d="M504.072,174.648h 6.59395" fill="none" stroke="black"/>
<path d="M504.072,171.864h 6.59395" fill="none" stroke="black"/>
<path d="M504.072,169.51h 6.59395" fill="none" stroke="black"/>
<path d="M504.072,167.47h 6.59395" fill="none" stroke="black"/>
<path d="M504.072,165.671h 6.59395" fill="none" stroke="black"/>
<path d="M497.478,164.062h 13.1879" fill="none" stroke="black"/>
<path d="M504.072,153.476h 6.59395" fill="none" stroke="black"/>
<path d="M504.072,147.283h 6.59395" fill="none" stroke="black"/>
<path d="M504.072,142.889h 6.59395" fill="none" stroke="black"/>
<path d="M504.072,139.481h 6.59395" fill="none" stroke="black"/>
<path d="M504.072,136.696h 6.59395" fill="none" stroke="black"/>
<path d="M504.072,134.342h 6.59395" fill="none" stroke="black"/>
<path d="M504.072,132.303h 6.59395" fill="none" stroke="black"/>
<path d="M504.072,130.504h 6.59395" fill="none" stroke="black"/>
<path d="M497.478,128.895h 13.1879" fill="none" stroke="black"/>
<path d="M504.072,118.308h 6.59395" fill="none" stroke="black"/>
<path d="M504.072,112.116h 6.59395" fill="none" stroke="black"/>
<path d="M504.072,107.722h 6.59395" fill="none" stroke="black"/>
<path d="M504.072,104.314h 6.59395" fill="none" stroke="black"/>
<path d="M504.072,101.529h 6.59395" fill="none" stroke="black"/>
<path d="M504.072,99.1748h 6.59395" fill="none" stroke="black"/>
<path d="M504.072,97.1353h 6.59395" fill="none" stroke="black"/>
<path d="M504.072,95.3364h 6.59395" fill="none" stroke="black"/>
<path d="M497.478,93.7273h 13.1879" fill="none" stroke="black"/>
<path d="M504.072,83.1408h 6.59395" fill="none" stroke="black"/>
<path d="M504.072,76.9482h 6.59395" fill="none" stroke="black"/>
<path d="M504.072,72.5544h 6.59395" fill="none" stroke="black"/>
<path d="M504.072,69.1463h 6.59395" fill="none" stroke="black"/>
<path d="M504.072,66.3617h 6.59395" fill="none" stroke="black"/>
<path d="M504.072,64.0074h 6.59395" fill="none" stroke="black"/>
<path d="M504.072,61.968h 6.59395" fill="none" stroke="black"/>
<path d="M504.072,60.1691h 6.59395" fill="none" stroke="black"/>
<path d="M497.478,58.5599h 13.1879" fill="none" stroke="black"/>
<path d="M504.072,47.9735h 6.59395" fill="none" stroke="black"/>
<path d="M504.072,41.7808h 6.59395" fill="none" stroke="black"/>
<path d="M504.072,37.387h 6.59395" fill="none" stroke="black"/>
<path d="M504.072,33.979h 6.59395" fill="none" stroke="black"/>
<path d="M504.072,31.1944h 6.59395" fill="none" stroke="black"/>
<path d="M504.072,28.84h 6.59395" fill="none" stroke="black"/>
<path d="M57.1929,35.6686v -7.46952" fill="none" stroke="black"/>
<path d="M75.3318,35.6686v -7.46952" fill="none" stroke="black"/>
<path d="M93.4707,35.6686v -7.46952" fill="none" stroke="black"/>
<path d="M111.61,35.6686v -7.46952" fill="none" stroke="black"/>
<path d="M129.749,35.6686v -7.46952" fill="none" stroke="black"/>
<path d="M147.887,35.6686v -7.46952" fill="none" stroke="black"/>
<path d="M166.026,35.6686v -7.46952" fill="none" stroke="black"/>
<path d="M184.165,35.6686v -7.46952" fill="none" stroke="black"/>
<path d="M202.304,35.6686v -7.46952" fill="none" stroke="black"/>
<path d="M220.443,35.6686v -7.46952" fill="none" stroke="black"/>
<path d="M238.582,35.6686v -7.46952" fill="none" stroke="black"/>
<path d="M256.721,35.6686v -7.46952" fill="none" stroke="black"/>
<path d="M274.86,35.6686v -7.46952" fill="none" stroke="black"/>
<path d="M292.999,35.6686v -7.46952" fill="none" stroke="black"/>
<path d="M311.138,35.6686v -7.46952" fill="none" stroke="black"/>
<path d="M329.277,35.6686v -7.46952" fill="none" stroke="black"/>
<path d="M347.415,35.6686v -7.46952" fill="none" stroke="black"/>
<path d="M365.554,35.6686v -7.46952" fill="none" stroke="black"/>
<path d="M383.693,35.6686v -7.46952" fill="none" stroke="black"/>
<path d="M401.832,35.6686v -7.46952" fill="none" stroke="black"/>
<path d="M419.971,35.6686v -7.46952" fill="none" stroke="black"/>
<path d="M438.11,35.6686v -7.46952" fill="none" stroke="black"/>
<path d="M456.249,35.6686v -7.46952" fill="none" stroke="black"/>
<path d="M474.388,35.6686v -7.46952" fill="none" stroke="black"/>
<path d="M492.527,35.6686v -7.46952" fill="none" stroke="black"/>
<path d="M510.666,35.6686v -7.46952" fill="none" stroke="black"/></svg>
