<?xml version="1.0" standalone="no"?>
<svg width="567.429" height="311.778" viewBox="0 0 567.429 311.778" xmlns="http://www.w3.org/2000/svg" shape-rendering="crispEdges">
<title>
Yields/P1/run_0106/det5_Fit.svg
</title>
<desc>
Creator: ROOT Version 6.12/06
CreationDate: Mon Apr 15 10:29:02 2019</desc>
<defs>
</defs>
<rect x="0.5" y="0" width="566.929" height="311.278" fill="white"/>
<rect x="57.1929" y="31.1278" width="453.543" height="249.023" fill="white"/>
<rect x="57.1929" y="31.1278" width="453.543" height="249.023" fill="none" stroke="black"/>
<path d="M57.1929,40.8926h 0.181345v 239.258h 13.4195v -10.5908h 0.181345v 10.5908h 1.81345v -10.5908h 0.181345v 10.5908h 4.71496v -10.5908h 0.181345v 10.5908h 4.17093v -10.5908h 0.181345v 10.5908h 4.35227v -10.5908h 0.181345v 10.5908h 0.181345v
 -10.5908h 0.36269v 10.5908h 0.36269v -10.5908h 0.36269v -21.1817h 0.181345v 4.3956h 0.181345v -29.7323h 0.181345v -12.3094h 0.181345v -13.5383h 0.181345v -7.23153h 0.181345v -5.82909h 0.181345v -4.88649h 0.181345v -3.40121h 0.181345v -0.295421h
 0.181345v -2.56748h 0.181345v 0.249351h 0.181345v -2.82296h 0.181345v -0.592121h 0.181345v -0.309578h 0.181345v 0.198293h 0.181345v -1.57876h 0.181345v 0.885113h 0.181345v -1.02447h 0.181345v -0.866737h 0.181345v -0.46109h 0.181345v 0.498585h
 0.181345v 0.265076h 0.181345v -0.836162h 0.181345v -0.861285h 0.181345v 0.0685174h 0.181345v 0.774696h 0.181345v -0.877357h 0.181345v 0.362373h 0.181345v -0.56565h 0.181345v -0.0168182h 0.181345v 0.220094h 0.181345v -0.453626h 0.181345v 0.798547h
 0.181345v -1.01225h 0.181345v 0.804363h 0.181345v -1.12741h 0.181345v 0.128399h 0.181345v 0.14575h 0.181345v 0.0325786h 0.181345v -0.434056h 0.181345v 1.18606h 0.181345v -1.15433h 0.181345v -0.0792089h 0.181345v 0.995591h 0.181345v -0.167722h
 0.181345v -0.346336h 0.181345v -0.763332h 0.181345v 0.0310556h 0.181345v 1.29701h 0.181345v -0.887438h 0.181345v 1.09185h 0.181345v -0.0171389h 0.181345v -0.784585h 0.181345v -0.792676h 0.181345v 1.9764h 0.181345v 0.337777h 0.181345v -0.0359092h
 0.181345v 0.547706h 0.181345v -0.36731h 0.181345v -0.376402h 0.181345v 1.12007h 0.181345v -0.779918h 0.181345v -0.498671h 0.181345v -1.11479h 0.181345v -0.855234h 0.181345v -2.13815h 0.181345v -1.19723h 0.181345v -3.58186h 0.181345v -3.02868h
 0.181345v -3.21221h 0.181345v -2.79986h 0.181345v -3.57016h 0.181345v -3.04739h 0.181345v -1.80785h 0.181345v -1.98553h 0.181345v -1.11037h 0.181345v -1.00649h 0.181345v -0.0975712h 0.181345v 0.791097h 0.181345v 1.04953h 0.181345v 1.54161h 0.181345v
 2.49956h 0.181345v 2.22919h 0.181345v 3.87223h 0.181345v 4.03945h 0.181345v 3.27134h 0.181345v 4.53601h 0.181345v 3.28586h 0.181345v 5.31841h 0.181345v 2.14539h 0.181345v 2.79488h 0.181345v 1.019h 0.181345v 1.53846h 0.181345v 0.968852h 0.181345v
 -0.341071h 0.181345v 0.479661h 0.181345v 0.531202h 0.181345v 0.814105h 0.181345v -0.338302h 0.181345v 0.224701h 0.181345v -0.150167h 0.181345v -0.0745336h 0.181345v 1.44142h 0.181345v -0.679195h 0.181345v 1.38999h 0.181345v -0.953974h 0.181345v
 -0.82188h 0.181345v 0.191713h 0.181345v 0.470171h 0.181345v 0.526229h 0.181345v 1.06594h 0.181345v -1.22979h 0.181345v 0.28791h 0.181345v -0.650284h 0.181345v 0.901457h 0.181345v -0.209597h 0.181345v 1.34841h 0.181345v -1.79965h 0.181345v 1.61883h
 0.181345v -0.529973h 0.181345v -0.470171h 0.181345v 0.688764h 0.181345v 1.47831h 0.181345v -1.86955h 0.181345v 2.1634h 0.181345v -0.582141h 0.181345v -0.468729h 0.181345v -0.454776h 0.181345v 3.39829h 0.181345v -1.64339h 0.181345v -0.199733h
 0.181345v 0.710796h 0.181345v -0.907952h 0.181345v 1.87329h 0.181345v -0.808621h 0.181345v -0.156713h 0.181345v -1.00558h 0.181345v 1.80573h 0.181345v -1.10883h 0.181345v -0.745483h 0.181345v 2.0195h 0.181345v -1.67613h 0.181345v 1.73159h 0.181345v
 1.82746h 0.181345v -1.20372h 0.181345v -1.11578h 0.181345v 0.492043h 0.181345v 0.739927h 0.181345v 1.59689h 0.181345v -0.634089h 0.181345v -2.93h 0.181345v 1.56433h 0.181345v -0.392519h 0.181345v 2.78576h 0.181345v -2.67463h 0.181345v 1.33962h
 0.181345v -0.181539h 0.181345v -0.297853h 0.181345v -0.748291h 0.181345v -0.27832h 0.181345v 4.45086h 0.181345v -3.88905h 0.181345v 2.34579h 0.181345v -2.40291h 0.181345v 1.43349h 0.181345v -0.793119h 0.181345v 0.483182h 0.181345v 1.21278h 0.181345v
 -0.328601h 0.181345v 0.262313h 0.181345v 2.43269h 0.181345v -4.98517h 0.181345v 2.35532h 0.181345v -0.450372h 0.181345v 0.320334h 0.181345v 1.35304h 0.181345v -3.85564h 0.181345v 2.89608h 0.181345v -0.777084h 0.181345v -0.557929h 0.181345v 2.43671h
 0.181345v -3.66439h 0.181345v 0.689411h 0.181345v 0.177325h 0.181345v -1.68694h 0.181345v 1.33432h 0.181345v -0.570192h 0.181345v -0.49559h 0.181345v -0.532436h 0.181345v -1.86926h 0.181345v 0.0463714h 0.181345v 0.471623h 0.181345v -1.93212h
 0.181345v 0.913121h 0.181345v -0.178187h 0.181345v -0.819118h 0.181345v -0.0837227h 0.181345v 1.72157h 0.181345v 0.140825h 0.36269v 0.0472314h 0.181345v 2.34744h 0.181345v 2.19073h 0.181345v 0.192196h 0.181345v -2.60199h 0.181345v 0.89575h 0.181345v
 3.26602h 0.181345v -1.94178h 0.181345v 2.01335h 0.181345v -1.17326h 0.181345v 4.26331h 0.181345v 0.0880657h 0.181345v -1.7505h 0.181345v -1.49918h 0.181345v 1.7373h 0.181345v -1.08081h 0.181345v 1.16102h 0.181345v -1.16102h 0.181345v 1.16102h
 0.181345v -0.159995h 0.181345v 0.240625h 0.181345v 1.35154h 0.181345v -3.03397h 0.181345v 2.59863h 0.181345v -0.916203h 0.181345v 1.52921h 0.181345v -2.62106h 0.181345v 0.151282h 0.181345v 1.26741h 0.181345v -1.64284h 0.181345v 1.23537h 0.181345v
 -1.01122h 0.181345v 0.692886h 0.181345v 0.480019h 0.181345v 0.749547h 0.181345v -2.07225h 0.181345v 1.73457h 0.181345v -0.891887h 0.181345v 0.238125h 0.181345v 0.737485h 0.181345v 0.253956h 0.181345v -0.668057h 0.181345v 0.498284h 0.181345v
 -3.85867h 0.181345v 3.037h 0.181345v -2.36675h 0.181345v 1.36065h 0.181345v 1.32948h 0.181345v -0.403173h 0.181345v -3.2173h 0.181345v 1.06799h 0.181345v -0.74219h 0.181345v 0.468113h 0.181345v 0.205095h 0.181345v -0.272853h 0.181345v -1.29564h
 0.181345v 1.09415h 0.181345v 0.543323h 0.181345v -2.3652h 0.181345v 3.00046h 0.181345v 1.199h 0.181345v -0.155122h 0.181345v 0.470171h 0.181345v -1.72875h 0.181345v 0.0712326h 0.181345v 2.90042h 0.181345v -0.17168h 0.181345v -0.911235h 0.181345v
 1.52075h 0.181345v -0.264203h 0.181345v -0.345311h 0.181345v -0.337679h 0.181345v 0.947193h 0.181345v -1.99579h 0.181345v 0.965333h 0.181345v -0.729657h 0.181345v 2.48784h 0.181345v 0.187479h 0.181345v 0.189808h 0.181345v -0.0951988h 0.181345v
 -1.18646h 0.181345v 1.09185h 0.181345v -1.26647h 0.36269v 0.0870621h 0.181345v -0.345311h 0.181345v -1.07123h 0.181345v 1.32948h 0.181345v -1.56637h 0.181345v 2.64536h 0.181345v -0.991929h 0.181345v -1.57488h 0.181345v -0.234471h 0.181345v 1.54964h
 0.181345v 1.82112h 0.181345v -1.20812h 0.181345v -1.52921h 0.181345v 1.35154h 0.181345v -0.175627h 0.181345v 0.353296h 0.181345v -0.177669h 0.181345v 0.631096h 0.181345v -1.23716h 0.181345v -0.582935h 0.181345v 0.668057h 0.181345v 1.24436h 0.181345v
 -0.545749h 0.181345v 1.30513h 0.181345v -1.83206h 0.181345v 0.261192h 0.181345v 0.265735h 0.181345v -1.69005h 0.181345v -1.449h 0.181345v 1.21088h 0.181345v -1.85207h 0.181345v 1.31046h 0.181345v 1.85677h 0.181345v 0.259712h 0.181345v 0.264203h
 0.181345v -1.76012h 0.181345v 0.564473h 0.181345v 2.20546h 0.181345v -1.27402h 0.181345v -2.34285h 0.36269v 2.96658h 0.181345v -1.88028h 0.181345v 0.741462h 0.181345v 0.515083h 0.181345v -0.68299h 0.181345v -0.653762h 0.181345v 1.16312h 0.181345v
 -1.71308h 0.181345v -1.4703h 0.181345v 2.02026h 0.181345v -0.703522h 0.181345v 1.10883h 0.181345v -1.10883h 0.181345v 0.544361h 0.181345v -0.390798h 0.181345v 1.12046h 0.181345v 0.506545h 0.181345v -0.671728h 0.181345v -0.564473h 0.181345v 0.812924h
 0.181345v 1.48971h 0.181345v -2.46016h 0.181345v 2.92745h 0.181345v -1.7891h 0.181345v 0.868379h 0.181345v -1.92817h 0.181345v 1.48782h 0.181345v 2.75107h 0.181345v -4.00076h 0.181345v 2.05171h 0.181345v 0.184091h 0.181345v 2.7303h 0.181345v
 -3.09629h 0.181345v -0.706686h 0.181345v 1.54285h 0.181345v -1.01592h 0.181345v 2.83946h 0.181345v -5.07947h 0.181345v 3.54514h 0.181345v 0.799103h 0.181345v -0.603211h 0.181345v 1.23122h 0.181345v -0.525116h 0.181345v -0.102892h 0.181345v 0.102892h
 0.181345v 0.418639h 0.181345v 0.761407h 0.181345v 0.224701h 0.181345v -2.50015h 0.181345v 0.992515h 0.181345v 0.310777h 0.181345v 1.0841h 0.181345v -1.18839h 0.181345v -0.511063h 0.181345v 2.38887h 0.181345v -2.88339h 0.181345v 1.64232h 0.181345v
 0.778026h 0.181345v 0.581034h 0.181345v -0.581034h 0.181345v 0.345963h 0.181345v -0.572328h 0.181345v 2.16921h 0.181345v -1.00228h 0.181345v -0.120786h 0.181345v 1.12307h 0.181345v -0.75781h 0.181345v 0.75781h 0.181345v -2.93608h 0.181345v 0.433486h
 0.181345v 2.89608h 0.181345v -1.51655h 0.181345v 0.120786h 0.181345v 1.13232h 0.181345v -3.1726h 0.181345v 3.56949h 0.181345v 0.134621h 0.181345v 0.833626h 0.181345v -1.87878h 0.181345v -2.97401h 0.181345v 2.97401h 0.181345v -0.125757h 0.181345v
 -0.371177h 0.181345v -1.62206h 0.181345v 1.37953h 0.181345v -0.933381h 0.181345v 2.718h 0.181345v -2.6044h 0.181345v 3.15506h 0.181345v -1.34116h 0.181345v -1.23287h 0.181345v 1.88874h 0.181345v 0.968247h 0.181345v 0.881746h 0.181345v -1.57956h
 0.181345v -2.39425h 0.181345v -0.684265h 0.181345v 3.63419h 0.181345v -1.73664h 0.181345v -4.173h 0.181345v 5.90964h 0.181345v -0.826113h 0.181345v -0.396889h 0.181345v -1.95844h 0.181345v 0.585488h 0.181345v 3.46929h 0.181345v -4.28284h 0.181345v
 3.69509h 0.181345v -2.64093h 0.181345v 1.52921h 0.181345v -1.28474h 0.181345v 2.39645h 0.181345v -0.977096h 0.181345v -0.400356h 0.181345v 1.96519h 0.181345v -1.42902h 0.181345v -2.27717h 0.181345v 3.85672h 0.181345v -1.71537h 0.181345v -0.661548h
 0.181345v -1.36182h 0.181345v 2.57403h 0.181345v -1.97002h 0.181345v 1.83049h 0.181345v 0.857011h 0.181345v -0.717473h 0.181345v 1.4703h 0.181345v -3.44033h 0.181345v 1.97002h 0.181345v 0.571258h 0.181345v -1.91241h 0.181345v 3.60331h 0.181345v
 -4.10846h 0.181345v 1.56849h 0.181345v -2.29622h 0.181345v 2.71485h 0.181345v -2.47611h 0.181345v 0.488981h 0.181345v 1.8463h 0.181345v -2.8091h 0.181345v 2.94993h 0.181345v 1.79965h 0.181345v -0.926306h 0.181345v 1.91241h 0.181345v -5.73568h
 0.181345v 1.21328h 0.181345v -0.250487h 0.181345v -0.246447h 0.181345v -1.28868h 0.181345v 1.04614h 0.181345v 0.739468h 0.181345v -0.739468h 0.181345v -0.933381h 0.181345v 3.55163h 0.181345v -4.32403h 0.181345v -0.213701h 0.181345v -2.17234h
 0.181345v -0.980354h 0.181345v 2.22638h 0.181345v -0.967371h 0.181345v -1.76837h 0.181345v -1.43349h 0.181345v 3.29589h 0.181345v 0.382004h 0.181345v -2.0765h 0.181345v 0.341452h 0.181345v -0.509359h 0.181345v 0.252557h 0.181345v 0.873344h 0.181345v
 -1.04218h 0.181345v 0.253956h 0.181345v 1.06027h 0.181345v -0.627393h 0.181345v -0.936633h 0.181345v 1.74812h 0.181345v -0.456134h 0.181345v -0.529973h 0.181345v 0.710796h 0.181345v -0.536173h 0.181345v -1.18242h 0.181345v 1.71859h 0.181345v
 -0.359531h 0.181345v -2.60705h 0.181345v 0.846932h 0.181345v 4.05633h 0.181345v -2.82013h 0.181345v 0.0860811h 0.181345v -0.509359h 0.181345v -0.0832665h 0.181345v -0.887178h 0.181345v -0.155913h 0.181345v -2.29982h 0.181345v -2.28846h 0.181345v
 1.38179h 0.181345v -1.15028h 0.181345v -0.795388h 0.181345v -2.77653h 0.181345v -1.28325h 0.181345v -1.83733h 0.181345v -1.22879h 0.181345v -1.04027h 0.181345v 0.261751h 0.181345v -2.03615h 0.181345v -1.19409h 0.181345v -1.32948h 0.181345v -1.0411h
 0.181345v 2.10577h 0.181345v -1.13795h 0.181345v -1.89951h 0.181345v -0.507948h 0.181345v 1.60059h 0.181345v -0.138067h 0.181345v 1.31491h 0.181345v -0.563697h 0.181345v 1.14899h 0.181345v 0.963642h 0.181345v 0.5342h 0.181345v 0.114883h 0.181345v
 2.67087h 0.181345v 1.51476h 0.181345v 1.223h 0.181345v 2.11085h 0.181345v 0.674908h 0.181345v 2.11085h 0.181345v 0.753973h 0.181345v 0.668389h 0.181345v 3.01101h 0.181345v 1.59304h 0.181345v 0.599267h 0.181345v 0.087561h 0.181345v 1.86565h 0.181345v
 1.56581h 0.181345v 2.24579h 0.181345v -0.623734h 0.181345v 1.95321h 0.181345v -3.35383h 0.181345v 3.49337h 0.181345v -0.818733h 0.181345v -0.650284h 0.181345v 3.89459h 0.181345v -3.50775h 0.181345v 6.19525h 0.181345v -2.01577h 0.181345v -3.0973h
 0.181345v 1.78214h 0.181345v 2.3816h 0.181345v -0.54252h 0.181345v -1.68074h 0.181345v -3.28163h 0.181345v 0.926306h 0.181345v 0.697809h 0.181345v -0.282959h 0.181345v 1.94047h 0.181345v 2.04027h 0.181345v -1.38999h 0.181345v -1.87329h 0.181345v
 1.06466h 0.181345v 0.97561h 0.181345v -4.22676h 0.181345v 3.89459h 0.181345v -1.41141h 0.36269v -0.442911h 0.181345v 4.54181h 0.181345v -3.94837h 0.181345v -1.71537h 0.181345v 5.46909h 0.181345v -1.82112h 0.181345v -2.37983h 0.181345v 0.599267h
 0.181345v 4.3956h 0.181345v -6.26301h 0.181345v 2.81282h 0.181345v 1.53777h 0.181345v -0.702623h 0.181345v 0.347273h 0.181345v -0.347273h 0.181345v -2.95648h 0.181345v 3.48039h 0.181345v -2.15091h 0.181345v 2.87864h 0.181345v -0.368195h 0.181345v
 1.13232h 0.181345v -2.85091h 0.181345v 3.45018h 0.181345v -4.08691h 0.181345v 2.1745h 0.181345v -1.85945h 0.181345v 2.59595h 0.181345v -1.60984h 0.181345v -1.60984h 0.181345v 1.95321h 0.36269v 1.26647h 0.181345v -3.21968h 0.181345v 1.60984h
 0.181345v -1.45628h 0.181345v 0.791854h 0.181345v 1.53777h 0.181345v 0.736497h 0.181345v 1.38101h 0.181345v 0.207886h 0.181345v -1.5889h 0.181345v -2.75429h 0.181345v 2.75429h 0.181345v -0.915205h 0.181345v -1.68074h 0.181345v 0.986107h 0.181345v
 1.05417h 0.181345v 1.73159h 0.181345v -2.26776h 0.181345v 1.86565h 0.181345v -1.68901h 0.181345v 3.5882h 0.181345v -3.93946h 0.181345v -2.55248h 0.181345v 6.71831h 0.181345v -5.96548h 0.181345v 4.86577h 0.181345v 0.650284h 0.181345v -2.26013h
 0.181345v -2.30066h 0.181345v -0.643437h 0.181345v 4.55394h 0.181345v -3.74531h 0.181345v -1.72566h 0.181345v 0.605202h 0.181345v -1.18734h 0.181345v -1.36514h 0.181345v 0.53151h 0.181345v -2.14135h 0.181345v -1.13232h 0.181345v 1.73159h 0.181345v
 -2.78576h 0.181345v -3.9302h 0.181345v 1.22957h 0.181345v -2.07225h 0.181345v -1.28594h 0.181345v -2.75146h 0.181345v 0.702623h 0.181345v -3.61187h 0.181345v -2.15808h 0.181345v -0.564473h 0.181345v -1.28984h 0.181345v -0.430433h 0.181345v -1.44985h
 0.181345v -0.412552h 0.181345v 0.125757h 0.181345v -0.648968h 0.181345v -1.08037h 0.181345v -1.45115h 0.181345v 0.924703h 0.181345v -0.26996h 0.181345v -0.603384h 0.181345v 0.181129h 0.181345v 0.529667h 0.181345v 1.20505h 0.181345v 1.34009h
 0.181345v 0.063797h 0.181345v 1.30045h 0.181345v 0.0697689h 0.181345v 0.900105h 0.181345v 0.413489h 0.181345v 5.59745h 0.181345v -2.10198h 0.181345v 2.43536h 0.181345v 1.91241h 0.181345v -0.866269h 0.181345v 3.05276h 0.181345v 4.20095h 0.181345v
 0.292904h 0.181345v 4.03836h 0.181345v -0.127862h 0.181345v 3.25115h 0.181345v 1.14444h 0.181345v 1.99185h 0.181345v 1.41765h 0.181345v -1.41765h 0.181345v 6.98916h 0.181345v -2.26776h 0.181345v -0.770551h 0.181345v 2.43905h 0.181345v -0.857011h
 0.181345v 2.4017h 0.181345v -1.83573h 0.181345v 0.890312h 0.181345v 7.80509h 0.181345v -7.18136h 0.181345v -2.08001h 0.181345v 1.15371h 0.181345v 2.60705h 0.181345v -2.30448h 0.181345v 5.44977h 0.181345v -4.82603h 0.181345v 0.986107h 0.181345v
 1.05417h 0.181345v 0.745483h 0.181345v -3.40949h 0.181345v 0.945417h 0.181345v -0.321683h 0.181345v 6.19525h 0.181345v -3.78678h 0.181345v 1.56849h 0.181345v -4.90326h 0.181345v 1.57659h 0.181345v -3.27605h 0.181345v 8.82101h 0.181345v -6.5103h
 0.181345v -2.04027h 0.181345v 3.00561h 0.181345v -0.650284h 0.181345v 6.19525h 0.181345v -8.82101h 0.181345v 3.95524h 0.181345v 0.710796h 0.181345v -2.04027h 0.36269v 4.3956h 0.181345v -4.71065h 0.181345v 6.04013h 0.181345v -6.04013h 0.181345v
 3.48765h 0.181345v -2.52231h 0.181345v 3.32668h 0.181345v -2.64748h 0.181345v -2.84352h 0.36269v -0.841278h 0.181345v 2.04027h 0.181345v 0.31505h 0.181345v -2.35532h 0.181345v 2.35532h 0.181345v -0.623734h 0.181345v -2.26776h 0.181345v 1.96519h
 0.181345v -2.98419h 0.181345v 2.39645h 0.181345v 1.199h 0.181345v 0.31505h 0.181345v 4.82603h 0.181345v -7.18136h 0.181345v 1.73159h 0.181345v -0.890312h 0.181345v 2.16433h 0.181345v 2.13547h 0.181345v -6.69626h 0.181345v 5.95077h 0.181345v
 -5.19296h 0.181345v 6.32529h 0.181345v -1.49185h 0.181345v -1.03046h 0.181345v -4.05977h 0.181345v 2.18649h 0.181345v -0.576648h 0.181345v 4.58541h 0.181345v -2.46407h 0.181345v -1.83573h 0.181345v 1.51405h 0.181345v -1.223h 0.181345v 2.20911h
 0.181345v -5.85188h 0.181345v 8.03837h 0.181345v 4.52675h 0.181345v -2.87332h 0.181345v -4.50435h 0.181345v -2.67701h 0.181345v 0.841278h 0.181345v -0.565967h 0.181345v 6.05697h 0.181345v -2.29622h 0.181345v -1.03046h 0.181345v 1.03046h 0.181345v
 1.10501h 0.181345v 2.48319h 0.181345v -4.28284h 0.181345v 2.99085h 0.181345v -5.77661h 0.181345v 1.17592h 0.181345v 2.66401h 0.181345v -1.71859h 0.181345v 2.08679h 0.181345v -2.08679h 0.181345v 0.328601h 0.181345v 0.335824h 0.181345v 4.73897h
 0.181345v -0.456134h 0.181345v -4.28284h 0.181345v -1.60984h 0.181345v 0.308684h 0.181345v 0.965333h 0.36269v 2.13547h 0.181345v 1.60984h 0.181345v -4.71065h 0.181345v -0.611256h 0.181345v 1.57659h 0.181345v 0.335824h 0.181345v 2.18649h 0.181345v
 -1.84312h 0.181345v 1.45628h 0.181345v 0.783729h 0.181345v 0.826113h 0.181345v -1.223h 0.181345v -2.18649h 0.181345v 2.18649h 0.181345v -0.38684h 0.181345v -0.745483h 0.181345v -2.35532h 0.181345v 0.636732h 0.181345v 7.37767h 0.181345v -4.12986h
 0.181345v -2.58338h 0.181345v 4.73897h 0.181345v -4.73897h 0.181345v -1.30116h 0.181345v 6.04013h 0.181345v -0.899045h 0.181345v 1.85432h 0.181345v 1.019h 0.181345v -3.30375h 0.181345v 0.873344h 0.181345v -2.86047h 0.181345v 8.18238h 0.181345v
 -0.623734h 0.181345v -8.28637h 0.181345v 5.50061h 0.181345v -2.35532h 0.181345v 0.442911h 0.181345v -3.93946h 0.181345v 4.86577h 0.181345v -0.470171h 0.36269v 0.470171h 0.181345v -0.926306h 0.181345v -2.86047h 0.181345v 1.16102h 0.181345v -0.783729h
 0.181345v -0.377287h 0.181345v 4.77289h 0.181345v 2.78576h 0.181345v -1.73159h 0.181345v -0.536173h 0.181345v 0.536173h 0.181345v -5.44977h 0.181345v 6.58209h 0.181345v 1.223h 0.181345v -6.19525h 0.181345v 3.83992h 0.181345v -1.05417h 0.181345v
 4.73897h 0.36269v -2.55248h 0.181345v -0.576648h 0.36269v 0.576648h 0.181345v 0.599267h 0.36269v 5.89268h 0.181345v -1.69946h 0.181345v -2.9192h 0.181345v -5.04588h 0.181345v 8.7912h 0.181345v -5.01933h 0.181345v 7.80509h 0.181345v 2.18649h
 0.181345v -8.03837h 0.181345v -1.95321h 0.181345v 3.40949h 0.181345v 5.44977h 0.181345v 2.35532h 0.181345v -12.3905h 0.181345v 5.36914h 0.181345v -2.24001h 0.181345v 13.657h 0.181345v -17.3418h 0.181345v 5.14108h 0.181345v 5.44977h 0.181345v
 -2.96658h 0.181345v -8.67843h 0.181345v 4.73897h 0.181345v 1.45628h 0.181345v 3.40949h 0.181345v -4.86577h 0.181345v 4.86577h 0.181345v 7.18136h 0.181345v -8.10766h 0.181345v 13.5574h 0.181345v -12.6311h 0.181345v -1.79965h 0.181345v 2.78576h
 0.181345v -2.78576h 0.181345v 6.19525h 0.181345v -2.35532h 0.181345v -3.83992h 0.181345v 3.83992h 0.181345v 15.7319h 0.181345v -21.9272h 0.181345v 12.9462h 0.181345v -6.75092h 0.181345v 6.75092h 0.181345v -1.60984h 0.181345v -1.45628h 0.181345v
 -4.73897h 0.181345v 1.05417h 0.181345v 1.13232h 0.181345v -5.79836h 0.181345v 9.80712h 0.181345v -4.00876h 0.36269v 4.00876h 0.181345v -6.19525h 0.181345v -7.18136h 0.181345v 16.7861h 0.181345v -6.19525h 0.181345v -5.3219h 0.181345v 4.0989h
 0.181345v -1.13232h 0.181345v -6.19525h 0.181345v 4.15497h 0.181345v 3.1726h 0.181345v -5.79836h 0.181345v 8.35084h 0.181345v -4.73897h 0.181345v -3.61187h 0.181345v -0.783729h 0.181345v -4.00876h 0.181345v 2.55248h 0.181345v -4.73897h 0.181345v
 2.78576h 0.36269v 1.95321h 0.181345v -9.51186h 0.181345v 2.86047h 0.181345v 1.41141h 0.181345v -4.9996h 0.36269v 4.04433h 0.181345v 1.45628h 0.181345v -1.45628h 0.181345v -4.73897h 0.181345v -1.91241h 0.181345v 2.60705h 0.181345v -2.60705h 0.181345v
 1.24799h 0.181345v -1.24799h 0.181345v -1.42902h 0.181345v -2.27717h 0.181345v 4.95417h 0.181345v -2.67701h 0.181345v -2.74021h 0.181345v 1.68605h 0.181345v 5.44977h 0.181345v -1.05417h 0.181345v -1.30116h 0.181345v 2.72352h 0.181345v -0.368195h
 0.181345v -3.55432h 0.181345v 11.4812h 0.181345v -4.24204h 0.181345v -0.899045h 0.181345v -0.430433h 0.181345v 2.78576h 0.181345v 2.18649h 0.181345v 1.223h 0.544034v -1.79965h 0.181345v -2.59595h 0.181345v 1.5041h 0.181345v 4.22098h 0.181345v
 5.85188h 0.181345v -7.80509h 0.181345v 7.80509h 0.181345v -7.18136h 0.181345v -0.623734h 0.181345v 11.2146h 0.181345v -15.4566h 0.181345v 3.64277h 0.181345v -6.19525h 0.181345v 2.09635h 0.181345v -4.28284h 0.181345v -1.91241h 0.181345v 0.611256h
 0.181345v 1.99579h 0.181345v -6.31324h 0.181345v 3.40949h 0.181345v -0.291044h 0.181345v -3.11845h 0.181345v -3.36241h 0.181345v -2.27427h 0.181345v 3.04807h 0.181345v -5.02727h 0.181345v 0.881746h 0.181345v -3.97381h 0.181345v 3.38036h 0.181345v
 -2.04027h 0.181345v 0.650284h 0.181345v -0.902841h 0.181345v -1.31904h 0.181345v -3.83992h 0.181345v 3.61187h 0.181345v -2.59595h 0.181345v -1.01592h 0.181345v 1.11172h 0.181345v -1.0221h 0.181345v 3.75031h 0.181345v -2.14047h 0.181345v -0.394328h
 0.181345v -1.30513h 0.181345v -1.36666h 0.181345v -0.56151h 0.181345v -0.465397h 0.181345v 0.945417h 0.181345v 0.245786h 0.181345v -0.326844h 0.181345v -0.160837h 0.181345v 1.16312h 0.181345v -1.24291h 0.181345v -1.72875h 0.181345v 0.505746h
 0.181345v -0.146215h 0.181345v -0.288298h 0.181345v 0.143469h 0.181345v -0.426428h 0.181345v 0.140825h 0.181345v 1.56276h 0.181345v -0.463046h 0.181345v -2.32271h 0.181345v 1.36514h 0.181345v -0.629445h 0.181345v 1.13759h 0.181345v -1.60984h
 0.181345v 3.40949h 0.181345v -0.729657h 0.181345v 1.32228h 0.181345v 1.54285h 0.181345v -1.54285h 0.181345v 1.35304h 0.181345v 1.07439h 0.181345v 2.406h 0.181345v 0.978213h 0.181345v -0.496934h 0.181345v -1.17592h 0.181345v 3.12913h 0.181345v
 5.25261h 0.181345v -2.85091h 0.181345v 3.65528h 0.181345v 3.72239h 0.181345v -0.770551h 0.181345v -2.74395h 0.181345v 8.81447h 0.181345v -2.08679h 0.181345v 3.2478h 0.181345v 4.12986h 0.181345v -3.30375h 0.181345v -2.35532h 0.181345v 5.14108h
 0.181345v 11.645h 0.181345v -2.04027h 0.181345v 4.3956h 0.181345v -6.19525h 0.181345v 19.5719h 0.181345v -18.6985h 0.181345v 13.5574h 0.181345v -2.04027h 0.181345v -4.86577h 0.181345v 12.0471h 0.181345v -7.18136h 0.36269v 14.9864h 0.181345v 6.19525h
 0.181345v -19.1414h 0.181345v -3.83992h 0.181345v 22.9813h 0.181345v -16.7861h 0.181345v 6.19525h 0.181345v -6.19525h 0.181345v -2.35532h 0.181345v 5.14108h 0.181345v 7.80509h 0.181345v -7.80509h 0.181345v 3.40949h 0.36269v 4.3956h 0.181345v
 -4.3956h 0.181345v -10.5908h 0.181345v 21.1817h 0.181345v -16.7861h 0.181345v 10.5908h 0.181345v -4.3956h 0.181345v 4.3956h 0.181345v 6.19525h 0.181345v -14.0003h 0.181345v 7.80509h 0.36269v 16.7861h 0.36269v -21.1817h 0.181345v -3.40949h 0.181345v
 7.80509h 0.181345v -7.80509h 0.181345v 7.80509h 0.181345v -10.5908h 0.181345v 16.7861h 0.181345v -10.5908h 0.181345v 10.5908h 0.181345v -14.0003h 0.36269v 14.0003h 0.181345v -10.5908h 0.181345v 21.1817h 0.181345v -31.7725h 0.181345v 14.9864h
 0.725379v 16.7861h 0.181345v -24.5912h 0.36269v 24.5912h 0.181345v -16.7861h 0.181345v -10.5908h 0.181345v -2.35532h 0.181345v 8.55057h 0.181345v -3.40949h 0.36269v 24.5912h 0.181345v -29.7323h 0.181345v 8.55057h 0.181345v -3.40949h 0.181345v
 -2.78576h 0.181345v 6.19525h 0.181345v 10.5908h 0.181345v -6.19525h 0.181345v 16.7861h 0.36269v -31.7725h 0.181345v 10.5908h 0.181345v -8.55057h 0.181345v 5.14108h 0.181345v -14.5996h 0.181345v 7.41825h 0.181345v -1.79965h 0.181345v 3.83992h
 0.181345v -3.83992h 0.181345v 6.19525h 0.181345v -6.19525h 0.181345v -1.60984h 0.181345v 1.60984h 0.181345v 6.19525h 0.181345v -14.9864h 0.181345v 7.18136h 0.36269v -5.14108h 0.181345v 6.75092h 0.181345v -3.06612h 0.181345v -7.52473h 0.181345v
 3.83992h 0.181345v -3.83992h 0.181345v 0.873344h 0.181345v 5.3219h 0.36269v -7.80509h 0.181345v -3.40949h 0.181345v 6.81898h 0.181345v 0.986107h 0.181345v -3.61187h 0.181345v 3.61187h 0.181345v -0.986107h 0.181345v -0.926306h 0.181345v -3.22867h
 0.181345v -2.66401h 0.181345v 8.85926h 0.36269v 6.75092h 0.181345v -9.7175h 0.181345v 4.0989h 0.181345v 7.41825h 0.181345v -10.5908h 0.181345v 5.72508h 0.181345v -1.32948h 0.181345v 10.5908h 0.181345v -7.80509h 0.181345v 3.40949h 0.181345v 4.3956h
 0.181345v -2.35532h 0.181345v 2.35532h 0.181345v -2.35532h 0.181345v 5.14108h 0.181345v -5.14108h 0.181345v 29.7323h 0.181345v -16.7861h 0.181345v -14.9864h 0.181345v 2.04027h 0.181345v 19.1414h 0.181345v -6.19525h 0.181345v -16.7861h 0.181345v
 12.3905h 0.181345v 4.3956h 0.181345v -10.5908h 0.181345v 2.78576h 0.181345v 24.5912h 0.181345v -16.7861h 0.181345v 16.7861h 0.181345v -16.7861h 0.181345v 16.7861h 0.181345v -16.7861h 0.36269v -7.80509h 0.181345v -2.78576h 0.181345v 6.19525h 0.36269v
 -3.40949h 0.181345v 7.80509h 0.181345v 6.19525h 0.181345v 21.1817h 0.181345v -10.5908h 0.181345v -10.5908h 0.181345v -6.19525h 0.181345v -7.80509h 0.36269v 7.80509h 0.181345v 16.7861h 0.181345v -16.7861h 0.181345v 6.19525h 0.36269v -10.5908h
 0.36269v 4.3956h 0.544034v -12.9462h 0.181345v 8.55057h 0.181345v 4.3956h 0.36269v 6.19525h 0.181345v -14.0003h 0.181345v 7.80509h 0.181345v 16.7861h 0.181345v -21.1817h 0.181345v -3.40949h 0.181345v 14.0003h 0.181345v -6.19525h 0.181345v 6.19525h
 0.36269v -10.5908h 0.181345v -6.19525h 0.181345v 6.19525h 0.181345v -6.19525h 0.181345v 2.78576h 0.181345v 3.40949h 0.181345v 4.3956h 0.181345v 16.7861h 0.181345v -16.7861h 0.181345v 6.19525h 0.181345v -14.0003h 0.181345v -8.981h 0.181345v 22.9813h
 0.181345v -24.5912h 0.181345v 14.0003h 0.36269v -3.40949h 0.181345v -5.14108h 0.181345v 2.35532h 0.181345v 2.78576h 0.181345v -2.78576h 0.181345v -10.5908h 0.181345v 2.78576h 0.181345v 7.80509h 0.181345v 2.78576h 0.181345v -7.18136h 0.181345v
 10.5908h 0.181345v -6.19525h 0.181345v -9.26137h 0.181345v 9.26137h 0.36269v 10.5908h 0.181345v -10.5908h 0.181345v 6.19525h 0.181345v -10.5908h 0.181345v 4.3956h 0.181345v -2.35532h 0.181345v -9.45852h 0.181345v 11.8138h 0.181345v 6.19525h
 0.181345v -6.19525h 0.181345v 6.19525h 0.181345v 10.5908h 0.181345v -19.1414h 0.181345v 5.14108h 0.181345v 7.80509h 0.181345v -12.9462h 0.36269v -3.83992h 0.181345v 12.3905h 0.181345v 4.3956h 0.181345v -7.80509h 0.181345v 7.80509h 0.181345v
 -10.5908h 0.181345v 6.19525h 0.181345v 21.1817h 0.181345v -29.7323h 0.181345v 5.14108h 0.181345v 7.80509h 0.181345v -7.80509h 0.181345v -7.18136h 0.181345v 10.5908h 0.181345v 21.1817h 0.36269v -10.5908h 0.36269v -10.5908h 0.181345v -6.19525h
 0.181345v 27.3769h 0.181345v -16.7861h 0.181345v -12.9462h 0.181345v 8.55057h 0.181345v 21.1817h 0.181345v -27.3769h 0.181345v 10.5908h 0.36269v -10.5908h 0.181345v 2.78576h 0.36269v 7.80509h 0.181345v -12.9462h 0.181345v 12.9462h 0.181345v -4.3956h
 0.181345v 10.5908h 0.181345v -21.1817h 0.36269v 10.5908h 0.181345v -10.5908h 0.181345v 7.18136h 0.181345v 14.0003h 0.181345v -19.1414h 0.181345v 12.9462h 0.181345v -14.9864h 0.181345v 7.18136h 0.181345v -2.78576h 0.36269v 6.19525h 0.36269v 4.3956h
 0.181345v -4.3956h 0.181345v -15.4566h 0.181345v 4.86577h 0.181345v 2.04027h 0.181345v 8.55057h 0.181345v 10.5908h 0.181345v -6.19525h 0.181345v -7.80509h 0.181345v 3.40949h 0.181345v 10.5908h 0.181345v -14.0003h 0.181345v -2.78576h 0.181345v
 2.78576h 0.181345v -7.18136h 0.181345v -3.40949h 0.181345v 24.5912h 0.181345v -24.5912h 0.36269v 7.80509h 0.181345v -9.26137h 0.181345v 26.0475h 0.181345v -16.7861h 0.36269v 6.19525h 0.181345v 4.3956h 0.181345v -7.80509h 0.181345v -7.18136h
 0.181345v 4.3956h 0.181345v 2.78576h 0.181345v 3.40949h 0.181345v -3.40949h 0.181345v -7.18136h 0.181345v 7.18136h 0.36269v -10.5908h 0.181345v 3.40949h 0.181345v 14.9864h 0.181345v -19.8522h 0.181345v 4.86577h 0.181345v -6.19525h 0.181345v 1.32948h
 0.181345v -3.6848h 0.181345v 15.7319h 0.181345v -13.3766h 0.181345v 4.3956h 0.181345v 6.19525h 0.181345v -4.3956h 0.36269v -7.41825h 0.181345v 1.223h 0.181345v 8.23552h 0.181345v 2.35532h 0.181345v -2.35532h 0.36269v -2.04027h 0.181345v -3.40949h
 0.181345v 7.80509h 0.181345v -10.5908h 0.181345v 8.23552h 0.181345v -3.83992h 0.181345v 1.79965h 0.181345v 4.3956h 0.181345v 2.78576h 0.181345v 7.80509h 0.181345v -23.537h 0.181345v 5.14108h 0.181345v 1.60984h 0.181345v -3.06612h 0.181345v 15.4566h
 0.181345v -12.3905h 0.181345v -4.3956h 0.181345v -3.40949h 0.181345v 11.645h 0.181345v -10.5908h 0.181345v 1.13232h 0.181345v -4.0989h 0.181345v 4.0989h 0.181345v -1.13232h 0.181345v 2.35532h 0.181345v -1.223h 0.181345v 1.223h 0.181345v 10.5908h
 0.181345v -11.8138h 0.181345v 9.45852h 0.181345v -10.5908h 0.181345v -1.05417h 0.181345v 3.40949h 0.181345v 1.32948h 0.181345v -7.52473h 0.181345v 6.19525h 0.36269v -7.02136h 0.181345v 8.35084h 0.181345v -9.88005h 0.181345v 11.3363h 0.181345v
 -6.19525h 0.181345v 2.18649h 0.181345v 9.45852h 0.181345v -2.04027h 0.181345v -8.55057h 0.181345v -5.44977h 0.181345v 16.0406h 0.181345v -14.4308h 0.181345v 10.5908h 0.181345v -7.80509h 0.181345v 2.18649h 0.181345v -5.79836h 0.181345v 7.02136h
 0.36269v -2.35532h 0.181345v 1.13232h 0.181345v 1.223h 0.181345v 2.78576h 0.181345v 1.60984h 0.181345v -6.75092h 0.181345v -3.83992h 0.181345v 2.78576h 0.181345v 4.73897h 0.36269v -10.5908h 0.181345v 10.5908h 0.36269v -2.55248h 0.181345v 4.00876h
 0.181345v -13.3766h 0.181345v -1.223h 0.181345v 4.79249h 0.181345v 4.66604h 0.181345v 3.6848h 0.181345v -6.65138h 0.181345v -3.93946h 0.181345v 5.85188h 0.181345v 2.18649h 0.181345v -3.1726h 0.181345v -4.15497h 0.181345v 4.15497h 0.181345v -10.5908h
 0.181345v 2.59595h 0.181345v 3.83992h 0.181345v -2.04027h 0.181345v 8.23552h 0.181345v -8.85926h 0.181345v 0.623734h 0.181345v 1.32948h 0.181345v -4.22098h 0.181345v 3.54178h 0.181345v 6.53107h 0.181345v -7.80509h 0.181345v 3.40949h 0.181345v
 0.783729h 0.181345v -2.9192h 0.181345v 1.38999h 0.181345v 6.19525h 0.181345v -5.44977h 0.181345v 3.40949h 0.181345v -4.86577h 0.181345v 1.45628h 0.181345v -2.13547h 0.181345v 3.74531h 0.181345v -3.06612h 0.181345v 3.93946h 0.181345v -5.26894h
 0.181345v 4.3956h 0.36269v 3.83992h 0.181345v -1.05417h 0.181345v -4.3956h 0.181345v 3.40949h 0.181345v 0.986107h 0.181345v 4.73897h 0.36269v 1.45628h 0.181345v -8.10766h 0.181345v 1.91241h 0.181345v -2.78576h 0.181345v -0.826113h 0.181345v 5.79836h
 0.181345v -4.97225h 0.181345v 2.78576h 0.181345v -4.3956h 0.181345v -1.45628h 0.181345v 3.06612h 0.181345v 3.83992h 0.36269v 2.35532h 0.36269v 1.32948h 0.181345v -6.65138h 0.181345v 1.91241h 0.181345v 1.05417h 0.181345v 3.6848h 0.181345v -7.52473h
 0.181345v 3.83992h 0.181345v 12.9462h 0.181345v -9.26137h 0.181345v -5.72508h 0.181345v 0.986107h 0.181345v 1.05417h 0.181345v 1.13232h 0.181345v -6.58209h 0.181345v 5.44977h 0.181345v 6.75092h 0.181345v 3.83992h 0.181345v -15.2569h 0.181345v
 7.02136h 0.181345v 1.32948h 0.181345v 9.26137h 0.181345v -11.8138h 0.181345v -1.13232h 0.181345v 3.6848h 0.181345v -4.73897h 0.181345v 1.05417h 0.181345v 6.75092h 0.181345v -13.657h 0.181345v 1.45628h 0.181345v 4.3956h 0.181345v 1.05417h 0.181345v
 3.6848h 0.181345v -4.73897h 0.181345v 9.60474h 0.181345v -9.60474h 0.181345v 6.19525h 0.181345v 1.60984h 0.181345v -5.6186h 0.181345v -4.0989h 0.181345v 8.10766h 0.181345v -2.78576h 0.36269v 1.32948h 0.181345v -6.65138h 0.181345v 2.96658h 0.181345v
 15.7319h 0.181345v -18.6985h 0.181345v 18.6985h 0.181345v -7.18136h 0.36269v -1.79965h 0.181345v 1.79965h 0.181345v -1.79965h 0.181345v -4.3956h 0.181345v 10.5908h 0.181345v -12.9462h 0.181345v 8.55057h 0.36269v -10.5908h 0.181345v 10.5908h
 0.181345v -4.86577h 0.181345v -1.32948h 0.181345v 8.23552h 0.181345v -2.04027h 0.181345v -6.19525h 0.36269v -1.223h 0.181345v -2.18649h 0.181345v 7.80509h 0.181345v -5.6186h 0.181345v 2.55248h 0.181345v 3.06612h 0.181345v -5.6186h 0.181345v 1.223h
 0.181345v -4.3956h 0.181345v 5.72508h 0.181345v 1.45628h 0.36269v -2.78576h 0.181345v -1.223h 0.181345v -4.0989h 0.181345v 8.10766h 0.181345v -6.19525h 0.181345v 4.73897h 0.36269v -9.88005h 0.181345v 7.32757h 0.181345v 2.55248h 0.181345v -1.32948h
 0.181345v -5.3219h 0.181345v 6.65138h 0.181345v -1.32948h 0.181345v -6.19525h 0.181345v 12.3905h 0.181345v -11.5172h 0.181345v 6.65138h 0.181345v -1.32948h 0.36269v 4.3956h 0.181345v -8.7912h 0.181345v 4.3956h 0.181345v -8.55057h 0.181345v 6.19525h
 0.181345v -2.04027h 0.181345v 3.1726h 0.181345v 1.223h 0.181345v -9.26137h 0.181345v 15.4566h 0.181345v -4.86577h 0.181345v 1.45628h 0.181345v 3.40949h 0.181345v -3.40949h 0.181345v -8.981h 0.181345v 1.79965h 0.181345v 5.72508h 0.181345v -1.32948h
 0.181345v -7.80509h 0.181345v 4.3956h 0.181345v -1.91241h 0.181345v 5.3219h 0.181345v -3.40949h 0.181345v 11.645h 0.181345v -13.5574h 0.181345v 8.10766h 0.181345v -4.00876h 0.181345v 1.223h 0.181345v -8.55057h 0.181345v 5.14108h 0.181345v 6.19525h
 0.181345v -1.45628h 0.36269v -7.52473h 0.181345v 6.19525h 0.181345v -8.55057h 0.181345v 8.55057h 0.181345v -2.35532h 0.181345v 5.14108h 0.181345v -8.10766h 0.181345v -2.48319h 0.181345v 4.3956h 0.181345v -1.91241h 0.181345v 1.91241h 0.181345v
 -0.986107h 0.181345v 8.7912h 0.181345v -9.7175h 0.181345v -2.48319h 0.36269v 5.44977h 0.181345v -2.96658h 0.181345v 6.65138h 0.181345v -4.73897h 0.181345v -0.986107h 0.181345v 7.18136h 0.181345v -5.14108h 0.181345v -7.58524h 0.181345v 16.1358h
 0.181345v -12.3905h 0.181345v -5.6186h 0.181345v 1.87329h 0.181345v 3.74531h 0.181345v -1.60984h 0.181345v -0.745483h 0.181345v 8.55057h 0.181345v -8.55057h 0.181345v 1.52921h 0.181345v 0.826113h 0.181345v -1.60984h 0.181345v -2.78576h 0.181345v
 7.18136h 0.181345v 1.05417h 0.181345v -2.96658h 0.181345v 1.91241h 0.181345v 3.40949h 0.181345v -6.19525h 0.181345v 4.97225h 0.181345v -10.5908h 0.181345v 6.49194h 0.181345v 1.91241h 0.181345v 4.73897h 0.181345v -1.32948h 0.181345v -2.35532h
 0.181345v 6.75092h 0.181345v -7.80509h 0.181345v -0.986107h 0.36269v 5.72508h 0.181345v -3.6848h 0.181345v 3.6848h 0.181345v -4.73897h 0.181345v 1.05417h 0.181345v 1.13232h 0.181345v 1.223h 0.181345v 2.78576h 0.181345v -7.18136h 0.181345v 7.18136h
 0.181345v -4.00876h 0.181345v 5.6186h 0.181345v -8.7912h 0.181345v 8.7912h 0.181345v -6.75092h 0.544034v 3.6848h 0.181345v -9.13457h 0.181345v 5.44977h 0.181345v 10.5908h 0.181345v -8.23552h 0.181345v -3.40949h 0.181345v -2.78576h 0.181345v 1.79965h
 0.181345v -3.40949h 0.181345v 14.0003h 0.181345v -6.19525h 0.181345v 4.3956h 0.181345v -7.80509h 0.181345v -0.986107h 0.181345v 10.5908h 0.181345v -14.0003h 0.181345v 12.2007h 0.181345v -4.3956h 0.181345v 4.3956h 0.181345v -1.60984h 0.181345v
 -6.19525h 0.181345v 4.73897h 0.181345v -3.6848h 0.181345v 2.35532h 0.36269v 1.32948h 0.181345v 4.86577h 0.181345v -9.60474h 0.181345v 1.05417h 0.181345v 6.75092h 0.181345v -6.75092h 0.181345v -6.19525h 0.181345v 8.55057h 0.181345v 2.78576h 0.181345v
 -8.981h 0.181345v 7.52473h 0.181345v -4.73897h 0.181345v 1.05417h 0.181345v -2.96658h 0.181345v 6.65138h 0.181345v -8.35084h 0.181345v 8.35084h 0.181345v 9.26137h 0.181345v -7.80509h 0.544034v 1.60984h 0.181345v 8.981h 0.181345v -7.18136h 0.181345v
 -6.19525h 0.181345v 6.19525h 0.181345v -4.86577h 0.181345v 3.06612h 0.181345v -1.60984h 0.181345v 7.80509h 0.181345v -12.9462h 0.181345v 5.14108h 0.181345v 3.40949h 0.181345v 7.18136h 0.181345v -10.5908h 0.181345v 7.80509h 0.36269v -7.80509h
 0.544034v -4.00876h 0.181345v 11.8138h 0.36269v -4.3956h 0.181345v 2.04027h 0.181345v 5.14108h 0.36269v -2.78576h 0.181345v 6.19525h 0.181345v -3.40949h 0.181345v -10.5908h 0.181345v 10.5908h 0.181345v -8.981h 0.181345v 6.19525h 0.181345v 6.19525h
 0.181345v -12.3905h 0.181345v 1.79965h 0.181345v -3.40949h 0.181345v 5.44977h 0.181345v 5.14108h 0.181345v -13.3766h 0.181345v 10.5908h 0.544034v -4.3956h 0.181345v -7.41825h 0.181345v 7.41825h 0.181345v -1.79965h 0.181345v 3.83992h 0.181345v
 -5.44977h 0.181345v 1.60984h 0.181345v 8.981h 0.181345v -2.78576h 0.181345v -4.3956h 0.181345v 2.04027h 0.181345v -5.44977h 0.181345v 5.44977h 0.181345v -2.04027h 0.181345v 14.9864h 0.181345v -4.3956h 0.181345v -3.40949h 0.36269v -7.18136h 0.181345v
 10.5908h 0.181345v 4.3956h 0.181345v -18.3959h 0.544034v 18.3959h 0.181345v -14.9864h 0.181345v 14.9864h 0.181345v -14.9864h 0.181345v 7.18136h 0.181345v -7.18136h 0.181345v 4.3956h 0.181345v 2.78576h 0.181345v -5.14108h 0.181345v -3.83992h
 0.181345v 1.79965h 0.181345v 7.18136h 0.181345v 3.40949h 0.181345v -3.40949h 0.181345v -7.18136h 0.181345v 2.04027h 0.36269v 8.55057h 0.36269v -3.40949h 0.181345v -12.0471h 0.181345v 9.26137h 0.181345v -7.80509h 0.181345v 1.60984h 0.181345v 12.3905h
 0.181345v -10.5908h 0.181345v -4.86577h 0.181345v 1.45628h 0.181345v 3.40949h 0.181345v -3.40949h 0.181345v 5.44977h 0.181345v -2.04027h 0.181345v -3.40949h 0.36269v 5.44977h 0.181345v -2.04027h 0.181345v 21.1817h 0.181345v -16.7861h 0.181345v
 -6.19525h 0.181345v 1.79965h 0.181345v 4.3956h 0.36269v -7.80509h 0.181345v 5.44977h 0.181345v 12.9462h 0.181345v -14.9864h 0.181345v 21.1817h 0.181345v -6.19525h 0.181345v -10.5908h 0.181345v -4.3956h 0.181345v 7.18136h 0.181345v -2.78576h
 0.181345v -10.5908h 0.181345v 10.5908h 0.181345v -7.80509h 0.181345v 10.5908h 0.181345v -10.5908h 0.181345v 7.80509h 0.181345v -2.35532h 0.181345v 5.14108h 0.181345v -10.5908h 0.181345v 14.0003h 0.181345v -16.7861h 0.181345v 27.3769h 0.181345v
 -24.5912h 0.36269v -5.14108h 0.181345v 3.6848h 0.181345v 3.06612h 0.181345v 1.79965h 0.181345v -6.19525h 0.181345v 6.19525h 0.181345v 2.04027h 0.181345v -13.5574h 0.181345v 18.6985h 0.181345v -7.18136h 0.181345v 14.9864h 0.181345v -12.9462h
 0.181345v -2.04027h 0.181345v -4.86577h 0.181345v 4.86577h 0.181345v -3.40949h 0.181345v 1.60984h 0.181345v 3.83992h 0.181345v -2.04027h 0.181345v -6.19525h 0.36269v 4.3956h 0.181345v 6.19525h 0.181345v -10.5908h 0.181345v -1.223h 0.181345v 2.55248h
 0.36269v 3.06612h 0.181345v -5.6186h 0.181345v -2.18649h 0.181345v 3.40949h 0.36269v -3.40949h 0.181345v 24.5912h 0.181345v -22.4047h 0.181345v 9.45852h 0.181345v -3.83992h 0.181345v 1.79965h 0.181345v -4.86577h 0.181345v 1.45628h 0.181345v
 -6.19525h 0.181345v 9.60474h 0.181345v -8.55057h 0.181345v 5.14108h 0.181345v 5.44977h 0.181345v -5.44977h 0.181345v -2.78576h 0.181345v 2.78576h 0.181345v -6.19525h 0.181345v 3.40949h 0.181345v -7.80509h 0.181345v 9.13457h 0.181345v 1.45628h
 0.181345v -2.78576h 0.181345v 2.78576h 0.181345v -6.19525h 0.181345v 7.80509h 0.181345v 6.19525h 0.181345v -10.5908h 0.181345v 4.3956h 0.181345v -5.6186h 0.181345v 4.00876h 0.181345v -6.19525h 0.181345v -4.3956h 0.181345v 10.5908h 0.181345v
 -2.78576h 0.181345v -3.40949h 0.181345v 4.73897h 0.181345v -4.73897h 0.181345v 6.19525h 0.181345v -9.80712h 0.181345v 8.35084h 0.181345v -2.55248h 0.181345v 2.55248h 0.181345v 1.45628h 0.181345v -7.18136h 0.181345v 8.7912h 0.181345v -6.75092h
 0.36269v -3.83992h 0.181345v 6.19525h 0.181345v -3.40949h 0.181345v 4.73897h 0.181345v 19.8522h 0.181345v -14.9864h 0.181345v -1.79965h 0.181345v -5.6186h 0.181345v -2.18649h 0.181345v 7.80509h 0.36269v 1.79965h 0.181345v 2.04027h 0.36269v -6.90604h
 0.36269v 3.06612h 0.544034v 1.79965h 0.181345v -6.19525h 0.181345v 16.7861h 0.36269v -12.3905h 0.181345v 1.79965h 0.181345v 7.18136h 0.725379v -2.78576h 0.181345v 37.9678h 0.181345v -37.9678h 0.181345v 6.19525h 0.181345v 4.3956h 0.181345v -14.9864h
 0.181345v 7.18136h 0.36269v 7.80509h 0.181345v -4.3956h 0.181345v 10.5908h 0.36269v -10.5908h 0.181345v 10.5908h 0.181345v -10.5908h 0.544034v 21.1817h 0.181345v -24.5912h 0.181345v 24.5912h 0.181345v -10.5908h 0.36269v 10.5908h 0.181345v 10.5908h
 0.36269v -21.1817h 0.181345v 10.5908h 0.36269v -10.5908h 0.181345v 21.1817h 0.181345v -10.5908h 0.181345v 10.5908h 0.181345v -10.5908h 0.181345v 10.5908h 0.181345v -10.5908h 0.36269v 10.5908h 0.181345v -10.5908h 0.36269v -10.5908h 0.36269v 21.1817h
 0.725379v -21.1817h 0.181345v 21.1817h 0.36269v -10.5908h 0.544034v 10.5908h 0.181345v -21.1817h 0.181345v 10.5908h 0.36269v 10.5908h 0.181345v -35.182h 0.181345v 35.182h 0.544034v -10.5908h 0.181345v -16.7861h 0.181345v 16.7861h 0.181345v 10.5908h
 0.181345v -21.1817h 0.181345v 21.1817h 0.36269v -10.5908h 0.181345v -16.7861h 0.181345v 16.7861h 0.181345v 10.5908h 0.36269v -10.5908h 0.36269v 10.5908h 0.725379v -21.1817h 0.181345v 21.1817h 0.181345v -10.5908h 0.181345v 10.5908h 0.36269v -31.7725h
 0.181345v 21.1817h 0.181345v -10.5908h 0.181345v 21.1817h 0.181345v -27.3769h 0.181345v 16.7861h 0.181345v -10.5908h 0.181345v 21.1817h 0.181345v -21.1817h 0.36269v 10.5908h 0.36269v 10.5908h 0.36269v -37.9678h 0.181345v 6.19525h 0.181345v 21.1817h
 0.36269v 10.5908h 0.181345v -21.1817h 0.36269v -14.0003h 0.181345v 24.5912h 0.36269v -10.5908h 0.181345v 10.5908h 0.181345v -10.5908h 0.36269v 21.1817h 0.36269v -21.1817h 0.181345v 21.1817h 0.36269v -10.5908h 0.36269v -10.5908h 0.181345v 21.1817h
 0.181345v -21.1817h 0.181345v 21.1817h 0.181345v -21.1817h 0.181345v 21.1817h 0.725379v -10.5908h 0.181345v 10.5908h 0.181345v -35.182h 0.181345v 35.182h 0.36269v -10.5908h 0.544034v -10.5908h 0.181345v 21.1817h 0.181345v -10.5908h 0.181345v
 10.5908h 0.181345v -10.5908h 0.36269v -10.5908h 0.181345v 10.5908h 0.181345v 10.5908h 0.181345v -10.5908h 0.181345v -10.5908h 0.181345v 21.1817h 0.36269v -10.5908h 0.725379v -10.5908h 0.36269v 10.5908h 0.544034v 10.5908h 0.544034v -10.5908h
 0.181345v 10.5908h 0.181345v -27.3769h 0.181345v 16.7861h 0.181345v -16.7861h 0.36269v 6.19525h 0.36269v 10.5908h 0.36269v 10.5908h 0.181345v -21.1817h 0.181345v 21.1817h 0.544034v -27.3769h 0.181345v 27.3769h 0.906724v -10.5908h 0.181345v -10.5908h
 0.181345v 10.5908h 0.181345v 10.5908h 0.36269v -10.5908h 0.181345v 10.5908h 0.181345v -10.5908h 0.181345v 10.5908h 0.36269v -21.1817h 0.181345v 21.1817h 0.181345v -10.5908h 0.181345v -10.5908h 0.36269v 21.1817h 0.36269v -10.5908h 0.181345v 10.5908h
 0.181345v -21.1817h 0.181345v 21.1817h 0.36269v -10.5908h 0.181345v 10.5908h 0.36269v -21.1817h 0.181345v 21.1817h 1.81345v -10.5908h 0.181345v -10.5908h 0.181345v 21.1817h 0.181345v -21.1817h 0.181345v 10.5908h 0.181345v 10.5908h 0.181345v
 -10.5908h 0.181345v 10.5908h 0.181345v -10.5908h 0.181345v 10.5908h 0.906724v -10.5908h 0.181345v -10.5908h 0.36269v 10.5908h 0.181345v 10.5908h 0.181345v -10.5908h 0.181345v 10.5908h 0.181345v -21.1817h 0.181345v 21.1817h 0.36269v -10.5908h
 0.181345v 10.5908h 0.544034v -21.1817h 0.181345v 10.5908h 0.544034v -10.5908h 0.181345v 10.5908h 0.36269v -16.7861h 0.36269v 27.3769h 0.36269v -10.5908h 0.36269v -10.5908h 0.544034v 10.5908h 0.181345v 10.5908h 0.181345v -10.5908h 0.36269v -10.5908h
 0.36269v 21.1817h 0.181345v -10.5908h 0.36269v 10.5908h 0.181345v -10.5908h 0.181345v 10.5908h 0.181345v -21.1817h 0.181345v 10.5908h 0.544034v -10.5908h 0.181345v 10.5908h 0.181345v 10.5908h 0.181345v -10.5908h 0.181345v 10.5908h 0.181345v
 -10.5908h 0.36269v -10.5908h 0.36269" fill="none" stroke="black"/>
<path d="M57.1929,280.151h 453.543" fill="none" stroke="black"/>
<path d="M57.1929,272.68v 7.47068" fill="none" stroke="black"/>
<path d="M75.3318,276.415v 3.73534" fill="none" stroke="black"/>
<path d="M93.4707,276.415v 3.73534" fill="none" stroke="black"/>
<path d="M111.61,276.415v 3.73534" fill="none" stroke="black"/>
<path d="M129.749,276.415v 3.73534" fill="none" stroke="black"/>
<path d="M147.887,272.68v 7.47068" fill="none" stroke="black"/>
<path d="M166.026,276.415v 3.73534" fill="none" stroke="black"/>
<path d="M184.165,276.415v 3.73534" fill="none" stroke="black"/>
<path d="M202.304,276.415v 3.73534" fill="none" stroke="black"/>
<path d="M220.443,276.415v 3.73534" fill="none" stroke="black"/>
<path d="M238.582,272.68v 7.47068" fill="none" stroke="black"/>
<path d="M256.721,276.415v 3.73534" fill="none" stroke="black"/>
<path d="M274.86,276.415v 3.73534" fill="none" stroke="black"/>
<path d="M292.999,276.415v 3.73534" fill="none" stroke="black"/>
<path d="M311.138,276.415v 3.73534" fill="none" stroke="black"/>
<path d="M329.277,272.68v 7.47068" fill="none" stroke="black"/>
<path d="M347.415,276.415v 3.73534" fill="none" stroke="black"/>
<path d="M365.554,276.415v 3.73534" fill="none" stroke="black"/>
<path d="M383.693,276.415v 3.73534" fill="none" stroke="black"/>
<path d="M401.832,276.415v 3.73534" fill="none" stroke="black"/>
<path d="M419.971,272.68v 7.47068" fill="none" stroke="black"/>
<path d="M438.11,276.415v 3.73534" fill="none" stroke="black"/>
<path d="M456.249,276.415v 3.73534" fill="none" stroke="black"/>
<path d="M474.388,276.415v 3.73534" fill="none" stroke="black"/>
<path d="M492.527,276.415v 3.73534" fill="none" stroke="black"/>
<path d="M510.666,272.68v 7.47068" fill="none" stroke="black"/>
<path d="M510.666,272.68v 7.47068" fill="none" stroke="black"/>
<text xml:space="preserve" x="54.3523" y="290.27" fill="black" font-size="10.4952" font-family="Helvetica">0</text>
<text xml:space="preserve" x="139.569" y="290.27" fill="black" font-size="10.4952" font-family="Helvetica">500</text>
<text xml:space="preserve" x="227.449" y="290.27" fill="black" font-size="10.4952" font-family="Helvetica">1000</text>
<text xml:space="preserve" x="318.288" y="290.27" fill="black" font-size="10.4952" font-family="Helvetica">1500</text>
<text xml:space="preserve" x="408.831" y="290.27" fill="black" font-size="10.4952" font-family="Helvetica">2000</text>
<text xml:space="preserve" x="499.67" y="290.27" fill="black" font-size="10.4952" font-family="Helvetica">2500</text>
<text xml:space="preserve" x="265.323" y="301.218" fill="black" font-size="10.4952" font-family="Helvetica">Channel</text>
<path d="M57.1929,280.151v -249.023" fill="none" stroke="black"/>
<path d="M63.9961,280.151h -6.80315" fill="none" stroke="black"/>
<path d="M63.9961,277.365h -6.80315" fill="none" stroke="black"/>
<path d="M63.9961,275.009h -6.80315" fill="none" stroke="black"/>
<path d="M63.9961,272.969h -6.80315" fill="none" stroke="black"/>
<path d="M63.9961,271.17h -6.80315" fill="none" stroke="black"/>
<path d="M70.7992,269.56h -13.6063" fill="none" stroke="black"/>
<text xml:space="preserve" x="49.0263" y="273.404" fill="black" font-size="10.4952" font-family="Helvetica">1</text>
<path d="M63.9961,258.969h -6.80315" fill="none" stroke="black"/>
<path d="M63.9961,252.774h -6.80315" fill="none" stroke="black"/>
<path d="M63.9961,248.378h -6.80315" fill="none" stroke="black"/>
<path d="M63.9961,244.969h -6.80315" fill="none" stroke="black"/>
<path d="M63.9961,242.183h -6.80315" fill="none" stroke="black"/>
<path d="M63.9961,239.827h -6.80315" fill="none" stroke="black"/>
<path d="M63.9961,237.787h -6.80315" fill="none" stroke="black"/>
<path d="M63.9961,235.988h -6.80315" fill="none" stroke="black"/>
<path d="M70.7992,234.378h -13.6063" fill="none" stroke="black"/>
<text xml:space="preserve" x="41.629" y="238.193" fill="black" font-size="10.4952" font-family="Helvetica">10</text>
<path d="M63.9961,223.787h -6.80315" fill="none" stroke="black"/>
<path d="M63.9961,217.592h -6.80315" fill="none" stroke="black"/>
<path d="M63.9961,213.196h -6.80315" fill="none" stroke="black"/>
<path d="M63.9961,209.786h -6.80315" fill="none" stroke="black"/>
<path d="M63.9961,207.001h -6.80315" fill="none" stroke="black"/>
<path d="M63.9961,204.645h -6.80315" fill="none" stroke="black"/>
<path d="M63.9961,202.605h -6.80315" fill="none" stroke="black"/>
<path d="M63.9961,200.805h -6.80315" fill="none" stroke="black"/>
<path d="M70.7992,199.196h -13.6063" fill="none" stroke="black"/>
<text xml:space="preserve" x="49.0263" y="199.431" fill="black" font-size="7.16345" font-family="Helvetica">2</text>
<text xml:space="preserve" x="38.0783" y="203.87" fill="black" font-size="10.4952" font-family="Helvetica">10</text>
<path d="M63.9961,188.605h -6.80315" fill="none" stroke="black"/>
<path d="M63.9961,182.41h -6.80315" fill="none" stroke="black"/>
<path d="M63.9961,178.014h -6.80315" fill="none" stroke="black"/>
<path d="M63.9961,174.604h -6.80315" fill="none" stroke="black"/>
<path d="M63.9961,171.819h -6.80315" fill="none" stroke="black"/>
<path d="M63.9961,169.463h -6.80315" fill="none" stroke="black"/>
<path d="M63.9961,167.423h -6.80315" fill="none" stroke="black"/>
<path d="M63.9961,165.623h -6.80315" fill="none" stroke="black"/>
<path d="M70.7992,164.014h -13.6063" fill="none" stroke="black"/>
<text xml:space="preserve" x="49.0263" y="163.924" fill="black" font-size="7.16345" font-family="Helvetica">3</text>
<text xml:space="preserve" x="38.0783" y="168.658" fill="black" font-size="10.4952" font-family="Helvetica">10</text>
<path d="M63.9961,153.423h -6.80315" fill="none" stroke="black"/>
<path d="M63.9961,147.228h -6.80315" fill="none" stroke="black"/>
<path d="M63.9961,142.832h -6.80315" fill="none" stroke="black"/>
<path d="M63.9961,139.422h -6.80315" fill="none" stroke="black"/>
<path d="M63.9961,136.637h -6.80315" fill="none" stroke="black"/>
<path d="M63.9961,134.281h -6.80315" fill="none" stroke="black"/>
<path d="M63.9961,132.241h -6.80315" fill="none" stroke="black"/>
<path d="M63.9961,130.441h -6.80315" fill="none" stroke="black"/>
<path d="M70.7992,128.832h -13.6063" fill="none" stroke="black"/>
<text xml:space="preserve" x="49.0263" y="129.009" fill="black" font-size="7.16345" font-family="Helvetica">4</text>
<text xml:space="preserve" x="38.0783" y="133.447" fill="black" font-size="10.4952" font-family="Helvetica">10</text>
<path d="M63.9961,118.241h -6.80315" fill="none" stroke="black"/>
<path d="M63.9961,112.046h -6.80315" fill="none" stroke="black"/>
<path d="M63.9961,107.65h -6.80315" fill="none" stroke="black"/>
<path d="M63.9961,104.24h -6.80315" fill="none" stroke="black"/>
<path d="M63.9961,101.455h -6.80315" fill="none" stroke="black"/>
<path d="M63.9961,99.0993h -6.80315" fill="none" stroke="black"/>
<path d="M63.9961,97.0591h -6.80315" fill="none" stroke="black"/>
<path d="M63.9961,95.2594h -6.80315" fill="none" stroke="black"/>
<path d="M70.7992,93.6496h -13.6063" fill="none" stroke="black"/>
<text xml:space="preserve" x="49.0263" y="93.5019" fill="black" font-size="7.16345" font-family="Helvetica">5</text>
<text xml:space="preserve" x="38.0783" y="98.2362" fill="black" font-size="10.4952" font-family="Helvetica">10</text>
<path d="M63.9961,83.0587h -6.80315" fill="none" stroke="black"/>
<path d="M63.9961,76.8635h -6.80315" fill="none" stroke="black"/>
<path d="M63.9961,72.4679h -6.80315" fill="none" stroke="black"/>
<path d="M63.9961,69.0584h -6.80315" fill="none" stroke="black"/>
<path d="M63.9961,66.2726h -6.80315" fill="none" stroke="black"/>
<path d="M63.9961,63.9173h -6.80315" fill="none" stroke="black"/>
<path d="M63.9961,61.877h -6.80315" fill="none" stroke="black"/>
<path d="M63.9961,60.0774h -6.80315" fill="none" stroke="black"/>
<path d="M70.7992,58.4675h -13.6063" fill="none" stroke="black"/>
<text xml:space="preserve" x="49.0263" y="58.2907" fill="black" font-size="7.16345" font-family="Helvetica">6</text>
<text xml:space="preserve" x="38.0783" y="63.025" fill="black" font-size="10.4952" font-family="Helvetica">10</text>
<path d="M63.9961,47.8767h -6.80315" fill="none" stroke="black"/>
<path d="M63.9961,41.6814h -6.80315" fill="none" stroke="black"/>
<path d="M63.9961,37.2859h -6.80315" fill="none" stroke="black"/>
<path d="M63.9961,33.8764h -6.80315" fill="none" stroke="black"/>
<g transform="rotate(-90,26.5385,191.442)">
<text xml:space="preserve" x="26.5385" y="191.442" fill="black" font-size="10.4952" font-family="Helvetica">Counts/Channel</text>
</g>
<text xml:space="preserve" x="404.097" y="58.2907" fill="black" font-size="14.7788" font-family="Helvetica" font-weight="bold"> = 2.4879 MeV</text>
<text xml:space="preserve" x="398.179" y="61.5455" fill="black" font-size="10.0192" font-family="Helvetica" font-weight="bold">p</text>
<text xml:space="preserve" x="389.006" y="58.2907" fill="black" font-size="14.7788" font-family="Helvetica" font-weight="bold">E</text>
<path d="M262.163,162.557v 26.4746" fill="none" stroke="black"/>
<path d="M264.454,189.032l -2.29122, 3.9685l -2.29122, -3.9685z" fill="black"/>
<path d="M264.454,189.032l -2.29122, 3.9685l -2.29122, -3.9685h 4.58243z" fill="none" stroke="black"/>
<text xml:space="preserve" x="266.803" y="160.373" fill="black" font-size="10.4952" font-family="Helvetica" font-weight="bold">_1 	1.369 MeV</text>
<text xml:space="preserve" x="260.293" y="160.373" fill="black" font-size="10.4952" font-family="Times">&#0945;</text>
<path d="M184.528,128.832v 31.2135" fill="none" stroke="black"/>
<path d="M186.819,160.045l -2.29122, 3.9685l -2.29122, -3.9685z" fill="black"/>
<path d="M186.819,160.045l -2.29122, 3.9685l -2.29122, -3.9685h 4.58243z" fill="none" stroke="black"/>
<text xml:space="preserve" x="172.117" y="125.754" fill="black" font-size="10.4952" font-family="Helvetica" font-weight="bold"># p_1 	0.844 MeV</text>
<path d="M210.104,147.228v 12.8176" fill="none" stroke="black"/>
<path d="M212.395,160.045l -2.29122, 3.9685l -2.29122, -3.9685z" fill="black"/>
<path d="M212.395,160.045l -2.29122, 3.9685l -2.29122, -3.9685h 4.58243z" fill="none" stroke="black"/>
<text xml:space="preserve" x="197.564" y="142.62" fill="black" font-size="10.4952" font-family="Helvetica" font-weight="bold"># p_2 	1.015 MeV</text>
<path d="M497.472,269.56h 13.1934" fill="none" stroke="black"/>
<path d="M504.069,258.969h 6.59669" fill="none" stroke="black"/>
<path d="M504.069,252.774h 6.59669" fill="none" stroke="black"/>
<path d="M504.069,248.378h 6.59669" fill="none" stroke="black"/>
<path d="M504.069,244.969h 6.59669" fill="none" stroke="black"/>
<path d="M504.069,242.183h 6.59669" fill="none" stroke="black"/>
<path d="M504.069,239.827h 6.59669" fill="none" stroke="black"/>
<path d="M504.069,237.787h 6.59669" fill="none" stroke="black"/>
<path d="M504.069,235.988h 6.59669" fill="none" stroke="black"/>
<path d="M497.472,234.378h 13.1934" fill="none" stroke="black"/>
<path d="M504.069,223.787h 6.59669" fill="none" stroke="black"/>
<path d="M504.069,217.592h 6.59669" fill="none" stroke="black"/>
<path d="M504.069,213.196h 6.59669" fill="none" stroke="black"/>
<path d="M504.069,209.786h 6.59669" fill="none" stroke="black"/>
<path d="M504.069,207.001h 6.59669" fill="none" stroke="black"/>
<path d="M504.069,204.645h 6.59669" fill="none" stroke="black"/>
<path d="M504.069,202.605h 6.59669" fill="none" stroke="black"/>
<path d="M504.069,200.805h 6.59669" fill="none" stroke="black"/>
<path d="M497.472,199.196h 13.1934" fill="none" stroke="black"/>
<path d="M504.069,188.605h 6.59669" fill="none" stroke="black"/>
<path d="M504.069,182.41h 6.59669" fill="none" stroke="black"/>
<path d="M504.069,178.014h 6.59669" fill="none" stroke="black"/>
<path d="M504.069,174.604h 6.59669" fill="none" stroke="black"/>
<path d="M504.069,171.819h 6.59669" fill="none" stroke="black"/>
<path d="M504.069,169.463h 6.59669" fill="none" stroke="black"/>
<path d="M504.069,167.423h 6.59669" fill="none" stroke="black"/>
<path d="M504.069,165.623h 6.59669" fill="none" stroke="black"/>
<path d="M497.472,164.014h 13.1934" fill="none" stroke="black"/>
<path d="M504.069,153.423h 6.59669" fill="none" stroke="black"/>
<path d="M504.069,147.228h 6.59669" fill="none" stroke="black"/>
<path d="M504.069,142.832h 6.59669" fill="none" stroke="black"/>
<path d="M504.069,139.422h 6.59669" fill="none" stroke="black"/>
<path d="M504.069,136.637h 6.59669" fill="none" stroke="black"/>
<path d="M504.069,134.281h 6.59669" fill="none" stroke="black"/>
<path d="M504.069,132.241h 6.59669" fill="none" stroke="black"/>
<path d="M504.069,130.441h 6.59669" fill="none" stroke="black"/>
<path d="M497.472,128.832h 13.1934" fill="none" stroke="black"/>
<path d="M504.069,118.241h 6.59669" fill="none" stroke="black"/>
<path d="M504.069,112.045h 6.59669" fill="none" stroke="black"/>
<path d="M504.069,107.65h 6.59669" fill="none" stroke="black"/>
<path d="M504.069,104.24h 6.59669" fill="none" stroke="black"/>
<path d="M504.069,101.455h 6.59669" fill="none" stroke="black"/>
<path d="M504.069,99.0993h 6.59669" fill="none" stroke="black"/>
<path d="M504.069,97.0591h 6.59669" fill="none" stroke="black"/>
<path d="M504.069,95.2594h 6.59669" fill="none" stroke="black"/>
<path d="M497.472,93.6496h 13.1934" fill="none" stroke="black"/>
<path d="M504.069,83.0587h 6.59669" fill="none" stroke="black"/>
<path d="M504.069,76.8635h 6.59669" fill="none" stroke="black"/>
<path d="M504.069,72.4679h 6.59669" fill="none" stroke="black"/>
<path d="M504.069,69.0584h 6.59669" fill="none" stroke="black"/>
<path d="M504.069,66.2726h 6.59669" fill="none" stroke="black"/>
<path d="M504.069,63.9173h 6.59669" fill="none" stroke="black"/>
<path d="M504.069,61.877h 6.59669" fill="none" stroke="black"/>
<path d="M504.069,60.0774h 6.59669" fill="none" stroke="black"/>
<path d="M497.472,58.4675h 13.1934" fill="none" stroke="black"/>
<path d="M504.069,47.8767h 6.59669" fill="none" stroke="black"/>
<path d="M504.069,41.6814h 6.59669" fill="none" stroke="black"/>
<path d="M504.069,37.2859h 6.59669" fill="none" stroke="black"/>
<path d="M504.069,33.8764h 6.59669" fill="none" stroke="black"/>
<path d="M504.069,31.0906h 6.59669" fill="none" stroke="black"/>
<path d="M504.069,28.7353h 6.59669" fill="none" stroke="black"/>
<path d="M57.1929,35.5636v -7.46952" fill="none" stroke="black"/>
<path d="M75.3318,35.5636v -7.46952" fill="none" stroke="black"/>
<path d="M93.4707,35.5636v -7.46952" fill="none" stroke="black"/>
<path d="M111.61,35.5636v -7.46952" fill="none" stroke="black"/>
<path d="M129.749,35.5636v -7.46952" fill="none" stroke="black"/>
<path d="M147.887,35.5636v -7.46952" fill="none" stroke="black"/>
<path d="M166.026,35.5636v -7.46952" fill="none" stroke="black"/>
<path d="M184.165,35.5636v -7.46952" fill="none" stroke="black"/>
<path d="M202.304,35.5636v -7.46952" fill="none" stroke="black"/>
<path d="M220.443,35.5636v -7.46952" fill="none" stroke="black"/>
<path d="M238.582,35.5636v -7.46952" fill="none" stroke="black"/>
<path d="M256.721,35.5636v -7.46952" fill="none" stroke="black"/>
<path d="M274.86,35.5636v -7.46952" fill="none" stroke="black"/>
<path d="M292.999,35.5636v -7.46952" fill="none" stroke="black"/>
<path d="M311.138,35.5636v -7.46952" fill="none" stroke="black"/>
<path d="M329.277,35.5636v -7.46952" fill="none" stroke="black"/>
<path d="M347.415,35.5636v -7.46952" fill="none" stroke="black"/>
<path d="M365.554,35.5636v -7.46952" fill="none" stroke="black"/>
<path d="M383.693,35.5636v -7.46952" fill="none" stroke="black"/>
<path d="M401.832,35.5636v -7.46952" fill="none" stroke="black"/>
<path d="M419.971,35.5636v -7.46952" fill="none" stroke="black"/>
<path d="M438.11,35.5636v -7.46952" fill="none" stroke="black"/>
<path d="M456.249,35.5636v -7.46952" fill="none" stroke="black"/>
<path d="M474.388,35.5636v -7.46952" fill="none" stroke="black"/>
<path d="M492.527,35.5636v -7.46952" fill="none" stroke="black"/>
<path d="M510.666,35.5636v -7.46952" fill="none" stroke="black"/></svg>
