<?xml version="1.0" standalone="no"?>
<svg width="567.429" height="311.778" viewBox="0 0 567.429 311.778" xmlns="http://www.w3.org/2000/svg" shape-rendering="crispEdges">
<title>
Yields/P1/run_0106/det9_Fit.svg
</title>
<desc>
Creator: ROOT Version 6.12/06
CreationDate: Mon Apr 15 10:29:02 2019</desc>
<defs>
</defs>
<rect x="0.5" y="0" width="566.929" height="311.278" fill="white"/>
<rect x="57.1929" y="31.1278" width="453.543" height="249.023" fill="white"/>
<rect x="57.1929" y="31.1278" width="453.543" height="249.023" fill="none" stroke="black"/>
<path d="M57.1929,40.8884h 0.181345v 239.262h 1.45076v -10.5864h 0.181345v 10.5864h 0.725379v -10.5864h 0.181345v 10.5864h 15.777v -10.5864h 0.181345v 10.5864h 3.26421v -10.5864h 0.181345v 10.5864h 0.181345v -10.5864h 0.181345v 10.5864h 2.17614v
 -10.5864h 0.181345v 10.5864h 3.6269v -10.5864h 0.181345v 10.5864h 0.181345v -10.5864h 0.181345v 10.5864h 0.544034v -10.5864h 0.181345v 10.5864h 1.45076v -27.3653h 0.181345v 16.779h 0.36269v 10.5864h 0.181345v -40.306h 0.181345v -12.6258h 0.181345v
 -6.81609h 0.181345v -14.5934h 0.181345v -7.75471h 0.181345v -11.0735h 0.181345v -3.7467h 0.181345v -4.79045h 0.181345v -1.94612h 0.181345v -1.25692h 0.181345v -1.51041h 0.181345v -1.00186h 0.181345v -0.787436h 0.181345v -0.821722h 0.181345v
 -0.848712h 0.181345v 0.161375h 0.181345v -0.25283h 0.181345v -1.20494h 0.181345v -1.292h 0.181345v 0.43191h 0.181345v -0.870761h 0.181345v 0.771522h 0.181345v -0.6961h 0.181345v 0.77544h 0.181345v -1.01921h 0.181345v 0.0372509h 0.181345v 0.20652h
 0.181345v -0.262363h 0.181345v 0.0185915h 0.181345v 0.959667h 0.181345v -1.01537h 0.181345v -0.0923952h 0.181345v 0.185353h 0.181345v -0.459231h 0.181345v -0.861911h 0.181345v 0.682016h 0.181345v 0.307094h 0.181345v -1.05737h 0.181345v -0.0170171h
 0.181345v 0.965294h 0.181345v -0.777054h 0.181345v 0.0172283h 0.181345v -0.374604h 0.181345v 0.49575h 0.181345v -0.42832h 0.181345v 0.922745h 0.181345v -0.44221h 0.181345v 0.175351h 0.181345v -0.314196h 0.181345v 0.527309h 0.181345v -0.561825h
 0.181345v 1.03403h 0.181345v 0.449235h 0.181345v 0.268288h 0.181345v -0.0578884h 0.181345v 0.0578884h 0.181345v -0.531945h 0.181345v -0.550103h 0.181345v -1.55684h 0.181345v -0.064922h 0.181345v -4.21863h 0.181345v -2.20439h 0.181345v -2.42406h
 0.181345v -3.30059h 0.181345v -3.30093h 0.181345v -2.39886h 0.181345v -3.87796h 0.181345v -1.8824h 0.181345v -2.02127h 0.181345v -1.16701h 0.181345v -0.585429h 0.181345v 0.596641h 0.181345v 0.577158h 0.181345v 0.945945h 0.181345v 1.86603h 0.181345v
 3.07649h 0.181345v 3.74682h 0.181345v 3.04173h 0.181345v 4.30716h 0.181345v 4.88253h 0.181345v 4.48747h 0.181345v 2.59606h 0.181345v 3.12956h 0.181345v 2.61424h 0.181345v 1.08198h 0.181345v 1.16451h 0.181345v 0.464863h 0.181345v 1.52324h 0.181345v
 -0.331632h 0.181345v 1.09543h 0.181345v -0.838124h 0.181345v 2.57838h 0.181345v -1.81838h 0.181345v 0.275194h 0.181345v -0.314106h 0.181345v 0.234972h 0.181345v 0.977798h 0.181345v -0.61842h 0.181345v -0.671878h 0.181345v 1.33243h 0.181345v
 -1.40957h 0.181345v 1.83741h 0.181345v -0.802909h 0.181345v 0.673294h 0.181345v -1.23902h 0.181345v 1.71975h 0.181345v -0.480731h 0.181345v 1.8258h 0.181345v -2.86517h 0.181345v 2.06239h 0.181345v -2.38059h 0.181345v 1.8383h 0.181345v 0.588362h
 0.181345v -0.764929h 0.181345v -0.728438h 0.181345v 0.424274h 0.181345v 2.57097h 0.181345v -3.28537h 0.181345v 1.28419h 0.181345v -0.177594h 0.181345v 2.0268h 0.181345v -0.928877h 0.181345v 0.878555h 0.181345v 0.772823h 0.181345v 1.67389h 0.181345v
 -0.578587h 0.181345v 0.171286h 0.181345v -2.87046h 0.181345v 3.16028h 0.181345v -2.2789h 0.181345v 1.31517h 0.181345v 0.277192h 0.181345v 1.22248h 0.181345v -0.710495h 0.181345v 0.410428h 0.181345v -0.866369h 0.181345v 1.47252h 0.181345v -2.18556h
 0.181345v 1.11125h 0.181345v -1.27117h 0.181345v 0.705445h 0.181345v 1.702h 0.181345v -1.53447h 0.181345v 3.03366h 0.181345v -1.92771h 0.181345v 1.25774h 0.181345v -3.55158h 0.181345v 2.17358h 0.181345v 0.610997h 0.181345v 0.50703h 0.181345v
 -1.1778h 0.181345v 0.180036h 0.181345v 0.243398h 0.181345v 1.61598h 0.181345v -0.925913h 0.181345v 0.258869h 0.181345v 1.15194h 0.181345v -1.15194h 0.181345v -0.576404h 0.181345v 0.189728h 0.181345v 0.127807h 0.181345v -0.751277h 0.181345v 2.23263h
 0.181345v -0.487104h 0.181345v -1.31178h 0.181345v 1.38043h 0.181345v -1.38043h 0.181345v 1.44938h 0.181345v -1.13184h 0.181345v 1.41081h 0.181345v -1.79106h 0.181345v 0.969007h 0.181345v -0.906284h 0.181345v 2.82233h 0.181345v -1.71465h 0.181345v
 0.204095h 0.181345v -1.05829h 0.181345v -0.378686h 0.181345v -1.08278h 0.181345v -0.115704h 0.181345v -1.79248h 0.181345v -0.943991h 0.181345v -0.0481036h 0.181345v -0.285483h 0.181345v -0.140765h 0.181345v -2.01019h 0.181345v 1.73249h 0.181345v
 -0.890799h 0.181345v -1.52238h 0.181345v 3.55561h 0.181345v -2.66881h 0.181345v 1.3894h 0.181345v -0.753822h 0.181345v 3.05521h 0.181345v -0.365522h 0.181345v 1.01323h 0.181345v 1.68901h 0.181345v 0.374048h 0.181345v -0.125703h 0.181345v 1.23814h
 0.181345v 0.694341h 0.181345v 0.727418h 0.181345v -2.78458h 0.181345v 2.41654h 0.181345v -0.144768h 0.181345v 1.67333h 0.181345v -1.30881h 0.181345v 0.525409h 0.181345v 0.945016h 0.181345v -0.161619h 0.181345v -0.318197h 0.181345v 0.0789298h
 0.181345v 1.75937h 0.181345v -2.15h 0.181345v 0.791518h 0.36269v 0.834791h 0.181345v -1.47125h 0.181345v 0.474843h 0.181345v -0.552568h 0.181345v 0.959869h 0.181345v -0.407301h 0.181345v -1.45566h 0.181345v 1.13746h 0.181345v -0.990609h 0.181345v
 1.79889h 0.181345v -0.808278h 0.181345v -0.388644h 0.181345v 0.388644h 0.181345v -0.311702h 0.181345v -0.455941h 0.181345v 0.610997h 0.181345v 1.21599h 0.181345v -1.82699h 0.181345v 1.24746h 0.181345v 2.94792h 0.181345v -4.04491h 0.181345v 0.61717h
 0.181345v -0.916648h 0.181345v -0.0739608h 0.181345v 2.39126h 0.181345v -2.75579h 0.181345v -1.11125h 0.181345v -1.16052h 0.181345v 1.63678h 0.181345v -1.06754h 0.181345v -2.54644h 0.181345v 1.36864h 0.181345v 1.90365h 0.36269v -1.10769h 0.181345v
 0.253498h 0.181345v 0.388315h 0.181345v 0.197923h 0.181345v 1.60916h 0.181345v 1.06954h 0.181345v -2.13801h 0.181345v -0.869151h 0.181345v 4.15727h 0.181345v 0.171607h 0.181345v -0.675154h 0.181345v -0.407301h 0.181345v -1.30881h 0.181345v 2.82891h
 0.181345v 0.914817h 0.181345v -0.1874h 0.181345v -2.16693h 0.181345v 1.17542h 0.181345v 0.898664h 0.181345v -0.81114h 0.181345v -1.18192h 0.181345v 1.35848h 0.181345v 1.29666h 0.181345v -1.991h 0.181345v -1.5326h 0.181345v 0.546914h 0.181345v
 0.0797541h 0.181345v 1.07658h 0.181345v -0.170649h 0.181345v 0.0850859h 0.181345v 0.0855626h 0.181345v -1.07658h 0.181345v 1.95966h 0.181345v 0.275194h 0.181345v -0.455941h 0.181345v 0.642198h 0.181345v -1.17195h 0.181345v -1.00737h 0.181345v
 0.749229h 0.181345v 2.59801h 0.181345v -2.16532h 0.181345v 1.28111h 0.181345v -1.19308h 0.181345v -0.774566h 0.181345v -1.66779h 0.181345v 2.0072h 0.181345v -0.339411h 0.181345v -0.576404h 0.181345v 1.89007h 0.181345v -1.89007h 0.181345v 0.576404h
 0.181345v 0.863104h 0.181345v -2.53089h 0.181345v 2.53089h 0.181345v -0.264091h 0.181345v 0.532829h 0.181345v -1.04769h 0.181345v -0.498073h 0.181345v 3.16497h 0.181345v -3.96061h 0.181345v 1.20957h 0.181345v -0.576404h 0.181345v 0.745166h 0.181345v
 -0.0846145h 0.181345v -0.579528h 0.181345v 0.664143h 0.181345v -0.0846145h 0.181345v 1.04769h 0.181345v -0.706386h 0.181345v -1.24238h 0.181345v 2.40745h 0.181345v -2.16693h 0.181345v -0.477316h 0.181345v 3.02137h 0.181345v -0.835807h 0.181345v
 -1.62722h 0.181345v -2.81163h 0.181345v 3.22332h 0.36269v 1.03585h 0.181345v -3.77864h 0.181345v 0.640914h 0.181345v 2.52497h 0.181345v 0.259602h 0.181345v -1.09439h 0.181345v -0.321546h 0.181345v 0.733239h 0.181345v -0.0832312h 0.181345v 0.678907h
 0.181345v 0.529748h 0.181345v -0.529748h 0.181345v -0.42784h 0.181345v -0.167836h 0.181345v 1.48908h 0.181345v 0.948931h 0.181345v -1.13184h 0.181345v -2.11875h 0.181345v 3.64731h 0.181345v -2.58228h 0.181345v 1.05372h 0.181345v 0.461451h 0.181345v
 0.5728h 0.181345v -0.94307h 0.181345v -1.22952h 0.181345v 1.78834h 0.181345v 0.287273h 0.181345v -2.81676h 0.181345v 3.61034h 0.181345v -1.17542h 0.181345v 0.285483h 0.181345v 0.487993h 0.181345v 2.23906h 0.181345v -0.673913h 0.181345v 1.86771h
 0.181345v -1.07853h 0.181345v -2.05387h 0.181345v -0.979366h 0.181345v 3.26641h 0.181345v -2.5875h 0.181345v 2.0111h 0.181345v -1.19635h 0.181345v 0.860672h 0.181345v -0.650008h 0.181345v 2.65783h 0.181345v -2.97274h 0.181345v 1.30061h 0.181345v
 -0.224605h 0.181345v 1.27833h 0.181345v 0.368039h 0.181345v 0.124677h 0.181345v -1.88212h 0.181345v 3.05253h 0.181345v -3.80823h 0.181345v 0.535946h 0.36269v 0.898664h 0.181345v 1.97344h 0.181345v -0.770224h 0.181345v 0.770224h 0.181345v -0.131098h
 0.181345v -3.58971h 0.181345v 1.17955h 0.181345v 2.94145h 0.181345v -2.25748h 0.181345v 1.08707h 0.181345v -0.371019h 0.181345v -2.2668h 0.181345v 3.01808h 0.181345v 0.389967h 0.181345v 0.132234h 0.181345v -1.6357h 0.181345v 2.3146h 0.181345v
 -2.07408h 0.181345v 1.39517h 0.181345v -1.51591h 0.181345v 1.6493h 0.181345v -1.40687h 0.181345v 0.371019h 0.181345v -0.613451h 0.181345v 1.25258h 0.181345v -0.639126h 0.181345v 0.902458h 0.181345v 0.540689h 0.181345v -1.93586h 0.181345v 0.244371h
 0.181345v -0.60375h 0.181345v 2.15826h 0.181345v -1.91962h 0.181345v 0.120735h 0.181345v 4.80322h 0.181345v -5.04374h 0.181345v 1.6357h 0.181345v 0.267952h 0.181345v -1.17041h 0.181345v 1.86161h 0.181345v -3.40805h 0.181345v 2.58228h 0.181345v
 -1.6493h 0.181345v -0.705027h 0.181345v 1.07013h 0.36269v -1.74405h 0.181345v 3.1628h 0.181345v -0.790153h 0.181345v 2.96532h 0.181345v 0.964924h 0.181345v -3.14009h 0.181345v -0.790153h 0.181345v 1.62343h 0.181345v -1.36456h 0.181345v 1.22248h
 0.181345v -0.418461h 0.181345v 0.418461h 0.181345v -1.22248h 0.181345v -2.29828h 0.181345v 2.82956h 0.181345v 0.550434h 0.181345v 1.62474h 0.181345v -2.83644h 0.181345v -1.00186h 0.181345v 0.121697h 0.181345v 0.880163h 0.181345v 0.934004h 0.181345v
 -3.1023h 0.181345v 1.65915h 0.181345v -0.970033h 0.181345v -0.576404h 0.181345v 2.31666h 0.181345v -0.644521h 0.181345v 0.776755h 0.181345v 1.10123h 0.181345v -0.833273h 0.181345v -1.04471h 0.181345v 0.254554h 0.181345v -2.80595h 0.181345v 2.42569h
 0.181345v -0.124677h 0.181345v 2.12836h 0.181345v -0.142074h 0.181345v 1.48397h 0.181345v -5.11662h 0.181345v 1.5227h 0.181345v -0.244371h 0.181345v -1.49968h 0.181345v -2.71115h 0.181345v 4.70354h 0.181345v -4.14128h 0.181345v 3.52783h 0.181345v
 -3.23875h 0.181345v 0.294663h 0.181345v -2.03941h 0.181345v -0.595675h 0.181345v 0.423099h 0.181345v 1.72399h 0.181345v -0.37947h 0.181345v -2.01597h 0.181345v 1.55452h 0.181345v -0.447917h 0.181345v -1.26995h 0.181345v 2.0859h 0.181345v 0.1874h
 0.181345v -1.52407h 0.181345v 0.877994h 0.181345v 1.51905h 0.181345v -0.966961h 0.181345v -0.37027h 0.181345v 0.37027h 0.181345v 1.06711h 0.181345v -2.06451h 0.181345v 1.86486h 0.181345v -0.487993h 0.181345v 0.788453h 0.181345v 1.48603h 0.181345v
 -1.88535h 0.181345v 1.12426h 0.181345v -3.40805h 0.181345v 3.30235h 0.181345v -0.720067h 0.181345v -1.43738h 0.181345v 1.63967h 0.181345v -3.52974h 0.181345v -0.0805959h 0.181345v -0.935367h 0.181345v -1.78208h 0.181345v -0.332756h 0.181345v
 -2.65234h 0.181345v -0.543576h 0.181345v -2.9967h 0.181345v -2.01195h 0.181345v -0.0767483h 0.181345v -1.28419h 0.181345v -2.10087h 0.181345v -1.51688h 0.181345v -1.48088h 0.181345v -1.73715h 0.181345v 0.737296h 0.181345v -1.63275h 0.181345v
 -0.64382h 0.181345v -0.0608886h 0.181345v -0.300854h 0.181345v 1.02679h 0.181345v 0.474619h 0.181345v -0.325198h 0.181345v 2.74173h 0.181345v -0.127807h 0.181345v 1.63747h 0.181345v 1.67542h 0.181345v 0.287273h 0.181345v 2.8621h 0.181345v 2.25748h
 0.181345v 0.691199h 0.181345v 1.79889h 0.181345v 0.929227h 0.181345v 3.96766h 0.181345v 0.444873h 0.181345v 1.41809h 0.181345v 2.12219h 0.181345v 0.678907h 0.181345v 0.401941h 0.181345v 1.1632h 0.181345v 1.1403h 0.181345v -0.694341h 0.181345v
 -0.112716h 0.181345v 3.38h 0.181345v -0.550434h 0.181345v -1.17041h 0.181345v 3.03703h 0.181345v -0.15197h 0.181345v 0.15197h 0.181345v -0.302443h 0.181345v -1.15322h 0.181345v 1.30369h 0.181345v 1.26033h 0.181345v -2.14171h 0.181345v 1.18684h
 0.181345v -1.88435h 0.181345v 3.85779h 0.181345v -1.34354h 0.181345v 0.161619h 0.181345v -1.09699h 0.181345v 0.935367h 0.181345v 0.656999h 0.36269v 1.96765h 0.181345v -3.71049h 0.181345v 0.302443h 0.181345v 1.10836h 0.36269v 0.332032h 0.181345v
 -0.656999h 0.181345v 0.324967h 0.181345v -1.85353h 0.181345v 2.52497h 0.181345v 2.01491h 0.181345v -1.66779h 0.181345v -1.66173h 0.181345v -3.37652h 0.181345v 2.75935h 0.181345v 0.460524h 0.181345v 0.474843h 0.181345v -0.783396h 0.181345v 4.80654h
 0.181345v -3.86152h 0.181345v -0.479816h 0.181345v -0.767643h 0.36269v 1.57592h 0.181345v -0.328462h 0.181345v 2.65514h 0.181345v -1.991h 0.181345v 0.170649h 0.181345v -1.93178h 0.181345v 4.5457h 0.181345v -3.44872h 0.181345v 0.834791h 0.181345v
 0.523693h 0.181345v 0.359378h 0.181345v -1.3894h 0.181345v 0.50633h 0.181345v -3.51066h 0.181345v 3.51066h 0.181345v -3.37369h 0.181345v 3.89738h 0.181345v -1.03002h 0.181345v -0.328462h 0.181345v 4.94516h 0.181345v -3.40805h 0.181345v -0.178632h
 0.181345v 1.29666h 0.181345v -0.569242h 0.181345v -2.56572h 0.181345v 2.75312h 0.181345v 0.381842h 0.181345v -1.11803h 0.181345v -2.32863h 0.181345v 4.65304h 0.181345v -0.207798h 0.181345v -4.59874h 0.181345v 1.4404h 0.181345v 2.95334h 0.181345v
 -3.77026h 0.181345v 2.22232h 0.181345v 0.75437h 0.181345v 0.391634h 0.181345v -0.960875h 0.181345v -1.07853h 0.181345v 1.07853h 0.181345v 3.3152h 0.181345v -2.5514h 0.181345v -0.763803h 0.181345v -1.25111h 0.181345v 0.702325h 0.181345v 3.63431h
 0.181345v -2.7084h 0.181345v 1.60916h 0.181345v -2.35433h 0.181345v 0.745166h 0.181345v -0.562255h 0.181345v 1.75295h 0.181345v -4.13354h 0.181345v 1.48718h 0.181345v 0.893406h 0.181345v -2.84579h 0.181345v -2.3979h 0.181345v 1.36456h 0.181345v
 -6.04921h 0.181345v -0.565727h 0.181345v -3.38952h 0.181345v 0.760002h 0.181345v -2.83644h 0.181345v -1.59621h 0.181345v -4.06971h 0.181345v -0.526703h 0.181345v -3.18203h 0.181345v 1.01374h 0.181345v -3.76324h 0.181345v -0.203448h 0.181345v
 -0.732788h 0.181345v -1.56782h 0.181345v -1.10166h 0.181345v -0.0461417h 0.181345v -0.0689522h 0.181345v -1.14821h 0.181345v 0.453363h 0.181345v 0.0438876h 0.181345v 1.37894h 0.181345v 0.365106h 0.181345v 1.2307h 0.181345v -0.0266775h 0.181345v
 3.42138h 0.181345v -0.524442h 0.181345v 1.73859h 0.181345v 2.50551h 0.181345v 2.34015h 0.181345v 0.919716h 0.181345v 0.645429h 0.181345v 4.87745h 0.181345v 0.460524h 0.181345v 0.717918h 0.181345v 4.53047h 0.181345v 1.49968h 0.181345v 3.07829h
 0.181345v 0.604946h 0.181345v 3.44666h 0.181345v -0.381842h 0.181345v -2.75312h 0.181345v 3.72624h 0.181345v 3.35789h 0.181345v 1.58136h 0.181345v -0.275194h 0.181345v -4.04896h 0.181345v 4.88988h 0.181345v -3.57997h 0.181345v 5.09338h 0.181345v
 -1.5134h 0.36269v 3.92085h 0.181345v -2.40745h 0.181345v -0.623469h 0.181345v 1.60916h 0.181345v 0.694341h 0.181345v 1.10454h 0.181345v -3.40805h 0.181345v 2.3035h 0.181345v -1.35848h 0.36269v 5.87107h 0.181345v -3.78517h 0.181345v -5.0321h
 0.181345v 4.66406h 0.181345v -2.03941h 0.181345v 1.68003h 0.181345v 0.359378h 0.181345v -0.710495h 0.181345v 4.86371h 0.181345v -2.62465h 0.181345v 2.15468h 0.181345v -4.39373h 0.181345v 4.39373h 0.181345v -4.73696h 0.181345v 3.40805h 0.181345v
 -1.60916h 0.181345v -4.29798h 0.181345v 1.5134h 0.181345v 2.40745h 0.181345v 0.377127h 0.181345v 1.1907h 0.181345v -1.56782h 0.181345v -0.727418h 0.181345v 1.88794h 0.181345v 1.25601h 0.181345v -6.04647h 0.181345v 0.599013h 0.181345v -3.03703h
 0.181345v 4.64618h 0.181345v 2.18556h 0.181345v -4.09716h 0.181345v 2.25483h 0.181345v 0.351116h 0.181345v -4.30468h 0.181345v 4.30468h 0.181345v 0.359378h 0.181345v -4.66406h 0.181345v 2.94619h 0.181345v -1.83495h 0.181345v 0.290921h 0.181345v
 6.04647h 0.181345v -5.1389h 0.181345v -0.907567h 0.181345v 0.599013h 0.181345v 1.60916h 0.181345v -2.20817h 0.181345v 1.22248h 0.181345v -1.79889h 0.181345v 0.576404h 0.36269v 2.90251h 0.181345v 1.88794h 0.181345v -8.88762h 0.181345v 4.69618h
 0.181345v 1.60916h 0.36269v -1.60916h 0.181345v -0.302443h 0.181345v 0.925913h 0.181345v 4.39373h 0.181345v -1.98629h 0.181345v 0.377127h 0.181345v 0.386676h 0.181345v -0.763803h 0.181345v 1.56782h 0.181345v -0.804021h 0.181345v -0.386676h 0.181345v
 -3.09949h 0.181345v 0.964924h 0.181345v 4.6167h 0.181345v -7.06559h 0.181345v 8.4764h 0.181345v -0.954866h 0.181345v -0.455941h 0.181345v -2.09546h 0.181345v -1.49122h 0.181345v 1.88794h 0.181345v -3.88289h 0.181345v 1.30061h 0.181345v -1.30061h
 0.181345v 2.35433h 0.181345v -2.66288h 0.181345v 2.66288h 0.181345v -0.710495h 0.181345v 0.710495h 0.181345v -3.26189h 0.181345v 5.19776h 0.181345v -2.98958h 0.181345v -0.335681h 0.181345v 5.54261h 0.181345v -6.19262h 0.181345v 4.39373h 0.181345v
 -1.60916h 0.181345v 2.48213h 0.181345v -0.872974h 0.181345v -1.22248h 0.181345v 1.65273h 0.181345v -2.78458h 0.181345v 0.745166h 0.181345v 0.386676h 0.181345v -0.386676h 0.181345v -2.13457h 0.181345v -0.328462h 0.181345v 5.4011h 0.181345v -1.32891h
 0.181345v -1.22248h 0.181345v -0.763803h 0.181345v 4.27007h 0.181345v -3.50626h 0.181345v 2.09546h 0.181345v -1.69874h 0.181345v 0.825762h 0.181345v 0.43025h 0.181345v 2.35433h 0.181345v -4.77086h 0.181345v 1.16052h 0.181345v 2.15468h 0.36269v
 -1.74738h 0.181345v -2.64636h 0.181345v 1.84234h 0.181345v 0.396721h 0.181345v -1.16052h 0.181345v -1.07853h 0.181345v 1.07853h 0.181345v 1.98629h 0.181345v -0.825762h 0.181345v 0.407301h 0.181345v -0.804021h 0.181345v 5.61622h 0.181345v -2.10995h
 0.181345v -2.28378h 0.181345v -3.06482h 0.181345v 2.23906h 0.181345v 1.25601h 0.181345v -3.49507h 0.181345v 4.86371h 0.181345v -4.15321h 0.181345v -1.3894h 0.181345v 1.75744h 0.181345v 0.763803h 0.181345v 0.804021h 0.181345v 7.94h 0.181345v
 -11.2653h 0.181345v 7.58202h 0.181345v -1.05372h 0.181345v -0.500795h 0.181345v -0.484894h 0.181345v -3.78517h 0.181345v 6.95642h 0.181345v -1.13184h 0.181345v -2.96532h 0.181345v 3.52076h 0.181345v -3.96348h 0.181345v 1.85353h 0.181345v -1.41081h
 0.181345v 9.71338h 0.181345v -7.80178h 0.181345v 3.40805h 0.181345v 3.56797h 0.181345v -2.91796h 0.181345v 1.3894h 0.181345v 1.52856h 0.181345v -5.9223h 0.181345v 3.68324h 0.181345v -3.1278h 0.36269v 0.576404h 0.181345v -2.18556h 0.181345v 1.60916h
 0.181345v 3.1278h 0.181345v -3.1278h 0.181345v -2.59485h 0.181345v 7.96171h 0.36269v -2.23906h 0.36269v 1.45566h 0.181345v 1.60916h 0.36269v 3.8383h 0.181345v -8.23203h 0.181345v 3.56797h 0.181345v -2.23906h 0.181345v 5.8494h 0.181345v -5.8494h
 0.181345v 6.90312h 0.181345v -5.44745h 0.181345v -2.78458h 0.181345v 6.19262h 0.181345v 2.03941h 0.181345v -6.19262h 0.181345v 5.1389h 0.181345v 1.05372h 0.181345v -6.19262h 0.181345v 7.32446h 0.181345v -3.17125h 0.181345v -4.86371h 0.181345v
 3.06482h 0.181345v 4.97014h 0.36269v -1.13184h 0.181345v -2.03941h 0.181345v 2.03941h 0.181345v -1.05372h 0.36269v -0.985689h 0.181345v 10.5864h 0.36269v -4.86371h 0.36269v 15.4501h 0.181345v -8.54695h 0.181345v -8.23203h 0.36269v -6.19262h
 0.181345v 14.4247h 0.181345v 5.1389h 0.181345v -13.3709h 0.181345v -4.39373h 0.36269v 3.17125h 0.181345v -2.18556h 0.181345v 1.05372h 0.181345v 5.1389h 0.181345v 5.44745h 0.181345v -5.44745h 0.181345v -1.45566h 0.544034v 1.45566h 0.181345v -2.78458h
 0.181345v -6.19262h 0.181345v 1.79889h 0.181345v 0.985689h 0.181345v -1.9116h 0.181345v 5.31965h 0.181345v -2.35433h 0.181345v -11.1223h 0.181345v -4.91151h 0.181345v 2.03941h 0.181345v 2.8721h 0.181345v -6.01605h 0.181345v -1.68003h 0.181345v
 2.78458h 0.181345v -2.46303h 0.181345v 2.84971h 0.181345v -8.93362h 0.181345v 3.68324h 0.181345v -0.81114h 0.181345v -0.261081h 0.181345v -1.47918h 0.36269v 3.40805h 0.181345v -1.40217h 0.181345v -1.28419h 0.36269v -0.721688h 0.181345v 2.83164h
 0.181345v -2.35433h 0.181345v 2.35433h 0.181345v 2.12043h 0.181345v 0.328462h 0.181345v 3.74373h 0.181345v -4.07219h 0.181345v 5.4011h 0.181345v 0.954866h 0.181345v -0.954866h 0.181345v 3.64122h 0.181345v -0.576404h 0.181345v -1.60916h 0.181345v
 11.6401h 0.181345v -2.96532h 0.181345v -0.872974h 0.181345v 0.872974h 0.181345v 4.09716h 0.181345v 5.61622h 0.181345v -10.5864h 0.36269v 6.19262h 0.181345v -3.40805h 0.181345v 4.73696h 0.181345v -1.32891h 0.181345v 16.779h 0.181345v -25.3259h
 0.181345v 16.779h 0.181345v -12.6258h 0.181345v 4.39373h 0.181345v 6.19262h 0.181345v -16.779h 0.181345v 7.17831h 0.181345v -12.498h 0.181345v 4.69618h 0.181345v -4.24024h 0.181345v 4.24024h 0.181345v -9.64134h 0.181345v 2.0859h 0.181345v 1.56782h
 0.181345v -8.12848h 0.181345v -0.710495h 0.36269v 1.20321h 0.181345v -4.70354h 0.181345v -0.363657h 0.181345v -1.53712h 0.181345v -4.83414h 0.181345v 3.14395h 0.181345v -4.50244h 0.181345v 1.96223h 0.181345v 1.41876h 0.181345v -2.37362h 0.181345v
 -1.53958h 0.181345v -1.68221h 0.181345v 1.47441h 0.181345v -1.84468h 0.181345v 0.653985h 0.181345v 0.583748h 0.181345v 1.13184h 0.181345v -0.212127h 0.181345v -2.33927h 0.181345v 0.931562h 0.181345v -0.65801h 0.181345v 1.75295h 0.181345v -2.20619h
 0.181345v 1.40217h 0.181345v -1.40217h 0.181345v 0.545518h 0.181345v -1.49768h 0.181345v -1.9658h 0.181345v 0.373439h 0.181345v -1.64692h 0.181345v 0.27396h 0.181345v 1.37296h 0.181345v -2.44049h 0.181345v 1.06754h 0.181345v -0.341689h 0.181345v
 -0.596414h 0.181345v -1.36678h 0.181345v -1.30909h 0.181345v 1.91524h 0.181345v 0.891171h 0.181345v -0.95288h 0.181345v 1.1508h 0.181345v 1.90718h 0.181345v -0.662542h 0.181345v 1.27661h 0.181345v -1.27661h 0.181345v 1.12076h 0.181345v 1.37833h
 0.181345v 1.79889h 0.181345v 1.39849h 0.181345v -0.104252h 0.181345v 4.42841h 0.36269v 3.40805h 0.181345v 0.174549h 0.181345v 1.66779h 0.181345v 5.9017h 0.181345v 0.889934h 0.181345v -2.00118h 0.181345v 3.27466h 0.181345v 2.13457h 0.181345v 3.89294h
 0.181345v 0.500795h 0.181345v 0.517774h 0.181345v 5.67485h 0.181345v -2.78458h 0.181345v -1.22248h 0.181345v 4.79045h 0.181345v 1.69874h 0.181345v 2.96532h 0.181345v 5.1389h 0.181345v -7.17831h 0.181345v 8.78747h 0.36269v -3.06482h 0.36269v 3.06482h
 0.181345v 1.79889h 0.36269v -1.79889h 0.181345v 1.79889h 0.181345v 4.39373h 0.181345v -11.8088h 0.181345v 18.0015h 0.181345v -8.54695h 0.181345v 5.1389h 0.181345v 35.1671h 0.181345v -40.306h 0.181345v -9.45451h 0.181345v 14.5934h 0.36269v 7.80178h
 0.181345v -14.9801h 0.181345v 21.1727h 0.181345v -6.19262h 0.181345v -7.80178h 0.181345v 7.80178h 0.181345v -12.9407h 0.181345v 29.7197h 0.181345v -24.5808h 0.181345v -5.1389h 0.181345v 19.1333h 0.181345v 21.1727h 0.181345v -35.1671h 0.181345v
 13.9944h 0.181345v 10.5864h 0.181345v -21.1727h 0.181345v -3.40805h 0.181345v 3.40805h 0.181345v 4.39373h 0.181345v 6.19262h 0.181345v -16.779h 0.181345v 10.5864h 0.181345v 6.19262h 0.36269v -19.1333h 0.181345v 29.7197h 0.181345v -27.3653h 0.181345v
 6.19262h 0.181345v 4.39373h 0.181345v -12.9407h 0.181345v 8.54695h 0.181345v 21.1727h 0.36269v -21.1727h 0.181345v -3.40805h 0.36269v 13.9944h 0.36269v -16.779h 0.181345v 6.19262h 0.36269v 4.39373h 0.181345v -4.39373h 0.36269v -3.40805h 0.181345v
 24.5808h 0.181345v -24.5808h 0.181345v 13.9944h 0.544034v -13.9944h 0.544034v -7.17831h 0.181345v 10.5864h 0.181345v 4.39373h 0.181345v -10.5864h 0.181345v 10.5864h 0.36269v -4.39373h 0.181345v -6.19262h 0.181345v 2.78458h 0.181345v -14.5934h
 0.181345v 18.0015h 0.181345v 21.1727h 0.181345v -35.1671h 0.181345v 1.60916h 0.181345v 1.79889h 0.181345v -7.4151h 0.544034v 1.22248h 0.544034v 6.19262h 0.181345v -16.129h 0.181345v 4.6167h 0.181345v -3.93779h 0.181345v 9.25744h 0.181345v -7.80178h
 0.181345v 0.783396h 0.181345v 3.61034h 0.181345v 2.18556h 0.181345v -4.97014h 0.181345v 6.19262h 0.181345v -11.2098h 0.181345v 6.81609h 0.181345v -2.62465h 0.181345v 1.69874h 0.181345v 4.09716h 0.181345v 1.22248h 0.181345v -5.31965h 0.181345v
 8.10422h 0.181345v -8.10422h 0.181345v 6.64856h 0.181345v 4.86371h 0.181345v 2.03941h 0.181345v -2.03941h 0.181345v 10.5864h 0.181345v 10.5864h 0.181345v -22.9716h 0.181345v 6.19262h 0.181345v 16.779h 0.181345v -10.5864h 0.181345v -12.3852h
 0.181345v 22.9716h 0.181345v -19.1333h 0.181345v 5.1389h 0.181345v 7.80178h 0.36269v 16.779h 0.181345v -27.3653h 0.181345v 10.5864h 0.36269v 6.19262h 0.181345v -10.5864h 0.181345v 31.7591h 0.181345v -10.5864h 0.181345v -10.5864h 0.181345v -19.1333h
 0.181345v 12.9407h 0.181345v 6.19262h 0.725379v -6.19262h 0.544034v 16.779h 0.181345v -10.5864h 0.181345v 10.5864h 0.181345v -24.5808h 0.181345v 24.5808h 0.181345v 10.5864h 0.181345v -31.7591h 0.181345v -3.40805h 0.181345v 24.5808h 0.181345v
 -16.779h 0.181345v 16.779h 0.181345v -10.5864h 0.181345v -10.5864h 0.181345v -6.19262h 0.181345v 6.19262h 0.181345v 21.1727h 0.181345v -24.5808h 0.181345v 24.5808h 0.181345v -24.5808h 0.181345v 13.9944h 0.181345v 10.5864h 0.181345v -27.3653h
 0.181345v 6.19262h 0.181345v 4.39373h 1.08807v -4.39373h 0.36269v -3.40805h 0.181345v 7.80178h 0.181345v -4.39373h 0.181345v 21.1727h 0.181345v -27.3653h 0.181345v 16.779h 0.36269v -21.1727h 0.181345v 31.7591h 0.181345v -24.5808h 0.181345v 3.40805h
 0.36269v -6.19262h 0.181345v 10.5864h 0.181345v 6.19262h 0.181345v -10.5864h 0.181345v -15.4501h 0.181345v 9.25744h 0.181345v 16.779h 0.181345v -21.1727h 0.181345v 10.5864h 0.181345v -8.54695h 0.181345v 5.1389h 0.36269v -7.17831h 0.181345v 21.1727h
 0.181345v -10.5864h 0.181345v -18.0015h 0.181345v 9.45451h 0.181345v -8.23203h 0.181345v 10.5864h 0.181345v 2.78458h 0.181345v -2.78458h 0.181345v -2.35433h 0.181345v 5.1389h 0.36269v -7.17831h 0.181345v 10.5864h 0.181345v -8.54695h 0.181345v
 -2.03941h 0.181345v -8.54695h 0.181345v 8.54695h 0.181345v -7.4151h 0.181345v 9.45451h 0.36269v -8.23203h 0.181345v 10.5864h 0.181345v -6.19262h 0.181345v -1.60916h 0.181345v 10.5864h 0.36269v -2.78458h 0.36269v -6.19262h 0.181345v 3.8383h 0.181345v
 5.1389h 0.181345v -5.1389h 0.181345v 8.54695h 0.181345v -3.40805h 0.181345v -2.78458h 0.181345v 10.5864h 0.181345v -7.80178h 0.181345v 7.80178h 0.181345v 6.19262h 0.181345v -21.1727h 0.181345v 21.1727h 0.181345v -6.19262h 0.181345v -10.5864h
 0.181345v 6.19262h 0.181345v 21.1727h 0.181345v -16.779h 0.181345v -4.39373h 0.181345v -6.19262h 0.181345v 27.3653h 0.181345v -31.7591h 0.36269v 7.17831h 0.181345v 13.9944h 0.181345v -19.1333h 0.181345v 19.1333h 0.181345v -6.19262h 0.36269v
 -10.5864h 0.36269v 10.5864h 0.36269v -12.9407h 0.181345v 5.1389h 0.36269v -2.78458h 0.36269v 16.779h 0.181345v -10.5864h 0.181345v 4.39373h 0.181345v -7.80178h 0.181345v 7.80178h 0.181345v -4.39373h 0.181345v -6.19262h 0.181345v 2.78458h 0.181345v
 -2.78458h 0.181345v -7.80178h 0.181345v 7.80178h 0.36269v -6.19262h 0.181345v 3.8383h 0.181345v -3.8383h 0.181345v 12.3852h 0.181345v -3.40805h 0.544034v -8.9772h 0.36269v 6.19262h 0.181345v -2.35433h 0.181345v -5.44745h 0.181345v 1.60916h 0.181345v
 1.79889h 0.181345v 7.17831h 0.181345v -5.1389h 0.181345v 12.9407h 0.181345v -4.39373h 0.181345v -12.3852h 0.36269v -11.4121h 0.181345v 13.211h 0.181345v 2.03941h 0.181345v -2.03941h 0.181345v -9.60067h 0.181345v 4.73696h 0.181345v 3.06482h 0.181345v
 8.9772h 0.181345v -13.3709h 0.181345v 6.19262h 0.181345v 10.5864h 0.181345v -3.40805h 0.181345v -7.17831h 0.181345v -4.86371h 0.181345v 6.90312h 0.181345v -6.90312h 0.181345v 3.06482h 0.181345v 3.8383h 0.181345v 5.1389h 0.181345v -16.779h 0.181345v
 16.779h 0.181345v -5.1389h 0.181345v -6.90312h 0.544034v -2.5514h 0.181345v 14.5934h 0.181345v -8.9772h 0.181345v 1.79889h 0.181345v -3.40805h 0.181345v 1.60916h 0.181345v -3.06482h 0.181345v -2.5514h 0.181345v 2.5514h 0.181345v 9.25744h 0.181345v
 -2.35433h 0.181345v 2.35433h 0.181345v -9.25744h 0.36269v 1.45566h 0.181345v 5.44745h 0.181345v -13.5517h 0.181345v 4.09716h 0.181345v 4.00706h 0.181345v 7.80178h 0.181345v -4.39373h 0.181345v -6.19262h 0.181345v -2.35433h 0.36269v 2.35433h
 0.181345v -7.01838h 0.36269v 13.211h 0.181345v -4.86371h 0.181345v -1.32891h 0.181345v -3.40805h 0.181345v 1.05372h 0.181345v -1.05372h 0.181345v 4.73696h 0.181345v -8.3473h 0.181345v 3.61034h 0.181345v 4.73696h 0.181345v -4.73696h 0.181345v
 1.05372h 0.181345v 8.54695h 0.181345v 10.5864h 0.181345v -22.9716h 0.181345v 4.97014h 0.181345v 1.22248h 0.181345v -2.35433h 0.181345v -1.05372h 0.181345v 2.18556h 0.181345v 7.4151h 0.181345v -7.4151h 0.181345v -4.09716h 0.181345v -0.872974h
 0.181345v 4.97014h 0.181345v -2.18556h 0.181345v -3.61034h 0.181345v 11.4121h 0.181345v -6.74806h 0.181345v 3.68324h 0.181345v -3.68324h 0.181345v 5.1389h 0.181345v -7.17831h 0.181345v 2.03941h 0.181345v -2.96532h 0.181345v 6.64856h 0.181345v
 -8.3473h 0.181345v 5.7959h 0.181345v -4.97014h 0.181345v 7.52153h 0.181345v -9.87586h 0.181345v 2.35433h 0.181345v 4.97014h 0.181345v -4.97014h 0.181345v -1.60916h 0.181345v -2.78458h 0.181345v 13.3709h 0.181345v -9.80296h 0.181345v -0.783396h
 0.181345v 3.40805h 0.181345v -9.60067h 0.181345v 9.60067h 0.181345v -10.5864h 0.181345v 7.17831h 0.181345v -3.40805h 0.181345v 5.89018h 0.181345v -1.69874h 0.181345v -7.47681h 0.181345v 1.55452h 0.181345v 2.35433h 0.36269v -1.22248h 0.181345v
 -1.13184h 0.181345v 8.54695h 0.181345v -7.4151h 0.181345v 0.599013h 0.181345v 0.623469h 0.181345v -1.22248h 0.181345v 4.79045h 0.181345v -5.9223h 0.181345v 5.1389h 0.181345v -6.19262h 0.36269v 7.80178h 0.181345v -5.61622h 0.181345v 4.79045h
 0.181345v -8.43168h 0.181345v 1.97344h 0.181345v 11.1223h 0.181345v -6.19262h 0.181345v -3.8383h 0.181345v 3.8383h 0.36269v 1.52856h 0.181345v -2.23906h 0.181345v 2.23906h 0.181345v -2.23906h 0.181345v -1.32891h 0.181345v 4.39373h 0.181345v
 -1.60916h 0.181345v -1.45566h 0.181345v 3.93779h 0.36269v 6.64856h 0.181345v -7.52153h 0.36269v 3.8383h 0.181345v -4.66406h 0.181345v -0.783396h 0.181345v 5.44745h 0.181345v -2.03941h 0.181345v 0.985689h 0.36269v 9.60067h 0.181345v -15.4501h
 0.181345v 13.6512h 0.181345v 1.79889h 0.181345v -9.60067h 0.181345v 3.40805h 0.181345v -2.35433h 0.181345v 12.9407h 0.181345v -15.906h 0.181345v 0.925913h 0.36269v 4.39373h 0.181345v -1.22248h 0.181345v -5.7959h 0.181345v 5.7959h 0.181345v 5.61622h
 0.181345v -3.06482h 0.181345v -5.72265h 0.181345v 8.78747h 0.36269v -3.06482h 0.181345v -5.72265h 0.181345v -0.925913h 0.181345v 6.64856h 0.36269v -3.68324h 0.181345v 6.74806h 0.181345v -1.60916h 0.181345v -7.17831h 0.181345v 4.39373h 0.181345v
 4.39373h 0.181345v -1.60916h 0.181345v -6.19262h 0.181345v -1.9116h 0.181345v 0.925913h 0.181345v 2.03941h 0.181345v 6.74806h 0.181345v -4.39373h 0.181345v -2.35433h 0.181345v 6.74806h 0.181345v -6.74806h 0.181345v 1.13184h 0.181345v -2.18556h
 0.181345v 1.05372h 0.181345v 6.74806h 0.181345v -4.39373h 0.181345v -3.40805h 0.181345v 9.60067h 0.181345v -9.60067h 0.181345v -3.61034h 0.181345v 1.69874h 0.181345v 1.9116h 0.181345v 11.6401h 0.181345v -5.44745h 0.181345v 1.60916h 0.36269v
 -1.60916h 0.181345v -4.00706h 0.181345v -4.97014h 0.181345v 3.8383h 0.181345v 3.68324h 0.181345v -2.5514h 0.181345v 5.61622h 0.36269v -6.74806h 0.181345v 3.68324h 0.181345v -2.5514h 0.181345v 7.4151h 0.181345v -7.4151h 0.181345v -4.97014h 0.181345v
 6.19262h 0.36269v -1.22248h 0.181345v 4.00706h 0.181345v -1.45566h 0.544034v -2.5514h 0.181345v 5.61622h 0.181345v -8.78747h 0.181345v 3.17125h 0.181345v -5.7959h 0.181345v 9.80296h 0.181345v -9.80296h 0.181345v 3.61034h 0.181345v 1.05372h 0.181345v
 6.74806h 0.181345v -5.61622h 0.181345v -3.17125h 0.181345v -0.925913h 0.181345v 2.96532h 0.181345v -1.05372h 0.181345v -1.9116h 0.181345v 0.925913h 0.181345v 4.39373h 0.181345v -7.80178h 0.181345v 1.60916h 0.181345v 1.79889h 0.181345v 7.17831h
 0.181345v -10.5864h 0.181345v -0.745166h 0.181345v 8.54695h 0.181345v -2.35433h 0.181345v -6.90312h 0.181345v 8.03496h 0.181345v -5.7959h 0.36269v -1.52856h 0.181345v 7.32446h 0.181345v -5.7959h 0.181345v 0.825762h 0.181345v 0.872974h 0.36269v
 1.9116h 0.181345v -2.78458h 0.181345v 14.4247h 0.181345v -6.90312h 0.181345v -5.72265h 0.181345v 0.985689h 0.181345v 7.80178h 0.181345v -11.4121h 0.181345v 9.80296h 0.181345v -11.3315h 0.181345v 7.32446h 0.181345v 2.5514h 0.181345v -3.68324h
 0.181345v -1.05372h 0.181345v 3.40805h 0.181345v -9.25744h 0.181345v -2.5514h 0.181345v 6.48919h 0.181345v 2.96532h 0.181345v -5.44745h 0.181345v 3.40805h 0.181345v 0.985689h 0.181345v -5.8494h 0.181345v 10.5864h 0.181345v -6.64856h 0.36269v
 4.09716h 0.181345v -4.09716h 0.181345v -3.93779h 0.181345v -2.5514h 0.181345v 5.61622h 0.181345v 10.5864h 0.181345v -10.5864h 0.36269v -4.39373h 0.181345v 6.19262h 0.181345v -0.925913h 0.181345v 0.925913h 0.181345v -1.79889h 0.181345v -2.35433h
 0.181345v -0.710495h 0.181345v 5.8494h 0.181345v -5.8494h 0.181345v 9.25744h 0.181345v -9.25744h 0.181345v 0.710495h 0.181345v -1.3894h 0.181345v 2.13457h 0.181345v 3.40805h 0.181345v -3.40805h 0.181345v -0.745166h 0.181345v 4.15321h 0.181345v
 -3.40805h 0.181345v -2.78458h 0.181345v -1.79889h 0.181345v 5.36686h 0.181345v 0.825762h 0.181345v -4.39373h 0.181345v -2.89027h 0.181345v 2.2668h 0.181345v -1.73086h 0.181345v 2.35433h 0.181345v 3.56797h 0.36269v -4.19144h 0.181345v 1.95238h
 0.181345v -2.5514h 0.181345v 6.48919h 0.181345v -5.89018h 0.181345v 5.0172h 0.181345v -1.60916h 0.181345v -7.64828h 0.181345v 3.64122h 0.181345v 6.48919h 0.181345v 2.96532h 0.36269v -1.05372h 0.181345v 2.18556h 0.181345v -1.13184h 0.181345v
 -1.05372h 0.181345v 6.19262h 0.181345v -6.19262h 0.181345v 11.6401h 0.181345v -10.5864h 0.181345v 1.13184h 0.181345v -2.18556h 0.181345v 6.19262h 0.181345v -5.1389h 0.181345v -3.8383h 0.181345v 3.8383h 0.181345v -1.05372h 0.181345v -0.985689h
 0.181345v 3.17125h 0.181345v -3.17125h 0.181345v -2.62465h 0.181345v 9.80296h 0.181345v -10.5864h 0.181345v 6.5793h 0.181345v -3.17125h 0.181345v 5.72265h 0.181345v -2.5514h 0.181345v -4.09716h 0.36269v 4.09716h 0.181345v -3.17125h 0.181345v
 4.39373h 0.181345v 1.32891h 0.181345v -1.32891h 0.181345v -1.22248h 0.181345v 1.22248h 0.181345v 4.39373h 0.181345v -5.61622h 0.181345v 2.5514h 0.181345v -1.32891h 0.181345v 4.39373h 0.181345v -8.78747h 0.181345v 3.17125h 0.181345v -7.32446h
 0.181345v 3.2273h 0.181345v 11.5123h 0.181345v -9.60067h 0.181345v -0.985689h 0.181345v 3.17125h 0.181345v -4.09716h 0.181345v -1.69874h 0.181345v 8.3473h 0.181345v -2.5514h 0.36269v -4.97014h 0.181345v 0.872974h 0.181345v -3.2273h 0.181345v
 0.745166h 0.181345v 3.40805h 0.181345v 8.78747h 0.181345v -11.4121h 0.181345v 3.61034h 0.181345v -4.39373h 0.181345v 6.5793h 0.181345v -5.7959h 0.181345v -2.23906h 0.181345v 3.06482h 0.181345v 3.8383h 0.181345v 8.54695h 0.181345v -4.86371h 0.181345v
 6.90312h 0.181345v -6.90312h 0.181345v 1.45566h 0.181345v 1.60916h 0.181345v 1.79889h 0.181345v -7.4151h 0.181345v 11.8088h 0.181345v -10.5864h 0.181345v 4.39373h 0.181345v 3.8383h 0.181345v -3.8383h 0.181345v -4.39373h 0.181345v 4.39373h 0.181345v
 6.19262h 0.181345v -4.39373h 0.181345v -4.86371h 0.181345v 9.25744h 0.181345v 6.19262h 0.181345v -10.5864h 0.181345v 2.03941h 0.181345v -6.90312h 0.181345v 12.042h 0.181345v -5.1389h 0.181345v 19.1333h 0.181345v -10.5864h 0.181345v 4.39373h 0.36269v
 -18.3881h 0.36269v 7.80178h 0.181345v 2.78458h 0.181345v -7.17831h 0.181345v 14.9801h 0.181345v -12.9407h 0.181345v 8.54695h 0.181345v -10.5864h 0.181345v 7.17831h 0.181345v 3.40805h 0.181345v -6.19262h 0.181345v 2.78458h 0.544034v -7.17831h
 0.181345v 2.03941h 0.181345v 2.35433h 0.181345v 6.19262h 0.181345v 4.39373h 0.181345v -10.5864h 0.181345v -4.39373h 0.181345v 2.03941h 0.181345v -2.03941h 0.36269v 10.5864h 0.181345v 4.39373h 0.181345v -19.8438h 0.181345v 4.86371h 0.181345v
 -1.79889h 0.181345v -5.61622h 0.181345v 9.45451h 0.181345v 12.9407h 0.181345v -19.8438h 0.181345v 6.90312h 0.181345v -2.03941h 0.181345v 2.03941h 0.181345v -2.03941h 0.181345v 14.9801h 0.181345v -10.5864h 0.181345v -7.80178h 0.181345v -1.45566h
 0.181345v 12.042h 0.181345v -14.5934h 0.181345v 5.61622h 0.181345v 6.19262h 0.36269v -9.25744h 0.181345v 3.06482h 0.36269v -1.60916h 0.181345v 10.5864h 0.181345v -2.78458h 0.181345v -6.19262h 0.181345v 1.79889h 0.181345v -1.79889h 0.181345v 3.8383h
 0.181345v -9.45451h 0.181345v 11.8088h 0.181345v -10.5864h 0.181345v 8.23203h 0.181345v 8.54695h 0.181345v -3.40805h 0.181345v -8.9772h 0.181345v -1.60916h 0.181345v 10.5864h 0.181345v -8.9772h 0.181345v 1.79889h 0.36269v 4.39373h 0.181345v
 -2.35433h 0.181345v -10.5864h 0.181345v 2.35433h 0.181345v 10.5864h 0.181345v -4.39373h 0.181345v -3.40805h 0.181345v 1.60916h 0.181345v 1.79889h 0.181345v 7.17831h 0.181345v 3.40805h 0.181345v -15.4501h 0.181345v 3.06482h 0.181345v -4.39373h
 0.181345v 2.78458h 0.181345v 5.44745h 0.181345v -3.8383h 0.181345v -1.60916h 0.36269v 24.5808h 0.181345v -27.3653h 0.181345v 1.32891h 0.36269v 6.90312h 0.181345v -3.8383h 0.181345v 1.79889h 0.181345v -6.19262h 0.181345v 2.78458h 0.181345v 3.40805h
 0.181345v -3.40805h 0.181345v -1.45566h 0.181345v 9.25744h 0.181345v -6.19262h 0.181345v -3.06482h 0.181345v -1.32891h 0.181345v 2.78458h 0.181345v 7.80178h 0.181345v -4.39373h 0.181345v 7.17831h 0.181345v 3.40805h 0.181345v -3.40805h 0.181345v
 -5.1389h 0.181345v -2.03941h 0.181345v 10.5864h 0.181345v -13.9944h 0.181345v 3.40805h 0.181345v -3.40805h 0.36269v 5.44745h 0.181345v -2.03941h 0.181345v -8.54695h 0.181345v 8.54695h 0.181345v -10.5864h 0.181345v 8.78747h 0.181345v -1.60916h
 0.36269v -1.45566h 0.181345v 15.4501h 0.181345v -12.3852h 0.36269v -4.39373h 0.181345v 4.39373h 0.181345v -1.60916h 0.181345v 1.60916h 0.181345v 8.9772h 0.181345v -10.5864h 0.181345v -5.1389h 0.36269v 1.13184h 0.181345v 1.22248h 0.181345v 2.78458h
 0.181345v 7.80178h 0.181345v -6.19262h 0.181345v -4.39373h 0.181345v -4.39373h 0.181345v 2.03941h 0.181345v 1.13184h 0.181345v 1.22248h 0.181345v -4.39373h 0.181345v 4.39373h 0.181345v -9.25744h 0.181345v 1.45566h 0.181345v -2.13457h 0.181345v
 6.5283h 0.181345v -1.9116h 0.181345v -1.69874h 0.181345v 1.69874h 0.181345v -0.872974h 0.181345v 12.3852h 0.181345v -9.60067h 0.181345v -5.1389h 0.181345v 1.52856h 0.181345v 9.80296h 0.181345v -1.45566h 0.181345v 6.90312h 0.181345v -5.44745h
 0.181345v -9.80296h 0.181345v 2.62465h 0.181345v -4.15321h 0.181345v 4.15321h 0.181345v -2.62465h 0.181345v 1.69874h 0.181345v 5.31965h 0.181345v -6.19262h 0.181345v 6.19262h 0.181345v -4.39373h 0.181345v -0.925913h 0.181345v 0.925913h 0.181345v
 -2.62465h 0.181345v 13.211h 0.181345v -14.7396h 0.181345v 0.745166h 0.181345v -2.78458h 0.181345v 13.3709h 0.181345v -7.17831h 0.181345v -0.925913h 0.181345v 1.9116h 0.181345v 1.05372h 0.181345v 2.35433h 0.181345v -6.19262h 0.181345v 6.19262h
 0.181345v 2.78458h 0.181345v -8.9772h 0.181345v 6.19262h 0.181345v -5.31965h 0.181345v 11.5123h 0.181345v 4.39373h 0.181345v -14.9801h 0.181345v 10.5864h 0.181345v -6.19262h 0.181345v 1.32891h 0.181345v 4.86371h 0.181345v 7.17831h 0.181345v
 -10.5864h 0.181345v 10.5864h 0.181345v -2.78458h 0.544034v -10.5864h 0.181345v 27.3653h 0.181345v -6.19262h 0.725379v -7.80178h 0.181345v 3.40805h 0.181345v 4.39373h 0.181345v 16.779h 0.36269v -21.1727h 0.181345v 10.5864h 0.181345v 10.5864h
 0.181345v -24.5808h 0.181345v 13.9944h 0.181345v -10.5864h 0.181345v 21.1727h 0.181345v -10.5864h 0.181345v 10.5864h 0.181345v 10.5864h 0.181345v -10.5864h 0.181345v -10.5864h 0.36269v 21.1727h 0.181345v -27.3653h 0.181345v -7.80178h 0.181345v
 24.5808h 0.544034v -10.5864h 0.181345v -10.5864h 0.181345v 10.5864h 0.181345v 10.5864h 0.181345v -10.5864h 0.181345v 21.1727h 0.181345v -10.5864h 0.36269v 10.5864h 0.36269v -10.5864h 0.181345v -10.5864h 0.181345v -10.5864h 0.181345v 21.1727h
 0.181345v 10.5864h 0.181345v -21.1727h 0.181345v -10.5864h 0.181345v 21.1727h 0.181345v -16.779h 0.181345v 16.779h 0.725379v 10.5864h 0.36269v -10.5864h 0.181345v 10.5864h 0.181345v -10.5864h 0.181345v 10.5864h 0.36269v -21.1727h 0.181345v 21.1727h
 0.544034v -21.1727h 0.36269v 21.1727h 0.906724v -21.1727h 0.181345v -6.19262h 0.181345v 16.779h 0.36269v 10.5864h 0.36269v -10.5864h 0.181345v 10.5864h 0.544034v -10.5864h 0.36269v 10.5864h 0.181345v -10.5864h 0.181345v 10.5864h 0.544034v -10.5864h
 0.181345v 10.5864h 0.181345v -10.5864h 0.181345v 10.5864h 0.36269v -21.1727h 0.181345v 10.5864h 0.181345v -10.5864h 0.181345v 21.1727h 0.544034v -27.3653h 0.181345v 27.3653h 0.181345v -10.5864h 0.181345v 10.5864h 0.181345v -10.5864h 0.36269v
 -10.5864h 0.181345v 10.5864h 0.36269v 10.5864h 0.181345v -10.5864h 0.544034v -21.1727h 0.181345v 31.7591h 0.181345v -10.5864h 0.181345v 10.5864h 0.181345v -10.5864h 0.181345v -10.5864h 0.181345v -6.19262h 0.181345v 6.19262h 0.181345v 10.5864h
 0.181345v -10.5864h 0.181345v 10.5864h 0.36269v -21.1727h 0.181345v 31.7591h 0.181345v -10.5864h 0.544034v -10.5864h 0.181345v 21.1727h 0.181345v -10.5864h 0.181345v -10.5864h 0.181345v 10.5864h 0.181345v 10.5864h 0.181345v -10.5864h 0.181345v
 -16.779h 0.181345v 27.3653h 0.36269v -21.1727h 0.36269v 10.5864h 0.181345v -10.5864h 0.181345v 21.1727h 0.181345v -21.1727h 0.181345v 10.5864h 0.181345v 10.5864h 0.181345v -10.5864h 0.181345v 10.5864h 0.544034v -10.5864h 0.36269v -10.5864h 0.181345v
 21.1727h 0.36269v -10.5864h 0.181345v 10.5864h 0.36269v -10.5864h 0.181345v -16.779h 0.181345v 27.3653h 0.36269v -10.5864h 0.181345v 10.5864h 0.181345v -10.5864h 0.181345v 10.5864h 0.544034v -10.5864h 0.181345v -16.779h 0.181345v 16.779h 0.36269v
 10.5864h 1.26941v -21.1727h 0.181345v 10.5864h 0.181345v -16.779h 0.181345v 16.779h 0.544034v 10.5864h 0.181345v -10.5864h 0.36269v 10.5864h 0.544034v -27.3653h 0.181345v 16.779h 0.36269v 10.5864h 0.36269v -10.5864h 0.181345v 10.5864h 0.181345v
 -21.1727h 0.181345v 10.5864h 0.36269v 10.5864h 0.181345v -10.5864h 0.181345v 10.5864h 0.181345v -10.5864h 0.36269v -10.5864h 0.181345v 10.5864h 0.181345v -10.5864h 0.181345v 10.5864h 0.181345v 10.5864h 0.725379v -21.1727h 0.181345v 21.1727h
 0.181345v -21.1727h 0.181345v 21.1727h 0.36269v -10.5864h 0.181345v 10.5864h 0.181345v -10.5864h 0.181345v 10.5864h 0.181345v -10.5864h 0.36269v 10.5864h 0.181345v -21.1727h 0.181345v 10.5864h 0.181345v 10.5864h 0.544034v -10.5864h 0.36269v 10.5864h
 0.181345v -10.5864h 0.181345v 10.5864h 0.181345v -21.1727h 0.36269v 21.1727h 0.181345v -21.1727h 0.181345v 10.5864h 0.181345v 10.5864h 0.181345v -21.1727h 0.181345v 10.5864h 0.181345v 10.5864h 1.08807v -10.5864h 0.181345v 10.5864h 0.181345v
 -10.5864h 0.181345v 10.5864h 0.181345v -10.5864h 0.181345v -10.5864h 0.181345v 21.1727h 0.725379v -10.5864h 0.181345v 10.5864h 0.544034v -10.5864h 0.181345v 10.5864h 0.36269v -10.5864h 0.36269v 10.5864h 0.544034v -10.5864h 0.181345v 10.5864h
 0.544034v -10.5864h 0.181345v 10.5864h 0.181345v -21.1727h 0.181345v 21.1727h 0.544034v -21.1727h 0.181345v 21.1727h 0.181345v -21.1727h 0.181345v 10.5864h 0.181345v -10.5864h 0.181345v 21.1727h 0.181345" fill="none" stroke="black"/>
<path d="M57.1929,280.151h 453.543" fill="none" stroke="black"/>
<path d="M57.1929,272.68v 7.47068" fill="none" stroke="black"/>
<path d="M75.3318,276.415v 3.73534" fill="none" stroke="black"/>
<path d="M93.4707,276.415v 3.73534" fill="none" stroke="black"/>
<path d="M111.61,276.415v 3.73534" fill="none" stroke="black"/>
<path d="M129.749,276.415v 3.73534" fill="none" stroke="black"/>
<path d="M147.887,272.68v 7.47068" fill="none" stroke="black"/>
<path d="M166.026,276.415v 3.73534" fill="none" stroke="black"/>
<path d="M184.165,276.415v 3.73534" fill="none" stroke="black"/>
<path d="M202.304,276.415v 3.73534" fill="none" stroke="black"/>
<path d="M220.443,276.415v 3.73534" fill="none" stroke="black"/>
<path d="M238.582,272.68v 7.47068" fill="none" stroke="black"/>
<path d="M256.721,276.415v 3.73534" fill="none" stroke="black"/>
<path d="M274.86,276.415v 3.73534" fill="none" stroke="black"/>
<path d="M292.999,276.415v 3.73534" fill="none" stroke="black"/>
<path d="M311.138,276.415v 3.73534" fill="none" stroke="black"/>
<path d="M329.277,272.68v 7.47068" fill="none" stroke="black"/>
<path d="M347.415,276.415v 3.73534" fill="none" stroke="black"/>
<path d="M365.554,276.415v 3.73534" fill="none" stroke="black"/>
<path d="M383.693,276.415v 3.73534" fill="none" stroke="black"/>
<path d="M401.832,276.415v 3.73534" fill="none" stroke="black"/>
<path d="M419.971,272.68v 7.47068" fill="none" stroke="black"/>
<path d="M438.11,276.415v 3.73534" fill="none" stroke="black"/>
<path d="M456.249,276.415v 3.73534" fill="none" stroke="black"/>
<path d="M474.388,276.415v 3.73534" fill="none" stroke="black"/>
<path d="M492.527,276.415v 3.73534" fill="none" stroke="black"/>
<path d="M510.666,272.68v 7.47068" fill="none" stroke="black"/>
<path d="M510.666,272.68v 7.47068" fill="none" stroke="black"/>
<text xml:space="preserve" x="54.3523" y="290.27" fill="black" font-size="10.4952" font-family="Helvetica">0</text>
<text xml:space="preserve" x="139.569" y="290.27" fill="black" font-size="10.4952" font-family="Helvetica">500</text>
<text xml:space="preserve" x="227.449" y="290.27" fill="black" font-size="10.4952" font-family="Helvetica">1000</text>
<text xml:space="preserve" x="318.288" y="290.27" fill="black" font-size="10.4952" font-family="Helvetica">1500</text>
<text xml:space="preserve" x="408.831" y="290.27" fill="black" font-size="10.4952" font-family="Helvetica">2000</text>
<text xml:space="preserve" x="499.67" y="290.27" fill="black" font-size="10.4952" font-family="Helvetica">2500</text>
<text xml:space="preserve" x="265.323" y="301.218" fill="black" font-size="10.4952" font-family="Helvetica">Channel</text>
<path d="M57.1929,280.151v -249.023" fill="none" stroke="black"/>
<path d="M63.9961,280.151h -6.80315" fill="none" stroke="black"/>
<path d="M63.9961,277.366h -6.80315" fill="none" stroke="black"/>
<path d="M63.9961,275.012h -6.80315" fill="none" stroke="black"/>
<path d="M63.9961,272.972h -6.80315" fill="none" stroke="black"/>
<path d="M63.9961,271.173h -6.80315" fill="none" stroke="black"/>
<path d="M70.7992,269.564h -13.6063" fill="none" stroke="black"/>
<text xml:space="preserve" x="49.0263" y="273.404" fill="black" font-size="10.4952" font-family="Helvetica">1</text>
<path d="M63.9961,258.978h -6.80315" fill="none" stroke="black"/>
<path d="M63.9961,252.785h -6.80315" fill="none" stroke="black"/>
<path d="M63.9961,248.391h -6.80315" fill="none" stroke="black"/>
<path d="M63.9961,244.983h -6.80315" fill="none" stroke="black"/>
<path d="M63.9961,242.199h -6.80315" fill="none" stroke="black"/>
<path d="M63.9961,239.845h -6.80315" fill="none" stroke="black"/>
<path d="M63.9961,237.805h -6.80315" fill="none" stroke="black"/>
<path d="M63.9961,236.006h -6.80315" fill="none" stroke="black"/>
<path d="M70.7992,234.397h -13.6063" fill="none" stroke="black"/>
<text xml:space="preserve" x="41.629" y="238.193" fill="black" font-size="10.4952" font-family="Helvetica">10</text>
<path d="M63.9961,223.811h -6.80315" fill="none" stroke="black"/>
<path d="M63.9961,217.618h -6.80315" fill="none" stroke="black"/>
<path d="M63.9961,213.224h -6.80315" fill="none" stroke="black"/>
<path d="M63.9961,209.816h -6.80315" fill="none" stroke="black"/>
<path d="M63.9961,207.032h -6.80315" fill="none" stroke="black"/>
<path d="M63.9961,204.677h -6.80315" fill="none" stroke="black"/>
<path d="M63.9961,202.638h -6.80315" fill="none" stroke="black"/>
<path d="M63.9961,200.839h -6.80315" fill="none" stroke="black"/>
<path d="M70.7992,199.23h -13.6063" fill="none" stroke="black"/>
<text xml:space="preserve" x="49.0263" y="199.431" fill="black" font-size="7.16345" font-family="Helvetica">2</text>
<text xml:space="preserve" x="38.0783" y="203.87" fill="black" font-size="10.4952" font-family="Helvetica">10</text>
<path d="M63.9961,188.644h -6.80315" fill="none" stroke="black"/>
<path d="M63.9961,182.451h -6.80315" fill="none" stroke="black"/>
<path d="M63.9961,178.057h -6.80315" fill="none" stroke="black"/>
<path d="M63.9961,174.649h -6.80315" fill="none" stroke="black"/>
<path d="M63.9961,171.865h -6.80315" fill="none" stroke="black"/>
<path d="M63.9961,169.51h -6.80315" fill="none" stroke="black"/>
<path d="M63.9961,167.471h -6.80315" fill="none" stroke="black"/>
<path d="M63.9961,165.672h -6.80315" fill="none" stroke="black"/>
<path d="M70.7992,164.063h -13.6063" fill="none" stroke="black"/>
<text xml:space="preserve" x="49.0263" y="163.924" fill="black" font-size="7.16345" font-family="Helvetica">3</text>
<text xml:space="preserve" x="38.0783" y="168.658" fill="black" font-size="10.4952" font-family="Helvetica">10</text>
<path d="M63.9961,153.477h -6.80315" fill="none" stroke="black"/>
<path d="M63.9961,147.284h -6.80315" fill="none" stroke="black"/>
<path d="M63.9961,142.89h -6.80315" fill="none" stroke="black"/>
<path d="M63.9961,139.482h -6.80315" fill="none" stroke="black"/>
<path d="M63.9961,136.698h -6.80315" fill="none" stroke="black"/>
<path d="M63.9961,134.343h -6.80315" fill="none" stroke="black"/>
<path d="M63.9961,132.304h -6.80315" fill="none" stroke="black"/>
<path d="M63.9961,130.505h -6.80315" fill="none" stroke="black"/>
<path d="M70.7992,128.896h -13.6063" fill="none" stroke="black"/>
<text xml:space="preserve" x="49.0263" y="129.009" fill="black" font-size="7.16345" font-family="Helvetica">4</text>
<text xml:space="preserve" x="38.0783" y="133.447" fill="black" font-size="10.4952" font-family="Helvetica">10</text>
<path d="M63.9961,118.309h -6.80315" fill="none" stroke="black"/>
<path d="M63.9961,112.117h -6.80315" fill="none" stroke="black"/>
<path d="M63.9961,107.723h -6.80315" fill="none" stroke="black"/>
<path d="M63.9961,104.315h -6.80315" fill="none" stroke="black"/>
<path d="M63.9961,101.53h -6.80315" fill="none" stroke="black"/>
<path d="M63.9961,99.1761h -6.80315" fill="none" stroke="black"/>
<path d="M63.9961,97.1367h -6.80315" fill="none" stroke="black"/>
<path d="M63.9961,95.3378h -6.80315" fill="none" stroke="black"/>
<path d="M70.7992,93.7287h -13.6063" fill="none" stroke="black"/>
<text xml:space="preserve" x="49.0263" y="93.5019" fill="black" font-size="7.16345" font-family="Helvetica">5</text>
<text xml:space="preserve" x="38.0783" y="98.2362" fill="black" font-size="10.4952" font-family="Helvetica">10</text>
<path d="M63.9961,83.1423h -6.80315" fill="none" stroke="black"/>
<path d="M63.9961,76.9497h -6.80315" fill="none" stroke="black"/>
<path d="M63.9961,72.556h -6.80315" fill="none" stroke="black"/>
<path d="M63.9961,69.1479h -6.80315" fill="none" stroke="black"/>
<path d="M63.9961,66.3633h -6.80315" fill="none" stroke="black"/>
<path d="M63.9961,64.009h -6.80315" fill="none" stroke="black"/>
<path d="M63.9961,61.9696h -6.80315" fill="none" stroke="black"/>
<path d="M63.9961,60.1707h -6.80315" fill="none" stroke="black"/>
<path d="M70.7992,58.5616h -13.6063" fill="none" stroke="black"/>
<text xml:space="preserve" x="49.0263" y="58.2907" fill="black" font-size="7.16345" font-family="Helvetica">6</text>
<text xml:space="preserve" x="38.0783" y="63.025" fill="black" font-size="10.4952" font-family="Helvetica">10</text>
<path d="M63.9961,47.9752h -6.80315" fill="none" stroke="black"/>
<path d="M63.9961,41.7826h -6.80315" fill="none" stroke="black"/>
<path d="M63.9961,37.3889h -6.80315" fill="none" stroke="black"/>
<path d="M63.9961,33.9808h -6.80315" fill="none" stroke="black"/>
<path d="M63.9961,31.1962h -6.80315" fill="none" stroke="black"/>
<g transform="rotate(-90,26.5385,191.442)">
<text xml:space="preserve" x="26.5385" y="191.442" fill="black" font-size="10.4952" font-family="Helvetica">Counts/Channel</text>
</g>
<text xml:space="preserve" x="404.097" y="58.2907" fill="black" font-size="14.7788" font-family="Helvetica" font-weight="bold"> = 2.4879 MeV</text>
<text xml:space="preserve" x="398.179" y="61.5455" fill="black" font-size="10.0192" font-family="Helvetica" font-weight="bold">p</text>
<text xml:space="preserve" x="389.006" y="58.2907" fill="black" font-size="14.7788" font-family="Helvetica" font-weight="bold">E</text>
<path d="M262.163,162.607v 26.4616" fill="none" stroke="black"/>
<path d="M264.454,189.069l -2.29122, 3.9685l -2.29122, -3.9685z" fill="black"/>
<path d="M264.454,189.069l -2.29122, 3.9685l -2.29122, -3.9685h 4.58243z" fill="none" stroke="black"/>
<text xml:space="preserve" x="266.803" y="160.373" fill="black" font-size="10.4952" font-family="Helvetica" font-weight="bold">_1 	1.369 MeV</text>
<text xml:space="preserve" x="260.293" y="160.373" fill="black" font-size="10.4952" font-family="Times">&#0945;</text>
<path d="M184.528,128.896v 31.1986" fill="none" stroke="black"/>
<path d="M186.819,160.094l -2.29122, 3.9685l -2.29122, -3.9685z" fill="black"/>
<path d="M186.819,160.094l -2.29122, 3.9685l -2.29122, -3.9685h 4.58243z" fill="none" stroke="black"/>
<text xml:space="preserve" x="172.117" y="126.05" fill="black" font-size="10.4952" font-family="Helvetica" font-weight="bold"># p_1 	0.844 MeV</text>
<path d="M210.104,147.284v 12.8105" fill="none" stroke="black"/>
<path d="M212.395,160.094l -2.29122, 3.9685l -2.29122, -3.9685z" fill="black"/>
<path d="M212.395,160.094l -2.29122, 3.9685l -2.29122, -3.9685h 4.58243z" fill="none" stroke="black"/>
<text xml:space="preserve" x="197.564" y="142.62" fill="black" font-size="10.4952" font-family="Helvetica" font-weight="bold"># p_2 	1.015 MeV</text>
<path d="M497.478,269.564h 13.1878" fill="none" stroke="black"/>
<path d="M504.072,258.978h 6.5939" fill="none" stroke="black"/>
<path d="M504.072,252.785h 6.5939" fill="none" stroke="black"/>
<path d="M504.072,248.391h 6.5939" fill="none" stroke="black"/>
<path d="M504.072,244.983h 6.5939" fill="none" stroke="black"/>
<path d="M504.072,242.199h 6.5939" fill="none" stroke="black"/>
<path d="M504.072,239.845h 6.5939" fill="none" stroke="black"/>
<path d="M504.072,237.805h 6.5939" fill="none" stroke="black"/>
<path d="M504.072,236.006h 6.5939" fill="none" stroke="black"/>
<path d="M497.478,234.397h 13.1878" fill="none" stroke="black"/>
<path d="M504.072,223.811h 6.5939" fill="none" stroke="black"/>
<path d="M504.072,217.618h 6.5939" fill="none" stroke="black"/>
<path d="M504.072,213.224h 6.5939" fill="none" stroke="black"/>
<path d="M504.072,209.816h 6.5939" fill="none" stroke="black"/>
<path d="M504.072,207.032h 6.5939" fill="none" stroke="black"/>
<path d="M504.072,204.677h 6.5939" fill="none" stroke="black"/>
<path d="M504.072,202.638h 6.5939" fill="none" stroke="black"/>
<path d="M504.072,200.839h 6.5939" fill="none" stroke="black"/>
<path d="M497.478,199.23h 13.1878" fill="none" stroke="black"/>
<path d="M504.072,188.644h 6.5939" fill="none" stroke="black"/>
<path d="M504.072,182.451h 6.5939" fill="none" stroke="black"/>
<path d="M504.072,178.057h 6.5939" fill="none" stroke="black"/>
<path d="M504.072,174.649h 6.5939" fill="none" stroke="black"/>
<path d="M504.072,171.865h 6.5939" fill="none" stroke="black"/>
<path d="M504.072,169.51h 6.5939" fill="none" stroke="black"/>
<path d="M504.072,167.471h 6.5939" fill="none" stroke="black"/>
<path d="M504.072,165.672h 6.5939" fill="none" stroke="black"/>
<path d="M497.478,164.063h 13.1878" fill="none" stroke="black"/>
<path d="M504.072,153.477h 6.5939" fill="none" stroke="black"/>
<path d="M504.072,147.284h 6.5939" fill="none" stroke="black"/>
<path d="M504.072,142.89h 6.5939" fill="none" stroke="black"/>
<path d="M504.072,139.482h 6.5939" fill="none" stroke="black"/>
<path d="M504.072,136.698h 6.5939" fill="none" stroke="black"/>
<path d="M504.072,134.343h 6.5939" fill="none" stroke="black"/>
<path d="M504.072,132.304h 6.5939" fill="none" stroke="black"/>
<path d="M504.072,130.505h 6.5939" fill="none" stroke="black"/>
<path d="M497.478,128.896h 13.1878" fill="none" stroke="black"/>
<path d="M504.072,118.309h 6.5939" fill="none" stroke="black"/>
<path d="M504.072,112.117h 6.5939" fill="none" stroke="black"/>
<path d="M504.072,107.723h 6.5939" fill="none" stroke="black"/>
<path d="M504.072,104.315h 6.5939" fill="none" stroke="black"/>
<path d="M504.072,101.53h 6.5939" fill="none" stroke="black"/>
<path d="M504.072,99.1761h 6.5939" fill="none" stroke="black"/>
<path d="M504.072,97.1367h 6.5939" fill="none" stroke="black"/>
<path d="M504.072,95.3378h 6.5939" fill="none" stroke="black"/>
<path d="M497.478,93.7287h 13.1878" fill="none" stroke="black"/>
<path d="M504.072,83.1423h 6.5939" fill="none" stroke="black"/>
<path d="M504.072,76.9497h 6.5939" fill="none" stroke="black"/>
<path d="M504.072,72.556h 6.5939" fill="none" stroke="black"/>
<path d="M504.072,69.1479h 6.5939" fill="none" stroke="black"/>
<path d="M504.072,66.3633h 6.5939" fill="none" stroke="black"/>
<path d="M504.072,64.009h 6.5939" fill="none" stroke="black"/>
<path d="M504.072,61.9696h 6.5939" fill="none" stroke="black"/>
<path d="M504.072,60.1707h 6.5939" fill="none" stroke="black"/>
<path d="M497.478,58.5616h 13.1878" fill="none" stroke="black"/>
<path d="M504.072,47.9752h 6.5939" fill="none" stroke="black"/>
<path d="M504.072,41.7826h 6.5939" fill="none" stroke="black"/>
<path d="M504.072,37.3889h 6.5939" fill="none" stroke="black"/>
<path d="M504.072,33.9808h 6.5939" fill="none" stroke="black"/>
<path d="M504.072,31.1962h 6.5939" fill="none" stroke="black"/>
<path d="M504.072,28.8419h 6.5939" fill="none" stroke="black"/>
<path d="M57.1929,35.6705v -7.46952" fill="none" stroke="black"/>
<path d="M75.3318,35.6705v -7.46952" fill="none" stroke="black"/>
<path d="M93.4707,35.6705v -7.46952" fill="none" stroke="black"/>
<path d="M111.61,35.6705v -7.46952" fill="none" stroke="black"/>
<path d="M129.749,35.6705v -7.46952" fill="none" stroke="black"/>
<path d="M147.887,35.6705v -7.46952" fill="none" stroke="black"/>
<path d="M166.026,35.6705v -7.46952" fill="none" stroke="black"/>
<path d="M184.165,35.6705v -7.46952" fill="none" stroke="black"/>
<path d="M202.304,35.6705v -7.46952" fill="none" stroke="black"/>
<path d="M220.443,35.6705v -7.46952" fill="none" stroke="black"/>
<path d="M238.582,35.6705v -7.46952" fill="none" stroke="black"/>
<path d="M256.721,35.6705v -7.46952" fill="none" stroke="black"/>
<path d="M274.86,35.6705v -7.46952" fill="none" stroke="black"/>
<path d="M292.999,35.6705v -7.46952" fill="none" stroke="black"/>
<path d="M311.138,35.6705v -7.46952" fill="none" stroke="black"/>
<path d="M329.277,35.6705v -7.46952" fill="none" stroke="black"/>
<path d="M347.415,35.6705v -7.46952" fill="none" stroke="black"/>
<path d="M365.554,35.6705v -7.46952" fill="none" stroke="black"/>
<path d="M383.693,35.6705v -7.46952" fill="none" stroke="black"/>
<path d="M401.832,35.6705v -7.46952" fill="none" stroke="black"/>
<path d="M419.971,35.6705v -7.46952" fill="none" stroke="black"/>
<path d="M438.11,35.6705v -7.46952" fill="none" stroke="black"/>
<path d="M456.249,35.6705v -7.46952" fill="none" stroke="black"/>
<path d="M474.388,35.6705v -7.46952" fill="none" stroke="black"/>
<path d="M492.527,35.6705v -7.46952" fill="none" stroke="black"/>
<path d="M510.666,35.6705v -7.46952" fill="none" stroke="black"/></svg>
