<?xml version="1.0" standalone="no"?>
<svg width="567.429" height="311.778" viewBox="0 0 567.429 311.778" xmlns="http://www.w3.org/2000/svg" shape-rendering="crispEdges">
<title>
Yields/P1/run_0100/det11_Fit.svg
</title>
<desc>
Creator: ROOT Version 6.12/06
CreationDate: Mon Apr 15 10:29:01 2019</desc>
<defs>
</defs>
<rect x="0.5" y="0" width="566.929" height="311.278" fill="white"/>
<rect x="57.1929" y="31.1278" width="453.543" height="249.023" fill="white"/>
<rect x="57.1929" y="31.1278" width="453.543" height="249.023" fill="none" stroke="black"/>
<path d="M57.1929,40.8375h 0.181345v 239.313h 7.07245v -10.5311h 0.181345v 10.5311h 2.53883v -10.5311h 0.181345v 10.5311h 2.72017v -10.5311h 0.181345v 10.5311h 5.98438v -10.5311h 0.181345v 10.5311h 0.181345v -10.5311h 0.181345v 10.5311h 3.80824v
 -10.5311h 0.36269v 10.5311h 2.17614v -10.5311h 0.181345v 10.5311h 2.90152v -10.5311h 0.181345v 10.5311h 0.906724v -21.0623h 0.181345v 21.0623h 0.181345v -10.5311h 0.181345v -10.5311h 0.181345v -6.16032h 0.181345v 6.16032h 0.181345v -6.16032h
 0.181345v 6.16032h 0.181345v -6.16032h 0.181345v -28.8234h 0.181345v -12.6546h 0.181345v -11.0187h 0.181345v -8.66146h 0.181345v -6.63515h 0.181345v -3.89599h 0.181345v -5.25995h 0.181345v -0.503341h 0.181345v -1.72404h 0.181345v -0.937324h
 0.181345v -1.29382h 0.181345v -0.423368h 0.181345v -0.768869h 0.181345v -0.857391h 0.181345v 0.0208555h 0.181345v -0.989676h 0.181345v 0.0195663h 0.181345v -1.25822h 0.181345v 0.738577h 0.181345v -0.917744h 0.181345v 1.01264h 0.181345v -0.905396h
 0.181345v -0.407065h 0.181345v -0.25972h 0.181345v -0.0514154h 0.181345v 0.398704h 0.181345v -0.753821h 0.181345v 0.753821h 0.181345v -0.88695h 0.181345v -0.082617h 0.181345v 0.400724h 0.181345v 0.135958h 0.181345v 0.0170806h 0.181345v -0.70135h
 0.181345v -0.113807h 0.181345v 0.410431h 0.181345v -0.523392h 0.181345v 0.825922h 0.181345v -0.135202h 0.181345v -0.0336134h 0.181345v -0.527939h 0.181345v 0.195834h 0.181345v -0.721714h 0.181345v 0.364592h 0.181345v 1.08035h 0.181345v -0.788782h
 0.181345v 0.481838h 0.181345v -0.90121h 0.181345v 0.321562h 0.181345v 0.0814652h 0.181345v 0.147747h 0.181345v 0.452063h 0.181345v 0.87442h 0.181345v -0.232235h 0.181345v -0.556973h 0.181345v -0.304552h 0.181345v 0.632786h 0.181345v -0.964168h
 0.181345v -0.735816h 0.181345v 2.01762h 0.181345v -1.71801h 0.181345v -0.237029h 0.181345v -0.927539h 0.181345v -1.38087h 0.181345v -3.7628h 0.181345v -0.537138h 0.181345v -3.1344h 0.181345v -2.41501h 0.181345v -2.66757h 0.181345v -2.12009h
 0.181345v -2.39628h 0.181345v -1.18602h 0.181345v -1.58696h 0.181345v -0.939575h 0.181345v 0.044762h 0.181345v -0.297079h 0.181345v 0.656472h 0.181345v 0.81969h 0.181345v 1.31081h 0.181345v 1.77783h 0.181345v 2.9215h 0.181345v 2.68065h 0.181345v
 2.64773h 0.181345v 3.79247h 0.181345v 3.13765h 0.181345v 3.02267h 0.181345v 3.3374h 0.181345v 3.26824h 0.181345v 1.57482h 0.181345v 2.99994h 0.181345v 1.80926h 0.181345v -0.931545h 0.181345v 1.29159h 0.181345v 0.900603h 0.181345v 0.471146h 0.181345v
 -0.237399h 0.181345v -0.577759h 0.181345v 0.151934h 0.181345v 0.465135h 0.181345v 1.27197h 0.181345v -1.50632h 0.181345v 0.754852h 0.181345v 0.666111h 0.181345v -0.948596h 0.181345v 1.33653h 0.181345v 0.945662h 0.181345v -1.71187h 0.181345v
 -0.165145h 0.181345v 1.0629h 0.181345v -1.02178h 0.181345v -0.123023h 0.181345v 1.10083h 0.181345v 1.23441h 0.181345v -1.49562h 0.181345v -0.128939h 0.181345v 0.478224h 0.181345v -1.14801h 0.181345v 1.68747h 0.181345v -0.361761h 0.181345v -0.13347h
 0.181345v 0.313274h 0.181345v 1.37139h 0.181345v -3.24107h 0.181345v 2.99562h 0.181345v 1.53598h 0.181345v -2.93083h 0.181345v 3.09333h 0.181345v -1.15314h 0.181345v -0.398534h 0.181345v 1.28181h 0.181345v 0.655925h 0.181345v -0.386056h 0.181345v
 0.164253h 0.181345v 0.333931h 0.181345v 0.341435h 0.181345v -0.620218h 0.181345v 0.910728h 0.181345v -0.855379h 0.181345v 0.27981h 0.181345v -1.03692h 0.181345v 1.26454h 0.181345v 0.289404h 0.181345v -0.907328h 0.181345v 1.08365h 0.181345v
 -0.0590029h 0.36269v -1.13435h 0.181345v 1.13435h 0.181345v 0.847651h 0.181345v -1.42541h 0.181345v 1.36327h 0.181345v 0.376711h 0.181345v 1.05277h 0.181345v -1.61439h 0.181345v -1.952h 0.181345v 2.6413h 0.181345v 0.455506h 0.181345v 0.606462h
 0.181345v -0.997726h 0.181345v 0.725194h 0.181345v 0.203939h 0.181345v -0.734761h 0.181345v 2.24455h 0.181345v -1.84818h 0.181345v -0.133275h 0.181345v 0.678382h 0.181345v -1.3912h 0.181345v 2.92275h 0.181345v -1.87453h 0.181345v -0.268914h
 0.181345v -1.03044h 0.181345v 1.43562h 0.181345v -0.405177h 0.181345v 0.268914h 0.181345v -0.335405h 0.181345v 0.133275h 0.181345v -0.199476h 0.181345v 0.199476h 0.181345v -0.133275h 0.181345v -0.521707h 0.181345v -2.85529h 0.181345v 3.17925h
 0.181345v -0.323962h 0.181345v -3.27444h 0.181345v 0.579361h 0.181345v -0.0535917h 0.181345v -2.18842h 0.181345v 1.30515h 0.181345v -1.02465h 0.181345v 0.142215h 0.181345v -0.142215h 0.181345v -1.5677h 0.181345v 0.921084h 0.181345v 0.227789h
 0.181345v 0.608747h 0.181345v -0.0952557h 0.181345v 0.336041h 0.181345v -1.16749h 0.181345v 4.40082h 0.181345v -1.80951h 0.181345v 3.32378h 0.181345v -1.4541h 0.181345v -0.179804h 0.181345v 1.70039h 0.181345v -0.905396h 0.181345v 0.838905h 0.181345v
 0.887947h 0.181345v -0.347686h 0.181345v 0.418189h 0.181345v -0.280067h 0.181345v -0.206714h 0.181345v 0.700273h 0.181345v 0.659087h 0.181345v 0.302363h 0.181345v 0.623399h 0.181345v -0.546859h 0.181345v 0.310077h 0.181345v 0.396713h 0.181345v
 -0.396713h 0.181345v -0.837934h 0.181345v -0.0739331h 0.181345v 0.373317h 0.181345v 0.538551h 0.181345v 1.566h 0.181345v -0.67914h 0.181345v -0.24705h 0.181345v -1.55168h 0.181345v 0.678719h 0.181345v -0.752294h 0.181345v -0.362624h 0.181345v
 0.734115h 0.181345v -0.297916h 0.181345v 1.71593h 0.181345v -1.49304h 0.181345v -0.801747h 0.181345v 0.652793h 0.181345v 1.23465h 0.181345v 2.43612h 0.181345v -3.81828h 0.181345v 0.985442h 0.181345v 1.47943h 0.181345v -0.757714h 0.181345v -0.643196h
 0.181345v -1.64008h 0.181345v 1.32841h 0.181345v -1.11492h 0.181345v 0.216534h 0.181345v -1.91018h 0.181345v 0.258614h 0.181345v -2.06947h 0.181345v 1.30647h 0.181345v 1.02609h 0.181345v 0.747916h 0.181345v -0.0695343h 0.181345v -1.88938h 0.181345v
 2.31145h 0.181345v -1.29819h 0.181345v 1.95411h 0.181345v -1.1472h 0.181345v -0.937324h 0.181345v 2.15919h 0.181345v 2.08233h 0.181345v -0.996634h 0.181345v -0.629861h 0.181345v 1.20326h 0.181345v 0.167883h 0.181345v -1.37114h 0.181345v -0.898383h
 0.181345v 1.85325h 0.181345v -1.18449h 0.181345v 1.26684h 0.181345v 0.166048h 0.181345v 0.423237h 0.181345v 0.172652h 0.181345v -1.87608h 0.181345v 0.868421h 0.181345v -0.4009h 0.181345v -0.313274h 0.181345v 2.98866h 0.181345v -0.736786h 0.181345v
 -1.61874h 0.181345v 1.79961h 0.181345v -0.536287h 0.181345v -0.770526h 0.181345v -0.330301h 0.181345v 1.54641h 0.181345v -1.29936h 0.181345v 1.66548h 0.181345v -2.39489h 0.181345v 2.21073h 0.181345v -1.39806h 0.181345v 0.167883h 0.181345v 1.88476h
 0.181345v -3.17858h 0.181345v 1.37846h 0.181345v -0.825922h 0.181345v 2.15562h 0.181345v -2.93895h 0.181345v 2.75479h 0.181345v 0.277088h 0.181345v -2.24855h 0.181345v -0.474827h 0.181345v 2.91095h 0.181345v -1.69484h 0.181345v 0.0846422h 0.181345v
 -0.168815h 0.181345v -0.896375h 0.181345v -0.390593h 0.181345v 0.311667h 0.181345v 2.01753h 0.181345v -2.25188h 0.181345v 0.472366h 0.181345v -1.08018h 0.181345v 1.16035h 0.181345v -0.0801755h 0.36269v 1.4241h 0.181345v -0.602643h 0.181345v
 -0.333931h 0.181345v -1.41801h 0.181345v 1.1723h 0.181345v 0.411766h 0.181345v -2.24634h 0.181345v 2.41422h 0.181345v 1.23018h 0.181345v -1.23018h 0.181345v 3.39027h 0.181345v -3.96992h 0.181345v -0.791493h 0.181345v 2.15045h 0.181345v -2.07313h
 0.181345v 2.07313h 0.181345v -0.779311h 0.181345v -0.74128h 0.181345v -0.15993h 0.181345v 1.41628h 0.181345v -0.0870674h 0.181345v -2.84223h 0.181345v 0.813457h 0.181345v 0.306944h 0.181345v 0.155829h 0.181345v 1.82871h 0.181345v 0.44821h 0.181345v
 -1.55521h 0.181345v 2.30104h 0.181345v -3.40937h 0.181345v -0.151934h 0.181345v 1.67654h 0.181345v 2.07708h 0.181345v -2.57527h 0.181345v -0.561291h 0.181345v 1.83879h 0.181345v -0.694669h 0.181345v -0.252525h 0.181345v 1.58223h 0.181345v -1.58223h
 0.181345v 1.12594h 0.181345v -1.29199h 0.181345v 2.50809h 0.181345v -0.573397h 0.181345v 0.37985h 0.181345v 0.193547h 0.181345v 0.394652h 0.181345v 0.201238h 0.181345v 1.15714h 0.181345v -2.51285h 0.181345v 1.87078h 0.181345v -0.413447h 0.36269v
 -1.45734h 0.181345v 0.470416h 0.181345v -0.283994h 0.181345v -0.0934971h 0.181345v 1.67344h 0.181345v 0.422061h 0.181345v 0.324423h 0.181345v -1.05551h 0.181345v 1.05551h 0.181345v 1.982h 0.181345v -3.34038h 0.181345v 2.14344h 0.181345v 0.586684h
 0.181345v -2.22194h 0.181345v -0.999915h 0.181345v 1.31319h 0.181345v -0.209565h 0.181345v 0.422061h 0.181345v 1.22503h 0.181345v -0.115538h 0.181345v 0.586684h 0.181345v 0.7353h 0.181345v -0.494132h 0.181345v -2.14984h 0.181345v 2.14984h 0.181345v
 -1.93734h 0.181345v 0.324423h 0.181345v -0.108912h 0.181345v 0.893977h 0.181345v 0.706789h 0.181345v -0.935263h 0.181345v 0.935263h 0.181345v -1.04822h 0.181345v 1.66342h 0.181345v -0.125048h 0.181345v 1.71187h 0.181345v -1.95892h 0.181345v
 -0.834348h 0.181345v 2.51702h 0.181345v -5.26773h 0.181345v 1.85011h 0.181345v 0.900603h 0.181345v 1.45967h 0.181345v 0.786032h 0.181345v -1.53339h 0.181345v -0.942518h 0.181345v 2.61096h 0.181345v -1.66844h 0.181345v -0.827851h 0.181345v 1.32198h
 0.181345v -2.3241h 0.181345v 3.49841h 0.181345v -1.17431h 0.181345v 0.905396h 0.181345v -1.27749h 0.181345v -1.06455h 0.181345v 2.61096h 0.181345v -2.83773h 0.181345v 0.573397h 0.181345v 2.40059h 0.181345v 0.137496h 0.181345v -1.69714h 0.181345v
 0.249075h 0.181345v 1.03926h 0.181345v -2.01196h 0.181345v -0.233747h 0.36269v 2.38076h 0.181345v -3.06116h 0.181345v 0.450203h 0.181345v 1.43665h 0.181345v 0.905396h 0.181345v -0.132693h 0.181345v -2.32316h 0.181345v 3.13728h 0.181345v -1.07608h
 0.181345v -0.635793h 0.181345v -0.369084h 0.181345v -0.121062h 0.181345v 0.36612h 0.181345v -0.605388h 0.181345v -0.351982h 0.181345v -1.33165h 0.181345v 2.53809h 0.181345v -3.36514h 0.181345v 4.0063h 0.181345v 0.131544h 0.181345v 0.53787h 0.181345v
 -1.68267h 0.181345v 0.753538h 0.181345v 0.657818h 0.181345v -0.133862h 0.181345v -1.8781h 0.181345v -0.69072h 0.181345v 1.41434h 0.181345v -0.723624h 0.181345v -0.233747h 0.181345v 2.2457h 0.181345v -1.77456h 0.181345v -1.69617h 0.181345v 0.107373h
 0.181345v 1.82997h 0.181345v -0.827851h 0.181345v -0.228474h 0.181345v 1.30138h 0.181345v -2.39489h 0.181345v -0.821456h 0.181345v 0.716312h 0.181345v -0.515074h 0.181345v 1.37733h 0.181345v -0.96668h 0.181345v -0.810498h 0.181345v -0.196044h
 0.181345v -0.75982h 0.181345v -0.36612h 0.181345v 2.66192h 0.181345v -3.6255h 0.181345v 1.14554h 0.181345v 0.654579h 0.181345v -2.05264h 0.36269v -0.891592h 0.181345v 0.398795h 0.181345v 0.916034h 0.181345v 0.435366h 0.181345v -2.36726h 0.36269v
 0.305402h 0.181345v -1.04308h 0.181345v 0.587251h 0.181345v 1.49304h 0.181345v -0.487525h 0.181345v 0.487525h 0.181345v -0.40735h 0.181345v -0.318194h 0.181345v -0.617069h 0.181345v 1.17836h 0.181345v -2.55065h 0.181345v 0.562777h 0.181345v
 -0.283994h 0.181345v 0.573397h 0.181345v 2.45201h 0.181345v -1.6265h 0.36269v -1.25758h 0.181345v -0.693875h 0.181345v -1.1114h 0.181345v -0.85791h 0.181345v 0.300866h 0.181345v -2.56611h 0.181345v 1.34066h 0.181345v -2.47759h 0.36269v -1.19044h
 0.181345v -0.688763h 0.181345v -1.21287h 0.181345v -1.58522h 0.181345v -1.24301h 0.181345v 1.13835h 0.181345v -1.80109h 0.181345v -1.63778h 0.181345v -0.220196h 0.181345v -1.38334h 0.181345v 1.16629h 0.181345v -0.160776h 0.181345v -0.65217h
 0.181345v 0.65217h 0.181345v -0.368658h 0.181345v 0.99443h 0.181345v -1.45564h 0.181345v -0.398534h 0.181345v 1.57893h 0.181345v 2.87406h 0.181345v -0.163898h 0.181345v -0.322586h 0.181345v 2.45417h 0.181345v -0.186422h 0.181345v 0.299384h 0.181345v
 4.49732h 0.181345v -1.68185h 0.181345v 2.95311h 0.181345v 1.44807h 0.181345v 2.36232h 0.181345v -0.693875h 0.181345v 2.34205h 0.181345v 0.4009h 0.181345v 1.99399h 0.181345v 0.662738h 0.181345v 2.98446h 0.181345v -1.02465h 0.181345v 0.333931h
 0.181345v 2.30458h 0.181345v 0.53315h 0.181345v 0.980548h 0.181345v -2.15486h 0.181345v -0.372098h 0.181345v 2.09895h 0.181345v -0.954148h 0.181345v -0.391264h 0.181345v 1.91881h 0.181345v -1.39485h 0.181345v 1.83956h 0.36269v -0.590102h 0.181345v
 -1.1156h 0.181345v 1.85688h 0.181345v -1.72183h 0.181345v -0.135052h 0.181345v 1.85688h 0.181345v -0.449094h 0.181345v -2.32096h 0.181345v -0.126086h 0.181345v 4.83834h 0.181345v -2.3913h 0.181345v 0.911867h 0.181345v -1.34807h 0.181345v 3.71624h
 0.181345v -5.34565h 0.181345v 3.13492h 0.181345v -0.313274h 0.181345v 1.8089h 0.181345v -3.28513h 0.181345v 1.01811h 0.181345v 1.41801h 0.36269v -2.15213h 0.181345v 1.19224h 0.181345v -1.04822h 0.181345v -2.15486h 0.181345v 5.18762h 0.181345v
 -4.54647h 0.181345v 4.19718h 0.181345v -1.7895h 0.181345v 1.44807h 0.181345v -3.04884h 0.181345v 1.60077h 0.181345v 1.7895h 0.181345v -0.341435h 0.181345v 0.341435h 0.181345v -1.47943h 0.181345v 3.90805h 0.181345v -5.25611h 0.181345v 2.48606h
 0.181345v -0.821456h 0.181345v 0.487525h 0.181345v -0.959891h 0.181345v 0.795639h 0.181345v 3.26824h 0.181345v -5.1121h 0.181345v 1.68137h 0.181345v -1.68137h 0.181345v 3.75639h 0.36269v -3.01511h 0.181345v 1.60077h 0.181345v 0.515074h 0.181345v
 2.45892h 0.181345v -3.14187h 0.181345v -3.94758h 0.181345v 4.4569h 0.181345v -1.7895h 0.181345v 2.31649h 0.181345v -2.16224h 0.181345v 1.12594h 0.181345v -0.653573h 0.181345v -2.22738h 0.181345v 7.08572h 0.181345v -3.52181h 0.36269v -2.56493h
 0.181345v 2.74058h 0.181345v -2.29149h 0.181345v 0.306944h 0.181345v 2.89459h 0.181345v -4.6496h 0.181345v 1.75501h 0.181345v 0.795639h 0.181345v -1.10258h 0.181345v -0.300866h 0.181345v -1.42096h 0.181345v 0.693875h 0.181345v -2.95821h 0.181345v
 1.47146h 0.181345v 0.929133h 0.181345v -3.84866h 0.181345v 3.57735h 0.181345v -5.09288h 0.181345v 0.688484h 0.181345v 2.74994h 0.181345v -0.935263h 0.181345v -4.05577h 0.181345v 0.893977h 0.181345v -2.61581h 0.181345v -2.2309h 0.181345v 0.20213h
 0.181345v -2.55374h 0.181345v 1.37943h 0.181345v -4.00547h 0.181345v -1.20497h 0.181345v 0.0893722h 0.181345v -0.354377h 0.181345v -2.68223h 0.181345v -0.14609h 0.181345v 0.744915h 0.181345v -3.76729h 0.181345v 0.515074h 0.181345v 1.21868h 0.181345v
 -2.23193h 0.181345v 0.647871h 0.181345v -0.0300559h 0.181345v 0.0300559h 0.181345v -0.17945h 0.181345v -0.236016h 0.181345v 1.83348h 0.181345v -1.508h 0.181345v 0.363202h 0.36269v 1.88938h 0.181345v 0.422061h 0.181345v 1.45877h 0.181345v 0.764854h
 0.181345v 1.337h 0.181345v 0.929539h 0.181345v 2.21477h 0.181345v 2.85903h 0.181345v -1.52696h 0.181345v 2.70964h 0.181345v 0.515074h 0.181345v 2.16841h 0.181345v 3.26133h 0.181345v 0.434122h 0.181345v -0.434122h 0.181345v 3.74204h 0.181345v
 2.52565h 0.181345v 1.17575h 0.181345v 1.27443h 0.181345v 3.15471h 0.181345v -1.12594h 0.181345v 0.440414h 0.181345v 3.78639h 0.181345v -0.562777h 0.181345v 0.85218h 0.181345v 5.17065h 0.181345v -4.26781h 0.181345v 0.313274h 0.181345v -3.13492h
 0.181345v 0.523956h 0.181345v 6.98178h 0.181345v -3.04884h 0.181345v -1.63526h 0.181345v 0.959891h 0.181345v 1.02465h 0.181345v -2.59235h 0.181345v 1.90163h 0.181345v -0.980548h 0.181345v 3.54936h 0.181345v -3.54936h 0.181345v 1.32198h 0.181345v
 -0.675366h 0.181345v 5.51371h 0.181345v 0.482365h 0.181345v -5.99607h 0.181345v -2.98866h 0.181345v 7.58129h 0.181345v -7.30753h 0.181345v 6.02283h 0.181345v -4.57476h 0.181345v 5.41904h 0.181345v -3.12756h 0.181345v -1.02465h 0.36269v 1.02465h
 0.181345v 3.12756h 0.181345v -6.86711h 0.181345v 7.30753h 0.181345v -3.91726h 0.36269v -0.675366h 0.181345v 0.333931h 0.181345v 2.56882h 0.181345v -5.61765h 0.181345v 2.06829h 0.181345v 3.15471h 0.181345v -1.83273h 0.181345v 2.22738h 0.181345v
 -2.22738h 0.181345v 3.04884h 0.181345v -0.821456h 0.181345v -5.33887h 0.181345v 5.33887h 0.181345v -3.86264h 0.181345v 3.46799h 0.181345v -2.83484h 0.181345v 1.3514h 0.181345v -2.88738h 0.181345v 7.8588h 0.181345v -6.64269h 0.181345v 3.15471h
 0.181345v -0.384659h 0.181345v -2.77005h 0.181345v -0.620218h 0.36269v -0.300866h 0.181345v 1.5677h 0.181345v -2.15213h 0.181345v 0.885293h 0.181345v 4.16958h 0.181345v -6.42456h 0.181345v 4.54647h 0.181345v -2.59235h 0.181345v 2.24307h 0.181345v
 -2.82749h 0.181345v 1.50551h 0.181345v 3.15471h 0.181345v -1.48344h 0.181345v -0.349285h 0.181345v 1.83273h 0.181345v 3.98616h 0.181345v -7.76109h 0.181345v 1.26684h 0.181345v -3.52181h 0.181345v 3.19507h 0.181345v -0.633143h 0.181345v 3.86264h
 0.181345v -2.22738h 0.181345v 1.44807h 0.181345v -0.37516h 0.181345v -1.07291h 0.181345v 0.349285h 0.181345v 2.69955h 0.181345v -6.98178h 0.181345v 5.76567h 0.181345v -0.75982h 0.181345v 1.97593h 0.181345v -0.821456h 0.181345v -1.15447h 0.181345v
 -0.36612h 0.181345v 4.13155h 0.181345v -5.51371h 0.181345v 5.99607h 0.181345v -4.2478h 0.181345v 2.84435h 0.181345v -1.2847h 0.181345v 0.416279h 0.181345v 1.32198h 0.181345v -0.453563h 0.181345v -8.11444h 0.181345v -0.25972h 0.181345v 3.45479h
 0.181345v 2.83484h 0.181345v -1.12594h 0.181345v 0.74128h 0.181345v 2.46919h 0.181345v -1.68988h 0.181345v -5.33887h 0.181345v 3.46077h 0.181345v 0.357504h 0.181345v 4.61392h 0.181345v -4.97142h 0.181345v -2.59235h 0.181345v 2.24307h 0.181345v
 -0.341435h 0.181345v 1.41434h 0.181345v 2.84435h 0.181345v 1.90163h 0.181345v -7.76109h 0.181345v 2.29149h 0.181345v 3.56797h 0.181345v -0.868421h 0.181345v -1.97593h 0.181345v 6.92014h 0.181345v -5.3605h 0.181345v -1.18449h 0.181345v -4.27556h
 0.181345v 4.66022h 0.181345v 3.00561h 0.181345v -7.37643h 0.181345v 5.58693h 0.181345v -3.04884h 0.181345v 5.32071h 0.181345v -1.84386h 0.181345v -3.47684h 0.181345v 1.83273h 0.181345v 1.64411h 0.181345v -3.12756h 0.181345v 0.357504h 0.181345v
 -2.64899h 0.181345v 4.99104h 0.181345v -1.60077h 0.181345v 4.88589h 0.181345v -5.62717h 0.181345v 6.16032h 0.181345v -2.49629h 0.181345v -0.893977h 0.181345v 0.440414h 0.181345v -1.2847h 0.181345v 5.3605h 0.181345v -3.15471h 0.181345v 1.49562h
 0.181345v -1.01326h 0.181345v 1.01326h 0.181345v -6.6754h 0.181345v 5.17978h 0.181345v -0.467521h 0.181345v 5.48496h 0.181345v -7.6284h 0.181345v 1.24946h 0.181345v 5.73232h 0.181345v 0.646618h 0.181345v -5.48496h 0.181345v -0.893977h 0.181345v
 2.34205h 0.181345v 2.77005h 0.181345v -1.16929h 0.181345v -0.552542h 0.181345v 2.34205h 0.181345v 0.646618h 0.181345v -4.53507h 0.181345v -1.84386h 0.181345v 5.1121h 0.181345v -4.21812h 0.181345v 8.3877h 0.181345v -7.92018h 0.36269v 4.37082h
 0.36269v -0.620218h 0.181345v 0.620218h 0.181345v 1.32198h 0.181345v 0.706789h 0.181345v 5.1121h 0.181345v -10.0161h 0.181345v 10.0161h 0.181345v -3.59151h 0.181345v 1.68988h 0.181345v 4.0758h 0.181345v -10.5311h 0.181345v 6.45535h 0.181345v
 -2.46919h 0.181345v 6.54498h 0.181345v -4.94422h 0.181345v -1.60077h 0.181345v 6.54498h 0.181345v 1.21611h 0.181345v -6.16032h 0.181345v 1.7895h 0.181345v -0.921084h 0.181345v -2.46919h 0.181345v 4.37082h 0.181345v 9.55059h 0.181345v -13.9214h
 0.181345v -3.98616h 0.181345v 3.98616h 0.181345v 12.1319h 0.181345v -1.60077h 0.181345v -1.44807h 0.181345v -7.48231h 0.181345v 1.7895h 0.181345v 0.980548h 0.181345v 3.39027h 0.181345v -6.16032h 0.181345v 7.48231h 0.181345v -2.53809h 0.181345v
 -8.66842h 0.181345v 4.59262h 0.181345v 5.2919h 0.181345v -2.34205h 0.181345v 3.66403h 0.181345v -3.66403h 0.181345v -1.04822h 0.36269v -5.1121h 0.181345v 8.50237h 0.181345v 1.32198h 0.181345v -2.53809h 0.181345v -4.0758h 0.181345v 9.66272h 0.181345v
 -3.04884h 0.181345v 6.86711h 0.181345v -10.5311h 0.181345v 2.34205h 0.181345v 1.32198h 0.181345v -3.66403h 0.181345v 1.12594h 0.181345v 2.53809h 0.181345v -7.48231h 0.181345v 3.81828h 0.181345v -4.63973h 0.181345v 3.59151h 0.544034v -1.90163h
 0.181345v 1.90163h 0.181345v -1.90163h 0.181345v -5.23924h 0.181345v 4.37082h 0.36269v -4.37082h 0.181345v 9.31504h 0.181345v -7.28626h 0.181345v 4.13155h 0.181345v 0.980548h 0.181345v -1.90163h 0.181345v -8.11444h 0.181345v 1.08569h 0.181345v
 1.7895h 0.181345v 2.77005h 0.181345v 0.779311h 0.181345v -0.779311h 0.181345v -1.44807h 0.181345v -3.11149h 0.181345v -2.58131h 0.181345v 1.49562h 0.181345v 1.08569h 0.181345v 0.573397h 0.181345v -2.17416h 0.181345v 1.60077h 0.181345v 3.81828h
 0.181345v 0.74128h 0.181345v -6.65851h 0.181345v 5.21044h 0.181345v -3.11149h 0.181345v -2.09895h 0.181345v 6.65851h 0.181345v 3.39027h 0.181345v -7.94983h 0.36269v 1.7895h 0.181345v -0.620218h 0.181345v 5.85946h 0.181345v -2.46919h 0.181345v
 -1.44807h 0.181345v -3.11149h 0.181345v -3.04884h 0.181345v 1.96314h 0.181345v -3.28513h 0.181345v 10.5311h 0.181345v -5.58693h 0.181345v -2.67235h 0.181345v -3.09333h 0.181345v 5.19228h 0.181345v -5.97159h 0.181345v -2.12344h 0.181345v 0.333931h
 0.181345v 1.04822h 0.181345v -4.09706h 0.181345v 2.38816h 0.181345v 1.3514h 0.181345v -4.01332h 0.181345v 0.273759h 0.181345v -6.43408h 0.181345v 0.552542h 0.181345v -1.08569h 0.181345v 0.89927h 0.181345v -0.89927h 0.181345v 0.353347h 0.181345v
 1.30574h 0.181345v -4.66022h 0.181345v -0.14266h 0.181345v -2.36232h 0.181345v 2.08095h 0.181345v -3.58417h 0.181345v 1.74827h 0.181345v -2.28902h 0.181345v 0.987633h 0.181345v -2.69428h 0.181345v 0.879596h 0.181345v 2.15869h 0.181345v -5.32598h
 0.181345v 4.20832h 0.181345v -2.38816h 0.181345v -1.06663h 0.181345v 0.435366h 0.181345v -0.0880769h 0.181345v 1.57152h 0.181345v -0.193547h 0.181345v -0.0958566h 0.181345v -1.88476h 0.181345v -0.74128h 0.181345v -0.239268h 0.181345v 4.05755h
 0.181345v -3.49328h 0.181345v -1.18449h 0.181345v -0.300866h 0.181345v 1.6505h 0.181345v -1.8723h 0.181345v -2.31056h 0.181345v 2.31056h 0.181345v 0.522669h 0.181345v -2.18935h 0.181345v 3.29193h 0.181345v -1.77134h 0.181345v 1.13153h 0.181345v
 -0.68898h 0.181345v 1.91161h 0.181345v -2.6422h 0.181345v 1.97791h 0.181345v -0.791493h 0.181345v 0.469931h 0.181345v 2.78597h 0.181345v 0.784341h 0.181345v -2.15403h 0.181345v 0.623857h 0.181345v 3.92261h 0.181345v -2.18986h 0.181345v 0.731087h
 0.181345v 2.6847h 0.181345v -1.80368h 0.181345v 1.9319h 0.181345v 4.11547h 0.181345v -1.13799h 0.181345v 2.18622h 0.181345v 2.34205h 0.181345v -1.60077h 0.181345v 3.87264h 0.181345v 2.96737h 0.181345v 0.300866h 0.181345v 1.26684h 0.181345v
 -0.959891h 0.181345v 1.29382h 0.181345v 5.66214h 0.181345v -0.949886h 0.181345v 0.467521h 0.181345v 10.5311h 0.181345v -9.03552h 0.181345v 9.03552h 0.181345v -4.13155h 0.181345v 4.13155h 0.181345v 3.15471h 0.181345v -4.0758h 0.181345v 6.61389h
 0.181345v 3.04884h 0.181345v 3.81828h 0.181345v -12.5599h 0.181345v 10.5311h 0.181345v -4.83834h 0.181345v -3.66403h 0.181345v 8.50237h 0.181345v 2.02877h 0.181345v -6.86711h 0.181345v 9.20916h 0.181345v 2.77005h 0.181345v -2.77005h 0.181345v
 -2.34205h 0.181345v 2.34205h 0.181345v -2.34205h 0.181345v 12.8732h 0.181345v -12.8732h 0.181345v 29.5647h 0.181345v -29.5647h 0.181345v 5.1121h 0.181345v -5.1121h 0.181345v 8.50237h 0.181345v -6.16032h 0.181345v 37.7538h 0.181345v -10.5311h
 0.181345v -27.2226h 0.181345v 6.16032h 0.181345v -3.39027h 0.181345v 7.76109h 0.181345v -4.37082h 0.181345v 31.5934h 0.181345v -37.7538h 0.181345v 2.77005h 0.181345v 34.9837h 0.181345v -10.5311h 0.181345v -10.5311h 0.181345v -21.0623h 0.181345v
 10.5311h 0.181345v -3.39027h 0.181345v 3.39027h 0.181345v 31.5934h 0.181345v -27.2226h 0.181345v -4.37082h 0.181345v -6.16032h 0.181345v 16.6915h 0.181345v -21.0623h 0.181345v 7.14087h 0.181345v 7.76109h 0.181345v -10.5311h 0.181345v 6.16032h
 0.181345v -3.39027h 0.36269v 24.4526h 0.36269v -27.2226h 0.181345v 10.5311h 0.181345v -7.76109h 0.181345v 13.9214h 0.181345v -13.9214h 0.181345v 3.39027h 0.36269v 10.5311h 0.181345v -19.0335h 0.181345v 5.1121h 0.181345v 7.76109h 0.181345v -23.4043h
 0.181345v 40.0958h 0.181345v -24.4526h 0.181345v 13.9214h 0.181345v -16.6915h 0.181345v -2.34205h 0.181345v 5.1121h 0.181345v 7.76109h 0.181345v -19.7403h 0.181345v 9.20916h 0.36269v -2.34205h 0.181345v 19.0335h 0.181345v -16.6915h 0.181345v
 -4.37082h 0.181345v -3.39027h 0.181345v 3.39027h 0.181345v -6.16032h 0.181345v 13.3012h 0.36269v -8.93038h 0.181345v -4.37082h 0.181345v 1.32198h 0.181345v 6.86711h 0.36269v -2.02877h 0.181345v 4.37082h 0.181345v -6.16032h 0.181345v -1.60077h
 0.181345v 3.39027h 0.181345v -7.37643h 0.181345v 5.58693h 0.181345v -4.37082h 0.181345v 6.16032h 0.181345v -6.16032h 0.181345v 4.37082h 0.36269v -8.74164h 0.181345v 21.0623h 0.181345v -15.3695h 0.181345v -3.66403h 0.181345v 10.5311h 0.181345v
 -3.81828h 0.181345v 3.81828h 0.181345v -10.5311h 0.181345v -2.02877h 0.181345v 7.14087h 0.36269v 7.76109h 0.181345v 2.77005h 0.36269v -11.9792h 0.181345v 4.83834h 0.181345v 7.14087h 0.181345v -5.1121h 0.181345v 2.34205h 0.181345v 6.16032h 0.181345v
 -3.39027h 0.181345v 7.76109h 0.181345v 16.6915h 0.181345v -24.4526h 0.181345v 13.9214h 0.181345v -6.16032h 0.181345v -4.37082h 0.181345v 10.5311h 0.181345v -6.16032h 0.181345v -10.5311h 0.181345v 2.77005h 0.181345v 3.39027h 0.181345v -6.16032h
 0.181345v 27.2226h 0.36269v -21.0623h 0.181345v 21.0623h 0.181345v -29.5647h 0.181345v 19.0335h 0.181345v -19.0335h 0.181345v 12.8732h 0.36269v 16.6915h 0.181345v -27.2226h 0.181345v 10.5311h 0.181345v -4.37082h 0.181345v 10.5311h 0.36269v 10.5311h
 0.181345v -24.4526h 0.181345v 3.39027h 0.181345v 4.37082h 0.36269v 16.6915h 0.181345v -21.0623h 0.181345v 4.37082h 0.36269v 27.2226h 0.181345v -27.2226h 0.181345v 16.6915h 0.181345v -24.4526h 0.181345v 3.39027h 0.181345v 10.5311h 0.181345v -10.5311h
 0.181345v -10.5311h 0.181345v 7.14087h 0.181345v 13.9214h 0.181345v -10.5311h 0.181345v -10.5311h 0.181345v 21.0623h 0.181345v -6.16032h 0.181345v 16.6915h 0.181345v -21.0623h 0.181345v 21.0623h 0.181345v -21.0623h 0.36269v -3.39027h 0.181345v
 -2.77005h 0.181345v 6.16032h 0.181345v 10.5311h 0.36269v -6.16032h 0.544034v -7.76109h 0.181345v 3.39027h 0.181345v -8.50237h 0.181345v 12.8732h 0.181345v -4.37082h 0.181345v -3.39027h 0.544034v 3.39027h 0.181345v -8.50237h 0.181345v 5.1121h
 0.36269v -5.1121h 0.181345v 2.34205h 0.181345v 6.16032h 0.181345v -3.39027h 0.181345v -5.1121h 0.181345v 5.1121h 0.181345v -5.1121h 0.181345v -8.1891h 0.181345v 21.0623h 0.36269v -7.76109h 0.181345v -2.77005h 0.181345v -6.16032h 0.181345v 3.81828h
 0.36269v 8.50237h 0.181345v -3.39027h 0.181345v -7.14087h 0.181345v -3.39027h 0.181345v 10.5311h 0.181345v -8.93038h 0.181345v 12.3206h 0.181345v -8.50237h 0.181345v 5.1121h 0.36269v -5.1121h 0.181345v 2.34205h 0.181345v -7.76109h 0.181345v 7.76109h
 0.181345v 6.16032h 0.181345v -3.39027h 0.181345v -8.93038h 0.181345v 6.16032h 0.36269v 6.16032h 0.181345v 4.37082h 0.181345v -12.8732h 0.181345v 8.50237h 0.181345v -6.16032h 0.181345v 6.16032h 0.181345v -8.50237h 0.181345v 5.1121h 0.181345v
 -2.77005h 0.181345v 2.77005h 0.181345v -5.1121h 0.36269v 2.34205h 0.181345v -10.5311h 0.181345v 16.6915h 0.36269v -6.16032h 0.181345v 10.5311h 0.181345v -7.76109h 0.181345v 24.4526h 0.181345v -36.4318h 0.181345v 11.9792h 0.36269v 3.39027h 0.181345v
 -6.16032h 0.36269v 10.5311h 0.181345v -7.76109h 0.181345v 3.39027h 0.181345v -15.3695h 0.181345v 15.3695h 0.181345v -6.16032h 0.181345v -6.16032h 0.181345v 6.16032h 0.36269v 2.77005h 0.181345v 3.39027h 0.181345v -13.9214h 0.181345v 7.76109h
 0.181345v -4.37082h 0.181345v 4.37082h 0.181345v 10.5311h 0.36269v -4.37082h 0.36269v -10.5311h 0.181345v -1.7895h 0.181345v 16.6915h 0.181345v -10.5311h 0.181345v -9.20916h 0.181345v 4.83834h 0.181345v 7.14087h 0.181345v 3.39027h 0.181345v 4.37082h
 0.181345v -16.6915h 0.181345v -1.60077h 0.181345v 5.41904h 0.544034v -8.1891h 0.181345v 8.1891h 0.181345v -2.02877h 0.36269v 14.902h 0.181345v -10.5311h 0.181345v 6.16032h 0.181345v 4.37082h 0.181345v -7.76109h 0.181345v -8.93038h 0.181345v
 -1.60077h 0.181345v 1.60077h 0.181345v -4.37082h 0.181345v 8.1891h 0.181345v 5.1121h 0.181345v -5.1121h 0.181345v -3.81828h 0.181345v -6.71287h 0.181345v 6.71287h 0.181345v 1.7895h 0.181345v -1.7895h 0.181345v -1.60077h 0.36269v 1.60077h 0.181345v
 12.3206h 0.181345v -10.5311h 0.181345v -3.39027h 0.181345v 3.39027h 0.181345v -3.39027h 0.181345v 1.60077h 0.36269v 1.7895h 0.181345v -4.83834h 0.181345v -3.66403h 0.181345v 8.50237h 0.181345v -3.39027h 0.36269v -8.93038h 0.181345v 6.16032h
 0.181345v 10.5311h 0.181345v -7.76109h 0.36269v 10.5311h 0.181345v -8.93038h 0.181345v -5.58693h 0.181345v -4.0758h 0.181345v 2.94986h 0.181345v 1.12594h 0.181345v 5.58693h 0.181345v -7.76109h 0.181345v 6.16032h 0.181345v 1.60077h 0.181345v
 -3.04884h 0.544034v -4.71225h 0.36269v 1.04822h 0.181345v 2.34205h 0.181345v 2.77005h 0.181345v -3.98616h 0.181345v -2.17416h 0.181345v 6.16032h 0.36269v 10.5311h 0.181345v -5.1121h 0.181345v -8.1891h 0.181345v -2.34205h 0.181345v 3.66403h 0.36269v
 -7.48231h 0.181345v 2.77005h 0.181345v -0.980548h 0.181345v 5.6928h 0.181345v 4.83834h 0.181345v -10.5311h 0.36269v 0.980548h 0.181345v 1.04822h 0.181345v -2.02877h 0.181345v 2.02877h 0.181345v -2.02877h 0.181345v -1.7895h 0.181345v 7.48231h
 0.181345v 3.04884h 0.181345v -6.71287h 0.36269v -8.80931h 0.181345v 7.76109h 0.181345v 4.71225h 0.181345v -4.71225h 0.181345v -0.980548h 0.181345v 5.6928h 0.36269v -7.48231h 0.181345v 8.93038h 0.181345v -5.1121h 0.181345v 6.71287h 0.181345v
 -7.76109h 0.181345v 7.76109h 0.181345v -3.04884h 0.181345v -9.08307h 0.181345v 4.37082h 0.181345v -11.9792h 0.181345v 10.0776h 0.181345v -6.45535h 0.181345v 8.35698h 0.181345v 4.71225h 0.181345v -7.48231h 0.181345v -0.821456h 0.181345v 8.30376h
 0.181345v -13.6426h 0.181345v 8.93038h 0.181345v -4.37082h 0.181345v 2.46919h 0.181345v 1.90163h 0.181345v -0.980548h 0.181345v -0.921084h 0.181345v -5.85946h 0.181345v 3.39027h 0.181345v -3.39027h 0.181345v 1.9422h 0.181345v 3.04884h 0.36269v
 -2.34205h 0.181345v -0.706789h 0.181345v -1.9422h 0.181345v -1.72183h 0.181345v 9.48292h 0.181345v -7.76109h 0.181345v 1.9422h 0.181345v 2.22738h 0.181345v 4.63973h 0.181345v -6.86711h 0.181345v 3.04884h 0.181345v 0.868421h 0.181345v 4.0758h
 0.181345v -4.0758h 0.181345v -2.46919h 0.181345v 1.60077h 0.181345v 4.94422h 0.181345v -9.31504h 0.181345v 0.646618h 0.181345v 2.90275h 0.181345v 2.61096h 0.181345v -5.51371h 0.181345v 0.675366h 0.181345v -2.53809h 0.181345v 1.21611h 0.181345v
 1.32198h 0.181345v -0.675366h 0.181345v 2.12344h 0.181345v -1.44807h 0.181345v 1.44807h 0.181345v -1.44807h 0.181345v 5.81889h 0.181345v -5.81889h 0.181345v -0.675366h 0.181345v 2.90275h 0.181345v 2.61096h 0.181345v 0.980548h 0.181345v -1.90163h
 0.181345v -3.21047h 0.36269v 2.34205h 0.181345v 0.868421h 0.181345v -0.868421h 0.181345v 3.81828h 0.181345v -2.94986h 0.181345v 0.921084h 0.181345v -3.39027h 0.181345v 3.39027h 0.181345v -6.16032h 0.181345v 7.14087h 0.181345v -3.59151h 0.36269v
 5.76567h 0.181345v -1.12594h 0.181345v -1.04822h 0.181345v -3.59151h 0.181345v 2.61096h 0.181345v 12.5599h 0.181345v -9.4052h 0.181345v 5.58693h 0.181345v -13.58h 0.181345v 3.91726h 0.181345v 6.61389h 0.181345v -4.71225h 0.181345v -2.77005h 0.36269v
 3.81828h 0.181345v 2.34205h 0.181345v -6.16032h 0.181345v 10.5311h 0.181345v -5.58693h 0.181345v -1.12594h 0.181345v 1.12594h 0.181345v -5.76567h 0.181345v 15.1709h 0.181345v -8.1891h 0.36269v -5.2919h 0.181345v 2.94986h 0.181345v -2.02877h 0.36269v
 10.5311h 0.181345v -6.16032h 0.181345v -3.39027h 0.181345v -2.77005h 0.181345v 10.5311h 0.181345v -10.5311h 0.181345v 2.77005h 0.181345v 6.16032h 0.181345v -9.75183h 0.181345v 5.76567h 0.181345v 5.58693h 0.181345v 6.16032h 0.181345v -9.20916h
 0.181345v -3.66403h 0.181345v -4.63973h 0.181345v 5.76567h 0.181345v -4.0758h 0.181345v 1.90163h 0.181345v 6.16032h 0.181345v -11.2724h 0.181345v 5.1121h 0.181345v 2.17416h 0.181345v -4.0758h 0.181345v 5.2919h 0.181345v 1.32198h 0.181345v -5.6928h
 0.181345v -5.51371h 0.181345v 12.6546h 0.181345v -2.77005h 0.181345v -1.21611h 0.181345v -3.15471h 0.181345v 3.15471h 0.181345v -5.76567h 0.181345v 5.76567h 0.181345v 2.53809h 0.544034v 1.44807h 0.181345v -2.77005h 0.181345v 2.77005h 0.181345v
 1.60077h 0.181345v -6.71287h 0.181345v 3.66403h 0.36269v 6.86711h 0.181345v -3.81828h 0.181345v -8.74164h 0.36269v 2.02877h 0.181345v -1.04822h 0.181345v -0.980548h 0.181345v -4.83834h 0.181345v 6.86711h 0.181345v -6.16032h 0.181345v 5.1121h
 0.181345v -4.37082h 0.181345v 0.779311h 0.181345v 4.63973h 0.181345v -1.04822h 0.181345v -5.81889h 0.181345v 5.81889h 0.36269v 2.17416h 0.36269v 3.98616h 0.36269v -8.93038h 0.181345v 1.7895h 0.181345v 2.02877h 0.181345v 1.12594h 0.181345v 2.53809h
 0.181345v -4.71225h 0.181345v 6.16032h 0.181345v -5.1121h 0.181345v 3.66403h 0.181345v -9.82435h 0.181345v 8.50237h 0.181345v -6.16032h 0.181345v 3.81828h 0.181345v 3.66403h 0.181345v -9.08307h 0.181345v 4.37082h 0.181345v -7.14087h 0.181345v
 10.5311h 0.181345v 4.37082h 0.181345v -10.5311h 0.181345v -1.60077h 0.181345v 6.54498h 0.181345v 1.21611h 0.181345v 4.37082h 0.181345v -11.3526h 0.181345v 3.59151h 0.181345v -2.77005h 0.181345v 3.81828h 0.181345v -1.04822h 0.181345v -0.980548h
 0.181345v 4.37082h 0.181345v -8.50237h 0.181345v 2.34205h 0.181345v 1.7895h 0.181345v -2.61096h 0.181345v 8.30376h 0.181345v -9.82435h 0.181345v -0.706789h 0.181345v 15.3695h 0.181345v -10.5311h 0.181345v -5.51371h 0.181345v -2.43612h 0.181345v
 3.11149h 0.181345v 9.20916h 0.181345v -2.34205h 0.181345v 1.12594h 0.181345v -3.15471h 0.181345v 5.6928h 0.181345v -10.5311h 0.36269v 15.3695h 0.181345v -13.1421h 0.181345v 11.3526h 0.181345v -8.74164h 0.181345v -4.13155h 0.181345v 4.13155h
 0.181345v 0.980548h 0.181345v -7.76109h 0.181345v 3.39027h 0.181345v 2.46919h 0.181345v -2.46919h 0.181345v 12.1319h 0.181345v -5.58693h 0.181345v -4.94422h 0.181345v 4.94422h 0.181345v -4.0758h 0.36269v 6.61389h 0.181345v -6.61389h 0.181345v
 1.90163h 0.181345v -8.93038h 0.181345v 3.11149h 0.181345v 3.04884h 0.181345v -2.34205h 0.181345v 3.21047h 0.181345v -1.68988h 0.181345v 4.63973h 0.181345v -2.02877h 0.181345v -3.39027h 0.181345v -2.12344h 0.181345v 1.38215h 0.181345v -3.24488h
 0.181345v 5.58693h 0.181345v -6.16032h 0.181345v 7.02874h 0.181345v -3.91726h 0.181345v 3.91726h 0.181345v -1.68988h 0.36269v -6.42456h 0.181345v 19.5667h 0.181345v -10.5311h 0.181345v 3.15471h 0.181345v -4.94422h 0.181345v 2.77005h 0.181345v
 -3.59151h 0.181345v 3.59151h 0.181345v 3.39027h 0.181345v -1.21611h 0.181345v -1.12594h 0.181345v -8.80931h 0.181345v 4.99104h 0.181345v -3.7242h 0.181345v 2.12344h 0.181345v 2.46919h 0.181345v 6.61389h 0.181345v -9.82435h 0.181345v 2.34205h
 0.181345v -0.821456h 0.181345v 11.3526h 0.181345v -6.71287h 0.181345v -2.94986h 0.181345v 0.921084h 0.181345v -3.39027h 0.181345v 10.5311h 0.181345v -3.98616h 0.181345v 3.98616h 0.181345v -6.16032h 0.181345v 4.71225h 0.181345v -1.32198h 0.181345v
 -1.21611h 0.181345v -1.12594h 0.181345v 1.12594h 0.36269v -2.17416h 0.181345v 2.17416h 0.36269v -6.54498h 0.181345v 5.41904h 0.181345v 15.6432h 0.181345v -11.9792h 0.181345v 1.44807h 0.181345v 1.60077h 0.181345v 1.7895h 0.181345v -4.83834h 0.181345v
 1.44807h 0.36269v -1.44807h 0.36269v -3.66403h 0.181345v 1.12594h 0.181345v 1.21611h 0.181345v -2.34205h 0.181345v 2.34205h 0.181345v -5.2919h 0.181345v 5.2919h 0.181345v 2.77005h 0.181345v -9.75183h 0.181345v 9.75183h 0.36269v -7.14087h 0.181345v
 0.980548h 0.181345v -0.980548h 0.181345v 4.37082h 0.181345v 1.32198h 0.181345v -2.53809h 0.181345v 5.58693h 0.181345v -8.74164h 0.181345v 2.02877h 0.181345v 2.34205h 0.36269v -6.16032h 0.181345v 0.868421h 0.181345v 4.0758h 0.181345v -1.12594h
 0.181345v 5.1121h 0.181345v -7.14087h 0.181345v 5.6928h 0.181345v 3.04884h 0.181345v -6.71287h 0.181345v 5.1121h 0.181345v 7.76109h 0.181345v -4.37082h 0.181345v -4.83834h 0.36269v 11.9792h 0.181345v -13.3012h 0.181345v -2.34205h 0.181345v 2.34205h
 0.181345v -2.34205h 0.181345v 3.66403h 0.181345v 1.44807h 0.181345v 1.60077h 0.181345v -6.71287h 0.181345v 6.71287h 0.181345v -1.60077h 0.181345v -1.44807h 0.181345v 4.83834h 0.181345v -3.39027h 0.181345v 1.60077h 0.181345v -1.60077h 0.181345v
 -6.16032h 0.181345v 11.5794h 0.181345v 2.34205h 0.181345v -6.16032h 0.181345v -1.60077h 0.181345v 3.39027h 0.181345v 14.902h 0.181345v -12.8732h 0.181345v -3.81828h 0.181345v 6.16032h 0.181345v 2.77005h 0.181345v -10.5311h 0.181345v 1.60077h
 0.181345v 8.93038h 0.181345v 7.76109h 0.181345v -12.8732h 0.181345v 5.1121h 0.181345v -2.77005h 0.181345v -10.5311h 0.181345v 13.3012h 0.181345v -7.14087h 0.181345v 10.5311h 0.181345v -15.3695h 0.181345v 9.20916h 0.181345v -6.16032h 0.181345v
 16.6915h 0.181345v -7.76109h 0.181345v -2.77005h 0.181345v -6.16032h 0.181345v 16.6915h 0.181345v -12.8732h 0.36269v 19.0335h 0.181345v -13.9214h 0.181345v -7.14087h 0.181345v 10.5311h 0.181345v -6.16032h 0.181345v -4.37082h 0.181345v 21.0623h
 0.181345v -16.6915h 0.181345v -2.34205h 0.181345v 2.34205h 0.181345v -7.76109h 0.181345v -2.77005h 0.181345v 1.32198h 0.181345v 11.9792h 0.181345v -2.77005h 0.36269v -2.34205h 0.36269v -6.86711h 0.181345v 9.20916h 0.181345v 2.77005h 0.181345v
 3.39027h 0.181345v -12.3206h 0.36269v -6.71287h 0.181345v 19.0335h 0.181345v -3.39027h 0.181345v -7.14087h 0.181345v 2.02877h 0.36269v -3.81828h 0.181345v 8.93038h 0.181345v 3.39027h 0.181345v 4.37082h 0.181345v -19.7403h 0.181345v 4.83834h
 0.181345v -4.83834h 0.181345v -4.71225h 0.181345v 3.39027h 0.181345v 1.32198h 0.181345v 25.9006h 0.181345v -22.8518h 0.181345v -1.60077h 0.181345v 3.39027h 0.181345v 4.37082h 0.36269v 2.77005h 0.181345v -13.3012h 0.181345v 1.32198h 0.181345v
 -1.32198h 0.181345v 8.1891h 0.181345v -3.81828h 0.181345v -7.76109h 0.181345v 11.5794h 0.181345v 5.1121h 0.181345v -8.93038h 0.181345v -5.58693h 0.181345v -1.12594h 0.181345v 3.66403h 0.181345v -4.71225h 0.181345v 11.5794h 0.181345v -3.81828h
 0.181345v -4.37082h 0.36269v 13.3012h 0.181345v -11.9792h 0.181345v 15.3695h 0.36269v -10.5311h 0.181345v 2.02877h 0.181345v -6.86711h 0.181345v 3.04884h 0.181345v -5.58693h 0.181345v 7.37643h 0.181345v 4.37082h 0.181345v -9.20916h 0.181345v
 6.86711h 0.181345v 2.34205h 0.181345v 2.77005h 0.181345v -8.93038h 0.181345v 1.7895h 0.181345v -1.7895h 0.181345v 8.93038h 0.181345v -5.1121h 0.36269v 2.34205h 0.181345v -4.37082h 0.181345v -3.39027h 0.181345v 5.41904h 0.181345v -6.86711h 0.181345v
 11.9792h 0.181345v -11.9792h 0.181345v 4.83834h 0.544034v -8.50237h 0.181345v 8.50237h 0.36269v -4.83834h 0.36269v 4.83834h 0.181345v -6.16032h 0.36269v 1.32198h 0.181345v 1.44807h 0.181345v -1.44807h 0.181345v -9.08307h 0.181345v 6.54498h 0.181345v
 2.53809h 0.181345v 3.04884h 0.181345v 1.7895h 0.181345v -16.0448h 0.181345v 7.54248h 0.181345v -4.63973h 0.181345v 8.30376h 0.181345v 9.20916h 0.181345v -18.2922h 0.181345v 1.60077h 0.181345v 4.94422h 0.181345v 5.58693h 0.181345v 3.81828h 0.181345v
 -14.3494h 0.181345v 3.81828h 0.181345v -2.02877h 0.36269v 2.02877h 0.181345v 8.50237h 0.181345v -8.50237h 0.181345v 5.1121h 0.181345v -5.1121h 0.181345v 6.71287h 0.181345v -8.74164h 0.181345v 0.980548h 0.181345v 4.71225h 0.181345v 1.44807h 0.181345v
 -8.93038h 0.181345v 8.93038h 0.181345v -3.98616h 0.181345v 5.58693h 0.181345v -5.58693h 0.181345v 2.53809h 0.181345v -4.71225h 0.181345v -1.90163h 0.181345v 4.0758h 0.181345v -4.94422h 0.36269v 7.48231h 0.181345v -4.71225h 0.181345v -5.1121h
 0.181345v 7.28626h 0.181345v -2.17416h 0.181345v -6.49425h 0.181345v 7.54248h 0.181345v 19.0335h 0.181345v -10.5311h 0.181345v -6.16032h 0.181345v 2.77005h 0.181345v -1.44807h 0.181345v -2.53809h 0.181345v 5.58693h 0.181345v -5.58693h 0.181345v
 2.53809h 0.181345v 3.04884h 0.181345v -3.04884h 0.181345v 3.04884h 0.181345v -3.04884h 0.36269v 4.83834h 0.181345v -4.83834h 0.181345v 9.20916h 0.181345v -4.37082h 0.181345v -6.16032h 0.181345v -1.21611h 0.181345v 2.53809h 0.181345v 4.83834h
 0.181345v -10.5311h 0.181345v 17.672h 0.181345v -5.1121h 0.181345v -5.41904h 0.181345v -6.16032h 0.181345v 13.9214h 0.181345v -4.37082h 0.181345v 7.14087h 0.181345v -5.1121h 0.181345v 8.50237h 0.181345v 4.37082h 0.181345v -7.76109h 0.181345v
 -2.77005h 0.181345v 16.6915h 0.181345v -21.0623h 0.181345v 4.37082h 0.181345v 6.16032h 0.181345v -6.16032h 0.181345v -6.16032h 0.181345v 22.8518h 0.181345v -10.5311h 0.36269v 10.5311h 0.181345v -13.9214h 0.181345v 7.76109h 0.181345v 6.16032h
 0.181345v -10.5311h 0.181345v 4.37082h 0.181345v -4.37082h 0.181345v -6.16032h 0.181345v 6.16032h 0.181345v -8.50237h 0.181345v 8.50237h 0.36269v -3.39027h 0.181345v 3.39027h 0.181345v 21.0623h 0.181345v -10.5311h 0.181345v 21.0623h 0.36269v
 -21.0623h 0.181345v -6.16032h 0.181345v 6.16032h 0.181345v 10.5311h 0.181345v -10.5311h 0.181345v 21.0623h 0.36269v -10.5311h 0.181345v -10.5311h 0.544034v 10.5311h 0.181345v -21.0623h 0.181345v 10.5311h 0.36269v -10.5311h 0.181345v 31.5934h
 0.36269v -31.5934h 0.181345v 10.5311h 0.181345v -6.16032h 0.181345v 6.16032h 0.181345v 10.5311h 0.36269v 10.5311h 0.181345v -10.5311h 0.36269v 10.5311h 0.725379v -10.5311h 0.181345v 10.5311h 0.725379v -10.5311h 0.181345v 10.5311h 0.181345v -21.0623h
 0.181345v 21.0623h 0.181345v -10.5311h 0.181345v 10.5311h 0.181345v -10.5311h 0.181345v 10.5311h 0.36269v -21.0623h 0.181345v 21.0623h 0.181345v -10.5311h 0.181345v 10.5311h 0.181345v -21.0623h 0.181345v -6.16032h 0.181345v 16.6915h 0.36269v
 10.5311h 0.181345v -21.0623h 0.181345v 21.0623h 0.181345v -10.5311h 0.36269v 10.5311h 0.36269v -10.5311h 0.181345v 10.5311h 0.544034v -10.5311h 0.181345v 10.5311h 0.725379v -10.5311h 0.181345v -10.5311h 0.181345v 21.0623h 0.181345v -10.5311h
 0.725379v 10.5311h 0.181345v -21.0623h 0.181345v -6.16032h 0.181345v 27.2226h 0.181345v -21.0623h 0.181345v 10.5311h 0.36269v -10.5311h 0.181345v 21.0623h 0.181345v -10.5311h 0.181345v 10.5311h 0.181345v -10.5311h 0.544034v -10.5311h 0.36269v
 10.5311h 0.181345v 10.5311h 0.36269v -10.5311h 0.181345v -10.5311h 0.181345v 10.5311h 0.181345v 10.5311h 0.36269v -27.2226h 0.181345v 6.16032h 0.181345v 21.0623h 0.36269v -10.5311h 0.181345v -10.5311h 0.181345v 21.0623h 0.181345v -10.5311h 0.181345v
 10.5311h 0.181345v -10.5311h 0.181345v -10.5311h 0.36269v 21.0623h 0.36269v -10.5311h 0.181345v 10.5311h 0.181345v -21.0623h 0.181345v 21.0623h 0.36269v -10.5311h 0.181345v -10.5311h 0.181345v 21.0623h 0.36269v -21.0623h 0.181345v 21.0623h 0.36269v
 -10.5311h 0.544034v 10.5311h 0.36269v -21.0623h 0.181345v 10.5311h 0.181345v 10.5311h 0.181345v -10.5311h 0.181345v 10.5311h 0.181345v -10.5311h 0.181345v 10.5311h 0.181345v -10.5311h 0.544034v 10.5311h 0.181345v -10.5311h 0.544034v 10.5311h
 0.36269v -10.5311h 0.181345v 10.5311h 0.181345v -10.5311h 0.544034v 10.5311h 0.181345v -21.0623h 0.181345v 21.0623h 0.181345v -10.5311h 0.181345v 10.5311h 0.181345v -10.5311h 0.725379v 10.5311h 0.181345v -10.5311h 0.544034v 10.5311h 0.181345v
 -10.5311h 0.36269v 10.5311h 0.181345v -10.5311h 0.36269v 10.5311h 0.181345v -10.5311h 0.181345v 10.5311h 0.181345v -10.5311h 0.181345v -10.5311h 0.181345v 10.5311h 0.725379v 10.5311h 0.181345v -10.5311h 0.181345v 10.5311h 0.181345v -10.5311h
 0.181345v 10.5311h 0.36269v -10.5311h 0.181345v 10.5311h 0.544034v -21.0623h 0.181345v -6.16032h 0.181345v 27.2226h 0.181345v -10.5311h 0.181345v 10.5311h 0.36269v -21.0623h 0.181345v 10.5311h 0.181345v 10.5311h 1.08807v -10.5311h 0.181345v 10.5311h
 0.181345v -21.0623h 0.181345v 21.0623h 0.906724v -10.5311h 0.181345v -16.6915h 0.36269v 27.2226h 0.36269v -10.5311h 0.181345v -16.6915h 0.36269v 6.16032h 0.36269v 10.5311h 0.544034v -10.5311h 0.181345" fill="none" stroke="black"/>
<path d="M57.1929,280.151h 453.543" fill="none" stroke="black"/>
<path d="M57.1929,272.68v 7.47068" fill="none" stroke="black"/>
<path d="M75.3318,276.415v 3.73534" fill="none" stroke="black"/>
<path d="M93.4707,276.415v 3.73534" fill="none" stroke="black"/>
<path d="M111.61,276.415v 3.73534" fill="none" stroke="black"/>
<path d="M129.749,276.415v 3.73534" fill="none" stroke="black"/>
<path d="M147.887,272.68v 7.47068" fill="none" stroke="black"/>
<path d="M166.026,276.415v 3.73534" fill="none" stroke="black"/>
<path d="M184.165,276.415v 3.73534" fill="none" stroke="black"/>
<path d="M202.304,276.415v 3.73534" fill="none" stroke="black"/>
<path d="M220.443,276.415v 3.73534" fill="none" stroke="black"/>
<path d="M238.582,272.68v 7.47068" fill="none" stroke="black"/>
<path d="M256.721,276.415v 3.73534" fill="none" stroke="black"/>
<path d="M274.86,276.415v 3.73534" fill="none" stroke="black"/>
<path d="M292.999,276.415v 3.73534" fill="none" stroke="black"/>
<path d="M311.138,276.415v 3.73534" fill="none" stroke="black"/>
<path d="M329.277,272.68v 7.47068" fill="none" stroke="black"/>
<path d="M347.415,276.415v 3.73534" fill="none" stroke="black"/>
<path d="M365.554,276.415v 3.73534" fill="none" stroke="black"/>
<path d="M383.693,276.415v 3.73534" fill="none" stroke="black"/>
<path d="M401.832,276.415v 3.73534" fill="none" stroke="black"/>
<path d="M419.971,272.68v 7.47068" fill="none" stroke="black"/>
<path d="M438.11,276.415v 3.73534" fill="none" stroke="black"/>
<path d="M456.249,276.415v 3.73534" fill="none" stroke="black"/>
<path d="M474.388,276.415v 3.73534" fill="none" stroke="black"/>
<path d="M492.527,276.415v 3.73534" fill="none" stroke="black"/>
<path d="M510.666,272.68v 7.47068" fill="none" stroke="black"/>
<path d="M510.666,272.68v 7.47068" fill="none" stroke="black"/>
<text xml:space="preserve" x="54.3523" y="290.27" fill="black" font-size="10.4952" font-family="Helvetica">0</text>
<text xml:space="preserve" x="139.569" y="290.27" fill="black" font-size="10.4952" font-family="Helvetica">500</text>
<text xml:space="preserve" x="227.449" y="290.27" fill="black" font-size="10.4952" font-family="Helvetica">1000</text>
<text xml:space="preserve" x="318.288" y="290.27" fill="black" font-size="10.4952" font-family="Helvetica">1500</text>
<text xml:space="preserve" x="408.831" y="290.27" fill="black" font-size="10.4952" font-family="Helvetica">2000</text>
<text xml:space="preserve" x="499.67" y="290.27" fill="black" font-size="10.4952" font-family="Helvetica">2500</text>
<text xml:space="preserve" x="265.323" y="301.218" fill="black" font-size="10.4952" font-family="Helvetica">Channel</text>
<path d="M57.1929,280.151v -249.023" fill="none" stroke="black"/>
<path d="M63.9961,280.151h -6.80315" fill="none" stroke="black"/>
<path d="M63.9961,277.38h -6.80315" fill="none" stroke="black"/>
<path d="M63.9961,275.038h -6.80315" fill="none" stroke="black"/>
<path d="M63.9961,273.01h -6.80315" fill="none" stroke="black"/>
<path d="M63.9961,271.22h -6.80315" fill="none" stroke="black"/>
<path d="M70.7992,269.619h -13.6063" fill="none" stroke="black"/>
<text xml:space="preserve" x="49.0263" y="273.404" fill="black" font-size="10.4952" font-family="Helvetica">1</text>
<path d="M63.9961,259.088h -6.80315" fill="none" stroke="black"/>
<path d="M63.9961,252.928h -6.80315" fill="none" stroke="black"/>
<path d="M63.9961,248.557h -6.80315" fill="none" stroke="black"/>
<path d="M63.9961,245.167h -6.80315" fill="none" stroke="black"/>
<path d="M63.9961,242.397h -6.80315" fill="none" stroke="black"/>
<path d="M63.9961,240.055h -6.80315" fill="none" stroke="black"/>
<path d="M63.9961,238.026h -6.80315" fill="none" stroke="black"/>
<path d="M63.9961,236.236h -6.80315" fill="none" stroke="black"/>
<path d="M70.7992,234.636h -13.6063" fill="none" stroke="black"/>
<text xml:space="preserve" x="41.629" y="238.193" fill="black" font-size="10.4952" font-family="Helvetica">10</text>
<path d="M63.9961,224.105h -6.80315" fill="none" stroke="black"/>
<path d="M63.9961,217.944h -6.80315" fill="none" stroke="black"/>
<path d="M63.9961,213.573h -6.80315" fill="none" stroke="black"/>
<path d="M63.9961,210.183h -6.80315" fill="none" stroke="black"/>
<path d="M63.9961,207.413h -6.80315" fill="none" stroke="black"/>
<path d="M63.9961,205.071h -6.80315" fill="none" stroke="black"/>
<path d="M63.9961,203.042h -6.80315" fill="none" stroke="black"/>
<path d="M63.9961,201.253h -6.80315" fill="none" stroke="black"/>
<path d="M70.7992,199.652h -13.6063" fill="none" stroke="black"/>
<text xml:space="preserve" x="49.0263" y="199.727" fill="black" font-size="7.16345" font-family="Helvetica">2</text>
<text xml:space="preserve" x="38.0783" y="204.165" fill="black" font-size="10.4952" font-family="Helvetica">10</text>
<path d="M63.9961,189.121h -6.80315" fill="none" stroke="black"/>
<path d="M63.9961,182.961h -6.80315" fill="none" stroke="black"/>
<path d="M63.9961,178.59h -6.80315" fill="none" stroke="black"/>
<path d="M63.9961,175.199h -6.80315" fill="none" stroke="black"/>
<path d="M63.9961,172.429h -6.80315" fill="none" stroke="black"/>
<path d="M63.9961,170.087h -6.80315" fill="none" stroke="black"/>
<path d="M63.9961,168.059h -6.80315" fill="none" stroke="black"/>
<path d="M63.9961,166.269h -6.80315" fill="none" stroke="black"/>
<path d="M70.7992,164.668h -13.6063" fill="none" stroke="black"/>
<text xml:space="preserve" x="49.0263" y="164.516" fill="black" font-size="7.16345" font-family="Helvetica">3</text>
<text xml:space="preserve" x="38.0783" y="169.25" fill="black" font-size="10.4952" font-family="Helvetica">10</text>
<path d="M63.9961,154.137h -6.80315" fill="none" stroke="black"/>
<path d="M63.9961,147.977h -6.80315" fill="none" stroke="black"/>
<path d="M63.9961,143.606h -6.80315" fill="none" stroke="black"/>
<path d="M63.9961,140.216h -6.80315" fill="none" stroke="black"/>
<path d="M63.9961,137.446h -6.80315" fill="none" stroke="black"/>
<path d="M63.9961,135.104h -6.80315" fill="none" stroke="black"/>
<path d="M63.9961,133.075h -6.80315" fill="none" stroke="black"/>
<path d="M63.9961,131.285h -6.80315" fill="none" stroke="black"/>
<path d="M70.7992,129.685h -13.6063" fill="none" stroke="black"/>
<text xml:space="preserve" x="49.0263" y="129.897" fill="black" font-size="7.16345" font-family="Helvetica">4</text>
<text xml:space="preserve" x="38.0783" y="134.335" fill="black" font-size="10.4952" font-family="Helvetica">10</text>
<path d="M63.9961,119.153h -6.80315" fill="none" stroke="black"/>
<path d="M63.9961,112.993h -6.80315" fill="none" stroke="black"/>
<path d="M63.9961,108.622h -6.80315" fill="none" stroke="black"/>
<path d="M63.9961,105.232h -6.80315" fill="none" stroke="black"/>
<path d="M63.9961,102.462h -6.80315" fill="none" stroke="black"/>
<path d="M63.9961,100.12h -6.80315" fill="none" stroke="black"/>
<path d="M63.9961,98.0912h -6.80315" fill="none" stroke="black"/>
<path d="M63.9961,96.3017h -6.80315" fill="none" stroke="black"/>
<path d="M70.7992,94.7009h -13.6063" fill="none" stroke="black"/>
<text xml:space="preserve" x="49.0263" y="94.6854" fill="black" font-size="7.16345" font-family="Helvetica">5</text>
<text xml:space="preserve" x="38.0783" y="99.4197" fill="black" font-size="10.4952" font-family="Helvetica">10</text>
<path d="M63.9961,84.1698h -6.80315" fill="none" stroke="black"/>
<path d="M63.9961,78.0095h -6.80315" fill="none" stroke="black"/>
<path d="M63.9961,73.6386h -6.80315" fill="none" stroke="black"/>
<path d="M63.9961,70.2484h -6.80315" fill="none" stroke="black"/>
<path d="M63.9961,67.4783h -6.80315" fill="none" stroke="black"/>
<path d="M63.9961,65.1363h -6.80315" fill="none" stroke="black"/>
<path d="M63.9961,63.1075h -6.80315" fill="none" stroke="black"/>
<path d="M63.9961,61.318h -6.80315" fill="none" stroke="black"/>
<path d="M70.7992,59.7172h -13.6063" fill="none" stroke="black"/>
<text xml:space="preserve" x="49.0263" y="59.4743" fill="black" font-size="7.16345" font-family="Helvetica">6</text>
<text xml:space="preserve" x="38.0783" y="64.2086" fill="black" font-size="10.4952" font-family="Helvetica">10</text>
<path d="M63.9961,49.1861h -6.80315" fill="none" stroke="black"/>
<path d="M63.9961,43.0258h -6.80315" fill="none" stroke="black"/>
<path d="M63.9961,38.6549h -6.80315" fill="none" stroke="black"/>
<path d="M63.9961,35.2647h -6.80315" fill="none" stroke="black"/>
<path d="M63.9961,32.4946h -6.80315" fill="none" stroke="black"/>
<g transform="rotate(-90,26.5385,191.442)">
<text xml:space="preserve" x="26.5385" y="191.442" fill="black" font-size="10.4952" font-family="Helvetica">Counts/Channel</text>
</g>
<text xml:space="preserve" x="404.097" y="59.4743" fill="black" font-size="14.7788" font-family="Helvetica" font-weight="bold"> = 2.4879 MeV</text>
<text xml:space="preserve" x="398.179" y="62.7291" fill="black" font-size="10.0192" font-family="Helvetica" font-weight="bold">p</text>
<text xml:space="preserve" x="389.006" y="59.4743" fill="black" font-size="14.7788" font-family="Helvetica" font-weight="bold">E</text>
<path d="M262.163,163.22v 26.3029" fill="none" stroke="black"/>
<path d="M264.454,189.523l -2.29122, 3.9685l -2.29122, -3.9685z" fill="black"/>
<path d="M264.454,189.523l -2.29122, 3.9685l -2.29122, -3.9685h 4.58243z" fill="none" stroke="black"/>
<text xml:space="preserve" x="266.803" y="161.261" fill="black" font-size="10.4952" font-family="Helvetica" font-weight="bold">_1 	1.369 MeV</text>
<text xml:space="preserve" x="260.293" y="161.261" fill="black" font-size="10.4952" font-family="Times">&#0945;</text>
<path d="M184.528,129.685v 31.0152" fill="none" stroke="black"/>
<path d="M186.819,160.7l -2.29122, 3.9685l -2.29122, -3.9685z" fill="black"/>
<path d="M186.819,160.7l -2.29122, 3.9685l -2.29122, -3.9685h 4.58243z" fill="none" stroke="black"/>
<text xml:space="preserve" x="172.117" y="126.642" fill="black" font-size="10.4952" font-family="Helvetica" font-weight="bold"># p_1 	0.844 MeV</text>
<path d="M210.104,147.977v 12.723" fill="none" stroke="black"/>
<path d="M212.395,160.7l -2.29122, 3.9685l -2.29122, -3.9685z" fill="black"/>
<path d="M212.395,160.7l -2.29122, 3.9685l -2.29122, -3.9685h 4.58243z" fill="none" stroke="black"/>
<text xml:space="preserve" x="197.564" y="143.508" fill="black" font-size="10.4952" font-family="Helvetica" font-weight="bold"># p_2 	1.015 MeV</text>
<path d="M497.547,269.619h 13.119" fill="none" stroke="black"/>
<path d="M504.106,259.088h 6.55951" fill="none" stroke="black"/>
<path d="M504.106,252.928h 6.55951" fill="none" stroke="black"/>
<path d="M504.106,248.557h 6.55951" fill="none" stroke="black"/>
<path d="M504.106,245.167h 6.55951" fill="none" stroke="black"/>
<path d="M504.106,242.397h 6.55951" fill="none" stroke="black"/>
<path d="M504.106,240.055h 6.55951" fill="none" stroke="black"/>
<path d="M504.106,238.026h 6.55951" fill="none" stroke="black"/>
<path d="M504.106,236.236h 6.55951" fill="none" stroke="black"/>
<path d="M497.547,234.636h 13.119" fill="none" stroke="black"/>
<path d="M504.106,224.105h 6.55951" fill="none" stroke="black"/>
<path d="M504.106,217.944h 6.55951" fill="none" stroke="black"/>
<path d="M504.106,213.573h 6.55951" fill="none" stroke="black"/>
<path d="M504.106,210.183h 6.55951" fill="none" stroke="black"/>
<path d="M504.106,207.413h 6.55951" fill="none" stroke="black"/>
<path d="M504.106,205.071h 6.55951" fill="none" stroke="black"/>
<path d="M504.106,203.042h 6.55951" fill="none" stroke="black"/>
<path d="M504.106,201.253h 6.55951" fill="none" stroke="black"/>
<path d="M497.547,199.652h 13.119" fill="none" stroke="black"/>
<path d="M504.106,189.121h 6.55951" fill="none" stroke="black"/>
<path d="M504.106,182.961h 6.55951" fill="none" stroke="black"/>
<path d="M504.106,178.59h 6.55951" fill="none" stroke="black"/>
<path d="M504.106,175.199h 6.55951" fill="none" stroke="black"/>
<path d="M504.106,172.429h 6.55951" fill="none" stroke="black"/>
<path d="M504.106,170.087h 6.55951" fill="none" stroke="black"/>
<path d="M504.106,168.059h 6.55951" fill="none" stroke="black"/>
<path d="M504.106,166.269h 6.55951" fill="none" stroke="black"/>
<path d="M497.547,164.668h 13.119" fill="none" stroke="black"/>
<path d="M504.106,154.137h 6.55951" fill="none" stroke="black"/>
<path d="M504.106,147.977h 6.55951" fill="none" stroke="black"/>
<path d="M504.106,143.606h 6.55951" fill="none" stroke="black"/>
<path d="M504.106,140.216h 6.55951" fill="none" stroke="black"/>
<path d="M504.106,137.446h 6.55951" fill="none" stroke="black"/>
<path d="M504.106,135.104h 6.55951" fill="none" stroke="black"/>
<path d="M504.106,133.075h 6.55951" fill="none" stroke="black"/>
<path d="M504.106,131.285h 6.55951" fill="none" stroke="black"/>
<path d="M497.547,129.685h 13.119" fill="none" stroke="black"/>
<path d="M504.106,119.153h 6.55951" fill="none" stroke="black"/>
<path d="M504.106,112.993h 6.55951" fill="none" stroke="black"/>
<path d="M504.106,108.622h 6.55951" fill="none" stroke="black"/>
<path d="M504.106,105.232h 6.55951" fill="none" stroke="black"/>
<path d="M504.106,102.462h 6.55951" fill="none" stroke="black"/>
<path d="M504.106,100.12h 6.55951" fill="none" stroke="black"/>
<path d="M504.106,98.0912h 6.55951" fill="none" stroke="black"/>
<path d="M504.106,96.3017h 6.55951" fill="none" stroke="black"/>
<path d="M497.547,94.7009h 13.119" fill="none" stroke="black"/>
<path d="M504.106,84.1698h 6.55951" fill="none" stroke="black"/>
<path d="M504.106,78.0095h 6.55951" fill="none" stroke="black"/>
<path d="M504.106,73.6386h 6.55951" fill="none" stroke="black"/>
<path d="M504.106,70.2484h 6.55951" fill="none" stroke="black"/>
<path d="M504.106,67.4783h 6.55951" fill="none" stroke="black"/>
<path d="M504.106,65.1363h 6.55951" fill="none" stroke="black"/>
<path d="M504.106,63.1075h 6.55951" fill="none" stroke="black"/>
<path d="M504.106,61.318h 6.55951" fill="none" stroke="black"/>
<path d="M497.547,59.7172h 13.119" fill="none" stroke="black"/>
<path d="M504.106,49.1861h 6.55951" fill="none" stroke="black"/>
<path d="M504.106,43.0258h 6.55951" fill="none" stroke="black"/>
<path d="M504.106,38.6549h 6.55951" fill="none" stroke="black"/>
<path d="M504.106,35.2647h 6.55951" fill="none" stroke="black"/>
<path d="M504.106,32.4946h 6.55951" fill="none" stroke="black"/>
<path d="M504.106,30.1526h 6.55951" fill="none" stroke="black"/>
<path d="M57.1929,36.9845v -7.46952" fill="none" stroke="black"/>
<path d="M75.3318,36.9845v -7.46952" fill="none" stroke="black"/>
<path d="M93.4707,36.9845v -7.46952" fill="none" stroke="black"/>
<path d="M111.61,36.9845v -7.46952" fill="none" stroke="black"/>
<path d="M129.749,36.9845v -7.46952" fill="none" stroke="black"/>
<path d="M147.887,36.9845v -7.46952" fill="none" stroke="black"/>
<path d="M166.026,36.9845v -7.46952" fill="none" stroke="black"/>
<path d="M184.165,36.9845v -7.46952" fill="none" stroke="black"/>
<path d="M202.304,36.9845v -7.46952" fill="none" stroke="black"/>
<path d="M220.443,36.9845v -7.46952" fill="none" stroke="black"/>
<path d="M238.582,36.9845v -7.46952" fill="none" stroke="black"/>
<path d="M256.721,36.9845v -7.46952" fill="none" stroke="black"/>
<path d="M274.86,36.9845v -7.46952" fill="none" stroke="black"/>
<path d="M292.999,36.9845v -7.46952" fill="none" stroke="black"/>
<path d="M311.138,36.9845v -7.46952" fill="none" stroke="black"/>
<path d="M329.277,36.9845v -7.46952" fill="none" stroke="black"/>
<path d="M347.415,36.9845v -7.46952" fill="none" stroke="black"/>
<path d="M365.554,36.9845v -7.46952" fill="none" stroke="black"/>
<path d="M383.693,36.9845v -7.46952" fill="none" stroke="black"/>
<path d="M401.832,36.9845v -7.46952" fill="none" stroke="black"/>
<path d="M419.971,36.9845v -7.46952" fill="none" stroke="black"/>
<path d="M438.11,36.9845v -7.46952" fill="none" stroke="black"/>
<path d="M456.249,36.9845v -7.46952" fill="none" stroke="black"/>
<path d="M474.388,36.9845v -7.46952" fill="none" stroke="black"/>
<path d="M492.527,36.9845v -7.46952" fill="none" stroke="black"/>
<path d="M510.666,36.9845v -7.46952" fill="none" stroke="black"/></svg>
