<?xml version="1.0" standalone="no"?>
<svg width="567.429" height="311.778" viewBox="0 0 567.429 311.778" xmlns="http://www.w3.org/2000/svg" shape-rendering="crispEdges">
<title>
Yields/P1/run_0100/det2_Fit.svg
</title>
<desc>
Creator: ROOT Version 6.12/06
CreationDate: Mon Apr 15 10:29:01 2019</desc>
<defs>
</defs>
<rect x="0.5" y="0" width="566.929" height="311.278" fill="white"/>
<rect x="57.1929" y="31.1278" width="453.543" height="249.023" fill="white"/>
<rect x="57.1929" y="31.1278" width="453.543" height="249.023" fill="none" stroke="black"/>
<path d="M57.1929,40.8216h 0.181345v 239.329h 1.99479v -10.5139h 0.181345v 10.5139h 5.80303v -10.5139h 0.181345v 10.5139h 14.6889v -10.5139h 0.181345v 10.5139h 1.81345v -10.5139h 0.36269v 10.5139h 5.62169v -10.5139h 0.181345v 10.5139h 0.36269v
 -21.0277h 0.36269v -16.6641h 0.181345v -23.8982h 0.181345v -12.7019h 0.181345v -9.45927h 0.181345v -4.30285h 0.181345v -5.65488h 0.181345v -2.05688h 0.181345v -2.43213h 0.181345v -0.775691h 0.181345v -1.03167h 0.181345v -1.80041h 0.181345v 0.525687h
 0.181345v -0.998031h 0.181345v -0.388499h 0.181345v -0.814601h 0.181345v -1.2674h 0.181345v -0.971339h 0.181345v 0.287832h 0.181345v -0.598264h 0.181345v 0.453665h 0.181345v -0.341515h 0.181345v -0.633827h 0.181345v 0.0270139h 0.181345v -2.25687h
 0.181345v 1.21217h 0.181345v -0.642402h 0.181345v 0.948328h 0.181345v -0.679855h 0.181345v -0.292645h 0.181345v 0.317289h 0.181345v -0.485427h 0.181345v 0.885274h 0.181345v -0.692963h 0.181345v 0.845665h 0.181345v -1.22788h 0.181345v 0.309811h
 0.181345v 0.639278h 0.181345v 0.588886h 0.181345v -0.985465h 0.181345v 0.778032h 0.181345v -1.68033h 0.181345v -0.183305h 0.181345v 1.8379h 0.181345v -0.752301h 0.181345v 0.752301h 0.181345v -0.102489h 0.181345v -0.0764148h 0.181345v -0.983703h
 0.181345v 1.71234h 0.181345v -0.420638h 0.181345v 0.235172h 0.181345v -0.235172h 0.181345v 0.130201h 0.181345v 0.157731h 0.181345v 0.483279h 0.181345v -0.108734h 0.181345v -0.161653h 0.181345v 0.161653h 0.181345v -0.348096h 0.181345v 0.213266h
 0.36269v -0.107008h 0.181345v 0.68153h 0.181345v -0.761293h 0.181345v -0.262889h 0.181345v -2.13581h 0.181345v 0.0680703h 0.181345v -0.775758h 0.181345v -3.70117h 0.181345v -0.759399h 0.181345v -2.36578h 0.181345v -2.08217h 0.181345v -1.59454h
 0.181345v -1.57975h 0.181345v 0.314992h 0.181345v -0.35391h 0.181345v 0.136652h 0.181345v 0.31705h 0.181345v 1.49282h 0.181345v 0.875447h 0.181345v 2.75147h 0.181345v 3.24156h 0.181345v 1.80613h 0.181345v 1.2435h 0.181345v 3.36348h 0.181345v
 4.22287h 0.181345v 0.717311h 0.181345v 1.74989h 0.181345v 1.20038h 0.181345v 0.0446784h 0.181345v 1.80336h 0.181345v 0.202923h 0.181345v 1.33375h 0.181345v -0.654849h 0.181345v -0.932134h 0.181345v 0.304391h 0.181345v 1.45082h 0.181345v -1.65442h
 0.181345v 2.22905h 0.181345v -0.909234h 0.181345v -1.11621h 0.181345v 1.06115h 0.181345v 1.62259h 0.181345v -1.45681h 0.181345v 2.08111h 0.181345v -1.51506h 0.181345v 0.409189h 0.181345v 0.853061h 0.181345v -0.0625498h 0.181345v -0.731144h 0.181345v
 -1.3099h 0.181345v 0.219834h 0.181345v 2.32898h 0.181345v -1.41633h 0.181345v -0.406059h 0.181345v 0.583468h 0.181345v -0.0593672h 0.181345v -0.2934h 0.181345v 1.14646h 0.181345v -2.15806h 0.181345v 3.26287h 0.181345v -2.07592h 0.181345v -1.02297h
 0.181345v 3.3025h 0.181345v -1.80174h 0.181345v 1.93902h 0.181345v -1.19288h 0.181345v 0.6511h 0.181345v 0.404512h 0.181345v -0.27087h 0.181345v 2.71191h 0.181345v -0.474048h 0.181345v -1.05169h 0.181345v 1.93242h 0.181345v -1.11231h 0.181345v
 -3.53716h 0.181345v 1.93902h 0.181345v 0.923882h 0.181345v -1.26476h 0.181345v 4.88951h 0.181345v -2.48374h 0.181345v -1.35926h 0.36269v 1.43847h 0.181345v -1.07295h 0.181345v 1.55709h 0.181345v -1.70436h 0.181345v 2.80954h 0.36269v -2.80954h
 0.181345v 2.37489h 0.181345v -1.92873h 0.181345v 0.933729h 0.181345v 0.489343h 0.181345v -0.569386h 0.181345v 1.07504h 0.181345v -0.170432h 0.181345v -2.63786h 0.181345v 1.8133h 0.181345v -0.159668h 0.181345v 2.31176h 0.181345v -1.41202h 0.181345v
 0.16948h 0.181345v -0.909544h 0.181345v 4.0198h 0.181345v -2.50171h 0.181345v -1.59814h 0.181345v 0.904611h 0.181345v -0.417886h 0.181345v 0.165775h 0.181345v -0.41109h 0.181345v -0.24141h 0.181345v 0.736073h 0.181345v -0.494662h 0.181345v
 -0.557428h 0.181345v 0.885404h 0.181345v 0.250721h 0.181345v 3.70405h 0.181345v -2.74757h 0.181345v -0.0894888h 0.181345v -1.52659h 0.181345v 0.829075h 0.181345v -2.72284h 0.181345v 0.879568h 0.181345v 0.616056h 0.181345v -1.06221h 0.181345v
 2.37489h 0.181345v -3.02044h 0.181345v 1.01644h 0.181345v 0.15093h 0.181345v 0.698408h 0.181345v -2.28137h 0.181345v 1.88941h 0.181345v -2.29392h 0.181345v -0.394004h 0.181345v 2.23055h 0.181345v 0.303376h 0.181345v -2.3382h 0.181345v 3.2052h
 0.181345v 2.27076h 0.181345v 0.0945069h 0.181345v 0.190799h 0.181345v -1.89286h 0.181345v 3.72751h 0.181345v -2.30722h 0.181345v -1.42029h 0.181345v 0.429726h 0.181345v 2.25128h 0.181345v 0.409979h 0.181345v 0.209221h 0.181345v -1.31103h 0.181345v
 -2.48927h 0.181345v 1.64376h 0.181345v 1.53735h 0.181345v 0.831348h 0.181345v 1.22302h 0.181345v -1.74792h 0.181345v 0.418462h 0.181345v -1.70384h 0.181345v 0.778032h 0.181345v -0.198281h 0.181345v 0.809168h 0.181345v -0.206375h 0.181345v -1.37097h
 0.181345v 1.16737h 0.181345v -0.200908h 0.181345v -1.6976h 0.181345v 1.79773h 0.181345v -2.49524h 0.181345v 1.71219h 0.181345v 3.64935h 0.181345v -2.86629h 0.181345v 0.100786h 0.181345v 1.0465h 0.181345v -2.11995h 0.181345v 2.67159h 0.181345v
 -1.89851h 0.181345v -2.79852h 0.181345v 3.3025h 0.181345v -0.503977h 0.36269v -1.50865h 0.181345v 2.01263h 0.181345v -1.27705h 0.181345v 1.58768h 0.181345v 1.54014h 0.181345v -3.95288h 0.181345v -0.352767h 0.181345v -0.344749h 0.36269v 0.520107h
 0.181345v -2.51356h 0.181345v 2.69097h 0.181345v -1.0346h 0.181345v -0.247989h 0.181345v 0.415596h 0.181345v 0.340875h 0.181345v -1.00047h 0.181345v -0.240136h 0.181345v 2.59179h 0.181345v 0.285306h 0.181345v -1.63649h 0.181345v 1.82972h 0.181345v
 -0.942434h 0.181345v 3.36188h 0.181345v 1.30945h 0.181345v -3.92213h 0.181345v -0.472571h 0.181345v 0.96034h 0.181345v 0.300372h 0.181345v 0.831348h 0.181345v 1.10767h 0.181345v -1.93902h 0.181345v 0.831348h 0.181345v 1.45638h 0.181345v -0.576811h
 0.181345v 1.29925h 0.181345v 0.501477h 0.181345v -1.6871h 0.181345v -0.33834h 0.181345v -0.439692h 0.181345v 2.98376h 0.181345v -5.74927h 0.181345v 2.3382h 0.181345v 1.20534h 0.181345v -0.885992h 0.181345v -0.319344h 0.181345v -1.78657h 0.181345v
 0.670002h 0.181345v 3.0221h 0.181345v -1.90554h 0.181345v 0.97894h 0.181345v 1.2892h 0.181345v -2.5809h 0.181345v 2.5809h 0.181345v 0.246644h 0.181345v -0.123824h 0.181345v -1.29925h 0.181345v 0.343448h 0.181345v -0.679291h 0.181345v -1.37507h
 0.181345v -0.691834h 0.181345v 1.95659h 0.181345v -1.26476h 0.181345v 3.25883h 0.181345v -3.35962h 0.181345v -0.298402h 0.181345v 3.28653h 0.181345v -1.17643h 0.36269v -1.71092h 0.181345v 1.0465h 0.181345v -0.427304h 0.181345v -1.40734h 0.181345v
 2.49906h 0.181345v -0.555678h 0.181345v 2.48441h 0.181345v -1.46905h 0.181345v -2.3715h 0.181345v -0.872539h 0.181345v 1.27705h 0.181345v -0.503977h 0.181345v 0.919573h 0.181345v 0.97894h 0.181345v -1.39454h 0.181345v -0.895438h 0.181345v 1.73834h
 0.181345v -1.93035h 0.181345v 0.783054h 0.181345v -0.199586h 0.181345v 1.78657h 0.181345v -0.439692h 0.181345v -0.215157h 0.181345v -1.99872h 0.181345v 1.57735h 0.181345v -1.10181h 0.181345v -0.192006h 0.181345v 0.386474h 0.181345v 1.32871h
 0.181345v -3.16955h 0.181345v 3.16955h 0.181345v -1.90479h 0.181345v 2.11995h 0.181345v 0.328568h 0.181345v -0.860844h 0.181345v 2.25128h 0.181345v -2.04061h 0.181345v 2.16244h 0.181345v 0.246644h 0.181345v -1.19497h 0.181345v -0.114478h 0.181345v
 2.20573h 0.181345v 0.674258h 0.181345v -1.57054h 0.181345v -1.97875h 0.181345v 0.555678h 0.181345v 1.17643h 0.181345v 2.09551h 0.181345v -1.72402h 0.181345v -1.66069h 0.181345v 2.43213h 0.181345v 0.812782h 0.181345v -2.55532h 0.181345v 1.87501h
 0.36269v -2.5646h 0.181345v 0.807629h 0.181345v 1.23388h 0.181345v -0.505657h 0.181345v 4.44676h 0.181345v -2.7377h 0.181345v -1.45834h 0.181345v 2.1706h 0.181345v -4.72396h 0.181345v 4.43503h 0.181345v -1.62673h 0.181345v 1.48431h 0.181345v
 1.48828h 0.181345v -1.05693h 0.181345v 0.901352h 0.181345v -1.88941h 0.181345v -0.27087h 0.181345v 2.47303h 0.181345v -1.92637h 0.181345v 0.280903h 0.181345v 0.725895h 0.181345v 0.149443h 0.181345v -2.61458h 0.181345v 4.03027h 0.181345v -1.71311h
 0.181345v 1.3869h 0.181345v -1.08947h 0.181345v 0.303376h 0.181345v 1.27809h 0.181345v -0.811333h 0.181345v -2.06489h 0.181345v 2.71045h 0.181345v 0.333383h 0.181345v -2.19305h 0.181345v 0.443982h 0.181345v 1.2517h 0.181345v 0.497366h 0.181345v
 -1.2917h 0.181345v 1.2917h 0.181345v 0.340875h 0.181345v 0.173354h 0.181345v -3.13864h 0.181345v -0.141102h 0.181345v 2.10591h 0.181345v -2.24571h 0.36269v 0.858813h 0.181345v 4.81201h 0.181345v -1.53735h 0.181345v -1.39577h 0.181345v 0.337087h
 0.181345v 3.21523h 0.181345v -3.71809h 0.181345v -0.645557h 0.181345v -1.21411h 0.181345v 0.747358h 0.181345v 0.466754h 0.181345v 0.158832h 0.181345v 0.160513h 0.181345v -1.3869h 0.181345v 0.600803h 0.181345v 2.67386h 0.181345v -1.56155h 0.181345v
 -1.85967h 0.181345v -0.145152h 0.181345v 3.56637h 0.181345v -2.97723h 0.181345v 4.92456h 0.181345v -1.38892h 0.181345v -2.28393h 0.181345v 0.329759h 0.181345v -0.811333h 0.181345v 1.49317h 0.181345v 2.05037h 0.181345v -3.2242h 0.181345v 1.88776h
 0.181345v -1.56155h 0.181345v 1.37989h 0.181345v -1.86661h 0.181345v 1.33434h 0.181345v 0.532276h 0.181345v -0.877025h 0.181345v 0.344749h 0.181345v 0.352767h 0.181345v -2.31269h 0.181345v 0.786098h 0.181345v 2.44616h 0.181345v 1.81029h 0.181345v
 -4.88856h 0.36269v -0.901352h 0.181345v 3.06005h 0.36269v -4.0481h 0.181345v 2.361h 0.181345v 3.78922h 0.181345v -3.94805h 0.181345v 2.95631h 0.181345v -2.47473h 0.181345v 1.01159h 0.181345v -1.80593h 0.181345v 0.794333h 0.181345v -0.794333h
 0.181345v 0.632104h 0.181345v -0.160513h 0.181345v -0.316018h 0.181345v 0.316018h 0.181345v -1.66187h 0.181345v 1.98461h 0.181345v -3.73935h 0.181345v 3.25778h 0.181345v -0.31276h 0.181345v -1.61361h 0.181345v 2.0852h 0.181345v -2.63187h 0.181345v
 -1.03755h 0.181345v 1.03755h 0.181345v -2.00866h 0.181345v -1.34918h 0.181345v 0.326213h 0.181345v -1.26476h 0.181345v 2.64464h 0.181345v -2.84555h 0.181345v 1.03226h 0.181345v 0.107197h 0.181345v -2.19926h 0.181345v 1.15993h 0.181345v -1.97513h
 0.181345v 0.266898h 0.181345v -0.52918h 0.181345v 0.984719h 0.181345v 1.15258h 0.181345v 0.302368h 0.36269v 0.20498h 0.181345v -0.70563h 0.181345v -0.195723h 0.181345v -0.572457h 0.181345v 1.47381h 0.181345v -0.606813h 0.181345v 2.23939h 0.181345v
 -3.65802h 0.181345v 1.61822h 0.181345v 0.82569h 0.181345v -0.418462h 0.181345v -0.803807h 0.181345v 2.66796h 0.181345v -2.86243h 0.181345v 0.895438h 0.181345v -2.88461h 0.181345v 1.89286h 0.181345v -2.14497h 0.181345v -1.87889h 0.181345v 2.73608h
 0.181345v -2.73608h 0.181345v -0.363766h 0.181345v 0.290311h 0.181345v -2.0529h 0.181345v -1.11037h 0.181345v -0.640599h 0.181345v -1.46642h 0.181345v -0.953033h 0.181345v -3.07033h 0.181345v 2.08228h 0.181345v -2.27953h 0.181345v 0.88776h 0.181345v
 0.167146h 0.181345v -1.36527h 0.181345v 1.15662h 0.181345v -1.23323h 0.181345v -0.340026h 0.181345v 2.07891h 0.181345v -1.15467h 0.181345v 0.690511h 0.181345v 3.12718h 0.181345v 1.84413h 0.181345v -2.09737h 0.181345v 2.38851h 0.181345v 0.908553h
 0.181345v 0.507773h 0.181345v 1.06957h 0.181345v 2.075h 0.181345v 1.32704h 0.181345v 3.06311h 0.181345v -1.22227h 0.181345v 1.87244h 0.181345v 0.449464h 0.181345v 0.114478h 0.181345v 1.31981h 0.181345v -0.493322h 0.36269v 1.80174h 0.181345v
 -1.43327h 0.181345v 1.57054h 0.181345v 0.278325h 0.181345v -1.3432h 0.181345v 1.91566h 0.181345v -1.25892h 0.181345v 2.47303h 0.181345v -0.157186h 0.181345v -1.20208h 0.181345v 1.5181h 0.181345v 0.486725h 0.181345v -1.41569h 0.181345v 1.2517h
 0.181345v 2.47473h 0.181345v -3.57551h 0.181345v -1.98748h 0.181345v 2.60668h 0.181345v -2.87048h 0.181345v 1.95091h 0.181345v 0.762387h 0.181345v 1.82571h 0.181345v -1.98129h 0.181345v -0.901352h 0.181345v -0.431355h 0.181345v -1.35521h 0.181345v
 3.81201h 0.181345v -1.27809h 0.181345v -0.600803h 0.181345v 1.3869h 0.181345v -0.47653h 0.181345v 0.316018h 0.181345v -0.471591h 0.181345v -0.754798h 0.181345v 0.297427h 0.181345v 0.77013h 0.181345v -0.77013h 0.181345v 2.2633h 0.181345v -1.65035h
 0.181345v 0.316018h 0.181345v 0.989588h 0.181345v -1.61517h 0.181345v 1.78657h 0.181345v 1.44569h 0.181345v -3.38471h 0.181345v 1.59814h 0.181345v -0.659595h 0.181345v 0.162229h 0.181345v -1.54913h 0.181345v 0.754798h 0.181345v -1.75213h 0.181345v
 4.8304h 0.181345v -5.76619h 0.181345v 2.23055h 0.181345v -1.29476h 0.181345v 6.21932h 0.181345v -3.9956h 0.181345v 0.989588h 0.181345v -1.30561h 0.181345v 3.11349h 0.181345v -1.28778h 0.181345v 2.07592h 0.181345v 0.6192h 0.181345v -1.01839h
 0.181345v -2.53393h 0.181345v 2.14497h 0.181345v -0.190799h 0.181345v -0.188429h 0.181345v -1.42866h 0.181345v -0.502863h 0.181345v 3.09889h 0.181345v -1.16737h 0.181345v -1.08391h 0.181345v -0.514229h 0.181345v 0.689587h 0.181345v -1.98129h
 0.181345v 2.70372h 0.181345v -0.18386h 0.181345v -1.56155h 0.181345v 1.37989h 0.181345v 0.365519h 0.181345v -2.54815h 0.181345v 1.82571h 0.36269v 1.67673h 0.181345v -2.86369h 0.181345v 0.497366h 0.181345v 2.36632h 0.181345v -1.67673h 0.181345v
 1.28778h 0.181345v -2.14497h 0.181345v 4.19787h 0.181345v 1.14101h 0.181345v -5.99139h 0.181345v 1.33434h 0.181345v -1.17382h 0.181345v -0.319344h 0.181345v 0.645557h 0.181345v 1.37989h 0.181345v -2.94502h 0.181345v -2.46514h 0.181345v 2.61458h
 0.181345v -2.23055h 0.181345v -1.00323h 0.181345v -0.359739h 0.181345v -2.09933h 0.181345v -3.23956h 0.181345v 0.945639h 0.181345v -2.82453h 0.181345v -1.27065h 0.181345v -1.10957h 0.181345v -1.61072h 0.181345v 0.113621h 0.181345v -1.5181h 0.181345v
 -0.255795h 0.181345v -1.85967h 0.181345v 0.36333h 0.181345v 0.561853h 0.181345v -1.58382h 0.181345v 0.480188h 0.181345v 0.404512h 0.36269v 0.415596h 0.36269v -0.186116h 0.181345v 0.758573h 0.181345v 2.41945h 0.181345v 0.34606h 0.181345v 1.6631h
 0.181345v 0.665383h 0.181345v 1.80358h 0.181345v 2.67386h 0.181345v -0.626509h 0.181345v 2.88876h 0.181345v 3.17403h 0.181345v 1.65637h 0.181345v 0.146555h 0.181345v 3.45852h 0.181345v 3.75925h 0.181345v -1.57442h 0.181345v 1.33925h 0.181345v
 6.98978h 0.181345v -7.89562h 0.181345v 7.5301h 0.181345v 2.76551h 0.181345v -3.12243h 0.181345v -4.7983h 0.181345v 3.44912h 0.181345v 2.83019h 0.181345v -1.12409h 0.181345v -3.23956h 0.181345v 1.53346h 0.181345v 1.00047h 0.181345v -1.93902h
 0.181345v -0.88384h 0.181345v 6.29399h 0.181345v -4.47161h 0.181345v -0.632104h 0.181345v -1.19028h 0.181345v 4.26855h 0.181345v -1.78657h 0.181345v 6.66445h 0.181345v -5.25242h 0.181345v 4.73819h 0.181345v -5.10371h 0.181345v -0.70563h 0.181345v
 -0.340875h 0.181345v 2.5646h 0.181345v -0.778032h 0.181345v -3.07827h 0.181345v 1.2917h 0.181345v 0.340875h 0.181345v -0.340875h 0.181345v 4.2517h 0.181345v -3.56212h 0.181345v 0.356918h 0.181345v -1.0465h 0.181345v 1.78657h 0.181345v 0.384028h
 0.181345v 3.00068h 0.181345v -2.20216h 0.181345v -2.62824h 0.181345v 3.04383h 0.181345v -0.820108h 0.181345v 3.58562h 0.181345v -5.10371h 0.36269v -0.356918h 0.181345v 7.05877h 0.181345v -7.40748h 0.181345v 1.82972h 0.181345v -2.50398h 0.181345v
 1.37989h 0.181345v -1.37989h 0.181345v 2.11995h 0.181345v 0.384028h 0.181345v -0.384028h 0.181345v -0.374545h 0.181345v 5.7847h 0.181345v -7.85632h 0.181345v 4.47161h 0.181345v -3.12243h 0.36269v -0.689587h 0.181345v -1.59814h 0.181345v 3.76874h
 0.181345v -0.384028h 0.181345v -0.740064h 0.181345v -2.3382h 0.181345v 5.10371h 0.181345v -5.71053h 0.181345v 4.06911h 0.181345v -4.06911h 0.181345v 0.300372h 0.181345v 1.93902h 0.181345v -1.31981h 0.36269v 3.14954h 0.181345v -5.21443h 0.181345v
 3.73342h 0.181345v -1.34918h 0.181345v -0.632104h 0.181345v 3.07827h 0.181345v -2.76551h 0.181345v 3.94805h 0.181345v -0.404512h 0.181345v -1.5181h 0.181345v -2.3382h 0.181345v 1.98129h 0.181345v -2.28773h 0.181345v 4.16274h 0.181345v -2.5646h
 0.181345v 2.1706h 0.181345v -0.758573h 0.181345v 0.758573h 0.181345v -4.06911h 0.36269v -0.583468h 0.181345v 3.894h 0.181345v -0.365519h 0.181345v 1.5181h 0.181345v -2.22373h 0.181345v 0.70563h 0.181345v 0.740064h 0.181345v 0.384028h 0.181345v
 -2.83019h 0.181345v 2.83019h 0.181345v 3.00068h 0.181345v -3.38471h 0.181345v -0.740064h 0.181345v -0.356918h 0.181345v 4.01494h 0.181345v -3.65802h 0.181345v 1.12409h 0.181345v -0.758573h 0.181345v -1.07115h 0.181345v -2.23939h 0.181345v -0.583468h
 0.181345v 7.65326h 0.181345v -3.75925h 0.181345v 5.25242h 0.181345v -7.64339h 0.181345v 6.15022h 0.181345v -6.76942h 0.181345v 3.76874h 0.181345v -1.12409h 0.181345v 1.12409h 0.181345v 1.64142h 0.181345v -0.427304h 0.181345v -1.59814h 0.181345v
 1.18254h 0.181345v 2.20216h 0.181345v -0.466754h 0.181345v -2.53393h 0.181345v 0.394004h 0.181345v 4.63212h 0.181345v -5.7847h 0.181345v 3.2925h 0.181345v -2.13992h 0.181345v 2.13992h 0.181345v -0.89251h 0.181345v -0.427304h 0.181345v 0.427304h
 0.181345v 2.85243h 0.181345v -2.41274h 0.181345v -1.28259h 0.181345v -0.798516h 0.181345v 5.02612h 0.181345v -5.02612h 0.181345v 5.57776h 0.181345v -1.59814h 0.181345v -1.89851h 0.181345v 1.89851h 0.181345v 3.38471h 0.181345v -8.84534h 0.181345v
 5.46063h 0.181345v 1.59814h 0.181345v -3.04383h 0.181345v -5.03791h 0.181345v 1.74541h 0.181345v 1.55709h 0.181345v 0.8429h 0.181345v 1.84084h 0.181345v -2.26814h 0.181345v -1.97269h 0.181345v 1.15258h 0.181345v 3.08825h 0.36269v -1.84084h 0.181345v
 -2.76551h 0.181345v 7.27431h 0.181345v -2.66796h 0.181345v -4.24083h 0.181345v 6.90879h 0.181345v 0.594912h 0.181345v -3.26287h 0.181345v 2.09551h 0.181345v 1.16737h 0.181345v 1.26476h 0.181345v -2.98376h 0.181345v 3.65802h 0.181345v -4.70452h
 0.181345v -0.497366h 0.181345v -0.948328h 0.181345v 4.2112h 0.181345v 0.6192h 0.36269v -3.38471h 0.181345v 5.41015h 0.36269v 2.3382h 0.181345v 1.78657h 0.181345v 3.14954h 0.181345v -8.6542h 0.181345v 6.4836h 0.181345v -5.80934h 0.181345v 3.04383h
 0.181345v 2.76551h 0.544034v -5.80934h 0.181345v 0.70563h 0.181345v 12.8521h 0.181345v -12.112h 0.181345v 5.41015h 0.181345v 2.3382h 0.181345v -5.28322h 0.181345v 6.60304h 0.181345v -9.80824h 0.181345v 8.48842h 0.181345v -8.48842h 0.181345v 2.3382h
 0.181345v 3.81201h 0.181345v -9.38977h 0.181345v 2.53393h 0.181345v 3.91083h 0.181345v 11.4334h 0.181345v -7.36433h 0.181345v -8.6542h 0.181345v 7.5301h 0.181345v -3.81201h 0.181345v 7.47003h 0.36269v 11.9596h 0.181345v -10.5139h 0.181345v 1.59814h
 0.181345v -1.59814h 0.181345v -3.97962h 0.181345v 1.21411h 0.181345v -6.15022h 0.181345v 1.78657h 0.181345v 10.5139h 0.36269v -9.53493h 0.181345v 1.0465h 0.181345v 8.48842h 0.181345v -1.78657h 0.181345v -6.70185h 0.181345v 1.12409h 0.181345v
 3.97962h 0.181345v 1.59814h 0.181345v -5.57776h 0.181345v -1.12409h 0.181345v 19.0023h 0.181345v -6.15022h 0.181345v -7.74836h 0.181345v -6.15022h 0.181345v 1.0465h 0.181345v 10.5139h 0.181345v -13.4589h 0.181345v 13.4589h 0.181345v 5.10371h
 0.36269v -17.643h 0.181345v 4.36365h 0.181345v -2.3382h 0.36269v 6.70185h 0.181345v -5.57776h 0.181345v -1.12409h 0.181345v -2.94502h 0.181345v 6.60304h 0.181345v -8.29014h 0.181345v 13.1205h 0.181345v -8.48842h 0.181345v -2.94502h 0.181345v
 0.919573h 0.181345v -1.78657h 0.181345v 4.93611h 0.181345v -1.12409h 0.181345v -2.02544h 0.181345v 4.36365h 0.181345v 1.31981h 0.181345v -10.5139h 0.181345v 3.91083h 0.181345v -1.6871h 0.181345v 11.334h 0.181345v -18.7596h 0.181345v 17.1614h
 0.181345v -8.04873h 0.181345v -3.2052h 0.181345v 2.3382h 0.181345v 12.3004h 0.181345v -3.38471h 0.181345v -1.44569h 0.181345v -10.5139h 0.181345v 7.97994h 0.181345v 2.53393h 0.181345v -5.68346h 0.181345v 2.02544h 0.181345v 12.8521h 0.181345v
 -2.3382h 0.181345v -13.4589h 0.181345v 1.89851h 0.181345v -2.76551h 0.181345v 19.4296h 0.181345v -15.6176h 0.181345v -4.63212h 0.181345v 11.334h 0.181345v -12.8521h 0.181345v 11.2539h 0.181345v -8.04873h 0.181345v 4.06911h 0.181345v 3.97962h
 0.181345v -5.10371h 0.181345v -10.5139h 0.181345v 0.551635h 0.181345v -3.93634h 0.181345v -2.76551h 0.181345v -1.7061h 0.181345v -1.23892h 0.181345v 2.5881h 0.181345v -5.05324h 0.181345v -0.97894h 0.181345v 1.49317h 0.181345v -3.27974h 0.181345v
 1.31981h 0.181345v -5.20189h 0.181345v 0.163983h 0.181345v -3.25223h 0.181345v 1.24741h 0.181345v -1.77051h 0.181345v -0.752301h 0.181345v -0.832979h 0.181345v 1.07962h 0.181345v -2.08748h 0.181345v -2.02544h 0.181345v 1.38892h 0.181345v -1.85567h
 0.181345v 2.06489h 0.181345v -1.97269h 0.181345v 0.374545h 0.181345v -1.8706h 0.181345v 0.253515h 0.181345v 1.90419h 0.181345v -3.59578h 0.181345v -0.816096h 0.181345v 2.25417h 0.181345v 1.13054h 0.181345v -3.01919h 0.181345v -0.437578h 0.181345v
 0.290311h 0.181345v 0.521811h 0.181345v 0.858076h 0.181345v -3.1746h 0.181345v 1.00935h 0.181345v -2.07754h 0.181345v 2.8629h 0.181345v -3.16327h 0.181345v -0.526121h 0.181345v -0.340875h 0.181345v 1.41202h 0.181345v -0.122821h 0.181345v -0.302771h
 0.181345v 0.737067h 0.181345v 0.190002h 0.181345v -0.0635988h 0.181345v 0.450896h 0.181345v 0.94411h 0.181345v -0.546665h 0.181345v 1.77818h 0.181345v 1.34041h 0.181345v 0.935037h 0.181345v 1.18491h 0.181345v -1.09698h 0.181345v 2.17738h 0.181345v
 3.53818h 0.181345v 2.35964h 0.181345v 0.45737h 0.181345v 1.98129h 0.181345v -3.4551h 0.181345v 3.4551h 0.181345v 3.34068h 0.181345v 0.905839h 0.181345v 0.963391h 0.181345v 1.57054h 0.181345v 4.8304h 0.181345v 2.02544h 0.181345v -0.8429h 0.181345v
 5.94661h 0.181345v 0.6192h 0.181345v 3.54354h 0.181345v -1.5181h 0.36269v 5.10371h 0.181345v 6.15022h 0.181345v 5.41015h 0.181345v -8.17566h 0.36269v 13.2794h 0.181345v -11.9596h 0.181345v 11.9596h 0.181345v -10.5139h 0.181345v 1.59814h 0.181345v
 8.91573h 0.181345v 7.74836h 0.181345v -12.8521h 0.181345v -2.02544h 0.36269v 4.36365h 0.181345v 10.5139h 0.181345v -4.36365h 0.181345v 4.36365h 0.181345v -14.8775h 0.181345v 2.02544h 0.181345v 8.48842h 0.181345v 4.36365h 0.36269v 16.6641h 0.181345v
 -10.5139h 0.181345v -6.15022h 0.181345v -4.36365h 0.36269v 4.36365h 0.181345v -7.74836h 0.181345v 24.4124h 0.181345v -16.6641h 0.181345v -7.74836h 0.181345v 13.8986h 0.544034v 10.5139h 0.181345v -10.5139h 0.181345v -6.15022h 0.544034v 6.15022h
 0.181345v -13.8986h 0.181345v 24.4124h 0.181345v -27.1779h 0.181345v 10.5139h 0.181345v 16.6641h 0.181345v -21.0277h 0.181345v 10.5139h 0.181345v -21.0277h 0.181345v 10.5139h 0.181345v 4.36365h 0.181345v -4.36365h 0.181345v -6.15022h 0.181345v
 16.6641h 0.181345v 10.5139h 0.181345v -31.5416h 0.181345v 14.8775h 0.36269v -7.74836h 0.36269v 24.4124h 0.181345v -21.0277h 0.181345v -10.5139h 0.181345v 14.8775h 0.36269v 6.15022h 0.181345v -10.5139h 0.36269v -8.48842h 0.181345v 8.48842h 0.181345v
 10.5139h 0.181345v -13.8986h 0.181345v 7.74836h 0.181345v -10.5139h 0.181345v 6.15022h 0.181345v -3.38471h 0.181345v -2.76551h 0.181345v -2.3382h 0.181345v 2.3382h 0.181345v 10.5139h 0.181345v 6.15022h 0.36269v -13.8986h 0.181345v 3.38471h 0.181345v
 -10.5139h 0.181345v 14.8775h 0.544034v -7.74836h 0.181345v 13.8986h 0.181345v -13.8986h 0.181345v -7.12916h 0.36269v 2.02544h 0.181345v -2.02544h 0.181345v 2.02544h 0.181345v -3.81201h 0.181345v -3.04383h 0.181345v 6.85585h 0.181345v -3.81201h
 0.181345v -3.04383h 0.181345v 9.19405h 0.181345v -9.19405h 0.181345v 6.85585h 0.181345v 8.48842h 0.181345v -10.5139h 0.181345v -4.8304h 0.36269v 6.85585h 0.181345v -3.81201h 0.36269v 12.3004h 0.181345v -12.3004h 0.181345v 1.78657h 0.181345v -4.8304h
 0.181345v -3.65802h 0.181345v 29.5162h 0.181345v -16.6641h 0.181345v -2.3382h 0.181345v 19.0023h 0.181345v -10.5139h 0.181345v 4.36365h 0.181345v 6.15022h 0.181345v -10.5139h 0.544034v 21.0277h 0.181345v -16.6641h 0.544034v 6.15022h 0.181345v
 -10.5139h 0.181345v 21.0277h 0.181345v -10.5139h 0.181345v -10.5139h 0.181345v -8.48842h 0.181345v 40.03h 0.181345v -27.1779h 0.181345v 6.15022h 0.181345v 21.0277h 0.181345v -21.0277h 0.181345v -10.5139h 0.36269v 4.36365h 0.181345v 16.6641h
 0.181345v -16.6641h 0.36269v 16.6641h 0.181345v -16.6641h 0.181345v 16.6641h 0.181345v -16.6641h 0.181345v 16.6641h 0.181345v -29.5162h 0.181345v 19.0023h 0.181345v 21.0277h 0.181345v -21.0277h 0.181345v 21.0277h 0.36269v -27.1779h 0.181345v
 16.6641h 0.36269v -16.6641h 0.36269v 6.15022h 0.36269v -6.15022h 0.181345v 6.15022h 0.181345v -10.5139h 0.181345v 4.36365h 0.181345v 6.15022h 0.181345v -16.6641h 0.181345v 2.76551h 0.181345v 7.74836h 0.181345v -10.5139h 0.181345v -2.3382h 0.181345v
 12.8521h 0.181345v -10.5139h 0.181345v 16.6641h 0.181345v 21.0277h 0.181345v -42.0555h 0.181345v 14.8775h 0.181345v -7.74836h 0.181345v 3.38471h 0.544034v 10.5139h 0.181345v -6.15022h 0.181345v -4.36365h 0.181345v 31.5416h 0.181345v -27.1779h
 0.36269v -7.74836h 0.181345v 7.74836h 0.181345v -7.74836h 0.181345v -2.76551h 0.181345v -2.3382h 0.181345v 2.3382h 0.181345v 27.1779h 0.181345v -38.9059h 0.181345v 22.2418h 0.36269v -10.5139h 0.181345v -2.3382h 0.181345v -3.81201h 0.181345v 3.81201h
 0.181345v 8.48842h 0.181345v -3.38471h 0.181345v -8.91573h 0.181345v 6.15022h 0.181345v -2.3382h 0.181345v 5.10371h 0.181345v -2.76551h 0.544034v -4.36365h 0.181345v 4.36365h 0.181345v -11.728h 0.181345v 14.4935h 0.181345v -8.91573h 0.181345v
 1.78657h 0.181345v 14.8775h 0.181345v -12.8521h 0.181345v 2.3382h 0.181345v -4.36365h 0.181345v 7.12916h 0.181345v 13.8986h 0.181345v -16.6641h 0.181345v 16.6641h 0.181345v 10.5139h 0.181345v -27.1779h 0.36269v 6.15022h 0.181345v -6.15022h 0.181345v
 16.6641h 0.181345v -13.8986h 0.181345v 3.38471h 0.181345v -6.15022h 0.181345v 2.76551h 0.181345v -2.76551h 0.181345v 2.76551h 0.181345v 7.74836h 0.181345v -10.5139h 0.181345v 2.76551h 0.181345v -8.91573h 0.181345v 8.91573h 0.181345v -2.76551h
 0.181345v 10.5139h 0.181345v -7.74836h 0.181345v -7.12916h 0.181345v 42.0555h 0.181345v -37.6918h 0.181345v 10.5139h 0.181345v -7.74836h 0.181345v -5.10371h 0.181345v 8.48842h 0.36269v -8.48842h 0.181345v -5.41015h 0.181345v 3.38471h 0.181345v
 21.0277h 0.181345v -16.6641h 0.181345v 27.1779h 0.181345v -21.0277h 0.181345v -10.5139h 0.36269v -1.78657h 0.181345v 6.15022h 0.181345v 2.76551h 0.181345v -2.76551h 0.181345v 2.76551h 0.181345v -8.91573h 0.181345v 12.3004h 0.181345v -8.48842h
 0.181345v 2.3382h 0.181345v 10.5139h 0.181345v -10.5139h 0.181345v 2.76551h 0.181345v -7.12916h 0.181345v 4.36365h 0.181345v 2.76551h 0.181345v -11.9596h 0.181345v 3.04383h 0.181345v 16.6641h 0.181345v 6.15022h 0.181345v -21.0277h 0.181345v
 -3.38471h 0.36269v 1.59814h 0.181345v 6.15022h 0.181345v 2.76551h 0.181345v -8.91573h 0.181345v 6.15022h 0.181345v -2.3382h 0.181345v -3.81201h 0.181345v -1.59814h 0.181345v 13.8986h 0.181345v -10.5139h 0.181345v -8.48842h 0.181345v 3.65802h
 0.181345v 4.8304h 0.181345v -1.78657h 0.181345v -3.04383h 0.181345v 25.8581h 0.181345v -31.5416h 0.181345v 0.97894h 0.181345v 7.74836h 0.36269v -6.70185h 0.181345v 2.3382h 0.181345v 8.17566h 0.181345v -5.41015h 0.181345v -1.44569h 0.181345v 3.04383h
 0.36269v 6.15022h 0.181345v -9.19405h 0.181345v 1.44569h 0.181345v -8.91573h 0.181345v 1.78657h 0.181345v -1.78657h 0.181345v 4.93611h 0.181345v -4.06911h 0.181345v 9.64687h 0.181345v 8.91573h 0.181345v -13.2794h 0.181345v 4.36365h 0.181345v
 -7.74836h 0.181345v 2.1706h 0.36269v -5.75621h 0.181345v 9.73583h 0.181345v -2.76551h 0.181345v -5.28322h 0.181345v 8.04873h 0.181345v -5.10371h 0.181345v 8.48842h 0.181345v -3.38471h 0.181345v 13.8986h 0.181345v -17.8782h 0.181345v -7.27431h
 0.181345v 21.7678h 0.181345v -15.6176h 0.181345v 1.12409h 0.181345v 1.21411h 0.181345v 1.31981h 0.181345v -1.31981h 0.36269v -7.74836h 0.181345v 12.112h 0.181345v 8.91573h 0.181345v -14.4935h 0.181345v -4.93611h 0.181345v 7.47003h 0.181345v
 -2.53393h 0.181345v -5.75621h 0.36269v 8.29014h 0.181345v -7.47003h 0.181345v 6.15022h 0.181345v -7.74836h 0.181345v 5.41015h 0.36269v -5.41015h 0.181345v 13.8986h 0.181345v -7.36433h 0.181345v 2.53393h 0.181345v -11.1881h 0.181345v 9.86831h
 0.181345v 2.76551h 0.181345v -8.04873h 0.181345v -0.866996h 0.181345v 1.78657h 0.181345v 0.97894h 0.36269v 2.1706h 0.181345v -11.638h 0.181345v 23.3659h 0.181345v -12.8521h 0.181345v -5.41015h 0.181345v 3.38471h 0.181345v -1.78657h 0.181345v
 0.866996h 0.181345v 2.94502h 0.181345v -6.15022h 0.181345v 14.6386h 0.181345v -15.3443h 0.181345v -1.93902h 0.181345v 5.84984h 0.181345v -3.91083h 0.36269v 7.97994h 0.181345v -8.6542h 0.181345v -4.03027h 0.181345v 6.92825h 0.181345v -7.42562h
 0.181345v 1.54387h 0.181345v 3.65802h 0.181345v -3.10638h 0.181345v 5.33011h 0.181345v -3.54354h 0.181345v -2.87048h 0.181345v 1.08391h 0.181345v -3.04383h 0.181345v 6.15022h 0.181345v 3.91083h 0.181345v -9.59429h 0.181345v 10.5139h 0.181345v
 -10.5139h 0.181345v 5.68346h 0.181345v -4.70452h 0.181345v 4.03027h 0.181345v 0.674258h 0.181345v -1.93902h 0.181345v 2.64464h 0.181345v -3.23956h 0.181345v 4.75765h 0.181345v -2.89798h 0.36269v 0.674258h 0.181345v -2.53393h 0.181345v 9.38977h
 0.181345v -6.15022h 0.181345v -2.64464h 0.181345v -1.16737h 0.181345v 5.33011h 0.181345v -5.88174h 0.181345v 1.12409h 0.181345v -0.572457h 0.36269v -3.04383h 0.181345v 8.37394h 0.181345v -5.88174h 0.181345v 3.65802h 0.181345v -1.93902h 0.181345v
 1.93902h 0.181345v -5.20189h 0.181345v 6.64758h 0.181345v -3.38471h 0.181345v 6.76942h 0.181345v -9.0207h 0.181345v 9.0207h 0.181345v -1.78657h 0.181345v 3.81201h 0.181345v -2.94502h 0.181345v -2.46514h 0.181345v 0.778032h 0.181345v 1.6871h
 0.181345v 2.94502h 0.181345v -4.63212h 0.181345v 11.334h 0.181345v -10.5139h 0.36269v 1.78657h 0.181345v 5.68346h 0.181345v -9.80824h 0.181345v 4.12477h 0.181345v 3.14954h 0.181345v -4.93611h 0.181345v 1.78657h 0.181345v -2.60668h 0.181345v 4.63212h
 0.181345v 3.65802h 0.181345v -3.65802h 0.181345v 1.12409h 0.181345v 5.57776h 0.181345v -13.5577h 0.181345v 9.19405h 0.181345v 6.15022h 0.181345v -9.53493h 0.181345v 4.70452h 0.36269v -9.80824h 0.181345v 9.80824h 0.181345v -1.31981h 0.181345v
 -5.28322h 0.181345v 1.89851h 0.181345v -3.58562h 0.181345v 2.60668h 0.181345v 5.68346h 0.181345v -6.60304h 0.36269v -0.866996h 0.181345v 3.81201h 0.181345v -1.0465h 0.181345v -2.76551h 0.181345v 3.81201h 0.181345v 2.3382h 0.181345v -1.21411h
 0.181345v -1.12409h 0.181345v -2.94502h 0.181345v 8.04873h 0.181345v -1.44569h 0.181345v 1.44569h 0.181345v 1.59814h 0.181345v -12.112h 0.181345v 7.74836h 0.181345v -6.15022h 0.181345v 6.15022h 0.181345v 4.36365h 0.181345v -1.59814h 0.36269v
 3.38471h 0.36269v -11.4334h 0.181345v 15.7971h 0.181345v -15.7971h 0.181345v -1.6871h 0.36269v 15.146h 0.181345v -15.146h 0.181345v 4.63212h 0.181345v -2.94502h 0.181345v 0.919573h 0.181345v 2.02544h 0.181345v 1.12409h 0.181345v -5.75621h 0.181345v
 3.58562h 0.181345v -4.36365h 0.181345v 6.53425h 0.181345v -2.1706h 0.181345v 3.38471h 0.181345v -3.38471h 0.181345v -4.36365h 0.181345v 0.778032h 0.181345v -1.5181h 0.181345v 4.12477h 0.181345v 5.68346h 0.181345v -8.29014h 0.181345v 3.58562h
 0.181345v -4.36365h 0.36269v 12.112h 0.181345v -15.4967h 0.181345v 4.98285h 0.181345v 1.78657h 0.181345v -0.919573h 0.181345v -2.46514h 0.181345v -1.44569h 0.181345v 7.97994h 0.181345v 2.53393h 0.181345v -9.06817h 0.181345v 3.38471h 0.181345v
 2.02544h 0.181345v -7.5301h 0.181345v 7.5301h 0.181345v -6.85585h 0.181345v 6.85585h 0.181345v -8.17566h 0.181345v 7.12916h 0.181345v -3.58562h 0.181345v 1.6871h 0.181345v 8.04873h 0.181345v -3.97962h 0.181345v -8.6542h 0.181345v 2.11995h 0.181345v
 4.36365h 0.181345v -1.89851h 0.181345v -3.2052h 0.181345v 11.2539h 0.181345v -8.04873h 0.181345v -1.6871h 0.181345v 2.60668h 0.181345v -3.38471h 0.36269v 1.59814h 0.181345v 0.866996h 0.181345v 8.04873h 0.181345v -11.9596h 0.36269v 3.91083h 0.181345v
 -3.2052h 0.181345v -0.70563h 0.181345v 6.85585h 0.181345v -6.85585h 0.181345v 3.04383h 0.36269v -3.04383h 0.181345v 4.8304h 0.181345v 7.12916h 0.181345v -8.04873h 0.181345v 4.06911h 0.181345v -7.97994h 0.181345v 7.97994h 0.181345v -3.14954h
 0.181345v -4.12477h 0.181345v 0.740064h 0.181345v 4.36365h 0.181345v -1.89851h 0.181345v -0.866996h 0.181345v -0.820108h 0.181345v -0.778032h 0.181345v 5.41015h 0.181345v -7.5301h 0.181345v 3.71809h 0.36269v -6.15022h 0.181345v 3.81201h 0.181345v
 -1.37989h 0.181345v 2.11995h 0.181345v -4.55208h 0.181345v 5.33011h 0.181345v -4.75765h 0.181345v 7.36433h 0.181345v -9.0207h 0.181345v 8.10112h 0.181345v -3.91083h 0.181345v 1.44569h 0.181345v -1.44569h 0.181345v 3.91083h 0.181345v 1.89851h
 0.181345v -8.34327h 0.181345v 3.97962h 0.181345v -4.55208h 0.181345v 2.43213h 0.181345v -1.26476h 0.36269v 3.38471h 0.181345v -8.48842h 0.181345v 7.74836h 0.181345v -2.02544h 0.181345v -2.87048h 0.181345v -1.01159h 0.181345v 4.52763h 0.181345v
 -1.85967h 0.36269v 4.75765h 0.181345v -4.75765h 0.181345v 8.34327h 0.181345v -6.4836h 0.181345v -1.85967h 0.181345v 3.97962h 0.181345v 1.59814h 0.181345v -1.59814h 0.181345v -5.10371h 0.181345v 3.65802h 0.181345v 1.44569h 0.181345v 7.74836h
 0.181345v -8.48842h 0.181345v 5.10371h 0.181345v -0.97894h 0.181345v 17.643h 0.181345v -16.6641h 0.181345v -5.80934h 0.181345v 15.3443h 0.181345v -11.4334h 0.181345v -0.866996h 0.181345v -2.3382h 0.181345v 12.8521h 0.181345v -11.334h 0.181345v
 8.29014h 0.181345v -2.53393h 0.181345v -1.12409h 0.181345v -1.0465h 0.544034v 1.0465h 0.181345v -6.15022h 0.181345v 9.80824h 0.181345v -5.68346h 0.181345v -2.60668h 0.181345v 9.73583h 0.181345v -2.76551h 0.181345v -5.28322h 0.181345v 0.919573h
 0.181345v -2.60668h 0.181345v -0.778032h 0.181345v 6.53425h 0.181345v -2.1706h 0.181345v -0.97894h 0.181345v -3.38471h 0.181345v 3.38471h 0.181345v 3.14954h 0.181345v -3.14954h 0.36269v -4.8304h 0.181345v 4.8304h 0.36269v -1.78657h 0.181345v
 -1.59814h 0.181345v 2.46514h 0.181345v -0.866996h 0.181345v -4.98285h 0.181345v 1.93902h 0.181345v 7.97994h 0.181345v -8.6542h 0.181345v 7.5301h 0.181345v 1.12409h 0.181345v -6.53425h 0.181345v 10.5139h 0.181345v -8.04873h 0.181345v 2.94502h
 0.181345v 6.70185h 0.181345v -10.5139h 0.181345v 4.93611h 0.181345v -4.06911h 0.181345v 4.06911h 0.181345v 3.97962h 0.181345v -8.91573h 0.181345v 0.866996h 0.181345v 9.64687h 0.181345v -4.36365h 0.181345v 1.31981h 0.181345v -2.53393h 0.181345v
 11.728h 0.181345v -11.728h 0.36269v 1.21411h 0.181345v 1.31981h 0.181345v 9.19405h 0.181345v -11.728h 0.36269v 5.57776h 0.181345v -4.36365h 0.181345v -1.21411h 0.181345v 7.36433h 0.181345v -1.78657h 0.181345v -3.04383h 0.181345v 3.04383h 0.181345v
 3.81201h 0.181345v 5.10371h 0.181345v -8.91573h 0.181345v 12.3004h 0.181345v -3.38471h 0.181345v -8.91573h 0.181345v 8.91573h 0.181345v -18.5626h 0.181345v 15.7971h 0.181345v -4.36365h 0.181345v 10.5139h 0.181345v -13.8986h 0.181345v 1.59814h
 0.181345v 6.15022h 0.181345v -2.3382h 0.544034v -8.17566h 0.181345v 2.76551h 0.181345v 18.2622h 0.181345v -12.8521h 0.181345v -6.85585h 0.181345v 3.04383h 0.181345v 6.15022h 0.181345v -2.3382h 0.181345v 2.3382h 0.181345v -4.36365h 0.181345v
 -3.38471h 0.181345v 7.74836h 0.181345v -2.3382h 0.181345v -2.02544h 0.181345v 7.12916h 0.181345v -2.76551h 0.36269v -2.3382h 0.36269v -8.17566h 0.181345v 4.36365h 0.181345v -4.36365h 0.181345v 13.2794h 0.181345v -7.12916h 0.181345v -6.15022h
 0.181345v 1.31981h 0.181345v -1.31981h 0.181345v 1.31981h 0.181345v -3.65802h 0.181345v 10.5139h 0.181345v -9.38977h 0.181345v 3.97962h 0.181345v 3.38471h 0.181345v 2.02544h 0.181345v 2.3382h 0.181345v -2.3382h 0.181345v 2.3382h 0.181345v 6.15022h
 0.181345v -10.5139h 0.181345v 7.12916h 0.181345v -5.10371h 0.181345v -5.41015h 0.181345v 3.38471h 0.181345v 2.02544h 0.181345v -5.41015h 0.181345v -1.44569h 0.181345v 4.8304h 0.181345v 7.12916h 0.544034v -13.2794h 0.181345v 4.36365h 0.36269v
 6.15022h 0.181345v -7.74836h 0.36269v -1.44569h 0.181345v 6.85585h 0.181345v 5.10371h 0.36269v -11.9596h 0.181345v 3.04383h 0.181345v -1.59814h 0.181345v 5.41015h 0.181345v -6.85585h 0.181345v 4.8304h 0.181345v -10.5139h 0.181345v 5.68346h 0.181345v
 6.85585h 0.181345v -3.81201h 0.181345v -6.70185h 0.181345v 3.65802h 0.181345v -2.53393h 0.181345v 7.36433h 0.181345v 4.36365h 0.181345v 6.15022h 0.181345v -3.38471h 0.181345v -11.9596h 0.181345v 15.3443h 0.181345v -10.5139h 0.181345v -8.48842h
 0.181345v 12.8521h 0.36269v -10.5139h 0.181345v 16.6641h 0.181345v -3.38471h 0.181345v -14.4935h 0.181345v 2.53393h 0.181345v 4.8304h 0.181345v 10.5139h 0.181345v -13.8986h 0.181345v -7.12916h 0.181345v 4.36365h 0.181345v 1.31981h 0.181345v
 -4.70452h 0.181345v 6.15022h 0.181345v 3.38471h 0.36269v -8.48842h 0.181345v 10.5139h 0.36269v -2.02544h 0.181345v -1.78657h 0.36269v -1.59814h 0.181345v -2.76551h 0.181345v 8.17566h 0.181345v -6.85585h 0.181345v -5.68346h 0.181345v 8.7273h
 0.181345v -1.59814h 0.181345v -6.15022h 0.181345v 7.74836h 0.181345v 1.78657h 0.181345v -8.48842h 0.181345v -2.94502h 0.181345v -0.866996h 0.181345v 7.47003h 0.181345v -3.65802h 0.36269v 2.3382h 0.181345v 2.76551h 0.181345v -7.12916h 0.181345v
 5.68346h 0.36269v -5.68346h 0.181345v 0.97894h 0.181345v -1.89851h 0.181345v -3.91083h 0.181345v 1.44569h 0.181345v 7.74836h 0.181345v -3.38471h 0.181345v -7.74836h 0.181345v 1.93902h 0.181345v 7.97994h 0.181345v -7.97994h 0.181345v 6.85585h
 0.181345v -6.15022h 0.181345v 7.27431h 0.181345v -2.1706h 0.181345v -4.36365h 0.181345v 9.06817h 0.181345v -8.29014h 0.181345v 0.820108h 0.181345v -7.23413h 0.181345v 9.0207h 0.181345v 8.7273h 0.181345v -12.112h 0.181345v 6.53425h 0.181345v
 -4.06911h 0.181345v -3.91083h 0.181345v 9.19405h 0.181345v -6.15022h 0.181345v 6.15022h 0.181345v -3.38471h 0.181345v 3.38471h 0.181345v -3.38471h 0.181345v 3.38471h 0.181345v -2.3382h 0.181345v -8.17566h 0.181345v 6.15022h 0.181345v 4.36365h
 0.181345v -11.1331h 0.181345v 1.26476h 0.181345v 9.86831h 0.181345v -5.28322h 0.181345v -3.2052h 0.181345v 0.740064h 0.181345v 2.46514h 0.181345v -6.44476h 0.181345v 7.36433h 0.181345v 0.97894h 0.544034v -0.97894h 0.181345v 3.14954h 0.181345v
 2.53393h 0.181345v -3.65802h 0.181345v 8.48842h 0.181345v -1.78657h 0.181345v -1.59814h 0.181345v -2.76551h 0.181345v -6.15022h 0.181345v 14.3259h 0.181345v 2.3382h 0.36269v -6.15022h 0.181345v -1.59814h 0.181345v -1.44569h 0.181345v 6.85585h
 0.181345v 2.3382h 0.36269v -4.36365h 0.36269v 10.5139h 0.181345v 10.5139h 0.181345v -10.5139h 0.181345v -10.5139h 0.181345v -4.8304h 0.181345v 15.3443h 0.181345v 31.5416h 0.181345v -31.5416h 0.36269v 4.36365h 0.36269v -7.74836h 0.181345v 13.8986h
 0.181345v 10.5139h 0.181345v -21.0277h 0.181345v 10.5139h 0.181345v -6.15022h 0.181345v 16.6641h 0.181345v -10.5139h 0.181345v 10.5139h 0.181345v -10.5139h 0.181345v 10.5139h 0.181345v -16.6641h 0.181345v 6.15022h 0.181345v -13.8986h 0.181345v
 7.74836h 0.181345v 6.15022h 0.36269v 10.5139h 0.181345v 10.5139h 0.181345v -10.5139h 0.181345v -21.0277h 0.181345v 21.0277h 0.181345v -21.0277h 0.181345v 31.5416h 0.36269v -21.0277h 0.181345v 21.0277h 0.906724v -10.5139h 0.181345v -10.5139h
 0.181345v 21.0277h 0.181345v -10.5139h 0.181345v -10.5139h 0.36269v 10.5139h 0.181345v 10.5139h 0.181345v -10.5139h 0.181345v 10.5139h 0.36269v -10.5139h 0.181345v 10.5139h 0.36269v -10.5139h 0.181345v 10.5139h 0.36269v -21.0277h 0.181345v 21.0277h
 0.181345v -10.5139h 0.181345v 10.5139h 0.181345v -21.0277h 0.181345v 21.0277h 0.181345v -27.1779h 0.181345v 27.1779h 0.181345v -10.5139h 0.36269v 10.5139h 0.181345v -10.5139h 0.36269v 10.5139h 0.181345v -10.5139h 0.181345v 10.5139h 0.181345v
 -10.5139h 0.181345v 10.5139h 0.181345v -10.5139h 0.181345v 10.5139h 0.544034v -10.5139h 0.181345v 10.5139h 0.36269v -10.5139h 0.36269v 10.5139h 0.181345v -21.0277h 0.181345v 10.5139h 0.36269v 10.5139h 0.36269v -31.5416h 0.181345v 31.5416h 0.181345v
 -10.5139h 0.181345v 10.5139h 0.181345v -21.0277h 0.36269v 21.0277h 0.181345v -21.0277h 0.544034v 21.0277h 0.181345v -21.0277h 0.181345v 21.0277h 0.725379v -27.1779h 0.181345v 27.1779h 0.36269v -10.5139h 0.181345v 10.5139h 0.181345v -10.5139h
 0.181345v -10.5139h 0.181345v 21.0277h 0.181345v -10.5139h 0.544034v -10.5139h 0.181345v 10.5139h 0.181345v 10.5139h 0.36269v -10.5139h 0.181345v 10.5139h 0.181345v -21.0277h 0.181345v 21.0277h 0.181345v -10.5139h 0.36269v 10.5139h 0.181345v
 -10.5139h 0.36269v 10.5139h 0.36269v -27.1779h 0.181345v 27.1779h 0.181345v -10.5139h 0.181345v 10.5139h 0.36269v -10.5139h 0.181345v 10.5139h 0.36269v -10.5139h 0.544034v 10.5139h 0.725379v -10.5139h 0.181345v 10.5139h 0.181345v -10.5139h 0.181345v
 10.5139h 0.181345v -21.0277h 0.181345v 21.0277h 0.544034v -10.5139h 0.181345v -16.6641h 0.181345v 16.6641h 0.181345v 10.5139h 1.08807v -10.5139h 0.36269v 10.5139h 0.181345v -21.0277h 0.181345v 21.0277h 0.36269v -10.5139h 0.36269v 10.5139h 0.181345v
 -21.0277h 0.544034v 21.0277h 0.36269v -10.5139h 0.181345v 10.5139h 0.36269v -21.0277h 0.36269v 21.0277h 0.36269v -10.5139h 0.544034v -16.6641h 0.181345v 16.6641h 0.181345v 10.5139h 0.181345v -10.5139h 0.181345v 10.5139h 1.26941v -10.5139h 0.181345v
 10.5139h 0.181345v -10.5139h 0.181345v 10.5139h 0.725379v -10.5139h 0.36269v 10.5139h 0.181345v -10.5139h 0.181345v 10.5139h 0.725379v -10.5139h 0.181345v 10.5139h 0.181345v -10.5139h 0.181345v -16.6641h 0.181345v 27.1779h 0.725379v -10.5139h
 0.181345v 10.5139h 0.36269v -10.5139h 0.181345v 10.5139h 0.906724v -10.5139h 0.181345v 10.5139h 0.544034v -10.5139h 0.181345v 10.5139h 0.906724v -10.5139h 0.181345v 10.5139h 1.08807v -10.5139h 0.181345v 10.5139h 0.181345v -10.5139h 0.181345v
 -16.6641h 0.181345v 27.1779h 0.181345v -27.1779h 0.181345v 27.1779h 0.36269v -10.5139h 0.36269v 10.5139h 0.181345v -10.5139h 0.181345v 10.5139h 0.725379v -10.5139h 0.181345v 10.5139h 0.906724v -10.5139h 0.181345v 10.5139h 0.181345v -10.5139h
 0.181345v 10.5139h 0.906724v -10.5139h 0.181345v -21.0277h 0.181345v 31.5416h 0.36269v -10.5139h 0.181345v 10.5139h 0.544034v -21.0277h 0.181345v 21.0277h 0.181345v -21.0277h 0.36269v 21.0277h 0.181345v -10.5139h 0.181345v 10.5139h 0.36269v
 -10.5139h 0.181345v 10.5139h 0.181345v -21.0277h 0.181345v 21.0277h 0.544034v -21.0277h 0.181345v 21.0277h 0.544034v -10.5139h 1.45076" fill="none" stroke="black"/>
<path d="M57.1929,280.151h 453.543" fill="none" stroke="black"/>
<path d="M57.1929,272.68v 7.47068" fill="none" stroke="black"/>
<path d="M75.3318,276.415v 3.73534" fill="none" stroke="black"/>
<path d="M93.4707,276.415v 3.73534" fill="none" stroke="black"/>
<path d="M111.61,276.415v 3.73534" fill="none" stroke="black"/>
<path d="M129.749,276.415v 3.73534" fill="none" stroke="black"/>
<path d="M147.887,272.68v 7.47068" fill="none" stroke="black"/>
<path d="M166.026,276.415v 3.73534" fill="none" stroke="black"/>
<path d="M184.165,276.415v 3.73534" fill="none" stroke="black"/>
<path d="M202.304,276.415v 3.73534" fill="none" stroke="black"/>
<path d="M220.443,276.415v 3.73534" fill="none" stroke="black"/>
<path d="M238.582,272.68v 7.47068" fill="none" stroke="black"/>
<path d="M256.721,276.415v 3.73534" fill="none" stroke="black"/>
<path d="M274.86,276.415v 3.73534" fill="none" stroke="black"/>
<path d="M292.999,276.415v 3.73534" fill="none" stroke="black"/>
<path d="M311.138,276.415v 3.73534" fill="none" stroke="black"/>
<path d="M329.277,272.68v 7.47068" fill="none" stroke="black"/>
<path d="M347.415,276.415v 3.73534" fill="none" stroke="black"/>
<path d="M365.554,276.415v 3.73534" fill="none" stroke="black"/>
<path d="M383.693,276.415v 3.73534" fill="none" stroke="black"/>
<path d="M401.832,276.415v 3.73534" fill="none" stroke="black"/>
<path d="M419.971,272.68v 7.47068" fill="none" stroke="black"/>
<path d="M438.11,276.415v 3.73534" fill="none" stroke="black"/>
<path d="M456.249,276.415v 3.73534" fill="none" stroke="black"/>
<path d="M474.388,276.415v 3.73534" fill="none" stroke="black"/>
<path d="M492.527,276.415v 3.73534" fill="none" stroke="black"/>
<path d="M510.666,272.68v 7.47068" fill="none" stroke="black"/>
<path d="M510.666,272.68v 7.47068" fill="none" stroke="black"/>
<text xml:space="preserve" x="54.3523" y="290.27" fill="black" font-size="10.4952" font-family="Helvetica">0</text>
<text xml:space="preserve" x="139.569" y="290.27" fill="black" font-size="10.4952" font-family="Helvetica">500</text>
<text xml:space="preserve" x="227.449" y="290.27" fill="black" font-size="10.4952" font-family="Helvetica">1000</text>
<text xml:space="preserve" x="318.288" y="290.27" fill="black" font-size="10.4952" font-family="Helvetica">1500</text>
<text xml:space="preserve" x="408.831" y="290.27" fill="black" font-size="10.4952" font-family="Helvetica">2000</text>
<text xml:space="preserve" x="499.67" y="290.27" fill="black" font-size="10.4952" font-family="Helvetica">2500</text>
<text xml:space="preserve" x="265.323" y="301.218" fill="black" font-size="10.4952" font-family="Helvetica">Channel</text>
<path d="M57.1929,280.151v -249.023" fill="none" stroke="black"/>
<path d="M63.9961,280.151h -6.80315" fill="none" stroke="black"/>
<path d="M63.9961,277.385h -6.80315" fill="none" stroke="black"/>
<path d="M63.9961,275.047h -6.80315" fill="none" stroke="black"/>
<path d="M63.9961,273.021h -6.80315" fill="none" stroke="black"/>
<path d="M63.9961,271.235h -6.80315" fill="none" stroke="black"/>
<path d="M70.7992,269.637h -13.6063" fill="none" stroke="black"/>
<text xml:space="preserve" x="49.0263" y="273.404" fill="black" font-size="10.4952" font-family="Helvetica">1</text>
<path d="M63.9961,259.123h -6.80315" fill="none" stroke="black"/>
<path d="M63.9961,252.973h -6.80315" fill="none" stroke="black"/>
<path d="M63.9961,248.609h -6.80315" fill="none" stroke="black"/>
<path d="M63.9961,245.224h -6.80315" fill="none" stroke="black"/>
<path d="M63.9961,242.459h -6.80315" fill="none" stroke="black"/>
<path d="M63.9961,240.121h -6.80315" fill="none" stroke="black"/>
<path d="M63.9961,238.095h -6.80315" fill="none" stroke="black"/>
<path d="M63.9961,236.309h -6.80315" fill="none" stroke="black"/>
<path d="M70.7992,234.71h -13.6063" fill="none" stroke="black"/>
<text xml:space="preserve" x="41.629" y="238.489" fill="black" font-size="10.4952" font-family="Helvetica">10</text>
<path d="M63.9961,224.197h -6.80315" fill="none" stroke="black"/>
<path d="M63.9961,218.046h -6.80315" fill="none" stroke="black"/>
<path d="M63.9961,213.683h -6.80315" fill="none" stroke="black"/>
<path d="M63.9961,210.298h -6.80315" fill="none" stroke="black"/>
<path d="M63.9961,207.532h -6.80315" fill="none" stroke="black"/>
<path d="M63.9961,205.194h -6.80315" fill="none" stroke="black"/>
<path d="M63.9961,203.169h -6.80315" fill="none" stroke="black"/>
<path d="M63.9961,201.382h -6.80315" fill="none" stroke="black"/>
<path d="M70.7992,199.784h -13.6063" fill="none" stroke="black"/>
<text xml:space="preserve" x="49.0263" y="200.023" fill="black" font-size="7.16345" font-family="Helvetica">2</text>
<text xml:space="preserve" x="38.0783" y="204.461" fill="black" font-size="10.4952" font-family="Helvetica">10</text>
<path d="M63.9961,189.27h -6.80315" fill="none" stroke="black"/>
<path d="M63.9961,183.12h -6.80315" fill="none" stroke="black"/>
<path d="M63.9961,178.756h -6.80315" fill="none" stroke="black"/>
<path d="M63.9961,175.372h -6.80315" fill="none" stroke="black"/>
<path d="M63.9961,172.606h -6.80315" fill="none" stroke="black"/>
<path d="M63.9961,170.268h -6.80315" fill="none" stroke="black"/>
<path d="M63.9961,168.242h -6.80315" fill="none" stroke="black"/>
<path d="M63.9961,166.456h -6.80315" fill="none" stroke="black"/>
<path d="M70.7992,164.858h -13.6063" fill="none" stroke="black"/>
<text xml:space="preserve" x="49.0263" y="164.812" fill="black" font-size="7.16345" font-family="Helvetica">3</text>
<text xml:space="preserve" x="38.0783" y="169.546" fill="black" font-size="10.4952" font-family="Helvetica">10</text>
<path d="M63.9961,154.344h -6.80315" fill="none" stroke="black"/>
<path d="M63.9961,148.194h -6.80315" fill="none" stroke="black"/>
<path d="M63.9961,143.83h -6.80315" fill="none" stroke="black"/>
<path d="M63.9961,140.445h -6.80315" fill="none" stroke="black"/>
<path d="M63.9961,137.68h -6.80315" fill="none" stroke="black"/>
<path d="M63.9961,135.342h -6.80315" fill="none" stroke="black"/>
<path d="M63.9961,133.316h -6.80315" fill="none" stroke="black"/>
<path d="M63.9961,131.53h -6.80315" fill="none" stroke="black"/>
<path d="M70.7992,129.931h -13.6063" fill="none" stroke="black"/>
<text xml:space="preserve" x="49.0263" y="130.192" fill="black" font-size="7.16345" font-family="Helvetica">4</text>
<text xml:space="preserve" x="38.0783" y="134.631" fill="black" font-size="10.4952" font-family="Helvetica">10</text>
<path d="M63.9961,119.418h -6.80315" fill="none" stroke="black"/>
<path d="M63.9961,113.267h -6.80315" fill="none" stroke="black"/>
<path d="M63.9961,108.904h -6.80315" fill="none" stroke="black"/>
<path d="M63.9961,105.519h -6.80315" fill="none" stroke="black"/>
<path d="M63.9961,102.754h -6.80315" fill="none" stroke="black"/>
<path d="M63.9961,100.415h -6.80315" fill="none" stroke="black"/>
<path d="M63.9961,98.3899h -6.80315" fill="none" stroke="black"/>
<path d="M63.9961,96.6033h -6.80315" fill="none" stroke="black"/>
<path d="M70.7992,95.0052h -13.6063" fill="none" stroke="black"/>
<text xml:space="preserve" x="49.0263" y="94.9813" fill="black" font-size="7.16345" font-family="Helvetica">5</text>
<text xml:space="preserve" x="38.0783" y="99.7156" fill="black" font-size="10.4952" font-family="Helvetica">10</text>
<path d="M63.9961,84.4913h -6.80315" fill="none" stroke="black"/>
<path d="M63.9961,78.3411h -6.80315" fill="none" stroke="black"/>
<path d="M63.9961,73.9774h -6.80315" fill="none" stroke="black"/>
<path d="M63.9961,70.5927h -6.80315" fill="none" stroke="black"/>
<path d="M63.9961,67.8272h -6.80315" fill="none" stroke="black"/>
<path d="M63.9961,65.489h -6.80315" fill="none" stroke="black"/>
<path d="M63.9961,63.4636h -6.80315" fill="none" stroke="black"/>
<path d="M63.9961,61.677h -6.80315" fill="none" stroke="black"/>
<path d="M70.7992,60.0789h -13.6063" fill="none" stroke="black"/>
<text xml:space="preserve" x="49.0263" y="60.0661" fill="black" font-size="7.16345" font-family="Helvetica">6</text>
<text xml:space="preserve" x="38.0783" y="64.8004" fill="black" font-size="10.4952" font-family="Helvetica">10</text>
<path d="M63.9961,49.565h -6.80315" fill="none" stroke="black"/>
<path d="M63.9961,43.4148h -6.80315" fill="none" stroke="black"/>
<path d="M63.9961,39.0511h -6.80315" fill="none" stroke="black"/>
<path d="M63.9961,35.6664h -6.80315" fill="none" stroke="black"/>
<path d="M63.9961,32.9009h -6.80315" fill="none" stroke="black"/>
<g transform="rotate(-90,26.5385,191.442)">
<text xml:space="preserve" x="26.5385" y="191.442" fill="black" font-size="10.4952" font-family="Helvetica">Counts/Channel</text>
</g>
<text xml:space="preserve" x="404.097" y="60.0661" fill="black" font-size="14.7788" font-family="Helvetica" font-weight="bold"> = 2.4879 MeV</text>
<text xml:space="preserve" x="398.179" y="63.3209" fill="black" font-size="10.0192" font-family="Helvetica" font-weight="bold">p</text>
<text xml:space="preserve" x="389.006" y="60.0661" fill="black" font-size="14.7788" font-family="Helvetica" font-weight="bold">E</text>
<path d="M262.163,163.412v 26.2533" fill="none" stroke="black"/>
<path d="M264.454,189.665l -2.29122, 3.9685l -2.29122, -3.9685z" fill="black"/>
<path d="M264.454,189.665l -2.29122, 3.9685l -2.29122, -3.9685h 4.58243z" fill="none" stroke="black"/>
<text xml:space="preserve" x="266.803" y="161.261" fill="black" font-size="10.4952" font-family="Helvetica" font-weight="bold">_1 	1.369 MeV</text>
<text xml:space="preserve" x="260.293" y="161.261" fill="black" font-size="10.4952" font-family="Times">&#0945;</text>
<path d="M184.528,129.931v 30.9578" fill="none" stroke="black"/>
<path d="M186.819,160.889l -2.29122, 3.9685l -2.29122, -3.9685z" fill="black"/>
<path d="M186.819,160.889l -2.29122, 3.9685l -2.29122, -3.9685h 4.58243z" fill="none" stroke="black"/>
<text xml:space="preserve" x="172.117" y="126.938" fill="black" font-size="10.4952" font-family="Helvetica" font-weight="bold"># p_1 	0.844 MeV</text>
<path d="M210.104,148.194v 12.6956" fill="none" stroke="black"/>
<path d="M212.395,160.889l -2.29122, 3.9685l -2.29122, -3.9685z" fill="black"/>
<path d="M212.395,160.889l -2.29122, 3.9685l -2.29122, -3.9685h 4.58243z" fill="none" stroke="black"/>
<text xml:space="preserve" x="197.564" y="143.804" fill="black" font-size="10.4952" font-family="Helvetica" font-weight="bold"># p_2 	1.015 MeV</text>
<path d="M497.568,269.637h 13.0975" fill="none" stroke="black"/>
<path d="M504.117,259.123h 6.54875" fill="none" stroke="black"/>
<path d="M504.117,252.973h 6.54875" fill="none" stroke="black"/>
<path d="M504.117,248.609h 6.54875" fill="none" stroke="black"/>
<path d="M504.117,245.224h 6.54875" fill="none" stroke="black"/>
<path d="M504.117,242.459h 6.54875" fill="none" stroke="black"/>
<path d="M504.117,240.121h 6.54875" fill="none" stroke="black"/>
<path d="M504.117,238.095h 6.54875" fill="none" stroke="black"/>
<path d="M504.117,236.309h 6.54875" fill="none" stroke="black"/>
<path d="M497.568,234.71h 13.0975" fill="none" stroke="black"/>
<path d="M504.117,224.197h 6.54875" fill="none" stroke="black"/>
<path d="M504.117,218.046h 6.54875" fill="none" stroke="black"/>
<path d="M504.117,213.683h 6.54875" fill="none" stroke="black"/>
<path d="M504.117,210.298h 6.54875" fill="none" stroke="black"/>
<path d="M504.117,207.532h 6.54875" fill="none" stroke="black"/>
<path d="M504.117,205.194h 6.54875" fill="none" stroke="black"/>
<path d="M504.117,203.169h 6.54875" fill="none" stroke="black"/>
<path d="M504.117,201.382h 6.54875" fill="none" stroke="black"/>
<path d="M497.568,199.784h 13.0975" fill="none" stroke="black"/>
<path d="M504.117,189.27h 6.54875" fill="none" stroke="black"/>
<path d="M504.117,183.12h 6.54875" fill="none" stroke="black"/>
<path d="M504.117,178.756h 6.54875" fill="none" stroke="black"/>
<path d="M504.117,175.372h 6.54875" fill="none" stroke="black"/>
<path d="M504.117,172.606h 6.54875" fill="none" stroke="black"/>
<path d="M504.117,170.268h 6.54875" fill="none" stroke="black"/>
<path d="M504.117,168.242h 6.54875" fill="none" stroke="black"/>
<path d="M504.117,166.456h 6.54875" fill="none" stroke="black"/>
<path d="M497.568,164.858h 13.0975" fill="none" stroke="black"/>
<path d="M504.117,154.344h 6.54875" fill="none" stroke="black"/>
<path d="M504.117,148.194h 6.54875" fill="none" stroke="black"/>
<path d="M504.117,143.83h 6.54875" fill="none" stroke="black"/>
<path d="M504.117,140.445h 6.54875" fill="none" stroke="black"/>
<path d="M504.117,137.68h 6.54875" fill="none" stroke="black"/>
<path d="M504.117,135.342h 6.54875" fill="none" stroke="black"/>
<path d="M504.117,133.316h 6.54875" fill="none" stroke="black"/>
<path d="M504.117,131.53h 6.54875" fill="none" stroke="black"/>
<path d="M497.568,129.931h 13.0975" fill="none" stroke="black"/>
<path d="M504.117,119.418h 6.54875" fill="none" stroke="black"/>
<path d="M504.117,113.267h 6.54875" fill="none" stroke="black"/>
<path d="M504.117,108.904h 6.54875" fill="none" stroke="black"/>
<path d="M504.117,105.519h 6.54875" fill="none" stroke="black"/>
<path d="M504.117,102.754h 6.54875" fill="none" stroke="black"/>
<path d="M504.117,100.415h 6.54875" fill="none" stroke="black"/>
<path d="M504.117,98.3899h 6.54875" fill="none" stroke="black"/>
<path d="M504.117,96.6033h 6.54875" fill="none" stroke="black"/>
<path d="M497.568,95.0052h 13.0975" fill="none" stroke="black"/>
<path d="M504.117,84.4913h 6.54875" fill="none" stroke="black"/>
<path d="M504.117,78.3411h 6.54875" fill="none" stroke="black"/>
<path d="M504.117,73.9774h 6.54875" fill="none" stroke="black"/>
<path d="M504.117,70.5927h 6.54875" fill="none" stroke="black"/>
<path d="M504.117,67.8272h 6.54875" fill="none" stroke="black"/>
<path d="M504.117,65.489h 6.54875" fill="none" stroke="black"/>
<path d="M504.117,63.4636h 6.54875" fill="none" stroke="black"/>
<path d="M504.117,61.677h 6.54875" fill="none" stroke="black"/>
<path d="M497.568,60.0789h 13.0975" fill="none" stroke="black"/>
<path d="M504.117,49.565h 6.54875" fill="none" stroke="black"/>
<path d="M504.117,43.4148h 6.54875" fill="none" stroke="black"/>
<path d="M504.117,39.0511h 6.54875" fill="none" stroke="black"/>
<path d="M504.117,35.6664h 6.54875" fill="none" stroke="black"/>
<path d="M504.117,32.9009h 6.54875" fill="none" stroke="black"/>
<path d="M504.117,30.5627h 6.54875" fill="none" stroke="black"/>
<path d="M57.1929,37.3957v -7.46952" fill="none" stroke="black"/>
<path d="M75.3318,37.3957v -7.46952" fill="none" stroke="black"/>
<path d="M93.4707,37.3957v -7.46952" fill="none" stroke="black"/>
<path d="M111.61,37.3957v -7.46952" fill="none" stroke="black"/>
<path d="M129.749,37.3957v -7.46952" fill="none" stroke="black"/>
<path d="M147.887,37.3957v -7.46952" fill="none" stroke="black"/>
<path d="M166.026,37.3957v -7.46952" fill="none" stroke="black"/>
<path d="M184.165,37.3957v -7.46952" fill="none" stroke="black"/>
<path d="M202.304,37.3957v -7.46952" fill="none" stroke="black"/>
<path d="M220.443,37.3957v -7.46952" fill="none" stroke="black"/>
<path d="M238.582,37.3957v -7.46952" fill="none" stroke="black"/>
<path d="M256.721,37.3957v -7.46952" fill="none" stroke="black"/>
<path d="M274.86,37.3957v -7.46952" fill="none" stroke="black"/>
<path d="M292.999,37.3957v -7.46952" fill="none" stroke="black"/>
<path d="M311.138,37.3957v -7.46952" fill="none" stroke="black"/>
<path d="M329.277,37.3957v -7.46952" fill="none" stroke="black"/>
<path d="M347.415,37.3957v -7.46952" fill="none" stroke="black"/>
<path d="M365.554,37.3957v -7.46952" fill="none" stroke="black"/>
<path d="M383.693,37.3957v -7.46952" fill="none" stroke="black"/>
<path d="M401.832,37.3957v -7.46952" fill="none" stroke="black"/>
<path d="M419.971,37.3957v -7.46952" fill="none" stroke="black"/>
<path d="M438.11,37.3957v -7.46952" fill="none" stroke="black"/>
<path d="M456.249,37.3957v -7.46952" fill="none" stroke="black"/>
<path d="M474.388,37.3957v -7.46952" fill="none" stroke="black"/>
<path d="M492.527,37.3957v -7.46952" fill="none" stroke="black"/>
<path d="M510.666,37.3957v -7.46952" fill="none" stroke="black"/></svg>
