<?xml version="1.0" standalone="no"?>
<svg width="567.429" height="311.778" viewBox="0 0 567.429 311.778" xmlns="http://www.w3.org/2000/svg" shape-rendering="crispEdges">
<title>
Yields/P1/run_0100/det3_Fit.svg
</title>
<desc>
Creator: ROOT Version 6.12/06
CreationDate: Mon Apr 15 10:29:01 2019</desc>
<defs>
</defs>
<rect x="0.5" y="0" width="566.929" height="311.278" fill="white"/>
<rect x="57.1929" y="31.1278" width="453.543" height="249.023" fill="white"/>
<rect x="57.1929" y="31.1278" width="453.543" height="249.023" fill="none" stroke="black"/>
<path d="M57.1929,40.8409h 0.181345v 239.31h 13.2382v -10.5348h 0.181345v 10.5348h 2.35748v -10.5348h 0.181345v 10.5348h 3.08286v -10.5348h 0.181345v 10.5348h 3.6269v -10.5348h 0.181345v 10.5348h 0.181345v -10.5348h 0.181345v 10.5348h 2.53883v
 -10.5348h 0.36269v 10.5348h 1.45076v -10.5348h 0.181345v 10.5348h 2.17614v -10.5348h 0.36269v 10.5348h 0.725379v -27.2321h 0.181345v 16.6973h 0.181345v -16.6973h 0.181345v -25.442h 0.181345v -13.9263h 0.181345v -9.34993h 0.181345v -12.3705h
 0.181345v -5.94863h 0.181345v -4.94595h 0.181345v -4.50509h 0.181345v -1.20636h 0.181345v -1.86455h 0.36269v -0.814637h 0.181345v -1.34588h 0.181345v -1.12801h 0.181345v -0.617825h 0.181345v -0.713678h 0.181345v 0.0798874h 0.181345v -0.608415h
 0.181345v 0.0385261h 0.181345v -0.807525h 0.181345v -0.922482h 0.181345v 0.722618h 0.181345v -1.21376h 0.181345v 0.542863h 0.181345v -0.741539h 0.181345v 0.0824665h 0.181345v 0.0995541h 0.181345v -0.794558h 0.181345v 0.432671h 0.181345v 0.596748h
 0.181345v -0.934329h 0.181345v 0.12772h 0.181345v 0.373288h 0.181345v -0.357247h 0.181345v -0.781991h 0.181345v 0.511575h 0.181345v -0.172445h 0.181345v -0.445467h 0.181345v -0.0755021h 0.181345v -0.253937h 0.181345v 0.118972h 0.181345v 0.500846h
 0.181345v 0.0928631h 0.181345v -1.1219h 0.181345v 1.27794h 0.181345v -0.463406h 0.181345v -0.196503h 0.181345v 0.272763h 0.181345v -0.377529h 0.181345v -0.207391h 0.181345v 1.43387h 0.181345v -0.367403h 0.181345v 0.0791181h 0.181345v 0.434504h
 0.181345v -0.242923h 0.181345v 1.18577h 0.36269v -0.61279h 0.181345v -0.0499679h 0.181345v -0.34525h 0.181345v 0.196324h 0.181345v 1.1276h 0.181345v -0.895303h 0.181345v -1.22039h 0.181345v -1.04345h 0.181345v 0.188444h 0.181345v -3.6288h 0.181345v
 -2.50448h 0.181345v -3.02065h 0.181345v -3.36748h 0.181345v -2.80831h 0.181345v -2.77811h 0.181345v -2.11069h 0.181345v -2.82172h 0.181345v -1.15605h 0.181345v -1.14879h 0.181345v -0.356349h 0.181345v 0.350845h 0.181345v 0.497807h 0.181345v 1.53954h
 0.181345v 1.97609h 0.181345v 2.10234h 0.181345v 2.62525h 0.181345v 4.40498h 0.181345v 2.69541h 0.181345v 3.75067h 0.181345v 4.24638h 0.181345v 3.84038h 0.181345v 4.15852h 0.181345v 3.22474h 0.181345v 0.823278h 0.181345v 1.34102h 0.181345v 1.54126h
 0.181345v -0.105424h 0.36269v 0.390182h 0.181345v 0.253617h 0.181345v 1.09826h 0.181345v -0.653388h 0.181345v -0.224061h 0.181345v 0.995727h 0.181345v -1.25302h 0.181345v 2.3611h 0.181345v -1.69047h 0.181345v 1.22924h 0.181345v -1.64257h 0.181345v
 1.7254h 0.181345v -0.610465h 0.181345v 0.160408h 0.181345v 0.284854h 0.181345v 0.206786h 0.181345v 0.594432h 0.181345v -0.636015h 0.181345v -0.808624h 0.181345v 1.18703h 0.181345v -1.1476h 0.181345v 0.319141h 0.181345v 0.871096h 0.181345v 0.214976h
 0.181345v -0.384794h 0.181345v -0.0842027h 0.181345v 0.687057h 0.181345v 0.811985h 0.181345v -1.41484h 0.181345v 2.17492h 0.181345v -1.12633h 0.181345v 0.884698h 0.181345v -0.237854h 0.181345v 1.07559h 0.181345v -0.151231h 0.181345v -0.541983h
 0.181345v 1.15615h 0.181345v -1.91151h 0.181345v 1.96383h 0.181345v -1.54357h 0.181345v 1.23232h 0.181345v -1.08961h 0.181345v 1.5589h 0.181345v -0.974271h 0.181345v 1.9023h 0.181345v -0.552735h 0.181345v 0.95197h 0.181345v -1.74512h 0.181345v
 -0.556415h 0.181345v 2.18639h 0.181345v -0.171092h 0.181345v -2.26163h 0.181345v -0.145907h 0.181345v 3.58631h 0.181345v -1.79013h 0.181345v 3.00156h 0.181345v -3.79747h 0.181345v 1.69351h 0.181345v 0.350751h 0.181345v -0.292852h 0.181345v
 -0.287316h 0.181345v -0.39333h 0.181345v 0.111345h 0.181345v -0.22188h 0.181345v 0.560896h 0.181345v 0.701596h 0.181345v 0.735557h 0.181345v 0.905713h 0.181345v -0.0665145h 0.181345v -1.39418h 0.181345v -0.0604317h 0.181345v -0.298606h 0.181345v
 0.788924h 0.181345v -1.48251h 0.181345v 0.872049h 0.181345v 1.05287h 0.181345v 1.06234h 0.181345v -2.23441h 0.181345v 1.49615h 0.181345v -0.515254h 0.181345v -1.333h 0.181345v 2.44959h 0.181345v -0.0680026h 0.181345v -0.663797h 0.181345v -0.193615h
 0.181345v -0.750698h 0.181345v -1.17422h 0.181345v 0.517203h 0.181345v -0.116465h 0.181345v -1.38516h 0.181345v 1.15488h 0.181345v -2.32653h 0.181345v -0.577229h 0.181345v 1.12633h 0.181345v -3.19706h 0.181345v 0.890546h 0.181345v -1.01361h
 0.181345v 1.10121h 0.181345v -2.87317h 0.181345v 1.44858h 0.181345v -0.43371h 0.181345v 0.880162h 0.181345v 2.4531h 0.181345v -0.523319h 0.181345v -0.369588h 0.181345v 0.510533h 0.181345v 2.67691h 0.181345v -0.768321h 0.181345v -0.680255h 0.181345v
 1.79013h 0.181345v 2.29497h 0.181345v 0.545298h 0.181345v -0.810781h 0.181345v -1.01786h 0.181345v 3.59277h 0.181345v -1.05379h 0.181345v -0.710342h 0.181345v 1.53208h 0.181345v -2.47389h 0.181345v 1.22197h 0.181345v 2.03958h 0.181345v -1.82602h
 0.181345v 0.289505h 0.181345v -0.289505h 0.181345v -0.768826h 0.181345v 1.96148h 0.181345v -2.02948h 0.181345v 2.74391h 0.181345v -2.47005h 0.181345v -0.273855h 0.181345v 3.07254h 0.181345v -0.72967h 0.181345v -1.06969h 0.181345v 1.88264h 0.181345v
 -1.80868h 0.181345v -0.43845h 0.181345v 0.966492h 0.181345v 0.54705h 0.181345v -1.72811h 0.181345v 2.21321h 0.181345v -0.800108h 0.181345v -0.30861h 0.181345v -1.03331h 0.181345v -1.36401h 0.181345v 0.66671h 0.181345v 0.136925h 0.181345v 0.848511h
 0.181345v -0.35932h 0.181345v -1.22746h 0.181345v 0.264329h 0.181345v 0.405319h 0.181345v -0.669648h 0.181345v 0.398238h 0.181345v 0.0673994h 0.181345v -1.54041h 0.181345v 1.0094h 0.181345v -2.01317h 0.181345v 2.14419h 0.181345v -2.08694h 0.181345v
 0.82493h 0.181345v 0.0606729h 0.181345v 0.494305h 0.181345v -0.854762h 0.181345v 1.76048h 0.181345v -2.11258h 0.181345v 2.38159h 0.181345v 0.482534h 0.181345v -1.96807h 0.181345v 2.61187h 0.181345v 0.220806h 0.181345v -0.934484h 0.181345v 1.53948h
 0.181345v 1.1204h 0.181345v -0.965311h 0.181345v 0.156687h 0.181345v -1.13758h 0.36269v 0.220806h 0.181345v 2.14644h 0.181345v -2.51268h 0.181345v 0.515254h 0.181345v 3.42894h 0.181345v -0.642935h 0.181345v -1.78013h 0.181345v 0.323385h 0.181345v
 -3.09441h 0.181345v 4.28373h 0.181345v -1.5127h 0.181345v 0.241892h 0.181345v -1.17271h 0.36269v -1.7063h 0.181345v 1.26143h 0.181345v 1.61757h 0.181345v 0.0814937h 0.181345v -2.13128h 0.181345v 0.35932h 0.181345v 1.36879h 0.181345v 0.403168h
 0.181345v -0.162553h 0.181345v -1.01622h 0.181345v -0.225168h 0.181345v 1.24139h 0.181345v -0.398935h 0.181345v -1.42708h 0.181345v 0.734372h 0.36269v 1.2542h 0.181345v -1.47826h 0.181345v 0.375292h 0.181345v -0.449251h 0.181345v 2.05058h 0.181345v
 -1.9023h 0.181345v 1.32245h 0.181345v 0.32863h 0.181345v -2.44927h 0.181345v 0.723877h 0.181345v 1.07509h 0.181345v 0.650304h 0.181345v 0.506665h 0.181345v -3.02647h 0.181345v -0.620435h 0.181345v 2.33161h 0.181345v -0.465298h 0.181345v -0.672281h
 0.181345v 2.36724h 0.181345v -1.15071h 0.181345v -0.696238h 0.181345v 1.59293h 0.181345v -0.167019h 0.181345v -0.490318h 0.181345v -2.51422h 0.181345v 0.414531h 0.181345v 0.211584h 0.181345v 1.72811h 0.181345v -1.51354h 0.181345v 0.0722022h
 0.181345v 0.145442h 0.181345v -0.0728948h 0.181345v -0.288133h 0.181345v -0.491451h 0.181345v 0.1388h 0.36269v 0.786924h 0.181345v -1.19958h 0.181345v 1.12633h 0.181345v -0.921406h 0.181345v 0.277607h 0.181345v 1.01361h 0.181345v -1.96383h 0.181345v
 3.70724h 0.181345v 0.599457h 0.181345v -0.259811h 0.181345v 0.34741h 0.181345v -1.26376h 0.181345v -1.82602h 0.181345v 3.00218h 0.36269v -1.01361h 0.181345v 0.0819331h 0.181345v -1.03215h 0.181345v 0.868725h 0.181345v -0.161688h 0.181345v 1.88087h
 0.181345v 0.650802h 0.181345v -1.79013h 0.181345v -0.334047h 0.181345v 0.936902h 0.36269v -1.81939h 0.181345v 2.81786h 0.181345v -1.25977h 0.181345v 0.707036h 0.181345v 0.646844h 0.181345v -1.09258h 0.181345v -0.174698h 0.181345v -0.596098h
 0.181345v 2.14925h 0.181345v 0.993723h 0.181345v -1.46724h 0.181345v 0.282334h 0.181345v -0.0946953h 0.181345v 0.774616h 0.181345v 2.0153h 0.181345v -1.40728h 0.181345v 1.29427h 0.181345v -0.334047h 0.181345v -2.62346h 0.181345v 1.45785h 0.36269v
 -0.302971h 0.181345v 1.80263h 0.181345v -2.77102h 0.181345v 1.37371h 0.181345v -0.800108h 0.181345v 2.88839h 0.181345v -1.45928h 0.181345v -0.106657h 0.181345v 1.68422h 0.181345v -1.47015h 0.181345v 2.57823h 0.181345v -3.61963h 0.181345v 0.933993h
 0.181345v -0.212571h 0.36269v 0.212571h 0.181345v -0.422209h 0.181345v 1.53208h 0.181345v -0.341555h 0.181345v 3.81961h 0.181345v -5.42094h 0.181345v -0.789712h 0.181345v 1.30497h 0.181345v 1.54321h 0.181345v 2.11258h 0.181345v -0.779583h 0.181345v
 -0.861687h 0.181345v -0.586889h 0.181345v 0.467684h 0.181345v -0.352106h 0.181345v 0.47131h 0.181345v -0.119205h 0.181345v -1.03275h 0.181345v -0.110535h 0.181345v -0.646844h 0.181345v 0.319981h 0.181345v 2.57823h 0.181345v -1.34372h 0.181345v
 -0.907645h 0.181345v 3.17277h 0.181345v -3.28251h 0.181345v 0.785339h 0.181345v 0.828141h 0.181345v 0.122077h 0.181345v -1.95268h 0.181345v 6.82339h 0.181345v -5.82092h 0.181345v 1.32245h 0.181345v -2.95828h 0.181345v 0.633364h 0.181345v 2.32491h
 0.181345v -3.16366h 0.181345v 0.624686h 0.181345v -1.32245h 0.181345v 3.73633h 0.181345v -0.847947h 0.181345v -1.67185h 0.181345v -1.31365h 0.181345v 3.58631h 0.181345v 0.625543h 0.181345v 1.47414h 0.181345v -1.08607h 0.181345v -0.890546h 0.181345v
 -0.245143h 0.181345v -1.50374h 0.181345v 3.86689h 0.181345v -4.72337h 0.181345v 1.64766h 0.181345v -0.680646h 0.181345v 1.76242h 0.181345v 0.378407h 0.181345v -1.46018h 0.181345v 1.84825h 0.181345v -2.41755h 0.181345v -0.440568h 0.181345v 0.779583h
 0.181345v 0.230285h 0.181345v 2.38159h 0.181345v -2.95089h 0.181345v 1.65108h 0.181345v -0.247136h 0.181345v -2.58605h 0.181345v 2.70911h 0.181345v -1.52701h 0.181345v -0.440568h 0.181345v 1.48118h 0.181345v 0.610465h 0.181345v 0.251221h 0.181345v
 -1.333h 0.181345v -2.65456h 0.181345v 1.75364h 0.181345v -2.13843h 0.181345v 4.75714h 0.181345v -5.40794h 0.181345v 1.33072h 0.181345v 0.300971h 0.181345v 0.307052h 0.181345v -0.50836h 0.181345v -4.62029h 0.181345v 4.42161h 0.181345v -1.68008h
 0.181345v 1.09917h 0.181345v -1.70546h 0.181345v 0.343485h 0.181345v -0.512359h 0.181345v 1.13279h 0.181345v 1.22407h 0.181345v -2.44061h 0.181345v 1.86338h 0.181345v -0.737043h 0.36269v -2.25267h 0.181345v 1.04305h 0.181345v 0.335893h 0.181345v
 0.343485h 0.181345v -0.428156h 0.181345v -0.579851h 0.181345v 2.27529h 0.181345v -2.19379h 0.181345v 0.839912h 0.181345v 0.980892h 0.181345v -1.9023h 0.181345v 0.921406h 0.181345v -0.675602h 0.181345v 0.675602h 0.181345v -2.97119h 0.181345v 3.0578h
 0.181345v -0.926514h 0.181345v -0.873264h 0.181345v 1.03757h 0.181345v -0.960227h 0.181345v -0.903149h 0.181345v -2.04774h 0.181345v 0.192796h 0.181345v -0.8795h 0.181345v -2.57649h 0.181345v -0.102693h 0.181345v -2.53898h 0.181345v -2.21241h
 0.181345v -0.111892h 0.181345v -2.49604h 0.181345v -0.70847h 0.181345v -1.10267h 0.181345v -0.843824h 0.181345v -1.07328h 0.181345v -1.56922h 0.181345v -0.822914h 0.181345v -0.39533h 0.181345v -0.485101h 0.181345v 0.608835h 0.181345v -0.668398h
 0.181345v 0.219549h 0.181345v -0.591458h 0.181345v 0.631719h 0.181345v 0.701278h 0.181345v 2.10203h 0.181345v 0.568005h 0.181345v 0.382213h 0.181345v 1.4331h 0.181345v 0.519166h 0.181345v 2.03787h 0.181345v 2.47202h 0.181345v 1.1476h 0.181345v
 0.741539h 0.181345v 2.5756h 0.181345v 2.59203h 0.181345v -0.433389h 0.181345v 5.62283h 0.181345v -1.75081h 0.181345v 2.29046h 0.181345v 0.750698h 0.181345v 1.30497h 0.181345v 1.89531h 0.181345v 0.119205h 0.181345v 0.486395h 0.181345v -0.6056h
 0.181345v 1.36569h 0.181345v -0.636015h 0.181345v 1.29981h 0.181345v 0.694118h 0.181345v -1.86884h 0.181345v 2.59618h 0.181345v -2.08526h 0.181345v 2.235h 0.181345v -1.43489h 0.181345v -0.136311h 0.181345v 1.5712h 0.181345v -0.734372h 0.181345v
 -2.13664h 0.181345v 1.16471h 0.181345v 1.55656h 0.181345v -0.584632h 0.181345v 1.66519h 0.181345v -2.3657h 0.181345v 1.28515h 0.181345v 1.24139h 0.181345v 0.492969h 0.181345v 1.58278h 0.181345v -2.86342h 0.181345v -0.89429h 0.181345v -3.36248h
 0.181345v 3.07571h 0.181345v 1.64875h 0.181345v -1.06969h 0.181345v 1.88264h 0.181345v -4.94595h 0.181345v 4.29215h 0.181345v -1.94928h 0.181345v 2.27266h 0.181345v -1.98857h 0.181345v 1.03835h 0.181345v -0.453722h 0.181345v 0.300971h 0.181345v
 -0.596098h 0.181345v 2.19742h 0.181345v 0.868725h 0.181345v 1.3062h 0.181345v -5.36237h 0.181345v 0.700518h 0.181345v -0.284093h 0.181345v 0.868725h 0.181345v 3.31714h 0.181345v -3.90177h 0.181345v 0.885603h 0.181345v 1.26728h 0.181345v 0.166106h
 0.36269v 2.34287h 0.181345v -0.944313h 0.181345v -3.42804h 0.181345v 3.42804h 0.181345v -1.39855h 0.181345v -2.31899h 0.36269v 0.289505h 0.181345v 1.86338h 0.181345v 0.675602h 0.181345v 2.02948h 0.181345v -5.9638h 0.181345v 3.93432h 0.181345v
 0.889057h 0.181345v -0.889057h 0.181345v 1.25977h 0.181345v -3.79875h 0.181345v 2.53898h 0.181345v -0.341555h 0.181345v -0.334047h 0.181345v 2.70508h 0.181345v -4.42161h 0.181345v 4.42161h 0.181345v -1.68008h 0.181345v -2.74154h 0.181345v -0.292289h
 0.181345v 1.52112h 0.181345v -0.626833h 0.181345v 1.79013h 0.181345v -0.509496h 0.181345v 1.39855h 0.181345v -1.39855h 0.181345v 1.39855h 0.181345v 1.74442h 0.181345v -3.47339h 0.181345v 4.10239h 0.181345v -2.91307h 0.181345v -2.44352h 0.181345v
 0.614166h 0.181345v -2.18537h 0.181345v 1.5712h 0.181345v 0.458282h 0.181345v -4.05897h 0.181345v 4.21485h 0.181345v -5.35814h 0.181345v 1.02501h 0.181345v -4.19459h 0.181345v -0.52717h 0.181345v 2.02948h 0.181345v -2.45524h 0.181345v -3.83826h
 0.181345v -1.31157h 0.181345v -0.644351h 0.181345v -3.87686h 0.181345v 1.10584h 0.181345v -2.17811h 0.181345v -2.26576h 0.181345v -1.8139h 0.181345v -0.406152h 0.36269v -1.21416h 0.181345v -0.803757h 0.181345v -1.92451h 0.181345v -1.27679h 0.181345v
 0.97069h 0.181345v -0.0929577h 0.181345v -0.546114h 0.181345v 0.522963h 0.181345v 0.493732h 0.181345v -0.516847h 0.181345v 1.4278h 0.181345v 0.0763108h 0.181345v 0.439818h 0.181345v 0.698289h 0.181345v 3.03159h 0.181345v 0.304998h 0.181345v 2.04906h
 0.181345v 0.236865h 0.181345v 3.37158h 0.181345v 0.149741h 0.181345v 5.2854h 0.181345v 1.49125h 0.181345v 1.13839h 0.181345v 0.690962h 0.181345v 1.00447h 0.181345v 4.09175h 0.181345v 3.45337h 0.181345v 1.12633h 0.181345v 1.76927h 0.181345v -2.73972h
 0.181345v 3.1197h 0.181345v 5.50362h 0.181345v -3.44662h 0.181345v 2.37962h 0.181345v 2.21461h 0.36269v 3.31714h 0.181345v 1.15488h 0.181345v -1.52112h 0.181345v -1.04859h 0.36269v 3.39146h 0.181345v 0.868725h 0.181345v -0.868725h 0.181345v -2.7005h
 0.181345v 0.357629h 0.181345v 2.77102h 0.181345v -4.80051h 0.181345v -0.620435h 0.181345v 3.77625h 0.181345v 0.800108h 0.181345v -1.1849h 0.181345v -2.45104h 0.181345v -1.24139h 0.36269v 2.59326h 0.181345v 3.56922h 0.181345v -2.08526h 0.181345v
 1.21653h 0.181345v -5.29375h 0.181345v 8.58003h 0.181345v -4.10802h 0.36269v -0.779583h 0.181345v 2.02948h 0.181345v -2.40477h 0.181345v 3.76675h 0.181345v -6.16248h 0.181345v 0.980892h 0.181345v -1.9023h 0.181345v 1.9023h 0.181345v 2.56971h
 0.181345v -2.90376h 0.181345v 2.90376h 0.181345v -4.76714h 0.181345v 0.295127h 0.181345v 2.24385h 0.181345v 6.33618h 0.181345v -1.49615h 0.181345v -3.76675h 0.181345v -1.74889h 0.181345v 0.334047h 0.181345v -3.0499h 0.181345v 1.75563h 0.181345v
 -0.903149h 0.181345v 0.903149h 0.181345v 1.98524h 0.181345v -3.46198h 0.181345v -1.08607h 0.181345v 1.9548h 0.181345v 2.24385h 0.181345v -2.82848h 0.181345v 3.53552h 0.181345v -2.95089h 0.181345v -1.1476h 0.181345v 0.562973h 0.181345v 2.82848h
 0.181345v -0.675602h 0.181345v 4.15366h 0.181345v -2.77102h 0.181345v 1.52112h 0.181345v -2.56971h 0.181345v 1.79013h 0.181345v -3.08441h 0.181345v -1.47675h 0.181345v 2.43697h 0.181345v -1.56825h 0.181345v 0.608023h 0.181345v 2.70911h 0.181345v
 1.15488h 0.181345v -2.56971h 0.181345v 0.341555h 0.181345v -1.00247h 0.181345v -0.319981h 0.181345v 0.646844h 0.181345v 0.334047h 0.181345v 4.26018h 0.181345v -2.47005h 0.181345v -1.44858h 0.181345v 4.37235h 0.181345v -2.92377h 0.181345v -7.14337h
 0.181345v 10.5348h 0.181345v -5.51564h 0.181345v 1.38264h 0.181345v -2.34287h 0.181345v 3.86399h 0.181345v -3.55061h 0.181345v 6.16248h 0.181345v -4.133h 0.181345v 1.52112h 0.181345v -0.779583h 0.181345v -2.77102h 0.181345v 2.39573h 0.181345v
 -5.0076h 0.181345v 7.85295h 0.181345v -7.0312h 0.181345v 2.77102h 0.181345v 0.341555h 0.181345v 1.07328h 0.181345v -1.07328h 0.181345v -0.341555h 0.181345v 4.7139h 0.181345v -0.453722h 0.181345v -2.47005h 0.36269v 2.47005h 0.181345v -1.69047h
 0.181345v 5.76769h 0.181345v -6.54727h 0.181345v -1.44858h 0.181345v 0.349407h 0.181345v 0.723877h 0.181345v -4.46474h 0.181345v 6.86952h 0.181345v -3.12865h 0.181345v 1.87875h 0.181345v -0.779583h 0.181345v 2.02948h 0.181345v 1.84451h 0.181345v
 -1.40394h 0.181345v 0.453722h 0.181345v -6.31523h 0.181345v 3.39146h 0.181345v -3.98755h 0.181345v 3.98755h 0.181345v 4.37235h 0.181345v -3.59277h 0.181345v -1.15488h 0.181345v -4.46474h 0.181345v 4.46474h 0.181345v 4.24928h 0.181345v -8.98788h
 0.181345v 5.11389h 0.181345v 2.02948h 0.181345v 0.440568h 0.181345v 2.95089h 0.181345v -6.52011h 0.181345v 1.09917h 0.181345v -0.375292h 0.181345v 4.24928h 0.181345v 1.54695h 0.181345v -5.42094h 0.181345v 2.02948h 0.181345v -0.844581h 0.181345v
 2.68909h 0.181345v -1.40394h 0.181345v 2.95089h 0.181345v -4.23604h 0.181345v -0.405319h 0.181345v 0.405319h 0.181345v 6.5789h 0.181345v -6.5789h 0.181345v 1.28515h 0.181345v -2.47005h 0.181345v 3.39146h 0.181345v -2.20656h 0.181345v 3.7027h
 0.181345v -4.10802h 0.181345v 5.76769h 0.181345v -3.15582h 0.181345v -0.467684h 0.181345v 2.49717h 0.181345v -1.54695h 0.181345v 2.09968h 0.181345v 0.573598h 0.181345v 1.86338h 0.181345v 0.675602h 0.181345v -9.82779h 0.181345v 8.50535h 0.181345v
 -3.88981h 0.181345v 1.01361h 0.181345v 2.8762h 0.181345v 8.19196h 0.181345v -6.86952h 0.36269v -3.66531h 0.181345v -1.54695h 0.181345v 5.9193h 0.181345v 0.741539h 0.181345v 1.60133h 0.181345v 3.81961h 0.181345v -8.19196h 0.181345v 9.3183h 0.181345v
 -8.67145h 0.181345v -1.86338h 0.181345v 6.45761h 0.181345v -2.47005h 0.181345v 6.54727h 0.181345v -7.99585h 0.181345v 1.44858h 0.181345v 3.39146h 0.181345v 0.980892h 0.181345v 7.76381h 0.181345v -7.76381h 0.181345v -5.11389h 0.181345v 3.21159h
 0.181345v -1.69047h 0.181345v -1.52112h 0.181345v 0.741539h 0.36269v 3.39146h 0.181345v 2.02948h 0.181345v -6.86952h 0.181345v 4.84003h 0.181345v 0.980892h 0.181345v 11.5834h 0.181345v -3.81961h 0.181345v -5.58888h 0.181345v 2.53898h 0.36269v
 -1.32245h 0.181345v -2.34287h 0.181345v -2.02948h 0.181345v 0.980892h 0.181345v -4.37235h 0.181345v 3.39146h 0.181345v -4.133h 0.181345v 12.8777h 0.181345v -6.71521h 0.181345v 2.34287h 0.181345v 8.19196h 0.181345v -3.81961h 0.181345v -1.60133h
 0.181345v -5.11389h 0.181345v -3.81961h 0.181345v 4.94595h 0.181345v -2.17492h 0.181345v 6.16248h 0.181345v 3.39146h 0.181345v -7.37901h 0.544034v -3.15582h 0.181345v 4.37235h 0.181345v 2.77102h 0.181345v -6.16248h 0.181345v 2.17492h 0.181345v
 2.53898h 0.181345v -7.48493h 0.181345v 16.6973h 0.181345v -9.21238h 0.181345v -5.6948h 0.181345v -1.79013h 0.181345v 1.79013h 0.181345v -3.39146h 0.181345v 1.60133h 0.36269v -0.821743h 0.181345v 1.69047h 0.181345v -3.91863h 0.181345v -3.11258h
 0.181345v 4.56115h 0.181345v -2.77102h 0.36269v -2.34287h 0.181345v 0.552735h 0.181345v 0.573598h 0.181345v -1.65967h 0.181345v 2.25577h 0.181345v 2.64992h 0.181345v -3.24602h 0.181345v -0.573598h 0.181345v 1.1697h 0.181345v -0.596098h 0.181345v
 2.53898h 0.181345v -1.32245h 0.181345v -1.79013h 0.181345v 1.79013h 0.181345v 1.32245h 0.181345v -3.11258h 0.181345v 5.34074h 0.181345v -4.17104h 0.181345v 7.76381h 0.181345v 4.7139h 0.181345v -13.6474h 0.181345v 11.1084h 0.181345v 3.98755h
 0.181345v 5.42094h 0.181345v -8.19196h 0.181345v -1.21653h 0.181345v -6.54727h 0.181345v 12.1362h 0.181345v -10.5348h 0.181345v 4.94595h 0.181345v -3.15582h 0.181345v -3.39146h 0.181345v -0.741539h 0.181345v 0.741539h 0.36269v -4.56115h 0.181345v
 8.9335h 0.181345v -7.14337h 0.181345v -3.39146h 0.181345v -0.980892h 0.181345v -4.49063h 0.181345v -3.17789h 0.181345v 0.584632h 0.181345v 2.59326h 0.181345v -1.98524h 0.181345v -2.56282h 0.181345v -1.49615h 0.181345v -3.20028h 0.181345v -1.11259h
 0.181345v 1.3062h 0.36269v -1.65967h 0.181345v -3.00218h 0.181345v -1.88542h 0.181345v 0.779583h 0.181345v -2.34287h 0.181345v 4.03333h 0.181345v -3.80305h 0.181345v 0.352106h 0.181345v -2.10351h 0.181345v -2.02948h 0.181345v 2.87997h 0.181345v
 -3.41331h 0.181345v 2.15478h 0.181345v -3.08646h 0.181345v 1.10739h 0.181345v -0.349407h 0.181345v -0.592776h 0.181345v 0.679378h 0.181345v 0.711173h 0.181345v -2.35586h 0.181345v 0.39479h 0.181345v -1.00587h 0.181345v 0.611079h 0.181345v -1.34192h
 0.181345v -0.282772h 0.181345v -1.14633h 0.181345v 0.26205h 0.181345v 0.884281h 0.181345v -0.482534h 0.181345v 1.5712h 0.181345v -2.68299h 0.181345v -0.312096h 0.181345v 1.35618h 0.181345v -1.10702h 0.181345v 0.641384h 0.181345v -2.02129h 0.181345v
 1.00768h 0.181345v 4.04896h 0.181345v -0.7034h 0.181345v -3.40672h 0.181345v 2.44494h 0.181345v 1.90708h 0.181345v -0.40104h 0.181345v -1.14329h 0.181345v 0.675602h 0.181345v 2.40697h 0.181345v 0.0901993h 0.181345v 1.92644h 0.181345v 1.51032h
 0.36269v 0.113847h 0.181345v 4.3343h 0.181345v 1.77114h 0.181345v 4.09036h 0.181345v -4.26018h 0.181345v 4.94595h 0.181345v 2.26512h 0.181345v 0.273855h 0.181345v 4.46474h 0.181345v -2.70911h 0.181345v 12.8777h 0.181345v -8.19196h 0.181345v 3.28628h
 0.181345v 6.42681h 0.181345v 4.64136h 0.181345v -2.02948h 0.181345v 7.14337h 0.181345v 7.76381h 0.181345v -11.7514h 0.181345v -1.12633h 0.181345v 6.71521h 0.36269v -5.58888h 0.181345v 7.37901h 0.181345v -1.79013h 0.181345v -1.60133h 0.181345v
 18.2986h 0.181345v -10.5348h 0.181345v 10.5348h 0.181345v 6.16248h 0.181345v -10.5348h 0.181345v 10.5348h 0.181345v -16.6973h 0.181345v 10.5348h 0.36269v -4.37235h 0.181345v 4.37235h 0.544034v -7.76381h 0.181345v -2.77102h 0.181345v 10.5348h
 0.181345v -7.76381h 0.181345v 24.4611h 0.181345v -16.6973h 0.181345v -7.76381h 0.181345v 7.76381h 0.181345v -10.5348h 0.181345v 27.2321h 0.181345v -16.6973h 0.181345v 6.16248h 0.181345v -10.5348h 0.181345v -3.39146h 0.181345v 13.9263h 0.181345v
 10.5348h 0.181345v -10.5348h 0.181345v -10.5348h 0.36269v 21.0697h 0.181345v -16.6973h 0.181345v -4.37235h 0.181345v -3.39146h 0.181345v 24.4611h 0.36269v -10.5348h 0.181345v -6.16248h 0.36269v -7.76381h 0.181345v 3.39146h 0.181345v 4.37235h
 0.181345v -4.37235h 0.181345v -3.39146h 0.181345v 7.76381h 0.181345v 6.16248h 0.181345v -10.5348h 0.544034v -3.39146h 0.181345v 24.4611h 0.181345v -33.3946h 0.181345v 12.325h 0.181345v 21.0697h 0.181345v -16.6973h 0.181345v -4.37235h 0.36269v
 10.5348h 0.36269v -6.16248h 0.181345v -12.8777h 0.181345v 29.575h 0.181345v -21.0697h 0.181345v -8.50535h 0.181345v 2.34287h 0.181345v 16.6973h 0.36269v -24.4611h 0.181345v 18.2986h 0.181345v -10.5348h 0.181345v 2.77102h 0.181345v -7.14337h
 0.181345v 4.37235h 0.181345v -4.37235h 0.181345v -3.39146h 0.181345v 18.2986h 0.181345v -22.2862h 0.181345v 3.98755h 0.36269v 13.9263h 0.181345v -13.9263h 0.181345v -8.06478h 0.36269v 8.06478h 0.181345v 3.39146h 0.181345v -9.55394h 0.181345v
 7.76381h 0.181345v -10.5348h 0.181345v -2.34287h 0.181345v 0.741539h 0.181345v 9.08625h 0.181345v -7.48493h 0.181345v -0.821743h 0.181345v 8.30667h 0.181345v -6.6162h 0.181345v 5.29375h 0.181345v -2.34287h 0.181345v 2.34287h 0.181345v -4.37235h
 0.181345v 0.980892h 0.181345v -3.59277h 0.181345v 13.1467h 0.181345v -6.16248h 0.181345v 1.32245h 0.181345v 1.44858h 0.36269v -6.16248h 0.181345v 4.7139h 0.36269v 9.21238h 0.181345v -6.16248h 0.181345v 6.16248h 0.181345v 2.77102h 0.181345v -8.9335h
 0.181345v 3.81961h 0.181345v 5.11389h 0.181345v -2.77102h 0.181345v -4.37235h 0.181345v 14.9072h 0.181345v -4.37235h 0.181345v -6.16248h 0.181345v 6.16248h 0.181345v 21.0697h 0.181345v -33.3946h 0.181345v 22.8598h 0.181345v 10.5348h 0.181345v
 -16.6973h 0.181345v 6.16248h 0.36269v 21.0697h 0.181345v -31.6045h 0.181345v 4.37235h 0.181345v -7.76381h 0.181345v -2.77102h 0.181345v 2.77102h 0.181345v 3.39146h 0.181345v -10.5348h 0.181345v 21.0697h 0.181345v 21.0697h 0.181345v -27.2321h
 0.36269v -10.5348h 0.181345v 37.767h 0.181345v -21.0697h 0.181345v -6.16248h 0.181345v -7.76381h 0.181345v 7.76381h 0.181345v -10.5348h 0.181345v 10.5348h 0.181345v -4.37235h 0.181345v 10.5348h 0.181345v 10.5348h 0.181345v -27.2321h 0.181345v
 10.5348h 0.544034v 6.16248h 0.181345v 10.5348h 0.181345v -10.5348h 0.181345v 10.5348h 0.181345v -16.6973h 0.181345v 6.16248h 0.181345v -16.6973h 0.181345v 10.5348h 0.36269v 16.6973h 0.181345v -16.6973h 0.544034v -4.37235h 0.181345v 21.0697h
 0.181345v -10.5348h 0.181345v -13.9263h 0.36269v 7.76381h 0.36269v -7.76381h 0.36269v -5.11389h 0.181345v 8.50535h 0.181345v -3.39146h 0.181345v 13.9263h 0.181345v -13.9263h 0.544034v -2.77102h 0.181345v 6.16248h 0.181345v -3.39146h 0.181345v
 -2.77102h 0.181345v 10.5348h 0.181345v -12.8777h 0.181345v 8.50535h 0.181345v 4.37235h 0.181345v -4.37235h 0.181345v -8.50535h 0.181345v -2.02948h 0.181345v -1.79013h 0.181345v 16.6973h 0.181345v -14.9072h 0.181345v -1.79013h 0.181345v -6.71521h
 0.181345v 10.5348h 0.36269v -2.02948h 0.181345v 2.02948h 0.181345v -3.81961h 0.181345v 16.6973h 0.181345v -16.6973h 0.181345v 6.16248h 0.36269v 6.16248h 0.181345v -6.16248h 0.36269v 27.2321h 0.181345v -21.0697h 0.181345v -10.5348h 0.36269v 4.37235h
 0.181345v 2.77102h 0.181345v -5.11389h 0.181345v -2.02948h 0.181345v 4.37235h 0.181345v -7.76381h 0.181345v 10.5348h 0.181345v 7.76381h 0.181345v 6.16248h 0.181345v -13.9263h 0.181345v 7.76381h 0.181345v -7.76381h 0.181345v -7.14337h 0.36269v
 4.37235h 0.181345v -2.34287h 0.181345v 19.0402h 0.181345v -16.6973h 0.181345v 6.16248h 0.181345v -3.39146h 0.181345v 7.76381h 0.181345v 6.16248h 0.181345v -13.9263h 0.181345v -5.11389h 0.181345v 12.8777h 0.36269v -14.9072h 0.181345v 31.6045h
 0.181345v -24.4611h 0.181345v 3.39146h 0.181345v 10.5348h 0.181345v 21.0697h 0.181345v -42.1393h 0.181345v 10.5348h 0.181345v -3.39146h 0.181345v -7.14337h 0.181345v 2.02948h 0.181345v 29.575h 0.181345v -16.6973h 0.181345v 6.16248h 0.181345v
 -16.6973h 0.181345v 2.77102h 0.181345v -2.77102h 0.181345v 6.16248h 0.181345v -6.16248h 0.181345v -2.34287h 0.181345v 29.575h 0.181345v -10.5348h 0.181345v -19.0402h 0.181345v 19.0402h 0.181345v -6.16248h 0.181345v -12.8777h 0.181345v 2.34287h
 0.181345v 6.16248h 0.181345v -6.16248h 0.181345v 6.16248h 0.181345v 4.37235h 0.181345v -18.2986h 0.181345v 1.60133h 0.181345v 8.9335h 0.181345v 7.76381h 0.181345v -7.76381h 0.181345v 13.9263h 0.181345v -22.8598h 0.181345v 3.81961h 0.181345v
 -2.02948h 0.181345v 4.37235h 0.181345v -4.37235h 0.181345v -1.79013h 0.181345v 8.9335h 0.181345v -2.77102h 0.36269v -10.5348h 0.181345v 6.16248h 0.181345v 4.37235h 0.181345v -9.21238h 0.181345v 9.21238h 0.36269v -10.5348h 0.181345v 10.5348h
 0.181345v 2.77102h 0.181345v -14.5224h 0.181345v 2.53898h 0.181345v 6.86952h 0.36269v -9.40849h 0.181345v 11.7514h 0.181345v -9.21238h 0.181345v 9.21238h 0.36269v -12.8777h 0.181345v 1.12633h 0.181345v -5.76769h 0.181345v 13.1467h 0.181345v 2.02948h
 0.181345v 2.34287h 0.181345v -11.7514h 0.181345v -4.07722h 0.181345v 5.29375h 0.181345v 4.37235h 0.181345v 3.81961h 0.181345v -2.02948h 0.181345v -1.79013h 0.181345v -4.37235h 0.181345v -2.34287h 0.181345v 5.11389h 0.181345v 1.60133h 0.36269v
 -6.71521h 0.181345v 15.6487h 0.181345v -5.11389h 0.181345v -10.5348h 0.181345v 10.5348h 0.181345v -11.5834h 0.36269v 9.55394h 0.36269v -8.50535h 0.181345v 2.34287h 0.181345v -1.21653h 0.181345v -1.12633h 0.181345v 6.71521h 0.181345v -5.58888h
 0.181345v 1.21653h 0.181345v 6.16248h 0.181345v -8.50535h 0.181345v 1.12633h 0.181345v 5.58888h 0.181345v -5.58888h 0.181345v 5.58888h 0.181345v -1.60133h 0.181345v -7.14337h 0.181345v 7.14337h 0.181345v -1.44858h 0.181345v -4.7139h 0.181345v
 -2.77102h 0.181345v 4.94595h 0.181345v -5.76769h 0.181345v 8.30667h 0.181345v -1.32245h 0.181345v -2.34287h 0.181345v 8.50535h 0.181345v -13.1467h 0.181345v 17.5191h 0.181345v -17.5191h 0.181345v -1.52112h 0.181345v 9.82779h 0.181345v -2.53898h
 0.181345v 3.98755h 0.181345v -3.98755h 0.181345v 1.21653h 0.181345v 10.5348h 0.181345v -13.9263h 0.181345v 2.17492h 0.181345v 1.21653h 0.181345v -4.37235h 0.181345v -3.39146h 0.181345v 5.42094h 0.181345v 2.34287h 0.181345v -3.39146h 0.181345v
 -5.82092h 0.181345v 7.99585h 0.181345v -1.12633h 0.544034v -5.42094h 0.181345v 10.5348h 0.181345v -8.9335h 0.36269v 2.77102h 0.181345v -2.77102h 0.36269v 2.77102h 0.181345v -4.37235h 0.181345v 3.39146h 0.181345v 14.9072h 0.181345v -14.9072h
 0.181345v 3.15582h 0.181345v -4.07722h 0.181345v 6.6162h 0.181345v -13.0738h 0.181345v 4.76714h 0.181345v -7.44042h 0.181345v 2.09968h 0.181345v 3.81961h 0.181345v 0.741539h 0.181345v 4.37235h 0.181345v -8.3599h 0.181345v -2.17492h 0.181345v
 2.17492h 0.181345v 1.21653h 0.181345v -1.21653h 0.181345v 2.53898h 0.181345v 0.707036h 0.181345v -5.42094h 0.181345v 3.39146h 0.181345v -2.34287h 0.181345v 6.71521h 0.181345v -4.37235h 0.181345v 1.32245h 0.181345v 2.22816h 0.181345v -1.52112h
 0.181345v -2.02948h 0.181345v -2.34287h 0.181345v 7.58394h 0.181345v -3.21159h 0.181345v -0.707036h 0.181345v -1.94288h 0.181345v 1.94288h 0.181345v 7.99585h 0.181345v -6.54727h 0.181345v -2.77102h 0.181345v -2.34287h 0.181345v 1.72243h 0.181345v
 4.99278h 0.181345v -2.34287h 0.181345v 2.34287h 0.181345v 10.5348h 0.181345v -14.9072h 0.181345v 1.32245h 0.181345v -0.675602h 0.181345v 3.7255h 0.181345v 1.79013h 0.181345v -3.39146h 0.181345v -0.741539h 0.181345v 0.741539h 0.181345v 6.54727h
 0.181345v -4.07722h 0.181345v -0.868725h 0.181345v -2.34287h 0.181345v 2.34287h 0.181345v 0.868725h 0.181345v -0.868725h 0.181345v 0.868725h 0.181345v 0.921406h 0.181345v 2.02948h 0.181345v -9.40849h 0.181345v 16.1237h 0.181345v 1.79013h 0.181345v
 -9.55394h 0.181345v 3.39146h 0.181345v 8.19196h 0.181345v -3.81961h 0.181345v -5.58888h 0.544034v 7.37901h 0.181345v -9.55394h 0.181345v 9.55394h 0.181345v -9.55394h 0.181345v 7.76381h 0.181345v -3.0499h 0.181345v 6.86952h 0.181345v -10.5348h
 0.181345v 3.66531h 0.181345v -9.08625h 0.181345v 1.60133h 0.181345v 7.48493h 0.181345v -4.7139h 0.36269v 3.39146h 0.181345v -7.76381h 0.181345v 13.9263h 0.181345v -8.50535h 0.181345v 5.11389h 0.36269v -8.06478h 0.181345v 1.9023h 0.181345v -2.77102h
 0.181345v 7.48493h 0.181345v 1.44858h 0.181345v -3.98755h 0.181345v 3.98755h 0.181345v -8.06478h 0.181345v 2.95089h 0.181345v 2.34287h 0.181345v -5.29375h 0.181345v 13.4857h 0.181345v -5.42094h 0.181345v -3.98755h 0.181345v -2.17492h 0.181345v
 1.04859h 0.181345v 3.66531h 0.181345v 3.0499h 0.181345v -8.7447h 0.181345v 4.37235h 0.181345v -8.50535h 0.181345v 8.50535h 0.181345v 4.37235h 0.181345v -4.37235h 0.181345v 4.37235h 0.181345v -3.0499h 0.181345v -2.53898h 0.181345v 1.21653h 0.181345v
 -5.29375h 0.181345v 5.29375h 0.181345v -4.37235h 0.181345v 5.6948h 0.181345v 1.44858h 0.36269v -8.06478h 0.181345v 8.06478h 0.181345v -6.16248h 0.181345v 6.16248h 0.181345v -3.98755h 0.181345v 1.21653h 0.181345v 1.32245h 0.181345v -3.66531h
 0.181345v -4.64136h 0.181345v 3.59277h 0.181345v -0.980892h 0.181345v -1.79013h 0.181345v 6.16248h 0.181345v -6.98422h 0.181345v 6.98422h 0.181345v -1.21653h 0.181345v 1.21653h 0.181345v -2.34287h 0.181345v 3.66531h 0.181345v -2.53898h 0.181345v
 2.53898h 0.181345v -5.6948h 0.181345v -0.921406h 0.181345v 0.921406h 0.181345v 0.980892h 0.181345v -3.59277h 0.181345v 5.76769h 0.181345v -1.12633h 0.181345v -6.86952h 0.181345v 11.9834h 0.181345v -5.11389h 0.181345v 3.66531h 0.181345v -1.32245h
 0.181345v -1.21653h 0.181345v -2.17492h 0.181345v -7.76381h 0.181345v 4.99278h 0.181345v 1.79013h 0.181345v -2.61187h 0.181345v 4.64136h 0.181345v -1.04859h 0.181345v -7.14337h 0.181345v 6.16248h 0.181345v 0.980892h 0.181345v -3.59277h 0.181345v
 -2.90376h 0.181345v 14.2603h 0.181345v -12.8777h 0.181345v 5.11389h 0.181345v -2.77102h 0.544034v 4.94595h 0.181345v -4.07722h 0.181345v 5.29375h 0.181345v -1.21653h 0.181345v -4.94595h 0.181345v 2.77102h 0.181345v 9.55394h 0.181345v -3.39146h
 0.181345v -3.98755h 0.181345v 2.53898h 0.181345v -10.5348h 0.181345v 3.0499h 0.181345v 6.16248h 0.181345v -6.98422h 0.36269v 9.75524h 0.181345v -7.14337h 0.181345v 8.7447h 0.181345v -9.6661h 0.181345v 2.95089h 0.181345v -9.98209h 0.181345v 6.16248h
 0.181345v 8.9335h 0.181345v -3.98755h 0.181345v 7.37901h 0.181345v -8.50535h 0.544034v -2.02948h 0.181345v -4.133h 0.181345v -0.707036h 0.181345v 1.44858h 0.181345v -0.741539h 0.181345v 0.741539h 0.181345v -3.39146h 0.181345v 4.99278h 0.181345v
 2.77102h 0.181345v -7.14337h 0.181345v 1.32245h 0.181345v -4.19865h 0.181345v 4.90569h 0.181345v 0.741539h 0.181345v 15.9558h 0.181345v -19.9433h 0.181345v 5.58888h 0.181345v -3.0499h 0.36269v 1.44858h 0.36269v 0.779583h 0.181345v -2.90376h
 0.181345v -0.646844h 0.181345v 5.24107h 0.181345v 0.921406h 0.181345v -4.84003h 0.544034v 9.21238h 0.181345v -9.88798h 0.181345v 5.51564h 0.181345v -4.133h 0.181345v 6.16248h 0.181345v 1.12633h 0.181345v -1.12633h 0.181345v -8.8124h 0.181345v
 -0.596098h 0.181345v 1.86338h 0.181345v 4.59423h 0.181345v -2.47005h 0.181345v 4.37235h 0.181345v 1.04859h 0.181345v -8.8124h 0.181345v 9.93873h 0.181345v -9.3183h 0.181345v 9.3183h 0.181345v -1.12633h 0.181345v 12.8777h 0.181345v -14.9072h
 0.181345v 7.14337h 0.181345v -3.98755h 0.181345v -1.12633h 0.181345v 3.66531h 0.181345v 3.0499h 0.181345v -5.58888h 0.181345v 9.40849h 0.181345v -15.1762h 0.181345v 3.59277h 0.181345v 6.16248h 0.181345v -7.14337h 0.181345v 7.14337h 0.181345v
 -2.77102h 0.181345v 13.3059h 0.181345v -18.5996h 0.181345v 11.4562h 0.181345v 4.37235h 0.181345v -9.21238h 0.181345v -7.48493h 0.181345v 1.79013h 0.181345v 2.02948h 0.181345v 2.34287h 0.181345v 16.6973h 0.181345v -17.9138h 0.181345v -2.17492h
 0.181345v 1.04859h 0.36269v 8.50535h 0.36269v 7.14337h 0.181345v -11.9834h 0.181345v 1.44858h 0.181345v -5.11389h 0.181345v 2.34287h 0.181345v 2.77102h 0.181345v -8.9335h 0.181345v 6.16248h 0.181345v -2.34287h 0.181345v -2.02948h 0.181345v 2.02948h
 0.181345v -4.64136h 0.181345v 0.821743h 0.181345v 0.868725h 0.181345v 5.29375h 0.181345v 10.5348h 0.181345v -7.76381h 0.181345v -5.11389h 0.181345v 10.5348h 0.181345v -15.9558h 0.181345v 10.5348h 0.181345v -1.44858h 0.181345v 3.0499h 0.36269v
 -4.37235h 0.36269v -5.29375h 0.181345v 5.29375h 0.181345v -1.21653h 0.181345v 2.53898h 0.181345v -1.32245h 0.181345v 2.77102h 0.181345v -1.44858h 0.181345v -7.48493h 0.181345v 7.48493h 0.181345v -3.66531h 0.181345v 6.71521h 0.181345v -3.0499h
 0.181345v 4.84003h 0.181345v -6.16248h 0.181345v 8.19196h 0.181345v -5.42094h 0.181345v 5.42094h 0.36269v -2.02948h 0.181345v -1.79013h 0.181345v 8.9335h 0.181345v -11.9834h 0.181345v 9.21238h 0.181345v -2.34287h 0.181345v 19.0402h 0.181345v
 -19.0402h 0.181345v -3.81961h 0.181345v 3.81961h 0.181345v 8.50535h 0.181345v -12.325h 0.181345v 3.81961h 0.36269v 2.34287h 0.181345v 2.77102h 0.181345v -7.14337h 0.181345v 2.02948h 0.181345v 40.1098h 0.181345v -21.0697h 0.181345v -10.5348h
 0.181345v -13.9263h 0.181345v 1.60133h 0.181345v 1.79013h 0.181345v 14.9072h 0.181345v -12.8777h 0.181345v -2.02948h 0.181345v 2.02948h 0.36269v 8.50535h 0.181345v -6.16248h 0.181345v -4.37235h 0.181345v -1.79013h 0.181345v 6.16248h 0.181345v
 -4.37235h 0.181345v 7.14337h 0.181345v -10.5348h 0.181345v 18.2986h 0.181345v -7.76381h 0.181345v -8.9335h 0.181345v -5.58888h 0.181345v 9.40849h 0.181345v 19.0402h 0.181345v -24.4611h 0.181345v 3.39146h 0.181345v 4.37235h 0.181345v -6.16248h
 0.181345v 1.79013h 0.181345v -1.79013h 0.181345v 8.9335h 0.181345v 3.39146h 0.181345v -10.5348h 0.181345v -3.39146h 0.181345v 7.76381h 0.181345v 10.5348h 0.181345v -12.8777h 0.181345v -3.81961h 0.181345v 8.9335h 0.181345v -5.11389h 0.181345v
 -2.02948h 0.181345v 10.5348h 0.181345v -12.325h 0.544034v 6.16248h 0.181345v -2.34287h 0.181345v -10.5348h 0.181345v 8.50535h 0.181345v 7.14337h 0.36269v -7.14337h 0.181345v 2.02948h 0.181345v -2.02948h 0.181345v 21.0697h 0.181345v -21.0697h
 0.36269v -1.79013h 0.181345v 1.79013h 0.181345v 7.14337h 0.181345v -5.11389h 0.181345v 5.11389h 0.181345v -14.5224h 0.181345v 22.2862h 0.181345v -16.6973h 0.181345v 3.81961h 0.36269v -5.42094h 0.181345v 5.42094h 0.181345v -2.02948h 0.181345v
 -1.79013h 0.181345v -1.60133h 0.181345v 5.42094h 0.181345v -6.86952h 0.181345v -2.53898h 0.181345v 5.58888h 0.181345v -4.37235h 0.181345v 6.16248h 0.181345v -9.55394h 0.181345v 30.6236h 0.181345v -19.0402h 0.181345v -5.42094h 0.181345v 10.5348h
 0.181345v -5.11389h 0.181345v -8.19196h 0.181345v 6.16248h 0.544034v -6.16248h 0.181345v -4.37235h 0.181345v 12.5643h 0.181345v 8.50535h 0.181345v -12.325h 0.36269v 6.16248h 0.181345v 2.77102h 0.181345v -11.9834h 0.181345v 1.44858h 0.36269v
 -2.77102h 0.181345v 1.32245h 0.181345v 6.86952h 0.181345v -11.5834h 0.181345v 2.17492h 0.181345v 9.40849h 0.181345v -11.5834h 0.181345v 3.39146h 0.181345v 6.16248h 0.181345v -3.39146h 0.181345v 1.60133h 0.181345v 6.16248h 0.181345v -9.21238h
 0.181345v -2.53898h 0.181345v 9.40849h 0.181345v -6.86952h 0.181345v -3.66531h 0.181345v 5.11389h 0.181345v -6.16248h 0.181345v 6.16248h 0.181345v -6.16248h 0.181345v 4.7139h 0.181345v -2.53898h 0.181345v 2.53898h 0.181345v -10.5348h 0.181345v
 4.84003h 0.181345v 5.6948h 0.181345v -2.53898h 0.181345v -1.12633h 0.181345v -1.04859h 0.181345v 6.16248h 0.36269v 3.39146h 0.181345v -8.50535h 0.181345v -3.81961h 0.181345v 6.16248h 0.181345v -2.34287h 0.181345v 5.11389h 0.181345v -5.11389h
 0.181345v -2.02948h 0.181345v 8.7447h 0.181345v -8.7447h 0.181345v 4.37235h 0.36269v -1.21653h 0.181345v -3.15582h 0.181345v 5.6948h 0.181345v -2.53898h 0.181345v -4.07722h 0.181345v 0.921406h 0.181345v 3.15582h 0.181345v -1.12633h 0.181345v
 -3.81961h 0.181345v -3.7255h 0.181345v 4.59423h 0.181345v 6.6162h 0.181345v -5.6948h 0.181345v 5.6948h 0.181345v 3.0499h 0.181345v -6.71521h 0.181345v -2.95089h 0.181345v 9.6661h 0.181345v -10.5348h 0.181345v 1.79013h 0.181345v -3.39146h 0.181345v
 5.42094h 0.181345v -2.02948h 0.181345v 3.15582h 0.181345v -4.94595h 0.181345v 2.77102h 0.36269v -0.980892h 0.181345v 3.15582h 0.181345v -4.07722h 0.181345v 2.95089h 0.181345v -3.81961h 0.181345v 0.868725h 0.181345v 5.29375h 0.181345v 4.37235h
 0.181345v 1.79013h 0.181345v -8.50535h 0.181345v 23.4125h 0.181345v -22.2862h 0.36269v 3.98755h 0.181345v 5.42094h 0.181345v -10.5348h 0.181345v 1.12633h 0.181345v 5.58888h 0.181345v -3.0499h 0.181345v 11.9834h 0.181345v -5.11389h 0.181345v 12.8777h
 0.181345v -12.8777h 0.181345v -2.02948h 0.181345v 7.14337h 0.181345v 3.39146h 0.36269v -10.5348h 0.181345v 7.14337h 0.36269v 3.39146h 0.181345v 10.5348h 0.181345v -6.16248h 0.36269v -14.9072h 0.181345v 14.9072h 0.181345v 16.6973h 0.181345v -10.5348h
 0.181345v -21.0697h 0.181345v 31.6045h 0.181345v -16.6973h 0.181345v -4.37235h 0.181345v 31.6045h 0.181345v -10.5348h 0.36269v -16.6973h 0.181345v 27.2321h 0.181345v -10.5348h 0.36269v -10.5348h 0.181345v -6.16248h 0.725379v 27.2321h 0.181345v
 -10.5348h 0.36269v -10.5348h 0.36269v 10.5348h 0.181345v -10.5348h 0.181345v 10.5348h 0.36269v -16.6973h 0.181345v 16.6973h 0.181345v 10.5348h 0.181345v -10.5348h 0.181345v 10.5348h 0.181345v -31.6045h 0.181345v 4.37235h 0.181345v 27.2321h 0.544034v
 -10.5348h 0.36269v -10.5348h 0.36269v 10.5348h 0.544034v 10.5348h 0.181345v -10.5348h 0.544034v 10.5348h 0.36269v -10.5348h 0.36269v 10.5348h 0.181345v -10.5348h 0.181345v 10.5348h 0.544034v -10.5348h 0.906724v 10.5348h 0.181345v -10.5348h 0.36269v
 10.5348h 0.181345v -10.5348h 0.181345v -10.5348h 0.181345v 21.0697h 0.181345v -10.5348h 0.181345v 10.5348h 0.36269v -10.5348h 0.36269v -10.5348h 0.181345v 10.5348h 0.181345v 10.5348h 0.181345v -21.0697h 0.181345v 10.5348h 0.36269v 10.5348h 0.181345v
 -10.5348h 0.181345v 10.5348h 0.181345v -10.5348h 0.181345v 10.5348h 0.181345v -21.0697h 0.181345v 21.0697h 0.181345v -10.5348h 0.181345v -16.6973h 0.181345v 27.2321h 0.181345v -10.5348h 0.36269v 10.5348h 0.181345v -10.5348h 0.181345v 10.5348h
 0.181345v -10.5348h 0.181345v 10.5348h 0.181345v -21.0697h 0.181345v 10.5348h 0.181345v 10.5348h 0.181345v -10.5348h 0.181345v 10.5348h 0.181345v -10.5348h 0.181345v 10.5348h 0.181345v -10.5348h 0.544034v -10.5348h 0.36269v 10.5348h 0.181345v
 -10.5348h 0.181345v 10.5348h 0.181345v 10.5348h 0.36269v -10.5348h 0.181345v 10.5348h 0.181345v -10.5348h 0.181345v 10.5348h 0.36269v -21.0697h 0.181345v 10.5348h 1.26941v 10.5348h 0.181345v -10.5348h 0.36269v 10.5348h 0.36269v -10.5348h 0.181345v
 10.5348h 0.181345v -21.0697h 0.181345v 10.5348h 0.181345v 10.5348h 0.181345v -10.5348h 0.36269v 10.5348h 0.36269v -10.5348h 0.544034v 10.5348h 0.36269v -10.5348h 0.181345v 10.5348h 0.181345v -21.0697h 0.181345v 21.0697h 0.181345v -10.5348h 0.36269v
 10.5348h 0.906724v -10.5348h 0.181345v -10.5348h 0.181345v 21.0697h 0.36269v -10.5348h 0.181345v 10.5348h 0.725379v -21.0697h 0.544034v 21.0697h 0.181345v -10.5348h 0.36269v 10.5348h 0.181345v -10.5348h 0.181345v 10.5348h 0.36269v -10.5348h 0.36269v
 10.5348h 0.181345v -10.5348h 0.36269v 10.5348h 0.544034v -21.0697h 0.181345v 21.0697h 0.181345v -21.0697h 0.181345v 21.0697h 0.36269v -10.5348h 0.181345v -10.5348h 0.36269v 21.0697h 1.26941v -21.0697h 0.181345v 21.0697h 0.181345v -21.0697h 0.181345v
 21.0697h 0.181345v -21.0697h 0.36269v -6.16248h 0.181345v 16.6973h 0.181345v -10.5348h 0.181345v 21.0697h 0.36269v -10.5348h 0.544034v 10.5348h 0.181345v -10.5348h 0.181345v 10.5348h 0.181345v -10.5348h 0.544034v -10.5348h 0.36269v 21.0697h 0.36269v
 -10.5348h 0.36269v 10.5348h 0.181345v -21.0697h 0.181345v 21.0697h 0.36269v -10.5348h 0.181345v -10.5348h 0.181345v 21.0697h 0.181345v -21.0697h 0.181345v 10.5348h 0.181345v -10.5348h 0.181345v 21.0697h 0.36269v -10.5348h 0.36269v -10.5348h
 0.181345v 21.0697h 0.725379v -21.0697h 0.36269v 21.0697h 0.181345v -10.5348h 0.36269v 10.5348h 0.544034v -10.5348h 0.181345v 10.5348h 0.725379v -21.0697h 0.181345v 10.5348h 0.36269v 10.5348h 0.36269v -10.5348h 0.181345v 10.5348h 0.181345v -27.2321h
 0.181345v 16.6973h 0.181345v -10.5348h 0.181345v 21.0697h 0.181345v -10.5348h 0.36269v 10.5348h 0.36269v -21.0697h 0.181345v 10.5348h 0.906724v 10.5348h 0.181345v -21.0697h 0.181345v 21.0697h 0.181345v -10.5348h 0.181345v 10.5348h 0.36269v -21.0697h
 0.181345" fill="none" stroke="black"/>
<path d="M57.1929,280.151h 453.543" fill="none" stroke="black"/>
<path d="M57.1929,272.68v 7.47068" fill="none" stroke="black"/>
<path d="M75.3318,276.415v 3.73534" fill="none" stroke="black"/>
<path d="M93.4707,276.415v 3.73534" fill="none" stroke="black"/>
<path d="M111.61,276.415v 3.73534" fill="none" stroke="black"/>
<path d="M129.749,276.415v 3.73534" fill="none" stroke="black"/>
<path d="M147.887,272.68v 7.47068" fill="none" stroke="black"/>
<path d="M166.026,276.415v 3.73534" fill="none" stroke="black"/>
<path d="M184.165,276.415v 3.73534" fill="none" stroke="black"/>
<path d="M202.304,276.415v 3.73534" fill="none" stroke="black"/>
<path d="M220.443,276.415v 3.73534" fill="none" stroke="black"/>
<path d="M238.582,272.68v 7.47068" fill="none" stroke="black"/>
<path d="M256.721,276.415v 3.73534" fill="none" stroke="black"/>
<path d="M274.86,276.415v 3.73534" fill="none" stroke="black"/>
<path d="M292.999,276.415v 3.73534" fill="none" stroke="black"/>
<path d="M311.138,276.415v 3.73534" fill="none" stroke="black"/>
<path d="M329.277,272.68v 7.47068" fill="none" stroke="black"/>
<path d="M347.415,276.415v 3.73534" fill="none" stroke="black"/>
<path d="M365.554,276.415v 3.73534" fill="none" stroke="black"/>
<path d="M383.693,276.415v 3.73534" fill="none" stroke="black"/>
<path d="M401.832,276.415v 3.73534" fill="none" stroke="black"/>
<path d="M419.971,272.68v 7.47068" fill="none" stroke="black"/>
<path d="M438.11,276.415v 3.73534" fill="none" stroke="black"/>
<path d="M456.249,276.415v 3.73534" fill="none" stroke="black"/>
<path d="M474.388,276.415v 3.73534" fill="none" stroke="black"/>
<path d="M492.527,276.415v 3.73534" fill="none" stroke="black"/>
<path d="M510.666,272.68v 7.47068" fill="none" stroke="black"/>
<path d="M510.666,272.68v 7.47068" fill="none" stroke="black"/>
<text xml:space="preserve" x="54.3523" y="290.27" fill="black" font-size="10.4952" font-family="Helvetica">0</text>
<text xml:space="preserve" x="139.569" y="290.27" fill="black" font-size="10.4952" font-family="Helvetica">500</text>
<text xml:space="preserve" x="227.449" y="290.27" fill="black" font-size="10.4952" font-family="Helvetica">1000</text>
<text xml:space="preserve" x="318.288" y="290.27" fill="black" font-size="10.4952" font-family="Helvetica">1500</text>
<text xml:space="preserve" x="408.831" y="290.27" fill="black" font-size="10.4952" font-family="Helvetica">2000</text>
<text xml:space="preserve" x="499.67" y="290.27" fill="black" font-size="10.4952" font-family="Helvetica">2500</text>
<text xml:space="preserve" x="265.323" y="301.218" fill="black" font-size="10.4952" font-family="Helvetica">Channel</text>
<path d="M57.1929,280.151v -249.023" fill="none" stroke="black"/>
<path d="M63.9961,280.151h -6.80315" fill="none" stroke="black"/>
<path d="M63.9961,277.38h -6.80315" fill="none" stroke="black"/>
<path d="M63.9961,275.037h -6.80315" fill="none" stroke="black"/>
<path d="M63.9961,273.007h -6.80315" fill="none" stroke="black"/>
<path d="M63.9961,271.217h -6.80315" fill="none" stroke="black"/>
<path d="M70.7992,269.616h -13.6063" fill="none" stroke="black"/>
<text xml:space="preserve" x="49.0263" y="273.404" fill="black" font-size="10.4952" font-family="Helvetica">1</text>
<path d="M63.9961,259.081h -6.80315" fill="none" stroke="black"/>
<path d="M63.9961,252.918h -6.80315" fill="none" stroke="black"/>
<path d="M63.9961,248.546h -6.80315" fill="none" stroke="black"/>
<path d="M63.9961,245.155h -6.80315" fill="none" stroke="black"/>
<path d="M63.9961,242.384h -6.80315" fill="none" stroke="black"/>
<path d="M63.9961,240.041h -6.80315" fill="none" stroke="black"/>
<path d="M63.9961,238.011h -6.80315" fill="none" stroke="black"/>
<path d="M63.9961,236.221h -6.80315" fill="none" stroke="black"/>
<path d="M70.7992,234.62h -13.6063" fill="none" stroke="black"/>
<text xml:space="preserve" x="41.629" y="238.193" fill="black" font-size="10.4952" font-family="Helvetica">10</text>
<path d="M63.9961,224.085h -6.80315" fill="none" stroke="black"/>
<path d="M63.9961,217.922h -6.80315" fill="none" stroke="black"/>
<path d="M63.9961,213.55h -6.80315" fill="none" stroke="black"/>
<path d="M63.9961,210.159h -6.80315" fill="none" stroke="black"/>
<path d="M63.9961,207.388h -6.80315" fill="none" stroke="black"/>
<path d="M63.9961,205.045h -6.80315" fill="none" stroke="black"/>
<path d="M63.9961,203.015h -6.80315" fill="none" stroke="black"/>
<path d="M63.9961,201.225h -6.80315" fill="none" stroke="black"/>
<path d="M70.7992,199.624h -13.6063" fill="none" stroke="black"/>
<text xml:space="preserve" x="49.0263" y="199.727" fill="black" font-size="7.16345" font-family="Helvetica">2</text>
<text xml:space="preserve" x="38.0783" y="204.165" fill="black" font-size="10.4952" font-family="Helvetica">10</text>
<path d="M63.9961,189.089h -6.80315" fill="none" stroke="black"/>
<path d="M63.9961,182.927h -6.80315" fill="none" stroke="black"/>
<path d="M63.9961,178.554h -6.80315" fill="none" stroke="black"/>
<path d="M63.9961,175.163h -6.80315" fill="none" stroke="black"/>
<path d="M63.9961,172.392h -6.80315" fill="none" stroke="black"/>
<path d="M63.9961,170.049h -6.80315" fill="none" stroke="black"/>
<path d="M63.9961,168.019h -6.80315" fill="none" stroke="black"/>
<path d="M63.9961,166.229h -6.80315" fill="none" stroke="black"/>
<path d="M70.7992,164.628h -13.6063" fill="none" stroke="black"/>
<text xml:space="preserve" x="49.0263" y="164.516" fill="black" font-size="7.16345" font-family="Helvetica">3</text>
<text xml:space="preserve" x="38.0783" y="169.25" fill="black" font-size="10.4952" font-family="Helvetica">10</text>
<path d="M63.9961,154.093h -6.80315" fill="none" stroke="black"/>
<path d="M63.9961,147.931h -6.80315" fill="none" stroke="black"/>
<path d="M63.9961,143.558h -6.80315" fill="none" stroke="black"/>
<path d="M63.9961,140.167h -6.80315" fill="none" stroke="black"/>
<path d="M63.9961,137.396h -6.80315" fill="none" stroke="black"/>
<path d="M63.9961,135.053h -6.80315" fill="none" stroke="black"/>
<path d="M63.9961,133.023h -6.80315" fill="none" stroke="black"/>
<path d="M63.9961,131.233h -6.80315" fill="none" stroke="black"/>
<path d="M70.7992,129.632h -13.6063" fill="none" stroke="black"/>
<text xml:space="preserve" x="49.0263" y="129.897" fill="black" font-size="7.16345" font-family="Helvetica">4</text>
<text xml:space="preserve" x="38.0783" y="134.335" fill="black" font-size="10.4952" font-family="Helvetica">10</text>
<path d="M63.9961,119.097h -6.80315" fill="none" stroke="black"/>
<path d="M63.9961,112.935h -6.80315" fill="none" stroke="black"/>
<path d="M63.9961,108.562h -6.80315" fill="none" stroke="black"/>
<path d="M63.9961,105.171h -6.80315" fill="none" stroke="black"/>
<path d="M63.9961,102.4h -6.80315" fill="none" stroke="black"/>
<path d="M63.9961,100.057h -6.80315" fill="none" stroke="black"/>
<path d="M63.9961,98.0275h -6.80315" fill="none" stroke="black"/>
<path d="M63.9961,96.2374h -6.80315" fill="none" stroke="black"/>
<path d="M70.7992,94.636h -13.6063" fill="none" stroke="black"/>
<text xml:space="preserve" x="49.0263" y="94.3896" fill="black" font-size="7.16345" font-family="Helvetica">5</text>
<text xml:space="preserve" x="38.0783" y="99.1238" fill="black" font-size="10.4952" font-family="Helvetica">10</text>
<path d="M63.9961,84.1012h -6.80315" fill="none" stroke="black"/>
<path d="M63.9961,77.9387h -6.80315" fill="none" stroke="black"/>
<path d="M63.9961,73.5664h -6.80315" fill="none" stroke="black"/>
<path d="M63.9961,70.1749h -6.80315" fill="none" stroke="black"/>
<path d="M63.9961,67.4039h -6.80315" fill="none" stroke="black"/>
<path d="M63.9961,65.061h -6.80315" fill="none" stroke="black"/>
<path d="M63.9961,63.0315h -6.80315" fill="none" stroke="black"/>
<path d="M63.9961,61.2414h -6.80315" fill="none" stroke="black"/>
<path d="M70.7992,59.6401h -13.6063" fill="none" stroke="black"/>
<text xml:space="preserve" x="49.0263" y="59.4743" fill="black" font-size="7.16345" font-family="Helvetica">6</text>
<text xml:space="preserve" x="38.0783" y="64.2086" fill="black" font-size="10.4952" font-family="Helvetica">10</text>
<path d="M63.9961,49.1053h -6.80315" fill="none" stroke="black"/>
<path d="M63.9961,42.9428h -6.80315" fill="none" stroke="black"/>
<path d="M63.9961,38.5704h -6.80315" fill="none" stroke="black"/>
<path d="M63.9961,35.179h -6.80315" fill="none" stroke="black"/>
<path d="M63.9961,32.408h -6.80315" fill="none" stroke="black"/>
<g transform="rotate(-90,26.5385,191.442)">
<text xml:space="preserve" x="26.5385" y="191.442" fill="black" font-size="10.4952" font-family="Helvetica">Counts/Channel</text>
</g>
<text xml:space="preserve" x="404.097" y="59.4743" fill="black" font-size="14.7788" font-family="Helvetica" font-weight="bold"> = 2.4879 MeV</text>
<text xml:space="preserve" x="398.179" y="62.7291" fill="black" font-size="10.0192" font-family="Helvetica" font-weight="bold">p</text>
<text xml:space="preserve" x="389.006" y="59.4743" fill="black" font-size="14.7788" font-family="Helvetica" font-weight="bold">E</text>
<path d="M262.163,163.179v 26.3135" fill="none" stroke="black"/>
<path d="M264.454,189.493l -2.29122, 3.9685l -2.29122, -3.9685z" fill="black"/>
<path d="M264.454,189.493l -2.29122, 3.9685l -2.29122, -3.9685h 4.58243z" fill="none" stroke="black"/>
<text xml:space="preserve" x="266.803" y="160.965" fill="black" font-size="10.4952" font-family="Helvetica" font-weight="bold">_1 	1.369 MeV</text>
<text xml:space="preserve" x="260.293" y="160.965" fill="black" font-size="10.4952" font-family="Times">&#0945;</text>
<path d="M184.528,129.632v 31.0274" fill="none" stroke="black"/>
<path d="M186.819,160.659l -2.29122, 3.9685l -2.29122, -3.9685z" fill="black"/>
<path d="M186.819,160.659l -2.29122, 3.9685l -2.29122, -3.9685h 4.58243z" fill="none" stroke="black"/>
<text xml:space="preserve" x="172.117" y="126.642" fill="black" font-size="10.4952" font-family="Helvetica" font-weight="bold"># p_1 	0.844 MeV</text>
<path d="M210.104,147.931v 12.7288" fill="none" stroke="black"/>
<path d="M212.395,160.659l -2.29122, 3.9685l -2.29122, -3.9685z" fill="black"/>
<path d="M212.395,160.659l -2.29122, 3.9685l -2.29122, -3.9685h 4.58243z" fill="none" stroke="black"/>
<text xml:space="preserve" x="197.564" y="143.508" fill="black" font-size="10.4952" font-family="Helvetica" font-weight="bold"># p_2 	1.015 MeV</text>
<path d="M497.542,269.616h 13.1236" fill="none" stroke="black"/>
<path d="M504.104,259.081h 6.5618" fill="none" stroke="black"/>
<path d="M504.104,252.918h 6.5618" fill="none" stroke="black"/>
<path d="M504.104,248.546h 6.5618" fill="none" stroke="black"/>
<path d="M504.104,245.155h 6.5618" fill="none" stroke="black"/>
<path d="M504.104,242.384h 6.5618" fill="none" stroke="black"/>
<path d="M504.104,240.041h 6.5618" fill="none" stroke="black"/>
<path d="M504.104,238.011h 6.5618" fill="none" stroke="black"/>
<path d="M504.104,236.221h 6.5618" fill="none" stroke="black"/>
<path d="M497.542,234.62h 13.1236" fill="none" stroke="black"/>
<path d="M504.104,224.085h 6.5618" fill="none" stroke="black"/>
<path d="M504.104,217.922h 6.5618" fill="none" stroke="black"/>
<path d="M504.104,213.55h 6.5618" fill="none" stroke="black"/>
<path d="M504.104,210.159h 6.5618" fill="none" stroke="black"/>
<path d="M504.104,207.388h 6.5618" fill="none" stroke="black"/>
<path d="M504.104,205.045h 6.5618" fill="none" stroke="black"/>
<path d="M504.104,203.015h 6.5618" fill="none" stroke="black"/>
<path d="M504.104,201.225h 6.5618" fill="none" stroke="black"/>
<path d="M497.542,199.624h 13.1236" fill="none" stroke="black"/>
<path d="M504.104,189.089h 6.5618" fill="none" stroke="black"/>
<path d="M504.104,182.927h 6.5618" fill="none" stroke="black"/>
<path d="M504.104,178.554h 6.5618" fill="none" stroke="black"/>
<path d="M504.104,175.163h 6.5618" fill="none" stroke="black"/>
<path d="M504.104,172.392h 6.5618" fill="none" stroke="black"/>
<path d="M504.104,170.049h 6.5618" fill="none" stroke="black"/>
<path d="M504.104,168.019h 6.5618" fill="none" stroke="black"/>
<path d="M504.104,166.229h 6.5618" fill="none" stroke="black"/>
<path d="M497.542,164.628h 13.1236" fill="none" stroke="black"/>
<path d="M504.104,154.093h 6.5618" fill="none" stroke="black"/>
<path d="M504.104,147.931h 6.5618" fill="none" stroke="black"/>
<path d="M504.104,143.558h 6.5618" fill="none" stroke="black"/>
<path d="M504.104,140.167h 6.5618" fill="none" stroke="black"/>
<path d="M504.104,137.396h 6.5618" fill="none" stroke="black"/>
<path d="M504.104,135.053h 6.5618" fill="none" stroke="black"/>
<path d="M504.104,133.023h 6.5618" fill="none" stroke="black"/>
<path d="M504.104,131.233h 6.5618" fill="none" stroke="black"/>
<path d="M497.542,129.632h 13.1236" fill="none" stroke="black"/>
<path d="M504.104,119.097h 6.5618" fill="none" stroke="black"/>
<path d="M504.104,112.935h 6.5618" fill="none" stroke="black"/>
<path d="M504.104,108.562h 6.5618" fill="none" stroke="black"/>
<path d="M504.104,105.171h 6.5618" fill="none" stroke="black"/>
<path d="M504.104,102.4h 6.5618" fill="none" stroke="black"/>
<path d="M504.104,100.057h 6.5618" fill="none" stroke="black"/>
<path d="M504.104,98.0275h 6.5618" fill="none" stroke="black"/>
<path d="M504.104,96.2374h 6.5618" fill="none" stroke="black"/>
<path d="M497.542,94.636h 13.1236" fill="none" stroke="black"/>
<path d="M504.104,84.1012h 6.5618" fill="none" stroke="black"/>
<path d="M504.104,77.9387h 6.5618" fill="none" stroke="black"/>
<path d="M504.104,73.5664h 6.5618" fill="none" stroke="black"/>
<path d="M504.104,70.1749h 6.5618" fill="none" stroke="black"/>
<path d="M504.104,67.4039h 6.5618" fill="none" stroke="black"/>
<path d="M504.104,65.061h 6.5618" fill="none" stroke="black"/>
<path d="M504.104,63.0315h 6.5618" fill="none" stroke="black"/>
<path d="M504.104,61.2414h 6.5618" fill="none" stroke="black"/>
<path d="M497.542,59.6401h 13.1236" fill="none" stroke="black"/>
<path d="M504.104,49.1053h 6.5618" fill="none" stroke="black"/>
<path d="M504.104,42.9428h 6.5618" fill="none" stroke="black"/>
<path d="M504.104,38.5704h 6.5618" fill="none" stroke="black"/>
<path d="M504.104,35.179h 6.5618" fill="none" stroke="black"/>
<path d="M504.104,32.408h 6.5618" fill="none" stroke="black"/>
<path d="M504.104,30.0651h 6.5618" fill="none" stroke="black"/>
<path d="M57.1929,36.8968v -7.46952" fill="none" stroke="black"/>
<path d="M75.3318,36.8968v -7.46952" fill="none" stroke="black"/>
<path d="M93.4707,36.8968v -7.46952" fill="none" stroke="black"/>
<path d="M111.61,36.8968v -7.46952" fill="none" stroke="black"/>
<path d="M129.749,36.8968v -7.46952" fill="none" stroke="black"/>
<path d="M147.887,36.8968v -7.46952" fill="none" stroke="black"/>
<path d="M166.026,36.8968v -7.46952" fill="none" stroke="black"/>
<path d="M184.165,36.8968v -7.46952" fill="none" stroke="black"/>
<path d="M202.304,36.8968v -7.46952" fill="none" stroke="black"/>
<path d="M220.443,36.8968v -7.46952" fill="none" stroke="black"/>
<path d="M238.582,36.8968v -7.46952" fill="none" stroke="black"/>
<path d="M256.721,36.8968v -7.46952" fill="none" stroke="black"/>
<path d="M274.86,36.8968v -7.46952" fill="none" stroke="black"/>
<path d="M292.999,36.8968v -7.46952" fill="none" stroke="black"/>
<path d="M311.138,36.8968v -7.46952" fill="none" stroke="black"/>
<path d="M329.277,36.8968v -7.46952" fill="none" stroke="black"/>
<path d="M347.415,36.8968v -7.46952" fill="none" stroke="black"/>
<path d="M365.554,36.8968v -7.46952" fill="none" stroke="black"/>
<path d="M383.693,36.8968v -7.46952" fill="none" stroke="black"/>
<path d="M401.832,36.8968v -7.46952" fill="none" stroke="black"/>
<path d="M419.971,36.8968v -7.46952" fill="none" stroke="black"/>
<path d="M438.11,36.8968v -7.46952" fill="none" stroke="black"/>
<path d="M456.249,36.8968v -7.46952" fill="none" stroke="black"/>
<path d="M474.388,36.8968v -7.46952" fill="none" stroke="black"/>
<path d="M492.527,36.8968v -7.46952" fill="none" stroke="black"/>
<path d="M510.666,36.8968v -7.46952" fill="none" stroke="black"/></svg>
