<?xml version="1.0" standalone="no"?>
<svg width="567.429" height="311.778" viewBox="0 0 567.429 311.778" xmlns="http://www.w3.org/2000/svg" shape-rendering="crispEdges">
<title>
Yields/P1/run_0100/det6_Fit.svg
</title>
<desc>
Creator: ROOT Version 6.12/06
CreationDate: Mon Apr 15 10:29:01 2019</desc>
<defs>
</defs>
<rect x="0.5" y="0" width="566.929" height="311.278" fill="white"/>
<rect x="57.1929" y="31.1278" width="453.543" height="249.023" fill="white"/>
<rect x="57.1929" y="31.1278" width="453.543" height="249.023" fill="none" stroke="black"/>
<path d="M57.1929,40.845h 0.181345v 239.306h 4.17093v -10.5393h 0.181345v 10.5393h 0.36269v -10.5393h 0.181345v 10.5393h 4.71496v -10.5393h 0.181345v 10.5393h 5.07765v -10.5393h 0.181345v 10.5393h 6.16572v -10.5393h 0.181345v 10.5393h 1.26941v
 -10.5393h 0.181345v 10.5393h 3.80824v -10.5393h 0.36269v 10.5393h 1.6321v -10.5393h 0.181345v 10.5393h 1.08807v -10.5393h 0.181345v 10.5393h 0.36269v -10.5393h 0.181345v -16.7043h 0.181345v 16.7043h 0.181345v -21.0785h 0.181345v -22.0003h 0.181345v
 -10.0854h 0.181345v -12.8831h 0.181345v -11.5883h 0.181345v -8.83453h 0.181345v -3.76959h 0.181345v -3.97685h 0.181345v -0.696069h 0.181345v -1.27609h 0.181345v -2.8896h 0.181345v -0.530459h 0.181345v 0.21878h 0.181345v -1.62842h 0.181345v
 -0.0592786h 0.181345v -0.427789h 0.181345v -0.471948h 0.181345v -0.708179h 0.181345v -0.488835h 0.181345v -0.819376h 0.181345v 1.48667h 0.181345v -1.5192h 0.181345v 0.90353h 0.181345v -0.391419h 0.181345v -0.991801h 0.181345v -0.434456h 0.181345v
 0.930401h 0.181345v -1.05228h 0.181345v 0.730475h 0.181345v -0.142622h 0.181345v 0.351022h 0.181345v -0.0644278h 0.181345v -0.691253h 0.181345v 0.86909h 0.181345v -0.899776h 0.181345v 0.3881h 0.181345v -0.811327h 0.181345v 0.36204h 0.181345v
 -0.642663h 0.181345v 0.919965h 0.181345v -0.414078h 0.181345v -0.240162h 0.181345v 0.576704h 0.181345v -0.291086h 0.181345v -0.696984h 0.181345v 0.941737h 0.181345v 0.549541h 0.181345v -0.900147h 0.181345v 0.243041h 0.181345v -0.197766h 0.181345v
 0.10617h 0.181345v 0.684883h 0.181345v 0.817667h 0.181345v -0.414329h 0.181345v -0.291477h 0.181345v 0.638751h 0.181345v 0.389674h 0.181345v -1.09245h 0.181345v 0.803467h 0.181345v -0.77149h 0.181345v -0.0159968h 0.181345v -0.687699h 0.181345v
 -0.451665h 0.181345v -1.29331h 0.181345v -1.40453h 0.181345v -1.97745h 0.181345v -3.071h 0.181345v -2.95528h 0.181345v -3.62013h 0.181345v -3.06905h 0.181345v -2.82566h 0.181345v -2.96459h 0.181345v -2.40279h 0.181345v -1.77065h 0.181345v -1.32934h
 0.181345v -0.846334h 0.181345v 0.331163h 0.181345v 0.260932h 0.181345v 1.09333h 0.181345v 1.37191h 0.181345v 2.69022h 0.181345v 3.0643h 0.181345v 3.60415h 0.181345v 3.22059h 0.181345v 4.46169h 0.181345v 4.74565h 0.181345v 3.64012h 0.181345v 4.60676h
 0.181345v 1.76747h 0.181345v 2.3158h 0.181345v 2.18528h 0.181345v 0.695204h 0.181345v 0.916237h 0.181345v 1.10987h 0.181345v -1.20401h 0.181345v 1.65075h 0.181345v -0.88071h 0.181345v 0.811122h 0.181345v 0.104502h 0.181345v 0.389438h 0.181345v
 -0.354444h 0.36269v -0.104742h 0.181345v 0.748812h 0.181345v -0.64407h 0.181345v 1.27848h 0.181345v -0.888132h 0.181345v 0.926288h 0.181345v 0.824211h 0.181345v -0.040278h 0.181345v -1.67423h 0.36269v 0.928551h 0.181345v -0.710815h 0.181345v
 -0.432397h 0.181345v 1.14321h 0.181345v 0.192714h 0.181345v -1.51253h 0.181345v 0.792854h 0.181345v 2.22715h 0.36269v 0.0428913h 0.181345v -0.91674h 0.181345v -1.71882h 0.181345v 1.51796h 0.181345v 1.46516h 0.181345v 1.18778h 0.181345v -2.81173h
 0.181345v 1.06314h 0.181345v 0.386042h 0.36269v 0.711472h 0.181345v -0.404291h 0.181345v 2.13838h 0.181345v -0.843557h 0.181345v -1.81768h 0.181345v 2.15938h 0.181345v -2.20215h 0.181345v 0.433219h 0.181345v 2.52807h 0.181345v -0.409585h 0.181345v
 0.254695h 0.181345v 0.899337h 0.181345v -2.03715h 0.181345v 0.337366h 0.181345v 0.196196h 0.181345v 0.450921h 0.181345v -0.151798h 0.181345v -0.34841h 0.181345v 1.49847h 0.181345v -1.5476h 0.181345v 3.516h 0.181345v -0.899963h 0.181345v -0.683483h
 0.181345v 0.337902h 0.181345v -1.56779h 0.181345v 0.4166h 0.181345v -0.209727h 0.181345v -0.155418h 0.181345v 2.0377h 0.181345v 0.297562h 0.181345v -0.238514h 0.181345v -1.24887h 0.181345v 1.60806h 0.181345v -2.1435h 0.181345v 1.84359h 0.181345v
 0.729977h 0.181345v -1.02409h 0.36269v 1.14923h 0.181345v 0.317442h 0.181345v -1.29089h 0.181345v -0.29185h 0.181345v 0.954349h 0.181345v -0.721318h 0.181345v 1.28569h 0.181345v 0.786638h 0.181345v -3.84363h 0.181345v 2.24836h 0.181345v 1.46131h
 0.181345v 0.066835h 0.181345v -2.0052h 0.181345v -1.23961h 0.181345v 1.71666h 0.181345v -2.09079h 0.181345v -0.77199h 0.181345v 0.202062h 0.181345v -1.68315h 0.181345v -0.315373h 0.181345v -1.19989h 0.181345v -0.326124h 0.181345v -0.240083h
 0.181345v -0.0791926h 0.181345v -1.6099h 0.181345v 2.09136h 0.181345v 0.881084h 0.181345v -0.634512h 0.181345v 0.721151h 0.181345v 0.530459h 0.181345v 0.784648h 0.181345v 1.70233h 0.181345v -0.366402h 0.181345v 2.58714h 0.181345v -0.303502h
 0.181345v 0.929308h 0.181345v 0.322835h 0.181345v -0.129958h 0.181345v 0.0648399h 0.181345v 1.35849h 0.181345v -1.16229h 0.181345v 0.400153h 0.181345v 0.204096h 0.181345v 0.137602h 0.181345v 0.635101h 0.181345v 0.8903h 0.181345v -1.5254h 0.181345v
 -0.205939h 0.181345v -0.861512h 0.181345v 2.97977h 0.181345v -1.05948h 0.181345v 1.05948h 0.181345v -1.84305h 0.181345v -0.206873h 0.181345v 2.04992h 0.181345v -1.77346h 0.181345v -0.207816h 0.181345v 2.37829h 0.181345v -1.88889h 0.181345v 0.286894h
 0.181345v 0.440754h 0.181345v -1.55721h 0.181345v 0.0674278h 0.181345v 2.02069h 0.181345v -0.605252h 0.181345v -1.07374h 0.181345v 2.06988h 0.181345v -0.0789869h 0.181345v 0.726103h 0.181345v -3.65505h 0.181345v 0.528921h 0.181345v 0.547985h
 0.181345v 0.140139h 0.181345v 0.356104h 0.181345v -1.17819h 0.181345v 0.543091h 0.181345v -0.675886h 0.181345v -1.56891h 0.181345v 0.98528h 0.181345v -0.0634863h 0.181345v -1.62099h 0.181345v -0.337902h 0.181345v 2.67227h 0.181345v -1.39476h
 0.181345v 0.492511h 0.181345v -1.2603h 0.181345v 1.44919h 0.181345v -1.21704h 0.181345v 1.602h 0.181345v 0.394956h 0.181345v 0.612362h 0.181345v -0.478397h 0.181345v -0.658325h 0.181345v 0.3256h 0.181345v 1.81559h 0.181345v 1.39735h 0.181345v
 -1.323h 0.181345v 1.4865h 0.181345v -1.33669h 0.181345v -0.590557h 0.181345v 2.34385h 0.181345v -1.3722h 0.181345v 0.955599h 0.181345v -0.485305h 0.181345v -0.85139h 0.181345v 1.01144h 0.181345v -1.01144h 0.181345v 1.33669h 0.181345v 0.932071h
 0.181345v -3.28766h 0.181345v 0.86909h 0.181345v 0.453913h 0.181345v 0.467881h 0.181345v -0.847076h 0.181345v 0.456182h 0.181345v 0.077379h 0.181345v 1.55037h 0.181345v -2.74353h 0.181345v 1.58607h 0.181345v -1.07555h 0.181345v 0.996146h 0.36269v
 -1.36255h 0.181345v 1.44195h 0.181345v 0.160053h 0.181345v 1.88166h 0.181345v -2.96819h 0.181345v 0.379195h 0.181345v 1.36495h 0.181345v -0.737851h 0.181345v -0.855747h 0.181345v -0.225263h 0.181345v 2.07299h 0.181345v -1.07179h 0.181345v 0.650578h
 0.181345v -0.570762h 0.181345v -0.0798161h 0.181345v -2.14928h 0.181345v -1.19576h 0.181345v 3.42486h 0.181345v 0.1609h 0.181345v -0.787997h 0.181345v -0.379195h 0.181345v 0.302596h 0.181345v 0.30874h 0.181345v -0.53625h 0.181345v -2.30078h
 0.181345v 1.28188h 0.181345v -0.0702308h 0.181345v 0.790979h 0.181345v -0.650192h 0.181345v 0.503283h 0.181345v 0.749163h 0.181345v 1.03259h 0.181345v -1.1854h 0.181345v 1.35067h 0.181345v -2.01995h 0.181345v -1.4558h 0.181345v 1.602h 0.181345v
 1.95706h 0.181345v 0.168012h 0.181345v -2.12507h 0.181345v -1.73365h 0.181345v 2.5639h 0.181345v 0.796252h 0.181345v -3.62007h 0.181345v 1.20631h 0.181345v -0.069588h 0.181345v 1.92162h 0.181345v -0.541709h 0.181345v 1.02191h 0.181345v -1.69118h
 0.181345v -1.4558h 0.181345v 2.5882h 0.181345v -1.05948h 0.36269v 0.445054h 0.181345v -0.298146h 0.181345v 1.22935h 0.181345v -1.73744h 0.181345v 1.18733h 0.181345v 1.45691h 0.181345v -1.37953h 0.181345v 1.37953h 0.181345v -1.53389h 0.181345v
 -0.453913h 0.181345v 2.95213h 0.181345v -1.71022h 0.181345v 0.831078h 0.181345v 0.345582h 0.181345v -2.11747h 0.181345v 3.58414h 0.181345v -1.72659h 0.181345v -0.255551h 0.181345v 0.0847074h 0.181345v 2.18891h 0.181345v -2.35786h 0.181345v 1.68624h
 0.181345v -0.278998h 0.181345v 0.0924315h 0.36269v -0.635523h 0.181345v 0.635523h 0.181345v 2.40579h 0.181345v -0.428337h 0.181345v -1.02085h 0.181345v -0.293352h 0.181345v 0.492112h 0.36269v 0.100363h 0.181345v -2.24282h 0.181345v 4.51969h
 0.181345v -2.37723h 0.181345v -0.874647h 0.181345v 0.382534h 0.181345v 3.71094h 0.181345v -2.81334h 0.181345v 0.844936h 0.36269v -0.638063h 0.181345v 2.60647h 0.181345v -1.07374h 0.36269v 0.349554h 0.181345v 0.118327h 0.181345v 0.119255h 0.181345v
 -1.15244h 0.181345v 0.223606h 0.181345v 0.691253h 0.181345v -1.24422h 0.181345v 0.779912h 0.181345v -0.226944h 0.181345v -1.9031h 0.181345v 0.816569h 0.181345v 2.25672h 0.181345v -1.39379h 0.181345v -1.27669h 0.181345v 2.67048h 0.181345v -0.82849h
 0.181345v -0.114755h 0.36269v 2.47782h 0.181345v -2.59171h 0.181345v -0.336655h 0.181345v 1.39379h 0.181345v -0.478935h 0.181345v -1.88228h 0.181345v 3.76183h 0.181345v -1.03124h 0.36269v -2.73059h 0.181345v 0.74706h 0.181345v 0.331757h 0.181345v
 0.453913h 0.181345v -0.78567h 0.181345v 0.443971h 0.544034v 4.41178h 0.181345v -2.74708h 0.181345v -1.77692h 0.181345v 0.686054h 0.181345v 0.354995h 0.181345v 1.77593h 0.181345v -0.398406h 0.181345v 2.5639h 0.181345v -4.87025h 0.181345v 0.573839h
 0.181345v 0.841595h 0.181345v 0.890921h 0.181345v -3.49739h 0.181345v 3.49739h 0.181345v 2.71985h 0.181345v -4.56888h 0.181345v 0.958108h 0.181345v 2.11889h 0.36269v -3.86851h 0.181345v -1.16611h 0.181345v 2.79261h 0.181345v 0.625806h 0.181345v
 -1.10854h 0.36269v 2.86752h 0.181345v -4.44574h 0.181345v 0.881693h 0.181345v -0.774237h 0.181345v 1.47077h 0.181345v 2.44317h 0.181345v -2.91105h 0.181345v 1.07374h 0.36269v -1.07374h 0.181345v 3.62503h 0.181345v -2.55129h 0.181345v 0.249267h
 0.36269v -2.10867h 0.181345v -0.537333h 0.181345v 0.757698h 0.181345v 1.39379h 0.181345v -1.72316h 0.181345v -0.638063h 0.181345v 1.53273h 0.181345v -1.11034h 0.181345v -0.62926h 0.36269v 1.3979h 0.181345v -0.552968h 0.181345v -1.15006h 0.181345v
 -1.53135h 0.181345v 2.79041h 0.181345v -2.51478h 0.181345v 0.663249h 0.181345v -2.65878h 0.181345v -0.401209h 0.181345v -0.77199h 0.181345v 1.01144h 0.181345v 1.17019h 0.181345v -0.596349h 0.181345v -0.412083h 0.181345v -2.05065h 0.181345v 3.67978h
 0.181345v -2.65103h 0.181345v 2.03034h 0.181345v -2.10617h 0.181345v 2.36909h 0.181345v 0.724182h 0.181345v -1.15988h 0.181345v -0.91674h 0.181345v -0.399103h 0.181345v 0.726103h 0.181345v 0.937296h 0.181345v -0.5184h 0.181345v 1.80151h 0.181345v
 -2.05423h 0.181345v -0.493176h 0.181345v 2.73987h 0.181345v -4.13012h 0.181345v 2.22133h 0.181345v -1.30876h 0.181345v 2.27868h 0.181345v -3.41108h 0.181345v 1.52942h 0.181345v -2.03034h 0.181345v -0.822089h 0.181345v -0.652673h 0.181345v -2.36209h
 0.181345v -1.10726h 0.181345v -1.45381h 0.181345v -2.27105h 0.181345v -1.1864h 0.181345v -1.77042h 0.181345v -1.13617h 0.181345v -1.3382h 0.181345v -1.40863h 0.181345v -1.49757h 0.181345v -0.871646h 0.181345v -0.428337h 0.181345v -0.981304h
 0.181345v -1.39871h 0.181345v 0.218256h 0.181345v -0.0183082h 0.181345v -0.0730131h 0.181345v 0.0730131h 0.181345v 0.982524h 0.181345v -0.0389871h 0.181345v 0.799393h 0.181345v 0.692684h 0.181345v 1.65459h 0.181345v 1.29908h 0.181345v 1.91527h
 0.181345v 1.39308h 0.181345v 1.42651h 0.181345v 2.09661h 0.181345v 1.45736h 0.181345v 1.6621h 0.181345v 3.23066h 0.181345v -0.185052h 0.181345v 1.27848h 0.181345v 3.09571h 0.181345v -0.561724h 0.181345v 2.9465h 0.181345v 1.50667h 0.181345v 0.105958h
 0.36269v -0.211183h 0.181345v 2.25672h 0.181345v 1.66973h 0.181345v -2.72687h 0.181345v 3.1397h 0.181345v -2.44317h 0.181345v 2.30431h 0.181345v 0.278998h 0.181345v -2.46405h 0.181345v 0.120198h 0.181345v 2.62806h 0.181345v -2.38478h 0.181345v
 1.68397h 0.181345v -1.68397h 0.181345v 2.5289h 0.181345v -1.25043h 0.181345v 1.69118h 0.181345v -0.727648h 0.181345v 1.64944h 0.181345v -1.79088h 0.181345v -1.21704h 0.181345v 2.38723h 0.181345v -0.741852h 0.181345v -0.144124h 0.181345v 0.885975h
 0.181345v -1.02875h 0.181345v 1.18156h 0.181345v -2.79776h 0.181345v 1.47476h 0.181345v -0.954884h 0.181345v 3.06588h 0.181345v -1.82679h 0.181345v 3.90341h 0.181345v -2.39674h 0.181345v -1.21704h 0.181345v -1.26196h 0.181345v 2.63822h 0.181345v
 0.1609h 0.181345v -0.633631h 0.181345v -1.04903h 0.181345v 0.590557h 0.181345v 1.09211h 0.181345v 0.661189h 0.181345v 1.23113h 0.181345v -1.7297h 0.181345v -0.323522h 0.181345v 0.654077h 0.181345v 0.859265h 0.181345v -2.59435h 0.181345v 3.69398h
 0.181345v -4.97967h 0.181345v 2.8546h 0.181345v 1.38322h 0.181345v -2.65103h 0.181345v 1.26781h 0.181345v -0.164379h 0.181345v 1.7297h 0.181345v -2.37h 0.181345v -0.46313h 0.181345v 5.642h 0.181345v -3.34875h 0.181345v -0.521363h 0.181345v
 -0.831078h 0.181345v 1.35244h 0.181345v -2.14044h 0.181345v 2.31828h 0.181345v -1.69118h 0.181345v 2.61297h 0.181345v -2.45207h 0.36269v -0.1609h 0.181345v 1.33756h 0.181345v 1.46667h 0.181345v 0.193696h 0.181345v -3.62503h 0.36269v 0.950618h
 0.181345v 0.330555h 0.181345v -1.28117h 0.181345v 1.79088h 0.181345v -0.675886h 0.181345v 1.20328h 0.181345v -1.69118h 0.181345v -1.37626h 0.181345v 3.98923h 0.181345v -1.09963h 0.181345v 2.28503h 0.181345v -2.8064h 0.181345v -1.46471h 0.181345v
 1.29482h 0.181345v 2.5708h 0.181345v -0.394956h 0.181345v -3.77784h 0.181345v 0.620696h 0.181345v -0.921794h 0.181345v 3.5051h 0.181345v -3.3553h 0.181345v -2.87222h 0.181345v 1.03124h 0.181345v -1.27848h 0.181345v -1.29232h 0.181345v -2.95875h
 0.181345v -2.71025h 0.181345v -1.6871h 0.181345v -1.70579h 0.181345v -0.428337h 0.181345v -3.24738h 0.181345v 0.345022h 0.181345v -4.04665h 0.181345v -0.781822h 0.181345v -1.71408h 0.181345v -2.1996h 0.181345v 0.455613h 0.181345v -2.35211h 0.181345v
 -1.00605h 0.181345v -0.856208h 0.181345v -0.389337h 0.181345v -0.0426506h 0.181345v -0.564372h 0.181345v 0.102945h 0.181345v 0.959284h 0.181345v -0.218466h 0.181345v 0.373281h 0.181345v 0.963531h 0.181345v 0.603929h 0.181345v 2.08324h 0.181345v
 0.256509h 0.181345v 0.615906h 0.181345v 2.53461h 0.181345v 1.602h 0.181345v 1.87954h 0.181345v 1.54284h 0.181345v 1.44427h 0.181345v 2.97921h 0.181345v 2.57599h 0.181345v 1.73252h 0.181345v 2.5639h 0.181345v 1.98607h 0.181345v 1.22687h 0.181345v
 2.0486h 0.181345v -0.432397h 0.181345v 3.49984h 0.181345v 2.31407h 0.181345v 0.856843h 0.36269v 0.675886h 0.181345v 5.48919h 0.181345v 2.12507h 0.181345v -9.14699h 0.181345v 4.58392h 0.181345v 8.43869h 0.181345v -8.99166h 0.181345v -0.793481h
 0.36269v 2.21554h 0.181345v -1.14809h 0.181345v 1.44919h 0.181345v -1.99228h 0.181345v 1.39593h 0.181345v 2.8896h 0.181345v -0.691253h 0.181345v -0.981304h 0.181345v 4.37419h 0.36269v -4.37419h 0.181345v 2.77219h 0.181345v -3.39288h 0.181345v
 -1.17019h 0.181345v 1.17019h 0.181345v 3.39288h 0.181345v -0.741852h 0.181345v -1.71022h 0.181345v 4.48241h 0.181345v -5.11604h 0.181345v 4.6877h 0.181345v -2.34385h 0.181345v -2.03034h 0.181345v 2.03034h 0.181345v 1.92725h 0.181345v -5.74847h
 0.181345v 2.77219h 0.181345v -1.29482h 0.181345v -1.19316h 0.181345v -1.88621h 0.181345v 2.17584h 0.181345v 6.01957h 0.181345v -6.3092h 0.181345v 2.15379h 0.181345v 1.38322h 0.181345v 1.12681h 0.181345v 5.03827h 0.181345v -10.2653h 0.181345v 2.39h
 0.181345v 2.07662h 0.181345v -2.71025h 0.181345v 3.86562h 0.181345v -1.52176h 0.181345v 0.366402h 0.181345v -4.46662h 0.181345v 2.39h 0.181345v 0.661189h 0.181345v -4.87276h 0.181345v 3.57794h 0.181345v -3.82122h 0.181345v 2.06485h 0.181345v
 4.46662h 0.181345v -5.00971h 0.181345v -1.27848h 0.181345v 1.82157h 0.181345v 2.39h 0.181345v 1.35244h 0.181345v -1.02544h 0.181345v 3.72707h 0.181345v -4.99488h 0.181345v 0.307181h 0.181345v -0.90353h 0.181345v 4.76914h 0.181345v -0.779912h
 0.181345v -1.79088h 0.181345v 2.5708h 0.181345v -4.1728h 0.181345v 6.31789h 0.181345v -5.69719h 0.181345v 3.95759h 0.181345v -1.56085h 0.181345v -6.04095h 0.181345v 6.4164h 0.181345v -1.09963h 0.181345v 0.35778h 0.181345v -3.24738h 0.181345v
 -0.289627h 0.181345v 1.50667h 0.181345v 2.39674h 0.181345v -1.74962h 0.181345v -0.960631h 0.181345v 0.960631h 0.181345v -0.960631h 0.181345v -0.608279h 0.181345v 2.2448h 0.181345v -3.66685h 0.181345v 5.11604h 0.181345v -4.27886h 0.181345v 2.48798h
 0.181345v 4.26197h 0.181345v -5.55679h 0.181345v 0.960631h 0.181345v 3.31047h 0.181345v -2.63459h 0.36269v -2.2448h 0.181345v 0.921794h 0.181345v 2.03034h 0.181345v -1.38322h 0.181345v 3.31047h 0.181345v 0.4166h 0.181345v -3.39288h 0.36269v 5.18377h
 0.181345v 2.03034h 0.181345v -5.79867h 0.181345v -1.41543h 0.181345v 0.341698h 0.181345v -1.00289h 0.181345v 3.63747h 0.181345v 1.7396h 0.181345v -4.02463h 0.181345v 1.87954h 0.181345v -5.05877h 0.181345v 2.48798h 0.181345v 2.97628h 0.181345v
 -0.405489h 0.181345v -5.05877h 0.181345v 4.27886h 0.181345v -1.09963h 0.181345v 0.35778h 0.181345v 1.12681h 0.181345v 0.394956h 0.181345v 1.25043h 0.181345v -3.82122h 0.181345v 4.26197h 0.181345v -0.86909h 0.181345v -0.822089h 0.181345v -0.394956h
 0.181345v -1.83414h 0.181345v 2.2291h 0.181345v -3.5521h 0.181345v 1.67256h 0.181345v 0.724182h 0.181345v 6.92548h 0.181345v -6.92548h 0.181345v -3.01743h 0.181345v 4.99488h 0.181345v -2.70163h 0.181345v 1.87954h 0.181345v 1.25043h 0.181345v
 -2.77219h 0.181345v 3.66685h 0.181345v -0.453913h 0.181345v 0.453913h 0.36269v -0.453913h 0.181345v -3.92028h 0.181345v 2.2291h 0.181345v 3.59428h 0.181345v -3.59428h 0.181345v 4.64331h 0.181345v -4.23782h 0.181345v 6.58167h 0.181345v -2.34385h
 0.36269v -2.49822h 0.181345v 5.48919h 0.181345v -4.04h 0.181345v -0.981304h 0.181345v 2.03034h 0.181345v -3.82122h 0.181345v 4.94803h 0.181345v -2.17584h 0.181345v 1.602h 0.181345v -1.602h 0.181345v -1.9031h 0.181345v 5.29598h 0.181345v -8.14252h
 0.181345v 3.30045h 0.181345v 4.84207h 0.36269v 2.77219h 0.181345v -0.741852h 0.181345v 0.741852h 0.181345v -6.16507h 0.181345v 9.55796h 0.181345v -6.16507h 0.181345v 2.77219h 0.181345v -6.16507h 0.181345v 4.04h 0.181345v 3.72707h 0.181345v 0.86909h
 0.181345v -3.21294h 0.181345v 2.34385h 0.181345v -5.59123h 0.181345v 6.46032h 0.181345v -4.59616h 0.181345v 3.72707h 0.181345v -7.76707h 0.181345v 10.5393h 0.181345v 2.17584h 0.181345v -8.6751h 0.181345v 12.6643h 0.181345v -12.6643h 0.181345v
 4.59616h 0.181345v 0.921794h 0.181345v -7.95596h 0.181345v 7.95596h 0.181345v -7.38212h 0.181345v 1.21704h 0.181345v 4.37419h 0.181345v -3.05119h 0.181345v 3.05119h 0.181345v 8.93726h 0.181345v -11.9884h 0.181345v 3.05119h 0.181345v -2.34385h
 0.181345v 2.34385h 0.36269v 7.48808h 0.181345v -5.69719h 0.181345v -0.921794h 0.181345v -5.24328h 0.181345v 13.3115h 0.181345v -1.44919h 0.181345v -3.66685h 0.181345v 2.34385h 0.181345v 13.3115h 0.181345v -7.14638h 0.181345v -13.9321h 0.181345v
 5.42322h 0.181345v 6.71804h 0.36269v -5.59123h 0.181345v -4.07894h 0.181345v 1.9031h 0.36269v 3.39288h 0.181345v -3.39288h 0.181345v -5.82337h 0.181345v 9.21626h 0.181345v -4.37419h 0.181345v 7.14638h 0.181345v 1.602h 0.181345v -5.59123h 0.181345v
 -4.94803h 0.181345v -2.34385h 0.181345v 4.13474h 0.181345v -1.79088h 0.181345v 2.77219h 0.36269v 1.04903h 0.181345v -6.87241h 0.181345v 2.2291h 0.181345v -2.2291h 0.181345v 1.44919h 0.181345v 2.47109h 0.181345v -5.24328h 0.181345v -4.84207h
 0.181345v 3.62503h 0.181345v -3.62503h 0.181345v -1.323h 0.181345v 3.28766h 0.181345v 2.87741h 0.181345v 4.37419h 0.181345v -4.37419h 0.181345v -0.620696h 0.181345v -4.22137h 0.181345v 0.467881h 0.181345v -0.921794h 0.36269v 3.5051h 0.181345v
 3.82122h 0.181345v -6.87241h 0.181345v 6.87241h 0.181345v -3.24738h 0.181345v 3.24738h 0.181345v -0.707334h 0.181345v 3.05119h 0.181345v -2.34385h 0.36269v 0.741852h 0.181345v 0.779912h 0.181345v 4.64331h 0.181345v -1.04903h 0.181345v -5.11604h
 0.181345v 1.52176h 0.181345v 4.64331h 0.181345v -1.04903h 0.181345v -2.77219h 0.181345v 0.86909h 0.181345v -2.47109h 0.181345v 2.47109h 0.181345v -1.69118h 0.181345v -3.5521h 0.181345v 5.24328h 0.181345v 2.95213h 0.181345v -11.0728h 0.181345v
 6.42951h 0.181345v -2.90498h 0.181345v -1.86416h 0.181345v -3.62503h 0.181345v 4.84207h 0.181345v -6.58167h 0.181345v -3.63747h 0.181345v -2.66397h 0.181345v 4.01641h 0.181345v -2.8896h 0.181345v -0.573839h 0.181345v -4.58392h 0.181345v 0.856843h
 0.181345v 1.6265h 0.181345v -6.32769h 0.36269v -0.477681h 0.181345v -4.56888h 0.181345v 2.65656h 0.181345v -0.938047h 0.181345v -2.06279h 0.181345v -0.336655h 0.181345v -0.967425h 0.181345v -1.67473h 0.181345v -0.0929969h 0.181345v -0.635523h
 0.181345v 1.29877h 0.181345v -0.476683h 0.181345v -2.10057h 0.181345v -0.162621h 0.181345v 0.244589h 0.181345v -0.163496h 0.181345v 0.835647h 0.181345v -1.31584h 0.181345v 1.48863h 0.181345v -1.40964h 0.181345v 1.323h 0.181345v -1.55874h 0.181345v
 0.965718h 0.181345v -0.650578h 0.181345v -0.926476h 0.181345v -1.5645h 0.181345v 2.89432h 0.181345v -0.640303h 0.181345v -0.91257h 0.181345v -1.67563h 0.181345v 0.19963h 0.181345v -1.16026h 0.181345v -0.367879h 0.181345v 0.555212h 0.181345v
 -0.795611h 0.181345v 0.240399h 0.181345v -1.1657h 0.181345v 0.571682h 0.181345v -0.231258h 0.181345v 0.466088h 0.181345v 1.95446h 0.181345v 2.47901h 0.181345v -1.86111h 0.181345v 0.282891h 0.181345v 2.06096h 0.181345v 2.8706h 0.181345v -0.675886h
 0.181345v 0.774942h 0.181345v -0.295251h 0.181345v 4.90311h 0.181345v 2.96175h 0.181345v -0.950618h 0.181345v 1.79088h 0.181345v -0.341698h 0.181345v 2.5708h 0.181345v 1.25043h 0.181345v 3.12376h 0.181345v 2.61297h 0.181345v 4.80253h 0.181345v
 -0.844936h 0.181345v 3.70426h 0.181345v 4.20042h 0.36269v 3.92028h 0.181345v -0.86909h 0.181345v 14.3605h 0.181345v -11.5883h 0.181345v -3.59428h 0.181345v 1.69118h 0.181345v 2.95213h 0.181345v 6.71804h 0.181345v 6.16507h 0.181345v -12.8831h
 0.181345v 5.11604h 0.181345v 1.602h 0.181345v -3.05119h 0.181345v -3.66685h 0.181345v 10.5393h 0.181345v 8.50893h 0.36269v 4.37419h 0.181345v -16.7043h 0.181345v -3.05119h 0.544034v 6.87241h 0.181345v 8.50893h 0.36269v 10.5393h 0.181345v -13.9321h
 0.181345v -5.11604h 0.181345v 5.11604h 0.181345v -5.11604h 0.181345v -2.03034h 0.181345v 10.5393h 0.181345v -3.39288h 0.181345v -2.77219h 0.181345v -4.37419h 0.181345v 7.14638h 0.181345v -2.77219h 0.181345v 2.77219h 0.181345v 3.39288h 0.181345v
 10.5393h 0.181345v -6.16507h 0.181345v -10.5393h 0.181345v 2.77219h 0.181345v 24.4714h 0.181345v -24.4714h 0.181345v 3.39288h 0.544034v 4.37419h 0.181345v 6.16507h 0.181345v 10.5393h 0.181345v -21.0785h 0.181345v 4.37419h 0.181345v -10.5393h
 0.181345v 10.5393h 0.181345v -7.76707h 0.181345v -2.77219h 0.181345v 16.7043h 0.181345v -10.5393h 0.181345v 21.0785h 0.181345v -16.7043h 0.36269v -16.7043h 0.181345v 16.7043h 0.181345v 27.2436h 0.181345v -35.0107h 0.544034v 24.4714h 0.181345v
 -10.5393h 0.181345v -13.9321h 0.181345v 7.76707h 0.181345v -10.5393h 0.181345v 10.5393h 0.181345v -7.76707h 0.181345v -7.14638h 0.181345v 7.14638h 0.181345v 7.76707h 0.181345v -16.7043h 0.181345v 3.82122h 0.181345v 5.11604h 0.181345v -8.93726h
 0.181345v 6.16507h 0.36269v -6.16507h 0.181345v 12.3301h 0.181345v -17.9214h 0.181345v 3.98923h 0.181345v -1.44919h 0.36269v -6.61899h 0.181345v 4.07894h 0.36269v 9.41245h 0.181345v -16.7043h 0.181345v 4.13474h 0.181345v 2.03034h 0.181345v -2.03034h
 0.181345v -6.16507h 0.181345v 7.14638h 0.181345v -10.5393h 0.181345v 0.515471h 0.181345v -1.96466h 0.181345v 4.84207h 0.181345v 6.16507h 0.181345v -3.39288h 0.181345v -2.12507h 0.181345v -2.99097h 0.181345v -0.533561h 0.181345v 1.66037h 0.181345v
 2.54005h 0.181345v -1.323h 0.181345v -0.620696h 0.181345v 1.9437h 0.181345v 2.2291h 0.36269v 4.64331h 0.181345v -2.95213h 0.181345v 1.9031h 0.181345v -0.981304h 0.181345v 12.5696h 0.181345v -5.42322h 0.181345v -6.16507h 0.181345v 6.16507h 0.181345v
 -1.44919h 0.181345v 3.05119h 0.181345v 1.79088h 0.181345v 4.37419h 0.181345v 2.77219h 0.181345v -8.93726h 0.181345v 8.93726h 0.181345v -2.77219h 0.181345v 6.16507h 0.181345v -3.39288h 0.181345v 13.9321h 0.36269v -6.16507h 0.181345v -14.9135h
 0.181345v 4.37419h 0.181345v 6.16507h 0.181345v -12.3301h 0.181345v 8.93726h 0.181345v 13.9321h 0.181345v -13.9321h 0.181345v 13.9321h 0.181345v -13.9321h 0.181345v 7.76707h 0.181345v 6.16507h 0.181345v -10.5393h 0.181345v 4.37419h 0.181345v
 -4.37419h 0.181345v 31.6178h 0.181345v -35.0107h 0.181345v -2.77219h 0.181345v 6.16507h 0.544034v 31.6178h 0.181345v -21.0785h 0.181345v 10.5393h 0.181345v -16.7043h 0.181345v -7.76707h 0.181345v 7.76707h 0.181345v 6.16507h 0.181345v 10.5393h
 0.181345v -21.0785h 0.181345v 4.37419h 0.36269v 6.16507h 0.181345v -13.9321h 0.181345v 35.0107h 0.181345v -42.157h 0.181345v 7.14638h 0.181345v -2.77219h 0.181345v 16.7043h 0.181345v -16.7043h 0.181345v 2.77219h 0.181345v 7.76707h 0.36269v -4.37419h
 0.181345v 10.5393h 0.181345v -6.16507h 0.181345v 16.7043h 0.181345v -21.0785h 0.181345v -3.39288h 0.181345v 24.4714h 0.181345v -16.7043h 0.181345v -4.37419h 0.181345v -6.16507h 0.181345v 10.5393h 0.36269v -4.37419h 0.181345v -8.50893h 0.181345v
 8.50893h 0.36269v -3.39288h 0.181345v -5.11604h 0.181345v 5.11604h 0.181345v -5.11604h 0.181345v 2.34385h 0.181345v 16.7043h 0.181345v -10.5393h 0.181345v -19.0482h 0.181345v 15.6553h 0.36269v -8.93726h 0.181345v 1.79088h 0.181345v -4.84207h
 0.181345v 19.7555h 0.181345v -14.9135h 0.36269v 7.14638h 0.181345v -5.11604h 0.181345v 5.11604h 0.181345v -5.11604h 0.181345v 5.11604h 0.181345v -2.77219h 0.181345v -4.37419h 0.181345v 14.9135h 0.181345v -10.5393h 0.181345v -7.76707h 0.181345v
 3.39288h 0.544034v 7.14638h 0.181345v -2.77219h 0.181345v 6.16507h 0.181345v -3.39288h 0.181345v -2.77219h 0.181345v 2.77219h 0.181345v -5.11604h 0.181345v -5.42322h 0.181345v 7.76707h 0.181345v -2.34385h 0.36269v 8.50893h 0.181345v -3.39288h
 0.181345v 7.76707h 0.181345v -7.76707h 0.181345v 3.39288h 0.181345v -10.5393h 0.181345v 14.9135h 0.181345v -7.76707h 0.181345v -2.77219h 0.181345v 16.7043h 0.181345v -6.16507h 0.36269v 16.7043h 0.181345v -24.4714h 0.181345v 24.4714h 0.181345v
 -24.4714h 0.181345v 7.76707h 0.36269v 16.7043h 0.181345v -29.5875h 0.181345v 2.34385h 0.181345v 10.5393h 0.36269v -10.5393h 0.181345v 6.16507h 0.181345v -8.50893h 0.181345v 2.34385h 0.181345v -4.37419h 0.181345v 21.0785h 0.181345v -19.0482h
 0.181345v 8.50893h 0.181345v -13.9321h 0.181345v 18.3063h 0.181345v -10.5393h 0.36269v 10.5393h 0.181345v -4.37419h 0.181345v -6.16507h 0.181345v 2.77219h 0.181345v 13.9321h 0.181345v -22.8694h 0.181345v -1.602h 0.181345v 3.39288h 0.181345v 10.5393h
 0.36269v -8.50893h 0.181345v 12.8831h 0.181345v -21.0785h 0.181345v 10.5393h 0.36269v -9.21626h 0.181345v 3.05119h 0.181345v 3.82122h 0.181345v -3.82122h 0.181345v 12.3301h 0.181345v -3.39288h 0.36269v 3.39288h 0.181345v -8.50893h 0.36269v -3.82122h
 0.181345v 1.79088h 0.181345v 2.03034h 0.181345v -5.42322h 0.181345v 7.76707h 0.181345v -4.37419h 0.181345v -1.79088h 0.181345v -1.602h 0.181345v 1.602h 0.181345v 8.93726h 0.36269v -7.14638h 0.181345v -1.79088h 0.181345v 1.79088h 0.181345v 31.6178h
 0.181345v -41.1757h 0.181345v 4.71589h 0.181345v -5.69719h 0.181345v 10.5393h 0.181345v -8.50893h 0.181345v 1.12681h 0.181345v 3.98923h 0.181345v -3.98923h 0.36269v 3.98923h 0.36269v 1.602h 0.181345v -9.67017h 0.181345v 9.67017h 0.181345v -6.71804h
 0.181345v 2.34385h 0.181345v -1.21704h 0.181345v -4.07894h 0.181345v 6.61899h 0.181345v -4.71589h 0.181345v 9.55796h 0.181345v -7.38212h 0.181345v 2.54005h 0.181345v -4.71589h 0.181345v 11.5883h 0.181345v -2.03034h 0.181345v -7.38212h 0.181345v
 2.54005h 0.181345v 3.05119h 0.181345v -11.3614h 0.181345v 3.59428h 0.181345v 11.5883h 0.181345v -10.5393h 0.181345v 8.50893h 0.181345v -4.84207h 0.181345v 3.05119h 0.181345v -7.76707h 0.181345v 7.76707h 0.181345v -5.59123h 0.181345v -1.12681h
 0.181345v 2.34385h 0.181345v 13.3115h 0.36269v -7.14638h 0.181345v -6.16507h 0.181345v 1.323h 0.181345v -2.54005h 0.181345v -3.15714h 0.181345v 3.15714h 0.181345v 7.38212h 0.181345v -7.38212h 0.181345v 1.21704h 0.181345v -8.50893h 0.181345v 6.16507h
 0.181345v 1.12681h 0.181345v -2.17584h 0.181345v 1.04903h 0.181345v 1.12681h 0.36269v 7.38212h 0.181345v -8.50893h 0.181345v 12.8831h 0.181345v -10.5393h 0.181345v -4.37419h 0.181345v 2.03034h 0.181345v -5.42322h 0.181345v 4.37419h 0.181345v
 -0.981304h 0.181345v 0.981304h 0.181345v 2.17584h 0.181345v -4.07894h 0.181345v 0.921794h 0.181345v 0.981304h 0.181345v -2.77219h 0.181345v 7.48808h 0.181345v -2.54005h 0.181345v 9.41245h 0.181345v -9.41245h 0.181345v -4.07894h 0.181345v 5.29598h
 0.181345v 6.16507h 0.181345v -8.50893h 0.181345v -6.87241h 0.181345v 4.84207h 0.181345v -4.84207h 0.181345v -1.323h 0.181345v 7.14638h 0.181345v -7.14638h 0.181345v 3.5521h 0.181345v -5.89595h 0.181345v 2.99097h 0.181345v 1.38322h 0.181345v
 -2.65103h 0.181345v 3.39288h 0.181345v 0.779912h 0.181345v -2.2291h 0.181345v -1.323h 0.36269v 5.24328h 0.181345v -5.86398h 0.181345v 1.26781h 0.181345v -5.02131h 0.181345v 11.5206h 0.181345v -6.49926h 0.181345v 1.38322h 0.181345v -5.42322h
 0.181345v 6.16507h 0.181345v 3.39288h 0.181345v -2.61297h 0.181345v -6.42951h 0.181345v 2.25672h 0.36269v -0.596349h 0.36269v -3.15714h 0.181345v 7.92629h 0.181345v -0.779912h 0.181345v -5.6496h 0.181345v 4.20042h 0.181345v -1.323h 0.181345v 1.323h
 0.181345v 1.44919h 0.181345v -3.98923h 0.181345v 1.86416h 0.36269v -5.9431h 0.181345v 9.67017h 0.181345v -5.59123h 0.181345v 2.54005h 0.181345v 3.05119h 0.181345v -0.822089h 0.36269v -2.90498h 0.36269v 2.90498h 0.181345v -1.52176h 0.181345v 3.21294h
 0.181345v -1.69118h 0.181345v 11.3614h 0.181345v 1.79088h 0.181345v -14.674h 0.181345v 4.13474h 0.181345v 0.981304h 0.181345v 3.39288h 0.181345v -4.37419h 0.181345v -3.39288h 0.181345v 3.39288h 0.181345v 2.03034h 0.181345v 2.34385h 0.544034v
 -8.50893h 0.181345v 3.21294h 0.181345v 9.67017h 0.181345v -3.05119h 0.181345v -9.83193h 0.181345v 9.83193h 0.181345v -14.7397h 0.181345v 17.7909h 0.181345v -14.9135h 0.181345v 9.32222h 0.181345v 3.98923h 0.181345v -3.98923h 0.181345v -7.99921h
 0.181345v 3.05119h 0.181345v 3.82122h 0.181345v -2.95213h 0.181345v -0.86909h 0.181345v 2.77219h 0.36269v -0.981304h 0.181345v 0.981304h 0.181345v 1.04903h 0.181345v -3.82122h 0.181345v 3.82122h 0.181345v 12.8831h 0.181345v -2.34385h 0.181345v
 -11.5883h 0.181345v -1.9031h 0.181345v 5.29598h 0.36269v -2.34385h 0.181345v 5.11604h 0.181345v -8.06817h 0.181345v 2.95213h 0.181345v -3.82122h 0.181345v 6.16507h 0.181345v -3.39288h 0.181345v -1.9031h 0.181345v -1.69118h 0.181345v 5.77012h
 0.181345v -7.99921h 0.181345v 3.92028h 0.181345v 8.06817h 0.36269v 5.42322h 0.181345v -5.42322h 0.181345v -5.11604h 0.181345v 6.71804h 0.181345v -7.76707h 0.181345v 1.04903h 0.181345v 12.8831h 0.181345v -14.9135h 0.181345v 2.03034h 0.181345v
 6.71804h 0.181345v -4.37419h 0.544034v 8.19541h 0.181345v -12.5696h 0.181345v 4.37419h 0.181345v -5.29598h 0.181345v 1.9031h 0.181345v -2.77219h 0.181345v -0.822089h 0.181345v 6.98716h 0.181345v 10.5393h 0.181345v -13.9321h 0.181345v 6.16507h
 0.181345v -8.93726h 0.181345v 4.94803h 0.181345v -2.17584h 0.181345v 11.5883h 0.181345v -8.19541h 0.181345v 4.37419h 0.181345v -1.602h 0.181345v -5.11604h 0.181345v 3.66685h 0.181345v -5.69719h 0.181345v 2.03034h 0.181345v 3.66685h 0.181345v
 -7.48808h 0.181345v 3.82122h 0.181345v -6.16507h 0.181345v 12.8831h 0.181345v -12.1413h 0.181345v 0.779912h 0.181345v 0.822089h 0.181345v 0.86909h 0.181345v 6.61899h 0.181345v -1.323h 0.181345v -5.29598h 0.181345v -0.86909h 0.181345v -2.34385h
 0.181345v 6.16507h 0.181345v -4.64331h 0.36269v -1.52176h 0.181345v 1.52176h 0.181345v -0.779912h 0.181345v 0.779912h 0.181345v 2.61297h 0.181345v 0.981304h 0.181345v -1.9031h 0.181345v -2.47109h 0.181345v 1.602h 0.181345v 6.16507h 0.181345v 1.323h
 0.181345v -6.61899h 0.181345v -2.47109h 0.181345v 7.76707h 0.181345v -4.37419h 0.181345v 3.15714h 0.181345v -2.17584h 0.181345v -2.77219h 0.181345v 7.48808h 0.181345v -1.323h 0.181345v -7.76707h 0.181345v 2.47109h 0.36269v -0.86909h 0.181345v
 1.79088h 0.181345v 10.5393h 0.181345v -12.3301h 0.181345v 2.77219h 0.181345v -3.59428h 0.181345v 4.64331h 0.181345v -8.81611h 0.181345v 7.76707h 0.181345v -1.9031h 0.181345v -1.69118h 0.181345v 2.61297h 0.181345v 5.69719h 0.181345v -11.8623h
 0.181345v 2.77219h 0.181345v 10.5393h 0.181345v -8.93726h 0.181345v 6.16507h 0.181345v 4.37419h 0.181345v -9.67017h 0.181345v -7.03416h 0.181345v 6.16507h 0.181345v 0.86909h 0.181345v -4.59616h 0.544034v 2.90498h 0.181345v 2.61297h 0.181345v
 -0.921794h 0.181345v -5.24328h 0.181345v 3.5521h 0.181345v -2.2291h 0.181345v 3.05119h 0.36269v -0.822089h 0.181345v -0.779912h 0.181345v -6.66364h 0.181345v 5.92179h 0.36269v -5.42322h 0.181345v 4.71589h 0.181345v 6.87241h 0.181345v -2.03034h
 0.181345v -2.61297h 0.181345v -6.94498h 0.181345v 5.42322h 0.181345v -0.707334h 0.181345v -0.675886h 0.181345v 0.675886h 0.181345v -1.323h 0.181345v 1.323h 0.181345v 3.05119h 0.181345v -3.72707h 0.181345v 0.675886h 0.181345v -0.675886h 0.181345v
 6.49926h 0.181345v -5.11604h 0.181345v -2.03034h 0.181345v 0.647116h 0.181345v 2.90498h 0.181345v -2.2291h 0.181345v 7.99921h 0.181345v -1.12681h 0.181345v -3.82122h 0.181345v -2.34385h 0.181345v 8.50893h 0.181345v -2.34385h 0.181345v -1.04903h
 0.181345v -3.59428h 0.181345v 4.64331h 0.181345v 6.71804h 0.181345v -3.05119h 0.36269v 4.84207h 0.181345v -9.55796h 0.181345v 13.9321h 0.181345v -9.21626h 0.181345v -3.66685h 0.181345v -2.95213h 0.181345v 2.95213h 0.181345v -2.03034h 0.181345v
 7.14638h 0.181345v -3.98923h 0.181345v 7.38212h 0.181345v -8.50893h 0.181345v 5.11604h 0.181345v -6.16507h 0.181345v 2.17584h 0.181345v -3.15714h 0.181345v 2.03034h 0.181345v -1.04903h 0.181345v 4.71589h 0.181345v -4.71589h 0.181345v 1.04903h
 0.181345v -1.04903h 0.181345v -2.77219h 0.181345v 1.79088h 0.181345v 2.03034h 0.181345v -5.42322h 0.181345v 3.39288h 0.181345v -1.79088h 0.181345v 1.79088h 0.181345v 0.981304h 0.181345v -0.981304h 0.181345v -0.921794h 0.36269v 4.07894h 0.181345v
 -5.77012h 0.181345v 0.822089h 0.181345v 0.86909h 0.181345v 6.61899h 0.181345v -2.54005h 0.181345v -4.07894h 0.181345v 4.07894h 0.181345v -2.17584h 0.181345v 4.71589h 0.181345v -9.09008h 0.181345v 7.76707h 0.181345v -8.50893h 0.181345v 11.2811h
 0.181345v -5.11604h 0.181345v 8.50893h 0.181345v -12.3301h 0.181345v -2.34385h 0.181345v 5.11604h 0.181345v -3.59428h 0.181345v 6.98716h 0.181345v 2.77219h 0.181345v 1.602h 0.181345v -8.74838h 0.181345v 3.15714h 0.36269v -3.15714h 0.181345v 14.9135h
 0.181345v -11.7563h 0.181345v 3.98923h 0.181345v 10.5393h 0.181345v -8.93726h 0.181345v 1.79088h 0.36269v -7.38212h 0.181345v 14.5285h 0.181345v -2.77219h 0.181345v -12.8831h 0.181345v 12.8831h 0.181345v -6.16507h 0.36269v 22.8694h 0.181345v
 -24.4714h 0.181345v 5.42322h 0.181345v -12.5696h 0.181345v 14.9135h 0.181345v -4.37419h 0.36269v -7.38212h 0.181345v 5.59123h 0.181345v 6.16507h 0.181345v -2.34385h 0.181345v 2.34385h 0.181345v 6.16507h 0.181345v -8.50893h 0.181345v -2.03034h
 0.181345v 7.14638h 0.181345v -11.9884h 0.181345v 3.05119h 0.181345v -1.602h 0.181345v 18.3063h 0.181345v -14.9135h 0.181345v 2.03034h 0.181345v -3.82122h 0.181345v 8.93726h 0.181345v -2.77219h 0.181345v -2.34385h 0.181345v 5.11604h 0.36269v
 -8.93726h 0.181345v -4.37419h 0.181345v 1.323h 0.181345v 1.44919h 0.181345v 5.42322h 0.181345v -3.82122h 0.36269v 3.82122h 0.181345v -5.42322h 0.36269v 10.5393h 0.181345v -10.5393h 0.181345v 10.5393h 0.181345v -11.9884h 0.181345v 6.87241h 0.181345v
 -8.19541h 0.181345v 1.323h 0.181345v 1.44919h 0.181345v -1.44919h 0.181345v 1.44919h 0.36269v 1.602h 0.36269v 12.3301h 0.181345v -8.50893h 0.181345v -2.03034h 0.181345v -8.50893h 0.181345v 8.50893h 0.181345v -3.39288h 0.181345v 1.602h 0.36269v
 3.82122h 0.181345v 19.0482h 0.181345v -21.0785h 0.181345v 10.5393h 0.181345v -10.5393h 0.181345v -4.84207h 0.36269v -1.323h 0.181345v 8.19541h 0.181345v 19.0482h 0.181345v -16.7043h 0.181345v -9.21626h 0.181345v 6.87241h 0.181345v -6.87241h
 0.181345v 11.9884h 0.181345v -7.14638h 0.181345v 4.37419h 0.181345v -2.34385h 0.181345v -6.87241h 0.181345v -1.323h 0.181345v 1.323h 0.181345v -1.323h 0.181345v 2.77219h 0.36269v -1.44919h 0.181345v -5.69719h 0.181345v 5.69719h 0.181345v 1.44919h
 0.181345v 3.39288h 0.181345v 4.37419h 0.181345v -2.34385h 0.181345v -3.82122h 0.36269v 16.7043h 0.181345v -7.76707h 0.181345v -7.14638h 0.181345v -9.55796h 0.181345v 9.55796h 0.181345v -6.16507h 0.181345v 2.77219h 0.181345v -7.14638h 0.181345v
 10.5393h 0.181345v -3.39288h 0.36269v 1.602h 0.181345v -6.71804h 0.181345v 5.11604h 0.181345v 3.39288h 0.181345v -1.79088h 0.36269v 6.16507h 0.36269v -7.76707h 0.181345v 10.5393h 0.181345v -5.11604h 0.36269v -3.82122h 0.181345v -3.05119h 0.181345v
 11.9884h 0.181345v -13.3115h 0.181345v 1.323h 0.181345v 3.05119h 0.181345v 3.82122h 0.181345v -5.42322h 0.181345v -3.98923h 0.181345v 7.38212h 0.181345v -6.16507h 0.181345v 16.7043h 0.181345v 4.37419h 0.181345v -7.76707h 0.181345v -2.77219h
 0.181345v -9.21626h 0.36269v 3.05119h 0.181345v 3.82122h 0.36269v -3.82122h 0.181345v 6.16507h 0.181345v -13.9321h 0.181345v 1.04903h 0.544034v 2.34385h 0.181345v -9.21626h 0.181345v 7.99921h 0.181345v 3.98923h 0.181345v -6.16507h 0.181345v 2.17584h
 0.36269v 2.54005h 0.181345v -1.323h 0.36269v 1.323h 0.181345v -1.323h 0.181345v -6.98716h 0.181345v 1.69118h 0.36269v -7.03416h 0.181345v 16.7043h 0.181345v -12.8831h 0.181345v 6.16507h 0.181345v -1.04903h 0.181345v -1.9031h 0.181345v 5.29598h
 0.181345v -9.89215h 0.181345v 20.4314h 0.181345v -10.5393h 0.36269v -6.16507h 0.181345v 1.79088h 0.181345v -0.921794h 0.181345v 8.06817h 0.181345v -14.5285h 0.181345v 6.46032h 0.181345v -2.47109h 0.181345v 1.602h 0.181345v -3.05119h 0.181345v
 5.82337h 0.181345v -1.9031h 0.181345v 13.4914h 0.181345v -10.5393h 0.181345v -6.16507h 0.181345v 6.16507h 0.181345v -5.42322h 0.181345v 0.779912h 0.181345v -7.44355h 0.181345v 4.53857h 0.181345v 12.6643h 0.181345v -7.14638h 0.181345v 4.37419h
 0.181345v -6.16507h 0.181345v 1.79088h 0.181345v 5.69719h 0.181345v -5.69719h 0.181345v 2.03034h 0.181345v 3.66685h 0.181345v -3.66685h 0.181345v 10.5393h 0.181345v -15.1826h 0.181345v 2.61297h 0.181345v 12.5696h 0.181345v -6.87241h 0.181345v
 4.84207h 0.181345v -8.50893h 0.181345v 2.34385h 0.181345v 8.19541h 0.181345v 8.50893h 0.181345v -10.5393h 0.181345v -1.79088h 0.181345v 6.16507h 0.181345v -2.34385h 0.181345v -6.87241h 0.181345v 19.7555h 0.36269v 6.16507h 0.36269v -10.5393h
 0.181345v -10.5393h 0.181345v 14.9135h 0.181345v -7.76707h 0.181345v 24.4714h 0.36269v -10.5393h 0.181345v -21.0785h 0.181345v 10.5393h 0.181345v -3.39288h 0.181345v 13.9321h 0.544034v 10.5393h 0.181345v -10.5393h 0.181345v -13.9321h 0.181345v
 13.9321h 0.181345v -6.16507h 0.725379v 6.16507h 0.181345v 21.0785h 0.36269v -10.5393h 0.181345v -27.2436h 0.181345v 10.5393h 0.181345v 27.2436h 0.181345v -21.0785h 0.181345v 10.5393h 0.544034v -10.5393h 0.36269v -10.5393h 0.181345v 31.6178h
 0.181345v -21.0785h 0.181345v -6.16507h 0.36269v 16.7043h 0.36269v -10.5393h 0.181345v 10.5393h 0.36269v 10.5393h 0.181345v -10.5393h 0.181345v 10.5393h 0.181345v -21.0785h 0.181345v -10.5393h 0.181345v 21.0785h 0.36269v -10.5393h 0.181345v 10.5393h
 0.725379v 10.5393h 0.181345v -21.0785h 0.181345v -10.5393h 0.181345v 4.37419h 0.181345v -4.37419h 0.181345v 21.0785h 0.36269v 10.5393h 0.181345v -10.5393h 0.36269v 10.5393h 0.181345v -10.5393h 0.181345v 10.5393h 0.181345v -10.5393h 0.181345v
 -16.7043h 0.181345v 27.2436h 0.36269v -21.0785h 0.181345v 10.5393h 0.181345v 10.5393h 0.544034v -21.0785h 0.181345v 21.0785h 0.544034v -10.5393h 0.181345v 10.5393h 0.181345v -10.5393h 0.181345v -10.5393h 0.181345v 21.0785h 0.181345v -21.0785h
 0.181345v 21.0785h 0.36269v -10.5393h 0.181345v 10.5393h 0.181345v -10.5393h 0.181345v -10.5393h 0.181345v 21.0785h 0.36269v -10.5393h 0.181345v -16.7043h 0.181345v 16.7043h 0.181345v 10.5393h 0.36269v -21.0785h 0.181345v 21.0785h 0.181345v
 -21.0785h 0.181345v 10.5393h 0.36269v -21.0785h 0.181345v 10.5393h 0.181345v 21.0785h 0.181345v -10.5393h 0.36269v -21.0785h 0.181345v 31.6178h 0.36269v -21.0785h 0.36269v 10.5393h 0.181345v -21.0785h 0.181345v 31.6178h 0.181345v -21.0785h 0.36269v
 10.5393h 0.181345v 10.5393h 0.181345v -10.5393h 0.181345v 10.5393h 0.181345v -21.0785h 0.181345v 21.0785h 0.181345v -10.5393h 0.36269v -16.7043h 0.181345v 16.7043h 0.181345v -10.5393h 0.181345v -10.5393h 0.181345v 21.0785h 0.181345v 10.5393h
 0.181345v -10.5393h 0.181345v 10.5393h 0.181345v -10.5393h 0.36269v 10.5393h 0.181345v -21.0785h 0.181345v 21.0785h 0.181345v -10.5393h 0.181345v 10.5393h 0.181345v -21.0785h 0.181345v -10.5393h 0.181345v 31.6178h 0.544034v -10.5393h 0.181345v
 -10.5393h 0.181345v 21.0785h 0.36269v -10.5393h 0.36269v 10.5393h 0.181345v -10.5393h 0.181345v 10.5393h 0.181345v -27.2436h 0.181345v 27.2436h 0.181345v -10.5393h 0.181345v -10.5393h 0.181345v 21.0785h 0.181345v -10.5393h 0.725379v -10.5393h
 0.181345v 21.0785h 0.181345v -10.5393h 0.181345v -16.7043h 0.181345v 27.2436h 0.181345v -10.5393h 0.181345v -10.5393h 0.181345v 21.0785h 0.181345v -21.0785h 0.36269v 10.5393h 0.36269v -10.5393h 0.181345v 10.5393h 0.36269v 10.5393h 0.181345v
 -10.5393h 0.181345v -10.5393h 0.36269v 21.0785h 0.36269v -10.5393h 0.181345v 10.5393h 0.181345v -10.5393h 0.181345v -10.5393h 0.181345v 21.0785h 0.725379v -21.0785h 0.181345v 21.0785h 0.181345v -10.5393h 0.544034v -16.7043h 0.181345v 27.2436h
 0.544034v -21.0785h 0.181345v 21.0785h 0.544034v -10.5393h 0.36269v 10.5393h 0.181345v -21.0785h 0.181345v 21.0785h 0.181345v -10.5393h 0.36269v 10.5393h 0.181345v -21.0785h 0.36269v 21.0785h 0.36269v -10.5393h 0.36269v -10.5393h 0.181345v 10.5393h
 0.544034v 10.5393h 0.36269v -10.5393h 0.36269v 10.5393h 0.181345v -10.5393h 0.181345v 10.5393h 0.181345v -10.5393h 0.181345v 10.5393h 0.544034v -27.2436h 0.181345v 6.16507h 0.181345v 10.5393h 0.181345v 10.5393h 0.36269v -10.5393h 0.36269v 10.5393h
 0.906724v -10.5393h 0.36269v -10.5393h 0.181345v 10.5393h 0.36269v -16.7043h 0.181345v 27.2436h 0.36269v -10.5393h 0.36269v 10.5393h 0.36269v -10.5393h 0.181345v 10.5393h 0.181345v -21.0785h 0.181345v 21.0785h 0.36269v -21.0785h 0.181345v 10.5393h
 0.181345v 10.5393h 0.181345v -21.0785h 0.181345v 10.5393h 0.181345v -10.5393h 0.36269v 21.0785h 0.36269v -10.5393h 0.181345v 10.5393h 0.181345v -21.0785h 0.181345v 10.5393h 0.181345v 10.5393h 0.181345v -10.5393h 0.36269v 10.5393h 0.181345v -10.5393h
 0.181345v 10.5393h 0.181345v -10.5393h 0.181345v 10.5393h 0.181345v -27.2436h 0.181345v 16.7043h 0.36269v 10.5393h 0.181345v -21.0785h 0.181345v 21.0785h 0.725379v -10.5393h 0.181345v 10.5393h 0.36269v -27.2436h 0.181345v 16.7043h 0.181345v 10.5393h
 0.181345v -21.0785h 0.181345v 10.5393h 0.36269v 10.5393h 0.181345v -10.5393h 0.544034" fill="none" stroke="black"/>
<path d="M57.1929,280.151h 453.543" fill="none" stroke="black"/>
<path d="M57.1929,272.68v 7.47068" fill="none" stroke="black"/>
<path d="M75.3318,276.415v 3.73534" fill="none" stroke="black"/>
<path d="M93.4707,276.415v 3.73534" fill="none" stroke="black"/>
<path d="M111.61,276.415v 3.73534" fill="none" stroke="black"/>
<path d="M129.749,276.415v 3.73534" fill="none" stroke="black"/>
<path d="M147.887,272.68v 7.47068" fill="none" stroke="black"/>
<path d="M166.026,276.415v 3.73534" fill="none" stroke="black"/>
<path d="M184.165,276.415v 3.73534" fill="none" stroke="black"/>
<path d="M202.304,276.415v 3.73534" fill="none" stroke="black"/>
<path d="M220.443,276.415v 3.73534" fill="none" stroke="black"/>
<path d="M238.582,272.68v 7.47068" fill="none" stroke="black"/>
<path d="M256.721,276.415v 3.73534" fill="none" stroke="black"/>
<path d="M274.86,276.415v 3.73534" fill="none" stroke="black"/>
<path d="M292.999,276.415v 3.73534" fill="none" stroke="black"/>
<path d="M311.138,276.415v 3.73534" fill="none" stroke="black"/>
<path d="M329.277,272.68v 7.47068" fill="none" stroke="black"/>
<path d="M347.415,276.415v 3.73534" fill="none" stroke="black"/>
<path d="M365.554,276.415v 3.73534" fill="none" stroke="black"/>
<path d="M383.693,276.415v 3.73534" fill="none" stroke="black"/>
<path d="M401.832,276.415v 3.73534" fill="none" stroke="black"/>
<path d="M419.971,272.68v 7.47068" fill="none" stroke="black"/>
<path d="M438.11,276.415v 3.73534" fill="none" stroke="black"/>
<path d="M456.249,276.415v 3.73534" fill="none" stroke="black"/>
<path d="M474.388,276.415v 3.73534" fill="none" stroke="black"/>
<path d="M492.527,276.415v 3.73534" fill="none" stroke="black"/>
<path d="M510.666,272.68v 7.47068" fill="none" stroke="black"/>
<path d="M510.666,272.68v 7.47068" fill="none" stroke="black"/>
<text xml:space="preserve" x="54.3523" y="290.27" fill="black" font-size="10.4952" font-family="Helvetica">0</text>
<text xml:space="preserve" x="139.569" y="290.27" fill="black" font-size="10.4952" font-family="Helvetica">500</text>
<text xml:space="preserve" x="227.449" y="290.27" fill="black" font-size="10.4952" font-family="Helvetica">1000</text>
<text xml:space="preserve" x="318.288" y="290.27" fill="black" font-size="10.4952" font-family="Helvetica">1500</text>
<text xml:space="preserve" x="408.831" y="290.27" fill="black" font-size="10.4952" font-family="Helvetica">2000</text>
<text xml:space="preserve" x="499.67" y="290.27" fill="black" font-size="10.4952" font-family="Helvetica">2500</text>
<text xml:space="preserve" x="265.323" y="301.218" fill="black" font-size="10.4952" font-family="Helvetica">Channel</text>
<path d="M57.1929,280.151v -249.023" fill="none" stroke="black"/>
<path d="M63.9961,280.151h -6.80315" fill="none" stroke="black"/>
<path d="M63.9961,277.378h -6.80315" fill="none" stroke="black"/>
<path d="M63.9961,275.034h -6.80315" fill="none" stroke="black"/>
<path d="M63.9961,273.004h -6.80315" fill="none" stroke="black"/>
<path d="M63.9961,271.213h -6.80315" fill="none" stroke="black"/>
<path d="M70.7992,269.611h -13.6063" fill="none" stroke="black"/>
<text xml:space="preserve" x="49.0263" y="273.404" fill="black" font-size="10.4952" font-family="Helvetica">1</text>
<path d="M63.9961,259.072h -6.80315" fill="none" stroke="black"/>
<path d="M63.9961,252.907h -6.80315" fill="none" stroke="black"/>
<path d="M63.9961,248.533h -6.80315" fill="none" stroke="black"/>
<path d="M63.9961,245.14h -6.80315" fill="none" stroke="black"/>
<path d="M63.9961,242.368h -6.80315" fill="none" stroke="black"/>
<path d="M63.9961,240.024h -6.80315" fill="none" stroke="black"/>
<path d="M63.9961,237.993h -6.80315" fill="none" stroke="black"/>
<path d="M63.9961,236.203h -6.80315" fill="none" stroke="black"/>
<path d="M70.7992,234.601h -13.6063" fill="none" stroke="black"/>
<text xml:space="preserve" x="41.629" y="238.193" fill="black" font-size="10.4952" font-family="Helvetica">10</text>
<path d="M63.9961,224.061h -6.80315" fill="none" stroke="black"/>
<path d="M63.9961,217.896h -6.80315" fill="none" stroke="black"/>
<path d="M63.9961,213.522h -6.80315" fill="none" stroke="black"/>
<path d="M63.9961,210.129h -6.80315" fill="none" stroke="black"/>
<path d="M63.9961,207.357h -6.80315" fill="none" stroke="black"/>
<path d="M63.9961,205.013h -6.80315" fill="none" stroke="black"/>
<path d="M63.9961,202.983h -6.80315" fill="none" stroke="black"/>
<path d="M63.9961,201.192h -6.80315" fill="none" stroke="black"/>
<path d="M70.7992,199.59h -13.6063" fill="none" stroke="black"/>
<text xml:space="preserve" x="49.0263" y="199.727" fill="black" font-size="7.16345" font-family="Helvetica">2</text>
<text xml:space="preserve" x="38.0783" y="204.165" fill="black" font-size="10.4952" font-family="Helvetica">10</text>
<path d="M63.9961,189.051h -6.80315" fill="none" stroke="black"/>
<path d="M63.9961,182.886h -6.80315" fill="none" stroke="black"/>
<path d="M63.9961,178.511h -6.80315" fill="none" stroke="black"/>
<path d="M63.9961,175.119h -6.80315" fill="none" stroke="black"/>
<path d="M63.9961,172.346h -6.80315" fill="none" stroke="black"/>
<path d="M63.9961,170.003h -6.80315" fill="none" stroke="black"/>
<path d="M63.9961,167.972h -6.80315" fill="none" stroke="black"/>
<path d="M63.9961,166.181h -6.80315" fill="none" stroke="black"/>
<path d="M70.7992,164.579h -13.6063" fill="none" stroke="black"/>
<text xml:space="preserve" x="49.0263" y="164.516" fill="black" font-size="7.16345" font-family="Helvetica">3</text>
<text xml:space="preserve" x="38.0783" y="169.25" fill="black" font-size="10.4952" font-family="Helvetica">10</text>
<path d="M63.9961,154.04h -6.80315" fill="none" stroke="black"/>
<path d="M63.9961,147.875h -6.80315" fill="none" stroke="black"/>
<path d="M63.9961,143.501h -6.80315" fill="none" stroke="black"/>
<path d="M63.9961,140.108h -6.80315" fill="none" stroke="black"/>
<path d="M63.9961,137.336h -6.80315" fill="none" stroke="black"/>
<path d="M63.9961,134.992h -6.80315" fill="none" stroke="black"/>
<path d="M63.9961,132.962h -6.80315" fill="none" stroke="black"/>
<path d="M63.9961,131.171h -6.80315" fill="none" stroke="black"/>
<path d="M70.7992,129.569h -13.6063" fill="none" stroke="black"/>
<text xml:space="preserve" x="49.0263" y="129.601" fill="black" font-size="7.16345" font-family="Helvetica">4</text>
<text xml:space="preserve" x="38.0783" y="134.039" fill="black" font-size="10.4952" font-family="Helvetica">10</text>
<path d="M63.9961,119.029h -6.80315" fill="none" stroke="black"/>
<path d="M63.9961,112.864h -6.80315" fill="none" stroke="black"/>
<path d="M63.9961,108.49h -6.80315" fill="none" stroke="black"/>
<path d="M63.9961,105.097h -6.80315" fill="none" stroke="black"/>
<path d="M63.9961,102.325h -6.80315" fill="none" stroke="black"/>
<path d="M63.9961,99.9812h -6.80315" fill="none" stroke="black"/>
<path d="M63.9961,97.9508h -6.80315" fill="none" stroke="black"/>
<path d="M63.9961,96.1599h -6.80315" fill="none" stroke="black"/>
<path d="M70.7992,94.5579h -13.6063" fill="none" stroke="black"/>
<text xml:space="preserve" x="49.0263" y="94.3896" fill="black" font-size="7.16345" font-family="Helvetica">5</text>
<text xml:space="preserve" x="38.0783" y="99.1238" fill="black" font-size="10.4952" font-family="Helvetica">10</text>
<path d="M63.9961,84.0187h -6.80315" fill="none" stroke="black"/>
<path d="M63.9961,77.8536h -6.80315" fill="none" stroke="black"/>
<path d="M63.9961,73.4794h -6.80315" fill="none" stroke="black"/>
<path d="M63.9961,70.0865h -6.80315" fill="none" stroke="black"/>
<path d="M63.9961,67.3144h -6.80315" fill="none" stroke="black"/>
<path d="M63.9961,64.9705h -6.80315" fill="none" stroke="black"/>
<path d="M63.9961,62.9402h -6.80315" fill="none" stroke="black"/>
<path d="M63.9961,61.1493h -6.80315" fill="none" stroke="black"/>
<path d="M70.7992,59.5473h -13.6063" fill="none" stroke="black"/>
<text xml:space="preserve" x="49.0263" y="59.4743" fill="black" font-size="7.16345" font-family="Helvetica">6</text>
<text xml:space="preserve" x="38.0783" y="64.2086" fill="black" font-size="10.4952" font-family="Helvetica">10</text>
<path d="M63.9961,49.008h -6.80315" fill="none" stroke="black"/>
<path d="M63.9961,42.8429h -6.80315" fill="none" stroke="black"/>
<path d="M63.9961,38.4688h -6.80315" fill="none" stroke="black"/>
<path d="M63.9961,35.0759h -6.80315" fill="none" stroke="black"/>
<path d="M63.9961,32.3037h -6.80315" fill="none" stroke="black"/>
<g transform="rotate(-90,26.5385,191.442)">
<text xml:space="preserve" x="26.5385" y="191.442" fill="black" font-size="10.4952" font-family="Helvetica">Counts/Channel</text>
</g>
<text xml:space="preserve" x="404.097" y="59.4743" fill="black" font-size="14.7788" font-family="Helvetica" font-weight="bold"> = 2.4879 MeV</text>
<text xml:space="preserve" x="398.179" y="62.7291" fill="black" font-size="10.0192" font-family="Helvetica" font-weight="bold">p</text>
<text xml:space="preserve" x="389.006" y="59.4743" fill="black" font-size="14.7788" font-family="Helvetica" font-weight="bold">E</text>
<path d="M262.163,163.13v 26.3263" fill="none" stroke="black"/>
<path d="M264.454,189.456l -2.29122, 3.9685l -2.29122, -3.9685z" fill="black"/>
<path d="M264.454,189.456l -2.29122, 3.9685l -2.29122, -3.9685h 4.58243z" fill="none" stroke="black"/>
<text xml:space="preserve" x="266.803" y="160.965" fill="black" font-size="10.4952" font-family="Helvetica" font-weight="bold">_1 	1.369 MeV</text>
<text xml:space="preserve" x="260.293" y="160.965" fill="black" font-size="10.4952" font-family="Times">&#0945;</text>
<path d="M184.528,129.569v 31.0422" fill="none" stroke="black"/>
<path d="M186.819,160.611l -2.29122, 3.9685l -2.29122, -3.9685z" fill="black"/>
<path d="M186.819,160.611l -2.29122, 3.9685l -2.29122, -3.9685h 4.58243z" fill="none" stroke="black"/>
<text xml:space="preserve" x="172.117" y="126.642" fill="black" font-size="10.4952" font-family="Helvetica" font-weight="bold"># p_1 	0.844 MeV</text>
<path d="M210.104,147.875v 12.7358" fill="none" stroke="black"/>
<path d="M212.395,160.611l -2.29122, 3.9685l -2.29122, -3.9685z" fill="black"/>
<path d="M212.395,160.611l -2.29122, 3.9685l -2.29122, -3.9685h 4.58243z" fill="none" stroke="black"/>
<text xml:space="preserve" x="197.564" y="143.212" fill="black" font-size="10.4952" font-family="Helvetica" font-weight="bold"># p_2 	1.015 MeV</text>
<path d="M497.536,269.611h 13.1291" fill="none" stroke="black"/>
<path d="M504.101,259.072h 6.56456" fill="none" stroke="black"/>
<path d="M504.101,252.907h 6.56456" fill="none" stroke="black"/>
<path d="M504.101,248.533h 6.56456" fill="none" stroke="black"/>
<path d="M504.101,245.14h 6.56456" fill="none" stroke="black"/>
<path d="M504.101,242.368h 6.56456" fill="none" stroke="black"/>
<path d="M504.101,240.024h 6.56456" fill="none" stroke="black"/>
<path d="M504.101,237.993h 6.56456" fill="none" stroke="black"/>
<path d="M504.101,236.203h 6.56456" fill="none" stroke="black"/>
<path d="M497.536,234.601h 13.1291" fill="none" stroke="black"/>
<path d="M504.101,224.061h 6.56456" fill="none" stroke="black"/>
<path d="M504.101,217.896h 6.56456" fill="none" stroke="black"/>
<path d="M504.101,213.522h 6.56456" fill="none" stroke="black"/>
<path d="M504.101,210.129h 6.56456" fill="none" stroke="black"/>
<path d="M504.101,207.357h 6.56456" fill="none" stroke="black"/>
<path d="M504.101,205.013h 6.56456" fill="none" stroke="black"/>
<path d="M504.101,202.983h 6.56456" fill="none" stroke="black"/>
<path d="M504.101,201.192h 6.56456" fill="none" stroke="black"/>
<path d="M497.536,199.59h 13.1291" fill="none" stroke="black"/>
<path d="M504.101,189.051h 6.56456" fill="none" stroke="black"/>
<path d="M504.101,182.886h 6.56456" fill="none" stroke="black"/>
<path d="M504.101,178.511h 6.56456" fill="none" stroke="black"/>
<path d="M504.101,175.119h 6.56456" fill="none" stroke="black"/>
<path d="M504.101,172.346h 6.56456" fill="none" stroke="black"/>
<path d="M504.101,170.003h 6.56456" fill="none" stroke="black"/>
<path d="M504.101,167.972h 6.56456" fill="none" stroke="black"/>
<path d="M504.101,166.181h 6.56456" fill="none" stroke="black"/>
<path d="M497.536,164.579h 13.1291" fill="none" stroke="black"/>
<path d="M504.101,154.04h 6.56456" fill="none" stroke="black"/>
<path d="M504.101,147.875h 6.56456" fill="none" stroke="black"/>
<path d="M504.101,143.501h 6.56456" fill="none" stroke="black"/>
<path d="M504.101,140.108h 6.56456" fill="none" stroke="black"/>
<path d="M504.101,137.336h 6.56456" fill="none" stroke="black"/>
<path d="M504.101,134.992h 6.56456" fill="none" stroke="black"/>
<path d="M504.101,132.961h 6.56456" fill="none" stroke="black"/>
<path d="M504.101,131.171h 6.56456" fill="none" stroke="black"/>
<path d="M497.536,129.569h 13.1291" fill="none" stroke="black"/>
<path d="M504.101,119.029h 6.56456" fill="none" stroke="black"/>
<path d="M504.101,112.864h 6.56456" fill="none" stroke="black"/>
<path d="M504.101,108.49h 6.56456" fill="none" stroke="black"/>
<path d="M504.101,105.097h 6.56456" fill="none" stroke="black"/>
<path d="M504.101,102.325h 6.56456" fill="none" stroke="black"/>
<path d="M504.101,99.9812h 6.56456" fill="none" stroke="black"/>
<path d="M504.101,97.9508h 6.56456" fill="none" stroke="black"/>
<path d="M504.101,96.1599h 6.56456" fill="none" stroke="black"/>
<path d="M497.536,94.5579h 13.1291" fill="none" stroke="black"/>
<path d="M504.101,84.0187h 6.56456" fill="none" stroke="black"/>
<path d="M504.101,77.8536h 6.56456" fill="none" stroke="black"/>
<path d="M504.101,73.4794h 6.56456" fill="none" stroke="black"/>
<path d="M504.101,70.0865h 6.56456" fill="none" stroke="black"/>
<path d="M504.101,67.3144h 6.56456" fill="none" stroke="black"/>
<path d="M504.101,64.9705h 6.56456" fill="none" stroke="black"/>
<path d="M504.101,62.9402h 6.56456" fill="none" stroke="black"/>
<path d="M504.101,61.1493h 6.56456" fill="none" stroke="black"/>
<path d="M497.536,59.5473h 13.1291" fill="none" stroke="black"/>
<path d="M504.101,49.008h 6.56456" fill="none" stroke="black"/>
<path d="M504.101,42.8429h 6.56456" fill="none" stroke="black"/>
<path d="M504.101,38.4688h 6.56456" fill="none" stroke="black"/>
<path d="M504.101,35.0759h 6.56456" fill="none" stroke="black"/>
<path d="M504.101,32.3037h 6.56456" fill="none" stroke="black"/>
<path d="M504.101,29.9598h 6.56456" fill="none" stroke="black"/>
<path d="M57.1929,36.7913v -7.46952" fill="none" stroke="black"/>
<path d="M75.3318,36.7913v -7.46952" fill="none" stroke="black"/>
<path d="M93.4707,36.7913v -7.46952" fill="none" stroke="black"/>
<path d="M111.61,36.7913v -7.46952" fill="none" stroke="black"/>
<path d="M129.749,36.7913v -7.46952" fill="none" stroke="black"/>
<path d="M147.887,36.7913v -7.46952" fill="none" stroke="black"/>
<path d="M166.026,36.7913v -7.46952" fill="none" stroke="black"/>
<path d="M184.165,36.7913v -7.46952" fill="none" stroke="black"/>
<path d="M202.304,36.7913v -7.46952" fill="none" stroke="black"/>
<path d="M220.443,36.7913v -7.46952" fill="none" stroke="black"/>
<path d="M238.582,36.7913v -7.46952" fill="none" stroke="black"/>
<path d="M256.721,36.7913v -7.46952" fill="none" stroke="black"/>
<path d="M274.86,36.7913v -7.46952" fill="none" stroke="black"/>
<path d="M292.999,36.7913v -7.46952" fill="none" stroke="black"/>
<path d="M311.138,36.7913v -7.46952" fill="none" stroke="black"/>
<path d="M329.277,36.7913v -7.46952" fill="none" stroke="black"/>
<path d="M347.415,36.7913v -7.46952" fill="none" stroke="black"/>
<path d="M365.554,36.7913v -7.46952" fill="none" stroke="black"/>
<path d="M383.693,36.7913v -7.46952" fill="none" stroke="black"/>
<path d="M401.832,36.7913v -7.46952" fill="none" stroke="black"/>
<path d="M419.971,36.7913v -7.46952" fill="none" stroke="black"/>
<path d="M438.11,36.7913v -7.46952" fill="none" stroke="black"/>
<path d="M456.249,36.7913v -7.46952" fill="none" stroke="black"/>
<path d="M474.388,36.7913v -7.46952" fill="none" stroke="black"/>
<path d="M492.527,36.7913v -7.46952" fill="none" stroke="black"/>
<path d="M510.666,36.7913v -7.46952" fill="none" stroke="black"/></svg>
