<?xml version="1.0" standalone="no"?>
<svg width="567.429" height="311.778" viewBox="0 0 567.429 311.778" xmlns="http://www.w3.org/2000/svg" shape-rendering="crispEdges">
<title>
Yields/P1/run_0100/det8_Fit.svg
</title>
<desc>
Creator: ROOT Version 6.12/06
CreationDate: Mon Apr 15 10:29:01 2019</desc>
<defs>
</defs>
<rect x="0.5" y="0" width="566.929" height="311.278" fill="white"/>
<rect x="57.1929" y="31.1278" width="453.543" height="249.023" fill="white"/>
<rect x="57.1929" y="31.1278" width="453.543" height="249.023" fill="none" stroke="black"/>
<path d="M57.1929,40.8444h 0.181345v 239.306h 27.5644v -10.5386h 0.181345v 10.5386h 0.544034v -10.5386h 0.36269v 10.5386h 0.725379v -10.5386h 0.36269v 10.5386h 1.08807v -10.5386h 0.181345v 10.5386h 0.181345v -10.5386h 0.181345v -24.4698h 0.181345v
 -18.6062h 0.181345v -16.7032h 0.181345v -9.61683h 0.181345v -12.539h 0.181345v -5.28337h 0.181345v -4.58092h 0.181345v -1.90724h 0.181345v -3.1929h 0.181345v -0.434793h 0.181345v -1.78236h 0.181345v -0.722569h 0.181345v -0.730597h 0.181345v
 -0.382382h 0.181345v -0.411737h 0.181345v -0.438513h 0.181345v -0.715827h 0.181345v -0.58044h 0.181345v 0.455451h 0.181345v -1.37617h 0.181345v 1.02462h 0.181345v -0.462057h 0.181345v -0.963319h 0.181345v 0.417011h 0.181345v -1.26317h 0.181345v
 0.704437h 0.181345v -0.53893h 0.181345v 0.367484h 0.181345v 0.234272h 0.181345v -0.510714h 0.181345v -0.420273h 0.181345v 0.208685h 0.181345v 0.257315h 0.181345v -0.362015h 0.181345v -0.584838h 0.181345v 1.05409h 0.181345v -0.304393h 0.181345v
 -0.268839h 0.181345v 0.133825h 0.181345v -0.485038h 0.181345v -0.0577548h 0.181345v 0.0432955h 0.181345v -0.69217h 0.181345v 1.20661h 0.181345v -0.383809h 0.181345v -0.711924h 0.181345v 1.29133h 0.181345v -0.564825h 0.181345v 1.38938h 0.181345v
 -0.159038h 0.181345v -0.251051h 0.181345v 0.0467574h 0.181345v 0.251831h 0.181345v 0.549405h 0.181345v -0.501718h 0.181345v 0.66716h 0.181345v 0.150452h 0.181345v -0.912835h 0.181345v 0.207076h 0.181345v 0.571951h 0.181345v -0.443103h 0.181345v
 -0.72639h 0.181345v -1.55247h 0.181345v -1.79695h 0.181345v -2.66025h 0.181345v -2.21856h 0.181345v -4.51683h 0.181345v -2.69401h 0.181345v -3.10623h 0.181345v -3.46987h 0.181345v -2.12099h 0.181345v -2.26015h 0.181345v -1.57307h 0.181345v -1.20527h
 0.181345v 0.004527h 0.181345v 0.161588h 0.181345v 0.50952h 0.181345v 1.79875h 0.181345v 1.93123h 0.181345v 3.36019h 0.181345v 2.80447h 0.181345v 4.23543h 0.181345v 3.36721h 0.181345v 4.14381h 0.181345v 3.57048h 0.181345v 4.9477h 0.181345v 3.26847h
 0.181345v 0.388758h 0.181345v 3.55762h 0.181345v 1.54059h 0.181345v 0.0306222h 0.181345v 0.403805h 0.181345v -0.464988h 0.181345v 1.57478h 0.181345v 0.516604h 0.181345v -0.139487h 0.181345v -1.23298h 0.181345v 2.72726h 0.181345v -1.3548h 0.181345v
 -0.44873h 0.181345v 1.99623h 0.181345v -0.866877h 0.181345v -0.182085h 0.181345v 0.255534h 0.181345v 0.147971h 0.181345v 0.958951h 0.181345v -1.25347h 0.181345v 1.29311h 0.181345v -0.622242h 0.181345v -0.113888h 0.181345v 0.617503h 0.181345v
 0.238186h 0.36269v -1.48542h 0.181345v -0.3586h 0.181345v 0.912875h 0.181345v -0.112483h 0.181345v 0.609763h 0.181345v -0.231536h 0.181345v 0.705463h 0.181345v -0.356823h 0.181345v 0.0785734h 0.181345v 2.064h 0.181345v -0.961488h 0.181345v
 -0.376458h 0.181345v 0.805975h 0.181345v 0.486921h 0.181345v -0.267525h 0.181345v 0.817124h 0.181345v -0.504551h 0.181345v 0.834571h 0.181345v -0.744071h 0.181345v 0.935922h 0.181345v 0.490492h 0.181345v -1.51691h 0.181345v 0.273132h 0.181345v
 1.39407h 0.181345v 0.511965h 0.181345v -1.00725h 0.181345v 1.21696h 0.181345v -0.46785h 0.181345v -0.503487h 0.181345v 0.24966h 0.181345v 0.408184h 0.181345v 0.472699h 0.181345v -0.779859h 0.181345v -0.25131h 0.181345v 0.150287h 0.181345v 0.202722h
 0.181345v 1.00166h 0.181345v -1.10336h 0.181345v 0.101699h 0.181345v 1.50019h 0.181345v -0.0562068h 0.181345v 0.283135h 0.181345v 1.31253h 0.181345v -1.87362h 0.181345v 0.334166h 0.181345v 2.11086h 0.181345v -3.19732h 0.181345v -0.566032h 0.181345v
 1.54028h 0.181345v 0.803413h 0.181345v -0.634791h 0.181345v 0.634791h 0.181345v -0.464278h 0.181345v -0.170513h 0.181345v -0.112622h 0.181345v -0.111794h 0.181345v 0.683437h 0.181345v 0.116954h 0.181345v 0.907064h 0.181345v -0.729928h 0.181345v
 -0.75311h 0.181345v 2.31546h 0.181345v -1.32291h 0.181345v -1.60189h 0.181345v 0.496724h 0.181345v 0.455582h 0.181345v 0.174426h 0.181345v -0.174426h 0.181345v -2.10229h 0.181345v -1.39407h 0.181345v 0.75329h 0.181345v -0.38131h 0.181345v -0.325977h
 0.181345v -0.498534h 0.181345v -0.782089h 0.181345v -1.68215h 0.181345v -0.113322h 0.181345v 1.25464h 0.181345v -1.14132h 0.181345v 0.540298h 0.181345v -0.272549h 0.181345v 1.07931h 0.181345v -0.60905h 0.181345v 2.08717h 0.181345v -0.271506h
 0.181345v 1.65681h 0.181345v 2.0302h 0.181345v -1.26087h 0.181345v 0.810348h 0.181345v 0.336632h 0.181345v -0.0566255h 0.181345v 1.053h 0.36269v 2.07353h 0.181345v -0.545491h 0.181345v 0.407272h 0.181345v -2.05598h 0.181345v 2.12493h 0.181345v
 0.420412h 0.181345v 0.0712129h 0.181345v 0.582039h 0.181345v 0.605211h 0.36269v -2.08797h 0.181345v -0.266742h 0.181345v -0.0659607h 0.181345v -0.389866h 0.181345v 1.91153h 0.181345v -1.52166h 0.181345v -0.956537h 0.181345v 1.35666h 0.181345v
 0.691206h 0.181345v -0.349531h 0.181345v -0.937984h 0.181345v -0.944647h 0.181345v 4.43508h 0.181345v -1.10336h 0.181345v -1.17011h 0.181345v 0.428308h 0.181345v -0.84488h 0.181345v 0.276443h 0.181345v 0.281562h 0.181345v -1.22789h 0.181345v
 -1.07515h 0.181345v 2.30304h 0.181345v 0.286875h 0.181345v -1.18351h 0.181345v -0.199617h 0.181345v 0.132786h 0.181345v -1.64185h 0.181345v 1.24692h 0.181345v -1.5433h 0.181345v 2.48129h 0.181345v -2.06472h 0.181345v -0.475161h 0.181345v -0.797392h
 0.181345v -0.545002h 0.181345v 0.545002h 0.181345v -1.62961h 0.181345v 2.02308h 0.181345v 1.06117h 0.181345v -1.34325h 0.181345v 1.34325h 0.181345v -0.715611h 0.181345v 2.66751h 0.181345v 0.139487h 0.181345v -0.751808h 0.181345v 0.612321h 0.181345v
 -0.0692663h 0.181345v 1.67888h 0.181345v -1.32934h 0.181345v 1.72021h 0.181345v 0.079394h 0.181345v 0.733844h 0.181345v -1.95693h 0.181345v 0.675841h 0.181345v -1.18148h 0.181345v 1.57035h 0.181345v -1.06471h 0.181345v 3.08366h 0.181345v -3.66018h
 0.181345v 1.02373h 0.181345v 0.53893h 0.181345v -0.614384h 0.181345v 0.614384h 0.181345v -2.11811h 0.181345v 2.27567h 0.181345v 1.7611h 0.181345v -1.60189h 0.181345v 0.405462h 0.181345v -0.722222h 0.181345v -0.155939h 0.181345v -0.30716h 0.181345v
 -0.885916h 0.181345v 1.27085h 0.181345v -0.232125h 0.181345v 0.46785h 0.181345v -0.390868h 0.181345v -0.456152h 0.181345v 2.78699h 0.181345v -3.37465h 0.181345v -2.3334h 0.181345v 2.3334h 0.181345v 1.43468h 0.181345v 0.239437h 0.181345v 0.997336h
 0.181345v -0.506844h 0.181345v -1.50187h 0.181345v -1.2978h 0.181345v 1.2978h 0.181345v 0.458445h 0.181345v 0.472699h 0.181345v -0.472699h 0.181345v -1.40672h 0.181345v 2.70145h 0.181345v -2.55936h 0.181345v -0.142094h 0.181345v 1.56266h 0.181345v
 -0.310295h 0.181345v 0.46785h 0.181345v -0.0789816h 0.181345v -1.2109h 0.181345v 0.899016h 0.181345v -0.752823h 0.181345v -1.13198h 0.181345v 0.985785h 0.181345v 0.21982h 0.181345v -0.0736269h 0.181345v -0.0732721h 0.181345v -1.05871h 0.181345v
 1.27959h 0.181345v -0.293805h 0.181345v -1.18896h 0.181345v 2.24312h 0.181345v -1.05416h 0.181345v 2.69943h 0.181345v -1.5671h 0.181345v -2.11811h 0.181345v 0.840984h 0.181345v 0.36462h 0.181345v 0.0739852h 0.181345v 0.605211h 0.181345v -2.93831h
 0.181345v 1.53841h 0.36269v -0.278979h 0.181345v 2.38984h 0.181345v -1.75478h 0.181345v 0.81403h 0.181345v 2.74163h 0.181345v -3.0427h 0.181345v -0.148332h 0.181345v 0.679196h 0.181345v 2.06331h 0.181345v -2.36893h 0.181345v 0.775879h 0.181345v
 2.41018h 0.181345v -2.80306h 0.181345v 0.392888h 0.181345v 0.321788h 0.181345v -0.321788h 0.181345v 0.650534h 0.181345v 2.04207h 0.181345v -1.95877h 0.181345v 1.03703h 0.181345v -0.177826h 0.181345v -1.67245h 0.181345v -0.84702h 0.181345v 2.25657h
 0.181345v -0.0866323h 0.181345v -0.921732h 0.181345v 0.749935h 0.181345v 0.969854h 0.181345v 1.13374h 0.181345v -0.482705h 0.181345v -0.741802h 0.181345v 1.82474h 0.181345v 0.518956h 0.181345v -1.21696h 0.181345v -2.00582h 0.181345v 0.0856561h
 0.181345v -0.170832h 0.181345v 4.51612h 0.181345v -1.72712h 0.181345v -1.08294h 0.36269v 4.12259h 0.181345v -2.52069h 0.181345v -0.313494h 0.181345v -0.50854h 0.181345v 5.0558h 0.181345v -4.23377h 0.181345v 0.869032h 0.181345v -1.38799h 0.181345v
 2.42897h 0.181345v 0.363458h 0.181345v -2.06082h 0.181345v 1.57812h 0.181345v -0.35223h 0.181345v -1.11844h 0.181345v -0.83905h 0.181345v -0.202722h 0.181345v 1.36875h 0.181345v 2.90479h 0.181345v -1.7611h 0.181345v 1.36617h 0.181345v -3.36665h
 0.181345v 1.53263h 0.181345v -1.73949h 0.181345v 2.20734h 0.181345v -0.35223h 0.181345v -1.54375h 0.181345v 1.1995h 0.181345v -1.30399h 0.181345v 2.36106h 0.181345v -2.56792h 0.181345v 3.31581h 0.181345v -3.10895h 0.181345v 2.48318h 0.181345v
 -0.718429h 0.181345v -0.346873h 0.181345v 2.21091h 0.181345v -2.3248h 0.181345v 1.80495h 0.181345v 1.47466h 0.181345v -3.72682h 0.181345v 1.74951h 0.181345v -0.841539h 0.181345v 0.235724h 0.181345v -0.921732h 0.181345v 1.04098h 0.181345v 0.241337h
 0.181345v -2.46484h 0.181345v 0.103781h 0.181345v 1.88216h 0.181345v -1.88216h 0.181345v 0.638021h 0.181345v 3.12355h 0.181345v 0.405462h 0.181345v -1.05809h 0.181345v 1.90297h 0.181345v -2.40563h 0.181345v -2.39658h 0.36269v 1.79076h 0.181345v
 -1.25347h 0.181345v 2.23471h 0.181345v -2.3437h 0.181345v 0.665972h 0.181345v 3.42105h 0.181345v -2.96029h 0.181345v 0.354972h 0.181345v 0.12019h 0.181345v -2.54916h 0.181345v 5.32116h 0.181345v -1.11639h 0.181345v -2.47765h 0.181345v 1.94877h
 0.181345v -2.83684h 0.181345v 3.77482h 0.181345v -0.137593h 0.181345v -1.43663h 0.181345v 0.898383h 0.181345v -0.519843h 0.181345v -1.34419h 0.181345v -1.23495h 0.181345v 0.217203h 0.181345v 1.73617h 0.181345v -3.1952h 0.181345v 2.59418h 0.181345v
 0.237566h 0.181345v 0.12019h 0.181345v -1.16117h 0.181345v 2.41841h 0.181345v -3.39266h 0.181345v 2.37869h 0.181345v -1.73617h 0.181345v 0.109776h 0.181345v -1.36875h 0.181345v -0.397511h 0.181345v 1.5475h 0.181345v -1.44909h 0.181345v 2.57582h
 0.181345v -1.66026h 0.181345v -1.68555h 0.181345v 0.0941422h 0.181345v -1.69604h 0.181345v -0.416572h 0.181345v -0.564667h 0.181345v 1.32291h 0.181345v 0.261392h 0.181345v -1.26421h 0.181345v -0.16089h 0.181345v -1.80854h 0.181345v 0.802312h
 0.181345v 1.00622h 0.181345v 0.405462h 0.181345v -3.11063h 0.181345v 1.11128h 0.181345v 1.19896h 0.181345v -0.611295h 0.181345v 2.08379h 0.181345v -2.38046h 0.181345v 1.3029h 0.181345v 1.16371h 0.181345v -1.71378h 0.181345v -0.153576h 0.181345v
 2.57465h 0.181345v -2.26593h 0.181345v 0.235724h 0.181345v 1.40955h 0.181345v 2.14232h 0.181345v -4.98655h 0.181345v 3.83126h 0.181345v -0.987032h 0.36269v 1.45778h 0.181345v -1.71621h 0.181345v -0.169878h 0.36269v -3.66058h 0.181345v 0.267917h
 0.181345v -1.54096h 0.181345v -0.773752h 0.181345v -2.70415h 0.181345v -1.69873h 0.181345v -1.33015h 0.181345v -2.07987h 0.181345v -0.172578h 0.181345v -1.80982h 0.181345v -1.91551h 0.181345v -2.12727h 0.181345v -1.76219h 0.181345v -0.511276h
 0.181345v -0.318418h 0.181345v -0.369659h 0.181345v -1.48225h 0.181345v 0.442263h 0.181345v -0.196182h 0.181345v 1.08318h 0.181345v -0.615326h 0.181345v -0.450119h 0.181345v 0.652474h 0.181345v 3.20402h 0.181345v -0.648978h 0.181345v 3.26178h
 0.181345v 0.412802h 0.181345v 1.71077h 0.181345v 2.80325h 0.181345v 0.769983h 0.181345v -0.118013h 0.181345v 4.0636h 0.181345v 1.33688h 0.181345v 2.41841h 0.181345v 1.37065h 0.181345v 1.74601h 0.181345v 0.490492h 0.181345v 2.427h 0.181345v 1.00725h
 0.181345v -1.39218h 0.181345v 2.81006h 0.181345v -1.20817h 0.181345v 1.91001h 0.181345v -0.701844h 0.181345v 4.03476h 0.181345v -5.45264h 0.181345v 6.37437h 0.181345v -3.89119h 0.181345v 4.0504h 0.181345v -3.29633h 0.181345v -0.128304h 0.181345v
 1.47466h 0.181345v 3.28744h 0.181345v -1.81017h 0.181345v 0.472699h 0.181345v -3.16693h 0.181345v 0.528885h 0.181345v 0.829511h 0.181345v 1.96943h 0.181345v -3.58552h 0.181345v 1.19568h 0.181345v 2.55245h 0.181345v -1.55277h 0.181345v -2.44877h
 0.181345v 2.74689h 0.181345v -2.62072h 0.181345v 0.515437h 0.181345v 0.264423h 0.181345v 1.39584h 0.181345v -0.573801h 0.181345v 0.7207h 0.181345v 1.07006h 0.181345v -0.771939h 0.181345v -0.298126h 0.181345v 2.22118h 0.181345v -0.668412h 0.181345v
 -4.8566h 0.181345v 6.22417h 0.181345v -2.92034h 0.181345v -0.436506h 0.181345v -0.972272h 0.181345v 5.44209h 0.181345v -2.64316h 0.181345v 0.661144h 0.181345v -0.168001h 0.181345v 0.168001h 0.181345v -0.661144h 0.181345v -0.940749h 0.181345v
 3.97377h 0.181345v -4.42318h 0.36269v 2.92034h 0.181345v 0.921732h 0.181345v -3.84207h 0.181345v -1.54273h 0.181345v 1.69107h 0.181345v 0.764177h 0.181345v 0.31676h 0.181345v -0.779859h 0.181345v 3.39266h 0.181345v -3.39266h 0.181345v 2.2931h
 0.181345v -1.51324h 0.181345v 2.6128h 0.181345v -2.12493h 0.181345v -0.804628h 0.181345v 2.55413h 0.181345v -2.07648h 0.181345v 1.89219h 0.181345v -1.72958h 0.181345v 0.498534h 0.181345v -0.498534h 0.181345v -0.3235h 0.181345v 0.991912h 0.181345v
 1.81213h 0.181345v -0.380118h 0.181345v -2.58313h 0.181345v 1.32291h 0.181345v -1.16371h 0.181345v 2.05308h 0.36269v -2.83294h 0.181345v 3.5839h 0.181345v -2.15001h 0.181345v 0.859207h 0.181345v 0.539841h 0.181345v 1.9519h 0.181345v -1.58105h
 0.181345v 0.96873h 0.181345v -2.57062h 0.181345v 6.16466h 0.181345v -5.99478h 0.181345v 2.80621h 0.181345v -2.63441h 0.181345v 0.173761h 0.181345v 0.899903h 0.181345v -1.91387h 0.181345v -0.64026h 0.181345v -0.463099h 0.181345v -3.02331h 0.181345v
 -1.42641h 0.181345v 0.696485h 0.181345v -0.235724h 0.181345v -3.71665h 0.181345v -1.8111h 0.181345v -1.2482h 0.181345v -3.52688h 0.181345v -0.696485h 0.181345v -1.91631h 0.181345v -2.57062h 0.181345v -1.2559h 0.181345v -1.65623h 0.181345v -1.49341h
 0.181345v -1.03842h 0.181345v -1.67552h 0.181345v -0.972974h 0.181345v -0.773657h 0.181345v -2.59418h 0.181345v 0.753731h 0.181345v 0.231483h 0.181345v -1.18267h 0.181345v 1.50412h 0.181345v -1.02584h 0.181345v -0.201113h 0.181345v 0.50786h
 0.181345v 1.09181h 0.181345v 0.867727h 0.181345v 2.7767h 0.181345v 1.08123h 0.181345v -0.623077h 0.181345v 4.34485h 0.181345v 0.794119h 0.181345v 1.36373h 0.181345v 1.99839h 0.181345v 1.77806h 0.181345v 1.25034h 0.181345v 2.19958h 0.181345v 3.35684h
 0.181345v 3.50486h 0.181345v -0.552931h 0.181345v 2.59923h 0.181345v 3.61983h 0.181345v 1.36757h 0.181345v 0.17993h 0.181345v 1.32291h 0.181345v 4.57264h 0.181345v 4.28524h 0.181345v -5.56364h 0.181345v 3.5777h 0.181345v 0.633588h 0.181345v
 -0.320094h 0.181345v 1.67245h 0.181345v -4.80957h 0.181345v 4.11836h 0.181345v -1.29473h 0.181345v -1.47727h 0.181345v 5.74809h 0.181345v -0.800391h 0.181345v -5.76973h 0.181345v 3.93571h 0.181345v 0.707287h 0.181345v 1.52166h 0.181345v -0.779859h
 0.181345v 2.47093h 0.181345v -8.38005h 0.181345v 3.7842h 0.181345v -1.26773h 0.181345v 2.2931h 0.181345v 1.87942h 0.181345v -0.779859h 0.181345v 0.38493h 0.181345v 0.394929h 0.181345v -5.89556h 0.181345v 2.0302h 0.181345v 2.71007h 0.181345v
 -0.366377h 0.181345v -0.707287h 0.181345v 1.83402h 0.181345v -4.3739h 0.181345v 1.21696h 0.181345v 0.981239h 0.181345v 1.41534h 0.181345v -0.366377h 0.181345v 1.92712h 0.181345v -4.27082h 0.181345v 0.633588h 0.181345v -0.320094h 0.181345v 3.95732h
 0.181345v -4.27082h 0.181345v 0.633588h 0.181345v -0.940749h 0.36269v -0.596309h 0.181345v 0.596309h 0.181345v 1.94357h 0.181345v 0.707287h 0.181345v 1.52166h 0.181345v -4.17252h 0.181345v -2.51647h 0.181345v 3.13712h 0.181345v 2.0302h 0.36269v
 -5.42286h 0.181345v 7.76655h 0.181345v -7.76655h 0.181345v 3.71275h 0.181345v 0.661144h 0.181345v -3.59404h 0.181345v 2.93289h 0.181345v -1.24183h 0.181345v 0.301078h 0.181345v 1.60189h 0.181345v -4.62521h 0.181345v 3.96406h 0.181345v -4.45455h
 0.181345v 4.45455h 0.181345v -4.21129h 0.181345v 3.89119h 0.181345v 0.647073h 0.181345v 0.334166h 0.181345v 0.341676h 0.181345v -2.53988h 0.181345v -2.9175h 0.181345v 3.21273h 0.181345v 2.24465h 0.181345v 0.349531h 0.181345v -1.35235h 0.181345v
 0.326979h 0.181345v 3.31025h 0.181345v 2.20734h 0.181345v -7.95542h 0.181345v 2.772h 0.181345v -1.90297h 0.181345v 1.24183h 0.181345v 0.326979h 0.181345v 0.334166h 0.181345v 1.41534h 0.181345v -0.724133h 0.181345v -1.02537h 0.181345v 1.74951h
 0.181345v 1.97732h 0.181345v -3.72682h 0.181345v -0.647073h 0.181345v 3.15693h 0.181345v -4.07867h 0.181345v 1.90297h 0.181345v 2.57062h 0.181345v 1.69107h 0.181345v -4.92283h 0.181345v -1.24183h 0.181345v 8.58307h 0.181345v -7.01426h 0.181345v
 2.12493h 0.181345v 0.38493h 0.181345v -2.17569h 0.181345v 3.39266h 0.181345v -5.29563h 0.181345v 3.69374h 0.181345v -0.741802h 0.181345v -4.3739h 0.181345v 2.0302h 0.181345v 0.960567h 0.181345v -2.15364h 0.181345v 2.48781h 0.181345v 5.18342h
 0.181345v -5.18342h 0.181345v -0.661144h 0.181345v 1.35235h 0.36269v -2.88941h 0.181345v 4.76883h 0.181345v -2.22895h 0.181345v 0.349531h 0.181345v -0.691206h 0.181345v 6.6801h 0.181345v -5.98889h 0.181345v 0.724133h 0.181345v 1.56075h 0.181345v
 -2.28488h 0.181345v 0.357756h 0.181345v -2.0302h 0.181345v 0.981239h 0.181345v 2.97609h 0.36269v -1.18532h 0.181345v -1.44909h 0.181345v 1.44909h 0.181345v 2.47093h 0.181345v 0.453882h 0.181345v 0.46785h 0.181345v 3.15693h 0.181345v -5.76973h
 0.36269v -0.779859h 0.181345v -0.741802h 0.181345v 5.63113h 0.181345v -5.98889h 0.181345v 7.07535h 0.181345v -4.79047h 0.181345v -0.800391h 0.181345v 6.16466h 0.181345v 1.86404h 0.181345v -1.26773h 0.181345v -3.75324h 0.181345v 3.75324h 0.181345v
 -5.96058h 0.181345v 7.90415h 0.181345v -9.83127h 0.181345v 6.16466h 0.181345v -1.5475h 0.181345v -3.0955h 0.181345v 4.10947h 0.181345v -5.26476h 0.181345v 3.30023h 0.181345v 2.49805h 0.181345v -1.04896h 0.181345v 0.515437h 0.181345v 0.533526h
 0.181345v 0.552931h 0.181345v -2.58313h 0.181345v 5.02097h 0.181345v -4.03973h 0.36269v 7.76655h 0.181345v 0.869032h 0.181345v -5.24293h 0.181345v -2.87722h 0.181345v 1.08646h 0.181345v -2.58313h 0.181345v 8.74779h 0.181345v -6.16466h 0.181345v
 2.43784h 0.181345v -6.38343h 0.181345v 4.51939h 0.181345v -4.07867h 0.181345v 8.06763h 0.181345v 1.60189h 0.181345v -4.3739h 0.181345v 2.772h 0.181345v -3.98897h 0.181345v 4.76883h 0.181345v -2.90479h 0.181345v 6.49883h 0.181345v -6.49883h 0.181345v
 1.38313h 0.181345v -2.65086h 0.181345v 4.99455h 0.181345v -0.822034h 0.181345v -2.22895h 0.181345v 5.82299h 0.181345v -9.48959h 0.181345v 2.3437h 0.181345v 10.5386h 0.181345v -9.21564h 0.181345v 3.92001h 0.181345v 15.8342h 0.181345v -18.3051h
 0.181345v 3.39266h 0.181345v -4.13446h 0.181345v 1.52166h 0.181345v 0.822034h 0.181345v 3.82097h 0.181345v 5.1157h 0.181345v -1.44909h 0.36269v -6.61854h 0.181345v 1.90297h 0.181345v -3.59404h 0.181345v 3.59404h 0.181345v 1.04896h 0.181345v
 -3.82097h 0.181345v 2.772h 0.181345v -1.90297h 0.181345v 2.95193h 0.181345v 5.1157h 0.36269v -6.16466h 0.181345v 2.17569h 0.181345v -2.17569h 0.181345v -1.90297h 0.181345v 2.95193h 0.181345v 1.12673h 0.36269v 2.53988h 0.36269v 1.44909h 0.181345v
 -2.772h 0.181345v -8.50836h 0.181345v 7.29139h 0.181345v 5.59086h 0.181345v -1.60189h 0.181345v -3.98897h 0.181345v 3.98897h 0.36269v 1.60189h 0.181345v -8.74779h 0.181345v -0.921732h 0.181345v -4.59586h 0.181345v 2.12493h 0.181345v 4.3739h
 0.181345v -7.76655h 0.181345v 1.94357h 0.181345v 3.92001h 0.181345v -7.03369h 0.181345v 2.43784h 0.181345v 0.675841h 0.181345v 5.82299h 0.181345v -5.82299h 0.181345v -4.20014h 0.181345v 3.52429h 0.181345v -4.53826h 0.181345v -0.482705h 0.181345v
 -0.921732h 0.36269v 2.95193h 0.181345v -3.39266h 0.181345v 9.28822h 0.181345v -8.84749h 0.181345v -0.440724h 0.181345v 7.76655h 0.181345v -0.707287h 0.181345v -7.05927h 0.181345v 7.05927h 0.181345v -3.11368h 0.181345v 7.03369h 0.181345v -9.13412h
 0.181345v 5.21411h 0.36269v -3.66661h 0.181345v 8.50836h 0.544034v -1.79076h 0.181345v 10.5386h 0.181345v -13.5895h 0.181345v 9.21564h 0.181345v -2.3437h 0.181345v 1.12673h 0.544034v -3.15693h 0.181345v -2.6128h 0.181345v 3.59404h 0.181345v 2.17569h
 0.181345v -3.15693h 0.181345v -1.79076h 0.181345v -6.16466h 0.36269v 3.11368h 0.181345v -1.32291h 0.181345v -3.89119h 0.181345v -1.84516h 0.181345v -2.0302h 0.181345v -3.69374h 0.181345v 2.59418h 0.181345v 0.724133h 0.181345v -5.78924h 0.181345v
 -2.98172h 0.181345v 1.07874h 0.181345v -1.88981h 0.36269v -2.70604h 0.181345v -0.960567h 0.181345v -3.69982h 0.181345v -0.596309h 0.181345v 0.596309h 0.181345v -1.17011h 0.181345v 0.226928h 0.181345v 0.230367h 0.181345v -1.11844h 0.181345v -2.75402h
 0.181345v 0.927356h 0.181345v -1.10623h 0.181345v -1.441h 0.181345v 4.0538h 0.181345v -0.921732h 0.181345v -1.77972h 0.36269v -1.27126h 0.181345v 1.27126h 0.181345v -1.98594h 0.181345v 1.37943h 0.181345v -1.37943h 0.181345v 1.63641h 0.181345v
 -0.0861414h 0.181345v -1.55027h 0.181345v -0.154356h 0.181345v 1.44909h 0.181345v -2.63057h 0.181345v -0.963467h 0.181345v 1.76578h 0.181345v -3.34765h 0.181345v 1.05755h 0.181345v -1.53086h 0.181345v 1.59542h 0.181345v -0.879811h 0.181345v
 0.184292h 0.181345v -0.366377h 0.181345v -1.10517h 0.181345v 1.10517h 0.181345v 0.869032h 0.181345v -0.869032h 0.181345v 0.121147h 0.181345v -0.419859h 0.181345v 2.57218h 0.181345v -1.40444h 0.181345v 3.9125h 0.181345v 0.5897h 0.181345v 1.15981h
 0.181345v 1.97732h 0.181345v 0.869032h 0.181345v 2.55004h 0.181345v -0.647073h 0.181345v 1.88609h 0.181345v 2.48781h 0.181345v 1.23105h 0.181345v 2.58992h 0.181345v 2.3437h 0.181345v 4.71557h 0.181345v 1.44909h 0.181345v 0.38493h 0.181345v 1.64527h
 0.181345v -2.0302h 0.181345v 11.3184h 0.181345v -5.34263h 0.181345v 4.56277h 0.181345v -3.39266h 0.181345v 1.26773h 0.181345v 14.2654h 0.36269v -1.60189h 0.181345v 7.76655h 0.181345v -11.7555h 0.181345v 7.38162h 0.181345v -1.79076h 0.181345v
 -1.60189h 0.181345v 7.76655h 0.181345v -2.3437h 0.181345v -8.19486h 0.181345v 8.19486h 0.181345v 8.50836h 0.181345v 10.5386h 0.181345v -25.9189h 0.181345v 6.87195h 0.181345v 12.8823h 0.181345v -12.8823h 0.181345v -5.42286h 0.36269v 13.9312h 0.36269v
 -6.16466h 0.181345v -6.16466h 0.181345v 22.8679h 0.181345v -6.16466h 0.181345v 16.7032h 0.181345v -16.7032h 0.544034v 6.16466h 0.181345v -10.5386h 0.181345v -8.50836h 0.181345v 8.50836h 0.181345v -3.39266h 0.181345v 35.0083h 0.181345v -31.6157h
 0.181345v 31.6157h 0.181345v -21.0771h 0.181345v 21.0771h 0.181345v -27.2418h 0.181345v 6.16466h 0.181345v -10.5386h 0.181345v 4.3739h 0.181345v 6.16466h 0.181345v -13.9312h 0.36269v 7.76655h 0.181345v -14.9125h 0.181345v 10.5386h 0.181345v 21.0771h
 0.181345v -21.0771h 0.36269v 21.0771h 0.181345v -24.4698h 0.181345v 3.39266h 0.181345v -3.39266h 0.181345v 7.76655h 0.181345v -10.5386h 0.181345v 16.7032h 0.181345v -19.0469h 0.181345v 5.1157h 0.181345v -2.772h 0.181345v -4.3739h 0.181345v 7.1459h
 0.181345v -2.772h 0.181345v 10.5386h 0.181345v -7.76655h 0.181345v -5.1157h 0.181345v 2.3437h 0.181345v 6.16466h 0.181345v 21.0771h 0.181345v -21.0771h 0.181345v 10.5386h 0.181345v -13.9312h 0.181345v -2.772h 0.181345v 6.16466h 0.181345v -10.5386h
 0.181345v 7.1459h 0.181345v -8.93666h 0.36269v 12.3293h 0.181345v -6.16466h 0.181345v 6.16466h 0.181345v -6.16466h 0.544034v -4.3739h 0.181345v -3.39266h 0.181345v -5.1157h 0.181345v 5.1157h 0.181345v 5.42286h 0.181345v -6.87195h 0.181345v 1.44909h
 0.181345v -2.772h 0.181345v -2.3437h 0.181345v -1.04896h 0.181345v -3.59404h 0.181345v 5.76973h 0.181345v -4.9477h 0.181345v 1.79076h 0.181345v -4.84175h 0.181345v 0.707287h 0.181345v -1.38313h 0.181345v 2.12493h 0.181345v 0.779859h 0.181345v
 -0.779859h 0.181345v 6.54959h 0.181345v -3.15693h 0.181345v -6.16466h 0.181345v 2.0302h 0.181345v 8.50836h 0.36269v -5.29563h 0.36269v 1.90297h 0.181345v -0.981239h 0.181345v 4.3739h 0.181345v 1.32291h 0.181345v -3.66661h 0.181345v 6.71759h
 0.181345v 1.79076h 0.181345v -1.79076h 0.181345v 6.16466h 0.181345v 2.772h 0.181345v 3.39266h 0.181345v -8.50836h 0.181345v 8.50836h 0.181345v 4.3739h 0.181345v -18.3051h 0.181345v 24.4698h 0.181345v -13.9312h 0.181345v -2.772h 0.181345v 2.772h
 0.36269v 3.39266h 0.181345v 10.5386h 0.181345v -6.16466h 0.181345v 16.7032h 0.36269v -16.7032h 0.181345v -4.3739h 0.181345v -8.50836h 0.181345v 19.0469h 0.181345v -6.16466h 0.181345v 16.7032h 0.181345v -16.7032h 0.544034v 6.16466h 0.181345v
 -6.16466h 0.181345v 27.2418h 0.181345v -31.6157h 0.181345v 4.3739h 0.544034v 6.16466h 0.181345v 10.5386h 0.181345v -16.7032h 0.181345v -4.3739h 0.181345v 10.5386h 0.181345v -6.16466h 0.181345v -4.3739h 0.906724v 21.0771h 0.36269v -10.5386h 0.906724v
 -10.5386h 0.181345v 4.3739h 0.181345v -4.3739h 0.181345v 4.3739h 0.181345v 6.16466h 0.181345v -16.7032h 0.36269v 10.5386h 0.181345v 6.16466h 0.181345v -6.16466h 0.36269v -14.9125h 0.181345v 7.1459h 0.181345v 3.39266h 0.544034v -3.39266h 0.181345v
 -2.772h 0.181345v -7.76655h 0.181345v 13.9312h 0.181345v -3.39266h 0.181345v 13.9312h 0.181345v -6.16466h 0.181345v -12.8823h 0.181345v 8.50836h 0.181345v -10.5386h 0.181345v -1.79076h 0.181345v 6.16466h 0.181345v 6.16466h 0.181345v -6.16466h
 0.36269v -12.8823h 0.181345v 8.50836h 0.36269v -6.16466h 0.181345v 4.3739h 0.181345v -3.05098h 0.181345v 15.3803h 0.181345v -15.3803h 0.181345v 11.9876h 0.181345v -2.772h 0.36269v -2.3437h 0.181345v 2.3437h 0.544034v -7.76655h 0.181345v 3.39266h
 0.181345v -1.79076h 0.181345v 3.82097h 0.181345v 5.1157h 0.36269v -5.1157h 0.181345v 5.1157h 0.181345v -2.772h 0.181345v 6.16466h 0.181345v -8.50836h 0.181345v -2.0302h 0.181345v 7.1459h 0.181345v -7.1459h 0.181345v -8.50836h 0.181345v 15.6543h
 0.181345v -10.5386h 0.181345v 5.42286h 0.181345v 19.0469h 0.181345v -16.7032h 0.181345v 16.7032h 0.181345v -10.5386h 0.181345v -6.16466h 0.181345v 6.16466h 0.181345v -13.9312h 0.181345v 24.4698h 0.181345v -6.16466h 0.181345v -7.76655h 0.181345v
 3.39266h 0.181345v -8.50836h 0.181345v 5.1157h 0.544034v 3.39266h 0.181345v -10.5386h 0.181345v 7.1459h 0.181345v -2.772h 0.181345v -9.21564h 0.36269v 15.3803h 0.181345v -3.39266h 0.181345v -5.1157h 0.181345v 8.50836h 0.181345v 4.3739h 0.181345v
 -12.8823h 0.181345v 8.50836h 0.181345v -6.16466h 0.181345v 6.16466h 0.181345v -15.3803h 0.181345v 4.84175h 0.181345v -4.84175h 0.181345v 9.21564h 0.181345v 6.16466h 0.181345v -3.39266h 0.181345v -8.93666h 0.36269v 8.93666h 0.181345v -11.9876h
 0.181345v 11.9876h 0.181345v -11.9876h 0.181345v 4.84175h 0.181345v -1.79076h 0.181345v -7.76655h 0.181345v 6.16466h 0.181345v 5.42286h 0.181345v -2.0302h 0.36269v -3.39266h 0.181345v 7.76655h 0.181345v -2.3437h 0.181345v 5.1157h 0.181345v -5.1157h
 0.181345v -2.0302h 0.181345v 21.0771h 0.181345v -13.9312h 0.36269v -11.9876h 0.181345v 15.3803h 0.181345v -6.16466h 0.181345v -16.7032h 0.181345v 16.7032h 0.181345v -10.5386h 0.181345v 13.3106h 0.181345v -8.93666h 0.181345v -1.60189h 0.181345v
 1.60189h 0.181345v -6.71759h 0.181345v 5.1157h 0.181345v 3.39266h 0.181345v -10.5386h 0.36269v 5.69681h 0.36269v -3.66661h 0.36269v 5.1157h 0.181345v -8.93666h 0.181345v 7.48758h 0.181345v -1.32291h 0.36269v 10.5386h 0.181345v -9.21564h 0.181345v
 4.84175h 0.181345v -9.55732h 0.181345v 3.39266h 0.181345v -6.98669h 0.181345v 1.69107h 0.181345v 6.61854h 0.181345v -2.53988h 0.181345v 1.21696h 0.181345v 1.32291h 0.36269v 1.44909h 0.181345v -3.98897h 0.181345v -6.54959h 0.181345v 15.9614h
 0.181345v -14.3595h 0.181345v 10.5386h 0.181345v -3.05098h 0.181345v -4.71557h 0.181345v 7.76655h 0.181345v -7.76655h 0.181345v 1.04896h 0.181345v 1.12673h 0.181345v 1.21696h 0.181345v -3.39266h 0.181345v 1.04896h 0.544034v 1.12673h 0.36269v
 -7.99868h 0.181345v 6.87195h 0.181345v -2.95193h 0.181345v -2.47093h 0.181345v 1.60189h 0.181345v 0.869032h 0.181345v 2.95193h 0.181345v 1.12673h 0.181345v -3.15693h 0.181345v 0.981239h 0.181345v -3.59404h 0.181345v -2.22895h 0.181345v 11.9876h
 0.181345v -5.1157h 0.181345v 1.12673h 0.181345v -4.07867h 0.181345v 0.921732h 0.181345v -0.921732h 0.181345v 6.61854h 0.36269v -5.69681h 0.181345v -2.6128h 0.36269v 0.822034h 0.181345v 7.48758h 0.181345v -11.8615h 0.181345v 14.9125h 0.181345v
 -11.3606h 0.181345v 0.822034h 0.181345v -2.3437h 0.181345v -1.38313h 0.181345v -0.647073h 0.181345v 1.32291h 0.181345v 2.22895h 0.181345v 3.59404h 0.181345v -3.59404h 0.181345v -3.55186h 0.181345v 1.32291h 0.181345v -1.32291h 0.181345v 6.16466h
 0.181345v -4.84175h 0.181345v -2.53988h 0.181345v 5.59086h 0.181345v 0.869032h 0.36269v -5.86358h 0.181345v -2.25657h 0.181345v 11.0721h 0.181345v -13.4905h 0.181345v 1.40444h 0.181345v 2.67423h 0.181345v -1.12673h 0.181345v 1.12673h 0.181345v
 2.53988h 0.181345v -7.05927h 0.181345v 4.51939h 0.181345v 4.76883h 0.181345v -5.89556h 0.181345v -2.95193h 0.181345v 6.61854h 0.181345v -1.32291h 0.181345v 3.55186h 0.181345v -4.17252h 0.181345v 1.26773h 0.181345v -2.99077h 0.181345v 3.66661h
 0.181345v -3.66661h 0.181345v 3.66661h 0.181345v -1.32291h 0.181345v -2.87722h 0.181345v 4.20014h 0.181345v -2.53988h 0.181345v 0.596309h 0.181345v 8.81552h 0.181345v -7.54779h 0.181345v 7.54779h 0.181345v -11.0721h 0.181345v 4.90742h 0.181345v
 -2.0302h 0.181345v 5.24293h 0.181345v 2.95193h 0.181345v -4.643h 0.181345v -4.17252h 0.181345v 9.94225h 0.181345v -6.54959h 0.181345v 0.779859h 0.181345v -2.22895h 0.181345v 7.99868h 0.181345v -6.54959h 0.181345v -0.741802h 0.181345v 2.3437h
 0.181345v 0.869032h 0.181345v 5.29563h 0.181345v -6.98669h 0.181345v 1.69107h 0.181345v -0.869032h 0.181345v 0.869032h 0.181345v 4.07867h 0.181345v -2.17569h 0.181345v -0.981239h 0.181345v 5.69681h 0.181345v -1.32291h 0.181345v -7.76655h 0.181345v
 12.1405h 0.181345v -1.60189h 0.181345v -1.44909h 0.181345v -7.48758h 0.181345v 1.79076h 0.181345v 3.15693h 0.181345v 1.21696h 0.181345v 1.32291h 0.181345v 6.87195h 0.181345v -5.42286h 0.181345v -7.1459h 0.181345v 3.15693h 0.181345v -7.29139h
 0.181345v 3.21273h 0.181345v 11.4603h 0.181345v -7.38162h 0.181345v -1.12673h 0.544034v -2.95193h 0.181345v 0.921732h 0.181345v 4.3739h 0.181345v -3.39266h 0.181345v -1.90297h 0.36269v -3.92001h 0.181345v 5.82299h 0.181345v 7.76655h 0.36269v
 3.82097h 0.181345v -13.4905h 0.181345v 5.29563h 0.181345v -5.29563h 0.181345v 5.29563h 0.181345v -6.98669h 0.181345v -0.779859h 0.181345v 12.1405h 0.181345v -12.1405h 0.181345v 5.42286h 0.181345v -4.643h 0.181345v 5.76973h 0.181345v -3.15693h
 0.181345v 3.15693h 0.181345v -3.15693h 0.181345v 3.15693h 0.181345v 2.53988h 0.36269v -5.69681h 0.181345v 3.15693h 0.181345v -3.15693h 0.181345v 4.3739h 0.181345v -3.39266h 0.181345v -0.981239h 0.181345v 0.981239h 0.181345v 4.71557h 0.181345v
 1.44909h 0.181345v -2.772h 0.181345v -3.39266h 0.181345v -1.90297h 0.36269v 1.90297h 0.36269v 9.55732h 0.181345v -13.1514h 0.181345v 11.3606h 0.181345v 1.79076h 0.181345v -11.4603h 0.181345v 11.4603h 0.181345v -10.5386h 0.181345v 0.981239h 0.181345v
 -0.981239h 0.36269v 10.5386h 0.181345v -7.38162h 0.181345v -4.9477h 0.181345v 3.82097h 0.181345v -3.82097h 0.181345v -3.05098h 0.181345v 4.84175h 0.181345v 7.1459h 0.36269v -8.06763h 0.181345v 2.95193h 0.181345v 5.1157h 0.181345v -11.2804h 0.181345v
 6.16466h 0.181345v -4.643h 0.181345v 1.69107h 0.181345v -0.869032h 0.181345v 1.79076h 0.181345v 2.0302h 0.181345v -2.0302h 0.181345v 2.0302h 0.181345v -2.95193h 0.181345v 6.61854h 0.181345v -6.61854h 0.181345v 4.07867h 0.181345v -11.6653h 0.181345v
 6.71759h 0.181345v 3.82097h 0.181345v -4.643h 0.181345v 0.822034h 0.181345v -2.3437h 0.181345v -3.24716h 0.181345v 4.76883h 0.181345v 3.59404h 0.181345v 2.17569h 0.181345v -7.29139h 0.181345v 2.3437h 0.36269v 1.79076h 0.181345v -4.13446h 0.181345v
 4.13446h 0.181345v -4.84175h 0.181345v 2.22895h 0.181345v -0.779859h 0.181345v -3.98897h 0.181345v 6.45989h 0.181345v -2.47093h 0.181345v 4.3739h 0.181345v 2.17569h 0.181345v 1.21696h 0.181345v -11.7555h 0.181345v 5.59086h 0.181345v 4.9477h
 0.181345v 3.98897h 0.181345v -3.98897h 0.181345v -7.29139h 0.181345v -0.707287h 0.181345v 4.84175h 0.36269v -2.6128h 0.181345v -6.42908h 0.181345v 2.87722h 0.181345v 10.5386h 0.181345v -1.21696h 0.181345v -5.76973h 0.181345v -5.89556h 0.181345v
 4.3739h 0.36269v 1.52166h 0.36269v -2.90479h 0.181345v 0.675841h 0.181345v 9.21564h 0.181345v -7.76655h 0.181345v -0.741802h 0.181345v 0.741802h 0.181345v -1.44909h 0.181345v 9.21564h 0.181345v -11.7555h 0.181345v 1.21696h 0.36269v 1.32291h
 0.181345v 1.44909h 0.181345v -0.741802h 0.181345v -2.0302h 0.181345v 0.647073h 0.181345v -1.26773h 0.181345v 4.17252h 0.181345v -0.779859h 0.181345v -0.741802h 0.181345v -4.3739h 0.181345v 2.99077h 0.181345v 1.38313h 0.181345v -0.707287h 0.181345v
 -0.675841h 0.181345v 9.89148h 0.181345v -7.76655h 0.181345v -2.772h 0.181345v 9.32159h 0.181345v -5.76973h 0.181345v 2.6128h 0.181345v -4.13446h 0.36269v 5.1157h 0.181345v 2.17569h 0.181345v -7.99868h 0.181345v 3.92001h 0.181345v -1.69107h 0.181345v
 -0.779859h 0.181345v -0.741802h 0.181345v 6.16466h 0.544034v 1.12673h 0.181345v -4.9477h 0.181345v 4.9477h 0.181345v -4.9477h 0.181345v 3.82097h 0.181345v 1.12673h 0.181345v -9.32159h 0.181345v 8.19486h 0.181345v -6.16466h 0.181345v 5.1157h
 0.181345v -2.772h 0.181345v 3.82097h 0.181345v 1.12673h 0.181345v 5.59086h 0.181345v -10.5386h 0.181345v 7.48758h 0.36269v -4.71557h 0.181345v 1.04896h 0.181345v -2.95193h 0.181345v -0.869032h 0.181345v 1.79076h 0.181345v 5.69681h 0.181345v
 -4.71557h 0.181345v -0.981239h 0.181345v 2.0302h 0.36269v -2.0302h 0.181345v -6.16466h 0.181345v 4.3739h 0.36269v 8.93666h 0.181345v -5.1157h 0.181345v -2.0302h 0.544034v 5.69681h 0.181345v -11.8615h 0.181345v 10.5386h 0.181345v -5.29563h 0.181345v
 -2.47093h 0.36269v 1.60189h 0.181345v -4.3739h 0.181345v 4.3739h 0.181345v 2.772h 0.181345v -3.59404h 0.181345v -1.52166h 0.181345v 1.52166h 0.181345v -1.52166h 0.181345v 11.2804h 0.36269v -11.2804h 0.181345v 8.50836h 0.181345v -4.3739h 0.181345v
 -2.6128h 0.181345v 15.1816h 0.181345v -10.5386h 0.181345v -4.643h 0.181345v 8.30961h 0.544034v -3.66661h 0.181345v 3.66661h 0.181345v -3.66661h 0.181345v 2.3437h 0.181345v 16.7032h 0.181345v -16.7032h 0.181345v -2.3437h 0.181345v 5.1157h 0.181345v
 -1.44909h 0.181345v 3.05098h 0.181345v -1.60189h 0.181345v 7.76655h 0.181345v -6.16466h 0.181345v -3.05098h 0.181345v 11.9876h 0.181345v -8.93666h 0.181345v 3.82097h 0.181345v -6.87195h 0.181345v 6.87195h 0.181345v -6.87195h 0.181345v 1.44909h
 0.181345v 10.5386h 0.36269v -5.1157h 0.181345v 5.1157h 0.181345v 3.39266h 0.181345v -8.50836h 0.181345v 2.3437h 0.181345v 2.772h 0.36269v -5.1157h 0.181345v -3.82097h 0.181345v -3.05098h 0.181345v 4.84175h 0.181345v 10.5386h 0.181345v -6.16466h
 0.36269v 6.16466h 0.181345v -8.50836h 0.181345v -2.0302h 0.181345v -1.79076h 0.181345v 16.7032h 0.181345v -18.3051h 0.181345v -1.44909h 0.181345v 3.05098h 0.181345v -3.05098h 0.181345v 6.87195h 0.181345v 8.50836h 0.181345v -8.50836h 0.181345v
 -2.0302h 0.181345v 10.5386h 0.181345v -12.3293h 0.181345v 6.16466h 0.181345v -4.3739h 0.181345v 7.1459h 0.181345v -11.9876h 0.181345v 1.44909h 0.36269v -2.772h 0.181345v 1.32291h 0.181345v 6.87195h 0.181345v -5.42286h 0.181345v -1.44909h 0.181345v
 1.44909h 0.181345v 1.60189h 0.181345v 1.79076h 0.181345v 2.0302h 0.181345v -9.41183h 0.181345v 1.21696h 0.181345v 6.16466h 0.181345v 7.1459h 0.181345v -10.5386h 0.181345v -2.772h 0.181345v -6.16466h 0.181345v 8.93666h 0.36269v 5.42286h 0.181345v
 -5.42286h 0.181345v 3.39266h 0.181345v -4.84175h 0.181345v 6.87195h 0.181345v -6.87195h 0.181345v 15.3803h 0.181345v -13.9312h 0.181345v 1.60189h 0.181345v 1.79076h 0.181345v -1.79076h 0.181345v 12.3293h 0.181345v -13.9312h 0.181345v 3.39266h
 0.181345v 4.3739h 0.36269v -4.3739h 0.181345v 7.1459h 0.181345v -8.93666h 0.181345v 3.82097h 0.181345v -5.42286h 0.181345v 1.60189h 0.181345v 1.79076h 0.181345v -7.38162h 0.181345v 22.2941h 0.181345v -7.76655h 0.181345v -10.5386h 0.181345v 1.60189h
 0.181345v -8.74779h 0.181345v 17.6845h 0.181345v -11.9876h 0.181345v 9.21564h 0.181345v -10.5386h 0.181345v 4.3739h 0.36269v 3.82097h 0.36269v -2.0302h 0.181345v 2.0302h 0.181345v -5.42286h 0.181345v -3.98897h 0.181345v 7.38162h 0.181345v 7.1459h
 0.181345v -17.6845h 0.181345v 10.5386h 0.181345v 7.1459h 0.181345v -11.9876h 0.181345v 3.05098h 0.181345v 16.7032h 0.181345v -14.9125h 0.181345v -1.79076h 0.181345v 6.16466h 0.36269v -13.9312h 0.181345v 11.5875h 0.181345v -8.19486h 0.181345v
 6.16466h 0.181345v -1.79076h 0.181345v -5.59086h 0.181345v 9.41183h 0.181345v -3.82097h 0.181345v -1.60189h 0.181345v 1.60189h 0.181345v -3.05098h 0.181345v 6.87195h 0.181345v 19.0469h 0.181345v -27.2418h 0.181345v 6.16466h 0.181345v -12.3293h
 0.181345v 4.9477h 0.181345v 2.53988h 0.181345v -5.69681h 0.181345v -3.39266h 0.181345v 6.54959h 0.181345v 5.59086h 0.181345v -3.05098h 0.181345v -1.32291h 0.181345v -1.21696h 0.181345v -2.17569h 0.181345v 2.17569h 0.181345v 7.38162h 0.36269v
 -8.50836h 0.181345v 10.5386h 0.181345v -8.19486h 0.36269v -8.50836h 0.36269v 7.29139h 0.36269v -4.07867h 0.181345v 0.921732h 0.181345v 5.69681h 0.181345v -1.32291h 0.36269v -4.3739h 0.181345v -2.6128h 0.181345v 8.30961h 0.181345v -10.5386h 0.181345v
 3.05098h 0.181345v 2.772h 0.181345v -8.36286h 0.181345v 9.41183h 0.181345v -7.54779h 0.181345v 2.90479h 0.181345v -4.76883h 0.181345v 1.21696h 0.181345v 8.19486h 0.181345v -3.82097h 0.181345v 0.869032h 0.181345v -3.21273h 0.181345v 2.3437h 0.181345v
 -4.3739h 0.181345v 4.3739h 0.181345v -5.59086h 0.181345v 6.45989h 0.181345v -2.47093h 0.181345v 4.3739h 0.181345v -8.93666h 0.181345v 3.11368h 0.181345v -0.675841h 0.181345v 6.49883h 0.181345v 2.17569h 0.181345v 2.53988h 0.181345v -6.61854h
 0.181345v 6.61854h 0.181345v -5.69681h 0.181345v 4.3739h 0.181345v 4.3739h 0.181345v -12.8823h 0.181345v 4.13446h 0.181345v -0.921732h 0.181345v 2.95193h 0.36269v -2.95193h 0.181345v 6.61854h 0.181345v -4.71557h 0.181345v -4.3739h 0.181345v 9.08947h
 0.181345v 9.21564h 0.181345v -11.7555h 0.181345v 9.41183h 0.36269v 2.3437h 0.181345v -2.3437h 0.181345v 8.50836h 0.181345v 4.3739h 0.181345v -19.7542h 0.181345v 11.9876h 0.36269v 13.9312h 0.181345v -10.5386h 0.181345v 21.0771h 0.181345v -16.7032h
 0.181345v -4.3739h 0.181345v 10.5386h 0.36269v 10.5386h 0.181345v -16.7032h 0.181345v -7.76655h 0.181345v 7.76655h 0.36269v 16.7032h 0.181345v -21.0771h 0.181345v 10.5386h 0.181345v 10.5386h 0.906724v -10.5386h 0.181345v 21.0771h 0.36269v -21.0771h
 0.906724v -6.16466h 0.181345v 6.16466h 0.36269v 10.5386h 0.181345v -10.5386h 0.36269v 10.5386h 0.36269v 10.5386h 0.181345v -10.5386h 0.181345v 10.5386h 0.181345v -21.0771h 0.181345v 21.0771h 0.181345v -10.5386h 0.725379v -10.5386h 0.181345v
 -6.16466h 0.181345v 27.2418h 0.36269v -21.0771h 0.181345v 21.0771h 0.181345v -10.5386h 0.181345v 10.5386h 0.181345v -21.0771h 0.181345v 10.5386h 0.181345v 10.5386h 0.181345v -10.5386h 0.181345v -10.5386h 0.181345v 10.5386h 0.36269v 10.5386h 0.36269v
 -10.5386h 0.36269v -10.5386h 0.181345v 21.0771h 0.544034v -10.5386h 0.181345v -16.7032h 0.181345v 16.7032h 0.181345v -16.7032h 0.181345v 6.16466h 0.181345v 21.0771h 0.181345v -10.5386h 0.181345v 10.5386h 0.36269v -21.0771h 0.181345v 10.5386h
 0.181345v 10.5386h 0.36269v -10.5386h 0.181345v 10.5386h 0.36269v -10.5386h 0.181345v 10.5386h 0.181345v -10.5386h 0.181345v 10.5386h 0.36269v -10.5386h 0.181345v 10.5386h 0.181345v -21.0771h 0.36269v 10.5386h 0.181345v 10.5386h 0.181345v -10.5386h
 0.181345v -10.5386h 0.181345v 10.5386h 0.36269v 10.5386h 0.181345v -21.0771h 0.181345v 10.5386h 0.36269v -10.5386h 0.181345v 21.0771h 0.181345v -10.5386h 0.181345v 10.5386h 0.725379v -27.2418h 0.181345v 27.2418h 0.544034v -10.5386h 1.26941v 10.5386h
 0.181345v -21.0771h 0.181345v 10.5386h 0.36269v 10.5386h 0.181345v -10.5386h 0.181345v 10.5386h 0.544034v -10.5386h 0.725379v 10.5386h 0.181345v -10.5386h 0.181345v 10.5386h 0.36269v -10.5386h 0.181345v 10.5386h 0.181345v -21.0771h 0.181345v
 10.5386h 0.181345v 10.5386h 0.181345v -21.0771h 0.181345v 10.5386h 0.181345v -10.5386h 0.36269v 21.0771h 0.181345v -21.0771h 0.181345v 10.5386h 0.181345v -10.5386h 0.544034v 10.5386h 0.181345v 10.5386h 0.725379v -10.5386h 0.181345v 10.5386h
 0.544034v -10.5386h 0.181345v 10.5386h 0.181345v -21.0771h 0.181345v 21.0771h 0.181345v -10.5386h 0.36269v 10.5386h 0.181345v -10.5386h 0.36269v 10.5386h 0.181345v -10.5386h 0.181345v 10.5386h 0.181345v -10.5386h 0.181345v -16.7032h 0.181345v
 27.2418h 0.36269v -21.0771h 0.181345v 10.5386h 0.544034v 10.5386h 0.181345v -10.5386h 0.725379v 10.5386h 0.181345v -10.5386h 0.544034v -10.5386h 0.544034v 21.0771h 0.181345v -10.5386h 0.181345v 10.5386h 0.181345v -10.5386h 0.181345v 10.5386h
 0.544034v -10.5386h 0.544034v 10.5386h 0.181345v -10.5386h 0.181345v 10.5386h 0.36269v -10.5386h 0.181345v 10.5386h 0.906724v -10.5386h 0.36269v 10.5386h 0.181345v -10.5386h 0.181345v 10.5386h 1.08807v -27.2418h 0.181345v 16.7032h 0.181345v 10.5386h
 0.36269v -10.5386h 0.181345v 10.5386h 0.36269v -10.5386h 0.181345v -10.5386h 0.181345v 10.5386h 0.181345v 10.5386h 0.725379v -27.2418h 0.181345v 6.16466h 0.36269v 21.0771h 0.906724v -10.5386h 0.181345v 10.5386h 0.181345v -10.5386h 0.36269v 10.5386h
 0.181345v -21.0771h 0.181345v 10.5386h 0.181345v 10.5386h 0.181345v -10.5386h 0.181345v 10.5386h 0.181345v -10.5386h 0.906724v 10.5386h 0.181345v -21.0771h 0.181345v 10.5386h 0.36269v 10.5386h 0.725379v -10.5386h 0.181345v -16.7032h 0.181345v
 6.16466h 0.181345v 21.0771h 0.36269v -10.5386h 0.181345v 10.5386h 0.181345v -10.5386h 0.181345v 10.5386h 0.181345v -10.5386h 0.181345v 10.5386h 0.181345v -10.5386h 0.181345v 10.5386h 0.181345v -27.2418h 0.181345v 27.2418h 0.181345v -10.5386h
 0.181345v 10.5386h 0.181345v -21.0771h 0.181345v 10.5386h 0.181345v 10.5386h 0.906724v -21.0771h 0.181345v 21.0771h 0.181345v -10.5386h 0.181345v -16.7032h 0.181345v 27.2418h 0.181345v -10.5386h 0.181345v 10.5386h 0.725379v -10.5386h 0.181345v
 10.5386h 0.181345v -10.5386h 0.181345v -10.5386h 0.181345v 21.0771h 0.181345v -10.5386h 0.181345v 10.5386h 0.36269v -10.5386h 0.181345v -16.7032h 0.181345v 16.7032h 0.36269v 10.5386h 0.181345v -10.5386h 0.181345v 10.5386h 0.181345v -10.5386h
 0.181345" fill="none" stroke="black"/>
<path d="M57.1929,280.151h 453.543" fill="none" stroke="black"/>
<path d="M57.1929,272.68v 7.47068" fill="none" stroke="black"/>
<path d="M75.3318,276.415v 3.73534" fill="none" stroke="black"/>
<path d="M93.4707,276.415v 3.73534" fill="none" stroke="black"/>
<path d="M111.61,276.415v 3.73534" fill="none" stroke="black"/>
<path d="M129.749,276.415v 3.73534" fill="none" stroke="black"/>
<path d="M147.887,272.68v 7.47068" fill="none" stroke="black"/>
<path d="M166.026,276.415v 3.73534" fill="none" stroke="black"/>
<path d="M184.165,276.415v 3.73534" fill="none" stroke="black"/>
<path d="M202.304,276.415v 3.73534" fill="none" stroke="black"/>
<path d="M220.443,276.415v 3.73534" fill="none" stroke="black"/>
<path d="M238.582,272.68v 7.47068" fill="none" stroke="black"/>
<path d="M256.721,276.415v 3.73534" fill="none" stroke="black"/>
<path d="M274.86,276.415v 3.73534" fill="none" stroke="black"/>
<path d="M292.999,276.415v 3.73534" fill="none" stroke="black"/>
<path d="M311.138,276.415v 3.73534" fill="none" stroke="black"/>
<path d="M329.277,272.68v 7.47068" fill="none" stroke="black"/>
<path d="M347.415,276.415v 3.73534" fill="none" stroke="black"/>
<path d="M365.554,276.415v 3.73534" fill="none" stroke="black"/>
<path d="M383.693,276.415v 3.73534" fill="none" stroke="black"/>
<path d="M401.832,276.415v 3.73534" fill="none" stroke="black"/>
<path d="M419.971,272.68v 7.47068" fill="none" stroke="black"/>
<path d="M438.11,276.415v 3.73534" fill="none" stroke="black"/>
<path d="M456.249,276.415v 3.73534" fill="none" stroke="black"/>
<path d="M474.388,276.415v 3.73534" fill="none" stroke="black"/>
<path d="M492.527,276.415v 3.73534" fill="none" stroke="black"/>
<path d="M510.666,272.68v 7.47068" fill="none" stroke="black"/>
<path d="M510.666,272.68v 7.47068" fill="none" stroke="black"/>
<text xml:space="preserve" x="54.3523" y="290.27" fill="black" font-size="10.4952" font-family="Helvetica">0</text>
<text xml:space="preserve" x="139.569" y="290.27" fill="black" font-size="10.4952" font-family="Helvetica">500</text>
<text xml:space="preserve" x="227.449" y="290.27" fill="black" font-size="10.4952" font-family="Helvetica">1000</text>
<text xml:space="preserve" x="318.288" y="290.27" fill="black" font-size="10.4952" font-family="Helvetica">1500</text>
<text xml:space="preserve" x="408.831" y="290.27" fill="black" font-size="10.4952" font-family="Helvetica">2000</text>
<text xml:space="preserve" x="499.67" y="290.27" fill="black" font-size="10.4952" font-family="Helvetica">2500</text>
<text xml:space="preserve" x="265.323" y="301.218" fill="black" font-size="10.4952" font-family="Helvetica">Channel</text>
<path d="M57.1929,280.151v -249.023" fill="none" stroke="black"/>
<path d="M63.9961,280.151h -6.80315" fill="none" stroke="black"/>
<path d="M63.9961,277.379h -6.80315" fill="none" stroke="black"/>
<path d="M63.9961,275.035h -6.80315" fill="none" stroke="black"/>
<path d="M63.9961,273.005h -6.80315" fill="none" stroke="black"/>
<path d="M63.9961,271.214h -6.80315" fill="none" stroke="black"/>
<path d="M70.7992,269.612h -13.6063" fill="none" stroke="black"/>
<text xml:space="preserve" x="49.0263" y="273.404" fill="black" font-size="10.4952" font-family="Helvetica">1</text>
<path d="M63.9961,259.073h -6.80315" fill="none" stroke="black"/>
<path d="M63.9961,252.909h -6.80315" fill="none" stroke="black"/>
<path d="M63.9961,248.535h -6.80315" fill="none" stroke="black"/>
<path d="M63.9961,245.142h -6.80315" fill="none" stroke="black"/>
<path d="M63.9961,242.37h -6.80315" fill="none" stroke="black"/>
<path d="M63.9961,240.027h -6.80315" fill="none" stroke="black"/>
<path d="M63.9961,237.996h -6.80315" fill="none" stroke="black"/>
<path d="M63.9961,236.206h -6.80315" fill="none" stroke="black"/>
<path d="M70.7992,234.604h -13.6063" fill="none" stroke="black"/>
<text xml:space="preserve" x="41.629" y="238.193" fill="black" font-size="10.4952" font-family="Helvetica">10</text>
<path d="M63.9961,224.065h -6.80315" fill="none" stroke="black"/>
<path d="M63.9961,217.9h -6.80315" fill="none" stroke="black"/>
<path d="M63.9961,213.527h -6.80315" fill="none" stroke="black"/>
<path d="M63.9961,210.134h -6.80315" fill="none" stroke="black"/>
<path d="M63.9961,207.362h -6.80315" fill="none" stroke="black"/>
<path d="M63.9961,205.018h -6.80315" fill="none" stroke="black"/>
<path d="M63.9961,202.988h -6.80315" fill="none" stroke="black"/>
<path d="M63.9961,201.197h -6.80315" fill="none" stroke="black"/>
<path d="M70.7992,199.595h -13.6063" fill="none" stroke="black"/>
<text xml:space="preserve" x="49.0263" y="199.727" fill="black" font-size="7.16345" font-family="Helvetica">2</text>
<text xml:space="preserve" x="38.0783" y="204.165" fill="black" font-size="10.4952" font-family="Helvetica">10</text>
<path d="M63.9961,189.057h -6.80315" fill="none" stroke="black"/>
<path d="M63.9961,182.892h -6.80315" fill="none" stroke="black"/>
<path d="M63.9961,178.518h -6.80315" fill="none" stroke="black"/>
<path d="M63.9961,175.126h -6.80315" fill="none" stroke="black"/>
<path d="M63.9961,172.354h -6.80315" fill="none" stroke="black"/>
<path d="M63.9961,170.01h -6.80315" fill="none" stroke="black"/>
<path d="M63.9961,167.98h -6.80315" fill="none" stroke="black"/>
<path d="M63.9961,166.189h -6.80315" fill="none" stroke="black"/>
<path d="M70.7992,164.587h -13.6063" fill="none" stroke="black"/>
<text xml:space="preserve" x="49.0263" y="164.516" fill="black" font-size="7.16345" font-family="Helvetica">3</text>
<text xml:space="preserve" x="38.0783" y="169.25" fill="black" font-size="10.4952" font-family="Helvetica">10</text>
<path d="M63.9961,154.048h -6.80315" fill="none" stroke="black"/>
<path d="M63.9961,147.884h -6.80315" fill="none" stroke="black"/>
<path d="M63.9961,143.51h -6.80315" fill="none" stroke="black"/>
<path d="M63.9961,140.117h -6.80315" fill="none" stroke="black"/>
<path d="M63.9961,137.345h -6.80315" fill="none" stroke="black"/>
<path d="M63.9961,135.002h -6.80315" fill="none" stroke="black"/>
<path d="M63.9961,132.971h -6.80315" fill="none" stroke="black"/>
<path d="M63.9961,131.181h -6.80315" fill="none" stroke="black"/>
<path d="M70.7992,129.579h -13.6063" fill="none" stroke="black"/>
<text xml:space="preserve" x="49.0263" y="129.601" fill="black" font-size="7.16345" font-family="Helvetica">4</text>
<text xml:space="preserve" x="38.0783" y="134.039" fill="black" font-size="10.4952" font-family="Helvetica">10</text>
<path d="M63.9961,119.04h -6.80315" fill="none" stroke="black"/>
<path d="M63.9961,112.875h -6.80315" fill="none" stroke="black"/>
<path d="M63.9961,108.502h -6.80315" fill="none" stroke="black"/>
<path d="M63.9961,105.109h -6.80315" fill="none" stroke="black"/>
<path d="M63.9961,102.337h -6.80315" fill="none" stroke="black"/>
<path d="M63.9961,99.9932h -6.80315" fill="none" stroke="black"/>
<path d="M63.9961,97.963h -6.80315" fill="none" stroke="black"/>
<path d="M63.9961,96.1723h -6.80315" fill="none" stroke="black"/>
<path d="M70.7992,94.5704h -13.6063" fill="none" stroke="black"/>
<text xml:space="preserve" x="49.0263" y="94.3896" fill="black" font-size="7.16345" font-family="Helvetica">5</text>
<text xml:space="preserve" x="38.0783" y="99.1238" fill="black" font-size="10.4952" font-family="Helvetica">10</text>
<path d="M63.9961,84.0318h -6.80315" fill="none" stroke="black"/>
<path d="M63.9961,77.8671h -6.80315" fill="none" stroke="black"/>
<path d="M63.9961,73.4932h -6.80315" fill="none" stroke="black"/>
<path d="M63.9961,70.1006h -6.80315" fill="none" stroke="black"/>
<path d="M63.9961,67.3286h -6.80315" fill="none" stroke="black"/>
<path d="M63.9961,64.9849h -6.80315" fill="none" stroke="black"/>
<path d="M63.9961,62.9547h -6.80315" fill="none" stroke="black"/>
<path d="M63.9961,61.1639h -6.80315" fill="none" stroke="black"/>
<path d="M70.7992,59.562h -13.6063" fill="none" stroke="black"/>
<text xml:space="preserve" x="49.0263" y="59.4743" fill="black" font-size="7.16345" font-family="Helvetica">6</text>
<text xml:space="preserve" x="38.0783" y="64.2086" fill="black" font-size="10.4952" font-family="Helvetica">10</text>
<path d="M63.9961,49.0235h -6.80315" fill="none" stroke="black"/>
<path d="M63.9961,42.8588h -6.80315" fill="none" stroke="black"/>
<path d="M63.9961,38.4849h -6.80315" fill="none" stroke="black"/>
<path d="M63.9961,35.0923h -6.80315" fill="none" stroke="black"/>
<path d="M63.9961,32.3203h -6.80315" fill="none" stroke="black"/>
<g transform="rotate(-90,26.5385,191.442)">
<text xml:space="preserve" x="26.5385" y="191.442" fill="black" font-size="10.4952" font-family="Helvetica">Counts/Channel</text>
</g>
<text xml:space="preserve" x="404.097" y="59.4743" fill="black" font-size="14.7788" font-family="Helvetica" font-weight="bold"> = 2.4879 MeV</text>
<text xml:space="preserve" x="398.179" y="62.7291" fill="black" font-size="10.0192" font-family="Helvetica" font-weight="bold">p</text>
<text xml:space="preserve" x="389.006" y="59.4743" fill="black" font-size="14.7788" font-family="Helvetica" font-weight="bold">E</text>
<path d="M262.163,163.138v 26.3243" fill="none" stroke="black"/>
<path d="M264.454,189.462l -2.29122, 3.9685l -2.29122, -3.9685z" fill="black"/>
<path d="M264.454,189.462l -2.29122, 3.9685l -2.29122, -3.9685h 4.58243z" fill="none" stroke="black"/>
<text xml:space="preserve" x="266.803" y="160.965" fill="black" font-size="10.4952" font-family="Helvetica" font-weight="bold">_1 	1.369 MeV</text>
<text xml:space="preserve" x="260.293" y="160.965" fill="black" font-size="10.4952" font-family="Times">&#0945;</text>
<path d="M184.528,129.579v 31.0398" fill="none" stroke="black"/>
<path d="M186.819,160.619l -2.29122, 3.9685l -2.29122, -3.9685z" fill="black"/>
<path d="M186.819,160.619l -2.29122, 3.9685l -2.29122, -3.9685h 4.58243z" fill="none" stroke="black"/>
<text xml:space="preserve" x="172.117" y="126.642" fill="black" font-size="10.4952" font-family="Helvetica" font-weight="bold"># p_1 	0.844 MeV</text>
<path d="M210.104,147.884v 12.7347" fill="none" stroke="black"/>
<path d="M212.395,160.619l -2.29122, 3.9685l -2.29122, -3.9685z" fill="black"/>
<path d="M212.395,160.619l -2.29122, 3.9685l -2.29122, -3.9685h 4.58243z" fill="none" stroke="black"/>
<text xml:space="preserve" x="197.564" y="143.508" fill="black" font-size="10.4952" font-family="Helvetica" font-weight="bold"># p_2 	1.015 MeV</text>
<path d="M497.537,269.612h 13.1283" fill="none" stroke="black"/>
<path d="M504.101,259.073h 6.56413" fill="none" stroke="black"/>
<path d="M504.101,252.909h 6.56413" fill="none" stroke="black"/>
<path d="M504.101,248.535h 6.56413" fill="none" stroke="black"/>
<path d="M504.101,245.142h 6.56413" fill="none" stroke="black"/>
<path d="M504.101,242.37h 6.56413" fill="none" stroke="black"/>
<path d="M504.101,240.027h 6.56413" fill="none" stroke="black"/>
<path d="M504.101,237.996h 6.56413" fill="none" stroke="black"/>
<path d="M504.101,236.206h 6.56413" fill="none" stroke="black"/>
<path d="M497.537,234.604h 13.1283" fill="none" stroke="black"/>
<path d="M504.101,224.065h 6.56413" fill="none" stroke="black"/>
<path d="M504.101,217.9h 6.56413" fill="none" stroke="black"/>
<path d="M504.101,213.527h 6.56413" fill="none" stroke="black"/>
<path d="M504.101,210.134h 6.56413" fill="none" stroke="black"/>
<path d="M504.101,207.362h 6.56413" fill="none" stroke="black"/>
<path d="M504.101,205.018h 6.56413" fill="none" stroke="black"/>
<path d="M504.101,202.988h 6.56413" fill="none" stroke="black"/>
<path d="M504.101,201.197h 6.56413" fill="none" stroke="black"/>
<path d="M497.537,199.595h 13.1283" fill="none" stroke="black"/>
<path d="M504.101,189.057h 6.56413" fill="none" stroke="black"/>
<path d="M504.101,182.892h 6.56413" fill="none" stroke="black"/>
<path d="M504.101,178.518h 6.56413" fill="none" stroke="black"/>
<path d="M504.101,175.126h 6.56413" fill="none" stroke="black"/>
<path d="M504.101,172.354h 6.56413" fill="none" stroke="black"/>
<path d="M504.101,170.01h 6.56413" fill="none" stroke="black"/>
<path d="M504.101,167.98h 6.56413" fill="none" stroke="black"/>
<path d="M504.101,166.189h 6.56413" fill="none" stroke="black"/>
<path d="M497.537,164.587h 13.1283" fill="none" stroke="black"/>
<path d="M504.101,154.048h 6.56413" fill="none" stroke="black"/>
<path d="M504.101,147.884h 6.56413" fill="none" stroke="black"/>
<path d="M504.101,143.51h 6.56413" fill="none" stroke="black"/>
<path d="M504.101,140.117h 6.56413" fill="none" stroke="black"/>
<path d="M504.101,137.345h 6.56413" fill="none" stroke="black"/>
<path d="M504.101,135.002h 6.56413" fill="none" stroke="black"/>
<path d="M504.101,132.971h 6.56413" fill="none" stroke="black"/>
<path d="M504.101,131.181h 6.56413" fill="none" stroke="black"/>
<path d="M497.537,129.579h 13.1283" fill="none" stroke="black"/>
<path d="M504.101,119.04h 6.56413" fill="none" stroke="black"/>
<path d="M504.101,112.875h 6.56413" fill="none" stroke="black"/>
<path d="M504.101,108.502h 6.56413" fill="none" stroke="black"/>
<path d="M504.101,105.109h 6.56413" fill="none" stroke="black"/>
<path d="M504.101,102.337h 6.56413" fill="none" stroke="black"/>
<path d="M504.101,99.9932h 6.56413" fill="none" stroke="black"/>
<path d="M504.101,97.963h 6.56413" fill="none" stroke="black"/>
<path d="M504.101,96.1723h 6.56413" fill="none" stroke="black"/>
<path d="M497.537,94.5704h 13.1283" fill="none" stroke="black"/>
<path d="M504.101,84.0318h 6.56413" fill="none" stroke="black"/>
<path d="M504.101,77.8671h 6.56413" fill="none" stroke="black"/>
<path d="M504.101,73.4932h 6.56413" fill="none" stroke="black"/>
<path d="M504.101,70.1006h 6.56413" fill="none" stroke="black"/>
<path d="M504.101,67.3286h 6.56413" fill="none" stroke="black"/>
<path d="M504.101,64.9849h 6.56413" fill="none" stroke="black"/>
<path d="M504.101,62.9547h 6.56413" fill="none" stroke="black"/>
<path d="M504.101,61.1639h 6.56413" fill="none" stroke="black"/>
<path d="M497.537,59.562h 13.1283" fill="none" stroke="black"/>
<path d="M504.101,49.0235h 6.56413" fill="none" stroke="black"/>
<path d="M504.101,42.8588h 6.56413" fill="none" stroke="black"/>
<path d="M504.101,38.4849h 6.56413" fill="none" stroke="black"/>
<path d="M504.101,35.0923h 6.56413" fill="none" stroke="black"/>
<path d="M504.101,32.3203h 6.56413" fill="none" stroke="black"/>
<path d="M504.101,29.9766h 6.56413" fill="none" stroke="black"/>
<path d="M57.1929,36.8081v -7.46952" fill="none" stroke="black"/>
<path d="M75.3318,36.8081v -7.46952" fill="none" stroke="black"/>
<path d="M93.4707,36.8081v -7.46952" fill="none" stroke="black"/>
<path d="M111.61,36.8081v -7.46952" fill="none" stroke="black"/>
<path d="M129.749,36.8081v -7.46952" fill="none" stroke="black"/>
<path d="M147.887,36.8081v -7.46952" fill="none" stroke="black"/>
<path d="M166.026,36.8081v -7.46952" fill="none" stroke="black"/>
<path d="M184.165,36.8081v -7.46952" fill="none" stroke="black"/>
<path d="M202.304,36.8081v -7.46952" fill="none" stroke="black"/>
<path d="M220.443,36.8081v -7.46952" fill="none" stroke="black"/>
<path d="M238.582,36.8081v -7.46952" fill="none" stroke="black"/>
<path d="M256.721,36.8081v -7.46952" fill="none" stroke="black"/>
<path d="M274.86,36.8081v -7.46952" fill="none" stroke="black"/>
<path d="M292.999,36.8081v -7.46952" fill="none" stroke="black"/>
<path d="M311.138,36.8081v -7.46952" fill="none" stroke="black"/>
<path d="M329.277,36.8081v -7.46952" fill="none" stroke="black"/>
<path d="M347.415,36.8081v -7.46952" fill="none" stroke="black"/>
<path d="M365.554,36.8081v -7.46952" fill="none" stroke="black"/>
<path d="M383.693,36.8081v -7.46952" fill="none" stroke="black"/>
<path d="M401.832,36.8081v -7.46952" fill="none" stroke="black"/>
<path d="M419.971,36.8081v -7.46952" fill="none" stroke="black"/>
<path d="M438.11,36.8081v -7.46952" fill="none" stroke="black"/>
<path d="M456.249,36.8081v -7.46952" fill="none" stroke="black"/>
<path d="M474.388,36.8081v -7.46952" fill="none" stroke="black"/>
<path d="M492.527,36.8081v -7.46952" fill="none" stroke="black"/>
<path d="M510.666,36.8081v -7.46952" fill="none" stroke="black"/></svg>
