<?xml version="1.0" standalone="no"?>
<svg width="567.429" height="311.778" viewBox="0 0 567.429 311.778" xmlns="http://www.w3.org/2000/svg" shape-rendering="crispEdges">
<title>
Yields/P1/det-12/run_0104_Fit.svg
</title>
<desc>
Creator: ROOT Version 6.12/06
CreationDate: Mon Apr 15 10:29:02 2019</desc>
<defs>
</defs>
<rect x="0.5" y="0" width="566.929" height="311.278" fill="white"/>
<rect x="57.1929" y="31.1278" width="453.543" height="249.023" fill="white"/>
<rect x="57.1929" y="31.1278" width="453.543" height="249.023" fill="none" stroke="black"/>
<rect x="57.1929" y="31.1278" width="453.543" height="249.023" fill="white"/>
<rect x="57.1929" y="31.1278" width="453.543" height="249.023" fill="none" stroke="black"/>
<path d="M57.1929,40.7957h 0.181345v 239.355h 8.88589v -10.4858h 0.181345v 10.4858h 9.42993v -10.4858h 0.181345v 10.4858h 1.81345v -10.4858h 0.36269v 10.4858h 0.906724v -10.4858h 0.181345v 10.4858h 1.45076v -10.4858h 0.181345v 10.4858h 0.544034v
 -20.9715h 0.181345v 20.9715h 2.53883v -10.4858h 0.181345v 10.4858h 1.08807v -20.9715h 0.181345v 20.9715h 0.36269v -10.4858h 0.36269v 10.4858h 1.08807v -10.4858h 0.36269v -16.6195h 0.181345v 27.1053h 0.181345v -37.5911h 0.181345v 6.13378h 0.181345v
 -19.9952h 0.181345v -13.2439h 0.181345v -13.5215h 0.181345v -9.23186h 0.181345v -9.52189h 0.181345v -4.81749h 0.181345v -3.87403h 0.181345v -2.94374h 0.181345v -1.154h 0.181345v -0.912086h 0.181345v -0.992659h 0.181345v -1.41955h 0.181345v
 -0.0684515h 0.181345v -0.684329h 0.181345v -0.338876h 0.181345v -0.502212h 0.181345v -1.15853h 0.181345v 1.11229h 0.181345v -1.59079h 0.181345v 0.265529h 0.181345v -0.389697h 0.181345v 0.34746h 0.181345v -0.72737h 0.181345v 0.311365h 0.181345v
 -0.511031h 0.181345v 0.579575h 0.181345v -0.460093h 0.181345v 0.0935878h 0.181345v -0.199841h 0.181345v -0.911664h 0.181345v 1.60218h 0.181345v -0.8616h 0.181345v 0.505636h 0.181345v -1.49341h 0.181345v 0.909455h 0.181345v -0.699601h 0.181345v
 0.0373371h 0.181345v 0.378529h 0.181345v 0.533135h 0.181345v -0.22334h 0.181345v -0.92325h 0.181345v 0.460906h 0.181345v 0.410269h 0.181345v -0.747985h 0.181345v 0.426516h 0.181345v -0.475912h 0.181345v 0.706679h 0.181345v -1.06006h 0.181345v
 0.564443h 0.181345v 0.214046h 0.181345v 1.06365h 0.181345v -0.362922h 0.181345v -0.184809h 0.181345v 0.574964h 0.181345v -0.176142h 0.181345v 0.745497h 0.181345v -0.852881h 0.181345v 0.13435h 0.181345v -0.979697h 0.181345v -0.788596h 0.181345v
 -1.79779h 0.181345v -2.53617h 0.181345v -3.27072h 0.181345v -2.90507h 0.181345v -3.33725h 0.181345v -3.50299h 0.181345v -2.70272h 0.181345v -3.34054h 0.181345v -1.84899h 0.181345v -1.58232h 0.181345v -1.36547h 0.181345v -0.35709h 0.181345v
 -0.0381533h 0.181345v 0.739991h 0.181345v 1.17851h 0.181345v 1.78875h 0.181345v 2.82643h 0.181345v 3.38754h 0.181345v 3.94383h 0.181345v 3.89611h 0.181345v 3.84213h 0.181345v 4.93048h 0.181345v 3.80632h 0.181345v 3.35209h 0.181345v 2.12859h
 0.181345v 4.03888h 0.181345v 0.672456h 0.181345v 0.213071h 0.181345v 0.855215h 0.181345v 0.373544h 0.181345v 1.21087h 0.181345v -0.0942543h 0.181345v -0.553516h 0.181345v 0.397719h 0.181345v -0.276454h 0.181345v 0.122245h 0.181345v 0.949753h
 0.181345v 0.464485h 0.181345v -1.68791h 0.181345v 0.996427h 0.181345v 0.997796h 0.181345v 0.172891h 0.181345v 0.0697133h 0.181345v -0.915059h 0.181345v 0.535552h 0.181345v 0.068297h 0.181345v 0.416387h 0.181345v -0.209626h 0.181345v 0.069553h
 0.181345v -0.412601h 0.181345v 0.412601h 0.181345v -1.14099h 0.181345v 2.11267h 0.181345v -0.47564h 0.181345v 0.290927h 0.181345v -0.398599h 0.181345v 0.732722h 0.181345v -0.696917h 0.181345v 0.071866h 0.181345v -0.634824h 0.181345v 1.75591h
 0.181345v 0.674219h 0.181345v -0.943335h 0.181345v 0.622309h 0.181345v 0.649011h 0.181345v -1.23317h 0.181345v 1.44183h 0.181345v 0.126593h 0.181345v 0.213371h 0.181345v -0.0429157h 0.181345v 0.836974h 0.181345v 0.60057h 0.181345v -1.13455h
 0.181345v -0.557966h 0.181345v 0.427366h 0.181345v 1.17119h 0.181345v -0.864679h 0.181345v 1.63324h 0.181345v -0.674598h 0.181345v -0.418306h 0.181345v 0.607998h 0.181345v -0.880578h 0.181345v 1.51404h 0.181345v -1.55899h 0.181345v 1.55899h
 0.181345v -0.585664h 0.181345v -0.0954436h 0.181345v -0.877887h 0.181345v 0.409498h 0.181345v 0.756546h 0.181345v 1.74547h 0.181345v 0.109226h 0.181345v -1.46175h 0.181345v -0.870207h 0.181345v 1.12109h 0.181345v -0.497669h 0.181345v 0.856042h
 0.181345v -1.75875h 0.181345v 1.81065h 0.181345v 1.13309h 0.181345v -0.0559252h 0.181345v 0.112058h 0.181345v 0.57309h 0.181345v -0.346452h 0.36269v -0.505241h 0.181345v 0.735326h 0.181345v 0.895395h 0.181345v -2.64495h 0.181345v 0.418788h 0.181345v
 1.74204h 0.181345v -1.36584h 0.181345v -0.587041h 0.181345v 0.532723h 0.181345v 0.384392h 0.181345v -0.438516h 0.181345v -1.49087h 0.181345v 0.447158h 0.181345v -1.11749h 0.181345v -0.820381h 0.181345v -0.220204h 0.181345v -1.6941h 0.181345v
 -0.385933h 0.181345v -0.887947h 0.181345v -1.10825h 0.181345v -0.362952h 0.181345v -0.544338h 0.181345v 1.109h 0.181345v -1.90538h 0.181345v 1.0501h 0.181345v 0.193123h 0.181345v -0.0323589h 0.181345v 0.762348h 0.181345v 0.910742h 0.181345v 2.33797h
 0.181345v -0.978957h 0.181345v 2.25316h 0.181345v 1.54302h 0.181345v -0.935021h 0.181345v 1.504h 0.181345v 1.72917h 0.181345v -1.78179h 0.181345v -0.052436h 0.181345v 2.62263h 0.181345v 0.0623826h 0.181345v -0.732131h 0.181345v -0.411265h 0.181345v
 2.04489h 0.181345v -1.57395h 0.181345v 0.797998h 0.181345v -0.311924h 0.181345v -1.74745h 0.181345v 2.31363h 0.181345v -1.17137h 0.181345v 2.86528h 0.181345v -1.69391h 0.181345v 1.83799h 0.181345v 0.0725553h 0.181345v -3.08191h 0.181345v 1.17137h
 0.181345v -1.63867h 0.181345v 0.706483h 0.181345v 2.20193h 0.181345v -1.64954h 0.181345v 0.769374h 0.181345v 0.81061h 0.181345v 0.069553h 0.181345v -1.64954h 0.181345v -2.42099h 0.181345v 1.51124h 0.181345v 1.6135h 0.181345v -0.387913h 0.181345v
 -0.502212h 0.181345v 0.824778h 0.181345v -1.00889h 0.181345v 2.30149h 0.181345v -0.761741h 0.181345v -1.29376h 0.181345v -2.0819h 0.181345v 1.00517h 0.181345v -0.787496h 0.181345v 0.903418h 0.181345v -1.12109h 0.181345v -0.107671h 0.181345v
 0.161796h 0.181345v -0.637052h 0.181345v -1.53136h 0.181345v 0.380593h 0.181345v 0.242826h 0.181345v 1.17012h 0.181345v 0.26681h 0.181345v -1.5831h 0.181345v 2.18719h 0.181345v -0.870903h 0.181345v 1.15367h 0.181345v -0.394415h 0.181345v 2.40629h
 0.181345v -2.12562h 0.181345v 3.34736h 0.181345v -2.35214h 0.181345v 1.52678h 0.181345v -0.972139h 0.181345v 0.0629014h 0.181345v 0.063164h 0.181345v 2.77078h 0.181345v -2.70735h 0.181345v 0.256409h 0.181345v 1.07144h 0.181345v 0.280152h 0.181345v
 -0.0705258h 0.181345v -1.40981h 0.181345v 1.98345h 0.181345v -3.44857h 0.181345v 5.14837h 0.181345v -1.84526h 0.181345v -1.44841h 0.181345v 0.399876h 0.181345v 1.48918h 0.181345v -1.42149h 0.181345v 1.27318h 0.181345v -0.146873h 0.181345v -2.04741h
 0.181345v 0.921105h 0.181345v 2.18568h 0.181345v -3.29708h 0.181345v -0.0629014h 0.181345v 1.17429h 0.181345v -0.13507h 0.181345v 1.70634h 0.181345v -1.97292h 0.181345v -0.261959h 0.181345v 1.57224h 0.181345v -3.68935h 0.181345v 2.917h 0.181345v
 0.557769h 0.181345v 2.63081h 0.181345v -3.05106h 0.181345v -0.675459h 0.181345v -0.959799h 0.181345v -0.667063h 0.181345v 1.30012h 0.181345v 0.459447h 0.181345v 0.681546h 0.181345v 0.640801h 0.181345v -1.8463h 0.181345v 1.91921h 0.181345v -1.32846h
 0.181345v -0.526236h 0.181345v 0.26083h 0.181345v 0.535552h 0.181345v -1.67542h 0.181345v 1.20578h 0.181345v -0.83529h 0.181345v 1.78961h 0.181345v 1.09405h 0.181345v -1.16425h 0.181345v -0.617545h 0.181345v -1.10187h 0.181345v 1.23694h 0.181345v
 -0.598539h 0.181345v 0.872352h 0.181345v 1.44874h 0.181345v -2.1242h 0.181345v 0.1327h 0.181345v -2.68017h 0.181345v 2.28551h 0.181345v -1.24579h 0.181345v 1.77432h 0.181345v 0.339964h 0.181345v -0.803433h 0.181345v -1.89727h 0.181345v 1.13437h
 0.181345v -0.427884h 0.181345v 0.615034h 0.181345v -1.32152h 0.181345v 0.766873h 0.181345v 1.19575h 0.181345v -0.890125h 0.181345v 1.08788h 0.181345v -0.328164h 0.181345v -0.821333h 0.181345v 0.886398h 0.181345v 0.872352h 0.181345v -1.0022h
 0.181345v 0.933285h 0.181345v -0.738086h 0.181345v 0.197751h 0.181345v 1.10069h 0.181345v -1.87664h 0.181345v 1.38521h 0.181345v 2.22869h 0.181345v -0.703744h 0.181345v -1.03352h 0.181345v 1.97931h 0.181345v -2.74455h 0.181345v 2.18568h 0.181345v
 0.236993h 0.181345v -0.470331h 0.181345v 0.155158h 0.181345v -1.34226h 0.181345v 2.9882h 0.181345v -2.18217h 0.181345v 0.931233h 0.181345v -1.15535h 0.181345v 2.3196h 0.181345v -1.00331h 0.181345v -1.46388h 0.181345v 2.46719h 0.181345v -0.257135h
 0.181345v -0.826859h 0.181345v 2.43963h 0.181345v -1.69752h 0.181345v -1.52611h 0.181345v 2.85008h 0.181345v -2.06608h 0.181345v -0.318491h 0.181345v 1.93025h 0.181345v -1.03774h 0.181345v 1.30869h 0.181345v 1.23367h 0.181345v -2.62571h 0.181345v
 2.13924h 0.181345v -1.37204h 0.181345v 0.993822h 0.181345v 0.0936706h 0.181345v -1.93759h 0.181345v -0.327099h 0.181345v 3.84812h 0.181345v -1.7702h 0.181345v 1.4604h 0.181345v -2.0965h 0.181345v 1.89344h 0.181345v -2.67384h 0.181345v 0.869651h
 0.181345v 0.92271h 0.181345v -1.36378h 0.36269v 2.24526h 0.181345v 0.101189h 0.181345v -0.201706h 0.181345v -0.297605h 0.181345v -0.578201h 0.181345v 2.91016h 0.181345v -2.71987h 0.181345v 0.585664h 0.181345v 1.90671h 0.181345v -4.0383h 0.181345v
 3.37566h 0.181345v 1.00517h 0.181345v -2.34844h 0.181345v 0.708453h 0.181345v -0.103262h 0.181345v -1.09166h 0.181345v -0.928375h 0.181345v 2.02003h 0.181345v -0.703744h 0.181345v -2.02003h 0.181345v 2.51934h 0.181345v 0.101871h 0.181345v 0.102561h
 0.181345v -1.46987h 0.181345v 0.187925h 0.181345v 2.91016h 0.181345v -0.227489h 0.181345v -1.19349h 0.36269v -1.20284h 0.181345v 0.791174h 0.181345v 0.727936h 0.181345v 0.10691h 0.36269v 0.997796h 0.181345v -2.33195h 0.181345v -0.1952h 0.181345v
 1.21087h 0.181345v 0.426162h 0.181345v 0.32769h 0.181345v -0.648432h 0.181345v 0.648432h 0.181345v -0.648432h 0.181345v 0.870903h 0.181345v -2.18719h 0.181345v 1.10618h 0.181345v 1.65194h 0.181345v -1.65194h 0.181345v 0.639296h 0.181345v -1.45172h
 0.181345v 1.56095h 0.181345v -1.95136h 0.181345v -0.843251h 0.181345v 2.04609h 0.181345v -1.7702h 0.181345v 2.96369h 0.181345v -2.29966h 0.181345v 0.293752h 0.181345v -0.0985525h 0.181345v 0.703744h 0.181345v 0.417344h 0.181345v -1.219h 0.181345v
 1.43207h 0.181345v -1.13641h 0.36269v 3.20249h 0.181345v -4.16637h 0.181345v -1.08101h 0.181345v 2.96823h 0.181345v -1.31629h 0.181345v 0.392951h 0.181345v 1.24408h 0.181345v -1.82974h 0.181345v -0.655795h 0.36269v 0.0919623h 0.181345v -1.6583h
 0.181345v 1.38407h 0.181345v -1.04975h 0.36269v -1.97772h 0.181345v 0.917115h 0.181345v 0.480287h 0.181345v -1.83592h 0.181345v -1.11079h 0.181345v 1.25556h 0.181345v 0.821957h 0.181345v -0.228635h 0.181345v -0.0754503h 0.181345v -0.877217h
 0.181345v -1.35766h 0.181345v 1.71701h 0.181345v -1.91054h 0.181345v 2.13032h 0.181345v -0.64998h 0.181345v 0.723954h 0.181345v 0.074338h 0.181345v -1.2852h 0.181345v 0.0686067h 0.181345v 2.21778h 0.181345v -0.236993h 0.181345v -1.91187h 0.181345v
 3.22103h 0.181345v -2.514h 0.181345v 0.817916h 0.181345v 1.44183h 0.181345v -2.54654h 0.181345v 1.33567h 0.181345v -0.976323h 0.181345v 0.293752h 0.181345v -2.07555h 0.181345v 0.0647871h 0.181345v 1.07621h 0.181345v -1.89754h 0.181345v -1.35212h
 0.181345v -2.14604h 0.181345v -2.30404h 0.181345v -2.39766h 0.181345v 1.15138h 0.181345v -3.00057h 0.181345v -2.66287h 0.181345v -0.801145h 0.181345v -1.11569h 0.181345v -1.70104h 0.181345v -0.694243h 0.181345v -0.663776h 0.181345v -1.71373h
 0.181345v 0.171518h 0.181345v -0.756966h 0.181345v -0.516136h 0.181345v 0.548986h 0.181345v 0.366146h 0.181345v 0.32351h 0.181345v 0.722605h 0.181345v 0.34694h 0.181345v 0.0555148h 0.181345v 1.9566h 0.181345v 0.105863h 0.181345v 3.55197h 0.181345v
 0.659027h 0.181345v 0.86633h 0.181345v 1.20591h 0.181345v 2.2891h 0.181345v 0.926479h 0.181345v 3.12887h 0.181345v 0.701412h 0.181345v 3.69961h 0.181345v 3.85806h 0.181345v -2.19856h 0.181345v 3.52253h 0.181345v -1.57541h 0.181345v 1.8547h 0.181345v
 1.17177h 0.181345v 1.16019h 0.181345v 1.98874h 0.181345v -2.31408h 0.181345v -0.318491h 0.181345v 0.976323h 0.181345v 1.04371h 0.181345v -0.817916h 0.181345v 4.16359h 0.181345v -0.58756h 0.181345v -2.63758h 0.181345v 2.21141h 0.181345v -2.68792h
 0.181345v 2.82864h 0.181345v -3.29059h 0.181345v 1.18246h 0.181345v 1.41725h 0.181345v -0.13447h 0.181345v -1.76691h 0.181345v 3.16863h 0.181345v -2.18437h 0.181345v 3.24907h 0.181345v -4.46971h 0.181345v -0.461952h 0.181345v 3.01044h 0.181345v
 -1.70449h 0.181345v 1.98464h 0.181345v 0.285438h 0.181345v -3.34682h 0.181345v 1.97062h 0.181345v -1.8547h 0.181345v -1.96173h 0.181345v 3.81643h 0.36269v 0.81061h 0.181345v 2.56505h 0.181345v -1.4119h 0.181345v -2.60759h 0.181345v 0.775953h
 0.181345v -0.521699h 0.181345v -3.32429h 0.181345v 4.80463h 0.181345v -1.608h 0.181345v 1.32785h 0.181345v -0.138154h 0.181345v 0.848508h 0.181345v 1.69115h 0.181345v -1.97931h 0.181345v -0.967401h 0.181345v -0.526236h 0.181345v 1.92796h 0.36269v
 0.907938h 0.181345v -0.760349h 0.181345v -1.14226h 0.181345v 3.0357h 0.181345v -3.0357h 0.181345v 2.37787h 0.181345v -3.05032h 0.181345v 1.96376h 0.181345v -0.296632h 0.181345v -3.04904h 0.181345v 3.19663h 0.181345v 1.56095h 0.181345v -0.955755h
 0.181345v 0.311924h 0.181345v -0.465506h 0.181345v 2.66671h 0.181345v -3.11832h 0.181345v 2.75812h 0.181345v -3.76222h 0.181345v 4.30579h 0.181345v -2.54134h 0.181345v -0.30874h 0.181345v 1.44183h 0.181345v -0.817916h 0.181345v -1.79948h 0.181345v
 0.723954h 0.181345v 0.299569h 0.181345v 1.59387h 0.181345v -0.976323h 0.181345v -0.465506h 0.181345v -0.302565h 0.181345v 0.926479h 0.181345v -0.623914h 0.181345v 2.30651h 0.181345v -2.15293h 0.181345v 0.79221h 0.181345v -0.79221h 0.36269v 0.630414h
 0.181345v 2.06608h 0.181345v -0.364542h 0.181345v -2.1768h 0.181345v -0.611306h 0.181345v 1.24836h 0.181345v -1.54499h 0.181345v -0.576365h 0.181345v -0.690885h 0.181345v -2.8255h 0.181345v -1.99199h 0.181345v -0.483356h 0.181345v -1.27659h
 0.181345v -2.19391h 0.181345v -0.809952h 0.181345v -2.19822h 0.181345v -2.61276h 0.181345v -1.53638h 0.181345v -2.10814h 0.181345v -0.720506h 0.181345v -1.69904h 0.181345v -3.53552h 0.181345v -0.702486h 0.181345v -1.60179h 0.181345v -1.25283h
 0.181345v -0.473454h 0.181345v -1.39553h 0.181345v -0.531519h 0.181345v -0.386732h 0.181345v 0.238237h 0.181345v -0.364982h 0.181345v -0.214836h 0.181345v -0.558412h 0.181345v 0.845543h 0.181345v 0.704606h 0.181345v 1.26633h 0.181345v 0.22874h
 0.181345v 0.598351h 0.181345v 1.3679h 0.181345v 0.90966h 0.181345v 2.68229h 0.181345v -0.852908h 0.181345v 3.56269h 0.181345v 2.81613h 0.181345v 1.41569h 0.181345v 2.10232h 0.181345v 2.57223h 0.181345v 3.42465h 0.181345v 2.00835h 0.181345v
 0.0936706h 0.181345v 1.07058h 0.181345v 5.83421h 0.181345v -1.27916h 0.181345v 1.73077h 0.181345v 3.22362h 0.181345v -2.75812h 0.181345v 3.33632h 0.181345v 1.01567h 0.181345v 3.01237h 0.181345v -1.92357h 0.181345v 2.18217h 0.181345v 0.263098h
 0.181345v -1.026h 0.181345v 3.62571h 0.181345v -5.2691h 0.181345v 4.05823h 0.181345v -2.41485h 0.36269v 2.12669h 0.181345v 1.81751h 0.181345v 0.325341h 0.181345v 4.57283h 0.181345v -7.27604h 0.181345v 3.0357h 0.181345v 1.04371h 0.181345v -2.63758h
 0.181345v -3.00817h 0.181345v 3.00817h 0.181345v -3.96898h 0.36269v 8.52403h 0.181345v -7.05891h 0.181345v 0.521699h 0.181345v -0.521699h 0.181345v -1.23058h 0.181345v 2.02003h 0.181345v -1.04371h 0.181345v 4.69195h 0.181345v 2.21778h 0.181345v
 -5.03309h 0.181345v 2.47535h 0.181345v -3.30828h 0.181345v 3.99602h 0.181345v -4.78547h 0.181345v 1.62238h 0.181345v -2.37267h 0.181345v 4.51553h 0.181345v -0.325341h 0.181345v -2.10028h 0.181345v 2.75812h 0.181345v -0.332492h 0.181345v -1.26138h
 0.181345v -0.881478h 0.181345v -0.560351h 0.181345v -1.06203h 0.181345v 2.50386h 0.181345v -0.299569h 0.181345v 1.23561h 0.181345v 2.43963h 0.181345v -3.07004h 0.181345v -0.605191h 0.181345v 3.30169h 0.181345v -2.06608h 0.36269v -2.9182h 0.181345v
 -1.026h 0.181345v 2.12669h 0.181345v 0.581909h 0.181345v -5.42533h 0.181345v 5.42533h 0.181345v -3.43487h 0.181345v 0.976323h 0.181345v 0.775953h 0.181345v 2.28779h 0.181345v -1.46987h 0.181345v 0.570927h 0.181345v -1.91054h 0.181345v 5.50598h
 0.181345v -4.44395h 0.181345v -0.803433h 0.181345v -4.08889h 0.181345v 4.35198h 0.181345v 2.9182h 0.181345v -1.23561h 0.36269v 1.89344h 0.181345v 2.55775h 0.181345v -3.53407h 0.181345v -1.21087h 0.181345v 0.293752h 0.181345v -0.293752h 0.181345v
 1.52936h 0.181345v -3.4399h 0.181345v 4.4377h 0.181345v -1.62821h 0.181345v -4.2746h 0.181345v 1.98682h 0.181345v 7.81637h 0.181345v -4.57283h 0.181345v -2.70321h 0.181345v 0.560351h 0.181345v 6.71569h 0.181345v -7.81637h 0.181345v 2.59971h
 0.181345v -1.21087h 0.181345v 0.593322h 0.181345v 1.93383h 0.181345v -2.52715h 0.181345v 0.898943h 0.181345v 4.24942h 0.181345v -2.62121h 0.181345v 2.21778h 0.181345v -5.59344h 0.181345v -0.27258h 0.181345v 4.35198h 0.181345v -1.70154h 0.181345v
 -1.23561h 0.181345v -0.864679h 0.181345v -1.08101h 0.181345v 5.24738h 0.181345v -1.74074h 0.181345v -3.76524h 0.181345v 5.50598h 0.181345v -1.74074h 0.181345v -3.24354h 0.181345v 1.38884h 0.181345v 2.52715h 0.181345v 0.34778h 0.181345v 1.09405h
 0.181345v -6.13378h 0.181345v 3.06374h 0.181345v 0.955755h 0.181345v -1.8547h 0.181345v -0.570927h 0.181345v 4.53991h 0.181345v -2.43963h 0.181345v 6.79161h 0.181345v -5.79381h 0.181345v 7.38768h 0.181345v -5.56285h 0.181345v -4.92291h 0.36269v
 3.44586h 0.36269v 1.09405h 0.181345v -0.738086h 0.181345v 1.51404h 0.181345v -5.03309h 0.181345v 1.81751h 0.181345v 0.997796h 0.181345v 3.0357h 0.181345v -1.96741h 0.181345v -2.6965h 0.181345v 1.97599h 0.181345v 1.09405h 0.181345v 1.59387h 0.181345v
 -3.0357h 0.181345v -0.997796h 0.36269v 9.54973h 0.181345v -9.22439h 0.181345v 5.48995h 0.181345v -2.19628h 0.181345v -1.55293h 0.181345v 3.74921h 0.181345v -4.11375h 0.181345v 0.738086h 0.181345v 1.59387h 0.181345v -3.37566h 0.181345v 2.16479h
 0.181345v -5.20049h 0.181345v 2.37787h 0.181345v 5.81529h 0.181345v 2.02003h 0.181345v -2.93715h 0.181345v 0.451608h 0.544034v -1.31629h 0.181345v 1.78179h 0.181345v -1.35563h 0.181345v 2.33195h 0.181345v -0.496037h 0.181345v 1.53974h 0.181345v
 -2.93715h 0.181345v -2.83209h 0.181345v 6.3194h 0.181345v -3.92582h 0.181345v 1.35563h 0.181345v 7.88605h 0.181345v -12.3558h 0.181345v 5.95889h 0.181345v 3.50664h 0.181345v -4.51553h 0.181345v 5.89173h 0.181345v -8.15381h 0.181345v 2.75812h
 0.181345v 3.37566h 0.181345v 1.31629h 0.181345v -3.09808h 0.36269v 5.31586h 0.181345v -0.775953h 0.181345v -8.02722h 0.181345v 0.451608h 0.181345v 12.9713h 0.181345v -8.77135h 0.181345v 6.75132h 0.181345v -1.78179h 0.181345v -3.0357h 0.181345v
 -0.672456h 0.181345v 0.672456h 0.181345v 5.79381h 0.181345v -5.09007h 0.181345v 3.19663h 0.181345v 4.05823h 0.181345v -1.12109h 0.181345v 2.33195h 0.181345v -7.72765h 0.181345v -0.738086h 0.181345v 4.11375h 0.181345v -2.59971h 0.181345v -4.74494h
 0.181345v 1.8547h 0.181345v 12.6h 0.181345v -10.4858h 0.181345v 9.04393h 0.181345v -3.64824h 0.181345v -5.39569h 0.36269v 5.39569h 0.181345v -1.04371h 0.181345v -2.75812h 0.181345v 6.13378h 0.181345v -3.37566h 0.181345v 1.04371h 0.181345v 2.33195h
 0.181345v -7.72765h 0.181345v 2.45855h 0.181345v 0.917115h 0.181345v 4.35198h 0.181345v -1.21087h 0.181345v 3.96898h 0.181345v -10.4858h 0.181345v 9.04393h 0.36269v -3.64824h 0.36269v -2.02003h 0.181345v -0.917115h 0.181345v -3.19663h 0.181345v
 2.33195h 0.181345v 1.78179h 0.36269v 2.02003h 0.181345v -2.02003h 0.181345v -8.46573h 0.181345v 6.68394h 0.181345v -3.0357h 0.181345v -1.31629h 0.181345v -2.33195h 0.181345v -0.530853h 0.181345v 1.08101h 0.181345v 0.570927h 0.36269v -3.14112h
 0.181345v -3.74921h 0.181345v 1.55293h 0.181345v -2.27343h 0.36269v -2.28161h 0.181345v -0.881478h 0.181345v 4.25714h 0.181345v -3.96898h 0.181345v -0.288156h 0.181345v 7.1673h 0.181345v -1.73077h 0.181345v -2.62121h 0.181345v -1.93383h 0.181345v
 0.617545h 0.181345v 0.643832h 0.181345v 1.74074h 0.181345v -3.30169h 0.181345v 1.23561h 0.181345v 8.38548h 0.181345v -2.57019h 0.181345v -0.917115h 0.181345v -2.07555h 0.181345v 2.07555h 0.181345v 0.917115h 0.181345v 0.976323h 0.181345v 5.39569h
 0.181345v 6.13378h 0.181345v -8.15381h 0.181345v 3.53407h 0.181345v 0.817916h 0.181345v 3.80182h 0.36269v 1.12109h 0.181345v 2.52715h 0.181345v -3.64824h 0.181345v -5.39569h 0.181345v 0.775953h 0.181345v -0.775953h 0.36269v 1.59387h 0.181345v
 0.864679h 0.181345v -3.90038h 0.181345v -4.69195h 0.181345v -0.496037h 0.181345v -2.26208h 0.181345v 1.31629h 0.181345v 0.465506h 0.181345v -3.74921h 0.181345v -2.38457h 0.181345v 1.66407h 0.181345v -3.16309h 0.181345v -0.832931h 0.181345v -3.80182h
 0.181345v -1.96741h 0.181345v 1.75875h 0.181345v -4.30009h 0.181345v -1.34226h 0.181345v -0.832931h 0.181345v -1.29376h 0.181345v -1.30595h 0.181345v 0.345135h 0.181345v -0.345135h 0.181345v -1.71847h 0.181345v -0.400759h 0.181345v -0.486465h
 0.181345v -1.97208h 0.181345v 1.68754h 0.181345v -2.18358h 0.181345v 0.245985h 0.181345v 0.419078h 0.181345v 1.80306h 0.181345v -2.62991h 0.181345v 1.43378h 0.181345v 0.540335h 0.181345v -2.3712h 0.36269v -1.56248h 0.181345v 0.576365h 0.181345v
 3.82282h 0.181345v -4.32833h 0.181345v -1.35766h 0.181345v -0.69784h 0.181345v 0.44034h 0.181345v -1.22559h 0.181345v 0.237303h 0.181345v -2.01255h 0.181345v 1.95288h 0.181345v -1.58195h 0.181345v 0.490673h 0.181345v -0.544223h 0.181345v -0.882487h
 0.181345v -0.150526h 0.181345v 1.4119h 0.181345v -0.432251h 0.181345v 1.62942h 0.181345v -0.293752h 0.181345v -0.95813h 0.181345v -0.0545145h 0.181345v 2.22351h 0.181345v 0.190289h 0.181345v 0.65216h 0.181345v 2.06771h 0.181345v 1.86799h 0.181345v
 1.73863h 0.181345v -0.0966633h 0.181345v 0.489614h 0.181345v -0.392951h 0.181345v 2.99266h 0.181345v 1.35932h 0.181345v 1.63703h 0.181345v 4.69195h 0.181345v 1.88035h 0.181345v -1.07334h 0.181345v 1.07334h 0.181345v 2.66939h 0.181345v 6.13378h
 0.181345v 0.817916h 0.181345v -0.817916h 0.181345v -3.21558h 0.181345v 6.79161h 0.181345v 3.37566h 0.181345v -3.8717h 0.181345v 7.40577h 0.181345v -6.39688h 0.181345v 11.0166h 0.181345v 1.12109h 0.181345v -4.05823h 0.181345v 4.05823h 0.181345v
 -2.16479h 0.181345v 2.16479h 0.181345v 2.52715h 0.181345v 1.44183h 0.181345v 1.59387h 0.181345v 8.89189h 0.181345v -13.2439h 0.181345v 1.31629h 0.181345v 9.16948h 0.181345v -7.72765h 0.36269v 7.72765h 0.181345v 2.75812h 0.181345v 7.72765h 0.181345v
 -7.72765h 0.181345v -13.2439h 0.181345v 10.4858h 0.181345v -4.35198h 0.181345v 4.35198h 0.181345v -2.33195h 0.36269v 8.46573h 0.181345v 4.35198h 0.181345v -4.35198h 0.181345v -12.2676h 0.36269v 12.2676h 0.181345v -8.46573h 0.181345v 2.33195h
 0.181345v 6.13378h 0.181345v -6.13378h 0.181345v 6.13378h 0.181345v -3.37566h 0.181345v 13.8614h 0.181345v -13.8614h 0.36269v 3.37566h 0.181345v -6.13378h 0.181345v 6.13378h 0.181345v 4.35198h 0.181345v -12.8177h 0.181345v 8.46573h 0.181345v
 -6.13378h 0.181345v 37.5911h 0.181345v -39.923h 0.181345v 5.09007h 0.181345v -2.75812h 0.181345v 37.5911h 0.181345v -37.5911h 0.181345v 6.13378h 0.181345v -10.4858h 0.181345v 14.8377h 0.181345v -4.35198h 0.181345v 4.35198h 0.181345v 6.13378h
 0.181345v 20.9715h 0.181345v -27.1053h 0.181345v -4.35198h 0.181345v -3.37566h 0.181345v -5.09007h 0.36269v 29.4373h 0.181345v -16.6195h 0.181345v 6.13378h 0.181345v -25.789h 0.181345v 36.2748h 0.181345v -16.6195h 0.181345v -10.4858h 0.181345v
 6.13378h 0.181345v -12.2676h 0.181345v 12.2676h 0.181345v -8.46573h 0.36269v -5.39569h 0.181345v 10.4858h 0.544034v -13.2439h 0.181345v 1.31629h 0.181345v 11.9276h 0.181345v -10.4858h 0.181345v -3.96898h 0.181345v -1.12109h 0.181345v 5.09007h
 0.36269v -13.2439h 0.181345v 11.8021h 0.181345v -5.66827h 0.181345v -3.37566h 0.181345v -2.75812h 0.181345v -2.33195h 0.181345v 2.97579h 0.181345v -3.50664h 0.181345v 6.39688h 0.181345v -2.21778h 0.181345v -2.52715h 0.181345v -1.12109h 0.181345v
 8.46573h 0.181345v -6.13378h 0.181345v -4.35198h 0.181345v -1.78179h 0.181345v 4.35198h 0.181345v 8.89189h 0.181345v -1.89344h 0.181345v -3.90038h 0.181345v 3.0357h 0.181345v 4.92291h 0.181345v -5.74083h 0.181345v -2.89024h 0.181345v 8.63106h
 0.181345v -7.95861h 0.181345v 6.83752h 0.181345v 10.4858h 0.181345v -10.4858h 0.181345v -2.02003h 0.36269v 8.70397h 0.181345v -7.72765h 0.181345v 7.72765h 0.181345v 3.80182h 0.181345v -5.39569h 0.181345v 7.72765h 0.181345v -6.13378h 0.181345v
 3.80182h 0.181345v -2.02003h 0.181345v 4.35198h 0.181345v 2.75812h 0.36269v 7.72765h 0.181345v -7.72765h 0.181345v 13.8614h 0.181345v -10.4858h 0.181345v 20.9715h 0.181345v -10.4858h 0.181345v -6.13378h 0.181345v -4.35198h 0.544034v 10.4858h
 0.181345v 10.4858h 0.181345v -27.1053h 0.181345v 27.1053h 0.181345v 10.4858h 0.181345v -31.4573h 0.181345v -10.4858h 0.181345v 2.02003h 0.181345v 5.09007h 0.181345v 24.3472h 0.181345v -16.6195h 0.181345v -7.72765h 0.181345v -5.09007h 0.181345v
 12.8177h 0.181345v 16.6195h 0.181345v -16.6195h 0.36269v -4.35198h 0.181345v -6.13378h 0.181345v 6.13378h 0.181345v -3.37566h 0.181345v 24.3472h 0.181345v -10.4858h 0.181345v -6.13378h 0.36269v -4.35198h 0.181345v 20.9715h 0.181345v -27.1053h
 0.181345v 10.4858h 0.181345v -4.35198h 0.544034v 4.35198h 0.181345v -4.35198h 0.181345v -6.13378h 0.181345v 10.4858h 0.181345v 6.13378h 0.181345v 10.4858h 0.181345v -10.4858h 0.36269v -6.13378h 0.181345v -4.35198h 0.544034v -6.13378h 0.181345v
 -9.16948h 0.181345v 11.9276h 0.181345v 7.72765h 0.181345v -12.8177h 0.181345v 2.33195h 0.181345v -2.33195h 0.181345v 2.33195h 0.181345v -6.13378h 0.181345v -1.59387h 0.181345v 5.39569h 0.181345v 2.33195h 0.181345v -6.13378h 0.181345v 12.2676h
 0.181345v -13.8614h 0.181345v 10.4858h 0.181345v -7.1101h 0.181345v 2.02003h 0.181345v 8.46573h 0.181345v -8.46573h 0.544034v -2.02003h 0.181345v -3.37566h 0.906724v 13.8614h 0.181345v -3.37566h 0.181345v -2.75812h 0.906724v 16.6195h 0.181345v
 -27.1053h 0.36269v 2.75812h 0.181345v 10.4858h 0.181345v -5.09007h 0.181345v -3.80182h 0.181345v 6.13378h 0.181345v -4.35198h 0.181345v 4.35198h 0.181345v -7.72765h 0.181345v 5.39569h 0.181345v 12.8177h 0.36269v -12.8177h 0.36269v 2.33195h 0.181345v
 10.4858h 0.181345v -7.72765h 0.181345v -14.4547h 0.181345v 22.1824h 0.36269v -7.72765h 0.181345v 13.8614h 0.181345v -13.8614h 0.36269v -8.89189h 0.181345v 1.78179h 0.181345v 7.1101h 0.181345v 7.72765h 0.181345v -10.4858h 0.181345v -6.13378h
 0.181345v 6.13378h 0.36269v 2.75812h 0.181345v 3.37566h 0.36269v 10.4858h 0.181345v -22.7533h 0.36269v 6.13378h 0.181345v -2.33195h 0.181345v 2.33195h 0.181345v -6.13378h 0.181345v -1.59387h 0.181345v 24.3472h 0.181345v -10.4858h 0.181345v -13.8614h
 0.181345v 13.8614h 0.181345v -3.37566h 0.181345v -5.09007h 0.181345v 8.46573h 0.181345v -8.46573h 0.181345v 5.09007h 0.181345v -7.1101h 0.181345v -4.81749h 0.181345v 4.81749h 0.36269v 10.4858h 0.181345v -6.13378h 0.181345v 2.75812h 0.181345v
 -13.2439h 0.181345v 6.13378h 0.181345v 7.1101h 0.181345v -2.75812h 0.181345v -4.35198h 0.181345v -3.37566h 0.181345v 7.72765h 0.181345v 2.75812h 0.181345v -10.4858h 0.181345v 10.4858h 0.181345v -7.1101h 0.181345v 2.02003h 0.181345v 5.09007h
 0.181345v 7.72765h 0.181345v -10.4858h 0.181345v -6.13378h 0.181345v -5.56285h 0.181345v 7.34465h 0.181345v 2.02003h 0.181345v -8.15381h 0.181345v 4.35198h 0.181345v 6.13378h 0.181345v 10.4858h 0.181345v -7.72765h 0.181345v -7.1101h 0.36269v
 -7.34465h 0.181345v 7.34465h 0.181345v -7.34465h 0.181345v 5.56285h 0.181345v -6.68394h 0.181345v 1.12109h 0.181345v 5.56285h 0.181345v -4.35198h 0.181345v 4.35198h 0.181345v 12.2676h 0.181345v -22.7533h 0.181345v 8.89189h 0.181345v 5.39569h
 0.181345v -12.5058h 0.181345v 4.35198h 0.181345v 6.13378h 0.181345v 2.02003h 0.181345v -8.15381h 0.181345v 6.13378h 0.181345v -1.78179h 0.181345v -5.56285h 0.181345v 7.34465h 0.181345v 7.1101h 0.181345v -18.513h 0.181345v 5.2691h 0.181345v -2.33195h
 0.181345v -2.93715h 0.181345v 8.02722h 0.181345v -6.13378h 0.181345v 9.50944h 0.36269v -6.13378h 0.181345v 1.31629h 0.181345v 1.44183h 0.181345v -2.75812h 0.36269v -4.35198h 0.181345v 5.66827h 0.181345v -4.69195h 0.36269v 6.13378h 0.181345v 1.59387h
 0.181345v -5.56285h 0.181345v 1.21087h 0.181345v 8.15381h 0.181345v -9.36468h 0.181345v -1.12109h 0.181345v -2.02003h 0.181345v 5.66827h 0.181345v 1.44183h 0.36269v -3.96898h 0.181345v -4.92291h 0.181345v 1.78179h 0.181345v -1.78179h 0.181345v
 2.75812h 0.181345v 4.69195h 0.181345v 1.44183h 0.181345v -6.13378h 0.36269v -0.976323h 0.181345v 2.02003h 0.181345v -1.04371h 0.181345v -5.09007h 0.181345v 7.25487h 0.181345v -7.25487h 0.181345v 5.09007h 0.181345v 2.16479h 0.181345v -3.14112h
 0.181345v 10.4858h 0.181345v -6.13378h 0.181345v -2.33195h 0.181345v 2.33195h 0.181345v -6.95169h 0.181345v 1.68259h 0.181345v -0.864679h 0.181345v 2.75812h 0.181345v -0.976323h 0.181345v -1.78179h 0.181345v -3.70815h 0.181345v -2.42562h 0.181345v
 11.0567h 0.181345v -1.12109h 0.36269v -6.13378h 0.181345v 4.11375h 0.36269v -7.34465h 0.181345v 8.32097h 0.181345v 3.37566h 0.181345v -9.16948h 0.181345v -1.93383h 0.181345v 5.83421h 0.181345v -4.57283h 0.181345v 7.50998h 0.181345v -8.15381h
 0.181345v 8.15381h 0.181345v -7.50998h 0.181345v 4.57283h 0.181345v -5.21666h 0.181345v -2.33195h 0.181345v 2.97579h 0.544034v -1.26138h 0.181345v -6.33415h 0.181345v 6.33415h 0.181345v 5.83421h 0.181345v -9.56865h 0.181345v 8.70397h 0.181345v
 -9.16948h 0.181345v 6.13378h 0.181345v -3.09808h 0.181345v 2.42562h 0.181345v 1.3762h 0.181345v -3.80182h 0.181345v -1.08101h 0.181345v 2.86281h 0.181345v -2.33195h 0.181345v 5.09007h 0.181345v -5.09007h 0.181345v -1.04371h 0.181345v 5.39569h
 0.181345v -0.703744h 0.181345v 1.44183h 0.181345v -3.96898h 0.181345v 1.21087h 0.181345v 2.02003h 0.181345v -0.703744h 0.181345v 0.703744h 0.181345v -3.80182h 0.181345v 4.53991h 0.181345v 6.51678h 0.181345v -11.6069h 0.181345v 5.86602h 0.181345v
 -2.21778h 0.181345v 6.83752h 0.181345v -6.83752h 0.181345v 1.44183h 0.36269v 1.59387h 0.181345v 2.75812h 0.181345v 1.04371h 0.181345v -1.04371h 0.181345v -2.75812h 0.181345v 2.75812h 0.181345v 3.37566h 0.181345v -3.37566h 0.181345v 1.04371h
 0.181345v -2.02003h 0.181345v -6.13378h 0.181345v 10.4858h 0.181345v -4.35198h 0.181345v -1.78179h 0.181345v -2.33195h 0.181345v 7.25487h 0.181345v 5.56285h 0.181345v -12.0796h 0.181345v 3.37566h 0.181345v 2.02003h 0.181345v -2.02003h 0.181345v
 2.02003h 0.181345v 1.12109h 0.181345v -4.05823h 0.181345v 8.02722h 0.181345v -10.4858h 0.181345v 10.4858h 0.181345v -10.4858h 0.36269v 6.51678h 0.181345v -3.14112h 0.36269v -0.917115h 0.181345v 4.05823h 0.181345v -3.14112h 0.181345v -0.917115h
 0.181345v 0.917115h 0.181345v 2.02003h 0.181345v -1.04371h 0.181345v -2.75812h 0.181345v 3.80182h 0.181345v -1.04371h 0.181345v -1.89344h 0.181345v 2.93715h 0.181345v -1.04371h 0.181345v 4.69195h 0.181345v -7.45007h 0.181345v 6.13378h 0.181345v
 -1.21087h 0.181345v -1.12109h 0.181345v 1.12109h 0.181345v -4.05823h 0.181345v 4.05823h 0.181345v -1.12109h 0.181345v 1.12109h 0.36269v 1.21087h 0.181345v 2.75812h 0.181345v -8.02722h 0.181345v 2.93715h 0.181345v 8.46573h 0.181345v -7.34465h
 0.181345v 3.96898h 0.181345v -10.4858h 0.181345v 9.04393h 0.181345v -5.66827h 0.36269v 14.8377h 0.181345v -6.13378h 0.181345v -4.35198h 0.181345v -6.13378h 0.181345v 0.864679h 0.181345v 9.62108h 0.181345v -3.0357h 0.181345v -2.52715h 0.181345v
 -3.14112h 0.181345v -0.917115h 0.181345v 13.4229h 0.181345v -17.3233h 0.181345v 6.83752h 0.181345v -3.80182h 0.181345v 7.45007h 0.181345v -5.66827h 0.181345v 4.35198h 0.181345v -6.13378h 0.181345v 8.89189h 0.181345v -7.1101h 0.181345v -3.37566h
 0.181345v 2.45855h 0.181345v 1.89344h 0.181345v 1.04371h 0.181345v -2.93715h 0.181345v 8.02722h 0.181345v -3.96898h 0.181345v 1.21087h 0.181345v -7.72765h 0.181345v 12.0796h 0.181345v -6.68394h 0.181345v -5.39569h 0.181345v -0.738086h 0.181345v
 2.33195h 0.181345v -7.21479h 0.181345v 5.62092h 0.181345v -0.738086h 0.181345v 7.25487h 0.36269v -6.51678h 0.181345v 2.45855h 0.181345v 4.05823h 0.181345v -7.25487h 0.181345v 5.09007h 0.181345v -1.89344h 0.36269v -2.45855h 0.181345v 0.775953h
 0.181345v 1.68259h 0.181345v 0.917115h 0.36269v -3.37566h 0.181345v 3.37566h 0.181345v -1.78179h 0.181345v 3.80182h 0.181345v -2.02003h 0.181345v -3.37566h 0.181345v 5.39569h 0.181345v 1.12109h 0.181345v -5.74083h 0.36269v -2.89024h 0.181345v
 -0.643832h 0.181345v 7.1101h 0.181345v -1.89344h 0.181345v 9.62108h 0.181345v -6.68394h 0.181345v -2.02003h 0.181345v -0.917115h 0.181345v 6.58539h 0.181345v -1.31629h 0.36269v -2.33195h 0.181345v -6.83752h 0.181345v 4.81749h 0.181345v -4.11375h
 0.181345v 3.19663h 0.544034v 2.93715h 0.181345v -2.02003h 0.181345v -2.59971h 0.181345v 4.61974h 0.181345v -6.13378h 0.36269v -3.2309h 0.181345v 3.96898h 0.36269v 6.51678h 0.181345v -6.51678h 0.181345v 3.37566h 0.181345v -6.13378h 0.181345v 8.15381h
 0.181345v -6.13378h 0.181345v -2.02003h 0.181345v 4.35198h 0.181345v -6.13378h 0.181345v 6.13378h 0.181345v -3.0357h 0.181345v -3.64824h 0.181345v 2.33195h 0.181345v -3.37566h 0.181345v 3.37566h 0.181345v -0.617545h 0.181345v 5.83421h 0.181345v
 -4.57283h 0.36269v -3.50664h 0.181345v 9.97291h 0.181345v -4.35198h 0.181345v 0.775953h 0.36269v -1.51404h 0.181345v -2.02003h 0.544034v -2.33195h 0.181345v 3.64824h 0.181345v -0.672456h 0.181345v 9.84193h 0.181345v 2.75812h 0.181345v -12.6h
 0.181345v 5.48995h 0.181345v -2.59971h 0.181345v 2.59971h 0.181345v -3.37566h 0.181345v 1.59387h 0.181345v 10.4858h 0.181345v -7.72765h 0.181345v -3.57603h 0.181345v -0.775953h 0.181345v 2.45855h 0.181345v -1.68259h 0.181345v -0.775953h 0.181345v
 5.39569h 0.181345v -6.13378h 0.181345v 8.46573h 0.181345v -3.37566h 0.36269v 2.16479h 0.181345v 5.56285h 0.181345v -6.68394h 0.36269v -3.80182h 0.181345v 2.75812h 0.181345v 3.37566h 0.181345v -4.35198h 0.181345v -2.59971h 0.181345v 9.70981h
 0.181345v -2.75812h 0.36269v -8.46573h 0.181345v 7.25487h 0.181345v 3.96898h 0.181345v -3.96898h 0.181345v -7.95861h 0.181345v 11.9276h 0.181345v -6.13378h 0.181345v -3.57603h 0.36269v 1.68259h 0.181345v 11.4029h 0.181345v -18.9515h 0.181345v
 17.1697h 0.181345v -6.68394h 0.181345v 5.09007h 0.181345v -6.13378h 0.181345v -2.75812h 0.181345v 6.13378h 0.181345v -2.33195h 0.36269v -1.04371h 0.36269v 4.69195h 0.181345v -8.26798h 0.181345v -1.51404h 0.181345v 7.25487h 0.181345v -10.4858h
 0.181345v 5.56285h 0.36269v 1.78179h 0.181345v 3.14112h 0.181345v -7.25487h 0.181345v -2.63758h 0.181345v 3.37566h 0.181345v 0.775953h 0.181345v 8.26798h 0.181345v -5.66827h 0.181345v 2.02003h 0.181345v 8.46573h 0.181345v -6.13378h 0.181345v
 -4.35198h 0.181345v 5.66827h 0.181345v 1.44183h 0.181345v -3.96898h 0.181345v -3.14112h 0.36269v -1.78179h 0.181345v 7.45007h 0.181345v -2.52715h 0.181345v 5.56285h 0.181345v -3.0357h 0.181345v 4.81749h 0.181345v -9.50944h 0.181345v 3.37566h
 0.181345v 2.75812h 0.181345v 1.59387h 0.181345v -6.68394h 0.181345v 12.8177h 0.181345v -9.16948h 0.181345v 1.44183h 0.181345v -3.96898h 0.181345v 1.21087h 0.181345v 4.35198h 0.181345v 1.78179h 0.181345v 2.02003h 0.36269v -11.5295h 0.181345v 16.6195h
 0.181345v -7.1101h 0.181345v -4.81749h 0.181345v 4.81749h 0.36269v 7.1101h 0.181345v -5.09007h 0.181345v 12.8177h 0.181345v -12.8177h 0.181345v -8.15381h 0.181345v 8.15381h 0.181345v 2.33195h 0.181345v -2.33195h 0.36269v -5.39569h 0.36269v 10.4858h
 0.181345v -8.89189h 0.181345v -1.59387h 0.181345v 5.39569h 0.181345v -2.02003h 0.181345v 7.1101h 0.181345v -5.09007h 0.181345v -10.4858h 0.181345v 1.12109h 0.181345v 9.36468h 0.181345v 2.33195h 0.181345v -7.72765h 0.181345v 7.72765h 0.181345v
 -2.33195h 0.181345v 2.33195h 0.181345v -7.72765h 0.181345v -3.96898h 0.181345v 2.52715h 0.181345v 4.81749h 0.181345v -6.13378h 0.36269v 1.31629h 0.181345v 6.83752h 0.36269v -6.83752h 0.181345v 6.83752h 0.36269v -2.02003h 0.36269v 10.4858h 0.181345v
 -15.3033h 0.181345v 1.44183h 0.181345v -3.96898h 0.181345v 2.52715h 0.181345v 1.44183h 0.181345v 10.4858h 0.181345v -10.4858h 0.36269v -1.44183h 0.181345v 9.16948h 0.181345v -2.33195h 0.181345v -3.80182h 0.181345v -3.0357h 0.181345v 4.81749h
 0.181345v 2.02003h 0.36269v 8.46573h 0.181345v -17.8304h 0.181345v 14.4547h 0.181345v 7.72765h 0.181345v -18.2134h 0.181345v 10.4858h 0.181345v 3.37566h 0.181345v -8.46573h 0.181345v -6.83752h 0.181345v 4.81749h 0.36269v -1.78179h 0.36269v 6.13378h
 0.181345v -10.4858h 0.181345v 2.75812h 0.181345v -3.96898h 0.181345v 22.1824h 0.181345v -10.4858h 0.181345v -19.6552h 0.181345v 15.3033h 0.181345v -4.81749h 0.181345v 4.81749h 0.181345v -1.78179h 0.181345v -4.35198h 0.181345v 16.6195h 0.181345v
 -13.8614h 0.181345v -3.96898h 0.181345v 5.56285h 0.36269v 8.89189h 0.181345v -15.5758h 0.181345v 2.33195h 0.181345v 10.4858h 0.181345v -9.16948h 0.181345v 1.44183h 0.181345v -1.44183h 0.181345v 3.0357h 0.181345v -6.68394h 0.181345v 6.68394h
 0.181345v -1.59387h 0.181345v -9.70981h 0.181345v 20.1956h 0.181345v -10.4858h 0.181345v 10.4858h 0.181345v -5.09007h 0.181345v 12.8177h 0.181345v -14.8377h 0.181345v -4.81749h 0.181345v 6.83752h 0.181345v -8.15381h 0.181345v -5.2691h 0.181345v
 8.02722h 0.181345v -2.75812h 0.181345v 1.31629h 0.181345v -6.58539h 0.181345v 21.8886h 0.181345v -10.4858h 0.181345v 2.02003h 0.181345v 5.09007h 0.181345v -8.89189h 0.181345v 1.78179h 0.181345v -8.46573h 0.181345v 5.09007h 0.181345v 3.37566h
 0.181345v -4.81749h 0.36269v -2.52715h 0.181345v 7.34465h 0.181345v -11.4029h 0.181345v 1.89344h 0.36269v 1.04371h 0.181345v 2.33195h 0.181345v -2.33195h 0.181345v 10.4858h 0.181345v -13.4229h 0.181345v 9.62108h 0.181345v -6.68394h 0.181345v
 5.09007h 0.181345v -1.44183h 0.181345v -4.69195h 0.181345v -0.976323h 0.181345v 0.976323h 0.181345v 1.04371h 0.181345v 1.12109h 0.181345v -4.92291h 0.181345v 14.2876h 0.181345v -13.4229h 0.181345v -0.864679h 0.36269v -6.13378h 0.181345v 16.6195h
 0.181345v -5.56285h 0.181345v -5.74083h 0.181345v 8.26798h 0.181345v -2.52715h 0.181345v 2.52715h 0.181345v -6.58539h 0.181345v 2.93715h 0.181345v -2.02003h 0.181345v -2.59971h 0.181345v -3.53407h 0.181345v 2.75812h 0.181345v -3.37566h 0.181345v
 9.89244h 0.181345v -6.51678h 0.181345v -3.37566h 0.181345v 7.72765h 0.181345v -1.89344h 0.181345v 6.58539h 0.181345v -8.26798h 0.181345v -2.89024h 0.181345v 2.11428h 0.181345v 0.775953h 0.181345v 1.68259h 0.181345v -3.90038h 0.181345v 5.79381h
 0.181345v -7.72765h 0.181345v 7.72765h 0.181345v 7.72765h 0.181345v -8.70397h 0.181345v -2.59971h 0.181345v 3.57603h 0.181345v 2.16479h 0.181345v 9.36468h 0.181345v -17.9957h 0.181345v 9.84193h 0.181345v -1.21087h 0.181345v -3.14112h 0.181345v
 2.02003h 0.181345v 5.09007h 0.181345v -5.09007h 0.181345v 5.09007h 0.181345v 1.59387h 0.181345v -1.59387h 0.181345v 7.72765h 0.181345v -4.35198h 0.181345v -6.13378h 0.181345v 16.6195h 0.181345v -10.4858h 0.544034v -6.13378h 0.181345v 20.9715h
 0.181345v -12.8177h 0.181345v -3.80182h 0.181345v 16.6195h 0.181345v -14.8377h 0.181345v 10.4858h 0.181345v -6.13378h 0.181345v 16.6195h 0.181345v 10.4858h 0.181345v -10.4858h 0.36269v 10.4858h 0.181345v -20.9715h 0.181345v 10.4858h 0.181345v
 10.4858h 0.181345v -16.6195h 0.181345v -4.35198h 0.36269v -3.37566h 0.181345v 24.3472h 0.36269v -16.6195h 0.36269v 16.6195h 0.181345v -16.6195h 0.36269v 27.1053h 0.181345v -10.4858h 0.544034v -10.4858h 0.181345v -6.13378h 0.544034v 16.6195h 0.36269v
 -16.6195h 0.181345v 6.13378h 0.36269v 10.4858h 0.36269v 10.4858h 0.181345v -27.1053h 0.181345v 16.6195h 0.181345v -10.4858h 0.36269v 20.9715h 0.181345v -10.4858h 0.181345v -10.4858h 0.36269v 10.4858h 0.181345v -16.6195h 0.181345v 16.6195h 0.181345v
 -10.4858h 0.181345v 10.4858h 0.181345v -20.9715h 0.181345v 10.4858h 0.181345v 10.4858h 0.36269v 10.4858h 0.181345v -10.4858h 0.181345v -16.6195h 0.181345v 6.13378h 0.181345v 10.4858h 0.181345v -10.4858h 0.181345v 10.4858h 0.181345v -10.4858h
 0.181345v -10.4858h 0.181345v 10.4858h 0.36269v 20.9715h 0.181345v -10.4858h 0.181345v 10.4858h 0.181345v -31.4573h 0.181345v 10.4858h 0.181345v 20.9715h 0.181345v -10.4858h 1.08807v 10.4858h 0.181345v -20.9715h 0.181345v 10.4858h 0.181345v 10.4858h
 0.181345v -20.9715h 0.181345v 10.4858h 0.181345v 10.4858h 0.181345v -20.9715h 0.181345v 10.4858h 0.181345v -16.6195h 0.181345v 16.6195h 0.181345v -10.4858h 0.181345v 20.9715h 0.181345v -10.4858h 0.181345v -10.4858h 0.181345v -6.13378h 0.181345v
 27.1053h 0.181345v -20.9715h 0.181345v 10.4858h 0.181345v -16.6195h 0.181345v 6.13378h 0.181345v 10.4858h 0.181345v 10.4858h 0.181345v -10.4858h 0.181345v 10.4858h 0.181345v -20.9715h 0.181345v -6.13378h 0.181345v 27.1053h 0.181345v -20.9715h
 0.181345v 10.4858h 0.181345v -10.4858h 0.544034v 20.9715h 0.181345v -31.4573h 0.181345v 20.9715h 0.181345v -10.4858h 0.181345v 10.4858h 0.181345v -20.9715h 0.181345v 31.4573h 0.36269v -27.1053h 0.181345v 16.6195h 0.181345v 10.4858h 0.36269v
 -10.4858h 0.181345v -20.9715h 0.181345v 31.4573h 0.181345v -10.4858h 0.181345v 10.4858h 0.181345v -10.4858h 0.181345v 10.4858h 0.181345v -31.4573h 0.181345v 31.4573h 0.181345v -27.1053h 0.181345v 6.13378h 0.181345v 10.4858h 0.181345v 10.4858h
 0.181345v -20.9715h 0.181345v 10.4858h 0.36269v -10.4858h 0.181345v 20.9715h 0.181345v -10.4858h 0.181345v -10.4858h 0.181345v 20.9715h 0.36269v -20.9715h 0.181345v 20.9715h 0.725379v -20.9715h 0.36269v 20.9715h 0.725379v -10.4858h 0.181345v
 10.4858h 0.181345v -10.4858h 0.181345v 10.4858h 0.181345v -27.1053h 0.181345v 27.1053h 0.181345v -10.4858h 0.725379v 10.4858h 0.36269v -10.4858h 0.906724v 10.4858h 0.181345v -10.4858h 0.181345v -10.4858h 0.181345v 10.4858h 0.181345v -10.4858h
 0.36269v 20.9715h 0.36269v -20.9715h 0.181345v -6.13378h 0.181345v 16.6195h 0.181345v 10.4858h 0.181345v -10.4858h 0.181345v -10.4858h 0.181345v 10.4858h 0.181345v -10.4858h 0.181345v 10.4858h 0.36269v 10.4858h 0.544034v -20.9715h 0.181345v 10.4858h
 0.181345v 10.4858h 0.36269v -10.4858h 0.36269v 10.4858h 0.181345v -10.4858h 0.36269v 10.4858h 0.181345v -10.4858h 0.544034v 10.4858h 0.181345v -31.4573h 0.181345v 20.9715h 1.26941v -10.4858h 0.181345v 20.9715h 0.725379v -31.4573h 0.181345v 20.9715h
 0.36269v 10.4858h 0.544034v -20.9715h 0.181345v 20.9715h 0.36269v -10.4858h 0.181345v 10.4858h 0.181345v -10.4858h 0.181345v 10.4858h 0.181345v -10.4858h 0.181345v -27.1053h 0.181345v 27.1053h 0.181345v 10.4858h 0.725379v -27.1053h 0.181345v
 27.1053h 0.36269v -27.1053h 0.181345v 27.1053h 0.181345v -34.833h 0.181345v 13.8614h 0.181345v 20.9715h 0.181345v -10.4858h 0.181345v 10.4858h 0.181345v -10.4858h 0.181345v -10.4858h 0.181345v -6.13378h 0.181345v 6.13378h 0.181345v 10.4858h
 0.181345v -10.4858h 0.36269v 20.9715h 0.544034v -10.4858h 0.36269v 10.4858h 0.181345v -10.4858h 0.181345v 10.4858h 0.181345v -10.4858h 0.181345v -10.4858h 0.181345v 20.9715h 0.181345v -20.9715h 0.544034v 20.9715h 0.181345v -10.4858h 0.181345v
 10.4858h 0.36269v -10.4858h 0.181345v 10.4858h 0.181345v -27.1053h 0.181345v 27.1053h 0.36269v -20.9715h 0.181345v 10.4858h 0.181345v 10.4858h 0.181345v -20.9715h 0.181345v 10.4858h 0.36269v -10.4858h 0.36269v 10.4858h 0.181345v 10.4858h 0.181345v
 -10.4858h 0.36269v 10.4858h 0.906724v -10.4858h 0.181345v 10.4858h 0.181345v -20.9715h 0.181345v 10.4858h 0.181345v 10.4858h 0.181345v -27.1053h 0.181345v 16.6195h 0.36269" fill="none" stroke="black"/>
<path d="M57.1929,280.151h 453.543" fill="none" stroke="black"/>
<path d="M57.1929,272.68v 7.47068" fill="none" stroke="black"/>
<path d="M75.3318,276.415v 3.73534" fill="none" stroke="black"/>
<path d="M93.4707,276.415v 3.73534" fill="none" stroke="black"/>
<path d="M111.61,276.415v 3.73534" fill="none" stroke="black"/>
<path d="M129.749,276.415v 3.73534" fill="none" stroke="black"/>
<path d="M147.887,272.68v 7.47068" fill="none" stroke="black"/>
<path d="M166.026,276.415v 3.73534" fill="none" stroke="black"/>
<path d="M184.165,276.415v 3.73534" fill="none" stroke="black"/>
<path d="M202.304,276.415v 3.73534" fill="none" stroke="black"/>
<path d="M220.443,276.415v 3.73534" fill="none" stroke="black"/>
<path d="M238.582,272.68v 7.47068" fill="none" stroke="black"/>
<path d="M256.721,276.415v 3.73534" fill="none" stroke="black"/>
<path d="M274.86,276.415v 3.73534" fill="none" stroke="black"/>
<path d="M292.999,276.415v 3.73534" fill="none" stroke="black"/>
<path d="M311.138,276.415v 3.73534" fill="none" stroke="black"/>
<path d="M329.277,272.68v 7.47068" fill="none" stroke="black"/>
<path d="M347.415,276.415v 3.73534" fill="none" stroke="black"/>
<path d="M365.554,276.415v 3.73534" fill="none" stroke="black"/>
<path d="M383.693,276.415v 3.73534" fill="none" stroke="black"/>
<path d="M401.832,276.415v 3.73534" fill="none" stroke="black"/>
<path d="M419.971,272.68v 7.47068" fill="none" stroke="black"/>
<path d="M438.11,276.415v 3.73534" fill="none" stroke="black"/>
<path d="M456.249,276.415v 3.73534" fill="none" stroke="black"/>
<path d="M474.388,276.415v 3.73534" fill="none" stroke="black"/>
<path d="M492.527,276.415v 3.73534" fill="none" stroke="black"/>
<path d="M510.666,272.68v 7.47068" fill="none" stroke="black"/>
<path d="M510.666,272.68v 7.47068" fill="none" stroke="black"/>
<text xml:space="preserve" x="54.3523" y="290.27" fill="black" font-size="10.4952" font-family="Helvetica">0</text>
<text xml:space="preserve" x="139.569" y="290.27" fill="black" font-size="10.4952" font-family="Helvetica">500</text>
<text xml:space="preserve" x="227.449" y="290.27" fill="black" font-size="10.4952" font-family="Helvetica">1000</text>
<text xml:space="preserve" x="318.288" y="290.27" fill="black" font-size="10.4952" font-family="Helvetica">1500</text>
<text xml:space="preserve" x="408.831" y="290.27" fill="black" font-size="10.4952" font-family="Helvetica">2000</text>
<text xml:space="preserve" x="499.67" y="290.27" fill="black" font-size="10.4952" font-family="Helvetica">2500</text>
<text xml:space="preserve" x="265.323" y="301.218" fill="black" font-size="10.4952" font-family="Helvetica">Channel</text>
<path d="M57.1929,280.151v -249.023" fill="none" stroke="black"/>
<path d="M63.9961,280.151h -6.80315" fill="none" stroke="black"/>
<path d="M63.9961,277.392h -6.80315" fill="none" stroke="black"/>
<path d="M63.9961,275.06h -6.80315" fill="none" stroke="black"/>
<path d="M63.9961,273.04h -6.80315" fill="none" stroke="black"/>
<path d="M63.9961,271.259h -6.80315" fill="none" stroke="black"/>
<path d="M70.7992,269.665h -13.6063" fill="none" stroke="black"/>
<text xml:space="preserve" x="49.0263" y="273.404" fill="black" font-size="10.4952" font-family="Helvetica">1</text>
<path d="M63.9961,259.179h -6.80315" fill="none" stroke="black"/>
<path d="M63.9961,253.045h -6.80315" fill="none" stroke="black"/>
<path d="M63.9961,248.693h -6.80315" fill="none" stroke="black"/>
<path d="M63.9961,245.318h -6.80315" fill="none" stroke="black"/>
<path d="M63.9961,242.559h -6.80315" fill="none" stroke="black"/>
<path d="M63.9961,240.228h -6.80315" fill="none" stroke="black"/>
<path d="M63.9961,238.207h -6.80315" fill="none" stroke="black"/>
<path d="M63.9961,236.426h -6.80315" fill="none" stroke="black"/>
<path d="M70.7992,234.832h -13.6063" fill="none" stroke="black"/>
<text xml:space="preserve" x="41.629" y="238.489" fill="black" font-size="10.4952" font-family="Helvetica">10</text>
<path d="M63.9961,224.346h -6.80315" fill="none" stroke="black"/>
<path d="M63.9961,218.212h -6.80315" fill="none" stroke="black"/>
<path d="M63.9961,213.86h -6.80315" fill="none" stroke="black"/>
<path d="M63.9961,210.485h -6.80315" fill="none" stroke="black"/>
<path d="M63.9961,207.727h -6.80315" fill="none" stroke="black"/>
<path d="M63.9961,205.395h -6.80315" fill="none" stroke="black"/>
<path d="M63.9961,203.375h -6.80315" fill="none" stroke="black"/>
<path d="M63.9961,201.593h -6.80315" fill="none" stroke="black"/>
<path d="M70.7992,199.999h -13.6063" fill="none" stroke="black"/>
<text xml:space="preserve" x="49.0263" y="200.023" fill="black" font-size="7.16345" font-family="Helvetica">2</text>
<text xml:space="preserve" x="38.0783" y="204.461" fill="black" font-size="10.4952" font-family="Helvetica">10</text>
<path d="M63.9961,189.513h -6.80315" fill="none" stroke="black"/>
<path d="M63.9961,183.379h -6.80315" fill="none" stroke="black"/>
<path d="M63.9961,179.027h -6.80315" fill="none" stroke="black"/>
<path d="M63.9961,175.652h -6.80315" fill="none" stroke="black"/>
<path d="M63.9961,172.894h -6.80315" fill="none" stroke="black"/>
<path d="M63.9961,170.562h -6.80315" fill="none" stroke="black"/>
<path d="M63.9961,168.542h -6.80315" fill="none" stroke="black"/>
<path d="M63.9961,166.76h -6.80315" fill="none" stroke="black"/>
<path d="M70.7992,165.166h -13.6063" fill="none" stroke="black"/>
<text xml:space="preserve" x="49.0263" y="165.108" fill="black" font-size="7.16345" font-family="Helvetica">3</text>
<text xml:space="preserve" x="38.0783" y="169.842" fill="black" font-size="10.4952" font-family="Helvetica">10</text>
<path d="M63.9961,154.68h -6.80315" fill="none" stroke="black"/>
<path d="M63.9961,148.546h -6.80315" fill="none" stroke="black"/>
<path d="M63.9961,144.194h -6.80315" fill="none" stroke="black"/>
<path d="M63.9961,140.819h -6.80315" fill="none" stroke="black"/>
<path d="M63.9961,138.061h -6.80315" fill="none" stroke="black"/>
<path d="M63.9961,135.729h -6.80315" fill="none" stroke="black"/>
<path d="M63.9961,133.709h -6.80315" fill="none" stroke="black"/>
<path d="M63.9961,131.927h -6.80315" fill="none" stroke="black"/>
<path d="M70.7992,130.333h -13.6063" fill="none" stroke="black"/>
<text xml:space="preserve" x="49.0263" y="130.488" fill="black" font-size="7.16345" font-family="Helvetica">4</text>
<text xml:space="preserve" x="38.0783" y="134.927" fill="black" font-size="10.4952" font-family="Helvetica">10</text>
<path d="M63.9961,119.847h -6.80315" fill="none" stroke="black"/>
<path d="M63.9961,113.713h -6.80315" fill="none" stroke="black"/>
<path d="M63.9961,109.361h -6.80315" fill="none" stroke="black"/>
<path d="M63.9961,105.986h -6.80315" fill="none" stroke="black"/>
<path d="M63.9961,103.228h -6.80315" fill="none" stroke="black"/>
<path d="M63.9961,100.896h -6.80315" fill="none" stroke="black"/>
<path d="M63.9961,98.8757h -6.80315" fill="none" stroke="black"/>
<path d="M63.9961,97.0939h -6.80315" fill="none" stroke="black"/>
<path d="M70.7992,95.5h -13.6063" fill="none" stroke="black"/>
<text xml:space="preserve" x="49.0263" y="95.2772" fill="black" font-size="7.16345" font-family="Helvetica">5</text>
<text xml:space="preserve" x="38.0783" y="100.012" fill="black" font-size="10.4952" font-family="Helvetica">10</text>
<path d="M63.9961,85.0143h -6.80315" fill="none" stroke="black"/>
<path d="M63.9961,78.8805h -6.80315" fill="none" stroke="black"/>
<path d="M63.9961,74.5285h -6.80315" fill="none" stroke="black"/>
<path d="M63.9961,71.1529h -6.80315" fill="none" stroke="black"/>
<path d="M63.9961,68.3947h -6.80315" fill="none" stroke="black"/>
<path d="M63.9961,66.0628h -6.80315" fill="none" stroke="black"/>
<path d="M63.9961,64.0428h -6.80315" fill="none" stroke="black"/>
<path d="M63.9961,62.261h -6.80315" fill="none" stroke="black"/>
<path d="M70.7992,60.6671h -13.6063" fill="none" stroke="black"/>
<text xml:space="preserve" x="49.0263" y="60.6579" fill="black" font-size="7.16345" font-family="Helvetica">6</text>
<text xml:space="preserve" x="38.0783" y="65.3921" fill="black" font-size="10.4952" font-family="Helvetica">10</text>
<path d="M63.9961,50.1813h -6.80315" fill="none" stroke="black"/>
<path d="M63.9961,44.0476h -6.80315" fill="none" stroke="black"/>
<path d="M63.9961,39.6956h -6.80315" fill="none" stroke="black"/>
<path d="M63.9961,36.3199h -6.80315" fill="none" stroke="black"/>
<path d="M63.9961,33.5618h -6.80315" fill="none" stroke="black"/>
<path d="M63.9961,31.2298h -6.80315" fill="none" stroke="black"/>
<g transform="rotate(-90,26.5385,191.442)">
<text xml:space="preserve" x="26.5385" y="191.442" fill="black" font-size="10.4952" font-family="Helvetica">Counts/Channel</text>
</g>
<text xml:space="preserve" x="404.097" y="60.6579" fill="black" font-size="14.7788" font-family="Helvetica" font-weight="bold"> = 2.4879 MeV</text>
<text xml:space="preserve" x="398.179" y="63.9127" fill="black" font-size="10.0192" font-family="Helvetica" font-weight="bold">p</text>
<text xml:space="preserve" x="389.006" y="60.6579" fill="black" font-size="14.7788" font-family="Helvetica" font-weight="bold">E</text>
<path d="M262.163,163.724v 26.1725" fill="none" stroke="black"/>
<path d="M264.454,189.897l -2.29122, 3.9685l -2.29122, -3.9685z" fill="black"/>
<path d="M264.454,189.897l -2.29122, 3.9685l -2.29122, -3.9685h 4.58243z" fill="none" stroke="black"/>
<text xml:space="preserve" x="266.803" y="161.557" fill="black" font-size="10.4952" font-family="Helvetica" font-weight="bold">_1 	1.369 MeV</text>
<text xml:space="preserve" x="260.293" y="161.557" fill="black" font-size="10.4952" font-family="Times">&#0945;</text>
<path d="M184.528,130.333v 30.8644" fill="none" stroke="black"/>
<path d="M186.819,161.197l -2.29122, 3.9685l -2.29122, -3.9685z" fill="black"/>
<path d="M186.819,161.197l -2.29122, 3.9685l -2.29122, -3.9685h 4.58243z" fill="none" stroke="black"/>
<text xml:space="preserve" x="172.117" y="127.529" fill="black" font-size="10.4952" font-family="Helvetica" font-weight="bold"># p_1 	0.844 MeV</text>
<path d="M210.104,148.546v 12.651" fill="none" stroke="black"/>
<path d="M212.395,161.197l -2.29122, 3.9685l -2.29122, -3.9685z" fill="black"/>
<path d="M212.395,161.197l -2.29122, 3.9685l -2.29122, -3.9685h 4.58243z" fill="none" stroke="black"/>
<text xml:space="preserve" x="197.564" y="144.099" fill="black" font-size="10.4952" font-family="Helvetica" font-weight="bold"># p_2 	1.015 MeV</text>
<path d="M497.603,269.665h 13.0625" fill="none" stroke="black"/>
<path d="M504.134,259.179h 6.53124" fill="none" stroke="black"/>
<path d="M504.134,253.045h 6.53124" fill="none" stroke="black"/>
<path d="M504.134,248.693h 6.53124" fill="none" stroke="black"/>
<path d="M504.134,245.318h 6.53124" fill="none" stroke="black"/>
<path d="M504.134,242.559h 6.53124" fill="none" stroke="black"/>
<path d="M504.134,240.228h 6.53124" fill="none" stroke="black"/>
<path d="M504.134,238.207h 6.53124" fill="none" stroke="black"/>
<path d="M504.134,236.426h 6.53124" fill="none" stroke="black"/>
<path d="M497.603,234.832h 13.0625" fill="none" stroke="black"/>
<path d="M504.134,224.346h 6.53124" fill="none" stroke="black"/>
<path d="M504.134,218.212h 6.53124" fill="none" stroke="black"/>
<path d="M504.134,213.86h 6.53124" fill="none" stroke="black"/>
<path d="M504.134,210.485h 6.53124" fill="none" stroke="black"/>
<path d="M504.134,207.727h 6.53124" fill="none" stroke="black"/>
<path d="M504.134,205.395h 6.53124" fill="none" stroke="black"/>
<path d="M504.134,203.375h 6.53124" fill="none" stroke="black"/>
<path d="M504.134,201.593h 6.53124" fill="none" stroke="black"/>
<path d="M497.603,199.999h 13.0625" fill="none" stroke="black"/>
<path d="M504.134,189.513h 6.53124" fill="none" stroke="black"/>
<path d="M504.134,183.379h 6.53124" fill="none" stroke="black"/>
<path d="M504.134,179.027h 6.53124" fill="none" stroke="black"/>
<path d="M504.134,175.652h 6.53124" fill="none" stroke="black"/>
<path d="M504.134,172.894h 6.53124" fill="none" stroke="black"/>
<path d="M504.134,170.562h 6.53124" fill="none" stroke="black"/>
<path d="M504.134,168.542h 6.53124" fill="none" stroke="black"/>
<path d="M504.134,166.76h 6.53124" fill="none" stroke="black"/>
<path d="M497.603,165.166h 13.0625" fill="none" stroke="black"/>
<path d="M504.134,154.68h 6.53124" fill="none" stroke="black"/>
<path d="M504.134,148.546h 6.53124" fill="none" stroke="black"/>
<path d="M504.134,144.194h 6.53124" fill="none" stroke="black"/>
<path d="M504.134,140.819h 6.53124" fill="none" stroke="black"/>
<path d="M504.134,138.061h 6.53124" fill="none" stroke="black"/>
<path d="M504.134,135.729h 6.53124" fill="none" stroke="black"/>
<path d="M504.134,133.709h 6.53124" fill="none" stroke="black"/>
<path d="M504.134,131.927h 6.53124" fill="none" stroke="black"/>
<path d="M497.603,130.333h 13.0625" fill="none" stroke="black"/>
<path d="M504.134,119.847h 6.53124" fill="none" stroke="black"/>
<path d="M504.134,113.713h 6.53124" fill="none" stroke="black"/>
<path d="M504.134,109.361h 6.53124" fill="none" stroke="black"/>
<path d="M504.134,105.986h 6.53124" fill="none" stroke="black"/>
<path d="M504.134,103.228h 6.53124" fill="none" stroke="black"/>
<path d="M504.134,100.896h 6.53124" fill="none" stroke="black"/>
<path d="M504.134,98.8757h 6.53124" fill="none" stroke="black"/>
<path d="M504.134,97.0939h 6.53124" fill="none" stroke="black"/>
<path d="M497.603,95.5h 13.0625" fill="none" stroke="black"/>
<path d="M504.134,85.0143h 6.53124" fill="none" stroke="black"/>
<path d="M504.134,78.8805h 6.53124" fill="none" stroke="black"/>
<path d="M504.134,74.5285h 6.53124" fill="none" stroke="black"/>
<path d="M504.134,71.1529h 6.53124" fill="none" stroke="black"/>
<path d="M504.134,68.3947h 6.53124" fill="none" stroke="black"/>
<path d="M504.134,66.0628h 6.53124" fill="none" stroke="black"/>
<path d="M504.134,64.0428h 6.53124" fill="none" stroke="black"/>
<path d="M504.134,62.261h 6.53124" fill="none" stroke="black"/>
<path d="M497.603,60.6671h 13.0625" fill="none" stroke="black"/>
<path d="M504.134,50.1813h 6.53124" fill="none" stroke="black"/>
<path d="M504.134,44.0476h 6.53124" fill="none" stroke="black"/>
<path d="M504.134,39.6956h 6.53124" fill="none" stroke="black"/>
<path d="M504.134,36.3199h 6.53124" fill="none" stroke="black"/>
<path d="M504.134,33.5618h 6.53124" fill="none" stroke="black"/>
<path d="M504.134,31.2298h 6.53124" fill="none" stroke="black"/>
<path d="M57.1929,38.0645v -7.46952" fill="none" stroke="black"/>
<path d="M75.3318,38.0645v -7.46952" fill="none" stroke="black"/>
<path d="M93.4707,38.0645v -7.46952" fill="none" stroke="black"/>
<path d="M111.61,38.0645v -7.46952" fill="none" stroke="black"/>
<path d="M129.749,38.0645v -7.46952" fill="none" stroke="black"/>
<path d="M147.887,38.0645v -7.46952" fill="none" stroke="black"/>
<path d="M166.026,38.0645v -7.46952" fill="none" stroke="black"/>
<path d="M184.165,38.0645v -7.46952" fill="none" stroke="black"/>
<path d="M202.304,38.0645v -7.46952" fill="none" stroke="black"/>
<path d="M220.443,38.0645v -7.46952" fill="none" stroke="black"/>
<path d="M238.582,38.0645v -7.46952" fill="none" stroke="black"/>
<path d="M256.721,38.0645v -7.46952" fill="none" stroke="black"/>
<path d="M274.86,38.0645v -7.46952" fill="none" stroke="black"/>
<path d="M292.999,38.0645v -7.46952" fill="none" stroke="black"/>
<path d="M311.138,38.0645v -7.46952" fill="none" stroke="black"/>
<path d="M329.277,38.0645v -7.46952" fill="none" stroke="black"/>
<path d="M347.415,38.0645v -7.46952" fill="none" stroke="black"/>
<path d="M365.554,38.0645v -7.46952" fill="none" stroke="black"/>
<path d="M383.693,38.0645v -7.46952" fill="none" stroke="black"/>
<path d="M401.832,38.0645v -7.46952" fill="none" stroke="black"/>
<path d="M419.971,38.0645v -7.46952" fill="none" stroke="black"/>
<path d="M438.11,38.0645v -7.46952" fill="none" stroke="black"/>
<path d="M456.249,38.0645v -7.46952" fill="none" stroke="black"/>
<path d="M474.388,38.0645v -7.46952" fill="none" stroke="black"/>
<path d="M492.527,38.0645v -7.46952" fill="none" stroke="black"/>
<path d="M510.666,38.0645v -7.46952" fill="none" stroke="black"/></svg>
