<?xml version="1.0" standalone="no"?>
<svg width="567.429" height="311.778" viewBox="0 0 567.429 311.778" xmlns="http://www.w3.org/2000/svg" shape-rendering="crispEdges">
<title>
Yields/P1/det-1/run_0107_Fit.svg
</title>
<desc>
Creator: ROOT Version 6.12/06
CreationDate: Mon Apr 15 10:29:02 2019</desc>
<defs>
</defs>
<rect x="0.5" y="0" width="566.929" height="311.278" fill="white"/>
<rect x="57.1929" y="31.1278" width="453.543" height="249.023" fill="white"/>
<rect x="57.1929" y="31.1278" width="453.543" height="249.023" fill="none" stroke="black"/>
<rect x="57.1929" y="31.1278" width="453.543" height="249.023" fill="white"/>
<rect x="57.1929" y="31.1278" width="453.543" height="249.023" fill="none" stroke="black"/>
<path d="M57.1929,40.7742h 0.181345v 239.376h 0.544034v -10.4625h 0.181345v 10.4625h 9.06724v -10.4625h 0.181345v 10.4625h 3.98959v -10.4625h 0.181345v 10.4625h 4.71496v -10.4625h 0.36269v 10.4625h 0.544034v -10.4625h 0.181345v 10.4625h 2.17614v
 -10.4625h 0.181345v 10.4625h 1.08807v -10.4625h 0.181345v 10.4625h 1.6321v -20.9249h 0.181345v 20.9249h 0.725379v -10.4625h 0.181345v 10.4625h 0.906724v -20.9249h 0.181345v 20.9249h 0.36269v -10.4625h 0.181345v 10.4625h 0.544034v -20.9249h 0.36269v
 20.9249h 1.26941v -39.8344h 0.181345v -3.79338h 0.181345v -21.3385h 0.181345v -6.25553h 0.181345v -11.7534h 0.181345v -10.9494h 0.181345v -5.95958h 0.181345v -3.89171h 0.181345v -3.11659h 0.181345v -2.2359h 0.181345v -1.17786h 0.181345v -0.575652h
 0.181345v -1.44748h 0.181345v -0.263124h 0.181345v -0.72982h 0.181345v -0.775057h 0.181345v -0.109776h 0.181345v 0.0940449h 0.181345v 0.33385h 0.181345v -1.15988h 0.181345v 0.164638h 0.181345v -0.848539h 0.181345v -0.462317h 0.181345v 0.562231h
 0.181345v 0.435858h 0.181345v -1.01188h 0.181345v 0.110682h 0.181345v 0.125495h 0.181345v 0.0983336h 0.181345v -1.04796h 0.181345v 0.399692h 0.181345v 0.549939h 0.181345v -0.590388h 0.181345v -0.697283h 0.181345v 1.48498h 0.181345v -1.75259h
 0.181345v 0.671536h 0.181345v -0.0921583h 0.181345v 0.52077h 0.181345v -1.20086h 0.181345v 0.759048h 0.181345v 0.279653h 0.181345v -1.01359h 0.181345v 0.973317h 0.181345v -0.0668772h 0.181345v -0.868688h 0.181345v 0.775555h 0.181345v -0.444362h
 0.181345v 0.915883h 0.181345v -0.418372h 0.181345v 0.432063h 0.181345v -0.378726h 0.181345v 1.03662h 0.181345v 0.376649h 0.181345v -0.896946h 0.181345v -0.260369h 0.181345v 1.33437h 0.181345v -0.235621h 0.181345v -0.116445h 0.181345v -1.71164h
 0.181345v -0.14173h 0.181345v -2.41264h 0.181345v -1.74258h 0.181345v -2.5148h 0.181345v -3.06339h 0.181345v -3.17992h 0.181345v -3.14742h 0.181345v -3.55201h 0.181345v -2.6138h 0.181345v -2.41642h 0.181345v -1.62362h 0.181345v -1.6485h 0.181345v
 -0.386438h 0.181345v -0.460956h 0.181345v 0.885778h 0.181345v 1.26306h 0.181345v 1.83596h 0.181345v 2.62486h 0.181345v 3.01254h 0.181345v 3.04861h 0.181345v 4.29235h 0.181345v 3.57944h 0.181345v 4.8133h 0.181345v 3.5872h 0.181345v 3.6366h 0.181345v
 2.70582h 0.181345v 1.84714h 0.181345v 2.10512h 0.181345v 1.1186h 0.181345v -0.728546h 0.181345v 0.13229h 0.181345v 1.01673h 0.181345v 2.26531h 0.181345v -1.44763h 0.36269v 0.801103h 0.181345v -0.61997h 0.181345v -0.0908377h 0.181345v 1.25858h
 0.181345v -0.579378h 0.181345v 1.84509h 0.181345v -2.21934h 0.36269v 1.59033h 0.181345v -1.02541h 0.181345v 1.16294h 0.181345v -0.54277h 0.181345v -1.18509h 0.181345v 0.279817h 0.181345v 1.27632h 0.181345v -1.1186h 0.181345v 1.5692h 0.181345v
 -0.58659h 0.181345v 0.481403h 0.181345v -0.782962h 0.181345v 0.166788h 0.181345v 0.407975h 0.181345v -0.739728h 0.181345v 0.298248h 0.181345v 0.13447h 0.181345v 0.976406h 0.181345v -0.356011h 0.181345v 0.683762h 0.181345v 2.21673h 0.181345v
 -1.38426h 0.181345v 0.717008h 0.181345v -0.599847h 0.181345v 0.805213h 0.181345v -0.64757h 0.181345v 1.10946h 0.181345v 0.388712h 0.181345v -0.8506h 0.181345v 1.84519h 0.181345v -1.84519h 0.181345v 4.10978h 0.181345v -3.56237h 0.181345v -0.297222h
 0.181345v 2.16646h 0.181345v -1.34569h 0.181345v 1.3943h 0.181345v -0.805845h 0.181345v 0.373868h 0.181345v 0.431977h 0.181345v -0.805845h 0.36269v 0.279529h 0.181345v 1.22386h 0.181345v -2.44288h 0.181345v 1.69673h 0.181345v 0.543547h 0.181345v
 -1.0682h 0.181345v 1.01797h 0.181345v -1.01797h 0.181345v 0.524652h 0.181345v -1.21191h 0.181345v 0.923478h 0.181345v 1.13692h 0.181345v 1.06341h 0.181345v -1.7165h 0.181345v 0.398549h 0.181345v -1.39727h 0.181345v 2.44226h 0.181345v -0.47922h
 0.181345v 0.862758h 0.181345v -0.274947h 0.181345v -0.587811h 0.181345v -0.104458h 0.181345v -0.309106h 0.181345v 0.946982h 0.181345v -1.98157h 0.181345v 3.05013h 0.181345v -1.23058h 0.181345v -0.784968h 0.181345v 0.677917h 0.181345v 0.487825h
 0.181345v 0.966811h 0.181345v -2.33516h 0.181345v -0.100294h 0.181345v -0.443253h 0.181345v 0.695249h 0.181345v -1.59033h 0.181345v -2.08969h 0.181345v -1.4784h 0.181345v 1.35939h 0.181345v -1.57451h 0.181345v -1.13131h 0.181345v -1.02156h 0.181345v
 0.155131h 0.181345v -0.49091h 0.181345v -0.387433h 0.181345v 1.61323h 0.181345v -0.641037h 0.181345v 1.24221h 0.181345v 0.34463h 0.181345v 1.15887h 0.181345v -0.445069h 0.181345v 1.7824h 0.181345v 1.37706h 0.181345v 0.457434h 0.181345v 3.8399h
 0.181345v -3.36816h 0.181345v 2.439h 0.181345v 0.113065h 0.181345v 0.696777h 0.181345v 0.0595431h 0.181345v -0.869386h 0.181345v 0.284268h 0.181345v 2.90195h 0.181345v -1.3943h 0.181345v 0.915078h 0.181345v -0.333218h 0.181345v -0.261377h 0.181345v
 -1.18324h 0.181345v 0.736446h 0.181345v 1.31336h 0.181345v -1.37613h 0.181345v 1.10415h 0.181345v -0.200812h 0.181345v -0.522794h 0.181345v -0.751732h 0.181345v 0.061234h 0.36269v 1.54948h 0.181345v -0.534362h 0.181345v 0.198176h 0.181345v 0.336187h
 0.36269v -0.402535h 0.181345v 0.886142h 0.181345v -1.27822h 0.181345v -0.877086h 0.181345v 1.46909h 0.181345v 0.13477h 0.181345v 0.067839h 0.181345v -1.79294h 0.181345v 0.679197h 0.181345v -1.03718h 0.181345v 1.42095h 0.181345v -2.28043h 0.181345v
 1.77088h 0.181345v 0.189073h 0.181345v -1.56494h 0.181345v 1.25112h 0.181345v -1.81231h 0.181345v -0.487825h 0.181345v 0.378049h 0.181345v -1.30881h 0.181345v 1.41858h 0.181345v -0.646992h 0.181345v -0.261604h 0.181345v -0.856994h 0.181345v 2.38406h
 0.181345v -2.62713h 0.181345v 3.94571h 0.181345v -0.97024h 0.181345v 0.0588467h 0.181345v 0.47922h 0.181345v -0.771186h 0.181345v 2.37505h 0.181345v -1.6646h 0.181345v 0.555676h 0.181345v 1.59033h 0.181345v 1.85666h 0.181345v -1.35939h 0.181345v
 -1.6408h 0.181345v -0.572058h 0.181345v 1.57647h 0.181345v -0.610633h 0.181345v 2.7653h 0.181345v -2.22374h 0.181345v -1.50739h 0.181345v 2.14081h 0.181345v -0.974155h 0.181345v 0.548939h 0.181345v -0.345419h 0.181345v -0.927126h 0.181345v 0.656371h
 0.181345v 0.407975h 0.181345v 1.21967h 0.181345v -0.871058h 0.181345v -1.21902h 0.181345v 1.07861h 0.181345v -0.947927h 0.181345v 0.466523h 0.181345v -0.919059h 0.181345v 2.18941h 0.181345v -0.718905h 0.181345v 0.645454h 0.181345v -0.361988h
 0.181345v 0.583422h 0.181345v -0.654789h 0.181345v 1.41728h 0.181345v -1.12977h 0.181345v 0.667664h 0.181345v -1.78626h 0.181345v -0.333218h 0.181345v 0.132406h 0.181345v 0.404332h 0.181345v 1.35689h 0.181345v -3.15747h 0.181345v 3.45937h 0.181345v
 -2.39198h 0.181345v 1.00889h 0.181345v 0.494935h 0.181345v -1.37314h 0.181345v 1.44519h 0.181345v -0.427222h 0.181345v 0.941428h 0.181345v -0.871058h 0.181345v -1.98024h 0.181345v 0.761211h 0.181345v 0.130686h 0.181345v -0.195607h 0.181345v
 -0.256928h 0.181345v 1.75397h 0.181345v -1.23567h 0.36269v 0.673958h 0.181345v -0.0687662h 0.181345v -0.99558h 0.181345v 1.41296h 0.181345v -0.485831h 0.181345v -1.43242h 0.181345v 0.569658h 0.181345v -0.192285h 0.181345v 0.717352h 0.181345v
 -0.264817h 0.181345v -2.02375h 0.181345v 2.55811h 0.181345v 0.274447h 0.181345v -2.12764h 0.181345v -1.10141h 0.181345v 1.71507h 0.181345v 0.316451h 0.181345v -0.748624h 0.181345v 0.307427h 0.181345v 0.634302h 0.181345v 0.393783h 0.181345v
 -0.586888h 0.181345v -0.190666h 0.181345v 2.31625h 0.181345v -0.435439h 0.181345v -0.142399h 0.181345v -0.76005h 0.181345v 1.19134h 0.181345v -0.8506h 0.181345v 0.208199h 0.181345v 0.282142h 0.181345v 1.10765h 0.181345v -0.452859h 0.181345v -1.3505h
 0.181345v 1.42503h 0.181345v 2.07973h 0.181345v -3.5726h 0.181345v 1.27035h 0.181345v 0.372714h 0.181345v 2.10204h 0.181345v -2.83849h 0.181345v 0.511715h 0.181345v -0.367273h 0.181345v 2.78105h 0.181345v -2.56176h 0.181345v 2.56176h 0.181345v
 -0.345024h 0.181345v 0.0855195h 0.181345v -0.339209h 0.181345v -0.656371h 0.181345v 0.572747h 0.181345v 0.337314h 0.36269v 1.24375h 0.181345v -1.49744h 0.181345v -0.0836244h 0.181345v 0.769841h 0.181345v -0.769841h 0.36269v -0.165872h 0.181345v
 1.93329h 0.181345v -1.51514h 0.181345v -0.418147h 0.181345v 2.31303h 0.181345v 0.993395h 0.181345v -2.37072h 0.181345v -0.935712h 0.181345v 0.249496h 0.181345v 1.1315h 0.181345v -0.792295h 0.181345v 0.792295h 0.181345v -0.357275h 0.181345v -1.18779h
 0.181345v 3.36816h 0.181345v -1.27081h 0.181345v 2.21779h 0.181345v -1.34952h 0.181345v 0.504868h 0.181345v -0.896946h 0.181345v 1.20818h 0.181345v -0.208199h 0.181345v -0.508269h 0.181345v -2.73532h 0.181345v 3.34733h 0.181345v -1.57991h 0.181345v
 1.47617h 0.181345v 0.10374h 0.181345v -1.00665h 0.181345v -0.573265h 0.181345v -0.461631h 0.181345v -0.27035h 0.181345v 1.50128h 0.181345v -1.59033h 0.181345v -0.088529h 0.181345v -0.175515h 0.181345v 1.46482h 0.181345v -0.191068h 0.181345v
 0.191068h 0.181345v 0.193518h 0.181345v 2.88894h 0.181345v -3.08246h 0.181345v 0.0964486h 0.181345v -0.846623h 0.181345v 1.2387h 0.181345v 1.13388h 0.181345v 0.215634h 0.181345v -1.04863h 0.181345v -1.16916h 0.181345v 1.37314h 0.181345v -0.993395h
 0.181345v 1.20017h 0.181345v -0.612009h 0.181345v -0.588158h 0.181345v 0.193518h 0.181345v 1.11111h 0.181345v -0.311231h 0.181345v -2.19418h 0.181345v 2.61059h 0.181345v 0.757572h 0.181345v -1.27632h 0.181345v 0.83878h 0.181345v -0.83878h 0.181345v
 -0.202609h 0.181345v 0.304943h 0.181345v -0.102334h 0.181345v -2.26838h 0.181345v 3.32435h 0.181345v -0.74686h 0.181345v -2.04155h 0.181345v 0.461631h 0.181345v 0.670962h 0.181345v 1.98757h 0.181345v -1.28539h 0.181345v 3.18953h 0.181345v -3.6944h
 0.36269v 0.402535h 0.181345v -0.302903h 0.181345v -0.49171h 0.181345v 0.692968h 0.181345v -0.201258h 0.181345v 0.821654h 0.181345v -1.02026h 0.181345v -0.196031h 0.181345v 0.697544h 0.181345v -2.35589h 0.181345v 1.65834h 0.181345v 1.42889h 0.181345v
 -2.55444h 0.181345v 2.02846h 0.181345v -0.90291h 0.181345v -0.47922h 0.181345v 0.675251h 0.181345v -2.02787h 0.181345v 1.44725h 0.181345v -1.36075h 0.181345v 1.64827h 0.181345v -1.29723h 0.181345v 0.634683h 0.181345v -0.456052h 0.181345v -2.78191h
 0.181345v -0.871058h 0.181345v 0.722346h 0.181345v -2.07094h 0.181345v 1.49032h 0.181345v -0.559107h 0.181345v -1.56286h 0.181345v 1.22365h 0.181345v -0.847843h 0.181345v 1.96128h 0.181345v -1.6408h 0.181345v -0.320482h 0.181345v 0.58186h 0.181345v
 -0.131254h 0.181345v 1.65581h 0.181345v 0.443978h 0.181345v -0.589115h 0.181345v 0.664398h 0.181345v -1.16166h 0.181345v -0.208199h 0.181345v 1.14513h 0.181345v -0.654789h 0.181345v 0.0713673h 0.181345v -0.969683h 0.181345v 1.11344h 0.181345v
 2.00523h 0.181345v -1.18913h 0.181345v 0.782256h 0.181345v -0.0800753h 0.181345v 0.652822h 0.181345v -1.95287h 0.181345v 1.54156h 0.181345v -2.32677h 0.181345v -0.680032h 0.181345v -0.650711h 0.181345v -0.866296h 0.181345v -1.26819h 0.181345v
 -1.32258h 0.181345v -2.21055h 0.181345v -0.303193h 0.181345v -2.11704h 0.181345v 0.263168h 0.181345v -3.94849h 0.181345v 0.265075h 0.181345v -2.53753h 0.181345v -0.469799h 0.181345v -2.87323h 0.181345v -0.688452h 0.181345v -0.603093h 0.181345v
 0.279702h 0.181345v -0.572446h 0.181345v -2.01554h 0.181345v 1.58681h 0.181345v -0.0176025h 0.181345v -0.484716h 0.181345v 1.65483h 0.181345v 0.307271h 0.181345v 1.16942h 0.181345v 0.382151h 0.181345v 1.16166h 0.181345v 1.51312h 0.181345v -0.102334h
 0.181345v 2.70108h 0.181345v 2.73371h 0.181345v -0.43232h 0.181345v 3.01712h 0.181345v 1.64827h 0.181345v 0.342508h 0.181345v 3.87135h 0.181345v -0.127378h 0.181345v 0.127378h 0.181345v 3.51276h 0.181345v 1.52768h 0.181345v -1.36537h 0.181345v
 0.667254h 0.181345v 0.432527h 0.181345v 2.06577h 0.36269v 2.63172h 0.181345v 0.363732h 0.181345v -2.27409h 0.181345v -1.21629h 0.181345v 1.21629h 0.36269v 0.646992h 0.181345v 2.64221h 0.181345v -3.28921h 0.181345v 1.43863h 0.181345v 1.20818h
 0.181345v -1.55255h 0.181345v 1.9347h 0.181345v -0.631647h 0.181345v -1.07435h 0.181345v 0.828907h 0.181345v 0.369671h 0.181345v 0.636979h 0.181345v -3.36816h 0.181345v 2.24028h 0.36269v 0.243459h 0.181345v 0.372714h 0.181345v 1.04139h 0.181345v
 0.974155h 0.181345v -2.01554h 0.181345v 0.382151h 0.181345v -2.38196h 0.181345v 2.64221h 0.181345v -1.85058h 0.181345v 2.52154h 0.181345v -2.86591h 0.181345v 1.30305h 0.181345v -1.52834h 0.181345v 1.65257h 0.181345v -2.09331h 0.181345v 1.84586h
 0.181345v -1.2929h 0.181345v 2.57283h 0.181345v 0.543993h 0.181345v -1.82392h 0.181345v -1.40512h 0.181345v 1.16166h 0.181345v 4.30212h 0.181345v -3.17423h 0.181345v 0.130686h 0.36269v 2.10959h 0.181345v -2.10959h 0.181345v 1.9594h 0.181345v
 2.25224h 0.181345v -3.81264h 0.181345v 0.409821h 0.181345v -1.82392h 0.181345v 0.626404h 0.181345v -1.34531h 0.181345v 0.596685h 0.181345v 3.24693h 0.181345v 3.18066h 0.181345v -3.47956h 0.181345v 1.55748h 0.36269v 0.164965h 0.181345v -2.99877h
 0.181345v 1.72693h 0.181345v 0.308055h 0.181345v -3.33701h 0.181345v 2.14081h 0.181345v -1.10833h 0.181345v 2.77873h 0.181345v -0.474201h 0.181345v -0.459756h 0.181345v -1.16166h 0.181345v 2.42024h 0.181345v -3.88425h 0.181345v 1.3249h 0.181345v
 2.39617h 0.181345v -3.07315h 0.181345v -1.02373h 0.181345v 1.70071h 0.181345v 0.708776h 0.181345v 2.52154h 0.181345v -3.23032h 0.181345v 0.42126h 0.181345v 1.18446h 0.181345v -0.455135h 0.181345v -1.69458h 0.181345v 0.269546h 0.181345v 2.03498h
 0.181345v 0.963784h 0.181345v -3.53313h 0.181345v 2.10959h 0.181345v -1.02125h 0.181345v -1.47705h 0.181345v 2.65h 0.181345v -2.90369h 0.181345v -0.855769h 0.181345v -1.47101h 0.181345v -1.24131h 0.181345v -2.04035h 0.181345v -2.98156h 0.181345v
 -0.965252h 0.181345v -0.525067h 0.181345v -4.09847h 0.181345v -0.998718h 0.181345v -2.18145h 0.181345v -0.738343h 0.181345v -1.78626h 0.181345v -1.16665h 0.181345v -3.5418h 0.181345v -0.220357h 0.181345v -1.03329h 0.181345v -2.01554h 0.181345v
 -0.295009h 0.181345v -0.79661h 0.181345v -0.220089h 0.181345v -0.518997h 0.181345v 0.683762h 0.181345v 0.486347h 0.181345v -0.796075h 0.181345v 0.607159h 0.181345v 0.41878h 0.181345v 0.751896h 0.181345v 1.46909h 0.181345v -0.0669365h 0.181345v
 1.94574h 0.181345v 0.806253h 0.181345v 2.55558h 0.181345v 0.159055h 0.181345v 2.31079h 0.181345v 1.44608h 0.181345v 1.69093h 0.181345v 2.16705h 0.181345v 4.39537h 0.181345v 1.02621h 0.181345v 3.48237h 0.181345v -2.29945h 0.181345v 2.49174h 0.181345v
 4.47188h 0.181345v -1.00665h 0.181345v 5.52347h 0.181345v -1.50232h 0.181345v 1.85749h 0.181345v 0.363732h 0.181345v 1.54948h 0.181345v 1.49994h 0.181345v 0.457434h 0.181345v 0.958681h 0.36269v 2.40948h 0.181345v -0.569658h 0.181345v -6.30536h
 0.181345v 7.46702h 0.181345v -2.4983h 0.181345v 0.52054h 0.181345v -1.26916h 0.181345v 1.00665h 0.181345v 0.801648h 0.181345v 2.6972h 0.181345v -1.55748h 0.181345v -4.1187h 0.181345v 2.707h 0.181345v -3.15098h 0.181345v 2.10959h 0.181345v 2.45309h
 0.181345v -3.18953h 0.181345v 5.41797h 0.181345v -5.65568h 0.181345v -0.234023h 0.181345v 2.24957h 0.36269v 1.7106h 0.181345v -3.00149h 0.36269v -1.18913h 0.181345v 1.43863h 0.181345v -0.249496h 0.181345v 3.61766h 0.181345v 0.642402h 0.181345v
 -1.25858h 0.181345v -3.96017h 0.181345v 2.24957h 0.181345v 2.32677h 0.181345v -6.12015h 0.181345v 4.06535h 0.181345v 1.74357h 0.181345v -1.4666h 0.181345v -0.276965h 0.181345v -1.31336h 0.181345v 2.45309h 0.181345v -0.2931h 0.181345v -1.64827h
 0.181345v 0.529674h 0.181345v -1.53632h 0.181345v 2.36741h 0.181345v -2.84662h 0.181345v 1.22784h 0.181345v 2.4983h 0.181345v -0.87952h 0.181345v -0.559107h 0.181345v -6.39213h 0.181345v 6.39213h 0.181345v -1.8083h 0.181345v -0.241512h 0.181345v
 0.736446h 0.181345v -1.66561h 0.181345v 1.17068h 0.181345v -1.17068h 0.181345v -1.70255h 0.181345v 1.92954h 0.36269v 2.21286h 0.181345v -1.02373h 0.181345v -1.86009h 0.181345v 5.79554h 0.181345v -4.6601h 0.181345v 2.01554h 0.181345v -4.00158h
 0.181345v 5.71218h 0.181345v -0.592004h 0.181345v -1.38576h 0.181345v -1.74838h 0.181345v 2.28752h 0.181345v -2.52154h 0.181345v 2.24957h 0.36269v -1.53632h 0.181345v -0.943692h 0.181345v -0.670962h 0.181345v 2.88382h 0.181345v 1.09824h 0.181345v
 -1.36075h 0.181345v 3.49885h 0.181345v -4.01057h 0.181345v 1.31336h 0.181345v 1.43863h 0.181345v 1.92954h 0.181345v -7.64172h 0.181345v 3.73442h 0.181345v 0.26716h 0.181345v 2.01554h 0.181345v 1.28539h 0.181345v -4.59181h 0.181345v 0.761211h
 0.36269v 2.24028h 0.36269v -2.4983h 0.181345v 0.52054h 0.181345v 1.97776h 0.181345v -4.64122h 0.181345v 2.66346h 0.181345v 1.38576h 0.181345v 1.85058h 0.181345v 0.670962h 0.181345v 2.21286h 0.181345v -5.30406h 0.181345v -0.548939h 0.181345v 3.30093h
 0.181345v 1.40512h 0.181345v -1.73687h 0.181345v 0.670962h 0.181345v -3.0912h 0.181345v 0.862758h 0.181345v 0.298904h 0.181345v -0.298904h 0.181345v -0.580616h 0.181345v -0.831081h 0.181345v 1.4117h 0.181345v -0.2931h 0.181345v 0.592004h 0.181345v
 1.25858h 0.181345v -1.55748h 0.181345v 2.22844h 0.181345v -1.92954h 0.181345v -0.592004h 0.181345v -0.287516h 0.181345v 2.46985h 0.181345v -3.02896h 0.181345v -2.28752h 0.181345v 4.98472h 0.181345v -2.6972h 0.181345v 2.0548h 0.181345v -0.311231h
 0.181345v 4.23998h 0.181345v -2.26838h 0.181345v -1.66037h 0.181345v 1.31336h 0.181345v 1.43863h 0.181345v 0.382151h 0.181345v -0.382151h 0.181345v 2.90369h 0.181345v -3.64014h 0.181345v -2.32677h 0.181345v 0.953632h 0.181345v 1.37314h 0.181345v
 1.91321h 0.181345v 1.27632h 0.181345v -6.70077h 0.181345v 8.09507h 0.181345v -8.09507h 0.181345v 5.42445h 0.181345v -2.26838h 0.181345v 1.09162h 0.181345v 1.59033h 0.181345v -4.65355h 0.181345v 5.96691h 0.181345v -1.72693h 0.181345v -0.794613h
 0.181345v -1.47377h 0.181345v 1.86585h 0.181345v 1.24131h 0.181345v -1.24131h 0.181345v 1.67886h 0.181345v 1.3943h 0.181345v -0.47922h 0.36269v 1.48587h 0.181345v 0.529674h 0.181345v -1.53632h 0.181345v -0.943692h 0.181345v 2.48002h 0.181345v
 -2.48002h 0.181345v -0.888148h 0.181345v 0.888148h 0.181345v 0.943692h 0.181345v 1.00665h 0.181345v -1.00665h 0.36269v 3.24693h 0.181345v -0.592004h 0.181345v -5.32554h 0.181345v 4.75588h 0.181345v -1.59033h 0.181345v 2.75199h 0.181345v -0.592004h
 0.181345v 1.85058h 0.181345v -1.25858h 0.181345v 2.63172h 0.181345v -0.70218h 0.181345v 2.21286h 0.181345v -6.38267h 0.181345v 7.19877h 0.181345v -5.5505h 0.181345v 1.85058h 0.181345v -1.85058h 0.181345v 1.20818h 0.181345v 4.34232h 0.181345v
 -3.69992h 0.36269v 3.69992h 0.181345v -4.34232h 0.181345v 3.52622h 0.181345v 1.67886h 0.181345v -2.45309h 0.36269v 0.774229h 0.181345v 1.67886h 0.181345v -4.56268h 0.181345v 5.47775h 0.181345v -0.915078h 0.181345v -1.67886h 0.181345v 9.68824h
 0.181345v -10.4625h 0.181345v 9.02385h 0.181345v 3.02896h 0.181345v -6.66909h 0.181345v -4.60948h 0.181345v -2.21286h 0.181345v 4.80679h 0.36269v 14.8048h 0.181345v -9.14911h 0.36269v -6.57076h 0.181345v 5.2574h 0.181345v -7.71048h 0.181345v
 3.36816h 0.181345v -4.10461h 0.181345v 7.23875h 0.36269v 1.20818h 0.181345v -3.36816h 0.181345v -0.974155h 0.181345v 3.13414h 0.181345v -2.15999h 0.181345v 6.12015h 0.181345v -3.96017h 0.181345v -5.72808h 0.181345v -4.14239h 0.181345v 7.71048h
 0.181345v -8.87214h 0.181345v 12.2403h 0.181345v -12.2403h 0.36269v -2.08526h 0.181345v -3.46523h 0.181345v 0.392078h 0.181345v -2.21286h 0.181345v 3.02896h 0.181345v -6.39712h 0.181345v 0.559107h 0.181345v -1.36075h 0.181345v -2.40095h 0.181345v
 -0.651648h 0.36269v -1.98895h 0.181345v 0.569658h 0.181345v -1.1186h 0.181345v -0.178631h 0.181345v -1.19451h 0.181345v 2.29945h 0.181345v -4.0042h 0.181345v 0.295973h 0.181345v 0.455135h 0.36269v 0.790451h 0.181345v -1.09539h 0.181345v 1.92954h
 0.181345v 0.172507h 0.36269v 1.07861h 0.181345v -1.75712h 0.181345v 3.96017h 0.181345v 0.888148h 0.181345v 1.43863h 0.181345v 0.253689h 0.181345v 3.11447h 0.181345v -3.8631h 0.181345v 2.94802h 0.181345v 0.298904h 0.181345v 2.99545h 0.181345v
 5.75642h 0.181345v -2.48002h 0.181345v 2.48002h 0.181345v 2.32677h 0.181345v 2.75199h 0.181345v -4.52983h 0.181345v -2.56448h 0.181345v 7.09431h 0.181345v -1.43863h 0.36269v 2.21286h 0.181345v -0.774229h 0.181345v 5.38371h 0.181345v -4.60948h
 0.181345v -2.21286h 0.181345v -3.64014h 0.181345v -2.48002h 0.36269v 0.464472h 0.181345v 0.974155h 0.181345v -7.40554h 0.181345v 1.28539h 0.181345v -1.88923h 0.181345v -2.1994h 0.181345v 1.9063h 0.181345v -5.92539h 0.181345v -0.194766h 0.181345v
 3.71067h 0.181345v -9.57058h 0.181345v 0.947927h 0.181345v 1.62142h 0.181345v -3.21175h 0.181345v -2.6468h 0.181345v -0.209644h 0.181345v -0.410751h 0.181345v 1.60159h 0.181345v -1.19084h 0.181345v -2.83849h 0.181345v -0.341125h 0.181345v 1.78838h
 0.181345v -2.92504h 0.181345v 0.157232h 0.181345v 1.23454h 0.181345v 0.612601h 0.181345v -1.92596h 0.181345v 0.47922h 0.181345v 0.663586h 0.181345v -1.60728h 0.181345v -1.10225h 0.181345v -0.211111h 0.181345v 0.569658h 0.181345v -0.569658h 0.181345v
 1.08638h 0.181345v 0.457434h 0.181345v -3.13414h 0.181345v 1.45121h 0.181345v -2.06738h 0.181345v -0.592004h 0.181345v -0.401007h 0.181345v -0.280048h 0.181345v 1.45528h 0.181345v -2.73161h 0.181345v 0.731348h 0.181345v -1.4775h 0.181345v 1.0033h
 0.181345v 0.261604h 0.181345v 0.159167h 0.181345v -0.728825h 0.181345v 1.05228h 0.181345v -0.270028h 0.181345v 1.22603h 0.181345v 1.08291h 0.181345v 0.443047h 0.181345v 0.522794h 0.181345v 1.39215h 0.181345v -0.50199h 0.181345v 3.74308h 0.181345v
 -2.57013h 0.181345v 5.55897h 0.181345v -0.856636h 0.181345v -0.309106h 0.181345v 3.29187h 0.181345v 1.60443h 0.181345v 0.722346h 0.181345v 0.450605h 0.181345v 2.66079h 0.181345v 1.13259h 0.181345v 1.65581h 0.181345v 5.16652h 0.181345v -1.4666h
 0.181345v 3.43821h 0.181345v 6.47533h 0.181345v -4.20694h 0.181345v 2.67062h 0.181345v 3.24693h 0.181345v 0.616174h 0.181345v 4.34232h 0.181345v 1.77784h 0.181345v 0.974155h 0.181345v -5.07877h 0.181345v 8.44693h 0.181345v -5.2574h 0.181345v 5.2574h
 0.181345v -3.36816h 0.181345v 11.5039h 0.181345v -3.79338h 0.181345v -3.02896h 0.36269v -2.52154h 0.181345v 5.5505h 0.181345v 3.79338h 0.181345v -5.38371h 0.181345v 3.36816h 0.181345v 10.4625h 0.181345v -6.12015h 0.181345v -4.34232h 0.181345v
 4.34232h 0.181345v 10.4625h 0.181345v -7.71048h 0.181345v -8.87214h 0.181345v -1.59033h 0.181345v 7.71048h 0.181345v -4.34232h 0.181345v 2.01554h 0.181345v -3.79338h 0.181345v 3.79338h 0.181345v 2.32677h 0.181345v 10.4625h 0.181345v -4.34232h
 0.181345v -6.12015h 0.544034v 27.0451h 0.181345v -16.5826h 0.181345v -10.4625h 0.181345v 2.75199h 0.181345v 13.8306h 0.181345v -13.8306h 0.181345v -2.75199h 0.181345v 16.5826h 0.181345v -6.12015h 0.181345v -4.34232h 0.36269v 20.9249h 0.181345v
 -16.5826h 0.181345v -14.8048h 0.181345v 2.01554h 0.36269v 2.32677h 0.181345v 16.5826h 0.181345v -16.5826h 0.181345v 2.75199h 0.181345v 13.8306h 0.181345v -10.4625h 0.36269v 4.34232h 0.181345v -14.8048h 0.181345v 14.8048h 0.181345v -7.71048h
 0.181345v -2.75199h 0.181345v 16.5826h 0.36269v -13.8306h 0.181345v -2.75199h 0.181345v 10.4625h 0.36269v -10.4625h 0.181345v 10.4625h 0.181345v -12.7892h 0.181345v 12.7892h 0.181345v 16.5826h 0.181345v -27.0451h 0.181345v 6.12015h 0.181345v
 -10.4625h 0.181345v 10.4625h 0.181345v -8.44693h 0.181345v 12.7892h 0.181345v -10.4625h 0.181345v 2.75199h 0.181345v -5.07877h 0.181345v 5.07877h 0.181345v -7.09431h 0.36269v 4.34232h 0.181345v -13.8306h 0.181345v 16.5826h 0.181345v -7.09431h
 0.181345v -4.80679h 0.181345v 9.14911h 0.181345v 2.75199h 0.181345v -14.4226h 0.181345v -3.13414h 0.181345v 10.4625h 0.181345v -8.44693h 0.181345v -1.04139h 0.181345v 1.04139h 0.181345v 1.1186h 0.181345v -1.1186h 0.181345v 2.32677h 0.181345v
 -6.93625h 0.181345v 2.59394h 0.181345v 0.974155h 0.181345v 6.12015h 0.181345v -8.87214h 0.181345v 6.12015h 0.36269v -3.36816h 0.181345v 1.04139h 0.181345v -2.01554h 0.181345v 0.974155h 0.181345v 6.12015h 0.181345v 1.59033h 0.181345v -4.34232h
 0.181345v 2.75199h 0.181345v -6.12015h 0.181345v 16.5826h 0.181345v -11.9011h 0.181345v -1.31336h 0.181345v 13.2145h 0.181345v -15.5412h 0.181345v -2.01554h 0.181345v 17.5568h 0.181345v 24.2931h 0.181345v -29.3719h 0.181345v 29.3719h 0.181345v
 -27.0451h 0.181345v 6.12015h 0.181345v 10.4625h 0.36269v -6.12015h 0.181345v 6.12015h 0.181345v -10.4625h 0.181345v 10.4625h 0.181345v -18.9094h 0.181345v 8.44693h 0.36269v 4.34232h 0.36269v -4.34232h 0.181345v 4.34232h 0.181345v -12.7892h 0.181345v
 12.7892h 0.181345v -10.4625h 0.181345v 27.0451h 0.36269v -16.5826h 0.181345v -10.4625h 0.181345v 16.5826h 0.181345v -16.5826h 0.181345v 6.12015h 0.181345v -6.12015h 0.181345v -2.32677h 0.181345v 18.9094h 0.36269v -13.8306h 0.181345v 7.71048h
 0.181345v -7.71048h 0.181345v 7.71048h 0.36269v 27.0451h 0.181345v -20.9249h 0.181345v -16.5826h 0.181345v 10.4625h 0.181345v -10.4625h 0.181345v 10.4625h 0.181345v -4.34232h 0.181345v 20.9249h 0.181345v -20.9249h 0.181345v 20.9249h 0.36269v
 -24.2931h 0.181345v 3.36816h 0.181345v -6.12015h 0.181345v -2.32677h 0.181345v 8.44693h 0.181345v 4.34232h 0.181345v -12.7892h 0.181345v 18.9094h 0.181345v -18.9094h 0.181345v 8.44693h 0.181345v -8.44693h 0.181345v -3.79338h 0.181345v 6.12015h
 0.36269v 2.75199h 0.181345v -2.75199h 0.181345v 2.75199h 0.181345v -10.4625h 0.181345v 13.8306h 0.181345v 10.4625h 0.181345v -16.5826h 0.181345v 6.12015h 0.181345v 10.4625h 0.181345v 10.4625h 0.181345v -20.9249h 0.181345v -8.44693h 0.181345v
 -3.79338h 0.181345v -1.59033h 0.181345v -2.75199h 0.181345v 8.1357h 0.181345v -2.01554h 0.181345v 7.09431h 0.181345v -10.4625h 0.181345v 5.38371h 0.181345v -3.79338h 0.181345v 1.77784h 0.181345v -1.77784h 0.181345v 6.12015h 0.181345v 2.75199h
 0.36269v 7.71048h 0.181345v -25.2673h 0.181345v 8.68464h 0.36269v 8.87214h 0.181345v -11.9011h 0.181345v 4.80679h 0.181345v 4.34232h 0.181345v -2.32677h 0.181345v -2.01554h 0.181345v -1.77784h 0.181345v 6.12015h 0.181345v -7.71048h 0.544034v
 -1.43863h 0.181345v 9.14911h 0.181345v -2.32677h 0.181345v 5.07877h 0.181345v -7.09431h 0.181345v 20.9249h 0.181345v -22.7028h 0.181345v 1.77784h 0.181345v 7.09431h 0.181345v -10.4625h 0.181345v 7.71048h 0.181345v 10.4625h 0.181345v -7.71048h
 0.181345v 7.71048h 0.36269v -10.4625h 0.181345v -4.34232h 0.181345v 7.09431h 0.181345v 3.36816h 0.181345v -3.36816h 0.36269v 7.71048h 0.181345v 16.5826h 0.181345v -31.3874h 0.181345v 4.34232h 0.181345v 6.12015h 0.544034v -3.36816h 0.181345v
 -2.75199h 0.181345v 6.12015h 0.181345v -6.12015h 0.181345v -10.4625h 0.181345v 16.5826h 0.36269v -6.12015h 0.181345v -2.32677h 0.181345v -6.82233h 0.181345v -3.64014h 0.181345v 10.4625h 0.181345v 8.44693h 0.181345v -8.44693h 0.181345v 2.32677h
 0.181345v 2.75199h 0.181345v -10.4625h 0.181345v 1.59033h 0.181345v 6.12015h 0.181345v -7.71048h 0.181345v 3.36816h 0.181345v 4.34232h 0.36269v -2.32677h 0.181345v 5.07877h 0.181345v -7.09431h 0.181345v -4.80679h 0.181345v 4.80679h 0.181345v
 -7.32833h 0.181345v 7.32833h 0.181345v -4.80679h 0.181345v -4.68153h 0.181345v 11.5039h 0.181345v -3.79338h 0.181345v 3.79338h 0.181345v -5.38371h 0.181345v 10.4625h 0.181345v -2.75199h 0.181345v -2.32677h 0.181345v -5.38371h 0.181345v 5.38371h
 0.181345v -14.2559h 0.181345v 12.2403h 0.181345v -6.12015h 0.181345v 4.34232h 0.181345v -3.02896h 0.181345v 1.43863h 0.181345v -1.43863h 0.36269v 4.80679h 0.181345v 7.09431h 0.181345v -11.9011h 0.181345v -9.02385h 0.181345v 10.4625h 0.181345v
 -1.43863h 0.181345v 11.9011h 0.181345v -8.87214h 0.181345v 1.77784h 0.181345v -11.3776h 0.181345v 2.93062h 0.181345v -1.04139h 0.181345v 1.04139h 0.181345v -2.01554h 0.181345v 10.4625h 0.181345v -3.36816h 0.181345v -7.09431h 0.181345v 2.01554h
 0.181345v -2.01554h 0.181345v 4.34232h 0.181345v -1.20818h 0.181345v 3.96017h 0.181345v -1.43863h 0.181345v -3.64014h 0.181345v -1.04139h 0.181345v 1.04139h 0.181345v 5.07877h 0.181345v -9.68824h 0.181345v 4.60948h 0.181345v -2.93062h 0.181345v
 -0.862758h 0.181345v -3.02896h 0.181345v 0.70218h 0.181345v 4.10461h 0.181345v -5.47775h 0.181345v 3.69992h 0.181345v 8.87214h 0.181345v -6.12015h 0.181345v -5.07877h 0.181345v 6.12015h 0.181345v -2.93062h 0.181345v 1.88923h 0.181345v -2.75199h
 0.181345v -2.32677h 0.181345v 9.76029h 0.181345v 1.43863h 0.181345v -8.00939h 0.181345v -3.18953h 0.181345v 5.07877h 0.36269v -1.88923h 0.181345v 4.04922h 0.181345v -4.04922h 0.181345v 4.04922h 0.181345v -2.15999h 0.181345v -3.56809h 0.36269v
 5.72808h 0.181345v -1.1186h 0.181345v -2.93062h 0.181345v 4.04922h 0.181345v -7.94093h 0.181345v 9.14911h 0.181345v -9.14911h 0.181345v 13.4914h 0.181345v -3.02896h 0.181345v 3.02896h 0.181345v -10.4625h 0.181345v 1.77784h 0.181345v -5.47775h
 0.181345v 7.4933h 0.181345v -8.75187h 0.181345v 1.92954h 0.181345v 9.14911h 0.181345v -7.71048h 0.181345v 5.38371h 0.181345v 3.64014h 0.181345v -4.68153h 0.181345v -3.56809h 0.181345v -5.85299h 0.181345v 7.53185h 0.181345v -6.98291h 0.181345v
 8.87214h 0.181345v -5.78095h 0.181345v -7.0083h 0.181345v 10.9h 0.36269v -3.18953h 0.181345v -4.87199h 0.181345v 7.19877h 0.181345v -7.71048h 0.181345v 6.89438h 0.181345v -8.33301h 0.181345v 15.2693h 0.181345v -9.14911h 0.181345v -0.670962h
 0.181345v -3.49885h 0.181345v 5.60844h 0.181345v -5.07877h 0.181345v -3.36816h 0.181345v 1.83184h 0.181345v 2.08526h 0.181345v -0.548939h 0.181345v -3.36816h 0.181345v 10.0373h 0.181345v -6.12015h 0.181345v 1.16166h 0.181345v -1.7106h 0.181345v
 -3.36816h 0.181345v 1.83184h 0.181345v 3.24693h 0.181345v -1.7106h 0.181345v 2.32677h 0.181345v -0.616174h 0.181345v -1.7106h 0.36269v -3.36816h 0.181345v -3.45417h 0.181345v 9.79151h 0.181345v -1.25858h 0.181345v 1.25858h 0.181345v 3.69992h
 0.181345v -3.02896h 0.181345v 1.43863h 0.181345v -5.60844h 0.181345v 9.95076h 0.181345v -8.87214h 0.181345v 3.0912h 0.181345v -1.31336h 0.181345v 2.01554h 0.36269v -3.22372h 0.181345v 0.592004h 0.181345v 4.14239h 0.181345v -2.88382h 0.36269v
 -0.642402h 0.181345v 13.2145h 0.181345v -13.2145h 0.181345v 7.09431h 0.181345v -8.87214h 0.181345v 5.30406h 0.181345v -1.51068h 0.181345v -2.01554h 0.181345v 7.09431h 0.181345v -2.75199h 0.181345v 2.75199h 0.181345v 2.15999h 0.181345v -4.04922h
 0.181345v 9.59972h 0.181345v -4.34232h 0.181345v -9.14911h 0.181345v 0.70218h 0.181345v 3.18953h 0.181345v 2.93062h 0.181345v 3.64014h 0.181345v -9.76029h 0.181345v 1.51068h 0.181345v 8.24962h 0.181345v -1.31336h 0.181345v -7.71048h 0.181345v
 -2.10959h 0.181345v 6.45191h 0.181345v 1.04139h 0.181345v -3.79338h 0.36269v 6.12015h 0.181345v -6.12015h 0.181345v 1.77784h 0.181345v 4.34232h 0.181345v 2.75199h 0.181345v -2.75199h 0.181345v -7.71048h 0.181345v 10.4625h 0.181345v -6.12015h
 0.181345v -3.56809h 0.181345v -2.88382h 0.181345v 1.37314h 0.36269v 9.76029h 0.36269v -6.57076h 0.181345v 1.88923h 0.181345v -1.88923h 0.181345v 1.88923h 0.181345v -7.71048h 0.181345v 13.8306h 0.181345v -3.96017h 0.181345v -4.91198h 0.181345v
 0.862758h 0.181345v -3.18953h 0.181345v 5.07877h 0.181345v 2.15999h 0.181345v -2.15999h 0.181345v -5.07877h 0.181345v 0.736446h 0.181345v 1.59033h 0.181345v -3.69992h 0.181345v 12.5721h 0.181345v 3.36816h 0.181345v -13.0564h 0.181345v 6.93625h
 0.181345v -1.20818h 0.181345v -5.72808h 0.181345v 4.60948h 0.181345v -1.04139h 0.181345v -0.974155h 0.181345v -3.36816h 0.181345v 9.02385h 0.181345v -5.65568h 0.181345v 5.65568h 0.181345v -9.02385h 0.181345v 4.34232h 0.181345v -1.88923h 0.181345v
 0.915078h 0.181345v 7.09431h 0.181345v -1.43863h 0.181345v -5.65568h 0.36269v 0.974155h 0.181345v 4.68153h 0.181345v -3.64014h 0.181345v -4.60948h 0.181345v 1.67886h 0.181345v 8.00939h 0.181345v -9.68824h 0.181345v 3.56809h 0.181345v -0.974155h
 0.181345v 12.478h 0.181345v -15.072h 0.36269v -2.21286h 0.181345v 3.02896h 0.36269v 0.862758h 0.181345v -7.53185h 0.181345v 0.548939h 0.181345v 11.0321h 0.181345v -7.23875h 0.181345v -0.70218h 0.181345v 4.80679h 0.181345v -4.10461h 0.181345v
 8.44693h 0.181345v -9.14911h 0.181345v 3.02896h 0.181345v 1.77784h 0.181345v 3.13414h 0.181345v -7.23875h 0.181345v 4.10461h 0.181345v -4.10461h 0.181345v -1.37314h 0.181345v 6.45191h 0.181345v -5.07877h 0.181345v 0.736446h 0.181345v 2.45309h
 0.181345v 6.57076h 0.181345v -4.68153h 0.181345v -3.56809h 0.181345v -2.21286h 0.181345v 5.78095h 0.181345v -9.42108h 0.181345v 5.07877h 0.181345v 1.59033h 0.181345v -1.59033h 0.36269v 0.774229h 0.181345v 0.816099h 0.181345v -6.66909h 0.181345v
 1.1186h 0.181345v 9.34388h 0.181345v -9.91353h 0.181345v 9.91353h 0.181345v -6.82233h 0.181345v 4.80679h 0.181345v -0.915078h 0.181345v 0.915078h 0.181345v -3.36816h 0.181345v 0.774229h 0.181345v 1.67886h 0.181345v -0.862758h 0.181345v 2.75199h
 0.181345v -6.45191h 0.181345v 4.56268h 0.181345v 2.93062h 0.181345v -2.93062h 0.181345v -3.89171h 0.181345v -3.0912h 0.181345v 4.52983h 0.181345v -1.43863h 0.181345v -3.64014h 0.181345v 2.32677h 0.181345v 1.31336h 0.36269v 1.43863h 0.181345v
 1.59033h 0.181345v -7.19877h 0.181345v 0.529674h 0.181345v 6.66909h 0.181345v -7.71048h 0.181345v 4.01057h 0.181345v -2.42024h 0.181345v 9.91353h 0.181345v -8.1357h 0.181345v 2.01554h 0.181345v -2.01554h 0.181345v 2.01554h 0.181345v -5.87864h
 0.36269v 9.06818h 0.181345v -6.98291h 0.181345v -2.08526h 0.181345v 1.53632h 0.181345v 2.96918h 0.181345v 2.10959h 0.181345v -5.60844h 0.181345v 2.24028h 0.181345v 1.92954h 0.181345v -3.0912h 0.181345v -0.548939h 0.181345v -1.53632h 0.181345v
 0.494935h 0.181345v 0.511715h 0.181345v 1.07861h 0.181345v 1.16166h 0.181345v -3.24693h 0.181345v -2.67062h 0.181345v 3.16555h 0.181345v 4.01057h 0.181345v 7.4933h 0.181345v -2.93062h 0.181345v -3.89171h 0.181345v -2.52154h 0.181345v -1.1186h
 0.181345v 5.07877h 0.181345v 0.774229h 0.181345v -0.774229h 0.181345v -4.52983h 0.181345v -1.07861h 0.181345v 6.38267h 0.181345v 0.816099h 0.181345v 0.862758h 0.36269v -1.67886h 0.181345v 2.59394h 0.181345v -0.915078h 0.181345v -2.45309h 0.181345v
 -1.43863h 0.181345v 15.2693h 0.181345v -9.48832h 0.181345v 2.15999h 0.36269v -5.72808h 0.181345v 9.68824h 0.181345v -2.75199h 0.181345v -2.32677h 0.181345v -3.79338h 0.181345v -3.69992h 0.181345v 11.1334h 0.181345v -6.57076h 0.181345v 4.04922h
 0.181345v -6.50231h 0.181345v 1.59033h 0.544034v 3.79338h 0.181345v -3.79338h 0.181345v -2.32677h 0.181345v -1.37314h 0.181345v 2.88382h 0.181345v 1.67886h 0.181345v 5.2574h 0.181345v -9.82007h 0.181345v 2.10959h 0.181345v 5.38371h 0.181345v
 -5.38371h 0.181345v 3.36816h 0.181345v -4.10461h 0.181345v 0.736446h 0.181345v 10.4625h 0.181345v -5.07877h 0.181345v -9.34388h 0.181345v 4.7344h 0.181345v 3.56809h 0.181345v -4.34232h 0.181345v 5.38371h 0.181345v -2.93062h 0.181345v -5.20508h
 0.181345v -0.616174h 0.181345v -1.16166h 0.181345v 7.89799h 0.181345v -4.10461h 0.181345v 0.736446h 0.181345v -0.736446h 0.181345v -3.79338h 0.181345v 7.89799h 0.181345v -0.915078h 0.181345v -3.18953h 0.181345v 5.07877h 0.181345v -0.974155h
 0.181345v -0.915078h 0.181345v 4.04922h 0.181345v -6.50231h 0.181345v 6.50231h 0.181345v -3.13414h 0.181345v -4.10461h 0.181345v 4.10461h 0.181345v 0.974155h 0.36269v -1.88923h 0.181345v 2.93062h 0.181345v 2.32677h 0.181345v 2.75199h 0.181345v
 -6.12015h 0.181345v 2.15999h 0.181345v 3.96017h 0.181345v -3.96017h 0.181345v 1.20818h 0.36269v 4.34232h 0.181345v 3.79338h 0.181345v -5.38371h 0.181345v 5.38371h 0.181345v 8.44693h 0.181345v -18.9094h 0.181345v 1.1186h 0.181345v 1.20818h 0.181345v
 6.12015h 0.181345v -3.36816h 0.181345v 3.36816h 0.181345v 10.4625h 0.181345v -13.8306h 0.181345v -1.43863h 0.36269v 3.02896h 0.181345v -1.59033h 0.181345v 1.59033h 0.181345v -7.71048h 0.181345v 16.5826h 0.181345v -14.4226h 0.181345v 5.5505h
 0.181345v 1.77784h 0.181345v -7.32833h 0.181345v -1.1186h 0.181345v 8.44693h 0.181345v -3.36816h 0.181345v 13.8306h 0.181345v -8.44693h 0.181345v -2.01554h 0.181345v -1.77784h 0.36269v 3.79338h 0.181345v -2.01554h 0.181345v 2.01554h 0.36269v
 -10.4625h 0.181345v 8.44693h 0.36269v 2.01554h 0.181345v -8.1357h 0.181345v 13.2145h 0.181345v -7.09431h 0.181345v -8.44693h 0.181345v 10.4625h 0.181345v 2.32677h 0.181345v -7.71048h 0.181345v 7.71048h 0.181345v -4.34232h 0.36269v 2.01554h 0.181345v
 -10.4625h 0.181345v 5.07877h 0.181345v -2.75199h 0.181345v 2.75199h 0.181345v 3.36816h 0.181345v -10.4625h 0.181345v 2.01554h 0.181345v 5.07877h 0.181345v 1.59033h 0.181345v 8.87214h 0.181345v -11.9011h 0.181345v -1.31336h 0.181345v -5.2574h
 0.181345v 11.3776h 0.181345v -1.77784h 0.181345v 3.79338h 0.181345v -15.8462h 0.181345v 4.34232h 0.181345v 6.12015h 0.181345v -2.75199h 0.181345v 6.12015h 0.181345v 2.01554h 0.181345v -10.4625h 0.181345v 1.1186h 0.181345v 9.34388h 0.181345v
 -10.4625h 0.181345v 10.4625h 0.181345v -10.4625h 0.181345v 6.66909h 0.181345v -9.59972h 0.181345v 2.93062h 0.181345v 12.7892h 0.181345v -7.71048h 0.181345v -3.96017h 0.181345v -2.15999h 0.181345v 16.5826h 0.181345v -11.9011h 0.36269v 1.43863h
 0.544034v -1.43863h 0.181345v 6.82233h 0.181345v -12.478h 0.181345v 14.8048h 0.181345v -11.6707h 0.181345v 17.7908h 0.181345v -15.2693h 0.181345v 4.80679h 0.181345v -7.32833h 0.181345v 14.4226h 0.181345v -11.9011h 0.181345v -3.64014h 0.181345v
 6.66909h 0.181345v -1.59033h 0.181345v -2.75199h 0.181345v -4.34232h 0.181345v 7.09431h 0.36269v 5.38371h 0.181345v 8.44693h 0.181345v -21.84h 0.181345v 4.04922h 0.181345v 2.52154h 0.181345v 1.43863h 0.181345v 1.59033h 0.181345v 1.77784h 0.181345v
 -1.77784h 0.181345v -6.66909h 0.181345v 12.7892h 0.181345v -9.14911h 0.181345v 6.82233h 0.181345v -8.1357h 0.181345v 1.31336h 0.181345v 3.02896h 0.181345v -5.5505h 0.181345v 3.96017h 0.181345v -5.07877h 0.181345v 8.44693h 0.181345v 2.01554h
 0.181345v -3.79338h 0.36269v -9.59972h 0.181345v 1.88923h 0.181345v 3.36816h 0.181345v -3.36816h 0.181345v 30.4133h 0.181345v -31.3874h 0.181345v 3.13414h 0.181345v 7.32833h 0.181345v -1.77784h 0.181345v -5.5505h 0.181345v -2.15999h 0.181345v
 4.68153h 0.181345v 9.14911h 0.181345v -13.8306h 0.181345v 7.71048h 0.181345v -1.59033h 0.181345v -1.43863h 0.181345v -3.64014h 0.181345v -2.93062h 0.181345v 5.2574h 0.181345v -5.2574h 0.181345v 1.88923h 0.181345v -2.75199h 0.181345v 0.862758h
 0.181345v -3.18953h 0.181345v 6.12015h 0.181345v -6.12015h 0.36269v 0.736446h 0.181345v -3.36816h 0.181345v 6.73633h 0.181345v -6.73633h 0.181345v 1.92954h 0.181345v 6.82233h 0.181345v -4.60948h 0.181345v -3.52622h 0.181345v -1.77784h 0.181345v
 3.79338h 0.181345v 0.736446h 0.181345v -1.43863h 0.181345v -2.52154h 0.181345v 3.22372h 0.181345v 2.32677h 0.181345v -2.32677h 0.181345v 0.736446h 0.181345v 0.774229h 0.181345v 4.60948h 0.181345v -8.75187h 0.181345v 1.25858h 0.181345v -1.25858h
 0.181345v -2.24028h 0.181345v 4.16981h 0.181345v -0.670962h 0.181345v -1.25858h 0.181345v 6.73633h 0.181345v -9.98325h 0.181345v 6.61509h 0.181345v -6.61509h 0.181345v -0.943692h 0.181345v 16.5826h 0.181345v -2.52154h 0.181345v -7.23875h 0.181345v
 0.736446h 0.181345v 2.45309h 0.181345v -0.862758h 0.36269v -3.02896h 0.181345v 1.43863h 0.181345v 6.50231h 0.181345v -2.15999h 0.181345v 4.68153h 0.181345v -5.65568h 0.181345v 4.34232h 0.181345v -6.93625h 0.181345v 9.68824h 0.725379v -2.75199h
 0.181345v 8.1357h 0.181345v -5.38371h 0.181345v -3.96017h 0.181345v 7.32833h 0.181345v 20.9249h 0.181345v -18.9094h 0.181345v -5.38371h 0.181345v 7.71048h 0.181345v -4.34232h 0.181345v -1.77784h 0.181345v 6.12015h 0.181345v 10.4625h 0.181345v
 -14.8048h 0.181345v 7.09431h 0.181345v 3.36816h 0.181345v -3.36816h 0.181345v 13.8306h 0.181345v -6.12015h 0.181345v 6.12015h 0.181345v -13.8306h 0.181345v -2.75199h 0.181345v -2.32677h 0.181345v 8.44693h 0.181345v 10.4625h 0.181345v -10.4625h
 0.181345v 20.9249h 0.181345v -24.2931h 0.181345v 13.8306h 0.181345v -6.12015h 0.181345v 6.12015h 0.181345v 10.4625h 0.181345v -16.5826h 0.181345v -7.71048h 0.181345v 24.2931h 0.181345v 10.4625h 0.181345v -27.0451h 0.36269v 27.0451h 0.181345v
 -31.3874h 0.181345v 4.34232h 0.181345v 6.12015h 0.181345v -6.12015h 0.181345v 6.12015h 0.181345v -6.12015h 0.181345v -4.34232h 0.181345v 10.4625h 0.181345v -6.12015h 0.181345v 16.5826h 0.725379v -10.4625h 0.36269v -6.12015h 0.181345v 16.5826h
 0.181345v 10.4625h 0.36269v -20.9249h 0.181345v 10.4625h 0.181345v -10.4625h 0.181345v 20.9249h 0.36269v -10.4625h 0.36269v -10.4625h 0.181345v 10.4625h 0.181345v -16.5826h 0.181345v 6.12015h 0.181345v 20.9249h 0.181345v -10.4625h 0.181345v
 -16.5826h 0.181345v 16.5826h 0.725379v -10.4625h 0.181345v 20.9249h 0.36269v -10.4625h 0.181345v 10.4625h 0.181345v -27.0451h 0.181345v 16.5826h 0.544034v -10.4625h 0.181345v -6.12015h 0.181345v 27.0451h 0.181345v -10.4625h 0.181345v -10.4625h
 0.181345v 10.4625h 0.181345v -10.4625h 0.181345v 20.9249h 0.36269v -20.9249h 0.36269v 20.9249h 0.181345v -10.4625h 0.544034v 10.4625h 0.36269v -27.0451h 0.181345v 16.5826h 0.544034v 10.4625h 0.36269v -10.4625h 0.36269v -16.5826h 0.181345v 16.5826h
 0.36269v 10.4625h 0.906724v -20.9249h 0.181345v -10.4625h 0.181345v 31.3874h 0.181345v -20.9249h 0.181345v 20.9249h 0.181345v -31.3874h 0.181345v 20.9249h 0.181345v 10.4625h 0.181345v -10.4625h 0.36269v -16.5826h 0.181345v 16.5826h 0.181345v
 -16.5826h 0.181345v 6.12015h 0.181345v -6.12015h 0.181345v 27.0451h 0.181345v -20.9249h 0.181345v 10.4625h 0.36269v -10.4625h 0.181345v 10.4625h 0.181345v -16.5826h 0.36269v 16.5826h 0.181345v -16.5826h 0.181345v -4.34232h 0.181345v 31.3874h
 0.181345v -10.4625h 0.181345v -10.4625h 0.181345v -13.8306h 0.181345v 24.2931h 0.36269v 10.4625h 0.181345v -10.4625h 0.544034v -10.4625h 0.181345v 20.9249h 0.181345v -20.9249h 0.181345v 10.4625h 0.36269v -16.5826h 0.181345v 16.5826h 0.181345v
 10.4625h 0.181345v -27.0451h 0.181345v 16.5826h 0.181345v 10.4625h 0.181345v -20.9249h 0.181345v 20.9249h 0.36269v -10.4625h 0.181345v 10.4625h 0.906724v -20.9249h 0.181345v 10.4625h 0.725379v 10.4625h 0.181345v -27.0451h 0.181345v 27.0451h
 0.544034v -10.4625h 0.181345v 10.4625h 0.181345v -27.0451h 0.181345v 16.5826h 0.181345v -10.4625h 0.181345v 20.9249h 0.181345v -20.9249h 0.181345v 10.4625h 0.36269v 10.4625h 0.544034v -20.9249h 0.181345v 20.9249h 0.181345v -27.0451h 0.181345v
 6.12015h 0.181345v 20.9249h 0.181345v -20.9249h 0.181345v 10.4625h 0.181345v -10.4625h 0.181345v 20.9249h 0.181345v -10.4625h 0.181345v 10.4625h 0.544034v -10.4625h 0.181345v 10.4625h 0.181345v -10.4625h 0.181345v 10.4625h 0.181345v -10.4625h
 0.181345v 10.4625h 0.544034v -20.9249h 0.36269v 10.4625h 0.181345v 10.4625h 0.181345v -10.4625h 0.181345v -10.4625h 0.181345v 20.9249h 0.544034v -10.4625h 0.181345v 10.4625h 0.181345v -20.9249h 0.181345v 20.9249h 0.181345v -10.4625h 0.181345v
 10.4625h 0.36269v -10.4625h 0.544034v 10.4625h 0.36269v -27.0451h 0.181345v 16.5826h 0.181345v 10.4625h 0.181345v -10.4625h 0.544034v 10.4625h 0.181345v -10.4625h 0.36269v 10.4625h 0.36269v -27.0451h 0.36269v 27.0451h 0.36269v -31.3874h 0.181345v
 20.9249h 0.181345v 10.4625h 0.181345v -20.9249h 0.181345v 20.9249h 0.181345v -10.4625h 0.181345v 10.4625h 0.181345v -10.4625h 0.36269v 10.4625h 0.36269v -10.4625h 0.181345v 10.4625h 0.181345v -10.4625h 0.181345v 10.4625h 0.181345v -20.9249h
 0.181345v 20.9249h 0.36269v -10.4625h 0.181345v 10.4625h 0.725379v -20.9249h 0.181345v 10.4625h 0.36269v -10.4625h 0.181345v 20.9249h 0.181345v -10.4625h 0.181345v 10.4625h 0.181345v -10.4625h 0.181345v -20.9249h 0.181345v 10.4625h 0.181345v
 10.4625h 0.36269v 10.4625h 0.181345v -20.9249h 0.181345v 20.9249h 0.181345v -20.9249h 0.36269v 20.9249h 0.544034v -10.4625h 0.181345v 10.4625h 0.544034v -10.4625h 0.181345v -10.4625h 0.181345v 20.9249h 0.181345v -10.4625h 0.36269v 10.4625h 0.725379v
 -20.9249h 0.181345v 20.9249h 0.181345v -10.4625h 0.36269v 10.4625h 0.181345v -10.4625h 0.181345v 10.4625h 0.181345" fill="none" stroke="black"/>
<path d="M57.1929,280.151h 453.543" fill="none" stroke="black"/>
<path d="M57.1929,272.68v 7.47068" fill="none" stroke="black"/>
<path d="M75.3318,276.415v 3.73534" fill="none" stroke="black"/>
<path d="M93.4707,276.415v 3.73534" fill="none" stroke="black"/>
<path d="M111.61,276.415v 3.73534" fill="none" stroke="black"/>
<path d="M129.749,276.415v 3.73534" fill="none" stroke="black"/>
<path d="M147.887,272.68v 7.47068" fill="none" stroke="black"/>
<path d="M166.026,276.415v 3.73534" fill="none" stroke="black"/>
<path d="M184.165,276.415v 3.73534" fill="none" stroke="black"/>
<path d="M202.304,276.415v 3.73534" fill="none" stroke="black"/>
<path d="M220.443,276.415v 3.73534" fill="none" stroke="black"/>
<path d="M238.582,272.68v 7.47068" fill="none" stroke="black"/>
<path d="M256.721,276.415v 3.73534" fill="none" stroke="black"/>
<path d="M274.86,276.415v 3.73534" fill="none" stroke="black"/>
<path d="M292.999,276.415v 3.73534" fill="none" stroke="black"/>
<path d="M311.138,276.415v 3.73534" fill="none" stroke="black"/>
<path d="M329.277,272.68v 7.47068" fill="none" stroke="black"/>
<path d="M347.415,276.415v 3.73534" fill="none" stroke="black"/>
<path d="M365.554,276.415v 3.73534" fill="none" stroke="black"/>
<path d="M383.693,276.415v 3.73534" fill="none" stroke="black"/>
<path d="M401.832,276.415v 3.73534" fill="none" stroke="black"/>
<path d="M419.971,272.68v 7.47068" fill="none" stroke="black"/>
<path d="M438.11,276.415v 3.73534" fill="none" stroke="black"/>
<path d="M456.249,276.415v 3.73534" fill="none" stroke="black"/>
<path d="M474.388,276.415v 3.73534" fill="none" stroke="black"/>
<path d="M492.527,276.415v 3.73534" fill="none" stroke="black"/>
<path d="M510.666,272.68v 7.47068" fill="none" stroke="black"/>
<path d="M510.666,272.68v 7.47068" fill="none" stroke="black"/>
<text xml:space="preserve" x="54.3523" y="290.27" fill="black" font-size="10.4952" font-family="Helvetica">0</text>
<text xml:space="preserve" x="139.569" y="290.27" fill="black" font-size="10.4952" font-family="Helvetica">500</text>
<text xml:space="preserve" x="227.449" y="290.27" fill="black" font-size="10.4952" font-family="Helvetica">1000</text>
<text xml:space="preserve" x="318.288" y="290.27" fill="black" font-size="10.4952" font-family="Helvetica">1500</text>
<text xml:space="preserve" x="408.831" y="290.27" fill="black" font-size="10.4952" font-family="Helvetica">2000</text>
<text xml:space="preserve" x="499.67" y="290.27" fill="black" font-size="10.4952" font-family="Helvetica">2500</text>
<text xml:space="preserve" x="265.323" y="301.218" fill="black" font-size="10.4952" font-family="Helvetica">Channel</text>
<path d="M57.1929,280.151v -249.023" fill="none" stroke="black"/>
<path d="M63.9961,280.151h -6.80315" fill="none" stroke="black"/>
<path d="M63.9961,277.399h -6.80315" fill="none" stroke="black"/>
<path d="M63.9961,275.072h -6.80315" fill="none" stroke="black"/>
<path d="M63.9961,273.056h -6.80315" fill="none" stroke="black"/>
<path d="M63.9961,271.278h -6.80315" fill="none" stroke="black"/>
<path d="M70.7992,269.688h -13.6063" fill="none" stroke="black"/>
<text xml:space="preserve" x="49.0263" y="273.404" fill="black" font-size="10.4952" font-family="Helvetica">1</text>
<path d="M63.9961,259.226h -6.80315" fill="none" stroke="black"/>
<path d="M63.9961,253.105h -6.80315" fill="none" stroke="black"/>
<path d="M63.9961,248.763h -6.80315" fill="none" stroke="black"/>
<path d="M63.9961,245.395h -6.80315" fill="none" stroke="black"/>
<path d="M63.9961,242.643h -6.80315" fill="none" stroke="black"/>
<path d="M63.9961,240.316h -6.80315" fill="none" stroke="black"/>
<path d="M63.9961,238.301h -6.80315" fill="none" stroke="black"/>
<path d="M63.9961,236.523h -6.80315" fill="none" stroke="black"/>
<path d="M70.7992,234.932h -13.6063" fill="none" stroke="black"/>
<text xml:space="preserve" x="41.629" y="238.489" fill="black" font-size="10.4952" font-family="Helvetica">10</text>
<path d="M63.9961,224.47h -6.80315" fill="none" stroke="black"/>
<path d="M63.9961,218.35h -6.80315" fill="none" stroke="black"/>
<path d="M63.9961,214.008h -6.80315" fill="none" stroke="black"/>
<path d="M63.9961,210.639h -6.80315" fill="none" stroke="black"/>
<path d="M63.9961,207.887h -6.80315" fill="none" stroke="black"/>
<path d="M63.9961,205.561h -6.80315" fill="none" stroke="black"/>
<path d="M63.9961,203.545h -6.80315" fill="none" stroke="black"/>
<path d="M63.9961,201.767h -6.80315" fill="none" stroke="black"/>
<path d="M70.7992,200.177h -13.6063" fill="none" stroke="black"/>
<text xml:space="preserve" x="49.0263" y="200.319" fill="black" font-size="7.16345" font-family="Helvetica">2</text>
<text xml:space="preserve" x="38.0783" y="204.757" fill="black" font-size="10.4952" font-family="Helvetica">10</text>
<path d="M63.9961,189.714h -6.80315" fill="none" stroke="black"/>
<path d="M63.9961,183.594h -6.80315" fill="none" stroke="black"/>
<path d="M63.9961,179.252h -6.80315" fill="none" stroke="black"/>
<path d="M63.9961,175.884h -6.80315" fill="none" stroke="black"/>
<path d="M63.9961,173.132h -6.80315" fill="none" stroke="black"/>
<path d="M63.9961,170.805h -6.80315" fill="none" stroke="black"/>
<path d="M63.9961,168.789h -6.80315" fill="none" stroke="black"/>
<path d="M63.9961,167.012h -6.80315" fill="none" stroke="black"/>
<path d="M70.7992,165.421h -13.6063" fill="none" stroke="black"/>
<text xml:space="preserve" x="49.0263" y="165.404" fill="black" font-size="7.16345" font-family="Helvetica">3</text>
<text xml:space="preserve" x="38.0783" y="170.138" fill="black" font-size="10.4952" font-family="Helvetica">10</text>
<path d="M63.9961,154.959h -6.80315" fill="none" stroke="black"/>
<path d="M63.9961,148.839h -6.80315" fill="none" stroke="black"/>
<path d="M63.9961,144.496h -6.80315" fill="none" stroke="black"/>
<path d="M63.9961,141.128h -6.80315" fill="none" stroke="black"/>
<path d="M63.9961,138.376h -6.80315" fill="none" stroke="black"/>
<path d="M63.9961,136.049h -6.80315" fill="none" stroke="black"/>
<path d="M63.9961,134.034h -6.80315" fill="none" stroke="black"/>
<path d="M63.9961,132.256h -6.80315" fill="none" stroke="black"/>
<path d="M70.7992,130.666h -13.6063" fill="none" stroke="black"/>
<text xml:space="preserve" x="49.0263" y="130.784" fill="black" font-size="7.16345" font-family="Helvetica">4</text>
<text xml:space="preserve" x="38.0783" y="135.223" fill="black" font-size="10.4952" font-family="Helvetica">10</text>
<path d="M63.9961,120.203h -6.80315" fill="none" stroke="black"/>
<path d="M63.9961,114.083h -6.80315" fill="none" stroke="black"/>
<path d="M63.9961,109.741h -6.80315" fill="none" stroke="black"/>
<path d="M63.9961,106.373h -6.80315" fill="none" stroke="black"/>
<path d="M63.9961,103.621h -6.80315" fill="none" stroke="black"/>
<path d="M63.9961,101.294h -6.80315" fill="none" stroke="black"/>
<path d="M63.9961,99.2783h -6.80315" fill="none" stroke="black"/>
<path d="M63.9961,97.5005h -6.80315" fill="none" stroke="black"/>
<path d="M70.7992,95.9102h -13.6063" fill="none" stroke="black"/>
<text xml:space="preserve" x="49.0263" y="95.869" fill="black" font-size="7.16345" font-family="Helvetica">5</text>
<text xml:space="preserve" x="38.0783" y="100.603" fill="black" font-size="10.4952" font-family="Helvetica">10</text>
<path d="M63.9961,85.4477h -6.80315" fill="none" stroke="black"/>
<path d="M63.9961,79.3275h -6.80315" fill="none" stroke="black"/>
<path d="M63.9961,74.9852h -6.80315" fill="none" stroke="black"/>
<path d="M63.9961,71.6171h -6.80315" fill="none" stroke="black"/>
<path d="M63.9961,68.8651h -6.80315" fill="none" stroke="black"/>
<path d="M63.9961,66.5383h -6.80315" fill="none" stroke="black"/>
<path d="M63.9961,64.5228h -6.80315" fill="none" stroke="black"/>
<path d="M63.9961,62.7449h -6.80315" fill="none" stroke="black"/>
<path d="M70.7992,61.1546h -13.6063" fill="none" stroke="black"/>
<text xml:space="preserve" x="49.0263" y="60.9538" fill="black" font-size="7.16345" font-family="Helvetica">6</text>
<text xml:space="preserve" x="38.0783" y="65.688" fill="black" font-size="10.4952" font-family="Helvetica">10</text>
<path d="M63.9961,50.6921h -6.80315" fill="none" stroke="black"/>
<path d="M63.9961,44.572h -6.80315" fill="none" stroke="black"/>
<path d="M63.9961,40.2296h -6.80315" fill="none" stroke="black"/>
<path d="M63.9961,36.8615h -6.80315" fill="none" stroke="black"/>
<path d="M63.9961,34.1095h -6.80315" fill="none" stroke="black"/>
<path d="M63.9961,31.7827h -6.80315" fill="none" stroke="black"/>
<g transform="rotate(-90,26.5385,191.442)">
<text xml:space="preserve" x="26.5385" y="191.442" fill="black" font-size="10.4952" font-family="Helvetica">Counts/Channel</text>
</g>
<text xml:space="preserve" x="404.097" y="60.9538" fill="black" font-size="14.7788" font-family="Helvetica" font-weight="bold"> = 2.4879 MeV</text>
<text xml:space="preserve" x="398.179" y="64.2086" fill="black" font-size="10.0192" font-family="Helvetica" font-weight="bold">p</text>
<text xml:space="preserve" x="389.006" y="60.9538" fill="black" font-size="14.7788" font-family="Helvetica" font-weight="bold">E</text>
<path d="M262.163,163.983v 26.1056" fill="none" stroke="black"/>
<path d="M264.454,190.088l -2.29122, 3.9685l -2.29122, -3.9685z" fill="black"/>
<path d="M264.454,190.088l -2.29122, 3.9685l -2.29122, -3.9685h 4.58243z" fill="none" stroke="black"/>
<text xml:space="preserve" x="266.803" y="161.853" fill="black" font-size="10.4952" font-family="Helvetica" font-weight="bold">_1 	1.369 MeV</text>
<text xml:space="preserve" x="260.293" y="161.853" fill="black" font-size="10.4952" font-family="Times">&#0945;</text>
<path d="M184.528,130.666v 30.7871" fill="none" stroke="black"/>
<path d="M186.819,161.453l -2.29122, 3.9685l -2.29122, -3.9685z" fill="black"/>
<path d="M186.819,161.453l -2.29122, 3.9685l -2.29122, -3.9685h 4.58243z" fill="none" stroke="black"/>
<text xml:space="preserve" x="172.117" y="127.825" fill="black" font-size="10.4952" font-family="Helvetica" font-weight="bold"># p_1 	0.844 MeV</text>
<path d="M210.104,148.839v 12.6141" fill="none" stroke="black"/>
<path d="M212.395,161.453l -2.29122, 3.9685l -2.29122, -3.9685z" fill="black"/>
<path d="M212.395,161.453l -2.29122, 3.9685l -2.29122, -3.9685h 4.58243z" fill="none" stroke="black"/>
<text xml:space="preserve" x="197.564" y="144.395" fill="black" font-size="10.4952" font-family="Helvetica" font-weight="bold"># p_2 	1.015 MeV</text>
<path d="M497.632,269.688h 13.0335" fill="none" stroke="black"/>
<path d="M504.149,259.226h 6.51673" fill="none" stroke="black"/>
<path d="M504.149,253.105h 6.51673" fill="none" stroke="black"/>
<path d="M504.149,248.763h 6.51673" fill="none" stroke="black"/>
<path d="M504.149,245.395h 6.51673" fill="none" stroke="black"/>
<path d="M504.149,242.643h 6.51673" fill="none" stroke="black"/>
<path d="M504.149,240.316h 6.51673" fill="none" stroke="black"/>
<path d="M504.149,238.301h 6.51673" fill="none" stroke="black"/>
<path d="M504.149,236.523h 6.51673" fill="none" stroke="black"/>
<path d="M497.632,234.932h 13.0335" fill="none" stroke="black"/>
<path d="M504.149,224.47h 6.51673" fill="none" stroke="black"/>
<path d="M504.149,218.35h 6.51673" fill="none" stroke="black"/>
<path d="M504.149,214.008h 6.51673" fill="none" stroke="black"/>
<path d="M504.149,210.639h 6.51673" fill="none" stroke="black"/>
<path d="M504.149,207.887h 6.51673" fill="none" stroke="black"/>
<path d="M504.149,205.561h 6.51673" fill="none" stroke="black"/>
<path d="M504.149,203.545h 6.51673" fill="none" stroke="black"/>
<path d="M504.149,201.767h 6.51673" fill="none" stroke="black"/>
<path d="M497.632,200.177h 13.0335" fill="none" stroke="black"/>
<path d="M504.149,189.714h 6.51673" fill="none" stroke="black"/>
<path d="M504.149,183.594h 6.51673" fill="none" stroke="black"/>
<path d="M504.149,179.252h 6.51673" fill="none" stroke="black"/>
<path d="M504.149,175.884h 6.51673" fill="none" stroke="black"/>
<path d="M504.149,173.132h 6.51673" fill="none" stroke="black"/>
<path d="M504.149,170.805h 6.51673" fill="none" stroke="black"/>
<path d="M504.149,168.789h 6.51673" fill="none" stroke="black"/>
<path d="M504.149,167.012h 6.51673" fill="none" stroke="black"/>
<path d="M497.632,165.421h 13.0335" fill="none" stroke="black"/>
<path d="M504.149,154.959h 6.51673" fill="none" stroke="black"/>
<path d="M504.149,148.839h 6.51673" fill="none" stroke="black"/>
<path d="M504.149,144.496h 6.51673" fill="none" stroke="black"/>
<path d="M504.149,141.128h 6.51673" fill="none" stroke="black"/>
<path d="M504.149,138.376h 6.51673" fill="none" stroke="black"/>
<path d="M504.149,136.049h 6.51673" fill="none" stroke="black"/>
<path d="M504.149,134.034h 6.51673" fill="none" stroke="black"/>
<path d="M504.149,132.256h 6.51673" fill="none" stroke="black"/>
<path d="M497.632,130.666h 13.0335" fill="none" stroke="black"/>
<path d="M504.149,120.203h 6.51673" fill="none" stroke="black"/>
<path d="M504.149,114.083h 6.51673" fill="none" stroke="black"/>
<path d="M504.149,109.741h 6.51673" fill="none" stroke="black"/>
<path d="M504.149,106.373h 6.51673" fill="none" stroke="black"/>
<path d="M504.149,103.621h 6.51673" fill="none" stroke="black"/>
<path d="M504.149,101.294h 6.51673" fill="none" stroke="black"/>
<path d="M504.149,99.2783h 6.51673" fill="none" stroke="black"/>
<path d="M504.149,97.5005h 6.51673" fill="none" stroke="black"/>
<path d="M497.632,95.9102h 13.0335" fill="none" stroke="black"/>
<path d="M504.149,85.4477h 6.51673" fill="none" stroke="black"/>
<path d="M504.149,79.3275h 6.51673" fill="none" stroke="black"/>
<path d="M504.149,74.9852h 6.51673" fill="none" stroke="black"/>
<path d="M504.149,71.6171h 6.51673" fill="none" stroke="black"/>
<path d="M504.149,68.8651h 6.51673" fill="none" stroke="black"/>
<path d="M504.149,66.5383h 6.51673" fill="none" stroke="black"/>
<path d="M504.149,64.5228h 6.51673" fill="none" stroke="black"/>
<path d="M504.149,62.7449h 6.51673" fill="none" stroke="black"/>
<path d="M497.632,61.1546h 13.0335" fill="none" stroke="black"/>
<path d="M504.149,50.6921h 6.51673" fill="none" stroke="black"/>
<path d="M504.149,44.572h 6.51673" fill="none" stroke="black"/>
<path d="M504.149,40.2296h 6.51673" fill="none" stroke="black"/>
<path d="M504.149,36.8615h 6.51673" fill="none" stroke="black"/>
<path d="M504.149,34.1095h 6.51673" fill="none" stroke="black"/>
<path d="M504.149,31.7827h 6.51673" fill="none" stroke="black"/>
<path d="M57.1929,38.6188v -7.46952" fill="none" stroke="black"/>
<path d="M75.3318,38.6188v -7.46952" fill="none" stroke="black"/>
<path d="M93.4707,38.6188v -7.46952" fill="none" stroke="black"/>
<path d="M111.61,38.6188v -7.46952" fill="none" stroke="black"/>
<path d="M129.749,38.6188v -7.46952" fill="none" stroke="black"/>
<path d="M147.887,38.6188v -7.46952" fill="none" stroke="black"/>
<path d="M166.026,38.6188v -7.46952" fill="none" stroke="black"/>
<path d="M184.165,38.6188v -7.46952" fill="none" stroke="black"/>
<path d="M202.304,38.6188v -7.46952" fill="none" stroke="black"/>
<path d="M220.443,38.6188v -7.46952" fill="none" stroke="black"/>
<path d="M238.582,38.6188v -7.46952" fill="none" stroke="black"/>
<path d="M256.721,38.6188v -7.46952" fill="none" stroke="black"/>
<path d="M274.86,38.6188v -7.46952" fill="none" stroke="black"/>
<path d="M292.999,38.6188v -7.46952" fill="none" stroke="black"/>
<path d="M311.138,38.6188v -7.46952" fill="none" stroke="black"/>
<path d="M329.277,38.6188v -7.46952" fill="none" stroke="black"/>
<path d="M347.415,38.6188v -7.46952" fill="none" stroke="black"/>
<path d="M365.554,38.6188v -7.46952" fill="none" stroke="black"/>
<path d="M383.693,38.6188v -7.46952" fill="none" stroke="black"/>
<path d="M401.832,38.6188v -7.46952" fill="none" stroke="black"/>
<path d="M419.971,38.6188v -7.46952" fill="none" stroke="black"/>
<path d="M438.11,38.6188v -7.46952" fill="none" stroke="black"/>
<path d="M456.249,38.6188v -7.46952" fill="none" stroke="black"/>
<path d="M474.388,38.6188v -7.46952" fill="none" stroke="black"/>
<path d="M492.527,38.6188v -7.46952" fill="none" stroke="black"/>
<path d="M510.666,38.6188v -7.46952" fill="none" stroke="black"/></svg>
