<?xml version="1.0" standalone="no"?>
<svg width="567.429" height="311.778" viewBox="0 0 567.429 311.778" xmlns="http://www.w3.org/2000/svg" shape-rendering="crispEdges">
<title>
Yields/P1/det-1/run_0105_Fit.svg
</title>
<desc>
Creator: ROOT Version 6.12/06
CreationDate: Mon Apr 15 10:29:02 2019</desc>
<defs>
</defs>
<rect x="0.5" y="0" width="566.929" height="311.278" fill="white"/>
<rect x="57.1929" y="31.1278" width="453.543" height="249.023" fill="white"/>
<rect x="57.1929" y="31.1278" width="453.543" height="249.023" fill="none" stroke="black"/>
<rect x="57.1929" y="31.1278" width="453.543" height="249.023" fill="white"/>
<rect x="57.1929" y="31.1278" width="453.543" height="249.023" fill="none" stroke="black"/>
<path d="M57.1929,40.6613h 0.181345v 239.489h 0.544034v -10.34h 0.181345v 10.34h 8.70455v -10.34h 0.181345v 10.34h 2.53883v -10.34h 0.181345v 10.34h 3.80824v -10.34h 0.181345v 10.34h 5.80303v -10.34h 0.181345v 10.34h 1.81345v -10.34h 0.181345v 10.34h
 0.181345v -10.34h 0.181345v 10.34h 0.181345v -10.34h 0.181345v 10.34h 0.36269v -10.34h 0.181345v 10.34h 0.36269v -10.34h 0.181345v 10.34h 0.906724v -10.34h 0.181345v -16.3885h 0.181345v 26.7285h 0.36269v -10.34h 0.36269v 10.34h 0.181345v -20.68h
 0.181345v 20.68h 0.181345v -10.34h 0.181345v 10.34h 0.181345v -10.34h 0.36269v -16.3885h 0.181345v 16.3885h 0.181345v -20.68h 0.181345v 10.34h 0.181345v -20.68h 0.181345v -3.32874h 0.181345v -16.3885h 0.181345v -11.7618h 0.181345v -14.1141h
 0.181345v -7.65529h 0.181345v -4.76962h 0.181345v -6.78058h 0.181345v -2.43043h 0.181345v -2.08937h 0.181345v -1.23526h 0.181345v -1.53214h 0.181345v -0.0148507h 0.181345v -1.17004h 0.181345v -0.0137172h 0.181345v -0.787773h 0.181345v -0.636508h
 0.181345v -0.646302h 0.181345v 0.559319h 0.181345v -1.01763h 0.181345v 0.0463636h 0.181345v 0.316781h 0.181345v -0.501377h 0.181345v 0.0459353h 0.181345v -0.216944h 0.181345v -0.424646h 0.181345v 0.334237h 0.181345v 0.261418h 0.181345v -0.496168h
 0.181345v -0.242029h 0.181345v -0.108728h 0.181345v 0.174348h 0.181345v -0.633055h 0.181345v 0.523849h 0.181345v -0.502824h 0.181345v 1.10227h 0.181345v -1.08121h 0.181345v -0.476902h 0.181345v 0.817888h 0.181345v 0.129906h 0.181345v -0.0325828h
 0.181345v -0.118865h 0.181345v -0.213721h 0.181345v 0.13857h 0.181345v -0.380623h 0.181345v 0.052287h 0.181345v -0.413253h 0.181345v 0.010193h 0.181345v 1.21019h 0.181345v -0.208639h 0.181345v 0.252938h 0.181345v 0.347847h 0.181345v -0.135614h
 0.181345v -0.476071h 0.181345v 0.397529h 0.181345v 1.16329h 0.181345v -0.766376h 0.181345v 0.0460416h 0.181345v -0.149119h 0.181345v 0.440144h 0.181345v -1.76094h 0.181345v -2.27265h 0.181345v -1.64598h 0.181345v -2.44003h 0.181345v -3.31373h
 0.181345v -3.36911h 0.181345v -3.40264h 0.181345v -2.85504h 0.181345v -2.83062h 0.181345v -2.52898h 0.181345v -1.40942h 0.181345v -1.33601h 0.181345v -0.668678h 0.181345v -0.224232h 0.181345v 0.568658h 0.181345v 1.35226h 0.181345v 1.58003h 0.181345v
 2.51312h 0.181345v 2.82995h 0.181345v 3.44902h 0.181345v 3.53562h 0.181345v 4.51353h 0.181345v 4.14917h 0.181345v 3.60857h 0.181345v 3.492h 0.181345v 3.39402h 0.181345v 1.62269h 0.181345v 2.09128h 0.181345v -0.146149h 0.181345v 1.83253h 0.181345v
 -0.279275h 0.181345v -0.0230386h 0.181345v 0.61088h 0.181345v 0.364155h 0.181345v 0.499795h 0.181345v -0.0253915h 0.181345v 0.411543h 0.181345v -0.613133h 0.181345v -0.898476h 0.181345v 0.285511h 0.181345v 1.33078h 0.181345v -0.208639h 0.181345v
 0.261259h 0.181345v 0.482115h 0.181345v 0.0545429h 0.181345v -0.216985h 0.181345v -0.13403h 0.181345v 0.682529h 0.181345v -0.194277h 0.181345v 0.763715h 0.181345v -2.05711h 0.181345v 1.4041h 0.181345v -0.464927h 0.181345v -0.580931h 0.181345v
 1.49708h 0.181345v -0.478978h 0.181345v -0.410222h 0.181345v 0.493638h 0.181345v 0.253083h 0.181345v -0.665574h 0.181345v 1.51156h 0.181345v 0.833251h 0.181345v 0.0636141h 0.181345v -1.4854h 0.181345v 1.13883h 0.181345v 1.40311h 0.181345v 0.381187h
 0.181345v 0.463424h 0.181345v -0.878786h 0.181345v 0.987806h 0.181345v -0.0364285h 0.181345v -0.917202h 0.181345v 1.70153h 0.181345v 0.827866h 0.181345v -1.24384h 0.181345v -0.331923h 0.181345v 1.09709h 0.181345v -1.70459h 0.181345v -0.0349765h
 0.181345v 0.533459h 0.181345v 0.366541h 0.181345v 0.644566h 0.181345v 0.116695h 0.181345v -0.798323h 0.181345v 0.87663h 0.181345v -0.652864h 0.181345v 1.83709h 0.181345v -0.169038h 0.181345v -1.13249h 0.181345v -0.0776954h 0.181345v 0.552562h
 0.181345v -0.897269h 0.181345v 1.59698h 0.181345v -0.125887h 0.181345v -0.852659h 0.181345v 0.936466h 0.181345v -0.896949h 0.181345v -1.21533h 0.181345v 3.11149h 0.181345v -1.45443h 0.181345v 0.968187h 0.181345v -1.95385h 0.181345v 2.0849h 0.181345v
 -0.769553h 0.181345v -0.771416h 0.181345v 1.76197h 0.181345v 0.224327h 0.181345v -0.83507h 0.181345v -1.26947h 0.181345v 1.52816h 0.181345v 0.576378h 0.181345v -0.83507h 0.181345v 0.971303h 0.181345v 0.137489h 0.181345v -1.10879h 0.181345v 0.880343h
 0.181345v -0.446664h 0.181345v -1.62443h 0.181345v -0.542514h 0.181345v 1.27034h 0.181345v -1.45941h 0.181345v -1.60174h 0.181345v -0.916274h 0.181345v 0.0317731h 0.181345v -1.65418h 0.181345v -0.613515h 0.181345v 0.0547431h 0.181345v -1.46162h
 0.181345v 0.557254h 0.181345v -0.582096h 0.181345v 0.225079h 0.181345v -0.0251772h 0.181345v 1.17727h 0.181345v 0.753709h 0.181345v 0.793827h 0.181345v 1.09622h 0.181345v 0.395188h 0.181345v 0.474687h 0.181345v 1.2199h 0.181345v 2.51924h 0.181345v
 -0.691949h 0.181345v 1.23282h 0.181345v 0.608961h 0.181345v -0.0953197h 0.181345v 0.581274h 0.181345v 0.34984h 0.181345v 0.885416h 0.181345v 0.107708h 0.181345v -0.530927h 0.181345v -0.812036h 0.181345v 0.553494h 0.181345v -2.6255h 0.181345v
 2.42184h 0.181345v -0.835794h 0.181345v 2.04669h 0.181345v -1.95076h 0.181345v 1.0464h 0.181345v 1.23711h 0.181345v -1.84401h 0.181345v -0.630752h 0.181345v 2.08727h 0.181345v -1.00368h 0.181345v -0.940385h 0.181345v 0.687111h 0.181345v -0.782736h
 0.181345v 1.19006h 0.181345v -0.80383h 0.181345v 0.0489901h 0.181345v 1.38748h 0.181345v -0.266867h 0.181345v -1.2671h 0.181345v 1.05699h 0.181345v -0.309717h 0.181345v -0.747275h 0.181345v 1.2143h 0.181345v 0.646346h 0.181345v -1.56621h 0.181345v
 1.45652h 0.181345v -1.89602h 0.181345v -1.28997h 0.181345v 0.402595h 0.181345v -0.446664h 0.181345v 1.43059h 0.181345v -0.144597h 0.181345v -1.06433h 0.181345v -0.86754h 0.181345v -0.167614h 0.181345v -0.288868h 0.181345v 0.883946h 0.181345v
 0.801729h 0.181345v -1.76719h 0.181345v -0.201863h 0.181345v 1.0378h 0.181345v 0.260195h 0.181345v 0.855233h 0.181345v -0.723413h 0.181345v -0.175502h 0.181345v 2.15485h 0.181345v 0.408724h 0.181345v 1.75703h 0.181345v -2.51442h 0.181345v 1.83106h
 0.181345v -0.546489h 0.181345v -0.834762h 0.181345v 1.66219h 0.36269v 1.30315h 0.181345v -2.13058h 0.181345v 0.38043h 0.181345v 0.221825h 0.181345v -0.111325h 0.181345v 0.223487h 0.181345v -0.606709h 0.181345v -0.840644h 0.181345v 1.11337h 0.181345v
 1.263h 0.181345v -0.702129h 0.181345v -1.82672h 0.181345v 2.23227h 0.181345v 0.4774h 0.181345v -2.35143h 0.181345v 1.87403h 0.181345v 0.0588461h 0.181345v -3.59753h 0.181345v 3.48007h 0.181345v 0.355195h 0.181345v -2.77957h 0.181345v 0.817601h
 0.181345v 0.264971h 0.181345v -0.0533721h 0.181345v 0.877752h 0.181345v -0.717059h 0.181345v 1.06001h 0.181345v -0.0577079h 0.181345v 0.173798h 0.181345v 0.962752h 0.181345v -1.30835h 0.181345v -1.09737h 0.181345v 1.7372h 0.181345v 0.606485h
 0.181345v -1.18927h 0.181345v -0.394815h 0.181345v -1.38125h 0.181345v 0.204352h 0.181345v 0.63041h 0.181345v 0.0537567h 0.181345v -0.266867h 0.181345v 0.483853h 0.181345v -0.536658h 0.181345v 2.21194h 0.181345v -0.242566h 0.181345v -1.96938h
 0.181345v 0.265916h 0.181345v 0.658231h 0.181345v -0.658231h 0.181345v -0.370969h 0.181345v 0.861899h 0.36269v 0.393327h 0.181345v -0.937821h 0.181345v 0.379049h 0.181345v -1.75703h 0.181345v 2.48759h 0.181345v 0.173798h 0.181345v -1.01365h
 0.181345v 0.955495h 0.181345v -0.736116h 0.181345v -0.595695h 0.181345v -1.41696h 0.181345v 1.84782h 0.181345v -0.43086h 0.181345v -1.5132h 0.181345v 1.09444h 0.181345v -1.56655h 0.181345v 1.72221h 0.181345v 1.02547h 0.36269v -1.33519h 0.181345v
 1.8467h 0.181345v -1.11376h 0.181345v -0.935898h 0.181345v -0.446813h 0.181345v 3.20696h 0.36269v 0.938516h 0.181345v -0.319444h 0.181345v -0.799892h 0.181345v -0.29658h 0.181345v 0.783725h 0.181345v -1.18927h 0.181345v 1.18927h 0.181345v -0.958883h
 0.181345v 0.531768h 0.181345v 0.12079h 0.181345v -1.38867h 0.181345v 2.19859h 0.181345v 0.856426h 0.181345v -2.43454h 0.181345v 1.83643h 0.181345v 0.130856h 0.181345v -1.37991h 0.181345v 0.990736h 0.181345v 0.193318h 0.181345v 0.065h 0.181345v
 0.26287h 0.181345v -0.775108h 0.181345v 0.708955h 0.181345v -1.50556h 0.181345v 1.70491h 0.181345v -0.133193h 0.181345v 0.678184h 0.181345v 0.637899h 0.181345v -0.912884h 0.181345v 0.274984h 0.181345v 1.00444h 0.181345v -1.21115h 0.181345v
 -0.537625h 0.181345v 1.45483h 0.181345v 0.0729463h 0.181345v 1.78447h 0.181345v -1.03469h 0.181345v -0.228917h 0.181345v 0.461402h 0.181345v 0.720018h 0.181345v -1.70228h 0.181345v -0.361216h 0.181345v 1.65921h 0.181345v -0.393624h 0.181345v
 -0.977313h 0.181345v -0.288269h 0.181345v 1.81961h 0.181345v -0.397823h 0.181345v 1.22679h 0.181345v -1.84203h 0.181345v 0.932646h 0.181345v 0.0804179h 0.181345v -0.397823h 0.181345v -0.987267h 0.181345v -0.362974h 0.181345v 1.35024h 0.181345v
 2.19522h 0.181345v -1.71654h 0.181345v 1.09304h 0.181345v -2.63229h 0.181345v 0.146971h 0.181345v 2.48531h 0.181345v -1.09304h 0.181345v -1.90046h 0.181345v 0.957994h 0.181345v -0.669725h 0.181345v 0.146251h 0.181345v -0.576593h 0.181345v 1.88127h
 0.181345v -0.395712h 0.181345v -0.835293h 0.181345v 2.48531h 0.181345v -1.88251h 0.181345v 0.548211h 0.181345v -0.701212h 0.181345v 1.27034h 0.181345v 1.38867h 0.181345v -1.47132h 0.181345v 0.502884h 0.181345v -1.22679h 0.181345v 2.47063h 0.181345v
 -3.08587h 0.181345v 1.50489h 0.181345v -0.96796h 0.181345v 0.47613h 0.181345v 2.25928h 0.181345v -1.85055h 0.181345v -0.884854h 0.36269v 1.65002h 0.181345v -0.682061h 0.181345v 0.337133h 0.181345v -1.76649h 0.181345v 0.857114h 0.181345v 0.739861h
 0.181345v 2.27147h 0.181345v -2.43909h 0.181345v 1.39681h 0.181345v -0.627254h 0.181345v -1.18053h 0.181345v 0.410976h 0.181345v -0.410976h 0.181345v 0.748108h 0.181345v 0.52043h 0.181345v 0.267186h 0.181345v 0.0901361h 0.181345v -0.619806h
 0.181345v 0.893529h 0.181345v -1.06599h 0.181345v 1.91865h 0.181345v -2.67095h 0.181345v -0.242566h 0.181345v 0.90938h 0.181345v -0.337133h 0.181345v 0.946094h 0.181345v -0.862522h 0.181345v 1.40504h 0.181345v -0.542514h 0.181345v -2.74935h
 0.181345v 1.47357h 0.181345v 1.63525h 0.181345v -2.03736h 0.181345v -0.997427h 0.181345v 1.56347h 0.181345v -2.63713h 0.181345v 1.83492h 0.181345v -1.97241h 0.181345v 2.85727h 0.181345v -2.0849h 0.181345v -0.143438h 0.181345v 1.42179h 0.181345v
 -3.2973h 0.181345v 1.94706h 0.181345v -2.50306h 0.181345v -1.60805h 0.181345v 1.24858h 0.181345v 1.42771h 0.181345v -2.29023h 0.181345v 0.453799h 0.181345v -2.19219h 0.181345v 0.923025h 0.181345v -0.262177h 0.181345v 0.691486h 0.181345v 0.164231h
 0.181345v 0.675624h 0.181345v -2.19219h 0.181345v 2.30783h 0.181345v -1.11794h 0.181345v 1.11794h 0.181345v 0.116543h 0.181345v -1.39517h 0.181345v 1.87067h 0.181345v -0.936306h 0.181345v -1.09334h 0.181345v 1.90935h 0.181345v -1.80355h 0.181345v
 1.44835h 0.181345v -0.0583855h 0.181345v 0.41358h 0.181345v 1.24905h 0.181345v -0.699882h 0.181345v -0.608961h 0.181345v -0.925412h 0.181345v -0.550523h 0.181345v 1.00605h 0.181345v -1.4323h 0.181345v 1.4323h 0.181345v -0.455531h 0.181345v -1.44217h
 0.181345v -1.77399h 0.181345v -1.42179h 0.181345v -2.06881h 0.181345v -0.766955h 0.181345v -2.58323h 0.181345v 0.943713h 0.181345v -2.89632h 0.181345v -2.07944h 0.181345v -1.43368h 0.181345v -1.1253h 0.181345v -0.664706h 0.181345v -1.18187h
 0.181345v -1.2302h 0.181345v -0.856811h 0.181345v -0.444916h 0.181345v -0.405391h 0.181345v 0.695866h 0.181345v -0.66918h 0.181345v 0.613414h 0.181345v 0.323541h 0.181345v -0.55825h 0.181345v 2.03703h 0.181345v 1.3466h 0.181345v 0.506911h 0.181345v
 1.61326h 0.181345v 1.94392h 0.181345v 2.23573h 0.181345v -0.0784444h 0.181345v 3.21831h 0.181345v 0.0323941h 0.181345v 1.89958h 0.181345v 1.26788h 0.181345v 2.29286h 0.181345v -0.139634h 0.181345v 3.83526h 0.181345v -0.759175h 0.181345v 1.74991h
 0.36269v 3.2808h 0.181345v -1.65921h 0.181345v 1.65921h 0.181345v -0.548211h 0.181345v 2.2356h 0.181345v -0.177591h 0.181345v 0.448006h 0.181345v 0.65071h 0.181345v -1.78866h 0.181345v 1.41336h 0.181345v 1.56142h 0.181345v -0.405943h 0.181345v
 -1.43089h 0.181345v 1.63248h 0.181345v 0.94247h 0.181345v -1.53925h 0.181345v -0.852659h 0.181345v 0.372956h 0.181345v -1.09201h 0.181345v 1.768h 0.181345v 0.604846h 0.181345v 0.311875h 0.181345v -1.49799h 0.181345v 0.384989h 0.181345v -0.289669h
 0.181345v -1.01644h 0.181345v 1.20893h 0.181345v 0.293468h 0.181345v 0.198903h 0.181345v 0.509178h 0.181345v -2.21048h 0.181345v 1.80176h 0.181345v -0.880632h 0.181345v -0.0947145h 0.181345v -1.004h 0.181345v 2.49203h 0.181345v -0.512679h 0.181345v
 -0.785312h 0.181345v -0.377678h 0.181345v 1.16299h 0.181345v -0.100455h 0.181345v 1.69458h 0.181345v -1.59413h 0.181345v -0.495643h 0.181345v 0.495643h 0.181345v 1.59413h 0.181345v -0.332746h 0.181345v 0.673083h 0.181345v -1.1055h 0.181345v
 0.653425h 0.181345v -1.78174h 0.181345v -0.0984656h 0.181345v 2.44748h 0.181345v -1.00605h 0.181345v 0.663108h 0.181345v -3.41888h 0.181345v 0.549172h 0.181345v 4.16769h 0.181345v -3.88534h 0.181345v 2.93029h 0.181345v -0.788277h 0.181345v 1.99195h
 0.181345v 0.771766h 0.181345v 0.675114h 0.181345v -2.65056h 0.181345v -1.32687h 0.181345v 2.65643h 0.181345v -0.859681h 0.181345v -0.23679h 0.181345v -1.23914h 0.181345v 2.59062h 0.181345v -1.11469h 0.181345v 3.03333h 0.181345v -2.79272h 0.181345v
 -0.4774h 0.181345v -3.44574h 0.181345v 6.57033h 0.181345v -3.70062h 0.181345v 1.42179h 0.181345v -0.489141h 0.181345v 0.489141h 0.36269v 1.16299h 0.181345v -2.58478h 0.181345v 0.113441h 0.181345v -2.88962h 0.181345v 5.36095h 0.181345v -2.12574h
 0.181345v 1.59763h 0.181345v -1.00323h 0.181345v -1.93119h 0.181345v 2.17574h 0.181345v 0.24863h 0.181345v 0.904367h 0.181345v -1.99195h 0.181345v 2.53447h 0.181345v -2.76575h 0.181345v 2.09063h 0.181345v -6.35341h 0.181345v 3.92244h 0.181345v
 -3.92244h 0.181345v 1.07238h 0.181345v -4.24509h 0.181345v 0.352676h 0.181345v -0.83282h 0.181345v -1.8393h 0.181345v -2.71978h 0.181345v -2.12807h 0.181345v -1.93796h 0.181345v -2.50367h 0.181345v -1.11008h 0.181345v -0.949746h 0.181345v -1.6107h
 0.181345v -1.17862h 0.181345v -2.21006h 0.181345v -1.2063h 0.181345v -1.52012h 0.181345v 0.766915h 0.181345v -1.14418h 0.181345v -0.819328h 0.181345v -0.258384h 0.181345v 0.151448h 0.181345v -0.713322h 0.181345v 0.912531h 0.181345v 0.390737h
 0.181345v 0.159206h 0.181345v 0.0963457h 0.181345v 0.591519h 0.181345v 1.05916h 0.181345v 1.12074h 0.181345v 1.29623h 0.181345v 2.53055h 0.181345v -0.09995h 0.181345v 3.02674h 0.181345v 2.30462h 0.181345v 0.767041h 0.181345v 1.41429h 0.181345v
 2.65399h 0.181345v 2.22587h 0.181345v 2.34724h 0.181345v 2.54686h 0.181345v 1.58936h 0.181345v 1.09872h 0.181345v 2.70079h 0.181345v 0.58052h 0.181345v 2.71978h 0.181345v 2.1347h 0.181345v 0.164836h 0.181345v 2.92002h 0.181345v -3.72656h 0.181345v
 4.55552h 0.181345v -1.0292h 0.181345v -1.86712h 0.181345v 2.27032h 0.181345v -0.795788h 0.181345v 1.21019h 0.181345v 1.78331h 0.181345v -0.693961h 0.181345v -0.663108h 0.181345v -1.04361h 0.181345v 6.45724h 0.181345v -8.34806h 0.181345v 0.727826h
 0.181345v -0.368352h 0.181345v 1.94006h 0.181345v 0.208639h 0.181345v -1.40267h 0.181345v 2.04669h 0.181345v 2.89632h 0.181345v -1.0292h 0.181345v -1.19404h 0.181345v 1.69976h 0.181345v -2.37284h 0.181345v 2.63229h 0.181345v -2.85006h 0.181345v
 2.0849h 0.181345v -3.32874h 0.181345v -0.585074h 0.181345v 3.18599h 0.36269v 0.727826h 0.181345v -0.246576h 0.181345v 1.54457h 0.181345v -0.792265h 0.181345v -0.994867h 0.181345v 0.242566h 0.36269v -1.39954h 0.181345v 0.683363h 0.181345v -0.231283h
 0.181345v 0.231283h 0.181345v 1.99195h 0.181345v -1.75703h 0.181345v -2.60091h 0.181345v 4.09391h 0.181345v -1.25431h 0.36269v -4.35152h 0.181345v 5.34639h 0.181345v -5.34639h 0.181345v 4.84066h 0.181345v -0.727826h 0.181345v -1.35707h 0.181345v
 0.217777h 0.36269v 0.673083h 0.181345v -0.673083h 0.181345v 1.13929h 0.181345v 1.23355h 0.181345v -3.43127h 0.36269v -1.55126h 0.181345v 3.51405h 0.181345v -5.57491h 0.181345v 2.24617h 0.181345v -0.904367h 0.181345v 2.06736h 0.181345v 1.93447h
 0.181345v 0.704894h 0.181345v -1.59575h 0.181345v 2.59062h 0.36269v 1.34483h 0.181345v -4.36169h 0.181345v 0.64402h 0.181345v -0.217777h 0.181345v -1.82892h 0.181345v 4.67898h 0.181345v -4.67898h 0.181345v 4.94301h 0.181345v -3.1141h 0.181345v
 0.438781h 0.181345v 2.41128h 0.181345v -1.49299h 0.181345v -0.234926h 0.181345v 0.234926h 0.181345v -2.60091h 0.181345v 2.36599h 0.181345v -1.12214h 0.181345v -0.840644h 0.181345v 2.92554h 0.181345v 3.02115h 0.181345v -5.74093h 0.181345v 1.75703h
 0.181345v -3.51405h 0.181345v 3.51405h 0.181345v -1.96279h 0.181345v 1.05842h 0.181345v -2.42437h 0.181345v 6.4262h 0.181345v -2.38128h 0.181345v -0.242566h 0.181345v 1.25431h 0.181345v -1.72792h 0.181345v -0.904367h 0.181345v 3.43883h 0.181345v
 -1.81829h 0.181345v -2.05296h 0.181345v 1.57171h 0.181345v -0.466209h 0.181345v 1.44476h 0.181345v 1.59983h 0.181345v -3.71767h 0.181345v 5.19586h 0.181345v -5.83988h 0.181345v 4.36169h 0.181345v -0.278839h 0.181345v -1.57171h 0.181345v -1.19404h
 0.36269v 0.704894h 0.181345v 0.994867h 0.181345v -0.752301h 0.181345v -0.716177h 0.36269v -4.05657h 0.181345v 3.59753h 0.181345v 2.18695h 0.181345v -1.01174h 0.181345v -1.83832h 0.181345v 2.0849h 0.181345v -2.0849h 0.181345v 0.663108h 0.181345v
 1.67251h 0.36269v -1.44476h 0.181345v 4.21519h 0.181345v -1.99195h 0.181345v -1.51834h 0.181345v 4.78063h 0.181345v -0.648688h 0.181345v -1.5081h 0.181345v -2.62385h 0.181345v 1.78713h 0.181345v 0.552562h 0.181345v 1.47819h 0.181345v 0.314064h
 0.181345v -0.621652h 0.181345v -1.44944h 0.181345v 0.278839h 0.181345v 0.57382h 0.181345v -1.12638h 0.181345v -0.532824h 0.181345v 3.19845h 0.181345v 2.0849h 0.181345v -5.01932h 0.181345v -1.75703h 0.181345v 3.1522h 0.181345v 5.19586h 0.181345v
 -1.57171h 0.181345v -4.4768h 0.181345v 4.10845h 0.181345v -0.359475h 0.181345v 3.1522h 0.181345v -2.04669h 0.181345v 0.785312h 0.181345v -7.21151h 0.181345v 1.29799h 0.181345v 5.91352h 0.181345v -5.0768h 0.181345v 1.5081h 0.181345v 0.320818h
 0.181345v 4.9546h 0.181345v -1.70671h 0.181345v -1.53134h 0.181345v 0.368352h 0.181345v 1.99195h 0.36269v 0.432421h 0.181345v 5.83074h 0.181345v -6.26316h 0.181345v 2.29954h 0.181345v -2.71978h 0.181345v 5.43956h 0.181345v 1.24384h 0.181345v
 -3.4579h 0.181345v -0.505726h 0.181345v 2.1347h 0.181345v 3.18599h 0.181345v -6.74248h 0.181345v 1.42179h 0.181345v 6.04852h 0.181345v -5.54279h 0.181345v -0.505726h 0.181345v 4.62673h 0.181345v -5.11587h 0.181345v -1.37798h 0.181345v 5.19586h
 0.181345v 0.634882h 0.36269v -7.09212h 0.181345v 5.26321h 0.181345v 3.18599h 0.181345v -9.2345h 0.181345v 5.48553h 0.181345v 6.04852h 0.181345v -6.59103h 0.181345v 7.44369h 0.181345v -6.90118h 0.181345v 8.7683h 0.181345v -10.34h 0.181345v 2.71978h
 0.181345v 4.09391h 0.181345v 8.15305h 0.181345v -9.64605h 0.181345v 3.1522h 0.181345v -9.43564h 0.181345v 8.58298h 0.36269v 10.34h 0.181345v -7.62023h 0.181345v -4.29149h 0.181345v 2.42437h 0.181345v -3.1522h 0.181345v 3.1522h 0.181345v -3.84616h
 0.181345v 2.9935h 0.181345v 2.71978h 0.36269v -2.71978h 0.36269v -2.9935h 0.181345v 0.693961h 0.181345v 3.1522h 0.181345v 2.89632h 0.181345v 1.1055h 0.181345v -2.1347h 0.181345v -8.20531h 0.181345v 10.34h 0.181345v -6.4262h 0.181345v 3.32874h
 0.181345v -2.56357h 0.181345v -1.49299h 0.181345v 3.1522h 0.181345v -1.65921h 0.181345v -2.18695h 0.181345v -1.90695h 0.181345v -1.14806h 0.181345v 3.05502h 0.181345v 2.9935h 0.181345v -9.04202h 0.181345v 4.14157h 0.181345v -6.2461h 0.181345v
 3.03718h 0.181345v -2.63936h 0.181345v 0.828962h 0.181345v -1.61427h 0.181345v -5.92047h 0.181345v 7.53474h 0.181345v -7.01127h 0.181345v 1.1055h 0.181345v -4.64584h 0.181345v 2.51114h 0.181345v -0.246576h 0.181345v -0.242566h 0.181345v -0.932646h
 0.181345v 1.92751h 0.181345v 2.21405h 0.181345v -2.96635h 0.181345v 0.497295h 0.181345v -2.76186h 0.181345v 3.54034h 0.181345v -2.67531h 0.36269v 0.452079h 0.181345v 3.32874h 0.181345v 1.19404h 0.181345v -2.82301h 0.181345v 4.121h 0.181345v
 -3.05502h 0.181345v 3.74898h 0.181345v 1.89082h 0.181345v -1.16299h 0.181345v 2.42437h 0.181345v 0.445331h 0.181345v -0.445331h 0.181345v 4.00182h 0.181345v -2.1347h 0.181345v 2.71978h 0.181345v -6.63359h 0.181345v 12.3867h 0.181345v -6.90118h
 0.181345v 9.79749h 0.181345v -5.32069h 0.181345v 1.57171h 0.181345v 1.75703h 0.181345v -4.75053h 0.181345v 7.84798h 0.181345v -8.51109h 0.181345v -1.82892h 0.181345v -5.26321h 0.181345v 2.63936h 0.181345v 2.06085h 0.181345v -2.53447h 0.181345v
 -4.05657h 0.36269v 1.89082h 0.181345v -6.70578h 0.181345v -0.255006h 0.181345v -2.9705h 0.181345v -2.9935h 0.181345v -1.29799h 0.181345v 1.64094h 0.181345v -3.53545h 0.181345v -0.669057h 0.181345v -1.84401h 0.181345v 0.832266h 0.181345v -3.37757h
 0.181345v -2.00413h 0.181345v -0.169519h 0.181345v -0.497295h 0.181345v -4.23023h 0.181345v 3.74898h 0.181345v -1.28483h 0.181345v 0.515717h 0.181345v -1.08407h 0.181345v -0.547492h 0.181345v -0.397823h 0.181345v 0.197585h 0.181345v -3.15536h
 0.181345v 2.00729h 0.181345v 2.03587h 0.181345v -1.47287h 0.181345v -1.04619h 0.181345v -1.84263h 0.181345v 1.14596h 0.181345v 0.696663h 0.181345v -1.57766h 0.181345v -0.159547h 0.181345v 0.42931h 0.181345v -0.482115h 0.181345v -2.01828h 0.181345v
 0.138768h 0.181345v 0.811711h 0.181345v -0.0489901h 0.181345v -1.5766h 0.181345v 0.0882694h 0.181345v -0.776229h 0.181345v -0.657626h 0.181345v 0.826665h 0.181345v -1.37923h 0.181345v 2.29954h 0.181345v -1.50375h 0.181345v -0.202962h 0.181345v
 1.84295h 0.181345v -0.669057h 0.181345v 1.61054h 0.181345v 0.244956h 0.181345v -1.14075h 0.181345v 1.59206h 0.181345v 1.10942h 0.181345v 0.27677h 0.181345v 1.10121h 0.181345v 2.84057h 0.181345v 0.746029h 0.181345v 0.309182h 0.181345v 0.315726h
 0.181345v 0.989367h 0.181345v 1.61915h 0.181345v 2.58735h 0.181345v 3.99313h 0.181345v 0.602808h 0.181345v -0.74978h 0.181345v 6.26952h 0.181345v -1.88021h 0.181345v 5.66103h 0.181345v -1.88398h 0.181345v 5.06997h 0.181345v 2.71978h 0.181345v
 0.877752h 0.181345v -1.70671h 0.181345v 7.09212h 0.181345v 4.50927h 0.181345v -7.96716h 0.181345v 6.30796h 0.181345v 3.52632h 0.181345v -4.29149h 0.181345v 2.42437h 0.181345v 11.2444h 0.181345v -8.34806h 0.181345v 12.6395h 0.181345v -14.6315h
 0.181345v 12.332h 0.181345v -5.32069h 0.36269v 1.57171h 0.181345v 16.3885h 0.181345v -20.68h 0.181345v 6.04852h 0.181345v -7.24255h 0.181345v 3.91381h 0.181345v 17.9602h 0.181345v -14.6315h 0.181345v 1.99195h 0.181345v -5.32069h 0.181345v 10.34h
 0.181345v -11.7618h 0.181345v 11.7618h 0.181345v 3.32874h 0.181345v -8.34806h 0.181345v 12.6395h 0.181345v -17.9602h 0.181345v 24.0088h 0.36269v -10.34h 0.181345v -10.34h 0.181345v -3.32874h 0.181345v 10.34h 0.181345v 3.32874h 0.36269v -8.34806h
 0.181345v -3.74898h 0.181345v 1.75703h 0.181345v 10.34h 0.36269v -8.34806h 0.181345v 5.01932h 0.181345v -2.71978h 0.181345v 6.04852h 0.36269v -3.32874h 0.181345v 7.62023h 0.181345v 6.04852h 0.181345v -18.6881h 0.181345v 8.34806h 0.181345v 10.34h
 0.181345v -6.04852h 0.181345v -12.6395h 0.181345v -1.99195h 0.181345v 20.68h 0.181345v -10.34h 0.906724v -13.6687h 0.181345v -1.42179h 0.181345v 19.382h 0.181345v -12.6395h 0.181345v 2.29954h 0.181345v 6.04852h 0.181345v 4.29149h 0.181345v -10.34h
 0.36269v -9.04202h 0.181345v 11.7618h 0.181345v 7.62023h 0.181345v -7.62023h 0.181345v -5.01932h 0.181345v 5.01932h 0.36269v -2.71978h 0.181345v -4.29149h 0.181345v 4.29149h 0.181345v -6.04852h 0.181345v 3.74898h 0.181345v -6.74248h 0.181345v
 6.74248h 0.36269v -1.99195h 0.181345v 1.99195h 0.181345v -1.99195h 0.181345v 4.29149h 0.181345v -14.6315h 0.181345v 4.29149h 0.181345v -2.29954h 0.181345v 5.01932h 0.181345v -7.01127h 0.181345v -2.56357h 0.181345v 0.806547h 0.181345v -3.65661h
 0.181345v 2.85006h 0.181345v -1.49299h 0.181345v -0.693961h 0.181345v 2.18695h 0.181345v 0.806547h 0.181345v 2.71978h 0.181345v -3.52632h 0.181345v -7.30283h 0.181345v 0.994867h 0.181345v 5.54279h 0.181345v 3.32874h 0.181345v -7.80554h 0.181345v
 6.90118h 0.181345v -3.1522h 0.181345v -2.60091h 0.181345v 4.90045h 0.36269v 2.71978h 0.181345v -3.52632h 0.181345v 5.66103h 0.181345v 3.91381h 0.181345v 1.57171h 0.181345v 12.097h 0.181345v -3.32874h 0.181345v -10.34h 0.181345v 7.62023h 0.181345v
 2.71978h 0.181345v -8.7683h 0.181345v 6.04852h 0.181345v -7.62023h 0.181345v 3.32874h 0.181345v 10.34h 0.36269v 4.29149h 0.181345v 6.04852h 0.181345v -10.34h 0.36269v -3.32874h 0.36269v -2.71978h 0.181345v 2.71978h 0.181345v 7.62023h 0.181345v
 -17.9602h 0.181345v 17.9602h 0.181345v 16.3885h 0.181345v -26.7285h 0.181345v 6.04852h 0.181345v -3.32874h 0.181345v 7.62023h 0.181345v -4.29149h 0.181345v 4.29149h 0.181345v 6.04852h 0.181345v -13.6687h 0.36269v -2.71978h 0.181345v 6.04852h
 0.36269v 10.34h 0.181345v -10.34h 0.181345v 4.29149h 0.181345v -4.29149h 0.181345v -3.32874h 0.181345v 24.0088h 0.181345v -20.68h 0.544034v 20.68h 0.181345v -24.0088h 0.181345v 13.6687h 0.181345v -10.34h 0.181345v -10.34h 0.181345v 7.01127h
 0.181345v 13.6687h 0.181345v -16.3885h 0.181345v 6.04852h 0.181345v 20.68h 0.181345v -20.68h 0.181345v -8.34806h 0.181345v 2.29954h 0.36269v -4.29149h 0.181345v 14.6315h 0.181345v -7.62023h 0.181345v -5.01932h 0.181345v 5.01932h 0.36269v -5.01932h
 0.181345v 2.29954h 0.181345v 2.71978h 0.36269v 3.32874h 0.181345v -8.34806h 0.181345v -6.74248h 0.181345v 6.74248h 0.181345v -5.32069h 0.181345v 1.57171h 0.181345v 3.74898h 0.181345v 29.0281h 0.181345v -26.7285h 0.181345v 16.3885h 0.181345v -22.437h
 0.36269v 3.74898h 0.36269v -1.99195h 0.36269v -7.24255h 0.181345v 3.91381h 0.181345v 10.34h 0.181345v -7.01127h 0.181345v -7.24255h 0.181345v -1.1055h 0.181345v 5.01932h 0.181345v -5.01932h 0.181345v 8.34806h 0.181345v -6.04852h 0.181345v -7.62023h
 0.181345v 11.9117h 0.181345v -6.59103h 0.181345v 1.1055h 0.181345v 17.5826h 0.181345v -10.34h 0.36269v -1.75703h 0.181345v 1.75703h 0.181345v -4.75053h 0.181345v -1.29799h 0.181345v 2.71978h 0.181345v -3.91381h 0.181345v 7.24255h 0.181345v -3.32874h
 0.181345v 1.57171h 0.181345v -4.29149h 0.181345v 10.34h 0.181345v -4.29149h 0.181345v 1.99195h 0.181345v 5.01932h 0.181345v 3.32874h 0.181345v -8.34806h 0.181345v -6.74248h 0.181345v -1.29799h 0.181345v 8.04047h 0.181345v -5.32069h 0.181345v
 5.32069h 0.181345v -9.2345h 0.181345v 17.5826h 0.36269v -3.32874h 0.181345v -7.01127h 0.181345v 4.29149h 0.181345v 6.04852h 0.181345v -8.34806h 0.181345v 5.01932h 0.181345v -7.01127h 0.181345v -7.24255h 0.181345v 11.534h 0.181345v -9.04202h
 0.181345v -4.62673h 0.181345v 11.3692h 0.181345v -10.34h 0.181345v 15.3593h 0.36269v 3.32874h 0.181345v -8.34806h 0.181345v -6.74248h 0.36269v 1.42179h 0.181345v 10.34h 0.181345v -10.34h 0.181345v 5.32069h 0.181345v 8.34806h 0.181345v -8.34806h
 0.181345v 5.01932h 0.181345v -11.7618h 0.544034v 2.9935h 0.181345v 8.7683h 0.181345v -19.1083h 0.181345v 14.089h 0.36269v -11.3692h 0.181345v 7.62023h 0.181345v -4.29149h 0.181345v 1.29799h 0.181345v 4.75053h 0.181345v -1.75703h 0.181345v 32.7771h
 0.181345v -26.7285h 0.181345v -4.29149h 0.181345v -1.75703h 0.181345v 3.74898h 0.181345v -8.04047h 0.181345v -1.19404h 0.181345v 2.49203h 0.181345v 2.9935h 0.181345v -1.57171h 0.181345v -1.42179h 0.181345v -6.49385h 0.181345v 9.48735h 0.181345v
 -6.59103h 0.181345v 5.01932h 0.181345v 1.57171h 0.181345v -7.62023h 0.181345v 2.1347h 0.181345v -6.4262h 0.181345v 6.4262h 0.181345v -1.1055h 0.181345v -4.55552h 0.181345v 5.66103h 0.181345v -4.85448h 0.181345v 8.7683h 0.181345v -6.04852h 0.181345v
 -2.71978h 0.181345v 7.34651h 0.181345v -8.15305h 0.181345v 2.56357h 0.181345v 1.99195h 0.181345v -1.0292h 0.181345v 1.0292h 0.181345v 1.1055h 0.181345v 1.19404h 0.181345v -2.29954h 0.36269v -1.0292h 0.181345v 3.32874h 0.181345v -8.34806h 0.181345v
 7.15402h 0.36269v -4.85448h 0.181345v -0.806547h 0.181345v 1.65921h 0.36269v -1.65921h 0.181345v 9.57484h 0.181345v -2.71978h 0.181345v -10.949h 0.181345v 12.247h 0.181345v -8.15305h 0.181345v -5.78448h 0.181345v 2.93442h 0.181345v 3.65661h 0.36269v
 3.74898h 0.181345v -1.99195h 0.181345v -2.56357h 0.181345v -4.09391h 0.181345v -1.14806h 0.181345v -1.06599h 0.181345v 4.81497h 0.181345v 3.1522h 0.181345v -0.852659h 0.181345v -2.29954h 0.181345v 4.05657h 0.181345v -4.05657h 0.181345v 0.727826h
 0.181345v 5.32069h 0.181345v -2.89632h 0.181345v 4.00182h 0.181345v -5.66103h 0.181345v -4.67898h 0.181345v 6.33819h 0.181345v -3.84616h 0.181345v 0.693961h 0.181345v -2.60091h 0.181345v 0.608961h 0.181345v 6.04852h 0.181345v -7.24255h 0.181345v
 1.82892h 0.181345v 4.50927h 0.36269v -0.852659h 0.181345v -3.65661h 0.181345v 4.50927h 0.181345v -0.852659h 0.181345v 0.852659h 0.181345v -6.90118h 0.181345v 4.4768h 0.181345v -1.42179h 0.181345v -0.663108h 0.181345v -1.82892h 0.181345v -2.1347h
 0.181345v 4.62673h 0.181345v 0.693961h 0.181345v 6.04852h 0.181345v -4.55552h 0.181345v 1.65921h 0.181345v -3.1522h 0.181345v -3.18599h 0.181345v -0.562991h 0.36269v -2.9935h 0.181345v 6.04852h 0.181345v -2.49203h 0.181345v -2.62385h 0.181345v
 3.81788h 0.181345v -2.82301h 0.181345v -0.505726h 0.181345v 1.57171h 0.181345v -4.29149h 0.181345v 1.29799h 0.181345v 4.75053h 0.181345v 0.634882h 0.181345v -3.96362h 0.181345v 3.32874h 0.181345v -4.75053h 0.181345v -1.29799h 0.181345v 7.34651h
 0.181345v -7.34651h 0.181345v 4.29149h 0.36269v -4.29149h 0.181345v -1.19404h 0.181345v 1.19404h 0.181345v 5.43956h 0.181345v -1.69058h 0.181345v -6.04852h 0.181345v -0.351016h 0.181345v 4.40758h 0.181345v -2.56357h 0.181345v 0.806547h 0.181345v
 -1.19404h 0.181345v -2.78339h 0.181345v 7.72641h 0.181345v -5.32069h 0.181345v 9.61218h 0.181345v -12.6395h 0.181345v 6.82972h 0.181345v 3.20892h 0.181345v -7.37962h 0.181345v -0.71049h 0.181345v 3.07079h 0.181345v -3.74898h 0.181345v 1.0292h
 0.181345v 5.52504h 0.181345v -0.994867h 0.181345v 3.20892h 0.181345v -3.20892h 0.181345v 5.80983h 0.181345v -4.29149h 0.181345v -1.0292h 0.181345v -0.489141h 0.181345v -0.473611h 0.181345v 6.28344h 0.181345v -1.99195h 0.181345v -1.75703h 0.181345v
 -1.57171h 0.181345v 6.04852h 0.181345v -3.91381h 0.181345v 6.33819h 0.181345v -7.44369h 0.181345v 8.34806h 0.181345v -4.05657h 0.181345v -4.29149h 0.181345v 5.01932h 0.181345v -1.42179h 0.181345v 0.693961h 0.181345v -0.693961h 0.181345v 3.84616h
 0.181345v -2.42437h 0.181345v 2.42437h 0.181345v -0.852659h 0.181345v -2.9935h 0.36269v -1.29799h 0.181345v 4.29149h 0.181345v -4.29149h 0.181345v 4.29149h 0.181345v -2.9935h 0.181345v -3.59753h 0.181345v 6.59103h 0.181345v -2.9935h 0.181345v
 3.84616h 0.36269v 1.86712h 0.181345v -5.71328h 0.181345v 2.9935h 0.181345v 4.85448h 0.181345v -7.84798h 0.181345v 2.18695h 0.181345v 2.56357h 0.181345v -2.56357h 0.181345v -4.09391h 0.181345v -2.21405h 0.181345v 7.96716h 0.181345v 2.89632h 0.181345v
 1.1055h 0.181345v -10.903h 0.181345v 6.90118h 0.181345v -2.42437h 0.181345v 3.32874h 0.181345v -4.75053h 0.181345v -2.49203h 0.181345v 5.48553h 0.181345v -2.9935h 0.181345v 2.18695h 0.36269v 0.806547h 0.181345v 0.852659h 0.181345v -6.33819h
 0.181345v -1.1055h 0.181345v 0.542514h 0.181345v 14.8168h 0.181345v -16.8777h 0.181345v 3.81788h 0.181345v 1.29799h 0.181345v 1.42179h 0.181345v 5.32069h 0.181345v -3.74898h 0.181345v -0.806547h 0.181345v -0.765167h 0.181345v 7.62023h 0.181345v
 -7.62023h 0.181345v 0.765167h 0.181345v -0.765167h 0.181345v 5.32069h 0.181345v -8.04047h 0.181345v 5.14415h 0.181345v -3.1522h 0.36269v 11.0678h 0.181345v -12.4249h 0.181345v 2.85006h 0.181345v -6.30796h 0.181345v 4.81497h 0.181345v 3.1522h
 0.181345v -3.84616h 0.181345v 4.75053h 0.181345v -8.87153h 0.181345v 6.30796h 0.181345v -5.78448h 0.181345v 2.29954h 0.181345v 6.04852h 0.181345v -8.87153h 0.181345v 10.8635h 0.181345v -9.79749h 0.181345v 6.90118h 0.181345v -1.65921h 0.181345v
 -1.49299h 0.181345v 0.727826h 0.181345v 5.32069h 0.181345v -3.74898h 0.181345v -1.57171h 0.181345v -1.42179h 0.181345v 2.9935h 0.181345v 6.04852h 0.181345v -6.04852h 0.181345v -6.04852h 0.181345v 2.39191h 0.181345v 4.50927h 0.181345v -7.44369h
 0.181345v 2.29954h 0.181345v 7.01127h 0.181345v -5.01932h 0.181345v -3.18599h 0.181345v 3.91381h 0.181345v -2.71978h 0.181345v -0.608961h 0.36269v -0.585074h 0.181345v 1.19404h 0.181345v 1.29799h 0.181345v -3.05502h 0.181345v -1.06599h 0.181345v
 -1.46848h 0.181345v 7.01127h 0.181345v -3.91381h 0.181345v -1.1055h 0.181345v 3.59753h 0.181345v -5.11587h 0.181345v 3.81788h 0.181345v 7.01127h 0.181345v -7.62023h 0.181345v 1.90695h 0.181345v 2.9935h 0.181345v -4.90045h 0.181345v -2.21405h
 0.181345v 0.523474h 0.181345v 2.29954h 0.181345v -0.608961h 0.181345v 2.60091h 0.181345v -0.693961h 0.181345v -1.29799h 0.181345v 3.48494h 0.181345v -0.765167h 0.181345v -5.01932h 0.181345v 3.59753h 0.181345v 5.71328h 0.181345v -8.7683h 0.181345v
 -2.9935h 0.181345v 3.55649h 0.181345v -3.09746h 0.181345v 3.68253h 0.181345v 0.608961h 0.36269v -2.82301h 0.181345v 3.4579h 0.181345v -2.93442h 0.181345v 5.78448h 0.181345v -9.53346h 0.181345v 8.04047h 0.181345v -9.2345h 0.181345v 13.2911h 0.181345v
 -16.0745h 0.181345v 7.72641h 0.181345v -1.51834h 0.181345v -2.63936h 0.181345v 4.70021h 0.181345v -2.9935h 0.181345v -2.10454h 0.181345v 4.55552h 0.181345v 1.1055h 0.181345v -1.1055h 0.181345v -3.32874h 0.181345v 5.01932h 0.181345v -5.84828h
 0.181345v 0.828962h 0.181345v 5.62828h 0.181345v -5.19586h 0.181345v 4.00182h 0.181345v -5.66103h 0.181345v 3.03718h 0.181345v 0.489141h 0.181345v -3.91381h 0.181345v 2.95106h 0.181345v -2.16575h 0.181345v 2.63936h 0.36269v -4.53018h 0.181345v
 3.1522h 0.181345v 4.5869h 0.181345v -4.14157h 0.181345v 0.459036h 0.181345v 3.09746h 0.181345v 2.49203h 0.181345v -7.75523h 0.181345v 5.26321h 0.36269v 1.82892h 0.181345v -2.93442h 0.181345v -2.89632h 0.181345v 5.83074h 0.181345v -1.24384h 0.181345v
 0.608961h 0.181345v -1.19404h 0.181345v -3.09746h 0.181345v 6.28344h 0.181345v -1.99195h 0.181345v -1.19404h 0.181345v 9.2345h 0.181345v -5.32069h 0.181345v -1.42179h 0.181345v -3.59753h 0.181345v 0.542514h 0.181345v 1.75703h 0.181345v 5.14415h
 0.181345v 2.89632h 0.181345v 1.1055h 0.181345v -7.15402h 0.36269v 6.04852h 0.181345v -2.89632h 0.181345v 1.86712h 0.181345v 2.1347h 0.181345v -9.14597h 0.181345v 3.48494h 0.181345v -2.18695h 0.181345v 0.693961h 0.181345v 5.01932h 0.181345v 2.1347h
 0.181345v -7.15402h 0.181345v 2.29954h 0.181345v -7.62023h 0.181345v 7.62023h 0.181345v -3.65661h 0.181345v -1.82892h 0.181345v -2.62385h 0.181345v 8.96203h 0.181345v -5.14415h 0.181345v 8.04047h 0.181345v 1.1055h 0.181345v -11.4455h 0.181345v
 5.78448h 0.181345v -6.30796h 0.181345v 2.21405h 0.181345v 2.60091h 0.181345v 2.29954h 0.181345v -4.29149h 0.181345v 0.634882h 0.181345v -1.82892h 0.181345v -2.62385h 0.181345v 1.51834h 0.181345v 1.69058h 0.181345v 2.60091h 0.181345v -3.18599h
 0.36269v 1.19404h 0.181345v 1.99195h 0.181345v 7.15402h 0.181345v -2.1347h 0.181345v -7.01127h 0.181345v -0.608961h 0.181345v -2.21405h 0.181345v 6.30796h 0.181345v -2.18695h 0.36269v 3.84616h 0.181345v -3.1522h 0.181345v 1.49299h 0.181345v
 -3.48494h 0.181345v -0.608961h 0.181345v 8.64943h 0.181345v -4.55552h 0.181345v 0.806547h 0.181345v -0.806547h 0.181345v 3.52632h 0.181345v -7.01127h 0.181345v 1.29799h 0.181345v 2.9935h 0.181345v 1.75703h 0.181345v -7.80554h 0.181345v 14.8168h
 0.181345v -1.42179h 0.181345v -6.49385h 0.181345v 1.86712h 0.181345v 4.62673h 0.36269v 2.9935h 0.181345v -4.29149h 0.181345v 4.29149h 0.36269v -5.48553h 0.181345v 1.19404h 0.181345v 6.04852h 0.181345v -10.34h 0.181345v 12.332h 0.181345v -6.74248h
 0.181345v 1.42179h 0.181345v 3.32874h 0.181345v -4.75053h 0.181345v 1.42179h 0.181345v -6.04852h 0.181345v 2.1347h 0.181345v 7.24255h 0.36269v -4.75053h 0.181345v 9.04202h 0.181345v -14.6315h 0.181345v 5.58948h 0.181345v -2.49203h 0.181345v 14.2538h
 0.181345v -11.7618h 0.181345v -1.29799h 0.181345v -2.29954h 0.36269v 2.29954h 0.181345v 8.04047h 0.181345v -1.99195h 0.181345v -8.34806h 0.181345v -1.99195h 0.181345v 7.01127h 0.181345v -3.91381h 0.181345v -1.1055h 0.181345v -1.0292h 0.181345v
 9.37726h 0.181345v -1.75703h 0.181345v -1.57171h 0.181345v -5.01932h 0.181345v 6.59103h 0.181345v -8.58298h 0.181345v 5.58948h 0.181345v -4.62673h 0.181345v 7.62023h 0.181345v -4.29149h 0.181345v 10.34h 0.181345v -12.6395h 0.181345v -5.32069h
 0.181345v 17.9602h 0.181345v -10.34h 0.181345v 8.04047h 0.181345v -10.34h 0.181345v 3.59753h 0.181345v -3.59753h 0.181345v 8.34806h 0.181345v -1.75703h 0.181345v -4.29149h 0.36269v 4.29149h 0.181345v -2.9935h 0.181345v -4.62673h 0.181345v 3.32874h
 0.181345v 4.29149h 0.181345v 8.7683h 0.181345v -10.34h 0.181345v -12.4249h 0.181345v 12.4249h 0.181345v -6.04852h 0.181345v 3.32874h 0.181345v 10.34h 0.181345v -14.6315h 0.181345v 8.58298h 0.181345v -4.29149h 0.181345v -2.29954h 0.181345v 10.34h
 0.181345v -10.34h 0.181345v 3.59753h 0.181345v -4.62673h 0.181345v 3.32874h 0.181345v -1.19404h 0.181345v 11.534h 0.181345v -12.6395h 0.36269v 1.1055h 0.181345v -2.1347h 0.181345v 13.6687h 0.181345v -11.534h 0.181345v -2.1347h 0.181345v 2.1347h
 0.181345v 1.19404h 0.36269v 8.04047h 0.181345v -6.74248h 0.181345v -4.62673h 0.181345v 3.32874h 0.181345v 1.29799h 0.181345v -2.49203h 0.181345v 3.91381h 0.181345v -1.42179h 0.181345v -2.49203h 0.181345v 2.49203h 0.181345v 6.74248h 0.181345v
 -11.3692h 0.181345v 9.37726h 0.181345v -6.04852h 0.36269v 4.29149h 0.181345v 6.04852h 0.181345v -11.534h 0.181345v -3.09746h 0.181345v 7.01127h 0.181345v 3.32874h 0.181345v -4.75053h 0.181345v 6.74248h 0.181345v -5.32069h 0.181345v -2.71978h
 0.181345v -2.29954h 0.181345v 3.59753h 0.181345v 9.04202h 0.181345v -12.6395h 0.36269v 6.59103h 0.181345v -1.57171h 0.181345v -7.01127h 0.181345v 1.99195h 0.181345v 8.34806h 0.181345v -10.34h 0.181345v 10.34h 0.181345v -1.75703h 0.181345v -4.29149h
 0.181345v 2.71978h 0.181345v -1.42179h 0.181345v -1.29799h 0.181345v -6.85506h 0.181345v -0.765167h 0.181345v 5.32069h 0.181345v 5.01932h 0.181345v -6.04852h 0.181345v -0.962752h 0.36269v -2.56357h 0.181345v 0.806547h 0.181345v -4.29149h 0.181345v
 7.01127h 0.181345v -1.86712h 0.181345v 5.19586h 0.181345v -2.29954h 0.181345v -7.40559h 0.181345v 4.50927h 0.181345v 0.904367h 0.181345v 4.29149h 0.181345v -6.04852h 0.181345v -4.29149h 0.181345v 0.634882h 0.181345v 5.41364h 0.181345v -2.56357h
 0.181345v 2.56357h 0.181345v -7.24255h 0.181345v -1.1055h 0.181345v 2.29954h 0.181345v -3.32874h 0.181345v 3.32874h 0.181345v 4.29149h 0.181345v -4.90045h 0.181345v 1.90695h 0.181345v 2.18695h 0.181345v -5.78448h 0.181345v 3.59753h 0.181345v
 -3.59753h 0.181345v 5.01932h 0.181345v -8.7683h 0.181345v 3.74898h 0.181345v 0.542514h 0.181345v -1.06599h 0.181345v 4.121h 0.181345v -0.663108h 0.181345v -3.4579h 0.181345v 7.1145h 0.181345v -8.58298h 0.181345v 2.53447h 0.181345v -3.43883h
 0.181345v 6.49385h 0.181345v -5.11587h 0.181345v 0.994867h 0.181345v 3.4579h 0.181345v 1.35707h 0.181345v -2.60091h 0.181345v 4.09391h 0.181345v -6.81368h 0.181345v 0.505726h 0.181345v 5.54279h 0.181345v 0.765167h 0.181345v -2.18695h 0.181345v
 -4.62673h 0.181345v 8.47289h 0.181345v -5.75311h 0.181345v -1.69058h 0.181345v 9.31081h 0.181345v 3.32874h 0.181345v -6.04852h 0.36269v 2.71978h 0.181345v 1.0292h 0.181345v -1.99195h 0.181345v 5.58948h 0.181345v 2.9935h 0.181345v -2.9935h 0.181345v
 -7.34651h 0.181345v 2.71978h 0.181345v -1.86712h 0.181345v 5.19586h 0.181345v 1.29799h 0.181345v 4.75053h 0.181345v 1.99195h 0.181345v 12.6395h 0.181345v -19.382h 0.181345v -1.29799h 0.181345v 10.34h 0.181345v -7.62023h 0.181345v 1.57171h 0.36269v
 16.3885h 0.181345v -14.6315h 0.181345v 7.01127h 0.181345v 7.62023h 0.181345v -10.34h 0.181345v 10.34h 0.181345v -7.62023h 0.181345v 24.0088h 0.181345v -20.68h 0.181345v 10.34h 0.181345v -10.34h 0.181345v 10.34h 0.36269v -10.34h 0.181345v 10.34h
 0.181345v 10.34h 0.544034v -26.7285h 0.181345v 26.7285h 0.181345v -26.7285h 0.181345v 6.04852h 0.36269v 10.34h 0.181345v 10.34h 0.544034v -16.3885h 0.181345v 16.3885h 0.181345v -10.34h 0.181345v 10.34h 0.181345v -16.3885h 0.181345v 6.04852h
 0.181345v -6.04852h 0.181345v -4.29149h 0.181345v -3.32874h 0.181345v 13.6687h 0.181345v -6.04852h 0.181345v 26.7285h 0.181345v -26.7285h 0.181345v 16.3885h 0.181345v 10.34h 0.181345v -10.34h 0.181345v 10.34h 0.181345v -10.34h 0.181345v -16.3885h
 0.181345v 16.3885h 0.181345v -16.3885h 0.181345v 26.7285h 0.36269v -26.7285h 0.181345v 16.3885h 0.181345v 10.34h 0.181345v -20.68h 0.36269v 10.34h 0.181345v -16.3885h 0.181345v 6.04852h 0.181345v 20.68h 0.181345v -10.34h 0.181345v -10.34h 0.36269v
 -6.04852h 0.181345v 26.7285h 0.181345v -20.68h 0.181345v 20.68h 0.181345v -10.34h 0.181345v 10.34h 0.181345v -10.34h 0.181345v 10.34h 0.181345v -10.34h 0.725379v -10.34h 0.544034v 20.68h 0.181345v -10.34h 0.36269v 10.34h 0.544034v -10.34h 0.181345v
 10.34h 0.181345v -10.34h 0.181345v -20.68h 0.181345v 31.02h 0.181345v -20.68h 0.181345v 20.68h 0.181345v -10.34h 0.181345v -10.34h 0.36269v 10.34h 0.725379v -10.34h 0.181345v 20.68h 0.181345v -10.34h 0.181345v -10.34h 0.181345v 10.34h 0.181345v
 -10.34h 0.181345v 20.68h 0.181345v -20.68h 0.181345v 10.34h 0.544034v 10.34h 0.181345v -10.34h 0.181345v -24.0088h 0.181345v 24.0088h 0.36269v -20.68h 0.36269v 31.02h 0.544034v -26.7285h 0.181345v 6.04852h 0.181345v -10.34h 0.181345v 10.34h
 0.181345v 10.34h 0.181345v 10.34h 0.36269v -20.68h 0.181345v 20.68h 0.181345v -20.68h 0.36269v 10.34h 0.181345v -10.34h 0.181345v 10.34h 0.36269v -10.34h 0.181345v -13.6687h 0.181345v 3.32874h 0.181345v 20.68h 0.181345v -10.34h 0.181345v 20.68h
 0.181345v -10.34h 0.36269v -16.3885h 0.181345v 16.3885h 0.181345v 10.34h 0.36269v -20.68h 0.725379v 10.34h 0.36269v -10.34h 0.36269v 10.34h 0.181345v -16.3885h 0.181345v 26.7285h 0.181345v -10.34h 0.181345v 10.34h 0.181345v -10.34h 0.36269v 10.34h
 0.181345v -10.34h 0.181345v 10.34h 0.36269v -20.68h 0.181345v 20.68h 0.181345v -26.7285h 0.36269v 6.04852h 0.181345v 20.68h 0.181345v -26.7285h 0.181345v 26.7285h 0.181345v -10.34h 0.36269v 10.34h 0.181345v -10.34h 0.181345v -10.34h 0.181345v 10.34h
 0.544034v 10.34h 0.36269v -20.68h 0.36269v -6.04852h 0.181345v 6.04852h 0.181345v -6.04852h 0.181345v 6.04852h 0.181345v 10.34h 0.181345v -16.3885h 0.181345v 16.3885h 0.181345v -20.68h 0.181345v 10.34h 0.181345v 10.34h 0.181345v 10.34h 0.36269v
 -26.7285h 0.181345v 16.3885h 0.181345v -16.3885h 0.181345v 26.7285h 0.181345v -26.7285h 0.181345v 26.7285h 0.36269v -10.34h 0.36269v 10.34h 0.181345v -10.34h 0.544034v -10.34h 0.181345v 10.34h 0.181345v 10.34h 0.181345v -10.34h 0.36269v -10.34h
 0.181345v 20.68h 0.181345v -10.34h 0.181345v 10.34h 0.181345v -20.68h 0.36269v 20.68h 0.181345v -26.7285h 0.181345v 16.3885h 0.181345v 10.34h 0.181345v -10.34h 0.181345v 10.34h 1.08807v -10.34h 0.181345v 10.34h 0.181345v -20.68h 0.181345v 10.34h
 0.36269v 10.34h 0.181345v -10.34h 0.181345v 10.34h 0.181345v -31.02h 0.181345v 10.34h 0.181345v 10.34h 0.181345v 10.34h 0.181345v -10.34h 0.36269v 10.34h 0.36269v -26.7285h 0.181345v 26.7285h 0.181345v -20.68h 0.181345v 10.34h 0.725379v 10.34h
 0.36269v -10.34h 0.181345v -10.34h 0.181345v 20.68h 0.181345v -10.34h 0.181345v 10.34h 0.181345v -10.34h 0.181345v 10.34h 0.181345v -10.34h 0.181345v 10.34h 0.544034v -10.34h 0.181345v 10.34h 0.181345v -10.34h 0.36269v 10.34h 0.36269v -10.34h
 0.181345v -10.34h 0.36269v 10.34h 0.36269v -10.34h 0.181345v 10.34h 0.181345v -16.3885h 0.181345v 26.7285h 0.181345v -10.34h 0.181345v 10.34h 0.181345v -10.34h 0.544034v -16.3885h 0.181345v 26.7285h 0.36269v -10.34h 0.36269v -24.0088h 0.181345v
 24.0088h 0.36269v 10.34h 0.181345v -10.34h 0.544034v -10.34h 0.181345v 20.68h 0.36269" fill="none" stroke="black"/>
<path d="M57.1929,280.151h 453.543" fill="none" stroke="black"/>
<path d="M57.1929,272.68v 7.47068" fill="none" stroke="black"/>
<path d="M75.3318,276.415v 3.73534" fill="none" stroke="black"/>
<path d="M93.4707,276.415v 3.73534" fill="none" stroke="black"/>
<path d="M111.61,276.415v 3.73534" fill="none" stroke="black"/>
<path d="M129.749,276.415v 3.73534" fill="none" stroke="black"/>
<path d="M147.887,272.68v 7.47068" fill="none" stroke="black"/>
<path d="M166.026,276.415v 3.73534" fill="none" stroke="black"/>
<path d="M184.165,276.415v 3.73534" fill="none" stroke="black"/>
<path d="M202.304,276.415v 3.73534" fill="none" stroke="black"/>
<path d="M220.443,276.415v 3.73534" fill="none" stroke="black"/>
<path d="M238.582,272.68v 7.47068" fill="none" stroke="black"/>
<path d="M256.721,276.415v 3.73534" fill="none" stroke="black"/>
<path d="M274.86,276.415v 3.73534" fill="none" stroke="black"/>
<path d="M292.999,276.415v 3.73534" fill="none" stroke="black"/>
<path d="M311.138,276.415v 3.73534" fill="none" stroke="black"/>
<path d="M329.277,272.68v 7.47068" fill="none" stroke="black"/>
<path d="M347.415,276.415v 3.73534" fill="none" stroke="black"/>
<path d="M365.554,276.415v 3.73534" fill="none" stroke="black"/>
<path d="M383.693,276.415v 3.73534" fill="none" stroke="black"/>
<path d="M401.832,276.415v 3.73534" fill="none" stroke="black"/>
<path d="M419.971,272.68v 7.47068" fill="none" stroke="black"/>
<path d="M438.11,276.415v 3.73534" fill="none" stroke="black"/>
<path d="M456.249,276.415v 3.73534" fill="none" stroke="black"/>
<path d="M474.388,276.415v 3.73534" fill="none" stroke="black"/>
<path d="M492.527,276.415v 3.73534" fill="none" stroke="black"/>
<path d="M510.666,272.68v 7.47068" fill="none" stroke="black"/>
<path d="M510.666,272.68v 7.47068" fill="none" stroke="black"/>
<text xml:space="preserve" x="54.3523" y="290.27" fill="black" font-size="10.4952" font-family="Helvetica">0</text>
<text xml:space="preserve" x="139.569" y="290.27" fill="black" font-size="10.4952" font-family="Helvetica">500</text>
<text xml:space="preserve" x="227.449" y="290.27" fill="black" font-size="10.4952" font-family="Helvetica">1000</text>
<text xml:space="preserve" x="318.288" y="290.27" fill="black" font-size="10.4952" font-family="Helvetica">1500</text>
<text xml:space="preserve" x="408.831" y="290.27" fill="black" font-size="10.4952" font-family="Helvetica">2000</text>
<text xml:space="preserve" x="499.67" y="290.27" fill="black" font-size="10.4952" font-family="Helvetica">2500</text>
<text xml:space="preserve" x="265.323" y="301.218" fill="black" font-size="10.4952" font-family="Helvetica">Channel</text>
<path d="M57.1929,280.151v -249.023" fill="none" stroke="black"/>
<path d="M63.9961,280.151h -6.80315" fill="none" stroke="black"/>
<path d="M63.9961,277.431h -6.80315" fill="none" stroke="black"/>
<path d="M63.9961,275.131h -6.80315" fill="none" stroke="black"/>
<path d="M63.9961,273.139h -6.80315" fill="none" stroke="black"/>
<path d="M63.9961,271.382h -6.80315" fill="none" stroke="black"/>
<path d="M70.7992,269.811h -13.6063" fill="none" stroke="black"/>
<text xml:space="preserve" x="49.0263" y="273.404" fill="black" font-size="10.4952" font-family="Helvetica">1</text>
<path d="M63.9961,259.471h -6.80315" fill="none" stroke="black"/>
<path d="M63.9961,253.422h -6.80315" fill="none" stroke="black"/>
<path d="M63.9961,249.131h -6.80315" fill="none" stroke="black"/>
<path d="M63.9961,245.802h -6.80315" fill="none" stroke="black"/>
<path d="M63.9961,243.082h -6.80315" fill="none" stroke="black"/>
<path d="M63.9961,240.782h -6.80315" fill="none" stroke="black"/>
<path d="M63.9961,238.791h -6.80315" fill="none" stroke="black"/>
<path d="M63.9961,237.033h -6.80315" fill="none" stroke="black"/>
<path d="M70.7992,235.462h -13.6063" fill="none" stroke="black"/>
<text xml:space="preserve" x="41.629" y="239.081" fill="black" font-size="10.4952" font-family="Helvetica">10</text>
<path d="M63.9961,225.122h -6.80315" fill="none" stroke="black"/>
<path d="M63.9961,219.073h -6.80315" fill="none" stroke="black"/>
<path d="M63.9961,214.782h -6.80315" fill="none" stroke="black"/>
<path d="M63.9961,211.453h -6.80315" fill="none" stroke="black"/>
<path d="M63.9961,208.733h -6.80315" fill="none" stroke="black"/>
<path d="M63.9961,206.434h -6.80315" fill="none" stroke="black"/>
<path d="M63.9961,204.442h -6.80315" fill="none" stroke="black"/>
<path d="M63.9961,202.685h -6.80315" fill="none" stroke="black"/>
<path d="M70.7992,201.113h -13.6063" fill="none" stroke="black"/>
<text xml:space="preserve" x="49.0263" y="201.207" fill="black" font-size="7.16345" font-family="Helvetica">2</text>
<text xml:space="preserve" x="38.0783" y="205.645" fill="black" font-size="10.4952" font-family="Helvetica">10</text>
<path d="M63.9961,190.773h -6.80315" fill="none" stroke="black"/>
<path d="M63.9961,184.724h -6.80315" fill="none" stroke="black"/>
<path d="M63.9961,180.433h -6.80315" fill="none" stroke="black"/>
<path d="M63.9961,177.104h -6.80315" fill="none" stroke="black"/>
<path d="M63.9961,174.384h -6.80315" fill="none" stroke="black"/>
<path d="M63.9961,172.085h -6.80315" fill="none" stroke="black"/>
<path d="M63.9961,170.093h -6.80315" fill="none" stroke="black"/>
<path d="M63.9961,168.336h -6.80315" fill="none" stroke="black"/>
<path d="M70.7992,166.764h -13.6063" fill="none" stroke="black"/>
<text xml:space="preserve" x="49.0263" y="166.587" fill="black" font-size="7.16345" font-family="Helvetica">3</text>
<text xml:space="preserve" x="38.0783" y="171.321" fill="black" font-size="10.4952" font-family="Helvetica">10</text>
<path d="M63.9961,156.424h -6.80315" fill="none" stroke="black"/>
<path d="M63.9961,150.376h -6.80315" fill="none" stroke="black"/>
<path d="M63.9961,146.084h -6.80315" fill="none" stroke="black"/>
<path d="M63.9961,142.755h -6.80315" fill="none" stroke="black"/>
<path d="M63.9961,140.036h -6.80315" fill="none" stroke="black"/>
<path d="M63.9961,137.736h -6.80315" fill="none" stroke="black"/>
<path d="M63.9961,135.744h -6.80315" fill="none" stroke="black"/>
<path d="M63.9961,133.987h -6.80315" fill="none" stroke="black"/>
<path d="M70.7992,132.415h -13.6063" fill="none" stroke="black"/>
<text xml:space="preserve" x="49.0263" y="132.56" fill="black" font-size="7.16345" font-family="Helvetica">4</text>
<text xml:space="preserve" x="38.0783" y="136.998" fill="black" font-size="10.4952" font-family="Helvetica">10</text>
<path d="M63.9961,122.075h -6.80315" fill="none" stroke="black"/>
<path d="M63.9961,116.027h -6.80315" fill="none" stroke="black"/>
<path d="M63.9961,111.735h -6.80315" fill="none" stroke="black"/>
<path d="M63.9961,108.407h -6.80315" fill="none" stroke="black"/>
<path d="M63.9961,105.687h -6.80315" fill="none" stroke="black"/>
<path d="M63.9961,103.387h -6.80315" fill="none" stroke="black"/>
<path d="M63.9961,101.395h -6.80315" fill="none" stroke="black"/>
<path d="M63.9961,99.6384h -6.80315" fill="none" stroke="black"/>
<path d="M70.7992,98.0667h -13.6063" fill="none" stroke="black"/>
<text xml:space="preserve" x="49.0263" y="97.9403" fill="black" font-size="7.16345" font-family="Helvetica">5</text>
<text xml:space="preserve" x="38.0783" y="102.675" fill="black" font-size="10.4952" font-family="Helvetica">10</text>
<path d="M63.9961,87.7267h -6.80315" fill="none" stroke="black"/>
<path d="M63.9961,81.6782h -6.80315" fill="none" stroke="black"/>
<path d="M63.9961,77.3867h -6.80315" fill="none" stroke="black"/>
<path d="M63.9961,74.058h -6.80315" fill="none" stroke="black"/>
<path d="M63.9961,71.3382h -6.80315" fill="none" stroke="black"/>
<path d="M63.9961,69.0387h -6.80315" fill="none" stroke="black"/>
<path d="M63.9961,67.0467h -6.80315" fill="none" stroke="black"/>
<path d="M63.9961,65.2897h -6.80315" fill="none" stroke="black"/>
<path d="M70.7992,63.718h -13.6063" fill="none" stroke="black"/>
<text xml:space="preserve" x="49.0263" y="63.6168" fill="black" font-size="7.16345" font-family="Helvetica">6</text>
<text xml:space="preserve" x="38.0783" y="68.3511" fill="black" font-size="10.4952" font-family="Helvetica">10</text>
<path d="M63.9961,53.378h -6.80315" fill="none" stroke="black"/>
<path d="M63.9961,47.3294h -6.80315" fill="none" stroke="black"/>
<path d="M63.9961,43.0379h -6.80315" fill="none" stroke="black"/>
<path d="M63.9961,39.7092h -6.80315" fill="none" stroke="black"/>
<path d="M63.9961,36.9894h -6.80315" fill="none" stroke="black"/>
<path d="M63.9961,34.6899h -6.80315" fill="none" stroke="black"/>
<path d="M63.9961,32.6979h -6.80315" fill="none" stroke="black"/>
<g transform="rotate(-90,26.5385,191.442)">
<text xml:space="preserve" x="26.5385" y="191.442" fill="black" font-size="10.4952" font-family="Helvetica">Counts/Channel</text>
</g>
<text xml:space="preserve" x="404.097" y="63.6168" fill="black" font-size="14.7788" font-family="Helvetica" font-weight="bold"> = 2.4879 MeV</text>
<text xml:space="preserve" x="398.179" y="66.8716" fill="black" font-size="10.0192" font-family="Helvetica" font-weight="bold">p</text>
<text xml:space="preserve" x="389.006" y="63.6168" fill="black" font-size="14.7788" font-family="Helvetica" font-weight="bold">E</text>
<path d="M262.163,165.342v 25.7535" fill="none" stroke="black"/>
<path d="M264.454,191.096l -2.29122, 3.9685l -2.29122, -3.9685z" fill="black"/>
<path d="M264.454,191.096l -2.29122, 3.9685l -2.29122, -3.9685h 4.58243z" fill="none" stroke="black"/>
<text xml:space="preserve" x="266.803" y="163.332" fill="black" font-size="10.4952" font-family="Helvetica" font-weight="bold">_1 	1.369 MeV</text>
<text xml:space="preserve" x="260.293" y="163.332" fill="black" font-size="10.4952" font-family="Times">&#0945;</text>
<path d="M184.528,132.415v 30.3803" fill="none" stroke="black"/>
<path d="M186.819,162.796l -2.29122, 3.9685l -2.29122, -3.9685z" fill="black"/>
<path d="M186.819,162.796l -2.29122, 3.9685l -2.29122, -3.9685h 4.58243z" fill="none" stroke="black"/>
<text xml:space="preserve" x="172.117" y="129.601" fill="black" font-size="10.4952" font-family="Helvetica" font-weight="bold"># p_1 	0.844 MeV</text>
<path d="M210.104,150.376v 12.42" fill="none" stroke="black"/>
<path d="M212.395,162.796l -2.29122, 3.9685l -2.29122, -3.9685z" fill="black"/>
<path d="M212.395,162.796l -2.29122, 3.9685l -2.29122, -3.9685h 4.58243z" fill="none" stroke="black"/>
<text xml:space="preserve" x="197.564" y="145.875" fill="black" font-size="10.4952" font-family="Helvetica" font-weight="bold"># p_2 	1.015 MeV</text>
<path d="M497.785,269.811h 12.8809" fill="none" stroke="black"/>
<path d="M504.225,259.471h 6.44046" fill="none" stroke="black"/>
<path d="M504.225,253.422h 6.44046" fill="none" stroke="black"/>
<path d="M504.225,249.131h 6.44046" fill="none" stroke="black"/>
<path d="M504.225,245.802h 6.44046" fill="none" stroke="black"/>
<path d="M504.225,243.082h 6.44046" fill="none" stroke="black"/>
<path d="M504.225,240.782h 6.44046" fill="none" stroke="black"/>
<path d="M504.225,238.791h 6.44046" fill="none" stroke="black"/>
<path d="M504.225,237.033h 6.44046" fill="none" stroke="black"/>
<path d="M497.785,235.462h 12.8809" fill="none" stroke="black"/>
<path d="M504.225,225.122h 6.44046" fill="none" stroke="black"/>
<path d="M504.225,219.073h 6.44046" fill="none" stroke="black"/>
<path d="M504.225,214.782h 6.44046" fill="none" stroke="black"/>
<path d="M504.225,211.453h 6.44046" fill="none" stroke="black"/>
<path d="M504.225,208.733h 6.44046" fill="none" stroke="black"/>
<path d="M504.225,206.434h 6.44046" fill="none" stroke="black"/>
<path d="M504.225,204.442h 6.44046" fill="none" stroke="black"/>
<path d="M504.225,202.685h 6.44046" fill="none" stroke="black"/>
<path d="M497.785,201.113h 12.8809" fill="none" stroke="black"/>
<path d="M504.225,190.773h 6.44046" fill="none" stroke="black"/>
<path d="M504.225,184.724h 6.44046" fill="none" stroke="black"/>
<path d="M504.225,180.433h 6.44046" fill="none" stroke="black"/>
<path d="M504.225,177.104h 6.44046" fill="none" stroke="black"/>
<path d="M504.225,174.384h 6.44046" fill="none" stroke="black"/>
<path d="M504.225,172.085h 6.44046" fill="none" stroke="black"/>
<path d="M504.225,170.093h 6.44046" fill="none" stroke="black"/>
<path d="M504.225,168.336h 6.44046" fill="none" stroke="black"/>
<path d="M497.785,166.764h 12.8809" fill="none" stroke="black"/>
<path d="M504.225,156.424h 6.44046" fill="none" stroke="black"/>
<path d="M504.225,150.376h 6.44046" fill="none" stroke="black"/>
<path d="M504.225,146.084h 6.44046" fill="none" stroke="black"/>
<path d="M504.225,142.755h 6.44046" fill="none" stroke="black"/>
<path d="M504.225,140.036h 6.44046" fill="none" stroke="black"/>
<path d="M504.225,137.736h 6.44046" fill="none" stroke="black"/>
<path d="M504.225,135.744h 6.44046" fill="none" stroke="black"/>
<path d="M504.225,133.987h 6.44046" fill="none" stroke="black"/>
<path d="M497.785,132.415h 12.8809" fill="none" stroke="black"/>
<path d="M504.225,122.075h 6.44046" fill="none" stroke="black"/>
<path d="M504.225,116.027h 6.44046" fill="none" stroke="black"/>
<path d="M504.225,111.735h 6.44046" fill="none" stroke="black"/>
<path d="M504.225,108.407h 6.44046" fill="none" stroke="black"/>
<path d="M504.225,105.687h 6.44046" fill="none" stroke="black"/>
<path d="M504.225,103.387h 6.44046" fill="none" stroke="black"/>
<path d="M504.225,101.395h 6.44046" fill="none" stroke="black"/>
<path d="M504.225,99.6384h 6.44046" fill="none" stroke="black"/>
<path d="M497.785,98.0667h 12.8809" fill="none" stroke="black"/>
<path d="M504.225,87.7267h 6.44046" fill="none" stroke="black"/>
<path d="M504.225,81.6782h 6.44046" fill="none" stroke="black"/>
<path d="M504.225,77.3867h 6.44046" fill="none" stroke="black"/>
<path d="M504.225,74.058h 6.44046" fill="none" stroke="black"/>
<path d="M504.225,71.3382h 6.44046" fill="none" stroke="black"/>
<path d="M504.225,69.0387h 6.44046" fill="none" stroke="black"/>
<path d="M504.225,67.0467h 6.44046" fill="none" stroke="black"/>
<path d="M504.225,65.2897h 6.44046" fill="none" stroke="black"/>
<path d="M497.785,63.718h 12.8809" fill="none" stroke="black"/>
<path d="M504.225,53.378h 6.44046" fill="none" stroke="black"/>
<path d="M504.225,47.3294h 6.44046" fill="none" stroke="black"/>
<path d="M504.225,43.0379h 6.44046" fill="none" stroke="black"/>
<path d="M504.225,39.7092h 6.44046" fill="none" stroke="black"/>
<path d="M504.225,36.9894h 6.44046" fill="none" stroke="black"/>
<path d="M504.225,34.6899h 6.44046" fill="none" stroke="black"/>
<path d="M57.1929,41.5334v -7.46952" fill="none" stroke="black"/>
<path d="M75.3318,41.5334v -7.46952" fill="none" stroke="black"/>
<path d="M93.4707,41.5334v -7.46952" fill="none" stroke="black"/>
<path d="M111.61,41.5334v -7.46952" fill="none" stroke="black"/>
<path d="M129.749,41.5334v -7.46952" fill="none" stroke="black"/>
<path d="M147.887,41.5334v -7.46952" fill="none" stroke="black"/>
<path d="M166.026,41.5334v -7.46952" fill="none" stroke="black"/>
<path d="M184.165,41.5334v -7.46952" fill="none" stroke="black"/>
<path d="M202.304,41.5334v -7.46952" fill="none" stroke="black"/>
<path d="M220.443,41.5334v -7.46952" fill="none" stroke="black"/>
<path d="M238.582,41.5334v -7.46952" fill="none" stroke="black"/>
<path d="M256.721,41.5334v -7.46952" fill="none" stroke="black"/>
<path d="M274.86,41.5334v -7.46952" fill="none" stroke="black"/>
<path d="M292.999,41.5334v -7.46952" fill="none" stroke="black"/>
<path d="M311.138,41.5334v -7.46952" fill="none" stroke="black"/>
<path d="M329.277,41.5334v -7.46952" fill="none" stroke="black"/>
<path d="M347.415,41.5334v -7.46952" fill="none" stroke="black"/>
<path d="M365.554,41.5334v -7.46952" fill="none" stroke="black"/>
<path d="M383.693,41.5334v -7.46952" fill="none" stroke="black"/>
<path d="M401.832,41.5334v -7.46952" fill="none" stroke="black"/>
<path d="M419.971,41.5334v -7.46952" fill="none" stroke="black"/>
<path d="M438.11,41.5334v -7.46952" fill="none" stroke="black"/>
<path d="M456.249,41.5334v -7.46952" fill="none" stroke="black"/>
<path d="M474.388,41.5334v -7.46952" fill="none" stroke="black"/>
<path d="M492.527,41.5334v -7.46952" fill="none" stroke="black"/>
<path d="M510.666,41.5334v -7.46952" fill="none" stroke="black"/></svg>
