<?xml version="1.0" standalone="no"?>
<svg width="567.429" height="311.778" viewBox="0 0 567.429 311.778" xmlns="http://www.w3.org/2000/svg" shape-rendering="crispEdges">
<title>
Yields/P1/run_0101/det0_Fit.svg
</title>
<desc>
Creator: ROOT Version 6.12/06
CreationDate: Mon Apr 15 10:29:01 2019</desc>
<defs>
</defs>
<rect x="0.5" y="0" width="566.929" height="311.278" fill="white"/>
<rect x="57.1929" y="31.1278" width="453.543" height="249.023" fill="white"/>
<rect x="57.1929" y="31.1278" width="453.543" height="249.023" fill="none" stroke="black"/>
<path d="M57.1929,40.8949h 0.181345v 239.256h 21.7614v -10.5933h 0.181345v 10.5933h 2.72017v -10.5933h 0.181345v 10.5933h 0.906724v -10.5933h 0.181345v 10.5933h 0.906724v -10.5933h 0.181345v 10.5933h 0.544034v -10.5933h 0.181345v 10.5933h 1.45076v
 -10.5933h 0.181345v 10.5933h 0.36269v -21.1867h 0.181345v 21.1867h 0.544034v -10.5933h 0.36269v 10.5933h 0.36269v -10.5933h 0.181345v -10.5933h 0.181345v -16.79h 0.181345v -21.1867h 0.181345v -14.2563h 0.181345v -9.28631h 0.181345v -7.99678h
 0.181345v -7.5624h 0.181345v -4.67751h 0.181345v -0.358771h 0.181345v -3.94684h 0.181345v -2.72696h 0.181345v 1.567h 0.181345v -1.65838h 0.181345v -1.43383h 0.36269v -1.02259h 0.181345v -0.401955h 0.181345v -0.0188795h 0.181345v -1.02168h 0.181345v
 -0.366181h 0.181345v -0.307034h 0.181345v 0.255431h 0.181345v -0.423378h 0.181345v 0.117368h 0.181345v -0.382302h 0.181345v 0.131893h 0.181345v -0.790535h 0.181345v 0.0946316h 0.181345v 0.92949h 0.181345v -1.31998h 0.181345v 0.295859h 0.181345v
 1.15922h 0.181345v -1.79065h 0.181345v 0.615711h 0.181345v 1.41427h 0.181345v -2.04506h 0.181345v 0.427951h 0.181345v -0.215473h 0.181345v 0.339979h 0.181345v 0.315775h 0.181345v -0.625157h 0.181345v 0.04601h 0.181345v 0.0615629h 0.181345v 0.422165h
 0.181345v -0.15772h 0.181345v 0.126046h 0.181345v -1.17209h 0.181345v -0.419133h 0.181345v 0.625663h 0.181345v 1.81122h 0.181345v -0.924556h 0.181345v 0.398639h 0.181345v -0.128699h 0.181345v 0.405838h 0.181345v 0.383135h 0.181345v -0.0168593h
 0.181345v 0.0337372h 0.181345v -0.167946h 0.181345v 0.596068h 0.181345v -0.0173571h 0.181345v 0.192021h 0.181345v -1.01924h 0.181345v -0.847051h 0.181345v -1.05131h 0.181345v -2.16183h 0.181345v -2.7275h 0.181345v -2.97843h 0.181345v -3.9656h
 0.181345v -3.25967h 0.181345v -3.55771h 0.181345v -3.37599h 0.181345v -2.72907h 0.181345v -1.64867h 0.181345v -1.66248h 0.181345v -0.480443h 0.181345v -0.658094h 0.181345v 0.586532h 0.181345v 1.29616h 0.181345v 2.37573h 0.181345v 2.26489h 0.181345v
 3.34463h 0.181345v 3.46979h 0.181345v 3.8614h 0.181345v 4.57855h 0.181345v 4.42046h 0.181345v 4.29366h 0.181345v 5.04158h 0.181345v 1.9407h 0.181345v 1.00463h 0.181345v 2.99012h 0.181345v 0.661703h 0.181345v 0.272917h 0.181345v 1.29229h 0.181345v
 -1.08435h 0.181345v 1.4636h 0.181345v -1.21738h 0.181345v 0.875636h 0.181345v 0.303394h 0.181345v 2.09008h 0.181345v -2.09008h 0.181345v -0.076415h 0.181345v 1.77627h 0.181345v -2.55637h 0.181345v 0.818261h 0.181345v 1.99715h 0.181345v -1.53164h
 0.181345v 0.808811h 0.181345v -0.0828347h 0.181345v -0.882726h 0.181345v 1.04885h 0.181345v 0.295128h 0.181345v 0.741402h 0.181345v 0.316055h 0.181345v -0.972077h 0.181345v 0.390224h 0.181345v -1.42465h 0.181345v 1.46863h 0.181345v 0.132704h
 0.181345v -0.652288h 0.181345v 0.214351h 0.181345v -0.799016h 0.181345v 0.972688h 0.181345v 0.992163h 0.181345v 0.329691h 0.181345v -0.376215h 0.181345v 0.471734h 0.181345v 1.0921h 0.181345v -0.555805h 0.181345v -0.0989192h 0.181345v 0.14862h
 0.181345v 1.62682h 0.181345v -1.06917h 0.181345v 0.740496h 0.181345v 0.0542912h 0.181345v -0.586852h 0.181345v 1.08435h 0.181345v -0.223113h 0.181345v -0.274387h 0.181345v -0.534424h 0.181345v 0.426033h 0.181345v 0.10839h 0.181345v 1.48384h
 0.181345v -1.48384h 0.181345v 0.274387h 0.181345v -1.01746h 0.181345v 0.634678h 0.181345v 0.662181h 0.181345v 0.633283h 0.181345v -2.03341h 0.181345v 2.45051h 0.181345v -1.71257h 0.181345v 0.438251h 0.181345v 0.916107h 0.36269v 0.297923h 0.181345v
 -0.17945h 0.181345v -0.754151h 0.181345v 0.6948h 0.181345v 0.118934h 0.181345v 0.059816h 0.181345v -0.98634h 0.181345v 0.98634h 0.181345v -0.645442h 0.181345v 1.25684h 0.181345v 1.09904h 0.181345v -0.591672h 0.181345v -0.877132h 0.181345v 0.122264h
 0.181345v 1.61704h 0.181345v 0.555805h 0.181345v -0.893191h 0.181345v -0.589138h 0.181345v -0.380508h 0.181345v 0.509479h 0.181345v -0.571986h 0.181345v 2.1391h 0.181345v -0.837632h 0.181345v -2.2683h 0.181345v 1.0921h 0.181345v 0.707969h 0.181345v
 -0.261254h 0.181345v -2.61274h 0.181345v 0.783913h 0.181345v 0.40757h 0.181345v -3.13642h 0.181345v -0.519718h 0.181345v 0.761925h 0.181345v -2.72117h 0.181345v 0.540678h 0.181345v -0.458732h 0.181345v -1.81832h 0.181345v 0.183471h 0.181345v
 2.26387h 0.181345v -1.31194h 0.181345v 0.641899h 0.181345v 0.373279h 0.181345v 1.08744h 0.181345v 0.550797h 0.181345v 0.235489h 0.181345v 1.7586h 0.181345v 1.80673h 0.181345v 1.18339h 0.181345v 0.797553h 0.181345v 0.0683803h 0.181345v 0.346567h
 0.181345v 0.354609h 0.181345v -0.424554h 0.181345v 3.16798h 0.181345v -1.70438h 0.181345v 0.467882h 0.181345v -1.29015h 0.181345v 1.05442h 0.181345v -2.10883h 0.181345v 1.12737h 0.181345v -0.783913h 0.181345v 1.6876h 0.181345v 0.15595h 0.181345v
 0.316757h 0.181345v -3.29786h 0.181345v 1.63173h 0.181345v 0.436686h 0.181345v 1.14964h 0.181345v -0.0793922h 0.181345v -2.13942h 0.181345v 1.51871h 0.181345v -1.44971h 0.181345v 1.67953h 0.181345v 0.955496h 0.181345v -2.21437h 0.181345v 2.29676h
 0.181345v -0.804552h 0.181345v -0.233332h 0.181345v 0.0773822h 0.181345v 0.472707h 0.181345v 1.07729h 0.181345v -0.753833h 0.181345v -3.02965h 0.181345v 1.85043h 0.181345v 1.01663h 0.181345v -2.11135h 0.181345v 1.32339h 0.181345v -1.4636h 0.181345v
 0.935249h 0.181345v -0.510695h 0.181345v -0.701176h 0.181345v 0.990909h 0.181345v -0.217813h 0.181345v -2.76236h 0.181345v -0.532149h 0.181345v -0.681881h 0.181345v 2.14431h 0.181345v -0.190642h 0.181345v -0.859509h 0.36269v 0.119867h 0.181345v
 1.85281h 0.181345v -0.533957h 0.181345v -0.260142h 0.181345v -0.255788h 0.181345v 1.32403h 0.181345v 0.926524h 0.36269v 1.7085h 0.181345v -1.85475h 0.181345v -0.641337h 0.181345v 1.54059h 0.181345v -0.605345h 0.181345v -1.21187h 0.181345v 2.60926h
 0.181345v 1.35938h 0.181345v -1.91809h 0.181345v 1.91809h 0.181345v -1.19593h 0.36269v -0.405407h 0.181345v 0.653916h 0.181345v -0.493042h 0.181345v 1.26377h 0.181345v -2.43098h 0.181345v 0.6114h 0.181345v -0.536299h 0.181345v 4.62418h 0.181345v
 -2.95529h 0.181345v -2.187h 0.181345v 5.45105h 0.181345v -4.23988h 0.181345v 1.75092h 0.181345v 0.723589h 0.181345v -0.456242h 0.181345v -1.45662h 0.181345v 0.583072h 0.181345v -0.906533h 0.181345v 0.653916h 0.181345v -1.50967h 0.181345v 2.5462h
 0.181345v -0.265797h 0.181345v -1.74141h 0.181345v -0.689574h 0.181345v 0.847132h 0.181345v -0.313508h 0.181345v 0.960502h 0.181345v -0.567602h 0.181345v 1.50446h 0.181345v -1.74141h 0.181345v 0.396982h 0.181345v 1.43251h 0.181345v -0.775077h
 0.181345v -1.21037h 0.181345v 1.21037h 0.181345v -0.896858h 0.181345v -0.467882h 0.181345v -0.528352h 0.181345v 1.89309h 0.181345v -1.13259h 0.181345v -1.62581h 0.181345v 4.16472h 0.181345v -2.46074h 0.181345v -1.05964h 0.181345v 1.61835h 0.181345v
 -0.792041h 0.181345v 0.87355h 0.181345v -0.950542h 0.181345v -0.379249h 0.181345v 0.150572h 0.181345v 1.67762h 0.181345v -0.901669h 0.181345v 0.817465h 0.181345v -1.44135h 0.181345v 0.230981h 0.181345v -0.83039h 0.181345v 2.55308h 0.181345v
 -1.40918h 0.181345v -0.313508h 0.181345v -0.154375h 0.181345v -0.152831h 0.181345v -0.449531h 0.181345v -0.508269h 0.181345v 1.26501h 0.181345v 0.3929h 0.181345v -0.623881h 0.181345v -1.732h 0.181345v 0.485214h 0.181345v 2.19242h 0.181345v 1.1827h
 0.181345v -2.87399h 0.36269v 5.87267h 0.181345v -2.46238h 0.181345v -1.88072h 0.181345v -1.67443h 0.36269v 2.93128h 0.181345v 1.56178h 0.181345v -2.32822h 0.181345v 1.94612h 0.181345v -2.35588h 0.181345v 0.0810769h 0.181345v 1.90203h 0.181345v
 -1.40632h 0.181345v -0.896858h 0.181345v 1.32259h 0.181345v 3.58397h 0.181345v -2.96728h 0.181345v -0.355434h 0.181345v 0.811675h 0.181345v 3.52652h 0.181345v -3.15145h 0.181345v -0.282155h 0.181345v 0.86259h 0.181345v 0.198483h 0.181345v -0.394421h
 0.181345v -0.851903h 0.181345v 0.18525h 0.181345v 0.377376h 0.181345v 2.94001h 0.181345v -3.22391h 0.181345v 4.30316h 0.181345v 0.12476h 0.181345v -0.733723h 0.181345v -2.62638h 0.181345v 0.40757h 0.181345v 0.958828h 0.181345v -1.26552h 0.181345v
 1.37587h 0.181345v -0.86124h 0.181345v 0.210803h 0.181345v -0.725429h 0.181345v 0.831931h 0.181345v 1.45662h 0.181345v 1.87373h 0.181345v -3.2231h 0.181345v 1.34937h 0.181345v 1.48015h 0.181345v -1.94331h 0.181345v -2.32326h 0.181345v 2.20963h
 0.181345v 1.92797h 0.181345v -1.46829h 0.181345v 0.473928h 0.181345v -1.37985h 0.181345v 1.37985h 0.181345v -0.473928h 0.181345v 1.08778h 0.181345v -0.852657h 0.181345v -0.118016h 0.181345v -0.348676h 0.181345v -0.564011h 0.181345v 1.2695h 0.181345v
 -0.590149h 0.181345v 0.116221h 0.181345v -1.44601h 0.181345v 2.28529h 0.181345v 0.888057h 0.181345v -2.74281h 0.181345v 4.39663h 0.181345v -0.430534h 0.181345v -1.22329h 0.181345v -2.41176h 0.181345v 2.80874h 0.181345v -2.47036h 0.181345v -2.02649h
 0.181345v 4.23105h 0.181345v -0.770733h 0.181345v 1.72198h 0.181345v -3.93402h 0.181345v 1.719h 0.181345v -1.719h 0.181345v 5.25107h 0.181345v -2.2683h 0.181345v -0.390224h 0.181345v -2.37421h 0.181345v 1.37985h 0.181345v 3.20114h 0.181345v
 -3.32101h 0.181345v 0.485214h 0.181345v -0.955496h 0.181345v 1.97474h 0.181345v -0.390224h 0.181345v 0.128971h 0.181345v -0.256863h 0.181345v -0.623881h 0.181345v 1.81536h 0.181345v -1.06359h 0.181345v 1.48233h 0.181345v -1.73705h 0.181345v
 -0.125786h 0.181345v 0.125786h 0.181345v 0.254722h 0.181345v -1.69986h 0.181345v 1.57197h 0.36269v 2.48377h 0.181345v -2.86115h 0.181345v -0.845913h 0.181345v 1.74141h 0.181345v 0.132321h 0.181345v 0.541046h 0.181345v -2.29676h 0.181345v -0.466692h
 0.181345v 2.35588h 0.181345v 0.134653h 0.181345v -1.66422h 0.181345v 0.87355h 0.181345v 0.259039h 0.181345v 0.667484h 0.181345v -0.403978h 0.181345v -1.15156h 0.181345v 0.248509h 0.181345v -2.42729h 0.181345v 0.433588h 0.181345v 1.02303h 0.181345v
 -1.77393h 0.181345v -0.815285h 0.181345v 2.4721h 0.181345v 1.85852h 0.181345v -2.65409h 0.181345v -1.06917h 0.181345v -0.902207h 0.181345v -0.479129h 0.181345v 0.479129h 0.181345v 0.294857h 0.181345v 0.300658h 0.181345v -1.99007h 0.181345v 1.01005h
 0.181345v -0.741137h 0.181345v -1.6283h 0.181345v 1.35938h 0.181345v 1.68941h 0.181345v -0.391892h 0.181345v -2.97865h 0.181345v 2.132h 0.181345v 0.184134h 0.181345v -0.723589h 0.181345v 1.19387h 0.181345v -2.21881h 0.181345v 3.1036h 0.181345v
 -0.884791h 0.181345v 0.0958183h 0.181345v -2.47896h 0.181345v 2.09924h 0.181345v -0.821372h 0.181345v 1.68941h 0.181345v -2.96728h 0.181345v 3.78256h 0.181345v -0.815285h 0.181345v -0.0989192h 0.181345v -1.04784h 0.181345v -1.32212h 0.181345v
 -0.251232h 0.181345v 1.57335h 0.181345v -1.49006h 0.181345v -0.248509h 0.181345v -1.03249h 0.181345v -2.21258h 0.181345v 0.472359h 0.181345v -1.43792h 0.181345v -2.83831h 0.181345v -2.87251h 0.181345v -0.835342h 0.181345v -1.87216h 0.181345v
 -2.33017h 0.181345v -0.605345h 0.181345v -1.28025h 0.181345v -1.87268h 0.181345v -1.16188h 0.181345v -0.3101h 0.181345v -0.580844h 0.181345v -1.23627h 0.181345v -0.741022h 0.181345v -0.0740096h 0.181345v -0.382778h 0.181345v 1.41348h 0.181345v
 0.727898h 0.181345v 0.0622525h 0.181345v 0.636882h 0.181345v 0.869725h 0.181345v 2.62208h 0.181345v 1.91286h 0.181345v 1.22072h 0.181345v 0.406666h 0.181345v 2.13426h 0.181345v 1.44873h 0.181345v 2.34141h 0.181345v 2.28855h 0.181345v 1.03344h
 0.181345v 1.51964h 0.181345v 3.94039h 0.181345v 2.22162h 0.181345v -0.908166h 0.181345v 1.76338h 0.181345v -0.109556h 0.181345v 0.899257h 0.181345v 0.832741h 0.181345v -0.481393h 0.181345v 1.4922h 0.181345v 1.50896h 0.181345v -0.977326h 0.181345v
 -0.918566h 0.181345v 1.75239h 0.181345v 1.34278h 0.181345v -0.460828h 0.181345v 1.93305h 0.181345v -1.31547h 0.181345v 0.158374h 0.36269v 1.1571h 0.181345v -1.47222h 0.181345v 0.636882h 0.181345v 0.328678h 0.181345v -2.01998h 0.181345v 2.69933h
 0.181345v -3.82152h 0.181345v 1.71578h 0.181345v 0.152071h 0.181345v 0.623881h 0.181345v -1.94093h 0.181345v 1.31705h 0.181345v 1.61022h 0.181345v -2.35588h 0.181345v -0.430534h 0.181345v 2.12183h 0.181345v -0.480133h 0.181345v -1.21117h 0.181345v
 -0.430534h 0.181345v 3.30453h 0.181345v -3.01886h 0.181345v -1.50896h 0.181345v 3.1834h 0.181345v -0.935984h 0.181345v 1.93305h 0.181345v -1.31547h 0.181345v 0.158374h 0.181345v 1.32979h 0.181345v 2.04076h 0.181345v -1.14676h 0.181345v 1.75411h
 0.181345v -2.11801h 0.181345v -2.17501h 0.181345v -2.96728h 0.181345v 3.76762h 0.181345v -0.325182h 0.181345v 2.81862h 0.181345v -0.192241h 0.181345v -1.28196h 0.181345v 0.176684h 0.181345v 0.542647h 0.181345v -2.38216h 0.181345v -0.15675h 0.181345v
 4.50096h 0.181345v 3.51533h 0.181345v -8.01629h 0.181345v 4.50096h 0.181345v -2.85604h 0.181345v 1.84355h 0.181345v 1.22329h 0.181345v -5.02051h 0.181345v 2.30502h 0.181345v 2.71549h 0.181345v -2.71549h 0.181345v 0.542647h 0.181345v 3.27282h
 0.36269v -3.63671h 0.181345v 0.180866h 0.181345v -0.536299h 0.181345v 3.54262h 0.181345v -4.22961h 0.181345v -0.167029h 0.181345v 3.32746h 0.181345v -1.19148h 0.181345v 0.98634h 0.181345v 0.837632h 0.181345v 0.216783h 0.181345v -3.32271h 0.181345v
 -3.30453h 0.181345v 5.17062h 0.36269v -0.96151h 0.181345v -0.549147h 0.181345v -1.37468h 0.181345v 3.28754h 0.181345v -1.17619h 0.181345v 0.773986h 0.181345v -0.391892h 0.36269v -0.754868h 0.181345v 1.96204h 0.181345v -0.207935h 0.181345v -2.47344h
 0.181345v -6.37137h 0.181345v 1.07925h 0.181345v -2.08728h 0.181345v 1.84077h 0.181345v -2.05603h 0.181345v -4.81826h 0.181345v -0.6114h 0.181345v -3.41029h 0.181345v -1.64614h 0.181345v -1.91919h 0.181345v -1.27432h 0.181345v -2.52955h 0.181345v
 -0.863267h 0.181345v -2.56921h 0.181345v -0.693486h 0.181345v -1.98415h 0.181345v 0.789137h 0.181345v -2.05055h 0.181345v -1.05898h 0.181345v -1.03024h 0.181345v 1.11574h 0.181345v -1.81674h 0.181345v 1.41481h 0.181345v -0.852657h 0.181345v 2.45824h
 0.181345v 0.328174h 0.181345v 2.15969h 0.181345v -0.0816545h 0.181345v 1.57106h 0.181345v 1.88681h 0.181345v 1.02042h 0.181345v 0.405603h 0.181345v 1.5729h 0.181345v 2.81128h 0.181345v 2.65753h 0.181345v 2.71549h 0.181345v 1.17619h 0.181345v
 1.78098h 0.181345v 2.8208h 0.181345v 3.72327h 0.181345v 0.536299h 0.181345v 3.51298h 0.181345v 0.702789h 0.181345v -2.33017h 0.181345v 3.44894h 0.181345v 3.45873h 0.181345v 1.00252h 0.181345v 0.261254h 0.181345v 1.66889h 0.181345v -3.87345h
 0.181345v 1.18532h 0.181345v 5.95217h 0.181345v -2.04076h 0.36269v -0.926524h 0.181345v 5.32316h 0.181345v -1.22329h 0.181345v 1.65382h 0.181345v -4.50541h 0.181345v 2.08728h 0.181345v 1.56886h 0.36269v -1.56886h 0.181345v 1.16129h 0.181345v
 -1.52957h 0.181345v -3.55516h 0.181345v 3.19554h 0.181345v 2.29676h 0.181345v -0.804552h 0.181345v -2.187h 0.181345v 1.05442h 0.181345v -1.39032h 0.181345v 2.52291h 0.181345v -3.48847h 0.181345v -1.19928h 0.181345v 4.30082h 0.181345v 0.386931h
 0.181345v 1.65382h 0.181345v -1.65382h 0.181345v 1.65382h 0.181345v -3.49738h 0.181345v 0.351348h 0.181345v 1.10527h 0.181345v -2.46465h 0.181345v 2.85159h 0.36269v -0.386931h 0.181345v 1.61022h 0.181345v -3.7462h 0.181345v 4.61975h 0.181345v
 -5.27018h 0.181345v 4.82717h 0.181345v -5.75369h 0.181345v 7.12323h 0.181345v -4.86692h 0.181345v -2.84419h 0.181345v -0.841476h 0.181345v 3.34222h 0.181345v 4.28384h 0.181345v -2.09684h 0.181345v 3.02336h 0.181345v -3.41029h 0.181345v -1.45662h
 0.181345v -0.343452h 0.181345v -0.98634h 0.181345v 3.57033h 0.181345v -6.19671h 0.181345v 3.61272h 0.181345v -1.61022h 0.181345v 1.27432h 0.36269v -2.45051h 0.181345v 4.58649h 0.181345v -3.10154h 0.181345v -1.19928h 0.181345v 2.16484h 0.181345v
 4.17673h 0.181345v -4.50541h 0.181345v -0.945639h 0.181345v 4.60178h 0.181345v -6.60428h 0.181345v 5.41279h 0.181345v -4.0097h 0.181345v 0.599409h 0.181345v 3.79723h 0.181345v -2.52291h 0.181345v 0.335903h 0.181345v 0.6948h 0.181345v 3.58904h
 0.181345v -2.48377h 0.181345v -4.0097h 0.181345v 2.55308h 0.36269v 0.710964h 0.181345v 0.745658h 0.181345v -2.13598h 0.181345v 2.13598h 0.181345v -3.10154h 0.181345v 0.636882h 0.181345v 1.719h 0.181345v -0.710964h 0.181345v -0.343452h 0.181345v
 1.80007h 0.181345v -2.78641h 0.181345v -0.315124h 0.181345v 0.965561h 0.181345v 0.679355h 0.181345v -0.679355h 0.181345v 5.07599h 0.181345v -3.31739h 0.181345v -3.63233h 0.181345v 8.92445h 0.181345v -7.37941h 0.181345v 1.35938h 0.181345v 4.51557h
 0.181345v -3.78767h 0.181345v -3.33556h 0.181345v 7.12323h 0.181345v 1.50446h 0.181345v -4.13084h 0.181345v -4.19421h 0.181345v 11.2172h 0.181345v -8.9122h 0.181345v 0.359616h 0.181345v 2.35588h 0.181345v -0.418737h 0.181345v 0.418737h 0.181345v
 -3.41029h 0.181345v -0.664581h 0.181345v 1.35938h 0.181345v 2.71549h 0.181345v -3.06684h 0.181345v 4.86692h 0.181345v -5.21037h 0.181345v 3.84083h 0.181345v 0.899257h 0.181345v -2.55308h 0.181345v -0.386931h 0.181345v 2.48377h 0.181345v -2.86115h
 0.181345v 1.56886h 0.181345v 4.25957h 0.181345v -3.84083h 0.181345v -4.71176h 0.181345v 1.64492h 0.181345v 4.39663h 0.181345v -4.04529h 0.181345v 1.88919h 0.181345v -0.396982h 0.181345v -0.764307h 0.181345v 2.86115h 0.181345v -3.58904h 0.181345v
 1.4922h 0.181345v -2.187h 0.181345v 2.187h 0.181345v -0.764307h 0.181345v 4.77401h 0.181345v 3.41029h 0.181345v -2.89218h 0.181345v -3.30453h 0.181345v 2.78641h 0.181345v -2.78641h 0.181345v 2.28529h 0.181345v 0.501126h 0.181345v -4.0097h 0.181345v
 5.06412h 0.181345v 1.732h 0.181345v -5.99156h 0.181345v 3.20515h 0.181345v -3.61272h 0.181345v 1.69986h 0.181345v 0.456242h 0.181345v 8.43724h 0.181345v -9.3365h 0.181345v 3.41029h 0.181345v -0.536299h 0.181345v -1.50446h 0.181345v 4.39663h
 0.181345v -4.39663h 0.181345v 9.66682h 0.181345v -9.1816h 0.725379v 0.501126h 0.181345v 7.80693h 0.181345v -8.79327h 0.181345v 14.99h 0.181345v -7.02301h 0.181345v -1.52957h 0.181345v 0.745658h 0.181345v 3.41029h 0.181345v -2.62638h 0.181345v
 -6.4625h 0.181345v 2.2683h 0.181345v 2.66464h 0.181345v 4.15595h 0.181345v 2.04076h 0.181345v -1.05442h 0.181345v -5.85326h 0.36269v 2.24054h 0.181345v -5.92621h 0.181345v 3.68567h 0.181345v 2.24054h 0.181345v 5.79973h 0.181345v -4.97342h 0.181345v
 1.80007h 0.181345v -0.926524h 0.181345v 0.926524h 0.181345v -8.55259h 0.181345v 4.39663h 0.181345v 6.19671h 0.181345v -5.45105h 0.181345v -0.745658h 0.181345v 2.35588h 0.181345v 6.19671h 0.181345v -2.35588h 0.181345v 1.13259h 0.181345v -2.187h
 0.36269v -1.91286h 0.181345v 6.65295h 0.181345v -4.74009h 0.181345v 3.41029h 0.181345v -5.32316h 0.181345v 2.96728h 0.181345v 5.14229h 0.181345v 1.61022h 0.181345v -5.61992h 0.181345v 4.0097h 0.181345v -2.78641h 0.181345v 6.19671h 0.181345v
 -3.41029h 0.181345v 5.45105h 0.181345v -10.5933h 0.181345v 5.14229h 0.36269v -5.14229h 0.181345v 15.7356h 0.181345v -10.5933h 0.181345v 1.61022h 0.181345v -4.39663h 0.181345v -3.41029h 0.181345v 1.05442h 0.181345v 5.14229h 0.181345v -8.10957h
 0.181345v 4.09987h 0.181345v 1.22329h 0.36269v -1.22329h 0.181345v 1.22329h 0.181345v -3.41029h 0.181345v 1.05442h 0.181345v -6.90767h 0.181345v 6.90767h 0.181345v -2.96728h 0.181345v -2.48377h 0.36269v -3.41029h 0.181345v 0.623881h 0.181345v -7.42h
 0.181345v 8.07043h 0.36269v -2.45051h 0.181345v -3.06684h 0.181345v -3.68567h 0.181345v 0.745658h 0.181345v 0.783913h 0.181345v 1.25684h 0.181345v 3.41029h 0.181345v -0.536299h 0.181345v -1.97474h 0.36269v -0.456242h 0.181345v 0.456242h 0.181345v
 0.470282h 0.36269v 3.77275h 0.181345v 5.89406h 0.181345v -7.07026h 0.181345v -0.555805h 0.181345v 3.68567h 0.181345v 3.94039h 0.36269v -2.48377h 0.36269v 5.45105h 0.181345v 3.68567h 0.181345v -7.5265h 0.181345v 10.5933h 0.181345v -1.61022h 0.181345v
 1.61022h 0.181345v -1.61022h 0.181345v -8.10957h 0.181345v 4.09987h 0.181345v -4.09987h 0.181345v 1.91286h 0.181345v 4.74009h 0.544034v -8.35281h 0.181345v -2.91989h 0.181345v 11.2727h 0.181345v -16.79h 0.181345v 6.19671h 0.181345v -1.95367h
 0.181345v -7.18305h 0.181345v 1.19148h 0.181345v 2.21881h 0.181345v -8.27721h 0.181345v -2.31613h 0.181345v 1.2432h 0.181345v -3.25408h 0.181345v -0.413078h 0.181345v 0.837632h 0.181345v -6.55132h 0.181345v 2.7584h 0.181345v -4.35459h 0.181345v
 0.254722h 0.181345v -2.04076h 0.181345v 0.926524h 0.181345v -1.90584h 0.181345v 0.105765h 0.181345v 0.98634h 0.181345v -0.11279h 0.181345v -3.41029h 0.181345v 3.63671h 0.181345v -0.886217h 0.181345v -1.91919h 0.181345v -1.53409h 0.181345v 3.13377h
 0.181345v -1.01924h 0.181345v -2.11453h 0.181345v 0.172691h 0.181345v 3.3886h 0.181345v -2.8585h 0.181345v -0.355434h 0.181345v -1.34442h 0.181345v -0.239425h 0.181345v -1.07024h 0.181345v -1.06917h 0.181345v -0.0686876h 0.181345v -0.271704h
 0.181345v -2.93159h 0.181345v 1.57938h 0.181345v 1.48747h 0.181345v -2.67278h 0.181345v 0.819972h 0.181345v -1.21403h 0.181345v 0.22393h 0.181345v 0.9901h 0.181345v 0.242592h 0.181345v 0.246505h 0.181345v -0.727898h 0.181345v 2.09161h 0.181345v
 -0.26931h 0.181345v 2.30036h 0.181345v 0.714658h 0.181345v 3.75975h 0.181345v -0.809883h 0.181345v 1.12501h 0.181345v 1.09997h 0.181345v 5.25677h 0.181345v -0.630315h 0.181345v 1.97474h 0.181345v -1.01924h 0.181345v 3.28754h 0.181345v 4.19421h
 0.181345v 1.11198h 0.181345v 1.19928h 0.181345v -0.908166h 0.181345v 5.61992h 0.36269v 2.28529h 0.181345v 3.91142h 0.181345v 3.57033h 0.181345v 1.69986h 0.181345v -1.69986h 0.181345v 4.66714h 0.544034v 12.9492h 0.181345v -14.0036h 0.181345v 7.80693h
 0.36269v 1.80007h 0.181345v 2.04076h 0.181345v -5.45105h 0.181345v 1.61022h 0.181345v 16.79h 0.181345v -4.39663h 0.181345v -6.19671h 0.181345v -4.39663h 0.36269v 2.04076h 0.181345v -3.84083h 0.181345v 8.98312h 0.181345v -5.14229h 0.181345v 5.14229h
 0.181345v -5.14229h 0.181345v -2.04076h 0.181345v 10.5933h 0.181345v 10.5933h 0.181345v -10.5933h 0.181345v 31.78h 0.181345v -35.1903h 0.181345v 3.41029h 0.36269v -3.41029h 0.181345v 3.41029h 0.181345v 21.1867h 0.181345v -29.7393h 0.181345v 29.7393h
 0.181345v -16.79h 0.181345v 16.79h 0.181345v -21.1867h 0.181345v 10.5933h 0.181345v 10.5933h 0.181345v -16.79h 0.181345v -4.39663h 0.181345v 4.39663h 0.181345v 6.19671h 0.181345v -6.19671h 0.36269v 16.79h 0.181345v -10.5933h 0.181345v -16.79h
 0.181345v 10.5933h 0.36269v -7.80693h 0.181345v 14.0036h 0.181345v -10.5933h 0.181345v 21.1867h 0.181345v -27.3834h 0.181345v 2.78641h 0.181345v -2.78641h 0.181345v 10.5933h 0.181345v 16.79h 0.181345v -21.1867h 0.36269v 4.39663h 0.181345v -10.5933h
 0.181345v 10.5933h 0.181345v -7.80693h 0.181345v -7.18305h 0.181345v 14.99h 0.36269v -4.39663h 0.181345v 4.39663h 0.181345v -4.39663h 0.181345v -3.41029h 0.181345v 7.80693h 0.181345v -10.5933h 0.181345v 10.5933h 0.181345v -4.39663h 0.181345v
 -10.5933h 0.181345v 14.99h 0.181345v -10.5933h 0.36269v -4.39663h 0.181345v 7.18305h 0.181345v -8.98312h 0.181345v 12.3934h 0.181345v -8.55259h 0.181345v -9.46075h 0.181345v 1.22329h 0.181345v 13.3798h 0.181345v -16.79h 0.181345v 7.80693h 0.181345v
 -11.4196h 0.181345v 11.4196h 0.181345v -9.71979h 0.181345v -0.87355h 0.181345v 0.87355h 0.181345v 2.96728h 0.181345v -5.45105h 0.181345v 10.5933h 0.181345v -12.05h 0.181345v 1.45662h 0.181345v -2.78641h 0.181345v 6.19671h 0.36269v -4.15595h
 0.181345v -1.39032h 0.181345v 5.54627h 0.181345v -0.926524h 0.181345v -0.87355h 0.181345v -1.61022h 0.181345v 2.48377h 0.181345v 5.32316h 0.181345v -8.55259h 0.181345v 5.14229h 0.181345v 3.41029h 0.181345v -3.41029h 0.181345v 20.2003h 0.181345v
 4.39663h 0.181345v -14.99h 0.181345v 2.04076h 0.36269v -5.45105h 0.181345v 5.45105h 0.181345v -2.04076h 0.181345v 21.1867h 0.181345v -14.0036h 0.181345v 7.80693h 0.181345v 6.19671h 0.181345v -6.19671h 0.181345v -7.80693h 0.36269v 3.41029h 0.181345v
 -6.19671h 0.36269v 16.79h 0.181345v 10.5933h 0.181345v -21.1867h 0.181345v -3.41029h 0.181345v 35.1903h 0.181345v -27.3834h 0.181345v -10.5933h 0.181345v 6.19671h 0.181345v 4.39663h 0.181345v 16.79h 0.181345v -16.79h 0.36269v -4.39663h 0.181345v
 10.5933h 0.181345v -14.0036h 0.181345v 14.0036h 0.181345v -6.19671h 0.181345v 16.79h 0.181345v -10.5933h 0.181345v -10.5933h 0.181345v 10.5933h 0.181345v -10.5933h 0.181345v 4.39663h 0.181345v 16.79h 0.181345v 10.5933h 0.181345v -40.3326h 0.181345v
 19.1459h 0.181345v -10.5933h 0.544034v 21.1867h 0.181345v -10.5933h 0.181345v -10.5933h 0.36269v 4.39663h 0.181345v -4.39663h 0.181345v 21.1867h 0.181345v -16.79h 0.181345v -4.39663h 0.36269v 4.39663h 0.181345v 16.79h 0.181345v -16.79h 0.181345v
 16.79h 0.181345v -24.597h 0.181345v -2.78641h 0.181345v 6.19671h 0.181345v -8.55259h 0.181345v -2.04076h 0.181345v 2.04076h 0.36269v -2.04076h 0.181345v 2.04076h 0.181345v 5.14229h 0.181345v 3.41029h 0.181345v -12.3934h 0.181345v 1.80007h 0.181345v
 4.39663h 0.181345v -4.39663h 0.181345v 10.5933h 0.181345v -6.19671h 0.181345v 2.78641h 0.181345v -7.18305h 0.181345v 2.04076h 0.181345v 2.35588h 0.181345v -2.35588h 0.181345v -2.04076h 0.181345v -3.41029h 0.36269v 7.80693h 0.181345v -6.19671h
 0.181345v 1.80007h 0.181345v 2.04076h 0.36269v -8.23746h 0.181345v 13.3798h 0.181345v -14.603h 0.181345v 22.41h 0.181345v -10.5933h 0.181345v 2.78641h 0.181345v -5.14229h 0.181345v 5.14229h 0.181345v -2.78641h 0.181345v -4.39663h 0.181345v 4.39663h
 0.181345v -2.35588h 0.181345v -3.84083h 0.181345v 22.9868h 0.181345v -6.19671h 0.181345v -18.4003h 0.181345v 18.4003h 0.181345v -12.9492h 0.181345v -3.84083h 0.181345v 8.98312h 0.181345v 3.41029h 0.181345v 4.39663h 0.181345v -18.4003h 0.181345v
 10.5933h 0.181345v 3.41029h 0.181345v -14.0036h 0.181345v 18.4003h 0.181345v -16.79h 0.36269v 12.3934h 0.181345v -14.0036h 0.181345v 3.41029h 0.181345v 7.18305h 0.181345v -2.78641h 0.181345v 10.5933h 0.36269v -10.5933h 0.181345v 2.78641h 0.36269v
 -5.14229h 0.181345v 5.14229h 0.181345v -7.18305h 0.181345v 2.04076h 0.36269v 2.35588h 0.181345v -2.35588h 0.181345v -2.04076h 0.181345v 7.18305h 0.181345v 14.0036h 0.181345v -14.0036h 0.36269v -10.5933h 0.181345v 3.41029h 0.181345v 4.39663h 0.36269v
 6.19671h 0.181345v -19.1459h 0.181345v 12.9492h 0.36269v -9.26355h 0.181345v 9.26355h 0.181345v -2.35588h 0.181345v -3.84083h 0.725379v -3.06684h 0.181345v 1.45662h 0.181345v -2.78641h 0.181345v 6.19671h 0.181345v -4.86692h 0.181345v -1.32979h
 0.181345v -2.35588h 0.181345v 8.55259h 0.181345v -1.80007h 0.181345v -1.61022h 0.181345v -1.45662h 0.181345v -1.32979h 0.181345v 8.23746h 0.181345v -8.23746h 0.36269v -1.22329h 0.181345v 4.0097h 0.181345v -2.78641h 0.181345v -5.32316h 0.181345v
 13.5606h 0.181345v -5.45105h 0.181345v -2.78641h 0.544034v 8.23746h 0.36269v -2.04076h 0.181345v -3.41029h 0.181345v -2.78641h 0.181345v -2.35588h 0.181345v 2.35588h 0.181345v -3.41029h 0.181345v 3.41029h 0.181345v -1.22329h 0.181345v 2.55308h
 0.181345v 15.4603h 0.181345v -15.4603h 0.181345v -2.55308h 0.181345v -3.17334h 0.181345v 8.79327h 0.181345v -5.61992h 0.181345v -4.09987h 0.181345v 2.96728h 0.181345v 3.68567h 0.181345v -2.55308h 0.181345v 5.61992h 0.181345v -12.9492h 0.181345v
 2.35588h 0.181345v -5.02051h 0.181345v 11.2172h 0.181345v -1.22329h 0.181345v -9.99393h 0.181345v 7.80693h 0.181345v 6.19671h 0.181345v -7.18305h 0.181345v -2.62638h 0.181345v 7.02301h 0.181345v 4.39663h 0.181345v -6.75251h 0.181345v -2.04076h
 0.181345v -3.41029h 0.181345v 3.41029h 0.181345v 10.5933h 0.36269v -7.42h 0.181345v -6.58364h 0.181345v 6.58364h 0.181345v -4.09987h 0.181345v -1.69986h 0.181345v 13.2197h 0.181345v -4.86692h 0.181345v -2.55308h 0.181345v -1.13259h 0.181345v
 5.14229h 0.181345v -9.80943h 0.181345v 11.4196h 0.181345v -5.61992h 0.181345v 4.0097h 0.181345v -11.339h 0.181345v 5.14229h 0.181345v 7.80693h 0.181345v -5.61992h 0.181345v -1.13259h 0.181345v -3.84083h 0.36269v -1.61022h 0.181345v 0.783913h
 0.181345v 2.62638h 0.36269v 2.04076h 0.181345v -8.23746h 0.181345v 9.37005h 0.181345v 1.22329h 0.181345v -4.39663h 0.181345v -4.15595h 0.181345v -0.710964h 0.181345v 4.86692h 0.36269v -2.62638h 0.181345v 3.61272h 0.181345v -5.85326h 0.181345v
 6.90767h 0.181345v -8.23746h 0.181345v -1.80007h 0.181345v 2.45051h 0.181345v 1.39032h 0.181345v 6.19671h 0.181345v -9.46075h 0.181345v -4.09987h 0.181345v 5.97359h 0.181345v 1.39032h 0.181345v -6.90767h 0.181345v 2.51104h 0.181345v 2.35588h
 0.36269v 0.650437h 0.181345v 0.679355h 0.181345v -0.679355h 0.181345v -4.06073h 0.181345v -2.78641h 0.181345v -0.826307h 0.181345v -0.783913h 0.181345v 17.177h 0.181345v -9.99393h 0.181345v 1.95367h 0.181345v -6.19671h 0.181345v 3.06684h 0.181345v
 5.3704h 0.181345v -4.79362h 0.181345v 0.599409h 0.181345v 5.02051h 0.181345v 2.78641h 0.181345v -10.5933h 0.181345v 8.68048h 0.181345v -5.27018h 0.181345v 2.78641h 0.181345v -8.10957h 0.181345v 14.6932h 0.181345v -11.7259h 0.181345v 10.5933h
 0.181345v -7.58703h 0.181345v 2.13598h 0.181345v 0.783913h 0.181345v -1.52957h 0.181345v -3.26404h 0.181345v 5.61992h 0.36269v -2.35588h 0.181345v 14.7493h 0.181345v -7.42h 0.181345v -3.17334h 0.181345v 2.04076h 0.181345v 5.14229h 0.181345v
 -2.78641h 0.181345v -9.9429h 0.181345v 5.54627h 0.181345v 0.98634h 0.181345v 2.187h 0.181345v -4.97342h 0.181345v 7.5265h 0.181345v -8.35281h 0.181345v 11.4196h 0.181345v -7.80693h 0.181345v -4.39663h 0.181345v 2.48377h 0.181345v 0.926524h 0.181345v
 5.72643h 0.181345v -1.32979h 0.181345v 2.78641h 0.181345v -5.14229h 0.181345v 1.13259h 0.181345v -6.58364h 0.181345v 6.58364h 0.181345v 1.22329h 0.181345v -8.55259h 0.181345v 7.3293h 0.181345v -4.09987h 0.181345v 9.71979h 0.181345v -5.61992h
 0.181345v -1.13259h 0.181345v -2.96728h 0.181345v -1.69986h 0.181345v 2.62638h 0.181345v 2.04076h 0.181345v -2.96728h 0.181345v 1.91286h 0.181345v -2.78641h 0.181345v 8.98312h 0.181345v -16.79h 0.181345v 8.68048h 0.181345v 5.32316h 0.181345v
 -5.32316h 0.181345v 1.91286h 0.181345v 6.19671h 0.181345v -5.14229h 0.181345v -1.05442h 0.181345v 4.74009h 0.181345v -9.88238h 0.181345v 11.339h 0.181345v -8.98312h 0.181345v 2.78641h 0.181345v -0.98634h 0.181345v -4.86692h 0.181345v 4.86692h
 0.181345v -4.15595h 0.181345v 12.9492h 0.181345v -12.9492h 0.181345v 12.9492h 0.181345v -10.5933h 0.181345v 6.19671h 0.181345v -9.9429h 0.181345v 8.71961h 0.181345v -6.58364h 0.181345v 1.61022h 0.181345v 3.84083h 0.181345v 3.68567h 0.181345v
 -2.55308h 0.181345v -4.97342h 0.181345v 4.97342h 0.36269v -9.99393h 0.181345v 8.86134h 0.181345v -4.66714h 0.181345v 9.80943h 0.181345v -12.05h 0.181345v 9.26355h 0.181345v -4.39663h 0.181345v -6.19671h 0.181345v 3.57033h 0.181345v -2.91989h
 0.181345v 9.9429h 0.181345v 2.78641h 0.181345v -1.45662h 0.181345v -2.55308h 0.181345v 2.55308h 0.181345v -7.5265h 0.181345v -3.06684h 0.181345v 4.86692h 0.181345v -0.926524h 0.181345v 1.91286h 0.181345v -0.98634h 0.181345v 2.04076h 0.181345v
 -3.84083h 0.181345v -1.61022h 0.181345v -2.13598h 0.181345v 8.71961h 0.181345v -3.17334h 0.181345v -0.926524h 0.181345v 11.5199h 0.181345v -9.607h 0.181345v -8.40634h 0.181345v 2.55308h 0.181345v -1.95367h 0.181345v 4.19421h 0.181345v 4.66714h
 0.181345v -2.96728h 0.181345v 5.32316h 0.181345v -12.3934h 0.181345v 18.5901h 0.181345v -10.5933h 0.181345v 0.98634h 0.181345v -4.39663h 0.181345v 1.61022h 0.181345v -1.61022h 0.181345v 3.41029h 0.181345v -10.1081h 0.181345v 11.0945h 0.181345v
 -4.39663h 0.181345v -1.45662h 0.181345v -0.679355h 0.181345v 1.39032h 0.181345v 4.15595h 0.181345v -4.15595h 0.181345v 0.745658h 0.181345v 9.13672h 0.181345v -6.65295h 0.181345v 2.96728h 0.181345v -7.58703h 0.181345v 5.54627h 0.181345v 2.04076h
 0.181345v -6.19671h 0.181345v 7.3293h 0.181345v -6.58364h 0.181345v -3.41029h 0.181345v -0.599409h 0.181345v 14.603h 0.181345v -13.3798h 0.181345v 2.04076h 0.181345v -1.39032h 0.181345v 1.39032h 0.181345v 5.14229h 0.181345v -1.91286h 0.181345v
 -4.61975h 0.181345v 2.91989h 0.181345v 2.62638h 0.181345v -3.41029h 0.181345v -2.78641h 0.181345v 2.78641h 0.181345v 1.61022h 0.181345v -5.02051h 0.181345v 4.19421h 0.181345v -6.4625h 0.181345v 2.2683h 0.181345v 4.19421h 0.181345v -5.92621h
 0.181345v 6.75251h 0.181345v -4.39663h 0.181345v 2.04076h 0.181345v -1.39032h 0.181345v 7.58703h 0.181345v -9.46075h 0.181345v 6.49347h 0.181345v -4.61975h 0.181345v -4.56186h 0.181345v 9.1816h 0.181345v -7.07026h 0.181345v 0.576784h 0.36269v
 2.55308h 0.181345v -3.12986h 0.181345v 5.3704h 0.181345v -4.79362h 0.181345v 1.87373h 0.181345v -1.87373h 0.181345v 7.42h 0.181345v -1.80007h 0.181345v -4.39663h 0.181345v 0.650437h 0.181345v 1.39032h 0.181345v -0.710964h 0.181345v 2.24054h
 0.181345v 0.826307h 0.181345v 2.78641h 0.181345v -6.53261h 0.181345v 2.91989h 0.181345v 3.61272h 0.181345v -3.61272h 0.181345v 9.80943h 0.181345v -7.18305h 0.181345v -1.80007h 0.181345v 0.87355h 0.181345v -2.48377h 0.181345v -1.45662h 0.181345v
 12.05h 0.181345v -10.5933h 0.181345v 10.5933h 0.544034v -2.78641h 0.181345v -5.32316h 0.181345v -0.87355h 0.181345v 3.84083h 0.181345v -5.45105h 0.181345v 6.58364h 0.181345v -2.187h 0.544034v -0.98634h 0.181345v -0.926524h 0.181345v 0.926524h
 0.181345v 5.72643h 0.181345v -5.72643h 0.181345v -1.80007h 0.181345v 6.19671h 0.181345v -8.55259h 0.36269v 4.15595h 0.181345v -4.15595h 0.181345v 3.22943h 0.181345v -3.22943h 0.181345v 2.35588h 0.181345v 6.19671h 0.181345v -7.02301h 0.181345v
 0.826307h 0.181345v -1.61022h 0.181345v 5.45105h 0.181345v 2.35588h 0.181345v -2.35588h 0.181345v -3.84083h 0.181345v 12.3934h 0.181345v -12.3934h 0.181345v 6.19671h 0.181345v -9.26355h 0.181345v 0.710964h 0.181345v -1.39032h 0.181345v -1.87373h
 0.181345v 4.0097h 0.181345v 1.61022h 0.181345v -5.02051h 0.181345v 3.41029h 0.181345v 0.783913h 0.181345v 5.79973h 0.181345v -8.04026h 0.181345v 9.26355h 0.181345v -6.19671h 0.181345v 3.84083h 0.181345v 2.35588h 0.181345v -1.22329h 0.181345v
 1.22329h 0.181345v -5.32316h 0.181345v -4.61975h 0.181345v 16.1396h 0.181345v -6.19671h 0.181345v -3.41029h 0.181345v 2.187h 0.181345v 14.603h 0.181345v -12.05h 0.181345v 4.86692h 0.181345v -1.80007h 0.181345v -5.61992h 0.181345v 11.8166h 0.181345v
 -11.8166h 0.181345v 5.61992h 0.181345v 1.80007h 0.181345v -7.42h 0.181345v 14.603h 0.181345v -5.14229h 0.181345v -3.84083h 0.181345v 3.84083h 0.36269v 5.14229h 0.181345v -5.14229h 0.181345v 8.55259h 0.181345v -3.41029h 0.181345v -10.5933h 0.181345v
 10.5933h 0.181345v -8.98312h 0.181345v 8.98312h 0.181345v -10.5933h 0.36269v 5.45105h 0.181345v -3.84083h 0.181345v 1.80007h 0.36269v 7.18305h 0.36269v -2.78641h 0.181345v -11.8166h 0.181345v 4.0097h 0.181345v -4.0097h 0.181345v 22.41h 0.181345v
 -12.9492h 0.181345v 2.35588h 0.181345v -11.8166h 0.181345v 2.55308h 0.181345v 4.86692h 0.181345v -3.41029h 0.181345v -6.19671h 0.181345v 11.6478h 0.181345v -9.46075h 0.181345v 7.42h 0.181345v -1.80007h 0.181345v 8.98312h 0.181345v -5.14229h
 0.181345v 5.14229h 0.181345v -8.98312h 0.181345v 3.84083h 0.181345v 5.14229h 0.181345v -5.14229h 0.181345v -3.84083h 0.181345v 6.19671h 0.181345v -10.5933h 0.181345v 10.5933h 0.36269v -11.8166h 0.181345v 7.42h 0.181345v -8.55259h 0.181345v 8.55259h
 0.181345v -1.80007h 0.181345v -6.75251h 0.181345v 5.14229h 0.181345v 1.61022h 0.181345v -1.61022h 0.181345v -6.19671h 0.181345v 1.05442h 0.181345v 5.14229h 0.181345v 5.45105h 0.181345v 8.55259h 0.181345v -19.1459h 0.181345v 10.5933h 0.181345v
 5.14229h 0.181345v -8.98312h 0.181345v 1.80007h 0.181345v -4.86692h 0.181345v 3.06684h 0.181345v -6.75251h 0.181345v 8.55259h 0.181345v 14.99h 0.181345v -12.9492h 0.181345v -3.84083h 0.181345v 12.3934h 0.181345v -3.41029h 0.181345v -2.78641h
 0.181345v -4.39663h 0.181345v -8.55259h 0.181345v 8.55259h 0.181345v 4.39663h 0.36269v -6.19671h 0.36269v 6.19671h 0.181345v -12.9492h 0.181345v 8.55259h 0.181345v -7.42h 0.181345v 5.61992h 0.181345v -3.06684h 0.181345v -2.55308h 0.181345v 5.61992h
 0.181345v -4.39663h 0.181345v 6.19671h 0.181345v 7.18305h 0.544034v -7.18305h 0.181345v -7.42h 0.181345v 9.46075h 0.181345v -2.04076h 0.181345v -1.80007h 0.181345v 3.84083h 0.181345v -3.84083h 0.181345v 1.80007h 0.181345v -7.42h 0.181345v 14.603h
 0.181345v -13.3798h 0.181345v 13.3798h 0.181345v -8.98312h 0.181345v -7.80693h 0.181345v 9.607h 0.181345v -3.41029h 0.181345v 3.41029h 0.181345v 10.5933h 0.181345v -15.4603h 0.181345v 3.06684h 0.181345v -3.06684h 0.181345v 3.06684h 0.181345v
 3.84083h 0.181345v -6.90767h 0.181345v -3.68567h 0.181345v 1.13259h 0.181345v 2.55308h 0.181345v -1.32979h 0.181345v 8.23746h 0.181345v -3.84083h 0.181345v -8.79327h 0.181345v 3.17334h 0.181345v 5.61992h 0.181345v -3.06684h 0.181345v 4.86692h
 0.181345v 2.04076h 0.181345v -3.84083h 0.181345v -1.61022h 0.181345v -1.45662h 0.181345v -4.74009h 0.181345v 2.187h 0.181345v -4.09987h 0.181345v 5.32316h 0.181345v -9.9429h 0.181345v 2.13598h 0.181345v 7.80693h 0.181345v -7.80693h 0.181345v
 7.80693h 0.181345v 13.3798h 0.181345v -20.4028h 0.181345v 4.66714h 0.36269v -6.90767h 0.181345v -6.65295h 0.181345v 8.10957h 0.181345v -1.45662h 0.36269v -0.679355h 0.181345v 1.39032h 0.181345v -0.710964h 0.181345v -2.55308h 0.181345v -0.576784h
 0.181345v -1.0921h 0.181345v 3.54262h 0.181345v 2.13598h 0.181345v -2.78641h 0.181345v -4.39663h 0.181345v 4.39663h 0.36269v -3.41029h 0.181345v 12.7803h 0.181345v -6.58364h 0.181345v -1.45662h 0.181345v 2.24054h 0.181345v -4.19421h 0.181345v
 1.95367h 0.181345v 2.24054h 0.181345v -3.57033h 0.181345v 4.39663h 0.181345v 8.98312h 0.181345v -7.18305h 0.181345v -6.82059h 0.181345v 6.82059h 0.181345v 2.04076h 0.181345v 5.14229h 0.181345v -7.18305h 0.181345v -4.15595h 0.181345v 2.35588h
 0.181345v 6.19671h 0.181345v 13.3798h 0.181345v -13.3798h 0.181345v 4.39663h 0.181345v 1.80007h 0.181345v -3.41029h 0.181345v 18.4003h 0.181345v -16.79h 0.181345v 8.98312h 0.181345v 7.80693h 0.181345v -18.4003h 0.181345v 7.80693h 0.181345v -4.39663h
 0.181345v 4.39663h 0.181345v 2.78641h 0.181345v -8.98312h 0.181345v 3.84083h 0.181345v 12.9492h 0.181345v -10.5933h 0.181345v 2.78641h 0.181345v 7.80693h 0.181345v -7.80693h 0.181345v 24.597h 0.36269v -24.597h 0.181345v 24.597h 0.181345v -10.5933h
 0.181345v 10.5933h 0.181345v 10.5933h 0.181345v -21.1867h 0.36269v 10.5933h 0.181345v -16.79h 0.36269v -7.80693h 0.181345v 35.1903h 0.36269v -10.5933h 0.181345v 10.5933h 0.181345v -21.1867h 0.181345v 21.1867h 0.181345v -27.3834h 0.181345v 27.3834h
 0.181345v -21.1867h 0.181345v -6.19671h 0.181345v 16.79h 0.181345v 10.5933h 0.181345v -21.1867h 0.36269v 21.1867h 0.181345v -27.3834h 0.544034v 27.3834h 0.181345v -21.1867h 0.181345v 10.5933h 0.36269v -24.597h 0.181345v 35.1903h 0.181345v -10.5933h
 0.181345v -10.5933h 0.36269v 10.5933h 0.181345v -10.5933h 0.181345v 10.5933h 0.725379v 10.5933h 0.181345v -21.1867h 0.181345v 10.5933h 0.181345v 10.5933h 0.181345v -10.5933h 0.181345v 10.5933h 0.36269v -27.3834h 0.181345v 16.79h 0.36269v -10.5933h
 0.181345v 10.5933h 0.181345v -10.5933h 0.181345v 10.5933h 0.181345v -10.5933h 0.181345v 10.5933h 0.181345v -10.5933h 0.181345v 10.5933h 0.181345v 10.5933h 0.544034v -10.5933h 0.181345v -16.79h 0.181345v 16.79h 0.544034v -10.5933h 0.181345v 10.5933h
 0.544034v 10.5933h 0.181345v -10.5933h 0.36269v 10.5933h 0.725379v -10.5933h 0.725379v 10.5933h 0.181345v -35.1903h 0.181345v 24.597h 0.181345v 10.5933h 0.181345v -10.5933h 0.181345v 10.5933h 0.181345v -21.1867h 0.181345v 21.1867h 0.181345v
 -21.1867h 0.36269v 21.1867h 0.181345v -21.1867h 0.181345v 21.1867h 0.181345v -10.5933h 0.36269v 10.5933h 0.181345v -10.5933h 0.181345v 10.5933h 0.181345v -10.5933h 0.36269v 10.5933h 0.36269v -21.1867h 0.181345v 21.1867h 0.181345v -10.5933h 0.36269v
 -16.79h 0.181345v 6.19671h 0.181345v 21.1867h 0.725379v -27.3834h 0.181345v 27.3834h 0.181345v -21.1867h 0.181345v 21.1867h 0.181345v -10.5933h 0.181345v 10.5933h 0.725379v -10.5933h 0.181345v 10.5933h 0.181345v -10.5933h 0.181345v 10.5933h
 0.181345v -31.78h 0.181345v 21.1867h 0.544034v -10.5933h 0.181345v 21.1867h 0.181345v -10.5933h 0.181345v 10.5933h 0.181345v -10.5933h 0.181345v 10.5933h 0.181345v -10.5933h 0.181345v -10.5933h 0.181345v 10.5933h 0.181345v -16.79h 0.181345v 16.79h
 0.36269v 10.5933h 0.181345v -27.3834h 0.181345v 27.3834h 0.725379v -10.5933h 0.725379v 10.5933h 0.544034v -10.5933h 0.36269v -10.5933h 0.181345v 21.1867h 0.181345v -10.5933h 0.36269v 10.5933h 0.181345v -21.1867h 0.181345v 10.5933h 0.181345v 10.5933h
 0.544034v -10.5933h 0.181345v 10.5933h 0.36269v -10.5933h 0.181345v 10.5933h 0.725379v -10.5933h 0.181345v -10.5933h 0.181345v 10.5933h 0.181345v 10.5933h 0.36269v -10.5933h 0.181345v -10.5933h 0.181345v 10.5933h 0.36269v -10.5933h 0.181345v
 10.5933h 0.181345v -10.5933h 0.181345v 21.1867h 0.544034v -10.5933h 0.181345v -10.5933h 0.181345v 21.1867h 0.181345v -21.1867h 0.181345v 10.5933h 0.181345v 10.5933h 0.181345v -10.5933h 0.725379v -16.79h 0.181345v 27.3834h 0.36269v -10.5933h
 0.181345v 10.5933h 0.181345v -21.1867h 0.36269v 21.1867h 0.181345v -10.5933h 0.181345v 10.5933h 0.181345v -10.5933h 0.181345v 10.5933h 0.181345v -10.5933h 0.181345v 10.5933h 0.36269v -10.5933h 0.36269v 10.5933h 0.544034v -21.1867h 0.181345v 10.5933h
 0.181345v 10.5933h 0.725379v -21.1867h 0.36269v 21.1867h 0.181345v -27.3834h 0.181345v 16.79h 0.181345v 10.5933h 0.36269v -21.1867h 0.181345v 21.1867h 0.725379v -21.1867h 0.544034v 21.1867h 0.725379v -21.1867h 0.181345v 21.1867h 0.181345v -21.1867h
 0.36269v 21.1867h 0.181345v -10.5933h 0.181345v -16.79h 0.181345v 27.3834h 0.181345v -10.5933h 0.181345v 10.5933h 0.725379v -10.5933h 0.544034v 10.5933h 0.36269v -10.5933h 0.181345v 10.5933h 0.181345v -10.5933h 0.36269v 10.5933h 0.36269v -10.5933h
 0.181345v 10.5933h 0.181345v -21.1867h 0.181345v 21.1867h 0.181345v -10.5933h 0.181345v 10.5933h 0.181345v -10.5933h 0.36269v 10.5933h 0.544034v -10.5933h 0.36269v 10.5933h 0.181345v -21.1867h 0.36269v 10.5933h 0.36269v 10.5933h 0.906724v -21.1867h
 0.36269v 10.5933h 0.181345v 10.5933h 0.181345v -21.1867h 0.181345v 21.1867h 0.181345v -10.5933h 0.36269v 10.5933h 0.181345v -27.3834h 0.181345v 16.79h 0.181345v 10.5933h 0.181345v -21.1867h 0.181345v 10.5933h 0.181345v 10.5933h 0.725379v -10.5933h
 0.544034v 10.5933h 0.181345v -10.5933h 0.181345v -10.5933h 0.181345v 10.5933h 0.181345v 10.5933h 0.181345v -21.1867h 0.181345v 21.1867h 0.181345v -10.5933h 0.181345v -16.79h 0.181345v 16.79h 0.181345v -10.5933h 0.181345v 10.5933h 0.36269v 10.5933h
 0.544034v -21.1867h 0.181345v 21.1867h 0.181345v -10.5933h 0.181345v 10.5933h 0.36269v -10.5933h 0.544034v -16.79h 0.181345v 16.79h 0.181345v 10.5933h 0.181345v -10.5933h 0.181345v 10.5933h 0.181345v -10.5933h 0.36269v 10.5933h 0.181345v -21.1867h
 0.181345v 10.5933h 0.181345v -16.79h 0.181345v 16.79h 0.36269v -10.5933h 0.181345v 21.1867h 0.544034v -10.5933h 0.181345v 10.5933h 0.181345" fill="none" stroke="black"/>
<path d="M57.1929,280.151h 453.543" fill="none" stroke="black"/>
<path d="M57.1929,272.68v 7.47068" fill="none" stroke="black"/>
<path d="M75.3318,276.415v 3.73534" fill="none" stroke="black"/>
<path d="M93.4707,276.415v 3.73534" fill="none" stroke="black"/>
<path d="M111.61,276.415v 3.73534" fill="none" stroke="black"/>
<path d="M129.749,276.415v 3.73534" fill="none" stroke="black"/>
<path d="M147.887,272.68v 7.47068" fill="none" stroke="black"/>
<path d="M166.026,276.415v 3.73534" fill="none" stroke="black"/>
<path d="M184.165,276.415v 3.73534" fill="none" stroke="black"/>
<path d="M202.304,276.415v 3.73534" fill="none" stroke="black"/>
<path d="M220.443,276.415v 3.73534" fill="none" stroke="black"/>
<path d="M238.582,272.68v 7.47068" fill="none" stroke="black"/>
<path d="M256.721,276.415v 3.73534" fill="none" stroke="black"/>
<path d="M274.86,276.415v 3.73534" fill="none" stroke="black"/>
<path d="M292.999,276.415v 3.73534" fill="none" stroke="black"/>
<path d="M311.138,276.415v 3.73534" fill="none" stroke="black"/>
<path d="M329.277,272.68v 7.47068" fill="none" stroke="black"/>
<path d="M347.415,276.415v 3.73534" fill="none" stroke="black"/>
<path d="M365.554,276.415v 3.73534" fill="none" stroke="black"/>
<path d="M383.693,276.415v 3.73534" fill="none" stroke="black"/>
<path d="M401.832,276.415v 3.73534" fill="none" stroke="black"/>
<path d="M419.971,272.68v 7.47068" fill="none" stroke="black"/>
<path d="M438.11,276.415v 3.73534" fill="none" stroke="black"/>
<path d="M456.249,276.415v 3.73534" fill="none" stroke="black"/>
<path d="M474.388,276.415v 3.73534" fill="none" stroke="black"/>
<path d="M492.527,276.415v 3.73534" fill="none" stroke="black"/>
<path d="M510.666,272.68v 7.47068" fill="none" stroke="black"/>
<path d="M510.666,272.68v 7.47068" fill="none" stroke="black"/>
<text xml:space="preserve" x="54.3523" y="290.27" fill="black" font-size="10.4952" font-family="Helvetica">0</text>
<text xml:space="preserve" x="139.569" y="290.27" fill="black" font-size="10.4952" font-family="Helvetica">500</text>
<text xml:space="preserve" x="227.449" y="290.27" fill="black" font-size="10.4952" font-family="Helvetica">1000</text>
<text xml:space="preserve" x="318.288" y="290.27" fill="black" font-size="10.4952" font-family="Helvetica">1500</text>
<text xml:space="preserve" x="408.831" y="290.27" fill="black" font-size="10.4952" font-family="Helvetica">2000</text>
<text xml:space="preserve" x="499.67" y="290.27" fill="black" font-size="10.4952" font-family="Helvetica">2500</text>
<text xml:space="preserve" x="265.323" y="301.218" fill="black" font-size="10.4952" font-family="Helvetica">Channel</text>
<path d="M57.1929,280.151v -249.023" fill="none" stroke="black"/>
<path d="M63.9961,280.151h -6.80315" fill="none" stroke="black"/>
<path d="M63.9961,277.364h -6.80315" fill="none" stroke="black"/>
<path d="M63.9961,275.008h -6.80315" fill="none" stroke="black"/>
<path d="M63.9961,272.967h -6.80315" fill="none" stroke="black"/>
<path d="M63.9961,271.167h -6.80315" fill="none" stroke="black"/>
<path d="M70.7992,269.557h -13.6063" fill="none" stroke="black"/>
<text xml:space="preserve" x="49.0263" y="273.108" fill="black" font-size="10.4952" font-family="Helvetica">1</text>
<path d="M63.9961,258.964h -6.80315" fill="none" stroke="black"/>
<path d="M63.9961,252.767h -6.80315" fill="none" stroke="black"/>
<path d="M63.9961,248.371h -6.80315" fill="none" stroke="black"/>
<path d="M63.9961,244.96h -6.80315" fill="none" stroke="black"/>
<path d="M63.9961,242.174h -6.80315" fill="none" stroke="black"/>
<path d="M63.9961,239.818h -6.80315" fill="none" stroke="black"/>
<path d="M63.9961,237.777h -6.80315" fill="none" stroke="black"/>
<path d="M63.9961,235.977h -6.80315" fill="none" stroke="black"/>
<path d="M70.7992,234.367h -13.6063" fill="none" stroke="black"/>
<text xml:space="preserve" x="41.629" y="238.193" fill="black" font-size="10.4952" font-family="Helvetica">10</text>
<path d="M63.9961,223.774h -6.80315" fill="none" stroke="black"/>
<path d="M63.9961,217.577h -6.80315" fill="none" stroke="black"/>
<path d="M63.9961,213.18h -6.80315" fill="none" stroke="black"/>
<path d="M63.9961,209.77h -6.80315" fill="none" stroke="black"/>
<path d="M63.9961,206.983h -6.80315" fill="none" stroke="black"/>
<path d="M63.9961,204.628h -6.80315" fill="none" stroke="black"/>
<path d="M63.9961,202.587h -6.80315" fill="none" stroke="black"/>
<path d="M63.9961,200.787h -6.80315" fill="none" stroke="black"/>
<path d="M70.7992,199.177h -13.6063" fill="none" stroke="black"/>
<text xml:space="preserve" x="49.0263" y="199.431" fill="black" font-size="7.16345" font-family="Helvetica">2</text>
<text xml:space="preserve" x="38.0783" y="203.87" fill="black" font-size="10.4952" font-family="Helvetica">10</text>
<path d="M63.9961,188.583h -6.80315" fill="none" stroke="black"/>
<path d="M63.9961,182.387h -6.80315" fill="none" stroke="black"/>
<path d="M63.9961,177.99h -6.80315" fill="none" stroke="black"/>
<path d="M63.9961,174.58h -6.80315" fill="none" stroke="black"/>
<path d="M63.9961,171.793h -6.80315" fill="none" stroke="black"/>
<path d="M63.9961,169.437h -6.80315" fill="none" stroke="black"/>
<path d="M63.9961,167.397h -6.80315" fill="none" stroke="black"/>
<path d="M63.9961,165.596h -6.80315" fill="none" stroke="black"/>
<path d="M70.7992,163.986h -13.6063" fill="none" stroke="black"/>
<text xml:space="preserve" x="49.0263" y="163.924" fill="black" font-size="7.16345" font-family="Helvetica">3</text>
<text xml:space="preserve" x="38.0783" y="168.658" fill="black" font-size="10.4952" font-family="Helvetica">10</text>
<path d="M63.9961,153.393h -6.80315" fill="none" stroke="black"/>
<path d="M63.9961,147.196h -6.80315" fill="none" stroke="black"/>
<path d="M63.9961,142.8h -6.80315" fill="none" stroke="black"/>
<path d="M63.9961,139.389h -6.80315" fill="none" stroke="black"/>
<path d="M63.9961,136.603h -6.80315" fill="none" stroke="black"/>
<path d="M63.9961,134.247h -6.80315" fill="none" stroke="black"/>
<path d="M63.9961,132.206h -6.80315" fill="none" stroke="black"/>
<path d="M63.9961,130.406h -6.80315" fill="none" stroke="black"/>
<path d="M70.7992,128.796h -13.6063" fill="none" stroke="black"/>
<text xml:space="preserve" x="49.0263" y="129.009" fill="black" font-size="7.16345" font-family="Helvetica">4</text>
<text xml:space="preserve" x="38.0783" y="133.447" fill="black" font-size="10.4952" font-family="Helvetica">10</text>
<path d="M63.9961,118.203h -6.80315" fill="none" stroke="black"/>
<path d="M63.9961,112.006h -6.80315" fill="none" stroke="black"/>
<path d="M63.9961,107.609h -6.80315" fill="none" stroke="black"/>
<path d="M63.9961,104.199h -6.80315" fill="none" stroke="black"/>
<path d="M63.9961,101.413h -6.80315" fill="none" stroke="black"/>
<path d="M63.9961,99.0567h -6.80315" fill="none" stroke="black"/>
<path d="M63.9961,97.0159h -6.80315" fill="none" stroke="black"/>
<path d="M63.9961,95.2159h -6.80315" fill="none" stroke="black"/>
<path d="M70.7992,93.6056h -13.6063" fill="none" stroke="black"/>
<text xml:space="preserve" x="49.0263" y="93.5019" fill="black" font-size="7.16345" font-family="Helvetica">5</text>
<text xml:space="preserve" x="38.0783" y="98.2362" fill="black" font-size="10.4952" font-family="Helvetica">10</text>
<path d="M63.9961,83.0123h -6.80315" fill="none" stroke="black"/>
<path d="M63.9961,76.8156h -6.80315" fill="none" stroke="black"/>
<path d="M63.9961,72.4189h -6.80315" fill="none" stroke="black"/>
<path d="M63.9961,69.0087h -6.80315" fill="none" stroke="black"/>
<path d="M63.9961,66.2222h -6.80315" fill="none" stroke="black"/>
<path d="M63.9961,63.8664h -6.80315" fill="none" stroke="black"/>
<path d="M63.9961,61.8256h -6.80315" fill="none" stroke="black"/>
<path d="M63.9961,60.0255h -6.80315" fill="none" stroke="black"/>
<path d="M70.7992,58.4153h -13.6063" fill="none" stroke="black"/>
<text xml:space="preserve" x="49.0263" y="58.2907" fill="black" font-size="7.16345" font-family="Helvetica">6</text>
<text xml:space="preserve" x="38.0783" y="63.025" fill="black" font-size="10.4952" font-family="Helvetica">10</text>
<path d="M63.9961,47.822h -6.80315" fill="none" stroke="black"/>
<path d="M63.9961,41.6253h -6.80315" fill="none" stroke="black"/>
<path d="M63.9961,37.2286h -6.80315" fill="none" stroke="black"/>
<path d="M63.9961,33.8183h -6.80315" fill="none" stroke="black"/>
<g transform="rotate(-90,26.5385,191.442)">
<text xml:space="preserve" x="26.5385" y="191.442" fill="black" font-size="10.4952" font-family="Helvetica">Counts/Channel</text>
</g>
<text xml:space="preserve" x="404.097" y="58.2907" fill="black" font-size="14.7788" font-family="Helvetica" font-weight="bold"> = 2.4879 MeV</text>
<text xml:space="preserve" x="398.179" y="61.5455" fill="black" font-size="10.0192" font-family="Helvetica" font-weight="bold">p</text>
<text xml:space="preserve" x="389.006" y="58.2907" fill="black" font-size="14.7788" font-family="Helvetica" font-weight="bold">E</text>
<path d="M262.163,162.53v 26.4817" fill="none" stroke="black"/>
<path d="M264.454,189.011l -2.29122, 3.9685l -2.29122, -3.9685z" fill="black"/>
<path d="M264.454,189.011l -2.29122, 3.9685l -2.29122, -3.9685h 4.58243z" fill="none" stroke="black"/>
<text xml:space="preserve" x="266.803" y="160.373" fill="black" font-size="10.4952" font-family="Helvetica" font-weight="bold">_1 	1.369 MeV</text>
<text xml:space="preserve" x="260.293" y="160.373" fill="black" font-size="10.4952" font-family="Times">&#0945;</text>
<path d="M184.528,128.796v 31.2218" fill="none" stroke="black"/>
<path d="M186.819,160.018l -2.29122, 3.9685l -2.29122, -3.9685z" fill="black"/>
<path d="M186.819,160.018l -2.29122, 3.9685l -2.29122, -3.9685h 4.58243z" fill="none" stroke="black"/>
<text xml:space="preserve" x="172.117" y="125.754" fill="black" font-size="10.4952" font-family="Helvetica" font-weight="bold"># p_1 	0.844 MeV</text>
<path d="M210.104,147.196v 12.8215" fill="none" stroke="black"/>
<path d="M212.395,160.018l -2.29122, 3.9685l -2.29122, -3.9685z" fill="black"/>
<path d="M212.395,160.018l -2.29122, 3.9685l -2.29122, -3.9685h 4.58243z" fill="none" stroke="black"/>
<text xml:space="preserve" x="197.564" y="142.62" fill="black" font-size="10.4952" font-family="Helvetica" font-weight="bold"># p_2 	1.015 MeV</text>
<path d="M497.469,269.557h 13.1965" fill="none" stroke="black"/>
<path d="M504.067,258.964h 6.59825" fill="none" stroke="black"/>
<path d="M504.067,252.767h 6.59825" fill="none" stroke="black"/>
<path d="M504.067,248.371h 6.59825" fill="none" stroke="black"/>
<path d="M504.067,244.96h 6.59825" fill="none" stroke="black"/>
<path d="M504.067,242.174h 6.59825" fill="none" stroke="black"/>
<path d="M504.067,239.818h 6.59825" fill="none" stroke="black"/>
<path d="M504.067,237.777h 6.59825" fill="none" stroke="black"/>
<path d="M504.067,235.977h 6.59825" fill="none" stroke="black"/>
<path d="M497.469,234.367h 13.1965" fill="none" stroke="black"/>
<path d="M504.067,223.774h 6.59825" fill="none" stroke="black"/>
<path d="M504.067,217.577h 6.59825" fill="none" stroke="black"/>
<path d="M504.067,213.18h 6.59825" fill="none" stroke="black"/>
<path d="M504.067,209.77h 6.59825" fill="none" stroke="black"/>
<path d="M504.067,206.983h 6.59825" fill="none" stroke="black"/>
<path d="M504.067,204.628h 6.59825" fill="none" stroke="black"/>
<path d="M504.067,202.587h 6.59825" fill="none" stroke="black"/>
<path d="M504.067,200.787h 6.59825" fill="none" stroke="black"/>
<path d="M497.469,199.177h 13.1965" fill="none" stroke="black"/>
<path d="M504.067,188.583h 6.59825" fill="none" stroke="black"/>
<path d="M504.067,182.387h 6.59825" fill="none" stroke="black"/>
<path d="M504.067,177.99h 6.59825" fill="none" stroke="black"/>
<path d="M504.067,174.58h 6.59825" fill="none" stroke="black"/>
<path d="M504.067,171.793h 6.59825" fill="none" stroke="black"/>
<path d="M504.067,169.437h 6.59825" fill="none" stroke="black"/>
<path d="M504.067,167.397h 6.59825" fill="none" stroke="black"/>
<path d="M504.067,165.596h 6.59825" fill="none" stroke="black"/>
<path d="M497.469,163.986h 13.1965" fill="none" stroke="black"/>
<path d="M504.067,153.393h 6.59825" fill="none" stroke="black"/>
<path d="M504.067,147.196h 6.59825" fill="none" stroke="black"/>
<path d="M504.067,142.8h 6.59825" fill="none" stroke="black"/>
<path d="M504.067,139.389h 6.59825" fill="none" stroke="black"/>
<path d="M504.067,136.603h 6.59825" fill="none" stroke="black"/>
<path d="M504.067,134.247h 6.59825" fill="none" stroke="black"/>
<path d="M504.067,132.206h 6.59825" fill="none" stroke="black"/>
<path d="M504.067,130.406h 6.59825" fill="none" stroke="black"/>
<path d="M497.469,128.796h 13.1965" fill="none" stroke="black"/>
<path d="M504.067,118.203h 6.59825" fill="none" stroke="black"/>
<path d="M504.067,112.006h 6.59825" fill="none" stroke="black"/>
<path d="M504.067,107.609h 6.59825" fill="none" stroke="black"/>
<path d="M504.067,104.199h 6.59825" fill="none" stroke="black"/>
<path d="M504.067,101.413h 6.59825" fill="none" stroke="black"/>
<path d="M504.067,99.0567h 6.59825" fill="none" stroke="black"/>
<path d="M504.067,97.0159h 6.59825" fill="none" stroke="black"/>
<path d="M504.067,95.2159h 6.59825" fill="none" stroke="black"/>
<path d="M497.469,93.6056h 13.1965" fill="none" stroke="black"/>
<path d="M504.067,83.0123h 6.59825" fill="none" stroke="black"/>
<path d="M504.067,76.8156h 6.59825" fill="none" stroke="black"/>
<path d="M504.067,72.4189h 6.59825" fill="none" stroke="black"/>
<path d="M504.067,69.0087h 6.59825" fill="none" stroke="black"/>
<path d="M504.067,66.2222h 6.59825" fill="none" stroke="black"/>
<path d="M504.067,63.8664h 6.59825" fill="none" stroke="black"/>
<path d="M504.067,61.8256h 6.59825" fill="none" stroke="black"/>
<path d="M504.067,60.0255h 6.59825" fill="none" stroke="black"/>
<path d="M497.469,58.4153h 13.1965" fill="none" stroke="black"/>
<path d="M504.067,47.822h 6.59825" fill="none" stroke="black"/>
<path d="M504.067,41.6253h 6.59825" fill="none" stroke="black"/>
<path d="M504.067,37.2286h 6.59825" fill="none" stroke="black"/>
<path d="M504.067,33.8183h 6.59825" fill="none" stroke="black"/>
<path d="M504.067,31.0319h 6.59825" fill="none" stroke="black"/>
<path d="M504.067,28.676h 6.59825" fill="none" stroke="black"/>
<path d="M57.1929,35.5042v -7.46952" fill="none" stroke="black"/>
<path d="M75.3318,35.5042v -7.46952" fill="none" stroke="black"/>
<path d="M93.4707,35.5042v -7.46952" fill="none" stroke="black"/>
<path d="M111.61,35.5042v -7.46952" fill="none" stroke="black"/>
<path d="M129.749,35.5042v -7.46952" fill="none" stroke="black"/>
<path d="M147.887,35.5042v -7.46952" fill="none" stroke="black"/>
<path d="M166.026,35.5042v -7.46952" fill="none" stroke="black"/>
<path d="M184.165,35.5042v -7.46952" fill="none" stroke="black"/>
<path d="M202.304,35.5042v -7.46952" fill="none" stroke="black"/>
<path d="M220.443,35.5042v -7.46952" fill="none" stroke="black"/>
<path d="M238.582,35.5042v -7.46952" fill="none" stroke="black"/>
<path d="M256.721,35.5042v -7.46952" fill="none" stroke="black"/>
<path d="M274.86,35.5042v -7.46952" fill="none" stroke="black"/>
<path d="M292.999,35.5042v -7.46952" fill="none" stroke="black"/>
<path d="M311.138,35.5042v -7.46952" fill="none" stroke="black"/>
<path d="M329.277,35.5042v -7.46952" fill="none" stroke="black"/>
<path d="M347.415,35.5042v -7.46952" fill="none" stroke="black"/>
<path d="M365.554,35.5042v -7.46952" fill="none" stroke="black"/>
<path d="M383.693,35.5042v -7.46952" fill="none" stroke="black"/>
<path d="M401.832,35.5042v -7.46952" fill="none" stroke="black"/>
<path d="M419.971,35.5042v -7.46952" fill="none" stroke="black"/>
<path d="M438.11,35.5042v -7.46952" fill="none" stroke="black"/>
<path d="M456.249,35.5042v -7.46952" fill="none" stroke="black"/>
<path d="M474.388,35.5042v -7.46952" fill="none" stroke="black"/>
<path d="M492.527,35.5042v -7.46952" fill="none" stroke="black"/>
<path d="M510.666,35.5042v -7.46952" fill="none" stroke="black"/></svg>
