<?xml version="1.0" standalone="no"?>
<svg width="567.429" height="311.778" viewBox="0 0 567.429 311.778" xmlns="http://www.w3.org/2000/svg" shape-rendering="crispEdges">
<title>
Yields/P1/run_0101/det1_Fit.svg
</title>
<desc>
Creator: ROOT Version 6.12/06
CreationDate: Mon Apr 15 10:29:01 2019</desc>
<defs>
</defs>
<rect x="0.5" y="0" width="566.929" height="311.278" fill="white"/>
<rect x="57.1929" y="31.1278" width="453.543" height="249.023" fill="white"/>
<rect x="57.1929" y="31.1278" width="453.543" height="249.023" fill="none" stroke="black"/>
<path d="M57.1929,40.8931h 0.181345v 239.257h 11.7874v -10.5914h 0.181345v 10.5914h 2.17614v -10.5914h 0.181345v 10.5914h 3.26421v -10.5914h 0.181345v 10.5914h 3.98959v -10.5914h 0.181345v 10.5914h 0.544034v -10.5914h 0.181345v 10.5914h 0.906724v
 -21.1829h 0.181345v 21.1829h 0.36269v -10.5914h 0.181345v 10.5914h 0.181345v -10.5914h 0.181345v 10.5914h 0.544034v -10.5914h 0.181345v 10.5914h 2.35748v -10.5914h 0.181345v 10.5914h 0.181345v -10.5914h 0.181345v 10.5914h 0.544034v -10.5914h
 0.725379v -21.1829h 0.181345v 31.7743h 0.181345v -21.1829h 0.181345v 10.5914h 0.181345v -27.3785h 0.181345v -20.5325h 0.181345v -9.9122h 0.181345v -15.0738h 0.181345v -6.78825h 0.181345v -8.73969h 0.181345v -2.34206h 0.181345v -3.60148h 0.181345v
 -1.68282h 0.181345v -1.69506h 0.181345v -1.22307h 0.181345v -1.41356h 0.181345v -0.505874h 0.181345v 0.229782h 0.181345v -2.22865h 0.181345v 0.63135h 0.181345v 0.248464h 0.181345v -0.788588h 0.181345v -1.00902h 0.181345v 0.189605h 0.181345v
 -0.678478h 0.181345v 0.905632h 0.181345v -1.34715h 0.181345v 0.947527h 0.181345v -0.17054h 0.181345v -0.418204h 0.181345v -0.439163h 0.181345v 0.3733h 0.181345v 0.382649h 0.181345v 0.0506247h 0.181345v -0.3509h 0.181345v -0.551575h 0.181345v
 0.634394h 0.181345v -0.165193h 0.181345v -1.00156h 0.181345v 0.692527h 0.181345v -0.28711h 0.181345v -0.188453h 0.181345v 1.16724h 0.181345v 0.444422h 0.181345v -1.03919h 0.181345v -0.634783h 0.181345v 1.16231h 0.181345v -0.495082h 0.181345v
 -0.495272h 0.181345v 0.973591h 0.181345v -0.445807h 0.36269v 0.362263h 0.181345v 0.405245h 0.181345v -0.203966h 0.181345v 0.306979h 0.36269v -0.73978h 0.181345v -0.372904h 0.181345v 2.09081h 0.181345v -1.23437h 0.181345v -0.285306h 0.181345v
 -0.393926h 0.181345v -0.273011h 0.181345v -1.42739h 0.181345v -2.56934h 0.181345v -2.92416h 0.181345v -2.86162h 0.181345v -3.27313h 0.181345v -3.20787h 0.181345v -2.50143h 0.181345v -3.62261h 0.181345v -2.45443h 0.181345v -1.47087h 0.181345v
 -1.52035h 0.181345v -1.22663h 0.181345v -0.125433h 0.181345v 0.635263h 0.181345v 0.892916h 0.181345v 1.73023h 0.181345v 2.73h 0.181345v 2.53614h 0.181345v 3.27542h 0.181345v 3.90221h 0.181345v 4.66159h 0.181345v 4.5455h 0.181345v 3.26002h 0.181345v
 3.5368h 0.181345v 2.83856h 0.181345v 2.82212h 0.181345v 1.36419h 0.181345v 1.66287h 0.181345v 0.505455h 0.181345v 0.13766h 0.181345v 0.599301h 0.181345v 0.327056h 0.181345v 0.447257h 0.181345v 0.0758324h 0.181345v 0.114459h 0.181345v 0.348613h
 0.181345v -0.764169h 0.181345v 1.60993h 0.181345v -0.767199h 0.181345v 0.238138h 0.181345v 1.03424h 0.181345v -1.31171h 0.181345v 0.80653h 0.181345v -0.368216h 0.181345v 0.368216h 0.181345v -0.123727h 0.181345v 1.10713h 0.181345v -1.066h 0.181345v
 0.502408h 0.181345v 0.214312h 0.181345v -0.675478h 0.181345v 0.589392h 0.181345v 0.883495h 0.181345v -1.01172h 0.181345v -0.625471h 0.181345v 2.14581h 0.181345v -1.47772h 0.181345v 1.33731h 0.181345v -1.9645h 0.181345v 2.2466h 0.181345v -1.14255h
 0.181345v 1.97135h 0.181345v -0.444367h 0.181345v 0.294804h 0.181345v 0.402134h 0.181345v -0.352442h 0.181345v 0.506013h 0.181345v -1.18741h 0.181345v 1.34254h 0.181345v 0.209321h 0.181345v 0.645739h 0.181345v -0.85506h 0.181345v 0.582678h 0.181345v
 -1.29351h 0.181345v 0.972938h 0.181345v -0.823375h 0.181345v 2.09057h 0.181345v 1.8285h 0.181345v -2.88272h 0.36269v -0.885302h 0.181345v 2.88744h 0.181345v -1.89453h 0.181345v 1.47257h 0.181345v 0.119377h 0.181345v 0.61129h 0.181345v -0.3697h
 0.181345v -1.39536h 0.181345v 1.03439h 0.181345v 0.918926h 0.181345v -0.55796h 0.181345v 1.07163h 0.181345v -1.4326h 0.181345v -1.08986h 0.181345v 1.88302h 0.181345v -1.20379h 0.181345v 1.32955h 0.181345v 1.31808h 0.181345v -0.205106h 0.181345v
 0.136431h 0.181345v -0.800893h 0.181345v 0.869568h 0.181345v -0.934452h 0.36269v -0.383624h 0.181345v 0.448508h 0.181345v 0.328619h 0.181345v -0.132297h 0.181345v 1.52236h 0.181345v 0.368216h 0.181345v -1.82457h 0.181345v -2.32708h 0.181345v
 2.19535h 0.181345v -0.64212h 0.181345v 0.973591h 0.181345v -0.973591h 0.181345v 0.126283h 0.181345v 0.385236h 0.181345v 0.262328h 0.181345v -2.88481h 0.181345v 0.614643h 0.181345v -1.92593h 0.181345v 0.932641h 0.181345v -1.57249h 0.181345v -1.94368h
 0.181345v 0.0851267h 0.181345v -0.911285h 0.181345v 0.0402641h 0.181345v -0.593097h 0.181345v 1.04315h 0.181345v 0.0415788h 0.181345v -0.247793h 0.181345v 1.64183h 0.181345v 0.0914985h 0.181345v 0.32463h 0.181345v 3.16556h 0.181345v -0.841325h
 0.181345v -0.900654h 0.181345v 1.97438h 0.181345v 1.79975h 0.181345v 2.73331h 0.181345v -1.21095h 0.181345v -0.144837h 0.181345v -0.909388h 0.181345v 1.49716h 0.181345v 0.689449h 0.181345v -0.23329h 0.181345v 0.23329h 0.181345v 0.3167h 0.181345v
 -0.238138h 0.181345v 0.0789676h 0.181345v -1.21698h 0.181345v 1.05945h 0.181345v -1.34913h 0.181345v 0.216744h 0.181345v 3.31899h 0.181345v -3.24606h 0.181345v -0.644226h 0.181345v 2.67417h 0.181345v -0.891936h 0.181345v 1.05985h 0.181345v -1.13841h
 0.181345v 0.640102h 0.181345v -0.56154h 0.181345v -0.541634h 0.181345v 0.30715h 0.181345v 0.392829h 0.181345v 0.403195h 0.181345v -0.243191h 0.181345v -1.88885h 0.181345v 1.25865h 0.181345v 0.15513h 0.181345v 1.47196h 0.181345v 0.435363h 0.181345v
 -2.74168h 0.181345v 0.373618h 0.181345v 0.696434h 0.181345v -1.64947h 0.181345v 0.359551h 0.181345v -1.12199h 0.181345v -0.400378h 0.181345v 2.34448h 0.181345v -2.4102h 0.181345v 1.80795h 0.181345v -1.13766h 0.181345v 0.416759h 0.181345v -0.620952h
 0.181345v -0.981936h 0.181345v 0.255742h 0.36269v 0.0646098h 0.181345v -1.00234h 0.181345v 0.306227h 0.181345v 0.631503h 0.181345v 0.726194h 0.181345v 2.33293h 0.181345v -0.617466h 0.181345v 0.855604h 0.181345v -1.80864h 0.181345v 1.80864h 0.181345v
 0.405334h 0.181345v -0.485127h 0.181345v 0.5675h 0.181345v 0.418662h 0.181345v -1.91252h 0.181345v 1.57668h 0.181345v 0.420969h 0.181345v -1.69506h 0.181345v 1.44109h 0.181345v 0.168844h 0.181345v -2.28252h 0.181345v 2.19786h 0.181345v 0.602678h
 0.181345v 1.57095h 0.181345v -2.99534h 0.181345v 0.821714h 0.181345v 2.27127h 0.181345v -3.09298h 0.181345v -0.472621h 0.181345v 0.633467h 0.181345v -0.240638h 0.181345v -0.547176h 0.181345v 0.787814h 0.36269v 0.660869h 0.181345v 1.8844h 0.181345v
 -3.86134h 0.181345v 2.93499h 0.181345v -0.530002h 0.181345v -0.428045h 0.181345v 0.602678h 0.181345v 0.35537h 0.181345v 1.21558h 0.181345v -1.12543h 0.181345v -1.13238h 0.181345v 1.87339h 0.181345v -3.00577h 0.181345v 1.55804h 0.181345v -1.63581h
 0.181345v 0.234483h 0.181345v 0.480046h 0.181345v 1.44823h 0.181345v -1.11961h 0.181345v -0.490316h 0.181345v 1.34418h 0.181345v 1.37753h 0.181345v -1.81042h 0.181345v 0.171689h 0.181345v -1.79015h 0.181345v -0.602253h 0.181345v 2.22072h 0.181345v
 -1.69506h 0.181345v 1.27409h 0.181345v -1.04315h 0.181345v 0.313451h 0.181345v -0.696434h 0.181345v 1.5094h 0.181345v 0.858664h 0.181345v 0.539357h 0.181345v -2.60181h 0.181345v 1.20379h 0.181345v 0.595961h 0.181345v -1.56646h 0.181345v -0.838526h
 0.181345v 3.95714h 0.181345v -4.03114h 0.181345v 2.56605h 0.181345v -1.09492h 0.181345v -1.69099h 0.181345v -0.849119h 0.181345v 2.2982h 0.181345v -0.0797924h 0.181345v -1.14943h 0.181345v 2.22072h 0.36269v -0.991496h 0.181345v 1.24976h 0.181345v
 -2.84368h 0.181345v 4.78517h 0.181345v -3.27104h 0.181345v 0.403195h 0.181345v -1.47863h 0.181345v 0.0743564h 0.181345v 1.98724h 0.181345v 1.32955h 0.181345v -1.41421h 0.181345v 0.868427h 0.181345v 1.20818h 0.181345v -2.3278h 0.181345v 3.74552h
 0.181345v -4.39584h 0.181345v 1.24298h 0.181345v 1.07274h 0.181345v 0.186346h 0.181345v -0.370447h 0.181345v 1.13942h 0.181345v -2.11415h 0.181345v 2.01588h 0.181345v -0.57668h 0.181345v -1.09191h 0.181345v 0.719201h 0.181345v 0.658326h 0.181345v
 1.09547h 0.181345v 1.86441h 0.181345v -3.15089h 0.181345v 0.679232h 0.181345v -0.773847h 0.181345v 0.57668h 0.181345v -0.764169h 0.181345v 0.862435h 0.181345v -0.195903h 0.181345v -0.573075h 0.181345v 0.476057h 0.181345v 2.06804h 0.181345v -0.65032h
 0.181345v 1.68084h 0.181345v -1.9959h 0.181345v 0.315067h 0.181345v 0.873392h 0.181345v -0.111943h 0.181345v -0.111129h 0.181345v -0.965387h 0.181345v 1.07652h 0.181345v -0.221456h 0.181345v 0.110327h 0.181345v 0.44945h 0.181345v 1.06237h 0.181345v
 -0.481306h 0.181345v -1.46712h 0.181345v 1.11584h 0.181345v 2.24013h 0.36269v -3.4632h 0.181345v -0.628042h 0.181345v 1.96731h 0.181345v 1.59698h 0.181345v -0.880585h 0.181345v 1.27409h 0.181345v -0.132297h 0.181345v -1.01906h 0.181345v -0.604039h
 0.181345v -0.117994h 0.181345v 2.27729h 0.181345v -1.18103h 0.181345v -2.3374h 0.181345v 3.11453h 0.181345v -2.222h 0.181345v 3.61207h 0.181345v -2.54142h 0.181345v -0.722034h 0.181345v 2.27729h 0.181345v -0.926357h 0.36269v -1.46803h 0.181345v
 2.53143h 0.181345v 0.995342h 0.181345v -2.31342h 0.181345v -2.11911h 0.181345v -0.109536h 0.181345v 3.00577h 0.181345v 0.133452h 0.181345v -3.4632h 0.181345v 1.33927h 0.181345v -0.572359h 0.36269v 1.78571h 0.181345v -0.978267h 0.181345v 2.57417h
 0.181345v -1.08224h 0.181345v -0.639432h 0.181345v -0.613745h 0.181345v -0.119845h 0.181345v -0.813587h 0.181345v 4.134h 0.181345v -2.71155h 0.181345v -0.24646h 0.181345v 2.37584h 0.181345v -1.6242h 0.181345v 0.655903h 0.181345v 0.134628h 0.181345v
 -1.54217h 0.181345v 1.27409h 0.181345v -3.95779h 0.181345v 2.56195h 0.181345v 1.39584h 0.181345v -1.27409h 0.181345v 1.81504h 0.181345v -3.54672h 0.181345v 0.669313h 0.181345v -1.51843h 0.181345v 2.45905h 0.181345v -0.240638h 0.181345v -1.25976h
 0.181345v 0.110327h 0.181345v 2.52245h 0.181345v 0.263458h 0.181345v 0.959611h 0.181345v -5.52064h 0.181345v 2.45436h 0.181345v 1.20379h 0.181345v 0.38044h 0.181345v -1.92762h 0.181345v 2.99102h 0.181345v -3.10379h 0.181345v 0.572359h 0.181345v
 -1.96731h 0.181345v 1.96731h 0.181345v -1.23204h 0.181345v 0.436607h 0.181345v 0.44945h 0.181345v -1.72354h 0.181345v 1.60993h 0.181345v 0.813587h 0.181345v -1.36929h 0.181345v -2.4177h 0.181345v 2.52723h 0.181345v -1.76306h 0.181345v 1.0123h
 0.181345v -0.715592h 0.181345v -0.967425h 0.181345v -0.552357h 0.181345v 1.12543h 0.181345v -3.46796h 0.181345v 1.12642h 0.181345v 0.0837274h 0.181345v -0.414123h 0.181345v 0.247125h 0.181345v 0.766299h 0.181345v 0.991984h 0.181345v -1.33731h
 0.181345v -0.25397h 0.181345v 1.4984h 0.181345v -1.66539h 0.181345v 0.766299h 0.181345v -1.09492h 0.181345v -0.161697h 0.181345v 3.20993h 0.181345v -1.05423h 0.181345v -1.07274h 0.181345v -0.341471h 0.181345v 1.69459h 0.181345v -1.00384h 0.181345v
 1.48288h 0.181345v -1.3052h 0.181345v 1.20818h 0.181345v 0.391822h 0.181345v -0.197167h 0.181345v -2.85107h 0.181345v 1.99401h 0.181345v -0.634877h 0.181345v -0.437858h 0.181345v -2.46605h 0.36269v -2.37643h 0.181345v -1.77877h 0.181345v -1.64348h
 0.181345v -1.06762h 0.181345v -1.64271h 0.181345v -1.17442h 0.181345v -1.48468h 0.181345v -1.8625h 0.181345v -1.46205h 0.181345v -1.8471h 0.181345v 0.909031h 0.181345v -3.06872h 0.181345v -0.238928h 0.181345v -0.980773h 0.181345v 0.894808h 0.181345v
 -1.60564h 0.181345v 1.24559h 0.181345v -1.0123h 0.181345v 0.949637h 0.181345v -0.592885h 0.181345v 2.54715h 0.181345v -0.603856h 0.181345v 1.65808h 0.181345v 1.74591h 0.181345v 0.374463h 0.181345v 2.2924h 0.181345v 1.87192h 0.181345v 1.57168h
 0.181345v 1.32955h 0.181345v 1.15377h 0.181345v 3.96908h 0.181345v 2.60569h 0.181345v 0.467798h 0.181345v 0.482573h 0.181345v 1.18906h 0.181345v 0.909805h 0.181345v 0.188647h 0.181345v 3.62473h 0.181345v -0.705365h 0.181345v 1.57168h 0.181345v
 1.19127h 0.181345v 2.21841h 0.181345v -1.07543h 0.181345v 0.605236h 0.181345v -0.305614h 0.181345v -2.11584h 0.181345v -1.01906h 0.181345v 0.248464h 0.181345v 2.58682h 0.36269v 0.605236h 0.181345v -3.06629h 0.181345v 4.02161h 0.36269v -2.14273h
 0.36269v 2.8145h 0.181345v -3.3753h 0.181345v -0.673246h 0.181345v 3.70897h 0.181345v -0.975664h 0.181345v -1.35578h 0.181345v 0.29106h 0.181345v -0.857059h 0.181345v 3.58431h 0.181345v -3.85964h 0.181345v 2.51546h 0.181345v -0.935815h 0.181345v
 -0.447257h 0.181345v 1.22307h 0.181345v 0.65032h 0.181345v -0.808665h 0.181345v 0.158346h 0.181345v 0.65032h 0.181345v -0.490316h 0.181345v 2.06338h 0.181345v -4.30351h 0.181345v 1.60993h 0.181345v 1.79975h 0.181345v -2.69884h 0.181345v -0.571289h
 0.181345v 4.53667h 0.181345v -0.915256h 0.181345v -2.75627h 0.181345v 2.93499h 0.181345v -1.04224h 0.181345v 1.59128h 0.181345v 1.36347h 0.181345v -2.44252h 0.181345v -1.00785h 0.181345v -0.791898h 0.181345v 1.97438h 0.181345v 0.176652h 0.181345v
 0.915256h 0.181345v -0.915256h 0.36269v -0.176652h 0.181345v 0.35537h 0.181345v -0.530002h 0.181345v -0.17266h 0.181345v -0.339574h 0.181345v -0.166998h 0.181345v 3.12175h 0.181345v -5.14136h 0.181345v 2.01961h 0.181345v 3.12175h 0.181345v 2.18661h
 0.181345v -5.14136h 0.181345v 2.35545h 0.181345v -2.01588h 0.181345v 3.23895h 0.181345v -2.89166h 0.181345v 3.76505h 0.181345v -5.73943h 0.181345v 2.8788h 0.181345v -0.904418h 0.181345v -0.347292h 0.181345v 2.01588h 0.181345v -2.68765h 0.181345v
 -0.163426h 0.181345v 2.85107h 0.181345v -0.386861h 0.181345v 2.26025h 0.181345v -5.04616h 0.181345v 0.160004h 0.181345v 2.81811h 0.36269v 1.63144h 0.181345v -1.03987h 0.181345v -1.3463h 0.181345v 0.562525h 0.181345v -0.926357h 0.181345v -0.702662h
 0.181345v 0.883495h 0.181345v -0.180833h 0.181345v -1.04224h 0.181345v 0.339574h 0.181345v -2.52618h 0.181345v -0.710835h 0.181345v -0.54578h 0.181345v -0.526956h 0.181345v -2.28128h 0.181345v -4.086h 0.181345v -1.07129h 0.181345v -1.07543h
 0.181345v -3.14029h 0.181345v -0.993709h 0.181345v -3.01992h 0.181345v -1.50273h 0.181345v -0.537654h 0.181345v -2.15678h 0.181345v -2.79767h 0.181345v 0.207092h 0.181345v -0.840261h 0.181345v -1.62965h 0.181345v -0.251325h 0.181345v -0.965895h
 0.181345v 0.11745h 0.181345v -1.84161h 0.181345v 0.771675h 0.181345v 0.812728h 0.181345v -0.501783h 0.181345v 0.43238h 0.181345v 0.564256h 0.181345v 0.217086h 0.181345v 0.849119h 0.181345v 0.763511h 0.181345v 0.410415h 0.181345v 3.19626h 0.181345v
 0.663702h 0.181345v 3.42754h 0.181345v 1.5011h 0.181345v -0.580331h 0.181345v 2.08112h 0.181345v 4.59654h 0.181345v 1.62626h 0.181345v 1.63719h 0.181345v 2.35545h 0.181345v 2.04039h 0.181345v 2.64107h 0.181345v 1.51413h 0.181345v 2.97812h 0.181345v
 -0.93773h 0.181345v 4.64033h 0.181345v 1.28481h 0.181345v 0.270453h 0.181345v 1.4291h 0.181345v -3.70639h 0.181345v 1.74109h 0.181345v -1.50418h 0.181345v 3.17277h 0.181345v -0.857059h 0.181345v 1.45636h 0.181345v 5.01961h 0.181345v -1.22307h
 0.181345v -3.79654h 0.181345v 2.66416h 0.181345v -5.45007h 0.181345v 7.80552h 0.181345v -2.35545h 0.181345v 0.745524h 0.181345v -2.46421h 0.181345v 0.664461h 0.181345v 0.694674h 0.181345v -2.60719h 0.181345v 7.12195h 0.181345v -4.86604h 0.181345v
 -1.32955h 0.36269v 2.04039h 0.181345v -2.04039h 0.181345v -0.926357h 0.181345v 4.90354h 0.181345v 1.29205h 0.181345v -2.48332h 0.36269v 2.04039h 0.181345v -5.14136h 0.181345v 3.10098h 0.181345v -4.58566h 0.181345v 1.79975h 0.181345v 4.8263h
 0.181345v -7.71795h 0.181345v 1.66859h 0.181345v 2.20923h 0.181345v -1.91252h 0.181345v 6.65175h 0.181345v -2.93948h 0.181345v -0.377308h 0.181345v 1.98724h 0.181345v -5.3222h 0.181345v 5.75265h 0.181345v -4.17598h 0.181345v 2.91936h 0.181345v
 -1.88885h 0.181345v 2.715h 0.181345v -0.418662h 0.181345v -2.64763h 0.181345v -2.55262h 0.181345v 9.45905h 0.181345v -10.3161h 0.181345v 7.34936h 0.181345v -5.5843h 0.181345v 1.64462h 0.36269v -1.32955h 0.181345v 3.97718h 0.181345v -6.86884h
 0.181345v 3.21336h 0.181345v -0.636767h 0.181345v 0.315067h 0.181345v 3.17277h 0.181345v -1.13238h 0.181345v -0.359551h 0.181345v -2.90391h 0.181345v 4.79275h 0.181345v 1.69955h 0.181345v 0.456159h 0.181345v -3.31679h 0.181345v -3.63167h 0.181345v
 1.54477h 0.36269v 2.85107h 0.181345v -2.18661h 0.181345v 8.9815h 0.181345v -3.28695h 0.181345v -3.11103h 0.181345v -3.24798h 0.181345v 3.24798h 0.181345v 4.13009h 0.181345v -6.71361h 0.181345v 2.18661h 0.181345v -4.09913h 0.181345v 1.57668h
 0.181345v -0.965387h 0.181345v 3.88475h 0.181345v 0.826158h 0.181345v -3.74552h 0.181345v 3.74552h 0.181345v -1.98724h 0.181345v 2.4177h 0.181345v -3.14546h 0.181345v -1.9959h 0.181345v -2.31084h 0.181345v 1.40284h 0.181345v 4.00898h 0.181345v
 2.48332h 0.181345v -3.22885h 0.181345v 2.78591h 0.181345v -1.25661h 0.181345v -2.91936h 0.181345v 1.03052h 0.181345v -1.9959h 0.181345v 0.965387h 0.181345v 0.335842h 0.181345v 1.42244h 0.36269v 1.98724h 0.181345v -1.98724h 0.181345v 2.4177h
 0.181345v -1.25661h 0.181345v 3.11103h 0.181345v -1.85442h 0.181345v 0.899095h 0.181345v 0.955324h 0.181345v -4.64033h 0.181345v 4.1552h 0.181345v 2.04039h 0.36269v -6.19559h 0.181345v 2.35545h 0.181345v -1.98724h 0.181345v -1.07905h 0.181345v
 1.84322h 0.181345v 1.22307h 0.181345v -0.826158h 0.36269v -2.91936h 0.181345v -0.65032h 0.181345v 6.19559h 0.181345v -3.78699h 0.181345v 1.56858h 0.181345v 1.29205h 0.181345v -4.28307h 0.181345v 6.71361h 0.181345v -6.71361h 0.181345v -0.335842h
 0.181345v 3.74552h 0.181345v -4.71091h 0.181345v 3.88475h 0.181345v -1.16108h 0.181345v 4.77315h 0.181345v -4.39584h 0.181345v -0.745524h 0.181345v 1.5293h 0.181345v -3.88475h 0.181345v 4.71091h 0.181345v -0.826158h 0.181345v 1.69955h 0.181345v
 0.456159h 0.181345v 4.24227h 0.181345v -10.5914h 0.181345v 13.2556h 0.181345v -5.9511h 0.181345v 1.55526h 0.181345v -3.40968h 0.181345v 1.85442h 0.181345v -4.27211h 0.181345v 4.77315h 0.181345v -7.80552h 0.181345v 13.2556h 0.181345v -5.45007h
 0.181345v 1.05423h 0.181345v -6.19559h 0.181345v 8.55104h 0.181345v -2.35545h 0.181345v 1.73169h 0.181345v -3.77207h 0.181345v 3.17277h 0.181345v -1.66859h 0.36269v 1.09191h 0.181345v 1.79975h 0.181345v -1.79975h 0.181345v 5.36943h 0.181345v
 -2.24013h 0.181345v -5.72539h 0.181345v 3.77207h 0.181345v -1.17598h 0.181345v 1.79975h 0.181345v -3.40968h 0.181345v 8.67891h 0.181345v -2.48332h 0.36269v -2.13559h 0.181345v 1.39007h 0.181345v 2.35545h 0.181345v 3.84014h 0.36269v -6.90642h
 0.181345v -1.32955h 0.181345v 3.56968h 0.181345v -4.19345h 0.181345v 5.893h 0.36269v -2.48332h 0.181345v 6.58245h 0.181345v -4.97252h 0.181345v -0.826158h 0.181345v 2.62591h 0.181345v -2.62591h 0.181345v 2.62591h 0.181345v 2.04039h 0.181345v
 2.35545h 0.181345v -5.3222h 0.181345v 2.96674h 0.36269v -5.45007h 0.181345v 7.80552h 0.181345v 4.39584h 0.181345v -8.79168h 0.181345v 5.72539h 0.181345v 3.06629h 0.36269v -7.80552h 0.181345v -4.39584h 0.181345v 3.40968h 0.181345v 4.39584h 0.181345v
 -1.22307h 0.36269v 7.41866h 0.181345v -6.19559h 0.181345v -8.55104h 0.181345v 19.1425h 0.181345v -11.8145h 0.181345v 4.00898h 0.181345v -4.00898h 0.181345v -1.13238h 0.181345v 8.55104h 0.36269v -8.55104h 0.181345v 8.55104h 0.181345v -4.86604h
 0.181345v -4.73923h 0.181345v 9.60527h 0.181345v -1.79975h 0.181345v -3.06629h 0.181345v -2.55262h 0.181345v 4.00898h 0.181345v 5.45007h 0.181345v -6.90642h 0.181345v 4.86604h 0.181345v -10.5914h 0.181345v -3.40968h 0.181345v 12.2014h 0.36269v
 -7.80552h 0.181345v 3.40968h 0.181345v -3.40968h 0.181345v 1.05423h 0.181345v -3.84014h 0.181345v 3.84014h 0.181345v -5.45007h 0.181345v 5.45007h 0.181345v -6.90642h 0.181345v -1.32955h 0.36269v 6.19559h 0.181345v -7.99534h 0.181345v -1.09191h
 0.181345v 3.54198h 0.181345v -2.45007h 0.181345v -2.11097h 0.36269v 3.28695h 0.181345v -2.78591h 0.181345v -0.986162h 0.181345v 7.96552h 0.181345v -1.5293h 0.181345v -7.80552h 0.181345v 6.41545h 0.181345v -1.27409h 0.181345v 5.893h 0.181345v
 -7.06898h 0.181345v 3.84014h 0.181345v 2.35545h 0.181345v -2.35545h 0.36269v -3.84014h 0.181345v 3.1293h 0.181345v 5.8522h 0.181345v -6.53143h 0.181345v 2.91936h 0.181345v 4.66629h 0.181345v -2.04039h 0.181345v 2.04039h 0.181345v 1.13238h 0.181345v
 7.41866h 0.181345v -10.5914h 0.181345v 3.17277h 0.181345v -3.17277h 0.181345v 3.17277h 0.181345v -8.03881h 0.181345v 12.0478h 0.181345v 7.80552h 0.181345v -10.5914h 0.181345v -7.02175h 0.181345v 2.62591h 0.181345v -0.926357h 0.181345v 1.91252h
 0.181345v -6.53143h 0.181345v 3.74552h 0.181345v -6.75129h 0.181345v 1.73169h 0.181345v -4.69843h 0.181345v -7.89514h 0.181345v 9.80766h 0.181345v -4.00898h 0.181345v -5.2529h 0.181345v -1.58212h 0.181345v -0.733591h 0.181345v -1.79975h 0.181345v
 2.53334h 0.181345v -5.77229h 0.181345v 2.21305h 0.181345v -3.84014h 0.181345v -2.68267h 0.181345v 3.15286h 0.181345v -2.75936h 0.181345v -0.522451h 0.181345v -2.91378h 0.181345v 2.28488h 0.181345v -1.85442h 0.181345v -2.32424h 0.181345v 3.69353h
 0.181345v -4.24589h 0.181345v 1.42024h 0.181345v 1.0259h 0.181345v -0.926357h 0.181345v -0.683574h 0.181345v 0.783772h 0.181345v -1.25397h 0.181345v 0.470197h 0.181345v -0.189819h 0.181345v -0.18749h 0.181345v 0.961336h 0.181345v -5.02754h 0.181345v
 1.4207h 0.181345v 1.3938h 0.181345v -0.255385h 0.181345v -1.52528h 0.181345v -0.962268h 0.181345v 0.144154h 0.181345v -0.776528h 0.181345v -0.999062h 0.181345v -0.815975h 0.181345v 0.751637h 0.36269v 0.655903h 0.181345v -0.910579h 0.181345v 1.31808h
 0.181345v -1.50634h 0.181345v -1.48468h 0.181345v 2.38378h 0.181345v 0.402134h 0.181345v 0.55319h 0.181345v 1.32315h 0.181345v -1.25257h 0.181345v 2.53334h 0.181345v 0.947245h 0.181345v 1.98971h 0.181345v -0.595408h 0.181345v 0.195903h 0.181345v
 4.82911h 0.181345v -0.790532h 0.181345v 2.65804h 0.181345v 3.21986h 0.181345v -0.555705h 0.181345v 2.14469h 0.181345v 3.25349h 0.181345v -1.71318h 0.181345v 3.64297h 0.181345v 3.63167h 0.36269v 3.31679h 0.181345v 6.90642h 0.181345v -3.84014h
 0.181345v -6.38308h 0.181345v 10.9687h 0.181345v 5.45007h 0.181345v -2.96674h 0.181345v -0.873392h 0.181345v 2.78591h 0.181345v 4.73923h 0.181345v 6.90642h 0.181345v -5.45007h 0.181345v 1.60993h 0.181345v 1.79975h 0.181345v -11.5178h 0.181345v
 5.3222h 0.181345v 13.3773h 0.181345v -5.14136h 0.181345v -3.84014h 0.181345v 12.3912h 0.181345v -6.19559h 0.181345v 2.78591h 0.181345v 3.40968h 0.181345v -3.40968h 0.181345v -2.78591h 0.36269v -2.35545h 0.181345v -2.04039h 0.181345v 7.18175h
 0.181345v 24.5925h 0.181345v -10.5914h 0.181345v -14.0011h 0.36269v 14.0011h 0.181345v -14.0011h 0.181345v 7.80552h 0.36269v -4.39584h 0.181345v 4.39584h 0.181345v 6.19559h 0.181345v 10.5914h 0.181345v -10.5914h 0.36269v -10.5914h 0.181345v 10.5914h
 0.181345v -6.19559h 0.181345v 6.19559h 0.181345v 10.5914h 0.181345v -31.7743h 0.181345v 21.1829h 0.181345v -6.19559h 0.181345v -4.39584h 0.181345v 31.7743h 0.181345v -21.1829h 0.544034v -6.19559h 0.181345v -4.39584h 0.181345v 10.5914h 0.181345v
 -6.19559h 0.181345v 6.19559h 0.181345v 10.5914h 0.181345v -10.5914h 0.181345v -16.787h 0.181345v 27.3785h 0.181345v -10.5914h 0.181345v -10.5914h 0.181345v 10.5914h 0.181345v -14.0011h 0.181345v 24.5925h 0.181345v -10.5914h 0.181345v -6.19559h
 0.181345v -4.39584h 0.181345v -3.40968h 0.181345v -2.78591h 0.181345v 6.19559h 0.181345v 4.39584h 0.181345v 16.787h 0.181345v -24.5925h 0.36269v 24.5925h 0.181345v -27.3785h 0.181345v 6.19559h 0.181345v -3.40968h 0.181345v 3.40968h 0.181345v
 21.1829h 0.181345v -24.5925h 0.181345v 24.5925h 0.181345v -24.5925h 0.181345v -2.78591h 0.181345v 2.78591h 0.181345v 3.40968h 0.181345v 4.39584h 0.181345v -4.39584h 0.181345v -14.0011h 0.181345v 18.3969h 0.181345v -10.5914h 0.181345v 6.19559h
 0.181345v -15.4575h 0.181345v 15.4575h 0.181345v -16.787h 0.181345v 2.78591h 0.181345v -2.78591h 0.181345v -5.3222h 0.181345v 8.10811h 0.181345v -1.45636h 0.181345v -3.68501h 0.181345v 1.13238h 0.36269v -2.18661h 0.181345v -4.39584h 0.181345v
 5.45007h 0.36269v 2.35545h 0.181345v -10.5914h 0.181345v 2.04039h 0.181345v 9.8806h 0.181345v 6.90642h 0.181345v -15.2577h 0.181345v 13.2173h 0.181345v -14.7466h 0.181345v 7.32797h 0.181345v 5.61891h 0.181345v -1.60993h 0.181345v -1.45636h 0.181345v
 -1.32955h 0.181345v 6.19559h 0.181345v 2.04039h 0.181345v -8.23598h 0.181345v 13.3773h 0.181345v 14.0011h 0.181345v -16.787h 0.181345v 6.19559h 0.181345v -6.19559h 0.181345v 2.78591h 0.181345v 14.0011h 0.181345v -16.787h 0.181345v 10.5914h 0.181345v
 -4.39584h 0.181345v -3.40968h 0.36269v 3.40968h 0.181345v 21.1829h 0.181345v -21.1829h 0.181345v 4.39584h 0.36269v -7.80552h 0.181345v -5.14136h 0.36269v 29.7339h 0.181345v 10.5914h 0.181345v -21.1829h 0.181345v -6.19559h 0.544034v -4.39584h
 0.181345v 10.5914h 0.544034v -6.19559h 0.725379v 6.19559h 0.181345v 10.5914h 0.181345v -10.5914h 0.181345v -6.19559h 0.36269v -7.80552h 0.181345v 24.5925h 0.181345v -21.1829h 0.181345v 21.1829h 0.181345v -10.5914h 0.181345v 21.1829h 0.181345v
 -35.184h 0.181345v 3.40968h 0.181345v 10.5914h 0.181345v -10.5914h 0.181345v 31.7743h 0.181345v -21.1829h 0.36269v -16.787h 0.181345v 6.19559h 0.181345v 10.5914h 0.181345v -6.19559h 0.181345v 27.3785h 0.181345v -27.3785h 0.36269v 16.787h 0.181345v
 -21.1829h 0.181345v 10.5914h 0.36269v -6.19559h 0.181345v -7.80552h 0.181345v 3.40968h 0.181345v 21.1829h 0.181345v -31.7743h 0.181345v 7.18175h 0.36269v 7.80552h 0.181345v 6.19559h 0.181345v -14.0011h 0.36269v -2.78591h 0.36269v -6.19559h 0.181345v
 1.79975h 0.181345v -1.79975h 0.181345v 22.9826h 0.181345v -6.19559h 0.181345v -10.5914h 0.181345v -4.39584h 0.181345v 7.18175h 0.181345v -12.0478h 0.181345v 15.4575h 0.181345v -3.40968h 0.181345v 3.40968h 0.181345v -8.55104h 0.181345v 5.14136h
 0.181345v -8.9815h 0.181345v 1.79975h 0.181345v 21.1829h 0.181345v -24.5925h 0.181345v 5.45007h 0.181345v 5.14136h 0.181345v -7.18175h 0.181345v -6.19559h 0.181345v 21.1829h 0.181345v -16.787h 0.181345v 8.9815h 0.181345v -7.18175h 0.181345v 2.04039h
 0.181345v 8.55104h 0.181345v 4.39584h 0.181345v -19.8533h 0.181345v 9.26188h 0.181345v 2.78591h 0.181345v -2.78591h 0.181345v 6.19559h 0.36269v 4.39584h 0.181345v -4.39584h 0.181345v 31.7743h 0.181345v -35.184h 0.181345v -5.14136h 0.36269v 12.9469h
 0.181345v -7.80552h 0.181345v 3.40968h 0.181345v 4.39584h 0.181345v -4.39584h 0.181345v 4.39584h 0.181345v -4.39584h 0.181345v -3.40968h 0.181345v -8.9815h 0.181345v 22.9826h 0.181345v -6.19559h 0.181345v -7.80552h 0.181345v -7.18175h 0.181345v
 10.5914h 0.181345v 10.5914h 0.181345v -6.19559h 0.36269v -14.9873h 0.181345v 14.9873h 0.181345v -7.80552h 0.181345v 3.40968h 0.181345v -10.5914h 0.181345v 31.7743h 0.181345v -24.5925h 0.181345v -2.78591h 0.36269v 2.78591h 0.181345v -2.78591h
 0.181345v 10.5914h 0.181345v -18.3969h 0.181345v 10.5914h 0.181345v 7.80552h 0.181345v -12.9469h 0.181345v 8.55104h 0.181345v -3.40968h 0.36269v -5.14136h 0.181345v 2.35545h 0.36269v 16.787h 0.181345v -10.5914h 0.181345v -3.40968h 0.181345v
 -7.18175h 0.181345v -1.79975h 0.181345v 1.79975h 0.181345v 7.18175h 0.181345v -5.14136h 0.181345v 5.14136h 0.181345v -7.18175h 0.181345v 21.1829h 0.181345v -21.1829h 0.181345v 4.39584h 0.181345v -7.80552h 0.181345v 5.45007h 0.181345v -2.04039h
 0.181345v 2.04039h 0.181345v 2.35545h 0.36269v -10.5914h 0.181345v 8.23598h 0.181345v 8.55104h 0.181345v -10.5914h 0.181345v 2.04039h 0.181345v -10.5914h 0.181345v 12.9469h 0.181345v -6.19559h 0.181345v 3.84014h 0.181345v -6.90642h 0.36269v 4.86604h
 0.181345v -3.40968h 0.181345v 10.5914h 0.181345v -8.9815h 0.181345v -7.80552h 0.181345v 6.19559h 0.181345v 3.40968h 0.181345v -3.40968h 0.181345v 1.60993h 0.181345v -4.39584h 0.181345v 10.5914h 0.181345v -14.9873h 0.181345v 17.7732h 0.181345v
 -8.9815h 0.181345v -3.06629h 0.181345v -3.68501h 0.181345v 12.9469h 0.181345v -2.35545h 0.181345v -10.5914h 0.181345v 5.14136h 0.544034v -1.45636h 0.181345v 1.45636h 0.181345v 1.60993h 0.181345v -6.75129h 0.181345v 1.13238h 0.181345v 11.8145h
 0.181345v -14.0011h 0.181345v 7.80552h 0.181345v -1.60993h 0.181345v 5.45007h 0.181345v 5.14136h 0.181345v -8.9815h 0.181345v 8.9815h 0.181345v -13.3773h 0.36269v -4.39584h 0.181345v 8.79168h 0.181345v 6.19559h 0.181345v -9.26188h 0.181345v
 -1.32955h 0.181345v -1.22307h 0.181345v 5.61891h 0.181345v 16.787h 0.181345v -24.5925h 0.181345v -5.14136h 0.181345v 6.19559h 0.181345v 5.14136h 0.181345v -8.10811h 0.181345v 15.9136h 0.181345v -9.26188h 0.181345v -7.52514h 0.181345v -0.826158h
 0.181345v 11.4176h 0.181345v -3.06629h 0.181345v -3.68501h 0.181345v -2.04039h 0.181345v 0.986162h 0.181345v -0.986162h 0.181345v 3.17277h 0.181345v -1.13238h 0.181345v 15.7328h 0.181345v -15.7328h 0.181345v -2.04039h 0.181345v 2.04039h 0.36269v
 6.75129h 0.181345v -9.71804h 0.181345v 4.09913h 0.181345v -3.17277h 0.181345v 5.72539h 0.181345v -7.52514h 0.181345v -1.60993h 0.181345v -0.745524h 0.181345v 5.14136h 0.181345v -1.91252h 0.181345v 5.3222h 0.181345v -7.02175h 0.181345v 9.80766h
 0.181345v -12.727h 0.181345v -1.27409h 0.181345v 5.01961h 0.36269v 6.19559h 0.181345v 6.19559h 0.181345v -11.5178h 0.181345v -2.48332h 0.181345v 1.60993h 0.181345v 0.873392h 0.181345v -2.48332h 0.36269v 5.45007h 0.181345v -5.45007h 0.181345v
 3.40968h 0.181345v -1.79975h 0.181345v 1.79975h 0.181345v -3.40968h 0.181345v -2.78591h 0.181345v 3.56968h 0.181345v 0.826158h 0.181345v -8.30655h 0.181345v 8.30655h 0.181345v -6.19559h 0.181345v 1.79975h 0.181345v -4.86604h 0.181345v 4.86604h
 0.181345v -1.79975h 0.181345v 3.84014h 0.181345v 1.5293h 0.181345v 7.02175h 0.181345v -9.26188h 0.181345v 4.86604h 0.181345v -0.926357h 0.181345v -5.893h 0.181345v -1.73169h 0.181345v 6.75129h 0.181345v -6.19559h 0.181345v 3.84014h 0.181345v 1.5293h
 0.181345v -4.79275h 0.181345v -0.57668h 0.181345v 2.45007h 0.181345v 2.91936h 0.181345v -6.46134h 0.181345v 1.09191h 0.181345v 3.1293h 0.181345v -4.22121h 0.181345v 7.2875h 0.181345v -5.61891h 0.181345v 8.40482h 0.181345v -4.39584h 0.181345v
 -0.745524h 0.36269v 3.22885h 0.181345v -0.873392h 0.36269v 4.97252h 0.181345v 9.45905h 0.181345v -12.6318h 0.181345v 5.72539h 0.181345v -7.52514h 0.181345v -1.60993h 0.181345v 9.13507h 0.181345v -4.73923h 0.181345v 14.0011h 0.181345v -14.0011h
 0.181345v 3.40968h 0.181345v -7.80552h 0.181345v 5.45007h 0.181345v -2.04039h 0.181345v 7.18175h 0.181345v -2.78591h 0.181345v -7.02175h 0.181345v 7.02175h 0.181345v 2.78591h 0.181345v -7.18175h 0.181345v 0.986162h 0.181345v 3.40968h 0.181345v
 1.32955h 0.181345v 1.45636h 0.181345v -7.18175h 0.181345v 5.72539h 0.181345v -1.32955h 0.181345v -1.22307h 0.181345v -1.13238h 0.181345v -1.05423h 0.181345v 4.73923h 0.181345v -6.65175h 0.181345v 8.10811h 0.181345v -6.19559h 0.181345v 2.18661h
 0.181345v -4.09913h 0.181345v 8.10811h 0.181345v -5.14136h 0.181345v 1.13238h 0.181345v -2.18661h 0.181345v 4.73923h 0.181345v -9.13507h 0.181345v 4.39584h 0.181345v -2.78591h 0.181345v 4.97252h 0.181345v 4.00898h 0.181345v -6.19559h 0.181345v
 -1.91252h 0.181345v 4.09913h 0.181345v -5.79868h 0.181345v 0.826158h 0.181345v -0.826158h 0.181345v 5.79868h 0.36269v 2.55262h 0.181345v -4.73923h 0.181345v -2.78591h 0.181345v 3.84014h 0.181345v 1.13238h 0.181345v 1.22307h 0.181345v -4.39584h
 0.181345v 8.79168h 0.181345v -6.75129h 0.181345v 15.7328h 0.181345v -10.5914h 0.181345v -4.00898h 0.181345v -8.71804h 0.181345v 2.91936h 0.181345v 5.79868h 0.181345v -2.18661h 0.181345v -0.986162h 0.181345v 2.04039h 0.181345v 2.35545h 0.181345v
 -6.19559h 0.181345v 2.78591h 0.181345v 6.19559h 0.181345v -8.10811h 0.181345v 13.5582h 0.181345v -12.6318h 0.181345v -1.79975h 0.181345v 6.19559h 0.181345v -2.35545h 0.181345v -2.04039h 0.181345v 2.04039h 0.181345v -3.84014h 0.36269v -2.35545h
 0.181345v 7.32797h 0.181345v -1.13238h 0.181345v 2.35545h 0.181345v -3.40968h 0.181345v 1.05423h 0.181345v -4.66629h 0.181345v 3.61207h 0.181345v -0.986162h 0.181345v 0.986162h 0.181345v 1.05423h 0.181345v 1.13238h 0.181345v 2.55262h 0.181345v
 -11.2707h 0.181345v 6.53143h 0.36269v -4.39584h 0.181345v 3.40968h 0.36269v 2.04039h 0.181345v -5.45007h 0.181345v 9.13507h 0.181345v 4.86604h 0.181345v -11.5178h 0.181345v 8.10811h 0.181345v -14.0011h 0.181345v 5.893h 0.181345v 2.96674h 0.181345v
 -1.05423h 0.181345v -1.91252h 0.181345v 4.09913h 0.181345v -4.09913h 0.181345v -3.22885h 0.181345v 6.19559h 0.181345v 1.13238h 0.181345v -5.79868h 0.181345v 5.79868h 0.181345v -3.17277h 0.181345v 7.18175h 0.181345v -8.10811h 0.181345v 0.926357h
 0.36269v 2.04039h 0.181345v -5.45007h 0.181345v 7.80552h 0.181345v -9.94111h 0.181345v 14.337h 0.181345v 3.84014h 0.181345v -6.90642h 0.181345v -5.72539h 0.181345v -2.62591h 0.181345v 5.79868h 0.181345v 4.00898h 0.36269v -7.18175h 0.181345v 4.39584h
 0.181345v 8.23598h 0.181345v -13.5582h 0.181345v 6.65175h 0.181345v -4.73923h 0.181345v -1.91252h 0.181345v 9.71804h 0.181345v -7.80552h 0.181345v 3.40968h 0.181345v -5.3222h 0.36269v 2.96674h 0.181345v 1.13238h 0.181345v -4.09913h 0.181345v
 -0.873392h 0.181345v 7.52514h 0.181345v -9.13507h 0.181345v 1.60993h 0.181345v 4.97252h 0.181345v -1.13238h 0.181345v -1.05423h 0.181345v -4.39584h 0.181345v 3.40968h 0.181345v -4.1552h 0.181345v -1.39007h 0.181345v 6.53143h 0.181345v -9.53721h
 0.181345v 4.39584h 0.181345v 2.35545h 0.181345v -3.74552h 0.181345v 3.74552h 0.181345v 1.79975h 0.181345v -4.1552h 0.181345v -0.710835h 0.181345v -1.95332h 0.181345v -0.599301h 0.181345v 14.6004h 0.181345v -7.18175h 0.181345v -4.86604h 0.181345v
 1.45636h 0.181345v 4.39584h 0.181345v -3.61207h 0.181345v 1.69955h 0.181345v -3.22885h 0.181345v -1.39007h 0.181345v 8.71804h 0.181345v -3.17277h 0.36269v -1.79975h 0.181345v 3.84014h 0.181345v -3.84014h 0.181345v -3.06629h 0.181345v 0.710835h
 0.181345v 3.22885h 0.181345v -2.48332h 0.181345v 0.783772h 0.181345v -1.5293h 0.181345v 1.5293h 0.181345v 8.3513h 0.36269v -1.32955h 0.181345v -8.55104h 0.181345v 2.35545h 0.181345v 4.97252h 0.181345v 2.55262h 0.181345v -4.73923h 0.181345v -4.39584h
 0.181345v 1.60993h 0.181345v 4.97252h 0.181345v 18.0101h 0.181345v -14.0011h 0.181345v -5.14136h 0.181345v 3.68501h 0.181345v -6.65175h 0.36269v 1.91252h 0.181345v 7.80552h 0.181345v -11.4176h 0.181345v 3.61207h 0.181345v 4.73923h 0.181345v
 -2.55262h 0.181345v 7.41866h 0.181345v -6.19559h 0.181345v 6.19559h 0.181345v -4.86604h 0.181345v -6.65175h 0.181345v 6.65175h 0.181345v -8.3513h 0.181345v 3.61207h 0.181345v 14.0011h 0.181345v -9.26188h 0.181345v -8.3513h 0.181345v -2.91936h
 0.181345v 2.91936h 0.181345v 2.62591h 0.181345v -0.926357h 0.181345v 6.65175h 0.181345v -8.3513h 0.181345v 3.61207h 0.181345v -1.91252h 0.36269v -3.93968h 0.181345v 12.0478h 0.181345v -9.80766h 0.181345v 5.79868h 0.181345v -3.17277h 0.181345v
 10.5914h 0.181345v -6.19559h 0.181345v -5.3222h 0.181345v 0.926357h 0.181345v -0.926357h 0.181345v 5.3222h 0.181345v -6.19559h 0.181345v -0.826158h 0.36269v 3.61207h 0.181345v -4.39584h 0.181345v 9.13507h 0.181345v -2.55262h 0.181345v -2.18661h
 0.181345v 3.40968h 0.181345v -5.3222h 0.181345v 2.96674h 0.181345v 2.35545h 0.181345v 4.39584h 0.181345v -1.60993h 0.181345v -6.19559h 0.181345v 7.80552h 0.181345v -7.80552h 0.181345v 6.19559h 0.181345v -1.45636h 0.181345v -1.32955h 0.36269v
 -6.19559h 0.181345v 12.3912h 0.181345v -4.86604h 0.181345v 1.45636h 0.181345v 5.45007h 0.181345v -2.04039h 0.181345v -4.86604h 0.544034v 9.26188h 0.181345v -6.19559h 0.181345v -1.60993h 0.181345v 35.184h 0.181345v -33.574h 0.181345v -4.39584h
 0.181345v -1.22307h 0.181345v 11.8145h 0.181345v -12.9469h 0.181345v 3.68501h 0.181345v 19.8533h 0.181345v -4.39584h 0.181345v -6.19559h 0.181345v -7.80552h 0.181345v 5.45007h 0.181345v 2.35545h 0.181345v 6.19559h 0.36269v -12.3912h 0.181345v
 8.9815h 0.181345v -8.9815h 0.181345v 12.3912h 0.181345v 4.39584h 0.181345v -14.9873h 0.181345v 2.04039h 0.181345v 8.55104h 0.181345v -3.40968h 0.36269v 3.40968h 0.181345v 21.1829h 0.181345v -27.3785h 0.181345v -10.5914h 0.181345v 6.19559h 0.181345v
 7.18175h 0.181345v -8.9815h 0.181345v 6.19559h 0.181345v -4.39584h 0.181345v -1.79975h 0.181345v 8.9815h 0.181345v -15.7328h 0.181345v 8.55104h 0.36269v -6.19559h 0.181345v 10.5914h 0.36269v 10.5914h 0.181345v -10.5914h 0.544034v -6.19559h 0.181345v
 8.9815h 0.181345v -5.14136h 0.181345v 5.14136h 0.181345v 3.40968h 0.181345v -20.1967h 0.181345v 16.787h 0.36269v -12.0478h 0.181345v 12.0478h 0.181345v -5.14136h 0.36269v 2.35545h 0.181345v -9.26188h 0.181345v 9.26188h 0.181345v -9.26188h 0.181345v
 15.4575h 0.181345v -14.0011h 0.181345v 7.80552h 0.181345v -10.5914h 0.181345v 16.787h 0.181345v -3.40968h 0.181345v 3.40968h 0.181345v -12.3912h 0.181345v -3.06629h 0.181345v 1.45636h 0.181345v -4.00898h 0.181345v 14.6004h 0.181345v -7.18175h
 0.36269v 2.04039h 0.181345v 8.55104h 0.181345v -8.55104h 0.181345v -2.04039h 0.181345v 4.39584h 0.181345v 2.78591h 0.181345v -13.3773h 0.181345v 2.78591h 0.181345v 10.5914h 0.181345v -2.78591h 0.181345v -2.35545h 0.181345v -8.23598h 0.181345v
 2.78591h 0.181345v -1.45636h 0.181345v -4.73923h 0.181345v 20.1967h 0.181345v -8.55104h 0.181345v 5.14136h 0.181345v -7.18175h 0.181345v 14.9873h 0.181345v -12.9469h 0.36269v 2.35545h 0.181345v -4.39584h 0.181345v -6.19559h 0.181345v 4.39584h
 0.36269v -1.60993h 0.181345v -1.45636h 0.181345v 19.8533h 0.181345v -14.9873h 0.181345v 2.04039h 0.181345v 2.35545h 0.181345v -6.19559h 0.181345v -6.75129h 0.181345v 2.35545h 0.181345v 16.787h 0.181345v -3.40968h 0.181345v -8.9815h 0.36269v
 -4.39584h 0.181345v 13.3773h 0.181345v -5.14136h 0.36269v 2.35545h 0.36269v -6.19559h 0.181345v -3.06629h 0.181345v 1.45636h 0.181345v 5.45007h 0.181345v -8.23598h 0.181345v 6.19559h 0.181345v -1.79975h 0.181345v -3.06629h 0.181345v -1.32955h
 0.181345v 10.5914h 0.181345v -11.8145h 0.181345v 7.41866h 0.181345v -7.41866h 0.181345v 7.41866h 0.181345v -1.79975h 0.181345v 1.79975h 0.181345v -8.55104h 0.181345v 1.13238h 0.181345v 1.22307h 0.181345v 2.78591h 0.181345v 5.45007h 0.181345v
 -10.5914h 0.181345v 10.5914h 0.181345v -5.45007h 0.181345v -6.19559h 0.181345v 2.18661h 0.181345v -3.17277h 0.181345v 4.39584h 0.181345v -2.35545h 0.181345v 2.35545h 0.181345v -5.3222h 0.181345v 0.926357h 0.181345v 3.17277h 0.181345v 2.55262h
 0.181345v -2.55262h 0.181345v -4.09913h 0.181345v -0.873392h 0.181345v 1.79975h 0.181345v 4.39584h 0.181345v 8.23598h 0.181345v -11.6457h 0.181345v 1.05423h 0.181345v 10.5914h 0.181345v -17.4979h 0.181345v 3.93968h 0.181345v -2.48332h 0.181345v
 6.58245h 0.181345v -7.32797h 0.181345v -2.04039h 0.181345v 7.18175h 0.181345v 1.05423h 0.181345v -1.05423h 0.36269v -7.18175h 0.181345v 4.39584h 0.36269v -1.60993h 0.36269v 2.48332h 0.181345v -0.873392h 0.181345v 4.97252h 0.181345v -4.97252h
 0.181345v -0.826158h 0.181345v 11.4176h 0.181345v -12.2014h 0.181345v 6.58245h 0.181345v -3.17277h 0.181345v 0.986162h 0.181345v 3.40968h 0.181345v -2.35545h 0.181345v 5.14136h 0.181345v -2.78591h 0.181345v 16.787h 0.181345v -21.1829h 0.181345v
 0.986162h 0.181345v 4.73923h 0.181345v 3.06629h 0.181345v -7.80552h 0.181345v 3.40968h 0.181345v 2.78591h 0.181345v 1.60993h 0.181345v 1.79975h 0.181345v -4.86604h 0.181345v 15.4575h 0.181345v -10.5914h 0.181345v 7.18175h 0.181345v -12.0478h
 0.181345v 9.26188h 0.181345v -2.35545h 0.181345v -6.90642h 0.181345v 9.26188h 0.181345v 2.78591h 0.181345v -13.3773h 0.181345v 27.3785h 0.181345v -16.787h 0.181345v -4.39584h 0.181345v 31.7743h 0.181345v -21.1829h 0.181345v 4.39584h 0.181345v
 -10.5914h 0.181345v 16.787h 0.36269v 10.5914h 0.181345v -16.787h 0.181345v 16.787h 0.181345v -16.787h 0.181345v 6.19559h 0.181345v -10.5914h 0.36269v -6.19559h 0.181345v 16.787h 0.181345v 21.1829h 0.181345v -10.5914h 0.181345v -10.5914h 0.181345v
 10.5914h 0.181345v -21.1829h 0.181345v 31.7743h 0.544034v -31.7743h 0.181345v 21.1829h 0.181345v -10.5914h 0.544034v 10.5914h 0.181345v 10.5914h 0.181345v -10.5914h 0.36269v -10.5914h 0.181345v -6.19559h 0.181345v 6.19559h 0.181345v 10.5914h
 0.36269v -10.5914h 0.36269v 10.5914h 0.36269v -10.5914h 0.181345v 10.5914h 0.181345v 10.5914h 0.36269v -21.1829h 0.181345v 21.1829h 0.36269v -10.5914h 0.544034v 10.5914h 0.181345v -10.5914h 0.36269v 10.5914h 0.181345v -10.5914h 0.181345v 10.5914h
 0.36269v -10.5914h 0.181345v -10.5914h 0.36269v -6.19559h 0.181345v 27.3785h 0.181345v -21.1829h 0.181345v 10.5914h 0.36269v -10.5914h 0.36269v 10.5914h 0.181345v -10.5914h 0.181345v 21.1829h 0.181345v -21.1829h 0.181345v 10.5914h 0.181345v 10.5914h
 0.181345v -10.5914h 0.181345v 10.5914h 0.181345v -21.1829h 0.181345v 21.1829h 0.181345v -21.1829h 0.181345v 10.5914h 0.181345v -10.5914h 0.181345v 10.5914h 0.181345v 10.5914h 0.36269v -10.5914h 0.181345v -10.5914h 0.181345v 10.5914h 0.181345v
 10.5914h 0.181345v -21.1829h 0.181345v 10.5914h 0.36269v 10.5914h 0.725379v -10.5914h 0.181345v 10.5914h 0.181345v -21.1829h 0.181345v 10.5914h 0.181345v -10.5914h 0.181345v 21.1829h 0.181345v -10.5914h 0.181345v 10.5914h 0.181345v -10.5914h
 0.181345v 10.5914h 0.181345v -10.5914h 0.181345v -10.5914h 0.181345v 10.5914h 0.36269v 10.5914h 0.181345v -21.1829h 0.544034v 21.1829h 0.181345v -10.5914h 0.544034v 10.5914h 0.544034v -10.5914h 0.181345v -16.787h 0.181345v 16.787h 0.181345v
 -10.5914h 0.181345v 21.1829h 0.181345v -21.1829h 0.181345v -6.19559h 0.181345v 27.3785h 0.36269v -10.5914h 0.544034v 10.5914h 0.181345v -21.1829h 0.181345v -6.19559h 0.181345v 27.3785h 0.181345v -10.5914h 0.181345v -10.5914h 0.36269v 10.5914h
 0.36269v 10.5914h 0.181345v -27.3785h 0.181345v 16.787h 0.181345v -10.5914h 0.181345v 21.1829h 0.181345v -10.5914h 0.181345v -10.5914h 0.181345v 21.1829h 0.36269v -10.5914h 0.36269v -10.5914h 0.181345v 21.1829h 0.36269v -10.5914h 0.36269v -10.5914h
 0.181345v -6.19559h 0.181345v 27.3785h 0.725379v -10.5914h 0.181345v 10.5914h 0.181345v -10.5914h 0.36269v 10.5914h 0.544034v -31.7743h 0.181345v 31.7743h 0.36269v -10.5914h 0.181345v 10.5914h 0.181345v -10.5914h 0.36269v 10.5914h 0.544034v
 -10.5914h 0.36269v -10.5914h 0.181345v 21.1829h 0.544034v -21.1829h 0.181345v 21.1829h 1.45076v -10.5914h 0.181345v 10.5914h 0.725379v -10.5914h 0.181345v 10.5914h 0.725379v -10.5914h 0.181345v 10.5914h 0.36269v -21.1829h 0.181345v 21.1829h
 0.181345v -21.1829h 0.36269v 10.5914h 0.181345v 10.5914h 0.36269v -10.5914h 0.181345v 10.5914h 0.36269v -10.5914h 0.181345v 10.5914h 0.181345v -10.5914h 0.36269v 10.5914h 1.6321v -10.5914h 0.36269v -16.787h 0.181345v 27.3785h 0.36269v -10.5914h
 0.181345v 10.5914h 0.725379v -10.5914h 0.181345v 10.5914h 0.36269v -10.5914h 0.544034v -10.5914h 0.181345v 10.5914h 0.181345v -16.787h 0.181345v 27.3785h 0.725379v -10.5914h 0.544034v 10.5914h 0.181345v -21.1829h 0.181345v 10.5914h 0.181345v
 10.5914h 0.181345v -10.5914h 0.36269v 10.5914h 0.36269v -10.5914h 0.181345v 10.5914h 0.36269v -10.5914h 0.181345v 10.5914h 0.725379v -21.1829h 0.181345v 21.1829h 0.181345v -21.1829h 0.181345v 10.5914h 0.181345v 10.5914h 1.26941v -10.5914h 0.181345v
 -16.787h 0.181345v 6.19559h 0.181345v 21.1829h 1.08807v -10.5914h 0.36269v 10.5914h 0.181345v -10.5914h 0.181345v 10.5914h 0.181345v -21.1829h 0.181345v 21.1829h 0.181345" fill="none" stroke="black"/>
<path d="M57.1929,280.151h 453.543" fill="none" stroke="black"/>
<path d="M57.1929,272.68v 7.47068" fill="none" stroke="black"/>
<path d="M75.3318,276.415v 3.73534" fill="none" stroke="black"/>
<path d="M93.4707,276.415v 3.73534" fill="none" stroke="black"/>
<path d="M111.61,276.415v 3.73534" fill="none" stroke="black"/>
<path d="M129.749,276.415v 3.73534" fill="none" stroke="black"/>
<path d="M147.887,272.68v 7.47068" fill="none" stroke="black"/>
<path d="M166.026,276.415v 3.73534" fill="none" stroke="black"/>
<path d="M184.165,276.415v 3.73534" fill="none" stroke="black"/>
<path d="M202.304,276.415v 3.73534" fill="none" stroke="black"/>
<path d="M220.443,276.415v 3.73534" fill="none" stroke="black"/>
<path d="M238.582,272.68v 7.47068" fill="none" stroke="black"/>
<path d="M256.721,276.415v 3.73534" fill="none" stroke="black"/>
<path d="M274.86,276.415v 3.73534" fill="none" stroke="black"/>
<path d="M292.999,276.415v 3.73534" fill="none" stroke="black"/>
<path d="M311.138,276.415v 3.73534" fill="none" stroke="black"/>
<path d="M329.277,272.68v 7.47068" fill="none" stroke="black"/>
<path d="M347.415,276.415v 3.73534" fill="none" stroke="black"/>
<path d="M365.554,276.415v 3.73534" fill="none" stroke="black"/>
<path d="M383.693,276.415v 3.73534" fill="none" stroke="black"/>
<path d="M401.832,276.415v 3.73534" fill="none" stroke="black"/>
<path d="M419.971,272.68v 7.47068" fill="none" stroke="black"/>
<path d="M438.11,276.415v 3.73534" fill="none" stroke="black"/>
<path d="M456.249,276.415v 3.73534" fill="none" stroke="black"/>
<path d="M474.388,276.415v 3.73534" fill="none" stroke="black"/>
<path d="M492.527,276.415v 3.73534" fill="none" stroke="black"/>
<path d="M510.666,272.68v 7.47068" fill="none" stroke="black"/>
<path d="M510.666,272.68v 7.47068" fill="none" stroke="black"/>
<text xml:space="preserve" x="54.3523" y="290.27" fill="black" font-size="10.4952" font-family="Helvetica">0</text>
<text xml:space="preserve" x="139.569" y="290.27" fill="black" font-size="10.4952" font-family="Helvetica">500</text>
<text xml:space="preserve" x="227.449" y="290.27" fill="black" font-size="10.4952" font-family="Helvetica">1000</text>
<text xml:space="preserve" x="318.288" y="290.27" fill="black" font-size="10.4952" font-family="Helvetica">1500</text>
<text xml:space="preserve" x="408.831" y="290.27" fill="black" font-size="10.4952" font-family="Helvetica">2000</text>
<text xml:space="preserve" x="499.67" y="290.27" fill="black" font-size="10.4952" font-family="Helvetica">2500</text>
<text xml:space="preserve" x="265.323" y="301.218" fill="black" font-size="10.4952" font-family="Helvetica">Channel</text>
<path d="M57.1929,280.151v -249.023" fill="none" stroke="black"/>
<path d="M63.9961,280.151h -6.80315" fill="none" stroke="black"/>
<path d="M63.9961,277.365h -6.80315" fill="none" stroke="black"/>
<path d="M63.9961,275.009h -6.80315" fill="none" stroke="black"/>
<path d="M63.9961,272.969h -6.80315" fill="none" stroke="black"/>
<path d="M63.9961,271.169h -6.80315" fill="none" stroke="black"/>
<path d="M70.7992,269.559h -13.6063" fill="none" stroke="black"/>
<text xml:space="preserve" x="49.0263" y="273.404" fill="black" font-size="10.4952" font-family="Helvetica">1</text>
<path d="M63.9961,258.968h -6.80315" fill="none" stroke="black"/>
<path d="M63.9961,252.772h -6.80315" fill="none" stroke="black"/>
<path d="M63.9961,248.376h -6.80315" fill="none" stroke="black"/>
<path d="M63.9961,244.967h -6.80315" fill="none" stroke="black"/>
<path d="M63.9961,242.181h -6.80315" fill="none" stroke="black"/>
<path d="M63.9961,239.825h -6.80315" fill="none" stroke="black"/>
<path d="M63.9961,237.785h -6.80315" fill="none" stroke="black"/>
<path d="M63.9961,235.985h -6.80315" fill="none" stroke="black"/>
<path d="M70.7992,234.375h -13.6063" fill="none" stroke="black"/>
<text xml:space="preserve" x="41.629" y="238.193" fill="black" font-size="10.4952" font-family="Helvetica">10</text>
<path d="M63.9961,223.784h -6.80315" fill="none" stroke="black"/>
<path d="M63.9961,217.588h -6.80315" fill="none" stroke="black"/>
<path d="M63.9961,213.192h -6.80315" fill="none" stroke="black"/>
<path d="M63.9961,209.783h -6.80315" fill="none" stroke="black"/>
<path d="M63.9961,206.997h -6.80315" fill="none" stroke="black"/>
<path d="M63.9961,204.641h -6.80315" fill="none" stroke="black"/>
<path d="M63.9961,202.601h -6.80315" fill="none" stroke="black"/>
<path d="M63.9961,200.801h -6.80315" fill="none" stroke="black"/>
<path d="M70.7992,199.191h -13.6063" fill="none" stroke="black"/>
<text xml:space="preserve" x="49.0263" y="199.431" fill="black" font-size="7.16345" font-family="Helvetica">2</text>
<text xml:space="preserve" x="38.0783" y="203.87" fill="black" font-size="10.4952" font-family="Helvetica">10</text>
<path d="M63.9961,188.6h -6.80315" fill="none" stroke="black"/>
<path d="M63.9961,182.404h -6.80315" fill="none" stroke="black"/>
<path d="M63.9961,178.008h -6.80315" fill="none" stroke="black"/>
<path d="M63.9961,174.599h -6.80315" fill="none" stroke="black"/>
<path d="M63.9961,171.813h -6.80315" fill="none" stroke="black"/>
<path d="M63.9961,169.457h -6.80315" fill="none" stroke="black"/>
<path d="M63.9961,167.417h -6.80315" fill="none" stroke="black"/>
<path d="M63.9961,165.617h -6.80315" fill="none" stroke="black"/>
<path d="M70.7992,164.007h -13.6063" fill="none" stroke="black"/>
<text xml:space="preserve" x="49.0263" y="163.924" fill="black" font-size="7.16345" font-family="Helvetica">3</text>
<text xml:space="preserve" x="38.0783" y="168.658" fill="black" font-size="10.4952" font-family="Helvetica">10</text>
<path d="M63.9961,153.416h -6.80315" fill="none" stroke="black"/>
<path d="M63.9961,147.22h -6.80315" fill="none" stroke="black"/>
<path d="M63.9961,142.824h -6.80315" fill="none" stroke="black"/>
<path d="M63.9961,139.415h -6.80315" fill="none" stroke="black"/>
<path d="M63.9961,136.629h -6.80315" fill="none" stroke="black"/>
<path d="M63.9961,134.273h -6.80315" fill="none" stroke="black"/>
<path d="M63.9961,132.233h -6.80315" fill="none" stroke="black"/>
<path d="M63.9961,130.433h -6.80315" fill="none" stroke="black"/>
<path d="M70.7992,128.823h -13.6063" fill="none" stroke="black"/>
<text xml:space="preserve" x="49.0263" y="129.009" fill="black" font-size="7.16345" font-family="Helvetica">4</text>
<text xml:space="preserve" x="38.0783" y="133.447" fill="black" font-size="10.4952" font-family="Helvetica">10</text>
<path d="M63.9961,118.232h -6.80315" fill="none" stroke="black"/>
<path d="M63.9961,112.036h -6.80315" fill="none" stroke="black"/>
<path d="M63.9961,107.64h -6.80315" fill="none" stroke="black"/>
<path d="M63.9961,104.231h -6.80315" fill="none" stroke="black"/>
<path d="M63.9961,101.445h -6.80315" fill="none" stroke="black"/>
<path d="M63.9961,99.0893h -6.80315" fill="none" stroke="black"/>
<path d="M63.9961,97.049h -6.80315" fill="none" stroke="black"/>
<path d="M63.9961,95.2492h -6.80315" fill="none" stroke="black"/>
<path d="M70.7992,93.6393h -13.6063" fill="none" stroke="black"/>
<text xml:space="preserve" x="49.0263" y="93.5019" fill="black" font-size="7.16345" font-family="Helvetica">5</text>
<text xml:space="preserve" x="38.0783" y="98.2362" fill="black" font-size="10.4952" font-family="Helvetica">10</text>
<path d="M63.9961,83.0479h -6.80315" fill="none" stroke="black"/>
<path d="M63.9961,76.8523h -6.80315" fill="none" stroke="black"/>
<path d="M63.9961,72.4564h -6.80315" fill="none" stroke="black"/>
<path d="M63.9961,69.0467h -6.80315" fill="none" stroke="black"/>
<path d="M63.9961,66.2608h -6.80315" fill="none" stroke="black"/>
<path d="M63.9961,63.9054h -6.80315" fill="none" stroke="black"/>
<path d="M63.9961,61.865h -6.80315" fill="none" stroke="black"/>
<path d="M63.9961,60.0652h -6.80315" fill="none" stroke="black"/>
<path d="M70.7992,58.4553h -13.6063" fill="none" stroke="black"/>
<text xml:space="preserve" x="49.0263" y="58.2907" fill="black" font-size="7.16345" font-family="Helvetica">6</text>
<text xml:space="preserve" x="38.0783" y="63.025" fill="black" font-size="10.4952" font-family="Helvetica">10</text>
<path d="M63.9961,47.8639h -6.80315" fill="none" stroke="black"/>
<path d="M63.9961,41.6683h -6.80315" fill="none" stroke="black"/>
<path d="M63.9961,37.2725h -6.80315" fill="none" stroke="black"/>
<path d="M63.9961,33.8628h -6.80315" fill="none" stroke="black"/>
<g transform="rotate(-90,26.5385,191.442)">
<text xml:space="preserve" x="26.5385" y="191.442" fill="black" font-size="10.4952" font-family="Helvetica">Counts/Channel</text>
</g>
<text xml:space="preserve" x="404.097" y="58.2907" fill="black" font-size="14.7788" font-family="Helvetica" font-weight="bold"> = 2.4879 MeV</text>
<text xml:space="preserve" x="398.179" y="61.5455" fill="black" font-size="10.0192" font-family="Helvetica" font-weight="bold">p</text>
<text xml:space="preserve" x="389.006" y="58.2907" fill="black" font-size="14.7788" font-family="Helvetica" font-weight="bold">E</text>
<path d="M262.163,162.551v 26.4762" fill="none" stroke="black"/>
<path d="M264.454,189.027l -2.29122, 3.9685l -2.29122, -3.9685z" fill="black"/>
<path d="M264.454,189.027l -2.29122, 3.9685l -2.29122, -3.9685h 4.58243z" fill="none" stroke="black"/>
<text xml:space="preserve" x="266.803" y="160.373" fill="black" font-size="10.4952" font-family="Helvetica" font-weight="bold">_1 	1.369 MeV</text>
<text xml:space="preserve" x="260.293" y="160.373" fill="black" font-size="10.4952" font-family="Times">&#0945;</text>
<path d="M184.528,128.823v 31.2155" fill="none" stroke="black"/>
<path d="M186.819,160.039l -2.29122, 3.9685l -2.29122, -3.9685z" fill="black"/>
<path d="M186.819,160.039l -2.29122, 3.9685l -2.29122, -3.9685h 4.58243z" fill="none" stroke="black"/>
<text xml:space="preserve" x="172.117" y="125.754" fill="black" font-size="10.4952" font-family="Helvetica" font-weight="bold"># p_1 	0.844 MeV</text>
<path d="M210.104,147.22v 12.8185" fill="none" stroke="black"/>
<path d="M212.395,160.039l -2.29122, 3.9685l -2.29122, -3.9685z" fill="black"/>
<path d="M212.395,160.039l -2.29122, 3.9685l -2.29122, -3.9685h 4.58243z" fill="none" stroke="black"/>
<text xml:space="preserve" x="197.564" y="142.62" fill="black" font-size="10.4952" font-family="Helvetica" font-weight="bold"># p_2 	1.015 MeV</text>
<path d="M497.471,269.559h 13.1941" fill="none" stroke="black"/>
<path d="M504.069,258.968h 6.59706" fill="none" stroke="black"/>
<path d="M504.069,252.772h 6.59706" fill="none" stroke="black"/>
<path d="M504.069,248.376h 6.59706" fill="none" stroke="black"/>
<path d="M504.069,244.967h 6.59706" fill="none" stroke="black"/>
<path d="M504.069,242.181h 6.59706" fill="none" stroke="black"/>
<path d="M504.069,239.825h 6.59706" fill="none" stroke="black"/>
<path d="M504.069,237.785h 6.59706" fill="none" stroke="black"/>
<path d="M504.069,235.985h 6.59706" fill="none" stroke="black"/>
<path d="M497.471,234.375h 13.1941" fill="none" stroke="black"/>
<path d="M504.069,223.784h 6.59706" fill="none" stroke="black"/>
<path d="M504.069,217.588h 6.59706" fill="none" stroke="black"/>
<path d="M504.069,213.192h 6.59706" fill="none" stroke="black"/>
<path d="M504.069,209.783h 6.59706" fill="none" stroke="black"/>
<path d="M504.069,206.997h 6.59706" fill="none" stroke="black"/>
<path d="M504.069,204.641h 6.59706" fill="none" stroke="black"/>
<path d="M504.069,202.601h 6.59706" fill="none" stroke="black"/>
<path d="M504.069,200.801h 6.59706" fill="none" stroke="black"/>
<path d="M497.471,199.191h 13.1941" fill="none" stroke="black"/>
<path d="M504.069,188.6h 6.59706" fill="none" stroke="black"/>
<path d="M504.069,182.404h 6.59706" fill="none" stroke="black"/>
<path d="M504.069,178.008h 6.59706" fill="none" stroke="black"/>
<path d="M504.069,174.599h 6.59706" fill="none" stroke="black"/>
<path d="M504.069,171.813h 6.59706" fill="none" stroke="black"/>
<path d="M504.069,169.457h 6.59706" fill="none" stroke="black"/>
<path d="M504.069,167.417h 6.59706" fill="none" stroke="black"/>
<path d="M504.069,165.617h 6.59706" fill="none" stroke="black"/>
<path d="M497.471,164.007h 13.1941" fill="none" stroke="black"/>
<path d="M504.069,153.416h 6.59706" fill="none" stroke="black"/>
<path d="M504.069,147.22h 6.59706" fill="none" stroke="black"/>
<path d="M504.069,142.824h 6.59706" fill="none" stroke="black"/>
<path d="M504.069,139.415h 6.59706" fill="none" stroke="black"/>
<path d="M504.069,136.629h 6.59706" fill="none" stroke="black"/>
<path d="M504.069,134.273h 6.59706" fill="none" stroke="black"/>
<path d="M504.069,132.233h 6.59706" fill="none" stroke="black"/>
<path d="M504.069,130.433h 6.59706" fill="none" stroke="black"/>
<path d="M497.471,128.823h 13.1941" fill="none" stroke="black"/>
<path d="M504.069,118.232h 6.59706" fill="none" stroke="black"/>
<path d="M504.069,112.036h 6.59706" fill="none" stroke="black"/>
<path d="M504.069,107.64h 6.59706" fill="none" stroke="black"/>
<path d="M504.069,104.231h 6.59706" fill="none" stroke="black"/>
<path d="M504.069,101.445h 6.59706" fill="none" stroke="black"/>
<path d="M504.069,99.0893h 6.59706" fill="none" stroke="black"/>
<path d="M504.069,97.049h 6.59706" fill="none" stroke="black"/>
<path d="M504.069,95.2492h 6.59706" fill="none" stroke="black"/>
<path d="M497.471,93.6393h 13.1941" fill="none" stroke="black"/>
<path d="M504.069,83.0479h 6.59706" fill="none" stroke="black"/>
<path d="M504.069,76.8523h 6.59706" fill="none" stroke="black"/>
<path d="M504.069,72.4564h 6.59706" fill="none" stroke="black"/>
<path d="M504.069,69.0467h 6.59706" fill="none" stroke="black"/>
<path d="M504.069,66.2608h 6.59706" fill="none" stroke="black"/>
<path d="M504.069,63.9054h 6.59706" fill="none" stroke="black"/>
<path d="M504.069,61.865h 6.59706" fill="none" stroke="black"/>
<path d="M504.069,60.0652h 6.59706" fill="none" stroke="black"/>
<path d="M497.471,58.4553h 13.1941" fill="none" stroke="black"/>
<path d="M504.069,47.8639h 6.59706" fill="none" stroke="black"/>
<path d="M504.069,41.6683h 6.59706" fill="none" stroke="black"/>
<path d="M504.069,37.2725h 6.59706" fill="none" stroke="black"/>
<path d="M504.069,33.8628h 6.59706" fill="none" stroke="black"/>
<path d="M504.069,31.0769h 6.59706" fill="none" stroke="black"/>
<path d="M504.069,28.7214h 6.59706" fill="none" stroke="black"/>
<path d="M57.1929,35.5497v -7.46952" fill="none" stroke="black"/>
<path d="M75.3318,35.5497v -7.46952" fill="none" stroke="black"/>
<path d="M93.4707,35.5497v -7.46952" fill="none" stroke="black"/>
<path d="M111.61,35.5497v -7.46952" fill="none" stroke="black"/>
<path d="M129.749,35.5497v -7.46952" fill="none" stroke="black"/>
<path d="M147.887,35.5497v -7.46952" fill="none" stroke="black"/>
<path d="M166.026,35.5497v -7.46952" fill="none" stroke="black"/>
<path d="M184.165,35.5497v -7.46952" fill="none" stroke="black"/>
<path d="M202.304,35.5497v -7.46952" fill="none" stroke="black"/>
<path d="M220.443,35.5497v -7.46952" fill="none" stroke="black"/>
<path d="M238.582,35.5497v -7.46952" fill="none" stroke="black"/>
<path d="M256.721,35.5497v -7.46952" fill="none" stroke="black"/>
<path d="M274.86,35.5497v -7.46952" fill="none" stroke="black"/>
<path d="M292.999,35.5497v -7.46952" fill="none" stroke="black"/>
<path d="M311.138,35.5497v -7.46952" fill="none" stroke="black"/>
<path d="M329.277,35.5497v -7.46952" fill="none" stroke="black"/>
<path d="M347.415,35.5497v -7.46952" fill="none" stroke="black"/>
<path d="M365.554,35.5497v -7.46952" fill="none" stroke="black"/>
<path d="M383.693,35.5497v -7.46952" fill="none" stroke="black"/>
<path d="M401.832,35.5497v -7.46952" fill="none" stroke="black"/>
<path d="M419.971,35.5497v -7.46952" fill="none" stroke="black"/>
<path d="M438.11,35.5497v -7.46952" fill="none" stroke="black"/>
<path d="M456.249,35.5497v -7.46952" fill="none" stroke="black"/>
<path d="M474.388,35.5497v -7.46952" fill="none" stroke="black"/>
<path d="M492.527,35.5497v -7.46952" fill="none" stroke="black"/>
<path d="M510.666,35.5497v -7.46952" fill="none" stroke="black"/></svg>
