<?xml version="1.0" standalone="no"?>
<svg width="567.429" height="311.778" viewBox="0 0 567.429 311.778" xmlns="http://www.w3.org/2000/svg" shape-rendering="crispEdges">
<title>
Yields/P1/run_0101/det12_Fit.svg
</title>
<desc>
Creator: ROOT Version 6.12/06
CreationDate: Mon Apr 15 10:29:02 2019</desc>
<defs>
</defs>
<rect x="0.5" y="0" width="566.929" height="311.278" fill="white"/>
<rect x="57.1929" y="31.1278" width="453.543" height="249.023" fill="white"/>
<rect x="57.1929" y="31.1278" width="453.543" height="249.023" fill="none" stroke="black"/>
<path d="M57.1929,40.8956h 0.181345v 239.255h 12.5128v -10.5942h 0.181345v 10.5942h 1.99479v -10.5942h 0.181345v 10.5942h 9.79262v -10.5942h 0.181345v 10.5942h 3.26421v -21.1884h 0.181345v 21.1884h 1.6321v -10.5942h 0.181345v 10.5942h 0.181345v
 -27.3856h 0.181345v 27.3856h 0.181345v -10.5942h 0.181345v 10.5942h 0.181345v -35.1931h 0.181345v -16.7914h 0.181345v -1.91301h 0.181345v -20.4987h 0.181345v -10.7113h 0.181345v -10.4182h 0.181345v -4.02363h 0.181345v -4.68897h 0.181345v -2.20274h
 0.181345v -1.87387h 0.181345v -0.328704h 0.181345v -1.83631h 0.181345v -0.372536h 0.181345v -0.405893h 0.181345v -1.25417h 0.181345v 0.038891h 0.181345v -0.460286h 0.181345v -0.317847h 0.181345v -1.31138h 0.181345v 0.76611h 0.181345v -1.34923h
 0.181345v 0.719585h 0.181345v -0.389103h 0.181345v -0.476898h 0.181345v 0.310764h 0.181345v -0.710269h 0.181345v 0.415704h 0.181345v 0.477412h 0.181345v -1.49621h 0.181345v -0.240701h 0.181345v 0.859577h 0.181345v -0.0157813h 0.181345v 1.19712h
 0.181345v -1.81537h 0.181345v -0.374081h 0.181345v 0.851028h 0.181345v -0.865803h 0.181345v 0.223131h 0.181345v 0.135459h 0.181345v 0.045421h 0.181345v -0.0756269h 0.181345v -0.179992h 0.181345v 0.0747394h 0.181345v 0.425432h 0.181345v -0.795527h
 0.181345v -0.160045h 0.181345v -0.115353h 0.181345v 0.765841h 0.181345v -0.343479h 0.181345v 0.313303h 0.181345v 0.884262h 0.181345v 0.176698h 0.181345v -0.586401h 0.181345v 1.04562h 0.36269v -0.0830212h 0.181345v 1.31335h 0.181345v -1.16358h
 0.181345v 0.0334812h 0.181345v -1.91893h 0.181345v 0.059241h 0.181345v -2.33485h 0.181345v -2.06955h 0.181345v -2.5832h 0.181345v -3.55455h 0.181345v -3.45665h 0.181345v -3.12043h 0.181345v -3.21077h 0.181345v -2.76373h 0.181345v -2.29747h 0.181345v
 -2.05852h 0.181345v -1.62905h 0.181345v -0.410631h 0.181345v -0.0709543h 0.181345v 0.702339h 0.181345v 1.30276h 0.181345v 1.56449h 0.181345v 2.7926h 0.181345v 2.6926h 0.181345v 3.65496h 0.181345v 3.96623h 0.181345v 4.96742h 0.181345v 3.43489h
 0.181345v 4.69124h 0.181345v 4.02055h 0.181345v 3.6522h 0.181345v 1.37742h 0.181345v 1.69519h 0.181345v 1.10232h 0.181345v 1.0475h 0.181345v -1.37065h 0.181345v 1.09338h 0.181345v 0.666924h 0.181345v 0.697358h 0.181345v 0.418771h 0.181345v
 -0.456278h 0.181345v -0.333486h 0.181345v -0.0366088h 0.181345v 0.558558h 0.36269v 1.55566h 0.181345v -0.249883h 0.181345v -1.60622h 0.181345v 1.44187h 0.181345v 1.10128h 0.181345v -1.58397h 0.181345v 0.0793985h 0.181345v 0.281188h 0.181345v
 -0.360587h 0.181345v 0.279718h 0.181345v -0.554409h 0.181345v 2.3043h 0.181345v -2.14794h 0.181345v -0.464365h 0.181345v 0.385984h 0.181345v 1.4333h 0.181345v -0.297615h 0.181345v 0.340608h 0.181345v 0.129711h 0.181345v 0.307009h 0.181345v 1.63498h
 0.181345v -1.23097h 0.181345v 0.650488h 0.181345v 0.433281h 0.181345v -1.17448h 0.181345v 1.67076h 0.181345v -0.150584h 0.181345v 0.456278h 0.181345v 0.311933h 0.181345v -0.516406h 0.181345v -0.743299h 0.181345v 0.243772h 0.181345v 1.22748h
 0.181345v -0.158936h 0.181345v -1.06855h 0.181345v 2.16074h 0.36269v 0.754211h 0.181345v -0.352727h 0.181345v 0.116674h 0.181345v -0.630956h 0.181345v -1.03201h 0.181345v 1.03201h 0.181345v -0.713574h 0.181345v -0.370865h 0.181345v 2.62005h
 0.181345v -1.07933h 0.181345v -0.229841h 0.181345v -0.832375h 0.181345v -0.373454h 0.181345v 2.89241h 0.181345v -0.501165h 0.181345v -0.0615058h 0.181345v 0.626488h 0.181345v -0.564982h 0.181345v -1.07092h 0.181345v -1.00078h 0.181345v 3.09102h
 0.181345v 0.81174h 0.181345v -0.207012h 0.181345v 1.36108h 0.181345v -2.42015h 0.181345v 0.257967h 0.181345v 0.869793h 0.181345v -2.17799h 0.181345v -0.643023h 0.181345v 0.883724h 0.181345v 0.682165h 0.181345v -1.27696h 0.181345v 2.53208h 0.181345v
 1.06926h 0.181345v -2.57598h 0.181345v -0.908238h 0.181345v 0.908238h 0.181345v 1.71468h 0.181345v -1.46308h 0.181345v 0.71404h 0.181345v -2.4507h 0.181345v 0.401483h 0.181345v -0.957333h 0.181345v 0.331078h 0.181345v 0.281484h 0.181345v 0.114061h
 0.181345v -2.91016h 0.181345v -0.738956h 0.181345v -0.400481h 0.181345v -1.93625h 0.181345v -0.268487h 0.181345v -0.263852h 0.181345v 0.727044h 0.181345v -0.463192h 0.181345v 1.51769h 0.181345v -0.81753h 0.181345v 0.160045h 0.181345v 2.24918h
 0.181345v -0.638834h 0.181345v 2.94837h 0.181345v 0.0542955h 0.181345v 2.22069h 0.181345v -0.249543h 0.181345v 1.76931h 0.181345v -0.343479h 0.181345v -0.468261h 0.181345v -0.0657385h 0.181345v 1.88243h 0.181345v -1.48369h 0.181345v 0.830114h
 0.181345v 0.877801h 0.181345v -1.01932h 0.181345v 0.0705967h 0.181345v -0.210819h 0.181345v 2.01104h 0.181345v -0.62393h 0.181345v 0.0766125h 0.181345v 0.627131h 0.181345v 0.405439h 0.181345v 0.248529h 0.181345v -1.04893h 0.181345v 0.0781801h
 0.181345v 0.15757h 0.181345v -1.50705h 0.181345v 0.144191h 0.181345v 1.44226h 0.181345v -1.58645h 0.181345v 0.734957h 0.181345v 2.35607h 0.181345v -1.26387h 0.181345v -1.24204h 0.181345v -0.148391h 0.181345v 0.0740155h 0.181345v -2.27103h 0.181345v
 3.18836h 0.181345v 0.975917h 0.181345v -0.41423h 0.181345v -1.55303h 0.181345v -0.21992h 0.181345v 0.745717h 0.181345v -1.17629h 0.181345v 1.0242h 0.181345v -2.31277h 0.181345v 1.07774h 0.181345v 0.787649h 0.181345v -2.18718h 0.181345v -0.439411h
 0.181345v 1.63099h 0.181345v -1.25513h 0.181345v -1.84946h 0.181345v 1.41185h 0.181345v -0.18378h 0.181345v -1.94164h 0.181345v 3.14475h 0.181345v -1.91689h 0.181345v 1.20886h 0.181345v 0.253685h 0.181345v 1.83222h 0.181345v -0.909624h 0.181345v
 -0.468261h 0.181345v 1.89107h 0.181345v -0.148391h 0.181345v -0.93094h 0.181345v -0.745717h 0.181345v 2.9062h 0.181345v -1.08115h 0.181345v 0.225324h 0.181345v -0.150584h 0.181345v 0.456278h 0.181345v 1.2041h 0.181345v -0.892168h 0.181345v 1.1448h
 0.181345v -0.335929h 0.181345v -0.328704h 0.181345v -1.17327h 0.181345v 1.25479h 0.181345v 0.840001h 0.181345v 0.616736h 0.181345v -2.01842h 0.181345v 1.92878h 0.181345v -0.265818h 0.181345v -0.518157h 0.181345v -0.418771h 0.181345v 1.29239h
 0.181345v -1.69999h 0.181345v -0.160045h 0.181345v -0.470319h 0.181345v 0.0773884h 0.181345v 3.27539h 0.181345v -3.35278h 0.181345v 1.12081h 0.181345v -0.328704h 0.181345v 0.579957h 0.181345v -0.16796h 0.181345v 0.596116h 0.181345v -1.0892h
 0.181345v -0.0806554h 0.181345v 0.997147h 0.181345v -0.339662h 0.181345v 0.42577h 0.181345v -0.42577h 0.181345v -1.44146h 0.181345v 1.86723h 0.181345v 0.349368h 0.181345v -1.10742h 0.181345v -0.405439h 0.181345v 0.241971h 0.181345v -0.558752h
 0.181345v -0.614522h 0.181345v 0.22756h 0.181345v 0.230999h 0.181345v -1.47788h 0.181345v 1.32349h 0.181345v 0.547318h 0.181345v 0.901741h 0.181345v -1.52567h 0.181345v 1.02723h 0.181345v 1.54691h 0.181345v -1.70951h 0.181345v -0.864631h 0.181345v
 -0.22756h 0.181345v 1.25479h 0.181345v 0.926597h 0.181345v -2.03006h 0.181345v -1.6559h 0.181345v 1.6559h 0.181345v -0.886287h 0.181345v -0.0715887h 0.181345v 0.508309h 0.181345v 0.0740155h 0.181345v -0.0740155h 0.181345v 0.0740155h 0.181345v
 -0.293935h 0.181345v -0.2168h 0.181345v 1.50705h 0.181345v -2.27667h 0.181345v 0.41498h 0.181345v 0.939748h 0.181345v -1.0097h 0.181345v 0.140223h 0.181345v 0.869476h 0.181345v 0.764368h 0.181345v -1.13268h 0.181345v 0.82233h 0.181345v 0.788018h
 0.181345v -0.160887h 0.181345v -0.159212h 0.181345v 0.729887h 0.36269v 0.251252h 0.181345v -0.66104h 0.36269v 0.830866h 0.181345v -1.38672h 0.181345v 3.39108h 0.181345v -0.759618h 0.181345v -0.81174h 0.181345v 0.719388h 0.181345v 0.754927h 0.181345v
 -1.2085h 0.181345v -1.03661h 0.181345v 1.39838h 0.181345v -2.13217h 0.181345v 1.41699h 0.181345v 1.46547h 0.181345v -3.19761h 0.181345v 1.38672h 0.181345v 1.1524h 0.181345v 2.27953h 0.181345v -0.10651h 0.181345v -1.22339h 0.181345v 0.599456h
 0.181345v 0.413111h 0.181345v -2.054h 0.181345v 0.846724h 0.181345v 3.70356h 0.181345v -2.17896h 0.181345v -1.13268h 0.36269v -1.14685h 0.181345v 1.54909h 0.36269v 0.413111h 0.181345v 0.31733h 0.181345v -0.525281h 0.181345v -1.19158h 0.181345v
 2.7104h 0.181345v -2.7104h 0.181345v 2.48397h 0.181345v -0.873619h 0.181345v 1.3299h 0.181345v 0.11623h 0.181345v 0.354089h 0.36269v 0.609012h 0.181345v -1.30917h 0.181345v 1.68658h 0.181345v -0.501165h 0.181345v -2.0717h 0.181345v 1.58645h
 0.181345v -1.47843h 0.181345v 0.89276h 0.181345v -0.228126h 0.181345v 0.694855h 0.181345v 0.852725h 0.181345v -0.371294h 0.181345v -0.481431h 0.181345v 0.359644h 0.181345v 0.618877h 0.181345v -2.87061h 0.181345v -0.514667h 0.181345v 2.05538h
 0.181345v -0.789764h 0.36269v 0.905994h 0.181345v 1.34051h 0.181345v 0.783975h 0.181345v -1.16138h 0.181345v 0.634289h 0.181345v 1.2126h 0.181345v -2.33602h 0.181345v 0.489135h 0.181345v -4.20944h 0.181345v 4.84373h 0.181345v -1.48027h 0.181345v
 2.27788h 0.181345v -1.30714h 0.181345v 1.30714h 0.181345v -2.04092h 0.181345v 1.11432h 0.181345v -0.629067h 0.181345v -0.839342h 0.181345v 0.59479h 0.181345v 0.121787h 0.181345v -2.47785h 0.181345v 1.18877h 0.181345v 1.1673h 0.181345v 0.368311h
 0.181345v 1.7073h 0.181345v -3.35488h 0.181345v 1.77235h 0.181345v 0.509519h 0.181345v -1.2433h 0.181345v -0.813798h 0.181345v 4.89563h 0.181345v -3.22226h 0.181345v 0.777329h 0.181345v -0.393605h 0.181345v -1.0026h 0.181345v -0.71102h 0.181345v
 1.07933h 0.36269v 1.4319h 0.181345v -1.80022h 0.36269v -1.1673h 0.181345v 1.91301h 0.181345v -0.62393h 0.181345v 0.880813h 0.181345v -0.758048h 0.181345v -0.604196h 0.181345v 3.89199h 0.181345v -1.73213h 0.181345v -2.74108h 0.181345v 1.94346h
 0.181345v -1.0026h 0.181345v -1.27927h 0.181345v 0.111972h 0.181345v 0.926597h 0.181345v -0.926597h 0.181345v 1.04647h 0.181345v -0.820037h 0.181345v 3.29693h 0.181345v -3.63533h 0.181345v 2.41195h 0.181345v -2.63346h 0.181345v -0.433623h 0.181345v
 -0.730441h 0.181345v -0.986418h 0.181345v 0.386962h 0.181345v -0.386962h 0.181345v 1.2952h 0.181345v -1.19937h 0.181345v -0.750294h 0.181345v 0.0917971h 0.181345v -0.806976h 0.181345v 0.264286h 0.181345v -1.27797h 0.181345v 0.668267h 0.181345v
 4.08706h 0.181345v -3.11771h 0.181345v -0.18088h 0.181345v -0.355462h 0.181345v 1.57136h 0.181345v 0.195954h 0.181345v -2.45436h 0.181345v -0.81753h 0.181345v 0.81753h 0.181345v 1.40643h 0.181345v -1.40643h 0.181345v 0.42577h 0.181345v 0.706908h
 0.181345v -0.533223h 0.181345v 2.56122h 0.181345v -3.41056h 0.181345v 0.166134h 0.181345v 2.83683h 0.181345v 0.100886h 0.181345v -1.16879h 0.181345v 0.283925h 0.181345v -1.28206h 0.181345v 0.998134h 0.181345v -2.50271h 0.181345v -0.392931h 0.181345v
 -0.756797h 0.181345v 0.60241h 0.181345v -2.47628h 0.181345v -4.29869h 0.181345v -0.769177h 0.181345v -0.461792h 0.181345v -2.85471h 0.181345v 0.151705h 0.181345v -4.08898h 0.181345v -1.04283h 0.181345v -1.50372h 0.181345v 0.223857h 0.181345v
 -2.27711h 0.181345v -0.278096h 0.181345v -1.83551h 0.181345v 1.52079h 0.181345v -1.46429h 0.181345v 0.018881h 0.181345v -0.520046h 0.181345v 1.92397h 0.181345v -0.489135h 0.181345v 0.973051h 0.181345v -0.607675h 0.181345v 2.37319h 0.181345v
 0.537199h 0.181345v 1.73512h 0.181345v 1.09632h 0.181345v 2.25174h 0.181345v 1.64505h 0.181345v 1.24592h 0.181345v 2.30033h 0.181345v 2.94319h 0.181345v 0.0591265h 0.181345v 0.118944h 0.181345v 4.71877h 0.181345v 1.0952h 0.181345v 0.44305h 0.181345v
 -0.267368h 0.181345v 5.84783h 0.181345v -4.2669h 0.181345v 3.2643h 0.181345v 1.52969h 0.181345v 0.968552h 0.181345v -1.49564h 0.181345v -0.509519h 0.181345v 1.58253h 0.181345v -0.679408h 0.181345v 0.541089h 0.181345v -0.407602h 0.181345v 3.11184h
 0.181345v -4.02266h 0.181345v 1.45674h 0.181345v 1.30465h 0.181345v 1.0978h 0.181345v -4.23351h 0.181345v 3.59658h 0.181345v 0.800401h 0.181345v -1.8549h 0.181345v -0.986418h 0.181345v 3.00655h 0.181345v -2.86947h 0.181345v 2.54077h 0.181345v
 -1.24838h 0.181345v -1.96581h 0.181345v 4.57368h 0.181345v -2.15159h 0.181345v 0.311933h 0.181345v -0.917325h 0.181345v 6.12318h 0.181345v -5.36262h 0.36269v -2.31144h 0.181345v 1.11207h 0.181345v 2.16501h 0.181345v -0.965637h 0.181345v 0.315149h
 0.181345v -0.62393h 0.181345v 1.44146h 0.181345v 1.9691h 0.181345v 0.192256h 0.181345v -4.34854h 0.181345v 4.94026h 0.181345v -1.52969h 0.181345v 0.368311h 0.181345v -0.904653h 0.181345v -1.01932h 0.181345v -1.56096h 0.181345v 2.93575h 0.181345v
 1.51078h 0.181345v -0.774047h 0.181345v 0.382124h 0.181345v -1.8217h 0.181345v -2.08379h 0.181345v 1.08664h 0.181345v 0.657485h 0.181345v -1.59354h 0.181345v 1.93321h 0.181345v 2.21362h 0.181345v -4.29741h 0.181345v 1.91301h 0.181345v 4.28418h
 0.181345v -3.9407h 0.181345v 3.9407h 0.181345v -4.11341h 0.181345v 1.06677h 0.181345v -1.57347h 0.181345v 1.75874h 0.181345v 0.187538h 0.181345v 0.382124h 0.181345v -0.192256h 0.181345v -0.189868h 0.181345v -1.26687h 0.181345v -0.172704h 0.181345v
 1.06677h 0.181345v 0.185265h 0.181345v 0.764368h 0.181345v -2.0164h 0.181345v 5.28071h 0.181345v -5.62037h 0.181345v 0.168888h 0.181345v 1.80022h 0.181345v 0.584179h 0.181345v -0.197218h 0.181345v 0.599456h 0.181345v -0.402238h 0.181345v -0.584179h
 0.181345v -1.10536h 0.181345v 1.88934h 0.181345v -0.973843h 0.181345v 2.01398h 0.181345v -4.28897h 0.181345v 3.45127h 0.36269v 0.837698h 0.181345v -1.43715h 0.181345v 1.01257h 0.181345v -1.77693h 0.181345v -1.07933h 0.181345v -2.25649h 0.181345v
 -0.587925h 0.181345v -1.76814h 0.181345v -0.380538h 0.181345v -0.97075h 0.181345v -2.38962h 0.181345v -2.66887h 0.181345v -4.12005h 0.181345v 0.458232h 0.181345v -2.61959h 0.181345v -1.99185h 0.181345v -2.40513h 0.181345v -1.59354h 0.181345v
 -1.58005h 0.181345v -1.08631h 0.181345v -1.79668h 0.181345v -1.09024h 0.181345v -1.16459h 0.181345v 0.0243961h 0.181345v -1.57613h 0.181345v -0.153391h 0.181345v -0.723898h 0.181345v -0.390081h 0.181345v 0.876004h 0.181345v -0.485923h 0.181345v
 0.811361h 0.181345v -0.707032h 0.181345v 0.728976h 0.181345v 1.54704h 0.181345v 2.55991h 0.181345v -0.228126h 0.181345v 2.122h 0.181345v 1.97602h 0.181345v 1.63916h 0.181345v 0.846985h 0.181345v 2.60483h 0.181345v 1.40519h 0.181345v 1.3608h
 0.181345v 3.69159h 0.181345v 2.56761h 0.181345v 1.77693h 0.181345v 1.65695h 0.181345v 3.38142h 0.181345v 0.899328h 0.181345v 1.45674h 0.181345v 1.61035h 0.181345v 4.58685h 0.181345v -2.78663h 0.181345v 5.88205h 0.181345v -1.19937h 0.181345v 1.19937h
 0.181345v -2.57726h 0.181345v -1.50457h 0.181345v 4.39698h 0.181345v -0.315149h 0.181345v 3.48874h 0.181345v -0.764368h 0.181345v 1.56898h 0.181345v -1.56898h 0.181345v -1.07933h 0.181345v 1.45674h 0.181345v -1.10536h 0.181345v 1.10536h 0.181345v
 -1.45674h 0.181345v 6.37187h 0.181345v -3.30479h 0.36269v -4.0752h 0.181345v 3.24882h 0.181345v 1.69999h 0.181345v -5.58575h 0.181345v 1.30157h 0.181345v 2.18718h 0.181345v 2.09701h 0.181345v -0.873619h 0.181345v -0.826373h 0.36269v -3.24882h
 0.181345v -1.83631h 0.181345v 3.92375h 0.181345v -1.75874h 0.181345v 6.03196h 0.181345v -3.89582h 0.181345v 2.04092h 0.181345v -3.14628h 0.181345v 2.29694h 0.181345v 2.70424h 0.181345v -2.70424h 0.181345v -4.60214h 0.181345v 6.82113h 0.181345v
 -3.78797h 0.181345v 8.18495h 0.181345v -2.89241h 0.181345v -2.43117h 0.181345v -4.28418h 0.181345v 7.80754h 0.181345v -4.81575h 0.181345v 0.418771h 0.181345v -5.32358h 0.181345v -0.296789h 0.181345v 1.54517h 0.181345v 0.328704h 0.36269v 0.679408h
 0.181345v -1.00811h 0.181345v 1.00811h 0.36269v 0.351376h 0.181345v -4.30786h 0.181345v 1.4032h 0.181345v -0.291136h 0.181345v 2.84442h 0.181345v -1.64505h 0.181345v -2.04092h 0.181345v 4.03734h 0.181345v -1.68127h 0.181345v 1.3299h 0.181345v
 -1.64505h 0.181345v -1.19937h 0.181345v 2.16501h 0.181345v 3.32772h 0.181345v -4.29336h 0.181345v 1.64505h 0.181345v 2.64831h 0.181345v -3.97821h 0.181345v 6.1972h 0.181345v -5.21078h 0.181345v 3.41056h 0.181345v -2.71571h 0.181345v 1.10536h
 0.181345v -1.45674h 0.181345v 3.49765h 0.181345v -4.82755h 0.181345v 0.650488h 0.181345v -0.650488h 0.181345v 0.986418h 0.181345v 0.694855h 0.181345v 1.10536h 0.181345v -1.45674h 0.181345v 6.37187h 0.181345v -5.66086h 0.181345v 6.1972h 0.181345v
 -10.5942h 0.181345v 3.68596h 0.181345v 3.49765h 0.181345v -3.14628h 0.181345v 2.71571h 0.181345v -2.71571h 0.181345v 1.10536h 0.181345v -1.80022h 0.181345v 6.71535h 0.181345v -4.52818h 0.181345v 1.22339h 0.181345v -0.826373h 0.181345v -1.16138h
 0.36269v -4.76529h 0.181345v 8.55326h 0.181345v -3.0236h 0.181345v 3.50885h 0.181345v -4.27322h 0.181345v -0.368311h 0.181345v 4.64153h 0.181345v -6.03196h 0.181345v -0.650488h 0.181345v 2.78663h 0.36269v -2.13615h 0.181345v 1.03078h 0.181345v
 1.88934h 0.181345v -1.16138h 0.181345v 1.56898h 0.181345v 3.72356h 0.181345v -2.43117h 0.181345v -5.89453h 0.181345v 6.35081h 0.181345v -1.74867h 0.181345v 3.72356h 0.181345v -4.13116h 0.181345v -1.16138h 0.36269v 0.764368h 0.181345v 1.65395h
 0.36269v 2.35607h 0.181345v -1.45674h 0.181345v 0.955572h 0.181345v -3.50885h 0.181345v -2.18718h 0.181345v -1.61035h 0.181345v 5.02091h 0.181345v 1.80022h 0.181345v -5.21078h 0.181345v 4.74046h 0.181345v 1.45674h 0.181345v -6.1972h 0.181345v
 3.41056h 0.181345v 0.873619h 0.36269v 4.69965h 0.181345v -11.1936h 0.181345v 4.79399h 0.181345v -2.24071h 0.181345v 0.351376h 0.181345v 3.58933h 0.181345v 1.91301h 0.181345v 4.06105h 0.181345v -4.56222h 0.181345v -1.8549h 0.181345v -2.78663h
 0.181345v 3.68596h 0.181345v 2.51124h 0.181345v -1.55566h 0.181345v -3.89582h 0.181345v 2.48397h 0.181345v 2.43117h 0.181345v -1.97489h 0.181345v 5.51779h 0.181345v -2.4507h 0.181345v 3.84113h 0.181345v -8.23811h 0.181345v 1.3299h 0.181345v 6.1972h
 0.181345v -0.679408h 0.181345v 1.39043h 0.181345v -3.84113h 0.181345v 1.80022h 0.181345v -0.62393h 0.181345v -1.73213h 0.181345v 4.39698h 0.181345v -3.2643h 0.181345v 6.49399h 0.181345v 2.96751h 0.181345v -11.1305h 0.181345v 8.16301h 0.181345v
 -3.22968h 0.36269v -3.2643h 0.181345v 8.407h 0.181345v -12.5072h 0.181345v 5.97407h 0.181345v -1.87387h 0.181345v 1.22339h 0.181345v 5.2706h 0.181345v -2.48397h 0.181345v -1.45674h 0.181345v 0.71102h 0.181345v -1.39043h 0.181345v 1.39043h 0.181345v
 4.15628h 0.181345v -4.8673h 0.181345v 6.90822h 0.181345v -5.45148h 0.181345v 5.45148h 0.181345v -1.0545h 0.181345v -6.53313h 0.181345v 7.58763h 0.181345v -3.84113h 0.181345v 7.52709h 0.181345v -8.35347h 0.181345v 2.62659h 0.181345v -1.80022h
 0.181345v 4.97381h 0.181345v 1.22339h 0.181345v -7.02357h 0.181345v 5.80018h 0.181345v 1.22339h 0.181345v 2.78663h 0.181345v -5.1427h 0.181345v -6.90822h 0.181345v 13.6613h 0.181345v -4.39698h 0.36269v -8.55326h 0.181345v 14.7505h 0.181345v -4.8673h
 0.181345v 4.8673h 0.181345v -7.42058h 0.181345v 4.01002h 0.181345v -2.78663h 0.181345v -7.02357h 0.181345v 3.61301h 0.181345v 2.18718h 0.181345v -1.13268h 0.36269v 6.75305h 0.181345v -1.61035h 0.181345v 3.41056h 0.181345v -6.1972h 0.181345v 1.3299h
 0.181345v 3.06708h 0.181345v -1.61035h 0.181345v -4.01002h 0.36269v -4.10019h 0.181345v 2.96751h 0.181345v 1.13268h 0.181345v -2.18718h 0.181345v -3.61301h 0.181345v 2.62659h 0.181345v -1.80022h 0.181345v 6.1972h 0.181345v -7.02357h 0.181345v
 3.61301h 0.181345v -2.78663h 0.181345v -2.35607h 0.181345v 3.22968h 0.181345v -8.16301h 0.181345v 2.89241h 0.181345v -1.22339h 0.181345v -3.17359h 0.181345v 2.04092h 0.181345v -2.51124h 0.181345v -0.456278h 0.181345v 4.10019h 0.181345v 0.599456h
 0.181345v -4.69965h 0.181345v 0.456278h 0.181345v 0.955572h 0.181345v 1.01932h 0.181345v 4.93332h 0.181345v -9.06449h 0.181345v 8.35347h 0.181345v -3.13011h 0.36269v 4.58685h 0.181345v -10.2072h 0.181345v 3.0236h 0.181345v 5.72688h 0.181345v
 -1.95383h 0.181345v 7.80754h 0.181345v -3.61301h 0.181345v 0.826373h 0.181345v -3.06708h 0.36269v 5.85372h 0.181345v -3.61301h 0.181345v 4.6675h 0.36269v -1.0545h 0.181345v 4.74046h 0.181345v 1.45674h 0.181345v -8.98383h 0.181345v 4.97381h 0.181345v
 -2.18718h 0.181345v -3.61301h 0.181345v -1.52969h 0.181345v 7.32988h 0.181345v -3.17359h 0.181345v -4.15628h 0.181345v 0.745717h 0.181345v -0.745717h 0.181345v -2.04092h 0.181345v -3.91173h 0.181345v 0.501165h 0.181345v -4.77439h 0.181345v
 -0.368311h 0.181345v 1.13268h 0.181345v -0.386962h 0.181345v -4.30116h 0.181345v -1.89604h 0.181345v 0.518157h 0.181345v -2.20474h 0.181345v -1.92643h 0.181345v -4.34662h 0.181345v 3.7549h 0.181345v -1.47431h 0.181345v -3.0191h 0.181345v -0.143514h
 0.181345v -3.20926h 0.181345v 0.832807h 0.181345v 0.49709h 0.181345v -4.07788h 0.181345v 1.41809h 0.181345v 1.21454h 0.181345v -0.452897h 0.181345v -1.78781h 0.181345v -0.098927h 0.181345v 0.603401h 0.181345v -2.19401h 0.181345v 1.10536h 0.181345v
 1.93213h 0.181345v 0.108785h 0.181345v -0.430568h 0.181345v -1.70558h 0.181345v -1.27442h 0.181345v 0.0875886h 0.181345v 0.0880934h 0.181345v -0.690928h 0.181345v -1.97745h 0.181345v 0.682781h 0.181345v -1.04933h 0.181345v 1.84556h 0.181345v
 -2.48397h 0.181345v -1.00811h 0.181345v -0.511652h 0.181345v -0.676673h 0.181345v 1.78518h 0.181345v -1.78518h 0.181345v -0.532191h 0.181345v -0.79269h 0.181345v 1.38517h 0.181345v 1.86075h 0.181345v 0.41498h 0.181345v -1.1477h 0.181345v -0.193882h
 0.181345v 6.35859h 0.181345v -4.80522h 0.181345v 4.04561h 0.181345v 0.186395h 0.181345v 1.16879h 0.181345v -0.399609h 0.181345v 5.10331h 0.181345v -0.407602h 0.181345v 1.11207h 0.181345v 0.144875h 0.181345v 3.77887h 0.181345v 1.16138h 0.181345v
 -0.397014h 0.181345v -0.194705h 0.181345v 5.81507h 0.181345v -3.96641h 0.181345v 15.1374h 0.181345v -7.68952h 0.181345v 4.04561h 0.181345v 3.64391h 0.181345v 1.22339h 0.181345v 3.57061h 0.181345v -4.79399h 0.181345v 1.87387h 0.181345v 18.1818h
 0.181345v -9.4615h 0.181345v 5.62037h 0.181345v -4.39698h 0.181345v -1.22339h 0.181345v -2.18718h 0.181345v 6.1972h 0.181345v 5.45148h 0.181345v -8.23811h 0.181345v 10.5942h 0.181345v -6.1972h 0.544034v 3.84113h 0.181345v 5.1427h 0.181345v -5.1427h
 0.181345v -2.04092h 0.181345v -4.8673h 0.181345v 15.4615h 0.181345v 21.1884h 0.181345v -29.7416h 0.181345v 12.9502h 0.181345v -7.80754h 0.181345v 14.0047h 0.181345v -6.1972h 0.181345v -4.39698h 0.181345v 21.1884h 0.36269v -16.7914h 0.181345v
 -4.39698h 0.181345v -6.1972h 0.544034v 16.7914h 0.181345v -6.1972h 0.181345v -14.9912h 0.181345v 10.5942h 0.181345v -6.1972h 0.181345v 16.7914h 0.181345v -6.1972h 0.181345v -12.9502h 0.181345v 5.1427h 0.181345v 3.41056h 0.181345v 21.1884h 0.181345v
 -16.7914h 0.36269v -4.39698h 0.36269v 4.39698h 0.544034v -12.9502h 0.181345v 12.9502h 0.181345v -4.39698h 0.181345v -3.41056h 0.181345v 7.80754h 0.36269v 6.1972h 0.181345v -14.0047h 0.181345v 7.80754h 0.181345v -7.80754h 0.181345v 14.0047h 0.181345v
 -19.1474h 0.181345v 19.1474h 0.181345v -6.1972h 0.181345v -10.5942h 0.181345v 37.9797h 0.181345v -27.3856h 0.36269v 6.1972h 0.181345v -14.0047h 0.181345v 7.80754h 0.181345v -4.39698h 0.181345v -3.41056h 0.181345v 3.41056h 0.36269v 10.5942h 0.181345v
 -14.0047h 0.181345v 24.5989h 0.181345v -35.1931h 0.181345v 24.5989h 0.181345v -19.1474h 0.181345v 2.35607h 0.181345v -4.39698h 0.181345v -1.80022h 0.181345v -3.06708h 0.181345v 9.26428h 0.181345v -12.9502h 0.181345v 2.35607h 0.181345v 1.3299h
 0.181345v -3.68596h 0.181345v 8.55326h 0.181345v -10.5942h 0.181345v 2.04092h 0.181345v 3.68596h 0.181345v -5.72688h 0.181345v -4.8673h 0.181345v -0.679408h 0.181345v 0.679408h 0.181345v 3.9407h 0.181345v 5.32358h 0.181345v -6.1972h 0.181345v
 0.873619h 0.181345v 1.91301h 0.181345v -4.39698h 0.181345v -4.01002h 0.181345v 6.49399h 0.181345v 4.10019h 0.181345v -4.10019h 0.181345v -3.9407h 0.181345v 10.5942h 0.181345v -9.13744h 0.181345v 3.41056h 0.181345v -2.62659h 0.181345v 3.61301h
 0.181345v 3.41056h 0.181345v -4.39698h 0.181345v 0.986418h 0.181345v 4.74046h 0.181345v 6.90822h 0.181345v -2.04092h 0.181345v 2.04092h 0.181345v -2.04092h 0.181345v -3.41056h 0.181345v -4.01002h 0.181345v 9.4615h 0.181345v 29.7416h 0.181345v
 -10.5942h 0.181345v -19.1474h 0.181345v 8.55326h 0.36269v -3.41056h 0.36269v 24.5989h 0.181345v -31.7825h 0.181345v 7.18361h 0.181345v 24.5989h 0.181345v -10.5942h 0.181345v -16.7914h 0.181345v 6.1972h 0.181345v 10.5942h 0.181345v -6.1972h 0.181345v
 -4.39698h 0.181345v 10.5942h 0.181345v -6.1972h 0.181345v 6.1972h 0.181345v -10.5942h 0.181345v -3.41056h 0.181345v 7.80754h 0.36269v 6.1972h 0.181345v 10.5942h 0.181345v -10.5942h 0.181345v 10.5942h 0.181345v -10.5942h 0.181345v -6.1972h 0.544034v
 -14.9912h 0.181345v 42.3767h 0.181345v -27.3856h 0.181345v 6.1972h 0.36269v 10.5942h 0.181345v -16.7914h 0.181345v -7.80754h 0.181345v 24.5989h 0.181345v -16.7914h 0.181345v 6.1972h 0.181345v 10.5942h 0.36269v -16.7914h 0.544034v 6.1972h 0.181345v
 21.1884h 0.181345v -35.1931h 0.181345v -2.78663h 0.181345v 16.7914h 0.181345v -10.5942h 0.181345v 4.39698h 0.181345v -4.39698h 0.181345v 31.7825h 0.181345v -31.7825h 0.36269v 4.39698h 0.181345v -7.80754h 0.181345v 14.0047h 0.181345v -14.0047h
 0.181345v -2.78663h 0.181345v 2.78663h 0.181345v 3.41056h 0.36269v -3.41056h 0.181345v 14.0047h 0.181345v -6.1972h 0.181345v -16.7914h 0.181345v 16.7914h 0.181345v -4.39698h 0.181345v -8.55326h 0.181345v -9.4615h 0.181345v 14.6042h 0.181345v
 -2.78663h 0.181345v 2.78663h 0.181345v -7.18361h 0.181345v 4.39698h 0.181345v -4.39698h 0.181345v 21.1884h 0.181345v -14.0047h 0.181345v 14.0047h 0.181345v -16.7914h 0.181345v 2.78663h 0.181345v -12.0509h 0.181345v 26.0557h 0.181345v -21.1884h
 0.181345v 42.3767h 0.181345v -42.3767h 0.181345v 10.5942h 0.181345v -8.55326h 0.181345v -3.84113h 0.181345v -4.39698h 0.181345v 10.5942h 0.181345v 2.78663h 0.36269v -5.1427h 0.181345v 5.1427h 0.181345v 7.80754h 0.181345v -18.4017h 0.181345v 5.45148h
 0.181345v 5.1427h 0.181345v -2.78663h 0.36269v 6.1972h 0.181345v -10.5942h 0.181345v -1.80022h 0.36269v 12.3944h 0.181345v -6.1972h 0.36269v 10.5942h 0.181345v -4.39698h 0.181345v -3.41056h 0.181345v 14.0047h 0.906724v -16.7914h 0.181345v 2.78663h
 0.181345v 24.5989h 0.181345v -16.7914h 0.181345v 16.7914h 0.181345v -24.5989h 0.181345v 14.0047h 0.181345v -16.7914h 0.181345v 16.7914h 0.181345v -6.1972h 0.181345v -4.39698h 0.36269v 10.5942h 0.36269v -21.1884h 0.181345v 10.5942h 0.181345v 4.39698h
 0.36269v 6.1972h 0.181345v -14.0047h 0.181345v 3.41056h 0.181345v 10.5942h 0.181345v -10.5942h 0.36269v -3.41056h 0.181345v -2.78663h 0.181345v 2.78663h 0.181345v 3.41056h 0.181345v -3.41056h 0.181345v -2.78663h 0.36269v 6.1972h 0.181345v -3.41056h
 0.181345v -2.78663h 0.181345v -6.1972h 0.181345v 3.84113h 0.36269v 29.7416h 0.181345v -16.7914h 0.181345v -7.80754h 0.181345v 3.41056h 0.544034v -8.55326h 0.181345v 12.9502h 0.181345v -16.7914h 0.181345v 22.9886h 0.181345v -27.3856h 0.181345v
 4.39698h 0.181345v 3.84113h 0.36269v -8.23811h 0.181345v 4.39698h 0.181345v 6.1972h 0.181345v -10.5942h 0.36269v 16.7914h 0.181345v -3.41056h 0.181345v -8.98383h 0.181345v 8.98383h 0.181345v -12.0509h 0.181345v 12.0509h 0.181345v 3.41056h 0.181345v
 10.5942h 0.181345v -27.3856h 0.181345v 4.39698h 0.181345v -6.75305h 0.181345v 15.7369h 0.181345v -7.18361h 0.181345v -10.5942h 0.181345v 25.5853h 0.181345v -16.7914h 0.181345v 6.1972h 0.181345v -11.8176h 0.181345v 7.42058h 0.181345v 7.18361h
 0.181345v -7.18361h 0.181345v -6.1972h 0.36269v 4.39698h 0.181345v 3.84113h 0.181345v -6.90822h 0.181345v 6.90822h 0.181345v -3.84113h 0.181345v -4.39698h 0.181345v 4.39698h 0.181345v -6.75305h 0.181345v 1.13268h 0.181345v 2.55328h 0.181345v
 -5.72688h 0.181345v 10.5942h 0.181345v -3.41056h 0.181345v 10.5942h 0.181345v -5.1427h 0.36269v -8.23811h 0.181345v 6.1972h 0.181345v 7.18361h 0.181345v -10.5942h 0.181345v 10.5942h 0.181345v -13.3808h 0.181345v 4.39698h 0.36269v -1.61035h 0.181345v
 3.41056h 0.181345v -3.41056h 0.181345v -2.78663h 0.181345v -3.41056h 0.181345v 3.41056h 0.181345v 1.3299h 0.181345v 6.90822h 0.181345v -8.23811h 0.181345v -2.35607h 0.181345v 2.35607h 0.181345v 4.39698h 0.181345v -4.39698h 0.181345v -2.35607h
 0.181345v 3.68596h 0.36269v -3.68596h 0.181345v 5.1427h 0.544034v -5.1427h 0.181345v 6.75305h 0.181345v -1.61035h 0.181345v -11.3399h 0.181345v 9.88316h 0.36269v 3.06708h 0.36269v -5.62037h 0.181345v -1.13268h 0.181345v -3.84113h 0.181345v 2.78663h
 0.181345v 4.74046h 0.181345v 1.45674h 0.181345v -2.78663h 0.181345v -2.35607h 0.181345v -1.0545h 0.181345v 4.74046h 0.181345v -9.88316h 0.181345v 9.88316h 0.181345v -6.65347h 0.36269v 4.10019h 0.181345v -4.10019h 0.181345v 2.96751h 0.36269v
 -2.04092h 0.181345v 5.72688h 0.181345v -3.68596h 0.36269v -1.0545h 0.181345v 1.0545h 0.181345v -5.45148h 0.181345v 2.48397h 0.181345v 6.65347h 0.181345v -11.2736h 0.181345v 9.94369h 0.181345v -8.55326h 0.181345v 0.745717h 0.181345v -0.745717h
 0.181345v 2.35607h 0.181345v 2.78663h 0.181345v -1.91301h 0.181345v -7.62667h 0.181345v 9.53968h 0.181345v -4.39698h 0.181345v 4.39698h 0.181345v -0.986418h 0.181345v 0.986418h 0.181345v -7.18361h 0.181345v 1.3299h 0.181345v -1.3299h 0.181345v
 0.650488h 0.36269v 2.13615h 0.181345v 0.783975h 0.181345v -0.783975h 0.181345v -5.1427h 0.181345v 0.555849h 0.181345v 1.80022h 0.181345v 2.78663h 0.36269v -2.78663h 0.181345v 6.1972h 0.181345v 0.986418h 0.181345v -10.5942h 0.181345v 5.45148h
 0.181345v 6.1972h 0.181345v -4.6675h 0.36269v 0.826373h 0.181345v -3.06708h 0.181345v -0.679408h 0.181345v 4.62011h 0.181345v 0.926597h 0.181345v -5.54671h 0.181345v 5.54671h 0.181345v -7.42058h 0.181345v 9.4615h 0.181345v -5.45148h 0.181345v
 4.39698h 0.181345v -4.39698h 0.181345v 5.45148h 0.181345v 8.55326h 0.181345v -1.80022h 0.181345v -11.4206h 0.181345v 3.61301h 0.181345v 6.1972h 0.181345v -6.1972h 0.181345v -0.986418h 0.181345v 5.72688h 0.181345v -3.68596h 0.181345v 3.68596h
 0.36269v 9.26428h 0.181345v -7.80754h 0.181345v -1.45674h 0.181345v -1.3299h 0.181345v -4.39698h 0.181345v 7.18361h 0.181345v -7.18361h 0.181345v 8.79396h 0.181345v -6.75305h 0.181345v 8.55326h 0.181345v -8.55326h 0.181345v 5.1427h 0.181345v
 5.45148h 0.181345v -10.5942h 0.36269v 6.75305h 0.181345v -8.79396h 0.181345v 0.986418h 0.181345v 4.74046h 0.181345v -4.74046h 0.181345v 2.18718h 0.181345v 1.22339h 0.181345v -1.22339h 0.181345v 1.22339h 0.181345v 8.23811h 0.181345v -3.84113h
 0.181345v 12.3944h 0.181345v -20.2019h 0.181345v 3.41056h 0.181345v 1.3299h 0.181345v -2.55328h 0.181345v 1.22339h 0.181345v 4.39698h 0.181345v -6.75305h 0.181345v 6.75305h 0.181345v -4.39698h 0.181345v -2.35607h 0.181345v 2.35607h 0.181345v 1.3299h
 0.181345v -2.55328h 0.181345v -2.18718h 0.181345v 11.6487h 0.181345v -3.84113h 0.181345v -3.06708h 0.181345v 6.90822h 0.181345v -10.5942h 0.181345v 8.55326h 0.36269v -10.5942h 0.181345v 8.79396h 0.181345v -3.06708h 0.181345v -5.72688h 0.181345v
 7.18361h 0.181345v -5.1427h 0.181345v 2.35607h 0.181345v -7.80754h 0.181345v 24.5989h 0.181345v -14.0047h 0.181345v -4.01002h 0.181345v -1.13268h 0.181345v 10.5942h 0.181345v -11.6487h 0.181345v 6.1972h 0.181345v -7.18361h 0.181345v 3.17359h
 0.181345v 9.4615h 0.181345v -9.4615h 0.36269v -3.17359h 0.36269v 5.72688h 0.181345v -4.74046h 0.181345v 9.60776h 0.181345v -7.42058h 0.181345v -1.13268h 0.181345v -4.6675h 0.181345v 5.80018h 0.181345v -2.18718h 0.181345v 3.41056h 0.181345v 2.78663h
 0.181345v -10.5942h 0.181345v 7.80754h 0.181345v -1.22339h 0.181345v -9.37079h 0.181345v 5.2706h 0.36269v 5.32358h 0.181345v -7.02357h 0.181345v 0.826373h 0.181345v 4.97381h 0.181345v -6.58416h 0.181345v 2.48397h 0.181345v 4.10019h 0.181345v
 -7.32988h 0.181345v 19.1474h 0.181345v -9.26428h 0.181345v -4.74046h 0.181345v 2.18718h 0.181345v 2.55328h 0.181345v -2.55328h 0.181345v 5.62037h 0.181345v -12.2045h 0.181345v 10.5942h 0.181345v -11.3399h 0.181345v 2.35607h 0.181345v -2.35607h
 0.181345v 2.35607h 0.181345v 0.873619h 0.181345v 5.32358h 0.181345v 1.3299h 0.181345v -1.3299h 0.181345v -2.35607h 0.181345v 1.13268h 0.181345v 1.22339h 0.181345v -1.22339h 0.181345v -1.13268h 0.181345v 3.68596h 0.181345v -1.3299h 0.181345v 6.1972h
 0.181345v -11.5208h 0.36269v 2.96751h 0.181345v 3.68596h 0.181345v -6.65347h 0.181345v 2.96751h 0.181345v 8.55326h 0.181345v -7.42058h 0.181345v 18.0148h 0.181345v -12.3944h 0.181345v -8.79396h 0.181345v 0.986418h 0.181345v -3.61301h 0.181345v
 1.69999h 0.181345v 4.10019h 0.181345v 2.55328h 0.181345v -6.65347h 0.181345v 0.926597h 0.181345v 0.986418h 0.181345v -7.80754h 0.181345v 7.80754h 0.181345v 3.41056h 0.181345v -5.32358h 0.181345v 6.65347h 0.181345v -10.5942h 0.181345v 8.0409h
 0.181345v -2.18718h 0.181345v -1.91301h 0.181345v 6.65347h 0.181345v 1.45674h 0.181345v -7.18361h 0.181345v -4.15628h 0.181345v 11.3399h 0.181345v -8.98383h 0.181345v -0.826373h 0.181345v 5.80018h 0.181345v -4.10019h 0.181345v -5.2706h 0.181345v
 4.39698h 0.181345v 7.52709h 0.181345v -9.88316h 0.181345v -1.39043h 0.36269v -1.27442h 0.181345v 5.02091h 0.181345v -1.61035h 0.181345v 0.783975h 0.181345v 2.62659h 0.181345v -3.41056h 0.181345v -0.745717h 0.181345v 1.52969h 0.181345v -4.19454h
 0.181345v 3.41056h 0.181345v 0.783975h 0.181345v 3.61301h 0.181345v -2.78663h 0.181345v -2.35607h 0.181345v 2.35607h 0.36269v 8.98383h 0.181345v -2.78663h 0.181345v -1.22339h 0.181345v 7.42058h 0.181345v -4.8673h 0.181345v -7.52709h 0.181345v
 2.78663h 0.36269v 11.6487h 0.181345v -17.5024h 0.181345v 13.6613h 0.181345v -9.72056h 0.181345v 13.5617h 0.181345v -13.5617h 0.181345v 6.65347h 0.181345v -6.65347h 0.181345v 4.10019h 0.181345v 4.01002h 0.181345v -7.18361h 0.181345v 3.17359h
 0.181345v -4.97381h 0.181345v 4.97381h 0.181345v 9.4615h 0.181345v -6.90822h 0.181345v 9.26428h 0.181345v -17.6177h 0.181345v 9.8102h 0.36269v 1.61035h 0.181345v -1.61035h 0.181345v -6.1972h 0.181345v 2.18718h 0.181345v 1.22339h 0.181345v 1.3299h
 0.181345v 3.06708h 0.181345v -4.39698h 0.181345v 4.39698h 0.181345v 1.80022h 0.181345v -1.80022h 0.181345v -1.61035h 0.181345v -12.7303h 0.181345v 2.13615h 0.181345v 5.45148h 0.181345v 1.13268h 0.544034v 4.01002h 0.36269v -2.78663h 0.181345v
 21.1884h 0.181345v -26.5119h 0.181345v 8.11021h 0.181345v -5.1427h 0.181345v -4.6675h 0.181345v 1.69999h 0.181345v 4.10019h 0.181345v -8.7203h 0.181345v 5.54671h 0.181345v 4.39698h 0.181345v -3.41056h 0.181345v 2.18718h 0.181345v -4.97381h 0.181345v
 4.97381h 0.181345v 2.55328h 0.181345v -2.55328h 0.181345v 4.01002h 0.181345v -8.98383h 0.181345v 7.52709h 0.181345v -1.3299h 0.181345v -2.35607h 0.181345v -2.04092h 0.181345v 3.17359h 0.181345v -1.13268h 0.181345v 12.9502h 0.181345v -12.9502h
 0.181345v 1.13268h 0.181345v -2.18718h 0.181345v 4.74046h 0.181345v 15.4615h 0.181345v -8.55326h 0.181345v -3.84113h 0.36269v 1.80022h 0.181345v 2.04092h 0.36269v 2.35607h 0.181345v -2.35607h 0.181345v -6.90822h 0.181345v 9.26428h 0.181345v
 -9.26428h 0.181345v 3.06708h 0.181345v 8.98383h 0.36269v -10.5942h 0.181345v 7.80754h 0.181345v 16.7914h 0.181345v -14.0047h 0.181345v 7.80754h 0.181345v -4.39698h 0.181345v 4.39698h 0.181345v -7.80754h 0.36269v -10.5942h 0.181345v 10.5942h
 0.181345v -7.18361h 0.181345v 21.1884h 0.181345v -16.7914h 0.181345v -7.80754h 0.181345v 18.4017h 0.181345v -7.80754h 0.181345v -12.0509h 0.181345v 6.90822h 0.181345v 8.55326h 0.181345v 4.39698h 0.181345v -18.4017h 0.181345v 10.5942h 0.181345v
 -10.5942h 0.181345v 10.5942h 0.181345v 3.41056h 0.36269v -3.41056h 0.181345v -7.18361h 0.181345v -3.41056h 0.181345v 7.80754h 0.36269v -2.35607h 0.181345v -3.84113h 0.181345v 16.7914h 0.36269v -7.80754h 0.181345v -10.5942h 0.181345v 3.41056h
 0.181345v 10.5942h 0.181345v -6.1972h 0.181345v -7.80754h 0.181345v 10.5942h 0.181345v -10.5942h 0.181345v -2.78663h 0.181345v 8.23811h 0.181345v -2.04092h 0.181345v 2.04092h 0.181345v -2.04092h 0.181345v -1.80022h 0.181345v 8.98383h 0.181345v
 -7.18361h 0.181345v 4.39698h 0.181345v -2.35607h 0.181345v -2.04092h 0.36269v -3.41056h 0.181345v -4.01002h 0.181345v 18.0148h 0.181345v -3.41056h 0.181345v -7.18361h 0.181345v -1.80022h 0.181345v 8.98383h 0.181345v -7.18361h 0.181345v 10.5942h
 0.906724v -6.1972h 0.181345v 6.1972h 0.181345v -14.0047h 0.181345v 1.61035h 0.181345v 22.9886h 0.181345v -21.1884h 0.181345v -1.80022h 0.181345v 3.84113h 0.181345v -6.90822h 0.181345v 9.26428h 0.181345v -10.5942h 0.36269v 8.23811h 0.181345v -9.4615h
 0.181345v 4.01002h 0.181345v 7.80754h 0.544034v -9.26428h 0.181345v -1.3299h 0.181345v 2.78663h 0.181345v 5.45148h 0.181345v 5.1427h 0.181345v -12.0509h 0.181345v -5.72688h 0.181345v 5.72688h 0.181345v 9.26428h 0.181345v -2.35607h 0.181345v 2.35607h
 0.36269v -7.80754h 0.181345v 5.45148h 0.181345v 2.35607h 0.36269v 10.5942h 0.181345v -4.39698h 0.181345v -16.7914h 0.181345v 8.23811h 0.181345v -5.45148h 0.181345v 3.41056h 0.181345v 4.39698h 0.181345v -9.26428h 0.181345v 12.0509h 0.181345v
 -2.78663h 0.181345v 6.1972h 0.181345v -15.4615h 0.36269v 15.4615h 0.181345v -12.3944h 0.181345v 6.1972h 0.181345v 10.5942h 0.181345v -18.4017h 0.181345v 7.80754h 0.181345v -4.39698h 0.181345v -8.55326h 0.181345v 8.55326h 0.181345v -1.80022h 0.36269v
 -3.06708h 0.181345v 15.4615h 0.181345v -12.3944h 0.181345v -7.80754h 0.181345v 16.7914h 0.181345v 7.80754h 0.181345v -14.9912h 0.181345v -1.80022h 0.181345v 6.1972h 0.181345v -10.5942h 0.181345v 6.1972h 0.181345v -6.1972h 0.181345v -3.41056h
 0.181345v 6.1972h 0.181345v -5.1427h 0.181345v 5.1427h 0.181345v -8.11021h 0.181345v -2.48397h 0.181345v 10.5942h 0.181345v -2.78663h 0.181345v -3.41056h 0.181345v 4.74046h 0.181345v -1.3299h 0.181345v -7.02357h 0.181345v 11.4206h 0.181345v
 -10.5942h 0.181345v 8.98383h 0.181345v -4.01002h 0.181345v -7.32988h 0.181345v 2.35607h 0.181345v 4.97381h 0.36269v 7.42058h 0.181345v -11.5208h 0.181345v 6.65347h 0.181345v -9.13744h 0.181345v 4.39698h 0.181345v 3.41056h 0.181345v 4.39698h
 0.181345v -5.62037h 0.181345v -4.10019h 0.181345v 2.96751h 0.181345v -2.04092h 0.181345v 2.04092h 0.181345v -3.84113h 0.181345v 6.1972h 0.181345v -4.39698h 0.181345v 4.39698h 0.36269v -7.02357h 0.181345v 3.61301h 0.181345v 7.80754h 0.181345v
 -8.79396h 0.181345v 0.986418h 0.181345v 2.18718h 0.181345v -4.97381h 0.181345v 2.78663h 0.181345v 4.74046h 0.181345v 3.06708h 0.36269v -1.61035h 0.181345v -7.18361h 0.181345v 25.5853h 0.181345v -22.4117h 0.36269v -2.18718h 0.181345v 14.0047h
 0.181345v -11.8176h 0.181345v 2.55328h 0.36269v 3.06708h 0.181345v 3.84113h 0.181345v -5.45148h 0.181345v 1.61035h 0.181345v 8.98383h 0.181345v -14.6042h 0.181345v 18.0148h 0.181345v -12.3944h 0.181345v 12.3944h 0.181345v -14.0047h 0.181345v
 3.41056h 0.181345v 7.18361h 0.181345v -5.1427h 0.181345v 2.35607h 0.181345v -2.35607h 0.181345v 8.55326h 0.181345v -10.5942h 0.181345v 7.18361h 0.181345v 3.41056h 0.544034v 21.1884h 0.181345v -21.1884h 0.181345v -3.41056h 0.181345v 3.41056h
 0.181345v 10.5942h 0.181345v -14.0047h 0.181345v 3.41056h 0.181345v 10.5942h 0.36269v -14.0047h 0.181345v 24.5989h 0.181345v 10.5942h 0.181345v -27.3856h 0.181345v 6.1972h 0.181345v -10.5942h 0.36269v 10.5942h 0.181345v 10.5942h 0.181345v 10.5942h
 0.181345v -27.3856h 0.181345v 16.7914h 0.181345v -10.5942h 0.181345v -6.1972h 0.181345v 6.1972h 0.181345v 21.1884h 0.181345v -21.1884h 0.181345v 21.1884h 0.181345v -27.3856h 0.181345v 6.1972h 0.181345v -6.1972h 0.181345v 16.7914h 0.181345v -16.7914h
 0.181345v 16.7914h 0.181345v 10.5942h 0.181345v -10.5942h 0.36269v -10.5942h 0.181345v -6.1972h 0.181345v -10.5942h 0.181345v 6.1972h 0.181345v 4.39698h 0.181345v 16.7914h 0.181345v 10.5942h 0.181345v -27.3856h 0.181345v 16.7914h 0.181345v 10.5942h
 0.181345v -10.5942h 0.181345v -10.5942h 0.181345v 10.5942h 0.181345v -24.5989h 0.181345v 7.80754h 0.181345v 6.1972h 0.544034v 21.1884h 0.181345v -10.5942h 0.181345v -10.5942h 0.181345v 10.5942h 0.181345v -10.5942h 0.181345v 21.1884h 0.181345v
 -21.1884h 0.181345v 10.5942h 0.181345v -10.5942h 0.181345v 10.5942h 0.181345v 10.5942h 0.181345v -21.1884h 0.36269v 21.1884h 0.181345v -10.5942h 0.181345v 10.5942h 0.181345v -21.1884h 0.181345v 21.1884h 0.181345v -10.5942h 0.181345v 10.5942h
 0.181345v -10.5942h 0.544034v -10.5942h 0.181345v 21.1884h 0.544034v -10.5942h 0.544034v 10.5942h 0.181345v -27.3856h 0.181345v 27.3856h 0.181345v -21.1884h 0.181345v 21.1884h 0.36269v -21.1884h 0.181345v 21.1884h 0.181345v -10.5942h 0.181345v
 10.5942h 0.181345v -21.1884h 0.181345v 21.1884h 0.544034v -21.1884h 0.181345v 10.5942h 0.36269v 10.5942h 0.181345v -10.5942h 0.181345v 10.5942h 0.181345v -10.5942h 0.725379v -10.5942h 0.181345v 21.1884h 0.181345v -10.5942h 0.181345v 10.5942h
 0.181345v -10.5942h 0.181345v -16.7914h 0.181345v 27.3856h 0.36269v -27.3856h 0.181345v 16.7914h 0.181345v 10.5942h 0.36269v -10.5942h 0.181345v 10.5942h 0.544034v -27.3856h 0.181345v 27.3856h 0.725379v -21.1884h 0.181345v 10.5942h 0.181345v
 10.5942h 0.36269v -27.3856h 0.181345v 16.7914h 0.181345v -16.7914h 0.181345v 16.7914h 0.181345v -10.5942h 0.181345v 21.1884h 0.36269v -10.5942h 0.544034v 10.5942h 0.181345v -10.5942h 0.181345v -10.5942h 0.36269v 21.1884h 0.544034v -10.5942h
 0.181345v 10.5942h 0.181345v -21.1884h 0.181345v 10.5942h 0.181345v 10.5942h 0.544034v -10.5942h 0.181345v 10.5942h 0.36269v -10.5942h 0.181345v 10.5942h 0.181345v -21.1884h 0.181345v 10.5942h 0.36269v 10.5942h 0.181345v -10.5942h 0.36269v 10.5942h
 0.36269v -10.5942h 0.725379v -10.5942h 0.181345v 21.1884h 0.181345v -10.5942h 0.181345v 10.5942h 0.36269v -21.1884h 0.181345v 21.1884h 0.181345v -10.5942h 0.181345v 10.5942h 0.181345v -21.1884h 0.181345v 10.5942h 0.181345v 10.5942h 0.36269v
 -21.1884h 0.181345v 10.5942h 0.181345v 10.5942h 0.181345v -10.5942h 0.181345v 10.5942h 0.181345v -10.5942h 0.181345v -10.5942h 0.181345v 21.1884h 0.36269v -10.5942h 0.725379v 10.5942h 0.181345v -21.1884h 0.181345v 21.1884h 0.181345v -21.1884h
 0.181345v 21.1884h 0.181345v -21.1884h 0.181345v 21.1884h 0.544034v -21.1884h 0.181345v 10.5942h 0.36269v 10.5942h 0.36269v -10.5942h 0.906724v -21.1884h 0.181345v 31.7825h 0.181345v -10.5942h 0.181345v 10.5942h 0.36269v -10.5942h 0.181345v 10.5942h
 0.181345v -10.5942h 0.36269v 10.5942h 0.181345v -10.5942h 0.181345v -10.5942h 0.181345v -6.1972h 0.181345v 16.7914h 0.36269v 10.5942h 0.181345v -10.5942h 0.181345v 10.5942h 0.181345v -10.5942h 0.36269v 10.5942h 0.36269v -10.5942h 0.36269v 10.5942h
 0.36269v -10.5942h 0.544034v 10.5942h 0.181345v -27.3856h 0.181345v 27.3856h 0.906724v -21.1884h 0.181345v 10.5942h 0.181345v 10.5942h 0.181345v -21.1884h 0.181345v 10.5942h 0.181345v -10.5942h 0.181345v 10.5942h 0.544034v 10.5942h 0.181345v
 -21.1884h 0.36269v 21.1884h 0.36269v -10.5942h 0.181345v -10.5942h 0.181345v 10.5942h 0.181345v -10.5942h 0.181345v 10.5942h 0.181345v -21.1884h 0.181345v 21.1884h 0.36269v 10.5942h 0.181345v -21.1884h 0.181345v 10.5942h 0.544034v 10.5942h 0.725379v
 -21.1884h 0.181345v 21.1884h 0.181345v -10.5942h 0.181345v 10.5942h 0.725379v -10.5942h 0.725379" fill="none" stroke="black"/>
<path d="M57.1929,280.151h 453.543" fill="none" stroke="black"/>
<path d="M57.1929,272.68v 7.47068" fill="none" stroke="black"/>
<path d="M75.3318,276.415v 3.73534" fill="none" stroke="black"/>
<path d="M93.4707,276.415v 3.73534" fill="none" stroke="black"/>
<path d="M111.61,276.415v 3.73534" fill="none" stroke="black"/>
<path d="M129.749,276.415v 3.73534" fill="none" stroke="black"/>
<path d="M147.887,272.68v 7.47068" fill="none" stroke="black"/>
<path d="M166.026,276.415v 3.73534" fill="none" stroke="black"/>
<path d="M184.165,276.415v 3.73534" fill="none" stroke="black"/>
<path d="M202.304,276.415v 3.73534" fill="none" stroke="black"/>
<path d="M220.443,276.415v 3.73534" fill="none" stroke="black"/>
<path d="M238.582,272.68v 7.47068" fill="none" stroke="black"/>
<path d="M256.721,276.415v 3.73534" fill="none" stroke="black"/>
<path d="M274.86,276.415v 3.73534" fill="none" stroke="black"/>
<path d="M292.999,276.415v 3.73534" fill="none" stroke="black"/>
<path d="M311.138,276.415v 3.73534" fill="none" stroke="black"/>
<path d="M329.277,272.68v 7.47068" fill="none" stroke="black"/>
<path d="M347.415,276.415v 3.73534" fill="none" stroke="black"/>
<path d="M365.554,276.415v 3.73534" fill="none" stroke="black"/>
<path d="M383.693,276.415v 3.73534" fill="none" stroke="black"/>
<path d="M401.832,276.415v 3.73534" fill="none" stroke="black"/>
<path d="M419.971,272.68v 7.47068" fill="none" stroke="black"/>
<path d="M438.11,276.415v 3.73534" fill="none" stroke="black"/>
<path d="M456.249,276.415v 3.73534" fill="none" stroke="black"/>
<path d="M474.388,276.415v 3.73534" fill="none" stroke="black"/>
<path d="M492.527,276.415v 3.73534" fill="none" stroke="black"/>
<path d="M510.666,272.68v 7.47068" fill="none" stroke="black"/>
<path d="M510.666,272.68v 7.47068" fill="none" stroke="black"/>
<text xml:space="preserve" x="54.3523" y="290.27" fill="black" font-size="10.4952" font-family="Helvetica">0</text>
<text xml:space="preserve" x="139.569" y="290.27" fill="black" font-size="10.4952" font-family="Helvetica">500</text>
<text xml:space="preserve" x="227.449" y="290.27" fill="black" font-size="10.4952" font-family="Helvetica">1000</text>
<text xml:space="preserve" x="318.288" y="290.27" fill="black" font-size="10.4952" font-family="Helvetica">1500</text>
<text xml:space="preserve" x="408.831" y="290.27" fill="black" font-size="10.4952" font-family="Helvetica">2000</text>
<text xml:space="preserve" x="499.67" y="290.27" fill="black" font-size="10.4952" font-family="Helvetica">2500</text>
<text xml:space="preserve" x="265.323" y="301.218" fill="black" font-size="10.4952" font-family="Helvetica">Channel</text>
<path d="M57.1929,280.151v -249.023" fill="none" stroke="black"/>
<path d="M63.9961,280.151h -6.80315" fill="none" stroke="black"/>
<path d="M63.9961,277.364h -6.80315" fill="none" stroke="black"/>
<path d="M63.9961,275.008h -6.80315" fill="none" stroke="black"/>
<path d="M63.9961,272.967h -6.80315" fill="none" stroke="black"/>
<path d="M63.9961,271.167h -6.80315" fill="none" stroke="black"/>
<path d="M70.7992,269.556h -13.6063" fill="none" stroke="black"/>
<text xml:space="preserve" x="49.0263" y="273.108" fill="black" font-size="10.4952" font-family="Helvetica">1</text>
<path d="M63.9961,258.962h -6.80315" fill="none" stroke="black"/>
<path d="M63.9961,252.765h -6.80315" fill="none" stroke="black"/>
<path d="M63.9961,248.368h -6.80315" fill="none" stroke="black"/>
<path d="M63.9961,244.957h -6.80315" fill="none" stroke="black"/>
<path d="M63.9961,242.171h -6.80315" fill="none" stroke="black"/>
<path d="M63.9961,239.815h -6.80315" fill="none" stroke="black"/>
<path d="M63.9961,237.774h -6.80315" fill="none" stroke="black"/>
<path d="M63.9961,235.974h -6.80315" fill="none" stroke="black"/>
<path d="M70.7992,234.363h -13.6063" fill="none" stroke="black"/>
<text xml:space="preserve" x="41.629" y="238.193" fill="black" font-size="10.4952" font-family="Helvetica">10</text>
<path d="M63.9961,223.769h -6.80315" fill="none" stroke="black"/>
<path d="M63.9961,217.572h -6.80315" fill="none" stroke="black"/>
<path d="M63.9961,213.175h -6.80315" fill="none" stroke="black"/>
<path d="M63.9961,209.764h -6.80315" fill="none" stroke="black"/>
<path d="M63.9961,206.978h -6.80315" fill="none" stroke="black"/>
<path d="M63.9961,204.622h -6.80315" fill="none" stroke="black"/>
<path d="M63.9961,202.581h -6.80315" fill="none" stroke="black"/>
<path d="M63.9961,200.781h -6.80315" fill="none" stroke="black"/>
<path d="M70.7992,199.17h -13.6063" fill="none" stroke="black"/>
<text xml:space="preserve" x="49.0263" y="199.431" fill="black" font-size="7.16345" font-family="Helvetica">2</text>
<text xml:space="preserve" x="38.0783" y="203.87" fill="black" font-size="10.4952" font-family="Helvetica">10</text>
<path d="M63.9961,188.576h -6.80315" fill="none" stroke="black"/>
<path d="M63.9961,182.379h -6.80315" fill="none" stroke="black"/>
<path d="M63.9961,177.982h -6.80315" fill="none" stroke="black"/>
<path d="M63.9961,174.571h -6.80315" fill="none" stroke="black"/>
<path d="M63.9961,171.785h -6.80315" fill="none" stroke="black"/>
<path d="M63.9961,169.429h -6.80315" fill="none" stroke="black"/>
<path d="M63.9961,167.388h -6.80315" fill="none" stroke="black"/>
<path d="M63.9961,165.587h -6.80315" fill="none" stroke="black"/>
<path d="M70.7992,163.977h -13.6063" fill="none" stroke="black"/>
<text xml:space="preserve" x="49.0263" y="163.924" fill="black" font-size="7.16345" font-family="Helvetica">3</text>
<text xml:space="preserve" x="38.0783" y="168.658" fill="black" font-size="10.4952" font-family="Helvetica">10</text>
<path d="M63.9961,153.383h -6.80315" fill="none" stroke="black"/>
<path d="M63.9961,147.186h -6.80315" fill="none" stroke="black"/>
<path d="M63.9961,142.789h -6.80315" fill="none" stroke="black"/>
<path d="M63.9961,139.378h -6.80315" fill="none" stroke="black"/>
<path d="M63.9961,136.592h -6.80315" fill="none" stroke="black"/>
<path d="M63.9961,134.235h -6.80315" fill="none" stroke="black"/>
<path d="M63.9961,132.195h -6.80315" fill="none" stroke="black"/>
<path d="M63.9961,130.394h -6.80315" fill="none" stroke="black"/>
<path d="M70.7992,128.784h -13.6063" fill="none" stroke="black"/>
<text xml:space="preserve" x="49.0263" y="129.009" fill="black" font-size="7.16345" font-family="Helvetica">4</text>
<text xml:space="preserve" x="38.0783" y="133.447" fill="black" font-size="10.4952" font-family="Helvetica">10</text>
<path d="M63.9961,118.19h -6.80315" fill="none" stroke="black"/>
<path d="M63.9961,111.993h -6.80315" fill="none" stroke="black"/>
<path d="M63.9961,107.596h -6.80315" fill="none" stroke="black"/>
<path d="M63.9961,104.185h -6.80315" fill="none" stroke="black"/>
<path d="M63.9961,101.398h -6.80315" fill="none" stroke="black"/>
<path d="M63.9961,99.0424h -6.80315" fill="none" stroke="black"/>
<path d="M63.9961,97.0015h -6.80315" fill="none" stroke="black"/>
<path d="M63.9961,95.2012h -6.80315" fill="none" stroke="black"/>
<path d="M70.7992,93.5909h -13.6063" fill="none" stroke="black"/>
<text xml:space="preserve" x="49.0263" y="93.5019" fill="black" font-size="7.16345" font-family="Helvetica">5</text>
<text xml:space="preserve" x="38.0783" y="98.2362" fill="black" font-size="10.4952" font-family="Helvetica">10</text>
<path d="M63.9961,82.9967h -6.80315" fill="none" stroke="black"/>
<path d="M63.9961,76.7995h -6.80315" fill="none" stroke="black"/>
<path d="M63.9961,72.4025h -6.80315" fill="none" stroke="black"/>
<path d="M63.9961,68.992h -6.80315" fill="none" stroke="black"/>
<path d="M63.9961,66.2053h -6.80315" fill="none" stroke="black"/>
<path d="M63.9961,63.8493h -6.80315" fill="none" stroke="black"/>
<path d="M63.9961,61.8084h -6.80315" fill="none" stroke="black"/>
<path d="M63.9961,60.0081h -6.80315" fill="none" stroke="black"/>
<path d="M70.7992,58.3978h -13.6063" fill="none" stroke="black"/>
<text xml:space="preserve" x="49.0263" y="58.2907" fill="black" font-size="7.16345" font-family="Helvetica">6</text>
<text xml:space="preserve" x="38.0783" y="63.025" fill="black" font-size="10.4952" font-family="Helvetica">10</text>
<path d="M63.9961,47.8036h -6.80315" fill="none" stroke="black"/>
<path d="M63.9961,41.6064h -6.80315" fill="none" stroke="black"/>
<path d="M63.9961,37.2094h -6.80315" fill="none" stroke="black"/>
<path d="M63.9961,33.7989h -6.80315" fill="none" stroke="black"/>
<g transform="rotate(-90,26.5385,191.442)">
<text xml:space="preserve" x="26.5385" y="191.442" fill="black" font-size="10.4952" font-family="Helvetica">Counts/Channel</text>
</g>
<text xml:space="preserve" x="404.097" y="58.2907" fill="black" font-size="14.7788" font-family="Helvetica" font-weight="bold"> = 2.4879 MeV</text>
<text xml:space="preserve" x="398.179" y="61.5455" fill="black" font-size="10.0192" font-family="Helvetica" font-weight="bold">p</text>
<text xml:space="preserve" x="389.006" y="58.2907" fill="black" font-size="14.7788" font-family="Helvetica" font-weight="bold">E</text>
<path d="M262.163,162.52v 26.4841" fill="none" stroke="black"/>
<path d="M264.454,189.005l -2.29122, 3.9685l -2.29122, -3.9685z" fill="black"/>
<path d="M264.454,189.005l -2.29122, 3.9685l -2.29122, -3.9685h 4.58243z" fill="none" stroke="black"/>
<text xml:space="preserve" x="266.803" y="160.373" fill="black" font-size="10.4952" font-family="Helvetica" font-weight="bold">_1 	1.369 MeV</text>
<text xml:space="preserve" x="260.293" y="160.373" fill="black" font-size="10.4952" font-family="Times">&#0945;</text>
<path d="M184.528,128.784v 31.2246" fill="none" stroke="black"/>
<path d="M186.819,160.009l -2.29122, 3.9685l -2.29122, -3.9685z" fill="black"/>
<path d="M186.819,160.009l -2.29122, 3.9685l -2.29122, -3.9685h 4.58243z" fill="none" stroke="black"/>
<text xml:space="preserve" x="172.117" y="125.754" fill="black" font-size="10.4952" font-family="Helvetica" font-weight="bold"># p_1 	0.844 MeV</text>
<path d="M210.104,147.186v 12.8229" fill="none" stroke="black"/>
<path d="M212.395,160.009l -2.29122, 3.9685l -2.29122, -3.9685z" fill="black"/>
<path d="M212.395,160.009l -2.29122, 3.9685l -2.29122, -3.9685h 4.58243z" fill="none" stroke="black"/>
<text xml:space="preserve" x="197.564" y="142.62" fill="black" font-size="10.4952" font-family="Helvetica" font-weight="bold"># p_2 	1.015 MeV</text>
<path d="M497.468,269.556h 13.1975" fill="none" stroke="black"/>
<path d="M504.067,258.962h 6.59877" fill="none" stroke="black"/>
<path d="M504.067,252.765h 6.59877" fill="none" stroke="black"/>
<path d="M504.067,248.368h 6.59877" fill="none" stroke="black"/>
<path d="M504.067,244.957h 6.59877" fill="none" stroke="black"/>
<path d="M504.067,242.171h 6.59877" fill="none" stroke="black"/>
<path d="M504.067,239.815h 6.59877" fill="none" stroke="black"/>
<path d="M504.067,237.774h 6.59877" fill="none" stroke="black"/>
<path d="M504.067,235.974h 6.59877" fill="none" stroke="black"/>
<path d="M497.468,234.363h 13.1975" fill="none" stroke="black"/>
<path d="M504.067,223.769h 6.59877" fill="none" stroke="black"/>
<path d="M504.067,217.572h 6.59877" fill="none" stroke="black"/>
<path d="M504.067,213.175h 6.59877" fill="none" stroke="black"/>
<path d="M504.067,209.764h 6.59877" fill="none" stroke="black"/>
<path d="M504.067,206.978h 6.59877" fill="none" stroke="black"/>
<path d="M504.067,204.622h 6.59877" fill="none" stroke="black"/>
<path d="M504.067,202.581h 6.59877" fill="none" stroke="black"/>
<path d="M504.067,200.781h 6.59877" fill="none" stroke="black"/>
<path d="M497.468,199.17h 13.1975" fill="none" stroke="black"/>
<path d="M504.067,188.576h 6.59877" fill="none" stroke="black"/>
<path d="M504.067,182.379h 6.59877" fill="none" stroke="black"/>
<path d="M504.067,177.982h 6.59877" fill="none" stroke="black"/>
<path d="M504.067,174.571h 6.59877" fill="none" stroke="black"/>
<path d="M504.067,171.785h 6.59877" fill="none" stroke="black"/>
<path d="M504.067,169.429h 6.59877" fill="none" stroke="black"/>
<path d="M504.067,167.388h 6.59877" fill="none" stroke="black"/>
<path d="M504.067,165.587h 6.59877" fill="none" stroke="black"/>
<path d="M497.468,163.977h 13.1975" fill="none" stroke="black"/>
<path d="M504.067,153.383h 6.59877" fill="none" stroke="black"/>
<path d="M504.067,147.186h 6.59877" fill="none" stroke="black"/>
<path d="M504.067,142.789h 6.59877" fill="none" stroke="black"/>
<path d="M504.067,139.378h 6.59877" fill="none" stroke="black"/>
<path d="M504.067,136.592h 6.59877" fill="none" stroke="black"/>
<path d="M504.067,134.235h 6.59877" fill="none" stroke="black"/>
<path d="M504.067,132.195h 6.59877" fill="none" stroke="black"/>
<path d="M504.067,130.394h 6.59877" fill="none" stroke="black"/>
<path d="M497.468,128.784h 13.1975" fill="none" stroke="black"/>
<path d="M504.067,118.19h 6.59877" fill="none" stroke="black"/>
<path d="M504.067,111.993h 6.59877" fill="none" stroke="black"/>
<path d="M504.067,107.596h 6.59877" fill="none" stroke="black"/>
<path d="M504.067,104.185h 6.59877" fill="none" stroke="black"/>
<path d="M504.067,101.398h 6.59877" fill="none" stroke="black"/>
<path d="M504.067,99.0424h 6.59877" fill="none" stroke="black"/>
<path d="M504.067,97.0015h 6.59877" fill="none" stroke="black"/>
<path d="M504.067,95.2012h 6.59877" fill="none" stroke="black"/>
<path d="M497.468,93.5909h 13.1975" fill="none" stroke="black"/>
<path d="M504.067,82.9967h 6.59877" fill="none" stroke="black"/>
<path d="M504.067,76.7995h 6.59877" fill="none" stroke="black"/>
<path d="M504.067,72.4025h 6.59877" fill="none" stroke="black"/>
<path d="M504.067,68.992h 6.59877" fill="none" stroke="black"/>
<path d="M504.067,66.2053h 6.59877" fill="none" stroke="black"/>
<path d="M504.067,63.8493h 6.59877" fill="none" stroke="black"/>
<path d="M504.067,61.8084h 6.59877" fill="none" stroke="black"/>
<path d="M504.067,60.0081h 6.59877" fill="none" stroke="black"/>
<path d="M497.468,58.3978h 13.1975" fill="none" stroke="black"/>
<path d="M504.067,47.8036h 6.59877" fill="none" stroke="black"/>
<path d="M504.067,41.6064h 6.59877" fill="none" stroke="black"/>
<path d="M504.067,37.2094h 6.59877" fill="none" stroke="black"/>
<path d="M504.067,33.7989h 6.59877" fill="none" stroke="black"/>
<path d="M504.067,31.0123h 6.59877" fill="none" stroke="black"/>
<path d="M504.067,28.6562h 6.59877" fill="none" stroke="black"/>
<path d="M57.1929,35.4843v -7.46952" fill="none" stroke="black"/>
<path d="M75.3318,35.4843v -7.46952" fill="none" stroke="black"/>
<path d="M93.4707,35.4843v -7.46952" fill="none" stroke="black"/>
<path d="M111.61,35.4843v -7.46952" fill="none" stroke="black"/>
<path d="M129.749,35.4843v -7.46952" fill="none" stroke="black"/>
<path d="M147.887,35.4843v -7.46952" fill="none" stroke="black"/>
<path d="M166.026,35.4843v -7.46952" fill="none" stroke="black"/>
<path d="M184.165,35.4843v -7.46952" fill="none" stroke="black"/>
<path d="M202.304,35.4843v -7.46952" fill="none" stroke="black"/>
<path d="M220.443,35.4843v -7.46952" fill="none" stroke="black"/>
<path d="M238.582,35.4843v -7.46952" fill="none" stroke="black"/>
<path d="M256.721,35.4843v -7.46952" fill="none" stroke="black"/>
<path d="M274.86,35.4843v -7.46952" fill="none" stroke="black"/>
<path d="M292.999,35.4843v -7.46952" fill="none" stroke="black"/>
<path d="M311.138,35.4843v -7.46952" fill="none" stroke="black"/>
<path d="M329.277,35.4843v -7.46952" fill="none" stroke="black"/>
<path d="M347.415,35.4843v -7.46952" fill="none" stroke="black"/>
<path d="M365.554,35.4843v -7.46952" fill="none" stroke="black"/>
<path d="M383.693,35.4843v -7.46952" fill="none" stroke="black"/>
<path d="M401.832,35.4843v -7.46952" fill="none" stroke="black"/>
<path d="M419.971,35.4843v -7.46952" fill="none" stroke="black"/>
<path d="M438.11,35.4843v -7.46952" fill="none" stroke="black"/>
<path d="M456.249,35.4843v -7.46952" fill="none" stroke="black"/>
<path d="M474.388,35.4843v -7.46952" fill="none" stroke="black"/>
<path d="M492.527,35.4843v -7.46952" fill="none" stroke="black"/>
<path d="M510.666,35.4843v -7.46952" fill="none" stroke="black"/></svg>
