<?xml version="1.0" standalone="no"?>
<svg width="567.429" height="311.778" viewBox="0 0 567.429 311.778" xmlns="http://www.w3.org/2000/svg" shape-rendering="crispEdges">
<title>
Yields/P1/run_0101/det11_Fit.svg
</title>
<desc>
Creator: ROOT Version 6.12/06
CreationDate: Mon Apr 15 10:29:02 2019</desc>
<defs>
</defs>
<rect x="0.5" y="0" width="566.929" height="311.278" fill="white"/>
<rect x="57.1929" y="31.1278" width="453.543" height="249.023" fill="white"/>
<rect x="57.1929" y="31.1278" width="453.543" height="249.023" fill="none" stroke="black"/>
<path d="M57.1929,40.8857h 0.181345v 239.265h 19.0412v -10.5834h 0.181345v 10.5834h 11.062v -21.1669h 0.181345v 21.1669h 0.725379v -27.3578h 0.181345v -18.3831h 0.181345v -7.17633h 0.181345v -14.7355h 0.181345v -8.44036h 0.181345v -11.1984h 0.181345v
 -6.58752h 0.181345v -5.29513h 0.181345v -2.14801h 0.181345v -2.94327h 0.181345v -1.17632h 0.181345v -1.86962h 0.181345v -0.688133h 0.181345v -0.977328h 0.181345v -0.595113h 0.181345v -0.231699h 0.181345v -0.979667h 0.181345v -0.509003h 0.181345v
 -0.0208446h 0.181345v -0.24794h 0.181345v 0.123467h 0.181345v 0.41892h 0.181345v -0.786365h 0.181345v -1.16463h 0.181345v 0.904647h 0.181345v -0.7544h 0.181345v 0.362875h 0.181345v 0.292699h 0.181345v -1.46421h 0.181345v -0.160256h 0.181345v
 1.48718h 0.181345v -0.761687h 0.181345v -0.97148h 0.181345v -0.224925h 0.181345v 1.17784h 0.181345v -0.795235h 0.181345v 0.739678h 0.181345v -0.491113h 0.181345v 0.161956h 0.181345v 0.571375h 0.181345v -1.50129h 0.181345v 0.309511h 0.181345v
 -0.377447h 0.181345v 1.38256h 0.181345v -0.724628h 0.181345v -0.228288h 0.181345v -0.24209h 0.181345v 0.470378h 0.181345v -0.297849h 0.181345v 0.966921h 0.181345v 0.223448h 0.181345v -0.0187461h 0.181345v -0.0561005h 0.181345v 0.435466h 0.181345v
 -0.547052h 0.181345v 0.85748h 0.181345v -0.501289h 0.181345v 0.639112h 0.181345v -0.409791h 0.181345v -0.677882h 0.181345v 0.222633h 0.181345v -0.277788h 0.181345v -1.35147h 0.181345v -0.512031h 0.181345v -2.13398h 0.181345v -1.31206h 0.181345v
 -1.96739h 0.181345v -1.20461h 0.181345v -3.31839h 0.181345v -2.63195h 0.181345v -2.31185h 0.181345v -1.91576h 0.181345v -2.22959h 0.181345v -1.68375h 0.181345v -1.20637h 0.181345v -0.654661h 0.181345v 0.0408005h 0.181345v -0.00371365h 0.181345v
 0.652412h 0.181345v 1.11306h 0.181345v 1.38664h 0.181345v 2.43989h 0.181345v 2.59116h 0.181345v 2.47473h 0.181345v 3.1188h 0.181345v 2.90512h 0.181345v 4.00263h 0.181345v 4.34941h 0.181345v 2.17613h 0.181345v 3.78689h 0.181345v 1.42137h 0.181345v
 2.19929h 0.181345v 0.659182h 0.181345v 0.150431h 0.181345v 0.382693h 0.181345v 1.42042h 0.181345v -0.127063h 0.181345v 0.298142h 0.181345v -0.918065h 0.181345v 1.39866h 0.181345v -0.0885143h 0.181345v 0.402419h 0.181345v -0.577922h 0.181345v
 0.219697h 0.181345v -1.06817h 0.181345v 1.24624h 0.181345v 0.0898159h 0.181345v -0.747105h 0.181345v 2.01436h 0.181345v 0.0981911h 0.181345v -1.32034h 0.181345v 1.07603h 0.181345v 0.847093h 0.181345v -2.01321h 0.181345v 1.50924h 0.181345v -0.535798h
 0.181345v -0.883366h 0.181345v 2.02595h 0.181345v -1.9807h 0.181345v 1.6743h 0.181345v -1.94375h 0.181345v 0.917313h 0.181345v 2.07265h 0.181345v 1.18159h 0.181345v -2.07537h 0.181345v 0.572317h 0.181345v -0.623297h 0.181345v 0.998995h 0.36269v
 0.274131h 0.181345v 0.794831h 0.181345v 0.234907h 0.181345v -0.637494h 0.181345v -0.113102h 0.181345v 1.91859h 0.181345v -1.80549h 0.181345v 1.11844h 0.181345v 1.00987h 0.181345v -1.43151h 0.181345v 0.482844h 0.181345v 0.5621h 0.181345v -1.74173h
 0.181345v 0.519589h 0.181345v 0.356483h 0.181345v -0.876072h 0.181345v 2.72715h 0.181345v -1.30025h 0.181345v 0.0624486h 0.181345v 1.30581h 0.181345v -0.989677h 0.181345v 0.19287h 0.181345v -0.509003h 0.181345v 1.8611h 0.181345v -1.02513h 0.181345v
 -0.835967h 0.181345v 1.30581h 0.181345v -0.403601h 0.181345v 2.91716h 0.181345v -0.935109h 0.181345v -2.43982h 0.181345v 0.929684h 0.181345v -0.735176h 0.181345v 0.8038h 0.181345v 0.347821h 0.181345v -0.0702009h 0.181345v -1.14653h 0.181345v
 1.93709h 0.181345v -0.578976h 0.181345v 0.359279h 0.181345v 0.593032h 0.181345v -2.31042h 0.181345v 2.6158h 0.181345v -1.32855h 0.181345v 0.872733h 0.181345v -1.69827h 0.181345v 2.15408h 0.181345v -0.153455h 0.181345v -1.8661h 0.181345v -0.853954h
 0.181345v 1.83037h 0.181345v -0.565571h 0.181345v 0.139441h 0.181345v 0.570858h 0.181345v -1.91107h 0.181345v 0.588587h 0.181345v -0.198727h 0.181345v -2.03062h 0.181345v 0.828736h 0.181345v -1.33868h 0.181345v -1.934h 0.181345v 0.197655h 0.181345v
 0.660644h 0.181345v -1.90191h 0.181345v 1.24126h 0.181345v 0.817247h 0.181345v -0.515882h 0.181345v -0.742545h 0.181345v 2.34562h 0.181345v -0.444211h 0.181345v 0.728552h 0.181345v 0.0575092h 0.181345v 1.19816h 0.181345v 0.832461h 0.181345v
 0.0659555h 0.181345v 3.22641h 0.181345v -3.93671h 0.181345v 1.11213h 0.181345v 2.34237h 0.181345v 0.729146h 0.181345v -1.65015h 0.181345v 0.453558h 0.181345v 1.19659h 0.181345v -1.11967h 0.181345v -0.752303h 0.181345v 3.53611h 0.181345v -0.722912h
 0.181345v -1.10629h 0.181345v 0.843787h 0.181345v 0.801455h 0.181345v -2.05027h 0.181345v 0.990748h 0.181345v -1.38531h 0.181345v 0.0781008h 0.181345v 0.886557h 0.181345v -1.72445h 0.181345v -0.0739404h 0.181345v 3.55535h 0.181345v -2.87663h
 0.181345v 1.28654h 0.181345v -0.816701h 0.181345v 2.03885h 0.181345v -1.79839h 0.181345v 0.162434h 0.181345v 2.66992h 0.181345v -1.03397h 0.181345v -0.623297h 0.181345v -2.71093h 0.181345v 1.05865h 0.181345v -0.462722h 0.181345v -0.885388h 0.181345v
 1.03808h 0.181345v 0.626495h 0.181345v 0.405028h 0.181345v -0.163303h 0.181345v -0.479683h 0.181345v 0.318109h 0.181345v -2.44524h 0.181345v -0.204039h 0.181345v 1.94264h 0.181345v 0.15423h 0.181345v -0.975726h 0.181345v 0.442601h 0.181345v
 -1.83162h 0.181345v 1.53513h 0.181345v -0.925657h 0.181345v -0.273885h 0.181345v 2.66214h 0.181345v -1.68125h 0.181345v 1.28257h 0.181345v -0.234306h 0.181345v -0.975726h 0.181345v 2.18496h 0.181345v -0.736969h 0.181345v -0.854958h 0.181345v
 1.25999h 0.181345v -1.63332h 0.181345v 2.3906h 0.181345v 1.54177h 0.181345v -0.5621h 0.181345v 0.0922581h 0.181345v 1.66021h 0.181345v -2.64563h 0.181345v 0.710299h 0.181345v 0.18286h 0.181345v -1.48867h 0.181345v -0.653305h 0.181345v 0.487339h
 0.181345v 1.38116h 0.181345v 1.12458h 0.181345v 0.594958h 0.181345v -2.33922h 0.181345v 1.74426h 0.181345v -1.39325h 0.181345v -0.778741h 0.181345v 1.41314h 0.181345v 0.0928189h 0.181345v -1.07824h 0.181345v 0.351019h 0.181345v 0.914565h 0.181345v
 0.773262h 0.181345v 0.300377h 0.181345v -1.35381h 0.181345v 1.05343h 0.181345v -0.96061h 0.181345v 0.281891h 0.181345v 1.49324h 0.181345v -1.20605h 0.36269v -1.38482h 0.181345v 1.00308h 0.181345v -1.09108h 0.181345v 1.28076h 0.181345v -2.54335h
 0.181345v 1.26259h 0.181345v 1.66733h 0.181345v -0.194508h 0.181345v -1.02764h 0.181345v -0.792212h 0.181345v 1.72352h 0.36269v -0.0957286h 0.181345v -1.54177h 0.181345v 0.616111h 0.181345v -1.53669h 0.36269v 1.18159h 0.181345v -1.89558h 0.181345v
 1.63457h 0.181345v 0.526558h 0.181345v 0.920078h 0.181345v 0.678719h 0.181345v -1.23739h 0.181345v 1.43698h 0.181345v -2.32495h 0.181345v 2.83565h 0.181345v -2.21954h 0.181345v -1.69827h 0.181345v 2.43425h 0.181345v -3.59445h 0.181345v 1.48508h
 0.181345v 0.757279h 0.181345v 3.25688h 0.181345v -1.71512h 0.181345v -2.13398h 0.181345v -0.409372h 0.181345v 3.22641h 0.181345v -2.22483h 0.181345v 1.6375h 0.181345v 0.487858h 0.181345v -3.04594h 0.181345v 1.99251h 0.181345v -2.07351h 0.181345v
 1.00158h 0.181345v 0.261009h 0.181345v 1.56976h 0.181345v -0.289005h 0.181345v -1.79839h 0.181345v 1.42137h 0.181345v -0.903735h 0.181345v 0.626954h 0.181345v 0.276781h 0.181345v 0.472752h 0.181345v -2.1465h 0.181345v 2.33978h 0.181345v 0.901363h
 0.181345v -1.56739h 0.181345v 0.472752h 0.181345v 0.487858h 0.181345v -0.0988267h 0.36269v 2.92234h 0.181345v -1.03752h 0.181345v -1.17922h 0.181345v -1.09464h 0.181345v 1.61939h 0.181345v -0.317008h 0.181345v -0.104223h 0.181345v -0.103517h
 0.181345v -0.306405h 0.181345v -0.200906h 0.181345v 2.60522h 0.181345v -1.67957h 0.181345v 1.91814h 0.181345v -1.04541h 0.181345v 0.925657h 0.181345v 0.240456h 0.181345v 0.121663h 0.181345v -2.37112h 0.181345v 1.30955h 0.181345v 2.07144h 0.181345v
 1.50755h 0.181345v -4.35647h 0.181345v 2.71897h 0.181345v -0.256622h 0.181345v -1.22215h 0.181345v -1.56166h 0.181345v 2.78381h 0.181345v -3.4071h 0.181345v 0.944755h 0.181345v 3.51578h 0.181345v -2.9645h 0.181345v 2.03885h 0.181345v -0.254484h
 0.181345v -1.32855h 0.181345v 0.469842h 0.181345v 3.02426h 0.181345v -4.5012h 0.181345v 2.59012h 0.181345v -0.628429h 0.181345v 1.55409h 0.181345v -1.55409h 0.181345v 1.96865h 0.181345v 0.570858h 0.181345v -2.66214h 0.181345v 1.95185h 0.181345v
 -0.275119h 0.181345v -2.9645h 0.181345v 2.03885h 0.181345v 0.258797h 0.181345v -0.129947h 0.181345v 2.22483h 0.181345v -2.48145h 0.181345v 0.917707h 0.181345v 1.41478h 0.181345v -3.55463h 0.181345v 0.969765h 0.181345v 2.00313h 0.181345v -2.00313h
 0.181345v 0.509003h 0.36269v -0.256622h 0.181345v 2.63188h 0.181345v -1.16389h 0.181345v 0.42613h 0.181345v -2.02083h 0.181345v 2.02083h 0.36269v -0.70375h 0.181345v 0.418346h 0.181345v 1.02316h 0.181345v 0.460397h 0.181345v -2.17457h 0.181345v
 -0.400075h 0.181345v -1.38329h 0.181345v 1.64884h 0.181345v 1.25567h 0.181345v -0.985417h 0.181345v -2.15767h 0.181345v 2.43279h 0.181345v 1.30333h 0.181345v 0.460397h 0.181345v -1.76373h 0.181345v -0.138179h 0.181345v -1.44275h 0.181345v 3.98094h
 0.181345v 1.71739h 0.181345v -2.50869h 0.181345v -3.18964h 0.181345v 3.65948h 0.181345v -1.79839h 0.181345v 1.32855h 0.181345v 0.469842h 0.181345v -3.65948h 0.181345v -0.248276h 0.181345v 2.83314h 0.181345v 0.451324h 0.181345v -1.73038h 0.181345v
 0.414559h 0.181345v 0.570858h 0.181345v -0.848478h 0.181345v -0.672737h 0.181345v -1.26259h 0.181345v 1.52814h 0.181345v -1.52814h 0.181345v 0.872733h 0.181345v -0.751069h 0.181345v 1.67673h 0.181345v -0.925657h 0.181345v 0.389859h 0.181345v
 2.88947h 0.181345v -0.158226h 0.181345v -3.6259h 0.181345v -0.488639h 0.181345v 2.47438h 0.181345v -2.71295h 0.181345v -0.466255h 0.181345v 0.825534h 0.181345v 1.26259h 0.181345v 2.73125h 0.181345v -6.34751h 0.181345v -1.48356h 0.181345v 3.24305h
 0.181345v -1.44466h 0.181345v -1.31971h 0.181345v 0.594958h 0.181345v 2.28641h 0.181345v -3.91534h 0.181345v 0.649829h 0.181345v 1.18268h 0.181345v -3.46847h 0.181345v 1.91107h 0.181345v -2.39328h 0.181345v 2.39328h 0.181345v -1.58093h 0.181345v
 0.509003h 0.181345v 0.796807h 0.181345v -1.30581h 0.36269v 1.03556h 0.181345v -2.99074h 0.181345v 1.30188h 0.36269v 2.32705h 0.181345v 0.377023h 0.181345v -2.21674h 0.181345v 0.761476h 0.181345v -0.427722h 0.181345v 0.255193h 0.181345v 1.34415h
 0.181345v -0.997122h 0.181345v -0.686348h 0.181345v -0.736969h 0.181345v 0.323158h 0.181345v -1.84368h 0.181345v 1.36148h 0.181345v -0.467445h 0.181345v 0.706645h 0.181345v -2.71669h 0.181345v -1.28926h 0.181345v 0.956597h 0.181345v -0.261009h
 0.181345v -0.695588h 0.181345v -2.02338h 0.181345v -2.21381h 0.181345v -0.776153h 0.181345v -0.907316h 0.181345v -1.51615h 0.181345v 0.152688h 0.181345v -1.94264h 0.181345v -0.821978h 0.181345v -0.534694h 0.181345v 0.0619419h 0.181345v -0.578543h
 0.181345v -1.26117h 0.181345v -0.326615h 0.181345v 0.773262h 0.181345v -0.36389h 0.181345v 0.0554217h 0.181345v 0.797798h 0.181345v 0.688029h 0.181345v -0.42248h 0.181345v 1.27183h 0.181345v 2.60372h 0.181345v -1.32215h 0.181345v 3.15415h 0.181345v
 -1.04478h 0.181345v 2.02731h 0.181345v 1.1991h 0.181345v -0.0498163h 0.181345v 1.84821h 0.181345v 1.22682h 0.181345v 1.33408h 0.181345v 1.53513h 0.181345v 2.55069h 0.36269v 2.54281h 0.181345v -2.62932h 0.181345v 5.06863h 0.181345v -0.473485h
 0.181345v 2.6677h 0.181345v -4.11235h 0.181345v 2.40678h 0.181345v 0.250312h 0.181345v 5.03686h 0.181345v -3.1594h 0.181345v -0.560381h 0.181345v 0.99459h 0.181345v -0.856411h 0.181345v 0.856411h 0.181345v 1.5436h 0.181345v -0.636286h 0.181345v
 -0.155013h 0.181345v -0.898416h 0.181345v 2.52428h 0.181345v -2.669h 0.181345v -0.70375h 0.36269v 1.44151h 0.181345v 1.25999h 0.181345v 0.671258h 0.181345v -0.671258h 0.181345v -1.41042h 0.181345v 2.2542h 0.181345v -1.64338h 0.181345v 1.9944h
 0.181345v -2.75419h 0.181345v 0.451324h 0.181345v 2.12635h 0.181345v -0.34703h 0.181345v -2.23064h 0.181345v -1.94591h 0.181345v 3.18042h 0.181345v 2.43425h 0.181345v -2.59413h 0.181345v 0.649829h 0.181345v -0.328371h 0.181345v -0.161575h 0.181345v
 -0.629725h 0.181345v 0.469842h 0.181345v -1.36826h 0.181345v 2.18496h 0.181345v 0.686348h 0.181345v -4.12697h 0.181345v 4.12697h 0.181345v 0.718658h 0.181345v 1.75247h 0.181345v -4.289h 0.181345v 2.17298h 0.181345v 0.180696h 0.181345v -0.180696h
 0.181345v -0.529602h 0.181345v 3.06397h 0.181345v -5.01582h 0.181345v 1.60871h 0.36269v -0.66396h 0.181345v 2.46235h 0.181345v 0.386569h 0.181345v -3.3286h 0.181345v 0.318109h 0.181345v 2.06182h 0.181345v 0.948669h 0.181345v 2.09488h 0.181345v
 -3.93671h 0.181345v -2.69681h 0.181345v 4.73565h 0.181345v 1.67496h 0.181345v -4.88247h 0.181345v 4.66277h 0.181345v -2.22852h 0.181345v 0.972856h 0.181345v -1.52814h 0.36269v 0.744961h 0.181345v -2.46235h 0.181345v -0.7913h 0.181345v 1.11967h
 0.181345v 1.9443h 0.181345v 1.17509h 0.181345v -3.60934h 0.181345v 0.489946h 0.36269v 1.38902h 0.181345v -2.03885h 0.181345v -0.925657h 0.181345v 0.150431h 0.181345v 2.10377h 0.181345v 0.710299h 0.181345v -1.87896h 0.181345v -3.18042h 0.181345v
 7.41306h 0.181345v -5.61467h 0.181345v 1.06392h 0.181345v -2.05851h 0.181345v 0.418346h 0.181345v -0.691008h 0.181345v -3.80718h 0.181345v 3.01725h 0.181345v -3.12218h 0.181345v 0.424157h 0.181345v -2.56723h 0.181345v 1.03397h 0.181345v -1.21466h
 0.181345v -2.09488h 0.181345v -1.27626h 0.181345v 0.217609h 0.181345v -2.48875h 0.181345v -2.30038h 0.181345v 0.107149h 0.181345v -0.938302h 0.181345v -2.72471h 0.181345v 0.298976h 0.181345v -0.341213h 0.181345v -1.97545h 0.181345v 0.111586h
 0.181345v -1.76101h 0.181345v -0.0663856h 0.181345v 1.20559h 0.181345v -2.47607h 0.181345v -0.77251h 0.181345v 0.292512h 0.181345v 1.75047h 0.181345v -0.36005h 0.181345v 0.393206h 0.181345v 1.28034h 0.181345v -0.215055h 0.181345v 0.728953h 0.181345v
 0.112408h 0.181345v 1.92111h 0.181345v -0.295668h 0.181345v 2.298h 0.181345v 1.85929h 0.36269v 2.96058h 0.181345v -0.588587h 0.181345v 1.76635h 0.181345v 2.58347h 0.181345v 1.05952h 0.181345v 2.15685h 0.181345v -0.517631h 0.181345v 3.15472h
 0.181345v 1.17009h 0.181345v 3.47481h 0.181345v 1.60871h 0.181345v -0.914565h 0.181345v 1.68783h 0.181345v 1.02513h 0.181345v -0.623297h 0.181345v 9.22099h 0.181345v -2.08533h 0.181345v 1.35811h 0.181345v -3.75812h 0.181345v 1.45526h 0.181345v
 3.79367h 0.181345v -0.386569h 0.181345v 0.78318h 0.181345v -5.36538h 0.181345v 3.83724h 0.181345v 4.15207h 0.36269v -4.86236h 0.36269v 1.45526h 0.181345v -3.70946h 0.181345v 9.7107h 0.181345v -6.7462h 0.36269v 0.367937h 0.181345v 1.56739h 0.181345v
 0.418346h 0.181345v 0.430132h 0.181345v -2.41587h 0.181345v 0.763592h 0.181345v 1.22215h 0.181345v -2.71295h 0.181345v 6.01439h 0.181345v -1.50305h 0.181345v -4.51134h 0.181345v 1.49081h 0.181345v -0.763592h 0.181345v 1.56739h 0.181345v 0.418346h
 0.181345v 1.32855h 0.181345v -4.39252h 0.181345v 1.07824h 0.181345v 1.98574h 0.181345v -4.07106h 0.181345v 4.07106h 0.181345v -1.98574h 0.181345v 0.763592h 0.181345v -1.84183h 0.181345v 3.06397h 0.181345v 3.30144h 0.181345v -8.91611h 0.181345v
 5.61467h 0.181345v -3.4071h 0.181345v 2.18496h 0.181345v -1.13153h 0.181345v 0.367937h 0.181345v -0.727217h 0.36269v -0.351019h 0.181345v 0.710299h 0.181345v -3.26099h 0.181345v 1.87197h 0.181345v 5.54108h 0.181345v -2.21674h 0.181345v -1.19037h
 0.181345v -2.46235h 0.181345v 3.24553h 0.181345v -0.78318h 0.181345v -3.70946h 0.181345v -1.69827h 0.181345v 2.3091h 0.181345v 3.88182h 0.181345v -2.91716h 0.181345v 3.74269h 0.36269v -5.01582h 0.181345v 3.03008h 0.181345v -2.72161h 0.181345v
 -1.76373h 0.181345v 5.24893h 0.181345v 2.55069h 0.181345v 0.954602h 0.181345v -2.7015h 0.181345v -4.59747h 0.181345v 3.4071h 0.181345v -2.46235h 0.181345v 3.24553h 0.36269v -1.52814h 0.36269v 1.93533h 0.36269v -0.8038h 0.181345v -2.18496h 0.181345v
 2.18496h 0.181345v -2.18496h 0.181345v 6.19091h 0.181345v -2.35368h 0.181345v -1.65228h 0.181345v 3.02054h 0.181345v -1.36826h 0.181345v -3.83724h 0.181345v 1.42137h 0.181345v 10.2155h 0.181345v -12.6223h 0.181345v -0.623297h 0.181345v 3.79367h
 0.181345v -4.68336h 0.181345v 2.16281h 0.181345v -1.87197h 0.181345v 3.26099h 0.181345v -1.38902h 0.181345v 4.61543h 0.181345v -1.69827h 0.181345v -2.91716h 0.181345v -0.649829h 0.181345v 3.17038h 0.181345v 1.65228h 0.36269v -0.430132h 0.181345v
 -2.35368h 0.181345v 2.78381h 0.181345v -0.848478h 0.181345v -2.29461h 0.181345v 3.58569h 0.181345v -4.27984h 0.181345v 5.69025h 0.181345v 2.68562h 0.181345v -9.03983h 0.181345v 5.86945h 0.181345v -0.469842h 0.181345v -4.73565h 0.181345v 1.79839h
 0.181345v 5.44595h 0.181345v -1.55409h 0.181345v -2.28315h 0.181345v 0.430132h 0.181345v -0.430132h 0.181345v -0.418346h 0.181345v -0.407189h 0.181345v -2.23844h 0.181345v 4.86236h 0.181345v -0.469842h 0.181345v 0.469842h 0.181345v -1.36826h
 0.181345v -4.5012h 0.181345v 4.5012h 0.181345v -2.78381h 0.181345v 2.35368h 0.181345v 3.83724h 0.181345v -4.66277h 0.181345v 1.69827h 0.181345v 4.09603h 0.181345v -5.7943h 0.181345v 2.15408h 0.181345v 0.954602h 0.181345v -0.954602h 0.181345v
 -0.455815h 0.181345v 0.925657h 0.181345v 4.39252h 0.181345v -3.4071h 0.181345v 0.517631h 0.181345v 2.88947h 0.181345v -2.35368h 0.181345v 1.73038h 0.181345v -1.73038h 0.181345v 1.73038h 0.181345v -5.98596h 0.181345v 10.1762h 0.181345v -5.36538h
 0.181345v 4.5822h 0.181345v -4.5822h 0.181345v -4.81087h 0.181345v 7.25909h 0.181345v 1.38902h 0.181345v 0.744961h 0.181345v -6.19091h 0.181345v -2.78381h 0.181345v 11.4562h 0.181345v -9.65778h 0.181345v 2.59413h 0.181345v 7.06364h 0.181345v
 -5.88855h 0.181345v -1.17509h 0.181345v 3.83724h 0.181345v 0.744961h 0.36269v -8.10199h 0.181345v 4.09603h 0.181345v 4.00595h 0.181345v -4.00595h 0.181345v 6.4874h 0.181345v -5.26525h 0.181345v 8.22976h 0.181345v -2.9645h 0.181345v -5.26525h
 0.181345v 9.36129h 0.181345v -6.57748h 0.181345v 3.4071h 0.181345v -3.4071h 0.181345v 6.57748h 0.181345v -4.96877h 0.36269v 1.79839h 0.36269v -4.86236h 0.181345v 5.84778h 0.181345v -3.60934h 0.36269v 3.60934h 0.181345v -3.60934h 0.36269v 3.60934h
 0.36269v 4.73565h 0.181345v -5.72107h 0.181345v -0.925657h 0.181345v 5.31818h 0.181345v -3.4071h 0.181345v 1.05343h 0.181345v -2.9645h 0.181345v 5.31818h 0.181345v -2.35368h 0.181345v 2.35368h 0.36269v -4.39252h 0.181345v -3.4071h 0.181345v 12.1921h
 0.181345v -1.60871h 0.36269v -2.78381h 0.181345v 1.32855h 0.181345v -2.55069h 0.36269v 2.55069h 0.181345v 3.06397h 0.181345v 12.3818h 0.181345v -20.1814h 0.181345v 3.4071h 0.181345v 2.78381h 0.181345v 1.60871h 0.181345v -4.39252h 0.181345v -1.22215h
 0.181345v -3.17038h 0.181345v 4.39252h 0.181345v -3.4071h 0.181345v 4.73565h 0.181345v 3.06397h 0.181345v -7.79963h 0.181345v -2.78381h 0.181345v 22.9653h 0.181345v -22.9653h 0.181345v 7.51946h 0.181345v -3.68222h 0.181345v 6.7462h 0.181345v
 -8.78504h 0.181345v -4.15207h 0.181345v 6.19091h 0.181345v 3.68222h 0.181345v -1.32855h 0.181345v 4.39252h 0.181345v -15.5993h 0.181345v 0.623297h 0.36269v -1.79839h 0.181345v 8.97472h 0.181345v -2.78381h 0.181345v -8.78504h 0.181345v 3.76922h
 0.36269v -0.598848h 0.181345v -2.68562h 0.181345v -1.41042h 0.181345v 1.41042h 0.181345v 3.28446h 0.181345v -1.73038h 0.181345v 1.73038h 0.181345v -1.17509h 0.181345v 1.17509h 0.181345v -1.17509h 0.181345v 0.576244h 0.181345v -2.18496h 0.181345v
 2.78381h 0.36269v -1.17509h 0.181345v -1.09108h 0.181345v 0.535798h 0.181345v 1.13153h 0.181345v -3.17038h 0.181345v 5.04235h 0.181345v 0.678719h 0.36269v -5.72107h 0.181345v 4.39252h 0.181345v -1.79839h 0.181345v 2.44822h 0.181345v 0.678719h
 0.181345v -3.68222h 0.181345v -2.03885h 0.181345v 5.04235h 0.181345v -3.0035h 0.181345v 5.13748h 0.181345v -3.4071h 0.181345v -4.23907h 0.181345v -2.55069h 0.181345v 7.41306h 0.181345v -6.60926h 0.181345v -1.93533h 0.181345v 2.78381h 0.181345v
 -1.25567h 0.181345v -1.88742h 0.181345v 0.359279h 0.181345v -6.43137h 0.181345v 3.46686h 0.181345v 2.2542h 0.181345v -4.98803h 0.181345v -3.35696h 0.181345v 0.825534h 0.181345v 1.32855h 0.36269v -3.68222h 0.181345v -2.19707h 0.181345v -0.916395h
 0.181345v 1.55938h 0.181345v 0.671258h 0.181345v -3.50969h 0.181345v 0.275119h 0.181345v -2.07351h 0.181345v -2.86438h 0.181345v 1.58641h 0.181345v 1.89622h 0.181345v -3.38185h 0.181345v 0.514145h 0.181345v 0.532063h 0.181345v -1.5436h 0.181345v
 0.907316h 0.181345v -0.610828h 0.181345v -1.33686h 0.181345v 0.653804h 0.181345v 1.93017h 0.181345v -2.49227h 0.181345v -0.363557h 0.181345v 2.01321h 0.181345v -1.55739h 0.36269v -1.24349h 0.181345v 0.698118h 0.181345v 3.27375h 0.181345v -2.82064h
 0.181345v -3.51708h 0.181345v 0.825534h 0.181345v 2.59984h 0.181345v -2.36673h 0.181345v -0.233114h 0.181345v 0.390524h 0.181345v -0.846339h 0.181345v 0.150431h 0.181345v 1.01568h 0.181345v -0.787219h 0.181345v -0.527858h 0.181345v 0.0743002h
 0.181345v 0.842095h 0.181345v 1.40027h 0.181345v -0.425339h 0.181345v 2.06283h 0.181345v 0.687452h 0.181345v -2.58157h 0.181345v 2.0874h 0.181345v -0.666029h 0.181345v 1.77513h 0.181345v 2.37112h 0.181345v 0.246274h 0.181345v -0.367937h 0.181345v
 2.92992h 0.181345v -0.716971h 0.181345v -0.414559h 0.181345v 4.39252h 0.181345v 0.937022h 0.181345v -2.32604h 0.181345v 3.32435h 0.181345v 1.74689h 0.181345v 1.45526h 0.181345v 3.72856h 0.181345v -2.11985h 0.181345v 1.17509h 0.181345v 4.19028h
 0.181345v 6.39315h 0.181345v -3.76922h 0.181345v 10.5834h 0.181345v -7.41306h 0.181345v 4.00595h 0.181345v 2.48145h 0.181345v 1.91107h 0.36269v 7.79963h 0.181345v -7.79963h 0.181345v 6.19091h 0.181345v 1.60871h 0.181345v -3.06397h 0.181345v 6.90121h
 0.181345v -3.83724h 0.181345v 6.19091h 0.181345v -7.79963h 0.181345v 5.44595h 0.36269v -3.83724h 0.181345v 6.19091h 0.181345v -2.35368h 0.181345v -5.44595h 0.181345v 18.3831h 0.181345v -7.79963h 0.181345v -5.13748h 0.181345v -5.44595h 0.181345v
 18.3831h 0.181345v -4.39252h 0.36269v 10.5834h 0.181345v -16.7743h 0.181345v 2.78381h 0.181345v 7.79963h 0.36269v 6.19091h 0.181345v -6.19091h 0.181345v -10.5834h 0.181345v -4.39252h 0.181345v 2.03885h 0.181345v 29.7115h 0.181345v -21.1669h
 0.181345v 10.5834h 0.181345v -6.19091h 0.36269v -4.39252h 0.181345v -3.4071h 0.181345v 7.79963h 0.36269v 6.19091h 0.36269v -6.19091h 0.181345v -7.79963h 0.181345v 3.4071h 0.181345v 10.5834h 0.181345v -6.19091h 0.181345v -7.79963h 0.181345v -7.17633h
 0.181345v 14.976h 0.36269v -4.39252h 0.181345v 21.1669h 0.181345v -21.1669h 0.181345v -6.19091h 0.181345v 10.5834h 0.36269v -4.39252h 0.181345v -6.19091h 0.181345v 6.19091h 0.181345v 21.1669h 0.181345v -21.1669h 0.181345v -6.19091h 0.181345v
 6.19091h 0.181345v 10.5834h 0.36269v -6.19091h 0.181345v -12.9371h 0.181345v 12.9371h 0.181345v 6.19091h 0.36269v -22.9653h 0.181345v 3.83724h 0.181345v 8.54459h 0.181345v -3.4071h 0.181345v -5.13748h 0.181345v 2.35368h 0.544034v 6.19091h 0.181345v
 -10.5834h 0.181345v 4.39252h 0.181345v -6.19091h 0.181345v 1.79839h 0.181345v 10.5834h 0.181345v -6.19091h 0.181345v -2.35368h 0.181345v 8.54459h 0.181345v -12.3818h 0.181345v 3.83724h 0.181345v -5.44595h 0.181345v 5.44595h 0.36269v -2.03885h
 0.181345v -4.86236h 0.181345v 3.06397h 0.181345v -3.06397h 0.181345v 4.86236h 0.181345v -3.4071h 0.544034v 5.44595h 0.181345v -6.90121h 0.181345v -1.32855h 0.181345v 6.19091h 0.181345v -3.4071h 0.36269v -6.19091h 0.181345v 11.6369h 0.181345v
 -2.03885h 0.181345v -4.86236h 0.181345v -2.55069h 0.181345v 1.22215h 0.181345v 2.78381h 0.181345v 13.9905h 0.36269v -10.5834h 0.181345v 7.17633h 0.181345v -12.0387h 0.181345v 4.86236h 0.181345v 4.39252h 0.181345v 10.5834h 0.181345v -12.9371h
 0.36269v 12.9371h 0.181345v -4.39252h 0.36269v 10.5834h 0.181345v -6.19091h 0.181345v 16.7743h 0.181345v -27.3578h 0.181345v 6.19091h 0.181345v 21.1669h 0.181345v -10.5834h 0.181345v -19.128h 0.181345v 8.54459h 0.181345v 21.1669h 0.181345v -10.5834h
 0.181345v -10.5834h 0.181345v 21.1669h 0.181345v -27.3578h 0.181345v 27.3578h 0.181345v -10.5834h 0.181345v 21.1669h 0.181345v -35.1574h 0.181345v 3.4071h 0.181345v 21.1669h 0.181345v -10.5834h 0.181345v -13.9905h 0.181345v 24.574h 0.181345v
 -16.7743h 0.725379v -7.79963h 0.181345v 13.9905h 0.181345v -16.7743h 0.181345v 2.78381h 0.181345v 7.79963h 0.36269v -4.39252h 0.181345v -8.54459h 0.181345v 19.128h 0.36269v -16.7743h 0.181345v 16.7743h 0.181345v 10.5834h 0.181345v -21.1669h
 0.181345v 10.5834h 0.181345v -10.5834h 0.181345v 31.7503h 0.181345v -37.9412h 0.181345v 27.3578h 0.181345v -10.5834h 0.181345v -13.9905h 0.181345v 13.9905h 0.181345v -10.5834h 0.181345v 4.39252h 0.181345v 6.19091h 0.181345v -6.19091h 0.181345v
 6.19091h 0.181345v -6.19091h 0.36269v -4.39252h 0.181345v 10.5834h 0.36269v -13.9905h 0.181345v 3.4071h 0.36269v -8.54459h 0.36269v 12.9371h 0.181345v -4.39252h 0.181345v 4.39252h 0.181345v 6.19091h 0.181345v -6.19091h 0.36269v -10.5834h 0.181345v
 6.19091h 0.181345v 10.5834h 0.181345v -13.9905h 0.36269v -2.78381h 0.36269v -4.39252h 0.181345v 2.03885h 0.181345v 5.13748h 0.181345v -2.78381h 0.36269v 2.78381h 0.181345v -5.13748h 0.36269v 5.13748h 0.181345v -2.78381h 0.181345v -2.35368h 0.36269v
 5.13748h 0.181345v -7.17633h 0.181345v -3.4071h 0.181345v 24.574h 0.181345v -13.9905h 0.181345v 24.574h 0.181345v -24.574h 0.181345v -8.97472h 0.181345v 16.7743h 0.181345v 6.19091h 0.181345v -10.5834h 0.181345v -3.4071h 0.36269v 24.574h 0.181345v
 -31.7503h 0.181345v 10.5834h 0.181345v -8.54459h 0.181345v -5.44595h 0.181345v 13.9905h 0.181345v -13.9905h 0.181345v 18.3831h 0.181345v -4.39252h 0.181345v 21.1669h 0.181345v -27.3578h 0.181345v 2.78381h 0.181345v 3.4071h 0.181345v -8.54459h
 0.181345v 8.54459h 0.181345v 4.39252h 0.181345v 6.19091h 0.36269v -22.9653h 0.181345v 1.79839h 0.181345v 21.1669h 0.181345v -13.9905h 0.36269v 7.79963h 0.181345v 6.19091h 0.181345v -10.5834h 0.181345v -3.4071h 0.181345v 24.574h 0.181345v -29.7115h
 0.181345v 8.54459h 0.181345v -13.9905h 0.181345v 7.79963h 0.181345v -4.39252h 0.181345v 2.03885h 0.181345v 29.7115h 0.181345v -10.5834h 0.181345v -13.9905h 0.544034v -2.78381h 0.181345v -2.35368h 0.544034v 29.7115h 0.181345v -21.1669h 0.36269v
 -8.54459h 0.181345v 19.128h 0.181345v -19.128h 0.181345v -3.83724h 0.36269v 22.9653h 0.181345v -13.9905h 0.181345v 7.79963h 0.181345v 16.7743h 0.181345v -21.1669h 0.181345v -8.54459h 0.181345v 5.13748h 0.181345v 3.4071h 0.181345v -3.4071h 0.181345v
 13.9905h 0.181345v -21.1669h 0.181345v -1.79839h 0.181345v -3.06397h 0.181345v 15.4458h 0.181345v -3.4071h 0.181345v -2.78381h 0.181345v 16.7743h 0.36269v -6.19091h 0.181345v -4.39252h 0.36269v -10.5834h 0.36269v -3.4071h 0.181345v 3.4071h 0.181345v
 -4.86236h 0.181345v 26.0292h 0.181345v -22.9653h 0.181345v 8.97472h 0.181345v -12.0387h 0.36269v 12.0387h 0.181345v 7.79963h 0.181345v -12.9371h 0.181345v -2.03885h 0.36269v 10.5834h 0.181345v -8.54459h 0.181345v -6.90121h 0.181345v 6.90121h
 0.181345v 2.35368h 0.181345v -4.39252h 0.181345v 4.39252h 0.181345v -10.5834h 0.181345v 8.22976h 0.181345v -6.90121h 0.181345v 6.90121h 0.181345v -6.90121h 0.181345v 15.4458h 0.181345v -3.4071h 0.181345v -14.5894h 0.181345v 9.4519h 0.181345v
 -5.44595h 0.181345v 1.60871h 0.181345v -7.79963h 0.181345v 4.73565h 0.181345v 9.25489h 0.181345v -10.5834h 0.36269v 6.19091h 0.36269v -4.86236h 0.181345v -2.55069h 0.181345v 1.22215h 0.181345v -2.35368h 0.181345v 3.68222h 0.181345v -4.73565h
 0.181345v 7.79963h 0.181345v 8.97472h 0.181345v -2.78381h 0.181345v -7.79963h 0.181345v 3.4071h 0.181345v -7.41306h 0.181345v 4.00595h 0.181345v -1.45526h 0.181345v 1.45526h 0.181345v -4.00595h 0.36269v -2.18496h 0.181345v 6.19091h 0.181345v
 5.44595h 0.181345v -16.0294h 0.181345v 1.60871h 0.181345v 4.96877h 0.181345v 1.22215h 0.181345v 1.32855h 0.181345v -3.68222h 0.181345v 10.5834h 0.181345v 2.35368h 0.181345v -2.35368h 0.181345v -9.4519h 0.181345v -2.18496h 0.181345v -0.985417h
 0.181345v 12.6223h 0.181345v 2.35368h 0.181345v -11.8056h 0.181345v -1.13153h 0.181345v 6.7462h 0.181345v -6.7462h 0.181345v 2.35368h 0.181345v -5.31818h 0.181345v -4.61543h 0.181345v 12.7174h 0.181345v -6.19091h 0.36269v 6.19091h 0.181345v 5.44595h
 0.181345v -5.44595h 0.181345v -6.19091h 0.181345v 3.4071h 0.181345v -6.19091h 0.181345v 0.872733h 0.181345v 1.91107h 0.181345v 4.73565h 0.181345v -2.55069h 0.181345v -1.13153h 0.181345v -1.05343h 0.181345v -7.79963h 0.181345v 7.79963h 0.181345v
 -1.91107h 0.181345v 1.91107h 0.181345v -6.5265h 0.181345v 8.71146h 0.181345v -4.09603h 0.181345v 2.9645h 0.181345v -1.05343h 0.36269v 4.73565h 0.181345v -2.55069h 0.181345v 1.22215h 0.181345v -7.01645h 0.181345v -4.19028h 0.181345v -0.598848h
 0.181345v 4.00595h 0.181345v -0.744961h 0.181345v 7.32244h 0.181345v -1.13153h 0.181345v -4.66277h 0.181345v 2.62392h 0.181345v -1.79839h 0.181345v 0.872733h 0.181345v -3.93671h 0.181345v 5.84778h 0.181345v -4.39252h 0.181345v 0.78318h 0.181345v
 4.66277h 0.181345v -2.9645h 0.181345v -5.26525h 0.181345v 2.78381h 0.36269v 1.60871h 0.181345v -4.39252h 0.181345v 0.649829h 0.181345v -1.27313h 0.181345v 4.19028h 0.181345v -2.23844h 0.36269v 3.06397h 0.181345v 0.872733h 0.181345v -3.22641h
 0.181345v -0.710299h 0.181345v 6.90121h 0.181345v -6.90121h 0.181345v 4.86236h 0.181345v -9.59802h 0.181345v 0.517631h 0.181345v 10.0658h 0.181345v -8.97472h 0.181345v 3.12694h 0.181345v -1.32855h 0.181345v 2.78381h 0.181345v 1.60871h 0.181345v
 -0.825534h 0.36269v 2.62392h 0.181345v -3.4071h 0.544034v 5.44595h 0.181345v -3.83724h 0.181345v -0.825534h 0.181345v -1.52814h 0.181345v 8.54459h 0.36269v -1.22215h 0.181345v 4.00595h 0.181345v -6.19091h 0.181345v 4.73565h 0.181345v 3.06397h
 0.181345v -6.7462h 0.181345v 5.13748h 0.181345v -8.97472h 0.181345v 2.78381h 0.36269v 11.6369h 0.181345v -6.90121h 0.181345v -2.55069h 0.181345v -1.13153h 0.181345v -3.83724h 0.181345v -3.06397h 0.181345v 6.90121h 0.181345v 1.13153h 0.181345v
 4.00595h 0.181345v -5.13748h 0.181345v 2.35368h 0.181345v -4.39252h 0.181345v 14.976h 0.181345v -6.19091h 0.181345v -9.7107h 0.181345v 2.9645h 0.181345v -1.05343h 0.181345v 6.19091h 0.181345v -4.00595h 0.36269v 2.55069h 0.181345v -1.32855h 0.181345v
 1.32855h 0.181345v -2.55069h 0.181345v 2.55069h 0.181345v 4.86236h 0.181345v -4.86236h 0.181345v 1.45526h 0.181345v 7.79963h 0.181345v -11.8056h 0.181345v 2.55069h 0.181345v 6.90121h 0.181345v -13.5479h 0.181345v 5.31818h 0.36269v -1.22215h
 0.181345v 4.00595h 0.181345v -4.00595h 0.181345v -4.09603h 0.181345v 9.7107h 0.36269v -4.39252h 0.181345v 1.32855h 0.181345v -2.55069h 0.36269v -4.09603h 0.36269v 5.31818h 0.181345v 6.19091h 0.181345v -10.5834h 0.181345v -0.925657h 0.181345v
 4.09603h 0.181345v 5.61467h 0.181345v -5.61467h 0.181345v -2.18496h 0.181345v 2.18496h 0.181345v 1.22215h 0.181345v -7.79963h 0.181345v 6.57748h 0.181345v 9.4519h 0.181345v -9.4519h 0.181345v 1.22215h 0.36269v 21.1669h 0.181345v -14.976h 0.181345v
 -11.5091h 0.36269v -3.93671h 0.181345v 4.86236h 0.181345v 12.6223h 0.181345v -6.90121h 0.181345v 6.90121h 0.181345v -9.4519h 0.181345v -1.13153h 0.181345v 10.5834h 0.181345v -17.4846h 0.181345v 5.84778h 0.181345v 2.18496h 0.181345v 4.00595h
 0.181345v -2.78381h 0.181345v -1.22215h 0.181345v 2.55069h 0.181345v -2.55069h 0.181345v -2.18496h 0.181345v 7.79963h 0.181345v -6.7462h 0.181345v -2.9645h 0.181345v -3.22641h 0.181345v 4.15207h 0.181345v 10.5834h 0.181345v -6.19091h 0.181345v
 2.78381h 0.181345v -7.17633h 0.181345v 8.78504h 0.181345v -5.61467h 0.181345v -1.13153h 0.181345v -1.05343h 0.181345v 3.4071h 0.181345v -2.35368h 0.36269v -4.66277h 0.181345v 7.01645h 0.181345v -1.22215h 0.181345v -1.13153h 0.181345v 5.13748h
 0.181345v -2.78381h 0.181345v -1.22215h 0.181345v -4.96877h 0.181345v 2.78381h 0.36269v 1.05343h 0.181345v 1.13153h 0.181345v -3.17038h 0.36269v -0.925657h 0.181345v -1.69827h 0.181345v 8.34499h 0.181345v -5.72107h 0.181345v 7.17633h 0.181345v
 1.60871h 0.181345v -4.39252h 0.181345v 4.39252h 0.181345v -9.7107h 0.181345v 0.925657h 0.181345v 3.17038h 0.181345v -3.17038h 0.725379v -0.925657h 0.181345v -0.872733h 0.181345v 6.19091h 0.36269v -7.79963h 0.181345v 0.78318h 0.181345v -2.91716h
 0.181345v 6.5265h 0.181345v -4.39252h 0.181345v 5.44595h 0.181345v 5.13748h 0.181345v -5.13748h 0.181345v 1.13153h 0.181345v 4.00595h 0.181345v -7.17633h 0.181345v 10.5834h 0.181345v -11.5091h 0.181345v -1.69827h 0.181345v 5.7943h 0.181345v 7.41306h
 0.181345v -13.2074h 0.181345v 4.66277h 0.181345v 2.35368h 0.181345v 2.78381h 0.181345v -8.97472h 0.181345v 0.872733h 0.181345v -5.26525h 0.181345v 3.56699h 0.181345v -4.78913h 0.181345v 6.4874h 0.181345v -2.48145h 0.181345v 4.39252h 0.181345v
 -7.17633h 0.181345v 6.19091h 0.181345v 3.17038h 0.36269v -9.98459h 0.181345v 4.19028h 0.181345v 0.825534h 0.181345v 4.96877h 0.181345v -4.09603h 0.181345v 2.9645h 0.181345v 1.13153h 0.181345v -10.5834h 0.181345v 5.61467h 0.181345v -6.19091h
 0.181345v 2.44822h 0.36269v 4.61543h 0.181345v 1.91107h 0.181345v 1.05343h 0.181345v -10.5834h 0.181345v 8.54459h 0.181345v -2.62392h 0.181345v 2.62392h 0.36269v -8.54459h 0.181345v 8.54459h 0.181345v 10.5834h 0.181345v -11.5091h 0.181345v 9.7107h
 0.181345v -10.5834h 0.181345v 7.51946h 0.181345v -2.55069h 0.181345v 4.00595h 0.181345v -4.00595h 0.181345v -4.96877h 0.181345v 10.5834h 0.181345v -8.78504h 0.181345v 0.985417h 0.181345v 11.6369h 0.181345v -14.4207h 0.181345v 10.5834h 0.181345v
 -7.79963h 0.181345v -0.985417h 0.181345v 5.72107h 0.36269v -2.55069h 0.181345v -1.13153h 0.181345v 8.54459h 0.181345v -6.19091h 0.181345v -5.31818h 0.181345v 2.9645h 0.181345v 6.7462h 0.181345v -9.7107h 0.181345v 5.31818h 0.181345v -2.35368h
 0.181345v 8.54459h 0.181345v 4.39252h 0.181345v -13.9905h 0.181345v 16.7743h 0.181345v -2.78381h 0.181345v -12.9371h 0.181345v 1.13153h 0.36269v -2.18496h 0.181345v -1.91107h 0.181345v 6.64673h 0.181345v 1.45526h 0.181345v -1.45526h 0.181345v
 1.45526h 0.36269v -6.19091h 0.181345v -3.60934h 0.181345v 9.80025h 0.181345v -2.78381h 0.36269v -4.39252h 0.181345v 4.39252h 0.181345v -5.31818h 0.181345v -3.22641h 0.181345v 2.35368h 0.181345v 3.83724h 0.181345v 1.13153h 0.181345v -1.13153h
 0.181345v 12.9371h 0.181345v -9.25489h 0.181345v 4.86236h 0.181345v -4.86236h 0.181345v -2.55069h 0.36269v 5.61467h 0.181345v -4.39252h 0.181345v 10.5834h 0.181345v -7.79963h 0.181345v -1.45526h 0.181345v -1.32855h 0.181345v 6.19091h 0.181345v
 -3.4071h 0.36269v -7.17633h 0.181345v 0.985417h 0.181345v 7.79963h 0.181345v -3.06397h 0.181345v 1.45526h 0.181345v 10.5834h 0.181345v -14.5894h 0.181345v 2.55069h 0.181345v -1.32855h 0.181345v 8.22976h 0.181345v -10.5834h 0.181345v 3.68222h
 0.181345v 4.86236h 0.181345v -4.86236h 0.181345v 4.86236h 0.181345v -3.4071h 0.181345v 1.60871h 0.181345v 12.3818h 0.36269v -10.5834h 0.181345v 2.03885h 0.181345v -6.90121h 0.181345v 9.25489h 0.181345v 6.19091h 0.36269v -6.19091h 0.181345v -6.19091h
 0.181345v 12.3818h 0.181345v 4.39252h 0.181345v -12.9371h 0.181345v 2.35368h 0.181345v -4.39252h 0.181345v 7.17633h 0.181345v -5.13748h 0.181345v -3.83724h 0.36269v 1.79839h 0.181345v 10.5834h 0.181345v 10.5834h 0.181345v -13.9905h 0.181345v
 -2.78381h 0.36269v 16.7743h 0.181345v -10.5834h 0.181345v -6.19091h 0.36269v 6.19091h 0.181345v -15.4458h 0.181345v -4.73565h 0.181345v 20.1814h 0.181345v -13.9905h 0.181345v 3.4071h 0.181345v -8.54459h 0.181345v 8.54459h 0.181345v 14.976h 0.181345v
 -7.79963h 0.181345v -8.97472h 0.181345v 3.83724h 0.181345v -10.5834h 0.181345v 12.9371h 0.181345v 6.19091h 0.181345v -8.54459h 0.181345v 5.13748h 0.181345v -8.97472h 0.181345v 8.97472h 0.36269v -8.97472h 0.181345v 22.9653h 0.181345v -26.0292h
 0.181345v 3.06397h 0.181345v 8.97472h 0.181345v 7.79963h 0.181345v -10.5834h 0.181345v 6.19091h 0.36269v -10.5834h 0.181345v 7.17633h 0.181345v 13.9905h 0.181345v -13.9905h 0.181345v -12.0387h 0.181345v 1.45526h 0.181345v 3.4071h 0.181345v 21.1669h
 0.181345v -24.574h 0.181345v 7.79963h 0.181345v -7.79963h 0.181345v -1.45526h 0.181345v 19.8383h 0.181345v -14.976h 0.181345v 2.03885h 0.181345v 2.35368h 0.181345v -9.25489h 0.181345v 3.06397h 0.36269v 16.7743h 0.181345v -7.79963h 0.181345v
 -2.78381h 0.181345v -4.39252h 0.181345v 10.5834h 0.181345v -3.4071h 0.181345v -5.13748h 0.181345v -6.90121h 0.181345v -1.32855h 0.181345v 13.3672h 0.181345v -8.97472h 0.181345v 12.3818h 0.181345v -8.54459h 0.36269v -2.03885h 0.181345v -4.86236h
 0.36269v 6.90121h 0.181345v -2.03885h 0.181345v 2.03885h 0.181345v 5.13748h 0.181345v -5.13748h 0.181345v -3.83724h 0.181345v 8.97472h 0.181345v -2.78381h 0.181345v -4.39252h 0.181345v 10.5834h 0.181345v -6.19091h 0.181345v -4.39252h 0.181345v
 4.39252h 0.181345v -4.39252h 0.181345v 14.976h 0.181345v -4.39252h 0.181345v -6.19091h 0.181345v -4.39252h 0.36269v -3.4071h 0.181345v 3.4071h 0.181345v -6.19091h 0.181345v 8.22976h 0.36269v -5.44595h 0.181345v 3.4071h 0.181345v 2.03885h 0.181345v
 2.35368h 0.181345v 6.19091h 0.181345v -13.9905h 0.181345v -2.78381h 0.181345v -1.22215h 0.181345v 14.5894h 0.181345v -13.3672h 0.181345v 6.19091h 0.36269v -4.86236h 0.181345v 4.86236h 0.181345v -3.4071h 0.181345v 3.4071h 0.181345v -4.86236h
 0.725379v 9.25489h 0.181345v -7.79963h 0.181345v 3.4071h 0.181345v -10.5834h 0.181345v 8.78504h 0.181345v 8.97472h 0.181345v -2.78381h 0.181345v -2.35368h 0.181345v 2.35368h 0.181345v -4.39252h 0.181345v -13.2074h 0.181345v 8.34499h 0.181345v
 6.90121h 0.181345v -11.6369h 0.181345v 7.79963h 0.181345v 8.97472h 0.181345v -2.78381h 0.181345v -10.5834h 0.181345v 1.32855h 0.181345v -2.55069h 0.181345v -5.7943h 0.181345v 9.80025h 0.181345v -5.13748h 0.181345v 5.13748h 0.36269v 1.60871h 0.36269v
 -1.60871h 0.181345v -1.45526h 0.181345v -11.2622h 0.181345v 8.71146h 0.181345v 14.5894h 0.181345v -2.78381h 0.181345v -11.8056h 0.181345v -4.96877h 0.181345v 2.78381h 0.181345v 4.73565h 0.36269v -2.55069h 0.181345v 1.22215h 0.181345v 1.32855h
 0.181345v -1.32855h 0.181345v -2.35368h 0.181345v 3.68222h 0.181345v -2.55069h 0.181345v 11.8056h 0.181345v -2.35368h 0.181345v -5.44595h 0.181345v 3.4071h 0.181345v -13.9905h 0.181345v 10.5834h 0.181345v -6.19091h 0.181345v 2.18496h 0.181345v
 2.55069h 0.181345v 3.06397h 0.181345v -4.39252h 0.181345v -6.19091h 0.181345v 3.83724h 0.181345v -2.03885h 0.181345v 2.03885h 0.181345v 5.13748h 0.181345v -1.45526h 0.181345v -1.32855h 0.181345v 6.19091h 0.181345v -4.86236h 0.181345v 1.45526h
 0.181345v 1.60871h 0.181345v -6.7462h 0.181345v 5.13748h 0.181345v 1.60871h 0.181345v 6.19091h 0.181345v -12.9371h 0.181345v 12.9371h 0.181345v -6.19091h 0.181345v -3.06397h 0.181345v 9.25489h 0.181345v 6.19091h 0.181345v -13.9905h 0.181345v 3.4071h
 0.181345v 7.17633h 0.181345v -8.97472h 0.181345v -7.79963h 0.181345v 6.19091h 0.181345v 5.44595h 0.181345v 12.9371h 0.181345v -7.79963h 0.36269v 3.4071h 0.181345v -6.19091h 0.181345v 10.5834h 0.181345v -4.39252h 0.181345v -8.54459h 0.181345v 19.128h
 0.181345v -10.5834h 0.181345v -6.19091h 0.181345v 16.7743h 0.181345v 10.5834h 0.181345v -29.7115h 0.181345v 29.7115h 0.181345v -21.1669h 0.181345v 10.5834h 0.181345v -10.5834h 0.36269v 31.7503h 0.181345v -27.3578h 0.181345v 27.3578h 0.181345v
 -10.5834h 0.181345v -21.1669h 0.36269v 31.7503h 0.181345v -27.3578h 0.181345v 16.7743h 0.181345v -16.7743h 0.181345v 6.19091h 0.36269v -6.19091h 0.181345v 6.19091h 0.181345v 10.5834h 0.181345v -10.5834h 0.181345v -10.5834h 0.181345v 21.1669h
 0.181345v -21.1669h 0.181345v 21.1669h 0.181345v 10.5834h 0.36269v -21.1669h 0.181345v 10.5834h 0.36269v -10.5834h 0.181345v -13.9905h 0.181345v 35.1574h 0.181345v -10.5834h 0.36269v 10.5834h 0.181345v -10.5834h 0.181345v 10.5834h 0.36269v -21.1669h
 0.181345v 21.1669h 0.725379v -10.5834h 0.36269v -16.7743h 0.181345v 27.3578h 0.181345v -10.5834h 0.544034v 10.5834h 0.36269v -10.5834h 0.181345v -16.7743h 0.36269v 27.3578h 0.544034v -21.1669h 0.181345v 21.1669h 0.181345v -10.5834h 0.906724v
 -16.7743h 0.181345v 16.7743h 0.181345v 10.5834h 0.906724v -10.5834h 0.544034v 10.5834h 0.181345v -10.5834h 0.36269v -10.5834h 0.36269v 21.1669h 0.181345v -27.3578h 0.181345v 16.7743h 0.181345v -16.7743h 0.181345v 27.3578h 0.181345v -10.5834h
 0.181345v 10.5834h 0.181345v -10.5834h 0.181345v -10.5834h 0.181345v 10.5834h 0.36269v 10.5834h 0.181345v -21.1669h 0.181345v 10.5834h 0.181345v 10.5834h 0.181345v -10.5834h 0.181345v 10.5834h 0.181345v -10.5834h 0.36269v -16.7743h 0.181345v
 -4.39252h 0.181345v 10.5834h 0.181345v -6.19091h 0.181345v 27.3578h 1.81345v -27.3578h 0.181345v 27.3578h 0.544034v -10.5834h 0.181345v 10.5834h 0.906724v -10.5834h 0.181345v 10.5834h 0.36269v -21.1669h 0.181345v 21.1669h 0.181345v -21.1669h
 0.181345v 21.1669h 0.181345v -21.1669h 0.181345v 21.1669h 0.725379v -21.1669h 0.181345v 21.1669h 0.181345v -10.5834h 0.181345v 10.5834h 0.36269v -10.5834h 0.36269v -10.5834h 0.181345v 21.1669h 0.181345v -21.1669h 0.181345v 10.5834h 0.181345v
 10.5834h 0.181345v -10.5834h 0.181345v -10.5834h 0.181345v 10.5834h 0.36269v 10.5834h 0.181345v -27.3578h 0.181345v 16.7743h 0.181345v 10.5834h 0.36269v -10.5834h 0.36269v 10.5834h 0.181345v -10.5834h 0.544034v 10.5834h 0.181345v -10.5834h 0.36269v
 10.5834h 0.181345v -10.5834h 0.181345v 10.5834h 0.181345v -21.1669h 0.181345v 21.1669h 1.08807v -27.3578h 0.181345v 16.7743h 0.544034v -10.5834h 0.181345v 10.5834h 0.544034v 10.5834h 0.544034v -10.5834h 0.36269v -10.5834h 0.181345v 10.5834h
 0.181345v 10.5834h 0.544034v -10.5834h 0.181345v 10.5834h 0.181345v -21.1669h 0.181345v 10.5834h 0.725379v -10.5834h 0.181345v 21.1669h 0.181345v -10.5834h 0.181345v 10.5834h 0.181345v -10.5834h 0.181345v -10.5834h 0.181345v 21.1669h 0.36269v
 -10.5834h 0.181345v -10.5834h 0.181345v 21.1669h 0.181345v -10.5834h 0.181345v 10.5834h 0.181345v -10.5834h 0.36269v 10.5834h 0.181345v -10.5834h 0.36269v -10.5834h 0.181345v 21.1669h 0.181345v -10.5834h 0.181345v 10.5834h 0.181345v -21.1669h
 0.181345v 21.1669h 0.181345v -10.5834h 0.544034v 10.5834h 0.181345v -10.5834h 0.36269v 10.5834h 0.181345v -27.3578h 0.181345v 16.7743h 0.181345v -10.5834h 0.181345v 10.5834h 0.181345v 10.5834h 0.544034v -10.5834h 0.181345v 10.5834h 0.181345v
 -21.1669h 0.181345v 21.1669h 0.181345v -21.1669h 0.181345" fill="none" stroke="black"/>
<path d="M57.1929,280.151h 453.543" fill="none" stroke="black"/>
<path d="M57.1929,272.68v 7.47068" fill="none" stroke="black"/>
<path d="M75.3318,276.415v 3.73534" fill="none" stroke="black"/>
<path d="M93.4707,276.415v 3.73534" fill="none" stroke="black"/>
<path d="M111.61,276.415v 3.73534" fill="none" stroke="black"/>
<path d="M129.749,276.415v 3.73534" fill="none" stroke="black"/>
<path d="M147.887,272.68v 7.47068" fill="none" stroke="black"/>
<path d="M166.026,276.415v 3.73534" fill="none" stroke="black"/>
<path d="M184.165,276.415v 3.73534" fill="none" stroke="black"/>
<path d="M202.304,276.415v 3.73534" fill="none" stroke="black"/>
<path d="M220.443,276.415v 3.73534" fill="none" stroke="black"/>
<path d="M238.582,272.68v 7.47068" fill="none" stroke="black"/>
<path d="M256.721,276.415v 3.73534" fill="none" stroke="black"/>
<path d="M274.86,276.415v 3.73534" fill="none" stroke="black"/>
<path d="M292.999,276.415v 3.73534" fill="none" stroke="black"/>
<path d="M311.138,276.415v 3.73534" fill="none" stroke="black"/>
<path d="M329.277,272.68v 7.47068" fill="none" stroke="black"/>
<path d="M347.415,276.415v 3.73534" fill="none" stroke="black"/>
<path d="M365.554,276.415v 3.73534" fill="none" stroke="black"/>
<path d="M383.693,276.415v 3.73534" fill="none" stroke="black"/>
<path d="M401.832,276.415v 3.73534" fill="none" stroke="black"/>
<path d="M419.971,272.68v 7.47068" fill="none" stroke="black"/>
<path d="M438.11,276.415v 3.73534" fill="none" stroke="black"/>
<path d="M456.249,276.415v 3.73534" fill="none" stroke="black"/>
<path d="M474.388,276.415v 3.73534" fill="none" stroke="black"/>
<path d="M492.527,276.415v 3.73534" fill="none" stroke="black"/>
<path d="M510.666,272.68v 7.47068" fill="none" stroke="black"/>
<path d="M510.666,272.68v 7.47068" fill="none" stroke="black"/>
<text xml:space="preserve" x="54.3523" y="290.27" fill="black" font-size="10.4952" font-family="Helvetica">0</text>
<text xml:space="preserve" x="139.569" y="290.27" fill="black" font-size="10.4952" font-family="Helvetica">500</text>
<text xml:space="preserve" x="227.449" y="290.27" fill="black" font-size="10.4952" font-family="Helvetica">1000</text>
<text xml:space="preserve" x="318.288" y="290.27" fill="black" font-size="10.4952" font-family="Helvetica">1500</text>
<text xml:space="preserve" x="408.831" y="290.27" fill="black" font-size="10.4952" font-family="Helvetica">2000</text>
<text xml:space="preserve" x="499.67" y="290.27" fill="black" font-size="10.4952" font-family="Helvetica">2500</text>
<text xml:space="preserve" x="265.323" y="301.218" fill="black" font-size="10.4952" font-family="Helvetica">Channel</text>
<path d="M57.1929,280.151v -249.023" fill="none" stroke="black"/>
<path d="M63.9961,280.151h -6.80315" fill="none" stroke="black"/>
<path d="M63.9961,277.367h -6.80315" fill="none" stroke="black"/>
<path d="M63.9961,275.013h -6.80315" fill="none" stroke="black"/>
<path d="M63.9961,272.974h -6.80315" fill="none" stroke="black"/>
<path d="M63.9961,271.176h -6.80315" fill="none" stroke="black"/>
<path d="M70.7992,269.567h -13.6063" fill="none" stroke="black"/>
<text xml:space="preserve" x="49.0263" y="273.404" fill="black" font-size="10.4952" font-family="Helvetica">1</text>
<path d="M63.9961,258.984h -6.80315" fill="none" stroke="black"/>
<path d="M63.9961,252.793h -6.80315" fill="none" stroke="black"/>
<path d="M63.9961,248.4h -6.80315" fill="none" stroke="black"/>
<path d="M63.9961,244.993h -6.80315" fill="none" stroke="black"/>
<path d="M63.9961,242.209h -6.80315" fill="none" stroke="black"/>
<path d="M63.9961,239.856h -6.80315" fill="none" stroke="black"/>
<path d="M63.9961,237.817h -6.80315" fill="none" stroke="black"/>
<path d="M63.9961,236.018h -6.80315" fill="none" stroke="black"/>
<path d="M70.7992,234.41h -13.6063" fill="none" stroke="black"/>
<text xml:space="preserve" x="41.629" y="238.193" fill="black" font-size="10.4952" font-family="Helvetica">10</text>
<path d="M63.9961,223.826h -6.80315" fill="none" stroke="black"/>
<path d="M63.9961,217.635h -6.80315" fill="none" stroke="black"/>
<path d="M63.9961,213.243h -6.80315" fill="none" stroke="black"/>
<path d="M63.9961,209.836h -6.80315" fill="none" stroke="black"/>
<path d="M63.9961,207.052h -6.80315" fill="none" stroke="black"/>
<path d="M63.9961,204.698h -6.80315" fill="none" stroke="black"/>
<path d="M63.9961,202.659h -6.80315" fill="none" stroke="black"/>
<path d="M63.9961,200.861h -6.80315" fill="none" stroke="black"/>
<path d="M70.7992,199.252h -13.6063" fill="none" stroke="black"/>
<text xml:space="preserve" x="49.0263" y="199.431" fill="black" font-size="7.16345" font-family="Helvetica">2</text>
<text xml:space="preserve" x="38.0783" y="203.87" fill="black" font-size="10.4952" font-family="Helvetica">10</text>
<path d="M63.9961,188.669h -6.80315" fill="none" stroke="black"/>
<path d="M63.9961,182.478h -6.80315" fill="none" stroke="black"/>
<path d="M63.9961,178.085h -6.80315" fill="none" stroke="black"/>
<path d="M63.9961,174.678h -6.80315" fill="none" stroke="black"/>
<path d="M63.9961,171.895h -6.80315" fill="none" stroke="black"/>
<path d="M63.9961,169.541h -6.80315" fill="none" stroke="black"/>
<path d="M63.9961,167.502h -6.80315" fill="none" stroke="black"/>
<path d="M63.9961,165.704h -6.80315" fill="none" stroke="black"/>
<path d="M70.7992,164.095h -13.6063" fill="none" stroke="black"/>
<text xml:space="preserve" x="49.0263" y="163.924" fill="black" font-size="7.16345" font-family="Helvetica">3</text>
<text xml:space="preserve" x="38.0783" y="168.658" fill="black" font-size="10.4952" font-family="Helvetica">10</text>
<path d="M63.9961,153.511h -6.80315" fill="none" stroke="black"/>
<path d="M63.9961,147.321h -6.80315" fill="none" stroke="black"/>
<path d="M63.9961,142.928h -6.80315" fill="none" stroke="black"/>
<path d="M63.9961,139.521h -6.80315" fill="none" stroke="black"/>
<path d="M63.9961,136.737h -6.80315" fill="none" stroke="black"/>
<path d="M63.9961,134.383h -6.80315" fill="none" stroke="black"/>
<path d="M63.9961,132.345h -6.80315" fill="none" stroke="black"/>
<path d="M63.9961,130.546h -6.80315" fill="none" stroke="black"/>
<path d="M70.7992,128.938h -13.6063" fill="none" stroke="black"/>
<text xml:space="preserve" x="49.0263" y="129.009" fill="black" font-size="7.16345" font-family="Helvetica">4</text>
<text xml:space="preserve" x="38.0783" y="133.447" fill="black" font-size="10.4952" font-family="Helvetica">10</text>
<path d="M63.9961,118.354h -6.80315" fill="none" stroke="black"/>
<path d="M63.9961,112.163h -6.80315" fill="none" stroke="black"/>
<path d="M63.9961,107.771h -6.80315" fill="none" stroke="black"/>
<path d="M63.9961,104.364h -6.80315" fill="none" stroke="black"/>
<path d="M63.9961,101.58h -6.80315" fill="none" stroke="black"/>
<path d="M63.9961,99.2261h -6.80315" fill="none" stroke="black"/>
<path d="M63.9961,97.1872h -6.80315" fill="none" stroke="black"/>
<path d="M63.9961,95.3888h -6.80315" fill="none" stroke="black"/>
<path d="M70.7992,93.7801h -13.6063" fill="none" stroke="black"/>
<text xml:space="preserve" x="49.0263" y="93.5019" fill="black" font-size="7.16345" font-family="Helvetica">5</text>
<text xml:space="preserve" x="38.0783" y="98.2362" fill="black" font-size="10.4952" font-family="Helvetica">10</text>
<path d="M63.9961,83.1967h -6.80315" fill="none" stroke="black"/>
<path d="M63.9961,77.0058h -6.80315" fill="none" stroke="black"/>
<path d="M63.9961,72.6132h -6.80315" fill="none" stroke="black"/>
<path d="M63.9961,69.2061h -6.80315" fill="none" stroke="black"/>
<path d="M63.9961,66.4223h -6.80315" fill="none" stroke="black"/>
<path d="M63.9961,64.0687h -6.80315" fill="none" stroke="black"/>
<path d="M63.9961,62.0298h -6.80315" fill="none" stroke="black"/>
<path d="M63.9961,60.2314h -6.80315" fill="none" stroke="black"/>
<path d="M70.7992,58.6227h -13.6063" fill="none" stroke="black"/>
<text xml:space="preserve" x="49.0263" y="58.5866" fill="black" font-size="7.16345" font-family="Helvetica">6</text>
<text xml:space="preserve" x="38.0783" y="63.3209" fill="black" font-size="10.4952" font-family="Helvetica">10</text>
<path d="M63.9961,48.0393h -6.80315" fill="none" stroke="black"/>
<path d="M63.9961,41.8484h -6.80315" fill="none" stroke="black"/>
<path d="M63.9961,37.4558h -6.80315" fill="none" stroke="black"/>
<path d="M63.9961,34.0487h -6.80315" fill="none" stroke="black"/>
<path d="M63.9961,31.2649h -6.80315" fill="none" stroke="black"/>
<g transform="rotate(-90,26.5385,191.442)">
<text xml:space="preserve" x="26.5385" y="191.442" fill="black" font-size="10.4952" font-family="Helvetica">Counts/Channel</text>
</g>
<text xml:space="preserve" x="404.097" y="58.5866" fill="black" font-size="14.7788" font-family="Helvetica" font-weight="bold"> = 2.4879 MeV</text>
<text xml:space="preserve" x="398.179" y="61.8414" fill="black" font-size="10.0192" font-family="Helvetica" font-weight="bold">p</text>
<text xml:space="preserve" x="389.006" y="58.5866" fill="black" font-size="14.7788" font-family="Helvetica" font-weight="bold">E</text>
<path d="M262.163,162.64v 26.4532" fill="none" stroke="black"/>
<path d="M264.454,189.093l -2.29122, 3.9685l -2.29122, -3.9685z" fill="black"/>
<path d="M264.454,189.093l -2.29122, 3.9685l -2.29122, -3.9685h 4.58243z" fill="none" stroke="black"/>
<text xml:space="preserve" x="266.803" y="160.669" fill="black" font-size="10.4952" font-family="Helvetica" font-weight="bold">_1 	1.369 MeV</text>
<text xml:space="preserve" x="260.293" y="160.669" fill="black" font-size="10.4952" font-family="Times">&#0945;</text>
<path d="M184.528,128.938v 31.1889" fill="none" stroke="black"/>
<path d="M186.819,160.126l -2.29122, 3.9685l -2.29122, -3.9685z" fill="black"/>
<path d="M186.819,160.126l -2.29122, 3.9685l -2.29122, -3.9685h 4.58243z" fill="none" stroke="black"/>
<text xml:space="preserve" x="172.117" y="126.05" fill="black" font-size="10.4952" font-family="Helvetica" font-weight="bold"># p_1 	0.844 MeV</text>
<path d="M210.104,147.321v 12.8058" fill="none" stroke="black"/>
<path d="M212.395,160.126l -2.29122, 3.9685l -2.29122, -3.9685z" fill="black"/>
<path d="M212.395,160.126l -2.29122, 3.9685l -2.29122, -3.9685h 4.58243z" fill="none" stroke="black"/>
<text xml:space="preserve" x="197.564" y="142.916" fill="black" font-size="10.4952" font-family="Helvetica" font-weight="bold"># p_2 	1.015 MeV</text>
<path d="M497.481,269.567h 13.1842" fill="none" stroke="black"/>
<path d="M504.074,258.984h 6.59208" fill="none" stroke="black"/>
<path d="M504.074,252.793h 6.59208" fill="none" stroke="black"/>
<path d="M504.074,248.4h 6.59208" fill="none" stroke="black"/>
<path d="M504.074,244.993h 6.59208" fill="none" stroke="black"/>
<path d="M504.074,242.209h 6.59208" fill="none" stroke="black"/>
<path d="M504.074,239.856h 6.59208" fill="none" stroke="black"/>
<path d="M504.074,237.817h 6.59208" fill="none" stroke="black"/>
<path d="M504.074,236.018h 6.59208" fill="none" stroke="black"/>
<path d="M497.481,234.41h 13.1842" fill="none" stroke="black"/>
<path d="M504.074,223.826h 6.59208" fill="none" stroke="black"/>
<path d="M504.074,217.635h 6.59208" fill="none" stroke="black"/>
<path d="M504.074,213.243h 6.59208" fill="none" stroke="black"/>
<path d="M504.074,209.836h 6.59208" fill="none" stroke="black"/>
<path d="M504.074,207.052h 6.59208" fill="none" stroke="black"/>
<path d="M504.074,204.698h 6.59208" fill="none" stroke="black"/>
<path d="M504.074,202.659h 6.59208" fill="none" stroke="black"/>
<path d="M504.074,200.861h 6.59208" fill="none" stroke="black"/>
<path d="M497.481,199.252h 13.1842" fill="none" stroke="black"/>
<path d="M504.074,188.669h 6.59208" fill="none" stroke="black"/>
<path d="M504.074,182.478h 6.59208" fill="none" stroke="black"/>
<path d="M504.074,178.085h 6.59208" fill="none" stroke="black"/>
<path d="M504.074,174.678h 6.59208" fill="none" stroke="black"/>
<path d="M504.074,171.895h 6.59208" fill="none" stroke="black"/>
<path d="M504.074,169.541h 6.59208" fill="none" stroke="black"/>
<path d="M504.074,167.502h 6.59208" fill="none" stroke="black"/>
<path d="M504.074,165.704h 6.59208" fill="none" stroke="black"/>
<path d="M497.481,164.095h 13.1842" fill="none" stroke="black"/>
<path d="M504.074,153.511h 6.59208" fill="none" stroke="black"/>
<path d="M504.074,147.321h 6.59208" fill="none" stroke="black"/>
<path d="M504.074,142.928h 6.59208" fill="none" stroke="black"/>
<path d="M504.074,139.521h 6.59208" fill="none" stroke="black"/>
<path d="M504.074,136.737h 6.59208" fill="none" stroke="black"/>
<path d="M504.074,134.383h 6.59208" fill="none" stroke="black"/>
<path d="M504.074,132.345h 6.59208" fill="none" stroke="black"/>
<path d="M504.074,130.546h 6.59208" fill="none" stroke="black"/>
<path d="M497.481,128.938h 13.1842" fill="none" stroke="black"/>
<path d="M504.074,118.354h 6.59208" fill="none" stroke="black"/>
<path d="M504.074,112.163h 6.59208" fill="none" stroke="black"/>
<path d="M504.074,107.771h 6.59208" fill="none" stroke="black"/>
<path d="M504.074,104.364h 6.59208" fill="none" stroke="black"/>
<path d="M504.074,101.58h 6.59208" fill="none" stroke="black"/>
<path d="M504.074,99.2261h 6.59208" fill="none" stroke="black"/>
<path d="M504.074,97.1872h 6.59208" fill="none" stroke="black"/>
<path d="M504.074,95.3888h 6.59208" fill="none" stroke="black"/>
<path d="M497.481,93.7801h 13.1842" fill="none" stroke="black"/>
<path d="M504.074,83.1967h 6.59208" fill="none" stroke="black"/>
<path d="M504.074,77.0058h 6.59208" fill="none" stroke="black"/>
<path d="M504.074,72.6132h 6.59208" fill="none" stroke="black"/>
<path d="M504.074,69.2061h 6.59208" fill="none" stroke="black"/>
<path d="M504.074,66.4223h 6.59208" fill="none" stroke="black"/>
<path d="M504.074,64.0687h 6.59208" fill="none" stroke="black"/>
<path d="M504.074,62.0298h 6.59208" fill="none" stroke="black"/>
<path d="M504.074,60.2314h 6.59208" fill="none" stroke="black"/>
<path d="M497.481,58.6227h 13.1842" fill="none" stroke="black"/>
<path d="M504.074,48.0393h 6.59208" fill="none" stroke="black"/>
<path d="M504.074,41.8484h 6.59208" fill="none" stroke="black"/>
<path d="M504.074,37.4558h 6.59208" fill="none" stroke="black"/>
<path d="M504.074,34.0487h 6.59208" fill="none" stroke="black"/>
<path d="M504.074,31.2649h 6.59208" fill="none" stroke="black"/>
<path d="M504.074,28.9113h 6.59208" fill="none" stroke="black"/>
<path d="M57.1929,35.74v -7.46952" fill="none" stroke="black"/>
<path d="M75.3318,35.74v -7.46952" fill="none" stroke="black"/>
<path d="M93.4707,35.74v -7.46952" fill="none" stroke="black"/>
<path d="M111.61,35.74v -7.46952" fill="none" stroke="black"/>
<path d="M129.749,35.74v -7.46952" fill="none" stroke="black"/>
<path d="M147.887,35.74v -7.46952" fill="none" stroke="black"/>
<path d="M166.026,35.74v -7.46952" fill="none" stroke="black"/>
<path d="M184.165,35.74v -7.46952" fill="none" stroke="black"/>
<path d="M202.304,35.74v -7.46952" fill="none" stroke="black"/>
<path d="M220.443,35.74v -7.46952" fill="none" stroke="black"/>
<path d="M238.582,35.74v -7.46952" fill="none" stroke="black"/>
<path d="M256.721,35.74v -7.46952" fill="none" stroke="black"/>
<path d="M274.86,35.74v -7.46952" fill="none" stroke="black"/>
<path d="M292.999,35.74v -7.46952" fill="none" stroke="black"/>
<path d="M311.138,35.74v -7.46952" fill="none" stroke="black"/>
<path d="M329.277,35.74v -7.46952" fill="none" stroke="black"/>
<path d="M347.415,35.74v -7.46952" fill="none" stroke="black"/>
<path d="M365.554,35.74v -7.46952" fill="none" stroke="black"/>
<path d="M383.693,35.74v -7.46952" fill="none" stroke="black"/>
<path d="M401.832,35.74v -7.46952" fill="none" stroke="black"/>
<path d="M419.971,35.74v -7.46952" fill="none" stroke="black"/>
<path d="M438.11,35.74v -7.46952" fill="none" stroke="black"/>
<path d="M456.249,35.74v -7.46952" fill="none" stroke="black"/>
<path d="M474.388,35.74v -7.46952" fill="none" stroke="black"/>
<path d="M492.527,35.74v -7.46952" fill="none" stroke="black"/>
<path d="M510.666,35.74v -7.46952" fill="none" stroke="black"/></svg>
