<?xml version="1.0" standalone="no"?>
<svg width="567.429" height="311.778" viewBox="0 0 567.429 311.778" xmlns="http://www.w3.org/2000/svg" shape-rendering="crispEdges">
<title>
Yields/P1/run_0101/det5_Fit.svg
</title>
<desc>
Creator: ROOT Version 6.12/06
CreationDate: Mon Apr 15 10:29:02 2019</desc>
<defs>
</defs>
<rect x="0.5" y="0" width="566.929" height="311.278" fill="white"/>
<rect x="57.1929" y="31.1278" width="453.543" height="249.023" fill="white"/>
<rect x="57.1929" y="31.1278" width="453.543" height="249.023" fill="none" stroke="black"/>
<path d="M57.1929,40.8928h 0.181345v 239.258h 27.3831v -10.5911h 0.181345v 10.5911h 0.36269v -10.5911h 0.181345v 10.5911h 1.08807v -10.5911h 0.181345v 10.5911h 0.906724v -27.3776h 0.36269v 16.7865h 0.181345v -24.5918h 0.181345v -19.5723h 0.181345v
 -17.0669h 0.181345v -11.7928h 0.181345v -9.17966h 0.181345v -4.69207h 0.181345v -3.41993h 0.181345v -3.59888h 0.181345v -0.982041h 0.181345v -1.26546h 0.181345v -1.8091h 0.181345v -0.972012h 0.181345v -0.0470146h 0.181345v -1.06514h 0.181345v
 -0.684921h 0.181345v -0.615374h 0.181345v -0.259154h 0.181345v -0.448004h 0.181345v 0.0962809h 0.181345v -0.56879h 0.181345v -0.0185998h 0.181345v -0.619287h 0.181345v -0.7489h 0.181345v 0.170916h 0.181345v 0.975822h 0.181345v -1.01016h 0.181345v
 0.189813h 0.181345v 0.404668h 0.181345v -1.23263h 0.181345v 0.232018h 0.181345v 0.665554h 0.181345v -0.682244h 0.181345v -0.508551h 0.181345v 0.760837h 0.181345v 0.552548h 0.181345v -1.75861h 0.181345v 0.493708h 0.181345v 0.376892h 0.181345v
 -0.279465h 0.181345v -0.274445h 0.181345v 0.50422h 0.181345v -0.311007h 0.181345v -0.16118h 0.181345v -0.551106h 0.181345v -0.0617364h 0.181345v 0.790235h 0.181345v -0.129216h 0.181345v 0.177955h 0.181345v 1.70237h 0.181345v -1.42321h 0.181345v
 0.50544h 0.181345v -0.817114h 0.181345v 0.71468h 0.181345v -0.118645h 0.181345v 0.13567h 0.181345v 0.327128h 0.181345v 0.914368h 0.181345v -0.756934h 0.181345v 0.738469h 0.181345v -0.436594h 0.181345v -0.142802h 0.181345v 0.0533946h 0.181345v
 -0.45667h 0.181345v -0.37603h 0.181345v -1.15404h 0.181345v -1.99329h 0.181345v -2.30426h 0.181345v -2.38068h 0.181345v -2.76727h 0.181345v -3.36395h 0.181345v -3.7298h 0.181345v -2.6473h 0.181345v -3.23554h 0.181345v -2.254h 0.181345v -1.72652h
 0.181345v -1.14883h 0.181345v -1.20019h 0.181345v 0.18716h 0.181345v 0.344257h 0.181345v 1.18029h 0.181345v 1.58382h 0.181345v 2.56142h 0.181345v 2.22589h 0.181345v 3.27859h 0.181345v 3.97028h 0.181345v 3.63235h 0.181345v 4.52829h 0.181345v 4.23016h
 0.181345v 4.10576h 0.181345v 2.58042h 0.181345v 1.44951h 0.181345v 3.7371h 0.181345v 0.518007h 0.181345v 1.19835h 0.181345v 1.26167h 0.181345v 0.194649h 0.181345v -1.66854h 0.181345v 1.35828h 0.181345v -0.114742h 0.181345v -0.487493h 0.181345v
 -0.0368631h 0.181345v 0.600755h 0.181345v 0.907192h 0.181345v -0.0810598h 0.181345v 0.660848h 0.181345v 1.27588h 0.181345v -0.891199h 0.181345v -2.13741h 0.181345v 0.575215h 0.181345v -0.194154h 0.181345v 0.549973h 0.181345v 0.201317h 0.181345v
 1.75922h 0.181345v -0.840487h 0.181345v -1.27921h 0.181345v 2.1197h 0.181345v -0.883468h 0.181345v 0.0860832h 0.181345v 0.305169h 0.181345v -1.42827h 0.181345v 0.994154h 0.181345v 1.62415h 0.181345v 0.0476747h 0.181345v -0.0476747h 0.181345v
 1.03381h 0.181345v -0.202384h 0.181345v -0.783748h 0.181345v 0.0478239h 0.181345v 1.45631h 0.181345v 0.700781h 0.181345v -2.44182h 0.181345v 1.22303h 0.181345v 0.783748h 0.181345v -0.52694h 0.181345v 1.63868h 0.181345v -0.342098h 0.181345v
 -0.279345h 0.181345v -0.6503h 0.181345v 2.16208h 0.181345v -1.67696h 0.36269v 1.19567h 0.181345v -2.65696h 0.181345v 0.923218h 0.181345v 0.592939h 0.181345v 0.847522h 0.181345v 0.0582086h 0.181345v -1.55145h 0.181345v 2.14607h 0.36269v -0.826133h
 0.181345v 0.231516h 0.181345v -1.76076h 0.181345v 0.855033h 0.181345v 1.68334h 0.181345v 0.819316h 0.181345v -0.757828h 0.181345v 0.953307h 0.181345v -1.49799h 0.181345v 1.17357h 0.181345v -2.31865h 0.181345v 2.57764h 0.181345v -1.95848h 0.181345v
 1.6995h 0.181345v -0.254668h 0.181345v -1.72938h 0.181345v 1.60362h 0.181345v -0.124733h 0.181345v -1.81349h 0.181345v 2.51248h 0.181345v 1.5738h 0.181345v -0.356187h 0.181345v -0.416746h 0.181345v -0.994694h 0.181345v 0.655883h 0.36269v -0.655883h
 0.181345v -1.98405h 0.181345v 2.30847h 0.181345v 1.01677h 0.181345v -1.65887h 0.181345v 0.0630093h 0.181345v 0.910551h 0.181345v -2.46984h 0.181345v 0.463058h 0.181345v -1.07768h 0.181345v 1.13656h 0.181345v -0.804382h 0.181345v -0.386849h 0.181345v
 0.386849h 0.181345v -3.3535h 0.181345v 0.502518h 0.36269v -1.67014h 0.181345v 1.48549h 0.181345v -0.629254h 0.181345v 0.86042h 0.181345v 0.473095h 0.181345v 0.63777h 0.181345v 0.0501798h 0.181345v 0.986131h 0.181345v 0.107604h 0.181345v -0.214456h
 0.181345v 3.85524h 0.181345v -2.80865h 0.181345v 3.43811h 0.181345v -0.765887h 0.181345v 0.553173h 0.181345v -0.688393h 0.181345v -0.0671638h 0.181345v 1.92587h 0.181345v -0.226371h 0.181345v -0.659659h 0.181345v 0.962238h 0.181345v -0.152038h
 0.181345v 2.27993h 0.181345v -2.57954h 0.181345v 0.760343h 0.181345v 0.475056h 0.181345v 0.573569h 0.181345v -1.04863h 0.181345v 0.394847h 0.181345v -0.0797899h 0.181345v 0.159999h 0.181345v -2.58344h 0.181345v 1.12713h 0.181345v 0.672566h 0.181345v
 0.783748h 0.181345v 0.161692h 0.181345v 0.749565h 0.181345v -0.830625h 0.181345v -2.1109h 0.181345v 1.40009h 0.181345v 1.37166h 0.181345v -1.90252h 0.181345v 1.65135h 0.181345v 0.59264h 0.181345v -0.425647h 0.181345v 0.339564h 0.181345v -0.996858h
 0.181345v -0.0802088h 0.181345v 1.60099h 0.181345v -2.22794h 0.181345v 2.22794h 0.181345v -3.76085h 0.181345v 0.930669h 0.181345v 0.449436h 0.36269v -3.39436h 0.181345v 2.94493h 0.181345v -1.74217h 0.181345v 1.44973h 0.181345v -0.498684h 0.181345v
 -0.550681h 0.181345v -0.661564h 0.181345v 0.195479h 0.181345v 0.670271h 0.181345v -1.37512h 0.181345v 3.26932h 0.181345v -3.14356h 0.181345v 2.02229h 0.181345v -0.772933h 0.181345v 0.487322h 0.181345v 2.87095h 0.181345v -1.84704h 0.181345v 0.152038h
 0.181345v 1.10886h 0.181345v -0.722011h 0.181345v -2.2543h 0.181345v 4.99318h 0.181345v -1.85168h 0.181345v -1.27405h 0.181345v 3.12573h 0.181345v -0.997844h 0.181345v -1.18245h 0.181345v -0.94544h 0.181345v 1.52523h 0.181345v -1.21654h 0.181345v
 3.58599h 0.181345v 0.50102h 0.181345v -3.28684h 0.181345v 1.46453h 0.181345v 1.61993h 0.181345v -3.16639h 0.181345v 0.753674h 0.181345v -1.07707h 0.181345v 1.42435h 0.181345v -0.602659h 0.181345v -0.980854h 0.181345v 2.30269h 0.181345v -2.46022h
 0.181345v 2.0964h 0.181345v 1.71008h 0.181345v -2.49832h 0.181345v 3.53816h 0.181345v -2.65977h 0.181345v 0.181904h 0.181345v 0.370436h 0.181345v -0.370436h 0.181345v -1.64644h 0.181345v -0.163421h 0.181345v 0.0814921h 0.181345v 1.91246h 0.181345v
 0.28037h 0.181345v -0.826133h 0.181345v -1.52925h 0.181345v 1.89092h 0.181345v 1.43803h 0.181345v 0.100857h 0.181345v -1.98965h 0.36269v 1.00984h 0.181345v -2.69062h 0.181345v 0.986131h 0.181345v 0.873365h 0.181345v -1.2092h 0.181345v 0.335832h
 0.181345v -0.50102h 0.181345v 1.46453h 0.181345v -0.0901462h 0.181345v 0.736515h 0.181345v -2.43601h 0.181345v 0.407484h 0.181345v 0.0828172h 0.181345v -0.490301h 0.181345v 1.08294h 0.181345v -0.675457h 0.181345v 0.0828172h 0.181345v 0.941906h
 0.181345v -0.774913h 0.181345v 1.13235h 0.181345v -0.706703h 0.181345v -1.00231h 0.181345v 1.35158h 0.181345v -3.60266h 0.181345v 2.66075h 0.181345v 0.335832h 0.181345v -0.50102h 0.181345v -1.63451h 0.181345v 2.83018h 0.181345v -0.523928h 0.181345v
 -0.753674h 0.181345v 2.47844h 0.181345v 0.992539h 0.181345v -3.47098h 0.181345v 0.41411h 0.181345v -2.33138h 0.181345v 2.50021h 0.181345v 2.78582h 0.181345v -1.73163h 0.181345v -1.71863h 0.181345v 0.495602h 0.181345v 0.863491h 0.181345v -0.863491h
 0.181345v 1.87333h 0.181345v -0.740981h 0.181345v -1.29934h 0.181345v 3.43035h 0.181345v -1.85733h 0.181345v 1.34626h 0.181345v -1.61993h 0.181345v -0.357437h 0.181345v 1.77763h 0.181345v -1.14652h 0.181345v 0.185211h 0.181345v -0.276982h 0.181345v
 1.33783h 0.181345v 0.820586h 0.181345v -0.312907h 0.36269v -0.306627h 0.181345v 2.28807h 0.181345v -2.78582h 0.181345v 1.22303h 0.181345v 1.91954h 0.181345v -1.26924h 0.181345v -2.26018h 0.181345v 3.40957h 0.181345v 0.240631h 0.181345v -0.240631h
 0.181345v 1.37298h 0.181345v -1.25314h 0.181345v 0.488993h 0.181345v -1.86855h 0.181345v 0.110323h 0.181345v 1.26924h 0.181345v 0.242541h 0.181345v -2.98821h 0.181345v 3.61196h 0.181345v -0.377297h 0.181345v -0.727744h 0.181345v 0.238751h 0.181345v
 0.120789h 0.181345v 1.93673h 0.181345v -2.41426h 0.181345v -0.463058h 0.181345v 1.18507h 0.36269v -0.955294h 0.181345v -0.789535h 0.181345v 1.14081h 0.181345v -1.03048h 0.181345v 0.795407h 0.181345v 0.117087h 0.181345v -0.117087h 0.181345v -1.55145h
 0.181345v 3.94576h 0.181345v -4.56529h 0.181345v 4.56529h 0.181345v -0.797384h 0.181345v -0.128944h 0.181345v 1.76763h 0.181345v 1.19903h 0.181345v -3.59554h 0.181345v -0.839098h 0.181345v 2.95h 0.181345v -2.59601h 0.181345v 1.37298h 0.181345v
 2.39898h 0.181345v -3.40957h 0.181345v 0.880557h 0.181345v 1.49521h 0.181345v -3.77642h 0.181345v 0.568085h 0.181345v 1.58418h 0.181345v 0.258985h 0.181345v 1.94732h 0.181345v -2.20631h 0.181345v 1.06337h 0.181345v 0.70426h 0.181345v -2.88162h
 0.181345v 1.24294h 0.181345v 0.261198h 0.181345v -2.54241h 0.181345v 3.35391h 0.181345v -1.20165h 0.181345v 0.128944h 0.181345v 1.35307h 0.36269v 0.142138h 0.181345v 1.65756h 0.181345v -3.40957h 0.181345v 3.40957h 0.181345v -0.775788h 0.181345v
 -2.76059h 0.181345v -0.374216h 0.181345v -2.17833h 0.181345v 6.57403h 0.181345v -1.41144h 0.181345v -2.98427h 0.181345v 1.55521h 0.181345v 0.555688h 0.181345v -1.60988h 0.181345v -0.126803h 0.181345v 1.45631h 0.181345v -1.70681h 0.181345v 0.124733h
 0.181345v 1.72162h 0.181345v -3.04069h 0.181345v 3.04069h 0.181345v 0.140828h 0.181345v -1.35307h 0.181345v 1.21224h 0.181345v 0.71749h 0.181345v -0.857032h 0.181345v -1.70681h 0.181345v -0.727744h 0.181345v -1.25034h 0.181345v 3.54661h 0.181345v
 -1.69225h 0.181345v 0.757828h 0.181345v -1.47984h 0.181345v 1.47984h 0.181345v -2.0565h 0.181345v 3.40957h 0.181345v -3.29597h 0.181345v -1.72349h 0.181345v 0.94544h 0.181345v -0.215211h 0.181345v 0.215211h 0.181345v 0.892501h 0.181345v 1.31907h
 0.181345v -4.33295h 0.181345v 3.01388h 0.181345v -2.24006h 0.181345v -0.867852h 0.181345v -0.370436h 0.181345v -1.23007h 0.181345v -0.333997h 0.181345v 2.12314h 0.181345v -3.00568h 0.181345v 2.35538h 0.181345v 0.6503h 0.181345v -1.95706h 0.181345v
 0.683007h 0.181345v 0.806742h 0.181345v -0.542533h 0.181345v 1.59015h 0.181345v -1.41144h 0.181345v 0.736515h 0.181345v -1.52476h 0.181345v 1.33727h 0.36269v -3.63156h 0.181345v 4.20106h 0.181345v -4.56401h 0.181345v 3.90163h 0.181345v -1.58207h
 0.181345v 3.76862h 0.181345v -0.106479h 0.181345v -2.71492h 0.181345v 0.634858h 0.181345v -2.31564h 0.181345v -0.2369h 0.181345v -0.912494h 0.181345v -1.06895h 0.181345v 0.277821h 0.181345v -2.51475h 0.181345v -0.640387h 0.181345v -0.669292h
 0.181345v -1.75111h 0.181345v -1.65846h 0.181345v 0.264209h 0.181345v -2.53203h 0.181345v -0.94845h 0.181345v -0.657666h 0.181345v -1.23606h 0.181345v -2.12601h 0.181345v -0.162264h 0.181345v -0.760865h 0.181345v -1.06272h 0.181345v 0.0238933h
 0.181345v -0.284282h 0.181345v -2.08134h 0.181345v 1.59623h 0.181345v 0.0227546h 0.181345v -0.0908159h 0.181345v -0.750889h 0.181345v 1.68429h 0.181345v 1.07139h 0.181345v 0.339274h 0.181345v 1.09383h 0.181345v 1.64457h 0.181345v 1.181h 0.181345v
 0.275318h 0.181345v 1.57134h 0.181345v 2.45836h 0.181345v 1.92452h 0.181345v 1.2273h 0.181345v 0.111531h 0.181345v 2.68541h 0.181345v 2.22251h 0.181345v -0.0769762h 0.181345v 1.87667h 0.181345v 1.74553h 0.181345v 1.10991h 0.181345v 1.54027h
 0.181345v 1.45631h 0.181345v 0.918372h 0.181345v 1.71541h 0.181345v 1.09748h 0.181345v -1.69094h 0.181345v -2.16713h 0.181345v 1.59586h 0.181345v 1.78218h 0.181345v -2.99443h 0.181345v 0.797384h 0.181345v 4.5787h 0.181345v -1.90163h 0.181345v
 -0.791873h 0.181345v -0.305605h 0.181345v -0.299612h 0.181345v -0.147631h 0.181345v -0.71749h 0.181345v -0.139542h 0.181345v -1.45631h 0.181345v 1.04518h 0.181345v 3.47733h 0.181345v -0.826133h 0.181345v 0.490301h 0.181345v -0.6503h 0.181345v
 -0.926328h 0.181345v 4.4959h 0.181345v -3.24788h 0.181345v 0.664441h 0.36269v -0.335832h 0.181345v -1.7257h 0.181345v -1.14294h 0.181345v 1.14294h 0.181345v 2.75618h 0.181345v -1.52079h 0.181345v 1.52079h 0.181345v -1.52079h 0.181345v -2.24006h
 0.36269v 3.93956h 0.181345v -1.8595h 0.181345v 2.04032h 0.181345v -0.536186h 0.181345v -0.174627h 0.181345v -0.343379h 0.181345v -0.664441h 0.181345v -0.480031h 0.181345v 0.480031h 0.181345v 2.08684h 0.181345v -1.25167h 0.36269v 0.347282h 0.181345v
 2.06543h 0.181345v -1.52925h 0.181345v 1.13235h 0.181345v -2.18654h 0.181345v -0.986131h 0.181345v -0.470183h 0.181345v 3.06619h 0.181345v 1.38104h 0.36269v -0.804382h 0.181345v 0.599282h 0.181345v -1.36343h 0.181345v -0.90439h 0.181345v 0.176646h
 0.181345v 3.81466h 0.181345v -1.51838h 0.181345v 0.418649h 0.181345v 0.6503h 0.181345v -0.861058h 0.181345v 2.49556h 0.181345v -8.33807h 0.181345v 4.63558h 0.181345v 0.591547h 0.181345v -0.396899h 0.181345v -1.49189h 0.181345v 1.10504h 0.181345v
 -1.10504h 0.181345v 1.29724h 0.181345v 0.194649h 0.181345v 2.32277h 0.36269v -4.16593h 0.181345v 3.06619h 0.181345v 0.213706h 0.181345v -2.56909h 0.181345v 1.52925h 0.181345v -0.973561h 0.181345v 0.773823h 0.181345v 2.12561h 0.181345v -3.08691h
 0.36269v 0.764146h 0.181345v -3.17267h 0.181345v -0.315057h 0.181345v -1.48464h 0.181345v -0.691509h 0.181345v -0.134624h 0.181345v -2.91927h 0.181345v 1.14939h 0.181345v -1.36925h 0.181345v -3.58321h 0.181345v -0.59264h 0.181345v -3.54187h
 0.181345v -2.261h 0.181345v 1.9352h 0.181345v -4.58791h 0.181345v -0.330641h 0.181345v -0.41486h 0.181345v -0.35954h 0.181345v -3.86467h 0.181345v -0.871449h 0.181345v 0.163771h 0.181345v -2.17556h 0.181345v 0.463936h 0.181345v -1.69795h 0.181345v
 1.2626h 0.181345v -1.62704h 0.181345v 0.737786h 0.181345v 0.746851h 0.181345v -1.51034h 0.181345v 0.495885h 0.181345v -0.0529627h 0.181345v -0.262094h 0.181345v 0.58266h 0.181345v 2.71042h 0.181345v 0.325806h 0.181345v 0.366598h 0.181345v 1.86307h
 0.181345v 1.22938h 0.181345v 0.333997h 0.181345v 1.50705h 0.181345v 1.16104h 0.181345v 3.42214h 0.181345v 0.840112h 0.181345v 1.10172h 0.181345v 3.07413h 0.181345v 4.19332h 0.181345v -1.00049h 0.181345v 2.31956h 0.181345v 3.03839h 0.181345v
 -0.599282h 0.181345v 2.04032h 0.181345v 3.36765h 0.181345v 2.01045h 0.181345v 2.59601h 0.181345v 2.78582h 0.181345v -2.78582h 0.181345v 0.873365h 0.181345v 2.96665h 0.181345v -0.35954h 0.181345v 1.49189h 0.181345v -2.85098h 0.181345v 0.664441h
 0.181345v 0.694653h 0.181345v 1.88879h 0.181345v -3.24788h 0.181345v -2.40175h 0.181345v 8.27546h 0.181345v -3.78687h 0.36269v 0.377297h 0.181345v -1.45631h 0.181345v 1.84316h 0.181345v 1.22303h 0.181345v 1.79969h 0.181345v -3.78687h 0.181345v
 0.764146h 0.181345v 1.22303h 0.181345v -0.418649h 0.181345v -3.97706h 0.181345v -0.315057h 0.181345v 4.71076h 0.181345v -3.40957h 0.181345v -2.20916h 0.181345v 4.39571h 0.181345v -1.84316h 0.181345v 0.710813h 0.181345v -1.71863h 0.181345v 1.00782h
 0.181345v 1.84316h 0.36269v -3.48773h 0.181345v 1.99584h 0.181345v -1.35909h 0.181345v 2.46413h 0.181345v -4.86589h 0.181345v 4.86589h 0.181345v -3.40957h 0.181345v 2.30453h 0.181345v 0.35954h 0.181345v 1.93673h 0.181345v -2.99092h 0.181345v
 -2.78582h 0.181345v 5.77675h 0.181345v -2.64755h 0.181345v 1.84316h 0.36269v -0.764146h 0.181345v 1.56853h 0.181345v -0.407484h 0.181345v 0.407484h 0.181345v -1.19123h 0.181345v -3.40957h 0.181345v 1.95326h 0.181345v 1.07902h 0.181345v 0.377297h
 0.181345v -3.10088h 0.181345v -0.611271h 0.181345v 4.90338h 0.181345v -1.19123h 0.181345v -2.46413h 0.181345v 1.71863h 0.36269v 0.368204h 0.181345v -3.03228h 0.181345v -1.45631h 0.181345v 4.86589h 0.181345v -4.00886h 0.181345v 0.296703h 0.181345v
 1.91246h 0.181345v 7.80528h 0.181345v -7.11063h 0.181345v 0.35954h 0.181345v 2.78582h 0.181345v -3.49664h 0.181345v 0.710813h 0.181345v -0.35954h 0.181345v 1.10504h 0.181345v 2.48325h 0.181345v -6.4921h 0.181345v 2.20916h 0.181345v 4.73908h
 0.181345v -3.68489h 0.181345v 1.52925h 0.181345v -0.783748h 0.181345v -1.45631h 0.181345v -0.343379h 0.181345v 3.84002h 0.181345v -4.50446h 0.181345v 2.46413h 0.181345v -0.377297h 0.181345v -3.33486h 0.181345v -2.98427h 0.181345v 10.106h 0.181345v
 -3.02272h 0.181345v -4.099h 0.181345v 3.71215h 0.181345v 1.19123h 0.181345v 0.849092h 0.181345v -3.84002h 0.181345v 2.58344h 0.181345v -5.36927h 0.181345v 4.97237h 0.36269v -1.84316h 0.181345v -1.64457h 0.181345v 2.72359h 0.181345v 0.764146h
 0.181345v -2.52237h 0.181345v 1.03048h 0.181345v 0.727744h 0.181345v -0.727744h 0.181345v 1.49189h 0.181345v -3.17267h 0.181345v 3.56957h 0.181345v -1.16104h 0.181345v -1.75823h 0.181345v 8.14111h 0.181345v -7.4619h 0.181345v 1.07902h 0.181345v
 1.56853h 0.181345v 1.29201h 0.181345v 1.91246h 0.181345v -3.20447h 0.181345v -0.804382h 0.181345v -2.18654h 0.36269v 3.40957h 0.181345v 2.78582h 0.181345v -3.61196h 0.181345v 2.62583h 0.181345v -2.21834h 0.181345v -1.19123h 0.181345v -0.377297h
 0.181345v 4.773h 0.181345v -4.00886h 0.181345v 1.22303h 0.36269v 3.30383h 0.181345v 11.1273h 0.181345v -15.6542h 0.181345v -1.84316h 0.181345v 2.24006h 0.181345v 6.39778h 0.181345v -4.69828h 0.181345v -0.442922h 0.181345v 1.36925h 0.181345v
 -0.926328h 0.36269v -0.442922h 0.181345v 0.899067h 0.181345v -1.32951h 0.181345v 3.30383h 0.181345v -2.43047h 0.181345v 5.97233h 0.181345v -3.54187h 0.181345v -1.97432h 0.181345v 4.86589h 0.181345v -2.89157h 0.544034v 3.54187h 0.181345v -4.56089h
 0.181345v 3.91059h 0.181345v -2.35538h 0.181345v 0.555688h 0.181345v -3.06619h 0.181345v 4.86589h 0.36269v -1.79969h 0.181345v 2.44999h 0.181345v -2.44999h 0.181345v -1.09187h 0.36269v 11.1273h 0.181345v -5.4499h 0.181345v 0.783748h 0.181345v
 -4.7926h 0.181345v 1.87333h 0.181345v 2.91927h 0.181345v -1.52925h 0.181345v -1.39002h 0.181345v -0.6503h 0.181345v 8.23572h 0.181345v -3.84002h 0.181345v -3.06619h 0.181345v -1.32951h 0.181345v 1.32951h 0.181345v 3.06619h 0.181345v 0.873365h
 0.181345v -3.93956h 0.181345v 4.86589h 0.181345v -9.60497h 0.181345v 4.73908h 0.181345v -0.679211h 0.181345v 8.71777h 0.181345v -1.13235h 0.181345v -9.45875h 0.181345v 8.40456h 0.181345v -1.91246h 0.181345v 0.926328h 0.181345v -4.86589h 0.181345v
 6.90621h 0.36269v 3.68489h 0.181345v -5.72522h 0.181345v -3.40957h 0.181345v 1.60988h 0.36269v 6.1954h 0.181345v -1.22303h 0.181345v 5.61874h 0.181345v -4.39571h 0.181345v -4.39571h 0.181345v 4.39571h 0.181345v -6.1954h 0.181345v -1.60988h 0.181345v
 4.39571h 0.181345v 6.1954h 0.36269v -1.45631h 0.36269v -4.73908h 0.181345v 9.60497h 0.36269v -1.79969h 0.181345v -4.39571h 0.181345v -4.39571h 0.181345v 5.72522h 0.36269v -5.72522h 0.181345v 4.39571h 0.181345v -5.32203h 0.181345v 15.9131h 0.181345v
 -12.9465h 0.181345v 8.55078h 0.181345v -3.40957h 0.181345v -4.00886h 0.181345v 2.55254h 0.181345v -3.68489h 0.181345v -2.04032h 0.181345v -1.79969h 0.181345v -3.06619h 0.181345v 0.710813h 0.181345v 8.55078h 0.181345v 2.78582h 0.181345v -8.98122h
 0.181345v 0.873365h 0.181345v 8.10786h 0.181345v -15.7323h 0.181345v 10.5911h 0.181345v 3.68489h 0.181345v -8.35104h 0.181345v -4.19332h 0.36269v -3.77196h 0.181345v 4.39571h 0.181345v -4.39571h 0.181345v -1.79969h 0.181345v 6.1954h 0.181345v
 -4.39571h 0.181345v 2.04032h 0.181345v -1.05419h 0.36269v 0.518007h 0.181345v 2.89157h 0.181345v 2.04032h 0.181345v -5.95092h 0.181345v 4.56089h 0.181345v -1.87333h 0.181345v -1.13235h 0.181345v -0.536186h 0.181345v 0.536186h 0.181345v 8.55078h
 0.181345v 2.04032h 0.181345v -6.1954h 0.181345v 9.88029h 0.181345v -11.2703h 0.181345v 2.91927h 0.181345v -0.783748h 0.181345v 2.48325h 0.181345v 1.91246h 0.181345v 4.73908h 0.181345v -8.35104h 0.181345v 0.826133h 0.181345v 3.84002h 0.181345v
 -8.85947h 0.181345v 3.40957h 0.181345v -3.40957h 0.181345v 3.40957h 0.181345v -5.67739h 0.181345v 8.16064h 0.181345v -8.16064h 0.181345v -1.97432h 0.181345v 1.97432h 0.181345v -4.12996h 0.181345v 2.62583h 0.181345v 2.59601h 0.181345v -7.4619h
 0.181345v -2.25584h 0.181345v 2.25584h 0.181345v -4.22108h 0.36269v -3.51459h 0.181345v -1.20692h 0.181345v 1.63139h 0.181345v -3.45255h 0.181345v 0.883468h 0.181345v -3.11572h 0.181345v -0.438683h 0.181345v -0.143473h 0.181345v 0.143473h 0.181345v
 -2.27279h 0.181345v 1.56853h 0.181345v -2.99092h 0.181345v 2.58344h 0.181345v -2.35538h 0.181345v -1.73573h 0.181345v 1.06152h 0.181345v -2.14986h 0.181345v 0.386849h 0.181345v 0.296703h 0.36269v 0.404785h 0.181345v -2.10428h 0.181345v -1.92822h
 0.181345v 2.47398h 0.181345v -0.365999h 0.181345v -0.792786h 0.181345v -1.54967h 0.181345v 0.795999h 0.181345v 1.18902h 0.181345v -2.59325h 0.181345v -0.29527h 0.181345v 1.05942h 0.181345v 0.55859h 0.181345v -2.60871h 0.181345v 2.8545h 0.181345v
 -2.8545h 0.181345v 1.13762h 0.181345v 0.602235h 0.181345v -1.25253h 0.181345v 1.95969h 0.181345v -2.44701h 0.181345v -0.538549h 0.181345v 0.676205h 0.181345v 0.563372h 0.181345v -0.071568h 0.181345v 2.47485h 0.181345v -0.975633h 0.181345v 0.0789652h
 0.181345v 1.84925h 0.181345v 2.00208h 0.181345v 0.518007h 0.181345v -0.820586h 0.181345v 0.201052h 0.181345v 2.28807h 0.181345v 2.1414h 0.181345v -0.661564h 0.181345v -0.383612h 0.181345v 1.59586h 0.181345v 0.282966h 0.181345v 2.64369h 0.181345v
 1.79969h 0.181345v -0.562508h 0.181345v 6.28772h 0.181345v 0.565981h 0.181345v -2.88162h 0.181345v 3.17267h 0.181345v 3.26336h 0.181345v 0.368204h 0.181345v 2.86054h 0.181345v -1.6995h 0.181345v 6.39778h 0.181345v 1.27405h 0.181345v 2.13553h
 0.181345v 4.39571h 0.181345v -1.91246h 0.36269v 8.10786h 0.181345v 1.60988h 0.181345v 8.98122h 0.181345v -5.14121h 0.36269v -2.04032h 0.181345v 10.5911h 0.181345v -6.1954h 0.181345v 2.78582h 0.181345v -2.78582h 0.181345v 27.3776h 0.181345v -33.573h
 0.181345v 3.84002h 0.181345v 19.1419h 0.36269v 21.1822h 0.181345v -21.1822h 0.181345v -6.1954h 0.181345v -12.9465h 0.181345v 40.3241h 0.181345v -31.7733h 0.181345v 10.5911h 0.181345v -14.0007h 0.181345v 7.80528h 0.181345v 16.7865h 0.36269v -24.5918h
 0.181345v 7.80528h 0.181345v -14.9868h 0.181345v 31.7733h 0.181345v -21.1822h 0.181345v 4.39571h 0.181345v -4.39571h 0.181345v 10.5911h 0.181345v -16.7865h 0.181345v 10.5911h 0.181345v -7.80528h 0.181345v 24.5918h 0.181345v -10.5911h 0.181345v
 10.5911h 0.181345v -21.1822h 0.181345v 21.1822h 0.181345v -10.5911h 0.181345v 10.5911h 0.181345v -21.1822h 0.181345v 10.5911h 0.181345v -10.5911h 0.181345v 31.7733h 0.181345v -27.3776h 0.36269v 6.1954h 0.181345v -14.0007h 0.181345v 14.0007h
 0.181345v -6.1954h 0.181345v -10.5911h 0.181345v -6.1954h 0.181345v 22.9819h 0.36269v -6.1954h 0.36269v -7.80528h 0.181345v 7.80528h 0.36269v -14.9868h 0.181345v 21.1822h 0.181345v -6.1954h 0.36269v -12.9465h 0.181345v 19.1419h 0.181345v -16.7865h
 0.181345v 2.78582h 0.181345v -2.78582h 0.181345v 6.1954h 0.181345v -12.3908h 0.181345v 6.1954h 0.181345v 6.1954h 0.181345v -8.55078h 0.181345v 5.14121h 0.181345v -2.78582h 0.181345v -2.35538h 0.181345v -8.23572h 0.181345v 2.78582h 0.181345v
 -2.78582h 0.181345v 10.5911h 0.181345v -12.9465h 0.181345v 6.75109h 0.181345v -10.5911h 0.181345v 7.52491h 0.181345v 1.45631h 0.181345v -7.18153h 0.181345v 0.986131h 0.181345v 4.73908h 0.181345v -2.55254h 0.181345v 9.45875h 0.181345v -10.5911h
 0.36269v 2.35538h 0.181345v -2.35538h 0.181345v -2.04032h 0.181345v -0.926328h 0.181345v -3.22875h 0.181345v 9.88029h 0.181345v -6.65154h 0.181345v 0.926328h 0.181345v 2.04032h 0.181345v -2.04032h 0.181345v -4.86589h 0.181345v 8.03856h 0.181345v
 -2.18654h 0.181345v -0.986131h 0.181345v 5.72522h 0.181345v 4.86589h 0.181345v -11.5174h 0.181345v 4.099h 0.181345v 2.55254h 0.181345v 4.86589h 0.181345v 2.04032h 0.181345v -2.04032h 0.181345v -10.5911h 0.181345v 0.986131h 0.181345v 9.60497h
 0.181345v 4.39571h 0.181345v 6.1954h 0.181345v -6.1954h 0.181345v -7.80528h 0.181345v 7.80528h 0.181345v 6.1954h 0.181345v -3.40957h 0.181345v -8.98122h 0.181345v 22.9819h 0.181345v -10.5911h 0.36269v -8.55078h 0.181345v 19.1419h 0.36269v 10.5911h
 0.181345v -10.5911h 0.36269v -6.1954h 0.181345v -4.39571h 0.181345v 31.7733h 0.181345v -27.3776h 0.181345v -4.39571h 0.181345v 21.1822h 0.181345v -16.7865h 0.181345v 27.3776h 0.181345v -40.3241h 0.181345v 19.1419h 0.181345v -6.1954h 0.181345v
 -4.39571h 0.36269v 10.5911h 0.36269v -16.7865h 0.181345v 10.5911h 0.181345v -4.39571h 0.181345v 10.5911h 0.36269v -14.0007h 0.181345v -2.78582h 0.181345v 10.5911h 0.181345v 16.7865h 0.36269v -24.5918h 0.181345v 14.0007h 0.181345v -19.1419h 0.181345v
 40.3241h 0.181345v -10.5911h 0.181345v 10.5911h 0.181345v -27.3776h 0.181345v -4.39571h 0.181345v 4.39571h 0.181345v 6.1954h 0.181345v -6.1954h 0.181345v -4.39571h 0.181345v 4.39571h 0.181345v 16.7865h 0.181345v -24.5918h 0.181345v 7.80528h
 0.181345v -12.9465h 0.181345v 12.9465h 0.181345v 6.1954h 0.36269v -6.1954h 0.181345v -7.80528h 0.181345v 24.5918h 0.181345v -21.1822h 0.181345v 4.39571h 0.181345v 6.1954h 0.181345v -10.5911h 0.181345v 4.39571h 0.181345v -10.5911h 0.181345v 2.78582h
 0.181345v -7.18153h 0.181345v 7.18153h 0.181345v 14.0007h 0.181345v -14.0007h 0.181345v 3.40957h 0.181345v 4.39571h 0.181345v -7.80528h 0.181345v 3.40957h 0.181345v -3.40957h 0.181345v -14.6h 0.181345v 7.41843h 0.181345v 2.04032h 0.181345v 8.55078h
 0.181345v -6.1954h 0.181345v 27.3776h 0.181345v -35.1829h 0.181345v 5.4499h 0.181345v -8.23572h 0.181345v 10.5911h 0.181345v -9.26159h 0.181345v 12.0474h 0.181345v -5.14121h 0.181345v -8.23572h 0.181345v 21.1822h 0.36269v -4.39571h 0.181345v
 -15.457h 0.181345v 15.457h 0.181345v -3.40957h 0.36269v -5.14121h 0.181345v -3.84002h 0.181345v 3.84002h 0.181345v 8.55078h 0.181345v 4.39571h 0.181345v -7.80528h 0.181345v 14.0007h 0.181345v -6.1954h 0.181345v -7.80528h 0.36269v 14.0007h 0.544034v
 -10.5911h 0.181345v -3.40957h 0.181345v -2.78582h 0.181345v 16.7865h 0.181345v -14.0007h 0.181345v 7.80528h 0.181345v -4.39571h 0.181345v 10.5911h 0.181345v -10.5911h 0.181345v -3.40957h 0.181345v 14.0007h 0.181345v -10.5911h 0.181345v -3.40957h
 0.181345v 24.5918h 0.181345v -10.5911h 0.181345v -10.5911h 0.181345v 10.5911h 0.181345v -16.7865h 0.181345v 2.78582h 0.36269v 7.80528h 0.181345v 16.7865h 0.181345v -29.733h 0.181345v 5.14121h 0.181345v -5.14121h 0.181345v 2.35538h 0.36269v -9.26159h
 0.181345v 9.26159h 0.181345v 37.9687h 0.181345v -31.7733h 0.181345v -3.40957h 0.181345v 3.40957h 0.181345v -3.40957h 0.181345v -5.14121h 0.181345v 19.1419h 0.181345v -19.1419h 0.36269v 2.35538h 0.181345v 10.5911h 0.181345v -10.5911h 0.181345v
 6.1954h 0.181345v -6.1954h 0.181345v -2.35538h 0.181345v 5.14121h 0.181345v -2.78582h 0.36269v 2.78582h 0.544034v -5.14121h 0.181345v -2.04032h 0.181345v 10.5911h 0.544034v 10.5911h 0.181345v 10.5911h 0.181345v -24.5918h 0.181345v -7.18153h
 0.181345v 7.18153h 0.181345v 3.40957h 0.181345v -14.0007h 0.181345v 24.5918h 0.181345v -16.7865h 0.36269v 2.78582h 0.181345v -8.98122h 0.181345v 12.3908h 0.181345v -14.0007h 0.181345v 3.40957h 0.181345v 10.5911h 0.181345v -10.5911h 0.181345v
 10.5911h 0.181345v -18.0095h 0.181345v 2.55254h 0.181345v 3.06619h 0.181345v 6.1954h 0.36269v -2.35538h 0.181345v -3.84002h 0.181345v -3.06619h 0.181345v 9.26159h 0.181345v -2.35538h 0.181345v 2.35538h 0.181345v -4.39571h 0.181345v 7.18153h
 0.181345v -12.0474h 0.181345v 4.86589h 0.181345v -4.86589h 0.181345v 6.90621h 0.181345v 5.14121h 0.36269v -13.3769h 0.181345v 13.3769h 0.181345v -5.14121h 0.181345v -8.23572h 0.181345v 1.32951h 0.181345v 12.0474h 0.36269v -2.78582h 0.181345v
 -7.80528h 0.181345v 18.3964h 0.181345v -12.9465h 0.181345v 2.35538h 0.181345v -11.8141h 0.181345v -2.18654h 0.181345v -2.78582h 0.181345v 16.7865h 0.181345v -6.1954h 0.181345v 8.98122h 0.181345v -2.78582h 0.181345v -7.80528h 0.36269v 3.40957h
 0.181345v 2.04032h 0.181345v -6.90621h 0.181345v -1.32951h 0.36269v 4.39571h 0.181345v -4.39571h 0.181345v 2.78582h 0.181345v 5.4499h 0.181345v -8.23572h 0.181345v 6.1954h 0.181345v -6.1954h 0.181345v -1.22303h 0.36269v -1.13235h 0.181345v 2.35538h
 0.181345v 4.39571h 0.181345v -8.79141h 0.181345v 4.39571h 0.181345v -1.22303h 0.181345v -3.17267h 0.181345v 12.6314h 0.181345v -8.23572h 0.36269v -4.39571h 0.181345v 2.04032h 0.181345v -1.05419h 0.181345v 6.1954h 0.181345v 1.60988h 0.181345v
 -6.75109h 0.181345v 6.75109h 0.181345v -5.61874h 0.181345v 2.55254h 0.181345v 9.26159h 0.181345v -6.1954h 0.181345v -6.75109h 0.36269v -1.05419h 0.36269v -0.986131h 0.181345v 4.39571h 0.544034v 4.39571h 0.181345v -6.75109h 0.181345v 3.68489h
 0.36269v -11.2703h 0.181345v 9.9408h 0.181345v -6.1954h 0.181345v -1.60988h 0.181345v 6.58225h 0.181345v 7.41843h 0.181345v -8.55078h 0.36269v -6.1954h 0.181345v 2.35538h 0.181345v 1.79969h 0.181345v 5.72522h 0.36269v -5.72522h 0.181345v 0.986131h
 0.181345v -2.78582h 0.181345v 6.1954h 0.181345v -5.32203h 0.181345v -1.6995h 0.181345v -3.56957h 0.181345v 4.39571h 0.181345v -5.61874h 0.181345v 5.61874h 0.181345v -6.1954h 0.181345v 7.06876h 0.181345v -3.22875h 0.181345v 6.1954h 0.181345v -6.1954h
 0.181345v 6.1954h 0.181345v -1.05419h 0.181345v -2.78582h 0.181345v -4.39571h 0.181345v 5.26907h 0.181345v -1.6995h 0.181345v 1.6995h 0.181345v -5.26907h 0.181345v 6.1954h 0.181345v -2.62583h 0.181345v -1.52925h 0.181345v 0.745501h 0.181345v
 2.48325h 0.181345v -10.135h 0.181345v 12.0474h 0.36269v -5.85202h 0.181345v -1.95326h 0.181345v 5.89282h 0.181345v 1.91246h 0.181345v -2.78582h 0.181345v -3.74541h 0.181345v 3.74541h 0.181345v -3.74541h 0.181345v 5.5451h 0.181345v 0.986131h 0.36269v
 1.05419h 0.181345v 1.13235h 0.36269v -1.13235h 0.181345v 2.35538h 0.181345v 6.1954h 0.181345v -12.3908h 0.181345v 0.873365h 0.181345v 9.71774h 0.36269v -5.61874h 0.181345v -3.17267h 0.36269v 0.986131h 0.181345v -1.91246h 0.181345v 4.099h 0.181345v
 -1.13235h 0.181345v 2.35538h 0.181345v -4.39571h 0.181345v 3.17267h 0.181345v 1.22303h 0.181345v 10.5911h 0.181345v -6.1954h 0.181345v -8.79141h 0.181345v 7.18153h 0.181345v 1.60988h 0.181345v -4.39571h 0.181345v -6.1954h 0.181345v 4.97237h
 0.181345v -4.97237h 0.181345v 3.84002h 0.181345v -1.05419h 0.181345v 6.1954h 0.36269v -7.18153h 0.181345v 12.6314h 0.181345v -5.4499h 0.181345v -2.78582h 0.181345v 4.39571h 0.181345v 6.1954h 0.181345v -9.26159h 0.181345v -5.72522h 0.181345v 12.6314h
 0.181345v -10.5911h 0.181345v 6.75109h 0.181345v -5.61874h 0.181345v 7.41843h 0.181345v 7.18153h 0.181345v -10.5911h 0.181345v -4.00886h 0.181345v -2.18654h 0.181345v 1.05419h 0.181345v -4.66615h 0.181345v 9.80736h 0.181345v -4.00886h 0.181345v
 2.55254h 0.181345v -2.55254h 0.181345v -1.13235h 0.181345v 6.75109h 0.181345v -1.60988h 0.181345v 3.40957h 0.181345v 2.04032h 0.181345v 2.35538h 0.181345v -7.80528h 0.181345v 3.40957h 0.181345v -4.86589h 0.181345v -2.55254h 0.181345v 7.41843h
 0.181345v -6.1954h 0.181345v -1.22303h 0.181345v 4.00886h 0.181345v 5.4499h 0.181345v -10.5911h 0.181345v -2.04032h 0.181345v 10.5911h 0.181345v 2.04032h 0.181345v -9.45875h 0.181345v -2.18654h 0.181345v 7.80528h 0.181345v -7.80528h 0.181345v
 1.05419h 0.181345v 2.35538h 0.181345v -1.22303h 0.181345v 2.55254h 0.181345v -3.68489h 0.181345v 6.75109h 0.181345v -3.06619h 0.181345v 1.45631h 0.181345v -6.1954h 0.181345v 3.40957h 0.181345v -1.22303h 0.181345v -5.7985h 0.181345v 8.35104h
 0.181345v -11.9206h 0.181345v 3.56957h 0.181345v 4.66615h 0.181345v -2.04032h 0.181345v -0.926328h 0.181345v 1.91246h 0.181345v 7.80528h 0.181345v -10.5911h 0.181345v 1.79969h 0.181345v 0.986131h 0.181345v 9.60497h 0.181345v -9.60497h 0.36269v
 3.40957h 0.181345v 2.78582h 0.181345v 3.40957h 0.181345v -11.5174h 0.181345v -1.6995h 0.181345v 4.66615h 0.181345v 6.75109h 0.181345v -4.39571h 0.181345v -1.22303h 0.181345v -9.36807h 0.181345v 3.56957h 0.181345v 0.826133h 0.181345v 14.4311h
 0.181345v -9.45875h 0.181345v 1.22303h 0.181345v -4.39571h 0.181345v 3.17267h 0.36269v 1.22303h 0.544034v -4.39571h 0.181345v 0.986131h 0.181345v 3.40957h 0.181345v -7.02153h 0.181345v 4.66615h 0.181345v -3.84002h 0.181345v 1.79969h 0.181345v
 5.72522h 0.181345v -4.73908h 0.181345v -2.78582h 0.181345v 8.98122h 0.181345v -8.98122h 0.181345v 1.79969h 0.181345v 0.986131h 0.181345v 3.40957h 0.181345v -1.22303h 0.181345v -3.17267h 0.181345v 3.17267h 0.36269v 1.22303h 0.36269v 1.32951h
 0.181345v 1.45631h 0.181345v -1.45631h 0.181345v -3.68489h 0.181345v -4.66615h 0.181345v 4.66615h 0.181345v -5.4499h 0.181345v 1.60988h 0.181345v 4.97237h 0.181345v 2.55254h 0.181345v 4.86589h 0.181345v -7.41843h 0.181345v -1.13235h 0.181345v
 -3.84002h 0.181345v -2.35538h 0.181345v -3.84002h 0.181345v 11.1678h 0.181345v -6.58225h 0.181345v 4.39571h 0.181345v 2.18654h 0.181345v -2.18654h 0.181345v -0.986131h 0.181345v 0.986131h 0.181345v -0.986131h 0.181345v -1.79969h 0.181345v 4.97237h
 0.181345v -6.58225h 0.181345v 3.40957h 0.181345v -4.15507h 0.181345v 8.55078h 0.181345v -9.26159h 0.36269v -1.32951h 0.181345v 3.56957h 0.181345v 0.826133h 0.181345v 2.78582h 0.181345v -0.986131h 0.181345v 2.04032h 0.181345v -1.05419h 0.181345v
 -0.986131h 0.181345v 7.18153h 0.181345v -8.10786h 0.181345v 0.926328h 0.36269v -1.79969h 0.181345v 7.52491h 0.181345v -8.35104h 0.181345v 3.61196h 0.36269v -2.78582h 0.181345v 6.1954h 0.181345v -9.26159h 0.181345v 8.03856h 0.181345v -8.03856h
 0.181345v 13.6573h 0.181345v -5.61874h 0.181345v -1.13235h 0.181345v 2.35538h 0.181345v 4.39571h 0.181345v 12.3908h 0.181345v -20.1961h 0.181345v 3.40957h 0.181345v -4.39571h 0.181345v -2.62583h 0.181345v 11.4172h 0.181345v -7.80528h 0.36269v
 2.18654h 0.181345v -7.32775h 0.181345v 6.1954h 0.181345v 3.68489h 0.181345v -4.73908h 0.181345v 6.1954h 0.181345v -6.1954h 0.36269v -1.91246h 0.181345v 6.65154h 0.181345v 1.45631h 0.181345v 1.60988h 0.181345v -8.79141h 0.181345v 3.17267h 0.181345v
 4.00886h 0.181345v -1.45631h 0.181345v -6.65154h 0.181345v 0.926328h 0.181345v -2.62583h 0.181345v 11.4172h 0.36269v -4.39571h 0.181345v -2.35538h 0.181345v -1.05419h 0.181345v 4.73908h 0.181345v 6.90621h 0.181345v -11.6453h 0.181345v -1.91246h
 0.36269v 2.96665h 0.181345v -2.04032h 0.36269v 5.72522h 0.181345v -6.65154h 0.181345v 6.65154h 0.181345v 1.45631h 0.181345v -6.1954h 0.181345v -1.91246h 0.181345v 0.926328h 0.181345v 10.5911h 0.181345v -9.60497h 0.181345v 6.1954h 0.36269v 1.60988h
 0.181345v -7.80528h 0.181345v 14.0007h 0.181345v -14.9868h 0.181345v 4.39571h 0.181345v 6.1954h 0.181345v -3.40957h 0.544034v -6.1954h 0.181345v -0.986131h 0.181345v 4.39571h 0.181345v 6.1954h 0.181345v -4.86589h 0.181345v -2.55254h 0.181345v
 1.22303h 0.181345v -1.22303h 0.181345v -2.18654h 0.181345v 7.80528h 0.181345v -1.60988h 0.181345v -2.78582h 0.181345v 1.32951h 0.181345v 9.26159h 0.181345v 2.78582h 0.181345v -5.14121h 0.181345v -3.84002h 0.181345v -1.60988h 0.181345v 10.5911h
 0.181345v -7.18153h 0.181345v -4.86589h 0.181345v -3.68489h 0.181345v 1.13235h 0.181345v 7.41843h 0.181345v 10.5911h 0.181345v -10.5911h 0.36269v -4.86589h 0.181345v 12.0474h 0.181345v 3.40957h 0.181345v -16.7865h 0.181345v 37.9687h 0.181345v
 -24.5918h 0.181345v -10.5911h 0.181345v 24.5918h 0.181345v -22.9819h 0.181345v 8.98122h 0.181345v -5.14121h 0.181345v -2.04032h 0.181345v 4.39571h 0.181345v 2.78582h 0.36269v -7.18153h 0.181345v 7.18153h 0.181345v -2.78582h 0.181345v -6.1954h
 0.181345v 6.1954h 0.36269v 10.5911h 0.181345v 27.3776h 0.181345v -44.1641h 0.181345v 3.84002h 0.181345v -2.04032h 0.181345v -1.79969h 0.544034v 1.79969h 0.181345v 2.04032h 0.181345v 2.35538h 0.181345v -4.39571h 0.181345v -1.79969h 0.181345v 3.84002h
 0.36269v -5.4499h 0.181345v 7.80528h 0.181345v -4.39571h 0.181345v -7.41843h 0.181345v 18.0095h 0.181345v -6.1954h 0.181345v -2.35538h 0.36269v 2.35538h 0.181345v -7.80528h 0.181345v 14.0007h 0.181345v 10.5911h 0.181345v -10.5911h 0.181345v
 -8.55078h 0.181345v -8.23572h 0.181345v 13.3769h 0.181345v -2.78582h 0.36269v -7.80528h 0.181345v 10.5911h 0.181345v -2.78582h 0.181345v -2.35538h 0.181345v 2.35538h 0.181345v -7.80528h 0.181345v 7.80528h 0.181345v 6.1954h 0.181345v -6.1954h
 0.181345v -7.80528h 0.181345v -2.78582h 0.181345v 8.23572h 0.181345v 8.55078h 0.181345v -12.3908h 0.181345v 6.1954h 0.181345v -7.80528h 0.181345v 5.4499h 0.181345v 2.35538h 0.36269v 2.78582h 0.181345v 7.80528h 0.181345v -16.7865h 0.181345v 3.84002h
 0.181345v -3.84002h 0.181345v 33.573h 0.181345v -29.733h 0.36269v -3.84002h 0.181345v 1.79969h 0.181345v 2.04032h 0.181345v -5.4499h 0.181345v 10.5911h 0.181345v -7.18153h 0.181345v -3.40957h 0.181345v 14.0007h 0.181345v -10.5911h 0.181345v 2.04032h
 0.181345v 8.55078h 0.181345v -14.0007h 0.181345v 10.5911h 0.36269v -2.78582h 0.181345v -4.39571h 0.181345v -4.86589h 0.181345v -2.55254h 0.181345v 5.61874h 0.36269v 3.84002h 0.181345v -3.84002h 0.181345v 8.98122h 0.181345v -8.98122h 0.181345v
 12.3908h 0.181345v -15.457h 0.181345v 6.90621h 0.181345v -8.23572h 0.181345v 10.5911h 0.181345v 2.78582h 0.181345v -7.18153h 0.181345v 2.04032h 0.36269v -2.04032h 0.181345v -3.40957h 0.181345v 10.5911h 0.181345v -8.98122h 0.181345v -1.60988h
 0.36269v 1.60988h 0.181345v -1.60988h 0.181345v -1.45631h 0.181345v 1.45631h 0.181345v 14.0007h 0.181345v -15.457h 0.181345v 3.06619h 0.181345v -1.60988h 0.181345v -6.1954h 0.181345v 2.18654h 0.181345v -2.18654h 0.181345v 3.40957h 0.181345v 13.3769h
 0.181345v -5.14121h 0.36269v -2.04032h 0.181345v -3.40957h 0.181345v -4.00886h 0.181345v 4.00886h 0.181345v 3.40957h 0.36269v -9.60497h 0.181345v 7.80528h 0.181345v -3.06619h 0.36269v -1.32951h 0.181345v -4.39571h 0.181345v 8.79141h 0.181345v
 6.1954h 0.181345v -10.5911h 0.181345v -2.35538h 0.181345v 3.68489h 0.181345v 6.90621h 0.181345v -13.5578h 0.181345v 4.099h 0.181345v -4.97237h 0.181345v 6.1954h 0.181345v 4.39571h 0.181345v 3.84002h 0.181345v -6.90621h 0.181345v -5.72522h 0.181345v
 5.72522h 0.181345v -7.52491h 0.181345v 6.1954h 0.181345v -3.40957h 0.181345v 3.40957h 0.181345v 1.32951h 0.181345v -8.35104h 0.181345v 4.66615h 0.181345v 6.75109h 0.181345v -1.60988h 0.181345v -4.00886h 0.181345v -1.13235h 0.181345v 2.35538h
 0.181345v -3.40957h 0.181345v 4.73908h 0.181345v -8.35104h 0.181345v 11.4172h 0.181345v -1.60988h 0.181345v -1.45631h 0.181345v -3.68489h 0.181345v 2.35538h 0.181345v 2.78582h 0.181345v 1.60988h 0.36269v -7.80528h 0.181345v 1.05419h 0.181345v
 3.68489h 0.181345v -2.55254h 0.181345v 1.22303h 0.181345v 8.23572h 0.181345v 5.14121h 0.181345v -12.0474h 0.181345v 6.90621h 0.181345v -3.84002h 0.181345v 3.84002h 0.181345v -3.84002h 0.36269v 1.79969h 0.181345v -7.41843h 0.181345v 5.61874h
 0.181345v -3.06619h 0.181345v 6.90621h 0.181345v 2.35538h 0.36269v -4.39571h 0.181345v 14.9868h 0.36269v -10.5911h 0.181345v -9.26159h 0.181345v 12.0474h 0.544034v -8.98122h 0.181345v 16.7865h 0.36269v 16.7865h 0.181345v -27.3776h 0.181345v 10.5911h
 0.181345v 6.1954h 0.181345v -10.5911h 0.181345v 4.39571h 0.181345v -7.80528h 0.181345v 35.1829h 0.181345v -42.3644h 0.181345v 10.5911h 0.181345v 4.39571h 0.181345v 16.7865h 0.544034v -16.7865h 0.181345v 16.7865h 0.181345v -10.5911h 0.181345v
 10.5911h 0.181345v 10.5911h 0.181345v -31.7733h 0.181345v 4.39571h 0.181345v 6.1954h 0.181345v -6.1954h 0.181345v 27.3776h 0.181345v -10.5911h 0.181345v -16.7865h 0.181345v 6.1954h 0.181345v 21.1822h 0.36269v -31.7733h 0.181345v 10.5911h 0.181345v
 10.5911h 0.181345v 10.5911h 0.181345v -21.1822h 0.181345v 10.5911h 0.36269v -10.5911h 0.36269v 10.5911h 0.181345v -10.5911h 0.181345v 21.1822h 0.181345v -21.1822h 0.181345v 10.5911h 0.181345v -16.7865h 0.181345v 16.7865h 0.36269v -10.5911h 0.181345v
 -6.1954h 0.181345v 6.1954h 0.36269v 10.5911h 0.181345v -21.1822h 0.181345v 21.1822h 0.36269v -16.7865h 0.181345v 27.3776h 0.181345v -27.3776h 0.181345v 27.3776h 0.725379v -10.5911h 0.181345v 10.5911h 0.181345v -27.3776h 0.181345v 16.7865h 0.181345v
 10.5911h 0.36269v -21.1822h 0.36269v 21.1822h 0.181345v -21.1822h 0.36269v 21.1822h 0.181345v -10.5911h 0.725379v -16.7865h 0.181345v 27.3776h 0.181345v -10.5911h 0.725379v 10.5911h 0.181345v -21.1822h 0.181345v 10.5911h 0.181345v 10.5911h 0.181345v
 -10.5911h 0.725379v 10.5911h 0.181345v -10.5911h 0.181345v 10.5911h 0.181345v -21.1822h 0.181345v 10.5911h 0.36269v -10.5911h 0.181345v 10.5911h 0.906724v -16.7865h 0.181345v 16.7865h 0.544034v 10.5911h 0.181345v -10.5911h 0.181345v -10.5911h
 0.36269v 21.1822h 0.181345v -31.7733h 0.181345v 21.1822h 0.181345v 10.5911h 0.181345v -10.5911h 0.181345v 10.5911h 0.36269v -21.1822h 0.181345v 21.1822h 0.181345v -10.5911h 0.181345v -21.1822h 0.181345v 21.1822h 0.181345v 10.5911h 0.181345v
 -10.5911h 0.36269v 10.5911h 0.181345v -10.5911h 0.181345v 10.5911h 0.181345v -10.5911h 0.36269v 10.5911h 0.181345v -10.5911h 0.544034v 10.5911h 0.725379v -21.1822h 0.181345v 21.1822h 0.36269v -27.3776h 0.181345v 6.1954h 0.181345v 21.1822h 0.181345v
 -10.5911h 0.181345v 10.5911h 0.544034v -10.5911h 0.181345v 10.5911h 0.181345v -10.5911h 0.36269v -10.5911h 0.36269v 21.1822h 0.181345v -27.3776h 0.181345v 27.3776h 0.181345v -10.5911h 0.181345v 10.5911h 0.36269v -10.5911h 0.181345v -10.5911h
 0.181345v 21.1822h 0.544034v -10.5911h 0.181345v 10.5911h 0.544034v -27.3776h 0.181345v 27.3776h 0.906724v -10.5911h 0.181345v -10.5911h 0.181345v 21.1822h 0.181345v -10.5911h 0.181345v 10.5911h 0.181345v -21.1822h 0.181345v 21.1822h 0.181345v
 -21.1822h 0.181345v 21.1822h 0.181345v -21.1822h 0.181345v 10.5911h 0.181345v 10.5911h 0.36269v -10.5911h 0.544034v 10.5911h 0.181345v -10.5911h 0.181345v 10.5911h 0.36269v -10.5911h 0.181345v 10.5911h 0.181345v -10.5911h 0.181345v 10.5911h
 0.544034v -21.1822h 0.36269v 21.1822h 0.36269v -10.5911h 0.181345v 10.5911h 0.181345v -21.1822h 0.181345v 21.1822h 1.26941v -10.5911h 0.36269v 10.5911h 0.36269v -21.1822h 0.181345v 10.5911h 0.181345v -10.5911h 0.181345v 21.1822h 0.181345v -10.5911h
 0.36269v 10.5911h 0.181345v -10.5911h 0.36269v 10.5911h 0.181345v -10.5911h 0.36269v 10.5911h 0.181345v -10.5911h 0.181345v -10.5911h 0.181345v 10.5911h 0.181345v 10.5911h 0.36269v -10.5911h 0.181345v 10.5911h 0.544034v -10.5911h 0.181345v 10.5911h
 0.36269v -10.5911h 0.181345v 10.5911h 0.36269v -21.1822h 0.181345v 21.1822h 0.181345v -27.3776h 0.36269v 6.1954h 0.181345v 10.5911h 0.36269v 10.5911h 0.181345v -10.5911h 0.181345v -16.7865h 0.181345v 6.1954h 0.181345v 10.5911h 0.36269v 10.5911h
 0.36269v -10.5911h 0.36269v 10.5911h 0.181345v -10.5911h 0.36269v 10.5911h 0.181345v -10.5911h 0.181345v 10.5911h 0.36269v -21.1822h 0.181345v 10.5911h 0.36269v -16.7865h 0.181345v 27.3776h 0.725379v -10.5911h 0.181345" fill="none" stroke="black"/>
<path d="M57.1929,280.151h 453.543" fill="none" stroke="black"/>
<path d="M57.1929,272.68v 7.47068" fill="none" stroke="black"/>
<path d="M75.3318,276.415v 3.73534" fill="none" stroke="black"/>
<path d="M93.4707,276.415v 3.73534" fill="none" stroke="black"/>
<path d="M111.61,276.415v 3.73534" fill="none" stroke="black"/>
<path d="M129.749,276.415v 3.73534" fill="none" stroke="black"/>
<path d="M147.887,272.68v 7.47068" fill="none" stroke="black"/>
<path d="M166.026,276.415v 3.73534" fill="none" stroke="black"/>
<path d="M184.165,276.415v 3.73534" fill="none" stroke="black"/>
<path d="M202.304,276.415v 3.73534" fill="none" stroke="black"/>
<path d="M220.443,276.415v 3.73534" fill="none" stroke="black"/>
<path d="M238.582,272.68v 7.47068" fill="none" stroke="black"/>
<path d="M256.721,276.415v 3.73534" fill="none" stroke="black"/>
<path d="M274.86,276.415v 3.73534" fill="none" stroke="black"/>
<path d="M292.999,276.415v 3.73534" fill="none" stroke="black"/>
<path d="M311.138,276.415v 3.73534" fill="none" stroke="black"/>
<path d="M329.277,272.68v 7.47068" fill="none" stroke="black"/>
<path d="M347.415,276.415v 3.73534" fill="none" stroke="black"/>
<path d="M365.554,276.415v 3.73534" fill="none" stroke="black"/>
<path d="M383.693,276.415v 3.73534" fill="none" stroke="black"/>
<path d="M401.832,276.415v 3.73534" fill="none" stroke="black"/>
<path d="M419.971,272.68v 7.47068" fill="none" stroke="black"/>
<path d="M438.11,276.415v 3.73534" fill="none" stroke="black"/>
<path d="M456.249,276.415v 3.73534" fill="none" stroke="black"/>
<path d="M474.388,276.415v 3.73534" fill="none" stroke="black"/>
<path d="M492.527,276.415v 3.73534" fill="none" stroke="black"/>
<path d="M510.666,272.68v 7.47068" fill="none" stroke="black"/>
<path d="M510.666,272.68v 7.47068" fill="none" stroke="black"/>
<text xml:space="preserve" x="54.3523" y="290.27" fill="black" font-size="10.4952" font-family="Helvetica">0</text>
<text xml:space="preserve" x="139.569" y="290.27" fill="black" font-size="10.4952" font-family="Helvetica">500</text>
<text xml:space="preserve" x="227.449" y="290.27" fill="black" font-size="10.4952" font-family="Helvetica">1000</text>
<text xml:space="preserve" x="318.288" y="290.27" fill="black" font-size="10.4952" font-family="Helvetica">1500</text>
<text xml:space="preserve" x="408.831" y="290.27" fill="black" font-size="10.4952" font-family="Helvetica">2000</text>
<text xml:space="preserve" x="499.67" y="290.27" fill="black" font-size="10.4952" font-family="Helvetica">2500</text>
<text xml:space="preserve" x="265.323" y="301.218" fill="black" font-size="10.4952" font-family="Helvetica">Channel</text>
<path d="M57.1929,280.151v -249.023" fill="none" stroke="black"/>
<path d="M63.9961,280.151h -6.80315" fill="none" stroke="black"/>
<path d="M63.9961,277.365h -6.80315" fill="none" stroke="black"/>
<path d="M63.9961,275.009h -6.80315" fill="none" stroke="black"/>
<path d="M63.9961,272.969h -6.80315" fill="none" stroke="black"/>
<path d="M63.9961,271.169h -6.80315" fill="none" stroke="black"/>
<path d="M70.7992,269.559h -13.6063" fill="none" stroke="black"/>
<text xml:space="preserve" x="49.0263" y="273.404" fill="black" font-size="10.4952" font-family="Helvetica">1</text>
<path d="M63.9961,258.968h -6.80315" fill="none" stroke="black"/>
<path d="M63.9961,252.773h -6.80315" fill="none" stroke="black"/>
<path d="M63.9961,248.377h -6.80315" fill="none" stroke="black"/>
<path d="M63.9961,244.968h -6.80315" fill="none" stroke="black"/>
<path d="M63.9961,242.182h -6.80315" fill="none" stroke="black"/>
<path d="M63.9961,239.826h -6.80315" fill="none" stroke="black"/>
<path d="M63.9961,237.786h -6.80315" fill="none" stroke="black"/>
<path d="M63.9961,235.986h -6.80315" fill="none" stroke="black"/>
<path d="M70.7992,234.377h -13.6063" fill="none" stroke="black"/>
<text xml:space="preserve" x="41.629" y="238.193" fill="black" font-size="10.4952" font-family="Helvetica">10</text>
<path d="M63.9961,223.785h -6.80315" fill="none" stroke="black"/>
<path d="M63.9961,217.59h -6.80315" fill="none" stroke="black"/>
<path d="M63.9961,213.194h -6.80315" fill="none" stroke="black"/>
<path d="M63.9961,209.785h -6.80315" fill="none" stroke="black"/>
<path d="M63.9961,206.999h -6.80315" fill="none" stroke="black"/>
<path d="M63.9961,204.644h -6.80315" fill="none" stroke="black"/>
<path d="M63.9961,202.603h -6.80315" fill="none" stroke="black"/>
<path d="M63.9961,200.804h -6.80315" fill="none" stroke="black"/>
<path d="M70.7992,199.194h -13.6063" fill="none" stroke="black"/>
<text xml:space="preserve" x="49.0263" y="199.431" fill="black" font-size="7.16345" font-family="Helvetica">2</text>
<text xml:space="preserve" x="38.0783" y="203.87" fill="black" font-size="10.4952" font-family="Helvetica">10</text>
<path d="M63.9961,188.603h -6.80315" fill="none" stroke="black"/>
<path d="M63.9961,182.407h -6.80315" fill="none" stroke="black"/>
<path d="M63.9961,178.011h -6.80315" fill="none" stroke="black"/>
<path d="M63.9961,174.602h -6.80315" fill="none" stroke="black"/>
<path d="M63.9961,171.816h -6.80315" fill="none" stroke="black"/>
<path d="M63.9961,169.461h -6.80315" fill="none" stroke="black"/>
<path d="M63.9961,167.42h -6.80315" fill="none" stroke="black"/>
<path d="M63.9961,165.621h -6.80315" fill="none" stroke="black"/>
<path d="M70.7992,164.011h -13.6063" fill="none" stroke="black"/>
<text xml:space="preserve" x="49.0263" y="163.924" fill="black" font-size="7.16345" font-family="Helvetica">3</text>
<text xml:space="preserve" x="38.0783" y="168.658" fill="black" font-size="10.4952" font-family="Helvetica">10</text>
<path d="M63.9961,153.42h -6.80315" fill="none" stroke="black"/>
<path d="M63.9961,147.224h -6.80315" fill="none" stroke="black"/>
<path d="M63.9961,142.829h -6.80315" fill="none" stroke="black"/>
<path d="M63.9961,139.419h -6.80315" fill="none" stroke="black"/>
<path d="M63.9961,136.633h -6.80315" fill="none" stroke="black"/>
<path d="M63.9961,134.278h -6.80315" fill="none" stroke="black"/>
<path d="M63.9961,132.237h -6.80315" fill="none" stroke="black"/>
<path d="M63.9961,130.438h -6.80315" fill="none" stroke="black"/>
<path d="M70.7992,128.828h -13.6063" fill="none" stroke="black"/>
<text xml:space="preserve" x="49.0263" y="129.009" fill="black" font-size="7.16345" font-family="Helvetica">4</text>
<text xml:space="preserve" x="38.0783" y="133.447" fill="black" font-size="10.4952" font-family="Helvetica">10</text>
<path d="M63.9961,118.237h -6.80315" fill="none" stroke="black"/>
<path d="M63.9961,112.041h -6.80315" fill="none" stroke="black"/>
<path d="M63.9961,107.646h -6.80315" fill="none" stroke="black"/>
<path d="M63.9961,104.236h -6.80315" fill="none" stroke="black"/>
<path d="M63.9961,101.45h -6.80315" fill="none" stroke="black"/>
<path d="M63.9961,99.0949h -6.80315" fill="none" stroke="black"/>
<path d="M63.9961,97.0546h -6.80315" fill="none" stroke="black"/>
<path d="M63.9961,95.2549h -6.80315" fill="none" stroke="black"/>
<path d="M70.7992,93.645h -13.6063" fill="none" stroke="black"/>
<text xml:space="preserve" x="49.0263" y="93.5019" fill="black" font-size="7.16345" font-family="Helvetica">5</text>
<text xml:space="preserve" x="38.0783" y="98.2362" fill="black" font-size="10.4952" font-family="Helvetica">10</text>
<path d="M63.9961,83.0539h -6.80315" fill="none" stroke="black"/>
<path d="M63.9961,76.8585h -6.80315" fill="none" stroke="black"/>
<path d="M63.9961,72.4628h -6.80315" fill="none" stroke="black"/>
<path d="M63.9961,69.0533h -6.80315" fill="none" stroke="black"/>
<path d="M63.9961,66.2674h -6.80315" fill="none" stroke="black"/>
<path d="M63.9961,63.912h -6.80315" fill="none" stroke="black"/>
<path d="M63.9961,61.8717h -6.80315" fill="none" stroke="black"/>
<path d="M63.9961,60.072h -6.80315" fill="none" stroke="black"/>
<path d="M70.7992,58.4621h -13.6063" fill="none" stroke="black"/>
<text xml:space="preserve" x="49.0263" y="58.2907" fill="black" font-size="7.16345" font-family="Helvetica">6</text>
<text xml:space="preserve" x="38.0783" y="63.025" fill="black" font-size="10.4952" font-family="Helvetica">10</text>
<path d="M63.9961,47.871h -6.80315" fill="none" stroke="black"/>
<path d="M63.9961,41.6756h -6.80315" fill="none" stroke="black"/>
<path d="M63.9961,37.2799h -6.80315" fill="none" stroke="black"/>
<path d="M63.9961,33.8704h -6.80315" fill="none" stroke="black"/>
<g transform="rotate(-90,26.5385,191.442)">
<text xml:space="preserve" x="26.5385" y="191.442" fill="black" font-size="10.4952" font-family="Helvetica">Counts/Channel</text>
</g>
<text xml:space="preserve" x="404.097" y="58.2907" fill="black" font-size="14.7788" font-family="Helvetica" font-weight="bold"> = 2.4879 MeV</text>
<text xml:space="preserve" x="398.179" y="61.5455" fill="black" font-size="10.0192" font-family="Helvetica" font-weight="bold">p</text>
<text xml:space="preserve" x="389.006" y="58.2907" fill="black" font-size="14.7788" font-family="Helvetica" font-weight="bold">E</text>
<path d="M262.163,162.554v 26.4753" fill="none" stroke="black"/>
<path d="M264.454,189.03l -2.29122, 3.9685l -2.29122, -3.9685z" fill="black"/>
<path d="M264.454,189.03l -2.29122, 3.9685l -2.29122, -3.9685h 4.58243z" fill="none" stroke="black"/>
<text xml:space="preserve" x="266.803" y="160.373" fill="black" font-size="10.4952" font-family="Helvetica" font-weight="bold">_1 	1.369 MeV</text>
<text xml:space="preserve" x="260.293" y="160.373" fill="black" font-size="10.4952" font-family="Times">&#0945;</text>
<path d="M184.528,128.828v 31.2144" fill="none" stroke="black"/>
<path d="M186.819,160.042l -2.29122, 3.9685l -2.29122, -3.9685z" fill="black"/>
<path d="M186.819,160.042l -2.29122, 3.9685l -2.29122, -3.9685h 4.58243z" fill="none" stroke="black"/>
<text xml:space="preserve" x="172.117" y="125.754" fill="black" font-size="10.4952" font-family="Helvetica" font-weight="bold"># p_1 	0.844 MeV</text>
<path d="M210.104,147.224v 12.818" fill="none" stroke="black"/>
<path d="M212.395,160.042l -2.29122, 3.9685l -2.29122, -3.9685z" fill="black"/>
<path d="M212.395,160.042l -2.29122, 3.9685l -2.29122, -3.9685h 4.58243z" fill="none" stroke="black"/>
<text xml:space="preserve" x="197.564" y="142.62" fill="black" font-size="10.4952" font-family="Helvetica" font-weight="bold"># p_2 	1.015 MeV</text>
<path d="M497.472,269.559h 13.1937" fill="none" stroke="black"/>
<path d="M504.069,258.968h 6.59685" fill="none" stroke="black"/>
<path d="M504.069,252.773h 6.59685" fill="none" stroke="black"/>
<path d="M504.069,248.377h 6.59685" fill="none" stroke="black"/>
<path d="M504.069,244.968h 6.59685" fill="none" stroke="black"/>
<path d="M504.069,242.182h 6.59685" fill="none" stroke="black"/>
<path d="M504.069,239.826h 6.59685" fill="none" stroke="black"/>
<path d="M504.069,237.786h 6.59685" fill="none" stroke="black"/>
<path d="M504.069,235.986h 6.59685" fill="none" stroke="black"/>
<path d="M497.472,234.377h 13.1937" fill="none" stroke="black"/>
<path d="M504.069,223.785h 6.59685" fill="none" stroke="black"/>
<path d="M504.069,217.59h 6.59685" fill="none" stroke="black"/>
<path d="M504.069,213.194h 6.59685" fill="none" stroke="black"/>
<path d="M504.069,209.785h 6.59685" fill="none" stroke="black"/>
<path d="M504.069,206.999h 6.59685" fill="none" stroke="black"/>
<path d="M504.069,204.644h 6.59685" fill="none" stroke="black"/>
<path d="M504.069,202.603h 6.59685" fill="none" stroke="black"/>
<path d="M504.069,200.804h 6.59685" fill="none" stroke="black"/>
<path d="M497.472,199.194h 13.1937" fill="none" stroke="black"/>
<path d="M504.069,188.603h 6.59685" fill="none" stroke="black"/>
<path d="M504.069,182.407h 6.59685" fill="none" stroke="black"/>
<path d="M504.069,178.011h 6.59685" fill="none" stroke="black"/>
<path d="M504.069,174.602h 6.59685" fill="none" stroke="black"/>
<path d="M504.069,171.816h 6.59685" fill="none" stroke="black"/>
<path d="M504.069,169.461h 6.59685" fill="none" stroke="black"/>
<path d="M504.069,167.42h 6.59685" fill="none" stroke="black"/>
<path d="M504.069,165.621h 6.59685" fill="none" stroke="black"/>
<path d="M497.472,164.011h 13.1937" fill="none" stroke="black"/>
<path d="M504.069,153.42h 6.59685" fill="none" stroke="black"/>
<path d="M504.069,147.224h 6.59685" fill="none" stroke="black"/>
<path d="M504.069,142.829h 6.59685" fill="none" stroke="black"/>
<path d="M504.069,139.419h 6.59685" fill="none" stroke="black"/>
<path d="M504.069,136.633h 6.59685" fill="none" stroke="black"/>
<path d="M504.069,134.278h 6.59685" fill="none" stroke="black"/>
<path d="M504.069,132.237h 6.59685" fill="none" stroke="black"/>
<path d="M504.069,130.438h 6.59685" fill="none" stroke="black"/>
<path d="M497.472,128.828h 13.1937" fill="none" stroke="black"/>
<path d="M504.069,118.237h 6.59685" fill="none" stroke="black"/>
<path d="M504.069,112.041h 6.59685" fill="none" stroke="black"/>
<path d="M504.069,107.646h 6.59685" fill="none" stroke="black"/>
<path d="M504.069,104.236h 6.59685" fill="none" stroke="black"/>
<path d="M504.069,101.45h 6.59685" fill="none" stroke="black"/>
<path d="M504.069,99.0949h 6.59685" fill="none" stroke="black"/>
<path d="M504.069,97.0546h 6.59685" fill="none" stroke="black"/>
<path d="M504.069,95.2549h 6.59685" fill="none" stroke="black"/>
<path d="M497.472,93.645h 13.1937" fill="none" stroke="black"/>
<path d="M504.069,83.0539h 6.59685" fill="none" stroke="black"/>
<path d="M504.069,76.8585h 6.59685" fill="none" stroke="black"/>
<path d="M504.069,72.4628h 6.59685" fill="none" stroke="black"/>
<path d="M504.069,69.0533h 6.59685" fill="none" stroke="black"/>
<path d="M504.069,66.2674h 6.59685" fill="none" stroke="black"/>
<path d="M504.069,63.912h 6.59685" fill="none" stroke="black"/>
<path d="M504.069,61.8717h 6.59685" fill="none" stroke="black"/>
<path d="M504.069,60.072h 6.59685" fill="none" stroke="black"/>
<path d="M497.472,58.4621h 13.1937" fill="none" stroke="black"/>
<path d="M504.069,47.871h 6.59685" fill="none" stroke="black"/>
<path d="M504.069,41.6756h 6.59685" fill="none" stroke="black"/>
<path d="M504.069,37.2799h 6.59685" fill="none" stroke="black"/>
<path d="M504.069,33.8704h 6.59685" fill="none" stroke="black"/>
<path d="M504.069,31.0845h 6.59685" fill="none" stroke="black"/>
<path d="M504.069,28.7292h 6.59685" fill="none" stroke="black"/>
<path d="M57.1929,35.5575v -7.46952" fill="none" stroke="black"/>
<path d="M75.3318,35.5575v -7.46952" fill="none" stroke="black"/>
<path d="M93.4707,35.5575v -7.46952" fill="none" stroke="black"/>
<path d="M111.61,35.5575v -7.46952" fill="none" stroke="black"/>
<path d="M129.749,35.5575v -7.46952" fill="none" stroke="black"/>
<path d="M147.887,35.5575v -7.46952" fill="none" stroke="black"/>
<path d="M166.026,35.5575v -7.46952" fill="none" stroke="black"/>
<path d="M184.165,35.5575v -7.46952" fill="none" stroke="black"/>
<path d="M202.304,35.5575v -7.46952" fill="none" stroke="black"/>
<path d="M220.443,35.5575v -7.46952" fill="none" stroke="black"/>
<path d="M238.582,35.5575v -7.46952" fill="none" stroke="black"/>
<path d="M256.721,35.5575v -7.46952" fill="none" stroke="black"/>
<path d="M274.86,35.5575v -7.46952" fill="none" stroke="black"/>
<path d="M292.999,35.5575v -7.46952" fill="none" stroke="black"/>
<path d="M311.138,35.5575v -7.46952" fill="none" stroke="black"/>
<path d="M329.277,35.5575v -7.46952" fill="none" stroke="black"/>
<path d="M347.415,35.5575v -7.46952" fill="none" stroke="black"/>
<path d="M365.554,35.5575v -7.46952" fill="none" stroke="black"/>
<path d="M383.693,35.5575v -7.46952" fill="none" stroke="black"/>
<path d="M401.832,35.5575v -7.46952" fill="none" stroke="black"/>
<path d="M419.971,35.5575v -7.46952" fill="none" stroke="black"/>
<path d="M438.11,35.5575v -7.46952" fill="none" stroke="black"/>
<path d="M456.249,35.5575v -7.46952" fill="none" stroke="black"/>
<path d="M474.388,35.5575v -7.46952" fill="none" stroke="black"/>
<path d="M492.527,35.5575v -7.46952" fill="none" stroke="black"/>
<path d="M510.666,35.5575v -7.46952" fill="none" stroke="black"/></svg>
