<?xml version="1.0" standalone="no"?>
<svg width="567.429" height="311.778" viewBox="0 0 567.429 311.778" xmlns="http://www.w3.org/2000/svg" shape-rendering="crispEdges">
<title>
Yields/P1/run_0101/det7_Fit.svg
</title>
<desc>
Creator: ROOT Version 6.12/06
CreationDate: Mon Apr 15 10:29:02 2019</desc>
<defs>
</defs>
<rect x="0.5" y="0" width="566.929" height="311.278" fill="white"/>
<rect x="57.1929" y="31.1278" width="453.543" height="249.023" fill="white"/>
<rect x="57.1929" y="31.1278" width="453.543" height="249.023" fill="none" stroke="black"/>
<path d="M57.1929,40.8918h 0.181345v 239.259h 0.36269v -10.59h 0.181345v 10.59h 21.3987v -10.59h 0.181345v 10.59h 6.34707v -10.59h 0.181345v 10.59h 1.81345v -10.59h 0.36269v -10.59h 0.181345v -6.19476h 0.181345v 16.7848h 0.181345v -10.59h 0.181345v
 -22.9795h 0.181345v -13.6559h 0.181345v -13.1423h 0.181345v -13.0289h 0.181345v -7.39839h 0.181345v -6.19476h 0.181345v -3.23331h 0.181345v -3.61597h 0.181345v 0.265137h 0.181345v -2.03175h 0.181345v -2.33003h 0.181345v 0.826048h 0.181345v -0.97608h
 0.181345v -0.964242h 0.181345v -0.369279h 0.181345v -1.26844h 0.181345v 0.318086h 0.181345v -1.45032h 0.181345v 1.53627h 0.181345v -1.55575h 0.181345v 0.255133h 0.181345v -0.809373h 0.181345v -0.443949h 0.181345v 0.920537h 0.181345v -0.551481h
 0.181345v 0.570857h 0.181345v -1.12115h 0.181345v 0.217745h 0.181345v -0.626609h 0.181345v 0.517349h 0.181345v -0.743696h 0.181345v 1.03681h 0.181345v -0.147261h 0.181345v -0.733207h 0.181345v -0.980573h 0.181345v 0.998043h 0.181345v -0.328575h
 0.181345v -0.254501h 0.181345v 0.186218h 0.181345v 0.768435h 0.181345v -1.05528h 0.181345v -0.444787h 0.181345v 0.748672h 0.181345v 0.46747h 0.181345v -1.16736h 0.181345v 0.564079h 0.181345v 0.977019h 0.181345v -0.943181h 0.181345v -0.05073h
 0.181345v 1.48827h 0.36269v -0.51237h 0.181345v -0.214434h 0.181345v -0.281309h 0.181345v 1.19535h 0.181345v -1.69238h 0.181345v 0.707529h 0.181345v -0.90856h 0.181345v -1.48941h 0.181345v -1.76592h 0.181345v -2.61423h 0.181345v -2.513h 0.181345v
 -3.46872h 0.181345v -3.2583h 0.181345v -3.12934h 0.181345v -3.42032h 0.181345v -2.38794h 0.181345v -2.10078h 0.181345v -1.97913h 0.181345v -0.88486h 0.181345v -0.675132h 0.181345v 0.146135h 0.181345v 0.576418h 0.181345v 0.782089h 0.181345v 2.01946h
 0.181345v 2.4118h 0.181345v 2.75533h 0.181345v 3.99077h 0.181345v 3.11274h 0.181345v 4.37962h 0.181345v 4.29143h 0.181345v 5.35503h 0.181345v 3.74875h 0.181345v 0.860658h 0.181345v 4.02889h 0.181345v 0.389083h 0.181345v 1.19767h 0.181345v 2.91725h
 0.181345v -1.86551h 0.181345v 0.904297h 0.181345v 1.12077h 0.181345v -0.199197h 0.181345v -1.32608h 0.181345v 1.80858h 0.181345v -1.58928h 0.181345v 0.600693h 0.181345v 1.74218h 0.181345v -1.81857h 0.181345v 0.701672h 0.181345v 1.15988h 0.181345v
 -1.31861h 0.181345v 1.06255h 0.181345v -0.540508h 0.181345v -1.69932h 0.181345v 1.94642h 0.181345v 0.420913h 0.181345v -1.61825h 0.181345v -0.304053h 0.181345v 1.7104h 0.181345v -0.618634h 0.181345v -0.240606h 0.181345v 1.54795h 0.181345v 0.0883133h
 0.181345v -0.944457h 0.181345v 1.25764h 0.181345v -0.706631h 0.181345v -0.214284h 0.181345v 0.785907h 0.181345v -1.49278h 0.181345v 2.5117h 0.36269v 0.144362h 0.181345v 0.145739h 0.181345v 2.03314h 0.181345v -0.601365h 0.181345v -1.18575h 0.181345v
 1.45616h 0.181345v 0.109521h 0.181345v -2.84952h 0.181345v 1.73693h 0.181345v 0.948605h 0.181345v -1.25215h 0.181345v 1.63757h 0.181345v -1.33402h 0.181345v 1.11259h 0.181345v -0.958527h 0.181345v -0.507627h 0.181345v 0.201031h 0.181345v -0.100846h
 0.181345v 0.407442h 0.181345v 5.17168h 0.181345v -1.90374h 0.181345v -1.04982h 0.181345v -1.20453h 0.181345v -0.647934h 0.181345v 2.15382h 0.181345v -0.713507h 0.181345v 0.293256h 0.181345v 0.603959h 0.181345v -1.85417h 0.181345v 2.16535h 0.181345v
 -0.676408h 0.181345v -0.705271h 0.181345v -0.228037h 0.181345v 1.17582h 0.181345v -0.774498h 0.181345v -0.51408h 0.181345v 2.62907h 0.181345v -1.46223h 0.181345v -0.940492h 0.181345v 0.879984h 0.181345v 2.27483h 0.181345v -1.72144h 0.181345v
 0.704778h 0.181345v -1.07593h 0.181345v -0.716295h 0.181345v 3.82297h 0.181345v -2.03075h 0.181345v -1.37847h 0.181345v 1.91226h 0.181345v -1.36329h 0.181345v 2.63721h 0.181345v -3.94586h 0.181345v 1.06223h 0.181345v 0.0612352h 0.181345v 0.819232h
 0.181345v 0.797303h 0.181345v -2.96635h 0.181345v -0.442876h 0.36269v -1.10493h 0.181345v -0.982857h 0.181345v 1.0337h 0.181345v -2.22362h 0.181345v -0.391212h 0.181345v 0.479525h 0.181345v 0.403852h 0.181345v -1.38988h 0.181345v -0.0828087h
 0.181345v -0.123378h 0.181345v 2.43728h 0.181345v -0.565923h 0.181345v 1.97412h 0.181345v -0.0525927h 0.181345v 0.643386h 0.181345v 0.388214h 0.181345v 1.28858h 0.181345v 0.184447h 0.181345v -0.06173h 0.181345v 1.62341h 0.181345v 0.137642h 0.181345v
 -0.068976h 0.36269v 0.138265h 0.181345v 2.89706h 0.181345v -2.33114h 0.181345v -0.356151h 0.181345v 0.647172h 0.181345v 0.447198h 0.181345v 1.17885h 0.181345v 0.582889h 0.181345v -2.64342h 0.181345v 2.30762h 0.181345v -2.01934h 0.181345v 0.593401h
 0.181345v 0.696341h 0.181345v 0.319973h 0.181345v 2.44974h 0.181345v -0.374943h 0.181345v -2.47373h 0.181345v -0.990951h 0.181345v 1.96648h 0.181345v -2.96635h 0.181345v 3.22028h 0.181345v -1.46392h 0.181345v -1.04891h 0.181345v 2.51284h 0.181345v
 -1.15051h 0.181345v 1.58335h 0.181345v -1.74086h 0.181345v 1.91749h 0.181345v -1.60083h 0.181345v -1.08072h 0.181345v 0.530809h 0.181345v -0.898975h 0.181345v 2.1026h 0.181345v -2.95161h 0.181345v -0.068666h 0.181345v 0.558169h 0.181345v -0.351238h
 0.181345v 0.783667h 0.181345v -2.67549h 0.181345v 2.8224h 0.181345v -3.36488h 0.181345v -0.580989h 0.181345v 3.01529h 0.181345v -2.66935h 0.181345v 1.66164h 0.181345v -1.24789h 0.181345v 1.51018h 0.181345v 1.02577h 0.181345v 0.285581h 0.181345v
 0.587694h 0.181345v -1.83276h 0.181345v 1.83276h 0.181345v -0.587694h 0.181345v 1.1989h 0.181345v 2.63043h 0.181345v -2.0748h 0.181345v 0.326818h 0.181345v -0.8043h 0.181345v 0.640017h 0.181345v 1.45616h 0.181345v 0.363783h 0.181345v -1.65566h
 0.181345v -1.26731h 0.181345v 2.64933h 0.181345v -1.70884h 0.181345v 0.83054h 0.181345v 0.968969h 0.181345v 1.13223h 0.181345v -1.75592h 0.181345v -2.63934h 0.181345v 2.29405h 0.36269v -0.749488h 0.181345v -0.161675h 0.181345v 0.407442h 0.181345v
 -0.8043h 0.181345v 1.39361h 0.36269v -0.671676h 0.181345v -0.955196h 0.181345v 0.549916h 0.181345v 2.99494h 0.181345v -2.58966h 0.181345v 5.47283h 0.181345v -3.07656h 0.181345v -1.11163h 0.181345v -0.0890858h 0.181345v 0.268831h 0.181345v -0.3574h
 0.181345v -0.94181h 0.181345v 2.23109h 0.181345v -0.285581h 0.36269v -0.555631h 0.181345v -1.22291h 0.181345v 0.0841774h 0.181345v -0.167894h 0.181345v 0.423245h 0.181345v 0.259692h 0.181345v -1.09477h 0.181345v 0.328575h 0.181345v -0.887108h
 0.181345v -0.689357h 0.181345v 1.99738h 0.181345v 0.609466h 0.181345v -3.55069h 0.181345v 2.60357h 0.181345v -1.58465h 0.181345v 1.2543h 0.181345v 0.247092h 0.181345v 1.57286h 0.181345v -1.73803h 0.181345v 2.49266h 0.181345v -2.57458h 0.181345v
 0.330352h 0.181345v 1.21595h 0.181345v -1.5463h 0.181345v -0.640017h 0.181345v 0.0785512h 0.181345v -0.617384h 0.181345v 1.26077h 0.181345v -2.28457h 0.181345v 1.56263h 0.181345v 1.05408h 0.181345v 0.0841774h 0.181345v -1.67709h 0.181345v -0.810117h
 0.181345v 2.9152h 0.181345v 0.98603h 0.181345v -0.723362h 0.181345v -1.51226h 0.181345v 2.23562h 0.181345v -1.24426h 0.181345v 0.345284h 0.181345v -0.173617h 0.181345v 2.42724h 0.181345v -3.26691h 0.181345v 1.81995h 0.181345v -0.980277h 0.181345v
 -0.592579h 0.181345v 2.04011h 0.181345v -0.740905h 0.181345v 1.61976h 0.181345v -1.88859h 0.181345v 3.25456h 0.181345v -3.69236h 0.181345v 0.797303h 0.181345v -0.180809h 0.181345v 0.926233h 0.181345v -1.1935h 0.181345v 0.539285h 0.181345v -1.80967h
 0.181345v 1.71846h 0.181345v -0.536131h 0.181345v -0.347246h 0.181345v 2.21275h 0.181345v 1.02577h 0.181345v -0.210737h 0.181345v 0.210737h 0.181345v -0.623685h 0.181345v 0.205079h 0.181345v -2.11734h 0.181345v 1.41129h 0.181345v 1.77489h 0.181345v
 2.26316h 0.181345v -1.35076h 0.181345v -1.66836h 0.181345v 1.3198h 0.181345v -0.228037h 0.181345v -0.335797h 0.181345v -1.97076h 0.181345v 2.08188h 0.181345v 0.801286h 0.181345v -2.88316h 0.181345v 3.12004h 0.181345v 1.24281h 0.181345v -2.05629h
 0.181345v 0.933308h 0.181345v 0.365232h 0.181345v -2.90826h 0.181345v 1.60972h 0.181345v -2.0118h 0.181345v 1.89904h 0.181345v 0.689357h 0.181345v -0.46301h 0.181345v 1.9427h 0.181345v -0.880467h 0.181345v -2.26759h 0.181345v 3.40922h 0.181345v
 -0.770491h 0.181345v -1.20363h 0.181345v 3.06588h 0.181345v -5.81279h 0.181345v 3.33687h 0.181345v 0.613663h 0.181345v -1.08744h 0.181345v 0.594556h 0.181345v 0.244456h 0.181345v -2.28457h 0.181345v 2.16185h 0.181345v 1.14164h 0.181345v 0.811421h
 0.181345v -0.411097h 0.181345v -2.37444h 0.181345v 4.2417h 0.181345v -0.745424h 0.181345v -3.26302h 0.181345v 0.117979h 0.181345v 1.75516h 0.181345v -0.132279h 0.181345v -1.62288h 0.181345v -1.25021h 0.181345v 3.27342h 0.181345v -3.38216h 0.181345v
 1.96291h 0.181345v -1.52322h 0.181345v 3.91949h 0.181345v -1.76745h 0.181345v -0.994052h 0.181345v 1.64987h 0.181345v -0.265714h 0.181345v 0.673156h 0.181345v 1.44241h 0.181345v -1.84985h 0.181345v 2.94721h 0.181345v -2.12117h 0.181345v -1.73651h
 0.181345v -0.125747h 0.181345v 2.29265h 0.181345v -0.571213h 0.181345v 1.31664h 0.181345v 2.3043h 0.181345v -4.03575h 0.181345v 2.6768h 0.181345v -2.53977h 0.181345v -1.56837h 0.181345v 1.98697h 0.181345v 1.64118h 0.181345v -1.3556h 0.181345v
 -1.76745h 0.181345v 0.926233h 0.181345v 1.57943h 0.181345v -3.61955h 0.181345v -1.36911h 0.181345v 3.40922h 0.181345v 1.13223h 0.181345v -1.79951h 0.181345v 1.22291h 0.181345v -0.959483h 0.181345v 0.818669h 0.181345v -0.414817h 0.181345v -0.135807h
 0.181345v 1.26804h 0.181345v -1.40265h 0.181345v 2.15542h 0.181345v -0.898975h 0.181345v -0.144818h 0.181345v -2.14783h 0.181345v 2.00438h 0.181345v -2.49726h 0.181345v 2.21433h 0.181345v -1.59569h 0.181345v 2.60978h 0.181345v -4.16891h 0.181345v
 0.699886h 0.181345v -1.25959h 0.181345v 1.25959h 0.181345v -0.118897h 0.181345v -0.807336h 0.181345v -1.69932h 0.181345v -1.7099h 0.181345v 0.926233h 0.181345v 2.59575h 0.181345v -3.52198h 0.181345v -0.0896083h 0.181345v 0.36163h 0.181345v
 -0.714898h 0.181345v -0.259692h 0.181345v 0.97459h 0.181345v -0.801954h 0.181345v 0.174609h 0.181345v -0.93656h 0.181345v -1.64271h 0.181345v 0.299581h 0.181345v 3.65704h 0.181345v -0.749999h 0.181345v -1.97135h 0.181345v 1.43206h 0.181345v
 -2.13915h 0.181345v 0.547103h 0.181345v 1.7697h 0.181345v 0.826048h 0.181345v -0.0940198h 0.181345v 2.54376h 0.181345v -3.00537h 0.181345v 0.650233h 0.181345v -2.28721h 0.36269v 2.57458h 0.181345v -1.90657h 0.181345v 1.5246h 0.181345v 1.3809h
 0.181345v -3.73604h 0.181345v -0.710741h 0.181345v -1.18725h 0.36269v -0.901015h 0.181345v -0.266874h 0.181345v -3.04783h 0.181345v -0.945343h 0.181345v -2.48554h 0.181345v -0.426792h 0.181345v -0.85924h 0.181345v -2.14914h 0.181345v -1.82254h
 0.181345v 0.247425h 0.181345v -1.1989h 0.181345v -1.9715h 0.181345v 0.0507581h 0.181345v -1.68326h 0.181345v -0.382255h 0.181345v -0.652083h 0.181345v 0.149682h 0.36269v 0.325773h 0.181345v -0.707747h 0.181345v 1.56554h 0.181345v -0.115657h
 0.181345v 0.396858h 0.181345v 1.02708h 0.181345v 2.14163h 0.181345v 0.806659h 0.181345v 1.54848h 0.181345v 0.412949h 0.181345v 3.91455h 0.181345v 0.411097h 0.181345v 1.71295h 0.181345v 3.15244h 0.181345v 2.18632h 0.181345v -0.856944h 0.181345v
 2.56491h 0.181345v -0.564429h 0.181345v 2.58109h 0.181345v 1.16833h 0.181345v 2.17076h 0.181345v -0.795326h 0.181345v 1.63434h 0.181345v 0.75775h 0.181345v 0.797303h 0.181345v -0.135807h 0.181345v 0.833561h 0.181345v 1.0337h 0.181345v -0.152023h
 0.181345v -0.593401h 0.181345v 3.96485h 0.181345v -3.67104h 0.181345v -0.582096h 0.181345v -0.56073h 0.181345v 2.05979h 0.181345v -0.617384h 0.181345v -1.16461h 0.181345v -0.685234h 0.181345v 2.78554h 0.181345v -1.38289h 0.181345v 1.38289h 0.181345v
 -0.93569h 0.181345v 1.42594h 0.181345v -0.965258h 0.181345v -0.760265h 0.181345v 0.149056h 0.181345v 2.96635h 0.181345v -1.38988h 0.181345v 0.679141h 0.181345v -0.512165h 0.181345v -0.657227h 0.181345v -3.05125h 0.181345v 1.81598h 0.181345v
 -0.582096h 0.181345v 4.44292h 0.181345v -3.71177h 0.181345v 1.57647h 0.181345v -0.490251h 0.181345v -3.31242h 0.181345v 3.80268h 0.181345v 0.166976h 0.36269v -0.495551h 0.181345v 0.495551h 0.181345v -0.975533h 0.181345v 1.4877h 0.181345v -0.512165h
 0.181345v 2.35514h 0.181345v -2.85069h 0.181345v 1.35895h 0.181345v 0.178694h 0.181345v -0.178694h 0.181345v 0.727669h 0.181345v 0.961208h 0.181345v -1.32937h 0.181345v 1.32937h 0.181345v -2.88443h 0.181345v 1.01892h 0.181345v 0.176628h 0.181345v
 1.88859h 0.181345v -3.24755h 0.181345v 6.35817h 0.181345v -4.08408h 0.181345v -1.26637h 0.36269v 3.06588h 0.181345v -0.418606h 0.181345v -2.47266h 0.181345v 3.5415h 0.181345v -2.63721h 0.181345v 4.02709h 0.181345v -3.83962h 0.181345v -3.06588h
 0.181345v 4.65465h 0.181345v 0.641136h 0.181345v -4.17542h 0.181345v 3.53428h 0.181345v -0.412949h 0.181345v -0.98603h 0.181345v -0.377258h 0.181345v -1.75805h 0.181345v 1.20907h 0.181345v -0.873276h 0.181345v 0.873276h 0.181345v 0.363783h 0.181345v
 2.8224h 0.181345v -3.88875h 0.181345v 0.172636h 0.181345v 0.351238h 0.181345v 1.10493h 0.181345v 1.60972h 0.181345v -3.74502h 0.181345v 1.03038h 0.181345v -0.863403h 0.36269v -0.975533h 0.181345v 0.479982h 0.181345v -1.83558h 0.181345v 0.738219h
 0.181345v 0.775708h 0.181345v -2.49095h 0.181345v -0.790426h 0.181345v -1.69932h 0.181345v -3.29392h 0.181345v -0.184077h 0.181345v -1.4811h 0.181345v -3.07343h 0.36269v -3.98231h 0.181345v -0.361936h 0.181345v -0.747857h 0.181345v -0.851635h
 0.181345v -1.73803h 0.181345v -2.90826h 0.181345v -0.0677525h 0.181345v -1.01347h 0.181345v -1.6192h 0.181345v -0.964677h 0.181345v -0.369438h 0.181345v -0.910889h 0.181345v -0.316027h 0.181345v 0.120777h 0.181345v 1.05408h 0.181345v -0.932345h
 0.181345v 0.496895h 0.181345v 0.777023h 0.181345v 0.56843h 0.181345v 0.909006h 0.181345v 0.627344h 0.181345v -0.917261h 0.181345v 1.86066h 0.181345v 1.86045h 0.181345v 0.597755h 0.181345v 2.61128h 0.181345v 2.55228h 0.181345v 0.599221h 0.181345v
 0.798295h 0.181345v 5.09392h 0.181345v -0.162535h 0.181345v 4.04892h 0.181345v 0.645652h 0.181345v 3.2997h 0.181345v -1.43134h 0.181345v 4.10814h 0.181345v 3.04783h 0.181345v -0.773743h 0.181345v 4.58505h 0.181345v 3.40922h 0.181345v -3.91019h
 0.181345v 2.11068h 0.181345v 5.36871h 0.181345v -6.19476h 0.181345v 7.45121h 0.181345v -5.75189h 0.181345v -1.96504h 0.181345v 8.6159h 0.181345v -6.94753h 0.181345v 6.94753h 0.181345v -1.74798h 0.181345v -0.407442h 0.181345v -1.88859h 0.181345v
 -1.03038h 0.36269v 0.679141h 0.181345v 5.85142h 0.181345v -6.85914h 0.181345v -0.636682h 0.181345v 5.58355h 0.181345v -3.58792h 0.181345v 6.55427h 0.181345v -3.83962h 0.181345v -3.40922h 0.181345v 2.58318h 0.181345v 1.69932h 0.181345v -4.94687h
 0.181345v 2.85069h 0.181345v 2.55228h 0.181345v -4.04402h 0.181345v 1.88859h 0.181345v 1.25645h 0.181345v -0.849005h 0.181345v -1.93653h 0.181345v 4.15465h 0.181345v -7.41767h 0.181345v 4.39525h 0.181345v -4.97186h 0.181345v 6.62516h 0.181345v
 -1.65331h 0.36269v -2.18632h 0.181345v 6.19476h 0.181345v -6.53056h 0.181345v 4.6183h 0.181345v -5.89222h 0.181345v 8.32243h 0.181345v -3.7221h 0.36269v -2.64727h 0.181345v -0.343344h 0.181345v -1.60972h 0.181345v -0.302548h 0.181345v 2.96635h
 0.181345v -4.39525h 0.36269v 2.04011h 0.181345v 6.50979h 0.181345v -1.36911h 0.181345v -5.14068h 0.181345v 0.636682h 0.181345v -0.321657h 0.181345v 0.650233h 0.181345v -4.56043h 0.181345v 4.23185h 0.181345v 4.0736h 0.181345v -2.35514h 0.181345v
 0.368166h 0.181345v -3.92221h 0.181345v 0.890242h 0.181345v 3.40922h 0.181345v -2.13531h 0.181345v -2.16416h 0.181345v 3.55404h 0.181345v -2.35514h 0.36269v -1.76482h 0.181345v 5.64906h 0.181345v -3.24755h 0.181345v -0.945343h 0.181345v -0.599221h
 0.181345v 5.61816h 0.181345v -2.35514h 0.181345v 0.745424h 0.181345v -1.79951h 0.181345v 8.38108h 0.181345v -8.71688h 0.544034v 2.52212h 0.181345v 3.02241h 0.181345v -3.40922h 0.181345v -2.78554h 0.181345v 2.40828h 0.181345v -1.42225h 0.181345v
 -1.60972h 0.181345v -0.599221h 0.181345v 4.79211h 0.181345v -4.49544h 0.181345v 6.19476h 0.181345v -1.69932h 0.181345v 0.826048h 0.181345v -5.90918h 0.181345v 1.1989h 0.181345v 1.30106h 0.181345v 1.42225h 0.181345v 3.78648h 0.181345v -3.78648h
 0.181345v -3.63119h 0.181345v -0.576603h 0.181345v 2.78554h 0.181345v 7.24885h 0.181345v 2.35514h 0.181345v -4.39525h 0.181345v -1.79951h 0.181345v -0.826048h 0.36269v 1.69932h 0.181345v -4.6183h 0.181345v 6.53056h 0.181345v -0.500968h 0.181345v
 -1.41129h 0.181345v 2.43022h 0.181345v -4.5264h 0.181345v -4.09858h 0.181345v 5.75189h 0.181345v -2.04011h 0.181345v -2.46388h 0.181345v 6.85914h 0.181345v -6.19476h 0.181345v 0.343344h 0.181345v 1.45616h 0.181345v 2.48299h 0.181345v 2.96635h
 0.181345v -5.8266h 0.181345v 1.98697h 0.181345v 2.28457h 0.181345v -3.89429h 0.181345v 2.04011h 0.181345v 1.36911h 0.181345v -3.78648h 0.181345v 5.8266h 0.181345v -4.25823h 0.36269v 4.25823h 0.181345v -5.8266h 0.181345v -0.727669h 0.181345v 1.88859h
 0.181345v 0.407442h 0.181345v 3.20414h 0.181345v -3.61159h 0.181345v 4.12954h 0.181345v 3.5415h 0.181345v -5.97172h 0.181345v -2.09618h 0.36269v 4.00844h 0.181345v -0.98603h 0.181345v -0.926233h 0.181345v 5.32149h 0.181345v -5.76436h 0.181345v
 4.54146h 0.181345v -3.17235h 0.181345v 4.39525h 0.181345v -3.40922h 0.181345v -4.77251h 0.181345v 12.577h 0.181345v -12.577h 0.181345v 4.27154h 0.181345v 2.68729h 0.181345v -1.13223h 0.36269v 4.39525h 0.181345v -2.04011h 0.181345v 2.04011h 0.181345v
 3.22842h 0.181345v -7.62367h 0.36269v 3.00537h 0.181345v -1.27392h 0.181345v 8.85856h 0.181345v -8.23488h 0.181345v 0.650233h 0.181345v -0.650233h 0.544034v 7.18079h 0.181345v -7.18079h 0.181345v 2.78554h 0.181345v -4.58505h 0.181345v 6.19476h
 0.181345v -5.01894h 0.181345v 1.95306h 0.181345v -1.32937h 0.181345v 2.04011h 0.181345v -2.6638h 0.181345v -1.17582h 0.181345v 11.1666h 0.181345v -4.97186h 0.181345v -5.61816h 0.181345v 16.2082h 0.181345v -13.6559h 0.181345v 10.59h 0.181345v
 -2.55228h 0.181345v 5.61816h 0.181345v -12.9452h 0.181345v 2.35514h 0.181345v 3.83962h 0.181345v -1.05408h 0.181345v -0.98603h 0.36269v 10.59h 0.181345v -9.60399h 0.36269v -0.98603h 0.181345v 4.39525h 0.181345v -6.19476h 0.181345v 2.78554h 0.181345v
 -3.61159h 0.181345v 0.826048h 0.36269v 33.5696h 0.181345v -33.5696h 0.181345v -1.60972h 0.181345v 4.39525h 0.181345v 1.05408h 0.181345v 3.68451h 0.181345v -2.55228h 0.36269v 7.41767h 0.181345v -8.5499h 0.181345v 1.13223h 0.181345v 5.61816h 0.181345v
 1.79951h 0.181345v -3.40922h 0.181345v -6.19476h 0.181345v 3.40922h 0.181345v -2.35514h 0.181345v 2.35514h 0.181345v -4.39525h 0.181345v 7.18079h 0.181345v -7.18079h 0.181345v 8.79051h 0.181345v -6.75039h 0.181345v -2.04011h 0.181345v 2.04011h
 0.181345v 1.13223h 0.544034v 4.00844h 0.181345v 1.60972h 0.181345v -10.59h 0.181345v 2.78554h 0.181345v 1.05408h 0.181345v -4.66567h 0.36269v -1.52909h 0.181345v -3.26302h 0.181345v 1.22291h 0.181345v 0.650233h 0.181345v 0.679141h 0.181345v
 -3.68451h 0.181345v -1.05408h 0.181345v 6.97843h 0.181345v -3.56921h 0.181345v 2.78554h 0.181345v -7.18079h 0.181345v 2.59575h 0.181345v 2.44974h 0.36269v 1.38988h 0.181345v -4.93139h 0.181345v 0.536131h 0.181345v 0.555631h 0.36269v 0.576603h
 0.181345v 1.87314h 0.181345v -3.5415h 0.181345v 6.46048h 0.36269v 2.62556h 0.181345v 2.04011h 0.181345v -3.83962h 0.181345v -3.74502h 0.181345v 1.38988h 0.181345v 9.87928h 0.181345v -3.68451h 0.181345v -2.96635h 0.181345v 6.65086h 0.181345v
 -3.68451h 0.181345v -6.9055h 0.544034v -2.55228h 0.181345v 0.599221h 0.181345v 9.9908h 0.181345v -8.03774h 0.181345v -0.679141h 0.181345v 7.58464h 0.181345v -8.23488h 0.36269v -2.35514h 0.181345v -5.06253h 0.181345v 3.02241h 0.181345v -6.81845h
 0.181345v -2.52876h 0.181345v 6.32479h 0.181345v -4.68628h 0.181345v -1.11163h 0.181345v -2.46958h 0.181345v -2.12539h 0.181345v -1.1464h 0.181345v -1.57286h 0.181345v 4.17542h 0.181345v -3.49628h 0.181345v -3.68451h 0.181345v 1.27985h 0.181345v
 1.07529h 0.181345v -4.15465h 0.181345v -0.359503h 0.181345v 1.23278h 0.181345v -3.43488h 0.181345v 2.2021h 0.181345v -1.78634h 0.181345v 3.14805h 0.181345v -5.48813h 0.181345v 2.44581h 0.181345v -1.41753h 0.181345v 0.896045h 0.181345v -0.603164h
 0.181345v -0.580253h 0.181345v 0.0951914h 0.181345v -2.05205h 0.181345v 1.95685h 0.181345v -1.70432h 0.181345v 0.517954h 0.181345v 0.627344h 0.181345v -0.627344h 0.181345v -1.66231h 0.181345v -0.388778h 0.181345v 2.40641h 0.181345v -3.58792h
 0.181345v -1.42383h 0.181345v 0.393451h 0.181345v 2.05911h 0.181345v -1.09962h 0.181345v -0.070569h 0.181345v -0.416703h 0.181345v -0.338776h 0.181345v -1.09869h 0.181345v 1.85417h 0.181345v -0.348037h 0.181345v -0.607159h 0.181345v 2.98526h
 0.181345v -2.65093h 0.181345v 2.41158h 0.181345v 1.32218h 0.181345v 0.4378h 0.181345v -0.694582h 0.181345v 2.08869h 0.181345v 2.30656h 0.181345v -0.224683h 0.181345v -0.972084h 0.181345v 2.25085h 0.181345v 4.31463h 0.181345v -1.52909h 0.181345v
 0.745424h 0.181345v 1.44089h 0.181345v 3.79173h 0.181345v 1.11569h 0.181345v 1.97412h 0.181345v -0.770491h 0.181345v 3.03808h 0.181345v 3.40922h 0.181345v 1.60972h 0.181345v 3.83962h 0.181345v 1.13223h 0.181345v 0.599221h 0.181345v 1.27392h
 0.181345v 4.6183h 0.181345v -4.6183h 0.181345v 3.74502h 0.181345v 16.7848h 0.181345v -7.80448h 0.181345v 24.5893h 0.181345v -28.5977h 0.181345v 9.45778h 0.181345v 2.35514h 0.36269v -2.35514h 0.181345v 5.14068h 0.181345v -2.78554h 0.181345v -2.35514h
 0.181345v -2.04011h 0.181345v 10.59h 0.181345v -3.40922h 0.181345v 3.40922h 0.181345v 31.7701h 0.181345v -35.1793h 0.181345v -2.78554h 0.181345v -2.35514h 0.181345v 12.9452h 0.181345v 27.3748h 0.181345v -35.1793h 0.181345v 13.9992h 0.181345v 10.59h
 0.36269v -27.3748h 0.181345v 27.3748h 0.181345v -27.3748h 0.181345v 16.7848h 0.181345v -22.9795h 0.181345v 6.19476h 0.181345v 2.78554h 0.36269v 7.80448h 0.181345v -7.80448h 0.181345v 3.40922h 0.181345v 4.39525h 0.181345v 6.19476h 0.181345v -6.19476h
 0.181345v -10.59h 0.181345v 10.59h 0.36269v 16.7848h 0.181345v 10.59h 0.181345v -35.1793h 0.36269v -2.78554h 0.36269v 2.78554h 0.181345v 3.40922h 0.181345v 4.39525h 0.36269v -7.80448h 0.181345v -2.78554h 0.181345v 10.59h 0.181345v -7.80448h
 0.181345v 35.1793h 0.181345v -27.3748h 0.181345v 6.19476h 0.36269v -13.9992h 0.544034v 13.9992h 0.36269v -13.9992h 0.36269v 7.80448h 0.181345v -4.39525h 0.181345v -3.40922h 0.181345v -2.78554h 0.181345v 10.59h 0.181345v -7.80448h 0.181345v 7.80448h
 0.181345v -10.59h 0.181345v -2.35514h 0.181345v -2.04011h 0.181345v 4.39525h 0.36269v -4.39525h 0.181345v 4.39525h 0.181345v -2.35514h 0.181345v 8.5499h 0.181345v -12.3895h 0.181345v 1.79951h 0.181345v -3.40922h 0.181345v -6.19476h 0.181345v
 7.80448h 0.36269v -9.71674h 0.181345v 8.10703h 0.181345v -5.14068h 0.181345v 6.75039h 0.181345v -5.61816h 0.181345v -4.97186h 0.181345v -3.06588h 0.181345v 5.85142h 0.181345v 3.40922h 0.181345v 1.32937h 0.181345v -5.72463h 0.181345v -6.81845h
 0.181345v 9.9908h 0.181345v -5.7979h 0.36269v 9.80635h 0.181345v -12.0462h 0.181345v 9.26064h 0.181345v -1.22291h 0.181345v 1.22291h 0.181345v -9.26064h 0.181345v 8.03774h 0.181345v -4.09858h 0.181345v 8.10703h 0.181345v -7.18079h 0.181345v
 -0.926233h 0.181345v 6.65086h 0.181345v 4.86539h 0.36269v -3.40922h 0.181345v 5.44934h 0.181345v -6.9055h 0.181345v 6.9055h 0.181345v 5.14068h 0.181345v -12.0462h 0.181345v 3.06588h 0.181345v -1.60972h 0.181345v 3.40922h 0.181345v 2.04011h 0.181345v
 2.35514h 0.181345v 2.78554h 0.181345v 24.5893h 0.181345v -24.5893h 0.181345v 7.80448h 0.181345v 16.7848h 0.181345v -21.18h 0.181345v -6.19476h 0.181345v 2.78554h 0.181345v 3.40922h 0.181345v 4.39525h 0.181345v 6.19476h 0.181345v -6.19476h 0.181345v
 -7.80448h 0.181345v 7.80448h 0.36269v 27.3748h 0.181345v -35.1793h 0.181345v -2.78554h 0.181345v 6.19476h 0.181345v 10.59h 0.544034v -6.19476h 0.544034v 6.19476h 0.181345v -6.19476h 0.36269v 16.7848h 0.181345v -10.59h 0.181345v 10.59h 0.181345v
 -10.59h 0.181345v -10.59h 0.181345v -6.19476h 0.181345v 16.7848h 0.181345v -6.19476h 0.181345v -4.39525h 0.181345v 21.18h 0.181345v -16.7848h 0.181345v 6.19476h 0.181345v -10.59h 0.181345v 10.59h 0.181345v -16.7848h 0.181345v 6.19476h 0.181345v
 4.39525h 0.181345v 16.7848h 0.181345v -24.5893h 0.181345v 7.80448h 0.36269v 16.7848h 0.181345v -10.59h 0.181345v -6.19476h 0.181345v 6.19476h 0.181345v -22.9795h 0.181345v 12.3895h 0.181345v -3.40922h 0.181345v 3.40922h 0.181345v 4.39525h 0.181345v
 -7.80448h 0.181345v 7.80448h 0.36269v -4.39525h 0.181345v 21.18h 0.181345v -21.18h 0.181345v 10.59h 0.181345v -19.1399h 0.181345v -3.83962h 0.181345v 1.79951h 0.181345v 7.18079h 0.181345v 3.40922h 0.181345v 4.39525h 0.181345v -4.39525h 0.181345v
 -13.9992h 0.181345v 10.59h 0.181345v -7.18079h 0.181345v 2.04011h 0.36269v -5.44934h 0.181345v 18.3945h 0.181345v -12.9452h 0.181345v 2.35514h 0.181345v -11.8129h 0.181345v 14.5985h 0.181345v -7.18079h 0.36269v -1.79951h 0.36269v 16.7848h 0.181345v
 -21.18h 0.181345v 16.7848h 0.181345v -8.5499h 0.181345v -3.83962h 0.181345v 16.7848h 0.181345v -10.59h 0.181345v 2.78554h 0.181345v -5.14068h 0.181345v -3.83962h 0.181345v -1.60972h 0.181345v 5.44934h 0.181345v 2.35514h 0.181345v -6.19476h 0.181345v
 12.3895h 0.181345v -6.19476h 0.725379v -2.35514h 0.36269v 12.9452h 0.36269v -4.39525h 0.181345v 10.59h 0.181345v -10.59h 0.181345v -10.59h 0.181345v 14.9853h 0.181345v -10.59h 0.181345v 6.19476h 0.181345v -8.5499h 0.181345v 5.14068h 0.181345v
 3.40922h 0.181345v 4.39525h 0.181345v -4.39525h 0.181345v -8.5499h 0.181345v 12.9452h 0.181345v -4.39525h 0.181345v 10.59h 0.36269v -6.19476h 0.181345v -7.80448h 0.181345v 7.80448h 0.181345v -10.59h 0.181345v 6.19476h 0.181345v -8.5499h 0.181345v
 5.14068h 0.725379v 7.80448h 0.181345v -14.9853h 0.181345v 14.9853h 0.181345v -7.80448h 0.181345v -5.14068h 0.181345v -6.9055h 0.181345v 6.9055h 0.181345v -2.04011h 0.181345v 14.9853h 0.181345v -12.9452h 0.181345v -2.04011h 0.181345v 21.18h 0.181345v
 -6.19476h 0.181345v -4.39525h 0.181345v -12.3895h 0.181345v 16.7848h 0.181345v -7.80448h 0.181345v -8.9803h 0.181345v 8.9803h 0.181345v -5.14068h 0.181345v 2.35514h 0.181345v 2.78554h 0.181345v -2.78554h 0.181345v 6.19476h 0.181345v -10.59h
 0.181345v 4.39525h 0.36269v -14.9853h 0.181345v 17.7708h 0.181345v 3.40922h 0.181345v -12.3895h 0.181345v 3.83962h 0.181345v -2.04011h 0.36269v 10.59h 0.181345v -10.59h 0.181345v 10.59h 0.181345v -13.9992h 0.181345v 5.44934h 0.181345v -3.83962h
 0.181345v 1.79951h 0.181345v 4.39525h 0.181345v -2.35514h 0.181345v -6.9055h 0.36269v 4.86539h 0.181345v 4.39525h 0.181345v -9.26064h 0.181345v 4.86539h 0.181345v -6.19476h 0.181345v 1.32937h 0.181345v 3.06588h 0.36269v -1.60972h 0.181345v -5.14068h
 0.181345v 8.5499h 0.181345v -4.86539h 0.181345v -2.55228h 0.181345v 2.55228h 0.181345v 6.9055h 0.181345v -8.23488h 0.181345v 8.23488h 0.181345v -3.83962h 0.181345v -7.80448h 0.181345v -3.61159h 0.36269v 7.02081h 0.181345v 1.32937h 0.181345v 1.45616h
 0.181345v 1.60972h 0.36269v -3.06588h 0.181345v 9.26064h 0.181345v -9.26064h 0.181345v -4.7386h 0.181345v 1.05408h 0.181345v 8.5499h 0.181345v -9.60399h 0.181345v 6.19476h 0.181345v -2.78554h 0.181345v 4.39525h 0.181345v -3.06588h 0.181345v
 -2.55228h 0.181345v -2.18632h 0.181345v 6.19476h 0.36269v -4.00844h 0.181345v 4.00844h 0.181345v 3.40922h 0.181345v -13.9992h 0.181345v 9.13385h 0.181345v -1.32937h 0.181345v 2.78554h 0.181345v -6.19476h 0.181345v 9.60399h 0.181345v 4.39525h
 0.181345v -11.8129h 0.181345v 4.00844h 0.181345v -5.14068h 0.181345v 8.5499h 0.181345v -7.41767h 0.181345v 5.61816h 0.181345v -4.39525h 0.181345v -9.26064h 0.181345v 12.0462h 0.181345v -2.78554h 0.181345v 8.23488h 0.181345v -6.9055h 0.181345v
 -2.55228h 0.181345v 2.55228h 0.181345v -1.32937h 0.181345v 2.78554h 0.181345v -6.19476h 0.181345v 6.19476h 0.181345v -4.00844h 0.181345v 2.55228h 0.181345v -4.7386h 0.36269v -1.91226h 0.181345v 15.9115h 0.181345v -13.9992h 0.181345v -1.91226h
 0.181345v 4.09858h 0.36269v 1.22291h 0.181345v -4.39525h 0.181345v -1.79951h 0.181345v 8.9803h 0.181345v -7.18079h 0.181345v 2.04011h 0.181345v -5.44934h 0.181345v 0.783667h 0.181345v -1.52909h 0.181345v -0.710741h 0.181345v 4.86539h 0.181345v
 -6.19476h 0.181345v 8.23488h 0.181345v 3.68451h 0.181345v -4.7386h 0.181345v -6.53056h 0.181345v 1.38988h 0.181345v -2.04011h 0.181345v 7.18079h 0.181345v -5.14068h 0.181345v 0.745424h 0.181345v 0.783667h 0.181345v 9.80635h 0.181345v -9.80635h
 0.181345v -5.36871h 0.181345v 1.79951h 0.181345v -0.623685h 0.181345v 5.01894h 0.181345v -1.60972h 0.36269v 2.48299h 0.181345v -6.49144h 0.181345v 6.49144h 0.181345v -0.873276h 0.181345v -7.28652h 0.181345v 5.67681h 0.181345v -6.19476h 0.181345v
 2.78554h 0.36269v 1.27392h 0.181345v 2.91897h 0.181345v -1.52909h 0.181345v 2.35514h 0.36269v -0.826048h 0.181345v -2.23983h 0.181345v 13.6559h 0.181345v -13.6559h 0.181345v 3.93916h 0.181345v -0.873276h 0.181345v 0.873276h 0.181345v 0.926233h
 0.181345v -1.79951h 0.181345v 3.83962h 0.181345v -1.05408h 0.181345v 2.18632h 0.181345v -4.09858h 0.36269v 6.65086h 0.181345v -6.65086h 0.181345v 4.09858h 0.181345v 4.00844h 0.181345v -1.45616h 0.181345v -4.7386h 0.36269v 7.80448h 0.181345v
 -8.79051h 0.36269v 7.18079h 0.181345v -6.19476h 0.181345v 1.05408h 0.181345v 1.13223h 0.181345v -3.17235h 0.181345v 5.72463h 0.181345v 4.86539h 0.181345v -7.41767h 0.181345v 7.41767h 0.181345v -1.79951h 0.181345v -5.61816h 0.181345v -5.7979h
 0.181345v 17.6108h 0.181345v -4.39525h 0.181345v -1.79951h 0.181345v -11.4161h 0.36269v 7.02081h 0.36269v -3.40922h 0.36269v 6.19476h 0.181345v -13.3756h 0.181345v 9.36711h 0.181345v 4.00844h 0.36269v -1.45616h 0.181345v 1.45616h 0.181345v -6.19476h
 0.36269v 4.7386h 0.181345v 9.26064h 0.181345v -14.9853h 0.181345v -2.62556h 0.181345v 8.35019h 0.181345v -3.68451h 0.181345v 3.68451h 0.181345v -3.68451h 0.181345v 3.68451h 0.181345v 6.9055h 0.181345v -8.23488h 0.181345v -5.32149h 0.181345v 15.9115h
 0.181345v -10.59h 0.181345v 2.78554h 0.181345v -8.10703h 0.181345v -0.873276h 0.181345v 7.52414h 0.181345v 3.06588h 0.181345v -7.80448h 0.181345v 3.40922h 0.181345v 1.32937h 0.181345v -1.32937h 0.181345v -4.39525h 0.181345v 4.39525h 0.181345v
 -3.40922h 0.181345v 3.40922h 0.181345v 6.19476h 0.181345v -4.86539h 0.181345v 4.86539h 0.181345v -8.5499h 0.181345v -2.96635h 0.181345v 6.65086h 0.181345v 3.06588h 0.181345v -11.4161h 0.181345v 3.61159h 0.181345v 9.60399h 0.181345v -1.79951h
 0.181345v -11.4161h 0.181345v 9.80635h 0.181345v -11.3354h 0.181345v 21.9255h 0.181345v -13.3756h 0.181345v -1.22291h 0.181345v 2.55228h 0.181345v 3.06588h 0.181345v -4.39525h 0.36269v 1.32937h 0.181345v -10.59h 0.181345v 12.0462h 0.181345v
 -8.10703h 0.181345v 4.09858h 0.181345v 1.22291h 0.181345v 2.78554h 0.181345v -1.45616h 0.181345v -3.68451h 0.181345v -2.96635h 0.181345v -3.22842h 0.181345v 11.3354h 0.36269v -8.10703h 0.181345v 4.09858h 0.181345v -2.18632h 0.181345v 1.05408h
 0.181345v -1.05408h 0.181345v -0.98603h 0.181345v 12.6301h 0.181345v -11.6441h 0.181345v -0.98603h 0.544034v 0.98603h 0.181345v -5.14068h 0.181345v 14.7447h 0.181345v -10.59h 0.181345v -3.40922h 0.181345v 6.58157h 0.181345v -4.09858h 0.181345v
 5.32149h 0.181345v -7.02081h 0.181345v 8.35019h 0.181345v -3.68451h 0.181345v 3.68451h 0.181345v 1.45616h 0.181345v -5.14068h 0.181345v 6.75039h 0.181345v -9.71674h 0.181345v 4.09858h 0.36269v -3.17235h 0.181345v 3.17235h 0.181345v -4.09858h
 0.181345v 5.32149h 0.181345v -7.80448h 0.181345v 1.60972h 0.181345v -0.826048h 0.181345v 8.35019h 0.181345v -3.68451h 0.181345v 1.13223h 0.181345v -6.58157h 0.181345v 1.60972h 0.181345v 2.78554h 0.181345v 4.7386h 0.181345v 1.45616h 0.181345v
 -8.10703h 0.181345v -3.93916h 0.181345v 8.03774h 0.181345v -5.7979h 0.181345v 0.826048h 0.181345v 0.873276h 0.181345v 0.926233h 0.181345v 3.17235h 0.36269v -4.97186h 0.181345v 2.78554h 0.181345v 1.05408h 0.181345v 1.13223h 0.181345v 2.55228h
 0.181345v -8.35019h 0.181345v -6.97843h 0.181345v 4.7386h 0.181345v 3.93916h 0.181345v 1.91226h 0.181345v -5.85142h 0.181345v 8.03774h 0.181345v -6.58157h 0.181345v 2.48299h 0.181345v 0.926233h 0.181345v -1.79951h 0.181345v 0.873276h 0.181345v
 1.91226h 0.181345v -2.78554h 0.181345v -1.60972h 0.181345v 0.783667h 0.181345v 0.826048h 0.181345v 0.873276h 0.181345v 2.96635h 0.181345v -1.05408h 0.36269v -2.78554h 0.181345v -0.826048h 0.181345v 5.7979h 0.181345v -6.58157h 0.181345v 4.39525h
 0.181345v -1.91226h 0.181345v -0.873276h 0.181345v 0.873276h 0.181345v 6.65086h 0.181345v -9.13385h 0.181345v 3.40922h 0.181345v 3.17235h 0.36269v 2.55228h 0.181345v -4.7386h 0.181345v 6.19476h 0.36269v -5.14068h 0.36269v 3.68451h 0.181345v
 -5.72463h 0.181345v 4.39525h 0.181345v -3.40922h 0.181345v 1.05408h 0.181345v -6.19476h 0.181345v 3.22842h 0.181345v 6.65086h 0.181345v -5.72463h 0.181345v 8.79051h 0.36269v -6.75039h 0.181345v 3.68451h 0.181345v -2.55228h 0.181345v 7.41767h
 0.181345v -1.79951h 0.181345v -1.60972h 0.181345v -5.14068h 0.181345v 3.68451h 0.181345v 19.8507h 0.181345v -10.59h 0.181345v -11.8129h 0.181345v -7.327h 0.181345v 11.3354h 0.181345v -11.3354h 0.181345v 9.87928h 0.181345v -1.32937h 0.181345v
 -9.26064h 0.181345v 10.59h 0.181345v 6.9055h 0.181345v -5.44934h 0.181345v 1.60972h 0.36269v -10.59h 0.181345v -0.826048h 0.181345v 1.69932h 0.181345v 6.65086h 0.181345v -1.32937h 0.181345v -3.40922h 0.181345v 3.40922h 0.181345v -4.39525h 0.36269v
 -0.926233h 0.181345v 9.71674h 0.181345v -7.80448h 0.181345v 2.18632h 0.181345v 5.61816h 0.181345v -6.75039h 0.181345v 2.35514h 0.181345v -5.32149h 0.181345v 0.926233h 0.181345v -1.79951h 0.181345v 10.59h 0.181345v -4.39525h 0.36269v 6.19476h
 0.181345v -9.60399h 0.181345v 9.60399h 0.181345v -15.4554h 0.181345v 5.85142h 0.181345v 3.40922h 0.181345v -3.40922h 0.181345v 2.18632h 0.181345v 9.45778h 0.181345v -5.44934h 0.181345v 1.60972h 0.181345v 1.79951h 0.36269v -9.60399h 0.181345v
 6.19476h 0.181345v 5.44934h 0.181345v 5.14068h 0.181345v -5.14068h 0.181345v -10.59h 0.181345v 29.7299h 0.181345v -21.18h 0.181345v -3.40922h 0.181345v 18.3945h 0.181345v -10.59h 0.181345v -7.80448h 0.181345v 10.59h 0.36269v 3.40922h 0.181345v
 -8.5499h 0.181345v 5.14068h 0.181345v -8.9803h 0.181345v 3.83962h 0.181345v -2.04011h 0.181345v -1.79951h 0.36269v 6.19476h 0.181345v -2.35514h 0.36269v -2.04011h 0.181345v 21.18h 0.181345v -16.7848h 0.181345v -6.19476h 0.181345v 1.79951h 0.181345v
 10.59h 0.181345v -3.40922h 0.544034v -8.9803h 0.181345v 6.19476h 0.181345v -6.19476h 0.36269v -1.60972h 0.181345v 13.9992h 0.181345v -3.40922h 0.544034v -5.14068h 0.181345v -2.04011h 0.36269v 4.39525h 0.181345v -4.39525h 0.181345v 14.9853h 0.181345v
 -14.9853h 0.181345v 4.39525h 0.181345v -6.19476h 0.181345v -3.06588h 0.181345v 3.06588h 0.181345v 6.19476h 0.181345v -11.8129h 0.181345v 7.41767h 0.181345v -8.5499h 0.181345v 10.59h 0.181345v -2.04011h 0.544034v 14.9853h 0.181345v -7.80448h
 0.181345v -15.7307h 0.181345v 23.5352h 0.181345v -19.8507h 0.181345v 6.9055h 0.181345v 8.5499h 0.181345v -10.59h 0.181345v 4.39525h 0.181345v -9.26064h 0.181345v 9.26064h 0.181345v -6.19476h 0.181345v -5.61816h 0.181345v 11.8129h 0.181345v -7.80448h
 0.181345v 5.44934h 0.181345v 2.35514h 0.181345v 2.78554h 0.181345v 13.9992h 0.181345v -28.5977h 0.181345v 18.0077h 0.181345v -12.3895h 0.36269v 12.3895h 0.181345v -6.19476h 0.181345v -4.39525h 0.36269v 2.04011h 0.181345v 12.9452h 0.181345v -16.7848h
 0.181345v -1.60972h 0.181345v -5.14068h 0.181345v 5.14068h 0.181345v 3.40922h 0.181345v 14.9853h 0.181345v -16.7848h 0.181345v 3.83962h 0.181345v 19.1399h 0.181345v -26.0454h 0.181345v 9.26064h 0.181345v -4.39525h 0.181345v 2.04011h 0.181345v
 5.14068h 0.181345v -5.14068h 0.181345v -5.44934h 0.181345v 5.44934h 0.181345v -2.04011h 0.181345v -3.40922h 0.36269v 1.60972h 0.181345v 6.19476h 0.181345v -4.39525h 0.181345v 4.39525h 0.181345v 10.59h 0.181345v -7.80448h 0.181345v -2.78554h
 0.181345v -10.59h 0.181345v 4.39525h 0.181345v 1.79951h 0.181345v -1.79951h 0.181345v 3.83962h 0.36269v -2.04011h 0.181345v -3.40922h 0.36269v 3.40922h 0.181345v 4.39525h 0.181345v -6.19476h 0.181345v -6.75039h 0.181345v 12.9452h 0.181345v -9.26064h
 0.181345v 9.26064h 0.181345v -7.80448h 0.181345v -1.45616h 0.181345v 6.9055h 0.181345v -5.44934h 0.181345v 1.60972h 0.181345v 16.7848h 0.181345v -26.5015h 0.181345v 5.32149h 0.181345v 27.3748h 0.181345v -24.5893h 0.181345v -2.78554h 0.181345v
 16.7848h 0.181345v -8.5499h 0.544034v -5.44934h 0.181345v -4.00844h 0.181345v 11.8129h 0.181345v -7.80448h 0.181345v 1.60972h 0.36269v -9.71674h 0.181345v 0.926233h 0.181345v 5.72463h 0.36269v 3.06588h 0.181345v -1.60972h 0.181345v -2.78554h
 0.181345v 1.32937h 0.181345v -2.55228h 0.181345v -1.13223h 0.181345v -2.04011h 0.181345v 8.79051h 0.181345v -5.61816h 0.181345v 4.00844h 0.181345v -2.78554h 0.181345v -3.40922h 0.181345v -1.91226h 0.544034v 0.926233h 0.181345v 0.98603h 0.181345v
 -0.98603h 0.181345v -0.926233h 0.181345v 0.926233h 0.181345v -1.79951h 0.181345v 7.52414h 0.181345v -5.72463h 0.181345v 4.39525h 0.181345v -8.5499h 0.181345v 3.22842h 0.181345v 0.926233h 0.181345v 4.39525h 0.181345v -9.93978h 0.181345v 5.54453h
 0.181345v -2.62556h 0.181345v 8.35019h 0.181345v -6.65086h 0.181345v 2.96635h 0.181345v 2.35514h 0.181345v -3.40922h 0.181345v 9.60399h 0.181345v -3.40922h 0.181345v -5.14068h 0.181345v 12.9452h 0.181345v -13.9992h 0.181345v 6.19476h 0.36269v
 -1.45616h 0.181345v 1.45616h 0.36269v 10.59h 0.181345v -5.14068h 0.181345v -6.9055h 0.181345v 9.26064h 0.181345v -6.19476h 0.181345v 6.19476h 0.181345v -13.9992h 0.181345v 13.9992h 0.181345v -6.19476h 0.181345v 3.83962h 0.36269v 8.5499h 0.36269v
 -12.3895h 0.181345v 1.79951h 0.181345v 21.18h 0.181345v -13.9992h 0.544034v 13.9992h 0.36269v 10.59h 0.181345v -10.59h 0.181345v -6.19476h 0.36269v -4.39525h 0.181345v 4.39525h 0.181345v -4.39525h 0.181345v -6.19476h 0.181345v 37.9648h 0.181345v
 -31.7701h 0.181345v 4.39525h 0.181345v 27.3748h 0.181345v -10.59h 0.181345v 10.59h 0.181345v -10.59h 0.181345v -16.7848h 0.36269v 16.7848h 0.181345v -21.18h 0.181345v 4.39525h 0.181345v 27.3748h 0.181345v -27.3748h 0.36269v 6.19476h 0.36269v 21.18h
 0.181345v -27.3748h 0.181345v 27.3748h 0.36269v -10.59h 0.181345v 10.59h 0.181345v -10.59h 0.181345v 10.59h 0.181345v -10.59h 0.181345v 10.59h 0.181345v -10.59h 0.36269v -10.59h 0.181345v 10.59h 0.181345v 10.59h 0.181345v -10.59h 0.181345v 10.59h
 0.36269v -31.7701h 0.181345v 10.59h 0.181345v 21.18h 0.181345v -10.59h 0.36269v -10.59h 0.181345v 10.59h 0.181345v 10.59h 0.36269v -10.59h 0.181345v -16.7848h 0.181345v 27.3748h 0.181345v -10.59h 0.181345v 10.59h 0.181345v -10.59h 0.181345v 10.59h
 0.544034v -10.59h 0.181345v 10.59h 0.181345v -10.59h 0.181345v 10.59h 0.181345v -27.3748h 0.181345v 6.19476h 0.181345v 10.59h 0.181345v 10.59h 0.181345v -10.59h 0.36269v -10.59h 0.181345v 21.18h 0.181345v -21.18h 0.36269v 21.18h 0.544034v -21.18h
 0.181345v 21.18h 0.181345v -21.18h 0.181345v 21.18h 0.181345v -10.59h 0.181345v 10.59h 0.544034v -21.18h 0.181345v 21.18h 0.906724v -10.59h 0.181345v 10.59h 0.181345v -21.18h 0.36269v 21.18h 0.544034v -10.59h 0.181345v -10.59h 0.181345v 21.18h
 0.181345v -21.18h 0.181345v 21.18h 0.181345v -21.18h 0.181345v 21.18h 0.181345v -31.7701h 0.181345v 21.18h 0.36269v 10.59h 0.181345v -31.7701h 0.181345v 10.59h 0.36269v 21.18h 0.181345v -10.59h 0.544034v -16.7848h 0.181345v 27.3748h 0.36269v -10.59h
 0.181345v 10.59h 0.181345v -10.59h 0.181345v 10.59h 0.181345v -10.59h 0.36269v -10.59h 0.181345v 10.59h 0.181345v -10.59h 0.181345v 21.18h 0.181345v -10.59h 0.181345v 10.59h 0.181345v -10.59h 0.544034v 10.59h 0.36269v -10.59h 0.36269v -10.59h
 0.181345v -6.19476h 0.181345v 6.19476h 0.181345v 21.18h 0.36269v -10.59h 0.36269v 10.59h 0.181345v -10.59h 0.181345v 10.59h 0.181345v -10.59h 0.544034v 10.59h 0.181345v -10.59h 0.181345v 10.59h 0.181345v -10.59h 0.181345v 10.59h 0.181345v -10.59h
 0.181345v 10.59h 0.181345v -27.3748h 0.181345v 27.3748h 0.181345v -21.18h 0.181345v 21.18h 1.6321v -21.18h 0.181345v 10.59h 0.181345v 10.59h 0.36269v -10.59h 0.181345v 10.59h 0.181345v -21.18h 0.181345v 21.18h 0.36269v -21.18h 0.181345v 21.18h
 0.36269v -10.59h 0.181345v 10.59h 0.725379v -21.18h 0.181345v 10.59h 0.181345v -10.59h 0.181345v 21.18h 0.181345v -10.59h 0.36269v 10.59h 0.181345v -10.59h 0.181345v -10.59h 0.181345v 10.59h 0.181345v 10.59h 0.36269v -10.59h 0.181345v 10.59h
 0.181345v -21.18h 0.181345v 10.59h 0.181345v 10.59h 0.906724v -10.59h 0.36269v 10.59h 0.544034v -10.59h 0.544034v 10.59h 0.36269v -10.59h 0.181345v 10.59h 0.544034v -10.59h 0.181345v 10.59h 0.36269v -21.18h 0.36269v 21.18h 0.181345v -10.59h
 0.181345v 10.59h 0.181345v -10.59h 0.181345v -10.59h 0.181345v 21.18h 0.725379v -21.18h 0.181345v 21.18h 0.181345v -10.59h 0.181345v 10.59h 0.36269v -21.18h 0.181345v 21.18h 0.181345v -21.18h 0.36269v 21.18h 0.544034v -10.59h 0.181345v 10.59h
 0.544034v -21.18h 0.181345v -10.59h 0.181345v 21.18h 0.181345v -10.59h 0.181345v 10.59h 0.36269v 10.59h 0.181345v -31.7701h 0.181345v 31.7701h 0.181345v -10.59h 0.181345v 10.59h 0.36269v -10.59h 0.181345v -16.7848h 0.181345v 27.3748h 0.36269v
 -10.59h 0.725379v 10.59h 0.181345v -21.18h 0.181345v 21.18h 0.544034v -21.18h 0.181345v 21.18h 0.181345v -10.59h 0.36269v 10.59h 0.181345v -10.59h 0.181345v 10.59h 0.36269v -10.59h 0.725379v 10.59h 0.181345v -21.18h 0.181345v 21.18h 0.36269v -10.59h
 0.181345v 10.59h 0.36269v -10.59h 0.181345v -10.59h 0.181345v 21.18h 0.544034v -10.59h 0.36269v 10.59h 0.36269v -10.59h 0.181345v 10.59h 0.181345" fill="none" stroke="black"/>
<path d="M57.1929,280.151h 453.543" fill="none" stroke="black"/>
<path d="M57.1929,272.68v 7.47068" fill="none" stroke="black"/>
<path d="M75.3318,276.415v 3.73534" fill="none" stroke="black"/>
<path d="M93.4707,276.415v 3.73534" fill="none" stroke="black"/>
<path d="M111.61,276.415v 3.73534" fill="none" stroke="black"/>
<path d="M129.749,276.415v 3.73534" fill="none" stroke="black"/>
<path d="M147.887,272.68v 7.47068" fill="none" stroke="black"/>
<path d="M166.026,276.415v 3.73534" fill="none" stroke="black"/>
<path d="M184.165,276.415v 3.73534" fill="none" stroke="black"/>
<path d="M202.304,276.415v 3.73534" fill="none" stroke="black"/>
<path d="M220.443,276.415v 3.73534" fill="none" stroke="black"/>
<path d="M238.582,272.68v 7.47068" fill="none" stroke="black"/>
<path d="M256.721,276.415v 3.73534" fill="none" stroke="black"/>
<path d="M274.86,276.415v 3.73534" fill="none" stroke="black"/>
<path d="M292.999,276.415v 3.73534" fill="none" stroke="black"/>
<path d="M311.138,276.415v 3.73534" fill="none" stroke="black"/>
<path d="M329.277,272.68v 7.47068" fill="none" stroke="black"/>
<path d="M347.415,276.415v 3.73534" fill="none" stroke="black"/>
<path d="M365.554,276.415v 3.73534" fill="none" stroke="black"/>
<path d="M383.693,276.415v 3.73534" fill="none" stroke="black"/>
<path d="M401.832,276.415v 3.73534" fill="none" stroke="black"/>
<path d="M419.971,272.68v 7.47068" fill="none" stroke="black"/>
<path d="M438.11,276.415v 3.73534" fill="none" stroke="black"/>
<path d="M456.249,276.415v 3.73534" fill="none" stroke="black"/>
<path d="M474.388,276.415v 3.73534" fill="none" stroke="black"/>
<path d="M492.527,276.415v 3.73534" fill="none" stroke="black"/>
<path d="M510.666,272.68v 7.47068" fill="none" stroke="black"/>
<path d="M510.666,272.68v 7.47068" fill="none" stroke="black"/>
<text xml:space="preserve" x="54.3523" y="290.27" fill="black" font-size="10.4952" font-family="Helvetica">0</text>
<text xml:space="preserve" x="139.569" y="290.27" fill="black" font-size="10.4952" font-family="Helvetica">500</text>
<text xml:space="preserve" x="227.449" y="290.27" fill="black" font-size="10.4952" font-family="Helvetica">1000</text>
<text xml:space="preserve" x="318.288" y="290.27" fill="black" font-size="10.4952" font-family="Helvetica">1500</text>
<text xml:space="preserve" x="408.831" y="290.27" fill="black" font-size="10.4952" font-family="Helvetica">2000</text>
<text xml:space="preserve" x="499.67" y="290.27" fill="black" font-size="10.4952" font-family="Helvetica">2500</text>
<text xml:space="preserve" x="265.323" y="301.218" fill="black" font-size="10.4952" font-family="Helvetica">Channel</text>
<path d="M57.1929,280.151v -249.023" fill="none" stroke="black"/>
<path d="M63.9961,280.151h -6.80315" fill="none" stroke="black"/>
<path d="M63.9961,277.365h -6.80315" fill="none" stroke="black"/>
<path d="M63.9961,275.01h -6.80315" fill="none" stroke="black"/>
<path d="M63.9961,272.97h -6.80315" fill="none" stroke="black"/>
<path d="M63.9961,271.17h -6.80315" fill="none" stroke="black"/>
<path d="M70.7992,269.561h -13.6063" fill="none" stroke="black"/>
<text xml:space="preserve" x="49.0263" y="273.404" fill="black" font-size="10.4952" font-family="Helvetica">1</text>
<path d="M63.9961,258.97h -6.80315" fill="none" stroke="black"/>
<path d="M63.9961,252.776h -6.80315" fill="none" stroke="black"/>
<path d="M63.9961,248.38h -6.80315" fill="none" stroke="black"/>
<path d="M63.9961,244.971h -6.80315" fill="none" stroke="black"/>
<path d="M63.9961,242.186h -6.80315" fill="none" stroke="black"/>
<path d="M63.9961,239.831h -6.80315" fill="none" stroke="black"/>
<path d="M63.9961,237.79h -6.80315" fill="none" stroke="black"/>
<path d="M63.9961,235.991h -6.80315" fill="none" stroke="black"/>
<path d="M70.7992,234.381h -13.6063" fill="none" stroke="black"/>
<text xml:space="preserve" x="41.629" y="238.193" fill="black" font-size="10.4952" font-family="Helvetica">10</text>
<path d="M63.9961,223.791h -6.80315" fill="none" stroke="black"/>
<path d="M63.9961,217.596h -6.80315" fill="none" stroke="black"/>
<path d="M63.9961,213.201h -6.80315" fill="none" stroke="black"/>
<path d="M63.9961,209.792h -6.80315" fill="none" stroke="black"/>
<path d="M63.9961,207.006h -6.80315" fill="none" stroke="black"/>
<path d="M63.9961,204.651h -6.80315" fill="none" stroke="black"/>
<path d="M63.9961,202.611h -6.80315" fill="none" stroke="black"/>
<path d="M63.9961,200.812h -6.80315" fill="none" stroke="black"/>
<path d="M70.7992,199.202h -13.6063" fill="none" stroke="black"/>
<text xml:space="preserve" x="49.0263" y="199.431" fill="black" font-size="7.16345" font-family="Helvetica">2</text>
<text xml:space="preserve" x="38.0783" y="203.87" fill="black" font-size="10.4952" font-family="Helvetica">10</text>
<path d="M63.9961,188.612h -6.80315" fill="none" stroke="black"/>
<path d="M63.9961,182.417h -6.80315" fill="none" stroke="black"/>
<path d="M63.9961,178.022h -6.80315" fill="none" stroke="black"/>
<path d="M63.9961,174.613h -6.80315" fill="none" stroke="black"/>
<path d="M63.9961,171.827h -6.80315" fill="none" stroke="black"/>
<path d="M63.9961,169.472h -6.80315" fill="none" stroke="black"/>
<path d="M63.9961,167.432h -6.80315" fill="none" stroke="black"/>
<path d="M63.9961,165.632h -6.80315" fill="none" stroke="black"/>
<path d="M70.7992,164.023h -13.6063" fill="none" stroke="black"/>
<text xml:space="preserve" x="49.0263" y="163.924" fill="black" font-size="7.16345" font-family="Helvetica">3</text>
<text xml:space="preserve" x="38.0783" y="168.658" fill="black" font-size="10.4952" font-family="Helvetica">10</text>
<path d="M63.9961,153.433h -6.80315" fill="none" stroke="black"/>
<path d="M63.9961,147.238h -6.80315" fill="none" stroke="black"/>
<path d="M63.9961,142.843h -6.80315" fill="none" stroke="black"/>
<path d="M63.9961,139.433h -6.80315" fill="none" stroke="black"/>
<path d="M63.9961,136.648h -6.80315" fill="none" stroke="black"/>
<path d="M63.9961,134.293h -6.80315" fill="none" stroke="black"/>
<path d="M63.9961,132.253h -6.80315" fill="none" stroke="black"/>
<path d="M63.9961,130.453h -6.80315" fill="none" stroke="black"/>
<path d="M70.7992,128.843h -13.6063" fill="none" stroke="black"/>
<text xml:space="preserve" x="49.0263" y="129.009" fill="black" font-size="7.16345" font-family="Helvetica">4</text>
<text xml:space="preserve" x="38.0783" y="133.447" fill="black" font-size="10.4952" font-family="Helvetica">10</text>
<path d="M63.9961,118.253h -6.80315" fill="none" stroke="black"/>
<path d="M63.9961,112.059h -6.80315" fill="none" stroke="black"/>
<path d="M63.9961,107.663h -6.80315" fill="none" stroke="black"/>
<path d="M63.9961,104.254h -6.80315" fill="none" stroke="black"/>
<path d="M63.9961,101.469h -6.80315" fill="none" stroke="black"/>
<path d="M63.9961,99.1135h -6.80315" fill="none" stroke="black"/>
<path d="M63.9961,97.0734h -6.80315" fill="none" stroke="black"/>
<path d="M63.9961,95.2739h -6.80315" fill="none" stroke="black"/>
<path d="M70.7992,93.6642h -13.6063" fill="none" stroke="black"/>
<text xml:space="preserve" x="49.0263" y="93.5019" fill="black" font-size="7.16345" font-family="Helvetica">5</text>
<text xml:space="preserve" x="38.0783" y="98.2362" fill="black" font-size="10.4952" font-family="Helvetica">10</text>
<path d="M63.9961,83.0742h -6.80315" fill="none" stroke="black"/>
<path d="M63.9961,76.8794h -6.80315" fill="none" stroke="black"/>
<path d="M63.9961,72.4841h -6.80315" fill="none" stroke="black"/>
<path d="M63.9961,69.0749h -6.80315" fill="none" stroke="black"/>
<path d="M63.9961,66.2894h -6.80315" fill="none" stroke="black"/>
<path d="M63.9961,63.9342h -6.80315" fill="none" stroke="black"/>
<path d="M63.9961,61.8941h -6.80315" fill="none" stroke="black"/>
<path d="M63.9961,60.0946h -6.80315" fill="none" stroke="black"/>
<path d="M70.7992,58.4849h -13.6063" fill="none" stroke="black"/>
<text xml:space="preserve" x="49.0263" y="58.2907" fill="black" font-size="7.16345" font-family="Helvetica">6</text>
<text xml:space="preserve" x="38.0783" y="63.025" fill="black" font-size="10.4952" font-family="Helvetica">10</text>
<path d="M63.9961,47.8949h -6.80315" fill="none" stroke="black"/>
<path d="M63.9961,41.7001h -6.80315" fill="none" stroke="black"/>
<path d="M63.9961,37.3049h -6.80315" fill="none" stroke="black"/>
<path d="M63.9961,33.8956h -6.80315" fill="none" stroke="black"/>
<g transform="rotate(-90,26.5385,191.442)">
<text xml:space="preserve" x="26.5385" y="191.442" fill="black" font-size="10.4952" font-family="Helvetica">Counts/Channel</text>
</g>
<text xml:space="preserve" x="404.097" y="58.2907" fill="black" font-size="14.7788" font-family="Helvetica" font-weight="bold"> = 2.4879 MeV</text>
<text xml:space="preserve" x="398.179" y="61.5455" fill="black" font-size="10.0192" font-family="Helvetica" font-weight="bold">p</text>
<text xml:space="preserve" x="389.006" y="58.2907" fill="black" font-size="14.7788" font-family="Helvetica" font-weight="bold">E</text>
<path d="M262.163,162.567v 26.4722" fill="none" stroke="black"/>
<path d="M264.454,189.039l -2.29122, 3.9685l -2.29122, -3.9685z" fill="black"/>
<path d="M264.454,189.039l -2.29122, 3.9685l -2.29122, -3.9685h 4.58243z" fill="none" stroke="black"/>
<text xml:space="preserve" x="266.803" y="160.373" fill="black" font-size="10.4952" font-family="Helvetica" font-weight="bold">_1 	1.369 MeV</text>
<text xml:space="preserve" x="260.293" y="160.373" fill="black" font-size="10.4952" font-family="Times">&#0945;</text>
<path d="M184.528,128.843v 31.2108" fill="none" stroke="black"/>
<path d="M186.819,160.054l -2.29122, 3.9685l -2.29122, -3.9685z" fill="black"/>
<path d="M186.819,160.054l -2.29122, 3.9685l -2.29122, -3.9685h 4.58243z" fill="none" stroke="black"/>
<text xml:space="preserve" x="172.117" y="126.05" fill="black" font-size="10.4952" font-family="Helvetica" font-weight="bold"># p_1 	0.844 MeV</text>
<path d="M210.104,147.238v 12.8163" fill="none" stroke="black"/>
<path d="M212.395,160.054l -2.29122, 3.9685l -2.29122, -3.9685z" fill="black"/>
<path d="M212.395,160.054l -2.29122, 3.9685l -2.29122, -3.9685h 4.58243z" fill="none" stroke="black"/>
<text xml:space="preserve" x="197.564" y="142.62" fill="black" font-size="10.4952" font-family="Helvetica" font-weight="bold"># p_2 	1.015 MeV</text>
<path d="M497.473,269.561h 13.1924" fill="none" stroke="black"/>
<path d="M504.069,258.97h 6.59618" fill="none" stroke="black"/>
<path d="M504.069,252.776h 6.59618" fill="none" stroke="black"/>
<path d="M504.069,248.38h 6.59618" fill="none" stroke="black"/>
<path d="M504.069,244.971h 6.59618" fill="none" stroke="black"/>
<path d="M504.069,242.186h 6.59618" fill="none" stroke="black"/>
<path d="M504.069,239.831h 6.59618" fill="none" stroke="black"/>
<path d="M504.069,237.79h 6.59618" fill="none" stroke="black"/>
<path d="M504.069,235.991h 6.59618" fill="none" stroke="black"/>
<path d="M497.473,234.381h 13.1924" fill="none" stroke="black"/>
<path d="M504.069,223.791h 6.59618" fill="none" stroke="black"/>
<path d="M504.069,217.596h 6.59618" fill="none" stroke="black"/>
<path d="M504.069,213.201h 6.59618" fill="none" stroke="black"/>
<path d="M504.069,209.792h 6.59618" fill="none" stroke="black"/>
<path d="M504.069,207.006h 6.59618" fill="none" stroke="black"/>
<path d="M504.069,204.651h 6.59618" fill="none" stroke="black"/>
<path d="M504.069,202.611h 6.59618" fill="none" stroke="black"/>
<path d="M504.069,200.812h 6.59618" fill="none" stroke="black"/>
<path d="M497.473,199.202h 13.1924" fill="none" stroke="black"/>
<path d="M504.069,188.612h 6.59618" fill="none" stroke="black"/>
<path d="M504.069,182.417h 6.59618" fill="none" stroke="black"/>
<path d="M504.069,178.022h 6.59618" fill="none" stroke="black"/>
<path d="M504.069,174.613h 6.59618" fill="none" stroke="black"/>
<path d="M504.069,171.827h 6.59618" fill="none" stroke="black"/>
<path d="M504.069,169.472h 6.59618" fill="none" stroke="black"/>
<path d="M504.069,167.432h 6.59618" fill="none" stroke="black"/>
<path d="M504.069,165.632h 6.59618" fill="none" stroke="black"/>
<path d="M497.473,164.023h 13.1924" fill="none" stroke="black"/>
<path d="M504.069,153.433h 6.59618" fill="none" stroke="black"/>
<path d="M504.069,147.238h 6.59618" fill="none" stroke="black"/>
<path d="M504.069,142.843h 6.59618" fill="none" stroke="black"/>
<path d="M504.069,139.433h 6.59618" fill="none" stroke="black"/>
<path d="M504.069,136.648h 6.59618" fill="none" stroke="black"/>
<path d="M504.069,134.293h 6.59618" fill="none" stroke="black"/>
<path d="M504.069,132.253h 6.59618" fill="none" stroke="black"/>
<path d="M504.069,130.453h 6.59618" fill="none" stroke="black"/>
<path d="M497.473,128.843h 13.1924" fill="none" stroke="black"/>
<path d="M504.069,118.253h 6.59618" fill="none" stroke="black"/>
<path d="M504.069,112.059h 6.59618" fill="none" stroke="black"/>
<path d="M504.069,107.663h 6.59618" fill="none" stroke="black"/>
<path d="M504.069,104.254h 6.59618" fill="none" stroke="black"/>
<path d="M504.069,101.469h 6.59618" fill="none" stroke="black"/>
<path d="M504.069,99.1135h 6.59618" fill="none" stroke="black"/>
<path d="M504.069,97.0734h 6.59618" fill="none" stroke="black"/>
<path d="M504.069,95.2739h 6.59618" fill="none" stroke="black"/>
<path d="M497.473,93.6642h 13.1924" fill="none" stroke="black"/>
<path d="M504.069,83.0742h 6.59618" fill="none" stroke="black"/>
<path d="M504.069,76.8794h 6.59618" fill="none" stroke="black"/>
<path d="M504.069,72.4841h 6.59618" fill="none" stroke="black"/>
<path d="M504.069,69.0749h 6.59618" fill="none" stroke="black"/>
<path d="M504.069,66.2894h 6.59618" fill="none" stroke="black"/>
<path d="M504.069,63.9342h 6.59618" fill="none" stroke="black"/>
<path d="M504.069,61.8941h 6.59618" fill="none" stroke="black"/>
<path d="M504.069,60.0946h 6.59618" fill="none" stroke="black"/>
<path d="M497.473,58.4849h 13.1924" fill="none" stroke="black"/>
<path d="M504.069,47.8949h 6.59618" fill="none" stroke="black"/>
<path d="M504.069,41.7001h 6.59618" fill="none" stroke="black"/>
<path d="M504.069,37.3049h 6.59618" fill="none" stroke="black"/>
<path d="M504.069,33.8956h 6.59618" fill="none" stroke="black"/>
<path d="M504.069,31.1101h 6.59618" fill="none" stroke="black"/>
<path d="M504.069,28.755h 6.59618" fill="none" stroke="black"/>
<path d="M57.1929,35.5833v -7.46952" fill="none" stroke="black"/>
<path d="M75.3318,35.5833v -7.46952" fill="none" stroke="black"/>
<path d="M93.4707,35.5833v -7.46952" fill="none" stroke="black"/>
<path d="M111.61,35.5833v -7.46952" fill="none" stroke="black"/>
<path d="M129.749,35.5833v -7.46952" fill="none" stroke="black"/>
<path d="M147.887,35.5833v -7.46952" fill="none" stroke="black"/>
<path d="M166.026,35.5833v -7.46952" fill="none" stroke="black"/>
<path d="M184.165,35.5833v -7.46952" fill="none" stroke="black"/>
<path d="M202.304,35.5833v -7.46952" fill="none" stroke="black"/>
<path d="M220.443,35.5833v -7.46952" fill="none" stroke="black"/>
<path d="M238.582,35.5833v -7.46952" fill="none" stroke="black"/>
<path d="M256.721,35.5833v -7.46952" fill="none" stroke="black"/>
<path d="M274.86,35.5833v -7.46952" fill="none" stroke="black"/>
<path d="M292.999,35.5833v -7.46952" fill="none" stroke="black"/>
<path d="M311.138,35.5833v -7.46952" fill="none" stroke="black"/>
<path d="M329.277,35.5833v -7.46952" fill="none" stroke="black"/>
<path d="M347.415,35.5833v -7.46952" fill="none" stroke="black"/>
<path d="M365.554,35.5833v -7.46952" fill="none" stroke="black"/>
<path d="M383.693,35.5833v -7.46952" fill="none" stroke="black"/>
<path d="M401.832,35.5833v -7.46952" fill="none" stroke="black"/>
<path d="M419.971,35.5833v -7.46952" fill="none" stroke="black"/>
<path d="M438.11,35.5833v -7.46952" fill="none" stroke="black"/>
<path d="M456.249,35.5833v -7.46952" fill="none" stroke="black"/>
<path d="M474.388,35.5833v -7.46952" fill="none" stroke="black"/>
<path d="M492.527,35.5833v -7.46952" fill="none" stroke="black"/>
<path d="M510.666,35.5833v -7.46952" fill="none" stroke="black"/></svg>
