<?xml version="1.0" standalone="no"?>
<svg width="567.429" height="311.778" viewBox="0 0 567.429 311.778" xmlns="http://www.w3.org/2000/svg" shape-rendering="crispEdges">
<title>
Yields/P1/det-3/run_0097_Fit.svg
</title>
<desc>
Creator: ROOT Version 6.12/06
CreationDate: Mon Apr 15 10:29:01 2019</desc>
<defs>
</defs>
<rect x="0.5" y="0" width="566.929" height="311.278" fill="white"/>
<rect x="57.1929" y="31.1278" width="453.543" height="249.023" fill="white"/>
<rect x="57.1929" y="31.1278" width="453.543" height="249.023" fill="none" stroke="black"/>
<rect x="57.1929" y="31.1278" width="453.543" height="249.023" fill="white"/>
<rect x="57.1929" y="31.1278" width="453.543" height="249.023" fill="none" stroke="black"/>
<path d="M57.1929,40.504h 0.181345v 239.647h 14.5076v -10.1694h 0.181345v 10.1694h 1.26941v -10.1694h 0.181345v 10.1694h 3.26421v -10.1694h 0.181345v 10.1694h 7.61648v -10.1694h 0.181345v 10.1694h 0.544034v -10.1694h 0.181345v 10.1694h 0.181345v
 -10.1694h 0.181345v 10.1694h 0.181345v -10.1694h 0.181345v 10.1694h 0.36269v -10.1694h 0.181345v 10.1694h 0.181345v -10.1694h 0.181345v 10.1694h 0.181345v -10.1694h 0.181345v 10.1694h 0.36269v -10.1694h 0.544034v 10.1694h 0.181345v -10.1694h
 0.181345v 10.1694h 0.181345v -30.5083h 0.181345v -26.8865h 0.181345v -14.6807h 0.181345v -10.1694h 0.181345v -10.1694h 0.181345v -6.65085h 0.181345v -4.65969h 0.181345v -4.29536h 0.181345v -1.62007h 0.181345v -0.794996h 0.181345v -1.72628h 0.181345v
 -0.537574h 0.181345v -1.74607h 0.181345v -0.461291h 0.181345v 0.0116486h 0.181345v -1.26103h 0.181345v 0.0750456h 0.181345v -0.754156h 0.181345v -0.717278h 0.181345v 0.146568h 0.181345v -0.146568h 0.181345v -0.212353h 0.181345v -0.910289h 0.181345v
 0.300262h 0.181345v -0.282238h 0.181345v -0.652561h 0.181345v 0.0258983h 0.181345v -0.111897h 0.181345v -0.455879h 0.181345v 0.602379h 0.181345v 0.174246h 0.181345v -1.3792h 0.181345v 0.820302h 0.181345v 0.0676491h 0.181345v -0.442471h 0.181345v
 0.768134h 0.181345v -0.435435h 0.181345v 0.461456h 0.181345v -0.810593h 0.181345v 0.265253h 0.181345v -0.387958h 0.181345v -0.153968h 0.181345v 0.326044h 0.181345v 0.16578h 0.181345v -0.305235h 0.181345v -0.0814174h 0.181345v 0.83525h 0.181345v
 -0.956535h 0.181345v 1.06004h 0.181345v -1.16435h 0.181345v 0.721017h 0.181345v 0.811448h 0.181345v -0.531662h 0.181345v 0.61176h 0.181345v -0.378808h 0.181345v 0.0261134h 0.181345v -0.284723h 0.181345v 0.566197h 0.181345v 0.377825h 0.181345v
 0.738162h 0.181345v -0.0764634h 0.181345v -0.00952997h 0.181345v -0.994426h 0.181345v -0.438508h 0.181345v -0.724868h 0.181345v -2.04621h 0.181345v -1.18809h 0.181345v -3.00755h 0.181345v -2.60308h 0.181345v -3.0562h 0.181345v -3.11289h 0.181345v
 -2.68033h 0.181345v -2.53721h 0.181345v -2.31358h 0.181345v -1.55763h 0.181345v -0.842304h 0.181345v -0.541125h 0.181345v 0.16157h 0.181345v 0.855822h 0.181345v 0.842974h 0.181345v 1.70587h 0.181345v 2.47325h 0.181345v 2.53358h 0.181345v 3.40751h
 0.181345v 3.76172h 0.181345v 4.11105h 0.181345v 4.15548h 0.181345v 2.71214h 0.181345v 3.92548h 0.181345v 2.78521h 0.181345v 1.29972h 0.181345v 0.82588h 0.181345v 1.22617h 0.181345v 0.450908h 0.181345v 0.887158h 0.181345v 0.215615h 0.181345v
 0.380057h 0.181345v -0.0606674h 0.181345v -0.766663h 0.181345v 1.57561h 0.181345v -1.12833h 0.181345v 0.687215h 0.181345v 0.483831h 0.181345v -0.0640207h 0.181345v -0.584428h 0.181345v 0.0409815h 0.181345v -0.0614295h 0.181345v 0.247276h 0.181345v
 1.01074h 0.181345v 0.224337h 0.181345v -0.379357h 0.181345v -0.89722h 0.181345v 1.02999h 0.181345v -0.652169h 0.181345v 0.519395h 0.181345v -0.240341h 0.181345v 0.350902h 0.181345v -0.110561h 0.181345v 0.584236h 0.181345v 0.394978h 0.181345v
 -0.486389h 0.181345v 0.439365h 0.181345v -0.843808h 0.181345v 2.27269h 0.181345v -1.35829h 0.181345v 0.430838h 0.181345v -0.407232h 0.181345v 1.12912h 0.181345v -0.127026h 0.181345v -0.0252737h 0.181345v 0.203419h 0.181345v 0.206279h 0.181345v
 1.10525h 0.181345v 0.397315h 0.181345v -1.70885h 0.181345v 0.415501h 0.181345v 0.509195h 0.181345v -0.403455h 0.181345v -0.184548h 0.181345v 0.131583h 0.181345v 1.4142h 0.181345v -0.765637h 0.181345v 0.56327h 0.36269v 1.10273h 0.181345v -1.91259h
 0.181345v 0.695456h 0.181345v 1.18621h 0.181345v -0.515903h 0.181345v -0.411649h 0.181345v -0.652169h 0.181345v 1.82892h 0.181345v -0.883902h 0.181345v -0.0884709h 0.181345v 0.847243h 0.181345v 0.701809h 0.181345v -0.887525h 0.181345v 0.725049h
 0.181345v -0.0322803h 0.181345v 0.0646317h 0.181345v -0.509253h 0.181345v 0.284277h 0.181345v -0.346708h 0.181345v 0.15658h 0.181345v -0.311506h 0.181345v 0.374609h 0.181345v 1.28808h 0.181345v -1.00071h 0.181345v 0.227468h 0.181345v -0.640774h
 0.181345v -0.248673h 0.181345v 1.05411h 0.181345v -0.679502h 0.181345v 0.646421h 0.181345v -0.164295h 0.181345v 0.363909h 0.181345v 0.304607h 0.181345v -0.635804h 0.181345v 0.364731h 0.181345v 1.22478h 0.181345v -0.885153h 0.181345v -0.964039h
 0.181345v -0.783077h 0.181345v 0.122517h 0.181345v 0.185716h 0.181345v 0.767306h 0.181345v -3.51472h 0.181345v 1.52284h 0.181345v -2.35139h 0.181345v 0.572493h 0.181345v -0.8146h 0.181345v -0.07186h 0.181345v -1.90223h 0.181345v -0.454643h 0.181345v
 0.923826h 0.181345v 0.218328h 0.181345v -0.0219796h 0.181345v 1.28457h 0.181345v -1.30651h 0.181345v 0.998129h 0.181345v 0.50143h 0.181345v 1.88985h 0.181345v -0.381805h 0.181345v 2.36064h 0.181345v -0.558386h 0.181345v 0.717341h 0.181345v 1.47846h
 0.181345v -0.28013h 0.181345v -0.940365h 0.181345v 1.83415h 0.181345v -0.291977h 0.181345v -0.356986h 0.181345v 0.722874h 0.181345v 0.261662h 0.181345v -0.913831h 0.181345v 1.41251h 0.181345v -1.48322h 0.181345v 1.52229h 0.181345v -0.762321h
 0.181345v 0.224566h 0.181345v 1.09597h 0.181345v -0.241841h 0.181345v -0.54926h 0.181345v 0.350727h 0.181345v -0.312169h 0.181345v -0.0385582h 0.181345v 1.67039h 0.181345v -0.715819h 0.181345v -1.48401h 0.181345v 1.94318h 0.181345v -1.83133h
 0.181345v 0.533564h 0.181345v -0.570943h 0.181345v 2.03931h 0.181345v -1.35146h 0.181345v 0.276454h 0.181345v -0.738583h 0.181345v 1.18382h 0.181345v -0.721689h 0.181345v -0.537755h 0.181345v 0.459715h 0.181345v 1.00666h 0.181345v -0.731689h
 0.181345v -1.25343h 0.181345v 0.862168h 0.181345v -1.36319h 0.181345v -0.450397h 0.181345v -0.89346h 0.181345v 0.259104h 0.181345v 0.397443h 0.181345v 0.271073h 0.181345v -0.537227h 0.181345v -0.581761h 0.181345v -0.0947563h 0.181345v 0.842297h
 0.181345v -0.459544h 0.181345v 1.03763h 0.181345v -1.16633h 0.181345v 0.422461h 0.181345v 0.848293h 0.181345v 0.0349735h 0.181345v 0.977247h 0.181345v -0.55093h 0.181345v -0.496181h 0.181345v 1.19759h 0.181345v 1.38699h 0.181345v -0.769159h
 0.181345v -0.427541h 0.181345v 1.23832h 0.181345v -0.532075h 0.181345v -0.43562h 0.181345v 1.09327h 0.181345v 0.910481h 0.181345v -1.88622h 0.181345v 1.18745h 0.181345v -1.57561h 0.181345v 0.867915h 0.181345v -0.400882h 0.181345v 0.896864h 0.181345v
 -0.2087h 0.181345v 0.166722h 0.181345v -1.12912h 0.181345v 0.553703h 0.181345v 0.0808343h 0.181345v -1.05539h 0.181345v 1.93217h 0.181345v -0.836202h 0.181345v 0.87929h 0.181345v -0.128886h 0.181345v -1.57996h 0.181345v 0.115675h 0.181345v 1.04267h
 0.181345v 0.125219h 0.36269v 0.863271h 0.181345v -0.609581h 0.181345v -1.84133h 0.181345v 1.75628h 0.181345v -1.21993h 0.181345v 0.236006h 0.181345v 1.06898h 0.181345v -0.707693h 0.181345v -1.13364h 0.181345v 2.18656h 0.181345v -1.4142h 0.181345v
 0.773428h 0.181345v -0.813027h 0.181345v -0.196407h 0.181345v 1.91456h 0.36269v -1.51908h 0.181345v -0.356407h 0.181345v 0.157335h 0.181345v 1.19412h 0.181345v -0.0428362h 0.181345v -0.627972h 0.181345v -0.20349h 0.181345v 0.0404728h 0.181345v
 0.876787h 0.181345v -0.957621h 0.181345v -0.120422h 0.181345v -0.198533h 0.181345v 1.84684h 0.181345v -0.353544h 0.181345v -1.88248h 0.181345v 0.748501h 0.181345v -0.0403615h 0.181345v 0.6174h 0.181345v -0.414473h 0.181345v -0.911067h 0.181345v
 0.468275h 0.181345v -0.3526h 0.181345v -0.192288h 0.181345v 0.347954h 0.181345v -0.612993h 0.181345v 1.58336h 0.181345v -1.95386h 0.181345v -1.22771h 0.181345v 2.13318h 0.181345v -0.497383h 0.181345v 1.05258h 0.181345v -1.53365h 0.181345v 0.146349h
 0.181345v 0.485976h 0.181345v 0.152828h 0.181345v -0.45379h 0.181345v 1.16193h 0.181345v -0.0402507h 0.181345v 0.997872h 0.181345v -0.836202h 0.181345v 1.3618h 0.181345v -0.907798h 0.181345v 0.211103h 0.181345v -0.906947h 0.181345v 0.864483h
 0.181345v 1.61189h 0.181345v -2.02991h 0.181345v 0.674665h 0.181345v -0.0860494h 0.181345v 0.975496h 0.181345v -1.60527h 0.181345v 1.78981h 0.181345v -1.54114h 0.181345v 0.597174h 0.181345v 1.22522h 0.181345v 0.827461h 0.181345v -1.47551h 0.181345v
 1.17811h 0.181345v -1.71167h 0.181345v 1.04032h 0.181345v 1.22129h 0.181345v -1.31473h 0.181345v 1.36577h 0.181345v -0.649946h 0.181345v -0.338399h 0.181345v 0.937314h 0.181345v 0.205197h 0.181345v 0.103685h 0.181345v 0.747068h 0.181345v -1.80085h
 0.181345v 1.31625h 0.181345v 0.484603h 0.181345v -0.271198h 0.181345v 0.162116h 0.181345v 0.666996h 0.181345v -0.936203h 0.181345v -0.829698h 0.181345v 1.7659h 0.181345v -1.46024h 0.181345v 0.84768h 0.181345v 1.85815h 0.181345v -0.12329h 0.181345v
 -1.51506h 0.181345v -0.489999h 0.181345v 0.601146h 0.181345v 0.281609h 0.181345v -0.225718h 0.181345v 1.40954h 0.181345v -1.46543h 0.181345v 0.338585h 0.181345v 1.43835h 0.181345v -1.77693h 0.181345v 1.1604h 0.181345v -1.21608h 0.181345v 0.566533h
 0.181345v 0.11598h 0.181345v 0.594064h 0.181345v 0.368339h 0.181345v -1.53335h 0.181345v 2.29898h 0.181345v -3.98964h 0.181345v 1.80309h 0.181345v 2.8566h 0.181345v -3.51858h 0.181345v 2.0829h 0.181345v 0.765637h 0.181345v -0.514838h 0.181345v
 -1.89571h 0.181345v 1.70721h 0.181345v 0.768982h 0.181345v -0.0656439h 0.181345v -0.765637h 0.181345v 0.700286h 0.181345v -1.36866h 0.181345v 0.544567h 0.36269v 0.437984h 0.181345v -0.560758h 0.181345v 1.01222h 0.181345v -2.07326h 0.181345v 2.27108h
 0.181345v 1.61232h 0.181345v -2.13403h 0.181345v 0.258533h 0.181345v 1.94978h 0.181345v -2.65006h 0.181345v 0.062299h 0.181345v -0.789955h 0.181345v 1.23362h 0.181345v -1.58434h 0.181345v 1.9756h 0.181345v -0.834921h 0.181345v 0.508151h 0.181345v
 0.796832h 0.181345v -0.403825h 0.181345v -0.328233h 0.181345v 0.328233h 0.181345v 0.200523h 0.181345v -1.89164h 0.181345v 2.23205h 0.181345v -2.0535h 0.181345v 1.64593h 0.181345v -1.52567h 0.36269v 0.616535h 0.181345v 2.02219h 0.181345v -3.51752h
 0.181345v 2.27108h 0.181345v 1.17434h 0.181345v -0.425287h 0.181345v -0.815287h 0.181345v 0.745589h 0.181345v -0.745589h 0.181345v -1.62488h 0.181345v 2.37046h 0.181345v -1.26498h 0.181345v -0.746163h 0.181345v -0.652169h 0.181345v 1.14537h
 0.181345v 0.316889h 0.181345v -0.930844h 0.181345v -0.179286h 0.181345v -0.752544h 0.181345v -0.223995h 0.181345v 0.624408h 0.181345v 0.233812h 0.181345v 1.61798h 0.181345v -1.79368h 0.181345v -0.682513h 0.181345v 0.337288h 0.181345v 0.40356h
 0.181345v -1.12479h 0.181345v -1.04467h 0.181345v -0.100489h 0.181345v -0.297403h 0.181345v -0.339518h 0.181345v 0.68708h 0.181345v 0.304607h 0.181345v -1.41697h 0.181345v -0.276827h 0.181345v 1.6938h 0.181345v -1.50983h 0.181345v -3.41202h
 0.181345v 2.77797h 0.36269v -1.27288h 0.181345v 1.14051h 0.181345v 1.42911h 0.181345v -1.64712h 0.181345v 0.174143h 0.181345v -0.260446h 0.181345v -1.07804h 0.181345v 1.6931h 0.181345v -0.913181h 0.181345v 0.514838h 0.181345v 1.66269h 0.181345v
 -0.946869h 0.181345v -0.272541h 0.181345v 1.81833h 0.181345v -2.17401h 0.181345v 0.310752h 0.181345v 0.180573h 0.181345v -0.0453521h 0.181345v -0.313599h 0.181345v 0.634047h 0.181345v -0.722429h 0.181345v -1.85962h 0.181345v -1.2992h 0.181345v
 -0.316282h 0.181345v -1.9504h 0.181345v -1.19773h 0.181345v -1.08125h 0.181345v -2.2206h 0.181345v -0.397743h 0.181345v -2.20231h 0.181345v -0.926922h 0.181345v -0.688116h 0.181345v -1.94858h 0.181345v -2.05626h 0.181345v 0.115574h 0.181345v
 -1.36548h 0.181345v -0.766633h 0.181345v -0.374234h 0.181345v -0.428392h 0.181345v -0.333929h 0.181345v -0.133517h 0.181345v -0.363522h 0.181345v 0.322683h 0.181345v 1.1226h 0.181345v 0.0993925h 0.181345v 0.750211h 0.181345v 1.39367h 0.181345v
 0.749844h 0.181345v -0.094177h 0.181345v 1.30342h 0.181345v 2.76606h 0.181345v 0.781447h 0.181345v 2.19022h 0.181345v 2.52399h 0.181345v 0.766097h 0.181345v 1.78578h 0.181345v 2.42588h 0.181345v 2.09393h 0.181345v 1.30692h 0.181345v 0.699881h
 0.181345v 0.988345h 0.181345v 0.102597h 0.181345v 2.33903h 0.181345v 2.14135h 0.181345v -1.83632h 0.181345v 1.90635h 0.181345v -0.209097h 0.181345v -0.742159h 0.181345v 2.90032h 0.181345v -1.00688h 0.181345v -1.89345h 0.181345v 3.30676h 0.181345v
 -0.326044h 0.181345v -0.553703h 0.181345v -0.608227h 0.181345v 0.842974h 0.181345v -1.85023h 0.181345v 1.53806h 0.181345v 0.711959h 0.181345v -0.556705h 0.181345v -1.05378h 0.181345v 1.8557h 0.181345v -1.1108h 0.181345v 4.22069h 0.181345v -2.77644h
 0.181345v -0.250799h 0.181345v -0.4087h 0.181345v 0.243851h 0.181345v -0.562807h 0.181345v -0.842974h 0.181345v 1.48797h 0.181345v -1.03418h 0.181345v 1.11684h 0.36269v 0.678566h 0.181345v -2.2492h 0.181345v 1.32405h 0.181345v 0.581944h 0.181345v
 -0.983925h 0.181345v -1.28979h 0.181345v 2.53036h 0.181345v -0.838593h 0.181345v 1.91259h 0.181345v 0.37621h 0.181345v -1.6218h 0.181345v -0.169613h 0.181345v 1.41521h 0.181345v 0.762321h 0.181345v -0.194326h 0.181345v -1.46836h 0.181345v 0.993519h
 0.181345v -0.459956h 0.181345v -1.7079h 0.181345v 1.43869h 0.36269v 0.729163h 0.181345v -1.75916h 0.181345v 0.592009h 0.181345v -0.0860494h 0.181345v 1.2532h 0.181345v 2.32403h 0.181345v -2.41719h 0.181345v -0.184548h 0.181345v 0.849385h 0.181345v
 -0.664837h 0.181345v 2.41719h 0.181345v -2.96401h 0.181345v 2.63917h 0.181345v -1.90545h 0.181345v -1.08727h 0.181345v 1.85962h 0.36269v -2.54214h 0.181345v 3.46259h 0.181345v -3.21036h 0.181345v 2.2899h 0.181345v 2.13002h 0.181345v -1.82957h
 0.181345v -0.200981h 0.181345v -1.51581h 0.181345v 1.31755h 0.181345v 0.705976h 0.181345v -1.75098h 0.181345v -1.1461h 0.181345v 1.80243h 0.181345v -0.838593h 0.181345v 0.274239h 0.181345v 0.0925642h 0.181345v 0.567995h 0.181345v 0.590874h 0.181345v
 -0.199614h 0.181345v -1.59527h 0.181345v -0.609581h 0.181345v -0.337288h 0.181345v 1.86413h 0.181345v 0.286746h 0.181345v -0.843954h 0.181345v -0.711479h 0.181345v -1.64097h 0.181345v 0.715819h 0.181345v -2.2616h 0.181345v -0.413306h 0.181345v
 -0.269207h 0.181345v -1.02999h 0.181345v -2.4557h 0.181345v -1.1622h 0.181345v -3.21541h 0.181345v -2.37267h 0.181345v 1.64942h 0.181345v -2.98121h 0.181345v -1.74151h 0.181345v -2.62997h 0.181345v -0.702955h 0.181345v -1.23362h 0.181345v -1.81542h
 0.181345v -1.31573h 0.181345v -0.33077h 0.181345v -0.565235h 0.181345v -1.98716h 0.181345v -1.25366h 0.181345v 0.352665h 0.181345v -0.579209h 0.181345v -0.488703h 0.181345v -0.193272h 0.181345v 0.884507h 0.181345v 0.0360329h 0.181345v -0.332914h
 0.181345v 1.32797h 0.181345v 0.404483h 0.181345v 0.858061h 0.181345v 0.36929h 0.181345v 1.35524h 0.181345v 0.727656h 0.181345v 2.09949h 0.181345v 2.00562h 0.181345v 0.220959h 0.181345v 2.49348h 0.181345v 3.49985h 0.181345v 0.168445h 0.181345v
 2.34656h 0.181345v 3.23412h 0.181345v 1.56783h 0.181345v 2.39087h 0.181345v 3.09638h 0.181345v 1.69801h 0.181345v 1.51581h 0.181345v 1.46836h 0.181345v 4.18397h 0.181345v -0.290532h 0.181345v -0.702114h 0.181345v 5.41027h 0.181345v -3.66508h
 0.181345v 3.46815h 0.181345v -0.194326h 0.181345v 1.63183h 0.181345v 0.217358h 0.181345v -1.45793h 0.181345v 0.607178h 0.181345v -2.29109h 0.181345v 2.7103h 0.181345v -0.624408h 0.36269v 0.624408h 0.181345v -2.7103h 0.181345v 2.29109h 0.181345v
 1.98864h 0.181345v -1.13789h 0.181345v 0.903139h 0.181345v -3.68713h 0.181345v 2.78399h 0.181345v 0.672089h 0.181345v -3.27382h 0.181345v -0.540112h 0.181345v 1.68392h 0.181345v -0.959255h 0.181345v 2.63781h 0.181345v -0.437984h 0.181345v 2.0829h
 0.181345v -3.71473h 0.181345v 1.41765h 0.181345v 0.431542h 0.181345v -2.23029h 0.181345v 1.37953h 0.181345v -1.19022h 0.181345v 2.71307h 0.181345v -2.71307h 0.181345v 0.985026h 0.181345v 0.624408h 0.181345v 0.214185h 0.181345v -3.78271h 0.181345v
 1.58288h 0.181345v 2.86181h 0.181345v -1.70294h 0.181345v 0.826775h 0.181345v 0.652169h 0.181345v -5.03147h 0.181345v 2.76987h 0.181345v 1.82362h 0.181345v -3.61503h 0.181345v 1.6021h 0.181345v 3.60674h 0.181345v -7.10456h 0.181345v 1.39833h
 0.181345v 2.09949h 0.36269v 0.575422h 0.181345v -2.17753h 0.181345v 2.17753h 0.181345v -1.66269h 0.181345v 1.27658h 0.181345v -2.45091h 0.181345v 1.89016h 0.181345v 1.54578h 0.181345v -2.2616h 0.181345v 4.93651h 0.181345v -5.94873h 0.181345v
 -0.322461h 0.181345v 2.23505h 0.181345v -2.39366h 0.181345v 1.84684h 0.181345v -1.36577h 0.181345v 0.329708h 0.181345v 2.15088h 0.181345v -2.31666h 0.181345v -0.326044h 0.181345v 2.6427h 0.181345v -0.567995h 0.181345v 2.41719h 0.181345v -4.00007h
 0.181345v 1.39833h 0.181345v 0.752544h 0.181345v -0.381096h 0.181345v 1.37953h 0.181345v -3.47902h 0.181345v 3.27382h 0.181345v -1.36124h 0.181345v 3.55507h 0.181345v -0.91726h 0.181345v -1.67856h 0.181345v -0.772356h 0.181345v 1.17434h 0.181345v
 -0.985026h 0.181345v 2.94412h 0.181345v -1.33468h 0.181345v -1.98564h 0.181345v 0.762321h 0.181345v 1.22332h 0.181345v -3.56852h 0.181345v 1.21608h 0.181345v -1.21608h 0.181345v 2.3452h 0.181345v -1.48698h 0.181345v 1.88353h 0.181345v -3.07146h
 0.181345v 3.89823h 0.181345v -0.419211h 0.181345v -1.75098h 0.181345v 0.752544h 0.181345v 0.39126h 0.181345v 2.13002h 0.181345v -4.50448h 0.181345v 6.20389h 0.181345v -4.02637h 0.181345v -0.575422h 0.181345v -0.371447h 0.181345v 2.82236h 0.181345v
 -0.652169h 0.181345v -2.17019h 0.181345v 0.752544h 0.181345v 3.96553h 0.181345v -2.54788h 0.36269v -1.60943h 0.181345v -1.95909h 0.181345v 1.21608h 0.181345v 3.22861h 0.181345v 0.458518h 0.181345v -1.1205h 0.181345v -1.04096h 0.181345v 0.826775h
 0.181345v -1.60943h 0.181345v 2.4856h 0.181345v -0.876164h 0.181345v -0.419211h 0.181345v -1.56643h 0.36269v 0.959255h 0.181345v 2.36107h 0.181345v -2.94412h 0.181345v 1.39833h 0.181345v 0.863271h 0.181345v -1.87549h 0.181345v -0.194326h 0.181345v
 4.74473h 0.181345v -3.95149h 0.181345v 0.838593h 0.181345v -2.56663h 0.181345v 3.92188h 0.181345v -0.234747h 0.181345v 1.46836h 0.181345v -2.3715h 0.181345v 0.220626h 0.181345v 0.682513h 0.181345v 1.72804h 0.181345v -2.41055h 0.181345v -0.437984h
 0.181345v 0.661979h 0.181345v 1.17434h 0.181345v -0.946869h 0.181345v -0.889447h 0.181345v 4.22069h 0.181345v -2.13779h 0.181345v 1.02999h 0.181345v 1.99725h 0.181345v -0.889447h 0.181345v 0.889447h 0.181345v -0.889447h 0.181345v 1.51386h 0.181345v
 0.652169h 0.181345v -2.16602h 0.181345v 3.9358h 0.181345v -4.22069h 0.181345v 1.79875h 0.181345v -2.62166h 0.181345v 3.61111h 0.181345v -2.7882h 0.181345v 6.67161h 0.181345v -5.79978h 0.181345v 1.91638h 0.181345v -0.666996h 0.181345v 2.09949h
 0.181345v -0.371447h 0.181345v -1.72804h 0.181345v 3.68713h 0.181345v -4.00959h 0.181345v 2.80304h 0.181345v 1.63183h 0.181345v -3.78271h 0.181345v -0.652169h 0.181345v 0.989457h 0.181345v 1.81359h 0.181345v 1.20655h 0.181345v -1.95909h 0.181345v
 4.71808h 0.181345v -4.34663h 0.181345v 2.90238h 0.181345v 3.04636h 0.181345v -7.036h 0.181345v 1.08727h 0.181345v 5.94873h 0.181345v -1.08727h 0.181345v -3.68713h 0.181345v 3.68713h 0.181345v -1.95909h 0.181345v -2.13002h 0.181345v 2.59582h
 0.181345v 6.42981h 0.181345v -5.94873h 0.181345v -0.481072h 0.181345v 3.7549h 0.181345v -4.22069h 0.181345v -0.451463h 0.181345v 3.49782h 0.181345v 9.08216h 0.181345v -8.50674h 0.181345v -0.575422h 0.181345v -0.553703h 0.181345v 3.68713h 0.181345v
 -2.55801h 0.181345v 3.27382h 0.181345v -4.40295h 0.181345v 2.35245h 0.181345v -1.22332h 0.181345v 2.55801h 0.181345v 4.93651h 0.181345v -9.15721h 0.181345v 2.2616h 0.181345v 5.05929h 0.181345v -6.23362h 0.181345v 3.13343h 0.181345v 0.715819h
 0.181345v -1.39833h 0.181345v -0.652169h 0.181345v -1.79875h 0.181345v 3.84925h 0.181345v -1.39833h 0.181345v 2.15088h 0.181345v -0.752544h 0.181345v -4.93651h 0.181345v 4.93651h 0.181345v -2.67491h 0.181345v 2.67491h 0.181345v 0.752544h 0.181345v
 -0.752544h 0.181345v -1.39833h 0.181345v 1.39833h 0.181345v -2.0505h 0.181345v 0.652169h 0.36269v -3.53818h 0.181345v 0.533564h 0.181345v -4.22069h 0.181345v 2.67491h 0.181345v -3.46815h 0.181345v -0.752544h 0.181345v 1.95909h 0.181345v 0.863271h
 0.181345v 0.451463h 0.181345v -0.451463h 0.181345v -2.06982h 0.181345v -5.4247h 0.181345v 3.61111h 0.181345v 3.02013h 0.181345v -2.32136h 0.181345v -1.68823h 0.181345v 4.43488h 0.181345v -3.78271h 0.181345v 1.39833h 0.181345v -2.67491h 0.181345v
 1.27658h 0.181345v -1.27658h 0.181345v 3.42745h 0.181345v 2.52128h 0.181345v -4.67216h 0.181345v 3.35742h 0.181345v -1.58764h 0.181345v 5.39503h 0.181345v -3.3821h 0.181345v -0.425287h 0.181345v 2.2616h 0.181345v 2.09949h 0.181345v 2.45091h
 0.181345v -4.5504h 0.181345v -2.2616h 0.181345v 2.2616h 0.181345v -0.481072h 0.181345v -1.78053h 0.181345v 3.80739h 0.181345v -2.02686h 0.181345v 0.481072h 0.181345v -0.481072h 0.181345v 2.02686h 0.181345v -1.0484h 0.181345v -2.3337h 0.544034v
 0.889447h 0.181345v -1.31473h 0.181345v -1.95909h 0.181345v -2.67491h 0.181345v -1.4538h 0.181345v -1.06748h 0.181345v -1.46836h 0.181345v -0.682513h 0.181345v 0.223995h 0.181345v -1.50057h 0.181345v -2.0859h 0.181345v -1.82591h 0.181345v -3.70446h
 0.181345v -0.359317h 0.181345v 1.36288h 0.181345v -3.14341h 0.181345v -1.39833h 0.181345v 0.883494h 0.181345v -1.98436h 0.181345v -1.10619h 0.181345v -2.41304h 0.181345v 0.932969h 0.181345v -3.18464h 0.181345v 0.180019h 0.181345v -1.38186h 0.181345v
 1.14232h 0.181345v -0.467653h 0.181345v 1.19833h 0.181345v -2.09116h 0.181345v 0.273218h 0.181345v -1.11482h 0.181345v -0.353544h 0.181345v 0.820991h 0.181345v -1.3599h 0.181345v 0.943663h 0.181345v -0.943663h 0.181345v -0.143604h 0.181345v
 -0.833299h 0.181345v -1.04219h 0.181345v 0.642645h 0.181345v 0.399548h 0.181345v -1.77796h 0.181345v 0.200706h 0.181345v -0.5552h 0.181345v -0.308072h 0.181345v -0.0380581h 0.181345v 1.35279h 0.181345v -1.83877h 0.181345v 0.715819h 0.181345v
 -1.46836h 0.181345v 0.425287h 0.181345v -1.37216h 0.181345v 1.08727h 0.181345v -0.519702h 0.181345v 0.625888h 0.181345v 0.953976h 0.181345v -0.0756258h 0.181345v 0.616212h 0.181345v -0.349798h 0.181345v 0.507981h 0.181345v 1.20087h 0.181345v
 1.26089h 0.181345v -0.82291h 0.181345v 2.99856h 0.181345v -0.162716h 0.181345v 0.272204h 0.181345v 0.389775h 0.181345v 2.05614h 0.181345v 1.14731h 0.181345v 2.02946h 0.181345v 2.16786h 0.181345v 2.43393h 0.181345v 2.13347h 0.181345v 0.652169h
 0.181345v 0.543447h 0.181345v 3.76643h 0.181345v 2.53247h 0.181345v 0.652169h 0.181345v 2.15088h 0.181345v 4.13515h 0.181345v -1.91638h 0.181345v 0.302513h 0.181345v 6.41453h 0.181345v 2.58056h 0.181345v -2.09949h 0.181345v 5.94873h 0.181345v
 -0.715819h 0.181345v 10.8852h 0.181345v -10.1694h 0.181345v 5.23291h 0.181345v 3.53818h 0.181345v -9.48691h 0.181345v 12.431h 0.181345v 11.8975h 0.181345v -14.8416h 0.181345v -2.45091h 0.181345v -1.08727h 0.181345v 3.53818h 0.181345v -2.45091h
 0.181345v 9.08216h 0.181345v -6.63125h 0.181345v 1.39833h 0.181345v 10.1694h 0.181345v -8.62364h 0.181345v 8.62364h 0.181345v -2.67491h 0.181345v -4.22069h 0.36269v -3.27382h 0.181345v 10.1694h 0.181345v -2.67491h 0.181345v -2.2616h 0.181345v
 2.2616h 0.181345v 2.67491h 0.36269v 3.27382h 0.181345v -5.94873h 0.181345v 5.94873h 0.181345v -16.1182h 0.181345v 5.94873h 0.181345v 10.1694h 0.181345v -5.94873h 0.181345v -7.49452h 0.181345v 3.27382h 0.181345v 4.22069h 0.181345v -4.22069h 0.181345v
 4.22069h 0.181345v 10.1694h 0.181345v -19.0623h 0.181345v 14.8416h 0.36269v -5.94873h 0.181345v 2.67491h 0.181345v -8.62364h 0.181345v 8.62364h 0.181345v -6.8956h 0.181345v 4.22069h 0.36269v 5.94873h 0.181345v 30.5083h 0.181345v -38.7186h 0.181345v
 12.431h 0.181345v -12.431h 0.181345v 18.3798h 0.181345v -10.1694h 0.181345v -3.27382h 0.181345v -8.62364h 0.181345v 5.94873h 0.36269v 2.67491h 0.36269v -14.0187h 0.181345v 11.3438h 0.36269v 2.67491h 0.181345v -4.93651h 0.181345v 2.2616h 0.181345v
 10.1694h 0.181345v -7.49452h 0.181345v -8.62364h 0.181345v 1.72804h 0.181345v -1.72804h 0.36269v 3.68713h 0.181345v -12.1285h 0.181345v 1.95909h 0.181345v 6.4823h 0.181345v -2.94412h 0.181345v -8.01855h 0.181345v 8.01855h 0.181345v -10.1694h
 0.181345v -0.652169h 0.181345v 4.43488h 0.181345v -0.838593h 0.181345v 0.838593h 0.181345v 0.889447h 0.181345v -8.21034h 0.181345v 4.93651h 0.181345v -2.0505h 0.181345v -3.40085h 0.181345v -0.978455h 0.181345v 5.03147h 0.181345v -5.03147h 0.181345v
 5.03147h 0.181345v -1.27658h 0.181345v -3.27382h 0.181345v 1.54578h 0.181345v -3.3821h 0.181345v 8.53759h 0.181345v -5.68906h 0.181345v 10.1694h 0.181345v -8.50674h 0.181345v 1.87549h 0.181345v 3.78271h 0.181345v -7.32089h 0.181345v 1.66269h
 0.36269v 3.27382h 0.181345v -0.715819h 0.181345v 7.036h 0.181345v -7.036h 0.181345v -1.33468h 0.181345v 6.27119h 0.181345v -6.27119h 0.181345v 5.32433h 0.181345v 4.22069h 0.181345v 1.27658h 0.181345v -1.27658h 0.181345v 10.1694h 0.181345v -11.3438h
 0.181345v 7.12307h 0.181345v -4.67216h 0.181345v 11.5678h 0.181345v -8.62364h 0.36269v 8.62364h 0.181345v 7.49452h 0.181345v -4.22069h 0.181345v -3.27382h 0.181345v -4.93651h 0.181345v 8.21034h 0.181345v 10.1694h 0.36269v -18.3798h 0.181345v
 -6.63125h 0.181345v 11.5678h 0.36269v 13.4433h 0.181345v 10.1694h 0.181345v -16.1182h 0.181345v -10.1694h 0.181345v 2.67491h 0.181345v -4.93651h 0.181345v 28.5492h 0.181345v -10.1694h 0.181345v -16.1182h 0.181345v 16.1182h 0.181345v -5.94873h
 0.181345v -4.22069h 0.181345v -5.94873h 0.181345v 26.2876h 0.181345v -16.1182h 0.181345v 5.94873h 0.36269v -5.94873h 0.544034v -12.431h 0.181345v -3.68713h 0.181345v 11.8975h 0.36269v 4.22069h 0.181345v -10.1694h 0.181345v 2.67491h 0.36269v
 -2.67491h 0.181345v -4.22069h 0.181345v 1.95909h 0.181345v -5.23291h 0.36269v 1.54578h 0.181345v 8.62364h 0.181345v 7.49452h 0.181345v -12.431h 0.181345v 12.431h 0.181345v -4.22069h 0.181345v -3.27382h 0.181345v -8.62364h 0.181345v 11.8975h
 0.181345v -14.8416h 0.181345v 6.63125h 0.181345v -1.95909h 0.181345v -1.72804h 0.36269v -4.22069h 0.181345v 5.94873h 0.181345v -8.21034h 0.181345v 4.93651h 0.181345v 5.23291h 0.181345v 8.21034h 0.181345v -8.21034h 0.181345v -6.63125h 0.181345v
 6.63125h 0.181345v -5.23291h 0.181345v -5.94873h 0.181345v -0.946869h 0.181345v 5.49727h 0.181345v 1.39833h 0.181345v -1.39833h 0.181345v 2.94412h 0.181345v -2.94412h 0.181345v 8.89285h 0.181345v -4.22069h 0.181345v -11.8975h 0.181345v 22.0669h
 0.181345v -17.2925h 0.181345v -4.7744h 0.181345v -0.793241h 0.181345v 12.6907h 0.181345v -5.94873h 0.181345v 1.27658h 0.181345v -2.45091h 0.181345v 5.39503h 0.181345v -6.4823h 0.181345v 12.431h 0.181345v -5.94873h 0.36269v -6.4823h 0.181345v
 3.53818h 0.181345v 2.94412h 0.181345v -2.94412h 0.181345v 11.5678h 0.181345v -6.8956h 0.181345v -1.72804h 0.181345v 5.94873h 0.181345v -15.2796h 0.181345v 7.78505h 0.181345v 1.54578h 0.181345v 5.94873h 0.181345v -8.89285h 0.181345v 6.63125h
 0.181345v -6.63125h 0.36269v -1.27658h 0.181345v 2.67491h 0.181345v 5.23291h 0.36269v 2.2616h 0.181345v -5.94873h 0.181345v 3.68713h 0.181345v -3.68713h 0.181345v 3.68713h 0.181345v 4.93651h 0.181345v -6.8956h 0.181345v -5.94873h 0.181345v 2.67491h
 0.181345v 7.49452h 0.181345v -8.89285h 0.181345v -2.45091h 0.181345v -1.08727h 0.181345v 22.6005h 0.181345v -17.6639h 0.181345v -1.39833h 0.181345v 8.89285h 0.181345v -7.49452h 0.181345v -2.67491h 0.181345v 7.90782h 0.181345v -3.68713h 0.181345v
 -4.22069h 0.181345v 1.27658h 0.181345v 2.94412h 0.181345v -1.54578h 0.181345v 3.27382h 0.181345v -7.12307h 0.181345v 11.3438h 0.181345v -7.49452h 0.36269v 1.54578h 0.181345v -2.94412h 0.181345v 1.39833h 0.181345v 5.23291h 0.181345v -1.95909h
 0.181345v -5.94873h 0.181345v 4.22069h 0.181345v -9.33083h 0.181345v 13.018h 0.181345v -3.68713h 0.181345v -8.44139h 0.181345v 17.065h 0.181345v -17.9545h 0.181345v 9.33083h 0.181345v -5.39503h 0.181345v -1.08727h 0.181345v 2.2616h 0.181345v
 1.27658h 0.181345v 6.63125h 0.181345v -12.1285h 0.181345v 5.49727h 0.181345v 6.63125h 0.181345v -6.63125h 0.181345v -2.45091h 0.181345v 7.12307h 0.181345v -5.94873h 0.181345v 1.27658h 0.36269v -6.38672h 0.181345v 7.78505h 0.181345v -1.39833h
 0.181345v -6.38672h 0.181345v 6.38672h 0.181345v -1.27658h 0.181345v -5.11014h 0.181345v 9.33083h 0.181345v -8.44139h 0.181345v 0.946869h 0.181345v 3.27382h 0.181345v -2.2616h 0.181345v -2.84854h 0.181345v 2.84854h 0.181345v -3.68713h 0.181345v
 -5.94873h 0.181345v 7.67677h 0.181345v -0.889447h 0.181345v -2.38438h 0.181345v 4.22069h 0.181345v -3.46815h 0.181345v 0.793241h 0.181345v -2.2616h 0.181345v 3.1002h 0.181345v 1.83632h 0.181345v 1.01222h 0.181345v -4.48037h 0.181345v -3.42745h
 0.181345v 11.446h 0.181345v -10.1694h 0.181345v 13.1135h 0.181345v -13.7657h 0.181345v 9.54502h 0.181345v -8.21034h 0.181345v 1.46836h 0.181345v -0.752544h 0.36269v -2.0505h 0.181345v 4.43488h 0.181345v -2.38438h 0.181345v 6.32018h 0.181345v -9.594h
 0.181345v 6.54765h 0.181345v -1.72804h 0.181345v -6.99714h 0.181345v 8.72517h 0.181345v -9.22256h 0.181345v 8.33311h 0.181345v -1.63183h 0.181345v -2.80304h 0.181345v -2.88601h 0.181345v 6.4823h 0.181345v -7.97559h 0.181345v 4.3793h 0.181345v
 -2.35245h 0.181345v 8.62364h 0.544034v -8.06994h 0.181345v 7.12307h 0.181345v -4.67216h 0.181345v 3.78271h 0.181345v -7.32089h 0.181345v -1.01222h 0.181345v 2.09949h 0.181345v 0.575422h 0.181345v -0.575422h 0.544034v 3.13343h 0.181345v -3.13343h
 0.181345v -0.553703h 0.181345v 3.68713h 0.36269v -3.13343h 0.181345v 7.12307h 0.181345v -4.67216h 0.181345v -1.87549h 0.181345v 0.598915h 0.181345v 0.624408h 0.181345v -1.22332h 0.181345v 1.22332h 0.181345v 2.0505h 0.181345v -6.8956h 0.181345v
 4.8451h 0.181345v -4.8451h 0.181345v 0.465797h 0.181345v 5.71399h 0.181345v -3.13343h 0.181345v -1.08727h 0.181345v -1.49329h 0.181345v 5.03147h 0.181345v -3.00462h 0.181345v -4.22069h 0.181345v 1.72804h 0.181345v 2.49265h 0.181345v 4.40295h
 0.181345v -1.39833h 0.181345v -1.87549h 0.181345v -4.93651h 0.181345v 4.36109h 0.181345v -7.38122h 0.181345v 7.38122h 0.181345v -7.71851h 0.181345v 5.61903h 0.181345v 2.67491h 0.181345v -4.93651h 0.181345v 1.78053h 0.36269v -1.35524h 0.181345v
 1.83632h 0.181345v -3.07689h 0.181345v -0.772356h 0.181345v 3.84925h 0.181345v -6.58672h 0.181345v 1.65021h 0.181345v 3.98964h 0.181345v -2.52128h 0.181345v 5.01393h 0.181345v -7.16481h 0.181345v 4.67216h 0.181345v -5.94873h 0.181345v 0.308883h
 0.181345v 0.637987h 0.181345v -1.24938h 0.181345v 2.61515h 0.181345v -0.353544h 0.181345v 1.85962h 0.181345v 1.24057h 0.181345v -3.1002h 0.181345v -3.95634h 0.181345v 3.61111h 0.181345v 1.81359h 0.181345v 2.98708h 0.181345v -6.10565h 0.181345v
 2.00375h 0.181345v 1.11482h 0.181345v 1.20655h 0.181345v -1.95909h 0.181345v 1.1438h 0.181345v 1.24057h 0.181345v -5.05929h 0.181345v 1.27658h 0.181345v 6.63125h 0.181345v -1.49329h 0.181345v -3.36817h 0.181345v 2.45091h 0.181345v 0.451463h
 0.181345v 1.95909h 0.181345v -2.41055h 0.181345v 4.67216h 0.181345v -5.53543h 0.181345v 2.2616h 0.181345v 3.89823h 0.181345v -4.3793h 0.181345v 0.481072h 0.181345v -0.481072h 0.181345v 3.7549h 0.181345v -0.598915h 0.181345v -0.575422h 0.181345v
 3.13343h 0.181345v -2.55801h 0.181345v -2.17753h 0.181345v 4.73553h 0.181345v 2.2616h 0.181345v -5.39503h 0.181345v -1.6021h 0.181345v 7.83573h 0.181345v -4.43488h 0.181345v -1.22332h 0.181345v 3.27382h 0.36269v 2.38438h 0.181345v -2.38438h
 0.181345v -7.78505h 0.181345v 10.1694h 0.181345v 0.889447h 0.181345v -3.98964h 0.181345v -6.17978h 0.181345v 3.62178h 0.181345v -2.67491h 0.181345v 1.54578h 0.181345v 1.72804h 0.181345v 1.95909h 0.181345v -3.13343h 0.181345v 3.13343h 0.181345v
 -2.55801h 0.181345v 4.02637h 0.181345v -7.18235h 0.181345v 1.49329h 0.181345v 0.533564h 0.181345v -1.54578h 0.181345v 1.01222h 0.36269v 3.53818h 0.181345v -1.87549h 0.181345v 6.54765h 0.181345v 0.946869h 0.181345v -3.46815h 0.181345v -1.46836h
 0.181345v -1.95909h 0.181345v -0.598915h 0.181345v 3.27382h 0.181345v 6.32018h 0.181345v -6.32018h 0.181345v 0.752544h 0.181345v -5.15549h 0.181345v 4.40295h 0.181345v 1.54578h 0.181345v -3.59629h 0.181345v 7.28341h 0.181345v -9.08216h 0.181345v
 3.13343h 0.181345v -4.22069h 0.181345v 1.08727h 0.36269v 3.13343h 0.181345v -1.33468h 0.36269v -6.15984h 0.181345v 4.36109h 0.181345v 0.575422h 0.181345v 1.87549h 0.181345v -1.27658h 0.181345v -0.598915h 0.181345v 0.598915h 0.36269v 0.624408h
 0.181345v -2.35245h 0.181345v 2.35245h 0.181345v -1.22332h 0.181345v 0.598915h 0.181345v 2.67491h 0.181345v -3.27382h 0.181345v -0.575422h 0.181345v -2.09949h 0.181345v 3.27382h 0.181345v -1.72804h 0.181345v 0.553703h 0.181345v -2.09949h 0.181345v
 5.23291h 0.181345v -6.63125h 0.181345v 5.29656h 0.181345v -6.57314h 0.181345v 2.67491h 0.181345v -0.481072h 0.181345v 6.42981h 0.181345v -5.94873h 0.181345v -0.481072h 0.181345v 0.978455h 0.36269v 4.05302h 0.181345v -7.22531h 0.181345v 0.838593h
 0.181345v 4.51123h 0.181345v -1.12912h 0.181345v -0.533564h 0.181345v -1.49329h 0.181345v 1.49329h 0.181345v -0.514838h 0.181345v 1.0484h 0.181345v -1.0484h 0.36269v 1.0484h 0.181345v -0.533564h 0.181345v -3.68713h 0.181345v 8.62364h 0.181345v
 -4.93651h 0.181345v 2.2616h 0.181345v -1.17434h 0.181345v -5.56764h 0.181345v 5.56764h 0.181345v 8.06994h 0.181345v -6.8956h 0.181345v -5.94873h 0.181345v 8.62364h 0.181345v -8.21034h 0.181345v 3.27382h 0.181345v 0.533564h 0.181345v 1.12912h
 0.181345v -3.62178h 0.181345v 6.17978h 0.181345v 0.715819h 0.36269v -7.34707h 0.181345v 2.94412h 0.181345v 4.40295h 0.36269v -7.34707h 0.181345v 4.67216h 0.181345v -1.17434h 0.181345v -2.58056h 0.181345v 2.58056h 0.181345v -1.08727h 0.181345v
 -1.01222h 0.181345v 5.94873h 0.181345v -2.67491h 0.181345v -4.22069h 0.36269v -0.889447h 0.181345v 3.3821h 0.36269v 3.00462h 0.181345v -5.94873h 0.181345v 5.94873h 0.181345v -5.03147h 0.181345v 0.481072h 0.181345v -0.481072h 0.181345v -2.59582h
 0.181345v -1.85962h 0.181345v 3.98964h 0.181345v 3.04636h 0.181345v -7.036h 0.181345v 4.93651h 0.181345v -0.481072h 0.181345v 0.978455h 0.181345v -2.3337h 0.181345v 3.3821h 0.181345v -4.22069h 0.181345v -2.60683h 0.181345v 2.20485h 0.181345v
 0.401981h 0.181345v -3.27382h 0.181345v 7.49452h 0.181345v -9.33083h 0.181345v 7.78505h 0.181345v -2.67491h 0.181345v -0.401981h 0.181345v 3.57427h 0.181345v -5.4339h 0.181345v 1.46836h 0.181345v 3.96553h 0.181345v -2.75899h 0.181345v 2.75899h
 0.181345v -4.71808h 0.181345v 1.54578h 0.181345v 5.94873h 0.181345v -4.22069h 0.181345v -3.98964h 0.181345v 2.2616h 0.36269v -0.793241h 0.181345v 4.48037h 0.181345v -4.08911h 0.181345v 2.59582h 0.181345v 2.58056h 0.181345v -2.09949h 0.181345v
 -1.83632h 0.181345v -2.38438h 0.181345v 2.38438h 0.181345v 6.38672h 0.181345v -4.5504h 0.181345v -1.83632h 0.181345v 7.06923h 0.181345v -3.13343h 0.181345v -1.6021h 0.181345v 2.17753h 0.181345v 1.22332h 0.181345v 5.32433h 0.181345v -9.70363h
 0.181345v 9.70363h 0.181345v -9.70363h 0.181345v -0.91726h 0.181345v 8.09961h 0.181345v -2.15088h 0.181345v -1.27658h 0.36269v 1.95909h 0.181345v 3.1002h 0.181345v -5.6582h 0.181345v -1.66269h 0.181345v 3.53818h 0.181345v -4.05302h 0.181345v
 -1.44425h 0.181345v 8.44139h 0.181345v -4.22069h 0.181345v 4.22069h 0.181345v -1.54578h 0.181345v -3.27382h 0.181345v 2.55801h 0.181345v -3.13343h 0.181345v -0.553703h 0.181345v -1.0484h 0.181345v 4.05302h 0.181345v -3.00462h 0.181345v 3.68713h
 0.36269v 2.2616h 0.181345v -9.33083h 0.181345v 7.06923h 0.181345v -5.23291h 0.181345v 2.09949h 0.181345v 4.60179h 0.181345v -9.37619h 0.181345v 4.7744h 0.181345v 7.12307h 0.181345v -9.70363h 0.181345v 0.978455h 0.181345v 1.0484h 0.36269v 3.68713h
 0.181345v -3.68713h 0.181345v 3.00462h 0.181345v -4.5504h 0.181345v -3.46815h 0.181345v 5.56764h 0.181345v -3.9358h 0.181345v -2.01293h 0.181345v 2.90238h 0.36269v 4.8451h 0.181345v -1.79875h 0.181345v 3.84925h 0.181345v -6.42981h 0.181345v 3.7549h
 0.181345v 3.42745h 0.181345v -2.15088h 0.181345v 1.39833h 0.181345v -3.84925h 0.181345v 7.12307h 0.181345v -3.98964h 0.181345v -0.682513h 0.181345v 2.94412h 0.36269v -4.22069h 0.181345v 1.95909h 0.181345v 5.94873h 0.181345v 8.21034h 0.181345v
 -8.21034h 0.181345v -2.84854h 0.181345v 6.38672h 0.181345v -5.49727h 0.181345v -6.54765h 0.181345v 9.594h 0.181345v -1.08727h 0.181345v -2.84854h 0.181345v 11.0589h 0.181345v -15.4938h 0.181345v 15.4938h 0.181345v -9.22256h 0.181345v 11.1816h
 0.181345v -1.95909h 0.181345v -10.1694h 0.181345v 8.44139h 0.181345v -5.39503h 0.36269v -4.7744h 0.181345v 16.1182h 0.181345v -14.3901h 0.181345v 0.946869h 0.181345v 23.6127h 0.181345v -23.6127h 0.181345v -1.83632h 0.181345v 11.0589h 0.181345v
 -8.21034h 0.181345v 3.53818h 0.36269v -2.45091h 0.181345v -1.08727h 0.181345v 10.1694h 0.181345v 2.2616h 0.181345v -7.49452h 0.181345v 1.54578h 0.181345v -6.4823h 0.181345v 4.93651h 0.181345v 3.27382h 0.181345v -3.27382h 0.181345v -6.8956h 0.181345v
 -3.27382h 0.181345v 5.23291h 0.181345v 8.21034h 0.36269v -9.22256h 0.181345v 5.94873h 0.181345v -5.94873h 0.181345v 3.27382h 0.181345v 5.94873h 0.36269v -7.12307h 0.181345v -2.09949h 0.181345v 4.5504h 0.181345v -2.45091h 0.181345v -2.09949h
 0.181345v -2.67491h 0.181345v 4.7744h 0.36269v -1.08727h 0.181345v -5.94873h 0.181345v 8.21034h 0.181345v 1.27658h 0.181345v -4.5504h 0.181345v 4.5504h 0.181345v -7.22531h 0.36269v 0.838593h 0.544034v 3.9358h 0.181345v -1.08727h 0.181345v 10.1694h
 0.181345v 2.2616h 0.181345v -10.1694h 0.181345v 1.27658h 0.181345v -5.49727h 0.36269v 1.95909h 0.181345v 8.21034h 0.181345v -11.8975h 0.181345v -0.793241h 0.181345v 2.52128h 0.181345v -1.72804h 0.36269v 10.1694h 0.181345v -10.1694h 0.181345v 4.7744h
 0.181345v -7.036h 0.181345v 7.036h 0.181345v 2.45091h 0.181345v -4.5504h 0.181345v -1.83632h 0.181345v 1.83632h 0.544034v 9.22256h 0.181345v -11.8975h 0.181345v 7.22531h 0.181345v -2.45091h 0.181345v -3.04636h 0.181345v 4.22069h 0.181345v -1.17434h
 0.181345v 3.84925h 0.181345v -9.41688h 0.181345v 3.46815h 0.181345v -0.946869h 0.36269v 4.22069h 0.181345v -7.49452h 0.181345v -1.39833h 0.181345v 10.1694h 0.181345v -5.49727h 0.181345v -2.52128h 0.181345v 9.41688h 0.181345v -6.8956h 0.181345v
 5.49727h 0.181345v -3.53818h 0.181345v -4.48037h 0.181345v 10.9627h 0.181345v -6.4823h 0.181345v -2.84854h 0.36269v 1.83632h 0.181345v 3.27382h 0.181345v -5.94873h 0.181345v -4.22069h 0.181345v 5.94873h 0.181345v -2.52128h 0.181345v 0.793241h
 0.181345v 2.67491h 0.181345v -9.15721h 0.181345v 2.2616h 0.181345v 5.05929h 0.181345v -1.63183h 0.181345v -0.752544h 0.181345v -2.0505h 0.181345v -0.624408h 0.181345v 7.90782h 0.181345v -7.28341h 0.181345v 2.0505h 0.181345v 7.49452h 0.181345v
 -10.7683h 0.181345v 8.50674h 0.181345v -7.28341h 0.181345v 5.32433h 0.181345v 3.04636h 0.181345v -7.71851h 0.181345v 2.15088h 0.181345v -5.68906h 0.181345v 6.4823h 0.181345v 4.7744h 0.181345v -3.04636h 0.181345v -5.94873h 0.181345v -3.27382h
 0.181345v 7.49452h 0.181345v -4.81961h 0.181345v 3.27382h 0.181345v 5.23291h 0.181345v -6.63125h 0.181345v -4.5504h 0.181345v 1.01222h 0.181345v 6.4823h 0.181345v -5.39503h 0.181345v 2.45091h 0.181345v -0.652169h 0.181345v -2.35245h 0.181345v
 3.00462h 0.181345v 7.71851h 0.181345v -11.2567h 0.181345v 2.2616h 0.181345v -4.22069h 0.181345v 3.04636h 0.181345v -3.04636h 0.181345v 0.465797h 0.181345v 0.481072h 0.181345v 3.89823h 0.181345v -1.79875h 0.36269v 1.79875h 0.181345v 2.80304h
 0.181345v -7.64815h 0.181345v 6.17978h 0.181345v -7.49452h 0.181345v 5.53543h 0.181345v -4.22069h 0.181345v 2.49265h 0.181345v -0.533564h 0.181345v 8.21034h 0.181345v -7.67677h 0.181345v -2.49265h 0.181345v 3.62178h 0.181345v -0.575422h 0.181345v
 9.08216h 0.181345v -5.94873h 0.36269v -4.22069h 0.181345v 1.66269h 0.181345v 4.81961h 0.181345v -2.2616h 0.181345v -1.33468h 0.181345v 2.0505h 0.36269v 0.752544h 0.181345v 0.793241h 0.181345v -2.94412h 0.181345v 3.78271h 0.181345v 3.9358h 0.181345v
 -7.71851h 0.181345v 1.39833h 0.181345v 10.1694h 0.181345v -13.4433h 0.181345v 7.49452h 0.181345v 1.01222h 0.181345v -2.84854h 0.181345v 6.38672h 0.544034v -1.27658h 0.36269v 10.1694h 0.906724v 10.1694h 0.181345v -14.3901h 0.181345v -4.67216h
 0.181345v 4.67216h 0.181345v 6.8956h 0.181345v -2.67491h 0.181345v 2.67491h 0.181345v -2.67491h 0.181345v 16.1182h 0.36269v -18.3798h 0.181345v 8.21034h 0.181345v 10.1694h 0.181345v -5.94873h 0.181345v 16.1182h 0.181345v -16.1182h 0.36269v -4.22069h
 0.181345v 4.22069h 0.181345v 16.1182h 0.181345v -10.1694h 0.181345v -13.4433h 0.181345v 13.4433h 0.36269v -5.94873h 0.181345v 26.2876h 0.181345v -10.1694h 0.181345v -10.1694h 0.36269v 10.1694h 0.181345v -16.1182h 0.181345v 5.94873h 0.36269v 10.1694h
 0.181345v 10.1694h 0.181345v -20.3389h 0.181345v 10.1694h 0.181345v 10.1694h 0.544034v -20.3389h 0.181345v 20.3389h 0.36269v -10.1694h 0.181345v -20.3389h 0.181345v 20.3389h 0.181345v 10.1694h 0.181345v -10.1694h 0.181345v 10.1694h 0.36269v
 -10.1694h 0.181345v -20.3389h 0.181345v 4.22069h 0.181345v 5.94873h 0.181345v 20.3389h 0.181345v -26.2876h 0.181345v 26.2876h 0.181345v -20.3389h 0.725379v 20.3389h 0.181345v -10.1694h 0.181345v -16.1182h 0.181345v 5.94873h 0.544034v 10.1694h
 0.544034v -16.1182h 0.181345v 16.1182h 0.181345v -10.1694h 0.181345v -10.1694h 0.181345v 30.5083h 0.36269v -30.5083h 0.181345v 20.3389h 0.181345v -10.1694h 0.181345v -10.1694h 0.181345v 10.1694h 0.36269v 20.3389h 0.181345v -10.1694h 0.181345v
 -20.3389h 0.181345v 20.3389h 0.181345v 10.1694h 0.181345v -10.1694h 0.181345v -16.1182h 0.181345v 26.2876h 0.181345v -26.2876h 0.181345v 5.94873h 0.181345v 20.3389h 0.181345v -10.1694h 0.181345v -20.3389h 0.181345v 10.1694h 0.181345v -10.1694h
 0.181345v 20.3389h 0.181345v -16.1182h 0.181345v 5.94873h 0.36269v 10.1694h 0.181345v -16.1182h 0.36269v 16.1182h 0.544034v -10.1694h 0.181345v 10.1694h 0.181345v -16.1182h 0.36269v 5.94873h 0.181345v -10.1694h 0.181345v 20.3389h 0.181345v 10.1694h
 0.181345v -30.5083h 0.181345v 30.5083h 0.181345v -20.3389h 0.181345v 10.1694h 0.181345v -10.1694h 0.181345v 20.3389h 0.544034v -20.3389h 0.181345v 10.1694h 0.36269v 10.1694h 0.181345v -20.3389h 0.181345v 20.3389h 0.181345v -20.3389h 0.181345v
 20.3389h 0.36269v -10.1694h 0.181345v -16.1182h 0.181345v 26.2876h 0.181345v -26.2876h 0.181345v 5.94873h 0.181345v 10.1694h 0.181345v -16.1182h 0.181345v 5.94873h 0.181345v 10.1694h 0.36269v -16.1182h 0.181345v 16.1182h 0.36269v 10.1694h 0.181345v
 -20.3389h 0.181345v 10.1694h 0.181345v -23.6127h 0.181345v 23.6127h 0.725379v 10.1694h 0.36269v -10.1694h 0.181345v -10.1694h 0.36269v 20.3389h 0.181345v -20.3389h 0.181345v 10.1694h 0.544034v -10.1694h 0.181345v -16.1182h 0.181345v 36.457h
 0.181345v -20.3389h 0.544034v 10.1694h 0.181345v 10.1694h 0.36269v -10.1694h 0.181345v -10.1694h 0.36269v -10.1694h 0.36269v 20.3389h 0.181345v -16.1182h 0.36269v 5.94873h 0.725379v 10.1694h 0.181345v -10.1694h 0.36269v 10.1694h 0.181345v -10.1694h
 0.181345v -13.4433h 0.181345v 13.4433h 0.181345v 20.3389h 0.181345v -10.1694h 0.181345v -10.1694h 0.181345v 10.1694h 0.181345v 10.1694h 0.181345v -10.1694h 0.181345v -10.1694h 0.181345v 10.1694h 0.36269v -16.1182h 0.181345v 16.1182h 0.181345v
 -10.1694h 0.181345v 10.1694h 0.181345v -10.1694h 0.181345v -5.94873h 0.181345v 16.1182h 0.544034v -10.1694h 0.544034v 10.1694h 0.36269v -10.1694h 0.181345v 10.1694h 0.181345v -10.1694h 0.36269v 10.1694h 0.181345v 10.1694h 0.36269v -20.3389h 0.36269v
 -5.94873h 0.181345v 26.2876h 0.181345v -20.3389h 0.544034v 10.1694h 0.181345v -10.1694h 0.36269v 10.1694h 0.181345v 10.1694h 0.36269v -10.1694h 0.181345v -20.3389h 0.181345v 10.1694h 0.181345v 20.3389h 0.181345v -20.3389h 0.181345v 20.3389h 0.36269v
 -10.1694h 0.725379v -10.1694h 0.181345v 20.3389h 0.181345v -10.1694h 0.181345v -10.1694h 0.181345v 10.1694h 0.181345v 10.1694h 0.181345v -10.1694h 0.544034v 10.1694h 0.181345v -10.1694h 0.36269v 10.1694h 0.181345v -26.2876h 0.181345v 16.1182h
 0.181345v -10.1694h 0.181345v 20.3389h 0.36269v -26.2876h 0.181345v 16.1182h 0.36269v -20.3389h 0.181345v 20.3389h 0.181345v -16.1182h 0.181345v 16.1182h 0.181345v -10.1694h 0.181345v 20.3389h 0.181345v -10.1694h 0.181345v 10.1694h 0.544034v
 -10.1694h 0.181345v -10.1694h 0.36269v 10.1694h 0.181345v -10.1694h 0.181345v -5.94873h 0.181345v 5.94873h 0.181345v 10.1694h 0.181345v 10.1694h 0.544034v -26.2876h 0.181345" fill="none" stroke="black"/>
<path d="M57.1929,280.151h 453.543" fill="none" stroke="black"/>
<path d="M57.1929,272.68v 7.47068" fill="none" stroke="black"/>
<path d="M75.3318,276.415v 3.73534" fill="none" stroke="black"/>
<path d="M93.4707,276.415v 3.73534" fill="none" stroke="black"/>
<path d="M111.61,276.415v 3.73534" fill="none" stroke="black"/>
<path d="M129.749,276.415v 3.73534" fill="none" stroke="black"/>
<path d="M147.887,272.68v 7.47068" fill="none" stroke="black"/>
<path d="M166.026,276.415v 3.73534" fill="none" stroke="black"/>
<path d="M184.165,276.415v 3.73534" fill="none" stroke="black"/>
<path d="M202.304,276.415v 3.73534" fill="none" stroke="black"/>
<path d="M220.443,276.415v 3.73534" fill="none" stroke="black"/>
<path d="M238.582,272.68v 7.47068" fill="none" stroke="black"/>
<path d="M256.721,276.415v 3.73534" fill="none" stroke="black"/>
<path d="M274.86,276.415v 3.73534" fill="none" stroke="black"/>
<path d="M292.999,276.415v 3.73534" fill="none" stroke="black"/>
<path d="M311.138,276.415v 3.73534" fill="none" stroke="black"/>
<path d="M329.277,272.68v 7.47068" fill="none" stroke="black"/>
<path d="M347.415,276.415v 3.73534" fill="none" stroke="black"/>
<path d="M365.554,276.415v 3.73534" fill="none" stroke="black"/>
<path d="M383.693,276.415v 3.73534" fill="none" stroke="black"/>
<path d="M401.832,276.415v 3.73534" fill="none" stroke="black"/>
<path d="M419.971,272.68v 7.47068" fill="none" stroke="black"/>
<path d="M438.11,276.415v 3.73534" fill="none" stroke="black"/>
<path d="M456.249,276.415v 3.73534" fill="none" stroke="black"/>
<path d="M474.388,276.415v 3.73534" fill="none" stroke="black"/>
<path d="M492.527,276.415v 3.73534" fill="none" stroke="black"/>
<path d="M510.666,272.68v 7.47068" fill="none" stroke="black"/>
<path d="M510.666,272.68v 7.47068" fill="none" stroke="black"/>
<text xml:space="preserve" x="54.3523" y="290.27" fill="black" font-size="10.4952" font-family="Helvetica">0</text>
<text xml:space="preserve" x="139.569" y="290.27" fill="black" font-size="10.4952" font-family="Helvetica">500</text>
<text xml:space="preserve" x="227.449" y="290.27" fill="black" font-size="10.4952" font-family="Helvetica">1000</text>
<text xml:space="preserve" x="318.288" y="290.27" fill="black" font-size="10.4952" font-family="Helvetica">1500</text>
<text xml:space="preserve" x="408.831" y="290.27" fill="black" font-size="10.4952" font-family="Helvetica">2000</text>
<text xml:space="preserve" x="499.67" y="290.27" fill="black" font-size="10.4952" font-family="Helvetica">2500</text>
<text xml:space="preserve" x="265.323" y="301.218" fill="black" font-size="10.4952" font-family="Helvetica">Channel</text>
<path d="M57.1929,280.151v -249.023" fill="none" stroke="black"/>
<path d="M63.9961,280.151h -6.80315" fill="none" stroke="black"/>
<path d="M63.9961,277.476h -6.80315" fill="none" stroke="black"/>
<path d="M63.9961,275.214h -6.80315" fill="none" stroke="black"/>
<path d="M63.9961,273.255h -6.80315" fill="none" stroke="black"/>
<path d="M63.9961,271.527h -6.80315" fill="none" stroke="black"/>
<path d="M70.7992,269.981h -13.6063" fill="none" stroke="black"/>
<text xml:space="preserve" x="49.0263" y="273.7" fill="black" font-size="10.4952" font-family="Helvetica">1</text>
<path d="M63.9961,259.812h -6.80315" fill="none" stroke="black"/>
<path d="M63.9961,253.863h -6.80315" fill="none" stroke="black"/>
<path d="M63.9961,249.642h -6.80315" fill="none" stroke="black"/>
<path d="M63.9961,246.368h -6.80315" fill="none" stroke="black"/>
<path d="M63.9961,243.694h -6.80315" fill="none" stroke="black"/>
<path d="M63.9961,241.432h -6.80315" fill="none" stroke="black"/>
<path d="M63.9961,239.473h -6.80315" fill="none" stroke="black"/>
<path d="M63.9961,237.745h -6.80315" fill="none" stroke="black"/>
<path d="M70.7992,236.199h -13.6063" fill="none" stroke="black"/>
<text xml:space="preserve" x="41.629" y="239.968" fill="black" font-size="10.4952" font-family="Helvetica">10</text>
<path d="M63.9961,226.03h -6.80315" fill="none" stroke="black"/>
<path d="M63.9961,220.081h -6.80315" fill="none" stroke="black"/>
<path d="M63.9961,215.86h -6.80315" fill="none" stroke="black"/>
<path d="M63.9961,212.586h -6.80315" fill="none" stroke="black"/>
<path d="M63.9961,209.911h -6.80315" fill="none" stroke="black"/>
<path d="M63.9961,207.65h -6.80315" fill="none" stroke="black"/>
<path d="M63.9961,205.691h -6.80315" fill="none" stroke="black"/>
<path d="M63.9961,203.963h -6.80315" fill="none" stroke="black"/>
<path d="M70.7992,202.417h -13.6063" fill="none" stroke="black"/>
<text xml:space="preserve" x="49.0263" y="202.686" fill="black" font-size="7.16345" font-family="Helvetica">2</text>
<text xml:space="preserve" x="38.0783" y="207.124" fill="black" font-size="10.4952" font-family="Helvetica">10</text>
<path d="M63.9961,192.247h -6.80315" fill="none" stroke="black"/>
<path d="M63.9961,186.299h -6.80315" fill="none" stroke="black"/>
<path d="M63.9961,182.078h -6.80315" fill="none" stroke="black"/>
<path d="M63.9961,178.804h -6.80315" fill="none" stroke="black"/>
<path d="M63.9961,176.129h -6.80315" fill="none" stroke="black"/>
<path d="M63.9961,173.868h -6.80315" fill="none" stroke="black"/>
<path d="M63.9961,171.909h -6.80315" fill="none" stroke="black"/>
<path d="M63.9961,170.181h -6.80315" fill="none" stroke="black"/>
<path d="M70.7992,168.635h -13.6063" fill="none" stroke="black"/>
<text xml:space="preserve" x="49.0263" y="168.363" fill="black" font-size="7.16345" font-family="Helvetica">3</text>
<text xml:space="preserve" x="38.0783" y="173.097" fill="black" font-size="10.4952" font-family="Helvetica">10</text>
<path d="M63.9961,158.465h -6.80315" fill="none" stroke="black"/>
<path d="M63.9961,152.517h -6.80315" fill="none" stroke="black"/>
<path d="M63.9961,148.296h -6.80315" fill="none" stroke="black"/>
<path d="M63.9961,145.022h -6.80315" fill="none" stroke="black"/>
<path d="M63.9961,142.347h -6.80315" fill="none" stroke="black"/>
<path d="M63.9961,140.086h -6.80315" fill="none" stroke="black"/>
<path d="M63.9961,138.127h -6.80315" fill="none" stroke="black"/>
<path d="M63.9961,136.398h -6.80315" fill="none" stroke="black"/>
<path d="M70.7992,134.853h -13.6063" fill="none" stroke="black"/>
<text xml:space="preserve" x="49.0263" y="134.927" fill="black" font-size="7.16345" font-family="Helvetica">4</text>
<text xml:space="preserve" x="38.0783" y="139.365" fill="black" font-size="10.4952" font-family="Helvetica">10</text>
<path d="M63.9961,124.683h -6.80315" fill="none" stroke="black"/>
<path d="M63.9961,118.735h -6.80315" fill="none" stroke="black"/>
<path d="M63.9961,114.514h -6.80315" fill="none" stroke="black"/>
<path d="M63.9961,111.24h -6.80315" fill="none" stroke="black"/>
<path d="M63.9961,108.565h -6.80315" fill="none" stroke="black"/>
<path d="M63.9961,106.304h -6.80315" fill="none" stroke="black"/>
<path d="M63.9961,104.344h -6.80315" fill="none" stroke="black"/>
<path d="M63.9961,102.616h -6.80315" fill="none" stroke="black"/>
<path d="M70.7992,101.071h -13.6063" fill="none" stroke="black"/>
<text xml:space="preserve" x="49.0263" y="100.899" fill="black" font-size="7.16345" font-family="Helvetica">5</text>
<text xml:space="preserve" x="38.0783" y="105.633" fill="black" font-size="10.4952" font-family="Helvetica">10</text>
<path d="M63.9961,90.9012h -6.80315" fill="none" stroke="black"/>
<path d="M63.9961,84.9525h -6.80315" fill="none" stroke="black"/>
<path d="M63.9961,80.7318h -6.80315" fill="none" stroke="black"/>
<path d="M63.9961,77.4579h -6.80315" fill="none" stroke="black"/>
<path d="M63.9961,74.783h -6.80315" fill="none" stroke="black"/>
<path d="M63.9961,72.5214h -6.80315" fill="none" stroke="black"/>
<path d="M63.9961,70.5623h -6.80315" fill="none" stroke="black"/>
<path d="M63.9961,68.8343h -6.80315" fill="none" stroke="black"/>
<path d="M70.7992,67.2885h -13.6063" fill="none" stroke="black"/>
<text xml:space="preserve" x="49.0263" y="67.1675" fill="black" font-size="7.16345" font-family="Helvetica">6</text>
<text xml:space="preserve" x="38.0783" y="71.9018" fill="black" font-size="10.4952" font-family="Helvetica">10</text>
<path d="M63.9961,57.1191h -6.80315" fill="none" stroke="black"/>
<path d="M63.9961,51.1704h -6.80315" fill="none" stroke="black"/>
<path d="M63.9961,46.9497h -6.80315" fill="none" stroke="black"/>
<path d="M63.9961,43.6758h -6.80315" fill="none" stroke="black"/>
<path d="M63.9961,41.0009h -6.80315" fill="none" stroke="black"/>
<path d="M63.9961,38.7393h -6.80315" fill="none" stroke="black"/>
<path d="M63.9961,36.7802h -6.80315" fill="none" stroke="black"/>
<path d="M63.9961,35.0522h -6.80315" fill="none" stroke="black"/>
<path d="M70.7992,33.5064h -13.6063" fill="none" stroke="black"/>
<text xml:space="preserve" x="49.0263" y="33.7317" fill="black" font-size="7.16345" font-family="Helvetica">7</text>
<text xml:space="preserve" x="38.0783" y="38.1701" fill="black" font-size="10.4952" font-family="Helvetica">10</text>
<g transform="rotate(-90,26.5385,191.442)">
<text xml:space="preserve" x="26.5385" y="191.442" fill="black" font-size="10.4952" font-family="Helvetica">Counts/Channel</text>
</g>
<text xml:space="preserve" x="404.097" y="67.1675" fill="black" font-size="14.7788" font-family="Helvetica" font-weight="bold"> = 2.4879 MeV</text>
<text xml:space="preserve" x="398.179" y="70.4223" fill="black" font-size="10.0192" font-family="Helvetica" font-weight="bold">p</text>
<text xml:space="preserve" x="389.006" y="67.1675" fill="black" font-size="14.7788" font-family="Helvetica" font-weight="bold">E</text>
<path d="M262.163,167.236v 25.2632" fill="none" stroke="black"/>
<path d="M264.454,192.5l -2.29122, 3.9685l -2.29122, -3.9685z" fill="black"/>
<path d="M264.454,192.5l -2.29122, 3.9685l -2.29122, -3.9685h 4.58243z" fill="none" stroke="black"/>
<text xml:space="preserve" x="266.803" y="165.108" fill="black" font-size="10.4952" font-family="Helvetica" font-weight="bold">_1 	1.369 MeV</text>
<text xml:space="preserve" x="260.293" y="165.108" fill="black" font-size="10.4952" font-family="Times">&#0945;</text>
<path d="M184.528,134.853v 29.8136" fill="none" stroke="black"/>
<path d="M186.819,164.666l -2.29122, 3.9685l -2.29122, -3.9685z" fill="black"/>
<path d="M186.819,164.666l -2.29122, 3.9685l -2.29122, -3.9685h 4.58243z" fill="none" stroke="black"/>
<text xml:space="preserve" x="172.117" y="131.968" fill="black" font-size="10.4952" font-family="Helvetica" font-weight="bold"># p_1 	0.844 MeV</text>
<path d="M210.104,152.517v 12.1497" fill="none" stroke="black"/>
<path d="M212.395,164.666l -2.29122, 3.9685l -2.29122, -3.9685z" fill="black"/>
<path d="M212.395,164.666l -2.29122, 3.9685l -2.29122, -3.9685h 4.58243z" fill="none" stroke="black"/>
<text xml:space="preserve" x="197.564" y="148.242" fill="black" font-size="10.4952" font-family="Helvetica" font-weight="bold"># p_2 	1.015 MeV</text>
<path d="M497.997,269.981h 12.6684" fill="none" stroke="black"/>
<path d="M504.331,259.812h 6.33421" fill="none" stroke="black"/>
<path d="M504.331,253.863h 6.33421" fill="none" stroke="black"/>
<path d="M504.331,249.642h 6.33421" fill="none" stroke="black"/>
<path d="M504.331,246.368h 6.33421" fill="none" stroke="black"/>
<path d="M504.331,243.694h 6.33421" fill="none" stroke="black"/>
<path d="M504.331,241.432h 6.33421" fill="none" stroke="black"/>
<path d="M504.331,239.473h 6.33421" fill="none" stroke="black"/>
<path d="M504.331,237.745h 6.33421" fill="none" stroke="black"/>
<path d="M497.997,236.199h 12.6684" fill="none" stroke="black"/>
<path d="M504.331,226.03h 6.33421" fill="none" stroke="black"/>
<path d="M504.331,220.081h 6.33421" fill="none" stroke="black"/>
<path d="M504.331,215.86h 6.33421" fill="none" stroke="black"/>
<path d="M504.331,212.586h 6.33421" fill="none" stroke="black"/>
<path d="M504.331,209.911h 6.33421" fill="none" stroke="black"/>
<path d="M504.331,207.65h 6.33421" fill="none" stroke="black"/>
<path d="M504.331,205.691h 6.33421" fill="none" stroke="black"/>
<path d="M504.331,203.963h 6.33421" fill="none" stroke="black"/>
<path d="M497.997,202.417h 12.6684" fill="none" stroke="black"/>
<path d="M504.331,192.247h 6.33421" fill="none" stroke="black"/>
<path d="M504.331,186.299h 6.33421" fill="none" stroke="black"/>
<path d="M504.331,182.078h 6.33421" fill="none" stroke="black"/>
<path d="M504.331,178.804h 6.33421" fill="none" stroke="black"/>
<path d="M504.331,176.129h 6.33421" fill="none" stroke="black"/>
<path d="M504.331,173.868h 6.33421" fill="none" stroke="black"/>
<path d="M504.331,171.909h 6.33421" fill="none" stroke="black"/>
<path d="M504.331,170.181h 6.33421" fill="none" stroke="black"/>
<path d="M497.997,168.635h 12.6684" fill="none" stroke="black"/>
<path d="M504.331,158.465h 6.33421" fill="none" stroke="black"/>
<path d="M504.331,152.517h 6.33421" fill="none" stroke="black"/>
<path d="M504.331,148.296h 6.33421" fill="none" stroke="black"/>
<path d="M504.331,145.022h 6.33421" fill="none" stroke="black"/>
<path d="M504.331,142.347h 6.33421" fill="none" stroke="black"/>
<path d="M504.331,140.086h 6.33421" fill="none" stroke="black"/>
<path d="M504.331,138.127h 6.33421" fill="none" stroke="black"/>
<path d="M504.331,136.398h 6.33421" fill="none" stroke="black"/>
<path d="M497.997,134.853h 12.6684" fill="none" stroke="black"/>
<path d="M504.331,124.683h 6.33421" fill="none" stroke="black"/>
<path d="M504.331,118.735h 6.33421" fill="none" stroke="black"/>
<path d="M504.331,114.514h 6.33421" fill="none" stroke="black"/>
<path d="M504.331,111.24h 6.33421" fill="none" stroke="black"/>
<path d="M504.331,108.565h 6.33421" fill="none" stroke="black"/>
<path d="M504.331,106.304h 6.33421" fill="none" stroke="black"/>
<path d="M504.331,104.344h 6.33421" fill="none" stroke="black"/>
<path d="M504.331,102.616h 6.33421" fill="none" stroke="black"/>
<path d="M497.997,101.071h 12.6684" fill="none" stroke="black"/>
<path d="M504.331,90.9012h 6.33421" fill="none" stroke="black"/>
<path d="M504.331,84.9525h 6.33421" fill="none" stroke="black"/>
<path d="M504.331,80.7318h 6.33421" fill="none" stroke="black"/>
<path d="M504.331,77.4579h 6.33421" fill="none" stroke="black"/>
<path d="M504.331,74.783h 6.33421" fill="none" stroke="black"/>
<path d="M504.331,72.5214h 6.33421" fill="none" stroke="black"/>
<path d="M504.331,70.5623h 6.33421" fill="none" stroke="black"/>
<path d="M504.331,68.8343h 6.33421" fill="none" stroke="black"/>
<path d="M497.997,67.2885h 12.6684" fill="none" stroke="black"/>
<path d="M504.331,57.1191h 6.33421" fill="none" stroke="black"/>
<path d="M504.331,51.1704h 6.33421" fill="none" stroke="black"/>
<path d="M504.331,46.9497h 6.33421" fill="none" stroke="black"/>
<path d="M504.331,43.6758h 6.33421" fill="none" stroke="black"/>
<path d="M504.331,41.0009h 6.33421" fill="none" stroke="black"/>
<path d="M504.331,38.7393h 6.33421" fill="none" stroke="black"/>
<path d="M57.1929,45.5932v -7.46952" fill="none" stroke="black"/>
<path d="M75.3318,45.5932v -7.46952" fill="none" stroke="black"/>
<path d="M93.4707,45.5932v -7.46952" fill="none" stroke="black"/>
<path d="M111.61,45.5932v -7.46952" fill="none" stroke="black"/>
<path d="M129.749,45.5932v -7.46952" fill="none" stroke="black"/>
<path d="M147.887,45.5932v -7.46952" fill="none" stroke="black"/>
<path d="M166.026,45.5932v -7.46952" fill="none" stroke="black"/>
<path d="M184.165,45.5932v -7.46952" fill="none" stroke="black"/>
<path d="M202.304,45.5932v -7.46952" fill="none" stroke="black"/>
<path d="M220.443,45.5932v -7.46952" fill="none" stroke="black"/>
<path d="M238.582,45.5932v -7.46952" fill="none" stroke="black"/>
<path d="M256.721,45.5932v -7.46952" fill="none" stroke="black"/>
<path d="M274.86,45.5932v -7.46952" fill="none" stroke="black"/>
<path d="M292.999,45.5932v -7.46952" fill="none" stroke="black"/>
<path d="M311.138,45.5932v -7.46952" fill="none" stroke="black"/>
<path d="M329.277,45.5932v -7.46952" fill="none" stroke="black"/>
<path d="M347.415,45.5932v -7.46952" fill="none" stroke="black"/>
<path d="M365.554,45.5932v -7.46952" fill="none" stroke="black"/>
<path d="M383.693,45.5932v -7.46952" fill="none" stroke="black"/>
<path d="M401.832,45.5932v -7.46952" fill="none" stroke="black"/>
<path d="M419.971,45.5932v -7.46952" fill="none" stroke="black"/>
<path d="M438.11,45.5932v -7.46952" fill="none" stroke="black"/>
<path d="M456.249,45.5932v -7.46952" fill="none" stroke="black"/>
<path d="M474.388,45.5932v -7.46952" fill="none" stroke="black"/>
<path d="M492.527,45.5932v -7.46952" fill="none" stroke="black"/>
<path d="M510.666,45.5932v -7.46952" fill="none" stroke="black"/></svg>
