<?xml version="1.0" standalone="no"?>
<svg width="567.429" height="311.778" viewBox="0 0 567.429 311.778" xmlns="http://www.w3.org/2000/svg" shape-rendering="crispEdges">
<title>
Yields/P1/det-3/run_0101_Fit.svg
</title>
<desc>
Creator: ROOT Version 6.12/06
CreationDate: Mon Apr 15 10:29:01 2019</desc>
<defs>
</defs>
<rect x="0.5" y="0" width="566.929" height="311.278" fill="white"/>
<rect x="57.1929" y="31.1278" width="453.543" height="249.023" fill="white"/>
<rect x="57.1929" y="31.1278" width="453.543" height="249.023" fill="none" stroke="black"/>
<rect x="57.1929" y="31.1278" width="453.543" height="249.023" fill="white"/>
<rect x="57.1929" y="31.1278" width="453.543" height="249.023" fill="none" stroke="black"/>
<path d="M57.1929,40.8893h 0.181345v 239.261h 0.906724v -10.5873h 0.181345v 10.5873h 2.35748v -10.5873h 0.181345v 10.5873h 3.08286v -10.5873h 0.181345v 10.5873h 5.80303v -10.5873h 0.181345v 10.5873h 1.45076v -10.5873h 0.181345v 10.5873h 7.25379v
 -10.5873h 0.181345v 10.5873h 1.26941v -10.5873h 0.181345v 10.5873h 4.17093v -10.5873h 0.181345v 10.5873h 2.72017v -10.5873h 0.181345v -10.5873h 0.181345v 21.1746h 0.36269v -10.5873h 0.544034v -29.7222h 0.181345v -20.0426h 0.181345v -16.7804h
 0.181345v -9.67963h 0.181345v -7.03539h 0.181345v -5.17676h 0.181345v -2.76924h 0.181345v -1.97125h 0.181345v -1.05838h 0.181345v -1.4616h 0.181345v -1.06542h 0.181345v -0.0540681h 0.181345v -2.5537h 0.181345v 0.0686483h 0.181345v -0.804092h
 0.181345v -0.0217427h 0.181345v -0.194304h 0.181345v -2.26848h 0.181345v 0.875226h 0.181345v -0.745231h 0.181345v 0.377627h 0.181345v -0.133234h 0.181345v -1.21967h 0.181345v 0.353995h 0.181345v -0.785255h 0.181345v -0.135471h 0.181345v 0.340956h
 0.181345v -0.357806h 0.181345v 0.135321h 0.181345v -0.0339427h 0.181345v -0.06766h 0.181345v 0.620008h 0.181345v -1.55295h 0.181345v 0.715094h 0.181345v 0.421733h 0.181345v 0.32849h 0.181345v -0.882756h 0.181345v -0.989898h 0.181345v 1.02292h
 0.181345v 0.216423h 0.181345v -0.863732h 0.181345v 0.207382h 0.181345v 0.807999h 0.181345v -0.401097h 0.181345v -0.24544h 0.181345v 0.0162405h 0.181345v 0.378379h 0.181345v -0.066482h 0.181345v 0.782592h 0.181345v 0.861759h 0.181345v -0.490707h
 0.181345v -0.248367h 0.181345v 1.71131h 0.181345v -2.28125h 0.181345v 0.429804h 0.181345v 0.26381h 0.181345v 0.970408h 0.181345v -0.0377607h 0.181345v 0.170663h 0.181345v -0.113987h 0.181345v 0.152173h 0.181345v -1.1415h 0.181345v -1.27572h
 0.181345v -0.146166h 0.181345v -1.75408h 0.181345v -1.81824h 0.181345v -3.7073h 0.181345v -2.68076h 0.181345v -2.58139h 0.181345v -3.35135h 0.181345v -2.98337h 0.181345v -2.50675h 0.181345v -1.80613h 0.181345v -1.60221h 0.181345v -0.984779h
 0.181345v -0.46231h 0.181345v 0.319476h 0.181345v 0.52119h 0.181345v 1.53999h 0.181345v 1.78126h 0.181345v 3.14401h 0.181345v 2.03424h 0.181345v 3.98444h 0.181345v 3.75755h 0.181345v 3.87926h 0.181345v 4.32183h 0.181345v 3.2535h 0.181345v 4.28802h
 0.181345v 2.10369h 0.181345v 1.88135h 0.181345v 0.932049h 0.181345v 1.5522h 0.181345v 0.502105h 0.181345v 0.317398h 0.181345v 0.697199h 0.181345v 0.0420199h 0.181345v -0.29174h 0.181345v -2.04475h 0.181345v 3.0691h 0.181345v -1.59163h 0.181345v
 -0.431393h 0.181345v 0.875325h 0.181345v 0.457222h 0.181345v 0.298251h 0.181345v 0.52524h 0.181345v -1.07458h 0.181345v 0.125028h 0.181345v 1.26449h 0.181345v -0.883149h 0.181345v 1.86892h 0.181345v -1.82596h 0.181345v -0.590789h 0.181345v 1.70619h
 0.181345v -0.767256h 0.181345v -0.646396h 0.181345v 0.912814h 0.181345v -0.13379h 0.181345v 0.13379h 0.181345v 1.45579h 0.181345v -1.54511h 0.181345v 1.10798h 0.181345v 0.887139h 0.181345v 1.83079h 0.181345v -2.57361h 0.181345v 0.541172h 0.181345v
 0.100489h 0.181345v 1.64856h 0.181345v -0.551476h 0.36269v -0.584476h 0.181345v 1.13595h 0.181345v -1.34306h 0.181345v 2.87767h 0.181345v -0.548833h 0.181345v 0.862483h 0.181345v -2.0158h 0.181345v -0.383932h 0.181345v -0.740072h 0.181345v 2.70248h
 0.181345v -1.2982h 0.181345v -0.555487h 0.181345v 1.79223h 0.181345v 0.435547h 0.181345v -1.03697h 0.181345v -1.13615h 0.181345v 2.29988h 0.181345v -1.22259h 0.181345v 0.117948h 0.181345v -2.04699h 0.181345v 1.8704h 0.181345v 0.6577h 0.181345v
 -1.28824h 0.181345v 0.807127h 0.181345v 0.977884h 0.181345v 0.448332h 0.181345v 0.0651353h 0.181345v 1.58032h 0.181345v -1.64545h 0.181345v 0.938185h 0.181345v -1.06763h 0.181345v -0.318889h 0.181345v 2.09378h 0.181345v 0.14547h 0.181345v -1.26189h
 0.181345v -0.133985h 0.181345v -0.264495h 0.181345v 0.946493h 0.181345v -1.46213h 0.181345v 2.1031h 0.181345v -0.430288h 0.181345v -1.6093h 0.181345v 1.25976h 0.181345v 0.707266h 0.181345v -0.913213h 0.36269v -0.535992h 0.181345v -0.51782h 0.181345v
 2.18575h 0.181345v -2.12198h 0.181345v 1.90325h 0.181345v -0.913213h 0.181345v -0.601688h 0.181345v 0.738677h 0.181345v -1.25431h 0.181345v 1.04929h 0.181345v -2.09042h 0.181345v -1.1404h 0.181345v -0.906589h 0.181345v 0.313865h 0.181345v -0.468411h
 0.181345v -1.87857h 0.181345v 0.0909182h 0.181345v -1.80411h 0.181345v 1.89557h 0.181345v 0.418498h 0.181345v -1.77808h 0.181345v 0.996969h 0.181345v 1.50514h 0.181345v 2.17435h 0.181345v -0.669051h 0.181345v 0.555487h 0.181345v 2.25117h 0.181345v
 -1.61585h 0.181345v 1.35586h 0.181345v 1.99362h 0.181345v -0.146166h 0.181345v -0.0725617h 0.181345v 1.60126h 0.181345v -0.474884h 0.181345v -1.27047h 0.181345v 1.42713h 0.181345v 1.14406h 0.181345v -1.37845h 0.181345v 1.63517h 0.181345v -1.86601h
 0.181345v 1.95255h 0.181345v -0.343255h 0.181345v -0.335711h 0.181345v -0.570304h 0.36269v -0.394705h 0.181345v -0.834035h 0.181345v 1.63392h 0.181345v -0.0818995h 0.181345v -0.71798h 0.181345v -0.760068h 0.181345v 0.299504h 0.181345v 0.228546h
 0.181345v -0.675628h 0.181345v -1.33515h 0.181345v 1.26189h 0.181345v 0.596143h 0.181345v 1.68548h 0.181345v -2.71394h 0.181345v 0.142751h 0.181345v 0.216659h 0.181345v 3.31769h 0.181345v -2.26388h 0.181345v 0.474884h 0.181345v -1.30892h 0.181345v
 -0.364557h 0.181345v -0.426285h 0.181345v 3.35588h 0.181345v -0.345195h 0.181345v -2.21985h 0.181345v -1.27359h 0.181345v -0.857957h 0.181345v -0.751342h 0.181345v 1.81433h 0.181345v 0.776224h 0.181345v -2.59055h 0.181345v 0.371052h 0.181345v
 -0.309832h 0.181345v 0.309832h 0.181345v 1.72099h 0.181345v -0.277721h 0.181345v 2.45808h 0.181345v -2.25027h 0.181345v -1.1419h 0.181345v 2.37612h 0.181345v -0.0754284h 0.181345v 1.01088h 0.181345v -2.44613h 0.181345v 2.60776h 0.181345v 0.495423h
 0.181345v 0.425493h 0.181345v -1.63517h 0.181345v 0.472436h 0.181345v 0.991107h 0.181345v 1.43021h 0.181345v -2.26054h 0.181345v 2.35453h 0.181345v -1.69392h 0.181345v 2.46746h 0.181345v -1.23784h 0.181345v -1.39747h 0.181345v -0.733303h 0.181345v
 0.403037h 0.181345v 1.45579h 0.181345v 0.0901136h 0.181345v -3.17153h 0.181345v 2.37903h 0.181345v -1.93195h 0.181345v 3.18317h 0.181345v 3.66664h 0.181345v -4.30506h 0.181345v -0.783465h 0.181345v 0.430288h 0.181345v -2.267h 0.181345v 2.44257h
 0.181345v -0.2626h 0.181345v 2.95938h 0.181345v -1.88076h 0.181345v -0.368071h 0.181345v -0.270347h 0.181345v -0.0890627h 0.181345v -0.437687h 0.181345v 0.0865397h 0.181345v -0.512033h 0.181345v 2.45276h 0.181345v -0.674681h 0.181345v -1.26604h
 0.181345v -0.844094h 0.181345v 1.37389h 0.181345v 0.455981h 0.181345v -1.66474h 0.181345v 2.42386h 0.181345v -2.83339h 0.181345v 0.745231h 0.181345v 1.23674h 0.181345v -1.57245h 0.181345v -0.965008h 0.181345v 1.99512h 0.181345v -0.946874h 0.181345v
 -0.81265h 0.181345v 0.9805h 0.181345v -0.821392h 0.181345v 0.241813h 0.181345v 1.53725h 0.181345v -1.20876h 0.181345v -0.32849h 0.181345v 0.245703h 0.181345v 2.40967h 0.181345v -1.02801h 0.181345v -0.87807h 0.181345v -0.749294h 0.181345v -0.0810305h
 0.181345v -0.555487h 0.181345v 0.474884h 0.181345v 0.243096h 0.181345v -1.32903h 0.181345v 1.99686h 0.181345v -2.72783h 0.181345v 2.55811h 0.181345v -0.498116h 0.181345v -1.91657h 0.181345v 0.364557h 0.181345v 0.222985h 0.181345v 0.925994h 0.181345v
 -0.699705h 0.181345v 0.541421h 0.181345v -0.46524h 0.181345v 0.38671h 0.181345v 0.157468h 0.181345v 0.564283h 0.181345v 0.844094h 0.181345v -1.72171h 0.181345v 1.20967h 0.181345v 0.86318h 0.181345v -1.19524h 0.181345v 0.165128h 0.181345v 1.11918h
 0.181345v 0.825834h 0.181345v -2.43513h 0.181345v 1.97084h 0.181345v 2.80312h 0.181345v -1.2648h 0.181345v -1.44659h 0.181345v -0.806451h 0.181345v -0.0870328h 0.181345v 0.985775h 0.181345v -0.723175h 0.181345v -0.858328h 0.181345v 1.21564h
 0.181345v 1.32082h 0.181345v -1.23017h 0.181345v 2.24883h 0.181345v -0.51782h 0.181345v 0.729965h 0.181345v 0.766609h 0.181345v -2.48235h 0.181345v 1.1908h 0.36269v 1.17965h 0.36269v 0.56788h 0.181345v -0.229692h 0.181345v -1.41428h 0.181345v
 -0.907646h 0.181345v 1.98374h 0.181345v 0.1119h 0.181345v -0.87305h 0.181345v -0.210682h 0.181345v 0.317123h 0.181345v -0.831455h 0.181345v 2.64386h 0.181345v 1.3838h 0.181345v -2.2033h 0.181345v 1.68548h 0.181345v -0.865977h 0.181345v -1.70521h
 0.181345v 0.772146h 0.181345v 0.694402h 0.181345v -0.580839h 0.181345v 1.9422h 0.181345v 1.07231h 0.181345v -1.32903h 0.181345v -1.91177h 0.181345v 2.29848h 0.181345v -3.79505h 0.181345v 3.40834h 0.181345v 0.51782h 0.181345v -2.42959h 0.181345v
 1.16654h 0.181345v 2.49662h 0.181345v -2.37491h 0.181345v 2.23282h 0.181345v 0.430288h 0.181345v -4.17434h 0.181345v 2.39147h 0.181345v 0.261104h 0.181345v -1.50359h 0.181345v -0.118866h 0.181345v 2.29544h 0.181345v 0.138229h 0.181345v 0.139492h
 0.181345v -0.41471h 0.181345v -0.797096h 0.181345v 1.92904h 0.181345v -0.576454h 0.181345v -1.22259h 0.181345v 1.79904h 0.181345v -2.31251h 0.181345v 2.46009h 0.181345v -2.95686h 0.181345v 0.623524h 0.181345v -0.745231h 0.181345v 2.49662h 0.181345v
 -1.36468h 0.181345v -1.01023h 0.181345v 1.67734h 0.181345v -0.535992h 0.181345v -2.31686h 0.181345v 0.933066h 0.181345v 3.05173h 0.181345v -1.26771h 0.181345v -1.54156h 0.181345v 1.27359h 0.181345v -1.02722h 0.181345v 1.2952h 0.181345v -1.2952h
 0.181345v -0.608615h 0.181345v 0.733303h 0.181345v 0.380291h 0.181345v 0.258891h 0.181345v 0.531331h 0.181345v -1.66327h 0.181345v 1.13194h 0.181345v -0.639182h 0.181345v 2.73482h 0.181345v -1.69888h 0.181345v 0.134575h 0.181345v -1.2952h 0.181345v
 0.124688h 0.181345v -0.852169h 0.181345v 2.29544h 0.181345v -1.06298h 0.181345v 1.62357h 0.181345v 0.143421h 0.181345v -0.426285h 0.181345v -0.277721h 0.181345v -0.804092h 0.181345v 2.55162h 0.181345v -3.31549h 0.181345v 2.12855h 0.181345v
 -0.967921h 0.181345v 2.15486h 0.181345v -3.68356h 0.181345v 0.244393h 0.181345v 0.500839h 0.181345v 0.256716h 0.181345v 0.934086h 0.181345v 0.560585h 0.181345v -0.560585h 0.181345v -2.05678h 0.181345v -0.238664h 0.181345v 2.02268h 0.181345v -1.2952h
 0.181345v -1.75759h 0.181345v 2.78482h 0.181345v -2.22113h 0.181345v -1.31946h 0.181345v -1.11689h 0.181345v 1.01191h 0.181345v -0.104261h 0.181345v -1.76437h 0.181345v 1.25348h 0.181345v 1.03946h 0.181345v -1.6308h 0.181345v -1.64792h 0.544034v
 0.174564h 0.181345v -0.686597h 0.181345v 0.599066h 0.181345v -0.430288h 0.181345v 0.783465h 0.181345v -0.0890627h 0.181345v 0.542337h 0.181345v -0.273575h 0.181345v 1.92382h 0.181345v -1.92382h 0.181345v 0.365867h 0.181345v 0.565776h 0.36269v
 1.51354h 0.181345v -2.97805h 0.181345v 0.0875316h 0.181345v -0.261104h 0.181345v 0.34914h 0.181345v 1.5799h 0.181345v -0.76387h 0.36269v -1.25122h 0.181345v -1.54911h 0.181345v 0.795712h 0.181345v -0.0814627h 0.181345v -3.66614h 0.181345v 0.388348h
 0.181345v -1.25785h 0.181345v -0.2396h 0.181345v -3.10825h 0.181345v -0.524283h 0.181345v -2.42132h 0.181345v -0.588297h 0.181345v -2.44768h 0.181345v -1.37812h 0.181345v -0.901309h 0.181345v -1.1158h 0.181345v -0.642408h 0.181345v -0.998352h
 0.181345v 0.309543h 0.181345v -0.496959h 0.181345v -0.660733h 0.181345v 1.0857h 0.181345v -1.15245h 0.181345v -0.630627h 0.181345v 1.59274h 0.181345v 0.602849h 0.181345v -1.09148h 0.181345v 1.92551h 0.181345v 1.2161h 0.181345v 1.97943h 0.181345v
 1.30285h 0.181345v 1.08373h 0.181345v 3.33365h 0.181345v 0.0934206h 0.181345v 3.57322h 0.181345v -0.637726h 0.181345v 3.21089h 0.181345v -0.208762h 0.181345v 3.13436h 0.181345v 0.51782h 0.181345v 3.65167h 0.181345v -0.111086h 0.36269v 2.78482h
 0.181345v 0.1334h 0.181345v -0.526749h 0.181345v 2.07662h 0.181345v -0.147578h 0.181345v -0.576454h 0.181345v 1.02354h 0.181345v -1.02354h 0.181345v 1.79904h 0.181345v -0.470013h 0.181345v 1.45579h 0.181345v -4.00741h 0.181345v 5.42929h 0.181345v
 -5.42929h 0.181345v 1.79904h 0.181345v 0.296596h 0.181345v -0.296596h 0.181345v 0.599066h 0.181345v -0.599066h 0.181345v -0.290946h 0.181345v 1.19859h 0.181345v 0.15666h 0.181345v -1.49867h 0.181345v 3.69654h 0.181345v -1.22259h 0.181345v 0.512033h
 0.36269v -0.172592h 0.181345v 2.21218h 0.181345v -3.5269h 0.181345v -0.311729h 0.181345v 0.791587h 0.181345v 2.08608h 0.181345v -3.77641h 0.181345v 1.69033h 0.181345v 1.71801h 0.181345v -2.96558h 0.181345v 3.14851h 0.181345v -3.59127h 0.181345v
 3.22758h 0.181345v -1.53725h 0.181345v 1.3586h 0.181345v 0.35941h 0.181345v -1.38952h 0.36269v 1.75759h 0.36269v 2.63652h 0.181345v -3.0046h 0.36269v -1.55465h 0.181345v 0.844094h 0.181345v -1.64397h 0.181345v 2.17377h 0.181345v 0.180762h 0.181345v
 -0.35941h 0.181345v 4.99792h 0.181345v -4.99792h 0.181345v -2.60617h 0.181345v 2.08243h 0.181345v -0.834864h 0.36269v 2.08608h 0.181345v -0.185144h 0.181345v 1.1461h 0.181345v -1.68844h 0.181345v 1.29677h 0.181345v -0.754436h 0.181345v -2.84604h
 0.181345v 3.40834h 0.181345v 1.1908h 0.181345v -1.75311h 0.181345v -0.542337h 0.181345v -1.03011h 0.181345v 0.678966h 0.181345v -1.95255h 0.181345v 4.19181h 0.36269v -0.591334h 0.181345v -2.15995h 0.181345v 1.96782h 0.36269v -2.29988h 0.181345v
 0.671502h 0.181345v 4.33702h 0.181345v -2.70864h 0.181345v 0.783465h 0.181345v -0.396755h 0.181345v -1.13194h 0.181345v 2.78482h 0.181345v -2.22933h 0.181345v 2.22933h 0.181345v -0.64097h 0.181345v -1.39862h 0.181345v -0.37716h 0.181345v -0.368071h
 0.181345v -1.38952h 0.181345v -3.0046h 0.181345v 3.17153h 0.181345v -3.83863h 0.181345v -0.38671h 0.181345v -3.20332h 0.181345v 0.632127h 0.181345v -3.36526h 0.181345v 1.07231h 0.181345v -3.46378h 0.181345v -2.69849h 0.181345v -0.665517h 0.181345v
 -1.3586h 0.181345v -1.09708h 0.181345v -3.13367h 0.181345v 0.458469h 0.181345v -1.71891h 0.181345v -0.84572h 0.181345v -2.31872h 0.181345v -0.661585h 0.181345v 0.723175h 0.181345v -3.34031h 0.181345v 0.024816h 0.181345v -0.656272h 0.181345v
 -0.0237731h 0.181345v 0.482638h 0.181345v 0.600046h 0.181345v 0.335144h 0.181345v 0.130885h 0.181345v -0.643491h 0.181345v 1.50881h 0.181345v 0.196005h 0.181345v 3.46481h 0.181345v 0.0708782h 0.181345v 1.84796h 0.181345v 0.530266h 0.181345v 1.57245h
 0.181345v 2.82167h 0.181345v 1.81981h 0.181345v 2.87235h 0.181345v 0.0754284h 0.181345v 2.63433h 0.181345v 2.32461h 0.181345v 0.750463h 0.181345v 1.99257h 0.181345v 2.5858h 0.181345v 4.05196h 0.181345v 1.84746h 0.181345v 4.54028h 0.181345v
 -0.576454h 0.181345v -0.280269h 0.181345v 1.45579h 0.181345v 3.03118h 0.181345v -3.63025h 0.181345v 4.39412h 0.181345v -0.76387h 0.181345v -1.42188h 0.181345v -2.49931h 0.181345v 3.92119h 0.181345v 7.5561h 0.181345v -5.98813h 0.181345v -2.29544h
 0.181345v 4.51298h 0.181345v -6.5081h 0.181345v 4.29056h 0.181345v -0.407337h 0.181345v 1.69888h 0.181345v 0.925994h 0.181345v -4.15357h 0.181345v 0.368071h 0.181345v -1.42188h 0.181345v 2.18575h 0.181345v 1.22259h 0.181345v -1.22259h 0.181345v
 2.55162h 0.181345v -5.40157h 0.181345v -0.321574h 0.181345v -0.623524h 0.181345v 1.27359h 0.181345v -1.27359h 0.181345v 6.34667h 0.181345v 0.954949h 0.181345v -5.69232h 0.181345v 0.694402h 0.181345v 3.58699h 0.181345v 1.41093h 0.181345v -6.6781h
 0.181345v 0.650065h 0.36269v 1.03011h 0.181345v -1.68018h 0.181345v -1.22259h 0.181345v 3.26218h 0.181345v -0.710557h 0.181345v 1.8425h 0.181345v -4.68506h 0.181345v 3.55312h 0.181345v -0.710557h 0.181345v 2.23925h 0.36269v 3.10981h 0.181345v
 -4.99792h 0.181345v 1.10464h 0.181345v 1.1908h 0.181345v 2.21754h 0.181345v -2.21754h 0.181345v -2.29544h 0.36269v 3.58699h 0.181345v -7.89205h 0.181345v 5.79641h 0.181345v 2.55162h 0.181345v -5.72315h 0.181345v 4.39412h 0.181345v -6.47343h
 0.181345v 0.856723h 0.181345v 4.39412h 0.181345v -1.8425h 0.181345v -1.64397h 0.181345v 1.30072h 0.181345v 0.343255h 0.181345v 3.06509h 0.181345v -3.06509h 0.181345v -4.73737h 0.181345v 6.19316h 0.181345v -3.09976h 0.181345v 1.99512h 0.181345v
 -1.68018h 0.181345v -0.623524h 0.181345v -1.73101h 0.181345v 3.68356h 0.181345v 8.03566h 0.181345v -8.37891h 0.181345v 1.42188h 0.181345v -0.727481h 0.181345v 2.71394h 0.181345v -0.825834h 0.181345v -1.88811h 0.181345v 5.49876h 0.181345v -5.13935h
 0.181345v 0.368071h 0.36269v 1.98646h 0.181345v -1.98646h 0.181345v -1.42188h 0.181345v -2.49931h 0.181345v 7.23668h 0.181345v -3.68356h 0.36269v -3.26218h 0.181345v 1.22259h 0.181345v 6.6781h 0.181345v -3.50657h 0.181345v 3.02163h 0.181345v
 1.50359h 0.181345v -4.12847h 0.181345v -2.58251h 0.181345v 0.694402h 0.181345v 3.58699h 0.181345v -3.58699h 0.181345v -0.694402h 0.181345v 0.343255h 0.181345v 0.351147h 0.181345v -1.03011h 0.181345v 2.91822h 0.181345v 1.25612h 0.181345v -1.25612h
 0.181345v 0.407337h 0.181345v -2.29544h 0.181345v 4.04297h 0.181345v 3.06509h 0.181345v -4.39412h 0.181345v -2.35453h 0.181345v 1.13194h 0.181345v 1.65288h 0.181345v -3.14423h 0.181345v 0.35941h 0.181345v 1.5287h 0.181345v 1.69888h 0.181345v
 -0.442762h 0.181345v -2.03959h 0.181345v 2.93833h 0.181345v 1.45579h 0.181345v -6.19316h 0.181345v 6.19316h 0.181345v -0.500839h 0.181345v -6.35652h 0.181345v 3.65405h 0.181345v 1.29155h 0.181345v 0.925994h 0.181345v -3.7855h 0.181345v 3.7855h
 0.181345v -0.470013h 0.181345v -4.04297h 0.181345v 3.14423h 0.181345v -1.25612h 0.181345v 1.25612h 0.181345v 0.442762h 0.36269v 0.925994h 0.181345v -2.62488h 0.181345v 3.10981h 0.181345v -3.50657h 0.181345v 4.52523h 0.181345v -6.01658h 0.181345v
 6.55257h 0.181345v 0.555487h 0.181345v -3.52107h 0.181345v 5.32011h 0.181345v -0.623524h 0.181345v -6.79223h 0.181345v 2.09564h 0.181345v 0.925994h 0.181345v 2.03959h 0.181345v -1.05381h 0.36269v -1.91177h 0.181345v 5.32011h 0.181345v 3.56828h
 0.181345v -3.56828h 0.181345v -4.39412h 0.181345v 2.59507h 0.181345v -1.09148h 0.181345v 2.267h 0.181345v 1.27359h 0.181345v -1.27359h 0.181345v 5.89069h 0.181345v -0.87305h 0.181345v -4.39412h 0.181345v 4.39412h 0.181345v -4.39412h 0.181345v
 -0.623524h 0.36269v 12.5398h 0.181345v -5.72315h 0.36269v -6.19316h 0.181345v 5.26717h 0.36269v 0.925994h 0.181345v -8.54769h 0.181345v 3.68356h 0.181345v -1.32903h 0.181345v -0.623524h 0.181345v 7.80246h 0.181345v -0.985775h 0.181345v 0.985775h
 0.181345v -0.985775h 0.36269v -0.925994h 0.181345v -3.22758h 0.181345v 1.5287h 0.181345v 2.62488h 0.181345v -1.79904h 0.181345v -1.6093h 0.181345v 10.5873h 0.181345v -9.80381h 0.181345v 2.62488h 0.181345v 2.03959h 0.181345v -3.83863h 0.181345v
 4.97057h 0.181345v -8.71462h 0.181345v 11.2662h 0.181345v -9.13149h 0.181345v 2.48235h 0.181345v 1.91177h 0.181345v -1.91177h 0.181345v 2.96558h 0.181345v -1.05381h 0.181345v 2.18575h 0.181345v 2.55162h 0.181345v -4.73737h 0.181345v -0.985775h
 0.181345v 12.6269h 0.181345v -10.5873h 0.181345v -2.03959h 0.181345v 3.17153h 0.181345v 9.45534h 0.181345v -6.90372h 0.181345v -4.73737h 0.181345v 6.19316h 0.181345v 1.6093h 0.181345v -9.71423h 0.181345v -2.48235h 0.181345v 3.40834h 0.181345v
 5.72315h 0.181345v -3.68356h 0.181345v 2.35453h 0.181345v -2.35453h 0.36269v 5.13935h 0.181345v 3.40834h 0.181345v -4.86413h 0.181345v 3.06509h 0.181345v -9.71423h 0.181345v 0.925994h 0.181345v -3.40834h 0.181345v 5.44793h 0.181345v 3.68356h
 0.181345v 3.06509h 0.181345v -6.74865h 0.181345v -6.90372h 0.181345v 4.86413h 0.181345v 0.985775h 0.181345v -5.13935h 0.181345v -2.03959h 0.181345v -3.90918h 0.181345v 5.94877h 0.181345v -5.44793h 0.181345v 4.73737h 0.181345v -3.12807h 0.181345v
 3.83863h 0.181345v 0.745231h 0.181345v -5.13935h 0.181345v -0.535992h 0.181345v -3.30264h 0.181345v 4.39412h 0.181345v -1.09148h 0.181345v 2.89052h 0.181345v -3.90918h 0.181345v -4.63851h 0.181345v 2.78482h 0.181345v 1.85369h 0.181345v 1.01866h
 0.181345v -0.51782h 0.181345v 2.18575h 0.181345v -0.576454h 0.181345v -0.555487h 0.181345v 4.39412h 0.181345v -3.26218h 0.181345v 7.41575h 0.181345v -4.86413h 0.181345v -1.32903h 0.181345v -1.22259h 0.181345v 2.55162h 0.181345v 1.45579h 0.181345v
 -0.745231h 0.181345v 5.13935h 0.181345v -5.13935h 0.181345v 3.22758h 0.181345v -0.87305h 0.181345v 0.87305h 0.181345v -1.69888h 0.181345v 13.2122h 0.181345v -9.6015h 0.181345v -5.13935h 0.181345v 9.87672h 0.181345v -9.13149h 0.181345v -2.13475h
 0.36269v 0.678966h 0.181345v 2.23925h 0.181345v -4.79087h 0.181345v -3.64154h 0.181345v 1.45579h 0.181345v -7.49388h 0.181345v 1.99512h 0.181345v -0.351147h 0.181345v -4.73737h 0.181345v 2.18575h 0.181345v -3.40834h 0.181345v 0.477358h 0.181345v
 -2.25027h 0.181345v -1.20649h 0.181345v -3.90294h 0.181345v 0.76771h 0.181345v 0.158283h 0.181345v -0.470013h 0.181345v -2.93833h 0.181345v -0.252472h 0.181345v -1.54657h 0.181345v 3.12807h 0.181345v -1.82987h 0.181345v -2.07035h 0.181345v 0.107945h
 0.181345v 0.32849h 0.181345v -0.965008h 0.181345v 0.314943h 0.181345v -1.22259h 0.181345v -0.670449h 0.181345v 0.28374h 0.181345v 0.484936h 0.181345v 0.198369h 0.181345v -2.13909h 0.181345v -0.925994h 0.181345v -0.403037h 0.181345v 0.567277h
 0.181345v 1.02435h 0.181345v -1.35109h 0.181345v -2.03959h 0.181345v 2.7002h 0.181345v -1.60086h 0.181345v -0.596143h 0.181345v 0.295163h 0.181345v -0.368071h 0.181345v 0.51782h 0.181345v -1.01866h 0.181345v -0.688144h 0.181345v 0.758695h 0.181345v
 0.285508h 0.181345v -1.5081h 0.181345v 1.5081h 0.181345v -0.704005h 0.181345v 0.921694h 0.181345v -0.217688h 0.181345v -0.21463h 0.181345v 4.51298h 0.181345v -3.71081h 0.181345v 3.14851h 0.181345v -0.273575h 0.181345v 0.931643h 0.181345v 0.389173h
 0.181345v 1.99741h 0.181345v 4.5446h 0.181345v -2.50502h 0.181345v 2.96558h 0.181345v 1.13194h 0.181345v 1.04183h 0.181345v 2.53529h 0.181345v 5.26717h 0.181345v -7.43877h 0.181345v 6.85123h 0.181345v 3.55312h 0.181345v 0.368071h 0.181345v 2.41675h
 0.181345v 1.36876h 0.181345v -0.925994h 0.181345v 5.97018h 0.181345v 1.38952h 0.181345v 11.3325h 0.181345v -5.13935h 0.181345v -1.05381h 0.181345v 11.6411h 0.181345v -10.5873h 0.181345v -2.03959h 0.181345v 14.9814h 0.181345v 2.78482h 0.181345v
 -7.17894h 0.181345v 2.03959h 0.36269v 12.9418h 0.181345v -12.9418h 0.181345v 12.9418h 0.181345v -4.39412h 0.181345v 4.39412h 0.181345v -4.39412h 0.181345v 4.39412h 0.181345v -10.5873h 0.181345v 16.7804h 0.36269v -10.5873h 0.181345v 10.5873h
 0.181345v -10.5873h 0.181345v -6.19316h 0.181345v 6.19316h 0.181345v -3.40834h 0.36269v 13.9956h 0.181345v 21.1746h 0.181345v -37.955h 0.181345v 10.5873h 0.181345v -7.80246h 0.181345v 35.1702h 0.181345v -21.1746h 0.181345v -19.135h 0.181345v
 40.3095h 0.181345v -21.1746h 0.36269v -19.135h 0.181345v 12.9418h 0.544034v 6.19316h 0.181345v -10.5873h 0.181345v 21.1746h 0.181345v -27.3677h 0.181345v 16.7804h 0.181345v -13.9956h 0.181345v -2.78482h 0.36269v 6.19316h 0.181345v 4.39412h 0.181345v
 6.19316h 0.181345v -10.5873h 0.36269v 10.5873h 0.181345v -6.19316h 0.181345v 16.7804h 0.181345v -16.7804h 0.181345v -10.5873h 0.181345v 2.78482h 0.181345v 24.5829h 0.181345v -16.7804h 0.36269v -10.5873h 0.181345v 27.3677h 0.181345v -24.5829h
 0.36269v 13.9956h 0.181345v -10.5873h 0.181345v -13.9956h 0.181345v 10.5873h 0.181345v 7.80246h 0.181345v -12.9418h 0.181345v 12.9418h 0.36269v -12.9418h 0.181345v 5.13935h 0.181345v 3.40834h 0.181345v 10.5873h 0.181345v -21.1746h 0.181345v 4.39412h
 0.181345v -4.39412h 0.181345v 31.7618h 0.181345v -21.1746h 0.181345v -6.19316h 0.181345v -6.19316h 0.36269v 8.97798h 0.181345v -10.5873h 0.181345v 7.80246h 0.181345v -10.5873h 0.181345v -3.40834h 0.181345v 6.19316h 0.181345v -1.45579h 0.181345v
 -3.68356h 0.181345v -3.83863h 0.181345v 7.52219h 0.36269v -5.72315h 0.181345v 4.39412h 0.181345v -1.22259h 0.181345v -2.18575h 0.181345v 1.05381h 0.181345v -4.66446h 0.36269v 11.4131h 0.181345v -8.78824h 0.181345v -2.62488h 0.544034v 5.79641h
 0.181345v 1.22259h 0.181345v -3.40834h 0.181345v -5.13935h 0.181345v 8.54769h 0.181345v -7.019h 0.181345v 9.80381h 0.181345v -7.17894h 0.181345v 10.5873h 0.181345v -4.86413h 0.181345v -1.32903h 0.181345v 2.78482h 0.181345v 7.80246h 0.181345v
 -7.80246h 0.181345v 13.9956h 0.181345v -6.19316h 0.181345v 6.19316h 0.181345v -8.54769h 0.181345v 8.54769h 0.181345v -6.19316h 0.181345v 10.5873h 0.544034v 6.19316h 0.181345v -6.19316h 0.181345v -7.80246h 0.181345v 7.80246h 0.181345v 27.3677h
 0.181345v -10.5873h 0.36269v -21.1746h 0.181345v 4.39412h 0.36269v -7.80246h 0.181345v 24.5829h 0.181345v 10.5873h 0.181345v -37.955h 0.181345v 10.5873h 0.181345v 27.3677h 0.181345v -31.7618h 0.181345v 21.1746h 0.181345v 10.5873h 0.181345v -40.3095h
 0.181345v 8.54769h 0.36269v 4.39412h 0.181345v 27.3677h 0.181345v -21.1746h 0.181345v 10.5873h 0.36269v -10.5873h 0.36269v 10.5873h 0.181345v -16.7804h 0.36269v -4.39412h 0.181345v 10.5873h 0.36269v -10.5873h 0.181345v -6.19316h 0.181345v 10.5873h
 0.181345v 16.7804h 0.181345v -21.1746h 0.181345v 4.39412h 0.181345v -4.39412h 0.181345v 4.39412h 0.181345v 6.19316h 0.181345v -10.5873h 0.36269v 10.5873h 0.181345v -10.5873h 0.181345v 10.5873h 0.181345v -10.5873h 0.181345v -6.19316h 0.181345v
 6.19316h 0.181345v 10.5873h 0.181345v -10.5873h 0.181345v 4.39412h 0.181345v -4.39412h 0.181345v 10.5873h 0.181345v -16.7804h 0.181345v -2.35453h 0.181345v 12.9418h 0.181345v 6.19316h 0.181345v -13.9956h 0.181345v -5.13935h 0.36269v 5.13935h
 0.181345v -5.13935h 0.181345v -5.44793h 0.181345v 13.9956h 0.181345v 4.39412h 0.181345v -4.39412h 0.181345v 10.5873h 0.181345v -13.9956h 0.181345v -12.0431h 0.181345v 6.90372h 0.181345v 5.13935h 0.181345v 7.80246h 0.181345v -14.9814h 0.36269v
 -3.40834h 0.181345v 10.5873h 0.181345v -8.97798h 0.181345v 6.19316h 0.181345v 27.3677h 0.181345v -33.5609h 0.181345v 12.3863h 0.181345v -12.3863h 0.181345v 6.19316h 0.181345v 2.78482h 0.181345v 13.9956h 0.36269v -6.19316h 0.181345v -12.9418h
 0.181345v 2.35453h 0.181345v 10.5873h 0.181345v -7.80246h 0.181345v -10.5873h 0.181345v 18.3897h 0.181345v 6.19316h 0.181345v -16.7804h 0.181345v 10.5873h 0.181345v 16.7804h 0.181345v -16.7804h 0.36269v 6.19316h 0.181345v -13.9956h 0.181345v
 3.40834h 0.181345v 10.5873h 0.181345v -13.9956h 0.181345v 13.9956h 0.181345v -21.1746h 0.181345v 14.9814h 0.181345v 6.19316h 0.181345v -16.7804h 0.181345v 2.78482h 0.181345v 35.1702h 0.181345v -31.7618h 0.36269v 21.1746h 0.181345v -21.1746h
 0.181345v 21.1746h 0.181345v -24.5829h 0.36269v -5.13935h 0.181345v 19.135h 0.181345v -6.19316h 0.181345v -4.39412h 0.181345v -8.54769h 0.181345v 8.54769h 0.36269v 4.39412h 0.181345v -7.80246h 0.181345v 7.80246h 0.181345v -16.7804h 0.181345v
 6.19316h 0.181345v 10.5873h 0.181345v -10.5873h 0.544034v -4.39412h 0.181345v 4.39412h 0.181345v 2.78482h 0.181345v -5.13935h 0.181345v 12.9418h 0.181345v -7.80246h 0.544034v 7.80246h 0.181345v -14.9814h 0.181345v 4.39412h 0.181345v -2.35453h
 0.181345v 12.9418h 0.181345v -12.9418h 0.181345v 8.54769h 0.36269v -8.54769h 0.181345v 2.35453h 0.181345v 10.5873h 0.181345v -10.5873h 0.36269v 16.7804h 0.181345v -19.135h 0.181345v 12.9418h 0.181345v -12.9418h 0.181345v 12.9418h 0.181345v -16.7804h
 0.181345v -1.6093h 0.181345v 10.5873h 0.181345v -2.78482h 0.181345v -6.19316h 0.181345v -1.6093h 0.181345v 13.9956h 0.181345v -13.9956h 0.181345v 3.40834h 0.181345v 4.39412h 0.181345v -9.25825h 0.36269v 1.45579h 0.181345v -1.45579h 0.181345v
 12.0431h 0.181345v 3.40834h 0.36269v -12.3863h 0.181345v 1.79904h 0.181345v 4.39412h 0.181345v -2.35453h 0.181345v 5.13935h 0.181345v 3.40834h 0.181345v -10.5873h 0.181345v -4.86413h 0.36269v 9.25825h 0.181345v 2.78482h 0.181345v -14.5947h 0.181345v
 7.41575h 0.181345v 4.39412h 0.181345v -2.35453h 0.181345v -5.44793h 0.181345v -4.00741h 0.181345v 14.5947h 0.181345v -5.13935h 0.181345v -2.03959h 0.181345v -3.40834h 0.181345v -6.19316h 0.181345v 13.9956h 0.181345v 2.78482h 0.181345v -13.3721h
 0.181345v 4.39412h 0.181345v -4.39412h 0.181345v -1.22259h 0.181345v 4.00741h 0.181345v 3.40834h 0.181345v -1.79904h 0.181345v -4.39412h 0.181345v 10.5873h 0.181345v -2.35453h 0.181345v -6.90372h 0.181345v -2.55162h 0.181345v 7.41575h 0.181345v
 -7.41575h 0.181345v 5.61671h 0.181345v -6.74865h 0.181345v 5.13935h 0.181345v 3.40834h 0.181345v -7.41575h 0.181345v 4.00741h 0.181345v -1.45579h 0.181345v -1.32903h 0.181345v -1.22259h 0.181345v 14.5947h 0.181345v -7.17894h 0.181345v -6.19316h
 0.181345v 10.5873h 0.181345v -14.9814h 0.181345v 4.39412h 0.181345v 2.78482h 0.181345v -1.45579h 0.181345v 1.45579h 0.36269v 1.6093h 0.181345v -4.39412h 0.36269v 2.78482h 0.36269v -7.17894h 0.181345v 7.17894h 0.181345v -4.00741h 0.181345v 1.22259h
 0.181345v -9.25825h 0.181345v 5.84991h 0.181345v 4.73737h 0.181345v -1.32903h 0.181345v 1.32903h 0.181345v -5.72315h 0.181345v 10.5873h 0.181345v -13.9956h 0.181345v 9.13149h 0.181345v -3.68356h 0.181345v 1.13194h 0.36269v -3.17153h 0.181345v
 -1.79904h 0.181345v -2.35453h 0.181345v 3.22758h 0.181345v -5.26717h 0.181345v 7.17894h 0.181345v -5.84991h 0.181345v 6.90372h 0.181345v -6.90372h 0.181345v 8.03566h 0.181345v -1.13194h 0.181345v -5.44793h 0.181345v -1.45579h 0.181345v 5.84991h
 0.181345v -3.61065h 0.181345v -0.783465h 0.181345v -1.45579h 0.181345v 5.84991h 0.181345v -5.13935h 0.181345v 5.13935h 0.181345v 13.9956h 0.181345v -15.9074h 0.36269v -5.89069h 0.181345v 1.95255h 0.36269v 3.93814h 0.181345v 0.925994h 0.181345v
 -3.40834h 0.181345v -0.745231h 0.181345v 4.15357h 0.181345v -6.19316h 0.181345v 1.32903h 0.181345v -1.32903h 0.181345v -2.89052h 0.36269v 3.54059h 0.181345v 1.38952h 0.181345v 1.5287h 0.181345v -4.79087h 0.181345v 4.00741h 0.181345v -6.694h
 0.181345v 2.11014h 0.181345v -1.6093h 0.181345v 0.51782h 0.181345v 6.45881h 0.181345v 0.825834h 0.181345v 2.78482h 0.181345v -6.52887h 0.181345v 7.58268h 0.181345v -8.85627h 0.181345v 4.19181h 0.181345v 2.62488h 0.181345v -1.79904h 0.181345v
 -5.01764h 0.181345v 8.85627h 0.181345v -4.66446h 0.181345v 5.79641h 0.181345v -4.97057h 0.181345v 6.19316h 0.181345v -4.39412h 0.181345v -1.79904h 0.181345v 3.83863h 0.181345v -4.66446h 0.181345v -5.36733h 0.181345v 8.97798h 0.181345v 3.40834h
 0.181345v -5.32011h 0.181345v 6.64914h 0.181345v -6.64914h 0.36269v 6.64914h 0.181345v -5.72315h 0.181345v -1.79904h 0.181345v 14.4259h 0.181345v -14.4259h 0.181345v 2.78482h 0.181345v 3.40834h 0.181345v 1.32903h 0.181345v 3.06509h 0.181345v
 -7.80246h 0.181345v 4.73737h 0.181345v -4.73737h 0.181345v -3.61065h 0.181345v 8.34803h 0.181345v 4.86413h 0.181345v -7.41575h 0.181345v 5.61671h 0.181345v -7.80246h 0.181345v 3.40834h 0.181345v 4.39412h 0.181345v -5.61671h 0.181345v 5.61671h
 0.181345v -5.61671h 0.36269v -4.97057h 0.181345v 6.19316h 0.181345v -2.35453h 0.181345v 1.13194h 0.181345v -2.18575h 0.181345v 3.40834h 0.181345v -10.5873h 0.181345v 9.36469h 0.181345v 1.22259h 0.181345v -4.39412h 0.181345v 0.985775h 0.181345v
 3.40834h 0.181345v 1.32903h 0.181345v -1.32903h 0.181345v 1.32903h 0.181345v -1.32903h 0.181345v 8.23275h 0.181345v -6.90372h 0.181345v -5.72315h 0.181345v -4.15357h 0.181345v 9.87672h 0.181345v -1.32903h 0.181345v -1.22259h 0.36269v -1.13194h
 0.181345v 3.68356h 0.181345v 3.06509h 0.36269v 3.83863h 0.181345v -5.44793h 0.181345v -4.00741h 0.181345v 1.22259h 0.181345v -3.40834h 0.181345v 6.19316h 0.181345v -2.78482h 0.181345v -3.40834h 0.181345v 7.80246h 0.181345v -6.74865h 0.181345v
 -2.96558h 0.181345v 0.925994h 0.181345v 2.03959h 0.181345v 5.13935h 0.181345v 10.5873h 0.181345v -15.7266h 0.181345v -3.83863h 0.181345v 7.52219h 0.181345v 3.06509h 0.181345v -7.80246h 0.181345v 3.40834h 0.181345v -4.39412h 0.181345v 3.17153h
 0.181345v 11.8099h 0.36269v -18.3897h 0.181345v 4.39412h 0.181345v 1.05381h 0.36269v 2.35453h 0.181345v 1.32903h 0.181345v 6.90372h 0.181345v -15.2517h 0.181345v 4.66446h 0.181345v 1.13194h 0.36269v -4.97057h 0.181345v 6.19316h 0.181345v -1.22259h
 0.36269v -3.17153h 0.181345v -5.5431h 0.181345v 11.2662h 0.181345v -8.34803h 0.181345v 4.66446h 0.181345v -2.96558h 0.181345v 0.925994h 0.181345v -0.925994h 0.181345v 11.5133h 0.181345v -9.6015h 0.181345v -0.985775h 0.181345v 5.72315h 0.181345v
 1.45579h 0.181345v -12.0431h 0.181345v 8.03566h 0.181345v 4.00741h 0.181345v 5.44793h 0.181345v -5.44793h 0.181345v -7.17894h 0.181345v 5.72315h 0.181345v -3.68356h 0.181345v 6.74865h 0.181345v -7.80246h 0.181345v -5.13935h 0.181345v 8.54769h
 0.181345v -4.39412h 0.181345v -4.15357h 0.181345v 9.87672h 0.181345v -9.87672h 0.181345v 8.54769h 0.181345v -4.39412h 0.181345v 7.17894h 0.181345v -5.13935h 0.181345v -3.83863h 0.36269v -3.06509h 0.181345v 8.03566h 0.181345v -4.97057h 0.181345v
 4.97057h 0.181345v 1.22259h 0.181345v -3.40834h 0.181345v 11.6411h 0.181345v -15.2517h 0.181345v 7.019h 0.36269v -5.32011h 0.181345v 8.10493h 0.36269v -2.78482h 0.181345v -5.32011h 0.181345v -6.48976h 0.181345v 7.41575h 0.181345v -1.79904h 0.181345v
 -2.35453h 0.181345v -1.38952h 0.181345v 7.58268h 0.181345v -1.05381h 0.181345v -4.39412h 0.181345v 3.40834h 0.181345v -2.62488h 0.181345v 5.79641h 0.181345v -11.1637h 0.181345v 7.9922h 0.181345v 3.17153h 0.181345v -4.09752h 0.181345v -5.26717h
 0.181345v 6.19316h 0.181345v -6.19316h 0.181345v 2.03959h 0.181345v 2.35453h 0.181345v -5.01764h 0.36269v 4.19181h 0.181345v 0.825834h 0.181345v -5.01764h 0.181345v 3.40834h 0.181345v 1.6093h 0.36269v -1.6093h 0.181345v 5.44793h 0.181345v -8.85627h
 0.181345v 5.89069h 0.181345v 0.925994h 0.181345v -0.925994h 0.181345v -2.48235h 0.181345v 2.48235h 0.181345v 2.96558h 0.36269v -3.83863h 0.36269v 0.87305h 0.181345v 2.96558h 0.181345v -1.05381h 0.181345v -4.39412h 0.181345v 4.39412h 0.181345v
 -0.985775h 0.181345v 4.39412h 0.544034v -3.40834h 0.181345v 3.40834h 0.181345v -1.22259h 0.181345v -2.18575h 0.181345v -0.985775h 0.181345v 8.78824h 0.181345v 1.79904h 0.181345v -7.41575h 0.181345v 9.45534h 0.181345v -12.6269h 0.181345v 12.6269h
 0.181345v -15.2517h 0.181345v 3.61065h 0.181345v 2.18575h 0.181345v 1.22259h 0.181345v 2.78482h 0.36269v -10.5873h 0.181345v 5.44793h 0.181345v 6.74865h 0.181345v -1.6093h 0.36269v -1.45579h 0.181345v 4.86413h 0.36269v -4.86413h 0.181345v 4.86413h
 0.181345v -8.54769h 0.36269v 2.35453h 0.181345v -1.22259h 0.181345v -2.18575h 0.181345v 6.19316h 0.181345v -1.45579h 0.181345v -6.64914h 0.181345v 9.71423h 0.181345v -5.61671h 0.181345v 1.22259h 0.181345v 4.39412h 0.181345v -4.39412h 0.181345v
 -5.32011h 0.181345v 4.09752h 0.181345v -3.17153h 0.36269v -3.40834h 0.181345v -4.00741h 0.181345v 14.5947h 0.181345v -8.97798h 0.181345v 2.78482h 0.181345v 4.73737h 0.181345v 4.86413h 0.181345v -13.2122h 0.181345v -0.783465h 0.181345v 4.39412h
 0.181345v 2.18575h 0.181345v -3.17153h 0.181345v -2.62488h 0.181345v 4.66446h 0.181345v -1.05381h 0.181345v 7.80246h 0.181345v -3.06509h 0.181345v -9.13149h 0.181345v 12.1966h 0.181345v -1.6093h 0.181345v 1.6093h 0.181345v -5.61671h 0.181345v
 4.00741h 0.36269v -5.13935h 0.181345v 5.13935h 0.181345v 10.5873h 0.181345v -17.7662h 0.181345v 5.72315h 0.181345v 3.06509h 0.181345v -4.39412h 0.181345v 27.3677h 0.181345v -22.9736h 0.181345v -3.06509h 0.181345v 3.06509h 0.36269v 1.79904h 0.181345v
 14.9814h 0.181345v -19.8455h 0.181345v 9.25825h 0.181345v 2.78482h 0.181345v -2.78482h 0.181345v 10.5873h 0.181345v -7.80246h 0.181345v -7.17894h 0.181345v -1.79904h 0.181345v 3.83863h 0.181345v 5.13935h 0.181345v -5.13935h 0.181345v -2.03959h
 0.181345v 10.5873h 0.36269v -20.1888h 0.181345v 30.7761h 0.181345v -16.7804h 0.181345v -6.19316h 0.181345v 1.79904h 0.181345v 4.39412h 0.181345v -4.39412h 0.181345v 4.39412h 0.181345v -6.19316h 0.181345v 3.83863h 0.36269v 5.13935h 0.181345v 13.9956h
 0.181345v -19.135h 0.181345v 2.35453h 0.181345v -2.35453h 0.36269v 5.13935h 0.181345v -5.13935h 0.181345v 5.13935h 0.181345v -8.97798h 0.36269v 12.3863h 0.181345v -10.5873h 0.181345v 14.9814h 0.181345v -16.7804h 0.181345v 8.97798h 0.181345v 7.80246h
 0.181345v -4.39412h 0.181345v 31.7618h 0.181345v -44.1482h 0.181345v 6.19316h 0.181345v -12.9418h 0.181345v 3.68356h 0.181345v 9.25825h 0.181345v -9.25825h 0.181345v 3.06509h 0.181345v 3.83863h 0.36269v 5.13935h 0.181345v -14.5947h 0.181345v
 22.3971h 0.181345v -16.7804h 0.181345v -3.06509h 0.181345v 6.90372h 0.181345v -6.90372h 0.181345v 4.86413h 0.36269v 10.5873h 0.181345v 4.39412h 0.181345v -10.5873h 0.181345v 10.5873h 0.181345v -16.7804h 0.181345v 1.79904h 0.181345v 2.03959h
 0.181345v 8.54769h 0.181345v -8.54769h 0.181345v -3.83863h 0.181345v 16.7804h 0.181345v -14.9814h 0.181345v -6.19316h 0.181345v 13.3721h 0.181345v -2.78482h 0.181345v 6.19316h 0.181345v -16.7804h 0.181345v 8.23275h 0.181345v -2.03959h 0.36269v
 -4.86413h 0.181345v 9.25825h 0.181345v -2.35453h 0.36269v -5.44793h 0.36269v 7.80246h 0.181345v -9.25825h 0.181345v -2.55162h 0.181345v 28.5903h 0.181345v -27.3677h 0.181345v 10.5873h 0.181345v -6.19316h 0.181345v 6.19316h 0.181345v -7.80246h
 0.181345v 5.44793h 0.181345v 12.9418h 0.181345v -10.5873h 0.181345v -6.19316h 0.181345v 8.97798h 0.181345v -2.78482h 0.181345v 10.5873h 0.181345v -14.9814h 0.181345v -7.41575h 0.181345v 5.61671h 0.181345v -4.39412h 0.181345v 4.39412h 0.181345v
 -3.06509h 0.181345v 1.45579h 0.181345v -1.45579h 0.181345v 6.90372h 0.181345v -6.90372h 0.906724v 3.06509h 0.181345v -4.39412h 0.36269v 10.5873h 0.181345v -6.19316h 0.181345v -7.80246h 0.181345v 9.6015h 0.181345v -1.79904h 0.181345v 3.83863h
 0.181345v -8.23275h 0.181345v 4.39412h 0.181345v 3.83863h 0.181345v -3.83863h 0.181345v -7.80246h 0.181345v 3.40834h 0.36269v -3.40834h 0.181345v 9.6015h 0.181345v -4.86413h 0.181345v -1.32903h 0.181345v 1.32903h 0.181345v -3.68356h 0.181345v
 1.13194h 0.181345v -4.09752h 0.181345v 5.32011h 0.181345v -4.39412h 0.181345v 2.03959h 0.181345v -3.83863h 0.181345v 6.19316h 0.181345v 6.19316h 0.181345v -3.40834h 0.181345v -10.5873h 0.181345v 18.3897h 0.181345v 2.78482h 0.181345v -8.97798h
 0.181345v -11.4131h 0.181345v 7.019h 0.181345v 8.23275h 0.181345v -13.5529h 0.181345v 8.10493h 0.181345v -6.19316h 0.181345v 6.19316h 0.181345v -8.97798h 0.181345v 3.83863h 0.181345v 6.74865h 0.181345v -3.06509h 0.181345v -2.55162h 0.181345v
 -2.18575h 0.36269v -2.78482h 0.181345v 0.87305h 0.181345v 1.91177h 0.181345v -4.39412h 0.181345v 2.48235h 0.181345v 5.32011h 0.36269v 1.32903h 0.181345v -3.68356h 0.181345v 3.68356h 0.181345v -3.68356h 0.181345v 1.13194h 0.181345v -2.18575h
 0.181345v 6.19316h 0.181345v -8.97798h 0.181345v -0.825834h 0.181345v 7.019h 0.181345v -4.39412h 0.181345v 0.985775h 0.181345v 7.80246h 0.181345v -7.80246h 0.181345v 2.18575h 0.181345v 7.41575h 0.181345v -7.41575h 0.36269v 5.61671h 0.181345v
 -10.5873h 0.181345v 0.87305h 0.181345v 8.10493h 0.544034v -6.19316h 0.181345v 6.19316h 0.36269v 7.80246h 0.181345v 2.78482h 0.181345v -5.13935h 0.181345v -6.90372h 0.181345v 4.86413h 0.181345v 14.9814h 0.181345v -12.9418h 0.181345v 12.9418h
 0.181345v -10.5873h 0.181345v -2.35453h 0.181345v 5.13935h 0.181345v 13.9956h 0.181345v -16.7804h 0.181345v -2.35453h 0.181345v 2.35453h 0.181345v 27.3677h 0.181345v -16.7804h 0.181345v -4.39412h 0.181345v 10.5873h 0.36269v -13.9956h 0.181345v
 13.9956h 0.181345v 10.5873h 0.36269v -10.5873h 0.181345v 21.1746h 0.181345v -21.1746h 0.181345v 10.5873h 0.181345v -16.7804h 0.181345v 27.3677h 0.181345v -21.1746h 0.181345v 21.1746h 0.36269v -10.5873h 0.181345v -21.1746h 0.181345v 4.39412h
 0.181345v 16.7804h 0.36269v 10.5873h 0.181345v -21.1746h 0.181345v 10.5873h 0.181345v 10.5873h 0.36269v -10.5873h 0.36269v 10.5873h 0.544034v -27.3677h 0.181345v 16.7804h 0.181345v 10.5873h 0.181345v -10.5873h 0.36269v 10.5873h 0.181345v -10.5873h
 0.906724v 10.5873h 0.36269v -21.1746h 0.181345v 10.5873h 0.181345v -16.7804h 0.181345v 27.3677h 0.181345v -10.5873h 0.181345v 10.5873h 0.36269v -21.1746h 0.181345v 21.1746h 0.544034v -21.1746h 0.544034v 10.5873h 0.181345v 10.5873h 0.36269v -35.1702h
 0.181345v 35.1702h 0.181345v -10.5873h 0.181345v 10.5873h 0.181345v -10.5873h 0.181345v 10.5873h 0.181345v -10.5873h 0.181345v 10.5873h 0.181345v -21.1746h 0.181345v 10.5873h 0.36269v -10.5873h 0.181345v 10.5873h 0.181345v 10.5873h 0.181345v
 -10.5873h 0.181345v 10.5873h 0.36269v -10.5873h 0.36269v -10.5873h 0.36269v 21.1746h 0.725379v -10.5873h 0.36269v 10.5873h 0.181345v -10.5873h 0.181345v -10.5873h 0.181345v 10.5873h 0.181345v 10.5873h 0.181345v -10.5873h 0.181345v 10.5873h 0.36269v
 -21.1746h 0.181345v -6.19316h 0.181345v 27.3677h 0.544034v -21.1746h 0.36269v 21.1746h 0.36269v -21.1746h 0.181345v 10.5873h 0.181345v -10.5873h 0.36269v 10.5873h 0.36269v -10.5873h 0.181345v 21.1746h 0.36269v -10.5873h 0.36269v -10.5873h 0.181345v
 21.1746h 0.36269v -10.5873h 0.181345v 10.5873h 0.181345v -10.5873h 0.181345v -10.5873h 0.36269v 21.1746h 0.181345v -10.5873h 0.181345v -10.5873h 0.181345v 10.5873h 0.181345v 10.5873h 0.181345v -10.5873h 0.725379v -10.5873h 0.181345v 21.1746h
 0.181345v -27.3677h 0.181345v 27.3677h 0.36269v -10.5873h 0.36269v 10.5873h 0.36269v -10.5873h 0.36269v 10.5873h 0.36269v -10.5873h 0.181345v 10.5873h 0.181345v -21.1746h 0.181345v 10.5873h 0.36269v 10.5873h 0.906724v -10.5873h 0.906724v 10.5873h
 0.544034v -10.5873h 0.181345v -10.5873h 0.181345v 10.5873h 0.181345v -10.5873h 0.181345v 21.1746h 0.36269v -10.5873h 0.181345v -10.5873h 0.181345v 10.5873h 0.181345v 10.5873h 0.544034v -10.5873h 0.181345v -10.5873h 0.181345v 10.5873h 0.181345v
 10.5873h 0.181345v -27.3677h 0.181345v 16.7804h 0.36269v 10.5873h 0.36269v -10.5873h 0.181345v 10.5873h 0.36269v -10.5873h 0.181345v 10.5873h 0.36269v -21.1746h 0.181345v 21.1746h 0.181345v -21.1746h 0.181345v 10.5873h 0.36269v 10.5873h 0.181345v
 -21.1746h 0.36269v 10.5873h 0.181345v 10.5873h 0.181345v -10.5873h 0.181345v 10.5873h 0.181345v -10.5873h 0.181345v 10.5873h 0.906724v -10.5873h 0.181345v -10.5873h 0.181345v 10.5873h 0.181345v 10.5873h 0.181345v -21.1746h 0.181345v 10.5873h
 0.181345v 10.5873h 0.36269v -21.1746h 0.181345v 21.1746h 0.181345v -27.3677h 0.181345v 27.3677h 0.36269v -10.5873h 0.36269v 10.5873h 0.36269v -21.1746h 0.36269v 10.5873h 0.181345v 10.5873h 0.181345v -21.1746h 0.36269v 21.1746h 0.906724v -10.5873h
 0.181345v 10.5873h 0.36269v -10.5873h 0.181345v 10.5873h 0.544034v -21.1746h 0.181345v 21.1746h 0.36269v -10.5873h 0.181345v -10.5873h 0.181345v 10.5873h 0.725379v 10.5873h 0.181345v -10.5873h 0.181345v -10.5873h 0.181345v 10.5873h 0.181345v
 10.5873h 0.544034v -10.5873h 0.906724v 10.5873h 0.181345v -21.1746h 0.181345v 21.1746h 0.181345v -21.1746h 0.181345v 21.1746h 0.36269v -10.5873h 0.181345v 10.5873h 0.181345v -10.5873h 0.36269v 10.5873h 0.181345v -10.5873h 0.36269v 10.5873h 0.36269v
 -10.5873h 0.181345v 10.5873h 0.544034v -27.3677h 0.181345v 16.7804h 0.181345v 10.5873h 0.181345v -10.5873h 0.181345" fill="none" stroke="black"/>
<path d="M57.1929,280.151h 453.543" fill="none" stroke="black"/>
<path d="M57.1929,272.68v 7.47068" fill="none" stroke="black"/>
<path d="M75.3318,276.415v 3.73534" fill="none" stroke="black"/>
<path d="M93.4707,276.415v 3.73534" fill="none" stroke="black"/>
<path d="M111.61,276.415v 3.73534" fill="none" stroke="black"/>
<path d="M129.749,276.415v 3.73534" fill="none" stroke="black"/>
<path d="M147.887,272.68v 7.47068" fill="none" stroke="black"/>
<path d="M166.026,276.415v 3.73534" fill="none" stroke="black"/>
<path d="M184.165,276.415v 3.73534" fill="none" stroke="black"/>
<path d="M202.304,276.415v 3.73534" fill="none" stroke="black"/>
<path d="M220.443,276.415v 3.73534" fill="none" stroke="black"/>
<path d="M238.582,272.68v 7.47068" fill="none" stroke="black"/>
<path d="M256.721,276.415v 3.73534" fill="none" stroke="black"/>
<path d="M274.86,276.415v 3.73534" fill="none" stroke="black"/>
<path d="M292.999,276.415v 3.73534" fill="none" stroke="black"/>
<path d="M311.138,276.415v 3.73534" fill="none" stroke="black"/>
<path d="M329.277,272.68v 7.47068" fill="none" stroke="black"/>
<path d="M347.415,276.415v 3.73534" fill="none" stroke="black"/>
<path d="M365.554,276.415v 3.73534" fill="none" stroke="black"/>
<path d="M383.693,276.415v 3.73534" fill="none" stroke="black"/>
<path d="M401.832,276.415v 3.73534" fill="none" stroke="black"/>
<path d="M419.971,272.68v 7.47068" fill="none" stroke="black"/>
<path d="M438.11,276.415v 3.73534" fill="none" stroke="black"/>
<path d="M456.249,276.415v 3.73534" fill="none" stroke="black"/>
<path d="M474.388,276.415v 3.73534" fill="none" stroke="black"/>
<path d="M492.527,276.415v 3.73534" fill="none" stroke="black"/>
<path d="M510.666,272.68v 7.47068" fill="none" stroke="black"/>
<path d="M510.666,272.68v 7.47068" fill="none" stroke="black"/>
<text xml:space="preserve" x="54.3523" y="290.27" fill="black" font-size="10.4952" font-family="Helvetica">0</text>
<text xml:space="preserve" x="139.569" y="290.27" fill="black" font-size="10.4952" font-family="Helvetica">500</text>
<text xml:space="preserve" x="227.449" y="290.27" fill="black" font-size="10.4952" font-family="Helvetica">1000</text>
<text xml:space="preserve" x="318.288" y="290.27" fill="black" font-size="10.4952" font-family="Helvetica">1500</text>
<text xml:space="preserve" x="408.831" y="290.27" fill="black" font-size="10.4952" font-family="Helvetica">2000</text>
<text xml:space="preserve" x="499.67" y="290.27" fill="black" font-size="10.4952" font-family="Helvetica">2500</text>
<text xml:space="preserve" x="265.323" y="301.218" fill="black" font-size="10.4952" font-family="Helvetica">Channel</text>
<path d="M57.1929,280.151v -249.023" fill="none" stroke="black"/>
<path d="M63.9961,280.151h -6.80315" fill="none" stroke="black"/>
<path d="M63.9961,277.366h -6.80315" fill="none" stroke="black"/>
<path d="M63.9961,275.011h -6.80315" fill="none" stroke="black"/>
<path d="M63.9961,272.972h -6.80315" fill="none" stroke="black"/>
<path d="M63.9961,271.173h -6.80315" fill="none" stroke="black"/>
<path d="M70.7992,269.563h -13.6063" fill="none" stroke="black"/>
<text xml:space="preserve" x="49.0263" y="273.404" fill="black" font-size="10.4952" font-family="Helvetica">1</text>
<path d="M63.9961,258.976h -6.80315" fill="none" stroke="black"/>
<path d="M63.9961,252.783h -6.80315" fill="none" stroke="black"/>
<path d="M63.9961,248.389h -6.80315" fill="none" stroke="black"/>
<path d="M63.9961,244.98h -6.80315" fill="none" stroke="black"/>
<path d="M63.9961,242.196h -6.80315" fill="none" stroke="black"/>
<path d="M63.9961,239.841h -6.80315" fill="none" stroke="black"/>
<path d="M63.9961,237.801h -6.80315" fill="none" stroke="black"/>
<path d="M63.9961,236.002h -6.80315" fill="none" stroke="black"/>
<path d="M70.7992,234.393h -13.6063" fill="none" stroke="black"/>
<text xml:space="preserve" x="41.629" y="238.193" fill="black" font-size="10.4952" font-family="Helvetica">10</text>
<path d="M63.9961,223.806h -6.80315" fill="none" stroke="black"/>
<path d="M63.9961,217.613h -6.80315" fill="none" stroke="black"/>
<path d="M63.9961,213.219h -6.80315" fill="none" stroke="black"/>
<path d="M63.9961,209.81h -6.80315" fill="none" stroke="black"/>
<path d="M63.9961,207.025h -6.80315" fill="none" stroke="black"/>
<path d="M63.9961,204.671h -6.80315" fill="none" stroke="black"/>
<path d="M63.9961,202.631h -6.80315" fill="none" stroke="black"/>
<path d="M63.9961,200.832h -6.80315" fill="none" stroke="black"/>
<path d="M70.7992,199.223h -13.6063" fill="none" stroke="black"/>
<text xml:space="preserve" x="49.0263" y="199.431" fill="black" font-size="7.16345" font-family="Helvetica">2</text>
<text xml:space="preserve" x="38.0783" y="203.87" fill="black" font-size="10.4952" font-family="Helvetica">10</text>
<path d="M63.9961,188.636h -6.80315" fill="none" stroke="black"/>
<path d="M63.9961,182.442h -6.80315" fill="none" stroke="black"/>
<path d="M63.9961,178.048h -6.80315" fill="none" stroke="black"/>
<path d="M63.9961,174.64h -6.80315" fill="none" stroke="black"/>
<path d="M63.9961,171.855h -6.80315" fill="none" stroke="black"/>
<path d="M63.9961,169.501h -6.80315" fill="none" stroke="black"/>
<path d="M63.9961,167.461h -6.80315" fill="none" stroke="black"/>
<path d="M63.9961,165.662h -6.80315" fill="none" stroke="black"/>
<path d="M70.7992,164.053h -13.6063" fill="none" stroke="black"/>
<text xml:space="preserve" x="49.0263" y="163.924" fill="black" font-size="7.16345" font-family="Helvetica">3</text>
<text xml:space="preserve" x="38.0783" y="168.658" fill="black" font-size="10.4952" font-family="Helvetica">10</text>
<path d="M63.9961,153.465h -6.80315" fill="none" stroke="black"/>
<path d="M63.9961,147.272h -6.80315" fill="none" stroke="black"/>
<path d="M63.9961,142.878h -6.80315" fill="none" stroke="black"/>
<path d="M63.9961,139.47h -6.80315" fill="none" stroke="black"/>
<path d="M63.9961,136.685h -6.80315" fill="none" stroke="black"/>
<path d="M63.9961,134.33h -6.80315" fill="none" stroke="black"/>
<path d="M63.9961,132.291h -6.80315" fill="none" stroke="black"/>
<path d="M63.9961,130.492h -6.80315" fill="none" stroke="black"/>
<path d="M70.7992,128.883h -13.6063" fill="none" stroke="black"/>
<text xml:space="preserve" x="49.0263" y="129.009" fill="black" font-size="7.16345" font-family="Helvetica">4</text>
<text xml:space="preserve" x="38.0783" y="133.447" fill="black" font-size="10.4952" font-family="Helvetica">10</text>
<path d="M63.9961,118.295h -6.80315" fill="none" stroke="black"/>
<path d="M63.9961,112.102h -6.80315" fill="none" stroke="black"/>
<path d="M63.9961,107.708h -6.80315" fill="none" stroke="black"/>
<path d="M63.9961,104.3h -6.80315" fill="none" stroke="black"/>
<path d="M63.9961,101.515h -6.80315" fill="none" stroke="black"/>
<path d="M63.9961,99.1603h -6.80315" fill="none" stroke="black"/>
<path d="M63.9961,97.1207h -6.80315" fill="none" stroke="black"/>
<path d="M63.9961,95.3217h -6.80315" fill="none" stroke="black"/>
<path d="M70.7992,93.7124h -13.6063" fill="none" stroke="black"/>
<text xml:space="preserve" x="49.0263" y="93.5019" fill="black" font-size="7.16345" font-family="Helvetica">5</text>
<text xml:space="preserve" x="38.0783" y="98.2362" fill="black" font-size="10.4952" font-family="Helvetica">10</text>
<path d="M63.9961,83.1251h -6.80315" fill="none" stroke="black"/>
<path d="M63.9961,76.932h -6.80315" fill="none" stroke="black"/>
<path d="M63.9961,72.5378h -6.80315" fill="none" stroke="black"/>
<path d="M63.9961,69.1295h -6.80315" fill="none" stroke="black"/>
<path d="M63.9961,66.3447h -6.80315" fill="none" stroke="black"/>
<path d="M63.9961,63.9901h -6.80315" fill="none" stroke="black"/>
<path d="M63.9961,61.9506h -6.80315" fill="none" stroke="black"/>
<path d="M63.9961,60.1515h -6.80315" fill="none" stroke="black"/>
<path d="M70.7992,58.5422h -13.6063" fill="none" stroke="black"/>
<text xml:space="preserve" x="49.0263" y="58.2907" fill="black" font-size="7.16345" font-family="Helvetica">6</text>
<text xml:space="preserve" x="38.0783" y="63.025" fill="black" font-size="10.4952" font-family="Helvetica">10</text>
<path d="M63.9961,47.9549h -6.80315" fill="none" stroke="black"/>
<path d="M63.9961,41.7618h -6.80315" fill="none" stroke="black"/>
<path d="M63.9961,37.3677h -6.80315" fill="none" stroke="black"/>
<path d="M63.9961,33.9593h -6.80315" fill="none" stroke="black"/>
<path d="M63.9961,31.1745h -6.80315" fill="none" stroke="black"/>
<g transform="rotate(-90,26.5385,191.442)">
<text xml:space="preserve" x="26.5385" y="191.442" fill="black" font-size="10.4952" font-family="Helvetica">Counts/Channel</text>
</g>
<text xml:space="preserve" x="404.097" y="58.2907" fill="black" font-size="14.7788" font-family="Helvetica" font-weight="bold"> = 2.4879 MeV</text>
<text xml:space="preserve" x="398.179" y="61.5455" fill="black" font-size="10.0192" font-family="Helvetica" font-weight="bold">p</text>
<text xml:space="preserve" x="389.006" y="58.2907" fill="black" font-size="14.7788" font-family="Helvetica" font-weight="bold">E</text>
<path d="M262.163,162.597v 26.4643" fill="none" stroke="black"/>
<path d="M264.454,189.061l -2.29122, 3.9685l -2.29122, -3.9685z" fill="black"/>
<path d="M264.454,189.061l -2.29122, 3.9685l -2.29122, -3.9685h 4.58243z" fill="none" stroke="black"/>
<text xml:space="preserve" x="266.803" y="160.373" fill="black" font-size="10.4952" font-family="Helvetica" font-weight="bold">_1 	1.369 MeV</text>
<text xml:space="preserve" x="260.293" y="160.373" fill="black" font-size="10.4952" font-family="Times">&#0945;</text>
<path d="M184.528,128.883v 31.2017" fill="none" stroke="black"/>
<path d="M186.819,160.084l -2.29122, 3.9685l -2.29122, -3.9685z" fill="black"/>
<path d="M186.819,160.084l -2.29122, 3.9685l -2.29122, -3.9685h 4.58243z" fill="none" stroke="black"/>
<text xml:space="preserve" x="172.117" y="126.05" fill="black" font-size="10.4952" font-family="Helvetica" font-weight="bold"># p_1 	0.844 MeV</text>
<path d="M210.104,147.272v 12.8119" fill="none" stroke="black"/>
<path d="M212.395,160.084l -2.29122, 3.9685l -2.29122, -3.9685z" fill="black"/>
<path d="M212.395,160.084l -2.29122, 3.9685l -2.29122, -3.9685h 4.58243z" fill="none" stroke="black"/>
<text xml:space="preserve" x="197.564" y="142.62" fill="black" font-size="10.4952" font-family="Helvetica" font-weight="bold"># p_2 	1.015 MeV</text>
<path d="M497.477,269.563h 13.1889" fill="none" stroke="black"/>
<path d="M504.071,258.976h 6.59447" fill="none" stroke="black"/>
<path d="M504.071,252.783h 6.59447" fill="none" stroke="black"/>
<path d="M504.071,248.389h 6.59447" fill="none" stroke="black"/>
<path d="M504.071,244.98h 6.59447" fill="none" stroke="black"/>
<path d="M504.071,242.196h 6.59447" fill="none" stroke="black"/>
<path d="M504.071,239.841h 6.59447" fill="none" stroke="black"/>
<path d="M504.071,237.801h 6.59447" fill="none" stroke="black"/>
<path d="M504.071,236.002h 6.59447" fill="none" stroke="black"/>
<path d="M497.477,234.393h 13.1889" fill="none" stroke="black"/>
<path d="M504.071,223.806h 6.59447" fill="none" stroke="black"/>
<path d="M504.071,217.613h 6.59447" fill="none" stroke="black"/>
<path d="M504.071,213.219h 6.59447" fill="none" stroke="black"/>
<path d="M504.071,209.81h 6.59447" fill="none" stroke="black"/>
<path d="M504.071,207.025h 6.59447" fill="none" stroke="black"/>
<path d="M504.071,204.671h 6.59447" fill="none" stroke="black"/>
<path d="M504.071,202.631h 6.59447" fill="none" stroke="black"/>
<path d="M504.071,200.832h 6.59447" fill="none" stroke="black"/>
<path d="M497.477,199.223h 13.1889" fill="none" stroke="black"/>
<path d="M504.071,188.636h 6.59447" fill="none" stroke="black"/>
<path d="M504.071,182.442h 6.59447" fill="none" stroke="black"/>
<path d="M504.071,178.048h 6.59447" fill="none" stroke="black"/>
<path d="M504.071,174.64h 6.59447" fill="none" stroke="black"/>
<path d="M504.071,171.855h 6.59447" fill="none" stroke="black"/>
<path d="M504.071,169.501h 6.59447" fill="none" stroke="black"/>
<path d="M504.071,167.461h 6.59447" fill="none" stroke="black"/>
<path d="M504.071,165.662h 6.59447" fill="none" stroke="black"/>
<path d="M497.477,164.053h 13.1889" fill="none" stroke="black"/>
<path d="M504.071,153.465h 6.59447" fill="none" stroke="black"/>
<path d="M504.071,147.272h 6.59447" fill="none" stroke="black"/>
<path d="M504.071,142.878h 6.59447" fill="none" stroke="black"/>
<path d="M504.071,139.47h 6.59447" fill="none" stroke="black"/>
<path d="M504.071,136.685h 6.59447" fill="none" stroke="black"/>
<path d="M504.071,134.33h 6.59447" fill="none" stroke="black"/>
<path d="M504.071,132.291h 6.59447" fill="none" stroke="black"/>
<path d="M504.071,130.492h 6.59447" fill="none" stroke="black"/>
<path d="M497.477,128.883h 13.1889" fill="none" stroke="black"/>
<path d="M504.071,118.295h 6.59447" fill="none" stroke="black"/>
<path d="M504.071,112.102h 6.59447" fill="none" stroke="black"/>
<path d="M504.071,107.708h 6.59447" fill="none" stroke="black"/>
<path d="M504.071,104.3h 6.59447" fill="none" stroke="black"/>
<path d="M504.071,101.515h 6.59447" fill="none" stroke="black"/>
<path d="M504.071,99.1603h 6.59447" fill="none" stroke="black"/>
<path d="M504.071,97.1207h 6.59447" fill="none" stroke="black"/>
<path d="M504.071,95.3217h 6.59447" fill="none" stroke="black"/>
<path d="M497.477,93.7124h 13.1889" fill="none" stroke="black"/>
<path d="M504.071,83.1251h 6.59447" fill="none" stroke="black"/>
<path d="M504.071,76.932h 6.59447" fill="none" stroke="black"/>
<path d="M504.071,72.5378h 6.59447" fill="none" stroke="black"/>
<path d="M504.071,69.1295h 6.59447" fill="none" stroke="black"/>
<path d="M504.071,66.3447h 6.59447" fill="none" stroke="black"/>
<path d="M504.071,63.9901h 6.59447" fill="none" stroke="black"/>
<path d="M504.071,61.9506h 6.59447" fill="none" stroke="black"/>
<path d="M504.071,60.1515h 6.59447" fill="none" stroke="black"/>
<path d="M497.477,58.5422h 13.1889" fill="none" stroke="black"/>
<path d="M504.071,47.9549h 6.59447" fill="none" stroke="black"/>
<path d="M504.071,41.7618h 6.59447" fill="none" stroke="black"/>
<path d="M504.071,37.3677h 6.59447" fill="none" stroke="black"/>
<path d="M504.071,33.9593h 6.59447" fill="none" stroke="black"/>
<path d="M504.071,31.1745h 6.59447" fill="none" stroke="black"/>
<path d="M504.071,28.82h 6.59447" fill="none" stroke="black"/>
<path d="M57.1929,35.6485v -7.46952" fill="none" stroke="black"/>
<path d="M75.3318,35.6485v -7.46952" fill="none" stroke="black"/>
<path d="M93.4707,35.6485v -7.46952" fill="none" stroke="black"/>
<path d="M111.61,35.6485v -7.46952" fill="none" stroke="black"/>
<path d="M129.749,35.6485v -7.46952" fill="none" stroke="black"/>
<path d="M147.887,35.6485v -7.46952" fill="none" stroke="black"/>
<path d="M166.026,35.6485v -7.46952" fill="none" stroke="black"/>
<path d="M184.165,35.6485v -7.46952" fill="none" stroke="black"/>
<path d="M202.304,35.6485v -7.46952" fill="none" stroke="black"/>
<path d="M220.443,35.6485v -7.46952" fill="none" stroke="black"/>
<path d="M238.582,35.6485v -7.46952" fill="none" stroke="black"/>
<path d="M256.721,35.6485v -7.46952" fill="none" stroke="black"/>
<path d="M274.86,35.6485v -7.46952" fill="none" stroke="black"/>
<path d="M292.999,35.6485v -7.46952" fill="none" stroke="black"/>
<path d="M311.138,35.6485v -7.46952" fill="none" stroke="black"/>
<path d="M329.277,35.6485v -7.46952" fill="none" stroke="black"/>
<path d="M347.415,35.6485v -7.46952" fill="none" stroke="black"/>
<path d="M365.554,35.6485v -7.46952" fill="none" stroke="black"/>
<path d="M383.693,35.6485v -7.46952" fill="none" stroke="black"/>
<path d="M401.832,35.6485v -7.46952" fill="none" stroke="black"/>
<path d="M419.971,35.6485v -7.46952" fill="none" stroke="black"/>
<path d="M438.11,35.6485v -7.46952" fill="none" stroke="black"/>
<path d="M456.249,35.6485v -7.46952" fill="none" stroke="black"/>
<path d="M474.388,35.6485v -7.46952" fill="none" stroke="black"/>
<path d="M492.527,35.6485v -7.46952" fill="none" stroke="black"/>
<path d="M510.666,35.6485v -7.46952" fill="none" stroke="black"/></svg>
