<?xml version="1.0" standalone="no"?>
<svg width="567.429" height="311.778" viewBox="0 0 567.429 311.778" xmlns="http://www.w3.org/2000/svg" shape-rendering="crispEdges">
<title>
Yields/P1/det-8/run_0105_Fit.svg
</title>
<desc>
Creator: ROOT Version 6.12/06
CreationDate: Mon Apr 15 10:29:02 2019</desc>
<defs>
</defs>
<rect x="0.5" y="0" width="566.929" height="311.278" fill="white"/>
<rect x="57.1929" y="31.1278" width="453.543" height="249.023" fill="white"/>
<rect x="57.1929" y="31.1278" width="453.543" height="249.023" fill="none" stroke="black"/>
<rect x="57.1929" y="31.1278" width="453.543" height="249.023" fill="white"/>
<rect x="57.1929" y="31.1278" width="453.543" height="249.023" fill="none" stroke="black"/>
<path d="M57.1929,40.6609h 0.181345v 239.49h 18.1345v -10.3396h 0.181345v 10.3396h 2.53883v -10.3396h 0.181345v 10.3396h 5.44034v -10.3396h 0.181345v 10.3396h 0.544034v -10.3396h 0.181345v 10.3396h 1.81345v -10.3396h 0.181345v 10.3396h 1.6321v
 -20.6792h 0.181345v 10.3396h 0.181345v -24.0078h 0.181345v -28.1492h 0.181345v -13.7583h 0.181345v -11.4643h 0.181345v -8.09561h 0.181345v -6.68045h 0.181345v -3.09153h 0.181345v -2.38902h 0.181345v -0.914413h 0.181345v -2.46554h 0.181345v -1.24516h
 0.181345v -0.202954h 0.181345v -0.652291h 0.181345v -0.948793h 0.181345v -0.371394h 0.181345v -0.754944h 0.181345v 0.592802h 0.181345v -1.03812h 0.181345v 0.227358h 0.181345v -1.52321h 0.181345v 0.395944h 0.181345v -0.140948h 0.181345v -0.426391h
 0.181345v 0.275185h 0.181345v -0.700771h 0.181345v -0.0880705h 0.181345v -0.0328928h 0.181345v -0.0873613h 0.181345v 0.341413h 0.181345v -0.0444949h 0.181345v -0.253301h 0.181345v 0.331255h 0.181345v -0.61251h 0.181345v 0.183296h 0.181345v
 -0.966104h 0.181345v 1.09686h 0.181345v -0.663558h 0.181345v 0.663558h 0.181345v -0.933273h 0.181345v 0.565737h 0.181345v -1.03129h 0.181345v 1.04198h 0.181345v -0.127677h 0.181345v -0.241702h 0.181345v -0.0520297h 0.181345v 0.031196h 0.181345v
 0.856913h 0.181345v -0.551939h 0.181345v 0.651496h 0.181345v -0.285815h 0.181345v 0.668032h 0.181345v -0.0227565h 0.181345v -0.0113653h 0.181345v 0.414705h 0.181345v 0.0233807h 0.181345v 0.235845h 0.181345v -0.456496h 0.181345v 1.17479h 0.181345v
 -0.658743h 0.181345v -0.330451h 0.181345v -0.561239h 0.181345v -0.94725h 0.181345v -1.15661h 0.181345v -2.27712h 0.181345v -2.71269h 0.181345v -3.0137h 0.181345v -3.06483h 0.181345v -3.3314h 0.181345v -3.12195h 0.181345v -2.9511h 0.181345v -2.62741h
 0.181345v -1.56833h 0.181345v -1.34068h 0.181345v -1.03064h 0.181345v 0.253897h 0.181345v 0.511072h 0.181345v 0.904017h 0.181345v 1.69871h 0.181345v 2.66227h 0.181345v 3.08063h 0.181345v 2.86061h 0.181345v 4.1498h 0.181345v 3.96163h 0.181345v
 4.06445h 0.181345v 4.294h 0.181345v 3.13946h 0.181345v 2.80196h 0.181345v 1.90543h 0.181345v 2.29038h 0.181345v -0.0211437h 0.181345v 1.18695h 0.181345v -0.113957h 0.181345v 0.298119h 0.181345v 0.470603h 0.181345v -1.061h 0.181345v 1.35066h
 0.181345v 0.370165h 0.181345v 0.251981h 0.181345v 0.36008h 0.181345v -0.536913h 0.181345v 0.746644h 0.181345v 0.75819h 0.181345v 0.537349h 0.181345v -0.948309h 0.181345v 0.217769h 0.181345v 0.276759h 0.181345v -0.0557642h 0.181345v -1.12533h
 0.181345v 1.43464h 0.181345v -0.775078h 0.181345v -0.21425h 0.181345v -0.105982h 0.181345v 0.953916h 0.181345v 0.839387h 0.181345v -0.839387h 0.181345v -1.47282h 0.181345v 0.335225h 0.181345v 0.585051h 0.181345v 1.54155h 0.181345v -0.385931h
 0.181345v 0.506716h 0.181345v 0.244545h 0.181345v -0.0921747h 0.181345v 0.372166h 0.181345v 0.349507h 0.181345v 0.423897h 0.181345v 0.850681h 0.181345v -1.43446h 0.181345v 1.68161h 0.181345v -0.797143h 0.181345v -0.0337105h 0.181345v -0.0336345h
 0.181345v 0.54747h 0.181345v -0.0695428h 0.181345v 0.139411h 0.181345v 0.318522h 0.36269v 0.0358149h 0.181345v -1.82057h 0.181345v 3.40817h 0.181345v -1.90688h 0.181345v 0.904331h 0.181345v -0.939388h 0.181345v 0.827929h 0.181345v 0.52742h 0.181345v
 0.507028h 0.181345v -0.659632h 0.181345v 0.423476h 0.181345v -0.30917h 0.181345v 0.387474h 0.181345v -0.987229h 0.181345v 0.908924h 0.181345v -1.01874h 0.181345v 1.01874h 0.181345v -0.649494h 0.181345v -0.62239h 0.181345v 1.1165h 0.181345v 0.631497h
 0.181345v 1.00039h 0.181345v -0.96002h 0.181345v -0.280326h 0.181345v 0.857294h 0.181345v -0.25001h 0.181345v 0.124481h 0.181345v -1.84006h 0.181345v 2.21986h 0.181345v 0.700041h 0.181345v -2.7346h 0.181345v 1.57165h 0.181345v -0.246566h 0.181345v
 1.36478h 0.181345v -1.20086h 0.181345v 1.02327h 0.181345v -0.305774h 0.181345v 0.936794h 0.181345v -2.10082h 0.181345v 0.364338h 0.181345v -1.02916h 0.181345v 1.31882h 0.181345v 0.466854h 0.181345v -2.20058h 0.181345v 1.24056h 0.181345v -2.82708h
 0.181345v 1.66111h 0.181345v -1.28859h 0.181345v -2.10716h 0.36269v 0.422774h 0.181345v -0.920538h 0.181345v -1.6864h 0.181345v 0.792234h 0.181345v 0.0815876h 0.181345v -0.135732h 0.181345v 0.948309h 0.181345v -0.114746h 0.181345v 1.5653h 0.181345v
 -0.376076h 0.181345v 1.80733h 0.181345v 2.42222h 0.181345v -0.993502h 0.181345v -0.228908h 0.181345v 1.30482h 0.181345v -0.326959h 0.181345v 1.75696h 0.181345v 1.18262h 0.181345v -0.436623h 0.181345v -0.0477341h 0.181345v -0.0950124h 0.181345v
 -0.188228h 0.181345v 0.426904h 0.181345v -0.796381h 0.181345v 0.99011h 0.181345v 0.445313h 0.181345v 0.10079h 0.181345v 0.152474h 0.181345v -0.551612h 0.181345v 0.0493121h 0.181345v 0.759938h 0.181345v -1.10175h 0.181345v 0.243348h 0.181345v
 -1.13347h 0.181345v 2.25404h 0.181345v -1.12057h 0.181345v 0.910466h 0.181345v -1.10546h 0.181345v 1.15771h 0.181345v -1.20606h 0.181345v 1.47008h 0.181345v -2.22315h 0.181345v -0.934h 0.181345v 0.888173h 0.181345v 3.26013h 0.181345v 0.114306h
 0.181345v -1.88391h 0.181345v -0.739832h 0.181345v -0.333086h 0.181345v 0.189423h 0.181345v -0.698266h 0.181345v 1.53128h 0.181345v -1.48573h 0.181345v 2.15569h 0.181345v -0.467002h 0.181345v -0.202954h 0.181345v -0.397807h 0.181345v -1.26929h
 0.181345v -0.400179h 0.181345v -1.01746h 0.181345v 0.627732h 0.181345v -0.911872h 0.181345v -1.12268h 0.181345v 1.53027h 0.181345v 1.20432h 0.181345v -1.03812h 0.181345v 0.0418426h 0.181345v 0.90695h 0.181345v 0.089323h 0.181345v 0.225676h 0.181345v
 0.508843h 0.181345v 0.094411h 0.181345v 0.928027h 0.181345v -1.30214h 0.181345v 1.20169h 0.181345v 0.252407h 0.181345v -0.64758h 0.181345v 0.546104h 0.181345v 0.358227h 0.181345v -0.806515h 0.181345v 2.68047h 0.181345v -1.2391h 0.181345v 0.494528h
 0.181345v -1.18109h 0.181345v 2.40304h 0.181345v -0.996784h 0.181345v -0.391836h 0.181345v 0.222644h 0.181345v -0.222644h 0.181345v 0.678157h 0.181345v -0.842987h 0.181345v 0.443658h 0.181345v 1.04928h 0.181345v -0.475479h 0.181345v -0.174469h
 0.181345v -0.0577057h 0.181345v 1.38722h 0.181345v -2.22704h 0.181345v 0.839822h 0.181345v 0.527568h 0.181345v 0.733766h 0.181345v -1.88179h 0.181345v -0.164829h 0.181345v 1.43266h 0.181345v -0.119815h 0.181345v -0.925375h 0.181345v -0.871307h
 0.181345v 0.0529908h 0.181345v -0.623794h 0.181345v 1.66813h 0.181345v -1.51461h 0.181345v 2.76088h 0.181345v -0.606461h 0.181345v -0.865827h 0.181345v 0.226018h 0.181345v -0.613491h 0.181345v -0.377663h 0.181345v 1.16294h 0.181345v 0.115635h
 0.36269v -2.35738h 0.181345v 0.606873h 0.181345v 0.740707h 0.181345v 0.722374h 0.181345v -0.830468h 0.181345v -0.632613h 0.181345v 0.0517051h 0.181345v 1.9328h 0.181345v -1.40564h 0.181345v -0.160111h 0.181345v 0.376302h 0.181345v 1.01361h 0.181345v
 -1.28337h 0.181345v 0.0535616h 0.181345v 0.827397h 0.36269v -1.0405h 0.181345v 2.59326h 0.181345v -0.974511h 0.181345v -1.4592h 0.181345v 0.0535616h 0.181345v 0.216191h 0.181345v 0.0545408h 0.181345v 0.164829h 0.181345v -0.595672h 0.181345v
 -0.674618h 0.181345v -0.547927h 0.181345v 1.38266h 0.181345v -0.475269h 0.181345v 0.209363h 0.181345v -0.467002h 0.181345v -0.353378h 0.181345v 0.926174h 0.181345v -0.105794h 0.181345v 1.03669h 0.181345v -1.29794h 0.181345v 1.75696h 0.181345v
 -0.0581556h 0.181345v -0.400862h 0.181345v -0.224318h 0.181345v -0.166052h 0.181345v 1.26295h 0.181345v -0.587355h 0.181345v 0.408708h 0.36269v 0.298946h 0.181345v -1.8706h 0.181345v 2.9993h 0.181345v 0.530434h 0.181345v -1.04265h 0.181345v
 0.382505h 0.181345v -1.05926h 0.181345v 0.551406h 0.181345v 2.00079h 0.181345v -0.422204h 0.181345v -0.810166h 0.181345v -0.954498h 0.181345v 1.90408h 0.181345v -1.59265h 0.181345v -0.856122h 0.181345v 0.982537h 0.181345v 2.11023h 0.181345v
 -2.04661h 0.181345v 0.988235h 0.181345v 1.73144h 0.181345v -0.818589h 0.181345v 2.3478h 0.181345v -0.500054h 0.181345v -0.243878h 0.181345v -3.50495h 0.181345v 1.26321h 0.181345v -0.611712h 0.181345v 1.32217h 0.181345v 0.443109h 0.181345v 0.769082h
 0.181345v -1.50045h 0.181345v 0.361202h 0.181345v 1.7844h 0.181345v 0.417867h 0.181345v -2.84627h 0.181345v 0.79096h 0.181345v -0.364734h 0.181345v 1.1221h 0.181345v -0.683336h 0.181345v 0.528755h 0.181345v 2.23551h 0.181345v -2.68987h 0.181345v
 0.14992h 0.181345v -0.518257h 0.181345v 2.53167h 0.181345v 0.173454h 0.181345v -1.4138h 0.181345v -0.545326h 0.181345v 1.87215h 0.181345v -2.69073h 0.181345v 2.3478h 0.181345v -0.0845152h 0.181345v 0.254996h 0.181345v 0.0859766h 0.181345v -1.4765h
 0.181345v 2.36467h 0.181345v -1.64468h 0.181345v 1.10546h 0.181345v -2.36236h 0.181345v 0.459018h 0.181345v 1.46842h 0.181345v -0.994828h 0.181345v 1.34175h 0.181345v -1.42173h 0.181345v -0.624883h 0.181345v 1.11135h 0.181345v 2.02724h 0.181345v
 -0.646654h 0.181345v 1.12634h 0.181345v -3.69457h 0.181345v 4.08974h 0.181345v -1.87882h 0.181345v -0.0880055h 0.181345v -1.26133h 0.181345v 0.743933h 0.181345v -2.56347h 0.181345v 1.65914h 0.181345v 1.33424h 0.181345v -1.49293h 0.181345v 1.58042h
 0.181345v 0.0880055h 0.181345v -0.434926h 0.181345v -0.0854839h 0.181345v 1.05963h 0.181345v -2.04896h 0.181345v 0.652209h 0.181345v 2.53745h 0.181345v -2.28533h 0.181345v -1.22004h 0.181345v 3.11537h 0.181345v -1.97984h 0.181345v -0.578567h
 0.181345v 1.00601h 0.181345v 0.893494h 0.181345v -1.98036h 0.181345v -0.937496h 0.181345v 0.69754h 0.181345v 0.079557h 0.181345v 2.32606h 0.181345v 0.282347h 0.181345v -2.0393h 0.181345v 0.678157h 0.181345v 0.174469h 0.181345v -0.260944h 0.181345v
 -1.70898h 0.181345v 0.31078h 0.181345v 0.478658h 0.181345v 1.71648h 0.181345v -1.13791h 0.181345v 1.32094h 0.181345v -0.183032h 0.181345v -1.30552h 0.181345v -2.45342h 0.181345v 2.45342h 0.181345v -0.0831027h 0.181345v 0.335225h 0.181345v 1.32879h
 0.181345v -0.545801h 0.181345v -1.68732h 0.181345v 0.989328h 0.181345v -2.28727h 0.181345v 0.295394h 0.181345v -1.42173h 0.181345v 1.34733h 0.181345v 0.299847h 0.181345v -2.11441h 0.181345v 0.740946h 0.181345v -1.00151h 0.181345v -1.70665h 0.181345v
 0.0577057h 0.181345v -0.897527h 0.181345v 0.554595h 0.181345v -1.14174h 0.181345v 0.751369h 0.181345v -1.0108h 0.181345v 1.6864h 0.181345v -0.620452h 0.181345v 0.335225h 0.181345v -0.279875h 0.181345v -0.861865h 0.181345v 1.14174h 0.181345v
 -0.390371h 0.181345v 0.390371h 0.181345v 0.170481h 0.181345v 0.288537h 0.181345v 0.838922h 0.181345v -2.22884h 0.181345v 1.74369h 0.181345v -0.236781h 0.181345v 1.67642h 0.181345v 0.879709h 0.181345v -1.52278h 0.181345v 1.17826h 0.181345v -1.3659h
 0.181345v -0.428852h 0.181345v 1.12871h 0.181345v -2.78467h 0.181345v 2.71967h 0.181345v -2.5019h 0.181345v -1.46156h 0.181345v 1.18985h 0.181345v -1.58242h 0.181345v -2.03419h 0.181345v -2.2329h 0.181345v 0.368337h 0.181345v -2.21397h 0.181345v
 -0.874043h 0.181345v -1.74348h 0.181345v -2.90731h 0.36269v -1.55833h 0.181345v -1.55565h 0.181345v -0.959336h 0.181345v -1.32466h 0.181345v -0.605845h 0.181345v 0.452062h 0.181345v -1.96124h 0.181345v 0.0941981h 0.181345v -0.0269745h 0.181345v
 0.313191h 0.181345v 0.362146h 0.181345v 0.400094h 0.181345v 0.500713h 0.181345v 1.18401h 0.181345v 1.49976h 0.181345v 1.38949h 0.181345v 0.705184h 0.181345v 2.53513h 0.181345v 0.64975h 0.181345v 0.652637h 0.181345v 3.03792h 0.181345v 1.65914h
 0.181345v 3.67069h 0.181345v -1.92744h 0.181345v 4.80695h 0.181345v -0.556665h 0.181345v 0.556665h 0.181345v 4.08479h 0.181345v -1.82311h 0.181345v 2.7461h 0.181345v 1.50129h 0.181345v -0.34692h 0.181345v -0.254996h 0.181345v -0.578567h 0.181345v
 -0.556962h 0.181345v 2.45647h 0.181345v 1.0489h 0.181345v -1.0489h 0.181345v 2.94232h 0.181345v -0.658205h 0.181345v -2.73755h 0.181345v 1.20888h 0.181345v 0.795756h 0.181345v -1.91505h 0.181345v 1.21647h 0.181345v -1.30606h 0.181345v 0.453436h
 0.181345v 1.44938h 0.181345v -1.44938h 0.181345v 0.755447h 0.36269v 1.00151h 0.181345v 0.527154h 0.181345v 0.216191h 0.181345v -3.3938h 0.181345v 2.9645h 0.181345v -2.07101h 0.181345v 0.467653h 0.181345v 1.60336h 0.181345v -1.41211h 0.181345v
 2.62374h 0.181345v -2.43001h 0.181345v -0.760261h 0.181345v 1.15543h 0.181345v 1.36178h 0.181345v -1.26133h 0.181345v -0.880597h 0.181345v 0.880597h 0.181345v -0.785281h 0.181345v 4.41937h 0.181345v -4.60939h 0.181345v 1.69807h 0.181345v -2.43485h
 0.181345v 1.02274h 0.181345v 2.97201h 0.181345v -3.06794h 0.181345v 2.60537h 0.181345v -2.21789h 0.181345v 1.76923h 0.181345v -2.99338h 0.181345v 1.92744h 0.181345v 1.62891h 0.181345v 0.34827h 0.181345v 0.599153h 0.181345v -0.832234h 0.181345v
 -0.115189h 0.181345v 0.704866h 0.181345v -1.9165h 0.181345v -1.21838h 0.181345v 2.66129h 0.181345v -2.56347h 0.181345v 3.03706h 0.181345v 1.12398h 0.181345v -1.24379h 0.181345v 1.11464h 0.181345v -0.874043h 0.181345v -0.939958h 0.181345v -1.61713h
 0.181345v 3.69056h 0.181345v -0.387474h 0.181345v -0.126953h 0.181345v -1.32951h 0.181345v 0.233081h 0.181345v -1.87395h 0.181345v 1.41138h 0.181345v -0.113437h 0.181345v 1.05339h 0.181345v 1.93999h 0.181345v -1.93999h 0.181345v 1.93999h 0.181345v
 -4.90026h 0.181345v 3.32861h 0.181345v 2.57124h 0.181345v -3.18018h 0.181345v 0.485145h 0.181345v 1.55796h 0.181345v -1.30934h 0.181345v -2.74055h 0.181345v 1.65301h 0.181345v 1.08754h 0.181345v 2.15392h 0.181345v -2.27875h 0.181345v -0.608937h
 0.181345v -1.58358h 0.181345v 0.884223h 0.181345v 0.229495h 0.181345v 0.832234h 0.181345v -2.98226h 0.181345v 0.509158h 0.181345v 0.103951h 0.181345v -3.09733h 0.181345v -0.581791h 0.181345v 0.0817366h 0.181345v -2.62374h 0.181345v -2.40708h
 0.181345v -2.07209h 0.181345v -1.81905h 0.181345v -2.48499h 0.181345v -1.17343h 0.181345v -1.76087h 0.181345v -0.823h 0.181345v -1.9436h 0.181345v -1.55602h 0.181345v -1.28034h 0.181345v -0.857409h 0.181345v -0.983023h 0.181345v -2.07488h 0.181345v
 0.250429h 0.181345v -1.28952h 0.181345v -0.046254h 0.181345v -0.454819h 0.181345v -0.0149244h 0.181345v 0.891284h 0.181345v 0.548358h 0.181345v 1.12569h 0.181345v -0.860498h 0.181345v 1.27364h 0.181345v 0.481232h 0.181345v 1.52366h 0.181345v
 0.530152h 0.181345v 2.76724h 0.181345v 1.38799h 0.181345v 0.941813h 0.181345v 1.53457h 0.181345v 3.34545h 0.181345v 3.0779h 0.181345v -0.307576h 0.181345v 2.84194h 0.181345v 3.59181h 0.181345v 0.884819h 0.181345v 2.3271h 0.181345v -0.476619h
 0.181345v 3.70868h 0.181345v 0.36533h 0.181345v 5.62292h 0.181345v -2.17052h 0.181345v 4.49995h 0.181345v -3.20201h 0.181345v 0.342932h 0.181345v 0.174469h 0.181345v 3.32861h 0.181345v -2.04661h 0.181345v 2.26761h 0.36269v -1.27937h 0.181345v
 1.50369h 0.181345v -1.50369h 0.181345v -0.600761h 0.181345v -0.950442h 0.181345v 2.17718h 0.181345v 2.05288h 0.181345v -0.481232h 0.181345v -2.19763h 0.181345v -1.91505h 0.181345v 0.736786h 0.181345v 4.3544h 0.181345v -1.4447h 0.181345v -1.73144h
 0.181345v 3.95458h 0.181345v -1.75696h 0.181345v -1.99187h 0.181345v 1.52568h 0.181345v 0.466191h 0.36269v 0.238675h 0.181345v -0.473592h 0.181345v -0.683336h 0.181345v 0.683336h 0.181345v -2.36589h 0.181345v 2.13462h 0.181345v 2.49193h 0.181345v
 -5.58926h 0.181345v 5.58926h 0.181345v -3.38275h 0.181345v -1.63637h 0.181345v 1.21014h 0.181345v 2.26447h 0.181345v -0.716148h 0.181345v -1.54833h 0.181345v 0.643995h 0.181345v 1.37792h 0.181345v -1.59569h 0.181345v 2.08481h 0.181345v 3.02103h
 0.181345v -2.2559h 0.181345v 1.08534h 0.181345v -5.76414h 0.181345v 1.40262h 0.181345v 4.08269h 0.181345v -4.29132h 0.181345v 0.634857h 0.181345v 0.438764h 0.181345v -2.64527h 0.181345v 2.42428h 0.181345v 1.37792h 0.181345v -1.59569h 0.181345v
 0.438764h 0.181345v 0.452062h 0.181345v -3.82513h 0.181345v 3.82513h 0.181345v -5.18215h 0.181345v 4.50909h 0.181345v -1.85414h 0.181345v -0.570142h 0.181345v 1.3659h 0.181345v 1.05838h 0.181345v 1.13925h 0.181345v -3.74883h 0.181345v 1.75696h
 0.181345v 1.99187h 0.181345v -0.466191h 0.181345v -2.71967h 0.181345v -0.190027h 0.181345v 1.59265h 0.181345v 0.86499h 0.181345v 1.39948h 0.181345v 0.246566h 0.181345v -0.246566h 0.181345v -4.77255h 0.181345v 3.82513h 0.181345v 0.947423h 0.181345v
 -1.39948h 0.181345v 1.89676h 0.181345v -3.97189h 0.181345v 0.795756h 0.181345v 0.205754h 0.181345v -0.205754h 0.181345v 0.840611h 0.181345v 0.890826h 0.181345v 2.49193h 0.181345v -4.22336h 0.181345v 2.19763h 0.181345v 4.05641h 0.181345v -6.25403h
 0.181345v 6.88889h 0.36269v -6.47451h 0.181345v 1.31705h 0.181345v 0.466191h 0.181345v -0.234917h 0.181345v 1.21342h 0.181345v 2.77032h 0.181345v -5.7407h 0.181345v 0.852626h 0.181345v 6.15837h 0.181345v -5.93737h 0.181345v -0.438764h 0.181345v
 5.41342h 0.181345v -2.03067h 0.181345v -1.78706h 0.36269v 0.489122h 0.181345v 0.505706h 0.181345v -3.01675h 0.181345v -0.414385h 0.181345v 2.67886h 0.36269v 1.27573h 0.181345v -1.02916h 0.181345v -0.727798h 0.36269v -1.99187h 0.181345v 2.71967h
 0.181345v -0.962714h 0.181345v 3.09733h 0.181345v 3.18586h 0.181345v -5.32048h 0.181345v 0.505706h 0.181345v -2.80516h 0.181345v 3.8711h 0.181345v -1.06595h 0.181345v -0.994828h 0.181345v 0.994828h 0.181345v -1.69969h 0.181345v 4.21502h 0.181345v
 -2.2559h 0.181345v 0.532803h 0.181345v 2.03067h 0.181345v -1.47813h 0.181345v 1.17055h 0.181345v -0.596755h 0.181345v -0.573797h 0.181345v -0.278829h 0.181345v -1.81822h 0.181345v 1.81822h 0.181345v 0.852626h 0.181345v -4.29132h 0.181345v 2.8962h
 0.181345v -1.02916h 0.181345v 3.02103h 0.181345v -0.886413h 0.181345v -0.562968h 0.181345v -0.542492h 0.181345v -0.523453h 0.181345v 1.34477h 0.181345v 1.17055h 0.181345v -3.51016h 0.181345v 2.3396h 0.181345v 0.573797h 0.181345v 0.596755h 0.181345v
 2.29945h 0.181345v -1.67782h 0.181345v -1.79218h 0.181345v 0.869191h 0.181345v 2.96027h 0.181345v 1.13347h 0.181345v -2.84995h 0.181345v -0.320806h 0.181345v 2.03728h 0.181345v 5.16537h 0.181345v -0.994828h 0.181345v -0.473592h 0.181345v -4.40741h
 0.181345v 2.24174h 0.181345v -2.24174h 0.181345v 2.65045h 0.181345v -1.93999h 0.181345v 0.746h 0.181345v 0.785281h 0.181345v 1.26133h 0.181345v 0.445313h 0.181345v -3.23793h 0.181345v 3.23793h 0.181345v -4.62655h 0.181345v 7.07744h 0.181345v
 -7.7261h 0.181345v 2.78328h 0.181345v 2.49193h 0.36269v -0.445313h 0.181345v -2.79261h 0.181345v 6.23131h 0.36269v 0.562968h 0.181345v -4.43407h 0.181345v 0.877717h 0.181345v 1.42173h 0.181345v -1.86705h 0.181345v 0.904331h 0.181345v 1.46842h
 0.181345v 5.54257h 0.181345v -6.04828h 0.181345v 2.13462h 0.181345v 1.82885h 0.36269v -2.39181h 0.36269v 4.47663h 0.181345v -2.71967h 0.181345v 6.04828h 0.181345v -6.65722h 0.181345v 8.64909h 0.181345v -8.04015h 0.181345v 3.48481h 0.181345v
 -2.18687h 0.181345v 1.42173h 0.181345v 3.32861h 0.181345v -7.24227h 0.181345v 2.49193h 0.181345v -1.29794h 0.181345v -0.608937h 0.181345v 4.09375h 0.181345v -4.6788h 0.181345v -1.62891h 0.181345v 6.30771h 0.181345v 1.65914h 0.181345v 0.904331h
 0.181345v -3.32861h 0.181345v 6.42594h 0.181345v -4.00167h 0.181345v -3.84601h 0.181345v 1.42173h 0.181345v 7.61993h 0.181345v -9.04166h 0.181345v 5.71305h 0.181345v -5.71305h 0.181345v 0.693934h 0.181345v 1.49293h 0.181345v -1.49293h 0.181345v
 6.04828h 0.181345v -4.55535h 0.181345v -1.49293h 0.181345v 4.05641h 0.181345v -6.04828h 0.181345v 2.71967h 0.181345v -1.42173h 0.181345v -5.11567h 0.181345v 2.62374h 0.181345v -1.62891h 0.181345v -2.80516h 0.181345v -1.22674h 0.181345v 3.52619h
 0.181345v -3.12838h 0.181345v -1.89074h 0.181345v -1.67782h 0.181345v -1.79218h 0.181345v -0.821321h 0.181345v -0.523453h 0.36269v 0.792234h 0.181345v -2.94399h 0.181345v 1.89676h 0.181345v -0.739832h 0.181345v -0.93261h 0.181345v -0.877717h
 0.181345v 0.653399h 0.181345v 2.67521h 0.181345v -1.75696h 0.181345v -0.918253h 0.181345v 3.78067h 0.181345v -3.32861h 0.181345v 0.704866h 0.181345v -0.473592h 0.181345v 3.38699h 0.181345v 0.295394h 0.181345v 1.57165h 0.181345v -2.1567h 0.181345v
 2.83486h 0.181345v 2.65045h 0.181345v 0.420222h 0.181345v 2.29945h 0.181345v 1.02916h 0.181345v -1.02916h 0.181345v -3.52619h 0.181345v 1.22674h 0.181345v 5.01912h 0.181345v -1.69051h 0.181345v -4.15754h 0.181345v 3.12838h 0.181345v 2.13462h
 0.181345v 0.585051h 0.181345v 1.24379h 0.181345v -1.82885h 0.181345v 0.585051h 0.36269v 5.75289h 0.181345v -11.1922h 0.181345v 5.43934h 0.181345v -5.84805h 0.181345v 0.408708h 0.181345v -2.65045h 0.181345v -1.32682h 0.181345v 3.17076h 0.181345v
 -6.81342h 0.181345v 0.505706h 0.181345v -5.87583h 0.181345v -0.842987h 0.181345v -0.952466h 0.181345v -0.895282h 0.181345v -0.980806h 0.181345v 0.980806h 0.181345v -6.66301h 0.181345v 1.35702h 0.181345v -2.2559h 0.181345v -1.17384h 0.181345v
 1.79733h 0.181345v -0.796938h 0.181345v -2.45873h 0.181345v -0.361202h 0.181345v -1.16651h 0.181345v -0.771736h 0.181345v 1.03812h 0.181345v -1.10066h 0.181345v -0.247589h 0.181345v 0.123281h 0.181345v -0.606461h 0.181345v -0.468019h 0.181345v
 0.468019h 0.181345v -1.41633h 0.181345v 0.383207h 0.181345v 0.622807h 0.181345v -0.622807h 0.181345v -1.72612h 0.181345v 3.12015h 0.181345v -2.61785h 0.181345v -0.353378h 0.181345v 2.25793h 0.181345v -3.45576h 0.36269v 0.950442h 0.181345v -1.49293h
 0.181345v 0.588603h 0.181345v -0.765137h 0.181345v 0.857788h 0.181345v -1.79306h 0.181345v -1.26356h 0.181345v 1.22241h 0.181345v 1.42173h 0.181345v -0.920276h 0.181345v 0.695958h 0.181345v -0.524989h 0.181345v -0.297922h 0.181345v 0.558107h
 0.181345v 0.443988h 0.181345v 0.929702h 0.181345v -1.28594h 0.181345v 3.72998h 0.181345v 0.0566107h 0.181345v 2.32784h 0.181345v 0.817569h 0.181345v 1.08931h 0.181345v 2.45089h 0.181345v 1.10546h 0.181345v 3.91366h 0.181345v -0.845718h 0.181345v
 2.98034h 0.181345v 1.19399h 0.181345v 0.473592h 0.181345v 0.655793h 0.181345v 4.01456h 0.181345v 4.29132h 0.181345v -1.91857h 0.181345v 4.12084h 0.181345v -3.32861h 0.181345v 5.51548h 0.181345v 4.03189h 0.181345v 7.11423h 0.181345v -2.29945h
 0.181345v 7.15374h 0.181345v -9.14561h 0.181345v 1.99187h 0.181345v 7.15374h 0.181345v -3.09733h 0.36269v -4.05641h 0.181345v 3.15208h 0.181345v 11.2439h 0.181345v -4.75034h 0.181345v -2.49193h 0.181345v -1.10546h 0.181345v 6.59077h 0.36269v
 8.76795h 0.181345v -7.01099h 0.181345v 14.6309h 0.181345v -7.61993h 0.181345v -2.71967h 0.181345v -2.29945h 0.181345v 2.29945h 0.181345v -2.29945h 0.36269v -10.3396h 0.181345v 18.6873h 0.181345v -12.0966h 0.181345v 1.75696h 0.181345v -3.32861h
 0.181345v 10.3396h 0.181345v -5.01912h 0.36269v 29.0269h 0.181345v -29.0269h 0.36269v 8.34773h 0.181345v 10.3396h 0.181345v -16.3879h 0.181345v 2.71967h 0.36269v 7.61993h 0.181345v -7.61993h 0.181345v 3.32861h 0.181345v -10.3396h 0.181345v -1.75696h
 0.181345v 1.75696h 0.181345v 4.29132h 0.181345v 10.3396h 0.181345v -7.61993h 0.36269v -5.01912h 0.181345v 5.01912h 0.181345v -2.71967h 0.36269v 2.71967h 0.181345v -2.71967h 0.181345v 2.71967h 0.181345v 13.6682h 0.181345v -13.6682h 0.36269v 13.6682h
 0.181345v -10.3396h 0.181345v 4.29132h 0.544034v -16.3879h 0.181345v 1.75696h 0.181345v 7.01099h 0.181345v 7.61993h 0.36269v -10.3396h 0.36269v 2.71967h 0.181345v -2.71967h 0.36269v 26.7275h 0.181345v -26.7275h 0.181345v -2.29945h 0.181345v 2.29945h
 0.36269v -2.29945h 0.181345v -3.74883h 0.36269v 8.76795h 0.181345v -13.0593h 0.181345v -3.32861h 0.181345v 6.04828h 0.181345v -6.04828h 0.181345v 6.04828h 0.181345v -2.71967h 0.181345v 1.29794h 0.181345v 2.99338h 0.181345v -15.2399h 0.181345v
 7.61993h 0.181345v -3.52619h 0.181345v 0.806515h 0.181345v -2.99338h 0.181345v 1.42173h 0.181345v 3.32861h 0.181345v -5.41342h 0.181345v -4.92618h 0.181345v 5.58926h 0.181345v -4.62655h 0.181345v 1.02916h 0.181345v 2.93431h 0.181345v -3.45776h
 0.181345v 4.12084h 0.181345v -4.62655h 0.181345v 2.13462h 0.181345v 1.82885h 0.181345v 3.65647h 0.181345v -7.61993h 0.181345v 14.9662h 0.181345v -11.6375h 0.181345v 2.71967h 0.181345v -3.32861h 0.181345v 1.24379h 0.181345v 9.70475h 0.181345v
 1.29794h 0.181345v -5.58926h 0.181345v 3.09733h 0.181345v 5.48531h 0.181345v 1.75696h 0.181345v 7.01099h 0.181345v -2.71967h 0.181345v -12.6391h 0.181345v 2.29945h 0.181345v 10.3396h 0.181345v -9.04166h 0.36269v 15.0899h 0.181345v -3.32861h
 0.544034v 3.32861h 0.36269v -3.32861h 0.181345v 7.61993h 0.36269v -10.3396h 0.181345v -2.29945h 0.181345v 12.6391h 0.181345v -16.3879h 0.181345v 3.74883h 0.181345v 2.29945h 0.181345v 6.04828h 0.181345v -6.04828h 0.181345v -4.29132h 0.181345v
 10.3396h 0.181345v 10.3396h 0.36269v -13.6682h 0.181345v 7.61993h 0.181345v 6.04828h 0.181345v -10.3396h 0.181345v 4.29132h 0.181345v 6.04828h 0.181345v -16.3879h 0.181345v 10.3396h 0.36269v -4.29132h 0.36269v 20.6792h 0.181345v -29.0269h 0.181345v
 12.6391h 0.181345v -12.6391h 0.181345v 5.01912h 0.181345v -5.01912h 0.181345v 5.01912h 0.181345v 7.61993h 0.181345v -4.29132h 0.36269v -12.0966h 0.181345v 3.74883h 0.181345v 5.01912h 0.181345v 3.32861h 0.181345v -3.32861h 0.36269v -7.01099h
 0.181345v 14.6309h 0.181345v -10.3396h 0.181345v -6.04828h 0.181345v 3.74883h 0.36269v 2.29945h 0.181345v 2.71967h 0.181345v 3.32861h 0.181345v -10.3396h 0.181345v 14.6309h 0.181345v -10.3396h 0.181345v -2.29945h 0.181345v 2.29945h 0.181345v
 -7.61993h 0.181345v -2.71967h 0.181345v 10.3396h 0.36269v -7.61993h 0.36269v -1.42173h 0.181345v -1.29794h 0.181345v 2.71967h 0.181345v 1.57165h 0.181345v 3.74883h 0.181345v -10.3396h 0.181345v 3.59739h 0.181345v 1.42173h 0.181345v -5.01912h
 0.181345v 6.59077h 0.181345v -10.3396h 0.181345v 12.0966h 0.181345v -10.3396h 0.36269v 5.58926h 0.181345v -7.34622h 0.181345v 22.4362h 0.181345v -21.5835h 0.181345v 7.91533h 0.36269v -2.71967h 0.181345v 1.29794h 0.181345v -2.49193h 0.181345v
 7.24227h 0.181345v -9.37689h 0.181345v 7.61993h 0.181345v 3.74883h 0.181345v -3.74883h 0.181345v -5.48531h 0.181345v 7.24227h 0.181345v -3.32861h 0.181345v -1.42173h 0.181345v 2.99338h 0.181345v 6.04828h 0.181345v -7.61993h 0.181345v 3.32861h
 0.36269v -6.04828h 0.181345v 13.0593h 0.181345v -7.01099h 0.36269v 7.01099h 0.181345v -13.0593h 0.181345v 6.04828h 0.181345v 1.99187h 0.181345v 8.34773h 0.181345v -10.3396h 0.181345v 10.3396h 0.181345v -8.34773h 0.181345v -9.23414h 0.181345v
 14.2533h 0.181345v -8.76795h 0.181345v 6.04828h 0.181345v -7.61993h 0.181345v 1.57165h 0.181345v 8.76795h 0.181345v -2.71967h 0.36269v -6.04828h 0.181345v -1.57165h 0.181345v 1.57165h 0.181345v 6.04828h 0.181345v -4.29132h 0.181345v -3.32861h
 0.181345v 13.6682h 0.181345v -17.5819h 0.181345v 21.8732h 0.181345v -19.3813h 0.181345v -1.29794h 0.181345v 4.29132h 0.181345v -5.48531h 0.36269v 9.23414h 0.181345v -3.74883h 0.181345v -6.59077h 0.181345v 15.3587h 0.181345v -14.2533h 0.181345v
 7.24227h 0.36269v 7.01099h 0.181345v -17.3506h 0.36269v -1.75696h 0.181345v 1.75696h 0.181345v 7.01099h 0.181345v 3.32861h 0.181345v -4.75034h 0.181345v 11.7613h 0.181345v -8.76795h 0.181345v -1.57165h 0.181345v -8.76795h 0.181345v 1.75696h
 0.181345v 3.09733h 0.181345v 2.49193h 0.181345v -3.59739h 0.181345v 6.59077h 0.181345v -4.29132h 0.181345v 1.29794h 0.181345v -1.29794h 0.181345v -5.19565h 0.181345v 5.19565h 0.181345v -6.04828h 0.181345v 10.3396h 0.181345v -2.99338h 0.181345v
 -7.34622h 0.181345v 6.04828h 0.181345v -1.19399h 0.181345v -1.10546h 0.181345v -1.02916h 0.181345v 7.61993h 0.181345v -9.48698h 0.181345v 6.49359h 0.181345v -2.49193h 0.181345v -3.09733h 0.181345v 8.58265h 0.181345v 12.0966h 0.181345v -19.7165h
 0.181345v -7.61993h 0.181345v 4.90026h 0.181345v 6.04828h 0.181345v -3.32861h 0.36269v 3.32861h 0.36269v -5.19565h 0.181345v -5.14395h 0.181345v 6.04828h 0.181345v 1.99187h 0.181345v -6.74221h 0.181345v 2.18687h 0.181345v 0.806515h 0.181345v
 7.34622h 0.181345v -8.15273h 0.181345v -6.30771h 0.181345v 0.523453h 0.181345v 7.4434h 0.181345v 1.86705h 0.181345v 2.13462h 0.181345v -1.10546h 0.181345v -6.04828h 0.181345v 2.29945h 0.181345v 0.852626h 0.36269v -1.65914h 0.181345v -0.765137h
 0.181345v 2.42428h 0.36269v -8.47256h 0.181345v 8.47256h 0.181345v 0.904331h 0.181345v -7.80524h 0.181345v 7.80524h 0.36269v 4.29132h 0.181345v -5.19565h 0.181345v -5.75289h 0.181345v 4.09375h 0.181345v 0.806515h 0.181345v -8.10905h 0.181345v
 7.30254h 0.181345v -4.09375h 0.181345v 1.90688h 0.181345v -0.663082h 0.181345v -2.39181h 0.181345v 3.0549h 0.181345v 0.693934h 0.181345v -3.18586h 0.181345v -1.62891h 0.181345v 5.54257h 0.181345v -9.17666h 0.181345v 4.15754h 0.181345v 9.31044h
 0.181345v -5.71305h 0.181345v 2.18687h 0.181345v -1.49293h 0.181345v -3.74883h 0.181345v -3.4387h 0.181345v 5.19565h 0.181345v -2.29945h 0.181345v 2.93431h 0.181345v -2.39181h 0.36269v 4.47663h 0.181345v -7.91533h 0.181345v 2.8962h 0.181345v
 -0.523453h 0.181345v -4.79703h 0.181345v 4.29132h 0.181345v 3.96347h 0.181345v -2.39181h 0.181345v -4.29132h 0.181345v 9.53309h 0.181345v -2.18687h 0.181345v 2.99338h 0.181345v -10.3396h 0.181345v 3.74883h 0.181345v 1.69051h 0.181345v 3.32861h
 0.181345v -5.01912h 0.181345v -1.51828h 0.181345v 5.8096h 0.181345v -5.8096h 0.181345v -0.473592h 0.181345v 0.962714h 0.181345v -0.962714h 0.181345v -0.459018h 0.181345v -1.29794h 0.181345v -1.93999h 0.181345v 6.79428h 0.181345v -2.13462h 0.181345v
 -3.91366h 0.181345v 0.387474h 0.181345v 2.56347h 0.181345v -2.95095h 0.181345v -0.377663h 0.181345v -1.0788h 0.181345v -1.64087h 0.181345v 3.09733h 0.181345v 6.63333h 0.181345v -5.43934h 0.181345v 2.71967h 0.181345v -7.91533h 0.181345v 7.4262h
 0.181345v -5.22393h 0.181345v 0.342932h 0.181345v -1.94845h 0.181345v 7.31857h 0.181345v -1.42173h 0.181345v 1.92744h 0.181345v -0.505706h 0.181345v -0.962714h 0.181345v -2.56347h 0.181345v 6.24586h 0.36269v -1.14802h 0.181345v 0.562968h 0.181345v
 -6.04828h 0.181345v 3.91366h 0.36269v 4.62655h 0.181345v -3.59739h 0.181345v -0.523453h 0.181345v 1.06595h 0.181345v 1.75696h 0.181345v -1.19399h 0.181345v 3.18586h 0.181345v -3.18586h 0.181345v 1.82885h 0.181345v -0.634857h 0.181345v 2.71967h
 0.181345v 0.765137h 0.181345v -3.48481h 0.181345v 0.634857h 0.181345v 1.35702h 0.181345v -1.35702h 0.181345v 1.35702h 0.181345v 1.49293h 0.36269v 1.65914h 0.181345v -3.15208h 0.181345v 6.04828h 0.181345v -2.8962h 0.181345v -0.852626h 0.181345v
 -1.57165h 0.181345v 2.42428h 0.181345v -2.42428h 0.181345v 6.42594h 0.181345v -5.66081h 0.181345v 1.65914h 0.181345v -3.15208h 0.181345v 5.01912h 0.181345v -2.71967h 0.181345v -4.29132h 0.181345v -1.75696h 0.181345v 6.04828h 0.181345v 1.75696h
 0.181345v -6.65722h 0.181345v 2.60081h 0.181345v 1.49293h 0.181345v -2.18687h 0.181345v 1.42173h 0.181345v -3.91366h 0.181345v -2.62374h 0.181345v 10.8287h 0.181345v -7.61993h 0.181345v 3.32861h 0.181345v -3.32861h 0.181345v 2.60081h 0.181345v
 -2.60081h 0.181345v 5.75289h 0.181345v -5.14395h 0.181345v 9.14561h 0.181345v -3.09733h 0.181345v -8.34773h 0.181345v 5.78426h 0.181345v 0.806515h 0.181345v 0.852626h 0.181345v -0.852626h 0.181345v -0.806515h 0.181345v 6.85479h 0.181345v -12.6391h
 0.181345v 5.78426h 0.181345v -2.84995h 0.181345v 4.50909h 0.181345v -1.65914h 0.181345v 4.55535h 0.181345v -7.4053h 0.181345v 5.41342h 0.181345v 0.962714h 0.181345v -0.962714h 0.181345v -3.32861h 0.181345v -6.04828h 0.181345v 3.96347h 0.181345v
 2.08481h 0.181345v 4.29132h 0.181345v -0.962714h 0.181345v -1.75696h 0.181345v -0.806515h 0.181345v -5.24177h 0.181345v 3.0549h 0.181345v -3.0549h 0.181345v 5.24177h 0.181345v 1.65914h 0.181345v -4.50909h 0.181345v 2.84995h 0.181345v -2.84995h
 0.181345v 3.65647h 0.181345v 0.852626h 0.181345v -6.90091h 0.181345v -2.99338h 0.181345v 6.74221h 0.181345v 2.29945h 0.181345v 0.852626h 0.181345v -5.14395h 0.181345v -0.608937h 0.181345v -2.71967h 0.181345v 3.32861h 0.181345v 1.99187h 0.181345v
 4.05641h 0.181345v -3.32861h 0.181345v 2.42428h 0.181345v -4.50909h 0.181345v -0.634857h 0.181345v 1.99187h 0.36269v -6.74221h 0.181345v 6.04828h 0.181345v 2.18687h 0.181345v -5.78426h 0.181345v 1.10546h 0.181345v -1.62891h 0.181345v 3.45776h
 0.181345v -0.634857h 0.181345v -0.608937h 0.181345v 2.60081h 0.181345v -2.60081h 0.36269v -2.21397h 0.181345v 3.45776h 0.181345v -1.24379h 0.181345v 1.90688h 0.181345v 2.18687h 0.181345v -0.765137h 0.36269v -5.01912h 0.181345v 2.93431h 0.181345v
 -3.45776h 0.36269v 0.523453h 0.36269v 2.93431h 0.181345v -1.82885h 0.181345v 1.19399h 0.181345v -3.81773h 0.181345v 3.20879h 0.181345v 1.24379h 0.181345v 2.84995h 0.181345v -5.24177h 0.36269v 6.90091h 0.181345v -6.33794h 0.181345v -1.10546h
 0.181345v 1.69051h 0.36269v -3.68239h 0.181345v 0.473592h 0.181345v -0.93261h 0.181345v 4.75034h 0.181345v -2.8229h 0.181345v 5.54257h 0.181345v -4.47663h 0.181345v -1.06595h 0.181345v -0.994828h 0.181345v 2.62374h 0.181345v -2.13462h 0.36269v
 2.13462h 0.181345v -0.562968h 0.181345v -1.06595h 0.181345v -0.994828h 0.181345v -0.93261h 0.181345v 2.45089h 0.181345v -5.32048h 0.181345v 1.57165h 0.181345v 1.75696h 0.181345v -1.75696h 0.181345v -2.29945h 0.181345v 4.05641h 0.181345v -1.33674h
 0.181345v 1.81033h 0.181345v 0.489122h 0.181345v -2.71967h 0.181345v 1.75696h 0.181345v -3.69695h 0.181345v 3.69695h 0.181345v -4.75034h 0.181345v 9.04166h 0.181345v -5.62806h 0.181345v 4.43407h 0.181345v -4.00167h 0.181345v -2.79261h 0.181345v
 3.69695h 0.36269v 3.68239h 0.181345v -1.69051h 0.181345v -4.94282h 0.181345v 6.04828h 0.181345v -6.04828h 0.181345v 2.04661h 0.181345v 4.00167h 0.181345v 3.91366h 0.181345v -5.01912h 0.181345v -0.523453h 0.181345v 1.06595h 0.181345v -0.542492h
 0.181345v -1.99187h 0.181345v 7.77613h 0.36269v 2.56347h 0.181345v -8.87118h 0.181345v -1.46842h 0.181345v 3.68239h 0.181345v 2.60081h 0.181345v 6.04828h 0.181345v -7.4053h 0.181345v 2.84995h 0.181345v -4.09375h 0.181345v 4.90026h 0.181345v 6.04828h
 0.181345v -4.29132h 0.181345v -2.56347h 0.181345v 0.806515h 0.181345v 7.34622h 0.181345v -3.59739h 0.181345v -5.32048h 0.181345v -1.42173h 0.181345v -1.90688h 0.181345v 4.90026h 0.181345v -4.90026h 0.181345v 5.75289h 0.181345v -6.33794h 0.181345v
 4.6788h 0.181345v -0.765137h 0.181345v -3.32861h 0.181345v 1.90688h 0.36269v 1.42173h 0.181345v 1.57165h 0.181345v -0.806515h 0.36269v -1.49293h 0.181345v 0.727798h 0.181345v -2.08481h 0.181345v -1.82885h 0.181345v -3.55635h 0.181345v 2.45089h
 0.181345v 5.01912h 0.181345v -2.71967h 0.181345v 1.99187h 0.181345v -5.8096h 0.181345v 1.51828h 0.181345v 5.01912h 0.181345v -4.47663h 0.181345v -4.70003h 0.181345v 7.09185h 0.181345v -1.82885h 0.181345v -4.85429h 0.181345v 14.0884h 0.181345v
 -9.23414h 0.181345v -1.62891h 0.181345v 5.54257h 0.181345v -1.42173h 0.181345v -3.59739h 0.181345v 2.29945h 0.181345v -1.19399h 0.181345v 2.49193h 0.181345v 2.18687h 0.181345v -2.84995h 0.181345v 2.08481h 0.181345v 0.765137h 0.181345v 0.806515h
 0.181345v 4.85429h 0.181345v -3.09733h 0.181345v -1.75696h 0.36269v 0.852626h 0.181345v -0.852626h 0.181345v 8.76795h 0.181345v -10.3396h 0.181345v 3.32861h 0.181345v -2.56347h 0.181345v 11.1461h 0.181345v -2.99338h 0.181345v -3.59739h 0.181345v
 1.10546h 0.181345v 9.23414h 0.181345v -11.3688h 0.181345v -1.86705h 0.181345v 6.49359h 0.181345v 2.99338h 0.181345v -8.58265h 0.181345v 5.58926h 0.181345v -4.62655h 0.181345v 13.6682h 0.181345v -7.61993h 0.181345v 5.32048h 0.36269v -11.3688h
 0.181345v 13.6682h 0.181345v -7.61993h 0.181345v -5.01912h 0.181345v 10.3396h 0.181345v -5.32048h 0.181345v 3.32861h 0.181345v -11.2439h 0.181345v 13.2358h 0.181345v -3.74883h 0.181345v -7.61993h 0.181345v 7.61993h 0.181345v -7.61993h 0.181345v
 13.6682h 0.181345v -7.61993h 0.181345v 3.32861h 0.36269v -3.32861h 0.181345v -1.42173h 0.181345v -4.62655h 0.181345v 4.62655h 0.181345v 4.75034h 0.181345v -10.3396h 0.181345v 12.3315h 0.181345v -6.74221h 0.181345v 1.42173h 0.181345v 5.32048h
 0.36269v -8.04015h 0.181345v -1.19399h 0.181345v -2.13462h 0.181345v 3.32861h 0.181345v -6.85479h 0.181345v 4.55535h 0.181345v 6.59077h 0.181345v -1.57165h 0.181345v 1.57165h 0.181345v -12.6391h 0.181345v 11.0674h 0.181345v -2.71967h 0.181345v
 -2.29945h 0.181345v 6.59077h 0.181345v -5.48531h 0.181345v 14.2533h 0.181345v -13.0593h 0.181345v 4.29132h 0.181345v 1.75696h 0.181345v -4.75034h 0.181345v 1.42173h 0.181345v 3.32861h 0.181345v -1.75696h 0.181345v -5.48531h 0.181345v -1.10546h
 0.181345v -2.8962h 0.181345v 9.48698h 0.181345v -5.48531h 0.181345v -2.13462h 0.181345v -0.962714h 0.181345v 4.29132h 0.181345v -5.19565h 0.181345v 6.49359h 0.181345v -3.59739h 0.181345v -5.32048h 0.181345v 11.9113h 0.181345v -2.99338h 0.181345v
 -7.34622h 0.181345v 4.85429h 0.181345v 1.19399h 0.181345v -2.29945h 0.181345v 2.29945h 0.36269v -1.19399h 0.181345v 3.91366h 0.36269v -3.91366h 0.181345v 2.49193h 0.181345v -1.29794h 0.181345v 6.04828h 0.181345v -4.75034h 0.181345v -2.49193h
 0.181345v 1.19399h 0.181345v 4.29132h 0.181345v -1.57165h 0.181345v -5.01912h 0.181345v 10.3396h 0.181345v -3.74883h 0.181345v -2.99338h 0.181345v -1.29794h 0.36269v 1.29794h 0.181345v 2.99338h 0.181345v -7.61993h 0.181345v 4.62655h 0.181345v
 -1.29794h 0.181345v -3.32861h 0.181345v -3.52619h 0.181345v 6.85479h 0.181345v -3.32861h 0.181345v 2.13462h 0.181345v 2.49193h 0.181345v -5.58926h 0.181345v 7.01099h 0.36269v -1.42173h 0.181345v 4.75034h 0.181345v -6.04828h 0.181345v -5.19565h
 0.181345v -0.852626h 0.181345v 4.85429h 0.181345v 3.91366h 0.181345v -2.71967h 0.36269v 6.04828h 0.181345v -9.37689h 0.181345v 6.04828h 0.181345v -1.42173h 0.181345v -8.15273h 0.181345v 9.57447h 0.181345v -3.91366h 0.181345v -2.13462h 0.181345v
 -8.20498h 0.181345v 8.20498h 0.181345v -2.71967h 0.181345v 3.74883h 0.181345v -9.23414h 0.181345v 12.8315h 0.181345v -8.15273h 0.181345v 5.66081h 0.181345v -9.75455h 0.181345v 9.75455h 0.181345v 1.19399h 0.181345v -4.29132h 0.36269v -4.05641h
 0.181345v 3.15208h 0.181345v -5.75289h 0.181345v 4.90026h 0.181345v 8.76795h 0.181345v -9.57447h 0.181345v -1.49293h 0.36269v -0.693934h 0.181345v 1.42173h 0.181345v 0.765137h 0.181345v -2.18687h 0.181345v -1.29794h 0.181345v -2.29945h 0.181345v
 2.93431h 0.181345v 4.50909h 0.181345v -11.1922h 0.181345v 13.0593h 0.181345v -7.01099h 0.181345v -1.75696h 0.181345v -2.99338h 0.181345v 4.75034h 0.181345v -0.608937h 0.181345v 3.32861h 0.181345v -10.3396h 0.181345v 9.6118h 0.181345v -3.74883h
 0.181345v 7.80524h 0.181345v -10.7986h 0.181345v 1.92744h 0.181345v 1.62891h 0.181345v -2.13462h 0.181345v 1.02916h 0.181345v 0.542492h 0.181345v -0.542492h 0.181345v -1.51828h 0.181345v 0.489122h 0.181345v 6.04828h 0.36269v -4.47663h 0.181345v
 1.14802h 0.181345v 1.24379h 0.181345v 5.41342h 0.181345v -8.34773h 0.181345v 0.542492h 0.181345v 0.562968h 0.181345v 5.48531h 0.181345v -6.59077h 0.181345v 2.29945h 0.181345v 0.634857h 0.181345v 5.41342h 0.181345v -0.904331h 0.36269v 5.19565h
 0.181345v -2.29945h 0.181345v -1.99187h 0.181345v -2.56347h 0.181345v 1.65914h 0.181345v 13.2358h 0.181345v -10.3396h 0.181345v 8.34773h 0.181345v -6.04828h 0.36269v 10.3396h 0.181345v -7.61993h 0.181345v -1.42173h 0.181345v 2.99338h 0.181345v
 -1.57165h 0.181345v 10.3396h 0.181345v -10.3396h 0.181345v 7.61993h 0.181345v -6.04828h 0.181345v 3.74883h 0.181345v -5.32048h 0.181345v 7.61993h 0.181345v 6.04828h 0.36269v -8.34773h 0.181345v 12.6391h 0.36269v -4.29132h 0.181345v 31.0188h
 0.181345v -37.0671h 0.181345v 10.3396h 0.181345v 16.3879h 0.181345v -20.6792h 0.181345v 4.29132h 0.36269v -4.29132h 0.181345v 4.29132h 0.181345v 6.04828h 0.181345v 10.3396h 0.181345v 10.3396h 0.181345v -20.6792h 0.181345v -6.04828h 0.36269v 6.04828h
 0.544034v -6.04828h 0.181345v 6.04828h 0.36269v -6.04828h 0.181345v -7.61993h 0.181345v 34.3474h 0.181345v -20.6792h 0.181345v 10.3396h 0.181345v -10.3396h 0.181345v 10.3396h 0.181345v -10.3396h 0.181345v 10.3396h 0.181345v -10.3396h 0.181345v
 20.6792h 0.181345v -26.7275h 0.181345v 16.3879h 0.181345v -20.6792h 0.181345v 4.29132h 0.181345v 16.3879h 0.181345v -10.3396h 0.181345v 20.6792h 0.181345v -10.3396h 0.181345v 10.3396h 0.181345v -10.3396h 0.181345v -10.3396h 0.181345v -10.3396h
 0.181345v 20.6792h 0.181345v -10.3396h 0.36269v 10.3396h 0.36269v -10.3396h 0.181345v 10.3396h 0.181345v -10.3396h 0.181345v 20.6792h 0.181345v -26.7275h 0.181345v 16.3879h 0.181345v 10.3396h 0.181345v -20.6792h 0.181345v 20.6792h 0.181345v
 -10.3396h 0.181345v -16.3879h 0.181345v 26.7275h 0.181345v -20.6792h 0.36269v 10.3396h 0.181345v -16.3879h 0.181345v 26.7275h 0.181345v -10.3396h 0.181345v -10.3396h 0.36269v 10.3396h 0.181345v -10.3396h 0.36269v 10.3396h 0.725379v 10.3396h
 0.181345v -10.3396h 0.544034v -10.3396h 0.181345v 20.6792h 0.181345v -10.3396h 0.181345v 10.3396h 0.181345v -20.6792h 0.181345v 20.6792h 0.181345v -31.0188h 0.181345v 20.6792h 0.181345v 10.3396h 0.181345v -20.6792h 0.544034v 20.6792h 0.181345v
 -10.3396h 0.181345v 10.3396h 0.181345v -10.3396h 0.36269v -16.3879h 0.181345v 16.3879h 0.181345v 10.3396h 0.181345v -20.6792h 0.181345v 10.3396h 0.181345v -10.3396h 0.36269v 10.3396h 0.181345v -20.6792h 0.36269v 20.6792h 0.544034v -16.3879h
 0.181345v 6.04828h 0.181345v 10.3396h 0.181345v -10.3396h 0.181345v 10.3396h 0.725379v -16.3879h 0.36269v 16.3879h 0.36269v -16.3879h 0.181345v -7.61993h 0.181345v 13.6682h 0.544034v 10.3396h 0.36269v 10.3396h 0.181345v -20.6792h 0.181345v 20.6792h
 0.181345v -10.3396h 0.36269v 10.3396h 0.36269v -10.3396h 0.181345v -10.3396h 0.181345v -6.04828h 0.181345v 26.7275h 0.181345v -10.3396h 0.36269v -10.3396h 0.181345v 10.3396h 0.181345v -10.3396h 0.181345v 10.3396h 0.181345v 10.3396h 0.181345v
 -10.3396h 0.544034v -10.3396h 0.544034v 10.3396h 0.181345v 10.3396h 0.181345v -31.0188h 0.181345v 20.6792h 0.181345v 10.3396h 0.36269v -10.3396h 0.181345v -10.3396h 0.181345v 10.3396h 0.36269v 10.3396h 0.181345v -10.3396h 0.181345v 10.3396h
 0.181345v -20.6792h 0.181345v 20.6792h 0.181345v -26.7275h 0.181345v 6.04828h 0.181345v 20.6792h 0.181345v -20.6792h 0.36269v 20.6792h 0.906724v -10.3396h 0.36269v -10.3396h 0.181345v -6.04828h 0.181345v 26.7275h 0.181345v -20.6792h 0.181345v
 10.3396h 0.181345v 10.3396h 0.181345v -20.6792h 0.181345v -6.04828h 0.181345v 6.04828h 0.181345v 10.3396h 0.181345v -10.3396h 0.36269v 20.6792h 0.181345v -10.3396h 0.181345v 10.3396h 0.36269v -20.6792h 0.181345v 10.3396h 1.08807v -16.3879h 0.181345v
 6.04828h 0.181345v 10.3396h 0.181345v -10.3396h 0.181345v -10.3396h 0.181345v 20.6792h 0.181345v 10.3396h 0.36269v -10.3396h 1.08807v -16.3879h 0.181345v 16.3879h 0.181345v 10.3396h 0.36269v -20.6792h 0.181345v 20.6792h 0.181345v -20.6792h 0.36269v
 10.3396h 0.181345v 10.3396h 0.181345v -10.3396h 0.36269v 10.3396h 0.181345v -26.7275h 0.181345v 6.04828h 0.181345v 10.3396h 0.544034v -16.3879h 0.181345v 26.7275h 0.181345v -26.7275h 0.36269v 16.3879h 0.36269v 10.3396h 0.36269v -10.3396h 0.36269v
 10.3396h 0.181345v -20.6792h 0.181345v 10.3396h 0.181345v -10.3396h 0.181345v 10.3396h 0.181345v 10.3396h 0.181345v -10.3396h 0.36269v 10.3396h 0.36269v -10.3396h 0.36269v -10.3396h 0.181345v 10.3396h 0.36269v -20.6792h 0.181345v 20.6792h 0.36269v
 10.3396h 0.181345v -10.3396h 0.36269v -10.3396h 0.181345v 10.3396h 0.181345v -10.3396h 0.181345v 20.6792h 0.544034v -20.6792h 0.181345v 10.3396h 0.36269v 10.3396h 0.181345v -10.3396h 0.181345v -10.3396h 0.181345v 10.3396h 0.181345v -16.3879h
 0.181345v 16.3879h 0.181345v -10.3396h 0.181345v 20.6792h 0.544034v -10.3396h 0.181345v 10.3396h 0.181345v -31.0188h 0.181345v 31.0188h 0.544034v -10.3396h 0.181345v -10.3396h 0.181345v -6.04828h 0.181345v 26.7275h 0.181345v -10.3396h 0.181345v
 -10.3396h 0.36269v 10.3396h 0.181345v 10.3396h 0.181345v -10.3396h 0.181345v 10.3396h 0.181345v -10.3396h 0.181345v 10.3396h 0.181345v -10.3396h 0.36269v -16.3879h 0.181345v 26.7275h 0.36269" fill="none" stroke="black"/>
<path d="M57.1929,280.151h 453.543" fill="none" stroke="black"/>
<path d="M57.1929,272.68v 7.47068" fill="none" stroke="black"/>
<path d="M75.3318,276.415v 3.73534" fill="none" stroke="black"/>
<path d="M93.4707,276.415v 3.73534" fill="none" stroke="black"/>
<path d="M111.61,276.415v 3.73534" fill="none" stroke="black"/>
<path d="M129.749,276.415v 3.73534" fill="none" stroke="black"/>
<path d="M147.887,272.68v 7.47068" fill="none" stroke="black"/>
<path d="M166.026,276.415v 3.73534" fill="none" stroke="black"/>
<path d="M184.165,276.415v 3.73534" fill="none" stroke="black"/>
<path d="M202.304,276.415v 3.73534" fill="none" stroke="black"/>
<path d="M220.443,276.415v 3.73534" fill="none" stroke="black"/>
<path d="M238.582,272.68v 7.47068" fill="none" stroke="black"/>
<path d="M256.721,276.415v 3.73534" fill="none" stroke="black"/>
<path d="M274.86,276.415v 3.73534" fill="none" stroke="black"/>
<path d="M292.999,276.415v 3.73534" fill="none" stroke="black"/>
<path d="M311.138,276.415v 3.73534" fill="none" stroke="black"/>
<path d="M329.277,272.68v 7.47068" fill="none" stroke="black"/>
<path d="M347.415,276.415v 3.73534" fill="none" stroke="black"/>
<path d="M365.554,276.415v 3.73534" fill="none" stroke="black"/>
<path d="M383.693,276.415v 3.73534" fill="none" stroke="black"/>
<path d="M401.832,276.415v 3.73534" fill="none" stroke="black"/>
<path d="M419.971,272.68v 7.47068" fill="none" stroke="black"/>
<path d="M438.11,276.415v 3.73534" fill="none" stroke="black"/>
<path d="M456.249,276.415v 3.73534" fill="none" stroke="black"/>
<path d="M474.388,276.415v 3.73534" fill="none" stroke="black"/>
<path d="M492.527,276.415v 3.73534" fill="none" stroke="black"/>
<path d="M510.666,272.68v 7.47068" fill="none" stroke="black"/>
<path d="M510.666,272.68v 7.47068" fill="none" stroke="black"/>
<text xml:space="preserve" x="54.3523" y="290.27" fill="black" font-size="10.4952" font-family="Helvetica">0</text>
<text xml:space="preserve" x="139.569" y="290.27" fill="black" font-size="10.4952" font-family="Helvetica">500</text>
<text xml:space="preserve" x="227.449" y="290.27" fill="black" font-size="10.4952" font-family="Helvetica">1000</text>
<text xml:space="preserve" x="318.288" y="290.27" fill="black" font-size="10.4952" font-family="Helvetica">1500</text>
<text xml:space="preserve" x="408.831" y="290.27" fill="black" font-size="10.4952" font-family="Helvetica">2000</text>
<text xml:space="preserve" x="499.67" y="290.27" fill="black" font-size="10.4952" font-family="Helvetica">2500</text>
<text xml:space="preserve" x="265.323" y="301.218" fill="black" font-size="10.4952" font-family="Helvetica">Channel</text>
<path d="M57.1929,280.151v -249.023" fill="none" stroke="black"/>
<path d="M63.9961,280.151h -6.80315" fill="none" stroke="black"/>
<path d="M63.9961,277.431h -6.80315" fill="none" stroke="black"/>
<path d="M63.9961,275.131h -6.80315" fill="none" stroke="black"/>
<path d="M63.9961,273.14h -6.80315" fill="none" stroke="black"/>
<path d="M63.9961,271.383h -6.80315" fill="none" stroke="black"/>
<path d="M70.7992,269.811h -13.6063" fill="none" stroke="black"/>
<text xml:space="preserve" x="49.0263" y="273.404" fill="black" font-size="10.4952" font-family="Helvetica">1</text>
<path d="M63.9961,259.471h -6.80315" fill="none" stroke="black"/>
<path d="M63.9961,253.423h -6.80315" fill="none" stroke="black"/>
<path d="M63.9961,249.132h -6.80315" fill="none" stroke="black"/>
<path d="M63.9961,245.803h -6.80315" fill="none" stroke="black"/>
<path d="M63.9961,243.083h -6.80315" fill="none" stroke="black"/>
<path d="M63.9961,240.784h -6.80315" fill="none" stroke="black"/>
<path d="M63.9961,238.792h -6.80315" fill="none" stroke="black"/>
<path d="M63.9961,237.035h -6.80315" fill="none" stroke="black"/>
<path d="M70.7992,235.464h -13.6063" fill="none" stroke="black"/>
<text xml:space="preserve" x="41.629" y="239.081" fill="black" font-size="10.4952" font-family="Helvetica">10</text>
<path d="M63.9961,225.124h -6.80315" fill="none" stroke="black"/>
<path d="M63.9961,219.076h -6.80315" fill="none" stroke="black"/>
<path d="M63.9961,214.784h -6.80315" fill="none" stroke="black"/>
<path d="M63.9961,211.456h -6.80315" fill="none" stroke="black"/>
<path d="M63.9961,208.736h -6.80315" fill="none" stroke="black"/>
<path d="M63.9961,206.437h -6.80315" fill="none" stroke="black"/>
<path d="M63.9961,204.445h -6.80315" fill="none" stroke="black"/>
<path d="M63.9961,202.688h -6.80315" fill="none" stroke="black"/>
<path d="M70.7992,201.116h -13.6063" fill="none" stroke="black"/>
<text xml:space="preserve" x="49.0263" y="201.207" fill="black" font-size="7.16345" font-family="Helvetica">2</text>
<text xml:space="preserve" x="38.0783" y="205.645" fill="black" font-size="10.4952" font-family="Helvetica">10</text>
<path d="M63.9961,190.777h -6.80315" fill="none" stroke="black"/>
<path d="M63.9961,184.728h -6.80315" fill="none" stroke="black"/>
<path d="M63.9961,180.437h -6.80315" fill="none" stroke="black"/>
<path d="M63.9961,177.108h -6.80315" fill="none" stroke="black"/>
<path d="M63.9961,174.389h -6.80315" fill="none" stroke="black"/>
<path d="M63.9961,172.089h -6.80315" fill="none" stroke="black"/>
<path d="M63.9961,170.097h -6.80315" fill="none" stroke="black"/>
<path d="M63.9961,168.34h -6.80315" fill="none" stroke="black"/>
<path d="M70.7992,166.769h -13.6063" fill="none" stroke="black"/>
<text xml:space="preserve" x="49.0263" y="166.587" fill="black" font-size="7.16345" font-family="Helvetica">3</text>
<text xml:space="preserve" x="38.0783" y="171.321" fill="black" font-size="10.4952" font-family="Helvetica">10</text>
<path d="M63.9961,156.429h -6.80315" fill="none" stroke="black"/>
<path d="M63.9961,150.381h -6.80315" fill="none" stroke="black"/>
<path d="M63.9961,146.089h -6.80315" fill="none" stroke="black"/>
<path d="M63.9961,142.761h -6.80315" fill="none" stroke="black"/>
<path d="M63.9961,140.041h -6.80315" fill="none" stroke="black"/>
<path d="M63.9961,137.742h -6.80315" fill="none" stroke="black"/>
<path d="M63.9961,135.75h -6.80315" fill="none" stroke="black"/>
<path d="M63.9961,133.993h -6.80315" fill="none" stroke="black"/>
<path d="M70.7992,132.421h -13.6063" fill="none" stroke="black"/>
<text xml:space="preserve" x="49.0263" y="132.56" fill="black" font-size="7.16345" font-family="Helvetica">4</text>
<text xml:space="preserve" x="38.0783" y="136.998" fill="black" font-size="10.4952" font-family="Helvetica">10</text>
<path d="M63.9961,122.082h -6.80315" fill="none" stroke="black"/>
<path d="M63.9961,116.033h -6.80315" fill="none" stroke="black"/>
<path d="M63.9961,111.742h -6.80315" fill="none" stroke="black"/>
<path d="M63.9961,108.413h -6.80315" fill="none" stroke="black"/>
<path d="M63.9961,105.694h -6.80315" fill="none" stroke="black"/>
<path d="M63.9961,103.394h -6.80315" fill="none" stroke="black"/>
<path d="M63.9961,101.402h -6.80315" fill="none" stroke="black"/>
<path d="M63.9961,99.6455h -6.80315" fill="none" stroke="black"/>
<path d="M70.7992,98.0739h -13.6063" fill="none" stroke="black"/>
<text xml:space="preserve" x="49.0263" y="97.9403" fill="black" font-size="7.16345" font-family="Helvetica">5</text>
<text xml:space="preserve" x="38.0783" y="102.675" fill="black" font-size="10.4952" font-family="Helvetica">10</text>
<path d="M63.9961,87.7343h -6.80315" fill="none" stroke="black"/>
<path d="M63.9961,81.686h -6.80315" fill="none" stroke="black"/>
<path d="M63.9961,77.3947h -6.80315" fill="none" stroke="black"/>
<path d="M63.9961,74.0661h -6.80315" fill="none" stroke="black"/>
<path d="M63.9961,71.3464h -6.80315" fill="none" stroke="black"/>
<path d="M63.9961,69.0469h -6.80315" fill="none" stroke="black"/>
<path d="M63.9961,67.0551h -6.80315" fill="none" stroke="black"/>
<path d="M63.9961,65.2981h -6.80315" fill="none" stroke="black"/>
<path d="M70.7992,63.7265h -13.6063" fill="none" stroke="black"/>
<text xml:space="preserve" x="49.0263" y="63.6168" fill="black" font-size="7.16345" font-family="Helvetica">6</text>
<text xml:space="preserve" x="38.0783" y="68.3511" fill="black" font-size="10.4952" font-family="Helvetica">10</text>
<path d="M63.9961,53.3869h -6.80315" fill="none" stroke="black"/>
<path d="M63.9961,47.3386h -6.80315" fill="none" stroke="black"/>
<path d="M63.9961,43.0473h -6.80315" fill="none" stroke="black"/>
<path d="M63.9961,39.7186h -6.80315" fill="none" stroke="black"/>
<path d="M63.9961,36.999h -6.80315" fill="none" stroke="black"/>
<path d="M63.9961,34.6995h -6.80315" fill="none" stroke="black"/>
<path d="M63.9961,32.7077h -6.80315" fill="none" stroke="black"/>
<g transform="rotate(-90,26.5385,191.442)">
<text xml:space="preserve" x="26.5385" y="191.442" fill="black" font-size="10.4952" font-family="Helvetica">Counts/Channel</text>
</g>
<text xml:space="preserve" x="404.097" y="63.6168" fill="black" font-size="14.7788" font-family="Helvetica" font-weight="bold"> = 2.4879 MeV</text>
<text xml:space="preserve" x="398.179" y="66.8716" fill="black" font-size="10.0192" font-family="Helvetica" font-weight="bold">p</text>
<text xml:space="preserve" x="389.006" y="63.6168" fill="black" font-size="14.7788" font-family="Helvetica" font-weight="bold">E</text>
<path d="M262.163,165.347v 25.7524" fill="none" stroke="black"/>
<path d="M264.454,191.099l -2.29122, 3.9685l -2.29122, -3.9685z" fill="black"/>
<path d="M264.454,191.099l -2.29122, 3.9685l -2.29122, -3.9685h 4.58243z" fill="none" stroke="black"/>
<text xml:space="preserve" x="266.803" y="163.332" fill="black" font-size="10.4952" font-family="Helvetica" font-weight="bold">_1 	1.369 MeV</text>
<text xml:space="preserve" x="260.293" y="163.332" fill="black" font-size="10.4952" font-family="Times">&#0945;</text>
<path d="M184.528,132.421v 30.3789" fill="none" stroke="black"/>
<path d="M186.819,162.8l -2.29122, 3.9685l -2.29122, -3.9685z" fill="black"/>
<path d="M186.819,162.8l -2.29122, 3.9685l -2.29122, -3.9685h 4.58243z" fill="none" stroke="black"/>
<text xml:space="preserve" x="172.117" y="129.601" fill="black" font-size="10.4952" font-family="Helvetica" font-weight="bold"># p_1 	0.844 MeV</text>
<path d="M210.104,150.381v 12.4194" fill="none" stroke="black"/>
<path d="M212.395,162.8l -2.29122, 3.9685l -2.29122, -3.9685z" fill="black"/>
<path d="M212.395,162.8l -2.29122, 3.9685l -2.29122, -3.9685h 4.58243z" fill="none" stroke="black"/>
<text xml:space="preserve" x="197.564" y="145.875" fill="black" font-size="10.4952" font-family="Helvetica" font-weight="bold"># p_2 	1.015 MeV</text>
<path d="M497.785,269.811h 12.8804" fill="none" stroke="black"/>
<path d="M504.225,259.471h 6.4402" fill="none" stroke="black"/>
<path d="M504.225,253.423h 6.4402" fill="none" stroke="black"/>
<path d="M504.225,249.132h 6.4402" fill="none" stroke="black"/>
<path d="M504.225,245.803h 6.4402" fill="none" stroke="black"/>
<path d="M504.225,243.083h 6.4402" fill="none" stroke="black"/>
<path d="M504.225,240.784h 6.4402" fill="none" stroke="black"/>
<path d="M504.225,238.792h 6.4402" fill="none" stroke="black"/>
<path d="M504.225,237.035h 6.4402" fill="none" stroke="black"/>
<path d="M497.785,235.464h 12.8804" fill="none" stroke="black"/>
<path d="M504.225,225.124h 6.4402" fill="none" stroke="black"/>
<path d="M504.225,219.076h 6.4402" fill="none" stroke="black"/>
<path d="M504.225,214.784h 6.4402" fill="none" stroke="black"/>
<path d="M504.225,211.456h 6.4402" fill="none" stroke="black"/>
<path d="M504.225,208.736h 6.4402" fill="none" stroke="black"/>
<path d="M504.225,206.437h 6.4402" fill="none" stroke="black"/>
<path d="M504.225,204.445h 6.4402" fill="none" stroke="black"/>
<path d="M504.225,202.688h 6.4402" fill="none" stroke="black"/>
<path d="M497.785,201.116h 12.8804" fill="none" stroke="black"/>
<path d="M504.225,190.777h 6.4402" fill="none" stroke="black"/>
<path d="M504.225,184.728h 6.4402" fill="none" stroke="black"/>
<path d="M504.225,180.437h 6.4402" fill="none" stroke="black"/>
<path d="M504.225,177.108h 6.4402" fill="none" stroke="black"/>
<path d="M504.225,174.389h 6.4402" fill="none" stroke="black"/>
<path d="M504.225,172.089h 6.4402" fill="none" stroke="black"/>
<path d="M504.225,170.097h 6.4402" fill="none" stroke="black"/>
<path d="M504.225,168.34h 6.4402" fill="none" stroke="black"/>
<path d="M497.785,166.769h 12.8804" fill="none" stroke="black"/>
<path d="M504.225,156.429h 6.4402" fill="none" stroke="black"/>
<path d="M504.225,150.381h 6.4402" fill="none" stroke="black"/>
<path d="M504.225,146.089h 6.4402" fill="none" stroke="black"/>
<path d="M504.225,142.761h 6.4402" fill="none" stroke="black"/>
<path d="M504.225,140.041h 6.4402" fill="none" stroke="black"/>
<path d="M504.225,137.742h 6.4402" fill="none" stroke="black"/>
<path d="M504.225,135.75h 6.4402" fill="none" stroke="black"/>
<path d="M504.225,133.993h 6.4402" fill="none" stroke="black"/>
<path d="M497.785,132.421h 12.8804" fill="none" stroke="black"/>
<path d="M504.225,122.082h 6.4402" fill="none" stroke="black"/>
<path d="M504.225,116.033h 6.4402" fill="none" stroke="black"/>
<path d="M504.225,111.742h 6.4402" fill="none" stroke="black"/>
<path d="M504.225,108.413h 6.4402" fill="none" stroke="black"/>
<path d="M504.225,105.694h 6.4402" fill="none" stroke="black"/>
<path d="M504.225,103.394h 6.4402" fill="none" stroke="black"/>
<path d="M504.225,101.402h 6.4402" fill="none" stroke="black"/>
<path d="M504.225,99.6455h 6.4402" fill="none" stroke="black"/>
<path d="M497.785,98.0739h 12.8804" fill="none" stroke="black"/>
<path d="M504.225,87.7343h 6.4402" fill="none" stroke="black"/>
<path d="M504.225,81.686h 6.4402" fill="none" stroke="black"/>
<path d="M504.225,77.3947h 6.4402" fill="none" stroke="black"/>
<path d="M504.225,74.0661h 6.4402" fill="none" stroke="black"/>
<path d="M504.225,71.3464h 6.4402" fill="none" stroke="black"/>
<path d="M504.225,69.0469h 6.4402" fill="none" stroke="black"/>
<path d="M504.225,67.0551h 6.4402" fill="none" stroke="black"/>
<path d="M504.225,65.2981h 6.4402" fill="none" stroke="black"/>
<path d="M497.785,63.7265h 12.8804" fill="none" stroke="black"/>
<path d="M504.225,53.3869h 6.4402" fill="none" stroke="black"/>
<path d="M504.225,47.3386h 6.4402" fill="none" stroke="black"/>
<path d="M504.225,43.0473h 6.4402" fill="none" stroke="black"/>
<path d="M504.225,39.7186h 6.4402" fill="none" stroke="black"/>
<path d="M504.225,36.999h 6.4402" fill="none" stroke="black"/>
<path d="M504.225,34.6995h 6.4402" fill="none" stroke="black"/>
<path d="M57.1929,41.5431v -7.46952" fill="none" stroke="black"/>
<path d="M75.3318,41.5431v -7.46952" fill="none" stroke="black"/>
<path d="M93.4707,41.5431v -7.46952" fill="none" stroke="black"/>
<path d="M111.61,41.5431v -7.46952" fill="none" stroke="black"/>
<path d="M129.749,41.5431v -7.46952" fill="none" stroke="black"/>
<path d="M147.887,41.5431v -7.46952" fill="none" stroke="black"/>
<path d="M166.026,41.5431v -7.46952" fill="none" stroke="black"/>
<path d="M184.165,41.5431v -7.46952" fill="none" stroke="black"/>
<path d="M202.304,41.5431v -7.46952" fill="none" stroke="black"/>
<path d="M220.443,41.5431v -7.46952" fill="none" stroke="black"/>
<path d="M238.582,41.5431v -7.46952" fill="none" stroke="black"/>
<path d="M256.721,41.5431v -7.46952" fill="none" stroke="black"/>
<path d="M274.86,41.5431v -7.46952" fill="none" stroke="black"/>
<path d="M292.999,41.5431v -7.46952" fill="none" stroke="black"/>
<path d="M311.138,41.5431v -7.46952" fill="none" stroke="black"/>
<path d="M329.277,41.5431v -7.46952" fill="none" stroke="black"/>
<path d="M347.415,41.5431v -7.46952" fill="none" stroke="black"/>
<path d="M365.554,41.5431v -7.46952" fill="none" stroke="black"/>
<path d="M383.693,41.5431v -7.46952" fill="none" stroke="black"/>
<path d="M401.832,41.5431v -7.46952" fill="none" stroke="black"/>
<path d="M419.971,41.5431v -7.46952" fill="none" stroke="black"/>
<path d="M438.11,41.5431v -7.46952" fill="none" stroke="black"/>
<path d="M456.249,41.5431v -7.46952" fill="none" stroke="black"/>
<path d="M474.388,41.5431v -7.46952" fill="none" stroke="black"/>
<path d="M492.527,41.5431v -7.46952" fill="none" stroke="black"/>
<path d="M510.666,41.5431v -7.46952" fill="none" stroke="black"/></svg>
