<?xml version="1.0" standalone="no"?>
<svg width="567.429" height="311.778" viewBox="0 0 567.429 311.778" xmlns="http://www.w3.org/2000/svg" shape-rendering="crispEdges">
<title>
Yields/P1/det-8/run_0106_Fit.svg
</title>
<desc>
Creator: ROOT Version 6.12/06
CreationDate: Mon Apr 15 10:29:02 2019</desc>
<defs>
</defs>
<rect x="0.5" y="0" width="566.929" height="311.278" fill="white"/>
<rect x="57.1929" y="31.1278" width="453.543" height="249.023" fill="white"/>
<rect x="57.1929" y="31.1278" width="453.543" height="249.023" fill="none" stroke="black"/>
<rect x="57.1929" y="31.1278" width="453.543" height="249.023" fill="white"/>
<rect x="57.1929" y="31.1278" width="453.543" height="249.023" fill="none" stroke="black"/>
<path d="M57.1929,40.892h 0.181345v 239.259h 19.0412v -10.5902h 0.181345v 10.5902h 4.53362v -10.5902h 0.181345v 10.5902h 0.725379v -10.5902h 0.181345v 10.5902h 0.906724v -10.5902h 0.181345v 10.5902h 0.906724v -10.5902h 0.181345v 10.5902h 0.906724v
 -21.1805h 0.181345v 10.5902h 0.181345v 10.5902h 0.906724v -10.5902h 0.181345v 10.5902h 1.81345v -35.18h 0.181345v -2.7856h 0.181345v -14.9856h 0.181345v -18.865h 0.181345v -11.6629h 0.181345v -7.98485h 0.181345v -4.14376h 0.181345v -4.8282h
 0.181345v -4.57566h 0.181345v -0.467269h 0.181345v -1.87436h 0.181345v -1.47346h 0.181345v 0.475536h 0.181345v -1.72877h 0.181345v -0.817699h 0.181345v -0.611643h 0.181345v 0.915919h 0.181345v -1.91618h 0.181345v -0.607424h 0.181345v -0.0927659h
 0.181345v 0.412451h 0.181345v -1.62115h 0.181345v 0.31076h 0.181345v 0.442373h 0.181345v -0.633031h 0.181345v 0.525688h 0.181345v -0.66287h 0.181345v 1.02365h 0.181345v -2.12662h 0.181345v 0.882639h 0.181345v -1.10339h 0.181345v 0.364357h 0.181345v
 0.655127h 0.181345v -0.445276h 0.181345v -0.113354h 0.181345v 0.0484775h 0.181345v 1.22968h 0.181345v -1.37465h 0.181345v 0.0160404h 0.181345v 0.145127h 0.181345v -0.850775h 0.181345v 0.200528h 0.181345v 0.650247h 0.181345v -0.525524h 0.181345v
 -0.0156462h 0.181345v 0.54117h 0.181345v -0.35235h 0.181345v 0.762866h 0.181345v -0.475187h 0.181345v -0.224217h 0.181345v 1.15551h 0.181345v 0.207169h 0.181345v 0.458742h 0.181345v -0.545404h 0.181345v -0.659606h 0.181345v 1.04465h 0.181345v
 -0.573989h 0.181345v 0.878316h 0.181345v 0.514847h 0.181345v -1.13493h 0.181345v 0.0347634h 0.181345v -0.0867605h 0.181345v -0.560586h 0.181345v -2.11503h 0.181345v -0.956977h 0.181345v -3.65826h 0.181345v -2.9139h 0.181345v -3.49777h 0.181345v
 -3.17462h 0.181345v -3.42649h 0.181345v -2.93377h 0.181345v -2.30162h 0.181345v -2.20392h 0.181345v -1.59708h 0.181345v -0.338561h 0.181345v -0.267986h 0.181345v 0.523092h 0.181345v 1.21201h 0.181345v 1.40904h 0.181345v 2.94269h 0.181345v 2.70956h
 0.181345v 3.68814h 0.181345v 3.54926h 0.181345v 4.1765h 0.181345v 4.79703h 0.181345v 3.53505h 0.181345v 3.7565h 0.181345v 2.83007h 0.181345v 1.74802h 0.181345v 1.66735h 0.181345v 1.49878h 0.181345v 0.270423h 0.181345v 0.733508h 0.181345v -0.106968h
 0.181345v 2.97149h 0.181345v -2.1316h 0.181345v -0.186553h 0.181345v 0.451614h 0.181345v 0.115021h 0.181345v 1.79474h 0.181345v -0.300008h 0.181345v -0.0846456h 0.181345v -0.539053h 0.181345v 0.329468h 0.181345v -0.531835h 0.181345v 0.911183h
 0.181345v 0.085594h 0.181345v -0.712706h 0.181345v -0.952734h 0.181345v 1.79474h 0.181345v -0.964395h 0.181345v 0.579741h 0.181345v 0.779242h 0.181345v -1.11321h 0.36269v 0.546469h 0.181345v -0.338595h 0.181345v -0.0418016h 0.181345v 0.50933h
 0.181345v -0.299169h 0.181345v -0.334884h 0.181345v 1.43137h 0.181345v -0.710756h 0.181345v 1.03242h 0.181345v 1.66661h 0.181345v -0.953647h 0.181345v 0.0487353h 0.181345v 0.648124h 0.181345v -0.890261h 0.181345v 0.389282h 0.181345v 0.861702h
 0.181345v 0.210017h 0.181345v 1.03901h 0.181345v -1.96215h 0.181345v 0.76536h 0.181345v -1.06108h 0.181345v 1.21886h 0.181345v 1.20972h 0.181345v 0.523885h 0.181345v -2.90358h 0.181345v 2.7856h 0.36269v -0.633098h 0.181345v -1.75563h 0.181345v
 2.33008h 0.181345v -1.60975h 0.181345v 2.26763h 0.181345v 0.308667h 0.181345v -0.430408h 0.181345v -2.30313h 0.181345v 1.24903h 0.181345v -0.280347h 0.181345v 1.3952h 0.181345v -0.829269h 0.181345v 0.232377h 0.181345v 0.536142h 0.181345v -0.940512h
 0.36269v 1.18497h 0.181345v -0.83903h 0.181345v 0.53406h 0.181345v 1.92842h 0.181345v -0.930282h 0.181345v -1.70614h 0.181345v 0.951497h 0.181345v 0.94928h 0.181345v 0.804317h 0.181345v -3.15951h 0.181345v 2.22516h 0.181345v -0.128933h 0.181345v
 0.722988h 0.181345v -0.977636h 0.181345v 2.09437h 0.181345v -2.22012h 0.181345v 1.51265h 0.181345v -1.69936h 0.181345v 0.503041h 0.181345v 0.653026h 0.181345v -1.58304h 0.181345v 0.488953h 0.181345v -1.30869h 0.181345v 1.12349h 0.181345v 0.0614829h
 0.181345v -2.95916h 0.181345v 1.32479h 0.181345v 0.223048h 0.181345v -2.29086h 0.181345v -0.937625h 0.181345v -1.30665h 0.181345v -0.330359h 0.181345v -0.40315h 0.181345v -0.585454h 0.181345v 0.19267h 0.36269v 1.8968h 0.181345v 1.18639h 0.181345v
 -1.9569h 0.181345v 2.83577h 0.181345v 0.511034h 0.181345v 1.58667h 0.181345v 0.951497h 0.181345v 0.498934h 0.181345v -0.189015h 0.181345v 1.10339h 0.181345v -0.134023h 0.181345v 0.612583h 0.181345v -0.47856h 0.181345v 2.40013h 0.181345v -1.64122h
 0.181345v -0.623698h 0.181345v 0.909286h 0.181345v -0.426404h 0.181345v -0.618091h 0.181345v 0.548166h 0.181345v 0.352868h 0.181345v 1.03372h 0.181345v -1.24642h 0.181345v -1.34699h 0.181345v 1.06793h 0.181345v -0.0689775h 0.181345v 2.95167h
 0.181345v 0.423254h 0.181345v 0.347253h 0.181345v -2.20392h 0.181345v -0.0758239h 0.181345v -0.520486h 0.181345v 0.749096h 0.181345v 0.7071h 0.181345v -2.65099h 0.181345v 2.17597h 0.181345v -0.308667h 0.181345v -0.890261h 0.181345v 0.0722389h
 0.181345v 4.61414h 0.181345v -1.31307h 0.181345v -1.29191h 0.181345v -2.64733h 0.181345v -0.138268h 0.181345v 2.7856h 0.181345v -1.49369h 0.36269v 0.150528h 0.181345v -2.82337h 0.181345v 3.44077h 0.181345v -1.92157h 0.181345v -0.411105h 0.181345v
 1.04928h 0.181345v 0.440756h 0.181345v -1.82437h 0.181345v -2.38351h 0.181345v 2.7856h 0.181345v -1.73149h 0.181345v 2.00555h 0.181345v -2.06606h 0.181345v -0.358106h 0.181345v 0.786789h 0.181345v 2.12914h 0.181345v -1.75188h 0.181345v 2.7856h
 0.181345v -1.17585h 0.181345v 0.430408h 0.181345v 3.04979h 0.181345v -0.694596h 0.181345v -2.13535h 0.181345v 1.30929h 0.181345v 0.325087h 0.181345v 1.28466h 0.181345v 0.0896102h 0.181345v -1.29191h 0.181345v 0.333969h 0.181345v -0.167897h 0.181345v
 0.595894h 0.181345v -0.926253h 0.181345v -0.0814855h 0.181345v 1.00774h 0.181345v 4.16559h 0.181345v -3.81435h 0.181345v -2.30435h 0.181345v 0.703482h 0.181345v 1.07698h 0.181345v -1.62691h 0.181345v 0.63013h 0.181345v 1.34403h 0.181345v -0.686789h
 0.181345v 0.425612h 0.181345v -0.341433h 0.181345v 0.341433h 0.181345v -2.46577h 0.181345v 2.46577h 0.181345v -1.16306h 0.181345v 0.821622h 0.181345v 0.0846456h 0.181345v -0.826065h 0.36269v 1.16942h 0.181345v -2.40471h 0.181345v 3.39077h 0.181345v
 -0.986051h 0.181345v 2.8552h 0.181345v -3.19856h 0.181345v -1.76178h 0.181345v 2.63507h 0.181345v -0.788177h 0.181345v -0.169763h 0.181345v -1.29419h 0.181345v 1.72219h 0.181345v -0.343351h 0.181345v -1.9123h 0.181345v 1.3294h 0.181345v 0.753613h
 0.181345v -1.78046h 0.181345v 1.44092h 0.181345v -0.083718h 0.181345v -0.492897h 0.181345v -0.240611h 0.181345v 1.15676h 0.181345v -2.00794h 0.181345v 1.83723h 0.181345v -1.14438h 0.36269v 1.14438h 0.181345v 0.170711h 0.181345v -2.88541h 0.181345v
 4.51425h 0.181345v -1.79955h 0.181345v -1.83723h 0.181345v 1.17284h 0.181345v 0.0814855h 0.181345v 1.72822h 0.181345v -2.4464h 0.181345v -1.9718h 0.181345v 2.28683h 0.181345v 1.41646h 0.181345v -0.931387h 0.181345v -0.485072h 0.181345v -1.87012h
 0.181345v 0.428397h 0.181345v 0.590547h 0.181345v 1.41861h 0.181345v -0.804317h 0.181345v -1.70348h 0.181345v 1.78204h 0.181345v -0.465371h 0.181345v -0.227476h 0.181345v 2.62091h 0.181345v -1.68995h 0.181345v 0.405289h 0.181345v -0.485072h
 0.181345v 0.986051h 0.181345v 0.256787h 0.181345v 2.73389h 0.181345v -2.90556h 0.181345v 3.32418h 0.181345v -1.60975h 0.181345v -2.21816h 0.181345v 1.29191h 0.181345v 1.31307h 0.181345v -1.31307h 0.181345v 0.180813h 0.181345v -2.19849h 0.181345v
 3.23312h 0.181345v 0.0976265h 0.181345v 1.87318h 0.181345v 0.795343h 0.181345v -1.8642h 0.181345v -2.38466h 0.181345v 3.78932h 0.181345v -2.20898h 0.181345v 2.09623h 0.181345v -2.95319h 0.181345v 0.0928786h 0.181345v 3.78656h 0.181345v -1.25961h
 0.181345v -1.9575h 0.181345v 3.21711h 0.181345v -1.03818h 0.181345v 1.77169h 0.181345v 0.252543h 0.181345v -0.252543h 0.181345v -0.970389h 0.181345v -0.233264h 0.181345v -1.43514h 0.181345v 0.755981h 0.181345v 1.51165h 0.181345v 1.01052h 0.181345v
 -2.95873h 0.181345v -0.107218h 0.181345v 1.10762h 0.181345v 2.4898h 0.181345v -2.37449h 0.181345v -0.11531h 0.181345v 3.04044h 0.181345v -1.34108h 0.181345v -0.254647h 0.181345v -2.76454h 0.181345v 2.14589h 0.181345v 0.368174h 0.181345v -1.53504h
 0.181345v 1.78551h 0.181345v -0.374186h 0.181345v 0.628833h 0.181345v 1.9123h 0.181345v -3.95246h 0.181345v 2.96641h 0.181345v -1.55509h 0.181345v -1.52326h 0.181345v 0.684226h 0.181345v 1.46786h 0.181345v -0.254647h 0.181345v 1.87867h 0.181345v
 -0.560741h 0.181345v 0.138268h 0.181345v -1.3294h 0.181345v -1.79955h 0.181345v 0.113595h 0.181345v 1.94274h 0.181345v 1.35296h 0.181345v -0.555643h 0.181345v -0.536142h 0.181345v 2.42119h 0.181345v -2.02085h 0.181345v -3.49021h 0.181345v 1.0004h
 0.181345v 5.63105h 0.181345v -3.54158h 0.181345v -0.517965h 0.181345v 1.89534h 0.181345v -1.11165h 0.181345v -1.28466h 0.181345v 1.96991h 0.181345v -3.82412h 0.181345v 2.87315h 0.181345v -0.39011h 0.181345v -1.58405h 0.181345v 4.24179h 0.181345v
 -2.00191h 0.181345v -2.12369h 0.181345v 2.66941h 0.181345v -1.9531h 0.181345v 1.67781h 0.181345v 4.39535h 0.181345v -3.4093h 0.181345v -1.12186h 0.181345v -1.41928h 0.181345v 0.500979h 0.181345v 0.650247h 0.181345v 0.40386h 0.181345v -0.926253h
 0.181345v 0.790443h 0.181345v -0.268051h 0.181345v -0.263429h 0.181345v 2.24675h 0.181345v -1.71527h 0.181345v -2.60425h 0.181345v 1.30869h 0.181345v 0.50512h 0.181345v 1.20155h 0.181345v -1.4562h 0.181345v 0.644758h 0.181345v -1.62292h 0.181345v
 1.49177h 0.181345v 3.34414h 0.181345v -4.10823h 0.181345v 0.634053h 0.181345v 0.526897h 0.181345v 0.270423h 0.36269v -0.13581h 0.181345v -2.60425h 0.181345v 2.74006h 0.181345v 0.275296h 0.181345v -3.01535h 0.36269v 2.07277h 0.36269v -2.52217h
 0.181345v 0.679156h 0.181345v 1.3294h 0.181345v -3.88174h 0.181345v 1.76286h 0.181345v -3.51882h 0.181345v 0.264188h 0.181345v 0.542489h 0.181345v 0.0923174h 0.36269v -1.58195h 0.181345v -0.330359h 0.181345v -1.77229h 0.181345v 2.61198h 0.181345v
 -0.17167h 0.181345v -0.253942h 0.181345v -2.25895h 0.181345v 2.51289h 0.181345v 0.258234h 0.181345v -2.18058h 0.181345v 1.41861h 0.181345v 2.02836h 0.181345v -2.75413h 0.181345v 3.33074h 0.181345v -1.31307h 0.181345v 0.831059h 0.181345v -1.18639h
 0.181345v 0.0880607h 0.181345v -1.27041h 0.181345v 0.749504h 0.181345v 0.788177h 0.181345v 2.74969h 0.181345v -2.29358h 0.181345v 0.374951h 0.181345v -0.920669h 0.181345v -0.952509h 0.181345v -0.24979h 0.181345v -1.19113h 0.36269v -1.24642h
 0.181345v -0.485072h 0.181345v -1.11764h 0.181345v -2.18214h 0.181345v -2.00577h 0.181345v -1.68667h 0.181345v -1.28257h 0.181345v -1.97055h 0.181345v 0.105007h 0.181345v -1.97416h 0.181345v -1.41405h 0.181345v 0.283995h 0.181345v -3.28843h
 0.181345v -0.160949h 0.181345v -1.08153h 0.181345v 0.520169h 0.181345v 0.470144h 0.181345v -2.37467h 0.181345v 0.881311h 0.181345v 1.67633h 0.181345v -0.741057h 0.181345v 0.926253h 0.181345v 0.936446h 0.181345v 1.07712h 0.181345v 1.44823h 0.181345v
 0.871576h 0.181345v 1.66483h 0.181345v 3.29762h 0.181345v -1.15364h 0.181345v 3.96494h 0.181345v 0.955217h 0.181345v 1.01894h 0.181345v 4.14376h 0.181345v 0.154329h 0.181345v -0.38294h 0.181345v 2.01856h 0.181345v 1.63855h 0.181345v 1.09534h
 0.181345v 2.82695h 0.181345v -3.43412h 0.181345v 3.31041h 0.181345v 1.15123h 0.181345v -0.77704h 0.181345v 2.02213h 0.181345v -3.58129h 0.181345v 2.3362h 0.181345v -0.650247h 0.181345v 1.89534h 0.181345v 0.738235h 0.181345v -1.02382h 0.181345v
 -0.280347h 0.181345v 1.30417h 0.181345v 0.93571h 0.181345v -0.63013h 0.181345v -1.47022h 0.181345v -1.46893h 0.181345v 1.46893h 0.181345v 2.75759h 0.181345v -1.74348h 0.181345v 0.456108h 0.181345v -0.605168h 0.181345v 1.39698h 0.181345v -0.161679h
 0.181345v -2.37815h 0.181345v 0.138268h 0.181345v -0.275296h 0.181345v 2.04016h 0.181345v 1.99568h 0.181345v -2.75596h 0.181345v 0.760281h 0.181345v 1.47179h 0.181345v -3.23666h 0.181345v 3.58391h 0.181345v 0.35533h 0.181345v -4.07751h 0.181345v
 3.54756h 0.181345v -3.54756h 0.181345v 3.89881h 0.181345v -0.351245h 0.181345v -0.84433h 0.181345v 1.55509h 0.181345v -2.35519h 0.181345v -1.34239h 0.181345v 1.03372h 0.181345v 3.4093h 0.181345v 0.386818h 0.181345v -1.13226h 0.181345v -3.11547h
 0.181345v 2.40471h 0.181345v -2.10513h 0.181345v 0.775724h 0.181345v 0.159986h 0.181345v 0.325087h 0.181345v 0.84433h 0.181345v -2.40471h 0.181345v -0.724235h 0.181345v 1.79955h 0.181345v -0.158328h 0.181345v 3.92998h 0.181345v -3.61166h 0.181345v
 1.34403h 0.181345v -0.347253h 0.36269v -0.996777h 0.181345v 3.4093h 0.181345v -2.91904h 0.181345v 0.853769h 0.36269v -1.18235h 0.181345v -1.39698h 0.181345v 3.29845h 0.181345v 0.372665h 0.181345v -2.11073h 0.181345v 2.30053h 0.181345v 1.60975h
 0.181345v -0.623698h 0.181345v -2.61489h 0.181345v -0.339536h 0.181345v 0.339536h 0.181345v 0.347253h 0.181345v 3.76463h 0.181345v -2.48304h 0.181345v -1.28158h 0.181345v 0.536142h 0.181345v -2.04016h 0.181345v 4.18461h 0.181345v -3.02784h 0.181345v
 1.82102h 0.181345v -0.569451h 0.181345v -0.727685h 0.181345v 0.35951h 0.181345v 0.368174h 0.181345v 0.187468h 0.181345v -1.2664h 0.181345v -1.9531h 0.181345v 1.10877h 0.181345v 0.165174h 0.181345v -1.5765h 0.181345v -0.873294h 0.181345v -1.73654h
 0.181345v 0.77704h 0.36269v -6.76002h 0.181345v 1.61924h 0.181345v -0.559031h 0.181345v -3.3543h 0.181345v -2.9318h 0.181345v -2.76538h 0.181345v -0.740621h 0.181345v -2.0281h 0.181345v -1.79016h 0.181345v -1.5005h 0.181345v -2.06566h 0.181345v
 -0.978618h 0.181345v -0.248886h 0.181345v -1.2882h 0.181345v -0.22524h 0.181345v 0.22524h 0.181345v -0.422703h 0.181345v -0.8583h 0.181345v 0.399307h 0.181345v -0.352868h 0.181345v 0.210741h 0.181345v 1.27805h 0.181345v -0.153041h 0.181345v 1.60411h
 0.181345v 0.0848022h 0.181345v 1.20877h 0.181345v 2.97079h 0.181345v 0.764084h 0.181345v 1.43662h 0.181345v 3.19561h 0.181345v 0.0531426h 0.181345v 1.7464h 0.181345v 2.5958h 0.181345v 1.25243h 0.181345v 4.31876h 0.181345v 1.05411h 0.36269v 4.39535h
 0.181345v 1.85421h 0.181345v 3.69953h 0.181345v -0.207874h 0.181345v 2.21816h 0.181345v 0.986051h 0.181345v -1.68595h 0.181345v 3.58129h 0.181345v -0.84123h 0.181345v -1.79955h 0.181345v 5.83538h 0.181345v 1.10495h 0.181345v -5.14079h 0.181345v
 5.52761h 0.181345v -0.386818h 0.181345v -3.10063h 0.181345v 5.58367h 0.181345v -2.48304h 0.181345v -4.29956h 0.181345v 1.19893h 0.181345v 1.99568h 0.181345v 2.7147h 0.181345v -5.3216h 0.181345v -0.587707h 0.181345v -1.63855h 0.181345v 5.93811h
 0.181345v -1.79955h 0.181345v -0.335805h 0.181345v 4.17551h 0.181345v 6.41473h 0.181345v -8.83216h 0.181345v -1.42228h 0.181345v -0.664387h 0.181345v 2.85075h 0.181345v -1.84301h 0.181345v -1.64443h 0.181345v 4.71038h 0.181345v -1.60975h 0.181345v
 -6.19489h 0.181345v 6.19489h 0.181345v -5.41121h 0.181345v 6.60234h 0.181345v -6.86806h 0.181345v 4.93149h 0.181345v 0.74544h 0.181345v -0.74544h 0.181345v -5.19267h 0.181345v 9.83248h 0.181345v -8.75986h 0.181345v 4.86549h 0.181345v -2.7856h
 0.181345v 2.04016h 0.36269v -2.04016h 0.181345v -1.22293h 0.181345v -0.856962h 0.181345v 0.565935h 0.181345v 3.92229h 0.181345v -1.42228h 0.181345v 2.58323h 0.181345v -7.23112h 0.181345v 5.702h 0.181345v -2.96641h 0.181345v 2.25566h 0.181345v
 -2.25566h 0.181345v -1.69936h 0.181345v 3.61166h 0.181345v 0.694596h 0.181345v -1.35898h 0.181345v 0.664387h 0.181345v -3.06595h 0.181345v 0.856962h 0.181345v -0.291028h 0.181345v 0.890261h 0.181345v -0.302554h 0.181345v 0.302554h 0.181345v -2.7856h
 0.181345v 3.4093h 0.181345v 0.321664h 0.181345v -0.321664h 0.181345v -0.623698h 0.181345v 1.27395h 0.181345v -0.650247h 0.181345v 0.986051h 0.181345v -0.664387h 0.181345v -2.40156h 0.181345v 0.280347h 0.181345v 0.576615h 0.181345v 0.296679h
 0.181345v 0.611221h 0.181345v 2.35519h 0.181345v -2.96641h 0.181345v 2.6069h 0.181345v 0.727685h 0.181345v 1.16095h 0.181345v -3.88431h 0.181345v -1.48452h 0.181345v 2.7856h 0.181345v 2.58323h 0.181345v -1.52912h 0.181345v 1.13226h 0.181345v
 -5.79803h 0.181345v 2.00191h 0.36269v 0.623698h 0.181345v 2.40833h 0.181345v -2.72336h 0.181345v 1.64443h 0.181345v -0.343351h 0.181345v 2.58323h 0.181345v 1.69936h 0.181345v -0.873294h 0.181345v -2.7147h 0.181345v -2.30435h 0.181345v 2.30435h
 0.181345v 2.7147h 0.181345v 4.39535h 0.181345v -9.71695h 0.181345v 4.09867h 0.181345v 0.396866h 0.181345v -1.16095h 0.181345v 1.5684h 0.181345v 3.20421h 0.181345v -3.61166h 0.36269v 0.826065h 0.181345v -3.06595h 0.181345v -1.64443h 0.181345v
 0.965278h 0.181345v -0.650247h 0.181345v 4.39535h 0.181345v -4.07368h 0.181345v 2.46393h 0.181345v -0.74544h 0.181345v -0.710756h 0.181345v 2.23988h 0.36269v -1.88863h 0.181345v 1.49177h 0.181345v -2.85075h 0.181345v 0.328582h 0.181345v 2.13535h
 0.181345v -2.46393h 0.181345v 3.24762h 0.181345v -2.58323h 0.181345v -0.335805h 0.181345v 5.54465h 0.181345v 0.485072h 0.181345v -1.41132h 0.181345v -6.19489h 0.181345v 4.49553h 0.181345v -1.52912h 0.181345v 1.93657h 0.181345v -0.407451h 0.181345v
 -2.23988h 0.181345v 5.85154h 0.181345v 0.517965h 0.181345v -2.43027h 0.36269v 1.9123h 0.36269v -5.5003h 0.181345v 0.727685h 0.181345v 4.77261h 0.181345v -4.39535h 0.181345v 2.48304h 0.181345v 2.43027h 0.181345v -0.517965h 0.181345v -4.77261h
 0.181345v 5.29058h 0.181345v 1.09179h 0.181345v -4.81396h 0.181345v 5.39058h 0.181345v 0.599233h 0.181345v -2.7856h 0.36269v -1.9123h 0.181345v 0.926253h 0.181345v 2.5958h 0.181345v -1.09179h 0.181345v 4.22073h 0.181345v -2.55233h 0.181345v
 -3.17242h 0.181345v 2.5958h 0.181345v 6.19489h 0.181345v -7.28668h 0.181345v 2.26763h 0.181345v -5.5712h 0.181345v 7.5243h 0.181345v -1.9531h 0.181345v -1.17585h 0.181345v 5.36883h 0.181345v -10.5902h 0.181345v 9.06112h 0.181345v -2.04016h 0.181345v
 -2.35519h 0.181345v 1.13226h 0.181345v 6.49157h 0.181345v -5.26864h 0.181345v -2.35519h 0.181345v 5.92447h 0.181345v 3.61166h 0.181345v -2.7856h 0.181345v 0.873294h 0.181345v -3.93924h 0.181345v 6.90565h 0.181345v -5.44945h 0.181345v 2.48304h
 0.36269v -1.69936h 0.181345v -0.783684h 0.181345v 4.39535h 0.181345v -1.9123h 0.181345v -1.69936h 0.181345v -0.783684h 0.181345v 3.4093h 0.36269v 0.986051h 0.181345v -1.9123h 0.181345v 1.9123h 0.181345v -0.986051h 0.181345v 4.39535h 0.181345v
 -1.22293h 0.181345v -1.13226h 0.181345v -1.05411h 0.181345v 2.18636h 0.181345v -4.09867h 0.181345v 6.651h 0.36269v 1.4562h 0.181345v 1.60975h 0.181345v 1.79955h 0.181345v -3.4093h 0.181345v -7.18095h 0.181345v 4.39535h 0.181345v -5.3216h 0.181345v
 4.09867h 0.181345v 1.22293h 0.181345v 1.3294h 0.181345v -3.68459h 0.181345v 8.55008h 0.181345v -1.79955h 0.181345v -4.39535h 0.181345v 2.7856h 0.181345v 5.44945h 0.181345v -3.8397h 0.181345v -3.06595h 0.181345v 1.4562h 0.181345v -9.80656h 0.181345v
 2.62561h 0.181345v -2.62561h 0.181345v 2.62561h 0.181345v 2.04016h 0.181345v 1.13226h 0.181345v -5.79803h 0.181345v 2.62561h 0.181345v -9.60419h 0.181345v 10.5902h 0.181345v -10.0723h 0.181345v 1.09179h 0.181345v -1.60975h 0.181345v -1.4562h
 0.181345v -2.15547h 0.181345v 2.15547h 0.181345v -3.31642h 0.181345v 0.764084h 0.181345v -6.58171h 0.181345v 4.05954h 0.181345v 2.91904h 0.181345v -5.92447h 0.181345v -1.05411h 0.181345v 4.7387h 0.181345v 3.06595h 0.181345v -7.28668h 0.181345v
 -0.517965h 0.181345v 2.18636h 0.181345v 1.22293h 0.181345v -1.79955h 0.181345v 2.44979h 0.181345v -1.5765h 0.181345v -0.873294h 0.181345v -2.11073h 0.181345v 2.11073h 0.181345v 2.7856h 0.181345v 3.4093h 0.36269v -1.22293h 0.181345v 2.55233h
 0.181345v -1.3294h 0.181345v 2.7856h 0.181345v -0.986051h 0.181345v 7.96463h 0.181345v -2.23988h 0.181345v 3.93924h 0.181345v -4.6184h 0.181345v 6.5307h 0.181345v -1.9123h 0.181345v -5.89234h 0.181345v 7.80464h 0.181345v 1.05411h 0.181345v -4.66577h
 0.181345v 1.69936h 0.181345v 5.3216h 0.181345v -9.26084h 0.181345v 10.5902h 0.181345v -6.651h 0.181345v -5.26864h 0.36269v 5.26864h 0.181345v -9.17892h 0.181345v -1.41132h 0.181345v 0.456108h 0.181345v -4.0441h 0.181345v 4.99932h 0.181345v -2.70323h
 0.181345v -4.29176h 0.181345v -1.19893h 0.181345v -3.35153h 0.181345v -0.679156h 0.181345v -2.63726h 0.181345v 1.5684h 0.181345v -0.804317h 0.181345v -1.84301h 0.181345v -4.35188h 0.181345v 0.942585h 0.181345v -2.55233h 0.181345v 1.47972h 0.181345v
 -1.94274h 0.181345v -1.72334h 0.181345v 0.730169h 0.181345v -0.525086h 0.181345v -0.407451h 0.181345v -0.199722h 0.181345v -0.679156h 0.36269v 0.580266h 0.181345v -0.195881h 0.181345v -0.666457h 0.181345v 2.97307h 0.181345v -4.47999h 0.181345v
 0.0846456h 0.181345v -0.335805h 0.181345v -0.0828104h 0.181345v 0.849023h 0.181345v -1.01331h 0.181345v 0.414077h 0.181345v -0.24979h 0.181345v -0.725764h 0.181345v -0.156704h 0.181345v -0.232083h 0.181345v -3.17721h 0.181345v 0.378825h 0.181345v
 0.257871h 0.181345v -2.23397h 0.181345v 0.0562744h 0.181345v 1.35505h 0.181345v 0.311182h 0.181345v -0.915153h 0.181345v 1.04142h 0.181345v -0.56017h 0.181345v -0.421918h 0.181345v 1.04562h 0.181345v 3.17242h 0.181345v -1.34898h 0.181345v -0.700971h
 0.181345v 3.61623h 0.181345v 1.55199h 0.181345v 0.291028h 0.181345v 0.396866h 0.181345v 0.932536h 0.181345v -1.13226h 0.181345v 4.46163h 0.181345v 1.8328h 0.181345v 2.7856h 0.181345v 1.11844h 0.181345v 2.98023h 0.181345v -1.56267h 0.181345v 3.30356h
 0.181345v 3.213h 0.181345v 4.07368h 0.181345v -2.7147h 0.181345v 6.01826h 0.181345v 0.536142h 0.181345v -2.04016h 0.181345v 4.39535h 0.181345v 9.36731h 0.181345v -9.99101h 0.181345v 6.81859h 0.181345v 10.5902h 0.181345v -1.79955h 0.181345v -3.06595h
 0.36269v 1.4562h 0.181345v 1.60975h 0.181345v -1.60975h 0.181345v -2.7856h 0.181345v 16.7851h 0.181345v -13.9995h 0.181345v 5.44945h 0.36269v -3.8397h 0.181345v 3.8397h 0.36269v 8.55008h 0.181345v -13.9995h 0.181345v 7.80464h 0.181345v 10.5902h
 0.36269v -4.39535h 0.36269v 4.39535h 0.181345v -7.80464h 0.181345v 3.4093h 0.36269v -8.55008h 0.181345v 12.9454h 0.36269v -18.3949h 0.181345v 10.5902h 0.181345v 13.9995h 0.181345v -6.19489h 0.181345v -10.5902h 0.181345v 2.7856h 0.181345v 3.4093h
 0.36269v -8.55008h 0.181345v 19.1403h 0.181345v -10.5902h 0.181345v -6.19489h 0.181345v 16.7851h 0.181345v -6.19489h 0.181345v -4.39535h 0.181345v 4.39535h 0.181345v 16.7851h 0.181345v -10.5902h 0.544034v -13.9995h 0.181345v -7.18095h 0.181345v
 7.18095h 0.181345v 3.4093h 0.36269v -6.19489h 0.181345v -2.35519h 0.181345v 2.35519h 0.181345v 6.19489h 0.181345v 4.39535h 0.36269v -4.39535h 0.181345v 4.39535h 0.181345v -4.39535h 0.181345v 31.7707h 0.181345v -35.18h 0.181345v 13.9995h 0.181345v
 -10.5902h 0.181345v -3.4093h 0.181345v 13.9995h 0.36269v -10.5902h 0.181345v 4.39535h 0.181345v -16.7851h 0.181345v 44.1605h 0.181345v -35.18h 0.181345v -10.5902h 0.181345v 35.18h 0.181345v -24.5898h 0.181345v -5.14079h 0.181345v 2.35519h 0.181345v
 16.7851h 0.181345v -21.1805h 0.181345v -7.41783h 0.181345v 11.8132h 0.181345v -12.9454h 0.181345v 15.731h 0.181345v -8.98049h 0.181345v 12.3898h 0.181345v -15.4557h 0.181345v 6.90565h 0.181345v 12.9454h 0.181345v -23.5357h 0.181345v 3.68459h
 0.181345v -2.55233h 0.181345v 2.55233h 0.181345v -6.651h 0.181345v 1.9123h 0.181345v -1.9123h 0.181345v -0.873294h 0.181345v 3.8397h 0.181345v -2.04016h 0.181345v 0.986051h 0.36269v -1.9123h 0.181345v -2.48304h 0.181345v -1.4562h 0.181345v 9.26084h
 0.544034v 1.3294h 0.181345v -4.7387h 0.181345v 7.80464h 0.181345v -4.39535h 0.181345v 6.19489h 0.181345v -6.19489h 0.181345v 1.3294h 0.36269v -4.7387h 0.181345v 4.7387h 0.181345v 4.86549h 0.181345v 4.39535h 0.36269v -2.35519h 0.181345v -2.04016h
 0.181345v -1.79955h 0.181345v 6.19489h 0.181345v 6.19489h 0.181345v 4.39535h 0.181345v -4.39535h 0.181345v -6.19489h 0.181345v 10.5902h 0.36269v 6.19489h 0.181345v -16.7851h 0.181345v 2.7856h 0.181345v 24.5898h 0.181345v -10.5902h 0.544034v
 -16.7851h 0.181345v 16.7851h 0.544034v -6.19489h 0.181345v -4.39535h 0.181345v -3.4093h 0.181345v 7.80464h 0.181345v 16.7851h 0.36269v -10.5902h 0.36269v -13.9995h 0.181345v 13.9995h 0.36269v -6.19489h 0.181345v -7.80464h 0.181345v -2.7856h
 0.181345v 27.3754h 0.181345v 10.5902h 0.181345v -31.7707h 0.36269v 21.1805h 0.181345v -16.7851h 0.36269v 16.7851h 0.181345v -16.7851h 0.181345v 6.19489h 0.36269v -13.9995h 0.181345v 13.9995h 0.181345v -6.19489h 0.181345v 16.7851h 0.181345v -10.5902h
 0.181345v -10.5902h 0.36269v 10.5902h 0.181345v -6.19489h 0.36269v -7.80464h 0.181345v 7.80464h 0.181345v -4.39535h 0.181345v 10.5902h 0.181345v -13.9995h 0.181345v 7.80464h 0.181345v 6.19489h 0.181345v -13.9995h 0.181345v 7.80464h 0.181345v
 27.3754h 0.181345v -44.1605h 0.181345v 22.98h 0.181345v -13.9995h 0.36269v -2.7856h 0.36269v -6.19489h 0.181345v 8.98049h 0.181345v -5.14079h 0.181345v 8.55008h 0.181345v -12.3898h 0.181345v -4.39535h 0.181345v 10.5902h 0.181345v 16.7851h 0.181345v
 -19.1403h 0.181345v 8.55008h 0.181345v -6.19489h 0.181345v -4.39535h 0.181345v -6.19489h 0.181345v 6.19489h 0.181345v 14.9856h 0.181345v -22.4034h 0.181345v 9.45798h 0.181345v -6.90565h 0.181345v 3.06595h 0.181345v 8.98049h 0.181345v -12.0464h
 0.181345v 3.06595h 0.181345v 3.8397h 0.181345v -5.44945h 0.181345v -2.7856h 0.181345v 2.7856h 0.181345v 5.44945h 0.181345v -8.23505h 0.181345v 2.7856h 0.181345v 7.80464h 0.181345v 2.7856h 0.181345v -10.5902h 0.181345v 7.80464h 0.181345v 2.7856h
 0.181345v -8.98049h 0.181345v 1.79955h 0.181345v -1.79955h 0.181345v 1.79955h 0.181345v 31.7707h 0.181345v -27.3754h 0.181345v 16.7851h 0.181345v 10.5902h 0.181345v -21.1805h 0.181345v -8.55008h 0.181345v 19.1403h 0.181345v -22.98h 0.181345v
 12.3898h 0.181345v -6.19489h 0.36269v -2.35519h 0.181345v 19.1403h 0.36269v -13.9995h 0.181345v 3.4093h 0.181345v -8.55008h 0.181345v 8.55008h 0.181345v -8.55008h 0.181345v 5.14079h 0.181345v 3.4093h 0.181345v -3.4093h 0.181345v 7.80464h 0.181345v
 -10.5902h 0.36269v 6.19489h 0.36269v -6.19489h 0.181345v -2.35519h 0.181345v -6.90565h 0.181345v 9.26084h 0.181345v 6.19489h 0.36269v -10.5902h 0.181345v 7.18095h 0.36269v -13.3758h 0.181345v 21.1805h 0.181345v -12.9454h 0.181345v -5.44945h
 0.181345v 7.80464h 0.181345v 6.19489h 0.181345v -6.19489h 0.725379v -10.5902h 0.181345v 8.23505h 0.181345v 5.14079h 0.181345v -7.18095h 0.181345v -1.79955h 0.181345v 3.8397h 0.181345v -8.23505h 0.181345v 16.7851h 0.181345v -12.3898h 0.181345v
 16.7851h 0.181345v -10.5902h 0.181345v -4.39535h 0.181345v 4.39535h 0.181345v -2.35519h 0.181345v 2.35519h 0.181345v -10.5902h 0.181345v 2.7856h 0.181345v 3.4093h 0.181345v 21.1805h 0.181345v -27.3754h 0.181345v -3.4093h 0.181345v 6.19489h 0.181345v
 -1.4562h 0.181345v 9.26084h 0.181345v -2.35519h 0.181345v -6.90565h 0.181345v -2.55233h 0.181345v 5.61828h 0.181345v -4.39535h 0.181345v 8.23505h 0.181345v 2.35519h 0.181345v -12.9454h 0.181345v 1.13226h 0.181345v 5.61828h 0.181345v -4.39535h
 0.181345v -1.22293h 0.181345v -3.17242h 0.181345v 10.5902h 0.181345v -3.4093h 0.181345v -1.4562h 0.181345v -3.68459h 0.181345v 1.13226h 0.181345v 2.55233h 0.181345v 3.06595h 0.181345v 44.1605h 0.181345v -44.1605h 0.181345v -1.60975h 0.181345v
 -8.1072h 0.181345v 8.1072h 0.181345v -2.7856h 0.181345v -4.39535h 0.181345v 2.04016h 0.181345v 6.75054h 0.181345v 12.3898h 0.181345v -21.1805h 0.181345v -0.926253h 0.36269v 11.5165h 0.181345v -4.86549h 0.181345v -9.87949h 0.181345v 6.19489h 0.36269v
 -2.96641h 0.181345v 8.1072h 0.181345v -1.4562h 0.181345v -1.3294h 0.36269v -2.35519h 0.181345v -3.8397h 0.181345v 7.5243h 0.181345v -7.5243h 0.181345v 19.5707h 0.181345v -14.5988h 0.181345v 4.00853h 0.181345v -5.14079h 0.181345v -1.05411h 0.181345v
 4.7387h 0.181345v -2.55233h 0.181345v -2.18636h 0.181345v 6.19489h 0.181345v -2.7856h 0.181345v -4.39535h 0.181345v -6.81859h 0.181345v 9.99101h 0.181345v -1.13226h 0.181345v 5.14079h 0.181345v 1.60975h 0.181345v -10.5902h 0.181345v 0.873294h
 0.36269v -0.873294h 0.181345v 4.97196h 0.181345v -7.32715h 0.181345v 4.15474h 0.181345v -1.79955h 0.181345v 4.97196h 0.181345v -6.58171h 0.181345v 10.5902h 0.181345v -11.3357h 0.181345v 0.74544h 0.181345v 2.48304h 0.181345v 6.651h 0.181345v
 -2.55233h 0.181345v -9.36731h 0.181345v 2.7856h 0.181345v -0.74544h 0.181345v 7.32715h 0.181345v -1.13226h 0.181345v -7.58481h 0.181345v 7.58481h 0.181345v -3.8397h 0.181345v -1.60975h 0.181345v -0.74544h 0.36269v 5.14079h 0.181345v -7.18095h
 0.181345v -1.79955h 0.181345v 3.8397h 0.181345v -3.8397h 0.181345v 3.8397h 0.181345v -4.93149h 0.181345v 3.54158h 0.36269v -1.87318h 0.36269v 1.87318h 0.181345v 2.13535h 0.181345v -3.4093h 0.181345v -3.28658h 0.181345v -0.955217h 0.181345v 4.24179h
 0.181345v -1.17585h 0.181345v 2.44979h 0.181345v -4.05954h 0.181345v 4.05954h 0.181345v 0.679156h 0.181345v 2.23988h 0.181345v -2.91904h 0.181345v -1.87318h 0.36269v -1.6684h 0.181345v -2.43027h 0.181345v 5.3216h 0.36269v 2.7856h 0.181345v -0.74544h
 0.181345v -2.04016h 0.181345v 4.39535h 0.181345v -3.06595h 0.181345v 3.06595h 0.181345v -1.60975h 0.181345v 1.60975h 0.181345v -5.01905h 0.181345v 3.4093h 0.181345v -0.74544h 0.181345v 1.52912h 0.181345v -3.56928h 0.181345v 5.26864h 0.181345v
 -4.6184h 0.181345v 8.71706h 0.181345v -6.58171h 0.181345v -2.7856h 0.181345v 6.19489h 0.544034v 0.986051h 0.181345v -3.61166h 0.181345v 2.62561h 0.181345v 8.7907h 0.181345v -4.39535h 0.181345v -3.4093h 0.181345v 4.7387h 0.181345v -5.72475h 0.181345v
 7.18095h 0.181345v -12.0464h 0.181345v 9.26084h 0.181345v -7.02096h 0.181345v 5.79803h 0.181345v -2.18636h 0.181345v -2.7856h 0.181345v 10.5902h 0.181345v -12.2h 0.181345v 6.58171h 0.36269v 2.55233h 0.181345v -1.3294h 0.181345v -1.22293h 0.181345v
 1.22293h 0.181345v -2.35519h 0.181345v 2.35519h 0.36269v 1.3294h 0.181345v -2.55233h 0.181345v -4.97196h 0.181345v -0.826065h 0.36269v 9.80656h 0.181345v -8.1072h 0.181345v 0.926253h 0.181345v 2.04016h 0.181345v 1.13226h 0.181345v 5.61828h 0.181345v
 -4.39535h 0.181345v -4.39535h 0.181345v 14.9856h 0.181345v -10.5902h 0.181345v 4.39535h 0.181345v -5.61828h 0.181345v 4.00853h 0.181345v -6.19489h 0.181345v 7.80464h 0.181345v -9.71695h 0.181345v -0.873294h 0.181345v 8.98049h 0.181345v -2.7856h
 0.181345v -3.4093h 0.181345v -1.9123h 0.181345v 0.926253h 0.181345v 3.17242h 0.181345v -2.18636h 0.181345v 3.4093h 0.181345v -3.4093h 0.181345v 3.4093h 0.181345v -5.3216h 0.181345v 15.9118h 0.181345v -12.9454h 0.181345v 2.35519h 0.181345v 8.23505h
 0.181345v -11.6443h 0.181345v -0.986051h 0.181345v -0.926253h 0.181345v 1.9123h 0.181345v -1.9123h 0.181345v 8.1072h 0.181345v -8.1072h 0.181345v -1.69936h 0.181345v 7.02096h 0.181345v -4.39535h 0.181345v 2.04016h 0.181345v 2.35519h 0.181345v
 4.39535h 0.181345v -7.80464h 0.181345v 4.7387h 0.181345v -10.5902h 0.181345v 12.0464h 0.181345v -8.1072h 0.181345v 2.96641h 0.181345v 1.13226h 0.181345v 5.61828h 0.181345v -11.4163h 0.181345v 5.79803h 0.181345v -5.79803h 0.181345v 3.61166h 0.181345v
 -3.61166h 0.181345v 4.66577h 0.181345v -10.0346h 0.181345v 13.7192h 0.181345v -2.55233h 0.181345v -5.79803h 0.181345v 7.02096h 0.181345v -3.4093h 0.181345v -0.986051h 0.181345v 3.17242h 0.181345v 5.61828h 0.181345v -4.39535h 0.181345v -3.4093h
 0.181345v 1.05411h 0.181345v -3.8397h 0.181345v 2.7856h 0.181345v 1.05411h 0.181345v -5.44945h 0.181345v 3.4093h 0.181345v -3.4093h 0.181345v 3.4093h 0.36269v -0.926253h 0.181345v -3.22848h 0.181345v 1.52912h 0.181345v 1.69936h 0.181345v -9.66399h
 0.181345v 7.96463h 0.36269v 7.02096h 0.181345v -4.39535h 0.181345v -3.4093h 0.181345v 4.39535h 0.181345v 3.4093h 0.181345v -3.4093h 0.181345v 1.05411h 0.181345v -3.8397h 0.181345v 10.5902h 0.181345v -12.2h 0.181345v 9.13405h 0.181345v -7.5243h
 0.181345v -3.7451h 0.181345v 2.91904h 0.36269v 8.35036h 0.181345v -9.13405h 0.181345v 0.783684h 0.181345v 4.66577h 0.181345v -1.05411h 0.181345v 4.7387h 0.181345v -14.2748h 0.181345v 3.68459h 0.181345v 4.86549h 0.181345v 2.04016h 0.181345v 2.35519h
 0.181345v -11.2139h 0.181345v 1.27395h 0.181345v 2.91904h 0.181345v -4.79221h 0.181345v -3.17242h 0.181345v 10.5902h 0.181345v -3.4093h 0.36269v 9.13405h 0.181345v -10.5902h 0.181345v 0.710756h 0.181345v 0.74544h 0.181345v -5.14079h 0.181345v
 5.14079h 0.36269v -4.00853h 0.181345v 3.26309h 0.181345v -2.66386h 0.181345v 2.66386h 0.181345v 6.19489h 0.181345v -5.44945h 0.181345v 4.39535h 0.181345v -12.9454h 0.181345v 7.80464h 0.181345v 4.15474h 0.181345v -7.41783h 0.181345v 1.87318h 0.36269v
 1.38991h 0.181345v 6.19489h 0.181345v -8.23505h 0.181345v 5.26864h 0.36269v -1.69936h 0.181345v 2.62561h 0.181345v -5.54465h 0.181345v 3.7451h 0.181345v -2.35519h 0.181345v -2.04016h 0.181345v 1.3294h 0.181345v 1.4562h 0.181345v -0.74544h 0.181345v
 3.22848h 0.181345v -4.6184h 0.181345v 2.91904h 0.181345v -0.783684h 0.181345v 6.58171h 0.181345v -2.18636h 0.181345v -3.61166h 0.181345v 3.61166h 0.181345v -0.986051h 0.181345v 0.986051h 0.181345v 6.19489h 0.181345v -11.3357h 0.181345v 11.3357h
 0.181345v -7.18095h 0.36269v -1.79955h 0.181345v 4.97196h 0.181345v -4.97196h 0.181345v 10.5902h 0.181345v -6.75054h 0.181345v 10.5902h 0.181345v -5.44945h 0.181345v -2.7856h 0.181345v -3.4093h 0.181345v 6.19489h 0.181345v -7.18095h 0.181345v
 0.986051h 0.181345v 7.80464h 0.181345v -7.80464h 0.181345v 1.05411h 0.181345v 5.14079h 0.181345v -1.4562h 0.181345v -4.7387h 0.181345v 2.18636h 0.36269v 2.55233h 0.181345v -6.651h 0.181345v -3.22848h 0.181345v 7.32715h 0.181345v -9.36731h 0.181345v
 11.9196h 0.181345v -3.68459h 0.181345v 5.14079h 0.181345v -8.98049h 0.181345v 12.3898h 0.181345v -4.86549h 0.181345v -9.87949h 0.181345v 0.74544h 0.36269v 2.48304h 0.181345v -2.48304h 0.181345v 2.48304h 0.181345v -2.48304h 0.181345v 3.4093h
 0.181345v -3.4093h 0.181345v -0.74544h 0.181345v -0.710756h 0.181345v 2.23988h 0.181345v -0.783684h 0.181345v 7.80464h 0.181345v -5.3216h 0.181345v -2.48304h 0.181345v 2.48304h 0.36269v 5.3216h 0.181345v -1.22293h 0.181345v -1.13226h 0.181345v
 -6.90565h 0.181345v 13.6562h 0.36269v -6.75054h 0.181345v 2.35519h 0.36269v 16.7851h 0.181345v -15.4557h 0.36269v 12.0464h 0.181345v -8.98049h 0.181345v -4.39535h 0.181345v 2.7856h 0.181345v 1.60975h 0.181345v 8.98049h 0.181345v -2.7856h 0.181345v
 -14.9856h 0.181345v 10.5902h 0.181345v 2.04016h 0.181345v -3.8397h 0.36269v 3.8397h 0.181345v -10.5902h 0.181345v 3.68459h 0.181345v 9.26084h 0.36269v -4.39535h 0.181345v -1.79955h 0.181345v 3.8397h 0.181345v -10.5902h 0.181345v 12.9454h 0.181345v
 6.19489h 0.181345v -8.55008h 0.36269v 5.14079h 0.181345v -5.14079h 0.181345v 2.35519h 0.181345v -7.80464h 0.181345v 7.80464h 0.181345v -7.80464h 0.181345v 10.5902h 0.181345v -2.7856h 0.181345v -4.39535h 0.181345v -1.79955h 0.181345v -3.06595h
 0.181345v 12.0464h 0.181345v -5.14079h 0.36269v -3.8397h 0.181345v 3.8397h 0.181345v -6.90565h 0.181345v 4.86549h 0.181345v -4.86549h 0.181345v 9.26084h 0.181345v 2.7856h 0.181345v -2.7856h 0.36269v 6.19489h 0.181345v -10.5902h 0.181345v 4.39535h
 0.181345v -9.26084h 0.181345v 6.90565h 0.181345v -5.44945h 0.181345v -1.4562h 0.181345v 3.06595h 0.181345v -3.06595h 0.181345v -1.3294h 0.181345v 6.19489h 0.181345v 4.39535h 0.181345v -4.39535h 0.181345v 2.04016h 0.181345v 2.35519h 0.181345v
 -9.26084h 0.181345v 1.4562h 0.181345v 3.4093h 0.181345v 10.5902h 0.181345v -16.7851h 0.181345v 8.23505h 0.181345v -2.04016h 0.181345v 4.39535h 0.181345v -4.39535h 0.181345v 2.04016h 0.181345v -5.44945h 0.36269v 10.5902h 0.181345v -13.3758h 0.36269v
 6.19489h 0.36269v -4.86549h 0.36269v 3.06595h 0.181345v -3.06595h 0.181345v 1.4562h 0.181345v 1.60975h 0.36269v -7.80464h 0.181345v 9.60419h 0.36269v -7.41783h 0.181345v 9.45798h 0.181345v -5.44945h 0.181345v 1.60975h 0.36269v -1.60975h 0.181345v
 7.80464h 0.181345v -6.19489h 0.181345v -6.75054h 0.181345v 6.75054h 0.181345v -3.06595h 0.181345v 4.86549h 0.181345v -4.86549h 0.181345v 1.4562h 0.181345v -4.00853h 0.181345v 5.61828h 0.181345v -4.39535h 0.181345v -1.22293h 0.181345v 1.22293h
 0.181345v 10.5902h 0.181345v -7.80464h 0.181345v 13.9995h 0.181345v -12.3898h 0.181345v -6.75054h 0.181345v 8.55008h 0.181345v -9.60419h 0.181345v 11.6443h 0.36269v 8.55008h 0.181345v -3.4093h 0.181345v -5.14079h 0.181345v -6.90565h 0.36269v
 9.26084h 0.181345v -4.39535h 0.36269v 4.39535h 0.181345v -6.19489h 0.181345v -1.60975h 0.181345v 1.60975h 0.544034v -5.61828h 0.181345v 11.8132h 0.181345v -9.26084h 0.181345v -1.3294h 0.181345v 10.5902h 0.181345v -9.26084h 0.181345v -2.55233h
 0.181345v 2.55233h 0.181345v -1.3294h 0.181345v 2.7856h 0.181345v -1.4562h 0.181345v 4.86549h 0.181345v 7.18095h 0.36269v -13.3758h 0.181345v 13.3758h 0.181345v -2.7856h 0.181345v -4.39535h 0.181345v -11.5165h 0.181345v 9.71695h 0.181345v -6.75054h
 0.181345v 10.5902h 0.181345v -8.23505h 0.181345v 6.19489h 0.181345v -10.5902h 0.181345v -1.79955h 0.181345v -1.60975h 0.181345v 7.80464h 0.181345v 1.3294h 0.181345v -8.35036h 0.181345v 8.35036h 0.181345v -5.72475h 0.181345v -4.86549h 0.181345v
 3.93924h 0.181345v -0.873294h 0.181345v 1.79955h 0.181345v 4.39535h 0.181345v -5.3216h 0.181345v -2.48304h 0.181345v 0.783684h 0.181345v -1.52912h 0.36269v 3.22848h 0.181345v -4.6184h 0.181345v 2.91904h 0.36269v 1.69936h 0.181345v -1.69936h
 0.181345v 1.69936h 0.181345v -0.873294h 0.181345v -1.60975h 0.181345v 6.58171h 0.181345v -4.97196h 0.181345v -3.06595h 0.181345v -0.679156h 0.181345v 2.91904h 0.181345v -7.96463h 0.181345v 13.7627h 0.181345v -1.13226h 0.181345v -6.19489h 0.181345v
 1.52912h 0.181345v 4.66577h 0.36269v -2.96641h 0.36269v 6.651h 0.181345v -3.68459h 0.181345v 10.5902h 0.181345v -11.6443h 0.181345v 11.6443h 0.181345v -2.04016h 0.181345v -3.4093h 0.181345v -1.4562h 0.181345v -3.68459h 0.181345v 5.14079h 0.181345v
 -2.7856h 0.181345v 6.19489h 0.181345v 2.04016h 0.181345v -8.23505h 0.181345v 27.3754h 0.181345v -19.1403h 0.181345v -6.90565h 0.181345v 4.86549h 0.36269v 7.18095h 0.36269v 3.4093h 0.181345v -3.4093h 0.181345v 3.4093h 0.181345v 10.5902h 0.181345v
 -21.1805h 0.181345v 10.5902h 0.181345v 4.39535h 0.181345v 27.3754h 0.181345v -35.18h 0.181345v 3.4093h 0.725379v 21.1805h 0.181345v -16.7851h 0.36269v 6.19489h 0.181345v -10.5902h 0.181345v -8.55008h 0.181345v 5.14079h 0.181345v 7.80464h 0.181345v
 16.7851h 0.181345v -16.7851h 0.181345v 16.7851h 0.181345v -27.3754h 0.181345v 16.7851h 0.181345v 10.5902h 1.08807v -10.5902h 0.181345v -10.5902h 0.181345v 21.1805h 0.181345v 10.5902h 0.181345v -10.5902h 0.36269v -10.5902h 0.181345v 10.5902h
 0.906724v -10.5902h 0.181345v 21.1805h 0.36269v -10.5902h 0.36269v -10.5902h 0.36269v 10.5902h 0.36269v 10.5902h 0.36269v -31.7707h 0.181345v 31.7707h 0.36269v -21.1805h 0.181345v 21.1805h 0.181345v -10.5902h 0.181345v -16.7851h 0.181345v 27.3754h
 0.181345v -10.5902h 0.181345v 10.5902h 0.181345v -10.5902h 0.181345v 10.5902h 0.181345v -10.5902h 0.181345v 10.5902h 0.181345v -10.5902h 0.544034v -10.5902h 0.36269v 10.5902h 0.181345v 10.5902h 0.181345v -10.5902h 0.181345v 10.5902h 0.181345v
 -10.5902h 0.36269v 10.5902h 0.725379v -10.5902h 0.544034v 10.5902h 0.181345v -21.1805h 0.181345v 21.1805h 0.36269v -21.1805h 0.181345v 10.5902h 0.181345v 10.5902h 0.181345v -10.5902h 0.181345v 10.5902h 0.725379v -10.5902h 0.181345v 10.5902h
 0.181345v -27.3754h 0.181345v 16.7851h 0.181345v 10.5902h 0.36269v -21.1805h 0.181345v 21.1805h 0.181345v -21.1805h 0.181345v 10.5902h 0.36269v 10.5902h 0.181345v -21.1805h 0.544034v 10.5902h 0.181345v 10.5902h 0.36269v -10.5902h 0.181345v -10.5902h
 0.181345v 10.5902h 0.181345v 10.5902h 0.36269v -31.7707h 0.181345v 21.1805h 0.36269v 10.5902h 0.181345v -10.5902h 0.181345v -16.7851h 0.181345v 6.19489h 0.181345v 10.5902h 0.181345v -16.7851h 0.36269v 16.7851h 0.181345v 10.5902h 0.181345v -35.18h
 0.181345v 35.18h 0.181345v -27.3754h 0.181345v 6.19489h 0.181345v 10.5902h 0.181345v 10.5902h 0.181345v -27.3754h 0.181345v 6.19489h 0.181345v 10.5902h 0.544034v -16.7851h 0.36269v 16.7851h 0.181345v -10.5902h 0.181345v 21.1805h 0.181345v -31.7707h
 0.181345v 10.5902h 0.544034v 10.5902h 0.181345v 10.5902h 0.36269v -21.1805h 0.181345v 21.1805h 0.181345v -21.1805h 0.181345v 21.1805h 0.181345v -10.5902h 0.181345v -10.5902h 0.181345v 21.1805h 0.544034v -10.5902h 0.181345v 10.5902h 0.181345v
 -10.5902h 0.544034v -10.5902h 0.181345v -6.19489h 0.181345v 16.7851h 0.181345v 10.5902h 0.544034v -10.5902h 0.36269v 10.5902h 0.181345v -21.1805h 0.181345v 21.1805h 0.181345v -10.5902h 0.181345v 10.5902h 0.36269v -10.5902h 0.725379v -10.5902h
 0.36269v 10.5902h 0.181345v 10.5902h 0.181345v -10.5902h 0.181345v 10.5902h 0.181345v -10.5902h 0.181345v -10.5902h 0.181345v 10.5902h 0.181345v -10.5902h 0.181345v 21.1805h 0.36269v -10.5902h 0.181345v 10.5902h 0.181345v -10.5902h 0.36269v 10.5902h
 0.36269v -27.3754h 0.181345v 27.3754h 0.36269v -10.5902h 0.181345v 10.5902h 0.181345v -10.5902h 0.181345v 10.5902h 0.181345v -21.1805h 0.181345v -6.19489h 0.181345v 27.3754h 0.36269v -10.5902h 0.181345v -10.5902h 0.181345v 10.5902h 0.181345v
 10.5902h 0.36269v -21.1805h 0.181345v 10.5902h 0.181345v -10.5902h 0.181345v 10.5902h 0.725379v 10.5902h 0.36269v -10.5902h 0.181345v 10.5902h 1.08807v -21.1805h 0.181345v 10.5902h 0.36269v 10.5902h 1.08807v -10.5902h 0.181345v -10.5902h 0.181345v
 -6.19489h 0.181345v 27.3754h 0.36269v -10.5902h 0.181345v 10.5902h 0.181345v -10.5902h 0.181345v 10.5902h 0.181345v -21.1805h 0.181345v 21.1805h 0.181345v -10.5902h 0.181345v 10.5902h 0.181345v -10.5902h 0.181345v 10.5902h 0.36269v -10.5902h
 0.36269v -10.5902h 0.36269v 10.5902h 0.181345v 10.5902h 0.181345v -21.1805h 0.725379v 21.1805h 0.36269v -10.5902h 0.181345v 10.5902h 0.36269v -10.5902h 0.36269v 10.5902h 0.181345v -10.5902h 0.544034v -10.5902h 0.181345v 10.5902h 0.181345v -10.5902h
 0.181345v -6.19489h 0.181345v 16.7851h 0.181345v 10.5902h 0.181345v -10.5902h 0.36269v 10.5902h 0.181345v -10.5902h 0.544034v -10.5902h 0.181345v 10.5902h 0.181345v 10.5902h 0.181345v -27.3754h 0.181345v 27.3754h 0.181345v -10.5902h 0.181345v
 10.5902h 0.544034v -10.5902h 0.181345v 10.5902h 0.36269v -10.5902h 0.181345v -10.5902h 0.181345v 21.1805h 0.181345v -27.3754h 0.181345v 27.3754h 0.181345v -10.5902h 0.36269v 10.5902h 0.181345v -21.1805h 0.181345v 21.1805h 0.544034v -10.5902h
 0.181345v 10.5902h 0.544034" fill="none" stroke="black"/>
<path d="M57.1929,280.151h 453.543" fill="none" stroke="black"/>
<path d="M57.1929,272.68v 7.47068" fill="none" stroke="black"/>
<path d="M75.3318,276.415v 3.73534" fill="none" stroke="black"/>
<path d="M93.4707,276.415v 3.73534" fill="none" stroke="black"/>
<path d="M111.61,276.415v 3.73534" fill="none" stroke="black"/>
<path d="M129.749,276.415v 3.73534" fill="none" stroke="black"/>
<path d="M147.887,272.68v 7.47068" fill="none" stroke="black"/>
<path d="M166.026,276.415v 3.73534" fill="none" stroke="black"/>
<path d="M184.165,276.415v 3.73534" fill="none" stroke="black"/>
<path d="M202.304,276.415v 3.73534" fill="none" stroke="black"/>
<path d="M220.443,276.415v 3.73534" fill="none" stroke="black"/>
<path d="M238.582,272.68v 7.47068" fill="none" stroke="black"/>
<path d="M256.721,276.415v 3.73534" fill="none" stroke="black"/>
<path d="M274.86,276.415v 3.73534" fill="none" stroke="black"/>
<path d="M292.999,276.415v 3.73534" fill="none" stroke="black"/>
<path d="M311.138,276.415v 3.73534" fill="none" stroke="black"/>
<path d="M329.277,272.68v 7.47068" fill="none" stroke="black"/>
<path d="M347.415,276.415v 3.73534" fill="none" stroke="black"/>
<path d="M365.554,276.415v 3.73534" fill="none" stroke="black"/>
<path d="M383.693,276.415v 3.73534" fill="none" stroke="black"/>
<path d="M401.832,276.415v 3.73534" fill="none" stroke="black"/>
<path d="M419.971,272.68v 7.47068" fill="none" stroke="black"/>
<path d="M438.11,276.415v 3.73534" fill="none" stroke="black"/>
<path d="M456.249,276.415v 3.73534" fill="none" stroke="black"/>
<path d="M474.388,276.415v 3.73534" fill="none" stroke="black"/>
<path d="M492.527,276.415v 3.73534" fill="none" stroke="black"/>
<path d="M510.666,272.68v 7.47068" fill="none" stroke="black"/>
<path d="M510.666,272.68v 7.47068" fill="none" stroke="black"/>
<text xml:space="preserve" x="54.3523" y="290.27" fill="black" font-size="10.4952" font-family="Helvetica">0</text>
<text xml:space="preserve" x="139.569" y="290.27" fill="black" font-size="10.4952" font-family="Helvetica">500</text>
<text xml:space="preserve" x="227.449" y="290.27" fill="black" font-size="10.4952" font-family="Helvetica">1000</text>
<text xml:space="preserve" x="318.288" y="290.27" fill="black" font-size="10.4952" font-family="Helvetica">1500</text>
<text xml:space="preserve" x="408.831" y="290.27" fill="black" font-size="10.4952" font-family="Helvetica">2000</text>
<text xml:space="preserve" x="499.67" y="290.27" fill="black" font-size="10.4952" font-family="Helvetica">2500</text>
<text xml:space="preserve" x="265.323" y="301.218" fill="black" font-size="10.4952" font-family="Helvetica">Channel</text>
<path d="M57.1929,280.151v -249.023" fill="none" stroke="black"/>
<path d="M63.9961,280.151h -6.80315" fill="none" stroke="black"/>
<path d="M63.9961,277.365h -6.80315" fill="none" stroke="black"/>
<path d="M63.9961,275.01h -6.80315" fill="none" stroke="black"/>
<path d="M63.9961,272.97h -6.80315" fill="none" stroke="black"/>
<path d="M63.9961,271.17h -6.80315" fill="none" stroke="black"/>
<path d="M70.7992,269.56h -13.6063" fill="none" stroke="black"/>
<text xml:space="preserve" x="49.0263" y="273.404" fill="black" font-size="10.4952" font-family="Helvetica">1</text>
<path d="M63.9961,258.97h -6.80315" fill="none" stroke="black"/>
<path d="M63.9961,252.775h -6.80315" fill="none" stroke="black"/>
<path d="M63.9961,248.38h -6.80315" fill="none" stroke="black"/>
<path d="M63.9961,244.971h -6.80315" fill="none" stroke="black"/>
<path d="M63.9961,242.185h -6.80315" fill="none" stroke="black"/>
<path d="M63.9961,239.83h -6.80315" fill="none" stroke="black"/>
<path d="M63.9961,237.79h -6.80315" fill="none" stroke="black"/>
<path d="M63.9961,235.99h -6.80315" fill="none" stroke="black"/>
<path d="M70.7992,234.38h -13.6063" fill="none" stroke="black"/>
<text xml:space="preserve" x="41.629" y="238.193" fill="black" font-size="10.4952" font-family="Helvetica">10</text>
<path d="M63.9961,223.79h -6.80315" fill="none" stroke="black"/>
<path d="M63.9961,217.595h -6.80315" fill="none" stroke="black"/>
<path d="M63.9961,213.2h -6.80315" fill="none" stroke="black"/>
<path d="M63.9961,209.79h -6.80315" fill="none" stroke="black"/>
<path d="M63.9961,207.005h -6.80315" fill="none" stroke="black"/>
<path d="M63.9961,204.65h -6.80315" fill="none" stroke="black"/>
<path d="M63.9961,202.61h -6.80315" fill="none" stroke="black"/>
<path d="M63.9961,200.81h -6.80315" fill="none" stroke="black"/>
<path d="M70.7992,199.2h -13.6063" fill="none" stroke="black"/>
<text xml:space="preserve" x="49.0263" y="199.431" fill="black" font-size="7.16345" font-family="Helvetica">2</text>
<text xml:space="preserve" x="38.0783" y="203.87" fill="black" font-size="10.4952" font-family="Helvetica">10</text>
<path d="M63.9961,188.61h -6.80315" fill="none" stroke="black"/>
<path d="M63.9961,182.415h -6.80315" fill="none" stroke="black"/>
<path d="M63.9961,178.02h -6.80315" fill="none" stroke="black"/>
<path d="M63.9961,174.61h -6.80315" fill="none" stroke="black"/>
<path d="M63.9961,171.825h -6.80315" fill="none" stroke="black"/>
<path d="M63.9961,169.47h -6.80315" fill="none" stroke="black"/>
<path d="M63.9961,167.43h -6.80315" fill="none" stroke="black"/>
<path d="M63.9961,165.63h -6.80315" fill="none" stroke="black"/>
<path d="M70.7992,164.02h -13.6063" fill="none" stroke="black"/>
<text xml:space="preserve" x="49.0263" y="163.924" fill="black" font-size="7.16345" font-family="Helvetica">3</text>
<text xml:space="preserve" x="38.0783" y="168.658" fill="black" font-size="10.4952" font-family="Helvetica">10</text>
<path d="M63.9961,153.43h -6.80315" fill="none" stroke="black"/>
<path d="M63.9961,147.235h -6.80315" fill="none" stroke="black"/>
<path d="M63.9961,142.84h -6.80315" fill="none" stroke="black"/>
<path d="M63.9961,139.43h -6.80315" fill="none" stroke="black"/>
<path d="M63.9961,136.645h -6.80315" fill="none" stroke="black"/>
<path d="M63.9961,134.29h -6.80315" fill="none" stroke="black"/>
<path d="M63.9961,132.25h -6.80315" fill="none" stroke="black"/>
<path d="M63.9961,130.45h -6.80315" fill="none" stroke="black"/>
<path d="M70.7992,128.84h -13.6063" fill="none" stroke="black"/>
<text xml:space="preserve" x="49.0263" y="129.009" fill="black" font-size="7.16345" font-family="Helvetica">4</text>
<text xml:space="preserve" x="38.0783" y="133.447" fill="black" font-size="10.4952" font-family="Helvetica">10</text>
<path d="M63.9961,118.25h -6.80315" fill="none" stroke="black"/>
<path d="M63.9961,112.055h -6.80315" fill="none" stroke="black"/>
<path d="M63.9961,107.66h -6.80315" fill="none" stroke="black"/>
<path d="M63.9961,104.25h -6.80315" fill="none" stroke="black"/>
<path d="M63.9961,101.465h -6.80315" fill="none" stroke="black"/>
<path d="M63.9961,99.1097h -6.80315" fill="none" stroke="black"/>
<path d="M63.9961,97.0695h -6.80315" fill="none" stroke="black"/>
<path d="M63.9961,95.27h -6.80315" fill="none" stroke="black"/>
<path d="M70.7992,93.6602h -13.6063" fill="none" stroke="black"/>
<text xml:space="preserve" x="49.0263" y="93.5019" fill="black" font-size="7.16345" font-family="Helvetica">5</text>
<text xml:space="preserve" x="38.0783" y="98.2362" fill="black" font-size="10.4952" font-family="Helvetica">10</text>
<path d="M63.9961,83.07h -6.80315" fill="none" stroke="black"/>
<path d="M63.9961,76.8751h -6.80315" fill="none" stroke="black"/>
<path d="M63.9961,72.4797h -6.80315" fill="none" stroke="black"/>
<path d="M63.9961,69.0704h -6.80315" fill="none" stroke="black"/>
<path d="M63.9961,66.2848h -6.80315" fill="none" stroke="black"/>
<path d="M63.9961,63.9296h -6.80315" fill="none" stroke="black"/>
<path d="M63.9961,61.8895h -6.80315" fill="none" stroke="black"/>
<path d="M63.9961,60.0899h -6.80315" fill="none" stroke="black"/>
<path d="M70.7992,58.4802h -13.6063" fill="none" stroke="black"/>
<text xml:space="preserve" x="49.0263" y="58.2907" fill="black" font-size="7.16345" font-family="Helvetica">6</text>
<text xml:space="preserve" x="38.0783" y="63.025" fill="black" font-size="10.4952" font-family="Helvetica">10</text>
<path d="M63.9961,47.8899h -6.80315" fill="none" stroke="black"/>
<path d="M63.9961,41.695h -6.80315" fill="none" stroke="black"/>
<path d="M63.9961,37.2997h -6.80315" fill="none" stroke="black"/>
<path d="M63.9961,33.8904h -6.80315" fill="none" stroke="black"/>
<g transform="rotate(-90,26.5385,191.442)">
<text xml:space="preserve" x="26.5385" y="191.442" fill="black" font-size="10.4952" font-family="Helvetica">Counts/Channel</text>
</g>
<text xml:space="preserve" x="404.097" y="58.2907" fill="black" font-size="14.7788" font-family="Helvetica" font-weight="bold"> = 2.4879 MeV</text>
<text xml:space="preserve" x="398.179" y="61.5455" fill="black" font-size="10.0192" font-family="Helvetica" font-weight="bold">p</text>
<text xml:space="preserve" x="389.006" y="58.2907" fill="black" font-size="14.7788" font-family="Helvetica" font-weight="bold">E</text>
<path d="M262.163,162.564v 26.4728" fill="none" stroke="black"/>
<path d="M264.454,189.037l -2.29122, 3.9685l -2.29122, -3.9685z" fill="black"/>
<path d="M264.454,189.037l -2.29122, 3.9685l -2.29122, -3.9685h 4.58243z" fill="none" stroke="black"/>
<text xml:space="preserve" x="266.803" y="160.373" fill="black" font-size="10.4952" font-family="Helvetica" font-weight="bold">_1 	1.369 MeV</text>
<text xml:space="preserve" x="260.293" y="160.373" fill="black" font-size="10.4952" font-family="Times">&#0945;</text>
<path d="M184.528,128.84v 31.2115" fill="none" stroke="black"/>
<path d="M186.819,160.052l -2.29122, 3.9685l -2.29122, -3.9685z" fill="black"/>
<path d="M186.819,160.052l -2.29122, 3.9685l -2.29122, -3.9685h 4.58243z" fill="none" stroke="black"/>
<text xml:space="preserve" x="172.117" y="126.05" fill="black" font-size="10.4952" font-family="Helvetica" font-weight="bold"># p_1 	0.844 MeV</text>
<path d="M210.104,147.235v 12.8166" fill="none" stroke="black"/>
<path d="M212.395,160.052l -2.29122, 3.9685l -2.29122, -3.9685z" fill="black"/>
<path d="M212.395,160.052l -2.29122, 3.9685l -2.29122, -3.9685h 4.58243z" fill="none" stroke="black"/>
<text xml:space="preserve" x="197.564" y="142.62" fill="black" font-size="10.4952" font-family="Helvetica" font-weight="bold"># p_2 	1.015 MeV</text>
<path d="M497.473,269.56h 13.1926" fill="none" stroke="black"/>
<path d="M504.069,258.97h 6.59632" fill="none" stroke="black"/>
<path d="M504.069,252.775h 6.59632" fill="none" stroke="black"/>
<path d="M504.069,248.38h 6.59632" fill="none" stroke="black"/>
<path d="M504.069,244.971h 6.59632" fill="none" stroke="black"/>
<path d="M504.069,242.185h 6.59632" fill="none" stroke="black"/>
<path d="M504.069,239.83h 6.59632" fill="none" stroke="black"/>
<path d="M504.069,237.79h 6.59632" fill="none" stroke="black"/>
<path d="M504.069,235.99h 6.59632" fill="none" stroke="black"/>
<path d="M497.473,234.38h 13.1926" fill="none" stroke="black"/>
<path d="M504.069,223.79h 6.59632" fill="none" stroke="black"/>
<path d="M504.069,217.595h 6.59632" fill="none" stroke="black"/>
<path d="M504.069,213.2h 6.59632" fill="none" stroke="black"/>
<path d="M504.069,209.79h 6.59632" fill="none" stroke="black"/>
<path d="M504.069,207.005h 6.59632" fill="none" stroke="black"/>
<path d="M504.069,204.65h 6.59632" fill="none" stroke="black"/>
<path d="M504.069,202.61h 6.59632" fill="none" stroke="black"/>
<path d="M504.069,200.81h 6.59632" fill="none" stroke="black"/>
<path d="M497.473,199.2h 13.1926" fill="none" stroke="black"/>
<path d="M504.069,188.61h 6.59632" fill="none" stroke="black"/>
<path d="M504.069,182.415h 6.59632" fill="none" stroke="black"/>
<path d="M504.069,178.02h 6.59632" fill="none" stroke="black"/>
<path d="M504.069,174.61h 6.59632" fill="none" stroke="black"/>
<path d="M504.069,171.825h 6.59632" fill="none" stroke="black"/>
<path d="M504.069,169.47h 6.59632" fill="none" stroke="black"/>
<path d="M504.069,167.43h 6.59632" fill="none" stroke="black"/>
<path d="M504.069,165.63h 6.59632" fill="none" stroke="black"/>
<path d="M497.473,164.02h 13.1926" fill="none" stroke="black"/>
<path d="M504.069,153.43h 6.59632" fill="none" stroke="black"/>
<path d="M504.069,147.235h 6.59632" fill="none" stroke="black"/>
<path d="M504.069,142.84h 6.59632" fill="none" stroke="black"/>
<path d="M504.069,139.43h 6.59632" fill="none" stroke="black"/>
<path d="M504.069,136.645h 6.59632" fill="none" stroke="black"/>
<path d="M504.069,134.29h 6.59632" fill="none" stroke="black"/>
<path d="M504.069,132.25h 6.59632" fill="none" stroke="black"/>
<path d="M504.069,130.45h 6.59632" fill="none" stroke="black"/>
<path d="M497.473,128.84h 13.1926" fill="none" stroke="black"/>
<path d="M504.069,118.25h 6.59632" fill="none" stroke="black"/>
<path d="M504.069,112.055h 6.59632" fill="none" stroke="black"/>
<path d="M504.069,107.66h 6.59632" fill="none" stroke="black"/>
<path d="M504.069,104.25h 6.59632" fill="none" stroke="black"/>
<path d="M504.069,101.465h 6.59632" fill="none" stroke="black"/>
<path d="M504.069,99.1097h 6.59632" fill="none" stroke="black"/>
<path d="M504.069,97.0695h 6.59632" fill="none" stroke="black"/>
<path d="M504.069,95.27h 6.59632" fill="none" stroke="black"/>
<path d="M497.473,93.6602h 13.1926" fill="none" stroke="black"/>
<path d="M504.069,83.07h 6.59632" fill="none" stroke="black"/>
<path d="M504.069,76.8751h 6.59632" fill="none" stroke="black"/>
<path d="M504.069,72.4797h 6.59632" fill="none" stroke="black"/>
<path d="M504.069,69.0704h 6.59632" fill="none" stroke="black"/>
<path d="M504.069,66.2848h 6.59632" fill="none" stroke="black"/>
<path d="M504.069,63.9296h 6.59632" fill="none" stroke="black"/>
<path d="M504.069,61.8895h 6.59632" fill="none" stroke="black"/>
<path d="M504.069,60.0899h 6.59632" fill="none" stroke="black"/>
<path d="M497.473,58.4802h 13.1926" fill="none" stroke="black"/>
<path d="M504.069,47.8899h 6.59632" fill="none" stroke="black"/>
<path d="M504.069,41.695h 6.59632" fill="none" stroke="black"/>
<path d="M504.069,37.2997h 6.59632" fill="none" stroke="black"/>
<path d="M504.069,33.8904h 6.59632" fill="none" stroke="black"/>
<path d="M504.069,31.1048h 6.59632" fill="none" stroke="black"/>
<path d="M504.069,28.7496h 6.59632" fill="none" stroke="black"/>
<path d="M57.1929,35.578v -7.46952" fill="none" stroke="black"/>
<path d="M75.3318,35.578v -7.46952" fill="none" stroke="black"/>
<path d="M93.4707,35.578v -7.46952" fill="none" stroke="black"/>
<path d="M111.61,35.578v -7.46952" fill="none" stroke="black"/>
<path d="M129.749,35.578v -7.46952" fill="none" stroke="black"/>
<path d="M147.887,35.578v -7.46952" fill="none" stroke="black"/>
<path d="M166.026,35.578v -7.46952" fill="none" stroke="black"/>
<path d="M184.165,35.578v -7.46952" fill="none" stroke="black"/>
<path d="M202.304,35.578v -7.46952" fill="none" stroke="black"/>
<path d="M220.443,35.578v -7.46952" fill="none" stroke="black"/>
<path d="M238.582,35.578v -7.46952" fill="none" stroke="black"/>
<path d="M256.721,35.578v -7.46952" fill="none" stroke="black"/>
<path d="M274.86,35.578v -7.46952" fill="none" stroke="black"/>
<path d="M292.999,35.578v -7.46952" fill="none" stroke="black"/>
<path d="M311.138,35.578v -7.46952" fill="none" stroke="black"/>
<path d="M329.277,35.578v -7.46952" fill="none" stroke="black"/>
<path d="M347.415,35.578v -7.46952" fill="none" stroke="black"/>
<path d="M365.554,35.578v -7.46952" fill="none" stroke="black"/>
<path d="M383.693,35.578v -7.46952" fill="none" stroke="black"/>
<path d="M401.832,35.578v -7.46952" fill="none" stroke="black"/>
<path d="M419.971,35.578v -7.46952" fill="none" stroke="black"/>
<path d="M438.11,35.578v -7.46952" fill="none" stroke="black"/>
<path d="M456.249,35.578v -7.46952" fill="none" stroke="black"/>
<path d="M474.388,35.578v -7.46952" fill="none" stroke="black"/>
<path d="M492.527,35.578v -7.46952" fill="none" stroke="black"/>
<path d="M510.666,35.578v -7.46952" fill="none" stroke="black"/></svg>
