<?xml version="1.0" standalone="no"?>
<svg width="567.429" height="311.778" viewBox="0 0 567.429 311.778" xmlns="http://www.w3.org/2000/svg" shape-rendering="crispEdges">
<title>
Yields/P1/run_0097/det0_Fit.svg
</title>
<desc>
Creator: ROOT Version 6.12/06
CreationDate: Mon Apr 15 10:29:01 2019</desc>
<defs>
</defs>
<rect x="0.5" y="0" width="566.929" height="311.278" fill="white"/>
<rect x="57.1929" y="31.1278" width="453.543" height="249.023" fill="white"/>
<rect x="57.1929" y="31.1278" width="453.543" height="249.023" fill="none" stroke="black"/>
<path d="M57.1929,40.5093h 0.181345v 239.641h 4.35227v -10.1751h 0.181345v 10.1751h 4.89631v -10.1751h 0.181345v 10.1751h 8.34186v -10.1751h 0.181345v 10.1751h 1.08807v -10.1751h 0.181345v 10.1751h 2.17614v -10.1751h 0.181345v 10.1751h 0.544034v
 -10.1751h 0.181345v 10.1751h 0.544034v -10.1751h 0.181345v 10.1751h 0.544034v -10.1751h 0.181345v 10.1751h 0.36269v -20.3503h 0.181345v 20.3503h 0.544034v -10.1751h 0.181345v 10.1751h 0.544034v -10.1751h 0.181345v 10.1751h 0.36269v -10.1751h
 0.181345v 10.1751h 0.544034v -10.1751h 0.181345v 10.1751h 0.36269v -10.1751h 0.181345v 10.1751h 1.08807v -20.3503h 0.36269v -5.95208h 0.181345v 26.3024h 0.725379v -10.1751h 0.181345v 10.1751h 0.36269v -10.1751h 0.181345v -10.1751h 0.36269v -16.1272h
 0.36269v -7.49873h 0.181345v -16.6086h 0.181345v -15.6459h 0.181345v -9.92842h 0.181345v -11.7839h 0.181345v -6.49921h 0.181345v -3.48893h 0.181345v -3.24552h 0.181345v -1.35379h 0.181345v -1.50256h 0.181345v -2.00514h 0.181345v 0.317587h 0.181345v
 -0.713058h 0.181345v -1.3588h 0.181345v -0.537983h 0.181345v -0.447222h 0.181345v -0.0179677h 0.181345v -0.346045h 0.181345v 0.283331h 0.181345v -0.993705h 0.181345v -0.371238h 0.181345v -0.0325491h 0.181345v 0.0570083h 0.181345v 0.213705h 0.181345v
 -0.860208h 0.181345v 0.86849h 0.181345v -0.584664h 0.181345v -0.737435h 0.181345v 0.298268h 0.181345v 0.583164h 0.181345v -0.590888h 0.181345v -0.403668h 0.181345v -0.326888h 0.181345v 0.80798h 0.181345v -0.00776084h 0.181345v -0.0928114h 0.181345v
 -0.145762h 0.181345v -0.272273h 0.181345v -0.0970928h 0.181345v 0.43823h 0.181345v 0.00767161h 0.181345v -0.190598h 0.181345v -0.351759h 0.181345v 0.404877h 0.181345v -0.412271h 0.181345v 0.542079h 0.181345v 0.396456h 0.181345v -0.472952h 0.181345v
 0.28505h 0.181345v 0.0701816h 0.181345v -0.0624002h 0.181345v 1.02336h 0.181345v -0.636925h 0.181345v 0.661982h 0.181345v -0.149709h 0.181345v 0.799204h 0.181345v -0.216837h 0.181345v -0.145641h 0.181345v 0.266675h 0.181345v -0.495058h 0.181345v
 -0.282629h 0.181345v 0.198936h 0.181345v -1.75958h 0.181345v -1.10479h 0.181345v -2.7244h 0.181345v -2.97374h 0.181345v -2.92883h 0.181345v -2.92981h 0.181345v -3.71036h 0.181345v -3.47189h 0.181345v -2.60183h 0.181345v -2.08044h 0.181345v -1.81694h
 0.181345v -0.979203h 0.181345v -0.696806h 0.181345v 0.164464h 0.181345v 0.869981h 0.181345v 1.22642h 0.181345v 2.00544h 0.181345v 2.87532h 0.181345v 2.81778h 0.181345v 3.72819h 0.181345v 4.24912h 0.181345v 4.1772h 0.181345v 3.62005h 0.181345v
 4.94816h 0.181345v 2.07475h 0.181345v 4.02002h 0.181345v 1.45434h 0.181345v 0.606056h 0.181345v 1.73868h 0.181345v -0.378185h 0.181345v 0.0850995h 0.181345v 1.13522h 0.181345v -0.183269h 0.36269v 0.824073h 0.181345v 0.252601h 0.181345v -0.386837h
 0.181345v -0.834821h 0.181345v 0.892201h 0.181345v -0.563947h 0.181345v -0.543081h 0.181345v 1.28053h 0.181345v 0.038835h 0.181345v 1.27906h 0.181345v -0.944749h 0.181345v 0.505895h 0.181345v 0.144832h 0.181345v -0.828664h 0.181345v 0.257718h
 0.181345v 0.426114h 0.181345v 0.0412349h 0.181345v 0.741018h 0.181345v -0.554014h 0.181345v -1.01h 0.181345v 1.13601h 0.181345v 0.255304h 0.181345v 0.237995h 0.181345v 0.420395h 0.181345v -0.65839h 0.181345v -0.630124h 0.181345v 1.15445h 0.181345v
 -0.567188h 0.181345v 0.215564h 0.181345v 2.04731h 0.181345v -1.38095h 0.181345v 2.04484h 0.181345v -1.08228h 0.181345v 1.03013h 0.181345v -1.10274h 0.181345v -1.00313h 0.181345v 2.15802h 0.36269v 0.104855h 0.181345v -0.843448h 0.181345v 1.79436h
 0.181345v -1.89338h 0.181345v 1.18117h 0.181345v -0.0799982h 0.181345v -0.902456h 0.181345v 2.09297h 0.181345v -0.813406h 0.181345v 0.415097h 0.181345v -0.8453h 0.181345v 0.430203h 0.181345v -0.189767h 0.181345v 0.299317h 0.181345v 0.531827h
 0.181345v -0.0284765h 0.181345v -0.612901h 0.181345v 1.13413h 0.181345v -0.406986h 0.181345v 0.886363h 0.181345v -1.88385h 0.181345v 1.40448h 0.181345v 0.358057h 0.181345v -1.35512h 0.181345v 2.13036h 0.181345v 0.617838h 0.181345v -1.5732h 0.181345v
 -0.14843h 0.181345v 0.976968h 0.181345v -0.49661h 0.181345v -0.421166h 0.181345v -0.695023h 0.181345v 1.89971h 0.181345v -0.87479h 0.181345v -0.359519h 0.181345v 0.728065h 0.181345v 0.897724h 0.181345v -0.39148h 0.181345v 0.39148h 0.181345v
 0.402207h 0.181345v 1.05654h 0.181345v -1.35923h 0.181345v -0.0664238h 0.181345v -1.39008h 0.181345v 0.773605h 0.181345v 0.12765h 0.181345v 0.455723h 0.181345v -2.14908h 0.181345v -0.751538h 0.181345v -1.27277h 0.181345v 0.480513h 0.181345v
 -1.67464h 0.181345v -0.628582h 0.181345v -0.853707h 0.181345v -0.0414094h 0.181345v -0.246033h 0.181345v -1.43235h 0.181345v 0.449411h 0.181345v 0.21067h 0.181345v 0.292238h 0.181345v 0.218067h 0.181345v 0.632577h 0.181345v -0.186476h 0.181345v
 1.40324h 0.181345v 1.37648h 0.181345v 0.150049h 0.181345v 1.61945h 0.181345v -0.604864h 0.181345v 1.80327h 0.181345v 2.05622h 0.181345v -0.414511h 0.181345v -0.169317h 0.181345v 0.444353h 0.181345v -0.511537h 0.181345v 0.686089h 0.181345v 0.682896h
 0.181345v -0.822703h 0.181345v 1.46187h 0.181345v -0.639163h 0.181345v 0.222423h 0.181345v -0.657407h 0.181345v -0.28299h 0.181345v 0.49887h 0.36269v -1.44846h 0.181345v 1.0904h 0.181345v 1.72459h 0.181345v -0.0397284h 0.181345v -0.959794h 0.181345v
 0.149412h 0.181345v -1.15477h 0.181345v 0.458225h 0.181345v 0.621646h 0.181345v -0.621646h 0.181345v 0.659047h 0.181345v 0.150562h 0.181345v 0.228778h 0.181345v -0.0383781h 0.181345v 0.909123h 0.181345v -1.87328h 0.181345v 1.43146h 0.181345v
 0.730077h 0.181345v -2.96466h 0.181345v 0.695847h 0.181345v 0.918925h 0.181345v -1.44388h 0.181345v -0.671954h 0.181345v 1.52113h 0.181345v -1.38918h 0.181345v 0.643501h 0.181345v -2.27276h 0.181345v 0.698439h 0.181345v 1.23213h 0.181345v -1.20099h
 0.181345v -0.550551h 0.181345v 0.181232h 0.181345v -0.151182h 0.181345v 0.582967h 0.181345v -1.31637h 0.181345v 0.976045h 0.181345v 0.371656h 0.181345v 1.0397h 0.181345v 0.0674926h 0.181345v -1.07579h 0.181345v 1.91088h 0.181345v -1.33387h 0.181345v
 0.806406h 0.181345v 1.99477h 0.181345v -1.39552h 0.181345v 0.587263h 0.181345v -0.766067h 0.181345v 0.916629h 0.181345v 1.59719h 0.181345v -0.740306h 0.181345v 0.201924h 0.181345v 0.328969h 0.181345v -2.01726h 0.181345v 0.441526h 0.181345v 1.00479h
 0.181345v 0.48801h 0.181345v 0.547654h 0.181345v -0.630124h 0.181345v -0.204171h 0.181345v -0.596007h 0.181345v -0.535254h 0.181345v -0.186529h 0.181345v 1.11642h 0.181345v -0.15913h 0.181345v 0.441828h 0.181345v -0.755005h 0.181345v 0.755005h
 0.181345v -1.21259h 0.181345v 1.54248h 0.181345v -0.0416444h 0.181345v 1.0336h 0.181345v -1.11653h 0.181345v 0.0414094h 0.181345v 0.208818h 0.181345v -0.250227h 0.181345v -0.882648h 0.181345v -1.69002h 0.181345v 1.49661h 0.181345v 2.46278h 0.181345v
 -2.95403h 0.181345v 1.40283h 0.181345v -0.0408335h 0.181345v 0.45554h 0.181345v -0.45554h 0.181345v -0.909123h 0.181345v 0.0768569h 0.181345v -0.969058h 0.181345v 1.6795h 0.181345v -1.6795h 0.181345v 0.0361123h 0.181345v 1.76521h 0.181345v
 -0.755005h 0.181345v -0.53248h 0.181345v -0.799583h 0.181345v 1.13967h 0.181345v 0.270066h 0.181345v -0.154932h 0.181345v 0.350924h 0.181345v -0.427781h 0.181345v 0.0768569h 0.181345v -0.787602h 0.181345v 1.29723h 0.181345v -1.1135h 0.181345v
 2.62474h 0.181345v -0.858702h 0.181345v -2.23902h 0.181345v -0.177937h 0.181345v -0.245543h 0.181345v 2.78815h 0.181345v -1.92861h 0.181345v 0.185586h 0.181345v -0.405235h 0.181345v -0.358933h 0.181345v 0.250329h 0.181345v 0.626327h 0.181345v
 0.227596h 0.181345v -1.38521h 0.181345v 1.53892h 0.181345v -0.115437h 0.181345v -0.114536h 0.181345v -1.48186h 0.181345v 2.50552h 0.181345v 0.0408335h 0.181345v -1.84216h 0.181345v 0.664016h 0.181345v 0.538057h 0.181345v -0.538057h 0.181345v
 1.21909h 0.181345v -0.798002h 0.181345v 1.55529h 0.181345v -0.879784h 0.181345v -0.401108h 0.181345v 2.12504h 0.181345v -0.626665h 0.181345v -1.85023h 0.181345v 2.4769h 0.181345v -1.10094h 0.181345v -0.335549h 0.181345v -0.123879h 0.181345v 0.08247h
 0.181345v 1.20604h 0.181345v -0.310927h 0.181345v -1.26264h 0.181345v 0.617747h 0.181345v 1.13649h 0.181345v -0.135714h 0.181345v 0.0903364h 0.181345v 1.03222h 0.181345v 0.0975394h 0.181345v -0.855366h 0.181345v 0.0462351h 0.181345v 0.422802h
 0.181345v -0.329893h 0.181345v 0.234879h 0.181345v 1.49413h 0.181345v -1.72901h 0.181345v 1.36653h 0.181345v 0.5737h 0.181345v -0.624759h 0.181345v -0.302683h 0.181345v -0.345419h 0.181345v 1.54124h 0.181345v -1.44337h 0.181345v -0.195081h 0.181345v
 1.31699h 0.181345v 0.159852h 0.181345v -0.422464h 0.181345v -0.511537h 0.181345v 1.93149h 0.181345v -1.41995h 0.181345v 0.530008h 0.181345v -0.373005h 0.181345v 0.811235h 0.181345v -0.0554996h 0.181345v -1.42428h 0.181345v 2.04663h 0.181345v
 -1.32538h 0.181345v 3.63649h 0.181345v -3.89817h 0.181345v 0.0519633h 0.181345v 0.104482h 0.181345v 3.67423h 0.181345v -3.46301h 0.181345v 1.62962h 0.181345v -0.410236h 0.181345v -0.286162h 0.181345v -0.056569h 0.181345v 0.170365h 0.181345v
 -0.282853h 0.181345v -0.870158h 0.181345v 1.79517h 0.181345v -0.642154h 0.181345v 0.40538h 0.181345v 0.356608h 0.181345v -0.356608h 0.181345v 0.599252h 0.181345v -1.61987h 0.181345v 1.68116h 0.181345v 0.436369h 0.181345v 0.255304h 0.181345v
 -0.38131h 0.181345v -0.432694h 0.181345v -0.181606h 0.181345v -1.4319h 0.181345v 1.9836h 0.181345v -1.70817h 0.181345v 1.89678h 0.181345v -1.61609h 0.181345v -1.19678h 0.181345v 1.36781h 0.181345v -0.171027h 0.181345v -0.446563h 0.181345v 1.50395h
 0.181345v 2.30354h 0.181345v -3.13245h 0.181345v 0.467916h 0.181345v 1.36943h 0.181345v -0.76275h 0.181345v -0.665994h 0.181345v -0.52329h 0.181345v 1.82212h 0.181345v -1.99249h 0.181345v 2.18779h 0.181345v -1.19515h 0.181345v 0.68002h 0.181345v
 -0.188606h 0.181345v -0.966909h 0.181345v 0.35517h 0.181345v -0.872314h 0.181345v 2.18779h 0.181345v -1.37527h 0.181345v -0.527468h 0.181345v -0.28505h 0.181345v 0.575745h 0.181345v 1.41674h 0.181345v -2.70871h 0.181345v 1.11686h 0.181345v 0.471675h
 0.181345v 0.927443h 0.181345v -0.253103h 0.181345v -1.31906h 0.181345v 0.406986h 0.181345v -0.175806h 0.181345v -0.173725h 0.181345v 0.115588h 0.181345v -0.0579079h 0.181345v 0.649908h 0.181345v 0.36701h 0.181345v 1.77554h 0.181345v -1.33543h
 0.181345v -2.7295h 0.36269v 2.92224h 0.181345v -2.21661h 0.181345v 0.167769h 0.181345v -0.551931h 0.181345v 2.40804h 0.181345v -2.67641h 0.181345v 0.377112h 0.181345v -1.00187h 0.181345v -1.2688h 0.181345v 0.669545h 0.181345v 0.197045h 0.181345v
 -0.343112h 0.181345v -1.07403h 0.181345v -1.16807h 0.181345v -0.165406h 0.181345v -0.564671h 0.181345v 1.1092h 0.181345v -0.869851h 0.181345v 0.574137h 0.181345v 0.38131h 0.181345v -0.0855957h 0.181345v 0.214932h 0.181345v -0.55241h 0.181345v
 0.252378h 0.181345v 0.739575h 0.181345v -0.568879h 0.181345v -0.955447h 0.181345v 1.39108h 0.181345v 0.22276h 0.181345v -0.70125h 0.181345v 1.48496h 0.181345v -1.65516h 0.181345v 2.48309h 0.181345v -1.33979h 0.181345v -0.973103h 0.181345v
 -0.0853469h 0.181345v 0.786597h 0.181345v 0.595511h 0.181345v 0.37885h 0.181345v -2.13899h 0.181345v 1.34531h 0.181345v -1.67336h 0.181345v -0.478726h 0.181345v -2.21795h 0.181345v -0.530247h 0.181345v -1.86222h 0.181345v -1.7035h 0.181345v
 -1.91224h 0.181345v -0.332383h 0.181345v -3.38916h 0.181345v -0.943052h 0.181345v -2.27685h 0.181345v -1.71193h 0.181345v -0.536971h 0.181345v -1.26231h 0.181345v -1.4141h 0.181345v -0.825188h 0.181345v -1.01216h 0.181345v 0.257778h 0.181345v
 -0.22249h 0.181345v 0.0619581h 0.181345v -0.393814h 0.181345v 0.384947h 0.181345v 0.440917h 0.181345v 0.962634h 0.181345v 1.21977h 0.181345v 0.66121h 0.181345v 1.76509h 0.181345v 0.86262h 0.181345v 2.54177h 0.181345v 1.59755h 0.181345v 1.45901h
 0.181345v 2.42231h 0.181345v 0.441701h 0.181345v 3.47167h 0.181345v 0.641667h 0.181345v 3.71153h 0.181345v 0.161761h 0.181345v 1.72393h 0.181345v 1.69475h 0.181345v 1.1195h 0.181345v 2.40202h 0.181345v -2.29081h 0.181345v 2.82226h 0.181345v
 0.0678044h 0.181345v -2.26287h 0.181345v 1.40494h 0.181345v 0.655449h 0.181345v 0.686089h 0.181345v 1.01781h 0.181345v -1.08788h 0.181345v 0.353743h 0.181345v 1.90913h 0.181345v -0.0813278h 0.36269v -2.04107h 0.181345v 3.22283h 0.181345v -2.27543h
 0.181345v -0.734134h 0.181345v 1.58649h 0.181345v -0.624759h 0.181345v 0.23118h 0.181345v 0.0778762h 0.181345v -0.760773h 0.181345v 1.56314h 0.181345v 0.76165h 0.181345v -3.73738h 0.181345v 2.6495h 0.181345v 0.575745h 0.181345v -0.656182h 0.181345v
 0.740306h 0.181345v -0.167769h 0.181345v -1.20064h 0.181345v 2.4174h 0.181345v -1.54665h 0.181345v -0.402207h 0.181345v 1.94886h 0.181345v -2.79674h 0.181345v 1.16876h 0.181345v -0.161316h 0.181345v -1.15647h 0.181345v 2.49955h 0.181345v -2.49955h
 0.181345v 2.94577h 0.181345v -1.70886h 0.181345v 0.326227h 0.181345v 0.84877h 0.181345v -0.430518h 0.181345v 2.49091h 0.181345v -0.687466h 0.181345v -2.30394h 0.181345v 1.55577h 0.181345v -1.63755h 0.181345v 0.497662h 0.181345v 2.17875h 0.181345v
 -2.51239h 0.181345v 1.56499h 0.181345v -1.23135h 0.181345v 2.98331h 0.181345v -3.31696h 0.181345v -1.4141h 0.181345v 7.325h 0.181345v -5.8282h 0.181345v 0.678948h 0.181345v 1.55631h 0.181345v 0.194435h 0.181345v -0.0975394h 0.181345v 0.394108h
 0.181345v 0.100203h 0.181345v -3.31583h 0.181345v 2.82152h 0.181345v -0.66521h 0.181345v -0.900873h 0.181345v 0.264505h 0.181345v 2.10067h 0.181345v -0.203887h 0.181345v -0.497662h 0.181345v -0.290695h 0.181345v 0.48774h 0.181345v -0.39148h
 0.181345v -1.89971h 0.181345v 1.9966h 0.181345v -2.16533h 0.181345v 2.16533h 0.181345v -0.383803h 0.181345v 1.28591h 0.181345v 0.742089h 0.181345v -0.638345h 0.181345v -2.21819h 0.181345v 2.32267h 0.181345v 2.26287h 0.181345v -2.05165h 0.181345v
 -1.70535h 0.181345v 1.08059h 0.181345v 0.624759h 0.181345v -1.22401h 0.181345v -0.481342h 0.181345v -0.466059h 0.181345v -0.803341h 0.181345v 0.17476h 0.181345v -3.91214h 0.181345v -1.654h 0.181345v -0.238698h 0.181345v -0.637086h 0.181345v
 -1.96019h 0.181345v -2.03439h 0.181345v -2.08915h 0.181345v -2.72626h 0.181345v -3.05001h 0.181345v -1.75986h 0.181345v -0.678821h 0.181345v -2.43912h 0.181345v -2.16937h 0.181345v -1.98557h 0.181345v -1.3182h 0.181345v -1.1057h 0.181345v 0.162979h
 0.181345v -1.77317h 0.181345v -0.50976h 0.181345v -0.159454h 0.181345v 0.0695483h 0.181345v -0.633471h 0.181345v 0.11491h 0.181345v 0.340384h 0.181345v 0.0492771h 0.181345v 0.687128h 0.181345v 1.86151h 0.181345v 0.722094h 0.181345v 0.56588h
 0.181345v 1.46851h 0.181345v 2.08215h 0.181345v 2.00926h 0.181345v 0.788486h 0.181345v 2.16769h 0.181345v 1.77488h 0.181345v 3.09586h 0.181345v 0.552787h 0.181345v 4.32281h 0.181345v 1.44813h 0.181345v 2.3367h 0.181345v 2.99061h 0.181345v 2.04107h
 0.181345v 1.90237h 0.181345v -1.40751h 0.181345v 5.66138h 0.181345v -1.52196h 0.181345v 1.52196h 0.181345v 1.6982h 0.181345v -0.938743h 0.181345v 2.70242h 0.181345v -2.03807h 0.181345v 5.15839h 0.181345v -1.29338h 0.181345v 1.29338h 0.181345v
 -1.81461h 0.181345v 3.23305h 0.181345v -0.211221h 0.181345v 1.31547h 0.181345v -3.81608h 0.181345v 0.912071h 0.181345v -1.2616h 0.181345v 2.23412h 0.181345v -1.15952h 0.181345v 0.76275h 0.181345v -0.575745h 0.181345v 2.23154h 0.181345v -2.96568h
 0.181345v 2.11444h 0.181345v 0.419446h 0.181345v -1.98676h 0.181345v 1.362h 0.181345v -2.60829h 0.181345v 0.171693h 0.181345v -0.675044h 0.181345v 3.11164h 0.181345v -1.175h 0.181345v 1.58853h 0.181345v -4.78872h 0.181345v 3.5815h 0.181345v
 -0.191893h 0.181345v 2.94577h 0.181345v -2.94577h 0.181345v -0.561073h 0.181345v -0.362478h 0.36269v -0.527468h 0.181345v 1.83735h 0.181345v -3.62381h 0.181345v 4.22307h 0.181345v 1.72901h 0.181345v -1.10425h 0.181345v -3.23305h 0.181345v 2.20609h
 0.181345v -2.3758h 0.181345v 0.169709h 0.181345v 0.699162h 0.181345v -0.527468h 0.181345v 0.889947h 0.181345v 3.50684h 0.181345v -1.75488h 0.181345v -1.93432h 0.181345v 0.935324h 0.181345v -1.81461h 0.181345v -0.503351h 0.181345v -0.957706h 0.36269v
 2.16022h 0.181345v -1.68917h 0.181345v 1.51124h 0.181345v -3.02594h 0.181345v -1.24127h 0.181345v 6.76782h 0.181345v -4.01184h 0.181345v 1.16171h 0.181345v -1.63275h 0.181345v 2.16022h 0.181345v -1.03664h 0.181345v 1.77077h 0.181345v -0.912071h
 0.181345v -0.349531h 0.181345v -0.171693h 0.181345v 2.20609h 0.181345v -2.54356h 0.181345v -0.329893h 0.181345v 3.48098h 0.181345v -2.29238h 0.181345v 0.177937h 0.181345v -1.36653h 0.181345v 4.77708h 0.181345v -3.23043h 0.181345v 0.554014h 0.181345v
 -0.187004h 0.181345v -0.54713h 0.181345v 2.53389h 0.181345v -1.22401h 0.181345v 0.804564h 0.181345v -2.81361h 0.181345v 1.24629h 0.181345v 0.187004h 0.181345v 1.38031h 0.181345v -2.11444h 0.181345v 5.33851h 0.181345v -1.92796h 0.181345v -6.89948h
 0.181345v 6.89948h 0.181345v -4.10971h 0.181345v 3.66484h 0.181345v -1.6558h 0.181345v 2.32826h 0.181345v -2.5227h 0.181345v -1.98432h 0.181345v 6.20738h 0.181345v -5.51645h 0.181345v 2.08707h 0.181345v -1.175h 0.181345v 1.79976h 0.181345v 0.876656h
 0.181345v -3.04807h 0.181345v -1.06164h 0.181345v 3.23305h 0.36269v 0.876656h 0.181345v -3.04807h 0.181345v 1.14445h 0.181345v 4.62527h 0.181345v -5.39806h 0.181345v 2.23154h 0.181345v -0.643006h 0.181345v -1.77554h 0.181345v -0.725067h 0.181345v
 3.36436h 0.181345v -1.87655h 0.181345v 0.197045h 0.181345v 1.6795h 0.181345v -1.07198h 0.181345v -2.29238h 0.181345v 3.81608h 0.181345v 1.19412h 0.181345v -6.83714h 0.181345v 2.00488h 0.181345v 0.734134h 0.181345v 0.575745h 0.181345v 2.32826h
 0.181345v 0.704757h 0.181345v 0.489366h 0.181345v -2.29838h 0.181345v 0.876656h 0.181345v -1.90362h 0.181345v 0.402207h 0.181345v 3.95371h 0.181345v -4.15619h 0.36269v 0.82724h 0.181345v 1.80901h 0.181345v -1.80901h 0.181345v -0.82724h 0.181345v
 -0.396771h 0.181345v 2.10067h 0.181345v 3.27566h 0.181345v -2.10067h 0.181345v -0.716221h 0.181345v 0.716221h 0.181345v 2.10067h 0.181345v -2.34331h 0.36269v 0.99561h 0.181345v 1.3477h 0.181345v -2.10067h 0.181345v -3.07862h 0.181345v 2.83597h
 0.181345v 2.62836h 0.36269v 1.83735h 0.181345v -2.1224h 0.181345v -1.3477h 0.181345v 4.48289h 0.181345v 1.08788h 0.181345v -3.93801h 0.181345v -2.38572h 0.181345v 4.55296h 0.181345v -2.73191h 0.181345v 0.27962h 0.181345v -0.27962h 0.181345v 3.06939h
 0.181345v -2.21402h 0.181345v 1.22401h 0.181345v 0.990013h 0.181345v 1.81461h 0.181345v -4.884h 0.181345v 2.73191h 0.181345v 0.337478h 0.181345v -1.91746h 0.181345v 5.36481h 0.181345v -4.75307h 0.181345v 3.5118h 0.181345v -1.50692h 0.181345v
 4.58554h 0.181345v -1.39912h 0.181345v -3.18643h 0.181345v 1.11544h 0.181345v 0.39148h 0.181345v 2.13122h 0.181345v -0.451716h 0.181345v -2.82395h 0.181345v 2.82395h 0.181345v -0.863757h 0.181345v 2.76054h 0.181345v 2.778h 0.181345v -3.75701h
 0.181345v 1.49413h 0.181345v -1.96019h 0.181345v -5.00467h 0.181345v 5.95208h 0.36269v -0.481342h 0.181345v -0.466059h 0.36269v 2.49405h 0.181345v 2.35377h 0.181345v 2.80462h 0.181345v -6.20738h 0.181345v 2.17875h 0.181345v 8.51152h 0.181345v
 -8.51152h 0.36269v 8.51152h 0.181345v -3.6892h 0.181345v -5.95208h 0.181345v -1.54665h 0.181345v 2.67641h 0.181345v 4.02863h 0.181345v 2.5227h 0.181345v -3.27566h 0.181345v 2.38572h 0.181345v -7.325h 0.181345v -1.96019h 0.181345v 6.18326h 0.36269v
 -3.6892h 0.181345v 5.15839h 0.181345v 5.57077h 0.181345v -9.5994h 0.181345v 3.27566h 0.181345v 3.27566h 0.181345v -8.21495h 0.181345v 2.88763h 0.181345v -1.22401h 0.181345v -1.12976h 0.181345v 6.79114h 0.181345v 0.889947h 0.181345v -5.32732h
 0.181345v -1.22401h 0.36269v 1.22401h 0.36269v 3.59831h 0.181345v -11.7218h 0.181345v 5.76972h 0.181345v -1.54665h 0.181345v -1.83735h 0.181345v 1.35601h 0.181345v -2.98876h 0.181345v -1.46919h 0.181345v -5.95208h 0.181345v 10.41h 0.181345v
 -6.72082h 0.181345v 2.61662h 0.181345v -1.36653h 0.181345v 1.36653h 0.36269v -4.3123h 0.181345v 2.62313h 0.181345v 0.322642h 0.181345v -1.54665h 0.181345v 1.87655h 0.181345v 0.337478h 0.181345v 1.06164h 0.181345v -0.716221h 0.181345v 0.353743h
 0.181345v 1.11544h 0.181345v 1.63275h 0.36269v 6.39031h 0.181345v -7.22937h 0.36269v 6.57684h 0.181345v -0.624759h 0.181345v -3.75701h 0.181345v 9.70908h 0.181345v 0.947401h 0.36269v 1.01279h 0.181345v -4.48289h 0.181345v -2.15208h 0.181345v
 -1.87655h 0.181345v 1.87655h 0.181345v 2.15208h 0.36269v -1.46919h 0.181345v -1.33543h 0.181345v 2.80462h 0.181345v -6.20738h 0.181345v -0.979004h 0.36269v -3.74172h 0.181345v -2.05165h 0.181345v -2.07938h 0.181345v -2.30239h 0.181345v -0.466059h
 0.181345v -3.99189h 0.181345v -1.65113h 0.181345v 1.47741h 0.181345v -1.78647h 0.181345v -2.6509h 0.181345v -2.46211h 0.181345v -0.107544h 0.181345v -3.16812h 0.181345v -1.39912h 0.181345v -0.913017h 0.181345v -0.859541h 0.181345v -0.811984h
 0.181345v 0.604738h 0.181345v -1.31155h 0.181345v -1.14601h 0.181345v -1.74834h 0.181345v -0.947401h 0.181345v 0.541019h 0.181345v -0.199049h 0.181345v 1.23691h 0.181345v -1.57888h 0.181345v -0.521786h 0.181345v -0.638345h 0.181345v 1.8017h
 0.181345v -0.44713h 0.181345v -0.575745h 0.181345v 0.141833h 0.181345v -2.60498h 0.181345v 0.818018h 0.181345v 0.0843659h 0.181345v 0.256046h 0.181345v -1.78153h 0.181345v -0.634288h 0.181345v 0.596209h 0.181345v -0.522994h 0.181345v -1.59794h
 0.181345v 0.265702h 0.181345v -0.751291h 0.181345v 0.192312h 0.181345v -2.1286h 0.181345v 1.80947h 0.181345v -0.49661h 0.181345v 0.687257h 0.181345v -0.37885h 0.181345v 0.156668h 0.181345v 1.49076h 0.181345v -0.581109h 0.181345v -0.84651h 0.181345v
 1.88805h 0.181345v 2.33501h 0.181345v -0.374819h 0.181345v 0.332697h 0.181345v 2.71853h 0.181345v 1.21301h 0.181345v 2.06265h 0.181345v -0.86014h 0.181345v 4.3429h 0.181345v 1.16831h 0.181345v 1.2694h 0.181345v 2.8096h 0.181345v 1.44506h 0.181345v
 3.24406h 0.181345v -1.92068h 0.181345v 6.73423h 0.181345v 0.22075h 0.181345v 4.67478h 0.181345v -1.45462h 0.181345v 3.41481h 0.181345v -3.95856h 0.181345v 7.49873h 0.181345v -2.82395h 0.181345v 2.38572h 0.181345v 7.0732h 0.181345v -4.73819h
 0.181345v 15.6296h 0.181345v -11.5743h 0.181345v 0.682896h 0.181345v 3.99189h 0.36269v 0.947401h 0.36269v 5.95208h 0.181345v -3.85141h 0.181345v 2.45229h 0.181345v -4.55296h 0.181345v -0.947401h 0.181345v 6.89948h 0.181345v -2.67641h 0.181345v
 2.67641h 0.181345v 1.54665h 0.181345v -2.94577h 0.181345v 4.67478h 0.181345v -4.67478h 0.181345v 2.94577h 0.181345v 5.95208h 0.181345v -11.3501h 0.181345v 11.3501h 0.181345v -7.49873h 0.181345v 1.54665h 0.36269v -1.54665h 0.181345v 1.54665h 0.36269v
 5.95208h 0.36269v 2.67641h 0.181345v -4.93929h 0.181345v 4.93929h 0.181345v -10.1751h 0.181345v 17.6739h 0.181345v 5.95208h 0.181345v -20.3503h 0.181345v 30.5254h 0.181345v -30.5254h 0.181345v 4.22307h 0.181345v 2.67641h 0.181345v -4.93929h
 0.181345v 12.438h 0.181345v -16.1272h 0.181345v 8.62849h 0.181345v -2.67641h 0.181345v -2.26287h 0.181345v 2.26287h 0.36269v 2.67641h 0.181345v 3.27566h 0.181345v -3.27566h 0.181345v 3.27566h 0.181345v -8.21495h 0.181345v 2.26287h 0.181345v 10.1751h
 0.181345v -12.438h 0.181345v 8.21495h 0.181345v -11.9042h 0.181345v 3.6892h 0.36269v -5.23585h 0.181345v 1.54665h 0.181345v 16.1272h 0.181345v -17.6739h 0.181345v 7.49873h 0.181345v -13.4508h 0.181345v 9.22774h 0.181345v 14.3982h 0.181345v -4.22307h
 0.181345v -16.1272h 0.181345v 5.95208h 0.36269v 6.89948h 0.181345v -11.5743h 0.181345v -2.45229h 0.181345v 11.3501h 0.181345v -15.2882h 0.181345v 6.39031h 0.181345v -1.27729h 0.181345v -2.26287h 0.181345v -5.95208h 0.181345v 5.95208h 0.181345v
 -2.85014h 0.181345v 0.889947h 0.181345v -4.67478h 0.181345v -1.87655h 0.181345v 1.22401h 0.181345v 2.05165h 0.181345v -11.2368h 0.181345v 2.60829h 0.181345v 6.57684h 0.181345v -3.90042h 0.181345v 3.90042h 0.181345v -1.22401h 0.181345v -7.26196h
 0.181345v 3.18643h 0.181345v 2.41191h 0.36269v -1.49413h 0.181345v 0.481342h 0.181345v 1.54665h 0.181345v -2.49405h 0.181345v 0.466059h 0.181345v 2.58201h 0.181345v -3.49978h 0.181345v 6.63497h 0.181345v -2.55944h 0.181345v 2.55944h 0.181345v
 3.10194h 0.36269v -2.38572h 0.181345v 4.22307h 0.36269v 1.01279h 0.181345v 3.54017h 0.181345v -3.54017h 0.181345v 3.54017h 0.181345v 1.39912h 0.181345v -5.95208h 0.181345v 2.10067h 0.181345v 14.0266h 0.181345v -12.8516h 0.181345v 2.67641h 0.181345v
 5.23585h 0.181345v 8.21495h 0.181345v -8.21495h 0.36269v 4.93929h 0.181345v 7.49873h 0.181345v 5.95208h 0.181345v -5.95208h 0.181345v -10.1751h 0.181345v 10.1751h 0.181345v -4.22307h 0.181345v -8.21495h 0.181345v 8.21495h 0.181345v 4.22307h
 0.181345v -12.438h 0.36269v -1.96019h 0.181345v 14.3982h 0.181345v -10.1751h 0.181345v -10.1751h 0.181345v 1.27729h 0.181345v 14.8499h 0.181345v -3.27566h 0.181345v 13.4508h 0.181345v -22.0793h 0.181345v 11.9042h 0.181345v 4.22307h 0.181345v
 5.95208h 0.181345v -5.95208h 0.181345v 16.1272h 0.181345v -20.3503h 0.181345v -11.9042h 0.181345v 5.95208h 0.181345v 16.1272h 0.181345v -5.95208h 0.181345v -20.3503h 0.181345v 10.1751h 0.181345v 2.67641h 0.181345v -14.0266h 0.181345v 14.0266h
 0.181345v -2.67641h 0.181345v -2.26287h 0.181345v 4.93929h 0.181345v -4.93929h 0.181345v -1.96019h 0.181345v 14.3982h 0.181345v -14.3982h 0.181345v 1.96019h 0.181345v -1.96019h 0.725379v 1.96019h 0.36269v 4.93929h 0.181345v -4.93929h 0.181345v
 -6.63497h 0.181345v 2.94577h 0.181345v 1.72901h 0.181345v -4.67478h 0.181345v 19.073h 0.181345v -20.3503h 0.181345v 4.22307h 0.36269v -1.54665h 0.181345v -4.93929h 0.181345v -3.6892h 0.181345v 2.67641h 0.181345v 9.22774h 0.181345v -8.21495h
 0.181345v -1.96019h 0.181345v 4.22307h 0.181345v -5.95208h 0.181345v 4.77708h 0.181345v -7.03995h 0.181345v 5.95208h 0.181345v -2.85014h 0.181345v -0.839064h 0.181345v 10.1751h 0.181345v -1.54665h 0.181345v -3.85141h 0.181345v 3.85141h 0.181345v
 -6.89948h 0.181345v 4.22307h 0.181345v 7.91227h 0.181345v -7.91227h 0.36269v -1.175h 0.181345v 2.45229h 0.181345v -1.27729h 0.181345v -2.26287h 0.36269v 1.08788h 0.181345v 1.175h 0.36269v 4.22307h 0.181345v -5.39806h 0.181345v 11.3501h 0.181345v
 -12.438h 0.181345v 6.48594h 0.181345v 3.6892h 0.181345v -5.23585h 0.181345v -1.39912h 0.181345v -1.27729h 0.181345v 1.27729h 0.181345v 1.39912h 0.181345v -1.39912h 0.181345v 8.89785h 0.181345v -10.1751h 0.181345v 4.22307h 0.181345v 5.95208h
 0.181345v -5.95208h 0.181345v -4.22307h 0.181345v 12.8516h 0.181345v -15.1144h 0.181345v -1.01279h 0.181345v 9.22774h 0.36269v 14.3982h 0.181345v -12.438h 0.181345v -6.63497h 0.181345v 1.39912h 0.181345v -3.85141h 0.181345v -1.08788h 0.36269v
 10.1751h 0.181345v -3.6892h 0.181345v -2.94577h 0.36269v 2.94577h 0.181345v -7.49873h 0.181345v 5.95208h 0.181345v 3.27566h 0.181345v -7.12707h 0.181345v -7.72285h 0.181345v 2.15208h 0.181345v 5.57077h 0.181345v -3.93801h 0.181345v 1.83735h
 0.181345v 1.01279h 0.181345v 2.26287h 0.181345v 1.27729h 0.181345v -3.54017h 0.181345v 1.08788h 0.181345v 2.45229h 0.181345v 1.39912h 0.181345v -2.67641h 0.181345v -10.7744h 0.181345v 9.5994h 0.181345v -2.10067h 0.181345v -1.83735h 0.181345v
 0.889947h 0.181345v -1.72901h 0.181345v 2.67641h 0.181345v -5.62218h 0.181345v 7.72285h 0.181345v -4.77708h 0.181345v 3.6892h 0.36269v -5.23585h 0.181345v 3.27566h 0.181345v -3.99189h 0.36269v 3.10194h 0.181345v -5.66138h 0.181345v 4.82232h
 0.181345v 2.67641h 0.181345v -5.62218h 0.181345v 2.15208h 0.36269v -0.752966h 0.181345v 8.77602h 0.181345v -8.77602h 0.181345v 4.22307h 0.181345v -1.83735h 0.181345v -5.66138h 0.181345v 5.66138h 0.181345v -6.23713h 0.181345v 0.575745h 0.181345v
 0.599252h 0.181345v 3.42938h 0.181345v -2.80462h 0.36269v 2.05165h 0.181345v -2.67641h 0.36269v -4.22307h 0.181345v 4.84782h 0.544034v -4.84782h 0.181345v 10.1751h 0.181345v -8.21495h 0.181345v -1.49413h 0.181345v 9.70908h 0.181345v -3.27566h
 0.181345v -0.716221h 0.181345v -2.55944h 0.181345v -4.51376h 0.181345v 5.11301h 0.181345v -1.175h 0.181345v 3.85141h 0.181345v -6.89948h 0.181345v 2.49405h 0.181345v -0.533863h 0.181345v 8.21495h 0.181345v -5.95208h 0.181345v -4.22307h 0.181345v
 5.50036h 0.181345v -4.0553h 0.181345v 4.0553h 0.181345v -2.45229h 0.181345v -4.36354h 0.181345v 3.27566h 0.181345v -1.01279h 0.181345v 2.67641h 0.36269v -3.62381h 0.181345v 1.96019h 0.181345v 1.08788h 0.181345v -1.08788h 0.36269v 4.22307h 0.181345v
 -2.55944h 0.181345v -1.66362h 0.181345v -3.6892h 0.181345v 6.57684h 0.181345v -1.22401h 0.181345v -0.575745h 0.181345v 0.575745h 0.181345v -0.575745h 0.181345v -1.603h 0.181345v -3.57628h 0.181345v 4.09141h 0.181345v -3.27566h 0.36269v 0.863757h
 0.181345v -1.27729h 0.36269v 1.27729h 0.181345v -3.88559h 0.181345v 0.699162h 0.181345v -0.353743h 0.181345v 4.45794h 0.36269v -3.74172h 0.181345v 0.371656h 0.181345v -0.734134h 0.181345v 3.63814h 0.181345v -3.99189h 0.181345v 0.353743h 0.181345v
 -2.61662h 0.181345v -0.296568h 0.181345v 0.296568h 0.181345v 2.61662h 0.181345v -2.61662h 0.181345v 3.73206h 0.181345v -1.11544h 0.181345v -2.00488h 0.181345v -2.30743h 0.181345v 2.62313h 0.181345v -0.927443h 0.181345v 2.9791h 0.181345v -5.19911h
 0.36269v 1.06808h 0.181345v -2.30239h 0.181345v 2.30239h 0.181345v 0.27962h 0.181345v -3.04807h 0.181345v 6.537h 0.181345v -2.00488h 0.181345v -3.82736h 0.181345v 2.34331h 0.181345v 3.85141h 0.181345v -2.36736h 0.181345v 0.315703h 0.181345v
 -2.07938h 0.181345v 5.67768h 0.181345v -7.74137h 0.181345v 7.33917h 0.181345v -1.50692h 0.181345v 0.734134h 0.181345v 1.58853h 0.181345v -3.02183h 0.181345v -2.50472h 0.181345v 0.587263h 0.181345v 1.91746h 0.181345v -1.30572h 0.181345v 1.30572h
 0.181345v 4.80336h 0.181345v 0.481342h 0.181345v -3.4701h 0.181345v -1.46919h 0.181345v -0.345419h 0.181345v 2.20609h 0.181345v -1.86067h 0.181345v 6.48594h 0.181345v 0.554014h 0.181345v -4.77708h 0.181345v 5.95208h 0.181345v 1.96019h 0.181345v
 -6.18326h 0.181345v 4.84782h 0.181345v -7.37052h 0.181345v 8.70595h 0.181345v -6.18326h 0.181345v 1.44506h 0.181345v 3.40276h 0.181345v 3.59831h 0.181345v -8.44613h 0.181345v 2.49405h 0.181345v -0.533863h 0.181345v 2.26287h 0.181345v -2.778h
 0.181345v 0.515127h 0.181345v 2.88763h 0.181345v -3.40276h 0.181345v 8.73008h 0.181345v -8.73008h 0.181345v 1.603h 0.181345v -1.08788h 0.36269v 0.533863h 0.181345v -3.384h 0.181345v -1.63275h 0.181345v 8.02306h 0.181345v -3.54017h 0.181345v 2.26287h
 0.181345v 0.624759h 0.181345v -4.84782h 0.36269v 5.50036h 0.181345v -5.95208h 0.181345v 0.451716h 0.181345v 4.22307h 0.181345v 2.67641h 0.181345v -3.27566h 0.181345v -4.93929h 0.181345v 7.49873h 0.181345v -4.73819h 0.181345v -1.44506h 0.181345v
 -1.31547h 0.181345v 5.53854h 0.181345v 3.42938h 0.181345v -8.54239h 0.181345v 0.889947h 0.181345v 2.49405h 0.181345v 2.35377h 0.181345v -2.35377h 0.36269v -2.028h 0.181345v 2.028h 0.181345v 5.15839h 0.181345v -6.70504h 0.181345v 4.55296h 0.36269v
 -3.54017h 0.181345v 1.66362h 0.181345v -3.15775h 0.181345v 1.49413h 0.181345v -1.96019h 0.181345v -0.451716h 0.181345v 11.5743h 0.181345v -6.27472h 0.181345v -1.79976h 0.181345v -0.554014h 0.181345v -3.384h 0.181345v 8.54239h 0.181345v -9.38145h
 0.181345v 5.35282h 0.181345v -3.62381h 0.181345v 6.18326h 0.181345v -1.33543h 0.181345v -6.57684h 0.181345v 4.77708h 0.181345v -1.08788h 0.181345v -0.515127h 0.181345v -0.497662h 0.181345v -2.26287h 0.181345v 1.78153h 0.181345v -2.19507h 0.181345v
 3.17407h 0.181345v -0.979004h 0.181345v -5.14084h 0.181345v 8.89785h 0.181345v -7.12707h 0.181345v 3.37007h 0.181345v -5.79338h 0.181345v 10.1751h 0.181345v -6.97904h 0.181345v 3.57628h 0.181345v -2.33501h 0.181345v -2.38572h 0.181345v 7.49873h
 0.181345v -7.12707h 0.181345v 2.45229h 0.181345v -2.82395h 0.181345v 4.22307h 0.181345v 2.10067h 0.181345v -3.04807h 0.181345v -1.72901h 0.181345v 4.77708h 0.181345v -3.49978h 0.181345v -3.54017h 0.181345v 5.95208h 0.181345v -1.96019h 0.181345v
 -1.31547h 0.181345v 6.1633h 0.181345v -6.1633h 0.181345v 4.36354h 0.181345v -4.77708h 0.181345v -1.175h 0.181345v -0.371656h 0.181345v 5.23585h 0.181345v -4.48289h 0.181345v 2.5227h 0.181345v -1.31547h 0.181345v 4.93929h 0.181345v -1.12976h
 0.181345v -4.62527h 0.181345v 2.13122h 0.36269v -2.13122h 0.181345v 5.17929h 0.181345v -4.77708h 0.181345v -0.793687h 0.181345v 2.07098h 0.181345v 1.39912h 0.181345v -1.39912h 0.181345v 2.41191h 0.181345v -1.01279h 0.181345v -4.22307h 0.181345v
 0.371656h 0.181345v -0.734134h 0.181345v -1.36653h 0.181345v 5.00467h 0.181345v -2.90401h 0.181345v 1.58853h 0.181345v -1.20722h 0.181345v 6.14651h 0.181345v -2.17875h 0.181345v -6.77238h 0.181345v 1.68917h 0.181345v -1.36653h 0.181345v 0.667371h
 0.181345v 0.699162h 0.181345v 1.50692h 0.181345v 3.07862h 0.181345v -3.4701h 0.181345v -1.46919h 0.181345v 0.716221h 0.181345v -3.27566h 0.181345v 0.908308h 0.181345v 0.638345h 0.181345v 1.72901h 0.181345v -1.06164h 0.181345v -3.06939h 0.181345v
 7.40669h 0.181345v -5.64302h 0.181345v -3.08706h 0.181345v 6.20738h 0.181345v -4.31933h 0.181345v -1.63275h 0.181345v 1.92345h 0.181345v 1.87655h 0.181345v -2.45229h 0.181345v 2.1224h 0.181345v 0.329893h 0.181345v 1.39912h 0.181345v -2.05165h
 0.181345v 2.05165h 0.181345v 1.96019h 0.181345v -3.6892h 0.181345v 2.10067h 0.181345v 0.77279h 0.181345v -1.50692h 0.181345v 3.18643h 0.181345v 0.917775h 0.181345v -6.41814h 0.181345v 4.22307h 0.181345v -0.793687h 0.181345v -1.81461h 0.181345v
 4.80336h 0.181345v -1.35601h 0.181345v 2.85014h 0.36269v 1.66362h 0.181345v -0.575745h 0.181345v 3.13519h 0.181345v -6.63497h 0.181345v 5.95208h 0.181345v -5.95208h 0.181345v 3.49978h 0.181345v 2.45229h 0.181345v -5.95208h 0.181345v 0.451716h
 0.181345v 1.96019h 0.181345v -2.41191h 0.181345v 1.89678h 0.181345v 0.515127h 0.181345v -1.49413h 0.181345v 4.38177h 0.181345v -2.35377h 0.181345v -0.533863h 0.181345v 2.26287h 0.181345v -2.26287h 0.181345v -0.515127h 0.181345v -1.44506h 0.36269v
 -0.889947h 0.181345v 1.35601h 0.181345v -2.59728h 0.181345v 7.63158h 0.181345v -1.87655h 0.36269v -1.66362h 0.181345v -5.59833h 0.181345v 3.18643h 0.181345v -2.07098h 0.181345v 1.20722h 0.181345v -0.413538h 0.181345v 2.67641h 0.181345v 1.01279h
 0.181345v -5.23585h 0.181345v 4.22307h 0.181345v -3.4701h 0.181345v -0.38131h 0.181345v 4.8642h 0.181345v -2.41191h 0.544034v -3.54017h 0.181345v 4.93929h 0.181345v -0.481342h 0.181345v 0.979004h 0.181345v -6.11984h 0.181345v 6.63497h 0.181345v
 -2.41191h 0.181345v 6.63497h 0.36269v -1.96019h 0.181345v -4.67478h 0.181345v -2.82395h 0.181345v 8.12349h 0.181345v -0.624759h 0.181345v -1.72901h 0.181345v 1.72901h 0.181345v 1.96019h 0.181345v 0.716221h 0.181345v 1.54665h 0.181345v 1.72901h
 0.181345v -2.5227h 0.181345v -1.46919h 0.181345v 3.10194h 0.181345v -9.73691h 0.181345v 9.73691h 0.181345v -4.43737h 0.181345v 4.43737h 0.181345v -1.63275h 0.181345v 1.63275h 0.181345v -0.839064h 0.181345v 0.839064h 0.181345v 6.39031h 0.36269v
 -6.39031h 0.181345v -1.63275h 0.181345v 0.793687h 0.181345v 7.22937h 0.181345v -8.02306h 0.181345v 10.9688h 0.181345v -2.94577h 0.181345v -1.27729h 0.544034v -3.27566h 0.181345v 2.10067h 0.181345v -4.77708h 0.181345v 5.95208h 0.181345v 4.22307h
 0.181345v -8.44613h 0.181345v 4.22307h 0.181345v -3.27566h 0.181345v 7.49873h 0.181345v -4.22307h 0.181345v -4.22307h 0.181345v 3.04807h 0.181345v 1.175h 0.181345v -2.26287h 0.181345v -2.85014h 0.181345v 1.83735h 0.181345v -0.947401h 0.181345v
 -0.889947h 0.181345v -3.78483h 0.181345v 3.78483h 0.181345v -3.78483h 0.181345v 3.78483h 0.181345v -1.63275h 0.181345v 12.6978h 0.181345v -8.21495h 0.181345v -4.48289h 0.181345v -1.46919h 0.181345v 9.49224h 0.181345v -4.55296h 0.181345v -4.93929h
 0.181345v -0.682896h 0.181345v 4.67478h 0.181345v 0.947401h 0.36269v 2.10067h 0.181345v -6.32373h 0.181345v 8.77602h 0.181345v 2.94577h 0.181345v -14.9975h 0.181345v 1.87655h 0.181345v -0.652535h 0.181345v 2.05165h 0.181345v 1.54665h 0.181345v
 -0.793687h 0.181345v -2.80462h 0.181345v 12.2268h 0.181345v -9.42218h 0.181345v 1.63275h 0.36269v 5.11301h 0.181345v -1.175h 0.181345v -10.1751h 0.181345v 3.13519h 0.181345v 2.26287h 0.181345v -5.39806h 0.181345v 9.08726h 0.181345v 3.54017h
 0.181345v -4.55296h 0.181345v 2.10067h 0.181345v -4.77708h 0.181345v -4.22307h 0.181345v 4.22307h 0.181345v 4.77708h 0.181345v -3.93801h 0.181345v -2.38572h 0.181345v 0.752966h 0.181345v 9.42218h 0.181345v -5.95208h 0.181345v 1.01279h 0.181345v
 -7.91227h 0.181345v 12.8516h 0.181345v -9.42218h 0.181345v -0.752966h 0.181345v 2.38572h 0.181345v 7.78942h 0.36269v -2.67641h 0.181345v -2.26287h 0.181345v -3.6892h 0.181345v 1.72901h 0.181345v -0.889947h 0.181345v 2.85014h 0.181345v -4.48289h
 0.181345v -3.42938h 0.181345v 6.89948h 0.181345v 1.01279h 0.181345v -1.96019h 0.181345v 3.04807h 0.36269v -3.04807h 0.181345v -0.889947h 0.181345v 1.83735h 0.181345v -6.27472h 0.181345v 3.59831h 0.181345v 4.77708h 0.181345v 1.175h 0.181345v
 -8.21495h 0.181345v 2.26287h 0.181345v -0.793687h 0.181345v 1.63275h 0.181345v -4.43737h 0.181345v 4.43737h 0.181345v -3.78483h 0.181345v 6.63497h 0.181345v -1.96019h 0.36269v -2.5227h 0.181345v 3.4701h 0.181345v -6.27472h 0.181345v 0.652535h
 0.181345v 0.682896h 0.181345v -0.682896h 0.181345v 1.39912h 0.181345v 6.32373h 0.181345v -7.72285h 0.181345v 3.78483h 0.181345v -3.78483h 0.36269v -1.87655h 0.181345v 5.66138h 0.181345v -3.10194h 0.181345v -1.33543h 0.544034v -2.88763h 0.181345v
 1.66362h 0.181345v -0.575745h 0.181345v 0.575745h 0.181345v 2.55944h 0.181345v -5.23585h 0.181345v -1.39912h 0.36269v 1.89678h 0.181345v 1.04899h 0.181345v -2.49405h 0.181345v -0.451716h 0.181345v 0.451716h 0.181345v 1.96019h 0.181345v -0.515127h
 0.181345v -1.89678h 0.181345v 2.94577h 0.181345v 1.12976h 0.181345v -3.62381h 0.181345v -0.451716h 0.181345v -2.45229h 0.181345v -2.10067h 0.181345v 0.329893h 0.181345v 1.03664h 0.181345v 0.362478h 0.181345v -1.06164h 0.181345v -0.990013h 0.181345v
 0.322642h 0.181345v 3.6892h 0.181345v 2.26287h 0.181345v -2.26287h 0.181345v -1.96019h 0.181345v 1.14445h 0.181345v -2.87346h 0.181345v 1.36653h 0.181345v -1.68917h 0.181345v 6.77238h 0.181345v -1.89678h 0.181345v -2.82395h 0.181345v 1.14445h
 0.181345v 3.57628h 0.181345v 1.04899h 0.181345v 3.00631h 0.181345v -6.81583h 0.36269v 3.27566h 0.181345v -1.01279h 0.181345v 3.90042h 0.181345v -7.37052h 0.181345v 8.02306h 0.181345v -1.87655h 0.181345v 9.5994h 0.181345v -12.2758h 0.181345v 8.33779h
 0.181345v -8.81914h 0.181345v 10.6565h 0.181345v -0.947401h 0.181345v 0.947401h 0.181345v 2.10067h 0.181345v -3.93801h 0.181345v 0.889947h 0.181345v -0.889947h 0.181345v 7.78942h 0.181345v -2.67641h 0.181345v 7.91227h 0.181345v -5.23585h 0.181345v
 5.23585h 0.181345v -3.6892h 0.181345v 3.6892h 0.181345v 4.93929h 0.181345v -2.67641h 0.181345v 2.67641h 0.181345v 3.27566h 0.181345v -16.1272h 0.181345v 10.1751h 0.181345v 5.95208h 0.36269v -10.1751h 0.181345v 6.89948h 0.181345v -2.67641h 0.181345v
 5.95208h 0.181345v -5.95208h 0.181345v 10.1751h 0.181345v 5.95208h 0.181345v -13.4508h 0.36269v 13.4508h 0.181345v 20.3503h 0.181345v -10.1751h 0.181345v -16.1272h 0.181345v 5.95208h 0.181345v 10.1751h 0.181345v -10.1751h 0.181345v -5.95208h
 0.181345v 16.1272h 0.181345v -23.6259h 0.181345v 13.4508h 0.181345v 10.1751h 0.181345v -16.1272h 0.181345v 16.1272h 0.181345v -20.3503h 0.544034v 4.22307h 0.181345v 5.95208h 0.36269v -10.1751h 0.181345v 20.3503h 0.181345v -16.1272h 0.36269v 16.1272h
 0.181345v -10.1751h 0.181345v 10.1751h 0.36269v -10.1751h 0.181345v -13.4508h 0.181345v 7.49873h 0.181345v 16.1272h 0.181345v -10.1751h 0.181345v 10.1751h 0.181345v -20.3503h 0.181345v 20.3503h 0.181345v -16.1272h 0.181345v 5.95208h 0.181345v
 10.1751h 0.181345v -10.1751h 0.181345v 20.3503h 0.544034v -10.1751h 0.181345v -10.1751h 0.181345v 10.1751h 0.181345v -16.1272h 0.181345v 5.95208h 0.181345v -5.95208h 0.181345v -4.22307h 0.181345v 30.5254h 0.36269v -30.5254h 0.181345v 20.3503h
 0.36269v -10.1751h 0.181345v 20.3503h 0.181345v -20.3503h 0.181345v 10.1751h 0.36269v -10.1751h 0.181345v 20.3503h 0.36269v -10.1751h 0.181345v 10.1751h 0.181345v -20.3503h 0.181345v -13.4508h 0.181345v 7.49873h 0.181345v 16.1272h 0.36269v 10.1751h
 0.36269v -10.1751h 0.36269v 10.1751h 0.181345v -10.1751h 0.36269v -23.6259h 0.181345v 33.8011h 0.181345v -26.3024h 0.181345v 5.95208h 0.36269v 10.1751h 0.544034v 10.1751h 0.181345v -20.3503h 0.181345v -5.95208h 0.36269v 5.95208h 0.181345v 10.1751h
 0.181345v 10.1751h 0.181345v -10.1751h 0.181345v 10.1751h 0.181345v -30.5254h 0.181345v 20.3503h 0.36269v 10.1751h 0.181345v -33.8011h 0.181345v 23.6259h 0.36269v -16.1272h 0.181345v 16.1272h 0.181345v -10.1751h 0.181345v 10.1751h 0.181345v
 -20.3503h 0.181345v 30.5254h 0.181345v -30.5254h 0.181345v 4.22307h 0.181345v 16.1272h 0.181345v -16.1272h 0.181345v 26.3024h 0.544034v -10.1751h 0.181345v -10.1751h 0.181345v 10.1751h 0.181345v -16.1272h 0.181345v 16.1272h 0.181345v -10.1751h
 0.181345v 10.1751h 0.181345v -10.1751h 0.544034v -10.1751h 0.36269v 30.5254h 0.181345v -26.3024h 0.181345v 16.1272h 0.36269v -16.1272h 0.181345v 5.95208h 0.181345v 10.1751h 0.181345v -10.1751h 0.36269v -5.95208h 0.181345v 5.95208h 0.181345v 20.3503h
 0.36269v -26.3024h 0.36269v 16.1272h 0.181345v 10.1751h 0.181345v -30.5254h 0.181345v 10.1751h 0.181345v 10.1751h 0.181345v 10.1751h 0.544034v -20.3503h 0.181345v 20.3503h 0.181345v -10.1751h 0.36269v 10.1751h 0.36269v -10.1751h 0.36269v -10.1751h
 0.181345v 20.3503h 0.181345v -10.1751h 0.181345v 10.1751h 0.181345v -20.3503h 0.181345v 20.3503h 0.181345v -10.1751h 0.544034v 10.1751h 0.181345v -10.1751h 0.36269v -10.1751h 0.181345v 10.1751h 0.181345v -10.1751h 0.181345v 20.3503h 0.181345v
 -10.1751h 0.181345v 10.1751h 0.544034v -10.1751h 0.181345v -10.1751h 0.36269v 10.1751h 0.181345v -10.1751h 0.181345v 20.3503h 0.181345v -10.1751h 0.181345v -10.1751h 0.181345v -10.1751h 0.181345v 30.5254h 0.181345v -26.3024h 0.181345v 26.3024h
 0.181345v -20.3503h 0.181345v 10.1751h 0.181345v 10.1751h 0.181345v -10.1751h 0.181345v 10.1751h 0.36269v -10.1751h 0.181345v -10.1751h 0.181345v 10.1751h 0.181345v 10.1751h 0.181345v -20.3503h 0.181345v 10.1751h 0.544034v -10.1751h 0.36269v
 10.1751h 0.181345v 10.1751h 0.36269v -20.3503h 0.181345v 10.1751h 0.181345v -16.1272h 0.181345v 16.1272h 0.181345v 10.1751h 0.181345v -10.1751h 0.544034v -16.1272h 0.181345v 5.95208h 0.36269v 20.3503h 0.181345v -20.3503h 0.181345v -10.1751h
 0.181345v 20.3503h 0.181345v 10.1751h 0.181345v -20.3503h 0.181345v -13.4508h 0.181345v 33.8011h 0.181345v -10.1751h 0.181345v -16.1272h 0.181345v 26.3024h 0.181345v -10.1751h 0.181345v -16.1272h 0.36269v 5.95208h 0.181345v 10.1751h 0.36269v
 -16.1272h 0.181345v -10.1751h 0.181345v 5.95208h 0.181345v 4.22307h 0.181345v 16.1272h 0.181345v 10.1751h 0.181345v -10.1751h 0.36269v -16.1272h 0.181345v -7.49873h 0.181345v 23.6259h 0.544034v 10.1751h 0.181345v -30.5254h 0.181345v 20.3503h
 0.181345v -10.1751h 0.181345v -5.95208h 0.181345v 16.1272h 0.36269v -10.1751h 0.181345v 20.3503h 0.36269v -10.1751h 0.181345v -10.1751h 0.36269v 20.3503h 0.181345v -20.3503h 0.181345v 20.3503h 0.36269v -26.3024h 0.181345v 26.3024h 0.181345v
 -20.3503h 0.725379v 10.1751h 0.36269v 10.1751h 0.36269v -20.3503h 0.725379v 10.1751h 0.36269v -10.1751h 0.181345v 20.3503h 0.181345v -20.3503h 0.181345v -5.95208h 0.181345v 16.1272h 0.181345v 10.1751h 0.181345v -10.1751h 0.544034v 10.1751h 0.181345v
 -20.3503h 0.181345v 20.3503h 0.181345v -20.3503h 0.181345v -5.95208h 0.181345v 16.1272h 0.181345v -16.1272h 0.181345v 26.3024h 0.181345v -30.5254h 0.181345v 20.3503h 0.181345v -16.1272h 0.181345v 26.3024h 0.36269v -10.1751h 0.36269v 10.1751h
 0.181345v -10.1751h 0.181345v 10.1751h 0.181345v -10.1751h 0.181345v 10.1751h 0.181345v -20.3503h 0.181345v 10.1751h 0.181345v 10.1751h 0.725379v -10.1751h 0.181345v -10.1751h 0.181345v -5.95208h 0.181345v 5.95208h 0.181345v -5.95208h 0.181345v
 16.1272h 0.36269v -16.1272h 0.181345v 26.3024h 0.36269v -20.3503h 0.181345v 20.3503h 0.36269v -10.1751h 0.181345v -16.1272h 0.181345v 26.3024h 0.181345v -10.1751h 0.181345v -16.1272h 0.36269v 16.1272h 0.36269v -10.1751h 0.181345v 10.1751h 0.181345v
 10.1751h 0.181345v -36.4775h 0.181345v 16.1272h 0.181345" fill="none" stroke="black"/>
<path d="M57.1929,280.151h 453.543" fill="none" stroke="black"/>
<path d="M57.1929,272.68v 7.47068" fill="none" stroke="black"/>
<path d="M75.3318,276.415v 3.73534" fill="none" stroke="black"/>
<path d="M93.4707,276.415v 3.73534" fill="none" stroke="black"/>
<path d="M111.61,276.415v 3.73534" fill="none" stroke="black"/>
<path d="M129.749,276.415v 3.73534" fill="none" stroke="black"/>
<path d="M147.887,272.68v 7.47068" fill="none" stroke="black"/>
<path d="M166.026,276.415v 3.73534" fill="none" stroke="black"/>
<path d="M184.165,276.415v 3.73534" fill="none" stroke="black"/>
<path d="M202.304,276.415v 3.73534" fill="none" stroke="black"/>
<path d="M220.443,276.415v 3.73534" fill="none" stroke="black"/>
<path d="M238.582,272.68v 7.47068" fill="none" stroke="black"/>
<path d="M256.721,276.415v 3.73534" fill="none" stroke="black"/>
<path d="M274.86,276.415v 3.73534" fill="none" stroke="black"/>
<path d="M292.999,276.415v 3.73534" fill="none" stroke="black"/>
<path d="M311.138,276.415v 3.73534" fill="none" stroke="black"/>
<path d="M329.277,272.68v 7.47068" fill="none" stroke="black"/>
<path d="M347.415,276.415v 3.73534" fill="none" stroke="black"/>
<path d="M365.554,276.415v 3.73534" fill="none" stroke="black"/>
<path d="M383.693,276.415v 3.73534" fill="none" stroke="black"/>
<path d="M401.832,276.415v 3.73534" fill="none" stroke="black"/>
<path d="M419.971,272.68v 7.47068" fill="none" stroke="black"/>
<path d="M438.11,276.415v 3.73534" fill="none" stroke="black"/>
<path d="M456.249,276.415v 3.73534" fill="none" stroke="black"/>
<path d="M474.388,276.415v 3.73534" fill="none" stroke="black"/>
<path d="M492.527,276.415v 3.73534" fill="none" stroke="black"/>
<path d="M510.666,272.68v 7.47068" fill="none" stroke="black"/>
<path d="M510.666,272.68v 7.47068" fill="none" stroke="black"/>
<text xml:space="preserve" x="54.3523" y="290.27" fill="black" font-size="10.4952" font-family="Helvetica">0</text>
<text xml:space="preserve" x="139.569" y="290.27" fill="black" font-size="10.4952" font-family="Helvetica">500</text>
<text xml:space="preserve" x="227.449" y="290.27" fill="black" font-size="10.4952" font-family="Helvetica">1000</text>
<text xml:space="preserve" x="318.288" y="290.27" fill="black" font-size="10.4952" font-family="Helvetica">1500</text>
<text xml:space="preserve" x="408.831" y="290.27" fill="black" font-size="10.4952" font-family="Helvetica">2000</text>
<text xml:space="preserve" x="499.67" y="290.27" fill="black" font-size="10.4952" font-family="Helvetica">2500</text>
<text xml:space="preserve" x="265.323" y="301.218" fill="black" font-size="10.4952" font-family="Helvetica">Channel</text>
<path d="M57.1929,280.151v -249.023" fill="none" stroke="black"/>
<path d="M63.9961,280.151h -6.80315" fill="none" stroke="black"/>
<path d="M63.9961,277.474h -6.80315" fill="none" stroke="black"/>
<path d="M63.9961,275.211h -6.80315" fill="none" stroke="black"/>
<path d="M63.9961,273.251h -6.80315" fill="none" stroke="black"/>
<path d="M63.9961,271.522h -6.80315" fill="none" stroke="black"/>
<path d="M70.7992,269.975h -13.6063" fill="none" stroke="black"/>
<text xml:space="preserve" x="49.0263" y="273.7" fill="black" font-size="10.4952" font-family="Helvetica">1</text>
<path d="M63.9961,259.8h -6.80315" fill="none" stroke="black"/>
<path d="M63.9961,253.848h -6.80315" fill="none" stroke="black"/>
<path d="M63.9961,249.625h -6.80315" fill="none" stroke="black"/>
<path d="M63.9961,246.349h -6.80315" fill="none" stroke="black"/>
<path d="M63.9961,243.673h -6.80315" fill="none" stroke="black"/>
<path d="M63.9961,241.41h -6.80315" fill="none" stroke="black"/>
<path d="M63.9961,239.45h -6.80315" fill="none" stroke="black"/>
<path d="M63.9961,237.721h -6.80315" fill="none" stroke="black"/>
<path d="M70.7992,236.174h -13.6063" fill="none" stroke="black"/>
<text xml:space="preserve" x="41.629" y="239.968" fill="black" font-size="10.4952" font-family="Helvetica">10</text>
<path d="M63.9961,225.999h -6.80315" fill="none" stroke="black"/>
<path d="M63.9961,220.047h -6.80315" fill="none" stroke="black"/>
<path d="M63.9961,215.824h -6.80315" fill="none" stroke="black"/>
<path d="M63.9961,212.548h -6.80315" fill="none" stroke="black"/>
<path d="M63.9961,209.872h -6.80315" fill="none" stroke="black"/>
<path d="M63.9961,207.609h -6.80315" fill="none" stroke="black"/>
<path d="M63.9961,205.649h -6.80315" fill="none" stroke="black"/>
<path d="M63.9961,203.92h -6.80315" fill="none" stroke="black"/>
<path d="M70.7992,202.373h -13.6063" fill="none" stroke="black"/>
<text xml:space="preserve" x="49.0263" y="202.39" fill="black" font-size="7.16345" font-family="Helvetica">2</text>
<text xml:space="preserve" x="38.0783" y="206.829" fill="black" font-size="10.4952" font-family="Helvetica">10</text>
<path d="M63.9961,192.198h -6.80315" fill="none" stroke="black"/>
<path d="M63.9961,186.246h -6.80315" fill="none" stroke="black"/>
<path d="M63.9961,182.023h -6.80315" fill="none" stroke="black"/>
<path d="M63.9961,178.747h -6.80315" fill="none" stroke="black"/>
<path d="M63.9961,176.071h -6.80315" fill="none" stroke="black"/>
<path d="M63.9961,173.808h -6.80315" fill="none" stroke="black"/>
<path d="M63.9961,171.848h -6.80315" fill="none" stroke="black"/>
<path d="M63.9961,170.119h -6.80315" fill="none" stroke="black"/>
<path d="M70.7992,168.572h -13.6063" fill="none" stroke="black"/>
<text xml:space="preserve" x="49.0263" y="168.363" fill="black" font-size="7.16345" font-family="Helvetica">3</text>
<text xml:space="preserve" x="38.0783" y="173.097" fill="black" font-size="10.4952" font-family="Helvetica">10</text>
<path d="M63.9961,158.397h -6.80315" fill="none" stroke="black"/>
<path d="M63.9961,152.445h -6.80315" fill="none" stroke="black"/>
<path d="M63.9961,148.222h -6.80315" fill="none" stroke="black"/>
<path d="M63.9961,144.946h -6.80315" fill="none" stroke="black"/>
<path d="M63.9961,142.27h -6.80315" fill="none" stroke="black"/>
<path d="M63.9961,140.007h -6.80315" fill="none" stroke="black"/>
<path d="M63.9961,138.047h -6.80315" fill="none" stroke="black"/>
<path d="M63.9961,136.318h -6.80315" fill="none" stroke="black"/>
<path d="M70.7992,134.771h -13.6063" fill="none" stroke="black"/>
<text xml:space="preserve" x="49.0263" y="134.927" fill="black" font-size="7.16345" font-family="Helvetica">4</text>
<text xml:space="preserve" x="38.0783" y="139.365" fill="black" font-size="10.4952" font-family="Helvetica">10</text>
<path d="M63.9961,124.596h -6.80315" fill="none" stroke="black"/>
<path d="M63.9961,118.644h -6.80315" fill="none" stroke="black"/>
<path d="M63.9961,114.421h -6.80315" fill="none" stroke="black"/>
<path d="M63.9961,111.145h -6.80315" fill="none" stroke="black"/>
<path d="M63.9961,108.469h -6.80315" fill="none" stroke="black"/>
<path d="M63.9961,106.206h -6.80315" fill="none" stroke="black"/>
<path d="M63.9961,104.246h -6.80315" fill="none" stroke="black"/>
<path d="M63.9961,102.517h -6.80315" fill="none" stroke="black"/>
<path d="M70.7992,100.97h -13.6063" fill="none" stroke="black"/>
<text xml:space="preserve" x="49.0263" y="100.899" fill="black" font-size="7.16345" font-family="Helvetica">5</text>
<text xml:space="preserve" x="38.0783" y="105.633" fill="black" font-size="10.4952" font-family="Helvetica">10</text>
<path d="M63.9961,90.7948h -6.80315" fill="none" stroke="black"/>
<path d="M63.9961,84.8428h -6.80315" fill="none" stroke="black"/>
<path d="M63.9961,80.6197h -6.80315" fill="none" stroke="black"/>
<path d="M63.9961,77.344h -6.80315" fill="none" stroke="black"/>
<path d="M63.9961,74.6676h -6.80315" fill="none" stroke="black"/>
<path d="M63.9961,72.4048h -6.80315" fill="none" stroke="black"/>
<path d="M63.9961,70.4446h -6.80315" fill="none" stroke="black"/>
<path d="M63.9961,68.7156h -6.80315" fill="none" stroke="black"/>
<path d="M70.7992,67.1689h -13.6063" fill="none" stroke="black"/>
<text xml:space="preserve" x="49.0263" y="67.1675" fill="black" font-size="7.16345" font-family="Helvetica">6</text>
<text xml:space="preserve" x="38.0783" y="71.9018" fill="black" font-size="10.4952" font-family="Helvetica">10</text>
<path d="M63.9961,56.9938h -6.80315" fill="none" stroke="black"/>
<path d="M63.9961,51.0417h -6.80315" fill="none" stroke="black"/>
<path d="M63.9961,46.8186h -6.80315" fill="none" stroke="black"/>
<path d="M63.9961,43.543h -6.80315" fill="none" stroke="black"/>
<path d="M63.9961,40.8665h -6.80315" fill="none" stroke="black"/>
<path d="M63.9961,38.6037h -6.80315" fill="none" stroke="black"/>
<path d="M63.9961,36.6435h -6.80315" fill="none" stroke="black"/>
<path d="M63.9961,34.9145h -6.80315" fill="none" stroke="black"/>
<path d="M70.7992,33.3678h -13.6063" fill="none" stroke="black"/>
<text xml:space="preserve" x="49.0263" y="33.4358" fill="black" font-size="7.16345" font-family="Helvetica">7</text>
<text xml:space="preserve" x="38.0783" y="37.8742" fill="black" font-size="10.4952" font-family="Helvetica">10</text>
<g transform="rotate(-90,26.5385,191.442)">
<text xml:space="preserve" x="26.5385" y="191.442" fill="black" font-size="10.4952" font-family="Helvetica">Counts/Channel</text>
</g>
<text xml:space="preserve" x="404.097" y="67.1675" fill="black" font-size="14.7788" font-family="Helvetica" font-weight="bold"> = 2.4879 MeV</text>
<text xml:space="preserve" x="398.179" y="70.4223" fill="black" font-size="10.0192" font-family="Helvetica" font-weight="bold">p</text>
<text xml:space="preserve" x="389.006" y="67.1675" fill="black" font-size="14.7788" font-family="Helvetica" font-weight="bold">E</text>
<path d="M262.163,167.173v 25.2796" fill="none" stroke="black"/>
<path d="M264.454,192.453l -2.29122, 3.9685l -2.29122, -3.9685z" fill="black"/>
<path d="M264.454,192.453l -2.29122, 3.9685l -2.29122, -3.9685h 4.58243z" fill="none" stroke="black"/>
<text xml:space="preserve" x="266.803" y="165.108" fill="black" font-size="10.4952" font-family="Helvetica" font-weight="bold">_1 	1.369 MeV</text>
<text xml:space="preserve" x="260.293" y="165.108" fill="black" font-size="10.4952" font-family="Times">&#0945;</text>
<path d="M184.528,134.771v 29.8326" fill="none" stroke="black"/>
<path d="M186.819,164.604l -2.29122, 3.9685l -2.29122, -3.9685z" fill="black"/>
<path d="M186.819,164.604l -2.29122, 3.9685l -2.29122, -3.9685h 4.58243z" fill="none" stroke="black"/>
<text xml:space="preserve" x="172.117" y="131.968" fill="black" font-size="10.4952" font-family="Helvetica" font-weight="bold"># p_1 	0.844 MeV</text>
<path d="M210.104,152.445v 12.1587" fill="none" stroke="black"/>
<path d="M212.395,164.604l -2.29122, 3.9685l -2.29122, -3.9685z" fill="black"/>
<path d="M212.395,164.604l -2.29122, 3.9685l -2.29122, -3.9685h 4.58243z" fill="none" stroke="black"/>
<text xml:space="preserve" x="197.564" y="147.946" fill="black" font-size="10.4952" font-family="Helvetica" font-weight="bold"># p_2 	1.015 MeV</text>
<path d="M497.99,269.975h 12.6755" fill="none" stroke="black"/>
<path d="M504.328,259.8h 6.33777" fill="none" stroke="black"/>
<path d="M504.328,253.848h 6.33777" fill="none" stroke="black"/>
<path d="M504.328,249.625h 6.33777" fill="none" stroke="black"/>
<path d="M504.328,246.349h 6.33777" fill="none" stroke="black"/>
<path d="M504.328,243.673h 6.33777" fill="none" stroke="black"/>
<path d="M504.328,241.41h 6.33777" fill="none" stroke="black"/>
<path d="M504.328,239.45h 6.33777" fill="none" stroke="black"/>
<path d="M504.328,237.721h 6.33777" fill="none" stroke="black"/>
<path d="M497.99,236.174h 12.6755" fill="none" stroke="black"/>
<path d="M504.328,225.999h 6.33777" fill="none" stroke="black"/>
<path d="M504.328,220.047h 6.33777" fill="none" stroke="black"/>
<path d="M504.328,215.824h 6.33777" fill="none" stroke="black"/>
<path d="M504.328,212.548h 6.33777" fill="none" stroke="black"/>
<path d="M504.328,209.872h 6.33777" fill="none" stroke="black"/>
<path d="M504.328,207.609h 6.33777" fill="none" stroke="black"/>
<path d="M504.328,205.649h 6.33777" fill="none" stroke="black"/>
<path d="M504.328,203.92h 6.33777" fill="none" stroke="black"/>
<path d="M497.99,202.373h 12.6755" fill="none" stroke="black"/>
<path d="M504.328,192.198h 6.33777" fill="none" stroke="black"/>
<path d="M504.328,186.246h 6.33777" fill="none" stroke="black"/>
<path d="M504.328,182.023h 6.33777" fill="none" stroke="black"/>
<path d="M504.328,178.747h 6.33777" fill="none" stroke="black"/>
<path d="M504.328,176.071h 6.33777" fill="none" stroke="black"/>
<path d="M504.328,173.808h 6.33777" fill="none" stroke="black"/>
<path d="M504.328,171.848h 6.33777" fill="none" stroke="black"/>
<path d="M504.328,170.119h 6.33777" fill="none" stroke="black"/>
<path d="M497.99,168.572h 12.6755" fill="none" stroke="black"/>
<path d="M504.328,158.397h 6.33777" fill="none" stroke="black"/>
<path d="M504.328,152.445h 6.33777" fill="none" stroke="black"/>
<path d="M504.328,148.222h 6.33777" fill="none" stroke="black"/>
<path d="M504.328,144.946h 6.33777" fill="none" stroke="black"/>
<path d="M504.328,142.27h 6.33777" fill="none" stroke="black"/>
<path d="M504.328,140.007h 6.33777" fill="none" stroke="black"/>
<path d="M504.328,138.047h 6.33777" fill="none" stroke="black"/>
<path d="M504.328,136.318h 6.33777" fill="none" stroke="black"/>
<path d="M497.99,134.771h 12.6755" fill="none" stroke="black"/>
<path d="M504.328,124.596h 6.33777" fill="none" stroke="black"/>
<path d="M504.328,118.644h 6.33777" fill="none" stroke="black"/>
<path d="M504.328,114.421h 6.33777" fill="none" stroke="black"/>
<path d="M504.328,111.145h 6.33777" fill="none" stroke="black"/>
<path d="M504.328,108.469h 6.33777" fill="none" stroke="black"/>
<path d="M504.328,106.206h 6.33777" fill="none" stroke="black"/>
<path d="M504.328,104.246h 6.33777" fill="none" stroke="black"/>
<path d="M504.328,102.517h 6.33777" fill="none" stroke="black"/>
<path d="M497.99,100.97h 12.6755" fill="none" stroke="black"/>
<path d="M504.328,90.7948h 6.33777" fill="none" stroke="black"/>
<path d="M504.328,84.8428h 6.33777" fill="none" stroke="black"/>
<path d="M504.328,80.6197h 6.33777" fill="none" stroke="black"/>
<path d="M504.328,77.344h 6.33777" fill="none" stroke="black"/>
<path d="M504.328,74.6676h 6.33777" fill="none" stroke="black"/>
<path d="M504.328,72.4048h 6.33777" fill="none" stroke="black"/>
<path d="M504.328,70.4446h 6.33777" fill="none" stroke="black"/>
<path d="M504.328,68.7156h 6.33777" fill="none" stroke="black"/>
<path d="M497.99,67.1689h 12.6755" fill="none" stroke="black"/>
<path d="M504.328,56.9938h 6.33777" fill="none" stroke="black"/>
<path d="M504.328,51.0417h 6.33777" fill="none" stroke="black"/>
<path d="M504.328,46.8186h 6.33777" fill="none" stroke="black"/>
<path d="M504.328,43.543h 6.33777" fill="none" stroke="black"/>
<path d="M504.328,40.8665h 6.33777" fill="none" stroke="black"/>
<path d="M504.328,38.6037h 6.33777" fill="none" stroke="black"/>
<path d="M57.1929,45.4572v -7.46952" fill="none" stroke="black"/>
<path d="M75.3318,45.4572v -7.46952" fill="none" stroke="black"/>
<path d="M93.4707,45.4572v -7.46952" fill="none" stroke="black"/>
<path d="M111.61,45.4572v -7.46952" fill="none" stroke="black"/>
<path d="M129.749,45.4572v -7.46952" fill="none" stroke="black"/>
<path d="M147.887,45.4572v -7.46952" fill="none" stroke="black"/>
<path d="M166.026,45.4572v -7.46952" fill="none" stroke="black"/>
<path d="M184.165,45.4572v -7.46952" fill="none" stroke="black"/>
<path d="M202.304,45.4572v -7.46952" fill="none" stroke="black"/>
<path d="M220.443,45.4572v -7.46952" fill="none" stroke="black"/>
<path d="M238.582,45.4572v -7.46952" fill="none" stroke="black"/>
<path d="M256.721,45.4572v -7.46952" fill="none" stroke="black"/>
<path d="M274.86,45.4572v -7.46952" fill="none" stroke="black"/>
<path d="M292.999,45.4572v -7.46952" fill="none" stroke="black"/>
<path d="M311.138,45.4572v -7.46952" fill="none" stroke="black"/>
<path d="M329.277,45.4572v -7.46952" fill="none" stroke="black"/>
<path d="M347.415,45.4572v -7.46952" fill="none" stroke="black"/>
<path d="M365.554,45.4572v -7.46952" fill="none" stroke="black"/>
<path d="M383.693,45.4572v -7.46952" fill="none" stroke="black"/>
<path d="M401.832,45.4572v -7.46952" fill="none" stroke="black"/>
<path d="M419.971,45.4572v -7.46952" fill="none" stroke="black"/>
<path d="M438.11,45.4572v -7.46952" fill="none" stroke="black"/>
<path d="M456.249,45.4572v -7.46952" fill="none" stroke="black"/>
<path d="M474.388,45.4572v -7.46952" fill="none" stroke="black"/>
<path d="M492.527,45.4572v -7.46952" fill="none" stroke="black"/>
<path d="M510.666,45.4572v -7.46952" fill="none" stroke="black"/></svg>
