<?xml version="1.0" standalone="no"?>
<svg width="567.429" height="311.778" viewBox="0 0 567.429 311.778" xmlns="http://www.w3.org/2000/svg" shape-rendering="crispEdges">
<title>
Yields/P1/run_0097/det12_Fit.svg
</title>
<desc>
Creator: ROOT Version 6.12/06
CreationDate: Mon Apr 15 10:29:01 2019</desc>
<defs>
</defs>
<rect x="0.5" y="0" width="566.929" height="311.278" fill="white"/>
<rect x="57.1929" y="31.1278" width="453.543" height="249.023" fill="white"/>
<rect x="57.1929" y="31.1278" width="453.543" height="249.023" fill="none" stroke="black"/>
<path d="M57.1929,40.5099h 0.181345v 239.641h 5.44034v -10.1758h 0.181345v 10.1758h 4.89631v -10.1758h 0.181345v 10.1758h 3.80824v -10.1758h 0.181345v 10.1758h 3.6269v -10.1758h 0.181345v 10.1758h 0.906724v -10.1758h 0.181345v 10.1758h 4.89631v
 -10.1758h 0.181345v 10.1758h 1.81345v -20.3517h 0.181345v 20.3517h 0.544034v -10.1758h 0.181345v 10.1758h 0.36269v -10.1758h 0.36269v 10.1758h 0.906724v -20.3517h 0.181345v 10.1758h 0.181345v 10.1758h 0.36269v -20.3517h 0.181345v 10.1758h 0.36269v
 10.1758h 0.36269v -26.3041h 0.181345v 5.95248h 0.181345v -31.4175h 0.181345v -5.06247h 0.181345v -12.1743h 0.181345v -14.3323h 0.181345v -11.0066h 0.181345v -7.15312h 0.181345v -3.74125h 0.181345v -4.70181h 0.181345v -2.82906h 0.181345v -1.08311h
 0.181345v -1.47108h 0.181345v -0.797334h 0.181345v -0.235237h 0.181345v -0.734443h 0.181345v -0.871597h 0.181345v -0.356936h 0.181345v -0.510682h 0.181345v -0.674385h 0.181345v -0.237748h 0.181345v 0.0168549h 0.181345v -0.570594h 0.181345v 0.212411h
 0.181345v -1.00188h 0.181345v 0.36577h 0.181345v 0.0157687h 0.181345v -0.00788645h 0.181345v 0.254492h 0.181345v -0.643508h 0.181345v 0.58746h 0.181345v -0.0796995h 0.181345v -0.909164h 0.181345v 0.370723h 0.181345v -0.10688h 0.181345v -0.181431h
 0.181345v 0.334356h 0.181345v -0.053705h 0.181345v -0.0611375h 0.181345v -0.0304735h 0.181345v -0.241538h 0.181345v 0.203534h 0.181345v -0.521966h 0.181345v 0.318432h 0.181345v -0.0895618h 0.181345v -0.583509h 0.181345v 0.391313h 0.181345v 0.584306h
 0.181345v -0.406984h 0.181345v -0.359783h 0.181345v 0.789711h 0.181345v -0.355407h 0.181345v 0.241042h 0.181345v 0.206503h 0.181345v 0.311372h 0.181345v 0.536814h 0.181345v 0.0572345h 0.181345v -0.499334h 0.181345v 0.255599h 0.181345v 0.292971h
 0.181345v -0.564399h 0.181345v -0.126015h 0.181345v -1.16784h 0.181345v -1.00078h 0.181345v -1.96624h 0.181345v -2.2909h 0.181345v -2.75233h 0.181345v -3.14944h 0.181345v -2.76662h 0.181345v -3.90723h 0.181345v -2.80855h 0.181345v -2.34295h
 0.181345v -1.9711h 0.181345v -1.61948h 0.181345v -0.906378h 0.181345v -0.410843h 0.181345v 0.0488287h 0.181345v 1.13157h 0.181345v 1.14468h 0.181345v 2.47417h 0.181345v 2.56377h 0.181345v 2.6555h 0.181345v 4.16844h 0.181345v 3.90044h 0.181345v
 4.07432h 0.181345v 5.01038h 0.181345v 3.15742h 0.181345v 3.50857h 0.181345v 1.49617h 0.181345v 3.10852h 0.181345v 0.376254h 0.181345v 1.919h 0.181345v -0.224136h 0.181345v 0.0171203h 0.181345v 0.276675h 0.181345v 1.87826h 0.181345v -1.84331h
 0.181345v 0.883447h 0.181345v 0.130661h 0.181345v -0.149232h 0.181345v 0.337932h 0.181345v 0.0380327h 0.181345v 0.701996h 0.181345v 0.446131h 0.181345v -1.69018h 0.181345v 0.580189h 0.181345v 0.485194h 0.181345v 0.339336h 0.181345v -0.49635h
 0.181345v 1.49911h 0.181345v -1.73153h 0.181345v 0.291099h 0.181345v -0.271871h 0.181345v 0.74998h 0.181345v 0.162893h 0.181345v -0.89362h 0.181345v 0.771281h 0.181345v 0.495595h 0.181345v -0.596772h 0.181345v -0.080442h 0.181345v 0.803771h
 0.181345v 0.0849821h 0.181345v 0.542583h 0.181345v 0.609429h 0.181345v 0.208898h 0.181345v -0.0699634h 0.181345v -0.276566h 0.181345v 0.77346h 0.181345v 0.995678h 0.181345v -0.630166h 0.181345v -0.341425h 0.181345v -0.120038h 0.181345v 1.69629h
 0.181345v -0.501274h 0.181345v 0.799505h 0.181345v -0.298232h 0.181345v -1.23483h 0.181345v 0.223756h 0.181345v -0.074965h 0.181345v 1.74471h 0.181345v -0.950974h 0.181345v -0.286587h 0.181345v -0.827649h 0.181345v 1.14057h 0.181345v 0.346697h
 0.181345v -0.582011h 0.181345v 0.182695h 0.181345v 0.865407h 0.181345v -0.0833339h 0.181345v -0.247201h 0.181345v -0.846685h 0.181345v 1.91998h 0.181345v -0.347487h 0.181345v 0.0861036h 0.181345v 0.0866116h 0.181345v 0.621025h 0.181345v 0.151817h
 0.181345v -0.83064h 0.181345v -0.0862723h 0.181345v 0.978082h 0.181345v -0.122085h 0.181345v -0.0303632h 0.181345v -0.180872h 0.181345v 1.28283h 0.181345v -2.37934h 0.181345v 1.55294h 0.181345v 0.155352h 0.181345v -0.641711h 0.181345v 0.67298h
 0.181345v 0.542017h 0.181345v 0.229134h 0.181345v -0.988645h 0.181345v 0.759512h 0.36269v -0.321252h 0.181345v -0.743481h 0.181345v 0.274412h 0.181345v -0.924365h 0.181345v 0.832323h 0.181345v -0.332634h 0.181345v 0.150264h 0.181345v -0.936134h
 0.181345v -1.40436h 0.181345v 0.577845h 0.181345v -1.08412h 0.181345v -0.986293h 0.181345v -0.615104h 0.181345v -0.697134h 0.181345v -0.274018h 0.181345v -0.45238h 0.181345v -0.941136h 0.181345v 0.21041h 0.181345v -1.13055h 0.181345v 0.489702h
 0.181345v 0.506602h 0.181345v 0.172828h 0.181345v 1.87228h 0.181345v -0.0438228h 0.181345v -0.238715h 0.181345v 2.20216h 0.181345v 1.22518h 0.181345v 1.75974h 0.181345v -0.511991h 0.181345v 2.19904h 0.181345v -1.18829h 0.181345v 0.385509h 0.181345v
 0.906292h 0.181345v -1.10031h 0.181345v 1.55747h 0.36269v 0.325045h 0.181345v -1.39257h 0.181345v 1.76238h 0.181345v -0.83704h 0.181345v -0.657193h 0.181345v -0.134686h 0.181345v 1.55421h 0.181345v -0.0372133h 0.181345v -0.900934h 0.181345v
 0.318004h 0.181345v 0.732352h 0.181345v -0.552661h 0.181345v -1.6081h 0.181345v 3.2921h 0.181345v -0.596048h 0.181345v -0.460005h 0.181345v -1.4369h 0.181345v 2.73832h 0.36269v -1.52612h 0.181345v -1.48344h 0.181345v 0.582505h 0.181345v 0.900934h
 0.181345v 0.149422h 0.181345v -0.260499h 0.181345v -0.146807h 0.181345v 0.295098h 0.181345v -0.97306h 0.181345v 1.04777h 0.181345v 1.04767h 0.181345v -2.67659h 0.181345v 0.3734h 0.181345v 0.277656h 0.181345v -0.583868h 0.181345v -1.442h 0.181345v
 1.95596h 0.181345v -1.20455h 0.181345v 0.556523h 0.181345v -2.45246h 0.181345v 0.0565728h 0.181345v 0.113804h 0.181345v 0.376076h 0.181345v -0.0584886h 0.181345v -0.0291572h 0.181345v 1.56619h 0.181345v 0.494344h 0.181345v -0.26572h 0.181345v
 -0.924818h 0.181345v 0.631522h 0.181345v 0.863815h 0.181345v 0.845161h 0.181345v 0.404248h 0.181345v -2.2097h 0.181345v 1.9146h 0.181345v 1.37732h 0.181345v -1.45017h 0.181345v 1.6115h 0.181345v -0.161327h 0.181345v -0.473609h 0.181345v 0.274412h
 0.181345v -0.505608h 0.181345v 1.61488h 0.181345v -1.06965h 0.181345v -0.810437h 0.181345v 0.890007h 0.181345v 1.29189h 0.181345v -1.05056h 0.181345v -0.320901h 0.181345v -0.885338h 0.181345v 0.263844h 0.181345v 1.18776h 0.181345v -0.486695h
 0.181345v 0.3635h 0.181345v 1.10369h 0.181345v -3.23173h 0.181345v 1.80449h 0.181345v 0.323553h 0.181345v -2.40835h 0.181345v 2.0848h 0.181345v 2.47794h 0.181345v -5.27405h 0.181345v 1.90375h 0.181345v 0.972582h 0.181345v -1.59895h 0.181345v 0.8158h
 0.181345v 0.0381811h 0.181345v -0.340107h 0.181345v 0.806197h 0.181345v 0.359543h 0.181345v 0.162668h 0.181345v 0.583965h 0.181345v -1.53399h 0.181345v -1.14261h 0.181345v 0.541782h 0.181345v 1.42868h 0.181345v -0.478758h 0.181345v -0.233649h
 0.181345v 0.194448h 0.181345v 0.0785062h 0.181345v -0.654291h 0.181345v -0.734184h 0.181345v 1.1542h 0.181345v -0.754954h 0.181345v -0.64778h 0.181345v 0.464955h 0.181345v -1.0177h 0.181345v 1.64883h 0.36269v 0.619854h 0.181345v 0.0396238h 0.181345v
 -0.545232h 0.181345v 0.0382806h 0.181345v -0.303486h 0.181345v -0.69659h 0.181345v 0.510048h 0.181345v -0.0370255h 0.181345v -0.650972h 0.181345v 0.987612h 0.181345v -0.299615h 0.181345v -1.97422h 0.181345v 0.427461h 0.181345v 0.717938h 0.181345v
 0.318771h 0.181345v 0.325847h 0.181345v -0.0730381h 0.181345v 0.556854h 0.181345v -1.77949h 0.181345v -0.199739h 0.181345v 1.75395h 0.181345v -1.38566h 0.181345v 1.42296h 0.181345v -1.52433h 0.181345v 0.866876h 0.181345v 1.54279h 0.181345v
 -0.0396238h 0.181345v -0.196531h 0.181345v -1.09074h 0.181345v 1.68841h 0.181345v -0.944924h 0.181345v 0.269377h 0.181345v -0.345442h 0.181345v 0.939881h 0.181345v -0.280402h 0.181345v 0.119517h 0.181345v 0.323553h 0.181345v 1.23654h 0.181345v
 -0.220765h 0.181345v -0.809877h 0.181345v -1.0018h 0.181345v 0.392553h 0.181345v 1.77395h 0.181345v -0.658434h 0.181345v -0.128216h 0.181345v 0.921956h 0.181345v 0.554051h 0.181345v -1.5185h 0.181345v 1.00983h 0.181345v -1.75436h 0.181345v 0.162218h
 0.181345v 2.72561h 0.181345v -1.17885h 0.181345v 0.554051h 0.181345v -0.0938062h 0.181345v -0.414865h 0.181345v 1.13347h 0.181345v -0.765287h 0.181345v -0.277001h 0.181345v 2.32413h 0.181345v -0.26548h 0.181345v -1.21146h 0.181345v 1.00248h
 0.181345v -1.09906h 0.181345v 0.791067h 0.181345v 0.412115h 0.181345v 0.695387h 0.181345v -1.00555h 0.181345v -0.403616h 0.181345v 0.818644h 0.181345v -0.718775h 0.181345v 0.771489h 0.181345v 0.814291h 0.181345v -1.88337h 0.181345v 1.9393h 0.181345v
 -1.49062h 0.181345v 1.54676h 0.181345v -0.82036h 0.181345v -1.51481h 0.181345v 4.0643h 0.181345v -2.06279h 0.181345v 0.560397h 0.181345v 0.0572345h 0.181345v -0.781663h 0.181345v 2.4179h 0.181345v -2.25387h 0.181345v -0.218303h 0.181345v 2.86194h
 0.181345v -2.53326h 0.181345v 1.8264h 0.181345v -1.99166h 0.181345v 0.615278h 0.181345v -0.724428h 0.181345v -0.375758h 0.181345v 0.986383h 0.181345v -1.30098h 0.181345v 1.70321h 0.181345v -0.458807h 0.181345v 0.458807h 0.181345v -1.8066h 0.181345v
 0.524364h 0.181345v 1.87667h 0.181345v -0.594438h 0.181345v 1.15082h 0.181345v -3.00884h 0.181345v 4.18917h 0.181345v -2.90245h 0.181345v 1.04491h 0.181345v -1.32244h 0.181345v 0.965805h 0.181345v -0.0586053h 0.181345v -1.44699h 0.181345v 0.817314h
 0.181345v 1.04491h 0.181345v 0.303957h 0.181345v -1.29273h 0.181345v 1.60311h 0.36269v -0.187017h 0.181345v 0.893879h 0.181345v -2.64364h 0.181345v 0.732774h 0.181345v 1.204h 0.181345v -0.674385h 0.181345v -0.8158h 0.181345v -0.280709h 0.181345v
 1.77089h 0.181345v -0.970973h 0.181345v 0.0588402h 0.181345v 0.540452h 0.181345v -0.890007h 0.181345v 0.951304h 0.181345v 0.185442h 0.181345v 0.897785h 0.181345v -1.6259h 0.181345v -0.408632h 0.181345v 1.32456h 0.181345v -0.556385h 0.181345v
 -1.22167h 0.181345v 1.16113h 0.181345v -0.239689h 0.181345v -0.809373h 0.181345v 0.750057h 0.181345v -0.293036h 0.181345v 0.592041h 0.181345v -0.120334h 0.181345v 0.0600435h 0.181345v -0.819052h 0.181345v -0.22586h 0.181345v -0.0559262h 0.181345v
 -0.055714h 0.181345v 1.64595h 0.181345v -1.64595h 0.181345v 1.03671h 0.181345v -1.31215h 0.181345v -0.270369h 0.181345v 1.34573h 0.181345v -1.87197h 0.181345v -0.357459h 0.181345v 0.618223h 0.181345v -0.917838h 0.181345v 0.50281h 0.181345v 0.467741h
 0.36269v -1.0199h 0.181345v -1.97879h 0.181345v 0.933122h 0.181345v 0.704805h 0.181345v -1.5082h 0.181345v -0.884896h 0.181345v -0.203055h 0.181345v 0.326249h 0.181345v -0.245364h 0.181345v 0.877339h 0.181345v -0.0858518h 0.181345v -0.710154h
 0.181345v 0.413566h 0.181345v -0.125298h 0.181345v -1.46334h 0.181345v 1.75739h 0.181345v -0.0846148h 0.181345v 0.255322h 0.36269v 1.68092h 0.181345v -1.72378h 0.181345v 2.66804h 0.181345v -2.36533h 0.181345v -0.216852h 0.181345v 1.44665h 0.181345v
 -1.18604h 0.181345v 1.86672h 0.181345v -1.46692h 0.181345v -0.660409h 0.181345v -0.958224h 0.181345v -1.45776h 0.181345v 1.94989h 0.181345v -1.16224h 0.181345v -1.21947h 0.181345v -2.41422h 0.181345v -1.80913h 0.181345v -0.701065h 0.181345v -1.2393h
 0.181345v -1.31423h 0.181345v -2.90912h 0.181345v -1.63562h 0.181345v -1.99936h 0.181345v -0.23013h 0.181345v -1.76937h 0.181345v -1.36345h 0.181345v -0.417182h 0.181345v -0.840293h 0.181345v -0.67162h 0.181345v -0.696775h 0.181345v -0.760274h
 0.181345v -0.499706h 0.181345v 0.910318h 0.181345v 0.698561h 0.181345v 0.549049h 0.181345v 0.48041h 0.181345v 0.496665h 0.181345v 1.68024h 0.181345v 0.374645h 0.181345v 2.64343h 0.181345v 0.757502h 0.181345v 1.16636h 0.181345v 2.06475h 0.181345v
 1.69656h 0.181345v 3.42301h 0.181345v 0.510448h 0.181345v 1.4348h 0.181345v 2.20787h 0.181345v 1.8258h 0.181345v 0.773915h 0.181345v 1.22046h 0.181345v 1.0356h 0.181345v 1.98124h 0.181345v 0.338799h 0.181345v 0.230289h 0.181345v 1.08349h 0.181345v
 -0.966975h 0.181345v 1.73644h 0.181345v 0.332908h 0.181345v 0.689358h 0.181345v 1.17508h 0.181345v -2.13136h 0.181345v 2.91661h 0.181345v -0.080442h 0.181345v -0.473609h 0.181345v 0.554051h 0.181345v -0.397873h 0.181345v -2.58472h 0.181345v 2.12108h
 0.181345v -1.09881h 0.181345v 1.64117h 0.181345v -0.312365h 0.181345v 1.63286h 0.181345v -1.47751h 0.181345v -0.0778815h 0.181345v -1.26443h 0.181345v 1.65804h 0.181345v 0.99008h 0.181345v -1.14879h 0.181345v -0.843505h 0.181345v 1.32488h 0.181345v
 -1.02373h 0.181345v 0.463637h 0.181345v 0.317431h 0.181345v -0.856937h 0.181345v 1.93872h 0.181345v 0.173737h 0.181345v -2.18793h 0.181345v 1.33911h 0.181345v 0.588986h 0.36269v 0.0861036h 0.181345v -2.60445h 0.181345v 0.665734h 0.181345v 1.01826h
 0.181345v -0.241331h 0.181345v 1.16179h 0.181345v -1.78659h 0.181345v 1.02925h 0.181345v 0.500524h 0.181345v 0.170707h 0.181345v -0.834351h 0.181345v 1.62809h 0.181345v -1.78942h 0.181345v 3.11631h 0.181345v -3.43374h 0.181345v 3.63348h 0.181345v
 -0.591246h 0.181345v -0.753017h 0.181345v -1.72913h 0.181345v 1.82117h 0.181345v -1.23886h 0.181345v -0.663644h 0.181345v 1.44796h 0.181345v 0.180133h 0.181345v -1.86942h 0.181345v 1.16179h 0.181345v 1.83747h 0.181345v 0.197058h 0.181345v -0.391506h
 0.181345v -1.11552h 0.181345v -1.20259h 0.181345v 4.05932h 0.181345v -1.44856h 0.181345v 0.70642h 0.181345v -1.84355h 0.181345v 2.3698h 0.181345v -0.318004h 0.181345v -0.311262h 0.181345v -1.27738h 0.181345v -0.187017h 0.181345v -1.58388h 0.181345v
 2.15223h 0.181345v 1.96032h 0.181345v -2.80481h 0.181345v 1.13713h 0.181345v -0.579573h 0.181345v 1.08067h 0.181345v -1.36209h 0.181345v 3.32242h 0.181345v -2.26303h 0.181345v -0.777963h 0.181345v 0.19066h 0.36269v 1.30357h 0.181345v 1.31556h
 0.181345v 0.231196h 0.181345v -5.07218h 0.181345v 2.22185h 0.181345v -1.71846h 0.181345v 0.171705h 0.181345v -0.425555h 0.181345v 0.953059h 0.181345v -5.2809h 0.181345v -0.309077h 0.181345v -2.62553h 0.181345v -0.253558h 0.181345v -2.23427h
 0.181345v -2.20121h 0.181345v -1.2122h 0.181345v -1.74053h 0.181345v -2.73726h 0.181345v -2.13273h 0.181345v -1.60988h 0.181345v -1.52132h 0.181345v -1.50617h 0.181345v -1.5388h 0.181345v -1.37967h 0.181345v -1.22514h 0.181345v -0.472086h 0.181345v
 -1.03143h 0.181345v -1.06473h 0.181345v -0.0803319h 0.181345v 0.0100175h 0.181345v -0.732962h 0.181345v 0.5339h 0.181345v -0.447852h 0.181345v 1.26083h 0.181345v 0.467102h 0.181345v 1.00439h 0.181345v 0.398064h 0.181345v 0.754891h 0.181345v 1.66523h
 0.181345v 1.27102h 0.181345v 1.14205h 0.181345v 2.18352h 0.181345v 1.3419h 0.181345v 1.92442h 0.181345v 2.35497h 0.181345v 1.63121h 0.181345v 2.78996h 0.181345v 3.11554h 0.181345v 0.573908h 0.181345v 4.46926h 0.181345v 1.16957h 0.181345v 2.74838h
 0.181345v 1.07467h 0.181345v 0.861h 0.181345v 2.69631h 0.181345v 0.359543h 0.181345v -1.82319h 0.181345v 2.3167h 0.181345v 3.21328h 0.181345v 4.1196h 0.181345v -1.19097h 0.181345v -2.45246h 0.181345v -0.785247h 0.181345v 3.2377h 0.181345v -0.923614h
 0.181345v 0.362503h 0.181345v -3.27589h 0.181345v 7.49924h 0.181345v -1.17508h 0.181345v -3.41078h 0.36269v 0.547167h 0.181345v 0.187017h 0.181345v -0.734184h 0.181345v 0.734184h 0.181345v -0.371681h 0.181345v -0.890007h 0.181345v 2.85033h 0.181345v
 -3.19176h 0.181345v 0.69098h 0.181345v 1.10156h 0.181345v -0.743481h 0.181345v 3.68945h 0.36269v -2.75406h 0.181345v -1.46929h 0.181345v -1.33552h 0.181345v 5.32768h 0.181345v -1.93162h 0.181345v -0.972582h 0.181345v -1.26169h 0.181345v 0.707637h
 0.181345v 1.32689h 0.181345v -0.959859h 0.181345v -0.547167h 0.181345v 3.18664h 0.181345v -0.863815h 0.181345v -1.20731h 0.181345v -3.12053h 0.181345v 4.7534h 0.544034v 1.3561h 0.181345v -1.78165h 0.181345v -1.01286h 0.181345v -2.67659h 0.36269v
 0.839121h 0.181345v -0.341425h 0.181345v -1.13608h 0.181345v 2.18515h 0.181345v 1.12984h 0.181345v -0.386354h 0.181345v -3.2377h 0.181345v 2.31409h 0.181345v 1.11552h 0.181345v -4.74517h 0.181345v 6.81629h 0.181345v -1.87667h 0.181345v -3.31498h
 0.181345v 8.41204h 0.181345v -9.61112h 0.181345v 3.2041h 0.36269v -0.699209h 0.181345v 2.40598h 0.181345v -1.70677h 0.181345v 1.90926h 0.181345v -4.6751h 0.181345v 2.76584h 0.181345v 1.11552h 0.36269v -0.753017h 0.181345v -0.362503h 0.181345v
 2.11459h 0.181345v -0.999067h 0.181345v 1.63286h 0.181345v -2.56825h 0.181345v 3.23064h 0.181345v -1.90375h 0.181345v -2.37596h 0.181345v 3.83481h 0.181345v -2.04226h 0.181345v -0.923614h 0.181345v -1.03671h 0.181345v -1.87667h 0.181345v 2.91338h
 0.181345v 1.50703h 0.181345v -2.87365h 0.181345v 3.68945h 0.181345v -1.01286h 0.181345v 4.28874h 0.181345v -6.46764h 0.181345v -1.44516h 0.181345v 4.63692h 0.181345v -2.32283h 0.181345v 0.547167h 0.181345v -0.725116h 0.181345v -1.35089h 0.181345v
 4.06291h 0.181345v -2.35393h 0.181345v 0.18237h 0.181345v 0.184664h 0.181345v 3.55731h 0.181345v 1.23439h 0.181345v -4.41526h 0.181345v -1.45112h 0.181345v 0.890007h 0.181345v 1.34426h 0.181345v -2.40598h 0.181345v 3.66509h 0.181345v -1.45885h
 0.181345v -1.14452h 0.36269v -0.540452h 0.181345v 2.08721h 0.181345v 1.72913h 0.181345v -3.81634h 0.181345v 1.68498h 0.181345v 0.8158h 0.181345v 1.54676h 0.181345v -1.755h 0.181345v -0.607561h 0.181345v 3.83184h 0.181345v -5.69264h 0.181345v
 4.93962h 0.181345v 1.54676h 0.181345v -5.209h 0.181345v 2.26303h 0.181345v -2.45246h 0.181345v 3.3703h 0.181345v 1.23439h 0.36269v -1.23439h 0.181345v -0.466091h 0.181345v 3.04827h 0.181345v -3.50002h 0.181345v -3.54041h 0.181345v 2.26303h 0.36269v
 -0.402234h 0.181345v 2.13136h 0.181345v 1.96032h 0.181345v -5.77666h 0.181345v 5.2615h 0.36269v -0.979071h 0.181345v -0.917838h 0.181345v 2.94597h 0.181345v -2.49422h 0.181345v 0.947466h 0.181345v -0.947466h 0.181345v -2.71477h 0.181345v 6.04812h
 0.181345v 0.890007h 0.181345v -2.77819h 0.181345v -1.21397h 0.181345v 5.95248h 0.181345v -4.22335h 0.181345v -0.515162h 0.181345v -2.33517h 0.181345v 2.08421h 0.181345v -0.728114h 0.181345v 1.23439h 0.181345v -0.753017h 0.181345v 0.497696h 0.181345v
 2.1789h 0.544034v 2.55962h 0.181345v -3.41504h 0.181345v -0.274412h 0.181345v -0.269377h 0.181345v 2.62331h 0.181345v 4.43767h 0.181345v -5.06247h 0.181345v -0.890007h 0.181345v 2.85033h 0.181345v -0.682943h 0.181345v 1.03671h 0.181345v -2.00501h
 0.181345v 4.32784h 0.181345v -0.8158h 0.181345v 4.62559h 0.181345v -8.74941h 0.181345v 4.12382h 0.181345v 2.13136h 0.181345v -1.72913h 0.181345v -3.59855h 0.181345v 6.27514h 0.181345v -4.22335h 0.181345v 1.54676h 0.181345v 1.72913h 0.181345v
 -2.52287h 0.181345v 1.20731h 0.36269v -0.8158h 0.181345v 1.67961h 0.181345v 1.39921h 0.181345v -2.67659h 0.181345v 4.22335h 0.181345v -0.5339h 0.181345v 1.66374h 0.181345v -7.61621h 0.181345v 2.26303h 0.181345v 2.19522h 0.181345v -0.917838h
 0.181345v -2.45246h 0.181345v 2.9042h 0.181345v -0.890007h 0.181345v 3.38423h 0.181345v -2.49422h 0.181345v 1.44516h 0.181345v -3.57652h 0.181345v 0.402234h 0.181345v 8.62907h 0.181345v -3.27589h 0.181345v 6.55177h 0.181345v -7.68161h 0.36269v
 2.35393h 0.181345v -4.38206h 0.181345v 2.02813h 0.181345v 2.35393h 0.181345v 3.59855h 0.181345v 0.839121h 0.36269v -7.3255h 0.181345v 1.66374h 0.181345v 1.87667h 0.181345v -3.54041h 0.181345v 1.08795h 0.181345v 1.79988h 0.181345v 3.59855h 0.181345v
 -3.59855h 0.181345v 1.33552h 0.181345v -0.682943h 0.181345v 4.6751h 0.181345v -2.52287h 0.181345v -1.46929h 0.36269v -3.1354h 0.181345v 1.17508h 0.181345v -2.26303h 0.181345v 9.16297h 0.181345v -4.93962h 0.181345v -2.55962h 0.181345v -1.12984h
 0.181345v 1.72913h 0.181345v -0.599292h 0.181345v -4.51407h 0.181345v 1.83747h 0.36269v -3.85167h 0.181345v 0.772843h 0.181345v 5.75542h 0.181345v -12.6057h 0.181345v 6.07742h 0.181345v -4.7774h 0.181345v 4.40572h 0.181345v -1.06171h 0.181345v
 -0.3375h 0.181345v -2.7321h 0.181345v 2.40218h 0.181345v -0.322664h 0.181345v -1.22409h 0.181345v 0.908369h 0.181345v 0.315724h 0.181345v 2.05179h 0.181345v -3.27589h 0.181345v -0.575784h 0.181345v 6.23755h 0.181345v -5.36518h 0.181345v 5.80344h
 0.181345v -3.54041h 0.181345v 3.10215h 0.181345v -1.63286h 0.181345v -1.46929h 0.181345v 4.93962h 0.181345v 0.497696h 0.181345v 0.515162h 0.181345v 2.26303h 0.181345v -1.17508h 0.181345v -2.58218h 0.181345v 5.71758h 0.181345v -3.68945h 0.36269v
 5.15874h 0.181345v -6.2078h 0.181345v 2.77819h 0.181345v -2.77819h 0.181345v 0.515162h 0.181345v 0.5339h 0.181345v 3.68945h 0.181345v -5.23621h 0.181345v 3.27589h 0.181345v -5.53891h 0.181345v -0.413566h 0.181345v -1.90926h 0.181345v -1.03671h
 0.36269v 1.03671h 0.181345v -3.48917h 0.181345v 0.575784h 0.181345v -4.07581h 0.181345v 1.15655h 0.181345v -4.8707h 0.181345v -2.96166h 0.181345v -1.21845h 0.181345v -1.94408h 0.181345v 3.73831h 0.181345v -5.95248h 0.181345v 0.497696h 0.181345v
 -2.67659h 0.181345v 0.16972h 0.181345v -1.3058h 0.181345v -1.4134h 0.181345v -0.0707501h 0.181345v -0.62186h 0.181345v -1.53999h 0.181345v -1.44897h 0.181345v 0.562545h 0.181345v 0.644762h 0.181345v -1.09651h 0.181345v 0.858761h 0.181345v -1.1342h
 0.181345v -0.848214h 0.181345v 1.40436h 0.181345v -1.60898h 0.181345v -0.694483h 0.181345v -0.144638h 0.181345v 1.14712h 0.181345v -1.05085h 0.181345v 1.05085h 0.181345v -0.953948h 0.181345v -2.16548h 0.181345v -0.413566h 0.181345v 1.54676h
 0.181345v -1.54676h 0.181345v -0.121832h 0.181345v -0.516557h 0.181345v -0.686492h 0.181345v -1.72085h 0.181345v 0.403154h 0.181345v -0.369978h 0.181345v 0.133461h 0.181345v 0.476907h 0.181345v -0.308356h 0.181345v -1.01512h 0.181345v 1.42772h
 0.181345v 0.605105h 0.181345v -0.287865h 0.181345v 1.07151h 0.181345v -0.600825h 0.181345v 0.448298h 0.181345v 0.114247h 0.181345v 1.48741h 0.181345v 2.03911h 0.181345v -0.665255h 0.181345v 2.14734h 0.181345v 1.00134h 0.181345v 0.828965h 0.181345v
 0.558738h 0.181345v 2.55058h 0.181345v 1.84249h 0.181345v 1.33959h 0.181345v -1.50931h 0.181345v 4.97341h 0.181345v 3.15797h 0.181345v -0.433942h 0.181345v 3.52746h 0.181345v 3.23064h 0.181345v 2.18793h 0.181345v -1.72913h 0.181345v 0.473609h
 0.181345v 6.19514h 0.181345v -1.06171h 0.181345v 3.44759h 0.181345v -4.11501h 0.181345v 5.4711h 0.181345v 4.38206h 0.181345v -2.35393h 0.181345v 3.00651h 0.181345v -0.652579h 0.181345v -1.22409h 0.181345v -3.15797h 0.181345v 16.6097h 0.181345v
 -10.1758h 0.181345v 10.1758h 0.181345v -5.95248h 0.181345v 2.10081h 0.181345v 5.39843h 0.181345v -9.33671h 0.181345v -5.06247h 0.181345v 20.3517h 0.181345v -14.3992h 0.181345v 3.04827h 0.181345v 5.39843h 0.181345v -1.54676h 0.181345v 3.27589h
 0.181345v -7.12756h 0.181345v 9.08788h 0.181345v -6.63542h 0.181345v -2.45246h 0.181345v 7.12756h 0.181345v -8.21551h 0.181345v 28.5672h 0.181345v -10.1758h 0.181345v -11.905h 0.181345v 5.95248h 0.181345v 26.3041h 0.181345v -26.3041h 0.181345v
 -2.26303h 0.181345v 2.26303h 0.181345v 16.1283h 0.181345v -25.0268h 0.181345v 14.8509h 0.181345v -11.905h 0.181345v 22.0808h 0.181345v -18.3913h 0.181345v 4.93962h 0.181345v 7.49924h 0.181345v -7.49924h 0.181345v -2.67659h 0.36269v 2.67659h
 0.181345v -4.93962h 0.181345v -3.68945h 0.181345v 32.2566h 0.181345v -26.3041h 0.181345v -2.26303h 0.181345v 2.26303h 0.181345v -4.22335h 0.181345v -1.72913h 0.181345v 3.68945h 0.181345v 18.3913h 0.181345v -18.3913h 0.181345v 12.4389h 0.181345v
 -14.3992h 0.181345v 4.22335h 0.181345v -10.1758h 0.36269v 16.1283h 0.181345v -11.905h 0.181345v -1.54676h 0.181345v 5.23621h 0.181345v 2.26303h 0.181345v -2.26303h 0.181345v 4.93962h 0.181345v 3.27589h 0.181345v -11.905h 0.181345v 1.72913h 0.181345v
 -5.95248h 0.181345v 12.8524h 0.181345v 3.27589h 0.36269v -10.1758h 0.181345v -4.6751h 0.181345v 8.89845h 0.181345v -16.1283h 0.181345v 16.1283h 0.181345v -13.4517h 0.181345v -1.83747h 0.181345v 7.78995h 0.181345v -1.39921h 0.181345v -9.49289h
 0.181345v 1.46929h 0.181345v -3.42961h 0.181345v 1.96032h 0.181345v -4.73851h 0.181345v 6.2078h 0.181345v -2.15223h 0.181345v -3.54041h 0.181345v 1.66374h 0.181345v 2.55962h 0.181345v 2.26303h 0.181345v -9.76226h 0.181345v 5.53891h 0.181345v
 -5.53891h 0.181345v 3.80979h 0.181345v -8.13763h 0.181345v 4.7534h 0.181345v -0.425555h 0.181345v -3.02204h 0.181345v 2.60847h 0.181345v -1.54676h 0.181345v 1.54676h 0.181345v 3.68945h 0.181345v 2.88783h 0.181345v -3.90069h 0.181345v -1.39921h
 0.181345v 2.41207h 0.181345v -1.49423h 0.181345v -1.78165h 0.181345v 3.80979h 0.181345v 1.12984h 0.181345v 1.22409h 0.181345v -1.79988h 0.181345v 7.12756h 0.181345v -5.32768h 0.181345v 5.32768h 0.181345v -2.52287h 0.181345v -0.753017h 0.181345v
 5.23621h 0.181345v -5.23621h 0.181345v 11.7226h 0.181345v -1.54676h 0.181345v 3.27589h 0.544034v 1.96032h 0.181345v 12.4389h 0.181345v -16.1283h 0.181345v 16.1283h 0.181345v -16.1283h 0.181345v 11.905h 0.181345v -3.27589h 0.36269v 3.27589h 0.181345v
 -8.21551h 0.36269v -1.96032h 0.181345v 1.96032h 0.181345v 12.4389h 0.181345v -10.1758h 0.181345v 2.67659h 0.181345v 3.27589h 0.181345v -3.27589h 0.181345v 7.49924h 0.181345v -12.4389h 0.181345v 12.4389h 0.181345v -7.49924h 0.181345v 3.27589h
 0.181345v -10.1758h 0.36269v 14.3992h 0.181345v -10.1758h 0.36269v 16.1283h 0.36269v -10.1758h 0.181345v 4.22335h 0.181345v -14.3992h 0.181345v 14.3992h 0.181345v -4.22335h 0.181345v -5.95248h 0.181345v 5.95248h 0.181345v -5.95248h 0.181345v
 2.67659h 0.181345v -4.93962h 0.181345v -3.68945h 0.181345v 16.1283h 0.181345v -12.4389h 0.181345v 8.21551h 0.181345v 10.1758h 0.181345v -5.95248h 0.36269v -7.49924h 0.181345v 33.8034h 0.181345v -36.48h 0.36269v 5.95248h 0.181345v -3.27589h 0.181345v
 -11.575h 0.181345v 8.89845h 0.181345v 2.67659h 0.181345v -2.67659h 0.181345v -11.3509h 0.181345v 21.5267h 0.181345v -4.22335h 0.181345v -13.4517h 0.181345v -1.39921h 0.181345v 2.94597h 0.181345v 1.72913h 0.36269v 1.96032h 0.181345v 4.93962h
 0.181345v -14.0275h 0.181345v 5.39843h 0.181345v -6.48638h 0.181345v 12.4389h 0.181345v -14.3992h 0.181345v 12.1362h 0.181345v -10.1758h 0.181345v 4.93962h 0.181345v 1.54676h 0.181345v 1.72913h 0.181345v -8.21551h 0.181345v 2.26303h 0.181345v
 2.67659h 0.36269v 5.23621h 0.36269v -7.9128h 0.36269v 4.22335h 0.181345v -1.54676h 0.181345v -2.67659h 0.181345v -3.27589h 0.181345v 3.27589h 0.181345v 7.9128h 0.181345v 2.26303h 0.181345v -11.3509h 0.181345v 3.85167h 0.181345v 1.54676h 0.181345v
 -9.33671h 0.181345v 9.33671h 0.181345v -5.39843h 0.181345v 1.17508h 0.181345v 2.67659h 0.181345v 3.27589h 0.181345v -11.905h 0.181345v 11.905h 0.181345v -4.6751h 0.181345v 8.89845h 0.36269v -2.26303h 0.181345v -3.68945h 0.181345v 1.72913h 0.36269v
 -3.27589h 0.181345v 7.49924h 0.181345v -4.22335h 0.181345v 4.22335h 0.181345v 2.67659h 0.181345v -4.93962h 0.181345v -5.23621h 0.181345v 13.4517h 0.181345v -8.21551h 0.36269v 12.4389h 0.181345v -16.1283h 0.181345v 3.68945h 0.181345v 2.26303h
 0.181345v -4.22335h 0.181345v -4.6751h 0.181345v -1.27738h 0.181345v 5.95248h 0.181345v -7.12756h 0.181345v 3.85167h 0.181345v 1.54676h 0.181345v 5.95248h 0.181345v 26.3041h 0.181345v -36.48h 0.181345v 10.1758h 0.181345v -10.1758h 0.181345v 4.22335h
 0.181345v -5.39843h 0.181345v 3.85167h 0.181345v 3.27589h 0.181345v 1.96032h 0.181345v -3.68945h 0.181345v -2.94597h 0.181345v 6.63542h 0.181345v -12.1362h 0.181345v 5.50073h 0.181345v 2.94597h 0.181345v -6.48638h 0.181345v 6.48638h 0.181345v
 1.72913h 0.181345v -3.27589h 0.181345v -1.39921h 0.181345v 4.6751h 0.181345v 6.89994h 0.181345v -6.89994h 0.36269v -8.21551h 0.181345v 8.21551h 0.181345v -5.95248h 0.181345v 2.67659h 0.36269v 5.23621h 0.181345v -6.63542h 0.181345v 1.39921h 0.181345v
 3.27589h 0.181345v -4.6751h 0.181345v -1.27738h 0.181345v -3.27589h 0.181345v -1.83747h 0.181345v 11.0658h 0.181345v -11.0658h 0.181345v 15.2892h 0.181345v -8.89845h 0.181345v 6.63542h 0.181345v -9.08788h 0.181345v 2.45246h 0.181345v -2.45246h
 0.181345v -1.08795h 0.181345v 1.08795h 0.181345v -3.04827h 0.181345v 5.50073h 0.181345v -9.49289h 0.181345v 2.26303h 0.181345v 7.22986h 0.181345v -6.39074h 0.181345v 2.85033h 0.181345v 8.21551h 0.181345v -13.4517h 0.181345v 3.27589h 0.181345v
 6.89994h 0.181345v -7.78995h 0.181345v 1.83747h 0.181345v -1.83747h 0.181345v 1.83747h 0.181345v -6.27514h 0.181345v 13.7744h 0.181345v -6.48638h 0.181345v -1.01286h 0.181345v -2.67659h 0.181345v -5.95248h 0.181345v 4.40572h 0.181345v -0.71627h
 0.181345v 7.04043h 0.181345v -4.7774h 0.181345v 8.62907h 0.181345v -11.575h 0.181345v 4.6751h 0.181345v -0.890007h 0.36269v 1.83747h 0.181345v -4.22335h 0.181345v 3.27589h 0.181345v -3.27589h 0.181345v -4.40572h 0.181345v 4.40572h 0.181345v 4.22335h
 0.181345v -1.83747h 0.36269v -3.78509h 0.181345v 4.6751h 0.181345v -6.55177h 0.181345v -0.575784h 0.181345v 6.23755h 0.181345v -2.38588h 0.181345v -6.43385h 0.181345v 2.02813h 0.181345v -1.54676h 0.181345v 4.55327h 0.36269v -2.45246h 0.181345v
 2.45246h 0.181345v 0.682943h 0.181345v 3.10215h 0.181345v -4.43767h 0.181345v 0.652579h 0.181345v -2.45246h 0.181345v 4.60469h 0.181345v 1.63286h 0.181345v -3.78509h 0.181345v 2.94597h 0.181345v -2.26303h 0.181345v 2.26303h 0.181345v -7.00154h
 0.181345v -0.497696h 0.181345v 4.55327h 0.181345v -6.39074h 0.181345v 5.11336h 0.181345v -2.77819h 0.181345v 9.67813h 0.181345v -3.47033h 0.181345v 1.63286h 0.181345v -2.38588h 0.181345v -5.45478h 0.181345v 2.1789h 0.181345v 3.27589h 0.181345v
 -5.95248h 0.181345v 5.95248h 0.181345v -2.67659h 0.36269v -0.599292h 0.181345v -0.575784h 0.181345v -3.04827h 0.181345v 3.04827h 0.181345v 1.17508h 0.181345v -2.26303h 0.181345v -1.96032h 0.181345v -0.451747h 0.181345v 2.41207h 0.181345v -2.41207h
 0.181345v 1.39921h 0.181345v 1.54676h 0.181345v -1.04906h 0.181345v 2.1789h 0.181345v -6.14693h 0.181345v 3.96803h 0.181345v -4.72105h 0.181345v 2.38588h 0.181345v 2.85033h 0.181345v 3.54041h 0.181345v -6.39074h 0.181345v 1.83747h 0.181345v
 -2.26303h 0.181345v 0.863815h 0.181345v 0.917838h 0.181345v -5.14119h 0.181345v 0.682943h 0.181345v -1.33552h 0.181345v 3.19632h 0.181345v -1.86079h 0.36269v 2.67659h 0.181345v -2.32283h 0.181345v 0.734184h 0.181345v 0.381336h 0.181345v -3.73231h
 0.181345v 5.80344h 0.181345v -1.27738h 0.181345v 2.19522h 0.181345v -5.79377h 0.181345v 2.42347h 0.181345v -1.08795h 0.181345v 0.353767h 0.181345v -2.91338h 0.181345v 6.55177h 0.181345v -2.9042h 0.181345v 1.17508h 0.181345v -0.79374h 0.36269v
 0.79374h 0.181345v -2.26303h 0.181345v -0.345442h 0.181345v 4.80369h 0.181345v -6.41857h 0.181345v 6.89994h 0.181345v 2.10081h 0.181345v 0.575784h 0.181345v -2.67659h 0.181345v 7.49924h 0.181345v -6.48638h 0.181345v -0.515162h 0.181345v 0.515162h
 0.181345v -2.85033h 0.36269v -0.839121h 0.181345v 10.1758h 0.181345v -0.79374h 0.181345v -3.42961h 0.181345v -3.75726h 0.181345v 7.98061h 0.181345v -10.1758h 0.181345v 0.839121h 0.181345v 7.07368h 0.181345v -3.68945h 0.181345v -0.5339h 0.181345v
 0.5339h 0.181345v -1.04906h 0.181345v 2.1789h 0.181345v -0.575784h 0.181345v -2.10081h 0.181345v 5.23621h 0.36269v -1.33552h 0.181345v -3.40299h 0.181345v 1.04906h 0.181345v 4.40572h 0.181345v -2.05179h 0.181345v -0.624802h 0.181345v -2.26303h
 0.181345v 2.88783h 0.181345v 0.652579h 0.181345v -3.54041h 0.181345v 5.69264h 0.181345v 3.47033h 0.181345v -5.62256h 0.181345v 2.15223h 0.181345v -2.80481h 0.181345v -1.79988h 0.181345v 1.17508h 0.181345v 3.42961h 0.181345v -0.753017h 0.36269v
 -0.71627h 0.181345v -1.96032h 0.181345v -2.77819h 0.36269v 0.515162h 0.181345v 1.66374h 0.181345v 4.0289h 0.181345v -5.15874h 0.181345v 3.00651h 0.181345v 2.94597h 0.181345v -2.26303h 0.181345v 2.26303h 0.36269v -1.54676h 0.181345v -1.39921h
 0.181345v 2.94597h 0.181345v -2.26303h 0.181345v -3.68945h 0.181345v 4.40572h 0.181345v 4.22335h 0.181345v -7.49924h 0.181345v -0.575784h 0.181345v -0.554051h 0.544034v -1.04906h 0.181345v 5.45478h 0.181345v 0.753017h 0.181345v -6.2078h 0.181345v
 0.515162h 0.181345v 4.93962h 0.181345v -1.39921h 0.181345v 2.94597h 0.181345v -3.59855h 0.181345v -1.22409h 0.181345v -1.12984h 0.181345v 1.72913h 0.181345v 12.8524h 0.181345v -12.8524h 0.36269v -2.26303h 0.181345v 6.48638h 0.181345v -1.54676h
 0.181345v 5.23621h 0.181345v -15.412h 0.181345v 8.77662h 0.181345v 0.682943h 0.181345v -4.22335h 0.181345v 4.22335h 0.181345v -5.23621h 0.181345v 5.95248h 0.181345v -4.40572h 0.181345v 3.00651h 0.181345v -1.27738h 0.181345v 5.06247h 0.181345v
 -5.66176h 0.181345v 4.0289h 0.181345v -0.753017h 0.181345v 7.49924h 0.181345v -11.905h 0.181345v -1.04906h 0.181345v 0.515162h 0.181345v 1.66374h 0.181345v -4.51407h 0.181345v 6.39074h 0.181345v -1.87667h 0.181345v 0.599292h 0.181345v 0.624802h
 0.181345v -1.79988h 0.181345v 3.85167h 0.181345v -5.95248h 0.181345v 2.67659h 0.181345v -3.15797h 0.181345v 10.6572h 0.181345v -9.67813h 0.181345v 4.73851h 0.181345v -6.63542h 0.181345v 1.39921h 0.181345v -3.85167h 0.181345v 2.9042h 0.181345v
 7.65296h 0.181345v -8.96852h 0.181345v 7.49924h 0.181345v -4.22335h 0.181345v 2.26303h 0.181345v -4.6751h 0.181345v 0.917838h 0.181345v 7.18687h 0.181345v -8.54297h 0.181345v 2.85033h 0.36269v 3.54041h 0.181345v -6.81629h 0.181345v 3.80979h
 0.181345v -2.02813h 0.181345v 0.979071h 0.181345v -2.33517h 0.181345v 1.83747h 0.181345v 3.27589h 0.181345v 1.96032h 0.181345v -2.55962h 0.181345v -2.1789h 0.181345v 2.1789h 0.181345v 2.55962h 0.181345v -3.68945h 0.181345v -2.94597h 0.181345v
 2.94597h 0.36269v 2.35393h 0.181345v -0.624802h 0.181345v -3.75726h 0.181345v -1.78165h 0.181345v 2.26303h 0.181345v -3.47033h 0.181345v 6.74622h 0.181345v -0.599292h 0.181345v -0.575784h 0.181345v -5.57114h 0.181345v 2.52287h 0.181345v 3.04827h
 0.181345v -4.7774h 0.181345v 1.72913h 0.181345v -3.99216h 0.181345v 5.95248h 0.181345v -4.09169h 0.181345v -1.86079h 0.181345v -2.85033h 0.181345v 11.6906h 0.181345v -6.16371h 0.181345v -1.58864h 0.181345v -0.734184h 0.181345v 2.32283h 0.181345v
 -1.96032h 0.181345v 2.38588h 0.181345v 0.43826h 0.181345v -2.45246h 0.181345v -0.371681h 0.544034v -1.72913h 0.181345v 3.68945h 0.181345v -4.32784h 0.181345v 6.10949h 0.36269v 2.02813h 0.181345v -5.39843h 0.181345v 0.381336h 0.181345v 6.74622h
 0.181345v -6.74622h 0.181345v 0.79374h 0.181345v 0.839121h 0.36269v -1.63286h 0.181345v 1.20731h 0.181345v 1.31556h 0.181345v 3.04827h 0.181345v 0.575784h 0.181345v -2.1789h 0.181345v -3.17429h 0.181345v 4.7774h 0.181345v 3.85167h 0.181345v
 -6.89994h 0.181345v 3.62406h 0.181345v -2.67659h 0.181345v 3.27589h 0.181345v -5.95248h 0.181345v 5.35319h 0.181345v 3.27589h 0.181345v -5.95248h 0.181345v 3.90069h 0.181345v 2.80481h 0.181345v -3.42961h 0.181345v 4.22335h 0.181345v -2.94597h
 0.181345v -1.87667h 0.181345v 4.82264h 0.36269v -4.22335h 0.181345v 0.624802h 0.181345v -3.40299h 0.181345v 12.954h 0.181345v -10.1758h 0.181345v 4.22335h 0.36269v -3.59855h 0.181345v 4.43767h 0.181345v -0.839121h 0.181345v -2.26303h 0.181345v
 -4.73851h 0.181345v 2.1789h 0.181345v 0.599292h 0.181345v -0.599292h 0.36269v -2.1789h 0.181345v -2.33517h 0.181345v 5.11336h 0.181345v -5.95248h 0.181345v 0.839121h 0.181345v 8.54297h 0.181345v -1.46929h 0.181345v 0.71627h 0.181345v -2.05179h
 0.181345v -2.35393h 0.36269v 1.72913h 0.181345v -2.26303h 0.181345v 0.5339h 0.181345v -3.38423h 0.181345v 7.07368h 0.181345v -6.18367h 0.181345v 8.4467h 0.181345v -1.54676h 0.181345v -1.39921h 0.181345v -3.54041h 0.181345v -0.515162h 0.181345v
 1.60311h 0.181345v 7.12756h 0.181345v -10.1758h 0.181345v -1.72913h 0.181345v 0.839121h 0.181345v 2.85033h 0.181345v 4.93962h 0.181345v -0.71627h 0.36269v 2.26303h 0.181345v -7.49924h 0.181345v 5.23621h 0.181345v 4.93962h 0.181345v -3.47033h
 0.181345v -0.753017h 0.181345v -3.27589h 0.181345v 7.49924h 0.181345v 2.10081h 0.181345v -6.32416h 0.181345v 4.22335h 0.181345v 4.55327h 0.181345v -5.50073h 0.181345v -5.32768h 0.181345v 8.37595h 0.36269v -2.10081h 0.36269v 2.10081h 0.181345v
 1.17508h 0.181345v -7.49924h 0.181345v -2.05179h 0.181345v 10.8284h 0.181345v -6.39074h 0.181345v 5.11336h 0.544034v 4.22335h 0.181345v -4.22335h 0.181345v -4.22335h 0.181345v 3.04827h 0.544034v 3.85167h 0.181345v 3.27589h 0.181345v -8.21551h
 0.181345v 10.1758h 0.181345v -10.1758h 0.181345v 8.21551h 0.181345v -4.6751h 0.181345v 2.94597h 0.181345v 5.95248h 0.181345v -11.3509h 0.181345v 1.17508h 0.181345v 10.1758h 0.181345v -17.6751h 0.181345v 11.7226h 0.181345v -5.39843h 0.181345v
 3.85167h 0.181345v 1.54676h 0.181345v -8.4467h 0.181345v 0.947466h 0.36269v 2.10081h 0.181345v 1.17508h 0.181345v 4.22335h 0.181345v -1.54676h 0.181345v 1.54676h 0.181345v -1.54676h 0.181345v -5.95248h 0.181345v 3.27589h 0.36269v -2.26303h 0.181345v
 -1.01286h 0.181345v 2.10081h 0.181345v -3.04827h 0.181345v -2.52287h 0.181345v 6.74622h 0.181345v -3.27589h 0.181345v 7.49924h 0.181345v -5.39843h 0.181345v 7.12756h 0.181345v -1.72913h 0.181345v -5.39843h 0.181345v 3.85167h 0.181345v -11.575h
 0.181345v 7.72337h 0.181345v -3.04827h 0.181345v 1.96032h 0.181345v -5.95248h 0.181345v 2.26303h 0.181345v 8.62907h 0.181345v 7.49924h 0.181345v -8.89845h 0.181345v 2.94597h 0.181345v 1.72913h 0.181345v -9.22836h 0.181345v 3.27589h 0.181345v
 1.27738h 0.181345v -2.45246h 0.181345v 3.85167h 0.181345v 3.27589h 0.181345v -3.27589h 0.181345v -2.67659h 0.181345v -4.22335h 0.181345v 8.4467h 0.181345v -10.1758h 0.181345v 1.72913h 0.181345v 0.947466h 0.181345v 3.27589h 0.36269v -2.26303h
 0.181345v -1.01286h 0.181345v 9.22836h 0.181345v -10.1758h 0.36269v 4.22335h 0.181345v -5.11336h 0.544034v -2.38588h 0.181345v 10.1758h 0.181345v -3.85167h 0.181345v 11.3509h 0.181345v -10.1758h 0.181345v -2.26303h 0.181345v -2.85033h 0.181345v
 5.11336h 0.181345v -1.17508h 0.181345v -3.04827h 0.181345v 3.04827h 0.181345v 3.85167h 0.36269v -4.93962h 0.181345v -4.48319h 0.181345v 12.6987h 0.181345v -7.12756h 0.181345v 5.39843h 0.181345v -4.22335h 0.181345v -4.22335h 0.181345v -3.99216h
 0.181345v 3.99216h 0.181345v -0.890007h 0.36269v 6.39074h 0.181345v -3.54041h 0.181345v 2.26303h 0.181345v -7.49924h 0.181345v 4.22335h 0.181345v 5.95248h 0.36269v -11.575h 0.181345v 1.39921h 0.36269v 2.38588h 0.181345v 0.890007h 0.181345v -5.95248h
 0.181345v 6.89994h 0.181345v -4.93962h 0.181345v 1.46929h 0.181345v -2.15223h 0.181345v 1.39921h 0.181345v 1.54676h 0.181345v 5.95248h 0.181345v -2.26303h 0.181345v -10.1758h 0.181345v 15.1155h 0.181345v -15.1155h 0.181345v 8.21551h 0.181345v
 -5.95248h 0.181345v 0.624802h 0.181345v -1.22409h 0.181345v -1.66374h 0.181345v 4.22335h 0.181345v -1.96032h 0.181345v 5.06247h 0.181345v -7.3255h 0.181345v 3.54041h 0.181345v -9.13912h 0.181345v 8.48654h 0.181345v 0.652579h 0.181345v -3.00651h
 0.181345v 1.72913h 0.181345v 0.624802h 0.181345v 0.652579h 0.181345v -5.03464h 0.181345v 5.71758h 0.181345v -1.96032h 0.181345v -1.72913h 0.181345v -1.04906h 0.181345v -0.497696h 0.181345v 2.10081h 0.181345v -2.10081h 0.181345v 1.01286h 0.181345v
 -4.09169h 0.181345v 6.35471h 0.181345v -0.599292h 0.181345v -3.15797h 0.181345v 0.481375h 0.181345v 0.497696h 0.181345v 5.45478h 0.181345v -6.89994h 0.181345v 1.96032h 0.181345v 0.5339h 0.181345v 5.15874h 0.181345v -6.7055h 0.181345v -2.26303h
 0.181345v 6.81629h 0.181345v -6.81629h 0.181345v 1.78165h 0.36269v 0.979071h 0.181345v -0.497696h 0.181345v 2.67659h 0.181345v -2.67659h 0.181345v 1.01286h 0.181345v 6.48638h 0.181345v -4.82264h 0.181345v 16.7276h 0.181345v -14.168h 0.181345v
 2.26303h 0.181345v 0.839121h 0.181345v -4.43767h 0.36269v 4.43767h 0.181345v -5.66176h 0.181345v 9.60005h 0.181345v -7.72337h 0.181345v 4.6751h 0.181345v 3.04827h 0.181345v -6.32416h 0.181345v 4.22335h 0.181345v 4.55327h 0.36269v -5.50073h 0.181345v
 -0.890007h 0.181345v 2.85033h 0.181345v 4.93962h 0.181345v -2.67659h 0.36269v 4.22335h 0.181345v 5.95248h 0.181345v -5.95248h 0.181345v 5.95248h 0.181345v 2.67659h 0.181345v -16.1283h 0.181345v 4.55327h 0.181345v 1.39921h 0.181345v 5.23621h
 0.181345v 4.93962h 0.181345v -2.67659h 0.181345v 5.95248h 0.181345v 4.22335h 0.181345v -14.3992h 0.181345v 6.89994h 0.36269v -2.67659h 0.36269v -5.95248h 0.181345v 3.68945h 0.181345v 8.21551h 0.181345v 10.1758h 0.36269v -20.3517h 0.181345v 10.1758h
 0.181345v 10.1758h 0.181345v -10.1758h 0.544034v 20.3517h 0.181345v -23.6275h 0.181345v 3.27589h 0.181345v 10.1758h 0.36269v -13.4517h 0.181345v 13.4517h 0.181345v 10.1758h 0.181345v -16.1283h 0.181345v 5.95248h 0.181345v 20.3517h 0.181345v
 -10.1758h 0.181345v -16.1283h 0.181345v 5.95248h 0.181345v -5.95248h 0.181345v 16.1283h 0.181345v -16.1283h 0.181345v 16.1283h 0.181345v -10.1758h 0.181345v -5.95248h 0.181345v -10.1758h 0.181345v 36.48h 0.181345v -26.3041h 0.181345v 16.1283h
 0.181345v -10.1758h 0.181345v -13.4517h 0.181345v -4.93962h 0.181345v 18.3913h 0.181345v -5.95248h 0.36269v 5.95248h 0.181345v 20.3517h 0.181345v -20.3517h 0.544034v 10.1758h 0.181345v -16.1283h 0.181345v -4.22335h 0.181345v 20.3517h 0.181345v
 -20.3517h 0.181345v -3.27589h 0.181345v 13.4517h 0.181345v 10.1758h 0.181345v -10.1758h 0.181345v -13.4517h 0.181345v 13.4517h 0.181345v 10.1758h 0.906724v -16.1283h 0.181345v 5.95248h 0.181345v 10.1758h 0.181345v -16.1283h 0.181345v 16.1283h
 0.181345v 10.1758h 0.181345v -10.1758h 0.181345v 10.1758h 0.181345v -20.3517h 0.181345v 10.1758h 0.544034v -10.1758h 0.181345v 10.1758h 0.181345v -16.1283h 0.181345v 26.3041h 0.181345v -10.1758h 0.181345v -16.1283h 0.181345v 5.95248h 0.181345v
 -5.95248h 0.181345v 5.95248h 0.181345v -10.1758h 0.181345v 20.3517h 0.181345v -10.1758h 0.36269v -5.95248h 0.181345v 26.3041h 0.181345v -10.1758h 0.181345v -10.1758h 0.181345v -5.95248h 0.36269v -7.49924h 0.181345v 13.4517h 0.181345v -5.95248h
 0.181345v 16.1283h 0.36269v 10.1758h 0.181345v -20.3517h 0.181345v -10.1758h 0.544034v 20.3517h 0.181345v 10.1758h 0.181345v -20.3517h 0.181345v 10.1758h 0.181345v 10.1758h 0.181345v -20.3517h 0.181345v -13.4517h 0.181345v 33.8034h 0.181345v
 -10.1758h 0.36269v 10.1758h 0.181345v -26.3041h 0.181345v 16.1283h 0.181345v -16.1283h 0.181345v 26.3041h 0.181345v -20.3517h 0.36269v 20.3517h 0.181345v -10.1758h 0.181345v 10.1758h 0.181345v -10.1758h 1.26941v 10.1758h 0.181345v -10.1758h
 0.181345v -10.1758h 0.36269v 10.1758h 0.181345v -16.1283h 0.36269v 26.3041h 0.36269v -10.1758h 0.181345v 10.1758h 0.181345v -10.1758h 0.181345v -10.1758h 0.181345v 10.1758h 0.181345v -16.1283h 0.181345v 16.1283h 0.36269v -10.1758h 0.181345v 20.3517h
 0.181345v -20.3517h 0.181345v -10.1758h 0.181345v 30.5275h 0.544034v -30.5275h 0.181345v 30.5275h 0.181345v -20.3517h 0.181345v 20.3517h 0.181345v -20.3517h 0.181345v 10.1758h 0.181345v -16.1283h 0.181345v 26.3041h 0.36269v -10.1758h 0.36269v
 -16.1283h 0.181345v 16.1283h 0.181345v 10.1758h 0.36269v -20.3517h 0.181345v -5.95248h 0.181345v 26.3041h 0.181345v -10.1758h 0.544034v 10.1758h 0.181345v -20.3517h 0.725379v -13.4517h 0.181345v 13.4517h 0.181345v 10.1758h 0.36269v -20.3517h
 0.181345v 20.3517h 0.181345v -10.1758h 0.181345v 20.3517h 0.36269v -10.1758h 0.181345v 10.1758h 0.181345v -20.3517h 0.181345v -5.95248h 0.181345v -4.22335h 0.36269v 20.3517h 0.181345v -10.1758h 0.181345v 10.1758h 0.36269v -16.1283h 0.181345v
 16.1283h 0.181345v 10.1758h 0.181345v -26.3041h 0.181345v 26.3041h 0.36269v -20.3517h 0.181345v -5.95248h 0.181345v 5.95248h 0.181345v 20.3517h 0.181345v -26.3041h 0.181345v 5.95248h 0.181345v 10.1758h 0.181345v -10.1758h 0.544034v 20.3517h
 0.181345v -10.1758h 0.181345v -16.1283h 0.181345v 5.95248h 0.36269v 10.1758h 0.181345v 10.1758h 0.36269v -20.3517h 0.181345v 10.1758h 0.181345v -10.1758h 0.36269v 10.1758h 0.544034v 10.1758h 0.36269v -20.3517h 0.181345v 20.3517h 0.36269v -20.3517h
 0.36269v -10.1758h 0.181345v 4.22335h 0.181345v 5.95248h 0.181345v -10.1758h 0.36269v 10.1758h 0.181345v 20.3517h 0.36269v -10.1758h 0.181345v -10.1758h 0.725379v -5.95248h 0.36269v 16.1283h 0.544034v -10.1758h 0.36269v -10.1758h 0.181345v 30.5275h
 0.181345v -10.1758h 0.36269v -16.1283h 0.181345v -4.22335h 0.181345v 4.22335h 0.181345v 16.1283h 0.181345v -10.1758h 0.36269v 10.1758h 0.181345v 10.1758h 0.181345v -10.1758h 0.544034v -16.1283h 0.181345v 16.1283h 0.181345v -10.1758h 0.181345v
 10.1758h 0.181345v -10.1758h 0.36269v 10.1758h 0.36269v 10.1758h 0.181345v -20.3517h 0.181345v 10.1758h 0.181345" fill="none" stroke="black"/>
<path d="M57.1929,280.151h 453.543" fill="none" stroke="black"/>
<path d="M57.1929,272.68v 7.47068" fill="none" stroke="black"/>
<path d="M75.3318,276.415v 3.73534" fill="none" stroke="black"/>
<path d="M93.4707,276.415v 3.73534" fill="none" stroke="black"/>
<path d="M111.61,276.415v 3.73534" fill="none" stroke="black"/>
<path d="M129.749,276.415v 3.73534" fill="none" stroke="black"/>
<path d="M147.887,272.68v 7.47068" fill="none" stroke="black"/>
<path d="M166.026,276.415v 3.73534" fill="none" stroke="black"/>
<path d="M184.165,276.415v 3.73534" fill="none" stroke="black"/>
<path d="M202.304,276.415v 3.73534" fill="none" stroke="black"/>
<path d="M220.443,276.415v 3.73534" fill="none" stroke="black"/>
<path d="M238.582,272.68v 7.47068" fill="none" stroke="black"/>
<path d="M256.721,276.415v 3.73534" fill="none" stroke="black"/>
<path d="M274.86,276.415v 3.73534" fill="none" stroke="black"/>
<path d="M292.999,276.415v 3.73534" fill="none" stroke="black"/>
<path d="M311.138,276.415v 3.73534" fill="none" stroke="black"/>
<path d="M329.277,272.68v 7.47068" fill="none" stroke="black"/>
<path d="M347.415,276.415v 3.73534" fill="none" stroke="black"/>
<path d="M365.554,276.415v 3.73534" fill="none" stroke="black"/>
<path d="M383.693,276.415v 3.73534" fill="none" stroke="black"/>
<path d="M401.832,276.415v 3.73534" fill="none" stroke="black"/>
<path d="M419.971,272.68v 7.47068" fill="none" stroke="black"/>
<path d="M438.11,276.415v 3.73534" fill="none" stroke="black"/>
<path d="M456.249,276.415v 3.73534" fill="none" stroke="black"/>
<path d="M474.388,276.415v 3.73534" fill="none" stroke="black"/>
<path d="M492.527,276.415v 3.73534" fill="none" stroke="black"/>
<path d="M510.666,272.68v 7.47068" fill="none" stroke="black"/>
<path d="M510.666,272.68v 7.47068" fill="none" stroke="black"/>
<text xml:space="preserve" x="54.3523" y="290.27" fill="black" font-size="10.4952" font-family="Helvetica">0</text>
<text xml:space="preserve" x="139.569" y="290.27" fill="black" font-size="10.4952" font-family="Helvetica">500</text>
<text xml:space="preserve" x="227.449" y="290.27" fill="black" font-size="10.4952" font-family="Helvetica">1000</text>
<text xml:space="preserve" x="318.288" y="290.27" fill="black" font-size="10.4952" font-family="Helvetica">1500</text>
<text xml:space="preserve" x="408.831" y="290.27" fill="black" font-size="10.4952" font-family="Helvetica">2000</text>
<text xml:space="preserve" x="499.67" y="290.27" fill="black" font-size="10.4952" font-family="Helvetica">2500</text>
<text xml:space="preserve" x="265.323" y="301.218" fill="black" font-size="10.4952" font-family="Helvetica">Channel</text>
<path d="M57.1929,280.151v -249.023" fill="none" stroke="black"/>
<path d="M63.9961,280.151h -6.80315" fill="none" stroke="black"/>
<path d="M63.9961,277.474h -6.80315" fill="none" stroke="black"/>
<path d="M63.9961,275.211h -6.80315" fill="none" stroke="black"/>
<path d="M63.9961,273.251h -6.80315" fill="none" stroke="black"/>
<path d="M63.9961,271.521h -6.80315" fill="none" stroke="black"/>
<path d="M70.7992,269.975h -13.6063" fill="none" stroke="black"/>
<text xml:space="preserve" x="49.0263" y="273.7" fill="black" font-size="10.4952" font-family="Helvetica">1</text>
<path d="M63.9961,259.799h -6.80315" fill="none" stroke="black"/>
<path d="M63.9961,253.846h -6.80315" fill="none" stroke="black"/>
<path d="M63.9961,249.623h -6.80315" fill="none" stroke="black"/>
<path d="M63.9961,246.347h -6.80315" fill="none" stroke="black"/>
<path d="M63.9961,243.671h -6.80315" fill="none" stroke="black"/>
<path d="M63.9961,241.408h -6.80315" fill="none" stroke="black"/>
<path d="M63.9961,239.447h -6.80315" fill="none" stroke="black"/>
<path d="M63.9961,237.718h -6.80315" fill="none" stroke="black"/>
<path d="M70.7992,236.171h -13.6063" fill="none" stroke="black"/>
<text xml:space="preserve" x="41.629" y="239.968" fill="black" font-size="10.4952" font-family="Helvetica">10</text>
<path d="M63.9961,225.995h -6.80315" fill="none" stroke="black"/>
<path d="M63.9961,220.043h -6.80315" fill="none" stroke="black"/>
<path d="M63.9961,215.82h -6.80315" fill="none" stroke="black"/>
<path d="M63.9961,212.544h -6.80315" fill="none" stroke="black"/>
<path d="M63.9961,209.867h -6.80315" fill="none" stroke="black"/>
<path d="M63.9961,207.604h -6.80315" fill="none" stroke="black"/>
<path d="M63.9961,205.644h -6.80315" fill="none" stroke="black"/>
<path d="M63.9961,203.915h -6.80315" fill="none" stroke="black"/>
<path d="M70.7992,202.368h -13.6063" fill="none" stroke="black"/>
<text xml:space="preserve" x="49.0263" y="202.39" fill="black" font-size="7.16345" font-family="Helvetica">2</text>
<text xml:space="preserve" x="38.0783" y="206.829" fill="black" font-size="10.4952" font-family="Helvetica">10</text>
<path d="M63.9961,192.192h -6.80315" fill="none" stroke="black"/>
<path d="M63.9961,186.24h -6.80315" fill="none" stroke="black"/>
<path d="M63.9961,182.016h -6.80315" fill="none" stroke="black"/>
<path d="M63.9961,178.74h -6.80315" fill="none" stroke="black"/>
<path d="M63.9961,176.064h -6.80315" fill="none" stroke="black"/>
<path d="M63.9961,173.801h -6.80315" fill="none" stroke="black"/>
<path d="M63.9961,171.84h -6.80315" fill="none" stroke="black"/>
<path d="M63.9961,170.111h -6.80315" fill="none" stroke="black"/>
<path d="M70.7992,168.565h -13.6063" fill="none" stroke="black"/>
<text xml:space="preserve" x="49.0263" y="168.363" fill="black" font-size="7.16345" font-family="Helvetica">3</text>
<text xml:space="preserve" x="38.0783" y="173.097" fill="black" font-size="10.4952" font-family="Helvetica">10</text>
<path d="M63.9961,158.389h -6.80315" fill="none" stroke="black"/>
<path d="M63.9961,152.436h -6.80315" fill="none" stroke="black"/>
<path d="M63.9961,148.213h -6.80315" fill="none" stroke="black"/>
<path d="M63.9961,144.937h -6.80315" fill="none" stroke="black"/>
<path d="M63.9961,142.26h -6.80315" fill="none" stroke="black"/>
<path d="M63.9961,139.997h -6.80315" fill="none" stroke="black"/>
<path d="M63.9961,138.037h -6.80315" fill="none" stroke="black"/>
<path d="M63.9961,136.308h -6.80315" fill="none" stroke="black"/>
<path d="M70.7992,134.761h -13.6063" fill="none" stroke="black"/>
<text xml:space="preserve" x="49.0263" y="134.927" fill="black" font-size="7.16345" font-family="Helvetica">4</text>
<text xml:space="preserve" x="38.0783" y="139.365" fill="black" font-size="10.4952" font-family="Helvetica">10</text>
<path d="M63.9961,124.585h -6.80315" fill="none" stroke="black"/>
<path d="M63.9961,118.633h -6.80315" fill="none" stroke="black"/>
<path d="M63.9961,114.41h -6.80315" fill="none" stroke="black"/>
<path d="M63.9961,111.134h -6.80315" fill="none" stroke="black"/>
<path d="M63.9961,108.457h -6.80315" fill="none" stroke="black"/>
<path d="M63.9961,106.194h -6.80315" fill="none" stroke="black"/>
<path d="M63.9961,104.234h -6.80315" fill="none" stroke="black"/>
<path d="M63.9961,102.505h -6.80315" fill="none" stroke="black"/>
<path d="M70.7992,100.958h -13.6063" fill="none" stroke="black"/>
<text xml:space="preserve" x="49.0263" y="100.899" fill="black" font-size="7.16345" font-family="Helvetica">5</text>
<text xml:space="preserve" x="38.0783" y="105.633" fill="black" font-size="10.4952" font-family="Helvetica">10</text>
<path d="M63.9961,90.782h -6.80315" fill="none" stroke="black"/>
<path d="M63.9961,84.8295h -6.80315" fill="none" stroke="black"/>
<path d="M63.9961,80.6062h -6.80315" fill="none" stroke="black"/>
<path d="M63.9961,77.3303h -6.80315" fill="none" stroke="black"/>
<path d="M63.9961,74.6537h -6.80315" fill="none" stroke="black"/>
<path d="M63.9961,72.3907h -6.80315" fill="none" stroke="black"/>
<path d="M63.9961,70.4304h -6.80315" fill="none" stroke="black"/>
<path d="M63.9961,68.7012h -6.80315" fill="none" stroke="black"/>
<path d="M70.7992,67.1545h -13.6063" fill="none" stroke="black"/>
<text xml:space="preserve" x="49.0263" y="66.8716" fill="black" font-size="7.16345" font-family="Helvetica">6</text>
<text xml:space="preserve" x="38.0783" y="71.6059" fill="black" font-size="10.4952" font-family="Helvetica">10</text>
<path d="M63.9961,56.9786h -6.80315" fill="none" stroke="black"/>
<path d="M63.9961,51.0262h -6.80315" fill="none" stroke="black"/>
<path d="M63.9961,46.8028h -6.80315" fill="none" stroke="black"/>
<path d="M63.9961,43.5269h -6.80315" fill="none" stroke="black"/>
<path d="M63.9961,40.8503h -6.80315" fill="none" stroke="black"/>
<path d="M63.9961,38.5873h -6.80315" fill="none" stroke="black"/>
<path d="M63.9961,36.627h -6.80315" fill="none" stroke="black"/>
<path d="M63.9961,34.8979h -6.80315" fill="none" stroke="black"/>
<path d="M70.7992,33.3511h -13.6063" fill="none" stroke="black"/>
<text xml:space="preserve" x="49.0263" y="33.4358" fill="black" font-size="7.16345" font-family="Helvetica">7</text>
<text xml:space="preserve" x="38.0783" y="37.8742" fill="black" font-size="10.4952" font-family="Helvetica">10</text>
<g transform="rotate(-90,26.5385,191.442)">
<text xml:space="preserve" x="26.5385" y="191.442" fill="black" font-size="10.4952" font-family="Helvetica">Counts/Channel</text>
</g>
<text xml:space="preserve" x="404.097" y="66.8716" fill="black" font-size="14.7788" font-family="Helvetica" font-weight="bold"> = 2.4879 MeV</text>
<text xml:space="preserve" x="398.179" y="70.1264" fill="black" font-size="10.0192" font-family="Helvetica" font-weight="bold">p</text>
<text xml:space="preserve" x="389.006" y="66.8716" fill="black" font-size="14.7788" font-family="Helvetica" font-weight="bold">E</text>
<path d="M262.163,167.165v 25.2816" fill="none" stroke="black"/>
<path d="M264.454,192.447l -2.29122, 3.9685l -2.29122, -3.9685z" fill="black"/>
<path d="M264.454,192.447l -2.29122, 3.9685l -2.29122, -3.9685h 4.58243z" fill="none" stroke="black"/>
<text xml:space="preserve" x="266.803" y="165.108" fill="black" font-size="10.4952" font-family="Helvetica" font-weight="bold">_1 	1.369 MeV</text>
<text xml:space="preserve" x="260.293" y="165.108" fill="black" font-size="10.4952" font-family="Times">&#0945;</text>
<path d="M184.528,134.761v 29.8349" fill="none" stroke="black"/>
<path d="M186.819,164.596l -2.29122, 3.9685l -2.29122, -3.9685z" fill="black"/>
<path d="M186.819,164.596l -2.29122, 3.9685l -2.29122, -3.9685h 4.58243z" fill="none" stroke="black"/>
<text xml:space="preserve" x="172.117" y="131.968" fill="black" font-size="10.4952" font-family="Helvetica" font-weight="bold"># p_1 	0.844 MeV</text>
<path d="M210.104,152.436v 12.1598" fill="none" stroke="black"/>
<path d="M212.395,164.596l -2.29122, 3.9685l -2.29122, -3.9685z" fill="black"/>
<path d="M212.395,164.596l -2.29122, 3.9685l -2.29122, -3.9685h 4.58243z" fill="none" stroke="black"/>
<text xml:space="preserve" x="197.564" y="147.946" fill="black" font-size="10.4952" font-family="Helvetica" font-weight="bold"># p_2 	1.015 MeV</text>
<path d="M497.989,269.975h 12.6764" fill="none" stroke="black"/>
<path d="M504.327,259.799h 6.33819" fill="none" stroke="black"/>
<path d="M504.327,253.846h 6.33819" fill="none" stroke="black"/>
<path d="M504.327,249.623h 6.33819" fill="none" stroke="black"/>
<path d="M504.327,246.347h 6.33819" fill="none" stroke="black"/>
<path d="M504.327,243.671h 6.33819" fill="none" stroke="black"/>
<path d="M504.327,241.408h 6.33819" fill="none" stroke="black"/>
<path d="M504.327,239.447h 6.33819" fill="none" stroke="black"/>
<path d="M504.327,237.718h 6.33819" fill="none" stroke="black"/>
<path d="M497.989,236.171h 12.6764" fill="none" stroke="black"/>
<path d="M504.327,225.995h 6.33819" fill="none" stroke="black"/>
<path d="M504.327,220.043h 6.33819" fill="none" stroke="black"/>
<path d="M504.327,215.82h 6.33819" fill="none" stroke="black"/>
<path d="M504.327,212.544h 6.33819" fill="none" stroke="black"/>
<path d="M504.327,209.867h 6.33819" fill="none" stroke="black"/>
<path d="M504.327,207.604h 6.33819" fill="none" stroke="black"/>
<path d="M504.327,205.644h 6.33819" fill="none" stroke="black"/>
<path d="M504.327,203.915h 6.33819" fill="none" stroke="black"/>
<path d="M497.989,202.368h 12.6764" fill="none" stroke="black"/>
<path d="M504.327,192.192h 6.33819" fill="none" stroke="black"/>
<path d="M504.327,186.24h 6.33819" fill="none" stroke="black"/>
<path d="M504.327,182.016h 6.33819" fill="none" stroke="black"/>
<path d="M504.327,178.74h 6.33819" fill="none" stroke="black"/>
<path d="M504.327,176.064h 6.33819" fill="none" stroke="black"/>
<path d="M504.327,173.801h 6.33819" fill="none" stroke="black"/>
<path d="M504.327,171.84h 6.33819" fill="none" stroke="black"/>
<path d="M504.327,170.111h 6.33819" fill="none" stroke="black"/>
<path d="M497.989,168.565h 12.6764" fill="none" stroke="black"/>
<path d="M504.327,158.389h 6.33819" fill="none" stroke="black"/>
<path d="M504.327,152.436h 6.33819" fill="none" stroke="black"/>
<path d="M504.327,148.213h 6.33819" fill="none" stroke="black"/>
<path d="M504.327,144.937h 6.33819" fill="none" stroke="black"/>
<path d="M504.327,142.26h 6.33819" fill="none" stroke="black"/>
<path d="M504.327,139.997h 6.33819" fill="none" stroke="black"/>
<path d="M504.327,138.037h 6.33819" fill="none" stroke="black"/>
<path d="M504.327,136.308h 6.33819" fill="none" stroke="black"/>
<path d="M497.989,134.761h 12.6764" fill="none" stroke="black"/>
<path d="M504.327,124.585h 6.33819" fill="none" stroke="black"/>
<path d="M504.327,118.633h 6.33819" fill="none" stroke="black"/>
<path d="M504.327,114.41h 6.33819" fill="none" stroke="black"/>
<path d="M504.327,111.134h 6.33819" fill="none" stroke="black"/>
<path d="M504.327,108.457h 6.33819" fill="none" stroke="black"/>
<path d="M504.327,106.194h 6.33819" fill="none" stroke="black"/>
<path d="M504.327,104.234h 6.33819" fill="none" stroke="black"/>
<path d="M504.327,102.505h 6.33819" fill="none" stroke="black"/>
<path d="M497.989,100.958h 12.6764" fill="none" stroke="black"/>
<path d="M504.327,90.782h 6.33819" fill="none" stroke="black"/>
<path d="M504.327,84.8295h 6.33819" fill="none" stroke="black"/>
<path d="M504.327,80.6062h 6.33819" fill="none" stroke="black"/>
<path d="M504.327,77.3303h 6.33819" fill="none" stroke="black"/>
<path d="M504.327,74.6537h 6.33819" fill="none" stroke="black"/>
<path d="M504.327,72.3907h 6.33819" fill="none" stroke="black"/>
<path d="M504.327,70.4304h 6.33819" fill="none" stroke="black"/>
<path d="M504.327,68.7012h 6.33819" fill="none" stroke="black"/>
<path d="M497.989,67.1545h 12.6764" fill="none" stroke="black"/>
<path d="M504.327,56.9786h 6.33819" fill="none" stroke="black"/>
<path d="M504.327,51.0262h 6.33819" fill="none" stroke="black"/>
<path d="M504.327,46.8028h 6.33819" fill="none" stroke="black"/>
<path d="M504.327,43.5269h 6.33819" fill="none" stroke="black"/>
<path d="M504.327,40.8503h 6.33819" fill="none" stroke="black"/>
<path d="M504.327,38.5873h 6.33819" fill="none" stroke="black"/>
<path d="M57.1929,45.4408v -7.46952" fill="none" stroke="black"/>
<path d="M75.3318,45.4408v -7.46952" fill="none" stroke="black"/>
<path d="M93.4707,45.4408v -7.46952" fill="none" stroke="black"/>
<path d="M111.61,45.4408v -7.46952" fill="none" stroke="black"/>
<path d="M129.749,45.4408v -7.46952" fill="none" stroke="black"/>
<path d="M147.887,45.4408v -7.46952" fill="none" stroke="black"/>
<path d="M166.026,45.4408v -7.46952" fill="none" stroke="black"/>
<path d="M184.165,45.4408v -7.46952" fill="none" stroke="black"/>
<path d="M202.304,45.4408v -7.46952" fill="none" stroke="black"/>
<path d="M220.443,45.4408v -7.46952" fill="none" stroke="black"/>
<path d="M238.582,45.4408v -7.46952" fill="none" stroke="black"/>
<path d="M256.721,45.4408v -7.46952" fill="none" stroke="black"/>
<path d="M274.86,45.4408v -7.46952" fill="none" stroke="black"/>
<path d="M292.999,45.4408v -7.46952" fill="none" stroke="black"/>
<path d="M311.138,45.4408v -7.46952" fill="none" stroke="black"/>
<path d="M329.277,45.4408v -7.46952" fill="none" stroke="black"/>
<path d="M347.415,45.4408v -7.46952" fill="none" stroke="black"/>
<path d="M365.554,45.4408v -7.46952" fill="none" stroke="black"/>
<path d="M383.693,45.4408v -7.46952" fill="none" stroke="black"/>
<path d="M401.832,45.4408v -7.46952" fill="none" stroke="black"/>
<path d="M419.971,45.4408v -7.46952" fill="none" stroke="black"/>
<path d="M438.11,45.4408v -7.46952" fill="none" stroke="black"/>
<path d="M456.249,45.4408v -7.46952" fill="none" stroke="black"/>
<path d="M474.388,45.4408v -7.46952" fill="none" stroke="black"/>
<path d="M492.527,45.4408v -7.46952" fill="none" stroke="black"/>
<path d="M510.666,45.4408v -7.46952" fill="none" stroke="black"/></svg>
