<?xml version="1.0" standalone="no"?>
<svg width="567.429" height="311.778" viewBox="0 0 567.429 311.778" xmlns="http://www.w3.org/2000/svg" shape-rendering="crispEdges">
<title>
Yields/P1/run_0097/det5_Fit.svg
</title>
<desc>
Creator: ROOT Version 6.12/06
CreationDate: Mon Apr 15 10:29:01 2019</desc>
<defs>
</defs>
<rect x="0.5" y="0" width="566.929" height="311.278" fill="white"/>
<rect x="57.1929" y="31.1278" width="453.543" height="249.023" fill="white"/>
<rect x="57.1929" y="31.1278" width="453.543" height="249.023" fill="none" stroke="black"/>
<path d="M57.1929,40.5074h 0.181345v 239.643h 0.181345v -10.1731h 0.181345v 10.1731h 6.8911v -10.1731h 0.181345v 10.1731h 2.90152v -10.1731h 0.181345v 10.1731h 8.16051v -10.1731h 0.181345v 10.1731h 3.44555v -10.1731h 0.181345v 10.1731h 0.544034v
 -10.1731h 0.181345v 10.1731h 3.08286v -10.1731h 0.181345v 10.1731h 0.36269v -20.3463h 0.181345v 10.1731h 0.544034v 10.1731h 1.08807v -10.1731h 0.181345v 10.1731h 0.181345v -10.1731h 0.181345v 10.1731h 0.36269v -20.3463h 0.181345v 20.3463h 0.36269v
 -10.1731h 0.36269v 10.1731h 0.181345v -20.3463h 0.181345v -28.5596h 0.181345v -17.4592h 0.181345v -9.68657h 0.181345v -11.9567h 0.181345v -9.69067h 0.181345v -5.13639h 0.181345v -2.75543h 0.181345v -3.95537h 0.181345v -2.03953h 0.181345v -0.0876225h
 0.181345v -2.47307h 0.181345v 0.22313h 0.181345v -0.790242h 0.181345v -0.397008h 0.181345v -0.850414h 0.181345v -0.916606h 0.181345v -0.343213h 0.181345v -0.471266h 0.181345v -0.568569h 0.181345v 0.27206h 0.181345v -0.684483h 0.181345v 0.319767h
 0.181345v -0.364885h 0.181345v -0.496062h 0.181345v 0.219387h 0.181345v -0.657019h 0.181345v -0.218183h 0.181345v -0.627759h 0.181345v 0.1928h 0.181345v 0.269305h 0.181345v -0.016463h 0.181345v -0.0656678h 0.181345v 0.0327972h 0.181345v -0.26841h
 0.181345v 0.441808h 0.181345v -0.401454h 0.181345v 0.277389h 0.181345v -0.114855h 0.181345v -0.474392h 0.181345v 0.77991h 0.181345v -0.850946h 0.181345v 0.134468h 0.181345v -0.252102h 0.181345v 0.436014h 0.181345v 0.259772h 0.181345v -0.695786h
 0.181345v 0.753229h 0.181345v -0.667056h 0.181345v -0.287864h 0.181345v 0.726484h 0.181345v 0.130099h 0.181345v 0.0327058h 0.181345v 0.139819h 0.181345v 0.973683h 0.181345v -0.33179h 0.181345v -0.433826h 0.181345v 0.177084h 0.181345v 0.606205h
 0.181345v -0.0353231h 0.181345v -0.365848h 0.181345v 0.579073h 0.181345v 0.252742h 0.181345v -0.917594h 0.181345v -0.863586h 0.181345v -0.421294h 0.181345v -1.17416h 0.181345v -2.75524h 0.181345v -2.03456h 0.181345v -3.03082h 0.181345v -3.88294h
 0.181345v -3.01199h 0.181345v -2.58715h 0.181345v -2.5713h 0.181345v -2.18083h 0.181345v -2.17432h 0.181345v -1.00056h 0.181345v -0.953695h 0.181345v -0.157101h 0.181345v 0.588619h 0.181345v 0.945713h 0.181345v 1.25159h 0.181345v 2.17332h 0.181345v
 2.95455h 0.181345v 2.72088h 0.181345v 3.2156h 0.181345v 4.53017h 0.181345v 3.81579h 0.181345v 4.00747h 0.181345v 2.78522h 0.181345v 3.73931h 0.181345v 2.24195h 0.181345v 1.59418h 0.181345v 2.30604h 0.181345v -0.418646h 0.181345v 0.0993913h 0.181345v
 1.21221h 0.181345v -0.125827h 0.181345v 0.658916h 0.181345v -0.222942h 0.181345v -0.20143h 0.181345v -0.144778h 0.181345v 1.51636h 0.181345v -0.890946h 0.181345v 0.246355h 0.181345v 0.545087h 0.181345v -0.0988335h 0.181345v 0.685576h 0.181345v
 -0.427211h 0.181345v -0.608754h 0.181345v -0.191106h 0.181345v 1.51895h 0.181345v -0.977452h 0.181345v 1.1682h 0.181345v -0.605958h 0.181345v 0.331224h 0.181345v -0.972056h 0.181345v 0.477982h 0.181345v 0.662532h 0.181345v -0.96309h 0.181345v
 1.34934h 0.181345v -0.365058h 0.181345v -0.126706h 0.181345v 1.00058h 0.181345v -0.245548h 0.181345v -0.712917h 0.181345v 0.0845923h 0.181345v 0.964191h 0.181345v 0.983498h 0.181345v -0.168561h 0.181345v 0.363604h 0.181345v 0.575632h 0.181345v
 1.36315h 0.181345v -1.9633h 0.181345v 1.41355h 0.181345v -0.889771h 0.181345v -0.0759798h 0.181345v -1.23488h 0.181345v 1.72286h 0.181345v 0.210423h 0.181345v -0.131867h 0.181345v 0.453268h 0.181345v -0.557916h 0.181345v -0.909692h 0.181345v
 1.82392h 0.181345v -0.302057h 0.181345v 0.21906h 0.181345v 0.0552796h 0.181345v -0.729261h 0.181345v 1.61384h 0.36269v -0.994932h 0.181345v 0.790476h 0.181345v -0.428757h 0.36269v 0.721715h 0.181345v -0.945365h 0.181345v 1.33517h 0.181345v
 -0.537013h 0.181345v -0.742561h 0.181345v 0.395166h 0.181345v -0.198913h 0.181345v 0.992443h 0.181345v -0.504609h 0.181345v 0.264983h 0.181345v 0.149307h 0.181345v -0.267668h 0.181345v -0.233897h 0.181345v 1.85246h 0.181345v -1.58906h 0.181345v
 1.72129h 0.181345v -0.712917h 0.181345v -0.0631258h 0.181345v 0.254149h 0.181345v -0.719131h 0.181345v 0.3708h 0.181345v -0.340255h 0.181345v 1.21048h 0.181345v -0.360787h 0.181345v -0.129027h 0.181345v 0.62324h 0.181345v -0.94093h 0.181345v
 -0.280158h 0.181345v -0.27491h 0.181345v 0.58653h 0.181345v -2.24442h 0.181345v 0.834129h 0.181345v -0.995414h 0.181345v -1.40127h 0.181345v 0.0486791h 0.181345v 0.0244002h 0.181345v -0.644972h 0.181345v -1.16757h 0.181345v -0.757134h 0.181345v
 -0.223766h 0.181345v 0.492692h 0.181345v 0.488208h 0.181345v -1.24103h 0.181345v 1.19792h 0.181345v 0.705324h 0.181345v 0.458685h 0.181345v 0.140448h 0.181345v 2.39632h 0.181345v -1.4491h 0.181345v 2.04247h 0.181345v 0.232507h 0.181345v 1.0629h
 0.181345v 0.158327h 0.181345v 1.22792h 0.181345v -0.137811h 0.181345v 0.417376h 0.181345v 0.612369h 0.181345v -0.752818h 0.181345v 0.353673h 0.181345v 0.252742h 0.181345v 1.69684h 0.181345v -2.19804h 0.181345v 0.758376h 0.181345v 0.605312h 0.181345v
 -0.826018h 0.181345v 2.15935h 0.181345v -4.10545h 0.181345v 4.14781h 0.181345v -0.744332h 0.181345v -1.12506h 0.181345v 0.649012h 0.181345v -0.461087h 0.181345v -0.225223h 0.181345v 0.764586h 0.181345v -0.387271h 0.181345v -1.41967h 0.181345v
 1.80695h 0.181345v -0.387271h 0.181345v 0.825415h 0.181345v -0.359448h 0.181345v -0.0394006h 0.181345v -0.117571h 0.181345v -0.944774h 0.181345v 0.0733838h 0.181345v 0.372526h 0.181345v 0.22814h 0.181345v 0.270725h 0.181345v -0.347166h 0.181345v
 -1.10127h 0.181345v 0.98735h 0.181345v -0.951942h 0.181345v 0.214263h 0.181345v 0.253992h 0.181345v -0.574224h 0.181345v -0.174933h 0.181345v -0.844694h 0.181345v -0.0981724h 0.181345v 0.735662h 0.181345v -0.670287h 0.181345v -0.387954h 0.181345v
 1.37015h 0.181345v -1.43383h 0.181345v 0.418903h 0.181345v -0.0326512h 0.181345v 1.08265h 0.181345v -1.34127h 0.181345v 1.51789h 0.181345v 0.728523h 0.181345v -0.549754h 0.181345v 0.217437h 0.181345v 0.596091h 0.181345v 0.191355h 0.181345v 0.99609h
 0.181345v -1.63677h 0.181345v 2.70541h 0.181345v -1.27335h 0.181345v -0.440535h 0.181345v 0.198606h 0.181345v 0.822441h 0.181345v -1.06045h 0.181345v 1.53324h 0.181345v -0.807317h 0.181345v -0.487914h 0.181345v 1.60423h 0.181345v -1.56418h 0.181345v
 -0.238651h 0.181345v 0.563012h 0.36269v -0.0817647h 0.181345v 0.752818h 0.181345v -0.79353h 0.181345v 0.454168h 0.181345v 0.642879h 0.181345v -1.37891h 0.181345v 1.77861h 0.181345v -1.69862h 0.181345v 0.48927h 0.181345v -1.5712h 0.181345v 1.36535h
 0.181345v -0.203001h 0.181345v 0.617625h 0.181345v -0.373685h 0.181345v -0.641708h 0.181345v 1.97102h 0.181345v -1.73366h 0.181345v 1.24807h 0.181345v -1.64157h 0.181345v 0.0388788h 0.181345v 1.30184h 0.181345v -0.58381h 0.181345v -0.561473h
 0.181345v 0.602413h 0.181345v -0.836621h 0.181345v 0.754856h 0.36269v -0.402127h 0.181345v 0.199686h 0.181345v 1.21503h 0.181345v -2.63214h 0.181345v 1.41711h 0.181345v 0.998236h 0.181345v -0.754969h 0.181345v 0.498974h 0.181345v -0.621111h
 0.181345v -1.35455h 0.181345v 1.93342h 0.181345v -0.700005h 0.181345v 0.827077h 0.181345v 0.344338h 0.181345v -0.259008h 0.181345v -1.61891h 0.181345v 2.68355h 0.181345v -3.3576h 0.181345v 1.87119h 0.181345v -0.0829196h 0.181345v -1.30458h 0.181345v
 0.539363h 0.181345v -0.233587h 0.181345v -0.530999h 0.181345v 1.48852h 0.181345v -0.684635h 0.181345v -0.578658h 0.181345v 0.500173h 0.181345v -0.836724h 0.181345v 0.4124h 0.181345v -0.338275h 0.181345v 0.999325h 0.181345v -0.584808h 0.181345v
 0.825415h 0.181345v -1.82271h 0.181345v 1.22843h 0.181345v 1.90444h 0.181345v -0.478395h 0.181345v -0.791278h 0.181345v -0.320816h 0.181345v 1.50234h 0.181345v -0.602648h 0.181345v -0.899691h 0.181345v 2.93197h 0.181345v -3.16806h 0.181345v 1.34818h
 0.181345v -0.08533h 0.181345v -0.987043h 0.181345v -0.118841h 0.181345v 2.11847h 0.181345v -0.360183h 0.181345v 0.543645h 0.181345v -0.764351h 0.181345v 0.444783h 0.181345v -0.0900415h 0.181345v 0.180639h 0.181345v -1.13627h 0.181345v 1.69192h
 0.181345v -0.959008h 0.181345v -0.132025h 0.181345v 1.04392h 0.181345v 0.141805h 0.181345v -0.69571h 0.181345v 1.47605h 0.181345v 0.201745h 0.181345v -1.12389h 0.181345v -0.0469656h 0.181345v 1.12016h 0.181345v 1.49022h 0.181345v -1.84028h 0.181345v
 1.02318h 0.181345v -0.924015h 0.181345v 2.37062h 0.181345v -1.65703h 0.181345v 1.95234h 0.181345v -1.68884h 0.181345v 0.541638h 0.181345v 2.32694h 0.181345v -0.878357h 0.181345v -1.3933h 0.181345v 0.392899h 0.181345v -1.30546h 0.181345v -0.308995h
 0.181345v 2.07675h 0.181345v -1.34537h 0.181345v 3.76519h 0.181345v -3.16383h 0.181345v 1.71472h 0.181345v -0.85283h 0.181345v -0.805984h 0.181345v 2.69831h 0.181345v -1.28826h 0.181345v -1.12725h 0.181345v 1.43887h 0.181345v -0.796845h 0.181345v
 -0.980735h 0.181345v 0.568937h 0.181345v -0.735404h 0.181345v 2.07057h 0.181345v -0.682762h 0.181345v 0.430794h 0.181345v 1.23735h 0.181345v -0.599133h 0.181345v -0.386252h 0.181345v -1.50818h 0.181345v 0.704618h 0.181345v 0.803558h 0.181345v
 -1.33517h 0.181345v -0.400559h 0.181345v 0.872141h 0.181345v 0.0600276h 0.181345v 1.25519h 0.181345v -0.951309h 0.181345v 0.123335h 0.181345v -0.427211h 0.181345v -0.932169h 0.181345v 1.92758h 0.181345v 0.32544h 0.181345v -0.831584h 0.181345v
 -0.727921h 0.181345v 1.23406h 0.181345v 0.457663h 0.181345v -0.963807h 0.181345v 0.635455h 0.181345v -0.635455h 0.181345v -0.904397h 0.181345v 1.02931h 0.181345v 0.125981h 0.181345v 1.25406h 0.181345v -0.205272h 0.181345v -0.985385h 0.181345v
 0.782944h 0.181345v 1.04134h 0.181345v -1.24103h 0.181345v 0.88564h 0.181345v 0.212197h 0.181345v -1.61742h 0.181345v 0.192695h 0.181345v -0.445748h 0.181345v -0.186967h 0.181345v 1.36173h 0.181345v -0.067791h 0.181345v 0.551303h 0.181345v
 -0.209173h 0.181345v -2.53677h 0.181345v 0.533758h 0.181345v 0.679886h 0.181345v -0.25089h 0.181345v 1.57401h 0.181345v -0.676467h 0.36269v -0.709782h 0.181345v -0.556237h 0.181345v 0.746435h 0.181345v -0.563355h 0.181345v 0.627306h 0.181345v
 -0.503971h 0.181345v 0.0620581h 0.181345v -0.307699h 0.181345v 0.307699h 0.181345v 0.124909h 0.181345v 0.381235h 0.181345v -1.41054h 0.181345v 0.117414h 0.181345v -0.521122h 0.181345v -1.201h 0.181345v 1.201h 0.181345v -0.337411h 0.181345v 0.858533h
 0.181345v -1.66961h 0.181345v -0.260695h 0.181345v 0.633626h 0.181345v -1.19136h 0.181345v -1.05564h 0.181345v 0.233339h 0.181345v -0.733989h 0.181345v 0.593541h 0.181345v -1.75453h 0.181345v 0.590523h 0.181345v -0.171159h 0.181345v -0.336444h
 0.181345v 0.251607h 0.181345v -1.17802h 0.181345v 1.60719h 0.181345v 0.99083h 0.181345v -1.42h 0.181345v 2.13608h 0.181345v -2.55307h 0.181345v 0.374745h 0.181345v 1.27704h 0.181345v -1.19245h 0.181345v 0.0850827h 0.181345v 1.33923h 0.181345v
 -1.50891h 0.181345v -0.374745h 0.181345v 0.846155h 0.181345v 0.131238h 0.181345v 0.813073h 0.181345v 0.959605h 0.181345v -1.14422h 0.181345v 0.184615h 0.181345v 0.959605h 0.181345v -0.583258h 0.181345v -2.69176h 0.181345v 0.483892h 0.181345v
 -1.4435h 0.181345v -0.795485h 0.181345v -0.382138h 0.181345v -2.04528h 0.181345v -1.17476h 0.181345v -0.0275103h 0.181345v -1.71033h 0.181345v -2.26243h 0.181345v -0.515026h 0.181345v -1.35276h 0.181345v -1.44074h 0.181345v -1.35771h 0.181345v
 -0.391403h 0.181345v -0.525267h 0.181345v -1.84289h 0.181345v -1.34011h 0.181345v -0.576963h 0.181345v -0.0774499h 0.181345v -1.17646h 0.181345v 0.277607h 0.181345v -0.709159h 0.181345v 0.42137h 0.181345v -0.141805h 0.181345v 0.377787h 0.181345v
 0.720735h 0.181345v 0.953734h 0.181345v 0.139779h 0.181345v 0.880265h 0.181345v 1.82374h 0.181345v 0.3705h 0.181345v 1.51911h 0.181345v 1.32222h 0.181345v 1.80549h 0.181345v 1.19624h 0.181345v 1.3495h 0.181345v 1.20228h 0.181345v 3.31342h 0.181345v
 1.51789h 0.181345v 1.53451h 0.181345v 1.53758h 0.181345v 1.2333h 0.181345v 1.34652h 0.181345v 0.750069h 0.36269v 1.99912h 0.181345v -1.26654h 0.181345v 2.17601h 0.181345v -0.331317h 0.181345v 2.6497h 0.181345v -0.463514h 0.181345v -1.09852h
 0.181345v 4.22223h 0.181345v -3.86512h 0.181345v 1.84663h 0.181345v -1.55454h 0.181345v 2.57299h 0.181345v -0.936225h 0.181345v -0.802207h 0.181345v -1.69393h 0.181345v 2.08955h 0.181345v -1.08193h 0.181345v 3.23781h 0.181345v -1.9946h 0.181345v
 -0.161284h 0.181345v -0.550934h 0.36269v 2.15979h 0.181345v -1.44757h 0.181345v 0.92021h 0.181345v -0.17166h 0.181345v -1.76654h 0.181345v 1.09931h 0.181345v 0.582156h 0.181345v -0.418169h 0.181345v 0.249469h 0.181345v 0.425442h 0.181345v -1.63243h
 0.181345v 0.550934h 0.181345v 2.06328h 0.181345v -2.53677h 0.181345v 2.17211h 0.181345v -2.24956h 0.181345v 3.08316h 0.181345v -2.04296h 0.181345v 2.23481h 0.181345v -3.11971h 0.181345v 2.92785h 0.181345v -2.04296h 0.181345v 0.678814h 0.181345v
 0.351555h 0.181345v -0.524225h 0.181345v -0.914993h 0.181345v 2.35681h 0.181345v -0.0943844h 0.181345v -0.186967h 0.181345v -0.900695h 0.181345v 2.57142h 0.181345v -1.10252h 0.181345v -1.81425h 0.36269v 0.78879h 0.181345v -1.04257h 0.181345v
 1.78118h 0.181345v -0.828374h 0.36269v -0.266051h 0.181345v 2.90618h 0.181345v -3.16749h 0.181345v 0.798327h 0.181345v 1.74007h 0.181345v -0.304718h 0.181345v -0.396692h 0.181345v -2.09373h 0.181345v 2.59129h 0.181345v 1.26784h 0.181345v -2.71262h
 0.181345v 0.465967h 0.181345v 0.383727h 0.181345v 1.11011h 0.181345v -3.52449h 0.181345v 1.47324h 0.181345v 1.94679h 0.181345v -0.308995h 0.181345v 0.413456h 0.181345v -0.104461h 0.181345v -1.67073h 0.181345v -1.16047h 0.181345v 2.12007h 0.181345v
 -1.32654h 0.181345v -0.269305h 0.181345v 0.0892205h 0.181345v 0.828374h 0.181345v 1.18266h 0.181345v -1.46401h 0.181345v -0.813073h 0.181345v -0.174725h 0.181345v 1.84857h 0.181345v -2.3606h 0.181345v -1.05168h 0.181345v -0.760622h 0.181345v
 -1.47948h 0.181345v -1.28263h 0.181345v -2.11253h 0.181345v -1.89318h 0.181345v 0.235587h 0.181345v -1.14185h 0.181345v -1.34281h 0.181345v -1.70191h 0.181345v -1.034h 0.181345v -1.30475h 0.181345v -1.53111h 0.181345v -2.83504h 0.181345v -0.357442h
 0.181345v -2.37862h 0.181345v -0.785625h 0.181345v -1.19528h 0.181345v -0.0163894h 0.181345v -2.03129h 0.181345v -0.518468h 0.181345v -0.920514h 0.181345v -0.11592h 0.181345v -0.0256362h 0.181345v -0.990374h 0.181345v -0.471203h 0.181345v 0.982809h
 0.181345v -0.0988335h 0.181345v 1.11231h 0.181345v -1.02587h 0.181345v 0.959605h 0.181345v 0.621187h 0.181345v -0.246214h 0.181345v 1.52827h 0.181345v 1.04488h 0.181345v 1.19498h 0.181345v 0.737137h 0.181345v 2.14002h 0.181345v 1.26929h 0.181345v
 2.53238h 0.181345v 0.882863h 0.181345v 2.28201h 0.181345v 0.488107h 0.181345v 4.9738h 0.181345v -0.246673h 0.181345v 2.10025h 0.181345v 2.18735h 0.181345v 1.9598h 0.181345v 3.8282h 0.181345v -1.03202h 0.181345v 2.03766h 0.181345v 4.75213h 0.181345v
 -0.284994h 0.181345v -1.08766h 0.181345v 3.53947h 0.181345v 0.167736h 0.181345v -0.497564h 0.181345v -1.69239h 0.181345v 6.92721h 0.181345v -3.86856h 0.181345v 1.70631h 0.181345v 1.93111h 0.181345v -1.31521h 0.181345v 2.75999h 0.181345v -5.9509h
 0.181345v 1.60269h 0.181345v 0.18938h 0.181345v 0.583258h 0.181345v 1.90325h 0.181345v -3.04747h 0.181345v 0.371583h 0.181345v 0.972324h 0.181345v -2.05999h 0.181345v 1.66329h 0.181345v -1.30962h 0.181345v 0.180085h 0.181345v 2.35331h 0.181345v
 -2.35331h 0.181345v -0.180085h 0.181345v -0.527364h 0.181345v 7.21225h 0.181345v -3.93724h 0.181345v -2.01366h 0.181345v 4.86324h 0.181345v -4.28761h 0.181345v -0.575632h 0.36269v -1.26135h 0.181345v 2.23368h 0.181345v -0.782944h 0.181345v 0.191855h
 0.181345v 0.391403h 0.181345v -0.959605h 0.181345v -0.724924h 0.181345v 0.911891h 0.36269v 1.58822h 0.181345v 0.642879h 0.181345v -2.2311h 0.181345v 0.18938h 0.181345v 0.583258h 0.181345v -0.583258h 0.181345v -0.376347h 0.181345v 0.959605h 0.181345v
 -4.85306h 0.181345v 6.75631h 0.181345v -4.44631h 0.181345v 0.167736h 0.181345v 1.98392h 0.181345v -0.191855h 0.181345v -1.9598h 0.181345v 1.03643h 0.181345v 1.11522h 0.181345v -1.11522h 0.181345v 0.180085h 0.181345v -0.879109h 0.181345v -2.35962h
 0.181345v 2.53128h 0.181345v 0.349462h 0.181345v 1.88422h 0.181345v -1.52623h 0.181345v 0.366937h 0.181345v 0.568202h 0.181345v -1.29313h 0.181345v -2.88075h 0.181345v 1.05417h 0.181345v 4.32669h 0.181345v -1.77519h 0.181345v -2.07546h 0.181345v
 0.829414h 0.181345v 0.699024h 0.181345v -1.52844h 0.181345v 2.64366h 0.181345v -1.81425h 0.181345v 1.81425h 0.181345v -0.568202h 0.181345v 0.762599h 0.181345v -0.194397h 0.36269v -1.98392h 0.181345v 1.79207h 0.181345v 0.782944h 0.181345v -1.70631h
 0.181345v 2.74765h 0.181345v -3.78409h 0.181345v 1.9598h 0.181345v -0.923369h 0.181345v 1.30962h 0.181345v -1.83699h 0.181345v 1.26135h 0.181345v -1.26135h 0.181345v 1.45073h 0.181345v 0.782944h 0.181345v 1.04134h 0.181345v -2.38525h 0.181345v
 2.17098h 0.181345v -1.02676h 0.181345v -1.50663h 0.181345v -0.353673h 0.181345v -0.515026h 0.181345v 4.73726h 0.181345v -1.9598h 0.181345v 2.67588h 0.181345v -2.87832h 0.181345v -2.05999h 0.181345v -0.682762h 0.181345v 3.15046h 0.181345v -1.93394h
 0.181345v 4.40455h 0.181345v -4.93831h 0.181345v 2.67588h 0.181345v 0.425442h 0.181345v -0.214263h 0.181345v -2.17098h 0.181345v 0.947214h 0.181345v -0.575632h 0.181345v 0.18938h 0.181345v -2.77088h 0.181345v 3.55382h 0.181345v -0.782944h 0.181345v
 0.985385h 0.181345v 0.838898h 0.181345v 1.35574h 0.181345v -0.693518h 0.181345v -2.86285h 0.181345v -0.366937h 0.181345v -3.80877h 0.181345v 4.74391h 0.181345v 0.391403h 0.181345v 4.0906h 0.181345v -6.7995h 0.181345v 4.61215h 0.181345v -0.876483h
 0.181345v -3.06075h 0.181345v 6.38904h 0.181345v -5.31466h 0.181345v 5.8583h 0.181345v -5.48196h 0.181345v 3.18002h 0.181345v 2.5815h 0.181345v -5.9509h 0.181345v 2.45181h 0.181345v -1.67917h 0.181345v 2.1308h 0.181345v -1.5234h 0.181345v 4.01696h
 0.181345v -4.01696h 0.181345v 4.2913h 0.181345v -4.69901h 0.181345v 4.97858h 0.181345v -3.93724h 0.181345v 3.38333h 0.181345v -4.42467h 0.181345v 2.87832h 0.181345v -0.481247h 0.181345v -1.1383h 0.181345v 4.29543h 0.181345v -1.66329h 0.181345v
 -1.25519h 0.36269v -0.704618h 0.181345v 2.7679h 0.181345v 0.855197h 0.181345v 2.55894h 0.181345v 1.08766h 0.181345v -6.56508h 0.181345v 2.34285h 0.181345v 1.7994h 0.181345v 1.68884h 0.181345v -2.6161h 0.181345v -2.72572h 0.181345v 7.66403h 0.181345v
 -3.02123h 0.181345v -0.667239h 0.181345v -0.322578h 0.181345v -0.927259h 0.181345v 4.12273h 0.181345v 0.402127h 0.181345v 0.838898h 0.181345v 1.35574h 0.181345v -3.3694h 0.36269v -1.77042h 0.181345v 2.54306h 0.181345v 0.815583h 0.181345v 0.863586h
 0.36269v 0.917594h 0.181345v -3.3694h 0.181345v 0.381235h 0.181345v 0.79353h 0.181345v 1.27704h 0.181345v 1.39884h 0.181345v 0.497564h 0.181345v -3.57557h 0.181345v 2.1308h 0.181345v 1.9598h 0.181345v 2.26243h 0.181345v -5.9509h 0.181345v 5.9509h
 0.181345v -5.53744h 0.181345v 1.78118h 0.181345v -1.78118h 0.181345v 6.16208h 0.181345v -3.40209h 0.181345v 1.60269h 0.181345v -0.553904h 0.181345v 1.72867h 0.181345v 1.27704h 0.181345v -5.9509h 0.181345v 8.89609h 0.181345v -8.44446h 0.181345v
 3.04747h 0.181345v 1.7994h 0.181345v -5.29849h 0.181345v 5.9509h 0.181345v -3.53947h 0.181345v -1.9598h 0.181345v 11.1203h 0.181345v -6.27348h 0.181345v 2.05125h 0.181345v -2.05125h 0.181345v 3.5976h 0.181345v 0.838898h 0.181345v -9.28336h 0.181345v
 6.89811h 0.181345v -2.67588h 0.181345v -0.599133h 0.181345v 6.55003h 0.181345v -8.21333h 0.181345v 2.88706h 0.181345v 2.80407h 0.181345v -0.752818h 0.181345v -2.67588h 0.181345v -3.27502h 0.181345v 1.54635h 0.181345v -1.54635h 0.181345v 2.10025h
 0.181345v 2.45181h 0.181345v 1.39884h 0.181345v -3.85065h 0.181345v -3.04747h 0.181345v 2.49356h 0.181345v -4.62436h 0.181345v 7.63007h 0.181345v 1.39884h 0.181345v -4.93831h 0.181345v -5.23482h 0.181345v 2.82339h 0.181345v -3.88482h 0.181345v
 7.95955h 0.181345v -3.6231h 0.181345v -3.27502h 0.181345v 1.14422h 0.181345v -2.20565h 0.181345v -2.50422h 0.181345v -0.564559h 0.181345v 1.76333h 0.181345v 3.51111h 0.181345v -2.54306h 0.181345v 4.67386h 0.181345v -2.1308h 0.181345v -3.51111h
 0.181345v 5.64191h 0.181345v -5.64191h 0.181345v 4.32669h 0.181345v 1.31521h 0.181345v -2.90343h 0.181345v -0.733989h 0.181345v 4.10339h 0.181345v -3.74098h 0.181345v 2.38525h 0.181345v -0.838898h 0.181345v 3.68847h 0.181345v -1.9598h 0.181345v
 -2.1308h 0.181345v 2.59676h 0.181345v -2.59676h 0.181345v 6.35303h 0.181345v -3.27502h 0.181345v 5.9509h 0.181345v -9.02891h 0.181345v 6.35303h 0.181345v -7.12567h 0.181345v 9.08547h 0.181345v -1.9598h 0.181345v -4.67386h 0.181345v -1.67917h
 0.181345v -1.50663h 0.181345v -1.36626h 0.181345v -2.94519h 0.181345v 1.39884h 0.181345v -2.91848h 0.181345v -3.22682h 0.181345v 5.2901h 0.181345v -3.65767h 0.181345v -4.59516h 0.181345v 0.481247h 0.181345v -3.97556h 0.181345v 0.765916h 0.181345v
 0.947214h 0.181345v -2.2024h 0.181345v -0.356537h 0.181345v -1.66329h 0.181345v 0.21118h 0.181345v -1.61002h 0.181345v -2.12564h 0.181345v -0.0822228h 0.181345v -4.24271h 0.181345v 1.96858h 0.181345v -1.21253h 0.181345v -1.11995h 0.181345v
 -0.178624h 0.181345v 0.359448h 0.181345v -2.14063h 0.181345v 1.90002h 0.181345v -1.20228h 0.181345v 0.277451h 0.181345v -1.02752h 0.181345v 0.210423h 0.181345v -0.973683h 0.181345v -0.0495h 0.181345v 0.553904h 0.181345v -2.14466h 0.181345v
 -0.220045h 0.181345v -0.216795h 0.181345v -1.93288h 0.181345v 1.46691h 0.181345v -0.850476h 0.181345v 1.57698h 0.181345v -1.53758h 0.181345v -0.95461h 0.181345v 0.565284h 0.181345v 0.193372h 0.181345v -1.23155h 0.181345v -0.283617h 0.181345v 1.3218h
 0.181345v -0.602207h 0.181345v -0.400134h 0.181345v -0.14284h 0.181345v -0.694064h 0.181345v 1.68636h 0.181345v -0.705212h 0.181345v 1.60687h 0.181345v 0.661598h 0.181345v -1.06045h 0.181345v 1.44613h 0.181345v -1.79606h 0.181345v 2.01479h 0.181345v
 0.447496h 0.181345v -0.491504h 0.181345v 2.38008h 0.181345v 0.633626h 0.181345v 0.054058h 0.181345v 1.60061h 0.181345v 0.679886h 0.181345v 2.03228h 0.181345v -0.287788h 0.181345v 2.47774h 0.181345v -0.578875h 0.181345v 2.27595h 0.181345v 2.02759h
 0.181345v 3.13975h 0.181345v 0.83098h 0.181345v -1.48924h 0.181345v 5.3827h 0.181345v -0.184615h 0.181345v 3.74098h 0.181345v -1.1383h 0.181345v 2.11711h 0.181345v 5.09093h 0.181345v 1.90875h 0.181345v 2.67588h 0.181345v 1.54635h 0.181345v 1.72867h
 0.181345v 1.27704h 0.181345v 0.682762h 0.181345v 3.9911h 0.36269v -0.889771h 0.181345v 0.889771h 0.181345v 0.947214h 0.181345v 7.49725h 0.181345v -2.94519h 0.181345v 8.89609h 0.181345v -12.4356h 0.181345v 6.48466h 0.36269v 1.72867h 0.36269v
 -3.27502h 0.181345v -1.39884h 0.181345v 11.572h 0.181345v -11.572h 0.181345v 2.94519h 0.181345v 3.68847h 0.181345v 12.4356h 0.181345v -10.1731h 0.181345v -8.89609h 0.181345v 19.0692h 0.181345v -16.124h 0.181345v 3.68847h 0.36269v 2.26243h 0.181345v
 -4.22223h 0.181345v 10.1731h 0.181345v 4.22223h 0.181345v -14.3954h 0.181345v 4.22223h 0.181345v 16.124h 0.181345v -10.1731h 0.181345v -8.21333h 0.181345v 2.26243h 0.181345v -8.89609h 0.181345v 19.0692h 0.181345v -4.22223h 0.181345v -5.9509h
 0.181345v 16.124h 0.181345v -16.124h 0.181345v 10.1731h 0.181345v -14.3954h 0.36269v 6.89811h 0.36269v -4.93831h 0.181345v 12.4356h 0.181345v -20.3463h 0.181345v 16.124h 0.181345v -10.1731h 0.181345v 6.89811h 0.181345v -8.62678h 0.181345v 8.62678h
 0.181345v -17.0712h 0.181345v 20.3463h 0.181345v -8.21333h 0.181345v -3.68847h 0.181345v 16.124h 0.181345v -16.124h 0.181345v 11.9018h 0.181345v -5.9509h 0.36269v -5.9509h 0.181345v -2.94519h 0.181345v 1.39884h 0.181345v 10.1731h 0.181345v -6.89811h
 0.181345v -1.72867h 0.181345v 3.68847h 0.181345v -5.23482h 0.181345v -1.39884h 0.181345v -6.38904h 0.181345v 1.83699h 0.181345v -3.46941h 0.181345v 5.56967h 0.181345v 7.12567h 0.181345v -5.9509h 0.181345v 1.27704h 0.181345v -2.45181h 0.181345v
 1.17476h 0.181345v -5.112h 0.181345v -6.23589h 0.181345v 7.12567h 0.181345v -2.5222h 0.36269v -3.4287h 0.181345v 1.9598h 0.181345v 4.93831h 0.181345v -6.89811h 0.181345v -3.75626h 0.181345v 4.3809h 0.181345v -2.35331h 0.181345v -1.54635h 0.181345v
 -0.481247h 0.181345v 0.481247h 0.181345v -3.07801h 0.181345v 3.57557h 0.181345v -3.96698h 0.181345v 4.482h 0.181345v -4.0906h 0.181345v 4.62436h 0.181345v -2.49356h 0.36269v 4.22223h 0.181345v -0.599133h 0.36269v 2.55894h 0.181345v -1.33517h
 0.181345v -2.88706h 0.181345v -0.515026h 0.181345v -2.33455h 0.181345v 0.438144h 0.181345v 5.29849h 0.181345v 0.652406h 0.181345v -3.53947h 0.181345v 6.48466h 0.181345v -0.79353h 0.181345v 0.79353h 0.181345v 1.72867h 0.181345v -5.32626h 0.181345v
 6.27348h 0.181345v 1.01259h 0.181345v -2.84957h 0.181345v 1.83699h 0.181345v 5.9509h 0.181345v 5.23482h 0.181345v -9.08547h 0.181345v 14.0238h 0.181345v -4.93831h 0.181345v 4.93831h 0.181345v -17.0712h 0.181345v 14.3954h 0.181345v -5.9509h 0.181345v
 8.62678h 0.36269v -4.93831h 0.181345v 12.4356h 0.181345v -4.22223h 0.181345v 4.22223h 0.36269v -16.124h 0.181345v 5.9509h 0.181345v 5.9509h 0.36269v -8.21333h 0.181345v 4.93831h 0.181345v -2.67588h 0.181345v 2.67588h 0.181345v 7.49725h 0.181345v
 -4.22223h 0.181345v -10.1731h 0.181345v 20.3463h 0.181345v -20.3463h 0.181345v 10.1731h 0.181345v -14.847h 0.181345v 25.0201h 0.181345v -18.3865h 0.181345v -5.23482h 0.181345v 10.1731h 0.181345v -2.67588h 0.181345v -2.26243h 0.181345v 12.4356h
 0.181345v 5.9509h 0.181345v -13.4481h 0.181345v -2.67588h 0.181345v 10.1731h 0.181345v -10.1731h 0.181345v 5.9509h 0.181345v -11.9018h 0.181345v 5.9509h 0.181345v 5.9509h 0.181345v 4.22223h 0.181345v -10.1731h 0.181345v 26.2972h 0.181345v -23.6213h
 0.181345v -2.67588h 0.181345v 5.9509h 0.181345v 10.1731h 0.181345v -13.4481h 0.181345v -6.89811h 0.181345v 1.9598h 0.181345v 12.4356h 0.181345v -20.3463h 0.181345v 5.9509h 0.181345v 4.22223h 0.181345v -4.22223h 0.181345v 6.89811h 0.181345v -8.62678h
 0.181345v 1.72867h 0.181345v -1.72867h 0.181345v -4.22223h 0.181345v 4.22223h 0.181345v -1.54635h 0.181345v 5.23482h 0.181345v -9.08547h 0.181345v 5.397h 0.181345v -1.54635h 0.181345v -2.67588h 0.181345v 4.22223h 0.181345v -4.22223h 0.181345v
 1.27704h 0.181345v -2.45181h 0.181345v 3.85065h 0.181345v -6.89811h 0.181345v 8.44446h 0.36269v -2.94519h 0.181345v -4.55206h 0.181345v 1.01259h 0.181345v 3.53947h 0.181345v 6.63366h 0.181345v -5.23482h 0.181345v 13.4481h 0.181345v -10.1731h
 0.181345v -8.21333h 0.181345v 8.21333h 0.181345v -4.67386h 0.181345v -11.4502h 0.181345v 16.124h 0.181345v -8.21333h 0.181345v 8.21333h 0.181345v -8.21333h 0.181345v 4.93831h 0.181345v -1.39884h 0.36269v 4.67386h 0.181345v -5.9509h 0.36269v 16.124h
 0.181345v -16.124h 0.181345v -3.27502h 0.181345v 9.22592h 0.181345v 4.22223h 0.181345v -10.1731h 0.181345v 1.27704h 0.181345v 1.39884h 0.181345v 17.6704h 0.181345v -20.3463h 0.181345v 2.67588h 0.181345v 3.27502h 0.181345v -1.72867h 0.181345v
 -1.54635h 0.181345v 1.54635h 0.181345v 8.62678h 0.181345v -15.1114h 0.181345v 8.21333h 0.181345v 10.1731h 0.181345v 4.22223h 0.181345v -4.22223h 0.181345v -11.9018h 0.181345v 5.9509h 0.181345v -5.9509h 0.181345v 1.72867h 0.181345v -4.67386h
 0.181345v 19.0692h 0.181345v -14.3954h 0.181345v -1.72867h 0.181345v 5.9509h 0.181345v -5.9509h 0.181345v -2.94519h 0.181345v 4.67386h 0.181345v -3.27502h 0.181345v 7.49725h 0.181345v -2.26243h 0.181345v 4.93831h 0.181345v 7.49725h 0.181345v
 -14.3954h 0.181345v 6.89811h 0.181345v -6.89811h 0.36269v 1.9598h 0.181345v -5.23482h 0.181345v -5.9509h 0.181345v 1.01259h 0.181345v 10.1731h 0.181345v -6.63366h 0.181345v -1.27704h 0.181345v -1.17476h 0.181345v 7.12567h 0.181345v -1.72867h
 0.181345v -4.22223h 0.181345v -1.17476h 0.181345v -7.72132h 0.181345v 14.847h 0.181345v -8.21333h 0.181345v 8.21333h 0.181345v -4.67386h 0.181345v -2.45181h 0.181345v -8.37373h 0.181345v 17.4592h 0.181345v -3.68847h 0.36269v -5.397h 0.181345v
 2.45181h 0.181345v -1.27704h 0.181345v 4.22223h 0.181345v -11.7195h 0.181345v 11.7195h 0.181345v -10.1731h 0.181345v 5.9509h 0.181345v -1.17476h 0.36269v 2.45181h 0.181345v 2.94519h 0.181345v 1.72867h 0.181345v -10.1731h 0.181345v -0.889771h
 0.181345v 3.93724h 0.181345v 1.17476h 0.181345v 2.67588h 0.181345v -4.93831h 0.181345v 4.93831h 0.181345v -6.89811h 0.36269v -0.889771h 0.181345v 3.93724h 0.181345v 3.85065h 0.181345v -5.9509h 0.181345v 9.22592h 0.36269v -13.4481h 0.36269v 5.23482h
 0.36269v -8.50984h 0.181345v 16.7232h 0.181345v -11.0629h 0.181345v 0.889771h 0.181345v 6.89811h 0.181345v 3.27502h 0.181345v -9.22592h 0.181345v 3.27502h 0.181345v -3.27502h 0.181345v -2.67588h 0.181345v -2.26243h 0.181345v 1.4689h 0.181345v
 2.5222h 0.181345v 1.9598h 0.181345v -1.01259h 0.181345v -2.67588h 0.181345v 0.838898h 0.181345v -0.838898h 0.181345v 2.67588h 0.181345v -2.67588h 0.181345v -1.54635h 0.181345v 2.38525h 0.181345v -5.66026h 0.181345v 6.55003h 0.181345v -5.32626h
 0.181345v 4.43649h 0.181345v 0.889771h 0.181345v -1.72867h 0.181345v -10.5753h 0.181345v 7.63007h 0.181345v 5.62107h 0.181345v -4.93831h 0.181345v -1.9598h 0.181345v 6.89811h 0.181345v -1.83699h 0.181345v -4.43649h 0.181345v -0.624636h 0.181345v
 0.624636h 0.181345v 7.28607h 0.181345v -5.23482h 0.181345v 3.27502h 0.181345v -4.67386h 0.181345v 5.62107h 0.181345v -8.07288h 0.181345v 2.45181h 0.181345v 4.67386h 0.181345v -3.27502h 0.36269v 3.27502h 0.181345v -8.21333h 0.181345v 3.53947h
 0.181345v 2.15166h 0.181345v -4.02783h 0.181345v 1.22377h 0.181345v 0.652406h 0.181345v 0.682762h 0.181345v 2.26243h 0.181345v -2.26243h 0.181345v -1.9598h 0.181345v -1.72867h 0.181345v 0.553904h 0.36269v 3.85065h 0.181345v -1.39884h 0.181345v
 -6.81449h 0.181345v 6.81449h 0.181345v -5.49927h 0.181345v 1.9598h 0.181345v 1.08766h 0.36269v 0.575632h 0.181345v -3.15713h 0.181345v 7.9785h 0.181345v -5.397h 0.181345v 0.575632h 0.181345v -1.66329h 0.181345v -1.49384h 0.181345v -2.19464h
 0.181345v 4.22223h 0.181345v -2.49356h 0.181345v 5.49927h 0.181345v -5.49927h 0.181345v 2.49356h 0.36269v -2.49356h 0.181345v -2.1308h 0.181345v 4.0906h 0.181345v -0.515026h 0.181345v 2.77745h 0.181345v -4.67386h 0.181345v -3.1858h 0.181345v
 -0.699024h 0.181345v 6.83001h 0.181345v -6.48466h 0.181345v 3.53947h 0.181345v -4.22223h 0.181345v 3.35865h 0.181345v 3.80877h 0.181345v -10.1731h 0.181345v 6.36436h 0.181345v 4.93831h 0.181345v -5.75389h 0.181345v -0.391403h 0.181345v -1.11522h
 0.36269v 1.50663h 0.181345v -2.20565h 0.181345v 3.88482h 0.181345v -3.1858h 0.181345v 1.90875h 0.181345v -1.90875h 0.181345v 1.90875h 0.181345v -1.54635h 0.181345v 0.371583h 0.181345v -0.371583h 0.181345v 0.371583h 0.181345v -0.733989h 0.181345v
 5.0822h 0.181345v -0.497564h 0.181345v -3.46941h 0.181345v 3.46941h 0.181345v -5.9509h 0.181345v 4.55206h 0.181345v 1.89641h 0.181345v -1.44478h 0.181345v 0.465967h 0.181345v 1.49384h 0.181345v -1.01259h 0.181345v 1.01259h 0.181345v -1.49384h
 0.181345v 0.978811h 0.181345v -0.497564h 0.181345v 2.10025h 0.181345v -0.553904h 0.181345v 5.15737h 0.181345v -5.15737h 0.181345v 1.72867h 0.181345v 1.9598h 0.181345v -3.13457h 0.181345v -2.10025h 0.181345v 5.9509h 0.181345v -2.67588h 0.181345v
 3.4287h 0.181345v -2.80407h 0.181345v 4.43649h 0.181345v -5.66026h 0.181345v 1.87618h 0.181345v -3.53947h 0.181345v -2.41143h 0.181345v 10.6248h 0.181345v -3.27502h 0.181345v 0.752818h 0.36269v 0.79353h 0.181345v -3.5976h 0.181345v 2.80407h
 0.181345v 0.79353h 0.181345v -3.5976h 0.181345v -0.624636h 0.181345v -1.17476h 0.181345v 10.1731h 0.181345v 2.45181h 0.181345v -13.1788h 0.181345v 5.9509h 0.181345v -0.79353h 0.181345v -2.80407h 0.181345v 2.80407h 0.36269v -3.4287h 0.181345v 1.9598h
 0.181345v -2.55894h 0.181345v 1.22377h 0.181345v -1.7994h 0.181345v -4.36268h 0.181345v 9.75968h 0.181345v -2.26243h 0.181345v -1.9598h 0.181345v 5.06113h 0.181345v -0.838898h 0.181345v -6.48466h 0.181345v 2.26243h 0.181345v 5.06113h 0.181345v
 5.112h 0.181345v -5.112h 0.181345v -2.38525h 0.181345v -2.05125h 0.181345v 8.37373h 0.181345v -4.77614h 0.181345v 2.67588h 0.181345v -4.93831h 0.181345v 4.93831h 0.181345v -6.89811h 0.181345v 3.4287h 0.181345v -5.69113h 0.181345v 6.48466h 0.181345v
 -1.54635h 0.181345v 5.23482h 0.181345v -4.482h 0.181345v -2.15166h 0.181345v -0.652406h 0.36269v -1.7994h 0.181345v 0.575632h 0.181345v 3.27502h 0.181345v -7.34974h 0.181345v 3.49909h 0.181345v 6.23589h 0.181345v -4.43649h 0.181345v 1.33517h
 0.181345v 0.71608h 0.181345v 0.752818h 0.181345v -1.4689h 0.181345v 0.71608h 0.181345v -2.67588h 0.544034v 1.27704h 0.36269v 1.39884h 0.181345v 0.752818h 0.181345v -4.60347h 0.181345v 1.17476h 0.181345v -5.112h 0.181345v 1.83699h 0.36269v -1.83699h
 0.181345v 2.84957h 0.181345v -3.68847h 0.181345v 6.57554h 0.181345v 0.652406h 0.36269v -6.38904h 0.181345v 3.93724h 0.181345v 1.17476h 0.181345v -1.72867h 0.181345v 6.7898h 0.181345v -7.32356h 0.181345v 4.22223h 0.181345v -2.55894h 0.181345v
 0.599133h 0.181345v 3.4287h 0.181345v -6.70372h 0.181345v 3.27502h 0.181345v -0.599133h 0.181345v 2.55894h 0.181345v -1.33517h 0.181345v -0.624636h 0.181345v -1.72867h 0.181345v 0.553904h 0.181345v -1.08766h 0.181345v 2.26243h 0.181345v -2.77745h
 0.181345v 6.20615h 0.181345v -3.4287h 0.181345v -8.89609h 0.181345v 6.63366h 0.181345v 4.22223h 0.181345v -5.23482h 0.181345v 2.67588h 0.181345v 1.22377h 0.181345v 2.80407h 0.181345v -6.70372h 0.181345v 8.33615h 0.181345v -6.7898h 0.181345v 3.68847h
 0.36269v -4.22223h 0.181345v 1.66329h 0.181345v -4.51287h 0.181345v 11.0629h 0.181345v -4.67386h 0.181345v -4.55206h 0.181345v -1.39884h 0.181345v 1.89641h 0.181345v 4.0545h 0.181345v -2.45181h 0.181345v -1.08766h 0.181345v 2.26243h 0.36269v
 -2.26243h 0.181345v 0.533758h 0.36269v -0.533758h 0.181345v 4.22223h 0.181345v -4.73726h 0.181345v 0.515026h 0.181345v 1.08766h 0.181345v 1.17476h 0.181345v -5.112h 0.181345v -4.43649h 0.181345v 6.27348h 0.181345v -0.947214h 0.181345v -0.889771h
 0.181345v -0.425442h 0.181345v 1.78118h 0.36269v -1.78118h 0.181345v 2.26243h 0.181345v 1.01259h 0.181345v -1.9598h 0.181345v 1.9598h 0.181345v 1.08766h 0.181345v -4.77614h 0.181345v 5.35177h 0.181345v -5.35177h 0.181345v 4.77614h 0.181345v 1.7994h
 0.181345v -8.83796h 0.181345v 5.9509h 0.36269v 1.08766h 0.181345v -7.72132h 0.181345v 5.62107h 0.181345v 3.27502h 0.181345v -1.17476h 0.181345v -1.60269h 0.181345v -3.17345h 0.181345v -2.26243h 0.181345v 8.21333h 0.181345v -3.27502h 0.181345v
 5.9509h 0.181345v -0.71608h 0.181345v -7.9107h 0.181345v 1.27704h 0.181345v 4.67386h 0.181345v -4.67386h 0.181345v 4.07473h 0.181345v 2.55894h 0.181345v -9.08547h 0.181345v 4.34821h 0.181345v 8.72835h 0.181345v -5.32626h 0.181345v -1.22377h
 0.181345v -0.575632h 0.181345v 9.08547h 0.181345v -11.1857h 0.181345v 3.89965h 0.181345v -1.22377h 0.181345v -4.51287h 0.181345v 2.33455h 0.181345v 2.17832h 0.181345v 1.22377h 0.181345v 4.43649h 0.181345v -2.38525h 0.181345v -6.89811h 0.181345v
 4.22223h 0.181345v -0.599133h 0.181345v 1.22377h 0.181345v -3.40209h 0.181345v 4.73726h 0.181345v -3.68847h 0.181345v 5.15737h 0.181345v -2.15166h 0.181345v 2.94519h 0.181345v -5.397h 0.181345v -3.04747h 0.181345v 6.89811h 0.181345v 0.752818h
 0.181345v -4.02783h 0.181345v 0.599133h 0.181345v 2.67588h 0.181345v 0.752818h 0.181345v -9.3796h 0.181345v 8.62678h 0.181345v -5.45334h 0.181345v 6.99968h 0.181345v -4.82136h 0.181345v 1.87618h 0.181345v -4.55206h 0.181345v 5.9509h 0.181345v
 -0.71608h 0.181345v -5.23482h 0.181345v -0.947214h 0.181345v 2.49356h 0.181345v -1.54635h 0.181345v 5.23482h 0.181345v -5.23482h 0.181345v 3.89965h 0.36269v -2.88706h 0.181345v 5.69113h 0.181345v -1.4689h 0.181345v -0.682762h 0.181345v -1.87618h
 0.181345v -1.12954h 0.181345v -3.38333h 0.181345v 5.112h 0.181345v -1.17476h 0.181345v 3.85065h 0.181345v 1.54635h 0.181345v -6.48466h 0.181345v 6.48466h 0.181345v -6.99968h 0.181345v 8.72835h 0.181345v -5.32626h 0.181345v 1.33517h 0.181345v
 -0.682762h 0.181345v -3.00571h 0.181345v 3.68847h 0.181345v 3.10133h 0.181345v -5.66026h 0.181345v -1.66329h 0.181345v 7.32356h 0.181345v -2.38525h 0.181345v -2.67588h 0.181345v 3.4287h 0.181345v 0.79353h 0.181345v -2.26243h 0.181345v 8.21333h
 0.181345v 4.22223h 0.181345v -7.49725h 0.181345v -2.67588h 0.181345v -0.79353h 0.181345v 5.56967h 0.181345v 2.45181h 0.181345v -5.49927h 0.181345v 3.04747h 0.181345v -4.77614h 0.181345v 2.67588h 0.181345v 2.10025h 0.36269v -3.93724h 0.36269v
 3.93724h 0.181345v 1.17476h 0.181345v -3.27502h 0.181345v 9.22592h 0.181345v -4.67386h 0.181345v 1.39884h 0.181345v -5.9509h 0.181345v 2.10025h 0.181345v 7.12567h 0.181345v -4.67386h 0.181345v 6.63366h 0.181345v -9.08547h 0.181345v 5.397h 0.181345v
 3.68847h 0.181345v -14.6551h 0.181345v 4.482h 0.181345v 1.08766h 0.181345v 9.08547h 0.181345v -7.9107h 0.181345v -4.22223h 0.181345v 12.1329h 0.181345v -6.63366h 0.181345v -1.27704h 0.181345v 10.1731h 0.181345v -14.3954h 0.181345v 3.04747h 0.181345v
 5.397h 0.181345v -8.44446h 0.181345v 8.44446h 0.181345v -1.54635h 0.181345v -10.1731h 0.181345v 10.1731h 0.181345v -8.62678h 0.181345v 3.68847h 0.181345v 4.93831h 0.181345v -4.93831h 0.181345v 2.26243h 0.181345v -2.26243h 0.181345v 6.48466h
 0.181345v -6.48466h 0.181345v 10.1731h 0.181345v -7.9107h 0.181345v 1.27704h 0.544034v -1.27704h 0.36269v 2.67588h 0.181345v 3.27502h 0.181345v -5.9509h 0.181345v 1.27704h 0.181345v -7.22794h 0.181345v 13.8616h 0.181345v -6.63366h 0.181345v 4.67386h
 0.181345v -7.12567h 0.36269v -7.72132h 0.181345v 11.572h 0.181345v -9.42031h 0.181345v 8.02147h 0.181345v 2.94519h 0.181345v 3.68847h 0.181345v -13.0227h 0.181345v 15.2851h 0.181345v -12.4356h 0.181345v -1.9598h 0.181345v 6.89811h 0.181345v
 -9.42031h 0.181345v 6.74443h 0.181345v -2.26243h 0.181345v -2.84957h 0.181345v 3.93724h 0.181345v 5.397h 0.181345v -6.48466h 0.181345v 18.3865h 0.181345v -19.399h 0.181345v 9.22592h 0.181345v -7.12567h 0.36269v 2.45181h 0.36269v -11.4502h 0.181345v
 10.1731h 0.181345v -2.26243h 0.36269v 2.26243h 0.181345v 1.27704h 0.181345v -1.27704h 0.181345v -3.27502h 0.181345v 2.10025h 0.181345v 5.397h 0.36269v -10.1731h 0.181345v 3.68847h 0.181345v 2.26243h 0.36269v -2.26243h 0.36269v -1.01259h 0.181345v
 2.10025h 0.181345v -7.72132h 0.181345v 8.89609h 0.181345v 5.9509h 0.181345v -14.1642h 0.181345v 0.71608h 0.181345v 2.38525h 0.181345v -5.66026h 0.181345v 10.7723h 0.36269v -9.5485h 0.181345v 5.32626h 0.544034v 1.9598h 0.181345v 1.08766h 0.181345v
 -9.5975h 0.181345v 6.55003h 0.181345v 0.947214h 0.36269v -3.46941h 0.181345v 3.46941h 0.181345v 5.9509h 0.181345v -6.89811h 0.181345v -7.12567h 0.181345v 2.45181h 0.181345v 1.39884h 0.181345v 0.752818h 0.181345v -2.15166h 0.181345v 0.682762h
 0.181345v 8.21333h 0.181345v 1.27704h 0.181345v -9.49037h 0.181345v -1.9598h 0.181345v 4.22223h 0.181345v -6.99968h 0.181345v 5.45334h 0.181345v -2.67588h 0.181345v 5.06113h 0.36269v -5.06113h 0.181345v 4.22223h 0.181345v -1.54635h 0.181345v
 -4.93831h 0.181345v 7.32356h 0.181345v -7.83858h 0.181345v 5.45334h 0.181345v -3.27502h 0.181345v 0.599133h 0.181345v 0.624636h 0.181345v -2.88706h 0.181345v 4.22223h 0.181345v -5.23482h 0.181345v 4.55206h 0.181345v 2.15166h 0.181345v -1.4689h
 0.181345v -1.9598h 0.181345v 0.624636h 0.181345v 1.33517h 0.181345v -1.9598h 0.181345v -2.77745h 0.181345v 6.99968h 0.181345v -0.79353h 0.181345v -5.69113h 0.181345v -4.482h 0.181345v 6.74443h 0.181345v 1.9598h 0.181345v -2.55894h 0.36269v 1.22377h
 0.181345v -0.624636h 0.181345v 3.4287h 0.181345v -5.15737h 0.181345v -1.04878h 0.181345v 7.83858h 0.181345v -3.10133h 0.181345v -3.13457h 0.181345v -1.08766h 0.181345v 7.32356h 0.181345v -8.33615h 0.181345v 3.27502h 0.181345v 0.624636h 0.181345v
 -3.89965h 0.181345v 2.10025h 0.181345v 3.85065h 0.181345v -4.40455h 0.181345v 2.35331h 0.181345v 1.33517h 0.181345v 8.21333h 0.181345v -10.7723h 0.181345v 13.4481h 0.181345v -10.8892h 0.181345v 4.93831h 0.181345v -2.67588h 0.181345v 3.68847h
 0.181345v 4.93831h 0.181345v -4.93831h 0.181345v 2.26243h 0.181345v 7.9107h 0.181345v -10.1731h 0.181345v 8.21333h 0.181345v -7.12567h 0.181345v 3.85065h 0.181345v -4.93831h 0.36269v 3.53947h 0.181345v 2.94519h 0.181345v -6.48466h 0.181345v 8.21333h
 0.36269v 6.89811h 0.181345v -4.93831h 0.36269v -5.23482h 0.181345v 17.6704h 0.181345v -19.0692h 0.181345v 8.89609h 0.181345v -13.4481h 0.181345v 23.6213h 0.181345v -16.124h 0.181345v 8.62678h 0.181345v -4.93831h 0.181345v 4.93831h 0.36269v 23.6213h
 0.181345v -20.3463h 0.36269v -5.9509h 0.181345v 26.2972h 0.181345v -23.6213h 0.181345v 7.49725h 0.181345v -7.49725h 0.181345v 7.49725h 0.181345v 16.124h 0.181345v -20.3463h 0.181345v -3.27502h 0.181345v 7.49725h 0.181345v 16.124h 1.45076v -10.1731h
 0.181345v 10.1731h 0.181345v -23.6213h 0.181345v 13.4481h 0.181345v -5.9509h 0.36269v 5.9509h 0.36269v 10.1731h 0.181345v -16.124h 0.181345v 5.9509h 0.181345v 10.1731h 0.181345v 10.1731h 0.181345v -30.5194h 0.181345v 20.3463h 0.181345v 10.1731h
 0.181345v -26.2972h 0.181345v 16.124h 0.36269v 10.1731h 0.725379v -20.3463h 0.181345v 10.1731h 0.181345v 10.1731h 0.36269v -10.1731h 0.181345v 10.1731h 0.36269v -20.3463h 0.544034v 10.1731h 0.181345v -16.124h 0.181345v 16.124h 0.181345v 10.1731h
 0.181345v -20.3463h 0.181345v 10.1731h 0.181345v -10.1731h 0.181345v 20.3463h 0.181345v -26.2972h 0.181345v -4.22223h 0.181345v 20.3463h 0.181345v 10.1731h 0.181345v -20.3463h 0.181345v 20.3463h 0.181345v -30.5194h 0.181345v 20.3463h 0.906724v
 -16.124h 0.36269v 5.9509h 0.181345v -10.1731h 0.181345v 20.3463h 0.181345v -10.1731h 0.725379v -5.9509h 0.181345v -4.22223h 0.181345v 20.3463h 0.181345v -16.124h 0.36269v 26.2972h 0.36269v -20.3463h 0.181345v 10.1731h 0.181345v 10.1731h 0.181345v
 -26.2972h 0.181345v -4.22223h 0.181345v 4.22223h 0.181345v -4.22223h 0.181345v 4.22223h 0.181345v 26.2972h 0.36269v -20.3463h 0.181345v 20.3463h 0.181345v -10.1731h 0.181345v 10.1731h 0.181345v -20.3463h 0.181345v 20.3463h 0.181345v -20.3463h
 0.181345v 10.1731h 0.181345v 10.1731h 0.181345v -10.1731h 0.181345v -16.124h 0.181345v 26.2972h 0.181345v -20.3463h 0.181345v -5.9509h 0.181345v 5.9509h 0.181345v 10.1731h 0.36269v 10.1731h 0.181345v -10.1731h 0.181345v -20.3463h 0.181345v 30.5194h
 0.36269v -20.3463h 0.181345v 20.3463h 0.181345v -20.3463h 0.181345v 10.1731h 0.906724v 10.1731h 0.544034v -10.1731h 0.181345v -10.1731h 0.181345v 10.1731h 0.181345v -10.1731h 0.181345v 10.1731h 0.36269v -10.1731h 0.181345v 10.1731h 0.181345v
 -10.1731h 0.181345v 10.1731h 0.544034v -10.1731h 0.36269v 10.1731h 0.181345v 10.1731h 0.181345v -10.1731h 0.544034v 10.1731h 0.181345v -10.1731h 0.36269v -10.1731h 0.181345v 20.3463h 0.181345v -10.1731h 0.181345v 10.1731h 0.36269v -10.1731h
 0.181345v -10.1731h 0.36269v 20.3463h 0.36269v -10.1731h 0.181345v -16.124h 0.181345v 16.124h 0.36269v -16.124h 0.181345v 26.2972h 0.181345v -20.3463h 0.181345v 10.1731h 0.544034v 10.1731h 0.181345v -20.3463h 0.181345v 20.3463h 0.181345v -20.3463h
 0.36269v -10.1731h 0.181345v 30.5194h 0.36269v -20.3463h 0.181345v 10.1731h 0.181345v -16.124h 0.181345v 5.9509h 0.181345v 20.3463h 0.181345v -10.1731h 0.181345v -16.124h 0.181345v 26.2972h 0.181345v -30.5194h 0.181345v 20.3463h 0.906724v 10.1731h
 0.36269v -26.2972h 0.181345v 16.124h 0.181345v -16.124h 0.181345v 16.124h 0.36269v 10.1731h 0.181345v -20.3463h 0.181345v 10.1731h 0.181345v -10.1731h 0.181345v 10.1731h 0.181345v 10.1731h 0.181345v -20.3463h 0.181345v 20.3463h 0.181345v -10.1731h
 0.36269v -20.3463h 0.181345v 4.22223h 0.181345v 5.9509h 0.36269v 20.3463h 0.181345v -20.3463h 0.181345v 10.1731h 0.181345v 10.1731h 0.181345v -10.1731h 0.544034v -10.1731h 0.181345v 10.1731h 0.181345v 10.1731h 0.36269v -10.1731h 0.181345v -10.1731h
 0.181345v -5.9509h 0.181345v 26.2972h 0.181345v -10.1731h 0.181345v 10.1731h 0.181345v -10.1731h 0.181345v -10.1731h 0.544034v -5.9509h 0.181345v 26.2972h 0.181345v -10.1731h 0.36269v -10.1731h 0.36269v 20.3463h 0.181345v -10.1731h 0.181345v
 10.1731h 0.181345v -10.1731h 0.181345v -10.1731h 0.181345v 10.1731h 0.36269v 10.1731h 0.544034v -26.2972h 0.181345v 16.124h 0.181345v 10.1731h 0.544034v -10.1731h 0.181345v 10.1731h 0.725379v -26.2972h 0.181345v 16.124h 0.36269" fill="none"
 stroke="black"/>
<path d="M57.1929,280.151h 453.543" fill="none" stroke="black"/>
<path d="M57.1929,272.68v 7.47068" fill="none" stroke="black"/>
<path d="M75.3318,276.415v 3.73534" fill="none" stroke="black"/>
<path d="M93.4707,276.415v 3.73534" fill="none" stroke="black"/>
<path d="M111.61,276.415v 3.73534" fill="none" stroke="black"/>
<path d="M129.749,276.415v 3.73534" fill="none" stroke="black"/>
<path d="M147.887,272.68v 7.47068" fill="none" stroke="black"/>
<path d="M166.026,276.415v 3.73534" fill="none" stroke="black"/>
<path d="M184.165,276.415v 3.73534" fill="none" stroke="black"/>
<path d="M202.304,276.415v 3.73534" fill="none" stroke="black"/>
<path d="M220.443,276.415v 3.73534" fill="none" stroke="black"/>
<path d="M238.582,272.68v 7.47068" fill="none" stroke="black"/>
<path d="M256.721,276.415v 3.73534" fill="none" stroke="black"/>
<path d="M274.86,276.415v 3.73534" fill="none" stroke="black"/>
<path d="M292.999,276.415v 3.73534" fill="none" stroke="black"/>
<path d="M311.138,276.415v 3.73534" fill="none" stroke="black"/>
<path d="M329.277,272.68v 7.47068" fill="none" stroke="black"/>
<path d="M347.415,276.415v 3.73534" fill="none" stroke="black"/>
<path d="M365.554,276.415v 3.73534" fill="none" stroke="black"/>
<path d="M383.693,276.415v 3.73534" fill="none" stroke="black"/>
<path d="M401.832,276.415v 3.73534" fill="none" stroke="black"/>
<path d="M419.971,272.68v 7.47068" fill="none" stroke="black"/>
<path d="M438.11,276.415v 3.73534" fill="none" stroke="black"/>
<path d="M456.249,276.415v 3.73534" fill="none" stroke="black"/>
<path d="M474.388,276.415v 3.73534" fill="none" stroke="black"/>
<path d="M492.527,276.415v 3.73534" fill="none" stroke="black"/>
<path d="M510.666,272.68v 7.47068" fill="none" stroke="black"/>
<path d="M510.666,272.68v 7.47068" fill="none" stroke="black"/>
<text xml:space="preserve" x="54.3523" y="290.27" fill="black" font-size="10.4952" font-family="Helvetica">0</text>
<text xml:space="preserve" x="139.569" y="290.27" fill="black" font-size="10.4952" font-family="Helvetica">500</text>
<text xml:space="preserve" x="227.449" y="290.27" fill="black" font-size="10.4952" font-family="Helvetica">1000</text>
<text xml:space="preserve" x="318.288" y="290.27" fill="black" font-size="10.4952" font-family="Helvetica">1500</text>
<text xml:space="preserve" x="408.831" y="290.27" fill="black" font-size="10.4952" font-family="Helvetica">2000</text>
<text xml:space="preserve" x="499.67" y="290.27" fill="black" font-size="10.4952" font-family="Helvetica">2500</text>
<text xml:space="preserve" x="265.323" y="301.218" fill="black" font-size="10.4952" font-family="Helvetica">Channel</text>
<path d="M57.1929,280.151v -249.023" fill="none" stroke="black"/>
<path d="M63.9961,280.151h -6.80315" fill="none" stroke="black"/>
<path d="M63.9961,277.475h -6.80315" fill="none" stroke="black"/>
<path d="M63.9961,275.212h -6.80315" fill="none" stroke="black"/>
<path d="M63.9961,273.252h -6.80315" fill="none" stroke="black"/>
<path d="M63.9961,271.524h -6.80315" fill="none" stroke="black"/>
<path d="M70.7992,269.977h -13.6063" fill="none" stroke="black"/>
<text xml:space="preserve" x="49.0263" y="273.7" fill="black" font-size="10.4952" font-family="Helvetica">1</text>
<path d="M63.9961,259.804h -6.80315" fill="none" stroke="black"/>
<path d="M63.9961,253.853h -6.80315" fill="none" stroke="black"/>
<path d="M63.9961,249.631h -6.80315" fill="none" stroke="black"/>
<path d="M63.9961,246.356h -6.80315" fill="none" stroke="black"/>
<path d="M63.9961,243.68h -6.80315" fill="none" stroke="black"/>
<path d="M63.9961,241.418h -6.80315" fill="none" stroke="black"/>
<path d="M63.9961,239.458h -6.80315" fill="none" stroke="black"/>
<path d="M63.9961,237.729h -6.80315" fill="none" stroke="black"/>
<path d="M70.7992,236.183h -13.6063" fill="none" stroke="black"/>
<text xml:space="preserve" x="41.629" y="239.968" fill="black" font-size="10.4952" font-family="Helvetica">10</text>
<path d="M63.9961,226.01h -6.80315" fill="none" stroke="black"/>
<path d="M63.9961,220.059h -6.80315" fill="none" stroke="black"/>
<path d="M63.9961,215.837h -6.80315" fill="none" stroke="black"/>
<path d="M63.9961,212.562h -6.80315" fill="none" stroke="black"/>
<path d="M63.9961,209.886h -6.80315" fill="none" stroke="black"/>
<path d="M63.9961,207.623h -6.80315" fill="none" stroke="black"/>
<path d="M63.9961,205.664h -6.80315" fill="none" stroke="black"/>
<path d="M63.9961,203.935h -6.80315" fill="none" stroke="black"/>
<path d="M70.7992,202.389h -13.6063" fill="none" stroke="black"/>
<text xml:space="preserve" x="49.0263" y="202.39" fill="black" font-size="7.16345" font-family="Helvetica">2</text>
<text xml:space="preserve" x="38.0783" y="206.829" fill="black" font-size="10.4952" font-family="Helvetica">10</text>
<path d="M63.9961,192.215h -6.80315" fill="none" stroke="black"/>
<path d="M63.9961,186.265h -6.80315" fill="none" stroke="black"/>
<path d="M63.9961,182.042h -6.80315" fill="none" stroke="black"/>
<path d="M63.9961,178.767h -6.80315" fill="none" stroke="black"/>
<path d="M63.9961,176.091h -6.80315" fill="none" stroke="black"/>
<path d="M63.9961,173.829h -6.80315" fill="none" stroke="black"/>
<path d="M63.9961,171.869h -6.80315" fill="none" stroke="black"/>
<path d="M63.9961,170.141h -6.80315" fill="none" stroke="black"/>
<path d="M70.7992,168.594h -13.6063" fill="none" stroke="black"/>
<text xml:space="preserve" x="49.0263" y="168.363" fill="black" font-size="7.16345" font-family="Helvetica">3</text>
<text xml:space="preserve" x="38.0783" y="173.097" fill="black" font-size="10.4952" font-family="Helvetica">10</text>
<path d="M63.9961,158.421h -6.80315" fill="none" stroke="black"/>
<path d="M63.9961,152.47h -6.80315" fill="none" stroke="black"/>
<path d="M63.9961,148.248h -6.80315" fill="none" stroke="black"/>
<path d="M63.9961,144.973h -6.80315" fill="none" stroke="black"/>
<path d="M63.9961,142.297h -6.80315" fill="none" stroke="black"/>
<path d="M63.9961,140.035h -6.80315" fill="none" stroke="black"/>
<path d="M63.9961,138.075h -6.80315" fill="none" stroke="black"/>
<path d="M63.9961,136.346h -6.80315" fill="none" stroke="black"/>
<path d="M70.7992,134.8h -13.6063" fill="none" stroke="black"/>
<text xml:space="preserve" x="49.0263" y="134.927" fill="black" font-size="7.16345" font-family="Helvetica">4</text>
<text xml:space="preserve" x="38.0783" y="139.365" fill="black" font-size="10.4952" font-family="Helvetica">10</text>
<path d="M63.9961,124.627h -6.80315" fill="none" stroke="black"/>
<path d="M63.9961,118.676h -6.80315" fill="none" stroke="black"/>
<path d="M63.9961,114.454h -6.80315" fill="none" stroke="black"/>
<path d="M63.9961,111.179h -6.80315" fill="none" stroke="black"/>
<path d="M63.9961,108.503h -6.80315" fill="none" stroke="black"/>
<path d="M63.9961,106.24h -6.80315" fill="none" stroke="black"/>
<path d="M63.9961,104.28h -6.80315" fill="none" stroke="black"/>
<path d="M63.9961,102.552h -6.80315" fill="none" stroke="black"/>
<path d="M70.7992,101.005h -13.6063" fill="none" stroke="black"/>
<text xml:space="preserve" x="49.0263" y="100.899" fill="black" font-size="7.16345" font-family="Helvetica">5</text>
<text xml:space="preserve" x="38.0783" y="105.633" fill="black" font-size="10.4952" font-family="Helvetica">10</text>
<path d="M63.9961,90.8322h -6.80315" fill="none" stroke="black"/>
<path d="M63.9961,84.8813h -6.80315" fill="none" stroke="black"/>
<path d="M63.9961,80.6591h -6.80315" fill="none" stroke="black"/>
<path d="M63.9961,77.3841h -6.80315" fill="none" stroke="black"/>
<path d="M63.9961,74.7082h -6.80315" fill="none" stroke="black"/>
<path d="M63.9961,72.4458h -6.80315" fill="none" stroke="black"/>
<path d="M63.9961,70.486h -6.80315" fill="none" stroke="black"/>
<path d="M63.9961,68.7573h -6.80315" fill="none" stroke="black"/>
<path d="M70.7992,67.211h -13.6063" fill="none" stroke="black"/>
<text xml:space="preserve" x="49.0263" y="67.1675" fill="black" font-size="7.16345" font-family="Helvetica">6</text>
<text xml:space="preserve" x="38.0783" y="71.9018" fill="black" font-size="10.4952" font-family="Helvetica">10</text>
<path d="M63.9961,57.0378h -6.80315" fill="none" stroke="black"/>
<path d="M63.9961,51.0869h -6.80315" fill="none" stroke="black"/>
<path d="M63.9961,46.8647h -6.80315" fill="none" stroke="black"/>
<path d="M63.9961,43.5897h -6.80315" fill="none" stroke="black"/>
<path d="M63.9961,40.9138h -6.80315" fill="none" stroke="black"/>
<path d="M63.9961,38.6514h -6.80315" fill="none" stroke="black"/>
<path d="M63.9961,36.6916h -6.80315" fill="none" stroke="black"/>
<path d="M63.9961,34.9629h -6.80315" fill="none" stroke="black"/>
<path d="M70.7992,33.4166h -13.6063" fill="none" stroke="black"/>
<text xml:space="preserve" x="49.0263" y="33.4358" fill="black" font-size="7.16345" font-family="Helvetica">7</text>
<text xml:space="preserve" x="38.0783" y="37.8742" fill="black" font-size="10.4952" font-family="Helvetica">10</text>
<g transform="rotate(-90,26.5385,191.442)">
<text xml:space="preserve" x="26.5385" y="191.442" fill="black" font-size="10.4952" font-family="Helvetica">Counts/Channel</text>
</g>
<text xml:space="preserve" x="404.097" y="67.1675" fill="black" font-size="14.7788" font-family="Helvetica" font-weight="bold"> = 2.4879 MeV</text>
<text xml:space="preserve" x="398.179" y="70.4223" fill="black" font-size="10.0192" font-family="Helvetica" font-weight="bold">p</text>
<text xml:space="preserve" x="389.006" y="67.1675" fill="black" font-size="14.7788" font-family="Helvetica" font-weight="bold">E</text>
<path d="M262.163,167.195v 25.2738" fill="none" stroke="black"/>
<path d="M264.454,192.469l -2.29122, 3.9685l -2.29122, -3.9685z" fill="black"/>
<path d="M264.454,192.469l -2.29122, 3.9685l -2.29122, -3.9685h 4.58243z" fill="none" stroke="black"/>
<text xml:space="preserve" x="266.803" y="165.108" fill="black" font-size="10.4952" font-family="Helvetica" font-weight="bold">_1 	1.369 MeV</text>
<text xml:space="preserve" x="260.293" y="165.108" fill="black" font-size="10.4952" font-family="Times">&#0945;</text>
<path d="M184.528,134.8v 29.8259" fill="none" stroke="black"/>
<path d="M186.819,164.626l -2.29122, 3.9685l -2.29122, -3.9685z" fill="black"/>
<path d="M186.819,164.626l -2.29122, 3.9685l -2.29122, -3.9685h 4.58243z" fill="none" stroke="black"/>
<text xml:space="preserve" x="172.117" y="131.968" fill="black" font-size="10.4952" font-family="Helvetica" font-weight="bold"># p_1 	0.844 MeV</text>
<path d="M210.104,152.47v 12.1555" fill="none" stroke="black"/>
<path d="M212.395,164.626l -2.29122, 3.9685l -2.29122, -3.9685z" fill="black"/>
<path d="M212.395,164.626l -2.29122, 3.9685l -2.29122, -3.9685h 4.58243z" fill="none" stroke="black"/>
<text xml:space="preserve" x="197.564" y="148.242" fill="black" font-size="10.4952" font-family="Helvetica" font-weight="bold"># p_2 	1.015 MeV</text>
<path d="M497.993,269.977h 12.673" fill="none" stroke="black"/>
<path d="M504.329,259.804h 6.33651" fill="none" stroke="black"/>
<path d="M504.329,253.853h 6.33651" fill="none" stroke="black"/>
<path d="M504.329,249.631h 6.33651" fill="none" stroke="black"/>
<path d="M504.329,246.356h 6.33651" fill="none" stroke="black"/>
<path d="M504.329,243.68h 6.33651" fill="none" stroke="black"/>
<path d="M504.329,241.418h 6.33651" fill="none" stroke="black"/>
<path d="M504.329,239.458h 6.33651" fill="none" stroke="black"/>
<path d="M504.329,237.729h 6.33651" fill="none" stroke="black"/>
<path d="M497.993,236.183h 12.673" fill="none" stroke="black"/>
<path d="M504.329,226.01h 6.33651" fill="none" stroke="black"/>
<path d="M504.329,220.059h 6.33651" fill="none" stroke="black"/>
<path d="M504.329,215.837h 6.33651" fill="none" stroke="black"/>
<path d="M504.329,212.562h 6.33651" fill="none" stroke="black"/>
<path d="M504.329,209.886h 6.33651" fill="none" stroke="black"/>
<path d="M504.329,207.623h 6.33651" fill="none" stroke="black"/>
<path d="M504.329,205.664h 6.33651" fill="none" stroke="black"/>
<path d="M504.329,203.935h 6.33651" fill="none" stroke="black"/>
<path d="M497.993,202.389h 12.673" fill="none" stroke="black"/>
<path d="M504.329,192.215h 6.33651" fill="none" stroke="black"/>
<path d="M504.329,186.265h 6.33651" fill="none" stroke="black"/>
<path d="M504.329,182.042h 6.33651" fill="none" stroke="black"/>
<path d="M504.329,178.767h 6.33651" fill="none" stroke="black"/>
<path d="M504.329,176.091h 6.33651" fill="none" stroke="black"/>
<path d="M504.329,173.829h 6.33651" fill="none" stroke="black"/>
<path d="M504.329,171.869h 6.33651" fill="none" stroke="black"/>
<path d="M504.329,170.141h 6.33651" fill="none" stroke="black"/>
<path d="M497.993,168.594h 12.673" fill="none" stroke="black"/>
<path d="M504.329,158.421h 6.33651" fill="none" stroke="black"/>
<path d="M504.329,152.47h 6.33651" fill="none" stroke="black"/>
<path d="M504.329,148.248h 6.33651" fill="none" stroke="black"/>
<path d="M504.329,144.973h 6.33651" fill="none" stroke="black"/>
<path d="M504.329,142.297h 6.33651" fill="none" stroke="black"/>
<path d="M504.329,140.035h 6.33651" fill="none" stroke="black"/>
<path d="M504.329,138.075h 6.33651" fill="none" stroke="black"/>
<path d="M504.329,136.346h 6.33651" fill="none" stroke="black"/>
<path d="M497.993,134.8h 12.673" fill="none" stroke="black"/>
<path d="M504.329,124.627h 6.33651" fill="none" stroke="black"/>
<path d="M504.329,118.676h 6.33651" fill="none" stroke="black"/>
<path d="M504.329,114.454h 6.33651" fill="none" stroke="black"/>
<path d="M504.329,111.179h 6.33651" fill="none" stroke="black"/>
<path d="M504.329,108.503h 6.33651" fill="none" stroke="black"/>
<path d="M504.329,106.24h 6.33651" fill="none" stroke="black"/>
<path d="M504.329,104.28h 6.33651" fill="none" stroke="black"/>
<path d="M504.329,102.552h 6.33651" fill="none" stroke="black"/>
<path d="M497.993,101.005h 12.673" fill="none" stroke="black"/>
<path d="M504.329,90.8322h 6.33651" fill="none" stroke="black"/>
<path d="M504.329,84.8813h 6.33651" fill="none" stroke="black"/>
<path d="M504.329,80.6591h 6.33651" fill="none" stroke="black"/>
<path d="M504.329,77.3841h 6.33651" fill="none" stroke="black"/>
<path d="M504.329,74.7082h 6.33651" fill="none" stroke="black"/>
<path d="M504.329,72.4458h 6.33651" fill="none" stroke="black"/>
<path d="M504.329,70.486h 6.33651" fill="none" stroke="black"/>
<path d="M504.329,68.7573h 6.33651" fill="none" stroke="black"/>
<path d="M497.993,67.211h 12.673" fill="none" stroke="black"/>
<path d="M504.329,57.0378h 6.33651" fill="none" stroke="black"/>
<path d="M504.329,51.0869h 6.33651" fill="none" stroke="black"/>
<path d="M504.329,46.8647h 6.33651" fill="none" stroke="black"/>
<path d="M504.329,43.5897h 6.33651" fill="none" stroke="black"/>
<path d="M504.329,40.9138h 6.33651" fill="none" stroke="black"/>
<path d="M504.329,38.6514h 6.33651" fill="none" stroke="black"/>
<path d="M57.1929,45.505v -7.46952" fill="none" stroke="black"/>
<path d="M75.3318,45.505v -7.46952" fill="none" stroke="black"/>
<path d="M93.4707,45.505v -7.46952" fill="none" stroke="black"/>
<path d="M111.61,45.505v -7.46952" fill="none" stroke="black"/>
<path d="M129.749,45.505v -7.46952" fill="none" stroke="black"/>
<path d="M147.887,45.505v -7.46952" fill="none" stroke="black"/>
<path d="M166.026,45.505v -7.46952" fill="none" stroke="black"/>
<path d="M184.165,45.505v -7.46952" fill="none" stroke="black"/>
<path d="M202.304,45.505v -7.46952" fill="none" stroke="black"/>
<path d="M220.443,45.505v -7.46952" fill="none" stroke="black"/>
<path d="M238.582,45.505v -7.46952" fill="none" stroke="black"/>
<path d="M256.721,45.505v -7.46952" fill="none" stroke="black"/>
<path d="M274.86,45.505v -7.46952" fill="none" stroke="black"/>
<path d="M292.999,45.505v -7.46952" fill="none" stroke="black"/>
<path d="M311.138,45.505v -7.46952" fill="none" stroke="black"/>
<path d="M329.277,45.505v -7.46952" fill="none" stroke="black"/>
<path d="M347.415,45.505v -7.46952" fill="none" stroke="black"/>
<path d="M365.554,45.505v -7.46952" fill="none" stroke="black"/>
<path d="M383.693,45.505v -7.46952" fill="none" stroke="black"/>
<path d="M401.832,45.505v -7.46952" fill="none" stroke="black"/>
<path d="M419.971,45.505v -7.46952" fill="none" stroke="black"/>
<path d="M438.11,45.505v -7.46952" fill="none" stroke="black"/>
<path d="M456.249,45.505v -7.46952" fill="none" stroke="black"/>
<path d="M474.388,45.505v -7.46952" fill="none" stroke="black"/>
<path d="M492.527,45.505v -7.46952" fill="none" stroke="black"/>
<path d="M510.666,45.505v -7.46952" fill="none" stroke="black"/></svg>
