<?xml version="1.0" standalone="no"?>
<svg width="567.429" height="311.778" viewBox="0 0 567.429 311.778" xmlns="http://www.w3.org/2000/svg" shape-rendering="crispEdges">
<title>
Yields/P1/run_0097/det7_Fit.svg
</title>
<desc>
Creator: ROOT Version 6.12/06
CreationDate: Mon Apr 15 10:29:01 2019</desc>
<defs>
</defs>
<rect x="0.5" y="0" width="566.929" height="311.278" fill="white"/>
<rect x="57.1929" y="31.1278" width="453.543" height="249.023" fill="white"/>
<rect x="57.1929" y="31.1278" width="453.543" height="249.023" fill="none" stroke="black"/>
<path d="M57.1929,40.5064h 0.181345v 239.644h 17.7718v -10.172h 0.181345v 10.172h 0.906724v -10.172h 0.181345v 10.172h 2.35748v -10.172h 0.181345v 10.172h 1.08807v -20.344h 0.181345v 10.172h 0.181345v 10.172h 0.725379v -10.172h 0.181345v 10.172h
 1.45076v -10.172h 0.36269v 10.172h 0.725379v -10.172h 0.36269v 10.172h 0.725379v -10.172h 0.181345v 10.172h 0.36269v -10.172h 0.181345v 10.172h 0.36269v -10.172h 0.725379v -10.172h 0.181345v 20.344h 0.181345v -20.344h 0.181345v 10.172h 0.181345v
 10.172h 0.181345v -20.344h 0.181345v 20.344h 0.181345v -30.5161h 0.181345v 10.172h 0.36269v -13.4467h 0.36269v -18.7979h 0.181345v -13.1169h 0.181345v -14.4769h 0.181345v -11.1347h 0.181345v -7.53133h 0.181345v -4.97755h 0.181345v -3.80623h
 0.181345v -2.16883h 0.181345v -0.567303h 0.181345v -1.65232h 0.181345v -1.23897h 0.181345v -0.68862h 0.181345v -0.441759h 0.181345v 0.0727093h 0.181345v -2.10164h 0.181345v 1.0924h 0.181345v -1.83145h 0.181345v -0.22845h 0.181345v -0.147096h
 0.181345v -0.60219h 0.181345v 0.553484h 0.181345v -0.00972184h 0.181345v -0.56248h 0.181345v -0.396774h 0.36269v -0.216878h 0.181345v 0.40009h 0.181345v -0.498431h 0.181345v 0.24257h 0.181345v -0.724626h 0.181345v 1.06369h 0.181345v -0.384283h
 0.181345v -0.618922h 0.181345v -0.342292h 0.181345v 0.51648h 0.181345v -0.60082h 0.181345v 0.662277h 0.181345v -0.0964607h 0.181345v -0.906631h 0.181345v 0.0329039h 0.181345v 0.30791h 0.181345v -0.158923h 0.181345v -0.214721h 0.181345v 0.887112h
 0.181345v -0.747073h 0.181345v -0.27063h 0.181345v 0.801571h 0.181345v 0.0947063h 0.181345v -0.467535h 0.181345v -0.248877h 0.181345v 0.986649h 0.181345v 0.0440562h 0.181345v 0.447993h 0.181345v -0.719034h 0.181345v 0.359552h 0.181345v -0.617167h
 0.181345v 0.0682565h 0.181345v -0.627774h 0.181345v -0.633442h 0.181345v -1.89667h 0.181345v -2.07379h 0.181345v -3.20865h 0.181345v -2.81129h 0.181345v -2.45948h 0.181345v -3.55947h 0.181345v -3.07347h 0.181345v -2.53632h 0.181345v -2.06377h
 0.181345v -2.09221h 0.181345v -1.0736h 0.181345v -0.80378h 0.181345v -0.28925h 0.181345v 0.603793h 0.181345v 1.12761h 0.181345v 1.5161h 0.181345v 2.13968h 0.181345v 2.5058h 0.181345v 3.36955h 0.181345v 3.79568h 0.181345v 4.40228h 0.181345v 3.24936h
 0.181345v 4.95206h 0.181345v 3.42752h 0.181345v 3.19223h 0.181345v 1.64861h 0.181345v 1.41899h 0.181345v 1.43897h 0.181345v 0.569654h 0.181345v -0.270829h 0.181345v 1.3702h 0.181345v -0.201157h 0.181345v 0.574116h 0.181345v -0.169005h 0.181345v
 0.532317h 0.181345v -0.401037h 0.181345v -0.242878h 0.181345v 0.242878h 0.181345v -0.205773h 0.181345v 1.28028h 0.181345v -0.71214h 0.181345v 0.490853h 0.181345v -1.29852h 0.181345v 0.826986h 0.181345v 1.72123h 0.181345v -1.20971h 0.181345v
 0.242236h 0.181345v -0.96491h 0.181345v 0.269276h 0.181345v 0.838807h 0.181345v 0.459287h 0.181345v -0.189631h 0.181345v -0.0626697h 0.181345v 0.167718h 0.181345v 0.0845831h 0.181345v -0.8046h 0.181345v 1.01822h 0.181345v 2.35211h 0.181345v
 -2.04773h 0.181345v 0.355778h 0.181345v 0.203982h 0.181345v -0.734466h 0.181345v 0.849026h 0.181345v 0.901179h 0.181345v 0.172216h 0.181345v 0.401396h 0.181345v -0.450807h 0.181345v 1.31507h 0.181345v -1.29038h 0.181345v 0.198988h 0.181345v
 0.613683h 0.181345v -1.37017h 0.181345v -0.212516h 0.181345v 1.37526h 0.181345v -0.481195h 0.181345v 1.19333h 0.181345v -0.399892h 0.181345v 0.0263231h 0.181345v 1.46735h 0.181345v -1.46735h 0.181345v 0.618841h 0.181345v -0.645164h 0.181345v
 -0.414872h 0.181345v 1.53482h 0.181345v -0.336729h 0.181345v -0.5713h 0.181345v 0.460753h 0.181345v 0.908615h 0.181345v -0.546248h 0.181345v 0.256216h 0.181345v -0.199665h 0.181345v 0.257214h 0.181345v 0.678569h 0.181345v -0.446087h 0.181345v
 -0.174706h 0.181345v 0.174706h 0.181345v -0.347356h 0.181345v 0.82367h 0.181345v -0.622046h 0.181345v 1.65615h 0.181345v -0.697437h 0.181345v 0.186947h 0.181345v -1.26122h 0.181345v 0.920279h 0.181345v -0.152391h 0.181345v -0.681309h 0.181345v
 0.803095h 0.181345v 0.465916h 0.181345v -0.343111h 0.181345v -0.0922h 0.181345v 0.309613h 0.181345v 0.0627143h 0.181345v -0.585235h 0.181345v 0.838807h 0.181345v -0.0319372h 0.181345v -0.377921h 0.181345v -0.123841h 0.181345v -0.061531h 0.181345v
 -0.152708h 0.181345v -2.83675h 0.181345v 1.78179h 0.181345v -1.60544h 0.181345v -0.101034h 0.181345v -0.950257h 0.181345v -0.395705h 0.181345v -0.847735h 0.181345v 0.174446h 0.181345v -0.410974h 0.181345v -0.64677h 0.181345v 0.456043h 0.181345v
 0.557893h 0.181345v 0.557209h 0.181345v -1.15715h 0.181345v 1.08916h 0.181345v -0.291049h 0.181345v 2.69334h 0.181345v 1.16354h 0.181345v -0.171976h 0.181345v 0.941413h 0.181345v 0.620605h 0.181345v 0.255782h 0.181345v 0.829324h 0.181345v -0.957772h
 0.181345v 1.80059h 0.181345v 0.894193h 0.181345v -1.90667h 0.36269v 1.2677h 0.181345v 0.832318h 0.181345v -0.497509h 0.181345v 0.189359h 0.181345v 0.230504h 0.181345v -0.864598h 0.181345v -0.607826h 0.181345v 0.791497h 0.181345v 1.03362h 0.181345v
 0.239926h 0.181345v -1.12493h 0.36269v -0.728443h 0.181345v 0.65395h 0.181345v -1.0397h 0.181345v 3.4575h 0.181345v -2.7847h 0.181345v -0.251477h 0.181345v 1.69735h 0.181345v 0.570771h 0.181345v -0.570771h 0.181345v -1.26357h 0.181345v 1.02559h
 0.181345v -0.502754h 0.181345v -0.0379693h 0.181345v -0.150902h 0.181345v 1.79431h 0.181345v -1.64341h 0.181345v 0.267871h 0.181345v 0.351751h 0.181345v -1.25051h 0.181345v 0.668856h 0.181345v 1.02335h 0.181345v -1.90855h 0.181345v 1.03807h
 0.181345v -2.17411h 0.181345v 0.166575h 0.181345v 0.546114h 0.181345v -0.910115h 0.181345v -0.949153h 0.181345v -0.600293h 0.181345v 1.68077h 0.181345v -0.261479h 0.181345v 0.195671h 0.181345v 0.365651h 0.181345v -0.62597h 0.181345v 1.17464h
 0.181345v -0.582287h 0.181345v 0.443185h 0.181345v -0.742348h 0.181345v 1.96899h 0.181345v 0.0376768h 0.181345v 0.382186h 0.181345v 1.04293h 0.181345v -0.650527h 0.181345v 0.94446h 0.181345v -1.5292h 0.181345v 1.48685h 0.181345v -0.25158h 0.36269v
 -0.650527h 0.181345v -0.236701h 0.181345v 0.721873h 0.181345v -0.0819841h 0.181345v -0.040821h 0.181345v 1.1441h 0.181345v -1.2254h 0.181345v -0.24124h 0.181345v -0.0795402h 0.181345v 0.815494h 0.36269v -1.47473h 0.181345v 1.60105h 0.181345v
 -1.41022h 0.181345v -0.152867h 0.181345v 1.99221h 0.181345v -0.804898h 0.181345v 0.207572h 0.181345v 0.295624h 0.181345v 0.698947h 0.181345v -1.11947h 0.181345v -1.19376h 0.181345v 1.31865h 0.181345v -0.330721h 0.181345v -0.717948h 0.181345v
 0.394516h 0.181345v 0.654153h 0.181345v -0.892133h 0.181345v 0.850383h 0.181345v 0.04175h 0.181345v -0.694085h 0.181345v -1.44213h 0.181345v 2.86476h 0.181345v -3.29222h 0.181345v 1.71094h 0.181345v 0.852737h 0.181345v -1.00969h 0.181345v 0.39558h
 0.181345v 0.572361h 0.181345v 0.726428h 0.36269v -2.56566h 0.181345v 0.0368259h 0.181345v 0.717845h 0.181345v -0.382186h 0.181345v -0.372485h 0.181345v 3.28386h 0.181345v -1.40287h 0.181345v 0.0418691h 0.181345v -2.67559h 0.181345v 1.89981h
 0.181345v 0.321659h 0.181345v -0.94457h 0.181345v -0.634094h 0.181345v 1.0203h 0.181345v 0.276525h 0.181345v -1.00184h 0.181345v 0.803793h 0.181345v -0.42652h 0.181345v 0.192337h 0.181345v 0.0387718h 0.181345v -0.116009h 0.181345v 0.0772377h
 0.181345v -0.457443h 0.181345v -0.624568h 0.181345v 0.77547h 0.181345v 0.619622h 0.181345v 0.646942h 0.181345v -1.45495h 0.181345v 1.00713h 0.181345v 0.161267h 0.181345v 0.621043h 0.181345v -1.97544h 0.181345v 2.01779h 0.181345v -0.864703h 0.181345v
 1.60405h 0.181345v -0.26522h 0.181345v 0.220683h 0.181345v -0.351517h 0.181345v -0.25822h 0.181345v 0.833789h 0.181345v 0.0452238h 0.181345v -1.7486h 0.181345v 1.70337h 0.181345v -1.12941h 0.181345v 0.772553h 0.181345v 0.768981h 0.181345v -1.62492h
 0.181345v 1.44032h 0.181345v -1.27308h 0.181345v -0.0838581h 0.181345v -0.330721h 0.181345v 2.10631h 0.181345v -0.958903h 0.181345v 0.81802h 0.181345v -0.595328h 0.181345v 2.0174h 0.181345v -1.09122h 0.181345v -0.470397h 0.181345v 1.35708h 0.181345v
 0.728702h 0.181345v -2.08579h 0.181345v 2.08579h 0.181345v -0.677835h 0.181345v 0.465916h 0.181345v 0.426943h 0.181345v 1.12508h 0.181345v -0.851794h 0.181345v -1.16615h 0.181345v 0.571493h 0.181345v 0.321366h 0.36269v 0.893059h 0.181345v -2.2375h
 0.181345v 3.81568h 0.181345v -3.76619h 0.181345v 0.815494h 0.181345v 1.03121h 0.181345v -0.551761h 0.181345v 1.00861h 0.181345v 0.233871h 0.181345v -1.29653h 0.181345v 0.889674h 0.181345v 0.057437h 0.181345v -0.619771h 0.181345v -0.43485h 0.181345v
 0.939971h 0.181345v 2.28123h 0.181345v -1.09231h 0.181345v 0.9595h 0.181345v -3.40628h 0.181345v 0.752735h 0.181345v 0.735324h 0.181345v 0.652335h 0.181345v -0.477282h 0.181345v 0.416766h 0.181345v -0.475349h 0.181345v 1.53968h 0.181345v -0.759227h
 0.181345v -0.244591h 0.181345v 0.368432h 0.181345v -0.185372h 0.181345v 2.03875h 0.181345v -1.97722h 0.181345v 1.55989h 0.181345v -2.45681h 0.181345v 1.59136h 0.181345v -2.38175h 0.181345v 3.31594h 0.181345v -2.3505h 0.181345v -0.348043h 0.181345v
 1.76435h 0.181345v 1.00325h 0.181345v -0.206211h 0.181345v -2.15453h 0.181345v 2.22294h 0.181345v -0.670213h 0.181345v -0.827884h 0.181345v 1.63589h 0.181345v -2.99512h 0.36269v 0.872046h 0.181345v 2.19246h 0.181345v -1.20136h 0.181345v -0.870814h
 0.181345v -0.180065h 0.181345v 0.796758h 0.181345v -0.97464h 0.181345v 0.663055h 0.181345v 2.04794h 0.181345v -0.488054h 0.181345v -0.538597h 0.181345v 0.470181h 0.181345v -1.73606h 0.181345v 3.62755h 0.181345v -2.29542h 0.181345v 1.31922h 0.181345v
 -2.03206h 0.181345v 0.255226h 0.181345v 2.75303h 0.181345v -3.44449h 0.181345v -0.243576h 0.181345v 0.553844h 0.36269v 2.01344h 0.181345v -2.62755h 0.181345v 1.65349h 0.181345v -0.593681h 0.181345v -0.50828h 0.181345v 0.901387h 0.181345v -1.08754h
 0.36269v 0.0617901h 0.181345v 1.70528h 0.181345v -0.679525h 0.181345v -1.27137h 0.36269v -0.886091h 0.181345v 1.76435h 0.181345v -0.999544h 0.181345v -1.76199h 0.181345v 0.0536568h 0.36269v -0.371542h 0.181345v 0.97509h 0.181345v -1.18325h 0.181345v
 -0.45784h 0.181345v 0.7712h 0.181345v -2.86788h 0.181345v 2.09668h 0.181345v -0.874935h 0.181345v -1.13465h 0.181345v 0.398444h 0.181345v -0.82883h 0.181345v -0.0845831h 0.181345v 0.212379h 0.181345v -1.34804h 0.181345v 0.638149h 0.181345v 0.329792h
 0.181345v 0.337374h 0.181345v -0.211766h 0.181345v -1.21017h 0.181345v 1.59358h 0.181345v -1.00096h 0.181345v 1.00096h 0.181345v -0.757051h 0.181345v -0.0817558h 0.181345v 0.667166h 0.181345v 1.57465h 0.181345v 1.03285h 0.181345v -1.99776h 0.181345v
 -0.905361h 0.181345v 1.31115h 0.181345v 0.37037h 0.181345v -1.25735h 0.181345v 0.570405h 0.181345v -0.784021h 0.181345v 0.430386h 0.181345v -0.807229h 0.181345v -1.15236h 0.181345v 0.505418h 0.181345v 0.0793252h 0.181345v -0.812269h 0.181345v
 -0.261064h 0.181345v -3.58916h 0.181345v -0.455963h 0.181345v -1.54337h 0.181345v -0.125752h 0.181345v -2.77542h 0.181345v -0.786896h 0.181345v -1.65188h 0.181345v -1.16383h 0.181345v -1.71226h 0.181345v -1.28412h 0.181345v -0.709705h 0.181345v
 -1.51844h 0.181345v -1.20954h 0.181345v 0.58687h 0.181345v -0.825495h 0.181345v -0.888463h 0.181345v -0.192463h 0.181345v 0.664943h 0.181345v -0.0399595h 0.181345v -0.0994253h 0.181345v 0.42219h 0.181345v 1.28896h 0.181345v 0.122992h 0.181345v
 1.15593h 0.181345v 0.36905h 0.181345v 1.95603h 0.181345v 1.59212h 0.181345v 1.27546h 0.181345v 1.39696h 0.181345v 3.80272h 0.181345v 0.198651h 0.181345v 2.44245h 0.181345v 1.7211h 0.181345v 1.87446h 0.181345v 1.8897h 0.181345v 0.39136h 0.181345v
 1.48266h 0.181345v 2.0364h 0.181345v 0.571088h 0.181345v 1.2769h 0.181345v 1.25959h 0.36269v 0.421324h 0.181345v 2.14393h 0.181345v -2.83956h 0.181345v 0.767046h 0.181345v 0.289174h 0.181345v 0.90337h 0.181345v -0.383184h 0.181345v -0.150515h
 0.181345v 1.91687h 0.181345v -1.99155h 0.181345v -0.0743046h 0.181345v 2.15142h 0.181345v -1.77608h 0.181345v 0.0762346h 0.181345v -0.451578h 0.181345v 1.8121h 0.181345v -1.58805h 0.181345v 2.36287h 0.181345v -1.74811h 0.181345v -1.9792h 0.181345v
 0.207182h 0.181345v 4.90998h 0.181345v -3.21623h 0.181345v 0.556846h 0.181345v 0.92011h 0.181345v -1.00096h 0.181345v -0.861188h 0.181345v 0.542151h 0.181345v 3.55344h 0.181345v -2.05976h 0.181345v 0.443391h 0.181345v -1.12608h 0.181345v -1.42898h
 0.181345v 2.73623h 0.181345v 0.0914341h 0.181345v -2.90312h 0.181345v 1.33861h 0.181345v 0.503196h 0.181345v -0.503196h 0.181345v -1.26316h 0.181345v 0.856616h 0.181345v 1.16796h 0.181345v 0.98769h 0.181345v -2.23562h 0.181345v 0.904636h 0.181345v
 0.964086h 0.181345v -1.04867h 0.181345v -0.899593h 0.181345v 2.98017h 0.181345v -3.05928h 0.181345v 0.56295h 0.181345v 1.19515h 0.181345v 1.01248h 0.181345v 0.191834h 0.181345v -2.23457h 0.181345v 2.23457h 0.181345v -1.46874h 0.181345v 0.900597h
 0.181345v -0.724845h 0.181345v 1.00617h 0.181345v 1.38922h 0.181345v -1.57737h 0.181345v 0.0937711h 0.181345v 1.69325h 0.181345v -1.40828h 0.181345v -0.747939h 0.181345v -1.3904h 0.181345v 1.66643h 0.181345v 1.36158h 0.181345v -0.696577h 0.181345v
 -1.12221h 0.181345v 0.457206h 0.181345v 1.15916h 0.181345v -1.61637h 0.181345v -0.95836h 0.181345v 0.602582h 0.181345v 1.47799h 0.36269v 0.798843h 0.181345v 0.736541h 0.181345v -2.01344h 0.181345v -0.279535h 0.181345v -0.543585h 0.181345v 0.636173h
 0.181345v 1.26003h 0.181345v -0.883719h 0.181345v -0.468894h 0.36269v 0.185764h 0.181345v -2.24882h 0.181345v 0.909735h 0.181345v -0.667166h 0.181345v 0.752735h 0.181345v -1.77608h 0.181345v -1.02768h 0.181345v 0.142478h 0.181345v -1.56049h
 0.181345v -2.37211h 0.181345v -1.10709h 0.181345v -0.499202h 0.181345v -2.88675h 0.181345v -1.38402h 0.181345v 0.110478h 0.181345v -2.90786h 0.181345v -0.996299h 0.181345v -2.84926h 0.181345v -1.56949h 0.181345v -0.855103h 0.181345v -0.486298h
 0.181345v -1.05197h 0.181345v -2.13441h 0.181345v -0.662374h 0.181345v -1.60201h 0.181345v 0.565015h 0.181345v -2.32865h 0.181345v 0.152929h 0.181345v 0.250455h 0.181345v -0.624066h 0.181345v -1.05622h 0.181345v 1.42983h 0.181345v 0.61583h 0.181345v
 -1.4099h 0.181345v 1.55863h 0.181345v 0.584541h 0.181345v 1.68802h 0.36269v 2.22586h 0.181345v 1.18028h 0.181345v 1.32367h 0.181345v 0.656898h 0.181345v 1.87883h 0.181345v 1.74639h 0.181345v 1.43906h 0.181345v 2.98115h 0.181345v 1.05405h 0.181345v
 3.2649h 0.181345v 1.54076h 0.181345v 2.53547h 0.181345v 1.13714h 0.181345v 4.52629h 0.181345v 0.0949849h 0.181345v 2.37378h 0.181345v 0.805896h 0.181345v 2.44078h 0.181345v 0.425396h 0.181345v 3.2029h 0.181345v -3.48786h 0.181345v 0.429546h
 0.181345v 3.79222h 0.181345v -0.733909h 0.181345v -2.31322h 0.181345v 5.06058h 0.181345v -2.56729h 0.181345v 2.35305h 0.36269v -1.41801h 0.181345v 0.793443h 0.181345v -2.43585h 0.181345v 0.889674h 0.181345v -1.39869h 0.181345v 2.54278h 0.181345v
 1.67899h 0.181345v -2.07035h 0.181345v -1.81405h 0.181345v 4.10845h 0.181345v -3.93681h 0.181345v 2.03377h 0.181345v -3.51073h 0.181345v 3.91281h 0.181345v 1.95959h 0.181345v -2.36167h 0.181345v -3.19512h 0.181345v 4.8741h 0.181345v 0.682687h
 0.181345v -2.16201h 0.181345v 0.61583h 0.181345v -1.39869h 0.181345v -2.28938h 0.181345v 2.28938h 0.181345v 1.82408h 0.181345v -3.27466h 0.181345v 2.6411h 0.181345v 0.633557h 0.181345v -2.56729h 0.181345v 1.3264h 0.181345v 1.67899h 0.181345v
 -1.47932h 0.181345v -1.52606h 0.181345v -1.54618h 0.181345v 3.89923h 0.181345v -3.23206h 0.181345v 4.56708h 0.181345v -3.50577h 0.181345v -0.362367h 0.181345v 0.733909h 0.181345v 1.7992h 0.181345v -3.40172h 0.181345v 0.690722h 0.181345v -0.521065h
 0.181345v 2.81274h 0.181345v -1.75143h 0.181345v -0.54025h 0.181345v -0.690722h 0.181345v -1.74721h 0.181345v -0.296477h 0.181345v 3.83556h 0.181345v 0.583194h 0.181345v -1.1441h 0.181345v -0.182302h 0.181345v -0.357948h 0.181345v -0.858439h
 0.181345v 4.00109h 0.181345v -2.4178h 0.181345v 0.56814h 0.181345v -0.752735h 0.181345v -2.05102h 0.181345v 3.80245h 0.181345v -2.29168h 0.181345v -0.175752h 0.181345v 1.8601h 0.181345v -3.19512h 0.181345v 0.989709h 0.181345v 2.40507h 0.181345v
 0.202419h 0.181345v -1.72848h 0.181345v 4.1615h 0.181345v -4.1615h 0.181345v 0.366897h 0.181345v -2.07523h 0.181345v 3.43682h 0.181345v -1.17464h 0.181345v 0.189359h 0.181345v 1.19053h 0.181345v 3.22308h 0.181345v -5.51475h 0.181345v 3.36333h
 0.181345v -1.2769h 0.181345v -2.26218h 0.181345v 1.8601h 0.181345v -2.37507h 0.181345v 1.98371h 0.36269v 1.84966h 0.181345v -2.6024h 0.181345v 0.184595h 0.181345v -0.546962h 0.181345v -1.68866h 0.181345v 2.05102h 0.181345v -0.362367h 0.181345v
 -0.177882h 0.181345v -0.521065h 0.181345v -0.503196h 0.181345v 1.56451h 0.544034v -0.362367h 0.181345v 2.1138h 0.181345v -2.1138h 0.181345v -2.4653h 0.181345v 6.10233h 0.181345v -2.52192h 0.181345v 0.591024h 0.36269v -0.199665h 0.181345v 0.607333h
 0.181345v -0.998693h 0.181345v -3.5804h 0.181345v 3.97176h 0.181345v -1.3264h 0.181345v 0.935037h 0.36269v 0.998693h 0.181345v -2.29168h 0.181345v -1.02426h 0.181345v 4.16691h 0.181345v -0.642809h 0.181345v 1.08754h 0.181345v -1.2957h 0.181345v
 0.208161h 0.36269v 3.27466h 0.181345v -4.09015h 0.181345v 0.607333h 0.181345v 3.48282h 0.181345v -3.27466h 0.181345v -3.0209h 0.181345v 4.80189h 0.181345v -2.39682h 0.181345v -1.15916h 0.181345v -0.546962h 0.181345v 1.70613h 0.181345v -0.972218h
 0.181345v 4.09687h 0.181345v -0.727841h 0.181345v -2.59648h 0.181345v 1.67899h 0.181345v 1.15612h 0.181345v -4.6952h 0.181345v 3.99066h 0.181345v 0.231109h 0.181345v -2.16201h 0.181345v 2.16201h 0.181345v -0.90337h 0.181345v -0.431652h 0.181345v
 2.29767h 0.181345v -0.962648h 0.181345v 2.81602h 0.181345v -0.279535h 0.181345v 0.279535h 0.181345v -2.34259h 0.181345v 0.995305h 0.181345v 3.46903h 0.36269v -2.40128h 0.181345v 1.76313h 0.181345v -0.908029h 0.181345v 1.54618h 0.181345v -0.322543h
 0.181345v 2.42257h 0.181345v -5.82428h 0.181345v 4.73674h 0.181345v 1.46874h 0.181345v -1.1151h 0.181345v -4.0417h 0.36269v 5.54817h 0.181345v -1.50646h 0.181345v 4.58414h 0.181345v -2.67559h 0.181345v 2.67559h 0.181345v -3.07767h 0.181345v
 -1.50646h 0.181345v 1.1151h 0.36269v 0.39136h 0.181345v -2.20541h 0.181345v 4.80189h 0.181345v 2.02737h 0.181345v -3.80836h 0.181345v 4.3622h 0.181345v -3.93681h 0.181345v 1.35559h 0.181345v 0.978704h 0.181345v -3.96654h 0.181345v 5.56906h 0.181345v
 -3.49871h 0.181345v 0.451578h 0.181345v -3.27466h 0.181345v 5.76795h 0.181345v -2.02737h 0.181345v 4.38042h 0.181345v -1.22364h 0.181345v -2.17808h 0.181345v -2.33429h 0.181345v -2.01344h 0.181345v 6.52582h 0.36269v -4.93777h 0.181345v 7.49643h
 0.181345v 3.99066h 0.181345v -9.7061h 0.181345v 0.481195h 0.181345v 1.54618h 0.181345v 1.72848h 0.181345v -5.53684h 0.181345v 2.26218h 0.181345v -5.28308h 0.181345v 9.18231h 0.181345v -5.29791h 0.181345v 5.29791h 0.181345v -2.88675h 0.181345v
 -1.95959h 0.181345v 4.22177h 0.36269v -0.599068h 0.181345v 1.87597h 0.181345v 0.682687h 0.181345v -0.682687h 0.181345v -1.2769h 0.544034v 4.22177h 0.181345v -2.26218h 0.181345v -4.73674h 0.181345v 2.77715h 0.181345v 1.2769h 0.181345v 3.78367h
 0.181345v -8.33524h 0.181345v 8.33524h 0.181345v -4.43601h 0.181345v 2.05102h 0.181345v -5.95025h 0.181345v 8.33524h 0.181345v -3.78367h 0.181345v -1.2769h 0.181345v -3.27466h 0.181345v 0.497509h 0.181345v 0.514969h 0.181345v -1.01248h 0.181345v
 -1.39869h 0.181345v -3.53908h 0.181345v 3.53908h 0.36269v -3.8844h 0.181345v 4.33597h 0.181345v -1.31507h 0.181345v -1.95959h 0.181345v -1.06131h 0.181345v -1.30532h 0.181345v 8.68842h 0.181345v -8.05027h 0.181345v -0.322543h 0.181345v -0.624568h
 0.181345v 2.31322h 0.36269v -0.353635h 0.181345v 3.10099h 0.181345v -4.43601h 0.181345v 2.42257h 0.181345v 0.772553h 0.181345v -3.81969h 0.181345v -0.889674h 0.181345v 7.78703h 0.181345v -0.481195h 0.181345v -6.41617h 0.181345v 5.06058h 0.181345v
 -2.38499h 0.181345v 1.54618h 0.181345v 1.72848h 0.181345v 1.44462h 0.181345v -3.1731h 0.181345v -1.90855h 0.181345v 7.8588h 0.181345v -5.11144h 0.181345v 2.33429h 0.181345v -3.57518h 0.181345v 3.07767h 0.181345v -1.39869h 0.181345v 0.917494h
 0.36269v -6.1072h 0.181345v -1.4836h 0.181345v 0.284963h 0.181345v 2.50395h 0.36269v -1.30532h 0.181345v -4.06482h 0.181345v -2.79346h 0.181345v 0.196984h 0.36269v -2.54278h 0.181345v -1.57949h 0.181345v 1.57949h 0.181345v -5.95025h 0.181345v
 -0.438096h 0.181345v 1.83678h 0.181345v -4.67335h 0.181345v 0.543585h 0.181345v -0.543585h 0.181345v -0.947111h 0.181345v -1.20027h 0.181345v -1.8729h 0.181345v 1.34469h 0.181345v -1.87597h 0.181345v 0.196984h 0.181345v -2.54278h 0.181345v 0.624568h
 0.181345v -1.90147h 0.181345v 0.947111h 0.181345v -0.322543h 0.181345v -0.877158h 0.181345v -1.01582h 0.181345v 1.94624h 0.181345v -0.472585h 0.181345v -1.65942h 0.181345v 0.0462209h 0.181345v 0.0928808h 0.181345v 1.31507h 0.181345v -2.34927h
 0.181345v -0.129678h 0.181345v -0.382297h 0.181345v 0.730684h 0.181345v -1.70398h 0.181345v 0.931424h 0.181345v 0.0838581h 0.181345v -1.7051h 0.181345v 0.379223h 0.181345v -0.416612h 0.181345v -0.29573h 0.181345v -0.217951h 0.181345v 0.0722914h
 0.181345v -0.568599h 0.181345v 0.787635h 0.181345v -1.09805h 0.181345v 1.47053h 0.181345v -0.0752572h 0.181345v -0.838807h 0.181345v 1.76841h 0.181345v -0.472163h 0.181345v -0.192337h 0.181345v 2.0472h 0.181345v -0.475524h 0.181345v 1.24214h
 0.181345v -0.410839h 0.181345v 3.3763h 0.181345v -0.0565516h 0.181345v -1.2957h 0.181345v 0.90583h 0.181345v 3.31594h 0.181345v 0.924163h 0.181345v 4.02739h 0.181345v -1.64241h 0.181345v 2.13326h 0.181345v 1.46874h 0.181345v 3.60947h 0.181345v
 0.575569h 0.181345v 0.752735h 0.181345v 2.89347h 0.181345v 3.85023h 0.181345v 2.38499h 0.181345v 1.19864h 0.181345v -1.4836h 0.181345v 6.23521h 0.181345v -1.24089h 0.36269v 9.02792h 0.181345v -2.67559h 0.181345v 5.06058h 0.181345v -3.10099h
 0.181345v 4.93777h 0.181345v 9.22491h 0.181345v -5.95025h 0.181345v 5.95025h 0.181345v 6.89736h 0.181345v -8.62584h 0.181345v -2.94487h 0.181345v -4.55156h 0.181345v 11.1845h 0.181345v 8.21243h 0.181345v -14.8454h 0.181345v 1.39869h 0.181345v
 10.172h 0.181345v -16.1223h 0.181345v 13.4467h 0.36269v 2.67559h 0.181345v 3.27466h 0.181345v -10.172h 0.36269v 6.89736h 0.181345v -4.93777h 0.181345v 12.4342h 0.181345v -4.22177h 0.181345v -8.21243h 0.181345v 4.93777h 0.181345v -2.67559h 0.181345v
 -2.26218h 0.181345v 4.93777h 0.181345v -6.89736h 0.181345v 4.22177h 0.181345v 26.2943h 0.181345v -23.6187h 0.181345v -10.172h 0.181345v 13.4467h 0.181345v -5.95025h 0.544034v 10.172h 0.181345v -19.0671h 0.181345v 14.8454h 0.181345v -11.9005h
 0.181345v 22.0725h 0.181345v 10.172h 0.181345v -28.5565h 0.181345v 2.26218h 0.181345v -2.26218h 0.181345v -1.95959h 0.181345v 20.344h 0.181345v -5.95025h 0.181345v -10.172h 0.181345v -5.95025h 0.181345v 8.62584h 0.181345v -8.62584h 0.181345v
 5.95025h 0.181345v -2.26218h 0.181345v -1.95959h 0.181345v -3.27466h 0.181345v 3.27466h 0.181345v 6.89736h 0.181345v -2.67559h 0.181345v -4.22177h 0.181345v 1.95959h 0.181345v -1.95959h 0.181345v -3.27466h 0.544034v 7.49643h 0.181345v -7.49643h
 0.181345v 5.23425h 0.181345v 4.93777h 0.181345v -8.62584h 0.181345v -1.54618h 0.181345v 13.4467h 0.181345v -17.2969h 0.36269v -2.10002h 0.181345v 2.10002h 0.181345v -2.10002h 0.181345v 7.49643h 0.181345v -4.22177h 0.181345v -5.11144h 0.181345v
 7.78703h 0.181345v -9.41928h 0.181345v 0.793443h 0.181345v -4.82084h 0.181345v -1.66311h 0.181345v 6.48395h 0.181345v -7.97762h 0.36269v 5.71544h 0.181345v -5.71544h 0.36269v -0.465916h 0.181345v 0.947111h 0.181345v -0.947111h 0.36269v 4.84634h
 0.181345v -3.89923h 0.181345v -2.67559h 0.181345v 2.67559h 0.181345v -3.85023h 0.181345v 2.90312h 0.181345v 0.465916h 0.181345v -3.74058h 0.181345v 1.1441h 0.181345v 6.35233h 0.181345v 1.95959h 0.181345v -5.23425h 0.181345v -0.947111h 0.181345v
 0.465916h 0.181345v -1.35559h 0.181345v 3.93681h 0.181345v -0.553844h 0.181345v 1.72848h 0.181345v 1.95959h 0.181345v 3.99066h 0.181345v -3.27466h 0.181345v 3.27466h 0.181345v 4.22177h 0.181345v -3.27466h 0.181345v 3.27466h 0.181345v -1.17464h
 0.181345v 11.3467h 0.181345v -10.172h 0.181345v 5.95025h 0.181345v 4.22177h 0.181345v -10.172h 0.181345v 7.90984h 0.181345v 8.21243h 0.181345v -14.8454h 0.181345v 19.0671h 0.181345v -14.3938h 0.181345v 1.95959h 0.181345v 12.4342h 0.181345v -17.6684h
 0.181345v 5.23425h 0.181345v -3.68807h 0.181345v 22.0725h 0.181345v -23.6187h 0.181345v 10.172h 0.181345v 7.49643h 0.36269v -7.49643h 0.181345v 23.6187h 0.181345v -16.1223h 0.181345v -4.22177h 0.181345v -3.27466h 0.36269v 3.27466h 0.36269v 10.172h
 0.36269v -23.6187h 0.181345v 13.4467h 0.181345v -8.21243h 0.181345v 4.93777h 0.181345v -8.62584h 0.181345v 11.9005h 0.544034v -13.4467h 0.181345v 17.6684h 0.181345v -12.4342h 0.181345v 4.93777h 0.181345v -4.93777h 0.181345v 8.21243h 0.181345v
 -3.27466h 0.181345v -10.172h 0.181345v 10.172h 0.181345v -2.67559h 0.181345v 16.1223h 0.181345v -18.3845h 0.36269v -5.23425h 0.181345v 5.23425h 0.181345v 4.93777h 0.181345v -8.62584h 0.181345v 3.68807h 0.181345v -1.95959h 0.181345v 10.172h 0.181345v
 4.22177h 0.181345v -16.1223h 0.181345v 1.72848h 0.181345v 20.344h 0.181345v -13.4467h 0.181345v -12.8476h 0.181345v 4.22177h 0.181345v 3.68807h 0.181345v -6.63294h 0.181345v -2.45154h 0.181345v 9.08448h 0.36269v -1.95959h 0.181345v -4.67335h
 0.181345v 6.63294h 0.181345v -1.95959h 0.36269v 4.22177h 0.181345v -4.22177h 0.181345v -9.22491h 0.181345v 11.1845h 0.181345v -13.0213h 0.181345v 5.11144h 0.181345v 5.95025h 0.181345v -1.72848h 0.181345v -7.49643h 0.181345v 5.95025h 0.181345v
 -3.85023h 0.181345v -4.77561h 0.181345v -0.793443h 0.181345v 9.41928h 0.181345v -4.93777h 0.36269v -1.01248h 0.181345v -0.947111h 0.181345v -0.889674h 0.181345v 3.93681h 0.181345v 5.39641h 0.181345v -2.94487h 0.181345v 1.39869h 0.181345v -9.41928h
 0.181345v 8.0206h 0.181345v 1.39869h 0.181345v 13.4467h 0.181345v -13.4467h 0.181345v 1.54618h 0.181345v 1.72848h 0.36269v -7.12489h 0.181345v 7.12489h 0.181345v -1.72848h 0.181345v -6.48395h 0.36269v 15.1098h 0.181345v -2.67559h 0.181345v -4.22177h
 0.181345v 4.22177h 0.181345v -10.172h 0.181345v 16.1223h 0.181345v -8.21243h 0.181345v -5.23425h 0.181345v -4.93777h 0.181345v 1.08754h 0.181345v 3.85023h 0.181345v 10.172h 0.181345v -11.5707h 0.181345v 2.94487h 0.181345v 16.1223h 0.181345v
 -17.6684h 0.181345v 5.23425h 0.181345v -6.63294h 0.36269v 2.94487h 0.181345v 3.68807h 0.181345v -1.95959h 0.181345v -4.67335h 0.181345v 4.67335h 0.181345v -7.12489h 0.181345v 1.17464h 0.181345v 4.22177h 0.181345v -2.94487h 0.181345v 1.39869h
 0.181345v -3.85023h 0.181345v 17.2969h 0.181345v -10.172h 0.181345v -9.22491h 0.181345v 13.4467h 0.181345v -5.95025h 0.181345v 5.95025h 0.181345v -12.4342h 0.181345v 15.1098h 0.181345v -2.67559h 0.181345v 5.95025h 0.181345v -11.9005h 0.181345v
 3.68807h 0.181345v -3.68807h 0.181345v -5.39641h 0.181345v 5.39641h 0.181345v -4.22177h 0.181345v 1.2769h 0.181345v -3.53908h 0.544034v -2.84926h 0.181345v 13.0213h 0.181345v -12.1316h 0.181345v 3.04713h 0.181345v -10.172h 0.181345v 9.08448h
 0.36269v 10.172h 0.181345v -6.63294h 0.181345v -3.53908h 0.181345v 1.08754h 0.181345v -2.10002h 0.181345v -2.67559h 0.181345v 8.62584h 0.181345v -3.85023h 0.36269v -1.08754h 0.181345v -1.01248h 0.181345v -2.67559h 0.181345v 3.68807h 0.181345v
 2.26218h 0.181345v 2.67559h 0.181345v -8.62584h 0.181345v 5.95025h 0.181345v -7.49643h 0.181345v -0.716002h 0.181345v 1.46874h 0.181345v -0.752735h 0.181345v 0.752735h 0.181345v 1.63225h 0.181345v 3.93681h 0.181345v -6.32179h 0.181345v 3.27466h
 0.181345v -1.72848h 0.181345v 2.67559h 0.36269v -7.49643h 0.181345v 8.50891h 0.181345v -2.84926h 0.181345v 1.83678h 0.181345v -4.22177h 0.181345v 2.38499h 0.181345v -0.838807h 0.181345v 10.172h 0.181345v -12.4342h 0.181345v 7.03779h 0.181345v
 -7.03779h 0.181345v 1.46874h 0.181345v -1.46874h 0.181345v 2.26218h 0.181345v 5.95025h 0.181345v -7.49643h 0.181345v 3.27466h 0.181345v -6.54932h 0.181345v 14.9929h 0.181345v -9.33321h 0.181345v -1.63225h 0.181345v -2.15142h 0.181345v -5.03276h
 0.181345v 9.7061h 0.181345v -3.27466h 0.181345v 0.752735h 0.181345v -1.46874h 0.181345v 0.716002h 0.181345v -2.05102h 0.181345v 3.5972h 0.181345v -7.49643h 0.181345v 13.4467h 0.181345v -8.21243h 0.181345v -1.33502h 0.181345v -5.29791h 0.181345v
 14.8454h 0.181345v -7.49643h 0.181345v 0.752735h 0.181345v -0.752735h 0.181345v 0.752735h 0.181345v -5.15681h 0.181345v -1.04867h 0.181345v 4.73674h 0.181345v -3.68807h 0.181345v -2.49329h 0.181345v 1.95959h 0.181345v 15.1098h 0.181345v -5.95025h
 0.181345v -7.49643h 0.181345v 2.55866h 0.181345v -1.95959h 0.181345v -2.26218h 0.181345v 4.22177h 0.181345v -3.13423h 0.181345v 0.575569h 0.181345v 1.22364h 0.181345v -0.624568h 0.181345v -3.27466h 0.181345v 2.10002h 0.36269v 1.17464h 0.181345v
 0.624568h 0.181345v -1.22364h 0.36269v 1.22364h 0.181345v -5.29791h 0.181345v 4.67335h 0.181345v -4.67335h 0.181345v 8.10167h 0.181345v -2.15142h 0.181345v -5.49867h 0.181345v 1.44462h 0.181345v 1.04867h 0.181345v -2.02737h 0.181345v -1.78099h
 0.181345v 1.31507h 0.181345v -0.451578h 0.181345v -1.67899h 0.181345v -2.20541h 0.181345v 2.60749h 0.181345v -1.54618h 0.181345v 9.45602h 0.181345v -4.73674h 0.181345v -3.1731h 0.181345v -0.793443h 0.181345v -1.1151h 0.181345v 0.362367h 0.181345v
 -2.67559h 0.181345v 5.95025h 0.181345v -2.90312h 0.181345v -2.10002h 0.181345v 8.05027h 0.181345v -7.38311h 0.181345v -1.30532h 0.181345v 1.65063h 0.181345v 4.45658h 0.181345v -2.1944h 0.181345v 0.838807h 0.181345v -1.63225h 0.181345v 1.63225h
 0.181345v -2.01344h 0.181345v 0.381193h 0.181345v -3.11937h 0.181345v 8.13458h 0.181345v -2.49329h 0.181345v -1.72848h 0.181345v -0.793443h 0.181345v -5.95025h 0.181345v 3.46903h 0.181345v 6.44776h 0.181345v -1.44462h 0.36269v 0.465916h 0.181345v
 3.75585h 0.181345v -7.49643h 0.181345v 2.38499h 0.181345v 5.73601h 0.181345v 2.05102h 0.181345v -0.716002h 0.181345v -7.07103h 0.181345v 1.83678h 0.181345v 1.54618h 0.181345v -2.02737h 0.181345v -1.78099h 0.181345v 0.425396h 0.181345v 7.78703h
 0.181345v -2.05102h 0.181345v -2.35305h 0.181345v 2.35305h 0.181345v -6.16141h 0.181345v 2.75969h 0.181345v 1.60251h 0.181345v 1.17464h 0.181345v -3.75585h 0.181345v 2.58122h 0.36269v 1.7992h 0.181345v 8.37282h 0.181345v -13.6707h 0.181345v 7.34894h
 0.181345v 3.27466h 0.181345v -8.7274h 0.181345v 4.05405h 0.181345v 2.15142h 0.181345v 1.63225h 0.181345v -9.28235h 0.181345v 13.2192h 0.181345v -4.77561h 0.181345v -3.5972h 0.181345v 2.80376h 0.181345v -0.752735h 0.181345v -2.05102h 0.181345v
 -3.40172h 0.181345v 1.04867h 0.181345v 3.68807h 0.181345v -3.68807h 0.181345v 0.553844h 0.181345v 0.575569h 0.181345v 3.27466h 0.181345v -4.40407h 0.181345v 3.00538h 0.181345v -1.2769h 0.181345v 5.06058h 0.181345v -3.10099h 0.36269v -1.33502h
 0.181345v 7.28527h 0.181345v -5.95025h 0.181345v -3.13423h 0.181345v 8.072h 0.181345v -6.27279h 0.181345v -1.22364h 0.181345v -1.66311h 0.181345v 5.69051h 0.181345v -4.02739h 0.181345v 4.02739h 0.181345v -0.752735h 0.181345v 1.54618h 0.181345v
 0.838807h 0.181345v -6.23521h 0.181345v -0.553844h 0.181345v 5.15681h 0.181345v -2.80376h 0.181345v 0.652335h 0.181345v -1.2769h 0.181345v 3.42833h 0.181345v 2.52192h 0.181345v -9.22491h 0.181345v 4.55156h 0.181345v -2.45154h 0.181345v 2.45154h
 0.181345v 0.682687h 0.181345v 2.26218h 0.181345v -5.39641h 0.181345v 3.85023h 0.181345v 0.752735h 0.181345v 1.63225h 0.181345v -5.06058h 0.181345v -2.26218h 0.181345v 7.32276h 0.181345v -3.78367h 0.181345v 2.15142h 0.181345v -4.60296h 0.181345v
 5.39641h 0.181345v -2.94487h 0.181345v -5.49867h 0.181345v 3.6227h 0.181345v 4.02739h 0.181345v -4.60296h 0.181345v 0.575569h 0.36269v 1.22364h 0.181345v 4.43601h 0.181345v -10.5974h 0.181345v 3.80836h 0.181345v 0.553844h 0.181345v 1.7992h 0.181345v
 -3.40172h 0.181345v 2.17808h 0.36269v -1.66311h 0.181345v -3.68807h 0.181345v 7.22715h 0.181345v -0.652335h 0.544034v -4.38042h 0.181345v 3.75585h 0.181345v 6.89736h 0.181345v -8.62584h 0.181345v 1.12941h 0.181345v 3.27466h 0.181345v -5.95025h
 0.181345v -2.26218h 0.181345v 4.93777h 0.181345v -4.51238h 0.181345v 3.38296h 0.181345v 1.12941h 0.181345v 1.22364h 0.181345v -4.84634h 0.181345v 4.22177h 0.181345v -2.26218h 0.181345v 2.26218h 0.181345v 1.95959h 0.181345v -3.68807h 0.181345v
 -1.54618h 0.181345v 3.89923h 0.181345v -4.38042h 0.181345v 1.49367h 0.181345v 1.66311h 0.181345v -3.6227h 0.181345v 3.04713h 0.181345v -3.04713h 0.181345v 1.44462h 0.181345v -0.497509h 0.181345v 2.67559h 0.181345v 1.87597h 0.181345v -1.87597h
 0.181345v -1.66311h 0.181345v -0.514969h 0.181345v -3.57518h 0.181345v 1.67899h 0.181345v 8.89512h 0.181345v -7.97762h 0.181345v -1.35559h 0.181345v 3.38296h 0.181345v 5.95025h 0.181345v -0.793443h 0.181345v -8.10167h 0.181345v -1.67899h 0.181345v
 2.59648h 0.181345v 3.15679h 0.181345v -6.52582h 0.181345v 3.85023h 0.181345v 0.497509h 0.181345v -3.1731h 0.181345v 4.77561h 0.181345v 1.17464h 0.181345v -0.599068h 0.181345v -4.93777h 0.181345v 2.75969h 0.181345v -1.8962h 0.181345v 0.917494h
 0.181345v -1.78099h 0.181345v 0.425396h 0.181345v 2.84926h 0.181345v -6.63294h 0.181345v 7.72048h 0.181345v -3.93681h 0.181345v 0.889674h 0.181345v 1.95959h 0.181345v -1.49367h 0.181345v -4.45658h 0.181345v 1.8601h 0.181345v 1.67899h 0.181345v
 -1.67899h 0.181345v 0.402083h 0.181345v 2.67559h 0.181345v -1.83678h 0.181345v -0.425396h 0.181345v -1.95959h 0.181345v 7.49643h 0.181345v -7.8588h 0.36269v 2.32196h 0.36269v 4.3622h 0.181345v 3.85023h 0.181345v -4.40407h 0.181345v 1.12941h
 0.181345v -0.575569h 0.181345v -0.553844h 0.181345v -2.94487h 0.36269v 1.8962h 0.181345v 2.77715h 0.181345v -1.17464h 0.181345v 1.7992h 0.181345v 0.652335h 0.181345v -5.03276h 0.36269v 2.58122h 0.181345v -2.10002h 0.181345v 0.497509h 0.181345v
 4.73674h 0.181345v -2.55866h 0.181345v 2.55866h 0.36269v -3.13423h 0.181345v -2.10002h 0.181345v 7.49643h 0.181345v -3.5972h 0.181345v -2.88675h 0.181345v 7.32276h 0.181345v -9.28235h 0.181345v 6.89736h 0.181345v -3.85023h 0.36269v 6.23521h
 0.181345v -6.23521h 0.181345v 2.45154h 0.181345v 2.15142h 0.181345v 0.793443h 0.181345v -6.99892h 0.181345v 1.60251h 0.181345v 0.575569h 0.181345v 5.65964h 0.181345v -4.43601h 0.181345v 2.05102h 0.181345v -2.67559h 0.181345v 4.22177h 0.181345v
 -5.39641h 0.181345v 3.85023h 0.181345v 1.54618h 0.181345v 1.72848h 0.181345v -4.67335h 0.181345v -1.87597h 0.181345v 3.27466h 0.181345v -4.93777h 0.36269v -4.48151h 0.181345v 3.96654h 0.181345v 1.60251h 0.181345v 2.45154h 0.181345v 0.682687h
 0.36269v -1.33502h 0.181345v -1.22364h 0.181345v -1.12941h 0.181345v 1.12941h 0.181345v 4.02739h 0.181345v -4.02739h 0.181345v -1.66311h 0.181345v 0.5337h 0.181345v -1.54618h 0.181345v -1.39869h 0.181345v 1.8962h 0.181345v 2.17808h 0.181345v
 -1.12941h 0.181345v 3.68807h 0.181345v -6.63294h 0.181345v 5.95025h 0.181345v 0.682687h 0.181345v -1.95959h 0.181345v -1.17464h 0.181345v 3.85023h 0.181345v 2.38499h 0.181345v -3.10099h 0.181345v 3.10099h 0.181345v -3.10099h 0.181345v -0.682687h
 0.181345v 1.39869h 0.181345v 2.38499h 0.181345v 3.93681h 0.181345v -5.56906h 0.181345v 3.46903h 0.181345v 3.27466h 0.181345v -3.27466h 0.36269v 3.27466h 0.181345v 1.2769h 0.181345v -5.49867h 0.181345v -0.889674h 0.36269v 6.38835h 0.181345v -4.55156h
 0.36269v 2.10002h 0.181345v 3.85023h 0.181345v -3.85023h 0.181345v 1.17464h 0.181345v 1.2769h 0.181345v 1.39869h 0.181345v -4.93777h 0.181345v 4.93777h 0.181345v -4.93777h 0.181345v 3.53908h 0.36269v -2.45154h 0.181345v -1.08754h 0.181345v 1.08754h
 0.181345v -1.08754h 0.181345v 4.93777h 0.181345v -3.85023h 0.181345v 2.45154h 0.181345v 8.89512h 0.181345v -12.4342h 0.181345v 2.26218h 0.181345v 2.67559h 0.181345v -3.85023h 0.181345v 3.85023h 0.181345v -1.39869h 0.181345v 6.63294h 0.181345v
 -7.90984h 0.181345v 7.90984h 0.181345v -5.23425h 0.181345v -1.39869h 0.181345v -6.38835h 0.181345v 6.38835h 0.181345v -4.55156h 0.181345v -3.46903h 0.181345v 14.6535h 0.181345v -10.172h 0.181345v -1.01248h 0.181345v -3.46903h 0.181345v 9.41928h
 0.181345v 3.27466h 0.181345v 1.95959h 0.181345v -12.1316h 0.181345v 6.89736h 0.181345v 1.54618h 0.181345v -4.22177h 0.181345v -1.17464h 0.36269v -2.10002h 0.181345v 2.10002h 0.181345v -7.72048h 0.181345v 8.89512h 0.36269v 2.67559h 0.181345v
 -4.93777h 0.181345v -1.01248h 0.181345v 4.55156h 0.181345v 1.39869h 0.36269v -8.62584h 0.181345v 8.62584h 0.181345v -5.95025h 0.181345v -0.947111h 0.181345v -3.27466h 0.181345v -2.05102h 0.181345v 6.27279h 0.181345v 7.49643h 0.181345v 1.72848h
 0.181345v -9.22491h 0.181345v 3.27466h 0.181345v 2.67559h 0.181345v -6.89736h 0.181345v 6.89736h 0.181345v -3.85023h 0.36269v 1.17464h 0.181345v 2.67559h 0.181345v 1.54618h 0.181345v -1.54618h 0.181345v -6.89736h 0.181345v 1.95959h 0.181345v
 2.26218h 0.181345v 1.2769h 0.181345v -4.55156h 0.181345v -0.947111h 0.181345v 12.1316h 0.181345v -11.1845h 0.181345v -3.46903h 0.181345v 5.56906h 0.181345v 3.85023h 0.181345v -3.85023h 0.181345v 5.39641h 0.181345v -13.7692h 0.181345v 7.28527h
 0.181345v -1.01248h 0.181345v -3.46903h 0.181345v 5.56906h 0.181345v 11.3467h 0.181345v -13.4467h 0.36269v 4.55156h 0.181345v -3.53908h 0.181345v 3.53908h 0.181345v 2.94487h 0.181345v -1.54618h 0.181345v 3.27466h 0.181345v -3.27466h 0.181345v
 -8.62584h 0.181345v 0.838807h 0.181345v 2.84926h 0.181345v 2.26218h 0.181345v 2.67559h 0.181345v -4.93777h 0.36269v -2.84926h 0.181345v -1.63225h 0.181345v 3.46903h 0.181345v 3.27466h 0.181345v -7.49643h 0.181345v 7.49643h 0.181345v -1.17464h
 0.181345v -3.04713h 0.181345v -5.95025h 0.181345v 1.2769h 0.181345v 0.682687h 0.181345v 1.46874h 0.181345v 3.46903h 0.181345v -4.22177h 0.181345v 3.27466h 0.181345v -3.99066h 0.181345v 3.99066h 0.181345v -3.27466h 0.181345v -1.39869h 0.181345v
 5.62046h 0.181345v -0.947111h 0.181345v -0.889674h 0.181345v -2.38499h 0.181345v 5.23425h 0.181345v 1.08754h 0.181345v -10.172h 0.181345v -2.10002h 0.181345v 1.54618h 0.181345v 0.553844h 0.181345v -1.08754h 0.181345v 6.48395h 0.181345v -11.3467h
 0.181345v 7.74945h 0.181345v -1.22364h 0.181345v 1.87597h 0.181345v 1.39869h 0.181345v -3.27466h 0.181345v -1.12941h 0.181345v -1.54618h 0.181345v 5.95025h 0.36269v -2.05102h 0.181345v -3.89923h 0.181345v 2.67559h 0.181345v -1.66311h 0.181345v
 -1.01248h 0.181345v 0.497509h 0.181345v 2.77715h 0.181345v -5.53684h 0.181345v 6.16141h 0.181345v -2.88675h 0.181345v 7.32276h 0.181345v -8.81643h 0.181345v 1.49367h 0.181345v -0.514969h 0.181345v -2.33429h 0.181345v 7.78703h 0.181345v -6.89736h
 0.181345v 6.18136h 0.181345v -4.22177h 0.181345v 4.22177h 0.181345v -4.22177h 0.181345v -1.01248h 0.181345v 1.54618h 0.181345v 1.72848h 0.181345v -1.72848h 0.181345v 2.35305h 0.181345v 2.05102h 0.181345v -7.78703h 0.181345v 2.33429h 0.181345v
 -0.497509h 0.181345v 2.67559h 0.181345v 1.87597h 0.181345v 2.15142h 0.36269v -0.752735h 0.181345v 2.38499h 0.181345v -8.33524h 0.181345v 11.1845h 0.181345v 3.53908h 0.181345v -1.2769h 0.181345v -8.89512h 0.181345v 0.682687h 0.181345v 10.888h
 0.181345v -5.95025h 0.181345v 7.49643h 0.181345v -10.172h 0.181345v 2.67559h 0.181345v 4.55156h 0.181345v 1.39869h 0.36269v -2.67559h 0.181345v 1.2769h 0.181345v 1.39869h 0.181345v 13.4467h 0.181345v -11.9005h 0.181345v -1.54618h 0.181345v 7.49643h
 0.544034v -11.3467h 0.36269v 5.39641h 0.181345v 8.62584h 0.181345v -2.67559h 0.181345v 2.67559h 0.181345v -8.62584h 0.181345v 8.62584h 0.36269v -2.67559h 0.181345v 10.172h 0.181345v -14.3938h 0.181345v 14.3938h 0.181345v 5.95025h 0.181345v -16.1223h
 0.181345v 5.95025h 0.181345v 10.172h 0.181345v -5.95025h 0.181345v -12.4342h 0.181345v 12.4342h 0.544034v 26.2943h 0.181345v -10.172h 0.181345v -16.1223h 0.181345v 26.2943h 0.181345v -30.5161h 0.181345v 20.344h 0.181345v -10.172h 0.181345v -16.1223h
 0.181345v 36.4663h 0.181345v -10.172h 0.181345v -16.1223h 0.181345v 5.95025h 0.181345v -5.95025h 0.36269v -4.22177h 0.181345v 20.344h 0.181345v -16.1223h 0.181345v 5.95025h 0.544034v 20.344h 0.906724v -20.344h 0.181345v -5.95025h 0.181345v 16.1223h
 0.181345v -20.344h 0.181345v 10.172h 0.181345v -5.95025h 0.181345v 5.95025h 0.544034v -10.172h 0.181345v 30.5161h 0.181345v -10.172h 0.181345v 10.172h 0.36269v -10.172h 0.544034v -10.172h 0.181345v 10.172h 0.181345v -16.1223h 0.181345v 5.95025h
 0.36269v -5.95025h 0.181345v 16.1223h 0.36269v -10.172h 0.181345v 10.172h 0.181345v -16.1223h 0.181345v 5.95025h 0.544034v 10.172h 0.181345v -10.172h 0.181345v -5.95025h 0.181345v 26.2943h 0.544034v -10.172h 0.181345v -20.344h 0.181345v 30.5161h
 0.725379v -10.172h 0.36269v 10.172h 0.181345v -20.344h 0.181345v 20.344h 0.181345v -10.172h 0.181345v -10.172h 0.181345v -10.172h 0.181345v 10.172h 0.181345v -5.95025h 0.181345v 26.2943h 0.181345v -10.172h 0.36269v 10.172h 0.181345v -10.172h
 0.181345v -20.344h 0.181345v 10.172h 0.181345v 20.344h 0.181345v -10.172h 0.181345v -16.1223h 0.181345v 16.1223h 0.181345v -10.172h 0.181345v -5.95025h 0.181345v 26.2943h 0.181345v -26.2943h 0.181345v 26.2943h 0.181345v -26.2943h 0.181345v 16.1223h
 0.181345v -16.1223h 0.36269v 16.1223h 0.181345v -16.1223h 0.181345v 16.1223h 0.181345v 10.172h 0.36269v -26.2943h 0.181345v 26.2943h 0.36269v -20.344h 0.181345v 20.344h 0.181345v -10.172h 0.181345v -10.172h 0.181345v 10.172h 0.181345v 10.172h
 0.36269v -26.2943h 0.181345v 26.2943h 0.181345v -10.172h 0.181345v -10.172h 0.181345v -10.172h 0.181345v 20.344h 0.181345v -10.172h 0.181345v 20.344h 0.181345v -10.172h 0.181345v -10.172h 0.181345v -5.95025h 0.181345v 5.95025h 0.181345v 10.172h
 0.181345v 10.172h 0.36269v -20.344h 0.181345v 10.172h 0.181345v -10.172h 0.181345v 10.172h 0.36269v -10.172h 0.181345v 10.172h 0.181345v 10.172h 0.181345v -26.2943h 0.181345v 26.2943h 0.181345v -20.344h 0.181345v 10.172h 0.181345v 10.172h 0.181345v
 -10.172h 0.181345v 10.172h 0.181345v -20.344h 0.181345v 20.344h 0.181345v -10.172h 0.181345v -10.172h 0.181345v -13.4467h 0.181345v 13.4467h 0.36269v 20.344h 0.181345v -10.172h 0.181345v -20.344h 0.181345v 30.5161h 0.906724v -10.172h 0.181345v
 -10.172h 0.181345v -10.172h 0.181345v 4.22177h 0.181345v 16.1223h 0.181345v -10.172h 0.181345v -5.95025h 0.36269v 5.95025h 0.36269v 20.344h 0.181345v -10.172h 0.181345v -10.172h 0.181345v 10.172h 0.36269v 10.172h 0.36269v -20.344h 0.181345v 10.172h
 0.181345v -16.1223h 0.181345v 5.95025h 0.181345v 10.172h 0.181345v -10.172h 0.181345v -5.95025h 0.36269v 16.1223h 0.36269v 10.172h 0.181345v -10.172h 0.181345v 10.172h 0.181345v -10.172h 0.181345v -16.1223h 0.181345v 26.2943h 0.181345v -10.172h
 0.36269v 10.172h 0.181345v -20.344h 0.181345v -5.95025h 0.181345v 5.95025h 0.181345v 20.344h 0.181345v -20.344h 0.181345v 20.344h 0.181345v -10.172h 0.181345v -10.172h 0.181345v 10.172h 0.36269v 10.172h 0.181345v -10.172h 0.36269v -20.344h 0.181345v
 20.344h 0.36269v 10.172h 0.181345v -10.172h 0.181345v 10.172h 0.725379v -30.5161h 0.181345v 20.344h 0.181345v -16.1223h 0.181345v 26.2943h 0.181345v -10.172h 0.181345v -16.1223h 0.181345v 5.95025h 0.181345v 10.172h 0.181345v 10.172h 0.181345v
 -20.344h 0.36269v -5.95025h 0.181345v 16.1223h 0.36269v 10.172h 0.181345v -26.2943h 0.181345v 16.1223h 0.181345v -16.1223h 0.181345v 26.2943h 0.181345v -10.172h 0.36269v 10.172h 0.181345v -10.172h 0.36269v -23.6187h 0.36269v 13.4467h 0.181345v
 20.344h 0.181345v -33.7907h 0.181345v 13.4467h 0.181345v 20.344h 0.181345v -20.344h 0.181345v -5.95025h 0.181345v 26.2943h 0.181345v -20.344h 0.181345v -5.95025h 0.181345v 5.95025h 0.181345v 10.172h 0.181345v -10.172h 0.181345v -5.95025h 0.181345v
 16.1223h 0.181345v -10.172h 0.181345v 20.344h 0.544034v -20.344h 0.181345v 10.172h 0.725379v -16.1223h 0.181345v 16.1223h 0.181345v -20.344h 0.181345v 20.344h 0.181345v -16.1223h 0.181345v 16.1223h 0.181345v -16.1223h 0.181345v 16.1223h 0.725379v
 -10.172h 0.36269v -10.172h 0.36269v 10.172h 0.36269" fill="none" stroke="black"/>
<path d="M57.1929,280.151h 453.543" fill="none" stroke="black"/>
<path d="M57.1929,272.68v 7.47068" fill="none" stroke="black"/>
<path d="M75.3318,276.415v 3.73534" fill="none" stroke="black"/>
<path d="M93.4707,276.415v 3.73534" fill="none" stroke="black"/>
<path d="M111.61,276.415v 3.73534" fill="none" stroke="black"/>
<path d="M129.749,276.415v 3.73534" fill="none" stroke="black"/>
<path d="M147.887,272.68v 7.47068" fill="none" stroke="black"/>
<path d="M166.026,276.415v 3.73534" fill="none" stroke="black"/>
<path d="M184.165,276.415v 3.73534" fill="none" stroke="black"/>
<path d="M202.304,276.415v 3.73534" fill="none" stroke="black"/>
<path d="M220.443,276.415v 3.73534" fill="none" stroke="black"/>
<path d="M238.582,272.68v 7.47068" fill="none" stroke="black"/>
<path d="M256.721,276.415v 3.73534" fill="none" stroke="black"/>
<path d="M274.86,276.415v 3.73534" fill="none" stroke="black"/>
<path d="M292.999,276.415v 3.73534" fill="none" stroke="black"/>
<path d="M311.138,276.415v 3.73534" fill="none" stroke="black"/>
<path d="M329.277,272.68v 7.47068" fill="none" stroke="black"/>
<path d="M347.415,276.415v 3.73534" fill="none" stroke="black"/>
<path d="M365.554,276.415v 3.73534" fill="none" stroke="black"/>
<path d="M383.693,276.415v 3.73534" fill="none" stroke="black"/>
<path d="M401.832,276.415v 3.73534" fill="none" stroke="black"/>
<path d="M419.971,272.68v 7.47068" fill="none" stroke="black"/>
<path d="M438.11,276.415v 3.73534" fill="none" stroke="black"/>
<path d="M456.249,276.415v 3.73534" fill="none" stroke="black"/>
<path d="M474.388,276.415v 3.73534" fill="none" stroke="black"/>
<path d="M492.527,276.415v 3.73534" fill="none" stroke="black"/>
<path d="M510.666,272.68v 7.47068" fill="none" stroke="black"/>
<path d="M510.666,272.68v 7.47068" fill="none" stroke="black"/>
<text xml:space="preserve" x="54.3523" y="290.27" fill="black" font-size="10.4952" font-family="Helvetica">0</text>
<text xml:space="preserve" x="139.569" y="290.27" fill="black" font-size="10.4952" font-family="Helvetica">500</text>
<text xml:space="preserve" x="227.449" y="290.27" fill="black" font-size="10.4952" font-family="Helvetica">1000</text>
<text xml:space="preserve" x="318.288" y="290.27" fill="black" font-size="10.4952" font-family="Helvetica">1500</text>
<text xml:space="preserve" x="408.831" y="290.27" fill="black" font-size="10.4952" font-family="Helvetica">2000</text>
<text xml:space="preserve" x="499.67" y="290.27" fill="black" font-size="10.4952" font-family="Helvetica">2500</text>
<text xml:space="preserve" x="265.323" y="301.218" fill="black" font-size="10.4952" font-family="Helvetica">Channel</text>
<path d="M57.1929,280.151v -249.023" fill="none" stroke="black"/>
<path d="M63.9961,280.151h -6.80315" fill="none" stroke="black"/>
<path d="M63.9961,277.475h -6.80315" fill="none" stroke="black"/>
<path d="M63.9961,275.213h -6.80315" fill="none" stroke="black"/>
<path d="M63.9961,273.253h -6.80315" fill="none" stroke="black"/>
<path d="M63.9961,271.525h -6.80315" fill="none" stroke="black"/>
<path d="M70.7992,269.979h -13.6063" fill="none" stroke="black"/>
<text xml:space="preserve" x="49.0263" y="273.7" fill="black" font-size="10.4952" font-family="Helvetica">1</text>
<path d="M63.9961,259.806h -6.80315" fill="none" stroke="black"/>
<path d="M63.9961,253.856h -6.80315" fill="none" stroke="black"/>
<path d="M63.9961,249.634h -6.80315" fill="none" stroke="black"/>
<path d="M63.9961,246.36h -6.80315" fill="none" stroke="black"/>
<path d="M63.9961,243.684h -6.80315" fill="none" stroke="black"/>
<path d="M63.9961,241.422h -6.80315" fill="none" stroke="black"/>
<path d="M63.9961,239.462h -6.80315" fill="none" stroke="black"/>
<path d="M63.9961,237.734h -6.80315" fill="none" stroke="black"/>
<path d="M70.7992,236.188h -13.6063" fill="none" stroke="black"/>
<text xml:space="preserve" x="41.629" y="239.968" fill="black" font-size="10.4952" font-family="Helvetica">10</text>
<path d="M63.9961,226.016h -6.80315" fill="none" stroke="black"/>
<path d="M63.9961,220.066h -6.80315" fill="none" stroke="black"/>
<path d="M63.9961,215.844h -6.80315" fill="none" stroke="black"/>
<path d="M63.9961,212.569h -6.80315" fill="none" stroke="black"/>
<path d="M63.9961,209.894h -6.80315" fill="none" stroke="black"/>
<path d="M63.9961,207.631h -6.80315" fill="none" stroke="black"/>
<path d="M63.9961,205.672h -6.80315" fill="none" stroke="black"/>
<path d="M63.9961,203.943h -6.80315" fill="none" stroke="black"/>
<path d="M70.7992,202.397h -13.6063" fill="none" stroke="black"/>
<text xml:space="preserve" x="49.0263" y="202.686" fill="black" font-size="7.16345" font-family="Helvetica">2</text>
<text xml:space="preserve" x="38.0783" y="207.124" fill="black" font-size="10.4952" font-family="Helvetica">10</text>
<path d="M63.9961,192.225h -6.80315" fill="none" stroke="black"/>
<path d="M63.9961,186.275h -6.80315" fill="none" stroke="black"/>
<path d="M63.9961,182.053h -6.80315" fill="none" stroke="black"/>
<path d="M63.9961,178.778h -6.80315" fill="none" stroke="black"/>
<path d="M63.9961,176.103h -6.80315" fill="none" stroke="black"/>
<path d="M63.9961,173.841h -6.80315" fill="none" stroke="black"/>
<path d="M63.9961,171.881h -6.80315" fill="none" stroke="black"/>
<path d="M63.9961,170.153h -6.80315" fill="none" stroke="black"/>
<path d="M70.7992,168.606h -13.6063" fill="none" stroke="black"/>
<text xml:space="preserve" x="49.0263" y="168.363" fill="black" font-size="7.16345" font-family="Helvetica">3</text>
<text xml:space="preserve" x="38.0783" y="173.097" fill="black" font-size="10.4952" font-family="Helvetica">10</text>
<path d="M63.9961,158.434h -6.80315" fill="none" stroke="black"/>
<path d="M63.9961,152.484h -6.80315" fill="none" stroke="black"/>
<path d="M63.9961,148.262h -6.80315" fill="none" stroke="black"/>
<path d="M63.9961,144.988h -6.80315" fill="none" stroke="black"/>
<path d="M63.9961,142.312h -6.80315" fill="none" stroke="black"/>
<path d="M63.9961,140.05h -6.80315" fill="none" stroke="black"/>
<path d="M63.9961,138.09h -6.80315" fill="none" stroke="black"/>
<path d="M63.9961,136.362h -6.80315" fill="none" stroke="black"/>
<path d="M70.7992,134.816h -13.6063" fill="none" stroke="black"/>
<text xml:space="preserve" x="49.0263" y="134.927" fill="black" font-size="7.16345" font-family="Helvetica">4</text>
<text xml:space="preserve" x="38.0783" y="139.365" fill="black" font-size="10.4952" font-family="Helvetica">10</text>
<path d="M63.9961,124.644h -6.80315" fill="none" stroke="black"/>
<path d="M63.9961,118.693h -6.80315" fill="none" stroke="black"/>
<path d="M63.9961,114.472h -6.80315" fill="none" stroke="black"/>
<path d="M63.9961,111.197h -6.80315" fill="none" stroke="black"/>
<path d="M63.9961,108.521h -6.80315" fill="none" stroke="black"/>
<path d="M63.9961,106.259h -6.80315" fill="none" stroke="black"/>
<path d="M63.9961,104.3h -6.80315" fill="none" stroke="black"/>
<path d="M63.9961,102.571h -6.80315" fill="none" stroke="black"/>
<path d="M70.7992,101.025h -13.6063" fill="none" stroke="black"/>
<text xml:space="preserve" x="49.0263" y="100.899" fill="black" font-size="7.16345" font-family="Helvetica">5</text>
<text xml:space="preserve" x="38.0783" y="105.633" fill="black" font-size="10.4952" font-family="Helvetica">10</text>
<path d="M63.9961,90.8529h -6.80315" fill="none" stroke="black"/>
<path d="M63.9961,84.9027h -6.80315" fill="none" stroke="black"/>
<path d="M63.9961,80.6809h -6.80315" fill="none" stroke="black"/>
<path d="M63.9961,77.4062h -6.80315" fill="none" stroke="black"/>
<path d="M63.9961,74.7307h -6.80315" fill="none" stroke="black"/>
<path d="M63.9961,72.4685h -6.80315" fill="none" stroke="black"/>
<path d="M63.9961,70.5089h -6.80315" fill="none" stroke="black"/>
<path d="M63.9961,68.7804h -6.80315" fill="none" stroke="black"/>
<path d="M70.7992,67.2342h -13.6063" fill="none" stroke="black"/>
<text xml:space="preserve" x="49.0263" y="67.1675" fill="black" font-size="7.16345" font-family="Helvetica">6</text>
<text xml:space="preserve" x="38.0783" y="71.9018" fill="black" font-size="10.4952" font-family="Helvetica">10</text>
<path d="M63.9961,57.0622h -6.80315" fill="none" stroke="black"/>
<path d="M63.9961,51.112h -6.80315" fill="none" stroke="black"/>
<path d="M63.9961,46.8902h -6.80315" fill="none" stroke="black"/>
<path d="M63.9961,43.6155h -6.80315" fill="none" stroke="black"/>
<path d="M63.9961,40.9399h -6.80315" fill="none" stroke="black"/>
<path d="M63.9961,38.6778h -6.80315" fill="none" stroke="black"/>
<path d="M63.9961,36.7182h -6.80315" fill="none" stroke="black"/>
<path d="M63.9961,34.9897h -6.80315" fill="none" stroke="black"/>
<path d="M70.7992,33.4435h -13.6063" fill="none" stroke="black"/>
<text xml:space="preserve" x="49.0263" y="33.7317" fill="black" font-size="7.16345" font-family="Helvetica">7</text>
<text xml:space="preserve" x="38.0783" y="38.1701" fill="black" font-size="10.4952" font-family="Helvetica">10</text>
<g transform="rotate(-90,26.5385,191.442)">
<text xml:space="preserve" x="26.5385" y="191.442" fill="black" font-size="10.4952" font-family="Helvetica">Counts/Channel</text>
</g>
<text xml:space="preserve" x="404.097" y="67.1675" fill="black" font-size="14.7788" font-family="Helvetica" font-weight="bold"> = 2.4879 MeV</text>
<text xml:space="preserve" x="398.179" y="70.4223" fill="black" font-size="10.0192" font-family="Helvetica" font-weight="bold">p</text>
<text xml:space="preserve" x="389.006" y="67.1675" fill="black" font-size="14.7788" font-family="Helvetica" font-weight="bold">E</text>
<path d="M262.163,167.208v 25.2707" fill="none" stroke="black"/>
<path d="M264.454,192.478l -2.29122, 3.9685l -2.29122, -3.9685z" fill="black"/>
<path d="M264.454,192.478l -2.29122, 3.9685l -2.29122, -3.9685h 4.58243z" fill="none" stroke="black"/>
<text xml:space="preserve" x="266.803" y="165.108" fill="black" font-size="10.4952" font-family="Helvetica" font-weight="bold">_1 	1.369 MeV</text>
<text xml:space="preserve" x="260.293" y="165.108" fill="black" font-size="10.4952" font-family="Times">&#0945;</text>
<path d="M184.528,134.816v 29.8222" fill="none" stroke="black"/>
<path d="M186.819,164.638l -2.29122, 3.9685l -2.29122, -3.9685z" fill="black"/>
<path d="M186.819,164.638l -2.29122, 3.9685l -2.29122, -3.9685h 4.58243z" fill="none" stroke="black"/>
<text xml:space="preserve" x="172.117" y="131.968" fill="black" font-size="10.4952" font-family="Helvetica" font-weight="bold"># p_1 	0.844 MeV</text>
<path d="M210.104,152.484v 12.1538" fill="none" stroke="black"/>
<path d="M212.395,164.638l -2.29122, 3.9685l -2.29122, -3.9685z" fill="black"/>
<path d="M212.395,164.638l -2.29122, 3.9685l -2.29122, -3.9685h 4.58243z" fill="none" stroke="black"/>
<text xml:space="preserve" x="197.564" y="148.242" fill="black" font-size="10.4952" font-family="Helvetica" font-weight="bold"># p_2 	1.015 MeV</text>
<path d="M497.994,269.979h 12.6716" fill="none" stroke="black"/>
<path d="M504.33,259.806h 6.33582" fill="none" stroke="black"/>
<path d="M504.33,253.856h 6.33582" fill="none" stroke="black"/>
<path d="M504.33,249.634h 6.33582" fill="none" stroke="black"/>
<path d="M504.33,246.36h 6.33582" fill="none" stroke="black"/>
<path d="M504.33,243.684h 6.33582" fill="none" stroke="black"/>
<path d="M504.33,241.422h 6.33582" fill="none" stroke="black"/>
<path d="M504.33,239.462h 6.33582" fill="none" stroke="black"/>
<path d="M504.33,237.734h 6.33582" fill="none" stroke="black"/>
<path d="M497.994,236.188h 12.6716" fill="none" stroke="black"/>
<path d="M504.33,226.016h 6.33582" fill="none" stroke="black"/>
<path d="M504.33,220.066h 6.33582" fill="none" stroke="black"/>
<path d="M504.33,215.844h 6.33582" fill="none" stroke="black"/>
<path d="M504.33,212.569h 6.33582" fill="none" stroke="black"/>
<path d="M504.33,209.894h 6.33582" fill="none" stroke="black"/>
<path d="M504.33,207.631h 6.33582" fill="none" stroke="black"/>
<path d="M504.33,205.672h 6.33582" fill="none" stroke="black"/>
<path d="M504.33,203.943h 6.33582" fill="none" stroke="black"/>
<path d="M497.994,202.397h 12.6716" fill="none" stroke="black"/>
<path d="M504.33,192.225h 6.33582" fill="none" stroke="black"/>
<path d="M504.33,186.275h 6.33582" fill="none" stroke="black"/>
<path d="M504.33,182.053h 6.33582" fill="none" stroke="black"/>
<path d="M504.33,178.778h 6.33582" fill="none" stroke="black"/>
<path d="M504.33,176.103h 6.33582" fill="none" stroke="black"/>
<path d="M504.33,173.841h 6.33582" fill="none" stroke="black"/>
<path d="M504.33,171.881h 6.33582" fill="none" stroke="black"/>
<path d="M504.33,170.153h 6.33582" fill="none" stroke="black"/>
<path d="M497.994,168.606h 12.6716" fill="none" stroke="black"/>
<path d="M504.33,158.434h 6.33582" fill="none" stroke="black"/>
<path d="M504.33,152.484h 6.33582" fill="none" stroke="black"/>
<path d="M504.33,148.262h 6.33582" fill="none" stroke="black"/>
<path d="M504.33,144.988h 6.33582" fill="none" stroke="black"/>
<path d="M504.33,142.312h 6.33582" fill="none" stroke="black"/>
<path d="M504.33,140.05h 6.33582" fill="none" stroke="black"/>
<path d="M504.33,138.09h 6.33582" fill="none" stroke="black"/>
<path d="M504.33,136.362h 6.33582" fill="none" stroke="black"/>
<path d="M497.994,134.816h 12.6716" fill="none" stroke="black"/>
<path d="M504.33,124.644h 6.33582" fill="none" stroke="black"/>
<path d="M504.33,118.693h 6.33582" fill="none" stroke="black"/>
<path d="M504.33,114.472h 6.33582" fill="none" stroke="black"/>
<path d="M504.33,111.197h 6.33582" fill="none" stroke="black"/>
<path d="M504.33,108.521h 6.33582" fill="none" stroke="black"/>
<path d="M504.33,106.259h 6.33582" fill="none" stroke="black"/>
<path d="M504.33,104.3h 6.33582" fill="none" stroke="black"/>
<path d="M504.33,102.571h 6.33582" fill="none" stroke="black"/>
<path d="M497.994,101.025h 12.6716" fill="none" stroke="black"/>
<path d="M504.33,90.8529h 6.33582" fill="none" stroke="black"/>
<path d="M504.33,84.9027h 6.33582" fill="none" stroke="black"/>
<path d="M504.33,80.6809h 6.33582" fill="none" stroke="black"/>
<path d="M504.33,77.4062h 6.33582" fill="none" stroke="black"/>
<path d="M504.33,74.7307h 6.33582" fill="none" stroke="black"/>
<path d="M504.33,72.4685h 6.33582" fill="none" stroke="black"/>
<path d="M504.33,70.5089h 6.33582" fill="none" stroke="black"/>
<path d="M504.33,68.7804h 6.33582" fill="none" stroke="black"/>
<path d="M497.994,67.2342h 12.6716" fill="none" stroke="black"/>
<path d="M504.33,57.0622h 6.33582" fill="none" stroke="black"/>
<path d="M504.33,51.112h 6.33582" fill="none" stroke="black"/>
<path d="M504.33,46.8902h 6.33582" fill="none" stroke="black"/>
<path d="M504.33,43.6155h 6.33582" fill="none" stroke="black"/>
<path d="M504.33,40.9399h 6.33582" fill="none" stroke="black"/>
<path d="M504.33,38.6778h 6.33582" fill="none" stroke="black"/>
<path d="M57.1929,45.5315v -7.46952" fill="none" stroke="black"/>
<path d="M75.3318,45.5315v -7.46952" fill="none" stroke="black"/>
<path d="M93.4707,45.5315v -7.46952" fill="none" stroke="black"/>
<path d="M111.61,45.5315v -7.46952" fill="none" stroke="black"/>
<path d="M129.749,45.5315v -7.46952" fill="none" stroke="black"/>
<path d="M147.887,45.5315v -7.46952" fill="none" stroke="black"/>
<path d="M166.026,45.5315v -7.46952" fill="none" stroke="black"/>
<path d="M184.165,45.5315v -7.46952" fill="none" stroke="black"/>
<path d="M202.304,45.5315v -7.46952" fill="none" stroke="black"/>
<path d="M220.443,45.5315v -7.46952" fill="none" stroke="black"/>
<path d="M238.582,45.5315v -7.46952" fill="none" stroke="black"/>
<path d="M256.721,45.5315v -7.46952" fill="none" stroke="black"/>
<path d="M274.86,45.5315v -7.46952" fill="none" stroke="black"/>
<path d="M292.999,45.5315v -7.46952" fill="none" stroke="black"/>
<path d="M311.138,45.5315v -7.46952" fill="none" stroke="black"/>
<path d="M329.277,45.5315v -7.46952" fill="none" stroke="black"/>
<path d="M347.415,45.5315v -7.46952" fill="none" stroke="black"/>
<path d="M365.554,45.5315v -7.46952" fill="none" stroke="black"/>
<path d="M383.693,45.5315v -7.46952" fill="none" stroke="black"/>
<path d="M401.832,45.5315v -7.46952" fill="none" stroke="black"/>
<path d="M419.971,45.5315v -7.46952" fill="none" stroke="black"/>
<path d="M438.11,45.5315v -7.46952" fill="none" stroke="black"/>
<path d="M456.249,45.5315v -7.46952" fill="none" stroke="black"/>
<path d="M474.388,45.5315v -7.46952" fill="none" stroke="black"/>
<path d="M492.527,45.5315v -7.46952" fill="none" stroke="black"/>
<path d="M510.666,45.5315v -7.46952" fill="none" stroke="black"/></svg>
