<?xml version="1.0" standalone="no"?>
<svg width="567.429" height="311.778" viewBox="0 0 567.429 311.778" xmlns="http://www.w3.org/2000/svg" shape-rendering="crispEdges">
<title>
Yields/P1/det-4/run_0107_Fit.svg
</title>
<desc>
Creator: ROOT Version 6.12/06
CreationDate: Mon Apr 15 10:29:03 2019</desc>
<defs>
</defs>
<rect x="0.5" y="0" width="566.929" height="311.278" fill="white"/>
<rect x="57.1929" y="31.1278" width="453.543" height="249.023" fill="white"/>
<rect x="57.1929" y="31.1278" width="453.543" height="249.023" fill="none" stroke="black"/>
<rect x="57.1929" y="31.1278" width="453.543" height="249.023" fill="white"/>
<rect x="57.1929" y="31.1278" width="453.543" height="249.023" fill="none" stroke="black"/>
<path d="M57.1929,40.7711h 0.181345v 239.379h 15.233v -10.4591h 0.181345v 10.4591h 1.81345v -10.4591h 0.181345v 10.4591h 3.6269v -10.4591h 0.181345v 10.4591h 2.35748v -10.4591h 0.36269v 10.4591h 3.08286v -20.9182h 0.181345v 20.9182h 1.08807v
 -10.4591h 0.181345v 10.4591h 1.26941v -10.4591h 0.181345v 10.4591h 0.181345v -10.4591h 0.544034v -10.4591h 0.181345v 20.9182h 0.36269v -10.4591h 0.544034v -10.4591h 0.36269v -10.4591h 0.181345v -10.4591h 0.181345v -17.1932h 0.181345v -14.6483h
 0.181345v -11.8765h 0.181345v -6.82959h 0.181345v -4.63583h 0.181345v -4.0708h 0.181345v -4.02165h 0.181345v -1.38631h 0.181345v -1.19779h 0.181345v -1.28693h 0.181345v -0.519625h 0.181345v 0.409884h 0.181345v -1.92716h 0.181345v -0.548074h
 0.181345v -0.582529h 0.181345v -0.491894h 0.181345v -0.103352h 0.36269v -0.187659h 0.181345v -0.268858h 0.181345v -0.149154h 0.181345v 0.165818h 0.181345v -1.17055h 0.181345v -0.290334h 0.181345v 0.476624h 0.181345v -0.672103h 0.181345v 0.119995h
 0.181345v 0.788252h 0.181345v -0.682468h 0.181345v -0.580142h 0.181345v 0.161384h 0.181345v 0.163129h 0.181345v -0.177872h 0.181345v -0.262937h 0.181345v -0.187089h 0.181345v 0.0860607h 0.181345v -0.453421h 0.181345v 0.525515h 0.181345v -0.44153h
 0.181345v 0.5285h 0.181345v -0.287972h 0.181345v -1.28439h 0.181345v 1.07196h 0.181345v 0.0422472h 0.181345v -0.279439h 0.181345v -0.650267h 0.181345v 0.691854h 0.181345v 1.24369h 0.181345v -0.372226h 0.181345v -0.102599h 0.181345v -0.14537h
 0.181345v -0.692744h 0.181345v -0.219484h 0.181345v -0.162543h 0.181345v -0.568476h 0.181345v -2.63606h 0.181345v -1.83405h 0.181345v -2.96822h 0.181345v -3.22695h 0.181345v -2.6784h 0.181345v -3.95559h 0.181345v -2.87769h 0.181345v -2.47374h
 0.181345v -1.93261h 0.181345v -1.75378h 0.181345v -0.956559h 0.181345v -0.636878h 0.181345v 0.0960908h 0.181345v 0.924014h 0.181345v 1.44034h 0.181345v 1.8696h 0.181345v 2.56275h 0.181345v 3.817h 0.181345v 3.46478h 0.181345v 3.77131h 0.181345v
 4.16785h 0.181345v 4.21788h 0.181345v 3.65276h 0.181345v 3.44159h 0.181345v 2.58026h 0.181345v 2.57925h 0.181345v 1.57813h 0.181345v 1.43816h 0.181345v -1.75584h 0.181345v 1.28179h 0.181345v 0.124964h 0.181345v -0.0938196h 0.181345v 0.442904h
 0.181345v 0.622664h 0.181345v -1.46551h 0.181345v 1.33227h 0.181345v -0.263001h 0.181345v -0.417834h 0.181345v 0.948501h 0.181345v -0.821164h 0.181345v 0.193042h 0.181345v 0.426929h 0.181345v 0.998286h 0.181345v 0.251195h 0.181345v -0.568134h
 0.181345v -0.241987h 0.181345v 1.66622h 0.181345v -1.1783h 0.181345v -0.893931h 0.181345v 1.91981h 0.181345v -0.990417h 0.181345v -0.316201h 0.181345v -0.275611h 0.181345v 1.73465h 0.181345v -0.78355h 0.181345v 0.442749h 0.36269v -0.587491h
 0.181345v 0.550095h 0.181345v 2.03625h 0.181345v -1.27013h 0.181345v -1.63689h 0.181345v 2.6948h 0.181345v 0.0422078h 0.181345v 1.00487h 0.181345v -1.50373h 0.181345v 1.05859h 0.181345v 0.13217h 0.181345v -0.0882416h 0.181345v -1.82119h 0.181345v
 1.73346h 0.181345v 0.354017h 0.181345v 0.0448419h 0.36269v 0.0449755h 0.181345v 0.04511h 0.181345v -0.920096h 0.181345v 2.59044h 0.181345v -2.54787h 0.181345v 0.922776h 0.181345v 0.506863h 0.181345v 1.11824h 0.181345v -0.200525h 0.181345v -2.47469h
 0.181345v 1.9366h 0.181345v -0.143481h 0.181345v 1.18797h 0.181345v 0.364871h 0.36269v -1.16715h 0.181345v 1.062h 0.181345v -0.31113h 0.181345v -0.304844h 0.181345v 0.407843h 0.181345v -0.951214h 0.181345v 0.343511h 0.181345v -0.0989464h 0.181345v
 0.603652h 0.181345v -1.6052h 0.181345v 1.15022h 0.181345v -0.197895h 0.181345v 0.807646h 0.181345v 0.908301h 0.181345v -1.06306h 0.181345v 0.416282h 0.181345v 0.701953h 0.181345v 2.52073h 0.181345v -2.79458h 0.181345v -0.480761h 0.181345v -0.414852h
 0.181345v 0.414852h 0.181345v -0.917874h 0.181345v 0.760965h 0.181345v 0.209577h 0.181345v -1.36122h 0.181345v 2.45513h 0.181345v -1.86524h 0.181345v -1.11107h 0.181345v 0.187447h 0.181345v -1.30901h 0.181345v 0.48325h 0.181345v -0.133338h 0.181345v
 -2.44565h 0.181345v -0.334918h 0.181345v -1.03124h 0.181345v -0.373432h 0.181345v 0.721126h 0.181345v -0.88786h 0.181345v 0.643636h 0.181345v -1.06871h 0.181345v 0.391951h 0.181345v 0.368458h 0.181345v 0.239246h 0.181345v 1.79019h 0.181345v 1.55107h
 0.181345v 0.659025h 0.181345v 1.06995h 0.181345v -0.286514h 0.181345v 0.726751h 0.181345v 1.67831h 0.181345v 0.738982h 0.181345v 0.294147h 0.181345v -0.809581h 0.181345v 1.35394h 0.181345v -1.24091h 0.181345v 1.30263h 0.181345v -0.366559h 0.181345v
 0.243381h 0.181345v 1.48116h 0.181345v -0.0675136h 0.181345v -0.851248h 0.181345v -2.72986h 0.181345v 1.74409h 0.181345v 0.795968h 0.181345v -0.0627414h 0.181345v -0.553233h 0.181345v 1.92891h 0.36269v -1.05933h 0.181345v -0.929818h 0.181345v
 -1.04506h 0.181345v 0.985062h 0.181345v 0.736208h 0.181345v -0.676211h 0.181345v 1.71726h 0.181345v -1.65703h 0.181345v 1.06262h 0.181345v -0.75778h 0.181345v 1.69281h 0.181345v -0.068744h 0.181345v -1.50039h 0.181345v 1.50039h 0.181345v -1.24994h
 0.181345v -1.09567h 0.181345v 1.15894h 0.181345v 1.11824h 0.181345v -1.30725h 0.181345v 1.30725h 0.181345v -2.6254h 0.181345v 0.057483h 0.181345v -0.341659h 0.181345v -0.928024h 0.181345v -0.10552h 0.181345v 0.42658h 0.181345v -1.2949h 0.181345v
 0.920987h 0.181345v -0.620194h 0.181345v -0.546953h 0.181345v 0.648565h 0.181345v 0.257064h 0.181345v -0.459607h 0.181345v 0.356256h 0.181345v 0.470761h 0.181345v 0.707014h 0.181345v 0.337834h 0.181345v -0.226061h 0.36269v 0.45556h 0.181345v
 2.44209h 0.181345v 0.205299h 0.181345v 0.138435h 0.181345v -1.95393h 0.181345v 0.560079h 0.181345v 0.581671h 0.181345v 1.23527h 0.181345v -1.16923h 0.181345v 1.16923h 0.181345v -2.06843h 0.181345v 2.95196h 0.181345v -0.667448h 0.181345v -1.25236h
 0.181345v 0.893931h 0.181345v 0.57765h 0.181345v -1.93186h 0.181345v -0.634096h 0.181345v 2.7884h 0.181345v 0.924122h 0.181345v 0.899898h 0.181345v -4.1073h 0.181345v 1.34215h 0.181345v 0.0703464h 0.181345v -1.73018h 0.181345v 3.84614h 0.181345v
 -3.20395h 0.181345v 1.01764h 0.181345v 0.0703464h 0.181345v -0.621614h 0.181345v 0.69229h 0.181345v -0.487917h 0.181345v -0.271886h 0.181345v -1.10379h 0.181345v 0.380422h 0.181345v 1.4125h 0.181345v 1.48053h 0.181345v -1.19582h 0.181345v 0.66095h
 0.181345v -2.29381h 0.181345v 1.48984h 0.181345v 0.360143h 0.181345v -0.0727195h 0.181345v -1.71264h 0.181345v 0.130081h 0.181345v 0.197248h 0.181345v 2.99125h 0.181345v -2.17542h 0.181345v 0.862479h 0.181345v -1.00155h 0.181345v -0.476902h
 0.181345v -0.784035h 0.181345v 0.192223h 0.181345v 1.70489h 0.181345v -0.0720253h 0.181345v -1.17459h 0.181345v -0.903047h 0.181345v 0.704935h 0.181345v -0.57919h 0.181345v 2.02391h 0.181345v -0.143708h 0.181345v -0.213029h 0.181345v -0.889875h
 0.181345v 0.960551h 0.181345v -0.759804h 0.181345v 0.409689h 0.181345v 1.37599h 0.181345v -3.01418h 0.181345v 1.09437h 0.181345v -1.21805h 0.181345v 2.68964h 0.181345v -0.996824h 0.181345v -0.407843h 0.181345v -0.656159h 0.181345v -0.812455h
 0.181345v 1.13697h 0.181345v -0.452389h 0.181345v 1.82509h 0.181345v 0.0720253h 0.181345v -1.31294h 0.181345v 0.470528h 0.181345v 1.28194h 0.181345v -1.14476h 0.181345v -0.541377h 0.181345v 3.00583h 0.181345v -1.75922h 0.181345v 0.439525h 0.181345v
 -0.367154h 0.181345v -0.569474h 0.181345v 1.46613h 0.181345v -2.47921h 0.181345v 0.599653h 0.181345v 0.695481h 0.181345v 1.18408h 0.181345v -0.677438h 0.181345v 0.677438h 0.181345v -1.46613h 0.181345v 2.50168h 0.181345v -1.41566h 0.181345v
 -0.516554h 0.181345v 1.1294h 0.181345v 0.638795h 0.181345v 1.36493h 0.181345v -4.18385h 0.181345v 3.40094h 0.181345v -0.500243h 0.181345v 2.20351h 0.181345v -0.920363h 0.181345v -1.92534h 0.181345v 2.9409h 0.181345v -4.07597h 0.181345v 3.06041h
 0.181345v -1.44628h 0.181345v 2.84877h 0.181345v -1.92891h 0.181345v 1.54199h 0.181345v 0.986578h 0.181345v -3.03724h 0.181345v 1.67341h 0.181345v 1.06103h 0.181345v -3.46667h 0.181345v -0.391951h 0.181345v 1.63286h 0.181345v 0.70606h 0.181345v
 1.82251h 0.181345v -0.501351h 0.181345v 0.0989464h 0.181345v -2.03969h 0.181345v -0.924981h 0.181345v 2.66976h 0.181345v -0.193455h 0.181345v -1.89427h 0.181345v 1.23607h 0.181345v -0.273529h 0.181345v 2.87813h 0.181345v -1.65528h 0.181345v
 -0.386926h 0.181345v 0.986578h 0.181345v -2.78505h 0.181345v 3.19848h 0.181345v 0.317681h 0.181345v -0.933655h 0.181345v 0.827017h 0.181345v -1.22413h 0.181345v -0.386926h 0.181345v 2.37385h 0.181345v -1.38727h 0.181345v 1.16537h 0.181345v
 -0.751934h 0.181345v 0.105152h 0.181345v 1.55468h 0.181345v -3.62224h 0.181345v 3.27535h 0.181345v -1.72637h 0.181345v 0.518583h 0.181345v -0.518583h 0.181345v 1.61249h 0.181345v -1.19906h 0.181345v -0.815835h 0.181345v -0.867993h 0.181345v 2.21707h
 0.181345v -1.14922h 0.181345v 1.36791h 0.181345v -2.5292h 0.181345v 0.862479h 0.181345v 0.810357h 0.181345v 0.422105h 0.181345v -1.23246h 0.181345v -0.580428h 0.181345v -0.558926h 0.181345v 1.64071h 0.181345v 1.27591h 0.181345v 0.565207h 0.181345v
 -1.63582h 0.181345v 1.75144h 0.181345v -3.03852h 0.181345v 2.69427h 0.181345v 0.22863h 0.181345v -3.20495h 0.181345v 1.36383h 0.181345v -0.202544h 0.181345v 2.7511h 0.181345v -1.38319h 0.181345v 3.3121h 0.181345v -4.06404h 0.181345v 0.211042h
 0.181345v -0.10589h 0.181345v 0.537042h 0.181345v 2.10891h 0.36269v -2.32602h 0.181345v 1.23476h 0.181345v -2.37607h 0.181345v 0.716236h 0.181345v 1.77726h 0.181345v 0.237631h 0.181345v -3.12564h 0.181345v 2.53844h 0.181345v 0.467922h 0.181345v
 -0.352295h 0.181345v -1.43816h 0.181345v -0.209577h 0.181345v 1.07826h 0.181345v -0.868687h 0.181345v 1.79046h 0.181345v -3.29562h 0.181345v 0.986578h 0.181345v 0.624473h 0.181345v -0.624473h 0.181345v -1.08178h 0.36269v 0.191006h 0.181345v
 0.389422h 0.181345v -0.485227h 0.181345v 1.19188h 0.181345v -2.99035h 0.181345v 2.18539h 0.181345v -3.24904h 0.181345v 3.15137h 0.181345v -4.29216h 0.181345v 0.521657h 0.181345v 1.43058h 0.181345v -2.02531h 0.181345v 0.747146h 0.181345v -0.0764016h
 0.181345v 1.43816h 0.181345v -2.89017h 0.181345v -0.676763h 0.181345v 2.7511h 0.181345v -1.72422h 0.181345v -0.0706759h 0.181345v -1.73018h 0.181345v 1.24451h 0.181345v 0.275611h 0.181345v 0.784962h 0.181345v -0.145791h 0.181345v 1.60594h 0.181345v
 -1.38672h 0.181345v 2.6484h 0.181345v -2.27581h 0.181345v 1.92891h 0.181345v -1.62407h 0.181345v -3.55072h 0.181345v 5.26077h 0.181345v -2.82278h 0.181345v 0.883527h 0.181345v 0.306392h 0.181345v 0.794356h 0.181345v -2.40737h 0.181345v 1.30662h
 0.181345v -1.65035h 0.181345v -0.794356h 0.181345v -0.192223h 0.181345v -2.9409h 0.181345v -0.208131h 0.181345v -0.657258h 0.181345v -0.677197h 0.181345v -2.11507h 0.181345v -1.70858h 0.181345v -2.83652h 0.181345v 0.589379h 0.181345v -1.33138h
 0.181345v -2.42911h 0.181345v -1.00155h 0.181345v -0.654686h 0.181345v -0.392518h 0.181345v -1.72695h 0.181345v 0.487737h 0.181345v -0.487737h 0.181345v -1.75591h 0.181345v 1.28345h 0.181345v -0.331241h 0.181345v 0.257001h 0.181345v 0.681689h
 0.181345v -0.287789h 0.181345v 0.404459h 0.181345v 1.45379h 0.181345v 0.885255h 0.181345v 1.96937h 0.181345v 1.21645h 0.181345v 1.26184h 0.181345v 2.63524h 0.181345v -0.324513h 0.181345v 2.55969h 0.181345v 0.691893h 0.181345v 2.34078h 0.181345v
 1.92656h 0.181345v 0.537893h 0.181345v 1.07151h 0.181345v 2.94835h 0.181345v 1.24091h 0.181345v 0.348901h 0.181345v 0.177523h 0.181345v 2.41557h 0.181345v 0.862479h 0.36269v 0.914782h 0.181345v -2.2923h 0.181345v -0.201193h 0.181345v 3.09474h
 0.181345v -0.482898h 0.181345v -0.58267h 0.181345v 1.18875h 0.181345v -2.29064h 0.181345v 0.874986h 0.181345v 3.67996h 0.181345v -2.50967h 0.181345v -0.360717h 0.181345v 0.239517h 0.181345v 1.92891h 0.181345v -0.801389h 0.181345v -0.636773h
 0.181345v -0.124192h 0.181345v 1.56235h 0.181345v -1.92891h 0.181345v 2.20579h 0.181345v -1.58981h 0.181345v -1.09127h 0.181345v -0.232147h 0.181345v 2.09739h 0.181345v -0.647708h 0.181345v -0.251494h 0.181345v 0.50725h 0.181345v -0.255757h
 0.181345v 0.385279h 0.181345v -1.24776h 0.181345v 1.64313h 0.181345v -2.572h 0.181345v 0.457286h 0.181345v 3.22268h 0.181345v -0.838509h 0.181345v -1.67116h 0.181345v -0.1212h 0.181345v 3.36707h 0.181345v -1.30036h 0.181345v 0.139073h 0.181345v
 0.569474h 0.181345v -1.77726h 0.181345v 0.659025h 0.181345v 1.8617h 0.181345v -0.88786h 0.181345v -0.284712h 0.181345v 0.141684h 0.181345v 1.97427h 0.181345v -4.21873h 0.181345v 0.754621h 0.181345v 0.260166h 0.181345v 1.66289h 0.181345v -0.715265h
 0.181345v 2.7511h 0.181345v -4.59033h 0.181345v 1.29047h 0.181345v 1.71005h 0.181345v -0.879236h 0.181345v 0.433215h 0.181345v 0.750865h 0.181345v -0.454987h 0.181345v 0.150143h 0.181345v 2.27581h 0.181345v -5.02691h 0.181345v 3.68476h 0.181345v
 -1.81289h 0.181345v 1.81289h 0.181345v 2.06083h 0.181345v -4.0154h 0.181345v -0.417242h 0.181345v 1.89777h 0.181345v -0.905628h 0.181345v -1.1287h 0.181345v 1.27591h 0.181345v 1.07279h 0.181345v -4.73287h 0.181345v 3.36707h 0.181345v -0.708547h
 0.181345v 2.07434h 0.181345v -2.21214h 0.181345v 2.5332h 0.181345v -0.161384h 0.181345v 0.824756h 0.181345v -0.984432h 0.181345v -0.158004h 0.181345v -0.615974h 0.181345v -0.446021h 0.181345v 2.37493h 0.181345v -3.63896h 0.181345v 3.29986h 0.181345v
 -2.32602h 0.181345v -0.564151h 0.181345v 0.421123h 0.181345v -2.60807h 0.181345v 0.363615h 0.181345v -2.16746h 0.181345v -1.12582h 0.181345v 0.501351h 0.181345v -3.84869h 0.181345v -0.993577h 0.181345v 0.993577h 0.181345v -4.41971h 0.181345v
 -3.41416h 0.181345v 2.444h 0.181345v -1.3727h 0.181345v -3.17408h 0.181345v -1.95343h 0.181345v -0.249415h 0.181345v -2.56144h 0.181345v -2.1115h 0.181345v -0.180403h 0.181345v 0.180403h 0.181345v -1.59759h 0.181345v -0.706193h 0.181345v 0.156599h
 0.181345v -1.29231h 0.181345v 1.20263h 0.181345v -1.92802h 0.181345v 0.828956h 0.181345v 0.188226h 0.181345v -0.938284h 0.181345v 1.62722h 0.181345v 0.861183h 0.181345v 0.765389h 0.181345v 0.600647h 0.181345v 0.625552h 0.181345v 1.7175h 0.181345v
 1.178h 0.181345v 2.67392h 0.181345v 0.0771832h 0.181345v 3.75903h 0.181345v 0.659468h 0.181345v 0.908301h 0.181345v 3.24367h 0.181345v 1.50659h 0.181345v 3.65268h 0.181345v 2.73189h 0.181345v -0.894441h 0.181345v 2.7294h 0.181345v 1.79353h 0.181345v
 1.8691h 0.181345v 1.75655h 0.181345v 1.77726h 0.181345v -0.815835h 0.181345v 1.45803h 0.181345v 0.220285h 0.181345v -0.651437h 0.181345v 3.31404h 0.181345v 1.97712h 0.181345v -2.7511h 0.181345v 0.253607h 0.181345v 2.49749h 0.181345v -5.29116h
 0.181345v 4.12987h 0.181345v 2.41945h 0.181345v -5.21705h 0.181345v 4.26373h 0.181345v -2.01489h 0.181345v 0.830812h 0.181345v -1.36031h 0.181345v -1.71934h 0.181345v 1.46139h 0.181345v -0.989815h 0.181345v 1.51019h 0.181345v -0.520371h 0.181345v
 0.520371h 0.181345v 4.25293h 0.181345v -3.43709h 0.181345v -0.548761h 0.181345v 1.11824h 0.181345v 1.20779h 0.181345v -4.34091h 0.181345v 0.97384h 0.181345v 0.253607h 0.181345v 3.75566h 0.181345v -5.89789h 0.181345v 1.63921h 0.181345v 0.249415h
 0.181345v 4.00927h 0.181345v 0.670745h 0.181345v -0.670745h 0.181345v -3.75566h 0.181345v 2.80234h 0.181345v -3.30536h 0.181345v 0.503022h 0.181345v 1.61826h 0.181345v 1.49521h 0.181345v -2.05414h 0.181345v 4.80524h 0.181345v -6.61295h 0.181345v
 2.65406h 0.181345v 0.293005h 0.181345v 3.29329h 0.181345v -4.43264h 0.181345v 1.43816h 0.181345v -4.86001h 0.181345v 5.47598h 0.181345v -4.34091h 0.181345v 1.22745h 0.181345v -1.46139h 0.181345v -2.7511h 0.181345v 2.07027h 0.181345v 3.20156h
 0.181345v 1.74301h 0.181345v -2.80234h 0.181345v -2.14223h 0.181345v 1.88862h 0.181345v 2.15929h 0.181345v 0.896656h 0.181345v -3.55072h 0.181345v -1.39385h 0.181345v 1.15241h 0.181345v 2.32602h 0.181345v -1.07826h 0.181345v -0.51155h 0.181345v
 0.253607h 0.181345v 1.33621h 0.181345v -3.25489h 0.181345v -0.223549h 0.181345v 1.39385h 0.181345v -0.943387h 0.181345v 1.69177h 0.181345v -4.01779h 0.181345v 7.77345h 0.181345v -0.953324h 0.181345v -5.596h 0.181345v 1.56622h 0.181345v 2.56365h
 0.181345v -0.276875h 0.181345v 3.36707h 0.181345v -3.0902h 0.181345v -3.25489h 0.181345v 5.34983h 0.181345v -5.34983h 0.181345v 0.928864h 0.181345v -1.58981h 0.181345v 7.35293h 0.181345v -2.57462h 0.181345v -1.13935h 0.181345v 0.558926h 0.181345v
 4.62834h 0.181345v -6.24659h 0.181345v -1.69177h 0.181345v 3.31003h 0.181345v -0.830812h 0.181345v -1.04105h 0.181345v 1.31294h 0.181345v 3.02798h 0.181345v -1.88862h 0.181345v 1.55698h 0.181345v -3.75566h 0.181345v 4.08731h 0.181345v -0.331646h
 0.181345v -1.84998h 0.181345v -2.65406h 0.181345v 1.80771h 0.36269v 5.57921h 0.181345v -1.86524h 0.181345v -0.346895h 0.181345v -0.995258h 0.181345v -0.317681h 0.181345v 0.317681h 0.181345v 1.34215h 0.181345v -1.01764h 0.181345v 0.331646h 0.181345v
 -4.08731h 0.181345v 0.787445h 0.181345v 2.01489h 0.181345v -5.16485h 0.181345v 4.26819h 0.181345v 4.34091h 0.181345v 1.63286h 0.181345v -6.82013h 0.181345v 1.74301h 0.181345v 2.32602h 0.181345v -1.3727h 0.181345v 2.10891h 0.181345v -1.43816h
 0.181345v -0.670745h 0.181345v 0.670745h 0.181345v -3.36707h 0.181345v 0.276875h 0.181345v 5.30234h 0.181345v -1.14657h 0.181345v -3.58629h 0.181345v 3.22268h 0.181345v -3.22268h 0.181345v 3.95889h 0.181345v -4.52836h 0.181345v 2.41945h 0.181345v
 1.3727h 0.181345v 1.51019h 0.181345v -4.43986h 0.181345v 4.04791h 0.181345v -3.13313h 0.181345v 0.317681h 0.181345v 0.995258h 0.181345v 1.06557h 0.181345v -1.40467h 0.181345v -1.58981h 0.181345v -0.879236h 0.181345v 0.580428h 0.181345v 6.56863h
 0.181345v -2.90275h 0.181345v 3.84614h 0.36269v -2.25633h 0.181345v 6.76037h 0.181345v -6.33529h 0.181345v -3.45305h 0.181345v 3.89045h 0.725379v -1.27591h 0.181345v 2.19069h 0.181345v 1.48539h 0.181345v 0.529503h 0.36269v 1.11824h 0.181345v
 -0.569474h 0.181345v 4.52836h 0.181345v -6.11817h 0.181345v 2.7511h 0.181345v 1.92891h 0.181345v -3.63896h 0.181345v 3.63896h 0.181345v -5.65385h 0.181345v 2.56365h 0.181345v 1.77726h 0.181345v 0.642194h 0.181345v 1.3727h 0.181345v -1.3727h
 0.181345v 2.88288h 0.181345v -4.73287h 0.181345v -2.65406h 0.181345v 1.53583h 0.181345v 1.11824h 0.181345v -0.569474h 0.36269v -2.08459h 0.181345v 3.24587h 0.181345v 1.92891h 0.181345v 4.80524h 0.181345v 0.97384h 0.181345v -10.4591h 0.181345v
 0.51155h 0.181345v 5.60662h 0.181345v -3.36707h 0.181345v -3.24587h 0.181345v 9.98002h 0.181345v 2.01489h 0.181345v 3.63896h 0.181345v -4.68001h 0.181345v -5.07712h 0.181345v -1.3727h 0.181345v 14.1578h 0.181345v -12.0489h 0.181345v 12.0489h
 0.181345v -12.0489h 0.181345v -2.10891h 0.181345v 2.88288h 0.181345v 5.72622h 0.181345v -4.04791h 0.181345v 5.2557h 0.181345v -5.2557h 0.181345v 11.3739h 0.181345v -7.32596h 0.181345v -7.93836h 0.181345v 1.43816h 0.181345v 10.4591h 0.181345v
 -3.95889h 0.181345v -2.15929h 0.181345v 3.36707h 0.181345v -5.2557h 0.181345v -3.1885h 0.181345v 0.736208h 0.181345v 4.34091h 0.181345v -2.7511h 0.181345v 4.91039h 0.181345v -3.13313h 0.181345v 0.97384h 0.181345v -2.7511h 0.181345v -1.58981h
 0.36269v -0.736208h 0.181345v -3.79215h 0.181345v 9.91033h 0.181345v -9.91033h 0.181345v -3.91584h 0.181345v 5.6931h 0.181345v 0.642194h 0.181345v -6.33529h 0.181345v -3.10616h 0.181345v 5.94373h 0.181345v -1.48539h 0.181345v -3.36707h 0.181345v
 -0.736208h 0.181345v -5.87674h 0.181345v 0.245359h 0.181345v 2.4087h 0.181345v -1.38531h 0.181345v -1.02339h 0.181345v -4.27895h 0.181345v 0.377252h 0.181345v 0.784035h 0.181345v -2.5825h 0.36269v 0.170502h 0.181345v 0.882665h 0.181345v -0.882665h
 0.181345v -1.46931h 0.181345v 1.8162h 0.181345v -1.18077h 0.181345v 0.833874h 0.181345v 1.06557h 0.181345v -0.542188h 0.181345v 3.36707h 0.181345v -0.220285h 0.181345v 1.13507h 0.181345v -1.35218h 0.181345v 1.35218h 0.181345v 3.42613h 0.181345v
 -0.580428h 0.181345v 2.46905h 0.181345v -5.77908h 0.181345v 8.73272h 0.181345v 0.413431h 0.181345v 3.26265h 0.181345v -4.07849h 0.181345v -3.2074h 0.181345v 3.6098h 0.181345v 5.91563h 0.181345v -0.591812h 0.181345v -2.15929h 0.36269v -2.7511h
 0.181345v 8.86928h 0.181345v -4.52836h 0.181345v -1.58981h 0.181345v -0.97384h 0.181345v 4.98311h 0.181345v -9.08639h 0.181345v 3.63896h 0.181345v -5.65385h 0.181345v 5.65385h 0.181345v -6.86164h 0.181345v 1.20779h 0.181345v -1.77726h 0.181345v
 -4.12987h 0.181345v 5.29116h 0.181345v -0.879236h 0.181345v -5.23894h 0.181345v -0.591812h 0.181345v -5.18726h 0.181345v 2.05414h 0.181345v -1.20779h 0.181345v 0.896656h 0.181345v -4.26373h 0.181345v -0.230375h 0.181345v 0.464322h 0.181345v
 -1.24402h 0.181345v -1.34908h 0.181345v -1.05428h 0.181345v -0.898436h 0.181345v 3.19363h 0.181345v -2.66101h 0.181345v -2.87109h 0.181345v -0.51404h 0.181345v 3.11648h 0.181345v -2.07027h 0.181345v 3.17485h 0.181345v -3.17485h 0.181345v -0.828048h
 0.181345v 1.54106h 0.181345v -0.557451h 0.181345v -0.612847h 0.181345v -1.2251h 0.181345v -0.137803h 0.181345v 0.417242h 0.181345v -1.34815h 0.181345v 0.999655h 0.181345v -0.804952h 0.181345v -1.1927h 0.181345v 0.933655h 0.181345v -1.29152h
 0.181345v 1.42049h 0.181345v -2.27969h 0.181345v 0.452147h 0.181345v -0.396364h 0.181345v 2.03087h 0.181345v -2.89956h 0.181345v -0.467519h 0.181345v 2.86405h 0.181345v 0.249415h 0.181345v -0.914782h 0.181345v 0.789559h 0.181345v -1.08256h 0.181345v
 1.14505h 0.181345v 2.07763h 0.181345v -0.906326h 0.181345v 0.834643h 0.181345v 1.18992h 0.181345v -0.230375h 0.181345v 0.943387h 0.181345v 2.55765h 0.181345v 1.3042h 0.181345v -3.19848h 0.181345v 4.39753h 0.36269v 4.4548h 0.181345v 0.153192h
 0.181345v 1.45357h 0.181345v 1.23607h 0.181345v 3.04844h 0.181345v 5.67434h 0.181345v -3.75566h 0.181345v 3.11347h 0.181345v 0.317681h 0.181345v 2.43342h 0.181345v 2.45229h 0.181345v 1.39385h 0.181345v 3.24587h 0.181345v 4.14105h 0.181345v 5.72622h
 0.181345v -3.13313h 0.36269v 0.97384h 0.181345v 4.68001h 0.181345v 11.8973h 0.181345v -16.5773h 0.181345v 4.68001h 0.181345v 3.02798h 0.181345v 3.79215h 0.181345v -3.79215h 0.181345v 1.77726h 0.181345v 2.01489h 0.181345v 8.4442h 0.36269v -12.2363h
 0.181345v 8.86928h 0.181345v 7.70799h 0.36269v 6.11817h 0.181345v -13.8262h 0.181345v 3.36707h 0.181345v -15.2643h 0.181345v 19.6052h 0.181345v -7.70799h 0.181345v -2.7511h 0.181345v 27.0364h 0.36269v -20.9182h 0.181345v -6.11817h 0.181345v 37.4954h
 0.181345v -27.0364h 0.181345v -7.70799h 0.181345v 34.7443h 0.181345v -20.9182h 0.181345v -24.2853h 0.181345v 10.4591h 0.181345v 13.8262h 0.181345v -10.4591h 0.36269v -3.36707h 0.181345v 3.36707h 0.181345v 4.34091h 0.181345v -7.70799h 0.181345v
 13.8262h 0.181345v -13.8262h 0.181345v 13.8262h 0.181345v -13.8262h 0.544034v 3.36707h 0.36269v -6.11817h 0.181345v 2.7511h 0.181345v 3.36707h 0.181345v 20.9182h 0.181345v -10.4591h 0.36269v 10.4591h 0.181345v -20.9182h 0.181345v -3.36707h 0.181345v
 7.70799h 0.181345v -4.34091h 0.181345v -6.11817h 0.181345v 10.4591h 0.36269v -16.5773h 0.181345v 12.2363h 0.181345v -10.4591h 0.181345v -1.77726h 0.181345v 12.2363h 0.181345v -8.4442h 0.181345v -2.01489h 0.181345v 4.34091h 0.181345v 16.5773h
 0.181345v -18.9033h 0.181345v 5.07712h 0.181345v -2.7511h 0.181345v -6.11817h 0.181345v 16.5773h 0.181345v 6.11817h 0.181345v -27.0364h 0.181345v 6.11817h 0.181345v 4.34091h 0.181345v -2.32602h 0.181345v 12.7851h 0.181345v -4.34091h 0.181345v
 -17.785h 0.181345v 9.34085h 0.181345v -10.4591h 0.181345v 5.07712h 0.181345v 1.58981h 0.181345v -7.70799h 0.181345v 4.68001h 0.181345v -1.31294h 0.181345v -3.36707h 0.181345v 2.15929h 0.181345v -5.72622h 0.181345v 4.60799h 0.181345v -1.04105h
 0.181345v -4.34091h 0.181345v 2.45229h 0.181345v -3.1885h 0.181345v 6.11817h 0.181345v -6.82013h 0.181345v 5.77908h 0.181345v 3.36707h 0.181345v -12.2363h 0.181345v 4.52836h 0.181345v 1.58981h 0.181345v -6.66694h 0.181345v 12.7851h 0.181345v
 -4.34091h 0.181345v -3.36707h 0.181345v 2.45229h 0.181345v -0.862479h 0.181345v -1.58981h 0.181345v 3.36707h 0.181345v 5.65385h 0.181345v -4.68001h 0.181345v 4.68001h 0.181345v 6.82013h 0.181345v -3.79215h 0.181345v -1.58981h 0.181345v 13.8262h
 0.181345v -8.4442h 0.544034v 2.32602h 0.181345v 16.5773h 0.181345v -18.9033h 0.181345v 5.07712h 0.181345v 13.8262h 0.181345v -20.9182h 0.181345v 7.09201h 0.181345v -2.7511h 0.181345v 16.5773h 0.181345v -10.4591h 0.36269v -6.11817h 0.181345v 16.5773h
 0.181345v 10.4591h 0.181345v -16.5773h 0.725379v 16.5773h 0.181345v -10.4591h 0.36269v -10.4591h 0.181345v 4.34091h 0.181345v 16.5773h 0.181345v -20.9182h 0.181345v 10.4591h 0.36269v -6.11817h 0.181345v 16.5773h 0.181345v -20.9182h 0.181345v
 -10.4591h 0.181345v 20.9182h 0.181345v -6.11817h 0.181345v 6.11817h 0.181345v -6.11817h 0.181345v 16.5773h 0.181345v -20.9182h 0.181345v 4.34091h 0.544034v 16.5773h 0.181345v -16.5773h 0.181345v 6.11817h 0.181345v -6.11817h 0.544034v 16.5773h
 0.181345v -10.4591h 0.181345v -13.8262h 0.181345v 7.70799h 0.181345v -4.34091h 0.181345v 20.9182h 0.181345v 10.4591h 0.181345v -43.6136h 0.181345v 8.86928h 0.181345v 3.36707h 0.181345v -3.36707h 0.181345v 7.70799h 0.181345v -14.8h 0.181345v 10.4591h
 0.36269v -6.11817h 0.181345v 2.7511h 0.181345v 13.8262h 0.181345v -18.9033h 0.181345v 39.8215h 0.181345v -39.8215h 0.181345v 8.4442h 0.181345v -8.4442h 0.181345v 5.07712h 0.181345v 3.36707h 0.181345v -13.8262h 0.181345v 10.4591h 0.36269v -7.09201h
 0.181345v 4.34091h 0.181345v -2.32602h 0.181345v 18.9033h 0.181345v -20.9182h 0.181345v -1.77726h 0.181345v 8.86928h 0.181345v -13.2102h 0.181345v 4.34091h 0.181345v -1.58981h 0.181345v 3.36707h 0.181345v -1.77726h 0.181345v -4.34091h 0.181345v
 10.4591h 0.36269v 2.7511h 0.181345v -10.4591h 0.36269v -2.7511h 0.36269v 2.7511h 0.181345v 3.36707h 0.181345v -3.36707h 0.181345v 1.58981h 0.181345v 3.79215h 0.181345v 2.32602h 0.36269v -6.11817h 0.181345v 8.86928h 0.181345v 3.36707h 0.36269v
 -6.11817h 0.181345v -6.11817h 0.181345v 6.11817h 0.181345v 6.11817h 0.181345v -8.4442h 0.36269v 2.32602h 0.181345v 2.7511h 0.181345v -2.7511h 0.181345v -2.32602h 0.181345v -2.01489h 0.181345v 7.09201h 0.181345v -2.7511h 0.181345v -6.11817h 0.181345v
 43.6136h 0.181345v -43.6136h 0.181345v 6.11817h 0.181345v 6.11817h 0.544034v -6.11817h 0.181345v 16.5773h 0.181345v -10.4591h 0.181345v -6.11817h 0.181345v 10.4591h 0.181345v -10.4591h 0.181345v -7.70799h 0.181345v 3.36707h 0.544034v 2.01489h
 0.181345v 2.32602h 0.181345v 2.7511h 0.36269v -2.7511h 0.181345v 16.5773h 0.181345v -6.11817h 0.181345v -7.70799h 0.181345v -2.7511h 0.181345v -4.34091h 0.181345v 2.01489h 0.181345v 5.07712h 0.181345v -10.4591h 0.181345v 24.2853h 0.181345v -10.4591h
 0.36269v -16.5773h 0.181345v 20.9182h 0.181345v -16.5773h 0.181345v 8.86928h 0.181345v -2.7511h 0.181345v -6.11817h 0.181345v 8.86928h 0.181345v -2.7511h 0.36269v -2.32602h 0.181345v 8.4442h 0.181345v -8.4442h 0.181345v -2.01489h 0.181345v -6.11817h
 0.36269v -3.36707h 0.181345v 16.5773h 0.181345v -8.86928h 0.181345v 3.79215h 0.181345v 2.32602h 0.181345v -4.34091h 0.181345v 2.01489h 0.181345v -6.82013h 0.36269v 11.8973h 0.181345v -2.7511h 0.181345v -4.34091h 0.181345v 14.8h 0.181345v -16.5773h
 0.181345v -6.66694h 0.181345v 10.4591h 0.181345v 2.32602h 0.181345v -9.14615h 0.181345v -2.52073h 0.181345v 5.5487h 0.181345v 3.79215h 0.181345v -2.01489h 0.181345v -1.77726h 0.181345v 1.77726h 0.181345v 2.01489h 0.181345v -5.38197h 0.181345v
 10.4591h 0.181345v -8.86928h 0.181345v -6.66694h 0.181345v 5.07712h 0.181345v -3.95889h 0.181345v 5.5487h 0.36269v 6.11817h 0.181345v -13.8262h 0.181345v 13.8262h 0.181345v 2.7511h 0.181345v -11.8973h 0.181345v 9.14615h 0.181345v -7.70799h 0.181345v
 -3.95889h 0.181345v 3.95889h 0.181345v 10.4591h 0.181345v -13.2102h 0.181345v 2.7511h 0.181345v -1.43816h 0.181345v 4.80524h 0.181345v -7.32596h 0.181345v 3.95889h 0.181345v -1.43816h 0.181345v 3.02798h 0.181345v -6.66694h 0.181345v -2.01489h
 0.181345v 5.65385h 0.181345v -1.31294h 0.181345v 1.31294h 0.181345v 9.14615h 0.181345v -11.6669h 0.181345v 1.20779h 0.181345v 1.31294h 0.181345v -1.31294h 0.181345v 2.7511h 0.181345v -5.07712h 0.181345v -8.13307h 0.181345v 8.13307h 0.181345v
 -1.04105h 0.181345v 1.04105h 0.181345v 1.11824h 0.181345v -2.15929h 0.181345v 2.15929h 0.181345v 9.34085h 0.181345v -9.34085h 0.181345v -4.91039h 0.181345v 0.862479h 0.181345v -2.45229h 0.181345v 13.8262h 0.181345v -9.48525h 0.181345v -2.7511h
 0.181345v 6.11817h 0.36269v -2.32602h 0.181345v -6.11817h 0.181345v 6.11817h 0.181345v -1.04105h 0.181345v -3.56694h 0.181345v 8.24695h 0.181345v -6.56863h 0.181345v 0.914782h 0.181345v -4.80524h 0.181345v 9.14615h 0.181345v 2.7511h 0.181345v
 1.58981h 0.181345v -7.70799h 0.181345v 6.11817h 0.181345v -6.11817h 0.181345v 1.04105h 0.181345v -5.38197h 0.36269v 7.70799h 0.181345v -3.36707h 0.181345v 1.04105h 0.181345v -2.01489h 0.181345v 5.65385h 0.181345v -9.75714h 0.181345v 2.32602h
 0.181345v 2.7511h 0.181345v 4.68001h 0.181345v -5.65385h 0.181345v -4.80524h 0.181345v 0.701953h 0.181345v -0.701953h 0.181345v 4.80524h 0.181345v 2.01489h 0.181345v -5.38197h 0.181345v -3.36707h 0.181345v 1.25817h 0.36269v 3.69872h 0.181345v
 -1.58981h 0.181345v 0.773979h 0.181345v -2.21214h 0.181345v -3.0902h 0.181345v 7.89544h 0.181345v -7.32596h 0.181345v 1.20779h 0.36269v -1.77726h 0.181345v 2.41945h 0.181345v -1.84998h 0.181345v 1.84998h 0.181345v -2.96822h 0.181345v 1.71005h
 0.181345v 1.92891h 0.36269v -1.92891h 0.181345v -0.591812h 0.181345v -0.569474h 0.181345v -2.08459h 0.181345v 2.65406h 0.181345v -1.64774h 0.181345v 5.60662h 0.36269v -0.736208h 0.181345v -2.63087h 0.181345v 1.92891h 0.181345v -8.24695h 0.181345v
 9.68511h 0.181345v -3.95889h 0.181345v 2.52073h 0.181345v -1.92891h 0.181345v 2.63087h 0.181345v -0.701953h 0.544034v 3.02798h 0.181345v -6.66694h 0.181345v 6.66694h 0.181345v -1.58981h 0.181345v 2.45229h 0.181345v -1.67831h 0.181345v -2.21214h
 0.181345v 4.80524h 0.181345v 0.97384h 0.181345v -8.2998h 0.181345v 8.2998h 0.181345v -6.44982h 0.181345v -1.25817h 0.181345v 6.73415h 0.181345v 0.97384h 0.181345v -0.97384h 0.36269v -7.32596h 0.181345v 4.73287h 0.181345v -2.88288h 0.181345v 2.10891h
 0.181345v 5.38197h 0.181345v -1.04105h 0.181345v -8.2998h 0.181345v 3.22268h 0.181345v 2.32602h 0.181345v 10.4591h 0.181345v 1.77726h 0.181345v -9.48525h 0.181345v -2.7511h 0.181345v 6.11817h 0.181345v -3.36707h 0.181345v -2.7511h 0.181345v 3.79215h
 0.181345v 2.32602h 0.181345v -6.11817h 0.181345v 0.862479h 0.181345v 2.92967h 0.181345v -1.04105h 0.181345v 9.48525h 0.181345v -8.4442h 0.181345v -2.01489h 0.181345v 2.01489h 0.181345v -2.92967h 0.181345v -0.862479h 0.181345v 2.7511h 0.181345v
 -2.7511h 0.181345v 1.77726h 0.181345v 5.65385h 0.181345v -5.65385h 0.181345v 3.13313h 0.181345v 1.20779h 0.181345v -6.93401h 0.181345v 1.67831h 0.181345v 2.92967h 0.181345v 2.32602h 0.181345v -9.81689h 0.181345v 4.5612h 0.181345v 9.59661h 0.181345v
 -6.66694h 0.181345v -2.92967h 0.181345v 4.04791h 0.181345v -2.15929h 0.181345v 2.15929h 0.181345v 3.95889h 0.181345v -5.07712h 0.181345v -1.04105h 0.181345v 2.15929h 0.181345v -4.04791h 0.181345v 2.92967h 0.181345v -2.01489h 0.181345v -0.914782h
 0.181345v 2.92967h 0.544034v -4.60799h 0.36269v 0.815835h 0.181345v 8.86928h 0.181345v -5.07712h 0.181345v 5.07712h 0.36269v -3.95889h 0.181345v -2.15929h 0.181345v 2.15929h 0.181345v 5.5487h 0.181345v -10.4591h 0.181345v 12.2363h 0.181345v
 -6.11817h 0.181345v -4.34091h 0.181345v 4.34091h 0.36269v -6.11817h 0.181345v 2.7511h 0.181345v 9.48525h 0.181345v -8.4442h 0.181345v -6.11817h 0.181345v 9.75714h 0.181345v -3.63896h 0.181345v 8.4442h 0.181345v -3.36707h 0.181345v -1.43816h
 0.181345v -9.02093h 0.181345v 0.773979h 0.181345v 1.67831h 0.36269v 1.88862h 0.181345v 9.48525h 0.181345v 2.01489h 0.181345v -10.4591h 0.181345v -2.92967h 0.181345v -6.98065h 0.181345v 13.5493h 0.36269v -11.1298h 0.181345v 2.10891h 0.181345v
 -0.736208h 0.181345v 0.736208h 0.181345v 0.773979h 0.181345v 4.60799h 0.181345v 1.11824h 0.181345v -4.04791h 0.181345v -5.20339h 0.181345v 10.4591h 0.181345v -6.11817h 0.181345v 3.79215h 0.181345v 1.11824h 0.181345v 9.34085h 0.181345v -16.5773h
 0.181345v 8.4442h 0.181345v -3.36707h 0.36269v 1.04105h 0.181345v 3.63896h 0.181345v -6.56863h 0.181345v -0.862479h 0.181345v 4.91039h 0.36269v 9.34085h 0.181345v -8.13307h 0.181345v -1.20779h 0.181345v -2.15929h 0.181345v -7.09201h 0.181345v 14.8h
 0.181345v -12.0489h 0.181345v 5.38197h 0.181345v 1.11824h 0.181345v -5.72622h 0.181345v -0.773979h 0.181345v 2.45229h 0.36269v -3.1885h 0.181345v 6.11817h 0.181345v -4.60799h 0.181345v 2.5931h 0.36269v -0.914782h 0.181345v -3.89045h 0.181345v
 3.02798h 0.181345v 6.11817h 0.181345v -5.2557h 0.181345v 1.88862h 0.181345v -1.88862h 0.181345v 0.914782h 0.181345v 4.34091h 0.181345v -11.0751h 0.181345v 6.73415h 0.181345v -4.10328h 0.181345v 3.1885h 0.181345v -4.5612h 0.181345v 5.47598h 0.181345v
 -3.36707h 0.181345v -3.95889h 0.181345v 5.5487h 0.181345v -3.69872h 0.36269v 5.47598h 0.181345v -3.36707h 0.181345v -3.95889h 0.181345v 3.95889h 0.181345v -7.09201h 0.181345v 7.09201h 0.181345v -2.7511h 0.181345v 8.13307h 0.181345v -8.74904h
 0.181345v 0.615974h 0.181345v -1.20779h 0.181345v 0.591812h 0.181345v 4.95689h 0.181345v -6.11817h 0.181345v 5.30234h 0.181345v -3.52508h 0.36269v 5.20339h 0.181345v 1.88862h 0.181345v 1.04105h 0.181345v -4.60799h 0.36269v -6.3806h 0.181345v
 8.05892h 0.181345v -1.67831h 0.181345v -2.21214h 0.181345v -0.670745h 0.181345v 7.49087h 0.181345v -6.82013h 0.181345v 5.77908h 0.181345v -5.07712h 0.181345v -0.701953h 0.181345v 5.77908h 0.181345v -0.97384h 0.181345v -4.10328h 0.181345v 6.11817h
 0.36269v 2.32602h 0.181345v -12.7851h 0.181345v 11.5773h 0.181345v -8.60911h 0.181345v 0.670745h 0.36269v 7.93836h 0.181345v -4.91039h 0.36269v 2.7511h 0.181345v 2.15929h 0.181345v 7.32596h 0.36269v -11.3739h 0.181345v 0.914782h 0.181345v 3.13313h
 0.181345v 2.52073h 0.181345v -7.43111h 0.181345v 1.77726h 0.181345v -5.47598h 0.181345v 2.88288h 0.181345v 5.72622h 0.181345v -3.13313h 0.181345v 0.97384h 0.181345v 9.48525h 0.181345v -13.8262h 0.181345v 7.70799h 0.181345v 2.7511h 0.181345v
 -9.68511h 0.181345v 8.24695h 0.181345v -4.68001h 0.181345v -1.88862h 0.181345v 1.88862h 0.181345v 3.36707h 0.181345v -2.32602h 0.181345v -3.79215h 0.181345v 3.79215h 0.181345v -2.01489h 0.181345v 4.34091h 0.181345v 4.34091h 0.181345v -11.2749h
 0.181345v -0.773979h 0.181345v -0.736208h 0.181345v 12.7851h 0.181345v -12.0489h 0.181345v -0.736208h 0.181345v 16.5773h 0.181345v -5.38197h 0.181345v -10.4591h 0.181345v 2.45229h 0.181345v -0.862479h 0.181345v 0.862479h 0.181345v -0.862479h
 0.181345v 0.862479h 0.181345v -2.45229h 0.181345v -0.736208h 0.181345v 11.1953h 0.181345v -8.86928h 0.181345v -3.02798h 0.181345v 2.21214h 0.181345v 4.60799h 0.181345v 2.32602h 0.181345v 2.7511h 0.181345v -11.8973h 0.181345v 1.43816h 0.181345v
 10.4591h 0.181345v -1.43816h 0.181345v -4.68001h 0.181345v 6.11817h 0.181345v -8.0068h 0.181345v 8.0068h 0.181345v -11.1953h 0.181345v 6.11817h 0.181345v 8.4442h 0.181345v -6.11817h 0.181345v 4.34091h 0.181345v 3.79215h 0.181345v 2.32602h 0.181345v
 -9.14615h 0.36269v 9.14615h 0.181345v -11.6669h 0.181345v 11.6669h 0.181345v -2.32602h 0.181345v -11.5001h 0.181345v 24.2853h 0.181345v -19.6052h 0.181345v -1.31294h 0.181345v 6.11817h 0.181345v 7.09201h 0.181345v -10.4591h 0.181345v 7.70799h
 0.181345v 6.11817h 0.181345v -10.4591h 0.181345v 4.34091h 0.181345v -7.70799h 0.181345v 10.4591h 0.181345v 24.2853h 0.181345v -31.3773h 0.181345v -1.77726h 0.36269v 1.77726h 0.181345v -9.48525h 0.181345v 16.5773h 0.181345v -13.2102h 0.181345v
 8.13307h 0.181345v -3.79215h 0.181345v 3.79215h 0.181345v -6.82013h 0.181345v 6.82013h 0.181345v 5.07712h 0.181345v -10.4591h 0.181345v -2.7511h 0.181345v 6.11817h 0.181345v 7.09201h 0.181345v -8.86928h 0.181345v 6.11817h 0.181345v -6.11817h
 0.181345v -3.02798h 0.181345v 3.02798h 0.181345v 6.11817h 0.181345v 2.7511h 0.181345v -10.4591h 0.181345v -1.43816h 0.181345v 15.2643h 0.181345v -15.2643h 0.181345v 3.02798h 0.181345v 16.5773h 0.181345v -12.7851h 0.181345v 5.07712h 0.181345v
 -8.86928h 0.181345v 1.77726h 0.36269v 4.34091h 0.181345v -6.11817h 0.181345v 6.11817h 0.181345v -4.34091h 0.181345v -7.32596h 0.181345v 9.34085h 0.181345v -9.34085h 0.181345v 1.20779h 0.181345v 37.4954h 0.181345v -39.8215h 0.181345v 2.32602h
 0.36269v 2.7511h 0.181345v 3.36707h 0.181345v -1.77726h 0.36269v 1.77726h 0.181345v -1.77726h 0.181345v -5.5487h 0.181345v 7.32596h 0.181345v 7.09201h 0.181345v -18.4659h 0.181345v 11.3739h 0.181345v 2.01489h 0.36269v -8.13307h 0.181345v 6.11817h
 0.181345v 2.01489h 0.181345v 18.9033h 0.181345v -13.8262h 0.181345v -10.4591h 0.181345v -6.11817h 0.181345v 3.36707h 0.181345v 1.31294h 0.181345v 3.02798h 0.181345v 3.79215h 0.36269v -2.01489h 0.181345v 2.01489h 0.181345v -5.38197h 0.181345v
 3.36707h 0.181345v -4.80524h 0.181345v 11.8973h 0.181345v -11.8973h 0.181345v -3.63896h 0.181345v 10.4591h 0.181345v 2.32602h 0.181345v -6.11817h 0.181345v 1.77726h 0.36269v -3.36707h 0.36269v -1.43816h 0.36269v -3.63896h 0.181345v 12.7851h
 0.181345v 2.7511h 0.181345v -13.2102h 0.181345v -4.34091h 0.181345v 8.68183h 0.181345v 1.77726h 0.181345v -3.36707h 0.181345v -2.7511h 0.181345v -5.2557h 0.181345v 21.833h 0.181345v -20.9182h 0.181345v 5.65385h 0.181345v 6.82013h 0.181345v -8.13307h
 0.181345v -4.34091h 0.181345v 10.4591h 0.181345v -3.36707h 0.725379v -6.11817h 0.181345v 2.15929h 0.181345v -4.04791h 0.181345v 5.2557h 0.36269v -1.20779h 0.181345v -6.5002h 0.181345v 3.36707h 0.181345v 4.34091h 0.181345v -8.4442h 0.181345v 8.4442h
 0.181345v -2.32602h 0.36269v 3.63896h 0.181345v -6.56863h 0.181345v 5.2557h 0.181345v 2.7511h 0.36269v -11.1953h 0.181345v 7.23641h 0.181345v -2.15929h 0.181345v 6.11817h 0.181345v -8.0068h 0.181345v 1.88862h 0.181345v 6.11817h 0.181345v -1.43816h
 0.181345v -10.4591h 0.181345v 4.80524h 0.36269v 2.01489h 0.36269v -2.92967h 0.181345v 4.04791h 0.181345v -10.4591h 0.181345v 8.2998h 0.181345v -5.77908h 0.181345v 4.80524h 0.181345v -1.77726h 0.181345v 1.77726h 0.181345v 3.13313h 0.181345v 3.95889h
 0.36269v -9.68511h 0.181345v 8.24695h 0.181345v -4.68001h 0.36269v 1.04105h 0.181345v -5.38197h 0.181345v 3.36707h 0.181345v -1.77726h 0.181345v 6.11817h 0.181345v -6.93401h 0.181345v 3.56694h 0.36269v -1.88862h 0.181345v 0.914782h 0.181345v
 2.01489h 0.181345v -3.79215h 0.181345v 0.862479h 0.181345v 0.914782h 0.181345v -2.5931h 0.181345v 2.5931h 0.181345v -2.5931h 0.181345v 3.56694h 0.181345v -2.7511h 0.181345v 7.43111h 0.181345v -9.75714h 0.181345v 5.07712h 0.181345v 2.15929h 0.181345v
 1.20779h 0.181345v -6.11817h 0.181345v 6.11817h 0.181345v 4.34091h 0.36269v -7.70799h 0.181345v 6.11817h 0.181345v 3.36707h 0.181345v 7.09201h 0.181345v -2.7511h 0.181345v 6.11817h 0.181345v -15.2643h 0.181345v 3.02798h 0.181345v -4.34091h 0.36269v
 10.4591h 0.181345v 10.4591h 0.181345v -4.34091h 0.181345v -12.2363h 0.181345v 3.79215h 0.181345v 2.32602h 0.181345v 6.11817h 0.181345v -8.4442h 0.36269v 5.07712h 0.181345v 7.70799h 0.181345v -10.4591h 0.181345v 2.7511h 0.181345v 13.8262h 0.181345v
 10.4591h 0.181345v 10.4591h 0.181345v -20.9182h 0.544034v -16.5773h 0.181345v 2.7511h 0.181345v 24.2853h 0.181345v -16.5773h 0.181345v -4.34091h 0.181345v 20.9182h 0.181345v 10.4591h 0.181345v -20.9182h 0.181345v -6.11817h 0.181345v 6.11817h
 0.181345v 20.9182h 0.181345v -10.4591h 0.181345v -16.5773h 0.181345v 16.5773h 0.36269v -10.4591h 0.36269v -10.4591h 0.181345v 10.4591h 0.181345v -10.4591h 0.181345v 10.4591h 0.544034v 10.4591h 0.181345v 10.4591h 0.181345v -10.4591h 0.181345v
 10.4591h 0.181345v -27.0364h 0.181345v 16.5773h 0.181345v 10.4591h 0.181345v -20.9182h 0.181345v 10.4591h 0.181345v 10.4591h 0.36269v -31.3773h 0.181345v 20.9182h 0.181345v -10.4591h 0.181345v 10.4591h 0.36269v -16.5773h 0.181345v 27.0364h 0.181345v
 -34.7443h 0.181345v 13.8262h 0.181345v 10.4591h 0.181345v -10.4591h 0.181345v 10.4591h 0.181345v -10.4591h 0.181345v -6.11817h 0.544034v 16.5773h 0.181345v -10.4591h 0.181345v 10.4591h 0.36269v 10.4591h 0.36269v -20.9182h 0.181345v 10.4591h
 0.181345v -16.5773h 0.181345v 6.11817h 0.181345v -10.4591h 0.181345v 20.9182h 0.36269v 10.4591h 0.181345v -20.9182h 0.181345v 10.4591h 0.725379v 10.4591h 0.36269v -20.9182h 0.36269v 10.4591h 0.181345v -10.4591h 0.36269v 10.4591h 0.181345v 10.4591h
 0.181345v -10.4591h 0.181345v 10.4591h 0.181345v -27.0364h 0.181345v 6.11817h 0.181345v 10.4591h 0.181345v 10.4591h 0.181345v -31.3773h 0.181345v 10.4591h 0.181345v 10.4591h 0.181345v -10.4591h 0.181345v 20.9182h 0.181345v -20.9182h 0.181345v
 -10.4591h 0.181345v 4.34091h 0.181345v 6.11817h 0.181345v 10.4591h 0.181345v -10.4591h 0.36269v 10.4591h 0.181345v -10.4591h 0.181345v 10.4591h 0.181345v -10.4591h 0.181345v 10.4591h 0.181345v -10.4591h 0.181345v 10.4591h 0.181345v -10.4591h
 0.181345v 10.4591h 0.36269v -10.4591h 0.181345v 10.4591h 0.181345v 10.4591h 0.181345v -20.9182h 0.36269v 20.9182h 0.36269v -10.4591h 0.181345v -10.4591h 0.36269v 20.9182h 0.181345v -20.9182h 0.181345v 20.9182h 0.181345v -27.0364h 0.181345v 6.11817h
 0.181345v -6.11817h 0.181345v 6.11817h 0.181345v -6.11817h 0.181345v -4.34091h 0.181345v 4.34091h 0.181345v 27.0364h 0.36269v -20.9182h 0.181345v 10.4591h 0.544034v -10.4591h 0.181345v 20.9182h 0.181345v -10.4591h 0.544034v 10.4591h 0.181345v
 -10.4591h 0.181345v 10.4591h 0.36269v -10.4591h 0.544034v 10.4591h 0.181345v -27.0364h 0.181345v 6.11817h 0.181345v 10.4591h 0.181345v -10.4591h 0.181345v 20.9182h 0.181345v -10.4591h 0.36269v 10.4591h 0.181345v -10.4591h 0.544034v 10.4591h
 0.544034v -10.4591h 0.36269v 10.4591h 0.36269v -10.4591h 0.181345v -10.4591h 0.181345v 20.9182h 0.544034v -10.4591h 0.181345v 10.4591h 0.181345v -20.9182h 0.181345v 20.9182h 0.181345v -20.9182h 0.181345v 20.9182h 0.181345v -20.9182h 0.181345v
 20.9182h 0.544034v -10.4591h 0.36269v 10.4591h 0.36269v -31.3773h 0.181345v 20.9182h 0.181345v -10.4591h 0.181345v 20.9182h 0.181345v -20.9182h 0.181345v 20.9182h 0.181345v -10.4591h 0.181345v 10.4591h 0.181345v -20.9182h 0.181345v 10.4591h
 0.181345v 10.4591h 0.181345v -31.3773h 0.181345v 31.3773h 0.36269v -20.9182h 0.181345v 10.4591h 0.181345v 10.4591h 0.544034v -10.4591h 0.181345v -16.5773h 0.181345v 6.11817h 0.181345v 10.4591h 0.181345v 10.4591h 0.181345v -10.4591h 1.08807v 10.4591h
 0.181345v -20.9182h 0.181345v 10.4591h 0.181345v 10.4591h 0.181345v -10.4591h 0.544034v 10.4591h 0.36269v -10.4591h 0.181345v 10.4591h 0.36269v -10.4591h 0.36269v 10.4591h 0.181345v -20.9182h 0.181345v 10.4591h 0.181345v 10.4591h 0.544034v -10.4591h
 0.181345v 10.4591h 0.36269v -20.9182h 0.181345v 20.9182h 0.181345v -20.9182h 0.181345v 20.9182h 0.544034v -10.4591h 0.181345v 10.4591h 0.181345v -10.4591h 0.181345v -10.4591h 0.36269v -6.11817h 0.181345v 27.0364h 0.36269v -10.4591h 0.36269v 10.4591h
 0.181345v -10.4591h 0.36269v 10.4591h 0.906724v -20.9182h 0.181345v 10.4591h 0.181345v 10.4591h 0.544034v -10.4591h 0.181345v 10.4591h 0.181345v -20.9182h 0.181345v 20.9182h 0.181345v -31.3773h 0.181345v 20.9182h 0.181345v 10.4591h 0.36269v
 -20.9182h 0.181345v 20.9182h 0.544034" fill="none" stroke="black"/>
<path d="M57.1929,280.151h 453.543" fill="none" stroke="black"/>
<path d="M57.1929,272.68v 7.47068" fill="none" stroke="black"/>
<path d="M75.3318,276.415v 3.73534" fill="none" stroke="black"/>
<path d="M93.4707,276.415v 3.73534" fill="none" stroke="black"/>
<path d="M111.61,276.415v 3.73534" fill="none" stroke="black"/>
<path d="M129.749,276.415v 3.73534" fill="none" stroke="black"/>
<path d="M147.887,272.68v 7.47068" fill="none" stroke="black"/>
<path d="M166.026,276.415v 3.73534" fill="none" stroke="black"/>
<path d="M184.165,276.415v 3.73534" fill="none" stroke="black"/>
<path d="M202.304,276.415v 3.73534" fill="none" stroke="black"/>
<path d="M220.443,276.415v 3.73534" fill="none" stroke="black"/>
<path d="M238.582,272.68v 7.47068" fill="none" stroke="black"/>
<path d="M256.721,276.415v 3.73534" fill="none" stroke="black"/>
<path d="M274.86,276.415v 3.73534" fill="none" stroke="black"/>
<path d="M292.999,276.415v 3.73534" fill="none" stroke="black"/>
<path d="M311.138,276.415v 3.73534" fill="none" stroke="black"/>
<path d="M329.277,272.68v 7.47068" fill="none" stroke="black"/>
<path d="M347.415,276.415v 3.73534" fill="none" stroke="black"/>
<path d="M365.554,276.415v 3.73534" fill="none" stroke="black"/>
<path d="M383.693,276.415v 3.73534" fill="none" stroke="black"/>
<path d="M401.832,276.415v 3.73534" fill="none" stroke="black"/>
<path d="M419.971,272.68v 7.47068" fill="none" stroke="black"/>
<path d="M438.11,276.415v 3.73534" fill="none" stroke="black"/>
<path d="M456.249,276.415v 3.73534" fill="none" stroke="black"/>
<path d="M474.388,276.415v 3.73534" fill="none" stroke="black"/>
<path d="M492.527,276.415v 3.73534" fill="none" stroke="black"/>
<path d="M510.666,272.68v 7.47068" fill="none" stroke="black"/>
<path d="M510.666,272.68v 7.47068" fill="none" stroke="black"/>
<text xml:space="preserve" x="54.3523" y="290.27" fill="black" font-size="10.4952" font-family="Helvetica">0</text>
<text xml:space="preserve" x="139.569" y="290.27" fill="black" font-size="10.4952" font-family="Helvetica">500</text>
<text xml:space="preserve" x="227.449" y="290.27" fill="black" font-size="10.4952" font-family="Helvetica">1000</text>
<text xml:space="preserve" x="318.288" y="290.27" fill="black" font-size="10.4952" font-family="Helvetica">1500</text>
<text xml:space="preserve" x="408.831" y="290.27" fill="black" font-size="10.4952" font-family="Helvetica">2000</text>
<text xml:space="preserve" x="499.67" y="290.27" fill="black" font-size="10.4952" font-family="Helvetica">2500</text>
<text xml:space="preserve" x="265.323" y="301.218" fill="black" font-size="10.4952" font-family="Helvetica">Channel</text>
<path d="M57.1929,280.151v -249.023" fill="none" stroke="black"/>
<path d="M63.9961,280.151h -6.80315" fill="none" stroke="black"/>
<path d="M63.9961,277.399h -6.80315" fill="none" stroke="black"/>
<path d="M63.9961,275.073h -6.80315" fill="none" stroke="black"/>
<path d="M63.9961,273.059h -6.80315" fill="none" stroke="black"/>
<path d="M63.9961,271.281h -6.80315" fill="none" stroke="black"/>
<path d="M70.7992,269.691h -13.6063" fill="none" stroke="black"/>
<text xml:space="preserve" x="49.0263" y="273.404" fill="black" font-size="10.4952" font-family="Helvetica">1</text>
<path d="M63.9961,259.232h -6.80315" fill="none" stroke="black"/>
<path d="M63.9961,253.114h -6.80315" fill="none" stroke="black"/>
<path d="M63.9961,248.773h -6.80315" fill="none" stroke="black"/>
<path d="M63.9961,245.406h -6.80315" fill="none" stroke="black"/>
<path d="M63.9961,242.655h -6.80315" fill="none" stroke="black"/>
<path d="M63.9961,240.329h -6.80315" fill="none" stroke="black"/>
<path d="M63.9961,238.314h -6.80315" fill="none" stroke="black"/>
<path d="M63.9961,236.537h -6.80315" fill="none" stroke="black"/>
<path d="M70.7992,234.947h -13.6063" fill="none" stroke="black"/>
<text xml:space="preserve" x="41.629" y="238.785" fill="black" font-size="10.4952" font-family="Helvetica">10</text>
<path d="M63.9961,224.488h -6.80315" fill="none" stroke="black"/>
<path d="M63.9961,218.37h -6.80315" fill="none" stroke="black"/>
<path d="M63.9961,214.029h -6.80315" fill="none" stroke="black"/>
<path d="M63.9961,210.662h -6.80315" fill="none" stroke="black"/>
<path d="M63.9961,207.911h -6.80315" fill="none" stroke="black"/>
<path d="M63.9961,205.585h -6.80315" fill="none" stroke="black"/>
<path d="M63.9961,203.57h -6.80315" fill="none" stroke="black"/>
<path d="M63.9961,201.793h -6.80315" fill="none" stroke="black"/>
<path d="M70.7992,200.203h -13.6063" fill="none" stroke="black"/>
<text xml:space="preserve" x="49.0263" y="200.319" fill="black" font-size="7.16345" font-family="Helvetica">2</text>
<text xml:space="preserve" x="38.0783" y="204.757" fill="black" font-size="10.4952" font-family="Helvetica">10</text>
<path d="M63.9961,189.744h -6.80315" fill="none" stroke="black"/>
<path d="M63.9961,183.626h -6.80315" fill="none" stroke="black"/>
<path d="M63.9961,179.285h -6.80315" fill="none" stroke="black"/>
<path d="M63.9961,175.918h -6.80315" fill="none" stroke="black"/>
<path d="M63.9961,173.166h -6.80315" fill="none" stroke="black"/>
<path d="M63.9961,170.84h -6.80315" fill="none" stroke="black"/>
<path d="M63.9961,168.826h -6.80315" fill="none" stroke="black"/>
<path d="M63.9961,167.048h -6.80315" fill="none" stroke="black"/>
<path d="M70.7992,165.458h -13.6063" fill="none" stroke="black"/>
<text xml:space="preserve" x="49.0263" y="165.404" fill="black" font-size="7.16345" font-family="Helvetica">3</text>
<text xml:space="preserve" x="38.0783" y="170.138" fill="black" font-size="10.4952" font-family="Helvetica">10</text>
<path d="M63.9961,154.999h -6.80315" fill="none" stroke="black"/>
<path d="M63.9961,148.881h -6.80315" fill="none" stroke="black"/>
<path d="M63.9961,144.54h -6.80315" fill="none" stroke="black"/>
<path d="M63.9961,141.173h -6.80315" fill="none" stroke="black"/>
<path d="M63.9961,138.422h -6.80315" fill="none" stroke="black"/>
<path d="M63.9961,136.096h -6.80315" fill="none" stroke="black"/>
<path d="M63.9961,134.081h -6.80315" fill="none" stroke="black"/>
<path d="M63.9961,132.304h -6.80315" fill="none" stroke="black"/>
<path d="M70.7992,130.714h -13.6063" fill="none" stroke="black"/>
<text xml:space="preserve" x="49.0263" y="130.784" fill="black" font-size="7.16345" font-family="Helvetica">4</text>
<text xml:space="preserve" x="38.0783" y="135.223" fill="black" font-size="10.4952" font-family="Helvetica">10</text>
<path d="M63.9961,120.255h -6.80315" fill="none" stroke="black"/>
<path d="M63.9961,114.137h -6.80315" fill="none" stroke="black"/>
<path d="M63.9961,109.796h -6.80315" fill="none" stroke="black"/>
<path d="M63.9961,106.429h -6.80315" fill="none" stroke="black"/>
<path d="M63.9961,103.678h -6.80315" fill="none" stroke="black"/>
<path d="M63.9961,101.352h -6.80315" fill="none" stroke="black"/>
<path d="M63.9961,99.3368h -6.80315" fill="none" stroke="black"/>
<path d="M63.9961,97.5596h -6.80315" fill="none" stroke="black"/>
<path d="M70.7992,95.9698h -13.6063" fill="none" stroke="black"/>
<text xml:space="preserve" x="49.0263" y="95.869" fill="black" font-size="7.16345" font-family="Helvetica">5</text>
<text xml:space="preserve" x="38.0783" y="100.603" fill="black" font-size="10.4952" font-family="Helvetica">10</text>
<path d="M63.9961,85.5107h -6.80315" fill="none" stroke="black"/>
<path d="M63.9961,79.3925h -6.80315" fill="none" stroke="black"/>
<path d="M63.9961,75.0516h -6.80315" fill="none" stroke="black"/>
<path d="M63.9961,71.6845h -6.80315" fill="none" stroke="black"/>
<path d="M63.9961,68.9334h -6.80315" fill="none" stroke="black"/>
<path d="M63.9961,66.6074h -6.80315" fill="none" stroke="black"/>
<path d="M63.9961,64.5925h -6.80315" fill="none" stroke="black"/>
<path d="M63.9961,62.8153h -6.80315" fill="none" stroke="black"/>
<path d="M70.7992,61.2254h -13.6063" fill="none" stroke="black"/>
<text xml:space="preserve" x="49.0263" y="60.9538" fill="black" font-size="7.16345" font-family="Helvetica">6</text>
<text xml:space="preserve" x="38.0783" y="65.688" fill="black" font-size="10.4952" font-family="Helvetica">10</text>
<path d="M63.9961,50.7663h -6.80315" fill="none" stroke="black"/>
<path d="M63.9961,44.6482h -6.80315" fill="none" stroke="black"/>
<path d="M63.9961,40.3073h -6.80315" fill="none" stroke="black"/>
<path d="M63.9961,36.9402h -6.80315" fill="none" stroke="black"/>
<path d="M63.9961,34.1891h -6.80315" fill="none" stroke="black"/>
<path d="M63.9961,31.8631h -6.80315" fill="none" stroke="black"/>
<g transform="rotate(-90,26.5385,191.442)">
<text xml:space="preserve" x="26.5385" y="191.442" fill="black" font-size="10.4952" font-family="Helvetica">Counts/Channel</text>
</g>
<text xml:space="preserve" x="404.097" y="60.9538" fill="black" font-size="14.7788" font-family="Helvetica" font-weight="bold"> = 2.4879 MeV</text>
<text xml:space="preserve" x="398.179" y="64.2086" fill="black" font-size="10.0192" font-family="Helvetica" font-weight="bold">p</text>
<text xml:space="preserve" x="389.006" y="60.9538" fill="black" font-size="14.7788" font-family="Helvetica" font-weight="bold">E</text>
<path d="M262.163,164.02v 26.0958" fill="none" stroke="black"/>
<path d="M264.454,190.116l -2.29122, 3.9685l -2.29122, -3.9685z" fill="black"/>
<path d="M264.454,190.116l -2.29122, 3.9685l -2.29122, -3.9685h 4.58243z" fill="none" stroke="black"/>
<text xml:space="preserve" x="266.803" y="161.853" fill="black" font-size="10.4952" font-family="Helvetica" font-weight="bold">_1 	1.369 MeV</text>
<text xml:space="preserve" x="260.293" y="161.853" fill="black" font-size="10.4952" font-family="Times">&#0945;</text>
<path d="M184.528,130.714v 30.7758" fill="none" stroke="black"/>
<path d="M186.819,161.49l -2.29122, 3.9685l -2.29122, -3.9685z" fill="black"/>
<path d="M186.819,161.49l -2.29122, 3.9685l -2.29122, -3.9685h 4.58243z" fill="none" stroke="black"/>
<text xml:space="preserve" x="172.117" y="127.825" fill="black" font-size="10.4952" font-family="Helvetica" font-weight="bold"># p_1 	0.844 MeV</text>
<path d="M210.104,148.881v 12.6088" fill="none" stroke="black"/>
<path d="M212.395,161.49l -2.29122, 3.9685l -2.29122, -3.9685z" fill="black"/>
<path d="M212.395,161.49l -2.29122, 3.9685l -2.29122, -3.9685h 4.58243z" fill="none" stroke="black"/>
<text xml:space="preserve" x="197.564" y="144.395" fill="black" font-size="10.4952" font-family="Helvetica" font-weight="bold"># p_2 	1.015 MeV</text>
<path d="M497.636,269.691h 13.0293" fill="none" stroke="black"/>
<path d="M504.151,259.232h 6.51463" fill="none" stroke="black"/>
<path d="M504.151,253.114h 6.51463" fill="none" stroke="black"/>
<path d="M504.151,248.773h 6.51463" fill="none" stroke="black"/>
<path d="M504.151,245.406h 6.51463" fill="none" stroke="black"/>
<path d="M504.151,242.655h 6.51463" fill="none" stroke="black"/>
<path d="M504.151,240.329h 6.51463" fill="none" stroke="black"/>
<path d="M504.151,238.314h 6.51463" fill="none" stroke="black"/>
<path d="M504.151,236.537h 6.51463" fill="none" stroke="black"/>
<path d="M497.636,234.947h 13.0293" fill="none" stroke="black"/>
<path d="M504.151,224.488h 6.51463" fill="none" stroke="black"/>
<path d="M504.151,218.37h 6.51463" fill="none" stroke="black"/>
<path d="M504.151,214.029h 6.51463" fill="none" stroke="black"/>
<path d="M504.151,210.662h 6.51463" fill="none" stroke="black"/>
<path d="M504.151,207.911h 6.51463" fill="none" stroke="black"/>
<path d="M504.151,205.585h 6.51463" fill="none" stroke="black"/>
<path d="M504.151,203.57h 6.51463" fill="none" stroke="black"/>
<path d="M504.151,201.793h 6.51463" fill="none" stroke="black"/>
<path d="M497.636,200.203h 13.0293" fill="none" stroke="black"/>
<path d="M504.151,189.744h 6.51463" fill="none" stroke="black"/>
<path d="M504.151,183.626h 6.51463" fill="none" stroke="black"/>
<path d="M504.151,179.285h 6.51463" fill="none" stroke="black"/>
<path d="M504.151,175.918h 6.51463" fill="none" stroke="black"/>
<path d="M504.151,173.166h 6.51463" fill="none" stroke="black"/>
<path d="M504.151,170.84h 6.51463" fill="none" stroke="black"/>
<path d="M504.151,168.826h 6.51463" fill="none" stroke="black"/>
<path d="M504.151,167.048h 6.51463" fill="none" stroke="black"/>
<path d="M497.636,165.458h 13.0293" fill="none" stroke="black"/>
<path d="M504.151,154.999h 6.51463" fill="none" stroke="black"/>
<path d="M504.151,148.881h 6.51463" fill="none" stroke="black"/>
<path d="M504.151,144.54h 6.51463" fill="none" stroke="black"/>
<path d="M504.151,141.173h 6.51463" fill="none" stroke="black"/>
<path d="M504.151,138.422h 6.51463" fill="none" stroke="black"/>
<path d="M504.151,136.096h 6.51463" fill="none" stroke="black"/>
<path d="M504.151,134.081h 6.51463" fill="none" stroke="black"/>
<path d="M504.151,132.304h 6.51463" fill="none" stroke="black"/>
<path d="M497.636,130.714h 13.0293" fill="none" stroke="black"/>
<path d="M504.151,120.255h 6.51463" fill="none" stroke="black"/>
<path d="M504.151,114.137h 6.51463" fill="none" stroke="black"/>
<path d="M504.151,109.796h 6.51463" fill="none" stroke="black"/>
<path d="M504.151,106.429h 6.51463" fill="none" stroke="black"/>
<path d="M504.151,103.678h 6.51463" fill="none" stroke="black"/>
<path d="M504.151,101.352h 6.51463" fill="none" stroke="black"/>
<path d="M504.151,99.3368h 6.51463" fill="none" stroke="black"/>
<path d="M504.151,97.5596h 6.51463" fill="none" stroke="black"/>
<path d="M497.636,95.9698h 13.0293" fill="none" stroke="black"/>
<path d="M504.151,85.5107h 6.51463" fill="none" stroke="black"/>
<path d="M504.151,79.3925h 6.51463" fill="none" stroke="black"/>
<path d="M504.151,75.0516h 6.51463" fill="none" stroke="black"/>
<path d="M504.151,71.6845h 6.51463" fill="none" stroke="black"/>
<path d="M504.151,68.9334h 6.51463" fill="none" stroke="black"/>
<path d="M504.151,66.6074h 6.51463" fill="none" stroke="black"/>
<path d="M504.151,64.5925h 6.51463" fill="none" stroke="black"/>
<path d="M504.151,62.8153h 6.51463" fill="none" stroke="black"/>
<path d="M497.636,61.2254h 13.0293" fill="none" stroke="black"/>
<path d="M504.151,50.7663h 6.51463" fill="none" stroke="black"/>
<path d="M504.151,44.6482h 6.51463" fill="none" stroke="black"/>
<path d="M504.151,40.3073h 6.51463" fill="none" stroke="black"/>
<path d="M504.151,36.9402h 6.51463" fill="none" stroke="black"/>
<path d="M504.151,34.1891h 6.51463" fill="none" stroke="black"/>
<path d="M504.151,31.8631h 6.51463" fill="none" stroke="black"/>
<path d="M57.1929,38.6994v -7.46952" fill="none" stroke="black"/>
<path d="M75.3318,38.6994v -7.46952" fill="none" stroke="black"/>
<path d="M93.4707,38.6994v -7.46952" fill="none" stroke="black"/>
<path d="M111.61,38.6994v -7.46952" fill="none" stroke="black"/>
<path d="M129.749,38.6994v -7.46952" fill="none" stroke="black"/>
<path d="M147.887,38.6994v -7.46952" fill="none" stroke="black"/>
<path d="M166.026,38.6994v -7.46952" fill="none" stroke="black"/>
<path d="M184.165,38.6994v -7.46952" fill="none" stroke="black"/>
<path d="M202.304,38.6994v -7.46952" fill="none" stroke="black"/>
<path d="M220.443,38.6994v -7.46952" fill="none" stroke="black"/>
<path d="M238.582,38.6994v -7.46952" fill="none" stroke="black"/>
<path d="M256.721,38.6994v -7.46952" fill="none" stroke="black"/>
<path d="M274.86,38.6994v -7.46952" fill="none" stroke="black"/>
<path d="M292.999,38.6994v -7.46952" fill="none" stroke="black"/>
<path d="M311.138,38.6994v -7.46952" fill="none" stroke="black"/>
<path d="M329.277,38.6994v -7.46952" fill="none" stroke="black"/>
<path d="M347.415,38.6994v -7.46952" fill="none" stroke="black"/>
<path d="M365.554,38.6994v -7.46952" fill="none" stroke="black"/>
<path d="M383.693,38.6994v -7.46952" fill="none" stroke="black"/>
<path d="M401.832,38.6994v -7.46952" fill="none" stroke="black"/>
<path d="M419.971,38.6994v -7.46952" fill="none" stroke="black"/>
<path d="M438.11,38.6994v -7.46952" fill="none" stroke="black"/>
<path d="M456.249,38.6994v -7.46952" fill="none" stroke="black"/>
<path d="M474.388,38.6994v -7.46952" fill="none" stroke="black"/>
<path d="M492.527,38.6994v -7.46952" fill="none" stroke="black"/>
<path d="M510.666,38.6994v -7.46952" fill="none" stroke="black"/></svg>
