<?xml version="1.0" standalone="no"?>
<svg width="567.429" height="311.778" viewBox="0 0 567.429 311.778" xmlns="http://www.w3.org/2000/svg" shape-rendering="crispEdges">
<title>
Yields/P1/det-4/run_0099_Fit.svg
</title>
<desc>
Creator: ROOT Version 6.12/06
CreationDate: Mon Apr 15 10:29:01 2019</desc>
<defs>
</defs>
<rect x="0.5" y="0" width="566.929" height="311.278" fill="white"/>
<rect x="57.1929" y="31.1278" width="453.543" height="249.023" fill="white"/>
<rect x="57.1929" y="31.1278" width="453.543" height="249.023" fill="none" stroke="black"/>
<rect x="57.1929" y="31.1278" width="453.543" height="249.023" fill="white"/>
<rect x="57.1929" y="31.1278" width="453.543" height="249.023" fill="none" stroke="black"/>
<path d="M57.1929,40.7196h 0.181345v 239.431h 9.61127v -10.4033h 0.181345v 10.4033h 14.3262v -10.4033h 0.181345v 10.4033h 2.17614v -10.4033h 0.36269v 10.4033h 2.17614v -10.4033h 0.181345v 10.4033h 0.725379v -10.4033h 0.181345v 10.4033h 0.36269v
 -10.4033h 0.181345v 10.4033h 0.36269v -20.8065h 0.181345v 10.4033h 0.181345v 10.4033h 0.36269v -20.8065h 0.181345v 10.4033h 0.181345v -20.8065h 0.181345v -15.1828h 0.181345v -17.3719h 0.181345v -10.8261h 0.181345v -7.02808h 0.181345v -11.2285h
 0.181345v -6.06491h 0.181345v -3.93141h 0.181345v -2.61428h 0.181345v -0.159105h 0.181345v -2.78469h 0.181345v -0.934367h 0.181345v -0.664479h 0.181345v -0.465424h 0.181345v -0.889666h 0.181345v -0.975388h 0.181345v -0.167697h 0.181345v -0.620689h
 0.181345v -0.0797914h 0.181345v -0.638766h 0.181345v -0.554001h 0.181345v 0.252004h 0.181345v -0.427376h 0.181345v 0.116686h 0.181345v 0.16194h 0.181345v -0.523613h 0.181345v 0.143625h 0.181345v -0.663399h 0.181345v 0.208554h 0.181345v -0.180914h
 0.181345v -0.0138266h 0.181345v 0.42044h 0.181345v -0.734985h 0.181345v 0.300731h 0.181345v -0.354768h 0.181345v -0.267304h 0.181345v -0.533526h 0.181345v 0.546779h 0.181345v 0.0797631h 0.181345v -0.677592h 0.181345v -0.451802h 0.181345v 0.943935h
 0.181345v -1.11603h 0.181345v 0.739002h 0.181345v -0.127843h 0.181345v 0.153543h 0.181345v 0.0128665h 0.181345v 0.181298h 0.181345v 0.289397h 0.181345v -0.328432h 0.36269v 0.368331h 0.181345v 0.377598h 0.181345v -0.628519h 0.181345v 0.23761h
 0.181345v -0.289905h 0.181345v -2.10332h 0.181345v -0.643964h 0.181345v -2.89676h 0.181345v -2.22759h 0.181345v -2.98792h 0.181345v -2.92408h 0.181345v -2.6441h 0.181345v -3.27202h 0.181345v -3.0819h 0.181345v -2.15958h 0.181345v -1.75153h 0.181345v
 -1.14137h 0.181345v -0.645744h 0.181345v -0.374899h 0.181345v 0.813707h 0.181345v 1.29989h 0.181345v 1.43048h 0.181345v 2.25411h 0.181345v 2.97534h 0.181345v 3.55771h 0.181345v 3.2809h 0.181345v 4.54448h 0.181345v 4.56095h 0.181345v 3.92983h
 0.181345v 3.1065h 0.181345v 2.54762h 0.181345v 2.32925h 0.181345v 2.41988h 0.181345v 0.604107h 0.181345v 0.854722h 0.181345v -0.934911h 0.181345v 1.60208h 0.181345v 0.329875h 0.181345v 0.244547h 0.181345v -0.692602h 0.181345v -0.377781h 0.181345v
 -0.0572853h 0.181345v -0.142264h 0.181345v -0.280545h 0.181345v 1.61224h 0.181345v 0.439617h 0.181345v 1.22792h 0.181345v -1.35484h 0.181345v -2.06326h 0.181345v 1.6273h 0.181345v -0.719118h 0.181345v 1.37791h 0.181345v 0.291441h 0.181345v
 -0.857875h 0.181345v -0.275397h 0.181345v 0.337289h 0.181345v -0.337289h 0.181345v 0.244547h 0.181345v 0.597285h 0.181345v -0.348687h 0.181345v 0.316651h 0.181345v 0.323476h 0.181345v 0.702878h 0.181345v -1.09022h 0.181345v 1.72005h 0.181345v
 0.0716408h 0.181345v -0.178465h 0.181345v 0.250449h 0.181345v 1.96296h 0.181345v -1.22346h 0.181345v -0.411224h 0.181345v 0.601934h 0.181345v -0.152762h 0.181345v -0.0758018h 0.181345v 1.13846h 0.181345v -0.871464h 0.181345v 0.668914h 0.181345v
 -0.239506h 0.181345v 0.81368h 0.181345v -1.12719h 0.181345v 0.674217h 0.181345v 0.0813483h 0.181345v 0.881885h 0.181345v -0.593643h 0.181345v 0.723965h 0.181345v -1.96044h 0.181345v 2.85944h 0.181345v -1.66448h 0.36269v 0.678476h 0.181345v
 -0.172516h 0.181345v 1.67692h 0.181345v -2.09973h 0.181345v 1.03549h 0.181345v 0.545832h 0.181345v -0.679244h 0.181345v 1.10205h 0.181345v 0.732278h 0.181345v -0.34618h 0.181345v -1.66421h 0.181345v 1.13585h 0.181345v 0.285889h 0.181345v -0.841831h
 0.181345v 0.0912387h 0.181345v -1.76777h 0.181345v 1.4061h 0.181345v 1.01636h 0.181345v 1.61323h 0.181345v -2.40457h 0.181345v 1.37617h 0.181345v 1.0284h 0.181345v -1.89731h 0.181345v 0.284085h 0.181345v 0.584829h 0.181345v -1.37617h 0.181345v
 0.136651h 0.181345v 0.895606h 0.181345v 0.695893h 0.181345v -0.451047h 0.181345v -0.816676h 0.181345v 0.235621h 0.181345v 0.38486h 0.181345v 0.146905h 0.181345v -1.45284h 0.181345v -0.526676h 0.181345v 0.61628h 0.181345v -1.08335h 0.181345v
 -1.47223h 0.181345v 1.76777h 0.181345v -1.91862h 0.181345v -0.6965h 0.181345v -1.75583h 0.181345v 0.551734h 0.181345v 0.199676h 0.181345v -0.909898h 0.181345v -0.708235h 0.181345v 0.77143h 0.181345v 0.614005h 0.181345v 0.537282h 0.181345v
 -0.0341496h 0.181345v 1.39301h 0.181345v 0.0750438h 0.181345v 2.31361h 0.181345v 0.951097h 0.181345v -1.46869h 0.181345v 1.84748h 0.181345v 0.193041h 0.181345v 0.952459h 0.181345v 0.366724h 0.181345v -1.02488h 0.181345v 1.50995h 0.181345v 0.444735h
 0.181345v 0.227409h 0.181345v 0.643748h 0.181345v -1.95922h 0.181345v 0.64333h 0.181345v 2.49731h 0.181345v -3.60567h 0.181345v 0.256566h 0.181345v 1.69678h 0.181345v -0.512682h 0.181345v -0.657421h 0.181345v 2.31361h 0.181345v -1.1435h 0.181345v
 -0.56858h 0.181345v -0.0556911h 0.181345v -1.53121h 0.181345v 5.51908h 0.181345v -5.06037h 0.181345v 1.98936h 0.181345v -2.09251h 0.181345v 0.20702h 0.181345v 2.67401h 0.181345v -0.964748h 0.181345v -0.629029h 0.181345v 1.84497h 0.181345v -1.50514h
 0.181345v 1.63233h 0.181345v 0.192834h 0.181345v -1.00095h 0.181345v -2.24428h 0.181345v 2.86201h 0.181345v -2.49271h 0.181345v 0.993587h 0.181345v -2.32176h 0.181345v 1.01107h 0.181345v 1.25373h 0.181345v 0.0569592h 0.181345v -1.2583h 0.181345v
 -1.11227h 0.181345v 0.196195h 0.181345v -1.76777h 0.181345v 0.81148h 0.181345v -0.411224h 0.181345v 2.49498h 0.181345v -2.71866h 0.181345v 2.87919h 0.181345v -1.38641h 0.181345v 0.197486h 0.181345v 0.764616h 0.181345v -0.104228h 0.181345v 0.156614h
 0.181345v -0.156614h 0.181345v 0.690789h 0.181345v 1.66616h 0.181345v -0.300786h 0.181345v -0.698206h 0.181345v 1.9393h 0.181345v -1.59426h 0.181345v -0.345043h 0.181345v 1.68274h 0.181345v -2.07551h 0.181345v 0.0554852h 0.181345v 2.14776h 0.181345v
 0.389859h 0.181345v -0.832253h 0.181345v 0.0624064h 0.181345v -0.552531h 0.181345v 1.25669h 0.181345v -1.55509h 0.181345v 0.788518h 0.181345v -1.19655h 0.181345v -0.453128h 0.181345v 0.979804h 0.181345v -0.584071h 0.181345v 2.75935h 0.181345v
 -1.443h 0.181345v 1.72094h 0.181345v -3.37713h 0.181345v 1.16405h 0.181345v -0.0603974h 0.181345v -0.0601553h 0.181345v -0.760839h 0.181345v 1.43619h 0.181345v -0.494159h 0.181345v -0.121039h 0.181345v -0.0601553h 0.181345v -1.43048h 0.181345v
 0.899668h 0.181345v -0.844992h 0.181345v 4.57557h 0.181345v -3.07921h 0.181345v -1.21995h 0.181345v 1.03948h 0.181345v 0.486155h 0.181345v -1.07251h 0.181345v -1.05465h 0.181345v 5.6627h 0.181345v -4.259h 0.181345v -0.117256h 0.181345v 0.65655h
 0.181345v 1.4061h 0.181345v -0.396729h 0.181345v -1.72421h 0.181345v -0.115898h 0.181345v 0.830734h 0.181345v 0.944256h 0.181345v -1.18634h 0.181345v 0.675353h 0.181345v -1.5499h 0.181345v 1.67602h 0.181345v -0.559396h 0.181345v -0.301997h 0.181345v
 -0.178324h 0.181345v 0.541456h 0.181345v 0.883121h 0.181345v -1.30593h 0.181345v -0.698206h 0.181345v -1.04307h 0.181345v 2.91782h 0.181345v -0.630711h 0.181345v 0.502431h 0.181345v -1.28463h 0.181345v -0.743441h 0.181345v -0.919741h 0.181345v
 1.7809h 0.181345v -0.292577h 0.181345v -0.0578372h 0.181345v 1.8401h 0.181345v -1.89772h 0.181345v 2.3616h 0.181345v -1.89437h 0.181345v -1.99672h 0.181345v 3.04069h 0.181345v -1.39576h 0.181345v 0.71201h 0.181345v -0.121039h 0.181345v 1.92684h
 0.181345v -1.86644h 0.181345v 1.39422h 0.181345v -1.15017h 0.181345v 0.500337h 0.181345v 1.19074h 0.181345v -0.0686899h 0.181345v -1.49886h 0.181345v 2.20033h 0.181345v -1.63151h 0.181345v 1.48857h 0.181345v -1.42402h 0.181345v -1.71016h 0.181345v
 2.78267h 0.181345v 0.711447h 0.181345v -3.02505h 0.181345v 1.50213h 0.181345v 1.96657h 0.181345v -2.35643h 0.181345v 0.72266h 0.181345v 0.973128h 0.181345v 0.0719844h 0.181345v -1.76777h 0.181345v 2.73641h 0.181345v -1.25453h 0.181345v -1.28822h
 0.181345v 1.43048h 0.181345v 1.90238h 0.181345v -0.241432h 0.181345v -0.158824h 0.181345v -1.57343h 0.181345v 0.87881h 0.181345v -1.16067h 0.181345v 3.9727h 0.181345v -3.25786h 0.181345v 0.750593h 0.181345v 1.79666h 0.181345v -0.0865059h 0.181345v
 0.0865059h 0.181345v -0.0865059h 0.181345v -0.341122h 0.181345v 0.690178h 0.36269v -1.51053h 0.181345v 0.652656h 0.181345v 0.337289h 0.181345v 0.345043h 0.181345v -1.41461h 0.181345v 0.815892h 0.181345v 0.951881h 0.181345v 0.92107h 0.181345v
 -1.53376h 0.181345v 0.347038h 0.181345v 0.81148h 0.181345v 0.760098h 0.181345v -0.38486h 0.181345v -0.741322h 0.181345v -0.179747h 0.181345v -0.17762h 0.181345v -0.175543h 0.181345v 1.95436h 0.181345v -0.197486h 0.181345v -2.60505h 0.181345v
 0.503133h 0.181345v -1.46146h 0.181345v 3.96098h 0.181345v -0.689046h 0.181345v 0.994319h 0.181345v -0.702878h 0.181345v -0.482637h 0.181345v -1.01014h 0.181345v 1.89038h 0.181345v -0.784949h 0.181345v 1.09022h 0.181345v -2.88983h 0.181345v 3.09685h
 0.181345v -0.909898h 0.181345v 0.0984182h 0.181345v -0.769847h 0.181345v 0.868915h 0.181345v -0.0990678h 0.181345v -0.769847h 0.181345v -0.0935126h 0.181345v 2.09765h 0.181345v -1.13522h 0.181345v -0.488927h 0.181345v -0.566434h 0.181345v 0.760098h
 0.181345v -0.289566h 0.181345v -0.65469h 0.181345v 2.92057h 0.181345v -0.86405h 0.181345v 0.105325h 0.181345v -2.78917h 0.181345v 2.06696h 0.181345v -1.16255h 0.181345v 0.282304h 0.181345v -0.559396h 0.181345v -1.14492h 0.181345v 1.23671h 0.181345v
 0.467599h 0.181345v 0.880243h 0.181345v -0.689046h 0.181345v 0.193664h 0.181345v 3.49601h 0.181345v -3.88087h 0.181345v 1.70852h 0.181345v -2.08376h 0.181345v 0.0929336h 0.181345v 0.0935126h 0.181345v -0.821351h 0.181345v 0.26882h 0.181345v 3.32651h
 0.181345v -2.00414h 0.181345v -0.956293h 0.181345v 2.51569h 0.181345v 0.22072h 0.181345v -2.73641h 0.181345v 0.0929336h 0.181345v 1.16255h 0.181345v -1.71171h 0.181345v 1.61131h 0.181345v -1.33925h 0.181345v -0.714836h 0.181345v 1.36953h 0.181345v
 0.987772h 0.181345v -0.502011h 0.181345v -1.5912h 0.181345v 1.10544h 0.181345v -1.45653h 0.181345v 0.0870073h 0.181345v -3.27913h 0.181345v 2.43095h 0.181345v -1.03549h 0.181345v 0.311073h 0.181345v 0.23761h 0.181345v -1.22588h 0.181345v -0.788229h
 0.181345v -0.138971h 0.181345v -1.06774h 0.181345v -1.47142h 0.181345v 1.53597h 0.181345v -1.9393h 0.181345v 0.638766h 0.181345v 0.98051h 0.181345v -0.620283h 0.181345v -0.360227h 0.181345v 0.482249h 0.181345v 0.689457h 0.181345v -1.46543h 0.181345v
 1.21104h 0.181345v 0.909898h 0.181345v 0.0671532h 0.181345v -1.2272h 0.181345v 0.698206h 0.181345v 1.00768h 0.181345v 0.209916h 0.181345v -0.889159h 0.181345v 2.13755h 0.181345v -2.00414h 0.181345v 0.202368h 0.181345v -1.97014h 0.181345v 1.04826h
 0.181345v 0.989945h 0.181345v -0.203282h 0.181345v -0.593829h 0.181345v -0.633373h 0.181345v -1.07678h 0.181345v 0.232698h 0.181345v -1.18329h 0.181345v -0.995708h 0.181345v -1.72263h 0.181345v -0.0451391h 0.181345v -2.86358h 0.181345v -0.440385h
 0.181345v -1.8998h 0.181345v -0.501382h 0.181345v -3.40447h 0.181345v -0.435768h 0.181345v -0.307034h 0.181345v -2.68958h 0.181345v -0.81765h 0.181345v -0.616387h 0.181345v -0.846029h 0.181345v 0.581939h 0.181345v -0.565141h 0.181345v -1.75843h
 0.181345v 0.135147h 0.181345v -0.135147h 0.181345v -0.0149415h 0.181345v 0.656307h 0.181345v 1.08349h 0.181345v 0.15169h 0.181345v 1.18018h 0.181345v 1.1815h 0.181345v 1.32577h 0.181345v 2.82765h 0.181345v -0.438054h 0.181345v 2.33054h 0.181345v
 1.46315h 0.181345v 2.25378h 0.181345v 1.72982h 0.181345v 1.61928h 0.181345v 1.5497h 0.181345v 0.979177h 0.181345v 1.22947h 0.181345v 2.66338h 0.181345v 1.77688h 0.181345v -1.1824h 0.181345v 1.59818h 0.181345v 0.514635h 0.181345v 2.15447h 0.181345v
 1.81822h 0.181345v -0.225699h 0.181345v -1.28725h 0.181345v 2.57283h 0.181345v -0.361674h 0.181345v 0.484194h 0.181345v -2.69535h 0.181345v -0.204203h 0.181345v 1.37986h 0.181345v 0.916848h 0.181345v 0.358791h 0.181345v -0.938351h 0.181345v
 -0.113274h 0.181345v 1.29567h 0.181345v -1.74041h 0.181345v 2.11409h 0.181345v -0.125597h 0.181345v -0.370605h 0.181345v 1.8136h 0.181345v 0.418875h 0.181345v -3.51806h 0.181345v 0.454845h 0.181345v 1.45359h 0.181345v -2.3499h 0.181345v 2.60647h
 0.181345v -0.256566h 0.181345v -0.744387h 0.181345v -0.358791h 0.181345v 0.850925h 0.181345v 0.902083h 0.181345v -1.02664h 0.181345v -1.19179h 0.181345v -1.52393h 0.181345v 1.87164h 0.181345v 1.22089h 0.181345v -1.10318h 0.181345v 1.75301h 0.181345v
 0.959789h 0.181345v -3.51806h 0.181345v 2.42603h 0.181345v -0.389859h 0.181345v -3.82881h 0.181345v 4.08759h 0.181345v 0.667164h 0.181345v -1.67653h 0.36269v -1.39717h 0.181345v 3.0737h 0.181345v -3.0737h 0.181345v 3.48872h 0.181345v 0.57183h
 0.181345v -0.849777h 0.181345v -1.56755h 0.181345v 3.31812h 0.181345v -2.5548h 0.181345v -2.18252h 0.181345v 0.575117h 0.181345v 3.1164h 0.181345v 0.89187h 0.181345v -0.303217h 0.181345v -3.22855h 0.181345v 0.492133h 0.181345v -0.612686h 0.181345v
 3.3491h 0.36269v -1.01547h 0.181345v -1.08218h 0.181345v 2.5548h 0.181345v -0.306311h 0.181345v -1.16631h 0.181345v 0.426817h 0.181345v -2.76045h 0.181345v 0.364602h 0.181345v 2.68729h 0.181345v 1.87854h 0.181345v -0.81148h 0.181345v -3.25401h
 0.181345v 1.89551h 0.36269v -1.76777h 0.181345v 1.06301h 0.181345v 1.9061h 0.181345v -2.179h 0.181345v -1.66224h 0.181345v 1.93513h 0.181345v 0.996205h 0.181345v -0.57733h 0.181345v 1.02538h 0.181345v -2.50727h 0.181345v 0.655507h 0.181345v
 0.685449h 0.181345v -2.09155h 0.181345v -0.121529h 0.181345v 1.52763h 0.181345v -2.35184h 0.181345v 0.11501h 0.181345v -1.00468h 0.181345v -1.92293h 0.181345v -2.03972h 0.181345v -2.15881h 0.181345v 0.216997h 0.181345v -1.97679h 0.181345v -1.91606h
 0.181345v -0.333541h 0.181345v -2.93665h 0.181345v -1.78785h 0.181345v -2.37082h 0.181345v 0.241803h 0.181345v -1.67852h 0.181345v -2.2512h 0.181345v -1.25895h 0.181345v -0.0246247h 0.181345v -1.27309h 0.181345v -1.36046h 0.181345v -1.03687h
 0.181345v -0.511388h 0.181345v 1.56892h 0.181345v -2.349h 0.181345v -0.0353147h 0.181345v -0.0879248h 0.181345v 0.626573h 0.181345v 0.884783h 0.181345v 1.1063h 0.181345v -0.0832664h 0.181345v -0.470019h 0.181345v 1.77029h 0.181345v 0.93397h
 0.181345v 0.415239h 0.181345v 2.18209h 0.181345v 1.03754h 0.181345v 1.99975h 0.181345v 2.10466h 0.181345v 2.02721h 0.181345v 1.20134h 0.181345v 2.38046h 0.181345v 2.2065h 0.181345v 2.75h 0.181345v -0.0813483h 0.181345v 2.46308h 0.181345v 1.82764h
 0.181345v 2.20602h 0.181345v -0.124554h 0.181345v 6.02362h 0.181345v -3.75131h 0.181345v 2.16998h 0.181345v 3.14208h 0.181345v 3.45225h 0.181345v 1.93038h 0.181345v 0.297212h 0.181345v -3.46869h 0.181345v 1.50213h 0.36269v 1.09203h 0.181345v
 -0.280545h 0.36269v -2.07346h 0.181345v -0.938351h 0.181345v 0.698206h 0.181345v 2.59415h 0.181345v 0.874542h 0.181345v -0.297212h 0.181345v 0.600429h 0.36269v 1.27811h 0.181345v -5.97392h 0.181345v -0.441465h 0.181345v 6.41539h 0.181345v -3.28225h
 0.181345v -1.52763h 0.181345v 3.53176h 0.181345v -1.4583h 0.181345v 2.40654h 0.181345v 0.329875h 0.181345v -2.73641h 0.181345v 2.73641h 0.181345v -1.58133h 0.181345v -2.73641h 0.181345v -1.20134h 0.181345v 2.50727h 0.181345v -0.797111h 0.181345v
 1.93038h 0.181345v -1.93038h 0.36269v -1.9393h 0.181345v 2.46598h 0.181345v 3.96458h 0.181345v -3.1382h 0.181345v -0.555942h 0.181345v 1.13327h 0.181345v -2.18695h 0.181345v 2.78738h 0.181345v -0.89187h 0.181345v -1.63894h 0.181345v 0.261028h
 0.181345v -0.517594h 0.181345v 2.18695h 0.181345v -3.17148h 0.181345v 1.2411h 0.181345v 3.47905h 0.181345v -4.72014h 0.181345v 6.08551h 0.181345v -4.31774h 0.181345v -3.3491h 0.181345v 5.35324h 0.181345v -2.78738h 0.181345v -0.252253h 0.181345v
 -2.5265h 0.181345v 3.29635h 0.181345v 0.265648h 0.181345v -1.52763h 0.181345v 1.26198h 0.36269v -1.01793h 0.181345v 1.55401h 0.181345v -3.18447h 0.181345v 5.8664h 0.181345v -1.54866h 0.181345v 0.297212h 0.181345v -2.9845h 0.181345v 1.82941h
 0.181345v -0.81148h 0.181345v -1.01793h 0.181345v -3.29981h 0.181345v 10.0134h 0.181345v -4.60363h 0.181345v -4.80531h 0.181345v 1.7421h 0.181345v 2.23683h 0.181345v -1.03549h 0.181345v 3.66508h 0.181345v -2.35915h 0.181345v -0.270435h 0.181345v
 1.70092h 0.181345v -2.48416h 0.181345v 0.517594h 0.36269v -3.50626h 0.181345v 7.39144h 0.181345v -4.65503h 0.181345v 2.73641h 0.181345v -0.588653h 0.36269v 1.8401h 0.181345v -3.98787h 0.181345v 3.98787h 0.181345v -4.23595h 0.181345v 3.59718h
 0.181345v -0.612686h 0.181345v -0.588653h 0.181345v 0.588653h 0.181345v -1.43048h 0.181345v 0.275397h 0.181345v 2.40654h 0.181345v -2.95237h 0.181345v 4.31774h 0.181345v -1.36537h 0.181345v -1.8401h 0.181345v 3.56715h 0.181345v -1.72704h 0.181345v
 -1.8401h 0.181345v 0.588653h 0.181345v -1.43048h 0.181345v 0.841831h 0.181345v 0.89187h 0.181345v -3.03963h 0.181345v 1.86187h 0.181345v -0.280545h 0.181345v 0.566434h 0.181345v -0.841831h 0.181345v 0.841831h 0.181345v -2.14776h 0.181345v 1.30593h
 0.181345v 3.69414h 0.181345v -5.24816h 0.181345v -0.484194h 0.181345v 4.72014h 0.181345v 0.667164h 0.181345v 1.05988h 0.181345v -2.67528h 0.181345v -1.4583h 0.181345v 0.280545h 0.181345v -0.826377h 0.181345v 3.61953h 0.181345v -3.88518h 0.181345v
 1.37791h 0.181345v 1.51732h 0.181345v 2.04982h 0.181345v -5.20609h 0.181345v 0.526676h 0.181345v -2.23683h 0.181345v 1.20134h 0.181345v 1.03549h 0.181345v 0.545832h 0.181345v -0.275397h 0.181345v 4.40898h 0.181345v -1.39717h 0.181345v 3.3491h
 0.181345v -1.58133h 0.181345v -1.08544h 0.181345v -1.65097h 0.181345v 3.50626h 0.181345v 3.05576h 0.181345v -3.05576h 0.181345v 1.66935h 0.181345v -1.66935h 0.181345v 0.81148h 0.181345v 6.72428h 0.181345v -10.0734h 0.181345v 5.11687h 0.181345v
 -3.3491h 0.36269v 1.1701h 0.181345v 2.179h 0.181345v -2.57925h 0.181345v 2.57925h 0.36269v -1.34496h 0.181345v 6.96863h 0.181345v -3.0737h 0.181345v -3.89493h 0.181345v 0.435066h 0.181345v 2.91403h 0.181345v -2.46598h 0.181345v -2.88726h 0.181345v
 1.58133h 0.181345v 6.08551h 0.181345v -2.84028h 0.181345v -1.47746h 0.181345v 3.1164h 0.181345v -1.63894h 0.181345v 1.63894h 0.181345v -1.11227h 0.181345v 0.545832h 0.181345v -6.98451h 0.181345v 6.43868h 0.181345v 2.31361h 0.181345v -2.31361h
 0.181345v 1.70092h 0.181345v -0.588653h 0.181345v 3.20547h 0.181345v 2.31361h 0.36269v -3.67898h 0.181345v -2.40654h 0.181345v 4.50419h 0.181345v 5.35324h 0.181345v -11.9309h 0.181345v 3.22855h 0.181345v 4.93043h 0.181345v -6.63135h 0.181345v
 6.63135h 0.181345v 1.76777h 0.36269v -8.39912h 0.181345v 5.81987h 0.181345v 6.89699h 0.181345v -5.22764h 0.181345v 1.87854h 0.181345v -7.05415h 0.181345v -2.84028h 0.181345v 2.84028h 0.181345v -1.20134h 0.181345v 0.588653h 0.181345v 0.612686h
 0.181345v 8.08965h 0.181345v 3.61953h 0.181345v -4.65503h 0.181345v -1.87854h 0.181345v -3.17148h 0.181345v 2.31361h 0.181345v -3.01181h 0.181345v 2.20033h 0.181345v 0.81148h 0.181345v 0.857875h 0.181345v 2.91403h 0.181345v 6.63135h 0.181345v
 -7.66684h 0.181345v -4.31774h 0.181345v 5.35324h 0.181345v -1.03549h 0.181345v 4.65503h 0.181345v -1.30593h 0.181345v -7.66684h 0.181345v 5.35324h 0.36269v 3.61953h 0.36269v -5.62367h 0.181345v 0.968641h 0.181345v -7.05415h 0.181345v 8.08965h
 0.181345v -4.58339h 0.181345v 6.89699h 0.181345v -4.31774h 0.181345v -2.57925h 0.181345v 3.54789h 0.181345v -7.05415h 0.181345v 7.05415h 0.181345v 2.14776h 0.181345v -5.69565h 0.181345v 1.66935h 0.181345v -5.17562h 0.181345v -1.20134h 0.181345v
 -4.0263h 0.181345v 0.909898h 0.181345v -1.76777h 0.181345v 5.47283h 0.181345v -1.70092h 0.181345v 6.63135h 0.181345v -4.31774h 0.181345v 6.08551h 0.181345v -8.92579h 0.181345v 2.84028h 0.181345v 0.638766h 0.181345v 2.8675h 0.181345v -10.003h
 0.181345v 2.179h 0.181345v -1.76777h 0.181345v 1.76777h 0.181345v 4.95651h 0.181345v 0.667164h 0.181345v -2.50727h 0.181345v -4.46137h 0.181345v -0.834033h 0.181345v 5.88405h 0.181345v 1.91862h 0.181345v -2.50727h 0.181345v 9.29099h 0.181345v
 -4.58339h 0.181345v -2.8675h 0.181345v 4.53685h 0.181345v -7.48922h 0.181345v 5.05002h 0.181345v 1.58133h 0.181345v -1.58133h 0.181345v -0.732278h 0.181345v -0.698206h 0.181345v 3.01181h 0.181345v 7.39144h 0.181345v -14.5495h 0.181345v 6.34654h
 0.181345v -3.50626h 0.181345v 0.638766h 0.181345v -1.25145h 0.181345v -3.70505h 0.181345v -3.3491h 0.181345v 4.82656h 0.181345v -4.05671h 0.181345v -4.11895h 0.181345v -1.70092h 0.181345v 1.70092h 0.181345v -3.93775h 0.181345v -1.32516h 0.181345v
 0.647959h 0.181345v -1.0649h 0.181345v -0.994319h 0.181345v -0.932519h 0.181345v -5.65754h 0.181345v 2.86097h 0.36269v -2.09765h 0.181345v -1.72421h 0.181345v -4.74782h 0.181345v 1.89551h 0.181345v 1.20134h 0.181345v -1.29724h 0.181345v -0.745929h
 0.181345v -0.270435h 0.181345v -0.353163h 0.181345v -1.5726h 0.181345v -2.72331h 0.181345v 2.64494h 0.181345v -1.27332h 0.181345v 0.735869h 0.181345v -0.0752319h 0.181345v -0.660637h 0.181345v 0.290033h 0.181345v -0.922813h 0.181345v -0.0686899h
 0.181345v 0.20702h 0.181345v -0.343464h 0.181345v -0.135215h 0.181345v -1.2272h 0.181345v -1.1344h 0.181345v -0.619585h 0.181345v -0.273391h 0.181345v 1.24203h 0.181345v -1.66935h 0.181345v 0.158824h 0.181345v 1.0469h 0.181345v -0.226551h 0.181345v
 -0.443094h 0.181345v 0.0546766h 0.181345v -1.00625h 0.181345v 1.28266h 0.181345v -1.83581h 0.181345v -0.0984182h 0.181345v 0.702878h 0.181345v -1.92684h 0.181345v 3.32651h 0.181345v 0.342419h 0.181345v -0.566434h 0.36269v 0.624271h 0.181345v
 0.957056h 0.181345v 2.19058h 0.181345v 0.215957h 0.181345v 1.60552h 0.181345v 1.35001h 0.181345v 0.63109h 0.181345v -0.45347h 0.181345v 2.31361h 0.181345v 0.209916h 0.181345v 1.67557h 0.181345v 5.33636h 0.181345v 0.867798h 0.181345v -0.17762h
 0.181345v 2.49123h 0.181345v -0.20702h 0.181345v 2.21116h 0.181345v 2.03821h 0.181345v 3.01181h 0.181345v -4.06549h 0.181345v 7.41459h 0.181345v 6.72428h 0.181345v -3.47905h 0.181345v 3.47905h 0.181345v -4.48h 0.181345v 8.15897h 0.181345v 4.88417h
 0.36269v -4.88417h 0.181345v 10.4033h 0.181345v -8.63548h 0.181345v 4.31774h 0.181345v 6.08551h 0.36269v -8.39912h 0.36269v 10.4033h 0.181345v -2.00414h 0.181345v 10.4033h 0.181345v -13.7524h 0.181345v 7.66684h 0.181345v -2.31361h 0.181345v
 -3.77191h 0.181345v 16.4888h 0.181345v -14.721h 0.181345v -1.76777h 0.181345v 22.5743h 0.181345v -22.5743h 0.181345v 3.77191h 0.181345v -2.00414h 0.181345v 10.4033h 0.181345v 4.31774h 0.181345v 6.08551h 0.181345v -13.7524h 0.181345v -7.05415h
 0.181345v 4.31774h 0.181345v 16.4888h 0.181345v -20.8065h 0.181345v 4.31774h 0.181345v 2.73641h 0.544034v 7.66684h 0.181345v -14.721h 0.181345v 10.4033h 0.181345v 10.4033h 0.181345v -10.4033h 0.544034v -8.39912h 0.181345v 12.7169h 0.36269v -4.31774h
 0.36269v 20.8065h 0.181345v -16.4888h 0.181345v -7.66684h 0.181345v 13.7524h 0.181345v -6.08551h 0.181345v -4.31774h 0.181345v 10.4033h 0.181345v -6.08551h 0.544034v -7.66684h 0.181345v -5.05002h 0.181345v -3.77191h 0.181345v 22.5743h 0.181345v
 -6.08551h 0.181345v -4.31774h 0.181345v 4.31774h 0.181345v 6.08551h 0.181345v -20.8065h 0.36269v -1.76777h 0.181345v 3.77191h 0.36269v 12.7169h 0.181345v -12.7169h 0.181345v 2.31361h 0.181345v 2.73641h 0.36269v -8.82193h 0.181345v -3.01181h
 0.181345v 9.09733h 0.181345v -11.6046h 0.181345v 17.6901h 0.181345v -6.08551h 0.181345v -9.09733h 0.181345v 4.77958h 0.181345v -8.39912h 0.181345v -1.03549h 0.181345v 13.7524h 0.181345v -7.66684h 0.181345v -2.73641h 0.181345v 1.30593h 0.181345v
 -6.53357h 0.181345v 1.87854h 0.181345v -1.87854h 0.181345v -0.857875h 0.181345v 4.88417h 0.181345v -3.1164h 0.181345v -1.76777h 0.181345v 1.76777h 0.181345v 3.1164h 0.181345v -5.69565h 0.181345v -2.20033h 0.181345v 3.01181h 0.181345v 6.08551h
 0.181345v -8.39912h 0.181345v 2.31361h 0.181345v -1.58133h 0.181345v -3.3491h 0.181345v 5.7883h 0.181345v -2.4392h 0.181345v -0.732278h 0.181345v 7.19778h 0.181345v -3.1164h 0.725379v -2.57925h 0.181345v 3.54789h 0.36269v 3.3491h 0.181345v 10.4033h
 0.181345v -9.09733h 0.36269v 4.77958h 0.181345v 4.31774h 0.181345v -6.08551h 0.181345v -4.31774h 0.181345v 20.8065h 0.181345v -14.721h 0.181345v 4.31774h 0.181345v -6.08551h 0.181345v 22.5743h 0.181345v -16.4888h 0.36269v 26.892h 0.181345v -10.4033h
 0.181345v 10.4033h 0.181345v -29.2056h 0.181345v 12.7169h 0.181345v -10.4033h 0.181345v 6.08551h 0.181345v 10.4033h 0.181345v -10.4033h 0.36269v 4.31774h 0.181345v 26.892h 0.181345v -39.6089h 0.181345v 8.39912h 0.36269v 10.4033h 0.181345v -10.4033h
 0.181345v 20.8065h 0.181345v -20.8065h 0.181345v -3.3491h 0.181345v 13.7524h 0.181345v 10.4033h 0.181345v -24.1556h 0.181345v 7.66684h 0.181345v -4.31774h 0.181345v 10.4033h 0.181345v -6.08551h 0.36269v -7.66684h 0.181345v 7.66684h 0.181345v
 6.08551h 0.181345v -6.08551h 0.181345v 16.4888h 0.181345v -10.4033h 0.181345v 10.4033h 0.181345v -20.8065h 0.181345v -3.3491h 0.181345v 13.7524h 0.36269v -18.8024h 0.181345v 2.31361h 0.181345v 10.4033h 0.181345v 16.4888h 0.181345v -31.2098h
 0.181345v 7.05415h 0.181345v 3.3491h 0.181345v -6.08551h 0.181345v -4.31774h 0.181345v 10.4033h 0.725379v -3.3491h 0.181345v 24.1556h 0.181345v -26.892h 0.181345v 26.892h 0.181345v -26.892h 0.181345v -12.7169h 0.181345v 18.8024h 0.181345v -12.171h
 0.181345v 6.08551h 0.181345v 26.892h 0.181345v -31.2098h 0.181345v 7.05415h 0.181345v 7.66684h 0.181345v -12.7169h 0.181345v 12.7169h 0.181345v -12.7169h 0.36269v -3.77191h 0.181345v 1.76777h 0.36269v 2.00414h 0.181345v 12.7169h 0.181345v -20.8065h
 0.181345v 8.08965h 0.544034v 2.31361h 0.181345v 6.08551h 0.181345v -16.4888h 0.181345v 10.4033h 0.181345v -2.31361h 0.181345v -3.77191h 0.181345v 1.76777h 0.181345v -6.08551h 0.725379v 20.8065h 0.181345v -16.4888h 0.181345v 6.08551h 0.181345v
 -4.31774h 0.181345v 7.05415h 0.181345v 3.3491h 0.36269v -3.3491h 0.181345v -11.8337h 0.181345v 3.01181h 0.181345v -1.58133h 0.181345v 24.1556h 0.181345v -6.08551h 0.181345v -4.31774h 0.181345v -8.39912h 0.181345v 18.8024h 0.181345v -13.7524h
 0.181345v -5.05002h 0.181345v 12.7169h 0.181345v 16.4888h 0.181345v -10.4033h 0.181345v -16.4888h 0.181345v -4.31774h 0.181345v 7.05415h 0.181345v 13.7524h 0.181345v 10.4033h 0.181345v -16.4888h 0.36269v -10.4033h 0.181345v 6.08551h 0.181345v
 4.31774h 0.181345v -4.31774h 0.181345v -8.39912h 0.181345v 8.39912h 0.181345v -6.08551h 0.181345v 6.08551h 0.181345v -6.08551h 0.181345v 2.73641h 0.181345v 3.3491h 0.181345v -10.4033h 0.181345v 4.31774h 0.181345v 16.4888h 0.181345v -10.4033h
 0.36269v -3.3491h 0.181345v 7.66684h 0.181345v -10.4033h 0.181345v 2.73641h 0.181345v -2.73641h 0.181345v 16.4888h 0.181345v -6.08551h 0.181345v -14.721h 0.181345v 2.00414h 0.181345v -8.08965h 0.181345v 10.4033h 0.36269v 6.08551h 0.181345v 4.31774h
 0.36269v -4.31774h 0.181345v -10.4033h 0.181345v 4.31774h 0.36269v -6.08551h 0.181345v 12.171h 0.181345v -8.39912h 0.181345v -2.00414h 0.181345v 10.4033h 0.181345v -8.39912h 0.36269v 8.39912h 0.181345v -6.08551h 0.181345v -9.09733h 0.181345v
 25.5861h 0.181345v -10.4033h 0.181345v -3.3491h 0.181345v -2.73641h 0.181345v 6.08551h 0.181345v -13.7524h 0.181345v 5.35324h 0.181345v -2.00414h 0.181345v 14.721h 0.181345v -4.31774h 0.181345v -12.171h 0.181345v 1.76777h 0.181345v -3.3491h
 0.181345v 5.35324h 0.181345v -9.29099h 0.181345v 1.20134h 0.181345v 6.08551h 0.181345v 2.00414h 0.181345v -8.08965h 0.181345v 6.08551h 0.181345v -6.08551h 0.181345v 2.73641h 0.36269v 3.3491h 0.181345v -3.3491h 0.181345v -2.73641h 0.181345v 6.08551h
 0.181345v -3.3491h 0.181345v -2.73641h 0.181345v 6.08551h 0.181345v -1.76777h 0.181345v -5.51908h 0.181345v 5.51908h 0.181345v 3.77191h 0.181345v 5.05002h 0.181345v -5.05002h 0.181345v -9.29099h 0.181345v 1.20134h 0.181345v 8.08965h 0.181345v
 -10.4033h 0.181345v 5.05002h 0.181345v 5.35324h 0.181345v 8.39912h 0.181345v -6.08551h 0.181345v -10.4033h 0.181345v 8.08965h 0.181345v -5.35324h 0.181345v -5.05002h 0.36269v 5.05002h 0.181345v -2.73641h 0.181345v 6.08551h 0.181345v -9.43461h
 0.181345v -5.74822h 0.181345v 9.09733h 0.181345v -1.20134h 0.181345v 7.28685h 0.181345v -12.9825h 0.181345v -3.50626h 0.181345v 7.05415h 0.181345v 4.65503h 0.181345v 4.77958h 0.181345v -9.43461h 0.181345v -1.87854h 0.181345v 4.0263h 0.181345v
 2.50727h 0.181345v -6.53357h 0.181345v 0.909898h 0.181345v 0.968641h 0.181345v 1.03549h 0.36269v 1.11227h 0.181345v -1.11227h 0.181345v -2.00414h 0.36269v 7.05415h 0.181345v -8.82193h 0.181345v 0.857875h 0.181345v 2.91403h 0.181345v -2.00414h
 0.181345v 5.62367h 0.181345v -5.62367h 0.181345v -3.3491h 0.181345v -1.43048h 0.181345v 5.74822h 0.181345v -1.87854h 0.36269v 4.0263h 0.181345v -3.1164h 0.181345v -1.76777h 0.181345v 3.77191h 0.181345v -2.91403h 0.181345v 4.0263h 0.181345v -4.88417h
 0.181345v -3.01181h 0.181345v 6.78372h 0.181345v -3.77191h 0.181345v 6.08551h 0.181345v -9.09733h 0.181345v 3.01181h 0.36269v -0.81148h 0.181345v 3.54789h 0.181345v 1.03549h 0.181345v -6.08551h 0.181345v 1.50213h 0.181345v 4.58339h 0.181345v
 -6.08551h 0.181345v -4.31774h 0.181345v 6.63135h 0.181345v -0.81148h 0.181345v -1.50213h 0.181345v 0.732278h 0.181345v -2.73641h 0.181345v -3.3491h 0.181345v 6.08551h 0.181345v 2.4392h 0.181345v -3.86969h 0.181345v -3.61953h 0.181345v 3.61953h
 0.36269v 0.698206h 0.181345v -2.00414h 0.181345v 2.73641h 0.36269v -5.05002h 0.181345v -0.526676h 0.181345v 0.526676h 0.181345v -1.03549h 0.181345v 6.08551h 0.181345v -6.08551h 0.181345v 9.43461h 0.36269v -7.85329h 0.181345v 3.0737h 0.181345v
 4.77958h 0.181345v -12.171h 0.181345v 6.08551h 0.181345v -5.22764h 0.181345v 2.38736h 0.181345v -3.24523h 0.181345v 11.2611h 0.181345v -10.8383h 0.181345v 1.82147h 0.181345v 2.63989h 0.181345v 1.20134h 0.181345v -0.612686h 0.181345v -3.70505h
 0.36269v 11.3719h 0.181345v -3.54789h 0.181345v -3.50626h 0.36269v 4.31774h 0.181345v -1.58133h 0.181345v -1.43048h 0.181345v 3.01181h 0.36269v -7.15802h 0.181345v 4.14621h 0.181345v 2.20033h 0.181345v -2.20033h 0.181345v 0.698206h 0.36269v
 -3.77191h 0.181345v 3.77191h 0.181345v -2.00414h 0.181345v 5.17562h 0.181345v -2.4392h 0.181345v 5.35324h 0.181345v -3.77191h 0.181345v 4.88417h 0.181345v 2.50727h 0.181345v 3.01181h 0.181345v -6.63135h 0.181345v -3.77191h 0.181345v 4.88417h
 0.181345v -1.11227h 0.181345v -3.77191h 0.181345v 3.77191h 0.181345v 1.11227h 0.181345v 1.20134h 0.181345v 2.73641h 0.181345v -1.43048h 0.36269v -4.65503h 0.181345v 4.65503h 0.181345v -6.53357h 0.181345v 6.53357h 0.181345v -5.62367h 0.181345v
 2.00414h 0.181345v -3.77191h 0.181345v 7.39144h 0.181345v -8.20292h 0.181345v 6.89699h 0.181345v -2.31361h 0.181345v -4.58339h 0.181345v 3.54789h 0.181345v 1.03549h 0.181345v -2.91403h 0.181345v 7.96405h 0.181345v -7.96405h 0.181345v 6.53357h
 0.181345v -2.50727h 0.181345v 3.93775h 0.181345v -3.93775h 0.181345v -2.14776h 0.36269v -6.41539h 0.181345v 3.67898h 0.181345v 4.88417h 0.36269v 5.51908h 0.181345v -12.7169h 0.181345v 3.17148h 0.36269v -0.857875h 0.181345v -0.81148h 0.181345v
 6.89699h 0.181345v -6.89699h 0.181345v 5.69565h 0.181345v 2.50727h 0.181345v -6.53357h 0.181345v -2.4392h 0.181345v 11.9846h 0.181345v -8.63548h 0.181345v 4.31774h 0.181345v 8.08965h 0.181345v -11.4387h 0.181345v 3.3491h 0.181345v -5.22764h
 0.181345v 1.87854h 0.181345v 2.14776h 0.181345v -3.1164h 0.181345v -2.57925h 0.181345v 8.20292h 0.181345v 1.43048h 0.181345v -7.96405h 0.36269v 4.0263h 0.181345v 2.50727h 0.181345v -4.65503h 0.181345v 4.65503h 0.181345v -2.50727h 0.181345v 3.93775h
 0.181345v -7.05415h 0.36269v -0.909898h 0.181345v 1.87854h 0.181345v 1.03549h 0.181345v -1.03549h 0.181345v -5.74822h 0.181345v 3.01181h 0.36269v 6.08551h 0.181345v -5.22764h 0.181345v -5.7883h 0.181345v 6.6982h 0.181345v -5.44675h 0.181345v
 0.667164h 0.181345v 3.86969h 0.181345v -0.857875h 0.181345v -0.81148h 0.181345v 5.69565h 0.181345v -6.4655h 0.36269v -3.3491h 0.181345v 7.66684h 0.181345v 11.4387h 0.181345v -14.9866h 0.181345v -2.20033h 0.181345v 5.74822h 0.181345v -2.73641h
 0.181345v 4.88417h 0.181345v -6.4655h 0.181345v 0.769847h 0.181345v -0.769847h 0.181345v -2.09765h 0.181345v 8.56315h 0.181345v -2.14776h 0.181345v -0.968641h 0.181345v 2.00414h 0.181345v -4.58339h 0.181345v 4.58339h 0.181345v -6.08551h 0.36269v
 8.39912h 0.181345v -1.20134h 0.181345v -9.8146h 0.181345v 3.3491h 0.181345v 11.9846h 0.181345v -5.51908h 0.181345v -3.1164h 0.181345v 0.968641h 0.181345v -2.73641h 0.181345v -5.51908h 0.181345v 4.7076h 0.36269v -0.769847h 0.181345v 3.3491h 0.181345v
 -1.76777h 0.181345v -2.31361h 0.181345v 8.39912h 0.181345v -5.22764h 0.181345v 5.22764h 0.181345v -8.39912h 0.36269v -1.36537h 0.181345v 7.45088h 0.181345v -2.91403h 0.181345v -3.86969h 0.181345v 3.01181h 0.181345v -0.81148h 0.181345v 0.81148h
 0.181345v 2.73641h 0.181345v -5.74822h 0.181345v 3.01181h 0.181345v 6.08551h 0.181345v -7.66684h 0.181345v -1.43048h 0.181345v -3.61953h 0.181345v 2.95237h 0.36269v 2.09765h 0.181345v -6.57765h 0.181345v 11.9309h 0.181345v -8.70234h 0.181345v
 1.91862h 0.181345v 3.01181h 0.181345v 0.857875h 0.181345v -1.66935h 0.181345v 3.54789h 0.181345v -9.36776h 0.181345v 3.61953h 0.181345v -0.667164h 0.36269v -1.8401h 0.181345v 6.37695h 0.181345v -2.4392h 0.181345v 1.58133h 0.181345v -3.01181h
 0.181345v -2.50727h 0.181345v 6.37695h 0.181345v -1.66935h 0.181345v -3.50626h 0.181345v 4.31774h 0.181345v -4.31774h 0.181345v -2.84028h 0.181345v 1.07251h 0.181345v 2.40654h 0.181345v 1.36537h 0.181345v 0.732278h 0.36269v -2.73641h 0.181345v
 6.08551h 0.181345v -8.39912h 0.181345v -2.00414h 0.181345v 13.5197h 0.181345v -4.88417h 0.181345v 1.76777h 0.181345v -2.57925h 0.36269v -5.81987h 0.181345v 3.61953h 0.181345v 5.74822h 0.181345v -8.25549h 0.181345v 6.37695h 0.181345v 2.91403h
 0.181345v -1.03549h 0.181345v -4.31774h 0.181345v 10.4033h 0.181345v -3.93775h 0.181345v -2.14776h 0.181345v 4.65503h 0.181345v -4.65503h 0.181345v -3.54789h 0.181345v 5.69565h 0.36269v -6.4655h 0.181345v 4.31774h 0.181345v 4.65503h 0.181345v
 -1.30593h 0.181345v 6.08551h 0.181345v -7.28685h 0.181345v 1.20134h 0.181345v -4.31774h 0.181345v -4.08138h 0.181345v 5.05002h 0.181345v 1.03549h 0.181345v 1.11227h 0.36269v -4.0263h 0.181345v 5.22764h 0.181345v -2.31361h 0.181345v -3.77191h
 0.181345v 1.76777h 0.181345v -5.44675h 0.181345v 2.09765h 0.181345v 3.3491h 0.181345v 0.968641h 0.181345v -3.54789h 0.181345v 11.2147h 0.181345v -11.9846h 0.181345v -1.43048h 0.181345v 9.09733h 0.181345v -6.08551h 0.181345v -3.67898h 0.181345v
 6.41539h 0.181345v -8.25549h 0.181345v 4.7076h 0.181345v 9.63341h 0.181345v -8.82193h 0.181345v 0.857875h 0.36269v 1.87854h 0.181345v 1.03549h 0.181345v -6.08551h 0.181345v -5.35324h 0.181345v 10.4033h 0.181345v 2.14776h 0.181345v -4.0263h 0.181345v
 1.87854h 0.181345v 3.3491h 0.181345v -1.20134h 0.181345v 1.20134h 0.181345v 6.08551h 0.181345v -14.4846h 0.181345v 3.17148h 0.181345v 6.53357h 0.181345v 3.01181h 0.181345v 1.76777h 0.181345v -9.43461h 0.181345v 4.65503h 0.181345v -4.65503h 0.181345v
 -0.968641h 0.181345v 4.31774h 0.36269v -1.20134h 0.181345v -3.1164h 0.181345v 8.63548h 0.181345v -8.63548h 0.181345v 4.31774h 0.181345v 2.73641h 0.181345v 10.4033h 0.181345v -5.05002h 0.181345v -6.78372h 0.181345v 1.43048h 0.181345v -2.73641h
 0.181345v 2.73641h 0.36269v 5.35324h 0.181345v -6.78372h 0.181345v 11.8337h 0.181345v -11.8337h 0.181345v 11.8337h 0.181345v -10.4033h 0.181345v 7.66684h 0.36269v -9.09733h 0.181345v -5.62367h 0.181345v 5.62367h 0.181345v 1.43048h 0.181345v
 -1.43048h 0.181345v 6.78372h 0.181345v -2.00414h 0.181345v 4.31774h 0.181345v 10.4033h 0.181345v -16.4888h 0.181345v 1.76777h 0.181345v 2.00414h 0.181345v 2.31361h 0.181345v 2.73641h 0.181345v -2.73641h 0.181345v 10.4033h 0.181345v -7.66684h
 0.181345v -5.05002h 0.181345v -3.77191h 0.181345v 6.08551h 0.181345v -6.08551h 0.36269v 8.82193h 0.181345v -5.05002h 0.36269v 5.05002h 0.181345v -15.4533h 0.181345v 10.4033h 0.181345v -9.29099h 0.181345v 5.51908h 0.36269v 3.77191h 0.181345v
 -3.77191h 0.181345v 1.76777h 0.181345v -3.3491h 0.181345v 13.7524h 0.181345v -10.4033h 0.181345v 4.31774h 0.181345v -7.66684h 0.181345v -3.93775h 0.181345v 17.6901h 0.181345v -8.39912h 0.181345v -6.78372h 0.181345v 3.01181h 0.181345v 3.77191h
 0.181345v -8.08965h 0.181345v -2.31361h 0.181345v 5.05002h 0.181345v -2.73641h 0.181345v 6.08551h 0.181345v 10.4033h 0.181345v -12.171h 0.181345v 3.77191h 0.181345v -10.4033h 0.181345v 8.39912h 0.181345v -3.3491h 0.181345v 1.58133h 0.181345v
 -8.63548h 0.181345v 7.05415h 0.181345v 1.58133h 0.181345v -6.63135h 0.181345v 12.7169h 0.181345v -10.4033h 0.181345v 2.73641h 0.181345v 3.3491h 0.181345v -3.3491h 0.181345v 5.35324h 0.36269v -9.29099h 0.181345v 5.51908h 0.36269v -1.58133h 0.181345v
 1.58133h 0.181345v -1.58133h 0.181345v 13.7524h 0.181345v -17.6901h 0.181345v 7.28685h 0.181345v -6.08551h 0.36269v 8.08965h 0.181345v -6.78372h 0.181345v 3.01181h 0.181345v 6.08551h 0.181345v -10.4033h 0.181345v -2.31361h 0.181345v 5.05002h
 0.181345v -5.05002h 0.181345v 5.05002h 0.181345v 3.3491h 0.181345v -7.28685h 0.181345v 2.50727h 0.36269v 6.78372h 0.181345v -5.35324h 0.36269v 7.66684h 0.181345v -11.6046h 0.181345v -4.88417h 0.181345v 7.39144h 0.181345v 3.01181h 0.181345v -5.51908h
 0.181345v -1.11227h 0.181345v 10.4033h 0.181345v 8.39912h 0.181345v -16.4888h 0.181345v 13.1397h 0.181345v -8.82193h 0.181345v 3.77191h 0.181345v -3.77191h 0.181345v 6.08551h 0.181345v -15.6309h 0.181345v 6.53357h 0.181345v 3.01181h 0.181345v
 -1.58133h 0.181345v -7.96405h 0.181345v 4.0263h 0.181345v 1.20134h 0.181345v 10.4033h 0.181345v -10.4033h 0.36269v -3.3491h 0.36269v 13.7524h 0.181345v -13.7524h 0.181345v 4.65503h 0.181345v -4.65503h 0.181345v 6.08551h 0.181345v -8.82193h 0.181345v
 2.73641h 0.181345v -2.73641h 0.181345v 12.171h 0.181345v -7.28685h 0.181345v -1.11227h 0.181345v 3.61953h 0.181345v -4.65503h 0.36269v -0.968641h 0.181345v 5.62367h 0.181345v -8.97277h 0.181345v 15.7565h 0.181345v -6.78372h 0.181345v -3.61953h
 0.181345v -3.77191h 0.181345v 1.76777h 0.181345v 3.1164h 0.181345v -5.69565h 0.36269v -2.20033h 0.181345v 1.43048h 0.181345v -2.09765h 0.181345v 8.56315h 0.181345v -9.20192h 0.36269v 8.08965h 0.181345v -6.78372h 0.181345v 2.20033h 0.181345v 1.66935h
 0.181345v -2.4392h 0.181345v -0.732278h 0.181345v 0.732278h 0.181345v 5.35324h 0.181345v 1.11227h 0.181345v -5.69565h 0.181345v 4.58339h 0.181345v 1.11227h 0.181345v -8.56315h 0.181345v -1.8401h 0.181345v 15.9223h 0.181345v -3.01181h 0.181345v
 -5.62367h 0.181345v -3.3491h 0.181345v 0.769847h 0.181345v -1.50213h 0.181345v 3.17148h 0.181345v -0.857875h 0.181345v 2.73641h 0.181345v -5.74822h 0.181345v 6.78372h 0.181345v -1.03549h 0.181345v -1.87854h 0.181345v 9.54538h 0.181345v -4.31774h
 0.36269v -2.31361h 0.181345v -1.03549h 0.181345v -1.87854h 0.181345v 13.3173h 0.181345v -14.9866h 0.181345v 3.54789h 0.181345v 3.3491h 0.181345v -6.89699h 0.181345v 3.54789h 0.181345v 2.14776h 0.36269v 11.6046h 0.181345v -7.66684h 0.181345v 7.66684h
 0.181345v 6.08551h 0.181345v -15.1828h 0.181345v 11.8337h 0.181345v 3.3491h 0.181345v -8.39912h 0.181345v 5.05002h 0.181345v -8.82193h 0.36269v 22.5743h 0.181345v -10.4033h 0.181345v -6.08551h 0.181345v 6.08551h 0.181345v -3.3491h 0.181345v
 -2.73641h 0.181345v 26.892h 0.181345v -16.4888h 0.36269v 6.08551h 0.181345v -6.08551h 0.181345v -12.7169h 0.181345v 18.8024h 0.181345v -6.08551h 0.181345v -7.66684h 0.181345v 7.66684h 0.181345v 6.08551h 0.36269v -16.4888h 0.181345v 37.2953h
 0.181345v -26.892h 0.181345v 6.08551h 0.181345v 10.4033h 0.181345v -10.4033h 0.181345v 20.8065h 0.181345v -31.2098h 0.181345v 10.4033h 0.181345v -6.08551h 0.181345v 6.08551h 0.181345v -10.4033h 0.181345v -6.08551h 0.181345v 37.2953h 0.181345v
 -20.8065h 0.36269v 10.4033h 0.36269v 10.4033h 0.181345v -10.4033h 0.544034v -10.4033h 0.181345v 10.4033h 0.181345v -10.4033h 0.181345v 20.8065h 0.181345v -20.8065h 0.36269v 10.4033h 0.544034v -20.8065h 0.181345v 31.2098h 0.36269v -26.892h 0.181345v
 26.892h 0.36269v -20.8065h 0.181345v 20.8065h 0.181345v -10.4033h 0.181345v 10.4033h 0.36269v -10.4033h 0.181345v 10.4033h 0.544034v -26.892h 0.181345v 16.4888h 0.181345v 10.4033h 0.181345v -20.8065h 0.36269v 10.4033h 0.36269v 10.4033h 0.181345v
 -10.4033h 0.181345v 10.4033h 0.181345v -10.4033h 0.36269v -16.4888h 0.181345v 26.892h 0.544034v -20.8065h 0.181345v -6.08551h 0.181345v 26.892h 0.181345v -10.4033h 1.26941v 10.4033h 0.181345v -10.4033h 0.181345v -10.4033h 0.181345v 10.4033h
 0.181345v 10.4033h 0.181345v -10.4033h 0.544034v -10.4033h 0.181345v 20.8065h 0.181345v -26.892h 0.181345v 16.4888h 0.181345v 10.4033h 0.181345v -10.4033h 0.181345v 10.4033h 0.181345v -10.4033h 0.181345v 10.4033h 0.181345v -20.8065h 0.181345v
 10.4033h 0.544034v 10.4033h 0.181345v -10.4033h 0.181345v 10.4033h 0.181345v -10.4033h 0.36269v -16.4888h 0.181345v 26.892h 0.36269v -10.4033h 0.181345v 10.4033h 0.36269v -10.4033h 1.08807v -10.4033h 0.181345v 10.4033h 0.181345v 10.4033h 0.181345v
 -10.4033h 0.544034v 10.4033h 0.181345v -10.4033h 0.181345v -10.4033h 0.181345v 20.8065h 0.36269v -10.4033h 0.36269v 10.4033h 0.181345v -26.892h 0.181345v 26.892h 0.544034v -26.892h 0.181345v 26.892h 0.181345v -10.4033h 0.181345v 10.4033h 0.181345v
 -20.8065h 0.181345v 20.8065h 0.181345v -10.4033h 0.36269v 10.4033h 0.725379v -10.4033h 0.181345v -10.4033h 0.181345v 10.4033h 0.181345v 10.4033h 0.544034v -20.8065h 0.181345v 20.8065h 0.181345v -20.8065h 0.181345v 10.4033h 0.181345v 10.4033h
 0.725379v -10.4033h 0.36269v 10.4033h 0.544034v -10.4033h 0.36269v 10.4033h 0.181345v -10.4033h 0.181345v 10.4033h 0.181345v -10.4033h 0.544034v 10.4033h 0.181345v -20.8065h 0.181345v 20.8065h 0.725379v -10.4033h 0.181345v -10.4033h 0.181345v
 20.8065h 0.36269v -20.8065h 0.181345v 10.4033h 0.181345v -10.4033h 0.181345v 10.4033h 0.181345v 10.4033h 0.181345v -10.4033h 0.181345v 10.4033h 0.36269v -20.8065h 0.181345v -10.4033h 0.181345v 20.8065h 0.181345v 10.4033h 0.36269v -10.4033h 0.544034v
 -10.4033h 0.36269v 10.4033h 0.181345v 10.4033h 0.181345v -20.8065h 0.181345v 20.8065h 0.36269v -20.8065h 0.181345v 10.4033h 0.36269v -10.4033h 0.181345v -10.4033h 0.181345v -3.3491h 0.181345v 34.5589h 0.36269v -20.8065h 0.181345v 20.8065h 0.544034v
 -20.8065h 0.181345v 20.8065h 0.181345v -10.4033h 0.181345v -10.4033h 0.181345v 20.8065h 0.544034v -10.4033h 0.544034v 10.4033h 0.36269v -10.4033h 0.181345v 10.4033h 0.181345v -10.4033h 0.181345v 10.4033h 0.544034v -20.8065h 0.181345v 10.4033h
 0.36269v 10.4033h 0.181345v -26.892h 0.181345v 26.892h 0.36269v -26.892h 0.181345v 26.892h 1.08807v -10.4033h 0.181345v 10.4033h 0.181345v -10.4033h 0.181345v -10.4033h 0.181345v 20.8065h 0.544034v -10.4033h 0.36269v -16.4888h 0.36269v 6.08551h
 0.181345v 10.4033h 0.36269v -16.4888h 0.181345v 26.892h 0.36269v -20.8065h 0.181345v 20.8065h 0.36269v -20.8065h 0.181345v -6.08551h 0.181345v 16.4888h 0.181345v 10.4033h 0.181345" fill="none" stroke="black"/>
<path d="M57.1929,280.151h 453.543" fill="none" stroke="black"/>
<path d="M57.1929,272.68v 7.47068" fill="none" stroke="black"/>
<path d="M75.3318,276.415v 3.73534" fill="none" stroke="black"/>
<path d="M93.4707,276.415v 3.73534" fill="none" stroke="black"/>
<path d="M111.61,276.415v 3.73534" fill="none" stroke="black"/>
<path d="M129.749,276.415v 3.73534" fill="none" stroke="black"/>
<path d="M147.887,272.68v 7.47068" fill="none" stroke="black"/>
<path d="M166.026,276.415v 3.73534" fill="none" stroke="black"/>
<path d="M184.165,276.415v 3.73534" fill="none" stroke="black"/>
<path d="M202.304,276.415v 3.73534" fill="none" stroke="black"/>
<path d="M220.443,276.415v 3.73534" fill="none" stroke="black"/>
<path d="M238.582,272.68v 7.47068" fill="none" stroke="black"/>
<path d="M256.721,276.415v 3.73534" fill="none" stroke="black"/>
<path d="M274.86,276.415v 3.73534" fill="none" stroke="black"/>
<path d="M292.999,276.415v 3.73534" fill="none" stroke="black"/>
<path d="M311.138,276.415v 3.73534" fill="none" stroke="black"/>
<path d="M329.277,272.68v 7.47068" fill="none" stroke="black"/>
<path d="M347.415,276.415v 3.73534" fill="none" stroke="black"/>
<path d="M365.554,276.415v 3.73534" fill="none" stroke="black"/>
<path d="M383.693,276.415v 3.73534" fill="none" stroke="black"/>
<path d="M401.832,276.415v 3.73534" fill="none" stroke="black"/>
<path d="M419.971,272.68v 7.47068" fill="none" stroke="black"/>
<path d="M438.11,276.415v 3.73534" fill="none" stroke="black"/>
<path d="M456.249,276.415v 3.73534" fill="none" stroke="black"/>
<path d="M474.388,276.415v 3.73534" fill="none" stroke="black"/>
<path d="M492.527,276.415v 3.73534" fill="none" stroke="black"/>
<path d="M510.666,272.68v 7.47068" fill="none" stroke="black"/>
<path d="M510.666,272.68v 7.47068" fill="none" stroke="black"/>
<text xml:space="preserve" x="54.3523" y="290.27" fill="black" font-size="10.4952" font-family="Helvetica">0</text>
<text xml:space="preserve" x="139.569" y="290.27" fill="black" font-size="10.4952" font-family="Helvetica">500</text>
<text xml:space="preserve" x="227.449" y="290.27" fill="black" font-size="10.4952" font-family="Helvetica">1000</text>
<text xml:space="preserve" x="318.288" y="290.27" fill="black" font-size="10.4952" font-family="Helvetica">1500</text>
<text xml:space="preserve" x="408.831" y="290.27" fill="black" font-size="10.4952" font-family="Helvetica">2000</text>
<text xml:space="preserve" x="499.67" y="290.27" fill="black" font-size="10.4952" font-family="Helvetica">2500</text>
<text xml:space="preserve" x="265.323" y="301.218" fill="black" font-size="10.4952" font-family="Helvetica">Channel</text>
<path d="M57.1929,280.151v -249.023" fill="none" stroke="black"/>
<path d="M63.9961,280.151h -6.80315" fill="none" stroke="black"/>
<path d="M63.9961,277.414h -6.80315" fill="none" stroke="black"/>
<path d="M63.9961,275.101h -6.80315" fill="none" stroke="black"/>
<path d="M63.9961,273.096h -6.80315" fill="none" stroke="black"/>
<path d="M63.9961,271.329h -6.80315" fill="none" stroke="black"/>
<path d="M70.7992,269.747h -13.6063" fill="none" stroke="black"/>
<text xml:space="preserve" x="49.0263" y="273.404" fill="black" font-size="10.4952" font-family="Helvetica">1</text>
<path d="M63.9961,259.344h -6.80315" fill="none" stroke="black"/>
<path d="M63.9961,253.259h -6.80315" fill="none" stroke="black"/>
<path d="M63.9961,248.941h -6.80315" fill="none" stroke="black"/>
<path d="M63.9961,245.592h -6.80315" fill="none" stroke="black"/>
<path d="M63.9961,242.855h -6.80315" fill="none" stroke="black"/>
<path d="M63.9961,240.542h -6.80315" fill="none" stroke="black"/>
<path d="M63.9961,238.538h -6.80315" fill="none" stroke="black"/>
<path d="M63.9961,236.77h -6.80315" fill="none" stroke="black"/>
<path d="M70.7992,235.188h -13.6063" fill="none" stroke="black"/>
<text xml:space="preserve" x="41.629" y="238.785" fill="black" font-size="10.4952" font-family="Helvetica">10</text>
<path d="M63.9961,224.785h -6.80315" fill="none" stroke="black"/>
<path d="M63.9961,218.7h -6.80315" fill="none" stroke="black"/>
<path d="M63.9961,214.382h -6.80315" fill="none" stroke="black"/>
<path d="M63.9961,211.033h -6.80315" fill="none" stroke="black"/>
<path d="M63.9961,208.296h -6.80315" fill="none" stroke="black"/>
<path d="M63.9961,205.983h -6.80315" fill="none" stroke="black"/>
<path d="M63.9961,203.979h -6.80315" fill="none" stroke="black"/>
<path d="M63.9961,202.211h -6.80315" fill="none" stroke="black"/>
<path d="M70.7992,200.63h -13.6063" fill="none" stroke="black"/>
<text xml:space="preserve" x="49.0263" y="200.911" fill="black" font-size="7.16345" font-family="Helvetica">2</text>
<text xml:space="preserve" x="38.0783" y="205.349" fill="black" font-size="10.4952" font-family="Helvetica">10</text>
<path d="M63.9961,190.226h -6.80315" fill="none" stroke="black"/>
<path d="M63.9961,184.141h -6.80315" fill="none" stroke="black"/>
<path d="M63.9961,179.823h -6.80315" fill="none" stroke="black"/>
<path d="M63.9961,176.474h -6.80315" fill="none" stroke="black"/>
<path d="M63.9961,173.738h -6.80315" fill="none" stroke="black"/>
<path d="M63.9961,171.424h -6.80315" fill="none" stroke="black"/>
<path d="M63.9961,169.42h -6.80315" fill="none" stroke="black"/>
<path d="M63.9961,167.652h -6.80315" fill="none" stroke="black"/>
<path d="M70.7992,166.071h -13.6063" fill="none" stroke="black"/>
<text xml:space="preserve" x="49.0263" y="165.995" fill="black" font-size="7.16345" font-family="Helvetica">3</text>
<text xml:space="preserve" x="38.0783" y="170.73" fill="black" font-size="10.4952" font-family="Helvetica">10</text>
<path d="M63.9961,155.667h -6.80315" fill="none" stroke="black"/>
<path d="M63.9961,149.582h -6.80315" fill="none" stroke="black"/>
<path d="M63.9961,145.264h -6.80315" fill="none" stroke="black"/>
<path d="M63.9961,141.915h -6.80315" fill="none" stroke="black"/>
<path d="M63.9961,139.179h -6.80315" fill="none" stroke="black"/>
<path d="M63.9961,136.865h -6.80315" fill="none" stroke="black"/>
<path d="M63.9961,134.861h -6.80315" fill="none" stroke="black"/>
<path d="M63.9961,133.093h -6.80315" fill="none" stroke="black"/>
<path d="M70.7992,131.512h -13.6063" fill="none" stroke="black"/>
<text xml:space="preserve" x="49.0263" y="131.672" fill="black" font-size="7.16345" font-family="Helvetica">4</text>
<text xml:space="preserve" x="38.0783" y="136.11" fill="black" font-size="10.4952" font-family="Helvetica">10</text>
<path d="M63.9961,121.109h -6.80315" fill="none" stroke="black"/>
<path d="M63.9961,115.023h -6.80315" fill="none" stroke="black"/>
<path d="M63.9961,110.705h -6.80315" fill="none" stroke="black"/>
<path d="M63.9961,107.356h -6.80315" fill="none" stroke="black"/>
<path d="M63.9961,104.62h -6.80315" fill="none" stroke="black"/>
<path d="M63.9961,102.306h -6.80315" fill="none" stroke="black"/>
<path d="M63.9961,100.302h -6.80315" fill="none" stroke="black"/>
<path d="M63.9961,98.5343h -6.80315" fill="none" stroke="black"/>
<path d="M70.7992,96.953h -13.6063" fill="none" stroke="black"/>
<text xml:space="preserve" x="49.0263" y="96.7567" fill="black" font-size="7.16345" font-family="Helvetica">5</text>
<text xml:space="preserve" x="38.0783" y="101.491" fill="black" font-size="10.4952" font-family="Helvetica">10</text>
<path d="M63.9961,86.5497h -6.80315" fill="none" stroke="black"/>
<path d="M63.9961,80.4642h -6.80315" fill="none" stroke="black"/>
<path d="M63.9961,76.1465h -6.80315" fill="none" stroke="black"/>
<path d="M63.9961,72.7974h -6.80315" fill="none" stroke="black"/>
<path d="M63.9961,70.061h -6.80315" fill="none" stroke="black"/>
<path d="M63.9961,67.7474h -6.80315" fill="none" stroke="black"/>
<path d="M63.9961,65.7432h -6.80315" fill="none" stroke="black"/>
<path d="M63.9961,63.9755h -6.80315" fill="none" stroke="black"/>
<path d="M70.7992,62.3941h -13.6063" fill="none" stroke="black"/>
<text xml:space="preserve" x="49.0263" y="62.1373" fill="black" font-size="7.16345" font-family="Helvetica">6</text>
<text xml:space="preserve" x="38.0783" y="66.8716" fill="black" font-size="10.4952" font-family="Helvetica">10</text>
<path d="M63.9961,51.9909h -6.80315" fill="none" stroke="black"/>
<path d="M63.9961,45.9054h -6.80315" fill="none" stroke="black"/>
<path d="M63.9961,41.5876h -6.80315" fill="none" stroke="black"/>
<path d="M63.9961,38.2385h -6.80315" fill="none" stroke="black"/>
<path d="M63.9961,35.5021h -6.80315" fill="none" stroke="black"/>
<path d="M63.9961,33.1885h -6.80315" fill="none" stroke="black"/>
<path d="M63.9961,31.1844h -6.80315" fill="none" stroke="black"/>
<g transform="rotate(-90,26.5385,191.442)">
<text xml:space="preserve" x="26.5385" y="191.442" fill="black" font-size="10.4952" font-family="Helvetica">Counts/Channel</text>
</g>
<text xml:space="preserve" x="404.097" y="62.1373" fill="black" font-size="14.7788" font-family="Helvetica" font-weight="bold"> = 2.4879 MeV</text>
<text xml:space="preserve" x="398.179" y="65.3921" fill="black" font-size="10.0192" font-family="Helvetica" font-weight="bold">p</text>
<text xml:space="preserve" x="389.006" y="62.1373" fill="black" font-size="14.7788" font-family="Helvetica" font-weight="bold">E</text>
<path d="M262.163,164.64v 25.9353" fill="none" stroke="black"/>
<path d="M264.454,190.576l -2.29122, 3.9685l -2.29122, -3.9685z" fill="black"/>
<path d="M264.454,190.576l -2.29122, 3.9685l -2.29122, -3.9685h 4.58243z" fill="none" stroke="black"/>
<text xml:space="preserve" x="266.803" y="162.445" fill="black" font-size="10.4952" font-family="Helvetica" font-weight="bold">_1 	1.369 MeV</text>
<text xml:space="preserve" x="260.293" y="162.445" fill="black" font-size="10.4952" font-family="Times">&#0945;</text>
<path d="M184.528,131.512v 30.5904" fill="none" stroke="black"/>
<path d="M186.819,162.102l -2.29122, 3.9685l -2.29122, -3.9685z" fill="black"/>
<path d="M186.819,162.102l -2.29122, 3.9685l -2.29122, -3.9685h 4.58243z" fill="none" stroke="black"/>
<text xml:space="preserve" x="172.117" y="128.713" fill="black" font-size="10.4952" font-family="Helvetica" font-weight="bold"># p_1 	0.844 MeV</text>
<path d="M210.104,149.582v 12.5203" fill="none" stroke="black"/>
<path d="M212.395,162.102l -2.29122, 3.9685l -2.29122, -3.9685z" fill="black"/>
<path d="M212.395,162.102l -2.29122, 3.9685l -2.29122, -3.9685h 4.58243z" fill="none" stroke="black"/>
<text xml:space="preserve" x="197.564" y="144.987" fill="black" font-size="10.4952" font-family="Helvetica" font-weight="bold"># p_2 	1.015 MeV</text>
<path d="M497.706,269.747h 12.9597" fill="none" stroke="black"/>
<path d="M504.186,259.344h 6.47985" fill="none" stroke="black"/>
<path d="M504.186,253.259h 6.47985" fill="none" stroke="black"/>
<path d="M504.186,248.941h 6.47985" fill="none" stroke="black"/>
<path d="M504.186,245.592h 6.47985" fill="none" stroke="black"/>
<path d="M504.186,242.855h 6.47985" fill="none" stroke="black"/>
<path d="M504.186,240.542h 6.47985" fill="none" stroke="black"/>
<path d="M504.186,238.538h 6.47985" fill="none" stroke="black"/>
<path d="M504.186,236.77h 6.47985" fill="none" stroke="black"/>
<path d="M497.706,235.188h 12.9597" fill="none" stroke="black"/>
<path d="M504.186,224.785h 6.47985" fill="none" stroke="black"/>
<path d="M504.186,218.7h 6.47985" fill="none" stroke="black"/>
<path d="M504.186,214.382h 6.47985" fill="none" stroke="black"/>
<path d="M504.186,211.033h 6.47985" fill="none" stroke="black"/>
<path d="M504.186,208.296h 6.47985" fill="none" stroke="black"/>
<path d="M504.186,205.983h 6.47985" fill="none" stroke="black"/>
<path d="M504.186,203.979h 6.47985" fill="none" stroke="black"/>
<path d="M504.186,202.211h 6.47985" fill="none" stroke="black"/>
<path d="M497.706,200.63h 12.9597" fill="none" stroke="black"/>
<path d="M504.186,190.226h 6.47985" fill="none" stroke="black"/>
<path d="M504.186,184.141h 6.47985" fill="none" stroke="black"/>
<path d="M504.186,179.823h 6.47985" fill="none" stroke="black"/>
<path d="M504.186,176.474h 6.47985" fill="none" stroke="black"/>
<path d="M504.186,173.738h 6.47985" fill="none" stroke="black"/>
<path d="M504.186,171.424h 6.47985" fill="none" stroke="black"/>
<path d="M504.186,169.42h 6.47985" fill="none" stroke="black"/>
<path d="M504.186,167.652h 6.47985" fill="none" stroke="black"/>
<path d="M497.706,166.071h 12.9597" fill="none" stroke="black"/>
<path d="M504.186,155.667h 6.47985" fill="none" stroke="black"/>
<path d="M504.186,149.582h 6.47985" fill="none" stroke="black"/>
<path d="M504.186,145.264h 6.47985" fill="none" stroke="black"/>
<path d="M504.186,141.915h 6.47985" fill="none" stroke="black"/>
<path d="M504.186,139.179h 6.47985" fill="none" stroke="black"/>
<path d="M504.186,136.865h 6.47985" fill="none" stroke="black"/>
<path d="M504.186,134.861h 6.47985" fill="none" stroke="black"/>
<path d="M504.186,133.093h 6.47985" fill="none" stroke="black"/>
<path d="M497.706,131.512h 12.9597" fill="none" stroke="black"/>
<path d="M504.186,121.109h 6.47985" fill="none" stroke="black"/>
<path d="M504.186,115.023h 6.47985" fill="none" stroke="black"/>
<path d="M504.186,110.705h 6.47985" fill="none" stroke="black"/>
<path d="M504.186,107.356h 6.47985" fill="none" stroke="black"/>
<path d="M504.186,104.62h 6.47985" fill="none" stroke="black"/>
<path d="M504.186,102.306h 6.47985" fill="none" stroke="black"/>
<path d="M504.186,100.302h 6.47985" fill="none" stroke="black"/>
<path d="M504.186,98.5343h 6.47985" fill="none" stroke="black"/>
<path d="M497.706,96.953h 12.9597" fill="none" stroke="black"/>
<path d="M504.186,86.5497h 6.47985" fill="none" stroke="black"/>
<path d="M504.186,80.4642h 6.47985" fill="none" stroke="black"/>
<path d="M504.186,76.1465h 6.47985" fill="none" stroke="black"/>
<path d="M504.186,72.7974h 6.47985" fill="none" stroke="black"/>
<path d="M504.186,70.061h 6.47985" fill="none" stroke="black"/>
<path d="M504.186,67.7474h 6.47985" fill="none" stroke="black"/>
<path d="M504.186,65.7432h 6.47985" fill="none" stroke="black"/>
<path d="M504.186,63.9755h 6.47985" fill="none" stroke="black"/>
<path d="M497.706,62.3941h 12.9597" fill="none" stroke="black"/>
<path d="M504.186,51.9909h 6.47985" fill="none" stroke="black"/>
<path d="M504.186,45.9054h 6.47985" fill="none" stroke="black"/>
<path d="M504.186,41.5876h 6.47985" fill="none" stroke="black"/>
<path d="M504.186,38.2385h 6.47985" fill="none" stroke="black"/>
<path d="M504.186,35.5021h 6.47985" fill="none" stroke="black"/>
<path d="M504.186,33.1885h 6.47985" fill="none" stroke="black"/>
<path d="M57.1929,40.0282v -7.46952" fill="none" stroke="black"/>
<path d="M75.3318,40.0282v -7.46952" fill="none" stroke="black"/>
<path d="M93.4707,40.0282v -7.46952" fill="none" stroke="black"/>
<path d="M111.61,40.0282v -7.46952" fill="none" stroke="black"/>
<path d="M129.749,40.0282v -7.46952" fill="none" stroke="black"/>
<path d="M147.887,40.0282v -7.46952" fill="none" stroke="black"/>
<path d="M166.026,40.0282v -7.46952" fill="none" stroke="black"/>
<path d="M184.165,40.0282v -7.46952" fill="none" stroke="black"/>
<path d="M202.304,40.0282v -7.46952" fill="none" stroke="black"/>
<path d="M220.443,40.0282v -7.46952" fill="none" stroke="black"/>
<path d="M238.582,40.0282v -7.46952" fill="none" stroke="black"/>
<path d="M256.721,40.0282v -7.46952" fill="none" stroke="black"/>
<path d="M274.86,40.0282v -7.46952" fill="none" stroke="black"/>
<path d="M292.999,40.0282v -7.46952" fill="none" stroke="black"/>
<path d="M311.138,40.0282v -7.46952" fill="none" stroke="black"/>
<path d="M329.277,40.0282v -7.46952" fill="none" stroke="black"/>
<path d="M347.415,40.0282v -7.46952" fill="none" stroke="black"/>
<path d="M365.554,40.0282v -7.46952" fill="none" stroke="black"/>
<path d="M383.693,40.0282v -7.46952" fill="none" stroke="black"/>
<path d="M401.832,40.0282v -7.46952" fill="none" stroke="black"/>
<path d="M419.971,40.0282v -7.46952" fill="none" stroke="black"/>
<path d="M438.11,40.0282v -7.46952" fill="none" stroke="black"/>
<path d="M456.249,40.0282v -7.46952" fill="none" stroke="black"/>
<path d="M474.388,40.0282v -7.46952" fill="none" stroke="black"/>
<path d="M492.527,40.0282v -7.46952" fill="none" stroke="black"/>
<path d="M510.666,40.0282v -7.46952" fill="none" stroke="black"/></svg>
