<?xml version="1.0" standalone="no"?>
<svg width="567.429" height="311.778" viewBox="0 0 567.429 311.778" xmlns="http://www.w3.org/2000/svg" shape-rendering="crispEdges">
<title>
Yields/P1/det-4/run_0097_Fit.svg
</title>
<desc>
Creator: ROOT Version 6.12/06
CreationDate: Mon Apr 15 10:29:01 2019</desc>
<defs>
</defs>
<rect x="0.5" y="0" width="566.929" height="311.278" fill="white"/>
<rect x="57.1929" y="31.1278" width="453.543" height="249.023" fill="white"/>
<rect x="57.1929" y="31.1278" width="453.543" height="249.023" fill="none" stroke="black"/>
<rect x="57.1929" y="31.1278" width="453.543" height="249.023" fill="white"/>
<rect x="57.1929" y="31.1278" width="453.543" height="249.023" fill="none" stroke="black"/>
<path d="M57.1929,40.5041h 0.181345v 239.646h 14.5076v -10.1695h 0.181345v 10.1695h 0.544034v -10.1695h 0.181345v 10.1695h 0.544034v -10.1695h 0.181345v 10.1695h 3.98959v -10.1695h 0.36269v 10.1695h 2.53883v -10.1695h 0.181345v 10.1695h 2.35748v
 -10.1695h 0.181345v 10.1695h 1.08807v -10.1695h 0.181345v -10.1695h 0.181345v 20.3391h 0.36269v -10.1695h 0.181345v 10.1695h 0.36269v -20.3391h 0.181345v 20.3391h 1.99479v -20.3391h 0.181345v 10.1695h 0.181345v 10.1695h 0.181345v -10.1695h 0.181345v
 10.1695h 0.36269v -10.1695h 0.36269v -10.1695h 0.36269v -10.1695h 0.181345v -19.3922h 0.181345v -14.3903h 0.181345v -10.5318h 0.181345v -15.3218h 0.181345v -6.78507h 0.181345v -4.93657h 0.181345v -4.74925h 0.181345v -1.14279h 0.181345v -2.40713h
 0.181345v -1.89866h 0.181345v 0.113513h 0.181345v -1.35945h 0.181345v -0.597883h 0.181345v -1.39041h 0.181345v 0.0113425h 0.181345v -0.934109h 0.181345v 0.192908h 0.181345v -0.0107839h 0.181345v -0.245868h 0.181345v -0.703707h 0.181345v -0.467381h
 0.181345v 0.0490196h 0.181345v -0.320543h 0.181345v 0.448766h 0.181345v -0.381354h 0.181345v 0.155256h 0.181345v -0.545758h 0.181345v -0.444346h 0.181345v 0.633536h 0.181345v -0.669965h 0.181345v 0.201485h 0.181345v -0.937655h 0.181345v 0.699832h
 0.181345v 0.0545411h 0.181345v -0.960534h 0.181345v 0.547477h 0.36269v -0.496207h 0.181345v 0.232955h 0.181345v -0.0260673h 0.181345v -0.777706h 0.181345v 0.434497h 0.181345v 0.136322h 0.181345v -0.430182h 0.181345v 0.671837h 0.181345v -0.335512h
 0.181345v 0.335512h 0.181345v 0.540662h 0.181345v -0.268389h 0.181345v -0.488225h 0.181345v 0.479362h 0.181345v 0.431547h 0.181345v -0.572621h 0.181345v 0.400279h 0.181345v -0.409051h 0.181345v -1.26782h 0.181345v -1.30739h 0.181345v -2.13919h
 0.181345v -1.91134h 0.181345v -3.29617h 0.181345v -3.46701h 0.181345v -2.37437h 0.181345v -3.0621h 0.181345v -3.00501h 0.181345v -2.0036h 0.181345v -1.91954h 0.181345v -1.51378h 0.181345v -0.842171h 0.181345v -0.175801h 0.181345v 0.545763h 0.181345v
 0.795677h 0.181345v 1.96211h 0.181345v 1.77066h 0.181345v 3.09069h 0.181345v 3.16412h 0.181345v 3.66983h 0.181345v 4.09131h 0.181345v 3.68248h 0.181345v 4.30126h 0.181345v 3.54483h 0.181345v 2.59087h 0.181345v 2.06464h 0.181345v 1.86461h 0.181345v
 0.472528h 0.181345v 1.55316h 0.181345v -0.435282h 0.181345v 0.827043h 0.181345v -0.574701h 0.181345v 0.574701h 0.181345v 0.441427h 0.181345v 0.475233h 0.181345v -0.51415h 0.181345v 0.554456h 0.181345v 0.182762h 0.181345v -0.580929h 0.181345v
 0.138133h 0.181345v 0.710871h 0.181345v -0.020796h 0.181345v -0.0207665h 0.181345v -1.09913h 0.181345v 1.16152h 0.181345v 0.252239h 0.181345v -0.683484h 0.181345v 1.2674h 0.181345v -0.284045h 0.181345v -0.717888h 0.181345v 0.0206206h 0.181345v
 0.439865h 0.181345v -0.252964h 0.181345v 0.168157h 0.181345v 0.385552h 0.181345v 1.72535h 0.181345v -1.70363h 0.181345v 0.689767h 0.181345v -0.203618h 0.181345v -0.701912h 0.181345v 0.79206h 0.181345v 0.694367h 0.181345v 0.803787h 0.181345v
 -0.149457h 0.181345v 0.581377h 0.181345v 0.077559h 0.181345v -0.0517515h 0.181345v 0.260603h 0.181345v -0.312172h 0.181345v 1.12296h 0.181345v 0.365752h 0.181345v -1.07099h 0.181345v -0.44344h 0.181345v -0.480248h 0.181345v 2.05177h 0.181345v
 0.114846h 0.181345v -1.26938h 0.181345v 0.731697h 0.181345v -0.138281h 0.181345v -0.698777h 0.181345v 0.561787h 0.181345v 1.55186h 0.181345v -1.24878h 0.181345v 0.625626h 0.181345v -1.35868h 0.181345v 0.594508h 0.181345v 0.391264h 0.181345v 1.05681h
 0.181345v -0.390463h 0.181345v 0.148951h 0.181345v -0.529291h 0.181345v 0.770804h 0.181345v -0.331064h 0.181345v 0.669772h 0.181345v 0.0311829h 0.181345v -0.247627h 0.181345v -0.630808h 0.181345v 0.327039h 0.181345v -0.704369h 0.181345v 1.38116h
 0.181345v -0.0314503h 0.181345v -0.645345h 0.181345v 0.211976h 0.181345v 0.527922h 0.181345v 0.449492h 0.181345v -0.854895h 0.181345v 0.373817h 0.181345v 1.01223h 0.181345v 0.238567h 0.181345v -0.704369h 0.181345v -0.827682h 0.181345v -0.245555h
 0.181345v 0.590046h 0.181345v -0.437057h 0.181345v 1.45382h 0.181345v -1.5458h 0.181345v 1.61388h 0.181345v -0.764489h 0.181345v -0.849394h 0.181345v -1.28678h 0.36269v -1.15711h 0.181345v -0.731836h 0.181345v 0.0246374h 0.181345v -1.00072h
 0.181345v 0.0924195h 0.181345v -0.898997h 0.181345v -0.493027h 0.181345v -1.05713h 0.181345v -0.387134h 0.181345v 1.7209h 0.181345v 0.347786h 0.181345v -0.065841h 0.181345v 0.903149h 0.181345v 0.473317h 0.181345v 0.969345h 0.181345v 2.42527h
 0.181345v -1.52457h 0.181345v 1.67692h 0.181345v 1.24599h 0.181345v -0.652176h 0.181345v 0.453461h 0.181345v 0.570166h 0.181345v 0.700445h 0.181345v -0.836609h 0.181345v 1.16306h 0.181345v -0.750718h 0.181345v 0.352698h 0.181345v 0.694424h 0.181345v
 -0.222863h 0.181345v 0.148199h 0.181345v 0.492253h 0.181345v -0.677268h 0.181345v -0.146351h 0.181345v 0.518745h 0.181345v 1.13668h 0.181345v -2.22665h 0.181345v 0.64422h 0.181345v -0.253902h 0.181345v 1.71458h 0.181345v -0.359321h 0.181345v
 -1.21071h 0.181345v 1.09287h 0.181345v 0.157337h 0.181345v 0.279466h 0.181345v -1.0498h 0.181345v 0.849642h 0.181345v -0.469529h 0.181345v -1.14767h 0.181345v -0.524664h 0.181345v 1.32979h 0.181345v 0.693273h 0.181345v -0.0393867h 0.181345v
 -0.11753h 0.181345v -0.498689h 0.181345v 0.113587h 0.181345v 0.740554h 0.181345v -2.52762h 0.181345v 2.01691h 0.181345v -0.605098h 0.181345v 0.721385h 0.181345v -1.72373h 0.181345v -0.709234h 0.181345v 0.640192h 0.181345v -0.869184h 0.181345v
 1.57468h 0.181345v -1.44427h 0.181345v 0.131584h 0.36269v -0.261999h 0.181345v -0.666282h 0.181345v -0.306947h 0.181345v 1.53568h 0.181345v -0.39925h 0.181345v 0.534785h 0.181345v -0.101768h 0.181345v 1.34436h 0.181345v 1.19598h 0.181345v -0.513458h
 0.181345v 0.195363h 0.181345v -0.951795h 0.181345v 0.335577h 0.181345v 0.304874h 0.181345v -0.713993h 0.181345v 2.60176h 0.181345v -1.53704h 0.181345v -0.880174h 0.181345v 1.40206h 0.181345v -0.24318h 0.36269v 0.657658h 0.181345v -1.13225h 0.181345v
 1.73292h 0.181345v -2.19264h 0.181345v 0.0377646h 0.181345v 0.977161h 0.36269v 1.13399h 0.181345v -2.59467h 0.181345v 1.99574h 0.181345v 0.0419787h 0.181345v -1.17112h 0.181345v 0.594071h 0.181345v 1.13399h 0.181345v -0.807032h 0.181345v 0.0413866h
 0.181345v -0.287284h 0.181345v 1.00933h 0.181345v -0.386681h 0.181345v 0.517873h 0.181345v -1.81565h 0.181345v 2.58208h 0.181345v -2.14879h 0.181345v -0.433285h 0.181345v 0.274242h 0.181345v 0.771296h 0.181345v 1.26144h 0.181345v -1.50942h 0.181345v
 0.331574h 0.181345v -0.331574h 0.181345v -0.52332h 0.181345v 0.441584h 0.181345v -1.61898h 0.181345v 0.942014h 0.181345v 0.274977h 0.181345v 0.280229h 0.181345v -0.0403619h 0.181345v 0.12142h 0.181345v -1.17122h 0.181345v 0.341655h 0.181345v
 0.547801h 0.181345v -0.354497h 0.181345v 0.0780403h 0.181345v 0.639733h 0.181345v 0.92782h 0.181345v -2.44089h 0.181345v 0.411204h 0.181345v 1.55844h 0.181345v -0.0840778h 0.181345v -0.894387h 0.181345v 0.198535h 0.181345v -1.11581h 0.181345v
 1.35765h 0.181345v -0.0405852h 0.181345v -1.01763h 0.181345v 0.26711h 0.181345v 1.16152h 0.181345v -1.69096h 0.181345v -0.830346h 0.181345v 1.78961h 0.181345v -0.236008h 0.181345v -0.980982h 0.181345v 1.41661h 0.181345v -1.63397h 0.181345v 1.15937h
 0.181345v -0.647099h 0.181345v 1.77935h 0.181345v -2.14708h 0.181345v 0.330537h 0.181345v 0.762329h 0.181345v 1.35147h 0.181345v 0.748037h 0.181345v -1.90257h 0.181345v 1.45795h 0.181345v -1.37843h 0.181345v 1.55466h 0.181345v -0.818889h 0.181345v
 0.296405h 0.181345v 0.302517h 0.181345v -0.640781h 0.181345v 0.424062h 0.181345v -1.47248h 0.181345v 2.72952h 0.181345v -1.88863h 0.181345v 1.06827h 0.181345v 0.634054h 0.181345v -0.455675h 0.181345v 0.641982h 0.181345v 1.06926h 0.181345v -1.57602h
 0.181345v -0.663984h 0.181345v 1.99006h 0.181345v -0.0987986h 0.181345v 0.80967h 0.181345v -1.05379h 0.181345v 0.048501h 0.181345v -1.25633h 0.181345v 1.06329h 0.181345v 0.487471h 0.181345v 0.815295h 0.181345v -0.615679h 0.181345v 0.151515h
 0.181345v 1.60798h 0.181345v -1.09132h 0.181345v -0.668172h 0.181345v 0.253401h 0.181345v 1.90808h 0.181345v -1.65023h 0.181345v 0.315529h 0.181345v 1.68824h 0.181345v -1.1468h 0.181345v 1.57034h 0.181345v -1.51508h 0.181345v 0.392761h 0.181345v
 0.520938h 0.181345v -1.1335h 0.181345v 1.67362h 0.181345v -0.540118h 0.181345v -0.175709h 0.181345v 1.15011h 0.181345v -2.1079h 0.181345v -0.429966h 0.181345v 1.21413h 0.181345v 2.16605h 0.181345v -1.63887h 0.181345v -0.584601h 0.181345v 2.02476h
 0.181345v -2.02476h 0.181345v 0.704369h 0.181345v -0.473317h 0.181345v 0.533569h 0.181345v 0.428844h 0.181345v -0.368343h 0.181345v 0.8101h 0.181345v -0.565568h 0.181345v -0.18378h 0.181345v -0.420073h 0.181345v 1.42796h 0.181345v -1.06864h
 0.181345v 2.43442h 0.181345v -2.55517h 0.181345v 2.20162h 0.181345v -2.02012h 0.181345v 1.07324h 0.181345v 0.3312h 0.181345v -1.94235h 0.181345v 1.87551h 0.181345v 0.133988h 0.181345v -0.722235h 0.181345v -1.80616h 0.181345v 1.67858h 0.181345v
 2.33591h 0.181345v -1.88445h 0.181345v -1.66972h 0.181345v 1.93408h 0.181345v -0.90514h 0.181345v 0.575428h 0.181345v -1.72081h 0.181345v 1.72081h 0.181345v 0.0653522h 0.181345v 0.131584h 0.181345v -1.38633h 0.181345v 0.42706h 0.181345v 1.63549h
 0.181345v -2.12256h 0.181345v 0.18076h 0.181345v 1.59979h 0.181345v -1.29348h 0.181345v 0.0620362h 0.181345v -0.368343h 0.181345v 0.183015h 0.181345v 1.41677h 0.181345v 0.481077h 0.181345v -1.3347h 0.181345v 1.83208h 0.181345v -1.11307h 0.181345v
 0.476612h 0.181345v -1.19563h 0.181345v 0.0639284h 0.181345v -1.05062h 0.181345v 1.97616h 0.181345v -0.601651h 0.181345v -0.387817h 0.181345v 0.192627h 0.181345v 1.63946h 0.181345v -0.567087h 0.181345v -0.679359h 0.181345v -0.457502h 0.181345v
 -0.191788h 0.181345v -0.376214h 0.181345v 1.29348h 0.181345v -1.53904h 0.181345v 1.95042h 0.181345v -2.13192h 0.181345v -0.238567h 0.181345v 0.978465h 0.181345v 1.11649h 0.181345v -0.536006h 0.181345v -1.49967h 0.181345v 1.49967h 0.181345v -1.38039h
 0.181345v -1.20656h 0.181345v -0.70006h 0.181345v 0.810789h 0.181345v -1.32745h 0.181345v 0.889457h 0.181345v -0.160933h 0.181345v -1.94577h 0.181345v -1.25321h 0.181345v -0.3811h 0.181345v 2.95344h 0.181345v -1.91431h 0.181345v 0.271703h 0.181345v
 -0.405691h 0.181345v -1.35787h 0.181345v 0.876797h 0.181345v -1.27659h 0.181345v 1.02069h 0.181345v -0.498797h 0.181345v 1.19139h 0.181345v -0.734811h 0.181345v 0.427772h 0.181345v 0.44062h 0.181345v -1.11919h 0.181345v 0.722045h 0.181345v 0.486883h
 0.181345v -0.873564h 0.181345v 2.74294h 0.181345v 0.73373h 0.181345v -2.9588h 0.181345v 2.12318h 0.181345v -3.05908h 0.181345v 1.70232h 0.181345v -0.634054h 0.181345v 1.49173h 0.181345v -2.22654h 0.181345v 1.69647h 0.181345v 0.0949618h 0.181345v
 -1.74921h 0.181345v -1.25544h 0.181345v -2.22832h 0.181345v 0.68252h 0.181345v -1.43007h 0.181345v -1.12796h 0.181345v -1.37165h 0.181345v -1.0567h 0.181345v -2.40304h 0.181345v -0.760993h 0.181345v -1.48555h 0.181345v -1.57837h 0.181345v -1.26167h
 0.181345v -1.03709h 0.181345v -2.23976h 0.181345v -0.236834h 0.181345v -0.643491h 0.181345v -0.957416h 0.181345v -0.0944861h 0.181345v -0.694883h 0.181345v -0.644363h 0.181345v 0.977477h 0.181345v 0.0408963h 0.181345v 0.49986h 0.181345v 0.138362h
 0.181345v 0.892799h 0.181345v 0.544096h 0.181345v 0.63878h 0.181345v 0.862534h 0.181345v 0.916427h 0.181345v 1.67773h 0.181345v 1.61352h 0.181345v 1.3289h 0.181345v 2.28387h 0.181345v 1.42509h 0.181345v 1.41553h 0.181345v 2.52975h 0.181345v 2.36364h
 0.181345v 2.54726h 0.181345v -0.441947h 0.181345v 3.69339h 0.181345v -0.763747h 0.181345v 1.51041h 0.181345v 0.849004h 0.181345v 0.379458h 0.181345v -0.127579h 0.181345v 2.041h 0.181345v -1.39171h 0.181345v 2.06381h 0.181345v -1.03259h 0.181345v
 0.360498h 0.181345v 0.444626h 0.181345v 0.3811h 0.181345v 1.98119h 0.181345v -2.87973h 0.181345v 0.821522h 0.181345v 2.14686h 0.181345v -0.176768h 0.181345v -1.97009h 0.181345v 1.79543h 0.181345v -0.172608h 0.181345v -2.58889h 0.181345v 1.59383h
 0.181345v 0.995062h 0.181345v 0.172608h 0.181345v -0.76123h 0.181345v 0.76123h 0.181345v -0.172608h 0.181345v -0.833835h 0.181345v -1.16811h 0.181345v 0.768319h 0.181345v -0.312172h 0.181345v 1.29064h 0.181345v 0.255164h 0.181345v -1.5458h 0.36269v
 -0.0770161h 0.181345v 0.547801h 0.181345v 0.904415h 0.36269v 1.33066h 0.181345v -2.5506h 0.181345v 1.39055h 0.36269v 0.435389h 0.181345v -2.36229h 0.181345v 4.04622h 0.181345v -2.37449h 0.36269v 0.255164h 0.181345v 1.16006h 0.181345v 0.664844h
 0.181345v -1.47763h 0.181345v -0.517873h 0.181345v 1.61191h 0.181345v 1.38888h 0.181345v -1.9461h 0.181345v 0.369115h 0.181345v -1.50837h 0.181345v 4.27706h 0.181345v -1.70296h 0.181345v -1.25145h 0.181345v -0.981441h 0.181345v 2.13274h 0.181345v
 -0.871833h 0.181345v -0.186901h 0.181345v -0.457094h 0.181345v -0.873564h 0.181345v 2.19113h 0.181345v -0.579215h 0.181345v 1.49331h 0.181345v 0.642652h 0.181345v -2.23031h 0.181345v 1.69283h 0.181345v -1.21489h 0.181345v -2.41352h 0.181345v
 1.56413h 0.181345v 0.94688h 0.181345v -0.386115h 0.181345v 1.50352h 0.181345v -2.6044h 0.181345v -0.0881176h 0.181345v 2.48292h 0.181345v -1.19834h 0.36269v -1.19646h 0.181345v 2.29112h 0.181345v -0.607185h 0.181345v -0.678014h 0.181345v -0.557214h
 0.181345v 2.36833h 0.181345v -1.62057h 0.181345v 0.991698h 0.181345v -1.37034h 0.181345v 0.188099h 0.181345v 0.286749h 0.181345v -1.20402h 0.181345v -1.59906h 0.181345v 2.32823h 0.181345v -1.84183h 0.181345v 2.12489h 0.181345v -4.1969h 0.181345v
 -0.423247h 0.181345v -2.07167h 0.181345v -0.935555h 0.181345v 0.755533h 0.181345v -4.2654h 0.181345v -2.68237h 0.181345v -0.0370962h 0.181345v -1.03691h 0.181345v -3.04423h 0.181345v -1.39069h 0.181345v -1.29359h 0.181345v -1.29605h 0.181345v
 -2.52806h 0.181345v -1.1258h 0.181345v -0.715827h 0.181345v -0.468779h 0.181345v -1.7656h 0.181345v -0.601103h 0.181345v -0.220824h 0.181345v -0.63086h 0.181345v -0.232789h 0.181345v -0.442993h 0.181345v 0.0236067h 0.181345v -0.487935h 0.181345v
 1.22681h 0.181345v -0.868249h 0.181345v 0.164851h 0.181345v 1.18323h 0.181345v 0.363883h 0.181345v 1.34974h 0.181345v 0.174145h 0.181345v 2.35438h 0.181345v 0.864839h 0.181345v 2.51222h 0.181345v 1.66616h 0.181345v 1.52701h 0.181345v 1.58459h
 0.181345v 2.32651h 0.181345v 1.47206h 0.181345v 2.16517h 0.181345v 0.595183h 0.181345v 3.28555h 0.181345v 4.24024h 0.181345v 2.36605h 0.181345v -1.39835h 0.181345v 2.94415h 0.181345v 2.79771h 0.181345v 1.83634h 0.181345v 0.56984h 0.181345v
 -0.708908h 0.181345v 0.854895h 0.181345v 4.22074h 0.181345v -3.77386h 0.181345v 1.93752h 0.181345v -1.93752h 0.181345v 4.99719h 0.181345v -3.05967h 0.181345v -1.00072h 0.181345v 2.45094h 0.181345v 2.041h 0.181345v -2.41721h 0.181345v 1.98567h
 0.181345v -3.73435h 0.181345v 2.90756h 0.181345v 0.202369h 0.181345v -1.90808h 0.181345v 1.70571h 0.181345v 1.47896h 0.181345v -1.87551h 0.181345v 1.87551h 0.181345v -1.27659h 0.181345v 1.50059h 0.181345v -2.86184h 0.181345v 1.77456h 0.181345v
 -2.84857h 0.181345v 0.707199h 0.181345v 1.12914h 0.181345v 2.79278h 0.181345v -0.91727h 0.181345v 0.223997h 0.181345v -2.29384h 0.181345v 0.391264h 0.181345v 2.3611h 0.181345v -1.75391h 0.181345v 1.75391h 0.181345v -4.73558h 0.181345v 1.23067h
 0.181345v 0.371451h 0.181345v 1.37955h 0.181345v -3.14935h 0.181345v 0.508891h 0.181345v 0.707199h 0.181345v -0.35786h 0.181345v 0.177839h 0.181345v -0.527178h 0.181345v 3.49122h 0.181345v 0.672096h 0.181345v -3.08931h 0.181345v 0.376214h 0.181345v
 2.26163h 0.181345v -3.88345h 0.181345v 1.81361h 0.181345v 0.998449h 0.181345v 2.22723h 0.181345v -6.65317h 0.181345v 3.2357h 0.181345v -1.10088h 0.181345v 2.08592h 0.181345v -3.75494h 0.181345v 1.49331h 0.181345v 1.08728h 0.181345v -0.73373h
 0.181345v -0.868392h 0.181345v 0.868392h 0.181345v 0.73373h 0.181345v -1.93558h 0.181345v 2.70795h 0.181345v 1.24059h 0.181345v 0.661986h 0.181345v -3.58651h 0.181345v -0.520938h 0.181345v 2.00794h 0.181345v 0.598922h 0.181345v -0.401985h 0.181345v
 -0.583052h 0.181345v -3.38774h 0.181345v 2.82698h 0.181345v -0.540118h 0.181345v 1.68393h 0.181345v 1.24059h 0.181345v 0.661986h 0.181345v -1.08728h 0.181345v -1.01223h 0.181345v -2.17755h 0.181345v 1.23067h 0.181345v -0.715827h 0.181345v 0.533569h
 0.181345v 0.182258h 0.181345v -0.715827h 0.181345v 1.27659h 0.181345v 2.26163h 0.181345v -3.71185h 0.181345v 0.889457h 0.181345v -0.715827h 0.181345v 0.353548h 0.181345v 0.180021h 0.181345v 5.15555h 0.181345v -3.82947h 0.181345v 0.199616h 0.181345v
 0.202369h 0.181345v 0.2052h 0.181345v 0.419215h 0.181345v -1.60945h 0.181345v 0.782668h 0.36269v -2.05926h 0.181345v 4.22074h 0.181345v -1.95911h 0.181345v -0.793249h 0.181345v -1.29267h 0.181345v 2.92452h 0.181345v -3.27386h 0.181345v 5.1102h
 0.181345v -2.46974h 0.181345v -0.998449h 0.181345v 2.52131h 0.181345v -2.52131h 0.181345v -0.3811h 0.181345v 0.772365h 0.181345v 1.67858h 0.181345v -0.437989h 0.181345v -1.82364h 0.181345v 0.583052h 0.181345v 0.401985h 0.181345v -0.202369h 0.181345v
 -2.40449h 0.181345v 2.00794h 0.181345v 0.396552h 0.36269v 1.25833h 0.181345v -4.32982h 0.181345v 3.07149h 0.181345v -0.59088h 0.181345v 3.46819h 0.181345v -2.05052h 0.181345v -0.826784h 0.181345v 1.04097h 0.181345v -2.19985h 0.181345v 1.15888h
 0.181345v -1.34343h 0.181345v 1.95911h 0.181345v 0.211105h 0.181345v 2.05052h 0.181345v -3.27386h 0.181345v 0.598922h 0.181345v 0.624415h 0.181345v 1.10364h 0.181345v 1.44427h 0.181345v 1.60212h 0.181345v -2.34202h 0.181345v -2.6348h 0.181345v
 4.97682h 0.36269v -2.09951h 0.181345v 1.82004h 0.181345v -1.06749h 0.181345v -3.62986h 0.181345v 2.39623h 0.181345v -0.91727h 0.181345v 2.1509h 0.181345v 0.25968h 0.181345v -2.18658h 0.181345v 2.72015h 0.181345v -0.26921h 0.181345v -0.779203h
 0.181345v 2.17755h 0.181345v -3.39077h 0.181345v 3.10023h 0.181345v 0.889457h 0.181345v -1.72806h 0.181345v 3.68717h 0.181345v -5.23297h 0.181345v 4.88774h 0.181345v -1.61388h 0.181345v -0.889457h 0.181345v 4.70821h 0.181345v -3.50987h 0.181345v
 3.1186h 0.181345v 1.20656h 0.181345v -0.815295h 0.181345v -1.50609h 0.181345v 1.50609h 0.181345v -1.50609h 0.181345v -6.5334h 0.181345v 3.62182h 0.181345v 7.01352h 0.181345v -6.4146h 0.181345v 5.05934h 0.181345v -5.65826h 0.181345v 6.54772h
 0.181345v -0.889457h 0.181345v -0.838602h 0.181345v 2.19386h 0.181345v -2.19386h 0.181345v -0.401985h 0.181345v 0.815295h 0.181345v 1.78055h 0.181345v 0.978465h 0.181345v 0.514844h 0.181345v -3.68717h 0.181345v -2.26163h 0.181345v 7.03608h 0.181345v
 -1.08728h 0.181345v -1.49331h 0.181345v 3.75494h 0.181345v -3.27386h 0.181345v 1.5458h 0.181345v 1.12914h 0.181345v -2.67494h 0.181345v 4.55045h 0.181345v -10.4992h 0.181345v 2.87187h 0.181345v 5.17643h 0.181345v 3.13346h 0.181345v -1.3347h
 0.181345v -2.88604h 0.181345v 6.48237h 0.181345v -0.793249h 0.181345v -6.20396h 0.181345v 7.83581h 0.181345v -4.43493h 0.181345v -2.35247h 0.181345v 3.00465h 0.181345v 2.94415h 0.181345v -4.22074h 0.181345v 0.624415h 0.181345v -3.40089h 0.181345v
 7.83581h 0.181345v -3.78275h 0.181345v 1.39835h 0.181345v 1.5458h 0.181345v -4.81966h 0.181345v 4.02641h 0.181345v -2.1509h 0.181345v 2.1509h 0.181345v -5.15555h 0.181345v 11.8976h 0.181345v -10.7685h 0.181345v 4.02641h 0.181345v 0.793249h 0.181345v
 2.67494h 0.36269v -2.67494h 0.181345v -2.26163h 0.181345v -1.3347h 0.181345v 1.3347h 0.181345v -3.68717h 0.181345v 4.403h 0.181345v -5.45141h 0.544034v 2.77647h 0.181345v -2.26163h 0.181345v -0.514844h 0.181345v -2.75902h 0.181345v 2.75902h 0.36269v
 -2.33372h 0.181345v -0.425292h 0.36269v -0.41331h 0.181345v -1.17435h 0.181345v 0.772365h 0.181345v 4.62272h 0.181345v -6.12882h 0.181345v 0.73373h 0.181345v 1.17435h 0.181345v 0.838602h 0.181345v -3.78275h 0.181345v -0.652176h 0.181345v 2.42197h
 0.181345v -2.09951h 0.181345v -0.322464h 0.181345v -0.926932h 0.181345v 0.611403h 0.181345v 2.36605h 0.181345v 5.23297h 0.181345v -1.49331h 0.181345v 3.75494h 0.181345v -5.53549h 0.181345v 1.31475h 0.181345v -0.451468h 0.181345v 2.41058h 0.181345v
 -2.84857h 0.181345v 5.1102h 0.181345v -4.22074h 0.181345v 6.17985h 0.181345v -2.55803h 0.181345v -1.66271h 0.181345v -2.41058h 0.181345v 7.34715h 0.181345v -10.1695h 0.181345v 4.22074h 0.181345v 3.89827h 0.181345v -5.29662h 0.181345v -4.87292h
 0.181345v 7.81706h 0.181345v -2.49268h 0.181345v -6.54772h 0.181345v -0.575428h 0.181345v 1.48324h 0.181345v -0.907808h 0.181345v -1.12914h 0.181345v -5.58199h 0.181345v 0.376214h 0.181345v -3.38774h 0.181345v -0.29943h 0.181345v 0.91727h 0.181345v
 -4.22074h 0.181345v 0.727664h 0.181345v -2.92152h 0.181345v -1.63721h 0.181345v 1.3347h 0.181345v -0.58694h 0.181345v -1.97109h 0.181345v -0.815295h 0.181345v -0.772365h 0.181345v -0.876173h 0.181345v -1.60945h 0.181345v 2.041h 0.181345v -2.23031h
 0.181345v -0.673968h 0.181345v -0.58694h 0.181345v -1.98785h 0.181345v 0.826784h 0.181345v 0.763747h 0.181345v -1.23453h 0.181345v -2.67494h 0.181345v 1.7764h 0.181345v 0.145987h 0.181345v -0.854895h 0.181345v 0.516492h 0.181345v -0.925956h
 0.181345v -0.0894609h 0.181345v -0.525604h 0.181345v -0.382204h 0.181345v -0.0418589h 0.181345v -0.0833613h 0.181345v -0.690075h 0.181345v -0.236008h 0.181345v 0.236008h 0.181345v 0.280229h 0.181345v -0.319828h 0.181345v -0.351665h 0.181345v
 -0.67901h 0.181345v -0.110175h 0.181345v 0.333038h 0.181345v -1.04712h 0.181345v 1.15984h 0.181345v -0.878359h 0.181345v -0.176555h 0.181345v -0.278142h 0.181345v 2.42904h 0.181345v -0.79111h 0.181345v 1.20326h 0.181345v -1.65823h 0.181345v
 0.687854h 0.181345v 1.05421h 0.181345v 0.426528h 0.181345v 2.03971h 0.181345v -0.632702h 0.181345v 3.59897h 0.181345v -1.72129h 0.181345v 2.27969h 0.181345v 2.25109h 0.181345v 1.14979h 0.181345v -0.315529h 0.181345v 3.0224h 0.181345v 0.787923h
 0.181345v 0.725949h 0.181345v 3.32711h 0.181345v 1.5458h 0.181345v 3.49786h 0.181345v 1.37955h 0.181345v -2.81206h 0.181345v 3.66282h 0.181345v 4.29391h 0.181345v -0.575428h 0.181345v 5.8084h 0.181345v 1.78055h 0.181345v 0.481077h 0.181345v 3.89827h
 0.181345v -1.22334h 0.181345v 1.87551h 0.181345v 5.61909h 0.36269v -2.67494h 0.181345v 5.9488h 0.181345v -3.27386h 0.181345v -1.83634h 0.181345v 6.38679h 0.181345v -6.38679h 0.181345v 9.33094h 0.181345v 5.9488h 0.181345v -2.26163h 0.181345v 18.38h
 0.181345v -10.1695h 0.181345v -10.1695h 0.181345v -3.27386h 0.181345v 5.23297h 0.36269v 4.93657h 0.36269v -10.1695h 0.181345v 23.6129h 0.181345v -25.0113h 0.181345v 6.63132h 0.181345v 8.21043h 0.181345v -5.9488h 0.181345v 10.1695h 0.181345v
 -4.22074h 0.181345v 4.22074h 0.181345v 5.9488h 0.181345v -5.9488h 0.36269v -14.3903h 0.181345v -1.72806h 0.181345v 11.8976h 0.181345v -5.9488h 0.181345v -2.26163h 0.181345v -1.95911h 0.181345v 1.95911h 0.181345v 4.93657h 0.181345v -4.93657h
 0.181345v 4.93657h 0.181345v 7.4946h 0.181345v 5.9488h 0.181345v -10.1695h 0.181345v -5.9488h 0.181345v 10.1695h 0.181345v -14.3903h 0.181345v 6.89568h 0.181345v -2.67494h 0.181345v 5.9488h 0.181345v -8.21043h 0.181345v 8.21043h 0.181345v -8.21043h
 0.181345v 4.93657h 0.181345v -6.89568h 0.181345v 10.1695h 0.181345v -3.27386h 0.181345v 3.27386h 0.181345v -3.27386h 0.181345v -11.5679h 0.181345v 19.0625h 0.181345v -10.1695h 0.181345v -2.26163h 0.181345v 18.38h 0.181345v -10.1695h 0.181345v
 -11.8976h 0.181345v 3.68717h 0.181345v 4.93657h 0.181345v -10.1695h 0.181345v 3.27386h 0.181345v -3.27386h 0.181345v -6.89568h 0.181345v 17.0652h 0.181345v -6.89568h 0.181345v 4.22074h 0.181345v -4.22074h 0.181345v -3.27386h 0.181345v 5.23297h
 0.181345v -9.08226h 0.181345v 7.12315h 0.181345v -11.8976h 0.36269v -2.94415h 0.181345v 8.89295h 0.181345v -8.21043h 0.181345v 4.93657h 0.181345v -3.46819h 0.181345v 1.63185h 0.181345v -7.32097h 0.181345v 0.533569h 0.181345v 1.72806h 0.181345v
 2.67494h 0.181345v -0.715827h 0.181345v -1.3347h 0.181345v -5.73461h 0.181345v 2.84857h 0.181345v 0.533569h 0.181345v -3.80743h 0.181345v 4.36114h 0.181345v -1.08728h 0.181345v -5.9488h 0.181345v 8.83484h 0.181345v -4.37935h 0.181345v 3.15602h
 0.181345v -1.66271h 0.181345v -2.41058h 0.181345v -1.27659h 0.181345v 10.1695h 0.181345v -6.48237h 0.181345v 1.66271h 0.181345v 2.55803h 0.181345v -0.68252h 0.181345v -1.87551h 0.181345v 5.65826h 0.181345v -4.43493h 0.36269v 0.652176h 0.181345v
 5.61909h 0.36269v -0.94688h 0.181345v -1.72806h 0.181345v 4.77445h 0.181345v -1.08728h 0.181345v -1.95911h 0.181345v 12.1286h 0.181345v -5.23297h 0.181345v -1.39835h 0.181345v 4.67221h 0.181345v -1.72806h 0.181345v -1.5458h 0.36269v 7.4946h
 0.181345v 2.67494h 0.181345v -6.89568h 0.181345v -1.72806h 0.181345v 16.1183h 0.181345v -12.4312h 0.181345v 28.5495h 0.181345v -28.5495h 0.181345v 2.26163h 0.181345v -2.26163h 0.36269v 8.21043h 0.181345v 4.22074h 0.181345v -14.3903h 0.181345v
 14.3903h 0.181345v -7.4946h 0.181345v 13.4434h 0.181345v -16.1183h 0.181345v -2.26163h 0.181345v 4.93657h 0.36269v -12.8445h 0.181345v 16.1183h 0.181345v 4.22074h 0.181345v 16.1183h 0.181345v -23.6129h 0.36269v 7.4946h 0.181345v -4.22074h 0.181345v
 -3.27386h 0.181345v -4.93657h 0.181345v -1.95911h 0.181345v 10.1695h 0.181345v -10.1695h 0.181345v 4.22074h 0.181345v -4.22074h 0.181345v 10.1695h 0.181345v -11.8976h 0.181345v 16.1183h 0.181345v -20.3391h 0.181345v 10.1695h 0.181345v 2.67494h
 0.36269v -2.67494h 0.181345v 5.9488h 0.181345v 10.1695h 0.181345v -10.1695h 0.181345v -5.9488h 0.181345v 16.1183h 0.181345v -18.38h 0.181345v 4.93657h 0.181345v -2.67494h 0.36269v 5.9488h 0.181345v -13.4434h 0.181345v 10.1695h 0.181345v -11.5679h
 0.181345v -2.45094h 0.181345v 5.39509h 0.181345v 8.62374h 0.181345v -6.89568h 0.181345v 4.22074h 0.181345v -2.26163h 0.181345v 4.93657h 0.181345v -10.1695h 0.36269v -5.9488h 0.181345v 13.4434h 0.181345v -11.3439h 0.181345v 1.17435h 0.181345v
 10.1695h 0.181345v -12.4312h 0.181345v 4.93657h 0.181345v -3.84929h 0.36269v 2.45094h 0.181345v -3.53822h 0.181345v 4.93657h 0.181345v -1.39835h 0.181345v 4.67221h 0.181345v -10.1695h 0.181345v 5.49733h 0.36269v -1.27659h 0.181345v 10.1695h
 0.544034v -12.4312h 0.181345v 4.93657h 0.36269v 1.5458h 0.181345v -9.33094h 0.181345v 7.78513h 0.181345v 3.27386h 0.181345v -4.67221h 0.181345v 19.0625h 0.181345v -10.1695h 0.181345v -5.9488h 0.181345v -6.48237h 0.181345v 18.38h 0.181345v -11.8976h
 0.36269v -2.94415h 0.181345v -2.45094h 0.181345v 5.39509h 0.181345v 8.62374h 0.181345v -4.93657h 0.181345v -5.23297h 0.181345v 5.23297h 0.181345v 18.38h 0.181345v -25.0113h 0.181345v -3.53822h 0.181345v 22.6007h 0.181345v -14.3903h 0.181345v
 14.3903h 0.181345v -12.4312h 0.544034v 8.21043h 0.181345v -5.9488h 0.181345v -2.26163h 0.181345v -6.63132h 0.181345v 1.39835h 0.181345v 13.4434h 0.181345v -13.4434h 0.181345v 5.23297h 0.181345v 2.26163h 0.181345v 5.9488h 0.181345v -11.8976h
 0.181345v -1.5458h 0.181345v -1.39835h 0.181345v 1.39835h 0.181345v 5.23297h 0.181345v 8.21043h 0.181345v -17.2927h 0.181345v 5.39509h 0.181345v 5.9488h 0.181345v -13.4434h 0.181345v 4.55045h 0.181345v 19.0625h 0.181345v -14.3903h 0.181345v 1.95911h
 0.181345v 2.26163h 0.181345v -7.4946h 0.181345v 10.1695h 0.181345v -2.67494h 0.181345v -4.22074h 0.181345v -5.9488h 0.181345v 12.8445h 0.181345v -10.1695h 0.181345v -3.84929h 0.181345v 7.12315h 0.181345v -4.67221h 0.181345v 2.94415h 0.181345v
 -6.48237h 0.181345v 8.21043h 0.181345v -3.27386h 0.181345v -4.93657h 0.181345v -3.68717h 0.181345v 2.67494h 0.181345v 2.09951h 0.181345v 2.45094h 0.181345v 2.94415h 0.181345v -10.9628h 0.181345v 10.9628h 0.181345v -2.94415h 0.181345v 1.39835h
 0.181345v -1.39835h 0.181345v 8.89295h 0.181345v -10.1695h 0.181345v -1.17435h 0.36269v -3.04639h 0.181345v 0.94688h 0.181345v 4.55045h 0.181345v -2.45094h 0.181345v -1.08728h 0.181345v 1.08728h 0.181345v -3.93585h 0.181345v 6.38679h 0.544034v
 -3.53822h 0.181345v 4.93657h 0.181345v -9.41699h 0.181345v -0.752552h 0.181345v 2.3844h 0.181345v -5.05934h 0.181345v 5.9488h 0.181345v 3.04639h 0.181345v -3.93585h 0.181345v -1.63185h 0.181345v 3.46819h 0.181345v 2.09951h 0.181345v 2.45094h
 0.181345v -6.38679h 0.181345v -1.63185h 0.181345v 3.46819h 0.36269v 3.27386h 0.181345v -4.22074h 0.181345v -2.52131h 0.181345v 1.63185h 0.181345v -0.838602h 0.181345v 3.68717h 0.181345v -1.01223h 0.181345v -0.94688h 0.181345v -3.98969h 0.181345v
 2.26163h 0.181345v -4.81966h 0.181345v 4.81966h 0.181345v -6.99721h 0.181345v 4.73558h 0.181345v 14.1592h 0.181345v -16.1183h 0.181345v 1.27659h 0.181345v 0.68252h 0.36269v -0.68252h 0.181345v 5.61909h 0.181345v -0.94688h 0.181345v 8.44148h
 0.181345v -7.4946h 0.181345v -2.67494h 0.181345v -4.22074h 0.181345v 4.22074h 0.181345v 1.72806h 0.181345v -2.52131h 0.181345v -1.46838h 0.181345v 2.26163h 0.181345v 1.72806h 0.181345v -3.98969h 0.181345v 7.03608h 0.181345v -5.5677h 0.181345v
 -0.752552h 0.181345v -2.05052h 0.36269v -1.22334h 0.181345v 8.50683h 0.181345v -7.90791h 0.36269v 5.05934h 0.181345v -1.63185h 0.181345v -2.80307h 0.544034v 0.652176h 0.181345v -7.22539h 0.181345v 8.62374h 0.181345v -2.67494h 0.181345v -0.598922h
 0.181345v -4.51127h 0.181345v 12.0059h 0.181345v -4.22074h 0.36269v -4.93657h 0.181345v 0.533569h 0.181345v -2.49268h 0.181345v 6.17985h 0.181345v -1.95911h 0.181345v -5.9488h 0.181345v 11.0081h 0.181345v -3.78275h 0.181345v -1.87551h 0.36269v
 2.55803h 0.181345v -3.68717h 0.36269v -2.49268h 0.181345v 4.84515h 0.181345v 2.05052h 0.181345v -7.34715h 0.181345v -1.67858h 0.181345v 1.24059h 0.181345v 2.33372h 0.181345v 1.60212h 0.181345v 1.17435h 0.181345v -4.67221h 0.181345v 4.07329h
 0.181345v -4.07329h 0.36269v 4.67221h 0.181345v -5.9488h 0.181345v -1.90808h 0.181345v 2.74668h 0.181345v -0.838602h 0.181345v 0.41331h 0.181345v -0.41331h 0.181345v 4.77445h 0.181345v -4.36114h 0.181345v -4.00963h 0.181345v 4.43493h 0.181345v
 -1.63185h 0.36269v -1.46838h 0.181345v -3.41293h 0.181345v 6.95115h 0.181345v -1.27659h 0.181345v -0.401985h 0.181345v -3.19434h 0.181345v 3.59632h 0.181345v -0.793249h 0.181345v -0.3811h 0.181345v 0.772365h 0.181345v -3.19434h 0.181345v 5.32438h
 0.181345v -0.889457h 0.181345v -3.10023h 0.181345v 5.43395h 0.181345v -5.08041h 0.181345v -0.698777h 0.181345v 4.33492h 0.181345v 1.44427h 0.181345v -7.08418h 0.181345v 8.13259h 0.181345v -7.16489h 0.181345v 4.67221h 0.181345v -1.31475h 0.181345v
 0.425292h 0.36269v 1.35526h 0.181345v -1.78055h 0.181345v 0.863281h 0.181345v -2.06984h 0.181345v 1.63185h 0.181345v -0.425292h 0.181345v 2.26163h 0.181345v 5.9488h 0.181345v -2.05052h 0.181345v -2.35247h 0.181345v 4.403h 0.181345v -2.05052h
 0.181345v -2.35247h 0.181345v 4.403h 0.181345v -3.84929h 0.181345v -2.58059h 0.181345v 2.58059h 0.181345v -4.36114h 0.181345v 8.21043h 0.181345v -1.39835h 0.181345v -1.87551h 0.181345v -0.575428h 0.36269v 1.79876h 0.36269v 0.652176h 0.181345v
 -2.45094h 0.181345v 1.17435h 0.181345v 1.95911h 0.181345v -0.68252h 0.181345v -4.05306h 0.181345v 1.60212h 0.181345v 3.84929h 0.181345v 0.752552h 0.181345v -5.15555h 0.181345v 3.00465h 0.36269v 10.1695h 0.181345v -7.22539h 0.181345v -4.22074h
 0.181345v -4.67221h 0.181345v 5.9488h 0.181345v 7.7186h 0.181345v -7.7186h 0.181345v -0.652176h 0.181345v 0.652176h 0.181345v 0.68252h 0.181345v -1.3347h 0.181345v -3.40089h 0.181345v 2.17755h 0.181345v 0.598922h 0.181345v -1.72806h 0.181345v
 5.15555h 0.181345v 0.793249h 0.181345v -2.94415h 0.181345v -2.45094h 0.181345v 2.45094h 0.181345v 1.39835h 0.181345v -6.89568h 0.181345v 5.49733h 0.181345v -2.45094h 0.181345v 4.60184h 0.181345v -6.20396h 0.181345v 9.67215h 0.181345v -2.67494h
 0.181345v -2.94415h 0.181345v -0.652176h 0.181345v 6.27126h 0.181345v -3.46819h 0.36269v 0.793249h 0.181345v -6.99721h 0.181345v 4.73558h 0.181345v -0.68252h 0.181345v 2.1509h 0.181345v 0.793249h 0.181345v -4.81966h 0.181345v 4.81966h 0.181345v
 -4.81966h 0.181345v 4.81966h 0.181345v -5.39509h 0.181345v 3.13346h 0.181345v -0.68252h 0.181345v 0.68252h 0.181345v 2.26163h 0.181345v -4.81966h 0.181345v -2.67494h 0.181345v 5.23297h 0.181345v -1.95911h 0.181345v 1.95911h 0.181345v 4.93657h
 0.181345v -2.67494h 0.181345v 2.67494h 0.181345v -9.67215h 0.181345v 2.17755h 0.181345v -4.07329h 0.181345v 1.39835h 0.181345v 4.55045h 0.181345v -1.87551h 0.181345v -0.575428h 0.181345v 1.79876h 0.181345v 0.652176h 0.181345v -3.53822h 0.181345v
 1.66271h 0.181345v 0.598922h 0.181345v 6.89568h 0.181345v -10.1695h 0.181345v 3.27386h 0.181345v -1.72806h 0.181345v 2.35247h 0.181345v 2.05052h 0.181345v 4.22074h 0.181345v -5.61909h 0.181345v -5.9488h 0.181345v 6.63132h 0.36269v -2.55803h 0.36269v
 -1.12914h 0.36269v 7.67686h 0.181345v -7.67686h 0.181345v -0.533569h 0.36269v 0.533569h 0.181345v -1.04841h 0.181345v 4.05306h 0.181345v 0.68252h 0.181345v -6.17985h 0.181345v 8.44148h 0.181345v -4.22074h 0.181345v -0.598922h 0.181345v -1.12914h
 0.181345v -0.533569h 0.181345v 5.68912h 0.181345v -1.46838h 0.181345v 3.10023h 0.181345v -10.1695h 0.181345v 13.0181h 0.181345v -9.08226h 0.181345v 1.17435h 0.181345v -2.77647h 0.181345v 1.04841h 0.181345v -1.04841h 0.181345v 4.73558h 0.181345v
 -6.63132h 0.181345v 4.07329h 0.181345v -2.17755h 0.181345v 1.04841h 0.181345v 3.68717h 0.181345v -5.23297h 0.181345v 2.67494h 0.181345v 7.4946h 0.181345v -11.5679h 0.181345v 2.41058h 0.181345v 2.26163h 0.181345v -1.17435h 0.181345v 3.13346h
 0.181345v -5.23297h 0.181345v 2.09951h 0.36269v -1.08728h 0.181345v -1.49331h 0.181345v -0.465802h 0.181345v -0.889457h 0.181345v 7.06931h 0.181345v -3.68717h 0.181345v -2.02688h 0.36269v -0.465802h 0.181345v -1.31475h 0.181345v -1.20656h 0.181345v
 0.793249h 0.181345v -0.793249h 0.36269v 2.52131h 0.181345v -2.13004h 0.181345v 1.24059h 0.181345v -3.78275h 0.181345v 2.94415h 0.181345v -2.26163h 0.181345v 4.93657h 0.181345v -3.84929h 0.181345v 0.772365h 0.181345v 4.08916h 0.181345v -0.514844h
 0.181345v -0.497388h 0.181345v -1.39835h 0.181345v -0.863281h 0.181345v -0.815295h 0.181345v 3.57431h 0.181345v -3.17233h 0.181345v 2.67494h 0.181345v -1.39835h 0.181345v -3.18467h 0.181345v -0.353548h 0.181345v 5.9488h 0.181345v 2.26163h 0.181345v
 -1.72806h 0.181345v -2.94415h 0.181345v 0.91727h 0.181345v 3.75494h 0.36269v -4.22074h 0.181345v 4.22074h 0.181345v -2.26163h 0.181345v 3.53822h 0.181345v -2.45094h 0.181345v -3.04639h 0.181345v 3.04639h 0.181345v 1.17435h 0.181345v 3.42749h
 0.181345v -8.53769h 0.181345v 4.51127h 0.181345v -0.575428h 0.181345v 6.23369h 0.181345v 3.93585h 0.181345v -2.09951h 0.181345v -11.1164h 0.181345v 13.2159h 0.181345v -4.77445h 0.181345v 1.72806h 0.181345v -4.67221h 0.181345v 4.67221h 0.181345v
 -0.889457h 0.181345v -1.63185h 0.181345v -1.46838h 0.181345v -2.55803h 0.181345v 4.81966h 0.181345v 3.68717h 0.181345v -8.50683h 0.181345v 1.87551h 0.181345v 2.1509h 0.181345v -4.60184h 0.181345v 5.39509h 0.181345v -5.39509h 0.181345v 0.575428h
 0.36269v 4.02641h 0.181345v -2.80307h 0.181345v 2.80307h 0.181345v 0.793249h 0.36269v -2.94415h 0.181345v 0.68252h 0.181345v 1.46838h 0.181345v 4.48042h 0.181345v -5.9488h 0.181345v 1.46838h 0.181345v -9.77827h 0.181345v 6.35078h 0.181345v
 -0.598922h 0.181345v 1.22334h 0.36269v -2.35247h 0.181345v 1.12914h 0.181345v -6.52423h 0.181345v 6.52423h 0.181345v -2.17755h 0.181345v -1.89574h 0.181345v 7.34715h 0.181345v -8.62374h 0.181345v 8.62374h 0.181345v -6.89568h 0.181345v 3.62182h
 0.181345v 4.02641h 0.181345v -4.02641h 0.181345v 1.22334h 0.181345v 4.43493h 0.181345v -3.10023h 0.36269v 2.26163h 0.181345v -2.94415h 0.181345v -1.27659h 0.181345v 6.89568h 0.181345v -3.46819h 0.181345v 1.63185h 0.36269v -4.43493h 0.181345v
 3.59632h 0.181345v 5.9488h 0.181345v -10.1695h 0.181345v 10.1695h 0.181345v -5.9488h 0.181345v 1.72806h 0.181345v -1.72806h 0.181345v 1.72806h 0.181345v -0.889457h 0.181345v 1.83634h 0.181345v 4.55045h 0.181345v 4.67221h 0.181345v -3.27386h
 0.181345v -9.41699h 0.181345v 9.41699h 0.181345v -8.62374h 0.181345v 8.62374h 0.36269v 1.5458h 0.181345v -1.5458h 0.181345v -1.39835h 0.181345v -2.45094h 0.181345v 1.17435h 0.181345v 2.67494h 0.181345v -1.39835h 0.36269v -1.27659h 0.181345v -5.1102h
 0.181345v 11.059h 0.181345v -10.1695h 0.181345v 4.22074h 0.181345v 5.9488h 0.181345v -7.12315h 0.181345v 9.08226h 0.36269v -3.68717h 0.181345v -4.22074h 0.181345v 12.8445h 0.181345v -10.1695h 0.36269v -4.93657h 0.181345v 8.21043h 0.181345v 1.95911h
 0.181345v -7.90791h 0.181345v -6.74205h 0.181345v 9.41699h 0.181345v 3.27386h 0.181345v -3.27386h 0.181345v -1.39835h 0.181345v -7.22539h 0.181345v 1.72806h 0.181345v 8.44148h 0.181345v 5.9488h 0.181345v -16.1183h 0.181345v -1.5458h 0.181345v
 13.4434h 0.181345v -7.12315h 0.181345v 11.3439h 0.181345v -12.4312h 0.36269v -5.23297h 0.181345v 17.6641h 0.181345v -7.4946h 0.181345v -3.84929h 0.181345v -5.5677h 0.181345v 5.5677h 0.181345v 3.84929h 0.181345v -7.78513h 0.181345v 0.889457h
 0.181345v 8.44148h 0.181345v -13.7659h 0.181345v 9.54512h 0.181345v 2.67494h 0.181345v -4.93657h 0.181345v 4.93657h 0.181345v -4.93657h 0.36269v -2.84857h 0.36269v 5.1102h 0.181345v -7.4946h 0.181345v 5.23297h 0.181345v 2.26163h 0.181345v -2.26163h
 0.181345v -3.68717h 0.181345v -0.793249h 0.181345v 12.6908h 0.181345v -9.22266h 0.36269v -0.94688h 0.181345v 10.1695h 0.181345v -12.6908h 0.181345v 8.01864h 0.181345v -4.55045h 0.181345v -1.83634h 0.181345v 5.1102h 0.36269v -6.74205h 0.181345v
 8.01864h 0.181345v -6.38679h 0.181345v 0.889457h 0.181345v -2.52131h 0.181345v 6.74205h 0.181345v -3.27386h 0.181345v 9.22266h 0.181345v -10.1695h 0.181345v 3.04639h 0.181345v -3.04639h 0.181345v 3.04639h 0.181345v -3.93585h 0.181345v 9.33094h
 0.181345v -2.94415h 0.181345v -1.27659h 0.181345v 1.27659h 0.36269v -5.49733h 0.181345v 4.22074h 0.36269v -1.17435h 0.181345v 7.12315h 0.181345v -1.72806h 0.181345v -6.48237h 0.181345v 2.26163h 0.181345v 1.27659h 0.181345v -7.22539h 0.181345v
 8.62374h 0.181345v -2.67494h 0.181345v -2.26163h 0.181345v 1.08728h 0.181345v -3.93585h 0.181345v 11.059h 0.181345v -11.8976h 0.181345v 1.72806h 0.181345v 3.04639h 0.181345v -3.93585h 0.181345v -2.3844h 0.181345v 6.32025h 0.181345v 1.17435h
 0.181345v -5.9488h 0.181345v -4.22074h 0.181345v 11.4461h 0.181345v -3.53822h 0.181345v -4.48042h 0.181345v 0.793249h 0.181345v -3.59632h 0.181345v 5.32438h 0.181345v -5.9488h 0.181345v -1.72806h 0.181345v 5.15555h 0.181345v 4.48042h 0.181345v
 -6.63132h 0.181345v -0.652176h 0.181345v 2.05052h 0.181345v -2.67494h 0.181345v 2.67494h 0.181345v -3.27386h 0.181345v 4.02641h 0.181345v -4.02641h 0.181345v 3.27386h 0.181345v -1.39835h 0.36269v 1.39835h 0.181345v -3.84929h 0.181345v 0.575428h
 0.181345v -1.12914h 0.181345v 2.35247h 0.181345v -5.29662h 0.181345v 0.91727h 0.181345v 1.49331h 0.181345v -4.08916h 0.181345v 5.17643h 0.181345v 2.45094h 0.181345v -4.05306h 0.181345v 1.60212h 0.181345v 1.17435h 0.181345v 1.27659h 0.181345v
 -2.45094h 0.181345v -4.36114h 0.181345v 3.80743h 0.181345v -2.94415h 0.181345v 2.94415h 0.181345v 3.68717h 0.181345v -1.95911h 0.36269v 4.22074h 0.181345v -7.97568h 0.181345v 3.75494h 0.181345v -1.72806h 0.36269v 14.5725h 0.181345v -9.41699h
 0.181345v -1.46838h 0.181345v -3.13346h 0.181345v -0.553709h 0.181345v -1.04841h 0.181345v -1.89574h 0.181345v 6.63132h 0.181345v -3.68717h 0.181345v 4.403h 0.181345v 6.32025h 0.181345v -7.7186h 0.181345v -2.45094h 0.181345v 2.45094h 0.181345v
 0.68252h 0.181345v -0.68252h 0.181345v -1.27659h 0.181345v 1.95911h 0.181345v -3.13346h 0.181345v 7.12315h 0.181345v -3.27386h 0.181345v 3.27386h 0.181345v -0.889457h 0.181345v 3.93585h 0.181345v 1.17435h 0.181345v 4.22074h 0.181345v -4.22074h
 0.181345v 5.9488h 0.181345v -4.67221h 0.181345v -8.77119h 0.181345v 11.7153h 0.181345v -5.39509h 0.36269v 1.17435h 0.181345v 2.67494h 0.181345v -2.67494h 0.181345v 7.90791h 0.181345v 4.93657h 0.181345v -11.5679h 0.181345v 4.67221h 0.181345v
 -1.72806h 0.181345v -5.39509h 0.181345v 21.5134h 0.181345v -19.0625h 0.181345v 19.0625h 0.181345v -10.1695h 0.36269v 10.1695h 0.181345v -10.1695h 0.544034v 5.9488h 0.181345v 4.22074h 0.181345v -10.1695h 0.181345v 5.9488h 0.181345v -11.8976h
 0.181345v 22.0671h 0.36269v 10.1695h 0.181345v -16.1183h 0.181345v -4.22074h 0.181345v -3.27386h 0.181345v 13.4434h 0.181345v -5.9488h 0.181345v 5.9488h 0.181345v -5.9488h 0.181345v -4.22074h 0.181345v 4.22074h 0.36269v 16.1183h 0.181345v -16.1183h
 0.181345v 26.2879h 0.181345v -26.2879h 0.181345v 16.1183h 0.181345v -16.1183h 0.181345v 5.9488h 0.36269v 10.1695h 0.181345v -16.1183h 0.181345v 16.1183h 0.181345v 10.1695h 0.181345v -20.3391h 0.181345v -5.9488h 0.181345v 5.9488h 0.181345v 10.1695h
 0.544034v -16.1183h 0.36269v 16.1183h 0.181345v -20.3391h 0.181345v 30.5086h 0.36269v -10.1695h 0.181345v -16.1183h 0.181345v 16.1183h 0.544034v -10.1695h 0.181345v -5.9488h 0.181345v 26.2879h 0.181345v -10.1695h 0.181345v -20.3391h 0.181345v
 20.3391h 0.36269v -10.1695h 0.544034v 20.3391h 0.36269v -20.3391h 0.36269v 10.1695h 0.181345v -10.1695h 0.36269v -5.9488h 0.181345v 5.9488h 0.181345v 10.1695h 0.181345v -10.1695h 0.181345v 10.1695h 0.181345v -16.1183h 0.181345v 5.9488h 0.181345v
 10.1695h 0.36269v -10.1695h 0.181345v 10.1695h 0.36269v 10.1695h 0.181345v -26.2879h 0.181345v 5.9488h 0.181345v 10.1695h 0.36269v -20.3391h 0.181345v 20.3391h 0.181345v 10.1695h 0.181345v -33.7825h 0.181345v 13.4434h 0.36269v -5.9488h 0.181345v
 16.1183h 0.181345v -16.1183h 0.36269v 26.2879h 0.36269v -10.1695h 0.181345v -10.1695h 0.181345v 10.1695h 0.181345v 10.1695h 0.36269v -26.2879h 0.181345v 5.9488h 0.181345v -10.1695h 0.181345v 10.1695h 0.181345v 10.1695h 0.36269v 10.1695h 0.181345v
 -10.1695h 0.36269v 10.1695h 0.181345v -20.3391h 0.181345v -5.9488h 0.181345v 5.9488h 0.36269v 10.1695h 0.181345v -10.1695h 0.181345v 20.3391h 0.181345v -10.1695h 0.181345v -16.1183h 0.181345v 16.1183h 1.08807v -10.1695h 0.36269v 10.1695h 0.181345v
 10.1695h 0.181345v -10.1695h 0.181345v 10.1695h 0.181345v -20.3391h 0.36269v 10.1695h 0.906724v 10.1695h 0.181345v -10.1695h 0.36269v 10.1695h 0.181345v -10.1695h 0.181345v 10.1695h 0.181345v -10.1695h 0.725379v -16.1183h 0.181345v 5.9488h 0.181345v
 10.1695h 0.181345v -10.1695h 0.36269v 20.3391h 0.36269v -10.1695h 0.36269v 10.1695h 0.36269v -10.1695h 0.181345v -10.1695h 0.181345v 20.3391h 0.181345v -33.7825h 0.181345v 33.7825h 0.181345v -20.3391h 0.181345v 20.3391h 0.181345v -30.5086h 0.181345v
 30.5086h 0.181345v -20.3391h 0.181345v 20.3391h 0.181345v -26.2879h 0.181345v 16.1183h 0.181345v 10.1695h 0.36269v -10.1695h 0.181345v -10.1695h 0.181345v 10.1695h 0.181345v 10.1695h 0.544034v -10.1695h 0.906724v -16.1183h 0.181345v 16.1183h
 0.181345v -10.1695h 0.181345v 10.1695h 0.181345v -16.1183h 0.181345v 16.1183h 0.36269v 10.1695h 0.181345v -10.1695h 0.544034v -10.1695h 0.181345v 20.3391h 0.181345v -10.1695h 0.181345v -10.1695h 0.181345v 20.3391h 0.725379v -10.1695h 0.36269v
 -16.1183h 0.181345v 16.1183h 0.181345v 10.1695h 0.181345v -10.1695h 0.36269v 10.1695h 0.181345v -20.3391h 0.181345v 10.1695h 0.181345v 10.1695h 0.181345v -10.1695h 0.725379v -20.3391h 0.181345v 20.3391h 0.181345v -20.3391h 0.181345v 20.3391h
 0.181345v 10.1695h 0.36269v -20.3391h 0.181345v 10.1695h 0.181345v 10.1695h 0.181345v -20.3391h 0.181345v 20.3391h 0.544034v -10.1695h 0.36269v -10.1695h 0.544034v 10.1695h 0.181345v 10.1695h 0.181345v -10.1695h 0.181345v 10.1695h 0.181345v
 -20.3391h 0.725379v 10.1695h 0.36269v -10.1695h 0.181345v 20.3391h 0.544034v -10.1695h 0.544034v 10.1695h 0.544034v -10.1695h 0.181345v -10.1695h 0.181345v 20.3391h 0.181345v -20.3391h 0.906724v 20.3391h 0.181345v -30.5086h 0.181345v 20.3391h
 0.181345v -10.1695h 0.36269v 10.1695h 0.181345v 10.1695h 0.181345v -20.3391h 0.36269" fill="none" stroke="black"/>
<path d="M57.1929,280.151h 453.543" fill="none" stroke="black"/>
<path d="M57.1929,272.68v 7.47068" fill="none" stroke="black"/>
<path d="M75.3318,276.415v 3.73534" fill="none" stroke="black"/>
<path d="M93.4707,276.415v 3.73534" fill="none" stroke="black"/>
<path d="M111.61,276.415v 3.73534" fill="none" stroke="black"/>
<path d="M129.749,276.415v 3.73534" fill="none" stroke="black"/>
<path d="M147.887,272.68v 7.47068" fill="none" stroke="black"/>
<path d="M166.026,276.415v 3.73534" fill="none" stroke="black"/>
<path d="M184.165,276.415v 3.73534" fill="none" stroke="black"/>
<path d="M202.304,276.415v 3.73534" fill="none" stroke="black"/>
<path d="M220.443,276.415v 3.73534" fill="none" stroke="black"/>
<path d="M238.582,272.68v 7.47068" fill="none" stroke="black"/>
<path d="M256.721,276.415v 3.73534" fill="none" stroke="black"/>
<path d="M274.86,276.415v 3.73534" fill="none" stroke="black"/>
<path d="M292.999,276.415v 3.73534" fill="none" stroke="black"/>
<path d="M311.138,276.415v 3.73534" fill="none" stroke="black"/>
<path d="M329.277,272.68v 7.47068" fill="none" stroke="black"/>
<path d="M347.415,276.415v 3.73534" fill="none" stroke="black"/>
<path d="M365.554,276.415v 3.73534" fill="none" stroke="black"/>
<path d="M383.693,276.415v 3.73534" fill="none" stroke="black"/>
<path d="M401.832,276.415v 3.73534" fill="none" stroke="black"/>
<path d="M419.971,272.68v 7.47068" fill="none" stroke="black"/>
<path d="M438.11,276.415v 3.73534" fill="none" stroke="black"/>
<path d="M456.249,276.415v 3.73534" fill="none" stroke="black"/>
<path d="M474.388,276.415v 3.73534" fill="none" stroke="black"/>
<path d="M492.527,276.415v 3.73534" fill="none" stroke="black"/>
<path d="M510.666,272.68v 7.47068" fill="none" stroke="black"/>
<path d="M510.666,272.68v 7.47068" fill="none" stroke="black"/>
<text xml:space="preserve" x="54.3523" y="290.27" fill="black" font-size="10.4952" font-family="Helvetica">0</text>
<text xml:space="preserve" x="139.569" y="290.27" fill="black" font-size="10.4952" font-family="Helvetica">500</text>
<text xml:space="preserve" x="227.449" y="290.27" fill="black" font-size="10.4952" font-family="Helvetica">1000</text>
<text xml:space="preserve" x="318.288" y="290.27" fill="black" font-size="10.4952" font-family="Helvetica">1500</text>
<text xml:space="preserve" x="408.831" y="290.27" fill="black" font-size="10.4952" font-family="Helvetica">2000</text>
<text xml:space="preserve" x="499.67" y="290.27" fill="black" font-size="10.4952" font-family="Helvetica">2500</text>
<text xml:space="preserve" x="265.323" y="301.218" fill="black" font-size="10.4952" font-family="Helvetica">Channel</text>
<path d="M57.1929,280.151v -249.023" fill="none" stroke="black"/>
<path d="M63.9961,280.151h -6.80315" fill="none" stroke="black"/>
<path d="M63.9961,277.476h -6.80315" fill="none" stroke="black"/>
<path d="M63.9961,275.214h -6.80315" fill="none" stroke="black"/>
<path d="M63.9961,273.255h -6.80315" fill="none" stroke="black"/>
<path d="M63.9961,271.527h -6.80315" fill="none" stroke="black"/>
<path d="M70.7992,269.981h -13.6063" fill="none" stroke="black"/>
<text xml:space="preserve" x="49.0263" y="273.7" fill="black" font-size="10.4952" font-family="Helvetica">1</text>
<path d="M63.9961,259.811h -6.80315" fill="none" stroke="black"/>
<path d="M63.9961,253.863h -6.80315" fill="none" stroke="black"/>
<path d="M63.9961,249.642h -6.80315" fill="none" stroke="black"/>
<path d="M63.9961,246.368h -6.80315" fill="none" stroke="black"/>
<path d="M63.9961,243.693h -6.80315" fill="none" stroke="black"/>
<path d="M63.9961,241.432h -6.80315" fill="none" stroke="black"/>
<path d="M63.9961,239.472h -6.80315" fill="none" stroke="black"/>
<path d="M63.9961,237.744h -6.80315" fill="none" stroke="black"/>
<path d="M70.7992,236.199h -13.6063" fill="none" stroke="black"/>
<text xml:space="preserve" x="41.629" y="239.968" fill="black" font-size="10.4952" font-family="Helvetica">10</text>
<path d="M63.9961,226.029h -6.80315" fill="none" stroke="black"/>
<path d="M63.9961,220.08h -6.80315" fill="none" stroke="black"/>
<path d="M63.9961,215.859h -6.80315" fill="none" stroke="black"/>
<path d="M63.9961,212.586h -6.80315" fill="none" stroke="black"/>
<path d="M63.9961,209.911h -6.80315" fill="none" stroke="black"/>
<path d="M63.9961,207.649h -6.80315" fill="none" stroke="black"/>
<path d="M63.9961,205.69h -6.80315" fill="none" stroke="black"/>
<path d="M63.9961,203.962h -6.80315" fill="none" stroke="black"/>
<path d="M70.7992,202.416h -13.6063" fill="none" stroke="black"/>
<text xml:space="preserve" x="49.0263" y="202.686" fill="black" font-size="7.16345" font-family="Helvetica">2</text>
<text xml:space="preserve" x="38.0783" y="207.124" fill="black" font-size="10.4952" font-family="Helvetica">10</text>
<path d="M63.9961,192.247h -6.80315" fill="none" stroke="black"/>
<path d="M63.9961,186.298h -6.80315" fill="none" stroke="black"/>
<path d="M63.9961,182.077h -6.80315" fill="none" stroke="black"/>
<path d="M63.9961,178.803h -6.80315" fill="none" stroke="black"/>
<path d="M63.9961,176.128h -6.80315" fill="none" stroke="black"/>
<path d="M63.9961,173.867h -6.80315" fill="none" stroke="black"/>
<path d="M63.9961,171.907h -6.80315" fill="none" stroke="black"/>
<path d="M63.9961,170.179h -6.80315" fill="none" stroke="black"/>
<path d="M70.7992,168.634h -13.6063" fill="none" stroke="black"/>
<text xml:space="preserve" x="49.0263" y="168.363" fill="black" font-size="7.16345" font-family="Helvetica">3</text>
<text xml:space="preserve" x="38.0783" y="173.097" fill="black" font-size="10.4952" font-family="Helvetica">10</text>
<path d="M63.9961,158.464h -6.80315" fill="none" stroke="black"/>
<path d="M63.9961,152.515h -6.80315" fill="none" stroke="black"/>
<path d="M63.9961,148.295h -6.80315" fill="none" stroke="black"/>
<path d="M63.9961,145.021h -6.80315" fill="none" stroke="black"/>
<path d="M63.9961,142.346h -6.80315" fill="none" stroke="black"/>
<path d="M63.9961,140.084h -6.80315" fill="none" stroke="black"/>
<path d="M63.9961,138.125h -6.80315" fill="none" stroke="black"/>
<path d="M63.9961,136.397h -6.80315" fill="none" stroke="black"/>
<path d="M70.7992,134.851h -13.6063" fill="none" stroke="black"/>
<text xml:space="preserve" x="49.0263" y="134.927" fill="black" font-size="7.16345" font-family="Helvetica">4</text>
<text xml:space="preserve" x="38.0783" y="139.365" fill="black" font-size="10.4952" font-family="Helvetica">10</text>
<path d="M63.9961,124.682h -6.80315" fill="none" stroke="black"/>
<path d="M63.9961,118.733h -6.80315" fill="none" stroke="black"/>
<path d="M63.9961,114.512h -6.80315" fill="none" stroke="black"/>
<path d="M63.9961,111.238h -6.80315" fill="none" stroke="black"/>
<path d="M63.9961,108.563h -6.80315" fill="none" stroke="black"/>
<path d="M63.9961,106.302h -6.80315" fill="none" stroke="black"/>
<path d="M63.9961,104.343h -6.80315" fill="none" stroke="black"/>
<path d="M63.9961,102.614h -6.80315" fill="none" stroke="black"/>
<path d="M70.7992,101.069h -13.6063" fill="none" stroke="black"/>
<text xml:space="preserve" x="49.0263" y="100.899" fill="black" font-size="7.16345" font-family="Helvetica">5</text>
<text xml:space="preserve" x="38.0783" y="105.633" fill="black" font-size="10.4952" font-family="Helvetica">10</text>
<path d="M63.9961,90.8991h -6.80315" fill="none" stroke="black"/>
<path d="M63.9961,84.9503h -6.80315" fill="none" stroke="black"/>
<path d="M63.9961,80.7296h -6.80315" fill="none" stroke="black"/>
<path d="M63.9961,77.4557h -6.80315" fill="none" stroke="black"/>
<path d="M63.9961,74.7808h -6.80315" fill="none" stroke="black"/>
<path d="M63.9961,72.5192h -6.80315" fill="none" stroke="black"/>
<path d="M63.9961,70.5601h -6.80315" fill="none" stroke="black"/>
<path d="M63.9961,68.832h -6.80315" fill="none" stroke="black"/>
<path d="M70.7992,67.2862h -13.6063" fill="none" stroke="black"/>
<text xml:space="preserve" x="49.0263" y="67.1675" fill="black" font-size="7.16345" font-family="Helvetica">6</text>
<text xml:space="preserve" x="38.0783" y="71.9018" fill="black" font-size="10.4952" font-family="Helvetica">10</text>
<path d="M63.9961,57.1167h -6.80315" fill="none" stroke="black"/>
<path d="M63.9961,51.1679h -6.80315" fill="none" stroke="black"/>
<path d="M63.9961,46.9471h -6.80315" fill="none" stroke="black"/>
<path d="M63.9961,43.6733h -6.80315" fill="none" stroke="black"/>
<path d="M63.9961,40.9983h -6.80315" fill="none" stroke="black"/>
<path d="M63.9961,38.7367h -6.80315" fill="none" stroke="black"/>
<path d="M63.9961,36.7776h -6.80315" fill="none" stroke="black"/>
<path d="M63.9961,35.0495h -6.80315" fill="none" stroke="black"/>
<path d="M70.7992,33.5037h -13.6063" fill="none" stroke="black"/>
<text xml:space="preserve" x="49.0263" y="33.7317" fill="black" font-size="7.16345" font-family="Helvetica">7</text>
<text xml:space="preserve" x="38.0783" y="38.1701" fill="black" font-size="10.4952" font-family="Helvetica">10</text>
<g transform="rotate(-90,26.5385,191.442)">
<text xml:space="preserve" x="26.5385" y="191.442" fill="black" font-size="10.4952" font-family="Helvetica">Counts/Channel</text>
</g>
<text xml:space="preserve" x="404.097" y="67.1675" fill="black" font-size="14.7788" font-family="Helvetica" font-weight="bold"> = 2.4879 MeV</text>
<text xml:space="preserve" x="398.179" y="70.4223" fill="black" font-size="10.0192" font-family="Helvetica" font-weight="bold">p</text>
<text xml:space="preserve" x="389.006" y="67.1675" fill="black" font-size="14.7788" font-family="Helvetica" font-weight="bold">E</text>
<path d="M262.163,167.235v 25.2635" fill="none" stroke="black"/>
<path d="M264.454,192.499l -2.29122, 3.9685l -2.29122, -3.9685z" fill="black"/>
<path d="M264.454,192.499l -2.29122, 3.9685l -2.29122, -3.9685h 4.58243z" fill="none" stroke="black"/>
<text xml:space="preserve" x="266.803" y="165.108" fill="black" font-size="10.4952" font-family="Helvetica" font-weight="bold">_1 	1.369 MeV</text>
<text xml:space="preserve" x="260.293" y="165.108" fill="black" font-size="10.4952" font-family="Times">&#0945;</text>
<path d="M184.528,134.851v 29.814" fill="none" stroke="black"/>
<path d="M186.819,164.665l -2.29122, 3.9685l -2.29122, -3.9685z" fill="black"/>
<path d="M186.819,164.665l -2.29122, 3.9685l -2.29122, -3.9685h 4.58243z" fill="none" stroke="black"/>
<text xml:space="preserve" x="172.117" y="131.968" fill="black" font-size="10.4952" font-family="Helvetica" font-weight="bold"># p_1 	0.844 MeV</text>
<path d="M210.104,152.515v 12.1498" fill="none" stroke="black"/>
<path d="M212.395,164.665l -2.29122, 3.9685l -2.29122, -3.9685z" fill="black"/>
<path d="M212.395,164.665l -2.29122, 3.9685l -2.29122, -3.9685h 4.58243z" fill="none" stroke="black"/>
<text xml:space="preserve" x="197.564" y="148.242" fill="black" font-size="10.4952" font-family="Helvetica" font-weight="bold"># p_2 	1.015 MeV</text>
<path d="M497.997,269.981h 12.6685" fill="none" stroke="black"/>
<path d="M504.331,259.811h 6.33427" fill="none" stroke="black"/>
<path d="M504.331,253.863h 6.33427" fill="none" stroke="black"/>
<path d="M504.331,249.642h 6.33427" fill="none" stroke="black"/>
<path d="M504.331,246.368h 6.33427" fill="none" stroke="black"/>
<path d="M504.331,243.693h 6.33427" fill="none" stroke="black"/>
<path d="M504.331,241.432h 6.33427" fill="none" stroke="black"/>
<path d="M504.331,239.472h 6.33427" fill="none" stroke="black"/>
<path d="M504.331,237.744h 6.33427" fill="none" stroke="black"/>
<path d="M497.997,236.199h 12.6685" fill="none" stroke="black"/>
<path d="M504.331,226.029h 6.33427" fill="none" stroke="black"/>
<path d="M504.331,220.08h 6.33427" fill="none" stroke="black"/>
<path d="M504.331,215.859h 6.33427" fill="none" stroke="black"/>
<path d="M504.331,212.586h 6.33427" fill="none" stroke="black"/>
<path d="M504.331,209.911h 6.33427" fill="none" stroke="black"/>
<path d="M504.331,207.649h 6.33427" fill="none" stroke="black"/>
<path d="M504.331,205.69h 6.33427" fill="none" stroke="black"/>
<path d="M504.331,203.962h 6.33427" fill="none" stroke="black"/>
<path d="M497.997,202.416h 12.6685" fill="none" stroke="black"/>
<path d="M504.331,192.247h 6.33427" fill="none" stroke="black"/>
<path d="M504.331,186.298h 6.33427" fill="none" stroke="black"/>
<path d="M504.331,182.077h 6.33427" fill="none" stroke="black"/>
<path d="M504.331,178.803h 6.33427" fill="none" stroke="black"/>
<path d="M504.331,176.128h 6.33427" fill="none" stroke="black"/>
<path d="M504.331,173.867h 6.33427" fill="none" stroke="black"/>
<path d="M504.331,171.907h 6.33427" fill="none" stroke="black"/>
<path d="M504.331,170.179h 6.33427" fill="none" stroke="black"/>
<path d="M497.997,168.634h 12.6685" fill="none" stroke="black"/>
<path d="M504.331,158.464h 6.33427" fill="none" stroke="black"/>
<path d="M504.331,152.515h 6.33427" fill="none" stroke="black"/>
<path d="M504.331,148.295h 6.33427" fill="none" stroke="black"/>
<path d="M504.331,145.021h 6.33427" fill="none" stroke="black"/>
<path d="M504.331,142.346h 6.33427" fill="none" stroke="black"/>
<path d="M504.331,140.084h 6.33427" fill="none" stroke="black"/>
<path d="M504.331,138.125h 6.33427" fill="none" stroke="black"/>
<path d="M504.331,136.397h 6.33427" fill="none" stroke="black"/>
<path d="M497.997,134.851h 12.6685" fill="none" stroke="black"/>
<path d="M504.331,124.682h 6.33427" fill="none" stroke="black"/>
<path d="M504.331,118.733h 6.33427" fill="none" stroke="black"/>
<path d="M504.331,114.512h 6.33427" fill="none" stroke="black"/>
<path d="M504.331,111.238h 6.33427" fill="none" stroke="black"/>
<path d="M504.331,108.563h 6.33427" fill="none" stroke="black"/>
<path d="M504.331,106.302h 6.33427" fill="none" stroke="black"/>
<path d="M504.331,104.343h 6.33427" fill="none" stroke="black"/>
<path d="M504.331,102.614h 6.33427" fill="none" stroke="black"/>
<path d="M497.997,101.069h 12.6685" fill="none" stroke="black"/>
<path d="M504.331,90.8991h 6.33427" fill="none" stroke="black"/>
<path d="M504.331,84.9503h 6.33427" fill="none" stroke="black"/>
<path d="M504.331,80.7296h 6.33427" fill="none" stroke="black"/>
<path d="M504.331,77.4557h 6.33427" fill="none" stroke="black"/>
<path d="M504.331,74.7808h 6.33427" fill="none" stroke="black"/>
<path d="M504.331,72.5192h 6.33427" fill="none" stroke="black"/>
<path d="M504.331,70.5601h 6.33427" fill="none" stroke="black"/>
<path d="M504.331,68.832h 6.33427" fill="none" stroke="black"/>
<path d="M497.997,67.2862h 12.6685" fill="none" stroke="black"/>
<path d="M504.331,57.1167h 6.33427" fill="none" stroke="black"/>
<path d="M504.331,51.1679h 6.33427" fill="none" stroke="black"/>
<path d="M504.331,46.9471h 6.33427" fill="none" stroke="black"/>
<path d="M504.331,43.6733h 6.33427" fill="none" stroke="black"/>
<path d="M504.331,40.9983h 6.33427" fill="none" stroke="black"/>
<path d="M504.331,38.7367h 6.33427" fill="none" stroke="black"/>
<path d="M57.1929,45.5905v -7.46952" fill="none" stroke="black"/>
<path d="M75.3318,45.5905v -7.46952" fill="none" stroke="black"/>
<path d="M93.4707,45.5905v -7.46952" fill="none" stroke="black"/>
<path d="M111.61,45.5905v -7.46952" fill="none" stroke="black"/>
<path d="M129.749,45.5905v -7.46952" fill="none" stroke="black"/>
<path d="M147.887,45.5905v -7.46952" fill="none" stroke="black"/>
<path d="M166.026,45.5905v -7.46952" fill="none" stroke="black"/>
<path d="M184.165,45.5905v -7.46952" fill="none" stroke="black"/>
<path d="M202.304,45.5905v -7.46952" fill="none" stroke="black"/>
<path d="M220.443,45.5905v -7.46952" fill="none" stroke="black"/>
<path d="M238.582,45.5905v -7.46952" fill="none" stroke="black"/>
<path d="M256.721,45.5905v -7.46952" fill="none" stroke="black"/>
<path d="M274.86,45.5905v -7.46952" fill="none" stroke="black"/>
<path d="M292.999,45.5905v -7.46952" fill="none" stroke="black"/>
<path d="M311.138,45.5905v -7.46952" fill="none" stroke="black"/>
<path d="M329.277,45.5905v -7.46952" fill="none" stroke="black"/>
<path d="M347.415,45.5905v -7.46952" fill="none" stroke="black"/>
<path d="M365.554,45.5905v -7.46952" fill="none" stroke="black"/>
<path d="M383.693,45.5905v -7.46952" fill="none" stroke="black"/>
<path d="M401.832,45.5905v -7.46952" fill="none" stroke="black"/>
<path d="M419.971,45.5905v -7.46952" fill="none" stroke="black"/>
<path d="M438.11,45.5905v -7.46952" fill="none" stroke="black"/>
<path d="M456.249,45.5905v -7.46952" fill="none" stroke="black"/>
<path d="M474.388,45.5905v -7.46952" fill="none" stroke="black"/>
<path d="M492.527,45.5905v -7.46952" fill="none" stroke="black"/>
<path d="M510.666,45.5905v -7.46952" fill="none" stroke="black"/></svg>
