<?xml version="1.0" standalone="no"?>
<svg width="567.429" height="311.778" viewBox="0 0 567.429 311.778" xmlns="http://www.w3.org/2000/svg" shape-rendering="crispEdges">
<title>
Yields/P1/run_0099/det0_Fit.svg
</title>
<desc>
Creator: ROOT Version 6.12/06
CreationDate: Mon Apr 15 10:29:01 2019</desc>
<defs>
</defs>
<rect x="0.5" y="0" width="566.929" height="311.278" fill="white"/>
<rect x="57.1929" y="31.1278" width="453.543" height="249.023" fill="white"/>
<rect x="57.1929" y="31.1278" width="453.543" height="249.023" fill="none" stroke="black"/>
<path d="M57.1929,40.7251h 0.181345v 239.425h 14.5076v -10.4092h 0.181345v 10.4092h 0.906724v -10.4092h 0.181345v 10.4092h 3.08286v -10.4092h 0.181345v 10.4092h 0.181345v -10.4092h 0.181345v 10.4092h 1.45076v -10.4092h 0.181345v 10.4092h 2.17614v
 -10.4092h 0.181345v 10.4092h 3.44555v -10.4092h 0.181345v 10.4092h 0.544034v -10.4092h 0.181345v 10.4092h 0.181345v -10.4092h 0.181345v 10.4092h 0.181345v -10.4092h 0.181345v 10.4092h 1.08807v -10.4092h 0.181345v 10.4092h 0.181345v -10.4092h
 0.544034v -10.4092h 0.181345v 20.8184h 0.36269v -10.4092h 0.181345v -20.8184h 0.36269v -8.40393h 0.181345v -19.1165h 0.181345v -12.8948h 0.181345v -14.0126h 0.181345v -8.08593h 0.181345v -6.64349h 0.181345v -4.36707h 0.181345v -3.33417h 0.181345v
 -1.61816h 0.181345v -1.87605h 0.181345v -0.438877h 0.181345v -0.560349h 0.181345v -2.1834h 0.181345v 0.723332h 0.181345v -0.417589h 0.181345v -0.968276h 0.181345v 0.208288h 0.181345v -0.816359h 0.181345v 0.0663603h 0.181345v -0.928404h 0.181345v
 -0.407065h 0.181345v 0.722965h 0.181345v -0.489943h 0.181345v -1.02702h 0.181345v -0.285835h 0.181345v 0.125098h 0.181345v -0.249162h 0.181345v -0.0560557h 0.181345v 0.923013h 0.181345v -0.177442h 0.181345v -0.0586844h 0.181345v 0.707533h 0.181345v
 -0.471407h 0.181345v -0.247836h 0.181345v 0.235941h 0.181345v -0.0593336h 0.181345v -0.761995h 0.181345v 0.538641h 0.181345v -0.0116639h 0.181345v -0.549475h 0.181345v 0.272225h 0.181345v -0.148067h 0.181345v 1.11726h 0.181345v -1.09458h 0.181345v
 -0.30339h 0.181345v 0.292044h 0.181345v -0.523848h 0.181345v 0.309875h 0.181345v 0.581388h 0.181345v -0.737125h 0.181345v 1.05428h 0.181345v 0.667546h 0.181345v 0.313525h 0.181345v -1.33306h 0.181345v 1.32039h 0.181345v 0.646841h 0.181345v
 -0.608806h 0.181345v 0.153109h 0.181345v -0.191144h 0.181345v 0.0634446h 0.181345v 0.623107h 0.181345v -0.912758h 0.181345v -2.95673h 0.181345v -0.865762h 0.181345v -2.55475h 0.181345v -3.15892h 0.181345v -3.18619h 0.181345v -3.22971h 0.181345v
 -3.1435h 0.181345v -3.5911h 0.181345v -2.51188h 0.181345v -1.94811h 0.181345v -1.86938h 0.181345v -1.31872h 0.181345v -0.0264506h 0.181345v 0.298605h 0.181345v 0.677199h 0.181345v 1.79127h 0.181345v 2.19887h 0.181345v 2.64813h 0.181345v 3.90549h
 0.181345v 3.19004h 0.181345v 4.78782h 0.181345v 4.1717h 0.181345v 4.43783h 0.181345v 3.99808h 0.181345v 3.50237h 0.181345v 1.2153h 0.181345v 2.11804h 0.181345v 1.3872h 0.181345v 1.39501h 0.181345v 1.01711h 0.181345v -0.667546h 0.181345v -0.691184h
 0.181345v 1.79154h 0.181345v -0.347237h 0.181345v 0.853319h 0.181345v -0.967303h 0.181345v -0.419896h 0.181345v 0.61994h 0.181345v 2.06293h 0.181345v -1.86019h 0.181345v -0.600201h 0.181345v 0.0561396h 0.36269v 1.41444h 0.181345v -0.899509h
 0.181345v -0.173613h 0.181345v 1.76878h 0.181345v -0.818757h 0.181345v 0.247204h 0.181345v 0.188111h 0.181345v -1.00661h 0.181345v 1.32546h 0.181345v -0.815336h 0.181345v 1.04263h 0.181345v -0.227293h 0.181345v 0.194612h 0.181345v -0.918099h
 0.181345v 1.14838h 0.181345v 0.335222h 0.181345v -1.5449h 0.181345v 1.57883h 0.181345v -0.0339375h 0.181345v 0.239189h 0.181345v 1.71292h 0.181345v -0.605314h 0.181345v -0.110829h 0.181345v 0.677588h 0.181345v -0.229276h 0.181345v 0.698606h
 0.181345v -0.0396759h 0.181345v -1.07039h 0.181345v 0.487496h 0.181345v 1.82128h 0.181345v -2.85229h 0.181345v 1.41708h 0.181345v 0.196822h 0.181345v 0.119344h 0.181345v -0.702236h 0.181345v 0.191795h 0.181345v 1.03885h 0.181345v -0.883626h
 0.181345v 0.925053h 0.181345v -1.38598h 0.181345v 2.1519h 0.181345v -1.01279h 0.181345v 1.05651h 0.181345v -0.474044h 0.181345v -0.294055h 0.181345v 0.988621h 0.181345v -0.480945h 0.181345v -0.128537h 0.181345v 0.609482h 0.181345v -0.905191h
 0.181345v 1.72701h 0.181345v -0.777325h 0.181345v -1.1986h 0.181345v 1.65096h 0.181345v 0.657112h 0.181345v -2.18413h 0.181345v 1.25397h 0.181345v -1.78381h 0.181345v 1.2087h 0.181345v 1.22012h 0.181345v -1.08935h 0.181345v 1.96156h 0.181345v
 -1.47207h 0.181345v -1.04814h 0.181345v 0.471338h 0.181345v 1.12965h 0.181345v -0.186553h 0.181345v 0.233555h 0.181345v -0.417819h 0.181345v 0.607315h 0.181345v 0.191917h 0.181345v -0.707383h 0.181345v -1.48982h 0.181345v 1.81579h 0.181345v
 -1.26346h 0.181345v 0.130397h 0.181345v -0.0435917h 0.181345v -2.29626h 0.181345v -0.0373101h 0.181345v -0.404407h 0.181345v -0.673853h 0.181345v -0.308939h 0.181345v 0.274296h 0.181345v -1.85313h 0.36269v -0.861764h 0.181345v -0.978217h 0.181345v
 0.607401h 0.181345v 0.633007h 0.181345v 0.569019h 0.181345v 0.0918493h 0.181345v 1.04926h 0.181345v 1.48739h 0.181345v -0.144746h 0.181345v 1.71486h 0.181345v 0.915466h 0.181345v 0.568409h 0.181345v 0.777325h 0.181345v 0.57398h 0.181345v -1.03609h
 0.181345v 2.04434h 0.181345v 0.530702h 0.181345v 0.108429h 0.181345v -0.322965h 0.181345v -0.471787h 0.181345v -0.407274h 0.181345v 1.58781h 0.181345v -0.221662h 0.181345v -0.803256h 0.181345v 1.30668h 0.181345v -0.392999h 0.181345v 1.887h 0.181345v
 -1.0319h 0.181345v -2.12942h 0.181345v 2.54577h 0.181345v -0.991795h 0.181345v 1.05223h 0.181345v -0.995664h 0.181345v 1.36345h 0.181345v -2.4561h 0.181345v 1.55299h 0.181345v 0.0585471h 0.181345v -0.575446h 0.181345v -1.08869h 0.181345v 1.31623h
 0.181345v 0.23104h 0.181345v -0.793552h 0.181345v 0.448311h 0.181345v 0.999564h 0.181345v -0.999564h 0.181345v -1.4623h 0.181345v 1.63393h 0.181345v -0.114637h 0.181345v -1.15363h 0.181345v 0.483605h 0.181345v 0.220038h 0.181345v -0.110422h
 0.181345v -1.1639h 0.181345v -0.401825h 0.181345v 0.300356h 0.181345v -0.739919h 0.181345v 0.790568h 0.181345v 0.255838h 0.181345v -1.70558h 0.181345v -0.807095h 0.181345v 2.00528h 0.181345v -1.78541h 0.181345v 0.0888601h 0.181345v 0.179313h
 0.181345v -0.223809h 0.181345v 3.04318h 0.181345v -2.03246h 0.181345v -0.235755h 0.181345v -0.139697h 0.181345v 2.40792h 0.36269v -0.162351h 0.181345v -0.938888h 0.181345v 2.17235h 0.181345v -1.39407h 0.181345v 0.597513h 0.181345v 1.57608h 0.181345v
 -0.72097h 0.181345v 0.72097h 0.181345v -1.18308h 0.181345v 1.4313h 0.181345v -0.910419h 0.181345v 0.723866h 0.181345v -1.69306h 0.181345v 2.25982h 0.181345v -1.46627h 0.181345v -0.51493h 0.181345v 1.16925h 0.181345v -1.16925h 0.181345v 0.57325h
 0.181345v 0.596003h 0.181345v 0.431739h 0.181345v -1.54464h 0.181345v 1.1129h 0.181345v 1.07087h 0.181345v -0.386733h 0.181345v -0.925384h 0.181345v 1.44327h 0.181345v -0.707585h 0.181345v -0.125145h 0.36269v -0.124111h 0.181345v 0.566758h 0.181345v
 -0.191306h 0.181345v -1.15809h 0.181345v -0.347907h 0.36269v 0.885363h 0.181345v -0.181298h 0.181345v -0.987955h 0.181345v -0.0561396h 0.181345v 1.47058h 0.181345v -1.13055h 0.181345v 1.19248h 0.181345v 1.49972h 0.181345v -0.930574h 0.181345v
 -1.53058h 0.181345v -0.51493h 0.181345v -0.713937h 0.181345v 0.940618h 0.181345v -0.338751h 0.181345v -0.11124h 0.181345v 0.73824h 0.181345v 0.0583197h 0.181345v -1.17954h 0.181345v 0.890176h 0.181345v 0.704066h 0.181345v -2.38342h 0.181345v
 2.74823h 0.181345v -2.01297h 0.181345v 1.292h 0.181345v 0.177023h 0.181345v -1.84116h 0.181345v 1.60559h 0.181345v -1.34072h 0.181345v 0.488853h 0.181345v 0.735458h 0.181345v -1.64588h 0.181345v 0.156704h 0.181345v 0.698606h 0.181345v 0.560413h
 0.181345v -0.338751h 0.181345v -0.11124h 0.181345v -0.110422h 0.181345v 1.08331h 0.181345v -1.30175h 0.181345v -0.480168h 0.181345v 1.37365h 0.181345v -0.341317h 0.181345v 0.0563502h 0.181345v -0.224143h 0.181345v 0.337482h 0.181345v 1.4313h
 0.181345v -2.84191h 0.181345v 1.99049h 0.181345v 0.97708h 0.36269v 0.0632309h 0.181345v -0.861886h 0.181345v 0.735689h 0.181345v -0.914115h 0.181345v 0.480595h 0.181345v 0.815336h 0.181345v -2.26882h 0.181345v 3.82958h 0.181345v -2.55813h 0.181345v
 0.933053h 0.181345v 0.0643141h 0.181345v 0.12946h 0.181345v -1.0664h 0.181345v 1.0664h 0.181345v -0.448311h 0.36269v 2.83928h 0.181345v -1.31303h 0.181345v -0.069686h 0.181345v -1.26607h 0.181345v 1.54677h 0.181345v -0.960338h 0.181345v -0.9026h
 0.181345v 2.07696h 0.181345v 0.661015h 0.181345v 4.22043h 0.181345v -4.22043h 0.181345v -0.875043h 0.181345v 0.800143h 0.181345v -1.15021h 0.181345v 0.564097h 0.181345v 0.217122h 0.181345v 2.19392h 0.181345v 1.23018h 0.181345v -2.44518h 0.181345v
 -0.45975h 0.181345v 2.01607h 0.181345v -2.09134h 0.181345v 1.83463h 0.181345v -0.0846048h 0.181345v 0.779171h 0.181345v -1.99417h 0.181345v 1.215h 0.181345v 0.341317h 0.181345v -1.24181h 0.181345v 1.76878h 0.181345v -2.31493h 0.181345v 1.1129h
 0.181345v -0.406998h 0.181345v 2.24816h 0.181345v -1.42282h 0.181345v 0.873346h 0.181345v -1.12574h 0.181345v -0.969195h 0.181345v 0.969195h 0.181345v -1.58223h 0.181345v 2.79817h 0.181345v -1.546h 0.181345v 2.00528h 0.181345v -0.728255h 0.181345v
 -0.437854h 0.181345v -1.00153h 0.181345v -1.16472h 0.181345v 4.49556h 0.181345v -2.24277h 0.181345v -0.258184h 0.181345v 0.878456h 0.181345v -2.34075h 0.181345v 4.37191h 0.181345v -3.49532h 0.181345v 3.3921h 0.181345v -2.63477h 0.181345v 1.63988h
 0.181345v -1.29062h 0.181345v 0.539602h 0.181345v 0.184264h 0.181345v -2.78426h 0.181345v 1.45442h 0.181345v -0.252398h 0.181345v 1.21594h 0.181345v -0.44565h 0.181345v 0.53639h 0.181345v 0.18314h 0.181345v 0.852947h 0.181345v -0.944797h 0.181345v
 -0.18203h 0.181345v -1.29914h 0.181345v 2.04088h 0.181345v -0.467867h 0.36269v 0.37312h 0.181345v -2.02888h 0.181345v 2.12362h 0.181345v 0.191306h 0.181345v -0.0959576h 0.181345v 0.988338h 0.181345v -1.6434h 0.181345v 0.559716h 0.181345v -0.467867h
 0.181345v 0.563215h 0.181345v -0.0953484h 0.181345v -1.01072h 0.181345v 2.8271h 0.181345v -0.213015h 0.181345v -0.621495h 0.181345v -4.2184h 0.181345v 2.58552h 0.181345v 1.13392h 0.181345v -1.49363h 0.181345v 1.20203h 0.181345v -1.46627h 0.181345v
 -0.682723h 0.181345v 1.67522h 0.181345v 1.16321h 0.181345v -2.58603h 0.181345v 2.78897h 0.181345v -2.4457h 0.181345v 0.440422h 0.181345v 1.20948h 0.181345v -0.847597h 0.181345v -0.974917h 0.181345v -1.77832h 0.181345v 2.66194h 0.181345v -0.180934h
 0.181345v 0.831941h 0.181345v -2.28775h 0.181345v -1.4016h 0.181345v 2.8574h 0.181345v -0.530078h 0.181345v -2.47528h 0.181345v 2.13201h 0.181345v -0.335596h 0.181345v -1.86985h 0.181345v -0.854296h 0.181345v 0.564097h 0.181345v -0.214027h 0.181345v
 -0.893742h 0.181345v -1.93839h 0.181345v 0.296209h 0.181345v 0.735689h 0.181345v -1.26473h 0.181345v 0.469329h 0.181345v 0.423051h 0.181345v 1.01421h 0.181345v -1.67376h 0.181345v 1.73948h 0.181345v 0.400485h 0.181345v -1.10807h 0.181345v 1.04058h
 0.181345v -1.77627h 0.181345v 0.610544h 0.181345v -0.9653h 0.181345v 1.79803h 0.181345v 1.16365h 0.181345v -1.35996h 0.181345v 1.57501h 0.181345v -1.04571h 0.181345v 1.48527h 0.181345v -1.41778h 0.181345v 0.481145h 0.181345v 2.09536h 0.181345v
 -3.74728h 0.181345v 3.273h 0.181345v -4.53268h 0.181345v -0.341317h 0.181345v -0.713937h 0.181345v -0.78369h 0.181345v -1.45442h 0.181345v -2.89122h 0.181345v -1.031h 0.181345v -0.69537h 0.181345v -2.17841h 0.181345v -1.34825h 0.181345v -2.74246h
 0.181345v -2.6219h 0.181345v -0.279313h 0.181345v -1.52493h 0.181345v -1.27748h 0.181345v -0.746541h 0.181345v -0.402402h 0.181345v -0.907916h 0.181345v 0.39219h 0.181345v -0.643698h 0.181345v 0.278229h 0.181345v -0.21245h 0.181345v 1.65713h
 0.181345v 0.801315h 0.181345v -0.139122h 0.181345v 1.38521h 0.181345v 1.43299h 0.181345v 0.394968h 0.181345v 2.9375h 0.181345v 1.89971h 0.181345v 1.37617h 0.181345v 2.74375h 0.181345v 1.33817h 0.181345v 0.816148h 0.181345v 4.64318h 0.36269v
 0.164125h 0.181345v 2.77102h 0.181345v 0.745934h 0.181345v 1.15575h 0.181345v 2.79817h 0.181345v 0.0907393h 0.181345v -0.27059h 0.181345v -0.698606h 0.181345v 0.432806h 0.181345v 2.16927h 0.181345v 2.06338h 0.181345v -3.69626h 0.181345v 1.94041h
 0.181345v -0.40866h 0.181345v -0.397833h 0.181345v 1.65877h 0.181345v -0.852275h 0.181345v -1.47831h 0.181345v 2.4406h 0.181345v -1.37095h 0.181345v 1.48178h 0.181345v -0.546144h 0.181345v 2.0667h 0.181345v -3.10279h 0.181345v 4.25362h 0.181345v
 -3.21753h 0.181345v 1.22887h 0.181345v 0.961436h 0.181345v 1.4313h 0.181345v -3.62161h 0.181345v -0.935637h 0.181345v 1.37095h 0.181345v 0.334973h 0.181345v -0.983303h 0.181345v -0.210036h 0.181345v 0.639131h 0.181345v -0.53448h 0.181345v 0.3184h
 0.181345v 0.546144h 0.181345v 1.15575h 0.181345v -1.15575h 0.181345v 4.81016h 0.181345v -0.452818h 0.181345v -3.32125h 0.181345v 1.50298h 0.36269v -0.390082h 0.36269v -1.1129h 0.181345v -1.14692h 0.181345v 2.25982h 0.181345v 2.97081h 0.181345v
 -2.97081h 0.181345v 0.128905h 0.181345v 0.797567h 0.181345v -1.18101h 0.181345v 0.126729h 0.181345v 2.04169h 0.181345v -0.850264h 0.181345v -1.81464h 0.181345v -0.946286h 0.181345v 0.704066h 0.181345v 3.50195h 0.181345v -1.02597h 0.181345v 0.142345h
 0.181345v 1.03609h 0.181345v -0.89238h 0.181345v 0.145096h 0.181345v 1.53371h 0.181345v -3.44759h 0.181345v 1.62508h 0.181345v 3.35102h 0.181345v -3.20731h 0.181345v -2.27362h 0.181345v 6.98391h 0.181345v -6.60689h 0.181345v 3.5754h 0.181345v
 -1.96486h 0.181345v 0.57766h 0.181345v -2.4406h 0.181345v -2.52794h 0.181345v 5.41685h 0.181345v -1.85282h 0.181345v 1.1129h 0.181345v -1.24639h 0.181345v 0.679632h 0.36269v 2.24557h 0.181345v -1.08982h 0.181345v -0.443894h 0.181345v -0.145096h
 0.181345v -1.24639h 0.181345v 2.13877h 0.181345v -1.31944h 0.181345v 2.59828h 0.181345v -2.59828h 0.181345v 2.26822h 0.181345v -1.25217h 0.181345v -0.149427h 0.181345v -2.58855h 0.181345v 0.252398h 0.181345v 0.386733h 0.181345v -2.73798h 0.181345v
 -0.322965h 0.181345v -1.8984h 0.36269v -1.17312h 0.181345v -2.98194h 0.181345v -2.54698h 0.181345v -1.32169h 0.181345v -0.646006h 0.181345v -5.93008h 0.181345v 0.322965h 0.181345v -2.77421h 0.181345v -1.07624h 0.181345v -1.87136h 0.181345v -1.79629h
 0.181345v -2.22356h 0.181345v -0.739919h 0.181345v -1.67221h 0.181345v 0.162351h 0.181345v -0.810226h 0.181345v -0.516841h 0.181345v -0.700643h 0.181345v 0.685708h 0.181345v -0.855878h 0.181345v 1.0512h 0.181345v 0.570249h 0.181345v -0.509634h
 0.181345v 2.11632h 0.181345v 0.371691h 0.181345v 0.923865h 0.181345v 1.77832h 0.181345v 2.28992h 0.181345v 0.980861h 0.181345v 3.73601h 0.181345v 1.1366h 0.181345v 3.0587h 0.181345v 0.0907393h 0.181345v 3.18133h 0.181345v 3.18322h 0.181345v
 0.566758h 0.181345v 2.85394h 0.181345v 2.35865h 0.181345v 4.91056h 0.181345v -1.61054h 0.181345v 2.78897h 0.181345v 3.23653h 0.181345v 2.2517h 0.181345v -0.64833h 0.181345v -1.21829h 0.181345v 3.99863h 0.181345v 0.51789h 0.181345v 0.53639h 0.181345v
 -1.5549h 0.181345v -1.40891h 0.181345v 3.23936h 0.181345v -1.32983h 0.181345v 0.256712h 0.181345v 1.93149h 0.181345v -0.291607h 0.181345v 1.84116h 0.36269v -5.19217h 0.181345v 1.71114h 0.181345v 1.07312h 0.181345v -3.01354h 0.181345v 3.01354h
 0.181345v -0.811944h 0.181345v 0.53639h 0.181345v 2.04434h 0.181345v -0.309646h 0.36269v -1.73469h 0.181345v -0.27059h 0.181345v 0.546144h 0.181345v -1.58223h 0.181345v -0.969195h 0.181345v 2.00528h 0.181345v -2.46739h 0.181345v 1.4313h 0.181345v
 1.58223h 0.181345v 4.13595h 0.181345v -2.67681h 0.181345v -1.45914h 0.181345v 0.280706h 0.181345v 2.12721h 0.181345v -2.40792h 0.181345v 1.76878h 0.181345v -3.59924h 0.181345v 0.757336h 0.181345v 4.84719h 0.181345v -2.61832h 0.181345v 2.26495h
 0.181345v -4.49382h 0.181345v -1.00153h 0.181345v 2.93301h 0.181345v 1.54955h 0.181345v -2.95406h 0.181345v -0.526977h 0.181345v 2.84191h 0.181345v -0.613037h 0.181345v -0.297382h 0.181345v 0.297382h 0.181345v -3.47068h 0.181345v 0.240282h 0.181345v
 1.00153h 0.181345v -1.71114h 0.181345v 2.78426h 0.36269v 1.45914h 0.181345v -4.92098h 0.181345v 4.61759h 0.181345v 0.30339h 0.181345v 0.309646h 0.181345v -4.55304h 0.181345v 0.709611h 0.181345v -2.65702h 0.181345v 5.01238h 0.181345v -2.11116h
 0.181345v 1.5549h 0.181345v 1.73469h 0.181345v -0.30339h 0.181345v -0.297382h 0.181345v -1.93149h 0.181345v -1.00153h 0.181345v 2.93301h 0.181345v -1.13392h 0.181345v 2.36051h 0.181345v -0.929202h 0.181345v -0.58899h 0.181345v -4.0286h 0.181345v
 4.92098h 0.181345v -2.53226h 0.181345v 0.797567h 0.181345v 1.73469h 0.181345v -2.00528h 0.181345v -0.78369h 0.181345v -0.744813h 0.181345v 1.5285h 0.181345v -1.5285h 0.181345v 5.49535h 0.181345v -4.75054h 0.181345v 3.41478h 0.181345v -2.63109h
 0.181345v 1.70189h 0.181345v -1.96769h 0.181345v 0.53639h 0.181345v 0.275555h 0.181345v 1.76878h 0.181345v -4.08371h 0.181345v -2.81723h 0.181345v 5.99052h 0.181345v 1.22658h 0.181345v -1.22658h 0.181345v -2.4406h 0.181345v -1.4313h 0.181345v
 3.01354h 0.181345v 1.15575h 0.181345v -1.15575h 0.181345v -1.32983h 0.181345v 1.32983h 0.181345v -1.07312h 0.181345v 5.96009h 0.181345v -3.73122h 0.181345v -1.70189h 0.181345v 4.68209h 0.181345v -2.36716h 0.181345v -0.613037h 0.181345v -1.96769h
 0.181345v -0.261177h 0.181345v 2.84191h 0.181345v -3.59924h 0.181345v 2.11116h 0.181345v -2.83213h 0.181345v 2.00528h 0.181345v -2.00528h 0.181345v 2.83213h 0.181345v 2.45727h 0.181345v -4.56844h 0.181345v 2.39722h 0.36269v 2.85394h 0.181345v
 -1.01279h 0.181345v -0.322965h 0.181345v -0.316166h 0.181345v -0.613037h 0.181345v 0.613037h 0.36269v 2.73798h 0.181345v -0.370817h 0.181345v -6.2106h 0.181345v 4.48256h 0.181345v 2.09885h 0.181345v -2.42181h 0.544034v 0.990512h 0.181345v -4.14858h
 0.181345v 6.75066h 0.181345v -3.59259h 0.181345v 1.68912h 0.181345v -2.9157h 0.181345v 0.910419h 0.36269v 3.50827h 0.181345v -3.1921h 0.181345v 5.31072h 0.181345v -4.65769h 0.181345v 2.53907h 0.181345v 0.811944h 0.181345v -1.20203h 0.181345v
 -0.380205h 0.181345v 5.3563h 0.181345v -3.35102h 0.181345v 0.883626h 0.181345v -4.98776h 0.181345v 1.36615h 0.181345v 3.62161h 0.181345v -1.71814h 0.181345v 3.14944h 0.181345v -5.75152h 0.181345v 5.75152h 0.181345v -0.969195h 0.181345v -2.18024h
 0.181345v 3.65855h 0.181345v 4.84719h 0.181345v -4.84719h 0.181345v 0.526977h 0.181345v -3.35102h 0.181345v 6.97262h 0.181345v -8.97791h 0.181345v 11.1795h 0.181345v -2.20159h 0.181345v -3.62161h 0.181345v -2.00528h 0.181345v 3.70718h 0.181345v
 -2.22887h 0.181345v 1.63988h 0.181345v -0.566758h 0.181345v -2.07465h 0.181345v 3.2304h 0.181345v 1.91971h 0.36269v 0.698606h 0.181345v 2.31493h 0.181345v -10.4092h 0.181345v 9.59727h 0.36269v 1.67031h 0.181345v -5.79162h 0.181345v 2.61832h
 0.181345v 0.732697h 0.181345v -2.09885h 0.181345v 6.41906h 0.181345v 1.03609h 0.181345v -5.3563h 0.181345v -1.4313h 0.36269v -0.667546h 0.181345v -1.84116h 0.181345v 7.29102h 0.181345v -1.76878h 0.181345v 0.858366h 0.181345v 4.0286h 0.181345v
 -3.11819h 0.181345v -3.35102h 0.181345v 3.35102h 0.181345v 4.32021h 0.181345v -4.32021h 0.181345v -3.35102h 0.181345v 6.4692h 0.181345v -1.1129h 0.181345v 8.40393h 0.181345v -3.35102h 0.181345v -5.05291h 0.181345v -7.45515h 0.181345v 2.86914h
 0.181345v -1.50298h 0.181345v 9.7106h 0.181345v -4.65769h 0.181345v -0.969195h 0.181345v 5.62689h 0.181345v -6.53731h 0.181345v 5.23063h 0.181345v 1.30668h 0.181345v -8.20762h 0.181345v 4.58601h 0.36269v -6.7876h 0.181345v 6.7876h 0.181345v
 -4.58601h 0.181345v -6.35017h 0.181345v 10.9362h 0.181345v -8.70732h 0.181345v 5.79162h 0.181345v -0.858366h 0.181345v -1.58223h 0.181345v -0.732697h 0.181345v -2.00528h 0.181345v -1.20203h 0.181345v 12.9179h 0.181345v -11.7159h 0.181345v -5.23063h
 0.181345v -0.858366h 0.181345v 1.76878h 0.36269v 0.969195h 0.181345v 3.35102h 0.181345v -7.29102h 0.181345v 0.390082h 0.181345v 1.67031h 0.181345v -2.4406h 0.181345v 4.82932h 0.181345v 4.14858h 0.181345v -5.62689h 0.181345v -2.18024h 0.181345v
 -0.400485h 0.181345v 3.05751h 0.181345v 1.5285h 0.181345v 0.546144h 0.181345v 2.40792h 0.181345v 4.53945h 0.181345v -5.79162h 0.181345v 1.25217h 0.181345v 2.09885h 0.181345v 4.32021h 0.181345v 3.35102h 0.181345v -4.32021h 0.181345v -5.44987h
 0.181345v 8.56805h 0.181345v -1.1129h 0.181345v 10.4092h 0.181345v -3.77407h 0.181345v -6.63514h 0.181345v 8.40393h 0.181345v -1.76878h 0.181345v -9.55084h 0.181345v 5.23063h 0.36269v -6.90094h 0.181345v 1.67031h 0.181345v -6.3806h 0.181345v
 1.20203h 0.181345v 2.73798h 0.181345v 0.770288h 0.181345v -2.20159h 0.181345v -5.15011h 0.181345v 3.84343h 0.181345v -5.66595h 0.181345v -1.235h 0.181345v -1.85635h 0.181345v -4.49382h 0.181345v -0.757336h 0.36269v -4.62483h 0.181345v -4.89702h
 0.181345v 2.09885h 0.181345v 1.41629h 0.181345v -4.52509h 0.181345v -1.5088h 0.181345v -1.67031h 0.181345v -0.48604h 0.181345v 0.988338h 0.181345v -1.17843h 0.181345v -2.02888h 0.181345v -0.406998h 0.181345v 0.324711h 0.181345v -2.90121h 0.181345v
 3.40184h 0.181345v -2.35125h 0.181345v 1.2869h 0.181345v -2.86914h 0.181345v 0.873737h 0.181345v -0.409589h 0.181345v 1.5598h 0.181345v -0.441718h 0.181345v -1.64738h 0.181345v 1.21829h 0.181345v -0.2794h 0.181345v 0.35007h 0.181345v -1.67404h
 0.181345v 0.647398h 0.181345v -2.38094h 0.181345v -0.334973h 0.181345v -1.4714h 0.181345v -0.54078h 0.181345v 0.0968862h 0.181345v -0.711854h 0.181345v -1.45656h 0.181345v 1.69012h 0.181345v -1.89899h 0.181345v 1.66543h 0.181345v 0.0464214h
 0.181345v -0.0926998h 0.181345v 0.374283h 0.181345v 0.238754h 0.181345v 1.41206h 0.181345v -1.83912h 0.181345v 0.718669h 0.181345v 2.56234h 0.181345v 0.0583197h 0.181345v 1.21664h 0.181345v 2.54908h 0.181345v -1.15575h 0.181345v 2.08495h 0.181345v
 1.77877h 0.181345v 0.549475h 0.181345v 4.16555h 0.181345v 0.757336h 0.181345v 0.393489h 0.181345v 4.10034h 0.181345v 4.43708h 0.181345v 0.236498h 0.181345v -0.698606h 0.181345v 3.58029h 0.181345v 2.85394h 0.181345v 1.85635h 0.36269v 3.54992h
 0.36269v 2.73798h 0.36269v 3.35102h 0.181345v 2.4406h 0.36269v 1.87961h 0.181345v -2.73798h 0.181345v -3.01354h 0.181345v 4.78232h 0.181345v 4.32021h 0.181345v -1.20203h 0.181345v -1.1129h 0.181345v 8.40393h 0.181345v -1.76878h 0.181345v 12.178h
 0.181345v -10.4092h 0.181345v -7.29102h 0.181345v 9.29631h 0.181345v -3.77407h 0.181345v 6.089h 0.181345v -4.32021h 0.181345v 7.05819h 0.181345v -2.73798h 0.181345v -10.4092h 0.181345v 10.4092h 0.36269v -9.10253h 0.181345v 6.7876h 0.181345v
 -2.00528h 0.181345v 7.05819h 0.181345v -7.05819h 0.181345v 4.32021h 0.36269v -6.089h 0.181345v 6.089h 0.36269v 10.4092h 0.181345v -10.4092h 0.181345v 26.9074h 0.181345v -26.9074h 0.181345v -6.089h 0.181345v 12.178h 0.181345v 10.4092h 0.181345v
 -13.7602h 0.181345v 34.5786h 0.181345v -37.3166h 0.181345v 10.4092h 0.181345v -7.67123h 0.181345v -2.73798h 0.181345v -2.31493h 0.181345v 5.05291h 0.36269v 13.7602h 0.181345v -10.4092h 0.181345v -3.35102h 0.181345v 34.5786h 0.181345v -37.3166h
 0.36269v 6.089h 0.181345v -3.35102h 0.181345v 13.7602h 0.181345v -13.7602h 0.181345v -5.05291h 0.36269v -2.00528h 0.181345v -3.35102h 0.181345v 13.7602h 0.181345v -8.40393h 0.181345v 8.40393h 0.181345v -6.089h 0.181345v 2.73798h 0.181345v -5.05291h
 0.181345v 12.7241h 0.181345v -7.67123h 0.181345v 7.67123h 0.181345v -12.7241h 0.36269v 8.40393h 0.181345v -10.4092h 0.181345v -3.35102h 0.544034v 7.67123h 0.181345v -6.089h 0.181345v 12.178h 0.181345v -16.4982h 0.36269v 6.089h 0.181345v -4.78232h
 0.181345v -9.7106h 0.181345v 8.40393h 0.181345v -6.90094h 0.181345v 3.54992h 0.36269v -0.969195h 0.181345v -4.78232h 0.181345v 9.10253h 0.181345v -8.40393h 0.181345v -2.61832h 0.181345v 1.25217h 0.181345v -3.99015h 0.181345v 0.50911h 0.181345v
 0.526977h 0.181345v 1.70189h 0.181345v -2.73798h 0.181345v 2.73798h 0.181345v 4.1213h 0.36269v -2.86914h 0.181345v -1.84116h 0.181345v 10.4092h 0.36269v -5.69892h 0.181345v -2.86914h 0.181345v 0.667546h 0.181345v 0.698606h 0.181345v 3.1733h
 0.181345v 4.0286h 0.181345v 22.0204h 0.181345v -23.1333h 0.181345v 1.1129h 0.181345v 1.20203h 0.181345v 4.32021h 0.181345v 22.5872h 0.36269v -18.8131h 0.181345v 18.8131h 0.181345v -26.9074h 0.181345v 13.1472h 0.181345v 3.35102h 0.36269v -10.4092h
 0.181345v 7.05819h 0.181345v 24.1694h 0.181345v -16.4982h 0.181345v -7.67123h 0.181345v 3.35102h 0.36269v 4.32021h 0.36269v 16.4982h 0.36269v -10.4092h 0.181345v -10.4092h 0.181345v -8.40393h 0.181345v 12.7241h 0.544034v -10.4092h 0.181345v 26.9074h
 0.181345v -29.2223h 0.181345v 12.7241h 0.181345v -7.67123h 0.181345v 7.67123h 0.181345v 16.4982h 0.181345v -16.4982h 0.181345v -4.32021h 0.181345v 10.4092h 0.181345v -13.7602h 0.181345v -5.05291h 0.181345v -2.00528h 0.181345v 4.32021h 0.181345v
 26.9074h 0.181345v -16.4982h 0.181345v 6.089h 0.181345v -6.089h 0.181345v 6.089h 0.36269v -10.4092h 0.181345v -3.35102h 0.181345v 3.35102h 0.181345v -3.35102h 0.181345v -5.05291h 0.181345v -2.00528h 0.181345v 14.7294h 0.544034v 6.089h 0.181345v
 -13.7602h 0.181345v -2.73798h 0.181345v 6.089h 0.36269v -3.35102h 0.181345v 3.35102h 0.181345v -10.4092h 0.181345v 7.05819h 0.181345v -8.82698h 0.181345v 6.089h 0.181345v -2.31493h 0.181345v 8.40393h 0.181345v 10.4092h 0.181345v -26.9074h 0.181345v
 13.1472h 0.36269v -13.1472h 0.181345v 6.089h 0.181345v 2.00528h 0.181345v 8.40393h 0.181345v -12.178h 0.181345v -5.52224h 0.181345v 11.6112h 0.181345v -6.089h 0.181345v -4.32021h 0.181345v 10.4092h 0.36269v -9.10253h 0.181345v 19.5117h 0.181345v
 -16.4982h 0.181345v -6.63514h 0.181345v 12.7241h 0.181345v 2.73798h 0.181345v -18.3778h 0.181345v 1.87961h 0.181345v 2.14899h 0.181345v 11.6112h 0.181345v -12.7241h 0.181345v 6.63514h 0.181345v -1.58223h 0.181345v -5.05291h 0.181345v 5.05291h
 0.181345v -1.4313h 0.36269v 6.7876h 0.181345v 2.31493h 0.36269v -2.31493h 0.181345v -3.77407h 0.725379v 6.089h 0.181345v -6.089h 0.36269v 12.178h 0.181345v -12.178h 0.36269v -1.58223h 0.181345v 5.3563h 0.181345v -3.77407h 0.181345v -6.63514h
 0.181345v 12.7241h 0.181345v -2.31493h 0.181345v 8.40393h 0.181345v -3.35102h 0.181345v 24.1694h 0.181345v -29.2223h 0.36269v 5.05291h 0.181345v -7.05819h 0.181345v 2.00528h 0.36269v 8.40393h 0.181345v -13.7602h 0.181345v 7.67123h 0.181345v
 -4.32021h 0.181345v -1.76878h 0.725379v 3.77407h 0.181345v -5.3563h 0.36269v 7.67123h 0.181345v 2.73798h 0.181345v -10.4092h 0.181345v 1.58223h 0.181345v -12.7241h 0.181345v 16.4982h 0.181345v -2.00528h 0.36269v -3.35102h 0.181345v -1.4313h
 0.181345v 6.7876h 0.181345v -8.09428h 0.181345v -1.20203h 0.181345v 7.29102h 0.181345v 2.00528h 0.181345v -2.00528h 0.181345v -1.76878h 0.181345v -6.63514h 0.181345v 2.31493h 0.181345v -1.20203h 0.181345v 2.5087h 0.181345v -7.39567h 0.36269v 6.089h
 0.181345v 2.73798h 0.181345v 3.35102h 0.181345v -3.35102h 0.181345v -8.82698h 0.181345v 4.88697h 0.181345v -3.11819h 0.36269v 0.969195h 0.36269v -0.969195h 0.181345v 5.62689h 0.181345v -3.62161h 0.181345v -2.00528h 0.181345v 5.62689h 0.181345v
 -4.65769h 0.181345v 1.03609h 0.181345v -5.3563h 0.181345v 8.97791h 0.181345v -7.39567h 0.181345v 6.089h 0.181345v -6.90094h 0.181345v 8.20762h 0.181345v -8.20762h 0.181345v 4.58601h 0.36269v -2.00528h 0.181345v -2.58073h 0.181345v 1.67031h 0.181345v
 -1.67031h 0.181345v 6.90094h 0.181345v -4.32021h 0.181345v 2.00528h 0.181345v -2.9157h 0.181345v -4.53945h 0.181345v 4.53945h 0.181345v -2.4406h 0.181345v 1.58223h 0.181345v -0.811944h 0.181345v 3.54992h 0.181345v -1.87961h 0.181345v 0.910419h
 0.181345v -1.76878h 0.181345v -1.58223h 0.181345v 3.35102h 0.181345v 0.969195h 0.181345v -6.41906h 0.181345v -2.40792h 0.181345v 16.4982h 0.181345v -12.7241h 0.181345v 6.089h 0.181345v -6.7876h 0.181345v 3.8719h 0.181345v -5.17858h 0.181345v
 4.32021h 0.181345v -2.31493h 0.181345v -3.77407h 0.181345v 8.82698h 0.181345v -3.54992h 0.181345v 3.54992h 0.181345v -3.54992h 0.181345v 1.67031h 0.181345v -1.67031h 0.181345v 3.54992h 0.181345v -2.73798h 0.181345v 0.858366h 0.181345v -1.67031h
 0.181345v -2.20159h 0.181345v 3.8719h 0.181345v 2.9157h 0.181345v -6.089h 0.181345v -1.36615h 0.36269v -0.639131h 0.181345v 5.17858h 0.181345v -0.858366h 0.181345v -1.58223h 0.181345v -2.09885h 0.181345v -1.84116h 0.181345v 0.58899h 0.36269v
 -1.70189h 0.181345v 1.70189h 0.181345v -2.73798h 0.181345v 4.65769h 0.181345v 4.78232h 0.181345v -8.40393h 0.181345v -2.46739h 0.181345v -0.883626h 0.181345v 3.35102h 0.181345v -1.5285h 0.181345v -2.24557h 0.181345v 2.73798h 0.181345v 2.14899h
 0.181345v -4.88697h 0.181345v 1.30668h 0.181345v 2.46739h 0.181345v -2.00528h 0.181345v -1.76878h 0.181345v 1.30668h 0.181345v 3.58029h 0.181345v -4.46392h 0.181345v 5.66595h 0.181345v -5.23063h 0.181345v 0.910419h 0.181345v -2.97081h 0.181345v
 1.62508h 0.181345v -0.423051h 0.181345v -0.811944h 0.181345v 4.58601h 0.36269v -3.77407h 0.36269v 1.30668h 0.181345v 0.938888h 0.181345v -5.59658h 0.181345v 5.1198h 0.181345v 0.47678h 0.181345v -3.05751h 0.181345v 0.811944h 0.181345v 0.858366h
 0.181345v -3.1733h 0.181345v 2.73798h 0.181345v 0.435315h 0.181345v -0.435315h 0.181345v -1.62508h 0.181345v 2.5087h 0.181345v 1.94041h 0.36269v -0.50911h 0.181345v -3.14944h 0.181345v 3.65855h 0.181345v 6.35017h 0.36269v -4.1213h 0.181345v
 -0.58899h 0.181345v -2.14899h 0.181345v 12.5582h 0.181345v -7.90051h 0.181345v -4.65769h 0.181345v 4.65769h 0.181345v 4.78232h 0.181345v -3.35102h 0.181345v 5.3563h 0.181345v -8.09428h 0.181345v 0.639131h 0.181345v 4.53945h 0.181345v -3.1733h
 0.181345v 1.50298h 0.181345v -1.50298h 0.181345v -1.36615h 0.181345v 2.09885h 0.181345v 1.58223h 0.181345v 4.88697h 0.181345v -7.2019h 0.181345v -1.36615h 0.181345v -4.95934h 0.181345v 4.95934h 0.181345v 3.68108h 0.181345v -3.68108h 0.181345v
 4.53945h 0.181345v 1.87961h 0.181345v -3.54992h 0.181345v -4.71029h 0.181345v 3.20731h 0.181345v 0.732697h 0.181345v -3.35102h 0.181345v 0.613037h 0.181345v -1.20203h 0.181345v 3.94001h 0.181345v 2.4406h 0.181345v -6.3806h 0.181345v 3.20731h
 0.181345v 2.31493h 0.181345v -0.811944h 0.181345v -0.770288h 0.181345v -3.35102h 0.36269v 1.91971h 0.181345v 3.01354h 0.181345v -4.32021h 0.181345v 4.32021h 0.181345v -6.089h 0.181345v 2.40792h 0.181345v 2.86914h 0.181345v 1.67031h 0.181345v
 -1.67031h 0.181345v 2.58073h 0.181345v -2.58073h 0.36269v 1.67031h 0.181345v -2.4406h 0.181345v -2.09885h 0.181345v 3.68108h 0.181345v 3.77407h 0.36269v -2.00528h 0.181345v -4.78232h 0.181345v 2.20159h 0.181345v -0.770288h 0.181345v 0.770288h
 0.181345v -5.8232h 0.181345v 2.95406h 0.181345v 4.53945h 0.181345v 0.910419h 0.181345v -4.08371h 0.181345v 2.31493h 0.181345v 7.39567h 0.181345v -11.7159h 0.181345v 0.639131h 0.181345v 0.667546h 0.181345v -1.91971h 0.181345v 6.70203h 0.36269v
 -4.08371h 0.181345v 4.08371h 0.181345v -6.089h 0.181345v -0.613037h 0.181345v 3.35102h 0.181345v -2.09885h 0.181345v 2.09885h 0.181345v 4.32021h 0.181345v -10.4092h 0.181345v 7.67123h 0.181345v -2.31493h 0.181345v 1.50298h 0.181345v -4.71029h
 0.181345v 1.20203h 0.181345v 3.50827h 0.181345v -3.50827h 0.181345v -4.78232h 0.181345v 3.01354h 0.181345v -3.46185h 0.181345v 7.23591h 0.181345v -3.20731h 0.181345v -1.1129h 0.181345v 2.95406h 0.181345v -2.95406h 0.181345v 5.05291h 0.181345v
 -5.57989h 0.36269v 4.14858h 0.181345v 1.4313h 0.544034v -3.35102h 0.181345v 1.91971h 0.181345v -6.089h 0.181345v 1.94041h 0.181345v 3.48104h 0.181345v -1.25217h 0.181345v 3.35102h 0.181345v -1.4313h 0.181345v -5.15011h 0.181345v 4.48256h 0.181345v
 -2.40792h 0.181345v 3.07546h 0.181345v -3.07546h 0.181345v 1.15575h 0.181345v 2.61832h 0.181345v 2.31493h 0.36269v -5.52224h 0.181345v 1.84116h 0.181345v 3.68108h 0.181345v -6.089h 0.181345v 1.76878h 0.181345v -0.613037h 0.181345v 1.91971h 0.181345v
 -4.14858h 0.181345v -2.82404h 0.181345v 3.35102h 0.181345v 11.5221h 0.181345v -13.0506h 0.181345v 5.15011h 0.181345v -3.62161h 0.181345v 3.62161h 0.181345v 6.7876h 0.181345v -6.7876h 0.181345v -4.65769h 0.181345v 1.03609h 0.181345v -0.526977h
 0.181345v 4.14858h 0.181345v -4.14858h 0.181345v 5.57989h 0.181345v -1.4313h 0.181345v -4.65769h 0.181345v -0.492415h 0.181345v 3.2304h 0.181345v -4.16928h 0.181345v 0.938888h 0.181345v 3.2304h 0.181345v -6.2879h 0.181345v 0.811944h 0.181345v
 4.88697h 0.181345v -7.2019h 0.181345v 6.63514h 0.181345v -3.89716h 0.181345v 9.17421h 0.181345v -8.7389h 0.181345v -3.1733h 0.181345v 4.56049h 0.181345v -1.82251h 0.181345v -0.423051h 0.181345v 2.24557h 0.181345v 1.00153h 0.181345v -6.59811h
 0.181345v 6.59811h 0.181345v -5.20014h 0.181345v 3.72183h 0.181345v -3.72183h 0.181345v 10.78h 0.181345v -9.23844h 0.181345v 2.18024h 0.181345v -2.97081h 0.181345v 2.97081h 0.181345v 0.47678h 0.181345v 0.492415h 0.181345v 2.73798h 0.181345v
 -1.15575h 0.181345v 3.07546h 0.181345v -3.62161h 0.181345v -0.526977h 0.181345v 2.84191h 0.36269v 3.50827h 0.181345v -7.3517h 0.181345v 1.00153h 0.181345v 12.0491h 0.181345v -7.90051h 0.181345v 1.4313h 0.181345v 1.58223h 0.181345v -4.32021h
 0.181345v 2.73798h 0.181345v -2.73798h 0.181345v 2.73798h 0.181345v -1.4313h 0.181345v 2.20159h 0.181345v 3.54992h 0.181345v -7.05819h 0.181345v 3.50827h 0.181345v 3.54992h 0.181345v -5.05291h 0.181345v 6.089h 0.181345v -6.7876h 0.181345v 2.20159h
 0.181345v -1.50298h 0.181345v -2.61832h 0.181345v -0.58899h 0.181345v 6.3806h 0.181345v -0.858366h 0.181345v -0.811944h 0.181345v -0.770288h 0.181345v 1.58223h 0.181345v -5.52224h 0.181345v 10.4092h 0.181345v -6.4692h 0.181345v 6.4692h 0.181345v
 -3.11819h 0.181345v -7.85778h 0.181345v 4.50677h 0.181345v -0.732697h 0.181345v -2.61832h 0.181345v 1.91971h 0.181345v -0.667546h 0.181345v -4.48256h 0.181345v 8.16364h 0.181345v -5.52224h 0.181345v 4.71029h 0.181345v -5.27705h 0.181345v -1.07312h
 0.181345v 0.526977h 0.181345v 2.95406h 0.181345v 3.68108h 0.181345v -0.811944h 0.36269v -3.50827h 0.181345v -3.84343h 0.181345v 6.58141h 0.181345v 4.32021h 0.181345v -7.67123h 0.181345v 4.1213h 0.181345v -0.770288h 0.181345v -6.58141h 0.181345v
 -0.47678h 0.181345v 0.47678h 0.181345v 6.58141h 0.181345v 1.58223h 0.181345v -3.68108h 0.181345v -0.639131h 0.181345v 5.17858h 0.181345v -7.49351h 0.181345v 8.40393h 0.181345v -6.089h 0.181345v 0.639131h 0.181345v 8.56805h 0.181345v 7.29102h
 0.181345v -12.178h 0.181345v 7.39567h 0.181345v -2.5087h 0.181345v 17.7002h 0.181345v -18.8131h 0.181345v 18.8131h 0.181345v -10.4092h 0.181345v -9.44001h 0.181345v 2.14899h 0.181345v 9.29631h 0.181345v -5.3563h 0.181345v 3.35102h 0.181345v
 -1.76878h 0.181345v 3.77407h 0.181345v -2.00528h 0.181345v 2.00528h 0.181345v 2.31493h 0.181345v -7.67123h 0.181345v -3.94001h 0.181345v 2.5087h 0.181345v 3.01354h 0.181345v -7.67123h 0.181345v 4.65769h 0.181345v 1.4313h 0.181345v -2.73798h
 0.181345v 2.73798h 0.181345v -2.73798h 0.181345v -2.31493h 0.181345v 3.62161h 0.181345v 3.01354h 0.36269v -3.01354h 0.36269v 4.78232h 0.181345v -7.29102h 0.181345v 11.6112h 0.181345v -14.7294h 0.181345v 3.11819h 0.36269v -2.14899h 0.181345v 6.089h
 0.181345v 3.35102h 0.181345v -3.35102h 0.181345v -2.73798h 0.181345v 1.30668h 0.36269v -1.30668h 0.181345v 6.089h 0.181345v 4.32021h 0.181345v -9.10253h 0.181345v -3.62161h 0.181345v 6.63514h 0.36269v -5.52224h 0.181345v -4.88697h 0.181345v 7.39567h
 0.181345v 3.01354h 0.181345v 6.089h 0.181345v -4.32021h 0.181345v 2.00528h 0.181345v -10.4092h 0.181345v 2.31493h 0.36269v 4.32021h 0.36269v -1.58223h 0.181345v -10.4092h 0.181345v 3.35102h 0.181345v 8.64042h 0.181345v -5.52224h 0.181345v -1.1129h
 0.36269v 6.63514h 0.181345v -3.01354h 0.181345v 3.01354h 0.181345v -3.01354h 0.36269v 1.4313h 0.36269v -8.82698h 0.181345v 2.73798h 0.181345v 1.03609h 0.181345v -2.9157h 0.181345v 6.53731h 0.181345v -1.30668h 0.181345v -2.31493h 0.181345v 1.1129h
 0.181345v 3.94001h 0.181345v -8.82698h 0.181345v 6.089h 0.181345v -3.35102h 0.181345v 6.089h 0.181345v -6.089h 0.181345v 4.65769h 0.36269v -1.30668h 0.181345v -2.31493h 0.36269v 3.62161h 0.181345v 19.5117h 0.181345v -4.32021h 0.181345v -13.7602h
 0.181345v -6.089h 0.181345v 16.4982h 0.181345v -16.4982h 0.181345v -2.73798h 0.181345v 8.82698h 0.181345v -7.05819h 0.181345v 14.7294h 0.181345v -10.4092h 0.181345v -1.20203h 0.181345v 3.94001h 0.181345v -3.94001h 0.181345v 3.94001h 0.181345v
 -2.73798h 0.181345v 1.30668h 0.181345v -4.65769h 0.181345v 2.14899h 0.181345v -2.14899h 0.181345v 2.14899h 0.181345v -2.14899h 0.181345v -0.969195h 0.181345v 12.4145h 0.181345v -10.4092h 0.181345v 1.1129h 0.181345v 2.5087h 0.181345v -7.39567h
 0.181345v 7.39567h 0.181345v -3.62161h 0.181345v 6.63514h 0.181345v -10.4092h 0.181345v -1.58223h 0.181345v 4.32021h 0.181345v 1.03609h 0.181345v -1.03609h 0.181345v 4.65769h 0.181345v -4.65769h 0.181345v 1.03609h 0.181345v -3.77407h 0.181345v
 7.39567h 0.36269v -6.53731h 0.181345v -1.67031h 0.181345v 9.63892h 0.181345v -10.4092h 0.181345v 7.67123h 0.181345v -6.089h 0.181345v -0.811944h 0.181345v -2.20159h 0.181345v 0.698606h 0.181345v 5.05291h 0.181345v 4.65769h 0.181345v -11.7159h
 0.181345v 4.32021h 0.181345v 8.82698h 0.181345v -11.8405h 0.181345v 4.78232h 0.181345v -6.089h 0.181345v -1.76878h 0.181345v 6.94736h 0.181345v -8.5296h 0.181345v -2.31493h 0.181345v -0.423051h 0.181345v 3.24709h 0.181345v -0.50911h 0.181345v
 4.65769h 0.181345v -3.07546h 0.181345v 3.77407h 0.181345v -4.32021h 0.181345v -1.03609h 0.181345v 0.50911h 0.181345v -0.50911h 0.181345v 1.58223h 0.181345v 1.76878h 0.181345v -5.23063h 0.181345v 2.38872h 0.181345v 2.84191h 0.181345v 0.639131h
 0.181345v -2.95406h 0.181345v -4.18553h 0.181345v 5.88742h 0.181345v -2.73798h 0.181345v 0.50911h 0.181345v 1.07312h 0.181345v 2.40792h 0.181345v 0.667546h 0.181345v -3.07546h 0.181345v -1.58223h 0.181345v 6.089h 0.181345v -5.05291h 0.36269v
 3.62161h 0.181345v -5.15011h 0.181345v 4.48256h 0.181345v 7.45515h 0.181345v -3.77407h 0.181345v -4.32021h 0.181345v 5.17858h 0.181345v -3.8719h 0.181345v 10.4092h 0.181345v -7.39567h 0.181345v 8.82698h 0.36269v 3.35102h 0.181345v -3.35102h 0.36269v
 -5.05291h 0.181345v 10.4092h 0.181345v -2.00528h 0.181345v 10.4092h 0.181345v -10.4092h 0.181345v 7.05819h 0.181345v -2.73798h 0.181345v 10.4092h 0.181345v -12.7241h 0.181345v 29.2223h 0.181345v -20.8184h 0.181345v -3.35102h 0.36269v -5.05291h
 0.181345v 12.7241h 0.181345v -4.32021h 0.36269v 20.8184h 0.36269v -10.4092h 0.181345v 10.4092h 0.181345v -10.4092h 0.181345v -10.4092h 0.181345v -8.40393h 0.181345v 12.7241h 0.181345v -4.32021h 0.181345v 31.2276h 0.181345v -26.9074h 0.181345v 6.089h
 0.181345v -6.089h 0.181345v 16.4982h 0.181345v 10.4092h 0.181345v -37.3166h 0.181345v 37.3166h 0.181345v -26.9074h 0.181345v 26.9074h 0.181345v -20.8184h 0.544034v 10.4092h 0.181345v 10.4092h 0.36269v -20.8184h 0.181345v 10.4092h 0.181345v 10.4092h
 0.181345v -34.5786h 0.181345v 7.67123h 0.181345v 16.4982h 0.181345v -20.8184h 0.181345v 31.2276h 0.181345v -20.8184h 0.181345v 10.4092h 0.181345v -16.4982h 0.181345v 26.9074h 0.181345v -10.4092h 0.36269v -10.4092h 0.36269v 20.8184h 0.181345v
 -10.4092h 0.181345v -10.4092h 0.181345v -13.7602h 0.181345v 13.7602h 0.181345v 10.4092h 0.181345v 10.4092h 0.181345v -20.8184h 0.181345v 10.4092h 0.725379v -10.4092h 0.181345v 10.4092h 0.544034v -10.4092h 0.36269v 20.8184h 0.181345v -26.9074h
 0.181345v 26.9074h 0.181345v -26.9074h 0.181345v 26.9074h 0.181345v -10.4092h 0.181345v -10.4092h 0.36269v 10.4092h 0.181345v 10.4092h 0.181345v -10.4092h 0.36269v 10.4092h 0.36269v -10.4092h 0.181345v -16.4982h 0.181345v 26.9074h 0.36269v -10.4092h
 0.181345v -10.4092h 0.181345v 10.4092h 0.544034v 10.4092h 0.181345v -20.8184h 0.181345v 10.4092h 0.181345v 10.4092h 0.906724v -26.9074h 0.181345v 26.9074h 0.181345v -20.8184h 0.181345v 20.8184h 0.181345v -20.8184h 0.181345v 10.4092h 0.181345v
 10.4092h 0.181345v -20.8184h 0.181345v 10.4092h 0.181345v -10.4092h 0.181345v 10.4092h 0.181345v 10.4092h 0.544034v -10.4092h 0.181345v -16.4982h 0.181345v 6.089h 0.36269v 10.4092h 0.544034v 10.4092h 0.36269v -20.8184h 0.181345v 20.8184h 0.181345v
 -10.4092h 0.544034v -10.4092h 0.181345v -6.089h 0.181345v 6.089h 0.544034v 20.8184h 0.181345v -20.8184h 0.181345v -6.089h 0.725379v 16.4982h 0.181345v 10.4092h 0.181345v -10.4092h 0.181345v 10.4092h 0.181345v -10.4092h 0.181345v -10.4092h 0.181345v
 20.8184h 0.181345v -20.8184h 0.181345v 10.4092h 0.544034v -10.4092h 0.544034v 10.4092h 0.181345v 10.4092h 0.36269v -10.4092h 0.181345v -10.4092h 0.181345v 20.8184h 0.181345v -10.4092h 0.181345v 10.4092h 0.544034v -10.4092h 0.181345v 10.4092h
 0.181345v -10.4092h 0.181345v 10.4092h 0.181345v -20.8184h 0.181345v 10.4092h 0.36269v 10.4092h 0.181345v -10.4092h 0.36269v -10.4092h 0.181345v 10.4092h 0.181345v -10.4092h 0.181345v 10.4092h 0.181345v 10.4092h 0.181345v -10.4092h 0.181345v
 10.4092h 0.181345v -10.4092h 0.181345v 10.4092h 0.36269v -10.4092h 0.181345v 10.4092h 0.181345v -20.8184h 0.181345v 10.4092h 0.36269v -10.4092h 0.181345v 20.8184h 0.181345v -10.4092h 0.36269v -10.4092h 0.181345v 10.4092h 0.181345v -10.4092h
 0.181345v 10.4092h 0.544034v -10.4092h 0.36269v 10.4092h 0.725379v -16.4982h 0.181345v 16.4982h 0.36269v -10.4092h 0.181345v 20.8184h 0.181345v -31.2276h 0.181345v 20.8184h 0.181345v 10.4092h 0.36269v -10.4092h 0.181345v 10.4092h 0.36269v -26.9074h
 0.181345v 26.9074h 0.36269v -26.9074h 0.181345v 16.4982h 0.36269v -10.4092h 0.181345v 10.4092h 0.181345v -10.4092h 0.36269v 10.4092h 0.181345v 10.4092h 0.181345v -10.4092h 0.544034v 10.4092h 0.181345v -10.4092h 0.181345v 10.4092h 0.181345v -10.4092h
 0.181345v 10.4092h 0.36269v -10.4092h 0.36269v -10.4092h 0.36269v 10.4092h 0.181345v 10.4092h 0.181345v -10.4092h 0.181345v 10.4092h 0.181345v -20.8184h 0.181345v 10.4092h 0.36269v 10.4092h 0.36269v -26.9074h 0.181345v 6.089h 0.181345v 20.8184h
 0.544034v -20.8184h 0.181345v 20.8184h 0.181345v -26.9074h 0.36269v 16.4982h 0.36269v -16.4982h 0.181345v 26.9074h 0.181345v -10.4092h 0.181345v -10.4092h 0.181345v 10.4092h 0.181345v 10.4092h 0.181345v -10.4092h 0.36269v 10.4092h 0.181345v
 -10.4092h 0.544034v -10.4092h 0.36269v 10.4092h 0.36269v -16.4982h 0.181345v 26.9074h 0.181345v -10.4092h 0.181345v 10.4092h 0.181345v -20.8184h 0.181345v 20.8184h 0.181345v -10.4092h 0.544034v 10.4092h 0.181345v -20.8184h 0.181345v 10.4092h
 0.181345v 10.4092h 0.181345v -10.4092h 0.36269v -10.4092h 0.181345v 20.8184h 0.36269v -10.4092h 0.36269v 10.4092h 0.181345v -20.8184h 0.181345v 20.8184h 0.181345v -10.4092h 0.181345v 10.4092h 0.181345v -20.8184h 0.181345v 20.8184h 0.181345v
 -20.8184h 0.36269v 10.4092h 0.181345v -24.1694h 0.181345v 24.1694h 0.181345v 10.4092h 0.181345v -10.4092h 0.36269v -16.4982h 0.181345v 26.9074h 0.181345v -10.4092h 0.181345v 10.4092h 0.36269v -10.4092h 0.181345v 10.4092h 0.181345v -10.4092h
 0.181345v 10.4092h 0.36269v -10.4092h 0.36269v 10.4092h 0.36269v -20.8184h 0.181345v 20.8184h 0.36269v -10.4092h 0.36269v 10.4092h 0.181345v -10.4092h 0.181345v 10.4092h 0.181345v -31.2276h 0.181345v 20.8184h 0.36269v -10.4092h 0.36269v 10.4092h
 0.181345v 10.4092h 0.181345v -10.4092h 0.181345v 10.4092h 0.544034v -10.4092h 0.181345v 10.4092h 0.181345v -10.4092h 0.906724v 10.4092h 0.181345v -10.4092h 0.181345v -16.4982h 0.181345v 26.9074h 0.181345v -26.9074h 0.181345v 16.4982h 0.181345v
 10.4092h 0.36269v -20.8184h 0.181345v 10.4092h 0.544034" fill="none" stroke="black"/>
<path d="M57.1929,280.151h 453.543" fill="none" stroke="black"/>
<path d="M57.1929,272.68v 7.47068" fill="none" stroke="black"/>
<path d="M75.3318,276.415v 3.73534" fill="none" stroke="black"/>
<path d="M93.4707,276.415v 3.73534" fill="none" stroke="black"/>
<path d="M111.61,276.415v 3.73534" fill="none" stroke="black"/>
<path d="M129.749,276.415v 3.73534" fill="none" stroke="black"/>
<path d="M147.887,272.68v 7.47068" fill="none" stroke="black"/>
<path d="M166.026,276.415v 3.73534" fill="none" stroke="black"/>
<path d="M184.165,276.415v 3.73534" fill="none" stroke="black"/>
<path d="M202.304,276.415v 3.73534" fill="none" stroke="black"/>
<path d="M220.443,276.415v 3.73534" fill="none" stroke="black"/>
<path d="M238.582,272.68v 7.47068" fill="none" stroke="black"/>
<path d="M256.721,276.415v 3.73534" fill="none" stroke="black"/>
<path d="M274.86,276.415v 3.73534" fill="none" stroke="black"/>
<path d="M292.999,276.415v 3.73534" fill="none" stroke="black"/>
<path d="M311.138,276.415v 3.73534" fill="none" stroke="black"/>
<path d="M329.277,272.68v 7.47068" fill="none" stroke="black"/>
<path d="M347.415,276.415v 3.73534" fill="none" stroke="black"/>
<path d="M365.554,276.415v 3.73534" fill="none" stroke="black"/>
<path d="M383.693,276.415v 3.73534" fill="none" stroke="black"/>
<path d="M401.832,276.415v 3.73534" fill="none" stroke="black"/>
<path d="M419.971,272.68v 7.47068" fill="none" stroke="black"/>
<path d="M438.11,276.415v 3.73534" fill="none" stroke="black"/>
<path d="M456.249,276.415v 3.73534" fill="none" stroke="black"/>
<path d="M474.388,276.415v 3.73534" fill="none" stroke="black"/>
<path d="M492.527,276.415v 3.73534" fill="none" stroke="black"/>
<path d="M510.666,272.68v 7.47068" fill="none" stroke="black"/>
<path d="M510.666,272.68v 7.47068" fill="none" stroke="black"/>
<text xml:space="preserve" x="54.3523" y="290.27" fill="black" font-size="10.4952" font-family="Helvetica">0</text>
<text xml:space="preserve" x="139.569" y="290.27" fill="black" font-size="10.4952" font-family="Helvetica">500</text>
<text xml:space="preserve" x="227.449" y="290.27" fill="black" font-size="10.4952" font-family="Helvetica">1000</text>
<text xml:space="preserve" x="318.288" y="290.27" fill="black" font-size="10.4952" font-family="Helvetica">1500</text>
<text xml:space="preserve" x="408.831" y="290.27" fill="black" font-size="10.4952" font-family="Helvetica">2000</text>
<text xml:space="preserve" x="499.67" y="290.27" fill="black" font-size="10.4952" font-family="Helvetica">2500</text>
<text xml:space="preserve" x="265.323" y="301.218" fill="black" font-size="10.4952" font-family="Helvetica">Channel</text>
<path d="M57.1929,280.151v -249.023" fill="none" stroke="black"/>
<path d="M63.9961,280.151h -6.80315" fill="none" stroke="black"/>
<path d="M63.9961,277.413h -6.80315" fill="none" stroke="black"/>
<path d="M63.9961,275.098h -6.80315" fill="none" stroke="black"/>
<path d="M63.9961,273.092h -6.80315" fill="none" stroke="black"/>
<path d="M63.9961,271.324h -6.80315" fill="none" stroke="black"/>
<path d="M70.7992,269.741h -13.6063" fill="none" stroke="black"/>
<text xml:space="preserve" x="49.0263" y="273.404" fill="black" font-size="10.4952" font-family="Helvetica">1</text>
<path d="M63.9961,259.332h -6.80315" fill="none" stroke="black"/>
<path d="M63.9961,253.243h -6.80315" fill="none" stroke="black"/>
<path d="M63.9961,248.923h -6.80315" fill="none" stroke="black"/>
<path d="M63.9961,245.572h -6.80315" fill="none" stroke="black"/>
<path d="M63.9961,242.834h -6.80315" fill="none" stroke="black"/>
<path d="M63.9961,240.519h -6.80315" fill="none" stroke="black"/>
<path d="M63.9961,238.514h -6.80315" fill="none" stroke="black"/>
<path d="M63.9961,236.745h -6.80315" fill="none" stroke="black"/>
<path d="M70.7992,235.163h -13.6063" fill="none" stroke="black"/>
<text xml:space="preserve" x="41.629" y="238.785" fill="black" font-size="10.4952" font-family="Helvetica">10</text>
<path d="M63.9961,224.753h -6.80315" fill="none" stroke="black"/>
<path d="M63.9961,218.664h -6.80315" fill="none" stroke="black"/>
<path d="M63.9961,214.344h -6.80315" fill="none" stroke="black"/>
<path d="M63.9961,210.993h -6.80315" fill="none" stroke="black"/>
<path d="M63.9961,208.255h -6.80315" fill="none" stroke="black"/>
<path d="M63.9961,205.94h -6.80315" fill="none" stroke="black"/>
<path d="M63.9961,203.935h -6.80315" fill="none" stroke="black"/>
<path d="M63.9961,202.166h -6.80315" fill="none" stroke="black"/>
<path d="M70.7992,200.584h -13.6063" fill="none" stroke="black"/>
<text xml:space="preserve" x="49.0263" y="200.615" fill="black" font-size="7.16345" font-family="Helvetica">2</text>
<text xml:space="preserve" x="38.0783" y="205.053" fill="black" font-size="10.4952" font-family="Helvetica">10</text>
<path d="M63.9961,190.175h -6.80315" fill="none" stroke="black"/>
<path d="M63.9961,184.086h -6.80315" fill="none" stroke="black"/>
<path d="M63.9961,179.766h -6.80315" fill="none" stroke="black"/>
<path d="M63.9961,176.415h -6.80315" fill="none" stroke="black"/>
<path d="M63.9961,173.677h -6.80315" fill="none" stroke="black"/>
<path d="M63.9961,171.362h -6.80315" fill="none" stroke="black"/>
<path d="M63.9961,169.356h -6.80315" fill="none" stroke="black"/>
<path d="M63.9961,167.588h -6.80315" fill="none" stroke="black"/>
<path d="M70.7992,166.005h -13.6063" fill="none" stroke="black"/>
<text xml:space="preserve" x="49.0263" y="165.995" fill="black" font-size="7.16345" font-family="Helvetica">3</text>
<text xml:space="preserve" x="38.0783" y="170.73" fill="black" font-size="10.4952" font-family="Helvetica">10</text>
<path d="M63.9961,155.596h -6.80315" fill="none" stroke="black"/>
<path d="M63.9961,149.507h -6.80315" fill="none" stroke="black"/>
<path d="M63.9961,145.187h -6.80315" fill="none" stroke="black"/>
<path d="M63.9961,141.836h -6.80315" fill="none" stroke="black"/>
<path d="M63.9961,139.098h -6.80315" fill="none" stroke="black"/>
<path d="M63.9961,136.783h -6.80315" fill="none" stroke="black"/>
<path d="M63.9961,134.778h -6.80315" fill="none" stroke="black"/>
<path d="M63.9961,133.009h -6.80315" fill="none" stroke="black"/>
<path d="M70.7992,131.427h -13.6063" fill="none" stroke="black"/>
<text xml:space="preserve" x="49.0263" y="131.672" fill="black" font-size="7.16345" font-family="Helvetica">4</text>
<text xml:space="preserve" x="38.0783" y="136.11" fill="black" font-size="10.4952" font-family="Helvetica">10</text>
<path d="M63.9961,121.018h -6.80315" fill="none" stroke="black"/>
<path d="M63.9961,114.929h -6.80315" fill="none" stroke="black"/>
<path d="M63.9961,110.608h -6.80315" fill="none" stroke="black"/>
<path d="M63.9961,107.257h -6.80315" fill="none" stroke="black"/>
<path d="M63.9961,104.519h -6.80315" fill="none" stroke="black"/>
<path d="M63.9961,102.204h -6.80315" fill="none" stroke="black"/>
<path d="M63.9961,100.199h -6.80315" fill="none" stroke="black"/>
<path d="M63.9961,98.4304h -6.80315" fill="none" stroke="black"/>
<path d="M70.7992,96.8481h -13.6063" fill="none" stroke="black"/>
<text xml:space="preserve" x="49.0263" y="96.7567" fill="black" font-size="7.16345" font-family="Helvetica">5</text>
<text xml:space="preserve" x="38.0783" y="101.491" fill="black" font-size="10.4952" font-family="Helvetica">10</text>
<path d="M63.9961,86.4389h -6.80315" fill="none" stroke="black"/>
<path d="M63.9961,80.3499h -6.80315" fill="none" stroke="black"/>
<path d="M63.9961,76.0297h -6.80315" fill="none" stroke="black"/>
<path d="M63.9961,72.6787h -6.80315" fill="none" stroke="black"/>
<path d="M63.9961,69.9407h -6.80315" fill="none" stroke="black"/>
<path d="M63.9961,67.6258h -6.80315" fill="none" stroke="black"/>
<path d="M63.9961,65.6205h -6.80315" fill="none" stroke="black"/>
<path d="M63.9961,63.8517h -6.80315" fill="none" stroke="black"/>
<path d="M70.7992,62.2695h -13.6063" fill="none" stroke="black"/>
<text xml:space="preserve" x="49.0263" y="62.1373" fill="black" font-size="7.16345" font-family="Helvetica">6</text>
<text xml:space="preserve" x="38.0783" y="66.8716" fill="black" font-size="10.4952" font-family="Helvetica">10</text>
<path d="M63.9961,51.8603h -6.80315" fill="none" stroke="black"/>
<path d="M63.9961,45.7713h -6.80315" fill="none" stroke="black"/>
<path d="M63.9961,41.4511h -6.80315" fill="none" stroke="black"/>
<path d="M63.9961,38.1001h -6.80315" fill="none" stroke="black"/>
<path d="M63.9961,35.3621h -6.80315" fill="none" stroke="black"/>
<path d="M63.9961,33.0471h -6.80315" fill="none" stroke="black"/>
<g transform="rotate(-90,26.5385,191.442)">
<text xml:space="preserve" x="26.5385" y="191.442" fill="black" font-size="10.4952" font-family="Helvetica">Counts/Channel</text>
</g>
<text xml:space="preserve" x="404.097" y="62.1373" fill="black" font-size="14.7788" font-family="Helvetica" font-weight="bold"> = 2.4879 MeV</text>
<text xml:space="preserve" x="398.179" y="65.3921" fill="black" font-size="10.0192" font-family="Helvetica" font-weight="bold">p</text>
<text xml:space="preserve" x="389.006" y="62.1373" fill="black" font-size="14.7788" font-family="Helvetica" font-weight="bold">E</text>
<path d="M262.163,164.574v 25.9524" fill="none" stroke="black"/>
<path d="M264.454,190.527l -2.29122, 3.9685l -2.29122, -3.9685z" fill="black"/>
<path d="M264.454,190.527l -2.29122, 3.9685l -2.29122, -3.9685h 4.58243z" fill="none" stroke="black"/>
<text xml:space="preserve" x="266.803" y="162.445" fill="black" font-size="10.4952" font-family="Helvetica" font-weight="bold">_1 	1.369 MeV</text>
<text xml:space="preserve" x="260.293" y="162.445" fill="black" font-size="10.4952" font-family="Times">&#0945;</text>
<path d="M184.528,131.427v 30.6101" fill="none" stroke="black"/>
<path d="M186.819,162.037l -2.29122, 3.9685l -2.29122, -3.9685z" fill="black"/>
<path d="M186.819,162.037l -2.29122, 3.9685l -2.29122, -3.9685h 4.58243z" fill="none" stroke="black"/>
<text xml:space="preserve" x="172.117" y="128.417" fill="black" font-size="10.4952" font-family="Helvetica" font-weight="bold"># p_1 	0.844 MeV</text>
<path d="M210.104,149.507v 12.5297" fill="none" stroke="black"/>
<path d="M212.395,162.037l -2.29122, 3.9685l -2.29122, -3.9685z" fill="black"/>
<path d="M212.395,162.037l -2.29122, 3.9685l -2.29122, -3.9685h 4.58243z" fill="none" stroke="black"/>
<text xml:space="preserve" x="197.564" y="144.987" fill="black" font-size="10.4952" font-family="Helvetica" font-weight="bold"># p_2 	1.015 MeV</text>
<path d="M497.698,269.741h 12.9671" fill="none" stroke="black"/>
<path d="M504.182,259.332h 6.48356" fill="none" stroke="black"/>
<path d="M504.182,253.243h 6.48356" fill="none" stroke="black"/>
<path d="M504.182,248.923h 6.48356" fill="none" stroke="black"/>
<path d="M504.182,245.572h 6.48356" fill="none" stroke="black"/>
<path d="M504.182,242.834h 6.48356" fill="none" stroke="black"/>
<path d="M504.182,240.519h 6.48356" fill="none" stroke="black"/>
<path d="M504.182,238.514h 6.48356" fill="none" stroke="black"/>
<path d="M504.182,236.745h 6.48356" fill="none" stroke="black"/>
<path d="M497.698,235.163h 12.9671" fill="none" stroke="black"/>
<path d="M504.182,224.753h 6.48356" fill="none" stroke="black"/>
<path d="M504.182,218.664h 6.48356" fill="none" stroke="black"/>
<path d="M504.182,214.344h 6.48356" fill="none" stroke="black"/>
<path d="M504.182,210.993h 6.48356" fill="none" stroke="black"/>
<path d="M504.182,208.255h 6.48356" fill="none" stroke="black"/>
<path d="M504.182,205.94h 6.48356" fill="none" stroke="black"/>
<path d="M504.182,203.935h 6.48356" fill="none" stroke="black"/>
<path d="M504.182,202.166h 6.48356" fill="none" stroke="black"/>
<path d="M497.698,200.584h 12.9671" fill="none" stroke="black"/>
<path d="M504.182,190.175h 6.48356" fill="none" stroke="black"/>
<path d="M504.182,184.086h 6.48356" fill="none" stroke="black"/>
<path d="M504.182,179.766h 6.48356" fill="none" stroke="black"/>
<path d="M504.182,176.415h 6.48356" fill="none" stroke="black"/>
<path d="M504.182,173.677h 6.48356" fill="none" stroke="black"/>
<path d="M504.182,171.362h 6.48356" fill="none" stroke="black"/>
<path d="M504.182,169.356h 6.48356" fill="none" stroke="black"/>
<path d="M504.182,167.588h 6.48356" fill="none" stroke="black"/>
<path d="M497.698,166.005h 12.9671" fill="none" stroke="black"/>
<path d="M504.182,155.596h 6.48356" fill="none" stroke="black"/>
<path d="M504.182,149.507h 6.48356" fill="none" stroke="black"/>
<path d="M504.182,145.187h 6.48356" fill="none" stroke="black"/>
<path d="M504.182,141.836h 6.48356" fill="none" stroke="black"/>
<path d="M504.182,139.098h 6.48356" fill="none" stroke="black"/>
<path d="M504.182,136.783h 6.48356" fill="none" stroke="black"/>
<path d="M504.182,134.778h 6.48356" fill="none" stroke="black"/>
<path d="M504.182,133.009h 6.48356" fill="none" stroke="black"/>
<path d="M497.698,131.427h 12.9671" fill="none" stroke="black"/>
<path d="M504.182,121.018h 6.48356" fill="none" stroke="black"/>
<path d="M504.182,114.929h 6.48356" fill="none" stroke="black"/>
<path d="M504.182,110.608h 6.48356" fill="none" stroke="black"/>
<path d="M504.182,107.257h 6.48356" fill="none" stroke="black"/>
<path d="M504.182,104.519h 6.48356" fill="none" stroke="black"/>
<path d="M504.182,102.204h 6.48356" fill="none" stroke="black"/>
<path d="M504.182,100.199h 6.48356" fill="none" stroke="black"/>
<path d="M504.182,98.4304h 6.48356" fill="none" stroke="black"/>
<path d="M497.698,96.8481h 12.9671" fill="none" stroke="black"/>
<path d="M504.182,86.4389h 6.48356" fill="none" stroke="black"/>
<path d="M504.182,80.3499h 6.48356" fill="none" stroke="black"/>
<path d="M504.182,76.0297h 6.48356" fill="none" stroke="black"/>
<path d="M504.182,72.6787h 6.48356" fill="none" stroke="black"/>
<path d="M504.182,69.9407h 6.48356" fill="none" stroke="black"/>
<path d="M504.182,67.6258h 6.48356" fill="none" stroke="black"/>
<path d="M504.182,65.6205h 6.48356" fill="none" stroke="black"/>
<path d="M504.182,63.8517h 6.48356" fill="none" stroke="black"/>
<path d="M497.698,62.2695h 12.9671" fill="none" stroke="black"/>
<path d="M504.182,51.8603h 6.48356" fill="none" stroke="black"/>
<path d="M504.182,45.7713h 6.48356" fill="none" stroke="black"/>
<path d="M504.182,41.4511h 6.48356" fill="none" stroke="black"/>
<path d="M504.182,38.1001h 6.48356" fill="none" stroke="black"/>
<path d="M504.182,35.3621h 6.48356" fill="none" stroke="black"/>
<path d="M504.182,33.0471h 6.48356" fill="none" stroke="black"/>
<path d="M57.1929,39.8865v -7.46952" fill="none" stroke="black"/>
<path d="M75.3318,39.8865v -7.46952" fill="none" stroke="black"/>
<path d="M93.4707,39.8865v -7.46952" fill="none" stroke="black"/>
<path d="M111.61,39.8865v -7.46952" fill="none" stroke="black"/>
<path d="M129.749,39.8865v -7.46952" fill="none" stroke="black"/>
<path d="M147.887,39.8865v -7.46952" fill="none" stroke="black"/>
<path d="M166.026,39.8865v -7.46952" fill="none" stroke="black"/>
<path d="M184.165,39.8865v -7.46952" fill="none" stroke="black"/>
<path d="M202.304,39.8865v -7.46952" fill="none" stroke="black"/>
<path d="M220.443,39.8865v -7.46952" fill="none" stroke="black"/>
<path d="M238.582,39.8865v -7.46952" fill="none" stroke="black"/>
<path d="M256.721,39.8865v -7.46952" fill="none" stroke="black"/>
<path d="M274.86,39.8865v -7.46952" fill="none" stroke="black"/>
<path d="M292.999,39.8865v -7.46952" fill="none" stroke="black"/>
<path d="M311.138,39.8865v -7.46952" fill="none" stroke="black"/>
<path d="M329.277,39.8865v -7.46952" fill="none" stroke="black"/>
<path d="M347.415,39.8865v -7.46952" fill="none" stroke="black"/>
<path d="M365.554,39.8865v -7.46952" fill="none" stroke="black"/>
<path d="M383.693,39.8865v -7.46952" fill="none" stroke="black"/>
<path d="M401.832,39.8865v -7.46952" fill="none" stroke="black"/>
<path d="M419.971,39.8865v -7.46952" fill="none" stroke="black"/>
<path d="M438.11,39.8865v -7.46952" fill="none" stroke="black"/>
<path d="M456.249,39.8865v -7.46952" fill="none" stroke="black"/>
<path d="M474.388,39.8865v -7.46952" fill="none" stroke="black"/>
<path d="M492.527,39.8865v -7.46952" fill="none" stroke="black"/>
<path d="M510.666,39.8865v -7.46952" fill="none" stroke="black"/></svg>
