<?xml version="1.0" standalone="no"?>
<svg width="567.429" height="311.778" viewBox="0 0 567.429 311.778" xmlns="http://www.w3.org/2000/svg" shape-rendering="crispEdges">
<title>
Yields/P1/run_0099/det1_Fit.svg
</title>
<desc>
Creator: ROOT Version 6.12/06
CreationDate: Mon Apr 15 10:29:01 2019</desc>
<defs>
</defs>
<rect x="0.5" y="0" width="566.929" height="311.278" fill="white"/>
<rect x="57.1929" y="31.1278" width="453.543" height="249.023" fill="white"/>
<rect x="57.1929" y="31.1278" width="453.543" height="249.023" fill="none" stroke="black"/>
<path d="M57.1929,40.7234h 0.181345v 239.427h 12.6941v -10.4074h 0.181345v 10.4074h 8.88589v -10.4074h 0.181345v 10.4074h 0.906724v -10.4074h 0.181345v 10.4074h 1.6321v -10.4074h 0.181345v 10.4074h 0.544034v -10.4074h 0.181345v 10.4074h 1.08807v
 -20.8148h 0.181345v 10.4074h 0.181345v 10.4074h 0.544034v -20.8148h 0.181345v 20.8148h 0.181345v -10.4074h 0.181345v 10.4074h 0.725379v -10.4074h 0.181345v 10.4074h 0.181345v -10.4074h 0.906724v -24.1652h 0.181345v -11.8384h 0.181345v -12.9156h
 0.181345v -16.6866h 0.181345v -9.62722h 0.181345v -8.14282h 0.181345v -6.16532h 0.181345v -4.72875h 0.181345v -2.79373h 0.181345v -1.49047h 0.181345v -2.1472h 0.181345v -0.611461h 0.181345v -0.872894h 0.181345v -0.426209h 0.181345v -0.303984h
 0.181345v -1.84571h 0.181345v 1.08902h 0.181345v -1.07501h 0.181345v -0.537033h 0.181345v -0.228211h 0.181345v -1.09176h 0.181345v 0.427225h 0.181345v -0.24024h 0.181345v 0.393975h 0.181345v -0.469049h 0.181345v 0.0374898h 0.181345v -0.0499657h
 0.181345v -0.111819h 0.181345v 0.376013h 0.181345v -0.706558h 0.181345v -0.651627h 0.181345v 0.567105h 0.181345v -0.368696h 0.181345v 0.368696h 0.181345v -0.613411h 0.181345v 0.291783h 0.181345v -0.291783h 0.181345v -0.138067h 0.181345v 0.548169h
 0.181345v 0.446073h 0.181345v -0.705156h 0.181345v 0.840369h 0.181345v -0.569402h 0.181345v 0.0118928h 0.181345v -0.821817h 0.181345v 1.02545h 0.181345v -0.0961712h 0.181345v -0.378641h 0.181345v -0.0931868h 0.181345v 0.946591h 0.181345v -0.135435h
 0.181345v -0.1585h 0.181345v 1.22508h 0.181345v -0.694295h 0.181345v -0.0876955h 0.181345v 0.546974h 0.181345v 0.729978h 0.181345v -0.935838h 0.181345v -0.114568h 0.181345v -0.301308h 0.181345v -0.489121h 0.181345v -1.27935h 0.181345v -2.20522h
 0.181345v -2.88936h 0.181345v -2.50887h 0.181345v -3.15338h 0.181345v -3.16143h 0.181345v -3.56747h 0.181345v -2.7576h 0.181345v -2.47556h 0.181345v -1.82164h 0.181345v -2.10026h 0.181345v -0.26927h 0.181345v -0.748511h 0.181345v 0.525634h 0.181345v
 1.12164h 0.181345v 1.71849h 0.181345v 1.91101h 0.181345v 2.5781h 0.181345v 3.60218h 0.181345v 3.3805h 0.181345v 4.19454h 0.181345v 4.82118h 0.181345v 3.2096h 0.181345v 4.44028h 0.181345v 2.14422h 0.181345v 3.97228h 0.181345v 0.369143h 0.181345v
 1.55023h 0.181345v -0.0971827h 0.181345v 0.66853h 0.181345v 0.488953h 0.181345v 0.131363h 0.181345v 0.18586h 0.181345v 0.516393h 0.181345v 0.222856h 0.181345v -0.19518h 0.181345v -0.54407h 0.181345v 0.0267403h 0.181345v 0.7406h 0.181345v 0.957782h
 0.181345v -1.37373h 0.181345v 1.67645h 0.181345v 0.402895h 0.36269v -1.11944h 0.181345v 0.777826h 0.181345v -1.40591h 0.181345v 1.2228h 0.181345v 0.0607882h 0.181345v -1.39502h 0.181345v 2.14434h 0.36269v 0.0963512h 0.181345v -1.472h 0.181345v
 1.24814h 0.181345v 0.25612h 0.181345v -1.50426h 0.181345v 1.1217h 0.181345v -0.856466h 0.181345v 0.887977h 0.181345v 1.04492h 0.181345v 0.798657h 0.181345v -0.141984h 0.181345v 0.723739h 0.181345v -0.759026h 0.181345v -0.0352044h 0.181345v 1.20768h
 0.181345v 0.662233h 0.181345v -1.97503h 0.181345v 1.46601h 0.181345v -1.11271h 0.181345v 0.398483h 0.181345v 1.02542h 0.181345v -0.0392541h 0.181345v 1.18223h 0.181345v -0.945148h 0.181345v 0.776442h 0.181345v -0.29075h 0.181345v -0.994713h
 0.181345v -0.75089h 0.181345v 2.76682h 0.181345v -0.0439669h 0.36269v 1.09246h 0.181345v -1.18001h 0.181345v 0.398056h 0.181345v -0.52843h 0.181345v 0.983455h 0.181345v -1.45204h 0.181345v 0.730472h 0.181345v 0.446898h 0.181345v -0.621999h 0.181345v
 -0.344191h 0.181345v -1.57344h 0.181345v 4.89201h 0.181345v -0.210736h 0.181345v -2.32199h 0.181345v 0.408897h 0.181345v -0.183108h 0.181345v -0.667429h 0.181345v 1.27088h 0.181345v -0.281533h 0.181345v -0.68157h 0.181345v -0.694444h 0.181345v
 2.7375h 0.181345v -0.252353h 0.181345v -1.61195h 0.181345v 0.97502h 0.181345v 0.193117h 0.181345v -0.383783h 0.181345v -0.557885h 0.181345v 0.229938h 0.181345v 1.97847h 0.181345v -2.11686h 0.181345v 0.850114h 0.181345v -1.47956h 0.181345v 1.72451h
 0.181345v -1.76847h 0.181345v -0.811802h 0.181345v -0.0415344h 0.181345v -0.205966h 0.181345v -1.33029h 0.181345v -0.186058h 0.181345v -1.10478h 0.36269v -1.56476h 0.181345v -0.547154h 0.36269v 0.331996h 0.181345v -1.17362h 0.181345v 0.99162h
 0.181345v 0.584063h 0.181345v -0.0313132h 0.181345v 1.58195h 0.181345v 1.53568h 0.181345v -0.115056h 0.181345v 0.624076h 0.181345v 1.24502h 0.181345v -0.552229h 0.181345v 1.53568h 0.181345v -0.365116h 0.181345v 2.33708h 0.181345v 0.979565h 0.181345v
 -1.29238h 0.181345v 0.418555h 0.181345v -0.674347h 0.181345v 0.255793h 0.181345v 2.04183h 0.181345v -0.0589968h 0.181345v -0.349194h 0.181345v -1.05507h 0.181345v 0.16174h 0.181345v 1.36075h 0.181345v -1.78824h 0.181345v 1.61125h 0.181345v -1.07496h
 0.181345v 0.164696h 0.181345v 0.910259h 0.181345v -0.910259h 0.181345v 1.87928h 0.181345v -0.309592h 0.181345v -1.45888h 0.181345v 0.111634h 0.181345v 1.40866h 0.181345v 0.437048h 0.181345v -2.34165h 0.181345v -0.374717h 0.181345v -0.105367h
 0.181345v 1.0885h 0.181345v 0.575345h 0.181345v -1.50551h 0.181345v 0.485256h 0.181345v 0.388572h 0.181345v -0.0561297h 0.181345v 0.629278h 0.181345v -0.0583095h 0.181345v -0.73811h 0.181345v -1.01743h 0.181345v -1.24159h 0.181345v 1.29345h
 0.181345v 0.104269h 0.36269v 0.210736h 0.181345v -1.98502h 0.181345v 0.424305h 0.181345v -0.0953316h 0.181345v -0.282416h 0.181345v -0.728127h 0.181345v 0.963103h 0.181345v -0.0472904h 0.181345v 0.190062h 0.181345v -0.284198h 0.181345v 1.11993h
 0.181345v 0.831475h 0.181345v 0.71121h 0.181345v -1.23625h 0.181345v 0.471704h 0.181345v 0.377408h 0.181345v 0.44327h 0.181345v 1.29112h 0.181345v -0.949861h 0.181345v -0.729829h 0.181345v 1.43653h 0.181345v -0.82132h 0.181345v 1.24947h 0.181345v
 -0.0619163h 0.181345v 0.18652h 0.181345v -0.370752h 0.181345v -0.242177h 0.181345v -0.356096h 0.181345v 1.15789h 0.181345v -0.620529h 0.181345v 1.13611h 0.181345v -1.5557h 0.181345v 0.664742h 0.181345v -0.957435h 0.181345v 0.411387h 0.181345v
 -1.03591h 0.181345v 0.799449h 0.181345v 0.782505h 0.181345v -0.426409h 0.181345v 0.865282h 0.181345v 0.517799h 0.181345v -1.85602h 0.181345v 0.353303h 0.181345v 0.732569h 0.181345v 0.573879h 0.181345v -0.0648583h 0.181345v -1.12195h 0.181345v
 0.612929h 0.181345v -0.18652h 0.181345v 1.76847h 0.181345v -2.01362h 0.181345v -0.999388h 0.181345v 0.229236h 0.181345v 0.115944h 0.181345v -0.514839h 0.181345v 1.98085h 0.181345v 0.456012h 0.181345v -1.56872h 0.181345v 0.670137h 0.181345v -1.87195h
 0.181345v 3.10495h 0.181345v -2.08083h 0.181345v 0.478596h 0.181345v 0.0609115h 0.181345v 0.559618h 0.181345v -1.21643h 0.181345v 0.414633h 0.181345v 0.801795h 0.181345v -1.73324h 0.181345v 0.752338h 0.181345v -0.976441h 0.181345v -0.438416h
 0.181345v 2.78077h 0.181345v -1.30645h 0.181345v 0.119639h 0.181345v 0.801795h 0.181345v -0.126174h 0.36269v -0.55502h 0.181345v -0.0604213h 0.181345v -0.82132h 0.181345v 1.12589h 0.181345v -0.77938h 0.181345v -0.906822h 0.181345v 1.93438h 0.181345v
 -1.43105h 0.181345v 0.520792h 0.181345v -1.29663h 0.181345v 0.217608h 0.181345v 0.96172h 0.181345v -0.906822h 0.181345v 2.18674h 0.181345v -3.09376h 0.181345v 2.16854h 0.181345v -0.927843h 0.181345v 0.749448h 0.181345v -0.350553h 0.181345v 0.831064h
 0.181345v -0.421281h 0.181345v 0.667429h 0.181345v -0.367725h 0.181345v 0.617975h 0.181345v 2.16804h 0.181345v -3.26271h 0.181345v 1.09467h 0.181345v 1.38696h 0.181345v -1.63721h 0.181345v -0.607965h 0.181345v 2.7375h 0.181345v -2.12953h 0.181345v
 -0.488325h 0.181345v 0.1206h 0.181345v 1.19677h 0.181345v -0.890962h 0.181345v 1.69912h 0.181345v -0.873583h 0.181345v -0.0651397h 0.181345v -0.257769h 0.181345v 0.322909h 0.181345v 2.47862h 0.181345v -1.46601h 0.181345v 0.0699986h 0.181345v
 -1.59598h 0.181345v 2.02297h 0.181345v 1.51793h 0.181345v -0.625702h 0.181345v -0.674089h 0.181345v 0.295865h 0.36269v 0.924272h 0.181345v -0.622459h 0.181345v 0.543226h 0.181345v -0.312817h 0.181345v -1.88839h 0.181345v 2.44017h 0.181345v
 -0.396189h 0.181345v -0.0779985h 0.181345v 0.881114h 0.181345v -0.164096h 0.181345v -0.794613h 0.181345v 0.0775954h 0.181345v 0.963839h 0.181345v -0.885841h 0.181345v 2.27547h 0.181345v -0.969025h 0.181345v -0.990337h 0.181345v 1.33552h 0.181345v
 -0.173582h 0.181345v -1.86405h 0.181345v 1.43868h 0.181345v -0.0836474h 0.181345v -1.04702h 0.181345v 0.0779985h 0.181345v 3.11764h 0.181345v -1.98085h 0.181345v -1.21479h 0.181345v 0.474187h 0.181345v 2.15479h 0.181345v -1.07293h 0.181345v
 -1.00135h 0.181345v 0.492329h 0.181345v 2.05267h 0.181345v -0.927126h 0.181345v -1.0419h 0.181345v 0.339329h 0.181345v 1.82219h 0.181345v -2.32835h 0.181345v 2.2318h 0.181345v -1.72564h 0.181345v -0.506161h 0.181345v 2.42554h 0.181345v -3.31138h
 0.181345v 2.7375h 0.36269v -1.85166h 0.181345v 0.853336h 0.181345v 0.998322h 0.181345v -3.35043h 0.181345v 3.92431h 0.181345v -0.289681h 0.181345v -1.96902h 0.181345v 0.339329h 0.181345v -0.170623h 0.181345v 0.170623h 0.181345v 2.01719h 0.181345v
 -0.577559h 0.181345v -1.43963h 0.181345v 0.523821h 0.181345v -0.351236h 0.181345v 1.17291h 0.181345v 0.573879h 0.181345v -2.17459h 0.181345v 0.341257h 0.181345v 2.7375h 0.181345v 1.99015h 0.181345v -2.39873h 0.181345v -2.24237h 0.181345v 0.893995h
 0.181345v -0.36401h 0.181345v 1.41308h 0.181345v -0.196273h 0.181345v 0.29538h 0.181345v -2.46997h 0.181345v 0.957782h 0.181345v 0.737065h 0.181345v -0.646886h 0.181345v -0.445572h 0.181345v 1.96735h 0.181345v -2.31452h 0.181345v 0.883471h 0.36269v
 -1.47236h 0.181345v 0.333673h 0.181345v -1.36958h 0.181345v 3.54417h 0.181345v 0.196273h 0.181345v -0.676016h 0.181345v 0.38256h 0.181345v -1.20926h 0.181345v -1.36591h 0.181345v 1.54573h 0.181345v -0.445572h 0.181345v 1.5722h 0.181345v -0.479743h
 0.181345v 0.0947301h 0.181345v -1.61992h 0.181345v 1.43105h 0.181345v -2.7375h 0.181345v 0.157223h 0.181345v 0.319473h 0.181345v -0.319473h 0.181345v -0.61925h 0.181345v -0.739789h 0.181345v 0.664148h 0.181345v -0.591788h 0.181345v -1.77653h
 0.181345v 1.27718h 0.181345v -0.618541h 0.181345v -0.786975h 0.181345v -0.808439h 0.181345v 0.305808h 0.181345v 0.50263h 0.181345v -1.16737h 0.181345v 1.7537h 0.181345v -0.586331h 0.181345v -0.0637567h 0.181345v -1.27992h 0.181345v 1.60144h
 0.181345v -0.883471h 0.181345v 0.184988h 0.181345v 0.829046h 0.181345v -0.195422h 0.181345v -0.633625h 0.181345v 0.124604h 0.181345v 1.03591h 0.181345v -1.94616h 0.181345v 1.2904h 0.181345v -1.05301h 0.181345v 1.37731h 0.181345v 2.10832h 0.181345v
 -2.36832h 0.181345v 2.06951h 0.181345v -1.2075h 0.181345v 1.50631h 0.181345v 0.933856h 0.181345v -3.43051h 0.181345v -1.10814h 0.181345v 2.03039h 0.181345v -2.83906h 0.181345v -0.76734h 0.181345v 1.45779h 0.181345v -2.88398h 0.181345v -1.74145h
 0.181345v -0.426582h 0.181345v -3.74066h 0.181345v -0.704442h 0.181345v -0.821677h 0.181345v -2.12292h 0.181345v -1.79131h 0.181345v -1.39367h 0.181345v -1.02481h 0.181345v -1.56641h 0.181345v -0.532918h 0.181345v -1.38646h 0.181345v 0.0617254h
 0.181345v -0.694968h 0.181345v -1.38131h 0.181345v 0.423361h 0.181345v 0.0833379h 0.181345v -0.680746h 0.181345v 1.9442h 0.181345v 0.777331h 0.181345v 0.652206h 0.181345v -0.556163h 0.181345v 2.60639h 0.181345v 0.784234h 0.181345v 1.5909h 0.181345v
 1.3819h 0.181345v 2.27369h 0.181345v 1.24947h 0.181345v 1.81119h 0.181345v 1.9003h 0.181345v 1.85811h 0.181345v 3.19391h 0.181345v -0.652915h 0.181345v 1.86864h 0.181345v 3.0667h 0.181345v 0.603686h 0.181345v -0.455025h 0.181345v 3.1464h 0.181345v
 -1.98188h 0.181345v 2.7375h 0.181345v 0.795666h 0.181345v -0.303337h 0.181345v -1.7907h 0.181345v 2.19653h 0.181345v -1.4684h 0.181345v 1.5716h 0.181345v -0.408588h 0.181345v -0.689319h 0.181345v 1.95003h 0.181345v 3.71091h 0.181345v -6.13463h
 0.181345v 0.570246h 0.181345v 2.52589h 0.181345v -0.997652h 0.181345v 0.32524h 0.181345v 0.109998h 0.181345v 2.00493h 0.181345v -0.496398h 0.181345v -1.94377h 0.181345v 1.3455h 0.181345v 1.22138h 0.181345v -2.02083h 0.181345v 1.52029h 0.181345v
 -1.95871h 0.181345v 0.66252h 0.181345v -0.877019h 0.181345v 0.652915h 0.181345v 2.27749h 0.181345v -3.14189h 0.36269v 1.0885h 0.181345v 0.811802h 0.181345v -0.698483h 0.181345v -0.558231h 0.181345v 1.02026h 0.181345v -2.77655h 0.181345v 3.37482h
 0.181345v 0.122569h 0.181345v 1.55463h 0.181345v -1.91938h 0.181345v -0.818122h 0.181345v -0.558231h 0.181345v 1.37635h 0.181345v 4.27947h 0.181345v -1.07844h 0.181345v -2.20796h 0.181345v -0.254492h 0.36269v 0.513372h 0.181345v -0.639019h 0.181345v
 -1.54437h 0.181345v 1.92451h 0.181345v -0.872467h 0.181345v 0.492329h 0.181345v -2.09848h 0.181345v 5.13932h 0.181345v -2.40182h 0.181345v 1.08261h 0.544034v -1.46927h 0.181345v 0.783552h 0.181345v 0.546048h 0.181345v 0.858215h 0.181345v -0.9966h
 0.181345v 0.705044h 0.181345v -2.88118h 0.181345v 1.76847h 0.181345v 3.28355h 0.181345v -2.45684h 0.181345v -3.63108h 0.181345v 1.89412h 0.181345v 0.910259h 0.181345v 0.969025h 0.36269v 0.732569h 0.181345v -1.56693h 0.181345v 0.692043h 0.181345v
 -1.86261h 0.181345v 3.82712h 0.181345v -2.92468h 0.36269v 2.44799h 0.181345v -0.612929h 0.181345v -1.56693h 0.181345v 1.2696h 0.181345v 0.448233h 0.181345v -1.02579h 0.181345v 0.286002h 0.181345v -3.23448h 0.181345v 1.21152h 0.181345v 0.644506h
 0.181345v 0.811802h 0.181345v 0.566659h 0.181345v -2.27322h 0.181345v -0.488325h 0.181345v -0.356096h 0.181345v -0.687815h 0.181345v -2.56848h 0.181345v -0.556163h 0.181345v -2.35347h 0.181345v -1.89758h 0.181345v -0.136498h 0.181345v -2.55522h
 0.181345v -2.95559h 0.181345v -2.46838h 0.181345v -1.73294h 0.181345v -0.66124h 0.181345v -2.29992h 0.181345v -0.488559h 0.181345v -2.51913h 0.181345v -1.52206h 0.181345v -1.32264h 0.181345v -0.752338h 0.181345v -0.535965h 0.181345v -0.812757h
 0.181345v -0.188006h 0.181345v -1.20704h 0.181345v 0.445383h 0.181345v 0.309928h 0.181345v -0.880174h 0.181345v -0.353303h 0.181345v 1.38255h 0.181345v 1.10503h 0.181345v 0.659287h 0.181345v -0.0933171h 0.181345v 1.34201h 0.181345v 2.13923h
 0.181345v 0.212643h 0.181345v 1.31727h 0.181345v 2.51062h 0.181345v 0.499495h 0.181345v 4.6079h 0.181345v 0.706703h 0.181345v 0.505902h 0.181345v 0.817h 0.181345v 4.92415h 0.181345v 2.9446h 0.181345v 2.14861h 0.181345v 2.7375h 0.181345v -0.229236h
 0.181345v 4.78148h 0.181345v 2.7375h 0.181345v -1.76847h 0.36269v 1.76847h 0.181345v 2.00493h 0.36269v 2.06634h 0.181345v -1.40866h 0.181345v -0.222444h 0.181345v 2.91519h 0.181345v -2.00493h 0.181345v -0.23279h 0.181345v 1.71084h 0.181345v
 -1.24159h 0.181345v 2.59518h 0.181345v -0.280656h 0.181345v -1.3296h 0.181345v 2.48515h 0.181345v -2.7375h 0.181345v 2.44017h 0.181345v -4.96767h 0.181345v 4.67611h 0.181345v -0.566659h 0.181345v -2.55098h 0.181345v 2.00493h 0.181345v 2.00493h
 0.181345v -3.53316h 0.181345v 1.52823h 0.181345v 2.95354h 0.181345v -3.48043h 0.181345v 1.07293h 0.181345v 1.45888h 0.36269v -1.73439h 0.181345v 1.43105h 0.181345v -1.43105h 0.181345v -1.55463h 0.181345v -2.06634h 0.181345v 1.58195h 0.181345v
 3.47007h 0.181345v 0.929039h 0.181345v -2.63063h 0.181345v -0.265753h 0.181345v -3.08467h 0.181345v 4.17713h 0.181345v -1.86261h 0.36269v 2.7375h 0.181345v -5.475h 0.181345v 4.04395h 0.181345v -1.79878h 0.181345v 4.81178h 0.181345v -5.28848h
 0.181345v 5.97108h 0.181345v -1.65163h 0.181345v -3.84276h 0.181345v 6.2095h 0.181345v -4.41073h 0.181345v 0.842165h 0.181345v 2.50826h 0.181345v -4.40452h 0.181345v -0.984922h 0.181345v 1.76847h 0.181345v 1.40426h 0.181345v -0.291556h 0.181345v
 -1.89626h 0.181345v -1.45417h 0.181345v 0.469247h 0.181345v -0.924272h 0.181345v 2.16586h 0.181345v -2.82354h 0.181345v 3.89648h 0.181345v -1.3296h 0.181345v 1.3296h 0.181345v -1.58195h 0.181345v 3.04084h 0.181345v -5.56834h 0.181345v 4.39011h
 0.181345v 1.48782h 0.181345v -2.84141h 0.181345v 1.07293h 0.181345v -1.58195h 0.181345v 1.58195h 0.181345v -1.58195h 0.181345v 3.04084h 0.181345v -1.17823h 0.181345v -1.09246h 0.181345v 1.09246h 0.181345v 0.577559h 0.181345v -3.17274h 0.181345v
 7.20063h 0.181345v -4.60546h 0.181345v -1.86261h 0.181345v 0.770152h 0.181345v 0.811802h 0.181345v -1.3296h 0.181345v 1.05409h 0.181345v -1.55463h 0.181345v 2.68835h 0.181345v 0.910259h 0.181345v -0.910259h 0.181345v 1.22637h 0.181345v -2.36009h
 0.181345v -2.03902h 0.181345v -2.00493h 0.181345v 6.40404h 0.181345v -3.91472h 0.181345v 4.90506h 0.181345v -2.50826h 0.181345v -1.37846h 0.181345v 0.536295h 0.181345v 1.73439h 0.181345v 4.62905h 0.181345v -8.63891h 0.181345v 4.31945h 0.181345v
 -2.04398h 0.181345v -0.797427h 0.181345v 3.15752h 0.181345v -0.929039h 0.181345v -1.70159h 0.181345v 4.31945h 0.181345v -2.31452h 0.181345v 0.309592h 0.181345v 5.17767h 0.181345v -6.94614h 0.181345v 4.88611h 0.181345v -5.95904h 0.181345v 0.526885h
 0.181345v 1.11271h 0.181345v 0.291556h 0.181345v 0.29733h 0.181345v 2.97968h 0.181345v -4.94702h 0.36269v 3.88672h 0.181345v -2.50826h 0.181345v -1.11271h 0.181345v 0.826705h 0.181345v 2.45684h 0.181345v -3.81043h 0.181345v 2.53182h 0.181345v
 -0.892223h 0.181345v -4.67611h 0.181345v 8.61543h 0.36269v 0.380139h 0.36269v -3.11764h 0.181345v -0.612929h 0.181345v -1.70159h 0.181345v 3.62097h 0.181345v -0.667429h 0.181345v 0.330006h 0.181345v -0.652915h 0.36269v -1.22637h 0.181345v 0.910259h
 0.181345v 2.36675h 0.181345v 3.25915h 0.181345v -2.8884h 0.181345v 2.8884h 0.181345v -3.97427h 0.181345v -1.01261h 0.181345v 4.10341h 0.181345v -0.834363h 0.181345v -1.17057h 0.181345v -0.370752h 0.181345v 3.72118h 0.181345v -2.17986h 0.181345v
 -1.17057h 0.36269v 1.17057h 0.181345v -2.60162h 0.181345v 5.7505h 0.181345v -5.05202h 0.181345v 3.62097h 0.181345v 2.46696h 0.181345v -4.18479h 0.181345v 4.18479h 0.181345v -4.58521h 0.36269v 0.811802h 0.181345v 0.422977h 0.181345v 0.883471h
 0.181345v 1.94007h 0.181345v -2.82354h 0.181345v 1.3455h 0.181345v 4.95847h 0.181345v -2.40749h 0.181345v -2.55098h 0.36269v 4.31945h 0.181345v -5.66495h 0.181345v 4.46314h 0.181345v 1.84083h 0.181345v 2.86863h 0.181345v 1.67002h 0.181345v -3.17274h
 0.181345v -0.698483h 0.181345v -1.30645h 0.181345v -2.31452h 0.181345v 1.11271h 0.181345v 3.20675h 0.181345v -0.698483h 0.181345v 2.2012h 0.181345v -4.12058h 0.181345v 1.91938h 0.36269v -0.667429h 0.181345v 1.36591h 0.181345v 2.31452h 0.181345v
 3.7734h 0.181345v -5.35536h 0.181345v -1.43105h 0.36269v -1.91938h 0.181345v 2.61786h 0.181345v -0.698483h 0.181345v -1.30645h 0.181345v 5.17767h 0.181345v -5.7906h 0.181345v 12.3268h 0.181345v -9.7089h 0.181345v 3.17274h 0.181345v -5.7906h
 0.181345v 3.35043h 0.181345v -2.09848h 0.181345v 7.45384h 0.181345v -3.7734h 0.181345v -3.68043h 0.181345v -0.639019h 0.181345v 11.7138h 0.181345v -2.50826h 0.36269v -2.14861h 0.181345v 2.14861h 0.181345v -5.69791h 0.181345v 2.58028h 0.181345v
 -2.58028h 0.181345v 3.5493h 0.181345v 2.14861h 0.181345v -4.0279h 0.181345v 9.54916h 0.181345v -11.2192h 0.181345v 6.89973h 0.181345v -11.0203h 0.181345v 7.66988h 0.181345v -1.87928h 0.36269v 7.96721h 0.181345v -10.4074h 0.181345v 6.46807h 0.181345v
 -4.88611h 0.181345v 1.76847h 0.181345v 0.969025h 0.181345v 1.03591h 0.181345v -12.4123h 0.181345v 7.05695h 0.181345v 2.44017h 0.36269v -2.44017h 0.181345v -2.7375h 0.181345v -1.20182h 0.181345v 0.588886h 0.181345v 2.61786h 0.181345v -2.00493h
 0.181345v 2.00493h 0.181345v -3.20675h 0.181345v -3.57966h 0.181345v 3.57966h 0.181345v -4.0279h 0.181345v 0.448233h 0.181345v 9.95915h 0.181345v -10.8426h 0.181345v 3.89648h 0.181345v -2.07428h 0.181345v -4.19788h 0.181345v 4.6902h 0.181345v
 -0.969025h 0.181345v -2.58028h 0.181345v 5.13125h 0.181345v 1.76847h 0.181345v -0.612929h 0.181345v -4.16855h 0.181345v 3.57966h 0.181345v -1.63959h 0.181345v 2.22848h 0.181345v -1.15555h 0.181345v 9.86133h 0.181345v -2.91519h 0.181345v -4.53865h
 0.181345v 0.667429h 0.181345v 3.01301h 0.181345v 2.7375h 0.36269v 19.8457h 0.181345v -21.725h 0.181345v -1.67002h 0.181345v 4.58521h 0.181345v -6.78641h 0.181345v 3.01301h 0.181345v 0.858215h 0.36269v 0.910259h 0.181345v 0.969025h 0.181345v 1.03591h
 0.181345v -5.35536h 0.181345v -0.732569h 0.181345v -2.61786h 0.181345v -3.70652h 0.181345v -2.58028h 0.181345v -2.53863h 0.181345v 4.65688h 0.181345v -7.94042h 0.181345v 3.28355h 0.181345v -5.97629h 0.181345v -1.28776h 0.181345v -0.994713h 0.181345v
 1.20182h 0.181345v -4.47505h 0.181345v -0.606736h 0.181345v -4.01915h 0.181345v 3.01301h 0.181345v -3.68043h 0.36269v -1.54928h 0.181345v -0.482829h 0.181345v -0.831795h 0.181345v -0.267331h 0.181345v 0.910259h 0.181345v -1.76847h 0.181345v
 -0.330006h 0.181345v -1.98452h 0.181345v 0.509021h 0.181345v 0.298809h 0.181345v -1.36919h 0.181345v 2.38356h 0.181345v 0.162322h 0.181345v -2.88636h 0.181345v -0.134061h 0.181345v 0.474544h 0.181345v -0.137121h 0.181345v -1.97932h 0.181345v
 1.84344h 0.181345v 0.906033h 0.181345v -3.27841h 0.181345v 0.350553h 0.181345v 0.54167h 0.181345v -1.8973h 0.181345v -0.582653h 0.181345v 1.87928h 0.181345v -2.9325h 0.181345v 0.542461h 0.181345v 0.562796h 0.181345v -2.88449h 0.181345v 1.77923h
 0.181345v -1.20926h 0.181345v 1.11271h 0.181345v -1.98085h 0.181345v 2.82209h 0.181345v 0.153473h 0.181345v -0.153473h 0.181345v 2.0122h 0.181345v -2.21442h 0.181345v 0.878907h 0.181345v 2.48408h 0.181345v 0.38175h 0.181345v -0.318795h 0.181345v
 1.24921h 0.36269v 1.28776h 0.181345v 3.51945h 0.181345v 1.59245h 0.181345v 0.105367h 0.181345v 1.44163h 0.181345v 3.37955h 0.181345v 2.36319h 0.181345v 0.34518h 0.181345v 2.87782h 0.181345v 2.77985h 0.181345v -0.984922h 0.181345v 8.40245h 0.181345v
 -1.20182h 0.181345v 3.44699h 0.181345v -0.938723h 0.181345v -2.50826h 0.181345v 6.67681h 0.181345v 0.612929h 0.181345v -1.20182h 0.181345v 5.52127h 0.181345v -2.31452h 0.181345v 11.1399h 0.181345v 7.66988h 0.181345v -15.6371h 0.181345v 6.53616h
 0.181345v -7.39437h 0.181345v 7.39437h 0.181345v 4.78148h 0.181345v -8.40245h 0.181345v 3.62097h 0.181345v 25.5962h 0.181345v -18.8098h 0.181345v -9.29467h 0.181345v 7.28974h 0.181345v 2.00493h 0.181345v -3.7734h 0.181345v 22.5832h 0.181345v
 -20.8148h 0.181345v 20.8148h 0.181345v -18.8098h 0.181345v -2.00493h 0.181345v 4.31945h 0.181345v 6.08793h 0.181345v -8.40245h 0.181345v 5.05202h 0.181345v -5.05202h 0.181345v 5.05202h 0.181345v 3.35043h 0.181345v -8.40245h 0.181345v 18.8098h
 0.181345v -6.08793h 0.181345v -12.7219h 0.181345v 2.31452h 0.181345v 6.08793h 0.544034v -3.35043h 0.181345v 13.7578h 0.181345v -6.08793h 0.181345v -7.66988h 0.181345v -2.7375h 0.181345v 16.4953h 0.181345v -20.8148h 0.181345v 14.7268h 0.181345v
 -12.7219h 0.181345v 12.7219h 0.181345v -4.31945h 0.181345v -3.35043h 0.181345v -2.7375h 0.181345v 16.4953h 0.181345v 20.8148h 0.181345v -26.9027h 0.181345v -4.31945h 0.181345v -6.08793h 0.181345v 2.7375h 0.181345v 7.66988h 0.181345v -4.31945h
 0.181345v -3.35043h 0.36269v 7.66988h 0.181345v -14.7268h 0.181345v 4.31945h 0.181345v 16.4953h 0.181345v -16.4953h 0.36269v 2.7375h 0.181345v -2.7375h 0.181345v 10.4074h 0.36269v -10.4074h 0.181345v 10.4074h 0.181345v -14.7268h 0.181345v 4.31945h
 0.181345v 2.7375h 0.181345v -2.7375h 0.181345v -4.31945h 0.181345v 2.00493h 0.181345v 8.40245h 0.36269v 10.4074h 0.181345v -18.8098h 0.181345v 5.05202h 0.181345v -2.7375h 0.181345v -2.31452h 0.181345v -3.7734h 0.181345v -3.01301h 0.36269v -7.39437h
 0.181345v 8.82543h 0.181345v 1.58195h 0.181345v 1.76847h 0.181345v -8.40245h 0.181345v 3.62097h 0.544034v -6.53616h 0.181345v 5.22971h 0.181345v -1.20182h 0.36269v -8.56655h 0.181345v 3.68043h 0.181345v 3.7734h 0.181345v -1.03591h 0.181345v -2.7375h
 0.36269v 2.7375h 0.181345v -5.05202h 0.181345v -1.36591h 0.181345v 5.44891h 0.181345v -4.78148h 0.181345v 3.01301h 0.181345v -3.01301h 0.181345v 3.87122h 0.181345v 13.3226h 0.181345v -11.4433h 0.181345v -3.5493h 0.181345v 2.58028h 0.181345v 12.4123h
 0.181345v -11.4433h 0.181345v 6.08793h 0.181345v 1.58195h 0.181345v 1.76847h 0.181345v -4.78148h 0.181345v 11.8384h 0.181345v -5.05202h 0.181345v 2.31452h 0.181345v 6.08793h 0.181345v -12.1759h 0.181345v 16.4953h 0.181345v -10.4074h 0.181345v
 6.08793h 0.181345v -6.08793h 0.181345v 6.08793h 0.181345v -3.35043h 0.181345v -7.05695h 0.181345v 14.7268h 0.181345v -14.7268h 0.181345v 20.8148h 0.181345v -6.08793h 0.36269v -10.4074h 0.181345v 6.08793h 0.181345v 10.4074h 0.36269v -18.8098h
 0.181345v 18.8098h 0.181345v -22.5832h 0.181345v 32.9906h 0.181345v -20.8148h 0.181345v -3.35043h 0.181345v 13.7578h 0.36269v -10.4074h 0.36269v -6.08793h 0.181345v 10.4074h 0.181345v 6.08793h 0.181345v 10.4074h 0.181345v -29.2172h 0.181345v
 5.05202h 0.181345v 3.35043h 0.181345v 10.4074h 0.181345v -10.4074h 0.725379v -3.35043h 0.181345v 24.1652h 0.181345v -24.1652h 0.181345v 34.5726h 0.181345v -10.4074h 0.181345v -10.4074h 0.181345v -18.8098h 0.181345v 5.05202h 0.544034v 7.66988h
 0.181345v -16.4953h 0.181345v 8.82543h 0.181345v 7.66988h 0.36269v -14.7268h 0.181345v 10.4074h 0.36269v -3.35043h 0.181345v 7.66988h 0.181345v -12.7219h 0.181345v 2.31452h 0.181345v -6.08793h 0.181345v 12.1759h 0.181345v 10.4074h 0.181345v
 -10.4074h 0.181345v 4.31945h 0.181345v -4.31945h 0.181345v -8.40245h 0.181345v 12.7219h 0.181345v -7.66988h 0.181345v 7.66988h 0.181345v -7.66988h 0.181345v 3.35043h 0.36269v -15.1889h 0.181345v 6.78641h 0.181345v -3.7734h 0.181345v 1.76847h
 0.181345v 2.00493h 0.181345v -6.78641h 0.181345v 25.5962h 0.181345v -25.5962h 0.181345v 4.78148h 0.36269v -3.35043h 0.181345v 3.35043h 0.181345v -3.35043h 0.181345v 13.7578h 0.181345v -10.4074h 0.181345v -8.40245h 0.181345v 2.31452h 0.181345v
 1.30645h 0.181345v 1.43105h 0.181345v 5.35536h 0.181345v -2.00493h 0.181345v -3.35043h 0.181345v 5.35536h 0.181345v -6.78641h 0.181345v 6.78641h 0.36269v -5.35536h 0.181345v 5.35536h 0.181345v 2.31452h 0.544034v -4.31945h 0.181345v -4.78148h
 0.181345v 15.1889h 0.181345v -10.4074h 0.181345v 7.05695h 0.181345v -7.05695h 0.181345v 2.00493h 0.181345v 5.05202h 0.181345v -11.8384h 0.181345v 11.8384h 0.36269v -7.05695h 0.181345v 2.00493h 0.181345v 8.40245h 0.181345v 4.31945h 0.181345v
 -10.4074h 0.181345v -6.08793h 0.181345v 8.82543h 0.181345v -10.4074h 0.181345v 3.35043h 0.36269v 20.8148h 0.181345v -18.8098h 0.181345v 2.31452h 0.181345v -2.31452h 0.36269v -10.4074h 0.181345v 2.31452h 0.181345v 16.4953h 0.181345v -6.08793h
 0.181345v 2.7375h 0.181345v -5.05202h 0.181345v 5.05202h 0.181345v -2.7375h 0.181345v -4.31945h 0.181345v -4.78148h 0.181345v 4.78148h 0.181345v 2.00493h 0.181345v -5.35536h 0.181345v 7.66988h 0.181345v 2.7375h 0.181345v -8.82543h 0.181345v 6.08793h
 0.181345v -4.31945h 0.181345v 4.31945h 0.544034v -4.31945h 0.181345v 2.00493h 0.181345v -2.00493h 0.181345v 4.31945h 0.181345v -6.08793h 0.181345v -5.52127h 0.181345v 3.93931h 0.36269v 3.35043h 0.181345v 7.05695h 0.181345v -8.82543h 0.181345v
 3.7734h 0.181345v -12.4123h 0.181345v 5.6259h 0.181345v 4.78148h 0.36269v -9.43836h 0.181345v 6.08793h 0.181345v -3.93931h 0.181345v 11.6092h 0.181345v -9.10093h 0.181345v 4.78148h 0.181345v -9.43836h 0.181345v 9.43836h 0.181345v -1.76847h 0.181345v
 -7.66988h 0.36269v -0.969025h 0.181345v 8.63891h 0.36269v -3.01301h 0.181345v -1.30645h 0.181345v 2.7375h 0.181345v -6.08793h 0.181345v 7.66988h 0.181345v -3.01301h 0.181345v 1.43105h 0.181345v -2.7375h 0.181345v -5.22971h 0.36269v 18.3746h
 0.181345v -16.4953h 0.181345v -3.5493h 0.181345v 4.58521h 0.181345v -2.91519h 0.181345v 11.3176h 0.181345v -3.35043h 0.181345v -3.93931h 0.181345v 3.93931h 0.181345v -5.05202h 0.181345v -2.91519h 0.181345v -3.17274h 0.181345v 9.7089h 0.181345v
 -7.39437h 0.181345v 7.39437h 0.181345v -4.65688h 0.181345v 1.03591h 0.36269v 5.05202h 0.181345v -1.43105h 0.181345v 1.43105h 0.181345v -2.7375h 0.181345v 4.31945h 0.181345v -11.2192h 0.181345v 5.69791h 0.36269v 3.93931h 0.181345v -3.93931h 0.544034v
 -3.11764h 0.181345v 4.31945h 0.181345v -9.76836h 0.181345v 9.76836h 0.181345v -3.35043h 0.181345v 4.65688h 0.181345v -8.97633h 0.181345v 6.46807h 0.181345v -3.11764h 0.36269v -6.08793h 0.181345v 4.31945h 0.181345v -5.52127h 0.181345v 5.52127h
 0.181345v -1.58195h 0.181345v 2.44017h 0.181345v 0.910259h 0.181345v -2.58028h 0.181345v 3.5493h 0.181345v -2.7375h 0.181345v -4.31945h 0.181345v 1.30645h 0.181345v 10.4074h 0.181345v -6.53616h 0.181345v -0.858215h 0.181345v 12.1759h 0.181345v
 -7.28974h 0.181345v -4.88611h 0.181345v -2.31452h 0.181345v 5.05202h 0.181345v 9.43836h 0.181345v -14.4904h 0.181345v -3.20675h 0.181345v 1.20182h 0.181345v 10.4074h 0.181345v -9.10093h 0.181345v -1.30645h 0.181345v 2.00493h 0.544034v 1.50272h
 0.36269v -2.2012h 0.181345v -3.07492h 0.181345v 4.50597h 0.181345v -3.35043h 0.181345v -0.588886h 0.181345v -1.11271h 0.181345v 5.82217h 0.181345v -6.34906h 0.181345v 3.48043h 0.181345v -1.84083h 0.181345v 3.93931h 0.181345v -6.08793h 0.181345v
 -0.492329h 0.181345v 0.492329h 0.181345v 2.14861h 0.181345v -3.57966h 0.181345v 0.462026h 0.181345v 0.969025h 0.181345v 2.14861h 0.181345v 5.52127h 0.181345v -9.54916h 0.181345v -0.435238h 0.181345v -0.422977h 0.181345v 4.31945h 0.181345v -2.07428h
 0.181345v 1.00135h 0.181345v -1.94007h 0.181345v -0.883471h 0.181345v 5.66495h 0.181345v -1.20182h 0.181345v -7.55394h 0.181345v 5.40532h 0.181345v 0.509021h 0.181345v -4.44834h 0.181345v 6.08793h 0.181345v -2.14861h 0.181345v -2.31452h 0.181345v
 2.82354h 0.181345v -1.00135h 0.181345v -0.476696h 0.181345v 7.05695h 0.181345v 3.35043h 0.181345v -8.40245h 0.181345v 3.62097h 0.181345v -1.91938h 0.181345v -4.61678h 0.181345v 4.61678h 0.181345v 2.61786h 0.181345v 0.732569h 0.181345v -4.50597h
 0.181345v 8.82543h 0.181345v -0.969025h 0.181345v -6.08793h 0.181345v 5.17767h 0.181345v -6.37948h 0.181345v -2.14861h 0.181345v 6.85808h 0.181345v -5.82217h 0.181345v 9.37147h 0.181345v -8.82543h 0.181345v 4.50597h 0.181345v 4.31945h 0.181345v
 1.03591h 0.181345v -4.58521h 0.181345v -0.770152h 0.181345v 1.58195h 0.181345v -2.31452h 0.181345v 0.732569h 0.181345v 6.46807h 0.181345v -5.69791h 0.181345v 1.67002h 0.181345v -4.53865h 0.181345v 8.56655h 0.181345v -4.88611h 0.181345v -0.811802h
 0.181345v 2.58028h 0.181345v -0.910259h 0.181345v 1.87928h 0.181345v 3.35043h 0.181345v -6.08793h 0.181345v -3.68043h 0.181345v 9.76836h 0.181345v -6.89973h 0.181345v -1.50272h 0.181345v -2.00493h 0.181345v 8.09286h 0.181345v -5.35536h 0.181345v
 -2.09848h 0.181345v 8.56655h 0.181345v -2.14861h 0.181345v -5.7505h 0.181345v 1.43105h 0.181345v -0.732569h 0.181345v 8.40245h 0.181345v -8.40245h 0.181345v 9.7089h 0.181345v -10.4074h 0.181345v 5.7505h 0.36269v -5.7505h 0.181345v 3.87122h 0.181345v
 -7.49219h 0.181345v 3.62097h 0.181345v 6.78641h 0.181345v 1.11271h 0.181345v -7.20063h 0.36269v 5.05202h 0.36269v -5.7505h 0.181345v 5.7505h 0.181345v -4.31945h 0.181345v -3.35043h 0.181345v 2.61786h 0.181345v 2.31452h 0.181345v -3.68043h 0.181345v
 5.44891h 0.181345v 5.6259h 0.181345v -5.6259h 0.181345v -0.910259h 0.181345v 0.910259h 0.181345v -7.8564h 0.181345v 3.07492h 0.181345v 2.2012h 0.181345v 5.69791h 0.181345v -8.56655h 0.181345v 2.09848h 0.181345v 0.770152h 0.181345v 5.69791h 0.181345v
 -3.11764h 0.544034v -1.76847h 0.181345v 0.858215h 0.36269v 5.22971h 0.181345v -3.35043h 0.181345v -5.05202h 0.181345v 8.40245h 0.181345v -6.89973h 0.181345v 2.58028h 0.181345v -1.76847h 0.181345v -2.31452h 0.181345v 7.20063h 0.181345v -9.20556h
 0.181345v 4.31945h 0.181345v -3.68043h 0.181345v 7.45384h 0.181345v -6.78641h 0.181345v 3.87122h 0.181345v -5.17767h 0.181345v 7.05695h 0.181345v 1.03591h 0.181345v -2.91519h 0.181345v -3.17274h 0.181345v 3.17274h 0.181345v -2.44017h 0.181345v
 3.35043h 0.181345v -2.58028h 0.181345v -0.770152h 0.36269v -1.43105h 0.544034v -3.07492h 0.181345v 7.8564h 0.181345v -6.70086h 0.181345v 8.70579h 0.181345v -8.70579h 0.181345v 4.12058h 0.181345v -2.2012h 0.181345v -5.6259h 0.181345v 3.70652h
 0.181345v -5.88638h 0.181345v 10.8188h 0.181345v -4.31945h 0.181345v 1.30645h 0.181345v 4.78148h 0.181345v -9.43836h 0.181345v 6.85808h 0.36269v 0.811802h 0.181345v -8.63891h 0.181345v 5.6259h 0.181345v -1.91938h 0.181345v 3.35043h 0.181345v
 1.58195h 0.181345v -7.16086h 0.181345v 9.89836h 0.181345v -3.5493h 0.181345v -3.50765h 0.181345v 5.17767h 0.181345v -0.858215h 0.181345v -3.01301h 0.181345v 0.698483h 0.181345v 2.31452h 0.181345v 0.858215h 0.181345v -3.87122h 0.181345v 0.698483h
 0.181345v -4.84634h 0.181345v 3.48043h 0.181345v 1.36591h 0.181345v -0.698483h 0.36269v -1.30645h 0.181345v -2.84141h 0.181345v 2.22848h 0.181345v -3.70652h 0.181345v 5.6259h 0.181345v -4.65688h 0.181345v 11.4433h 0.181345v -10.4074h 0.181345v
 -0.526885h 0.181345v 4.84634h 0.181345v -3.20675h 0.181345v -0.566659h 0.181345v -3.89648h 0.181345v -0.834363h 0.181345v 7.80576h 0.181345v -2.50826h 0.181345v -4.88611h 0.181345v 3.24652h 0.181345v 3.48043h 0.181345v -1.84083h 0.181345v 4.70947h
 0.181345v -4.12058h 0.181345v -3.22983h 0.181345v 0.492329h 0.181345v 6.08793h 0.36269v -0.732569h 0.181345v -0.698483h 0.181345v -0.667429h 0.181345v -7.92876h 0.181345v 6.67681h 0.181345v -2.22848h 0.181345v 1.63959h 0.181345v 0.588886h 0.181345v
 4.93238h 0.181345v -4.93238h 0.181345v -2.7375h 0.181345v 5.35536h 0.36269v -0.698483h 0.181345v -1.30645h 0.181345v 2.7375h 0.181345v -4.50597h 0.181345v 1.15555h 0.181345v 2.61786h 0.181345v -4.84634h 0.181345v 4.84634h 0.181345v 1.50272h
 0.181345v 1.67002h 0.181345v -0.858215h 0.36269v -1.58195h 0.181345v 5.35536h 0.181345v -5.35536h 0.181345v -2.09848h 0.36269v 6.41793h 0.181345v -5.7505h 0.181345v 0.698483h 0.181345v 3.17274h 0.181345v 9.54916h 0.181345v -11.9893h 0.181345v
 2.44017h 0.181345v 6.53616h 0.181345v -5.6259h 0.181345v -4.78148h 0.181345v 3.01301h 0.181345v 3.7734h 0.181345v 1.11271h 0.181345v -4.88611h 0.181345v 0.858215h 0.181345v -3.17274h 0.181345v 4.083h 0.181345v -5.44891h 0.181345v 7.45384h 0.181345v
 1.11271h 0.181345v -3.11764h 0.181345v -3.35043h 0.181345v 1.58195h 0.181345v -3.68043h 0.181345v -4.95847h 0.181345v 10.4074h 0.181345v -4.083h 0.181345v 1.50272h 0.181345v -2.2012h 0.181345v 9.10093h 0.181345v -5.22971h 0.181345v 4.0279h 0.181345v
 -3.11764h 0.181345v -0.910259h 0.181345v -6.94614h 0.181345v 6.94614h 0.181345v -2.44017h 0.181345v -4.50597h 0.181345v 4.50597h 0.181345v 1.58195h 0.181345v -2.31452h 0.181345v 4.083h 0.181345v -7.8564h 0.181345v 7.8564h 0.181345v -4.78148h
 0.181345v 1.43105h 0.181345v -2.09848h 0.181345v 2.09848h 0.181345v -3.35043h 0.181345v 2.61786h 0.181345v 3.17274h 0.181345v -3.87122h 0.181345v -0.667429h 0.181345v 9.76836h 0.181345v -11.6092h 0.181345v 4.70947h 0.181345v 4.58521h 0.36269v
 -7.45384h 0.181345v 7.45384h 0.181345v -2.91519h 0.181345v 5.22971h 0.181345v -3.35043h 0.181345v 6.08793h 0.181345v -5.05202h 0.181345v -3.7734h 0.181345v 3.7734h 0.181345v -2.91519h 0.181345v 4.0279h 0.36269v 1.20182h 0.181345v -1.20182h 0.181345v
 5.52127h 0.181345v 1.76847h 0.181345v -11.3176h 0.181345v 7.96721h 0.181345v 1.58195h 0.181345v -9.54916h 0.181345v 7.96721h 0.181345v 7.66988h 0.181345v 2.7375h 0.181345v -11.8384h 0.181345v 4.78148h 0.725379v 4.31945h 0.181345v -4.31945h 0.544034v
 14.7268h 0.181345v -14.7268h 0.181345v -4.78148h 0.181345v 3.01301h 0.181345v 6.08793h 0.181345v -6.08793h 0.181345v -4.31945h 0.181345v 8.09286h 0.36269v 8.40245h 0.181345v -10.4074h 0.181345v -1.76847h 0.181345v 1.76847h 0.181345v -3.35043h
 0.181345v -2.7375h 0.181345v -2.31452h 0.181345v 12.7219h 0.181345v -10.4074h 0.181345v -2.31452h 0.181345v 10.4074h 0.181345v -8.09286h 0.181345v 10.4074h 0.181345v 2.7375h 0.181345v -11.8384h 0.181345v -2.50826h 0.181345v 5.52127h 0.181345v
 3.7734h 0.181345v -8.09286h 0.181345v -1.20182h 0.181345v 5.52127h 0.36269v -4.31945h 0.181345v 1.30645h 0.181345v 3.01301h 0.181345v 8.82543h 0.181345v -14.3467h 0.181345v 2.50826h 0.181345v -2.50826h 0.181345v 17.6971h 0.181345v -8.40245h
 0.181345v -13.3226h 0.181345v -1.67002h 0.181345v 3.5493h 0.181345v 6.08793h 0.181345v 3.35043h 0.181345v -7.28974h 0.181345v 3.93931h 0.181345v -7.96721h 0.181345v 9.54916h 0.544034v -10.4074h 0.181345v 10.4074h 0.36269v 6.08793h 0.181345v
 -6.08793h 0.36269v -5.52127h 0.181345v -3.11764h 0.181345v 3.11764h 0.36269v -2.14861h 0.181345v 11.4433h 0.181345v -6.78641h 0.181345v -5.6259h 0.181345v 10.4074h 0.181345v -1.76847h 0.181345v 8.82543h 0.181345v -10.4074h 0.181345v 10.4074h
 0.181345v -10.4074h 0.181345v -2.7375h 0.181345v 1.30645h 0.181345v -2.50826h 0.181345v -1.11271h 0.181345v 5.05202h 0.181345v 3.35043h 0.181345v -3.35043h 0.181345v -1.43105h 0.181345v -1.30645h 0.181345v 20.8148h 0.181345v -24.1652h 0.181345v
 4.65688h 0.181345v 4.78148h 0.181345v 4.31945h 0.181345v -4.31945h 0.181345v -3.35043h 0.36269v -1.43105h 0.181345v 11.8384h 0.181345v -5.05202h 0.181345v -2.00493h 0.36269v -6.08793h 0.181345v 8.09286h 0.181345v -3.7734h 0.181345v -1.58195h
 0.181345v 1.58195h 0.181345v -1.58195h 0.181345v -6.08793h 0.181345v 13.7578h 0.181345v -2.31452h 0.181345v -8.09286h 0.181345v 1.30645h 0.181345v 1.43105h 0.36269v 1.58195h 0.181345v -6.63398h 0.181345v 3.62097h 0.181345v 1.43105h 0.181345v
 3.35043h 0.181345v -15.8563h 0.181345v 20.1757h 0.181345v -13.7578h 0.181345v 7.66988h 0.181345v -5.52127h 0.181345v 1.20182h 0.181345v -1.20182h 0.181345v 9.29467h 0.181345v -8.09286h 0.181345v 2.7375h 0.181345v 5.35536h 0.181345v -3.7734h 0.36269v
 -5.52127h 0.181345v -1.11271h 0.181345v 5.05202h 0.181345v -7.96721h 0.181345v -0.858215h 0.181345v 2.7375h 0.181345v 2.14861h 0.181345v -3.11764h 0.181345v 4.31945h 0.181345v -4.31945h 0.181345v -4.78148h 0.181345v 1.43105h 0.181345v -1.43105h
 0.181345v -0.667429h 0.181345v 5.44891h 0.181345v -4.78148h 0.181345v 3.01301h 0.181345v -0.811802h 0.181345v 4.58521h 0.181345v -5.35536h 0.181345v -6.08793h 0.181345v 4.65688h 0.181345v 5.7505h 0.181345v -7.05695h 0.181345v 9.20556h 0.181345v
 -6.46807h 0.181345v -1.43105h 0.181345v 3.87122h 0.181345v -2.44017h 0.181345v -5.57891h 0.181345v 4.84634h 0.181345v 0.732569h 0.181345v -6.58026h 0.181345v 8.16221h 0.181345v -8.16221h 0.181345v 11.9356h 0.181345v -6.78641h 0.181345v -5.1492h
 0.181345v 9.02042h 0.181345v -1.67002h 0.181345v -1.50272h 0.181345v -4.31945h 0.181345v 1.70159h 0.181345v -3.22983h 0.181345v 1.00135h 0.181345v 3.48043h 0.181345v 4.53865h 0.181345v -7.49219h 0.181345v 33.5367h 0.181345v -29.2172h 0.181345v
 3.17274h 0.181345v -4.53865h 0.181345v -2.40749h 0.181345v 3.7734h 0.36269v 5.05202h 0.181345v -5.05202h 0.181345v 3.17274h 0.181345v -1.67002h 0.181345v 4.58521h 0.181345v -5.35536h 0.181345v 5.35536h 0.181345v -2.00493h 0.181345v 3.11764h
 0.181345v -1.11271h 0.181345v -1.03591h 0.181345v 7.66988h 0.181345v 3.7734h 0.181345v -13.3226h 0.181345v 9.54916h 0.181345v 12.1759h 0.181345v -10.4074h 0.181345v -1.76847h 0.181345v -3.01301h 0.181345v 15.1889h 0.181345v -10.4074h 0.181345v
 4.31945h 0.181345v 2.7375h 0.181345v 3.35043h 0.181345v -16.4953h 0.181345v 6.08793h 0.181345v 7.05695h 0.181345v -5.05202h 0.181345v 8.40245h 0.181345v -6.08793h 0.181345v 26.9027h 0.181345v -29.2172h 0.181345v -3.7734h 0.181345v 6.08793h 0.181345v
 16.4953h 0.181345v -22.5832h 0.181345v 6.08793h 0.181345v 6.08793h 0.544034v -3.35043h 0.181345v 7.66988h 0.181345v 6.08793h 0.181345v -10.4074h 0.36269v 4.31945h 0.181345v -7.66988h 0.181345v -2.7375h 0.181345v 26.9027h 0.36269v -10.4074h 0.36269v
 10.4074h 0.181345v -10.4074h 0.36269v 10.4074h 0.181345v -10.4074h 0.181345v 20.8148h 0.181345v -26.9027h 0.181345v 26.9027h 0.181345v -10.4074h 0.181345v -16.4953h 0.181345v 6.08793h 0.36269v 20.8148h 0.36269v -20.8148h 0.181345v 20.8148h 0.181345v
 -10.4074h 0.36269v 10.4074h 0.181345v -10.4074h 0.36269v -10.4074h 0.181345v 20.8148h 0.36269v -10.4074h 0.544034v -16.4953h 0.181345v 26.9027h 0.181345v -10.4074h 0.181345v -26.9027h 0.181345v 10.4074h 0.181345v -4.31945h 0.181345v 10.4074h
 0.544034v 10.4074h 0.544034v 10.4074h 0.36269v -20.8148h 0.181345v 10.4074h 0.181345v 10.4074h 0.181345v -20.8148h 0.181345v 10.4074h 0.36269v 10.4074h 0.181345v -10.4074h 0.181345v 10.4074h 0.181345v -20.8148h 0.181345v 10.4074h 0.181345v -10.4074h
 0.181345v 10.4074h 0.181345v 10.4074h 0.181345v -10.4074h 0.544034v -10.4074h 0.36269v 10.4074h 0.181345v 10.4074h 0.36269v -26.9027h 0.181345v 16.4953h 0.181345v -16.4953h 0.181345v 26.9027h 0.181345v -20.8148h 0.181345v -6.08793h 0.181345v
 26.9027h 0.181345v -26.9027h 0.181345v 16.4953h 0.36269v -10.4074h 0.181345v 20.8148h 0.181345v -26.9027h 0.181345v 16.4953h 0.544034v -10.4074h 0.181345v 10.4074h 0.181345v -10.4074h 0.36269v 20.8148h 0.36269v -26.9027h 0.181345v 26.9027h 0.181345v
 -10.4074h 0.36269v 10.4074h 0.36269v -10.4074h 0.725379v -10.4074h 0.181345v 10.4074h 0.181345v -10.4074h 0.36269v 20.8148h 0.181345v -20.8148h 0.181345v 20.8148h 0.181345v -10.4074h 0.181345v 10.4074h 0.181345v -20.8148h 0.181345v 20.8148h
 0.181345v -10.4074h 0.181345v -10.4074h 0.181345v -6.08793h 0.181345v 26.9027h 0.181345v -10.4074h 0.36269v -20.8148h 0.181345v 10.4074h 0.181345v 20.8148h 0.544034v -10.4074h 0.181345v 10.4074h 0.181345v -10.4074h 0.181345v 10.4074h 0.181345v
 -20.8148h 0.36269v 10.4074h 0.36269v 10.4074h 0.181345v -26.9027h 0.181345v 6.08793h 0.181345v 20.8148h 0.181345v -20.8148h 0.181345v 10.4074h 0.544034v 10.4074h 0.181345v -26.9027h 0.181345v 26.9027h 0.181345v -34.5726h 0.181345v 7.66988h 0.181345v
 26.9027h 0.181345v -26.9027h 0.181345v 16.4953h 0.181345v -10.4074h 0.181345v 10.4074h 0.36269v -10.4074h 0.181345v 20.8148h 0.181345v -10.4074h 0.181345v 10.4074h 0.544034v -10.4074h 0.181345v -10.4074h 0.181345v 20.8148h 0.181345v -20.8148h
 0.181345v 10.4074h 0.181345v -10.4074h 0.181345v -6.08793h 0.181345v 16.4953h 0.181345v 10.4074h 0.36269v -20.8148h 0.181345v 20.8148h 0.544034v -20.8148h 0.36269v 20.8148h 0.36269v -26.9027h 0.181345v 6.08793h 0.181345v 20.8148h 0.181345v -10.4074h
 0.181345v 10.4074h 0.181345v -20.8148h 0.181345v -6.08793h 0.181345v 16.4953h 0.181345v -10.4074h 0.181345v -6.08793h 0.181345v 26.9027h 0.181345v -20.8148h 0.181345v 20.8148h 0.36269v -10.4074h 0.181345v -16.4953h 0.181345v 26.9027h 0.544034v
 -20.8148h 0.181345v 20.8148h 0.181345v -10.4074h 0.181345v -10.4074h 0.181345v 20.8148h 0.181345v -10.4074h 0.36269v 10.4074h 0.544034v -10.4074h 0.181345v 10.4074h 0.36269v -10.4074h 0.36269v -10.4074h 0.36269v 20.8148h 0.36269v -10.4074h 0.725379v
 10.4074h 0.544034v -10.4074h 0.181345v 10.4074h 0.725379v -26.9027h 0.181345v 6.08793h 0.181345v 10.4074h 0.181345v 10.4074h 0.725379v -10.4074h 0.181345v -10.4074h 0.181345v 20.8148h 0.906724v -10.4074h 0.36269v 10.4074h 0.181345v -20.8148h
 0.36269v 20.8148h 0.181345v -26.9027h 0.181345v 26.9027h 0.181345v -20.8148h 0.181345v 20.8148h 0.181345v -10.4074h 0.181345v -10.4074h 0.181345v 20.8148h 0.36269v -20.8148h 0.36269v 10.4074h 0.36269v 10.4074h 0.36269v -20.8148h 0.544034v 20.8148h
 0.36269v -26.9027h 0.181345v 26.9027h 0.181345v -20.8148h 0.181345v 10.4074h 0.725379v 10.4074h 0.725379v -10.4074h 0.181345v -10.4074h 0.181345v 20.8148h 0.36269v -10.4074h 0.181345v 10.4074h 0.36269" fill="none" stroke="black"/>
<path d="M57.1929,280.151h 453.543" fill="none" stroke="black"/>
<path d="M57.1929,272.68v 7.47068" fill="none" stroke="black"/>
<path d="M75.3318,276.415v 3.73534" fill="none" stroke="black"/>
<path d="M93.4707,276.415v 3.73534" fill="none" stroke="black"/>
<path d="M111.61,276.415v 3.73534" fill="none" stroke="black"/>
<path d="M129.749,276.415v 3.73534" fill="none" stroke="black"/>
<path d="M147.887,272.68v 7.47068" fill="none" stroke="black"/>
<path d="M166.026,276.415v 3.73534" fill="none" stroke="black"/>
<path d="M184.165,276.415v 3.73534" fill="none" stroke="black"/>
<path d="M202.304,276.415v 3.73534" fill="none" stroke="black"/>
<path d="M220.443,276.415v 3.73534" fill="none" stroke="black"/>
<path d="M238.582,272.68v 7.47068" fill="none" stroke="black"/>
<path d="M256.721,276.415v 3.73534" fill="none" stroke="black"/>
<path d="M274.86,276.415v 3.73534" fill="none" stroke="black"/>
<path d="M292.999,276.415v 3.73534" fill="none" stroke="black"/>
<path d="M311.138,276.415v 3.73534" fill="none" stroke="black"/>
<path d="M329.277,272.68v 7.47068" fill="none" stroke="black"/>
<path d="M347.415,276.415v 3.73534" fill="none" stroke="black"/>
<path d="M365.554,276.415v 3.73534" fill="none" stroke="black"/>
<path d="M383.693,276.415v 3.73534" fill="none" stroke="black"/>
<path d="M401.832,276.415v 3.73534" fill="none" stroke="black"/>
<path d="M419.971,272.68v 7.47068" fill="none" stroke="black"/>
<path d="M438.11,276.415v 3.73534" fill="none" stroke="black"/>
<path d="M456.249,276.415v 3.73534" fill="none" stroke="black"/>
<path d="M474.388,276.415v 3.73534" fill="none" stroke="black"/>
<path d="M492.527,276.415v 3.73534" fill="none" stroke="black"/>
<path d="M510.666,272.68v 7.47068" fill="none" stroke="black"/>
<path d="M510.666,272.68v 7.47068" fill="none" stroke="black"/>
<text xml:space="preserve" x="54.3523" y="290.27" fill="black" font-size="10.4952" font-family="Helvetica">0</text>
<text xml:space="preserve" x="139.569" y="290.27" fill="black" font-size="10.4952" font-family="Helvetica">500</text>
<text xml:space="preserve" x="227.449" y="290.27" fill="black" font-size="10.4952" font-family="Helvetica">1000</text>
<text xml:space="preserve" x="318.288" y="290.27" fill="black" font-size="10.4952" font-family="Helvetica">1500</text>
<text xml:space="preserve" x="408.831" y="290.27" fill="black" font-size="10.4952" font-family="Helvetica">2000</text>
<text xml:space="preserve" x="499.67" y="290.27" fill="black" font-size="10.4952" font-family="Helvetica">2500</text>
<text xml:space="preserve" x="265.323" y="301.218" fill="black" font-size="10.4952" font-family="Helvetica">Channel</text>
<path d="M57.1929,280.151v -249.023" fill="none" stroke="black"/>
<path d="M63.9961,280.151h -6.80315" fill="none" stroke="black"/>
<path d="M63.9961,277.413h -6.80315" fill="none" stroke="black"/>
<path d="M63.9961,275.099h -6.80315" fill="none" stroke="black"/>
<path d="M63.9961,273.094h -6.80315" fill="none" stroke="black"/>
<path d="M63.9961,271.325h -6.80315" fill="none" stroke="black"/>
<path d="M70.7992,269.743h -13.6063" fill="none" stroke="black"/>
<text xml:space="preserve" x="49.0263" y="273.404" fill="black" font-size="10.4952" font-family="Helvetica">1</text>
<path d="M63.9961,259.336h -6.80315" fill="none" stroke="black"/>
<path d="M63.9961,253.248h -6.80315" fill="none" stroke="black"/>
<path d="M63.9961,248.928h -6.80315" fill="none" stroke="black"/>
<path d="M63.9961,245.578h -6.80315" fill="none" stroke="black"/>
<path d="M63.9961,242.84h -6.80315" fill="none" stroke="black"/>
<path d="M63.9961,240.526h -6.80315" fill="none" stroke="black"/>
<path d="M63.9961,238.521h -6.80315" fill="none" stroke="black"/>
<path d="M63.9961,236.753h -6.80315" fill="none" stroke="black"/>
<path d="M70.7992,235.171h -13.6063" fill="none" stroke="black"/>
<text xml:space="preserve" x="41.629" y="238.785" fill="black" font-size="10.4952" font-family="Helvetica">10</text>
<path d="M63.9961,224.763h -6.80315" fill="none" stroke="black"/>
<path d="M63.9961,218.675h -6.80315" fill="none" stroke="black"/>
<path d="M63.9961,214.356h -6.80315" fill="none" stroke="black"/>
<path d="M63.9961,211.005h -6.80315" fill="none" stroke="black"/>
<path d="M63.9961,208.268h -6.80315" fill="none" stroke="black"/>
<path d="M63.9961,205.953h -6.80315" fill="none" stroke="black"/>
<path d="M63.9961,203.948h -6.80315" fill="none" stroke="black"/>
<path d="M63.9961,202.18h -6.80315" fill="none" stroke="black"/>
<path d="M70.7992,200.598h -13.6063" fill="none" stroke="black"/>
<text xml:space="preserve" x="49.0263" y="200.615" fill="black" font-size="7.16345" font-family="Helvetica">2</text>
<text xml:space="preserve" x="38.0783" y="205.053" fill="black" font-size="10.4952" font-family="Helvetica">10</text>
<path d="M63.9961,190.191h -6.80315" fill="none" stroke="black"/>
<path d="M63.9961,184.103h -6.80315" fill="none" stroke="black"/>
<path d="M63.9961,179.783h -6.80315" fill="none" stroke="black"/>
<path d="M63.9961,176.433h -6.80315" fill="none" stroke="black"/>
<path d="M63.9961,173.695h -6.80315" fill="none" stroke="black"/>
<path d="M63.9961,171.381h -6.80315" fill="none" stroke="black"/>
<path d="M63.9961,169.376h -6.80315" fill="none" stroke="black"/>
<path d="M63.9961,167.607h -6.80315" fill="none" stroke="black"/>
<path d="M70.7992,166.025h -13.6063" fill="none" stroke="black"/>
<text xml:space="preserve" x="49.0263" y="165.995" fill="black" font-size="7.16345" font-family="Helvetica">3</text>
<text xml:space="preserve" x="38.0783" y="170.73" fill="black" font-size="10.4952" font-family="Helvetica">10</text>
<path d="M63.9961,155.618h -6.80315" fill="none" stroke="black"/>
<path d="M63.9961,149.53h -6.80315" fill="none" stroke="black"/>
<path d="M63.9961,145.211h -6.80315" fill="none" stroke="black"/>
<path d="M63.9961,141.86h -6.80315" fill="none" stroke="black"/>
<path d="M63.9961,139.123h -6.80315" fill="none" stroke="black"/>
<path d="M63.9961,136.808h -6.80315" fill="none" stroke="black"/>
<path d="M63.9961,134.803h -6.80315" fill="none" stroke="black"/>
<path d="M63.9961,133.035h -6.80315" fill="none" stroke="black"/>
<path d="M70.7992,131.453h -13.6063" fill="none" stroke="black"/>
<text xml:space="preserve" x="49.0263" y="131.672" fill="black" font-size="7.16345" font-family="Helvetica">4</text>
<text xml:space="preserve" x="38.0783" y="136.11" fill="black" font-size="10.4952" font-family="Helvetica">10</text>
<path d="M63.9961,121.046h -6.80315" fill="none" stroke="black"/>
<path d="M63.9961,114.958h -6.80315" fill="none" stroke="black"/>
<path d="M63.9961,110.638h -6.80315" fill="none" stroke="black"/>
<path d="M63.9961,107.288h -6.80315" fill="none" stroke="black"/>
<path d="M63.9961,104.55h -6.80315" fill="none" stroke="black"/>
<path d="M63.9961,102.236h -6.80315" fill="none" stroke="black"/>
<path d="M63.9961,100.231h -6.80315" fill="none" stroke="black"/>
<path d="M63.9961,98.4623h -6.80315" fill="none" stroke="black"/>
<path d="M70.7992,96.8803h -13.6063" fill="none" stroke="black"/>
<text xml:space="preserve" x="49.0263" y="96.7567" fill="black" font-size="7.16345" font-family="Helvetica">5</text>
<text xml:space="preserve" x="38.0783" y="101.491" fill="black" font-size="10.4952" font-family="Helvetica">10</text>
<path d="M63.9961,86.473h -6.80315" fill="none" stroke="black"/>
<path d="M63.9961,80.385h -6.80315" fill="none" stroke="black"/>
<path d="M63.9961,76.0656h -6.80315" fill="none" stroke="black"/>
<path d="M63.9961,72.7152h -6.80315" fill="none" stroke="black"/>
<path d="M63.9961,69.9777h -6.80315" fill="none" stroke="black"/>
<path d="M63.9961,67.6631h -6.80315" fill="none" stroke="black"/>
<path d="M63.9961,65.6582h -6.80315" fill="none" stroke="black"/>
<path d="M63.9961,63.8897h -6.80315" fill="none" stroke="black"/>
<path d="M70.7992,62.3078h -13.6063" fill="none" stroke="black"/>
<text xml:space="preserve" x="49.0263" y="62.1373" fill="black" font-size="7.16345" font-family="Helvetica">6</text>
<text xml:space="preserve" x="38.0783" y="66.8716" fill="black" font-size="10.4952" font-family="Helvetica">10</text>
<path d="M63.9961,51.9004h -6.80315" fill="none" stroke="black"/>
<path d="M63.9961,45.8125h -6.80315" fill="none" stroke="black"/>
<path d="M63.9961,41.493h -6.80315" fill="none" stroke="black"/>
<path d="M63.9961,38.1426h -6.80315" fill="none" stroke="black"/>
<path d="M63.9961,35.4051h -6.80315" fill="none" stroke="black"/>
<path d="M63.9961,33.0906h -6.80315" fill="none" stroke="black"/>
<g transform="rotate(-90,26.5385,191.442)">
<text xml:space="preserve" x="26.5385" y="191.442" fill="black" font-size="10.4952" font-family="Helvetica">Counts/Channel</text>
</g>
<text xml:space="preserve" x="404.097" y="62.1373" fill="black" font-size="14.7788" font-family="Helvetica" font-weight="bold"> = 2.4879 MeV</text>
<text xml:space="preserve" x="398.179" y="65.3921" fill="black" font-size="10.0192" font-family="Helvetica" font-weight="bold">p</text>
<text xml:space="preserve" x="389.006" y="62.1373" fill="black" font-size="14.7788" font-family="Helvetica" font-weight="bold">E</text>
<path d="M262.163,164.594v 25.9472" fill="none" stroke="black"/>
<path d="M264.454,190.542l -2.29122, 3.9685l -2.29122, -3.9685z" fill="black"/>
<path d="M264.454,190.542l -2.29122, 3.9685l -2.29122, -3.9685h 4.58243z" fill="none" stroke="black"/>
<text xml:space="preserve" x="266.803" y="162.445" fill="black" font-size="10.4952" font-family="Helvetica" font-weight="bold">_1 	1.369 MeV</text>
<text xml:space="preserve" x="260.293" y="162.445" fill="black" font-size="10.4952" font-family="Times">&#0945;</text>
<path d="M184.528,131.453v 30.6041" fill="none" stroke="black"/>
<path d="M186.819,162.057l -2.29122, 3.9685l -2.29122, -3.9685z" fill="black"/>
<path d="M186.819,162.057l -2.29122, 3.9685l -2.29122, -3.9685h 4.58243z" fill="none" stroke="black"/>
<text xml:space="preserve" x="172.117" y="128.713" fill="black" font-size="10.4952" font-family="Helvetica" font-weight="bold"># p_1 	0.844 MeV</text>
<path d="M210.104,149.53v 12.5268" fill="none" stroke="black"/>
<path d="M212.395,162.057l -2.29122, 3.9685l -2.29122, -3.9685z" fill="black"/>
<path d="M212.395,162.057l -2.29122, 3.9685l -2.29122, -3.9685h 4.58243z" fill="none" stroke="black"/>
<text xml:space="preserve" x="197.564" y="144.987" fill="black" font-size="10.4952" font-family="Helvetica" font-weight="bold"># p_2 	1.015 MeV</text>
<path d="M497.701,269.743h 12.9648" fill="none" stroke="black"/>
<path d="M504.183,259.336h 6.48242" fill="none" stroke="black"/>
<path d="M504.183,253.248h 6.48242" fill="none" stroke="black"/>
<path d="M504.183,248.928h 6.48242" fill="none" stroke="black"/>
<path d="M504.183,245.578h 6.48242" fill="none" stroke="black"/>
<path d="M504.183,242.84h 6.48242" fill="none" stroke="black"/>
<path d="M504.183,240.526h 6.48242" fill="none" stroke="black"/>
<path d="M504.183,238.521h 6.48242" fill="none" stroke="black"/>
<path d="M504.183,236.753h 6.48242" fill="none" stroke="black"/>
<path d="M497.701,235.171h 12.9648" fill="none" stroke="black"/>
<path d="M504.183,224.763h 6.48242" fill="none" stroke="black"/>
<path d="M504.183,218.675h 6.48242" fill="none" stroke="black"/>
<path d="M504.183,214.356h 6.48242" fill="none" stroke="black"/>
<path d="M504.183,211.005h 6.48242" fill="none" stroke="black"/>
<path d="M504.183,208.268h 6.48242" fill="none" stroke="black"/>
<path d="M504.183,205.953h 6.48242" fill="none" stroke="black"/>
<path d="M504.183,203.948h 6.48242" fill="none" stroke="black"/>
<path d="M504.183,202.18h 6.48242" fill="none" stroke="black"/>
<path d="M497.701,200.598h 12.9648" fill="none" stroke="black"/>
<path d="M504.183,190.191h 6.48242" fill="none" stroke="black"/>
<path d="M504.183,184.103h 6.48242" fill="none" stroke="black"/>
<path d="M504.183,179.783h 6.48242" fill="none" stroke="black"/>
<path d="M504.183,176.433h 6.48242" fill="none" stroke="black"/>
<path d="M504.183,173.695h 6.48242" fill="none" stroke="black"/>
<path d="M504.183,171.381h 6.48242" fill="none" stroke="black"/>
<path d="M504.183,169.376h 6.48242" fill="none" stroke="black"/>
<path d="M504.183,167.607h 6.48242" fill="none" stroke="black"/>
<path d="M497.701,166.025h 12.9648" fill="none" stroke="black"/>
<path d="M504.183,155.618h 6.48242" fill="none" stroke="black"/>
<path d="M504.183,149.53h 6.48242" fill="none" stroke="black"/>
<path d="M504.183,145.211h 6.48242" fill="none" stroke="black"/>
<path d="M504.183,141.86h 6.48242" fill="none" stroke="black"/>
<path d="M504.183,139.123h 6.48242" fill="none" stroke="black"/>
<path d="M504.183,136.808h 6.48242" fill="none" stroke="black"/>
<path d="M504.183,134.803h 6.48242" fill="none" stroke="black"/>
<path d="M504.183,133.035h 6.48242" fill="none" stroke="black"/>
<path d="M497.701,131.453h 12.9648" fill="none" stroke="black"/>
<path d="M504.183,121.046h 6.48242" fill="none" stroke="black"/>
<path d="M504.183,114.958h 6.48242" fill="none" stroke="black"/>
<path d="M504.183,110.638h 6.48242" fill="none" stroke="black"/>
<path d="M504.183,107.288h 6.48242" fill="none" stroke="black"/>
<path d="M504.183,104.55h 6.48242" fill="none" stroke="black"/>
<path d="M504.183,102.236h 6.48242" fill="none" stroke="black"/>
<path d="M504.183,100.231h 6.48242" fill="none" stroke="black"/>
<path d="M504.183,98.4623h 6.48242" fill="none" stroke="black"/>
<path d="M497.701,96.8803h 12.9648" fill="none" stroke="black"/>
<path d="M504.183,86.473h 6.48242" fill="none" stroke="black"/>
<path d="M504.183,80.385h 6.48242" fill="none" stroke="black"/>
<path d="M504.183,76.0656h 6.48242" fill="none" stroke="black"/>
<path d="M504.183,72.7152h 6.48242" fill="none" stroke="black"/>
<path d="M504.183,69.9777h 6.48242" fill="none" stroke="black"/>
<path d="M504.183,67.6631h 6.48242" fill="none" stroke="black"/>
<path d="M504.183,65.6582h 6.48242" fill="none" stroke="black"/>
<path d="M504.183,63.8897h 6.48242" fill="none" stroke="black"/>
<path d="M497.701,62.3078h 12.9648" fill="none" stroke="black"/>
<path d="M504.183,51.9004h 6.48242" fill="none" stroke="black"/>
<path d="M504.183,45.8125h 6.48242" fill="none" stroke="black"/>
<path d="M504.183,41.493h 6.48242" fill="none" stroke="black"/>
<path d="M504.183,38.1426h 6.48242" fill="none" stroke="black"/>
<path d="M504.183,35.4051h 6.48242" fill="none" stroke="black"/>
<path d="M504.183,33.0906h 6.48242" fill="none" stroke="black"/>
<path d="M57.1929,39.93v -7.46952" fill="none" stroke="black"/>
<path d="M75.3318,39.93v -7.46952" fill="none" stroke="black"/>
<path d="M93.4707,39.93v -7.46952" fill="none" stroke="black"/>
<path d="M111.61,39.93v -7.46952" fill="none" stroke="black"/>
<path d="M129.749,39.93v -7.46952" fill="none" stroke="black"/>
<path d="M147.887,39.93v -7.46952" fill="none" stroke="black"/>
<path d="M166.026,39.93v -7.46952" fill="none" stroke="black"/>
<path d="M184.165,39.93v -7.46952" fill="none" stroke="black"/>
<path d="M202.304,39.93v -7.46952" fill="none" stroke="black"/>
<path d="M220.443,39.93v -7.46952" fill="none" stroke="black"/>
<path d="M238.582,39.93v -7.46952" fill="none" stroke="black"/>
<path d="M256.721,39.93v -7.46952" fill="none" stroke="black"/>
<path d="M274.86,39.93v -7.46952" fill="none" stroke="black"/>
<path d="M292.999,39.93v -7.46952" fill="none" stroke="black"/>
<path d="M311.138,39.93v -7.46952" fill="none" stroke="black"/>
<path d="M329.277,39.93v -7.46952" fill="none" stroke="black"/>
<path d="M347.415,39.93v -7.46952" fill="none" stroke="black"/>
<path d="M365.554,39.93v -7.46952" fill="none" stroke="black"/>
<path d="M383.693,39.93v -7.46952" fill="none" stroke="black"/>
<path d="M401.832,39.93v -7.46952" fill="none" stroke="black"/>
<path d="M419.971,39.93v -7.46952" fill="none" stroke="black"/>
<path d="M438.11,39.93v -7.46952" fill="none" stroke="black"/>
<path d="M456.249,39.93v -7.46952" fill="none" stroke="black"/>
<path d="M474.388,39.93v -7.46952" fill="none" stroke="black"/>
<path d="M492.527,39.93v -7.46952" fill="none" stroke="black"/>
<path d="M510.666,39.93v -7.46952" fill="none" stroke="black"/></svg>
