<?xml version="1.0" standalone="no"?>
<svg width="567.429" height="311.778" viewBox="0 0 567.429 311.778" xmlns="http://www.w3.org/2000/svg" shape-rendering="crispEdges">
<title>
Yields/P1/run_0099/det11_Fit.svg
</title>
<desc>
Creator: ROOT Version 6.12/06
CreationDate: Mon Apr 15 10:29:01 2019</desc>
<defs>
</defs>
<rect x="0.5" y="0" width="566.929" height="311.278" fill="white"/>
<rect x="57.1929" y="31.1278" width="453.543" height="249.023" fill="white"/>
<rect x="57.1929" y="31.1278" width="453.543" height="249.023" fill="none" stroke="black"/>
<path d="M57.1929,40.7162h 0.181345v 239.434h 2.90152v -10.3996h 0.181345v 10.3996h 1.99479v -10.3996h 0.181345v 10.3996h 13.4195v -10.3996h 0.181345v 10.3996h 1.6321v -10.3996h 0.181345v 10.3996h 0.906724v -10.3996h 0.181345v 10.3996h 5.44034v
 -10.3996h 0.36269v 10.3996h 0.906724v -10.3996h 0.181345v 10.3996h 1.08807v -20.7992h 0.181345v 20.7992h 0.906724v -10.3996h 0.181345v -10.3996h 0.181345v -6.08337h 0.181345v -7.66414h 0.181345v -22.2292h 0.181345v -10.0547h 0.181345v -11.2475h
 0.181345v -12.038h 0.181345v -7.01467h 0.181345v -2.39196h 0.181345v -4.76354h 0.181345v -2.16424h 0.181345v -1.03347h 0.181345v -2.2196h 0.181345v 0.44729h 0.181345v -1.1898h 0.181345v -0.395098h 0.181345v -0.707242h 0.181345v -1.53109h 0.181345v
 -0.0479088h 0.181345v -0.0159357h 0.181345v -1.19356h 0.181345v -0.305757h 0.181345v 1.16852h 0.181345v -0.892155h 0.181345v -0.0293322h 0.181345v -0.798851h 0.181345v -0.54564h 0.181345v 0.0268158h 0.181345v 0.518824h 0.181345v 0.75496h 0.181345v
 -1.13898h 0.181345v 0.509574h 0.181345v -1.13287h 0.181345v -0.39738h 0.181345v 0.899303h 0.181345v -0.120403h 0.181345v 0.0935629h 0.181345v 0.366452h 0.181345v -0.109515h 0.181345v 0.0957815h 0.181345v -0.995728h 0.181345v 0.522821h 0.181345v
 -0.574115h 0.181345v 0.534265h 0.181345v -0.687102h 0.181345v 1.26865h 0.181345v 0.676962h 0.181345v -0.923149h 0.181345v -0.869626h 0.181345v 0.869626h 0.181345v -0.63741h 0.181345v 0.1437h 0.181345v 0.809007h 0.181345v -0.0138472h 0.181345v
 -0.315008h 0.181345v -0.0676136h 0.181345v 0.662024h 0.181345v 0.429108h 0.181345v -0.158768h 0.181345v 0.115301h 0.181345v -0.229722h 0.181345v 0.18638h 0.181345v -0.814231h 0.181345v -0.668117h 0.181345v -1.15662h 0.181345v -0.452878h 0.181345v
 -2.03861h 0.181345v -1.74892h 0.181345v -2.10682h 0.181345v -2.0351h 0.181345v -3.15849h 0.181345v -2.43245h 0.181345v -2.05934h 0.181345v -2.00083h 0.181345v -1.66455h 0.181345v -1.18563h 0.181345v -0.300764h 0.181345v -1.12976h 0.181345v
 -0.0382323h 0.181345v 0.709264h 0.181345v 1.16498h 0.181345v 1.29676h 0.181345v 1.69614h 0.181345v 1.90834h 0.181345v 2.87145h 0.181345v 3.24838h 0.181345v 3.06237h 0.181345v 3.1147h 0.181345v 3.74698h 0.181345v 3.15568h 0.181345v 1.7633h 0.181345v
 3.14999h 0.181345v 2.33061h 0.181345v 1.38511h 0.181345v 0.700568h 0.181345v 0.795265h 0.181345v 0.06062h 0.181345v 0.306829h 0.181345v -0.0309669h 0.181345v 1.05724h 0.181345v 0.234172h 0.181345v -1.10465h 0.181345v 0.062776h 0.181345v 0.741459h
 0.181345v -0.519651h 0.181345v 0.652426h 0.181345v 1.28729h 0.181345v -1.01817h 0.181345v 0.623789h 0.181345v -0.418728h 0.181345v 0.454155h 0.181345v -0.350564h 0.181345v 0.42167h 0.181345v 0.287845h 0.181345v -0.464983h 0.181345v -0.313672h
 0.181345v -1.16107h 0.181345v 1.75917h 0.181345v -1.56641h 0.181345v 1.78333h 0.181345v -0.745887h 0.181345v 2.68702h 0.181345v -2.51276h 0.181345v 0.0702738h 0.181345v 0.795549h 0.181345v 0.338014h 0.181345v 0.0761597h 0.181345v -0.414174h
 0.181345v 1.27849h 0.181345v 0.831428h 0.181345v 1.15468h 0.181345v -2.73545h 0.181345v 1.83946h 0.181345v -0.512988h 0.181345v 0.169055h 0.181345v 0.830096h 0.181345v -1.53578h 0.181345v 0.0406047h 0.181345v 0.750328h 0.181345v 0.345916h 0.181345v
 -0.0436782h 0.181345v -0.173452h 0.181345v -0.63315h 0.181345v 1.0706h 0.181345v 0.542352h 0.181345v -0.0917644h 0.181345v 0.276994h 0.181345v -0.413597h 0.181345v 1.37569h 0.181345v -2.29859h 0.181345v 1.05951h 0.181345v 0.370474h 0.181345v
 -0.324662h 0.181345v 0.513387h 0.181345v 0.729646h 0.181345v 0.558568h 0.181345v -0.307248h 0.181345v -1.12273h 0.181345v -0.463106h 0.181345v 2.68992h 0.181345v -1.3554h 0.181345v 0.404157h 0.181345v -0.102065h 0.181345v 0.256475h 0.181345v
 -1.04892h 0.181345v 0.590375h 0.181345v 0.406898h 0.181345v -1.93237h 0.181345v 1.12932h 0.181345v 1.87136h 0.181345v -1.92015h 0.181345v 0.245561h 0.181345v 0.761759h 0.181345v 0.104554h 0.181345v 0.264618h 0.181345v 0.323828h 0.181345v 0.219835h
 0.181345v -2.35228h 0.181345v 1.2325h 0.181345v -0.102413h 0.181345v 0.20553h 0.181345v -1.8016h 0.181345v 0.849478h 0.181345v 0.443484h 0.181345v -2.90124h 0.181345v 1.51679h 0.36269v 0.416147h 0.181345v -2.21872h 0.181345v -0.516726h 0.181345v
 -1.55731h 0.181345v 1.28627h 0.181345v 0.31016h 0.181345v -1.16773h 0.181345v -0.215881h 0.181345v -0.595314h 0.181345v 0.595314h 0.181345v 0.619914h 0.181345v -1.04257h 0.181345v 2.65233h 0.181345v -1.15622h 0.181345v 0.909578h 0.181345v 1.23152h
 0.181345v 0.865385h 0.181345v -0.461681h 0.181345v 0.69796h 0.181345v 2.31279h 0.181345v 0.798851h 0.181345v -0.798851h 0.181345v 0.223936h 0.181345v -0.279402h 0.36269v 0.111137h 0.181345v 1.21952h 0.181345v -1.71328h 0.181345v 1.89588h 0.181345v
 0.12298h 0.181345v -0.365956h 0.181345v -1.21481h 0.181345v 3.27862h 0.181345v -0.807555h 0.181345v -1.31639h 0.181345v 0.241996h 0.181345v 0.30809h 0.181345v -0.246976h 0.181345v 0.246976h 0.181345v 1.57385h 0.181345v -2.00343h 0.181345v 0.807834h
 0.181345v -1.68891h 0.181345v 0.463463h 0.181345v 1.41822h 0.181345v 0.661051h 0.181345v -2.19648h 0.181345v 0.176168h 0.181345v 1.10279h 0.181345v -1.51068h 0.181345v 0.52649h 0.181345v 0.11955h 0.181345v -0.530629h 0.181345v 0.956718h 0.181345v
 0.249025h 0.181345v -0.187155h 0.36269v -0.785067h 0.181345v 0.600218h 0.181345v -1.40212h 0.181345v 0.0558788h 0.181345v 0.92358h 0.181345v -1.14586h 0.181345v -0.219032h 0.181345v -2.63546h 0.181345v 3.13285h 0.181345v -0.926096h 0.181345v
 0.212818h 0.181345v 1.88145h 0.181345v -2.71519h 0.181345v -0.151296h 0.181345v 0.355428h 0.181345v 1.45569h 0.181345v -0.718534h 0.181345v -0.267448h 0.181345v -0.262764h 0.181345v 1.65039h 0.181345v -0.957392h 0.181345v -0.108721h 0.181345v
 1.84181h 0.181345v 1.34449h 0.181345v -1.28313h 0.181345v 0.62785h 0.181345v 0.925616h 0.36269v -1.85781h 0.181345v 1.12579h 0.181345v -0.635834h 0.181345v 1.09751h 0.181345v -0.39659h 0.181345v 1.15207h 0.181345v -0.279142h 0.181345v -0.872929h
 0.181345v -1.37056h 0.181345v 3.69423h 0.181345v -2.25829h 0.181345v -1.25625h 0.181345v 1.85781h 0.181345v 0.485142h 0.181345v 1.02004h 0.181345v -1.09032h 0.181345v -0.277849h 0.181345v 0.922488h 0.181345v -0.574364h 0.181345v -1.853h 0.181345v
 0.251109h 0.181345v 1.53161h 0.181345v -1.14689h 0.181345v -0.193595h 0.181345v 0.258686h 0.544034v 1.58077h 0.181345v 1.28572h 0.181345v -1.85463h 0.181345v 0.714584h 0.181345v -2.42736h 0.181345v 1.03068h 0.181345v 0.13396h 0.181345v 0.40921h
 0.181345v 0.138922h 0.181345v -1.33452h 0.181345v -0.988238h 0.181345v 2.25313h 0.181345v -0.47851h 0.181345v -1.83428h 0.181345v 0.794665h 0.181345v 1.58775h 0.181345v -1.20628h 0.181345v -1.17613h 0.181345v 2.73545h 0.181345v -1.62358h 0.181345v
 0.857573h 0.181345v -0.202297h 0.181345v -1.70749h 0.181345v 0.424368h 0.181345v 0.436721h 0.181345v 0.255384h 0.181345v 0.129341h 0.181345v 1.5016h 0.181345v 0.437024h 0.181345v -0.365065h 0.181345v -3.34792h 0.181345v 3.34792h 0.181345v -3.1738h
 0.181345v 2.46928h 0.181345v 0.0689814h 0.181345v 0.349746h 0.181345v 0.142214h 0.181345v -2.18981h 0.181345v 0.75983h 0.36269v -0.510805h 0.181345v 1.10705h 0.181345v -1.10705h 0.181345v -0.972223h 0.181345v 1.28943h 0.181345v 1.83946h 0.181345v
 -3.59235h 0.181345v 1.06368h 0.181345v 2.82143h 0.181345v -2.38652h 0.181345v 2.31279h 0.181345v -0.291338h 0.181345v -0.143575h 0.181345v 1.5016h 0.181345v -0.69437h 0.181345v 0.0755842h 0.181345v 1.42998h 0.181345v -3.48069h 0.181345v 0.745245h
 0.181345v 0.42266h 0.181345v -0.283092h 0.181345v -1.2117h 0.181345v 0.52649h 0.181345v -0.265554h 0.181345v 2.04108h 0.181345v 0.227905h 0.181345v -0.600218h 0.181345v 0.372313h 0.181345v -0.150036h 0.181345v -0.799404h 0.181345v -0.623789h
 0.181345v 2.11049h 0.181345v -0.61247h 0.181345v -0.149289h 0.181345v 0.840106h 0.181345v 1.83604h 0.181345v -0.523429h 0.181345v -0.670656h 0.181345v -0.641956h 0.181345v 1.48507h 0.181345v -1.08708h 0.181345v -0.397992h 0.181345v 0.0787584h
 0.36269v 0.481435h 0.181345v 1.18733h 0.181345v 0.0885161h 0.181345v -1.59851h 0.181345v 1.16107h 0.181345v 1.83196h 0.181345v -0.57345h 0.181345v -1.59951h 0.181345v -1.74841h 0.181345v 3.25444h 0.181345v -0.816098h 0.181345v 0.909578h 0.181345v
 -1.08506h 0.181345v 1.75625h 0.181345v -1.49225h 0.181345v 0.178614h 0.181345v -0.442611h 0.181345v 1.36904h 0.181345v -0.654459h 0.181345v 1.33877h 0.181345v 1.80471h 0.181345v -2.77301h 0.181345v -2.17823h 0.181345v 2.75168h 0.181345v -0.479384h
 0.181345v 0.382274h 0.181345v -0.66272h 0.181345v 1.66332h 0.181345v -0.20553h 0.181345v -1.55012h 0.181345v 1.55012h 0.181345v -0.79507h 0.181345v -1.64837h 0.181345v 4.75623h 0.181345v -2.31279h 0.181345v -4.00686h 0.181345v 4.21239h 0.181345v
 -0.50864h 0.181345v -0.779575h 0.181345v 2.58428h 0.181345v -3.32534h 0.181345v 2.13311h 0.181345v -1.29678h 0.36269v 0.987424h 0.181345v -0.202752h 0.181345v 2.04665h 0.181345v -1.63836h 0.181345v -0.408282h 0.181345v -3.40822h 0.181345v 3.92033h
 0.181345v -0.10383h 0.181345v -0.20553h 0.181345v 0.839572h 0.181345v -1.14268h 0.181345v 0.61247h 0.181345v -1.00732h 0.181345v 0.90349h 0.181345v -0.608331h 0.181345v 1.02803h 0.181345v -0.106032h 0.181345v -0.922003h 0.181345v 0.608331h 0.181345v
 1.18368h 0.181345v -2.66062h 0.181345v 0.9683h 0.181345v -0.684314h 0.181345v 0.584623h 0.181345v -0.774543h 0.181345v -0.187545h 0.181345v -1.16503h 0.181345v 3.58694h 0.181345v -2.04444h 0.181345v 1.827h 0.181345v -0.737159h 0.181345v 1.74148h
 0.181345v -4.20036h 0.181345v 2.45888h 0.181345v -1.37382h 0.181345v 3.5842h 0.181345v -3.39547h 0.181345v 2.92658h 0.181345v -3.20878h 0.181345v 0.863055h 0.181345v -0.67551h 0.181345v -2.43362h 0.181345v 1.96908h 0.181345v 1.64188h 0.181345v
 -0.600218h 0.181345v 1.76715h 0.181345v -1.56973h 0.181345v -0.0990329h 0.181345v 0.400115h 0.181345v -1.81214h 0.36269v 1.11879h 0.181345v -1.47391h 0.181345v -0.852697h 0.181345v -2.01379h 0.181345v 1.44448h 0.181345v 0.820064h 0.181345v -1.36855h
 0.181345v -2.01304h 0.181345v 2.40277h 0.181345v -1.21306h 0.181345v -0.43075h 0.181345v -0.210825h 0.181345v 0.568919h 0.181345v -1.04962h 0.181345v -1.23208h 0.181345v -0.964408h 0.181345v 0.414322h 0.181345v -0.588445h 0.181345v 1.13853h
 0.181345v 0.187937h 0.181345v -0.250063h 0.181345v 0.250063h 0.36269v -0.556893h 0.181345v 2.65065h 0.181345v -1.58077h 0.181345v -1.60684h 0.181345v 1.80382h 0.181345v 0.814866h 0.181345v -2.61869h 0.181345v -0.116759h 0.181345v 0.532722h 0.181345v
 0.120996h 0.181345v 0.620065h 0.181345v 0.0634396h 0.36269v 0.451751h 0.181345v -1.07439h 0.181345v -1.28513h 0.181345v -0.763976h 0.181345v 0.541699h 0.181345v -2.20206h 0.181345v 0.19174h 0.181345v -1.4694h 0.181345v 0.0438057h 0.181345v
 -0.601938h 0.181345v -1.59762h 0.181345v -1.1659h 0.181345v -0.104797h 0.181345v -2.49567h 0.181345v -1.51282h 0.181345v -0.626321h 0.181345v 0.128345h 0.181345v -1.18901h 0.181345v -1.49479h 0.181345v 0.151661h 0.36269v -0.764131h 0.181345v
 -1.66332h 0.181345v 1.21481h 0.181345v -0.629332h 0.181345v 0.291716h 0.181345v 2.10477h 0.181345v 0.0452593h 0.181345v -1.17649h 0.181345v -0.0835848h 0.181345v 2.48745h 0.181345v 0.148305h 0.181345v 1.87622h 0.181345v 0.113021h 0.181345v 0.578239h
 0.181345v 2.3916h 0.181345v 0.926873h 0.181345v 1.91961h 0.181345v -0.452813h 0.181345v 2.51007h 0.181345v 2.21723h 0.181345v 0.975711h 0.181345v 2.23393h 0.181345v 0.704516h 0.181345v -0.356393h 0.181345v 1.32469h 0.181345v 2.78169h 0.181345v
 0.375105h 0.181345v -0.559199h 0.181345v 2.48146h 0.181345v -1.14268h 0.181345v -1.06178h 0.181345v 3.32464h 0.181345v -2.55997h 0.181345v -0.291338h 0.181345v 0.291338h 0.181345v 0.805747h 0.181345v 0.634042h 0.181345v 2.33079h 0.181345v -2.65116h
 0.181345v 0.537815h 0.181345v 3.99122h 0.181345v -4.94583h 0.181345v -0.405523h 0.181345v 3.09992h 0.181345v -2.48745h 0.181345v 0.857573h 0.181345v 1.26541h 0.181345v 1.12111h 0.181345v -0.756636h 0.181345v 1.41769h 0.181345v -1.90171h 0.181345v
 -1.25577h 0.181345v 2.88956h 0.181345v -0.521911h 0.181345v -1.34815h 0.181345v 0.47634h 0.181345v 0.121486h 0.181345v -0.830442h 0.36269v -0.114969h 0.181345v 1.95443h 0.181345v 0.39659h 0.181345v -3.34792h 0.181345v 3.89356h 0.181345v -1.20092h
 0.181345v 1.48136h 0.181345v -3.2912h 0.181345v 0.69796h 0.181345v 0.361546h 0.181345v -0.241996h 0.181345v 0.12051h 0.181345v -0.12051h 0.181345v 3.34792h 0.181345v -3.70375h 0.181345v 2.68864h 0.181345v -1.2117h 0.181345v 3.64179h 0.181345v
 -3.77058h 0.181345v 0.521911h 0.181345v -1.14976h 0.181345v 0.373549h 0.181345v 0.776213h 0.181345v 1.98447h 0.181345v -0.88281h 0.36269v -2.3739h 0.181345v 3.56292h 0.181345v -3.31695h 0.181345v 2.27152h 0.181345v -2.63896h 0.181345v 0.121486h
 0.181345v 3.56292h 0.181345v -3.56292h 0.181345v 3.25671h 0.181345v -1.71655h 0.181345v -2.13799h 0.181345v 0.355829h 0.181345v 3.49871h 0.181345v -3.01075h 0.181345v 1.70528h 0.181345v -1.20092h 0.181345v 0.655276h 0.181345v -1.52709h 0.181345v
 1.39373h 0.181345v -0.263225h 0.181345v -0.763051h 0.181345v -0.245963h 0.181345v 0.879114h 0.181345v -0.63315h 0.181345v 1.15964h 0.181345v -1.76715h 0.181345v -1.89888h 0.181345v 1.89888h 0.181345v 0.60751h 0.181345v 0.376675h 0.181345v -1.22046h
 0.181345v 0.47634h 0.181345v 0.49196h 0.181345v -3.64503h 0.181345v 1.54812h 0.181345v -0.947901h 0.181345v -0.202752h 0.181345v -0.299082h 0.181345v -1.04829h 0.181345v -0.273627h 0.181345v -1.21481h 0.181345v -2.52561h 0.181345v 1.63566h 0.181345v
 -1.9148h 0.181345v -1.75947h 0.181345v -0.720303h 0.181345v -1.18287h 0.181345v -1.44475h 0.181345v -1.36275h 0.181345v -1.20782h 0.181345v -0.569304h 0.181345v -1.90836h 0.181345v -0.619496h 0.181345v 0.306551h 0.181345v -1.65971h 0.181345v
 -1.93395h 0.181345v -0.0810269h 0.181345v -1.01536h 0.181345v 0.382436h 0.181345v -0.877644h 0.181345v 0.0732472h 0.181345v -0.902377h 0.181345v -0.114793h 0.181345v -0.0684569h 0.181345v -1.32822h 0.181345v 2.3406h 0.181345v 0.295159h 0.181345v
 -0.148305h 0.181345v 0.860467h 0.181345v 0.0521859h 0.181345v 0.263688h 0.181345v 2.38835h 0.181345v -0.0311598h 0.181345v 2.03013h 0.181345v 0.730238h 0.181345v 1.53511h 0.181345v 1.80346h 0.181345v 0.669054h 0.181345v 1.92683h 0.181345v 1.64264h
 0.181345v 3.47243h 0.181345v -0.385714h 0.181345v 1.60618h 0.181345v 2.68468h 0.181345v 3.14653h 0.181345v 0.50864h 0.181345v -0.63315h 0.181345v 3.47243h 0.181345v 1.65039h 0.181345v 0.532722h 0.181345v 2.77165h 0.181345v -2.03059h 0.181345v
 -1.0983h 0.181345v 5.2258h 0.181345v 1.58077h 0.181345v -3.89356h 0.181345v 5.35135h 0.181345v -2.7864h 0.181345v 1.32861h 0.181345v 1.15468h 0.181345v -1.42998h 0.181345v -2.96107h 0.181345v 7.3685h 0.181345v -6.91381h 0.181345v 1.70956h 0.181345v
 4.48967h 0.181345v 0.714584h 0.181345v -7.14288h 0.181345v 3.57698h 0.181345v -1.11187h 0.181345v 5.04824h 0.181345v -6.33137h 0.181345v 3.59592h 0.181345v 0.638541h 0.181345v -1.25101h 0.181345v -4.39105h 0.181345v -0.441309h 0.181345v 5.44483h
 0.181345v -3.09576h 0.181345v 2.48329h 0.181345v -1.42998h 0.181345v 4.40743h 0.181345v -4.67777h 0.36269v 1.70032h 0.181345v -2.48329h 0.181345v 1.60905h 0.181345v 0.577126h 0.181345v -0.577126h 0.181345v 4.60201h 0.181345v -2.79943h 0.181345v
 0.322667h 0.181345v -1.83946h 0.181345v 0.588445h 0.181345v -1.70032h 0.181345v -0.782966h 0.181345v 2.18618h 0.181345v -0.857573h 0.181345v 3.77058h 0.181345v -4.84271h 0.181345v -0.756636h 0.181345v -2.89853h 0.181345v 4.18166h 0.181345v 1.70032h
 0.181345v -0.588445h 0.181345v -2.147h 0.181345v 0.769576h 0.181345v -0.769576h 0.181345v 0.769576h 0.181345v 0.265554h 0.181345v -1.28313h 0.181345v 1.82877h 0.181345v -1.07213h 0.181345v 0.260936h 0.181345v -0.260936h 0.181345v -2.16424h 0.181345v
 1.16364h 0.181345v 0.744125h 0.181345v 2.7864h 0.181345v -6.5852h 0.181345v 4.85211h 0.181345v 2.35832h 0.181345v -2.62866h 0.181345v 3.28109h 0.181345v -6.62901h 0.181345v 8.77601h 0.181345v -6.21106h 0.181345v 2.48329h 0.181345v 3.34792h 0.181345v
 -6.57533h 0.181345v 3.53052h 0.181345v -2.52992h 0.181345v 2.22681h 0.181345v -3.70375h 0.181345v 2.27377h 0.181345v -0.27034h 0.181345v 3.61826h 0.181345v -5.38541h 0.181345v 7.19524h 0.181345v -3.42466h 0.181345v -1.45779h 0.181345v 1.45779h
 0.181345v -1.73309h 0.181345v -0.79683h 0.181345v 3.80758h 0.181345v -1.58077h 0.181345v -1.15468h 0.181345v 3.77058h 0.181345v -1.36489h 0.181345v -4.71848h 0.181345v 5.04824h 0.181345v -3.28109h 0.181345v 1.40321h 0.181345v 0.909578h 0.181345v
 -2.04245h 0.181345v 1.73309h 0.181345v 1.61483h 0.181345v -1.91794h 0.181345v -0.297107h 0.181345v -0.577126h 0.181345v 0.285788h 0.181345v -1.37743h 0.181345v 0.265554h 0.181345v -0.52649h 0.181345v -0.50864h 0.181345v 0.769576h 0.181345v 2.26898h
 0.181345v -1.17734h 0.181345v -3.06213h 0.181345v 4.54884h 0.181345v -2.04245h 0.181345v 3.69284h 0.181345v 0.353038h 0.181345v -1.03513h 0.36269v -3.28109h 0.181345v 4.67777h 0.181345v -0.361546h 0.181345v -1.68756h 0.181345v 4.00035h 0.181345v
 -6.08337h 0.181345v 0.857573h 0.181345v 0.600218h 0.181345v 3.42466h 0.181345v -5.95458h 0.544034v 0.79683h 0.181345v 5.15775h 0.181345v -3.42466h 0.181345v -1.45779h 0.181345v 1.45779h 0.181345v 3.04481h 0.181345v -4.22215h 0.181345v 4.99173h
 0.181345v -3.50503h 0.181345v 0.638541h 0.181345v 4.53525h 0.181345v -0.434913h 0.181345v -6.78133h 0.181345v 1.13287h 0.181345v 3.27455h 0.181345v 5.72182h 0.181345v -4.18166h 0.181345v -0.400115h 0.181345v 6.89456h 0.181345v -8.39616h 0.181345v
 2.31279h 0.181345v -3.34792h 0.181345v 0.33717h 0.181345v 2.19956h 0.181345v 3.54664h 0.181345v -4.68669h 0.181345v 10.7701h 0.181345v -5.57473h 0.181345v -1.93862h 0.181345v -5.30582h 0.181345v 6.24384h 0.181345v -0.47634h 0.181345v 2.00343h
 0.181345v -3.34792h 0.181345v -2.00343h 0.181345v 3.34792h 0.181345v 3.1153h 0.181345v -5.69365h 0.181345v 3.05468h 0.181345v 1.0006h 0.181345v -1.47694h 0.181345v 1.47694h 0.181345v -4.82486h 0.181345v 3.82426h 0.181345v -2.65457h 0.181345v
 1.26865h 0.181345v 2.38652h 0.181345v -1.93862h 0.181345v 1.93862h 0.181345v -2.82143h 0.181345v 7.66414h 0.181345v 0.73202h 0.181345v 2.43834h 0.181345v -3.17036h 0.181345v -3.77058h 0.181345v -3.01075h 0.181345v 4.7779h 0.181345v 1.30547h
 0.181345v 4.7779h 0.181345v -9.43129h 0.181345v 3.34792h 0.181345v 3.50503h 0.181345v -0.769576h 0.181345v -3.93637h 0.181345v 1.83946h 0.181345v 11.0665h 0.181345v -9.70163h 0.181345v -1.36489h 0.181345v 2.09691h 0.181345v -8.39616h 0.181345v
 9.16574h 0.181345v 0.811194h 0.181345v -2.31279h 0.181345v -3.77058h 0.181345v 6.94094h 0.181345v -4.53525h 0.181345v 3.67768h 0.181345v -1.58077h 0.36269v -0.73202h 0.181345v 2.31279h 0.181345v -3.67768h 0.181345v 5.44483h 0.181345v -0.909578h
 0.181345v -0.857573h 0.181345v -2.31279h 0.181345v 3.17036h 0.181345v 0.909578h 0.181345v -2.57834h 0.181345v 8.20003h 0.181345v -1.30547h 0.181345v -4.31622h 0.181345v -2.57834h 0.181345v 2.57834h 0.181345v -0.909578h 0.181345v -1.66877h 0.181345v
 4.58177h 0.181345v 3.61826h 0.181345v -3.61826h 0.181345v -4.58177h 0.181345v -1.5016h 0.181345v 18.7957h 0.181345v -13.7475h 0.181345v 2.147h 0.181345v 3.93637h 0.181345v -7.05167h 0.181345v 3.1153h 0.181345v -3.1153h 0.181345v -3.34792h 0.181345v
 10.3996h 0.181345v -7.05167h 0.181345v 3.1153h 0.36269v -5.69365h 0.181345v 3.54664h 0.36269v -5.04824h 0.181345v 0.73202h 0.181345v -3.34792h 0.181345v -2.73545h 0.181345v 2.147h 0.181345v 4.70594h 0.181345v 1.66877h 0.181345v -9.01367h 0.181345v
 9.01367h 0.181345v -9.49001h 0.181345v 2.00343h 0.181345v -1.03513h 0.181345v 2.147h 0.181345v 2.50639h 0.36269v -5.62169h 0.181345v -1.76715h 0.181345v 1.30547h 0.544034v 5.41644h 0.181345v -7.92283h 0.181345v 3.44441h 0.181345v 0.49196h 0.181345v
 -1.87788h 0.181345v 0.447897h 0.181345v -3.9713h 0.181345v 4.90932h 0.181345v 0.49196h 0.181345v 2.73545h 0.181345v -3.22741h 0.181345v 1.52709h 0.181345v -0.52649h 0.181345v -2.82143h 0.181345v 2.82143h 0.181345v -3.65517h 0.181345v 1.26865h
 0.181345v 8.73082h 0.181345v -5.27218h 0.181345v -5.89699h 0.181345v 1.16969h 0.181345v 5.29353h 0.181345v -1.63836h 0.181345v 0.52649h 0.181345v -0.52649h 0.181345v -4.05528h 0.181345v 0.811194h 0.181345v -1.95124h 0.181345v -2.97745h 0.181345v
 2.26286h 0.181345v -2.55997h 0.181345v 0.297107h 0.181345v 0.61247h 0.181345v 0.638541h 0.181345v -2.95133h 0.181345v -2.46511h 0.181345v -1.09563h 0.181345v 1.55731h 0.181345v -1.9741h 0.181345v -4.72174h 0.181345v 0.928344h 0.181345v -2.62866h
 0.181345v 3.1153h 0.181345v -3.1153h 0.181345v -0.52649h 0.181345v -2.92822h 0.181345v 0.214338h 0.181345v -0.425658h 0.181345v -1.01413h 0.181345v -1.04167h 0.181345v 2.58978h 0.181345v -2.49802h 0.181345v -0.453311h 0.181345v 0.826086h 0.181345v
 -1.17912h 0.181345v -0.259432h 0.181345v -1.31261h 0.181345v -0.690817h 0.181345v 0.928344h 0.181345v 0.0800185h 0.181345v -2.30132h 0.181345v 1.21813h 0.181345v -1.14915h 0.181345v 1.75851h 0.181345v -1.54964h 0.181345v 0.426667h 0.181345v
 -1.04474h 0.181345v 1.55836h 0.181345v -3.15258h 0.181345v 0.744125h 0.181345v 1.39823h 0.181345v -0.814866h 0.181345v 0.0662404h 0.181345v 0.472057h 0.181345v -2.45888h 0.181345v 0.898678h 0.181345v -1.01454h 0.181345v 0.350291h 0.181345v 0.976178h
 0.181345v -0.976178h 0.181345v 0.664245h 0.181345v -0.664245h 0.181345v -0.579355h 0.181345v 1.61871h 0.181345v 0.127149h 0.181345v -2.08302h 0.181345v 0.975711h 0.181345v 2.02887h 0.181345v -0.663977h 0.181345v 2.61899h 0.181345v -2.29068h
 0.181345v 1.17328h 0.181345v 0.437024h 0.181345v -0.650854h 0.181345v 5.29081h 0.181345v 2.04665h 0.181345v -2.04665h 0.181345v 0.721954h 0.181345v 2.90546h 0.181345v 2.50639h 0.181345v -2.11666h 0.181345v 0.811194h 0.181345v 5.67229h 0.181345v
 -0.980966h 0.181345v 1.60189h 0.36269v -0.209842h 0.181345v 4.88245h 0.181345v 0.891556h 0.181345v 3.42466h 0.181345v -3.42466h 0.181345v 5.48315h 0.181345v 2.38652h 0.181345v -1.47694h 0.181345v 3.1153h 0.36269v 0.588445h 0.181345v 11.0121h
 0.36269v -6.08337h 0.181345v 3.77058h 0.181345v -2.91301h 0.181345v 9.54202h 0.181345v -5.51714h 0.181345v -3.1153h 0.181345v 14.7158h 0.181345v -7.66414h 0.181345v 10.3996h 0.181345v -5.04824h 0.181345v 12.7124h 0.181345v -12.7124h 0.181345v
 -2.00343h 0.181345v 7.05167h 0.181345v -5.04824h 0.181345v 12.7124h 0.181345v -22.0001h 0.181345v 17.6839h 0.181345v 4.31622h 0.181345v -10.3996h 0.181345v 6.08337h 0.36269v 4.31622h 0.181345v -10.3996h 0.181345v -2.31279h 0.181345v 2.31279h
 0.181345v 10.3996h 0.181345v -4.31622h 0.181345v -3.34792h 0.181345v -7.05167h 0.181345v 2.00343h 0.181345v 5.04824h 0.36269v -8.81882h 0.181345v 8.81882h 0.36269v 13.7475h 0.181345v -16.483h 0.181345v 10.3996h 0.36269v -4.31622h 0.181345v -6.08337h
 0.181345v 16.483h 0.181345v -13.7475h 0.181345v 13.7475h 0.181345v -10.3996h 0.725379v -6.08337h 0.181345v 6.08337h 0.36269v -8.39616h 0.544034v 18.7957h 0.181345v -16.483h 0.181345v 16.483h 0.181345v -20.7992h 0.181345v 10.3996h 0.36269v 20.7992h
 0.181345v -26.8825h 0.181345v -2.31279h 0.181345v 5.04824h 0.181345v 3.34792h 0.181345v 10.3996h 0.181345v -6.08337h 0.181345v -4.31622h 0.181345v -3.34792h 0.181345v -5.04824h 0.181345v 2.31279h 0.181345v 10.3996h 0.181345v -16.483h 0.181345v
 6.08337h 0.181345v 6.08337h 0.181345v -12.1667h 0.36269v 1.76715h 0.181345v 14.7158h 0.181345v -7.66414h 0.181345v -15.4478h 0.181345v 3.61826h 0.181345v 15.1775h 0.181345v -15.1775h 0.181345v 9.09412h 0.181345v -10.3996h 0.181345v 2.73545h 0.36269v
 -1.42998h 0.36269v -4.65339h 0.181345v 3.34792h 0.181345v -7.66414h 0.181345v 1.58077h 0.181345v 2.73545h 0.181345v -0.9683h 0.181345v -0.909578h 0.36269v 9.54202h 0.181345v -9.54202h 0.181345v 4.02488h 0.181345v -5.69365h 0.181345v 6.89456h
 0.181345v -3.34792h 0.36269v -2.73545h 0.181345v 4.88245h 0.181345v 1.20092h 0.181345v -6.89456h 0.181345v 1.66877h 0.181345v 1.87788h 0.181345v -2.73545h 0.181345v 2.73545h 0.181345v 7.66414h 0.181345v 1.76715h 0.181345v -1.76715h 0.181345v
 1.76715h 0.181345v 2.00343h 0.181345v 2.31279h 0.181345v -7.66414h 0.36269v 1.58077h 0.181345v 8.81882h 0.181345v -5.04824h 0.181345v 2.31279h 0.181345v 6.08337h 0.181345v -12.1667h 0.181345v 12.1667h 0.181345v -8.39616h 0.36269v 18.7957h 0.181345v
 -10.3996h 0.181345v -13.7475h 0.181345v 13.7475h 0.181345v -13.7475h 0.181345v 5.35135h 0.181345v 5.04824h 0.181345v 34.5467h 0.181345v -37.2821h 0.181345v 6.08337h 0.181345v -3.34792h 0.181345v 24.1471h 0.181345v -29.1953h 0.181345v 18.7957h
 0.181345v -10.3996h 0.181345v -6.08337h 0.181345v 26.8825h 0.36269v -26.8825h 0.181345v -4.31622h 0.181345v 31.1988h 0.181345v -20.7992h 0.181345v 4.31622h 0.181345v -7.66414h 0.181345v 13.7475h 0.36269v -6.08337h 0.181345v 6.08337h 0.181345v
 -10.3996h 0.36269v 4.31622h 0.181345v -4.31622h 0.181345v 4.31622h 0.181345v -7.66414h 0.181345v 13.7475h 0.36269v -10.3996h 0.181345v -3.34792h 0.181345v 3.34792h 0.181345v 4.31622h 0.181345v -14.7158h 0.181345v 10.3996h 0.181345v -12.1667h
 0.181345v 8.81882h 0.181345v -7.05167h 0.181345v 10.3996h 0.181345v 20.7992h 0.181345v -24.1471h 0.181345v 24.1471h 0.181345v -20.7992h 0.181345v 4.31622h 0.181345v 16.483h 0.181345v -16.483h 0.181345v -10.3996h 0.181345v 2.73545h 0.181345v
 -10.3996h 0.181345v 18.0637h 0.544034v -10.3996h 0.181345v -7.66414h 0.181345v 13.7475h 0.181345v -8.39616h 0.181345v 8.39616h 0.181345v -3.34792h 0.181345v -2.73545h 0.181345v 2.73545h 0.181345v -7.05167h 0.181345v -3.34792h 0.36269v 7.66414h
 0.36269v 6.08337h 0.181345v -13.7475h 0.181345v -2.73545h 0.181345v 4.31622h 0.181345v 6.08337h 0.181345v -2.31279h 0.181345v 12.7124h 0.181345v -14.7158h 0.181345v 2.00343h 0.181345v -2.00343h 0.181345v 4.31622h 0.181345v 6.08337h 0.181345v
 -18.7957h 0.181345v 10.3996h 0.181345v -10.3996h 0.181345v 6.62901h 0.181345v 6.08337h 0.181345v 2.73545h 0.36269v -8.81882h 0.181345v -4.31622h 0.181345v 13.135h 0.181345v -7.05167h 0.181345v 7.05167h 0.181345v 7.66414h 0.181345v 16.483h 0.181345v
 -20.7992h 0.181345v -3.34792h 0.181345v 7.66414h 0.181345v -16.483h 0.181345v 12.1667h 0.181345v -8.39616h 0.181345v 12.7124h 0.181345v -7.66414h 0.181345v -5.04824h 0.181345v 8.39616h 0.36269v -6.08337h 0.181345v 6.08337h 0.181345v -6.08337h
 0.181345v -2.31279h 0.181345v -3.77058h 0.181345v 8.81882h 0.36269v 3.34792h 0.36269v 4.31622h 0.181345v -14.7158h 0.181345v -3.34792h 0.181345v 7.66414h 0.181345v -4.31622h 0.181345v 7.05167h 0.181345v -5.04824h 0.181345v 2.31279h 0.181345v
 26.8825h 0.181345v -29.1953h 0.181345v 5.04824h 0.181345v -10.3996h 0.181345v 7.66414h 0.36269v 2.73545h 0.181345v -8.81882h 0.181345v 1.76715h 0.181345v -3.34792h 0.544034v 5.35135h 0.181345v 2.31279h 0.181345v -6.08337h 0.181345v 3.77058h
 0.181345v 5.04824h 0.181345v -2.73545h 0.181345v -11.6005h 0.181345v 5.51714h 0.181345v -3.01075h 0.181345v 9.09412h 0.181345v -4.31622h 0.181345v 2.00343h 0.181345v 5.04824h 0.181345v -10.3996h 0.181345v 1.58077h 0.181345v 16.483h 0.181345v
 6.08337h 0.181345v -18.7957h 0.181345v 8.39616h 0.181345v -12.1667h 0.181345v 12.1667h 0.181345v -3.34792h 0.181345v -10.3996h 0.544034v 5.35135h 0.181345v -5.35135h 0.181345v 1.58077h 0.181345v 1.76715h 0.181345v -8.39616h 0.181345v -2.00343h
 0.181345v 7.05167h 0.181345v 3.34792h 0.181345v 4.31622h 0.181345v -9.09412h 0.181345v -4.65339h 0.181345v 7.66414h 0.181345v 6.08337h 0.181345v -6.08337h 0.36269v -3.01075h 0.181345v 4.7779h 0.181345v -7.28429h 0.181345v 3.93637h 0.181345v
 -3.93637h 0.181345v -4.88245h 0.181345v 7.38884h 0.181345v -1.30547h 0.181345v 1.30547h 0.181345v 1.42998h 0.181345v 3.34792h 0.181345v -4.7779h 0.181345v -3.61826h 0.181345v -6.78133h 0.181345v 11.8296h 0.181345v -6.08337h 0.181345v -0.9683h
 0.181345v 3.1153h 0.181345v -2.147h 0.181345v 3.34792h 0.181345v -6.08337h 0.181345v 6.08337h 0.181345v 2.73545h 0.181345v -14.336h 0.181345v 19.6873h 0.181345v -9.28772h 0.181345v 1.20092h 0.181345v 6.08337h 0.181345v -1.76715h 0.181345v -4.31622h
 0.36269v -5.2258h 0.181345v 1.87788h 0.181345v 6.08337h 0.181345v -7.05167h 0.181345v 3.1153h 0.181345v -4.88245h 0.181345v 2.73545h 0.181345v 2.147h 0.181345v 3.93637h 0.181345v -2.73545h 0.181345v -6.89456h 0.181345v 8.20003h 0.181345v -2.50639h
 0.36269v 7.28429h 0.181345v -7.28429h 0.181345v -5.69365h 0.181345v 4.58177h 0.181345v 2.31279h 0.181345v -2.31279h 0.181345v -4.58177h 0.181345v 6.89456h 0.181345v -3.34792h 0.36269v -3.54664h 0.181345v 5.69365h 0.181345v -8.56013h 0.36269v
 2.86649h 0.181345v 0.811194h 0.181345v 4.88245h 0.181345v -4.88245h 0.181345v 0.857573h 0.181345v 6.53127h 0.181345v -4.65339h 0.181345v -4.31622h 0.181345v 8.96961h 0.181345v -9.70163h 0.181345v -3.77058h 0.181345v 6.08337h 0.181345v 4.88245h
 0.181345v -7.19524h 0.181345v 7.19524h 0.181345v -4.02488h 0.181345v -2.43834h 0.181345v 8.96961h 0.181345v -10.3996h 0.181345v 11.8296h 0.181345v -1.42998h 0.181345v -3.61826h 0.181345v -2.91301h 0.181345v -9.01367h 0.181345v 9.01367h 0.181345v
 -3.86832h 0.181345v 4.7779h 0.181345v -6.08337h 0.181345v 6.08337h 0.181345v -2.57834h 0.36269v -5.27218h 0.181345v 2.40569h 0.181345v -0.638541h 0.181345v 8.0868h 0.181345v -8.69927h 0.181345v 3.34792h 0.181345v 0.769576h 0.181345v 0.811194h
 0.181345v -3.67768h 0.181345v 2.09691h 0.181345v -1.42998h 0.181345v 0.69796h 0.181345v 5.04824h 0.181345v -0.9683h 0.181345v -3.34792h 0.181345v -6.57533h 0.181345v 4.47842h 0.181345v -0.638541h 0.181345v 2.00343h 0.181345v -5.35135h 0.181345v
 4.65339h 0.181345v -6.08337h 0.181345v 5.41644h 0.181345v -3.47782h 0.181345v 4.84271h 0.181345v -2.6159h 0.181345v -2.22681h 0.181345v -3.65517h 0.181345v 5.88198h 0.36269v -2.73545h 0.181345v 9.43129h 0.181345v -2.57834h 0.181345v -7.82125h
 0.181345v 3.1153h 0.181345v -5.29353h 0.181345v -1.16969h 0.181345v 10.3996h 0.181345v -3.34792h 0.181345v -5.4709h 0.181345v 4.88245h 0.181345v -4.88245h 0.181345v 6.08337h 0.181345v -5.66071h 0.181345v 3.34792h 0.181345v -5.72182h 0.181345v
 3.25671h 0.181345v 7.51335h 0.181345v -7.96125h 0.181345v 5.86434h 0.181345v -3.47782h 0.181345v 1.63836h 0.181345v -2.147h 0.181345v 3.34792h 0.181345v 4.31622h 0.181345v -0.811194h 0.181345v -2.86649h 0.181345v 7.44826h 0.181345v -6.08337h
 0.181345v -1.36489h 0.181345v 2.86649h 0.181345v 1.66877h 0.181345v -1.66877h 0.181345v 1.66877h 0.181345v 1.87788h 0.181345v 1.03513h 0.181345v -3.77058h 0.181345v -0.811194h 0.181345v 2.57834h 0.181345v 4.31622h 0.181345v -6.08337h 0.181345v
 1.76715h 0.181345v -1.76715h 0.181345v 6.08337h 0.181345v -9.76105h 0.181345v 8.56013h 0.181345v -3.1153h 0.181345v -6.08337h 0.181345v 5.17379h 0.181345v 2.91301h 0.181345v 3.61826h 0.181345v -1.30547h 0.181345v -2.31279h 0.181345v -10.3996h
 0.181345v 11.5115h 0.181345v -4.88245h 0.181345v 6.08337h 0.181345v -2.31279h 0.181345v -5.35135h 0.181345v 5.35135h 0.181345v -2.91301h 0.181345v 1.87788h 0.181345v -4.31622h 0.181345v 0.769576h 0.181345v 5.69365h 0.181345v -2.147h 0.36269v
 -1.87788h 0.181345v -3.17036h 0.181345v -0.69796h 0.181345v 17.1809h 0.181345v -17.8478h 0.181345v 7.44826h 0.181345v 2.31279h 0.181345v -4.31622h 0.181345v 5.62169h 0.181345v -2.50639h 0.36269v -4.02488h 0.181345v 7.96125h 0.181345v -8.81882h
 0.181345v 0.857573h 0.181345v 2.91301h 0.36269v -4.58177h 0.181345v 2.57834h 0.181345v 2.00343h 0.181345v -1.03513h 0.181345v -3.54664h 0.181345v 1.66877h 0.181345v 1.87788h 0.181345v -1.87788h 0.181345v -0.857573h 0.181345v 3.77058h 0.181345v
 -3.77058h 0.181345v 2.73545h 0.181345v 3.34792h 0.181345v -1.20092h 0.181345v -2.147h 0.181345v -3.54664h 0.181345v 3.54664h 0.181345v 7.66414h 0.181345v -7.66414h 0.181345v -8.81882h 0.181345v 9.85395h 0.181345v -9.85395h 0.181345v 8.81882h
 0.181345v -3.54664h 0.181345v 3.54664h 0.36269v -2.73545h 0.181345v 10.3996h 0.181345v -4.31622h 0.181345v -5.2258h 0.181345v -0.857573h 0.181345v 2.73545h 0.36269v -5.7462h 0.181345v 11.8296h 0.181345v -12.4965h 0.181345v -5.86434h 0.181345v
 10.3996h 0.181345v 5.2258h 0.181345v -2.31279h 0.181345v -8.0868h 0.181345v 6.08337h 0.36269v -2.57834h 0.36269v -5.27218h 0.181345v 4.5026h 0.181345v -2.73545h 0.181345v -2.83928h 0.181345v 0.52649h 0.181345v 4.31622h 0.36269v 9.70163h 0.181345v
 -10.3996h 0.181345v 1.42998h 0.181345v 4.31622h 0.181345v -2.73545h 0.181345v -4.31622h 0.181345v 5.17379h 0.181345v -5.17379h 0.181345v -2.83928h 0.181345v 12.038h 0.181345v -9.19867h 0.181345v 2.00343h 0.181345v 1.5016h 0.181345v -2.19956h
 0.181345v 7.8932h 0.181345v -4.88245h 0.181345v -2.31279h 0.181345v -0.69796h 0.181345v 9.09412h 0.181345v -9.76105h 0.36269v 5.44483h 0.181345v -1.76715h 0.181345v -0.811194h 0.36269v 1.66877h 0.181345v -2.43834h 0.181345v -0.73202h 0.181345v
 -2.6159h 0.181345v 5.78626h 0.181345v 4.02488h 0.181345v -1.11187h 0.181345v -9.28772h 0.181345v 5.51714h 0.36269v 4.88245h 0.181345v -6.46322h 0.181345v 1.58077h 0.181345v -0.811194h 0.181345v -2.86649h 0.181345v -2.40569h 0.181345v 3.77058h
 0.181345v 3.17036h 0.181345v -3.17036h 0.181345v 4.07994h 0.181345v -3.34792h 0.181345v 2.43834h 0.181345v -3.17036h 0.181345v -0.69796h 0.181345v 2.19956h 0.181345v -6.85295h 0.181345v 6.08337h 0.181345v 1.58077h 0.181345v -2.31279h 0.36269v
 -3.20435h 0.181345v 0.588445h 0.181345v 3.34792h 0.181345v 2.43834h 0.181345v -2.43834h 0.181345v 4.31622h 0.181345v -9.89095h 0.181345v 2.83928h 0.181345v -1.76715h 0.181345v 3.07262h 0.181345v -2.50639h 0.181345v -2.63896h 0.181345v 3.83988h
 0.181345v 6.08337h 0.181345v -8.39616h 0.181345v 10.3996h 0.181345v -6.78133h 0.181345v 4.7779h 0.181345v -9.43129h 0.181345v -0.49196h 0.181345v 4.47842h 0.36269v 1.36489h 0.181345v -2.00343h 0.181345v 2.00343h 0.181345v -3.20435h 0.181345v
 4.70594h 0.36269v -4.1175h 0.181345v 9.81114h 0.181345v -9.81114h 0.181345v -2.22681h 0.181345v -0.50864h 0.181345v -0.49196h 0.181345v 0.49196h 0.181345v 6.85295h 0.181345v -2.19956h 0.181345v -0.666929h 0.36269v -1.83946h 0.36269v 3.93637h
 0.181345v 0.769576h 0.181345v 2.57834h 0.181345v -4.07994h 0.181345v 3.17036h 0.181345v 1.87788h 0.181345v -1.87788h 0.181345v -3.86832h 0.181345v -1.30547h 0.181345v 2.00343h 0.181345v 4.07994h 0.181345v 5.62169h 0.181345v -15.053h 0.181345v
 6.85295h 0.181345v 9.63001h 0.181345v -5.04824h 0.181345v -1.03513h 0.181345v -4.31622h 0.181345v 3.34792h 0.181345v 2.00343h 0.181345v -3.77058h 0.181345v 0.857573h 0.181345v -0.857573h 0.181345v 7.38884h 0.181345v -7.38884h 0.181345v 3.77058h
 0.181345v 1.11187h 0.181345v -1.11187h 0.181345v -2.91301h 0.181345v -3.86832h 0.181345v 2.19956h 0.181345v -3.50503h 0.181345v 8.0868h 0.181345v -4.58177h 0.181345v 3.54664h 0.181345v 6.08337h 0.181345v -9.63001h 0.181345v 5.69365h 0.181345v
 -4.88245h 0.181345v -3.01075h 0.181345v 4.7779h 0.36269v -1.76715h 0.181345v -0.811194h 0.181345v -2.86649h 0.181345v 4.53525h 0.181345v 1.87788h 0.181345v -3.54664h 0.181345v -4.1175h 0.181345v 8.69927h 0.181345v 5.04824h 0.181345v -3.93637h
 0.181345v -5.69365h 0.181345v -1.5016h 0.181345v 9.70163h 0.181345v -9.70163h 0.36269v 4.07994h 0.181345v -2.57834h 0.181345v 5.69365h 0.181345v -6.46322h 0.181345v 4.31622h 0.181345v -3.54664h 0.181345v 4.58177h 0.181345v -6.08337h 0.181345v
 7.19524h 0.181345v -2.147h 0.181345v -2.73545h 0.181345v 3.77058h 0.181345v -6.78133h 0.181345v 9.09412h 0.181345v -1.20092h 0.36269v 1.20092h 0.181345v -1.20092h 0.181345v -7.8932h 0.181345v 4.7779h 0.181345v 8.63244h 0.181345v -6.62901h 0.181345v
 3.61826h 0.181345v 3.01075h 0.36269v -4.31622h 0.181345v -3.34792h 0.181345v 7.66414h 0.181345v -8.63244h 0.181345v 2.00343h 0.181345v 1.11187h 0.181345v 2.50639h 0.181345v 3.01075h 0.181345v 3.77058h 0.181345v -11.4347h 0.181345v 11.4347h 0.181345v
 5.04824h 0.181345v -8.81882h 0.181345v -7.66414h 0.181345v 6.08337h 0.181345v -3.93637h 0.181345v 11.6005h 0.181345v -2.31279h 0.181345v -9.28772h 0.181345v 7.28429h 0.181345v -1.76715h 0.544034v -1.58077h 0.544034v 1.58077h 0.181345v -5.51714h
 0.181345v 11.6005h 0.181345v -9.09412h 0.181345v 11.8296h 0.181345v -8.81882h 0.181345v 12.1667h 0.181345v -6.08337h 0.181345v -7.66414h 0.181345v -6.08337h 0.181345v 13.7475h 0.181345v -4.31622h 0.181345v 2.00343h 0.181345v 8.39616h 0.181345v
 -8.39616h 0.181345v 2.31279h 0.181345v 10.3996h 0.181345v -14.7158h 0.181345v -6.08337h 0.181345v 1.30547h 0.181345v -2.50639h 0.181345v 7.28429h 0.181345v -3.34792h 0.181345v -2.73545h 0.181345v 8.0868h 0.181345v -9.28772h 0.181345v 7.28429h
 0.181345v -9.43129h 0.181345v 16.483h 0.181345v -7.05167h 0.181345v -6.08337h 0.181345v 1.30547h 0.181345v 6.78133h 0.181345v 2.31279h 0.36269v -4.31622h 0.181345v -1.76715h 0.181345v -6.62901h 0.181345v 3.61826h 0.181345v 9.09412h 0.181345v
 -6.08337h 0.181345v 16.483h 0.181345v -22.0001h 0.181345v 5.51714h 0.181345v -5.51714h 0.181345v -2.147h 0.181345v 9.43129h 0.181345v -1.76715h 0.181345v 6.08337h 0.181345v 10.3996h 0.181345v -20.7992h 0.181345v 6.08337h 0.181345v -1.76715h
 0.181345v -3.01075h 0.181345v 9.09412h 0.181345v -11.6005h 0.181345v 1.20092h 0.181345v 1.30547h 0.181345v 1.42998h 0.181345v -2.73545h 0.181345v 2.73545h 0.181345v -1.42998h 0.181345v -6.53127h 0.181345v 13.3126h 0.181345v 2.31279h 0.36269v
 -2.31279h 0.181345v -9.28772h 0.181345v 11.6005h 0.181345v -6.08337h 0.181345v -4.31622h 0.181345v 4.31622h 0.181345v -4.31622h 0.181345v 2.73545h 0.181345v -2.73545h 0.36269v 2.73545h 0.181345v 5.35135h 0.181345v -2.00343h 0.36269v -10.3996h
 0.181345v 14.7158h 0.181345v -9.09412h 0.181345v 1.42998h 0.181345v -2.73545h 0.181345v 8.0868h 0.181345v -3.77058h 0.181345v -4.31622h 0.181345v 2.73545h 0.181345v -8.81882h 0.181345v 8.81882h 0.181345v 18.0637h 0.181345v -14.7158h 0.181345v
 -7.28429h 0.181345v 1.20092h 0.181345v 8.0868h 0.181345v -5.35135h 0.181345v -1.42998h 0.181345v -2.50639h 0.181345v -6.46322h 0.181345v 6.46322h 0.181345v 1.20092h 0.181345v 10.3996h 0.181345v -10.3996h 0.36269v 1.30547h 0.181345v 1.42998h
 0.181345v -3.93637h 0.181345v 3.93637h 0.181345v -2.73545h 0.36269v 1.30547h 0.36269v 4.7779h 0.181345v -8.39616h 0.181345v 1.11187h 0.181345v -4.88245h 0.181345v 19.2184h 0.181345v -13.135h 0.181345v -7.66414h 0.181345v 13.7475h 0.181345v -12.1667h
 0.181345v -3.01075h 0.181345v 4.7779h 0.181345v -1.76715h 0.181345v 0.857573h 0.181345v 9.54202h 0.181345v 1.76715h 0.181345v -9.43129h 0.181345v -6.41313h 0.181345v 6.41313h 0.181345v -2.73545h 0.181345v 7.38884h 0.36269v -4.65339h 0.181345v
 1.03513h 0.36269v -2.00343h 0.181345v -2.57834h 0.181345v 6.89456h 0.181345v -1.20092h 0.36269v -1.11187h 0.181345v -5.35135h 0.181345v -0.73202h 0.181345v 2.31279h 0.181345v 6.08337h 0.181345v -5.2258h 0.181345v -4.53525h 0.181345v 3.67768h
 0.181345v 1.76715h 0.181345v 0.9683h 0.36269v -1.87788h 0.181345v 6.53127h 0.181345v -2.50639h 0.181345v -4.02488h 0.181345v 0.909578h 0.181345v -4.07994h 0.181345v 4.07994h 0.36269v -6.08337h 0.181345v 8.0868h 0.181345v -6.08337h 0.181345v
 -0.69796h 0.181345v 5.7462h 0.181345v 4.65339h 0.181345v -8.96961h 0.181345v 3.34792h 0.181345v -1.76715h 0.181345v -0.811194h 0.181345v 4.58177h 0.181345v -3.77058h 0.181345v 6.08337h 0.181345v 1.30547h 0.181345v -7.38884h 0.181345v 6.08337h
 0.181345v -3.34792h 0.181345v -5.7462h 0.181345v 1.42998h 0.181345v 11.9804h 0.181345v -9.54202h 0.181345v 0.909578h 0.181345v 8.63244h 0.181345v -11.9804h 0.181345v 4.31622h 0.181345v -1.87788h 0.181345v 13.3126h 0.181345v -14.9814h 0.181345v
 17.2942h 0.181345v -10.3996h 0.181345v 4.31622h 0.181345v -4.31622h 0.181345v 2.73545h 0.181345v 5.35135h 0.181345v 2.31279h 0.181345v -9.09412h 0.544034v 9.09412h 0.181345v 6.08337h 0.36269v -13.7475h 0.181345v 5.35135h 0.181345v -2.00343h
 0.181345v -4.7779h 0.181345v 11.8296h 0.181345v -8.81882h 0.181345v 1.76715h 0.181345v 14.7158h 0.181345v -14.7158h 0.181345v 4.31622h 0.181345v -4.31622h 0.181345v 10.3996h 0.181345v 10.3996h 0.181345v -13.7475h 0.181345v 3.34792h 0.181345v
 4.31622h 0.181345v -4.31622h 0.181345v -3.34792h 0.181345v -2.73545h 0.181345v 16.483h 0.181345v 10.3996h 0.181345v -20.7992h 0.181345v -3.34792h 0.181345v 7.66414h 0.181345v 6.08337h 0.181345v -6.08337h 0.181345v 16.483h 0.181345v -20.7992h
 0.181345v 4.31622h 0.181345v -7.66414h 0.181345v 13.7475h 0.181345v -10.3996h 0.181345v 4.31622h 0.181345v -12.7124h 0.181345v 2.31279h 0.181345v 26.8825h 0.181345v 10.3996h 0.181345v -26.8825h 0.181345v -7.66414h 0.181345v 24.1471h 0.36269v
 -10.3996h 0.181345v -10.3996h 0.181345v 31.1988h 0.36269v -26.8825h 0.36269v 16.483h 0.181345v -10.3996h 0.181345v 10.3996h 0.181345v -10.3996h 0.181345v -10.3996h 0.181345v 4.31622h 0.181345v 26.8825h 0.181345v -26.8825h 0.181345v 6.08337h 0.36269v
 -6.08337h 0.181345v 16.483h 0.181345v 10.3996h 0.181345v -10.3996h 0.544034v -20.7992h 0.181345v 10.3996h 0.181345v 20.7992h 0.181345v -10.3996h 0.181345v -16.483h 0.181345v 6.08337h 0.181345v 20.7992h 0.36269v -20.7992h 0.181345v 20.7992h 0.181345v
 -20.7992h 0.181345v 20.7992h 0.36269v -20.7992h 0.181345v 20.7992h 0.181345v -31.1988h 0.181345v 4.31622h 0.181345v 16.483h 0.181345v -10.3996h 0.181345v 10.3996h 0.36269v 10.3996h 0.181345v -20.7992h 0.181345v 10.3996h 0.181345v 10.3996h 0.36269v
 -10.3996h 0.544034v -16.483h 0.181345v 26.8825h 0.181345v -10.3996h 0.181345v 10.3996h 0.544034v -20.7992h 0.181345v 10.3996h 0.544034v -10.3996h 0.181345v 10.3996h 0.36269v -16.483h 0.181345v 26.8825h 0.181345v -10.3996h 0.36269v -10.3996h
 0.181345v 20.7992h 0.181345v -20.7992h 0.181345v 20.7992h 0.544034v -26.8825h 0.181345v 26.8825h 0.725379v -20.7992h 0.36269v 10.3996h 0.181345v 10.3996h 0.181345v -10.3996h 0.181345v -10.3996h 0.181345v 10.3996h 0.181345v -10.3996h 0.181345v
 -6.08337h 0.181345v 26.8825h 0.181345v -10.3996h 0.181345v -10.3996h 0.181345v 10.3996h 0.36269v 10.3996h 0.181345v -20.7992h 0.181345v 10.3996h 0.181345v 10.3996h 0.181345v -20.7992h 0.181345v 10.3996h 0.36269v 10.3996h 0.181345v -20.7992h
 0.181345v 20.7992h 0.181345v -10.3996h 0.181345v -20.7992h 0.181345v 4.31622h 0.181345v 26.8825h 0.181345v -10.3996h 0.544034v 10.3996h 0.181345v -10.3996h 0.36269v 10.3996h 0.181345v -31.1988h 0.181345v 20.7992h 0.181345v 10.3996h 0.181345v
 -10.3996h 0.181345v 10.3996h 0.181345v -10.3996h 0.181345v -16.483h 0.181345v 16.483h 0.181345v 10.3996h 0.544034v -10.3996h 0.544034v 10.3996h 0.181345v -20.7992h 0.181345v 10.3996h 0.181345v -16.483h 0.181345v 6.08337h 0.181345v 20.7992h 0.181345v
 -10.3996h 0.181345v 10.3996h 0.544034v -10.3996h 0.181345v 10.3996h 0.36269v -20.7992h 0.36269v 20.7992h 0.181345v -10.3996h 0.181345v 10.3996h 0.906724v -10.3996h 0.181345v 10.3996h 0.181345v -20.7992h 0.181345v 20.7992h 0.181345v -20.7992h
 0.36269v 20.7992h 0.36269v -10.3996h 0.181345v 10.3996h 0.181345v -10.3996h 0.36269v -10.3996h 0.181345v 10.3996h 0.181345v -16.483h 0.181345v 26.8825h 0.181345v -20.7992h 0.181345v 20.7992h 0.36269v -34.5467h 0.181345v 24.1471h 0.181345v -10.3996h
 0.181345v 10.3996h 0.181345v 10.3996h 0.36269v -20.7992h 0.181345v 20.7992h 0.36269v -20.7992h 0.181345v 10.3996h 0.181345v 10.3996h 0.725379v -20.7992h 0.181345v 20.7992h 0.181345v -10.3996h 0.181345v 10.3996h 0.181345v -26.8825h 0.181345v 26.8825h
 0.181345v -20.7992h 0.36269v 20.7992h 0.181345v -10.3996h 0.181345v -10.3996h 0.181345v 20.7992h 0.181345v -20.7992h 0.181345v 10.3996h 0.181345v 10.3996h 0.181345v -20.7992h 0.181345v 10.3996h 0.181345v 10.3996h 0.181345v -10.3996h 0.544034v
 -10.3996h 0.181345v -6.08337h 0.181345v 6.08337h 0.181345v 20.7992h 0.36269v -10.3996h 0.181345v -16.483h 0.36269v 16.483h 0.181345v 10.3996h 0.181345" fill="none" stroke="black"/>
<path d="M57.1929,280.151h 453.543" fill="none" stroke="black"/>
<path d="M57.1929,272.68v 7.47068" fill="none" stroke="black"/>
<path d="M75.3318,276.415v 3.73534" fill="none" stroke="black"/>
<path d="M93.4707,276.415v 3.73534" fill="none" stroke="black"/>
<path d="M111.61,276.415v 3.73534" fill="none" stroke="black"/>
<path d="M129.749,276.415v 3.73534" fill="none" stroke="black"/>
<path d="M147.887,272.68v 7.47068" fill="none" stroke="black"/>
<path d="M166.026,276.415v 3.73534" fill="none" stroke="black"/>
<path d="M184.165,276.415v 3.73534" fill="none" stroke="black"/>
<path d="M202.304,276.415v 3.73534" fill="none" stroke="black"/>
<path d="M220.443,276.415v 3.73534" fill="none" stroke="black"/>
<path d="M238.582,272.68v 7.47068" fill="none" stroke="black"/>
<path d="M256.721,276.415v 3.73534" fill="none" stroke="black"/>
<path d="M274.86,276.415v 3.73534" fill="none" stroke="black"/>
<path d="M292.999,276.415v 3.73534" fill="none" stroke="black"/>
<path d="M311.138,276.415v 3.73534" fill="none" stroke="black"/>
<path d="M329.277,272.68v 7.47068" fill="none" stroke="black"/>
<path d="M347.415,276.415v 3.73534" fill="none" stroke="black"/>
<path d="M365.554,276.415v 3.73534" fill="none" stroke="black"/>
<path d="M383.693,276.415v 3.73534" fill="none" stroke="black"/>
<path d="M401.832,276.415v 3.73534" fill="none" stroke="black"/>
<path d="M419.971,272.68v 7.47068" fill="none" stroke="black"/>
<path d="M438.11,276.415v 3.73534" fill="none" stroke="black"/>
<path d="M456.249,276.415v 3.73534" fill="none" stroke="black"/>
<path d="M474.388,276.415v 3.73534" fill="none" stroke="black"/>
<path d="M492.527,276.415v 3.73534" fill="none" stroke="black"/>
<path d="M510.666,272.68v 7.47068" fill="none" stroke="black"/>
<path d="M510.666,272.68v 7.47068" fill="none" stroke="black"/>
<text xml:space="preserve" x="54.3523" y="290.27" fill="black" font-size="10.4952" font-family="Helvetica">0</text>
<text xml:space="preserve" x="139.569" y="290.27" fill="black" font-size="10.4952" font-family="Helvetica">500</text>
<text xml:space="preserve" x="227.449" y="290.27" fill="black" font-size="10.4952" font-family="Helvetica">1000</text>
<text xml:space="preserve" x="318.288" y="290.27" fill="black" font-size="10.4952" font-family="Helvetica">1500</text>
<text xml:space="preserve" x="408.831" y="290.27" fill="black" font-size="10.4952" font-family="Helvetica">2000</text>
<text xml:space="preserve" x="499.67" y="290.27" fill="black" font-size="10.4952" font-family="Helvetica">2500</text>
<text xml:space="preserve" x="265.323" y="301.218" fill="black" font-size="10.4952" font-family="Helvetica">Channel</text>
<path d="M57.1929,280.151v -249.023" fill="none" stroke="black"/>
<path d="M63.9961,280.151h -6.80315" fill="none" stroke="black"/>
<path d="M63.9961,277.415h -6.80315" fill="none" stroke="black"/>
<path d="M63.9961,275.102h -6.80315" fill="none" stroke="black"/>
<path d="M63.9961,273.099h -6.80315" fill="none" stroke="black"/>
<path d="M63.9961,271.332h -6.80315" fill="none" stroke="black"/>
<path d="M70.7992,269.751h -13.6063" fill="none" stroke="black"/>
<text xml:space="preserve" x="49.0263" y="273.404" fill="black" font-size="10.4952" font-family="Helvetica">1</text>
<path d="M63.9961,259.351h -6.80315" fill="none" stroke="black"/>
<path d="M63.9961,253.268h -6.80315" fill="none" stroke="black"/>
<path d="M63.9961,248.952h -6.80315" fill="none" stroke="black"/>
<path d="M63.9961,245.604h -6.80315" fill="none" stroke="black"/>
<path d="M63.9961,242.868h -6.80315" fill="none" stroke="black"/>
<path d="M63.9961,240.556h -6.80315" fill="none" stroke="black"/>
<path d="M63.9961,238.552h -6.80315" fill="none" stroke="black"/>
<path d="M63.9961,236.785h -6.80315" fill="none" stroke="black"/>
<path d="M70.7992,235.204h -13.6063" fill="none" stroke="black"/>
<text xml:space="preserve" x="41.629" y="238.785" fill="black" font-size="10.4952" font-family="Helvetica">10</text>
<path d="M63.9961,224.805h -6.80315" fill="none" stroke="black"/>
<path d="M63.9961,218.721h -6.80315" fill="none" stroke="black"/>
<path d="M63.9961,214.405h -6.80315" fill="none" stroke="black"/>
<path d="M63.9961,211.057h -6.80315" fill="none" stroke="black"/>
<path d="M63.9961,208.322h -6.80315" fill="none" stroke="black"/>
<path d="M63.9961,206.009h -6.80315" fill="none" stroke="black"/>
<path d="M63.9961,204.005h -6.80315" fill="none" stroke="black"/>
<path d="M63.9961,202.238h -6.80315" fill="none" stroke="black"/>
<path d="M70.7992,200.658h -13.6063" fill="none" stroke="black"/>
<text xml:space="preserve" x="49.0263" y="200.911" fill="black" font-size="7.16345" font-family="Helvetica">2</text>
<text xml:space="preserve" x="38.0783" y="205.349" fill="black" font-size="10.4952" font-family="Helvetica">10</text>
<path d="M63.9961,190.258h -6.80315" fill="none" stroke="black"/>
<path d="M63.9961,184.175h -6.80315" fill="none" stroke="black"/>
<path d="M63.9961,179.858h -6.80315" fill="none" stroke="black"/>
<path d="M63.9961,176.51h -6.80315" fill="none" stroke="black"/>
<path d="M63.9961,173.775h -6.80315" fill="none" stroke="black"/>
<path d="M63.9961,171.462h -6.80315" fill="none" stroke="black"/>
<path d="M63.9961,169.459h -6.80315" fill="none" stroke="black"/>
<path d="M63.9961,167.692h -6.80315" fill="none" stroke="black"/>
<path d="M70.7992,166.111h -13.6063" fill="none" stroke="black"/>
<text xml:space="preserve" x="49.0263" y="165.995" fill="black" font-size="7.16345" font-family="Helvetica">3</text>
<text xml:space="preserve" x="38.0783" y="170.73" fill="black" font-size="10.4952" font-family="Helvetica">10</text>
<path d="M63.9961,155.711h -6.80315" fill="none" stroke="black"/>
<path d="M63.9961,149.628h -6.80315" fill="none" stroke="black"/>
<path d="M63.9961,145.312h -6.80315" fill="none" stroke="black"/>
<path d="M63.9961,141.964h -6.80315" fill="none" stroke="black"/>
<path d="M63.9961,139.228h -6.80315" fill="none" stroke="black"/>
<path d="M63.9961,136.916h -6.80315" fill="none" stroke="black"/>
<path d="M63.9961,134.912h -6.80315" fill="none" stroke="black"/>
<path d="M63.9961,133.145h -6.80315" fill="none" stroke="black"/>
<path d="M70.7992,131.564h -13.6063" fill="none" stroke="black"/>
<text xml:space="preserve" x="49.0263" y="131.672" fill="black" font-size="7.16345" font-family="Helvetica">4</text>
<text xml:space="preserve" x="38.0783" y="136.11" fill="black" font-size="10.4952" font-family="Helvetica">10</text>
<path d="M63.9961,121.165h -6.80315" fill="none" stroke="black"/>
<path d="M63.9961,115.081h -6.80315" fill="none" stroke="black"/>
<path d="M63.9961,110.765h -6.80315" fill="none" stroke="black"/>
<path d="M63.9961,107.417h -6.80315" fill="none" stroke="black"/>
<path d="M63.9961,104.682h -6.80315" fill="none" stroke="black"/>
<path d="M63.9961,102.369h -6.80315" fill="none" stroke="black"/>
<path d="M63.9961,100.365h -6.80315" fill="none" stroke="black"/>
<path d="M63.9961,98.5983h -6.80315" fill="none" stroke="black"/>
<path d="M70.7992,97.0175h -13.6063" fill="none" stroke="black"/>
<text xml:space="preserve" x="49.0263" y="96.7567" fill="black" font-size="7.16345" font-family="Helvetica">5</text>
<text xml:space="preserve" x="38.0783" y="101.491" fill="black" font-size="10.4952" font-family="Helvetica">10</text>
<path d="M63.9961,86.6179h -6.80315" fill="none" stroke="black"/>
<path d="M63.9961,80.5346h -6.80315" fill="none" stroke="black"/>
<path d="M63.9961,76.2183h -6.80315" fill="none" stroke="black"/>
<path d="M63.9961,72.8704h -6.80315" fill="none" stroke="black"/>
<path d="M63.9961,70.135h -6.80315" fill="none" stroke="black"/>
<path d="M63.9961,67.8222h -6.80315" fill="none" stroke="black"/>
<path d="M63.9961,65.8188h -6.80315" fill="none" stroke="black"/>
<path d="M63.9961,64.0516h -6.80315" fill="none" stroke="black"/>
<path d="M70.7992,62.4708h -13.6063" fill="none" stroke="black"/>
<text xml:space="preserve" x="49.0263" y="62.4332" fill="black" font-size="7.16345" font-family="Helvetica">6</text>
<text xml:space="preserve" x="38.0783" y="67.1675" fill="black" font-size="10.4952" font-family="Helvetica">10</text>
<path d="M63.9961,52.0712h -6.80315" fill="none" stroke="black"/>
<path d="M63.9961,45.9879h -6.80315" fill="none" stroke="black"/>
<path d="M63.9961,41.6717h -6.80315" fill="none" stroke="black"/>
<path d="M63.9961,38.3237h -6.80315" fill="none" stroke="black"/>
<path d="M63.9961,35.5883h -6.80315" fill="none" stroke="black"/>
<path d="M63.9961,33.2755h -6.80315" fill="none" stroke="black"/>
<path d="M63.9961,31.2721h -6.80315" fill="none" stroke="black"/>
<g transform="rotate(-90,26.5385,191.442)">
<text xml:space="preserve" x="26.5385" y="191.442" fill="black" font-size="10.4952" font-family="Helvetica">Counts/Channel</text>
</g>
<text xml:space="preserve" x="404.097" y="62.4332" fill="black" font-size="14.7788" font-family="Helvetica" font-weight="bold"> = 2.4879 MeV</text>
<text xml:space="preserve" x="398.179" y="65.688" fill="black" font-size="10.0192" font-family="Helvetica" font-weight="bold">p</text>
<text xml:space="preserve" x="389.006" y="62.4332" fill="black" font-size="14.7788" font-family="Helvetica" font-weight="bold">E</text>
<path d="M262.163,164.681v 25.9248" fill="none" stroke="black"/>
<path d="M264.454,190.606l -2.29122, 3.9685l -2.29122, -3.9685z" fill="black"/>
<path d="M264.454,190.606l -2.29122, 3.9685l -2.29122, -3.9685h 4.58243z" fill="none" stroke="black"/>
<text xml:space="preserve" x="266.803" y="162.741" fill="black" font-size="10.4952" font-family="Helvetica" font-weight="bold">_1 	1.369 MeV</text>
<text xml:space="preserve" x="260.293" y="162.741" fill="black" font-size="10.4952" font-family="Times">&#0945;</text>
<path d="M184.528,131.564v 30.5782" fill="none" stroke="black"/>
<path d="M186.819,162.142l -2.29122, 3.9685l -2.29122, -3.9685z" fill="black"/>
<path d="M186.819,162.142l -2.29122, 3.9685l -2.29122, -3.9685h 4.58243z" fill="none" stroke="black"/>
<text xml:space="preserve" x="172.117" y="128.713" fill="black" font-size="10.4952" font-family="Helvetica" font-weight="bold"># p_1 	0.844 MeV</text>
<path d="M210.104,149.628v 12.5145" fill="none" stroke="black"/>
<path d="M212.395,162.142l -2.29122, 3.9685l -2.29122, -3.9685z" fill="black"/>
<path d="M212.395,162.142l -2.29122, 3.9685l -2.29122, -3.9685h 4.58243z" fill="none" stroke="black"/>
<text xml:space="preserve" x="197.564" y="145.283" fill="black" font-size="10.4952" font-family="Helvetica" font-weight="bold"># p_2 	1.015 MeV</text>
<path d="M497.71,269.751h 12.9551" fill="none" stroke="black"/>
<path d="M504.188,259.351h 6.47757" fill="none" stroke="black"/>
<path d="M504.188,253.268h 6.47757" fill="none" stroke="black"/>
<path d="M504.188,248.952h 6.47757" fill="none" stroke="black"/>
<path d="M504.188,245.604h 6.47757" fill="none" stroke="black"/>
<path d="M504.188,242.868h 6.47757" fill="none" stroke="black"/>
<path d="M504.188,240.556h 6.47757" fill="none" stroke="black"/>
<path d="M504.188,238.552h 6.47757" fill="none" stroke="black"/>
<path d="M504.188,236.785h 6.47757" fill="none" stroke="black"/>
<path d="M497.71,235.204h 12.9551" fill="none" stroke="black"/>
<path d="M504.188,224.805h 6.47757" fill="none" stroke="black"/>
<path d="M504.188,218.721h 6.47757" fill="none" stroke="black"/>
<path d="M504.188,214.405h 6.47757" fill="none" stroke="black"/>
<path d="M504.188,211.057h 6.47757" fill="none" stroke="black"/>
<path d="M504.188,208.322h 6.47757" fill="none" stroke="black"/>
<path d="M504.188,206.009h 6.47757" fill="none" stroke="black"/>
<path d="M504.188,204.005h 6.47757" fill="none" stroke="black"/>
<path d="M504.188,202.238h 6.47757" fill="none" stroke="black"/>
<path d="M497.71,200.658h 12.9551" fill="none" stroke="black"/>
<path d="M504.188,190.258h 6.47757" fill="none" stroke="black"/>
<path d="M504.188,184.175h 6.47757" fill="none" stroke="black"/>
<path d="M504.188,179.858h 6.47757" fill="none" stroke="black"/>
<path d="M504.188,176.51h 6.47757" fill="none" stroke="black"/>
<path d="M504.188,173.775h 6.47757" fill="none" stroke="black"/>
<path d="M504.188,171.462h 6.47757" fill="none" stroke="black"/>
<path d="M504.188,169.459h 6.47757" fill="none" stroke="black"/>
<path d="M504.188,167.692h 6.47757" fill="none" stroke="black"/>
<path d="M497.71,166.111h 12.9551" fill="none" stroke="black"/>
<path d="M504.188,155.711h 6.47757" fill="none" stroke="black"/>
<path d="M504.188,149.628h 6.47757" fill="none" stroke="black"/>
<path d="M504.188,145.312h 6.47757" fill="none" stroke="black"/>
<path d="M504.188,141.964h 6.47757" fill="none" stroke="black"/>
<path d="M504.188,139.228h 6.47757" fill="none" stroke="black"/>
<path d="M504.188,136.916h 6.47757" fill="none" stroke="black"/>
<path d="M504.188,134.912h 6.47757" fill="none" stroke="black"/>
<path d="M504.188,133.145h 6.47757" fill="none" stroke="black"/>
<path d="M497.71,131.564h 12.9551" fill="none" stroke="black"/>
<path d="M504.188,121.165h 6.47757" fill="none" stroke="black"/>
<path d="M504.188,115.081h 6.47757" fill="none" stroke="black"/>
<path d="M504.188,110.765h 6.47757" fill="none" stroke="black"/>
<path d="M504.188,107.417h 6.47757" fill="none" stroke="black"/>
<path d="M504.188,104.682h 6.47757" fill="none" stroke="black"/>
<path d="M504.188,102.369h 6.47757" fill="none" stroke="black"/>
<path d="M504.188,100.365h 6.47757" fill="none" stroke="black"/>
<path d="M504.188,98.5983h 6.47757" fill="none" stroke="black"/>
<path d="M497.71,97.0175h 12.9551" fill="none" stroke="black"/>
<path d="M504.188,86.6179h 6.47757" fill="none" stroke="black"/>
<path d="M504.188,80.5346h 6.47757" fill="none" stroke="black"/>
<path d="M504.188,76.2183h 6.47757" fill="none" stroke="black"/>
<path d="M504.188,72.8704h 6.47757" fill="none" stroke="black"/>
<path d="M504.188,70.135h 6.47757" fill="none" stroke="black"/>
<path d="M504.188,67.8222h 6.47757" fill="none" stroke="black"/>
<path d="M504.188,65.8188h 6.47757" fill="none" stroke="black"/>
<path d="M504.188,64.0516h 6.47757" fill="none" stroke="black"/>
<path d="M497.71,62.4708h 12.9551" fill="none" stroke="black"/>
<path d="M504.188,52.0712h 6.47757" fill="none" stroke="black"/>
<path d="M504.188,45.9879h 6.47757" fill="none" stroke="black"/>
<path d="M504.188,41.6717h 6.47757" fill="none" stroke="black"/>
<path d="M504.188,38.3237h 6.47757" fill="none" stroke="black"/>
<path d="M504.188,35.5883h 6.47757" fill="none" stroke="black"/>
<path d="M504.188,33.2755h 6.47757" fill="none" stroke="black"/>
<path d="M57.1929,40.1154v -7.46952" fill="none" stroke="black"/>
<path d="M75.3318,40.1154v -7.46952" fill="none" stroke="black"/>
<path d="M93.4707,40.1154v -7.46952" fill="none" stroke="black"/>
<path d="M111.61,40.1154v -7.46952" fill="none" stroke="black"/>
<path d="M129.749,40.1154v -7.46952" fill="none" stroke="black"/>
<path d="M147.887,40.1154v -7.46952" fill="none" stroke="black"/>
<path d="M166.026,40.1154v -7.46952" fill="none" stroke="black"/>
<path d="M184.165,40.1154v -7.46952" fill="none" stroke="black"/>
<path d="M202.304,40.1154v -7.46952" fill="none" stroke="black"/>
<path d="M220.443,40.1154v -7.46952" fill="none" stroke="black"/>
<path d="M238.582,40.1154v -7.46952" fill="none" stroke="black"/>
<path d="M256.721,40.1154v -7.46952" fill="none" stroke="black"/>
<path d="M274.86,40.1154v -7.46952" fill="none" stroke="black"/>
<path d="M292.999,40.1154v -7.46952" fill="none" stroke="black"/>
<path d="M311.138,40.1154v -7.46952" fill="none" stroke="black"/>
<path d="M329.277,40.1154v -7.46952" fill="none" stroke="black"/>
<path d="M347.415,40.1154v -7.46952" fill="none" stroke="black"/>
<path d="M365.554,40.1154v -7.46952" fill="none" stroke="black"/>
<path d="M383.693,40.1154v -7.46952" fill="none" stroke="black"/>
<path d="M401.832,40.1154v -7.46952" fill="none" stroke="black"/>
<path d="M419.971,40.1154v -7.46952" fill="none" stroke="black"/>
<path d="M438.11,40.1154v -7.46952" fill="none" stroke="black"/>
<path d="M456.249,40.1154v -7.46952" fill="none" stroke="black"/>
<path d="M474.388,40.1154v -7.46952" fill="none" stroke="black"/>
<path d="M492.527,40.1154v -7.46952" fill="none" stroke="black"/>
<path d="M510.666,40.1154v -7.46952" fill="none" stroke="black"/></svg>
