<?xml version="1.0" standalone="no"?>
<svg width="567.429" height="311.778" viewBox="0 0 567.429 311.778" xmlns="http://www.w3.org/2000/svg" shape-rendering="crispEdges">
<title>
Yields/P1/run_0099/det2_Fit.svg
</title>
<desc>
Creator: ROOT Version 6.12/06
CreationDate: Mon Apr 15 10:29:01 2019</desc>
<defs>
</defs>
<rect x="0.5" y="0" width="566.929" height="311.278" fill="white"/>
<rect x="57.1929" y="31.1278" width="453.543" height="249.023" fill="white"/>
<rect x="57.1929" y="31.1278" width="453.543" height="249.023" fill="none" stroke="black"/>
<path d="M57.1929,40.7007h 0.181345v 239.45h 29.1965v -10.3828h 0.181345v 10.3828h 0.544034v -10.3828h 0.181345v 10.3828h 0.36269v -10.3828h 0.181345v 10.3828h 0.725379v -10.3828h 0.181345v -24.1081h 0.181345v -14.3128h 0.181345v -15.2573h 0.181345v
 -10.5894h 0.181345v -7.81501h 0.181345v -8.77748h 0.181345v -3.4371h 0.181345v -2.15431h 0.181345v -3.5924h 0.181345v -0.0366688h 0.181345v -0.957575h 0.181345v -2.20068h 0.181345v 0.299594h 0.181345v -2.06059h 0.181345v 0.292936h 0.181345v
 -1.08893h 0.181345v 0.226771h 0.181345v -0.499352h 0.181345v -0.170913h 0.181345v -1.30134h 0.181345v -0.738254h 0.181345v 1.05314h 0.181345v -1.24262h 0.181345v 0.532365h 0.181345v 0.174432h 0.181345v -0.706797h 0.181345v -0.187112h 0.181345v
 0.633017h 0.181345v -1.80495h 0.181345v 1.00755h 0.181345v -0.162598h 0.181345v 0.265125h 0.181345v -0.3055h 0.181345v 0.638385h 0.181345v -0.250354h 0.181345v -0.980951h 0.181345v 1.14739h 0.181345v -0.453325h 0.181345v -0.635817h 0.181345v
 0.136797h 0.181345v 0.952344h 0.181345v -1.32078h 0.181345v 0.746168h 0.181345v 0.470375h 0.181345v -0.984902h 0.181345v 0.176113h 0.181345v 0.278136h 0.181345v -1.15727h 0.181345v 1.31855h 0.181345v -0.121126h 0.181345v -0.278876h 0.181345v
 1.47115h 0.181345v -0.846507h 0.181345v -0.465921h 0.181345v 1.70954h 0.181345v -0.847489h 0.181345v -0.842095h 0.181345v 1.20563h 0.181345v 0.41703h 0.181345v -0.0666236h 0.181345v 0.40426h 0.181345v -0.181019h 0.181345v 1.68858h 0.181345v
 -1.62095h 0.181345v -1.42151h 0.181345v -0.102387h 0.181345v -0.87205h 0.181345v -1.43117h 0.181345v -0.767457h 0.181345v -2.19222h 0.181345v -1.68269h 0.181345v -2.80146h 0.181345v -1.19652h 0.181345v -1.95097h 0.181345v -0.789887h 0.181345v
 -0.235514h 0.181345v -0.861109h 0.181345v -0.0303992h 0.181345v 0.651709h 0.181345v 1.02553h 0.181345v 2.04393h 0.181345v 1.94052h 0.181345v 2.70004h 0.181345v 3.23015h 0.181345v 2.28986h 0.181345v 2.45359h 0.181345v 1.90047h 0.181345v 1.94168h
 0.181345v 1.0272h 0.181345v 2.40316h 0.181345v 0.409394h 0.181345v 1.34114h 0.181345v 0.718462h 0.181345v 1.50145h 0.181345v -1.84384h 0.181345v -0.702601h 0.181345v 0.244231h 0.181345v 0.757536h 0.181345v 0.843495h 0.181345v -0.360962h 0.181345v
 -0.133149h 0.181345v -0.39249h 0.181345v 1.4449h 0.181345v -0.874609h 0.181345v 0.592861h 0.181345v 0.665851h 0.181345v -1.25871h 0.181345v 0.686189h 0.181345v -0.863986h 0.181345v 0.910869h 0.181345v 0.574352h 0.181345v -1.48522h 0.181345v
 -1.06582h 0.181345v 2.40538h 0.181345v -1.47153h 0.181345v 0.763722h 0.181345v -0.807457h 0.181345v 0.13159h 0.181345v 0.311614h 0.181345v -0.486811h 0.181345v 1.41461h 0.181345v 0.48638h 0.181345v -0.438446h 0.181345v -0.332357h 0.181345v 1.68818h
 0.181345v 0.865464h 0.181345v -0.706953h 0.181345v 0.106614h 0.181345v -1.81177h 0.181345v 1.70516h 0.181345v 0.874945h 0.181345v 1.35464h 0.181345v 0.823587h 0.181345v -3.82947h 0.181345v -0.299594h 0.181345v 1.67189h 0.181345v -0.110142h 0.181345v
 1.13965h 0.36269v 0.852704h 0.181345v 0.771631h 0.181345v -1.32534h 0.181345v 0.553708h 0.181345v -0.248623h 0.181345v -1.46684h 0.181345v 0.862763h 0.181345v -0.408814h 0.181345v -0.0575017h 0.181345v 0.348369h 0.181345v 0.17727h 0.181345v
 0.730837h 0.181345v 0.507817h 0.181345v -0.998982h 0.181345v 0.870405h 0.181345v -1.52049h 0.181345v 1.84403h 0.181345v 0.131397h 0.36269v -0.645754h 0.181345v -0.374499h 0.181345v 1.42151h 0.181345v 0.136175h 0.181345v 0.700089h 0.181345v
 -0.562664h 0.181345v 0.420005h 0.181345v -1.09486h 0.181345v 0.0661334h 0.181345v 1.17138h 0.181345v 0.144032h 0.181345v -1.24899h 0.181345v -1.15281h 0.181345v 1.48944h 0.181345v 0.136797h 0.181345v 0.34756h 0.181345v -0.209502h 0.181345v 0.782938h
 0.181345v -1.72364h 0.181345v 1.15021h 0.181345v -0.34756h 0.181345v 1.06785h 0.181345v 1.0704h 0.181345v -1.29014h 0.181345v -1.12046h 0.181345v 0.341226h 0.181345v 0.779235h 0.181345v -1.32153h 0.181345v -0.329226h 0.181345v -0.322145h 0.181345v
 -1.51434h 0.181345v 2.4344h 0.181345v -0.335119h 0.181345v -2.21407h 0.181345v -1.36517h 0.181345v 2.37007h 0.181345v -1.9466h 0.181345v 1.23033h 0.181345v 0.0583984h 0.181345v 0.657874h 0.181345v 1.01164h 0.181345v -0.45102h 0.181345v -1.33506h
 0.181345v 1.98361h 0.181345v -0.711888h 0.181345v 0.97938h 0.181345v 3.30881h 0.181345v -2.47642h 0.181345v 1.11008h 0.181345v 2.23243h 0.181345v -2.53659h 0.181345v 0.38117h 0.181345v -1.74713h 0.181345v 2.95254h 0.181345v -0.971963h 0.181345v
 0.640918h 0.181345v -2.34409h 0.181345v 2.84344h 0.181345v -1.82997h 0.181345v 0.150546h 0.181345v -0.881382h 0.181345v 2.73103h 0.181345v 0.881382h 0.181345v -0.3588h 0.181345v -0.522583h 0.181345v -0.669572h 0.181345v -0.640918h 0.181345v 2.28293h
 0.181345v -2.28293h 0.181345v -0.38708h 0.181345v 0.153634h 0.181345v 1.45859h 0.181345v -2.92831h 0.181345v 3.36002h 0.181345v -1.65685h 0.181345v 0.888514h 0.181345v 0.0834497h 0.181345v -0.574614h 0.181345v 0.913141h 0.181345v -0.338527h
 0.181345v -0.971963h 0.181345v 0.4781h 0.181345v 0.0811882h 0.181345v 0.665851h 0.181345v -0.253175h 0.181345v 0.253175h 0.181345v -2.50233h 0.181345v 0.73804h 0.181345v 0.776297h 0.181345v -1.58618h 0.181345v 0.0718427h 0.181345v -2.69498h
 0.181345v 0.1208h 0.181345v 1.39738h 0.181345v 0.201066h 0.181345v -0.134343h 0.181345v -0.970913h 0.181345v 1.24082h 0.181345v -1.42767h 0.181345v 0.503549h 0.181345v 1.83648h 0.181345v -0.286692h 0.181345v 1.9698h 0.36269v -0.86518h 0.181345v
 -2.26532h 0.181345v 3.79267h 0.181345v -1.75489h 0.181345v 5.05514h 0.181345v -3.635h 0.181345v -0.408177h 0.181345v 3.12266h 0.181345v -2.12368h 0.181345v 1.16315h 0.181345v -1.24899h 0.181345v 1.43623h 0.181345v 0.189612h 0.181345v -3.09237h
 0.181345v 2.80884h 0.181345v -0.730837h 0.181345v 0.82475h 0.181345v 0.285326h 0.181345v -1.28735h 0.181345v 1.48063h 0.181345v -0.193282h 0.181345v 0.890114h 0.181345v -2.78189h 0.181345v 0.0848681h 0.181345v -0.747039h 0.181345v 0.662171h
 0.181345v -0.580983h 0.181345v -1.61886h 0.181345v 1.61886h 0.181345v 1.18541h 0.181345v -1.82292h 0.181345v 2.73103h 0.181345v -0.186079h 0.181345v -0.897225h 0.181345v -0.597539h 0.181345v 0.950007h 0.181345v -1.28105h 0.181345v 2.78022h 0.181345v
 -1.67644h 0.181345v 0.088373h 0.181345v -1.6754h 0.181345v 1.6754h 0.181345v 0.913648h 0.181345v -0.82475h 0.181345v -0.525639h 0.181345v -0.424368h 0.181345v 1.21991h 0.181345v 0.554848h 0.181345v -2.26862h 0.181345v -0.94141h 0.181345v 1.94598h
 0.181345v 1.74266h 0.181345v -2.82798h 0.181345v 2.16213h 0.181345v -2.00019h 0.181345v -1.69175h 0.181345v 4.0688h 0.181345v -3.55095h 0.181345v 1.92511h 0.181345v 0.172176h 0.181345v -0.594153h 0.181345v -0.571482h 0.181345v 2.6193h 0.181345v
 -1.45367h 0.181345v -1.16564h 0.181345v 1.16564h 0.181345v 1.64571h 0.181345v 0.692231h 0.181345v -3.01508h 0.181345v 0.419612h 0.181345v -2.78766h 0.181345v 2.6184h 0.181345v -1.21192h 0.181345v 0.234666h 0.181345v -0.693248h 0.181345v 0.931648h
 0.181345v 0.654932h 0.181345v 0.510703h 0.181345v 0.709206h 0.181345v -1.21991h 0.181345v -0.248967h 0.181345v 1.37837h 0.181345v -1.94369h 0.181345v 0.159354h 0.181345v 3.81033h 0.181345v -2.29429h 0.181345v 2.50233h 0.181345v -1.6826h 0.181345v
 0.18842h 0.181345v 0.0951062h 0.181345v 1.19103h 0.36269v -1.47455h 0.181345v 0.670107h 0.181345v 0.296627h 0.181345v -2.56366h 0.181345v 3.07148h 0.181345v 2.22321h 0.181345v -1.15281h 0.181345v -1.17335h 0.181345v 0.10295h 0.181345v 0.103663h
 0.181345v -0.511284h 0.181345v -1.61837h 0.181345v 1.8208h 0.181345v -1.17544h 0.181345v 0.478609h 0.181345v 2.196h 0.181345v 0.929239h 0.181345v -3.41424h 0.181345v -0.653401h 0.181345v 3.94828h 0.181345v -0.468138h 0.181345v -1.84091h 0.181345v
 2.07315h 0.181345v -1.65991h 0.181345v 0.42497h 0.181345v 0.548749h 0.181345v 0.339166h 0.181345v 0.464508h 0.181345v -2.39306h 0.181345v 1.92855h 0.181345v 0.230453h 0.181345v 0.471824h 0.181345v -0.23777h 0.36269v -1.4598h 0.181345v 0.43421h
 0.181345v -0.109738h 0.181345v 3.28794h 0.181345v -1.17801h 0.181345v 0.774958h 0.181345v -1.02462h 0.181345v -1.18945h 0.181345v 0.230453h 0.181345v 0.835709h 0.181345v 3.43488h 0.181345v -2.93552h 0.181345v -1.79248h 0.181345v 0.113051h 0.181345v
 0.816188h 0.181345v -1.04144h 0.181345v 3.65311h 0.181345v -0.141984h 0.181345v -1.47897h 0.181345v 2.05516h 0.36269v -4.85007h 0.181345v 3.31597h 0.36269v -0.648551h 0.181345v -0.621632h 0.181345v 1.67323h 0.181345v 0.840174h 0.181345v -1.3752h
 0.181345v -1.2595h 0.181345v -1.16176h 0.181345v 3.23114h 0.181345v -0.274855h 0.181345v 0.554848h 0.181345v -0.690407h 0.181345v -0.134343h 0.181345v 0.4067h 0.181345v -2.98088h 0.181345v 3.39893h 0.181345v -1.2207h 0.181345v -1.36834h 0.181345v
 0.606527h 0.181345v 2.1245h 0.181345v -1.74843h 0.181345v 1.0516h 0.181345v -0.665851h 0.181345v -1.83648h 0.181345v 1.83648h 0.181345v 1.79689h 0.181345v 2.38266h 0.181345v -5.18693h 0.181345v 1.53768h 0.181345v 0.135559h 0.181345v -2.95628h
 0.181345v 3.23114h 0.181345v -1.45286h 0.181345v 2.01818h 0.181345v -2.51341h 0.181345v 1.81003h 0.181345v -1.1884h 0.181345v 2.33022h 0.181345v 0.917379h 0.181345v -3.86923h 0.181345v 2.22808h 0.181345v 1.95987h 0.181345v -3.69273h 0.181345v
 0.126407h 0.181345v 1.32646h 0.181345v 1.60907h 0.181345v -0.456254h 0.181345v -1.9627h 0.181345v -0.768332h 0.181345v 1.85821h 0.181345v -2.22808h 0.181345v 1.94809h 0.181345v -0.274855h 0.181345v -0.269902h 0.181345v 0.966734h 0.181345v -1.23186h
 0.181345v 0.535028h 0.181345v -2.61712h 0.181345v 4.04479h 0.181345v -2.85534h 0.181345v -0.842425h 0.181345v 1.09208h 0.181345v -0.12535h 0.181345v -1.19897h 0.181345v 2.63913h 0.181345v -5.37016h 0.181345v 3.31852h 0.181345v -1.48204h 0.181345v
 0.329226h 0.181345v -1.0704h 0.181345v 1.0704h 0.181345v 0.223574h 0.181345v -3.49936h 0.181345v -1.52462h 0.181345v 2.92557h 0.181345v -0.386581h 0.181345v -0.561785h 0.181345v -1.40258h 0.181345v -0.654932h 0.181345v -0.931648h 0.181345v 4.03576h
 0.181345v -2.78022h 0.181345v -0.243569h 0.181345v -1.31007h 0.181345v 0.756685h 0.181345v -2.09689h 0.181345v 1.86585h 0.181345v 1.11008h 0.181345v 0.417274h 0.181345v -0.823239h 0.181345v -0.473066h 0.181345v -0.307276h 0.181345v 0.0762301h
 0.181345v 2.30905h 0.181345v -1.19897h 0.181345v 0.933849h 0.181345v -1.33981h 0.181345v 4.22935h 0.181345v -2.97688h 0.181345v -1.64772h 0.181345v 0.475569h 0.181345v -0.70781h 0.36269v 0.869748h 0.181345v -1.39804h 0.181345v -0.723773h 0.181345v
 1.09921h 0.181345v -1.30969h 0.181345v 1.23385h 0.181345v -2.88157h 0.181345v -1.98458h 0.181345v -0.054569h 0.181345v -2.08167h 0.181345v -1.31521h 0.181345v 1.69931h 0.181345v -2.9083h 0.181345v -1.63019h 0.181345v -1.14083h 0.181345v -0.231216h
 0.181345v 0.297938h 0.181345v -1.28105h 0.181345v -0.0306636h 0.181345v 0.15395h 0.181345v 1.63334h 0.181345v -1.03346h 0.181345v 0.358605h 0.181345v 0.232756h 0.181345v -0.298598h 0.181345v 0.0658427h 0.181345v 3.26845h 0.181345v -0.60327h
 0.181345v 2.3881h 0.181345v -0.138058h 0.181345v 1.19134h 0.181345v 1.40289h 0.181345v 2.1645h 0.181345v -0.311429h 0.181345v 1.8338h 0.181345v 0.713429h 0.181345v 1.45692h 0.181345v 1.88558h 0.181345v -0.0910591h 0.181345v 1.03346h 0.181345v
 0.294682h 0.181345v 1.24036h 0.181345v 3.10198h 0.181345v -5.57942h 0.181345v 0.845445h 0.181345v 2.406h 0.181345v -1.30336h 0.181345v 1.64772h 0.181345v -0.344364h 0.181345v 0.696832h 0.181345v -2.4106h 0.181345v 0.939769h 0.181345v 3.10198h
 0.181345v -2.44103h 0.181345v 3.68425h 0.181345v -2.87437h 0.181345v 0.856186h 0.181345v -0.73683h 0.181345v 0.487171h 0.181345v 0.503549h 0.181345v 0.389091h 0.181345v -2.64317h 0.181345v 1.38368h 0.181345v -1.9245h 0.181345v 2.41566h 0.181345v
 -2.62664h 0.181345v 4.77018h 0.181345v -4.45258h 0.181345v 2.30905h 0.181345v -0.84925h 0.36269v -0.803674h 0.181345v 2.16074h 0.181345v -0.755413h 0.181345v 1.01593h 0.181345v -1.01593h 0.181345v 0.247595h 0.181345v 0.900308h 0.181345v -2.88489h
 0.181345v 3.01804h 0.181345v 0.544757h 0.181345v -1.0704h 0.181345v 1.78044h 0.181345v -0.984902h 0.181345v 1.57821h 0.181345v -3.12917h 0.181345v -1.73698h 0.181345v 3.84279h 0.181345v -2.1058h 0.181345v 0.247595h 0.181345v 1.57821h 0.181345v
 -1.45286h 0.181345v 0.25389h 0.181345v 0.924119h 0.181345v -3.93h 0.181345v 1.77739h 0.181345v 4.19176h 0.181345v -0.908107h 0.181345v 0.147579h 0.181345v -2.33022h 0.181345v -0.251757h 0.181345v -0.491165h 0.181345v 1.79452h 0.181345v -0.135559h
 0.181345v 1.41418h 0.181345v -2.20274h 0.181345v 0.654217h 0.181345v -0.654217h 0.36269v 1.90902h 0.181345v 0.293719h 0.181345v -0.293719h 0.181345v -2.77943h 0.181345v 3.83367h 0.181345v -2.30905h 0.181345v 4.48864h 0.181345v -3.5219h 0.544034v
 0.143343h 0.181345v -1.24323h 0.181345v 0.403052h 0.181345v -0.403052h 0.181345v 2.13334h 0.181345v -2.26532h 0.181345v 3.87754h 0.181345v 0.171192h 0.181345v -0.998982h 0.181345v 0.998982h 0.181345v -0.507817h 0.181345v -1.12196h 0.181345v
 -4.15402h 0.181345v 2.96692h 0.181345v 2.81687h 0.181345v 0.348369h 0.181345v -5.65659h 0.181345v 4.30924h 0.181345v -2.78462h 0.181345v 3.7836h 0.181345v -3.5137h 0.181345v -2.95628h 0.181345v 1.28305h 0.181345v 1.13821h 0.181345v -1.13821h
 0.181345v -1.28305h 0.181345v 0.225255h 0.181345v -3.70131h 0.181345v -1.02755h 0.181345v -2.36805h 0.181345v 2.78766h 0.181345v -4.52052h 0.181345v -1.2666h 0.181345v -1.69344h 0.181345v 0.633017h 0.181345v -2.70406h 0.181345v 0.410414h 0.181345v
 -1.45286h 0.181345v -1.32432h 0.181345v 0.077014h 0.181345v -1.0077h 0.181345v -1.73619h 0.181345v -0.223336h 0.181345v 1.15155h 0.181345v -0.831466h 0.181345v 2.22839h 0.181345v -1.1208h 0.181345v 0.49581h 0.181345v 0.700261h 0.181345v 0.893965h
 0.181345v 1.47179h 0.181345v 1.14751h 0.181345v 1.08808h 0.181345v 0.154692h 0.181345v 2.72066h 0.181345v 1.71001h 0.181345v 0.0698331h 0.181345v 3.0995h 0.181345v 1.25648h 0.181345v 3.11027h 0.181345v 1.45073h 0.181345v 0.256061h 0.181345v 1.78044h
 0.181345v 1.52982h 0.181345v 1.52462h 0.181345v 1.89864h 0.181345v 3.14144h 0.181345v -2.09352h 0.181345v 2.86185h 0.181345v -1.2595h 0.36269v 1.2595h 0.181345v 0.265125h 0.181345v -0.7817h 0.181345v 3.09075h 0.181345v -0.61148h 0.181345v 2.61167h
 0.181345v -2.00019h 0.181345v -0.61148h 0.181345v 5.3427h 0.181345v -7.56591h 0.181345v 2.83469h 0.181345v -3.83367h 0.181345v 2.34937h 0.181345v -0.279993h 0.181345v 1.76429h 0.181345v -2.30905h 0.181345v 4.6702h 0.181345v -1.39442h 0.181345v
 -1.57821h 0.181345v -1.69757h 0.181345v -1.03346h 0.181345v 3.34251h 0.181345v 1.64772h 0.181345v -3.41202h 0.181345v 2.07966h 0.181345v -1.22347h 0.181345v -0.856186h 0.181345v 3.06765h 0.181345v 1.05779h 0.181345v -2.67001h 0.181345v 1.27559h
 0.181345v -3.80142h 0.181345v 7.14393h 0.181345v -1.19897h 0.181345v -3.41913h 0.181345v -0.890114h 0.181345v -0.565319h 0.181345v -1.0704h 0.181345v 2.83469h 0.181345v -0.30886h 0.181345v -2.26532h 0.181345v -1.49917h 0.181345v 3.76448h 0.181345v
 -0.599247h 0.181345v -2.4344h 0.181345v 0.507817h 0.181345v 0.525639h 0.181345v 4.6702h 0.181345v -1.72364h 0.181345v -1.24899h 0.181345v -2.47927h 0.181345v 1.89178h 0.181345v -2.6347h 0.181345v 2.34937h 0.181345v -2.34937h 0.181345v 0.742922h
 0.181345v 1.0516h 0.181345v -0.795542h 0.181345v -0.755413h 0.181345v -0.483241h 0.181345v -1.57821h 0.181345v 5.04008h 0.181345v -1.42767h 0.181345v -0.795542h 0.181345v 2.22321h 0.181345v -0.87282h 0.181345v -0.279993h 0.181345v -1.0704h 0.181345v
 -0.507817h 0.181345v 0.507817h 0.181345v 2.83469h 0.181345v 2.36115h 0.181345v -2.67001h 0.181345v 1.27559h 0.181345v -4.55684h 0.36269v 4.89346h 0.181345v -0.987996h 0.181345v -0.315363h 0.181345v -2.83469h 0.181345v 1.35039h 0.181345v -0.82475h
 0.181345v -2.23243h 0.181345v 2.77719h 0.181345v 2.4018h 0.181345v -2.4018h 0.181345v 1.76429h 0.181345v -1.19897h 0.181345v -1.89178h 0.181345v 1.0516h 0.181345v 1.73029h 0.181345v -2.00019h 0.181345v 2.00019h 0.181345v -3.28124h 0.181345v
 -1.40533h 0.181345v 4.08732h 0.181345v -1.92658h 0.181345v 2.52583h 0.181345v -2.52583h 0.181345v 5.56572h 0.181345v -0.369875h 0.181345v -2.67001h 0.181345v -2.26532h 0.181345v 0.809883h 0.181345v -0.274855h 0.181345v -1.30336h 0.181345v 5.70366h
 0.181345v -3.26926h 0.181345v 1.54562h 0.181345v -2.12181h 0.181345v 4.21533h 0.181345v -2.09352h 0.181345v 0.665851h 0.181345v -1.91484h 0.181345v 0.926843h 0.181345v -4.85684h 0.181345v 2.23243h 0.181345v 1.40094h 0.36269v 2.9083h 0.181345v
 -2.30905h 0.181345v -0.599247h 0.181345v -3.16524h 0.181345v 4.07334h 0.181345v -2.57418h 0.181345v 2.26532h 0.181345v -0.30262h 0.181345v -2.97862h 0.181345v 3.28124h 0.181345v 0.30886h 0.181345v 1.30336h 0.181345v -4.39411h 0.181345v 0.256061h
 0.181345v 1.92658h 0.181345v 5.21735h 0.181345v -3.67173h 0.181345v 1.72364h 0.181345v 1.94809h 0.181345v -4.6181h 0.181345v -0.599247h 0.181345v 4.01837h 0.181345v -0.749115h 0.181345v 0.369875h 0.181345v -4.21533h 0.181345v 2.45103h 0.181345v
 0.336625h 0.181345v -0.665851h 0.181345v 2.86185h 0.181345v -1.49917h 0.181345v -1.03346h 0.181345v 0.680989h 0.181345v 2.2511h 0.181345v 0.410414h 0.181345v -2.30905h 0.181345v 3.61241h 0.181345v -0.881382h 0.181345v -4.41586h 0.181345v 1.33236h
 0.181345v 3.96488h 0.181345v 0.460934h 0.36269v -4.07334h 0.181345v 1.89864h 0.181345v -2.59547h 0.181345v 3.00588h 0.181345v -1.57821h 0.181345v 2.4344h 0.36269v -5.16543h 0.181345v 9.1838h 0.181345v -7.88044h 0.181345v 4.30924h 0.181345v -3.61241h
 0.181345v 5.5479h 0.181345v 6.33405h 0.181345v -9.98331h 0.181345v 9.98331h 0.181345v -9.57289h 0.181345v 2.23986h 0.181345v 3.83367h 0.181345v 2.73103h 0.181345v -4.49532h 0.181345v 5.26365h 0.181345v -6.33405h 0.181345v -2.38266h 0.181345v
 7.94838h 0.181345v -2.09352h 0.181345v -3.4722h 0.181345v 8.90823h 0.181345v -6.68502h 0.181345v 1.91484h 0.181345v -4.13805h 0.181345v -0.507817h 0.181345v 3.98002h 0.181345v -1.24899h 0.181345v 3.34251h 0.181345v -1.42767h 0.181345v -0.665851h
 0.36269v 2.09352h 0.181345v 4.30924h 0.181345v -6.40276h 0.181345v 3.67173h 0.181345v 0.856186h 0.181345v -1.66607h 0.181345v -5.26365h 0.181345v 6.92972h 0.181345v 2.9083h 0.181345v 1.11008h 0.181345v -1.11008h 0.181345v -2.9083h 0.36269v 1.87484h
 0.181345v -7.04027h 0.181345v 8.07373h 0.181345v -2.9083h 0.181345v -0.856186h 0.181345v -2.30905h 0.181345v 5.04008h 0.181345v 4.64587h 0.181345v -5.6126h 0.181345v 0.966734h 0.181345v 7.65175h 0.181345v -10.3828h 0.181345v -4.30924h 0.181345v
 11.6861h 0.181345v -2.50233h 0.181345v -3.11027h 0.181345v 0.966734h 0.36269v -1.87484h 0.181345v 4.01837h 0.36269v -4.87456h 0.181345v 7.37689h 0.36269v 4.77018h 0.181345v -12.957h 0.181345v 1.66607h 0.181345v 6.52071h 0.181345v -4.64587h 0.181345v
 -1.87484h 0.181345v 4.01837h 0.181345v -3.11027h 0.181345v 4.30924h 0.181345v 1.30336h 0.181345v -8.18678h 0.181345v 5.68444h 0.181345v -1.11008h 0.544034v 1.11008h 0.181345v -5.68444h 0.181345v -1.49917h 0.181345v 1.49917h 0.181345v -4.11084h
 0.181345v 8.68521h 0.181345v -2.9083h 0.181345v -0.856186h 0.181345v 2.73103h 0.181345v -2.73103h 0.36269v -3.67173h 0.181345v 12.4763h 0.181345v -11.1136h 0.181345v -2.61167h 0.181345v 6.68502h 0.181345v -3.34251h 0.181345v -5.04008h 0.181345v
 1.69757h 0.181345v 0.61148h 0.181345v 3.49936h 0.181345v -2.196h 0.181345v 0.696832h 0.181345v 5.04008h 0.181345v -5.73691h 0.181345v 6.77037h 0.181345v -5.3427h 0.181345v 7.65175h 0.181345v -4.30924h 0.181345v 0.966734h 0.181345v -1.87484h
 0.181345v -4.52792h 0.181345v 7.43622h 0.181345v -2.9083h 0.181345v 4.01837h 0.181345v -4.01837h 0.181345v 1.87484h 0.181345v 6.07353h 0.181345v -8.80456h 0.181345v -0.809883h 0.181345v 6.88342h 0.36269v -5.21735h 0.181345v -3.16524h 0.181345v
 -1.36268h 0.181345v -6.28907h 0.181345v 4.45258h 0.181345v -1.63572h 0.36269v -8.45619h 0.181345v 0.908107h 0.181345v -1.4843h 0.181345v 2.12181h 0.181345v -1.24899h 0.181345v -4.38395h 0.181345v 0.686189h 0.181345v -4.07334h 0.181345v -3.48449h
 0.181345v 2.12181h 0.181345v -0.637508h 0.181345v -4.77018h 0.181345v 1.80691h 0.181345v -2.68829h 0.36269v -2.18627h 0.36269v -1.41085h 0.181345v 0.169258h 0.181345v 0.171192h 0.181345v -0.755413h 0.181345v 0.58422h 0.181345v -2.92831h 0.181345v
 1.16402h 0.181345v -1.44142h 0.181345v 1.67011h 0.181345v -0.15285h 0.181345v -1.58582h 0.181345v -0.537427h 0.181345v -0.518811h 0.181345v 0.25716h 0.181345v 1.00569h 0.181345v -0.809883h 0.181345v -0.389091h 0.181345v -0.0638772h 0.181345v
 -0.746005h 0.181345v -0.418607h 0.181345v -0.407226h 0.181345v -1.05257h 0.181345v 0.768332h 0.181345v -2.3412h 0.181345v 1.15089h 0.181345v 0.421977h 0.181345v -1.03346h 0.181345v -1.06006h 0.181345v 0.763436h 0.181345v 1.11761h 0.181345v
 -0.364729h 0.181345v -0.456254h 0.181345v 0.507817h 0.181345v 0.795542h 0.36269v -0.269902h 0.181345v 2.49747h 0.181345v 0.845037h 0.181345v 1.03823h 0.181345v 0.289462h 0.181345v 1.78257h 0.181345v -0.244897h 0.181345v -0.711546h 0.181345v
 0.077412h 0.181345v 5.1335h 0.181345v -0.431085h 0.181345v 4.13322h 0.181345v 1.7818h 0.181345v 1.14651h 0.181345v 1.61609h 0.181345v 1.5993h 0.181345v 3.02934h 0.181345v 4.83488h 0.181345v 7.18361h 0.181345v -4.01837h 0.181345v -2.80428h 0.181345v
 9.32498h 0.181345v -3.06765h 0.181345v -0.544757h 0.181345v 6.61829h 0.181345v -0.809883h 0.181345v 5.68444h 0.181345v -6.45278h 0.181345v 4.30924h 0.181345v 3.34251h 0.181345v -2.30905h 0.181345v 8.38259h 0.181345v 4.30924h 0.181345v -6.07353h
 0.181345v -6.61829h 0.181345v 5.04008h 0.181345v 1.57821h 0.181345v -1.57821h 0.181345v 3.34251h 0.181345v -7.27251h 0.181345v 7.27251h 0.36269v 14.692h 0.36269v 16.4563h 0.181345v -29.1481h 0.181345v 5.04008h 0.181345v 24.1081h 0.181345v -16.4563h
 0.36269v -7.65175h 0.181345v 24.1081h 0.181345v -16.4563h 0.181345v -4.30924h 0.36269v -8.38259h 0.181345v 12.6918h 0.36269v -7.65175h 0.181345v 7.65175h 0.36269v 16.4563h 0.181345v -26.8391h 0.181345v 10.3828h 0.181345v -12.6918h 0.181345v 18.7654h
 0.181345v -6.07353h 0.181345v -4.30924h 0.181345v 10.3828h 0.181345v 10.3828h 0.181345v -20.7656h 0.181345v -3.34251h 0.181345v 7.65175h 0.181345v 6.07353h 0.181345v -18.7654h 0.36269v 5.04008h 0.36269v -2.73103h 0.36269v -2.30905h 0.181345v
 5.04008h 0.181345v 7.65175h 0.181345v 16.4563h 0.181345v -24.1081h 0.181345v 13.7253h 0.181345v -6.07353h 0.181345v -4.30924h 0.181345v 4.30924h 0.181345v -4.30924h 0.181345v -3.34251h 0.181345v 7.65175h 0.181345v -4.30924h 0.181345v 4.30924h
 0.181345v -14.692h 0.181345v 10.3828h 0.36269v -6.07353h 0.181345v -2.30905h 0.181345v 12.6918h 0.181345v -12.6918h 0.36269v 5.04008h 0.181345v -7.04027h 0.181345v 20.7656h 0.181345v -10.3828h 0.181345v -6.07353h 0.181345v 10.3828h 0.181345v
 -14.692h 0.181345v 4.30924h 0.181345v -7.65175h 0.181345v 7.65175h 0.181345v 2.73103h 0.36269v -5.04008h 0.181345v 2.30905h 0.181345v -2.30905h 0.181345v 18.7654h 0.181345v -16.4563h 0.181345v -7.65175h 0.181345v 1.57821h 0.181345v -1.57821h
 0.181345v -1.42767h 0.181345v -1.30336h 0.181345v -7.65175h 0.181345v 13.7253h 0.181345v -9.41604h 0.181345v 7.65175h 0.36269v 3.76448h 0.181345v -2.00019h 0.181345v -9.41604h 0.181345v 7.65175h 0.181345v -3.00588h 0.181345v -1.30336h 0.181345v
 -2.30905h 0.181345v 2.30905h 0.181345v 6.07353h 0.181345v -4.77018h 0.181345v 3.00588h 0.181345v -1.57821h 0.181345v 10.3828h 0.181345v -7.04027h 0.181345v 4.30924h 0.181345v -6.07353h 0.181345v -6.61829h 0.181345v 10.3828h 0.181345v 2.30905h
 0.181345v 2.73103h 0.181345v 13.7253h 0.181345v -13.7253h 0.181345v 24.1081h 0.181345v -20.7656h 0.181345v -3.34251h 0.181345v 24.1081h 0.181345v -24.1081h 0.181345v 7.65175h 0.181345v 26.8391h 0.181345v -26.8391h 0.181345v -10.3828h 0.181345v
 26.8391h 0.181345v -20.7656h 0.181345v -3.34251h 0.181345v 13.7253h 0.181345v 10.3828h 0.181345v -20.7656h 0.181345v 20.7656h 0.36269v -20.7656h 0.181345v -3.34251h 0.181345v 7.65175h 0.181345v 6.07353h 0.181345v -6.07353h 0.36269v -10.3828h
 0.181345v 10.3828h 0.181345v -4.30924h 0.181345v -3.34251h 0.181345v 13.7253h 0.181345v -10.3828h 0.181345v 10.3828h 0.181345v -6.07353h 0.181345v -4.30924h 0.36269v 4.30924h 0.181345v 16.4563h 0.181345v -24.1081h 0.181345v 3.34251h 0.181345v
 4.30924h 0.181345v -10.3828h 0.181345v 16.4563h 0.181345v -18.7654h 0.181345v 18.7654h 0.181345v -16.4563h 0.36269v 10.3828h 0.544034v 16.4563h 0.181345v -16.4563h 0.181345v -10.3828h 0.181345v -2.30905h 0.181345v 12.6918h 0.181345v 16.4563h
 0.181345v -26.8391h 0.181345v -2.30905h 0.181345v 5.04008h 0.181345v 7.65175h 0.181345v -12.6918h 0.181345v 8.38259h 0.181345v 4.30924h 0.181345v -4.30924h 0.181345v -6.07353h 0.181345v -7.65175h 0.181345v 18.0345h 0.181345v -7.65175h 0.181345v
 -5.04008h 0.181345v 12.6918h 0.36269v -10.3828h 0.181345v 10.3828h 0.181345v -16.4563h 0.181345v -1.57821h 0.181345v 13.7253h 0.181345v -6.07353h 0.181345v -10.3828h 0.181345v 10.3828h 0.181345v -7.65175h 0.181345v 1.57821h 0.181345v 1.76429h
 0.181345v 20.7656h 0.181345v -22.5298h 0.544034v 8.80456h 0.181345v -7.04027h 0.181345v -3.34251h 0.181345v 1.57821h 0.181345v 6.07353h 0.181345v -4.30924h 0.181345v -1.76429h 0.181345v 6.07353h 0.181345v -6.07353h 0.181345v 3.76448h 0.181345v
 12.6918h 0.181345v -12.6918h 0.181345v 2.30905h 0.181345v 2.73103h 0.36269v -8.80456h 0.181345v 16.4563h 0.181345v -14.692h 0.181345v 4.30924h 0.181345v -7.65175h 0.181345v 18.0345h 0.181345v -10.3828h 0.36269v 6.07353h 0.181345v -6.07353h 0.181345v
 2.73103h 0.181345v -10.3828h 0.181345v 7.65175h 0.181345v 2.73103h 0.181345v -2.73103h 0.181345v 10.3828h 0.181345v -4.30924h 0.181345v -6.07353h 0.181345v -7.65175h 0.181345v 7.65175h 0.181345v -2.30905h 0.181345v 5.04008h 0.181345v 3.34251h
 0.181345v 10.3828h 0.181345v -13.7253h 0.181345v 3.34251h 0.181345v -3.34251h 0.181345v 13.7253h 0.181345v -20.7656h 0.181345v 14.692h 0.181345v -7.65175h 0.181345v -7.04027h 0.181345v 4.30924h 0.181345v 6.07353h 0.181345v -3.34251h 0.181345v
 -7.04027h 0.181345v 2.00019h 0.181345v -11.4162h 0.181345v 9.41604h 0.181345v -3.34251h 0.181345v 10.3828h 0.181345v -5.04008h 0.181345v 2.30905h 0.181345v -6.07353h 0.181345v 12.1471h 0.181345v -10.3828h 0.181345v -1.76429h 0.181345v 12.1471h
 0.181345v -3.34251h 0.181345v -10.3828h 0.181345v 10.3828h 0.181345v -8.80456h 0.181345v -1.57821h 0.181345v 7.65175h 0.181345v -11.5818h 0.181345v 7.27251h 0.181345v 2.00019h 0.181345v 2.30905h 0.181345v 2.73103h 0.181345v -2.73103h 0.181345v
 -9.07942h 0.181345v 3.00588h 0.181345v 3.76448h 0.181345v 5.04008h 0.181345v -18.3312h 0.181345v 1.87484h 0.181345v 7.65175h 0.181345v -5.50822h 0.181345v 9.2727h 0.181345v -3.76448h 0.181345v 3.76448h 0.36269v -2.00019h 0.181345v -10.3828h
 0.181345v 2.00019h 0.181345v 1.11008h 0.181345v 5.50822h 0.181345v -5.50822h 0.181345v 1.19897h 0.181345v -1.19897h 0.181345v -1.11008h 0.36269v -3.76448h 0.181345v 8.80456h 0.181345v -8.80456h 0.181345v 12.1471h 0.181345v -10.3828h 0.181345v
 7.04027h 0.181345v -1.42767h 0.181345v 1.42767h 0.181345v 5.3427h 0.181345v -6.77037h 0.36269v 1.42767h 0.181345v -5.04008h 0.181345v -5.3427h 0.181345v 3.34251h 0.181345v 7.04027h 0.181345v -7.04027h 0.181345v 5.6126h 0.181345v -9.68594h 0.181345v
 16.4563h 0.181345v -14.9571h 0.181345v 12.957h 0.181345v -12.957h 0.181345v 3.54091h 0.181345v 2.14353h 0.181345v -1.11008h 0.181345v -2.00019h 0.181345v -0.908107h 0.181345v 7.94838h 0.36269v -10.3828h 0.181345v 7.65175h 0.181345v 1.30336h
 0.181345v -8.95511h 0.181345v 1.57821h 0.181345v 0.856186h 0.181345v -0.856186h 0.181345v 10.3828h 0.181345v -8.61848h 0.181345v 2.00019h 0.181345v -6.77037h 0.181345v 9.07942h 0.181345v -8.38259h 0.181345v 3.16524h 0.181345v -1.66607h 0.181345v
 0.809883h 0.181345v 4.87456h 0.181345v -4.01837h 0.181345v 2.9083h 0.181345v 2.30905h 0.181345v 1.30336h 0.181345v -3.61241h 0.181345v -1.03346h 0.181345v -3.54091h 0.181345v 3.54091h 0.181345v -4.30924h 0.181345v 6.45278h 0.181345v -4.87456h
 0.181345v 1.76429h 0.181345v 0.966734h 0.181345v -0.966734h 0.181345v 7.04027h 0.181345v -11.8104h 0.181345v 3.86207h 0.181345v 6.52071h 0.181345v -12.8851h 0.181345v 5.50822h 0.181345v -3.67173h 0.181345v 4.52792h 0.181345v -3.86207h 0.181345v
 6.77037h 0.181345v 1.11008h 0.181345v -4.87456h 0.181345v -2.30905h 0.181345v -4.83488h 0.181345v 1.0704h 0.181345v 4.49532h 0.181345v -7.94838h 0.181345v 9.52659h 0.181345v -8.14291h 0.181345v 3.22219h 0.181345v 1.24899h 0.181345v -1.83648h
 0.181345v 1.19897h 0.181345v 3.49936h 0.181345v -5.80841h 0.181345v 8.38259h 0.181345v -8.38259h 0.36269v -0.525639h 0.181345v 1.63572h 0.181345v -5.28498h 0.181345v 6.48395h 0.181345v -1.76429h 0.36269v -4.71966h 0.181345v 2.17471h 0.181345v
 0.475569h 0.181345v 2.6347h 0.181345v 1.19897h 0.181345v -0.61148h 0.181345v -2.22321h 0.181345v -2.81687h 0.181345v 2.81687h 0.181345v 2.22321h 0.181345v -7.04027h 0.181345v 2.4344h 0.181345v 2.38266h 0.181345v -2.38266h 0.181345v -0.856186h
 0.181345v 4.87456h 0.181345v -4.87456h 0.181345v 1.76429h 0.36269v -0.460934h 0.181345v -0.881382h 0.181345v 1.81789h 0.181345v 2.6347h 0.181345v -1.11008h 0.181345v -1.52462h 0.181345v 0.491165h 0.181345v 2.73103h 0.181345v -5.87247h 0.181345v
 5.28498h 0.181345v -0.565319h 0.181345v 1.15281h 0.181345v 1.91484h 0.181345v 1.42767h 0.181345v -5.56572h 0.181345v 4.13805h 0.181345v -2.50233h 0.181345v -0.565319h 0.181345v 6.92972h 0.181345v -6.3644h 0.181345v 0.587494h 0.181345v 2.61167h
 0.181345v 0.730837h 0.181345v 2.4344h 0.181345v 1.87484h 0.181345v -10.3828h 0.36269v 3.34251h 0.181345v 4.30924h 0.181345v 3.76448h 0.181345v -2.9083h 0.181345v -2.4344h 0.36269v 13.7253h 0.181345v -14.4561h 0.181345v 6.07353h 0.181345v -1.03346h
 0.181345v -3.54091h 0.181345v 1.66607h 0.181345v 4.01837h 0.181345v -4.87456h 0.181345v 4.87456h 0.181345v -5.68444h 0.181345v 6.88342h 0.181345v -6.88342h 0.181345v -2.196h 0.36269v 4.77018h 0.181345v 2.00019h 0.36269v -3.76448h 0.181345v 6.07353h
 0.181345v -6.07353h 0.36269v -1.57821h 0.181345v 2.4344h 0.181345v -3.86207h 0.181345v -0.665851h 0.181345v 8.54629h 0.181345v -1.11008h 0.181345v -6.07353h 0.181345v 4.07334h 0.181345v -4.77018h 0.181345v -2.50233h 0.181345v 1.19897h 0.181345v
 7.04027h 0.181345v 3.34251h 0.181345v -2.30905h 0.181345v -3.76448h 0.181345v -3.00588h 0.181345v 0.696832h 0.181345v 0.730837h 0.36269v -2.09352h 0.181345v 5.43603h 0.181345v -4.07334h 0.181345v -1.36268h 0.181345v 3.67173h 0.181345v 2.73103h
 0.181345v -3.54091h 0.181345v 4.57437h 0.181345v 2.30905h 0.181345v -4.30924h 0.36269v -6.07353h 0.181345v 8.07373h 0.181345v -5.3427h 0.181345v -2.09352h 0.181345v 1.36268h 0.181345v -1.36268h 0.181345v 5.43603h 0.181345v -3.34251h 0.181345v
 2.4344h 0.181345v 7.94838h 0.181345v -3.93h 0.181345v -3.11027h 0.181345v 2.00019h 0.181345v -2.00019h 0.181345v -0.908107h 0.181345v -0.856186h 0.181345v 4.87456h 0.181345v 3.93h 0.181345v -7.94838h 0.181345v -3.86207h 0.181345v 1.42767h 0.181345v
 2.4344h 0.181345v -2.4344h 0.181345v -1.42767h 0.181345v -0.665851h 0.181345v 6.40276h 0.181345v -8.23924h 0.181345v -1.11008h 0.181345v 3.61241h 0.181345v 3.00588h 0.181345v -3.00588h 0.181345v 3.00588h 0.181345v -3.00588h 0.181345v -3.06765h
 0.181345v 6.07353h 0.181345v -6.07353h 0.181345v 0.565319h 0.36269v 3.19916h 0.544034v -5.3427h 0.181345v 1.03346h 0.181345v 2.30905h 0.181345v 5.16543h 0.181345v -3.86207h 0.181345v 4.77018h 0.181345v -6.68502h 0.181345v -3.69776h 0.181345v
 4.94675h 0.181345v -2.4018h 0.181345v 2.4018h 0.181345v 3.67173h 0.181345v -0.809883h 0.181345v -1.49917h 0.181345v 5.04008h 0.181345v 1.03346h 0.181345v -9.83802h 0.181345v 3.06765h 0.181345v 3.00588h 0.181345v -6.07353h 0.181345v 4.49532h
 0.181345v -2.73103h 0.181345v 2.73103h 0.36269v 0.768332h 0.181345v -2.196h 0.181345v 1.42767h 0.181345v -2.73103h 0.181345v 8.07373h 0.181345v -4.57437h 0.181345v -4.69833h 0.181345v 3.93h 0.181345v 0.768332h 0.181345v -5.26365h 0.181345v 3.06765h
 0.181345v 4.77018h 0.181345v -7.27251h 0.181345v 1.19897h 0.181345v 2.00019h 0.181345v -0.696832h 0.181345v 9.07942h 0.181345v -12.1471h 0.181345v 2.4018h 0.181345v 2.86185h 0.181345v -4.11084h 0.181345v 2.61167h 0.181345v 1.49917h 0.181345v
 -1.49917h 0.181345v -2.00019h 0.181345v -5.65156h 0.181345v 6.95492h 0.181345v -3.61241h 0.181345v 4.30924h 0.181345v -0.696832h 0.181345v -7.78731h 0.181345v 9.21498h 0.181345v -7.5012h 0.181345v 3.5712h 0.181345v 1.19897h 0.181345v -3.34251h
 0.181345v 0.507817h 0.181345v 5.56572h 0.181345v -3.93h 0.181345v -2.14353h 0.181345v 2.73103h 0.181345v -2.73103h 0.181345v 6.07353h 0.181345v -0.730837h 0.181345v -1.36268h 0.181345v -1.83648h 0.181345v -1.63572h 0.181345v -0.998982h 0.181345v
 0.998982h 0.181345v 3.4722h 0.181345v -1.83648h 0.181345v -1.11008h 0.181345v -1.52462h 0.181345v -0.936504h 0.181345v 7.5012h 0.181345v -11.8104h 0.181345v 7.88044h 0.181345v 10.3828h 0.181345v -9.79528h 0.181345v -5.04008h 0.181345v 7.65175h
 0.181345v -2.00019h 0.181345v -1.19897h 0.181345v -0.565319h 0.181345v 3.76448h 0.181345v 2.30905h 0.181345v 1.76429h 0.181345v -5.43603h 0.181345v 4.52792h 0.181345v -4.52792h 0.181345v -1.83648h 0.181345v 6.3644h 0.181345v -3.86207h 0.181345v
 2.196h 0.181345v 3.54091h 0.181345v 1.03346h 0.181345v -6.77037h 0.181345v 4.77018h 0.181345v -1.76429h 0.181345v 0.856186h 0.181345v -1.66607h 0.181345v -1.49917h 0.181345v 8.38259h 0.181345v -2.30905h 0.181345v 2.30905h 0.181345v 1.30336h
 0.181345v -9.68594h 0.181345v 4.07334h 0.181345v -4.77018h 0.181345v 2.196h 0.181345v -4.69833h 0.181345v 14.3128h 0.181345v -10.3828h 0.181345v 0.768332h 0.36269v 3.54091h 0.181345v -8.23924h 0.181345v 2.50233h 0.181345v 2.196h 0.181345v -2.86185h
 0.181345v 3.67173h 0.36269v -0.809883h 0.181345v -9.57289h 0.181345v 12.1471h 0.181345v -4.77018h 0.181345v -1.91484h 0.181345v 2.61167h 0.181345v 0.730837h 0.181345v 2.4344h 0.181345v -3.86207h 0.181345v 4.77018h 0.181345v -4.77018h 0.181345v
 -1.30336h 0.181345v 4.30924h 0.181345v -3.00588h 0.181345v 2.196h 0.181345v -2.196h 0.36269v 5.73691h 0.181345v -1.87484h 0.181345v 4.01837h 0.181345v -4.87456h 0.181345v -4.92072h 0.181345v 15.3035h 0.181345v -14.692h 0.181345v 6.07353h 0.181345v
 -6.68502h 0.181345v 8.68521h 0.181345v -2.9083h 0.181345v -1.66607h 0.181345v 4.57437h 0.181345v -3.76448h 0.181345v -1.57821h 0.181345v 6.45278h 0.181345v -3.11027h 0.181345v -6.68502h 0.181345v 1.91484h 0.181345v 4.77018h 0.36269v 17.423h
 0.181345v -17.423h 0.181345v 8.61848h 0.36269v -4.30924h 0.181345v 1.30336h 0.181345v 1.42767h 0.181345v -2.73103h 0.181345v -4.30924h 0.181345v 0.966734h 0.181345v 6.07353h 0.181345v -1.42767h 0.181345v 9.07942h 0.181345v -10.3828h 0.181345v
 13.1138h 0.181345v -7.04027h 0.181345v -3.34251h 0.181345v 3.34251h 0.181345v -1.76429h 0.181345v 1.76429h 0.181345v 2.00019h 0.181345v -11.4162h 0.181345v 2.14353h 0.181345v 9.2727h 0.181345v -3.76448h 0.36269v -3.00588h 0.181345v 3.00588h
 0.181345v -7.65175h 0.181345v 7.65175h 0.181345v 16.4563h 0.181345v -18.0345h 0.181345v 5.3427h 0.181345v -3.76448h 0.181345v -4.30924h 0.181345v 1.30336h 0.36269v 3.00588h 0.181345v -4.30924h 0.181345v 4.30924h 0.181345v 1.76429h 0.181345v 7.04027h
 0.181345v -11.8104h 0.181345v 15.153h 0.181345v -6.07353h 0.181345v -12.6918h 0.181345v 5.04008h 0.181345v 3.34251h 0.181345v -6.07353h 0.181345v 1.30336h 0.36269v -1.30336h 0.181345v 4.30924h 0.181345v 6.07353h 0.181345v -7.65175h 0.181345v
 1.57821h 0.181345v -7.65175h 0.181345v 1.03346h 0.181345v 5.04008h 0.181345v -2.73103h 0.181345v -4.30924h 0.181345v 7.04027h 0.181345v -2.73103h 0.181345v -1.19897h 0.36269v -4.01837h 0.181345v 9.52659h 0.181345v -9.52659h 0.181345v 5.21735h
 0.36269v 4.30924h 0.181345v 1.76429h 0.181345v 2.00019h 0.181345v -6.77037h 0.181345v -2.50233h 0.181345v 1.19897h 0.181345v 4.30924h 0.181345v -7.65175h 0.181345v 7.65175h 0.36269v -1.57821h 0.181345v 1.57821h 0.181345v -4.30924h 0.181345v 10.3828h
 0.181345v -12.6918h 0.181345v 1.11008h 0.181345v -2.14353h 0.181345v 4.64587h 0.181345v 1.42767h 0.181345v -1.42767h 0.181345v 3.00588h 0.36269v 1.76429h 0.181345v -10.3828h 0.181345v 2.00019h 0.181345v 1.11008h 0.181345v 2.50233h 0.181345v
 -6.52071h 0.181345v 11.2909h 0.181345v -3.34251h 0.181345v 3.34251h 0.181345v 2.00019h 0.181345v -12.383h 0.181345v 5.6126h 0.181345v 1.42767h 0.181345v 3.34251h 0.181345v -7.27251h 0.181345v 3.93h 0.181345v -5.04008h 0.181345v 1.11008h 0.181345v
 7.27251h 0.181345v -1.76429h 0.181345v -7.65175h 0.181345v 9.41604h 0.181345v -1.76429h 0.181345v -1.57821h 0.181345v -7.94838h 0.181345v 9.52659h 0.181345v -1.57821h 0.181345v -6.07353h 0.181345v 6.07353h 0.181345v 1.57821h 0.181345v -5.50822h
 0.181345v 1.19897h 0.181345v -1.19897h 0.181345v -1.11008h 0.181345v 1.11008h 0.544034v 2.50233h 0.181345v -2.50233h 0.181345v 7.27251h 0.181345v -4.77018h 0.181345v -3.61241h 0.181345v 3.61241h 0.181345v 1.42767h 0.181345v -2.73103h 0.181345v
 -1.19897h 0.181345v 2.50233h 0.181345v -4.64587h 0.181345v 13.7253h 0.181345v -10.3828h 0.181345v -5.21735h 0.181345v -0.856186h 0.181345v 4.87456h 0.181345v -8.54629h 0.181345v 9.74527h 0.181345v -9.07942h 0.181345v 6.77037h 0.36269v -9.2727h
 0.181345v 5.50822h 0.36269v 1.76429h 0.181345v -5.43603h 0.181345v 2.86185h 0.181345v -4.11084h 0.181345v 5.77691h 0.181345v 2.9083h 0.181345v -2.9083h 0.181345v -1.66607h 0.181345v 4.57437h 0.181345v -4.57437h 0.181345v 2.57418h 0.181345v -7.27251h
 0.181345v 4.69833h 0.181345v -3.49936h 0.181345v -0.61148h 0.181345v -1.15281h 0.181345v 3.76448h 0.181345v -1.36268h 0.181345v -3.4722h 0.181345v 2.83469h 0.181345v 4.30924h 0.181345v -6.61829h 0.36269v 1.11008h 0.181345v 2.50233h 0.181345v
 6.77037h 0.181345v -7.43622h 0.181345v -2.4018h 0.181345v 1.76429h 0.181345v 9.1838h 0.181345v -11.4929h 0.181345v 5.80841h 0.181345v -5.26365h 0.181345v 3.06765h 0.181345v 0.696832h 0.181345v -2.00019h 0.181345v 4.30924h 0.181345v 1.76429h
 0.181345v -4.07334h 0.181345v 0.730837h 0.181345v -1.42767h 0.725379v 3.00588h 0.181345v 2.73103h 0.181345v -7.65175h 0.181345v 6.68502h 0.181345v 7.04027h 0.181345v -6.07353h 0.181345v 6.07353h 0.181345v -3.93h 0.181345v -1.11008h 0.181345v
 -3.76448h 0.181345v 2.73103h 0.181345v 6.07353h 0.36269v 7.65175h 0.181345v -4.30924h 0.181345v 2.00019h 0.181345v -6.77037h 0.181345v 4.77018h 0.36269v -1.76429h 0.181345v -1.57821h 0.181345v 7.65175h 0.181345v 6.07353h 0.181345v -10.3828h
 0.181345v -1.76429h 0.181345v 8.80456h 0.181345v 3.34251h 0.181345v -6.07353h 0.181345v 16.4563h 0.181345v -16.4563h 0.181345v 16.4563h 0.181345v -13.7253h 0.181345v -5.04008h 0.181345v 8.38259h 0.181345v 4.30924h 0.181345v 6.07353h 0.181345v
 -6.07353h 0.181345v -7.65175h 0.181345v 13.7253h 0.725379v -6.07353h 0.181345v -4.30924h 0.181345v 20.7656h 0.181345v -10.3828h 0.181345v 10.3828h 0.36269v -20.7656h 0.181345v 20.7656h 0.181345v 10.3828h 0.181345v -20.7656h 0.181345v 20.7656h
 0.36269v -10.3828h 0.181345v 10.3828h 0.181345v -20.7656h 0.181345v 20.7656h 0.181345v -10.3828h 0.181345v -10.3828h 0.906724v -6.07353h 0.181345v 26.8391h 0.36269v -37.2219h 0.181345v 16.4563h 0.181345v 20.7656h 0.181345v -20.7656h 0.181345v
 20.7656h 0.544034v -10.3828h 0.544034v -10.3828h 0.181345v 10.3828h 0.181345v 10.3828h 0.36269v -20.7656h 0.181345v 20.7656h 0.181345v -10.3828h 0.181345v 10.3828h 0.181345v -10.3828h 0.181345v -10.3828h 0.181345v 20.7656h 0.181345v -10.3828h
 0.181345v -10.3828h 0.181345v -6.07353h 0.181345v 26.8391h 0.544034v -10.3828h 0.181345v -16.4563h 0.181345v 26.8391h 0.36269v -10.3828h 0.36269v 10.3828h 0.181345v -10.3828h 0.181345v -10.3828h 0.181345v -6.07353h 0.181345v -4.30924h 0.181345v
 31.1483h 0.725379v -10.3828h 0.36269v 10.3828h 0.181345v -10.3828h 0.181345v 10.3828h 0.906724v -10.3828h 0.181345v 10.3828h 0.181345v -10.3828h 0.725379v 10.3828h 0.36269v -10.3828h 0.36269v -10.3828h 0.181345v 20.7656h 0.181345v -10.3828h 0.36269v
 10.3828h 0.36269v -10.3828h 0.181345v 10.3828h 0.181345v -20.7656h 0.181345v 10.3828h 0.181345v 10.3828h 0.181345v -20.7656h 0.181345v 20.7656h 0.181345v -20.7656h 0.181345v 20.7656h 0.36269v -10.3828h 0.36269v 10.3828h 0.181345v -20.7656h 0.181345v
 10.3828h 0.36269v -10.3828h 0.181345v 20.7656h 0.181345v -10.3828h 0.181345v 10.3828h 0.36269v -10.3828h 0.181345v 10.3828h 0.36269v -20.7656h 0.181345v 20.7656h 0.181345v -10.3828h 0.181345v -10.3828h 0.181345v 10.3828h 0.181345v 10.3828h 0.181345v
 -10.3828h 0.181345v 10.3828h 0.181345v -20.7656h 0.181345v -6.07353h 0.181345v 26.8391h 0.725379v -20.7656h 0.181345v 20.7656h 0.36269v -10.3828h 0.181345v 10.3828h 0.36269v -10.3828h 0.181345v 10.3828h 0.181345v -10.3828h 0.36269v 10.3828h 0.36269v
 -10.3828h 0.544034v -10.3828h 0.181345v 20.7656h 0.36269v -20.7656h 0.181345v 10.3828h 0.544034v 10.3828h 0.181345v -10.3828h 0.181345v 10.3828h 0.181345v -20.7656h 0.181345v -6.07353h 0.181345v 26.8391h 0.906724v -10.3828h 0.181345v 10.3828h
 0.181345v -10.3828h 0.36269v 10.3828h 0.36269v -20.7656h 0.181345v 20.7656h 0.181345v -20.7656h 0.36269v 20.7656h 0.181345v -10.3828h 0.181345v -10.3828h 0.181345v 20.7656h 0.181345v -10.3828h 0.544034v 10.3828h 2.35748v -10.3828h 0.544034v 10.3828h
 0.36269v -10.3828h 0.725379v 10.3828h 0.544034v -20.7656h 0.181345v 20.7656h 0.36269v -10.3828h 0.181345v 10.3828h 0.181345v -20.7656h 0.181345v 20.7656h 1.81345v -10.3828h 0.181345v 10.3828h 0.181345v -10.3828h 0.36269v -10.3828h 0.181345v 10.3828h
 0.36269v -10.3828h 0.36269v 20.7656h 0.36269v -10.3828h 0.36269v 10.3828h 0.36269v -10.3828h 0.181345v 10.3828h 0.181345v -20.7656h 0.181345v 10.3828h 0.181345v 10.3828h 0.181345v -10.3828h 0.181345v 10.3828h 0.181345v -10.3828h 0.181345v 10.3828h
 0.181345v -10.3828h 0.36269v -10.3828h 0.181345v 20.7656h 0.181345v -10.3828h 0.181345v 10.3828h 0.725379v -10.3828h 0.181345v 10.3828h 0.181345v -10.3828h 0.181345v 10.3828h 1.08807v -10.3828h 0.181345v -20.7656h 0.181345v 20.7656h 0.36269v
 10.3828h 0.181345v -10.3828h 0.36269v 10.3828h 0.181345v -10.3828h 0.181345v 10.3828h 0.36269v -10.3828h 0.181345v -10.3828h 0.181345v 10.3828h 0.544034v 10.3828h 0.544034v -20.7656h 0.181345v 10.3828h 0.36269v 10.3828h 0.36269v -10.3828h 0.181345v
 10.3828h 0.36269v -10.3828h 0.181345v 10.3828h 0.725379v -10.3828h 0.36269v 10.3828h 0.181345" fill="none" stroke="black"/>
<path d="M57.1929,280.151h 453.543" fill="none" stroke="black"/>
<path d="M57.1929,272.68v 7.47068" fill="none" stroke="black"/>
<path d="M75.3318,276.415v 3.73534" fill="none" stroke="black"/>
<path d="M93.4707,276.415v 3.73534" fill="none" stroke="black"/>
<path d="M111.61,276.415v 3.73534" fill="none" stroke="black"/>
<path d="M129.749,276.415v 3.73534" fill="none" stroke="black"/>
<path d="M147.887,272.68v 7.47068" fill="none" stroke="black"/>
<path d="M166.026,276.415v 3.73534" fill="none" stroke="black"/>
<path d="M184.165,276.415v 3.73534" fill="none" stroke="black"/>
<path d="M202.304,276.415v 3.73534" fill="none" stroke="black"/>
<path d="M220.443,276.415v 3.73534" fill="none" stroke="black"/>
<path d="M238.582,272.68v 7.47068" fill="none" stroke="black"/>
<path d="M256.721,276.415v 3.73534" fill="none" stroke="black"/>
<path d="M274.86,276.415v 3.73534" fill="none" stroke="black"/>
<path d="M292.999,276.415v 3.73534" fill="none" stroke="black"/>
<path d="M311.138,276.415v 3.73534" fill="none" stroke="black"/>
<path d="M329.277,272.68v 7.47068" fill="none" stroke="black"/>
<path d="M347.415,276.415v 3.73534" fill="none" stroke="black"/>
<path d="M365.554,276.415v 3.73534" fill="none" stroke="black"/>
<path d="M383.693,276.415v 3.73534" fill="none" stroke="black"/>
<path d="M401.832,276.415v 3.73534" fill="none" stroke="black"/>
<path d="M419.971,272.68v 7.47068" fill="none" stroke="black"/>
<path d="M438.11,276.415v 3.73534" fill="none" stroke="black"/>
<path d="M456.249,276.415v 3.73534" fill="none" stroke="black"/>
<path d="M474.388,276.415v 3.73534" fill="none" stroke="black"/>
<path d="M492.527,276.415v 3.73534" fill="none" stroke="black"/>
<path d="M510.666,272.68v 7.47068" fill="none" stroke="black"/>
<path d="M510.666,272.68v 7.47068" fill="none" stroke="black"/>
<text xml:space="preserve" x="54.3523" y="290.27" fill="black" font-size="10.4952" font-family="Helvetica">0</text>
<text xml:space="preserve" x="139.569" y="290.27" fill="black" font-size="10.4952" font-family="Helvetica">500</text>
<text xml:space="preserve" x="227.449" y="290.27" fill="black" font-size="10.4952" font-family="Helvetica">1000</text>
<text xml:space="preserve" x="318.288" y="290.27" fill="black" font-size="10.4952" font-family="Helvetica">1500</text>
<text xml:space="preserve" x="408.831" y="290.27" fill="black" font-size="10.4952" font-family="Helvetica">2000</text>
<text xml:space="preserve" x="499.67" y="290.27" fill="black" font-size="10.4952" font-family="Helvetica">2500</text>
<text xml:space="preserve" x="265.323" y="301.218" fill="black" font-size="10.4952" font-family="Helvetica">Channel</text>
<path d="M57.1929,280.151v -249.023" fill="none" stroke="black"/>
<path d="M63.9961,280.151h -6.80315" fill="none" stroke="black"/>
<path d="M63.9961,277.419h -6.80315" fill="none" stroke="black"/>
<path d="M63.9961,275.11h -6.80315" fill="none" stroke="black"/>
<path d="M63.9961,273.11h -6.80315" fill="none" stroke="black"/>
<path d="M63.9961,271.346h -6.80315" fill="none" stroke="black"/>
<path d="M70.7992,269.768h -13.6063" fill="none" stroke="black"/>
<text xml:space="preserve" x="49.0263" y="273.404" fill="black" font-size="10.4952" font-family="Helvetica">1</text>
<path d="M63.9961,259.385h -6.80315" fill="none" stroke="black"/>
<path d="M63.9961,253.311h -6.80315" fill="none" stroke="black"/>
<path d="M63.9961,249.002h -6.80315" fill="none" stroke="black"/>
<path d="M63.9961,245.66h -6.80315" fill="none" stroke="black"/>
<path d="M63.9961,242.929h -6.80315" fill="none" stroke="black"/>
<path d="M63.9961,240.62h -6.80315" fill="none" stroke="black"/>
<path d="M63.9961,238.619h -6.80315" fill="none" stroke="black"/>
<path d="M63.9961,236.855h -6.80315" fill="none" stroke="black"/>
<path d="M70.7992,235.277h -13.6063" fill="none" stroke="black"/>
<text xml:space="preserve" x="41.629" y="239.081" fill="black" font-size="10.4952" font-family="Helvetica">10</text>
<path d="M63.9961,224.894h -6.80315" fill="none" stroke="black"/>
<path d="M63.9961,218.821h -6.80315" fill="none" stroke="black"/>
<path d="M63.9961,214.511h -6.80315" fill="none" stroke="black"/>
<path d="M63.9961,211.169h -6.80315" fill="none" stroke="black"/>
<path d="M63.9961,208.438h -6.80315" fill="none" stroke="black"/>
<path d="M63.9961,206.129h -6.80315" fill="none" stroke="black"/>
<path d="M63.9961,204.129h -6.80315" fill="none" stroke="black"/>
<path d="M63.9961,202.364h -6.80315" fill="none" stroke="black"/>
<path d="M70.7992,200.786h -13.6063" fill="none" stroke="black"/>
<text xml:space="preserve" x="49.0263" y="200.911" fill="black" font-size="7.16345" font-family="Helvetica">2</text>
<text xml:space="preserve" x="38.0783" y="205.349" fill="black" font-size="10.4952" font-family="Helvetica">10</text>
<path d="M63.9961,190.403h -6.80315" fill="none" stroke="black"/>
<path d="M63.9961,184.33h -6.80315" fill="none" stroke="black"/>
<path d="M63.9961,180.021h -6.80315" fill="none" stroke="black"/>
<path d="M63.9961,176.678h -6.80315" fill="none" stroke="black"/>
<path d="M63.9961,173.947h -6.80315" fill="none" stroke="black"/>
<path d="M63.9961,171.638h -6.80315" fill="none" stroke="black"/>
<path d="M63.9961,169.638h -6.80315" fill="none" stroke="black"/>
<path d="M63.9961,167.873h -6.80315" fill="none" stroke="black"/>
<path d="M70.7992,166.295h -13.6063" fill="none" stroke="black"/>
<text xml:space="preserve" x="49.0263" y="166.291" fill="black" font-size="7.16345" font-family="Helvetica">3</text>
<text xml:space="preserve" x="38.0783" y="171.026" fill="black" font-size="10.4952" font-family="Helvetica">10</text>
<path d="M63.9961,155.912h -6.80315" fill="none" stroke="black"/>
<path d="M63.9961,149.839h -6.80315" fill="none" stroke="black"/>
<path d="M63.9961,145.53h -6.80315" fill="none" stroke="black"/>
<path d="M63.9961,142.187h -6.80315" fill="none" stroke="black"/>
<path d="M63.9961,139.456h -6.80315" fill="none" stroke="black"/>
<path d="M63.9961,137.147h -6.80315" fill="none" stroke="black"/>
<path d="M63.9961,135.147h -6.80315" fill="none" stroke="black"/>
<path d="M63.9961,133.383h -6.80315" fill="none" stroke="black"/>
<path d="M70.7992,131.804h -13.6063" fill="none" stroke="black"/>
<text xml:space="preserve" x="49.0263" y="131.968" fill="black" font-size="7.16345" font-family="Helvetica">4</text>
<text xml:space="preserve" x="38.0783" y="136.406" fill="black" font-size="10.4952" font-family="Helvetica">10</text>
<path d="M63.9961,121.422h -6.80315" fill="none" stroke="black"/>
<path d="M63.9961,115.348h -6.80315" fill="none" stroke="black"/>
<path d="M63.9961,111.039h -6.80315" fill="none" stroke="black"/>
<path d="M63.9961,107.696h -6.80315" fill="none" stroke="black"/>
<path d="M63.9961,104.965h -6.80315" fill="none" stroke="black"/>
<path d="M63.9961,102.656h -6.80315" fill="none" stroke="black"/>
<path d="M63.9961,100.656h -6.80315" fill="none" stroke="black"/>
<path d="M63.9961,98.8918h -6.80315" fill="none" stroke="black"/>
<path d="M70.7992,97.3136h -13.6063" fill="none" stroke="black"/>
<text xml:space="preserve" x="49.0263" y="97.0526" fill="black" font-size="7.16345" font-family="Helvetica">5</text>
<text xml:space="preserve" x="38.0783" y="101.787" fill="black" font-size="10.4952" font-family="Helvetica">10</text>
<path d="M63.9961,86.9308h -6.80315" fill="none" stroke="black"/>
<path d="M63.9961,80.8573h -6.80315" fill="none" stroke="black"/>
<path d="M63.9961,76.548h -6.80315" fill="none" stroke="black"/>
<path d="M63.9961,73.2055h -6.80315" fill="none" stroke="black"/>
<path d="M63.9961,70.4745h -6.80315" fill="none" stroke="black"/>
<path d="M63.9961,68.1655h -6.80315" fill="none" stroke="black"/>
<path d="M63.9961,66.1653h -6.80315" fill="none" stroke="black"/>
<path d="M63.9961,64.401h -6.80315" fill="none" stroke="black"/>
<path d="M70.7992,62.8228h -13.6063" fill="none" stroke="black"/>
<text xml:space="preserve" x="49.0263" y="62.7291" fill="black" font-size="7.16345" font-family="Helvetica">6</text>
<text xml:space="preserve" x="38.0783" y="67.4634" fill="black" font-size="10.4952" font-family="Helvetica">10</text>
<path d="M63.9961,52.44h -6.80315" fill="none" stroke="black"/>
<path d="M63.9961,46.3665h -6.80315" fill="none" stroke="black"/>
<path d="M63.9961,42.0572h -6.80315" fill="none" stroke="black"/>
<path d="M63.9961,38.7147h -6.80315" fill="none" stroke="black"/>
<path d="M63.9961,35.9837h -6.80315" fill="none" stroke="black"/>
<path d="M63.9961,33.6746h -6.80315" fill="none" stroke="black"/>
<path d="M63.9961,31.6744h -6.80315" fill="none" stroke="black"/>
<g transform="rotate(-90,26.5385,191.442)">
<text xml:space="preserve" x="26.5385" y="191.442" fill="black" font-size="10.4952" font-family="Helvetica">Counts/Channel</text>
</g>
<text xml:space="preserve" x="404.097" y="62.7291" fill="black" font-size="14.7788" font-family="Helvetica" font-weight="bold"> = 2.4879 MeV</text>
<text xml:space="preserve" x="398.179" y="65.9839" fill="black" font-size="10.0192" font-family="Helvetica" font-weight="bold">p</text>
<text xml:space="preserve" x="389.006" y="62.7291" fill="black" font-size="14.7788" font-family="Helvetica" font-weight="bold">E</text>
<path d="M262.163,164.868v 25.8765" fill="none" stroke="black"/>
<path d="M264.454,190.744l -2.29122, 3.9685l -2.29122, -3.9685z" fill="black"/>
<path d="M264.454,190.744l -2.29122, 3.9685l -2.29122, -3.9685h 4.58243z" fill="none" stroke="black"/>
<text xml:space="preserve" x="266.803" y="162.741" fill="black" font-size="10.4952" font-family="Helvetica" font-weight="bold">_1 	1.369 MeV</text>
<text xml:space="preserve" x="260.293" y="162.741" fill="black" font-size="10.4952" font-family="Times">&#0945;</text>
<path d="M184.528,131.804v 30.5223" fill="none" stroke="black"/>
<path d="M186.819,162.327l -2.29122, 3.9685l -2.29122, -3.9685z" fill="black"/>
<path d="M186.819,162.327l -2.29122, 3.9685l -2.29122, -3.9685h 4.58243z" fill="none" stroke="black"/>
<text xml:space="preserve" x="172.117" y="129.009" fill="black" font-size="10.4952" font-family="Helvetica" font-weight="bold"># p_1 	0.844 MeV</text>
<path d="M210.104,149.839v 12.4878" fill="none" stroke="black"/>
<path d="M212.395,162.327l -2.29122, 3.9685l -2.29122, -3.9685z" fill="black"/>
<path d="M212.395,162.327l -2.29122, 3.9685l -2.29122, -3.9685h 4.58243z" fill="none" stroke="black"/>
<text xml:space="preserve" x="197.564" y="145.283" fill="black" font-size="10.4952" font-family="Helvetica" font-weight="bold"># p_2 	1.015 MeV</text>
<path d="M497.731,269.768h 12.9342" fill="none" stroke="black"/>
<path d="M504.198,259.385h 6.46709" fill="none" stroke="black"/>
<path d="M504.198,253.311h 6.46709" fill="none" stroke="black"/>
<path d="M504.198,249.002h 6.46709" fill="none" stroke="black"/>
<path d="M504.198,245.66h 6.46709" fill="none" stroke="black"/>
<path d="M504.198,242.929h 6.46709" fill="none" stroke="black"/>
<path d="M504.198,240.62h 6.46709" fill="none" stroke="black"/>
<path d="M504.198,238.619h 6.46709" fill="none" stroke="black"/>
<path d="M504.198,236.855h 6.46709" fill="none" stroke="black"/>
<path d="M497.731,235.277h 12.9342" fill="none" stroke="black"/>
<path d="M504.198,224.894h 6.46709" fill="none" stroke="black"/>
<path d="M504.198,218.821h 6.46709" fill="none" stroke="black"/>
<path d="M504.198,214.511h 6.46709" fill="none" stroke="black"/>
<path d="M504.198,211.169h 6.46709" fill="none" stroke="black"/>
<path d="M504.198,208.438h 6.46709" fill="none" stroke="black"/>
<path d="M504.198,206.129h 6.46709" fill="none" stroke="black"/>
<path d="M504.198,204.129h 6.46709" fill="none" stroke="black"/>
<path d="M504.198,202.364h 6.46709" fill="none" stroke="black"/>
<path d="M497.731,200.786h 12.9342" fill="none" stroke="black"/>
<path d="M504.198,190.403h 6.46709" fill="none" stroke="black"/>
<path d="M504.198,184.33h 6.46709" fill="none" stroke="black"/>
<path d="M504.198,180.021h 6.46709" fill="none" stroke="black"/>
<path d="M504.198,176.678h 6.46709" fill="none" stroke="black"/>
<path d="M504.198,173.947h 6.46709" fill="none" stroke="black"/>
<path d="M504.198,171.638h 6.46709" fill="none" stroke="black"/>
<path d="M504.198,169.638h 6.46709" fill="none" stroke="black"/>
<path d="M504.198,167.873h 6.46709" fill="none" stroke="black"/>
<path d="M497.731,166.295h 12.9342" fill="none" stroke="black"/>
<path d="M504.198,155.912h 6.46709" fill="none" stroke="black"/>
<path d="M504.198,149.839h 6.46709" fill="none" stroke="black"/>
<path d="M504.198,145.53h 6.46709" fill="none" stroke="black"/>
<path d="M504.198,142.187h 6.46709" fill="none" stroke="black"/>
<path d="M504.198,139.456h 6.46709" fill="none" stroke="black"/>
<path d="M504.198,137.147h 6.46709" fill="none" stroke="black"/>
<path d="M504.198,135.147h 6.46709" fill="none" stroke="black"/>
<path d="M504.198,133.383h 6.46709" fill="none" stroke="black"/>
<path d="M497.731,131.804h 12.9342" fill="none" stroke="black"/>
<path d="M504.198,121.422h 6.46709" fill="none" stroke="black"/>
<path d="M504.198,115.348h 6.46709" fill="none" stroke="black"/>
<path d="M504.198,111.039h 6.46709" fill="none" stroke="black"/>
<path d="M504.198,107.696h 6.46709" fill="none" stroke="black"/>
<path d="M504.198,104.965h 6.46709" fill="none" stroke="black"/>
<path d="M504.198,102.656h 6.46709" fill="none" stroke="black"/>
<path d="M504.198,100.656h 6.46709" fill="none" stroke="black"/>
<path d="M504.198,98.8918h 6.46709" fill="none" stroke="black"/>
<path d="M497.731,97.3136h 12.9342" fill="none" stroke="black"/>
<path d="M504.198,86.9308h 6.46709" fill="none" stroke="black"/>
<path d="M504.198,80.8573h 6.46709" fill="none" stroke="black"/>
<path d="M504.198,76.548h 6.46709" fill="none" stroke="black"/>
<path d="M504.198,73.2055h 6.46709" fill="none" stroke="black"/>
<path d="M504.198,70.4745h 6.46709" fill="none" stroke="black"/>
<path d="M504.198,68.1655h 6.46709" fill="none" stroke="black"/>
<path d="M504.198,66.1653h 6.46709" fill="none" stroke="black"/>
<path d="M504.198,64.401h 6.46709" fill="none" stroke="black"/>
<path d="M497.731,62.8228h 12.9342" fill="none" stroke="black"/>
<path d="M504.198,52.44h 6.46709" fill="none" stroke="black"/>
<path d="M504.198,46.3665h 6.46709" fill="none" stroke="black"/>
<path d="M504.198,42.0572h 6.46709" fill="none" stroke="black"/>
<path d="M504.198,38.7147h 6.46709" fill="none" stroke="black"/>
<path d="M504.198,35.9837h 6.46709" fill="none" stroke="black"/>
<path d="M504.198,33.6746h 6.46709" fill="none" stroke="black"/>
<path d="M57.1929,40.5156v -7.46952" fill="none" stroke="black"/>
<path d="M75.3318,40.5156v -7.46952" fill="none" stroke="black"/>
<path d="M93.4707,40.5156v -7.46952" fill="none" stroke="black"/>
<path d="M111.61,40.5156v -7.46952" fill="none" stroke="black"/>
<path d="M129.749,40.5156v -7.46952" fill="none" stroke="black"/>
<path d="M147.887,40.5156v -7.46952" fill="none" stroke="black"/>
<path d="M166.026,40.5156v -7.46952" fill="none" stroke="black"/>
<path d="M184.165,40.5156v -7.46952" fill="none" stroke="black"/>
<path d="M202.304,40.5156v -7.46952" fill="none" stroke="black"/>
<path d="M220.443,40.5156v -7.46952" fill="none" stroke="black"/>
<path d="M238.582,40.5156v -7.46952" fill="none" stroke="black"/>
<path d="M256.721,40.5156v -7.46952" fill="none" stroke="black"/>
<path d="M274.86,40.5156v -7.46952" fill="none" stroke="black"/>
<path d="M292.999,40.5156v -7.46952" fill="none" stroke="black"/>
<path d="M311.138,40.5156v -7.46952" fill="none" stroke="black"/>
<path d="M329.277,40.5156v -7.46952" fill="none" stroke="black"/>
<path d="M347.415,40.5156v -7.46952" fill="none" stroke="black"/>
<path d="M365.554,40.5156v -7.46952" fill="none" stroke="black"/>
<path d="M383.693,40.5156v -7.46952" fill="none" stroke="black"/>
<path d="M401.832,40.5156v -7.46952" fill="none" stroke="black"/>
<path d="M419.971,40.5156v -7.46952" fill="none" stroke="black"/>
<path d="M438.11,40.5156v -7.46952" fill="none" stroke="black"/>
<path d="M456.249,40.5156v -7.46952" fill="none" stroke="black"/>
<path d="M474.388,40.5156v -7.46952" fill="none" stroke="black"/>
<path d="M492.527,40.5156v -7.46952" fill="none" stroke="black"/>
<path d="M510.666,40.5156v -7.46952" fill="none" stroke="black"/></svg>
