<?xml version="1.0" standalone="no"?>
<svg width="567.429" height="311.778" viewBox="0 0 567.429 311.778" xmlns="http://www.w3.org/2000/svg" shape-rendering="crispEdges">
<title>
Yields/P1/run_0099/det3_Fit.svg
</title>
<desc>
Creator: ROOT Version 6.12/06
CreationDate: Mon Apr 15 10:29:01 2019</desc>
<defs>
</defs>
<rect x="0.5" y="0" width="566.929" height="311.278" fill="white"/>
<rect x="57.1929" y="31.1278" width="453.543" height="249.023" fill="white"/>
<rect x="57.1929" y="31.1278" width="453.543" height="249.023" fill="none" stroke="black"/>
<path d="M57.1929,40.7195h 0.181345v 239.431h 7.61648v -10.4032h 0.181345v 10.4032h 0.544034v -10.4032h 0.181345v 10.4032h 8.5232v -10.4032h 0.181345v 10.4032h 0.906724v -10.4032h 0.181345v 10.4032h 1.26941v -10.4032h 0.181345v 10.4032h 0.36269v
 -10.4032h 0.181345v 10.4032h 1.08807v -20.8063h 0.181345v 20.8063h 2.72017v -10.4032h 0.36269v 10.4032h 0.725379v -10.4032h 0.181345v 10.4032h 2.53883v -10.4032h 0.181345v 10.4032h 0.725379v -10.4032h 0.181345v 10.4032h 1.45076v -10.4032h 0.181345v
 10.4032h 0.544034v -10.4032h 0.181345v -29.2054h 0.181345v -13.3172h 0.181345v -10.4032h 0.181345v -17.3465h 0.181345v -9.47155h 0.181345v -5.03941h 0.181345v -5.8368h 0.181345v -3.35624h 0.181345v -1.1572h 0.181345v -2.14598h 0.181345v -1.08597h
 0.181345v -1.05258h 0.181345v -1.07662h 0.181345v -0.724319h 0.181345v -0.228072h 0.181345v 0.441721h 0.181345v -1.35366h 0.181345v -1.34683h 0.181345v -0.149044h 0.181345v 0.299583h 0.181345v -1.0375h 0.36269v -0.943904h 0.181345v 0.581225h
 0.181345v -0.327176h 0.181345v -0.174287h 0.181345v -0.867491h 0.181345v -0.0627713h 0.181345v 0.63985h 0.36269v -0.387174h 0.181345v 0.361049h 0.181345v 0.250039h 0.181345v -0.838688h 0.181345v -0.518015h 0.181345v 0.368177h 0.181345v 0.212714h
 0.181345v 0.775811h 0.181345v -0.750587h 0.181345v -0.163207h 0.181345v -0.418643h 0.181345v -0.371786h 0.181345v 0.840458h 0.181345v -0.946693h 0.181345v 0.896664h 0.181345v -0.503403h 0.181345v 0.742539h 0.181345v 0.307617h 0.181345v -0.180208h
 0.181345v -0.403957h 0.181345v 0.416757h 0.181345v -0.503692h 0.181345v 1.7724h 0.181345v -0.479987h 0.181345v -0.903538h 0.181345v 1.39747h 0.181345v -0.125015h 0.181345v -0.847105h 0.181345v 0.833279h 0.181345v 0.307164h 0.181345v 0.141725h
 0.181345v -1.03169h 0.181345v 0.500108h 0.181345v -0.685075h 0.181345v -1.55766h 0.181345v -1.34631h 0.181345v -1.53146h 0.181345v -3.35689h 0.181345v -2.83891h 0.181345v -2.99179h 0.181345v -3.263h 0.181345v -2.52462h 0.181345v -2.36804h 0.181345v
 -2.05288h 0.181345v -1.37352h 0.181345v -1.15662h 0.181345v -0.639138h 0.181345v 0.192421h 0.181345v 0.503504h 0.181345v 1.57247h 0.181345v 1.89083h 0.181345v 1.7717h 0.181345v 3.48435h 0.181345v 3.11293h 0.181345v 3.25177h 0.181345v 4.52219h
 0.181345v 4.76695h 0.181345v 3.65523h 0.181345v 1.78065h 0.181345v 3.06162h 0.181345v 1.72207h 0.181345v 1.71368h 0.181345v 1.28037h 0.181345v 0.859506h 0.181345v -0.204999h 0.181345v -0.144732h 0.181345v -0.426006h 0.181345v -0.222354h 0.181345v
 1.41668h 0.181345v -0.448051h 0.181345v 0.75436h 0.181345v 0.925372h 0.181345v -0.293337h 0.181345v 0.492129h 0.181345v -1.33923h 0.181345v 0.246048h 0.181345v -0.607719h 0.181345v 0.361671h 0.181345v 0.911798h 0.181345v 0.228645h 0.181345v
 0.986197h 0.181345v -1.91157h 0.181345v 0.56762h 0.181345v 1.41441h 0.181345v -1.44652h 0.181345v 0.790109h 0.181345v 0.307354h 0.181345v -0.936252h 0.181345v 0.867405h 0.181345v -0.867405h 0.181345v 2.12034h 0.181345v -2.18503h 0.181345v 1.27953h
 0.181345v -1.78727h 0.181345v 3.38031h 0.181345v -0.271131h 0.181345v -0.453695h 0.181345v 0.187376h 0.181345v 0.498416h 0.181345v -0.685791h 0.181345v 1.36359h 0.181345v -0.322778h 0.181345v 0.652651h 0.181345v -0.329873h 0.181345v 0.16403h
 0.181345v -0.56643h 0.181345v 0.280543h 0.181345v -0.672435h 0.181345v 0.999611h 0.181345v 0.334467h 0.181345v -0.0843182h 0.181345v -0.738277h 0.181345v -0.119591h 0.181345v -0.584066h 0.181345v 2.08618h 0.181345v -0.517589h 0.181345v 0.517589h
 0.181345v 1.62037h 0.181345v -2.01023h 0.181345v 1.20133h 0.181345v -0.275395h 0.181345v 0.986836h 0.181345v -0.240914h 0.181345v -0.284083h 0.181345v -1.34495h 0.181345v 1.06615h 0.181345v 1.49969h 0.181345v -0.888927h 0.181345v -0.974626h
 0.181345v 1.51158h 0.181345v 1.02839h 0.181345v -1.85032h 0.181345v -0.0469753h 0.181345v 0.968633h 0.181345v -0.68455h 0.181345v 0.338373h 0.181345v -0.993057h 0.181345v 1.84805h 0.181345v 0.0518432h 0.181345v -0.409817h 0.181345v -0.200787h
 0.181345v -0.538703h 0.181345v -0.426814h 0.181345v 1.891h 0.181345v -1.17275h 0.181345v 1.01448h 0.181345v -1.06345h 0.181345v -0.386095h 0.181345v 0.984524h 0.181345v -0.401592h 0.181345v -1.50683h 0.181345v 3.40518h 0.181345v -3.62753h 0.181345v
 1.05126h 0.181345v 0.335134h 0.181345v -0.240143h 0.181345v -0.788887h 0.181345v -1.66696h 0.181345v 0.831714h 0.181345v -2.87119h 0.181345v 0.649512h 0.181345v -1.60711h 0.181345v 1.02839h 0.181345v -1.06148h 0.181345v 0.300516h 0.181345v
 -0.947539h 0.181345v 0.15916h 0.181345v 2.2763h 0.181345v -1.31833h 0.181345v 1.09652h 0.181345v 1.42314h 0.181345v 0.367576h 0.181345v 0.633368h 0.181345v 1.8814h 0.181345v -1.17498h 0.181345v 1.77341h 0.181345v 1.2183h 0.181345v -0.327473h
 0.181345v -0.634261h 0.181345v 0.103866h 0.36269v 1.19265h 0.181345v -0.444732h 0.181345v 1.92607h 0.181345v -1.25393h 0.181345v -0.339832h 0.181345v 0.864458h 0.181345v -1.03153h 0.181345v 0.854611h 0.181345v -0.347705h 0.181345v 0.763812h
 0.181345v -1.97395h 0.181345v 1.26753h 0.181345v 0.173512h 0.181345v -0.458314h 0.181345v 0.811473h 0.181345v -0.867791h 0.181345v 1.60006h 0.181345v -1.65617h 0.181345v 0.339832h 0.181345v -0.726816h 0.181345v -0.108758h 0.181345v 0.551849h
 0.181345v 1.41362h 0.181345v -0.123022h 0.181345v -0.659166h 0.181345v 0.117715h 0.181345v 0.726364h 0.181345v -0.306935h 0.181345v -1.44704h 0.181345v 1.56906h 0.181345v -0.71768h 0.181345v -1.01601h 0.181345v 0.66964h 0.181345v -2.07528h 0.181345v
 3.13933h 0.181345v -1.67901h 0.181345v -2.14044h 0.181345v 3.81945h 0.181345v -3.03961h 0.181345v -0.968633h 0.181345v 2.22007h 0.181345v -2.36012h 0.181345v 1.4119h 0.181345v -1.27185h 0.181345v 1.95061h 0.181345v -1.76182h 0.181345v -0.18879h
 0.181345v 0.671423h 0.181345v 1.06705h 0.181345v 1.26289h 0.181345v -1.05075h 0.181345v 1.16576h 0.181345v -1.00467h 0.181345v 1.5334h 0.181345v -1.20593h 0.181345v 0.278461h 0.181345v -0.551849h 0.181345v 2.72556h 0.181345v -2.11739h 0.181345v
 0.692828h 0.181345v 2.22521h 0.181345v -3.25282h 0.181345v 0.50501h 0.181345v 1.49911h 0.181345v 0.190387h 0.181345v -1.10769h 0.181345v 1.23597h 0.181345v -0.568815h 0.181345v 0.0621475h 0.181345v 0.701166h 0.181345v 0.329873h 0.181345v -1.64123h
 0.181345v -1.80094h 0.181345v 3.1123h 0.181345v -0.576094h 0.181345v 1.58829h 0.181345v -3.25102h 0.181345v 2.7027h 0.181345v -1.35072h 0.181345v 0.564064h 0.181345v -1.57493h 0.181345v 1.01086h 0.181345v 1.35072h 0.181345v -0.722654h 0.181345v
 -1.52348h 0.181345v 0.834026h 0.181345v 0.625449h 0.181345v 1.83176h 0.181345v -2.39583h 0.181345v -0.364599h 0.181345v 0.928663h 0.181345v -0.253316h 0.181345v 1.79919h 0.181345v -0.759218h 0.181345v -1.47324h 0.181345v 0.184157h 0.181345v
 0.186445h 0.181345v -1.25894h 0.181345v 1.0725h 0.181345v -0.305685h 0.181345v 0.808112h 0.181345v -1.6895h 0.181345v 2.01227h 0.181345v -1.19129h 0.181345v -0.357365h 0.181345v -0.802177h 0.181345v 0.626636h 0.181345v 0.234514h 0.181345v -0.46542h
 0.181345v 0.703657h 0.181345v 1.05694h 0.181345v -1.11686h 0.36269v -0.528733h 0.181345v 0.769841h 0.181345v 0.940303h 0.181345v -1.06134h 0.181345v -0.47462h 0.181345v 0.117255h 0.181345v 0.417761h 0.181345v -0.881384h 0.181345v 0.760833h 0.181345v
 -1.15508h 0.181345v -1.0725h 0.181345v 1.75483h 0.181345v -1.0122h 0.181345v -0.0542807h 0.181345v 0.664696h 0.181345v -0.986321h 0.181345v 1.62262h 0.181345v -0.117715h 0.36269v 1.34862h 0.181345v -2.03615h 0.181345v 0.512678h 0.181345v -0.0578367h
 0.181345v 2.37142h 0.181345v 0.067759h 0.181345v -1.11226h 0.181345v -0.617725h 0.181345v -0.240143h 0.181345v 2.31359h 0.181345v -0.478675h 0.181345v -0.722654h 0.181345v 0.655502h 0.181345v -0.719504h 0.181345v 1.54587h 0.181345v -2.65357h
 0.181345v 1.23597h 0.181345v -0.381595h 0.181345v 0.381595h 0.181345v -0.0642768h 0.181345v 0.722654h 0.181345v -0.0671527h 0.181345v -0.0668536h 0.181345v 0.201461h 0.181345v 0.97765h 0.181345v 0.815483h 0.181345v 0.230316h 0.181345v -0.900786h
 0.181345v 1.77687h 0.181345v -0.244048h 0.181345v -1.96372h 0.181345v 1.88324h 0.181345v -0.551559h 0.181345v -2.48938h 0.181345v 3.44771h 0.181345v -1.41547h 0.181345v 1.33323h 0.181345v -0.563392h 0.181345v -1.57341h 0.181345v 2.05501h 0.181345v
 -1.54865h 0.181345v 1.63044h 0.181345v -1.1064h 0.181345v 1.52218h 0.181345v -1.2143h 0.181345v 1.55541h 0.181345v 0.616276h 0.181345v -1.12509h 0.181345v -0.572605h 0.181345v 1.34245h 0.181345v 1.3779h 0.181345v -0.658791h 0.181345v 0.467596h
 0.181345v -2.68882h 0.181345v 2.97653h 0.181345v -1.56194h 0.181345v 0.175541h 0.181345v 0.357365h 0.181345v -1.54511h 0.181345v -1.02461h 0.181345v 1.35448h 0.181345v -1.95192h 0.181345v 2.63424h 0.181345v -1.25493h 0.181345v 0.324523h 0.181345v
 1.01792h 0.181345v -0.261026h 0.181345v 1.35304h 0.181345v -0.372904h 0.181345v -1.2367h 0.181345v 2.18693h 0.181345v -3.40781h 0.181345v 1.91505h 0.36269v 0.6349h 0.181345v -0.6349h 0.181345v 1.69025h 0.181345v -1.7788h 0.181345v -0.941018h
 0.181345v 0.765477h 0.181345v -0.345041h 0.181345v 1.52457h 0.181345v -1.17953h 0.181345v 0.99192h 0.181345v 0.764935h 0.181345v 1.87852h 0.181345v -0.758719h 0.181345v -1.31472h 0.181345v 1.63521h 0.181345v -2.84398h 0.181345v 0.361671h 0.181345v
 1.95192h 0.181345v -2.66675h 0.181345v 0.442764h 0.181345v 2.75438h 0.181345v -1.14308h 0.181345v -1.33923h 0.181345v 0.091796h 0.181345v 0.0923609h 0.181345v 2.40652h 0.181345v -0.215955h 0.181345v -1.72004h 0.181345v 2.37745h 0.181345v -2.84798h
 0.181345v -0.366082h 0.181345v 1.92682h 0.181345v -1.18551h 0.181345v 2.14044h 0.181345v -2.23513h 0.181345v 0.285887h 0.181345v 0.891863h 0.181345v -1.08306h 0.181345v 0.981304h 0.36269v -2.34253h 0.181345v 3.50167h 0.181345v -1.46032h 0.181345v
 -0.680118h 0.181345v -0.375235h 0.181345v 0.662948h 0.181345v -1.02903h 0.181345v 0.932511h 0.181345v 1.09746h 0.181345v -2.02997h 0.181345v 1.42143h 0.181345v -1.14771h 0.181345v 0.658791h 0.36269v 0.588648h 0.181345v -1.78998h 0.181345v 1.59118h
 0.181345v -1.76776h 0.181345v -0.769841h 0.181345v 2.34141h 0.181345v -2.08915h 0.181345v -1.14251h 0.181345v 0.890259h 0.181345v -2.80572h 0.181345v 2.47584h 0.181345v 0.246722h 0.181345v -2.01448h 0.181345v 1.76776h 0.181345v -0.871457h 0.181345v
 -1.18356h 0.181345v -1.99523h 0.181345v 0.314657h 0.181345v 0.985601h 0.181345v 0.136443h 0.181345v 0.629824h 0.181345v -1.43047h 0.181345v 0.938343h 0.181345v -1.44932h 0.181345v -0.18722h 0.181345v 0.313343h 0.181345v 1.74403h 0.181345v -1.99523h
 0.181345v -0.0621475h 0.181345v -0.84408h 0.181345v 2.61959h 0.36269v 1.31227h 0.181345v -3.57591h 0.181345v 2.33361h 0.181345v -1.78334h 0.181345v 0.832247h 0.181345v 0.468012h 0.181345v 1.0549h 0.181345v 1.05632h 0.181345v -3.34907h 0.181345v
 0.444262h 0.181345v -1.23597h 0.181345v 0.917308h 0.181345v -0.617725h 0.181345v -0.358788h 0.181345v -0.636298h 0.181345v -2.10994h 0.181345v -2.4047h 0.181345v -0.290632h 0.181345v 0.501727h 0.181345v -2.67959h 0.181345v -1.09701h 0.181345v
 -2.32303h 0.181345v -1.01281h 0.181345v -1.43769h 0.181345v -0.819067h 0.181345v -2.56844h 0.181345v 0.808275h 0.181345v -2.07736h 0.181345v -0.51998h 0.181345v 0.0170455h 0.181345v -0.486627h 0.181345v -0.535209h 0.181345v -0.424133h 0.181345v
 0.34468h 0.181345v 0.417825h 0.181345v -0.194289h 0.181345v 0.308796h 0.181345v 1.3388h 0.181345v 1.25378h 0.181345v 0.435636h 0.181345v 0.615193h 0.181345v 2.20582h 0.181345v 1.85591h 0.181345v 1.86755h 0.181345v 1.5365h 0.181345v 1.52024h
 0.181345v 2.25656h 0.181345v 1.48814h 0.181345v 3.32465h 0.181345v 1.7449h 0.181345v -0.338809h 0.181345v 1.04027h 0.181345v 3.18836h 0.181345v -0.694163h 0.181345v 1.422h 0.181345v -1.16543h 0.181345v 1.83259h 0.181345v 1.32365h 0.181345v 0.431932h
 0.181345v -1.85272h 0.36269v 3.34907h 0.181345v -3.15415h 0.181345v 2.32994h 0.181345v -0.227407h 0.181345v 1.05162h 0.181345v -0.240143h 0.181345v 0.857868h 0.181345v -0.373677h 0.181345v 0.123528h 0.181345v -0.123528h 0.181345v -1.18239h 0.181345v
 -0.989937h 0.181345v 0.322778h 0.181345v 1.0122h 0.181345v 0.960879h 0.181345v -1.30592h 0.181345v -0.337286h 0.181345v 1.76776h 0.181345v -0.248082h 0.181345v -0.602836h 0.181345v 0.850918h 0.181345v -0.612681h 0.181345v 0.364599h 0.181345v
 0.756897h 0.181345v -0.756897h 0.181345v -2.17233h 0.181345v 1.45178h 0.181345v 1.47745h 0.181345v 1.35304h 0.36269v -1.98641h 0.181345v 0.504538h 0.181345v 0.258775h 0.181345v 0.13108h 0.181345v -1.14044h 0.181345v -1.50792h 0.181345v 2.7806h
 0.181345v 0.268018h 0.181345v -0.134607h 0.181345v -2.46596h 0.181345v 5.09553h 0.181345v -2.62957h 0.181345v -0.783235h 0.181345v 0.917842h 0.181345v -0.917842h 0.181345v 3.57333h 0.181345v -2.38259h 0.181345v -1.063h 0.181345v -0.254389h 0.181345v
 -0.617725h 0.181345v 3.07918h 0.181345v -1.55156h 0.181345v -2.00412h 0.181345v 1.60739h 0.181345v 0.531333h 0.181345v 1.71714h 0.181345v -2.24847h 0.181345v 0.667159h 0.181345v -1.554h 0.181345v 0.248082h 0.181345v 3.98783h 0.181345v 0.329873h
 0.181345v -1.58131h 0.181345v -0.443636h 0.181345v -1.25727h 0.36269v 1.70091h 0.181345v -0.732272h 0.181345v 1.98371h 0.181345v -2.68191h 0.181345v -0.403843h 0.181345v -1.98751h 0.181345v 1.46542h 0.181345v 2.20707h 0.181345v -2.58705h 0.181345v
 0.769841h 0.181345v -1.01792h 0.181345v 1.69107h 0.181345v 0.704759h 0.181345v 0.145012h 0.181345v 0.443636h 0.181345v -1.43047h 0.181345v 1.73369h 0.181345v -2.91401h 0.181345v 3.69998h 0.36269v -3.05574h 0.181345v 1.09202h 0.181345v -0.555938h
 0.181345v -0.403843h 0.181345v -2.99971h 0.181345v -0.63876h 0.181345v 0.63876h 0.181345v -3.65055h 0.181345v -1.06956h 0.181345v 0.0796214h 0.181345v -2.76298h 0.181345v -1.39421h 0.181345v -0.180466h 0.181345v -4.10695h 0.181345v 0.368328h
 0.181345v -3.25556h 0.181345v -0.803572h 0.181345v -1.68057h 0.181345v -1.42469h 0.181345v -0.706085h 0.181345v -1.61989h 0.181345v -1.32654h 0.181345v 0.0454118h 0.181345v -2.31359h 0.181345v -0.365847h 0.181345v -0.850469h 0.181345v -0.0179636h
 0.181345v -0.854876h 0.181345v 0.222101h 0.181345v 0.260422h 0.181345v 0.0175232h 0.181345v 0.773532h 0.181345v 0.545144h 0.181345v 0.64542h 0.181345v 0.549529h 0.181345v 1.43462h 0.181345v 0.439759h 0.181345v 3.56196h 0.181345v 0.149638h 0.181345v
 0.994723h 0.181345v 4.2856h 0.181345v 0.17202h 0.181345v 1.9363h 0.181345v 2.28082h 0.181345v 1.88999h 0.181345v 0.869338h 0.181345v 2.22207h 0.181345v 3.48943h 0.181345v 1.81821h 0.181345v 2.33255h 0.181345v -1.63435h 0.181345v 2.4532h 0.181345v
 3.81201h 0.181345v 0.366082h 0.181345v 3.30282h 0.181345v 0.953247h 0.181345v -1.18239h 0.181345v 1.43047h 0.181345v -0.968633h 0.181345v 0.720551h 0.181345v -1.63044h 0.36269v 4.61492h 0.181345v 0.612681h 0.181345v 0.315982h 0.181345v 1.33498h
 0.181345v -2.56085h 0.181345v -2.93131h 0.181345v -0.476504h 0.181345v 5.28634h 0.181345v -3.28222h 0.181345v 0.545828h 0.181345v -0.811473h 0.181345v 1.66934h 0.36269v 3.27568h 0.181345v -6.6835h 0.181345v 3.11638h 0.181345v -0.285887h 0.181345v
 3.85301h 0.181345v 0.750587h 0.181345v -2.14774h 0.181345v -1.2781h 0.181345v 1.2781h 0.36269v -2.45585h 0.181345v -4.38833h 0.181345v 3.8324h 0.181345v 5.15953h 0.181345v -5.69561h 0.181345v 3.54787h 0.181345v 0.337286h 0.36269v -2.79314h 0.36269v
 -1.09202h 0.181345v 0.811473h 0.181345v 0.56643h 0.36269v 1.51731h 0.36269v -3.91314h 0.181345v 0.500333h 0.181345v 1.89549h 0.181345v -0.285887h 0.181345v -1.09202h 0.181345v 1.96655h 0.181345v -0.588648h 0.181345v -1.89549h 0.181345v 3.09682h
 0.181345v -3.59715h 0.36269v -0.48419h 0.181345v 3.77188h 0.181345v -1.17775h 0.181345v -0.280543h 0.181345v -3.01179h 0.181345v 0.229143h 0.181345v -0.229143h 0.181345v 0.46184h 0.181345v 1.47745h 0.181345v 1.0725h 0.181345v -3.01179h 0.181345v
 1.68272h 0.181345v -0.984524h 0.181345v -0.6982h 0.181345v 4.16686h 0.181345v -2.98447h 0.181345v 3.59715h 0.181345v -3.09682h 0.181345v 0.783235h 0.181345v -0.526672h 0.181345v -0.508815h 0.181345v -0.968633h 0.181345v 4.95647h 0.181345v -3.98783h
 0.181345v 0.252251h 0.181345v 3.09682h 0.181345v -2.57923h 0.181345v 0.265646h 0.181345v 4.31771h 0.181345v -6.78367h 0.181345v 1.93929h 0.181345v 3.15624h 0.181345v 1.33498h 0.36269v -4.74778h 0.181345v 3.09682h 0.181345v -0.909891h 0.181345v
 -0.291438h 0.181345v 0.891863h 0.181345v -1.45829h 0.181345v 0.857868h 0.181345v 0.600424h 0.181345v -3.28769h 0.181345v 0.756897h 0.181345v 0.261026h 0.181345v 3.88515h 0.181345v -3.07368h 0.181345v 0.56643h 0.181345v 1.20133h 0.181345v -1.20133h
 0.181345v -0.841825h 0.181345v 0.555938h 0.181345v 3.13818h 0.181345v -2.85229h 0.181345v -0.56643h 0.181345v 1.15508h 0.181345v -3.70502h 0.181345v 2.83049h 0.181345v 0.874535h 0.181345v 1.9186h 0.181345v 0.345041h 0.181345v -1.96043h 0.181345v
 6.39493h 0.181345v -9.43454h 0.181345v 1.03549h 0.181345v 1.11226h 0.181345v 1.51731h 0.181345v -0.625449h 0.181345v 2.31359h 0.181345v -2.91401h 0.181345v -1.4037h 0.181345v 2.00412h 0.181345v 2.67526h 0.181345v -4.94502h 0.181345v 1.66934h
 0.181345v -2.18693h 0.36269v 5.46261h 0.181345v -0.71483h 0.181345v -2.85229h 0.181345v 2.50725h 0.181345v -3.34907h 0.181345v 3.69411h 0.181345v 2.25553h 0.181345v 1.26909h 0.181345v -6.94333h 0.181345v 2.73639h 0.181345v 0.337286h 0.181345v
 -2.21581h 0.181345v 2.21581h 0.181345v 1.05987h 0.181345v -5.71486h 0.181345v 1.58131h 0.181345v 1.76776h 0.181345v 0.63876h 0.181345v -0.322778h 0.181345v 2.04981h 0.181345v -2.04981h 0.181345v 1.68814h 0.36269v 4.55785h 0.181345v -4.55785h
 0.181345v -1.68814h 0.181345v 0.322778h 0.181345v 4.10175h 0.181345v -1.23428h 0.181345v -1.85527h 0.181345v 0.71483h 0.181345v 1.14044h 0.181345v 4.05668h 0.181345v -2.8224h 0.181345v -1.23428h 0.181345v 4.05668h 0.181345v 0.526672h 0.181345v
 -4.58335h 0.181345v 2.11739h 0.181345v 4.16686h 0.181345v -3.70502h 0.181345v 2.00412h 0.181345v 3.61951h 0.181345v -3.61951h 0.181345v 0.545828h 0.181345v -2.54995h 0.181345v -1.34495h 0.181345v 0.883114h 0.181345v -1.30592h 0.36269v 8.82186h
 0.181345v -7.0541h 0.181345v 2.54995h 0.181345v 2.40652h 0.181345v -0.63876h 0.181345v 0.63876h 0.181345v 2.86747h 0.181345v -5.81982h 0.181345v 3.61951h 0.181345v -2.50725h 0.181345v 8.25543h 0.181345v -8.25543h 0.181345v 2.50725h 0.181345v
 2.20031h 0.181345v 2.57923h 0.181345v -4.08135h 0.181345v -0.6982h 0.181345v 3.01179h 0.181345v -2.31359h 0.181345v -1.36536h 0.181345v -1.25144h 0.181345v 9.81452h 0.181345v -10.9696h 0.181345v 2.40652h 0.181345v 12.5008h 0.181345v -3.93772h
 0.181345v 1.20133h 0.181345v -4.31771h 0.181345v -6.69815h 0.181345v -4.16686h 0.181345v 17.9191h 0.181345v -7.0541h 0.181345v -4.08135h 0.181345v 0.732272h 0.36269v -1.43047h 0.181345v 0.6982h 0.181345v 1.50211h 0.181345v -4.11891h 0.181345v
 12.3218h 0.181345v -3.61951h 0.181345v -2.91401h 0.36269v 0.909891h 0.181345v 8.63541h 0.181345v -11.2146h 0.181345v 9.63333h 0.36269v -9.63333h 0.181345v 8.20286h 0.181345v 1.43047h 0.181345v -5.04998h 0.181345v -6.08546h 0.181345v 6.08546h
 0.181345v 3.61951h 0.181345v -1.30592h 0.181345v -1.20133h 0.181345v -1.11226h 0.181345v -7.45082h 0.181345v 3.67895h 0.181345v 8.82186h 0.181345v -7.0541h 0.181345v 0.968633h 0.181345v -5.04998h 0.181345v -0.6982h 0.181345v 3.86965h 0.181345v
 -0.857868h 0.181345v 0.857868h 0.181345v -8.01583h 0.181345v 4.84438h 0.181345v -4.31771h 0.181345v 11.5154h 0.181345v -6.46545h 0.181345v -2.09763h 0.181345v -1.25144h 0.181345v -2.73639h 0.181345v -3.14761h 0.181345v 2.65548h 0.181345v 8.15891h
 0.181345v -9.09725h 0.181345v 3.57822h 0.181345v -0.56643h 0.181345v -2.54995h 0.181345v 1.47745h 0.181345v 1.0725h 0.181345v -2.54995h 0.36269v 0.476504h 0.181345v 2.63987h 0.181345v -2.14774h 0.181345v 1.58131h 0.181345v 1.15508h 0.181345v 1.9186h
 0.36269v 4.77955h 0.181345v -4.77955h 0.181345v 3.01179h 0.181345v -8.63541h 0.181345v 4.95647h 0.181345v 4.53681h 0.181345v -2.43918h 0.181345v 3.34907h 0.544034v 4.31771h 0.181345v -5.2276h 0.181345v -5.78826h 0.181345v 9.81452h 0.181345v
 -7.89592h 0.181345v -3.61951h 0.181345v 4.31771h 0.181345v -4.84438h 0.181345v 1.0725h 0.36269v -3.01179h 0.181345v 1.43047h 0.181345v -1.87852h 0.181345v -2.43918h 0.181345v -3.04586h 0.181345v -0.891863h 0.181345v -3.11638h 0.181345v -1.129h
 0.181345v 1.6055h 0.181345v 1.79805h 0.181345v -7.39138h 0.181345v 2.14774h 0.181345v -0.56643h 0.181345v -2.39279h 0.181345v -3.25398h 0.181345v 1.46868h 0.181345v -3.3771h 0.181345v 0.923898h 0.181345v 0.48419h 0.181345v -1.51968h 0.181345v
 -1.0725h 0.181345v -2.56288h 0.181345v 0.442764h 0.181345v -2.47957h 0.181345v -1.03041h 0.181345v 0.803572h 0.181345v -0.516317h 0.181345v 0.366977h 0.181345v 0.684055h 0.181345v -0.905316h 0.181345v 0.983283h 0.181345v -2.77543h 0.181345v 1.43047h
 0.181345v -3.77188h 0.181345v 1.15508h 0.181345v 0.181193h 0.181345v 0.811473h 0.181345v 0.12883h 0.181345v -2.38734h 0.181345v 0.562186h 0.181345v 0.46542h 0.181345v 0.726364h 0.181345v 1.09319h 0.181345v -4.26759h 0.181345v 1.75522h 0.181345v
 -0.662252h 0.181345v 0.327473h 0.181345v -1.52049h 0.181345v 0.872541h 0.181345v -1.02139h 0.181345v 1.28798h 0.181345v -1.28798h 0.181345v 0.299185h 0.181345v -0.249733h 0.181345v 1.78635h 0.181345v 0.86115h 0.181345v -1.13756h 0.181345v 3.50047h
 0.181345v -1.76007h 0.181345v -0.424514h 0.181345v 1.70808h 0.181345v 0.897333h 0.181345v 1.10679h 0.181345v 1.36171h 0.181345v 1.40534h 0.181345v 2.49888h 0.181345v -1.93599h 0.181345v 5.33954h 0.181345v -0.403843h 0.181345v 1.24567h 0.181345v
 4.90635h 0.181345v 0.405663h 0.36269v 5.09115h 0.181345v 2.16996h 0.36269v 1.39716h 0.181345v 4.19618h 0.181345v 2.63987h 0.181345v -4.02627h 0.181345v 9.5453h 0.181345v -1.58131h 0.181345v 2.43918h 0.181345v -2.43918h 0.181345v 8.9727h 0.181345v
 3.01179h 0.181345v -3.01179h 0.181345v 9.09725h 0.181345v -11.6045h 0.181345v 9.29091h 0.181345v 2.31359h 0.181345v -4.31771h 0.181345v 2.00412h 0.181345v -8.08958h 0.181345v 8.08958h 0.181345v -2.00412h 0.181345v 7.0541h 0.36269v -7.0541h 0.181345v
 7.0541h 0.36269v 7.66678h 0.181345v -7.66678h 0.181345v -2.73639h 0.181345v 10.4032h 0.181345v -4.31771h 0.181345v 4.31771h 0.181345v -10.4032h 0.181345v 2.73639h 0.181345v 7.66678h 0.181345v -7.66678h 0.181345v -2.73639h 0.181345v 26.8918h
 0.181345v -24.1554h 0.181345v -2.73639h 0.181345v 10.4032h 0.181345v -12.7168h 0.181345v 18.8022h 0.181345v 10.4032h 0.181345v -31.2095h 0.181345v 31.2095h 0.181345v -16.4886h 0.181345v -7.66678h 0.181345v 3.34907h 0.181345v -6.08546h 0.181345v
 6.08546h 0.36269v -13.7522h 0.181345v 5.35319h 0.181345v 8.39905h 0.181345v 4.31771h 0.36269v -4.31771h 0.181345v -8.39905h 0.181345v 29.2054h 0.181345v -20.8063h 0.181345v 10.4032h 0.181345v -18.8022h 0.181345v 29.2054h 0.181345v -31.2095h
 0.181345v 10.4032h 0.36269v -8.39905h 0.181345v 5.04998h 0.36269v 24.1554h 0.181345v -10.4032h 0.181345v -16.4886h 0.181345v -7.66678h 0.181345v 18.07h 0.181345v -10.4032h 0.544034v -2.31359h 0.181345v 12.7168h 0.181345v -22.0077h 0.181345v 9.29091h
 0.181345v 18.8022h 0.181345v -18.8022h 0.181345v -5.35319h 0.181345v 13.7522h 0.181345v -3.34907h 0.181345v -10.4032h 0.181345v -3.93772h 0.181345v 9.29091h 0.181345v -5.35319h 0.181345v -9.63333h 0.181345v 12.9824h 0.36269v -1.76776h 0.181345v
 1.76776h 0.181345v -1.76776h 0.181345v -5.51904h 0.181345v 3.93772h 0.181345v -7.0541h 0.181345v -2.57923h 0.181345v 2.57923h 0.181345v -3.34907h 0.181345v 13.7522h 0.181345v -17.69h 0.181345v 2.50725h 0.181345v 0.6982h 0.544034v -2.6168h 0.181345v
 11.0159h 0.181345v -11.6045h 0.36269v 2.50725h 0.181345v 1.43047h 0.181345v -2.09763h 0.181345v 3.67895h 0.181345v 2.73639h 0.36269v -5.04998h 0.181345v 8.39905h 0.181345v -4.31771h 0.36269v 8.63541h 0.181345v -5.51904h 0.181345v 1.20133h 0.181345v
 4.31771h 0.181345v -4.31771h 0.181345v 6.08546h 0.181345v -3.34907h 0.36269v 1.58131h 0.181345v -6.63129h 0.181345v 10.4032h 0.181345v 5.04998h 0.181345v 3.34907h 0.181345v -6.08546h 0.181345v 2.73639h 0.181345v -15.4531h 0.181345v 10.4032h
 0.181345v 29.2054h 0.181345v -24.1554h 0.36269v -10.4032h 0.181345v 10.4032h 0.181345v 3.34907h 0.181345v 20.8063h 0.181345v -10.4032h 0.181345v -6.08546h 0.181345v -14.7209h 0.181345v 20.8063h 0.181345v 10.4032h 0.181345v -16.4886h 0.181345v
 -7.66678h 0.36269v 7.66678h 0.181345v -7.66678h 0.181345v 7.66678h 0.181345v 6.08546h 0.181345v -6.08546h 0.181345v -7.66678h 0.36269v 24.1554h 0.181345v -24.1554h 0.181345v -7.0541h 0.181345v 31.2095h 0.181345v 10.4032h 0.181345v -20.8063h 0.36269v
 -10.4032h 0.181345v 10.4032h 0.181345v -6.08546h 0.181345v 6.08546h 0.181345v 10.4032h 0.181345v -26.8918h 0.181345v 10.4032h 0.181345v -7.66678h 0.36269v 7.66678h 0.181345v 6.08546h 0.181345v -16.4886h 0.181345v 6.08546h 0.181345v -3.34907h
 0.181345v 3.34907h 0.36269v 10.4032h 0.181345v 10.4032h 0.181345v -24.1554h 0.181345v 13.7522h 0.181345v 10.4032h 0.181345v -34.5586h 0.181345v 1.58131h 0.181345v 22.5741h 0.181345v 10.4032h 0.181345v -24.1554h 0.181345v -2.73639h 0.181345v 2.73639h
 0.181345v 3.34907h 0.181345v 10.4032h 0.181345v -16.4886h 0.36269v -4.31771h 0.181345v 7.0541h 0.181345v -5.04998h 0.36269v 5.04998h 0.181345v -15.4531h 0.181345v 10.4032h 0.181345v 5.04998h 0.181345v -5.04998h 0.181345v -3.77188h 0.181345v
 -1.58131h 0.181345v 1.58131h 0.181345v 6.08546h 0.181345v -10.4032h 0.181345v 2.73639h 0.181345v 3.34907h 0.181345v 7.0541h 0.181345v -10.4032h 0.181345v 10.4032h 0.36269v 7.66678h 0.181345v -16.4886h 0.181345v 3.77188h 0.36269v 5.04998h 0.181345v
 -5.04998h 0.36269v 5.04998h 0.181345v -2.73639h 0.181345v 6.08546h 0.181345v -16.4886h 0.181345v 6.08546h 0.181345v 2.00412h 0.181345v 8.39905h 0.181345v -3.34907h 0.181345v -5.04998h 0.181345v 18.8022h 0.181345v -16.4886h 0.181345v -12.7168h
 0.181345v 18.8022h 0.181345v -10.4032h 0.181345v 2.00412h 0.181345v 5.04998h 0.181345v 3.34907h 0.181345v -6.08546h 0.181345v -9.09725h 0.181345v 11.8336h 0.181345v -5.04998h 0.181345v 18.8022h 0.181345v -13.7522h 0.181345v -10.4032h 0.181345v
 1.58131h 0.181345v 8.82186h 0.181345v -2.73639h 0.181345v 10.4032h 0.181345v -4.31771h 0.181345v -6.08546h 0.181345v -4.31771h 0.181345v 10.4032h 0.181345v -3.34907h 0.181345v 3.34907h 0.181345v -6.08546h 0.36269v -9.09725h 0.181345v 15.1827h
 0.181345v 4.31771h 0.181345v -10.4032h 0.181345v -6.08546h 0.181345v 8.82186h 0.181345v -2.73639h 0.181345v -4.31771h 0.181345v -1.76776h 0.181345v 3.77188h 0.181345v -6.78367h 0.181345v 4.77955h 0.36269v 7.0541h 0.181345v -5.04998h 0.181345v
 12.7168h 0.36269v -4.31771h 0.36269v -8.39905h 0.181345v -6.78367h 0.181345v 1.43047h 0.181345v 3.34907h 0.181345v 2.00412h 0.181345v -2.00412h 0.181345v 4.31771h 0.181345v 2.73639h 0.36269v 3.34907h 0.181345v -13.7522h 0.181345v 3.34907h 0.181345v
 4.31771h 0.181345v -6.08546h 0.181345v 8.82186h 0.181345v -14.3409h 0.181345v 5.51904h 0.181345v 1.76776h 0.181345v -9.43454h 0.181345v 2.14774h 0.181345v 2.50725h 0.181345v 6.78367h 0.181345v 5.04998h 0.181345v -2.73639h 0.181345v -2.31359h
 0.181345v -9.29091h 0.181345v 5.51904h 0.36269v -3.01179h 0.181345v -4.65499h 0.181345v -1.87852h 0.181345v 9.5453h 0.181345v -3.01179h 0.181345v 6.78367h 0.181345v -3.77188h 0.181345v -4.31771h 0.181345v 13.1396h 0.181345v -11.8336h 0.181345v
 -1.30592h 0.181345v 10.4032h 0.181345v -10.4032h 0.181345v 4.31771h 0.181345v -1.58131h 0.181345v -1.43047h 0.181345v 9.09725h 0.181345v -15.6308h 0.181345v 1.87852h 0.181345v 6.08546h 0.181345v -1.43047h 0.181345v -2.50725h 0.181345v 3.93772h
 0.181345v -7.0541h 0.181345v 7.0541h 0.181345v -5.04998h 0.181345v 2.31359h 0.181345v 2.73639h 0.181345v -5.04998h 0.181345v 1.11226h 0.36269v 5.51904h 0.181345v -10.4032h 0.181345v 8.82186h 0.181345v 5.35319h 0.181345v -11.4387h 0.181345v 13.7522h
 0.181345v -4.31771h 0.181345v -8.39905h 0.181345v 10.4032h 0.181345v -15.7564h 0.181345v 2.43918h 0.181345v -3.86965h 0.181345v 9.09725h 0.36269v 4.31771h 0.36269v -5.51904h 0.181345v 5.51904h 0.181345v -6.63129h 0.181345v 3.61951h 0.181345v
 -4.65499h 0.181345v 1.03549h 0.181345v -4.58335h 0.181345v 2.57923h 0.181345v 8.63541h 0.181345v -9.5453h 0.181345v 2.91401h 0.181345v -4.58335h 0.181345v 1.66934h 0.181345v 13.3172h 0.181345v -9.29091h 0.36269v -2.14774h 0.181345v -0.968633h
 0.181345v -2.57923h 0.181345v 2.57923h 0.181345v 3.11638h 0.36269v -7.19772h 0.181345v 2.31359h 0.181345v 8.82186h 0.181345v -9.63333h 0.181345v 1.66934h 0.181345v 5.2276h 0.181345v -11.6045h 0.181345v 6.3769h 0.181345v -4.53681h 0.181345v 0.667159h
 0.181345v 4.77955h 0.181345v -4.08135h 0.181345v -3.20545h 0.181345v 7.28679h 0.181345v 0.968633h 0.181345v 3.34907h 0.181345v 6.08546h 0.181345v -15.1827h 0.181345v 3.86965h 0.181345v -2.43918h 0.36269v 2.43918h 0.181345v -5.17557h 0.181345v
 2.00412h 0.181345v 8.39905h 0.181345v -7.66678h 0.181345v -2.73639h 0.181345v 1.30592h 0.181345v 5.74818h 0.181345v -5.74818h 0.181345v 3.01179h 0.181345v -3.01179h 0.181345v 4.77955h 0.181345v -2.57923h 0.181345v 0.811473h 0.181345v -3.67895h
 0.181345v -0.63876h 0.181345v -2.84026h 0.181345v 4.84438h 0.181345v -2.6168h 0.181345v 1.25144h 0.181345v -2.95235h 0.36269v -1.52762h 0.181345v 1.52762h 0.181345v 6.63129h 0.181345v -11.6045h 0.181345v 3.93772h 0.181345v 0.508815h 0.181345v
 -3.65643h 0.181345v 5.29536h 0.181345v 2.50725h 0.181345v -4.14618h 0.181345v -2.38734h 0.181345v 2.38734h 0.181345v 1.0725h 0.181345v -0.545828h 0.181345v 1.11226h 0.181345v -3.57822h 0.181345v -1.30592h 0.181345v 4.31771h 0.181345v 1.76776h
 0.181345v -2.84026h 0.181345v -3.24521h 0.181345v 6.72423h 0.181345v -3.98783h 0.181345v 1.03549h 0.181345v 5.81982h 0.181345v -10.4032h 0.181345v 4.58335h 0.181345v 1.11226h 0.181345v 3.93772h 0.181345v -2.73639h 0.181345v 0.63876h 0.181345v
 0.667159h 0.181345v -1.9186h 0.181345v 2.6168h 0.181345v 0.732272h 0.181345v -1.43047h 0.181345v 3.86965h 0.36269v 0.909891h 0.181345v -6.08546h 0.181345v -3.34907h 0.181345v 11.4387h 0.181345v -8.08958h 0.181345v 3.50623h 0.181345v 4.58335h
 0.181345v -4.58335h 0.181345v 3.54787h 0.181345v 2.14774h 0.181345v -4.02627h 0.181345v 0.909891h 0.181345v 2.00412h 0.181345v 6.63129h 0.181345v -4.31771h 0.181345v -6.08546h 0.36269v 0.857868h 0.181345v -5.78826h 0.181345v 4.11891h 0.181345v
 4.58335h 0.181345v -2.91401h 0.181345v -0.857868h 0.181345v -1.58131h 0.181345v 1.58131h 0.181345v -3.67895h 0.181345v 0.667159h 0.181345v 7.89592h 0.181345v -1.11226h 0.181345v -4.58335h 0.181345v 2.57923h 0.181345v -2.57923h 0.181345v 2.57923h
 0.181345v -0.909891h 0.181345v -2.43918h 0.181345v 5.35319h 0.181345v -6.78367h 0.181345v 3.01179h 0.36269v -0.811473h 0.36269v 5.69561h 0.181345v -10.9696h 0.181345v 8.82186h 0.181345v -5.04998h 0.181345v 3.17145h 0.181345v 1.87852h 0.181345v
 11.4387h 0.181345v -15.7564h 0.181345v 4.31771h 0.181345v -3.54787h 0.181345v 8.20286h 0.181345v 4.77955h 0.181345v -17.1013h 0.181345v 11.0159h 0.181345v -11.0159h 0.181345v 1.9186h 0.181345v 11.8336h 0.181345v -3.93772h 0.181345v -3.11638h
 0.181345v 3.11638h 0.181345v -3.11638h 0.36269v -0.909891h 0.181345v 2.91401h 0.181345v -5.35319h 0.181345v 6.46545h 0.181345v -3.11638h 0.181345v 8.63541h 0.181345v -6.63129h 0.181345v 3.61951h 0.181345v -12.9104h 0.181345v 4.70756h 0.181345v
 5.69561h 0.36269v -4.02627h 0.181345v 1.87852h 0.181345v -5.04998h 0.181345v 3.17145h 0.181345v 4.02627h 0.181345v -2.14774h 0.181345v -2.73639h 0.181345v -4.31771h 0.181345v 5.17557h 0.181345v 2.91401h 0.181345v -5.35319h 0.181345v 4.31771h
 0.181345v -1.87852h 0.181345v -3.17145h 0.181345v 2.31359h 0.181345v -1.58131h 0.181345v 7.66678h 0.181345v -2.31359h 0.181345v -4.58335h 0.544034v -1.50211h 0.181345v -0.6982h 0.181345v -1.9186h 0.181345v 6.69815h 0.181345v -3.34907h 0.181345v
 10.4032h 0.181345v -7.0541h 0.181345v -5.4467h 0.181345v 9.76441h 0.181345v -8.39905h 0.181345v 4.08135h 0.181345v -7.28679h 0.181345v 1.20133h 0.181345v 3.50623h 0.181345v -4.11891h 0.181345v 3.34907h 0.181345v 1.58131h 0.181345v -3.67895h
 0.181345v 1.36536h 0.181345v 8.39905h 0.181345v -1.20133h 0.181345v -2.14774h 0.181345v -8.82186h 0.181345v 10.9696h 0.181345v -6.46545h 0.181345v 7.66678h 0.181345v -9.09725h 0.181345v 3.01179h 0.181345v -1.58131h 0.181345v 1.58131h 0.181345v
 7.39138h 0.181345v -8.20286h 0.181345v -1.50211h 0.181345v 5.04998h 0.181345v -6.41534h 0.181345v -0.63876h 0.181345v 3.50623h 0.181345v -2.20031h 0.181345v -1.9186h 0.181345v 6.69815h 0.181345v 4.31771h 0.181345v -6.89694h 0.181345v 5.69561h
 0.181345v -9.81452h 0.181345v 9.81452h 0.181345v -4.02627h 0.181345v -9.01678h 0.181345v 8.15891h 0.181345v -2.31359h 0.181345v -1.36536h 0.181345v 8.56308h 0.181345v -3.11638h 0.181345v -5.4467h 0.181345v 1.36536h 0.181345v -5.35319h 0.181345v
 3.98783h 0.181345v -2.40652h 0.181345v 14.9073h 0.181345v -8.82186h 0.181345v -1.58131h 0.36269v -3.34907h 0.181345v 5.78826h 0.181345v -4.53681h 0.181345v 3.67895h 0.181345v -3.01179h 0.181345v -4.65499h 0.181345v 6.08546h 0.181345v 2.43918h
 0.181345v -4.53681h 0.181345v 3.67895h 0.181345v -0.811473h 0.181345v 0.811473h 0.181345v -3.01179h 0.181345v -3.07368h 0.181345v 7.85322h 0.181345v -3.34907h 0.181345v -1.43047h 0.36269v 3.01179h 0.181345v -2.31359h 0.181345v -2.00412h 0.181345v
 -2.84026h 0.181345v 2.22758h 0.181345v 0.612681h 0.181345v 3.50623h 0.181345v -2.20031h 0.181345v 0.6982h 0.181345v -0.6982h 0.181345v -0.667159h 0.181345v -3.47902h 0.181345v 3.47902h 0.36269v 1.36536h 0.181345v 3.17145h 0.181345v -6.3769h
 0.181345v 8.25543h 0.181345v -4.31771h 0.181345v -1.43047h 0.181345v -3.07368h 0.181345v 7.85322h 0.181345v 0.968633h 0.181345v -5.04998h 0.181345v -2.00412h 0.181345v 13.1396h 0.181345v -15.9798h 0.181345v 7.15796h 0.181345v 2.73639h 0.181345v
 -5.74818h 0.181345v 1.43047h 0.181345v -0.732272h 0.181345v 6.08546h 0.181345v -2.00412h 0.181345v -1.76776h 0.181345v -0.811473h 0.36269v 2.57923h 0.181345v 2.00412h 0.181345v 2.31359h 0.181345v -7.66678h 0.181345v 6.46545h 0.181345v -7.89592h
 0.181345v -2.50725h 0.181345v 6.3769h 0.181345v 5.2276h 0.181345v -8.39905h 0.181345v 3.17145h 0.181345v -3.17145h 0.181345v 11.1354h 0.181345v -8.82186h 0.181345v 1.76776h 0.181345v -5.4467h 0.181345v 6.41534h 0.181345v -7.66678h 0.181345v 11.0159h
 0.36269v -10.4032h 0.181345v 7.0541h 0.181345v -3.54787h 0.181345v -0.769841h 0.181345v -2.09763h 0.181345v 4.53681h 0.181345v -7.48916h 0.181345v 8.39905h 0.181345v -0.909891h 0.181345v -1.66934h 0.36269v 2.57923h 0.181345v -1.76776h 0.181345v
 -0.811473h 0.36269v 3.54787h 0.181345v -0.968633h 0.181345v -4.77955h 0.36269v 4.77955h 0.181345v 0.968633h 0.181345v -1.87852h 0.181345v 6.53352h 0.181345v -2.50725h 0.181345v -6.46545h 0.181345v 8.9727h 0.181345v -1.30592h 0.181345v -5.2276h
 0.181345v 0.909891h 0.181345v -0.909891h 0.36269v 2.91401h 0.181345v -6.08546h 0.181345v 9.70497h 0.181345v -5.62363h 0.181345v 2.00412h 0.181345v 3.61951h 0.181345v 1.43047h 0.36269v -2.73639h 0.181345v -6.08546h 0.181345v 10.4032h 0.181345v
 -3.01179h 0.181345v 9.09725h 0.181345v -4.31771h 0.181345v -7.28679h 0.181345v 17.69h 0.181345v -13.7522h 0.181345v -1.43047h 0.181345v -2.50725h 0.181345v 5.51904h 0.181345v -1.58131h 0.181345v 10.4032h 0.36269v -8.82186h 0.181345v -3.01179h
 0.181345v 15.1827h 0.181345v -18.8022h 0.181345v -2.91401h 0.181345v 6.53352h 0.36269v 9.09725h 0.181345v -2.31359h 0.181345v -6.78367h 0.181345v 11.8336h 0.181345v -11.8336h 0.181345v 15.1827h 0.181345v -16.4886h 0.181345v 13.1396h 0.181345v
 -11.8336h 0.181345v 11.8336h 0.181345v -7.0541h 0.181345v -14.4845h 0.181345v 21.5386h 0.181345v -2.73639h 0.36269v 2.73639h 0.36269v -13.1396h 0.181345v 13.1396h 0.181345v -7.0541h 0.181345v -7.28679h 0.181345v 14.3409h 0.181345v -2.73639h 0.36269v
 -11.6045h 0.181345v 5.51904h 0.181345v 12.1709h 0.181345v -10.4032h 0.181345v 4.31771h 0.181345v -9.09725h 0.36269v -3.61951h 0.181345v 1.11226h 0.181345v -1.11226h 0.181345v 3.61951h 0.181345v 3.01179h 0.181345v -3.01179h 0.181345v -2.50725h
 0.181345v 14.3409h 0.181345v -2.73639h 0.181345v -4.31771h 0.544034v -1.76776h 0.181345v 8.82186h 0.181345v -13.1396h 0.36269v 1.30592h 0.181345v -1.30592h 0.181345v 16.4886h 0.181345v -18.8022h 0.181345v 10.4032h 0.181345v 5.04998h 0.181345v
 -17.4573h 0.181345v 14.7209h 0.181345v -4.31771h 0.181345v -9.43454h 0.181345v 7.66678h 0.181345v 3.77188h 0.181345v 2.31359h 0.181345v -4.31771h 0.181345v 2.00412h 0.181345v -5.35319h 0.181345v 7.66678h 0.181345v -12.7168h 0.181345v 2.31359h
 0.181345v -1.20133h 0.181345v 5.51904h 0.181345v -3.01179h 0.544034v 6.78367h 0.181345v -6.78367h 0.181345v 6.78367h 0.181345v -5.35319h 0.36269v 1.58131h 0.181345v 3.77188h 0.181345v -5.35319h 0.181345v 3.34907h 0.181345v -1.76776h 0.181345v
 -4.31771h 0.181345v 13.1396h 0.181345v -7.0541h 0.181345v -6.08546h 0.181345v 1.30592h 0.181345v -3.61951h 0.36269v -1.03549h 0.181345v 4.65499h 0.181345v -1.30592h 0.36269v 6.08546h 0.181345v -1.76776h 0.181345v -4.31771h 0.36269v 1.30592h
 0.181345v 1.43047h 0.181345v 3.34907h 0.181345v 7.0541h 0.181345v -16.4886h 0.181345v 6.08546h 0.181345v -3.93772h 0.181345v 1.20133h 0.181345v 8.08958h 0.181345v -5.35319h 0.181345v -2.73639h 0.181345v 2.73639h 0.181345v -5.04998h 0.181345v
 -1.03549h 0.181345v 9.43454h 0.181345v -6.08546h 0.181345v -6.08546h 0.181345v -0.811473h 0.181345v 3.54787h 0.181345v -1.87852h 0.181345v -0.857868h 0.181345v 7.39138h 0.181345v -3.61951h 0.36269v 1.11226h 0.181345v -5.69561h 0.181345v 2.57923h
 0.181345v -4.08135h 0.181345v 0.732272h 0.181345v 1.58131h 0.181345v -3.01179h 0.181345v 15.1827h 0.181345v -6.08546h 0.36269v 1.30592h 0.181345v -6.53352h 0.181345v 0.909891h 0.181345v 3.11638h 0.181345v 2.50725h 0.181345v -4.65499h 0.181345v
 3.34907h 0.181345v -12.7168h 0.181345v 8.39905h 0.181345v -4.08135h 0.181345v 5.04998h 0.181345v -4.31771h 0.181345v -4.50415h 0.181345v 5.27399h 0.181345v -1.50211h 0.181345v 3.17145h 0.181345v -1.66934h 0.181345v 8.20286h 0.181345v -8.9727h
 0.181345v 1.58131h 0.181345v -0.811473h 0.181345v 6.89694h 0.181345v -11.0159h 0.181345v 4.11891h 0.181345v 3.54787h 0.181345v 2.14774h 0.181345v -2.14774h 0.181345v -4.31771h 0.181345v -1.43047h 0.36269v 4.77955h 0.36269v -4.08135h 0.181345v
 2.31359h 0.181345v 2.73639h 0.181345v 1.03549h 0.181345v -1.03549h 0.181345v -0.968633h 0.181345v -0.909891h 0.181345v -0.857868h 0.36269v 2.73639h 0.181345v -0.968633h 0.36269v 4.31771h 0.181345v -1.20133h 0.181345v -4.02627h 0.181345v -0.857868h
 0.36269v 8.82186h 0.181345v -7.96399h 0.181345v 5.2276h 0.181345v -2.31359h 0.181345v -3.77188h 0.181345v 6.08546h 0.181345v -4.31771h 0.181345v 10.4032h 0.181345v -10.4032h 0.181345v 2.00412h 0.181345v 1.11226h 0.181345v 3.93772h 0.181345v
 -3.93772h 0.181345v 9.29091h 0.36269v -9.29091h 0.181345v 3.93772h 0.181345v 5.35319h 0.181345v 2.31359h 0.181345v 2.73639h 0.36269v 7.66678h 0.181345v -14.7209h 0.181345v 7.0541h 0.181345v 3.34907h 0.181345v -8.39905h 0.181345v 5.04998h 0.544034v
 7.66678h 0.181345v -14.7209h 0.181345v 10.4032h 0.181345v -8.39905h 0.181345v 18.8022h 0.36269v -16.4886h 0.181345v 16.4886h 0.181345v 20.8063h 0.181345v -34.5586h 0.181345v -5.04998h 0.181345v 39.6086h 0.181345v -10.4032h 0.181345v -16.4886h
 0.181345v -4.31771h 0.181345v 10.4032h 0.181345v -6.08546h 0.181345v 26.8918h 0.181345v -26.8918h 0.181345v 26.8918h 0.181345v -26.8918h 0.36269v 16.4886h 0.181345v -16.4886h 0.181345v -4.31771h 0.181345v 4.31771h 0.181345v 16.4886h 0.181345v
 -16.4886h 0.181345v 26.8918h 0.544034v -10.4032h 0.181345v -10.4032h 0.181345v -10.4032h 0.181345v 20.8063h 0.36269v 10.4032h 0.181345v -10.4032h 0.544034v -16.4886h 0.181345v 26.8918h 0.725379v -34.5586h 0.181345v 24.1554h 0.36269v -10.4032h
 0.36269v -6.08546h 0.181345v 26.8918h 0.181345v -20.8063h 0.36269v 20.8063h 0.725379v -10.4032h 0.181345v -10.4032h 0.181345v 20.8063h 0.36269v -20.8063h 0.181345v 10.4032h 0.181345v 10.4032h 0.181345v -26.8918h 0.181345v 6.08546h 0.181345v 10.4032h
 0.544034v 10.4032h 0.181345v -26.8918h 0.181345v 16.4886h 0.181345v 10.4032h 0.181345v -10.4032h 0.725379v 10.4032h 0.181345v -20.8063h 0.544034v 10.4032h 0.181345v -10.4032h 0.181345v -6.08546h 0.181345v 16.4886h 0.36269v 10.4032h 0.36269v
 -10.4032h 0.181345v 10.4032h 0.36269v -10.4032h 0.181345v -10.4032h 0.181345v 10.4032h 0.181345v -10.4032h 0.181345v 10.4032h 0.181345v -24.1554h 0.181345v 34.5586h 0.36269v -26.8918h 0.181345v 6.08546h 0.181345v 20.8063h 0.36269v -10.4032h
 0.181345v 10.4032h 0.181345v -10.4032h 0.181345v -16.4886h 0.181345v 16.4886h 0.181345v 10.4032h 0.36269v -10.4032h 0.181345v 10.4032h 0.181345v -20.8063h 0.181345v 10.4032h 0.181345v -10.4032h 0.181345v 20.8063h 0.181345v -20.8063h 0.181345v
 10.4032h 0.181345v 10.4032h 0.181345v -20.8063h 0.181345v 20.8063h 0.181345v -20.8063h 0.181345v 10.4032h 0.544034v -10.4032h 0.181345v 20.8063h 0.181345v -20.8063h 0.36269v 20.8063h 0.544034v -10.4032h 0.181345v -16.4886h 0.181345v 6.08546h
 0.36269v 10.4032h 0.725379v -10.4032h 0.181345v 10.4032h 0.181345v -20.8063h 0.181345v 31.2095h 0.36269v -20.8063h 0.181345v 20.8063h 0.181345v -10.4032h 0.36269v 10.4032h 0.181345v -20.8063h 0.181345v 10.4032h 0.36269v 10.4032h 0.181345v -10.4032h
 0.181345v -20.8063h 0.181345v 20.8063h 0.181345v -16.4886h 0.181345v 16.4886h 0.36269v 10.4032h 0.181345v -10.4032h 0.36269v 10.4032h 0.36269v -10.4032h 0.544034v 10.4032h 0.544034v -10.4032h 0.36269v 10.4032h 0.36269v -31.2095h 0.36269v 31.2095h
 0.36269v -10.4032h 0.181345v 10.4032h 0.544034v -20.8063h 0.36269v 10.4032h 0.36269v 10.4032h 0.36269v -10.4032h 0.36269v 10.4032h 0.181345v -10.4032h 0.36269v -10.4032h 0.181345v 20.8063h 0.36269v -20.8063h 0.544034v -10.4032h 0.181345v 31.2095h
 0.36269v -10.4032h 0.36269v -10.4032h 0.181345v -6.08546h 0.181345v 26.8918h 0.181345v -26.8918h 0.181345v 16.4886h 0.181345v -10.4032h 0.181345v 20.8063h 0.181345v -10.4032h 0.181345v 10.4032h 0.36269v -10.4032h 0.181345v -10.4032h 0.181345v
 10.4032h 0.181345v 10.4032h 0.36269v -10.4032h 0.181345v -10.4032h 0.181345v -6.08546h 0.181345v 6.08546h 0.181345v 10.4032h 0.181345v -10.4032h 0.181345v 20.8063h 0.544034v -10.4032h 0.544034v -10.4032h 0.181345v 20.8063h 0.36269v -20.8063h
 0.181345v 10.4032h 0.36269v 10.4032h 0.181345v -10.4032h 1.26941v -10.4032h 0.36269v 10.4032h 0.181345v -10.4032h 0.181345v -6.08546h 0.36269v 26.8918h 0.181345v -10.4032h 0.36269v -10.4032h 0.181345v 20.8063h 0.181345v -10.4032h 0.181345v 10.4032h
 0.544034v -20.8063h 0.181345v 10.4032h 0.544034v -10.4032h 0.181345v 20.8063h 0.181345v -10.4032h 0.181345v -16.4886h 0.181345v 16.4886h 0.725379v 10.4032h 0.36269v -10.4032h 0.181345v 10.4032h 0.725379v -10.4032h 0.725379v -10.4032h 0.181345"
 fill="none" stroke="black"/>
<path d="M57.1929,280.151h 453.543" fill="none" stroke="black"/>
<path d="M57.1929,272.68v 7.47068" fill="none" stroke="black"/>
<path d="M75.3318,276.415v 3.73534" fill="none" stroke="black"/>
<path d="M93.4707,276.415v 3.73534" fill="none" stroke="black"/>
<path d="M111.61,276.415v 3.73534" fill="none" stroke="black"/>
<path d="M129.749,276.415v 3.73534" fill="none" stroke="black"/>
<path d="M147.887,272.68v 7.47068" fill="none" stroke="black"/>
<path d="M166.026,276.415v 3.73534" fill="none" stroke="black"/>
<path d="M184.165,276.415v 3.73534" fill="none" stroke="black"/>
<path d="M202.304,276.415v 3.73534" fill="none" stroke="black"/>
<path d="M220.443,276.415v 3.73534" fill="none" stroke="black"/>
<path d="M238.582,272.68v 7.47068" fill="none" stroke="black"/>
<path d="M256.721,276.415v 3.73534" fill="none" stroke="black"/>
<path d="M274.86,276.415v 3.73534" fill="none" stroke="black"/>
<path d="M292.999,276.415v 3.73534" fill="none" stroke="black"/>
<path d="M311.138,276.415v 3.73534" fill="none" stroke="black"/>
<path d="M329.277,272.68v 7.47068" fill="none" stroke="black"/>
<path d="M347.415,276.415v 3.73534" fill="none" stroke="black"/>
<path d="M365.554,276.415v 3.73534" fill="none" stroke="black"/>
<path d="M383.693,276.415v 3.73534" fill="none" stroke="black"/>
<path d="M401.832,276.415v 3.73534" fill="none" stroke="black"/>
<path d="M419.971,272.68v 7.47068" fill="none" stroke="black"/>
<path d="M438.11,276.415v 3.73534" fill="none" stroke="black"/>
<path d="M456.249,276.415v 3.73534" fill="none" stroke="black"/>
<path d="M474.388,276.415v 3.73534" fill="none" stroke="black"/>
<path d="M492.527,276.415v 3.73534" fill="none" stroke="black"/>
<path d="M510.666,272.68v 7.47068" fill="none" stroke="black"/>
<path d="M510.666,272.68v 7.47068" fill="none" stroke="black"/>
<text xml:space="preserve" x="54.3523" y="290.27" fill="black" font-size="10.4952" font-family="Helvetica">0</text>
<text xml:space="preserve" x="139.569" y="290.27" fill="black" font-size="10.4952" font-family="Helvetica">500</text>
<text xml:space="preserve" x="227.449" y="290.27" fill="black" font-size="10.4952" font-family="Helvetica">1000</text>
<text xml:space="preserve" x="318.288" y="290.27" fill="black" font-size="10.4952" font-family="Helvetica">1500</text>
<text xml:space="preserve" x="408.831" y="290.27" fill="black" font-size="10.4952" font-family="Helvetica">2000</text>
<text xml:space="preserve" x="499.67" y="290.27" fill="black" font-size="10.4952" font-family="Helvetica">2500</text>
<text xml:space="preserve" x="265.323" y="301.218" fill="black" font-size="10.4952" font-family="Helvetica">Channel</text>
<path d="M57.1929,280.151v -249.023" fill="none" stroke="black"/>
<path d="M63.9961,280.151h -6.80315" fill="none" stroke="black"/>
<path d="M63.9961,277.414h -6.80315" fill="none" stroke="black"/>
<path d="M63.9961,275.101h -6.80315" fill="none" stroke="black"/>
<path d="M63.9961,273.096h -6.80315" fill="none" stroke="black"/>
<path d="M63.9961,271.329h -6.80315" fill="none" stroke="black"/>
<path d="M70.7992,269.747h -13.6063" fill="none" stroke="black"/>
<text xml:space="preserve" x="49.0263" y="273.404" fill="black" font-size="10.4952" font-family="Helvetica">1</text>
<path d="M63.9961,259.344h -6.80315" fill="none" stroke="black"/>
<path d="M63.9961,253.259h -6.80315" fill="none" stroke="black"/>
<path d="M63.9961,248.941h -6.80315" fill="none" stroke="black"/>
<path d="M63.9961,245.592h -6.80315" fill="none" stroke="black"/>
<path d="M63.9961,242.856h -6.80315" fill="none" stroke="black"/>
<path d="M63.9961,240.542h -6.80315" fill="none" stroke="black"/>
<path d="M63.9961,238.538h -6.80315" fill="none" stroke="black"/>
<path d="M63.9961,236.77h -6.80315" fill="none" stroke="black"/>
<path d="M70.7992,235.189h -13.6063" fill="none" stroke="black"/>
<text xml:space="preserve" x="41.629" y="238.785" fill="black" font-size="10.4952" font-family="Helvetica">10</text>
<path d="M63.9961,224.786h -6.80315" fill="none" stroke="black"/>
<path d="M63.9961,218.7h -6.80315" fill="none" stroke="black"/>
<path d="M63.9961,214.382h -6.80315" fill="none" stroke="black"/>
<path d="M63.9961,211.033h -6.80315" fill="none" stroke="black"/>
<path d="M63.9961,208.297h -6.80315" fill="none" stroke="black"/>
<path d="M63.9961,205.983h -6.80315" fill="none" stroke="black"/>
<path d="M63.9961,203.979h -6.80315" fill="none" stroke="black"/>
<path d="M63.9961,202.212h -6.80315" fill="none" stroke="black"/>
<path d="M70.7992,200.63h -13.6063" fill="none" stroke="black"/>
<text xml:space="preserve" x="49.0263" y="200.911" fill="black" font-size="7.16345" font-family="Helvetica">2</text>
<text xml:space="preserve" x="38.0783" y="205.349" fill="black" font-size="10.4952" font-family="Helvetica">10</text>
<path d="M63.9961,190.227h -6.80315" fill="none" stroke="black"/>
<path d="M63.9961,184.142h -6.80315" fill="none" stroke="black"/>
<path d="M63.9961,179.824h -6.80315" fill="none" stroke="black"/>
<path d="M63.9961,176.475h -6.80315" fill="none" stroke="black"/>
<path d="M63.9961,173.738h -6.80315" fill="none" stroke="black"/>
<path d="M63.9961,171.425h -6.80315" fill="none" stroke="black"/>
<path d="M63.9961,169.421h -6.80315" fill="none" stroke="black"/>
<path d="M63.9961,167.653h -6.80315" fill="none" stroke="black"/>
<path d="M70.7992,166.072h -13.6063" fill="none" stroke="black"/>
<text xml:space="preserve" x="49.0263" y="165.995" fill="black" font-size="7.16345" font-family="Helvetica">3</text>
<text xml:space="preserve" x="38.0783" y="170.73" fill="black" font-size="10.4952" font-family="Helvetica">10</text>
<path d="M63.9961,155.668h -6.80315" fill="none" stroke="black"/>
<path d="M63.9961,149.583h -6.80315" fill="none" stroke="black"/>
<path d="M63.9961,145.265h -6.80315" fill="none" stroke="black"/>
<path d="M63.9961,141.916h -6.80315" fill="none" stroke="black"/>
<path d="M63.9961,139.18h -6.80315" fill="none" stroke="black"/>
<path d="M63.9961,136.866h -6.80315" fill="none" stroke="black"/>
<path d="M63.9961,134.862h -6.80315" fill="none" stroke="black"/>
<path d="M63.9961,133.094h -6.80315" fill="none" stroke="black"/>
<path d="M70.7992,131.513h -13.6063" fill="none" stroke="black"/>
<text xml:space="preserve" x="49.0263" y="131.672" fill="black" font-size="7.16345" font-family="Helvetica">4</text>
<text xml:space="preserve" x="38.0783" y="136.11" fill="black" font-size="10.4952" font-family="Helvetica">10</text>
<path d="M63.9961,121.11h -6.80315" fill="none" stroke="black"/>
<path d="M63.9961,115.024h -6.80315" fill="none" stroke="black"/>
<path d="M63.9961,110.707h -6.80315" fill="none" stroke="black"/>
<path d="M63.9961,107.358h -6.80315" fill="none" stroke="black"/>
<path d="M63.9961,104.621h -6.80315" fill="none" stroke="black"/>
<path d="M63.9961,102.308h -6.80315" fill="none" stroke="black"/>
<path d="M63.9961,100.304h -6.80315" fill="none" stroke="black"/>
<path d="M63.9961,98.5358h -6.80315" fill="none" stroke="black"/>
<path d="M70.7992,96.9545h -13.6063" fill="none" stroke="black"/>
<text xml:space="preserve" x="49.0263" y="96.7567" fill="black" font-size="7.16345" font-family="Helvetica">5</text>
<text xml:space="preserve" x="38.0783" y="101.491" fill="black" font-size="10.4952" font-family="Helvetica">10</text>
<path d="M63.9961,86.5513h -6.80315" fill="none" stroke="black"/>
<path d="M63.9961,80.4658h -6.80315" fill="none" stroke="black"/>
<path d="M63.9961,76.1481h -6.80315" fill="none" stroke="black"/>
<path d="M63.9961,72.7991h -6.80315" fill="none" stroke="black"/>
<path d="M63.9961,70.0627h -6.80315" fill="none" stroke="black"/>
<path d="M63.9961,67.7491h -6.80315" fill="none" stroke="black"/>
<path d="M63.9961,65.745h -6.80315" fill="none" stroke="black"/>
<path d="M63.9961,63.9772h -6.80315" fill="none" stroke="black"/>
<path d="M70.7992,62.3959h -13.6063" fill="none" stroke="black"/>
<text xml:space="preserve" x="49.0263" y="62.1373" fill="black" font-size="7.16345" font-family="Helvetica">6</text>
<text xml:space="preserve" x="38.0783" y="66.8716" fill="black" font-size="10.4952" font-family="Helvetica">10</text>
<path d="M63.9961,51.9927h -6.80315" fill="none" stroke="black"/>
<path d="M63.9961,45.9072h -6.80315" fill="none" stroke="black"/>
<path d="M63.9961,41.5895h -6.80315" fill="none" stroke="black"/>
<path d="M63.9961,38.2405h -6.80315" fill="none" stroke="black"/>
<path d="M63.9961,35.5041h -6.80315" fill="none" stroke="black"/>
<path d="M63.9961,33.1905h -6.80315" fill="none" stroke="black"/>
<path d="M63.9961,31.1864h -6.80315" fill="none" stroke="black"/>
<g transform="rotate(-90,26.5385,191.442)">
<text xml:space="preserve" x="26.5385" y="191.442" fill="black" font-size="10.4952" font-family="Helvetica">Counts/Channel</text>
</g>
<text xml:space="preserve" x="404.097" y="62.1373" fill="black" font-size="14.7788" font-family="Helvetica" font-weight="bold"> = 2.4879 MeV</text>
<text xml:space="preserve" x="398.179" y="65.3921" fill="black" font-size="10.0192" font-family="Helvetica" font-weight="bold">p</text>
<text xml:space="preserve" x="389.006" y="62.1373" fill="black" font-size="14.7788" font-family="Helvetica" font-weight="bold">E</text>
<path d="M262.163,164.641v 25.9351" fill="none" stroke="black"/>
<path d="M264.454,190.576l -2.29122, 3.9685l -2.29122, -3.9685z" fill="black"/>
<path d="M264.454,190.576l -2.29122, 3.9685l -2.29122, -3.9685h 4.58243z" fill="none" stroke="black"/>
<text xml:space="preserve" x="266.803" y="162.445" fill="black" font-size="10.4952" font-family="Helvetica" font-weight="bold">_1 	1.369 MeV</text>
<text xml:space="preserve" x="260.293" y="162.445" fill="black" font-size="10.4952" font-family="Times">&#0945;</text>
<path d="M184.528,131.513v 30.5901" fill="none" stroke="black"/>
<path d="M186.819,162.103l -2.29122, 3.9685l -2.29122, -3.9685z" fill="black"/>
<path d="M186.819,162.103l -2.29122, 3.9685l -2.29122, -3.9685h 4.58243z" fill="none" stroke="black"/>
<text xml:space="preserve" x="172.117" y="128.713" fill="black" font-size="10.4952" font-family="Helvetica" font-weight="bold"># p_1 	0.844 MeV</text>
<path d="M210.104,149.583v 12.5201" fill="none" stroke="black"/>
<path d="M212.395,162.103l -2.29122, 3.9685l -2.29122, -3.9685z" fill="black"/>
<path d="M212.395,162.103l -2.29122, 3.9685l -2.29122, -3.9685h 4.58243z" fill="none" stroke="black"/>
<text xml:space="preserve" x="197.564" y="144.987" fill="black" font-size="10.4952" font-family="Helvetica" font-weight="bold"># p_2 	1.015 MeV</text>
<path d="M497.706,269.747h 12.9596" fill="none" stroke="black"/>
<path d="M504.186,259.344h 6.4798" fill="none" stroke="black"/>
<path d="M504.186,253.259h 6.4798" fill="none" stroke="black"/>
<path d="M504.186,248.941h 6.4798" fill="none" stroke="black"/>
<path d="M504.186,245.592h 6.4798" fill="none" stroke="black"/>
<path d="M504.186,242.856h 6.4798" fill="none" stroke="black"/>
<path d="M504.186,240.542h 6.4798" fill="none" stroke="black"/>
<path d="M504.186,238.538h 6.4798" fill="none" stroke="black"/>
<path d="M504.186,236.77h 6.4798" fill="none" stroke="black"/>
<path d="M497.706,235.189h 12.9596" fill="none" stroke="black"/>
<path d="M504.186,224.786h 6.4798" fill="none" stroke="black"/>
<path d="M504.186,218.7h 6.4798" fill="none" stroke="black"/>
<path d="M504.186,214.382h 6.4798" fill="none" stroke="black"/>
<path d="M504.186,211.033h 6.4798" fill="none" stroke="black"/>
<path d="M504.186,208.297h 6.4798" fill="none" stroke="black"/>
<path d="M504.186,205.983h 6.4798" fill="none" stroke="black"/>
<path d="M504.186,203.979h 6.4798" fill="none" stroke="black"/>
<path d="M504.186,202.212h 6.4798" fill="none" stroke="black"/>
<path d="M497.706,200.63h 12.9596" fill="none" stroke="black"/>
<path d="M504.186,190.227h 6.4798" fill="none" stroke="black"/>
<path d="M504.186,184.142h 6.4798" fill="none" stroke="black"/>
<path d="M504.186,179.824h 6.4798" fill="none" stroke="black"/>
<path d="M504.186,176.475h 6.4798" fill="none" stroke="black"/>
<path d="M504.186,173.738h 6.4798" fill="none" stroke="black"/>
<path d="M504.186,171.425h 6.4798" fill="none" stroke="black"/>
<path d="M504.186,169.421h 6.4798" fill="none" stroke="black"/>
<path d="M504.186,167.653h 6.4798" fill="none" stroke="black"/>
<path d="M497.706,166.072h 12.9596" fill="none" stroke="black"/>
<path d="M504.186,155.668h 6.4798" fill="none" stroke="black"/>
<path d="M504.186,149.583h 6.4798" fill="none" stroke="black"/>
<path d="M504.186,145.265h 6.4798" fill="none" stroke="black"/>
<path d="M504.186,141.916h 6.4798" fill="none" stroke="black"/>
<path d="M504.186,139.18h 6.4798" fill="none" stroke="black"/>
<path d="M504.186,136.866h 6.4798" fill="none" stroke="black"/>
<path d="M504.186,134.862h 6.4798" fill="none" stroke="black"/>
<path d="M504.186,133.094h 6.4798" fill="none" stroke="black"/>
<path d="M497.706,131.513h 12.9596" fill="none" stroke="black"/>
<path d="M504.186,121.11h 6.4798" fill="none" stroke="black"/>
<path d="M504.186,115.024h 6.4798" fill="none" stroke="black"/>
<path d="M504.186,110.707h 6.4798" fill="none" stroke="black"/>
<path d="M504.186,107.358h 6.4798" fill="none" stroke="black"/>
<path d="M504.186,104.621h 6.4798" fill="none" stroke="black"/>
<path d="M504.186,102.308h 6.4798" fill="none" stroke="black"/>
<path d="M504.186,100.304h 6.4798" fill="none" stroke="black"/>
<path d="M504.186,98.5358h 6.4798" fill="none" stroke="black"/>
<path d="M497.706,96.9545h 12.9596" fill="none" stroke="black"/>
<path d="M504.186,86.5513h 6.4798" fill="none" stroke="black"/>
<path d="M504.186,80.4658h 6.4798" fill="none" stroke="black"/>
<path d="M504.186,76.1481h 6.4798" fill="none" stroke="black"/>
<path d="M504.186,72.7991h 6.4798" fill="none" stroke="black"/>
<path d="M504.186,70.0627h 6.4798" fill="none" stroke="black"/>
<path d="M504.186,67.7491h 6.4798" fill="none" stroke="black"/>
<path d="M504.186,65.745h 6.4798" fill="none" stroke="black"/>
<path d="M504.186,63.9772h 6.4798" fill="none" stroke="black"/>
<path d="M497.706,62.3959h 12.9596" fill="none" stroke="black"/>
<path d="M504.186,51.9927h 6.4798" fill="none" stroke="black"/>
<path d="M504.186,45.9073h 6.4798" fill="none" stroke="black"/>
<path d="M504.186,41.5895h 6.4798" fill="none" stroke="black"/>
<path d="M504.186,38.2405h 6.4798" fill="none" stroke="black"/>
<path d="M504.186,35.5041h 6.4798" fill="none" stroke="black"/>
<path d="M504.186,33.1905h 6.4798" fill="none" stroke="black"/>
<path d="M57.1929,40.0302v -7.46952" fill="none" stroke="black"/>
<path d="M75.3318,40.0302v -7.46952" fill="none" stroke="black"/>
<path d="M93.4707,40.0302v -7.46952" fill="none" stroke="black"/>
<path d="M111.61,40.0302v -7.46952" fill="none" stroke="black"/>
<path d="M129.749,40.0302v -7.46952" fill="none" stroke="black"/>
<path d="M147.887,40.0302v -7.46952" fill="none" stroke="black"/>
<path d="M166.026,40.0302v -7.46952" fill="none" stroke="black"/>
<path d="M184.165,40.0302v -7.46952" fill="none" stroke="black"/>
<path d="M202.304,40.0302v -7.46952" fill="none" stroke="black"/>
<path d="M220.443,40.0302v -7.46952" fill="none" stroke="black"/>
<path d="M238.582,40.0302v -7.46952" fill="none" stroke="black"/>
<path d="M256.721,40.0302v -7.46952" fill="none" stroke="black"/>
<path d="M274.86,40.0302v -7.46952" fill="none" stroke="black"/>
<path d="M292.999,40.0302v -7.46952" fill="none" stroke="black"/>
<path d="M311.138,40.0302v -7.46952" fill="none" stroke="black"/>
<path d="M329.277,40.0302v -7.46952" fill="none" stroke="black"/>
<path d="M347.415,40.0302v -7.46952" fill="none" stroke="black"/>
<path d="M365.554,40.0302v -7.46952" fill="none" stroke="black"/>
<path d="M383.693,40.0302v -7.46952" fill="none" stroke="black"/>
<path d="M401.832,40.0302v -7.46952" fill="none" stroke="black"/>
<path d="M419.971,40.0302v -7.46952" fill="none" stroke="black"/>
<path d="M438.11,40.0302v -7.46952" fill="none" stroke="black"/>
<path d="M456.249,40.0302v -7.46952" fill="none" stroke="black"/>
<path d="M474.388,40.0302v -7.46952" fill="none" stroke="black"/>
<path d="M492.527,40.0302v -7.46952" fill="none" stroke="black"/>
<path d="M510.666,40.0302v -7.46952" fill="none" stroke="black"/></svg>
