<?xml version="1.0" standalone="no"?>
<svg width="567.429" height="311.778" viewBox="0 0 567.429 311.778" xmlns="http://www.w3.org/2000/svg" shape-rendering="crispEdges">
<title>
Yields/P1/run_0099/det5_Fit.svg
</title>
<desc>
Creator: ROOT Version 6.12/06
CreationDate: Mon Apr 15 10:29:01 2019</desc>
<defs>
</defs>
<rect x="0.5" y="0" width="566.929" height="311.278" fill="white"/>
<rect x="57.1929" y="31.1278" width="453.543" height="249.023" fill="white"/>
<rect x="57.1929" y="31.1278" width="453.543" height="249.023" fill="none" stroke="black"/>
<path d="M57.1929,40.7231h 0.181345v 239.427h 17.0464v -10.407h 0.181345v 10.407h 2.53883v -10.407h 0.181345v 10.407h 0.36269v -10.407h 0.181345v 10.407h 3.26421v -10.407h 0.181345v 10.407h 0.36269v -10.407h 0.181345v 10.407h 0.906724v -10.407h
 0.36269v 10.407h 0.725379v -10.407h 0.181345v 10.407h 0.544034v -10.407h 0.181345v 10.407h 0.181345v -10.407h 0.181345v 10.407h 0.725379v -10.407h 0.181345v 10.407h 0.181345v -20.8141h 0.181345v 20.8141h 0.181345v -10.407h 0.181345v 10.407h
 0.181345v -26.9018h 0.181345v 26.9018h 0.36269v -10.407h 0.181345v 10.407h 0.36269v -37.3089h 0.36269v -25.5954h 0.181345v -10.6328h 0.181345v -12.2003h 0.181345v -7.8082h 0.181345v -6.36108h 0.181345v -4.04597h 0.181345v -1.46321h 0.181345v
 -2.28378h 0.181345v -1.55194h 0.181345v -0.590465h 0.181345v -2.25729h 0.181345v 1.08627h 0.181345v -1.67579h 0.181345v -0.0329982h 0.181345v -0.486463h 0.181345v -1.00286h 0.181345v -0.266268h 0.181345v -0.659755h 0.181345v 0.140979h 0.181345v
 -0.432796h 0.181345v -0.177847h 0.181345v -0.755841h 0.181345v -0.694933h 0.181345v 0.682006h 0.181345v -0.128657h 0.181345v 0.0641907h 0.181345v 0.0257533h 0.181345v -0.128327h 0.181345v -0.941016h 0.181345v 0.278609h 0.181345v -0.0244332h
 0.181345v -0.444987h 0.181345v 0.444987h 0.181345v 0.270977h 0.181345v -0.404654h 0.181345v 0.655314h 0.181345v -0.871522h 0.181345v -0.224892h 0.181345v 0.796119h 0.181345v -0.233545h 0.181345v -0.385309h 0.181345v 0.0476263h 0.181345v -0.271811h
 0.181345v -0.220886h 0.36269v 0.564421h 0.181345v -0.390308h 0.181345v 0.426299h 0.181345v 0.426395h 0.181345v -0.390318h 0.181345v -0.0840461h 0.181345v 0.400402h 0.181345v 0.398741h 0.181345v 0.0126329h 0.181345v 0.884974h 0.181345v 0.0806494h
 0.181345v -0.0134717h 0.181345v -0.0671777h 0.181345v 0.0671777h 0.181345v -1.22765h 0.181345v 0.868409h 0.181345v 0.0923142h 0.181345v -0.873612h 0.181345v -1.08322h 0.181345v -1.69988h 0.181345v -2.61072h 0.181345v -2.57973h 0.181345v -2.77894h
 0.181345v -3.11182h 0.181345v -3.21388h 0.181345v -3.18939h 0.181345v -2.42682h 0.181345v -2.41791h 0.181345v -2.00223h 0.181345v -0.860808h 0.181345v -1.14611h 0.181345v -0.0805244h 0.181345v 0.832909h 0.181345v 1.03062h 0.181345v 1.25085h
 0.181345v 2.26913h 0.181345v 2.86773h 0.181345v 3.09282h 0.181345v 3.47718h 0.181345v 3.955h 0.181345v 4.42564h 0.181345v 4.03743h 0.181345v 4.00504h 0.181345v 4.02667h 0.181345v 0.985207h 0.181345v 1.75594h 0.181345v 0.71236h 0.181345v 1.69213h
 0.181345v -0.61923h 0.181345v 0.645593h 0.181345v 0.619507h 0.181345v -0.326408h 0.181345v 0.77296h 0.181345v 0.228357h 0.181345v -0.284908h 0.181345v -0.196267h 0.181345v 0.423759h 0.181345v 0.347835h 0.181345v 0.176987h 0.181345v 1.01258h
 0.181345v -0.376158h 0.181345v -0.0925852h 0.181345v -1.15437h 0.181345v 2.53929h 0.181345v -1.89906h 0.181345v 1.27131h 0.181345v -1.38977h 0.181345v 1.22884h 0.181345v -0.596253h 0.181345v 0.500519h 0.181345v -1.04435h 0.181345v 0.76076h 0.181345v
 -0.155267h 0.181345v -0.426395h 0.181345v -0.089816h 0.181345v 1.27659h 0.181345v 0.196267h 0.181345v 0.638998h 0.181345v -0.204742h 0.181345v 0.482148h 0.181345v 0.680139h 0.181345v -0.433132h 0.181345v -0.0709892h 0.181345v 1.60553h 0.181345v
 -0.541808h 0.181345v 0.541808h 0.181345v 1.53382h 0.181345v -0.387762h 0.181345v -1.02736h 0.181345v -0.924242h 0.181345v 1.61514h 0.181345v -0.966394h 0.181345v 1.09169h 0.181345v -0.89542h 0.181345v -0.581267h 0.181345v 1.64539h 0.181345v
 -0.500519h 0.181345v -0.244139h 0.181345v 1.17489h 0.181345v 0.219831h 0.181345v -0.818767h 0.181345v 0.296482h 0.181345v 0.700497h 0.181345v -0.133857h 0.181345v -1.31751h 0.181345v 1.31751h 0.181345v -1.07137h 0.181345v -0.123574h 0.181345v
 0.843716h 0.181345v -0.300723h 0.181345v 0.257392h 0.181345v 0.937297h 0.181345v -1.40586h 0.181345v 1.45199h 0.181345v -1.49387h 0.181345v 0.338362h 0.181345v 0.346164h 0.181345v -0.303327h 0.181345v 0.303327h 0.181345v -1.53807h 0.181345v 4.58506h
 0.181345v -2.42131h 0.181345v 1.28568h 0.181345v -1.46712h 0.181345v 0.786748h 0.181345v -1.23099h 0.181345v 1.27858h 0.181345v -0.236449h 0.181345v 1.79189h 0.181345v -2.25391h 0.181345v 1.88833h 0.181345v -2.46844h 0.181345v 1.51881h 0.181345v
 0.342916h 0.181345v -2.16505h 0.181345v 0.479449h 0.181345v 1.58682h 0.181345v -0.860922h 0.181345v -1.20535h 0.181345v 0.0429591h 0.181345v -1.35651h 0.181345v -0.691312h 0.181345v -0.4802h 0.181345v 0.293685h 0.181345v -1.44785h 0.181345v
 0.237518h 0.181345v 0.381003h 0.181345v -0.918481h 0.181345v -0.196695h 0.181345v 0.196695h 0.181345v 1.27344h 0.181345v -1.95089h 0.181345v 3.03044h 0.181345v -0.825989h 0.181345v 0.710642h 0.181345v 0.192739h 0.181345v 1.33818h 0.181345v 0.170618h
 0.181345v 2.97958h 0.181345v -1.95902h 0.181345v 0.561343h 0.181345v 0.934081h 0.181345v 0.255785h 0.181345v 1.69122h 0.181345v -0.229229h 0.181345v 0.287087h 0.181345v -0.8453h 0.181345v -1.05777h 0.181345v 3.36309h 0.181345v -2.36001h 0.181345v
 0.275497h 0.181345v 2.40741h 0.181345v -2.12677h 0.181345v 0.113744h 0.181345v 1.3116h 0.181345v -1.02341h 0.181345v 0.533104h 0.181345v 0.805077h 0.181345v -1.62637h 0.181345v 0.230107h 0.36269v 0.531009h 0.181345v 0.364735h 0.181345v -0.603061h
 0.181345v -0.117759h 0.181345v -0.116843h 0.181345v 1.53026h 0.181345v -3.74462h 0.181345v 0.615002h 0.181345v 0.91677h 0.181345v 0.624499h 0.181345v 0.11639h 0.181345v -0.403477h 0.181345v -0.337412h 0.181345v 0.0557113h 0.181345v 0.395877h
 0.181345v -0.507094h 0.181345v 0.854929h 0.181345v -0.854929h 0.181345v -2.30653h 0.181345v 1.23745h 0.181345v -0.356891h 0.181345v 1.09718h 0.181345v -1.19761h 0.181345v 0.201536h 0.181345v -1.12354h 0.181345v 0.723134h 0.181345v -1.943h 0.181345v
 0.940092h 0.36269v 3.93919h 0.181345v -2.28009h 0.181345v -1.18987h 0.181345v 0.533678h 0.181345v 0.400402h 0.181345v 1.66101h 0.181345v -0.336153h 0.181345v 1.33161h 0.181345v -0.240232h 0.181345v -0.236449h 0.181345v -0.405032h 0.181345v 0.346497h
 0.36269v 0.656789h 0.181345v 0.122565h 0.36269v 1.4187h 0.181345v -2.25637h 0.181345v -0.738086h 0.181345v 1.94956h 0.181345v -0.557292h 0.36269v -0.885179h 0.181345v 1.06865h 0.181345v 0.500519h 0.181345v -0.561927h 0.181345v -0.182731h 0.181345v
 1.32844h 0.181345v -0.583779h 0.181345v 2.04126h 0.181345v -2.96646h 0.181345v 0.735536h 0.181345v 0.511171h 0.36269v 0.262263h 0.181345v 0.266926h 0.181345v -1.35122h 0.181345v 0.692601h 0.181345v -0.381737h 0.181345v 0.381737h 0.181345v -2.21284h
 0.181345v 1.03587h 0.181345v 1.56867h 0.181345v -2.26713h 0.181345v 2.13542h 0.181345v -1.31733h 0.181345v 1.31733h 0.181345v -0.515559h 0.181345v 0.255567h 0.181345v -0.754009h 0.181345v 1.82213h 0.181345v -1.76073h 0.181345v -1.74104h 0.181345v
 1.43649h 0.181345v -0.706681h 0.181345v 0.349183h 0.181345v 0.417917h 0.181345v 1.66284h 0.181345v -2.19806h 0.181345v 2.19806h 0.181345v -0.918184h 0.181345v -0.683994h 0.181345v 0.747749h 0.181345v -1.28509h 0.181345v -0.799423h 0.181345v 0.11163h
 0.181345v 1.28605h 0.181345v -1.11703h 0.181345v 3.92786h 0.181345v -2.99282h 0.181345v -1.43649h 0.181345v 0.67239h 0.181345v 0.406599h 0.181345v 0.118223h 0.181345v 0.543833h 0.181345v -1.35248h 0.181345v 0.398882h 0.181345v -0.342544h 0.181345v
 1.35781h 0.181345v -1.63741h 0.181345v 1.09138h 0.181345v -0.469232h 0.181345v -0.896636h 0.181345v 2.41451h 0.181345v -0.868832h 0.181345v -0.120114h 0.181345v -0.119161h 0.181345v -0.752313h 0.181345v 2.98784h 0.181345v -1.56812h 0.181345v
 0.18729h 0.181345v 0.64173h 0.181345v 0.264574h 0.181345v -0.395133h 0.181345v -0.511171h 0.181345v 0.839722h 0.181345v 0.610141h 0.181345v 0.0693497h 0.181345v -1.2658h 0.181345v 0.38832h 0.181345v 0.46611h 0.181345v -0.201536h 0.181345v 0.964546h
 0.181345v -0.695226h 0.181345v -0.858187h 0.181345v 2.66061h 0.181345v -2.07174h 0.181345v 1.10754h 0.181345v -2.56885h 0.181345v 1.13131h 0.181345v 2.02353h 0.181345v -0.728987h 0.181345v 0.954769h 0.181345v -0.739765h 0.181345v 0.664127h 0.181345v
 0.459654h 0.181345v -1.40977h 0.181345v 1.02576h 0.181345v -0.374438h 0.181345v -0.580331h 0.181345v 3.24396h 0.181345v -0.774543h 0.181345v 0.339318h 0.181345v -2.44867h 0.181345v 2.44867h 0.181345v -0.915276h 0.181345v 1.3505h 0.181345v 0.53949h
 0.181345v -2.44467h 0.181345v 0.635616h 0.181345v -1.46785h 0.181345v 1.38691h 0.181345v 2.16718h 0.181345v -2.00487h 0.181345v 0.246814h 0.181345v 0.335527h 0.181345v 3.52094h 0.181345v -5.35519h 0.181345v 3.07141h 0.181345v 0.46777h 0.181345v
 -3.31226h 0.181345v 0.70209h 0.181345v -0.3161h 0.181345v 0.885812h 0.181345v 1.20869h 0.181345v -0.0896372h 0.181345v -1.28405h 0.181345v 2.39672h 0.181345v -0.659036h 0.181345v -0.63132h 0.181345v 1.00436h 0.181345v -1.94573h 0.181345v 2.13579h
 0.181345v -3.40759h 0.181345v 3.89353h 0.181345v -1.943h 0.181345v 0.174586h 0.36269v 2.3731h 0.181345v 0.523195h 0.181345v -3.99641h 0.181345v 2.96764h 0.181345v 0.40309h 0.181345v -0.303327h 0.181345v -1.6119h 0.181345v 1.21677h 0.181345v 1.21803h
 0.181345v -2.96477h 0.181345v 2.04211h 0.181345v 0.922664h 0.181345v -1.88544h 0.181345v -0.185363h 0.181345v 2.3914h 0.181345v -2.66523h 0.181345v 1.32286h 0.36269v 1.12788h 0.181345v -1.898h 0.36269v 2.2209h 0.181345v -1.74422h 0.181345v
 -0.0965546h 0.181345v -0.932858h 0.181345v 2.34463h 0.181345v 1.44158h 0.181345v -5.65479h 0.181345v 1.68877h 0.181345v 0.638998h 0.181345v -1.07933h 0.181345v 0.529968h 0.181345v 1.91523h 0.181345v -0.600648h 0.181345v -0.387484h 0.181345v
 -0.836921h 0.181345v 3.10363h 0.181345v -2.26671h 0.36269v 1.29771h 0.181345v -1.39304h 0.36269v 0.287821h 0.181345v 0.293446h 0.181345v -0.293446h 0.181345v -1.02941h 0.181345v 0.646865h 0.181345v -0.280647h 0.181345v 3.30405h 0.181345v -2.34741h
 0.181345v 0.299296h 0.181345v -1.71233h 0.181345v -0.957751h 0.181345v 0.341246h 0.181345v 1.73609h 0.181345v -0.847421h 0.181345v -1.31403h 0.181345v 0.511897h 0.181345v 0.893966h 0.181345v -2.92051h 0.181345v 3.29356h 0.181345v -0.737041h
 0.181345v 0.456393h 0.181345v -1.24449h 0.181345v -0.337412h 0.181345v -2.73741h 0.181345v 1.76842h 0.181345v 0.3161h 0.181345v -1.37281h 0.181345v -0.987204h 0.181345v 2.847h 0.181345v -3.05036h 0.181345v 0.548525h 0.181345v -2.08322h 0.181345v
 0.811776h 0.36269v 0.324293h 0.181345v -0.195415h 0.181345v -0.818586h 0.181345v 1.27858h 0.181345v -2.17077h 0.181345v 1.45412h 0.181345v -0.744658h 0.181345v 1.46131h 0.181345v 1.39768h 0.181345v -0.854118h 0.181345v -0.742426h 0.181345v 1.16341h
 0.181345v -0.627134h 0.181345v -0.601986h 0.181345v -1.25715h 0.181345v 2.5576h 0.181345v -1.03587h 0.181345v -0.906304h 0.181345v 0.317437h 0.181345v 2.97019h 0.181345v -2.5142h 0.181345v -0.898553h 0.181345v 0.442556h 0.181345v -1.92445h 0.181345v
 1.60701h 0.181345v -4.14555h 0.181345v -0.607188h 0.181345v -0.495266h 0.181345v -0.734654h 0.181345v -0.979534h 0.181345v 0.0395631h 0.181345v -2.77697h 0.181345v -1.85596h 0.181345v -1.70362h 0.181345v 0.235624h 0.181345v -1.36128h 0.181345v
 -2.13086h 0.181345v -0.104193h 0.181345v -1.04279h 0.181345v -2.29506h 0.181345v 1.7435h 0.181345v -1.84293h 0.181345v -0.866444h 0.181345v -0.460594h 0.181345v 0.0454287h 0.181345v 0.714357h 0.181345v -0.729515h 0.181345v 1.05103h 0.181345v
 -0.369154h 0.181345v 1.53441h 0.181345v 1.0547h 0.181345v 0.439658h 0.181345v 0.333444h 0.181345v 2.87689h 0.181345v 1.14782h 0.181345v -0.103368h 0.181345v 3.23487h 0.181345v 1.51108h 0.181345v 1.83924h 0.181345v 0.528294h 0.181345v 1.16047h
 0.181345v 3.22794h 0.181345v 0.913693h 0.181345v 2.21663h 0.181345v 1.35612h 0.181345v -1.14997h 0.181345v 5.05186h 0.181345v -2.16145h 0.181345v 0.598936h 0.181345v 2.66774h 0.181345v 0.858187h 0.181345v -1.4711h 0.181345v 2.26448h 0.181345v
 -1.12098h 0.181345v 1.12098h 0.36269v -1.96116h 0.181345v 0.94858h 0.181345v 1.24718h 0.181345v 2.29476h 0.181345v -0.934518h 0.181345v -2.38823h 0.181345v 2.51822h 0.181345v -2.73741h 0.181345v -1.35167h 0.181345v 1.57086h 0.181345v 1.87922h
 0.181345v -1.20178h 0.181345v -1.32564h 0.181345v 1.32564h 0.181345v 0.831037h 0.181345v 1.00974h 0.181345v -1.13131h 0.181345v 0.244139h 0.181345v -0.953602h 0.181345v 0.953602h 0.181345v -1.74104h 0.181345v 1.61848h 0.36269v -1.83608h 0.181345v
 2.84582h 0.181345v -1.37154h 0.181345v 0.98489h 0.181345v -1.33818h 0.181345v 1.21148h 0.181345v -0.496382h 0.181345v -1.39768h 0.181345v -0.438402h 0.181345v 5.55714h 0.181345v -3.59849h 0.181345v -0.484371h 0.181345v -0.353291h 0.181345v 0.234601h
 0.181345v 1.88711h 0.181345v -0.91023h 0.181345v 1.87922h 0.181345v -1.10245h 0.181345v -1.15059h 0.181345v 2.98558h 0.181345v -3.35032h 0.181345v -0.818096h 0.181345v 3.29356h 0.181345v -0.140979h 0.181345v -2.92335h 0.181345v 6.20367h 0.181345v
 -1.49436h 0.181345v -1.06745h 0.181345v -1.80109h 0.181345v 1.36587h 0.181345v 0.143678h 0.181345v -1.63954h 0.181345v 2.07901h 0.181345v -2.33567h 0.181345v 2.78839h 0.181345v 0.309582h 0.181345v -1.34545h 0.181345v 1.34545h 0.181345v -0.462012h
 0.181345v -2.50818h 0.181345v 0.655746h 0.181345v 1.40422h 0.181345v -0.996568h 0.181345v -1.6917h 0.181345v 5.07649h 0.181345v -2.67977h 0.181345v 0.739765h 0.181345v -0.594699h 0.181345v 2.53471h 0.181345v -2.2403h 0.181345v -4.35643h 0.181345v
 3.77328h 0.181345v 0.583149h 0.181345v 1.89906h 0.181345v -1.74966h 0.181345v -0.443801h 0.181345v 1.05671h 0.181345v -2.84132h 0.181345v 0.261123h 0.181345v 4.40737h 0.181345v -5.1775h 0.181345v 1.5819h 0.181345v -1.45626h 0.181345v 0.644485h
 0.181345v -3.81712h 0.181345v -0.988132h 0.36269v -3.48361h 0.181345v 0.306423h 0.181345v -0.306423h 0.181345v -3.97414h 0.181345v 0.234601h 0.181345v -0.0589949h 0.181345v -3.77982h 0.181345v -0.974714h 0.181345v -3.46996h 0.181345v 0.661218h
 0.181345v -1.74468h 0.181345v -2.12318h 0.181345v -0.164091h 0.181345v -2.79623h 0.181345v 0.458484h 0.181345v -1.25004h 0.181345v -0.974347h 0.181345v -0.858187h 0.181345v 0.638998h 0.181345v -0.620029h 0.181345v -0.356381h 0.181345v 1.05575h
 0.181345v -1.31303h 0.181345v 0.785479h 0.181345v -1.3224h 0.181345v 1.9898h 0.181345v 0.489637h 0.181345v 0.0831813h 0.181345v 1.60509h 0.181345v 0.233871h 0.181345v 2.06898h 0.181345v -1.09527h 0.181345v 1.84406h 0.181345v 2.50043h 0.181345v
 0.793127h 0.181345v 3.76317h 0.181345v 0.321909h 0.181345v 1.98496h 0.181345v 1.62322h 0.181345v 2.64313h 0.181345v 1.63683h 0.181345v 1.228h 0.181345v 3.01291h 0.181345v 1.42058h 0.181345v 2.76035h 0.181345v 1.9068h 0.181345v -1.05671h 0.181345v
 4.56425h 0.181345v -0.390001h 0.181345v 2.97019h 0.181345v -4.78132h 0.181345v 4.78132h 0.181345v 1.73912h 0.181345v -0.261123h 0.181345v 3.15742h 0.181345v -3.66642h 0.181345v 2.44009h 0.181345v -2.44009h 0.181345v 0.509004h 0.181345v 1.0729h
 0.181345v -1.5819h 0.181345v -0.248174h 0.181345v 4.23749h 0.181345v -3.98932h 0.181345v -0.732545h 0.181345v 2.59509h 0.181345v -2.83154h 0.181345v 4.00973h 0.181345v -1.45884h 0.181345v -1.0729h 0.181345v 2.84132h 0.181345v -2.04391h 0.181345v
 3.01291h 0.181345v 0.682581h 0.181345v -5.25007h 0.181345v 2.11072h 0.181345v -1.09242h 0.181345v 0.536278h 0.181345v 2.04391h 0.181345v 0.3161h 0.181345v -3.91459h 0.181345v 1.55458h 0.181345v -1.55458h 0.181345v 1.28405h 0.181345v 3.28344h
 0.181345v -1.5819h 0.181345v 1.25191h 0.181345v -2.95345h 0.181345v 1.11267h 0.181345v -2.39672h 0.181345v 2.68826h 0.181345v -2.44009h 0.181345v 3.98932h 0.181345v -3.21919h 0.181345v -0.517782h 0.181345v -0.500519h 0.181345v -0.953602h 0.181345v
 3.06433h 0.181345v 0.285993h 0.181345v -0.842138h 0.181345v -2.50818h 0.181345v 3.64187h 0.181345v -1.13368h 0.181345v 0.842138h 0.181345v -2.39672h 0.181345v 4.56749h 0.181345v -1.27858h 0.181345v -2.53173h 0.181345v 3.48031h 0.181345v -2.95345h
 0.181345v -0.526868h 0.181345v -1.71078h 0.181345v 1.20178h 0.181345v 0.252345h 0.181345v 3.41407h 0.181345v -3.15742h 0.181345v -2.16579h 0.181345v 2.42691h 0.181345v -3.50754h 0.181345v 3.24641h 0.181345v -1.478h 0.181345v 1.478h 0.181345v
 0.797401h 0.181345v -1.30641h 0.181345v 5.71699h 0.181345v -7.148h 0.181345v 5.75032h 0.181345v -5.75032h 0.181345v 6.08773h 0.181345v -3.35032h 0.181345v 3.69549h 0.181345v -6.65868h 0.181345v 3.51934h 0.181345v -0.556145h 0.181345v -1.30641h
 0.181345v 3.66642h 0.181345v -3.41407h 0.181345v 4.06697h 0.181345v -3.28344h 0.181345v -1.52818h 0.181345v 2.35486h 0.181345v -3.51934h 0.181345v 6.65868h 0.181345v -4.23177h 0.181345v 1.66996h 0.181345v 0.91023h 0.181345v 1.30641h 0.181345v
 -0.667407h 0.181345v -6.30377h 0.181345v 7.31634h 0.181345v -3.96602h 0.181345v 2.31445h 0.181345v 0.638998h 0.181345v -6.08773h 0.181345v 1.36587h 0.181345v 5.38927h 0.181345v -6.53595h 0.181345v 4.61663h 0.181345v -1.96728h 0.181345v 1.37842h
 0.181345v -0.842138h 0.181345v -0.797401h 0.181345v 4.84618h 0.181345v -2.61777h 0.181345v -2.73741h 0.181345v -0.248174h 0.181345v 1.83008h 0.181345v -0.811776h 0.181345v -3.08457h 0.181345v 5.05186h 0.181345v 1.5819h 0.181345v -0.968994h 0.181345v
 -1.48777h 0.181345v -2.11072h 0.181345v 7.10603h 0.181345v -2.20113h 0.181345v 0.345169h 0.181345v -1.65157h 0.181345v 2.36667h 0.181345v -2.97958h 0.181345v -1.96728h 0.181345v 4.94686h 0.181345v -4.41059h 0.181345v 4.04878h 0.181345v -4.04878h
 0.181345v 0.842138h 0.181345v 3.56845h 0.181345v -1.72767h 0.181345v -0.322898h 0.181345v -0.3161h 0.181345v -1.20178h 0.181345v 5.10972h 0.181345v -6.48813h 0.181345v 0.536278h 0.181345v 3.35032h 0.181345v -1.91931h 0.181345v 6.23863h 0.181345v
 -8.20591h 0.181345v 0.811776h 0.181345v 3.07482h 0.181345v -0.990305h 0.181345v 0.990305h 0.181345v -1.30641h 0.181345v 0.638998h 0.181345v 2.09841h 0.181345v -2.09841h 0.181345v 3.26894h 0.181345v 1.26956h 0.181345v -7.75769h 0.181345v 6.08773h
 0.181345v 1.66996h 0.181345v -2.44009h 0.181345v 5.35519h 0.181345v -5.35519h 0.36269v 0.770127h 0.181345v 6.2866h 0.181345v -4.61663h 0.181345v 5.22954h 0.181345v -5.22954h 0.181345v 1.38691h 0.181345v 1.00132h 0.181345v -5.91415h 0.181345v
 10.0619h 0.181345v -9.34678h 0.181345v 8.04037h 0.181345v -7.28951h 0.181345v 2.97019h 0.181345v -3.35032h 0.181345v 10.407h 0.181345v -2.73741h 0.181345v 1.30641h 0.181345v -2.50818h 0.181345v -2.64086h 0.181345v -3.827h 0.181345v 10.407h 0.181345v
 -8.82514h 0.181345v 1.30641h 0.181345v 8.28886h 0.181345v -4.70931h 0.181345v 1.20178h 0.181345v -1.20178h 0.181345v 1.84077h 0.181345v -3.98932h 0.181345v 1.5819h 0.181345v 4.50583h 0.181345v -2.73741h 0.181345v 2.00487h 0.181345v -2.61777h
 0.181345v 3.35032h 0.36269v 7.66963h 0.181345v -9.76805h 0.181345v 2.09841h 0.36269v 0.770127h 0.181345v -5.27595h 0.181345v 6.94592h 0.181345v -5.1775h 0.181345v 6.08773h 0.181345v -4.78132h 0.181345v 2.20113h 0.181345v -7.35017h 0.181345v 3.22972h
 0.181345v 6.70064h 0.181345v 2.00487h 0.181345v -2.9151h 0.181345v -3.17263h 0.181345v -1.36587h 0.181345v 9.76805h 0.181345v -5.22954h 0.181345v 7.96695h 0.181345v -7.05672h 0.181345v -4.08286h 0.181345v -2.00487h 0.36269v 8.0926h 0.181345v
 -1.03587h 0.544034v -1.87922h 0.181345v 6.53595h 0.181345v -4.65672h 0.181345v 4.65672h 0.181345v -8.97604h 0.181345v 3.35032h 0.181345v -2.58019h 0.181345v 1.66996h 0.181345v 1.87922h 0.544034v -5.05186h 0.181345v 3.17263h 0.181345v -0.858187h
 0.181345v 6.08773h 0.181345v -3.35032h 0.181345v 2.14854h 0.181345v -7.89886h 0.181345v -3.07482h 0.181345v 8.82514h 0.181345v 2.14854h 0.181345v 1.20178h 0.181345v -8.40218h 0.181345v -0.69846h 0.181345v 2.20113h 0.181345v -1.50267h 0.181345v
 -8.90437h 0.181345v 2.11818h 0.181345v 4.78132h 0.181345v -1.76842h 0.181345v 2.40741h 0.181345v -2.95345h 0.181345v -2.46688h 0.181345v 1.43101h 0.36269v -0.968994h 0.181345v -4.78132h 0.181345v 1.43101h 0.181345v 3.827h 0.181345v 1.52818h 0.36269v
 -2.00487h 0.181345v 0.968994h 0.181345v 2.73741h 0.181345v -8.14256h 0.181345v 8.14256h 0.181345v -2.22841h 0.181345v 3.48031h 0.181345v -2.95345h 0.181345v 1.70154h 0.181345v -4.16842h 0.181345v -1.71778h 0.181345v 9.23651h 0.181345v -4.50583h
 0.181345v 10.9737h 0.181345v -4.88595h 0.181345v 3.77328h 0.181345v -5.35519h 0.181345v -3.35032h 0.181345v -2.73741h 0.181345v 7.66963h 0.181345v -6.63376h 0.181345v 2.31445h 0.36269v -9.43805h 0.181345v 6.59673h 0.181345v -4.82832h 0.181345v
 -2.42131h 0.181345v 4.00321h 0.181345v -3.01291h 0.181345v -4.9049h 0.181345v -0.484371h 0.181345v 1.76842h 0.181345v -2.00487h 0.181345v -3.16146h 0.181345v -1.2747h 0.181345v 0.175607h 0.181345v -2.28919h 0.181345v 1.2651h 0.181345v -1.8598h
 0.181345v -0.572038h 0.181345v -0.819159h 0.181345v -0.650066h 0.181345v -2.45916h 0.181345v 1.00504h 0.181345v -0.787441h 0.181345v -1.75624h 0.181345v -0.193734h 0.181345v -2.0649h 0.181345v 2.7542h 0.181345v -4.11642h 0.181345v 1.27858h 0.181345v
 -0.0831813h 0.181345v -2.1596h 0.181345v 0.0720106h 0.181345v -1.63954h 0.181345v 1.49586h 0.181345v -0.142316h 0.181345v -1.48242h 0.181345v 0.655746h 0.181345v -0.783527h 0.181345v -0.500519h 0.181345v 0.887172h 0.181345v 0.197126h 0.181345v
 -0.773434h 0.181345v -0.249204h 0.181345v -1.01526h 0.181345v -0.787441h 0.181345v -0.432093h 0.181345v -1.27532h 0.181345v 2.49485h 0.181345v 1.51788h 0.181345v -3.36309h 0.181345v 0.519574h 0.181345v -0.722472h 0.181345v 2.57704h 0.181345v
 -1.47987h 0.181345v -0.584697h 0.181345v -0.612909h 0.181345v 1.91931h 0.181345v -1.81888h 0.181345v 1.76212h 0.181345v 1.48777h 0.181345v -1.14392h 0.181345v 1.52404h 0.181345v 1.20178h 0.181345v -0.612909h 0.181345v 0.337412h 0.181345v 1.88833h
 0.181345v 2.34027h 0.181345v -0.96334h 0.181345v 2.58549h 0.181345v 1.5931h 0.181345v -0.764524h 0.181345v 2.67366h 0.181345v 0.517782h 0.181345v 0.536278h 0.181345v 2.5206h 0.181345v 3.84263h 0.181345v -1.76842h 0.181345v 2.6266h 0.181345v 2.38823h
 0.181345v 1.0729h 0.181345v 1.45884h 0.181345v 6.87399h 0.181345v -4.19774h 0.181345v 4.69005h 0.181345v 1.03587h 0.181345v 6.63376h 0.36269v -4.93222h 0.181345v 4.93222h 0.181345v 12.1755h 0.181345v -9.43805h 0.181345v 9.43805h 0.181345v -8.40218h
 0.181345v -1.03587h 0.181345v 3.35032h 0.181345v 10.407h 0.181345v 6.08773h 0.181345v -3.35032h 0.181345v -2.73741h 0.181345v -6.08773h 0.181345v 8.82514h 0.181345v 7.66963h 0.181345v -16.4948h 0.181345v 22.5825h 0.181345v -6.08773h 0.181345v
 -10.407h 0.181345v -4.31931h 0.181345v 4.31931h 0.36269v 2.73741h 0.181345v 3.35032h 0.181345v -3.35032h 0.181345v -7.05672h 0.181345v 7.05672h 0.181345v -10.407h 0.181345v 44.9785h 0.181345v -31.2211h 0.181345v 4.31931h 0.181345v 6.08773h 0.181345v
 -16.4948h 0.181345v 6.08773h 0.181345v 20.8141h 0.181345v -24.1644h 0.36269v -2.73741h 0.181345v 2.73741h 0.181345v -7.05672h 0.181345v 20.8141h 0.181345v -13.7574h 0.181345v -7.05672h 0.181345v 41.6282h 0.36269v -10.407h 0.181345v -16.4948h
 0.181345v 6.08773h 0.181345v -6.08773h 0.181345v -18.0767h 0.181345v 44.9785h 0.181345v -31.2211h 0.36269v -6.08773h 0.181345v 26.9018h 0.181345v -16.4948h 0.181345v -18.0767h 0.181345v 18.0767h 0.181345v -4.31931h 0.181345v -3.35032h 0.181345v
 7.66963h 0.36269v -4.31931h 0.181345v 4.31931h 0.181345v -16.4948h 0.181345v 32.9895h 0.181345v -16.4948h 0.181345v -10.407h 0.36269v -2.31445h 0.181345v 12.7215h 0.181345v -10.407h 0.181345v -2.31445h 0.181345v 12.7215h 0.181345v -4.31931h
 0.181345v -12.1755h 0.181345v -3.01291h 0.181345v 9.10064h 0.181345v -4.31931h 0.36269v -6.08773h 0.181345v -5.22954h 0.181345v 13.3221h 0.181345v -11.4429h 0.181345v 6.08773h 0.181345v 18.0767h 0.181345v -22.0159h 0.544034v 9.29437h 0.181345v
 -8.0926h 0.181345v -3.35032h 0.181345v -3.54919h 0.181345v 0.811776h 0.36269v 1.76842h 0.181345v -0.91023h 0.181345v 4.02777h 0.181345v -6.46786h 0.181345v -0.732545h 0.181345v 7.2004h 0.181345v -3.11754h 0.181345v -3.35032h 0.181345v -4.50583h
 0.181345v 3.77328h 0.181345v -0.69846h 0.181345v 5.75032h 0.181345v -6.41773h 0.181345v 4.5385h 0.36269v 1.87922h 0.181345v -3.54919h 0.181345v -2.20113h 0.181345v 2.20113h 0.181345v 1.66996h 0.36269v -0.858187h 0.181345v 1.76842h 0.181345v
 -4.08286h 0.181345v 4.08286h 0.181345v 3.11754h 0.181345v 3.93919h 0.181345v -3.93919h 0.181345v 5.52109h 0.181345v -3.01291h 0.181345v 6.78619h 0.181345v -6.78619h 0.181345v 11.838h 0.181345v -7.05672h 0.181345v -4.78132h 0.181345v 19.5077h
 0.181345v -10.407h 0.181345v -4.31931h 0.181345v 20.8141h 0.181345v -6.08773h 0.181345v 6.08773h 0.181345v -16.4948h 0.181345v 6.08773h 0.181345v 4.31931h 0.181345v 6.08773h 0.181345v -13.7574h 0.181345v -2.73741h 0.181345v 16.4948h 0.36269v 10.407h
 0.181345v -16.4948h 0.181345v 6.08773h 0.36269v -10.407h 0.181345v 4.31931h 0.181345v 16.4948h 0.181345v -20.8141h 0.181345v 4.31931h 0.181345v 6.08773h 0.181345v -13.7574h 0.181345v 24.1644h 0.181345v -10.407h 0.181345v -6.08773h 0.181345v 6.08773h
 0.181345v -16.4948h 0.181345v 26.9018h 0.181345v -29.2163h 0.181345v 29.2163h 0.36269v -16.4948h 0.36269v -4.31931h 0.181345v 20.8141h 0.181345v -10.407h 0.36269v -10.407h 0.181345v -6.08773h 0.181345v 16.4948h 0.181345v -18.8092h 0.181345v 2.31445h
 0.181345v 26.9018h 0.181345v -16.4948h 0.181345v -10.407h 0.181345v 26.9018h 0.181345v -10.407h 0.181345v -20.8141h 0.181345v 14.7264h 0.36269v -7.66963h 0.181345v 3.35032h 0.181345v -6.08773h 0.181345v 2.73741h 0.36269v 3.35032h 0.181345v -16.4948h
 0.181345v 4.31931h 0.181345v 3.77328h 0.181345v 12.7215h 0.181345v -7.66963h 0.181345v -2.73741h 0.181345v 2.73741h 0.181345v -5.05186h 0.181345v -3.77328h 0.181345v 12.1755h 0.181345v -8.40218h 0.181345v 8.40218h 0.181345v -6.08773h 0.181345v
 2.73741h 0.181345v -10.407h 0.181345v 1.5819h 0.181345v 8.82514h 0.181345v -5.05186h 0.181345v 18.8092h 0.181345v -26.9018h 0.181345v 10.407h 0.181345v -10.407h 0.181345v -2.31445h 0.181345v 2.31445h 0.181345v 6.08773h 0.181345v 4.31931h 0.181345v
 -6.08773h 0.181345v 6.08773h 0.181345v 10.407h 0.181345v -22.0159h 0.181345v 9.29437h 0.181345v -3.77328h 0.181345v -9.54886h 0.181345v 6.53595h 0.181345v 9.10064h 0.181345v -2.31445h 0.181345v -3.77328h 0.181345v 6.08773h 0.544034v -4.31931h
 0.181345v 7.05672h 0.36269v -5.05186h 0.181345v 5.05186h 0.36269v 3.35032h 0.181345v -13.7574h 0.181345v 7.66963h 0.181345v 37.3089h 0.181345v -37.3089h 0.181345v 2.73741h 0.36269v 7.66963h 0.181345v -7.66963h 0.181345v 13.7574h 0.181345v -16.4948h
 0.181345v 10.407h 0.181345v -7.66963h 0.181345v 3.35032h 0.181345v -10.407h 0.181345v 20.8141h 0.181345v -13.7574h 0.181345v -5.05186h 0.181345v 5.05186h 0.181345v -7.05672h 0.181345v -1.76842h 0.36269v 8.82514h 0.36269v -2.73741h 0.181345v 6.08773h
 0.181345v -3.35032h 0.181345v 13.7574h 0.181345v -13.7574h 0.181345v -2.73741h 0.181345v 16.4948h 0.181345v -22.5825h 0.181345v 12.1755h 0.181345v -8.40218h 0.181345v -10.407h 0.181345v 50.0303h 0.181345v -26.9018h 0.181345v -4.31931h 0.181345v
 -3.35032h 0.36269v -5.05186h 0.181345v -6.78619h 0.181345v 6.78619h 0.181345v 5.05186h 0.181345v -7.05672h 0.181345v -3.35032h 0.181345v 7.66963h 0.181345v -6.08773h 0.181345v 12.1755h 0.181345v -8.40218h 0.36269v -3.77328h 0.181345v 6.08773h
 0.181345v -2.31445h 0.36269v -3.77328h 0.544034v 3.77328h 0.181345v -3.77328h 0.181345v 3.77328h 0.181345v 2.31445h 0.181345v -2.31445h 0.181345v 5.05186h 0.181345v -5.05186h 0.181345v -2.00487h 0.181345v -1.76842h 0.181345v -3.01291h 0.36269v
 1.43101h 0.181345v -3.93919h 0.181345v 14.3462h 0.181345v -10.407h 0.181345v 5.35519h 0.181345v -2.00487h 0.181345v 4.31931h 0.181345v -7.66963h 0.181345v -2.73741h 0.181345v -2.31445h 0.181345v 6.63376h 0.181345v 3.77328h 0.181345v -2.00487h
 0.181345v -6.08773h 0.181345v 8.0926h 0.181345v -3.77328h 0.181345v -3.01291h 0.181345v -3.62085h 0.181345v 3.62085h 0.181345v 6.78619h 0.181345v -10.407h 0.181345v 5.05186h 0.181345v -7.05672h 0.36269v 7.05672h 0.181345v -7.05672h 0.181345v
 8.63863h 0.36269v 1.76842h 0.181345v -6.08773h 0.181345v 1.30641h 0.181345v 1.43101h 0.181345v -5.05186h 0.181345v 8.40218h 0.181345v -13.7574h 0.181345v 7.66963h 0.181345v 1.30641h 0.181345v -2.50818h 0.36269v 3.93919h 0.544034v -11.838h 0.181345v
 10.407h 0.181345v -1.30641h 0.181345v 6.08773h 0.181345v -3.35032h 0.181345v -7.96695h 0.181345v -2.44009h 0.181345v 5.35519h 0.181345v 3.62085h 0.181345v -5.62572h 0.181345v 2.00487h 0.181345v -2.9151h 0.181345v 1.87922h 0.181345v -5.05186h
 0.181345v 14.4899h 0.181345v -7.28951h 0.181345v 3.93919h 0.181345v -5.05186h 0.36269v -3.77328h 0.181345v 3.77328h 0.181345v -3.77328h 0.36269v -3.68032h 0.181345v 6.41773h 0.181345v 3.35032h 0.181345v -6.08773h 0.181345v 2.73741h 0.181345v
 -0.968994h 0.181345v 2.00487h 0.36269v -1.03587h 0.181345v 2.14854h 0.181345v -6.46786h 0.181345v 5.35519h 0.181345v -6.08773h 0.181345v 7.2004h 0.36269v -7.89886h 0.181345v 6.78619h 0.181345v 1.11267h 0.181345v 2.50818h 0.181345v -11.0745h
 0.181345v 2.86854h 0.181345v 3.54919h 0.181345v -6.41773h 0.36269v 2.09841h 0.181345v 1.5819h 0.181345v 0.858187h 0.36269v -0.858187h 0.181345v -4.31931h 0.181345v 9.20527h 0.181345v -8.56627h 0.181345v 12.5055h 0.181345v -9.63692h 0.181345v
 6.89951h 0.181345v -6.89951h 0.181345v -2.20113h 0.181345v -3.62085h 0.181345v 6.63376h 0.181345v -4.31931h 0.181345v -0.612909h 0.181345v 4.12045h 0.181345v -5.82199h 0.181345v 0.546031h 0.181345v -3.01291h 0.181345v 2.46688h 0.181345v -2.46688h
 0.181345v 7.51874h 0.181345v -3.93919h 0.181345v 1.20178h 0.181345v -0.612909h 0.181345v -0.588867h 0.181345v 0.588867h 0.181345v -2.73741h 0.181345v 3.35032h 0.181345v 5.1775h 0.181345v -7.49195h 0.181345v 5.05186h 0.181345v -7.96695h 0.181345v
 2.9151h 0.181345v -0.526868h 0.181345v 7.16063h 0.36269v -7.66963h 0.181345v 5.35519h 0.181345v -7.23441h 0.181345v -1.26956h 0.181345v 4.18466h 0.181345v 2.95345h 0.181345v -6.72673h 0.181345v 4.31931h 0.181345v -0.546031h 0.181345v -1.52818h
 0.181345v 8.16195h 0.181345v -6.63376h 0.181345v 4.31931h 0.181345v -3.77328h 0.181345v -3.01291h 0.181345v 4.78132h 0.181345v 5.1775h 0.181345v -10.407h 0.181345v 7.96695h 0.181345v -6.08773h 0.181345v 7.66963h 0.181345v -4.31931h 0.181345v
 3.50754h 0.181345v 0.811776h 0.181345v -7.16063h 0.181345v 12.0466h 0.181345v -5.69773h 0.36269v 1.66996h 0.181345v 1.87922h 0.181345v -10.407h 0.181345v 6.08773h 0.181345v -2.73741h 0.181345v 4.31931h 0.181345v 2.73741h 0.181345v -6.41773h
 0.181345v 2.86854h 0.181345v 6.89951h 0.181345v -1.20178h 0.181345v -4.02777h 0.36269v -5.79041h 0.181345v 12.3264h 0.181345v -6.53595h 0.181345v 2.9151h 0.181345v 6.63376h 0.181345v -8.63863h 0.181345v 12.4119h 0.181345v -12.4119h 0.181345v
 0.968994h 0.181345v -0.968994h 0.181345v 4.31931h 0.181345v -2.31445h 0.181345v -1.03587h 0.544034v -3.54919h 0.181345v 6.89951h 0.181345v -1.20178h 0.181345v -4.02777h 0.36269v 5.22954h 0.181345v -5.22954h 0.181345v -0.858187h 0.181345v -1.5819h
 0.181345v -1.43101h 0.181345v 10.407h 0.181345v 3.01291h 0.181345v -11.2188h 0.181345v 4.58506h 0.181345v 1.11267h 0.181345v 1.20178h 0.181345v -6.89951h 0.181345v 2.58019h 0.181345v -3.35032h 0.36269v 11.9889h 0.181345v -3.01291h 0.181345v
 -1.30641h 0.181345v -5.22954h 0.181345v 0.91023h 0.181345v -4.08286h 0.181345v 7.2004h 0.181345v -4.88595h 0.181345v 3.77328h 0.36269v -2.00487h 0.181345v 8.63863h 0.181345v -9.54886h 0.181345v 1.87922h 0.181345v 4.65672h 0.181345v -3.62085h
 0.181345v -10.9339h 0.181345v 6.34885h 0.181345v 2.58019h 0.181345v -1.76842h 0.181345v 3.77328h 0.181345v 6.63376h 0.181345v -7.66963h 0.181345v 9.43805h 0.181345v -10.407h 0.181345v 2.00487h 0.181345v 6.63376h 0.181345v -4.31931h 0.181345v
 -6.89951h 0.181345v 2.58019h 0.181345v -4.08286h 0.181345v 0.732545h 0.181345v 6.46786h 0.181345v -4.02777h 0.181345v 4.02777h 0.181345v -2.14854h 0.181345v -0.968994h 0.36269v 3.11754h 0.181345v -5.69773h 0.181345v -1.50267h 0.181345v 7.2004h
 0.181345v -9.20527h 0.181345v 3.50754h 0.181345v 1.66996h 0.181345v -6.94592h 0.181345v -0.546031h 0.181345v 5.05186h 0.181345v -1.43101h 0.181345v -3.07482h 0.181345v 4.50583h 0.181345v -2.73741h 0.181345v 1.30641h 0.181345v -0.667407h 0.181345v
 12.5055h 0.181345v -5.05186h 0.36269v -6.08773h 0.181345v 3.17263h 0.181345v -3.8711h 0.36269v 9.10064h 0.181345v -9.76805h 0.181345v 3.68032h 0.181345v -3.68032h 0.181345v 4.5385h 0.181345v -3.17263h 0.181345v 6.08773h 0.181345v -2.9151h 0.181345v
 -4.5385h 0.181345v 4.5385h 0.181345v -2.44009h 0.181345v 4.31931h 0.181345v -9.37117h 0.181345v 5.82199h 0.181345v -1.50267h 0.181345v 1.50267h 0.181345v 9.63692h 0.181345v -7.96695h 0.181345v -0.858187h 0.181345v 4.88595h 0.181345v -6.46786h
 0.181345v 3.35032h 0.181345v 5.62572h 0.181345v -5.62572h 0.181345v -6.08773h 0.181345v 4.31931h 0.181345v -0.811776h 0.181345v 17.3065h 0.181345v -14.7264h 0.181345v -2.58019h 0.181345v 6.89951h 0.181345v -9.10064h 0.181345v 3.01291h 0.181345v
 3.77328h 0.181345v -6.78619h 0.181345v 3.8711h 0.181345v -4.5385h 0.181345v 2.86854h 0.181345v -1.50267h 0.544034v 4.08286h 0.181345v -7.85615h 0.181345v 1.15551h 0.181345v 8.70551h 0.181345v 2.31445h 0.181345v -11.6088h 0.181345v 3.93919h 0.181345v
 3.35032h 0.181345v -5.44873h 0.181345v -2.40741h 0.36269v -0.546031h 0.181345v 6.63376h 0.181345v -5.52109h 0.181345v 8.2585h 0.181345v -3.54919h 0.181345v 1.66996h 0.181345v -3.8711h 0.181345v 2.20113h 0.181345v -2.20113h 0.181345v 2.20113h
 0.181345v 0.811776h 0.181345v -3.01291h 0.181345v -4.14772h 0.181345v 7.16063h 0.181345v -2.31445h 0.181345v 3.17263h 0.181345v -3.8711h 0.181345v -2.50818h 0.181345v 7.28951h 0.544034v -5.44873h 0.36269v -1.25191h 0.181345v 0.612909h 0.181345v
 8.0926h 0.181345v -11.4429h 0.181345v 2.73741h 0.181345v 2.61777h 0.181345v -2.61777h 0.181345v 3.35032h 0.181345v 2.44009h 0.181345v 1.87922h 0.181345v -4.31931h 0.181345v -1.43101h 0.181345v 3.01291h 0.181345v -2.31445h 0.36269v 6.08773h 0.181345v
 1.11267h 0.181345v 1.20178h 0.181345v -7.66963h 0.181345v 0.770127h 0.181345v 0.811776h 0.181345v 6.08773h 0.181345v -11.02h 0.181345v 5.79041h 0.36269v -5.1775h 0.181345v 1.30641h 0.181345v -0.667407h 0.181345v 2.86854h 0.181345v 9.63692h 0.181345v
 -7.05672h 0.181345v 3.11754h 0.181345v 2.50818h 0.181345v -7.39414h 0.36269v -0.811776h 0.181345v -1.50267h 0.181345v 6.08773h 0.36269v -1.03587h 0.181345v -5.05186h 0.181345v 2.31445h 0.181345v 2.73741h 0.181345v 4.65672h 0.181345v -1.30641h
 0.181345v -7.66963h 0.181345v -3.93919h 0.181345v 5.52109h 0.181345v 6.08773h 0.544034v -5.22954h 0.181345v -3.17263h 0.181345v 2.31445h 0.181345v 0.858187h 0.181345v 13.3221h 0.181345v -14.1803h 0.181345v 1.76842h 0.181345v 0.968994h 0.181345v
 -2.73741h 0.181345v -0.811776h 0.181345v 5.69773h 0.181345v -6.46786h 0.181345v 4.31931h 0.181345v 2.14854h 0.181345v -5.69773h 0.181345v -2.20113h 0.181345v 3.8711h 0.181345v 0.91023h 0.181345v 0.968994h 0.181345v -5.75032h 0.181345v 6.78619h
 0.36269v 8.40218h 0.181345v -4.78132h 0.181345v -6.53595h 0.181345v 6.53595h 0.181345v -8.97604h 0.181345v 2.44009h 0.181345v 4.02777h 0.181345v 2.50818h 0.181345v -7.39414h 0.181345v -0.811776h 0.181345v 3.54919h 0.36269v 3.35032h 0.181345v
 -6.89951h 0.181345v 2.58019h 0.181345v 0.968994h 0.181345v 6.08773h 0.181345v 1.5819h 0.181345v -6.63376h 0.181345v 15.4589h 0.181345v 7.66963h 0.181345v -18.0767h 0.36269v 1.5819h 0.181345v -3.01291h 0.181345v 3.01291h 0.181345v 1.76842h 0.181345v
 2.00487h 0.181345v -3.77328h 0.181345v 3.77328h 0.181345v -8.0926h 0.181345v 1.30641h 0.36269v 3.01291h 0.181345v -3.01291h 0.181345v -3.62085h 0.181345v 6.63376h 0.181345v 3.77328h 0.181345v -5.35519h 0.181345v 13.7574h 0.181345v -15.1884h
 0.181345v 6.78619h 0.181345v -12.4119h 0.181345v 12.4119h 0.181345v -2.00487h 0.181345v -4.78132h 0.181345v 4.78132h 0.181345v 4.31931h 0.181345v 6.08773h 0.181345v -12.1755h 0.36269v 1.76842h 0.181345v -3.35032h 0.181345v 10.407h 0.181345v 3.35032h
 0.181345v -3.35032h 0.181345v -2.73741h 0.181345v -9.10064h 0.181345v 4.78132h 0.181345v -6.08773h 0.181345v 10.407h 0.181345v 2.73741h 0.181345v -5.05186h 0.181345v 2.31445h 0.181345v -6.08773h 0.181345v -1.5819h 0.181345v 5.35519h 0.181345v
 -6.78619h 0.181345v 9.10064h 0.181345v -6.08773h 0.181345v -3.01291h 0.181345v 9.10064h 0.181345v -6.08773h 0.181345v -4.31931h 0.181345v -1.20178h 0.181345v 7.28951h 0.181345v 2.00487h 0.181345v -2.00487h 0.36269v -4.78132h 0.544034v 3.01291h
 0.181345v 1.76842h 0.181345v -4.78132h 0.181345v 3.01291h 0.181345v 1.76842h 0.181345v -3.35032h 0.181345v 7.66963h 0.181345v -7.66963h 0.181345v -1.43101h 0.181345v 1.43101h 0.181345v 5.35519h 0.36269v 2.31445h 0.181345v -2.31445h 0.36269v
 -9.29437h 0.181345v 5.52109h 0.181345v -1.5819h 0.181345v -2.73741h 0.181345v -1.20178h 0.181345v -2.14854h 0.181345v 3.35032h 0.181345v 6.08773h 0.181345v 2.00487h 0.181345v 8.40218h 0.181345v -10.407h 0.181345v -1.76842h 0.181345v -3.01291h
 0.181345v 1.43101h 0.181345v 5.35519h 0.181345v -5.35519h 0.181345v 13.7574h 0.181345v -15.1884h 0.181345v 3.01291h 0.181345v 1.76842h 0.181345v -1.76842h 0.181345v -7.66963h 0.181345v 9.43805h 0.181345v -4.78132h 0.181345v -2.50818h 0.181345v
 5.52109h 0.544034v -1.5819h 0.181345v -1.43101h 0.181345v -2.50818h 0.181345v 9.29437h 0.181345v -8.0926h 0.181345v 2.73741h 0.181345v -3.93919h 0.181345v 11.6088h 0.181345v 2.73741h 0.181345v -17.4638h 0.181345v 4.31931h 0.181345v 20.8141h
 0.181345v -19.5077h 0.36269v 1.43101h 0.181345v -1.43101h 0.181345v 1.43101h 0.181345v -1.43101h 0.181345v -4.65672h 0.181345v 19.8451h 0.181345v -21.7243h 0.181345v 7.96695h 0.36269v 5.35519h 0.181345v -6.78619h 0.181345v -2.50818h 0.181345v
 1.20178h 0.181345v -4.31931h 0.181345v -0.91023h 0.181345v 5.22954h 0.181345v -4.31931h 0.181345v 3.11754h 0.181345v -6.46786h 0.181345v 7.66963h 0.181345v -2.31445h 0.181345v -3.77328h 0.181345v -1.5819h 0.181345v 13.7574h 0.181345v -6.08773h
 0.181345v -2.31445h 0.181345v -7.4536h 0.181345v 4.5385h 0.181345v -0.858187h 0.181345v 1.76842h 0.181345v -2.58019h 0.181345v 5.69773h 0.181345v -7.89886h 0.181345v 11.838h 0.181345v -6.08773h 0.181345v -3.54919h 0.181345v 0.811776h 0.181345v
 0.858187h 0.181345v 4.02777h 0.181345v 1.20178h 0.181345v -1.20178h 0.181345v -3.11754h 0.181345v 2.00487h 0.181345v -7.4536h 0.181345v 6.41773h 0.181345v 7.66963h 0.181345v -10.407h 0.181345v -4.93222h 0.181345v 13.7574h 0.181345v -3.93919h
 0.36269v -4.88595h 0.36269v 4.88595h 0.36269v -6.46786h 0.181345v 4.31931h 0.181345v -2.73741h 0.181345v -0.811776h 0.181345v -7.82685h 0.181345v 0.968994h 0.181345v 6.85786h 0.181345v 1.66996h 0.181345v 1.87922h 0.181345v -0.968994h 0.181345v
 -3.35032h 0.181345v -2.73741h 0.181345v 4.31931h 0.181345v 3.77328h 0.181345v 1.11267h 0.181345v -8.56627h 0.181345v 14.0874h 0.181345v -5.52109h 0.181345v 3.93919h 0.181345v -6.08773h 0.181345v -3.54919h 0.181345v 5.69773h 0.181345v 1.20178h
 0.181345v -8.40218h 0.181345v 8.40218h 0.181345v -3.35032h 0.181345v 3.35032h 0.181345v 2.73741h 0.181345v -7.05672h 0.181345v 3.11754h 0.181345v 3.93919h 0.181345v 1.5819h 0.181345v -3.01291h 0.181345v -4.65672h 0.181345v 3.35032h 0.181345v
 4.31931h 0.181345v 8.82514h 0.181345v -10.407h 0.181345v -6.08773h 0.181345v 2.14854h 0.181345v 2.50818h 0.181345v 6.78619h 0.181345v 2.31445h 0.181345v 16.4948h 0.181345v -16.4948h 0.181345v 2.73741h 0.181345v -2.73741h 0.36269v 2.73741h 0.181345v
 3.35032h 0.181345v -3.35032h 0.181345v -7.05672h 0.36269v 2.00487h 0.36269v 18.8092h 0.181345v 10.407h 0.181345v -26.9018h 0.181345v -2.31445h 0.181345v 5.05186h 0.181345v 34.5714h 0.181345v -10.407h 0.181345v -20.8141h 0.181345v 20.8141h 0.181345v
 -20.8141h 0.36269v 10.407h 0.36269v 10.407h 0.36269v -26.9018h 0.181345v 16.4948h 0.181345v -6.08773h 0.181345v 6.08773h 0.544034v 20.8141h 0.181345v -34.5714h 0.181345v 7.66963h 0.181345v 26.9018h 0.181345v -20.8141h 0.36269v 10.407h 0.181345v
 -10.407h 0.36269v 20.8141h 0.181345v -10.407h 0.181345v 10.407h 0.181345v -10.407h 0.181345v -10.407h 0.181345v 20.8141h 0.181345v -26.9018h 0.181345v 16.4948h 0.181345v 10.407h 0.36269v -10.407h 0.544034v 10.407h 0.906724v -31.2211h 0.181345v
 20.8141h 0.181345v 10.407h 0.181345v -20.8141h 0.181345v 10.407h 0.181345v -10.407h 0.36269v 10.407h 1.08807v 10.407h 0.181345v -26.9018h 0.181345v 6.08773h 0.544034v 10.407h 0.181345v 10.407h 0.36269v -10.407h 0.181345v 10.407h 0.181345v -10.407h
 0.181345v 10.407h 0.36269v -20.8141h 0.181345v 20.8141h 0.544034v -20.8141h 0.181345v 20.8141h 0.181345v -10.407h 0.181345v 10.407h 0.181345v -10.407h 0.181345v 10.407h 0.181345v -10.407h 0.181345v 10.407h 0.181345v -10.407h 0.181345v 10.407h
 0.181345v -10.407h 0.181345v 10.407h 0.181345v -26.9018h 0.181345v 26.9018h 0.181345v -10.407h 0.181345v -10.407h 0.181345v 20.8141h 0.36269v -10.407h 0.181345v 10.407h 0.36269v -20.8141h 0.181345v 10.407h 0.181345v 10.407h 0.725379v -10.407h
 0.181345v 10.407h 0.36269v -10.407h 0.181345v 10.407h 0.181345v -20.8141h 0.181345v 10.407h 0.181345v 10.407h 0.181345v -20.8141h 0.181345v 20.8141h 0.181345v -10.407h 0.181345v -10.407h 0.181345v 10.407h 0.181345v 10.407h 0.36269v -10.407h
 0.181345v -20.8141h 0.181345v 31.2211h 0.181345v -10.407h 0.181345v -10.407h 0.181345v 20.8141h 0.181345v -10.407h 0.181345v 10.407h 0.544034v -26.9018h 0.181345v 16.4948h 0.544034v 10.407h 0.181345v -10.407h 0.181345v 10.407h 0.181345v -10.407h
 0.181345v -10.407h 0.181345v 10.407h 0.181345v 10.407h 0.181345v -31.2211h 0.181345v 20.8141h 0.181345v 10.407h 0.181345v -10.407h 0.181345v -16.4948h 0.181345v 16.4948h 0.544034v -10.407h 0.181345v 20.8141h 0.181345v -20.8141h 0.36269v 10.407h
 0.181345v -16.4948h 0.181345v 26.9018h 0.36269v -20.8141h 0.181345v 20.8141h 0.181345v -10.407h 0.181345v 10.407h 0.181345v -20.8141h 0.36269v 10.407h 0.181345v -10.407h 0.36269v 20.8141h 0.544034v -10.407h 0.181345v 10.407h 0.181345v -10.407h
 0.181345v 10.407h 0.181345v -10.407h 0.181345v -16.4948h 0.181345v 16.4948h 0.181345v 10.407h 0.181345v -20.8141h 0.181345v 20.8141h 0.181345v -10.407h 0.181345v 10.407h 0.181345v -20.8141h 0.181345v 20.8141h 0.36269v -10.407h 0.544034v -10.407h
 0.181345v 10.407h 0.36269v 10.407h 0.181345v -20.8141h 0.36269v 10.407h 0.181345v 10.407h 0.36269v -20.8141h 0.181345v 20.8141h 0.181345v -20.8141h 0.181345v 20.8141h 0.36269v -10.407h 0.181345v 10.407h 0.36269v -20.8141h 0.181345v 10.407h 0.544034v
 -16.4948h 0.181345v 26.9018h 0.36269v -10.407h 0.181345v -10.407h 0.181345v -6.08773h 0.181345v 26.9018h 0.544034v -20.8141h 0.181345v 10.407h 0.181345v 10.407h 0.181345v -10.407h 0.36269v 10.407h 0.181345v -10.407h 0.181345v 10.407h 0.181345v
 -10.407h 0.36269v -16.4948h 0.181345v 16.4948h 0.181345v 10.407h 0.181345v -20.8141h 0.181345v 10.407h 0.36269v -26.9018h 0.181345v 16.4948h 0.181345v 20.8141h 0.544034v -10.407h 0.181345v -10.407h 0.181345v 20.8141h 0.181345v -26.9018h 0.181345v
 26.9018h 0.181345v -10.407h 0.181345v -10.407h 0.181345v 20.8141h 0.181345v -20.8141h 0.181345v 10.407h 0.36269v -10.407h 0.181345v 20.8141h 0.181345v -10.407h 0.36269v -16.4948h 0.181345v 26.9018h 0.181345v -10.407h 0.181345v -10.407h 0.181345v
 20.8141h 0.36269v -10.407h 0.181345v -10.407h 0.181345v 20.8141h 0.36269v -20.8141h 0.181345v 20.8141h 0.181345v -10.407h 0.181345v 10.407h 0.544034v -20.8141h 0.181345v 10.407h 0.181345v -16.4948h 0.725379v 26.9018h 0.36269v -10.407h 0.181345"
 fill="none" stroke="black"/>
<path d="M57.1929,280.151h 453.543" fill="none" stroke="black"/>
<path d="M57.1929,272.68v 7.47068" fill="none" stroke="black"/>
<path d="M75.3318,276.415v 3.73534" fill="none" stroke="black"/>
<path d="M93.4707,276.415v 3.73534" fill="none" stroke="black"/>
<path d="M111.61,276.415v 3.73534" fill="none" stroke="black"/>
<path d="M129.749,276.415v 3.73534" fill="none" stroke="black"/>
<path d="M147.887,272.68v 7.47068" fill="none" stroke="black"/>
<path d="M166.026,276.415v 3.73534" fill="none" stroke="black"/>
<path d="M184.165,276.415v 3.73534" fill="none" stroke="black"/>
<path d="M202.304,276.415v 3.73534" fill="none" stroke="black"/>
<path d="M220.443,276.415v 3.73534" fill="none" stroke="black"/>
<path d="M238.582,272.68v 7.47068" fill="none" stroke="black"/>
<path d="M256.721,276.415v 3.73534" fill="none" stroke="black"/>
<path d="M274.86,276.415v 3.73534" fill="none" stroke="black"/>
<path d="M292.999,276.415v 3.73534" fill="none" stroke="black"/>
<path d="M311.138,276.415v 3.73534" fill="none" stroke="black"/>
<path d="M329.277,272.68v 7.47068" fill="none" stroke="black"/>
<path d="M347.415,276.415v 3.73534" fill="none" stroke="black"/>
<path d="M365.554,276.415v 3.73534" fill="none" stroke="black"/>
<path d="M383.693,276.415v 3.73534" fill="none" stroke="black"/>
<path d="M401.832,276.415v 3.73534" fill="none" stroke="black"/>
<path d="M419.971,272.68v 7.47068" fill="none" stroke="black"/>
<path d="M438.11,276.415v 3.73534" fill="none" stroke="black"/>
<path d="M456.249,276.415v 3.73534" fill="none" stroke="black"/>
<path d="M474.388,276.415v 3.73534" fill="none" stroke="black"/>
<path d="M492.527,276.415v 3.73534" fill="none" stroke="black"/>
<path d="M510.666,272.68v 7.47068" fill="none" stroke="black"/>
<path d="M510.666,272.68v 7.47068" fill="none" stroke="black"/>
<text xml:space="preserve" x="54.3523" y="290.27" fill="black" font-size="10.4952" font-family="Helvetica">0</text>
<text xml:space="preserve" x="139.569" y="290.27" fill="black" font-size="10.4952" font-family="Helvetica">500</text>
<text xml:space="preserve" x="227.449" y="290.27" fill="black" font-size="10.4952" font-family="Helvetica">1000</text>
<text xml:space="preserve" x="318.288" y="290.27" fill="black" font-size="10.4952" font-family="Helvetica">1500</text>
<text xml:space="preserve" x="408.831" y="290.27" fill="black" font-size="10.4952" font-family="Helvetica">2000</text>
<text xml:space="preserve" x="499.67" y="290.27" fill="black" font-size="10.4952" font-family="Helvetica">2500</text>
<text xml:space="preserve" x="265.323" y="301.218" fill="black" font-size="10.4952" font-family="Helvetica">Channel</text>
<path d="M57.1929,280.151v -249.023" fill="none" stroke="black"/>
<path d="M63.9961,280.151h -6.80315" fill="none" stroke="black"/>
<path d="M63.9961,277.413h -6.80315" fill="none" stroke="black"/>
<path d="M63.9961,275.099h -6.80315" fill="none" stroke="black"/>
<path d="M63.9961,273.094h -6.80315" fill="none" stroke="black"/>
<path d="M63.9961,271.325h -6.80315" fill="none" stroke="black"/>
<path d="M70.7992,269.743h -13.6063" fill="none" stroke="black"/>
<text xml:space="preserve" x="49.0263" y="273.404" fill="black" font-size="10.4952" font-family="Helvetica">1</text>
<path d="M63.9961,259.336h -6.80315" fill="none" stroke="black"/>
<path d="M63.9961,253.249h -6.80315" fill="none" stroke="black"/>
<path d="M63.9961,248.929h -6.80315" fill="none" stroke="black"/>
<path d="M63.9961,245.579h -6.80315" fill="none" stroke="black"/>
<path d="M63.9961,242.842h -6.80315" fill="none" stroke="black"/>
<path d="M63.9961,240.527h -6.80315" fill="none" stroke="black"/>
<path d="M63.9961,238.522h -6.80315" fill="none" stroke="black"/>
<path d="M63.9961,236.754h -6.80315" fill="none" stroke="black"/>
<path d="M70.7992,235.172h -13.6063" fill="none" stroke="black"/>
<text xml:space="preserve" x="41.629" y="238.785" fill="black" font-size="10.4952" font-family="Helvetica">10</text>
<path d="M63.9961,224.765h -6.80315" fill="none" stroke="black"/>
<path d="M63.9961,218.677h -6.80315" fill="none" stroke="black"/>
<path d="M63.9961,214.358h -6.80315" fill="none" stroke="black"/>
<path d="M63.9961,211.008h -6.80315" fill="none" stroke="black"/>
<path d="M63.9961,208.27h -6.80315" fill="none" stroke="black"/>
<path d="M63.9961,205.956h -6.80315" fill="none" stroke="black"/>
<path d="M63.9961,203.951h -6.80315" fill="none" stroke="black"/>
<path d="M63.9961,202.183h -6.80315" fill="none" stroke="black"/>
<path d="M70.7992,200.601h -13.6063" fill="none" stroke="black"/>
<text xml:space="preserve" x="49.0263" y="200.615" fill="black" font-size="7.16345" font-family="Helvetica">2</text>
<text xml:space="preserve" x="38.0783" y="205.053" fill="black" font-size="10.4952" font-family="Helvetica">10</text>
<path d="M63.9961,190.194h -6.80315" fill="none" stroke="black"/>
<path d="M63.9961,184.106h -6.80315" fill="none" stroke="black"/>
<path d="M63.9961,179.787h -6.80315" fill="none" stroke="black"/>
<path d="M63.9961,176.436h -6.80315" fill="none" stroke="black"/>
<path d="M63.9961,173.699h -6.80315" fill="none" stroke="black"/>
<path d="M63.9961,171.384h -6.80315" fill="none" stroke="black"/>
<path d="M63.9961,169.379h -6.80315" fill="none" stroke="black"/>
<path d="M63.9961,167.611h -6.80315" fill="none" stroke="black"/>
<path d="M70.7992,166.029h -13.6063" fill="none" stroke="black"/>
<text xml:space="preserve" x="49.0263" y="165.995" fill="black" font-size="7.16345" font-family="Helvetica">3</text>
<text xml:space="preserve" x="38.0783" y="170.73" fill="black" font-size="10.4952" font-family="Helvetica">10</text>
<path d="M63.9961,155.622h -6.80315" fill="none" stroke="black"/>
<path d="M63.9961,149.534h -6.80315" fill="none" stroke="black"/>
<path d="M63.9961,145.215h -6.80315" fill="none" stroke="black"/>
<path d="M63.9961,141.865h -6.80315" fill="none" stroke="black"/>
<path d="M63.9961,139.127h -6.80315" fill="none" stroke="black"/>
<path d="M63.9961,136.813h -6.80315" fill="none" stroke="black"/>
<path d="M63.9961,134.808h -6.80315" fill="none" stroke="black"/>
<path d="M63.9961,133.04h -6.80315" fill="none" stroke="black"/>
<path d="M70.7992,131.458h -13.6063" fill="none" stroke="black"/>
<text xml:space="preserve" x="49.0263" y="131.672" fill="black" font-size="7.16345" font-family="Helvetica">4</text>
<text xml:space="preserve" x="38.0783" y="136.11" fill="black" font-size="10.4952" font-family="Helvetica">10</text>
<path d="M63.9961,121.051h -6.80315" fill="none" stroke="black"/>
<path d="M63.9961,114.963h -6.80315" fill="none" stroke="black"/>
<path d="M63.9961,110.644h -6.80315" fill="none" stroke="black"/>
<path d="M63.9961,107.293h -6.80315" fill="none" stroke="black"/>
<path d="M63.9961,104.556h -6.80315" fill="none" stroke="black"/>
<path d="M63.9961,102.241h -6.80315" fill="none" stroke="black"/>
<path d="M63.9961,100.237h -6.80315" fill="none" stroke="black"/>
<path d="M63.9961,98.4682h -6.80315" fill="none" stroke="black"/>
<path d="M70.7992,96.8863h -13.6063" fill="none" stroke="black"/>
<text xml:space="preserve" x="49.0263" y="96.7567" fill="black" font-size="7.16345" font-family="Helvetica">5</text>
<text xml:space="preserve" x="38.0783" y="101.491" fill="black" font-size="10.4952" font-family="Helvetica">10</text>
<path d="M63.9961,86.4792h -6.80315" fill="none" stroke="black"/>
<path d="M63.9961,80.3915h -6.80315" fill="none" stroke="black"/>
<path d="M63.9961,76.0722h -6.80315" fill="none" stroke="black"/>
<path d="M63.9961,72.7219h -6.80315" fill="none" stroke="black"/>
<path d="M63.9961,69.9845h -6.80315" fill="none" stroke="black"/>
<path d="M63.9961,67.67h -6.80315" fill="none" stroke="black"/>
<path d="M63.9961,65.6651h -6.80315" fill="none" stroke="black"/>
<path d="M63.9961,63.8967h -6.80315" fill="none" stroke="black"/>
<path d="M70.7992,62.3148h -13.6063" fill="none" stroke="black"/>
<text xml:space="preserve" x="49.0263" y="62.1373" fill="black" font-size="7.16345" font-family="Helvetica">6</text>
<text xml:space="preserve" x="38.0783" y="66.8716" fill="black" font-size="10.4952" font-family="Helvetica">10</text>
<path d="M63.9961,51.9078h -6.80315" fill="none" stroke="black"/>
<path d="M63.9961,45.8201h -6.80315" fill="none" stroke="black"/>
<path d="M63.9961,41.5007h -6.80315" fill="none" stroke="black"/>
<path d="M63.9961,38.1504h -6.80315" fill="none" stroke="black"/>
<path d="M63.9961,35.413h -6.80315" fill="none" stroke="black"/>
<path d="M63.9961,33.0986h -6.80315" fill="none" stroke="black"/>
<g transform="rotate(-90,26.5385,191.442)">
<text xml:space="preserve" x="26.5385" y="191.442" fill="black" font-size="10.4952" font-family="Helvetica">Counts/Channel</text>
</g>
<text xml:space="preserve" x="404.097" y="62.1373" fill="black" font-size="14.7788" font-family="Helvetica" font-weight="bold"> = 2.4879 MeV</text>
<text xml:space="preserve" x="398.179" y="65.3921" fill="black" font-size="10.0192" font-family="Helvetica" font-weight="bold">p</text>
<text xml:space="preserve" x="389.006" y="62.1373" fill="black" font-size="14.7788" font-family="Helvetica" font-weight="bold">E</text>
<path d="M262.163,164.598v 25.9462" fill="none" stroke="black"/>
<path d="M264.454,190.544l -2.29122, 3.9685l -2.29122, -3.9685z" fill="black"/>
<path d="M264.454,190.544l -2.29122, 3.9685l -2.29122, -3.9685h 4.58243z" fill="none" stroke="black"/>
<text xml:space="preserve" x="266.803" y="162.445" fill="black" font-size="10.4952" font-family="Helvetica" font-weight="bold">_1 	1.369 MeV</text>
<text xml:space="preserve" x="260.293" y="162.445" fill="black" font-size="10.4952" font-family="Times">&#0945;</text>
<path d="M184.528,131.458v 30.6029" fill="none" stroke="black"/>
<path d="M186.819,162.061l -2.29122, 3.9685l -2.29122, -3.9685z" fill="black"/>
<path d="M186.819,162.061l -2.29122, 3.9685l -2.29122, -3.9685h 4.58243z" fill="none" stroke="black"/>
<text xml:space="preserve" x="172.117" y="128.713" fill="black" font-size="10.4952" font-family="Helvetica" font-weight="bold"># p_1 	0.844 MeV</text>
<path d="M210.104,149.534v 12.5263" fill="none" stroke="black"/>
<path d="M212.395,162.061l -2.29122, 3.9685l -2.29122, -3.9685z" fill="black"/>
<path d="M212.395,162.061l -2.29122, 3.9685l -2.29122, -3.9685h 4.58243z" fill="none" stroke="black"/>
<text xml:space="preserve" x="197.564" y="144.987" fill="black" font-size="10.4952" font-family="Helvetica" font-weight="bold"># p_2 	1.015 MeV</text>
<path d="M497.701,269.743h 12.9644" fill="none" stroke="black"/>
<path d="M504.183,259.336h 6.48221" fill="none" stroke="black"/>
<path d="M504.183,253.249h 6.48221" fill="none" stroke="black"/>
<path d="M504.183,248.929h 6.48221" fill="none" stroke="black"/>
<path d="M504.183,245.579h 6.48221" fill="none" stroke="black"/>
<path d="M504.183,242.842h 6.48221" fill="none" stroke="black"/>
<path d="M504.183,240.527h 6.48221" fill="none" stroke="black"/>
<path d="M504.183,238.522h 6.48221" fill="none" stroke="black"/>
<path d="M504.183,236.754h 6.48221" fill="none" stroke="black"/>
<path d="M497.701,235.172h 12.9644" fill="none" stroke="black"/>
<path d="M504.183,224.765h 6.48221" fill="none" stroke="black"/>
<path d="M504.183,218.677h 6.48221" fill="none" stroke="black"/>
<path d="M504.183,214.358h 6.48221" fill="none" stroke="black"/>
<path d="M504.183,211.008h 6.48221" fill="none" stroke="black"/>
<path d="M504.183,208.27h 6.48221" fill="none" stroke="black"/>
<path d="M504.183,205.956h 6.48221" fill="none" stroke="black"/>
<path d="M504.183,203.951h 6.48221" fill="none" stroke="black"/>
<path d="M504.183,202.183h 6.48221" fill="none" stroke="black"/>
<path d="M497.701,200.601h 12.9644" fill="none" stroke="black"/>
<path d="M504.183,190.194h 6.48221" fill="none" stroke="black"/>
<path d="M504.183,184.106h 6.48221" fill="none" stroke="black"/>
<path d="M504.183,179.787h 6.48221" fill="none" stroke="black"/>
<path d="M504.183,176.436h 6.48221" fill="none" stroke="black"/>
<path d="M504.183,173.699h 6.48221" fill="none" stroke="black"/>
<path d="M504.183,171.384h 6.48221" fill="none" stroke="black"/>
<path d="M504.183,169.379h 6.48221" fill="none" stroke="black"/>
<path d="M504.183,167.611h 6.48221" fill="none" stroke="black"/>
<path d="M497.701,166.029h 12.9644" fill="none" stroke="black"/>
<path d="M504.183,155.622h 6.48221" fill="none" stroke="black"/>
<path d="M504.183,149.534h 6.48221" fill="none" stroke="black"/>
<path d="M504.183,145.215h 6.48221" fill="none" stroke="black"/>
<path d="M504.183,141.865h 6.48221" fill="none" stroke="black"/>
<path d="M504.183,139.127h 6.48221" fill="none" stroke="black"/>
<path d="M504.183,136.813h 6.48221" fill="none" stroke="black"/>
<path d="M504.183,134.808h 6.48221" fill="none" stroke="black"/>
<path d="M504.183,133.04h 6.48221" fill="none" stroke="black"/>
<path d="M497.701,131.458h 12.9644" fill="none" stroke="black"/>
<path d="M504.183,121.051h 6.48221" fill="none" stroke="black"/>
<path d="M504.183,114.963h 6.48221" fill="none" stroke="black"/>
<path d="M504.183,110.644h 6.48221" fill="none" stroke="black"/>
<path d="M504.183,107.293h 6.48221" fill="none" stroke="black"/>
<path d="M504.183,104.556h 6.48221" fill="none" stroke="black"/>
<path d="M504.183,102.241h 6.48221" fill="none" stroke="black"/>
<path d="M504.183,100.237h 6.48221" fill="none" stroke="black"/>
<path d="M504.183,98.4682h 6.48221" fill="none" stroke="black"/>
<path d="M497.701,96.8863h 12.9644" fill="none" stroke="black"/>
<path d="M504.183,86.4792h 6.48221" fill="none" stroke="black"/>
<path d="M504.183,80.3915h 6.48221" fill="none" stroke="black"/>
<path d="M504.183,76.0722h 6.48221" fill="none" stroke="black"/>
<path d="M504.183,72.7219h 6.48221" fill="none" stroke="black"/>
<path d="M504.183,69.9845h 6.48221" fill="none" stroke="black"/>
<path d="M504.183,67.67h 6.48221" fill="none" stroke="black"/>
<path d="M504.183,65.6651h 6.48221" fill="none" stroke="black"/>
<path d="M504.183,63.8967h 6.48221" fill="none" stroke="black"/>
<path d="M497.701,62.3148h 12.9644" fill="none" stroke="black"/>
<path d="M504.183,51.9078h 6.48221" fill="none" stroke="black"/>
<path d="M504.183,45.8201h 6.48221" fill="none" stroke="black"/>
<path d="M504.183,41.5007h 6.48221" fill="none" stroke="black"/>
<path d="M504.183,38.1504h 6.48221" fill="none" stroke="black"/>
<path d="M504.183,35.413h 6.48221" fill="none" stroke="black"/>
<path d="M504.183,33.0986h 6.48221" fill="none" stroke="black"/>
<path d="M57.1929,39.938v -7.46952" fill="none" stroke="black"/>
<path d="M75.3318,39.938v -7.46952" fill="none" stroke="black"/>
<path d="M93.4707,39.938v -7.46952" fill="none" stroke="black"/>
<path d="M111.61,39.938v -7.46952" fill="none" stroke="black"/>
<path d="M129.749,39.938v -7.46952" fill="none" stroke="black"/>
<path d="M147.887,39.938v -7.46952" fill="none" stroke="black"/>
<path d="M166.026,39.938v -7.46952" fill="none" stroke="black"/>
<path d="M184.165,39.938v -7.46952" fill="none" stroke="black"/>
<path d="M202.304,39.938v -7.46952" fill="none" stroke="black"/>
<path d="M220.443,39.938v -7.46952" fill="none" stroke="black"/>
<path d="M238.582,39.938v -7.46952" fill="none" stroke="black"/>
<path d="M256.721,39.938v -7.46952" fill="none" stroke="black"/>
<path d="M274.86,39.938v -7.46952" fill="none" stroke="black"/>
<path d="M292.999,39.938v -7.46952" fill="none" stroke="black"/>
<path d="M311.138,39.938v -7.46952" fill="none" stroke="black"/>
<path d="M329.277,39.938v -7.46952" fill="none" stroke="black"/>
<path d="M347.415,39.938v -7.46952" fill="none" stroke="black"/>
<path d="M365.554,39.938v -7.46952" fill="none" stroke="black"/>
<path d="M383.693,39.938v -7.46952" fill="none" stroke="black"/>
<path d="M401.832,39.938v -7.46952" fill="none" stroke="black"/>
<path d="M419.971,39.938v -7.46952" fill="none" stroke="black"/>
<path d="M438.11,39.938v -7.46952" fill="none" stroke="black"/>
<path d="M456.249,39.938v -7.46952" fill="none" stroke="black"/>
<path d="M474.388,39.938v -7.46952" fill="none" stroke="black"/>
<path d="M492.527,39.938v -7.46952" fill="none" stroke="black"/>
<path d="M510.666,39.938v -7.46952" fill="none" stroke="black"/></svg>
