<?xml version="1.0" standalone="no"?>
<svg width="567.429" height="311.778" viewBox="0 0 567.429 311.778" xmlns="http://www.w3.org/2000/svg" shape-rendering="crispEdges">
<title>
Yields/P1/run_0099/det9_Fit.svg
</title>
<desc>
Creator: ROOT Version 6.12/06
CreationDate: Mon Apr 15 10:29:01 2019</desc>
<defs>
</defs>
<rect x="0.5" y="0" width="566.929" height="311.278" fill="white"/>
<rect x="57.1929" y="31.1278" width="453.543" height="249.023" fill="white"/>
<rect x="57.1929" y="31.1278" width="453.543" height="249.023" fill="none" stroke="black"/>
<path d="M57.1929,40.7196h 0.181345v 239.431h 2.35748v -10.4032h 0.181345v 10.4032h 2.17614v -10.4032h 0.181345v 10.4032h 6.16572v -10.4032h 0.181345v 10.4032h 8.5232v -10.4032h 0.181345v 10.4032h 0.544034v -10.4032h 0.181345v 10.4032h 1.99479v
 -10.4032h 0.181345v 10.4032h 0.906724v -10.4032h 0.181345v 10.4032h 2.90152v -10.4032h 0.36269v 10.4032h 0.544034v -10.4032h 0.181345v 10.4032h 1.6321v -10.4032h 0.181345v 10.4032h 0.725379v -10.4032h 0.181345v 10.4032h 0.725379v -20.8064h 0.181345v
 10.4032h 0.181345v -16.4887h 0.181345v -18.07h 0.181345v -18.3672h 0.181345v -14.776h 0.181345v -9.81454h 0.181345v -7.9892h 0.181345v -3.76629h 0.181345v -3.48173h 0.181345v -2.82418h 0.181345v -1.70183h 0.181345v -1.23489h 0.181345v -0.703012h
 0.181345v -1.62569h 0.181345v -0.340509h 0.181345v -0.590693h 0.181345v -0.860708h 0.181345v 0.0806484h 0.181345v -0.818283h 0.181345v 0.561719h 0.181345v -1.59721h 0.181345v 0.376321h 0.181345v 0.162098h 0.181345v -0.322463h 0.181345v -0.555148h
 0.181345v -0.194379h 0.181345v -0.232697h 0.181345v -0.690173h 0.181345v 0.595396h 0.181345v 0.121967h 0.181345v -0.162403h 0.181345v -1.06507h 0.181345v 1.21387h 0.181345v 0.399519h 0.181345v -1.2838h 0.181345v 0.0128224h 0.181345v -0.799317h
 0.181345v 1.44142h 0.181345v -0.304821h 0.181345v -0.977651h 0.181345v 0.756262h 0.181345v -0.508385h 0.181345v 0.638218h 0.181345v -0.0260566h 0.181345v 0.435829h 0.181345v -0.591226h 0.181345v 0.181454h 0.181345v -0.24573h 0.181345v -0.726163h
 0.181345v 0.662161h 0.181345v -0.0764448h 0.181345v 0.0636769h 0.181345v 0.732273h 0.181345v 0.421275h 0.181345v 0.110663h 0.181345v 0.623677h 0.181345v -1.10192h 0.181345v 0.367577h 0.181345v -1.2553h 0.181345v -0.70569h 0.181345v -1.63685h
 0.181345v -2.03527h 0.181345v -1.63142h 0.181345v -3.09726h 0.181345v -3.24924h 0.181345v -3.5338h 0.181345v -2.74153h 0.181345v -3.10012h 0.181345v -2.28163h 0.181345v -1.69021h 0.181345v -1.37987h 0.181345v -0.240044h 0.181345v -0.187687h
 0.181345v 0.431903h 0.181345v 1.55746h 0.181345v 1.87112h 0.181345v 2.45585h 0.181345v 2.9943h 0.181345v 4.09196h 0.181345v 3.51588h 0.181345v 4.65102h 0.181345v 2.96163h 0.181345v 4.71085h 0.181345v 3.45616h 0.181345v 1.34831h 0.181345v 2.14473h
 0.181345v 1.2485h 0.181345v 1.90967h 0.181345v -0.19402h 0.181345v -0.593944h 0.181345v 0.56643h 0.181345v 0.305459h 0.181345v -0.111797h 0.181345v 0.683623h 0.181345v -0.932161h 0.181345v 0.0548762h 0.181345v 0.503129h 0.181345v 1.33696h 0.181345v
 -0.727833h 0.181345v 1.23343h 0.181345v -0.690895h 0.181345v -1.00886h 0.181345v 0.735143h 0.181345v 1.4546h 0.181345v -1.02663h 0.181345v 0.601058h 0.181345v 1.10481h 0.181345v -1.86012h 0.181345v 1.58473h 0.181345v -1.02184h 0.181345v 0.387341h
 0.36269v -1.19378h 0.181345v 1.22652h 0.181345v -0.259896h 0.181345v -0.12828h 0.181345v 0.290187h 0.181345v 0.0979892h 0.181345v -1.19629h 0.181345v 2.56789h 0.181345v -0.14294h 0.181345v -0.489835h 0.181345v 0.561135h 0.181345v 1.38409h 0.181345v
 0.157572h 0.181345v -0.390872h 0.181345v -0.153542h 0.181345v 1.44194h 0.181345v -1.32693h 0.181345v 0.871458h 0.181345v -1.25144h 0.181345v 1.79123h 0.181345v -0.661644h 0.181345v 1.26552h 0.181345v -0.390985h 0.181345v -1.31307h 0.181345v
 0.848627h 0.181345v 0.0416328h 0.181345v 0.167696h 0.181345v -1.82387h 0.181345v 1.20444h 0.181345v 0.661644h 0.181345v 0.0847947h 0.181345v 0.214107h 0.181345v 0.842655h 0.181345v -0.226379h 0.181345v -0.787805h 0.181345v 0.171529h 0.181345v
 -0.715834h 0.181345v 1.60418h 0.181345v 0.370602h 0.181345v -2.42041h 0.181345v 1.51052h 0.181345v 1.28988h 0.181345v -0.56643h 0.181345v -1.3714h 0.181345v 1.23307h 0.181345v 0.277945h 0.181345v -0.59584h 0.181345v 0.87903h 0.181345v 0.933734h
 0.181345v -0.400254h 0.181345v -1.18613h 0.181345v -0.315983h 0.181345v 1.4037h 0.181345v -1.53711h 0.181345v 1.68498h 0.181345v -0.487336h 0.181345v 0.586731h 0.181345v -0.777319h 0.181345v 0.978107h 0.181345v -1.21299h 0.181345v -0.0465384h
 0.36269v 2.63452h 0.181345v -1.42544h 0.181345v -0.880237h 0.181345v 0.336207h 0.181345v -0.849772h 0.181345v -0.362764h 0.181345v -0.742937h 0.181345v -0.169591h 0.181345v -0.700118h 0.181345v -2.44522h 0.181345v 0.771641h 0.181345v -1.47295h
 0.181345v 0.131081h 0.181345v -0.987137h 0.181345v 0.921454h 0.181345v 0.264476h 0.181345v -0.716383h 0.181345v -0.864934h 0.181345v 2.194h 0.181345v -0.645997h 0.181345v 1.57762h 0.181345v 1.31264h 0.181345v 0.244048h 0.181345v -0.642178h 0.181345v
 2.37922h 0.181345v -0.363863h 0.181345v 2.59328h 0.181345v 1.99649h 0.181345v -3.80574h 0.181345v 0.877377h 0.181345v 0.458703h 0.181345v -1.14549h 0.181345v 2.61224h 0.181345v -0.940074h 0.181345v 0.435063h 0.181345v -0.327474h 0.181345v 0.775526h
 0.181345v -0.989938h 0.181345v 0.268498h 0.181345v 0.108759h 0.181345v 1.49063h 0.181345v -0.648804h 0.181345v -0.896304h 0.181345v 0.781294h 0.181345v 0.406448h 0.181345v -1.07859h 0.181345v 1.43595h 0.181345v -2.02671h 0.181345v 1.78752h 0.181345v
 -0.976048h 0.181345v 1.15508h 0.181345v -1.43047h 0.181345v 0.331086h 0.181345v -0.867165h 0.181345v 2.95922h 0.181345v -2.69358h 0.181345v 0.0536982h 0.181345v 1.70736h 0.181345v -0.416107h 0.36269v 0.296038h 0.181345v -0.354551h 0.181345v
 -1.65704h 0.181345v 0.263779h 0.181345v 1.10407h 0.181345v -1.78049h 0.181345v 0.153411h 0.181345v -1.2802h 0.181345v 0.528358h 0.181345v 0.147385h 0.181345v -0.0492895h 0.181345v 0.398924h 0.181345v -2.1174h 0.181345v 1.62038h 0.181345v -0.901262h
 0.181345v -0.453467h 0.181345v 2.15806h 0.181345v -1.61223h 0.181345v 1.87235h 0.181345v -0.916065h 0.181345v -0.485758h 0.181345v 0.0959021h 0.181345v 1.67784h 0.181345v 0.49213h 0.181345v -0.91643h 0.181345v 1.02802h 0.181345v 2.22982h 0.181345v
 0.196194h 0.181345v -0.261026h 0.181345v -2.05256h 0.181345v 1.60641h 0.36269v 0.189585h 0.181345v -0.561719h 0.181345v -1.4026h 0.181345v 1.77474h 0.181345v 1.10743h 0.181345v -2.54361h 0.181345v 2.07767h 0.181345v -1.01363h 0.181345v -1.56906h
 0.181345v 2.25851h 0.181345v -0.628068h 0.181345v 1.41818h 0.181345v -2.82627h 0.181345v 0.923899h 0.181345v -0.754945h 0.181345v 1.30077h 0.181345v -0.184157h 0.181345v 0.94425h 0.181345v -0.698201h 0.181345v 0.698201h 0.181345v 0.262166h 0.181345v
 -0.455828h 0.181345v 0.655503h 0.181345v -2.52271h 0.181345v 1.48722h 0.181345v -0.49213h 0.36269v 0.936392h 0.181345v -0.875751h 0.181345v 1.20133h 0.181345v -0.894395h 0.181345v 0.568816h 0.181345v -1.64559h 0.181345v 1.64559h 0.181345v -1.98801h
 0.181345v 0.284802h 0.181345v 0.706419h 0.181345v -0.706419h 0.36269v 0.0576148h 0.181345v -0.342417h 0.181345v 1.3573h 0.181345v 0.186445h 0.181345v -1.43047h 0.181345v 1.43047h 0.181345v 0.252252h 0.181345v -1.16214h 0.181345v 1.22587h 0.181345v
 -0.928665h 0.181345v -0.931066h 0.181345v 0.931066h 0.181345v 0.675349h 0.181345v -0.972559h 0.181345v -0.633856h 0.181345v 0.991221h 0.181345v -1.04754h 0.181345v -0.0561071h 0.181345v 1.04349h 0.181345v -0.987383h 0.181345v 0.398735h 0.181345v
 0.409618h 0.181345v 0.729307h 0.181345v -1.8712h 0.181345v 0.848171h 0.181345v -1.28166h 0.181345v -0.106445h 0.181345v -0.262855h 0.181345v 0.476504h 0.181345v 0.216735h 0.181345v 1.13326h 0.181345v 0.29721h 0.181345v 0.3646h 0.181345v -0.0613851h
 0.181345v 0.689453h 0.181345v -1.7535h 0.181345v -0.170232h 0.181345v 0.575113h 0.181345v -0.17486h 0.181345v 0.470897h 0.181345v 0.924848h 0.181345v -0.126656h 0.181345v 0.644246h 0.181345v -1.97117h 0.181345v 2.10341h 0.36269v -1.02663h 0.181345v
 1.29465h 0.181345v -1.47956h 0.181345v 2.45721h 0.181345v 0.0723309h 0.181345v -1.04998h 0.181345v 1.04998h 0.181345v 2.9555h 0.181345v -4.00549h 0.181345v -0.531334h 0.181345v -0.825206h 0.181345v 2.99807h 0.181345v -1.09069h 0.181345v 0.28319h
 0.181345v 1.18942h 0.181345v -1.0458h 0.181345v 1.92188h 0.181345v -1.03002h 0.181345v 0.948228h 0.181345v 0.246723h 0.181345v -1.86877h 0.181345v 0.073392h 0.181345v 1.54865h 0.181345v -0.481601h 0.181345v 0.645632h 0.36269v -0.724417h 0.181345v
 0.237609h 0.181345v 0.160522h 0.181345v -0.709201h 0.181345v 1.20133h 0.181345v -0.165843h 0.181345v 1.6548h 0.181345v -0.893634h 0.181345v -1.16793h 0.181345v 0.489455h 0.181345v 1.29838h 0.181345v -1.54511h 0.181345v 0.752679h 0.36269v -0.670888h
 0.181345v 1.1945h 0.181345v -0.4376h 0.181345v 2.12785h 0.181345v -1.86683h 0.181345v 2.47537h 0.181345v -0.608541h 0.181345v -0.197485h 0.181345v -2.35557h 0.181345v 0.598714h 0.181345v 0.806628h 0.181345v -1.90018h 0.181345v 2.08547h 0.181345v
 -0.459015h 0.181345v 0.273721h 0.181345v -0.183034h 0.181345v 1.93929h 0.181345v -2.7364h 0.181345v 2.42904h 0.181345v -1.076h 0.181345v -0.4647h 0.181345v 0.559392h 0.181345v -0.467596h 0.181345v 1.55066h 0.181345v -0.795345h 0.181345v -1.20878h
 0.181345v 1.01636h 0.181345v -0.926753h 0.181345v -1.85737h 0.181345v 3.46867h 0.181345v -1.33924h 0.181345v -0.450743h 0.181345v -0.0885467h 0.181345v 1.09868h 0.181345v -0.467596h 0.181345v 3.16604h 0.181345v -0.337287h 0.181345v -3.28222h
 0.181345v -0.783236h 0.181345v 1.8955h 0.181345v -2.14775h 0.181345v 0.857869h 0.181345v 1.48354h 0.36269v -1.9186h 0.181345v 2.82241h 0.181345v 0.961735h 0.181345v -0.327474h 0.181345v 0.21752h 0.181345v -3.32715h 0.181345v 4.1143h 0.181345v
 -1.32515h 0.181345v -1.69713h 0.181345v -1.00399h 0.181345v 0.177619h 0.181345v 1.8013h 0.181345v 0.512289h 0.181345v -0.811475h 0.181345v 2.46244h 0.181345v -3.96455h 0.181345v 2.00412h 0.181345v 0.205601h 0.181345v -2.2988h 0.181345v 0.821345h
 0.181345v -1.85091h 0.181345v 3.12276h 0.181345v -2.87191h 0.181345v 1.32126h 0.181345v 0.0923611h 0.181345v 1.76776h 0.181345v -0.103866h 0.181345v -1.6639h 0.181345v -0.811475h 0.181345v 0.627317h 0.181345v -0.181925h 0.181345v 1.12617h 0.181345v
 -1.83259h 0.181345v 0.526672h 0.181345v 2.95235h 0.181345v -3.47902h 0.181345v -1.08142h 0.181345v 1.34245h 0.181345v -0.852992h 0.181345v -0.0826924h 0.181345v -0.486809h 0.181345v -0.62545h 0.181345v 0.785971h 0.181345v -1.08919h 0.36269v
 0.849043h 0.181345v -0.314328h 0.181345v -1.40925h 0.181345v -1.35304h 0.181345v 0.459819h 0.181345v 1.10713h 0.181345v -0.632776h 0.181345v -0.272892h 0.181345v -1.2325h 0.181345v 1.30026h 0.181345v -1.91045h 0.181345v 1.91045h 0.181345v -1.36241h
 0.181345v 2.20032h 0.181345v -0.0716403h 0.181345v -1.10205h 0.181345v 3.58333h 0.181345v -3.91176h 0.181345v 1.00767h 0.181345v -0.069324h 0.181345v 1.37525h 0.181345v 0.540214h 0.181345v -2.05315h 0.181345v 2.77757h 0.181345v -2.98177h 0.181345v
 -0.465937h 0.181345v 1.8829h 0.181345v -0.221261h 0.181345v -0.991496h 0.181345v 0.0686895h 0.181345v -1.69107h 0.36269v -0.12252h 0.181345v 0.184157h 0.181345v -3.45984h 0.181345v -0.530055h 0.181345v -1.44338h 0.181345v -2.0095h 0.181345v
 -2.00412h 0.181345v -1.76776h 0.181345v -1.7124h 0.181345v -2.36199h 0.181345v 0.0670528h 0.181345v -2.71772h 0.181345v -0.640319h 0.181345v -0.631297h 0.181345v -0.964341h 0.181345v -1.2804h 0.181345v -1.1112h 0.181345v 1.45521h 0.181345v -2.21819h
 0.181345v 1.30829h 0.181345v -0.0851958h 0.181345v 1.10137h 0.181345v 0.292335h 0.181345v 1.67483h 0.181345v 0.802792h 0.181345v 1.9336h 0.181345v 1.12509h 0.181345v 1.91452h 0.181345v 0.492981h 0.181345v 3.52152h 0.181345v 0.201461h 0.181345v
 3.65643h 0.181345v 0.616276h 0.181345v 2.27619h 0.181345v 1.5407h 0.181345v 0.712005h 0.181345v 0.940305h 0.181345v 2.37842h 0.181345v 1.85328h 0.181345v 0.883115h 0.181345v -1.13823h 0.181345v 3.49736h 0.181345v -0.928665h 0.181345v -0.968634h
 0.181345v 2.54995h 0.181345v -1.78011h 0.181345v -0.389856h 0.181345v 2.62139h 0.181345v -1.83128h 0.181345v 2.17898h 0.181345v -0.687538h 0.181345v -0.111589h 0.181345v 2.14775h 0.36269v -2.36847h 0.181345v 1.01985h 0.181345v 0.117715h 0.181345v
 0.602837h 0.181345v -0.720552h 0.181345v 1.09423h 0.36269v -2.00412h 0.181345v -0.541886h 0.181345v 3.19025h 0.181345v -2.42601h 0.181345v -2.18504h 0.181345v 4.61105h 0.181345v -1.38252h 0.181345v 0.3646h 0.181345v -0.953249h 0.181345v 4.55041h
 0.181345v -2.31359h 0.181345v 0.134607h 0.181345v -0.268018h 0.181345v -0.649825h 0.181345v 0.127734h 0.181345v -0.127734h 0.181345v -3.70105h 0.181345v 1.46032h 0.181345v 3.85034h 0.181345v -2.23246h 0.181345v 0.622854h 0.181345v -0.622854h
 0.181345v -0.945738h 0.181345v -0.114135h 0.181345v 2.46596h 0.181345v -3.34908h 0.181345v 0.769842h 0.181345v 2.98673h 0.181345v -0.673145h 0.181345v 2.1174h 0.181345v -0.594479h 0.181345v 1.53282h 0.181345v -2.24427h 0.181345v -2.78265h 0.181345v
 1.71015h 0.181345v -1.93929h 0.181345v 1.43047h 0.181345v 0.769842h 0.181345v 0.265646h 0.181345v 1.70091h 0.181345v 1.41547h 0.181345v -0.486809h 0.181345v -1.8032h 0.181345v -1.09202h 0.181345v -0.261026h 0.181345v 1.0725h 0.181345v 0.280543h
 0.181345v 1.8032h 0.181345v 1.33498h 0.181345v -4.36128h 0.181345v 1.80042h 0.181345v -0.718253h 0.181345v 0.571826h 0.181345v 1.21348h 0.181345v 0.319344h 0.181345v -1.67784h 0.181345v 0.588649h 0.181345v 0.769842h 0.181345v -0.919183h 0.181345v
 0.149341h 0.181345v -0.149341h 0.181345v -2.07824h 0.181345v 1.49531h 0.181345v -2.00412h 0.181345v 4.82653h 0.181345v -2.23947h 0.181345v 0.452556h 0.181345v -2.40085h 0.181345v 4.01624h 0.181345v -2.06794h 0.181345v 0.300182h 0.181345v -1.02538h
 0.36269v 2.45585h 0.181345v -1.12417h 0.181345v 0.155531h 0.181345v -5.00525h 0.181345v 2.42601h 0.181345v 1.09202h 0.181345v -2.35399h 0.181345v -1.71387h 0.181345v -2.39052h 0.181345v 2.07004h 0.181345v -6.08547h 0.181345v -1.28241h 0.181345v
 -0.633369h 0.181345v -0.123528h 0.181345v -3.44717h 0.181345v -1.92447h 0.181345v -2.30744h 0.181345v -2.16003h 0.181345v -1.77486h 0.181345v -1.98993h 0.181345v -1.86683h 0.181345v -0.538774h 0.181345v -1.45163h 0.181345v -1.70571h 0.181345v
 0.828637h 0.181345v -1.90409h 0.181345v -0.548679h 0.181345v 0.484948h 0.181345v -0.515704h 0.181345v 0.853352h 0.181345v -0.0324862h 0.181345v 0.816884h 0.181345v -0.136443h 0.181345v 1.91706h 0.181345v -0.0192789h 0.181345v 1.69089h 0.181345v
 1.56695h 0.181345v 1.22129h 0.181345v 1.44346h 0.181345v 2.92627h 0.181345v 1.15508h 0.181345v 3.72906h 0.181345v 2.0592h 0.181345v 1.94119h 0.181345v 1.65827h 0.181345v 2.84903h 0.181345v 3.20142h 0.181345v 0.753279h 0.181345v 1.87853h 0.181345v
 2.7364h 0.181345v 3.16263h 0.181345v -1.0725h 0.181345v -3.38354h 0.181345v 6.64661h 0.181345v -0.629825h 0.181345v -1.56074h 0.181345v 5.274h 0.181345v -3.71326h 0.181345v 2.21114h 0.181345v 0.484191h 0.181345v -2.69533h 0.181345v 1.51294h
 0.181345v 5.09553h 0.181345v -3.66506h 0.181345v -0.248082h 0.181345v 0.248082h 0.181345v 2.14775h 0.181345v 3.93773h 0.181345v -5.04999h 0.181345v 2.00412h 0.181345v -1.17775h 0.181345v 2.45585h 0.181345v 0.337287h 0.181345v -0.66716h 0.181345v
 -4.47997h 0.181345v 5.84533h 0.181345v -1.03549h 0.181345v -2.7364h 0.181345v -1.32906h 0.181345v 0.51759h 0.181345v 5.69562h 0.181345v -4.88414h 0.181345v 1.15508h 0.36269v -1.70091h 0.181345v -0.526672h 0.181345v 2.53079h 0.181345v 0.948228h
 0.181345v -0.948228h 0.181345v 1.2781h 0.181345v 1.76776h 0.181345v -3.34908h 0.181345v -1.70091h 0.181345v 3.61951h 0.36269v -3.88516h 0.181345v 7.31975h 0.181345v -4.10176h 0.181345v -2.68192h 0.181345v -1.79805h 0.181345v 5.84533h 0.181345v
 -2.6168h 0.181345v -2.98448h 0.181345v 2.39583h 0.181345v -1.37791h 0.181345v 0.536079h 0.181345v -0.270433h 0.181345v 1.4037h 0.181345v -3.86966h 0.181345v -0.225698h 0.181345v 5.97388h 0.181345v -6.19624h 0.181345v 2.91401h 0.181345v 0.826371h
 0.181345v -0.826371h 0.181345v 0.826371h 0.181345v -0.280543h 0.181345v 1.45829h 0.181345v -4.47009h 0.181345v 1.93929h 0.181345v 1.0725h 0.544034v 2.7364h 0.181345v -5.97388h 0.181345v 1.90842h 0.181345v -3.19567h 0.181345v 3.45223h 0.181345v
 -0.756898h 0.181345v -1.18239h 0.181345v 0.938345h 0.181345v 3.53174h 0.181345v -4.91814h 0.181345v 3.74039h 0.36269v 0.874536h 0.181345v -0.588649h 0.181345v -2.39583h 0.36269v 1.01792h 0.181345v -1.73848h 0.181345v 1.73848h 0.181345v 0.536079h
 0.181345v 4.40895h 0.181345v -1.05987h 0.181345v -3.88516h 0.181345v 1.96655h 0.181345v 4.51917h 0.181345v -1.90237h 0.181345v -6.08547h 0.181345v 4.08135h 0.181345v -1.20133h 0.181345v -1.63893h 0.181345v 2.53079h 0.181345v -1.73369h 0.181345v
 2.04316h 0.181345v -3.34908h 0.181345v 2.7364h 0.181345v 0.303215h 0.181345v -0.891864h 0.181345v 1.20133h 0.181345v 0.968634h 0.181345v -0.329873h 0.181345v -3.218h 0.181345v 1.66934h 0.181345v -1.4037h 0.181345v 0.545828h 0.725379v 0.857869h
 0.181345v 0.909892h 0.181345v 1.30592h 0.181345v -1.30592h 0.181345v -3.34908h 0.181345v 4.31771h 0.181345v -3.01179h 0.181345v 1.13326h 0.181345v 2.21581h 0.181345v -4.14618h 0.181345v 1.35304h 0.181345v 3.49134h 0.181345v -2.91401h 0.181345v
 2.21581h 0.181345v -3.07368h 0.181345v -0.545828h 0.181345v 1.4037h 0.181345v -0.577326h 0.36269v 1.48722h 0.181345v -1.20133h 0.181345v 6.82496h 0.181345v -6.23632h 0.181345v 0.303215h 0.181345v 2.31359h 0.181345v -1.68814h 0.181345v 0.652652h
 0.181345v 1.76776h 0.181345v -1.08543h 0.181345v -3.13818h 0.181345v 3.49134h 0.36269v -2.91401h 0.181345v 2.91401h 0.181345v 0.732273h 0.181345v -3.04586h 0.181345v 2.31359h 0.181345v -3.49134h 0.181345v 0.874536h 0.181345v 0.612682h 0.181345v
 6.56198h 0.181345v -4.91102h 0.181345v 1.85528h 0.181345v -0.389856h 0.181345v 1.62414h 0.181345v -2.7364h 0.181345v -1.36536h 0.181345v 1.36536h 0.181345v -4.04728h 0.181345v 1.13326h 0.181345v 1.54865h 0.181345v -2.12598h 0.181345v 10.1226h
 0.181345v -3.45984h 0.181345v -3.86966h 0.181345v 6.257h 0.181345v 1.63893h 0.181345v -4.88414h 0.181345v 3.24521h 0.181345v -7.56292h 0.181345v 7.05411h 0.181345v -6.08547h 0.181345v 6.59429h 0.181345v -6.92416h 0.181345v 9.15174h 0.181345v
 4.93039h 0.181345v -8.63542h 0.181345v 0.968634h 0.181345v 10.4032h 0.181345v -10.4032h 0.181345v 2.14775h 0.181345v -2.14775h 0.181345v 1.03549h 0.181345v 0.545828h 0.181345v -0.545828h 0.181345v 0.545828h 0.36269v 9.85736h 0.181345v -10.9299h
 0.181345v 4.14618h 0.181345v 0.698201h 0.181345v -2.6168h 0.181345v -1.70091h 0.181345v 3.61951h 0.181345v -1.9186h 0.181345v 3.34908h 0.181345v 5.3532h 0.181345v -7.45083h 0.181345v 0.66716h 0.181345v -0.66716h 0.36269v 5.44671h 0.181345v 0.968634h
 0.181345v -9.89437h 0.181345v 9.89437h 0.181345v -5.74819h 0.181345v 7.89593h 0.181345v -5.69562h 0.181345v 5.69562h 0.181345v -4.02627h 0.181345v -0.857869h 0.181345v -3.67895h 0.181345v 2.09763h 0.181345v 2.43919h 0.181345v -3.17146h 0.181345v
 0.732273h 0.181345v 0.769842h 0.181345v -1.50212h 0.181345v 7.19773h 0.181345v -4.88414h 0.181345v -1.58132h 0.181345v -0.732273h 0.181345v 7.19773h 0.181345v -4.02627h 0.36269v 1.87853h 0.36269v 2.14775h 0.181345v -1.11226h 0.36269v -8.0896h
 0.181345v 11.7091h 0.181345v -1.30592h 0.181345v -4.31771h 0.544034v 5.62363h 0.181345v -3.61951h 0.181345v -2.91401h 0.181345v 11.3131h 0.181345v -7.2868h 0.181345v -3.11638h 0.181345v 2.00412h 0.181345v 1.11226h 0.181345v 7.2868h 0.181345v
 -15.8499h 0.181345v 2.09763h 0.181345v -1.43047h 0.181345v 0.698201h 0.181345v 4.08135h 0.181345v -2.57924h 0.181345v -0.769842h 0.181345v -3.93773h 0.181345v 11.6045h 0.181345v -7.66679h 0.181345v -3.34908h 0.181345v -1.70091h 0.181345v 0.545828h
 0.181345v -0.545828h 0.181345v -2.46596h 0.181345v 3.01179h 0.181345v -0.545828h 0.181345v -1.03549h 0.181345v 1.03549h 0.181345v -4.1831h 0.181345v -0.79011h 0.181345v 1.62414h 0.181345v 2.31359h 0.181345v -3.54787h 0.181345v 3.05574h 0.181345v
 -0.476504h 0.181345v 1.47745h 0.181345v 3.47902h 0.181345v 2.09763h 0.181345v -2.09763h 0.181345v -4.47997h 0.181345v 4.47997h 0.181345v 3.67895h 0.181345v -3.67895h 0.181345v -0.638761h 0.181345v 6.08547h 0.181345v -3.34908h 0.181345v 1.58132h
 0.181345v 6.08547h 0.181345v -1.20133h 0.181345v -4.88414h 0.181345v 2.7364h 0.181345v 6.08547h 0.181345v -1.43047h 0.181345v -2.50725h 0.181345v 3.93773h 0.181345v -1.43047h 0.181345v -4.655h 0.181345v 1.03549h 0.181345v -7.45083h 0.181345v
 4.53682h 0.181345v -0.857869h 0.181345v -1.58132h 0.36269v -5.04999h 0.181345v 2.95235h 0.36269v -1.25144h 0.181345v -3.70503h 0.181345v -1.76776h 0.181345v -0.811475h 0.181345v 0.400254h 0.181345v -1.90237h 0.181345v -2.91401h 0.181345v -3.40782h
 0.181345v -3.16029h 0.181345v -0.559392h 0.181345v -2.82763h 0.181345v 1.1006h 0.181345v -0.948228h 0.181345v -5.13725h 0.181345v 0.219108h 0.181345v -1.57028h 0.181345v -0.962421h 0.181345v -2.72085h 0.181345v 2.90846h 0.181345v -3.29233h 0.181345v
 0.540214h 0.181345v -0.0783742h 0.181345v 1.39144h 0.181345v -1.77729h 0.181345v 1.52218h 0.181345v -2.55259h 0.181345v 0.287255h 0.181345v 3.22273h 0.181345v -3.29506h 0.181345v 1.51731h 0.181345v 1.42249h 0.181345v -4.64329h 0.181345v 2.90482h
 0.181345v -2.17898h 0.181345v 0.204202h 0.181345v -0.136443h 0.181345v -0.793592h 0.181345v 1.48856h 0.181345v -3.86643h 0.181345v 0.277432h 0.181345v 0.864459h 0.181345v -2.30511h 0.181345v 0.204899h 0.181345v -0.705233h 0.181345v -0.673577h
 0.181345v 0.237108h 0.181345v -0.562889h 0.181345v -0.31886h 0.181345v -0.22368h 0.181345v 0.496571h 0.181345v 0.184724h 0.181345v -0.0463945h 0.181345v 0.518403h 0.181345v -0.0478744h 0.181345v 0.634605h 0.181345v 2.31359h 0.181345v 1.1481h
 0.181345v 0.972821h 0.181345v 1.25727h 0.181345v 1.69508h 0.181345v -0.560387h 0.181345v 3.92987h 0.181345v 0.948228h 0.181345v 0.896304h 0.181345v 3.64052h 0.181345v 4.21994h 0.181345v -3.46557h 0.181345v 3.86056h 0.181345v 1.9186h 0.181345v
 -0.883115h 0.181345v 4.46134h 0.181345v 1.51731h 0.181345v 4.42454h 0.181345v 2.31359h 0.181345v -3.14762h 0.181345v 4.1831h 0.181345v 1.11226h 0.181345v 10.4032h 0.181345v -2.14775h 0.181345v 3.34908h 0.36269v -7.66679h 0.181345v 2.43919h 0.181345v
 -4.53682h 0.181345v 12.5008h 0.181345v -2.7364h 0.181345v -5.2276h 0.181345v 18.3672h 0.181345v -15.4532h 0.181345v 8.39906h 0.181345v -1.76776h 0.181345v 6.08547h 0.181345v -4.31771h 0.36269v -1.76776h 0.181345v -4.31771h 0.181345v 8.0896h
 0.181345v -8.0896h 0.181345v -1.20133h 0.181345v 14.3409h 0.181345v -11.8337h 0.181345v 3.01179h 0.181345v 16.4887h 0.181345v -16.4887h 0.181345v 12.1709h 0.544034v -13.7523h 0.181345v 7.66679h 0.181345v 10.4032h 0.181345v -10.4032h 0.181345v
 2.7364h 0.181345v -8.82187h 0.181345v 16.4887h 0.181345v -4.31771h 0.36269v -8.39906h 0.181345v 8.39906h 0.181345v 4.31771h 0.181345v 6.08547h 0.181345v -13.7523h 0.36269v 3.34908h 0.181345v -3.34908h 0.181345v 13.7523h 0.181345v -6.08547h 0.181345v
 -7.66679h 0.544034v 24.1554h 0.181345v 10.4032h 0.181345v -31.2096h 0.36269v 10.4032h 0.181345v -22.5741h 0.181345v 1.76776h 0.181345v 4.31771h 0.181345v 16.4887h 0.181345v -13.7523h 0.181345v 3.34908h 0.181345v 20.8064h 0.181345v -26.8918h
 0.181345v 10.4032h 0.181345v -4.31771h 0.181345v 4.31771h 0.181345v -7.66679h 0.36269v 24.1554h 0.181345v -24.1554h 0.181345v 3.34908h 0.181345v -3.34908h 0.181345v 24.1554h 0.181345v -29.2054h 0.181345v 5.04999h 0.36269v -7.05411h 0.181345v
 7.05411h 0.181345v 7.66679h 0.181345v 16.4887h 0.181345v -16.4887h 0.181345v -12.7168h 0.36269v -2.00412h 0.181345v 4.31771h 0.181345v -2.31359h 0.181345v -6.78367h 0.181345v -1.30592h 0.181345v -3.34908h 0.181345v 7.66679h 0.181345v -1.58132h
 0.181345v -10.4032h 0.181345v 4.31771h 0.181345v -0.968634h 0.181345v -1.76776h 0.181345v -0.811475h 0.181345v -2.86748h 0.181345v 7.45083h 0.181345v -6.08547h 0.181345v 0.732273h 0.181345v -2.7364h 0.181345v -3.84121h 0.181345v 15.5503h 0.181345v
 -10.4032h 0.181345v -5.14713h 0.181345v 5.84533h 0.181345v -2.6168h 0.181345v 1.9186h 0.181345v -0.66716h 0.181345v -1.25144h 0.181345v 3.34908h 0.181345v 0.769842h 0.181345v 0.811475h 0.181345v -4.31771h 0.181345v 7.05411h 0.181345v 3.34908h
 0.181345v -9.76442h 0.181345v 5.44671h 0.181345v 7.05411h 0.181345v -3.93773h 0.181345v 5.51904h 0.181345v 8.82187h 0.181345v -5.04999h 0.36269v -2.00412h 0.181345v 2.00412h 0.181345v -2.00412h 0.181345v 4.31771h 0.181345v -4.31771h 0.36269v
 -1.76776h 0.181345v 12.1709h 0.181345v -8.39906h 0.181345v 18.8022h 0.181345v -10.4032h 0.181345v 4.31771h 0.36269v 16.4887h 0.36269v -26.8918h 0.181345v 10.4032h 0.181345v -7.66679h 0.181345v 3.34908h 0.181345v -12.1709h 0.181345v 12.1709h
 0.181345v 31.2096h 0.181345v -20.8064h 0.181345v -22.5741h 0.181345v 6.08547h 0.181345v 2.7364h 0.181345v -2.7364h 0.181345v 10.4032h 0.181345v -7.66679h 0.181345v 24.1554h 0.181345v -26.8918h 0.181345v 2.7364h 0.181345v 3.34908h 0.181345v 10.4032h
 0.181345v 10.4032h 0.181345v -10.4032h 0.181345v -18.8022h 0.181345v 18.8022h 0.181345v -6.08547h 0.181345v 26.8918h 0.181345v -26.8918h 0.181345v 6.08547h 0.181345v 10.4032h 0.181345v -29.2054h 0.181345v 8.39906h 0.36269v 4.31771h 0.181345v
 16.4887h 0.181345v -10.4032h 0.181345v -13.7523h 0.181345v 3.34908h 0.181345v 4.31771h 0.181345v 26.8918h 0.181345v -31.2096h 0.181345v -16.4887h 0.181345v 37.295h 0.181345v -35.9891h 0.181345v 19.5005h 0.181345v -12.7168h 0.181345v 8.39906h
 0.181345v -3.34908h 0.906724v 3.34908h 0.544034v -3.34908h 0.181345v 7.66679h 0.181345v -12.7168h 0.36269v 12.7168h 0.181345v -12.7168h 0.181345v 5.04999h 0.181345v -8.82187h 0.181345v 12.1709h 0.181345v 4.31771h 0.181345v -7.66679h 0.181345v
 -5.04999h 0.181345v 5.04999h 0.181345v -5.04999h 0.181345v 5.04999h 0.181345v -5.04999h 0.181345v -12.4073h 0.181345v 17.4573h 0.181345v -7.05411h 0.181345v -11.3131h 0.181345v 15.6308h 0.181345v -4.31771h 0.181345v -1.76776h 0.181345v 3.77188h
 0.181345v -2.00412h 0.181345v 4.31771h 0.181345v -15.6308h 0.181345v 7.964h 0.36269v -2.7364h 0.181345v 10.4032h 0.181345v -6.08547h 0.181345v 3.77188h 0.36269v 2.31359h 0.36269v -6.08547h 0.181345v 16.4887h 0.181345v -12.7168h 0.181345v -2.00412h
 0.181345v -1.76776h 0.181345v 1.76776h 0.36269v 4.31771h 0.181345v -6.08547h 0.181345v 8.82187h 0.181345v -5.04999h 0.181345v 5.04999h 0.181345v -2.7364h 0.181345v 6.08547h 0.181345v 4.31771h 0.181345v -7.66679h 0.181345v 13.7523h 0.181345v
 -13.7523h 0.181345v -2.7364h 0.181345v 2.7364h 0.181345v 13.7523h 0.181345v -6.08547h 0.181345v -4.31771h 0.181345v 4.31771h 0.181345v -12.7168h 0.181345v 8.39906h 0.181345v -3.34908h 0.181345v -5.04999h 0.181345v 2.31359h 0.181345v -7.66679h
 0.181345v 24.1554h 0.181345v 10.4032h 0.181345v -20.8064h 0.36269v -6.08547h 0.181345v -4.31771h 0.181345v 7.05411h 0.181345v 24.1554h 0.181345v -26.8918h 0.181345v 16.4887h 0.181345v -18.8022h 0.544034v 8.39906h 0.181345v -10.4032h 0.36269v
 20.8064h 0.36269v -22.5741h 0.181345v 1.76776h 0.181345v 4.31771h 0.181345v 6.08547h 0.181345v -6.08547h 0.181345v -2.31359h 0.181345v 2.31359h 0.181345v 2.7364h 0.181345v -7.05411h 0.181345v 4.31771h 0.181345v -7.66679h 0.181345v 3.34908h 0.181345v
 2.00412h 0.181345v 8.39906h 0.181345v -8.39906h 0.181345v -3.77188h 0.181345v -1.58132h 0.181345v 3.34908h 0.181345v 4.31771h 0.181345v -7.66679h 0.181345v -5.04999h 0.181345v 10.4032h 0.181345v -12.4073h 0.181345v 10.4032h 0.181345v 14.7209h
 0.181345v -18.07h 0.181345v -7.05411h 0.181345v -1.76776h 0.181345v 14.1751h 0.181345v -9.29093h 0.181345v 7.2868h 0.181345v -6.08547h 0.181345v 2.7364h 0.36269v -1.43047h 0.181345v 9.09726h 0.181345v -11.6045h 0.181345v 1.20133h 0.181345v 8.0896h
 0.181345v -3.77188h 0.181345v 8.82187h 0.181345v -10.4032h 0.181345v 5.3532h 0.181345v -6.78367h 0.181345v 4.77955h 0.181345v -7.2868h 0.181345v 9.29093h 0.181345v -3.77188h 0.181345v -3.01179h 0.181345v -1.30592h 0.181345v -2.31359h 0.181345v
 -4.58336h 0.181345v 3.54787h 0.181345v 7.66679h 0.181345v -11.2147h 0.181345v 11.2147h 0.181345v -1.58132h 0.181345v -7.05411h 0.181345v -2.57924h 0.181345v 9.63334h 0.181345v -7.964h 0.181345v 6.53353h 0.181345v -5.62363h 0.181345v -3.34908h
 0.181345v 8.97271h 0.181345v -3.61951h 0.181345v -2.91401h 0.181345v 5.2276h 0.181345v -3.34908h 0.181345v -3.54787h 0.181345v 5.69562h 0.181345v 5.51904h 0.181345v -5.51904h 0.181345v -1.11226h 0.181345v 1.11226h 0.181345v -1.11226h 0.181345v
 3.61951h 0.181345v -10.4032h 0.181345v 10.4032h 0.181345v -2.50725h 0.181345v -7.89593h 0.181345v -1.30592h 0.181345v 10.4032h 0.36269v -1.20133h 0.181345v -4.88414h 0.544034v 0.857869h 0.181345v 0.909892h 0.181345v 0.968634h 0.181345v 3.34908h
 0.181345v 2.7364h 0.181345v -7.05411h 0.36269v -2.57924h 0.181345v 3.54787h 0.36269v -0.968634h 0.181345v -1.76776h 0.181345v 4.88414h 0.181345v -4.02627h 0.181345v 2.91401h 0.181345v -8.0896h 0.36269v 10.4032h 0.181345v -1.20133h 0.181345v
 -5.69562h 0.181345v -1.50212h 0.181345v 2.31359h 0.181345v -3.67895h 0.181345v 2.86748h 0.181345v 6.89695h 0.181345v -9.09726h 0.181345v 4.77955h 0.181345v -7.2868h 0.181345v 3.93773h 0.181345v -5.04999h 0.181345v 6.6313h 0.36269v -4.31771h
 0.181345v -1.76776h 0.181345v 1.76776h 0.181345v 1.30592h 0.181345v -0.66716h 0.181345v 0.66716h 0.181345v -4.655h 0.181345v 5.3532h 0.181345v -2.00412h 0.181345v 5.17558h 0.181345v -8.01584h 0.181345v 3.47902h 0.181345v -2.95235h 0.181345v
 0.545828h 0.181345v -1.58132h 0.181345v 4.655h 0.181345v -1.9186h 0.181345v -1.15508h 0.181345v -2.07345h 0.181345v 4.47997h 0.181345v -5.41831h 0.181345v -0.883115h 0.181345v 2.31359h 0.181345v 1.58132h 0.181345v -2.07345h 0.181345v 0.49213h
 0.181345v -0.49213h 0.181345v 2.63988h 0.181345v -2.63988h 0.181345v -3.4456h 0.181345v 3.93773h 0.181345v 0.508816h 0.181345v -1.00095h 0.181345v 3.84121h 0.181345v -9.43455h 0.181345v 5.59334h 0.181345v -0.938345h 0.181345v -1.30592h 0.181345v
 4.88414h 0.181345v -1.11226h 0.181345v 3.61951h 0.181345v -3.61951h 0.181345v 2.31359h 0.544034v 1.30592h 0.181345v -1.30592h 0.181345v -1.76776h 0.181345v 6.94334h 0.181345v -8.52466h 0.181345v 8.52466h 0.181345v -4.53682h 0.181345v -1.25144h
 0.181345v 1.25144h 0.181345v 3.67895h 0.181345v -3.67895h 0.181345v 6.41535h 0.181345v -2.7364h 0.181345v -0.811475h 0.36269v 0.811475h 0.181345v 3.77188h 0.181345v -4.58336h 0.181345v 0.811475h 0.181345v -5.51904h 0.181345v 4.70757h 0.181345v
 8.20287h 0.181345v -6.53353h 0.181345v 6.53353h 0.181345v -2.50725h 0.181345v 1.20133h 0.181345v -4.31771h 0.181345v 10.4032h 0.181345v -11.3131h 0.181345v 9.54532h 0.181345v -7.66679h 0.181345v -0.968634h 0.181345v 4.31771h 0.181345v -9.09726h
 0.181345v 9.09726h 0.181345v -6.89695h 0.181345v -0.769842h 0.181345v 2.43919h 0.181345v -0.857869h 0.181345v 0.857869h 0.181345v 4.02627h 0.181345v -4.02627h 0.181345v -3.17146h 0.181345v 5.04999h 0.181345v 6.08547h 0.181345v -6.08547h 0.36269v
 -7.05411h 0.181345v 6.08547h 0.181345v -1.76776h 0.181345v 3.77188h 0.181345v -1.03549h 0.181345v -7.05411h 0.181345v 6.08547h 0.181345v -5.44671h 0.181345v 0.66716h 0.181345v -0.66716h 0.181345v 7.45083h 0.181345v -1.03549h 0.181345v -4.31771h
 0.181345v 0.769842h 0.36269v 12.9824h 0.181345v -3.34908h 0.181345v -12.5008h 0.181345v 1.36536h 0.181345v -1.36536h 0.181345v 12.5008h 0.181345v -8.82187h 0.181345v -0.811475h 0.181345v 3.54787h 0.181345v -8.25544h 0.181345v 6.37691h 0.181345v
 -0.857869h 0.36269v 2.7364h 0.181345v 1.03549h 0.181345v -3.77188h 0.181345v 0.857869h 0.181345v 5.2276h 0.181345v 1.30592h 0.181345v -10.4032h 0.181345v 5.74819h 0.181345v -1.87853h 0.181345v 5.2276h 0.181345v -6.89695h 0.181345v 5.69562h 0.181345v
 2.50725h 0.181345v 3.01179h 0.181345v -7.66679h 0.181345v -2.7364h 0.181345v -2.31359h 0.544034v 1.50212h 0.181345v -4.11892h 0.181345v 11.0159h 0.181345v -11.6045h 0.181345v 8.25544h 0.181345v 2.14775h 0.181345v -3.11638h 0.181345v -0.909892h
 0.181345v -0.857869h 0.181345v -2.31359h 0.181345v 4.08135h 0.181345v 5.62363h 0.181345v -6.53353h 0.181345v -1.66934h 0.181345v 3.54787h 0.181345v -4.31771h 0.181345v -2.09763h 0.181345v -0.638761h 0.181345v 2.7364h 0.181345v 0.769842h 0.181345v
 -4.70757h 0.181345v 3.93773h 0.181345v -0.732273h 0.181345v 5.04999h 0.181345v -5.04999h 0.181345v -2.00412h 0.181345v -0.612682h 0.181345v 3.34908h 0.181345v 1.58132h 0.181345v 1.76776h 0.181345v -6.69816h 0.181345v -0.588649h 0.181345v 3.20545h
 0.181345v -1.36536h 0.181345v -1.84009h 0.181345v 5.51904h 0.181345v -6.08547h 0.181345v 3.07368h 0.181345v 7.89593h 0.181345v -2.14775h 0.181345v -3.54787h 0.181345v -1.50212h 0.181345v -2.6168h 0.181345v 1.9186h 0.181345v 6.78367h 0.181345v
 -6.08547h 0.181345v 8.39906h 0.181345v -9.09726h 0.181345v -1.30592h 0.181345v -0.612682h 0.181345v 1.25144h 0.181345v 6.41535h 0.181345v -0.968634h 0.181345v -10.865h 0.181345v 11.8337h 0.181345v -2.7364h 0.181345v 6.08547h 0.181345v -2.31359h
 0.181345v 6.6313h 0.181345v -11.2147h 0.181345v 6.89695h 0.181345v -7.66679h 0.181345v -5.04999h 0.181345v 5.04999h 0.181345v 1.58132h 0.181345v 1.76776h 0.36269v -7.85323h 0.181345v 1.76776h 0.181345v 6.08547h 0.181345v -4.77955h 0.36269v 0.698201h
 0.181345v 3.17146h 0.36269v -2.43919h 0.181345v -3.34908h 0.181345v 5.78826h 0.181345v -4.53682h 0.181345v -1.25144h 0.181345v 1.9186h 0.181345v 2.20032h 0.181345v 1.66934h 0.181345v -3.17146h 0.181345v -2.6168h 0.181345v -0.588649h 0.181345v
 -2.63988h 0.181345v 5.84533h 0.181345v -3.77188h 0.181345v -0.545828h 0.181345v 1.11226h 0.181345v -1.11226h 0.181345v 4.31771h 0.181345v -3.77188h 0.181345v -4.72893h 0.181345v 4.72893h 0.181345v -2.54995h 0.181345v 0.968634h 0.181345v 6.08547h
 0.181345v -0.732273h 0.181345v -6.78367h 0.181345v 6.78367h 0.181345v -5.3532h 0.181345v -0.968634h 0.181345v 7.82395h 0.181345v -1.50212h 0.181345v -8.0896h 0.181345v 4.88414h 0.181345v 2.50725h 0.181345v -0.66716h 0.181345v -1.25144h 0.181345v
 -2.22758h 0.181345v 3.47902h 0.181345v -0.638761h 0.181345v 0.638761h 0.36269v 6.41535h 0.181345v -1.87853h 0.181345v -1.66934h 0.181345v -0.769842h 0.181345v 3.34908h 0.181345v -1.76776h 0.181345v 4.88414h 0.181345v -1.11226h 0.181345v -5.3532h
 0.181345v 6.46546h 0.181345v -2.14775h 0.181345v 2.14775h 0.181345v -2.14775h 0.181345v -5.74819h 0.181345v 6.78367h 0.36269v -2.91401h 0.181345v 5.2276h 0.181345v 1.30592h 0.181345v -8.20287h 0.181345v 4.58336h 0.36269v -3.77188h 0.181345v 3.77188h
 0.181345v -5.3532h 0.36269v 3.34908h 0.181345v 0.968634h 0.181345v -4.31771h 0.181345v 1.58132h 0.181345v 2.7364h 0.544034v -8.25544h 0.181345v 5.51904h 0.181345v 0.857869h 0.181345v 4.02627h 0.181345v -6.46546h 0.181345v 4.31771h 0.181345v
 -3.54787h 0.181345v 0.811475h 0.36269v -4.31771h 0.181345v 9.20185h 0.181345v -3.11638h 0.181345v 0.968634h 0.181345v -5.04999h 0.181345v 1.50212h 0.181345v 2.57924h 0.181345v -2.57924h 0.181345v 3.54787h 0.181345v -5.04999h 0.36269v 3.17146h
 0.181345v -6.94334h 0.181345v 0.56643h 0.181345v 1.84009h 0.181345v 6.41535h 0.181345v -5.04999h 0.181345v 3.17146h 0.181345v -3.86966h 0.181345v 2.20032h 0.181345v 3.54787h 0.181345v -5.04999h 0.36269v 2.31359h 0.181345v -1.58132h 0.181345v
 0.769842h 0.181345v 4.58336h 0.36269v -3.77188h 0.181345v 3.77188h 0.181345v -4.58336h 0.181345v 5.69562h 0.36269v 1.20133h 0.181345v 1.30592h 0.181345v -3.61951h 0.181345v 8.39906h 0.181345v -3.34908h 0.181345v -1.43047h 0.181345v 4.77955h
 0.181345v -6.08547h 0.181345v -2.31359h 0.181345v -1.03549h 0.181345v 2.14775h 0.181345v 5.51904h 0.181345v 12.1709h 0.181345v -15.1827h 0.36269v 4.77955h 0.181345v -1.76776h 0.181345v 12.1709h 0.181345v -3.34908h 0.181345v -13.1396h 0.181345v
 8.0896h 0.181345v -5.3532h 0.181345v 1.58132h 0.181345v 1.76776h 0.181345v 14.7209h 0.181345v -23.12h 0.181345v 12.7168h 0.181345v 10.4032h 0.181345v -10.4032h 0.181345v -6.08547h 0.181345v 32.9773h 0.181345v -35.9891h 0.181345v 15.1827h 0.181345v
 -15.1827h 0.181345v 4.77955h 0.181345v -4.77955h 0.181345v 11.8337h 0.181345v -17.4573h 0.181345v 12.4073h 0.181345v -3.77188h 0.181345v 8.82187h 0.181345v -5.04999h 0.181345v -6.78367h 0.181345v 9.09726h 0.181345v -2.31359h 0.181345v -2.00412h
 0.181345v 4.31771h 0.181345v -10.4032h 0.181345v 6.08547h 0.544034v -9.43455h 0.181345v 11.4387h 0.181345v -5.3532h 0.181345v -1.43047h 0.181345v -3.61951h 0.181345v 8.39906h 0.181345v 7.05411h 0.181345v -8.82187h 0.181345v 3.77188h 0.181345v
 -12.4073h 0.181345v 31.2096h 0.181345v -29.2054h 0.181345v 10.4032h 0.181345v -2.00412h 0.181345v -7.2868h 0.181345v 9.29093h 0.181345v -6.78367h 0.181345v 4.77955h 0.181345v -1.76776h 0.181345v -1.58132h 0.181345v 3.34908h 0.181345v -4.77955h
 0.181345v 11.8337h 0.181345v -11.8337h 0.181345v 4.77955h 0.181345v -1.76776h 0.181345v -4.31771h 0.181345v -1.20133h 0.181345v -4.02627h 0.181345v 13.3172h 0.181345v -2.00412h 0.181345v -8.39906h 0.181345v 2.31359h 0.181345v 1.30592h 0.181345v
 3.01179h 0.181345v 6.08547h 0.181345v -6.08547h 0.181345v 1.76776h 0.181345v -1.76776h 0.181345v 3.77188h 0.181345v -9.29093h 0.181345v 5.51904h 0.181345v 3.77188h 0.181345v -6.78367h 0.181345v 1.43047h 0.181345v 3.34908h 0.181345v -8.39906h
 0.181345v 5.04999h 0.181345v 10.4032h 0.181345v -10.4032h 0.181345v -1.43047h 0.181345v 9.09726h 0.181345v -2.31359h 0.181345v -2.00412h 0.181345v -4.77955h 0.181345v 6.78367h 0.181345v -9.29093h 0.181345v 28.0932h 0.181345v -22.5741h 0.181345v
 3.77188h 0.181345v -8.0896h 0.181345v 13.1396h 0.181345v -7.05411h 0.181345v -10.4032h 0.181345v 7.05411h 0.181345v 18.07h 0.181345v -16.4887h 0.181345v -5.51904h 0.36269v 11.6045h 0.181345v -7.66679h 0.181345v -7.05411h 0.181345v 5.62363h 0.181345v
 4.77955h 0.181345v -4.77955h 0.181345v 1.43047h 0.181345v -1.43047h 0.181345v -3.61951h 0.181345v 15.4532h 0.181345v -5.04999h 0.181345v -2.00412h 0.36269v -4.77955h 0.181345v 6.78367h 0.181345v -5.3532h 0.181345v 5.3532h 0.181345v -6.78367h
 0.181345v -8.97271h 0.181345v 11.9845h 0.181345v 8.82187h 0.181345v -14.3409h 0.181345v -1.11226h 0.181345v -1.03549h 0.181345v 1.03549h 0.181345v -1.03549h 0.36269v 4.655h 0.181345v 1.43047h 0.36269v -3.93773h 0.181345v 2.50725h 0.181345v -2.50725h
 0.181345v 1.20133h 0.181345v -4.31771h 0.181345v 8.63542h 0.181345v -8.63542h 0.181345v 3.11638h 0.181345v 1.20133h 0.181345v -10.4032h 0.181345v 6.08547h 0.181345v -5.44671h 0.181345v 11.0703h 0.181345v -3.61951h 0.181345v -3.77188h 0.181345v
 0.857869h 0.181345v -1.66934h 0.181345v 6.89695h 0.181345v -3.34908h 0.181345v -5.04999h 0.181345v 4.08135h 0.181345v -2.57924h 0.181345v -0.769842h 0.181345v -1.43047h 0.181345v -4.14618h 0.181345v 2.84026h 0.181345v -1.20133h 0.181345v 2.50725h
 0.181345v -1.30592h 0.181345v 10.4032h 0.181345v -11.0159h 0.181345v 2.6168h 0.181345v -3.77188h 0.181345v -1.58132h 0.181345v 1.58132h 0.181345v 4.50416h 0.181345v -0.732273h 0.181345v 6.08547h 0.181345v -6.08547h 0.181345v -4.84438h 0.181345v
 4.84438h 0.181345v 0.732273h 0.181345v -6.08547h 0.181345v 3.34908h 0.181345v 3.50624h 0.181345v -0.769842h 0.181345v -3.93773h 0.181345v 3.20545h 0.181345v 4.08135h 0.181345v -7.2868h 0.181345v 1.20133h 0.181345v 5.17558h 0.181345v -0.857869h
 0.181345v -1.58132h 0.181345v -0.732273h 0.181345v -2.00412h 0.181345v 14.7209h 0.181345v -6.6313h 0.181345v 2.31359h 0.181345v -5.2276h 0.181345v 5.2276h 0.181345v 1.30592h 0.181345v 1.43047h 0.181345v -7.05411h 0.181345v 4.31771h 0.181345v
 -1.20133h 0.36269v 11.6045h 0.181345v -2.31359h 0.181345v -6.78367h 0.181345v 9.09726h 0.181345v -7.66679h 0.181345v 5.3532h 0.181345v -3.77188h 0.181345v 16.4887h 0.181345v -14.7209h 0.181345v 31.2096h 0.181345v -26.8918h 0.544034v 10.4032h
 0.181345v -16.4887h 0.181345v 16.4887h 0.36269v -10.4032h 0.181345v 16.4887h 0.181345v -6.08547h 0.36269v 6.08547h 0.181345v 10.4032h 0.181345v -29.2054h 0.181345v 29.2054h 0.544034v -10.4032h 0.181345v -6.08547h 0.181345v 6.08547h 0.36269v
 -6.08547h 0.181345v 6.08547h 0.181345v -13.7523h 0.181345v 7.66679h 0.36269v 26.8918h 0.181345v -20.8064h 0.181345v 20.8064h 0.181345v -20.8064h 0.36269v 10.4032h 0.181345v -20.8064h 0.181345v 31.2096h 0.181345v -26.8918h 0.181345v 16.4887h
 0.544034v -10.4032h 0.181345v 10.4032h 0.36269v -10.4032h 0.181345v 10.4032h 0.181345v 10.4032h 0.36269v -10.4032h 0.36269v -16.4887h 0.181345v -4.31771h 0.181345v 10.4032h 0.181345v 10.4032h 0.181345v 10.4032h 0.181345v -10.4032h 1.26941v -16.4887h
 0.181345v 16.4887h 0.181345v -16.4887h 0.181345v 6.08547h 0.181345v 10.4032h 0.181345v 10.4032h 0.181345v -20.8064h 0.36269v 20.8064h 0.725379v -10.4032h 0.36269v 10.4032h 0.544034v -34.5586h 0.181345v 24.1554h 0.181345v 10.4032h 0.181345v -10.4032h
 0.181345v -10.4032h 0.181345v 10.4032h 0.181345v -10.4032h 0.181345v 10.4032h 0.181345v 10.4032h 0.36269v -10.4032h 0.181345v -16.4887h 0.181345v 6.08547h 0.36269v 20.8064h 0.181345v -26.8918h 0.181345v 26.8918h 0.36269v -10.4032h 1.26941v -10.4032h
 0.36269v -6.08547h 0.181345v 26.8918h 0.181345v -20.8064h 0.181345v 20.8064h 0.181345v -31.2096h 0.181345v 4.31771h 0.36269v 6.08547h 0.181345v -13.7523h 0.181345v 13.7523h 0.906724v 10.4032h 0.181345v 10.4032h 0.181345v -10.4032h 0.181345v 10.4032h
 0.544034v -20.8064h 0.181345v 10.4032h 0.544034v 10.4032h 0.181345v -34.5586h 0.181345v 34.5586h 0.181345v -26.8918h 0.181345v 16.4887h 0.181345v -16.4887h 0.181345v 26.8918h 0.181345v -10.4032h 0.181345v 10.4032h 0.181345v -10.4032h 0.181345v
 10.4032h 0.181345v -26.8918h 0.181345v 16.4887h 0.544034v -16.4887h 0.181345v 26.8918h 0.181345v -10.4032h 0.181345v 10.4032h 0.906724v -10.4032h 0.906724v -16.4887h 0.181345v 26.8918h 0.181345v -10.4032h 0.181345v 10.4032h 0.181345v -10.4032h
 0.544034v 10.4032h 0.36269v -10.4032h 0.544034v 10.4032h 0.181345v -10.4032h 0.181345v -10.4032h 0.181345v 10.4032h 0.181345v 10.4032h 0.36269v -20.8064h 0.181345v 10.4032h 0.181345v 10.4032h 0.181345v -10.4032h 0.36269v 10.4032h 0.181345v -10.4032h
 0.181345v 10.4032h 0.181345v -20.8064h 0.181345v 10.4032h 0.181345v 10.4032h 0.725379v -10.4032h 0.544034v -16.4887h 0.181345v 26.8918h 0.181345v -10.4032h 0.544034v -10.4032h 0.181345v 10.4032h 0.36269v -10.4032h 0.181345v 10.4032h 0.181345v
 10.4032h 0.544034v -10.4032h 0.181345v 10.4032h 0.181345v -10.4032h 0.181345v 10.4032h 0.181345v -10.4032h 0.181345v -10.4032h 0.181345v 10.4032h 0.181345v 10.4032h 0.181345v -10.4032h 0.181345v -10.4032h 0.181345v 20.8064h 0.544034v -10.4032h
 0.181345v 10.4032h 0.181345v -20.8064h 0.181345v 10.4032h 0.36269v 10.4032h 0.36269v -10.4032h 0.36269v -16.4887h 0.181345v 26.8918h 0.544034v -20.8064h 0.181345v 10.4032h 0.181345v 10.4032h 0.181345v -10.4032h 0.36269v 10.4032h 0.181345v -20.8064h
 0.181345v 20.8064h 0.36269v -26.8918h 0.181345v 16.4887h 0.181345v 10.4032h 0.181345v -10.4032h 0.181345v -10.4032h 0.181345v 10.4032h 0.181345v 10.4032h 0.36269v -10.4032h 0.181345v -16.4887h 0.181345v 6.08547h 0.181345v 10.4032h 0.181345v 10.4032h
 0.36269v -20.8064h 0.181345v 10.4032h 0.181345v 10.4032h 0.725379v -10.4032h 0.36269v -10.4032h 0.181345v 10.4032h 0.544034v 10.4032h 0.36269v -20.8064h 0.181345v 10.4032h 0.181345v 10.4032h 0.36269v -10.4032h 0.36269v 10.4032h 0.181345v -10.4032h
 0.36269v 10.4032h 0.181345v -10.4032h 0.181345v -20.8064h 0.181345v 31.2096h 0.181345v -20.8064h 0.181345v 10.4032h 0.181345v 10.4032h 0.181345v -10.4032h 0.725379" fill="none" stroke="black"/>
<path d="M57.1929,280.151h 453.543" fill="none" stroke="black"/>
<path d="M57.1929,272.68v 7.47068" fill="none" stroke="black"/>
<path d="M75.3318,276.415v 3.73534" fill="none" stroke="black"/>
<path d="M93.4707,276.415v 3.73534" fill="none" stroke="black"/>
<path d="M111.61,276.415v 3.73534" fill="none" stroke="black"/>
<path d="M129.749,276.415v 3.73534" fill="none" stroke="black"/>
<path d="M147.887,272.68v 7.47068" fill="none" stroke="black"/>
<path d="M166.026,276.415v 3.73534" fill="none" stroke="black"/>
<path d="M184.165,276.415v 3.73534" fill="none" stroke="black"/>
<path d="M202.304,276.415v 3.73534" fill="none" stroke="black"/>
<path d="M220.443,276.415v 3.73534" fill="none" stroke="black"/>
<path d="M238.582,272.68v 7.47068" fill="none" stroke="black"/>
<path d="M256.721,276.415v 3.73534" fill="none" stroke="black"/>
<path d="M274.86,276.415v 3.73534" fill="none" stroke="black"/>
<path d="M292.999,276.415v 3.73534" fill="none" stroke="black"/>
<path d="M311.138,276.415v 3.73534" fill="none" stroke="black"/>
<path d="M329.277,272.68v 7.47068" fill="none" stroke="black"/>
<path d="M347.415,276.415v 3.73534" fill="none" stroke="black"/>
<path d="M365.554,276.415v 3.73534" fill="none" stroke="black"/>
<path d="M383.693,276.415v 3.73534" fill="none" stroke="black"/>
<path d="M401.832,276.415v 3.73534" fill="none" stroke="black"/>
<path d="M419.971,272.68v 7.47068" fill="none" stroke="black"/>
<path d="M438.11,276.415v 3.73534" fill="none" stroke="black"/>
<path d="M456.249,276.415v 3.73534" fill="none" stroke="black"/>
<path d="M474.388,276.415v 3.73534" fill="none" stroke="black"/>
<path d="M492.527,276.415v 3.73534" fill="none" stroke="black"/>
<path d="M510.666,272.68v 7.47068" fill="none" stroke="black"/>
<path d="M510.666,272.68v 7.47068" fill="none" stroke="black"/>
<text xml:space="preserve" x="54.3523" y="290.27" fill="black" font-size="10.4952" font-family="Helvetica">0</text>
<text xml:space="preserve" x="139.569" y="290.27" fill="black" font-size="10.4952" font-family="Helvetica">500</text>
<text xml:space="preserve" x="227.449" y="290.27" fill="black" font-size="10.4952" font-family="Helvetica">1000</text>
<text xml:space="preserve" x="318.288" y="290.27" fill="black" font-size="10.4952" font-family="Helvetica">1500</text>
<text xml:space="preserve" x="408.831" y="290.27" fill="black" font-size="10.4952" font-family="Helvetica">2000</text>
<text xml:space="preserve" x="499.67" y="290.27" fill="black" font-size="10.4952" font-family="Helvetica">2500</text>
<text xml:space="preserve" x="265.323" y="301.218" fill="black" font-size="10.4952" font-family="Helvetica">Channel</text>
<path d="M57.1929,280.151v -249.023" fill="none" stroke="black"/>
<path d="M63.9961,280.151h -6.80315" fill="none" stroke="black"/>
<path d="M63.9961,277.414h -6.80315" fill="none" stroke="black"/>
<path d="M63.9961,275.101h -6.80315" fill="none" stroke="black"/>
<path d="M63.9961,273.096h -6.80315" fill="none" stroke="black"/>
<path d="M63.9961,271.329h -6.80315" fill="none" stroke="black"/>
<path d="M70.7992,269.747h -13.6063" fill="none" stroke="black"/>
<text xml:space="preserve" x="49.0263" y="273.404" fill="black" font-size="10.4952" font-family="Helvetica">1</text>
<path d="M63.9961,259.344h -6.80315" fill="none" stroke="black"/>
<path d="M63.9961,253.259h -6.80315" fill="none" stroke="black"/>
<path d="M63.9961,248.941h -6.80315" fill="none" stroke="black"/>
<path d="M63.9961,245.592h -6.80315" fill="none" stroke="black"/>
<path d="M63.9961,242.856h -6.80315" fill="none" stroke="black"/>
<path d="M63.9961,240.542h -6.80315" fill="none" stroke="black"/>
<path d="M63.9961,238.538h -6.80315" fill="none" stroke="black"/>
<path d="M63.9961,236.77h -6.80315" fill="none" stroke="black"/>
<path d="M70.7992,235.189h -13.6063" fill="none" stroke="black"/>
<text xml:space="preserve" x="41.629" y="238.785" fill="black" font-size="10.4952" font-family="Helvetica">10</text>
<path d="M63.9961,224.786h -6.80315" fill="none" stroke="black"/>
<path d="M63.9961,218.7h -6.80315" fill="none" stroke="black"/>
<path d="M63.9961,214.382h -6.80315" fill="none" stroke="black"/>
<path d="M63.9961,211.033h -6.80315" fill="none" stroke="black"/>
<path d="M63.9961,208.297h -6.80315" fill="none" stroke="black"/>
<path d="M63.9961,205.983h -6.80315" fill="none" stroke="black"/>
<path d="M63.9961,203.979h -6.80315" fill="none" stroke="black"/>
<path d="M63.9961,202.211h -6.80315" fill="none" stroke="black"/>
<path d="M70.7992,200.63h -13.6063" fill="none" stroke="black"/>
<text xml:space="preserve" x="49.0263" y="200.911" fill="black" font-size="7.16345" font-family="Helvetica">2</text>
<text xml:space="preserve" x="38.0783" y="205.349" fill="black" font-size="10.4952" font-family="Helvetica">10</text>
<path d="M63.9961,190.227h -6.80315" fill="none" stroke="black"/>
<path d="M63.9961,184.141h -6.80315" fill="none" stroke="black"/>
<path d="M63.9961,179.824h -6.80315" fill="none" stroke="black"/>
<path d="M63.9961,176.475h -6.80315" fill="none" stroke="black"/>
<path d="M63.9961,173.738h -6.80315" fill="none" stroke="black"/>
<path d="M63.9961,171.425h -6.80315" fill="none" stroke="black"/>
<path d="M63.9961,169.421h -6.80315" fill="none" stroke="black"/>
<path d="M63.9961,167.653h -6.80315" fill="none" stroke="black"/>
<path d="M70.7992,166.071h -13.6063" fill="none" stroke="black"/>
<text xml:space="preserve" x="49.0263" y="165.995" fill="black" font-size="7.16345" font-family="Helvetica">3</text>
<text xml:space="preserve" x="38.0783" y="170.73" fill="black" font-size="10.4952" font-family="Helvetica">10</text>
<path d="M63.9961,155.668h -6.80315" fill="none" stroke="black"/>
<path d="M63.9961,149.583h -6.80315" fill="none" stroke="black"/>
<path d="M63.9961,145.265h -6.80315" fill="none" stroke="black"/>
<path d="M63.9961,141.916h -6.80315" fill="none" stroke="black"/>
<path d="M63.9961,139.18h -6.80315" fill="none" stroke="black"/>
<path d="M63.9961,136.866h -6.80315" fill="none" stroke="black"/>
<path d="M63.9961,134.862h -6.80315" fill="none" stroke="black"/>
<path d="M63.9961,133.094h -6.80315" fill="none" stroke="black"/>
<path d="M70.7992,131.513h -13.6063" fill="none" stroke="black"/>
<text xml:space="preserve" x="49.0263" y="131.672" fill="black" font-size="7.16345" font-family="Helvetica">4</text>
<text xml:space="preserve" x="38.0783" y="136.11" fill="black" font-size="10.4952" font-family="Helvetica">10</text>
<path d="M63.9961,121.11h -6.80315" fill="none" stroke="black"/>
<path d="M63.9961,115.024h -6.80315" fill="none" stroke="black"/>
<path d="M63.9961,110.706h -6.80315" fill="none" stroke="black"/>
<path d="M63.9961,107.357h -6.80315" fill="none" stroke="black"/>
<path d="M63.9961,104.621h -6.80315" fill="none" stroke="black"/>
<path d="M63.9961,102.307h -6.80315" fill="none" stroke="black"/>
<path d="M63.9961,100.303h -6.80315" fill="none" stroke="black"/>
<path d="M63.9961,98.5355h -6.80315" fill="none" stroke="black"/>
<path d="M70.7992,96.9542h -13.6063" fill="none" stroke="black"/>
<text xml:space="preserve" x="49.0263" y="96.7567" fill="black" font-size="7.16345" font-family="Helvetica">5</text>
<text xml:space="preserve" x="38.0783" y="101.491" fill="black" font-size="10.4952" font-family="Helvetica">10</text>
<path d="M63.9961,86.551h -6.80315" fill="none" stroke="black"/>
<path d="M63.9961,80.4656h -6.80315" fill="none" stroke="black"/>
<path d="M63.9961,76.1478h -6.80315" fill="none" stroke="black"/>
<path d="M63.9961,72.7988h -6.80315" fill="none" stroke="black"/>
<path d="M63.9961,70.0624h -6.80315" fill="none" stroke="black"/>
<path d="M63.9961,67.7488h -6.80315" fill="none" stroke="black"/>
<path d="M63.9961,65.7447h -6.80315" fill="none" stroke="black"/>
<path d="M63.9961,63.9769h -6.80315" fill="none" stroke="black"/>
<path d="M70.7992,62.3956h -13.6063" fill="none" stroke="black"/>
<text xml:space="preserve" x="49.0263" y="62.1373" fill="black" font-size="7.16345" font-family="Helvetica">6</text>
<text xml:space="preserve" x="38.0783" y="66.8716" fill="black" font-size="10.4952" font-family="Helvetica">10</text>
<path d="M63.9961,51.9924h -6.80315" fill="none" stroke="black"/>
<path d="M63.9961,45.9069h -6.80315" fill="none" stroke="black"/>
<path d="M63.9961,41.5892h -6.80315" fill="none" stroke="black"/>
<path d="M63.9961,38.2401h -6.80315" fill="none" stroke="black"/>
<path d="M63.9961,35.5037h -6.80315" fill="none" stroke="black"/>
<path d="M63.9961,33.1901h -6.80315" fill="none" stroke="black"/>
<path d="M63.9961,31.186h -6.80315" fill="none" stroke="black"/>
<g transform="rotate(-90,26.5385,191.442)">
<text xml:space="preserve" x="26.5385" y="191.442" fill="black" font-size="10.4952" font-family="Helvetica">Counts/Channel</text>
</g>
<text xml:space="preserve" x="404.097" y="62.1373" fill="black" font-size="14.7788" font-family="Helvetica" font-weight="bold"> = 2.4879 MeV</text>
<text xml:space="preserve" x="398.179" y="65.3921" fill="black" font-size="10.0192" font-family="Helvetica" font-weight="bold">p</text>
<text xml:space="preserve" x="389.006" y="62.1373" fill="black" font-size="14.7788" font-family="Helvetica" font-weight="bold">E</text>
<path d="M262.163,164.641v 25.9351" fill="none" stroke="black"/>
<path d="M264.454,190.576l -2.29122, 3.9685l -2.29122, -3.9685z" fill="black"/>
<path d="M264.454,190.576l -2.29122, 3.9685l -2.29122, -3.9685h 4.58243z" fill="none" stroke="black"/>
<text xml:space="preserve" x="266.803" y="162.445" fill="black" font-size="10.4952" font-family="Helvetica" font-weight="bold">_1 	1.369 MeV</text>
<text xml:space="preserve" x="260.293" y="162.445" fill="black" font-size="10.4952" font-family="Times">&#0945;</text>
<path d="M184.528,131.513v 30.5901" fill="none" stroke="black"/>
<path d="M186.819,162.103l -2.29122, 3.9685l -2.29122, -3.9685z" fill="black"/>
<path d="M186.819,162.103l -2.29122, 3.9685l -2.29122, -3.9685h 4.58243z" fill="none" stroke="black"/>
<text xml:space="preserve" x="172.117" y="128.713" fill="black" font-size="10.4952" font-family="Helvetica" font-weight="bold"># p_1 	0.844 MeV</text>
<path d="M210.104,149.583v 12.5202" fill="none" stroke="black"/>
<path d="M212.395,162.103l -2.29122, 3.9685l -2.29122, -3.9685z" fill="black"/>
<path d="M212.395,162.103l -2.29122, 3.9685l -2.29122, -3.9685h 4.58243z" fill="none" stroke="black"/>
<text xml:space="preserve" x="197.564" y="144.987" fill="black" font-size="10.4952" font-family="Helvetica" font-weight="bold"># p_2 	1.015 MeV</text>
<path d="M497.706,269.747h 12.9596" fill="none" stroke="black"/>
<path d="M504.186,259.344h 6.47981" fill="none" stroke="black"/>
<path d="M504.186,253.259h 6.47981" fill="none" stroke="black"/>
<path d="M504.186,248.941h 6.47981" fill="none" stroke="black"/>
<path d="M504.186,245.592h 6.47981" fill="none" stroke="black"/>
<path d="M504.186,242.856h 6.47981" fill="none" stroke="black"/>
<path d="M504.186,240.542h 6.47981" fill="none" stroke="black"/>
<path d="M504.186,238.538h 6.47981" fill="none" stroke="black"/>
<path d="M504.186,236.77h 6.47981" fill="none" stroke="black"/>
<path d="M497.706,235.189h 12.9596" fill="none" stroke="black"/>
<path d="M504.186,224.786h 6.47981" fill="none" stroke="black"/>
<path d="M504.186,218.7h 6.47981" fill="none" stroke="black"/>
<path d="M504.186,214.382h 6.47981" fill="none" stroke="black"/>
<path d="M504.186,211.033h 6.47981" fill="none" stroke="black"/>
<path d="M504.186,208.297h 6.47981" fill="none" stroke="black"/>
<path d="M504.186,205.983h 6.47981" fill="none" stroke="black"/>
<path d="M504.186,203.979h 6.47981" fill="none" stroke="black"/>
<path d="M504.186,202.211h 6.47981" fill="none" stroke="black"/>
<path d="M497.706,200.63h 12.9596" fill="none" stroke="black"/>
<path d="M504.186,190.227h 6.47981" fill="none" stroke="black"/>
<path d="M504.186,184.141h 6.47981" fill="none" stroke="black"/>
<path d="M504.186,179.824h 6.47981" fill="none" stroke="black"/>
<path d="M504.186,176.475h 6.47981" fill="none" stroke="black"/>
<path d="M504.186,173.738h 6.47981" fill="none" stroke="black"/>
<path d="M504.186,171.425h 6.47981" fill="none" stroke="black"/>
<path d="M504.186,169.421h 6.47981" fill="none" stroke="black"/>
<path d="M504.186,167.653h 6.47981" fill="none" stroke="black"/>
<path d="M497.706,166.071h 12.9596" fill="none" stroke="black"/>
<path d="M504.186,155.668h 6.47981" fill="none" stroke="black"/>
<path d="M504.186,149.583h 6.47981" fill="none" stroke="black"/>
<path d="M504.186,145.265h 6.47981" fill="none" stroke="black"/>
<path d="M504.186,141.916h 6.47981" fill="none" stroke="black"/>
<path d="M504.186,139.18h 6.47981" fill="none" stroke="black"/>
<path d="M504.186,136.866h 6.47981" fill="none" stroke="black"/>
<path d="M504.186,134.862h 6.47981" fill="none" stroke="black"/>
<path d="M504.186,133.094h 6.47981" fill="none" stroke="black"/>
<path d="M497.706,131.513h 12.9596" fill="none" stroke="black"/>
<path d="M504.186,121.11h 6.47981" fill="none" stroke="black"/>
<path d="M504.186,115.024h 6.47981" fill="none" stroke="black"/>
<path d="M504.186,110.706h 6.47981" fill="none" stroke="black"/>
<path d="M504.186,107.357h 6.47981" fill="none" stroke="black"/>
<path d="M504.186,104.621h 6.47981" fill="none" stroke="black"/>
<path d="M504.186,102.307h 6.47981" fill="none" stroke="black"/>
<path d="M504.186,100.303h 6.47981" fill="none" stroke="black"/>
<path d="M504.186,98.5355h 6.47981" fill="none" stroke="black"/>
<path d="M497.706,96.9542h 12.9596" fill="none" stroke="black"/>
<path d="M504.186,86.551h 6.47981" fill="none" stroke="black"/>
<path d="M504.186,80.4656h 6.47981" fill="none" stroke="black"/>
<path d="M504.186,76.1478h 6.47981" fill="none" stroke="black"/>
<path d="M504.186,72.7988h 6.47981" fill="none" stroke="black"/>
<path d="M504.186,70.0624h 6.47981" fill="none" stroke="black"/>
<path d="M504.186,67.7488h 6.47981" fill="none" stroke="black"/>
<path d="M504.186,65.7447h 6.47981" fill="none" stroke="black"/>
<path d="M504.186,63.9769h 6.47981" fill="none" stroke="black"/>
<path d="M497.706,62.3956h 12.9596" fill="none" stroke="black"/>
<path d="M504.186,51.9924h 6.47981" fill="none" stroke="black"/>
<path d="M504.186,45.9069h 6.47981" fill="none" stroke="black"/>
<path d="M504.186,41.5892h 6.47981" fill="none" stroke="black"/>
<path d="M504.186,38.2401h 6.47981" fill="none" stroke="black"/>
<path d="M504.186,35.5037h 6.47981" fill="none" stroke="black"/>
<path d="M504.186,33.1901h 6.47981" fill="none" stroke="black"/>
<path d="M57.1929,40.0298v -7.46952" fill="none" stroke="black"/>
<path d="M75.3318,40.0298v -7.46952" fill="none" stroke="black"/>
<path d="M93.4707,40.0298v -7.46952" fill="none" stroke="black"/>
<path d="M111.61,40.0298v -7.46952" fill="none" stroke="black"/>
<path d="M129.749,40.0298v -7.46952" fill="none" stroke="black"/>
<path d="M147.887,40.0298v -7.46952" fill="none" stroke="black"/>
<path d="M166.026,40.0298v -7.46952" fill="none" stroke="black"/>
<path d="M184.165,40.0298v -7.46952" fill="none" stroke="black"/>
<path d="M202.304,40.0298v -7.46952" fill="none" stroke="black"/>
<path d="M220.443,40.0298v -7.46952" fill="none" stroke="black"/>
<path d="M238.582,40.0298v -7.46952" fill="none" stroke="black"/>
<path d="M256.721,40.0298v -7.46952" fill="none" stroke="black"/>
<path d="M274.86,40.0298v -7.46952" fill="none" stroke="black"/>
<path d="M292.999,40.0298v -7.46952" fill="none" stroke="black"/>
<path d="M311.138,40.0298v -7.46952" fill="none" stroke="black"/>
<path d="M329.277,40.0298v -7.46952" fill="none" stroke="black"/>
<path d="M347.415,40.0298v -7.46952" fill="none" stroke="black"/>
<path d="M365.554,40.0298v -7.46952" fill="none" stroke="black"/>
<path d="M383.693,40.0298v -7.46952" fill="none" stroke="black"/>
<path d="M401.832,40.0298v -7.46952" fill="none" stroke="black"/>
<path d="M419.971,40.0298v -7.46952" fill="none" stroke="black"/>
<path d="M438.11,40.0298v -7.46952" fill="none" stroke="black"/>
<path d="M456.249,40.0298v -7.46952" fill="none" stroke="black"/>
<path d="M474.388,40.0298v -7.46952" fill="none" stroke="black"/>
<path d="M492.527,40.0298v -7.46952" fill="none" stroke="black"/>
<path d="M510.666,40.0298v -7.46952" fill="none" stroke="black"/></svg>
