<?xml version="1.0" standalone="no"?>
<svg width="567.429" height="311.778" viewBox="0 0 567.429 311.778" xmlns="http://www.w3.org/2000/svg" shape-rendering="crispEdges">
<title>
Yields/P1/det-7/run_0100_Fit.svg
</title>
<desc>
Creator: ROOT Version 6.12/06
CreationDate: Mon Apr 15 10:29:01 2019</desc>
<defs>
</defs>
<rect x="0.5" y="0" width="566.929" height="311.278" fill="white"/>
<rect x="57.1929" y="31.1278" width="453.543" height="249.023" fill="white"/>
<rect x="57.1929" y="31.1278" width="453.543" height="249.023" fill="none" stroke="black"/>
<rect x="57.1929" y="31.1278" width="453.543" height="249.023" fill="white"/>
<rect x="57.1929" y="31.1278" width="453.543" height="249.023" fill="none" stroke="black"/>
<path d="M57.1929,40.8435h 0.181345v 239.307h 14.1449v -10.5376h 0.181345v 10.5376h 4.17093v -10.5376h 0.181345v 10.5376h 3.26421v -10.5376h 0.181345v 10.5376h 1.08807v -10.5376h 0.36269v 10.5376h 1.08807v -10.5376h 0.181345v 10.5376h 3.44555v
 -10.5376h 0.181345v 10.5376h 1.45076v -10.5376h 0.36269v 10.5376h 0.544034v -21.0752h 0.36269v 21.0752h 0.181345v -35.0051h 0.36269v -25.0638h 0.181345v -15.0566h 0.181345v -8.4454h 0.181345v -9.03245h 0.181345v -5.24245h 0.181345v -4.15263h
 0.181345v -1.84817h 0.181345v -1.4101h 0.181345v -1.72395h 0.181345v -0.653692h 0.181345v -1.80765h 0.181345v 0.321516h 0.181345v 0.495394h 0.181345v -1.8491h 0.181345v -1.57199h 0.181345v 0.173305h 0.181345v -0.847419h 0.181345v -0.236266h
 0.181345v 0.948722h 0.181345v -0.491056h 0.181345v 0.281363h 0.181345v -0.42932h 0.181345v -0.417528h 0.181345v -0.353975h 0.181345v -0.867008h 0.181345v 0.199598h 0.181345v 0.510771h 0.181345v -0.627522h 0.181345v 0.438241h 0.181345v -0.636322h
 0.181345v -0.0654577h 0.181345v 0.296805h 0.181345v -0.842102h 0.181345v 0.676495h 0.181345v -0.0493322h 0.181345v -1.16879h 0.181345v -0.493583h 0.181345v 0.162754h 0.181345v 0.684572h 0.181345v 0.880856h 0.181345v -0.989391h 0.181345v -0.305896h
 0.181345v 0.321354h 0.181345v -0.396876h 0.181345v 0.489953h 0.181345v -0.093077h 0.181345v 0.487151h 0.181345v 0.769705h 0.181345v -0.769705h 0.181345v 0.42097h 0.181345v -0.985252h 0.181345v 0.0926045h 0.181345v 0.567795h 0.181345v -0.443438h
 0.181345v 0.475613h 0.181345v -0.160197h 0.181345v -0.190034h 0.181345v -1.52602h 0.181345v -2.97676h 0.181345v -1.70322h 0.181345v -2.91407h 0.181345v -2.69236h 0.181345v -3.36192h 0.181345v -3.34471h 0.181345v -3.06677h 0.181345v -2.44423h
 0.181345v -2.56628h 0.181345v -1.55406h 0.181345v -1.58444h 0.181345v -0.0177963h 0.181345v -0.43827h 0.181345v 0.820998h 0.181345v 1.01341h 0.181345v 1.89208h 0.181345v 2.4668h 0.181345v 2.81661h 0.181345v 3.35722h 0.181345v 4.2699h 0.181345v
 4.25352h 0.181345v 3.86702h 0.181345v 4.03601h 0.181345v 3.28862h 0.181345v 3.89975h 0.181345v 2.14894h 0.181345v 1.47551h 0.181345v 0.657186h 0.181345v 1.17367h 0.181345v -1.29529h 0.181345v 1.00135h 0.181345v -0.160875h 0.181345v 3.2728h 0.181345v
 -2.3151h 0.181345v -0.469873h 0.181345v 1.09615h 0.181345v 2.29619h 0.181345v -2.71657h 0.181345v -0.50963h 0.181345v 1.50922h 0.181345v -1.10289h 0.181345v 1.55226h 0.181345v -0.596254h 0.181345v 2.03001h 0.181345v -2.10293h 0.181345v 0.937567h
 0.181345v -1.04629h 0.181345v -0.07205h 0.36269v -0.49501h 0.181345v 0.858724h 0.181345v 1.6304h 0.181345v 0.164799h 0.181345v -1.07921h 0.181345v -1.04372h 0.181345v 0.0722212h 0.181345v 2.55611h 0.181345v -1.73817h 0.181345v 0.864459h 0.181345v
 -0.0806502h 0.181345v 1.17h 0.181345v -0.679556h 0.181345v 1.85303h 0.181345v -1.08636h 0.181345v 1.51463h 0.181345v -1.7745h 0.181345v 1.96879h 0.181345v 0.496859h 0.181345v -0.594311h 0.181345v -1.34706h 0.181345v 1.10613h 0.181345v 0.387346h
 0.181345v -0.530094h 0.181345v 0.579214h 0.181345v 0.398778h 0.181345v 0.203381h 0.181345v -0.55288h 0.181345v 0.198729h 0.181345v 0.664418h 0.181345v -1.01051h 0.181345v -0.386117h 0.181345v 0.632516h 0.181345v -0.915801h 0.181345v 3.39235h
 0.181345v -1.91998h 0.181345v 0.847747h 0.181345v 0.668351h 0.181345v -1.09813h 0.181345v 0.484369h 0.181345v 0.275915h 0.181345v -0.275915h 0.181345v 0.22033h 0.181345v 0.111374h 0.181345v -0.276921h 0.181345v 1.25807h 0.181345v -0.469613h
 0.181345v -0.45554h 0.181345v -0.819006h 0.181345v 0.541072h 0.181345v 0.166149h 0.181345v -0.110968h 0.181345v -0.38213h 0.181345v 1.35223h 0.181345v -0.578112h 0.181345v 1.17908h 0.181345v -0.950467h 0.181345v -0.565215h 0.181345v -0.915119h
 0.181345v 0.804554h 0.181345v 1.02528h 0.181345v -0.970096h 0.181345v -1.01566h 0.181345v 1.81h 0.181345v -1.60175h 0.181345v 2.13522h 0.181345v -0.416534h 0.181345v 0.356326h 0.181345v -1.54154h 0.181345v 0.60929h 0.181345v -1.09025h 0.181345v
 -0.868952h 0.181345v -0.2464h 0.181345v -0.993364h 0.181345v -0.0457219h 0.181345v -1.3532h 0.181345v 1.12663h 0.181345v -0.873949h 0.181345v -1.14482h 0.181345v 0.19821h 0.181345v -0.70178h 0.181345v -0.264398h 0.181345v 1.95531h 0.181345v
 0.0426439h 0.181345v 1.86015h 0.181345v -0.428268h 0.181345v 0.284168h 0.181345v 3.00297h 0.181345v -0.345527h 0.181345v 1.00014h 0.181345v 1.13599h 0.181345v 0.601497h 0.181345v -0.925657h 0.181345v -0.628293h 0.181345v 0.0616736h 0.181345v
 1.83702h 0.181345v -0.0695769h 0.181345v -0.138206h 0.181345v -0.340115h 0.181345v 0.829434h 0.181345v -1.48766h 0.181345v 0.658221h 0.181345v 1.11628h 0.181345v -1.04887h 0.181345v 0.204064h 0.181345v 1.36019h 0.181345v -1.49654h 0.181345v
 -0.98539h 0.181345v 2.78448h 0.181345v 0.544394h 0.181345v -1.72005h 0.36269v 0.430289h 0.181345v 0.368118h 0.181345v 1.73481h 0.181345v -1.43376h 0.181345v -1.17h 0.181345v -0.620597h 0.181345v 1.12143h 0.181345v -1.18885h 0.181345v 1.63167h
 0.181345v -0.65949h 0.181345v -1.17266h 0.181345v 1.02991h 0.181345v 0.802238h 0.181345v -0.369909h 0.181345v 1.618h 0.181345v -1.39713h 0.181345v 1.2354h 0.181345v -3.44053h 0.181345v 0.32416h 0.181345v 0.0656698h 0.181345v -1.62148h 0.181345v
 2.57194h 0.181345v -1.65769h 0.181345v -1.0321h 0.36269v -0.116943h 0.181345v 2.25636h 0.181345v -3.54027h 0.181345v 1.81739h 0.181345v -0.179914h 0.181345v 1.76826h 0.181345v 0.134537h 0.181345v 0.0677174h 0.181345v 1.27351h 0.181345v -1.67537h
 0.181345v -0.131624h 0.181345v 0.876663h 0.181345v -0.410904h 0.181345v -1.23244h 0.181345v 1.78281h 0.181345v 1.86082h 0.181345v -0.620597h 0.181345v 0.15279h 0.181345v -1.39301h 0.181345v 1.31643h 0.181345v -2.00134h 0.181345v 2.1549h 0.181345v
 -0.971499h 0.181345v 1.44172h 0.181345v -1.00103h 0.181345v 1.48626h 0.181345v -1.26104h 0.181345v 0.935835h 0.181345v -0.0802246h 0.181345v 0.160875h 0.181345v -3.19702h 0.181345v 3.69012h 0.181345v -2.60376h 0.181345v 1.17h 0.181345v 0.463057h
 0.181345v 1.05446h 0.181345v -1.96689h 0.181345v 3.37391h 0.181345v -0.36415h 0.36269v -0.530374h 0.181345v 1.84499h 0.181345v -2.68979h 0.181345v 0.416534h 0.181345v -1.82809h 0.181345v 2.4311h 0.181345v -2.35603h 0.181345v 1.41888h 0.181345v
 -2.92247h 0.181345v 3.68488h 0.181345v -1.87722h 0.181345v 1.87722h 0.181345v -1.80025h 0.181345v 0.955447h 0.181345v -0.405425h 0.181345v -1.73716h 0.181345v 0.215642h 0.181345v 0.0725659h 0.181345v -0.359415h 0.181345v 1.80837h 0.181345v -2.70492h
 0.181345v 2.78515h 0.36269v -0.707222h 0.181345v 1.03242h 0.181345v -2.21379h 0.181345v -0.557953h 0.181345v 0.844802h 0.181345v 2.25925h 0.181345v -2.61698h 0.181345v 0.142081h 0.181345v 0.143421h 0.181345v 0.364586h 0.181345v 1.79983h 0.181345v
 -2.23629h 0.181345v 0.65949h 0.181345v -2.22534h 0.181345v 4.22329h 0.181345v -2.22098h 0.181345v 0.298098h 0.181345v -0.22412h 0.181345v 0.451593h 0.181345v -2.20094h 0.181345v 1.45557h 0.181345v -1.32279h 0.181345v 0.405425h 0.181345v 0.844802h
 0.181345v -0.286849h 0.181345v -0.489319h 0.181345v 0.277679h 0.181345v 3.62176h 0.181345v -3.62176h 0.181345v 1.1644h 0.181345v 0.152027h 0.181345v -0.962038h 0.181345v 2.82922h 0.181345v -1.71362h 0.181345v 0.873492h 0.181345v -0.48266h 0.181345v
 0.15919h 0.181345v 0.0802246h 0.181345v -0.396955h 0.181345v -1.27701h 0.181345v 1.04372h 0.181345v -0.530815h 0.181345v 2.59394h 0.181345v -0.94243h 0.181345v 0.42115h 0.181345v -1.15101h 0.181345v 1.23666h 0.181345v -1.55012h 0.181345v 0.63353h
 0.181345v 1.53004h 0.181345v -0.953177h 0.181345v 1.87482h 0.181345v -1.44896h 0.181345v 2.12905h 0.181345v -1.33107h 0.181345v 1.23203h 0.181345v 0.40009h 0.181345v -1.63212h 0.181345v 0.0913067h 0.181345v -1.23093h 0.181345v 1.98183h 0.181345v
 1.73058h 0.181345v -3.8804h 0.181345v 3.8804h 0.181345v 0.108203h 0.181345v -2.31242h 0.181345v 3.43905h 0.181345v -0.573748h 0.181345v -1.08636h 0.181345v 0.21115h 0.181345v -1.80241h 0.181345v 4.72372h 0.36269v -2.81463h 0.181345v 0.107439h
 0.181345v 0.437513h 0.181345v -0.329309h 0.181345v -0.844802h 0.181345v 1.97143h 0.181345v -1.97143h 0.181345v 2.68979h 0.181345v -1.62625h 0.181345v 0.110564h 0.181345v -1.27649h 0.181345v 3.93767h 0.181345v 0.401852h 0.181345v 0.273927h 0.181345v
 -1.44896h 0.181345v -2.53964h 0.181345v 4.26755h 0.181345v -2.8186h 0.544034v -2.0738h 0.181345v 0.947176h 0.181345v 1.12663h 0.181345v 1.09069h 0.181345v -2.21732h 0.181345v 0.894524h 0.181345v -0.565215h 0.181345v 2.01417h 0.181345v -1.21685h
 0.181345v 0.718363h 0.181345v -1.51568h 0.181345v 0.565215h 0.181345v -1.53249h 0.181345v 3.10866h 0.181345v -1.91782h 0.181345v 1.04887h 0.181345v 2.62765h 0.181345v -4.3376h 0.181345v 2.32552h 0.181345v -1.77663h 0.181345v 0.225227h 0.181345v
 0.815657h 0.36269v -0.70178h 0.181345v 0.230346h 0.181345v 0.591613h 0.181345v 0.868952h 0.181345v 0.519795h 0.181345v 1.383h 0.181345v -4.04418h 0.181345v 1.51568h 0.181345v -0.600969h 0.181345v 0.478859h 0.181345v 1.40039h 0.181345v -1.15518h
 0.181345v 0.37539h 0.181345v -1.09946h 0.181345v 1.48435h 0.181345v -1.12663h 0.181345v 3.21243h 0.181345v -2.72199h 0.181345v 2.42678h 0.181345v -2.79609h 0.181345v -0.478859h 0.181345v 1.61485h 0.181345v 0.398342h 0.181345v -3.03847h 0.181345v
 1.62625h 0.181345v 1.1455h 0.181345v -2.54981h 0.181345v -1.07865h 0.181345v 3.36634h 0.181345v -0.883383h 0.36269v 1.01388h 0.181345v -1.96434h 0.181345v 0.115609h 0.181345v -0.230346h 0.181345v 1.43753h 0.181345v -2.53964h 0.181345v 1.44896h
 0.181345v -1.44896h 0.181345v 2.16732h 0.181345v 1.41222h 0.181345v -3.68548h 0.181345v 0.868952h 0.181345v 3.08801h 0.181345v -1.4365h 0.181345v -0.36931h 0.181345v -0.943095h 0.181345v -2.22874h 0.181345v -1.68052h 0.181345v 1.77956h 0.181345v
 -0.488869h 0.181345v -3.73484h 0.181345v 3.07581h 0.181345v -0.45384h 0.181345v -1.28549h 0.181345v 1.92473h 0.181345v -4.96795h 0.181345v 2.01081h 0.181345v 1.11482h 0.181345v 0.589646h 0.181345v -1.78105h 0.181345v 1.61024h 0.181345v -1.83771h
 0.181345v -0.22412h 0.181345v -0.147599h 0.181345v 1.22297h 0.181345v 0.650475h 0.181345v -0.409796h 0.181345v -0.63353h 0.181345v 0.313465h 0.181345v 0.320065h 0.181345v 0.326949h 0.181345v 3.20757h 0.181345v -1.36525h 0.181345v 0.0935543h
 0.181345v -1.76973h 0.181345v -1.12663h 0.181345v 1.72288h 0.181345v 0.262874h 0.181345v -2.21669h 0.181345v 0.0765872h 0.181345v -0.966745h 0.181345v -0.214627h 0.181345v -0.281536h 0.181345v -0.681842h 0.181345v -1.46107h 0.181345v -0.825146h
 0.181345v -1.73312h 0.181345v -1.60175h 0.181345v -0.498488h 0.181345v -2.94904h 0.181345v 0.296644h 0.181345v -2.06274h 0.181345v -1.58212h 0.181345v -1.75127h 0.181345v -0.541623h 0.181345v -1.17h 0.181345v -1.02069h 0.181345v 0.718717h 0.181345v
 -2.37958h 0.181345v 0.098654h 0.181345v -1.57797h 0.181345v 0.125419h 0.181345v 1.10036h 0.181345v -1.06433h 0.181345v 0.383507h 0.181345v 2.24822h 0.181345v -0.128112h 0.181345v 1.4958h 0.181345v 1.58091h 0.181345v 0.692354h 0.181345v 1.66849h
 0.181345v 1.0706h 0.181345v 2.0954h 0.181345v 1.70193h 0.181345v 0.381673h 0.181345v 2.31488h 0.181345v 2.37686h 0.181345v 3.39235h 0.181345v -0.852702h 0.181345v 2.4707h 0.181345v 0.921647h 0.181345v 2.84101h 0.181345v -1.00716h 0.181345v 1.97443h
 0.181345v 0.565215h 0.181345v 0.232104h 0.181345v 2.13058h 0.181345v -1.53433h 0.181345v 1.00549h 0.181345v 0.800318h 0.181345v 0.13758h 0.181345v 3.0507h 0.181345v -3.8581h 0.181345v 0.669823h 0.181345v -0.136346h 0.181345v 2.50267h 0.181345v
 -2.36632h 0.181345v 2.04959h 0.181345v -1.34889h 0.181345v -0.142748h 0.181345v 1.49164h 0.181345v -1.77318h 0.181345v 0.281536h 0.181345v -1.09615h 0.181345v 1.52848h 0.181345v 2.36786h 0.181345v -3.49449h 0.181345v 2.03001h 0.181345v -0.903386h
 0.181345v 0.596254h 0.181345v -0.449368h 0.181345v 0.449368h 0.181345v -1.17h 0.181345v 2.27326h 0.181345v -0.796126h 0.181345v -0.307132h 0.181345v -2.38685h 0.181345v 5.40381h 0.181345v -0.724067h 0.181345v -0.691143h 0.181345v -3.0507h 0.181345v
 1.75609h 0.181345v -1.47713h 0.181345v 1.47713h 0.181345v 0.313465h 0.181345v -0.921647h 0.181345v 1.24171h 0.181345v -0.477606h 0.181345v -3.23481h 0.181345v 4.03936h 0.181345v -2.43761h 0.181345v 2.94161h 0.181345v -1.15101h 0.181345v 0.320065h
 0.181345v -0.63353h 0.181345v 1.12663h 0.181345v -0.653973h 0.36269v 0.821958h 0.181345v 0.341644h 0.181345v -1.00273h 0.181345v -0.940662h 0.181345v 1.10326h 0.181345v 3.4743h 0.181345v -7.7247h 0.181345v 3.14714h 0.181345v 4.99409h 0.181345v
 -3.56033h 0.181345v -0.653973h 0.181345v 1.87082h 0.181345v 1.52152h 0.181345v -3.70908h 0.181345v -1.05931h 0.181345v 2.198h 0.181345v 6.4196h 0.181345v -4.81786h 0.181345v 3.5812h 0.181345v -3.39235h 0.181345v -3.08521h 0.181345v -2.69399h
 0.181345v 5.21953h 0.181345v -1.72942h 0.181345v 1.54735h 0.181345v 0.182068h 0.181345v -1.56507h 0.181345v -0.326949h 0.181345v 3.6369h 0.181345v -3.4743h 0.181345v 0.668351h 0.181345v -1.15101h 0.181345v 0.813163h 0.181345v 3.56033h 0.181345v
 -5.14536h 0.181345v 1.25453h 0.181345v 1.18963h 0.181345v 0.539791h 0.181345v -2.52555h 0.181345v -2.43187h 0.181345v 2.43187h 0.181345v -2.43187h 0.181345v 3.5585h 0.181345v -4.94724h 0.181345v 0.741734h 0.181345v -2.2345h 0.181345v 0.22033h
 0.181345v -2.91899h 0.181345v -3.42893h 0.181345v 1.05931h 0.181345v -3.91609h 0.181345v 0.121621h 0.181345v -1.89202h 0.181345v -2.61823h 0.181345v -0.180448h 0.181345v -2.32425h 0.181345v -0.932963h 0.181345v -1.6126h 0.181345v -0.543576h
 0.181345v -1.14905h 0.181345v -0.766676h 0.181345v -2.37904h 0.181345v 1.00327h 0.181345v -1.21491h 0.181345v -0.41464h 0.181345v -0.425743h 0.181345v -0.219376h 0.181345v -0.743808h 0.181345v 1.41167h 0.181345v 0.298774h 0.181345v 1.15701h
 0.181345v 0.025066h 0.181345v 0.614327h 0.181345v 0.887402h 0.181345v 1.42129h 0.181345v 1.63557h 0.181345v 0.835131h 0.181345v 0.620597h 0.181345v 3.74098h 0.181345v 0.984326h 0.181345v 1.21685h 0.181345v 2.38025h 0.181345v 2.14085h 0.181345v
 1.47865h 0.181345v 2.96919h 0.181345v 1.67923h 0.181345v 2.66118h 0.181345v 2.90452h 0.181345v 4.2143h 0.181345v -0.209693h 0.181345v -1.00716h 0.181345v 3.49011h 0.181345v 2.3844h 0.181345v 1.50643h 0.181345v 0.981149h 0.181345v -3.32463h 0.181345v
 1.42183h 0.181345v 4.07829h 0.181345v -4.37349h 0.181345v 6.01861h 0.181345v -1.64512h 0.181345v -1.83385h 0.181345v 2.22874h 0.181345v -1.52152h 0.181345v -2.34348h 0.181345v 0.960479h 0.36269v -2.15345h 0.181345v 2.82922h 0.181345v 0.349499h
 0.181345v 3.57015h 0.181345v -2.4707h 0.181345v -0.741734h 0.181345v 2.77175h 0.181345v -3.82061h 0.181345v 2.57039h 0.181345v -0.779788h 0.181345v -1.09946h 0.181345v 1.87924h 0.181345v -0.779788h 0.181345v 1.18521h 0.181345v -4.27043h 0.181345v
 4.27043h 0.181345v -3.30995h 0.181345v 1.02528h 0.181345v -1.98576h 0.181345v 0.313465h 0.181345v 4.80176h 0.181345v -7.67872h 0.181345v 4.19975h 0.181345v -0.341644h 0.181345v -0.661084h 0.181345v 1.00273h 0.181345v 6.87132h 0.181345v -6.87132h
 0.181345v -2.53964h 0.181345v 3.61321h 0.181345v 0.37539h 0.36269v -3.6934h 0.181345v 2.24444h 0.181345v -4.19975h 0.181345v 6.0336h 0.181345v -0.760285h 0.181345v -1.41521h 0.181345v -2.198h 0.181345v 0.596254h 0.181345v 1.26761h 0.36269v -2.15345h
 0.181345v -0.837048h 0.181345v 2.99049h 0.181345v -3.25957h 0.181345v 5.7692h 0.181345v -3.47011h 0.181345v -1.47713h 0.181345v 3.11339h 0.181345v -3.93535h 0.181345v 0.821958h 0.181345v -1.60175h 0.181345v 2.4707h 0.181345v 1.56866h 0.181345v
 1.02528h 0.181345v 1.48435h 0.181345v -3.15664h 0.181345v -3.89083h 0.181345v 3.57737h 0.181345v -0.307132h 0.181345v 3.39235h 0.181345v -1.09946h 0.181345v -0.691143h 0.181345v -0.661084h 0.36269v -0.63353h 0.181345v 2.70982h 0.181345v 0.37539h
 0.181345v -6.16409h 0.181345v 4.71514h 0.181345v -1.00273h 0.181345v 1.35223h 0.181345v 4.4918h 0.181345v -2.61256h 0.181345v -1.15518h 0.181345v -4.46591h 0.181345v 3.0507h 0.181345v 2.97581h 0.181345v -2.28467h 0.181345v -0.691143h 0.181345v
 -2.48758h 0.181345v -0.284168h 0.181345v 6.16409h 0.181345v -4.99409h 0.181345v 4.57756h 0.181345v -2.28467h 0.181345v 4.024h 0.181345v -7.20272h 0.181345v 4.27818h 0.181345v -2.45168h 0.181345v 1.70995h 0.181345v 3.21243h 0.181345v -2.0858h
 0.181345v -1.12663h 0.181345v 2.34348h 0.181345v -3.72648h 0.181345v 2.50963h 0.181345v -2.17549h 0.181345v -7.14524h 0.181345v 4.37349h 0.181345v 1.47713h 0.181345v 4.27043h 0.36269v -1.92695h 0.36269v -1.04887h 0.36269v -0.334135h 0.181345v
 5.51708h 0.181345v -3.39235h 0.181345v 2.92454h 0.181345v -5.69629h 0.181345v 5.24245h 0.181345v -2.4707h 0.181345v 3.39235h 0.181345v -5.18295h 0.181345v -1.9028h 0.181345v 5.29514h 0.181345v 1.32279h 0.181345v -0.894524h 0.36269v -0.428268h
 0.181345v 1.32279h 0.181345v 2.49782h 0.181345v -4.23715h 0.181345v -0.405425h 0.181345v -6.94388h 0.181345v 7.76584h 0.181345v -0.821958h 0.181345v 1.69091h 0.181345v 4.67454h 0.181345v -2.77175h 0.181345v -3.9886h 0.181345v 1.21685h 0.181345v
 -1.97714h 0.181345v -0.724067h 0.181345v 5.47295h 0.181345v -4.37349h 0.181345v 3.87501h 0.181345v -5.32396h 0.181345v -1.00273h 0.181345v 3.23147h 0.181345v 4.1091h 0.181345v -6.33784h 0.181345v 4.8413h 0.181345v -2.20713h 0.181345v -0.405425h
 0.181345v 2.61256h 0.181345v 1.49654h 0.181345v -1.49654h 0.181345v 2.03001h 0.181345v 9.48872h 0.181345v -10.0222h 0.181345v -0.515389h 0.181345v 0.515389h 0.181345v -0.515389h 0.181345v 1.04887h 0.36269v -2.49782h 0.181345v 3.62445h 0.181345v
 -2.67398h 0.181345v 5.92085h 0.181345v -2.65061h 0.181345v 2.65061h 0.181345v -2.03001h 0.181345v -1.7906h 0.181345v 4.56235h 0.181345v -2.77175h 0.36269v 2.77175h 0.181345v -0.741734h 0.181345v -2.65061h 0.181345v 0.620597h 0.181345v -2.87696h
 0.181345v 8.1194h 0.181345v -1.69091h 0.181345v 0.821958h 0.181345v -3.72648h 0.181345v 4.59543h 0.181345v 0.921647h 0.181345v -6.78469h 0.181345v 2.65061h 0.181345v 0.741734h 0.36269v 7.76584h 0.181345v -5.29514h 0.181345v 5.29514h 0.181345v
 -3.39235h 0.181345v -0.981149h 0.181345v 3.15664h 0.181345v -5.7692h 0.181345v 0.821958h 0.181345v -1.60175h 0.181345v 6.54899h 0.181345v -1.12663h 0.181345v -2.03001h 0.544034v 0.981149h 0.181345v 1.04887h 0.544034v 2.34348h 0.181345v -6.16409h
 0.181345v -4.37349h 0.181345v 13.3093h 0.181345v -2.77175h 0.181345v -6.98605h 0.181345v 11.3595h 0.181345v -6.71697h 0.181345v 2.34348h 0.36269v -2.34348h 0.181345v 1.12663h 0.181345v 2.53964h 0.36269v 3.0507h 0.181345v 3.82061h 0.181345v 2.34348h
 0.181345v -7.76584h 0.181345v 3.39235h 0.181345v -13.9299h 0.181345v 12.1393h 0.36269v -4.37349h 0.181345v -4.37349h 0.181345v 2.03001h 0.544034v -2.03001h 0.181345v -3.39235h 0.181345v 10.5376h 0.181345v -3.9886h 0.181345v -5.7692h 0.181345v
 -1.52152h 0.181345v 4.13408h 0.181345v 0.981149h 0.181345v -5.11523h 0.181345v 3.21243h 0.181345v -4.59543h 0.181345v 0.675779h 0.181345v 1.44896h 0.181345v -6.16409h 0.181345v 4.03936h 0.181345v 0.675779h 0.181345v -0.675779h 0.181345v -1.86387h
 0.181345v -1.66011h 0.181345v -1.49654h 0.181345v 2.03001h 0.181345v 1.72288h 0.181345v -5.96003h 0.181345v 8.61064h 0.181345v -3.24687h 0.181345v 1.21685h 0.181345v -1.7906h 0.181345v 0.573748h 0.181345v 2.53964h 0.181345v 0.707222h 0.181345v
 -2.03001h 0.181345v -2.34348h 0.181345v -3.39235h 0.181345v 3.39235h 0.181345v 4.37349h 0.181345v -1.383h 0.181345v -3.52397h 0.181345v 7.25045h 0.181345v -0.821958h 0.181345v -0.779788h 0.181345v 3.39235h 0.181345v -0.921647h 0.181345v -5.86304h
 0.181345v 1.26761h 0.181345v 3.72648h 0.181345v -6.71697h 0.181345v 2.99049h 0.181345v 5.51708h 0.181345v -2.61256h 0.181345v -2.90452h 0.36269v -2.43761h 0.181345v 1.7906h 0.181345v -3.39235h 0.181345v 2.17549h 0.181345v 0.596254h 0.181345v
 -3.7529h 0.181345v -3.76774h 0.181345v 2.4054h 0.181345v 0.440684h 0.181345v -1.69091h 0.181345v -6.68837h 0.181345v 0.524277h 0.181345v -0.779788h 0.181345v -4.18226h 0.181345v -1.46644h 0.181345v 1.66011h 0.181345v -2.17549h 0.181345v 1.23093h
 0.181345v -3.57441h 0.181345v 3.03462h 0.181345v -5.68523h 0.181345v 0.122109h 0.181345v -0.122109h 0.36269v -3.46514h 0.181345v 1.52662h 0.181345v 2.06063h 0.181345v -2.48295h 0.181345v -2.49151h 0.181345v -0.262874h 0.181345v 0.802666h 0.181345v
 0.277257h 0.181345v 1.67446h 0.181345v -2.13379h 0.181345v -1.70995h 0.181345v 1.98388h 0.181345v -3.66627h 0.181345v 0.817937h 0.181345v -0.227473h 0.181345v -0.590464h 0.181345v 1.44172h 0.181345v -1.22297h 0.181345v 0.907883h 0.181345v -0.834263h
 0.181345v 0.148318h 0.181345v 0.225227h 0.181345v -0.952759h 0.181345v -1.29316h 0.181345v -0.129937h 0.181345v -1.36048h 0.181345v 0.726952h 0.181345v 1.56731h 0.36269v 0.138206h 0.181345v -0.745039h 0.181345v 1.02528h 0.181345v -0.349499h
 0.181345v 1.14791h 0.181345v -2.78416h 0.181345v 0.960479h 0.181345v 2.98475h 0.181345v -1.52918h 0.181345v 1.77243h 0.181345v -1.02705h 0.181345v 3.31614h 0.181345v 0.581059h 0.181345v 0.501779h 0.181345v 3.03937h 0.181345v -0.610625h 0.181345v
 1.11742h 0.181345v 3.4569h 0.181345v 2.45168h 0.181345v 1.81437h 0.181345v 1.81739h 0.181345v -2.03001h 0.181345v 2.27326h 0.181345v 2.67398h 0.181345v 2.53964h 0.181345v 5.32396h 0.181345v -2.68979h 0.181345v 4.23715h 0.36269v 2.99049h 0.181345v
 3.72648h 0.181345v -7.76584h 0.181345v 9.55644h 0.181345v 7.14524h 0.181345v -7.14524h 0.181345v 8.74699h 0.181345v 3.82061h 0.181345v -3.82061h 0.181345v 22.8658h 0.181345v -24.4675h 0.181345v 7.76584h 0.181345v 27.2393h 0.181345v -27.2393h
 0.181345v 10.5376h 0.36269v 27.2393h 0.181345v -37.7769h 0.181345v 6.16409h 0.36269v -8.50757h 0.181345v 8.50757h 0.181345v -6.16409h 0.181345v 16.7017h 0.181345v -10.5376h 0.181345v 4.37349h 0.181345v -4.37349h 0.36269v -3.39235h 0.181345v 7.76584h
 0.181345v -4.37349h 0.544034v -3.39235h 0.181345v 7.76584h 0.36269v -4.37349h 0.181345v 4.37349h 0.181345v 6.16409h 0.181345v -6.16409h 0.181345v 16.7017h 0.181345v -16.7017h 0.181345v 16.7017h 0.181345v -21.0752h 0.181345v -6.16409h 0.181345v
 10.5376h 0.181345v -10.5376h 0.181345v 16.7017h 0.181345v -6.16409h 0.181345v -7.76584h 0.181345v -5.11523h 0.181345v 19.0452h 0.181345v -10.5376h 0.181345v 10.5376h 0.181345v -6.16409h 0.181345v -7.76584h 0.181345v 7.76584h 0.181345v -4.37349h
 0.181345v -3.39235h 0.36269v 7.76584h 0.544034v -4.37349h 0.181345v 4.37349h 0.181345v -4.37349h 0.544034v -3.39235h 0.181345v 3.39235h 0.181345v -6.16409h 0.36269v 16.7017h 0.181345v -16.7017h 0.181345v -4.37349h 0.181345v 7.14524h 0.181345v
 3.39235h 0.181345v -10.5376h 0.181345v 7.14524h 0.181345v 7.76584h 0.181345v -7.76584h 0.181345v -5.11523h 0.36269v -2.03001h 0.36269v 4.37349h 0.181345v -4.37349h 0.181345v -7.38095h 0.181345v 5.59035h 0.181345v 8.93584h 0.181345v -11.9865h
 0.181345v -1.32279h 0.181345v 1.32279h 0.181345v 19.7524h 0.181345v -19.7524h 0.181345v -6.61793h 0.181345v 9.66864h 0.181345v -8.74699h 0.36269v 0.981149h 0.544034v -0.981149h 0.181345v -6.16409h 0.181345v 10.5376h 0.181345v -10.5376h 0.181345v
 5.24245h 0.181345v -5.24245h 0.181345v 4.37349h 0.181345v 1.7906h 0.181345v 4.37349h 0.181345v -9.2148h 0.181345v 7.99794h 0.36269v -7.99794h 0.181345v 3.0507h 0.181345v 6.16409h 0.181345v 2.77175h 0.36269v -8.93584h 0.181345v 2.77175h 0.181345v
 -1.9028h 0.181345v 1.9028h 0.181345v 4.71514h 0.181345v 1.44896h 0.181345v 7.76584h 0.181345v -2.34348h 0.181345v -2.03001h 0.181345v -3.39235h 0.181345v 10.5376h 0.181345v -8.93584h 0.181345v 3.82061h 0.181345v 19.0452h 0.181345v -19.0452h
 0.181345v 12.8811h 0.181345v -4.37349h 0.181345v -8.50757h 0.181345v 5.11523h 0.181345v 7.76584h 0.181345v 16.7017h 0.181345v -21.0752h 0.181345v -6.16409h 0.181345v 37.7769h 0.181345v -35.0051h 0.181345v 13.9299h 0.181345v -10.5376h 0.181345v
 -3.39235h 0.181345v 24.4675h 0.181345v -10.5376h 0.181345v -6.16409h 0.36269v -10.5376h 0.181345v 16.7017h 0.181345v 21.0752h 0.181345v -35.0051h 0.181345v 7.76584h 0.725379v 16.7017h 0.181345v -16.7017h 0.181345v -4.37349h 0.181345v 10.5376h
 0.181345v -10.5376h 0.181345v 21.0752h 0.181345v -27.2393h 0.181345v 10.5376h 0.181345v -7.76584h 0.36269v 3.39235h 0.181345v 21.0752h 0.36269v -16.7017h 0.36269v -10.5376h 0.181345v 2.77175h 0.181345v 24.4675h 0.36269v -27.2393h 0.181345v 16.7017h
 0.36269v -10.5376h 0.181345v -6.16409h 0.181345v 27.2393h 0.181345v -31.6128h 0.181345v 4.37349h 0.181345v 10.5376h 0.181345v -7.76584h 0.181345v 13.9299h 0.181345v -19.0452h 0.181345v 5.11523h 0.181345v -13.3093h 0.181345v 21.0752h 0.36269v
 -10.5376h 0.181345v 16.7017h 0.181345v -6.16409h 0.181345v -7.76584h 0.36269v 7.76584h 0.181345v -10.5376h 0.181345v 10.5376h 0.181345v -21.0752h 0.181345v 10.5376h 0.181345v 2.77175h 0.181345v -2.77175h 0.181345v 2.77175h 0.181345v -2.77175h
 0.181345v 2.77175h 0.181345v -5.11523h 0.181345v -2.03001h 0.181345v 14.9111h 0.36269v -10.5376h 0.181345v 6.16409h 0.181345v -6.16409h 0.181345v 2.77175h 0.181345v -7.14524h 0.181345v 7.14524h 0.181345v -8.93584h 0.181345v 6.16409h 0.181345v
 -9.2148h 0.181345v 15.3789h 0.181345v -10.5376h 0.181345v 2.03001h 0.181345v 5.11523h 0.36269v -10.5376h 0.181345v 1.60175h 0.181345v 1.7906h 0.181345v 10.5376h 0.181345v -3.39235h 0.181345v 35.0051h 0.181345v -37.7769h 0.181345v 10.5376h 0.181345v
 -10.5376h 0.181345v 2.77175h 0.181345v 7.76584h 0.181345v -4.37349h 0.181345v -6.16409h 0.181345v -2.34348h 0.36269v 2.34348h 0.181345v 2.77175h 0.181345v 3.39235h 0.181345v 4.37349h 0.181345v -21.0752h 0.181345v 2.77175h 0.181345v 18.3034h
 0.181345v -10.5376h 0.181345v 6.16409h 0.181345v -6.16409h 0.181345v 2.77175h 0.181345v -5.11523h 0.181345v 5.11523h 0.544034v -5.11523h 0.181345v 8.50757h 0.181345v -10.5376h 0.181345v 7.14524h 0.181345v 3.39235h 0.181345v -10.5376h 0.181345v
 10.5376h 0.181345v -6.16409h 0.181345v 6.16409h 0.181345v -10.5376h 0.181345v 14.9111h 0.181345v -4.37349h 0.181345v -3.39235h 0.181345v -5.11523h 0.181345v -10.5376h 0.181345v 10.5376h 0.181345v 5.11523h 0.36269v -7.14524h 0.36269v -6.16409h
 0.181345v 16.7017h 0.181345v -12.3282h 0.181345v -4.37349h 0.181345v 21.0752h 0.36269v -7.76584h 0.181345v -10.5376h 0.181345v 5.42236h 0.181345v 5.11523h 0.181345v -2.77175h 0.181345v -2.34348h 0.181345v 8.50757h 0.181345v -12.3282h 0.181345v
 16.7017h 0.181345v -24.4675h 0.181345v 11.5865h 0.181345v -2.03001h 0.36269v 10.5376h 0.181345v -10.5376h 0.36269v 2.03001h 0.181345v -12.5676h 0.181345v 10.5376h 0.36269v -1.7906h 0.181345v -5.59035h 0.181345v 9.41096h 0.36269v -5.42236h 0.181345v
 5.42236h 0.181345v -8.19411h 0.181345v 16.7017h 0.181345v -8.50757h 0.181345v -2.03001h 0.181345v -4.8413h 0.181345v 11.9865h 0.181345v -15.6528h 0.181345v 6.71697h 0.36269v 12.3282h 0.181345v -8.50757h 0.181345v -6.87132h 0.181345v 3.0507h
 0.181345v -1.60175h 0.181345v 24.4675h 0.181345v -24.4675h 0.181345v -7.14524h 0.181345v 5.69629h 0.181345v 4.8413h 0.181345v -8.50757h 0.181345v 2.34348h 0.181345v 1.32279h 0.36269v 1.44896h 0.181345v 3.39235h 0.181345v 7.14524h 0.181345v -8.93584h
 0.181345v -1.60175h 0.181345v 1.60175h 0.181345v 3.82061h 0.181345v -2.03001h 0.181345v -8.50757h 0.181345v 3.66627h 0.181345v -3.66627h 0.181345v 12.8811h 0.181345v -11.7544h 0.181345v -3.15664h 0.181345v 7.14524h 0.181345v 5.42236h 0.181345v
 -5.42236h 0.181345v -5.11523h 0.181345v 3.66627h 0.181345v -9.08863h 0.181345v 9.08863h 0.181345v -3.66627h 0.181345v 6.71697h 0.36269v 1.7906h 0.181345v -11.4592h 0.181345v 13.4893h 0.181345v 2.34348h 0.181345v -7.76584h 0.181345v -6.16409h
 0.181345v -0.981149h 0.181345v 7.14524h 0.181345v 3.39235h 0.181345v -4.8413h 0.181345v -5.69629h 0.181345v 17.6828h 0.181345v -20.2954h 0.181345v 6.98605h 0.181345v -2.34348h 0.181345v 3.66627h 0.181345v -2.53964h 0.181345v -2.17549h 0.181345v
 -1.9028h 0.181345v 8.06689h 0.36269v -7.14524h 0.181345v 8.74699h 0.181345v -5.59035h 0.181345v -8.67372h 0.181345v 12.6623h 0.181345v -6.16409h 0.181345v 1.04887h 0.181345v 1.12663h 0.181345v 1.21685h 0.181345v 2.77175h 0.181345v -2.77175h
 0.181345v -3.39235h 0.181345v -1.9028h 0.181345v -3.21243h 0.181345v 12.8811h 0.181345v -7.76584h 0.181345v 1.04887h 0.181345v -1.04887h 0.181345v -5.11523h 0.181345v 6.16409h 0.181345v -8.81471h 0.181345v 7.76584h 0.181345v -3.59371h 0.181345v
 -4.17213h 0.36269v 4.17213h 0.181345v 3.59371h 0.181345v -3.59371h 0.181345v -6.94388h 0.181345v 7.76584h 0.181345v -1.60175h 0.181345v 0.779788h 0.181345v -4.76839h 0.181345v 3.24687h 0.181345v 1.52152h 0.181345v -1.52152h 0.181345v -3.82061h
 0.36269v 4.56235h 0.181345v -2.12473h 0.181345v -0.647014h 0.181345v 2.03001h 0.36269v 2.34348h 0.181345v -3.0507h 0.181345v -1.32279h 0.181345v 11.8604h 0.181345v -5.69629h 0.181345v -0.921647h 0.181345v -4.59543h 0.181345v -2.43761h 0.181345v
 7.95469h 0.181345v -9.55644h 0.181345v 8.63479h 0.181345v -2.4707h 0.181345v 4.37349h 0.181345v -6.49823h 0.181345v 0.675779h 0.181345v -3.11339h 0.181345v 7.95469h 0.181345v -8.50757h 0.181345v 2.34348h 0.181345v -3.39235h 0.181345v 3.39235h
 0.181345v 8.19411h 0.181345v -4.64257h 0.36269v -6.42849h 0.181345v 13.4145h 0.181345v -5.29514h 0.181345v 2.95166h 0.181345v -3.82061h 0.181345v -1.60175h 0.181345v 0.779788h 0.181345v 8.30884h 0.181345v -1.32279h 0.181345v -6.16409h 0.36269v
 8.93584h 0.181345v -2.77175h 0.181345v -5.29514h 0.181345v 1.9028h 0.181345v 6.16409h 0.181345v -5.11523h 0.181345v 2.34348h 0.36269v -1.21685h 0.36269v 1.21685h 0.181345v -4.37349h 0.181345v 2.03001h 0.181345v -3.82061h 0.181345v 2.77175h 0.181345v
 -1.9028h 0.181345v -0.868952h 0.181345v 2.77175h 0.181345v 4.71514h 0.36269v -7.48689h 0.181345v 3.82061h 0.181345v 1.12663h 0.36269v -1.12663h 0.181345v 6.71697h 0.181345v 1.7906h 0.181345v -4.8413h 0.181345v 1.44896h 0.36269v -5.11523h 0.181345v
 1.12663h 0.181345v 2.53964h 0.181345v -3.66627h 0.36269v -2.95166h 0.36269v 0.921647h 0.181345v -0.921647h 0.181345v 0.921647h 0.181345v 5.69629h 0.181345v 1.44896h 0.181345v -10.5376h 0.181345v 18.3034h 0.181345v -7.76584h 0.181345v 3.39235h
 0.181345v 2.03001h 0.181345v -6.87132h 0.181345v 1.44896h 0.36269v -8.06689h 0.36269v 9.66864h 0.181345v -3.0507h 0.181345v -3.66627h 0.181345v 10.5376h 0.181345v 2.34348h 0.181345v -7.76584h 0.181345v -5.11523h 0.181345v 3.66627h 0.181345v
 -1.32279h 0.181345v 4.37349h 0.181345v -6.71697h 0.181345v 15.6528h 0.181345v -13.3093h 0.181345v -5.29514h 0.36269v 5.29514h 0.181345v 1.32279h 0.181345v 1.44896h 0.181345v -1.44896h 0.181345v -6.61793h 0.181345v 2.95166h 0.181345v -2.03001h
 0.181345v 12.5676h 0.181345v -8.19411h 0.181345v -1.21685h 0.181345v 3.9886h 0.181345v -5.11523h 0.181345v -2.95166h 0.181345v 0.921647h 0.36269v 3.15664h 0.181345v -3.15664h 0.181345v 2.03001h 0.181345v 8.50757h 0.181345v -4.8413h 0.36269v
 -4.71514h 0.181345v 7.76584h 0.181345v -8.74699h 0.181345v 12.5676h 0.181345v -11.5865h 0.181345v 2.17549h 0.181345v -2.17549h 0.181345v -5.82245h 0.181345v 5.82245h 0.181345v -7.14524h 0.181345v 3.55154h 0.181345v 6.98605h 0.181345v 1.32279h
 0.181345v -3.66627h 0.181345v 1.12663h 0.181345v -7.99794h 0.181345v 6.87132h 0.36269v 10.5376h 0.181345v -9.41096h 0.181345v -2.17549h 0.181345v -4.37349h 0.181345v 12.1393h 0.181345v -9.66864h 0.181345v 0.921647h 0.181345v -1.7906h 0.181345v
 4.94724h 0.181345v 7.38095h 0.181345v -8.50757h 0.181345v 5.11523h 0.181345v 13.9299h 0.181345v -23.6877h 0.181345v 13.1501h 0.181345v -4.8413h 0.181345v -7.48689h 0.181345v 3.82061h 0.181345v 3.66627h 0.181345v 1.44896h 0.181345v -9.7578h 0.181345v
 0.821958h 0.181345v 10.5376h 0.181345v -8.74699h 0.181345v 4.37349h 0.181345v -8.50757h 0.181345v 2.34348h 0.181345v 1.7906h 0.36269v 2.03001h 0.181345v 3.66627h 0.181345v -9.08863h 0.181345v 4.37349h 0.36269v 3.39235h 0.181345v -6.16409h 0.36269v
 1.7906h 0.181345v 8.74699h 0.181345v -7.76584h 0.181345v 3.39235h 0.181345v -6.98605h 0.181345v 3.59371h 0.181345v -0.981149h 0.181345v -0.921647h 0.181345v -3.91965h 0.181345v 2.22874h 0.181345v 5.7692h 0.181345v -8.67372h 0.36269v 3.72648h
 0.181345v -1.60175h 0.181345v 5.42236h 0.181345v -4.64257h 0.181345v -1.52152h 0.181345v -1.383h 0.36269v 5.51708h 0.181345v -6.78469h 0.181345v -1.17h 0.181345v 3.82061h 0.181345v -0.707222h 0.181345v 1.44896h 0.181345v 3.39235h 0.181345v -7.38095h
 0.181345v 3.9886h 0.181345v -3.9886h 0.181345v 3.9886h 0.181345v 2.4707h 0.181345v -3.91965h 0.181345v -1.94339h 0.181345v 2.65061h 0.181345v -3.82061h 0.181345v 3.82061h 0.181345v 0.741734h 0.181345v -3.39235h 0.181345v 6.78469h 0.544034v -1.7906h
 0.181345v 1.7906h 0.181345v 7.14524h 0.181345v -13.9299h 0.181345v 4.99409h 0.181345v 6.16409h 0.181345v 10.5376h 0.181345v -12.8811h 0.181345v -4.64257h 0.181345v 1.69091h 0.181345v -2.4707h 0.181345v 7.76584h 0.36269v -9.2148h 0.181345v 9.2148h
 0.181345v -5.29514h 0.181345v 6.61793h 0.181345v -2.53964h 0.181345v -3.15664h 0.36269v 4.37349h 0.181345v -5.29514h 0.181345v 2.95166h 0.181345v 15.6528h 0.181345v -7.14524h 0.181345v -9.55644h 0.181345v 3.39235h 0.181345v 13.3093h 0.181345v
 -18.6045h 0.181345v 9.66864h 0.181345v 6.16409h 0.181345v -7.76584h 0.181345v -3.9886h 0.181345v 1.21685h 0.181345v -1.21685h 0.181345v 1.21685h 0.181345v -3.39235h 0.36269v -0.981149h 0.181345v 4.37349h 0.181345v -1.21685h 0.181345v 7.38095h
 0.181345v -6.16409h 0.181345v -2.34348h 0.181345v -6.16409h 0.181345v 4.13408h 0.181345v 4.37349h 0.181345v 2.77175h 0.181345v -6.16409h 0.36269v -5.82245h 0.181345v 10.5376h 0.181345v -9.08863h 0.181345v 3.39235h 0.181345v 4.37349h 0.181345v
 -5.29514h 0.181345v 0.921647h 0.181345v -1.7906h 0.181345v 4.94724h 0.36269v -1.12663h 0.181345v 5.11523h 0.36269v -8.93584h 0.36269v -0.821958h 0.181345v 3.59371h 0.181345v 11.5865h 0.181345v -9.41096h 0.181345v 2.53964h 0.181345v -1.32279h
 0.181345v 1.32279h 0.181345v -1.32279h 0.181345v 4.37349h 0.181345v -4.37349h 0.181345v 4.37349h 0.181345v -5.59035h 0.181345v 3.9886h 0.36269v -3.9886h 0.36269v 1.21685h 0.36269v -3.39235h 0.181345v 7.76584h 0.181345v 1.7906h 0.181345v -1.7906h
 0.544034v 1.7906h 0.181345v -1.7906h 0.181345v 8.93584h 0.181345v -11.9865h 0.181345v 3.0507h 0.181345v 6.16409h 0.181345v 6.16409h 0.181345v -10.5376h 0.725379v -1.7906h 0.181345v 12.3282h 0.181345v -10.5376h 0.181345v 2.03001h 0.36269v 5.11523h
 0.36269v -10.5376h 0.181345v 5.42236h 0.181345v -2.03001h 0.181345v 2.03001h 0.181345v 8.50757h 0.181345v -10.5376h 0.181345v -3.39235h 0.181345v 13.9299h 0.181345v 4.37349h 0.181345v -18.3034h 0.181345v 18.3034h 0.181345v -21.0752h 0.181345v
 4.37349h 0.181345v 1.7906h 0.181345v 4.37349h 0.181345v -12.8811h 0.181345v 12.8811h 0.544034v -9.2148h 0.181345v 9.2148h 0.36269v -6.16409h 0.181345v 3.82061h 0.181345v 12.8811h 0.181345v -18.3034h 0.181345v -2.77175h 0.181345v 6.16409h 0.181345v
 -3.39235h 0.181345v 13.9299h 0.181345v -10.5376h 0.181345v 2.03001h 0.36269v -2.03001h 0.181345v -1.7906h 0.181345v 8.93584h 0.181345v -11.9865h 0.181345v 1.44896h 0.181345v 5.42236h 0.181345v 2.34348h 0.181345v 2.77175h 0.181345v -2.77175h
 0.181345v -2.34348h 0.181345v -2.03001h 0.181345v -1.7906h 0.181345v 16.7017h 0.181345v -18.3034h 0.181345v 10.5376h 0.181345v -2.77175h 0.181345v -4.37349h 0.181345v 7.14524h 0.181345v -10.5376h 0.181345v 7.76584h 0.181345v -9.2148h 0.181345v
 6.87132h 0.181345v -5.42236h 0.181345v 5.42236h 0.181345v -2.03001h 0.181345v -1.7906h 0.181345v 3.82061h 0.544034v -6.87132h 0.181345v 15.3789h 0.181345v -13.9299h 0.181345v 5.42236h 0.181345v -6.87132h 0.181345v 3.0507h 0.181345v -3.0507h
 0.181345v 6.87132h 0.181345v 12.8811h 0.181345v -23.4187h 0.181345v 19.0452h 0.181345v -6.16409h 0.181345v -6.16409h 0.36269v -6.71697h 0.181345v 8.50757h 0.181345v 7.14524h 0.181345v -8.93584h 0.181345v 3.82061h 0.181345v -6.87132h 0.181345v
 6.87132h 0.181345v -3.82061h 0.181345v 22.8658h 0.181345v -16.7017h 0.36269v -4.37349h 0.181345v -3.39235h 0.36269v -5.11523h 0.181345v 3.66627h 0.181345v 6.87132h 0.36269v 12.8811h 0.181345v -21.0752h 0.181345v 13.3093h 0.181345v -10.5376h
 0.181345v 7.76584h 0.181345v -9.2148h 0.181345v -3.66627h 0.181345v 5.11523h 0.181345v 1.60175h 0.181345v 8.93584h 0.181345v -11.9865h 0.181345v -3.66627h 0.181345v 12.8811h 0.181345v -4.37349h 0.181345v -1.7906h 0.36269v 8.93584h 0.181345v
 -13.3093h 0.36269v 10.5376h 0.181345v -4.37349h 0.181345v -6.16409h 0.181345v 6.16409h 0.181345v -11.4592h 0.181345v 5.29514h 0.181345v 1.32279h 0.181345v 3.0507h 0.181345v -7.76584h 0.181345v 3.39235h 0.181345v -1.21685h 0.181345v 2.53964h
 0.544034v -2.53964h 0.181345v 1.21685h 0.181345v -3.39235h 0.181345v 4.71514h 0.181345v -6.61793h 0.36269v -3.21243h 0.181345v 14.6717h 0.181345v -12.3282h 0.181345v 10.5376h 0.181345v -7.76584h 0.36269v -0.981149h 0.181345v 3.15664h 0.181345v
 3.9886h 0.181345v -11.9865h 0.181345v 15.3789h 0.181345v -11.4592h 0.181345v -1.69091h 0.36269v 4.64257h 0.36269v -2.03001h 0.181345v -4.13408h 0.181345v 12.8811h 0.181345v -3.0507h 0.181345v 1.44896h 0.181345v -1.44896h 0.181345v -4.71514h
 0.181345v -5.82245h 0.181345v 6.87132h 0.181345v -1.04887h 0.181345v -0.981149h 0.181345v -2.61256h 0.181345v 2.61256h 0.181345v 4.37349h 0.181345v -7.76584h 0.181345v 3.39235h 0.181345v -0.921647h 0.181345v 15.8327h 0.181345v -17.5236h 0.181345v
 9.7578h 0.181345v -3.9886h 0.181345v 5.59035h 0.181345v -7.76584h 0.36269v 3.39235h 0.181345v -3.39235h 0.181345v 2.17549h 0.181345v -2.17549h 0.181345v 3.39235h 0.181345v 1.32279h 0.181345v 15.3789h 0.181345v -13.9299h 0.181345v 5.42236h 0.181345v
 -3.82061h 0.181345v 3.82061h 0.181345v -5.42236h 0.181345v 1.60175h 0.181345v 1.7906h 0.181345v 2.03001h 0.181345v 2.34348h 0.181345v -2.34348h 0.36269v 12.8811h 0.181345v -7.76584h 0.181345v 3.39235h 0.181345v 4.37349h 0.544034v -4.37349h 0.181345v
 -6.16409h 0.181345v 10.5376h 0.181345v 6.16409h 0.181345v -13.9299h 0.181345v 7.76584h 0.181345v -4.37349h 0.181345v 4.37349h 0.36269v -4.37349h 0.181345v 4.37349h 0.906724v 16.7017h 0.181345v -21.0752h 0.181345v -3.39235h 0.181345v 24.4675h
 0.181345v -21.0752h 0.181345v 4.37349h 0.181345v 6.16409h 0.181345v 10.5376h 0.36269v -21.0752h 0.181345v 21.0752h 0.36269v -10.5376h 0.181345v 21.0752h 0.181345v -10.5376h 0.181345v -21.0752h 0.181345v 10.5376h 0.36269v 21.0752h 0.181345v -10.5376h
 0.181345v 10.5376h 0.181345v -21.0752h 0.181345v 10.5376h 0.181345v 10.5376h 0.181345v -21.0752h 0.181345v 10.5376h 0.181345v 10.5376h 0.181345v -10.5376h 1.08807v 10.5376h 0.36269v -21.0752h 0.181345v 21.0752h 0.181345v -10.5376h 0.181345v 10.5376h
 1.45076v -21.0752h 0.181345v 21.0752h 0.181345v -35.0051h 0.181345v 24.4675h 0.36269v 10.5376h 0.36269v -10.5376h 0.181345v 10.5376h 0.181345v -10.5376h 0.181345v 10.5376h 0.181345v -21.0752h 0.181345v 21.0752h 0.181345v -31.6128h 0.181345v 31.6128h
 0.36269v -10.5376h 0.181345v 10.5376h 0.181345v -27.2393h 0.181345v 16.7017h 0.181345v 10.5376h 0.36269v -21.0752h 0.181345v 10.5376h 0.181345v 10.5376h 0.181345v -21.0752h 0.181345v 10.5376h 0.181345v 10.5376h 0.181345v -27.2393h 0.181345v 27.2393h
 0.36269v -10.5376h 0.36269v 10.5376h 0.36269v -10.5376h 0.181345v 10.5376h 0.181345v -10.5376h 0.181345v -10.5376h 0.181345v 21.0752h 0.181345v -10.5376h 0.544034v -10.5376h 0.36269v 10.5376h 0.181345v 10.5376h 0.181345v -21.0752h 0.181345v 21.0752h
 0.36269v -10.5376h 0.181345v 10.5376h 0.36269v -10.5376h 0.544034v 10.5376h 0.181345v -10.5376h 0.181345v 10.5376h 1.08807v -10.5376h 0.181345v -10.5376h 0.181345v 21.0752h 0.181345v -10.5376h 0.36269v 10.5376h 0.544034v -10.5376h 0.181345v
 -16.7017h 0.181345v 16.7017h 0.181345v 10.5376h 0.36269v -10.5376h 0.181345v 10.5376h 0.181345v -21.0752h 0.181345v 10.5376h 0.36269v 10.5376h 0.36269v -21.0752h 0.181345v 10.5376h 0.725379v -10.5376h 0.181345v -6.16409h 0.181345v 27.2393h 0.181345v
 -21.0752h 0.181345v 10.5376h 0.181345v 10.5376h 0.181345v -10.5376h 0.181345v 10.5376h 0.36269v -10.5376h 0.725379v 10.5376h 0.181345v -27.2393h 0.181345v 6.16409h 0.181345v 21.0752h 0.36269v -10.5376h 0.36269v 10.5376h 0.181345v -27.2393h 0.181345v
 27.2393h 0.725379v -27.2393h 0.181345v 16.7017h 0.181345v 10.5376h 0.181345v -10.5376h 0.36269v 10.5376h 0.181345v -10.5376h 0.181345v -16.7017h 0.181345v 27.2393h 0.181345v -10.5376h 0.181345v 10.5376h 0.36269v -10.5376h 0.36269v 10.5376h 0.181345v
 -10.5376h 0.181345v 10.5376h 0.36269v -10.5376h 0.544034v 10.5376h 0.36269v -10.5376h 0.181345v 10.5376h 0.181345v -31.6128h 0.181345v 31.6128h 0.181345v -21.0752h 0.181345v 10.5376h 0.181345v 10.5376h 0.181345v -21.0752h 0.181345v 21.0752h
 0.181345v -10.5376h 0.181345v 10.5376h 0.544034v -21.0752h 0.181345v 10.5376h 0.725379v -10.5376h 0.181345v 10.5376h 0.181345v 10.5376h 0.181345v -10.5376h 0.181345v 10.5376h 0.181345v -10.5376h 0.181345v -10.5376h 0.181345v 21.0752h 0.181345v
 -21.0752h 0.181345v 21.0752h 0.181345v -10.5376h 0.181345v -10.5376h 0.181345v 10.5376h 0.36269v 10.5376h 0.181345v -10.5376h 0.181345v 10.5376h 0.36269v -10.5376h 0.36269v -21.0752h 0.181345v 10.5376h 0.181345v 10.5376h 0.181345v 10.5376h 0.181345v
 -21.0752h 0.181345v 10.5376h 0.181345v 10.5376h 0.725379v -10.5376h 0.36269v 10.5376h 0.181345v -21.0752h 0.181345v 10.5376h 0.544034v 10.5376h 1.26941v -21.0752h 0.181345v 10.5376h 0.36269v 10.5376h 0.181345v -10.5376h 0.36269v 10.5376h 0.36269v
 -10.5376h 0.181345v 10.5376h 0.36269v -10.5376h 0.181345v 10.5376h 0.36269v -10.5376h 0.181345v 10.5376h 0.36269v -10.5376h 0.181345v 10.5376h 0.36269v -10.5376h 0.181345v -10.5376h 0.181345v 21.0752h 0.181345v -21.0752h 0.181345v 21.0752h 1.26941v
 -10.5376h 0.36269v 10.5376h 0.181345v -35.0051h 0.181345v 35.0051h 0.181345v -21.0752h 0.181345v 21.0752h 0.544034v -21.0752h 0.181345v 10.5376h 0.725379v 10.5376h 0.36269v -10.5376h 0.181345" fill="none" stroke="black"/>
<path d="M57.1929,280.151h 453.543" fill="none" stroke="black"/>
<path d="M57.1929,272.68v 7.47068" fill="none" stroke="black"/>
<path d="M75.3318,276.415v 3.73534" fill="none" stroke="black"/>
<path d="M93.4707,276.415v 3.73534" fill="none" stroke="black"/>
<path d="M111.61,276.415v 3.73534" fill="none" stroke="black"/>
<path d="M129.749,276.415v 3.73534" fill="none" stroke="black"/>
<path d="M147.887,272.68v 7.47068" fill="none" stroke="black"/>
<path d="M166.026,276.415v 3.73534" fill="none" stroke="black"/>
<path d="M184.165,276.415v 3.73534" fill="none" stroke="black"/>
<path d="M202.304,276.415v 3.73534" fill="none" stroke="black"/>
<path d="M220.443,276.415v 3.73534" fill="none" stroke="black"/>
<path d="M238.582,272.68v 7.47068" fill="none" stroke="black"/>
<path d="M256.721,276.415v 3.73534" fill="none" stroke="black"/>
<path d="M274.86,276.415v 3.73534" fill="none" stroke="black"/>
<path d="M292.999,276.415v 3.73534" fill="none" stroke="black"/>
<path d="M311.138,276.415v 3.73534" fill="none" stroke="black"/>
<path d="M329.277,272.68v 7.47068" fill="none" stroke="black"/>
<path d="M347.415,276.415v 3.73534" fill="none" stroke="black"/>
<path d="M365.554,276.415v 3.73534" fill="none" stroke="black"/>
<path d="M383.693,276.415v 3.73534" fill="none" stroke="black"/>
<path d="M401.832,276.415v 3.73534" fill="none" stroke="black"/>
<path d="M419.971,272.68v 7.47068" fill="none" stroke="black"/>
<path d="M438.11,276.415v 3.73534" fill="none" stroke="black"/>
<path d="M456.249,276.415v 3.73534" fill="none" stroke="black"/>
<path d="M474.388,276.415v 3.73534" fill="none" stroke="black"/>
<path d="M492.527,276.415v 3.73534" fill="none" stroke="black"/>
<path d="M510.666,272.68v 7.47068" fill="none" stroke="black"/>
<path d="M510.666,272.68v 7.47068" fill="none" stroke="black"/>
<text xml:space="preserve" x="54.3523" y="290.27" fill="black" font-size="10.4952" font-family="Helvetica">0</text>
<text xml:space="preserve" x="139.569" y="290.27" fill="black" font-size="10.4952" font-family="Helvetica">500</text>
<text xml:space="preserve" x="227.449" y="290.27" fill="black" font-size="10.4952" font-family="Helvetica">1000</text>
<text xml:space="preserve" x="318.288" y="290.27" fill="black" font-size="10.4952" font-family="Helvetica">1500</text>
<text xml:space="preserve" x="408.831" y="290.27" fill="black" font-size="10.4952" font-family="Helvetica">2000</text>
<text xml:space="preserve" x="499.67" y="290.27" fill="black" font-size="10.4952" font-family="Helvetica">2500</text>
<text xml:space="preserve" x="265.323" y="301.218" fill="black" font-size="10.4952" font-family="Helvetica">Channel</text>
<path d="M57.1929,280.151v -249.023" fill="none" stroke="black"/>
<path d="M63.9961,280.151h -6.80315" fill="none" stroke="black"/>
<path d="M63.9961,277.379h -6.80315" fill="none" stroke="black"/>
<path d="M63.9961,275.035h -6.80315" fill="none" stroke="black"/>
<path d="M63.9961,273.005h -6.80315" fill="none" stroke="black"/>
<path d="M63.9961,271.215h -6.80315" fill="none" stroke="black"/>
<path d="M70.7992,269.613h -13.6063" fill="none" stroke="black"/>
<text xml:space="preserve" x="49.0263" y="273.404" fill="black" font-size="10.4952" font-family="Helvetica">1</text>
<path d="M63.9961,259.075h -6.80315" fill="none" stroke="black"/>
<path d="M63.9961,252.911h -6.80315" fill="none" stroke="black"/>
<path d="M63.9961,248.538h -6.80315" fill="none" stroke="black"/>
<path d="M63.9961,245.145h -6.80315" fill="none" stroke="black"/>
<path d="M63.9961,242.374h -6.80315" fill="none" stroke="black"/>
<path d="M63.9961,240.03h -6.80315" fill="none" stroke="black"/>
<path d="M63.9961,238h -6.80315" fill="none" stroke="black"/>
<path d="M63.9961,236.21h -6.80315" fill="none" stroke="black"/>
<path d="M70.7992,234.608h -13.6063" fill="none" stroke="black"/>
<text xml:space="preserve" x="41.629" y="238.193" fill="black" font-size="10.4952" font-family="Helvetica">10</text>
<path d="M63.9961,224.07h -6.80315" fill="none" stroke="black"/>
<path d="M63.9961,217.906h -6.80315" fill="none" stroke="black"/>
<path d="M63.9961,213.533h -6.80315" fill="none" stroke="black"/>
<path d="M63.9961,210.14h -6.80315" fill="none" stroke="black"/>
<path d="M63.9961,207.369h -6.80315" fill="none" stroke="black"/>
<path d="M63.9961,205.025h -6.80315" fill="none" stroke="black"/>
<path d="M63.9961,202.995h -6.80315" fill="none" stroke="black"/>
<path d="M63.9961,201.204h -6.80315" fill="none" stroke="black"/>
<path d="M70.7992,199.603h -13.6063" fill="none" stroke="black"/>
<text xml:space="preserve" x="49.0263" y="199.727" fill="black" font-size="7.16345" font-family="Helvetica">2</text>
<text xml:space="preserve" x="38.0783" y="204.165" fill="black" font-size="10.4952" font-family="Helvetica">10</text>
<path d="M63.9961,189.065h -6.80315" fill="none" stroke="black"/>
<path d="M63.9961,182.901h -6.80315" fill="none" stroke="black"/>
<path d="M63.9961,178.528h -6.80315" fill="none" stroke="black"/>
<path d="M63.9961,175.135h -6.80315" fill="none" stroke="black"/>
<path d="M63.9961,172.363h -6.80315" fill="none" stroke="black"/>
<path d="M63.9961,170.02h -6.80315" fill="none" stroke="black"/>
<path d="M63.9961,167.99h -6.80315" fill="none" stroke="black"/>
<path d="M63.9961,166.199h -6.80315" fill="none" stroke="black"/>
<path d="M70.7992,164.598h -13.6063" fill="none" stroke="black"/>
<text xml:space="preserve" x="49.0263" y="164.516" fill="black" font-size="7.16345" font-family="Helvetica">3</text>
<text xml:space="preserve" x="38.0783" y="169.25" fill="black" font-size="10.4952" font-family="Helvetica">10</text>
<path d="M63.9961,154.06h -6.80315" fill="none" stroke="black"/>
<path d="M63.9961,147.896h -6.80315" fill="none" stroke="black"/>
<path d="M63.9961,143.522h -6.80315" fill="none" stroke="black"/>
<path d="M63.9961,140.13h -6.80315" fill="none" stroke="black"/>
<path d="M63.9961,137.358h -6.80315" fill="none" stroke="black"/>
<path d="M63.9961,135.015h -6.80315" fill="none" stroke="black"/>
<path d="M63.9961,132.985h -6.80315" fill="none" stroke="black"/>
<path d="M63.9961,131.194h -6.80315" fill="none" stroke="black"/>
<path d="M70.7992,129.593h -13.6063" fill="none" stroke="black"/>
<text xml:space="preserve" x="49.0263" y="129.601" fill="black" font-size="7.16345" font-family="Helvetica">4</text>
<text xml:space="preserve" x="38.0783" y="134.039" fill="black" font-size="10.4952" font-family="Helvetica">10</text>
<path d="M63.9961,119.055h -6.80315" fill="none" stroke="black"/>
<path d="M63.9961,112.891h -6.80315" fill="none" stroke="black"/>
<path d="M63.9961,108.517h -6.80315" fill="none" stroke="black"/>
<path d="M63.9961,105.125h -6.80315" fill="none" stroke="black"/>
<path d="M63.9961,102.353h -6.80315" fill="none" stroke="black"/>
<path d="M63.9961,100.01h -6.80315" fill="none" stroke="black"/>
<path d="M63.9961,97.9798h -6.80315" fill="none" stroke="black"/>
<path d="M63.9961,96.1892h -6.80315" fill="none" stroke="black"/>
<path d="M70.7992,94.5874h -13.6063" fill="none" stroke="black"/>
<text xml:space="preserve" x="49.0263" y="94.3896" fill="black" font-size="7.16345" font-family="Helvetica">5</text>
<text xml:space="preserve" x="38.0783" y="99.1238" fill="black" font-size="10.4952" font-family="Helvetica">10</text>
<path d="M63.9961,84.0498h -6.80315" fill="none" stroke="black"/>
<path d="M63.9961,77.8857h -6.80315" fill="none" stroke="black"/>
<path d="M63.9961,73.5123h -6.80315" fill="none" stroke="black"/>
<path d="M63.9961,70.1199h -6.80315" fill="none" stroke="black"/>
<path d="M63.9961,67.3482h -6.80315" fill="none" stroke="black"/>
<path d="M63.9961,65.0047h -6.80315" fill="none" stroke="black"/>
<path d="M63.9961,62.9747h -6.80315" fill="none" stroke="black"/>
<path d="M63.9961,61.1841h -6.80315" fill="none" stroke="black"/>
<path d="M70.7992,59.5823h -13.6063" fill="none" stroke="black"/>
<text xml:space="preserve" x="49.0263" y="59.4743" fill="black" font-size="7.16345" font-family="Helvetica">6</text>
<text xml:space="preserve" x="38.0783" y="64.2086" fill="black" font-size="10.4952" font-family="Helvetica">10</text>
<path d="M63.9961,49.0447h -6.80315" fill="none" stroke="black"/>
<path d="M63.9961,42.8806h -6.80315" fill="none" stroke="black"/>
<path d="M63.9961,38.5071h -6.80315" fill="none" stroke="black"/>
<path d="M63.9961,35.1148h -6.80315" fill="none" stroke="black"/>
<path d="M63.9961,32.3431h -6.80315" fill="none" stroke="black"/>
<g transform="rotate(-90,26.5385,191.442)">
<text xml:space="preserve" x="26.5385" y="191.442" fill="black" font-size="10.4952" font-family="Helvetica">Counts/Channel</text>
</g>
<text xml:space="preserve" x="404.097" y="59.4743" fill="black" font-size="14.7788" font-family="Helvetica" font-weight="bold"> = 2.4879 MeV</text>
<text xml:space="preserve" x="398.179" y="62.7291" fill="black" font-size="10.0192" font-family="Helvetica" font-weight="bold">p</text>
<text xml:space="preserve" x="389.006" y="59.4743" fill="black" font-size="14.7788" font-family="Helvetica" font-weight="bold">E</text>
<path d="M262.163,163.149v 26.3215" fill="none" stroke="black"/>
<path d="M264.454,189.47l -2.29122, 3.9685l -2.29122, -3.9685z" fill="black"/>
<path d="M264.454,189.47l -2.29122, 3.9685l -2.29122, -3.9685h 4.58243z" fill="none" stroke="black"/>
<text xml:space="preserve" x="266.803" y="160.965" fill="black" font-size="10.4952" font-family="Helvetica" font-weight="bold">_1 	1.369 MeV</text>
<text xml:space="preserve" x="260.293" y="160.965" fill="black" font-size="10.4952" font-family="Times">&#0945;</text>
<path d="M184.528,129.593v 31.0366" fill="none" stroke="black"/>
<path d="M186.819,160.629l -2.29122, 3.9685l -2.29122, -3.9685z" fill="black"/>
<path d="M186.819,160.629l -2.29122, 3.9685l -2.29122, -3.9685h 4.58243z" fill="none" stroke="black"/>
<text xml:space="preserve" x="172.117" y="126.642" fill="black" font-size="10.4952" font-family="Helvetica" font-weight="bold"># p_1 	0.844 MeV</text>
<path d="M210.104,147.896v 12.7332" fill="none" stroke="black"/>
<path d="M212.395,160.629l -2.29122, 3.9685l -2.29122, -3.9685z" fill="black"/>
<path d="M212.395,160.629l -2.29122, 3.9685l -2.29122, -3.9685h 4.58243z" fill="none" stroke="black"/>
<text xml:space="preserve" x="197.564" y="143.508" fill="black" font-size="10.4952" font-family="Helvetica" font-weight="bold"># p_2 	1.015 MeV</text>
<path d="M497.539,269.613h 13.127" fill="none" stroke="black"/>
<path d="M504.102,259.075h 6.56352" fill="none" stroke="black"/>
<path d="M504.102,252.911h 6.56352" fill="none" stroke="black"/>
<path d="M504.102,248.538h 6.56352" fill="none" stroke="black"/>
<path d="M504.102,245.145h 6.56352" fill="none" stroke="black"/>
<path d="M504.102,242.374h 6.56352" fill="none" stroke="black"/>
<path d="M504.102,240.03h 6.56352" fill="none" stroke="black"/>
<path d="M504.102,238h 6.56352" fill="none" stroke="black"/>
<path d="M504.102,236.21h 6.56352" fill="none" stroke="black"/>
<path d="M497.539,234.608h 13.127" fill="none" stroke="black"/>
<path d="M504.102,224.07h 6.56352" fill="none" stroke="black"/>
<path d="M504.102,217.906h 6.56352" fill="none" stroke="black"/>
<path d="M504.102,213.533h 6.56352" fill="none" stroke="black"/>
<path d="M504.102,210.14h 6.56352" fill="none" stroke="black"/>
<path d="M504.102,207.369h 6.56352" fill="none" stroke="black"/>
<path d="M504.102,205.025h 6.56352" fill="none" stroke="black"/>
<path d="M504.102,202.995h 6.56352" fill="none" stroke="black"/>
<path d="M504.102,201.204h 6.56352" fill="none" stroke="black"/>
<path d="M497.539,199.603h 13.127" fill="none" stroke="black"/>
<path d="M504.102,189.065h 6.56352" fill="none" stroke="black"/>
<path d="M504.102,182.901h 6.56352" fill="none" stroke="black"/>
<path d="M504.102,178.528h 6.56352" fill="none" stroke="black"/>
<path d="M504.102,175.135h 6.56352" fill="none" stroke="black"/>
<path d="M504.102,172.363h 6.56352" fill="none" stroke="black"/>
<path d="M504.102,170.02h 6.56352" fill="none" stroke="black"/>
<path d="M504.102,167.99h 6.56352" fill="none" stroke="black"/>
<path d="M504.102,166.199h 6.56352" fill="none" stroke="black"/>
<path d="M497.539,164.598h 13.127" fill="none" stroke="black"/>
<path d="M504.102,154.06h 6.56352" fill="none" stroke="black"/>
<path d="M504.102,147.896h 6.56352" fill="none" stroke="black"/>
<path d="M504.102,143.522h 6.56352" fill="none" stroke="black"/>
<path d="M504.102,140.13h 6.56352" fill="none" stroke="black"/>
<path d="M504.102,137.358h 6.56352" fill="none" stroke="black"/>
<path d="M504.102,135.015h 6.56352" fill="none" stroke="black"/>
<path d="M504.102,132.985h 6.56352" fill="none" stroke="black"/>
<path d="M504.102,131.194h 6.56352" fill="none" stroke="black"/>
<path d="M497.539,129.593h 13.127" fill="none" stroke="black"/>
<path d="M504.102,119.055h 6.56352" fill="none" stroke="black"/>
<path d="M504.102,112.891h 6.56352" fill="none" stroke="black"/>
<path d="M504.102,108.517h 6.56352" fill="none" stroke="black"/>
<path d="M504.102,105.125h 6.56352" fill="none" stroke="black"/>
<path d="M504.102,102.353h 6.56352" fill="none" stroke="black"/>
<path d="M504.102,100.01h 6.56352" fill="none" stroke="black"/>
<path d="M504.102,97.9798h 6.56352" fill="none" stroke="black"/>
<path d="M504.102,96.1892h 6.56352" fill="none" stroke="black"/>
<path d="M497.539,94.5874h 13.127" fill="none" stroke="black"/>
<path d="M504.102,84.0498h 6.56352" fill="none" stroke="black"/>
<path d="M504.102,77.8857h 6.56352" fill="none" stroke="black"/>
<path d="M504.102,73.5123h 6.56352" fill="none" stroke="black"/>
<path d="M504.102,70.1199h 6.56352" fill="none" stroke="black"/>
<path d="M504.102,67.3482h 6.56352" fill="none" stroke="black"/>
<path d="M504.102,65.0047h 6.56352" fill="none" stroke="black"/>
<path d="M504.102,62.9747h 6.56352" fill="none" stroke="black"/>
<path d="M504.102,61.1841h 6.56352" fill="none" stroke="black"/>
<path d="M497.539,59.5823h 13.127" fill="none" stroke="black"/>
<path d="M504.102,49.0447h 6.56352" fill="none" stroke="black"/>
<path d="M504.102,42.8806h 6.56352" fill="none" stroke="black"/>
<path d="M504.102,38.5071h 6.56352" fill="none" stroke="black"/>
<path d="M504.102,35.1148h 6.56352" fill="none" stroke="black"/>
<path d="M504.102,32.3431h 6.56352" fill="none" stroke="black"/>
<path d="M504.102,29.9996h 6.56352" fill="none" stroke="black"/>
<path d="M57.1929,36.8311v -7.46952" fill="none" stroke="black"/>
<path d="M75.3318,36.8311v -7.46952" fill="none" stroke="black"/>
<path d="M93.4707,36.8311v -7.46952" fill="none" stroke="black"/>
<path d="M111.61,36.8311v -7.46952" fill="none" stroke="black"/>
<path d="M129.749,36.8311v -7.46952" fill="none" stroke="black"/>
<path d="M147.887,36.8311v -7.46952" fill="none" stroke="black"/>
<path d="M166.026,36.8311v -7.46952" fill="none" stroke="black"/>
<path d="M184.165,36.8311v -7.46952" fill="none" stroke="black"/>
<path d="M202.304,36.8311v -7.46952" fill="none" stroke="black"/>
<path d="M220.443,36.8311v -7.46952" fill="none" stroke="black"/>
<path d="M238.582,36.8311v -7.46952" fill="none" stroke="black"/>
<path d="M256.721,36.8311v -7.46952" fill="none" stroke="black"/>
<path d="M274.86,36.8311v -7.46952" fill="none" stroke="black"/>
<path d="M292.999,36.8311v -7.46952" fill="none" stroke="black"/>
<path d="M311.138,36.8311v -7.46952" fill="none" stroke="black"/>
<path d="M329.277,36.8311v -7.46952" fill="none" stroke="black"/>
<path d="M347.415,36.8311v -7.46952" fill="none" stroke="black"/>
<path d="M365.554,36.8311v -7.46952" fill="none" stroke="black"/>
<path d="M383.693,36.8311v -7.46952" fill="none" stroke="black"/>
<path d="M401.832,36.8311v -7.46952" fill="none" stroke="black"/>
<path d="M419.971,36.8311v -7.46952" fill="none" stroke="black"/>
<path d="M438.11,36.8311v -7.46952" fill="none" stroke="black"/>
<path d="M456.249,36.8311v -7.46952" fill="none" stroke="black"/>
<path d="M474.388,36.8311v -7.46952" fill="none" stroke="black"/>
<path d="M492.527,36.8311v -7.46952" fill="none" stroke="black"/>
<path d="M510.666,36.8311v -7.46952" fill="none" stroke="black"/></svg>
