<?xml version="1.0" standalone="no"?>
<svg width="567.429" height="311.778" viewBox="0 0 567.429 311.778" xmlns="http://www.w3.org/2000/svg" shape-rendering="crispEdges">
<title>
Yields/P1/det-7/run_0099_Fit.svg
</title>
<desc>
Creator: ROOT Version 6.12/06
CreationDate: Mon Apr 15 10:29:01 2019</desc>
<defs>
</defs>
<rect x="0.5" y="0" width="566.929" height="311.278" fill="white"/>
<rect x="57.1929" y="31.1278" width="453.543" height="249.023" fill="white"/>
<rect x="57.1929" y="31.1278" width="453.543" height="249.023" fill="none" stroke="black"/>
<rect x="57.1929" y="31.1278" width="453.543" height="249.023" fill="white"/>
<rect x="57.1929" y="31.1278" width="453.543" height="249.023" fill="none" stroke="black"/>
<path d="M57.1929,40.7222h 0.181345v 239.428h 4.35227v -10.406h 0.36269v 10.406h 10.8807v -10.406h 0.181345v 10.406h 0.181345v -10.406h 0.181345v 10.406h 0.725379v -10.406h 0.181345v 10.406h 0.906724v -10.406h 0.181345v 10.406h 4.53362v -10.406h
 0.181345v 10.406h 0.725379v -10.406h 0.181345v 10.406h 1.26941v -10.406h 0.181345v 10.406h 1.6321v -10.406h 0.181345v 10.406h 0.181345v -10.406h 0.181345v 10.406h 1.81345v -10.406h 0.181345v 10.406h 0.181345v -10.406h 0.181345v 10.406h 0.181345v
 -10.406h 0.181345v 10.406h 0.36269v -10.406h 0.544034v -10.406h 0.544034v -26.8991h 0.181345v -16.0702h 0.181345v -12.4107h 0.181345v -10.3119h 0.181345v -8.11537h 0.181345v -5.73474h 0.181345v -3.1991h 0.181345v -1.36177h 0.181345v -3.20526h
 0.181345v -0.911455h 0.181345v -1.36756h 0.181345v -0.491643h 0.181345v -0.458019h 0.181345v -0.566584h 0.181345v -1.0404h 0.181345v 0.0487162h 0.181345v -0.464429h 0.181345v -0.327563h 0.181345v -0.455886h 0.181345v -0.384204h 0.181345v -1.01533h
 0.181345v 0.697741h 0.181345v -0.560763h 0.181345v -0.553837h 0.181345v 1.04335h 0.181345v -0.225759h 0.181345v -0.373435h 0.181345v 0.123449h 0.181345v -0.856571h 0.181345v 0.39544h 0.181345v -0.330253h 0.181345v -0.026109h 0.181345v -0.500255h
 0.181345v 0.0378949h 0.181345v 0.632887h 0.181345v -0.982907h 0.181345v -0.281534h 0.181345v 0.733078h 0.181345v -0.0635324h 0.181345v 0.0253807h 0.181345v -0.0633715h 0.181345v 0.178119h 0.181345v -0.428963h 0.181345v -0.728325h 0.181345v 0.715892h
 0.181345v -0.739571h 0.181345v 2.29648h 0.181345v -1.70531h 0.181345v 0.783009h 0.181345v -0.0259063h 0.181345v 0.824642h 0.181345v -0.270995h 0.181345v -0.631099h 0.181345v 0.943168h 0.181345v -0.994581h 0.181345v 0.588808h 0.181345v -0.498719h
 0.181345v -1.14296h 0.181345v -1.64144h 0.181345v -1.18515h 0.181345v -2.16483h 0.181345v -3.13223h 0.181345v -2.31819h 0.181345v -3.09969h 0.181345v -3.80038h 0.181345v -2.90948h 0.181345v -2.54657h 0.181345v -2.42608h 0.181345v -1.58709h 0.181345v
 -1.1853h 0.181345v -0.734148h 0.181345v -0.206809h 0.181345v 0.857794h 0.181345v 0.976516h 0.181345v 1.56798h 0.181345v 2.58075h 0.181345v 3.16317h 0.181345v 2.70005h 0.181345v 4.61556h 0.181345v 3.96696h 0.181345v 4.03206h 0.181345v 4.34554h
 0.181345v 3.14096h 0.181345v 3.16114h 0.181345v 1.37863h 0.181345v 2.28129h 0.181345v 1.44929h 0.181345v 0.152932h 0.181345v 0.336796h 0.181345v 0.779706h 0.181345v -0.327563h 0.181345v -0.452143h 0.181345v 0.862726h 0.181345v 1.03379h 0.181345v
 -0.697039h 0.181345v -0.474859h 0.181345v 0.249524h 0.181345v 0.482947h 0.181345v -0.398842h 0.181345v 0.427741h 0.181345v 0.710793h 0.181345v 0.27547h 0.181345v -1.21591h 0.181345v 0.66993h 0.181345v 0.179795h 0.181345v 0.678307h 0.181345v
 0.351003h 0.181345v -2.16124h 0.181345v 0.511846h 0.181345v 0.741152h 0.181345v 0.908239h 0.181345v -0.476633h 0.181345v 0.0941237h 0.181345v -0.464826h 0.181345v 1.373h 0.181345v -1.21965h 0.181345v 1.32029h 0.181345v -0.134043h 0.181345v 0.235366h
 0.181345v -0.0338505h 0.181345v 1.75557h 0.181345v -1.51699h 0.181345v -0.704635h 0.181345v 3.28457h 0.181345v -1.36396h 0.181345v -0.476633h 0.181345v 0.145051h 0.181345v 0.0730546h 0.181345v 0.789334h 0.181345v -0.0385435h 0.181345v -0.823845h
 0.181345v 1.6548h 0.181345v -1.21104h 0.181345v 1.04918h 0.181345v 1.04152h 0.181345v -2.49797h 0.181345v 1.09852h 0.181345v 0.237673h 0.181345v -0.587273h 0.181345v 2.05411h 0.181345v -0.897184h 0.181345v 0.083173h 0.181345v -0.451852h 0.181345v
 1.09079h 0.181345v -0.428963h 0.181345v -1.41163h 0.181345v 0.709393h 0.181345v 0.702234h 0.181345v 0.516246h 0.181345v -0.642581h 0.181345v -1.05253h 0.181345v 0.236425h 0.181345v 1.81299h 0.181345v -1.81299h 0.181345v 0.0796431h 0.181345v 1.82324h
 0.181345v 0.135862h 0.181345v -0.840399h 0.181345v -0.714025h 0.181345v 2.11051h 0.181345v 0.626624h 0.181345v -1.76277h 0.181345v -0.684458h 0.181345v 1.8206h 0.181345v 0.824814h 0.181345v -0.345134h 0.181345v -1.21665h 0.181345v 2.12069h 0.181345v
 -2.60716h 0.181345v 0.758603h 0.181345v 0.184207h 0.181345v 1.50984h 0.181345v -1.22922h 0.181345v -0.418986h 0.181345v 0.65691h 0.181345v 0.339558h 0.181345v -1.84436h 0.181345v -0.0865287h 0.181345v -0.043078h 0.181345v -1.66753h 0.181345v
 0.790324h 0.181345v -1.2079h 0.181345v -0.623327h 0.181345v -0.973385h 0.181345v -0.431333h 0.181345v -0.0652727h 0.181345v 0.0326009h 0.181345v -0.638934h 0.181345v -0.155573h 0.181345v 1.09115h 0.181345v -1.24512h 0.181345v 2.06607h 0.181345v
 0.464163h 0.181345v -0.216014h 0.181345v 0.732472h 0.181345v 1.74949h 0.181345v 0.602309h 0.181345v 1.37828h 0.181345v -0.143663h 0.181345v 1.03577h 0.181345v 0.519522h 0.181345v -1.36343h 0.181345v 1.25808h 0.36269v -0.465146h 0.181345v 1.44104h
 0.181345v -0.657595h 0.181345v 0.883354h 0.181345v -0.990206h 0.181345v -1.12776h 0.181345v 2.00467h 0.181345v -0.444853h 0.181345v 0.787363h 0.181345v -0.622084h 0.181345v 0.738012h 0.181345v -1.01247h 0.181345v 0.610582h 0.181345v -1.24952h
 0.181345v 0.530539h 0.181345v 0.108395h 0.181345v 0.497704h 0.181345v -0.443211h 0.181345v 0.556089h 0.181345v 0.874773h 0.181345v -0.17908h 0.181345v 0.0594563h 0.181345v -1.52803h 0.181345v 1.17478h 0.181345v 0.776177h 0.181345v -1.45869h
 0.181345v 1.03577h 0.181345v -0.353256h 0.181345v -1.7553h 0.181345v 0.961996h 0.181345v 0.110795h 0.181345v -1.53162h 0.181345v 2.15605h 0.181345v -2.10576h 0.181345v 0.356855h 0.181345v -1.28476h 0.181345v 0.57934h 0.181345v -1.45322h 0.181345v
 0.968897h 0.181345v 0.0956225h 0.181345v 1.35432h 0.181345v -1.01476h 0.181345v -1.22428h 0.181345v 0.741518h 0.36269v 0.482765h 0.181345v 0.703064h 0.181345v -0.653922h 0.181345v 1.66401h 0.181345v -0.43361h 0.181345v -0.421436h 0.181345v 1.41529h
 0.181345v 0.522738h 0.181345v -0.176276h 0.181345v 0.656723h 0.181345v -1.11692h 0.181345v 2.25767h 0.181345v -1.68019h 0.181345v 1.16246h 0.181345v -0.865168h 0.181345v 0.242145h 0.181345v -0.539436h 0.181345v 0.661989h 0.181345v 0.692532h
 0.181345v 1.20703h 0.181345v -0.94706h 0.181345v -0.578719h 0.181345v 0.12669h 0.181345v -0.984792h 0.181345v 1.37141h 0.181345v -1.66636h 0.181345v 1.53638h 0.181345v 0.797321h 0.181345v -1.24359h 0.36269v 1.24359h 0.181345v -2.73714h 0.181345v
 1.87524h 0.181345v 1.56028h 0.181345v -3.32136h 0.181345v 2.08675h 0.181345v -2.59379h 0.181345v 0.0554998h 0.181345v 1.83092h 0.181345v 1.10773h 0.181345v -1.96234h 0.181345v 1.49628h 0.181345v -1.96364h 0.181345v 0.408137h 0.181345v 1.16722h
 0.181345v -0.0637482h 0.181345v -0.683926h 0.181345v -0.712198h 0.181345v 1.01922h 0.181345v -0.96114h 0.181345v 1.72466h 0.181345v -1.89822h 0.181345v 0.349148h 0.181345v -0.577482h 0.181345v 1.61325h 0.181345v -0.858101h 0.181345v -0.411332h
 0.181345v 0.174907h 0.181345v 0.968897h 0.181345v 0.188841h 0.181345v -1.27457h 0.181345v -0.514771h 0.181345v 0.398842h 0.181345v 1.13923h 0.181345v -2.51751h 0.181345v 4.37165h 0.181345v -3.50425h 0.181345v -0.111206h 0.181345v 3.47515h 0.181345v
 -3.08227h 0.181345v 0.878185h 0.181345v -1.21556h 0.181345v 0.682512h 0.181345v 1.14841h 0.181345v -1.66318h 0.181345v 1.04782h 0.181345v 0.243126h 0.181345v -0.600588h 0.181345v 0.600588h 0.181345v -1.00715h 0.181345v -0.943807h 0.181345v 1.58772h
 0.181345v -1.58772h 0.181345v 1.05885h 0.181345v -0.229206h 0.181345v -0.392878h 0.36269v 1.15096h 0.181345v 1.37713h 0.181345v -1.79008h 0.181345v -0.570893h 0.181345v 0.983842h 0.181345v 2.67744h 0.181345v 0.0716597h 0.181345v -2.92747h 0.181345v
 1.29553h 0.181345v -1.05723h 0.181345v 1.05723h 0.181345v 1.70395h 0.181345v -0.566584h 0.181345v 0.280619h 0.181345v -1.15801h 0.181345v 2.33608h 0.181345v -1.59706h 0.181345v 0.348338h 0.181345v -1.28276h 0.181345v 1.28276h 0.181345v -0.348338h
 0.181345v -0.0687081h 0.181345v 0.207075h 0.181345v 0.209971h 0.181345v 2.0349h 0.181345v -4.73676h 0.181345v 2.9148h 0.181345v -0.492263h 0.181345v 1.22473h 0.181345v 0.303297h 0.181345v -0.378173h 0.181345v 0.301773h 0.181345v 1.02489h 0.181345v
 -1.25178h 0.181345v -0.223518h 0.181345v 2.05758h 0.181345v -2.77949h 0.181345v 1.87434h 0.181345v 1.5995h 0.181345v -1.358h 0.181345v 1.53673h 0.181345v -0.873077h 0.181345v 2.58524h 0.181345v -1.97945h 0.181345v 0.448173h 0.181345v -1.87904h
 0.181345v 0.572761h 0.36269v -0.890501h 0.181345v 1.31342h 0.181345v 1.62948h 0.181345v -0.927004h 0.181345v 1.81326h 0.181345v -1.54111h 0.181345v -1.9703h 0.181345v 0.825081h 0.181345v 1.99255h 0.181345v 0.592683h 0.181345v -1.80179h 0.36269v
 -0.612848h 0.181345v 1.91912h 0.181345v -0.573803h 0.181345v 0.869144h 0.181345v -0.489056h 0.181345v 3.20632h 0.181345v -7.45285h 0.181345v 3.96057h 0.181345v 0.479679h 0.181345v -0.384962h 0.181345v 1.28901h 0.181345v 0.208513h 0.181345v -1.96524h
 0.181345v -0.45359h 0.181345v 1.70137h 0.181345v -2.82031h 0.181345v 5.79959h 0.181345v -3.75934h 0.181345v -1.6197h 0.181345v 0.609294h 0.181345v 1.99198h 0.181345v 0.7274h 0.181345v -3.07057h 0.181345v 1.3616h 0.181345v 0.482765h 0.181345v
 1.54907h 0.181345v -1.64688h 0.181345v -1.74656h 0.181345v 1.3616h 0.181345v 1.70897h 0.181345v -3.49831h 0.181345v 1.88466h 0.181345v -2.0524h 0.181345v 2.73714h 0.181345v -0.874773h 0.181345v -0.373005h 0.181345v -0.363962h 0.181345v 1.61174h
 0.181345v -2.39976h 0.181345v 3.54315h 0.181345v -1.24314h 0.181345v -0.295341h 0.181345v -1.83309h 0.181345v 0.437719h 0.181345v 1.20166h 0.181345v -0.191247h 0.181345v 0.095319h 0.181345v 0.886252h 0.181345v -0.201516h 0.181345v -0.684736h
 0.181345v 0.886252h 0.181345v -0.981571h 0.181345v 2.58587h 0.181345v -2.29808h 0.181345v 0.0971698h 0.181345v 0.196247h 0.181345v 3.30068h 0.181345v -3.78657h 0.181345v 0.289643h 0.181345v -0.384962h 0.36269v 1.28901h 0.181345v -1.93982h 0.181345v
 0.461965h 0.181345v 0.188841h 0.181345v -3.00397h 0.181345v 3.58518h 0.181345v 0.198846h 0.181345v 0.508953h 0.181345v -1.09776h 0.181345v -1.98059h 0.181345v -1.21463h 0.181345v -0.684241h 0.181345v 1.40116h 0.181345v 2.86825h 0.181345v -3.50719h
 0.181345v 2.00467h 0.181345v -4.31888h 0.181345v 1.04056h 0.181345v 1.19567h 0.181345v -0.609736h 0.181345v -1.55932h 0.181345v 0.54847h 0.181345v 2.17521h 0.181345v -2.10522h 0.181345v -1.84599h 0.181345v -0.844309h 0.181345v 1.34898h 0.181345v
 0.324261h 0.181345v 1.44398h 0.181345v -2.82111h 0.181345v 0.672779h 0.181345v 0.25232h 0.181345v 0.127768h 0.181345v 0.65568h 0.181345v 0.615641h 0.181345v -2.50256h 0.181345v 1.10347h 0.181345v -0.804997h 0.181345v 1.52157h 0.181345v -2.17055h
 0.181345v 2.0377h 0.181345v 0.199728h 0.181345v 0.755947h 0.181345v -2.87744h 0.181345v 0.353256h 0.181345v 0.795155h 0.181345v -0.0626835h 0.181345v 0.508953h 0.181345v -0.320112h 0.181345v -1.95708h 0.181345v 1.64365h 0.181345v -2.50793h 0.181345v
 0.48002h 0.181345v -2.89885h 0.181345v 0.68563h 0.181345v -3.15226h 0.181345v -2.01887h 0.181345v -1.42182h 0.181345v -1.10394h 0.181345v -1.21027h 0.181345v -1.6153h 0.181345v -1.00945h 0.181345v -1.77788h 0.181345v 0.350962h 0.181345v -2.23226h
 0.181345v 0.188196h 0.181345v -0.739029h 0.181345v -1.04451h 0.181345v -0.976539h 0.181345v 0.230969h 0.181345v -0.359344h 0.181345v 0.697714h 0.181345v 0.841481h 0.181345v 0.54481h 0.181345v 0.548394h 0.181345v 0.551619h 0.181345v 1.8078h 0.181345v
 1.04567h 0.181345v 2.0685h 0.181345v 1.43086h 0.181345v -0.159995h 0.181345v 2.19533h 0.181345v 2.14125h 0.181345v 2.29063h 0.181345v 0.8484h 0.181345v 3.09039h 0.181345v 0.883354h 0.181345v 2.87424h 0.181345v 0.069024h 0.181345v 0.492263h 0.181345v
 2.31422h 0.181345v -1.50649h 0.181345v 2.54226h 0.181345v 1.40408h 0.181345v 1.22621h 0.181345v -2.26852h 0.181345v 2.37537h 0.181345v -0.422921h 0.181345v -1.00794h 0.181345v 1.53848h 0.181345v 1.47413h 0.181345v -1.25655h 0.181345v 0.220779h
 0.181345v -1.48132h 0.181345v 2.16384h 0.181345v -0.115929h 0.181345v 0.350507h 0.181345v -1.13787h 0.181345v -0.217579h 0.181345v 1.71433h 0.181345v 1.1312h 0.181345v -2.73714h 0.181345v 0.66734h 0.181345v 1.18271h 0.181345v -1.29602h 0.181345v
 0.113304h 0.181345v 2.60127h 0.181345v -1.78326h 0.181345v -0.47288h 0.181345v 0.47288h 0.181345v -1.48535h 0.181345v 1.60594h 0.181345v -1.38677h 0.181345v 0.677379h 0.181345v 0.709393h 0.181345v 0.244114h 0.181345v -0.953507h 0.181345v 1.45398h
 0.181345v -0.500469h 0.181345v 0.123562h 0.181345v -0.96114h 0.181345v 2.25614h 0.181345v -0.531478h 0.181345v -1.37141h 0.181345v 2.31422h 0.181345v -2.07401h 0.181345v 2.21366h 0.181345v -2.57255h 0.181345v -0.117747h 0.181345v 1.09453h 0.181345v
 1.04478h 0.181345v -1.54111h 0.181345v 1.40647h 0.181345v -1.40647h 0.181345v 2.81055h 0.181345v -3.291h 0.181345v 1.6212h 0.181345v 0.265718h 0.181345v 2.15864h 0.181345v -2.42436h 0.181345v -0.51773h 0.181345v 0.51773h 0.181345v 0.811694h
 0.181345v -1.32942h 0.181345v -1.56902h 0.181345v 2.89844h 0.181345v 1.30627h 0.181345v 1.5986h 0.181345v -1.13664h 0.181345v -1.0566h 0.181345v 1.85961h 0.181345v -2.00467h 0.181345v 0.588808h 0.181345v -2.48482h 0.181345v 4.2343h 0.181345v
 -1.5986h 0.181345v 0.461965h 0.181345v -2.44766h 0.181345v -0.650001h 0.36269v 2.33544h 0.181345v 3.87945h 0.181345v -4.60485h 0.181345v -0.960042h 0.181345v 1.68543h 0.181345v -1.00601h 0.181345v 0.566584h 0.181345v -0.704951h 0.181345v 2.22267h
 0.181345v -1.22621h 0.181345v -5.78983h 0.181345v 6.08712h 0.181345v -0.443757h 0.181345v -0.711635h 0.181345v 1.76824h 0.181345v -3.72069h 0.181345v 1.54111h 0.181345v -1.78326h 0.181345v -2.63672h 0.181345v 0.202877h 0.181345v -1.91504h 0.181345v
 0.180878h 0.181345v -1.30627h 0.181345v -0.411332h 0.181345v -2.11583h 0.181345v -2.34439h 0.181345v 0.181974h 0.181345v -2.26182h 0.181345v -1.54496h 0.181345v -2.7608h 0.181345v -0.693016h 0.181345v -1.80582h 0.181345v -1.93779h 0.181345v
 0.206668h 0.181345v -3.15249h 0.181345v -1.40236h 0.181345v -0.51773h 0.181345v -0.25232h 0.181345v -1.20166h 0.181345v -0.787363h 0.181345v 0.444853h 0.181345v -1.29687h 0.181345v 0.0865287h 0.181345v 0.838716h 0.181345v -0.769133h 0.181345v
 0.478321h 0.181345v 1.61378h 0.181345v -0.119783h 0.181345v 0.403049h 0.181345v 0.58309h 0.181345v 2.51372h 0.181345v 0.719924h 0.181345v 2.42436h 0.181345v 0.761907h 0.181345v 0.699941h 0.181345v 1.24437h 0.181345v 2.14833h 0.181345v 2.76282h
 0.181345v 3.0069h 0.181345v 1.94198h 0.181345v 2.14833h 0.36269v 4.15481h 0.181345v 1.85005h 0.181345v -0.122553h 0.181345v 1.27302h 0.181345v 4.45233h 0.181345v 2.95315h 0.181345v -1.05027h 0.181345v -2.4297h 0.181345v 1.25929h 0.181345v 6.18124h
 0.181345v -3.06402h 0.181345v 1.45398h 0.181345v 0.256633h 0.181345v 0.526815h 0.181345v 2.00467h 0.181345v -1.73416h 0.181345v 0.842054h 0.181345v -3.11722h 0.181345v 4.00933h 0.181345v -3.04043h 0.181345v 5.00139h 0.181345v -2.85307h 0.181345v
 -3.57919h 0.181345v 0.229206h 0.181345v 0.709393h 0.181345v 1.00122h 0.181345v 4.8457h 0.181345v -4.8457h 0.181345v 6.34822h 0.181345v -2.20091h 0.181345v -1.30627h 0.181345v 0.968897h 0.36269v -4.56703h 0.181345v 2.11051h 0.181345v 0.577482h
 0.181345v 3.64728h 0.181345v -7.28878h 0.181345v 2.23742h 0.181345v 4.31888h 0.181345v -2.31422h 0.181345v -1.45869h 0.181345v -1.32942h 0.181345v 2.78811h 0.181345v -3.5327h 0.181345v 3.2294h 0.181345v 0.303297h 0.181345v -2.53148h 0.181345v
 3.47997h 0.181345v -3.47997h 0.36269v 2.22818h 0.181345v -1.43086h 0.181345v -1.79854h 0.181345v 1.00122h 0.181345v 2.84103h 0.181345v -3.34998h 0.181345v -0.248149h 0.181345v -0.244114h 0.181345v -0.709393h 0.36269v 3.06402h 0.181345v -0.826595h
 0.181345v -0.526815h 0.181345v 2.22818h 0.181345v -1.96709h 0.181345v -1.26231h 0.181345v -0.709393h 0.181345v 4.86771h 0.181345v -4.15832h 0.181345v -0.938599h 0.181345v 5.09691h 0.181345v -4.63495h 0.181345v 2.27517h 0.181345v -2.03875h 0.181345v
 1.24142h 0.181345v -0.508953h 0.181345v 1.86236h 0.181345v -0.556089h 0.181345v 1.73416h 0.181345v -3.77291h 0.181345v 0.240208h 0.181345v -0.240208h 0.181345v 3.17232h 0.181345v -1.93089h 0.181345v -0.508953h 0.181345v 5.00139h 0.181345v -5.00139h
 0.181345v 4.31888h 0.181345v 1.03577h 0.181345v -5.35465h 0.181345v 3.04043h 0.36269v -1.73416h 0.181345v 2.04371h 0.181345v -2.04371h 0.36269v -0.536224h 0.181345v 0.536224h 0.36269v 0.842054h 0.181345v 1.20166h 0.181345v -3.34998h 0.181345v
 5.71642h 0.181345v -5.71642h 0.181345v 3.34998h 0.181345v -1.48762h 0.181345v 5.39517h 0.181345v -3.59148h 0.181345v -3.66605h 0.181345v 3.98892h 0.181345v -1.54907h 0.181345v -0.577482h 0.181345v 0.285965h 0.181345v -1.37828h 0.181345v 0.536224h
 0.181345v -0.270506h 0.181345v 4.31888h 0.181345v -5.6028h 0.181345v -0.244114h 0.181345v -0.476633h 0.181345v 4.00933h 0.181345v -3.04043h 0.181345v 3.98892h 0.181345v -1.54907h 0.181345v -0.577482h 0.181345v -1.35341h 0.181345v -1.00122h 0.181345v
 4.81114h 0.181345v -0.968897h 0.181345v -2.84103h 0.181345v -0.508953h 0.181345v 2.73714h 0.181345v 4.93173h 0.181345v -8.87052h 0.181345v 3.93879h 0.181345v 3.73007h 0.181345v -4.31888h 0.181345v 2.50793h 0.181345v -0.990206h 0.181345v -2.896h
 0.181345v 3.88621h 0.181345v 0.69839h 0.181345v -1.6886h 0.181345v 0.322866h 0.181345v -0.638934h 0.181345v 2.36643h 0.181345v -2.05037h 0.181345v -1.80369h 0.181345v 3.13903h 0.181345v 2.66747h 0.181345v 2.24487h 0.181345v -7.76541h 0.181345v
 2.17055h 0.181345v -2.17055h 0.181345v 3.93879h 0.181345v -3.64728h 0.181345v 2.56155h 0.181345v -2.56155h 0.181345v 2.21641h 0.181345v -2.21641h 0.181345v 6.99726h 0.181345v -6.08712h 0.181345v -3.34998h 0.181345v 5.00139h 0.181345v -1.01247h
 0.181345v 3.67995h 0.181345v -3.34998h 0.181345v 0.682512h 0.181345v 1.08573h 0.181345v -4.50538h 0.181345v 4.13467h 0.181345v 7.42672h 0.181345v -8.82426h 0.181345v 5.59486h 0.181345v 0.492263h 0.181345v -0.492263h 0.181345v -0.938599h 0.181345v
 0.461965h 0.36269v -0.461965h 0.181345v 2.46663h 0.181345v 2.95315h 0.181345v -8.3078h 0.181345v 2.43985h 0.36269v 4.61617h 0.181345v 4.93173h 0.181345v -2.31422h 0.181345v -4.8457h 0.181345v 1.63937h 0.181345v -8.56541h 0.181345v 6.41708h 0.181345v
 -0.492263h 0.181345v 3.2294h 0.181345v -4.168h 0.181345v 1.93982h 0.181345v 4.14731h 0.181345v -4.65626h 0.181345v 2.73714h 0.181345v 0.612848h 0.181345v -0.612848h 0.181345v -0.588808h 0.181345v 3.20632h 0.181345v -2.61751h 0.181345v 7.66887h
 0.181345v 2.14833h 0.181345v -9.20435h 0.181345v 2.73714h 0.181345v -4.50538h 0.181345v 10.9726h 0.181345v -7.19968h 0.181345v -1.36573h 0.181345v 0.66734h 0.181345v 1.43086h 0.181345v -3.93879h 0.181345v 3.20632h 0.181345v 6.08712h 0.181345v
 -9.29344h 0.181345v 7.28878h 0.181345v -2.57993h 0.181345v 5.69716h 0.181345v -5.69716h 0.181345v -2.20091h 0.181345v 0.69839h 0.181345v 7.19968h 0.181345v 3.93879h 0.181345v -8.82426h 0.181345v 2.73714h 0.181345v -4.31888h 0.181345v 0.77005h
 0.181345v 1.6698h 0.181345v -3.17232h 0.181345v 7.19968h 0.181345v -9.81719h 0.181345v 7.66887h 0.181345v -3.54883h 0.181345v 5.69716h 0.181345v 2.50793h 0.181345v -3.62049h 0.181345v -1.03577h 0.181345v 11.4418h 0.181345v -14.1789h 0.181345v
 2.73714h 0.181345v 1.03577h 0.181345v 2.31422h 0.181345v -1.20166h 0.181345v 3.93879h 0.181345v -2.73714h 0.181345v -5.22902h 0.36269v -0.858101h 0.181345v 2.73714h 0.181345v -5.74974h 0.36269v 0.69839h 0.181345v -4.8457h 0.181345v 5.57817h
 0.181345v 5.35465h 0.181345v -9.29344h 0.181345v 3.93879h 0.181345v -3.93879h 0.181345v 6.37864h 0.181345v -10.8412h 0.181345v 7.66887h 0.181345v -4.31888h 0.181345v -0.526815h 0.181345v 2.84103h 0.181345v -6.89882h 0.181345v 2.57993h 0.181345v
 1.47785h 0.181345v 1.07279h 0.36269v -1.58174h 0.181345v 6.08712h 0.181345v -5.57817h 0.181345v 2.22818h 0.181345v -5.05135h 0.181345v 3.34998h 0.181345v -4.18424h 0.181345v 6.49845h 0.181345v -2.31422h 0.181345v -3.77291h 0.181345v 1.76824h
 0.181345v 4.95782h 0.36269v -3.47997h 0.181345v -4.05778h 0.181345v 7.53775h 0.181345v 1.36573h 0.181345v 3.17232h 0.181345v -6.94522h 0.181345v 1.15539h 0.906724v 0.612848h 0.181345v 2.00467h 0.181345v 4.08246h 0.181345v -10.406h 0.181345v 4.31888h
 0.36269v -1.20166h 0.181345v -3.57919h 0.181345v 0.938599h 0.181345v -1.82195h 0.181345v -3.77291h 0.181345v 1.03577h 0.36269v -4.04838h 0.181345v 0.27547h 0.181345v -1.82989h 0.181345v -0.244114h 0.181345v -0.938599h 0.181345v -5.78073h 0.181345v
 -0.754565h 0.181345v -1.80091h 0.181345v 1.08246h 0.181345v 0.283267h 0.181345v -1.23461h 0.181345v -0.894638h 0.181345v -3.12498h 0.181345v -0.689228h 0.181345v -0.285965h 0.181345v -0.915692h 0.181345v -0.694352h 0.181345v -0.905148h 0.181345v
 -0.471642h 0.181345v 1.20811h 0.181345v -1.59013h 0.181345v 1.01423h 0.181345v -0.938599h 0.181345v 0.152414h 0.181345v -1.52803h 0.181345v -0.61008h 0.181345v 1.03102h 0.181345v -0.964449h 0.181345v 1.10743h 0.181345v -1.76026h 0.181345v 0.388281h
 0.181345v 0.877395h 0.181345v -3.23837h 0.181345v 1.84546h 0.181345v 0.127227h 0.181345v -1.108h 0.181345v 0.66734h 0.181345v -1.91912h 0.181345v 0.784423h 0.181345v -1.05493h 0.181345v -1.81582h 0.181345v 2.52954h 0.181345v -1.99764h 0.181345v
 0.965616h 0.181345v 2.5701h 0.181345v -3.58485h 0.181345v -0.0489811h 0.181345v 0.547787h 0.181345v 2.416h 0.181345v -2.61751h 0.181345v 2.61751h 0.181345v -1.36573h 0.181345v 2.0982h 0.181345v -1.20166h 0.181345v 3.20632h 0.181345v 0.657595h
 0.36269v 1.57345h 0.181345v 0.335493h 0.181345v -1.90894h 0.181345v 5.64554h 0.181345v 0.554037h 0.181345v -0.554037h 0.181345v 2.86825h 0.181345v 4.23134h 0.181345v -0.514771h 0.181345v 0.868027h 0.181345v 0.545976h 0.181345v 2.40717h 0.181345v
 -0.428963h 0.181345v 8.61429h 0.181345v 2.43985h 0.181345v -2.43985h 0.181345v 4.31888h 0.181345v -3.93879h 0.181345v 10.796h 0.181345v -4.12003h 0.181345v 4.12003h 0.181345v 0.811694h 0.181345v -0.811694h 0.181345v 8.20509h 0.181345v -3.62049h
 0.36269v 12.7202h 0.181345v -6.08712h 0.36269v 12.1742h 0.181345v -10.406h 0.181345v 2.00467h 0.181345v 8.40134h 0.36269v -6.08712h 0.36269v 6.08712h 0.36269v 10.406h 0.181345v -22.5802h 0.181345v 22.5802h 0.181345v -22.5802h 0.181345v 8.82426h
 0.181345v 13.756h 0.181345v -10.406h 0.181345v -8.40134h 0.181345v 12.7202h 0.36269v -4.31888h 0.181345v -6.08712h 0.181345v 10.406h 0.181345v -7.66887h 0.544034v 7.66887h 0.181345v 26.8991h 0.181345v -26.8991h 0.181345v 6.08712h 0.181345v -13.756h
 0.181345v 3.34998h 0.181345v 10.406h 0.181345v -13.756h 0.36269v 3.34998h 0.181345v -8.40134h 0.181345v 18.8073h 0.181345v -10.406h 0.181345v -6.08712h 0.181345v 16.4931h 0.181345v -18.8073h 0.181345v 5.05135h 0.181345v 3.34998h 0.181345v -3.34998h
 0.36269v 13.756h 0.181345v -6.08712h 0.181345v -4.31888h 0.181345v 10.406h 0.181345v -10.406h 0.181345v 20.812h 0.181345v -24.162h 0.181345v -8.82426h 0.181345v 8.82426h 0.181345v 7.66887h 0.181345v -4.31888h 0.181345v -3.34998h 0.181345v -2.73714h
 0.181345v 2.73714h 0.36269v 7.66887h 0.181345v -7.66887h 0.181345v -2.73714h 0.181345v 10.406h 0.181345v -10.406h 0.181345v -2.31422h 0.181345v 5.05135h 0.181345v -11.8369h 0.181345v 1.43086h 0.181345v -2.73714h 0.181345v 8.09179h 0.181345v
 -13.3208h 0.181345v 11.3161h 0.181345v -1.76824h 0.181345v 22.5802h 0.181345v -13.756h 0.181345v -2.73714h 0.181345v -15.635h 0.181345v 11.3161h 0.181345v -11.3161h 0.181345v 2.9148h 0.181345v -1.03577h 0.181345v -1.87904h 0.181345v 0.910138h
 0.181345v -7.28878h 0.181345v 7.28878h 0.181345v -3.34998h 0.181345v -2.0982h 0.36269v 3.67995h 0.181345v -2.31422h 0.181345v -3.77291h 0.181345v 3.07451h 0.181345v -4.65626h 0.181345v 2.73714h 0.181345v 4.12003h 0.181345v -4.12003h 0.181345v
 0.612848h 0.181345v -3.34998h 0.181345v 6.85717h 0.181345v -4.12003h 0.181345v 0.612848h 0.181345v 4.31888h 0.181345v -3.01261h 0.181345v 2.20091h 0.181345v -1.50252h 0.181345v -0.69839h 0.181345v 7.89807h 0.36269v -4.02736h 0.181345v -1.6698h
 0.181345v 2.57993h 0.181345v -1.76824h 0.181345v 4.88546h 0.181345v -2.14833h 0.181345v -0.968897h 0.181345v 12.4107h 0.181345v 5.05135h 0.181345v -8.82426h 0.181345v 3.77291h 0.181345v 2.31422h 0.181345v -6.08712h 0.181345v -4.31888h 0.181345v
 10.406h 0.36269v 2.73714h 0.181345v -5.05135h 0.181345v 8.40134h 0.181345v 4.31888h 0.181345v -12.7202h 0.181345v 12.7202h 0.181345v -12.7202h 0.181345v 18.8073h 0.181345v -13.756h 0.725379v 7.66887h 0.181345v 16.4931h 0.181345v -16.4931h 0.181345v
 6.08712h 0.181345v -13.756h 0.181345v 24.162h 0.181345v -20.812h 0.181345v -6.08712h 0.181345v 16.4931h 0.181345v -16.4931h 0.181345v 10.406h 0.181345v 26.8991h 0.181345v -34.568h 0.181345v 3.34998h 0.181345v 4.31888h 0.181345v 6.08712h 0.181345v
 -10.406h 0.181345v 10.406h 0.36269v -20.812h 0.181345v 20.812h 0.36269v -16.4931h 0.181345v 10.406h 0.181345v -18.0749h 0.181345v 44.974h 0.181345v -10.406h 0.181345v -29.2133h 0.36269v 5.05135h 0.181345v -5.05135h 0.181345v 5.05135h 0.181345v
 13.756h 0.544034v -18.8073h 0.181345v 5.05135h 0.181345v 7.66887h 0.181345v -10.406h 0.36269v 26.8991h 0.181345v -31.218h 0.181345v 31.218h 0.181345v -16.4931h 0.181345v -12.7202h 0.181345v 5.05135h 0.181345v 7.66887h 0.181345v -4.31888h 0.181345v
 -6.08712h 0.181345v -2.31422h 0.181345v 2.31422h 0.181345v 2.73714h 0.181345v -8.82426h 0.181345v 12.1742h 0.181345v -12.1742h 0.181345v 3.77291h 0.181345v -10.406h 0.181345v 8.40134h 0.181345v -1.76824h 0.181345v -4.31888h 0.181345v 8.09179h
 0.181345v -5.35465h 0.181345v 10.406h 0.181345v -2.73714h 0.181345v -6.08712h 0.181345v 6.08712h 0.181345v -10.406h 0.36269v 4.31888h 0.181345v -1.58174h 0.181345v 1.58174h 0.181345v 22.5802h 0.181345v -18.8073h 0.181345v 5.05135h 0.181345v
 -2.73714h 0.181345v 6.08712h 0.181345v -13.756h 0.181345v 24.162h 0.181345v -20.812h 0.181345v 4.31888h 0.181345v -2.31422h 0.36269v 2.31422h 0.181345v -4.31888h 0.181345v 7.05602h 0.181345v -7.05602h 0.181345v 4.31888h 0.181345v -2.31422h 0.181345v
 -2.00467h 0.181345v 10.406h 0.181345v -6.08712h 0.181345v -2.31422h 0.181345v -2.00467h 0.181345v -1.76824h 0.181345v 8.82426h 0.181345v 7.66887h 0.181345v -10.406h 0.181345v 10.406h 0.181345v -7.66887h 0.181345v 3.34998h 0.181345v -3.34998h
 0.181345v -5.05135h 0.181345v -3.77291h 0.181345v 1.76824h 0.181345v 7.05602h 0.181345v -2.73714h 0.181345v -2.31422h 0.181345v 5.05135h 0.181345v 7.66887h 0.36269v -4.31888h 0.181345v -6.08712h 0.181345v 6.08712h 0.181345v -8.40134h 0.181345v
 -2.00467h 0.36269v 14.7249h 0.181345v -18.0749h 0.181345v 13.756h 0.181345v -3.34998h 0.181345v -5.05135h 0.181345v 5.05135h 0.181345v -7.05602h 0.181345v 4.31888h 0.181345v 2.73714h 0.181345v -2.73714h 0.36269v -9.09973h 0.181345v 4.78085h 0.36269v
 4.31888h 0.181345v -4.31888h 0.181345v 2.00467h 0.181345v 2.31422h 0.181345v -6.08712h 0.181345v -1.58174h 0.181345v 10.406h 0.181345v -7.05602h 0.36269v -3.34998h 0.181345v -1.43086h 0.181345v 4.78085h 0.181345v -8.40134h 0.181345v 5.05135h
 0.181345v 7.66887h 0.181345v -6.08712h 0.181345v 1.76824h 0.181345v -6.08712h 0.36269v 6.08712h 0.181345v 14.7249h 0.181345v -10.406h 0.181345v -9.09973h 0.181345v 3.01261h 0.181345v 3.77291h 0.181345v -5.35465h 0.181345v 13.756h 0.181345v -18.8073h
 0.181345v 10.406h 0.181345v -3.77291h 0.181345v -4.31888h 0.181345v 8.09179h 0.181345v -11.4418h 0.181345v 1.03577h 0.181345v 1.11256h 0.181345v -1.11256h 0.181345v 1.11256h 0.181345v -2.14833h 0.181345v -0.968897h 0.181345v 2.00467h 0.181345v
 1.11256h 0.544034v 3.93879h 0.181345v -3.93879h 0.181345v 1.20166h 0.181345v 4.31888h 0.36269v -11.9877h 0.181345v 6.46721h 0.36269v 3.93879h 0.181345v 1.58174h 0.181345v -7.66887h 0.181345v 4.65626h 0.181345v 3.01261h 0.181345v -5.52054h 0.181345v
 5.52054h 0.181345v -5.52054h 0.181345v 3.93879h 0.181345v -9.63595h 0.181345v 2.57993h 0.181345v 2.00467h 0.181345v 15.4574h 0.181345v -11.8369h 0.181345v -4.65626h 0.36269v -0.968897h 0.181345v 7.05602h 0.36269v -5.05135h 0.181345v 3.62049h
 0.181345v -8.20509h 0.181345v 4.5846h 0.181345v -4.5846h 0.181345v 6.89882h 0.181345v -4.31888h 0.181345v 0.968897h 0.181345v -3.54883h 0.181345v 5.69716h 0.181345v 2.50793h 0.181345v -13.4805h 0.181345v 6.08712h 0.181345v 6.08712h 0.181345v
 4.31888h 0.181345v -5.52054h 0.181345v -5.69716h 0.181345v -0.77005h 0.181345v 10.406h 0.181345v -5.05135h 0.181345v -6.78551h 0.181345v 2.20091h 0.181345v 4.5846h 0.181345v -1.03577h 0.181345v -0.968897h 0.181345v 0.968897h 0.181345v -3.54883h
 0.181345v -2.20091h 0.181345v 7.89807h 0.181345v -7.19968h 0.181345v -0.69839h 0.181345v 3.01261h 0.181345v -0.811694h 0.181345v 2.57993h 0.181345v 0.968897h 0.181345v -1.87904h 0.181345v -0.858101h 0.181345v 8.82426h 0.181345v -10.406h 0.181345v
 1.58174h 0.181345v -7.15991h 0.181345v 8.92815h 0.181345v 2.00467h 0.36269v -2.9148h 0.181345v -8.01801h 0.181345v 9.89705h 0.181345v -8.25767h 0.181345v 3.93879h 0.181345v -2.73714h 0.181345v 1.30627h 0.181345v -2.50793h 0.181345v 6.37864h
 0.181345v -6.37864h 0.181345v 2.50793h 0.181345v 1.43086h 0.181345v -0.732472h 0.181345v -5.84691h 0.181345v 5.84691h 0.181345v -4.8457h 0.181345v 2.22818h 0.181345v 1.25178h 0.181345v -2.40717h 0.181345v -1.58174h 0.181345v 5.35465h 0.181345v
 -3.77291h 0.181345v -1.58174h 0.181345v -0.968897h 0.181345v 2.00467h 0.181345v 0.545976h 0.181345v -2.07401h 0.181345v -1.38677h 0.181345v 5.86795h 0.36269v -1.84059h 0.181345v -2.64059h 0.181345v 4.48118h 0.181345v -6.72606h 0.181345v 4.88546h
 0.181345v -1.11256h 0.181345v 1.70137h 0.181345v -1.15539h 0.181345v 1.15539h 0.544034v 1.25178h 0.181345v -0.638934h 0.36269v 2.00467h 0.181345v -5.84691h 0.181345v 5.14852h 0.181345v -1.91912h 0.181345v -1.15539h 0.181345v 4.50538h 0.181345v
 0.77005h 0.181345v 1.6698h 0.181345v -10.8412h 0.181345v 2.82317h 0.181345v 0.526815h 0.181345v 6.6331h 0.181345v -1.58174h 0.181345v 2.43985h 0.181345v -4.53805h 0.181345v 0.66734h 0.181345v -1.30627h 0.181345v 3.50719h 0.181345v 0.811694h
 0.181345v -1.58174h 0.181345v -2.73714h 0.181345v 8.09179h 0.181345v -1.03577h 0.181345v -5.74974h 0.181345v 2.20091h 0.181345v 5.69716h 0.181345v -2.14833h 0.181345v -3.54883h 0.181345v 2.57993h 0.181345v 0.968897h 0.181345v -1.87904h 0.181345v
 4.02736h 0.181345v 1.20166h 0.181345v -1.20166h 0.181345v 1.20166h 0.181345v -8.40134h 0.181345v 11.1385h 0.181345v -5.05135h 0.181345v -1.03577h 0.181345v -5.74974h 0.181345v 4.78085h 0.181345v -0.910138h 0.36269v 1.87904h 0.181345v -3.54883h
 0.181345v -5.8214h 0.181345v 8.40134h 0.181345v -1.76824h 0.181345v 3.77291h 0.181345v -4.5846h 0.181345v -0.77005h 0.181345v -0.732472h 0.181345v -0.69839h 0.181345v 2.20091h 0.181345v 1.6698h 0.181345v 2.9148h 0.181345v 1.11256h 0.181345v 2.50793h
 0.181345v -5.62516h 0.36269v -1.76824h 0.181345v 3.77291h 0.181345v 1.11256h 0.181345v -3.11722h 0.181345v -4.08246h 0.181345v 1.50252h 0.181345v 4.5846h 0.181345v -2.9148h 0.181345v 6.53529h 0.181345v -2.50793h 0.181345v 1.20166h 0.181345v 6.08712h
 0.181345v -8.40134h 0.181345v -5.35465h 0.181345v 5.35465h 0.181345v -3.77291h 0.181345v 4.88546h 0.36269v -4.88546h 0.36269v 4.88546h 0.181345v -1.11256h 0.181345v -2.9148h 0.181345v 5.22902h 0.181345v -6.08712h 0.181345v 10.406h 0.181345v -6.6331h
 0.181345v 2.31422h 0.181345v -3.34998h 0.181345v 3.34998h 0.181345v -5.22902h 0.36269v 1.87904h 0.181345v -6.41708h 0.181345v 6.41708h 0.181345v 1.03577h 0.181345v -1.03577h 0.36269v -4.31888h 0.181345v 1.58174h 0.181345v 0.858101h 0.181345v 2.9148h
 0.181345v -6.78551h 0.181345v -0.66734h 0.181345v 1.36573h 0.36269v -1.36573h 0.181345v 8.56541h 0.181345v 2.50793h 0.36269v -8.97514h 0.181345v 0.77005h 0.181345v 3.54883h 0.181345v 4.65626h 0.181345v -8.97514h 0.181345v 1.58174h 0.181345v
 -4.93173h 0.181345v 2.61751h 0.181345v 5.05135h 0.181345v -2.73714h 0.181345v 2.73714h 0.181345v -8.25767h 0.181345v 6.37864h 0.181345v -3.87071h 0.181345v 5.74974h 0.181345v -7.05602h 0.36269v 3.50719h 0.181345v 6.89882h 0.181345v -5.22902h
 0.181345v 5.22902h 0.181345v 2.73714h 0.181345v -7.96616h 0.181345v -4.53805h 0.181345v 6.41708h 0.181345v -0.968897h 0.181345v -4.08246h 0.36269v 4.08246h 0.181345v -4.78085h 0.36269v 3.01261h 0.181345v 0.858101h 0.36269v 0.910138h 0.181345v
 -6.69997h 0.181345v 0.612848h 0.36269v 6.08712h 0.36269v 4.31888h 0.181345v 1.30627h 0.181345v -8.97514h 0.181345v -2.73714h 0.181345v 5.17698h 0.36269v -3.17232h 0.181345v 2.31422h 0.181345v -4.31888h 0.181345v 5.17698h 0.181345v -5.17698h
 0.181345v 2.00467h 0.181345v 0.732472h 0.181345v -1.43086h 0.181345v 2.20091h 0.36269v 1.6698h 0.181345v 1.87904h 0.181345v -2.73714h 0.181345v -3.67995h 0.181345v 2.86825h 0.181345v 5.69716h 0.181345v -6.46721h 0.181345v -2.73714h 0.181345v
 2.00467h 0.181345v -3.77291h 0.181345v 4.50538h 0.181345v -1.43086h 0.181345v 6.78551h 0.181345v -8.09179h 0.181345v 7.05602h 0.181345v -7.05602h 0.181345v 7.05602h 0.181345v -0.968897h 0.181345v -6.08712h 0.181345v 3.50719h 0.181345v -9.17139h
 0.181345v 9.17139h 0.181345v -1.50252h 0.181345v -1.36573h 0.181345v 1.36573h 0.181345v -1.36573h 0.181345v -1.25178h 0.181345v -2.73714h 0.181345v -0.492263h 0.181345v 9.01923h 0.181345v -7.4912h 0.181345v 4.31888h 0.181345v -2.00467h 0.181345v
 -3.84225h 0.181345v 4.48118h 0.181345v -1.25178h 0.181345v -2.22818h 0.181345v 5.57817h 0.36269v -2.0982h 0.181345v 2.86825h 0.181345v -0.77005h 0.181345v -5.05135h 0.181345v 11.5186h 0.181345v -1.11256h 0.181345v -6.08712h 0.181345v -3.77291h
 0.181345v 7.85536h 0.181345v 2.00467h 0.181345v -4.5846h 0.36269v -4.70884h 0.181345v 5.52054h 0.181345v -3.67995h 0.181345v 0.66734h 0.181345v 6.78551h 0.181345v -6.08712h 0.181345v 3.17232h 0.181345v -7.4912h 0.181345v 10.406h 0.181345v 3.62049h
 0.181345v -7.3934h 0.181345v 0.858101h 0.181345v 9.5479h 0.181345v -3.01261h 0.181345v -1.30627h 0.181345v 1.30627h 0.181345v -7.3934h 0.181345v 2.73714h 0.36269v -0.968897h 0.181345v -1.76824h 0.36269v -0.811694h 0.181345v 4.5846h 0.181345v
 -2.00467h 0.36269v 4.31888h 0.181345v -6.89882h 0.181345v -2.86825h 0.181345v 11.0733h 0.181345v -9.70761h 0.36269v 2.31422h 0.181345v 1.76824h 0.181345v 7.05602h 0.181345v -7.96616h 0.181345v -1.6698h 0.181345v 11.2177h 0.181345v -7.66887h
 0.181345v -7.05602h 0.181345v 13.1431h 0.181345v -3.93879h 0.181345v -5.69716h 0.36269v -0.77005h 0.36269v -3.34998h 0.181345v 7.66887h 0.181345v -3.54883h 0.181345v -0.77005h 0.181345v 0.77005h 0.181345v -0.77005h 0.181345v 6.46721h 0.181345v
 -1.11256h 0.181345v -2.00467h 0.181345v -0.910138h 0.181345v 2.9148h 0.181345v 2.31422h 0.181345v -6.08712h 0.181345v 6.08712h 0.181345v 2.73714h 0.36269v -11.8369h 0.181345v 11.8369h 0.181345v -3.93879h 0.181345v -3.11722h 0.181345v -2.57993h
 0.181345v 0.811694h 0.181345v 7.3934h 0.181345v -2.50793h 0.181345v -3.11722h 0.181345v 4.31888h 0.181345v 4.31888h 0.36269v -6.6331h 0.181345v 5.05135h 0.181345v -3.93879h 0.181345v 11.6077h 0.181345v 2.73714h 0.181345v -11.8369h 0.181345v 4.78085h
 0.181345v 2.00467h 0.181345v -8.09179h 0.181345v 8.09179h 0.181345v -5.35465h 0.181345v 3.34998h 0.181345v -10.406h 0.181345v 8.63776h 0.181345v 16.4931h 0.181345v -16.4931h 0.181345v 12.1742h 0.181345v -10.406h 0.181345v -6.08712h 0.181345v
 1.30627h 0.181345v -2.50793h 0.181345v 7.28878h 0.181345v 10.406h 0.181345v -3.34998h 0.181345v -10.406h 0.181345v -1.43086h 0.181345v 11.8369h 0.181345v -2.73714h 0.181345v -7.66887h 0.181345v 7.66887h 0.181345v 10.406h 0.181345v -14.7249h
 0.181345v -4.78085h 0.181345v 6.78551h 0.181345v -5.35465h 0.181345v 1.58174h 0.36269v 3.77291h 0.181345v 5.05135h 0.181345v -8.82426h 0.181345v 1.76824h 0.181345v -4.78085h 0.181345v 3.01261h 0.181345v 1.76824h 0.181345v -3.34998h 0.181345v
 -7.96616h 0.181345v 9.5479h 0.181345v -1.58174h 0.181345v -3.93879h 0.181345v -4.02736h 0.181345v 26.041h 0.181345v -14.7249h 0.36269v -6.08712h 0.181345v 4.31888h 0.181345v 6.08712h 0.36269v -9.09973h 0.181345v 19.5057h 0.181345v -19.5057h
 0.181345v 19.5057h 0.181345v -14.7249h 0.181345v -1.76824h 0.181345v 6.08712h 0.181345v -10.406h 0.181345v -4.31888h 0.181345v 17.462h 0.181345v -15.4574h 0.181345v 5.05135h 0.181345v -1.43086h 0.181345v 1.43086h 0.181345v -1.43086h 0.181345v
 4.78085h 0.181345v -10.406h 0.181345v 8.63776h 0.36269v 1.76824h 0.181345v -7.28878h 0.181345v -3.11722h 0.181345v 14.7249h 0.181345v -11.6077h 0.181345v 3.93879h 0.181345v 10.406h 0.181345v -7.05602h 0.181345v 4.31888h 0.181345v -2.31422h 0.181345v
 -2.00467h 0.36269v 4.31888h 0.181345v -4.31888h 0.181345v -6.08712h 0.181345v -2.31422h 0.181345v 3.62049h 0.181345v 6.78551h 0.181345v -11.4418h 0.181345v 13.756h 0.181345v -7.66887h 0.181345v -7.05602h 0.181345v 4.31888h 0.181345v 6.08712h
 0.36269v -4.78085h 0.181345v -3.62049h 0.181345v 10.406h 0.36269v -8.09179h 0.181345v 16.4931h 0.181345v -18.8073h 0.181345v 1.11256h 0.181345v 1.20166h 0.181345v 1.30627h 0.181345v 9.09973h 0.181345v -11.6077h 0.181345v 7.28878h 0.181345v -3.34998h
 0.36269v 1.58174h 0.36269v 1.76824h 0.181345v -4.78085h 0.181345v -5.62516h 0.181345v 0.968897h 0.181345v 7.66887h 0.181345v -5.52054h 0.181345v 2.50793h 0.181345v -3.62049h 0.181345v 3.62049h 0.181345v 4.78085h 0.181345v -7.28878h 0.181345v
 -2.14833h 0.181345v 3.34998h 0.181345v 10.406h 0.181345v -13.756h 0.181345v 1.03577h 0.181345v 3.62049h 0.181345v 4.78085h 0.181345v -10.406h 0.181345v 0.968897h 0.181345v 9.43711h 0.181345v -4.78085h 0.36269v -7.3934h 0.181345v 4.88546h 0.181345v
 -9.20435h 0.181345v 13.1431h 0.181345v -3.93879h 0.36269v -7.89807h 0.181345v -0.66734h 0.181345v 3.67995h 0.181345v -3.67995h 0.181345v 4.53805h 0.36269v -3.17232h 0.181345v 2.31422h 0.181345v 1.76824h 0.181345v -4.08246h 0.181345v 3.17232h
 0.181345v -5.78983h 0.181345v 2.61751h 0.181345v -2.00467h 0.181345v 5.17698h 0.181345v -1.6698h 0.181345v 3.54883h 0.181345v -2.73714h 0.181345v -0.811694h 0.181345v -2.20091h 0.181345v 1.43086h 0.181345v -3.93879h 0.181345v 3.20632h 0.181345v
 6.08712h 0.181345v -9.29344h 0.181345v 6.37864h 0.181345v -0.858101h 0.181345v -3.01261h 0.181345v 3.01261h 0.181345v -2.31422h 0.36269v -2.00467h 0.181345v 6.08712h 0.181345v 4.31888h 0.181345v -9.09973h 0.181345v 4.78085h 0.181345v -1.76824h
 0.181345v -3.01261h 0.181345v 3.01261h 0.181345v 3.77291h 0.181345v -4.5846h 0.181345v 3.54883h 0.181345v 1.03577h 0.181345v 5.05135h 0.181345v -7.05602h 0.181345v 3.11722h 0.181345v -7.19968h 0.181345v 8.40134h 0.181345v 6.08712h 0.181345v
 -9.43711h 0.181345v 3.34998h 0.36269v 6.08712h 0.181345v -9.43711h 0.181345v 19.8431h 0.181345v -13.756h 0.181345v -3.93879h 0.181345v 7.28878h 0.36269v -4.78085h 0.181345v 15.1868h 0.181345v -8.40134h 0.181345v 2.31422h 0.36269v 16.4931h 0.181345v
 -18.8073h 0.181345v 2.31422h 0.181345v -4.31888h 0.181345v 7.05602h 0.544034v 13.756h 0.181345v 20.812h 0.181345v -31.218h 0.181345v 4.31888h 0.181345v -7.66887h 0.181345v 13.756h 0.181345v -10.406h 0.36269v 10.406h 0.181345v -6.08712h 0.181345v
 -7.66887h 0.181345v -2.73714h 0.181345v 10.406h 0.181345v 6.08712h 0.181345v 20.812h 0.181345v -31.218h 0.181345v 10.406h 0.36269v 10.406h 0.544034v -16.4931h 0.181345v 6.08712h 0.181345v -10.406h 0.181345v 10.406h 0.181345v 10.406h 0.181345v
 -16.4931h 0.181345v 6.08712h 0.181345v -10.406h 0.36269v 10.406h 0.544034v 20.812h 0.181345v -10.406h 1.08807v -20.812h 0.181345v 20.812h 0.36269v -10.406h 0.544034v 10.406h 0.181345v -10.406h 0.181345v 10.406h 0.181345v -10.406h 0.181345v 10.406h
 0.181345v -16.4931h 0.181345v 16.4931h 0.544034v 10.406h 0.36269v -10.406h 0.36269v 10.406h 0.36269v -10.406h 0.181345v 10.406h 0.544034v -10.406h 0.181345v -10.406h 0.181345v 10.406h 0.181345v -10.406h 0.181345v 20.812h 0.544034v -10.406h 0.36269v
 -10.406h 0.181345v 10.406h 0.181345v -16.4931h 0.181345v 16.4931h 0.181345v 10.406h 0.181345v -10.406h 0.906724v -16.4931h 0.181345v 16.4931h 0.181345v 10.406h 0.181345v -10.406h 0.181345v 10.406h 0.181345v -10.406h 0.544034v -16.4931h 0.181345v
 26.8991h 0.181345v -10.406h 0.36269v -10.406h 0.181345v 10.406h 0.181345v -10.406h 0.181345v -6.08712h 0.181345v 26.8991h 0.36269v -10.406h 0.181345v -10.406h 0.181345v -6.08712h 0.181345v 16.4931h 0.544034v 10.406h 0.181345v -20.812h 0.544034v
 20.812h 0.181345v -20.812h 0.181345v 20.812h 0.36269v -26.8991h 0.181345v 16.4931h 0.181345v -10.406h 0.181345v 20.812h 0.181345v -20.812h 0.181345v -6.08712h 0.181345v 16.4931h 0.181345v 10.406h 0.181345v -10.406h 0.181345v 10.406h 0.36269v
 -10.406h 0.181345v 10.406h 0.181345v -10.406h 0.181345v 10.406h 0.181345v -20.812h 0.181345v 20.812h 0.181345v -10.406h 0.181345v 10.406h 0.36269v -10.406h 0.36269v 10.406h 0.544034v -10.406h 0.36269v 10.406h 0.181345v -10.406h 0.36269v 10.406h
 0.181345v -10.406h 0.181345v 10.406h 0.36269v -20.812h 0.181345v 20.812h 0.181345v -10.406h 0.181345v 10.406h 0.544034v -10.406h 0.181345v -16.4931h 0.181345v 26.8991h 0.181345v -10.406h 0.544034v -16.4931h 0.181345v 26.8991h 0.36269v -10.406h
 0.544034v 10.406h 0.181345v -10.406h 0.181345v 10.406h 0.181345v -20.812h 0.181345v 20.812h 0.725379v -10.406h 0.725379v 10.406h 0.181345v -10.406h 0.36269v 10.406h 0.36269v -31.218h 0.181345v 31.218h 0.181345v -26.8991h 0.181345v 26.8991h 0.36269v
 -10.406h 0.544034v -16.4931h 0.181345v 16.4931h 0.181345v -10.406h 0.36269v 10.406h 0.181345v 10.406h 0.181345v -20.812h 0.36269v 10.406h 0.181345v 10.406h 0.544034v -10.406h 0.181345v 10.406h 0.181345v -10.406h 0.181345v 10.406h 0.181345v -10.406h
 0.181345v 10.406h 0.181345v -20.812h 0.181345v 20.812h 0.36269v -20.812h 0.544034v 20.812h 0.181345v -20.812h 0.181345v 20.812h 0.181345v -10.406h 0.181345v -10.406h 0.181345v 20.812h 0.544034v -20.812h 0.181345v 20.812h 0.181345v -20.812h 0.36269v
 10.406h 0.36269v 10.406h 0.181345v -10.406h 0.181345v 10.406h 0.725379v -26.8991h 0.181345v 26.8991h 0.181345v -10.406h 0.181345v 10.406h 0.544034v -10.406h 0.181345v -10.406h 0.36269v -6.08712h 0.181345v 16.4931h 0.181345v 10.406h 0.36269v -10.406h
 0.544034v 10.406h 0.181345v -20.812h 0.181345v 20.812h 0.181345v -10.406h 0.36269v 10.406h 0.36269v -10.406h 0.181345v 10.406h 0.181345v -10.406h 0.181345v 10.406h 0.544034v -10.406h 0.544034v 10.406h 0.181345v -10.406h 0.36269v 10.406h 0.725379v
 -10.406h 0.181345v 10.406h 0.181345v -26.8991h 0.181345v 26.8991h 0.36269v -10.406h 0.181345v -10.406h 0.181345v 20.812h 0.181345v -10.406h 0.181345v -24.162h 0.181345v 13.756h 0.36269v 10.406h 0.544034v 10.406h 0.181345v -10.406h 0.36269v 10.406h
 0.181345v -20.812h 0.181345v 20.812h 0.36269v -10.406h 0.181345v 10.406h 0.181345v -20.812h 0.181345v 20.812h 0.181345v -20.812h 0.181345v 10.406h 0.36269v -10.406h 0.36269" fill="none" stroke="black"/>
<path d="M57.1929,280.151h 453.543" fill="none" stroke="black"/>
<path d="M57.1929,272.68v 7.47068" fill="none" stroke="black"/>
<path d="M75.3318,276.415v 3.73534" fill="none" stroke="black"/>
<path d="M93.4707,276.415v 3.73534" fill="none" stroke="black"/>
<path d="M111.61,276.415v 3.73534" fill="none" stroke="black"/>
<path d="M129.749,276.415v 3.73534" fill="none" stroke="black"/>
<path d="M147.887,272.68v 7.47068" fill="none" stroke="black"/>
<path d="M166.026,276.415v 3.73534" fill="none" stroke="black"/>
<path d="M184.165,276.415v 3.73534" fill="none" stroke="black"/>
<path d="M202.304,276.415v 3.73534" fill="none" stroke="black"/>
<path d="M220.443,276.415v 3.73534" fill="none" stroke="black"/>
<path d="M238.582,272.68v 7.47068" fill="none" stroke="black"/>
<path d="M256.721,276.415v 3.73534" fill="none" stroke="black"/>
<path d="M274.86,276.415v 3.73534" fill="none" stroke="black"/>
<path d="M292.999,276.415v 3.73534" fill="none" stroke="black"/>
<path d="M311.138,276.415v 3.73534" fill="none" stroke="black"/>
<path d="M329.277,272.68v 7.47068" fill="none" stroke="black"/>
<path d="M347.415,276.415v 3.73534" fill="none" stroke="black"/>
<path d="M365.554,276.415v 3.73534" fill="none" stroke="black"/>
<path d="M383.693,276.415v 3.73534" fill="none" stroke="black"/>
<path d="M401.832,276.415v 3.73534" fill="none" stroke="black"/>
<path d="M419.971,272.68v 7.47068" fill="none" stroke="black"/>
<path d="M438.11,276.415v 3.73534" fill="none" stroke="black"/>
<path d="M456.249,276.415v 3.73534" fill="none" stroke="black"/>
<path d="M474.388,276.415v 3.73534" fill="none" stroke="black"/>
<path d="M492.527,276.415v 3.73534" fill="none" stroke="black"/>
<path d="M510.666,272.68v 7.47068" fill="none" stroke="black"/>
<path d="M510.666,272.68v 7.47068" fill="none" stroke="black"/>
<text xml:space="preserve" x="54.3523" y="290.27" fill="black" font-size="10.4952" font-family="Helvetica">0</text>
<text xml:space="preserve" x="139.569" y="290.27" fill="black" font-size="10.4952" font-family="Helvetica">500</text>
<text xml:space="preserve" x="227.449" y="290.27" fill="black" font-size="10.4952" font-family="Helvetica">1000</text>
<text xml:space="preserve" x="318.288" y="290.27" fill="black" font-size="10.4952" font-family="Helvetica">1500</text>
<text xml:space="preserve" x="408.831" y="290.27" fill="black" font-size="10.4952" font-family="Helvetica">2000</text>
<text xml:space="preserve" x="499.67" y="290.27" fill="black" font-size="10.4952" font-family="Helvetica">2500</text>
<text xml:space="preserve" x="265.323" y="301.218" fill="black" font-size="10.4952" font-family="Helvetica">Channel</text>
<path d="M57.1929,280.151v -249.023" fill="none" stroke="black"/>
<path d="M63.9961,280.151h -6.80315" fill="none" stroke="black"/>
<path d="M63.9961,277.413h -6.80315" fill="none" stroke="black"/>
<path d="M63.9961,275.099h -6.80315" fill="none" stroke="black"/>
<path d="M63.9961,273.095h -6.80315" fill="none" stroke="black"/>
<path d="M63.9961,271.326h -6.80315" fill="none" stroke="black"/>
<path d="M70.7992,269.745h -13.6063" fill="none" stroke="black"/>
<text xml:space="preserve" x="49.0263" y="273.404" fill="black" font-size="10.4952" font-family="Helvetica">1</text>
<path d="M63.9961,259.339h -6.80315" fill="none" stroke="black"/>
<path d="M63.9961,253.251h -6.80315" fill="none" stroke="black"/>
<path d="M63.9961,248.933h -6.80315" fill="none" stroke="black"/>
<path d="M63.9961,245.583h -6.80315" fill="none" stroke="black"/>
<path d="M63.9961,242.845h -6.80315" fill="none" stroke="black"/>
<path d="M63.9961,240.531h -6.80315" fill="none" stroke="black"/>
<path d="M63.9961,238.527h -6.80315" fill="none" stroke="black"/>
<path d="M63.9961,236.758h -6.80315" fill="none" stroke="black"/>
<path d="M70.7992,235.177h -13.6063" fill="none" stroke="black"/>
<text xml:space="preserve" x="41.629" y="238.785" fill="black" font-size="10.4952" font-family="Helvetica">10</text>
<path d="M63.9961,224.771h -6.80315" fill="none" stroke="black"/>
<path d="M63.9961,218.683h -6.80315" fill="none" stroke="black"/>
<path d="M63.9961,214.365h -6.80315" fill="none" stroke="black"/>
<path d="M63.9961,211.015h -6.80315" fill="none" stroke="black"/>
<path d="M63.9961,208.277h -6.80315" fill="none" stroke="black"/>
<path d="M63.9961,205.963h -6.80315" fill="none" stroke="black"/>
<path d="M63.9961,203.959h -6.80315" fill="none" stroke="black"/>
<path d="M63.9961,202.19h -6.80315" fill="none" stroke="black"/>
<path d="M70.7992,200.609h -13.6063" fill="none" stroke="black"/>
<text xml:space="preserve" x="49.0263" y="200.615" fill="black" font-size="7.16345" font-family="Helvetica">2</text>
<text xml:space="preserve" x="38.0783" y="205.053" fill="black" font-size="10.4952" font-family="Helvetica">10</text>
<path d="M63.9961,190.203h -6.80315" fill="none" stroke="black"/>
<path d="M63.9961,184.115h -6.80315" fill="none" stroke="black"/>
<path d="M63.9961,179.797h -6.80315" fill="none" stroke="black"/>
<path d="M63.9961,176.447h -6.80315" fill="none" stroke="black"/>
<path d="M63.9961,173.709h -6.80315" fill="none" stroke="black"/>
<path d="M63.9961,171.395h -6.80315" fill="none" stroke="black"/>
<path d="M63.9961,169.391h -6.80315" fill="none" stroke="black"/>
<path d="M63.9961,167.622h -6.80315" fill="none" stroke="black"/>
<path d="M70.7992,166.041h -13.6063" fill="none" stroke="black"/>
<text xml:space="preserve" x="49.0263" y="165.995" fill="black" font-size="7.16345" font-family="Helvetica">3</text>
<text xml:space="preserve" x="38.0783" y="170.73" fill="black" font-size="10.4952" font-family="Helvetica">10</text>
<path d="M63.9961,155.635h -6.80315" fill="none" stroke="black"/>
<path d="M63.9961,149.547h -6.80315" fill="none" stroke="black"/>
<path d="M63.9961,145.229h -6.80315" fill="none" stroke="black"/>
<path d="M63.9961,141.879h -6.80315" fill="none" stroke="black"/>
<path d="M63.9961,139.141h -6.80315" fill="none" stroke="black"/>
<path d="M63.9961,136.827h -6.80315" fill="none" stroke="black"/>
<path d="M63.9961,134.823h -6.80315" fill="none" stroke="black"/>
<path d="M63.9961,133.054h -6.80315" fill="none" stroke="black"/>
<path d="M70.7992,131.473h -13.6063" fill="none" stroke="black"/>
<text xml:space="preserve" x="49.0263" y="131.672" fill="black" font-size="7.16345" font-family="Helvetica">4</text>
<text xml:space="preserve" x="38.0783" y="136.11" fill="black" font-size="10.4952" font-family="Helvetica">10</text>
<path d="M63.9961,121.067h -6.80315" fill="none" stroke="black"/>
<path d="M63.9961,114.979h -6.80315" fill="none" stroke="black"/>
<path d="M63.9961,110.661h -6.80315" fill="none" stroke="black"/>
<path d="M63.9961,107.311h -6.80315" fill="none" stroke="black"/>
<path d="M63.9961,104.573h -6.80315" fill="none" stroke="black"/>
<path d="M63.9961,102.259h -6.80315" fill="none" stroke="black"/>
<path d="M63.9961,100.255h -6.80315" fill="none" stroke="black"/>
<path d="M63.9961,98.4864h -6.80315" fill="none" stroke="black"/>
<path d="M70.7992,96.9046h -13.6063" fill="none" stroke="black"/>
<text xml:space="preserve" x="49.0263" y="96.7567" fill="black" font-size="7.16345" font-family="Helvetica">5</text>
<text xml:space="preserve" x="38.0783" y="101.491" fill="black" font-size="10.4952" font-family="Helvetica">10</text>
<path d="M63.9961,86.4986h -6.80315" fill="none" stroke="black"/>
<path d="M63.9961,80.4115h -6.80315" fill="none" stroke="black"/>
<path d="M63.9961,76.0926h -6.80315" fill="none" stroke="black"/>
<path d="M63.9961,72.7426h -6.80315" fill="none" stroke="black"/>
<path d="M63.9961,70.0055h -6.80315" fill="none" stroke="black"/>
<path d="M63.9961,67.6913h -6.80315" fill="none" stroke="black"/>
<path d="M63.9961,65.6866h -6.80315" fill="none" stroke="black"/>
<path d="M63.9961,63.9184h -6.80315" fill="none" stroke="black"/>
<path d="M70.7992,62.3366h -13.6063" fill="none" stroke="black"/>
<text xml:space="preserve" x="49.0263" y="62.1373" fill="black" font-size="7.16345" font-family="Helvetica">6</text>
<text xml:space="preserve" x="38.0783" y="66.8716" fill="black" font-size="10.4952" font-family="Helvetica">10</text>
<path d="M63.9961,51.9306h -6.80315" fill="none" stroke="black"/>
<path d="M63.9961,45.8435h -6.80315" fill="none" stroke="black"/>
<path d="M63.9961,41.5246h -6.80315" fill="none" stroke="black"/>
<path d="M63.9961,38.1746h -6.80315" fill="none" stroke="black"/>
<path d="M63.9961,35.4375h -6.80315" fill="none" stroke="black"/>
<path d="M63.9961,33.1233h -6.80315" fill="none" stroke="black"/>
<g transform="rotate(-90,26.5385,191.442)">
<text xml:space="preserve" x="26.5385" y="191.442" fill="black" font-size="10.4952" font-family="Helvetica">Counts/Channel</text>
</g>
<text xml:space="preserve" x="404.097" y="62.1373" fill="black" font-size="14.7788" font-family="Helvetica" font-weight="bold"> = 2.4879 MeV</text>
<text xml:space="preserve" x="398.179" y="65.3921" fill="black" font-size="10.0192" font-family="Helvetica" font-weight="bold">p</text>
<text xml:space="preserve" x="389.006" y="62.1373" fill="black" font-size="14.7788" font-family="Helvetica" font-weight="bold">E</text>
<path d="M262.163,164.61v 25.9432" fill="none" stroke="black"/>
<path d="M264.454,190.553l -2.29122, 3.9685l -2.29122, -3.9685z" fill="black"/>
<path d="M264.454,190.553l -2.29122, 3.9685l -2.29122, -3.9685h 4.58243z" fill="none" stroke="black"/>
<text xml:space="preserve" x="266.803" y="162.445" fill="black" font-size="10.4952" font-family="Helvetica" font-weight="bold">_1 	1.369 MeV</text>
<text xml:space="preserve" x="260.293" y="162.445" fill="black" font-size="10.4952" font-family="Times">&#0945;</text>
<path d="M184.528,131.473v 30.5995" fill="none" stroke="black"/>
<path d="M186.819,162.072l -2.29122, 3.9685l -2.29122, -3.9685z" fill="black"/>
<path d="M186.819,162.072l -2.29122, 3.9685l -2.29122, -3.9685h 4.58243z" fill="none" stroke="black"/>
<text xml:space="preserve" x="172.117" y="128.713" fill="black" font-size="10.4952" font-family="Helvetica" font-weight="bold"># p_1 	0.844 MeV</text>
<path d="M210.104,149.547v 12.5246" fill="none" stroke="black"/>
<path d="M212.395,162.072l -2.29122, 3.9685l -2.29122, -3.9685z" fill="black"/>
<path d="M212.395,162.072l -2.29122, 3.9685l -2.29122, -3.9685h 4.58243z" fill="none" stroke="black"/>
<text xml:space="preserve" x="197.564" y="144.987" fill="black" font-size="10.4952" font-family="Helvetica" font-weight="bold"># p_2 	1.015 MeV</text>
<path d="M497.702,269.745h 12.9631" fill="none" stroke="black"/>
<path d="M504.184,259.339h 6.48156" fill="none" stroke="black"/>
<path d="M504.184,253.251h 6.48156" fill="none" stroke="black"/>
<path d="M504.184,248.933h 6.48156" fill="none" stroke="black"/>
<path d="M504.184,245.583h 6.48156" fill="none" stroke="black"/>
<path d="M504.184,242.845h 6.48156" fill="none" stroke="black"/>
<path d="M504.184,240.531h 6.48156" fill="none" stroke="black"/>
<path d="M504.184,238.527h 6.48156" fill="none" stroke="black"/>
<path d="M504.184,236.758h 6.48156" fill="none" stroke="black"/>
<path d="M497.702,235.177h 12.9631" fill="none" stroke="black"/>
<path d="M504.184,224.771h 6.48156" fill="none" stroke="black"/>
<path d="M504.184,218.683h 6.48156" fill="none" stroke="black"/>
<path d="M504.184,214.365h 6.48156" fill="none" stroke="black"/>
<path d="M504.184,211.015h 6.48156" fill="none" stroke="black"/>
<path d="M504.184,208.277h 6.48156" fill="none" stroke="black"/>
<path d="M504.184,205.963h 6.48156" fill="none" stroke="black"/>
<path d="M504.184,203.959h 6.48156" fill="none" stroke="black"/>
<path d="M504.184,202.19h 6.48156" fill="none" stroke="black"/>
<path d="M497.702,200.609h 12.9631" fill="none" stroke="black"/>
<path d="M504.184,190.203h 6.48156" fill="none" stroke="black"/>
<path d="M504.184,184.115h 6.48156" fill="none" stroke="black"/>
<path d="M504.184,179.797h 6.48156" fill="none" stroke="black"/>
<path d="M504.184,176.447h 6.48156" fill="none" stroke="black"/>
<path d="M504.184,173.709h 6.48156" fill="none" stroke="black"/>
<path d="M504.184,171.395h 6.48156" fill="none" stroke="black"/>
<path d="M504.184,169.391h 6.48156" fill="none" stroke="black"/>
<path d="M504.184,167.622h 6.48156" fill="none" stroke="black"/>
<path d="M497.702,166.041h 12.9631" fill="none" stroke="black"/>
<path d="M504.184,155.635h 6.48156" fill="none" stroke="black"/>
<path d="M504.184,149.547h 6.48156" fill="none" stroke="black"/>
<path d="M504.184,145.229h 6.48156" fill="none" stroke="black"/>
<path d="M504.184,141.879h 6.48156" fill="none" stroke="black"/>
<path d="M504.184,139.141h 6.48156" fill="none" stroke="black"/>
<path d="M504.184,136.827h 6.48156" fill="none" stroke="black"/>
<path d="M504.184,134.823h 6.48156" fill="none" stroke="black"/>
<path d="M504.184,133.054h 6.48156" fill="none" stroke="black"/>
<path d="M497.702,131.473h 12.9631" fill="none" stroke="black"/>
<path d="M504.184,121.067h 6.48156" fill="none" stroke="black"/>
<path d="M504.184,114.979h 6.48156" fill="none" stroke="black"/>
<path d="M504.184,110.661h 6.48156" fill="none" stroke="black"/>
<path d="M504.184,107.311h 6.48156" fill="none" stroke="black"/>
<path d="M504.184,104.573h 6.48156" fill="none" stroke="black"/>
<path d="M504.184,102.259h 6.48156" fill="none" stroke="black"/>
<path d="M504.184,100.255h 6.48156" fill="none" stroke="black"/>
<path d="M504.184,98.4864h 6.48156" fill="none" stroke="black"/>
<path d="M497.702,96.9046h 12.9631" fill="none" stroke="black"/>
<path d="M504.184,86.4986h 6.48156" fill="none" stroke="black"/>
<path d="M504.184,80.4115h 6.48156" fill="none" stroke="black"/>
<path d="M504.184,76.0926h 6.48156" fill="none" stroke="black"/>
<path d="M504.184,72.7426h 6.48156" fill="none" stroke="black"/>
<path d="M504.184,70.0055h 6.48156" fill="none" stroke="black"/>
<path d="M504.184,67.6913h 6.48156" fill="none" stroke="black"/>
<path d="M504.184,65.6866h 6.48156" fill="none" stroke="black"/>
<path d="M504.184,63.9184h 6.48156" fill="none" stroke="black"/>
<path d="M497.702,62.3366h 12.9631" fill="none" stroke="black"/>
<path d="M504.184,51.9306h 6.48156" fill="none" stroke="black"/>
<path d="M504.184,45.8435h 6.48156" fill="none" stroke="black"/>
<path d="M504.184,41.5246h 6.48156" fill="none" stroke="black"/>
<path d="M504.184,38.1746h 6.48156" fill="none" stroke="black"/>
<path d="M504.184,35.4375h 6.48156" fill="none" stroke="black"/>
<path d="M504.184,33.1233h 6.48156" fill="none" stroke="black"/>
<path d="M57.1929,39.9628v -7.46952" fill="none" stroke="black"/>
<path d="M75.3318,39.9628v -7.46952" fill="none" stroke="black"/>
<path d="M93.4707,39.9628v -7.46952" fill="none" stroke="black"/>
<path d="M111.61,39.9628v -7.46952" fill="none" stroke="black"/>
<path d="M129.749,39.9628v -7.46952" fill="none" stroke="black"/>
<path d="M147.887,39.9628v -7.46952" fill="none" stroke="black"/>
<path d="M166.026,39.9628v -7.46952" fill="none" stroke="black"/>
<path d="M184.165,39.9628v -7.46952" fill="none" stroke="black"/>
<path d="M202.304,39.9628v -7.46952" fill="none" stroke="black"/>
<path d="M220.443,39.9628v -7.46952" fill="none" stroke="black"/>
<path d="M238.582,39.9628v -7.46952" fill="none" stroke="black"/>
<path d="M256.721,39.9628v -7.46952" fill="none" stroke="black"/>
<path d="M274.86,39.9628v -7.46952" fill="none" stroke="black"/>
<path d="M292.999,39.9628v -7.46952" fill="none" stroke="black"/>
<path d="M311.138,39.9628v -7.46952" fill="none" stroke="black"/>
<path d="M329.277,39.9628v -7.46952" fill="none" stroke="black"/>
<path d="M347.415,39.9628v -7.46952" fill="none" stroke="black"/>
<path d="M365.554,39.9628v -7.46952" fill="none" stroke="black"/>
<path d="M383.693,39.9628v -7.46952" fill="none" stroke="black"/>
<path d="M401.832,39.9628v -7.46952" fill="none" stroke="black"/>
<path d="M419.971,39.9628v -7.46952" fill="none" stroke="black"/>
<path d="M438.11,39.9628v -7.46952" fill="none" stroke="black"/>
<path d="M456.249,39.9628v -7.46952" fill="none" stroke="black"/>
<path d="M474.388,39.9628v -7.46952" fill="none" stroke="black"/>
<path d="M492.527,39.9628v -7.46952" fill="none" stroke="black"/>
<path d="M510.666,39.9628v -7.46952" fill="none" stroke="black"/></svg>
