<?xml version="1.0" standalone="no"?>
<svg width="567.429" height="311.778" viewBox="0 0 567.429 311.778" xmlns="http://www.w3.org/2000/svg" shape-rendering="crispEdges">
<title>
Yields/P1/det-9/run_0103_Fit.svg
</title>
<desc>
Creator: ROOT Version 6.12/06
CreationDate: Mon Apr 15 10:29:02 2019</desc>
<defs>
</defs>
<rect x="0.5" y="0" width="566.929" height="311.278" fill="white"/>
<rect x="57.1929" y="31.1278" width="453.543" height="249.023" fill="white"/>
<rect x="57.1929" y="31.1278" width="453.543" height="249.023" fill="none" stroke="black"/>
<rect x="57.1929" y="31.1278" width="453.543" height="249.023" fill="white"/>
<rect x="57.1929" y="31.1278" width="453.543" height="249.023" fill="none" stroke="black"/>
<path d="M57.1929,40.7896h 0.181345v 239.361h 16.8651v -10.4792h 0.181345v 10.4792h 1.26941v -10.4792h 0.181345v 10.4792h 5.80303v -10.4792h 0.181345v 10.4792h 6.8911v -10.4792h 0.181345v -16.6092h 0.181345v -7.72282h 0.181345v 7.72282h 0.181345v
 -37.1417h 0.181345v -12.1152h 0.181345v -10.2841h 0.181345v -5.93232h 0.181345v -5.99674h 0.181345v -2.53929h 0.181345v -4.74922h 0.181345v -0.380697h 0.181345v -1.9616h 0.181345v -1.24454h 0.181345v -0.637998h 0.181345v 0.400928h 0.181345v
 -1.46618h 0.181345v -0.849036h 0.181345v -0.522927h 0.181345v 0.413242h 0.181345v -1.5564h 0.181345v -0.114595h 0.181345v 0.994208h 0.181345v -1.01051h 0.181345v -0.496778h 0.181345v 1.42045h 0.181345v -1.49907h 0.181345v 0.365079h 0.181345v
 -0.690884h 0.181345v 1.28062h 0.181345v -1.73421h 0.181345v 0.654443h 0.181345v -0.817405h 0.181345v 0.770815h 0.181345v -0.503228h 0.181345v -0.252845h 0.181345v 0.373311h 0.181345v -0.966261h 0.181345v 0.344265h 0.181345v -0.201773h 0.181345v
 0.274492h 0.181345v 0.190724h 0.181345v 0.253094h 0.181345v -0.775468h 0.181345v 0.404721h 0.181345v -0.784987h 0.181345v 0.566826h 0.181345v 0.218161h 0.181345v 0.536801h 0.181345v -1.39117h 0.181345v 1.4978h 0.181345v -0.774704h 0.181345v
 0.820633h 0.181345v 0.467132h 0.181345v -0.0158059h 0.181345v -0.784943h 0.181345v 0.441331h 0.181345v 0.406936h 0.181345v 0.43451h 0.181345v -1.14719h 0.181345v -1.13659h 0.181345v -0.952007h 0.181345v -2.14674h 0.181345v -3.3415h 0.181345v
 -2.71202h 0.181345v -3.62734h 0.181345v -3.33492h 0.181345v -2.64559h 0.181345v -2.92456h 0.181345v -2.65852h 0.181345v -1.78909h 0.181345v -0.677453h 0.181345v -1.28107h 0.181345v 0.818743h 0.181345v 0.315292h 0.181345v 1.78127h 0.181345v 1.93781h
 0.181345v 2.62716h 0.181345v 2.95302h 0.181345v 3.64001h 0.181345v 4.30859h 0.181345v 3.61176h 0.181345v 4.94872h 0.181345v 3.25368h 0.181345v 3.67092h 0.181345v 2.3305h 0.181345v 3.10597h 0.181345v -0.435716h 0.181345v -1.02395h 0.181345v 1.02395h
 0.181345v 1.31546h 0.181345v 0.411623h 0.181345v -0.159646h 0.181345v 0.549817h 0.181345v 0.777201h 0.181345v -2.04043h 0.181345v 0.492697h 0.181345v 1.7221h 0.181345v 0.0703178h 0.181345v -0.955877h 0.181345v 1.13312h 0.181345v -1.29763h 0.181345v
 1.87917h 0.181345v 0.604813h 0.181345v -2.35252h 0.181345v 0.744228h 0.181345v -0.61161h 0.181345v 1.03354h 0.181345v -0.177239h 0.181345v 0.501601h 0.181345v 0.632346h 0.181345v -1.27426h 0.181345v 0.14031h 0.181345v 0.758784h 0.181345v -0.366079h
 0.181345v 0.218582h 0.181345v 0.40913h 0.181345v -0.187342h 0.181345v -0.93843h 0.181345v 1.20136h 0.181345v 0.152327h 0.181345v 2.26684h 0.181345v -0.737625h 0.181345v -0.251978h 0.181345v -0.20682h 0.181345v 0.975713h 0.181345v -0.810484h
 0.181345v -0.369258h 0.181345v 1.00547h 0.181345v 0.709494h 0.181345v -1.51093h 0.181345v 1.64775h 0.181345v 0.0919049h 0.181345v -0.807698h 0.181345v 0.761676h 0.181345v -0.137232h 0.181345v 1.38185h 0.181345v -1.38185h 0.181345v -1.01267h
 0.181345v 2.29505h 0.181345v -0.48773h 0.181345v -0.885454h 0.181345v 2.34559h 0.181345v -3.85222h 0.181345v 2.781h 0.181345v 1.23064h 0.181345v -2.41421h 0.181345v 0.415491h 0.181345v 1.06648h 0.181345v 1.20174h 0.181345v -0.481686h 0.181345v
 0.700796h 0.181345v -0.488605h 0.181345v -0.473307h 0.181345v -0.205694h 0.181345v 0.894213h 0.181345v 1.30069h 0.181345v -2.0409h 0.181345v 1.57568h 0.181345v 1.06762h 0.181345v -2.01108h 0.181345v 0.216754h 0.181345v 0.164629h 0.181345v -1.81742h
 0.181345v 3.26387h 0.181345v -1.33569h 0.181345v -1.38017h 0.181345v 0.834325h 0.181345v 1.16996h 0.181345v -1.06235h 0.181345v -0.0538978h 0.181345v 0.381383h 0.181345v 0.27843h 0.181345v 0.867445h 0.181345v -0.411008h 0.181345v -1.06235h 0.181345v
 1.06235h 0.181345v -0.679589h 0.181345v -1.7252h 0.181345v 1.34244h 0.181345v -0.425896h 0.181345v -0.66747h 0.181345v -0.783h 0.181345v -0.744436h 0.181345v -0.709494h 0.181345v -1.28656h 0.181345v 0.240615h 0.181345v -1.24117h 0.181345v -1.38667h
 0.181345v -0.468304h 0.181345v 1.09254h 0.181345v 0.762429h 0.36269v 0.112126h 0.181345v 2.4813h 0.181345v 0.133202h 0.181345v -0.697221h 0.181345v 2.14707h 0.181345v 0.600807h 0.181345v 1.16761h 0.181345v -0.435089h 0.181345v -0.370695h 0.181345v
 2.43549h 0.181345v 0.885845h 0.181345v 0.19677h 0.181345v -1.32646h 0.181345v -1.60496h 0.181345v 2.66963h 0.181345v -0.0647466h 0.181345v 0.932702h 0.181345v -1.87203h 0.181345v 1.39849h 0.181345v -1.57955h 0.181345v 1.51309h 0.181345v -0.262934h
 0.181345v -0.512534h 0.181345v 0.90867h 0.181345v 0.338231h 0.181345v 0.700047h 0.181345v -0.836249h 0.36269v -0.532859h 0.181345v 1.15567h 0.181345v -0.140636h 0.181345v -0.13934h 0.181345v -0.678065h 0.181345v 0.267588h 0.181345v -1.10592h
 0.181345v 1.79637h 0.181345v -1.67038h 0.181345v 2.02781h 0.181345v -2.2164h 0.181345v 1.03413h 0.181345v -0.461161h 0.181345v 0.936832h 0.181345v 0.349168h 0.181345v -0.757796h 0.181345v -1.34902h 0.181345v 1.96618h 0.181345v -2.0886h 0.181345v
 -0.361411h 0.181345v -2.00388h 0.181345v 2.30445h 0.181345v -1.93505h 0.181345v 0.767035h 0.181345v -1.39488h 0.181345v 0.102846h 0.181345v 0.207815h 0.181345v 1.71543h 0.181345v 0.415854h 0.181345v -2.23555h 0.181345v 0.209253h 0.181345v 0.105723h
 0.181345v -0.470037h 0.181345v 1.62719h 0.36269v -0.0571581h 0.181345v 1.49809h 0.181345v 0.126514h 0.181345v -0.314321h 0.181345v 0.250932h 0.181345v 0.255167h 0.181345v 1.27458h 0.181345v -1.4027h 0.181345v 0.651752h 0.181345v 1.17685h 0.181345v
 -1.44093h 0.181345v 0.875692h 0.181345v 0.209495h 0.181345v 0.0704817h 0.181345v 0.872452h 0.181345v -1.96253h 0.181345v -0.0655893h 0.181345v 0.875692h 0.181345v 1.84148h 0.181345v -1.05871h 0.181345v 1.37534h 0.181345v -1.87813h 0.181345v
 0.649574h 0.181345v -0.436135h 0.181345v -0.0714815h 0.181345v -0.560001h 0.181345v 0.138068h 0.181345v 0.350789h 0.181345v -1.22648h 0.181345v 1.15567h 0.181345v -0.140636h 0.181345v 1.78068h 0.181345v -2.79571h 0.181345v 1.95346h 0.181345v
 -1.21584h 0.181345v 0.99405h 0.181345v -0.505193h 0.181345v 0.431981h 0.181345v -2.04613h 0.181345v 2.26684h 0.181345v 0.0742916h 0.181345v -0.0742916h 0.181345v 0.682145h 0.181345v 1.04306h 0.181345v -1.94591h 0.181345v -0.431981h 0.181345v
 0.142627h 0.181345v -0.28392h 0.181345v -0.754358h 0.181345v -0.0667476h 0.181345v -0.394413h 0.181345v 0.461161h 0.181345v 1.1101h 0.181345v -1.95564h 0.181345v 0.912589h 0.181345v -0.975713h 0.181345v 2.16344h 0.181345v -1.52001h 0.181345v
 -0.453259h 0.181345v 1.97327h 0.181345v -0.779102h 0.181345v -2.24148h 0.181345v 1.17543h 0.181345v 1.06605h 0.181345v 0.349168h 0.181345v 0.213438h 0.181345v -2.19684h 0.181345v -0.427617h 0.181345v 2.41102h 0.181345v 0.0708119h 0.181345v -1.80432h
 0.181345v -1.03465h 0.181345v 0.417495h 0.181345v 2.28019h 0.181345v -2.03634h 0.181345v 0.185503h 0.181345v 0.700342h 0.181345v -0.637998h 0.181345v 0.315634h 0.181345v -1.10671h 0.181345v -0.524387h 0.181345v 2.48398h 0.181345v 0.903892h 0.181345v
 -2.19684h 0.181345v 1.29295h 0.181345v -0.979931h 0.181345v 0.64618h 0.181345v 1.527h 0.181345v -1.46083h 0.181345v 1.1h 0.181345v -0.282593h 0.181345v 0.354075h 0.181345v 0.362567h 0.181345v -0.290746h 0.181345v 0.966117h 0.181345v -1.46184h
 0.181345v 0.786472h 0.181345v 2.20867h 0.181345v -1.14463h 0.36269v 0.078947h 0.181345v 0.813008h 0.181345v -0.891955h 0.181345v -1.42661h 0.181345v 1.90659h 0.181345v -0.945202h 0.181345v 1.60985h 0.181345v 1.23845h 0.181345v -3.07565h 0.181345v
 1.25405h 0.181345v -0.0815005h 0.181345v 0.328672h 0.181345v -0.165229h 0.181345v 1.10775h 0.181345v -0.262934h 0.181345v -0.0866381h 0.181345v 2.3305h 0.181345v -1.34902h 0.181345v -0.274055h 0.181345v 0.0908009h 0.181345v -0.0908009h 0.181345v
 -0.357846h 0.181345v -0.521373h 0.181345v -0.0851738h 0.181345v 2.8929h 0.181345v -0.305431h 0.181345v -2.75639h 0.181345v 1.04306h 0.181345v 1.41396h 0.181345v 2.11791h 0.181345v -1.30599h 0.181345v -1.67605h 0.181345v 1.26465h 0.181345v -0.20158h
 0.181345v -0.198928h 0.181345v 0.502316h 0.181345v 0.414226h 0.181345v -0.817405h 0.181345v 2.59809h 0.181345v -3.18338h 0.181345v 3.18338h 0.181345v -2.49829h 0.181345v 0.20158h 0.181345v -1.07684h 0.181345v 1.48825h 0.181345v 0.422917h 0.181345v
 1.70048h 0.181345v -4.34927h 0.181345v 3.53186h 0.181345v -1.09601h 0.181345v -0.313886h 0.181345v 1.75481h 0.181345v -0.458166h 0.181345v -3.23756h 0.181345v 2.79287h 0.181345v 0.109952h 0.181345v -1.06511h 0.181345v 0.630021h 0.181345v -0.630021h
 0.181345v 0.846h 0.181345v -1.35168h 0.181345v 2.01877h 0.181345v -0.225651h 0.181345v -1.79312h 0.181345v 2.24784h 0.181345v -0.45472h 0.181345v -0.332284h 0.181345v 2.23948h 0.181345v -3.70031h 0.181345v 0.71278h 0.181345v 1.76765h 0.181345v
 -0.116744h 0.181345v 0.714384h 0.181345v -2.5724h 0.181345v 1.17587h 0.181345v -2.17085h 0.181345v -0.842724h 0.181345v 3.81247h 0.181345v -1.97476h 0.36269v 0.955158h 0.181345v 2.11296h 0.181345v -0.617159h 0.181345v -0.93787h 0.181345v -1.51309h
 0.181345v 1.39985h 0.181345v 0.930651h 0.181345v 1.64629h 0.181345v 0.406795h 0.181345v -4.78947h 0.181345v 1.25189h 0.181345v -0.742803h 0.181345v 3.60835h 0.181345v -1.01674h 0.181345v -0.243849h 0.181345v -1.05112h 0.181345v -1.19274h 0.181345v
 0.748055h 0.181345v 1.13725h 0.181345v -1.46239h 0.181345v -1.23483h 0.181345v 0.502316h 0.181345v 1.96051h 0.181345v 1.46421h 0.181345v -2.36706h 0.181345v 1.73965h 0.181345v -2.48771h 0.181345v 1.42009h 0.181345v -0.227347h 0.181345v -2.10315h
 0.181345v 1.76841h 0.181345v 0.110757h 0.181345v 1.2751h 0.181345v -1.60496h 0.181345v 1.36498h 0.181345v -1.36498h 0.36269v -1.74438h 0.181345v 3.9665h 0.181345v -2.75639h 0.181345v 0.534271h 0.181345v -2.40799h 0.181345v -0.366522h 0.181345v
 0.837536h 0.181345v -1.71675h 0.181345v -1.0715h 0.181345v 1.77074h 0.181345v -0.953332h 0.181345v 0.339752h 0.181345v -3.09614h 0.181345v 3.44371h 0.181345v -1.42494h 0.181345v -1.52071h 0.181345v 1.44093h 0.181345v -0.236845h 0.181345v -0.386679h
 0.181345v -1.93262h 0.181345v 1.26059h 0.181345v 2.11296h 0.181345v -2.61576h 0.181345v 1.64004h 0.36269v -0.465215h 0.181345v -0.151944h 0.181345v 0.305431h 0.181345v -0.153487h 0.181345v -0.151944h 0.181345v 2.36834h 0.181345v -1.82972h 0.181345v
 0.47746h 0.181345v 2.26327h 0.181345v -1.34673h 0.181345v 0.975713h 0.181345v -2.83256h 0.181345v 0.152711h 0.181345v -1.25138h 0.181345v 0.947481h 0.181345v -1.83907h 0.181345v -1.57955h 0.181345v 1.12039h 0.181345v -2.71326h 0.181345v -2.89078h
 0.181345v 0.0894577h 0.181345v -1.57492h 0.181345v -2.03897h 0.181345v -2.25969h 0.181345v -0.683934h 0.181345v -3.02058h 0.181345v -0.259649h 0.181345v -1.4919h 0.181345v -1.62676h 0.181345v -0.450206h 0.181345v -0.544536h 0.181345v -0.916542h
 0.181345v -0.879977h 0.181345v 0.0475668h 0.181345v 1.32702h 0.181345v 0.0521022h 0.181345v 1.84825h 0.36269v 0.869922h 0.181345v 1.60213h 0.181345v 1.25455h 0.181345v 2.39352h 0.181345v -0.775468h 0.181345v 3.51419h 0.181345v 1.60072h 0.181345v
 4.23192h 0.181345v -0.710387h 0.181345v 1.67571h 0.181345v 0.111165h 0.181345v 5.05346h 0.181345v -0.907371h 0.181345v 0.52266h 0.181345v 2.56015h 0.181345v 0.272409h 0.181345v 2.16344h 0.181345v -2.16344h 0.181345v 3.72112h 0.181345v -2.38064h
 0.181345v -0.198928h 0.181345v 2.93531h 0.181345v -0.588335h 0.181345v 0.11585h 0.181345v 1.85354h 0.181345v -3.81405h 0.181345v 1.72969h 0.181345v 1.06762h 0.181345v -0.720056h 0.181345v 0.476207h 0.181345v 0.367264h 0.181345v -0.960215h 0.36269v
 -0.230818h 0.181345v 2.61958h 0.181345v -0.269977h 0.181345v -0.525907h 0.181345v -0.999922h 0.181345v -0.592951h 0.181345v 1.72264h 0.181345v 0.530521h 0.181345v -1.29295h 0.181345v 0.50399h 0.181345v -1.58006h 0.181345v 3.20143h 0.181345v -1.4927h
 0.181345v -0.999922h 0.181345v -0.239978h 0.181345v 1.2399h 0.181345v -1.59287h 0.181345v 1.98558h 0.181345v 0.678065h 0.181345v -0.274886h 0.181345v -2.95933h 0.181345v 4.23769h 0.181345v 0.299382h 0.181345v -3.00629h 0.181345v 3.15823h 0.181345v
 -4.0017h 0.181345v 4.94691h 0.181345v -2.26067h 0.181345v -1.33878h 0.181345v 1.62137h 0.181345v 1.81638h 0.181345v -3.17931h 0.181345v 1.08034h 0.181345v 2.26067h 0.36269v -1.97807h 0.181345v -0.141957h 0.181345v -1.73351h 0.181345v 0.775468h
 0.181345v 1.53405h 0.181345v 1.22235h 0.181345v -1.93899h 0.181345v 0.716642h 0.181345v -0.434048h 0.181345v -0.421934h 0.181345v -1.579h 0.181345v 2.88186h 0.181345v 1.76179h 0.181345v 0.518393h 0.181345v -2.12824h 0.181345v -0.889569h 0.181345v
 1.83477h 0.181345v -2.26067h 0.36269v -0.949443h 0.181345v -0.516916h 0.181345v 4.0557h 0.181345v -2.72868h 0.181345v 0.13934h 0.181345v 1.93899h 0.181345v -3.40535h 0.181345v 2.93531h 0.181345v -0.455863h 0.181345v 1.41102h 0.181345v -0.955158h
 0.181345v -0.153487h 0.181345v -0.302376h 0.181345v 1.57625h 0.181345v 1.21011h 0.181345v -3.51686h 0.181345v 1.18636h 0.181345v 2.69481h 0.181345v -2.22477h 0.181345v 2.78825h 0.181345v -4.30135h 0.181345v 0.889569h 0.181345v 2.30507h 0.181345v
 -1.35987h 0.181345v -0.161695h 0.181345v 1.52156h 0.181345v -2.60744h 0.181345v -0.296447h 0.181345v 0.75231h 0.36269v -0.455863h 0.181345v -3.22312h 0.181345v -2.95664h 0.181345v -0.0991368h 0.181345v -2.54077h 0.181345v -2.17458h 0.181345v
 -0.357423h 0.181345v -1.15567h 0.181345v -3.79945h 0.181345v -0.841498h 0.181345v -2.39912h 0.181345v -1.74412h 0.181345v -1.95457h 0.181345v -1.73056h 0.181345v -1.44875h 0.181345v -1.08124h 0.181345v -1.09957h 0.181345v 0.481442h 0.181345v
 -2.70194h 0.181345v -0.796883h 0.181345v 0.680439h 0.181345v -1.04563h 0.181345v -0.232732h 0.181345v 0.765186h 0.181345v 0.474562h 0.181345v 0.430304h 0.181345v 1.65472h 0.181345v 0.70225h 0.181345v 0.663606h 0.181345v 2.35474h 0.181345v 1.14654h
 0.181345v 1.60985h 0.181345v 0.034012h 0.181345v 4.12395h 0.181345v 1.30733h 0.181345v 0.956218h 0.181345v 4.15996h 0.181345v 2.77008h 0.181345v 1.64775h 0.181345v 2.59236h 0.181345v -2.40799h 0.181345v 4.50465h 0.181345v 1.85897h 0.181345v 1.17483h
 0.181345v 0.945202h 0.181345v 3.05187h 0.181345v 1.68154h 0.181345v -0.220709h 0.181345v 2.36706h 0.181345v -0.50399h 0.181345v -0.725818h 0.181345v 0.238089h 0.181345v -0.703304h 0.181345v 2.75639h 0.181345v 3.0338h 0.181345v -2.75639h 0.181345v
 0.864138h 0.181345v -1.41396h 0.181345v 0.272409h 0.181345v 0.847978h 0.181345v -1.12039h 0.181345v -1.53878h 0.181345v 2.37119h 0.181345v -1.87547h 0.181345v 3.69184h 0.181345v 3.61675h 0.181345v -5.99313h 0.181345v 0.847978h 0.181345v -1.65091h
 0.181345v 1.94448h 0.181345v 0.604813h 0.181345v 3.06812h 0.181345v -2.11296h 0.181345v 0.332284h 0.181345v -3.5738h 0.181345v 5.35448h 0.181345v -2.4381h 0.181345v -2.64879h 0.181345v 7.10566h 0.181345v -4.77516h 0.181345v -1.78068h 0.181345v
 2.75639h 0.181345v 0.687314h 0.181345v -2.28019h 0.181345v -0.880927h 0.181345v 5.84735h 0.181345v -1.96618h 0.181345v -5.2441h 0.181345v 4.87979h 0.181345v -2.01877h 0.181345v -1.21011h 0.181345v 1.21011h 0.181345v -3.86928h 0.181345v 3.55755h
 0.36269v -2.01877h 0.181345v 2.3305h 0.181345v -2.59809h 0.181345v -1.02536h 0.181345v 0.50399h 0.181345v 7.46872h 0.181345v -6.40735h 0.181345v 2.05809h 0.181345v 2.75639h 0.181345v -3.37355h 0.181345v 0.617159h 0.181345v -0.617159h 0.181345v
 -1.98093h 0.181345v -0.262934h 0.181345v 2.24386h 0.181345v -2.75639h 0.181345v -2.11296h 0.181345v 5.17479h 0.181345v -2.54929h 0.181345v -1.48825h 0.181345v 3.73211h 0.181345v 1.26059h 0.181345v -4.51271h 0.181345v 3.25212h 0.181345v -3.00629h
 0.181345v 4.26688h 0.181345v -2.42411h 0.181345v 0.57057h 0.36269v 3.59319h 0.181345v -1.40737h 0.181345v -1.89225h 0.181345v -3.43272h 0.181345v 4.9927h 0.181345v -4.51271h 0.181345v 7.00844h 0.181345v -6.00017h 0.181345v 3.50445h 0.181345v
 -3.76289h 0.181345v 2.20292h 0.36269v 0.604813h 0.181345v 0.955158h 0.181345v -2.97393h 0.181345v 7.5439h 0.181345v -4.56998h 0.36269v -2.14152h 0.181345v 1.81638h 0.181345v 0.325137h 0.181345v 1.0196h 0.181345v -2.28019h 0.181345v 2.28019h
 0.181345v -0.347563h 0.181345v -0.997173h 0.181345v -0.318292h 0.181345v 1.66303h 0.181345v -2.28019h 0.181345v 0.305431h 0.181345v 0.955158h 0.181345v -1.85354h 0.181345v 2.18582h 0.181345v 1.40737h 0.181345v -3.59319h 0.181345v 2.18582h 0.181345v
 -2.18582h 0.181345v 0.293569h 0.181345v 1.89225h 0.181345v -1.89225h 0.181345v -2.45701h 0.181345v 6.12995h 0.181345v -3.9665h 0.181345v 5.14515h 0.181345v -2.61958h 0.181345v -3.37355h 0.181345v 1.74636h 0.181345v -2.01877h 0.181345v 0.832411h
 0.181345v 1.49809h 0.181345v -2.05809h 0.181345v 2.05809h 0.181345v 0.975713h 0.181345v -2.18582h 0.181345v 4.34927h 0.181345v -2.82086h 0.181345v 1.70048h 0.36269v -2.01877h 0.181345v 2.38308h 0.181345v -4.16376h 0.181345v 2.75639h 0.36269v
 2.55615h 0.181345v 2.59809h 0.181345v -6.12995h 0.181345v 2.38308h 0.181345v -0.364314h 0.181345v -0.355741h 0.181345v 4.94691h 0.181345v -5.9665h 0.181345v 5.0213h 0.181345v -4.68902h 0.181345v -0.657421h 0.181345v 0.997173h 0.181345v 0.703304h
 0.181345v -2.63593h 0.181345v 3.75632h 0.181345v -0.756073h 0.181345v -0.720056h 0.36269v 1.86883h 0.181345v 1.68154h 0.181345v -3.55038h 0.181345v 1.86883h 0.181345v -1.86883h 0.181345v 1.47613h 0.181345v -1.12039h 0.36269v -1.04306h 0.181345v
 7.173h 0.181345v -1.53878h 0.181345v -1.83477h 0.181345v -3.11213h 0.181345v 2.68624h 0.181345v 6.12995h 0.181345v -3.37355h 0.181345v 1.04306h 0.181345v -1.04306h 0.181345v -0.495727h 0.181345v 0.495727h 0.181345v -0.495727h 0.181345v 1.00826h
 0.181345v -0.512534h 0.181345v 0.512534h 0.181345v -1.00826h 0.181345v 2.65917h 0.181345v 6.42351h 0.181345v -6.42351h 0.181345v -1.12039h 0.36269v 0.549817h 0.181345v 0.57057h 0.181345v 0.592951h 0.181345v -3.73211h 0.181345v 4.34927h 0.36269v
 -0.617159h 0.181345v 0.617159h 0.181345v -3.37355h 0.181345v 1.59287h 0.36269v 3.09614h 0.181345v -2.52558h 0.181345v -0.57057h 0.181345v 7.91063h 0.181345v -0.916542h 0.181345v -1.68154h 0.181345v -0.775468h 0.181345v 10.4792h 0.181345v -8.88634h
 0.181345v -0.817405h 0.181345v -2.2164h 0.181345v -3.09614h 0.181345v 4.53707h 0.181345v 3.37355h 0.181345v -4.81448h 0.181345v 1.44093h 0.181345v 4.34927h 0.36269v 4.68902h 0.36269v -1.31546h 0.181345v -3.37355h 0.181345v -3.5738h 0.181345v
 8.26282h 0.181345v -3.64596h 0.181345v -3.79945h 0.181345v -4.96643h 0.181345v 4.14902h 0.181345v 1.68154h 0.181345v 2.93531h 0.181345v -7.50529h 0.181345v 3.70584h 0.181345v -2.3305h 0.181345v 7.25033h 0.181345v -4.0557h 0.181345v 13.4145h
 0.181345v -3.79945h 0.181345v -3.0338h 0.544034v -6.58127h 0.181345v 5.26581h 0.181345v 2.75639h 0.181345v -8.0222h 0.181345v 0.916542h 0.181345v -1.78068h 0.181345v 4.91984h 0.181345v 1.21011h 0.181345v -5.26581h 0.181345v 13.4145h 0.181345v
 -11.5223h 0.181345v -4.34927h 0.181345v 4.34927h 0.181345v -1.89225h 0.181345v -1.68154h 0.181345v 0.817405h 0.181345v -4.96643h 0.181345v 1.93262h 0.36269v -0.672035h 0.181345v 0.672035h 0.36269v -3.64596h 0.181345v 5.86236h 0.181345v -10.076h
 0.181345v 4.21368h 0.181345v 0.549817h 0.181345v -6.31545h 0.181345v -0.720056h 0.181345v 6.48569h 0.181345v -5.39232h 0.181345v -2.75639h 0.181345v 1.31546h 0.181345v 3.89794h 0.36269v -3.19464h 0.181345v 4.59116h 0.181345v 1.00826h 0.181345v
 -4.08633h 0.181345v 3.5738h 0.181345v -0.975713h 0.181345v -0.465215h 0.181345v 2.48398h 0.181345v 2.3305h 0.181345v 0.643429h 0.181345v -1.26059h 0.181345v -1.16352h 0.181345v 6.99408h 0.181345v -2.45701h 0.181345v 2.45701h 0.181345v 0.916542h
 0.181345v 2.01877h 0.36269v -4.61685h 0.36269v 3.5738h 0.181345v 3.37355h 0.181345v 4.34927h 0.181345v -9.61507h 0.181345v 8.0222h 0.181345v -1.44093h 0.181345v -8.26282h 0.181345v 9.70374h 0.181345v -2.75639h 0.181345v -6.94735h 0.181345v -1.51309h
 0.181345v 5.08689h 0.181345v 2.16344h 0.181345v -8.62567h 0.36269v -3.50445h 0.181345v 1.08034h 0.181345v -3.48513h 0.181345v 0.451326h 0.181345v -1.72969h 0.181345v -8.97687h 0.181345v -1.50234h 0.181345v 2.67489h 0.181345v -5.4653h 0.181345v
 2.79041h 0.181345v -6.66516h 0.181345v 1.09008h 0.181345v -0.554863h 0.181345v -2.15436h 0.181345v 2.42925h 0.181345v -3.5665h 0.181345v -2.04613h 0.181345v -0.471013h 0.181345v -0.546504h 0.181345v 0.362132h 0.181345v 0.847978h 0.181345v -0.847978h
 0.181345v -1.14654h 0.181345v -1.14463h 0.181345v 1.14463h 0.181345v -0.418816h 0.181345v 0.166137h 0.181345v 1.58359h 0.181345v -1.49984h 0.181345v -0.975713h 0.181345v -1.28262h 0.181345v 2.85801h 0.181345v -1.57538h 0.181345v -0.156668h 0.181345v
 -2.89859h 0.181345v 1.20475h 0.181345v -1.5859h 0.181345v -0.432865h 0.181345v 0.814019h 0.181345v -1.64425h 0.181345v -0.398623h 0.181345v -0.926456h 0.181345v 0.106094h 0.181345v 0.541933h 0.181345v 0.447983h 0.181345v -1.61559h 0.181345v
 0.414226h 0.181345v -1.4027h 0.181345v 1.14248h 0.181345v -1.28534h 0.181345v 2.13431h 0.181345v -0.108765h 0.36269v 0.892853h 0.181345v -0.284722h 0.181345v 0.40013h 0.181345v 3.00166h 0.181345v 0.357423h 0.181345v 3.48245h 0.181345v 0.46237h
 0.181345v 0.574182h 0.181345v 2.42835h 0.181345v -3.28165h 0.181345v 3.0543h 0.181345v 3.26115h 0.181345v 3.09614h 0.181345v 1.25312h 0.181345v 5.58013h 0.181345v -1.53878h 0.181345v 2.37119h 0.181345v 2.14152h 0.181345v 1.37534h 0.181345v 6.12995h
 0.181345v -3.79945h 0.181345v 12.2599h 0.181345v -2.59809h 0.181345v 0.817405h 0.181345v 4.91984h 0.181345v -1.12039h 0.36269v -4.61685h 0.181345v 4.61685h 0.181345v 6.67976h 0.181345v -4.34927h 0.36269v 1.31546h 0.181345v 3.0338h 0.181345v 3.79945h
 0.181345v -2.01877h 0.181345v 4.34927h 0.181345v -2.3305h 0.181345v -9.35883h 0.181345v 3.9665h 0.181345v -1.44093h 0.181345v 3.0338h 0.544034v 16.6092h 0.181345v -12.8097h 0.181345v 12.8097h 0.181345v 6.12995h 0.181345v -16.6092h 0.181345v 2.75639h
 0.181345v 7.72282h 0.181345v -10.4792h 0.36269v 10.4792h 0.181345v -10.4792h 0.181345v -4.34927h 0.181345v 2.01877h 0.181345v 12.8097h 0.181345v -4.34927h 0.181345v 4.34927h 0.181345v -7.72282h 0.181345v 3.37355h 0.181345v 10.4792h 0.181345v
 -13.8528h 0.181345v 13.8528h 0.181345v -6.12995h 0.181345v 6.12995h 0.181345v -13.8528h 0.181345v 13.8528h 0.181345v -6.12995h 0.181345v -7.72282h 0.181345v 34.8112h 0.181345v -39.8981h 0.181345v 5.08689h 0.544034v 3.37355h 0.181345v -6.12995h
 0.181345v 10.4792h 0.181345v -7.72282h 0.181345v 3.37355h 0.36269v 10.4792h 0.181345v -10.4792h 0.181345v -3.37355h 0.181345v -5.08689h 0.181345v 2.3305h 0.36269v 2.75639h 0.181345v 7.72282h 0.181345v 16.6092h 0.181345v -10.4792h 0.181345v 10.4792h
 0.181345v -27.0884h 0.181345v 16.6092h 0.181345v -6.12995h 0.181345v 6.12995h 0.36269v -13.8528h 0.181345v -5.08689h 0.181345v -3.79945h 0.181345v 6.12995h 0.181345v -6.12995h 0.181345v 12.2599h 0.181345v -8.46044h 0.181345v 12.8097h 0.181345v
 -10.4792h 0.181345v -2.3305h 0.181345v 2.3305h 0.181345v 2.75639h 0.181345v -5.08689h 0.181345v 5.08689h 0.544034v -7.10566h 0.181345v -7.34006h 0.181345v 7.34006h 0.181345v -9.5035h 0.181345v 7.72282h 0.181345v -7.72282h 0.181345v 4.68902h
 0.181345v -3.64596h 0.181345v -4.61685h 0.181345v 1.68154h 0.181345v 0.916542h 0.181345v -2.59809h 0.181345v 1.68154h 0.181345v -3.19464h 0.181345v -5.88805h 0.181345v 10.9749h 0.181345v -5.08689h 0.181345v 6.12995h 0.181345v -6.83325h 0.181345v
 2.2164h 0.181345v 0.817405h 0.544034v -7.21029h 0.181345v 0.530521h 0.181345v 2.97393h 0.181345v 9.83578h 0.181345v 10.4792h 0.181345v -12.8097h 0.181345v 12.8097h 0.181345v -15.745h 0.181345v 8.0222h 0.181345v 7.72282h 0.181345v -12.8097h 0.181345v
 12.8097h 0.181345v -2.3305h 0.181345v 39.8981h 0.181345v -10.4792h 0.181345v -16.6092h 0.544034v -4.34927h 0.36269v -8.46044h 0.181345v 12.8097h 0.36269v -4.34927h 0.181345v 31.4376h 0.181345v -31.4376h 0.181345v 4.34927h 0.36269v 16.6092h 0.181345v
 -16.6092h 0.181345v 6.12995h 0.181345v -13.8528h 0.181345v 24.332h 0.181345v 10.4792h 0.181345v -31.4376h 0.181345v 10.4792h 0.181345v -10.4792h 0.36269v 10.4792h 0.36269v 10.4792h 0.181345v -10.4792h 0.181345v -10.4792h 0.181345v 4.34927h 0.36269v
 -4.34927h 0.181345v -6.12995h 0.181345v 6.12995h 0.181345v 4.34927h 0.181345v 6.12995h 0.181345v -18.9397h 0.181345v 29.4189h 0.36269v -20.9584h 0.181345v 4.34927h 0.181345v 16.6092h 0.181345v -24.332h 0.181345v 24.332h 0.181345v -33.2183h 0.181345v
 6.12995h 0.181345v 2.75639h 0.181345v 34.8112h 0.181345v -31.4376h 0.181345v -3.37355h 0.181345v 7.72282h 0.181345v 6.12995h 0.181345v -6.12995h 0.181345v -12.8097h 0.181345v 18.9397h 0.181345v -16.6092h 0.181345v 6.12995h 0.181345v 10.4792h
 0.181345v -6.12995h 0.181345v -14.8285h 0.181345v 10.4792h 0.181345v -3.37355h 0.181345v 7.72282h 0.181345v -16.6092h 0.181345v 22.7391h 0.36269v -13.8528h 0.36269v 3.37355h 0.36269v 10.4792h 0.181345v -22.7391h 0.181345v 1.78068h 0.36269v 4.34927h
 0.181345v -4.34927h 0.544034v -1.78068h 0.181345v 22.7391h 0.181345v -24.332h 0.181345v 3.37355h 0.181345v -3.37355h 0.181345v -2.75639h 0.181345v 8.14872h 0.181345v -3.79945h 0.181345v 1.78068h 0.181345v 4.34927h 0.181345v -12.8097h 0.181345v
 23.2889h 0.181345v -7.72282h 0.181345v -14.4457h 0.181345v -1.12039h 0.181345v 1.12039h 0.181345v 11.6893h 0.181345v -11.6893h 0.181345v 1.21011h 0.181345v 2.75639h 0.181345v -1.44093h 0.181345v 4.81448h 0.181345v 7.10566h 0.181345v -5.08689h
 0.181345v -6.83325h 0.181345v -1.31546h 0.181345v 13.2356h 0.181345v -5.08689h 0.181345v -2.01877h 0.36269v 10.4792h 0.181345v -3.37355h 0.181345v 7.72282h 0.181345v -4.34927h 0.181345v -10.4792h 0.181345v -4.81448h 0.181345v 15.2937h 0.181345v
 -6.12995h 0.181345v 16.6092h 0.181345v -6.12995h 0.181345v -12.8097h 0.181345v 2.3305h 0.181345v 10.4792h 0.181345v -7.72282h 0.181345v -2.75639h 0.181345v -4.34927h 0.181345v 7.10566h 0.36269v -5.08689h 0.181345v 5.08689h 0.181345v -2.75639h
 0.36269v -9.16375h 0.181345v 6.83325h 0.181345v -2.01877h 0.181345v 10.4792h 0.36269v -6.12995h 0.181345v 6.12995h 0.181345v -13.8528h 0.181345v 13.8528h 0.181345v -3.37355h 0.181345v -2.75639h 0.544034v -6.12995h 0.181345v 6.12995h 0.181345v
 -6.12995h 0.181345v 8.88634h 0.181345v -2.75639h 0.181345v 2.75639h 0.181345v -5.08689h 0.36269v -8.14872h 0.181345v 8.14872h 0.181345v 5.08689h 0.181345v -8.88634h 0.181345v -3.0338h 0.181345v 11.9201h 0.181345v -16.6092h 0.181345v 9.5035h
 0.181345v 14.8285h 0.181345v -12.8097h 0.181345v -2.01877h 0.36269v -4.81448h 0.181345v 25.7729h 0.181345v -13.8528h 0.181345v -2.75639h 0.181345v 6.12995h 0.181345v -6.12995h 0.181345v -12.8097h 0.181345v 10.4792h 0.544034v -3.79945h 0.181345v
 8.88634h 0.181345v -7.10566h 0.181345v -3.37355h 0.181345v 5.39232h 0.181345v -3.79945h 0.181345v -1.59287h 0.181345v -2.75639h 0.181345v 1.31546h 0.181345v -1.31546h 0.181345v 2.75639h 0.181345v 7.72282h 0.181345v -9.16375h 0.36269v -1.31546h
 0.181345v 1.31546h 0.181345v 9.16375h 0.181345v -7.72282h 0.181345v -8.0222h 0.181345v -3.19464h 0.181345v 4.11118h 0.181345v 7.10566h 0.181345v -6.12995h 0.181345v 3.37355h 0.181345v -1.21011h 0.181345v 11.6893h 0.181345v -4.34927h 0.181345v
 -9.5035h 0.181345v 11.5223h 0.181345v -8.14872h 0.181345v -3.37355h 0.181345v 4.68902h 0.181345v 6.83325h 0.181345v -12.498h 0.36269v 7.10566h 0.181345v 1.59287h 0.181345v -6.67976h 0.181345v 8.46044h 0.181345v -6.12995h 0.181345v 8.14872h 0.181345v
 -8.14872h 0.544034v -6.94735h 0.181345v 1.68154h 0.181345v 8.0222h 0.181345v -6.12995h 0.181345v 6.12995h 0.181345v 1.59287h 0.181345v -7.72282h 0.181345v 4.68902h 0.36269v -1.31546h 0.181345v -7.72282h 0.36269v 2.45701h 0.36269v 8.0222h 0.181345v
 -5.08689h 0.181345v 6.67976h 0.181345v -5.55938h 0.36269v -3.13916h 0.181345v 0.975713h 0.181345v -1.89225h 0.181345v -0.864138h 0.181345v 2.75639h 0.181345v 2.16344h 0.36269v -2.16344h 0.181345v -5.08689h 0.181345v 8.46044h 0.181345v -6.94735h
 0.181345v 9.70374h 0.181345v -6.12995h 0.181345v 2.16344h 0.181345v -1.12039h 0.181345v -3.79945h 0.181345v 1.78068h 0.181345v 4.34927h 0.181345v -6.12995h 0.181345v 7.44541h 0.181345v -6.58127h 0.181345v 0.916542h 0.181345v 2.01877h 0.181345v
 -6.83325h 0.181345v 5.79019h 0.181345v 1.04306h 0.181345v 2.3305h 0.36269v -3.37355h 0.181345v -2.75639h 0.181345v -4.96643h 0.181345v 9.88626h 0.181345v -9.2691h 0.181345v 2.75639h 0.36269v -3.9665h 0.181345v 5.55938h 0.36269v -4.34927h 0.181345v
 0.643429h 0.181345v 6.46223h 0.181345v -7.72282h 0.181345v -1.16352h 0.181345v 3.79945h 0.181345v -4.87979h 0.544034v 1.08034h 0.181345v 2.42411h 0.181345v -5.90924h 0.181345v 8.79767h 0.181345v -5.86236h 0.181345v -1.04306h 0.181345v 6.90541h
 0.181345v -4.74197h 0.181345v -6.51271h 0.181345v 11.2547h 0.181345v -7.40114h 0.181345v 4.51271h 0.181345v -7.98349h 0.181345v 2.52558h 0.181345v 3.60437h 0.181345v -4.0557h 0.181345v 2.93531h 0.181345v -3.37355h 0.181345v -3.4597h 0.181345v
 9.16375h 0.181345v -5.26581h 0.181345v 2.40479h 0.181345v -1.00826h 0.181345v 1.53878h 0.181345v -1.53878h 0.181345v 3.86928h 0.181345v -1.78068h 0.181345v 2.42411h 0.181345v -2.42411h 0.181345v -0.549817h 0.181345v 3.64596h 0.181345v 1.44093h
 0.181345v 0.775468h 0.181345v -7.40114h 0.36269v 7.40114h 0.181345v -5.31254h 0.181345v 6.12995h 0.181345v -2.3305h 0.181345v -3.79945h 0.181345v 6.12995h 0.181345v -6.12995h 0.181345v 7.91063h 0.181345v 2.01877h 0.181345v -1.04306h 0.181345v
 -4.34927h 0.181345v -3.37355h 0.181345v 5.83056h 0.181345v -0.864138h 0.181345v 3.79945h 0.181345v -6.12995h 0.181345v 2.3305h 0.181345v 10.4792h 0.181345v -13.513h 0.181345v 4.81448h 0.181345v -1.78068h 0.181345v -1.59287h 0.181345v 4.34927h
 0.181345v 9.5035h 0.181345v -8.46044h 0.181345v 8.46044h 0.181345v -8.46044h 0.181345v -2.93531h 0.181345v 4.0557h 0.181345v -1.12039h 0.181345v -2.01877h 0.181345v 3.13916h 0.181345v 2.52558h 0.181345v -1.31546h 0.181345v -6.12995h 0.181345v
 -1.59287h 0.181345v 6.51271h 0.181345v 2.52558h 0.181345v -6.58127h 0.181345v 4.0557h 0.181345v -4.0557h 0.181345v 0.916542h 0.181345v -4.11118h 0.181345v 5.08689h 0.181345v 4.68902h 0.181345v -11.7947h 0.181345v 7.10566h 0.181345v 7.72282h
 0.181345v -9.61507h 0.181345v 1.89225h 0.181345v -2.75639h 0.181345v 0.864138h 0.36269v 0.916542h 0.181345v -0.916542h 0.181345v -2.45701h 0.181345v 7.72282h 0.181345v -6.94735h 0.181345v 3.5738h 0.544034v 4.68902h 0.181345v -1.31546h 0.181345v
 -5.26581h 0.36269v 1.89225h 0.181345v -6.46223h 0.181345v 11.1512h 0.181345v -4.68902h 0.181345v -2.75639h 0.181345v 3.79945h 0.36269v -4.61685h 0.181345v 5.73724h 0.181345v 2.52558h 0.181345v -2.52558h 0.36269v -3.13916h 0.36269v -1.78068h
 0.181345v 1.78068h 0.181345v -1.78068h 0.725379v 7.44541h 0.181345v -1.31546h 0.181345v 6.12995h 0.181345v -10.4792h 0.181345v 3.13916h 0.181345v -1.12039h 0.36269v -3.79945h 0.181345v -7.21029h 0.181345v 1.08034h 0.181345v 11.0498h 0.181345v
 -6.51271h 0.181345v 3.37355h 0.181345v -1.78068h 0.181345v -1.59287h 0.36269v 2.45701h 0.181345v -0.864138h 0.181345v 3.79945h 0.181345v 5.08689h 0.181345v -9.70374h 0.181345v -0.775468h 0.181345v 3.37355h 0.181345v -4.11118h 0.181345v 4.11118h
 0.181345v -4.11118h 0.181345v -4.34927h 0.181345v 3.64596h 0.181345v 5.79019h 0.181345v -1.89225h 0.36269v -0.864138h 0.181345v 4.91984h 0.181345v -3.13916h 0.181345v -5.48652h 0.181345v 11.1512h 0.181345v -14.6557h 0.36269v 11.0097h 0.36269v
 -3.79945h 0.181345v 1.78068h 0.181345v -3.37355h 0.181345v -1.44093h 0.181345v 4.81448h 0.181345v 0.975713h 0.181345v -1.89225h 0.181345v -2.45701h 0.181345v 2.45701h 0.181345v -5.2134h 0.181345v 11.7947h 0.181345v -6.58127h 0.181345v 2.93531h
 0.181345v -3.79945h 0.181345v -1.59287h 0.181345v 9.03828h 0.181345v -9.03828h 0.181345v -1.44093h 0.181345v 5.79019h 0.181345v -3.5738h 0.36269v -1.51309h 0.181345v 6.12995h 0.181345v -3.79945h 0.181345v -0.817405h 0.181345v -0.775468h 0.181345v
 0.775468h 0.181345v 1.68154h 0.181345v -0.864138h 0.181345v -2.3305h 0.181345v 7.25033h 0.181345v -4.91984h 0.36269v -2.3305h 0.181345v -1.37534h 0.181345v 2.88843h 0.181345v 2.59809h 0.181345v -1.78068h 0.181345v -5.55938h 0.181345v -3.13916h
 0.181345v 11.4549h 0.181345v -7.10566h 0.181345v 4.34927h 0.181345v -0.817405h 0.181345v 2.59809h 0.181345v -6.12995h 0.181345v 7.10566h 0.181345v -9.43616h 0.181345v 5.86236h 0.181345v -3.53186h 0.181345v -1.21011h 0.181345v 1.21011h 0.181345v
 -3.86928h 0.181345v 1.00826h 0.36269v 4.17648h 0.181345v -2.52558h 0.181345v 0.592951h 0.181345v 4.14902h 0.181345v 0.817405h 0.181345v -7.21029h 0.181345v 4.87979h 0.181345v -2.63593h 0.36269v -2.24386h 0.181345v 0.530521h 0.181345v 0.549817h
 0.181345v -1.08034h 0.181345v -1.95346h 0.181345v 4.19732h 0.181345v -0.592951h 0.181345v 2.52558h 0.181345v -3.64596h 0.181345v 4.34927h 0.181345v 6.12995h 0.181345v -11.0097h 0.36269v 2.24386h 0.181345v 4.14902h 0.181345v -2.2164h 0.181345v
 -3.09614h 0.181345v 3.09614h 0.181345v -1.31546h 0.181345v 11.7947h 0.181345v -9.03828h 0.181345v -0.737625h 0.181345v 4.11118h 0.181345v -4.11118h 0.181345v 7.25033h 0.181345v -9.2691h 0.181345v 2.75639h 0.181345v 10.4792h 0.181345v -11.2168h
 0.181345v 9.77591h 0.181345v -4.68902h 0.181345v -3.5738h 0.181345v -2.88843h 0.181345v 4.56998h 0.181345v 1.89225h 0.181345v -0.975713h 0.181345v 0.975713h 0.181345v 7.72282h 0.36269v 1.78068h 0.181345v -4.81448h 0.36269v -2.52558h 0.181345v
 -5.73724h 0.181345v 6.94735h 0.181345v -5.26581h 0.181345v 2.93531h 0.181345v -12.018h 0.181345v 7.40114h 0.181345v 1.68154h 0.181345v -1.68154h 0.181345v 9.70374h 0.181345v -7.10566h 0.181345v -5.48652h 0.544034v -2.97393h 0.181345v 0.549817h
 0.181345v 11.0498h 0.181345v -3.13916h 0.181345v 2.01877h 0.181345v -3.79945h 0.181345v -6.12995h 0.181345v 5.31254h 0.181345v 4.61685h 0.181345v -9.35883h 0.181345v 3.9665h 0.181345v 0.775468h 0.181345v 2.59809h 0.181345v -7.34006h 0.181345v
 1.21011h 0.181345v 2.75639h 0.181345v 0.775468h 0.181345v -5.31254h 0.181345v -2.0886h 0.181345v 5.88805h 0.181345v 7.25033h 0.181345v -7.95364h 0.181345v 4.81448h 0.36269v 2.01877h 0.181345v -4.61685h 0.181345v 11.2966h 0.181345v -9.61507h
 0.181345v -0.864138h 0.181345v 3.79945h 0.181345v 3.64596h 0.181345v 4.81448h 0.181345v -1.78068h 0.181345v -1.59287h 0.181345v -1.44093h 0.181345v -5.66473h 0.36269v 10.4792h 0.181345v -7.34006h 0.181345v 3.9665h 0.181345v -1.44093h 0.181345v
 1.44093h 0.181345v -5.08689h 0.181345v 1.12039h 0.181345v -1.12039h 0.181345v 5.08689h 0.181345v -1.44093h 0.181345v 1.44093h 0.36269v 7.72282h 0.181345v -7.72282h 0.181345v 3.37355h 0.181345v 7.10566h 0.181345v -7.10566h 0.181345v -1.78068h
 0.181345v 1.78068h 0.36269v 7.10566h 0.36269v -10.4792h 0.181345v 13.8528h 0.181345v -8.46044h 0.181345v -2.01877h 0.36269v -4.81448h 0.181345v 15.2937h 0.181345v -3.37355h 0.181345v -7.10566h 0.181345v 20.9584h 0.181345v -10.4792h 0.181345v
 -8.46044h 0.181345v 5.08689h 0.181345v -10.4792h 0.181345v 13.8528h 0.181345v -12.2599h 0.181345v -1.59287h 0.181345v 1.59287h 0.36269v 6.12995h 0.181345v 2.75639h 0.181345v -10.4792h 0.181345v 5.39232h 0.181345v -10.4792h 0.181345v 8.46044h
 0.181345v 2.01877h 0.181345v -3.79945h 0.181345v 6.12995h 0.181345v -7.72282h 0.181345v -3.9665h 0.181345v 5.55938h 0.36269v 6.12995h 0.181345v -9.16375h 0.181345v 6.83325h 0.181345v 2.3305h 0.181345v 6.12995h 0.181345v -15.2937h 0.181345v 9.16375h
 0.181345v -6.12995h 0.181345v -1.59287h 0.544034v 24.332h 0.181345v -28.2985h 0.181345v 7.34006h 0.181345v -3.37355h 0.181345v -2.75639h 0.181345v 10.4792h 0.181345v -6.12995h 0.36269v 6.12995h 0.181345v -13.8528h 0.181345v 9.5035h 0.181345v
 -6.12995h 0.181345v -4.34927h 0.181345v 7.10566h 0.181345v 13.8528h 0.181345v -3.37355h 0.181345v -5.08689h 0.181345v -2.01877h 0.36269v 4.34927h 0.181345v -4.34927h 0.181345v -6.12995h 0.181345v 13.2356h 0.181345v -8.88634h 0.36269v -4.34927h
 0.181345v -3.37355h 0.181345v 7.72282h 0.181345v -3.0338h 0.181345v -1.31546h 0.181345v -1.21011h 0.181345v 1.21011h 0.181345v 16.6092h 0.181345v -6.12995h 0.181345v -7.72282h 0.181345v -9.70374h 0.181345v 5.73724h 0.181345v 2.52558h 0.181345v
 -1.31546h 0.181345v 8.14872h 0.181345v -2.01877h 0.181345v -3.37355h 0.181345v -10.4792h 0.181345v 7.72282h 0.36269v 8.14872h 0.181345v -5.39232h 0.181345v 1.59287h 0.36269v 1.78068h 0.181345v -1.78068h 0.36269v 3.79945h 0.181345v -9.35883h
 0.181345v 11.6893h 0.181345v -11.6893h 0.181345v 2.52558h 0.36269v 4.81448h 0.181345v 10.4792h 0.181345v 10.4792h 0.181345v -22.7391h 0.181345v 1.78068h 0.36269v 7.10566h 0.181345v -11.9201h 0.181345v 1.44093h 0.181345v 3.37355h 0.181345v 2.01877h
 0.181345v -8.14872h 0.181345v 2.75639h 0.36269v -2.75639h 0.181345v 6.12995h 0.181345v -7.34006h 0.181345v 5.55938h 0.181345v -4.34927h 0.181345v -6.94735h 0.181345v 6.94735h 0.181345v 4.34927h 0.181345v -7.72282h 0.181345v 11.5223h 0.181345v
 -8.14872h 0.181345v -2.3305h 0.181345v 2.3305h 0.181345v -2.3305h 0.181345v 3.64596h 0.181345v 4.81448h 0.181345v -12.2599h 0.181345v 4.91984h 0.181345v 1.21011h 0.36269v -7.72282h 0.181345v 7.72282h 0.181345v -8.46044h 0.181345v 6.12995h 0.181345v
 -5.39232h 0.181345v 3.37355h 0.181345v -0.916542h 0.181345v 2.93531h 0.181345v -8.76587h 0.181345v 7.72282h 0.181345v -5.79019h 0.181345v 1.44093h 0.181345v 2.45701h 0.181345v -6.99408h 0.181345v 11.0498h 0.181345v -12.1301h 0.181345v 0.530521h
 0.181345v 7.5439h 0.181345v -3.89794h 0.181345v 2.2164h 0.181345v -0.775468h 0.181345v -2.11296h 0.181345v -0.643429h 0.181345v 0.643429h 0.181345v -2.97393h 0.181345v 5.08689h 0.181345v -9.70374h 0.181345v 7.59078h 0.181345v -0.643429h 0.181345v
 4.34927h 0.181345v -5.55938h 0.181345v -2.16344h 0.181345v 4.01698h 0.181345v -5.45791h 0.181345v 5.45791h 0.181345v 3.70584h 0.181345v -7.21029h 0.181345v 4.87979h 0.181345v -2.01877h 0.181345v -2.3305h 0.181345v 5.86236h 0.181345v 4.61685h
 0.181345v -6.12995h 0.181345v 6.12995h 0.181345v -5.39232h 0.36269v -3.37355h 0.181345v 9.88626h 0.181345v -6.51271h 0.181345v 5.39232h 0.181345v -2.93531h 0.181345v 1.89225h 0.181345v 9.5035h 0.181345v -10.4792h 0.181345v 3.13916h 0.181345v 3.9665h
 0.181345v -1.44093h 0.181345v -1.31546h 0.181345v 2.75639h 0.181345v -2.75639h 0.181345v -1.21011h 0.36269v 9.35883h 0.181345v -2.01877h 0.181345v 4.34927h 0.36269v 6.12995h 0.181345v -3.37355h 0.181345v 3.37355h 0.181345v -13.8528h 0.181345v
 5.39232h 0.181345v 2.3305h 0.181345v -2.3305h 0.181345v 5.08689h 0.36269v 7.72282h 0.181345v 6.12995h 0.181345v -10.4792h 0.36269v 4.34927h 0.181345v 27.0884h 0.181345v -31.4376h 0.181345v 20.9584h 0.181345v -10.4792h 0.181345v 20.9584h 0.181345v
 -10.4792h 0.181345v -20.9584h 0.181345v 4.34927h 0.544034v 27.0884h 0.36269v -10.4792h 0.181345v -16.6092h 0.181345v 27.0884h 0.36269v -34.8112h 0.181345v 13.8528h 0.181345v 10.4792h 0.181345v -10.4792h 0.181345v -6.12995h 0.181345v 16.6092h
 0.181345v 10.4792h 0.181345v -20.9584h 0.181345v 20.9584h 0.725379v -10.4792h 0.36269v -20.9584h 0.181345v 10.4792h 0.36269v 10.4792h 0.181345v -16.6092h 0.181345v 27.0884h 0.36269v -10.4792h 0.544034v -10.4792h 0.181345v 10.4792h 0.181345v
 -10.4792h 0.181345v 10.4792h 0.36269v 10.4792h 0.181345v -10.4792h 0.181345v -16.6092h 0.181345v 27.0884h 0.181345v -10.4792h 0.36269v 10.4792h 0.181345v -20.9584h 0.181345v 20.9584h 0.181345v -20.9584h 0.181345v 20.9584h 0.181345v -20.9584h
 0.181345v 20.9584h 0.181345v -20.9584h 0.181345v 20.9584h 0.181345v -27.0884h 0.181345v 27.0884h 0.181345v -20.9584h 0.181345v 20.9584h 0.181345v -10.4792h 0.181345v 10.4792h 0.181345v -10.4792h 0.36269v -16.6092h 0.181345v 27.0884h 0.906724v
 -10.4792h 0.181345v -20.9584h 0.544034v 20.9584h 0.181345v 10.4792h 0.181345v -20.9584h 0.181345v 10.4792h 0.36269v -16.6092h 0.181345v 16.6092h 0.36269v 10.4792h 0.181345v -20.9584h 0.181345v 20.9584h 0.36269v -10.4792h 0.181345v 10.4792h 0.181345v
 -10.4792h 0.181345v -10.4792h 0.181345v 10.4792h 0.544034v 10.4792h 0.181345v -20.9584h 0.36269v 10.4792h 0.181345v -10.4792h 0.36269v -6.12995h 0.181345v 27.0884h 0.181345v -10.4792h 0.36269v 10.4792h 0.544034v -10.4792h 0.181345v 10.4792h
 0.181345v -10.4792h 0.181345v 10.4792h 0.181345v -20.9584h 0.181345v 10.4792h 0.181345v 10.4792h 0.181345v -20.9584h 0.181345v 10.4792h 0.36269v 10.4792h 0.181345v -20.9584h 0.544034v 10.4792h 0.181345v 10.4792h 0.36269v -10.4792h 0.181345v
 -10.4792h 0.181345v 10.4792h 1.08807v 10.4792h 0.181345v -20.9584h 0.181345v 10.4792h 0.181345v 10.4792h 0.544034v -20.9584h 0.181345v 20.9584h 0.181345v -20.9584h 0.181345v 10.4792h 0.181345v 10.4792h 0.181345v -20.9584h 0.181345v 10.4792h
 0.181345v 10.4792h 0.181345v -10.4792h 0.181345v 10.4792h 0.544034v -10.4792h 0.181345v 10.4792h 0.181345v -10.4792h 0.36269v -10.4792h 0.36269v -6.12995h 0.181345v 16.6092h 0.181345v 10.4792h 0.544034v -20.9584h 0.181345v 20.9584h 0.544034v
 -10.4792h 0.181345v 10.4792h 0.181345v -20.9584h 0.181345v 20.9584h 0.181345v -20.9584h 0.181345v 10.4792h 0.181345v 10.4792h 0.181345v -20.9584h 0.181345v 20.9584h 0.36269v -27.0884h 0.181345v 16.6092h 0.181345v 10.4792h 0.181345v -10.4792h
 0.181345v -10.4792h 0.181345v 10.4792h 0.181345v 10.4792h 0.181345v -10.4792h 0.181345v 10.4792h 0.181345v -10.4792h 0.181345v 10.4792h 0.181345v -20.9584h 0.181345v 20.9584h 0.181345v -20.9584h 0.181345v 20.9584h 0.181345v -20.9584h 0.181345v
 10.4792h 0.181345v 10.4792h 0.181345v -10.4792h 0.181345v 10.4792h 0.181345v -10.4792h 0.181345v 10.4792h 0.181345v -10.4792h 0.36269v 10.4792h 0.181345v -10.4792h 0.36269v 10.4792h 0.181345v -10.4792h 0.181345v 10.4792h 0.181345v -10.4792h
 0.181345v 10.4792h 0.181345v -10.4792h 0.36269v -10.4792h 0.181345v 10.4792h 0.181345v -10.4792h 0.181345v 20.9584h 1.08807v -10.4792h 0.181345v 10.4792h 0.544034v -10.4792h 0.181345v 10.4792h 0.36269v -10.4792h 0.906724v -16.6092h 0.181345v
 27.0884h 0.181345v -10.4792h 0.181345v 10.4792h 0.181345v -10.4792h 0.181345v 10.4792h 0.181345v -10.4792h 0.36269v 10.4792h 0.36269v -20.9584h 0.36269v 10.4792h 0.181345v 10.4792h 0.36269v -20.9584h 0.36269v 10.4792h 0.181345v 10.4792h 0.181345v
 -10.4792h 0.36269v 10.4792h 0.36269v -20.9584h 0.181345v 10.4792h 0.181345v -10.4792h 0.181345v 10.4792h 0.544034v -10.4792h 0.36269v 20.9584h 0.181345v -27.0884h 0.181345v 27.0884h 0.36269v -10.4792h 0.36269v 10.4792h 0.181345v -10.4792h 0.181345v
 10.4792h 0.725379v -20.9584h 0.181345" fill="none" stroke="black"/>
<path d="M57.1929,280.151h 453.543" fill="none" stroke="black"/>
<path d="M57.1929,272.68v 7.47068" fill="none" stroke="black"/>
<path d="M75.3318,276.415v 3.73534" fill="none" stroke="black"/>
<path d="M93.4707,276.415v 3.73534" fill="none" stroke="black"/>
<path d="M111.61,276.415v 3.73534" fill="none" stroke="black"/>
<path d="M129.749,276.415v 3.73534" fill="none" stroke="black"/>
<path d="M147.887,272.68v 7.47068" fill="none" stroke="black"/>
<path d="M166.026,276.415v 3.73534" fill="none" stroke="black"/>
<path d="M184.165,276.415v 3.73534" fill="none" stroke="black"/>
<path d="M202.304,276.415v 3.73534" fill="none" stroke="black"/>
<path d="M220.443,276.415v 3.73534" fill="none" stroke="black"/>
<path d="M238.582,272.68v 7.47068" fill="none" stroke="black"/>
<path d="M256.721,276.415v 3.73534" fill="none" stroke="black"/>
<path d="M274.86,276.415v 3.73534" fill="none" stroke="black"/>
<path d="M292.999,276.415v 3.73534" fill="none" stroke="black"/>
<path d="M311.138,276.415v 3.73534" fill="none" stroke="black"/>
<path d="M329.277,272.68v 7.47068" fill="none" stroke="black"/>
<path d="M347.415,276.415v 3.73534" fill="none" stroke="black"/>
<path d="M365.554,276.415v 3.73534" fill="none" stroke="black"/>
<path d="M383.693,276.415v 3.73534" fill="none" stroke="black"/>
<path d="M401.832,276.415v 3.73534" fill="none" stroke="black"/>
<path d="M419.971,272.68v 7.47068" fill="none" stroke="black"/>
<path d="M438.11,276.415v 3.73534" fill="none" stroke="black"/>
<path d="M456.249,276.415v 3.73534" fill="none" stroke="black"/>
<path d="M474.388,276.415v 3.73534" fill="none" stroke="black"/>
<path d="M492.527,276.415v 3.73534" fill="none" stroke="black"/>
<path d="M510.666,272.68v 7.47068" fill="none" stroke="black"/>
<path d="M510.666,272.68v 7.47068" fill="none" stroke="black"/>
<text xml:space="preserve" x="54.3523" y="290.27" fill="black" font-size="10.4952" font-family="Helvetica">0</text>
<text xml:space="preserve" x="139.569" y="290.27" fill="black" font-size="10.4952" font-family="Helvetica">500</text>
<text xml:space="preserve" x="227.449" y="290.27" fill="black" font-size="10.4952" font-family="Helvetica">1000</text>
<text xml:space="preserve" x="318.288" y="290.27" fill="black" font-size="10.4952" font-family="Helvetica">1500</text>
<text xml:space="preserve" x="408.831" y="290.27" fill="black" font-size="10.4952" font-family="Helvetica">2000</text>
<text xml:space="preserve" x="499.67" y="290.27" fill="black" font-size="10.4952" font-family="Helvetica">2500</text>
<text xml:space="preserve" x="265.323" y="301.218" fill="black" font-size="10.4952" font-family="Helvetica">Channel</text>
<path d="M57.1929,280.151v -249.023" fill="none" stroke="black"/>
<path d="M63.9961,280.151h -6.80315" fill="none" stroke="black"/>
<path d="M63.9961,277.394h -6.80315" fill="none" stroke="black"/>
<path d="M63.9961,275.064h -6.80315" fill="none" stroke="black"/>
<path d="M63.9961,273.045h -6.80315" fill="none" stroke="black"/>
<path d="M63.9961,271.264h -6.80315" fill="none" stroke="black"/>
<path d="M70.7992,269.671h -13.6063" fill="none" stroke="black"/>
<text xml:space="preserve" x="49.0263" y="273.404" fill="black" font-size="10.4952" font-family="Helvetica">1</text>
<path d="M63.9961,259.192h -6.80315" fill="none" stroke="black"/>
<path d="M63.9961,253.062h -6.80315" fill="none" stroke="black"/>
<path d="M63.9961,248.713h -6.80315" fill="none" stroke="black"/>
<path d="M63.9961,245.339h -6.80315" fill="none" stroke="black"/>
<path d="M63.9961,242.583h -6.80315" fill="none" stroke="black"/>
<path d="M63.9961,240.252h -6.80315" fill="none" stroke="black"/>
<path d="M63.9961,238.234h -6.80315" fill="none" stroke="black"/>
<path d="M63.9961,236.453h -6.80315" fill="none" stroke="black"/>
<path d="M70.7992,234.86h -13.6063" fill="none" stroke="black"/>
<text xml:space="preserve" x="41.629" y="238.489" fill="black" font-size="10.4952" font-family="Helvetica">10</text>
<path d="M63.9961,224.381h -6.80315" fill="none" stroke="black"/>
<path d="M63.9961,218.251h -6.80315" fill="none" stroke="black"/>
<path d="M63.9961,213.902h -6.80315" fill="none" stroke="black"/>
<path d="M63.9961,210.528h -6.80315" fill="none" stroke="black"/>
<path d="M63.9961,207.772h -6.80315" fill="none" stroke="black"/>
<path d="M63.9961,205.441h -6.80315" fill="none" stroke="black"/>
<path d="M63.9961,203.423h -6.80315" fill="none" stroke="black"/>
<path d="M63.9961,201.642h -6.80315" fill="none" stroke="black"/>
<path d="M70.7992,200.049h -13.6063" fill="none" stroke="black"/>
<text xml:space="preserve" x="49.0263" y="200.319" fill="black" font-size="7.16345" font-family="Helvetica">2</text>
<text xml:space="preserve" x="38.0783" y="204.757" fill="black" font-size="10.4952" font-family="Helvetica">10</text>
<path d="M63.9961,189.57h -6.80315" fill="none" stroke="black"/>
<path d="M63.9961,183.44h -6.80315" fill="none" stroke="black"/>
<path d="M63.9961,179.091h -6.80315" fill="none" stroke="black"/>
<path d="M63.9961,175.717h -6.80315" fill="none" stroke="black"/>
<path d="M63.9961,172.961h -6.80315" fill="none" stroke="black"/>
<path d="M63.9961,170.63h -6.80315" fill="none" stroke="black"/>
<path d="M63.9961,168.611h -6.80315" fill="none" stroke="black"/>
<path d="M63.9961,166.831h -6.80315" fill="none" stroke="black"/>
<path d="M70.7992,165.238h -13.6063" fill="none" stroke="black"/>
<text xml:space="preserve" x="49.0263" y="165.108" fill="black" font-size="7.16345" font-family="Helvetica">3</text>
<text xml:space="preserve" x="38.0783" y="169.842" fill="black" font-size="10.4952" font-family="Helvetica">10</text>
<path d="M63.9961,154.759h -6.80315" fill="none" stroke="black"/>
<path d="M63.9961,148.629h -6.80315" fill="none" stroke="black"/>
<path d="M63.9961,144.279h -6.80315" fill="none" stroke="black"/>
<path d="M63.9961,140.906h -6.80315" fill="none" stroke="black"/>
<path d="M63.9961,138.149h -6.80315" fill="none" stroke="black"/>
<path d="M63.9961,135.819h -6.80315" fill="none" stroke="black"/>
<path d="M63.9961,133.8h -6.80315" fill="none" stroke="black"/>
<path d="M63.9961,132.019h -6.80315" fill="none" stroke="black"/>
<path d="M70.7992,130.427h -13.6063" fill="none" stroke="black"/>
<text xml:space="preserve" x="49.0263" y="130.488" fill="black" font-size="7.16345" font-family="Helvetica">4</text>
<text xml:space="preserve" x="38.0783" y="134.927" fill="black" font-size="10.4952" font-family="Helvetica">10</text>
<path d="M63.9961,119.947h -6.80315" fill="none" stroke="black"/>
<path d="M63.9961,113.817h -6.80315" fill="none" stroke="black"/>
<path d="M63.9961,109.468h -6.80315" fill="none" stroke="black"/>
<path d="M63.9961,106.095h -6.80315" fill="none" stroke="black"/>
<path d="M63.9961,103.338h -6.80315" fill="none" stroke="black"/>
<path d="M63.9961,101.008h -6.80315" fill="none" stroke="black"/>
<path d="M63.9961,98.9889h -6.80315" fill="none" stroke="black"/>
<path d="M63.9961,97.2083h -6.80315" fill="none" stroke="black"/>
<path d="M70.7992,95.6154h -13.6063" fill="none" stroke="black"/>
<text xml:space="preserve" x="49.0263" y="95.5731" fill="black" font-size="7.16345" font-family="Helvetica">5</text>
<text xml:space="preserve" x="38.0783" y="100.307" fill="black" font-size="10.4952" font-family="Helvetica">10</text>
<path d="M63.9961,85.1362h -6.80315" fill="none" stroke="black"/>
<path d="M63.9961,79.0062h -6.80315" fill="none" stroke="black"/>
<path d="M63.9961,74.657h -6.80315" fill="none" stroke="black"/>
<path d="M63.9961,71.2834h -6.80315" fill="none" stroke="black"/>
<path d="M63.9961,68.527h -6.80315" fill="none" stroke="black"/>
<path d="M63.9961,66.1965h -6.80315" fill="none" stroke="black"/>
<path d="M63.9961,64.1778h -6.80315" fill="none" stroke="black"/>
<path d="M63.9961,62.3971h -6.80315" fill="none" stroke="black"/>
<path d="M70.7992,60.8042h -13.6063" fill="none" stroke="black"/>
<text xml:space="preserve" x="49.0263" y="60.6579" fill="black" font-size="7.16345" font-family="Helvetica">6</text>
<text xml:space="preserve" x="38.0783" y="65.3921" fill="black" font-size="10.4952" font-family="Helvetica">10</text>
<path d="M63.9961,50.325h -6.80315" fill="none" stroke="black"/>
<path d="M63.9961,44.1951h -6.80315" fill="none" stroke="black"/>
<path d="M63.9961,39.8458h -6.80315" fill="none" stroke="black"/>
<path d="M63.9961,36.4722h -6.80315" fill="none" stroke="black"/>
<path d="M63.9961,33.7158h -6.80315" fill="none" stroke="black"/>
<path d="M63.9961,31.3853h -6.80315" fill="none" stroke="black"/>
<g transform="rotate(-90,26.5385,191.442)">
<text xml:space="preserve" x="26.5385" y="191.442" fill="black" font-size="10.4952" font-family="Helvetica">Counts/Channel</text>
</g>
<text xml:space="preserve" x="404.097" y="60.6579" fill="black" font-size="14.7788" font-family="Helvetica" font-weight="bold"> = 2.4879 MeV</text>
<text xml:space="preserve" x="398.179" y="63.9127" fill="black" font-size="10.0192" font-family="Helvetica" font-weight="bold">p</text>
<text xml:space="preserve" x="389.006" y="60.6579" fill="black" font-size="14.7788" font-family="Helvetica" font-weight="bold">E</text>
<path d="M262.163,163.797v 26.1537" fill="none" stroke="black"/>
<path d="M264.454,189.951l -2.29122, 3.9685l -2.29122, -3.9685z" fill="black"/>
<path d="M264.454,189.951l -2.29122, 3.9685l -2.29122, -3.9685h 4.58243z" fill="none" stroke="black"/>
<text xml:space="preserve" x="266.803" y="161.853" fill="black" font-size="10.4952" font-family="Helvetica" font-weight="bold">_1 	1.369 MeV</text>
<text xml:space="preserve" x="260.293" y="161.853" fill="black" font-size="10.4952" font-family="Times">&#0945;</text>
<path d="M184.528,130.427v 30.8427" fill="none" stroke="black"/>
<path d="M186.819,161.269l -2.29122, 3.9685l -2.29122, -3.9685z" fill="black"/>
<path d="M186.819,161.269l -2.29122, 3.9685l -2.29122, -3.9685h 4.58243z" fill="none" stroke="black"/>
<text xml:space="preserve" x="172.117" y="127.529" fill="black" font-size="10.4952" font-family="Helvetica" font-weight="bold"># p_1 	0.844 MeV</text>
<path d="M210.104,148.629v 12.6407" fill="none" stroke="black"/>
<path d="M212.395,161.269l -2.29122, 3.9685l -2.29122, -3.9685z" fill="black"/>
<path d="M212.395,161.269l -2.29122, 3.9685l -2.29122, -3.9685h 4.58243z" fill="none" stroke="black"/>
<text xml:space="preserve" x="197.564" y="144.099" fill="black" font-size="10.4952" font-family="Helvetica" font-weight="bold"># p_2 	1.015 MeV</text>
<path d="M497.611,269.671h 13.0543" fill="none" stroke="black"/>
<path d="M504.138,259.192h 6.52716" fill="none" stroke="black"/>
<path d="M504.138,253.062h 6.52716" fill="none" stroke="black"/>
<path d="M504.138,248.713h 6.52716" fill="none" stroke="black"/>
<path d="M504.138,245.339h 6.52716" fill="none" stroke="black"/>
<path d="M504.138,242.583h 6.52716" fill="none" stroke="black"/>
<path d="M504.138,240.252h 6.52716" fill="none" stroke="black"/>
<path d="M504.138,238.234h 6.52716" fill="none" stroke="black"/>
<path d="M504.138,236.453h 6.52716" fill="none" stroke="black"/>
<path d="M497.611,234.86h 13.0543" fill="none" stroke="black"/>
<path d="M504.138,224.381h 6.52716" fill="none" stroke="black"/>
<path d="M504.138,218.251h 6.52716" fill="none" stroke="black"/>
<path d="M504.138,213.902h 6.52716" fill="none" stroke="black"/>
<path d="M504.138,210.528h 6.52716" fill="none" stroke="black"/>
<path d="M504.138,207.772h 6.52716" fill="none" stroke="black"/>
<path d="M504.138,205.441h 6.52716" fill="none" stroke="black"/>
<path d="M504.138,203.423h 6.52716" fill="none" stroke="black"/>
<path d="M504.138,201.642h 6.52716" fill="none" stroke="black"/>
<path d="M497.611,200.049h 13.0543" fill="none" stroke="black"/>
<path d="M504.138,189.57h 6.52716" fill="none" stroke="black"/>
<path d="M504.138,183.44h 6.52716" fill="none" stroke="black"/>
<path d="M504.138,179.091h 6.52716" fill="none" stroke="black"/>
<path d="M504.138,175.717h 6.52716" fill="none" stroke="black"/>
<path d="M504.138,172.961h 6.52716" fill="none" stroke="black"/>
<path d="M504.138,170.63h 6.52716" fill="none" stroke="black"/>
<path d="M504.138,168.611h 6.52716" fill="none" stroke="black"/>
<path d="M504.138,166.831h 6.52716" fill="none" stroke="black"/>
<path d="M497.611,165.238h 13.0543" fill="none" stroke="black"/>
<path d="M504.138,154.759h 6.52716" fill="none" stroke="black"/>
<path d="M504.138,148.629h 6.52716" fill="none" stroke="black"/>
<path d="M504.138,144.279h 6.52716" fill="none" stroke="black"/>
<path d="M504.138,140.906h 6.52716" fill="none" stroke="black"/>
<path d="M504.138,138.149h 6.52716" fill="none" stroke="black"/>
<path d="M504.138,135.819h 6.52716" fill="none" stroke="black"/>
<path d="M504.138,133.8h 6.52716" fill="none" stroke="black"/>
<path d="M504.138,132.019h 6.52716" fill="none" stroke="black"/>
<path d="M497.611,130.427h 13.0543" fill="none" stroke="black"/>
<path d="M504.138,119.947h 6.52716" fill="none" stroke="black"/>
<path d="M504.138,113.817h 6.52716" fill="none" stroke="black"/>
<path d="M504.138,109.468h 6.52716" fill="none" stroke="black"/>
<path d="M504.138,106.095h 6.52716" fill="none" stroke="black"/>
<path d="M504.138,103.338h 6.52716" fill="none" stroke="black"/>
<path d="M504.138,101.008h 6.52716" fill="none" stroke="black"/>
<path d="M504.138,98.9889h 6.52716" fill="none" stroke="black"/>
<path d="M504.138,97.2083h 6.52716" fill="none" stroke="black"/>
<path d="M497.611,95.6154h 13.0543" fill="none" stroke="black"/>
<path d="M504.138,85.1362h 6.52716" fill="none" stroke="black"/>
<path d="M504.138,79.0062h 6.52716" fill="none" stroke="black"/>
<path d="M504.138,74.657h 6.52716" fill="none" stroke="black"/>
<path d="M504.138,71.2834h 6.52716" fill="none" stroke="black"/>
<path d="M504.138,68.527h 6.52716" fill="none" stroke="black"/>
<path d="M504.138,66.1965h 6.52716" fill="none" stroke="black"/>
<path d="M504.138,64.1778h 6.52716" fill="none" stroke="black"/>
<path d="M504.138,62.3971h 6.52716" fill="none" stroke="black"/>
<path d="M497.611,60.8042h 13.0543" fill="none" stroke="black"/>
<path d="M504.138,50.325h 6.52716" fill="none" stroke="black"/>
<path d="M504.138,44.1951h 6.52716" fill="none" stroke="black"/>
<path d="M504.138,39.8458h 6.52716" fill="none" stroke="black"/>
<path d="M504.138,36.4722h 6.52716" fill="none" stroke="black"/>
<path d="M504.138,33.7158h 6.52716" fill="none" stroke="black"/>
<path d="M504.138,31.3853h 6.52716" fill="none" stroke="black"/>
<path d="M57.1929,38.2204v -7.46952" fill="none" stroke="black"/>
<path d="M75.3318,38.2204v -7.46952" fill="none" stroke="black"/>
<path d="M93.4707,38.2204v -7.46952" fill="none" stroke="black"/>
<path d="M111.61,38.2204v -7.46952" fill="none" stroke="black"/>
<path d="M129.749,38.2204v -7.46952" fill="none" stroke="black"/>
<path d="M147.887,38.2204v -7.46952" fill="none" stroke="black"/>
<path d="M166.026,38.2204v -7.46952" fill="none" stroke="black"/>
<path d="M184.165,38.2204v -7.46952" fill="none" stroke="black"/>
<path d="M202.304,38.2204v -7.46952" fill="none" stroke="black"/>
<path d="M220.443,38.2204v -7.46952" fill="none" stroke="black"/>
<path d="M238.582,38.2204v -7.46952" fill="none" stroke="black"/>
<path d="M256.721,38.2204v -7.46952" fill="none" stroke="black"/>
<path d="M274.86,38.2204v -7.46952" fill="none" stroke="black"/>
<path d="M292.999,38.2204v -7.46952" fill="none" stroke="black"/>
<path d="M311.138,38.2204v -7.46952" fill="none" stroke="black"/>
<path d="M329.277,38.2204v -7.46952" fill="none" stroke="black"/>
<path d="M347.415,38.2204v -7.46952" fill="none" stroke="black"/>
<path d="M365.554,38.2204v -7.46952" fill="none" stroke="black"/>
<path d="M383.693,38.2204v -7.46952" fill="none" stroke="black"/>
<path d="M401.832,38.2204v -7.46952" fill="none" stroke="black"/>
<path d="M419.971,38.2204v -7.46952" fill="none" stroke="black"/>
<path d="M438.11,38.2204v -7.46952" fill="none" stroke="black"/>
<path d="M456.249,38.2204v -7.46952" fill="none" stroke="black"/>
<path d="M474.388,38.2204v -7.46952" fill="none" stroke="black"/>
<path d="M492.527,38.2204v -7.46952" fill="none" stroke="black"/>
<path d="M510.666,38.2204v -7.46952" fill="none" stroke="black"/></svg>
