<?xml version="1.0" standalone="no"?>
<svg width="567.429" height="311.778" viewBox="0 0 567.429 311.778" xmlns="http://www.w3.org/2000/svg" shape-rendering="crispEdges">
<title>
Yields/P1/det-9/run_0097_Fit.svg
</title>
<desc>
Creator: ROOT Version 6.12/06
CreationDate: Mon Apr 15 10:29:01 2019</desc>
<defs>
</defs>
<rect x="0.5" y="0" width="566.929" height="311.278" fill="white"/>
<rect x="57.1929" y="31.1278" width="453.543" height="249.023" fill="white"/>
<rect x="57.1929" y="31.1278" width="453.543" height="249.023" fill="none" stroke="black"/>
<rect x="57.1929" y="31.1278" width="453.543" height="249.023" fill="white"/>
<rect x="57.1929" y="31.1278" width="453.543" height="249.023" fill="none" stroke="black"/>
<path d="M57.1929,40.504h 0.181345v 239.647h 6.70976v -10.1694h 0.181345v 10.1694h 13.6009v -10.1694h 0.181345v 10.1694h 1.26941v -10.1694h 0.181345v 10.1694h 2.53883v -20.3389h 0.181345v 20.3389h 0.181345v -10.1694h 0.181345v 10.1694h 0.36269v
 -10.1694h 0.181345v 10.1694h 0.181345v -10.1694h 0.36269v 10.1694h 1.99479v -10.1694h 0.181345v 10.1694h 0.906724v -10.1694h 0.181345v -10.1694h 0.181345v 20.3389h 0.544034v -20.3389h 0.181345v 20.3389h 0.906724v -26.2876h 0.181345v 16.1182h
 0.181345v -36.4571h 0.181345v -15.7049h 0.181345v -9.08218h 0.181345v -10.9389h 0.181345v -9.95369h 0.181345v -7.33061h 0.181345v -4.28649h 0.181345v -2.23345h 0.181345v -2.33992h 0.181345v -2.4051h 0.181345v -0.919116h 0.181345v -0.851362h
 0.181345v -1.18477h 0.181345v -0.89754h 0.181345v -0.291225h 0.181345v -0.285556h 0.181345v -0.771198h 0.181345v -0.589039h 0.181345v -0.0924996h 0.181345v -0.836318h 0.181345v 0.234123h 0.181345v -0.625639h 0.181345v 0.0850519h 0.181345v -0.075626h
 0.181345v 0.276019h 0.181345v -0.58392h 0.181345v -0.0736796h 0.36269v -0.327054h 0.181345v -0.169717h 0.181345v 0.350513h 0.181345v 0.340462h 0.181345v -0.38587h 0.181345v -0.621387h 0.181345v 0.831439h 0.181345v -0.995656h 0.181345v 0.605364h
 0.181345v -0.345226h 0.181345v -0.173937h 0.181345v -0.197511h 0.181345v 0.406484h 0.181345v -0.0175286h 0.181345v -0.592258h 0.181345v 0.0843672h 0.181345v 0.586935h 0.181345v -0.261841h 0.181345v -0.0604296h 0.181345v -0.0430121h 0.181345v
 0.34768h 0.181345v -0.157476h 0.181345v 0.192702h 0.181345v 0.704363h 0.181345v -0.642514h 0.181345v 0.587115h 0.181345v 0.363888h 0.181345v -0.271441h 0.181345v -0.402483h 0.181345v -1.22838h 0.181345v 0.335745h 0.181345v -1.3535h 0.181345v
 -2.7007h 0.181345v -2.52603h 0.181345v -2.14496h 0.181345v -3.41555h 0.181345v -3.2255h 0.181345v -3.04264h 0.181345v -2.78346h 0.181345v -2.23928h 0.181345v -1.93931h 0.181345v -1.02246h 0.181345v -0.594701h 0.181345v 0.0730326h 0.181345v 0.74962h
 0.181345v 1.00081h 0.181345v 1.92335h 0.181345v 2.277h 0.181345v 3.71884h 0.181345v 2.5403h 0.181345v 4.3124h 0.181345v 3.99253h 0.181345v 3.97217h 0.181345v 3.91922h 0.181345v 3.10795h 0.181345v 2.09413h 0.181345v 1.74816h 0.181345v 1.86452h
 0.181345v 0.956015h 0.181345v -0.714078h 0.181345v 0.140062h 0.181345v 1.13335h 0.181345v -0.226299h 0.181345v 0.514171h 0.181345v -0.644584h 0.181345v -0.110868h 0.181345v 0.755452h 0.181345v -0.230748h 0.181345v 1.37927h 0.181345v -0.615674h
 0.181345v 0.933479h 0.181345v -0.953563h 0.181345v 0.656732h 0.181345v -0.0837173h 0.181345v -0.227789h 0.181345v -0.72169h 0.181345v 1.22333h 0.181345v -1.08575h 0.181345v 0.359807h 0.181345v 1.22333h 0.181345v -1.22333h 0.181345v 0.854078h
 0.36269v -0.191786h 0.181345v -0.0422808h 0.181345v 0.892088h 0.181345v -1.08086h 0.181345v 1.81688h 0.181345v -0.233999h 0.181345v 0.28125h 0.181345v -0.983799h 0.181345v 0.889449h 0.181345v -0.0234931h 0.181345v 0.795851h 0.181345v -1.28071h
 0.181345v 1.83632h 0.181345v -0.55561h 0.181345v -0.36711h 0.181345v 0.342348h 0.181345v 0.683693h 0.181345v 0.744362h 0.181345v -0.796113h 0.181345v 0.687435h 0.181345v -0.687435h 0.181345v -0.432666h 0.181345v -0.199275h 0.181345v 0.174217h
 0.181345v 0.956889h 0.181345v -0.0533506h 0.181345v 1.36642h 0.181345v -0.851578h 0.181345v 0.306536h 0.181345v -0.223569h 0.181345v -1.42604h 0.181345v 2.7001h 0.181345v -0.621889h 0.181345v 1.46226h 0.181345v -1.77779h 0.181345v 2.03632h 0.181345v
 -1.69177h 0.181345v 0.867676h 0.181345v -0.153308h 0.181345v -0.331742h 0.181345v -0.265954h 0.181345v 1.7061h 0.181345v -2.13891h 0.181345v 0.609583h 0.181345v 1.59527h 0.181345v -1.26556h 0.181345v 0.430638h 0.181345v -0.339417h 0.181345v 1.30711h
 0.181345v -1.9924h 0.181345v 0.715821h 0.181345v 0.402831h 0.181345v 0.0945529h 0.181345v 0.779196h 0.181345v -1.30711h 0.181345v 1.07554h 0.181345v 0.231572h 0.181345v -1.72804h 0.181345v 1.23622h 0.181345v 0.162117h 0.181345v -0.354321h 0.181345v
 -0.189719h 0.181345v -0.156247h 0.181345v 0.732927h 0.181345v -1.13155h 0.181345v 1.32892h 0.181345v -0.520548h 0.181345v -0.778094h 0.181345v -0.388868h 0.181345v -0.970837h 0.181345v -0.381806h 0.181345v -1.45939h 0.181345v -1.34951h 0.181345v
 -0.154786h 0.181345v -1.60287h 0.181345v 0.118798h 0.181345v 0.671159h 0.181345v 0.104423h 0.181345v -0.47431h 0.181345v 0.878039h 0.181345v -0.403728h 0.181345v 1.24613h 0.181345v 1.21242h 0.181345v 1.02639h 0.181345v 0.268223h 0.181345v 1.56987h
 0.181345v -0.26866h 0.181345v 1.33046h 0.181345v 1.21488h 0.181345v -0.586245h 0.181345v 0.411375h 0.181345v -1.29685h 0.181345v 1.40152h 0.181345v 0.680847h 0.181345v -1.43164h 0.181345v 0.856218h 0.181345v -0.244821h 0.181345v 0.209595h 0.181345v
 1.05753h 0.181345v 0.0378617h 0.181345v -0.300193h 0.181345v 0.300193h 0.181345v -0.847017h 0.181345v 0.771391h 0.181345v -0.699648h 0.181345v 1.04308h 0.181345v 0.272783h 0.181345v -0.234123h 0.181345v -0.754481h 0.181345v 0.988604h 0.181345v
 -1.24377h 0.181345v 0.932424h 0.181345v -0.0384572h 0.181345v -0.67553h 0.181345v 0.259023h 0.181345v 0.112425h 0.181345v -0.733724h 0.181345v 0.18002h 0.181345v 0.478658h 0.181345v 0.417585h 0.181345v -1.18322h 0.181345v 1.10641h 0.181345v
 -0.265725h 0.181345v -0.0375709h 0.181345v -0.0748543h 0.181345v 0.0373794h 0.181345v 0.0750458h 0.181345v -0.14971h 0.181345v 0.339021h 0.181345v 0.230446h 0.181345v -0.791205h 0.181345v -0.958329h 0.181345v -2.22721h 0.181345v 2.36529h 0.181345v
 -1.06992h 0.181345v 0.727111h 0.181345v -1.87414h 0.181345v 0.392873h 0.181345v -0.422663h 0.181345v 0.794896h 0.181345v 0.707969h 0.181345v 0.333456h 0.181345v 0.101533h 0.181345v 1.12913h 0.181345v 0.829967h 0.181345v -0.231051h 0.181345v
 0.426412h 0.181345v -0.914878h 0.181345v -0.364979h 0.181345v 1.24058h 0.181345v -1.05922h 0.181345v 1.17738h 0.181345v 1.4102h 0.181345v -2.06753h 0.181345v -0.225141h 0.181345v 1.73736h 0.181345v -0.854887h 0.181345v -0.467034h 0.181345v 0.706247h
 0.181345v 0.0402508h 0.181345v -0.669684h 0.181345v 0.429819h 0.181345v -0.959257h 0.181345v 2.28639h 0.181345v 0.130801h 0.181345v -0.474008h 0.181345v -0.663228h 0.181345v 0.163017h 0.181345v -1.5908h 0.181345v 1.75565h 0.181345v 0.250799h
 0.181345v 0.913183h 0.181345v -1.49185h 0.181345v 1.00643h 0.181345v -1.16766h 0.181345v 0.201811h 0.181345v 0.836204h 0.181345v -2.23084h 0.181345v 1.47615h 0.181345v 1.14712h 0.181345v -0.816483h 0.181345v -0.77343h 0.181345v 1.58991h 0.181345v
 0.586033h 0.181345v -1.14955h 0.181345v -0.501636h 0.181345v -1.1078h 0.181345v 2.3508h 0.181345v -1.88623h 0.181345v 2.15709h 0.181345v -2.07821h 0.181345v -0.845184h 0.181345v 0.263678h 0.181345v 0.621105h 0.181345v -0.157759h 0.181345v -1.13203h
 0.181345v 0.18271h 0.181345v 1.88051h 0.181345v -1.73269h 0.181345v 0.762323h 0.181345v -0.499992h 0.181345v -0.520054h 0.181345v 1.74174h 0.181345v -0.954575h 0.181345v 2.37759h 0.181345v -1.98737h 0.181345v 1.4538h 0.181345v -1.88248h 0.181345v
 0.310518h 0.181345v 1.35525h 0.181345v -3.12681h 0.181345v 2.5365h 0.181345v -1.07546h 0.181345v 0.115675h 0.181345v -0.827838h 0.181345v 0.673806h 0.181345v 1.1967h 0.181345v -1.53747h 0.181345v -1.11665h 0.181345v 2.73748h 0.181345v -3.1479h
 0.181345v 2.57408h 0.181345v -2.57408h 0.181345v 2.49391h 0.181345v 0.120423h 0.181345v -2.06452h 0.181345v 0.93987h 0.181345v -0.869672h 0.181345v 1.47948h 0.181345v 1.30137h 0.181345v -0.127026h 0.181345v -0.538081h 0.36269v -0.558219h 0.181345v
 0.887004h 0.181345v 0.944101h 0.181345v -0.650243h 0.181345v 0.343207h 0.181345v -1.52407h 0.181345v 0.762844h 0.181345v 1.24664h 0.181345v -2.24237h 0.181345v 2.93129h 0.181345v 0.381097h 0.181345v -2.60234h 0.181345v 2.84566h 0.181345v -1.62409h
 0.181345v 0.400762h 0.181345v 0.273388h 0.181345v 0.138629h 0.181345v 0.616337h 0.181345v 0.145985h 0.181345v -0.481073h 0.181345v 1.38887h 0.181345v -1.57697h 0.181345v -0.595178h 0.181345v 0.736025h 0.181345v 2.97035h 0.181345v -0.787161h
 0.181345v -0.537475h 0.181345v -0.416238h 0.36269v 0.575423h 0.181345v 0.822912h 0.181345v -0.661981h 0.181345v -0.0538401h 0.181345v -0.733724h 0.181345v 2.26161h 0.181345v 0.119767h 0.181345v -1.04426h 0.181345v -1.1312h 0.181345v 2.29621h
 0.181345v -2.08736h 0.181345v 1.26225h 0.181345v -0.672091h 0.181345v 0.672091h 0.181345v -0.170931h 0.181345v -0.168962h 0.181345v 0.282695h 0.181345v 1.88588h 0.181345v -1.18432h 0.181345v -1.31645h 0.181345v 1.37645h 0.181345v -0.356408h
 0.181345v -1.66269h 0.181345v 1.7215h 0.181345v 0.911561h 0.181345v -0.911561h 0.181345v -0.175708h 0.181345v 1.34023h 0.181345v -2.18853h 0.181345v 1.873h 0.181345v -1.48322h 0.181345v 1.17434h 0.181345v -1.17434h 0.181345v 0.227468h 0.181345v
 -0.227468h 0.181345v -0.982097h 0.181345v 2.90898h 0.181345v -0.0642076h 0.181345v 0.0642076h 0.181345v -1.87035h 0.181345v 0.696008h 0.181345v -0.23569h 0.181345v 2.06805h 0.36269v -1.65307h 0.181345v 1.38631h 0.181345v -1.74272h 0.181345v 1.28725h
 0.181345v -0.503789h 0.181345v 0.1869h 0.181345v 1.31082h 0.181345v -0.538461h 0.181345v -0.772358h 0.181345v 0.510361h 0.181345v -2.11247h 0.181345v 1.53954h 0.181345v 1.03454h 0.181345v -3.17974h 0.181345v 3.04636h 0.181345v -1.27105h 0.181345v
 0.685414h 0.181345v -1.62848h 0.181345v 0.761562h 0.181345v 0.120753h 0.181345v -0.418358h 0.181345v 1.10087h 0.181345v -0.863273h 0.181345v 0.736795h 0.181345v -1.94334h 0.181345v 2.06982h 0.181345v 0.583047h 0.181345v -1.68392h 0.181345v 1.81669h
 0.181345v -1.63886h 0.181345v 0.546824h 0.181345v -1.13142h 0.181345v 1.57128h 0.181345v 0.128135h 0.181345v -0.0642076h 0.181345v -0.749341h 0.181345v -0.181504h 0.181345v 1.85638h 0.181345v -1.36728h 0.181345v 0.124864h 0.181345v -1.60211h
 0.181345v 1.41521h 0.181345v -0.783465h 0.181345v -0.74374h 0.181345v 0.802543h 0.181345v 2.15398h 0.181345v -2.56074h 0.181345v 0.946871h 0.181345v 0.560759h 0.181345v 0.451464h 0.181345v -1.07323h 0.181345v -0.537912h 0.181345v -0.347955h
 0.181345v 2.09068h 0.181345v -1.80129h 0.181345v 1.15487h 0.181345v -2.49464h 0.181345v 0.433136h 0.181345v 0.0550523h 0.181345v -1.16585h 0.181345v 0.518478h 0.181345v -0.0526802h 0.181345v -0.208849h 0.181345v -1.93964h 0.181345v 0.602702h
 0.181345v -0.465798h 0.181345v 2.65659h 0.181345v -2.88406h 0.181345v -0.531952h 0.181345v 0.990471h 0.181345v 0.04665h 0.181345v 0.426662h 0.181345v -2.14432h 0.181345v -0.0828896h 0.181345v 1.29538h 0.181345v -1.58186h 0.181345v 1.80933h 0.181345v
 -0.62823h 0.181345v 2.32765h 0.181345v -2.97218h 0.181345v 2.12215h 0.181345v -0.0485006h 0.181345v 1.2107h 0.181345v -1.30722h 0.181345v -0.238565h 0.181345v -0.047251h 0.181345v 0.479501h 0.181345v -0.337289h 0.181345v 2.4856h 0.181345v -1.95204h
 0.181345v -1.59018h 0.181345v 2.45495h 0.181345v -2.49921h 0.181345v -1.98117h 0.181345v -0.567997h 0.181345v 0.300193h 0.181345v -0.0378617h 0.181345v -3.69134h 0.181345v -0.0293722h 0.181345v -2.37851h 0.181345v -2.11113h 0.181345v -1.51767h
 0.181345v -1.70855h 0.181345v -2.00671h 0.181345v -1.49427h 0.181345v -0.444011h 0.181345v -2.06145h 0.181345v -1.01222h 0.181345v -0.754157h 0.181345v -0.649063h 0.181345v -0.318851h 0.181345v -1.01541h 0.181345v 0.508152h 0.181345v -0.418692h
 0.181345v 0.983408h 0.181345v 0.637348h 0.181345v -0.069983h 0.181345v 2.13252h 0.181345v 0.492612h 0.181345v 1.42699h 0.181345v 0.824682h 0.181345v 2.26624h 0.181345v 1.37725h 0.181345v 2.18752h 0.181345v 2.25471h 0.181345v 1.31172h 0.181345v
 0.95391h 0.181345v 2.21475h 0.181345v 3.16778h 0.181345v 0.707695h 0.181345v 0.743569h 0.181345v 2.48767h 0.181345v 0.819845h 0.181345v 0.514839h 0.181345v 1.46837h 0.181345v -1.69942h 0.181345v 3.33125h 0.181345v -0.214185h 0.181345v -0.419212h
 0.181345v -0.340419h 0.181345v -0.658021h 0.181345v 1.99591h 0.181345v -0.364074h 0.181345v -0.284891h 0.181345v 0.722876h 0.181345v 0.996353h 0.181345v -0.391261h 0.181345v 0.874978h 0.181345v 0.415649h 0.181345v -2.61859h 0.181345v 2.61859h
 0.181345v 1.69646h 0.181345v -2.35596h 0.181345v 2.64271h 0.181345v -2.15088h 0.181345v -1.04553h 0.181345v 0.797556h 0.181345v 0.164849h 0.181345v -0.327866h 0.181345v -1.53768h 0.181345v 1.78289h 0.181345v -0.24521h 0.181345v -0.556706h 0.181345v
 0.884572h 0.181345v 0.166722h 0.181345v -0.815288h 0.181345v 0.483717h 0.181345v 0.67081h 0.181345v 1.4413h 0.181345v -2.35596h 0.181345v -0.239865h 0.181345v 0.239865h 0.181345v -0.318956h 0.181345v 3.0585h 0.181345v -0.757402h 0.181345v -2.69029h
 0.181345v 1.6228h 0.181345v 0.975498h 0.181345v -2.20912h 0.181345v 0.0790914h 0.181345v -0.313839h 0.181345v 3.19641h 0.181345v -1.64199h 0.181345v -0.171597h 0.181345v 1.52684h 0.181345v -2.5163h 0.181345v 4.0096h 0.181345v -2.76199h 0.181345v
 -0.0865573h 0.181345v 0.349336h 0.181345v 1.19645h 0.181345v -0.74775h 0.181345v -0.969635h 0.181345v 0.258155h 0.36269v 2.55388h 0.181345v 0.419212h 0.181345v -2.62166h 0.181345v 0.729164h 0.181345v 0.0937474h 0.181345v 0.971972h 0.181345v
 -1.97165h 0.181345v 1.47762h 0.181345v 1.86225h 0.181345v -1.26738h 0.181345v -1.44425h 0.181345v 2.38438h 0.181345v -1.04096h 0.181345v -1.7057h 0.181345v 1.80653h 0.181345v -2.3337h 0.181345v 1.64199h 0.181345v -0.0962063h 0.181345v -1.97108h
 0.181345v 2.35975h 0.181345v -1.93446h 0.181345v 2.43524h 0.181345v -1.54579h 0.181345v -0.091411h 0.181345v 4.19036h 0.181345v -2.75553h 0.181345v -0.782661h 0.181345v 0.191786h 0.181345v -0.567997h 0.181345v -0.275959h 0.181345v -0.270865h
 0.181345v 2.96402h 0.181345v 0.109899h 0.181345v -0.960654h 0.181345v -1.28519h 0.181345v 0.481073h 0.181345v -1.48698h 0.181345v -0.941346h 0.181345v 1.66601h 0.181345v -0.546824h 0.181345v -3.69707h 0.36269v -0.545976h 0.181345v -2.63018h
 0.181345v -2.08455h 0.181345v -2.7798h 0.181345v -1.48941h 0.181345v -3.4758h 0.181345v 0.172946h 0.181345v -2.88602h 0.181345v -2.76988h 0.181345v -1.62249h 0.181345v -0.520317h 0.181345v -2.07789h 0.181345v -0.777666h 0.181345v -1.45433h 0.181345v
 -0.863273h 0.181345v -1.09582h 0.181345v -0.810782h 0.181345v -0.73834h 0.181345v 0.971561h 0.181345v -0.607035h 0.181345v 0.789825h 0.181345v -0.28926h 0.181345v 0.343458h 0.181345v 0.196788h 0.181345v 1.68957h 0.181345v 1.57601h 0.181345v
 0.632184h 0.181345v 1.16477h 0.181345v 1.16398h 0.181345v 2.38834h 0.181345v 1.4122h 0.181345v 2.28342h 0.181345v 3.5243h 0.181345v 1.32081h 0.181345v 1.06548h 0.181345v 2.99077h 0.181345v 1.78657h 0.181345v 2.52788h 0.181345v 2.75035h 0.181345v
 1.26284h 0.181345v 0.761224h 0.181345v 1.9467h 0.181345v 1.79013h 0.181345v 0.112425h 0.181345v 2.85661h 0.181345v -0.800457h 0.181345v 2.7009h 0.181345v -1.48322h 0.181345v 0.722876h 0.181345v -0.147453h 0.181345v -0.433669h 0.181345v 2.47684h
 0.181345v 2.77645h 0.181345v -2.94412h 0.181345v 2.34521h 0.181345v 0.396549h 0.181345v -3.23358h 0.181345v 1.00071h 0.181345v 3.05965h 0.181345v -3.73431h 0.181345v 1.74866h 0.181345v -0.366804h 0.181345v 0.182256h 0.181345v 1.75099h 0.181345v
 -0.99844h 0.181345v -2.15088h 0.181345v 3.56853h 0.181345v 2.54789h 0.181345v -3.1723h 0.181345v -0.985028h 0.181345v 2.26161h 0.181345v -3.18464h 0.181345v 3.86716h 0.181345v -4.04499h 0.181345v -0.690547h 0.181345v 3.18975h 0.181345v -0.208109h
 0.36269v -1.56644h 0.181345v -0.900369h 0.181345v 0.715821h 0.181345v -2.67491h 0.181345v 5.94875h 0.181345v -2.32696h 0.181345v -0.946871h 0.181345v 1.34342h 0.181345v -1.15887h 0.181345v -0.366804h 0.181345v 1.72804h 0.181345v -3.7549h 0.181345v
 4.16821h 0.181345v -1.39833h 0.181345v 0.191786h 0.181345v -1.81359h 0.181345v 4.33488h 0.181345v -1.10363h 0.181345v -1.60944h 0.181345v 2.94412h 0.181345v -3.13343h 0.181345v -0.553704h 0.181345v 1.12913h 0.181345v -0.762323h 0.181345v -0.184549h
 0.181345v 3.27383h 0.181345v -5.94875h 0.181345v 3.23567h 0.181345v -0.923035h 0.181345v -0.177837h 0.181345v -2.73372h 0.181345v 0.44688h 0.181345v 0.305665h 0.181345v 0.155254h 0.181345v -1.34147h 0.181345v 3.7075h 0.181345v 0.752545h 0.181345v
 -0.381097h 0.181345v 0.575423h 0.181345v 2.09949h 0.181345v -2.4856h 0.181345v 1.60944h 0.181345v -4.37931h 0.181345v 3.55254h 0.181345v 1.47895h 0.181345v -1.47895h 0.181345v -2.57408h 0.181345v 1.0484h 0.181345v 3.45609h 0.181345v -1.52285h
 0.181345v -2.11326h 0.181345v -0.353545h 0.181345v -1.4933h 0.181345v 4.81086h 0.181345v -0.850755h 0.181345v 2.9671h 0.181345v -4.71809h 0.181345v 1.75099h 0.181345v 0.633397h 0.181345v -2.74666h 0.181345v 1.30915h 0.36269v 0.804114h 0.181345v
 1.07138h 0.181345v -3.18464h 0.181345v 0.18002h 0.181345v 1.72804h 0.181345v -2.26161h 0.544034v 3.31756h 0.181345v -0.850755h 0.181345v 0.208109h 0.181345v -1.01222h 0.36269v 2.32696h 0.181345v -0.227468h 0.181345v -1.29538h 0.181345v -2.2911h
 0.181345v 2.9245h 0.181345v -1.82362h 0.181345v 1.82362h 0.181345v 0.889449h 0.181345v -2.52129h 0.36269v -2.15088h 0.181345v 3.35743h 0.181345v -2.49921h 0.36269v 3.36248h 0.181345v -3.00462h 0.181345v 1.72804h 0.181345v -2.43524h 0.181345v
 1.64199h 0.181345v 1.8492h 0.181345v -1.25832h 0.181345v 1.25832h 0.181345v -4.65225h 0.181345v 7.02375h 0.181345v -0.505961h 0.181345v -4.09584h 0.181345v 3.13343h 0.181345v -2.16146h 0.181345v 5.26166h 0.181345v -5.26166h 0.181345v -0.199614h
 0.181345v -0.391261h 0.181345v 2.52129h 0.181345v -1.31474h 0.181345v -0.413307h 0.181345v 2.43241h 0.181345v -4.16045h 0.181345v 3.68714h 0.181345v 0.962405h 0.181345v 0.250799h 0.181345v 1.32264h 0.181345v 0.564355h 0.181345v -1.887h 0.181345v
 -4.15733h 0.181345v 1.19023h 0.181345v 0.208109h 0.181345v 0.863273h 0.181345v -1.27658h 0.181345v 0.205198h 0.181345v 2.22721h 0.181345v 0.242508h 0.181345v -2.05051h 0.181345v 2.54789h 0.181345v -2.11635h 0.181345v -0.642646h 0.181345v 0.642646h
 0.181345v 6.16937h 0.181345v -3.00462h 0.181345v -1.54579h 0.181345v -0.946871h 0.181345v 2.49266h 0.181345v -1.7883h 0.181345v 0.489092h 0.181345v 8.52453h 0.181345v -4.55041h 0.181345v -4.2207h 0.181345v 1.82003h 0.181345v -0.27424h 0.181345v
 3.68714h 0.181345v -2.84854h 0.181345v -0.838595h 0.181345v 1.72804h 0.181345v 1.61387h 0.181345v 0.345226h 0.181345v -0.682514h 0.181345v -0.65217h 0.181345v 0.322462h 0.181345v 3.68714h 0.181345v 2.75899h 0.181345v -3.57428h 0.181345v 0.401982h
 0.181345v 0.413307h 0.181345v -1.20655h 0.181345v 2.06982h 0.181345v -3.53819h 0.181345v 2.67491h 0.181345v -1.95909h 0.181345v 4.2207h 0.181345v -3.84925h 0.181345v -2.09949h 0.181345v 3.27383h 0.181345v -0.401982h 0.36269v 4.08912h 0.181345v
 -4.08912h 0.181345v 5.17639h 0.181345v -2.58056h 0.181345v 1.4933h 0.181345v -1.95909h 0.181345v 3.04636h 0.181345v -5.94875h 0.36269v 6.52417h 0.181345v -1.12913h 0.181345v -1.54579h 0.181345v 2.09949h 0.181345v -3.49783h 0.181345v 3.49783h
 0.181345v -1.08727h 0.181345v -0.514839h 0.181345v 2.17753h 0.181345v -0.575423h 0.181345v -2.58056h 0.181345v 5.714h 0.181345v 3.1002h 0.181345v -3.78272h 0.181345v -2.45092h 0.181345v 3.13343h 0.181345v 4.93652h 0.181345v 5.94875h 0.181345v
 -17.0651h 0.181345v 9.28h 0.181345v -3.1002h 0.181345v -0.682514h 0.181345v -1.27658h 0.181345v 5.94875h 0.181345v -10.1694h 0.181345v 3.62179h 0.181345v 7.49453h 0.181345v -6.27121h 0.181345v 4.43489h 0.181345v 1.83632h 0.181345v -4.93652h
 0.181345v -0.682514h 0.181345v -1.8755h 0.181345v -0.575423h 0.181345v -0.553704h 0.181345v -1.0484h 0.36269v 10.6843h 0.181345v -2.84854h 0.181345v -11.008h 0.181345v 5.94875h 0.181345v 3.42746h 0.181345v -4.02638h 0.181345v 0.598916h 0.181345v
 -1.72804h 0.181345v 2.35245h 0.181345v -2.88602h 0.181345v 6.48231h 0.181345v -8.44141h 0.181345v 1.95909h 0.36269v -5.5952h 0.181345v -0.353545h 0.181345v 5.94875h 0.181345v -5.94875h 0.181345v 5.43391h 0.181345v -4.71809h 0.181345v -1.72804h
 0.181345v 1.36577h 0.181345v -4.04068h 0.181345v 1.42553h 0.181345v -1.69474h 0.181345v 1.1078h 0.181345v 2.50332h 0.181345v 3.44543h 0.181345v -0.425288h 0.181345v -3.35743h 0.181345v 4.67217h 0.544034v -2.13003h 0.181345v 1.24058h 0.181345v
 -1.63184h 0.181345v -0.752545h 0.181345v 3.73963h 0.181345v 1.4933h 0.181345v 2.26161h 0.181345v 0.62441h 0.181345v 2.05051h 0.181345v -3.27383h 0.181345v -0.575423h 0.181345v 5.39504h 0.181345v -0.793243h 0.181345v -1.46837h 0.181345v 3.1002h
 0.181345v -9.73146h 0.181345v -0.437985h 0.181345v 12.0058h 0.181345v -2.67491h 0.181345v 1.72804h 0.181345v -2.52129h 0.181345v 4.48038h 0.181345v -1.95909h 0.181345v 3.04636h 0.181345v -8.3707h 0.181345v -4.84511h 0.181345v -5.00187h 0.181345v
 3.27383h 0.181345v -2.26161h 0.181345v 3.53819h 0.181345v -0.437985h 0.181345v -6.5131h 0.181345v -2.99437h 0.181345v -0.223995h 0.181345v -2.63782h 0.181345v -1.074h 0.181345v -3.91549h 0.181345v 0.538461h 0.181345v -3.51859h 0.181345v -1.14111h
 0.181345v -0.871826h 0.181345v -1.17434h 0.181345v -3.25646h 0.181345v 2.41304h 0.181345v -2.89187h 0.181345v -0.332699h 0.181345v -2.19567h 0.181345v -1.90944h 0.181345v 3.08851h 0.181345v -1.73486h 0.181345v -1.15335h 0.181345v 0.565343h 0.181345v
 -0.208109h 0.181345v -1.659h 0.181345v 0.0462092h 0.181345v 1.10508h 0.181345v 0.100147h 0.181345v 0.987122h 0.181345v -0.936791h 0.181345v -0.832992h 0.181345v -0.0949609h 0.181345v 0.190541h 0.181345v -0.47179h 0.181345v -0.184549h 0.181345v
 -0.451464h 0.181345v -0.39477h 0.181345v -0.676612h 0.181345v -0.843186h 0.181345v 1.30499h 0.181345v -2.10233h 0.181345v -0.508466h 0.181345v -1.29739h 0.181345v -0.670627h 0.181345v -0.216899h 0.181345v -1.23808h 0.181345v 2.19111h 0.181345v
 -1.13642h 0.181345v -0.121002h 0.181345v 0.273672h 0.181345v 2.50403h 0.181345v -0.25265h 0.181345v -0.664611h 0.181345v 1.10043h 0.181345v 0.44916h 0.181345v -0.412251h 0.181345v 1.76505h 0.181345v 2.44334h 0.181345v 2.05789h 0.181345v -0.985764h
 0.181345v 3.05044h 0.181345v 1.58206h 0.181345v 0.293438h 0.181345v 2.15088h 0.181345v 3.68714h 0.181345v 1.14679h 0.181345v 0.859659h 0.181345v 2.77645h 0.36269v 5.72128h 0.181345v 0.931831h 0.181345v 2.62689h 0.181345v -1.887h 0.181345v 4.39032h
 0.181345v 0.698771h 0.181345v 2.74666h 0.181345v 0.437985h 0.181345v -1.67856h 0.181345v 7.62731h 0.181345v -2.45092h 0.181345v 10.1694h 0.181345v -9.59403h 0.181345v 4.02638h 0.181345v 6.74199h 0.181345v -10.1694h 0.181345v 6.89562h 0.36269v
 -0.946871h 0.544034v 8.44141h 0.181345v -7.49453h 0.36269v 11.1817h 0.181345v -6.63126h 0.181345v -2.45092h 0.181345v 1.17434h 0.181345v 4.2207h 0.181345v -1.54579h 0.181345v 7.49453h 0.181345v -11.3438h 0.181345v 9.08218h 0.181345v -7.90784h
 0.181345v -3.27383h 0.181345v 3.27383h 0.36269v 16.1182h 0.181345v -10.1694h 0.181345v 14.3902h 0.181345v -14.3902h 0.181345v -3.27383h 0.181345v -2.67491h 0.181345v 1.27658h 0.181345v 6.63126h 0.181345v 12.4311h 0.181345v -4.2207h 0.181345v 4.2207h
 0.181345v -4.2207h 0.181345v -8.21035h 0.544034v 18.3798h 0.181345v -13.4433h 0.181345v 7.49453h 0.181345v -14.3902h 0.181345v 30.5083h 0.181345v -33.7822h 0.181345v 3.27383h 0.181345v 1.95909h 0.181345v 18.3798h 0.181345v -18.3798h 0.181345v
 2.26161h 0.181345v -2.26161h 0.181345v -6.63126h 0.181345v 14.8416h 0.181345v -3.27383h 0.181345v -4.93652h 0.181345v 8.21035h 0.181345v -5.94875h 0.36269v 16.1182h 0.181345v -25.0111h 0.181345v 6.63126h 0.181345v 8.21035h 0.181345v -11.8975h
 0.181345v 5.94875h 0.181345v -4.2207h 0.181345v -1.72804h 0.181345v 5.94875h 0.181345v -5.94875h 0.36269v 5.94875h 0.181345v 5.94875h 0.181345v -5.94875h 0.181345v 10.1694h 0.181345v -20.3389h 0.181345v -2.26161h 0.181345v 8.21035h 0.181345v
 -4.67217h 0.181345v 2.94412h 0.181345v -1.54579h 0.181345v -6.89562h 0.181345v 5.49728h 0.181345v -3.53819h 0.181345v 6.48231h 0.181345v -9.33085h 0.181345v -0.838595h 0.181345v 4.77441h 0.181345v 3.84925h 0.181345v -12.22h 0.181345v 1.33468h
 0.181345v -1.33468h 0.181345v 0.65217h 0.181345v 2.15088h 0.181345v -2.80305h 0.181345v -2.88602h 0.181345v 2.26161h 0.181345v -3.27383h 0.181345v -0.946871h 0.181345v 4.84511h 0.181345v -5.73456h 0.181345v 0.437985h 0.181345v -1.67856h 0.181345v
 3.57428h 0.181345v 2.17753h 0.181345v -1.66269h 0.181345v 1.66269h 0.181345v -2.67491h 0.181345v 1.01222h 0.181345v -1.01222h 0.181345v 3.27383h 0.181345v -2.26161h 0.181345v 1.08727h 0.181345v -0.553704h 0.181345v 4.40296h 0.181345v -1.39833h
 0.181345v 1.39833h 0.181345v 4.2207h 0.181345v -3.46816h 0.181345v 6.74199h 0.181345v -4.2207h 0.181345v 3.04636h 0.181345v 7.12309h 0.181345v -4.67217h 0.181345v 6.63126h 0.181345v -7.90784h 0.181345v 20.3389h 0.181345v -14.3902h 0.181345v
 -3.27383h 0.181345v 5.23293h 0.181345v 2.26161h 0.181345v 2.67491h 0.181345v -8.62366h 0.181345v 1.72804h 0.181345v 14.3902h 0.181345v -7.49453h 0.36269v 7.49453h 0.544034v -4.2207h 0.181345v -10.1694h 0.181345v 4.2207h 0.181345v -4.2207h 0.181345v
 14.3902h 0.181345v -12.4311h 0.181345v 12.4311h 0.36269v -4.2207h 0.181345v 10.1694h 0.181345v -5.94875h 0.181345v -12.4311h 0.181345v -1.95909h 0.181345v 14.3902h 0.181345v -10.1694h 0.36269v 16.1182h 0.181345v -5.94875h 0.181345v -7.49453h
 0.36269v 7.49453h 0.181345v -4.2207h 0.544034v -3.27383h 0.181345v -6.89562h 0.36269v 1.95909h 0.181345v 2.26161h 0.181345v -8.89287h 0.181345v 6.63126h 0.181345v 38.7187h 0.181345v -36.4571h 0.181345v 2.67491h 0.181345v 3.27383h 0.181345v -3.27383h
 0.181345v -11.5678h 0.181345v 8.89287h 0.181345v 2.67491h 0.181345v -11.5678h 0.181345v 6.63126h 0.181345v 2.26161h 0.181345v -7.49453h 0.181345v 7.49453h 0.181345v 2.67491h 0.181345v -6.89562h 0.181345v 4.2207h 0.181345v -5.94875h 0.181345v
 3.68714h 0.36269v 2.26161h 0.181345v -10.1694h 0.181345v -1.17434h 0.181345v 21.5132h 0.181345v -19.0623h 0.181345v 1.39833h 0.181345v 7.49453h 0.181345v -7.49453h 0.181345v 1.54579h 0.181345v 11.8975h 0.181345v -14.8416h 0.181345v -1.27658h
 0.181345v 2.67491h 0.181345v -10.1694h 0.181345v 8.77111h 0.181345v -2.45092h 0.181345v -5.56765h 0.181345v 8.01857h 0.181345v -2.45092h 0.36269v -6.32019h 0.181345v 0.752545h 0.181345v 6.74199h 0.181345v 2.67491h 0.181345v -3.84925h 0.181345v
 -2.09949h 0.181345v -0.946871h 0.181345v 8.44141h 0.181345v -6.48231h 0.181345v 2.26161h 0.181345v -1.17434h 0.181345v 3.84925h 0.181345v -8.62366h 0.181345v 0.838595h 0.181345v 7.78507h 0.181345v -4.93652h 0.181345v 6.48231h 0.181345v -6.48231h
 0.181345v 18.3798h 0.181345v -5.94875h 0.181345v -8.89287h 0.181345v 1.39833h 0.181345v -1.39833h 0.181345v 2.94412h 0.181345v -2.94412h 0.181345v 6.63126h 0.181345v 4.93652h 0.181345v -4.93652h 0.181345v -1.95909h 0.181345v -1.72804h 0.181345v
 5.94875h 0.181345v 2.67491h 0.181345v -2.67491h 0.181345v -2.26161h 0.181345v 2.26161h 0.181345v -8.89287h 0.181345v 8.89287h 0.181345v 16.1182h 0.181345v -18.3798h 0.181345v 4.93652h 0.181345v -8.62366h 0.181345v -1.54579h 0.36269v 13.4433h
 0.181345v -8.21035h 0.181345v -5.23293h 0.181345v 5.23293h 0.181345v -10.1694h 0.181345v 4.93652h 0.181345v 5.23293h 0.36269v -3.68714h 0.181345v -2.94412h 0.181345v 1.39833h 0.544034v 5.23293h 0.181345v -14.6498h 0.181345v 9.4169h 0.36269v 7.49453h
 0.181345v -2.26161h 0.181345v -3.68714h 0.181345v -1.54579h 0.181345v 3.27383h 0.181345v -4.67217h 0.181345v 6.63126h 0.181345v -1.95909h 0.181345v -5.94875h 0.181345v 1.27658h 0.181345v 2.94412h 0.36269v -7.49453h 0.181345v 5.94875h 0.181345v
 5.23293h 0.181345v -1.95909h 0.181345v -3.27383h 0.181345v 10.1694h 0.181345v -10.1694h 0.36269v -3.84925h 0.181345v 3.84925h 0.181345v -3.84925h 0.181345v 1.17434h 0.181345v -7.49453h 0.181345v 8.77111h 0.181345v -8.77111h 0.181345v 4.2207h
 0.181345v 1.01222h 0.181345v 1.08727h 0.181345v -5.56765h 0.181345v 5.56765h 0.181345v -1.08727h 0.181345v 10.1694h 0.181345v -11.1817h 0.36269v 1.01222h 0.181345v -1.95909h 0.181345v -3.98965h 0.181345v 3.1002h 0.181345v 2.84854h 0.181345v 10.1694h
 0.181345v -13.018h 0.181345v 3.93581h 0.181345v 3.84925h 0.181345v -8.62366h 0.181345v 0.838595h 0.36269v -5.0593h 0.181345v 8.99511h 0.36269v -1.08727h 0.181345v -5.23293h 0.181345v 5.23293h 0.181345v -5.23293h 0.181345v 2.38438h 0.181345v
 -2.38438h 0.181345v -0.715821h 0.36269v 2.26161h 0.181345v -2.26161h 0.181345v -1.33468h 0.36269v -0.62441h 0.181345v 2.67491h 0.181345v -2.67491h 0.181345v 3.42746h 0.181345v -2.15088h 0.181345v 1.39833h 0.181345v -2.05051h 0.181345v 2.80305h
 0.181345v -5.68907h 0.36269v 8.21035h 0.181345v -4.67217h 0.181345v -1.27658h 0.181345v 5.0593h 0.181345v -1.63184h 0.36269v 2.52129h 0.181345v -8.72519h 0.181345v 4.73554h 0.181345v -3.68714h 0.181345v 5.1555h 0.181345v 1.63184h 0.181345v -3.78272h
 0.181345v 0.682514h 0.181345v 0.715821h 0.181345v 2.38438h 0.181345v -8.33313h 0.181345v 1.54579h 0.181345v 1.72804h 0.181345v 0.62441h 0.181345v 5.32434h 0.181345v -7.67679h 0.36269v 3.00462h 0.181345v 3.78272h 0.181345v -2.38438h 0.181345v
 -2.05051h 0.36269v -1.79875h 0.181345v 7.12309h 0.181345v -4.67217h 0.181345v -1.27658h 0.181345v 3.42746h 0.181345v -2.80305h 0.181345v -1.79875h 0.181345v -2.58056h 0.181345v 3.7549h 0.181345v 0.62441h 0.181345v 0.65217h 0.181345v -0.65217h
 0.181345v -1.22333h 0.181345v -2.17753h 0.181345v -1.44425h 0.181345v 1.95909h 0.181345v -1.01222h 0.181345v -0.481073h 0.181345v 5.714h 0.181345v -5.23293h 0.181345v -3.84925h 0.181345v 1.58765h 0.181345v 1.31474h 0.181345v -0.889449h 0.181345v
 0.437985h 0.181345v 0.451464h 0.181345v -1.31474h 0.181345v 1.31474h 0.181345v -1.72804h 0.181345v 5.34983h 0.181345v -8.62366h 0.181345v 8.62366h 0.181345v -7.25789h 0.181345v 0.733724h 0.181345v 4.34664h 0.181345v -5.43391h 0.181345v 3.53819h
 0.181345v -5.1884h 0.181345v 3.50984h 0.181345v -1.50608h 0.181345v -1.36577h 0.181345v 2.48059h 0.181345v -2.15088h 0.181345v -3.00462h 0.181345v 0.553704h 0.181345v 1.79875h 0.181345v 3.59629h 0.181345v -0.793243h 0.181345v 0.391261h 0.181345v
 -1.85963h 0.181345v -2.26161h 0.181345v 0.926924h 0.181345v 1.33468h 0.181345v -3.4129h 0.181345v 2.40067h 0.181345v 2.48059h 0.181345v -5.94875h 0.181345v 3.1457h 0.181345v 1.68823h 0.181345v 1.11482h 0.181345v -3.11858h 0.181345v -1.48322h
 0.181345v 3.84925h 0.181345v -1.06105h 0.181345v -1.61387h 0.181345v -0.598916h 0.181345v 1.8755h 0.181345v 4.67217h 0.181345v 0.465798h 0.181345v -0.917262h 0.181345v -1.27658h 0.181345v -0.793243h 0.181345v -1.46837h 0.181345v 0.353545h 0.181345v
 5.5952h 0.36269v 2.88602h 0.181345v -4.84511h 0.181345v 4.2207h 0.181345v -0.598916h 0.181345v -2.67491h 0.181345v 3.89824h 0.181345v -1.79875h 0.181345v -1.60211h 0.181345v 1.0484h 0.181345v 9.63588h 0.181345v -10.1694h 0.181345v 2.88602h 0.36269v
 -4.84511h 0.181345v 2.49266h 0.181345v 2.35245h 0.181345v 1.33468h 0.181345v -5.23293h 0.181345v 2.09949h 0.181345v -2.09949h 0.181345v 1.54579h 0.181345v -2.94412h 0.181345v 2.41056h 0.181345v -1.4933h 0.181345v 2.58056h 0.181345v 1.79875h 0.36269v
 5.32434h 0.181345v -6.54766h 0.181345v 1.22333h 0.181345v -1.22333h 0.181345v 1.8755h 0.181345v -3.00462h 0.181345v -0.533565h 0.36269v -1.01222h 0.181345v 3.89824h 0.181345v -0.62441h 0.181345v 8.99511h 0.181345v -7.03601h 0.36269v -3.13343h
 0.181345v 2.45092h 0.181345v 2.94412h 0.181345v -9.75614h 0.181345v 4.3611h 0.181345v 0.575423h 0.181345v -2.67491h 0.181345v 3.27383h 0.181345v 1.27658h 0.181345v -5.94875h 0.181345v 0.451464h 0.181345v 3.62179h 0.36269v 2.55801h 0.181345v 1.46837h
 0.181345v -1.46837h 0.36269v -8.70108h 0.181345v 6.74199h 0.181345v -3.27383h 0.181345v 2.67491h 0.181345v 4.02638h 0.36269v -3.42746h 0.181345v 1.95909h 0.36269v -3.13343h 0.181345v 4.6018h 0.181345v 2.52129h 0.181345v -9.70365h 0.181345v 6.42982h
 0.181345v -2.67491h 0.181345v 1.95909h 0.181345v -1.95909h 0.181345v 2.67491h 0.181345v -0.715821h 0.181345v -2.55801h 0.181345v 7.49453h 0.181345v -4.93652h 0.181345v 1.46837h 0.181345v -1.46837h 0.181345v -3.13343h 0.181345v 3.13343h 0.181345v
 7.03601h 0.181345v -7.03601h 0.181345v -5.23293h 0.181345v 1.54579h 0.181345v 3.00462h 0.181345v -1.8755h 0.181345v 1.22333h 0.181345v -3.40086h 0.181345v -0.978457h 0.181345v 6.42982h 0.181345v -3.27383h 0.181345v -3.62179h 0.181345v 2.49266h
 0.181345v 0.553704h 0.181345v -5.94875h 0.181345v 6.52417h 0.181345v 7.49453h 0.181345v -4.2207h 0.181345v -5.45136h 0.181345v 0.514839h 0.181345v 3.53819h 0.181345v -7.22533h 0.181345v 3.1723h 0.181345v -2.75899h 0.181345v -0.413307h 0.181345v
 -1.17434h 0.181345v 2.90238h 0.181345v 3.04636h 0.181345v -2.58056h 0.181345v -1.35525h 0.181345v 2.84854h 0.181345v -3.27383h 0.181345v 3.27383h 0.181345v -1.4933h 0.181345v 1.4933h 0.181345v 1.66269h 0.181345v -1.12913h 0.181345v -4.2207h
 0.181345v 1.72804h 0.181345v 1.95909h 0.181345v 2.26161h 0.181345v -1.17434h 0.181345v -0.553704h 0.181345v 1.12913h 0.181345v 0.598916h 0.181345v 2.67491h 0.181345v -6.89562h 0.181345v 1.95909h 0.181345v 2.88602h 0.181345v -5.29658h 0.181345v
 -1.67856h 0.181345v 4.08912h 0.181345v 4.93652h 0.181345v -8.21035h 0.181345v 3.27383h 0.36269v 5.68907h 0.181345v -8.09963h 0.181345v 1.39833h 0.181345v -3.84925h 0.181345v 6.52417h 0.181345v -2.67491h 0.181345v -2.67491h 0.181345v 5.34983h
 0.181345v -3.15599h 0.181345v -0.465798h 0.181345v -4.33488h 0.181345v 9.17999h 0.181345v -4.37931h 0.36269v 7.18236h 0.181345v -8.09963h 0.181345v 2.94412h 0.181345v 1.72804h 0.181345v -2.77645h 0.181345v 0.514839h 0.181345v -3.27383h 0.36269v
 0.863273h 0.181345v 0.451464h 0.181345v -4.33488h 0.181345v 6.82754h 0.181345v -5.01395h 0.181345v 4.48038h 0.181345v -3.27383h 0.181345v 1.31474h 0.181345v 3.04636h 0.181345v -6.32019h 0.181345v 1.95909h 0.181345v -1.20655h 0.181345v 5.01395h
 0.181345v 1.12913h 0.181345v -8.29395h 0.181345v 0.682514h 0.36269v 3.98965h 0.36269v -2.90238h 0.181345v -2.09949h 0.181345v 1.36577h 0.181345v 0.733724h 0.181345v 1.58765h 0.181345v -1.95909h 0.181345v 6.32019h 0.181345v -8.3707h 0.181345v
 3.59629h 0.181345v -0.401982h 0.181345v -2.20485h 0.36269v 3.44543h 0.181345v -3.44543h 0.181345v 2.60683h 0.181345v 2.67491h 0.181345v -4.2207h 0.181345v 1.54579h 0.181345v 0.838595h 0.181345v 2.84854h 0.181345v -3.68714h 0.181345v 4.77441h
 0.181345v 3.84925h 0.181345v -2.05051h 0.181345v -4.84511h 0.181345v 0.946871h 0.181345v 3.89824h 0.181345v -4.84511h 0.181345v 0.946871h 0.181345v 2.67491h 0.181345v 1.22333h 0.181345v -6.15985h 0.181345v 3.8074h 0.181345v 1.12913h 0.181345v
 6.54766h 0.181345v -3.98965h 0.181345v -1.33468h 0.181345v 5.32434h 0.181345v -6.54766h 0.181345v 0.598916h 0.181345v 2.67491h 0.181345v 0.752545h 0.181345v -1.46837h 0.181345v -4.73554h 0.181345v 4.05303h 0.181345v 13.1136h 0.181345v -17.1666h
 0.181345v 4.05303h 0.181345v 0.682514h 0.181345v -5.714h 0.181345v 5.03148h 0.181345v 1.39833h 0.181345v -4.93652h 0.181345v -1.95909h 0.181345v 3.04636h 0.181345v 2.45092h 0.181345v -0.65217h 0.181345v 3.59629h 0.181345v -0.793243h 0.181345v
 -4.6018h 0.181345v 6.23364h 0.181345v -6.23364h 0.181345v -1.08727h 0.181345v -4.48038h 0.181345v 3.96554h 0.181345v 3.40086h 0.181345v -3.89824h 0.181345v -3.46816h 0.181345v 5.56765h 0.181345v -5.94875h 0.181345v 2.90238h 0.181345v 4.84511h
 0.36269v -4.84511h 0.181345v 3.04636h 0.181345v 3.13343h 0.181345v -5.714h 0.181345v 3.15599h 0.181345v -3.15599h 0.181345v 0.978457h 0.181345v 1.0484h 0.181345v -2.49266h 0.181345v 0.946871h 0.181345v 1.54579h 0.181345v -2.49266h 0.181345v
 0.946871h 0.181345v 3.27383h 0.181345v -1.72804h 0.181345v 3.00462h 0.181345v -3.00462h 0.181345v 2.35245h 0.181345v -2.35245h 0.181345v -0.533565h 0.181345v 3.53819h 0.181345v 0.682514h 0.181345v 1.46837h 0.181345v 0.793243h 0.181345v -0.793243h
 0.181345v -2.80305h 0.36269v 4.43489h 0.181345v -2.38438h 0.181345v 0.752545h 0.181345v 6.74199h 0.36269v -8.21035h 0.181345v 3.1002h 0.181345v 7.78507h 0.181345v -3.84925h 0.181345v -2.09949h 0.181345v -1.83632h 0.181345v 2.84854h 0.181345v
 3.53819h 0.181345v 8.89287h 0.181345v -5.94875h 0.181345v -6.48231h 0.181345v 1.08727h 0.181345v -2.09949h 0.181345v 1.01222h 0.181345v 3.53819h 0.181345v -2.45092h 0.181345v -2.09949h 0.181345v 7.49453h 0.181345v -1.54579h 0.181345v 3.27383h
 0.181345v -4.67217h 0.181345v -1.27658h 0.36269v -5.11015h 0.36269v 9.33085h 0.36269v -12.4311h 0.181345v 2.26161h 0.181345v 13.8566h 0.181345v -11.1817h 0.181345v 2.09949h 0.181345v 7.12309h 0.181345v -8.21035h 0.36269v 2.26161h 0.181345v -2.26161h
 0.181345v 3.53819h 0.181345v 1.39833h 0.181345v 1.54579h 0.181345v -5.39504h 0.181345v -1.08727h 0.181345v -1.01222h 0.181345v -0.946871h 0.181345v -3.27383h 0.181345v 7.49453h 0.181345v -1.17434h 0.36269v 2.45092h 0.181345v -3.53819h 0.181345v
 -4.48038h 0.181345v 12.6907h 0.181345v -13.4433h 0.181345v 13.4433h 0.181345v 6.89562h 0.181345v -16.1182h 0.181345v 2.09949h 0.181345v -2.09949h 0.36269v -1.83632h 0.36269v 5.11015h 0.181345v -1.17434h 0.181345v -3.04636h 0.181345v 4.2207h
 0.181345v 1.27658h 0.181345v -3.53819h 0.181345v -4.48038h 0.181345v 4.48038h 0.181345v -5.94875h 0.181345v 1.46837h 0.36269v 2.52129h 0.181345v 1.95909h 0.181345v 2.26161h 0.181345v -6.74199h 0.181345v 12.6907h 0.181345v -5.94875h 0.181345v
 -5.11015h 0.181345v 2.84854h 0.36269v 2.26161h 0.36269v -2.26161h 0.181345v -1.95909h 0.181345v 4.2207h 0.181345v -1.17434h 0.181345v -2.09949h 0.181345v 1.01222h 0.181345v -1.95909h 0.181345v 5.49728h 0.181345v -2.45092h 0.181345v -4.77441h
 0.181345v 11.8975h 0.181345v -8.21035h 0.181345v -4.48038h 0.181345v 4.48038h 0.181345v -5.23293h 0.181345v 3.27383h 0.181345v -1.72804h 0.181345v 5.94875h 0.181345v -5.94875h 0.181345v 11.8975h 0.181345v -7.12309h 0.181345v 2.45092h 0.181345v
 -7.22533h 0.181345v -6.48231h 0.181345v 3.53819h 0.181345v 2.15088h 0.181345v 1.63184h 0.36269v 9.33085h 0.181345v -16.1182h 0.181345v 10.7232h 0.181345v -3.04636h 0.181345v 6.89562h 0.181345v -8.62366h 0.36269v 5.94875h 0.181345v -5.94875h
 0.181345v 0.838595h 0.181345v 3.93581h 0.181345v -4.77441h 0.181345v 1.72804h 0.181345v 4.2207h 0.36269v 1.27658h 0.36269v -6.38673h 0.181345v 1.83632h 0.181345v -4.93652h 0.181345v 2.26161h 0.181345v 5.94875h 0.36269v -3.27383h 0.181345v 2.09949h
 0.181345v -7.71853h 0.181345v -1.8755h 0.181345v 9.59403h 0.181345v -3.04636h 0.181345v -3.98965h 0.181345v -2.55801h 0.181345v 12.0449h 0.181345v -7.22533h 0.181345v -2.94412h 0.181345v 6.63126h 0.181345v -5.23293h 0.181345v 2.38438h 0.181345v
 -0.838595h 0.181345v 5.94875h 0.181345v -6.74199h 0.181345v -6.20391h 0.181345v 6.20391h 0.181345v -1.46837h 0.181345v -3.68714h 0.181345v 3.00462h 0.36269v -4.05303h 0.181345v -2.3337h 0.181345v 2.3337h 0.181345v 1.0484h 0.181345v -3.8074h
 0.181345v 1.78054h 0.181345v 4.37931h 0.181345v -1.79875h 0.181345v -3.93581h 0.181345v -0.425288h 0.181345v 3.27383h 0.181345v -4.08912h 0.181345v 2.13003h 0.181345v 4.2207h 0.181345v -4.2207h 0.181345v -0.889449h 0.181345v -0.425288h 0.181345v
 2.26161h 0.181345v -1.39833h 0.181345v 2.41056h 0.36269v -1.01222h 0.181345v -3.0769h 0.181345v 3.57428h 0.181345v -2.75899h 0.36269v -1.95909h 0.181345v 1.54579h 0.181345v -1.17434h 0.181345v 1.58765h 0.181345v 0.863273h 0.181345v -1.67856h
 0.181345v -0.772358h 0.181345v 5.39504h 0.181345v 0.553704h 0.181345v -0.553704h 0.181345v 5.94875h 0.181345v -6.48231h 0.181345v -1.4933h 0.181345v 3.7549h 0.181345v 2.67491h 0.181345v 1.54579h 0.181345v -0.793243h 0.181345v 3.46816h 0.181345v
 -4.93652h 0.181345v -3.13343h 0.181345v 1.17434h 0.181345v 1.95909h 0.181345v -3.13343h 0.181345v 2.45092h 0.181345v 4.67217h 0.181345v 4.2207h 0.181345v -3.27383h 0.181345v 7.49453h 0.181345v -10.1694h 0.181345v 4.77441h 0.181345v 14.0187h
 0.181345v -8.62366h 0.181345v 8.62366h 0.181345v -15.106h 0.181345v 4.93652h 0.181345v -1.39833h 0.181345v 8.89287h 0.181345v 16.1182h 0.181345v -5.94875h 0.181345v -24.5596h 0.181345v 24.5596h 0.181345v -14.3902h 0.36269v 4.2207h 0.181345v
 -5.94875h 0.181345v 3.68714h 0.181345v 8.21035h 0.181345v -10.1694h 0.181345v 6.89562h 0.181345v 3.27383h 0.181345v 4.2207h 0.36269v 5.94875h 0.181345v -18.3798h 0.181345v 18.3798h 0.181345v -5.94875h 0.36269v -7.49453h 0.181345v 3.27383h 0.181345v
 -3.27383h 0.181345v 23.6127h 0.181345v -23.6127h 0.36269v 23.6127h 0.181345v -16.1182h 0.181345v 5.94875h 0.181345v 10.1694h 0.181345v -16.1182h 0.181345v -7.49453h 0.181345v 33.7822h 0.181345v -30.5083h 0.181345v 4.2207h 0.181345v -10.1694h
 0.181345v 10.1694h 0.36269v 5.94875h 0.181345v -5.94875h 0.36269v 26.2876h 0.181345v -20.3389h 0.36269v 10.1694h 0.181345v 10.1694h 0.181345v -26.2876h 0.181345v 16.1182h 0.181345v -10.1694h 0.544034v 10.1694h 0.181345v -16.1182h 0.181345v 16.1182h
 0.181345v -10.1694h 0.36269v 10.1694h 0.181345v 10.1694h 0.36269v -10.1694h 0.181345v 10.1694h 0.181345v -10.1694h 0.181345v -10.1694h 0.181345v 10.1694h 0.181345v -10.1694h 0.181345v -5.94875h 0.181345v 16.1182h 0.181345v -20.3389h 0.181345v
 20.3389h 0.181345v -10.1694h 0.181345v -5.94875h 0.181345v 16.1182h 0.181345v 10.1694h 0.181345v -10.1694h 0.181345v 10.1694h 0.181345v -20.3389h 0.181345v -10.1694h 0.181345v 20.3389h 0.36269v 10.1694h 0.181345v -26.2876h 0.181345v 16.1182h
 0.36269v -10.1694h 0.181345v 20.3389h 0.544034v -20.3389h 0.181345v 10.1694h 0.181345v -16.1182h 0.181345v 16.1182h 0.36269v 10.1694h 0.544034v -10.1694h 0.181345v 10.1694h 0.181345v -10.1694h 0.181345v 10.1694h 0.181345v -20.3389h 0.36269v 10.1694h
 0.181345v -10.1694h 0.181345v -5.94875h 0.36269v 5.94875h 0.181345v -10.1694h 0.181345v 4.2207h 0.181345v 16.1182h 0.181345v -16.1182h 0.36269v 5.94875h 0.181345v 10.1694h 0.36269v -23.6127h 0.181345v 13.4433h 0.181345v 10.1694h 0.36269v -20.3389h
 0.181345v 20.3389h 0.544034v -10.1694h 0.36269v -5.94875h 0.181345v 26.2876h 0.181345v -33.7822h 0.181345v 23.6127h 0.181345v -10.1694h 0.181345v 10.1694h 0.36269v -16.1182h 0.181345v 5.94875h 0.181345v 20.3389h 0.36269v -26.2876h 0.181345v 16.1182h
 0.181345v -10.1694h 0.181345v -5.94875h 0.181345v 26.2876h 0.181345v -10.1694h 0.36269v 10.1694h 0.181345v -20.3389h 0.181345v 10.1694h 0.181345v 10.1694h 0.181345v -10.1694h 0.181345v 10.1694h 0.181345v -20.3389h 0.181345v -10.1694h 0.181345v
 20.3389h 0.181345v -10.1694h 0.36269v 10.1694h 0.181345v 10.1694h 0.181345v -20.3389h 0.181345v 20.3389h 0.181345v -10.1694h 0.181345v 10.1694h 0.181345v -10.1694h 0.181345v -10.1694h 0.181345v -5.94875h 0.181345v 26.2876h 0.181345v -30.5083h
 0.181345v 10.1694h 0.181345v 20.3389h 0.181345v -10.1694h 0.181345v 10.1694h 0.36269v -20.3389h 0.36269v 10.1694h 0.36269v 10.1694h 0.36269v -10.1694h 0.181345v -10.1694h 0.181345v 20.3389h 0.181345v -10.1694h 0.181345v 10.1694h 0.36269v -10.1694h
 0.725379v 10.1694h 0.36269v -10.1694h 0.181345v 10.1694h 0.181345v -10.1694h 0.544034v 10.1694h 0.181345v -20.3389h 0.181345v 10.1694h 0.181345v 10.1694h 0.181345v -10.1694h 0.181345v -10.1694h 0.181345v 10.1694h 0.725379v 10.1694h 0.36269v
 -10.1694h 0.906724v -10.1694h 0.181345v 20.3389h 0.181345v -20.3389h 0.181345v 20.3389h 0.36269v -10.1694h 0.181345v 10.1694h 0.181345v -20.3389h 0.181345v 10.1694h 0.181345v -10.1694h 0.181345v -5.94875h 0.181345v 16.1182h 0.36269v 10.1694h
 0.181345v -20.3389h 0.36269v 20.3389h 0.181345v -10.1694h 0.181345v -10.1694h 0.181345v 10.1694h 0.181345v 10.1694h 0.181345v -20.3389h 0.181345v -5.94875h 0.181345v 26.2876h 0.36269v -20.3389h 0.181345v 10.1694h 0.181345v -16.1182h 0.181345v
 -4.2207h 0.181345v 30.5083h 0.181345v -10.1694h 0.36269v -10.1694h 0.181345v -5.94875h 0.181345v 26.2876h 0.181345v -20.3389h 0.181345v 10.1694h 0.181345v -10.1694h 0.181345v -10.1694h 0.181345v 30.5083h 0.181345v -26.2876h 0.181345v 26.2876h
 0.36269v -20.3389h 0.181345v 20.3389h 0.181345v -10.1694h 0.181345v -10.1694h 0.181345v 10.1694h 0.36269v 10.1694h 0.181345v -10.1694h 0.36269v 10.1694h 0.181345v -10.1694h 0.181345v -10.1694h 0.181345v 10.1694h 0.36269v 10.1694h 0.181345v -20.3389h
 0.544034v -5.94875h 0.181345v 26.2876h 0.181345v -20.3389h 0.181345v 20.3389h 0.181345v -30.5083h 0.181345v 20.3389h 0.181345v -10.1694h 0.181345v 20.3389h 0.36269v -10.1694h 0.181345v -16.1182h 0.181345v 16.1182h 0.544034" fill="none"
 stroke="black"/>
<path d="M57.1929,280.151h 453.543" fill="none" stroke="black"/>
<path d="M57.1929,272.68v 7.47068" fill="none" stroke="black"/>
<path d="M75.3318,276.415v 3.73534" fill="none" stroke="black"/>
<path d="M93.4707,276.415v 3.73534" fill="none" stroke="black"/>
<path d="M111.61,276.415v 3.73534" fill="none" stroke="black"/>
<path d="M129.749,276.415v 3.73534" fill="none" stroke="black"/>
<path d="M147.887,272.68v 7.47068" fill="none" stroke="black"/>
<path d="M166.026,276.415v 3.73534" fill="none" stroke="black"/>
<path d="M184.165,276.415v 3.73534" fill="none" stroke="black"/>
<path d="M202.304,276.415v 3.73534" fill="none" stroke="black"/>
<path d="M220.443,276.415v 3.73534" fill="none" stroke="black"/>
<path d="M238.582,272.68v 7.47068" fill="none" stroke="black"/>
<path d="M256.721,276.415v 3.73534" fill="none" stroke="black"/>
<path d="M274.86,276.415v 3.73534" fill="none" stroke="black"/>
<path d="M292.999,276.415v 3.73534" fill="none" stroke="black"/>
<path d="M311.138,276.415v 3.73534" fill="none" stroke="black"/>
<path d="M329.277,272.68v 7.47068" fill="none" stroke="black"/>
<path d="M347.415,276.415v 3.73534" fill="none" stroke="black"/>
<path d="M365.554,276.415v 3.73534" fill="none" stroke="black"/>
<path d="M383.693,276.415v 3.73534" fill="none" stroke="black"/>
<path d="M401.832,276.415v 3.73534" fill="none" stroke="black"/>
<path d="M419.971,272.68v 7.47068" fill="none" stroke="black"/>
<path d="M438.11,276.415v 3.73534" fill="none" stroke="black"/>
<path d="M456.249,276.415v 3.73534" fill="none" stroke="black"/>
<path d="M474.388,276.415v 3.73534" fill="none" stroke="black"/>
<path d="M492.527,276.415v 3.73534" fill="none" stroke="black"/>
<path d="M510.666,272.68v 7.47068" fill="none" stroke="black"/>
<path d="M510.666,272.68v 7.47068" fill="none" stroke="black"/>
<text xml:space="preserve" x="54.3523" y="290.27" fill="black" font-size="10.4952" font-family="Helvetica">0</text>
<text xml:space="preserve" x="139.569" y="290.27" fill="black" font-size="10.4952" font-family="Helvetica">500</text>
<text xml:space="preserve" x="227.449" y="290.27" fill="black" font-size="10.4952" font-family="Helvetica">1000</text>
<text xml:space="preserve" x="318.288" y="290.27" fill="black" font-size="10.4952" font-family="Helvetica">1500</text>
<text xml:space="preserve" x="408.831" y="290.27" fill="black" font-size="10.4952" font-family="Helvetica">2000</text>
<text xml:space="preserve" x="499.67" y="290.27" fill="black" font-size="10.4952" font-family="Helvetica">2500</text>
<text xml:space="preserve" x="265.323" y="301.218" fill="black" font-size="10.4952" font-family="Helvetica">Channel</text>
<path d="M57.1929,280.151v -249.023" fill="none" stroke="black"/>
<path d="M63.9961,280.151h -6.80315" fill="none" stroke="black"/>
<path d="M63.9961,277.476h -6.80315" fill="none" stroke="black"/>
<path d="M63.9961,275.214h -6.80315" fill="none" stroke="black"/>
<path d="M63.9961,273.255h -6.80315" fill="none" stroke="black"/>
<path d="M63.9961,271.527h -6.80315" fill="none" stroke="black"/>
<path d="M70.7992,269.981h -13.6063" fill="none" stroke="black"/>
<text xml:space="preserve" x="49.0263" y="273.7" fill="black" font-size="10.4952" font-family="Helvetica">1</text>
<path d="M63.9961,259.812h -6.80315" fill="none" stroke="black"/>
<path d="M63.9961,253.863h -6.80315" fill="none" stroke="black"/>
<path d="M63.9961,249.642h -6.80315" fill="none" stroke="black"/>
<path d="M63.9961,246.368h -6.80315" fill="none" stroke="black"/>
<path d="M63.9961,243.693h -6.80315" fill="none" stroke="black"/>
<path d="M63.9961,241.432h -6.80315" fill="none" stroke="black"/>
<path d="M63.9961,239.473h -6.80315" fill="none" stroke="black"/>
<path d="M63.9961,237.745h -6.80315" fill="none" stroke="black"/>
<path d="M70.7992,236.199h -13.6063" fill="none" stroke="black"/>
<text xml:space="preserve" x="41.629" y="239.968" fill="black" font-size="10.4952" font-family="Helvetica">10</text>
<path d="M63.9961,226.029h -6.80315" fill="none" stroke="black"/>
<path d="M63.9961,220.081h -6.80315" fill="none" stroke="black"/>
<path d="M63.9961,215.86h -6.80315" fill="none" stroke="black"/>
<path d="M63.9961,212.586h -6.80315" fill="none" stroke="black"/>
<path d="M63.9961,209.911h -6.80315" fill="none" stroke="black"/>
<path d="M63.9961,207.65h -6.80315" fill="none" stroke="black"/>
<path d="M63.9961,205.691h -6.80315" fill="none" stroke="black"/>
<path d="M63.9961,203.963h -6.80315" fill="none" stroke="black"/>
<path d="M70.7992,202.417h -13.6063" fill="none" stroke="black"/>
<text xml:space="preserve" x="49.0263" y="202.686" fill="black" font-size="7.16345" font-family="Helvetica">2</text>
<text xml:space="preserve" x="38.0783" y="207.124" fill="black" font-size="10.4952" font-family="Helvetica">10</text>
<path d="M63.9961,192.247h -6.80315" fill="none" stroke="black"/>
<path d="M63.9961,186.299h -6.80315" fill="none" stroke="black"/>
<path d="M63.9961,182.078h -6.80315" fill="none" stroke="black"/>
<path d="M63.9961,178.804h -6.80315" fill="none" stroke="black"/>
<path d="M63.9961,176.129h -6.80315" fill="none" stroke="black"/>
<path d="M63.9961,173.867h -6.80315" fill="none" stroke="black"/>
<path d="M63.9961,171.908h -6.80315" fill="none" stroke="black"/>
<path d="M63.9961,170.18h -6.80315" fill="none" stroke="black"/>
<path d="M70.7992,168.635h -13.6063" fill="none" stroke="black"/>
<text xml:space="preserve" x="49.0263" y="168.363" fill="black" font-size="7.16345" font-family="Helvetica">3</text>
<text xml:space="preserve" x="38.0783" y="173.097" fill="black" font-size="10.4952" font-family="Helvetica">10</text>
<path d="M63.9961,158.465h -6.80315" fill="none" stroke="black"/>
<path d="M63.9961,152.516h -6.80315" fill="none" stroke="black"/>
<path d="M63.9961,148.296h -6.80315" fill="none" stroke="black"/>
<path d="M63.9961,145.022h -6.80315" fill="none" stroke="black"/>
<path d="M63.9961,142.347h -6.80315" fill="none" stroke="black"/>
<path d="M63.9961,140.085h -6.80315" fill="none" stroke="black"/>
<path d="M63.9961,138.126h -6.80315" fill="none" stroke="black"/>
<path d="M63.9961,136.398h -6.80315" fill="none" stroke="black"/>
<path d="M70.7992,134.852h -13.6063" fill="none" stroke="black"/>
<text xml:space="preserve" x="49.0263" y="134.927" fill="black" font-size="7.16345" font-family="Helvetica">4</text>
<text xml:space="preserve" x="38.0783" y="139.365" fill="black" font-size="10.4952" font-family="Helvetica">10</text>
<path d="M63.9961,124.683h -6.80315" fill="none" stroke="black"/>
<path d="M63.9961,118.734h -6.80315" fill="none" stroke="black"/>
<path d="M63.9961,114.514h -6.80315" fill="none" stroke="black"/>
<path d="M63.9961,111.24h -6.80315" fill="none" stroke="black"/>
<path d="M63.9961,108.565h -6.80315" fill="none" stroke="black"/>
<path d="M63.9961,106.303h -6.80315" fill="none" stroke="black"/>
<path d="M63.9961,104.344h -6.80315" fill="none" stroke="black"/>
<path d="M63.9961,102.616h -6.80315" fill="none" stroke="black"/>
<path d="M70.7992,101.07h -13.6063" fill="none" stroke="black"/>
<text xml:space="preserve" x="49.0263" y="100.899" fill="black" font-size="7.16345" font-family="Helvetica">5</text>
<text xml:space="preserve" x="38.0783" y="105.633" fill="black" font-size="10.4952" font-family="Helvetica">10</text>
<path d="M63.9961,90.9008h -6.80315" fill="none" stroke="black"/>
<path d="M63.9961,84.952h -6.80315" fill="none" stroke="black"/>
<path d="M63.9961,80.7313h -6.80315" fill="none" stroke="black"/>
<path d="M63.9961,77.4575h -6.80315" fill="none" stroke="black"/>
<path d="M63.9961,74.7826h -6.80315" fill="none" stroke="black"/>
<path d="M63.9961,72.521h -6.80315" fill="none" stroke="black"/>
<path d="M63.9961,70.5619h -6.80315" fill="none" stroke="black"/>
<path d="M63.9961,68.8338h -6.80315" fill="none" stroke="black"/>
<path d="M70.7992,67.2881h -13.6063" fill="none" stroke="black"/>
<text xml:space="preserve" x="49.0263" y="67.1675" fill="black" font-size="7.16345" font-family="Helvetica">6</text>
<text xml:space="preserve" x="38.0783" y="71.9018" fill="black" font-size="10.4952" font-family="Helvetica">10</text>
<path d="M63.9961,57.1186h -6.80315" fill="none" stroke="black"/>
<path d="M63.9961,51.1699h -6.80315" fill="none" stroke="black"/>
<path d="M63.9961,46.9492h -6.80315" fill="none" stroke="black"/>
<path d="M63.9961,43.6753h -6.80315" fill="none" stroke="black"/>
<path d="M63.9961,41.0004h -6.80315" fill="none" stroke="black"/>
<path d="M63.9961,38.7388h -6.80315" fill="none" stroke="black"/>
<path d="M63.9961,36.7797h -6.80315" fill="none" stroke="black"/>
<path d="M63.9961,35.0517h -6.80315" fill="none" stroke="black"/>
<path d="M70.7992,33.5059h -13.6063" fill="none" stroke="black"/>
<text xml:space="preserve" x="49.0263" y="33.7317" fill="black" font-size="7.16345" font-family="Helvetica">7</text>
<text xml:space="preserve" x="38.0783" y="38.1701" fill="black" font-size="10.4952" font-family="Helvetica">10</text>
<g transform="rotate(-90,26.5385,191.442)">
<text xml:space="preserve" x="26.5385" y="191.442" fill="black" font-size="10.4952" font-family="Helvetica">Counts/Channel</text>
</g>
<text xml:space="preserve" x="404.097" y="67.1675" fill="black" font-size="14.7788" font-family="Helvetica" font-weight="bold"> = 2.4879 MeV</text>
<text xml:space="preserve" x="398.179" y="70.4223" fill="black" font-size="10.0192" font-family="Helvetica" font-weight="bold">p</text>
<text xml:space="preserve" x="389.006" y="67.1675" fill="black" font-size="14.7788" font-family="Helvetica" font-weight="bold">E</text>
<path d="M262.163,167.236v 25.2633" fill="none" stroke="black"/>
<path d="M264.454,192.5l -2.29122, 3.9685l -2.29122, -3.9685z" fill="black"/>
<path d="M264.454,192.5l -2.29122, 3.9685l -2.29122, -3.9685h 4.58243z" fill="none" stroke="black"/>
<text xml:space="preserve" x="266.803" y="165.108" fill="black" font-size="10.4952" font-family="Helvetica" font-weight="bold">_1 	1.369 MeV</text>
<text xml:space="preserve" x="260.293" y="165.108" fill="black" font-size="10.4952" font-family="Times">&#0945;</text>
<path d="M184.528,134.852v 29.8137" fill="none" stroke="black"/>
<path d="M186.819,164.666l -2.29122, 3.9685l -2.29122, -3.9685z" fill="black"/>
<path d="M186.819,164.666l -2.29122, 3.9685l -2.29122, -3.9685h 4.58243z" fill="none" stroke="black"/>
<text xml:space="preserve" x="172.117" y="131.968" fill="black" font-size="10.4952" font-family="Helvetica" font-weight="bold"># p_1 	0.844 MeV</text>
<path d="M210.104,152.516v 12.1497" fill="none" stroke="black"/>
<path d="M212.395,164.666l -2.29122, 3.9685l -2.29122, -3.9685z" fill="black"/>
<path d="M212.395,164.666l -2.29122, 3.9685l -2.29122, -3.9685h 4.58243z" fill="none" stroke="black"/>
<text xml:space="preserve" x="197.564" y="148.242" fill="black" font-size="10.4952" font-family="Helvetica" font-weight="bold"># p_2 	1.015 MeV</text>
<path d="M497.997,269.981h 12.6684" fill="none" stroke="black"/>
<path d="M504.331,259.812h 6.33422" fill="none" stroke="black"/>
<path d="M504.331,253.863h 6.33422" fill="none" stroke="black"/>
<path d="M504.331,249.642h 6.33422" fill="none" stroke="black"/>
<path d="M504.331,246.368h 6.33422" fill="none" stroke="black"/>
<path d="M504.331,243.693h 6.33422" fill="none" stroke="black"/>
<path d="M504.331,241.432h 6.33422" fill="none" stroke="black"/>
<path d="M504.331,239.473h 6.33422" fill="none" stroke="black"/>
<path d="M504.331,237.745h 6.33422" fill="none" stroke="black"/>
<path d="M497.997,236.199h 12.6684" fill="none" stroke="black"/>
<path d="M504.331,226.029h 6.33422" fill="none" stroke="black"/>
<path d="M504.331,220.081h 6.33422" fill="none" stroke="black"/>
<path d="M504.331,215.86h 6.33422" fill="none" stroke="black"/>
<path d="M504.331,212.586h 6.33422" fill="none" stroke="black"/>
<path d="M504.331,209.911h 6.33422" fill="none" stroke="black"/>
<path d="M504.331,207.65h 6.33422" fill="none" stroke="black"/>
<path d="M504.331,205.691h 6.33422" fill="none" stroke="black"/>
<path d="M504.331,203.963h 6.33422" fill="none" stroke="black"/>
<path d="M497.997,202.417h 12.6684" fill="none" stroke="black"/>
<path d="M504.331,192.247h 6.33422" fill="none" stroke="black"/>
<path d="M504.331,186.299h 6.33422" fill="none" stroke="black"/>
<path d="M504.331,182.078h 6.33422" fill="none" stroke="black"/>
<path d="M504.331,178.804h 6.33422" fill="none" stroke="black"/>
<path d="M504.331,176.129h 6.33422" fill="none" stroke="black"/>
<path d="M504.331,173.867h 6.33422" fill="none" stroke="black"/>
<path d="M504.331,171.908h 6.33422" fill="none" stroke="black"/>
<path d="M504.331,170.18h 6.33422" fill="none" stroke="black"/>
<path d="M497.997,168.635h 12.6684" fill="none" stroke="black"/>
<path d="M504.331,158.465h 6.33422" fill="none" stroke="black"/>
<path d="M504.331,152.516h 6.33422" fill="none" stroke="black"/>
<path d="M504.331,148.296h 6.33422" fill="none" stroke="black"/>
<path d="M504.331,145.022h 6.33422" fill="none" stroke="black"/>
<path d="M504.331,142.347h 6.33422" fill="none" stroke="black"/>
<path d="M504.331,140.085h 6.33422" fill="none" stroke="black"/>
<path d="M504.331,138.126h 6.33422" fill="none" stroke="black"/>
<path d="M504.331,136.398h 6.33422" fill="none" stroke="black"/>
<path d="M497.997,134.852h 12.6684" fill="none" stroke="black"/>
<path d="M504.331,124.683h 6.33422" fill="none" stroke="black"/>
<path d="M504.331,118.734h 6.33422" fill="none" stroke="black"/>
<path d="M504.331,114.514h 6.33422" fill="none" stroke="black"/>
<path d="M504.331,111.24h 6.33422" fill="none" stroke="black"/>
<path d="M504.331,108.565h 6.33422" fill="none" stroke="black"/>
<path d="M504.331,106.303h 6.33422" fill="none" stroke="black"/>
<path d="M504.331,104.344h 6.33422" fill="none" stroke="black"/>
<path d="M504.331,102.616h 6.33422" fill="none" stroke="black"/>
<path d="M497.997,101.07h 12.6684" fill="none" stroke="black"/>
<path d="M504.331,90.9008h 6.33422" fill="none" stroke="black"/>
<path d="M504.331,84.952h 6.33422" fill="none" stroke="black"/>
<path d="M504.331,80.7313h 6.33422" fill="none" stroke="black"/>
<path d="M504.331,77.4575h 6.33422" fill="none" stroke="black"/>
<path d="M504.331,74.7826h 6.33422" fill="none" stroke="black"/>
<path d="M504.331,72.521h 6.33422" fill="none" stroke="black"/>
<path d="M504.331,70.5619h 6.33422" fill="none" stroke="black"/>
<path d="M504.331,68.8338h 6.33422" fill="none" stroke="black"/>
<path d="M497.997,67.2881h 12.6684" fill="none" stroke="black"/>
<path d="M504.331,57.1186h 6.33422" fill="none" stroke="black"/>
<path d="M504.331,51.1699h 6.33422" fill="none" stroke="black"/>
<path d="M504.331,46.9492h 6.33422" fill="none" stroke="black"/>
<path d="M504.331,43.6753h 6.33422" fill="none" stroke="black"/>
<path d="M504.331,41.0004h 6.33422" fill="none" stroke="black"/>
<path d="M504.331,38.7388h 6.33422" fill="none" stroke="black"/>
<path d="M57.1929,45.5927v -7.46952" fill="none" stroke="black"/>
<path d="M75.3318,45.5927v -7.46952" fill="none" stroke="black"/>
<path d="M93.4707,45.5927v -7.46952" fill="none" stroke="black"/>
<path d="M111.61,45.5927v -7.46952" fill="none" stroke="black"/>
<path d="M129.749,45.5927v -7.46952" fill="none" stroke="black"/>
<path d="M147.887,45.5927v -7.46952" fill="none" stroke="black"/>
<path d="M166.026,45.5927v -7.46952" fill="none" stroke="black"/>
<path d="M184.165,45.5927v -7.46952" fill="none" stroke="black"/>
<path d="M202.304,45.5927v -7.46952" fill="none" stroke="black"/>
<path d="M220.443,45.5927v -7.46952" fill="none" stroke="black"/>
<path d="M238.582,45.5927v -7.46952" fill="none" stroke="black"/>
<path d="M256.721,45.5927v -7.46952" fill="none" stroke="black"/>
<path d="M274.86,45.5927v -7.46952" fill="none" stroke="black"/>
<path d="M292.999,45.5927v -7.46952" fill="none" stroke="black"/>
<path d="M311.138,45.5927v -7.46952" fill="none" stroke="black"/>
<path d="M329.277,45.5927v -7.46952" fill="none" stroke="black"/>
<path d="M347.415,45.5927v -7.46952" fill="none" stroke="black"/>
<path d="M365.554,45.5927v -7.46952" fill="none" stroke="black"/>
<path d="M383.693,45.5927v -7.46952" fill="none" stroke="black"/>
<path d="M401.832,45.5927v -7.46952" fill="none" stroke="black"/>
<path d="M419.971,45.5927v -7.46952" fill="none" stroke="black"/>
<path d="M438.11,45.5927v -7.46952" fill="none" stroke="black"/>
<path d="M456.249,45.5927v -7.46952" fill="none" stroke="black"/>
<path d="M474.388,45.5927v -7.46952" fill="none" stroke="black"/>
<path d="M492.527,45.5927v -7.46952" fill="none" stroke="black"/>
<path d="M510.666,45.5927v -7.46952" fill="none" stroke="black"/></svg>
