<?xml version="1.0" standalone="no"?>
<svg width="567.429" height="311.778" viewBox="0 0 567.429 311.778" xmlns="http://www.w3.org/2000/svg" shape-rendering="crispEdges">
<title>
Yields/P1/det-9/run_0107_Fit.svg
</title>
<desc>
Creator: ROOT Version 6.12/06
CreationDate: Mon Apr 15 10:29:03 2019</desc>
<defs>
</defs>
<rect x="0.5" y="0" width="566.929" height="311.278" fill="white"/>
<rect x="57.1929" y="31.1278" width="453.543" height="249.023" fill="white"/>
<rect x="57.1929" y="31.1278" width="453.543" height="249.023" fill="none" stroke="black"/>
<rect x="57.1929" y="31.1278" width="453.543" height="249.023" fill="white"/>
<rect x="57.1929" y="31.1278" width="453.543" height="249.023" fill="none" stroke="black"/>
<path d="M57.1929,40.7706h 0.181345v 239.38h 0.36269v -10.4585h 0.181345v 10.4585h 3.08286v -10.4585h 0.181345v 10.4585h 3.44555v -10.4585h 0.181345v 10.4585h 10.8807v -10.4585h 0.181345v 10.4585h 6.16572v -10.4585h 0.181345v 10.4585h 0.544034v
 -10.4585h 0.181345v 10.4585h 4.89631v -10.4585h 0.181345v 10.4585h 0.544034v -27.0349h 0.181345v 16.5764h 0.181345v -10.4585h 0.181345v -13.8254h 0.181345v -16.5764h 0.181345v -16.908h 0.181345v -8.15993h 0.181345v -13.3993h 0.181345v -5.08807h
 0.181345v -4.52188h 0.181345v -2.37924h 0.181345v -2.54242h 0.181345v -2.7109h 0.181345v -0.685957h 0.181345v -1.95178h 0.181345v -0.333h 0.181345v -0.245014h 0.181345v -0.458772h 0.181345v -1.60151h 0.181345v -0.80835h 0.181345v 1.40296h 0.181345v
 -2.24956h 0.181345v 0.303858h 0.181345v 0.146097h 0.181345v -0.481587h 0.181345v 0.367834h 0.181345v -0.711478h 0.181345v 0.249144h 0.181345v -0.810005h 0.181345v 0.530005h 0.181345v 0.661604h 0.181345v -1.19161h 0.181345v 0.622762h 0.181345v
 0.0155151h 0.181345v 0.234662h 0.181345v -0.587534h 0.181345v -1.59579h 0.181345v 0.899392h 0.181345v 0.292421h 0.181345v -0.350231h 0.181345v -0.214837h 0.181345v -0.517209h 0.181345v 1.50143h 0.181345v -1.50143h 0.181345v 1.21574h 0.181345v
 -1.63583h 0.181345v 0.107296h 0.181345v 1.08818h 0.181345v -0.553897h 0.181345v 0.041893h 0.181345v 0.833669h 0.181345v -0.0295273h 0.181345v -0.190532h 0.181345v 0.264459h 0.181345v -0.162164h 0.181345v 0.356086h 0.181345v 0.135729h 0.181345v
 0.74526h 0.181345v -1.07491h 0.181345v -0.39497h 0.181345v -0.243483h 0.181345v -0.253593h 0.181345v -1.45078h 0.181345v -2.14901h 0.181345v -2.72157h 0.181345v -3.11859h 0.181345v -3.27243h 0.181345v -3.28969h 0.181345v -3.41037h 0.181345v -2.6865h
 0.181345v -2.53027h 0.181345v -1.78535h 0.181345v -0.874289h 0.181345v -0.29924h 0.181345v -0.533653h 0.181345v 1.15455h 0.181345v 0.799687h 0.181345v 2.64282h 0.181345v 2.78684h 0.181345v 3.49645h 0.181345v 2.87265h 0.181345v 3.84054h 0.181345v
 4.58838h 0.181345v 4.12546h 0.181345v 4.25011h 0.181345v 1.60981h 0.181345v 3.61553h 0.181345v 1.77136h 0.181345v 0.558403h 0.181345v -0.107968h 0.181345v 2.57448h 0.181345v -0.0953962h 0.181345v -0.529474h 0.181345v 0.371808h 0.181345v -0.824043h
 0.181345v -0.582638h 0.181345v 0.405472h 0.181345v 1.47924h 0.181345v -0.849835h 0.181345v 2.70816h 0.181345v -1.33117h 0.181345v -0.166725h 0.181345v -0.680798h 0.181345v 1.42858h 0.181345v -0.310402h 0.181345v -0.135933h 0.181345v 0.551238h
 0.181345v -1.05035h 0.181345v 0.703474h 0.181345v 0.701915h 0.181345v 0.326838h 0.181345v -0.890959h 0.181345v 0.350096h 0.181345v 0.214024h 0.181345v 0.290172h 0.181345v -0.290172h 0.181345v 0.0359677h 0.181345v 0.290871h 0.181345v 0.0367563h
 0.181345v -0.0734233h 0.181345v 0.597641h 0.181345v 0.622292h 0.181345v 0.119592h 0.181345v -0.31683h 0.181345v 0.59962h 0.181345v 0.795415h 0.181345v -0.0429259h 0.36269v 0.215861h 0.181345v -1.00907h 0.181345v 2.18422h 0.181345v -0.553767h
 0.181345v -0.3582h 0.181345v -1.83115h 0.181345v 2.37169h 0.181345v -1.06238h 0.181345v 0.0428042h 0.181345v 1.20415h 0.181345v -0.636354h 0.181345v -0.308388h 0.181345v 0.532589h 0.181345v -0.962488h 0.181345v 1.7507h 0.181345v -1.45106h 0.181345v
 1.73938h 0.181345v -1.47773h 0.181345v 1.87093h 0.181345v -0.964447h 0.181345v 0.766562h 0.36269v -0.146728h 0.181345v 0.69728h 0.181345v 0.102295h 0.36269v 0.41626h 0.181345v -0.920937h 0.181345v 0.659432h 0.181345v -0.154755h 0.181345v -0.848169h
 0.181345v 2.52941h 0.181345v -2.18592h 0.181345v 2.01478h 0.181345v -1.041h 0.181345v -0.210295h 0.181345v 1.19467h 0.181345v -1.29873h 0.181345v 0.104059h 0.181345v 0.694458h 0.36269v 0.164903h 0.181345v 0.278907h 0.181345v -1.13827h 0.181345v
 0.970306h 0.181345v -1.3823h 0.181345v 1.16122h 0.181345v 0.673203h 0.181345v -0.89109h 0.181345v -0.268008h 0.181345v 1.1591h 0.181345v -3.42415h 0.181345v 0.749891h 0.181345v 1.46213h 0.181345v -2.25767h 0.181345v -1.63979h 0.181345v -0.482872h
 0.181345v 1.10904h 0.181345v -3.03943h 0.181345v 1.27174h 0.181345v -1.78559h 0.181345v -0.398837h 0.181345v 0.500216h 0.181345v 0.0679661h 0.181345v 0.661422h 0.181345v 0.617424h 0.181345v -1.81419h 0.181345v 2.53554h 0.181345v 0.393977h 0.181345v
 -0.510191h 0.181345v 0.832951h 0.181345v 3.26529h 0.181345v -0.932591h 0.181345v 1.55275h 0.181345v 0.980822h 0.181345v -0.334075h 0.181345v -0.646747h 0.181345v 1.67202h 0.181345v 0.357846h 0.181345v -0.41667h 0.181345v -1.13075h 0.181345v 1.79079h
 0.181345v 0.626167h 0.181345v 0.06407h 0.181345v -0.191399h 0.181345v -0.063264h 0.181345v 1.04551h 0.181345v -1.66397h 0.181345v -0.477145h 0.181345v 0.969873h 0.181345v -0.248375h 0.181345v 1.76178h 0.181345v -3.33918h 0.181345v 3.20139h 0.181345v
 -0.472608h 0.181345v -1.6957h 0.181345v 0.0595206h 0.181345v -0.699204h 0.181345v 1.43239h 0.181345v -0.248375h 0.181345v 0.311113h 0.181345v -1.32334h 0.181345v 2.70495h 0.181345v -1.19181h 0.181345v 0.584142h 0.181345v 0.538931h 0.181345v -1.1866h
 0.181345v -0.375666h 0.181345v -1.47178h 0.181345v -0.496557h 0.181345v 2.99167h 0.181345v 0.334569h 0.181345v -2.31623h 0.181345v 0.773937h 0.181345v 1.54229h 0.181345v -2.99702h 0.181345v 1.51594h 0.181345v -0.950768h 0.181345v -1.21658h 0.181345v
 -1.46703h 0.181345v 2.0079h 0.181345v -1.11424h 0.181345v -0.253593h 0.181345v 0.459582h 0.181345v -0.25705h 0.181345v -0.402383h 0.181345v 0.149639h 0.181345v 1.14519h 0.181345v -1.19524h 0.181345v 3.09457h 0.181345v -1.00825h 0.181345v 0.886074h
 0.181345v 1.33501h 0.181345v -1.75499h 0.181345v 2.02324h 0.181345v 0.906277h 0.181345v 0.290172h 0.181345v -2.86042h 0.181345v 0.74526h 0.181345v 0.192212h 0.181345v 0.260152h 0.181345v 0.398837h 0.181345v -1.22843h 0.181345v 0.698959h 0.181345v
 2.01478h 0.181345v -0.583201h 0.181345v 0.288783h 0.181345v -0.431128h 0.181345v -0.960499h 0.181345v 0.133527h 0.181345v -0.656123h 0.181345v 2.35803h 0.181345v 0.612813h 0.181345v -1.83785h 0.181345v -0.742758h 0.181345v 2.27109h 0.181345v
 -0.452688h 0.181345v -0.439501h 0.181345v -0.143701h 0.181345v 0.361851h 0.181345v -2.67753h 0.181345v 1.27945h 0.181345v -0.132939h 0.181345v 1.24085h 0.181345v 0.290172h 0.181345v -1.59705h 0.181345v 1.16386h 0.181345v -0.695444h 0.181345v
 0.413408h 0.181345v -0.27686h 0.181345v 1.36283h 0.181345v -0.803933h 0.181345v -2.96297h 0.181345v 0.841805h 0.181345v 1.35791h 0.36269v 2.33718h 0.181345v -2.67175h 0.181345v 0.066323h 0.181345v 0.472608h 0.181345v -0.930861h 0.181345v 0.458253h
 0.181345v 0.404179h 0.181345v -1.7999h 0.181345v 0.937472h 0.181345v -0.0643432h 0.181345v 0.926775h 0.181345v 1.13394h 0.181345v -0.363595h 0.181345v -1.50326h 0.181345v 1.07821h 0.181345v 0.862432h 0.181345v -1.20772h 0.181345v -0.926775h
 0.181345v 0.723332h 0.181345v 1.04581h 0.181345v -1.64018h 0.181345v 1.1431h 0.181345v 0.140359h 0.181345v -0.553767h 0.36269v -2.8413h 0.181345v 2.30714h 0.181345v -0.130637h 0.181345v -0.0648967h 0.181345v -0.256831h 0.181345v 0.650465h 0.181345v
 -1.98984h 0.181345v 1.6611h 0.181345v -1.71924h 0.181345v 0.411796h 0.181345v 1.11359h 0.181345v 0.858656h 0.181345v 0.766784h 0.181345v -1.3664h 0.181345v 1.3664h 0.181345v 1.03589h 0.181345v -2.33683h 0.181345v 2.4908h 0.181345v 0.155552h
 0.181345v -2.71181h 0.181345v 2.94819h 0.181345v -3.89746h 0.181345v 1.68544h 0.181345v 1.82009h 0.181345v -2.02445h 0.181345v 1.64244h 0.181345v 0.694732h 0.181345v -2.4719h 0.181345v 1.70191h 0.181345v 0.691195h 0.181345v 1.57227h 0.181345v
 -1.80621h 0.181345v 2.15917h 0.181345v -1.68762h 0.181345v 1.07525h 0.181345v -0.422673h 0.181345v -1.04655h 0.181345v 0.156358h 0.181345v 0.560378h 0.181345v 0.413408h 0.181345v 0.685957h 0.181345v -0.0874695h 0.181345v -1.33466h 0.181345v 1.16122h
 0.181345v -0.256467h 0.181345v -0.581996h 0.181345v 0.497467h 0.181345v -0.415686h 0.181345v 2.29859h 0.181345v -2.05055h 0.181345v 1.58047h 0.181345v -0.184008h 0.181345v -2.04904h 0.181345v 2.3259h 0.181345v 1.36376h 0.181345v -2.95348h 0.181345v
 2.95348h 0.181345v -2.7849h 0.181345v 1.236h 0.181345v 1.54889h 0.181345v -1.45661h 0.181345v 0.955284h 0.181345v -0.389401h 0.181345v 1.09601h 0.181345v -2.29634h 0.181345v 2.40004h 0.181345v 1.07821h 0.181345v -1.68998h 0.181345v -0.683736h
 0.181345v -0.189794h 0.181345v 1.38161h 0.181345v -0.902569h 0.181345v 1.00627h 0.181345v -0.308989h 0.181345v 1.05557h 0.181345v -3.23511h 0.181345v 3.23511h 0.181345v -1.75285h 0.181345v 1.42835h 0.36269v -1.42835h 0.181345v 0.494748h 0.181345v
 2.63072h 0.181345v -3.12547h 0.181345v 2.08448h 0.181345v -0.111354h 0.181345v -0.544769h 0.181345v -1.03386h 0.181345v 2.85121h 0.181345v -1.38312h 0.181345v -2.15183h 0.181345v 0.386905h 0.181345v -1.84234h 0.181345v 0.710176h 0.181345v 2.57025h
 0.181345v -1.14125h 0.181345v 1.03386h 0.181345v 0.656123h 0.181345v -0.656123h 0.181345v -2.55348h 0.181345v 2.23581h 0.181345v -0.311113h 0.181345v 0.206694h 0.181345v 0.529474h 0.181345v -2.38736h 0.181345v 3.04827h 0.181345v -2.29369h 0.181345v
 0.896608h 0.181345v -0.405083h 0.181345v -0.0995941h 0.181345v -0.488342h 0.181345v 3.0813h 0.181345v -1.56613h 0.181345v 0.540863h 0.181345v -1.56768h 0.181345v 0.0995941h 0.181345v -1.69924h 0.181345v 2.8405h 0.181345v -2.29507h 0.181345v 1.5589h
 0.181345v 0.311113h 0.181345v 0.862432h 0.181345v -1.07055h 0.181345v 0.20812h 0.181345v 1.77716h 0.181345v -2.6919h 0.181345v 1.2324h 0.181345v -1.33069h 0.181345v 1.98681h 0.181345v -1.78958h 0.181345v -0.584142h 0.181345v 0.986525h 0.181345v
 0.624439h 0.181345v -1.98819h 0.181345v 2.6396h 0.181345v -1.17355h 0.181345v -0.102295h 0.181345v -0.69728h 0.181345v 2.19666h 0.181345v -0.112182h 0.181345v -1.88852h 0.181345v 1.66663h 0.181345v -1.26691h 0.181345v -1.44729h 0.181345v 1.9623h
 0.181345v -1.58973h 0.181345v 0.382007h 0.181345v -1.82009h 0.181345v 1.62788h 0.181345v -2.29859h 0.181345v 0.756683h 0.181345v -2.16492h 0.181345v 1.57314h 0.181345v 0.250783h 0.181345v -0.167651h 0.181345v -0.890194h 0.181345v -1.56613h 0.181345v
 0.577619h 0.181345v 0.988514h 0.181345v 0.157996h 0.181345v -1.7948h 0.181345v -1.21856h 0.181345v 1.21856h 0.181345v 0.94561h 0.181345v 1.74904h 0.181345v -2.55297h 0.181345v -1.0315h 0.181345v 1.17452h 0.181345v 0.586033h 0.181345v -1.95866h
 0.181345v 2.80352h 0.181345v 0.319344h 0.181345v -0.160517h 0.181345v -0.701915h 0.181345v 0.622292h 0.181345v -0.314354h 0.181345v 0.235149h 0.181345v -1.2138h 0.181345v -0.5018h 0.181345v 3.20908h 0.181345v -1.65066h 0.181345v -0.910132h 0.181345v
 -0.0734233h 0.36269v 0.295862h 0.181345v -0.657712h 0.181345v -1.8801h 0.181345v -0.858924h 0.181345v -2.77082h 0.181345v -1.59965h 0.181345v 0.179627h 0.181345v -4.12456h 0.181345v 1.10496h 0.181345v -3.45539h 0.181345v -0.204493h 0.181345v
 -3.06206h 0.181345v -1.07412h 0.181345v -0.794878h 0.181345v -1.54991h 0.181345v -0.280636h 0.181345v -1.32985h 0.181345v -0.118341h 0.181345v -0.217344h 0.181345v 0.696383h 0.181345v -0.762633h 0.181345v 1.04336h 0.181345v 0.286046h 0.181345v
 2.29584h 0.181345v -0.837895h 0.181345v 2.66769h 0.181345v 0.4821h 0.181345v 1.70995h 0.181345v 2.14862h 0.181345v 0.613305h 0.181345v 2.61975h 0.181345v 0.804908h 0.181345v 3.1616h 0.181345v 0.361108h 0.181345v 2.67803h 0.181345v -0.490725h
 0.181345v 2.4877h 0.181345v 1.81279h 0.181345v 0.824711h 0.181345v 0.962488h 0.181345v 0.0906216h 0.181345v 1.13216h 0.181345v 0.197237h 0.181345v -0.098941h 0.181345v -0.389401h 0.181345v 1.6218h 0.36269v 0.43423h 0.181345v -1.66663h 0.181345v
 4.04769h 0.181345v 0.794313h 0.181345v -1.30154h 0.181345v -1.53977h 0.181345v -0.112182h 0.181345v -0.331628h 0.181345v -0.537012h 0.181345v 5.24662h 0.181345v -4.70961h 0.181345v 3.98055h 0.181345v -0.830767h 0.181345v -0.13412h 0.181345v
 -3.76224h 0.181345v 2.23943h 0.181345v 2.92089h 0.181345v -2.67753h 0.181345v -0.363595h 0.181345v -1.58973h 0.181345v 3.50221h 0.181345v -1.67107h 0.181345v -0.712973h 0.181345v 1.20772h 0.181345v 0.906875h 0.181345v 1.10791h 0.181345v -1.88852h
 0.181345v -0.981709h 0.181345v 3.6064h 0.181345v -4.30291h 0.181345v 2.19412h 0.181345v -3.49753h 0.181345v 4.30603h 0.181345v -0.543787h 0.181345v 0.269444h 0.181345v 2.99763h 0.181345v -3.79195h 0.181345v 0.524869h 0.36269v 2.1489h 0.181345v
 -2.41362h 0.181345v 0.808503h 0.181345v -3.88395h 0.181345v 4.59246h 0.181345v 0.441645h 0.181345v -0.586033h 0.181345v -0.838463h 0.181345v 0.838463h 0.181345v -1.50326h 0.181345v 3.99774h 0.181345v -0.500216h 0.181345v -1.40823h 0.181345v 1.73986h
 0.181345v -0.973786h 0.181345v -1.91623h 0.181345v 4.47974h 0.181345v -4.20032h 0.181345v -0.553767h 0.181345v -0.53416h 0.181345v -0.89156h 0.181345v 4.09533h 0.181345v -4.2185h 0.181345v 2.97339h 0.181345v 0.766076h 0.181345v -2.72473h 0.181345v
 5.10311h 0.181345v -5.49167h 0.181345v 2.95694h 0.181345v -1.19575h 0.181345v 1.041h 0.181345v -3.67172h 0.181345v 3.0681h 0.181345v -1.13929h 0.181345v 0.417219h 0.181345v -0.417219h 0.181345v -0.271871h 0.181345v 1.11817h 0.181345v 2.3501h
 0.181345v 0.693844h 0.181345v -3.75245h 0.181345v 0.279424h 0.181345v -0.279424h 0.181345v 2.23389h 0.181345v 0.995204h 0.181345v -1.62398h 0.181345v -0.454963h 0.181345v 1.57314h 0.181345v -2.86109h 0.181345v 2.53306h 0.181345v -1.68676h 0.181345v
 0.59178h 0.181345v -1.84408h 0.181345v 2.1489h 0.181345v -3.05578h 0.181345v 0.642159h 0.181345v -2.19412h 0.181345v -2.78872h 0.181345v -0.464297h 0.181345v -1.22881h 0.181345v -2.33793h 0.181345v -0.0720214h 0.181345v -3.56674h 0.181345v -1.09385h
 0.181345v -1.45726h 0.181345v -3.71725h 0.181345v -1.69792h 0.181345v -1.88458h 0.181345v -1.67511h 0.181345v -0.20993h 0.181345v -1.1535h 0.181345v -1.94522h 0.181345v -0.905991h 0.181345v 0.0801513h 0.181345v -0.278686h 0.181345v -0.370168h
 0.181345v -0.823892h 0.181345v 0.978647h 0.181345v -0.996858h 0.181345v 1.53119h 0.181345v -0.495398h 0.181345v 1.13318h 0.181345v 1.43178h 0.181345v 1.00308h 0.181345v 1.3691h 0.181345v 1.20997h 0.181345v 2.30638h 0.181345v 1.02394h 0.181345v
 2.54053h 0.181345v 1.21493h 0.181345v 1.78888h 0.181345v 3.28796h 0.181345v 2.41362h 0.181345v 1.36896h 0.181345v 1.13764h 0.181345v 6.91093h 0.181345v -1.76119h 0.181345v 0.653282h 0.181345v 0.405992h 0.181345v 4.61754h 0.181345v -1.75645h
 0.181345v 1.94389h 0.181345v 0.973786h 0.181345v 0.615941h 0.181345v -1.39993h 0.181345v 0.584142h 0.181345v 2.59295h 0.181345v -0.914732h 0.181345v 1.63912h 0.181345v -2.07649h 0.181345v 6.01045h 0.181345v -4.1793h 0.181345v 2.08448h 0.181345v
 -6.11784h 0.181345v 7.27906h 0.181345v 3.36689h 0.181345v -5.86425h 0.181345v -2.79351h 0.181345v 3.85279h 0.181345v 0.846303h 0.181345v -4.69909h 0.181345v 5.90681h 0.181345v -5.69279h 0.181345v 1.58973h 0.181345v 1.77716h 0.181345v -0.787402h
 0.181345v -2.14211h 0.181345v 3.76028h 0.181345v 2.46891h 0.181345v -2.18151h 0.181345v 0.292989h 0.181345v 1.88852h 0.181345v -4.59008h 0.181345v 1.02334h 0.181345v 1.09783h 0.181345v 2.13729h 0.181345v -4.74522h 0.181345v -0.701915h 0.181345v
 3.02781h 0.181345v 1.77716h 0.181345v -3.36689h 0.181345v 1.041h 0.181345v 3.63876h 0.181345v -1.31287h 0.181345v -1.77716h 0.181345v 2.75095h 0.181345v -2.18151h 0.181345v 1.20772h 0.181345v -0.914732h 0.181345v -1.13929h 0.36269v -2.97785h
 0.181345v 1.66498h 0.181345v -0.973786h 0.181345v 2.56351h 0.181345v -2.3259h 0.181345v 1.5101h 0.181345v -0.262414h 0.181345v -1.24769h 0.181345v -0.928813h 0.181345v -0.223537h 0.181345v -0.651401h 0.181345v -0.826972h 0.181345v 1.92881h 0.181345v
 1.69168h 0.181345v -3.00454h 0.181345v -1.01303h 0.181345v 1.22406h 0.181345v 2.53992h 0.181345v -1.43808h 0.181345v 0.464297h 0.181345v -1.13501h 0.181345v 2.88273h 0.181345v -1.02334h 0.181345v 4.25845h 0.181345v -3.49753h 0.181345v -0.511522h
 0.181345v 5.38167h 0.181345v -0.355039h 0.181345v -0.685957h 0.181345v -2.75095h 0.181345v -3.02781h 0.181345v 2.47908h 0.181345v 0.548732h 0.181345v 2.09483h 0.181345v -5.57307h 0.181345v 6.2292h 0.181345v -6.00566h 0.181345v 4.11714h 0.181345v
 3.66568h 0.181345v -3.36689h 0.181345v -0.298791h 0.181345v 0.914732h 0.181345v -1.49513h 0.181345v 1.81279h 0.181345v -3.68455h 0.181345v 1.58973h 0.181345v 0.862432h 0.181345v 5.25541h 0.181345v -4.65179h 0.181345v -3.05578h 0.181345v 4.34068h
 0.181345v -1.88852h 0.181345v -4.77805h 0.181345v 4.48507h 0.181345v 0.896608h 0.181345v -4.02956h 0.181345v 2.01478h 0.181345v 5.45885h 0.181345v -6.24625h 0.181345v 4.77304h 0.181345v -3.15487h 0.181345v -0.282035h 0.181345v 0.569443h 0.181345v
 0.59178h 0.181345v 1.92881h 0.181345v -1.62398h 0.181345v -1.18402h 0.181345v 2.808h 0.181345v 0.346876h 0.181345v -1.97086h 0.181345v 2.3259h 0.181345v -2.3259h 0.181345v 1.2849h 0.181345v 1.77716h 0.181345v -4.80497h 0.181345v -1.05927h 0.181345v
 3.43096h 0.181345v 1.34208h 0.181345v -4.77304h 0.181345v 2.19857h 0.181345v -0.862432h 0.181345v 0.282035h 0.181345v -1.87176h 0.181345v 2.75095h 0.181345v -1.97701h 0.181345v 2.91062h 0.181345v 3.20722h 0.181345v -3.20722h 0.36269v -0.628777h
 0.181345v 2.3259h 0.181345v -4.06881h 0.181345v 5.98129h 0.181345v -3.28511h 0.181345v 5.01139h 0.181345v -5.01139h 0.181345v 3.28511h 0.181345v -2.26753h 0.181345v 1.09121h 0.181345v -1.77716h 0.181345v 3.36689h 0.181345v -1.58973h 0.181345v
 -0.372573h 0.181345v 1.54889h 0.181345v -1.17632h 0.181345v -1.77716h 0.181345v -1.58973h 0.181345v 6.26949h 0.181345v -5.01139h 0.181345v 8.0392h 0.181345v -6.30298h 0.181345v 0.75458h 0.181345v 0.39193h 0.181345v -1.86514h 0.36269v 3.9938h
 0.181345v -6.56828h 0.181345v 1.88852h 0.181345v 4.67976h 0.181345v -3.9938h 0.181345v 4.93714h 0.181345v 1.00627h 0.181345v -3.67588h 0.181345v 1.72628h 0.181345v 5.44713h 0.181345v -6.76h 0.181345v 0.862432h 0.181345v -0.437377h 0.181345v
 0.437377h 0.181345v 0.914732h 0.181345v -1.35211h 0.181345v 8.44374h 0.181345v -8.86879h 0.181345v 4.91012h 0.181345v 0.59178h 0.181345v -0.59178h 0.181345v 3.95867h 0.181345v -2.75095h 0.181345v -6.53125h 0.181345v 4.75409h 0.181345v 0.569443h
 0.181345v -3.59725h 0.181345v 8.32986h 0.181345v -0.773937h 0.181345v -0.736168h 0.181345v 0.736168h 0.181345v -3.36689h 0.181345v 2.63072h 0.181345v 4.10306h 0.181345v -6.11784h 0.181345v -1.77716h 0.181345v 8.86879h 0.181345v -9.947h 0.181345v
 9.947h 0.181345v -4.34068h 0.181345v -0.736168h 0.181345v 2.3259h 0.36269v -2.3259h 0.181345v 2.3259h 0.181345v -2.3259h 0.181345v 4.10306h 0.181345v -2.59295h 0.181345v -1.5101h 0.181345v 2.3259h 0.181345v -3.02781h 0.181345v 3.89024h 0.36269v
 -2.45216h 0.181345v 7.70757h 0.181345v -6.93363h 0.181345v -2.88273h 0.181345v 3.69852h 0.181345v 2.75095h 0.181345v -3.56674h 0.181345v 4.60774h 0.181345v -2.01478h 0.36269v 2.01478h 0.181345v -4.60774h 0.181345v 2.59295h 0.181345v 0.973786h
 0.181345v 4.67976h 0.181345v -5.65354h 0.181345v 8.68136h 0.181345v -4.34068h 0.181345v -2.3259h 0.36269v -1.041h 0.181345v 1.041h 0.181345v 1.11817h 0.181345v -3.13296h 0.36269v 7.09163h 0.181345v -8.86879h 0.181345v 0.862432h 0.181345v 0.914732h
 0.181345v 0.973786h 0.181345v 2.15917h 0.181345v -2.15917h 0.181345v -0.973786h 0.181345v -7.32556h 0.181345v 1.84988h 0.181345v 7.49046h 0.181345v -10.4585h 0.181345v -1.041h 0.181345v -4.71325h 0.181345v -0.363595h 0.181345v -2.3259h 0.181345v
 -3.05578h 0.181345v -0.973786h 0.181345v -0.914732h 0.181345v 0.450435h 0.181345v 2.47908h 0.181345v -3.58092h 0.181345v -4.07267h 0.181345v 0.16312h 0.181345v -0.642159h 0.181345v 0.479039h 0.181345v 0.328023h 0.181345v 0.166725h 0.181345v
 -2.46891h 0.181345v -0.4211h 0.181345v -2.18683h 0.181345v 4.91012h 0.181345v 0.852682h 0.181345v -2.57448h 0.181345v 2.2276h 0.181345v -1.92881h 0.181345v 3.36689h 0.181345v 0.773937h 0.181345v 1.45795h 0.181345v 1.37262h 0.181345v -0.701915h
 0.181345v 0.464297h 0.181345v -0.233934h 0.181345v 5.21677h 0.181345v 2.88273h 0.181345v -1.14651h 0.181345v -0.363595h 0.181345v 9.0859h 0.181345v -4.5038h 0.181345v 1.53574h 0.181345v 2.3259h 0.181345v 1.31287h 0.181345v -1.92881h 0.181345v
 -1.70995h 0.181345v 10.4585h 0.36269v 3.63876h 0.181345v -5.65354h 0.181345v 5.65354h 0.181345v -7.43071h 0.181345v 7.43071h 0.181345v -7.43071h 0.181345v -3.02781h 0.181345v 4.80497h 0.181345v -3.36689h 0.181345v -3.95867h 0.181345v 2.52059h
 0.181345v -7.84412h 0.181345v 0.413408h 0.181345v -0.413408h 0.181345v -2.6144h 0.181345v 3.89024h 0.181345v -6.98027h 0.181345v -5.15647h 0.181345v 2.12866h 0.181345v -2.7128h 0.181345v -1.62788h 0.181345v -0.505806h 0.181345v -1.27136h 0.181345v
 -3.02781h 0.181345v 2.28439h 0.181345v -2.53174h 0.181345v 0.75458h 0.181345v -4.81669h 0.181345v 0.670708h 0.181345v -1.31287h 0.181345v 0.455879h 0.181345v 0.955284h 0.36269v -1.23046h 0.181345v -1.87782h 0.181345v 0.161375h 0.181345v -0.321043h
 0.181345v 0.0796226h 0.181345v -0.853559h 0.181345v 1.58973h 0.181345v -1.20772h 0.181345v 1.71924h 0.181345v -2.47382h 0.181345v 1.06731h 0.181345v 0.563368h 0.181345v -0.720541h 0.181345v -1.48775h 0.181345v -1.1586h 0.181345v 0.670708h 0.181345v
 1.28795h 0.181345v -3.63343h 0.181345v 0.356437h 0.181345v -1.21234h 0.181345v -0.80995h 0.181345v 1.72468h 0.181345v -2.79019h 0.181345v 0.147686h 0.181345v 2.64251h 0.181345v -2.44332h 0.181345v -0.395785h 0.181345v 0.445997h 0.181345v 1.423h
 0.181345v -1.57314h 0.181345v -1.73838h 0.181345v 3.47825h 0.181345v 0.803377h 0.181345v 2.21823h 0.181345v -0.60228h 0.181345v 0.808503h 0.181345v 2.31436h 0.181345v 1.00071h 0.181345v 2.22564h 0.181345v 2.73098h 0.181345v -1.48157h 0.181345v
 6.22678h 0.181345v -2.83273h 0.181345v 6.9563h 0.181345v -1.82499h 0.181345v 1.61096h 0.181345v 6.8806h 0.181345v -3.29968h 0.181345v 3.98564h 0.181345v -0.685957h 0.181345v 4.67976h 0.181345v 3.02781h 0.181345v 1.16122h 0.181345v -1.16122h
 0.181345v 1.16122h 0.181345v 11.0745h 0.181345v -1.20772h 0.181345v -1.11817h 0.181345v -2.92951h 0.181345v 5.25541h 0.181345v -6.93363h 0.181345v 6.93363h 0.181345v -2.3259h 0.181345v -1.041h 0.181345v 2.15917h 0.181345v -2.15917h 0.181345v
 6.11784h 0.36269v 1.58973h 0.36269v -1.58973h 0.181345v 7.70757h 0.544034v -9.14565h 0.181345v 6.81976h 0.181345v 5.07685h 0.181345v 3.36689h 0.181345v -8.44374h 0.181345v 2.3259h 0.181345v -10.4585h 0.181345v 6.11784h 0.181345v 4.34068h 0.36269v
 -2.3259h 0.181345v 12.7844h 0.36269v -7.70757h 0.36269v 7.70757h 0.181345v 6.11784h 0.181345v -13.8254h 0.544034v 34.7424h 0.181345v -27.0349h 0.181345v -7.70757h 0.36269v -7.09163h 0.181345v 14.7992h 0.181345v 6.11784h 0.181345v -10.4585h 0.181345v
 -6.11784h 0.181345v 10.4585h 0.544034v -7.70757h 0.181345v 7.70757h 0.36269v -7.70757h 0.181345v 13.8254h 0.181345v -13.8254h 0.181345v 7.70757h 0.181345v -7.70757h 0.36269v -5.07685h 0.181345v 8.44374h 0.181345v -6.11784h 0.36269v -2.3259h
 0.181345v 8.44374h 0.181345v 4.34068h 0.181345v -16.5764h 0.181345v 12.2357h 0.181345v -6.11784h 0.181345v 10.4585h 0.181345v -7.70757h 0.181345v 3.36689h 0.181345v 4.34068h 0.181345v 6.11784h 0.181345v -6.11784h 0.181345v -12.7844h 0.181345v
 8.44374h 0.181345v 10.4585h 0.181345v -6.11784h 0.181345v -12.7844h 0.181345v 2.3259h 0.36269v 16.5764h 0.181345v -10.4585h 0.181345v -6.11784h 0.181345v -4.34068h 0.36269v 31.3756h 0.181345v -34.7424h 0.181345v 7.70757h 0.181345v -7.70757h
 0.181345v -7.09163h 0.181345v 4.34068h 0.181345v -2.3259h 0.181345v -3.79195h 0.181345v 1.77716h 0.36269v -0.914732h 0.181345v -1.67822h 0.181345v 0.815791h 0.181345v -4.95662h 0.181345v 2.63072h 0.181345v 1.5101h 0.181345v 5.72591h 0.181345v
 -7.93793h 0.181345v 2.21202h 0.181345v 3.56674h 0.36269v -2.75095h 0.181345v 3.79195h 0.36269v 6.66657h 0.181345v -14.157h 0.181345v 12.5673h 0.181345v 3.36689h 0.181345v -9.48473h 0.181345v 2.15917h 0.181345v 3.95867h 0.181345v -2.75095h 0.181345v
 4.34068h 0.181345v 3.79195h 0.181345v -8.13262h 0.36269v 37.4934h 0.181345v -37.4934h 0.181345v 27.0349h 0.181345v -10.4585h 0.181345v 10.4585h 0.181345v -10.4585h 0.181345v 4.34068h 0.181345v -4.34068h 0.181345v -13.8254h 0.181345v 18.1661h
 0.181345v -4.34068h 0.181345v -6.11784h 0.181345v 6.11784h 0.181345v 20.917h 0.181345v -24.2839h 0.181345v 7.70757h 0.181345v -10.4585h 0.181345v 6.11784h 0.181345v 20.917h 0.181345v -16.5764h 0.181345v -4.34068h 0.36269v 20.917h 0.181345v -16.5764h
 0.181345v -4.34068h 0.544034v -3.36689h 0.181345v 3.36689h 0.181345v -6.11784h 0.181345v 2.75095h 0.181345v 34.7424h 0.181345v -31.3756h 0.181345v 20.917h 0.36269v -16.5764h 0.181345v -7.70757h 0.36269v 7.70757h 0.181345v 27.0349h 0.181345v -20.917h
 0.181345v -6.11784h 0.181345v -12.7844h 0.181345v 18.9023h 0.36269v -10.4585h 0.181345v -3.36689h 0.181345v 7.70757h 0.181345v -12.7844h 0.181345v 39.8193h 0.181345v -20.917h 0.181345v -10.4585h 0.181345v -6.11784h 0.181345v 6.11784h 0.181345v
 -10.4585h 0.181345v 10.4585h 0.36269v 4.34068h 0.181345v -4.34068h 0.181345v 10.4585h 0.181345v -10.4585h 0.181345v -6.11784h 0.181345v 2.75095h 0.181345v 13.8254h 0.181345v -10.4585h 0.181345v 20.917h 0.181345v -24.2839h 0.181345v 7.70757h 0.36269v
 -10.4585h 0.36269v 6.11784h 0.181345v -13.8254h 0.181345v 13.8254h 0.181345v -3.36689h 0.181345v -5.07685h 0.181345v -5.38167h 0.181345v 7.70757h 0.181345v -7.70757h 0.181345v 10.4585h 0.181345v -2.75095h 0.181345v -9.14565h 0.181345v 9.14565h
 0.181345v -7.70757h 0.181345v 3.36689h 0.181345v -3.36689h 0.181345v 10.4585h 0.181345v -5.07685h 0.36269v -5.38167h 0.181345v 1.58973h 0.36269v 3.79195h 0.181345v -9.34034h 0.181345v 2.52059h 0.181345v 9.14565h 0.36269v -9.14565h 0.181345v 3.02781h
 0.181345v 3.79195h 0.181345v -9.34034h 0.181345v 17.7841h 0.181345v -8.44374h 0.36269v -5.38167h 0.181345v 7.70757h 0.181345v -10.4585h 0.181345v 6.11784h 0.181345v 2.01478h 0.181345v 18.9023h 0.181345v 10.4585h 0.181345v -31.3756h 0.181345v
 4.34068h 0.181345v -4.34068h 0.181345v 4.34068h 0.36269v -7.70757h 0.181345v 1.58973h 0.181345v -3.02781h 0.181345v 4.80497h 0.181345v 4.34068h 0.181345v 2.75095h 0.36269v -2.75095h 0.181345v 6.11784h 0.181345v -13.8254h 0.181345v 5.38167h 0.36269v
 5.07685h 0.181345v 3.36689h 0.181345v 4.34068h 0.181345v -16.5764h 0.181345v -1.58973h 0.36269v 7.70757h 0.36269v -2.3259h 0.181345v -3.79195h 0.181345v 6.11784h 0.181345v 27.0349h 0.181345v -27.0349h 0.181345v 16.5764h 0.181345v -10.4585h 0.181345v
 4.34068h 0.181345v -10.4585h 0.181345v -2.3259h 0.181345v -6.81976h 0.181345v 6.81976h 0.181345v -3.79195h 0.181345v -1.58973h 0.181345v 24.2839h 0.181345v -10.4585h 0.181345v -8.44374h 0.181345v 2.3259h 0.181345v -4.34068h 0.181345v 10.4585h
 0.181345v -10.4585h 0.181345v -1.77716h 0.181345v 8.86879h 0.181345v -17.5501h 0.181345v 4.34068h 0.181345v 2.75095h 0.181345v -1.43808h 0.181345v 15.2635h 0.36269v 4.34068h 0.181345v -12.7844h 0.181345v 2.3259h 0.181345v -6.11784h 0.181345v
 -1.58973h 0.181345v 5.38167h 0.181345v -2.01478h 0.181345v 2.01478h 0.181345v 5.07685h 0.181345v -7.09163h 0.36269v 7.09163h 0.181345v -8.86879h 0.181345v 3.79195h 0.181345v -2.01478h 0.181345v -7.32556h 0.181345v 7.32556h 0.36269v 7.09163h
 0.181345v -7.09163h 0.181345v -8.44374h 0.181345v 15.5354h 0.181345v -5.07685h 0.181345v -8.13262h 0.181345v 1.31287h 0.36269v 3.02781h 0.181345v 3.79195h 0.181345v -2.01478h 0.181345v -4.80497h 0.181345v 3.02781h 0.181345v 1.77716h 0.181345v
 -7.32556h 0.181345v 9.34034h 0.36269v -14.2505h 0.36269v 8.86879h 0.181345v -2.75095h 0.181345v 4.34068h 0.181345v -3.02781h 0.36269v -1.31287h 0.181345v 2.75095h 0.181345v -3.95867h 0.181345v 3.95867h 0.181345v -8.00636h 0.181345v 5.25541h
 0.181345v -2.3259h 0.181345v -2.92951h 0.181345v 8.00636h 0.181345v -5.07685h 0.181345v 1.11817h 0.181345v 2.52059h 0.181345v -2.52059h 0.181345v 1.20772h 0.181345v -1.20772h 0.181345v -5.72591h 0.181345v 0.815791h 0.181345v 7.43071h 0.181345v
 -1.31287h 0.181345v -1.20772h 0.181345v 5.5484h 0.181345v -1.58973h 0.181345v 1.58973h 0.181345v -6.66657h 0.181345v 2.3259h 0.181345v -1.20772h 0.181345v 2.52059h 0.181345v -1.31287h 0.181345v -4.34068h 0.181345v 3.13296h 0.181345v -8.60864h
 0.181345v 9.81636h 0.181345v -3.36689h 0.181345v 7.70757h 0.181345v -8.68136h 0.181345v 7.09163h 0.181345v -5.07685h 0.181345v 1.11817h 0.36269v -2.15917h 0.181345v -0.973786h 0.181345v 4.34068h 0.181345v 1.31287h 0.181345v -9.7566h 0.181345v
 5.07685h 0.181345v -5.07685h 0.181345v 12.7844h 0.181345v -13.4863h 0.181345v 6.81976h 0.181345v 1.11817h 0.181345v -2.15917h 0.181345v -1.88852h 0.181345v 4.04769h 0.181345v -10.4585h 0.181345v 10.4585h 0.725379v -4.04769h 0.181345v -3.18833h
 0.181345v -3.2225h 0.181345v 11.6662h 0.181345v -9.14565h 0.181345v 1.43808h 0.181345v 2.45216h 0.181345v -6.41083h 0.181345v 4.73261h 0.181345v -3.52489h 0.181345v 1.31287h 0.181345v 0.701915h 0.181345v 4.10306h 0.181345v -2.59295h 0.181345v
 2.59295h 0.181345v -2.59295h 0.181345v 0.815791h 0.181345v -0.815791h 0.181345v -0.773937h 0.36269v -4.52811h 0.36269v 1.16122h 0.181345v -0.59178h 0.181345v -0.569443h 0.181345v -1.58973h 0.36269v 1.58973h 0.181345v 1.77716h 0.181345v -4.34068h
 0.181345v 3.72474h 0.181345v -2.75095h 0.181345v 6.89178h 0.181345v -8.32986h 0.181345v 1.94961h 0.181345v -3.67588h 0.181345v 2.19057h 0.181345v 1.48531h 0.181345v -2.40004h 0.181345v 5.25541h 0.181345v -5.25541h 0.181345v 5.25541h 0.181345v
 -1.77716h 0.181345v -1.58973h 0.181345v -2.3259h 0.181345v 1.83115h 0.181345v 0.494748h 0.181345v 2.75095h 0.181345v 2.63072h 0.181345v -4.87015h 0.181345v -1.94961h 0.181345v 3.59725h 0.181345v 0.59178h 0.181345v 2.63072h 0.181345v -1.37262h
 0.181345v -1.2581h 0.181345v 3.36689h 0.181345v -3.36689h 0.181345v 6.73378h 0.181345v -8.97321h 0.181345v 10.988h 0.36269v -5.38167h 0.181345v 2.45216h 0.181345v -2.45216h 0.181345v 9.02044h 0.181345v -3.63876h 0.181345v -6.11784h 0.181345v
 6.11784h 0.181345v 3.63876h 0.181345v -4.67976h 0.181345v -6.44947h 0.181345v 5.47568h 0.181345v -2.59295h 0.181345v 5.72591h 0.181345v -3.13296h 0.181345v -5.47568h 0.181345v 5.47568h 0.181345v 4.34068h 0.36269v -6.11784h 0.181345v 3.79195h
 0.181345v 8.44374h 0.181345v -15.2635h 0.181345v 7.93793h 0.181345v -6.49985h 0.181345v 6.49985h 0.181345v -1.11817h 0.181345v 5.07685h 0.181345v -3.95867h 0.181345v -7.23602h 0.181345v 5.07685h 0.36269v 2.15917h 0.181345v 5.5484h 0.181345v -5.5484h
 0.181345v -5.72591h 0.181345v 8.2465h 0.181345v -11.7714h 0.181345v 8.13262h 0.181345v -6.11784h 0.181345v 5.07685h 0.181345v -3.56674h 0.181345v 11.2743h 0.181345v -9.59609h 0.181345v 0.914732h 0.181345v -1.77716h 0.181345v 4.91012h 0.181345v
 -2.15917h 0.181345v 7.70757h 0.181345v -8.68136h 0.181345v -0.914732h 0.181345v 0.914732h 0.36269v 0.973786h 0.181345v -4.34068h 0.181345v 9.02044h 0.181345v -5.65354h 0.544034v 3.13296h 0.181345v 2.52059h 0.181345v -4.67976h 0.181345v -1.88852h
 0.181345v -5.81905h 0.181345v 15.4151h 0.181345v -7.70757h 0.181345v -1.88852h 0.181345v 5.25541h 0.181345v -8.44374h 0.181345v 5.07685h 0.181345v -4.34068h 0.181345v 12.0482h 0.36269v -9.59609h 0.181345v 0.914732h 0.181345v 0.973786h 0.181345v
 -0.973786h 0.181345v -1.77716h 0.36269v 3.79195h 0.181345v 1.11817h 0.181345v -7.93793h 0.181345v 4.80497h 0.181345v -2.59295h 0.181345v 4.60774h 0.181345v -4.60774h 0.181345v 3.56674h 0.181345v -0.973786h 0.181345v -5.47568h 0.181345v 6.44947h
 0.181345v -3.56674h 0.181345v 0.815791h 0.181345v -3.02781h 0.181345v 3.89024h 0.181345v -3.89024h 0.181345v 3.02781h 0.181345v -4.34068h 0.181345v 2.01478h 0.181345v 0.736168h 0.181345v 3.36689h 0.181345v 3.13296h 0.181345v -6.49985h 0.181345v
 2.45216h 0.181345v -1.67822h 0.181345v 6.93363h 0.181345v -7.70757h 0.181345v -1.43808h 0.181345v 1.43808h 0.181345v 2.45216h 0.181345v 0.914732h 0.36269v -4.10306h 0.181345v 2.3259h 0.181345v 8.86879h 0.181345v -12.5673h 0.181345v 15.9342h
 0.181345v -8.44374h 0.181345v -3.79195h 0.181345v -1.58973h 0.181345v 0.773937h 0.181345v 9.68458h 0.181345v -13.8254h 0.181345v 13.8254h 0.181345v -8.00636h 0.181345v -2.45216h 0.181345v -2.10879h 0.181345v 0.670708h 0.181345v -1.31287h 0.181345v
 8.13262h 0.36269v -2.92951h 0.181345v 0.914732h 0.181345v -0.914732h 0.181345v -2.45216h 0.181345v 0.773937h 0.181345v -2.88273h 0.181345v 5.47568h 0.36269v -3.36689h 0.181345v 3.36689h 0.36269v -5.47568h 0.181345v -1.84988h 0.181345v 4.73261h
 0.181345v 4.60774h 0.181345v -6.11784h 0.181345v 0.736168h 0.181345v -3.36689h 0.181345v 4.14083h 0.181345v -2.88273h 0.181345v 0.670708h 0.181345v 3.89024h 0.181345v 2.92951h 0.181345v -2.01478h 0.181345v -3.36689h 0.181345v 2.45216h 0.181345v
 9.59609h 0.181345v -14.157h 0.181345v 3.69852h 0.181345v -6.11784h 0.181345v 8.86879h 0.181345v -5.77876h 0.181345v -0.670708h 0.181345v 2.88273h 0.181345v -6.89178h 0.181345v 7.70757h 0.181345v -3.69852h 0.181345v 4.56095h 0.181345v -8.57h
 0.181345v 3.36689h 0.36269v 0.642159h 0.181345v 0.670708h 0.181345v -0.670708h 0.36269v 2.88273h 0.181345v -6.89178h 0.181345v 4.00905h 0.181345v -4.00905h 0.36269v 1.041h 0.181345v 0.548732h 0.181345v -2.08448h 0.181345v 2.65392h 0.181345v
 -3.13296h 0.181345v 3.13296h 0.181345v 1.20772h 0.36269v -4.34068h 0.181345v 1.48531h 0.181345v 2.85537h 0.181345v -4.34068h 0.181345v 8.68136h 0.181345v -5.5484h 0.181345v 0.59178h 0.181345v 1.2581h 0.181345v 0.670708h 0.181345v -3.09003h 0.181345v
 2.41932h 0.181345v 8.60864h 0.181345v -7.23602h 0.181345v 6.11784h 0.181345v -6.11784h 0.181345v 4.10306h 0.181345v -4.80497h 0.36269v 10.4585h 0.181345v -12.9791h 0.181345v 3.95867h 0.181345v 5.38167h 0.181345v 1.11817h 0.181345v -1.11817h
 0.181345v -5.38167h 0.181345v 0.773937h 0.181345v 2.59295h 0.181345v -4.80497h 0.181345v 13.4863h 0.181345v -12.7844h 0.181345v 3.18833h 0.181345v 5.25541h 0.181345v -4.34068h 0.181345v -0.914732h 0.181345v -3.18833h 0.181345v 9.7566h 0.181345v
 -3.63876h 0.181345v 2.3259h 0.181345v -6.93363h 0.181345v 11.2743h 0.181345v 6.11784h 0.181345v -11.6662h 0.181345v 7.32556h 0.181345v -12.2357h 0.181345v -1.58973h 0.181345v 4.34068h 0.181345v 1.041h 0.181345v 15.5354h 0.181345v -15.5354h 0.181345v
 -6.11784h 0.181345v 5.07685h 0.181345v -1.88852h 0.36269v -2.45216h 0.181345v 2.45216h 0.181345v 0.914732h 0.181345v -3.36689h 0.181345v 4.34068h 0.181345v -6.44947h 0.181345v 2.88273h 0.181345v -1.5101h 0.181345v -1.37262h 0.181345v 8.60864h
 0.181345v -7.93793h 0.181345v -4.67976h 0.181345v 2.75095h 0.181345v 4.14083h 0.36269v -2.21202h 0.181345v 3.89024h 0.181345v 1.88852h 0.181345v -9.41752h 0.181345v 5.85078h 0.181345v -1.5101h 0.181345v 0.736168h 0.181345v 5.38167h 0.181345v
 3.63876h 0.181345v -3.63876h 0.181345v -3.79195h 0.181345v 10.4585h 0.181345v -9.59609h 0.181345v 2.92951h 0.181345v -2.92951h 0.181345v 2.92951h 0.181345v 2.3259h 0.181345v -1.20772h 0.181345v -3.13296h 0.181345v 12.4733h 0.181345v -10.4585h
 0.181345v 3.63876h 0.181345v -1.31287h 0.181345v 2.75095h 0.181345v 1.58973h 0.36269v 3.79195h 0.181345v -12.4733h 0.181345v 12.4733h 0.181345v -8.13262h 0.181345v -1.20772h 0.181345v 7.32556h 0.36269v 2.01478h 0.181345v -2.01478h 0.36269v 14.7992h
 0.181345v -7.70757h 0.181345v -2.75095h 0.181345v -2.3259h 0.181345v -3.79195h 0.181345v 1.77716h 0.181345v -3.36689h 0.181345v 5.38167h 0.181345v 2.3259h 0.181345v -6.11784h 0.181345v 12.2357h 0.181345v -12.2357h 0.181345v 1.77716h 0.181345v
 2.01478h 0.181345v -3.79195h 0.181345v -1.58973h 0.181345v 13.8254h 0.181345v -3.36689h 0.181345v -8.86879h 0.181345v 8.86879h 0.181345v -5.07685h 0.181345v 5.07685h 0.181345v 7.70757h 0.181345v -18.1661h 0.181345v 1.58973h 0.181345v 3.79195h
 0.181345v -2.01478h 0.181345v 4.34068h 0.36269v -7.70757h 0.181345v 3.36689h 0.181345v -7.32556h 0.181345v 3.95867h 0.181345v 3.36689h 0.181345v -10.4585h 0.181345v 14.7992h 0.181345v 6.11784h 0.181345v -22.6942h 0.181345v 16.5764h 0.181345v
 -10.4585h 0.181345v 16.5764h 0.181345v -16.5764h 0.181345v 2.75095h 0.181345v 24.2839h 0.181345v -20.917h 0.181345v -6.11784h 0.181345v 4.34068h 0.181345v -6.66657h 0.36269v 12.7844h 0.181345v -12.7844h 0.181345v 5.07685h 0.36269v 13.8254h 0.181345v
 -6.11784h 0.181345v -10.4585h 0.181345v 6.11784h 0.181345v 4.34068h 0.544034v -10.4585h 0.181345v 2.75095h 0.181345v -2.75095h 0.181345v 6.11784h 0.181345v -1.77716h 0.181345v -4.34068h 0.181345v 10.4585h 0.181345v -2.3259h 0.181345v 2.3259h
 0.181345v 2.75095h 0.181345v -7.09163h 0.181345v -4.80497h 0.181345v 4.80497h 0.181345v 2.01478h 0.181345v -2.01478h 0.181345v -3.36689h 0.181345v 3.36689h 0.181345v 2.01478h 0.181345v -3.79195h 0.181345v -4.34068h 0.181345v 8.13262h 0.181345v
 -8.13262h 0.181345v -3.36689h 0.181345v 6.11784h 0.181345v 1.58973h 0.181345v -3.02781h 0.181345v -1.31287h 0.36269v 20.917h 0.181345v -7.70757h 0.181345v -10.4585h 0.181345v 5.38167h 0.181345v -6.81976h 0.181345v 1.43808h 0.181345v 1.58973h
 0.36269v 6.11784h 0.181345v -6.11784h 0.181345v -6.66657h 0.181345v 29.3608h 0.181345v -13.8254h 0.181345v -14.4172h 0.181345v 2.52059h 0.181345v 1.43808h 0.181345v -8.00636h 0.181345v 8.00636h 0.181345v 5.38167h 0.181345v -3.79195h 0.181345v
 -3.02781h 0.181345v -1.31287h 0.181345v -2.3259h 0.181345v 1.11817h 0.181345v -2.15917h 0.181345v 6.11784h 0.181345v 7.70757h 0.36269v -9.14565h 0.181345v -3.63876h 0.181345v 12.7844h 0.181345v -11.6662h 0.181345v 7.32556h 0.181345v -9.48473h
 0.36269v 9.48473h 0.181345v 2.01478h 0.181345v -2.01478h 0.181345v -4.80497h 0.181345v 3.02781h 0.181345v -8.68136h 0.181345v 4.34068h 0.181345v -2.3259h 0.181345v 3.63876h 0.181345v -9.7566h 0.181345v -0.701915h 0.181345v 13.4863h 0.181345v
 -5.5484h 0.181345v -2.15917h 0.181345v 6.11784h 0.181345v -8.86879h 0.181345v 2.75095h 0.181345v 1.041h 0.181345v 1.11817h 0.181345v 5.5484h 0.181345v -7.70757h 0.181345v 2.15917h 0.181345v -5.72591h 0.181345v 2.59295h 0.36269v 4.34068h 0.181345v
 -4.34068h 0.181345v -0.914732h 0.181345v -2.45216h 0.181345v 4.34068h 0.181345v -2.75095h 0.181345v -6.11784h 0.181345v 12.2357h 0.181345v -12.2357h 0.181345v 6.98027h 0.36269v -8.05848h 0.181345v 2.23943h 0.181345v 4.14083h 0.181345v -6.38026h
 0.181345v 4.16824h 0.181345v 3.02781h 0.181345v 0.862432h 0.181345v -3.18833h 0.181345v 9.7566h 0.181345v -2.52059h 0.181345v -9.86674h 0.36269v 7.70757h 0.181345v -0.973786h 0.181345v -3.36689h 0.181345v 2.45216h 0.181345v 1.88852h 0.181345v
 -0.973786h 0.181345v -6.11784h 0.181345v 5.20311h 0.181345v -4.56095h 0.181345v 0.670708h 0.181345v 3.02781h 0.181345v 6.11784h 0.181345v -8.44374h 0.181345v 1.5101h 0.181345v 11.2743h 0.181345v -11.2743h 0.181345v 4.60774h 0.181345v 2.3259h
 0.181345v -6.93363h 0.181345v -1.5101h 0.181345v 6.11784h 0.181345v -6.11784h 0.181345v 0.736168h 0.181345v 9.02044h 0.181345v -7.43071h 0.181345v 3.79195h 0.181345v -1.041h 0.181345v 6.11784h 0.181345v 1.58973h 0.181345v -6.66657h 0.181345v
 8.44374h 0.181345v -4.80497h 0.181345v 1.43808h 0.36269v 5.38167h 0.181345v -8.13262h 0.181345v 20.917h 0.181345v -7.70757h 0.181345v -2.75095h 0.36269v -6.11784h 0.181345v 16.5764h 0.181345v -14.7992h 0.181345v 20.917h 0.181345v -20.917h 0.181345v
 10.4585h 0.181345v 20.917h 0.181345v -16.5764h 0.181345v -4.34068h 0.181345v 4.34068h 0.181345v -10.4585h 0.181345v 2.75095h 0.181345v 24.2839h 0.181345v 10.4585h 0.36269v -31.3756h 0.181345v 4.34068h 0.544034v 6.11784h 0.181345v -6.11784h 0.181345v
 6.11784h 0.181345v -6.11784h 0.181345v 6.11784h 0.181345v 20.917h 0.181345v -27.0349h 0.181345v 6.11784h 0.181345v 20.917h 0.181345v -10.4585h 0.36269v -20.917h 0.181345v 20.917h 0.181345v 10.4585h 0.181345v -10.4585h 0.544034v -20.917h 0.181345v
 4.34068h 0.181345v 27.0349h 0.181345v -20.917h 0.181345v -6.11784h 0.181345v 16.5764h 0.36269v -16.5764h 0.36269v 27.0349h 0.36269v -20.917h 0.181345v 10.4585h 0.36269v -16.5764h 0.181345v 16.5764h 0.181345v -10.4585h 0.181345v 20.917h 0.181345v
 -10.4585h 0.181345v 10.4585h 0.181345v -10.4585h 0.36269v -16.5764h 0.181345v 27.0349h 0.181345v -10.4585h 0.181345v 10.4585h 0.181345v -27.0349h 0.181345v 16.5764h 0.725379v -16.5764h 0.36269v 27.0349h 0.181345v -20.917h 0.181345v 10.4585h
 0.906724v -10.4585h 0.36269v -6.11784h 0.181345v 16.5764h 0.181345v 10.4585h 0.36269v -20.917h 0.181345v 20.917h 0.181345v -10.4585h 0.181345v -10.4585h 0.36269v 20.917h 0.36269v -10.4585h 0.181345v 10.4585h 0.181345v -27.0349h 0.181345v 16.5764h
 0.181345v -10.4585h 0.181345v 10.4585h 0.36269v 10.4585h 0.544034v -20.917h 0.181345v 20.917h 0.181345v -27.0349h 0.181345v 27.0349h 0.181345v -27.0349h 0.181345v 27.0349h 0.181345v -10.4585h 0.544034v -10.4585h 0.181345v -6.11784h 0.181345v
 16.5764h 0.36269v -16.5764h 0.181345v 16.5764h 0.181345v -20.917h 0.181345v 20.917h 0.36269v 10.4585h 0.181345v -10.4585h 0.36269v 10.4585h 0.36269v -10.4585h 0.181345v 10.4585h 0.181345v -31.3756h 0.181345v 10.4585h 0.181345v -6.11784h 0.181345v
 16.5764h 0.181345v 10.4585h 0.181345v -20.917h 0.181345v -6.11784h 0.181345v 16.5764h 0.181345v -16.5764h 0.181345v 16.5764h 0.181345v 10.4585h 0.181345v -27.0349h 0.181345v 16.5764h 0.181345v 10.4585h 0.36269v -10.4585h 0.181345v 10.4585h 0.181345v
 -10.4585h 0.181345v -10.4585h 0.36269v 10.4585h 0.36269v 10.4585h 0.181345v -10.4585h 0.181345v 10.4585h 0.36269v -20.917h 0.181345v 20.917h 0.181345v -20.917h 0.181345v 20.917h 0.181345v -20.917h 0.181345v 10.4585h 0.544034v 10.4585h 0.36269v
 -10.4585h 0.181345v -10.4585h 0.181345v 20.917h 0.181345v -31.3756h 0.181345v 20.917h 0.36269v 10.4585h 0.181345v -10.4585h 0.181345v 10.4585h 0.181345v -10.4585h 0.181345v 10.4585h 0.36269v -20.917h 0.36269v 20.917h 0.181345v -20.917h 0.544034v
 -6.11784h 0.181345v 16.5764h 0.544034v -10.4585h 0.181345v 10.4585h 0.181345v 10.4585h 0.181345v -10.4585h 0.725379v -10.4585h 0.181345v 10.4585h 0.181345v -10.4585h 0.181345v 10.4585h 0.181345v 10.4585h 0.181345v -10.4585h 0.181345v 10.4585h
 0.36269v -10.4585h 0.181345v -20.917h 0.181345v 31.3756h 0.544034v -27.0349h 0.181345v 16.5764h 0.544034v 10.4585h 0.36269v -20.917h 0.36269v 10.4585h 0.181345v -10.4585h 0.181345v 10.4585h 0.181345v 10.4585h 0.36269v -10.4585h 0.725379v 10.4585h
 0.181345v -27.0349h 0.181345v 27.0349h 0.181345v -20.917h 0.181345v 10.4585h 0.181345v 10.4585h 0.181345v -10.4585h 0.181345v 10.4585h 0.181345v -10.4585h 0.36269v 10.4585h 0.181345v -10.4585h 0.181345v 10.4585h 0.181345v -10.4585h 0.181345v
 10.4585h 0.181345v -27.0349h 0.181345v 6.11784h 0.181345v 10.4585h 0.181345v 10.4585h 0.181345v -20.917h 0.181345v 10.4585h 0.181345v 10.4585h 0.36269v -20.917h 0.181345v 20.917h 0.725379v -20.917h 0.181345v 10.4585h 0.181345v 10.4585h 0.725379v
 -10.4585h 0.181345v 10.4585h 0.181345v -10.4585h 0.181345v 10.4585h 0.181345v -20.917h 0.181345v 20.917h 0.544034v -10.4585h 0.181345v 10.4585h 0.544034v -10.4585h 0.181345v 10.4585h 0.544034v -10.4585h 0.181345v 10.4585h 0.544034v -20.917h
 0.181345v 20.917h 0.181345v -27.0349h 0.181345v 16.5764h 0.36269v 10.4585h 0.36269v -10.4585h 0.181345v 10.4585h 0.181345v -20.917h 0.181345v 20.917h 0.36269v -10.4585h 0.181345v 10.4585h 0.36269" fill="none" stroke="black"/>
<path d="M57.1929,280.151h 453.543" fill="none" stroke="black"/>
<path d="M57.1929,272.68v 7.47068" fill="none" stroke="black"/>
<path d="M75.3318,276.415v 3.73534" fill="none" stroke="black"/>
<path d="M93.4707,276.415v 3.73534" fill="none" stroke="black"/>
<path d="M111.61,276.415v 3.73534" fill="none" stroke="black"/>
<path d="M129.749,276.415v 3.73534" fill="none" stroke="black"/>
<path d="M147.887,272.68v 7.47068" fill="none" stroke="black"/>
<path d="M166.026,276.415v 3.73534" fill="none" stroke="black"/>
<path d="M184.165,276.415v 3.73534" fill="none" stroke="black"/>
<path d="M202.304,276.415v 3.73534" fill="none" stroke="black"/>
<path d="M220.443,276.415v 3.73534" fill="none" stroke="black"/>
<path d="M238.582,272.68v 7.47068" fill="none" stroke="black"/>
<path d="M256.721,276.415v 3.73534" fill="none" stroke="black"/>
<path d="M274.86,276.415v 3.73534" fill="none" stroke="black"/>
<path d="M292.999,276.415v 3.73534" fill="none" stroke="black"/>
<path d="M311.138,276.415v 3.73534" fill="none" stroke="black"/>
<path d="M329.277,272.68v 7.47068" fill="none" stroke="black"/>
<path d="M347.415,276.415v 3.73534" fill="none" stroke="black"/>
<path d="M365.554,276.415v 3.73534" fill="none" stroke="black"/>
<path d="M383.693,276.415v 3.73534" fill="none" stroke="black"/>
<path d="M401.832,276.415v 3.73534" fill="none" stroke="black"/>
<path d="M419.971,272.68v 7.47068" fill="none" stroke="black"/>
<path d="M438.11,276.415v 3.73534" fill="none" stroke="black"/>
<path d="M456.249,276.415v 3.73534" fill="none" stroke="black"/>
<path d="M474.388,276.415v 3.73534" fill="none" stroke="black"/>
<path d="M492.527,276.415v 3.73534" fill="none" stroke="black"/>
<path d="M510.666,272.68v 7.47068" fill="none" stroke="black"/>
<path d="M510.666,272.68v 7.47068" fill="none" stroke="black"/>
<text xml:space="preserve" x="54.3523" y="290.27" fill="black" font-size="10.4952" font-family="Helvetica">0</text>
<text xml:space="preserve" x="139.569" y="290.27" fill="black" font-size="10.4952" font-family="Helvetica">500</text>
<text xml:space="preserve" x="227.449" y="290.27" fill="black" font-size="10.4952" font-family="Helvetica">1000</text>
<text xml:space="preserve" x="318.288" y="290.27" fill="black" font-size="10.4952" font-family="Helvetica">1500</text>
<text xml:space="preserve" x="408.831" y="290.27" fill="black" font-size="10.4952" font-family="Helvetica">2000</text>
<text xml:space="preserve" x="499.67" y="290.27" fill="black" font-size="10.4952" font-family="Helvetica">2500</text>
<text xml:space="preserve" x="265.323" y="301.218" fill="black" font-size="10.4952" font-family="Helvetica">Channel</text>
<path d="M57.1929,280.151v -249.023" fill="none" stroke="black"/>
<path d="M63.9961,280.151h -6.80315" fill="none" stroke="black"/>
<path d="M63.9961,277.4h -6.80315" fill="none" stroke="black"/>
<path d="M63.9961,275.074h -6.80315" fill="none" stroke="black"/>
<path d="M63.9961,273.059h -6.80315" fill="none" stroke="black"/>
<path d="M63.9961,271.282h -6.80315" fill="none" stroke="black"/>
<path d="M70.7992,269.692h -13.6063" fill="none" stroke="black"/>
<text xml:space="preserve" x="49.0263" y="273.404" fill="black" font-size="10.4952" font-family="Helvetica">1</text>
<path d="M63.9961,259.233h -6.80315" fill="none" stroke="black"/>
<path d="M63.9961,253.116h -6.80315" fill="none" stroke="black"/>
<path d="M63.9961,248.775h -6.80315" fill="none" stroke="black"/>
<path d="M63.9961,245.408h -6.80315" fill="none" stroke="black"/>
<path d="M63.9961,242.657h -6.80315" fill="none" stroke="black"/>
<path d="M63.9961,240.331h -6.80315" fill="none" stroke="black"/>
<path d="M63.9961,238.316h -6.80315" fill="none" stroke="black"/>
<path d="M63.9961,236.539h -6.80315" fill="none" stroke="black"/>
<path d="M70.7992,234.95h -13.6063" fill="none" stroke="black"/>
<text xml:space="preserve" x="41.629" y="238.785" fill="black" font-size="10.4952" font-family="Helvetica">10</text>
<path d="M63.9961,224.491h -6.80315" fill="none" stroke="black"/>
<path d="M63.9961,218.373h -6.80315" fill="none" stroke="black"/>
<path d="M63.9961,214.033h -6.80315" fill="none" stroke="black"/>
<path d="M63.9961,210.666h -6.80315" fill="none" stroke="black"/>
<path d="M63.9961,207.915h -6.80315" fill="none" stroke="black"/>
<path d="M63.9961,205.589h -6.80315" fill="none" stroke="black"/>
<path d="M63.9961,203.574h -6.80315" fill="none" stroke="black"/>
<path d="M63.9961,201.797h -6.80315" fill="none" stroke="black"/>
<path d="M70.7992,200.207h -13.6063" fill="none" stroke="black"/>
<text xml:space="preserve" x="49.0263" y="200.319" fill="black" font-size="7.16345" font-family="Helvetica">2</text>
<text xml:space="preserve" x="38.0783" y="204.757" fill="black" font-size="10.4952" font-family="Helvetica">10</text>
<path d="M63.9961,189.749h -6.80315" fill="none" stroke="black"/>
<path d="M63.9961,183.631h -6.80315" fill="none" stroke="black"/>
<path d="M63.9961,179.29h -6.80315" fill="none" stroke="black"/>
<path d="M63.9961,175.923h -6.80315" fill="none" stroke="black"/>
<path d="M63.9961,173.172h -6.80315" fill="none" stroke="black"/>
<path d="M63.9961,170.846h -6.80315" fill="none" stroke="black"/>
<path d="M63.9961,168.832h -6.80315" fill="none" stroke="black"/>
<path d="M63.9961,167.054h -6.80315" fill="none" stroke="black"/>
<path d="M70.7992,165.465h -13.6063" fill="none" stroke="black"/>
<text xml:space="preserve" x="49.0263" y="165.404" fill="black" font-size="7.16345" font-family="Helvetica">3</text>
<text xml:space="preserve" x="38.0783" y="170.138" fill="black" font-size="10.4952" font-family="Helvetica">10</text>
<path d="M63.9961,155.006h -6.80315" fill="none" stroke="black"/>
<path d="M63.9961,148.888h -6.80315" fill="none" stroke="black"/>
<path d="M63.9961,144.548h -6.80315" fill="none" stroke="black"/>
<path d="M63.9961,141.181h -6.80315" fill="none" stroke="black"/>
<path d="M63.9961,138.43h -6.80315" fill="none" stroke="black"/>
<path d="M63.9961,136.104h -6.80315" fill="none" stroke="black"/>
<path d="M63.9961,134.089h -6.80315" fill="none" stroke="black"/>
<path d="M63.9961,132.312h -6.80315" fill="none" stroke="black"/>
<path d="M70.7992,130.722h -13.6063" fill="none" stroke="black"/>
<text xml:space="preserve" x="49.0263" y="130.784" fill="black" font-size="7.16345" font-family="Helvetica">4</text>
<text xml:space="preserve" x="38.0783" y="135.223" fill="black" font-size="10.4952" font-family="Helvetica">10</text>
<path d="M63.9961,120.264h -6.80315" fill="none" stroke="black"/>
<path d="M63.9961,114.146h -6.80315" fill="none" stroke="black"/>
<path d="M63.9961,109.805h -6.80315" fill="none" stroke="black"/>
<path d="M63.9961,106.438h -6.80315" fill="none" stroke="black"/>
<path d="M63.9961,103.687h -6.80315" fill="none" stroke="black"/>
<path d="M63.9961,101.361h -6.80315" fill="none" stroke="black"/>
<path d="M63.9961,99.3467h -6.80315" fill="none" stroke="black"/>
<path d="M63.9961,97.5695h -6.80315" fill="none" stroke="black"/>
<path d="M70.7992,95.9798h -13.6063" fill="none" stroke="black"/>
<text xml:space="preserve" x="49.0263" y="95.869" fill="black" font-size="7.16345" font-family="Helvetica">5</text>
<text xml:space="preserve" x="38.0783" y="100.603" fill="black" font-size="10.4952" font-family="Helvetica">10</text>
<path d="M63.9961,85.5213h -6.80315" fill="none" stroke="black"/>
<path d="M63.9961,79.4034h -6.80315" fill="none" stroke="black"/>
<path d="M63.9961,75.0628h -6.80315" fill="none" stroke="black"/>
<path d="M63.9961,71.6959h -6.80315" fill="none" stroke="black"/>
<path d="M63.9961,68.9449h -6.80315" fill="none" stroke="black"/>
<path d="M63.9961,66.619h -6.80315" fill="none" stroke="black"/>
<path d="M63.9961,64.6042h -6.80315" fill="none" stroke="black"/>
<path d="M63.9961,62.8271h -6.80315" fill="none" stroke="black"/>
<path d="M70.7992,61.2374h -13.6063" fill="none" stroke="black"/>
<text xml:space="preserve" x="49.0263" y="60.9538" fill="black" font-size="7.16345" font-family="Helvetica">6</text>
<text xml:space="preserve" x="38.0783" y="65.688" fill="black" font-size="10.4952" font-family="Helvetica">10</text>
<path d="M63.9961,50.7788h -6.80315" fill="none" stroke="black"/>
<path d="M63.9961,44.661h -6.80315" fill="none" stroke="black"/>
<path d="M63.9961,40.3203h -6.80315" fill="none" stroke="black"/>
<path d="M63.9961,36.9534h -6.80315" fill="none" stroke="black"/>
<path d="M63.9961,34.2025h -6.80315" fill="none" stroke="black"/>
<path d="M63.9961,31.8766h -6.80315" fill="none" stroke="black"/>
<g transform="rotate(-90,26.5385,191.442)">
<text xml:space="preserve" x="26.5385" y="191.442" fill="black" font-size="10.4952" font-family="Helvetica">Counts/Channel</text>
</g>
<text xml:space="preserve" x="404.097" y="60.9538" fill="black" font-size="14.7788" font-family="Helvetica" font-weight="bold"> = 2.4879 MeV</text>
<text xml:space="preserve" x="398.179" y="64.2086" fill="black" font-size="10.0192" font-family="Helvetica" font-weight="bold">p</text>
<text xml:space="preserve" x="389.006" y="60.9538" fill="black" font-size="14.7788" font-family="Helvetica" font-weight="bold">E</text>
<path d="M262.163,164.027v 26.0942" fill="none" stroke="black"/>
<path d="M264.454,190.121l -2.29122, 3.9685l -2.29122, -3.9685z" fill="black"/>
<path d="M264.454,190.121l -2.29122, 3.9685l -2.29122, -3.9685h 4.58243z" fill="none" stroke="black"/>
<text xml:space="preserve" x="266.803" y="161.853" fill="black" font-size="10.4952" font-family="Helvetica" font-weight="bold">_1 	1.369 MeV</text>
<text xml:space="preserve" x="260.293" y="161.853" fill="black" font-size="10.4952" font-family="Times">&#0945;</text>
<path d="M184.528,130.722v 30.7739" fill="none" stroke="black"/>
<path d="M186.819,161.496l -2.29122, 3.9685l -2.29122, -3.9685z" fill="black"/>
<path d="M186.819,161.496l -2.29122, 3.9685l -2.29122, -3.9685h 4.58243z" fill="none" stroke="black"/>
<text xml:space="preserve" x="172.117" y="127.825" fill="black" font-size="10.4952" font-family="Helvetica" font-weight="bold"># p_1 	0.844 MeV</text>
<path d="M210.104,148.888v 12.6079" fill="none" stroke="black"/>
<path d="M212.395,161.496l -2.29122, 3.9685l -2.29122, -3.9685z" fill="black"/>
<path d="M212.395,161.496l -2.29122, 3.9685l -2.29122, -3.9685h 4.58243z" fill="none" stroke="black"/>
<text xml:space="preserve" x="197.564" y="144.395" fill="black" font-size="10.4952" font-family="Helvetica" font-weight="bold"># p_2 	1.015 MeV</text>
<path d="M497.637,269.692h 13.0285" fill="none" stroke="black"/>
<path d="M504.151,259.233h 6.51427" fill="none" stroke="black"/>
<path d="M504.151,253.116h 6.51427" fill="none" stroke="black"/>
<path d="M504.151,248.775h 6.51427" fill="none" stroke="black"/>
<path d="M504.151,245.408h 6.51427" fill="none" stroke="black"/>
<path d="M504.151,242.657h 6.51427" fill="none" stroke="black"/>
<path d="M504.151,240.331h 6.51427" fill="none" stroke="black"/>
<path d="M504.151,238.316h 6.51427" fill="none" stroke="black"/>
<path d="M504.151,236.539h 6.51427" fill="none" stroke="black"/>
<path d="M497.637,234.95h 13.0285" fill="none" stroke="black"/>
<path d="M504.151,224.491h 6.51427" fill="none" stroke="black"/>
<path d="M504.151,218.373h 6.51427" fill="none" stroke="black"/>
<path d="M504.151,214.033h 6.51427" fill="none" stroke="black"/>
<path d="M504.151,210.666h 6.51427" fill="none" stroke="black"/>
<path d="M504.151,207.915h 6.51427" fill="none" stroke="black"/>
<path d="M504.151,205.589h 6.51427" fill="none" stroke="black"/>
<path d="M504.151,203.574h 6.51427" fill="none" stroke="black"/>
<path d="M504.151,201.797h 6.51427" fill="none" stroke="black"/>
<path d="M497.637,200.207h 13.0285" fill="none" stroke="black"/>
<path d="M504.151,189.749h 6.51427" fill="none" stroke="black"/>
<path d="M504.151,183.631h 6.51427" fill="none" stroke="black"/>
<path d="M504.151,179.29h 6.51427" fill="none" stroke="black"/>
<path d="M504.151,175.923h 6.51427" fill="none" stroke="black"/>
<path d="M504.151,173.172h 6.51427" fill="none" stroke="black"/>
<path d="M504.151,170.846h 6.51427" fill="none" stroke="black"/>
<path d="M504.151,168.832h 6.51427" fill="none" stroke="black"/>
<path d="M504.151,167.054h 6.51427" fill="none" stroke="black"/>
<path d="M497.637,165.465h 13.0285" fill="none" stroke="black"/>
<path d="M504.151,155.006h 6.51427" fill="none" stroke="black"/>
<path d="M504.151,148.888h 6.51427" fill="none" stroke="black"/>
<path d="M504.151,144.548h 6.51427" fill="none" stroke="black"/>
<path d="M504.151,141.181h 6.51427" fill="none" stroke="black"/>
<path d="M504.151,138.43h 6.51427" fill="none" stroke="black"/>
<path d="M504.151,136.104h 6.51427" fill="none" stroke="black"/>
<path d="M504.151,134.089h 6.51427" fill="none" stroke="black"/>
<path d="M504.151,132.312h 6.51427" fill="none" stroke="black"/>
<path d="M497.637,130.722h 13.0285" fill="none" stroke="black"/>
<path d="M504.151,120.264h 6.51427" fill="none" stroke="black"/>
<path d="M504.151,114.146h 6.51427" fill="none" stroke="black"/>
<path d="M504.151,109.805h 6.51427" fill="none" stroke="black"/>
<path d="M504.151,106.438h 6.51427" fill="none" stroke="black"/>
<path d="M504.151,103.687h 6.51427" fill="none" stroke="black"/>
<path d="M504.151,101.361h 6.51427" fill="none" stroke="black"/>
<path d="M504.151,99.3467h 6.51427" fill="none" stroke="black"/>
<path d="M504.151,97.5695h 6.51427" fill="none" stroke="black"/>
<path d="M497.637,95.9798h 13.0285" fill="none" stroke="black"/>
<path d="M504.151,85.5213h 6.51427" fill="none" stroke="black"/>
<path d="M504.151,79.4034h 6.51427" fill="none" stroke="black"/>
<path d="M504.151,75.0628h 6.51427" fill="none" stroke="black"/>
<path d="M504.151,71.6959h 6.51427" fill="none" stroke="black"/>
<path d="M504.151,68.9449h 6.51427" fill="none" stroke="black"/>
<path d="M504.151,66.619h 6.51427" fill="none" stroke="black"/>
<path d="M504.151,64.6042h 6.51427" fill="none" stroke="black"/>
<path d="M504.151,62.8271h 6.51427" fill="none" stroke="black"/>
<path d="M497.637,61.2374h 13.0285" fill="none" stroke="black"/>
<path d="M504.151,50.7788h 6.51427" fill="none" stroke="black"/>
<path d="M504.151,44.661h 6.51427" fill="none" stroke="black"/>
<path d="M504.151,40.3203h 6.51427" fill="none" stroke="black"/>
<path d="M504.151,36.9534h 6.51427" fill="none" stroke="black"/>
<path d="M504.151,34.2025h 6.51427" fill="none" stroke="black"/>
<path d="M504.151,31.8766h 6.51427" fill="none" stroke="black"/>
<path d="M57.1929,38.7129v -7.46952" fill="none" stroke="black"/>
<path d="M75.3318,38.7129v -7.46952" fill="none" stroke="black"/>
<path d="M93.4707,38.7129v -7.46952" fill="none" stroke="black"/>
<path d="M111.61,38.7129v -7.46952" fill="none" stroke="black"/>
<path d="M129.749,38.7129v -7.46952" fill="none" stroke="black"/>
<path d="M147.887,38.7129v -7.46952" fill="none" stroke="black"/>
<path d="M166.026,38.7129v -7.46952" fill="none" stroke="black"/>
<path d="M184.165,38.7129v -7.46952" fill="none" stroke="black"/>
<path d="M202.304,38.7129v -7.46952" fill="none" stroke="black"/>
<path d="M220.443,38.7129v -7.46952" fill="none" stroke="black"/>
<path d="M238.582,38.7129v -7.46952" fill="none" stroke="black"/>
<path d="M256.721,38.7129v -7.46952" fill="none" stroke="black"/>
<path d="M274.86,38.7129v -7.46952" fill="none" stroke="black"/>
<path d="M292.999,38.7129v -7.46952" fill="none" stroke="black"/>
<path d="M311.138,38.7129v -7.46952" fill="none" stroke="black"/>
<path d="M329.277,38.7129v -7.46952" fill="none" stroke="black"/>
<path d="M347.415,38.7129v -7.46952" fill="none" stroke="black"/>
<path d="M365.554,38.7129v -7.46952" fill="none" stroke="black"/>
<path d="M383.693,38.7129v -7.46952" fill="none" stroke="black"/>
<path d="M401.832,38.7129v -7.46952" fill="none" stroke="black"/>
<path d="M419.971,38.7129v -7.46952" fill="none" stroke="black"/>
<path d="M438.11,38.7129v -7.46952" fill="none" stroke="black"/>
<path d="M456.249,38.7129v -7.46952" fill="none" stroke="black"/>
<path d="M474.388,38.7129v -7.46952" fill="none" stroke="black"/>
<path d="M492.527,38.7129v -7.46952" fill="none" stroke="black"/>
<path d="M510.666,38.7129v -7.46952" fill="none" stroke="black"/></svg>
