<?xml version="1.0" standalone="no"?>
<svg width="567.429" height="311.778" viewBox="0 0 567.429 311.778" xmlns="http://www.w3.org/2000/svg" shape-rendering="crispEdges">
<title>
Yields/P1/run_0103/det11_Fit.svg
</title>
<desc>
Creator: ROOT Version 6.12/06
CreationDate: Mon Apr 15 10:29:02 2019</desc>
<defs>
</defs>
<rect x="0.5" y="0" width="566.929" height="311.278" fill="white"/>
<rect x="57.1929" y="31.1278" width="453.543" height="249.023" fill="white"/>
<rect x="57.1929" y="31.1278" width="453.543" height="249.023" fill="none" stroke="black"/>
<path d="M57.1929,40.7861h 0.181345v 239.364h 10.6993v -10.4754h 0.181345v 10.4754h 6.52841v -10.4754h 0.181345v 10.4754h 1.81345v -10.4754h 0.181345v 10.4754h 6.70976v -10.4754h 0.181345v 10.4754h 1.6321v -10.4754h 0.181345v 10.4754h 1.6321v
 -10.4754h 0.181345v 10.4754h 0.725379v -20.9508h 0.181345v 10.4754h 0.181345v -16.6031h 0.181345v -12.8051h 0.181345v -20.9508h 0.181345v -5.76354h 0.181345v -15.0517h 0.181345v -7.47294h 0.181345v -5.96073h 0.181345v -4.30565h 0.181345v -4.54634h
 0.181345v -1.02397h 0.181345v -2.61399h 0.181345v -0.995248h 0.181345v 0.824755h 0.181345v -1.60682h 0.181345v -0.743578h 0.181345v -1.15696h 0.181345v -0.0766178h 0.181345v -1.67993h 0.181345v 0.898056h 0.181345v -0.0362418h 0.181345v -1.19992h
 0.181345v -0.412269h 0.181345v 0.229483h 0.181345v -0.278208h 0.181345v -0.58837h 0.181345v 0.899648h 0.181345v -0.568524h 0.181345v -0.0477499h 0.181345v -0.110833h 0.181345v -0.0629702h 0.181345v 0.430231h 0.181345v 0.0972932h 0.181345v 0.0979236h
 0.181345v -1.15036h 0.181345v 0.121878h 0.181345v -0.452063h 0.181345v -0.410063h 0.181345v 1.15559h 0.181345v -0.186006h 0.181345v 0.13929h 0.181345v -0.246746h 0.181345v 0.576836h 0.181345v -1.08816h 0.181345v 0.603387h 0.181345v -0.706546h
 0.181345v 0.0441251h 0.181345v -0.0881217h 0.181345v 0.430763h 0.181345v -0.0451354h 0.181345v 0.78626h 0.181345v -0.650448h 0.181345v 0.50869h 0.181345v -0.599367h 0.181345v -0.0150601h 0.181345v 1.27126h 0.181345v 0.414986h 0.181345v -1.18116h
 0.181345v 0.815379h 0.181345v -0.195849h 0.181345v -0.478799h 0.181345v 0.015718h 0.181345v -0.974377h 0.181345v -0.606906h 0.181345v -0.610702h 0.181345v -1.25251h 0.181345v -1.40964h 0.181345v -2.27252h 0.181345v -2.04378h 0.181345v -2.32353h
 0.181345v -2.45722h 0.181345v -2.64147h 0.181345v -2.57863h 0.181345v -1.23924h 0.181345v -2.04348h 0.181345v -1.1872h 0.181345v -0.965485h 0.181345v 0.394025h 0.181345v -0.129346h 0.181345v 0.886201h 0.181345v 1.25666h 0.181345v 1.01813h 0.181345v
 1.91715h 0.181345v 2.74485h 0.181345v 2.51795h 0.181345v 2.95472h 0.181345v 3.31376h 0.181345v 3.4361h 0.181345v 3.55989h 0.181345v 2.3097h 0.181345v 2.4993h 0.181345v 3.63716h 0.181345v 0.211003h 0.181345v 2.19743h 0.181345v 1.18154h 0.181345v
 -0.745264h 0.181345v 1.3899h 0.181345v 0.457466h 0.181345v -0.629792h 0.181345v -0.338867h 0.181345v 2.27391h 0.181345v -1.65837h 0.181345v 1.61947h 0.181345v -0.7946h 0.181345v 0.0739015h 0.181345v 1.47749h 0.181345v -1.51449h 0.181345v 0.56468h
 0.181345v 0.467444h 0.181345v -1.10585h 0.181345v 1.96036h 0.181345v -1.28356h 0.181345v 1.11702h 0.181345v -0.962415h 0.181345v 0.353762h 0.181345v 0.943577h 0.181345v -1.49035h 0.181345v 0.99071h 0.181345v -1.3695h 0.181345v 1.04535h 0.181345v
 0.161205h 0.181345v -0.904288h 0.181345v 0.904288h 0.181345v 1.75979h 0.181345v 0.509209h 0.181345v -1.2639h 0.181345v 0.306204h 0.181345v 0.817109h 0.181345v 0.962926h 0.181345v -0.632836h 0.181345v -1.19132h 0.181345v 1.4316h 0.181345v 0.146019h
 0.181345v -0.0488299h 0.181345v -0.760554h 0.181345v 1.05593h 0.181345v -0.0496317h 0.181345v 1.34655h 0.181345v -0.427246h 0.181345v -0.669502h 0.181345v 1.53643h 0.181345v -1.28242h 0.181345v -0.8951h 0.181345v 2.17752h 0.181345v -1.33357h
 0.36269v -0.10177h 0.181345v -1.67826h 0.181345v 2.56597h 0.181345v -1.18897h 0.181345v 1.57022h 0.181345v 0.968007h 0.181345v 0.237069h 0.181345v -0.813964h 0.181345v -0.501024h 0.181345v 0.332163h 0.181345v -1.89157h 0.181345v 2.34612h 0.181345v
 -0.510426h 0.181345v 0.510426h 0.181345v 0.23251h 0.181345v -0.116702h 0.181345v 0.0582383h 0.181345v -1.44571h 0.181345v 0.817109h 0.181345v 0.804675h 0.181345v -2.54735h 0.181345v 3.97006h 0.181345v -2.55955h 0.181345v 1.55584h 0.181345v 0.556363h
 0.181345v -1.26769h 0.181345v 2.24305h 0.181345v -1.1631h 0.181345v -0.78762h 0.181345v 1.42271h 0.181345v -0.572765h 0.181345v -0.309067h 0.181345v -0.182451h 0.181345v 0.491517h 0.181345v -0.908861h 0.181345v -3.17106h 0.181345v 1.50251h 0.181345v
 0.158805h 0.181345v 2.04848h 0.181345v -2.15453h 0.181345v -0.671792h 0.181345v -0.399042h 0.181345v -0.484427h 0.181345v -1.1472h 0.181345v -1.18926h 0.181345v 1.45675h 0.181345v -0.223236h 0.181345v -0.692973h 0.181345v 1.14279h 0.181345v
 -1.51907h 0.181345v 1.56479h 0.181345v -1.06098h 0.181345v -0.211965h 0.181345v 1.04568h 0.181345v -0.312536h 0.181345v -0.606327h 0.181345v 2.33673h 0.181345v -0.678254h 0.181345v 4.17497h 0.181345v -1.31499h 0.181345v 0.94486h 0.181345v 0.432708h
 0.181345v 0.0628393h 0.181345v -0.677267h 0.181345v 1.18962h 0.181345v -0.258345h 0.181345v 2.96172h 0.181345v -3.21572h 0.181345v 0.90834h 0.181345v 0.338109h 0.181345v -0.404832h 0.181345v 1.03317h 0.181345v -1.29716h 0.181345v 1.15525h 0.181345v
 0.285156h 0.181345v -1.50569h 0.181345v -0.512348h 0.181345v 2.75539h 0.181345v 1.50857h 0.181345v -2.38918h 0.181345v 2.72691h 0.181345v -3.21785h 0.181345v 0.634198h 0.181345v 0.438084h 0.181345v 0.527684h 0.181345v -1.94113h 0.181345v 0.272311h
 0.181345v 0.207502h 0.181345v 0.352296h 0.181345v 0.73023h 0.181345v -0.872136h 0.181345v -0.210391h 0.181345v 1.08253h 0.181345v -0.58698h 0.181345v -0.839818h 0.181345v 0.696567h 0.181345v -0.490947h 0.181345v 0.419828h 0.181345v -1.29132h
 0.181345v -0.0650015h 0.181345v -0.942894h 0.181345v 1.20459h 0.181345v 0.537402h 0.181345v 0.699793h 0.181345v -2.44179h 0.181345v 0.495547h 0.181345v -0.677267h 0.181345v -1.97281h 0.181345v 1.6158h 0.181345v 0.296922h 0.181345v -0.238002h
 0.181345v 0.663744h 0.181345v -0.956071h 0.181345v 2.24305h 0.181345v -1.71272h 0.181345v 1.31499h 0.181345v -0.130284h 0.181345v 1.86133h 0.181345v -1.13046h 0.36269v 0.0682296h 0.181345v 1.13577h 0.181345v -1.40686h 0.181345v 2.24036h 0.181345v
 1.4716h 0.181345v -0.0856253h 0.181345v -2.79803h 0.181345v 0.142575h 0.181345v 0.0717951h 0.181345v 1.27578h 0.181345v 0.0785084h 0.181345v -0.692312h 0.181345v 1.92167h 0.181345v -2.21947h 0.181345v 0.990111h 0.181345v -2.05734h 0.181345v 3.0327h
 0.181345v -0.414076h 0.181345v -0.081471h 0.181345v -1.76197h 0.181345v -0.706336h 0.181345v 1.22118h 0.181345v -0.0746314h 0.181345v 0.149633h 0.181345v 0.227265h 0.181345v 0.465047h 0.181345v 2.47465h 0.181345v -3.90074h 0.181345v 0.961042h
 0.181345v -0.451163h 0.181345v 1.47749h 0.181345v -1.2536h 0.181345v -1.56972h 0.181345v 3.32159h 0.181345v -2.90939h 0.181345v 1.61553h 0.181345v 1.29387h 0.181345v -2.19639h 0.181345v -0.573067h 0.181345v 0.212362h 0.181345v -0.76449h 0.181345v
 2.98759h 0.181345v -2.7829h 0.181345v 1.51616h 0.36269v -0.66849h 0.36269v -0.0724837h 0.181345v 1.36107h 0.181345v 1.15044h 0.181345v -1.92167h 0.181345v -0.733777h 0.181345v 0.435977h 0.181345v 1.71567h 0.181345v -0.646637h 0.181345v -0.543965h
 0.181345v 1.78003h 0.181345v 0.0861132h 0.181345v -1.78963h 0.181345v -0.303786h 0.181345v -0.733777h 0.181345v 0.216417h 0.181345v 0.97536h 0.181345v -1.04784h 0.181345v 1.84344h 0.181345v -2.34132h 0.181345v 0.140585h 0.181345v 0.575796h 0.181345v
 0.296339h 0.181345v -0.0746314h 0.181345v 1.24072h 0.181345v -1.75307h 0.181345v -1.24285h 0.181345v 3.82651h 0.181345v -3.69335h 0.181345v 2.15237h 0.181345v -1.67688h 0.181345v 3.04804h 0.181345v -1.9015h 0.181345v -2.21221h 0.181345v 2.51297h
 0.181345v 1.6854h 0.181345v -2.78367h 0.181345v 2.365h 0.181345v 0.418665h 0.181345v -0.418665h 0.181345v -0.487553h 0.181345v -0.394613h 0.181345v -0.535701h 0.181345v 0.930314h 0.181345v 0.24181h 0.181345v -1.32176h 0.181345v 2.95021h 0.181345v
 -3.2451h 0.181345v 3.15488h 0.181345v 0.180994h 0.181345v -0.79793h 0.181345v -0.921289h 0.181345v 2.95167h 0.181345v -4.12379h 0.181345v 2.80058h 0.181345v -0.964043h 0.181345v -1.30083h 0.181345v 1.9958h 0.181345v -0.524197h 0.181345v 2.11649h
 0.181345v -1.85667h 0.181345v 0.992841h 0.181345v 1.99141h 0.181345v 0.541736h 0.181345v -3.35025h 0.181345v 2.38869h 0.181345v -1.09778h 0.181345v 0.689304h 0.181345v 0.616936h 0.181345v 1.54572h 0.181345v -1.01164h 0.181345v -0.638665h 0.36269v
 -0.512348h 0.181345v -0.785259h 0.181345v 0.988119h 0.181345v 1.615h 0.181345v -0.557732h 0.181345v -0.109118h 0.181345v -0.948154h 0.181345v -1.08347h 0.181345v 1.18593h 0.181345v 1.97404h 0.181345v -3.34888h 0.181345v 0.770247h 0.181345v 0.198856h
 0.181345v 2.49739h 0.181345v -2.7947h 0.181345v 0.910077h 0.181345v -1.95275h 0.181345v 2.81045h 0.181345v -2.53314h 0.181345v 1.67545h 0.181345v 2.36444h 0.181345v -1.61665h 0.181345v -1.15904h 0.181345v 1.49121h 0.181345v 2.16266h 0.181345v
 -2.81984h 0.181345v -0.318177h 0.181345v -0.208456h 0.181345v 0.851652h 0.181345v 1.98678h 0.181345v -1.54225h 0.181345v 2.71035h 0.181345v -2.82271h 0.181345v -2.94083h 0.181345v 3.74551h 0.181345v 1.48771h 0.181345v -1.12928h 0.181345v -1.27463h
 0.181345v -0.652454h 0.181345v -0.522987h 0.181345v 2.81721h 0.181345v -1.53023h 0.181345v -0.441282h 0.181345v 0.895837h 0.181345v 0.23251h 0.181345v -0.347437h 0.181345v -0.78091h 0.181345v 1.72577h 0.36269v -2.25985h 0.181345v 1.54572h 0.181345v
 0.234312h 0.181345v -1.88462h 0.181345v 0.422764h 0.181345v 1.69986h 0.181345v -0.355612h 0.181345v -0.574702h 0.36269v 0.458h 0.181345v 0.234312h 0.181345v 1.61856h 0.181345v -0.260572h 0.181345v -3.75495h 0.181345v 0.512348h 0.181345v 0.747784h
 0.181345v 0.332163h 0.181345v -0.222252h 0.181345v 2.25629h 0.181345v -1.80847h 0.181345v 1.80847h 0.181345v -2.25629h 0.181345v 1.02693h 0.181345v -0.465047h 0.181345v -0.339628h 0.181345v 0.804675h 0.181345v -3.37233h 0.181345v 3.61033h 0.181345v
 -1.37484h 0.181345v -0.643196h 0.181345v 2.38222h 0.181345v -1.40686h 0.181345v 1.78003h 0.181345v -1.55447h 0.181345v 1.55447h 0.181345v -3.37233h 0.181345v 1.15101h 0.181345v -1.45029h 0.181345v 0.707753h 0.181345v 1.63837h 0.181345v -3.30295h
 0.181345v 2.29878h 0.181345v -1.24285h 0.181345v -2.30122h 0.181345v 2.00584h 0.181345v 0.395129h 0.181345v -1.96791h 0.181345v 1.28307h 0.181345v -2.05386h 0.181345v 0.337731h 0.181345v 0.171739h 0.181345v -3.79807h 0.181345v 3.12253h 0.181345v
 -0.882166h 0.181345v 0.636424h 0.181345v -1.46992h 0.181345v 0.525064h 0.181345v 1.78003h 0.181345v -2.88365h 0.181345v 0.50501h 0.181345v -1.53349h 0.181345v -0.197556h 0.181345v -0.130284h 0.181345v 1.42744h 0.181345v 1.0325h 0.181345v -2.97012h
 0.181345v 1.58533h 0.181345v -0.207502h 0.181345v -0.068539h 0.181345v -0.203772h 0.181345v 2.09534h 0.181345v -0.30687h 0.181345v 0.384571h 0.181345v -1.69323h 0.181345v -2.3197h 0.181345v 3.78101h 0.181345v -2.7937h 0.181345v 1.12489h 0.181345v
 1.2154h 0.181345v -0.221708h 0.181345v 0.907042h 0.181345v -2.0375h 0.181345v 0.344271h 0.181345v 0.0698053h 0.181345v -3.25997h 0.181345v 1.41787h 0.181345v -2.50559h 0.181345v -0.616936h 0.181345v -1.02251h 0.181345v -1.7748h 0.181345v 1.44878h
 0.181345v -2.96133h 0.181345v 0.344794h 0.181345v -1.65031h 0.181345v -0.87733h 0.181345v -2.16484h 0.181345v 0.549618h 0.181345v -0.291763h 0.181345v -1.24741h 0.36269v -1.94469h 0.181345v -1.12666h 0.181345v 2.01804h 0.181345v -0.608h 0.181345v
 -0.118719h 0.181345v -0.141242h 0.181345v 0.0940148h 0.181345v 0.923579h 0.181345v 0.458h 0.181345v 0.877508h 0.181345v 1.31499h 0.181345v 2.18105h 0.181345v -0.608653h 0.181345v 1.02848h 0.181345v 1.64758h 0.181345v 0.646637h 0.181345v 3.78039h
 0.181345v 0.321562h 0.181345v -0.688269h 0.181345v 1.81242h 0.181345v 2.05977h 0.181345v 2.86277h 0.181345v -0.160776h 0.181345v 0.570363h 0.181345v 1.66629h 0.181345v 0.956828h 0.181345v -2.78828h 0.181345v 3.59991h 0.181345v -0.512348h 0.181345v
 0.935112h 0.181345v 1.82028h 0.181345v -1.38535h 0.181345v 1.26493h 0.181345v 1.6457h 0.181345v -0.525717h 0.181345v 0.660054h 0.181345v -0.134337h 0.181345v 0.269879h 0.181345v -1.05175h 0.181345v -2.45612h 0.181345v 2.07985h 0.181345v 0.762153h
 0.181345v 0.940657h 0.181345v -0.544665h 0.181345v -1.03376h 0.181345v -0.967551h 0.181345v 0.597423h 0.181345v 3.10056h 0.181345v -3.46184h 0.181345v 3.46184h 0.181345v -2.60502h 0.181345v -0.616936h 0.181345v 0.743404h 0.181345v -0.126468h
 0.181345v 0.254003h 0.181345v 0.654337h 0.181345v -0.654337h 0.181345v -1.34697h 0.181345v 3.25563h 0.181345v -0.984439h 0.181345v 1.13046h 0.181345v -2.92561h 0.181345v 3.98927h 0.181345v -0.767313h 0.181345v -6.07777h 0.181345v 3.85537h 0.181345v
 1.20967h 0.181345v -1.96547h 0.181345v 1.55139h 0.181345v -0.135542h 0.181345v -0.267491h 0.181345v 2.1321h 0.181345v -3.76411h 0.181345v 3.31295h 0.181345v -4.01059h 0.181345v 3.86314h 0.181345v -0.433891h 0.181345v -0.421781h 0.181345v -0.677819h
 0.181345v 4.08485h 0.181345v -3.81736h 0.181345v 1.56234h 0.181345v -1.69668h 0.181345v 2.46399h 0.181345v 0.158251h 0.181345v -1.93829h 0.181345v -3.25997h 0.181345v 4.27269h 0.181345v -1.4268h 0.181345v 1.2779h 0.181345v -2.0735h 0.181345v
 2.67809h 0.181345v -1.04268h 0.181345v 0.889246h 0.181345v 0.308436h 0.181345v 1.30083h 0.181345v -4.51655h 0.181345v 0.254003h 0.181345v 0.389193h 0.181345v -0.516728h 0.181345v 4.39008h 0.181345v -2.20787h 0.181345v -0.993689h 0.181345v 0.703049h
 0.181345v -1.37484h 0.181345v 2.57252h 0.181345v 2.17465h 0.181345v -1.69986h 0.181345v -0.935112h 0.181345v -3.12857h 0.181345v 2.39121h 0.181345v -0.425742h 0.181345v 0.425742h 0.181345v -2.39121h 0.181345v 2.8293h 0.181345v -1.54778h 0.181345v
 -0.395992h 0.181345v -2.842h 0.181345v 1.83411h 0.181345v 1.13874h 0.181345v 1.37484h 0.181345v -3.22771h 0.181345v -1.22755h 0.181345v -1.52785h 0.181345v 1.96278h 0.181345v -0.961564h 0.181345v -1.57158h 0.181345v -2.16888h 0.181345v 0.492853h
 0.181345v -0.97014h 0.181345v -1.70153h 0.181345v -1.01466h 0.181345v -2.07517h 0.181345v -2.17406h 0.181345v 0.198856h 0.181345v -1.38572h 0.181345v -2.47893h 0.181345v 1.08425h 0.181345v -0.651867h 0.181345v -4.33772h 0.181345v 2.11669h 0.181345v
 -0.902028h 0.181345v -1.54032h 0.181345v -1.50417h 0.181345v -0.340807h 0.181345v 0.771094h 0.181345v -0.323859h 0.181345v 0.323859h 0.181345v 0.61239h 0.181345v -0.0283809h 0.181345v -1.06723h 0.181345v 1.41137h 0.181345v 2.04707h 0.181345v
 0.301931h 0.181345v -0.824241h 0.181345v 1.13233h 0.181345v -0.576766h 0.181345v 1.98953h 0.181345v 2.116h 0.181345v 0.175733h 0.181345v 2.49256h 0.181345v 1.24881h 0.181345v 0.113631h 0.181345v 2.4729h 0.181345v 1.33332h 0.181345v 3.17192h
 0.181345v 1.82535h 0.181345v 0.948154h 0.181345v -0.108336h 0.181345v 3.92195h 0.181345v -1.33829h 0.181345v 3.76152h 0.181345v -0.163384h 0.181345v 5.18287h 0.181345v -2.90728h 0.181345v 2.68002h 0.181345v -2.10239h 0.181345v 3.0327h 0.181345v
 1.78003h 0.181345v -1.29248h 0.36269v -0.487553h 0.181345v 1.24971h 0.181345v 4.17497h 0.181345v -4.68732h 0.181345v 4.01553h 0.181345v -2.70054h 0.181345v 3.71977h 0.181345v 1.09297h 0.181345v -2.43722h 0.181345v -0.935112h 0.181345v -3.0052h
 0.181345v 4.59749h 0.181345v -2.18503h 0.544034v 1.85287h 0.181345v 0.332163h 0.36269v 0.687065h 0.181345v -1.34425h 0.181345v -2.37552h 0.181345v 4.43956h 0.181345v -3.29843h 0.181345v 0.91621h 0.181345v -0.616936h 0.181345v -0.880608h 0.181345v
 3.51558h 0.181345v -2.93425h 0.181345v -0.293462h 0.181345v -1.38747h 0.181345v 2.59714h 0.181345v 2.01804h 0.181345v -2.63497h 0.181345v 0.935112h 0.181345v -1.81572h 0.181345v 0.287872h 0.181345v 3.59189h 0.181345v -3.59189h 0.181345v 1.20967h
 0.181345v 2.01804h 0.181345v -0.355612h 0.181345v -1.97404h 0.181345v 1.97404h 0.181345v -5.03476h 0.181345v 5.39037h 0.36269v 3.64464h 0.181345v -7.72002h 0.36269v -1.81054h 0.181345v 6.62327h 0.181345v -3.6716h 0.181345v -3.19348h 0.181345v
 3.19348h 0.181345v 0.299274h 0.181345v -1.44041h 0.181345v 2.05734h 0.36269v -0.311616h 0.181345v 0.311616h 0.181345v -1.49754h 0.181345v -0.832109h 0.181345v 0.549618h 0.181345v -0.277307h 0.181345v -1.31499h 0.181345v 1.31499h 0.181345v 0.277307h
 0.181345v -1.07995h 0.181345v -2.842h 0.181345v 5.08505h 0.181345v -2.75539h 0.181345v 0.775187h 0.181345v 0.267491h 0.181345v -1.04268h 0.181345v 2.45612h 0.181345v 4.05423h 0.181345v -2.16266h 0.181345v -2.18503h 0.181345v 4.74025h 0.181345v
 -8.34332h 0.181345v 4.50112h 0.181345v -1.18593h 0.36269v 3.87976h 0.181345v -2.06404h 0.181345v 2.06404h 0.181345v -1.40686h 0.181345v -0.97536h 0.181345v 0.97536h 0.181345v 2.95825h 0.181345v -3.61544h 0.181345v -0.629792h 0.181345v 0.311616h
 0.36269v 2.75539h 0.181345v 1.17822h 0.181345v -2.61863h 0.181345v -1.31499h 0.181345v 0.643196h 0.181345v 1.37484h 0.181345v -2.32965h 0.181345v 0.629792h 0.181345v -2.09821h 0.181345v 0.570363h 0.181345v 0.293462h 0.181345v 3.29843h 0.181345v
 -5.50055h 0.181345v 4.43332h 0.181345v 0.347437h 0.181345v -1.34425h 0.181345v 0.996812h 0.181345v 1.44041h 0.181345v -4.25294h 0.181345v 5.43116h 0.181345v 1.2779h 0.181345v -1.68093h 0.36269v -4.44679h 0.181345v 0.91621h 0.181345v 3.13802h
 0.181345v -1.47559h 0.181345v -3.15997h 0.181345v -1.87479h 0.181345v 5.03476h 0.181345v 0.355612h 0.181345v -3.22771h 0.181345v 2.52466h 0.181345v -1.31499h 0.181345v -4.582h 0.181345v 5.55736h 0.181345v -2.4729h 0.181345v 3.15997h 0.181345v
 0.719795h 0.181345v -1.73902h 0.36269v -1.55941h 0.181345v 0.604594h 0.181345v 5.08505h 0.181345v -2.75539h 0.181345v 3.19348h 0.181345v -1.2779h 0.181345v -7.30594h 0.181345v 3.37233h 0.181345v 4.34769h 0.181345v -4.02951h 0.181345v 1.69986h
 0.181345v 0.364182h 0.181345v 1.96547h 0.181345v -3.37233h 0.181345v 2.55522h 0.181345v 1.68093h 0.181345v -2.45612h 0.181345v 3.85214h 0.181345v -0.94486h 0.181345v 0.465047h 0.181345v -7.04393h 0.181345v 4.84982h 0.181345v 2.19411h 0.181345v
 4.99089h 0.181345v -8.36322h 0.181345v 1.17822h 0.181345v 5.33213h 0.181345v 1.20967h 0.181345v -2.85998h 0.181345v 1.65031h 0.181345v -5.33213h 0.181345v 3.68182h 0.36269v -2.40392h 0.36269v 5.2639h 0.181345v -5.2639h 0.181345v 2.93425h 0.181345v
 -4.21215h 0.181345v 3.16947h 0.181345v 2.75539h 0.181345v 2.63497h 0.181345v -5.39037h 0.181345v 3.37233h 0.181345v -0.616936h 0.181345v -1.1631h 0.181345v 3.09502h 0.181345v 2.21559h 0.181345v -2.88739h 0.181345v -4.99089h 0.181345v 5.66268h
 0.181345v -0.671792h 0.181345v 5.48453h 0.36269v -4.81274h 0.181345v 1.44041h 0.181345v -4.53543h 0.181345v -1.07995h 0.181345v 3.50318h 0.181345v 7.50257h 0.181345v -2.01804h 0.181345v -4.81274h 0.181345v -0.671792h 0.181345v -0.643196h 0.181345v
 2.01804h 0.181345v 7.24771h 0.181345v -2.16266h 0.181345v -3.5725h 0.181345v -4.14752h 0.181345v 1.93192h 0.181345v 3.89653h 0.181345v 2.93425h 0.181345v -7.50257h 0.181345v 5.48453h 0.181345v -1.78003h 0.181345v -1.5923h 0.181345v 5.39037h
 0.181345v 5.08505h 0.181345v -8.01929h 0.181345v 1.89157h 0.181345v -6.45989h 0.181345v 1.37484h 0.181345v 5.08505h 0.181345v 2.16266h 0.181345v -3.13802h 0.181345v 12.4935h 0.181345v -10.4754h 0.181345v -2.93425h 0.181345v 0.91621h 0.181345v
 0.97536h 0.181345v -2.75539h 0.181345v 3.79807h 0.36269v -1.04268h 0.181345v -0.97536h 0.181345v -1.78003h 0.181345v 2.75539h 0.181345v 3.37233h 0.181345v -7.72002h 0.181345v 7.72002h 0.181345v -2.32965h 0.36269v 8.45738h 0.181345v -8.45738h
 0.181345v -4.61518h 0.181345v -2.21559h 0.181345v 0.703049h 0.181345v 2.32965h 0.181345v -3.0327h 0.181345v 3.0327h 0.181345v -6.12773h 0.181345v 1.1631h 0.181345v 5.82845h 0.181345v 8.01929h 0.181345v -13.8477h 0.181345v 5.82845h 0.181345v
 -6.42119h 0.181345v 1.20967h 0.181345v 1.31499h 0.181345v -3.09502h 0.181345v 1.78003h 0.181345v 1.31499h 0.181345v -6.12773h 0.181345v 3.60307h 0.181345v -6.12773h 0.181345v 0.392563h 0.36269v -0.775187h 0.36269v 4.86004h 0.36269v -1.0079h
 0.181345v -5.63218h 0.181345v 6.64007h 0.181345v -4.08485h 0.181345v 1.68093h 0.181345v 4.64696h 0.181345v -4.64696h 0.181345v 1.89157h 0.181345v 1.5923h 0.181345v -3.48386h 0.181345v -1.2779h 0.181345v 3.16947h 0.181345v 3.37233h 0.181345v
 -2.32965h 0.181345v 0.549618h 0.181345v -3.92195h 0.181345v 5.08505h 0.181345v -3.25094h 0.181345v 2.08784h 0.181345v -3.48386h 0.181345v -0.438084h 0.181345v 3.92195h 0.181345v -1.5923h 0.181345v 1.5923h 0.181345v 1.1631h 0.181345v -2.75539h
 0.181345v -1.89157h 0.181345v 1.39602h 0.181345v -3.07696h 0.181345v -1.86816h 0.181345v -2.57863h 0.36269v 1.23439h 0.181345v -2.91532h 0.181345v 4.61518h 0.181345v -5.88591h 0.36269v -1.17212h 0.181345v -2.29739h 0.181345v 1.85287h 0.181345v
 -3.50318h 0.181345v -1.0079h 0.181345v 1.35937h 0.181345v -3.04886h 0.181345v -1.25432h 0.181345v 2.15237h 0.181345v -4.95228h 0.181345v 2.79991h 0.181345v -1.6457h 0.181345v -0.472314h 0.181345v 1.85287h 0.181345v -3.91444h 0.181345v -1.44962h
 0.181345v -1.40686h 0.181345v 1.40686h 0.181345v 2.07079h 0.181345v -2.61382h 0.181345v 1.39602h 0.181345v -1.48466h 0.181345v 0.1778h 0.181345v -1.7701h 0.181345v 0.901303h 0.181345v -1.67649h 0.181345v 1.50857h 0.181345v -2.38918h 0.181345v
 2.4729h 0.181345v -2.03901h 0.181345v -2.24558h 0.181345v 2.46728h 0.181345v -0.512348h 0.181345v 1.19768h 0.181345v -0.231915h 0.181345v -1.59997h 0.181345v 0.706336h 0.181345v -1.11482h 0.181345v 0.547131h 0.181345v -0.412194h 0.181345v -1.29804h
 0.181345v 0.37784h 0.181345v -0.439906h 0.181345v -1.30466h 0.181345v 1.24285h 0.36269v -0.722663h 0.181345v 2.90907h 0.181345v -1.03317h 0.181345v 2.53071h 0.181345v -3.11833h 0.181345v 2.50139h 0.181345v -0.225009h 0.181345v 1.32176h 0.181345v
 0.328553h 0.181345v -0.409587h 0.181345v 1.52957h 0.181345v 1.80241h 0.181345v 0.616936h 0.181345v 0.97536h 0.181345v 0.225569h 0.181345v 0.461496h 0.181345v 3.84836h 0.181345v -1.57718h 0.181345v 3.68182h 0.181345v 2.04287h 0.181345v -0.585086h
 0.181345v -0.37784h 0.181345v 2.64386h 0.181345v 3.48386h 0.181345v -0.277307h 0.181345v 0.847671h 0.181345v 2.18503h 0.181345v 5.15237h 0.181345v -2.98971h 0.181345v 2.98971h 0.181345v 2.56766h 0.181345v -0.549618h 0.181345v 4.34769h 0.181345v
 2.32965h 0.181345v 1.78003h 0.181345v -8.45738h 0.181345v 7.54117h 0.181345v 5.2639h 0.181345v 2.75539h 0.181345v 10.4754h 0.181345v -8.88312h 0.181345v 3.79807h 0.181345v -10.4754h 0.181345v 8.45738h 0.181345v -1.78003h 0.181345v 3.79807h 0.181345v
 8.45738h 0.181345v -12.2555h 0.181345v 6.12773h 0.181345v 2.75539h 0.36269v 24.3232h 0.181345v -33.2063h 0.181345v 12.2555h 0.181345v 10.4754h 0.181345v -16.6031h 0.181345v 2.75539h 0.181345v 7.72002h 0.36269v -7.72002h 0.181345v 24.3232h 0.181345v
 -20.9508h 0.181345v -3.37233h 0.181345v 7.72002h 0.181345v -4.34769h 0.181345v -6.12773h 0.181345v 6.12773h 0.181345v -8.45738h 0.181345v 39.8836h 0.181345v -20.9508h 0.36269v -18.9328h 0.181345v 12.8051h 0.181345v -7.72002h 0.181345v 24.3232h
 0.181345v -24.3232h 0.181345v -2.75539h 0.181345v 10.4754h 0.181345v 27.0786h 0.181345v -34.7986h 0.181345v -5.08505h 0.181345v 12.8051h 0.181345v -4.34769h 0.181345v -3.37233h 0.36269v 13.8477h 0.181345v -13.8477h 0.181345v 3.37233h 0.181345v
 -8.45738h 0.181345v -2.01804h 0.181345v 14.8231h 0.181345v -7.72002h 0.181345v -7.10308h 0.181345v 14.8231h 0.181345v -14.8231h 0.181345v 7.10308h 0.181345v 3.37233h 0.181345v -6.12773h 0.181345v 6.12773h 0.181345v -3.37233h 0.181345v -8.88312h
 0.181345v 12.2555h 0.181345v -10.4754h 0.181345v 7.10308h 0.181345v 3.37233h 0.36269v 4.34769h 0.181345v -4.34769h 0.181345v 10.4754h 0.181345v -22.7309h 0.181345v 1.78003h 0.181345v 7.10308h 0.181345v -5.08505h 0.544034v -3.79807h 0.181345v
 1.78003h 0.181345v -10.4754h 0.181345v 8.69538h 0.181345v -1.5923h 0.181345v -5.08505h 0.181345v 2.32965h 0.181345v -4.34769h 0.181345v 8.69538h 0.181345v 1.78003h 0.544034v -8.45738h 0.181345v -2.01804h 0.181345v 8.69538h 0.36269v 3.79807h
 0.181345v -9.35543h 0.181345v -3.13802h 0.181345v 5.66268h 0.181345v 4.81274h 0.181345v -3.37233h 0.181345v -1.44041h 0.181345v 3.0327h 0.181345v 1.78003h 0.181345v -6.12773h 0.181345v -2.32965h 0.181345v -3.79807h 0.181345v 19.3585h 0.181345v
 -16.6031h 0.36269v 2.16266h 0.181345v 9.35543h 0.181345v -3.79807h 0.36269v 3.79807h 0.181345v -2.01804h 0.181345v 2.01804h 0.181345v -3.79807h 0.36269v -3.0327h 0.181345v 6.83077h 0.181345v 8.45738h 0.181345v -8.45738h 0.36269v 2.32965h 0.36269v
 2.75539h 0.181345v 13.8477h 0.181345v -13.8477h 0.181345v 3.37233h 0.181345v -3.37233h 0.181345v 13.8477h 0.181345v -10.4754h 0.181345v 10.4754h 0.544034v -10.4754h 0.181345v -8.45738h 0.181345v 5.08505h 0.181345v -2.75539h 0.181345v 27.0786h
 0.181345v -20.9508h 0.181345v 10.4754h 0.181345v -13.8477h 0.181345v 13.8477h 0.181345v -6.12773h 0.36269v -4.34769h 0.181345v 20.9508h 0.36269v -16.6031h 0.36269v 6.12773h 0.181345v -10.4754h 0.181345v 4.34769h 0.181345v 6.12773h 0.181345v
 -10.4754h 0.181345v -3.37233h 0.181345v 7.72002h 0.36269v 6.12773h 0.181345v -6.12773h 0.181345v -7.72002h 0.181345v 24.3232h 0.181345v -27.0786h 0.181345v 27.0786h 0.181345v -24.3232h 0.36269v -2.75539h 0.181345v 6.12773h 0.36269v -8.45738h
 0.181345v 5.08505h 0.181345v 24.3232h 0.181345v -24.3232h 0.36269v 3.37233h 0.181345v -6.12773h 0.181345v 27.0786h 0.181345v -20.9508h 0.181345v -3.37233h 0.36269v 13.8477h 0.181345v -18.9328h 0.181345v 12.8051h 0.181345v -7.72002h 0.181345v
 3.37233h 0.181345v -3.37233h 0.181345v -2.75539h 0.181345v 2.75539h 0.181345v 13.8477h 0.181345v 10.4754h 0.181345v -10.4754h 0.181345v -20.9508h 0.181345v -4.81274h 0.181345v 4.81274h 0.181345v 4.34769h 0.181345v -2.32965h 0.181345v 12.8051h
 0.181345v -4.34769h 0.181345v -13.8477h 0.181345v 13.8477h 0.181345v -15.2882h 0.181345v -2.52466h 0.181345v 28.2882h 0.181345v -10.4754h 0.181345v -8.45738h 0.181345v -3.79807h 0.181345v 3.79807h 0.181345v 5.08505h 0.36269v -5.08505h 0.181345v
 2.32965h 0.181345v -4.34769h 0.181345v -1.78003h 0.181345v -1.5923h 0.181345v 10.4754h 0.181345v -13.2308h 0.181345v 16.6031h 0.181345v -12.2555h 0.181345v 8.88312h 0.181345v -7.10308h 0.181345v 20.9508h 0.181345v -18.9328h 0.181345v 2.32965h
 1.08807v 2.75539h 0.181345v -7.10308h 0.181345v 31.4262h 0.181345v -16.6031h 0.181345v -12.8051h 0.181345v 2.32965h 0.181345v 27.0786h 0.181345v -39.8836h 0.181345v 8.45738h 0.181345v 7.10308h 0.181345v -7.10308h 0.181345v 2.01804h 0.181345v
 5.08505h 0.181345v -7.10308h 0.181345v 2.01804h 0.181345v -3.79807h 0.181345v 6.12773h 0.181345v -2.32965h 0.181345v 2.32965h 0.181345v 10.4754h 0.181345v -10.4754h 0.181345v -6.12773h 0.181345v 16.6031h 0.544034v -12.8051h 0.544034v -8.14576h
 0.181345v 13.2308h 0.181345v -5.08505h 0.181345v -2.01804h 0.181345v 4.34769h 0.181345v -6.12773h 0.181345v 6.12773h 0.181345v -4.34769h 0.181345v 2.01804h 0.181345v -2.01804h 0.181345v 2.01804h 0.36269v -8.14576h 0.181345v 6.12773h 0.181345v
 4.34769h 0.181345v 10.4754h 0.181345v -16.6031h 0.36269v 16.6031h 0.181345v -10.4754h 0.181345v -9.16043h 0.181345v 11.9158h 0.181345v -8.88312h 0.181345v 8.88312h 0.181345v 13.8477h 0.181345v -29.4082h 0.181345v 39.8836h 0.181345v -29.4082h
 0.181345v -8.14576h 0.181345v 13.2308h 0.181345v -14.4405h 0.181345v 9.35543h 0.181345v -5.39037h 0.181345v 13.8477h 0.181345v -6.12773h 0.181345v -6.12773h 0.181345v 3.79807h 0.181345v -3.79807h 0.181345v -7.72002h 0.181345v 13.8477h 0.181345v
 6.12773h 0.181345v -12.2555h 0.181345v 8.88312h 0.181345v -11.9158h 0.181345v 9.16043h 0.181345v -7.72002h 0.181345v 5.39037h 0.36269v -8.14576h 0.181345v -4.34769h 0.181345v -1.78003h 0.181345v 8.88312h 0.181345v -3.96507h 0.181345v 3.96507h
 0.36269v -5.08505h 0.181345v 10.4754h 0.181345v -10.4754h 0.181345v 12.8051h 0.181345v -6.12773h 0.181345v 3.79807h 0.181345v -3.79807h 0.181345v -3.0327h 0.181345v 3.0327h 0.181345v -9.61159h 0.181345v 11.3916h 0.181345v -11.3916h 0.181345v
 9.61159h 0.181345v 1.78003h 0.181345v -6.12773h 0.181345v -1.20967h 0.181345v -2.16266h 0.181345v 1.04268h 0.181345v 1.11998h 0.181345v 5.55736h 0.181345v -3.0327h 0.181345v -9.77237h 0.181345v 11.2128h 0.181345v -3.96507h 0.181345v -5.73516h
 0.181345v 5.73516h 0.544034v 5.55736h 0.181345v -5.55736h 0.36269v 5.55736h 0.181345v -5.55736h 0.181345v -1.11998h 0.181345v -2.01804h 0.181345v 7.10308h 0.181345v 1.5923h 0.181345v -8.69538h 0.181345v 0.97536h 0.181345v -1.89157h 0.181345v
 0.91621h 0.181345v 2.01804h 0.36269v 2.32965h 0.36269v 4.34769h 0.181345v -8.69538h 0.181345v -1.78003h 0.181345v 0.863825h 0.181345v -3.89653h 0.181345v 5.7881h 0.181345v -1.89157h 0.181345v 4.05423h 0.181345v -4.05423h 0.181345v 2.93425h 0.181345v
 -1.04268h 0.36269v -2.75539h 0.181345v 6.12773h 0.181345v -1.20967h 0.181345v 3.96507h 0.181345v -7.10308h 0.181345v 4.34769h 0.181345v -2.32965h 0.36269v -8.7627h 0.181345v 9.88268h 0.181345v -3.13802h 0.181345v 3.13802h 0.181345v -1.11998h
 0.544034v 3.64464h 0.181345v -9.03501h 0.181345v 3.37233h 0.36269v 3.13802h 0.181345v -5.73516h 0.181345v -2.88739h 0.181345v 4.56832h 0.181345v 2.93425h 0.181345v 5.08505h 0.181345v -14.4405h 0.181345v 3.22771h 0.181345v 4.10969h 0.181345v 3.13802h
 0.181345v -5.73516h 0.36269v -4.14752h 0.181345v 4.14752h 0.181345v -3.53058h 0.181345v 1.31499h 0.181345v 0.703049h 0.181345v 3.19348h 0.181345v -3.89653h 0.181345v 1.44041h 0.181345v -2.75539h 0.181345v 0.643196h 0.181345v 0.671792h 0.181345v
 -3.64464h 0.181345v 3.64464h 0.36269v -2.52466h 0.181345v 7.3374h 0.181345v -9.50006h 0.181345v 6.12773h 0.181345v -6.12773h 0.181345v 4.01553h 0.36269v 0.671792h 0.181345v 2.21559h 0.181345v -4.74025h 0.181345v 1.20967h 0.181345v 1.31499h 0.36269v
 3.89653h 0.181345v -6.99155h 0.181345v -2.56766h 0.181345v 0.479813h 0.181345v 3.25094h 0.181345v -3.73075h 0.181345v 3.73075h 0.181345v 0.616936h 0.181345v 2.75539h 0.181345v -8.01929h 0.181345v 2.93425h 0.181345v 1.71272h 0.181345v 0.616936h
 0.181345v -3.37233h 0.181345v 3.37233h 0.181345v -1.78003h 0.181345v -2.08784h 0.181345v 3.25094h 0.181345v 6.74466h 0.181345v -8.45738h 0.181345v 6.67734h 0.181345v -2.32965h 0.181345v -3.22771h 0.181345v 1.85287h 0.181345v -1.26013h 0.181345v
 2.63497h 0.181345v -0.703049h 0.36269v 0.703049h 0.181345v 1.51254h 0.181345v -0.775187h 0.544034v 2.45612h 0.181345v 4.05423h 0.181345v -4.91805h 0.181345v 0.863825h 0.181345v 1.89157h 0.181345v -3.5725h 0.181345v 3.5725h 0.36269v 2.16266h
 0.181345v -5.73516h 0.36269v 6.94483h 0.181345v -1.20967h 0.36269v 5.55736h 0.181345v -15.44h 0.181345v 4.96463h 0.181345v 2.75539h 0.181345v 3.37233h 0.181345v -4.34769h 0.181345v -2.59714h 0.181345v -0.775187h 0.181345v 10.4754h 0.181345v
 -2.75539h 0.725379v -5.2639h 0.181345v 4.05423h 0.181345v 1.20967h 0.181345v -2.32965h 0.181345v -1.04268h 0.181345v -3.5725h 0.181345v -0.775187h 0.181345v 2.45612h 0.181345v 4.05423h 0.181345v -4.05423h 0.181345v 1.89157h 0.181345v 1.04268h
 0.36269v -1.04268h 0.181345v -0.97536h 0.181345v 2.01804h 0.181345v -2.01804h 0.181345v 14.8231h 0.181345v -10.4754h 0.181345v -6.12773h 0.181345v 2.75539h 0.181345v -4.34769h 0.181345v 1.5923h 0.36269v 1.78003h 0.181345v -2.59714h 0.181345v
 8.25982h 0.181345v -1.31499h 0.181345v -2.32965h 0.181345v 3.64464h 0.181345v -7.44271h 0.181345v 8.88312h 0.181345v -12.5876h 0.181345v 12.5876h 0.181345v -7.10308h 0.181345v -1.78003h 0.181345v 3.79807h 0.181345v 3.64464h 0.181345v -4.68732h
 0.181345v 2.16266h 0.181345v -2.16266h 0.181345v 2.16266h 0.181345v 5.55736h 0.181345v -3.0327h 0.181345v 1.44041h 0.181345v 3.37233h 0.181345v -13.0726h 0.181345v 5.73516h 0.906724v -7.24771h 0.181345v 7.24771h 0.181345v -2.16266h 0.181345v
 -2.75539h 0.181345v -1.5923h 0.181345v 4.34769h 0.181345v 2.16266h 0.36269v -2.16266h 0.181345v 3.37233h 0.181345v -6.12773h 0.181345v 0.863825h 0.181345v 6.57889h 0.181345v 3.0327h 0.181345v -11.2925h 0.181345v -5.31062h 0.181345v 5.31062h
 0.181345v 9.70023h 0.181345v -5.08505h 0.181345v -8.7627h 0.181345v 9.88268h 0.36269v -1.11998h 0.181345v -2.01804h 0.181345v -3.37233h 0.181345v 0.775187h 0.181345v -1.51254h 0.181345v 0.737357h 0.181345v 3.37233h 0.181345v 2.01804h 0.181345v
 -1.04268h 0.181345v 6.12773h 0.181345v -2.75539h 0.181345v -3.37233h 0.181345v 13.8477h 0.181345v -16.6031h 0.181345v 3.79807h 0.181345v -1.04268h 0.181345v -3.5725h 0.181345v 4.61518h 0.181345v -1.04268h 0.181345v 1.04268h 0.181345v -6.12773h
 0.181345v -4.34769h 0.181345v 6.67734h 0.181345v -3.70449h 0.181345v 2.1122h 0.181345v -3.96507h 0.181345v 0.592736h 0.36269v 4.14752h 0.181345v -2.21559h 0.181345v 7.95076h 0.181345v -5.73516h 0.181345v -2.21559h 0.181345v 3.89653h 0.181345v
 0.91621h 0.181345v 5.66268h 0.181345v -10.4754h 0.181345v 10.4754h 0.181345v -13.0001h 0.181345v 5.55736h 0.181345v 2.75539h 0.36269v 1.04268h 0.181345v -1.04268h 0.36269v -5.7881h 0.181345v 3.0327h 0.181345v -6.67734h 0.181345v 2.97285h 0.181345v
 4.56832h 0.181345v -1.68093h 0.181345v 6.94483h 0.181345v -10.4754h 0.181345v 6.12773h 0.181345v -2.59714h 0.181345v 0.817109h 0.181345v -0.817109h 0.181345v 2.59714h 0.181345v -0.91621h 0.181345v -3.89653h 0.181345v -3.09502h 0.181345v 7.90776h
 0.181345v -6.74466h 0.181345v 5.82845h 0.181345v -4.56832h 0.181345v 4.56832h 0.181345v -5.21152h 0.181345v 5.21152h 0.181345v -3.19348h 0.181345v -2.01804h 0.181345v 4.34769h 0.181345v -1.5923h 0.181345v -3.96507h 0.181345v 6.42119h 0.181345v
 -5.82845h 0.36269v 4.14752h 0.36269v -6.39056h 0.181345v 6.39056h 0.181345v -2.88739h 0.181345v -2.42323h 0.181345v 2.42323h 0.181345v -4.01553h 0.181345v 2.75539h 0.181345v 7.72002h 0.181345v -7.72002h 0.181345v 5.82845h 0.181345v -4.56832h
 0.181345v -0.643196h 0.181345v 0.643196h 0.181345v 7.50257h 0.181345v -4.61518h 0.181345v -7.39846h 0.181345v 1.53822h 0.181345v 4.34769h 0.181345v -5.39037h 0.181345v 7.72002h 0.36269v -3.0327h 0.181345v -2.52466h 0.181345v 6.42119h 0.181345v
 -0.863825h 0.181345v 2.75539h 0.181345v -3.5725h 0.181345v -2.88739h 0.181345v 5.48453h 0.181345v 5.66268h 0.181345v -4.68732h 0.181345v -7.10308h 0.181345v 14.8231h 0.181345v -7.72002h 0.181345v 2.16266h 0.181345v -4.05423h 0.36269v 0.91621h
 0.181345v -1.78003h 0.181345v 0.863825h 0.181345v 0.91621h 0.181345v -3.37233h 0.181345v 5.39037h 0.181345v 2.32965h 0.181345v -1.20967h 0.181345v -4.05423h 0.36269v -1.68093h 0.181345v 15.0906h 0.181345v -13.4097h 0.181345v 6.57889h 0.181345v
 -6.57889h 0.181345v 1.89157h 0.181345v -3.5725h 0.181345v 3.5725h 0.181345v 1.04268h 0.181345v 6.67734h 0.181345v -6.67734h 0.181345v -1.04268h 0.181345v 2.16266h 0.36269v -3.13802h 0.36269v -0.91621h 0.181345v 2.93425h 0.181345v -4.61518h 0.181345v
 11.2925h 0.181345v -9.61159h 0.181345v 6.57889h 0.181345v -7.44271h 0.36269v 2.75539h 0.181345v 1.04268h 0.181345v 8.45738h 0.181345v -11.3916h 0.181345v -3.89653h 0.181345v -1.31499h 0.181345v 9.26574h 0.181345v -4.91805h 0.181345v -1.5923h
 0.181345v -0.737357h 0.181345v 1.51254h 0.181345v 0.817109h 0.181345v 1.78003h 0.181345v -0.91621h 0.181345v 2.93425h 0.181345v -3.79807h 0.181345v 0.863825h 0.181345v -1.68093h 0.181345v 11.2925h 0.181345v -10.4754h 0.181345v 6.12773h 0.181345v
 -6.94483h 0.181345v 1.68093h 0.181345v 11.3916h 0.181345v -1.78003h 0.181345v -5.55736h 0.181345v -4.91805h 0.181345v 4.91805h 0.181345v -4.05423h 0.181345v 4.05423h 0.181345v 7.3374h 0.181345v -3.37233h 0.181345v -10.4754h 0.181345v 10.4754h
 0.181345v -8.01929h 0.181345v 9.61159h 0.181345v -5.55736h 0.181345v 7.3374h 0.181345v 7.10308h 0.181345v -11.9158h 0.181345v 3.0327h 0.181345v -8.69538h 0.181345v 7.10308h 0.181345v 5.39037h 0.181345v -11.5181h 0.181345v 11.5181h 0.181345v 2.32965h
 0.181345v -9.16043h 0.181345v 15.2882h 0.181345v -16.6031h 0.181345v 8.14576h 0.181345v -9.35543h 0.181345v 5.55736h 0.181345v 1.78003h 0.181345v 2.01804h 0.181345v -5.39037h 0.181345v 10.4754h 0.181345v -7.10308h 0.544034v -3.37233h 0.181345v
 10.4754h 0.544034v -14.4405h 0.181345v 3.96507h 0.181345v 7.72002h 0.181345v 10.4754h 0.36269v -7.72002h 0.36269v -5.08505h 0.181345v -2.01804h 0.181345v 7.10308h 0.181345v -2.75539h 0.181345v -4.34769h 0.181345v -1.78003h 0.181345v 1.78003h
 0.181345v -1.78003h 0.181345v -5.55736h 0.181345v 5.55736h 0.181345v -1.5923h 0.181345v -1.44041h 0.181345v 3.0327h 0.181345v 12.2555h 0.181345v -12.2555h 0.181345v 6.12773h 0.181345v 10.4754h 0.181345v -7.72002h 0.181345v -13.2308h 0.181345v
 10.4754h 0.181345v -7.72002h 0.181345v -2.75539h 0.181345v -1.20967h 0.181345v 7.3374h 0.181345v 7.10308h 0.181345v -5.08505h 0.181345v -8.14576h 0.181345v 2.75539h 0.181345v -2.75539h 0.181345v 1.31499h 0.181345v -7.44271h 0.181345v 12.2555h
 0.181345v 14.8231h 0.181345v -19.6358h 0.181345v -2.52466h 0.181345v 3.96507h 0.181345v 3.37233h 0.181345v -3.37233h 0.181345v 5.39037h 0.181345v -11.5181h 0.181345v 13.8477h 0.181345v -9.16043h 0.181345v 1.44041h 0.544034v 5.39037h 0.181345v
 -5.39037h 0.181345v -2.75539h 0.181345v 13.2308h 0.181345v -7.10308h 0.181345v 2.01804h 0.181345v -6.83077h 0.181345v -3.64464h 0.181345v 5.08505h 0.181345v 1.5923h 0.181345v -4.34769h 0.181345v 4.34769h 0.181345v -3.0327h 0.181345v -2.52466h
 0.181345v 9.35543h 0.181345v -6.83077h 0.36269v 3.0327h 0.181345v -3.0327h 0.181345v 9.16043h 0.181345v -6.12773h 0.181345v 6.12773h 0.181345v -4.34769h 0.181345v -6.12773h 0.181345v -4.34769h 0.181345v 12.4935h 0.181345v -2.01804h 0.181345v
 -6.12773h 0.181345v 1.31499h 0.181345v 4.81274h 0.181345v 4.34769h 0.181345v -2.32965h 0.181345v -11.5181h 0.181345v 11.5181h 0.181345v -9.35543h 0.181345v 17.8128h 0.181345v -10.4754h 0.181345v -4.81274h 0.181345v -4.68732h 0.181345v 13.8477h
 0.181345v -10.4754h 0.181345v 1.31499h 0.181345v -1.31499h 0.36269v 10.4754h 0.181345v -9.16043h 0.36269v 9.16043h 0.181345v -14.8231h 0.181345v 10.4754h 0.181345v -6.12773h 0.181345v 2.75539h 0.181345v 7.72002h 0.181345v -2.32965h 0.181345v
 -9.35543h 0.181345v 1.20967h 0.181345v -3.37233h 0.36269v -5.08505h 0.181345v 11.2128h 0.181345v -1.44041h 0.181345v -2.52466h 0.181345v 7.3374h 0.181345v -8.45738h 0.181345v 23.2805h 0.181345v -26.2147h 0.181345v 6.57889h 0.181345v -2.52466h
 0.181345v -7.95076h 0.181345v 5.7881h 0.181345v 4.68732h 0.181345v 4.81274h 0.181345v -12.2555h 0.181345v 10.4754h 0.181345v -12.0677h 0.181345v 6.51035h 0.181345v 2.52466h 0.181345v 3.0327h 0.181345v -9.61159h 0.181345v 1.89157h 0.181345v 4.68732h
 0.181345v 4.81274h 0.181345v -15.2882h 0.181345v 3.89653h 0.181345v 0.91621h 0.36269v 5.66268h 0.181345v -3.64464h 0.36269v 1.11998h 0.181345v 1.20967h 0.181345v -5.2639h 0.181345v 1.89157h 0.36269v -3.5725h 0.181345v 4.61518h 0.181345v 3.64464h
 0.181345v -3.64464h 0.36269v 1.11998h 0.181345v -7.95076h 0.181345v 9.16043h 0.181345v -10.4754h 0.181345v 5.21152h 0.181345v -3.19348h 0.181345v 6.12773h 0.181345v -1.04268h 0.181345v -0.97536h 0.36269v -0.91621h 0.181345v 5.2639h 0.181345v
 -4.34769h 0.181345v 5.66268h 0.36269v -2.52466h 0.181345v 2.52466h 0.181345v -2.52466h 0.181345v -4.05423h 0.181345v -8.58385h 0.181345v 18.1954h 0.36269v -5.55736h 0.36269v 3.96507h 0.36269v -5.08505h 0.181345v 6.67734h 0.181345v -9.61159h
 0.181345v 9.61159h 0.181345v -6.67734h 0.181345v -4.61518h 0.181345v 5.73516h 0.181345v 3.96507h 0.181345v 3.37233h 0.181345v -8.45738h 0.181345v 5.08505h 0.36269v 5.39037h 0.181345v 5.08505h 0.181345v -2.75539h 0.181345v -2.32965h 0.181345v
 -5.39037h 0.181345v 5.39037h 0.181345v -2.01804h 0.181345v 2.01804h 0.906724v 2.32965h 0.181345v 2.75539h 0.181345v -2.75539h 0.181345v 2.75539h 0.181345v 3.37233h 0.181345v 10.4754h 0.181345v -25.7636h 0.181345v 9.16043h 0.181345v 6.12773h
 0.181345v -10.4754h 0.181345v 14.8231h 0.181345v -10.4754h 0.181345v 10.4754h 0.544034v -4.34769h 0.181345v 20.9508h 0.181345v -16.6031h 0.181345v 6.12773h 0.181345v -16.6031h 0.36269v 37.554h 0.36269v -27.0786h 0.181345v 27.0786h 0.181345v
 -10.4754h 0.181345v -10.4754h 0.181345v -6.12773h 0.36269v 6.12773h 0.181345v 10.4754h 0.36269v -24.3232h 0.181345v 7.72002h 0.181345v 27.0786h 0.181345v -10.4754h 0.181345v 10.4754h 0.181345v -31.4262h 0.181345v 10.4754h 0.181345v 10.4754h
 0.544034v -16.6031h 0.181345v 27.0786h 0.181345v -31.4262h 0.181345v 20.9508h 0.181345v 10.4754h 0.181345v -27.0786h 0.181345v 6.12773h 0.36269v 20.9508h 0.181345v -10.4754h 0.36269v 10.4754h 0.36269v -20.9508h 0.181345v 10.4754h 0.725379v 10.4754h
 0.181345v -10.4754h 0.544034v -10.4754h 0.181345v 20.9508h 0.181345v -10.4754h 0.181345v -16.6031h 0.181345v 16.6031h 0.181345v -10.4754h 0.181345v 10.4754h 0.36269v 10.4754h 0.181345v -20.9508h 0.181345v 10.4754h 0.181345v 10.4754h 0.725379v
 -10.4754h 0.181345v 10.4754h 0.36269v -20.9508h 0.181345v 20.9508h 0.36269v -20.9508h 0.181345v 20.9508h 0.544034v -20.9508h 0.181345v 20.9508h 0.181345v -10.4754h 0.36269v 10.4754h 0.181345v -20.9508h 0.181345v 20.9508h 0.544034v -10.4754h
 0.181345v -10.4754h 0.181345v 20.9508h 0.181345v -10.4754h 0.181345v 10.4754h 0.181345v -10.4754h 0.181345v 10.4754h 0.181345v -10.4754h 0.36269v 10.4754h 0.181345v -10.4754h 0.36269v 10.4754h 0.181345v -10.4754h 0.181345v -10.4754h 0.181345v
 20.9508h 0.181345v -20.9508h 0.181345v 20.9508h 0.181345v -10.4754h 0.181345v 10.4754h 0.181345v -10.4754h 0.181345v -10.4754h 0.181345v 20.9508h 0.181345v -10.4754h 0.181345v 10.4754h 0.544034v -10.4754h 0.181345v 10.4754h 0.181345v -10.4754h
 0.181345v 10.4754h 0.181345v -20.9508h 0.181345v 20.9508h 0.181345v -20.9508h 0.181345v 20.9508h 0.181345v -27.0786h 0.181345v 16.6031h 0.181345v -10.4754h 0.181345v 10.4754h 0.181345v 10.4754h 0.181345v -20.9508h 0.181345v 20.9508h 0.544034v
 -10.4754h 0.181345v 10.4754h 0.544034v -10.4754h 0.36269v 10.4754h 0.181345v -10.4754h 0.36269v 10.4754h 0.36269v -10.4754h 0.181345v -10.4754h 0.181345v 20.9508h 0.36269v -20.9508h 0.181345v 20.9508h 0.181345v -10.4754h 0.181345v -10.4754h
 0.181345v 10.4754h 0.181345v 10.4754h 0.181345v -10.4754h 0.36269v 10.4754h 0.36269v -20.9508h 0.181345v 10.4754h 0.181345v -10.4754h 0.181345v 10.4754h 0.36269v -10.4754h 0.181345v 20.9508h 0.36269v -20.9508h 0.181345v 20.9508h 0.181345v -20.9508h
 0.181345v -6.12773h 0.181345v 16.6031h 0.544034v 10.4754h 0.36269v -20.9508h 0.36269v 10.4754h 0.181345v -20.9508h 0.181345v 20.9508h 0.36269v 10.4754h 0.181345v -20.9508h 0.36269v 10.4754h 0.181345v -16.6031h 0.181345v 16.6031h 0.181345v 10.4754h
 0.906724v -10.4754h 0.181345v 10.4754h 0.181345v -10.4754h 0.181345v -16.6031h 0.181345v 16.6031h 0.36269v 10.4754h 1.08807v -10.4754h 0.181345v 10.4754h 0.181345v -10.4754h 0.36269v 10.4754h 0.181345v -10.4754h 0.181345v 10.4754h 0.36269v -10.4754h
 0.181345v 10.4754h 0.181345v -10.4754h 0.181345v -10.4754h 0.181345v 20.9508h 0.36269v -10.4754h 0.181345v -16.6031h 0.181345v 27.0786h 0.181345v -10.4754h 0.181345v -20.9508h 0.181345v 31.4262h 0.181345v -10.4754h 0.181345v 10.4754h 0.181345v
 -10.4754h 0.181345v -10.4754h 0.181345v 20.9508h 0.181345v -27.0786h 0.181345v 27.0786h 0.181345v -10.4754h 0.181345v -10.4754h 0.181345v 10.4754h 0.36269v -10.4754h 0.181345v 10.4754h 0.181345v 10.4754h 0.181345v -10.4754h 0.544034v 10.4754h
 0.181345v -10.4754h 0.181345v 10.4754h 0.181345" fill="none" stroke="black"/>
<path d="M57.1929,280.151h 453.543" fill="none" stroke="black"/>
<path d="M57.1929,272.68v 7.47068" fill="none" stroke="black"/>
<path d="M75.3318,276.415v 3.73534" fill="none" stroke="black"/>
<path d="M93.4707,276.415v 3.73534" fill="none" stroke="black"/>
<path d="M111.61,276.415v 3.73534" fill="none" stroke="black"/>
<path d="M129.749,276.415v 3.73534" fill="none" stroke="black"/>
<path d="M147.887,272.68v 7.47068" fill="none" stroke="black"/>
<path d="M166.026,276.415v 3.73534" fill="none" stroke="black"/>
<path d="M184.165,276.415v 3.73534" fill="none" stroke="black"/>
<path d="M202.304,276.415v 3.73534" fill="none" stroke="black"/>
<path d="M220.443,276.415v 3.73534" fill="none" stroke="black"/>
<path d="M238.582,272.68v 7.47068" fill="none" stroke="black"/>
<path d="M256.721,276.415v 3.73534" fill="none" stroke="black"/>
<path d="M274.86,276.415v 3.73534" fill="none" stroke="black"/>
<path d="M292.999,276.415v 3.73534" fill="none" stroke="black"/>
<path d="M311.138,276.415v 3.73534" fill="none" stroke="black"/>
<path d="M329.277,272.68v 7.47068" fill="none" stroke="black"/>
<path d="M347.415,276.415v 3.73534" fill="none" stroke="black"/>
<path d="M365.554,276.415v 3.73534" fill="none" stroke="black"/>
<path d="M383.693,276.415v 3.73534" fill="none" stroke="black"/>
<path d="M401.832,276.415v 3.73534" fill="none" stroke="black"/>
<path d="M419.971,272.68v 7.47068" fill="none" stroke="black"/>
<path d="M438.11,276.415v 3.73534" fill="none" stroke="black"/>
<path d="M456.249,276.415v 3.73534" fill="none" stroke="black"/>
<path d="M474.388,276.415v 3.73534" fill="none" stroke="black"/>
<path d="M492.527,276.415v 3.73534" fill="none" stroke="black"/>
<path d="M510.666,272.68v 7.47068" fill="none" stroke="black"/>
<path d="M510.666,272.68v 7.47068" fill="none" stroke="black"/>
<text xml:space="preserve" x="54.3523" y="290.27" fill="black" font-size="10.4952" font-family="Helvetica">0</text>
<text xml:space="preserve" x="139.569" y="290.27" fill="black" font-size="10.4952" font-family="Helvetica">500</text>
<text xml:space="preserve" x="227.449" y="290.27" fill="black" font-size="10.4952" font-family="Helvetica">1000</text>
<text xml:space="preserve" x="318.288" y="290.27" fill="black" font-size="10.4952" font-family="Helvetica">1500</text>
<text xml:space="preserve" x="408.831" y="290.27" fill="black" font-size="10.4952" font-family="Helvetica">2000</text>
<text xml:space="preserve" x="499.67" y="290.27" fill="black" font-size="10.4952" font-family="Helvetica">2500</text>
<text xml:space="preserve" x="265.323" y="301.218" fill="black" font-size="10.4952" font-family="Helvetica">Channel</text>
<path d="M57.1929,280.151v -249.023" fill="none" stroke="black"/>
<path d="M63.9961,280.151h -6.80315" fill="none" stroke="black"/>
<path d="M63.9961,277.395h -6.80315" fill="none" stroke="black"/>
<path d="M63.9961,275.065h -6.80315" fill="none" stroke="black"/>
<path d="M63.9961,273.047h -6.80315" fill="none" stroke="black"/>
<path d="M63.9961,271.267h -6.80315" fill="none" stroke="black"/>
<path d="M70.7992,269.675h -13.6063" fill="none" stroke="black"/>
<text xml:space="preserve" x="49.0263" y="273.404" fill="black" font-size="10.4952" font-family="Helvetica">1</text>
<path d="M63.9961,259.2h -6.80315" fill="none" stroke="black"/>
<path d="M63.9961,253.072h -6.80315" fill="none" stroke="black"/>
<path d="M63.9961,248.724h -6.80315" fill="none" stroke="black"/>
<path d="M63.9961,245.352h -6.80315" fill="none" stroke="black"/>
<path d="M63.9961,242.597h -6.80315" fill="none" stroke="black"/>
<path d="M63.9961,240.267h -6.80315" fill="none" stroke="black"/>
<path d="M63.9961,238.249h -6.80315" fill="none" stroke="black"/>
<path d="M63.9961,236.469h -6.80315" fill="none" stroke="black"/>
<path d="M70.7992,234.877h -13.6063" fill="none" stroke="black"/>
<text xml:space="preserve" x="41.629" y="238.489" fill="black" font-size="10.4952" font-family="Helvetica">10</text>
<path d="M63.9961,224.401h -6.80315" fill="none" stroke="black"/>
<path d="M63.9961,218.273h -6.80315" fill="none" stroke="black"/>
<path d="M63.9961,213.926h -6.80315" fill="none" stroke="black"/>
<path d="M63.9961,210.553h -6.80315" fill="none" stroke="black"/>
<path d="M63.9961,207.798h -6.80315" fill="none" stroke="black"/>
<path d="M63.9961,205.468h -6.80315" fill="none" stroke="black"/>
<path d="M63.9961,203.45h -6.80315" fill="none" stroke="black"/>
<path d="M63.9961,201.67h -6.80315" fill="none" stroke="black"/>
<path d="M70.7992,200.078h -13.6063" fill="none" stroke="black"/>
<text xml:space="preserve" x="49.0263" y="200.319" fill="black" font-size="7.16345" font-family="Helvetica">2</text>
<text xml:space="preserve" x="38.0783" y="204.757" fill="black" font-size="10.4952" font-family="Helvetica">10</text>
<path d="M63.9961,189.603h -6.80315" fill="none" stroke="black"/>
<path d="M63.9961,183.475h -6.80315" fill="none" stroke="black"/>
<path d="M63.9961,179.127h -6.80315" fill="none" stroke="black"/>
<path d="M63.9961,175.755h -6.80315" fill="none" stroke="black"/>
<path d="M63.9961,172.999h -6.80315" fill="none" stroke="black"/>
<path d="M63.9961,170.67h -6.80315" fill="none" stroke="black"/>
<path d="M63.9961,168.652h -6.80315" fill="none" stroke="black"/>
<path d="M63.9961,166.872h -6.80315" fill="none" stroke="black"/>
<path d="M70.7992,165.279h -13.6063" fill="none" stroke="black"/>
<text xml:space="preserve" x="49.0263" y="165.108" fill="black" font-size="7.16345" font-family="Helvetica">3</text>
<text xml:space="preserve" x="38.0783" y="169.842" fill="black" font-size="10.4952" font-family="Helvetica">10</text>
<path d="M63.9961,154.804h -6.80315" fill="none" stroke="black"/>
<path d="M63.9961,148.676h -6.80315" fill="none" stroke="black"/>
<path d="M63.9961,144.329h -6.80315" fill="none" stroke="black"/>
<path d="M63.9961,140.956h -6.80315" fill="none" stroke="black"/>
<path d="M63.9961,138.201h -6.80315" fill="none" stroke="black"/>
<path d="M63.9961,135.871h -6.80315" fill="none" stroke="black"/>
<path d="M63.9961,133.853h -6.80315" fill="none" stroke="black"/>
<path d="M63.9961,132.073h -6.80315" fill="none" stroke="black"/>
<path d="M70.7992,130.481h -13.6063" fill="none" stroke="black"/>
<text xml:space="preserve" x="49.0263" y="130.488" fill="black" font-size="7.16345" font-family="Helvetica">4</text>
<text xml:space="preserve" x="38.0783" y="134.927" fill="black" font-size="10.4952" font-family="Helvetica">10</text>
<path d="M63.9961,120.005h -6.80315" fill="none" stroke="black"/>
<path d="M63.9961,113.878h -6.80315" fill="none" stroke="black"/>
<path d="M63.9961,109.53h -6.80315" fill="none" stroke="black"/>
<path d="M63.9961,106.158h -6.80315" fill="none" stroke="black"/>
<path d="M63.9961,103.402h -6.80315" fill="none" stroke="black"/>
<path d="M63.9961,101.073h -6.80315" fill="none" stroke="black"/>
<path d="M63.9961,99.0546h -6.80315" fill="none" stroke="black"/>
<path d="M63.9961,97.2746h -6.80315" fill="none" stroke="black"/>
<path d="M70.7992,95.6823h -13.6063" fill="none" stroke="black"/>
<text xml:space="preserve" x="49.0263" y="95.5731" fill="black" font-size="7.16345" font-family="Helvetica">5</text>
<text xml:space="preserve" x="38.0783" y="100.307" fill="black" font-size="10.4952" font-family="Helvetica">10</text>
<path d="M63.9961,85.2068h -6.80315" fill="none" stroke="black"/>
<path d="M63.9961,79.0791h -6.80315" fill="none" stroke="black"/>
<path d="M63.9961,74.7314h -6.80315" fill="none" stroke="black"/>
<path d="M63.9961,71.3591h -6.80315" fill="none" stroke="black"/>
<path d="M63.9961,68.6037h -6.80315" fill="none" stroke="black"/>
<path d="M63.9961,66.2741h -6.80315" fill="none" stroke="black"/>
<path d="M63.9961,64.256h -6.80315" fill="none" stroke="black"/>
<path d="M63.9961,62.476h -6.80315" fill="none" stroke="black"/>
<path d="M70.7992,60.8837h -13.6063" fill="none" stroke="black"/>
<text xml:space="preserve" x="49.0263" y="60.6579" fill="black" font-size="7.16345" font-family="Helvetica">6</text>
<text xml:space="preserve" x="38.0783" y="65.3921" fill="black" font-size="10.4952" font-family="Helvetica">10</text>
<path d="M63.9961,50.4083h -6.80315" fill="none" stroke="black"/>
<path d="M63.9961,44.2806h -6.80315" fill="none" stroke="black"/>
<path d="M63.9961,39.9329h -6.80315" fill="none" stroke="black"/>
<path d="M63.9961,36.5605h -6.80315" fill="none" stroke="black"/>
<path d="M63.9961,33.8051h -6.80315" fill="none" stroke="black"/>
<path d="M63.9961,31.4755h -6.80315" fill="none" stroke="black"/>
<g transform="rotate(-90,26.5385,191.442)">
<text xml:space="preserve" x="26.5385" y="191.442" fill="black" font-size="10.4952" font-family="Helvetica">Counts/Channel</text>
</g>
<text xml:space="preserve" x="404.097" y="60.6579" fill="black" font-size="14.7788" font-family="Helvetica" font-weight="bold"> = 2.4879 MeV</text>
<text xml:space="preserve" x="398.179" y="63.9127" fill="black" font-size="10.0192" font-family="Helvetica" font-weight="bold">p</text>
<text xml:space="preserve" x="389.006" y="60.6579" fill="black" font-size="14.7788" font-family="Helvetica" font-weight="bold">E</text>
<path d="M262.163,163.839v 26.1428" fill="none" stroke="black"/>
<path d="M264.454,189.982l -2.29122, 3.9685l -2.29122, -3.9685z" fill="black"/>
<path d="M264.454,189.982l -2.29122, 3.9685l -2.29122, -3.9685h 4.58243z" fill="none" stroke="black"/>
<text xml:space="preserve" x="266.803" y="161.853" fill="black" font-size="10.4952" font-family="Helvetica" font-weight="bold">_1 	1.369 MeV</text>
<text xml:space="preserve" x="260.293" y="161.853" fill="black" font-size="10.4952" font-family="Times">&#0945;</text>
<path d="M184.528,130.481v 30.8301" fill="none" stroke="black"/>
<path d="M186.819,161.311l -2.29122, 3.9685l -2.29122, -3.9685z" fill="black"/>
<path d="M186.819,161.311l -2.29122, 3.9685l -2.29122, -3.9685h 4.58243z" fill="none" stroke="black"/>
<text xml:space="preserve" x="172.117" y="127.529" fill="black" font-size="10.4952" font-family="Helvetica" font-weight="bold"># p_1 	0.844 MeV</text>
<path d="M210.104,148.676v 12.6346" fill="none" stroke="black"/>
<path d="M212.395,161.311l -2.29122, 3.9685l -2.29122, -3.9685z" fill="black"/>
<path d="M212.395,161.311l -2.29122, 3.9685l -2.29122, -3.9685h 4.58243z" fill="none" stroke="black"/>
<text xml:space="preserve" x="197.564" y="144.099" fill="black" font-size="10.4952" font-family="Helvetica" font-weight="bold"># p_2 	1.015 MeV</text>
<path d="M497.616,269.675h 13.0496" fill="none" stroke="black"/>
<path d="M504.141,259.2h 6.5248" fill="none" stroke="black"/>
<path d="M504.141,253.072h 6.5248" fill="none" stroke="black"/>
<path d="M504.141,248.724h 6.5248" fill="none" stroke="black"/>
<path d="M504.141,245.352h 6.5248" fill="none" stroke="black"/>
<path d="M504.141,242.597h 6.5248" fill="none" stroke="black"/>
<path d="M504.141,240.267h 6.5248" fill="none" stroke="black"/>
<path d="M504.141,238.249h 6.5248" fill="none" stroke="black"/>
<path d="M504.141,236.469h 6.5248" fill="none" stroke="black"/>
<path d="M497.616,234.877h 13.0496" fill="none" stroke="black"/>
<path d="M504.141,224.401h 6.5248" fill="none" stroke="black"/>
<path d="M504.141,218.273h 6.5248" fill="none" stroke="black"/>
<path d="M504.141,213.926h 6.5248" fill="none" stroke="black"/>
<path d="M504.141,210.553h 6.5248" fill="none" stroke="black"/>
<path d="M504.141,207.798h 6.5248" fill="none" stroke="black"/>
<path d="M504.141,205.468h 6.5248" fill="none" stroke="black"/>
<path d="M504.141,203.45h 6.5248" fill="none" stroke="black"/>
<path d="M504.141,201.67h 6.5248" fill="none" stroke="black"/>
<path d="M497.616,200.078h 13.0496" fill="none" stroke="black"/>
<path d="M504.141,189.603h 6.5248" fill="none" stroke="black"/>
<path d="M504.141,183.475h 6.5248" fill="none" stroke="black"/>
<path d="M504.141,179.127h 6.5248" fill="none" stroke="black"/>
<path d="M504.141,175.755h 6.5248" fill="none" stroke="black"/>
<path d="M504.141,172.999h 6.5248" fill="none" stroke="black"/>
<path d="M504.141,170.67h 6.5248" fill="none" stroke="black"/>
<path d="M504.141,168.652h 6.5248" fill="none" stroke="black"/>
<path d="M504.141,166.872h 6.5248" fill="none" stroke="black"/>
<path d="M497.616,165.279h 13.0496" fill="none" stroke="black"/>
<path d="M504.141,154.804h 6.5248" fill="none" stroke="black"/>
<path d="M504.141,148.676h 6.5248" fill="none" stroke="black"/>
<path d="M504.141,144.329h 6.5248" fill="none" stroke="black"/>
<path d="M504.141,140.956h 6.5248" fill="none" stroke="black"/>
<path d="M504.141,138.201h 6.5248" fill="none" stroke="black"/>
<path d="M504.141,135.871h 6.5248" fill="none" stroke="black"/>
<path d="M504.141,133.853h 6.5248" fill="none" stroke="black"/>
<path d="M504.141,132.073h 6.5248" fill="none" stroke="black"/>
<path d="M497.616,130.481h 13.0496" fill="none" stroke="black"/>
<path d="M504.141,120.005h 6.5248" fill="none" stroke="black"/>
<path d="M504.141,113.878h 6.5248" fill="none" stroke="black"/>
<path d="M504.141,109.53h 6.5248" fill="none" stroke="black"/>
<path d="M504.141,106.158h 6.5248" fill="none" stroke="black"/>
<path d="M504.141,103.402h 6.5248" fill="none" stroke="black"/>
<path d="M504.141,101.073h 6.5248" fill="none" stroke="black"/>
<path d="M504.141,99.0546h 6.5248" fill="none" stroke="black"/>
<path d="M504.141,97.2746h 6.5248" fill="none" stroke="black"/>
<path d="M497.616,95.6823h 13.0496" fill="none" stroke="black"/>
<path d="M504.141,85.2068h 6.5248" fill="none" stroke="black"/>
<path d="M504.141,79.0791h 6.5248" fill="none" stroke="black"/>
<path d="M504.141,74.7314h 6.5248" fill="none" stroke="black"/>
<path d="M504.141,71.3591h 6.5248" fill="none" stroke="black"/>
<path d="M504.141,68.6037h 6.5248" fill="none" stroke="black"/>
<path d="M504.141,66.2741h 6.5248" fill="none" stroke="black"/>
<path d="M504.141,64.256h 6.5248" fill="none" stroke="black"/>
<path d="M504.141,62.476h 6.5248" fill="none" stroke="black"/>
<path d="M497.616,60.8837h 13.0496" fill="none" stroke="black"/>
<path d="M504.141,50.4083h 6.5248" fill="none" stroke="black"/>
<path d="M504.141,44.2806h 6.5248" fill="none" stroke="black"/>
<path d="M504.141,39.9329h 6.5248" fill="none" stroke="black"/>
<path d="M504.141,36.5605h 6.5248" fill="none" stroke="black"/>
<path d="M504.141,33.8051h 6.5248" fill="none" stroke="black"/>
<path d="M504.141,31.4755h 6.5248" fill="none" stroke="black"/>
<path d="M57.1929,38.3108v -7.46952" fill="none" stroke="black"/>
<path d="M75.3318,38.3108v -7.46952" fill="none" stroke="black"/>
<path d="M93.4707,38.3108v -7.46952" fill="none" stroke="black"/>
<path d="M111.61,38.3108v -7.46952" fill="none" stroke="black"/>
<path d="M129.749,38.3108v -7.46952" fill="none" stroke="black"/>
<path d="M147.887,38.3108v -7.46952" fill="none" stroke="black"/>
<path d="M166.026,38.3108v -7.46952" fill="none" stroke="black"/>
<path d="M184.165,38.3108v -7.46952" fill="none" stroke="black"/>
<path d="M202.304,38.3108v -7.46952" fill="none" stroke="black"/>
<path d="M220.443,38.3108v -7.46952" fill="none" stroke="black"/>
<path d="M238.582,38.3108v -7.46952" fill="none" stroke="black"/>
<path d="M256.721,38.3108v -7.46952" fill="none" stroke="black"/>
<path d="M274.86,38.3108v -7.46952" fill="none" stroke="black"/>
<path d="M292.999,38.3108v -7.46952" fill="none" stroke="black"/>
<path d="M311.138,38.3108v -7.46952" fill="none" stroke="black"/>
<path d="M329.277,38.3108v -7.46952" fill="none" stroke="black"/>
<path d="M347.415,38.3108v -7.46952" fill="none" stroke="black"/>
<path d="M365.554,38.3108v -7.46952" fill="none" stroke="black"/>
<path d="M383.693,38.3108v -7.46952" fill="none" stroke="black"/>
<path d="M401.832,38.3108v -7.46952" fill="none" stroke="black"/>
<path d="M419.971,38.3108v -7.46952" fill="none" stroke="black"/>
<path d="M438.11,38.3108v -7.46952" fill="none" stroke="black"/>
<path d="M456.249,38.3108v -7.46952" fill="none" stroke="black"/>
<path d="M474.388,38.3108v -7.46952" fill="none" stroke="black"/>
<path d="M492.527,38.3108v -7.46952" fill="none" stroke="black"/>
<path d="M510.666,38.3108v -7.46952" fill="none" stroke="black"/></svg>
