<?xml version="1.0" standalone="no"?>
<svg width="567.429" height="311.778" viewBox="0 0 567.429 311.778" xmlns="http://www.w3.org/2000/svg" shape-rendering="crispEdges">
<title>
Yields/P1/run_0103/det3_Fit.svg
</title>
<desc>
Creator: ROOT Version 6.12/06
CreationDate: Mon Apr 15 10:29:02 2019</desc>
<defs>
</defs>
<rect x="0.5" y="0" width="566.929" height="311.278" fill="white"/>
<rect x="57.1929" y="31.1278" width="453.543" height="249.023" fill="white"/>
<rect x="57.1929" y="31.1278" width="453.543" height="249.023" fill="none" stroke="black"/>
<path d="M57.1929,40.7896h 0.181345v 228.882h 0.181345v 10.4791h 5.07765v -10.4791h 0.181345v 10.4791h 20.492v -10.4791h 0.36269v 10.4791h 0.181345v -10.4791h 0.181345v 10.4791h 0.906724v -10.4791h 0.181345v 10.4791h 1.6321v -10.4791h 0.181345v
 10.4791h 0.36269v -10.4791h 0.181345v 10.4791h 0.725379v -10.4791h 0.181345v 10.4791h 0.181345v -10.4791h 0.36269v -16.609h 0.181345v -23.2887h 0.181345v -13.4144h 0.181345v -16.9026h 0.181345v -6.12989h 0.181345v -8.78904h 0.181345v -4.34923h
 0.181345v -2.46918h 0.181345v -2.7391h 0.181345v -2.58745h 0.181345v -1.05437h 0.181345v -0.664156h 0.181345v -0.278981h 0.181345v -1.36145h 0.181345v -0.978134h 0.181345v -0.14502h 0.181345v -0.268218h 0.181345v -0.28095h 0.181345v -0.580227h
 0.181345v -0.0167329h 0.181345v -0.509742h 0.181345v -0.39892h 0.181345v -0.419329h 0.181345v -0.152402h 0.181345v 0.152402h 0.181345v -0.137231h 0.181345v 0.106627h 0.181345v -0.569999h 0.181345v -0.320436h 0.181345v 0.320436h 0.181345v -0.262678h
 0.181345v 0.0144741h 0.181345v 0.425892h 0.181345v -0.0446184h 0.181345v -0.639711h 0.181345v 0.157408h 0.181345v 0.188166h 0.181345v 0.398452h 0.181345v -0.942022h 0.181345v 0.155349h 0.181345v 0.38822h 0.181345v -0.444896h 0.181345v -0.596209h
 0.181345v 0.302099h 0.181345v 0.167362h 0.181345v -0.645177h 0.181345v -0.5282h 0.181345v 1.52811h 0.181345v -0.284452h 0.181345v -0.028153h 0.181345v 0.675866h 0.181345v -0.117196h 0.181345v -0.38896h 0.181345v 1.21366h 0.181345v -0.824696h
 0.181345v 0.93296h 0.181345v -0.169782h 0.181345v 0.154268h 0.181345v 1.15979h 0.181345v -1.08206h 0.181345v 0.426783h 0.181345v -0.581843h 0.181345v 0.533823h 0.181345v -0.929689h 0.181345v -2.12731h 0.181345v -1.45515h 0.181345v -2.26427h
 0.181345v -2.60934h 0.181345v -2.01553h 0.181345v -3.58405h 0.181345v -2.63828h 0.181345v -2.93382h 0.181345v -2.8348h 0.181345v -1.63904h 0.181345v -1.61908h 0.181345v -1.62572h 0.181345v -0.0859339h 0.181345v -0.211515h 0.181345v 1.21352h
 0.181345v 1.1238h 0.181345v 1.85659h 0.181345v 2.34216h 0.181345v 3.15287h 0.181345v 3.47814h 0.181345v 3.91522h 0.181345v 3.72699h 0.181345v 3.74623h 0.181345v 4.43934h 0.181345v 2.59293h 0.181345v 3.1797h 0.181345v 1.07231h 0.181345v 1.95612h
 0.181345v 1.35293h 0.181345v -1.47013h 0.181345v 2.57073h 0.181345v -1.00379h 0.181345v 0.393554h 0.181345v 1.31847h 0.181345v -1.38478h 0.36269v 0.166318h 0.181345v 0.719234h 0.181345v -0.139661h 0.181345v 0.60268h 0.181345v -0.87819h 0.181345v
 1.06012h 0.181345v -1.26351h 0.181345v 1.26351h 0.181345v -0.503986h 0.181345v 2.24809h 0.181345v -3.2083h 0.181345v 2.40821h 0.181345v 0.156666h 0.181345v -0.234395h 0.181345v -0.792895h 0.181345v -0.18281h 0.181345v 0.367857h 0.181345v -0.185047h
 0.181345v 0.259705h 0.181345v 0.610919h 0.181345v 0.0781303h 0.181345v -0.155859h 0.181345v 0.755073h 0.181345v -0.202388h 0.36269v 0.407523h 0.181345v -0.123414h 0.181345v 1.68876h 0.36269v -1.10401h 0.181345v 1.19591h 0.181345v -0.274053h
 0.181345v -0.533638h 0.181345v 1.27578h 0.181345v -0.282591h 0.181345v 0.913618h 0.181345v 0.452825h 0.181345v -1.826h 0.181345v -0.533638h 0.181345v 2.51364h 0.181345v -1.65979h 0.181345v 0.0927499h 0.181345v 1.15979h 0.181345v -0.639238h 0.181345v
 0.242673h 0.181345v -0.809671h 0.181345v 1.40849h 0.181345v -2.221h 0.181345v 1.86882h 0.181345v 0.250722h 0.36269v 0.724983h 0.181345v -0.674336h 0.181345v 0.621383h 0.181345v -1.02189h 0.181345v 0.969119h 0.181345v -0.969119h 0.181345v 1.55996h
 0.181345v -0.748048h 0.181345v -0.155592h 0.181345v 0.260216h 0.181345v -0.156666h 0.181345v -1.43619h 0.181345v 3.4327h 0.181345v -1.03118h 0.181345v -0.913276h 0.181345v 1.53505h 0.181345v 0.58833h 0.181345v 1.38104h 0.181345v -3.55646h 0.181345v
 2.11554h 0.181345v -1.2055h 0.181345v -0.488601h 0.181345v 0.767029h 0.181345v 0.169551h 0.181345v -0.392702h 0.181345v -1.01718h 0.181345v 1.18423h 0.181345v 1.2241h 0.181345v -0.941514h 0.181345v 0.404717h 0.181345v -0.743198h 0.181345v -0.331068h
 0.181345v 0.669549h 0.181345v -1.09999h 0.181345v 0.43044h 0.181345v -2.46245h 0.181345v 0.760824h 0.181345v -0.807128h 0.181345v -0.18381h 0.181345v -2.08711h 0.181345v 0.200244h 0.181345v -0.437087h 0.181345v -0.310127h 0.36269v -1.94181h
 0.181345v 1.2298h 0.181345v 2.94052h 0.181345v -2.6448h 0.181345v 1.12325h 0.181345v 1.52155h 0.181345v 2.77417h 0.181345v -1.95183h 0.181345v -0.0936113h 0.181345v 3.56133h 0.181345v 0.298199h 0.181345v 0.36578h 0.181345v 0.501894h 0.181345v
 -0.927787h 0.181345v -0.472482h 0.181345v -0.230816h 0.181345v 1.95345h 0.181345v 0.0653054h 0.181345v -1.1344h 0.181345v 0.87485h 0.181345v 0.129216h 0.181345v -0.320993h 0.181345v 0.916534h 0.181345v -0.595541h 0.181345v 0.0650245h 0.181345v
 0.734361h 0.181345v 1.50948h 0.181345v -2.17853h 0.181345v 0.532854h 0.181345v -1.36058h 0.181345v 0.697398h 0.181345v -1.83105h 0.181345v 3.04656h 0.181345v 0.57327h 0.181345v -1.05765h 0.181345v 0.136817h 0.181345v 0.277406h 0.181345v -0.949435h
 0.181345v 0.399623h 0.181345v -1.59961h 0.181345v 1.53227h 0.181345v -0.463175h 0.181345v -0.51253h 0.181345v 0.254093h 0.181345v 0.0641962h 0.36269v 1.06604h 0.181345v 0.0691909h 0.181345v -1.32701h 0.181345v 0.12758h 0.181345v -0.316955h 0.181345v
 0.381151h 0.181345v 0.129216h 0.181345v -1.36404h 0.181345v -1.78725h 0.181345v 0.979217h 0.181345v -1.29202h 0.181345v 1.06887h 0.181345v -0.861054h 0.181345v 1.19703h 0.181345v -0.0565166h 0.181345v -1.60414h 0.181345v 1.38016h 0.181345v 0.916534h
 0.181345v -2.04088h 0.181345v 3.33488h 0.181345v 0.457172h 0.181345v -1.08719h 0.181345v -1.12919h 0.181345v 1.44092h 0.181345v -1.09336h 0.181345v 1.21987h 0.181345v 3.4851h 0.181345v -1.44819h 0.181345v 0.975705h 0.181345v 0.472482h 0.181345v
 0.160833h 0.181345v -2.59381h 0.181345v 4.03472h 0.181345v -2.2285h 0.181345v 0.787583h 0.181345v -0.477456h 0.181345v -1.49068h 0.181345v 1.33482h 0.181345v -1.47612h 0.181345v 0.212437h 0.181345v -0.282591h 0.181345v 2.26065h 0.181345v -1.54401h
 0.181345v -1.13086h 0.181345v 2.43297h 0.181345v -3.54849h 0.181345v 3.46871h 0.181345v -1.36841h 0.181345v 1.05343h 0.181345v -1.26993h 0.181345v 1.82551h 0.181345v -1.31545h 0.181345v -0.58154h 0.181345v 1.34141h 0.181345v -0.231997h 0.181345v
 0.154268h 0.181345v -2.6266h 0.181345v 1.08033h 0.181345v 0.570565h 0.181345v 0.668726h 0.181345v 2.56013h 0.181345v -3.58797h 0.181345v 0.952064h 0.181345v -0.446875h 0.181345v -1.40083h 0.181345v 1.11009h 0.181345v -0.143301h 0.181345v -0.559997h
 0.181345v 0.488852h 0.181345v 0.0711445h 0.181345v 0.143301h 0.181345v -1.11009h 0.181345v -1.46522h 0.181345v 0.619684h 0.181345v 0.845538h 0.181345v 0.966788h 0.181345v -0.141956h 0.181345v -0.140635h 0.181345v -1.90459h 0.181345v 1.76525h
 0.181345v 0.350786h 0.181345v 0.359119h 0.181345v -0.42993h 0.181345v -0.140635h 0.181345v -0.48217h 0.181345v -0.7924h 0.181345v 0.523626h 0.181345v -0.587822h 0.181345v -0.190969h 0.181345v 0.845538h 0.181345v 0.067043h 0.181345v 2.55613h
 0.181345v -1.22234h 0.181345v -1.6002h 0.181345v -0.834761h 0.181345v -0.791071h 0.181345v 0.604808h 0.181345v -0.663979h 0.181345v 2.36003h 0.181345v -2.47769h 0.181345v 2.27199h 0.181345v -0.202932h 0.181345v 0.547324h 0.181345v -1.07552h
 0.181345v 1.42795h 0.181345v -1.36292h 0.181345v 0.329385h 0.181345v 0.611605h 0.181345v 0.565231h 0.181345v 1.27624h 0.181345v -1.70213h 0.181345v 0.716636h 0.181345v 1.30212h 0.181345v -2.70295h 0.181345v 2.15314h 0.181345v 0.390672h 0.181345v
 -0.157482h 0.181345v -0.837998h 0.36269v 0.223977h 0.181345v 1.75249h 0.181345v -2.05039h 0.181345v 1.55194h 0.181345v -3.35717h 0.181345v 0.945194h 0.181345v 1.77196h 0.181345v 0.157482h 0.181345v -0.235613h 0.181345v 0.718149h 0.181345v -0.795877h
 0.181345v 0.0777286h 0.181345v 2.0857h 0.181345v -1.53011h 0.181345v 1.35225h 0.181345v 0.911009h 0.181345v 0.0941946h 0.181345v 0.775461h 0.181345v 1.13569h 0.181345v -3.85887h 0.181345v 1.48251h 0.181345v 0.465212h 0.181345v 0.775461h 0.181345v
 -2.21638h 0.181345v 2.01875h 0.181345v -0.387667h 0.181345v 0.0959888h 0.181345v -0.659464h 0.181345v 2.8303h 0.181345v -1.17586h 0.181345v -0.305428h 0.181345v -0.29938h 0.181345v 0.604808h 0.181345v 0.630015h 0.181345v -2.37636h 0.181345v 2.59234h
 0.181345v -0.108375h 0.181345v 0.327482h 0.181345v -0.753375h 0.181345v 0.643424h 0.181345v -1.95013h 0.181345v 0.193825h 0.181345v 1.21823h 0.181345v 0.428913h 0.181345v -1.4508h 0.181345v -0.196343h 0.181345v 0.295479h 0.181345v 1.57077h 0.181345v
 -0.648021h 0.181345v -0.41708h 0.181345v 1.17586h 0.181345v 0.798882h 0.181345v -1.97474h 0.181345v -0.898374h 0.181345v 2.07423h 0.181345v -0.110756h 0.181345v -0.753375h 0.181345v 0.211447h 0.181345v 0.764259h 0.181345v -0.332281h 0.181345v
 -0.643424h 0.181345v -0.20853h 0.181345v 2.46918h 0.181345v -0.830226h 0.181345v 2.50459h 0.181345v -1.55194h 0.181345v -2.17162h 0.181345v 0.32282h 0.181345v -0.845993h 0.181345v 1.17586h 0.181345v 0.682139h 0.181345v 0.592946h 0.181345v -3.63729h
 0.181345v 2.69943h 0.181345v 0.697886h 0.181345v -1.89924h 0.181345v 1.31545h 0.181345v 0.34756h 0.181345v -1.66301h 0.181345v -1.59286h 0.181345v 2.56856h 0.181345v -1.08033h 0.181345v 0.968756h 0.181345v -0.758778h 0.181345v 1.55766h 0.181345v
 -1.45157h 0.181345v 0.541928h 0.181345v -1.2694h 0.181345v 2.53478h 0.181345v -1.70046h 0.181345v -1.13569h 0.181345v 1.24329h 0.181345v 0.662216h 0.181345v 0.458162h 0.181345v 0.714378h 0.181345v -2.26065h 0.181345v 2.88288h 0.181345v -3.70028h
 0.181345v 3.57377h 0.181345v -2.86099h 0.181345v 0.857999h 0.181345v 0.447979h 0.181345v 0.229068h 0.181345v -1.63895h 0.181345v 3.60832h 0.181345v -3.29444h 0.181345v 0.320539h 0.181345v 2.33048h 0.181345v -1.44092h 0.181345v 1.31545h 0.181345v
 -2.83944h 0.181345v -0.904347h 0.181345v -0.0972234h 0.181345v 1.63599h 0.181345v 0.217532h 0.181345v -0.109157h 0.181345v 0.329864h 0.181345v -2.9222h 0.181345v 1.04305h 0.181345v 0.703298h 0.181345v -0.405882h 0.181345v -1.15609h 0.181345v
 0.471009h 0.181345v -2.22073h 0.181345v 1.20322h 0.181345v -0.699231h 0.181345v -1.77117h 0.181345v -0.37516h 0.181345v 1.64235h 0.181345v -1.26719h 0.181345v 0.541374h 0.181345v -1.71051h 0.181345v 1.63197h 0.181345v -1.20407h 0.181345v -1.11521h
 0.181345v 3.97319h 0.181345v -0.430747h 0.181345v -0.501201h 0.181345v -1.03209h 0.181345v -2.0762h 0.181345v 0.754351h 0.181345v 1.39878h 0.181345v -0.0769375h 0.181345v 0.868646h 0.181345v -2.39999h 0.181345v 1.22745h 0.181345v 0.151183h 0.181345v
 0.384707h 0.181345v 0.156666h 0.181345v 1.66301h 0.181345v -1.42493h 0.181345v 0.737619h 0.181345v -2.33048h 0.181345v 0.364311h 0.181345v -1.06761h 0.181345v -0.339749h 0.181345v -0.266407h 0.181345v -0.897104h 0.181345v 0.0623431h 0.181345v
 -3.59677h 0.181345v -0.579682h 0.181345v -0.603879h 0.181345v -2.12086h 0.181345v -1.99895h 0.181345v -0.034635h 0.181345v -1.45035h 0.181345v -3.16465h 0.181345v -0.177416h 0.181345v -1.09336h 0.181345v -0.909639h 0.181345v -0.17554h 0.181345v
 -1.09386h 0.181345v 0.0406403h 0.181345v -0.617968h 0.181345v -1.00132h 0.181345v 0.370109h 0.181345v -0.855803h 0.181345v 0.467425h 0.181345v 0.767775h 0.181345v 0.768386h 0.181345v 0.409732h 0.181345v 2.06629h 0.181345v -0.0712563h 0.181345v
 1.86383h 0.181345v 0.940007h 0.181345v 3.40922h 0.181345v 0.179766h 0.181345v 1.36156h 0.181345v 1.98487h 0.181345v 3.09407h 0.181345v 2.39522h 0.181345v 0.936824h 0.181345v 1.44782h 0.181345v 1.51708h 0.181345v -0.495722h 0.181345v 1.35985h
 0.181345v 2.19767h 0.181345v -0.801151h 0.181345v 2.5433h 0.181345v -1.53505h 0.181345v 0.748048h 0.181345v 2.88841h 0.181345v -2.55613h 0.181345v 0.570565h 0.181345v 2.66362h 0.181345v -2.54688h 0.181345v -0.798882h 0.181345v 2.8009h 0.181345v
 -1.28197h 0.181345v -0.122415h 0.181345v 0.495722h 0.181345v 0.254093h 0.181345v 1.62136h 0.181345v -0.832404h 0.181345v -1.78067h 0.181345v 0.864131h 0.181345v 1.32701h 0.181345v -1.70341h 0.181345v 0.249893h 0.181345v 3.37352h 0.181345v -1.2101h
 0.181345v -1.38796h 0.181345v 0.678059h 0.181345v 1.00347h 0.181345v -3.31412h 0.181345v -0.118575h 0.181345v 2.99446h 0.181345v -1.37533h 0.36269v -0.893317h 0.181345v -0.487726h 0.181345v 0.241896h 0.181345v 4.34923h 0.181345v -1.97806h 0.181345v
 -1.36292h 0.181345v 2.09341h 0.181345v -1.29049h 0.181345v 0.847971h 0.181345v -1.25476h 0.181345v 0.406792h 0.181345v 1.14154h 0.181345v 2.06116h 0.181345v -6.07317h 0.181345v 5.40852h 0.181345v -2.12001h 0.181345v -0.690448h 0.181345v 0.690448h
 0.181345v -0.140635h 0.181345v 0.716636h 0.181345v -2.18298h 0.181345v 0.916534h 0.181345v -0.788954h 0.181345v 1.4794h 0.181345v 1.17482h 0.181345v 0.783501h 0.36269v -1.67306h 0.181345v -1.50622h 0.181345v 5.61736h 0.181345v -3.37352h 0.181345v
 0.151943h 0.181345v 0.623519h 0.181345v -2.07831h 0.181345v 2.07831h 0.181345v 0.321676h 0.181345v -0.321676h 0.181345v -3.78172h 0.181345v 3.62342h 0.181345v 0.643424h 0.36269v 0.67203h 0.181345v -0.339749h 0.181345v -1.89224h 0.181345v 4.85154h
 0.181345v -3.93501h 0.181345v -1.49807h 0.181345v 2.47378h 0.181345v 0.864131h 0.181345v -2.15156h 0.181345v 3.0681h 0.181345v -1.44092h 0.181345v -0.997164h 0.181345v -2.37636h 0.181345v 2.86672h 0.181345v -0.328669h 0.181345v -0.791709h 0.181345v
 1.28743h 0.181345v -1.28743h 0.181345v 2.88029h 0.181345v -3.92334h 0.181345v 3.73784h 0.181345v -1.57441h 0.181345v -3.00354h 0.181345v 1.27835h 0.181345v -0.864131h 0.181345v -2.08858h 0.181345v -3.17718h 0.181345v -0.486157h 0.181345v -1.63108h
 0.181345v 0.884356h 0.181345v -2.81696h 0.181345v -1.71332h 0.181345v -1.29294h 0.181345v -1.58666h 0.181345v -1.28288h 0.181345v -2.36704h 0.181345v -0.685361h 0.181345v -1.36075h 0.181345v -1.7679h 0.181345v -1.14711h 0.181345v -1.3863h 0.181345v
 -0.50965h 0.181345v -1.45862h 0.181345v -0.740026h 0.181345v -1.83407h 0.181345v 0.432595h 0.181345v -0.347061h 0.181345v -0.732512h 0.181345v 0.561924h 0.181345v -0.521009h 0.181345v -0.0204715h 0.181345v 1.50447h 0.181345v -0.246558h 0.181345v
 0.405579h 0.181345v 1.94715h 0.181345v 0.772727h 0.181345v 1.767h 0.181345v 0.563476h 0.181345v 1.50804h 0.181345v 2.40112h 0.181345v 1.88949h 0.181345v 0.475454h 0.181345v 3.95199h 0.181345v 1.79636h 0.181345v 1.79834h 0.181345v 3.8792h 0.181345v
 0.845993h 0.181345v 0.219108h 0.181345v 0.909639h 0.181345v 3.84973h 0.181345v 1.93261h 0.181345v 4.34923h 0.181345v 0.465212h 0.181345v 1.2298h 0.181345v 3.11943h 0.181345v -5.04179h 0.181345v 3.54371h 0.181345v 0.287974h 0.181345v -1.12038h
 0.181345v 5.08685h 0.181345v -4.53704h 0.181345v 0.282591h 0.181345v 2.47378h 0.181345v -5.32493h 0.181345v 3.4327h 0.181345v 2.57955h 0.181345v -3.44368h 0.181345v -0.549813h 0.181345v 3.99349h 0.181345v 4.00167h 0.181345v -2.52555h 0.181345v
 -2.49571h 0.181345v 1.73964h 0.181345v -2.38306h 0.181345v 0.318289h 0.181345v 0.997164h 0.181345v 3.45967h 0.181345v -8.64437h 0.181345v 6.25231h 0.181345v -1.06761h 0.181345v -0.997164h 0.181345v -2.09895h 0.181345v 0.864131h 0.181345v 1.55996h
 0.181345v -1.26058h 0.181345v -0.88092h 0.181345v 2.47378h 0.181345v -4.59912h 0.181345v 0.503986h 0.181345v 4.43489h 0.181345v -0.67203h 0.181345v 1.37533h 0.181345v -4.34923h 0.181345v 4.34923h 0.181345v -3.79942h 0.181345v 1.16351h 0.181345v
 -4.42463h 0.181345v 5.68521h 0.181345v -0.643424h 0.181345v -1.49807h 0.181345v 1.18635h 0.181345v -0.898374h 0.181345v -0.847971h 0.181345v 3.72108h 0.36269v -4.26108h 0.181345v 0.267585h 0.181345v 1.71332h 0.181345v -3.49399h 0.181345v 3.49399h
 0.181345v -1.16351h 0.181345v -2.08858h 0.181345v 4.84495h 0.181345v -5.08685h 0.181345v 6.49421h 0.181345v -5.50249h 0.181345v -2.79902h 0.181345v 4.42037h 0.181345v 2.47378h 0.181345v -2.18581h 0.181345v -1.38796h 0.181345v 0.267585h 0.181345v
 -0.788954h 0.181345v 2.80771h 0.181345v -2.54927h 0.181345v 3.50442h 0.181345v -1.26058h 0.181345v -3.73208h 0.181345v 4.0375h 0.181345v -3.0618h 0.181345v 5.75659h 0.181345v -9.91565h 0.181345v 6.32249h 0.181345v 0.592946h 0.181345v -1.16351h
 0.181345v 2.09895h 0.181345v -3.94171h 0.181345v 4.59912h 0.181345v -3.03378h 0.181345v 3.72108h 0.181345v -0.687308h 0.181345v -3.30618h 0.181345v 2.01875h 0.181345v -0.898374h 0.181345v 2.18581h 0.181345v -2.18581h 0.181345v 1.52839h 0.181345v
 -3.94171h 0.181345v 3.00626h 0.181345v 0.617154h 0.181345v -2.05807h 0.181345v 2.37636h 0.181345v 0.997164h 0.181345v 2.61955h 0.181345v -3.29158h 0.181345v 3.29158h 0.181345v -4.55216h 0.181345v 1.93261h 0.181345v -1.62718h 0.181345v -0.305428h
 0.181345v 2.28017h 0.181345v -3.16109h 0.181345v -0.282591h 0.181345v 3.44368h 0.181345v 1.86882h 0.181345v -2.88841h 0.181345v -2.9739h 0.181345v 1.41394h 0.181345v 1.89224h 0.181345v -1.59286h 0.181345v -2.24384h 0.181345v 4.52401h 0.181345v
 -1.01959h 0.181345v -0.643424h 0.181345v 3.93501h 0.181345v -5.71567h 0.181345v 0.570565h 0.181345v -4.4939h 0.181345v 8.46037h 0.181345v -1.44092h 0.181345v 3.45967h 0.181345v -3.11211h 0.181345v -0.687308h 0.181345v -1.28743h 0.181345v 0.630015h
 0.181345v 4.03094h 0.181345v -4.34923h 0.181345v 5.66468h 0.181345v -5.34639h 0.181345v 0.997164h 0.181345v -2.81353h 0.181345v 0.58154h 0.181345v 1.89224h 0.181345v 0.339749h 0.181345v 2.21638h 0.181345v -1.51308h 0.181345v -0.355738h 0.36269v
 -0.34756h 0.181345v -0.339749h 0.36269v 3.37352h 0.181345v 2.26065h 0.181345v -8.10795h 0.181345v 3.88114h 0.181345v 2.8303h 0.181345v -3.89791h 0.181345v 1.44092h 0.181345v 0.775461h 0.181345v 3.07805h 0.181345v -3.47075h 0.181345v -0.382759h
 0.181345v -1.44092h 0.181345v 11.92h 0.181345v -9.70366h 0.181345v 0.817398h 0.181345v 3.2689h 0.181345v -2.40477h 0.181345v -2.8303h 0.181345v 1.14877h 0.181345v 0.403175h 0.181345v 2.19489h 0.181345v -1.35477h 0.181345v 3.92334h 0.181345v
 -2.56856h 0.181345v -1.78067h 0.181345v 4.34923h 0.181345v -3.03378h 0.181345v 1.95345h 0.181345v -4.479h 0.181345v 6.12989h 0.181345v 7.33999h 0.181345v -6.74705h 0.181345v -2.75637h 0.181345v 3.37352h 0.181345v 0.643424h 0.181345v -2.42409h
 0.181345v 8.88626h 0.181345v -9.43608h 0.181345v 1.71332h 0.181345v 1.26058h 0.181345v -1.85352h 0.181345v -1.12038h 0.181345v 1.12038h 0.181345v 0.592946h 0.181345v -1.16351h 0.181345v 13.5752h 0.181345v -7.44535h 0.181345v -2.33048h 0.181345v
 -0.703298h 0.181345v -0.67203h 0.181345v 2.11295h 0.181345v -2.75637h 0.181345v 4.34923h 0.181345v -1.59286h 0.36269v 0.775461h 0.181345v -0.775461h 0.544034v -2.75637h 0.181345v 4.34923h 0.181345v 2.75637h 0.181345v -4.34923h 0.181345v -4.53704h
 0.181345v 8.88626h 0.181345v -5.08685h 0.36269v 6.12989h 0.181345v -7.50522h 0.181345v 2.11295h 0.181345v -2.11295h 0.181345v 6.46218h 0.181345v 2.16342h 0.181345v -2.16342h 0.181345v -0.975705h 0.181345v 7.1056h 0.181345v -5.08685h 0.181345v
 3.64593h 0.181345v -8.26275h 0.181345v 2.59806h 0.181345v 0.975705h 0.181345v 3.37352h 0.181345v 6.12989h 0.181345v -8.46037h 0.181345v 1.12038h 0.181345v -2.16342h 0.181345v 9.50342h 0.181345v -10.4791h 0.181345v -0.916534h 0.181345v -0.864131h
 0.181345v 14.2785h 0.181345v -13.4144h 0.181345v 18.5013h 0.181345v -7.1056h 0.181345v -15.9656h 0.181345v 12.5921h 0.181345v -1.44092h 0.36269v -7.44535h 0.181345v 0.864131h 0.181345v -4.56994h 0.181345v 2.88841h 0.181345v -0.775461h 0.181345v
 -3.37352h 0.181345v 4.14899h 0.181345v -4.14899h 0.181345v 2.63591h 0.181345v -5.39228h 0.181345v 1.59286h 0.181345v -3.4851h 0.181345v 7.28452h 0.181345v -0.703298h 0.181345v -5.66468h 0.181345v -0.465212h 0.181345v -0.451322h 0.181345v -2.8303h
 0.181345v -0.720049h 0.181345v 1.86882h 0.181345v 1.24329h 0.181345v 2.84301h 0.181345v -0.51253h 0.181345v -1.44092h 0.181345v 1.44092h 0.181345v -5.79015h 0.181345v 5.29442h 0.181345v -0.479983h 0.181345v -0.916534h 0.181345v 5.90919h 0.181345v
 -6.34743h 0.181345v 2.33048h 0.181345v 4.01695h 0.36269v 0.67203h 0.181345v -3.64593h 0.181345v 6.67971h 0.181345v -3.03378h 0.181345v -4.68898h 0.181345v 0.51253h 0.181345v 5.61736h 0.181345v 1.59286h 0.181345v -3.70581h 0.181345v 3.70581h
 0.181345v 4.91979h 0.181345v 3.96647h 0.181345v -5.08685h 0.181345v -10.4791h 0.181345v 5.86231h 0.181345v -1.51308h 0.181345v -0.703298h 0.181345v 6.83319h 0.181345v -9.92931h 0.181345v -4.34923h 0.181345v 1.78067h 0.181345v 6.36798h 0.181345v
 -7.28452h 0.181345v -6.12989h 0.181345v 4.85154h 0.181345v 0.414223h 0.181345v -2.33048h 0.181345v -3.79942h 0.181345v -3.4851h 0.181345v 2.14633h 0.181345v -2.58457h 0.181345v -4.93179h 0.181345v 3.1032h 0.181345v -3.56369h 0.181345v -0.150431h
 0.181345v 1.74329h 0.181345v -1.89224h 0.181345v -3.89791h 0.181345v 3.60434h 0.181345v -4.38553h 0.181345v -1.35166h 0.181345v 0.403175h 0.181345v -0.502311h 0.181345v -1.41394h 0.181345v -0.703298h 0.181345v 0.259918h 0.181345v -0.515442h
 0.181345v -0.0842241h 0.181345v -0.975705h 0.181345v 0.318289h 0.181345v 1.79072h 0.181345v -3.09947h 0.181345v 0.52525h 0.181345v 0.0765479h 0.181345v -1.32185h 0.181345v -0.0701541h 0.181345v -0.549813h 0.36269v -0.267585h 0.181345v -0.132037h
 0.36269v -2.02697h 0.181345v 2.02697h 0.181345v 0.67203h 0.181345v -1.68876h 0.181345v -0.424185h 0.181345v 0.0598741h 0.181345v -0.530517h 0.181345v 0.29243h 0.181345v -2.34734h 0.181345v 1.15542h 0.181345v 1.97982h 0.181345v -1.13814h 0.181345v
 2.43664h 0.181345v -2.72243h 0.181345v 0.754615h 0.181345v 1.90018h 0.181345v -0.333748h 0.181345v -0.959191h 0.181345v 4.43207h 0.181345v -1.72519h 0.181345v 2.84556h 0.181345v 2.31558h 0.181345v -2.0448h 0.181345v 1.23289h 0.181345v 3.17718h
 0.181345v 0.622235h 0.181345v 2.03691h 0.181345v 4.94218h 0.181345v -1.89224h 0.181345v 5.26576h 0.181345v -1.66826h 0.181345v 2.71131h 0.181345v 1.12038h 0.181345v -0.847971h 0.181345v 6.83319h 0.181345v -2.75637h 0.181345v 10.4791h 0.181345v
 -2.63591h 0.181345v -1.16351h 0.181345v 6.99403h 0.181345v 6.58122h 0.181345v -6.58122h 0.181345v 8.02213h 0.181345v -3.96647h 0.181345v 9.35875h 0.36269v 2.33048h 0.181345v -2.33048h 0.36269v 5.08685h 0.181345v -5.08685h 0.181345v -3.79942h
 0.181345v 6.12989h 0.181345v -4.34923h 0.181345v 2.01875h 0.181345v -2.01875h 0.181345v -1.78067h 0.181345v 6.12989h 0.181345v 6.12989h 0.181345v -8.46037h 0.181345v 8.46037h 0.181345v 4.34923h 0.181345v 6.12989h 0.181345v -6.12989h 0.181345v
 -7.72275h 0.36269v 24.3318h 0.181345v -29.4186h 0.181345v 12.8096h 0.181345v -4.34923h 0.36269v 4.34923h 0.181345v -7.72275h 0.181345v 13.8526h 0.181345v -10.4791h 0.181345v 20.9582h 0.181345v -24.3318h 0.181345v 3.37352h 0.181345v -3.37352h
 0.181345v 34.8109h 0.181345v -34.8109h 0.181345v 3.37352h 0.181345v -3.37352h 0.181345v 3.37352h 0.181345v 4.34923h 0.181345v 27.0881h 0.181345v -37.5673h 0.181345v 6.12989h 0.181345v -6.12989h 0.181345v 10.4791h 0.181345v -10.4791h 0.181345v
 16.609h 0.181345v -10.4791h 0.181345v -6.12989h 0.181345v 16.609h 0.36269v -6.12989h 0.181345v 6.12989h 0.181345v -6.12989h 0.181345v 6.12989h 0.181345v -13.8526h 0.36269v -2.75637h 0.181345v 27.0881h 0.181345v -24.3318h 0.181345v 24.3318h 0.181345v
 -20.9582h 0.181345v -3.37352h 0.181345v -2.75637h 0.181345v 10.4791h 0.181345v -4.34923h 0.181345v -10.4791h 0.181345v 2.01875h 0.544034v 12.8096h 0.181345v -18.2019h 0.181345v 13.8526h 0.181345v -3.37352h 0.36269v -2.75637h 0.181345v 27.0881h
 0.181345v -31.4374h 0.181345v 2.01875h 0.181345v -5.39228h 0.181345v -8.02213h 0.181345v 11.3957h 0.36269v -6.12989h 0.181345v 10.4791h 0.181345v -9.16367h 0.181345v 3.03378h 0.181345v -6.67971h 0.181345v -1.04305h 0.36269v 1.04305h 0.36269v
 -1.04305h 0.181345v 1.04305h 0.36269v 1.12038h 0.181345v -4.05566h 0.181345v -1.68153h 0.181345v 3.57377h 0.181345v -2.75637h 0.181345v 3.79942h 0.181345v -2.93529h 0.181345v 6.58122h 0.181345v -6.58122h 0.181345v 1.89224h 0.181345v 1.04305h
 0.181345v 1.12038h 0.181345v -4.91979h 0.36269v -0.817398h 0.181345v 0.817398h 0.181345v 4.91979h 0.181345v -4.05566h 0.181345v 2.93529h 0.181345v 2.33048h 0.181345v 6.12989h 0.181345v 4.34923h 0.181345v -7.72275h 0.181345v 3.37352h 0.36269v
 -4.81444h 0.36269v 1.44092h 0.181345v 13.8526h 0.181345v -3.37352h 0.181345v 13.8526h 0.181345v -10.4791h 0.181345v 4.34923h 0.181345v -4.34923h 0.181345v -6.12989h 0.181345v 6.12989h 0.181345v -3.37352h 0.181345v -5.08685h 0.181345v 18.9395h
 0.181345v 20.9582h 0.181345v -31.4374h 0.181345v 4.34923h 0.181345v 16.609h 0.181345v -10.4791h 0.181345v -10.4791h 0.36269v 10.4791h 0.181345v -10.4791h 0.181345v 10.4791h 0.36269v -6.12989h 0.181345v -4.34923h 0.36269v -6.12989h 0.181345v 10.4791h
 0.181345v -10.4791h 0.181345v 27.0881h 0.181345v -29.4186h 0.181345v 5.08685h 0.181345v 24.3318h 0.181345v -16.609h 0.181345v 16.609h 0.181345v -24.3318h 0.36269v 3.37352h 0.181345v 4.34923h 0.181345v 6.12989h 0.181345v -13.8526h 0.181345v 7.72275h
 0.36269v 6.12989h 0.544034v -13.8526h 0.181345v 3.37352h 0.181345v 10.4791h 0.181345v -18.9395h 0.181345v 12.8096h 0.36269v 6.12989h 0.181345v -16.609h 0.36269v 2.75637h 0.181345v 3.37352h 0.181345v -6.12989h 0.181345v 16.609h 0.181345v -16.609h
 0.181345v 10.4791h 0.36269v -7.72275h 0.544034v 3.37352h 0.36269v 4.34923h 0.181345v -16.609h 0.181345v 3.79942h 0.181345v -5.39228h 0.181345v 5.39228h 0.181345v 2.33048h 0.181345v -2.33048h 0.181345v 12.8096h 0.181345v -12.8096h 0.181345v -5.39228h
 0.181345v 5.39228h 0.181345v -3.79942h 0.181345v 3.79942h 0.181345v -3.79942h 0.181345v 6.12989h 0.181345v -9.16367h 0.181345v 15.2936h 0.181345v -15.2936h 0.181345v 1.44092h 0.36269v -3.96647h 0.181345v 11.6892h 0.181345v 2.75637h 0.181345v
 -13.2355h 0.181345v 1.31545h 0.181345v -4.68898h 0.181345v 6.12989h 0.181345v -6.12989h 0.181345v 9.50342h 0.181345v 7.1056h 0.181345v 3.37352h 0.181345v -12.2598h 0.181345v 3.79942h 0.181345v 5.08685h 0.181345v 3.37352h 0.181345v -6.12989h
 0.181345v -2.33048h 0.181345v 2.33048h 0.181345v -2.33048h 0.36269v 2.33048h 0.181345v 6.12989h 0.181345v -3.37352h 0.181345v 7.72275h 0.181345v -12.8096h 0.181345v 2.33048h 0.181345v 10.4791h 0.544034v -14.8284h 0.36269v 14.8284h 0.181345v
 -4.34923h 0.181345v -10.4791h 0.181345v 20.9582h 0.181345v -10.4791h 0.181345v 10.4791h 0.181345v -18.9395h 0.181345v 5.08685h 0.181345v -10.4791h 0.181345v 18.2019h 0.181345v -7.72275h 0.181345v -8.88626h 0.181345v 12.2598h 0.181345v -3.37352h
 0.181345v 13.8526h 0.36269v -20.9582h 0.181345v 4.34923h 0.181345v -2.33048h 0.181345v 8.46037h 0.181345v -10.4791h 0.181345v 7.1056h 0.181345v -5.08685h 0.181345v 29.4186h 0.181345v -33.218h 0.181345v 8.88626h 0.36269v 3.37352h 0.36269v -13.8526h
 0.181345v 10.4791h 0.36269v -11.92h 0.181345v 15.2936h 0.181345v -17.8191h 0.181345v 14.4456h 0.544034v -2.75637h 0.36269v -6.12989h 0.181345v 8.88626h 0.181345v -2.75637h 0.181345v -2.33048h 0.181345v 5.08685h 0.181345v -10.4791h 0.181345v 7.72275h
 0.181345v 16.609h 0.181345v -13.8526h 0.181345v -10.4791h 0.181345v 13.8526h 0.181345v -6.12989h 0.181345v -4.34923h 0.36269v -4.81444h 0.181345v 3.03378h 0.181345v 1.78067h 0.36269v 2.01875h 0.181345v -5.39228h 0.181345v 3.37352h 0.181345v
 -3.37352h 0.181345v 3.37352h 0.181345v 7.1056h 0.181345v -5.08685h 0.181345v -8.14865h 0.181345v -1.2101h 0.181345v 7.33999h 0.181345v 2.01875h 0.181345v -3.79942h 0.181345v -5.55933h 0.181345v 14.4456h 0.181345v -15.566h 0.181345v 2.33048h 0.36269v
 10.4791h 0.181345v -9.16367h 0.36269v -2.52555h 0.181345v 7.33999h 0.181345v -6.12989h 0.181345v -6.12989h 0.181345v 22.7389h 0.181345v -13.8526h 0.181345v -2.75637h 0.181345v 1.31545h 0.181345v 4.81444h 0.181345v -3.37352h 0.181345v -5.08685h
 0.181345v 10.4791h 0.181345v -6.83319h 0.181345v -4.68898h 0.181345v 19.9825h 0.181345v -19.9825h 0.181345v 6.12989h 0.181345v 3.37352h 0.181345v -10.4791h 0.181345v 2.01875h 0.181345v 1.12038h 0.181345v 3.96647h 0.181345v -3.96647h 0.181345v
 5.55933h 0.36269v 1.78067h 0.181345v -7.33999h 0.36269v 2.52555h 0.36269v 11.92h 0.181345v -11.92h 0.181345v -5.66468h 0.181345v -2.59806h 0.181345v -1.51308h 0.181345v 7.25027h 0.181345v -2.16342h 0.181345v 4.68898h 0.181345v -6.58122h 0.181345v
 0.916534h 0.181345v -1.78067h 0.181345v -0.817398h 0.181345v 0.817398h 0.181345v 8.88626h 0.181345v -6.12989h 0.181345v 6.12989h 0.181345v -5.08685h 0.181345v -5.39228h 0.181345v 0.775461h 0.181345v 8.26275h 0.181345v -4.68898h 0.181345v 1.04305h
 0.181345v -2.01875h 0.181345v 3.13913h 0.181345v 1.2101h 0.181345v -1.2101h 0.181345v 3.96647h 0.181345v -10.4791h 0.181345v 2.45699h 0.181345v 5.26576h 0.181345v -2.33048h 0.181345v 1.12038h 0.181345v -3.13913h 0.181345v 2.01875h 0.181345v
 -5.39228h 0.181345v 12.072h 0.181345v -5.55933h 0.181345v -2.16342h 0.181345v 1.04305h 0.181345v -2.93529h 0.181345v 4.05566h 0.181345v -2.16342h 0.181345v -3.57377h 0.181345v -3.53183h 0.181345v 3.53183h 0.181345v 5.73719h 0.181345v -6.51265h
 0.181345v 6.51265h 0.181345v -4.05566h 0.181345v -1.68153h 0.181345v -0.775461h 0.181345v -0.737619h 0.181345v 1.51308h 0.181345v -1.51308h 0.181345v -5.39228h 0.181345v -0.495722h 0.181345v 5.888h 0.181345v -6.36798h 0.181345v 3.73208h 0.181345v
 2.63591h 0.181345v 4.11114h 0.181345v -5.48647h 0.181345v -6.77332h 0.181345v 4.34923h 0.181345v -2.56856h 0.181345v 5.66468h 0.181345v 7.95357h 0.181345v -11.0497h 0.181345v 1.78067h 0.181345v -2.86099h 0.181345v 1.65089h 0.181345v 6.42346h
 0.181345v -2.45699h 0.181345v -5.61736h 0.181345v 4.17645h 0.181345v -4.17645h 0.181345v -1.48823h 0.181345v 2.56856h 0.181345v 3.79942h 0.181345v -6.36798h 0.181345v 4.99265h 0.181345v 0.67203h 0.181345v 2.21638h 0.181345v -3.53183h 0.181345v
 -1.2101h 0.181345v 7.33999h 0.181345v -5.48647h 0.181345v 2.88841h 0.181345v -1.51308h 0.181345v -0.703298h 0.181345v 3.89791h 0.181345v -0.864131h 0.181345v -2.33048h 0.181345v 0.737619h 0.181345v 6.51265h 0.181345v -7.95357h 0.181345v -5.1847h
 0.181345v 3.86925h 0.181345v 5.21336h 0.181345v -8.58689h 0.181345v 6.12989h 0.181345v 1.59286h 0.544034v 4.91979h 0.181345v -11.5995h 0.181345v 10.4791h 0.181345v -3.79942h 0.181345v -1.59286h 0.181345v -2.11295h 0.181345v 7.50522h 0.181345v
 3.64593h 0.181345v -8.26275h 0.181345v 4.61682h 0.181345v -4.61682h 0.181345v 13.0772h 0.181345v -13.8526h 0.181345v 6.51265h 0.181345v -3.13913h 0.181345v 8.69846h 0.181345v -12.8096h 0.181345v 6.12989h 0.181345v -2.01875h 0.181345v 2.01875h
 0.181345v -1.04305h 0.181345v 4.68898h 0.181345v -1.31545h 0.181345v -6.94729h 0.181345v 5.73719h 0.181345v -5.73719h 0.181345v 5.73719h 0.181345v 9.35875h 0.181345v -10.4791h 0.181345v 1.12038h 0.181345v -4.05566h 0.181345v 0.916534h 0.181345v
 -5.48647h 0.181345v 2.88841h 0.181345v -2.88841h 0.36269v 7.50522h 0.181345v -2.93529h 0.181345v 0.916534h 0.181345v 2.01875h 0.181345v 3.64593h 0.181345v -3.64593h 0.181345v 2.33048h 0.181345v -6.94729h 0.181345v 13.0772h 0.181345v -6.12989h
 0.181345v 2.75637h 0.181345v -8.02213h 0.181345v 6.58122h 0.181345v -9.03821h 0.181345v 4.34923h 0.181345v 1.04305h 0.181345v -5.39228h 0.181345v 9.03821h 0.181345v -1.31545h 0.181345v 1.31545h 0.181345v -4.68898h 0.181345v 6.12989h 0.181345v
 -8.02213h 0.181345v 0.916534h 0.181345v 5.66468h 0.181345v -1.31545h 0.181345v -6.94729h 0.181345v 5.73719h 0.181345v -3.13913h 0.181345v 3.13913h 0.181345v 2.52555h 0.181345v -6.58122h 0.181345v 8.02213h 0.181345v 3.37352h 0.181345v -10.4791h
 0.181345v 0.975705h 0.181345v -3.57377h 0.181345v 6.94729h 0.181345v -1.2101h 0.181345v 7.33999h 0.181345v -6.12989h 0.181345v -7.72275h 0.181345v 4.34923h 0.181345v 4.68898h 0.181345v -1.31545h 0.181345v -6.12989h 0.36269v 10.4791h 0.181345v
 -9.61499h 0.36269v 4.05566h 0.181345v 3.96647h 0.181345v -11.2167h 0.181345v 7.25027h 0.181345v -4.91979h 0.181345v 2.75637h 0.181345v -0.975705h 0.181345v -8.46037h 0.181345v 3.64593h 0.181345v 4.81444h 0.181345v -0.916534h 0.181345v -4.56994h
 0.181345v 2.11295h 0.181345v 3.37352h 0.181345v -3.37352h 0.181345v -5.61736h 0.181345v 11.0096h 0.36269v -2.93529h 0.181345v 8.02213h 0.181345v -8.02213h 0.181345v -0.864131h 0.181345v -3.03378h 0.36269v 0.703298h 0.181345v 2.33048h 0.181345v
 -4.96638h 0.181345v 5.83051h 0.181345v -1.68153h 0.181345v 5.73719h 0.181345v 5.55933h 0.181345v -9.61499h 0.181345v -2.45699h 0.181345v 9.03821h 0.181345v -4.68898h 0.181345v -1.89224h 0.181345v -0.864131h 0.181345v 3.79942h 0.181345v 3.64593h
 0.181345v -8.26275h 0.181345v 6.94729h 0.181345v -4.34923h 0.181345v -1.78067h 0.181345v 2.75637h 0.181345v -3.57377h 0.181345v 4.61682h 0.181345v -1.04305h 0.181345v -7.72275h 0.181345v 2.63591h 0.181345v 5.08685h 0.181345v -6.46218h 0.181345v
 2.11295h 0.181345v 4.34923h 0.181345v -5.08685h 0.181345v -1.37533h 0.181345v 7.50522h 0.181345v 1.12038h 0.181345v -4.91979h 0.181345v -0.817398h 0.181345v 0.817398h 0.181345v 0.864131h 0.36269v -5.83051h 0.181345v 6.74705h 0.181345v -3.37352h
 0.181345v -2.11295h 0.181345v 7.50522h 0.181345v -7.50522h 0.181345v 4.56994h 0.181345v -3.89791h 0.36269v -1.31545h 0.181345v 14.8284h 0.181345v -11.2965h 0.181345v -1.51308h 0.181345v -0.703298h 0.181345v -1.31545h 0.36269v -1.78067h 0.181345v
 1.16351h 0.181345v -0.592946h 0.181345v 3.96647h 0.181345v -5.08685h 0.181345v 11.5995h 0.181345v -7.95357h 0.181345v -4.17645h 0.181345v 6.39283h 0.181345v -1.51308h 0.181345v -3.79942h 0.181345v 9.92931h 0.181345v -9.92931h 0.181345v 1.16351h
 0.36269v -4.64861h 0.181345v 10.4791h 0.181345v -0.864131h 0.181345v -6.67971h 0.181345v 2.9739h 0.181345v 0.67203h 0.181345v 3.89791h 0.181345v 4.05566h 0.181345v -4.91979h 0.181345v -1.59286h 0.181345v 6.51265h 0.181345v -12.13h 0.181345v 1.65089h
 0.181345v 9.35875h 0.181345v -1.04305h 0.181345v -7.72275h 0.181345v 7.72275h 0.181345v -7.72275h 0.181345v 0.617154h 0.181345v 2.75637h 0.181345v 2.45699h 0.181345v -6.42346h 0.181345v 4.74193h 0.181345v 13.0772h 0.181345v -7.33999h 0.181345v
 -3.13913h 0.181345v 7.1056h 0.181345v -8.02213h 0.181345v 6.58122h 0.181345v -1.31545h 0.181345v 2.75637h 0.181345v -6.12989h 0.36269v 1.04305h 0.181345v -8.7658h 0.181345v 6.74705h 0.181345v -3.37352h 0.181345v 15.8714h 0.181345v -12.4979h
 0.181345v -4.81444h 0.181345v 4.81444h 0.181345v 5.66468h 0.181345v 1.44092h 0.181345v -11.2167h 0.181345v 2.33048h 0.181345v 1.78067h 0.181345v -1.78067h 0.181345v 0.864131h 0.181345v -1.68153h 0.181345v 8.26275h 0.181345v -2.52555h 0.181345v
 -4.05566h 0.181345v -2.45699h 0.181345v 3.37352h 0.181345v -1.78067h 0.181345v 3.79942h 0.181345v 12.8096h 0.181345v -15.7449h 0.181345v 8.02213h 0.181345v -8.02213h 0.181345v 2.93529h 0.181345v -5.39228h 0.181345v 4.34923h 0.181345v -2.75637h
 0.181345v -4.96638h 0.181345v 5.83051h 0.181345v 5.26576h 0.181345v 8.14865h 0.181345v -15.0959h 0.181345v 3.57377h 0.181345v 4.68898h 0.181345v -6.58122h 0.181345v -3.89791h 0.181345v -1.31545h 0.181345v 8.14865h 0.181345v 2.33048h 0.181345v
 -4.34923h 0.181345v -0.916534h 0.181345v 2.93529h 0.181345v -2.93529h 0.181345v 6.58122h 0.36269v -6.58122h 0.181345v 6.58122h 0.181345v -8.26275h 0.181345v 1.68153h 0.181345v 4.05566h 0.181345v 2.52555h 0.181345v -4.68898h 0.181345v 2.16342h
 0.181345v -2.16342h 0.181345v 6.12989h 0.181345v -2.75637h 0.36269v 1.31545h 0.181345v 3.03378h 0.36269v -4.34923h 0.181345v -1.2101h 0.181345v 2.52555h 0.36269v 9.16367h 0.181345v -9.16367h 0.181345v 15.2936h 0.181345v -8.46037h 0.181345v -3.79942h
 0.181345v -6.67971h 0.181345v 8.46037h 0.181345v 7.1056h 0.181345v -7.1056h 0.181345v 2.01875h 0.181345v -2.01875h 0.36269v 10.4791h 0.181345v -10.4791h 0.181345v 2.01875h 0.181345v -5.39228h 0.181345v 10.4791h 0.181345v -13.2355h 0.181345v 20.9582h
 0.181345v -19.6428h 0.181345v 1.44092h 0.181345v 3.37352h 0.181345v -4.81444h 0.181345v 6.83319h 0.181345v 2.33048h 0.181345v -7.72275h 0.181345v -2.75637h 0.36269v 13.2355h 0.181345v -11.92h 0.181345v 6.83319h 0.181345v -3.79942h 0.36269v 1.78067h
 0.181345v 7.1056h 0.181345v -10.4791h 0.181345v 7.72275h 0.181345v -10.4791h 0.181345v 13.2355h 0.181345v -11.92h 0.181345v 6.83319h 0.181345v -2.01875h 0.181345v 4.34923h 0.181345v 2.75637h 0.181345v 7.72275h 0.181345v -10.4791h 0.181345v -2.33048h
 0.181345v -2.01875h 0.181345v -1.78067h 0.181345v 1.78067h 0.181345v 4.34923h 0.181345v -12.8096h 0.181345v 8.46037h 0.36269v 4.34923h 0.181345v -10.4791h 0.181345v 10.4791h 0.36269v -2.33048h 0.181345v -5.39228h 0.181345v 5.39228h 0.36269v
 -3.79942h 0.181345v 8.88626h 0.181345v -17.5847h 0.181345v 5.66468h 0.181345v -2.52555h 0.181345v 3.96647h 0.181345v 1.59286h 0.181345v 12.2598h 0.181345v -12.2598h 0.181345v 3.79942h 0.181345v -6.83319h 0.181345v 1.44092h 0.181345v 1.59286h
 0.181345v -8.69846h 0.181345v 4.34923h 0.181345v -1.2101h 0.181345v 5.55933h 0.181345v 8.88626h 0.181345v -11.92h 0.181345v 4.81444h 0.181345v 4.34923h 0.36269v -7.72275h 0.181345v 13.8526h 0.181345v -19.9825h 0.181345v 3.37352h 0.181345v 6.12989h
 0.181345v -1.78067h 0.181345v -1.59286h 0.181345v 3.37352h 0.181345v -1.78067h 0.181345v -4.34923h 0.181345v 4.34923h 0.181345v -7.72275h 0.181345v 4.68898h 0.544034v 1.44092h 0.181345v 18.2019h 0.181345v -14.8284h 0.181345v -1.78067h 0.36269v
 3.79942h 0.181345v 2.33048h 0.181345v -9.16367h 0.181345v 4.81444h 0.181345v -10.4791h 0.181345v 10.4791h 0.181345v -1.78067h 0.181345v -4.34923h 0.181345v 8.14865h 0.181345v -9.35875h 0.181345v 2.52555h 0.181345v -1.31545h 0.181345v -1.2101h
 0.36269v 3.96647h 0.544034v -2.75637h 0.181345v 10.4791h 0.181345v -6.12989h 0.181345v -1.59286h 0.181345v 3.37352h 0.181345v -4.81444h 0.181345v 3.03378h 0.181345v -7.72275h 0.181345v 1.04305h 0.36269v 6.67971h 0.181345v 6.12989h 0.181345v
 -15.7449h 0.181345v 0.916534h 0.181345v -5.48647h 0.181345v 6.46218h 0.181345v -0.975705h 0.181345v 0.975705h 0.181345v -2.75637h 0.181345v 16.609h 0.181345v -10.4791h 0.181345v -2.33048h 0.181345v -2.01875h 0.181345v 2.01875h 0.36269v -6.12989h
 0.181345v 9.77583h 0.181345v -1.31545h 0.181345v 1.31545h 0.181345v -1.31545h 0.36269v -6.12989h 0.181345v -3.03378h 0.181345v 4.81444h 0.181345v 2.01875h 0.181345v -2.93529h 0.181345v 0.916534h 0.181345v -0.916534h 0.36269v -3.89791h 0.181345v
 10.4791h 0.181345v -9.03821h 0.181345v -3.37352h 0.181345v 8.7658h 0.181345v -8.14865h 0.181345v 4.34923h 0.181345v 1.78067h 0.181345v 3.13913h 0.181345v -4.05566h 0.181345v 0.916534h 0.181345v -1.78067h 0.181345v 4.91979h 0.181345v -4.91979h
 0.181345v -3.70581h 0.181345v 2.11295h 0.181345v 1.59286h 0.181345v 2.75637h 0.181345v -0.975705h 0.181345v -2.59806h 0.181345v 8.26275h 0.181345v -9.03821h 0.181345v 1.59286h 0.36269v 0.864131h 0.181345v 8.02213h 0.181345v -11.2167h 0.181345v
 6.12989h 0.181345v 5.08685h 0.181345v 5.39228h 0.181345v -11.5222h 0.181345v 1.04305h 0.544034v 5.08685h 0.181345v -6.12989h 0.181345v 3.37352h 0.181345v -1.2101h 0.181345v 14.4456h 0.181345v -11.92h 0.181345v 11.92h 0.181345v -17.5847h 0.181345v
 7.1056h 0.181345v 5.39228h 0.181345v -2.01875h 0.181345v 2.01875h 0.181345v 8.46037h 0.181345v -13.8526h 0.181345v 7.72275h 0.181345v 6.12989h 0.181345v -15.2936h 0.181345v 11.92h 0.36269v -8.88626h 0.181345v 33.218h 0.181345v -20.9582h 0.36269v
 4.34923h 0.36269v -7.72275h 0.181345v 24.3318h 0.181345v -10.4791h 0.36269v 10.4791h 0.36269v -10.4791h 0.181345v -10.4791h 0.181345v -3.37352h 0.181345v 13.8526h 0.181345v 10.4791h 0.181345v -24.3318h 0.181345v 13.8526h 0.36269v 10.4791h 0.36269v
 10.4791h 0.36269v -20.9582h 0.181345v 20.9582h 0.544034v -10.4791h 0.544034v -16.609h 0.181345v 16.609h 0.181345v -10.4791h 0.181345v 20.9582h 0.36269v -20.9582h 0.181345v 10.4791h 0.725379v -10.4791h 0.181345v -6.12989h 0.181345v 6.12989h 0.181345v
 10.4791h 0.725379v 10.4791h 0.181345v -20.9582h 0.36269v 10.4791h 0.181345v -10.4791h 0.181345v 10.4791h 0.181345v -10.4791h 0.181345v 10.4791h 0.36269v 10.4791h 0.36269v -20.9582h 0.181345v 20.9582h 0.181345v -10.4791h 0.36269v 10.4791h 0.36269v
 -10.4791h 0.725379v -10.4791h 0.181345v 20.9582h 0.181345v -10.4791h 0.36269v -20.9582h 0.181345v 10.4791h 0.181345v 20.9582h 0.181345v -10.4791h 0.181345v -10.4791h 0.181345v 20.9582h 0.36269v -27.0881h 0.36269v 6.12989h 0.36269v 10.4791h 0.36269v
 10.4791h 0.181345v -20.9582h 0.36269v 10.4791h 0.181345v 10.4791h 0.181345v -20.9582h 0.181345v 20.9582h 0.181345v -10.4791h 0.181345v -10.4791h 0.36269v 10.4791h 0.181345v 10.4791h 0.36269v -31.4374h 0.181345v 10.4791h 0.181345v -6.12989h 0.181345v
 27.0881h 0.36269v -20.9582h 0.181345v 20.9582h 0.36269v -20.9582h 0.36269v 10.4791h 0.181345v -16.609h 0.181345v 27.0881h 0.544034v -10.4791h 0.36269v -10.4791h 0.181345v -6.12989h 0.36269v 27.0881h 0.181345v -10.4791h 0.181345v -10.4791h 0.36269v
 20.9582h 0.181345v -10.4791h 0.36269v 10.4791h 0.181345v -10.4791h 0.36269v 10.4791h 0.36269v -20.9582h 0.181345v 20.9582h 0.181345v -10.4791h 0.36269v 10.4791h 0.544034v -10.4791h 0.181345v 10.4791h 0.181345v -10.4791h 0.181345v 10.4791h 0.36269v
 -20.9582h 0.181345v 10.4791h 0.181345v 10.4791h 0.544034v -10.4791h 0.181345v -10.4791h 0.181345v 20.9582h 0.181345v -20.9582h 0.181345v 10.4791h 0.725379v 10.4791h 0.36269v -10.4791h 0.181345v -10.4791h 0.181345v 20.9582h 0.36269v -27.0881h
 0.181345v 27.0881h 0.181345v -20.9582h 0.181345v 20.9582h 0.181345v -27.0881h 0.181345v 27.0881h 0.181345v -10.4791h 0.36269v -10.4791h 0.181345v 20.9582h 0.544034v -10.4791h 0.36269v 10.4791h 0.181345v -10.4791h 0.181345v 10.4791h 0.36269v
 -20.9582h 0.181345v 10.4791h 0.181345v -10.4791h 0.36269v 20.9582h 1.26941v -20.9582h 0.181345v 10.4791h 0.181345v 10.4791h 0.36269v -10.4791h 0.181345v 10.4791h 0.181345v -20.9582h 0.181345v 20.9582h 0.36269v -10.4791h 0.36269v 10.4791h 0.181345v
 -10.4791h 0.181345v 10.4791h 0.181345v -10.4791h 0.36269v 10.4791h 0.181345v -10.4791h 0.181345v 10.4791h 0.725379v -20.9582h 0.181345v 20.9582h 0.181345v -10.4791h 0.181345v 10.4791h 0.181345v -20.9582h 0.36269v 10.4791h 0.181345v 10.4791h
 0.181345v -10.4791h 0.181345v 10.4791h 0.181345v -10.4791h 0.181345v 10.4791h 0.181345v -20.9582h 0.181345v -6.12989h 0.181345v 27.0881h 0.181345v -20.9582h 0.181345v 20.9582h 0.181345v -10.4791h 0.36269v -20.9582h 0.181345v 10.4791h 0.181345v
 20.9582h 0.181345v -20.9582h 0.181345v 20.9582h 0.181345v -10.4791h 0.181345v 10.4791h 0.181345v -27.0881h 0.181345v 16.609h 1.08807v 10.4791h 0.36269v -10.4791h 0.36269v 10.4791h 0.181345v -10.4791h 0.181345v 10.4791h 0.181345v -10.4791h 0.181345v
 -10.4791h 0.181345v 20.9582h 0.36269v -10.4791h 0.181345v 10.4791h 0.181345v -20.9582h 0.181345v 20.9582h 0.181345v -10.4791h 0.181345v 10.4791h 0.36269v -10.4791h 0.725379v 10.4791h 0.181345v -10.4791h 0.181345v 10.4791h 0.36269v -20.9582h
 0.181345v 20.9582h 0.181345v -10.4791h 0.544034v 10.4791h 0.36269v -10.4791h 0.181345v 10.4791h 0.181345v -27.0881h 0.181345v 6.12989h 0.181345v 10.4791h 0.181345v -10.4791h 0.36269v 10.4791h 0.36269v 10.4791h 0.36269v -10.4791h 0.181345v 10.4791h
 0.181345" fill="none" stroke="black"/>
<path d="M57.1929,280.151h 453.543" fill="none" stroke="black"/>
<path d="M57.1929,272.68v 7.47068" fill="none" stroke="black"/>
<path d="M75.3318,276.415v 3.73534" fill="none" stroke="black"/>
<path d="M93.4707,276.415v 3.73534" fill="none" stroke="black"/>
<path d="M111.61,276.415v 3.73534" fill="none" stroke="black"/>
<path d="M129.749,276.415v 3.73534" fill="none" stroke="black"/>
<path d="M147.887,272.68v 7.47068" fill="none" stroke="black"/>
<path d="M166.026,276.415v 3.73534" fill="none" stroke="black"/>
<path d="M184.165,276.415v 3.73534" fill="none" stroke="black"/>
<path d="M202.304,276.415v 3.73534" fill="none" stroke="black"/>
<path d="M220.443,276.415v 3.73534" fill="none" stroke="black"/>
<path d="M238.582,272.68v 7.47068" fill="none" stroke="black"/>
<path d="M256.721,276.415v 3.73534" fill="none" stroke="black"/>
<path d="M274.86,276.415v 3.73534" fill="none" stroke="black"/>
<path d="M292.999,276.415v 3.73534" fill="none" stroke="black"/>
<path d="M311.138,276.415v 3.73534" fill="none" stroke="black"/>
<path d="M329.277,272.68v 7.47068" fill="none" stroke="black"/>
<path d="M347.415,276.415v 3.73534" fill="none" stroke="black"/>
<path d="M365.554,276.415v 3.73534" fill="none" stroke="black"/>
<path d="M383.693,276.415v 3.73534" fill="none" stroke="black"/>
<path d="M401.832,276.415v 3.73534" fill="none" stroke="black"/>
<path d="M419.971,272.68v 7.47068" fill="none" stroke="black"/>
<path d="M438.11,276.415v 3.73534" fill="none" stroke="black"/>
<path d="M456.249,276.415v 3.73534" fill="none" stroke="black"/>
<path d="M474.388,276.415v 3.73534" fill="none" stroke="black"/>
<path d="M492.527,276.415v 3.73534" fill="none" stroke="black"/>
<path d="M510.666,272.68v 7.47068" fill="none" stroke="black"/>
<path d="M510.666,272.68v 7.47068" fill="none" stroke="black"/>
<text xml:space="preserve" x="54.3523" y="290.27" fill="black" font-size="10.4952" font-family="Helvetica">0</text>
<text xml:space="preserve" x="139.569" y="290.27" fill="black" font-size="10.4952" font-family="Helvetica">500</text>
<text xml:space="preserve" x="227.449" y="290.27" fill="black" font-size="10.4952" font-family="Helvetica">1000</text>
<text xml:space="preserve" x="318.288" y="290.27" fill="black" font-size="10.4952" font-family="Helvetica">1500</text>
<text xml:space="preserve" x="408.831" y="290.27" fill="black" font-size="10.4952" font-family="Helvetica">2000</text>
<text xml:space="preserve" x="499.67" y="290.27" fill="black" font-size="10.4952" font-family="Helvetica">2500</text>
<text xml:space="preserve" x="265.323" y="301.218" fill="black" font-size="10.4952" font-family="Helvetica">Channel</text>
<path d="M57.1929,280.151v -249.023" fill="none" stroke="black"/>
<path d="M63.9961,280.151h -6.80315" fill="none" stroke="black"/>
<path d="M63.9961,277.394h -6.80315" fill="none" stroke="black"/>
<path d="M63.9961,275.064h -6.80315" fill="none" stroke="black"/>
<path d="M63.9961,273.045h -6.80315" fill="none" stroke="black"/>
<path d="M63.9961,271.264h -6.80315" fill="none" stroke="black"/>
<path d="M70.7992,269.671h -13.6063" fill="none" stroke="black"/>
<text xml:space="preserve" x="49.0263" y="273.404" fill="black" font-size="10.4952" font-family="Helvetica">1</text>
<path d="M63.9961,259.192h -6.80315" fill="none" stroke="black"/>
<path d="M63.9961,253.062h -6.80315" fill="none" stroke="black"/>
<path d="M63.9961,248.713h -6.80315" fill="none" stroke="black"/>
<path d="M63.9961,245.34h -6.80315" fill="none" stroke="black"/>
<path d="M63.9961,242.583h -6.80315" fill="none" stroke="black"/>
<path d="M63.9961,240.253h -6.80315" fill="none" stroke="black"/>
<path d="M63.9961,238.234h -6.80315" fill="none" stroke="black"/>
<path d="M63.9961,236.453h -6.80315" fill="none" stroke="black"/>
<path d="M70.7992,234.861h -13.6063" fill="none" stroke="black"/>
<text xml:space="preserve" x="41.629" y="238.489" fill="black" font-size="10.4952" font-family="Helvetica">10</text>
<path d="M63.9961,224.381h -6.80315" fill="none" stroke="black"/>
<path d="M63.9961,218.252h -6.80315" fill="none" stroke="black"/>
<path d="M63.9961,213.902h -6.80315" fill="none" stroke="black"/>
<path d="M63.9961,210.529h -6.80315" fill="none" stroke="black"/>
<path d="M63.9961,207.772h -6.80315" fill="none" stroke="black"/>
<path d="M63.9961,205.442h -6.80315" fill="none" stroke="black"/>
<path d="M63.9961,203.423h -6.80315" fill="none" stroke="black"/>
<path d="M63.9961,201.642h -6.80315" fill="none" stroke="black"/>
<path d="M70.7992,200.05h -13.6063" fill="none" stroke="black"/>
<text xml:space="preserve" x="49.0263" y="200.319" fill="black" font-size="7.16345" font-family="Helvetica">2</text>
<text xml:space="preserve" x="38.0783" y="204.757" fill="black" font-size="10.4952" font-family="Helvetica">10</text>
<path d="M63.9961,189.571h -6.80315" fill="none" stroke="black"/>
<path d="M63.9961,183.441h -6.80315" fill="none" stroke="black"/>
<path d="M63.9961,179.091h -6.80315" fill="none" stroke="black"/>
<path d="M63.9961,175.718h -6.80315" fill="none" stroke="black"/>
<path d="M63.9961,172.961h -6.80315" fill="none" stroke="black"/>
<path d="M63.9961,170.631h -6.80315" fill="none" stroke="black"/>
<path d="M63.9961,168.612h -6.80315" fill="none" stroke="black"/>
<path d="M63.9961,166.832h -6.80315" fill="none" stroke="black"/>
<path d="M70.7992,165.239h -13.6063" fill="none" stroke="black"/>
<text xml:space="preserve" x="49.0263" y="165.108" fill="black" font-size="7.16345" font-family="Helvetica">3</text>
<text xml:space="preserve" x="38.0783" y="169.842" fill="black" font-size="10.4952" font-family="Helvetica">10</text>
<path d="M63.9961,154.76h -6.80315" fill="none" stroke="black"/>
<path d="M63.9961,148.63h -6.80315" fill="none" stroke="black"/>
<path d="M63.9961,144.28h -6.80315" fill="none" stroke="black"/>
<path d="M63.9961,140.907h -6.80315" fill="none" stroke="black"/>
<path d="M63.9961,138.151h -6.80315" fill="none" stroke="black"/>
<path d="M63.9961,135.82h -6.80315" fill="none" stroke="black"/>
<path d="M63.9961,133.801h -6.80315" fill="none" stroke="black"/>
<path d="M63.9961,132.021h -6.80315" fill="none" stroke="black"/>
<path d="M70.7992,130.428h -13.6063" fill="none" stroke="black"/>
<text xml:space="preserve" x="49.0263" y="130.488" fill="black" font-size="7.16345" font-family="Helvetica">4</text>
<text xml:space="preserve" x="38.0783" y="134.927" fill="black" font-size="10.4952" font-family="Helvetica">10</text>
<path d="M63.9961,119.949h -6.80315" fill="none" stroke="black"/>
<path d="M63.9961,113.819h -6.80315" fill="none" stroke="black"/>
<path d="M63.9961,109.47h -6.80315" fill="none" stroke="black"/>
<path d="M63.9961,106.096h -6.80315" fill="none" stroke="black"/>
<path d="M63.9961,103.34h -6.80315" fill="none" stroke="black"/>
<path d="M63.9961,101.009h -6.80315" fill="none" stroke="black"/>
<path d="M63.9961,98.9905h -6.80315" fill="none" stroke="black"/>
<path d="M63.9961,97.2098h -6.80315" fill="none" stroke="black"/>
<path d="M70.7992,95.617h -13.6063" fill="none" stroke="black"/>
<text xml:space="preserve" x="49.0263" y="95.5731" fill="black" font-size="7.16345" font-family="Helvetica">5</text>
<text xml:space="preserve" x="38.0783" y="100.307" fill="black" font-size="10.4952" font-family="Helvetica">10</text>
<path d="M63.9961,85.1378h -6.80315" fill="none" stroke="black"/>
<path d="M63.9961,79.0079h -6.80315" fill="none" stroke="black"/>
<path d="M63.9961,74.6587h -6.80315" fill="none" stroke="black"/>
<path d="M63.9961,71.2852h -6.80315" fill="none" stroke="black"/>
<path d="M63.9961,68.5288h -6.80315" fill="none" stroke="black"/>
<path d="M63.9961,66.1983h -6.80315" fill="none" stroke="black"/>
<path d="M63.9961,64.1796h -6.80315" fill="none" stroke="black"/>
<path d="M63.9961,62.3989h -6.80315" fill="none" stroke="black"/>
<path d="M70.7992,60.8061h -13.6063" fill="none" stroke="black"/>
<text xml:space="preserve" x="49.0263" y="60.6579" fill="black" font-size="7.16345" font-family="Helvetica">6</text>
<text xml:space="preserve" x="38.0783" y="65.3921" fill="black" font-size="10.4952" font-family="Helvetica">10</text>
<path d="M63.9961,50.3269h -6.80315" fill="none" stroke="black"/>
<path d="M63.9961,44.197h -6.80315" fill="none" stroke="black"/>
<path d="M63.9961,39.8478h -6.80315" fill="none" stroke="black"/>
<path d="M63.9961,36.4743h -6.80315" fill="none" stroke="black"/>
<path d="M63.9961,33.7179h -6.80315" fill="none" stroke="black"/>
<path d="M63.9961,31.3874h -6.80315" fill="none" stroke="black"/>
<g transform="rotate(-90,26.5385,191.442)">
<text xml:space="preserve" x="26.5385" y="191.442" fill="black" font-size="10.4952" font-family="Helvetica">Counts/Channel</text>
</g>
<text xml:space="preserve" x="404.097" y="60.6579" fill="black" font-size="14.7788" font-family="Helvetica" font-weight="bold"> = 2.4879 MeV</text>
<text xml:space="preserve" x="398.179" y="63.9127" fill="black" font-size="10.0192" font-family="Helvetica" font-weight="bold">p</text>
<text xml:space="preserve" x="389.006" y="60.6579" fill="black" font-size="14.7788" font-family="Helvetica" font-weight="bold">E</text>
<path d="M262.163,163.798v 26.1534" fill="none" stroke="black"/>
<path d="M264.454,189.951l -2.29122, 3.9685l -2.29122, -3.9685z" fill="black"/>
<path d="M264.454,189.951l -2.29122, 3.9685l -2.29122, -3.9685h 4.58243z" fill="none" stroke="black"/>
<text xml:space="preserve" x="266.803" y="161.853" fill="black" font-size="10.4952" font-family="Helvetica" font-weight="bold">_1 	1.369 MeV</text>
<text xml:space="preserve" x="260.293" y="161.853" fill="black" font-size="10.4952" font-family="Times">&#0945;</text>
<path d="M184.528,130.428v 30.8424" fill="none" stroke="black"/>
<path d="M186.819,161.27l -2.29122, 3.9685l -2.29122, -3.9685z" fill="black"/>
<path d="M186.819,161.27l -2.29122, 3.9685l -2.29122, -3.9685h 4.58243z" fill="none" stroke="black"/>
<text xml:space="preserve" x="172.117" y="127.529" fill="black" font-size="10.4952" font-family="Helvetica" font-weight="bold"># p_1 	0.844 MeV</text>
<path d="M210.104,148.63v 12.6405" fill="none" stroke="black"/>
<path d="M212.395,161.27l -2.29122, 3.9685l -2.29122, -3.9685z" fill="black"/>
<path d="M212.395,161.27l -2.29122, 3.9685l -2.29122, -3.9685h 4.58243z" fill="none" stroke="black"/>
<text xml:space="preserve" x="197.564" y="144.099" fill="black" font-size="10.4952" font-family="Helvetica" font-weight="bold"># p_2 	1.015 MeV</text>
<path d="M497.611,269.671h 13.0542" fill="none" stroke="black"/>
<path d="M504.138,259.192h 6.52711" fill="none" stroke="black"/>
<path d="M504.138,253.062h 6.52711" fill="none" stroke="black"/>
<path d="M504.138,248.713h 6.52711" fill="none" stroke="black"/>
<path d="M504.138,245.34h 6.52711" fill="none" stroke="black"/>
<path d="M504.138,242.583h 6.52711" fill="none" stroke="black"/>
<path d="M504.138,240.253h 6.52711" fill="none" stroke="black"/>
<path d="M504.138,238.234h 6.52711" fill="none" stroke="black"/>
<path d="M504.138,236.453h 6.52711" fill="none" stroke="black"/>
<path d="M497.611,234.861h 13.0542" fill="none" stroke="black"/>
<path d="M504.138,224.381h 6.52711" fill="none" stroke="black"/>
<path d="M504.138,218.251h 6.52711" fill="none" stroke="black"/>
<path d="M504.138,213.902h 6.52711" fill="none" stroke="black"/>
<path d="M504.138,210.529h 6.52711" fill="none" stroke="black"/>
<path d="M504.138,207.772h 6.52711" fill="none" stroke="black"/>
<path d="M504.138,205.442h 6.52711" fill="none" stroke="black"/>
<path d="M504.138,203.423h 6.52711" fill="none" stroke="black"/>
<path d="M504.138,201.642h 6.52711" fill="none" stroke="black"/>
<path d="M497.611,200.05h 13.0542" fill="none" stroke="black"/>
<path d="M504.138,189.571h 6.52711" fill="none" stroke="black"/>
<path d="M504.138,183.441h 6.52711" fill="none" stroke="black"/>
<path d="M504.138,179.091h 6.52711" fill="none" stroke="black"/>
<path d="M504.138,175.718h 6.52711" fill="none" stroke="black"/>
<path d="M504.138,172.961h 6.52711" fill="none" stroke="black"/>
<path d="M504.138,170.631h 6.52711" fill="none" stroke="black"/>
<path d="M504.138,168.612h 6.52711" fill="none" stroke="black"/>
<path d="M504.138,166.832h 6.52711" fill="none" stroke="black"/>
<path d="M497.611,165.239h 13.0542" fill="none" stroke="black"/>
<path d="M504.138,154.76h 6.52711" fill="none" stroke="black"/>
<path d="M504.138,148.63h 6.52711" fill="none" stroke="black"/>
<path d="M504.138,144.28h 6.52711" fill="none" stroke="black"/>
<path d="M504.138,140.907h 6.52711" fill="none" stroke="black"/>
<path d="M504.138,138.151h 6.52711" fill="none" stroke="black"/>
<path d="M504.138,135.82h 6.52711" fill="none" stroke="black"/>
<path d="M504.138,133.801h 6.52711" fill="none" stroke="black"/>
<path d="M504.138,132.021h 6.52711" fill="none" stroke="black"/>
<path d="M497.611,130.428h 13.0542" fill="none" stroke="black"/>
<path d="M504.138,119.949h 6.52711" fill="none" stroke="black"/>
<path d="M504.138,113.819h 6.52711" fill="none" stroke="black"/>
<path d="M504.138,109.47h 6.52711" fill="none" stroke="black"/>
<path d="M504.138,106.096h 6.52711" fill="none" stroke="black"/>
<path d="M504.138,103.34h 6.52711" fill="none" stroke="black"/>
<path d="M504.138,101.009h 6.52711" fill="none" stroke="black"/>
<path d="M504.138,98.9905h 6.52711" fill="none" stroke="black"/>
<path d="M504.138,97.2098h 6.52711" fill="none" stroke="black"/>
<path d="M497.611,95.617h 13.0542" fill="none" stroke="black"/>
<path d="M504.138,85.1378h 6.52711" fill="none" stroke="black"/>
<path d="M504.138,79.0079h 6.52711" fill="none" stroke="black"/>
<path d="M504.138,74.6587h 6.52711" fill="none" stroke="black"/>
<path d="M504.138,71.2852h 6.52711" fill="none" stroke="black"/>
<path d="M504.138,68.5288h 6.52711" fill="none" stroke="black"/>
<path d="M504.138,66.1983h 6.52711" fill="none" stroke="black"/>
<path d="M504.138,64.1796h 6.52711" fill="none" stroke="black"/>
<path d="M504.138,62.3989h 6.52711" fill="none" stroke="black"/>
<path d="M497.611,60.8061h 13.0542" fill="none" stroke="black"/>
<path d="M504.138,50.3269h 6.52711" fill="none" stroke="black"/>
<path d="M504.138,44.197h 6.52711" fill="none" stroke="black"/>
<path d="M504.138,39.8478h 6.52711" fill="none" stroke="black"/>
<path d="M504.138,36.4743h 6.52711" fill="none" stroke="black"/>
<path d="M504.138,33.7179h 6.52711" fill="none" stroke="black"/>
<path d="M504.138,31.3874h 6.52711" fill="none" stroke="black"/>
<path d="M57.1929,38.2225v -7.46952" fill="none" stroke="black"/>
<path d="M75.3318,38.2225v -7.46952" fill="none" stroke="black"/>
<path d="M93.4707,38.2225v -7.46952" fill="none" stroke="black"/>
<path d="M111.61,38.2225v -7.46952" fill="none" stroke="black"/>
<path d="M129.749,38.2225v -7.46952" fill="none" stroke="black"/>
<path d="M147.887,38.2225v -7.46952" fill="none" stroke="black"/>
<path d="M166.026,38.2225v -7.46952" fill="none" stroke="black"/>
<path d="M184.165,38.2225v -7.46952" fill="none" stroke="black"/>
<path d="M202.304,38.2225v -7.46952" fill="none" stroke="black"/>
<path d="M220.443,38.2225v -7.46952" fill="none" stroke="black"/>
<path d="M238.582,38.2225v -7.46952" fill="none" stroke="black"/>
<path d="M256.721,38.2225v -7.46952" fill="none" stroke="black"/>
<path d="M274.86,38.2225v -7.46952" fill="none" stroke="black"/>
<path d="M292.999,38.2225v -7.46952" fill="none" stroke="black"/>
<path d="M311.138,38.2225v -7.46952" fill="none" stroke="black"/>
<path d="M329.277,38.2225v -7.46952" fill="none" stroke="black"/>
<path d="M347.415,38.2225v -7.46952" fill="none" stroke="black"/>
<path d="M365.554,38.2225v -7.46952" fill="none" stroke="black"/>
<path d="M383.693,38.2225v -7.46952" fill="none" stroke="black"/>
<path d="M401.832,38.2225v -7.46952" fill="none" stroke="black"/>
<path d="M419.971,38.2225v -7.46952" fill="none" stroke="black"/>
<path d="M438.11,38.2225v -7.46952" fill="none" stroke="black"/>
<path d="M456.249,38.2225v -7.46952" fill="none" stroke="black"/>
<path d="M474.388,38.2225v -7.46952" fill="none" stroke="black"/>
<path d="M492.527,38.2225v -7.46952" fill="none" stroke="black"/>
<path d="M510.666,38.2225v -7.46952" fill="none" stroke="black"/></svg>
