<?xml version="1.0" standalone="no"?>
<svg width="567.429" height="311.778" viewBox="0 0 567.429 311.778" xmlns="http://www.w3.org/2000/svg" shape-rendering="crispEdges">
<title>
Yields/P1/run_0103/det4_Fit.svg
</title>
<desc>
Creator: ROOT Version 6.12/06
CreationDate: Mon Apr 15 10:29:02 2019</desc>
<defs>
</defs>
<rect x="0.5" y="0" width="566.929" height="311.278" fill="white"/>
<rect x="57.1929" y="31.1278" width="453.543" height="249.023" fill="white"/>
<rect x="57.1929" y="31.1278" width="453.543" height="249.023" fill="none" stroke="black"/>
<path d="M57.1929,40.79h 0.181345v 239.361h 17.7718v -10.4796h 0.181345v 10.4796h 1.26941v -10.4796h 0.181345v 10.4796h 5.07765v -10.4796h 0.181345v 10.4796h 1.6321v -10.4796h 0.181345v 10.4796h 0.544034v -20.9592h 0.181345v 10.4796h 0.181345v
 10.4796h 1.81345v -10.4796h 0.181345v 10.4796h 0.36269v -10.4796h 0.181345v 10.4796h 0.36269v -10.4796h 0.181345v 10.4796h 0.36269v -10.4796h 0.544034v 10.4796h 0.181345v -10.4796h 0.181345v 10.4796h 0.181345v -10.4796h 0.181345v -27.0893h 0.181345v
 -2.33058h 0.181345v -19.8387h 0.181345v -12.6431h 0.181345v -10.8529h 0.181345v -9.26431h 0.181345v -5.23854h 0.181345v -2.22931h 0.181345v -3.24305h 0.181345v -2.69624h 0.181345v -0.697091h 0.181345v -1.44812h 0.181345v -0.352985h 0.181345v
 -2.14335h 0.181345v 0.979785h 0.181345v -1.59293h 0.181345v -1.19225h 0.181345v 0.0538357h 0.181345v 0.456246h 0.181345v -0.492158h 0.181345v -0.888063h 0.181345v -0.10113h 0.181345v 0.52994h 0.181345v -1.09057h 0.181345v 0.476871h 0.181345v
 -0.166143h 0.181345v -0.820042h 0.181345v 0.88628h 0.181345v -0.792082h 0.181345v -0.357951h 0.181345v 0.13906h 0.181345v -0.786357h 0.181345v 0.192788h 0.181345v 0.986696h 0.181345v 0.0478697h 0.181345v -0.672059h 0.181345v -0.392327h 0.181345v
 -0.0446203h 0.181345v -0.191847h 0.181345v -0.771829h 0.181345v 0.596874h 0.181345v -0.315585h 0.181345v 0.142632h 0.181345v 0.0143374h 0.181345v -0.241907h 0.181345v 1.17373h 0.181345v -1.41183h 0.181345v 1.00542h 0.181345v 0.194313h 0.181345v
 -0.791283h 0.181345v 0.302819h 0.181345v 0.79237h 0.181345v 0.739186h 0.181345v -1.34101h 0.181345v -0.132171h 0.181345v -1.34229h 0.181345v -0.0267354h 0.181345v -0.982424h 0.181345v -2.88527h 0.181345v -2.30692h 0.181345v -3.40383h 0.181345v
 -3.1782h 0.181345v -3.32765h 0.181345v -2.82165h 0.181345v -2.80232h 0.181345v -2.20477h 0.181345v -1.78044h 0.181345v -1.52662h 0.181345v -0.484279h 0.181345v -0.354859h 0.181345v 1.01895h 0.181345v 1.29806h 0.181345v 1.65714h 0.181345v 2.4118h
 0.181345v 3.35219h 0.181345v 3.10963h 0.181345v 3.8625h 0.181345v 4.51424h 0.181345v 3.7632h 0.181345v 4.07934h 0.181345v 4.46886h 0.181345v 2.25085h 0.181345v 0.870719h 0.181345v 2.23262h 0.181345v 0.670816h 0.181345v 1.15785h 0.181345v 0.565844h
 0.181345v -0.127586h 0.181345v -1.19059h 0.181345v 1.93937h 0.181345v -0.362738h 0.181345v -0.449425h 0.181345v 0.646203h 0.181345v 0.232858h 0.181345v 0.0671949h 0.181345v -0.333028h 0.181345v 0.265833h 0.181345v -0.298735h 0.181345v 0.132043h
 0.181345v 0.993441h 0.181345v 0.614231h 0.181345v -0.825195h 0.181345v 0.862115h 0.181345v 0.260998h 0.181345v 0.15119h 0.181345v -0.412187h 0.181345v -0.401247h 0.181345v -0.0718236h 0.181345v -0.071484h 0.181345v 0.805552h 0.181345v -0.0375624h
 0.181345v -0.223435h 0.181345v -1.20731h 0.181345v 2.60031h 0.181345v 0.620559h 0.181345v -1.82759h 0.181345v 1.08592h 0.181345v 0.448905h 0.181345v 0.677708h 0.181345v -1.71804h 0.181345v 1.76142h 0.181345v -1.83856h 0.181345v 3.68461h 0.181345v
 -1.31551h 0.181345v 0.643452h 0.181345v -1.89508h 0.181345v 0.335057h 0.181345v 0.916574h 0.181345v 0.927827h 0.181345v -1.10675h 0.181345v 1.49443h 0.181345v -1.67126h 0.181345v 1.04623h 0.181345v 0.333342h 0.181345v -1.06875h 0.181345v 1.02068h
 0.181345v 1.0946h 0.181345v -0.949925h 0.181345v 0.592972h 0.181345v -0.0503123h 0.181345v 0.615088h 0.181345v -0.412827h 0.181345v 0.891143h 0.181345v -0.992612h 0.36269v -0.3992h 0.181345v 0.34872h 0.181345v 0.10113h 0.181345v -0.351034h 0.181345v
 1.07854h 0.181345v 1.39314h 0.181345v -3.19753h 0.181345v 2.07293h 0.181345v -1.1475h 0.181345v 1.53166h 0.181345v -1.78074h 0.181345v 0.759901h 0.181345v 1.02084h 0.181345v -0.545866h 0.181345v 0.940048h 0.181345v -2.6611h 0.181345v 0.785571h
 0.181345v 0.775495h 0.181345v -1.60883h 0.181345v 2.25921h 0.181345v 0.055482h 0.181345v 0.857631h 0.181345v -1.7742h 0.181345v 1.19708h 0.181345v -0.826372h 0.181345v -1.03594h 0.181345v 3.10081h 0.181345v -3.6417h 0.181345v 1.20613h 0.181345v
 0.586695h 0.181345v 0.16404h 0.181345v -1.66423h 0.181345v -1.67642h 0.181345v 1.4807h 0.181345v -2.29582h 0.181345v -0.124778h 0.181345v 0.505412h 0.181345v -2.66341h 0.181345v 1.1952h 0.181345v -0.609406h 0.181345v -0.332296h 0.181345v 0.74861h
 0.181345v -0.453599h 0.181345v 0.607874h 0.181345v 1.12639h 0.181345v -0.852563h 0.181345v 0.936324h 0.181345v 0.0842277h 0.181345v 2.5718h 0.181345v 0.201587h 0.181345v -0.0506494h 0.181345v 1.21015h 0.181345v -0.0546794h 0.181345v 1.49018h
 0.181345v -1.1591h 0.181345v 0.453033h 0.181345v 0.231711h 0.181345v 0.595307h 0.181345v -1.8816h 0.181345v 4.10127h 0.181345v -2.87324h 0.181345v 1.21015h 0.181345v -0.617181h 0.181345v 1.32651h 0.181345v -2.26441h 0.181345v 2.46379h 0.181345v
 0.269986h 0.181345v -2.03586h 0.181345v 0.983686h 0.181345v -0.314332h 0.181345v -2.03439h 0.181345v 4.6793h 0.181345v -1.00351h 0.181345v 0.139345h 0.181345v -0.277418h 0.181345v 1.06766h 0.181345v -0.507635h 0.181345v -1.87553h 0.36269v 0.190177h
 0.181345v 0.192599h 0.36269v -0.0644728h 0.181345v -0.630043h 0.181345v 0.0618358h 0.181345v 1.70349h 0.181345v -2.25111h 0.181345v 1.50686h 0.181345v 2.42994h 0.181345v -2.75649h 0.181345v 0.326553h 0.181345v -1.14399h 0.181345v -0.242878h
 0.181345v 0.0603547h 0.181345v 0.935484h 0.181345v -1.98664h 0.181345v -0.929842h 0.181345v 0.430459h 0.181345v 0.275396h 0.181345v -2.02579h 0.181345v 1.16162h 0.181345v 2.13931h 0.181345v -0.53471h 0.181345v -1.07031h 0.181345v 0.497557h 0.181345v
 0.986992h 0.181345v 0.549837h 0.181345v 0.12495h 0.36269v -0.674786h 0.181345v 2.82866h 0.181345v -1.04791h 0.181345v -1.53884h 0.181345v 1.47149h 0.181345v -0.397887h 0.181345v -0.57786h 0.181345v 1.87553h 0.181345v -0.83244h 0.181345v -0.660316h
 0.181345v 0.727962h 0.181345v -0.532878h 0.181345v 0.737651h 0.181345v 0.138073h 0.181345v 0.929583h 0.181345v -0.219648h 0.181345v 1.52846h 0.181345v -1.16058h 0.181345v -0.797822h 0.181345v 1.0987h 0.181345v -0.15119h 0.181345v -2.03763h 0.181345v
 2.65168h 0.181345v -2.25204h 0.181345v 0.903924h 0.181345v 0.216503h 0.181345v 0.442534h 0.181345v 1.00572h 0.181345v -2.01884h 0.181345v 1.23935h 0.181345v 0.699711h 0.181345v -2.88853h 0.181345v 2.03763h 0.181345v -1.29669h 0.181345v 0.706616h
 0.181345v 1.12599h 0.181345v -2.24125h 0.181345v 0.20294h 0.181345v 0.696844h 0.181345v 1.89708h 0.181345v -3.58243h 0.181345v 4.41335h 0.181345v -2.14643h 0.181345v -1.21015h 0.181345v -0.271197h 0.181345v -0.463195h 0.181345v 0.666136h 0.181345v
 2.03831h 0.181345v -2.03831h 0.181345v 0.205702h 0.181345v -1.38439h 0.181345v 1.04309h 0.181345v -0.788988h 0.181345v 0.521391h 0.181345v -0.648977h 0.181345v 0.715433h 0.181345v 0.681144h 0.181345v -0.7476h 0.181345v 2.13294h 0.181345v -1.59293h
 0.181345v 1.44098h 0.181345v -1.23339h 0.181345v 0.281289h 0.181345v 1.56929h 0.181345v -2.26293h 0.181345v 1.27243h 0.181345v -0.436151h 0.181345v 0.289365h 0.181345v 0.0732149h 0.181345v -0.994084h 0.181345v -1.8721h 0.181345v 3.08798h 0.181345v
 -2.01884h 0.181345v -0.322376h 0.181345v -0.685921h 0.181345v 0.558871h 0.181345v -0.0631268h 0.181345v 0.775495h 0.181345v 1.24334h 0.181345v -2.93541h 0.181345v 1.29935h 0.181345v 1.07081h 0.181345v -2.77959h 0.181345v 2.7104h 0.181345v 0.851991h
 0.181345v 1.21624h 0.181345v -0.771537h 0.36269v -0.297918h 0.181345v -1.87061h 0.181345v 2.54938h 0.181345v -0.0769408h 0.181345v -0.378938h 0.181345v 0.533213h 0.181345v -1.19225h 0.181345v 0.289365h 0.181345v 1.2956h 0.181345v -1.22239h 0.181345v
 1.87276h 0.181345v -1.57631h 0.181345v -0.659037h 0.181345v 3.53576h 0.181345v -3.53576h 0.181345v 2.48663h 0.181345v -1.52521h 0.181345v 1.35722h 0.181345v -1.73427h 0.181345v 1.32228h 0.181345v 1.6291h 0.181345v -0.87925h 0.181345v -0.911548h
 0.181345v 0.573683h 0.181345v 0.167989h 0.181345v 2.47201h 0.181345v -2.64h 0.181345v 2.44236h 0.181345v -3.01605h 0.181345v 2.91819h 0.181345v -0.385214h 0.181345v -2.45234h 0.181345v 2.45234h 0.181345v -0.560021h 0.181345v 0.945235h 0.181345v
 -1.48525h 0.181345v 2.59818h 0.181345v -0.104629h 0.181345v -1.5825h 0.181345v 0.672059h 0.181345v 1.54936h 0.181345v -1.84105h 0.181345v 0.58912h 0.181345v -1.15614h 0.181345v 3.07519h 0.181345v -3.62171h 0.181345v 0.827377h 0.181345v 1.69829h
 0.181345v -0.519599h 0.181345v 0.414241h 0.181345v -1.11293h 0.181345v 0.495744h 0.181345v 0.512552h 0.36269v 0.316085h 0.181345v 0.106847h 0.181345v -1.13574h 0.181345v 0.505694h 0.181345v -0.405899h 0.181345v 0.717639h 0.181345v -0.717639h
 0.181345v -0.7805h 0.181345v 3.16123h 0.181345v -1.97483h 0.181345v 2.21106h 0.181345v -1.58102h 0.181345v -2.37646h 0.181345v 3.72125h 0.181345v -1.1288h 0.181345v 0.329879h 0.181345v 0.566315h 0.181345v -1.84472h 0.181345v 0.732544h 0.181345v
 1.58102h 0.181345v -1.89932h 0.181345v 1.31551h 0.181345v -1.52405h 0.181345v 0.961947h 0.181345v 0.562103h 0.181345v -0.451342h 0.181345v 0.451342h 0.181345v 1.69508h 0.181345v -1.34751h 0.181345v -0.798917h 0.181345v 2.2751h 0.181345v -3.9567h
 0.181345v 2.48052h 0.181345v -0.46168h 0.181345v -0.98995h 0.181345v 2.17171h 0.181345v -3.49609h 0.181345v 2.31433h 0.181345v -1.40995h 0.181345v -0.608895h 0.181345v 0.817434h 0.181345v 0.864169h 0.181345v -0.652713h 0.181345v 2.04929h 0.181345v
 0.495744h 0.181345v -1.66833h 0.181345v 0.458182h 0.181345v 0.116748h 0.181345v -0.798917h 0.181345v 1.27514h 0.181345v -0.592972h 0.181345v 0.234405h 0.181345v -0.804995h 0.181345v -1.38999h 0.181345v 1.72975h 0.181345v -0.114105h 0.181345v
 1.80919h 0.181345v -0.749848h 0.181345v -2.36538h 0.181345v 2.98764h 0.181345v -0.743699h 0.181345v -4.46989h 0.181345v 1.31551h 0.181345v 1.87924h 0.181345v -0.758811h 0.181345v -0.417098h 0.181345v 1.17591h 0.181345v -0.864169h 0.181345v -0.31174h
 0.181345v -1.37539h 0.181345v 0.869694h 0.181345v -0.295492h 0.181345v 0.395286h 0.181345v 1.25193h 0.181345v -3.39541h 0.181345v 0.440814h 0.181345v 0.733178h 0.181345v -3.20369h 0.181345v 2.29264h 0.181345v -1.18974h 0.181345v 0.0819451h 0.181345v
 -1.10868h 0.181345v -0.377048h 0.181345v -0.868306h 0.181345v -0.416141h 0.181345v -0.0682567h 0.181345v 0.625696h 0.181345v 1.96822h 0.181345v -1.31551h 0.181345v -1.87924h 0.181345v 0.600828h 0.181345v -0.269986h 0.181345v 1.77238h 0.181345v
 -0.297918h 0.181345v -0.436151h 0.181345v -0.354087h 0.181345v 0.0701571h 0.181345v 1.39885h 0.181345v 0.470054h 0.181345v -1.8689h 0.181345v 2.43643h 0.181345v -0.164337h 0.181345v -0.0815034h 0.181345v -1.17259h 0.181345v -0.734068h 0.181345v
 0.216503h 0.181345v 1.52846h 0.181345v -0.239353h 0.181345v -2.61067h 0.181345v 0.750977h 0.181345v -1.21015h 0.181345v -0.192599h 0.181345v -1.97092h 0.181345v -0.111579h 0.181345v -3.37367h 0.181345v -1.64176h 0.181345v -0.777489h 0.181345v
 -2.8572h 0.181345v 0.971566h 0.181345v -1.70623h 0.181345v -1.23312h 0.181345v -1.51839h 0.181345v -0.823987h 0.181345v -1.30961h 0.181345v -0.552154h 0.181345v -0.890792h 0.181345v -0.878361h 0.181345v 0.0557548h 0.181345v -0.258448h 0.181345v
 -0.609858h 0.181345v 0.757001h 0.181345v 0.260998h 0.181345v 0.0376559h 0.181345v 1.09435h 0.181345v -0.498359h 0.181345v 2.67435h 0.181345v 0.966389h 0.181345v 1.99747h 0.181345v -0.0851768h 0.181345v 1.26925h 0.181345v 3.36598h 0.181345v 0.668562h
 0.181345v 1.47721h 0.181345v 1.588h 0.181345v 2.11058h 0.181345v 1.36191h 0.181345v 1.84283h 0.181345v 0.643452h 0.181345v 4.08396h 0.181345v -1.10675h 0.181345v 0.916574h 0.181345v 0.87529h 0.181345v 0.5091h 0.181345v 1.29669h 0.181345v -1.19278h
 0.181345v 2.12347h 0.181345v 0.241907h 0.36269v 0.495744h 0.36269v -2.11304h 0.181345v 3.70597h 0.181345v -1.21015h 0.181345v -0.256258h 0.36269v 1.05217h 0.181345v -1.17869h 0.181345v 1.45358h 0.181345v -2.07076h 0.181345v 0.999957h 0.181345v
 -0.63268h 0.181345v 2.41342h 0.181345v -2.28899h 0.181345v -0.731699h 0.181345v 0.483844h 0.181345v 1.14882h 0.181345v -0.262943h 0.181345v -0.762456h 0.181345v 1.56541h 0.181345v -1.68883h 0.181345v 2.24886h 0.181345v 0.880958h 0.181345v -3.00639h
 0.181345v 1.84283h 0.181345v -0.277418h 0.181345v -1.31551h 0.181345v 2.16352h 0.181345v -0.57059h 0.181345v 1.78074h 0.181345v -1.92009h 0.181345v 1.76341h 0.181345v -2.70445h 0.181345v 1.65097h 0.181345v 1.05348h 0.181345v -3.09048h 0.181345v
 0.386034h 0.181345v 0.802959h 0.181345v -0.802959h 0.181345v 1.22102h 0.181345v -0.140641h 0.181345v -1.33882h 0.181345v 2.96289h 0.181345v -2.3083h 0.181345v 2.3083h 0.181345v -0.308558h 0.181345v -2.13294h 0.181345v -1.27124h 0.181345v 3.1018h
 0.181345v -0.587213h 0.181345v -0.28527h 0.181345v -0.140641h 0.181345v 3.09625h 0.181345v -0.672059h 0.181345v -0.485138h 0.181345v -0.314987h 0.181345v -1.62407h 0.181345v -0.684227h 0.181345v 3.95327h 0.181345v -2.84313h 0.181345v -0.703329h
 0.181345v 0.703329h 0.181345v 1.99828h 0.181345v -0.955192h 0.181345v -1.04309h 0.181345v 1.19816h 0.181345v 0.636677h 0.181345v -1.24762h 0.181345v -0.587213h 0.181345v 0.290756h 0.181345v -0.146077h 0.181345v 2.01884h 0.181345v 4.62889h 0.181345v
 -6.50165h 0.181345v -0.994084h 0.181345v 1.90149h 0.181345v 0.156673h 0.181345v -3.99085h 0.181345v 6.19076h 0.181345v 3.23767h 0.181345v -3.94928h 0.181345v 1.08038h 0.181345v -2.25037h 0.181345v 1.34478h 0.181345v 1.47618h 0.181345v -2.65926h
 0.181345v -0.945235h 0.181345v 0.623546h 0.181345v -1.79842h 0.181345v 0.28527h 0.181345v -3.91116h 0.181345v -1.6816h 0.181345v 0.817434h 0.181345v -2.86112h 0.181345v 0.53054h 0.181345v -3.08292h 0.181345v -1.92682h 0.181345v -1.1803h 0.181345v
 -2.2707h 0.181345v 0.364327h 0.181345v -2.2929h 0.181345v -0.179988h 0.181345v -2.77139h 0.181345v -2.40487h 0.181345v -1.07271h 0.181345v -0.379817h 0.181345v -1.89572h 0.181345v -1.08038h 0.36269v -0.304968h 0.181345v -1.29033h 0.181345v 0.128489h
 0.181345v 0.392153h 0.181345v -1.02395h 0.181345v 0.826603h 0.181345v -0.344604h 0.181345v 0.214455h 0.181345v 0.798247h 0.181345v 0.603905h 0.181345v -0.304968h 0.181345v 2.33058h 0.181345v 1.59895h 0.181345v 0.520863h 0.181345v 1.96106h 0.181345v
 1.02789h 0.181345v 2.20448h 0.181345v 2.68633h 0.181345v -0.767619h 0.181345v 4.10197h 0.181345v 2.48407h 0.181345v 0.873246h 0.181345v 0.24718h 0.181345v 2.7233h 0.181345v 2.36377h 0.181345v 3.51975h 0.181345v 2.37959h 0.181345v 1.63116h 0.181345v
 -0.190177h 0.181345v 1.59293h 0.181345v 1.54634h 0.181345v 0.714409h 0.181345v -0.714409h 0.181345v 2.80308h 0.181345v -2.33058h 0.181345v 0.241907h 0.181345v 3.25223h 0.181345v -3.96664h 0.181345v 3.08568h 0.181345v -0.83244h 0.181345v 3.64609h
 0.181345v -4.93909h 0.181345v 2.41342h 0.181345v -1.38802h 0.181345v 2.59818h 0.181345v 1.66309h 0.181345v -3.44383h 0.181345v 4.92001h 0.181345v -5.73744h 0.181345v -1.98565h 0.181345v 6.96699h 0.36269v 2.39216h 0.181345v -3.79958h 0.181345v
 0.687338h 0.181345v -5.03676h 0.181345v 2.16352h 0.181345v 1.8536h 0.181345v 0.672059h 0.181345v -0.339763h 0.181345v -5.7904h 0.181345v 3.89808h 0.181345v 1.23488h 0.181345v -1.23488h 0.181345v 0.299393h 0.181345v 3.00035h 0.181345v -7.64916h
 0.181345v 3.48525h 0.181345v 3.44383h 0.181345v -5.28666h 0.181345v 3.00639h 0.181345v -0.592972h 0.181345v -2.16352h 0.181345v 5.03676h 0.181345v 0.355754h 0.181345v -1.70054h 0.181345v 1.34478h 0.181345v 0.355754h 0.181345v -2.63602h 0.181345v
 -3.25223h 0.181345v 2.65926h 0.181345v -1.12043h 0.181345v 3.64609h 0.181345v -3.91369h 0.36269v -0.775495h 0.181345v 5.03676h 0.181345v -3.16123h 0.181345v 1.81644h 0.181345v -4.18772h 0.181345v 7.00868h 0.181345v -3.75645h 0.181345v -2.75649h
 0.181345v -0.737651h 0.181345v 2.90117h 0.181345v -0.57059h 0.181345v -0.817434h 0.181345v -1.0254h 0.544034v 0.249904h 0.181345v 5.75684h 0.181345v -1.73971h 0.36269v -2.14159h 0.181345v 2.81365h 0.181345v -3.64609h 0.181345v -0.53054h 0.181345v
 5.61761h 0.181345v -3.06823h 0.181345v -0.604834h 0.36269v -2.20299h 0.181345v 4.43508h 0.181345v -2.52566h 0.181345v 0.293579h 0.36269v -1.94455h 0.181345v 0.53054h 0.181345v -1.78074h 0.181345v -0.238097h 0.181345v 5.66493h 0.181345v -2.23208h
 0.36269v -1.14159h 0.181345v 0.560021h 0.181345v 0.581565h 0.181345v -0.293579h 0.181345v 3.59332h 0.181345v 1.96625h 0.181345v -4.66116h 0.181345v -3.06193h 0.181345v 4.34942h 0.181345v 6.64271h 0.181345v -5.95538h 0.181345v 1.47618h 0.181345v
 -6.25883h 0.181345v 2.50239h 0.181345v 2.63602h 0.181345v 1.51315h 0.181345v -3.21368h 0.181345v -1.52846h 0.181345v 1.21015h 0.181345v -0.916574h 0.181345v 2.23208h 0.181345v 1.06766h 0.181345v -0.720081h 0.181345v -2.28027h 0.181345v 0.305441h
 0.181345v -3.31184h 0.181345v 1.0254h 0.181345v 5.73744h 0.181345v -6.25883h 0.181345v 2.20299h 0.181345v 2.57966h 0.181345v 0.355754h 0.181345v -2.33058h 0.181345v -1.469h 0.181345v 1.78074h 0.181345v 1.66309h 0.181345v -1.97483h 0.181345v 0.31174h
 0.181345v -1.49814h 0.181345v 0.880958h 0.181345v 0.617181h 0.181345v -3.37367h 0.181345v -0.249904h 0.181345v 3.94188h 0.181345v 1.34478h 0.181345v -3.16123h 0.181345v 2.47389h 0.181345v 3.37367h 0.181345v -0.414241h 0.181345v -2.27209h 0.181345v
 2.27209h 0.181345v 0.840152h 0.181345v -5.08707h 0.181345v 0.31174h 0.181345v 0.318303h 0.36269v 0.325149h 0.181345v 1.01963h 0.181345v -2.28027h 0.181345v -1.44098h 0.181345v 2.37646h 0.181345v 5.81186h 0.181345v 0.480003h 0.181345v -5.29465h
 0.36269v -0.339763h 0.181345v 1.40742h 0.181345v -0.364327h 0.181345v 6.13016h 0.181345v -7.50555h 0.36269v 5.02148h 0.181345v 0.945235h 0.181345v -1.39658h 0.181345v -2.83042h 0.181345v 3.74699h 0.181345v -0.916574h 0.181345v 2.40487h 0.181345v
 -3.26904h 0.181345v 6.13016h 0.181345v 2.75649h 0.181345v -6.13016h 0.181345v 7.72309h 0.181345v -6.68h 0.181345v -4.21382h 0.181345v 5.92722h 0.181345v -4.19747h 0.181345v 7.57114h 0.181345v -5.08707h 0.181345v 2.33058h 0.181345v -4.34942h
 0.181345v 4.34942h 0.181345v -5.26599h 0.181345v 3.48525h 0.181345v -1.59293h 0.181345v 2.16352h 0.181345v 2.52566h 0.36269v -4.68918h 0.181345v 1.04309h 0.181345v 4.34942h 0.181345v -4.34942h 0.181345v 3.64609h 0.181345v -4.17663h 0.181345v
 0.53054h 0.181345v 1.12043h 0.181345v 1.8536h 0.181345v 1.37539h 0.181345v 4.11132h 0.181345v -0.916574h 0.181345v -6.99433h 0.181345v 6.99433h 0.181345v -2.4571h 0.181345v 1.59293h 0.181345v -3.03391h 0.181345v 6.83349h 0.181345v -6.13016h
 0.181345v 4.11132h 0.181345v 2.01884h 0.181345v -3.79958h 0.181345v 0.864169h 0.181345v -0.864169h 0.181345v -2.33058h 0.181345v 6.13016h 0.181345v 1.12043h 0.181345v -2.16352h 0.181345v 3.37367h 0.181345v 4.34942h 0.181345v -4.34942h 0.181345v
 -7.72309h 0.36269v 2.4571h 0.181345v 6.5815h 0.181345v -8.26311h 0.181345v 3.57392h 0.181345v -3.57392h 0.181345v -4.74214h 0.181345v 13.0052h 0.181345v -5.66493h 0.181345v 7.10591h 0.181345v -6.13016h 0.181345v 7.72309h 0.181345v -10.4796h
 0.181345v -3.03391h 0.181345v 5.7904h 0.181345v -0.975747h 0.181345v 0.975747h 0.181345v 3.37367h 0.181345v -4.34942h 0.181345v 10.4796h 0.181345v -11.3962h 0.36269v 1.89232h 0.181345v 2.16352h 0.181345v -4.05584h 0.725379v 0.916574h 0.181345v
 -4.11132h 0.181345v -4.34942h 0.181345v 5.08707h 0.181345v -1.44098h 0.181345v -8.65583h 0.181345v 6.13016h 0.181345v -3.13927h 0.181345v -0.465232h 0.181345v 8.34664h 0.181345v -5.31273h 0.181345v 3.09625h 0.181345v -4.68918h 0.36269v -0.975747h
 0.181345v 2.01884h 0.181345v -4.21382h 0.181345v -3.61687h 0.181345v 5.34663h 0.181345v 1.44098h 0.181345v 1.59293h 0.181345v -4.34942h 0.181345v -0.817434h 0.181345v 6.9476h 0.181345v -7.72309h 0.181345v 4.34942h 0.181345v 1.59293h 0.181345v
 -2.56868h 0.181345v 2.56868h 0.36269v -2.56868h 0.181345v 7.8814h 0.181345v 6.9476h 0.181345v -9.83613h 0.181345v 3.70597h 0.181345v -6.13016h 0.181345v 6.13016h 0.181345v -4.34942h 0.181345v 6.13016h 0.181345v -6.13016h 0.181345v 2.75649h 0.181345v
 2.4571h 0.181345v -5.21359h 0.181345v 1.31551h 0.181345v 1.44098h 0.181345v -4.53723h 0.181345v 0.57059h 0.181345v -0.57059h 0.181345v 1.16356h 0.181345v -4.64881h 0.181345v -0.864169h 0.181345v 0.864169h 0.181345v -4.89528h 0.181345v 0.997208h
 0.181345v 1.44098h 0.181345v -5.08707h 0.181345v -3.58813h 0.181345v 2.04929h 0.181345v -4.59133h 0.181345v 0.737651h 0.181345v -1.61182h 0.181345v -1.45641h 0.181345v -2.93541h 0.181345v 2.037h 0.181345v 1.8536h 0.181345v -4.51287h 0.181345v
 -1.39658h 0.181345v -0.110761h 0.181345v -3.70117h 0.181345v 2.73922h 0.181345v -0.806529h 0.181345v -0.951184h 0.181345v 0.279125h 0.181345v -1.43244h 0.181345v -2.44h 0.181345v 2.78559h 0.181345v -1.88718h 0.181345v -0.380847h 0.181345v 0.227355h
 0.181345v 1.52521h 0.181345v -2.70008h 0.181345v 1.6401h 0.181345v -0.234405h 0.181345v 0.155866h 0.181345v -2.51964h 0.181345v -0.838359h 0.181345v -0.49372h 0.181345v 1.20004h 0.181345v -1.44098h 0.181345v 1.70623h 0.181345v 1.47447h 0.181345v
 -1.60767h 0.181345v -3.53199h 0.181345v 1.08816h 0.181345v 0.692587h 0.181345v 0.11858h 0.181345v 0.42251h 0.181345v -1.06348h 0.181345v 0.941555h 0.181345v -1.55645h 0.181345v -0.271441h 0.181345v 0.381396h 0.181345v 0.27844h 0.181345v 1.2289h
 0.181345v 1.1392h 0.181345v -1.67814h 0.181345v 1.61255h 0.181345v 1.29767h 0.181345v 1.26373h 0.181345v -0.230826h 0.181345v 0.783535h 0.181345v -0.159989h 0.181345v 2.22485h 0.181345v 2.07161h 0.181345v 1.55773h 0.181345v 2.54699h 0.181345v
 -1.07081h 0.181345v 5.1908h 0.181345v -1.22416h 0.181345v 0.864169h 0.181345v 4.05584h 0.181345v 1.21015h 0.181345v -0.249904h 0.181345v 2.707h 0.181345v 1.56003h 0.181345v 7.50555h 0.181345v 0.549837h 0.181345v 1.16356h 0.181345v -1.16356h
 0.181345v 4.53723h 0.181345v 9.0386h 0.181345v -5.66493h 0.181345v 5.66493h 0.36269v -6.5815h 0.181345v 15.7456h 0.181345v -4.34942h 0.181345v -1.78074h 0.181345v -5.55957h 0.181345v 11.6897h 0.181345v 6.13016h 0.181345v -15.2942h 0.181345v 11.9206h
 0.181345v -2.75649h 0.181345v 2.75649h 0.181345v -5.08707h 0.181345v -2.01884h 0.181345v 10.4796h 0.181345v -8.46074h 0.181345v 18.9403h 0.181345v -10.4796h 0.181345v -3.37367h 0.181345v 3.37367h 0.36269v -6.13016h 0.181345v 27.0893h 0.181345v
 -27.0893h 0.181345v 16.6097h 0.181345v -10.4796h 0.181345v 4.34942h 0.181345v 16.6097h 0.544034v -20.9592h 0.181345v -3.37367h 0.181345v 7.72309h 0.181345v -7.72309h 0.181345v 3.37367h 0.36269v 4.34942h 0.36269v 6.13016h 0.181345v -10.4796h
 0.181345v 20.9592h 0.181345v -10.4796h 0.181345v 10.4796h 0.181345v -16.6097h 0.181345v 6.13016h 0.181345v -6.13016h 0.181345v -7.72309h 0.181345v -2.75649h 0.181345v 6.13016h 0.181345v 4.34942h 0.181345v 6.13016h 0.181345v -16.6097h 0.181345v
 -6.13016h 0.181345v 8.88665h 0.181345v 13.8533h 0.181345v 10.4796h 0.181345v -10.4796h 0.181345v -13.8533h 0.181345v 3.37367h 0.181345v 4.34942h 0.36269v -4.34942h 0.181345v 10.4796h 0.181345v -6.13016h 0.181345v -4.34942h 0.181345v -8.46074h
 0.181345v 18.9403h 0.181345v -6.13016h 0.181345v 6.13016h 0.181345v -10.4796h 0.36269v -6.13016h 0.181345v -4.34942h 0.181345v 14.829h 0.181345v -14.829h 0.181345v 7.10591h 0.181345v 3.37367h 0.181345v -12.2603h 0.181345v 8.88665h 0.544034v
 -5.08707h 0.181345v 5.08707h 0.181345v -11.9206h 0.181345v -4.68918h 0.181345v 4.68918h 0.181345v 4.81465h 0.181345v -8.46074h 0.181345v 3.64609h 0.181345v 4.81465h 0.36269v -10.4796h 0.181345v 4.34942h 0.181345v 8.149h 0.181345v -12.4984h 0.181345v
 -1.78074h 0.181345v 3.79958h 0.181345v -3.79958h 0.181345v -0.817434h 0.36269v -2.88853h 0.36269v 3.70597h 0.181345v -1.59293h 0.181345v 2.4571h 0.36269v 0.916574h 0.181345v 4.34942h 0.181345v -3.37367h 0.181345v 3.37367h 0.181345v 6.13016h
 0.181345v -4.81465h 0.181345v 9.16407h 0.181345v -11.6897h 0.181345v -4.05584h 0.181345v 2.93541h 0.181345v 12.8102h 0.181345v -6.13016h 0.181345v -3.03391h 0.181345v -1.31551h 0.181345v 8.149h 0.181345v 5.08707h 0.181345v -8.88665h 0.181345v
 3.79958h 0.181345v -9.35915h 0.181345v 14.4462h 0.36269v -2.75649h 0.181345v 10.4796h 0.181345v -10.4796h 0.181345v 16.6097h 0.181345v -20.9592h 0.181345v 14.829h 0.181345v 6.13016h 0.181345v -13.8533h 0.181345v 13.8533h 0.181345v -10.4796h
 0.181345v 4.34942h 0.544034v -4.34942h 0.181345v 10.4796h 0.181345v -6.13016h 0.181345v -4.34942h 0.181345v 31.4387h 0.181345v -10.4796h 0.36269v -20.9592h 0.36269v 10.4796h 0.544034v 10.4796h 0.181345v -10.4796h 0.544034v -6.13016h 0.181345v
 -10.4796h 0.181345v 27.0893h 0.181345v -16.6097h 0.181345v 16.6097h 0.181345v -24.3328h 0.181345v 13.8533h 0.181345v 10.4796h 0.181345v -27.0893h 0.181345v 2.75649h 0.181345v -5.08707h 0.181345v 2.33058h 0.181345v 2.75649h 0.36269v -5.08707h
 0.181345v 12.8102h 0.36269v 6.13016h 0.36269v -10.4796h 0.181345v 10.4796h 0.181345v -13.8533h 0.181345v 3.37367h 0.181345v 10.4796h 0.181345v -13.8533h 0.181345v 13.8533h 0.181345v -20.9592h 0.181345v 20.9592h 0.544034v -25.7738h 0.181345v 25.7738h
 0.181345v -6.13016h 0.181345v -7.72309h 0.36269v -7.10591h 0.181345v 2.01884h 0.36269v 5.08707h 0.181345v -5.08707h 0.181345v 8.46074h 0.181345v -3.37367h 0.181345v 24.3328h 0.36269v -33.2195h 0.181345v 1.78074h 0.181345v 2.01884h 0.181345v
 -3.79958h 0.181345v 16.6097h 0.181345v -7.72309h 0.181345v -11.9206h 0.181345v 9.16407h 0.181345v -4.34942h 0.181345v 2.01884h 0.181345v -6.83349h 0.36269v 3.03391h 0.181345v -1.59293h 0.181345v 3.37367h 0.181345v -1.78074h 0.181345v 6.13016h
 0.36269v -11.6897h 0.181345v 5.55957h 0.181345v 16.6097h 0.181345v -7.72309h 0.181345v -2.75649h 0.181345v 6.13016h 0.181345v 4.34942h 0.181345v -22.1693h 0.181345v 11.6897h 0.36269v -9.16407h 0.181345v 15.2942h 0.181345v -8.46074h 0.181345v
 5.08707h 0.181345v -14.4462h 0.181345v 17.8199h 0.181345v 10.4796h 0.181345v -16.6097h 0.181345v 6.13016h 0.181345v -12.2603h 0.181345v 12.2603h 0.181345v -12.2603h 0.181345v 22.7399h 0.181345v -10.4796h 0.181345v -6.13016h 0.181345v 6.13016h
 0.181345v 4.34942h 0.181345v 16.6097h 0.181345v -16.6097h 0.181345v -12.8102h 0.181345v 8.46074h 0.36269v -3.37367h 0.181345v 34.8124h 0.181345v -31.4387h 0.181345v 4.34942h 0.181345v -12.8102h 0.181345v 12.8102h 0.181345v -4.34942h 0.181345v
 20.9592h 0.181345v -33.2195h 0.181345v 3.79958h 0.181345v -3.79958h 0.181345v 3.79958h 0.181345v 5.08707h 0.181345v -2.75649h 0.181345v 2.75649h 0.181345v 3.37367h 0.181345v -8.46074h 0.181345v 12.8102h 0.181345v -18.2027h 0.181345v 3.37367h
 0.181345v 14.829h 0.181345v -7.72309h 0.36269v -8.88665h 0.181345v -3.03391h 0.181345v 15.2942h 0.181345v -3.37367h 0.36269v -5.08707h 0.181345v 2.33058h 0.181345v -2.33058h 0.181345v 2.33058h 0.181345v 6.13016h 0.181345v -12.2603h 0.181345v
 1.78074h 0.181345v 14.829h 0.181345v -12.8102h 0.181345v 5.08707h 0.181345v -7.10591h 0.181345v 7.10591h 0.181345v -2.75649h 0.181345v 2.75649h 0.181345v -2.75649h 0.181345v 16.6097h 0.181345v -16.6097h 0.181345v 10.4796h 0.181345v -19.6437h
 0.181345v 11.9206h 0.181345v -13.2361h 0.181345v 13.2361h 0.181345v -8.88665h 0.181345v -3.03391h 0.181345v 6.83349h 0.181345v 2.33058h 0.181345v 16.6097h 0.181345v -20.9592h 0.181345v -1.78074h 0.181345v 1.78074h 0.181345v -3.37367h 0.181345v
 5.39251h 0.181345v -3.79958h 0.181345v 8.88665h 0.181345v -14.4462h 0.181345v 5.55957h 0.181345v 1.78074h 0.181345v -1.78074h 0.181345v -4.34942h 0.181345v 2.75649h 0.181345v 1.59293h 0.181345v 6.13016h 0.181345v -4.34942h 0.36269v -7.34031h
 0.181345v 28.2995h 0.181345v -16.6097h 0.181345v -2.33058h 0.181345v 2.33058h 0.181345v -4.34942h 0.36269v -3.37367h 0.36269v -1.44098h 0.181345v 6.83349h 0.36269v -3.79958h 0.181345v -6.68h 0.181345v 2.33058h 0.181345v -1.21015h 0.181345v 2.52566h
 0.181345v -2.52566h 0.181345v 5.55957h 0.181345v -15.4462h 0.181345v 19.2458h 0.181345v -9.35915h 0.181345v 2.52566h 0.181345v 6.83349h 0.181345v -13.415h 0.181345v 5.26599h 0.181345v 1.31551h 0.181345v -3.64609h 0.181345v 6.68h 0.181345v -3.03391h
 0.181345v -2.52566h 0.181345v 3.96664h 0.181345v -7.10591h 0.181345v 4.34942h 0.36269v 2.75649h 0.181345v -5.08707h 0.181345v 15.5666h 0.181345v -22.4001h 0.181345v 9.16407h 0.181345v -2.33058h 0.36269v 5.08707h 0.181345v -5.08707h 0.181345v
 1.12043h 0.181345v -1.12043h 0.181345v -3.79958h 0.181345v 3.79958h 0.181345v -2.93541h 0.181345v 2.93541h 0.181345v 12.8102h 0.181345v 2.75649h 0.181345v -19.3662h 0.181345v 6.13016h 0.181345v -2.33058h 0.181345v -2.93541h 0.181345v -1.6816h
 0.181345v 2.59818h 0.181345v 4.34942h 0.181345v 1.31551h 0.181345v 4.81465h 0.181345v 2.01884h 0.181345v -8.149h 0.181345v -5.26599h 0.181345v 11.3962h 0.181345v -11.3962h 0.181345v -3.19475h 0.181345v 6.13016h 0.181345v -5.39251h 0.181345v 4.34942h
 0.181345v 9.50383h 0.181345v -9.50383h 0.181345v 1.04309h 0.181345v -3.79958h 0.181345v 0.864169h 0.181345v -0.864169h 0.181345v 7.44567h 0.181345v -3.64609h 0.181345v -7.50555h 0.181345v 7.50555h 0.181345v -6.13016h 0.181345v -1.37539h 0.181345v
 0.672059h 0.181345v 2.21647h 0.181345v 6.9476h 0.181345v -6.9476h 0.181345v -0.775495h 0.181345v -3.37367h 0.181345v 8.76618h 0.181345v -4.61702h 0.181345v 0.817434h 0.181345v -6.68h 0.181345v 3.64609h 0.181345v 0.703329h 0.181345v -3.79958h
 0.181345v 5.31273h 0.181345v 0.817434h 0.181345v -10.0537h 0.181345v 7.72309h 0.181345v -2.01884h 0.181345v 2.01884h 0.181345v -1.37539h 0.181345v 2.88853h 0.181345v -6.90566h 0.181345v 5.39251h 0.181345v 1.51315h 0.181345v -8.79798h 0.181345v
 4.05584h 0.181345v -1.12043h 0.181345v 3.64609h 0.181345v -5.66493h 0.181345v 2.01884h 0.181345v 1.12043h 0.181345v 3.96664h 0.181345v -1.44098h 0.36269v -4.17663h 0.181345v 8.07471h 0.181345v -2.4571h 0.181345v -2.11304h 0.181345v -4.51287h
 0.181345v 9.99958h 0.181345v -2.59818h 0.181345v -4.74214h 0.181345v 1.8536h 0.181345v -1.26063h 0.181345v 11.0968h 0.181345v -5.26599h 0.181345v -0.864169h 0.181345v 7.44567h 0.181345v -8.26311h 0.181345v -2.21647h 0.181345v 5.7904h 0.181345v
 -2.75649h 0.181345v -0.817434h 0.36269v 5.73744h 0.181345v -4.92001h 0.181345v 3.79958h 0.181345v 6.68h 0.181345v -10.4796h 0.181345v 1.78074h 0.181345v -1.78074h 0.181345v 4.92001h 0.181345v 3.96664h 0.36269v -11.9206h 0.181345v 13.5135h 0.181345v
 -11.297h 0.181345v 5.73744h 0.181345v 3.96664h 0.181345v -8.02248h 0.181345v 2.93541h 0.181345v -2.01884h 0.181345v 5.66493h 0.181345v 9.16407h 0.181345v -9.16407h 0.181345v -1.31551h 0.181345v -3.37367h 0.36269v -2.75649h 0.181345v 2.75649h
 0.36269v -1.89232h 0.181345v 15.7456h 0.181345v -4.34942h 0.181345v -8.46074h 0.181345v 5.08707h 0.181345v -9.70409h 0.181345v 8.26311h 0.181345v -2.52566h 0.181345v -2.16352h 0.181345v -1.89232h 0.181345v 2.93541h 0.181345v 2.33058h 0.181345v
 -1.21015h 0.36269v 2.52566h 0.181345v -4.68918h 0.181345v 2.16352h 0.181345v -1.12043h 0.181345v -3.79958h 0.181345v 2.75649h 0.181345v 6.13016h 0.181345v -2.75649h 0.181345v -1.21015h 0.181345v -3.13927h 0.181345v 14.829h 0.181345v -13.8533h
 0.181345v 9.50383h 0.181345v -3.37367h 0.181345v -5.08707h 0.181345v 3.64609h 0.181345v -7.44567h 0.36269v 1.78074h 0.181345v 4.34942h 0.181345v 1.31551h 0.181345v -2.52566h 0.36269v -1.12043h 0.181345v -3.79958h 0.181345v 2.75649h 0.181345v
 2.16352h 0.181345v 1.21015h 0.181345v 1.31551h 0.181345v -9.0386h 0.181345v 12.0725h 0.181345v -6.68h 0.181345v 15.5666h 0.181345v -16.6097h 0.181345v 7.72309h 0.181345v -10.4796h 0.181345v 14.2792h 0.181345v -16.6097h 0.36269v -0.703329h 0.181345v
 7.95392h 0.181345v -4.92001h 0.36269v -0.817434h 0.181345v -2.88853h 0.181345v 7.50555h 0.181345v -5.39251h 0.181345v 6.51294h 0.181345v -1.12043h 0.181345v -2.93541h 0.181345v -0.864169h 0.181345v 6.13016h 0.36269v -3.37367h 0.181345v -2.75649h
 0.181345v -4.9666h 0.181345v 6.74734h 0.181345v -1.78074h 0.181345v 3.79958h 0.181345v -4.61702h 0.36269v 1.6816h 0.181345v 0.916574h 0.181345v -1.78074h 0.181345v -1.59293h 0.181345v 1.59293h 0.181345v -0.817434h 0.181345v 0.817434h 0.181345v
 3.79958h 0.181345v -8.76618h 0.181345v 5.83077h 0.181345v 4.05584h 0.181345v 7.34031h 0.181345v -6.13016h 0.181345v -2.33058h 0.181345v -1.04309h 0.181345v 4.68918h 0.181345v -2.52566h 0.181345v -4.92001h 0.181345v 2.75649h 0.181345v -0.975747h
 0.181345v 0.975747h 0.181345v 4.68918h 0.181345v -7.44567h 0.181345v 10.4796h 0.181345v -7.72309h 0.181345v -2.75649h 0.181345v 2.75649h 0.181345v 6.13016h 0.181345v -8.02248h 0.181345v 9.61541h 0.181345v -15.4462h 0.181345v 6.74734h 0.181345v
 0.975747h 0.181345v 6.13016h 0.181345v -8.02248h 0.181345v -1.6816h 0.181345v 1.6816h 0.181345v 4.05584h 0.181345v -4.05584h 0.181345v 5.26599h 0.181345v 1.31551h 0.181345v -9.0386h 0.36269v -0.737651h 0.181345v 1.51315h 0.181345v 4.61702h 0.181345v
 -8.76618h 0.181345v 4.9666h 0.181345v 1.78074h 0.181345v 3.13927h 0.181345v -7.95392h 0.181345v 3.03391h 0.181345v -2.33058h 0.181345v 2.33058h 0.181345v -4.9666h 0.36269v 4.9666h 0.181345v -4.9666h 0.181345v 5.83077h 0.181345v -5.21359h 0.181345v
 2.75649h 0.181345v 0.775495h 0.181345v -2.88853h 0.181345v 6.46246h 0.181345v -3.57392h 0.181345v 0.817434h 0.181345v -1.59293h 0.181345v 3.37367h 0.181345v -4.11132h 0.181345v -2.63602h 0.181345v 1.93269h 0.181345v -3.09625h 0.181345v -0.549837h
 0.181345v 3.64609h 0.181345v -3.09625h 0.181345v 5.31273h 0.181345v 0.817434h 0.181345v -6.68h 0.181345v 5.86256h 0.181345v 6.9476h 0.181345v -10.4796h 0.181345v 3.53199h 0.181345v -0.775495h 0.181345v -0.737651h 0.181345v -2.63602h 0.181345v
 4.9666h 0.181345v -1.59293h 0.181345v -0.737651h 0.181345v -2.01884h 0.181345v 2.75649h 0.181345v -7.57114h 0.181345v 10.0282h 0.181345v 2.93541h 0.181345v -2.93541h 0.181345v 0.916574h 0.181345v -0.916574h 0.181345v -0.864169h 0.181345v 7.44567h
 0.181345v -10.4796h 0.181345v 9.16407h 0.181345v -2.33058h 0.181345v -3.79958h 0.181345v -1.59293h 0.181345v 9.0386h 0.181345v -3.64609h 0.181345v -5.39251h 0.181345v 5.39251h 0.181345v 2.33058h 0.181345v -9.83613h 0.181345v 8.62598h 0.181345v
 3.96664h 0.181345v -6.13016h 0.181345v 1.04309h 0.181345v 2.33058h 0.36269v -5.26599h 0.181345v 8.02248h 0.181345v -3.96664h 0.181345v 3.96664h 0.181345v 1.59293h 0.181345v -6.68h 0.181345v -2.93541h 0.181345v 6.5815h 0.181345v -7.44567h 0.181345v
 6.13016h 0.181345v -1.21015h 0.181345v -2.16352h 0.181345v 3.37367h 0.181345v -6.9476h 0.181345v 4.61702h 0.181345v 6.68h 0.181345v -14.829h 0.181345v 10.4796h 0.36269v -5.26599h 0.181345v 0.916574h 0.36269v -1.78074h 0.181345v 2.75649h 0.181345v
 -8.31606h 0.181345v 5.55957h 0.181345v 10.4796h 0.36269v -10.4796h 0.181345v 8.88665h 0.181345v 3.37367h 0.181345v -11.3962h 0.181345v 0.916574h 0.181345v -0.916574h 0.181345v 0.916574h 0.181345v -2.59818h 0.181345v 3.57392h 0.181345v -3.57392h
 0.181345v 1.6816h 0.181345v -4.57014h 0.181345v 7.50555h 0.181345v -5.39251h 0.181345v 7.72309h 0.181345v 6.13016h 0.181345v -13.8533h 0.181345v 1.59293h 0.181345v 4.92001h 0.181345v -1.12043h 0.181345v 3.64609h 0.181345v -1.31551h 0.181345v
 1.31551h 0.181345v 4.81465h 0.181345v -4.81465h 0.181345v 4.81465h 0.181345v 2.01884h 0.181345v -2.01884h 0.181345v -7.34031h 0.181345v 14.4462h 0.181345v -15.5666h 0.181345v 8.46074h 0.181345v -6.13016h 0.181345v 6.13016h 0.36269v 4.34942h
 0.181345v -4.34942h 0.181345v -9.50383h 0.181345v 3.37367h 0.181345v 4.34942h 0.36269v 1.78074h 0.181345v -3.37367h 0.181345v -2.75649h 0.181345v 13.2361h 0.181345v -5.08707h 0.181345v 2.33058h 0.181345v 2.75649h 0.181345v -2.75649h 0.181345v
 -9.16407h 0.181345v 11.9206h 0.181345v -5.08707h 0.181345v -5.39251h 0.181345v 1.59293h 0.181345v 1.78074h 0.181345v 7.10591h 0.36269v -2.75649h 0.181345v 6.13016h 0.181345v -6.13016h 0.181345v -11.6897h 0.181345v 7.34031h 0.181345v 10.4796h
 0.181345v 4.34942h 0.181345v -12.8102h 0.181345v -3.79958h 0.181345v 12.2603h 0.36269v -8.46074h 0.36269v -2.01884h 0.181345v 2.01884h 0.544034v 2.33058h 0.181345v -6.13016h 0.36269v 8.88665h 0.36269v -11.9206h 0.181345v 6.83349h 0.544034v -2.01884h
 0.181345v 2.01884h 0.181345v 8.46074h 0.181345v -15.2942h 0.181345v 1.44098h 0.36269v -1.44098h 0.181345v -2.52566h 0.181345v -3.13927h 0.181345v 25.3086h 0.181345v -18.2027h 0.181345v -2.75649h 0.181345v 8.149h 0.181345v -5.39251h 0.181345v
 7.72309h 0.181345v 10.4796h 0.181345v -20.9592h 0.181345v 6.13016h 0.181345v 2.01884h 0.181345v -5.39251h 0.181345v 3.37367h 0.181345v 14.829h 0.181345v -16.6097h 0.181345v 1.78074h 0.181345v -9.50383h 0.181345v 11.5227h 0.181345v -9.35915h
 0.181345v 22.1693h 0.181345v -16.6097h 0.181345v -7.72309h 0.181345v 4.68918h 0.181345v 11.9206h 0.181345v -8.88665h 0.181345v -3.03391h 0.36269v 11.9206h 0.181345v -2.75649h 0.181345v -14.829h 0.181345v 4.34942h 0.181345v 10.4796h 0.181345v
 -2.33058h 0.181345v -2.01884h 0.36269v 2.01884h 0.36269v -6.83349h 0.181345v -4.68918h 0.36269v 13.8533h 0.181345v -2.33058h 0.181345v -2.01884h 0.181345v 7.10591h 0.181345v -13.2361h 0.181345v 6.13016h 0.181345v 7.10591h 0.181345v -10.4796h
 0.36269v 3.37367h 0.36269v -7.34031h 0.181345v 5.55957h 0.181345v 12.2603h 0.181345v -10.4796h 0.181345v -7.34031h 0.181345v 9.35915h 0.181345v -2.01884h 0.544034v -11.3962h 0.181345v 13.415h 0.181345v -2.01884h 0.181345v -1.78074h 0.181345v
 1.78074h 0.725379v 2.01884h 0.181345v -10.4796h 0.36269v 6.68h 0.181345v -4.34942h 0.36269v 1.31551h 0.36269v -1.31551h 0.181345v 6.13016h 0.181345v -9.50383h 0.181345v 3.37367h 0.181345v 6.13016h 0.181345v -3.37367h 0.181345v -2.75649h 0.181345v
 6.13016h 0.181345v -9.50383h 0.181345v -2.75649h 0.181345v 8.88665h 0.181345v 1.59293h 0.181345v -12.0725h 0.181345v 2.4571h 0.181345v 6.5815h 0.181345v -9.77625h 0.181345v 7.25059h 0.181345v -1.12043h 0.181345v 3.64609h 0.181345v -3.64609h
 0.181345v -2.01884h 0.181345v 2.01884h 0.181345v 1.12043h 0.181345v -2.16352h 0.181345v -2.75649h 0.181345v 2.75649h 0.181345v 7.72309h 0.181345v -9.61541h 0.36269v 4.05584h 0.181345v -3.13927h 0.181345v 0.975747h 0.181345v 1.04309h 0.181345v
 5.08707h 0.181345v -3.96664h 0.181345v 2.52566h 0.181345v -6.5815h 0.181345v 1.89232h 0.36269v -1.89232h 0.181345v -6.42374h 0.181345v 1.8536h 0.181345v 12.5926h 0.181345v -9.70409h 0.181345v 8.26311h 0.181345v -8.26311h 0.181345v 4.61702h 0.181345v
 -2.01884h 0.181345v 0.975747h 0.181345v 2.16352h 0.181345v -2.16352h 0.181345v 9.50383h 0.181345v 2.01884h 0.181345v -14.2792h 0.181345v 3.79958h 0.181345v -5.39251h 0.36269v 13.8533h 0.181345v -13.0778h 0.181345v 4.61702h 0.181345v 5.08707h
 0.181345v -10.4796h 0.181345v 7.72309h 0.36269v 2.75649h 0.181345v -1.44098h 0.181345v -1.31551h 0.181345v -3.37367h 0.181345v 3.37367h 0.181345v -2.33058h 0.181345v 8.46074h 0.181345v -3.37367h 0.181345v 10.4796h 0.181345v -10.4796h 0.36269v
 7.72309h 0.181345v -10.4796h 0.36269v 16.6097h 0.181345v -8.46074h 0.181345v 2.33058h 0.181345v -4.34942h 0.181345v 14.829h 0.181345v -14.829h 0.181345v 4.34942h 0.181345v 16.6097h 0.181345v -6.13016h 0.181345v 6.13016h 0.181345v -16.6097h 0.181345v
 6.13016h 0.181345v -3.37367h 0.181345v 7.72309h 0.181345v -7.72309h 0.181345v -2.75649h 0.181345v 16.6097h 0.181345v -6.13016h 0.36269v -4.34942h 0.181345v 10.4796h 0.36269v 10.4796h 0.725379v -10.4796h 0.181345v -6.13016h 0.181345v -4.34942h
 0.181345v 10.4796h 0.181345v -6.13016h 0.36269v -4.34942h 0.181345v 4.34942h 0.181345v -4.34942h 0.181345v 4.34942h 0.181345v 16.6097h 0.36269v 10.4796h 0.36269v -31.4387h 0.181345v 10.4796h 0.181345v -6.13016h 0.181345v 6.13016h 0.181345v 20.9592h
 0.181345v -10.4796h 0.906724v -20.9592h 0.181345v 31.4387h 0.181345v -20.9592h 0.181345v 20.9592h 0.181345v -20.9592h 0.181345v 20.9592h 0.181345v -10.4796h 0.181345v -16.6097h 0.181345v 27.0893h 0.181345v -10.4796h 0.181345v 10.4796h 0.906724v
 -10.4796h 0.181345v 10.4796h 0.544034v -10.4796h 0.181345v 10.4796h 0.181345v -20.9592h 0.181345v 20.9592h 0.181345v -27.0893h 0.181345v 16.6097h 0.544034v 10.4796h 0.181345v -10.4796h 0.181345v 10.4796h 0.544034v -20.9592h 0.181345v 20.9592h
 0.725379v -27.0893h 0.181345v 16.6097h 0.181345v -16.6097h 0.181345v 16.6097h 0.181345v 10.4796h 0.181345v -20.9592h 0.181345v 10.4796h 0.181345v -16.6097h 0.181345v 27.0893h 0.181345v -10.4796h 0.544034v 10.4796h 0.181345v -27.0893h 0.181345v
 16.6097h 0.181345v 10.4796h 0.36269v -20.9592h 0.181345v 10.4796h 0.181345v -10.4796h 0.181345v 10.4796h 0.544034v -16.6097h 0.36269v 6.13016h 0.181345v 10.4796h 0.181345v -10.4796h 0.181345v 10.4796h 0.181345v -10.4796h 0.181345v 10.4796h 0.181345v
 10.4796h 0.181345v -10.4796h 0.544034v -16.6097h 0.181345v 6.13016h 0.36269v 10.4796h 0.181345v 10.4796h 0.181345v -10.4796h 0.181345v 10.4796h 0.36269v -27.0893h 0.181345v 16.6097h 0.181345v -10.4796h 0.181345v 10.4796h 0.181345v 10.4796h 0.181345v
 -10.4796h 0.181345v -10.4796h 0.181345v 20.9592h 0.181345v -10.4796h 0.181345v 10.4796h 0.181345v -10.4796h 0.181345v 10.4796h 0.36269v -20.9592h 0.181345v 10.4796h 0.181345v -10.4796h 0.181345v -6.13016h 0.181345v 16.6097h 0.181345v 10.4796h
 0.36269v -27.0893h 0.181345v 16.6097h 0.906724v -16.6097h 0.181345v 27.0893h 0.181345v -10.4796h 0.544034v 10.4796h 0.36269v -10.4796h 0.36269v 10.4796h 0.36269v -27.0893h 0.181345v 27.0893h 0.181345v -10.4796h 0.181345v -16.6097h 0.36269v 6.13016h
 0.36269v 20.9592h 0.181345v -10.4796h 0.544034v 10.4796h 0.36269v -10.4796h 0.181345v 10.4796h 0.181345v -10.4796h 0.36269v 10.4796h 0.36269v -10.4796h 0.181345v -10.4796h 0.181345v 20.9592h 0.36269v -10.4796h 0.36269v 10.4796h 0.181345v -10.4796h
 0.181345v 10.4796h 0.36269v -10.4796h 0.181345v -10.4796h 0.181345v 20.9592h 0.181345v -10.4796h 0.181345v 10.4796h 0.544034v -10.4796h 0.181345v -16.6097h 0.181345v 27.0893h 0.181345v -10.4796h 0.181345v 10.4796h 0.906724v -10.4796h 0.544034v
 -10.4796h 0.181345v 20.9592h 0.181345v -10.4796h 0.181345v -10.4796h 0.181345v 20.9592h 0.36269v -20.9592h 0.181345v 10.4796h 0.181345v -10.4796h 0.36269v 20.9592h 0.181345v -31.4387h 0.181345v 31.4387h 0.181345v -10.4796h 0.181345v 10.4796h
 0.725379v -20.9592h 0.36269v 20.9592h 0.181345v -20.9592h 0.181345v 10.4796h 0.181345v 10.4796h 0.181345v -10.4796h 0.544034v 10.4796h 0.181345v -10.4796h 0.36269v -16.6097h 0.181345v 16.6097h 0.544034v 10.4796h 0.181345v -10.4796h 0.181345v
 10.4796h 0.181345v -20.9592h 0.181345v 10.4796h 0.181345v -16.6097h 0.181345v 16.6097h 0.181345v 10.4796h 0.36269v -10.4796h 0.181345v 10.4796h 0.181345v -20.9592h 0.36269v 20.9592h 0.36269v -10.4796h 0.181345v 10.4796h 0.544034v -10.4796h 0.181345v
 10.4796h 0.36269v -10.4796h 0.544034v -20.9592h 0.181345v 20.9592h 0.181345v 10.4796h 0.181345v -20.9592h 0.181345v 20.9592h 0.181345v -10.4796h 0.181345v 10.4796h 0.181345v -10.4796h 0.181345v 10.4796h 0.181345v -10.4796h 0.36269v 10.4796h 1.08807v
 -10.4796h 0.181345v 10.4796h 0.181345v -20.9592h 0.181345v 20.9592h 0.181345v -10.4796h 0.181345" fill="none" stroke="black"/>
<path d="M57.1929,280.151h 453.543" fill="none" stroke="black"/>
<path d="M57.1929,272.68v 7.47068" fill="none" stroke="black"/>
<path d="M75.3318,276.415v 3.73534" fill="none" stroke="black"/>
<path d="M93.4707,276.415v 3.73534" fill="none" stroke="black"/>
<path d="M111.61,276.415v 3.73534" fill="none" stroke="black"/>
<path d="M129.749,276.415v 3.73534" fill="none" stroke="black"/>
<path d="M147.887,272.68v 7.47068" fill="none" stroke="black"/>
<path d="M166.026,276.415v 3.73534" fill="none" stroke="black"/>
<path d="M184.165,276.415v 3.73534" fill="none" stroke="black"/>
<path d="M202.304,276.415v 3.73534" fill="none" stroke="black"/>
<path d="M220.443,276.415v 3.73534" fill="none" stroke="black"/>
<path d="M238.582,272.68v 7.47068" fill="none" stroke="black"/>
<path d="M256.721,276.415v 3.73534" fill="none" stroke="black"/>
<path d="M274.86,276.415v 3.73534" fill="none" stroke="black"/>
<path d="M292.999,276.415v 3.73534" fill="none" stroke="black"/>
<path d="M311.138,276.415v 3.73534" fill="none" stroke="black"/>
<path d="M329.277,272.68v 7.47068" fill="none" stroke="black"/>
<path d="M347.415,276.415v 3.73534" fill="none" stroke="black"/>
<path d="M365.554,276.415v 3.73534" fill="none" stroke="black"/>
<path d="M383.693,276.415v 3.73534" fill="none" stroke="black"/>
<path d="M401.832,276.415v 3.73534" fill="none" stroke="black"/>
<path d="M419.971,272.68v 7.47068" fill="none" stroke="black"/>
<path d="M438.11,276.415v 3.73534" fill="none" stroke="black"/>
<path d="M456.249,276.415v 3.73534" fill="none" stroke="black"/>
<path d="M474.388,276.415v 3.73534" fill="none" stroke="black"/>
<path d="M492.527,276.415v 3.73534" fill="none" stroke="black"/>
<path d="M510.666,272.68v 7.47068" fill="none" stroke="black"/>
<path d="M510.666,272.68v 7.47068" fill="none" stroke="black"/>
<text xml:space="preserve" x="54.3523" y="290.27" fill="black" font-size="10.4952" font-family="Helvetica">0</text>
<text xml:space="preserve" x="139.569" y="290.27" fill="black" font-size="10.4952" font-family="Helvetica">500</text>
<text xml:space="preserve" x="227.449" y="290.27" fill="black" font-size="10.4952" font-family="Helvetica">1000</text>
<text xml:space="preserve" x="318.288" y="290.27" fill="black" font-size="10.4952" font-family="Helvetica">1500</text>
<text xml:space="preserve" x="408.831" y="290.27" fill="black" font-size="10.4952" font-family="Helvetica">2000</text>
<text xml:space="preserve" x="499.67" y="290.27" fill="black" font-size="10.4952" font-family="Helvetica">2500</text>
<text xml:space="preserve" x="265.323" y="301.218" fill="black" font-size="10.4952" font-family="Helvetica">Channel</text>
<path d="M57.1929,280.151v -249.023" fill="none" stroke="black"/>
<path d="M63.9961,280.151h -6.80315" fill="none" stroke="black"/>
<path d="M63.9961,277.394h -6.80315" fill="none" stroke="black"/>
<path d="M63.9961,275.063h -6.80315" fill="none" stroke="black"/>
<path d="M63.9961,273.045h -6.80315" fill="none" stroke="black"/>
<path d="M63.9961,271.264h -6.80315" fill="none" stroke="black"/>
<path d="M70.7992,269.671h -13.6063" fill="none" stroke="black"/>
<text xml:space="preserve" x="49.0263" y="273.404" fill="black" font-size="10.4952" font-family="Helvetica">1</text>
<path d="M63.9961,259.191h -6.80315" fill="none" stroke="black"/>
<path d="M63.9961,253.061h -6.80315" fill="none" stroke="black"/>
<path d="M63.9961,248.712h -6.80315" fill="none" stroke="black"/>
<path d="M63.9961,245.338h -6.80315" fill="none" stroke="black"/>
<path d="M63.9961,242.582h -6.80315" fill="none" stroke="black"/>
<path d="M63.9961,240.251h -6.80315" fill="none" stroke="black"/>
<path d="M63.9961,238.232h -6.80315" fill="none" stroke="black"/>
<path d="M63.9961,236.451h -6.80315" fill="none" stroke="black"/>
<path d="M70.7992,234.859h -13.6063" fill="none" stroke="black"/>
<text xml:space="preserve" x="41.629" y="238.489" fill="black" font-size="10.4952" font-family="Helvetica">10</text>
<path d="M63.9961,224.379h -6.80315" fill="none" stroke="black"/>
<path d="M63.9961,218.249h -6.80315" fill="none" stroke="black"/>
<path d="M63.9961,213.899h -6.80315" fill="none" stroke="black"/>
<path d="M63.9961,210.526h -6.80315" fill="none" stroke="black"/>
<path d="M63.9961,207.769h -6.80315" fill="none" stroke="black"/>
<path d="M63.9961,205.439h -6.80315" fill="none" stroke="black"/>
<path d="M63.9961,203.42h -6.80315" fill="none" stroke="black"/>
<path d="M63.9961,201.639h -6.80315" fill="none" stroke="black"/>
<path d="M70.7992,200.046h -13.6063" fill="none" stroke="black"/>
<text xml:space="preserve" x="49.0263" y="200.319" fill="black" font-size="7.16345" font-family="Helvetica">2</text>
<text xml:space="preserve" x="38.0783" y="204.757" fill="black" font-size="10.4952" font-family="Helvetica">10</text>
<path d="M63.9961,189.567h -6.80315" fill="none" stroke="black"/>
<path d="M63.9961,183.436h -6.80315" fill="none" stroke="black"/>
<path d="M63.9961,179.087h -6.80315" fill="none" stroke="black"/>
<path d="M63.9961,175.713h -6.80315" fill="none" stroke="black"/>
<path d="M63.9961,172.957h -6.80315" fill="none" stroke="black"/>
<path d="M63.9961,170.626h -6.80315" fill="none" stroke="black"/>
<path d="M63.9961,168.607h -6.80315" fill="none" stroke="black"/>
<path d="M63.9961,166.827h -6.80315" fill="none" stroke="black"/>
<path d="M70.7992,165.234h -13.6063" fill="none" stroke="black"/>
<text xml:space="preserve" x="49.0263" y="165.108" fill="black" font-size="7.16345" font-family="Helvetica">3</text>
<text xml:space="preserve" x="38.0783" y="169.842" fill="black" font-size="10.4952" font-family="Helvetica">10</text>
<path d="M63.9961,154.754h -6.80315" fill="none" stroke="black"/>
<path d="M63.9961,148.624h -6.80315" fill="none" stroke="black"/>
<path d="M63.9961,144.275h -6.80315" fill="none" stroke="black"/>
<path d="M63.9961,140.901h -6.80315" fill="none" stroke="black"/>
<path d="M63.9961,138.144h -6.80315" fill="none" stroke="black"/>
<path d="M63.9961,135.814h -6.80315" fill="none" stroke="black"/>
<path d="M63.9961,133.795h -6.80315" fill="none" stroke="black"/>
<path d="M63.9961,132.014h -6.80315" fill="none" stroke="black"/>
<path d="M70.7992,130.421h -13.6063" fill="none" stroke="black"/>
<text xml:space="preserve" x="49.0263" y="130.488" fill="black" font-size="7.16345" font-family="Helvetica">4</text>
<text xml:space="preserve" x="38.0783" y="134.927" fill="black" font-size="10.4952" font-family="Helvetica">10</text>
<path d="M63.9961,119.942h -6.80315" fill="none" stroke="black"/>
<path d="M63.9961,113.812h -6.80315" fill="none" stroke="black"/>
<path d="M63.9961,109.462h -6.80315" fill="none" stroke="black"/>
<path d="M63.9961,106.089h -6.80315" fill="none" stroke="black"/>
<path d="M63.9961,103.332h -6.80315" fill="none" stroke="black"/>
<path d="M63.9961,101.001h -6.80315" fill="none" stroke="black"/>
<path d="M63.9961,98.9826h -6.80315" fill="none" stroke="black"/>
<path d="M63.9961,97.2019h -6.80315" fill="none" stroke="black"/>
<path d="M70.7992,95.6089h -13.6063" fill="none" stroke="black"/>
<text xml:space="preserve" x="49.0263" y="95.5731" fill="black" font-size="7.16345" font-family="Helvetica">5</text>
<text xml:space="preserve" x="38.0783" y="100.307" fill="black" font-size="10.4952" font-family="Helvetica">10</text>
<path d="M63.9961,85.1293h -6.80315" fill="none" stroke="black"/>
<path d="M63.9961,78.9992h -6.80315" fill="none" stroke="black"/>
<path d="M63.9961,74.6498h -6.80315" fill="none" stroke="black"/>
<path d="M63.9961,71.2761h -6.80315" fill="none" stroke="black"/>
<path d="M63.9961,68.5196h -6.80315" fill="none" stroke="black"/>
<path d="M63.9961,66.189h -6.80315" fill="none" stroke="black"/>
<path d="M63.9961,64.1702h -6.80315" fill="none" stroke="black"/>
<path d="M63.9961,62.3894h -6.80315" fill="none" stroke="black"/>
<path d="M70.7992,60.7965h -13.6063" fill="none" stroke="black"/>
<text xml:space="preserve" x="49.0263" y="60.6579" fill="black" font-size="7.16345" font-family="Helvetica">6</text>
<text xml:space="preserve" x="38.0783" y="65.3921" fill="black" font-size="10.4952" font-family="Helvetica">10</text>
<path d="M63.9961,50.3169h -6.80315" fill="none" stroke="black"/>
<path d="M63.9961,44.1868h -6.80315" fill="none" stroke="black"/>
<path d="M63.9961,39.8374h -6.80315" fill="none" stroke="black"/>
<path d="M63.9961,36.4637h -6.80315" fill="none" stroke="black"/>
<path d="M63.9961,33.7072h -6.80315" fill="none" stroke="black"/>
<path d="M63.9961,31.3766h -6.80315" fill="none" stroke="black"/>
<g transform="rotate(-90,26.5385,191.442)">
<text xml:space="preserve" x="26.5385" y="191.442" fill="black" font-size="10.4952" font-family="Helvetica">Counts/Channel</text>
</g>
<text xml:space="preserve" x="404.097" y="60.6579" fill="black" font-size="14.7788" font-family="Helvetica" font-weight="bold"> = 2.4879 MeV</text>
<text xml:space="preserve" x="398.179" y="63.9127" fill="black" font-size="10.0192" font-family="Helvetica" font-weight="bold">p</text>
<text xml:space="preserve" x="389.006" y="60.6579" fill="black" font-size="14.7788" font-family="Helvetica" font-weight="bold">E</text>
<path d="M262.163,163.793v 26.1547" fill="none" stroke="black"/>
<path d="M264.454,189.947l -2.29122, 3.9685l -2.29122, -3.9685z" fill="black"/>
<path d="M264.454,189.947l -2.29122, 3.9685l -2.29122, -3.9685h 4.58243z" fill="none" stroke="black"/>
<text xml:space="preserve" x="266.803" y="161.853" fill="black" font-size="10.4952" font-family="Helvetica" font-weight="bold">_1 	1.369 MeV</text>
<text xml:space="preserve" x="260.293" y="161.853" fill="black" font-size="10.4952" font-family="Times">&#0945;</text>
<path d="M184.528,130.421v 30.8439" fill="none" stroke="black"/>
<path d="M186.819,161.265l -2.29122, 3.9685l -2.29122, -3.9685z" fill="black"/>
<path d="M186.819,161.265l -2.29122, 3.9685l -2.29122, -3.9685h 4.58243z" fill="none" stroke="black"/>
<text xml:space="preserve" x="172.117" y="127.529" fill="black" font-size="10.4952" font-family="Helvetica" font-weight="bold"># p_1 	0.844 MeV</text>
<path d="M210.104,148.624v 12.6412" fill="none" stroke="black"/>
<path d="M212.395,161.265l -2.29122, 3.9685l -2.29122, -3.9685z" fill="black"/>
<path d="M212.395,161.265l -2.29122, 3.9685l -2.29122, -3.9685h 4.58243z" fill="none" stroke="black"/>
<text xml:space="preserve" x="197.564" y="144.099" fill="black" font-size="10.4952" font-family="Helvetica" font-weight="bold"># p_2 	1.015 MeV</text>
<path d="M497.611,269.671h 13.0548" fill="none" stroke="black"/>
<path d="M504.138,259.191h 6.52739" fill="none" stroke="black"/>
<path d="M504.138,253.061h 6.52739" fill="none" stroke="black"/>
<path d="M504.138,248.712h 6.52739" fill="none" stroke="black"/>
<path d="M504.138,245.338h 6.52739" fill="none" stroke="black"/>
<path d="M504.138,242.582h 6.52739" fill="none" stroke="black"/>
<path d="M504.138,240.251h 6.52739" fill="none" stroke="black"/>
<path d="M504.138,238.232h 6.52739" fill="none" stroke="black"/>
<path d="M504.138,236.451h 6.52739" fill="none" stroke="black"/>
<path d="M497.611,234.859h 13.0548" fill="none" stroke="black"/>
<path d="M504.138,224.379h 6.52739" fill="none" stroke="black"/>
<path d="M504.138,218.249h 6.52739" fill="none" stroke="black"/>
<path d="M504.138,213.899h 6.52739" fill="none" stroke="black"/>
<path d="M504.138,210.526h 6.52739" fill="none" stroke="black"/>
<path d="M504.138,207.769h 6.52739" fill="none" stroke="black"/>
<path d="M504.138,205.439h 6.52739" fill="none" stroke="black"/>
<path d="M504.138,203.42h 6.52739" fill="none" stroke="black"/>
<path d="M504.138,201.639h 6.52739" fill="none" stroke="black"/>
<path d="M497.611,200.046h 13.0548" fill="none" stroke="black"/>
<path d="M504.138,189.567h 6.52739" fill="none" stroke="black"/>
<path d="M504.138,183.436h 6.52739" fill="none" stroke="black"/>
<path d="M504.138,179.087h 6.52739" fill="none" stroke="black"/>
<path d="M504.138,175.713h 6.52739" fill="none" stroke="black"/>
<path d="M504.138,172.957h 6.52739" fill="none" stroke="black"/>
<path d="M504.138,170.626h 6.52739" fill="none" stroke="black"/>
<path d="M504.138,168.607h 6.52739" fill="none" stroke="black"/>
<path d="M504.138,166.827h 6.52739" fill="none" stroke="black"/>
<path d="M497.611,165.234h 13.0548" fill="none" stroke="black"/>
<path d="M504.138,154.754h 6.52739" fill="none" stroke="black"/>
<path d="M504.138,148.624h 6.52739" fill="none" stroke="black"/>
<path d="M504.138,144.275h 6.52739" fill="none" stroke="black"/>
<path d="M504.138,140.901h 6.52739" fill="none" stroke="black"/>
<path d="M504.138,138.144h 6.52739" fill="none" stroke="black"/>
<path d="M504.138,135.814h 6.52739" fill="none" stroke="black"/>
<path d="M504.138,133.795h 6.52739" fill="none" stroke="black"/>
<path d="M504.138,132.014h 6.52739" fill="none" stroke="black"/>
<path d="M497.611,130.421h 13.0548" fill="none" stroke="black"/>
<path d="M504.138,119.942h 6.52739" fill="none" stroke="black"/>
<path d="M504.138,113.812h 6.52739" fill="none" stroke="black"/>
<path d="M504.138,109.462h 6.52739" fill="none" stroke="black"/>
<path d="M504.138,106.089h 6.52739" fill="none" stroke="black"/>
<path d="M504.138,103.332h 6.52739" fill="none" stroke="black"/>
<path d="M504.138,101.001h 6.52739" fill="none" stroke="black"/>
<path d="M504.138,98.9826h 6.52739" fill="none" stroke="black"/>
<path d="M504.138,97.2019h 6.52739" fill="none" stroke="black"/>
<path d="M497.611,95.6089h 13.0548" fill="none" stroke="black"/>
<path d="M504.138,85.1293h 6.52739" fill="none" stroke="black"/>
<path d="M504.138,78.9992h 6.52739" fill="none" stroke="black"/>
<path d="M504.138,74.6498h 6.52739" fill="none" stroke="black"/>
<path d="M504.138,71.2761h 6.52739" fill="none" stroke="black"/>
<path d="M504.138,68.5196h 6.52739" fill="none" stroke="black"/>
<path d="M504.138,66.189h 6.52739" fill="none" stroke="black"/>
<path d="M504.138,64.1702h 6.52739" fill="none" stroke="black"/>
<path d="M504.138,62.3894h 6.52739" fill="none" stroke="black"/>
<path d="M497.611,60.7965h 13.0548" fill="none" stroke="black"/>
<path d="M504.138,50.3169h 6.52739" fill="none" stroke="black"/>
<path d="M504.138,44.1868h 6.52739" fill="none" stroke="black"/>
<path d="M504.138,39.8374h 6.52739" fill="none" stroke="black"/>
<path d="M504.138,36.4637h 6.52739" fill="none" stroke="black"/>
<path d="M504.138,33.7072h 6.52739" fill="none" stroke="black"/>
<path d="M504.138,31.3766h 6.52739" fill="none" stroke="black"/>
<path d="M57.1929,38.2117v -7.46952" fill="none" stroke="black"/>
<path d="M75.3318,38.2117v -7.46952" fill="none" stroke="black"/>
<path d="M93.4707,38.2117v -7.46952" fill="none" stroke="black"/>
<path d="M111.61,38.2117v -7.46952" fill="none" stroke="black"/>
<path d="M129.749,38.2117v -7.46952" fill="none" stroke="black"/>
<path d="M147.887,38.2117v -7.46952" fill="none" stroke="black"/>
<path d="M166.026,38.2117v -7.46952" fill="none" stroke="black"/>
<path d="M184.165,38.2117v -7.46952" fill="none" stroke="black"/>
<path d="M202.304,38.2117v -7.46952" fill="none" stroke="black"/>
<path d="M220.443,38.2117v -7.46952" fill="none" stroke="black"/>
<path d="M238.582,38.2117v -7.46952" fill="none" stroke="black"/>
<path d="M256.721,38.2117v -7.46952" fill="none" stroke="black"/>
<path d="M274.86,38.2117v -7.46952" fill="none" stroke="black"/>
<path d="M292.999,38.2117v -7.46952" fill="none" stroke="black"/>
<path d="M311.138,38.2117v -7.46952" fill="none" stroke="black"/>
<path d="M329.277,38.2117v -7.46952" fill="none" stroke="black"/>
<path d="M347.415,38.2117v -7.46952" fill="none" stroke="black"/>
<path d="M365.554,38.2117v -7.46952" fill="none" stroke="black"/>
<path d="M383.693,38.2117v -7.46952" fill="none" stroke="black"/>
<path d="M401.832,38.2117v -7.46952" fill="none" stroke="black"/>
<path d="M419.971,38.2117v -7.46952" fill="none" stroke="black"/>
<path d="M438.11,38.2117v -7.46952" fill="none" stroke="black"/>
<path d="M456.249,38.2117v -7.46952" fill="none" stroke="black"/>
<path d="M474.388,38.2117v -7.46952" fill="none" stroke="black"/>
<path d="M492.527,38.2117v -7.46952" fill="none" stroke="black"/>
<path d="M510.666,38.2117v -7.46952" fill="none" stroke="black"/></svg>
